<svg width="114" height="114" viewBox="0 0 114 114" fill="none" xmlns="http://www.w3.org/2000/svg">
<g filter="url(#filter0_d)">
<circle cx="57" cy="53" r="53" fill="white"/>
<circle cx="57" cy="53" r="52.5" stroke="white"/>
</g>
<g filter="url(#filter1_d)">
<circle cx="57" cy="53" r="50" fill="white"/>
<circle cx="57" cy="53" r="49.5" stroke="#5DD2D8" stroke-dasharray="3 3"/>
</g>
<circle cx="57" cy="53" r="45.75" stroke="#2DB3BE" stroke-width="0.5"/>
<path d="M31.3843 63.78H34.9003V53.664C34.9003 53.272 34.9123 52.86 34.9362 52.428L32.4403 54.516C32.3363 54.604 32.2283 54.664 32.1163 54.696C32.0123 54.728 31.9083 54.744 31.8043 54.744C31.6443 54.744 31.4963 54.712 31.3603 54.648C31.2323 54.576 31.1363 54.496 31.0723 54.408L30.1363 53.124L35.4283 48.624H37.8643V63.78H40.9843V66H31.3843V63.78ZM48.4381 59.076C47.8381 59.076 47.2501 58.972 46.6741 58.764C46.0981 58.556 45.5821 58.244 45.1261 57.828C44.6781 57.404 44.3181 56.884 44.0461 56.268C43.7741 55.644 43.6381 54.916 43.6381 54.084C43.6381 53.308 43.7821 52.58 44.0701 51.9C44.3581 51.22 44.7621 50.624 45.2821 50.112C45.8021 49.6 46.4261 49.196 47.1541 48.9C47.8821 48.604 48.6861 48.456 49.5661 48.456C50.4541 48.456 51.2501 48.596 51.9541 48.876C52.6661 49.156 53.2701 49.548 53.7661 50.052C54.2701 50.556 54.6541 51.16 54.9181 51.864C55.1901 52.568 55.3261 53.34 55.3261 54.18C55.3261 54.716 55.2781 55.224 55.1821 55.704C55.0941 56.184 54.9621 56.648 54.7861 57.096C54.6181 57.536 54.4141 57.968 54.1741 58.392C53.9341 58.808 53.6661 59.228 53.3701 59.652L49.3981 65.316C49.2621 65.508 49.0581 65.672 48.7861 65.808C48.5221 65.936 48.2181 66 47.8741 66H45.1501L50.5381 59.268C50.6741 59.1 50.8021 58.936 50.9221 58.776C51.0421 58.616 51.1581 58.456 51.2701 58.296C50.8701 58.552 50.4301 58.748 49.9501 58.884C49.4701 59.012 48.9661 59.076 48.4381 59.076ZM52.4821 53.88C52.4821 53.408 52.4101 52.988 52.2661 52.62C52.1221 52.244 51.9181 51.928 51.6541 51.672C51.3901 51.416 51.0741 51.22 50.7061 51.084C50.3461 50.948 49.9501 50.88 49.5181 50.88C49.0701 50.88 48.6661 50.956 48.3061 51.108C47.9461 51.252 47.6381 51.456 47.3821 51.72C47.1341 51.984 46.9421 52.3 46.8061 52.668C46.6701 53.028 46.6021 53.424 46.6021 53.856C46.6021 54.824 46.8501 55.564 47.3461 56.076C47.8501 56.58 48.5621 56.832 49.4821 56.832C49.9621 56.832 50.3861 56.756 50.7541 56.604C51.1301 56.452 51.4461 56.244 51.7021 55.98C51.9581 55.716 52.1501 55.404 52.2781 55.044C52.4141 54.684 52.4821 54.296 52.4821 53.88ZM69.152 48.648V49.932C69.152 50.316 69.108 50.628 69.02 50.868C68.94 51.1 68.86 51.296 68.78 51.456L62.216 64.992C62.08 65.272 61.888 65.512 61.64 65.712C61.392 65.904 61.056 66 60.632 66H58.484L65.204 52.74C65.484 52.196 65.796 51.728 66.14 51.336H57.836C57.652 51.336 57.492 51.268 57.356 51.132C57.22 50.996 57.152 50.836 57.152 50.652V48.648H69.152ZM83.2419 57.324C83.2419 58.836 83.0779 60.152 82.7499 61.272C82.4299 62.384 81.9819 63.304 81.4059 64.032C80.8379 64.76 80.1619 65.304 79.3779 65.664C78.6019 66.016 77.7619 66.192 76.8579 66.192C75.9539 66.192 75.1139 66.016 74.3379 65.664C73.5699 65.304 72.9019 64.76 72.3339 64.032C71.7659 63.304 71.3219 62.384 71.0019 61.272C70.6819 60.152 70.5219 58.836 70.5219 57.324C70.5219 55.804 70.6819 54.488 71.0019 53.376C71.3219 52.264 71.7659 51.344 72.3339 50.616C72.9019 49.888 73.5699 49.348 74.3379 48.996C75.1139 48.636 75.9539 48.456 76.8579 48.456C77.7619 48.456 78.6019 48.636 79.3779 48.996C80.1619 49.348 80.8379 49.888 81.4059 50.616C81.9819 51.344 82.4299 52.264 82.7499 53.376C83.0779 54.488 83.2419 55.804 83.2419 57.324ZM80.1819 57.324C80.1819 56.068 80.0899 55.028 79.9059 54.204C79.7219 53.38 79.4739 52.724 79.1619 52.236C78.8579 51.748 78.5059 51.408 78.1059 51.216C77.7059 51.016 77.2899 50.916 76.8579 50.916C76.4339 50.916 76.0219 51.016 75.6219 51.216C75.2299 51.408 74.8819 51.748 74.5779 52.236C74.2739 52.724 74.0299 53.38 73.8459 54.204C73.6699 55.028 73.5819 56.068 73.5819 57.324C73.5819 58.58 73.6699 59.62 73.8459 60.444C74.0299 61.268 74.2739 61.924 74.5779 62.412C74.8819 62.9 75.2299 63.244 75.6219 63.444C76.0219 63.636 76.4339 63.732 76.8579 63.732C77.2899 63.732 77.7059 63.636 78.1059 63.444C78.5059 63.244 78.8579 62.9 79.1619 62.412C79.4739 61.924 79.7219 61.268 79.9059 60.444C80.0899 59.62 80.1819 58.58 80.1819 57.324Z" fill="#2DB3BE"/>
<defs>
<filter id="filter0_d" x="0" y="0" width="114" height="114" filterUnits="userSpaceOnUse" color-interpolation-filters="sRGB">
<feFlood flood-opacity="0" result="BackgroundImageFix"/>
<feColorMatrix in="SourceAlpha" type="matrix" values="0 0 0 0 0 0 0 0 0 0 0 0 0 0 0 0 0 0 127 0"/>
<feOffset dy="4"/>
<feGaussianBlur stdDeviation="2"/>
<feColorMatrix type="matrix" values="0 0 0 0 0 0 0 0 0 0 0 0 0 0 0 0 0 0 0.1 0"/>
<feBlend mode="normal" in2="BackgroundImageFix" result="effect1_dropShadow"/>
<feBlend mode="normal" in="SourceGraphic" in2="effect1_dropShadow" result="shape"/>
</filter>
<filter id="filter1_d" x="3" y="3" width="108" height="108" filterUnits="userSpaceOnUse" color-interpolation-filters="sRGB">
<feFlood flood-opacity="0" result="BackgroundImageFix"/>
<feColorMatrix in="SourceAlpha" type="matrix" values="0 0 0 0 0 0 0 0 0 0 0 0 0 0 0 0 0 0 127 0"/>
<feOffset dy="4"/>
<feGaussianBlur stdDeviation="2"/>
<feColorMatrix type="matrix" values="0 0 0 0 0 0 0 0 0 0 0 0 0 0 0 0 0 0 0.1 0"/>
<feBlend mode="normal" in2="BackgroundImageFix" result="effect1_dropShadow"/>
<feBlend mode="normal" in="SourceGraphic" in2="effect1_dropShadow" result="shape"/>
</filter>
</defs>
</svg>
