<svg width="372" height="250" viewBox="0 0 372 250" fill="none" xmlns="http://www.w3.org/2000/svg">
<mask id="mask0" mask-type="alpha" maskUnits="userSpaceOnUse" x="0" y="0" width="372" height="250">
<rect width="372" height="250" fill="white"/>
</mask>
<g mask="url(#mask0)">
<path opacity="0.5" d="M130.782 111.352C101.897 109.518 75.4836 99.8234 49.3755 115.456C37.963 122.289 28.812 133.862 26.7251 147.981C23.9921 166.491 33.5884 185.905 45.9613 200.686C73.6063 233.724 115.694 250.539 155.319 249.982C208.225 249.243 265.156 216.744 297.691 175.168C320.761 145.694 333.561 104.544 327.318 64.0291C320.726 21.288 289.308 -8.9594 249.221 3.55166C216.241 13.8457 191.311 40.398 178.825 74.1927C175.288 83.7738 172.564 94.2591 165.631 101.223C156.471 110.457 144.046 112.195 130.782 111.352Z" fill="#DBE8F4"/>
<path d="M228.334 170.187C254.005 187.679 273.486 210.676 305.287 211.354C319.188 211.65 333.36 206.572 342.301 195.365C354.02 180.681 354.84 158.423 350.806 138.696C341.795 94.5985 311.426 56.7523 274.682 35.4513C225.636 7.00364 157.091 4.12584 106.481 22.5925C70.5933 35.6861 38.3467 64.638 23.9479 103.501C8.7633 144.504 22.6382 188.236 65.7384 199.338C101.207 208.476 137.357 198.956 165.639 176.264C173.664 169.83 181.374 162.162 191.223 159.875C204.26 156.85 216.554 162.162 228.334 170.187Z" fill="#FBFBFB"/>
<path d="M198.999 137.753C198.714 138.626 196.063 137.785 195.552 137.68C195.04 137.576 194.36 137.273 195.824 136.977C197.287 136.681 199.347 136.665 198.999 137.753Z" fill="#E8A28B"/>
<path d="M198.688 136.999C199.656 137.775 200.195 139.088 199.469 140.049C199.009 140.607 198.492 140.947 197.836 141.179C197.663 141.249 197.483 141.327 197.308 141.38C197.125 141.442 196.95 141.495 196.775 141.549C196.609 141.609 196.434 141.662 196.254 141.683C194.686 141.82 192.773 140.663 192.655 139.152C192.53 138.115 194.207 138.727 195.038 138.558C195.223 138.512 195.405 138.45 195.569 138.373C195.732 138.296 195.877 138.205 196.02 138.098C196.749 137.559 197.379 136.742 198.391 136.842C198.496 136.88 198.595 136.927 198.688 136.999Z" fill="#E8A28B"/>
<path d="M229.987 104.466C226.887 104.01 224.617 106.009 223.035 108.443C219.289 114.182 217.252 120.612 212.498 125.713C208.474 130.033 202.862 132.984 197.911 136.105C197.368 136.448 197.015 136.603 197.015 136.603C197.157 136.799 199.02 139.639 199.02 139.639C199.905 140.972 212.097 135.287 213.116 134.765C221.04 130.764 227.853 124.498 232.071 116.7C233.003 114.976 233.826 113.145 234.055 111.196C234.403 108.311 233.219 104.937 229.987 104.466Z" fill="#6FABE2"/>
<path d="M225.619 183.236C225.987 172.524 226.697 166.612 226.881 156.023C226.933 152.754 226.986 149.476 227.03 146.181C227.135 143.259 227.398 137.278 227.398 137.278L213.664 136.782C213.664 136.782 212.314 147.902 211.85 159.779C211.736 162.743 211.894 166.212 212.253 169.881C212.604 173.55 213.156 177.411 213.813 181.184C214.05 182.41 214.4 184.192 214.821 186.296C215.119 195.364 215.619 208.04 216.144 211.623C216.381 213.257 216.583 215.518 216.74 217.909C217.03 222.256 217.082 226.951 217.082 229.646L222.691 230.028C224.996 218.404 227.406 206.789 226.942 194.947C226.889 193.295 226.775 191.643 226.591 190C226.407 188.357 226.162 186.705 225.838 185.07C225.68 184.653 225.636 184.192 225.654 183.731H225.61C225.61 183.549 225.61 183.392 225.619 183.236Z" fill="#81B8EB"/>
<path d="M217.126 229.576C217.126 229.55 217.126 229.593 217.126 229.576L212.367 231.845C212.078 231.984 212.157 232.41 212.472 232.419L222.06 232.532C222.218 232.532 222.358 232.419 222.376 232.262L222.7 229.967L217.126 229.576Z" fill="#272D52"/>
<path d="M240.069 194.929C239.946 193.277 239.762 191.626 239.517 189.982C239.271 188.339 238.947 186.687 238.561 185.053C238.395 184.635 238.325 184.175 238.316 183.714H238.272C238.263 183.549 238.264 183.392 238.264 183.236C238.193 172.524 238.658 166.612 238.421 156.022C238.342 152.753 238.255 149.476 238.167 146.181C238.158 143.259 237.834 137.121 237.834 137.121L224.399 137.278C224.399 137.278 223.522 147.902 223.548 159.778C223.557 162.743 223.855 166.212 224.364 169.881C224.872 173.55 225.573 177.41 226.388 181.184C226.677 182.41 227.098 184.192 227.606 186.296C228.281 195.364 229.298 208.04 229.964 211.622C230.271 213.257 230.56 215.517 230.814 217.908C231.278 222.255 231.524 226.95 231.629 229.646L237.247 230.028C239.087 218.387 241.015 206.771 240.069 194.929Z" fill="#81B8EB"/>
<path d="M231.665 229.576C231.665 229.55 231.665 229.593 231.665 229.576L227.002 231.845C226.713 231.984 226.809 232.41 227.134 232.419L236.722 232.532C236.879 232.532 237.011 232.419 237.028 232.262L237.256 229.967L231.665 229.576Z" fill="#272D52"/>
<path d="M239.773 151.485C240.518 129.123 243.892 120.985 241.35 112.621C240.956 111.543 240.456 110.509 239.869 109.544C238.09 106.657 235.417 104.414 231.718 103.466C230.886 103.232 230.027 103.075 229.168 103.006C226.583 102.78 223.927 103.301 221.438 104.797C217.564 107.066 215.452 110.465 214.383 114.247C214.12 115.195 213.918 116.169 213.769 117.151C213.042 123.315 212.104 142.382 211.955 148.607C219.343 149.833 239.773 151.485 239.773 151.485Z" fill="#81B8EB"/>
<path fill-rule="evenodd" clip-rule="evenodd" d="M238.344 152.496L212.442 149.837L212.248 148.535L238.343 151.184L238.344 152.496Z" fill="#6084A6"/>
<path d="M231.437 98.2664C231.437 98.2664 232.805 97.6665 232.831 98.7098C232.857 99.7531 231.087 100.066 231.087 100.066L231.437 98.2664Z" fill="#E8A28B"/>
<path d="M234.196 95.5814C234.196 95.5814 233.568 98.4056 233.065 101.079C232.562 103.753 233.002 106.138 233.002 106.138L222.783 111.799L224.907 105.033C224.907 105.033 226.944 101.883 227.497 99.9244C228.05 97.9663 229.093 95.1797 229.093 95.1797L234.196 95.5814Z" fill="#E8A28B"/>
<path d="M233.221 87.9491C232.689 87.6657 232.17 87.4808 231.651 87.3946C231.132 87.296 230.612 87.2837 230.119 87.3453C226.796 88.3805 224.72 91.7818 224.032 95.3064C223.889 96.0089 223.811 96.7237 223.785 97.4138C223.175 100.026 224.849 103.329 228.081 103.033C228.562 103.033 229.081 102.972 229.613 102.812C231.222 102.331 233.001 100.975 234.545 97.8205C236.129 94.5547 237.076 90.2167 233.455 88.0847C233.377 88.0354 233.299 87.9984 233.221 87.9491Z" fill="#E8A28B"/>
<path d="M227.289 88.8267C227.431 89.1277 227.701 89.3911 228.035 89.5918C228.896 90.1186 230.04 90.2565 231.03 90.3318C231.994 90.407 233.344 90.5952 233.91 91.4731C234.732 92.7525 233.37 94.4958 233.177 95.7877C233.074 96.465 233.138 97.0043 233.562 97.205C234.077 97.4308 234.295 97.6691 234.514 97.7694C235.195 98.0453 236.609 96.603 236.969 96.1891C239.36 93.3294 239.244 88.3501 235.632 86.4562C233.1 85.1392 228.948 85.0389 227.315 87.7481C227.122 88.1369 227.135 88.5006 227.289 88.8267Z" fill="#000105"/>
<path d="M235.512 97.3666C235.512 97.3666 235.091 94.3219 231.12 91.8079C227.161 89.3074 226.294 89.9661 226.294 89.9661C226.294 89.9661 226.859 87.479 227.689 86.0674C228.518 84.6424 232.356 84.0643 234.882 85.57C237.408 87.0757 239.519 89.4418 238.74 93.233C237.974 97.0242 235.512 97.3666 235.512 97.3666Z" fill="#81B8EB"/>
<path d="M233.144 97.5311C233.144 97.5311 229.631 95.0979 226.915 94.1463C224.2 93.1947 224.324 93.4666 224.324 93.4666C224.324 93.4666 223.502 96.8378 223.689 99.2575C223.876 101.677 224.785 102.493 225.196 103.077C225.607 103.662 227.713 104.654 230.366 103.077C233.019 101.5 233.318 100.1 233.318 100.1C233.318 100.1 231.001 102.724 230.266 100.114C229.531 97.5039 233.144 97.5311 233.144 97.5311Z" fill="white"/>
<path d="M195.916 131.108C195.446 131.803 195.145 132.705 195.321 133.521C195.518 134.389 196.389 134.882 197.171 135.111C197.97 135.332 199.003 135.451 199.85 135.27C201.532 134.904 203.204 133.06 202.865 131.432C202.69 130.298 201.108 131.495 200.201 131.582C199.985 131.604 199.796 131.592 199.587 131.559C199.403 131.535 199.217 131.481 199.035 131.414C198.111 131.09 197.205 130.439 196.181 130.858C196.085 130.925 195.985 131.003 195.916 131.108Z" fill="#E8A28B"/>
<path d="M195.989 131.678C196.602 132.511 198.969 131.049 199.455 130.837C199.941 130.624 200.51 130.167 198.92 130.192C197.325 130.229 195.232 130.648 195.989 131.678Z" fill="#E8A28B"/>
<path d="M191.664 132.653C191.664 132.653 194.347 132.494 195.421 133.844C196.478 135.202 198.322 130.19 196.452 130.502C194.581 130.814 193.359 129.453 193.359 129.453L191.664 132.653Z" fill="#E8A28B"/>
<path d="M178.14 123.777C182.77 126.658 188.471 127.956 193.618 129.554C194.185 129.733 194.536 129.793 194.565 129.692L193.497 132.96C193.039 134.358 180.838 132.193 179.797 131.982C177.176 131.43 174.601 130.635 172.121 129.616L176.286 122.512C176.892 122.957 177.499 123.375 178.14 123.777Z" fill="#6FABE2"/>
<path d="M182.974 96.2022C185.498 92.8641 184.824 88.1092 181.468 85.5818C178.112 83.0543 173.346 83.7115 170.821 87.0496C168.297 90.3877 168.971 95.1426 172.327 97.6701C175.683 100.197 180.45 99.5403 182.974 96.2022Z" fill="#000105"/>
<path d="M152.822 190.191C153.145 188.591 153.521 186.991 153.966 185.4C154.412 183.809 154.918 182.227 155.503 180.653C155.931 179.879 155.983 178.931 155.957 178.071C155.651 167.638 154.988 161.934 154.848 151.605C154.813 148.415 154.778 145.215 154.752 142.007C154.656 139.164 154.595 133.417 154.595 133.417L167.728 133.234C167.946 135.147 168.173 143.624 168.522 153.909C168.618 156.796 168.444 160.195 168.086 163.812C167.719 167.429 167.169 171.254 166.514 174.993C165.274 181.331 161.074 202.423 159.598 207.127C159.101 208.701 158.542 210.883 158 213.196C157.014 217.404 156.202 221.959 155.756 224.576H151.224C150.884 213.117 150.447 201.667 152.822 190.191Z" fill="#81B8EB"/>
<path d="M160.13 224.319C160.13 224.293 160.121 224.336 160.13 224.319L165.308 226.858C165.57 227.014 165.422 227.423 165.107 227.406L155.817 226.858C155.668 226.849 155.555 226.727 155.555 226.571L155.625 224.319H160.13Z" fill="#272D52"/>
<path d="M173.899 224.319C173.907 224.293 173.899 224.336 173.899 224.319L179.138 226.858C179.408 227.014 179.286 227.423 178.972 227.406L169.646 226.858C169.498 226.849 169.376 226.727 169.367 226.571L169.306 224.319H173.899Z" fill="#272D52"/>
<path d="M179.768 154.37C179.463 144.05 178.502 134.712 178.293 132.791L165.937 133.478C165.937 133.478 165.998 138.755 166.077 141.607C166.094 144.824 166.112 148.032 166.138 151.232C166.225 161.578 166.863 167.342 167.125 177.81C167.133 178.053 167.133 178.297 167.116 178.549L167.055 178.532C167.011 178.94 166.915 179.34 166.74 179.705C166.252 181.314 165.832 182.931 165.483 184.557C165.134 186.183 164.846 187.808 164.619 189.452C162.907 201.18 164.007 212.883 165.003 224.594H169.535C169.823 221.916 170.373 217.265 171.115 212.961C171.526 210.596 171.953 208.37 172.364 206.762C173.237 203.293 175.036 191.069 176.293 182.114C176.878 179.305 177.358 176.914 177.673 175.384C178.345 171.681 178.913 167.881 179.297 164.282C179.664 160.665 179.856 157.265 179.768 154.37Z" fill="#81B8EB"/>
<path d="M180.2 149.337C180.2 149.337 180.558 146.964 181.069 143.462C181.235 142.3 181.43 141.011 181.619 139.641C181.814 138.405 182.055 137.157 182.315 135.904C184.062 128.017 186.177 119.798 183.804 111.764C182.102 106.188 176.88 102.524 171.219 102.47C170.254 102.43 169.284 102.477 168.34 102.589C166.826 102.792 165.328 103.234 163.914 103.944C162.509 104.655 161.181 105.615 160.012 106.863C155.028 112.037 156.437 118.967 155.972 125.149C155.968 125.526 155.881 126.278 155.749 127.269C155.069 132.24 153.085 143.336 152.98 145.149C153.447 145.387 154.301 145.348 154.81 145.425C158.514 145.984 162.224 146.562 165.925 147.138C167.85 147.437 169.774 147.737 171.696 148.044C172.378 148.147 180.2 149.337 180.2 149.337Z" fill="#81B8EB"/>
<path d="M175.348 92.8447C175.348 92.8447 174.432 95.7379 173.487 98.4269C172.542 101.116 171.057 102.625 171.057 102.625L174.979 109.884L177.893 106.605C177.893 106.605 178.092 102.057 178.622 100.01C179.152 97.9622 179.717 94.9003 179.717 94.9003L175.348 92.8447Z" fill="#E8A28B"/>
<path d="M178.913 86.3297C179.53 86.3281 180.105 86.4228 180.63 86.5963C181.155 86.7698 181.622 87.0044 182.046 87.3059C184.56 89.8932 184.745 94.015 183.61 97.5845C183.03 99.4142 182.347 101.342 180.728 102.528C179.266 103.595 177.619 103.546 176.033 102.676C175.596 102.44 175.16 102.133 174.753 101.724C173.535 100.498 172.574 98.3782 172.763 94.7375C172.95 90.9663 174.258 86.5242 178.634 86.3505C178.718 86.33 178.822 86.3326 178.913 86.3297Z" fill="#E8A28B"/>
<path fill-rule="evenodd" clip-rule="evenodd" d="M153.634 144.734L180.105 150.186L180.273 149.327L153.746 144.162L153.634 144.734Z" fill="#6084A6"/>
<path d="M171.277 95.5386C171.277 95.5386 173.533 96.9576 173.666 94.8274C173.799 92.6973 174.35 85.1839 177.49 84.7629C180.63 84.3419 181.649 86.5222 181.649 86.5222C181.649 86.5222 179.851 82.0693 174.772 83.7287C169.707 85.3898 168.212 92.087 171.277 95.5386Z" fill="#000105"/>
<path d="M174.22 94.0668C174.22 94.0668 172.306 92.3103 171.866 94.4813C171.425 96.6523 174.076 97.9479 174.076 97.9479L174.22 94.0668Z" fill="#E8A28B"/>
<path d="M181.614 89.797C180.322 89.5598 178.961 89.6952 177.876 90.2697C176.728 91.0608 175.816 92.0999 175.137 93.2852C174.801 93.8717 174.575 94.4925 174.264 95.0906C173.941 95.7549 173.591 96.4076 173.188 97.0371C173.093 97.1825 173.003 97.3157 172.908 97.461C171.719 97.7016 170.525 97.4928 169.471 96.9283C169.319 96.8468 169.185 96.759 169.038 96.6655C167.971 96.1671 167.245 95.2139 166.767 94.1249C166.697 93.9642 166.639 93.8093 166.569 93.6487C166.352 92.5735 165.705 91.5831 166.146 90.5095C166.163 90.4014 166.174 90.3053 166.203 90.203C166.551 88.5556 167.352 87.0929 168.478 85.8886C168.75 85.5906 169.062 85.3101 169.374 85.0295C169.709 84.7306 170.061 84.4673 170.425 84.2099C170.802 83.9582 171.182 83.7365 171.589 83.5263C175.403 81.5604 181.255 81.7013 184.388 85.1691C184.708 85.5115 185.004 85.8724 185.277 86.2515C186.887 88.545 186.546 91.6319 184.188 93.389C184.283 93.3156 183.95 91.9371 183.916 91.8358C183.692 91.2593 184.092 91.4355 183.868 90.859C183.522 90.4331 183.607 90.4725 183.1 90.2348C182.635 90.0445 182.122 89.8908 181.614 89.797Z" fill="#C4EAFF"/>
<path d="M191.052 118.007C192.121 117.547 192.979 116.712 193.485 115.667L194.667 113.229C195.215 112.17 196.256 111.446 197.438 111.293L200.04 110.931C200.406 110.875 200.743 111.167 200.743 111.53C200.743 111.85 200.504 112.115 200.181 112.143L197.649 112.365C198.802 112.895 199.913 113.215 200.926 113.104C201.25 113.062 201.573 113.271 201.658 113.591C201.686 113.689 201.686 113.8 201.658 113.912C201.531 114.483 201.208 115.04 200.589 115.583L198.479 115.305C199.421 115.778 200.054 116.322 200.307 116.976C200.335 117.464 200.012 117.617 199.323 117.394C198.732 116.976 197.804 116.043 197.353 115.723L196.889 118.62C196.439 119.832 195.047 120.431 193.865 119.916C193.865 119.916 193.851 119.916 193.851 119.902C188.253 125.014 182.289 129.848 172.048 131.324C167.013 133.219 162.371 131.073 158.826 118.23C163.13 118.857 165.17 119.233 168.448 116.976L171.072 124.488C177.022 124.642 184.525 120.849 191.052 118.007Z" fill="#F7B690"/>
<path d="M194.616 133.003C192.83 131.314 193.37 130.076 194.429 128.743C195.489 127.41 198.792 125.971 202.538 128.948C206.284 131.925 206.061 136.781 205.009 138.104C203.958 139.428 202.412 139.215 200.972 138.071C200.038 137.328 199.819 136.265 199.77 135.607C199.746 135.239 199.772 135.006 199.772 135.006C198.964 134.903 198.466 134.412 198.228 133.572C198.228 133.572 198.038 133.691 197.705 133.791C197.047 133.999 195.817 134.149 194.616 133.003Z" fill="#ED6673"/>
<path d="M187.701 131.061L188.667 129.845C192.25 133.248 195.288 135.059 197.29 134.078C197.315 134.066 197.348 134.045 197.373 134.033C197.381 134.024 197.398 134.022 197.414 134.002C197.447 133.981 197.497 133.957 197.538 133.926C197.563 133.914 197.596 133.893 197.611 133.873C197.619 133.864 197.627 133.854 197.637 133.862C197.67 133.84 197.703 133.819 197.726 133.79C198.05 133.682 198.249 133.57 198.249 133.57C198.479 134.42 198.995 134.909 199.793 135.004C199.793 135.004 199.759 135.247 199.791 135.606C199.578 135.754 199.353 135.877 199.127 135.982C196.572 137.08 192.65 135.202 187.701 131.061Z" fill="#F5A17D"/>
<path d="M207.321 140.664L211.308 128.418C203.734 130.744 195.938 132.271 188.047 132.973L186.816 133.083L195.929 142.413L207.321 140.664Z" fill="#B6D2E3" fill-opacity="0.8"/>
<path d="M205.065 137.211C204.769 138.14 202.263 137.691 201.778 137.663C201.292 137.635 200.652 137.432 202.057 136.909C203.462 136.386 205.428 136.056 205.065 137.211Z" fill="#E8A28B"/>
<path d="M205.016 136.665C206.041 137.387 206.659 138.69 205.973 139.727C205.536 140.332 205.029 140.719 204.375 141.006C204.203 141.089 204.024 141.183 203.849 141.251C203.667 141.328 203.492 141.395 203.317 141.463C203.151 141.537 202.976 141.604 202.794 141.639C201.208 141.896 199.203 140.856 199.002 139.32C198.819 138.267 200.556 138.768 201.392 138.533C201.577 138.472 201.759 138.395 201.921 138.304C202.083 138.214 202.225 138.11 202.364 137.989C203.076 137.384 203.672 136.501 204.706 136.527C204.815 136.558 204.917 136.599 205.016 136.665Z" fill="#E8A28B"/>
<path d="M238.8 106.804C235.738 106.14 233.337 107.981 231.595 110.303C227.47 115.776 225.004 122.054 219.917 126.823C215.611 130.862 209.812 133.427 204.662 136.207C204.097 136.512 203.734 136.644 203.734 136.644C203.863 136.848 205.53 139.808 205.53 139.808C206.323 141.198 218.871 136.347 219.923 135.895C228.098 132.438 235.319 126.647 240.053 119.151C241.099 117.493 242.044 115.722 242.404 113.793C242.946 110.937 241.992 107.492 238.8 106.804Z" fill="#6FABE2"/>
<rect x="217.051" y="114.406" width="5.24812" height="1.74937" transform="rotate(21.2665 217.051 114.406)" fill="#275880"/>
<rect x="163.2" y="138.039" width="7.87218" height="1.74937" fill="#275880"/>
<rect x="228.801" y="139.789" width="7.87218" height="1.74937" fill="#275880"/>
<path d="M123.84 100.254H148.419V101.672H123.84V100.254Z" fill="#595855"/>
<path d="M145.425 98.6787H148.419V213.382H145.425V98.6787Z" fill="#595855"/>
<path d="M127.147 106.714C127.147 103.09 129.983 100.254 133.606 100.254C137.23 100.254 140.066 103.248 140.066 106.714V108.289H127.147V106.714Z" fill="#FAFCFB"/>
<path d="M159.919 216.06C159.919 213.066 157.398 210.545 154.404 210.545H139.436C136.442 210.545 133.921 213.066 133.921 216.06H132.818C132.818 212.436 135.812 209.442 139.436 209.442H154.404C158.028 209.442 161.021 212.436 161.021 216.06H159.919Z" fill="#595855"/>
<path d="M160.55 217.636C159.419 217.636 158.502 216.719 158.502 215.587C158.502 214.456 159.419 213.539 160.55 213.539C161.682 213.539 162.599 214.456 162.599 215.587C162.599 216.719 161.682 217.636 160.55 217.636Z" fill="#595855"/>
<path d="M133.609 217.637C132.478 217.637 131.561 216.72 131.561 215.588C131.561 214.457 132.478 213.54 133.609 213.54C134.74 213.54 135.657 214.457 135.657 215.588C135.657 216.72 134.74 217.637 133.609 217.637Z" fill="#595855"/>
<path d="M140.066 108.29V121.367C140.066 124.991 137.23 127.827 133.606 127.827C129.983 127.827 127.147 124.991 127.147 121.367V108.29H140.066Z" fill="#FAFCFB"/>
<path d="M138.493 110.496V120.58C138.493 123.258 136.287 125.622 133.451 125.622C130.773 125.622 128.409 123.416 128.409 120.58V110.496H138.493Z" fill="#C1272D"/>
<path d="M126.49 142.162C127.575 138.665 128.539 134.204 126.731 130.466C126.128 129.26 125.284 128.175 124.319 127.09C124.078 126.849 123.958 126.608 123.837 126.487C122.752 125.161 121.667 123.593 120.823 122.146C120.099 121.061 119.617 119.976 119.496 119.011C119.255 117.806 119.617 116.72 120.34 115.997C121.546 114.791 123.716 115.274 124.802 116.359C125.163 116.72 125.525 117.203 125.887 117.565C126.369 118.288 126.972 119.011 127.695 119.494C128.901 120.217 130.469 120.338 131.674 119.614C132.88 118.891 133.604 117.444 133.483 116.118H132.639C132.76 117.203 132.157 118.288 131.192 118.891C130.228 119.494 129.022 119.373 128.057 118.77C127.454 118.409 126.972 117.685 126.49 117.082C126.128 116.6 125.766 116.118 125.405 115.756C123.958 114.309 121.305 113.827 119.738 115.394C118.893 116.238 118.411 117.685 118.652 119.132C118.893 120.338 119.496 121.543 120.099 122.629C121.064 124.196 122.149 125.643 123.234 127.09C123.355 127.331 123.596 127.572 123.837 127.813C124.681 128.778 125.525 129.863 126.128 130.948C127.816 134.445 126.851 138.665 125.887 142.041L126.49 142.162Z" fill="#C1272D"/>
<path d="M275.502 95.9937H267.635V93.3854H275.502C275.572 93.3854 276.061 93.1072 276.559 91.8726C277.1 90.5424 277.406 88.6731 277.406 86.743V29.5781H280.025V86.743C280.025 89.0296 279.658 91.1945 278.986 92.8464C277.886 95.5851 276.332 95.9937 275.502 95.9937Z" fill="white"/>
<path d="M158.053 49.1191H116.874V75.4628H158.053V49.1191Z" fill="#272D52"/>
<path d="M159.363 76.7752H115.564V47.8232H159.363V76.7752ZM118.184 74.1669H156.744V50.4315H118.184V74.1669Z" fill="white"/>
<path d="M221.027 49.1182H179.848V75.4618H221.027V49.1182Z" fill="#272D52"/>
<path d="M222.336 76.7742H178.537V47.8223H222.336V76.7742ZM181.157 74.1659H219.716V50.4305H181.157V74.1659Z" fill="white"/>
<path d="M137.359 49.1173H134.739V44.8572C134.739 40.8926 137.979 37.667 141.96 37.667H168.243V40.2753H141.96C139.428 40.2753 137.359 42.3271 137.359 44.8572V49.1173Z" fill="white"/>
<path d="M201.748 49.1181H199.129V34.7117C199.129 32.1903 197.068 30.1298 194.527 30.1298H168.244V27.5215H194.527C198.509 27.5215 201.748 30.7471 201.748 34.7117V49.1181Z" fill="white"/>
<path d="M168.243 45.6229C166.793 45.6229 165.623 44.4579 165.623 43.0147V2.44715C165.623 1.0039 166.793 -0.161133 168.243 -0.161133C169.692 -0.161133 170.862 1.0039 170.862 2.44715V43.0147C170.862 44.4492 169.692 45.6229 168.243 45.6229Z" fill="white"/>
<path d="M286.535 106.772C291.463 100.998 287.621 89.685 277.953 81.5036C268.284 73.3223 256.452 71.3706 251.524 77.1443C246.596 82.9181 250.438 94.2309 260.106 102.412C269.774 110.594 281.607 112.545 286.535 106.772Z" fill="white"/>
<path d="M284.708 107.489C289.458 101.924 285.656 90.9364 276.216 82.9479C266.776 74.9593 255.272 72.9948 250.522 78.56C245.772 84.1252 249.574 95.1127 259.014 103.101C268.454 111.09 279.958 113.054 284.708 107.489Z" fill="#B4C4D4"/>
<path d="M282.198 105.774C286.299 100.97 283.015 91.4841 274.865 84.587C266.714 77.6899 256.783 75.9933 252.682 80.7974C248.582 85.6016 251.865 95.0873 260.016 101.984C268.166 108.881 278.098 110.578 282.198 105.774Z" fill="white"/>
<path d="M75.1776 92.9019H67.3102C66.4807 92.9019 64.9264 92.4933 63.8262 89.7546C63.1626 88.1027 62.7871 85.9378 62.7871 83.6512V26.4863H65.4067V83.6512C65.4067 85.5813 65.7123 87.4506 66.2536 88.7808C66.7514 90.0154 67.2403 90.2936 67.3102 90.2936H75.1776V92.9019Z" fill="white"/>
<path d="M82.7036 99.3343C92.3718 91.1529 96.2143 79.8401 91.2862 74.0663C86.3581 68.2926 74.5255 70.2443 64.8573 78.4256C55.1891 86.607 51.3466 97.9198 56.2747 103.694C61.2028 109.467 73.0355 107.516 82.7036 99.3343Z" fill="white"/>
<path d="M83.7969 100.028C93.2372 92.0392 97.0394 81.0517 92.2892 75.4865C87.5391 69.9213 76.0355 71.8858 66.5952 79.8743C57.1548 87.8629 53.3527 98.8504 58.1028 104.416C62.8529 109.981 74.3565 108.016 83.7969 100.028Z" fill="#B4C4D4"/>
<path d="M82.7946 98.911C90.9451 92.014 94.2283 82.5283 90.1278 77.7241C86.0272 72.92 76.0958 74.6166 67.9453 81.5137C59.7948 88.4108 56.5116 97.8965 60.6122 102.701C64.7127 107.505 74.6441 105.808 82.7946 98.911Z" fill="white"/>
<path d="M87.8984 140.103C87.7761 140.625 87.8111 141.234 88.1254 141.686C88.466 142.164 89.1383 142.268 89.6884 142.234C90.2473 142.19 90.9283 142.034 91.4173 141.738C92.3866 141.147 92.9803 139.669 92.3604 138.764C91.9674 138.121 91.2689 139.191 90.7188 139.443C90.5878 139.503 90.4656 139.538 90.3258 139.564C90.2036 139.59 90.0726 139.599 89.9416 139.599C89.278 139.608 88.5446 139.417 88.0032 139.895C87.9595 139.956 87.9159 140.025 87.8984 140.103Z" fill="#E8A28B"/>
<path d="M88.126 140.417C88.7197 140.782 89.8461 139.382 90.0994 139.147C90.3526 138.913 90.5971 138.513 89.6016 138.878C88.6062 139.252 87.3925 139.965 88.126 140.417Z" fill="#E8A28B"/>
<path d="M85.6719 142.016C85.6719 142.016 87.3222 141.329 88.3351 141.903C89.3392 142.486 89.2519 139.069 88.1517 139.669C87.0515 140.269 85.9426 139.721 85.9426 139.721L85.6719 142.016Z" fill="#E8A28B"/>
<path d="M70.1652 138.869C75.5178 139.913 81.307 139.095 86.6858 138.756C87.2796 138.722 87.6289 138.652 87.6201 138.548L87.786 141.982C87.8559 143.451 75.6837 145.773 74.6359 145.946C71.9902 146.364 69.3008 146.538 66.6201 146.468L67.9823 138.348C68.707 138.548 69.423 138.722 70.1652 138.869Z" fill="white"/>
<path d="M70.0681 106.552C71.0338 102.48 68.5013 98.3997 64.4117 97.4381C60.3221 96.4766 56.224 98.9982 55.2583 103.07C54.2926 107.142 56.8251 111.223 60.9147 112.184C65.0043 113.146 69.1025 110.624 70.0681 106.552Z" fill="#000105"/>
<path d="M51.9327 203.929C52.2558 202.329 52.6312 200.729 53.0766 199.138C53.5219 197.547 54.0283 195.965 54.6134 194.391C55.0412 193.617 55.0936 192.67 55.0674 191.809C54.7618 181.376 54.0982 175.672 53.9585 165.344C53.9235 162.153 53.8886 158.953 53.8624 155.745C53.7664 152.902 53.7052 147.155 53.7052 147.155L66.8379 146.973C67.0562 148.885 67.2832 157.362 67.6325 167.648C67.7286 170.534 67.5539 173.934 67.1959 177.55C66.8292 181.167 66.2791 184.993 65.6242 188.731C64.3843 195.069 60.1843 216.162 58.7086 220.865C58.2109 222.439 57.652 224.621 57.1107 226.934C56.124 231.142 55.3119 235.698 54.8666 238.315H50.3348C49.9942 226.856 49.5576 215.405 51.9327 203.929Z" fill="#81B8EB"/>
<path d="M54.8675 238.314C54.8675 238.288 54.8587 238.332 54.8675 238.314L60.0454 240.853C60.3074 241.009 60.159 241.418 59.8446 241.401L50.5539 240.853C50.4055 240.844 50.292 240.723 50.292 240.566L50.3618 238.314H54.8675Z" fill="#272D52"/>
<path d="M68.6349 238.314C68.6437 238.288 68.6349 238.332 68.6349 238.314L73.874 240.853C74.1447 241.009 74.0225 241.418 73.7081 241.401L64.3825 240.853C64.2341 240.844 64.1118 240.723 64.1031 240.566L64.042 238.314H68.6349Z" fill="#272D52"/>
<path d="M78.8787 168.109C78.5731 157.788 77.6126 148.451 77.403 146.529L65.0475 147.216C65.0475 147.216 65.1086 152.494 65.1872 155.345C65.2047 158.562 65.2221 161.77 65.2483 164.97C65.3357 175.316 65.9731 181.08 66.235 191.548C66.2438 191.792 66.2438 192.035 66.2263 192.287L66.1652 192.27C66.1215 192.679 66.0255 193.078 65.8508 193.444C65.3619 195.052 64.9427 196.669 64.5935 198.295C64.2442 199.921 63.956 201.547 63.729 203.19C62.0176 214.918 63.1178 226.621 64.1132 238.332H68.645C68.9332 235.654 69.4833 231.003 70.2255 226.699C70.6359 224.334 71.0637 222.109 71.4741 220.5C72.3473 217.031 74.1461 204.807 75.4035 195.852C75.9885 193.044 76.4687 190.653 76.7831 189.123C77.4554 185.419 78.023 181.619 78.4072 178.02C78.7739 174.403 78.966 171.004 78.8787 168.109Z" fill="#81B8EB"/>
<path d="M79.7262 161.292C79.7262 161.292 79.7262 158.892 79.7087 155.353C79.7 154.18 79.7 152.876 79.6825 151.493C79.6913 150.241 79.7437 148.972 79.8135 147.694C80.3636 139.634 81.2281 131.192 77.6829 123.602C75.1682 118.342 69.4576 115.499 63.8517 116.29C62.8912 116.394 61.9395 116.586 61.0226 116.838C59.5557 117.264 58.1411 117.924 56.8488 118.837C55.5652 119.75 54.3952 120.898 53.4259 122.306C49.2696 128.166 51.697 134.809 52.1598 140.99C52.2122 141.364 52.2384 142.121 52.2559 143.121C52.3257 148.137 52.0201 159.405 52.186 161.213C52.6837 161.379 53.522 161.213 54.0372 161.213C57.7831 161.213 61.5378 161.231 65.2838 161.248C67.2309 161.257 69.1781 161.266 71.1253 161.283C71.8152 161.283 79.7262 161.292 79.7262 161.292Z" fill="#81B8EB"/>
<path d="M61.7363 106.551C61.7363 106.551 62.0638 109.568 62.2822 112.409C62.5005 115.251 61.7485 117.231 61.7485 117.231L68.2621 122.295L69.6085 118.12C69.6085 118.12 67.9589 113.878 67.6192 111.79C67.2796 109.702 66.564 106.672 66.564 106.672L61.7363 106.551Z" fill="#E8A28B"/>
<path d="M62.3746 99.1525C62.9386 98.9024 63.5027 98.7577 64.053 98.705C64.6033 98.6524 65.1261 98.6787 65.6351 98.784C68.9781 100.14 70.8079 103.838 71.2069 107.562C71.4132 109.47 71.5645 111.51 70.5602 113.247C69.6523 114.813 68.1252 115.432 66.323 115.274C65.8277 115.234 65.3049 115.129 64.7684 114.919C63.1587 114.287 61.4253 112.734 60.1321 109.325C58.7839 105.798 58.1923 101.205 62.1269 99.2841C62.1957 99.2314 62.292 99.192 62.3746 99.1525Z" fill="#E8A28B"/>
<path fill-rule="evenodd" clip-rule="evenodd" d="M53.8636 161.364L79.2288 161.656L79.2295 160.781H53.8636V161.364Z" fill="#6084A6"/>
<path d="M58.6637 109.748C58.6637 109.748 61.0761 110.881 60.9484 108.751C60.8206 106.62 60.4517 99.0957 63.5169 98.2949C66.5821 97.4941 67.8592 99.5339 67.8592 99.5339C67.8592 99.5339 65.5319 95.3334 60.6929 97.5999C55.8681 99.8663 55.2011 106.696 58.6637 109.748Z" fill="#000105"/>
<path d="M61.4057 107.93C61.4057 107.93 59.2925 106.42 59.12 108.628C58.9475 110.837 61.7364 111.799 61.7364 111.799L61.4057 107.93Z" fill="#E8A28B"/>
<path d="M66.2428 101.238C64.9649 101.541 63.7732 102.214 63.0122 103.176C62.2799 104.363 61.8635 105.682 61.7199 107.04C61.6481 107.712 61.6912 108.372 61.6481 109.044C61.6194 109.782 61.5619 110.521 61.4471 111.259C61.4184 111.431 61.3896 111.589 61.3609 111.76C60.3702 112.459 59.1928 112.749 58.001 112.657C57.8287 112.644 57.6708 112.617 57.4985 112.591C56.3211 112.564 55.2729 111.984 54.397 111.18C54.2678 111.061 54.1529 110.943 54.0237 110.824C53.3919 109.927 52.4012 109.281 52.3725 108.121C52.3437 108.016 52.315 107.923 52.3007 107.818C51.9561 106.17 52.0997 104.508 52.6453 102.952C52.7745 102.57 52.9468 102.188 53.1191 101.805C53.3058 101.396 53.5212 101.014 53.7509 100.632C53.995 100.249 54.2534 99.8933 54.5406 99.5373C57.24 96.2014 62.6532 93.973 66.9177 95.8849C67.3485 96.0695 67.7648 96.2805 68.1669 96.5178C70.5648 97.9682 71.4956 100.931 70.0453 103.489C70.1028 103.384 69.2424 102.256 69.1707 102.177C68.7333 101.74 69.1707 101.74 68.7333 101.302C68.2451 101.052 68.3392 101.054 67.7792 101.04C67.2767 101.054 66.7454 101.12 66.2428 101.238Z" fill="#81B8EB"/>
<path d="M80.5033 141.964C80.608 141.964 80.7128 141.929 80.8001 141.851C80.9748 141.686 80.9835 141.416 80.8176 141.242L75.5174 135.6C75.3515 135.426 75.0808 135.417 74.9062 135.583C74.7315 135.748 74.7228 136.017 74.8887 136.191L80.1889 141.834C80.2675 141.921 80.381 141.964 80.5033 141.964Z" fill="#000105"/>
<path d="M77.2027 141.277C77.9274 141.008 78.8879 140.982 79.3245 140.234C79.7611 139.486 79.6476 138.547 79.1412 137.913C78.4513 137.209 77.6567 137.913 77.0281 138.261C76.8621 138.382 76.6962 138.504 76.5303 138.634C76.0414 139.017 75.5698 139.426 75.0023 139.721C74.7927 139.86 74.5919 139.991 74.426 140.095C74.0854 140.312 73.8584 140.443 73.8584 140.443L75.3079 142.434C75.3079 142.434 75.5262 142.243 75.8667 141.999C76.0414 141.877 76.2422 141.747 76.4692 141.625C76.6962 141.486 76.9495 141.373 77.2027 141.277Z" fill="#E8A28B"/>
<path d="M51.2256 129.349C51.3478 127.54 51.6098 125.715 52.3956 124.08C53.5482 121.672 56.1241 119.62 58.8659 120.82C61.5029 121.976 62.28 124.654 62.315 127.332C62.3848 132.374 61.3894 137.226 61.5902 142.19C66.1482 141.703 70.7063 140.156 75.0547 138.999C75.2905 138.939 75.4913 138.878 75.6397 138.817C75.8056 138.756 75.9977 138.852 76.0414 139.026C76.2684 139.921 76.7836 141.947 76.7836 141.947C77.1416 143.373 65.668 148.041 64.6726 148.407C63.8954 148.694 63.1183 148.954 62.3237 149.198C59.2326 150.146 55.8884 148.937 54.1158 146.25C53.7665 145.729 53.4958 145.164 53.295 144.572C51.6272 139.686 50.8676 134.496 51.2256 129.349Z" fill="#6FABE2"/>
<path d="M90.2823 132.853L87.6191 131.757L88.4225 130.271L91.0857 131.375L90.2823 132.853Z" fill="#C2F0F9"/>
<path d="M87.2361 146.772L76.9238 142.521L84.1189 129.279L94.4311 133.539L87.2361 146.772Z" fill="#272D52"/>
<path d="M104.421 147.894C104.421 147.894 103.897 159.318 114.139 166.986C124.381 174.663 133.139 176.315 133.139 176.315C133.139 176.315 137.252 175.272 140.055 173.09C142.858 170.907 144.613 167.247 144.613 167.247C144.613 167.247 141.461 158.701 136.292 153.814C131.122 148.928 123.858 146.494 123.858 146.494C123.858 146.494 119.832 145.451 113.17 145.972C106.507 146.494 104.421 147.894 104.421 147.894Z" fill="#5484CC"/>
<path d="M161.832 153.875C159.309 152.023 156.558 150.45 153.677 149.145C152.236 148.493 150.752 147.919 149.259 147.415C141.732 145.45 130.258 141.703 125.482 150.076C124.932 151.241 124.556 152.51 124.382 153.832C124.216 155.153 124.251 156.544 124.539 157.97C125.386 162.404 127.901 165.569 131.149 167.882C131.961 168.455 132.825 168.977 133.716 169.455C139.357 172.263 145.565 173.533 151.459 175.819C154.541 170.359 157.108 164.726 159.719 159.039C160.243 157.9 160.767 156.762 161.3 155.631C161.728 154.675 161.963 154.005 161.832 153.875C161.841 153.875 161.832 153.875 161.832 153.875Z" fill="#E8A28B"/>
<path d="M117.716 150.694C117.716 150.694 120.02 151.527 122.156 152.392C124.292 153.257 125.8 154.655 125.8 154.655C125.8 154.655 128.722 154.869 129.696 151.73C130.67 148.591 128.649 148.26 128.649 148.26C128.649 148.26 125.476 148.292 123.832 147.8C122.187 147.309 119.727 146.786 119.727 146.786L117.716 150.694Z" fill="#E8A28B"/>
<path d="M112.478 146.336C112.5 145.83 112.605 145.367 112.753 144.958C112.911 144.538 113.123 144.172 113.397 143.849C115.615 141.975 119.016 142.105 121.91 143.267C122.491 143.504 123.051 143.773 123.569 144.086C125.755 144.882 127.445 147.628 125.808 149.782C125.597 150.126 125.322 150.46 124.974 150.761C123.917 151.677 122.143 152.312 119.143 151.913C116.048 151.504 112.447 150.137 112.468 146.562C112.478 146.487 112.478 146.411 112.478 146.336Z" fill="#E8A28B"/>
<path d="M116.163 142.903C116.323 143.132 116.386 143.433 116.386 143.766C116.386 144.597 115.982 145.449 115.589 146.166C115.217 146.862 114.76 147.88 115.142 148.67C115.706 149.813 117.577 149.636 118.609 150.083C119.151 150.312 119.513 150.603 119.459 150.977C119.396 151.434 119.481 151.694 119.438 151.881C119.332 152.473 117.652 152.816 117.195 152.868C114.058 153.252 110.485 150.935 110.73 147.6C110.9 145.262 112.676 142.332 115.376 142.415C115.738 142.477 116.004 142.654 116.163 142.903Z" fill="#000105"/>
<path d="M119.58 150.285C119.58 150.285 117.764 151.027 119.05 151.539C121.925 152.686 121.042 151.577 122.089 150.874L119.58 150.285Z" fill="#E8A28B"/>
<path d="M131.794 180.681C132.841 180.681 133.689 179.786 133.689 178.681C133.689 177.577 132.841 176.682 131.794 176.682C130.748 176.682 129.899 177.577 129.899 178.681C129.899 179.786 130.748 180.681 131.794 180.681Z" fill="#B4C4D4"/>
<path d="M210.102 176.15L175.096 229.281L178.196 231.559L213.201 178.428L210.102 176.15Z" fill="#B4C4D4"/>
<path d="M210.102 231.559L175.096 178.428L178.196 176.15L213.201 229.281L210.102 231.559Z" fill="#B4C4D4"/>
<path d="M261.227 179.115H133.035C132.529 179.115 132.109 178.706 132.109 178.193C132.109 175.115 134.615 172.62 137.706 172.62H256.555C259.646 172.62 262.152 175.115 262.152 178.193C262.152 178.706 261.733 179.115 261.227 179.115Z" fill="#272D52"/>
<path d="M259.017 179.185H135.243C134.929 179.185 134.676 179.437 134.676 179.75C134.676 181.636 136.213 183.167 138.107 183.167H256.153C258.048 183.167 259.584 181.636 259.584 179.75C259.584 179.437 259.331 179.185 259.017 179.185Z" fill="#B4C4D4"/>
<path d="M131.499 178.733L96.8508 155.311C96.6237 155.154 96.5539 154.833 96.7023 154.589C98.3876 151.816 101.889 151.007 104.517 152.79L130.477 170.335C133.105 172.108 133.874 175.803 132.188 178.577C132.04 178.812 131.734 178.89 131.499 178.733Z" fill="#272D52"/>
<path d="M129.331 177.342L97.792 156.023C97.6523 155.928 97.4689 155.971 97.3816 156.119L97.3467 156.18C96.3338 157.858 96.7878 160.084 98.377 161.153L124.669 178.924C126.258 179.994 128.371 179.507 129.384 177.837L129.419 177.777C129.506 177.62 129.462 177.429 129.331 177.342Z" fill="#B4C4D4"/>
<path d="M257.532 225.49H136.728V234.141H257.532V225.49Z" fill="#B4C4D4"/>
<path d="M150.147 236.806C150.872 233.745 148.969 230.678 145.895 229.955C142.821 229.232 139.74 231.128 139.015 234.188C138.289 237.249 140.192 240.316 143.266 241.039C146.34 241.762 149.421 239.866 150.147 236.806Z" fill="#272D52"/>
<path d="M147.92 236.283C148.356 234.447 147.213 232.606 145.369 232.173C143.525 231.739 141.676 232.876 141.241 234.713C140.805 236.549 141.947 238.39 143.792 238.823C145.636 239.257 147.485 238.12 147.92 236.283Z" fill="#B4C4D4"/>
<path d="M253.278 239.506C255.512 237.282 255.512 233.677 253.278 231.453C251.044 229.229 247.423 229.229 245.19 231.453C242.956 233.677 242.956 237.282 245.19 239.506C247.423 241.73 251.044 241.73 253.278 239.506Z" fill="#272D52"/>
<path d="M251.66 237.896C253 236.561 253 234.398 251.66 233.063C250.32 231.729 248.147 231.729 246.807 233.063C245.467 234.398 245.467 236.561 246.807 237.896C248.147 239.23 250.32 239.23 251.66 237.896Z" fill="#B4C4D4"/>
<path d="M257.773 170.411C257.686 170.159 257.607 169.915 257.537 169.663C257.127 168.255 257.136 166.394 256.123 165.238C255.861 164.942 255.52 164.733 255.145 164.612C254.865 164.542 254.603 164.455 254.341 164.455C251.076 165.246 248.386 166.881 244.894 167.055C242.623 167.168 240.353 166.89 238.1 166.62C235.542 166.307 232.992 165.994 230.434 165.664C222.453 164.62 214.489 163.368 206.578 161.899C198.938 160.482 191.543 158.87 183.754 158.158C179.293 157.749 178.222 157.582 173.873 156.391C169.42 155.165 175.106 157.274 170.863 155.475C170.487 155.327 156.577 150.416 156.202 150.285C155.826 150.155 155.265 149.979 154.89 149.848C153.816 149.57 154.452 148.974 148.467 150.032C148.467 152.571 132.759 158.508 132.148 167.916C131.537 177.331 147.237 190.269 148.905 198.293C150.572 206.318 148.381 217.386 148.381 217.386C148.381 217.386 194.974 219.916 215.293 218.168C235.612 216.421 262.584 219.386 262.584 219.386C262.584 219.386 262.584 175.401 262.584 175.262C262.584 175.514 260.253 174.254 260.078 174.106C258.952 173.115 258.253 171.802 257.773 170.411Z" fill="#5484CC"/>
<path d="M126.58 143.192L133.006 141.902C134.408 141.621 135.183 140.191 134.878 138.85C134.546 137.387 133.129 136.525 131.843 136.782L125.418 138.072C124.016 138.353 123.241 139.783 123.545 141.124C123.85 142.465 125.295 143.45 126.58 143.192Z" fill="#F7665F"/>
<path d="M121.215 142.922C121.215 142.922 122.42 147.143 126.279 146.781C126.279 146.781 128.57 140.632 121.215 142.922Z" fill="#7D9E96"/>
<path d="M299.484 118.898C298.946 120.42 298.956 122.895 297.916 126.059C294.714 124.583 290.937 125.163 289.05 125.078C288.85 127.679 289.244 127.056 288.485 129.493C294.274 131.232 300.632 132.623 302.046 130.657C303.98 128.19 304.815 124.376 305.891 121.331C306.102 120.927 306.16 120.57 306.323 120.012C302.904 119.899 302.106 120.784 299.484 118.898Z" fill="#FFB288"/>
<path d="M281.72 122.573C275.612 121.107 273.163 122.682 278.76 125.583C280.422 126.375 284.673 128.415 289.046 130.263C290.172 127.867 290.233 127.455 290.467 124.759C287.578 124.403 284.362 123.314 281.72 122.573Z" fill="#6084A6"/>
<path d="M279.614 121.685C279.208 121.166 278.575 120.68 278.069 120.291C277.209 119.838 276.576 119.351 275.616 119.028C275.389 119.06 274.934 119.126 274.707 119.158C274.707 119.158 274.607 119.288 274.48 119.191L274.253 119.224C274.152 119.354 273.825 119.516 273.598 119.549C273.397 119.809 273.069 119.971 273.37 119.582C273.27 119.711 273.169 119.841 273.069 119.971C273.069 119.971 273.069 119.971 273.195 120.069L273.095 120.198C272.465 120.751 272.57 121.659 272.875 122.308C273.18 122.957 273.813 123.443 274.446 123.93C275.812 124.772 277.379 125.355 278.79 124.575C279.118 124.412 279.446 124.249 279.747 123.86C280.124 123.113 280.146 122.301 279.614 121.685Z" fill="#6084A6"/>
<path d="M278.544 118.877C278.387 118.552 278.131 118.354 277.905 118.384C277.678 118.413 277.481 118.669 277.412 119.023C277.342 119.377 277.372 119.604 277.401 119.83C277.43 120.056 277.46 120.283 277.489 120.509C277.577 121.189 278.695 124.497 279.721 122.638C280.086 121.9 279.604 121.732 279.289 121.082C278.847 120.334 278.858 119.527 278.544 118.877Z" fill="#6084A6"/>
<path d="M301.549 105.88C298.086 104.452 296.442 100.499 297.876 97.0506C299.311 93.6024 303.281 91.965 306.744 93.3933C310.207 94.8216 311.852 98.7748 310.417 102.223C308.983 105.671 305.013 107.309 301.549 105.88Z" fill="#000105"/>
<path d="M313.089 196.941C312.766 195.341 312.391 193.742 311.945 192.159C311.5 190.568 310.993 188.986 310.408 187.421C309.981 186.647 309.928 185.699 309.954 184.839C310.26 174.414 310.924 168.702 311.055 158.391C311.09 155.2 311.124 152.009 311.151 148.792C311.247 145.949 311.308 140.211 311.308 140.211L298.175 140.028C297.957 141.941 297.73 150.418 297.381 160.695C297.285 163.581 297.459 166.981 297.817 170.589C298.184 174.197 298.734 178.022 299.389 181.761C300.629 188.09 304.82 209.183 306.304 213.878C306.802 215.451 307.361 217.633 307.902 219.946C308.889 224.154 309.701 228.71 310.138 231.327H314.67C315.028 219.859 315.464 208.409 313.089 196.941Z" fill="#81B8EB"/>
<path d="M310.229 231.292C310.22 231.266 310.229 231.309 310.229 231.292L305.051 233.83C304.789 233.987 304.938 234.396 305.252 234.378L314.534 233.83C314.682 233.822 314.796 233.7 314.796 233.544L314.726 231.292H310.229Z" fill="#272D52"/>
<path d="M296.46 231.292C296.451 231.266 296.46 231.309 296.46 231.292L291.229 233.83C290.959 233.987 291.09 234.396 291.395 234.378L300.712 233.83C300.861 233.822 300.983 233.7 300.992 233.544L301.053 231.292H296.46Z" fill="#272D52"/>
<path d="M286.552 161.36C286.858 151.048 287.818 141.719 288.028 139.789L300.374 140.476C300.374 140.476 300.313 145.745 300.235 148.596C300.217 151.813 300.2 155.021 300.174 158.212C300.086 168.558 299.449 174.314 299.187 184.773C299.178 185.017 299.178 185.26 299.196 185.512L299.257 185.495C299.3 185.904 299.396 186.303 299.571 186.669C300.06 188.277 300.479 189.894 300.828 191.511C301.178 193.137 301.466 194.763 301.693 196.406C303.404 208.126 302.304 219.829 301.309 231.531H296.777C296.489 228.862 295.939 224.202 295.196 219.898C294.786 217.533 294.358 215.308 293.948 213.699C293.075 210.23 291.276 198.006 290.018 189.06C289.433 186.251 288.953 183.86 288.639 182.339C287.966 178.635 287.399 174.836 287.023 171.245C286.657 167.646 286.465 164.255 286.552 161.36Z" fill="#81B8EB"/>
<path d="M285.378 154.284C285.378 154.284 285.378 151.884 285.396 148.354C285.405 147.18 285.405 145.876 285.422 144.494C285.413 143.242 285.361 141.973 285.291 140.695C284.741 132.644 283.877 124.193 287.422 116.611C289.928 111.351 295.647 108.508 301.244 109.308C302.205 109.413 303.156 109.604 304.065 109.856C305.531 110.282 307.051 110.429 308.335 111.342C309.619 112.255 313.48 113.87 314.458 115.278C318.614 121.138 313.381 127.818 312.919 134C312.866 134.374 312.84 135.13 312.823 136.13C312.753 141.138 313.058 152.406 312.892 154.214C312.395 154.379 311.556 154.214 311.041 154.214C307.295 154.214 303.549 154.232 299.803 154.249C297.856 154.258 295.909 154.266 293.971 154.284C293.281 154.284 285.378 154.284 285.378 154.284Z" fill="#81B8EB"/>
<path d="M305.761 101.303C305.761 101.303 305.433 103.972 305.215 106.51C304.997 109.036 305.749 110.796 305.749 110.796L299.235 115.298L297.889 111.586C297.889 111.586 299.538 107.815 299.878 105.96C300.217 104.092 300.933 101.41 300.933 101.41L305.761 101.303Z" fill="#E8A28B"/>
<path d="M304.49 93.8799C303.966 93.6428 303.441 93.5055 302.93 93.4556C302.418 93.4057 301.932 93.4307 301.459 93.5305C298.364 94.8159 296.65 98.3228 296.279 101.855C296.087 103.664 295.947 105.586 296.88 107.233C297.724 108.719 299.144 109.293 300.807 109.155C301.267 109.118 301.753 109.018 302.252 108.818C303.748 108.219 305.347 106.747 306.562 103.514C307.815 100.182 308.365 95.8143 304.707 94.0047C304.643 93.9423 304.567 93.9049 304.49 93.8799Z" fill="#E8A28B"/>
<path d="M307.412 103.686C307.412 103.686 305.373 104.593 305.481 102.888C305.588 101.184 305.9 95.1643 303.309 94.5236C300.718 93.883 299.638 95.5148 299.638 95.5148C299.638 95.5148 301.606 92.1544 305.696 93.9676C309.787 95.7807 310.351 101.244 307.412 103.686Z" fill="#000105"/>
<path d="M305.106 103.355C305.106 103.355 306.515 102.449 306.63 103.774C306.745 105.099 304.885 105.677 304.885 105.677L305.106 103.355Z" fill="#E8A28B"/>
<path d="M301.447 96.5747C302.551 96.8628 303.581 97.5017 304.226 98.4161C304.859 99.5309 305.219 100.796 305.343 102.074C305.405 102.713 305.368 103.339 305.405 103.978C305.43 104.679 305.48 105.381 305.579 106.082C305.604 106.245 305.629 106.395 305.654 106.558C306.51 107.222 307.527 107.498 308.545 107.41C308.694 107.397 308.83 107.372 308.979 107.347C309.997 107.322 310.903 106.771 311.66 106.007C311.772 105.894 311.871 105.781 311.983 105.669C312.529 104.817 313.385 104.203 313.41 103.101C313.434 103.001 313.459 102.913 313.472 102.813C313.77 101.247 313.645 99.6687 313.174 98.1906C313.062 97.8274 312.913 97.4641 312.764 97.1008C312.603 96.7125 312.417 96.3493 312.218 95.986C312.007 95.6228 311.784 95.2845 311.536 94.9463C309.203 91.7772 304.537 89.6603 300.851 91.4766C300.479 91.652 300.119 91.8524 299.771 92.0779C297.699 93.4557 296.222 95.7605 297.475 98.1906C297.426 98.0904 297.885 97.4766 297.947 97.4015C298.158 97.1134 298.406 96.8628 298.716 96.6875C299.138 96.4495 299.622 96.3869 300.106 96.3743C300.553 96.3994 301.012 96.462 301.447 96.5747Z" fill="#81B8EB"/>
<path d="M305.442 103.356C305.442 103.356 302.054 102.205 299.329 101.565C296.605 100.925 296.408 101.658 296.408 101.658C296.408 101.658 295.93 103.344 296.249 105.403C296.568 107.462 297.513 108.102 297.955 108.579C298.397 109.055 300.52 109.777 303.036 108.265C305.552 106.752 305.761 105.543 305.761 105.543C305.761 105.543 303.552 107.799 302.754 105.601C301.76 102.949 305.442 103.356 305.442 103.356Z" fill="white"/>
<path d="M289.784 126.923H274.508L267.287 105.676H282.563L289.784 126.923Z" fill="#4A677C"/>
<path d="M282.008 107.203H278.397V107.064H281.869L282.008 107.203Z" fill="#79AAC9"/>
<path d="M282.146 107.619H278.535V107.48H282.007L282.146 107.619Z" fill="#79AAC9"/>
<path d="M282.283 108.036H278.672V107.897H282.144L282.283 108.036Z" fill="#79AAC9"/>
<path d="M309.749 124.089C309.018 125.523 308.692 128.047 307.248 131.046C304.329 128.853 300.572 128.631 298.744 128.138C298.196 130.744 298.665 130.195 297.594 132.514C302.999 135.531 309.003 138.317 310.648 136.619C312.867 134.522 314.198 130.816 315.66 127.947C315.921 127.58 316.025 127.229 316.26 126.695C312.945 125.844 312.047 126.574 309.749 124.089Z" fill="#FFB288"/>
<path d="M307.028 118.391C307.197 121.546 306.945 125.178 307.314 129.115C310.753 130.131 313.937 130.417 317.39 129.307C317.12 125.761 316.148 122.065 315.879 118.518C315.572 111.711 306.793 114.019 307.028 118.391Z" fill="#75A6D5"/>
<path d="M291.805 124.597C286.104 121.788 283.527 122.866 288.542 127.026C290.041 128.19 293.871 131.183 297.846 134.007C299.256 131.808 299.37 131.402 299.958 128.706C297.217 127.721 294.257 125.921 291.805 124.597Z" fill="#6084A6"/>
<path d="M289.959 123.648C289.63 123.056 289.075 122.448 288.632 121.961C287.85 121.336 287.295 120.727 286.398 120.208C286.171 120.191 285.718 120.158 285.491 120.141C285.491 120.141 285.375 120.247 285.264 120.125L285.037 120.108C284.922 120.213 284.579 120.302 284.352 120.285C284.121 120.496 283.779 120.584 284.126 120.269C284.01 120.374 283.894 120.479 283.779 120.584C283.779 120.584 283.779 120.584 283.889 120.706L283.774 120.811C283.084 121.215 283.065 122.123 283.277 122.82C283.49 123.517 284.045 124.125 284.6 124.734C285.825 125.846 287.282 126.747 288.768 126.288C289.11 126.199 289.453 126.11 289.8 125.795C290.268 125.148 290.398 124.362 289.959 123.648Z" fill="#6084A6"/>
<path d="M289.379 120.577C289.273 120.228 289.05 119.984 288.823 119.967C288.595 119.951 288.363 120.162 288.242 120.494C288.121 120.827 288.117 121.055 288.112 121.282C288.107 121.51 288.102 121.737 288.098 121.964C288.083 122.647 288.694 126.108 289.98 124.493C290.449 123.844 289.999 123.584 289.786 122.885C289.462 122.064 289.592 121.276 289.379 120.577Z" fill="#6084A6"/>
<path fill-rule="evenodd" clip-rule="evenodd" d="M312.001 155.095L287.843 155.533L287.843 154.221H312.001V155.095Z" fill="#6084A6"/>
<path d="M157.164 116.477C156.746 114.714 156.456 112.892 156.723 111.098C157.111 108.457 158.965 105.735 161.939 106.069C164.8 106.394 166.335 108.722 167.16 111.269C168.719 116.066 169.411 119.799 171.072 124.482C175.282 122.668 178.07 122.733 181.131 121.858C181.338 121.73 184.192 120.546 185.067 120.546C185.505 121.421 185.606 121.136 186.379 122.295C188.129 124.919 188.129 124.482 188.129 124.482C188.892 125.738 176.726 130.836 175.883 131.48C175.226 131.984 174.383 132.324 173.696 132.792C171.024 134.611 167.414 133.809 164.926 131.767C164.438 131.372 164.012 130.912 163.645 130.407C160.606 126.233 158.345 121.5 157.164 116.477Z" fill="#6FABE2"/>
<rect x="72.2324" y="128.396" width="5.24812" height="1.74937" transform="rotate(-19.2154 72.2324 128.396)" fill="#275880"/>
<rect x="62.6104" y="150.29" width="5.24812" height="1.74937" transform="rotate(-0.0593605 62.6104 150.29)" fill="#275880"/>
<rect x="290.663" y="117.922" width="5.24812" height="1.74937" transform="rotate(21.2665 290.663 117.922)" fill="#275880"/>
<rect x="299.651" y="144.162" width="7.87218" height="1.74937" fill="#275880"/>
<path d="M179.803 109.211L179.382 110.011L178.819 117.225C178.768 117.441 178.932 117.719 179.281 117.705C179.497 117.767 179.763 117.614 179.733 117.26L180.08 112.404C180.08 112.404 181.189 110.651 179.803 109.211Z" fill="#2D3A4B"/>
<rect x="177.194" y="114.423" width="5.24812" height="1.74937" fill="#275880"/>
<rect x="177.194" y="116.172" width="5.24812" height="4.37343" fill="#6FABE2"/>
</g>
</svg>
