<svg width="372" height="250" viewBox="0 0 372 250" fill="none" xmlns="http://www.w3.org/2000/svg">
<mask id="mask0" mask-type="alpha" maskUnits="userSpaceOnUse" x="0" y="0" width="372" height="250">
<rect width="372" height="250" fill="white"/>
</mask>
<g mask="url(#mask0)">
<rect x="28.0977" width="320.804" height="250" fill="white"/>
<path d="M255.83 135.591C227.963 132.222 271.854 105.659 279.222 69.9405C284.104 46.3212 275.028 0.535438 224.279 3.64697C173.529 6.77135 164.937 72.8206 139.327 56.8772C113.704 40.9339 82.293 62.5731 82.293 92.6855C82.293 132.402 122.525 133.675 131.563 147.021C140.602 160.38 114.328 169.445 114.328 181.775C114.328 194.106 123.405 199.3 135.337 199.3C147.269 199.3 140.767 199.3 146.172 199.3H256.441C308.376 199.326 318.218 143.139 255.83 135.591Z" fill="#E1DBF1"/>
<g clip-path="url(#clip0)">
<path d="M42.9996 240.959C41.6262 241.001 40.6391 240.1 40.7249 238.984L45.7893 172.191C45.8751 171.032 47.0339 170.044 48.4073 170.001C49.7807 169.959 50.7678 170.86 50.682 171.976L45.5747 238.812C45.4889 239.971 44.3301 240.916 42.9996 240.959Z" fill="#357D83"/>
<path d="M224.389 113.513C218.933 116.945 207.756 116.545 199.54 110.681C199.54 110.681 191.689 136.206 201.037 140.138C204.962 141.804 219 143.07 222.991 142.037C239.857 137.705 224.389 113.513 224.389 113.513Z" fill="#1D60DC"/>
<path d="M209.619 100.318L212.014 163.097C212.114 165.463 215.008 174.826 217.503 174.493L234.668 167.262C236.032 167.129 236.564 165.363 236.464 164.03L230.443 123.876C230.41 123.277 230.31 122.71 230.144 122.11C228.913 117.179 227.749 112.98 227.715 111.747C227.649 109.448 233.836 89.4211 231.075 83.9562C228.314 78.4913 223.657 78.458 223.657 78.458L216.139 88.6547L209.619 100.318Z" fill="#1D60DC"/>
<path d="M192.121 96.4189L187.331 107.282C184.404 111.714 184.77 114.213 175.688 116.979L177.884 121.177C186.799 122.111 187.132 114.68 190.059 113.68C191.988 113.047 193.286 110.681 194.25 109.248L198.442 98.1517L192.121 96.4189Z" fill="#FFC794"/>
<path d="M222.426 75.0258L206.725 74.226L206.592 53.0996L213.411 53.4328C218.301 53.6661 222.293 58.0647 222.326 63.2296L222.426 75.0258Z" fill="#303030"/>
<path d="M187.032 106.583L195.515 81.6574C196.346 79.3915 199.074 78.4251 201.569 79.4914C204.064 80.5911 204.962 82.8237 204.563 85.5894L194.184 110.248C191.723 106.949 189.494 106.149 187.032 106.583Z" fill="#1A57C7"/>
<path d="M219.665 79.8247L208.255 79.1583L208.222 73.3269C211.914 72.5271 214.642 72.2939 218.367 73.5934L219.665 79.8247Z" fill="#1D60DC"/>
<path d="M198.808 92.0542C198.808 92.0542 200.438 115.546 200.105 118.945C199.772 122.178 218.401 123.71 220.131 122.178C221.86 120.645 232.638 87.2224 232.638 87.2224C226.617 72.4939 208.421 81.391 198.808 92.0542Z" fill="#1D60DC"/>
<path d="M211.116 73.993C212.048 73.3932 214.775 73.5932 215.108 73.7598C215.441 73.6931 217.17 74.1597 218.135 74.8261C223.857 78.8248 233.071 82.257 232.639 87.1887C232.639 87.1887 232.639 90.7209 229.512 90.2211L214.177 87.6219L201.303 85.6559C198.176 85.1561 197.511 80.4576 197.511 80.4576C197.81 75.8258 205.361 77.6918 211.116 73.993Z" fill="#1D60DC"/>
<path d="M210.95 80.0242C217.935 81.1905 219.266 78.5914 221.894 77.0919C219.332 75.3258 220.996 76.7253 218.534 75.0259C217.603 74.3928 215.208 73.693 214.842 73.7596C214.509 73.593 213.079 73.2598 212.047 73.6263C209.22 74.626 208.954 75.0259 205.993 75.8923C208.122 77.6583 204.363 78.9246 210.95 80.0242Z" fill="#FABB82"/>
<path d="M215.041 78.0583L214.21 78.125C212.547 78.2583 211.216 78.6581 210.983 77.192L209.22 65.9956C208.987 64.5294 210.152 63.2299 211.815 63.0632L212.646 62.9966C214.31 62.8633 215.873 63.9296 216.106 65.3958L217.636 75.126C217.869 76.5922 216.705 77.9251 215.041 78.0583Z" fill="#FABB82"/>
<path d="M209.719 70.0612L216.106 64.1631L216.472 68.495C216.205 70.3944 212.779 73.4934 210.318 73.0935L209.719 70.0612Z" fill="#FABB82"/>
<path d="M210.684 79.0244C210.684 79.0244 214.908 80.2574 218.368 73.5596L222.493 77.0917C223.025 77.5249 223.125 78.1247 222.692 78.6912L218.767 83.9562C218.135 84.7892 216.438 85.0225 215.574 84.4227L210.684 79.0244Z" fill="#4083FF"/>
<path d="M213.411 79.1576C213.411 79.1576 208.555 79.7241 208.189 73.3262L205.029 76.5251C204.629 76.8583 204.463 77.3915 204.629 77.8913L205.993 82.1233C206.259 82.923 207.324 83.2896 208.056 82.8231L213.411 79.1576Z" fill="#4083FF"/>
<path d="M237.528 164.863L231.507 124.71C231.474 124.11 231.374 123.543 231.208 122.943C229.977 118.012 228.813 113.813 228.779 112.58C228.713 110.281 234.9 90.2542 232.139 84.7893C230.808 82.1901 229.079 80.8239 227.615 80.0908C222.392 90.3541 229.312 100.318 222.991 104.35C222.991 104.35 224.222 118.578 225.752 124.676C225.919 125.409 226.052 126.142 226.118 126.842L232.538 169.462L235.765 168.095C237.129 167.962 237.628 166.196 237.528 164.863Z" fill="#1A57C7"/>
<path d="M200.803 76.4592C200.803 76.4592 196.08 76.7924 195.78 81.4575C195.747 81.8574 195.814 82.6905 195.914 83.6235C196.213 86.3893 195.847 89.155 194.816 91.7542C194.35 92.9538 194.051 94.2533 194.117 95.453C194.117 95.453 194.117 99.6516 198.242 102.284C198.242 102.284 198.508 105.95 199.107 109.748C199.107 109.748 192.387 133.707 190.192 159.765C190.059 161.265 188.595 164.797 190.225 165.197L196.645 171.295C198.941 171.861 202.932 164.897 202.966 162.764L205.328 97.6189C205.095 89.0884 206.791 82.7571 203.897 75.8594L200.803 76.4592Z" fill="#1D60DC"/>
<path d="M204.829 70.0276C203.166 68.9946 200.538 67.5951 199.64 66.0289C199.44 65.6624 199.274 65.3292 199.141 64.9293C198.908 64.0629 199.041 63.2299 199.341 62.4634C199.673 61.697 200.139 61.0306 200.605 60.3641C201.237 59.3978 201.802 58.4314 202.301 57.3984L204.829 70.0276Z" fill="#303030"/>
<path d="M201.603 55.9658C201.603 55.9658 203 69.1948 204.031 71.9605C204.53 73.2601 205.129 73.66 206.526 74.2931L206.991 74.493C207.59 74.6596 207.623 73.9932 207.557 73.2934L206.326 55.166L201.603 55.9658Z" fill="#303030"/>
<path d="M210.817 71.6937C205.029 72.7934 204.264 68.9946 204.197 64.896L204.729 57.2984C204.43 51.8669 206.127 51.8336 210.518 52.0335H210.551C214.942 52.2334 218.568 54.7993 218.668 58.8979L218.102 63.3631C217.67 70.2275 210.817 71.6937 210.817 71.6937Z" fill="#FFC794"/>
<path d="M204.463 64.8291V60.9971L204.031 64.1627C203.964 64.6625 203.931 65.1957 203.964 65.6955C204.097 68.5279 204.729 71.0271 207.324 71.6602C205.195 70.294 204.53 67.4616 204.463 64.8291Z" fill="#FFC2A6"/>
<path d="M219.764 64.4959C219.498 65.7955 218.367 66.6618 217.203 66.3953C216.039 66.1287 215.34 64.8624 215.606 63.5629C215.872 62.2633 217.003 61.3969 218.168 61.6635C219.332 61.9301 220.03 63.1963 219.764 64.4959Z" fill="#FBC28F"/>
<path d="M210.019 53.8664C210.019 53.8664 203.099 54.8661 202.9 60.3643C202.9 60.3643 199.939 54.7994 202.9 52.0337C205.86 49.2679 209.553 45.0026 215.74 48.5681L210.019 53.8664Z" fill="#303030"/>
<path d="M225.586 72.0936C226.917 71.0273 227.848 69.5611 228.247 67.9616C228.347 67.5951 228.414 67.2618 228.38 66.862C228.347 65.9956 227.948 65.1625 227.382 64.4294C226.817 63.6964 226.551 62.5634 225.885 61.9303C224.954 61.0306 224.821 58.0982 223.989 57.1318L225.586 72.0936Z" fill="#303030"/>
<path d="M217.403 61.6305C218.567 62.5302 219.798 63.43 220.563 64.6296C221.528 66.1291 221.627 67.9951 220.829 69.4613C220.563 69.9611 220.164 70.3943 219.997 70.9275C219.665 71.8605 219.498 74.6596 220.929 75.0595C222.226 75.426 223.79 74.9928 224.754 74.2264C225.486 73.6599 225.686 72.7269 225.785 71.8605C226.085 69.0281 223.59 52.6668 222.725 51.1007C219.332 44.936 210.849 49.6012 210.683 50.6675C210.55 51.4672 210.45 51.8004 210.084 52.5335C209.685 53.3666 210.018 54.0664 210.583 54.7994C211.215 55.5992 211.781 56.4656 212.446 57.232C213.91 58.8648 215.64 60.2976 217.403 61.6305Z" fill="#303030"/>
<path d="M204.463 61.0637C204.463 61.0637 205.095 58.0313 210.417 55.4322L209.752 53.0996L204.862 56.032L204.463 61.0637Z" fill="#FFC794"/>
<path d="M209.72 53.1328C212.58 53.5993 205.029 54.7989 201.769 60.697C201.769 60.697 199.773 53.5327 209.72 53.1328Z" fill="#454545"/>
<path d="M209.719 53.1328C209.719 53.1328 210.085 59.4641 219.665 63.1962C219.665 63.1962 217.702 55.1655 209.719 53.1328Z" fill="#454545"/>
<path d="M218.9 96.4194L213.412 95.653C212.746 95.5531 212.347 94.9866 212.447 94.2868L212.746 92.3208C212.879 91.4877 213.711 90.8213 214.509 90.9545L219.998 91.721C220.663 91.8209 221.063 92.3874 220.963 93.0872L220.663 95.0532C220.53 95.8863 219.699 96.5194 218.9 96.4194Z" fill="#4083FF"/>
<path d="M217.171 91.7868C217.004 91.7868 216.871 91.6202 216.905 91.4535L217.204 89.4875C217.237 89.2876 217.404 89.1543 217.57 89.1543C217.736 89.1543 217.869 89.3209 217.836 89.4875L217.537 91.4535C217.503 91.6535 217.337 91.7868 217.171 91.7868Z" fill="#4083FF"/>
<path d="M206.259 66.2627L211.415 66.7625C211.415 66.7625 210.218 69.3617 208.222 69.0618C206.192 68.7619 206.259 66.2627 206.259 66.2627Z" fill="white"/>
<path d="M247.309 149.768L98.8135 126.509L100.543 208.382L248.539 233.507L247.309 149.768Z" fill="#6AC3D1"/>
<path d="M247.309 149.768L98.8135 126.509L99.4122 152.434L247.674 174.76L247.309 149.768Z" fill="#64B2BE"/>
<path d="M248.539 233.507L286.096 208.715L287.193 129.175L247.309 149.768L248.539 233.507Z" fill="#60AEAE"/>
<path d="M252.664 164.064L91.9609 140.105V128.742L252.664 152.135V164.064Z" fill="#B4D2F5"/>
<path d="M297.539 126.876L140.694 107.716L91.9609 128.742L252.664 152.135L297.539 126.876Z" fill="#E9F5FF"/>
<path opacity="0.4" d="M273.067 75.4038C277.611 71.8435 278.12 64.8913 274.204 59.8756C270.287 54.8598 263.429 53.6799 258.885 57.2401C254.341 60.8004 253.832 67.7526 257.748 72.7684C261.665 77.7841 268.523 78.964 273.067 75.4038Z" fill="#E0F1ED"/>
<path d="M262.909 55.3659C260.049 54.8661 257.354 55.4659 255.192 56.8321L251.2 59.2647L251.899 60.231C251.034 61.6639 250.502 63.2967 250.368 65.1294C249.87 71.6606 254.693 77.8586 261.146 78.9915C262.51 79.2248 263.841 79.2248 265.105 78.9915L268.165 77.9252C268.465 77.7586 268.797 77.592 269.063 77.3921L269.13 77.3587C271.725 75.626 273.488 72.7269 273.754 69.1947C274.186 62.6969 269.363 56.4989 262.909 55.3659Z" fill="#267067"/>
<path d="M266.991 77.9163C271.897 74.0726 272.451 66.5733 268.229 61.1662C264.007 55.759 256.608 54.4916 251.702 58.3353C246.796 62.179 246.242 69.6783 250.464 75.0855C254.686 80.4926 262.085 81.76 266.991 77.9163Z" fill="#60AEAE"/>
<path d="M265.476 75.9755C269.412 72.8914 269.859 66.8776 266.475 62.5432C263.091 58.2087 257.156 57.1951 253.22 60.2791C249.284 63.3632 248.836 69.377 252.221 73.7115C255.605 78.0459 261.539 79.0595 265.476 75.9755Z" fill="white"/>
<path opacity="0.44" d="M260.515 77.0257C255.325 76.126 251.467 71.1276 251.866 65.896C252.132 62.5304 254.061 59.898 256.789 58.665C253.097 59.3648 250.269 62.4305 249.97 66.4958C249.571 71.7274 253.429 76.7258 258.619 77.6255C260.482 77.9587 262.278 77.6921 263.808 76.9924C262.777 77.2256 261.646 77.2256 260.515 77.0257Z" fill="#A8C4E5"/>
<path d="M259.982 60.0648C259.982 60.4979 259.683 60.9311 259.284 61.0644C258.884 61.1977 258.552 60.9311 258.552 60.5313C258.552 60.0981 258.851 59.6649 259.25 59.5316C259.616 59.365 259.949 59.6316 259.982 60.0648Z" fill="#60AEAE"/>
<path d="M260.082 76.0589C260.082 76.4921 259.782 76.9252 259.383 77.0585C258.984 77.1918 258.651 76.9252 258.651 76.5254C258.651 76.0922 258.951 75.659 259.35 75.5257C259.749 75.3924 260.082 75.6257 260.082 76.0589Z" fill="#60AEAE"/>
<path d="M266.702 70.3607C266.27 70.2941 266.037 69.9275 266.236 69.5943C266.403 69.2278 266.935 68.9945 267.367 69.0612C267.8 69.1278 268.033 69.4943 267.833 69.8276C267.667 70.1941 267.134 70.4274 266.702 70.3607Z" fill="#60AEAE"/>
<path d="M250.867 67.8949C250.435 67.8283 250.202 67.4617 250.401 67.1285C250.568 66.7619 251.1 66.5287 251.532 66.5953C251.965 66.662 252.198 67.0285 251.998 67.3617C251.832 67.7283 251.333 67.9615 250.867 67.8949Z" fill="#60AEAE"/>
<path d="M263.408 73.3267L258.951 68.5616C258.917 68.5283 258.917 68.4616 258.984 68.4283C259.017 68.395 259.084 68.395 259.117 68.4283L263.574 73.1934C263.608 73.2267 263.608 73.2934 263.541 73.3267C263.508 73.36 263.441 73.3933 263.408 73.3267Z" fill="#A8C4E5"/>
<path d="M259.35 68.5952L253.795 73.2936C253.562 73.4936 253.263 73.4936 253.13 73.3603C252.997 73.1937 253.063 72.9271 253.263 72.7271L258.818 68.0287C259.051 67.8287 259.35 67.8287 259.483 67.962C259.616 68.1286 259.55 68.3952 259.35 68.5952Z" fill="#60AEAE"/>
<path d="M259.516 64.0632V68.0286C259.516 68.2618 259.317 68.4951 259.051 68.5951C258.785 68.6617 258.585 68.5617 258.585 68.3285V64.3631C258.585 64.1299 258.785 63.8966 259.051 63.7966C259.317 63.73 259.516 63.8633 259.516 64.0632Z" fill="#DB9D39"/>
<path d="M259.882 68.2283C259.882 68.6615 259.516 68.9947 259.051 68.9947C258.585 68.9947 258.152 68.6615 258.152 68.2283C258.152 67.7951 258.518 67.4619 258.984 67.4619C259.483 67.4619 259.882 67.8285 259.882 68.2283Z" fill="#DB9D39"/>
<path d="M259.417 68.1955C259.417 68.3955 259.25 68.5288 259.017 68.5288C258.785 68.5288 258.618 68.3621 258.618 68.1955C258.618 67.9956 258.785 67.8623 259.017 67.8623C259.217 67.8623 259.417 67.9956 259.417 68.1955Z" fill="white"/>
<path d="M100.71 128.375L74.4307 138.272L79.5535 146.302C88.8012 141.771 102.34 136.339 104.868 130.574L100.71 128.375Z" fill="#FFC794"/>
<path d="M79.6529 210.648H79.786C80.7506 210.548 81.4825 209.815 81.4159 209.015L77.9231 170.428C77.8566 169.628 76.9917 169.062 76.027 169.128H75.894C74.9293 169.228 74.1974 169.961 74.264 170.761L77.7568 209.349C77.8233 210.148 78.655 210.748 79.6529 210.648Z" fill="#4DA7AE"/>
<path d="M295.476 142.371V127.976L252.664 152.134V164.064L295.476 142.371Z" fill="#A8C4E5"/>
<path opacity="0.39" d="M301.566 234.955C314.794 234.955 325.517 230.315 325.517 224.592C325.517 218.868 314.794 214.229 301.566 214.229C288.338 214.229 277.615 218.868 277.615 224.592C277.615 230.315 288.338 234.955 301.566 234.955Z" fill="#D2F8FD"/>
<path d="M313.134 228.858C313.147 224.846 305.876 221.569 296.892 221.538C287.908 221.506 280.614 224.734 280.6 228.745C280.586 232.757 287.858 236.035 296.842 236.066C305.826 236.097 313.12 232.87 313.134 228.858Z" fill="#95C1F5"/>
<path d="M316.064 226.138C316.081 221.261 307.233 217.277 296.302 217.239C285.371 217.201 276.496 221.124 276.479 226.001C276.462 230.878 285.31 234.862 296.241 234.9C307.172 234.938 316.047 231.015 316.064 226.138Z" fill="#64B2BE"/>
<path d="M267.236 196.9L276.551 226.691L315.903 227.19L325.517 197.7L267.236 196.9Z" fill="#64B2BE"/>
<path d="M314.673 207.491L305.658 227.633C304.056 230.392 303.288 231.408 300.049 232.771C297.712 233.755 294.273 234.389 291.302 234.77C297.979 235.594 304.49 235.023 309.831 232.993C312.369 232.01 314.405 231.503 316.142 228.236L316.876 226.586L325.957 199.688L314.673 207.491Z" fill="#5BA4AF"/>
<path d="M326.022 195.627C326.104 189.205 312.918 183.827 296.568 183.616C280.219 183.405 266.898 188.44 266.816 194.862C266.733 201.284 279.92 206.661 296.269 206.873C312.618 207.084 325.939 202.049 326.022 195.627Z" fill="#B9F3FC"/>
<path d="M321.595 196.264C321.666 190.762 310.346 186.154 296.311 185.973C282.276 185.792 270.842 190.105 270.771 195.607C270.7 201.109 282.02 205.716 296.054 205.898C310.089 206.079 321.524 201.766 321.595 196.264Z" fill="#64B2BE"/>
<path d="M314.779 202.807C305.231 206.739 289.164 206.805 278.852 202.973C271.434 200.208 268.873 196.076 271.867 192.61C275.992 187.778 316.708 190.144 317.905 190.944C323.594 194.709 322.662 199.574 314.779 202.807Z" fill="#64B2BE"/>
<path d="M296.409 196.834C298.522 196.834 300.235 195.954 300.235 194.868C300.235 193.783 298.522 192.902 296.409 192.902C294.297 192.902 292.584 193.783 292.584 194.868C292.584 195.954 294.297 196.834 296.409 196.834Z" fill="#267067"/>
<path d="M270.297 201.466C270.297 201.466 279.578 208.93 297.341 208.63C315.138 208.297 322.257 201.999 322.257 201.999" stroke="white" stroke-width="1.2992" stroke-miterlimit="10" stroke-linecap="round" stroke-linejoin="round"/>
<path d="M296.565 195.795C297.263 195.795 297.829 195.195 297.829 194.496V126.085C297.829 125.352 297.263 124.785 296.565 124.785C295.866 124.785 295.301 125.385 295.301 126.085V194.496C295.301 195.195 295.866 195.795 296.565 195.795Z" fill="#60AEAE"/>
<path d="M296.942 164.145C297.209 164.145 297.508 164.045 297.741 163.879L314.407 150.516C314.972 150.083 315.072 149.25 314.606 148.684C314.174 148.117 313.375 148.017 312.81 148.45L296.144 161.813C295.579 162.246 295.479 163.079 295.944 163.645C296.177 163.979 296.576 164.145 296.942 164.145Z" fill="#1D50CF"/>
<path d="M296.21 155.914C296.51 155.914 296.776 155.814 297.009 155.614C297.541 155.148 297.641 154.348 297.175 153.782L282.705 135.721C282.272 135.154 281.441 135.088 280.908 135.521C280.376 135.987 280.276 136.787 280.742 137.354L295.212 155.414C295.478 155.748 295.844 155.914 296.21 155.914Z" fill="#1D50CF"/>
<path d="M291.12 130.856C291.12 130.856 300.767 140.786 310.78 137.153C320.793 133.521 309.483 134.754 306.788 131.955C304.094 129.156 306.755 127.523 308.851 127.69C310.946 127.857 322.988 128.123 322.589 123.491C322.19 118.859 314.772 125.457 313.707 121.592C312.676 117.727 312.51 121.192 320.394 118.16C326.88 115.661 328.344 108.03 326.947 106.93C324.485 104.964 320.261 110.695 318.597 109.296C316.934 107.896 325.683 102.998 324.252 97.1333C322.822 91.2685 320.793 88.0029 320.793 88.0029C320.793 88.0029 318.996 89.869 313.907 92.3015C308.817 94.7341 304.693 96.3335 305.358 102.065C306.023 107.763 301.266 104.364 302.896 98.0663C304.526 91.7684 301.2 90.902 299.171 95.9337C297.308 100.532 295.511 106.43 294.647 108.096C293.815 109.796 293.981 109.896 294.214 105.264C294.414 100.632 291.021 98.7661 289.058 100.299C287.095 101.832 287.96 115.561 292.384 117.76C296.809 119.959 291.952 126.69 288.16 118.493C284.368 110.296 283.336 109.063 282.039 114.594C280.775 120.159 286.63 127.323 291.12 130.856Z" fill="#E0F1ED"/>
<path d="M297.541 126.891C303.196 124.758 315.371 121.626 318.697 126.991C318.797 127.124 310.714 130.223 309.416 130.123C307.321 129.956 307.786 130.989 310.514 133.755C313.209 136.554 318.464 130.156 308.452 133.788C301.632 136.288 295.445 133.589 291.919 130.923C293.516 129.423 295.478 127.69 297.541 126.891Z" fill="#267067"/>
<path d="M268.866 150.515C274.255 148.183 274.056 150.282 272.891 147.017C272.392 145.617 271.062 145.917 269.532 146.55C262.879 150.915 262.779 142.252 270.397 140.385C273.424 139.452 276.517 140.019 277.515 139.886C279.678 139.652 282.339 137.486 279.378 135.187C278.048 134.121 274.921 134.287 272.891 134.188C272.259 134.154 271.794 133.588 271.893 132.955C271.927 132.688 272.093 132.421 272.326 132.255C272.958 131.822 273.823 131.288 274.954 130.655C284.967 125.057 295.445 133.254 295.445 133.254C300.269 135.987 306.655 142.118 305.691 147.983C304.693 153.848 303.562 152.781 299.204 145.217C294.846 137.653 290.256 145.417 294.913 146.783C299.57 148.15 301.266 161.912 299.37 163.811C297.474 165.744 293.882 164.478 293.815 159.779C293.749 155.047 289.757 153.881 288.992 155.747C288.227 157.613 291.919 164.078 292.285 169.509C292.651 174.974 284.068 175.441 285.366 168.71C286.663 162.012 279.578 155.081 280.609 160.712C281.64 166.344 280.942 172.175 275.885 175.641C270.829 179.106 267.636 182.338 267.636 182.338C267.636 182.338 266.006 180.239 264.409 176.14C260.783 163.778 262.978 155.747 268.866 150.515Z" fill="#CFEDE6"/>
<path d="M315.345 132.453C313.882 135.418 316.842 135.618 318.572 135.252C320.302 134.885 327.52 135.618 329.317 139.084C331.479 143.216 320.701 142.449 321.4 144.749C322.231 147.448 322.996 148.481 328.485 147.314C335.67 145.815 341.026 152.279 339.196 154.046C337.367 155.812 329.383 154.679 328.418 156.211C327.421 157.744 332.743 158.277 334.639 163.842C336.768 170.14 334.306 176.438 334.074 177.238C333.242 177.305 326.556 178.771 320.734 175.572C315.578 172.773 314.48 166.441 312.817 167.175C311.154 167.908 312.385 176.905 310.322 178.404C308.26 179.904 302.804 173.506 305.532 166.675C307.595 161.443 307.229 158.877 304.7 157.611C302.538 156.511 301.673 165.575 297.382 163.776C293.091 162.01 296.451 153.079 297.083 151.413C297.748 149.78 297.582 147.481 294.422 148.447C291.261 149.414 291.261 160.81 287.27 151.78C285.54 147.881 287.369 140.85 292.592 134.385C294.422 132.119 296.817 130.387 299.511 129.354C305.166 127.221 315.545 123.755 318.639 126.421C323.695 130.753 316.809 129.487 315.345 132.453Z" fill="#267067"/>
<path d="M333.135 177.574C333.135 177.574 314.706 141.952 296.377 131.056" stroke="white" stroke-width="1.462" stroke-miterlimit="10" stroke-linecap="round" stroke-linejoin="round"/>
<path d="M181.411 122.144L166.209 130.174L196.68 134.673L207.358 127.242L181.411 122.144Z" fill="#B4D2F5"/>
<path d="M198.575 133.74C198.575 133.74 198.808 134.107 199.374 134.074C200.405 134.04 201.802 132.874 203.532 130.675C203.598 130.608 203.964 130.375 204.43 130.075C203.898 130.841 203.565 131.841 203.632 132.608C203.898 135.64 204.729 136.873 204.763 136.939L204.796 137.006H204.896C204.929 137.006 205.262 137.039 205.594 136.739C206.226 136.173 206.326 134.84 205.86 132.774C205.727 132.208 205.994 131.608 206.559 130.908C206.26 131.375 206.127 131.874 206.193 132.308C206.359 133.674 207.391 136.406 207.424 136.54L207.457 136.64H207.59C207.624 136.64 207.923 136.64 208.222 136.34C208.322 136.24 208.389 136.106 208.455 135.973C208.455 136.006 208.455 136.04 208.455 136.04L208.488 136.24L208.721 136.173C210.351 135.773 210.152 134.274 210.019 133.174C209.985 133.041 209.985 132.907 209.952 132.774C209.886 132.274 210.019 131.541 210.551 131.175C212.014 130.175 213.179 129.509 213.811 129.342C213.977 129.309 215.175 128.709 215.341 128.609C218.734 127.209 217.204 123.744 213.578 123.577C209.886 125.31 204.164 127.176 202.667 128.909L202.634 128.942L198.442 133.641L198.575 133.74Z" fill="#FFC794"/>
<path d="M125.292 220.878L125.425 220.845C126.39 220.712 127.089 219.945 126.956 219.146L121.234 180.825C121.101 180.025 120.236 179.492 119.271 179.658L119.138 179.692C118.174 179.825 117.475 180.591 117.608 181.391L123.33 219.712C123.429 220.512 124.328 221.045 125.292 220.878Z" fill="#357D83"/>
<path d="M101.075 215.713C100.909 215.846 98.2146 217.279 98.0483 217.379C97.8154 217.546 97.0503 218.012 96.5846 218.246C95.62 218.745 90.9628 221.245 86.7714 219.045C84.6425 217.912 85.0417 216.346 85.8733 212.881C86.7714 209.249 95.2873 209.882 95.2873 209.882L100.643 208.116C101.308 207.916 102.173 208.016 102.972 208.415C104.468 209.149 105.333 210.615 104.801 211.581C103.903 213.247 103.969 213.714 101.075 215.713Z" fill="#2C4482"/>
<path d="M99.9782 214.347C99.8119 214.48 97.2837 215.813 97.1174 215.946C96.8845 216.113 96.1194 216.58 95.6537 216.813C94.6891 217.313 90.9301 219.345 86.7387 217.146C84.1108 215.747 85.5744 212.048 87.2044 210.415C89.3667 208.249 94.3231 208.482 94.3231 208.482L99.6788 206.716C100.344 206.516 101.209 206.616 102.007 207.016C103.504 207.749 104.369 209.215 103.837 210.182C102.972 211.814 102.872 212.381 99.9782 214.347Z" fill="#97CBFF"/>
<path d="M102.872 211.881C103.072 211.448 103.637 210.582 103.903 210.082C104.436 209.115 103.537 207.749 102.04 207.016C101.242 206.616 100.344 206.516 99.7119 206.716L97.084 207.583C98.8803 208.282 100.843 209.748 102.872 211.881Z" fill="#B8DBFF"/>
<path d="M93.8562 206.416C92.0598 208.582 87.935 208.749 86.1387 206.383C86.2385 207.749 86.3715 209.149 86.5711 210.515C87.2697 216.113 94.9206 215.347 94.2221 209.748C94.0557 208.649 93.956 207.516 93.8562 206.416Z" fill="#E1EAF4"/>
<path d="M118.905 222.411C118.739 222.544 116.61 223.61 116.444 223.744C116.211 223.91 115.479 224.41 115.047 224.677C114.115 225.21 109.624 227.876 105.599 225.81C99.6781 222.777 113.782 216.379 113.782 216.379L118.939 214.447C119.571 214.213 120.402 214.28 121.201 214.647C122.664 215.346 122.764 217.212 122.265 218.179C121.4 219.845 121.7 220.311 118.905 222.411Z" fill="#2C4482"/>
<path d="M118.539 221.145C118.373 221.278 115.712 222.211 115.546 222.344C115.313 222.511 114.581 223.011 114.148 223.277C113.217 223.81 109.624 225.976 105.566 223.91C103.038 222.611 104.269 218.545 105.865 218.179C108.826 217.479 112.884 214.98 112.884 214.98L118.04 213.047C118.672 212.814 119.504 212.881 120.302 213.247C121.766 213.947 122.565 215.346 122.066 216.346C121.201 218.012 121.334 219.045 118.539 221.145Z" fill="#97CBFF"/>
<path d="M121.233 218.179C121.433 217.746 121.832 216.746 122.098 216.246C122.597 215.28 121.732 213.947 120.302 213.247C119.504 212.88 118.672 212.781 118.04 213.047L115.512 213.98C117.275 214.613 119.271 216.113 121.233 218.179Z" fill="#B8DBFF"/>
<path d="M112.418 212.914C110.688 215.147 106.73 215.447 105 213.147C105.1 214.514 105.233 215.913 105.399 217.279C106.064 222.844 113.416 221.845 112.751 216.246C112.618 215.113 112.518 214.014 112.418 212.914Z" fill="#E1EAF4"/>
<path d="M116.776 183.857L114.514 214.813C114.714 218.645 103.87 219.212 103.67 215.38V182.724L116.776 183.857Z" fill="#2C4482"/>
<path d="M97.3496 177.659L95.0876 208.616C95.2872 212.681 84.4428 213.214 84.2432 209.182V176.526L97.3496 177.659Z" fill="#2C4482"/>
<path d="M88.1688 246.47C87.0378 246.603 86.1397 245.936 86.1397 244.97L85.6074 184.223C85.6074 183.257 86.5056 182.391 87.6033 182.224C88.7343 182.091 89.6325 182.757 89.6325 183.724L90.1647 244.47C90.1647 245.437 89.2666 246.336 88.1688 246.47Z" fill="#357D83"/>
<path d="M82.6797 164.063C82.6797 164.063 91.0625 157.932 96.4181 160.865C101.774 163.797 117.275 166.696 117.275 166.696L88.368 181.958L82.6797 164.063Z" fill="#2C4482"/>
<path d="M94.2562 92.0539L87.4036 92.8203L82.5137 87.6886C82.5137 87.6886 91.9942 84.7562 94.2562 92.0539Z" fill="#123475"/>
<path d="M78.788 80.4911C78.788 80.4911 74.2639 79.8913 73.0331 92.1206C72.1682 100.618 73.5986 105.583 80.9169 107.649C85.574 108.982 90.3975 108.649 91.0295 104.45C91.6615 102.084 91.5285 97.4522 91.8944 95.1863C92.5264 91.3875 92.593 90.5878 91.6948 87.3889C92.4599 82.3238 88.8673 83.5901 82.9794 82.2572L78.788 80.4911Z" fill="#FFC794"/>
<path d="M87.1375 125.009C88.2685 130.707 88.9671 136.739 91.6948 141.837C94.2562 146.569 102.739 153.5 102.739 153.5C102.739 153.5 108.993 160.398 126.956 140.338C130.083 136.839 125.293 133.64 121.833 138.172C110.689 143.17 105.899 147.002 105.899 147.002C105.899 147.002 96.5183 132.607 94.6887 123.476C93.7905 118.978 86.2394 120.477 87.1375 125.009Z" fill="#FFC794"/>
<path d="M56.9662 114.48C52.5419 121.311 50.9452 132.541 50.413 138.006C50.2799 139.472 57.4651 142.337 58.829 141.671L60.8582 135.973C60.8582 135.973 62.3551 127.242 70.1724 116.146C71.0705 113.38 69.6734 110.481 66.9457 109.415C64.1182 108.349 59.5608 110.881 56.9662 114.48Z" fill="#1953BF"/>
<path d="M70.604 109.882L76.0262 100.352L82.5129 108.016L79.2529 116.513C78.6542 118.379 69.1404 114.214 70.604 109.882Z" fill="#FABB82"/>
<path d="M58.4957 114.913C56.7326 117.978 56.6661 123.477 57.1651 127.042C57.6641 130.541 58.2961 128.775 61.8554 128.975L98.0478 131.307C98.0478 131.307 98.5468 117.578 91.1619 115.013C88.3677 114.046 81.881 109.348 81.881 109.348C76.9245 113.347 73.0325 113.48 70.9368 107.115C63.8514 110.747 62.5873 107.815 58.4957 114.913Z" fill="#1D60DC"/>
<path d="M54.0049 165.33C57.0985 148.402 53.4394 139.805 57.2316 118.812L95.3866 122.41C95.6194 136.706 90.5631 149.402 93.3574 166.396C83.6773 170.761 69.3733 170.528 54.0049 165.33Z" fill="#1D60DC"/>
<path d="M93.89 99.8513C93.89 100.085 93.6904 100.285 93.524 100.418C92.9918 100.818 92.393 101.084 91.7277 101.251C91.4284 101.318 91.0624 101.351 90.7963 101.151C90.4969 100.951 90.4304 100.551 90.4304 100.185C90.3971 99.2515 89.6653 97.5188 90.7298 97.3521C91.1622 97.2855 91.8275 94.2532 91.9273 94.7197C92.2267 96.4524 93.2912 98.7517 93.89 99.8513Z" fill="#FFC794"/>
<path d="M95.9526 125.543L86.6051 121.744C83.1123 138.139 83.6113 151.934 85.6405 163.964C85.6405 163.964 85.9066 169.528 75.162 168.562C70.4716 168.029 65.7147 168.429 61.5898 167.496C67.0453 169.728 74.4967 170.062 81.8815 170.895C84.576 171.628 93.7904 168.695 93.7904 167.263C93.8569 158.765 90.5304 150.501 95.9526 125.543Z" fill="#1953BF"/>
<path d="M85.0415 125.343C88.1351 137.772 91.1623 145.003 92.759 148.269C93.2912 149.402 94.8214 149.669 95.9192 148.802L102.772 143.537C103.67 142.837 103.969 141.638 103.404 140.771C101.741 138.206 100.21 131.841 97.0169 122.777C95.6198 120.411 91.5282 116.713 88.6009 118.046C85.5737 119.478 84.0103 122.677 85.0415 125.343Z" fill="#1D60DC"/>
<path d="M87.304 84.756C84.6095 85.6224 84.8756 88.0883 87.803 88.3215C90.198 88.5215 92.6929 90.5541 93.5578 91.6871C93.9902 92.2536 94.8884 92.087 94.9549 91.4205C95.1878 89.7211 94.7221 86.3222 92.4933 83.5564C91.4288 82.2902 90.5307 83.723 87.304 84.756Z" fill="#252729"/>
<path d="M91.8604 145.303C91.8604 145.303 99.3117 140.804 101.94 137.672" stroke="white" stroke-width="3.9816" stroke-miterlimit="10" stroke-linecap="round" stroke-linejoin="round"/>
<path d="M93.0586 100.418C93.0586 100.418 92.0939 101.084 91.3953 100.951C91.3953 100.951 90.8631 100.684 91.229 100.284C91.5949 99.8513 91.6615 101.018 93.0586 100.418Z" fill="#F0B682"/>
<path d="M81.981 107.915C81.981 107.915 77.4903 105.816 77.2907 102.817L76.4258 96.3525C76.4258 96.3525 79.5527 105.849 86.5384 108.282C85.2078 108.449 83.6443 108.249 81.981 107.915Z" fill="#FABB82"/>
<path d="M69.3069 88.1218C71.5024 77.0254 79.6191 79.4246 86.006 79.8245C86.006 79.8245 89.4988 80.2244 92.3263 83.39C94.2224 85.5226 91.8273 88.9215 88.1682 88.355C84.8084 87.8552 87.4364 93.7199 86.4384 95.6526C85.3407 97.752 84.7419 97.7853 82.3801 98.1518C77.856 98.8849 79.7854 104.35 77.0909 104.283C76.0264 104.25 73.9308 103.85 73.1989 102.35C72.5336 100.951 67.6437 96.5523 69.3069 88.1218Z" fill="#252729"/>
<path d="M85.0085 97.2186C85.3078 99.2513 84.4097 101.017 83.0126 101.151C82.8462 101.151 82.7132 101.151 82.5469 101.151C81.316 100.951 80.185 99.5179 79.9189 97.7184C79.6195 95.6858 80.5177 93.9197 81.9148 93.7864C83.3452 93.6531 84.7091 95.1859 85.0085 97.2186Z" fill="#FBC28F"/>
<path d="M83.2781 97.5521C83.5109 97.3188 83.4777 96.9523 83.2116 96.719C82.8456 96.4191 82.3134 96.1525 82.014 96.8856C81.7479 97.6187 82.2469 98.4185 82.6793 98.9516C82.7459 99.0516 82.8789 98.9516 82.8456 98.8517C82.7126 98.5184 82.6461 98.0852 82.9454 97.852C83.1118 97.7187 83.2116 97.6187 83.2781 97.5521Z" fill="#F0B682"/>
<path d="M86.2062 112.347C74.2641 114.913 70.5717 115.379 67.2119 108.581L67.6444 108.148C68.9084 107.048 70.2058 105.949 71.2702 107.015C73.1331 108.915 77.0251 110.781 80.7508 109.581C81.8485 109.214 83.4452 109.781 84.1771 110.581L86.2062 112.347Z" fill="#1953BF"/>
<path d="M87.1709 195.52L42.0635 182.291C35.2109 180.591 35.6433 174.893 35.6433 174.893C34.7452 168.329 36.109 172.494 40.2672 173.76L80.9503 186.589C85.1084 187.856 86.8382 189.455 86.5721 191.521C86.5721 191.521 92.3935 196.919 87.1709 195.52Z" fill="#4AB1B9"/>
<path d="M87.1687 200.052L42.0613 186.823C35.2087 185.123 35.6412 179.425 35.6412 179.425C35.741 171.261 36.1069 177.026 40.265 178.292L80.9481 191.155C85.1063 192.421 86.836 194.02 86.5699 196.086C86.5699 196.086 92.3913 201.451 87.1687 200.052Z" fill="#4EBEC7"/>
<path d="M35.6416 174.56L30.8182 139.472C29.9201 134.307 35.2757 132.007 42.3612 134.473L70.7362 144.437C75.8591 146.236 80.5494 150.101 82.4788 154.067L93.1236 176.093C96.184 182.391 88.0341 189.755 80.8488 187.156L35.6416 174.56Z" fill="#4EBEC7"/>
<path d="M119.87 178.692L93.2245 194.154C88.9 196.653 85.141 196.02 84.8417 192.721L84.5755 189.555C84.2762 186.256 87.5694 181.524 91.8938 179.025L118.539 163.564C122.864 161.064 126.623 161.698 126.922 164.997L127.188 168.162C127.487 171.461 124.194 176.193 119.87 178.692Z" fill="#4AB1B9"/>
<path d="M119.868 182.991L93.2225 198.452C88.898 200.952 85.1391 200.319 84.8397 197.02L84.5736 193.854C84.2742 190.555 87.5674 185.823 91.8919 183.324L118.537 167.862C122.862 165.363 126.621 165.996 126.92 169.295L127.186 172.461C127.485 175.727 124.192 180.492 119.868 182.991Z" fill="#4EBEC7"/>
<path d="M90.4306 103.183C90.4306 103.183 88.6676 103.25 88.335 102.983C88.335 102.983 88.6343 104.616 90.3309 104.55L90.4306 103.183Z" fill="white"/>
<path d="M103.504 130.141C102.206 129.341 100.843 127.075 101.641 125.776L103.57 123.776L108.194 121.344C109.491 122.143 109.491 125.676 108.693 126.975L107.296 129.241C106.531 130.541 104.801 130.941 103.504 130.141Z" fill="#FFC794"/>
<path d="M101.674 125.776L99.4785 128.842L100.443 132.907L105.533 130.508L101.674 125.776Z" fill="#FFC794"/>
<path d="M127.621 139.105L129.184 132.107C129.317 131.474 129.351 130.807 129.251 130.174L128.719 126.509L123.729 127.842L121.999 137.805L127.621 139.105Z" fill="#FFC794"/>
<path d="M138.133 112.88C138.066 112.847 137.967 112.78 137.867 112.78L119.837 108.315C119.205 108.148 118.24 108.582 117.741 109.281L101.275 131.941C101.209 132.007 101.175 132.107 101.142 132.174L100.876 132.507L101.042 133.107C101.142 133.307 101.308 133.44 101.541 133.507L119.571 137.972C120.203 138.139 121.168 137.705 121.667 137.006L138.133 114.346C138.399 113.98 138.499 113.613 138.432 113.347L138.299 112.88H138.133Z" fill="#1C4591"/>
<path d="M119.471 137.472L101.441 133.007C100.809 132.84 100.676 132.14 101.175 131.474L117.641 108.815C118.14 108.115 119.072 107.682 119.737 107.848L137.767 112.313C138.399 112.48 138.532 113.18 138.033 113.846L121.567 136.505C121.035 137.205 120.103 137.638 119.471 137.472Z" fill="#4367C7"/>
<path d="M119.937 135.539L102.572 131.24L119.205 108.914L136.536 113.179L119.937 135.539Z" fill="white"/>
<path d="M131.879 110.881L131.28 110.747C131.746 110.114 131.546 109.481 130.848 109.314L127.621 108.515C126.922 108.348 125.991 108.715 125.525 109.348L125.126 109.248C124.394 109.081 123.43 109.448 122.931 110.114C122.432 110.781 122.631 111.447 123.363 111.614L130.083 113.28C130.814 113.446 131.779 113.08 132.278 112.413C132.81 111.714 132.611 111.047 131.879 110.881Z" fill="#A8C4E5"/>
<path d="M131.713 110.314L131.114 110.181C131.58 109.548 131.38 108.915 130.682 108.748L127.455 107.948C126.756 107.782 125.825 108.148 125.359 108.781L124.96 108.681C124.228 108.515 123.264 108.881 122.765 109.548C122.266 110.214 122.465 110.881 123.197 111.047L129.917 112.713C130.648 112.88 131.613 112.513 132.112 111.847C132.644 111.147 132.445 110.481 131.713 110.314Z" fill="#E1EAF4"/>
<path d="M130.149 110.781L125.193 109.481C125.026 109.448 124.927 109.181 125.06 109.015C125.126 108.915 125.193 108.882 125.293 108.915L130.249 110.214C130.415 110.248 130.515 110.514 130.382 110.681C130.349 110.748 130.249 110.781 130.149 110.781Z" fill="white"/>
<path d="M121.134 130.374V135.439L121.799 138.172L124.693 135.906C124.693 135.906 123.296 133.773 123.163 132.74C123.063 131.674 122.265 128.242 121.134 130.374Z" fill="#FABB82"/>
<path d="M107.662 126.176L102.839 127.675L100.41 129.141L100.876 130.741C100.876 130.741 105.034 129.275 105.999 128.875C106.997 128.408 109.99 126.609 107.662 126.176Z" fill="#FFC794"/>
<path d="M156.927 107.915L161.451 129.475L196.678 134.673L191.057 111.347L156.927 107.915Z" fill="#357D83"/>
<path d="M231.208 109.781C231.208 109.781 219.372 117.868 211.255 124.966L216.101 127.397C216.101 127.397 237.628 120.111 237.129 111.747C236.663 103.383 231.208 109.781 231.208 109.781Z" fill="#FFC794"/>
<path d="M230.409 109.248L221.827 82.8903C220.995 80.4245 222.359 78.0253 224.887 77.5254C227.415 77.0256 229.511 78.4585 230.941 81.0576C235.465 90.1213 236.696 100.251 237.095 111.714C235.632 110.648 233.503 109.615 231.973 109.981C231.573 110.115 230.409 109.248 230.409 109.248Z" fill="#1D60DC"/>
<path d="M230.975 81.0904C229.544 78.4579 227.449 77.0584 224.921 77.5582C224.821 77.5916 224.688 77.6249 224.588 77.6582C224.787 77.9581 224.987 78.258 225.153 78.5912C234.9 83.8229 236.197 111.147 236.197 111.147C236.53 111.347 236.863 111.547 237.162 111.78C236.73 100.284 235.532 90.1541 230.975 81.0904Z" fill="#1A57C7"/>
<path d="M126.989 121.844L114.647 118.745L115.745 117.179L128.053 120.311L126.989 121.844Z" fill="#E9F5FF"/>
<path d="M124.494 125.776L112.152 122.644L113.217 121.111L125.558 124.21L124.494 125.776Z" fill="#E9F5FF"/>
<path d="M120.802 129.742L115.712 128.442L114.647 130.009L119.737 131.275L120.802 129.742Z" fill="#E9F5FF"/>
<path d="M226.218 138.738L232.006 127.842L249.869 130.541L245.013 142.037L226.218 138.738Z" fill="#26929D"/>
<path d="M245.013 142.037L252.065 137.006L249.869 130.541L245.013 142.037Z" fill="#A8C4E5"/>
<path d="M146.116 128.409C146.116 129.175 143.92 129.809 141.259 129.809C138.565 129.809 136.402 129.175 136.402 128.409C136.402 127.643 138.598 124.91 141.259 124.91C143.92 124.91 146.116 127.643 146.116 128.409Z" fill="#A8C4E5"/>
<path d="M141.227 125.743L146.615 114.613" stroke="#1C4591" stroke-width="5" stroke-miterlimit="10" stroke-linecap="round" stroke-linejoin="round"/>
<path d="M146.116 115.713C146.116 115.713 147.945 116.246 147.646 117.246C147.347 118.245 149.509 118.245 148.943 120.545C148.345 122.811 149.775 124.043 148.578 124.943C147.347 125.843 149.742 127.842 145.75 127.576" stroke="#1C4591" stroke-miterlimit="10" stroke-linecap="round" stroke-linejoin="round"/>
<path d="M245.312 133.74L233.004 131.841C232.638 131.774 232.505 131.374 232.738 130.975C232.938 130.541 233.436 130.241 233.802 130.308L246.11 132.207C246.476 132.274 246.609 132.674 246.377 133.074C246.177 133.507 245.678 133.807 245.312 133.74Z" fill="white"/>
<path d="M181.843 47.1354L128.253 41.1707L130.814 36.0391L184.404 41.9705L181.843 47.1354Z" fill="#AED0D5"/>
<path d="M181.843 56.0651L128.253 50.1337L130.814 44.9688L184.404 50.9335L181.843 56.0651Z" fill="#AED0D5"/>
<path d="M181.843 65.029L128.253 59.0643L130.814 53.9326L184.404 59.864L181.843 65.029Z" fill="#AED0D5"/>
<path d="M181.843 73.9596L128.253 68.0282L130.814 62.8633L184.404 68.7947L181.843 73.9596Z" fill="#AED0D5"/>
<path d="M181.843 82.9236L128.253 76.9589L130.814 71.7939L184.404 77.7587L181.843 82.9236Z" fill="#AED0D5"/>
<path d="M121.699 36.3389L122.93 68.4617" stroke="#E9F5FF" stroke-width="3" stroke-miterlimit="10" stroke-linecap="round" stroke-linejoin="round"/>
<path d="M124.66 69.6281C124.66 70.5945 123.862 71.3942 122.897 71.4275C121.932 71.4608 121.134 70.6944 121.134 69.7614C121.134 68.795 121.932 67.9953 122.897 67.962C123.895 67.9287 124.66 68.6951 124.66 69.6281Z" fill="#AED0D5"/>
<path d="M121.487 113.067L121.224 113.494L119.768 113.13L119.244 113.984L120.472 114.291L120.209 114.72L118.98 114.413L118.258 115.588L117.642 115.434L119.415 112.55L121.487 113.067Z" fill="#367BF5"/>
<path d="M121.781 115.968C121.899 115.998 122.015 116.007 122.129 115.995C122.244 115.984 122.352 115.955 122.454 115.909C122.558 115.862 122.654 115.799 122.742 115.718C122.831 115.638 122.91 115.542 122.978 115.432L124.04 113.705L124.651 113.857L123.589 115.585C123.484 115.756 123.354 115.907 123.201 116.037C123.049 116.167 122.882 116.27 122.699 116.347C122.516 116.422 122.322 116.469 122.117 116.487C121.913 116.504 121.706 116.486 121.496 116.433C121.285 116.38 121.114 116.304 120.982 116.203C120.85 116.102 120.758 115.983 120.704 115.849C120.653 115.713 120.64 115.565 120.666 115.404C120.694 115.243 120.76 115.076 120.866 114.904L121.927 113.177L122.538 113.33L121.478 115.055C121.41 115.165 121.365 115.269 121.344 115.367C121.324 115.465 121.326 115.553 121.351 115.633C121.376 115.711 121.424 115.779 121.495 115.837C121.568 115.895 121.663 115.939 121.781 115.968Z" fill="#367BF5"/>
<path d="M125.591 114.092C125.618 114.099 125.64 114.106 125.657 114.113C125.674 114.119 125.688 114.127 125.697 114.137C125.709 114.146 125.718 114.159 125.724 114.174C125.731 114.188 125.738 114.206 125.743 114.229L126.281 116.588C126.304 116.54 126.327 116.494 126.351 116.449C126.377 116.404 126.402 116.362 126.426 116.323L127.504 114.57L128.042 114.704L126.269 117.588L125.954 117.51C125.905 117.497 125.869 117.481 125.845 117.46C125.822 117.438 125.805 117.407 125.796 117.365L125.26 115.015C125.238 115.059 125.215 115.102 125.19 115.145C125.168 115.187 125.146 115.225 125.125 115.26L124.037 117.031L123.498 116.896L125.271 114.012L125.591 114.092Z" fill="#367BF5"/>
<path d="M130.735 117.04C130.605 117.252 130.445 117.436 130.256 117.593C130.067 117.749 129.861 117.873 129.637 117.965C129.413 118.056 129.178 118.112 128.93 118.131C128.682 118.15 128.434 118.129 128.186 118.067L126.932 117.754L128.705 114.87L129.958 115.183C130.207 115.245 130.411 115.337 130.571 115.46C130.732 115.582 130.846 115.725 130.913 115.889C130.981 116.051 131.001 116.231 130.972 116.428C130.944 116.625 130.865 116.829 130.735 117.04ZM130.11 116.884C130.207 116.726 130.27 116.578 130.298 116.441C130.328 116.303 130.324 116.179 130.288 116.071C130.252 115.96 130.185 115.866 130.085 115.787C129.986 115.709 129.856 115.65 129.696 115.61L129.058 115.45L127.81 117.481L128.448 117.64C128.609 117.68 128.767 117.693 128.922 117.678C129.08 117.664 129.23 117.625 129.372 117.56C129.515 117.495 129.65 117.406 129.775 117.293C129.901 117.179 130.013 117.042 130.11 116.884Z" fill="#367BF5"/>
</g>
</g>
<defs>
<clipPath id="clip0">
<rect x="30.7197" y="35.8389" width="308.566" height="210.664" fill="white"/>
</clipPath>
</defs>
</svg>
