<svg width="105" height="154" viewBox="0 0 105 154" fill="none" xmlns="http://www.w3.org/2000/svg">
<g clip-path="url(#clip0)">
<path d="M102.107 137.981C99.0033 135.79 95.4037 134.927 91.874 133.888C87.8055 132.803 83.6565 132.039 79.466 131.603C73.7422 129.909 65.9515 128.864 57.3594 128.864C50.7474 128.803 44.1505 129.502 37.7014 130.948C32.7344 131.905 27.7229 132.711 22.8258 133.964C17.9288 135.217 12.9555 136.432 9.68652 140.796V143.944C10.5232 145.647 11.9269 147.013 13.6614 147.811C19.3852 150.802 25.5351 152.099 31.8249 153.024C36.5057 153.723 41.2565 153.396 45.9373 154.019H69.4685C74.0157 153.39 78.563 152.791 83.0975 152.13C89.5972 151.179 95.9824 149.819 101.757 146.52C106.024 144.058 106.088 140.783 102.107 137.981Z" fill="#ADE3EC" fill-opacity="0.54"/>
<path d="M88.1215 125.067C55.4958 115.968 77.2399 93.2806 77.2399 93.2806" stroke="#F8AEB0" stroke-width="8" stroke-miterlimit="10" stroke-linecap="round"/>
<path d="M91.3566 122.942C73.422 128.999 74.7131 145.717 79.8645 142.462C79.8645 142.443 100.318 123.918 91.3566 122.942Z" fill="#F8AEB0"/>
<path d="M24.5114 40.4949C32.0223 58.0188 28.2318 73.8677 16.9496 88.4259C14.3177 91.6992 11.4345 94.7664 8.32572 97.6003C6.41778 99.4326 3.96927 101.177 1.41263 98.3685C-1.144 95.5601 0.0897992 93.4633 2.57011 91.3035C11.0541 83.9803 17.1976 75.1964 19.3663 64.0259C19.538 63.1192 19.8751 62.2124 19.22 61.3498C18.7558 58.7492 22.8578 42.5161 24.5114 40.4949Z" fill="#F8AEB0"/>
<path d="M84.2419 25.2567C113.942 82.2236 75.9741 116.56 33.0838 109.067C2.14344 103.67 16.7328 60.8146 19.3785 64.0259C18.0741 62.4067 17.1455 60.5232 16.6586 58.5089C16.1717 56.4947 16.1384 54.399 16.5611 52.3706C9.90238 42.7239 8.29335 30.0486 11.664 18.9285C18.9078 -4.85441 65.9384 -9.86663 84.2419 25.2567Z" fill="#F27788"/>
<path d="M29.395 22.5491C30.9913 23.4181 33.8023 21.2898 34.0822 24.3752C34.362 27.4606 31.2839 25.9935 29.9547 26.9883C29.0452 27.6747 28.1485 27.2276 27.4108 26.5161C27.0639 26.19 26.8349 25.76 26.759 25.2924C26.6832 24.8247 26.7647 24.3454 26.991 23.9281C27.1664 23.4567 27.5026 23.0609 27.9417 22.8091C28.3807 22.5572 28.8948 22.4653 29.395 22.5491Z" fill="#F8AEB0"/>
<path d="M27.4049 74.4975C28.4288 73.6474 26.6417 70.965 28.9948 71.0216C31.0045 71.072 31.6913 73.3011 31.9012 75.1145C32.0793 76.6573 30.9345 77.2932 29.4718 77.2303C27.8755 77.1673 27.3349 76.1913 27.4049 74.4975Z" fill="#F8AEB0"/>
<path d="M26.7369 12.5562C26.5461 13.8596 25.8783 14.7474 24.53 14.8482C23.0164 14.9678 22.0243 14.1429 21.948 12.6947C21.9231 12.4036 21.96 12.1105 22.0565 11.8344C22.1531 11.5583 22.3069 11.3053 22.5083 11.0917C22.7096 10.8781 22.954 10.7087 23.2255 10.5943C23.4971 10.48 23.7898 10.4233 24.0849 10.4278C25.6303 10.2956 26.3935 11.1898 26.7369 12.5562Z" fill="#F8AEB0"/>
<path d="M80.5978 43.8197C80.7051 44.6787 80.5288 45.5489 80.0954 46.3006C78.55 47.0814 77.0745 47.371 76.0442 45.5576C75.3128 44.2982 76.0442 43.2781 77.0618 42.68C78.5436 41.8362 79.6248 42.8185 80.5978 43.8197Z" fill="#F8AEB0"/>
<path d="M66.536 70.65C66.2563 71.2801 65.8437 71.8438 65.326 72.3031C64.8083 72.7625 64.1974 73.107 63.5342 73.3135C62.8601 73.4899 62.116 72.7405 62.3576 72.2368C62.9427 71.0215 63.1335 69.334 64.8634 69.0506C65.8492 68.8869 66.4025 69.5103 66.536 70.65Z" fill="#F8AEB0"/>
<path d="M47.0883 111.686C46.5413 108.5 47.419 106.082 50.7706 105.005C68.031 100.786 79.0716 86.8265 80.9159 66.8595C81.0749 65.1594 80.9159 63.4151 81.2912 61.7654C81.7809 59.4986 83.021 57.6662 85.743 57.8047C88.465 57.9433 89.6988 59.7693 89.6734 62.1684C89.4698 83.4389 78.9826 105.893 55.2479 112.719C53.9059 113.097 48.6146 112.757 47.0883 111.686Z" fill="#F8AEB0"/>
<path fill-rule="evenodd" clip-rule="evenodd" d="M47.7277 41.5161C48.2257 40.9821 49.0666 40.949 49.6059 41.4422L59.4444 50.4403C59.9837 50.9334 60.0171 51.7662 59.5191 52.3002C59.0211 52.8343 58.1802 52.8674 57.641 52.3742L47.8024 43.3761C47.2631 42.8829 47.2297 42.0502 47.7277 41.5161Z" fill="#D96A79"/>
<path fill-rule="evenodd" clip-rule="evenodd" d="M59.0692 41.0709C59.6084 41.5642 59.6416 42.397 59.1435 42.9309L50.0553 52.672C49.5572 53.2059 48.7163 53.2389 48.1772 52.7455C47.638 52.2522 47.6048 51.4195 48.1029 50.8856L57.191 41.1445C57.6892 40.6105 58.5301 40.5776 59.0692 41.0709Z" fill="#D96A79"/>
<path fill-rule="evenodd" clip-rule="evenodd" d="M26.4411 42.1961C26.9391 41.662 27.78 41.6289 28.3193 42.1221L37.0767 50.1316C37.6159 50.6248 37.6494 51.4575 37.1513 51.9916C36.6533 52.5256 35.8124 52.5587 35.2732 52.0655L26.5157 44.056C25.9765 43.5628 25.9431 42.7301 26.4411 42.1961Z" fill="#D96A79"/>
<path fill-rule="evenodd" clip-rule="evenodd" d="M36.7397 41.7887C37.2788 42.282 37.3121 43.1148 36.8139 43.6487L28.7243 52.3193C28.2261 52.8533 27.3852 52.8862 26.8461 52.3929C26.3069 51.8995 26.2737 51.0668 26.7719 50.5329L34.8615 41.8622C35.3596 41.3283 36.2005 41.2954 36.7397 41.7887Z" fill="#D96A79"/>
<path fill-rule="evenodd" clip-rule="evenodd" d="M55.5342 31.4476C55.5546 30.721 56.166 30.1483 56.8998 30.1685L56.8628 31.4842C56.8998 30.1685 56.8994 30.1685 56.8998 30.1685L56.9041 30.1686L56.9109 30.1688L56.932 30.1696C56.9492 30.1702 56.973 30.1711 57.0029 30.1725C57.0627 30.1753 57.1472 30.1799 57.2535 30.1871C57.4661 30.2014 57.7672 30.2266 58.135 30.2699C58.8683 30.3562 59.8792 30.5164 60.9894 30.8133C63.1587 31.3934 65.9521 32.5606 67.6299 34.968C68.0469 35.5663 67.8952 36.386 67.291 36.7989C66.6869 37.2118 65.8591 37.0616 65.4422 36.4633C64.3026 34.8282 62.2594 33.8797 60.2964 33.3547C59.3405 33.0991 58.4613 32.9593 57.8211 32.8839C57.5022 32.8464 57.2456 32.8251 57.0723 32.8134C56.9857 32.8075 56.9201 32.8041 56.8781 32.8021L56.8332 32.8002L56.8259 32.7999C56.0924 32.7794 55.5138 32.174 55.5342 31.4476Z" fill="#D96A79"/>
<path fill-rule="evenodd" clip-rule="evenodd" d="M37.2166 30.0436C37.7356 30.5577 37.7355 31.3911 37.2164 31.905C34.1415 34.9494 30.6258 35.9535 27.9057 36.1947C26.5488 36.315 25.3823 36.247 24.5498 36.1479C24.1327 36.0983 23.7968 36.0406 23.5596 35.9939C23.441 35.9705 23.3468 35.9498 23.2792 35.9342C23.2454 35.9263 23.2183 35.9198 23.1981 35.9148L23.1729 35.9084L23.1643 35.9062L23.161 35.9054L23.1596 35.905C23.1589 35.9048 23.1583 35.9047 23.4999 34.6326L23.1583 35.9047C22.4489 35.7179 22.0267 34.9969 22.2154 34.2944C22.4037 33.5931 23.1293 33.1753 23.8375 33.3596L23.8431 33.361C23.8504 33.3628 23.8642 33.3661 23.8844 33.3708C23.9246 33.3801 23.99 33.3946 24.0785 33.412C24.2555 33.4469 24.5239 33.4935 24.8668 33.5343C25.5545 33.6161 26.5316 33.6735 27.6686 33.5727C29.9362 33.3716 32.8088 32.5465 35.3369 30.0434C35.856 29.5294 36.6976 29.5295 37.2166 30.0436Z" fill="#D96A79"/>
<path fill-rule="evenodd" clip-rule="evenodd" d="M48.9961 27.7062C47.972 26.8672 47.9718 26.8674 47.9716 26.8677L47.9698 26.8698L47.9663 26.874L47.9558 26.8867L47.921 26.9294C47.8919 26.9655 47.8512 27.0164 47.8008 27.081C47.7002 27.21 47.5605 27.3941 47.397 27.6231C47.0717 28.0789 46.6445 28.7233 46.2442 29.4721C45.8465 30.216 45.4565 31.0979 45.2304 32.0246C45.0057 32.9457 44.9227 33.9949 45.2384 35.0175C45.453 35.7127 46.196 36.1039 46.898 35.8914C47.6 35.6788 47.9951 34.943 47.7804 34.2478C47.651 33.8284 47.6562 33.2909 47.8143 32.6428C47.971 32.0005 48.2582 31.331 48.5935 30.7038C48.9262 30.0815 49.2876 29.535 49.5677 29.1427C49.7069 28.9476 49.824 28.7934 49.9046 28.6901C49.9449 28.6385 49.9759 28.5998 49.9958 28.5752L50.017 28.5491L50.0205 28.5448C50.0204 28.545 50.0207 28.5446 50.0205 28.5448C50.4874 27.9847 50.4085 27.1551 49.8433 26.692C49.2777 26.2287 48.4395 26.3076 47.9716 26.8677L48.9961 27.7062Z" fill="#D96A79"/>
<path fill-rule="evenodd" clip-rule="evenodd" d="M43.9248 27.2658C43.9248 27.2658 43.9248 27.2658 43.9248 27.2658L43.9258 27.2646L43.9224 27.2689L43.9006 27.2969C43.8799 27.3239 43.8471 27.3672 43.8048 27.4254C43.7198 27.5419 43.597 27.717 43.4545 27.9395C43.1674 28.3879 42.8117 29.0118 42.5237 29.725C41.9264 31.2042 41.7379 32.7509 42.5423 34.0006C42.9369 34.6136 42.755 35.4273 42.136 35.818C41.517 36.2088 40.6954 36.0286 40.3008 35.4157C38.803 33.0888 39.3459 30.5049 40.0555 28.7475C40.421 27.8424 40.8626 27.0716 41.2095 26.5298C41.384 26.2572 41.5373 26.0384 41.6493 25.8847C41.7054 25.8078 41.7513 25.747 41.7846 25.7036C41.8012 25.6819 41.8147 25.6646 41.8248 25.6518L41.8373 25.636L41.8415 25.6307L41.8431 25.6287C41.8434 25.6283 41.8444 25.6271 42.8618 26.4291L41.8444 25.6271C42.3015 25.0583 43.1376 24.9642 43.712 25.4169C44.2857 25.8691 44.381 26.6959 43.9258 27.2646M43.9248 27.2658C43.9248 27.2658 43.9248 27.2658 43.9248 27.2658V27.2658Z" fill="#D96A79"/>
<path fill-rule="evenodd" clip-rule="evenodd" d="M54.6622 57.3526C55.3145 57.0408 55.5955 56.2671 55.2898 55.614C54.9811 54.9544 54.191 54.6676 53.525 54.9733L54.0766 56.1518C53.525 54.9733 53.5239 54.9738 53.5227 54.9744L53.5204 54.9755L53.5152 54.9779L53.5034 54.9834L53.474 54.9978C53.4518 55.0088 53.4245 55.0227 53.3927 55.0398C53.3292 55.0738 53.2472 55.1205 53.1513 55.181C52.9599 55.3019 52.7099 55.4799 52.4391 55.7264C51.895 56.2216 51.2658 56.9943 50.8676 58.1195C50.0588 60.4053 50.3223 63.7634 53.2566 68.5956C53.6349 69.2186 54.4515 69.4199 55.0805 69.0453C55.7096 68.6707 55.9129 67.8619 55.5346 67.239C52.8214 62.7708 52.9291 60.2541 53.3763 58.99C53.6062 58.3403 53.9579 57.9194 54.2378 57.6647C54.379 57.5362 54.5018 57.4503 54.5802 57.4008C54.6191 57.3762 54.6463 57.3612 54.6581 57.3548C54.6598 57.3539 54.6612 57.3532 54.6622 57.3526Z" fill="#D96A79"/>
<path d="M52.024 63.8433C52.024 63.8433 42.6751 46.4957 34.5664 62.4265C34.5664 62.4265 46.4846 59.9393 52.024 63.8433Z" fill="#EFEDED"/>
<path fill-rule="evenodd" clip-rule="evenodd" d="M53.1953 63.2225C53.1956 63.2231 53.1958 63.2235 52.0232 63.8433L53.1953 63.2225L55.8563 68.1602L51.2526 64.9157C50.0935 64.0988 48.5281 63.571 46.7381 63.2729C44.9598 62.9768 43.0471 62.9213 41.266 62.9862C39.4896 63.051 37.8755 63.2341 36.7044 63.4016C36.1199 63.4852 35.6484 63.5645 35.3254 63.6224C35.164 63.6514 35.0398 63.675 34.9573 63.691L34.8655 63.7092L34.8441 63.7136L34.8398 63.7144L32.1343 64.2791L33.3788 61.8341C35.4741 57.7175 37.8015 55.4368 40.3237 54.6689C42.8905 53.8876 45.2515 54.7904 47.1024 56.086C48.9515 57.3803 50.4743 59.1844 51.5138 60.6117C52.0399 61.3341 52.4562 61.9795 52.7421 62.4464C52.8853 62.6802 52.9964 62.8701 53.0727 63.0036C53.1109 63.0704 53.1405 63.1231 53.1611 63.1603L53.1853 63.2042L53.1923 63.217L53.1953 63.2225ZM37.1057 60.691C38.2405 60.5477 39.645 60.4111 41.1683 60.3556C43.0592 60.2866 45.1647 60.3414 47.179 60.6769C47.5858 60.7446 47.9925 60.8244 48.3959 60.9181C47.5814 59.9449 46.6189 58.9713 45.568 58.2357C44.0681 57.1857 42.5715 56.7387 41.1048 57.1852C39.9457 57.5381 38.5685 58.5173 37.1057 60.691Z" fill="#D96A79"/>
<path fill-rule="evenodd" clip-rule="evenodd" d="M34.8904 53.7498C35.6032 53.576 36.3233 54.0073 36.4987 54.7132L35.2082 55.0279C36.4987 54.7132 36.4989 54.7137 36.499 54.7142L36.4993 54.7154L36.4999 54.7181L36.5017 54.7251L36.5065 54.7454C36.5103 54.7617 36.5154 54.7835 36.5214 54.8107C36.5335 54.8649 36.5495 54.9405 36.5679 55.0358C36.6047 55.2261 36.6512 55.4957 36.6944 55.8312C36.7807 56.5008 36.8549 57.4407 36.8105 58.5421C36.7219 60.7363 36.1583 63.6425 34.2035 66.3049C33.7719 66.8928 32.9406 67.0229 32.3469 66.5954C31.7532 66.168 31.6219 65.3448 32.0535 64.7568C33.603 62.6463 34.0792 60.301 34.1544 58.4369C34.1918 57.5091 34.1289 56.7183 34.0576 56.1643C34.022 55.888 33.9846 55.6727 33.9572 55.531C33.9435 55.4602 33.9323 55.4081 33.9252 55.3761L33.9178 55.3435L33.9167 55.339C33.9167 55.339 33.9168 55.3393 33.9169 55.3397L33.9172 55.3409L33.9174 55.3416C33.7425 54.6361 34.178 53.9235 34.8904 53.7498Z" fill="#D96A79"/>
<path fill-rule="evenodd" clip-rule="evenodd" d="M49.5421 67.2851C49.5424 67.2853 49.5426 67.2855 48.7548 68.3455L49.5421 67.2851C50.1333 67.7159 50.2604 68.5403 49.8252 69.1258C49.3902 69.7111 48.5586 69.8365 47.9674 69.4059C47.9672 69.4058 47.9675 69.406 47.9674 69.4059L48.6929 68.4288C47.967 69.4056 47.9672 69.4058 47.9674 69.4059L47.9636 69.4032L47.9466 69.3909C47.9308 69.3796 47.9061 69.362 47.8732 69.3387C47.8074 69.2922 47.7087 69.2233 47.5819 69.1369C47.3279 68.964 46.9628 68.7223 46.5237 68.4512C45.6364 67.9035 44.4859 67.2601 43.3586 66.8136C42.1626 66.3399 41.2733 66.2036 40.7736 66.3297C40.5854 66.3772 40.4837 66.4529 40.4027 66.5732C40.3026 66.7218 40.1668 67.0453 40.1495 67.694C40.1301 68.4207 39.5195 68.9942 38.7857 68.975C38.0519 68.9558 37.4728 68.3511 37.4922 67.6244C37.5178 66.6658 37.7246 65.8054 38.1913 65.1125C38.677 64.3914 39.3662 63.9682 40.1173 63.7787C41.4963 63.4308 43.0797 63.8679 44.3458 64.3694C45.6806 64.8981 46.9814 65.6317 47.9298 66.2172C48.4086 66.5128 48.8075 66.7767 49.0881 66.9678C49.2285 67.0634 49.3398 67.1411 49.417 67.1957C49.4557 67.223 49.4859 67.2445 49.507 67.2597L49.5318 67.2776L49.539 67.2828L49.5421 67.2851Z" fill="#D96A79"/>
<path d="M40.843 133.164C17.0511 109.237 47.2918 100.213 47.2918 100.213" stroke="#F8AEB0" stroke-width="8" stroke-miterlimit="10" stroke-linecap="round"/>
<path d="M43.9144 132.534C25.3057 129.002 18.0619 144.165 24.1991 143.869C24.1991 143.843 51.2281 137.786 43.9144 132.534Z" fill="#F8AEB0"/>
</g>
<defs>
<clipPath id="clip0">
<rect width="105" height="154" fill="white"/>
</clipPath>
</defs>
</svg>
