<svg width="114" height="114" viewBox="0 0 114 114" fill="none" xmlns="http://www.w3.org/2000/svg">
<g filter="url(#filter0_d)">
<circle cx="57" cy="53" r="53" fill="white"/>
<circle cx="57" cy="53" r="52.5" stroke="white"/>
</g>
<g filter="url(#filter1_d)">
<circle cx="57" cy="53" r="50" fill="white"/>
<circle cx="57" cy="53" r="49.5" stroke="#5DD2D8" stroke-dasharray="3 3"/>
</g>
<circle cx="57" cy="53" r="45.75" stroke="#2DB3BE" stroke-width="0.5"/>
<path d="M35.3803 47.456C36.1803 47.456 36.9123 47.576 37.5763 47.816C38.2403 48.048 38.8083 48.38 39.2803 48.812C39.7523 49.244 40.1203 49.764 40.3843 50.372C40.6483 50.98 40.7803 51.656 40.7803 52.4C40.7803 53.04 40.6843 53.632 40.4922 54.176C40.3082 54.72 40.0563 55.24 39.7363 55.736C39.4243 56.232 39.0563 56.712 38.6323 57.176C38.2083 57.64 37.7643 58.112 37.3003 58.592L33.3883 62.588C33.7723 62.476 34.1483 62.392 34.5163 62.336C34.8843 62.272 35.2363 62.24 35.5723 62.24H40.0243C40.3443 62.24 40.5963 62.332 40.7803 62.516C40.9723 62.692 41.0683 62.928 41.0683 63.224V65H29.1643V64.016C29.1643 63.816 29.2043 63.608 29.2843 63.392C29.3723 63.176 29.5083 62.976 29.6923 62.792L34.9603 57.512C35.4003 57.064 35.7923 56.636 36.1363 56.228C36.4883 55.82 36.7803 55.416 37.0123 55.016C37.2523 54.616 37.4323 54.212 37.5523 53.804C37.6803 53.388 37.7443 52.952 37.7443 52.496C37.7443 52.08 37.6843 51.716 37.5643 51.404C37.4443 51.084 37.2723 50.816 37.0483 50.6C36.8243 50.384 36.5563 50.224 36.2443 50.12C35.9403 50.008 35.5963 49.952 35.2122 49.952C34.5003 49.952 33.9123 50.132 33.4483 50.492C32.9923 50.852 32.6723 51.336 32.4883 51.944C32.4003 52.248 32.2683 52.468 32.0923 52.604C31.9163 52.732 31.6923 52.796 31.4203 52.796C31.3003 52.796 31.1683 52.784 31.0243 52.76L29.4643 52.484C29.5843 51.652 29.8163 50.924 30.1603 50.3C30.5043 49.668 30.9323 49.144 31.4443 48.728C31.9643 48.304 32.5563 47.988 33.2203 47.78C33.8923 47.564 34.6123 47.456 35.3803 47.456ZM55.3981 56.324C55.3981 57.836 55.2341 59.152 54.9061 60.272C54.5861 61.384 54.1381 62.304 53.5621 63.032C52.9941 63.76 52.3181 64.304 51.5341 64.664C50.7581 65.016 49.9181 65.192 49.0141 65.192C48.1101 65.192 47.2701 65.016 46.4941 64.664C45.7261 64.304 45.0581 63.76 44.4901 63.032C43.9221 62.304 43.4781 61.384 43.1581 60.272C42.8381 59.152 42.6781 57.836 42.6781 56.324C42.6781 54.804 42.8381 53.488 43.1581 52.376C43.4781 51.264 43.9221 50.344 44.4901 49.616C45.0581 48.888 45.7261 48.348 46.4941 47.996C47.2701 47.636 48.1101 47.456 49.0141 47.456C49.9181 47.456 50.7581 47.636 51.5341 47.996C52.3181 48.348 52.9941 48.888 53.5621 49.616C54.1381 50.344 54.5861 51.264 54.9061 52.376C55.2341 53.488 55.3981 54.804 55.3981 56.324ZM52.3381 56.324C52.3381 55.068 52.2461 54.028 52.0621 53.204C51.8781 52.38 51.6301 51.724 51.3181 51.236C51.0141 50.748 50.6621 50.408 50.2621 50.216C49.8621 50.016 49.4461 49.916 49.0141 49.916C48.5901 49.916 48.1781 50.016 47.7781 50.216C47.3861 50.408 47.0381 50.748 46.7341 51.236C46.4301 51.724 46.1861 52.38 46.0021 53.204C45.8261 54.028 45.7381 55.068 45.7381 56.324C45.7381 57.58 45.8261 58.62 46.0021 59.444C46.1861 60.268 46.4301 60.924 46.7341 61.412C47.0381 61.9 47.3861 62.244 47.7781 62.444C48.1781 62.636 48.5901 62.732 49.0141 62.732C49.4461 62.732 49.8621 62.636 50.2621 62.444C50.6621 62.244 51.0141 61.9 51.3181 61.412C51.6301 60.924 51.8781 60.268 52.0621 59.444C52.2461 58.62 52.3381 57.58 52.3381 56.324ZM59.228 62.78H62.744V52.664C62.744 52.272 62.756 51.86 62.78 51.428L60.284 53.516C60.18 53.604 60.072 53.664 59.96 53.696C59.856 53.728 59.752 53.744 59.648 53.744C59.488 53.744 59.34 53.712 59.204 53.648C59.076 53.576 58.98 53.496 58.916 53.408L57.98 52.124L63.272 47.624H65.708V62.78H68.828V65H59.228V62.78ZM77.4219 47.456C78.2219 47.456 78.9419 47.572 79.5819 47.804C80.2299 48.028 80.7819 48.344 81.2379 48.752C81.6939 49.152 82.0419 49.624 82.2819 50.168C82.5299 50.712 82.6539 51.3 82.6539 51.932C82.6539 52.484 82.5899 52.972 82.4619 53.396C82.3419 53.812 82.1619 54.176 81.9219 54.488C81.6899 54.8 81.4019 55.064 81.0579 55.28C80.7219 55.496 80.3379 55.676 79.9059 55.82C80.9459 56.148 81.7219 56.648 82.2339 57.32C82.7459 57.992 83.0019 58.836 83.0019 59.852C83.0019 60.716 82.8419 61.48 82.5219 62.144C82.2019 62.808 81.7699 63.368 81.2259 63.824C80.6819 64.272 80.0499 64.612 79.3299 64.844C78.6179 65.076 77.8619 65.192 77.0619 65.192C76.1899 65.192 75.4299 65.092 74.7819 64.892C74.1339 64.692 73.5699 64.396 73.0899 64.004C72.6099 63.612 72.2019 63.132 71.8659 62.564C71.5299 61.996 71.2419 61.34 71.0019 60.596L72.3099 60.056C72.5339 59.96 72.7619 59.912 72.9939 59.912C73.2019 59.912 73.3859 59.956 73.5459 60.044C73.7139 60.132 73.8419 60.26 73.9299 60.428C74.0739 60.708 74.2299 60.984 74.3979 61.256C74.5739 61.528 74.7819 61.772 75.0219 61.988C75.2619 62.196 75.5419 62.368 75.8619 62.504C76.1899 62.632 76.5779 62.696 77.0259 62.696C77.5299 62.696 77.9699 62.616 78.3459 62.456C78.7219 62.288 79.0339 62.072 79.2819 61.808C79.5379 61.544 79.7259 61.252 79.8459 60.932C79.9739 60.604 80.0379 60.276 80.0379 59.948C80.0379 59.532 79.9939 59.156 79.9059 58.82C79.8179 58.476 79.6339 58.184 79.3539 57.944C79.0739 57.704 78.6699 57.516 78.1419 57.38C77.6219 57.244 76.9219 57.176 76.0419 57.176V55.064C76.7699 55.056 77.3739 54.988 77.8539 54.86C78.3339 54.732 78.7139 54.556 78.9939 54.332C79.2819 54.1 79.4819 53.824 79.5939 53.504C79.7059 53.184 79.7619 52.832 79.7619 52.448C79.7619 51.624 79.5379 51.004 79.0899 50.588C78.6419 50.164 78.0299 49.952 77.2539 49.952C76.5499 49.952 75.9659 50.14 75.5019 50.516C75.0379 50.884 74.7139 51.36 74.5299 51.944C74.4339 52.248 74.3019 52.468 74.1339 52.604C73.9659 52.732 73.7459 52.796 73.4739 52.796C73.3459 52.796 73.2099 52.784 73.0659 52.76L71.5059 52.484C71.6259 51.652 71.8579 50.924 72.2019 50.3C72.5459 49.668 72.9739 49.144 73.4859 48.728C74.0059 48.304 74.5979 47.988 75.2619 47.78C75.9339 47.564 76.6539 47.456 77.4219 47.456Z" fill="#2DB3BE"/>
<defs>
<filter id="filter0_d" x="0" y="0" width="114" height="114" filterUnits="userSpaceOnUse" color-interpolation-filters="sRGB">
<feFlood flood-opacity="0" result="BackgroundImageFix"/>
<feColorMatrix in="SourceAlpha" type="matrix" values="0 0 0 0 0 0 0 0 0 0 0 0 0 0 0 0 0 0 127 0"/>
<feOffset dy="4"/>
<feGaussianBlur stdDeviation="2"/>
<feColorMatrix type="matrix" values="0 0 0 0 0 0 0 0 0 0 0 0 0 0 0 0 0 0 0.1 0"/>
<feBlend mode="normal" in2="BackgroundImageFix" result="effect1_dropShadow"/>
<feBlend mode="normal" in="SourceGraphic" in2="effect1_dropShadow" result="shape"/>
</filter>
<filter id="filter1_d" x="3" y="3" width="108" height="108" filterUnits="userSpaceOnUse" color-interpolation-filters="sRGB">
<feFlood flood-opacity="0" result="BackgroundImageFix"/>
<feColorMatrix in="SourceAlpha" type="matrix" values="0 0 0 0 0 0 0 0 0 0 0 0 0 0 0 0 0 0 127 0"/>
<feOffset dy="4"/>
<feGaussianBlur stdDeviation="2"/>
<feColorMatrix type="matrix" values="0 0 0 0 0 0 0 0 0 0 0 0 0 0 0 0 0 0 0.1 0"/>
<feBlend mode="normal" in2="BackgroundImageFix" result="effect1_dropShadow"/>
<feBlend mode="normal" in="SourceGraphic" in2="effect1_dropShadow" result="shape"/>
</filter>
</defs>
</svg>
