<svg width="157" height="170" viewBox="0 0 157 170" fill="none" xmlns="http://www.w3.org/2000/svg">
<path d="M89.7081 153.335C86.7402 151.241 83.306 150.426 79.9375 149.442C76.0558 148.409 72.0985 147.685 68.1028 147.276C62.6404 145.67 55.2114 144.697 47.0178 144.731C40.7187 144.699 34.4377 145.398 28.3011 146.814C23.5664 147.755 18.7947 148.55 14.1341 149.774C9.4736 150.998 4.74015 152.187 1.6519 156.395L1.66685 159.422C2.46893 161.058 3.81407 162.366 5.47295 163.123C10.9415 165.976 16.802 167.198 22.8001 168.063C27.2639 168.716 31.7894 168.382 36.2589 168.963L58.6823 168.868C63.0064 168.244 67.3368 167.651 71.6607 166.997C77.8439 166.057 83.922 164.723 89.4092 161.528C93.4702 159.162 93.5092 156.013 89.7081 153.335Z" fill="#ADE3EC" fill-opacity="0.54"/>
<path d="M54.8553 155.644C54.4392 155.646 54.0272 155.562 53.6458 155.395C52.9112 155.074 52.3336 154.474 52.0399 153.727C51.7462 152.979 51.7604 152.146 52.0795 151.409C65.8174 119.625 52.0476 110.754 51.878 110.67C51.1926 110.253 50.7003 109.58 50.5095 108.799C50.3187 108.018 50.445 107.194 50.8606 106.507C51.2762 105.82 51.9471 105.327 52.7256 105.136C53.5042 104.945 54.3266 105.072 55.012 105.489C55.7755 105.953 73.4359 117.248 57.5951 153.821C57.3631 154.358 56.9808 154.816 56.4946 155.139C56.0084 155.463 55.439 155.638 54.8553 155.644Z" fill="#F8AEB0"/>
<path d="M52.6841 151.509C70.5728 140.371 84.2055 153.362 77.7498 155.466C77.7498 155.466 47.2293 159.925 52.6841 151.509Z" fill="#F8AEB0"/>
<path d="M44.9177 88.2257C59.6309 99.1607 75.2727 99.2441 91.4391 92.1053C95.096 90.4097 98.6177 88.4369 101.973 86.204C104.117 84.8323 106.292 82.9822 104.235 79.9809C102.179 76.9797 99.9216 77.6319 97.3491 79.4506C88.5965 85.6466 79.0083 89.3511 68.0784 88.8134C67.1888 88.7712 66.2698 88.8781 65.6103 88.0726C63.3068 87.0354 47.2135 87.1557 44.9177 88.2257Z" fill="#F8AEB0"/>
<path d="M67.431 44.5372C86.5728 79.9816 67.1297 133.854 25.1246 126.644C-5.1691 121.437 8.89458 78.9933 11.4952 82.1623C10.2079 80.5714 9.28639 78.7165 8.7963 76.7294C8.3062 74.7424 8.25951 72.672 8.65954 70.6655C2.11677 61.135 0.474633 48.6094 3.73136 37.6135C10.6971 14.0569 48.8697 10.1624 67.431 44.5372Z" fill="#F27788"/>
<path d="M19.9763 42.5632C21.5013 43.3921 24.1693 41.3345 24.4445 44.2998C24.7198 47.2651 21.7862 45.867 20.5307 46.8289C19.6614 47.4925 18.811 47.0663 18.1048 46.3852C17.7676 46.0753 17.5429 45.6623 17.4661 45.2112C17.3893 44.76 17.4647 44.2962 17.6804 43.8927C17.8456 43.4369 18.1663 43.0538 18.5861 42.8107C19.0059 42.5676 19.4981 42.4799 19.9763 42.5632Z" fill="#F8AEB0"/>
<path d="M18.2791 92.5504C19.2499 91.7284 17.5357 89.1552 19.7763 89.2002C21.69 89.2404 22.3546 91.382 22.563 93.1257C22.7339 94.609 21.647 95.2255 20.254 95.1709C18.7338 95.0926 18.2206 94.168 18.2791 92.5504Z" fill="#F8AEB0"/>
<path d="M17.3884 32.9576C17.2129 34.2121 16.5873 35.0688 15.2977 35.1712C14.9981 35.2242 14.6904 35.2104 14.3966 35.1309C14.1028 35.0515 13.8301 34.9083 13.5978 34.7115C13.3656 34.5148 13.1795 34.2693 13.0528 33.9925C12.9261 33.7157 12.8619 33.4145 12.8648 33.1102C12.8388 32.8306 12.8718 32.5487 12.9617 32.2827C13.0515 32.0168 13.1963 31.7727 13.3865 31.5663C13.5768 31.3599 13.8083 31.1959 14.0661 31.0847C14.3239 30.9736 14.6022 30.9178 14.8829 30.9211C16.3298 30.7877 17.0548 31.6447 17.3884 32.9576Z" fill="#F8AEB0"/>
<path d="M68.8475 62.8298C68.9569 63.6518 68.7929 64.4868 68.3809 65.206C66.9128 65.9634 65.5091 66.248 64.5253 64.5078C63.8228 63.2994 64.5144 62.3153 65.4806 61.7357C66.8879 60.9302 67.9402 61.8403 68.8475 62.8298Z" fill="#F8AEB0"/>
<path d="M55.5551 88.6981C55.2908 89.3048 54.9003 89.8482 54.4097 90.2922C53.919 90.7361 53.3395 91.0704 52.7096 91.2729C52.0685 91.4453 51.3564 90.7274 51.5841 90.2417C52.1354 89.0701 52.303 87.4458 53.9549 87.1661C54.8927 87.0046 55.4225 87.6021 55.5551 88.6981Z" fill="#F8AEB0"/>
<path d="M22.1419 161.228C21.7258 161.231 21.3138 161.146 20.9324 160.979C20.1979 160.658 19.6202 160.058 19.3265 159.311C19.0328 158.564 19.047 157.73 19.3661 156.994C33.104 125.209 19.3342 116.339 19.1647 116.255C18.4792 115.838 17.987 115.164 17.7962 114.384C17.6054 113.603 17.7317 112.778 18.1472 112.091C18.5628 111.404 19.2337 110.911 20.0122 110.72C20.7908 110.529 21.6132 110.657 22.2986 111.074C23.0621 111.537 40.7224 122.832 24.8817 159.405C24.6497 159.942 24.2674 160.4 23.7812 160.724C23.295 161.047 22.7256 161.223 22.1419 161.228Z" fill="#F8AEB0"/>
<path d="M20.3892 157.205C38.2778 146.066 51.9105 159.057 45.4549 161.161C45.4549 161.161 14.9344 165.62 20.3892 157.205Z" fill="#F8AEB0"/>
<path d="M30.7144 137.682C28.468 135.535 27.7433 133.17 29.6754 130.417C40.3847 117.335 40.7656 100.274 30.6958 83.8333C29.8369 82.4376 28.7308 81.1641 28.0528 79.6888C27.1243 77.6694 27.0111 75.5496 29.1492 74.1169C31.2872 72.6841 33.2907 73.3722 34.6535 75.2383C46.7177 91.7492 51.6367 115.039 37.5054 133.825C36.7431 134.87 32.5269 137.62 30.7144 137.682Z" fill="#F8AEB0"/>
<path d="M61.5226 52.7055C61.9298 54.2243 61.997 55.5628 61.2949 56.8501C61.0366 57.3431 60.6703 57.7712 60.2233 58.1025C58.9161 59.0706 57.3135 59.5548 55.6887 59.4728C54.9538 59.45 54.2423 59.2087 53.6448 58.7797C53.0474 58.3507 52.5911 57.7534 52.3343 57.064C51.7468 55.7994 51.4978 54.4039 51.6118 53.0144C51.7999 50.6571 53.2642 49.2334 55.4784 48.818C56.2578 48.6303 57.0715 48.6365 57.8483 48.8359C58.6251 49.0353 59.3414 49.422 59.9346 49.9621C60.7396 50.6865 61.2954 51.6467 61.5226 52.7055Z" fill="#D96A79"/>
<path d="M42.5808 57.7738C42.8605 58.5948 42.9498 59.4687 42.8417 60.3291C42.7819 60.8381 42.6103 61.3274 42.3392 61.7622C42.0681 62.1969 41.7043 62.5662 41.2738 62.8437C40.0785 63.6306 38.6716 64.0339 37.2407 63.9998C36.3828 64.0207 35.5393 63.7749 34.8266 63.2962C34.1139 62.8175 33.567 62.1296 33.2612 61.3272C32.5813 59.7671 32.2463 58.1511 32.886 56.4825C33.1394 55.8263 33.5327 55.2333 34.0385 54.7447C34.5442 54.2561 35.1504 53.8836 35.8148 53.6531C36.9144 53.1565 38.16 53.0885 39.3077 53.4625C40.9032 54.0615 41.7692 55.3057 42.352 56.8176C42.4473 57.1315 42.5237 57.4508 42.5808 57.7738Z" fill="#D96A79"/>
<path d="M50.3995 71.4724C48.082 72.1665 45.9905 73.2109 44.4487 75.1309C44.1818 75.4945 43.9368 75.8737 43.715 76.2664C43.5588 76.5275 43.6202 76.6907 43.8695 76.8713C44.4777 77.3108 44.6246 77.6129 44.3413 77.9229C43.8953 78.4093 43.578 77.9625 43.2435 77.7217C42.6637 77.3029 41.9825 77.0466 41.2704 76.9792C40.8581 76.9386 40.518 76.7826 40.5824 76.3221C40.6468 75.8616 41.0103 75.848 41.3864 75.919L41.4409 75.9188C42.3213 76.2723 42.7619 75.9132 43.2185 75.1059C44.2628 73.4221 45.8099 72.1087 47.6417 71.3509C50.1374 70.1291 52.955 69.7231 55.6955 70.1904C56.967 70.3846 58.1787 70.8616 59.2413 71.5863C59.285 71.632 59.3381 71.6675 59.3971 71.6904C59.456 71.7132 59.5192 71.7228 59.5822 71.7185C59.6453 71.7142 59.7065 71.6961 59.7618 71.6654C59.817 71.6347 59.8647 71.5923 59.9016 71.5411C60.132 71.323 60.3759 71.1197 60.6319 70.9324C60.6844 70.8851 60.7469 70.8502 60.8148 70.8302C60.8826 70.8102 60.9541 70.8057 61.024 70.8171C61.0938 70.8284 61.1602 70.8553 61.2183 70.8956C61.2764 70.936 61.3247 70.9889 61.3596 71.0505C61.4048 71.0992 61.4387 71.1572 61.459 71.2204C61.4794 71.2836 61.4856 71.3505 61.4772 71.4163C61.4689 71.4822 61.4462 71.5454 61.4108 71.6015C61.3753 71.6576 61.328 71.7053 61.2722 71.7411C60.485 72.3137 59.8619 73.0826 59.4653 73.9712C59.4432 74.0338 59.4073 74.0907 59.3602 74.1375C59.3132 74.1844 59.2561 74.22 59.1934 74.2418C59.1306 74.2636 59.0637 74.271 58.9977 74.2634C58.9316 74.2558 58.8681 74.2335 58.8119 74.198C58.6895 74.1497 58.5902 74.0564 58.5344 73.9372C58.4786 73.8181 58.4705 73.6822 58.5118 73.5574C58.5115 73.4908 58.5597 73.43 58.5836 73.3633C58.8585 72.5992 58.8585 72.5931 58.1655 72.154C56.4636 71.1136 54.5722 70.9582 52.6457 71.0572C51.8841 71.1141 51.131 71.2533 50.3995 71.4724Z" fill="#D96A79"/>
<path d="M41.2109 47.3537C41.9151 47.6353 42.0253 47.8589 41.7137 48.5626C40.9187 50.3132 39.4811 51.6914 37.6978 52.4126C37.0375 52.7146 36.3514 52.9567 35.6476 53.1358C35.1151 53.2713 34.8176 53.1394 34.7123 52.6857C34.6071 52.232 34.7937 51.9951 35.3141 51.8597C36.3382 51.6502 37.3155 51.2562 38.1982 50.6969C38.5475 50.2715 39.0064 49.9547 39.4043 49.5534C39.8575 49.0589 40.2252 48.4926 40.4926 47.8775C40.6062 47.5804 40.7436 47.1922 41.2109 47.3537Z" fill="#D96A79"/>
<path d="M56.9742 47.7421C54.6798 48.2542 52.5527 48.2693 50.5233 47.2247C50.0829 47.003 49.674 46.7238 49.3071 46.3945C49.229 46.3432 49.1638 46.2745 49.1167 46.1938C49.0695 46.1131 49.0417 46.0227 49.0353 45.9295C49.029 45.8363 49.0444 45.743 49.0802 45.6567C49.116 45.5705 49.1713 45.4937 49.2418 45.4324C49.2981 45.3726 49.366 45.3249 49.4414 45.2922C49.5168 45.2595 49.598 45.2425 49.6802 45.2421C49.7624 45.2418 49.8438 45.2581 49.9195 45.2902C49.9952 45.3223 50.0636 45.3694 50.1205 45.4287C51.9947 46.9582 54.1225 47.0763 56.3622 46.5462C56.5136 46.5093 56.6588 46.4663 56.8162 46.4353C56.9027 46.4041 56.9946 46.391 57.0864 46.3966C57.1782 46.4023 57.2678 46.4267 57.3498 46.4683C57.4318 46.51 57.5044 46.5679 57.5631 46.6387C57.6218 46.7094 57.6654 46.7914 57.6911 46.8796C57.8141 47.2422 57.5673 47.5762 57.0892 47.7174L56.9742 47.7421Z" fill="#D96A79"/>
<path d="M57.1121 55.2257C57.314 55.9047 57.2661 56.6336 56.977 57.28C56.8818 57.52 56.7311 57.734 56.5372 57.9044C56.3434 58.0749 56.1119 58.197 55.8618 58.2607C55.6116 58.3244 55.3499 58.3279 55.0981 58.271C54.8462 58.2141 54.6114 58.0983 54.4128 57.9331C54.0353 57.6526 53.7283 57.288 53.516 56.8683C53.3037 56.4486 53.192 55.9853 53.1897 55.515C53.1722 55.2517 53.2458 54.9905 53.3979 54.775C53.6804 54.4186 54.055 54.1463 54.4811 53.9875C54.9072 53.8287 55.3687 53.7895 55.8156 53.8741C56.1522 53.9205 56.4634 54.0791 56.6987 54.3244C56.934 54.5697 57.0797 54.8873 57.1121 55.2257Z" fill="#FFFEFE"/>
<path d="M41.6866 59.2015C41.837 59.8508 41.7434 60.5327 41.4236 61.117C41.3231 61.3339 41.1755 61.5257 40.9917 61.6784C40.8078 61.8311 40.5923 61.9409 40.3607 61.9999C40.1291 62.0589 39.8872 62.0656 39.6527 62.0194C39.4181 61.9733 39.1967 61.8755 39.0045 61.7332C38.6012 61.4573 38.2719 61.0863 38.0459 60.653C37.8198 60.2197 37.7039 59.7374 37.7084 59.2488C37.6983 58.9773 37.7688 58.709 37.911 58.4777C38.0531 58.2463 38.2607 58.0623 38.5073 57.9489C38.7963 57.7881 39.1082 57.6724 39.4321 57.6057C40.6419 57.34 41.383 57.8155 41.6866 59.2015Z" fill="#FFFEFE"/>
<path d="M93.4775 5.71525C96.0634 7.23477 98.8827 8.04366 101.82 8.40068C106.047 8.90898 110.087 8.12129 114.101 6.93422C118.404 5.65696 122.761 4.53998 127.226 3.95144C132.828 3.19606 138.396 3.49657 143.954 4.5547C146.219 4.97864 148.449 5.55293 150.667 6.1724C151.147 6.30914 151.336 6.4917 151.369 7.0094C152.144 19.1542 152.934 31.313 153.738 43.4561C153.786 44.1957 153.609 44.1907 153.006 43.9717C147.671 42.0402 142.189 40.7997 136.541 40.3849C131.557 40.0223 126.671 40.4709 121.874 41.8349C117.12 43.1965 112.321 44.3082 107.342 44.4502C104.315 44.5287 101.324 44.2488 98.4788 43.0406C97.4802 42.6208 96.5599 42.0482 95.6799 41.4141C95.3916 41.2816 95.344 41.0022 95.2974 40.7375C95.2508 40.4729 95.2472 40.1911 95.2299 39.9248C94.5204 29.0085 93.8119 18.1071 93.1024 7.1908C93.0832 6.89497 93.0493 6.59995 93.0741 6.30168C93.1164 6.04697 93.0972 5.75114 93.4775 5.71525Z" fill="white"/>
<path d="M93.4795 5.83551C93.2087 6.00807 93.327 6.27 93.3405 6.50616C93.9916 17.9158 94.6427 29.3255 95.2938 40.7352C95.3073 40.9714 95.3658 41.2207 95.4088 41.4558C95.2626 41.7421 95.3532 42.0346 95.37 42.3298C96.1896 56.6916 96.9944 71.0538 97.8442 85.4293C97.8872 86.182 97.7213 86.3803 96.9688 86.3929C95.0641 86.4031 95.0666 86.4474 94.9571 84.5285C93.4536 58.1815 91.9501 31.8344 90.4475 5.50212C90.4323 5.23643 90.4016 4.95652 90.3717 4.69138C90.3856 4.67608 90.4134 4.64549 90.4281 4.64495C91.3592 4.65544 92.2983 4.54731 93.2319 4.60209C93.2849 5.0143 93.1047 5.47938 93.4795 5.83551Z" fill="#847D7B"/>
</svg>
