<svg width="114" height="114" viewBox="0 0 114 114" fill="none" xmlns="http://www.w3.org/2000/svg">
<g filter="url(#filter0_d)">
<circle cx="57" cy="53" r="53" fill="white"/>
<circle cx="57" cy="53" r="52.5" stroke="white"/>
</g>
<g filter="url(#filter1_d)">
<circle cx="57" cy="53" r="50" fill="white"/>
<circle cx="57" cy="53" r="49.5" stroke="#5DD2D8" stroke-dasharray="3 3"/>
</g>
<circle cx="57" cy="53" r="45.75" stroke="#2DB3BE" stroke-width="0.5"/>
<path d="M35.3803 46.456C36.1803 46.456 36.9123 46.576 37.5763 46.816C38.2403 47.048 38.8083 47.38 39.2803 47.812C39.7523 48.244 40.1203 48.764 40.3843 49.372C40.6483 49.98 40.7803 50.656 40.7803 51.4C40.7803 52.04 40.6843 52.632 40.4922 53.176C40.3082 53.72 40.0563 54.24 39.7363 54.736C39.4243 55.232 39.0563 55.712 38.6323 56.176C38.2083 56.64 37.7643 57.112 37.3003 57.592L33.3883 61.588C33.7723 61.476 34.1483 61.392 34.5163 61.336C34.8843 61.272 35.2363 61.24 35.5723 61.24H40.0243C40.3443 61.24 40.5963 61.332 40.7803 61.516C40.9723 61.692 41.0683 61.928 41.0683 62.224V64H29.1643V63.016C29.1643 62.816 29.2043 62.608 29.2843 62.392C29.3723 62.176 29.5083 61.976 29.6923 61.792L34.9603 56.512C35.4003 56.064 35.7923 55.636 36.1363 55.228C36.4883 54.82 36.7803 54.416 37.0123 54.016C37.2523 53.616 37.4323 53.212 37.5523 52.804C37.6803 52.388 37.7443 51.952 37.7443 51.496C37.7443 51.08 37.6843 50.716 37.5643 50.404C37.4443 50.084 37.2723 49.816 37.0483 49.6C36.8243 49.384 36.5563 49.224 36.2443 49.12C35.9403 49.008 35.5963 48.952 35.2122 48.952C34.5003 48.952 33.9123 49.132 33.4483 49.492C32.9923 49.852 32.6723 50.336 32.4883 50.944C32.4003 51.248 32.2683 51.468 32.0923 51.604C31.9163 51.732 31.6923 51.796 31.4203 51.796C31.3003 51.796 31.1683 51.784 31.0243 51.76L29.4643 51.484C29.5843 50.652 29.8163 49.924 30.1603 49.3C30.5043 48.668 30.9323 48.144 31.4443 47.728C31.9643 47.304 32.5563 46.988 33.2203 46.78C33.8923 46.564 34.6123 46.456 35.3803 46.456ZM55.3981 55.324C55.3981 56.836 55.2341 58.152 54.9061 59.272C54.5861 60.384 54.1381 61.304 53.5621 62.032C52.9941 62.76 52.3181 63.304 51.5341 63.664C50.7581 64.016 49.9181 64.192 49.0141 64.192C48.1101 64.192 47.2701 64.016 46.4941 63.664C45.7261 63.304 45.0581 62.76 44.4901 62.032C43.9221 61.304 43.4781 60.384 43.1581 59.272C42.8381 58.152 42.6781 56.836 42.6781 55.324C42.6781 53.804 42.8381 52.488 43.1581 51.376C43.4781 50.264 43.9221 49.344 44.4901 48.616C45.0581 47.888 45.7261 47.348 46.4941 46.996C47.2701 46.636 48.1101 46.456 49.0141 46.456C49.9181 46.456 50.7581 46.636 51.5341 46.996C52.3181 47.348 52.9941 47.888 53.5621 48.616C54.1381 49.344 54.5861 50.264 54.9061 51.376C55.2341 52.488 55.3981 53.804 55.3981 55.324ZM52.3381 55.324C52.3381 54.068 52.2461 53.028 52.0621 52.204C51.8781 51.38 51.6301 50.724 51.3181 50.236C51.0141 49.748 50.6621 49.408 50.2621 49.216C49.8621 49.016 49.4461 48.916 49.0141 48.916C48.5901 48.916 48.1781 49.016 47.7781 49.216C47.3861 49.408 47.0381 49.748 46.7341 50.236C46.4301 50.724 46.1861 51.38 46.0021 52.204C45.8261 53.028 45.7381 54.068 45.7381 55.324C45.7381 56.58 45.8261 57.62 46.0021 58.444C46.1861 59.268 46.4301 59.924 46.7341 60.412C47.0381 60.9 47.3861 61.244 47.7781 61.444C48.1781 61.636 48.5901 61.732 49.0141 61.732C49.4461 61.732 49.8621 61.636 50.2621 61.444C50.6621 61.244 51.0141 60.9 51.3181 60.412C51.6301 59.924 51.8781 59.268 52.0621 58.444C52.2461 57.62 52.3381 56.58 52.3381 55.324ZM59.228 61.78H62.744V51.664C62.744 51.272 62.756 50.86 62.78 50.428L60.284 52.516C60.18 52.604 60.072 52.664 59.96 52.696C59.856 52.728 59.752 52.744 59.648 52.744C59.488 52.744 59.34 52.712 59.204 52.648C59.076 52.576 58.98 52.496 58.916 52.408L57.98 51.124L63.272 46.624H65.708V61.78H68.828V64H59.228V61.78ZM76.8819 64.192C75.9859 64.192 75.1659 64.072 74.4219 63.832C73.6859 63.592 73.0539 63.252 72.5259 62.812C71.9979 62.372 71.5859 61.84 71.2899 61.216C71.0019 60.592 70.8579 59.896 70.8579 59.128C70.8579 58.104 71.1099 57.24 71.6139 56.536C72.1179 55.824 72.9019 55.296 73.9659 54.952C73.1179 54.6 72.4819 54.1 72.0579 53.452C71.6419 52.804 71.4339 52.024 71.4339 51.112C71.4339 50.456 71.5659 49.844 71.8299 49.276C72.1019 48.708 72.4779 48.216 72.9579 47.8C73.4379 47.376 74.0099 47.048 74.6739 46.816C75.3459 46.576 76.0819 46.456 76.8819 46.456C77.6819 46.456 78.4139 46.576 79.0779 46.816C79.7499 47.048 80.3259 47.376 80.8059 47.8C81.2859 48.216 81.6579 48.708 81.9219 49.276C82.1939 49.844 82.3299 50.456 82.3299 51.112C82.3299 52.024 82.1179 52.804 81.6939 53.452C81.2699 54.1 80.6379 54.6 79.7979 54.952C80.8619 55.296 81.6459 55.824 82.1499 56.536C82.6539 57.24 82.9059 58.104 82.9059 59.128C82.9059 59.896 82.7579 60.592 82.4619 61.216C82.1739 61.84 81.7659 62.372 81.2379 62.812C80.7099 63.252 80.0739 63.592 79.3299 63.832C78.5939 64.072 77.7779 64.192 76.8819 64.192ZM76.8819 61.876C77.3699 61.876 77.7979 61.808 78.1659 61.672C78.5339 61.528 78.8419 61.332 79.0899 61.084C79.3459 60.836 79.5379 60.54 79.6659 60.196C79.7939 59.852 79.8579 59.48 79.8579 59.08C79.8579 58.128 79.5939 57.408 79.0659 56.92C78.5379 56.432 77.8099 56.188 76.8819 56.188C75.9539 56.188 75.2259 56.432 74.6979 56.92C74.1699 57.408 73.9059 58.128 73.9059 59.08C73.9059 59.48 73.9699 59.852 74.0979 60.196C74.2259 60.54 74.4139 60.836 74.6619 61.084C74.9179 61.332 75.2299 61.528 75.5979 61.672C75.9659 61.808 76.3939 61.876 76.8819 61.876ZM76.8819 53.86C77.3619 53.86 77.7659 53.784 78.0939 53.632C78.4219 53.48 78.6859 53.28 78.8859 53.032C79.0859 52.776 79.2259 52.488 79.3059 52.168C79.3939 51.84 79.4379 51.504 79.4379 51.16C79.4379 50.832 79.3859 50.52 79.2819 50.224C79.1779 49.928 79.0219 49.668 78.8139 49.444C78.6059 49.212 78.3419 49.028 78.0219 48.892C77.7019 48.756 77.3219 48.688 76.8819 48.688C76.4419 48.688 76.0619 48.756 75.7419 48.892C75.4219 49.028 75.1539 49.212 74.9379 49.444C74.7299 49.668 74.5739 49.928 74.4699 50.224C74.3739 50.52 74.3259 50.832 74.3259 51.16C74.3259 51.504 74.3659 51.84 74.4459 52.168C74.5339 52.488 74.6779 52.776 74.8779 53.032C75.0779 53.28 75.3419 53.48 75.6699 53.632C75.9979 53.784 76.4019 53.86 76.8819 53.86Z" fill="#2DB3BE"/>
<defs>
<filter id="filter0_d" x="0" y="0" width="114" height="114" filterUnits="userSpaceOnUse" color-interpolation-filters="sRGB">
<feFlood flood-opacity="0" result="BackgroundImageFix"/>
<feColorMatrix in="SourceAlpha" type="matrix" values="0 0 0 0 0 0 0 0 0 0 0 0 0 0 0 0 0 0 127 0"/>
<feOffset dy="4"/>
<feGaussianBlur stdDeviation="2"/>
<feColorMatrix type="matrix" values="0 0 0 0 0 0 0 0 0 0 0 0 0 0 0 0 0 0 0.1 0"/>
<feBlend mode="normal" in2="BackgroundImageFix" result="effect1_dropShadow"/>
<feBlend mode="normal" in="SourceGraphic" in2="effect1_dropShadow" result="shape"/>
</filter>
<filter id="filter1_d" x="3" y="3" width="108" height="108" filterUnits="userSpaceOnUse" color-interpolation-filters="sRGB">
<feFlood flood-opacity="0" result="BackgroundImageFix"/>
<feColorMatrix in="SourceAlpha" type="matrix" values="0 0 0 0 0 0 0 0 0 0 0 0 0 0 0 0 0 0 127 0"/>
<feOffset dy="4"/>
<feGaussianBlur stdDeviation="2"/>
<feColorMatrix type="matrix" values="0 0 0 0 0 0 0 0 0 0 0 0 0 0 0 0 0 0 0.1 0"/>
<feBlend mode="normal" in2="BackgroundImageFix" result="effect1_dropShadow"/>
<feBlend mode="normal" in="SourceGraphic" in2="effect1_dropShadow" result="shape"/>
</filter>
</defs>
</svg>
