<svg width="114" height="114" viewBox="0 0 114 114" fill="none" xmlns="http://www.w3.org/2000/svg">
<g filter="url(#filter0_d)">
<circle cx="57" cy="53" r="53" fill="white"/>
<circle cx="57" cy="53" r="52.5" stroke="white"/>
</g>
<g filter="url(#filter1_d)">
<circle cx="57" cy="53" r="50" fill="white"/>
<circle cx="57" cy="53" r="49.5" stroke="#5DD2D8" stroke-dasharray="3 3"/>
</g>
<circle cx="57" cy="53" r="45.75" stroke="#2DB3BE" stroke-width="0.5"/>
<path d="M35.3803 44.456C36.1803 44.456 36.9123 44.576 37.5763 44.816C38.2403 45.048 38.8083 45.38 39.2803 45.812C39.7523 46.244 40.1203 46.764 40.3843 47.372C40.6483 47.98 40.7803 48.656 40.7803 49.4C40.7803 50.04 40.6843 50.632 40.4922 51.176C40.3082 51.72 40.0563 52.24 39.7363 52.736C39.4243 53.232 39.0563 53.712 38.6323 54.176C38.2083 54.64 37.7643 55.112 37.3003 55.592L33.3883 59.588C33.7723 59.476 34.1483 59.392 34.5163 59.336C34.8843 59.272 35.2363 59.24 35.5723 59.24H40.0243C40.3443 59.24 40.5963 59.332 40.7803 59.516C40.9723 59.692 41.0683 59.928 41.0683 60.224V62H29.1643V61.016C29.1643 60.816 29.2043 60.608 29.2843 60.392C29.3723 60.176 29.5083 59.976 29.6923 59.792L34.9603 54.512C35.4003 54.064 35.7923 53.636 36.1363 53.228C36.4883 52.82 36.7803 52.416 37.0123 52.016C37.2523 51.616 37.4323 51.212 37.5523 50.804C37.6803 50.388 37.7443 49.952 37.7443 49.496C37.7443 49.08 37.6843 48.716 37.5643 48.404C37.4443 48.084 37.2723 47.816 37.0483 47.6C36.8243 47.384 36.5563 47.224 36.2443 47.12C35.9403 47.008 35.5963 46.952 35.2122 46.952C34.5003 46.952 33.9123 47.132 33.4483 47.492C32.9923 47.852 32.6723 48.336 32.4883 48.944C32.4003 49.248 32.2683 49.468 32.0923 49.604C31.9163 49.732 31.6923 49.796 31.4203 49.796C31.3003 49.796 31.1683 49.784 31.0243 49.76L29.4643 49.484C29.5843 48.652 29.8163 47.924 30.1603 47.3C30.5043 46.668 30.9323 46.144 31.4443 45.728C31.9643 45.304 32.5563 44.988 33.2203 44.78C33.8923 44.564 34.6123 44.456 35.3803 44.456ZM55.3981 53.324C55.3981 54.836 55.2341 56.152 54.9061 57.272C54.5861 58.384 54.1381 59.304 53.5621 60.032C52.9941 60.76 52.3181 61.304 51.5341 61.664C50.7581 62.016 49.9181 62.192 49.0141 62.192C48.1101 62.192 47.2701 62.016 46.4941 61.664C45.7261 61.304 45.0581 60.76 44.4901 60.032C43.9221 59.304 43.4781 58.384 43.1581 57.272C42.8381 56.152 42.6781 54.836 42.6781 53.324C42.6781 51.804 42.8381 50.488 43.1581 49.376C43.4781 48.264 43.9221 47.344 44.4901 46.616C45.0581 45.888 45.7261 45.348 46.4941 44.996C47.2701 44.636 48.1101 44.456 49.0141 44.456C49.9181 44.456 50.7581 44.636 51.5341 44.996C52.3181 45.348 52.9941 45.888 53.5621 46.616C54.1381 47.344 54.5861 48.264 54.9061 49.376C55.2341 50.488 55.3981 51.804 55.3981 53.324ZM52.3381 53.324C52.3381 52.068 52.2461 51.028 52.0621 50.204C51.8781 49.38 51.6301 48.724 51.3181 48.236C51.0141 47.748 50.6621 47.408 50.2621 47.216C49.8621 47.016 49.4461 46.916 49.0141 46.916C48.5901 46.916 48.1781 47.016 47.7781 47.216C47.3861 47.408 47.0381 47.748 46.7341 48.236C46.4301 48.724 46.1861 49.38 46.0021 50.204C45.8261 51.028 45.7381 52.068 45.7381 53.324C45.7381 54.58 45.8261 55.62 46.0021 56.444C46.1861 57.268 46.4301 57.924 46.7341 58.412C47.0381 58.9 47.3861 59.244 47.7781 59.444C48.1781 59.636 48.5901 59.732 49.0141 59.732C49.4461 59.732 49.8621 59.636 50.2621 59.444C50.6621 59.244 51.0141 58.9 51.3181 58.412C51.6301 57.924 51.8781 57.268 52.0621 56.444C52.2461 55.62 52.3381 54.58 52.3381 53.324ZM69.32 53.324C69.32 54.836 69.156 56.152 68.828 57.272C68.508 58.384 68.06 59.304 67.484 60.032C66.916 60.76 66.24 61.304 65.456 61.664C64.68 62.016 63.84 62.192 62.936 62.192C62.032 62.192 61.192 62.016 60.416 61.664C59.648 61.304 58.98 60.76 58.412 60.032C57.844 59.304 57.4 58.384 57.08 57.272C56.76 56.152 56.6 54.836 56.6 53.324C56.6 51.804 56.76 50.488 57.08 49.376C57.4 48.264 57.844 47.344 58.412 46.616C58.98 45.888 59.648 45.348 60.416 44.996C61.192 44.636 62.032 44.456 62.936 44.456C63.84 44.456 64.68 44.636 65.456 44.996C66.24 45.348 66.916 45.888 67.484 46.616C68.06 47.344 68.508 48.264 68.828 49.376C69.156 50.488 69.32 51.804 69.32 53.324ZM66.26 53.324C66.26 52.068 66.168 51.028 65.984 50.204C65.8 49.38 65.552 48.724 65.24 48.236C64.936 47.748 64.584 47.408 64.184 47.216C63.784 47.016 63.368 46.916 62.936 46.916C62.512 46.916 62.1 47.016 61.7 47.216C61.308 47.408 60.96 47.748 60.656 48.236C60.352 48.724 60.108 49.38 59.924 50.204C59.748 51.028 59.66 52.068 59.66 53.324C59.66 54.58 59.748 55.62 59.924 56.444C60.108 57.268 60.352 57.924 60.656 58.412C60.96 58.9 61.308 59.244 61.7 59.444C62.1 59.636 62.512 59.732 62.936 59.732C63.368 59.732 63.784 59.636 64.184 59.444C64.584 59.244 64.936 58.9 65.24 58.412C65.552 57.924 65.8 57.268 65.984 56.444C66.168 55.62 66.26 54.58 66.26 53.324ZM83.0739 44.648V45.932C83.0739 46.316 83.0299 46.628 82.9419 46.868C82.8619 47.1 82.7819 47.296 82.7019 47.456L76.1379 60.992C76.0019 61.272 75.8099 61.512 75.5619 61.712C75.3139 61.904 74.9779 62 74.5539 62H72.4059L79.1259 48.74C79.4059 48.196 79.7179 47.728 80.0619 47.336H71.7579C71.5739 47.336 71.4139 47.268 71.2779 47.132C71.1419 46.996 71.0739 46.836 71.0739 46.652V44.648H83.0739Z" fill="#2DB3BE"/>
<defs>
<filter id="filter0_d" x="0" y="0" width="114" height="114" filterUnits="userSpaceOnUse" color-interpolation-filters="sRGB">
<feFlood flood-opacity="0" result="BackgroundImageFix"/>
<feColorMatrix in="SourceAlpha" type="matrix" values="0 0 0 0 0 0 0 0 0 0 0 0 0 0 0 0 0 0 127 0"/>
<feOffset dy="4"/>
<feGaussianBlur stdDeviation="2"/>
<feColorMatrix type="matrix" values="0 0 0 0 0 0 0 0 0 0 0 0 0 0 0 0 0 0 0.1 0"/>
<feBlend mode="normal" in2="BackgroundImageFix" result="effect1_dropShadow"/>
<feBlend mode="normal" in="SourceGraphic" in2="effect1_dropShadow" result="shape"/>
</filter>
<filter id="filter1_d" x="3" y="3" width="108" height="108" filterUnits="userSpaceOnUse" color-interpolation-filters="sRGB">
<feFlood flood-opacity="0" result="BackgroundImageFix"/>
<feColorMatrix in="SourceAlpha" type="matrix" values="0 0 0 0 0 0 0 0 0 0 0 0 0 0 0 0 0 0 127 0"/>
<feOffset dy="4"/>
<feGaussianBlur stdDeviation="2"/>
<feColorMatrix type="matrix" values="0 0 0 0 0 0 0 0 0 0 0 0 0 0 0 0 0 0 0.1 0"/>
<feBlend mode="normal" in2="BackgroundImageFix" result="effect1_dropShadow"/>
<feBlend mode="normal" in="SourceGraphic" in2="effect1_dropShadow" result="shape"/>
</filter>
</defs>
</svg>
