<svg width="372" height="250" viewBox="0 0 372 250" fill="none" xmlns="http://www.w3.org/2000/svg">
<rect width="372" height="250" fill="white"/>
<path d="M110.5 211C158.273 211 197 172.273 197 124.5C197 76.7273 158.273 38 110.5 38C62.7274 38 24 76.7273 24 124.5C24 172.273 62.7274 211 110.5 211Z" stroke="#EFC9C3" stroke-width="10.603"/>
<path d="M147.27 83.5322C139.25 71.0693 125.183 62.8018 109.141 62.8018C84.092 62.8018 63.8552 83.0386 63.8552 108.088C63.8552 133.137 84.092 153.374 109.141 153.374C119.383 153.374 128.884 149.919 136.412 144.243C125.183 149.302 109.018 143.132 98.5293 129.065C86.8067 113.394 86.4365 94.0207 97.6655 85.6299C107.414 78.3495 122.591 81.8046 134.067 93.0336C135.178 91.4294 137.152 89.4552 140.607 87.2341C143.568 85.3831 145.666 84.2726 147.27 83.5322Z" fill="#B61D22"/>
<path d="M147.643 183.36H146.902V175.71H147.643V177.067C148.26 176.08 149.123 175.586 150.234 175.586C151.344 175.586 152.085 175.833 152.578 176.45C153.072 177.067 153.442 177.807 153.442 178.918V183.36H152.702V179.165C152.702 177.19 151.838 176.203 150.11 176.203C149 176.203 148.136 176.82 147.643 178.177V183.36ZM142.46 183.113C142.954 182.866 143.324 182.62 143.694 182.25C144.064 181.879 144.311 181.509 144.558 181.016C144.804 180.522 144.804 180.028 144.804 179.535C144.804 179.041 144.681 178.424 144.558 178.054C144.311 177.56 144.064 177.19 143.694 176.82C143.324 176.45 142.954 176.203 142.46 175.956C141.966 175.71 141.473 175.586 140.856 175.586C140.239 175.586 139.745 175.71 139.252 175.956C138.758 176.203 138.388 176.45 138.018 176.82C137.648 177.19 137.401 177.56 137.154 178.054C136.907 178.548 136.907 179.041 136.907 179.535C136.907 180.028 137.031 180.645 137.154 181.016C137.401 181.509 137.648 181.879 138.018 182.25C138.388 182.62 138.758 182.866 139.252 183.113C139.745 183.36 140.239 183.483 140.856 183.483C141.473 183.483 141.966 183.36 142.46 183.113ZM139.745 182.496C139.375 182.373 139.005 182.126 138.758 181.756C138.511 181.509 138.265 181.139 138.141 180.645C138.018 180.275 137.894 179.782 137.894 179.288C137.894 178.794 138.018 178.424 138.141 178.054C138.265 177.684 138.511 177.314 138.758 177.067C139.005 176.82 139.375 176.573 139.745 176.327C140.115 176.203 140.609 176.08 140.979 176.08C141.473 176.08 141.843 176.203 142.213 176.327C142.583 176.45 142.954 176.697 143.2 177.067C143.447 177.314 143.694 177.684 143.817 178.177C143.941 178.548 144.064 179.041 144.064 179.535C144.064 180.028 143.941 180.399 143.817 180.769C143.694 181.139 143.447 181.509 143.2 181.756C142.954 182.003 142.583 182.249 142.213 182.496C141.843 182.62 141.349 182.743 140.979 182.743C140.486 182.743 140.115 182.743 139.745 182.496ZM134.933 183.36H134.192V175.71H134.933V177.19V183.36ZM134.069 174.599H135.056V173.365H134.069V174.599ZM131.971 176.327L131.601 176.203C131.354 176.08 131.108 175.956 130.737 175.833C130.367 175.71 129.997 175.586 129.627 175.586C129.01 175.463 128.393 175.586 127.899 175.833C127.406 176.08 127.036 176.573 126.789 177.067C126.665 177.684 126.665 178.177 127.036 178.671C127.406 179.165 127.899 179.411 128.64 179.658C129.133 179.782 129.627 179.905 129.997 180.028C130.367 180.152 130.614 180.275 130.984 180.522C131.231 180.769 131.354 181.016 131.354 181.262C131.354 181.756 131.231 182.126 130.861 182.373C130.491 182.62 130.12 182.867 129.38 182.867C129.01 182.867 128.516 182.743 128.023 182.62C127.529 182.496 127.282 182.249 127.036 182.126C126.912 182.003 126.665 181.879 126.665 181.879L126.295 182.496C126.419 182.62 126.665 182.866 127.159 182.99C127.529 183.113 128.023 183.36 128.516 183.36C129.01 183.483 129.503 183.483 129.997 183.36C130.491 183.36 130.984 183.113 131.354 182.743C131.725 182.373 131.971 181.879 131.971 181.262C131.971 180.769 131.971 180.399 131.725 180.028C131.478 179.658 131.108 179.411 130.737 179.288C130.367 179.165 129.874 178.918 129.38 178.794C128.886 178.671 128.516 178.548 128.146 178.301C127.776 178.177 127.529 177.931 127.406 177.684C127.282 177.437 127.282 177.067 127.529 176.697C127.776 176.327 128.023 176.203 128.393 176.08C128.763 175.956 129.133 175.956 129.38 175.956C129.75 175.956 129.997 176.08 130.367 176.203C130.737 176.327 130.984 176.45 131.108 176.45C131.231 176.45 131.354 176.573 131.354 176.573L131.971 176.327ZM125.061 176.327L124.691 176.203C124.444 176.08 124.197 175.956 123.827 175.833C123.457 175.71 123.087 175.586 122.717 175.586C122.1 175.463 121.483 175.586 120.989 175.833C120.496 176.08 120.125 176.573 119.879 177.067C119.755 177.684 119.755 178.177 120.125 178.671C120.496 179.165 120.989 179.411 121.73 179.658C122.223 179.782 122.717 179.905 123.087 180.028C123.457 180.152 123.704 180.275 124.074 180.522C124.321 180.769 124.444 181.016 124.444 181.262C124.444 181.756 124.321 182.126 123.951 182.373C123.58 182.62 123.21 182.867 122.47 182.867C122.1 182.867 121.606 182.743 121.113 182.62C120.619 182.496 120.372 182.249 120.125 182.126C120.002 182.003 119.755 181.879 119.755 181.879L119.385 182.496C119.508 182.62 119.755 182.866 120.249 182.99C120.742 183.113 121.113 183.36 121.606 183.36C122.1 183.483 122.593 183.483 123.087 183.36C123.58 183.36 124.074 183.113 124.444 182.743C124.814 182.373 125.061 181.879 125.061 181.262C125.061 180.769 125.061 180.399 124.814 180.028C124.568 179.658 124.197 179.411 123.827 179.288C123.457 179.165 122.964 178.918 122.47 178.794C121.976 178.671 121.606 178.548 121.236 178.301C120.866 178.177 120.619 177.931 120.496 177.684C120.372 177.437 120.372 177.067 120.619 176.697C120.866 176.327 121.113 176.203 121.483 176.08C121.853 175.956 122.223 175.956 122.47 175.956C122.84 175.956 123.087 176.08 123.457 176.203C123.827 176.327 124.074 176.45 124.197 176.45C124.321 176.573 124.444 176.573 124.444 176.573L125.061 176.327ZM112.598 182.496C112.228 182.373 111.858 182.126 111.611 181.756C111.364 181.509 111.118 181.139 110.994 180.645C110.871 180.275 110.747 179.782 110.747 179.288C110.747 178.794 110.871 178.424 110.994 178.054C111.118 177.684 111.364 177.314 111.611 177.067C111.858 176.82 112.228 176.573 112.598 176.327C112.969 176.203 113.462 176.08 113.832 176.08C114.326 176.08 114.696 176.203 115.066 176.327C115.436 176.45 115.807 176.697 116.053 177.067C116.3 177.314 116.547 177.684 116.67 178.177C116.794 178.548 116.917 179.041 116.917 179.535C116.917 180.028 116.794 180.399 116.67 180.769C116.547 181.139 116.3 181.509 116.053 181.756C115.807 182.003 115.436 182.249 115.066 182.496C114.696 182.62 114.202 182.743 113.832 182.743C113.339 182.743 112.969 182.743 112.598 182.496ZM116.547 182.25C116.67 182.126 116.794 182.003 116.917 181.879V183.36H117.658V175.71H116.917V177.067C116.794 176.944 116.67 176.82 116.547 176.697C116.177 176.327 115.807 176.08 115.313 175.833C114.819 175.586 114.326 175.463 113.709 175.463C113.092 175.463 112.598 175.586 112.105 175.833C111.611 176.08 111.241 176.327 110.871 176.697C110.501 177.067 110.254 177.437 110.007 177.931C109.76 178.424 109.76 178.918 109.76 179.411C109.76 179.905 109.884 180.522 110.007 180.892C110.254 181.386 110.501 181.756 110.871 182.126C111.241 182.496 111.611 182.743 112.105 182.99C112.598 183.237 113.092 183.36 113.709 183.36C114.326 183.36 114.819 183.237 115.313 182.99C115.807 182.99 116.3 182.62 116.547 182.25ZM100.382 175.71H101.123V177.314C101.369 176.944 101.863 176.45 102.48 176.08C103.097 175.71 103.714 175.463 104.207 175.463C104.578 175.463 105.071 175.586 105.441 175.71C105.812 175.833 106.305 176.08 106.552 176.327C106.922 176.573 107.169 176.944 107.539 177.437C107.786 177.931 107.909 178.424 108.033 178.918C108.156 180.152 107.786 181.139 107.169 182.003C106.429 182.867 105.565 183.36 104.454 183.36C104.084 183.36 103.59 183.237 103.22 183.113C102.85 182.99 102.48 182.743 102.233 182.62C101.986 182.373 101.74 182.25 101.616 182.003C101.493 181.879 101.369 181.633 101.246 181.509V185.458H100.506V175.71H100.382ZM101.123 180.892C101.123 180.892 101.123 181.016 101.246 181.139C101.369 181.262 101.369 181.386 101.493 181.509C101.616 181.633 101.74 181.756 101.863 181.879C101.986 182.003 102.233 182.126 102.48 182.25C102.727 182.373 102.973 182.496 103.344 182.496C103.714 182.62 104.084 182.62 104.454 182.62C105.071 182.62 105.688 182.373 106.058 182.003C106.552 181.633 106.799 181.139 107.046 180.522C107.169 179.905 107.292 179.288 107.169 178.671C107.046 178.054 106.922 177.437 106.552 177.067C106.058 176.45 105.441 176.203 104.824 175.956C104.084 175.833 103.467 175.833 102.727 176.203C102.11 176.45 101.616 176.943 101.246 177.56V179.041V180.892H101.123ZM87.3023 183.36H86.5619V175.71H87.3023V177.067C87.9193 176.08 88.783 175.586 89.8936 175.586C90.634 175.586 91.1276 175.71 91.6211 176.08C91.9913 176.45 92.3615 176.82 92.6083 177.437C92.7317 177.314 92.7317 177.067 92.8551 176.943C92.9785 176.82 93.1019 176.573 93.3487 176.327C93.5955 176.08 93.8422 175.956 94.2124 175.71C94.5826 175.586 94.9528 175.463 95.323 175.463C95.8166 175.463 96.3101 175.586 96.6803 175.71C97.0505 175.956 97.4207 176.203 97.5441 176.45C97.7909 176.82 97.9143 177.19 98.0377 177.56C98.1611 177.931 98.1611 178.301 98.1611 178.794V183.237H97.4207V179.041V178.918C97.4207 178.794 97.4207 178.671 97.4207 178.548C97.4207 178.424 97.4207 178.178 97.2973 177.931C97.2973 177.684 97.1739 177.561 97.0505 177.314C96.9271 177.067 96.8037 176.944 96.6803 176.697C96.5569 176.573 96.3101 176.327 96.0634 176.327C95.8166 176.203 95.4464 176.203 95.1996 176.203C93.9656 176.203 93.2253 176.944 92.7317 178.301C92.7317 178.548 92.7317 178.671 92.7317 178.918V183.36H91.9913V179.165V179.041C91.9913 178.918 91.9913 178.794 91.9913 178.671C91.9913 178.548 91.9913 178.301 91.8679 178.054C91.8679 177.807 91.7445 177.684 91.6211 177.437C91.4977 177.19 91.3743 177.067 91.251 176.82C91.1276 176.697 90.8808 176.45 90.634 176.45C90.3872 176.327 90.017 176.327 89.7702 176.327C88.6597 176.327 87.7959 176.944 87.3023 178.301V183.36ZM82.1197 183.113C82.6133 182.866 82.9835 182.62 83.3537 182.25C83.7239 181.879 83.9706 181.509 84.2174 181.016C84.4642 180.522 84.4642 180.028 84.4642 179.535C84.4642 179.041 84.3408 178.424 84.2174 178.054C83.9706 177.56 83.7239 177.19 83.3537 176.82C82.9835 176.45 82.6133 176.203 82.1197 175.956C81.6261 175.71 81.1326 175.586 80.5156 175.586C79.8986 175.586 79.405 175.71 78.9114 175.956C78.4179 176.203 78.0477 176.45 77.6775 176.82C77.3073 177.19 77.0605 177.56 76.8137 178.054C76.5669 178.548 76.5669 179.041 76.5669 179.535C76.5669 180.028 76.6903 180.645 76.8137 181.016C77.0605 181.509 77.3073 181.879 77.6775 182.25C78.0477 182.62 78.4179 182.866 78.9114 183.113C79.405 183.36 79.8986 183.483 80.5156 183.483C81.1326 183.483 81.6261 183.36 82.1197 183.113ZM79.2816 182.496C78.9114 182.373 78.5413 182.126 78.2945 181.756C78.0477 181.509 77.8009 181.139 77.6775 180.645C77.5541 180.275 77.4307 179.782 77.4307 179.288C77.4307 178.794 77.5541 178.424 77.6775 178.054C77.8009 177.684 78.0477 177.314 78.2945 177.067C78.5413 176.82 78.9114 176.573 79.2816 176.327C79.6518 176.203 80.1454 176.08 80.5156 176.08C81.0092 176.08 81.3793 176.203 81.7495 176.327C82.1197 176.45 82.4899 176.697 82.7367 177.067C82.9835 177.314 83.2303 177.684 83.3537 178.177C83.4771 178.671 83.6005 179.041 83.6005 179.535C83.6005 180.028 83.4771 180.399 83.3537 180.769C83.2303 181.139 82.9835 181.509 82.7367 181.756C82.4899 182.003 82.1197 182.249 81.7495 182.496C81.3793 182.743 80.8858 182.743 80.5156 182.743C80.1454 182.743 79.6518 182.743 79.2816 182.496ZM75.0862 174.229V175.463C74.9628 175.216 74.716 174.969 74.4692 174.722C74.2224 174.476 73.8522 174.229 73.4821 173.982C73.3587 173.859 73.1119 173.859 72.9885 173.735C72.4949 173.488 71.8779 173.365 71.1375 173.365C70.5206 173.365 69.9036 173.488 69.2866 173.735C68.793 173.982 68.2995 174.352 67.9293 174.722C67.5591 175.093 67.1889 175.586 67.0655 176.203C66.8187 176.82 66.6953 177.437 66.6953 178.054C66.6953 178.671 66.8187 179.288 67.0655 179.905C67.3123 180.522 67.5591 181.016 68.0527 181.386C68.4228 181.756 68.9164 182.126 69.41 182.373C69.9036 182.62 70.5206 182.743 71.2609 182.743C71.8779 182.743 72.4949 182.62 72.9885 182.373C73.1119 182.25 73.3587 182.249 73.4821 182.126C73.8522 181.879 74.099 181.633 74.4692 181.386C74.716 181.139 74.8394 180.892 74.9628 180.645V181.879C74.5926 182.373 74.099 182.62 73.4821 182.99H73.3587C72.7417 183.237 72.0013 183.483 71.1375 183.483C70.3972 183.483 69.6568 183.36 68.9164 182.99C68.2994 182.743 67.6825 182.25 67.3123 181.756C66.8187 181.262 66.4485 180.645 66.2017 180.028C65.9549 179.411 65.8315 178.671 65.8315 177.931C65.8315 177.19 65.9549 176.573 66.2017 175.833C66.4485 175.216 66.8187 174.599 67.3123 174.105C67.8059 173.612 68.2994 173.242 68.9164 172.871C69.5334 172.625 70.2738 172.378 71.1375 172.378C71.8779 172.378 72.6183 172.501 73.3587 172.871H73.4821C74.099 173.365 74.5926 173.735 75.0862 174.229Z" fill="#D2232A"/>
<path d="M147.643 183.36H146.902V175.71H147.643V177.067C148.26 176.08 149.123 175.586 150.234 175.586C151.344 175.586 152.085 175.833 152.578 176.45C153.072 177.067 153.442 177.807 153.442 178.918V183.36H152.702V179.165C152.702 177.19 151.838 176.203 150.11 176.203C149 176.203 148.136 176.82 147.643 178.177V183.36ZM142.46 183.113C142.954 182.866 143.324 182.62 143.694 182.25C144.064 181.879 144.311 181.509 144.558 181.016C144.804 180.522 144.804 180.028 144.804 179.535C144.804 179.041 144.681 178.424 144.558 178.054C144.311 177.56 144.064 177.19 143.694 176.82C143.324 176.45 142.954 176.203 142.46 175.956C141.966 175.71 141.473 175.586 140.856 175.586C140.239 175.586 139.745 175.71 139.252 175.956C138.758 176.203 138.388 176.45 138.018 176.82C137.648 177.19 137.401 177.56 137.154 178.054C136.907 178.548 136.907 179.041 136.907 179.535C136.907 180.028 137.031 180.645 137.154 181.016C137.401 181.509 137.648 181.879 138.018 182.25C138.388 182.62 138.758 182.866 139.252 183.113C139.745 183.36 140.239 183.483 140.856 183.483C141.473 183.483 141.966 183.36 142.46 183.113ZM139.745 182.496C139.375 182.373 139.005 182.126 138.758 181.756C138.511 181.509 138.265 181.139 138.141 180.645C138.018 180.275 137.894 179.782 137.894 179.288C137.894 178.794 138.018 178.424 138.141 178.054C138.265 177.684 138.511 177.314 138.758 177.067C139.005 176.82 139.375 176.573 139.745 176.327C140.115 176.203 140.609 176.08 140.979 176.08C141.473 176.08 141.843 176.203 142.213 176.327C142.583 176.45 142.954 176.697 143.2 177.067C143.447 177.314 143.694 177.684 143.817 178.177C143.941 178.548 144.064 179.041 144.064 179.535C144.064 180.028 143.941 180.399 143.817 180.769C143.694 181.139 143.447 181.509 143.2 181.756C142.954 182.003 142.583 182.249 142.213 182.496C141.843 182.62 141.349 182.743 140.979 182.743C140.486 182.743 140.115 182.743 139.745 182.496ZM134.933 183.36H134.192V175.71H134.933V177.19V183.36ZM134.069 174.599H135.056V173.365H134.069V174.599ZM131.971 176.327L131.601 176.203C131.354 176.08 131.108 175.956 130.737 175.833C130.367 175.71 129.997 175.586 129.627 175.586C129.01 175.463 128.393 175.586 127.899 175.833C127.406 176.08 127.036 176.573 126.789 177.067C126.665 177.684 126.665 178.177 127.036 178.671C127.406 179.165 127.899 179.411 128.64 179.658C129.133 179.782 129.627 179.905 129.997 180.028C130.367 180.152 130.614 180.275 130.984 180.522C131.231 180.769 131.354 181.016 131.354 181.262C131.354 181.756 131.231 182.126 130.861 182.373C130.491 182.62 130.12 182.867 129.38 182.867C129.01 182.867 128.516 182.743 128.023 182.62C127.529 182.496 127.282 182.249 127.036 182.126C126.912 182.003 126.665 181.879 126.665 181.879L126.295 182.496C126.419 182.62 126.665 182.866 127.159 182.99C127.529 183.113 128.023 183.36 128.516 183.36C129.01 183.483 129.503 183.483 129.997 183.36C130.491 183.36 130.984 183.113 131.354 182.743C131.725 182.373 131.971 181.879 131.971 181.262C131.971 180.769 131.971 180.399 131.725 180.028C131.478 179.658 131.108 179.411 130.737 179.288C130.367 179.165 129.874 178.918 129.38 178.794C128.886 178.671 128.516 178.548 128.146 178.301C127.776 178.177 127.529 177.931 127.406 177.684C127.282 177.437 127.282 177.067 127.529 176.697C127.776 176.327 128.023 176.203 128.393 176.08C128.763 175.956 129.133 175.956 129.38 175.956C129.75 175.956 129.997 176.08 130.367 176.203C130.737 176.327 130.984 176.45 131.108 176.45C131.231 176.45 131.354 176.573 131.354 176.573L131.971 176.327ZM125.061 176.327L124.691 176.203C124.444 176.08 124.197 175.956 123.827 175.833C123.457 175.71 123.087 175.586 122.717 175.586C122.1 175.463 121.483 175.586 120.989 175.833C120.496 176.08 120.125 176.573 119.879 177.067C119.755 177.684 119.755 178.177 120.125 178.671C120.496 179.165 120.989 179.411 121.73 179.658C122.223 179.782 122.717 179.905 123.087 180.028C123.457 180.152 123.704 180.275 124.074 180.522C124.321 180.769 124.444 181.016 124.444 181.262C124.444 181.756 124.321 182.126 123.951 182.373C123.58 182.62 123.21 182.867 122.47 182.867C122.1 182.867 121.606 182.743 121.113 182.62C120.619 182.496 120.372 182.249 120.125 182.126C120.002 182.003 119.755 181.879 119.755 181.879L119.385 182.496C119.508 182.62 119.755 182.866 120.249 182.99C120.742 183.113 121.113 183.36 121.606 183.36C122.1 183.483 122.593 183.483 123.087 183.36C123.58 183.36 124.074 183.113 124.444 182.743C124.814 182.373 125.061 181.879 125.061 181.262C125.061 180.769 125.061 180.399 124.814 180.028C124.568 179.658 124.197 179.411 123.827 179.288C123.457 179.165 122.964 178.918 122.47 178.794C121.976 178.671 121.606 178.548 121.236 178.301C120.866 178.177 120.619 177.931 120.496 177.684C120.372 177.437 120.372 177.067 120.619 176.697C120.866 176.327 121.113 176.203 121.483 176.08C121.853 175.956 122.223 175.956 122.47 175.956C122.84 175.956 123.087 176.08 123.457 176.203C123.827 176.327 124.074 176.45 124.197 176.45C124.321 176.573 124.444 176.573 124.444 176.573L125.061 176.327ZM112.598 182.496C112.228 182.373 111.858 182.126 111.611 181.756C111.364 181.509 111.118 181.139 110.994 180.645C110.871 180.275 110.747 179.782 110.747 179.288C110.747 178.794 110.871 178.424 110.994 178.054C111.118 177.684 111.364 177.314 111.611 177.067C111.858 176.82 112.228 176.573 112.598 176.327C112.969 176.203 113.462 176.08 113.832 176.08C114.326 176.08 114.696 176.203 115.066 176.327C115.436 176.45 115.807 176.697 116.053 177.067C116.3 177.314 116.547 177.684 116.67 178.177C116.794 178.548 116.917 179.041 116.917 179.535C116.917 180.028 116.794 180.399 116.67 180.769C116.547 181.139 116.3 181.509 116.053 181.756C115.807 182.003 115.436 182.249 115.066 182.496C114.696 182.62 114.202 182.743 113.832 182.743C113.339 182.743 112.969 182.743 112.598 182.496ZM116.547 182.25C116.67 182.126 116.794 182.003 116.917 181.879V183.36H117.658V175.71H116.917V177.067C116.794 176.944 116.67 176.82 116.547 176.697C116.177 176.327 115.807 176.08 115.313 175.833C114.819 175.586 114.326 175.463 113.709 175.463C113.092 175.463 112.598 175.586 112.105 175.833C111.611 176.08 111.241 176.327 110.871 176.697C110.501 177.067 110.254 177.437 110.007 177.931C109.76 178.424 109.76 178.918 109.76 179.411C109.76 179.905 109.884 180.522 110.007 180.892C110.254 181.386 110.501 181.756 110.871 182.126C111.241 182.496 111.611 182.743 112.105 182.99C112.598 183.237 113.092 183.36 113.709 183.36C114.326 183.36 114.819 183.237 115.313 182.99C115.807 182.99 116.3 182.62 116.547 182.25ZM100.382 175.71H101.123V177.314C101.369 176.944 101.863 176.45 102.48 176.08C103.097 175.71 103.714 175.463 104.207 175.463C104.578 175.463 105.071 175.586 105.441 175.71C105.812 175.833 106.305 176.08 106.552 176.327C106.922 176.573 107.169 176.944 107.539 177.437C107.786 177.931 107.909 178.424 108.033 178.918C108.156 180.152 107.786 181.139 107.169 182.003C106.429 182.867 105.565 183.36 104.454 183.36C104.084 183.36 103.59 183.237 103.22 183.113C102.85 182.99 102.48 182.743 102.233 182.62C101.986 182.373 101.74 182.25 101.616 182.003C101.493 181.879 101.369 181.633 101.246 181.509V185.458H100.506V175.71H100.382ZM101.123 180.892C101.123 180.892 101.123 181.016 101.246 181.139C101.369 181.262 101.369 181.386 101.493 181.509C101.616 181.633 101.74 181.756 101.863 181.879C101.986 182.003 102.233 182.126 102.48 182.25C102.727 182.373 102.973 182.496 103.344 182.496C103.714 182.62 104.084 182.62 104.454 182.62C105.071 182.62 105.688 182.373 106.058 182.003C106.552 181.633 106.799 181.139 107.046 180.522C107.169 179.905 107.292 179.288 107.169 178.671C107.046 178.054 106.922 177.437 106.552 177.067C106.058 176.45 105.441 176.203 104.824 175.956C104.084 175.833 103.467 175.833 102.727 176.203C102.11 176.45 101.616 176.943 101.246 177.56V179.041V180.892H101.123ZM87.3023 183.36H86.5619V175.71H87.3023V177.067C87.9193 176.08 88.783 175.586 89.8936 175.586C90.634 175.586 91.1276 175.71 91.6211 176.08C91.9913 176.45 92.3615 176.82 92.6083 177.437C92.7317 177.314 92.7317 177.067 92.8551 176.943C92.9785 176.82 93.1019 176.573 93.3487 176.327C93.5955 176.08 93.8422 175.956 94.2124 175.71C94.5826 175.586 94.9528 175.463 95.323 175.463C95.8166 175.463 96.3101 175.586 96.6803 175.71C97.0505 175.956 97.4207 176.203 97.5441 176.45C97.7909 176.82 97.9143 177.19 98.0377 177.56C98.1611 177.931 98.1611 178.301 98.1611 178.794V183.237H97.4207V179.041V178.918C97.4207 178.794 97.4207 178.671 97.4207 178.548C97.4207 178.424 97.4207 178.178 97.2973 177.931C97.2973 177.684 97.1739 177.561 97.0505 177.314C96.9271 177.067 96.8037 176.944 96.6803 176.697C96.5569 176.573 96.3101 176.327 96.0634 176.327C95.8166 176.203 95.4464 176.203 95.1996 176.203C93.9656 176.203 93.2253 176.944 92.7317 178.301C92.7317 178.548 92.7317 178.671 92.7317 178.918V183.36H91.9913V179.165V179.041C91.9913 178.918 91.9913 178.794 91.9913 178.671C91.9913 178.548 91.9913 178.301 91.8679 178.054C91.8679 177.807 91.7445 177.684 91.6211 177.437C91.4977 177.19 91.3743 177.067 91.251 176.82C91.1276 176.697 90.8808 176.45 90.634 176.45C90.3872 176.327 90.017 176.327 89.7702 176.327C88.6597 176.327 87.7959 176.944 87.3023 178.301V183.36V183.36ZM82.1197 183.113C82.6133 182.866 82.9835 182.62 83.3537 182.25C83.7239 181.879 83.9706 181.509 84.2174 181.016C84.4642 180.522 84.4642 180.028 84.4642 179.535C84.4642 179.041 84.3408 178.424 84.2174 178.054C83.9706 177.56 83.7239 177.19 83.3537 176.82C82.9835 176.45 82.6133 176.203 82.1197 175.956C81.6261 175.71 81.1326 175.586 80.5156 175.586C79.8986 175.586 79.405 175.71 78.9114 175.956C78.4179 176.203 78.0477 176.45 77.6775 176.82C77.3073 177.19 77.0605 177.56 76.8137 178.054C76.5669 178.548 76.5669 179.041 76.5669 179.535C76.5669 180.028 76.6903 180.645 76.8137 181.016C77.0605 181.509 77.3073 181.879 77.6775 182.25C78.0477 182.62 78.4179 182.866 78.9114 183.113C79.405 183.36 79.8986 183.483 80.5156 183.483C81.1326 183.483 81.6261 183.36 82.1197 183.113ZM79.2816 182.496C78.9114 182.373 78.5413 182.126 78.2945 181.756C78.0477 181.509 77.8009 181.139 77.6775 180.645C77.5541 180.275 77.4307 179.782 77.4307 179.288C77.4307 178.794 77.5541 178.424 77.6775 178.054C77.8009 177.684 78.0477 177.314 78.2945 177.067C78.5413 176.82 78.9114 176.573 79.2816 176.327C79.6518 176.203 80.1454 176.08 80.5156 176.08C81.0092 176.08 81.3793 176.203 81.7495 176.327C82.1197 176.45 82.4899 176.697 82.7367 177.067C82.9835 177.314 83.2303 177.684 83.3537 178.177C83.4771 178.671 83.6005 179.041 83.6005 179.535C83.6005 180.028 83.4771 180.399 83.3537 180.769C83.2303 181.139 82.9835 181.509 82.7367 181.756C82.4899 182.003 82.1197 182.249 81.7495 182.496C81.3793 182.743 80.8858 182.743 80.5156 182.743C80.1454 182.743 79.6518 182.743 79.2816 182.496ZM75.0862 174.229V175.463C74.9628 175.216 74.716 174.969 74.4692 174.722C74.2224 174.476 73.8522 174.229 73.4821 173.982C73.3587 173.859 73.1119 173.859 72.9885 173.735C72.4949 173.488 71.8779 173.365 71.1375 173.365C70.5206 173.365 69.9036 173.488 69.2866 173.735C68.793 173.982 68.2995 174.352 67.9293 174.722C67.5591 175.093 67.1889 175.586 67.0655 176.203C66.8187 176.82 66.6953 177.437 66.6953 178.054C66.6953 178.671 66.8187 179.288 67.0655 179.905C67.3123 180.522 67.5591 181.016 68.0527 181.386C68.4228 181.756 68.9164 182.126 69.41 182.373C69.9036 182.62 70.5206 182.743 71.2609 182.743C71.8779 182.743 72.4949 182.62 72.9885 182.373C73.1119 182.25 73.3587 182.249 73.4821 182.126C73.8522 181.879 74.099 181.633 74.4692 181.386C74.716 181.139 74.8394 180.892 74.9628 180.645V181.879C74.5926 182.373 74.099 182.62 73.4821 182.99H73.3587C72.7417 183.237 72.0013 183.483 71.1375 183.483C70.3972 183.483 69.6568 183.36 68.9164 182.99C68.2994 182.743 67.6825 182.25 67.3123 181.756C66.8187 181.262 66.4485 180.645 66.2017 180.028C65.9549 179.411 65.8315 178.671 65.8315 177.931C65.8315 177.19 65.9549 176.573 66.2017 175.833C66.4485 175.216 66.8187 174.599 67.3123 174.105C67.8059 173.612 68.2994 173.242 68.9164 172.871C69.5334 172.625 70.2738 172.378 71.1375 172.378C71.8779 172.378 72.6183 172.501 73.3587 172.871H73.4821C74.099 173.365 74.5926 173.735 75.0862 174.229Z" stroke="#D2232A" stroke-width="0.76" stroke-miterlimit="1.404"/>
<path d="M295.94 172.469C295.94 172.469 292.415 173.456 292.274 176.135C292.133 178.815 295.517 181.071 296.927 181.917C298.479 182.763 306.234 186.147 315.4 181.917C316.951 181.071 320.195 179.238 320.054 176.135C319.913 170.918 313.285 169.79 313.285 169.79C313.285 169.79 313.285 164.995 306.798 165.136C301.299 165.277 300.735 169.226 300.735 169.226C300.735 169.226 298.479 168.098 296.645 169.649C294.953 170.918 295.94 172.469 295.94 172.469Z" fill="#BCE6FB"/>
<path d="M249.124 116.769C249.124 116.769 252.649 117.756 252.79 120.435C252.931 122.268 253.354 124.102 247.996 123.961C246.304 123.961 244.47 122.409 243.765 122.832C240.663 124.948 240.24 124.948 240.24 124.948C240.24 124.948 236.997 126.499 233.471 123.961C232.625 123.397 233.33 126.217 229.664 126.217C226.139 126.217 224.869 123.538 225.01 120.435C225.151 115.218 231.779 114.09 231.779 114.09C231.779 114.09 231.779 109.295 238.266 109.436C243.765 109.577 244.329 113.526 244.329 113.526C244.329 113.526 246.586 112.397 248.419 113.949C249.97 115.218 249.124 116.769 249.124 116.769Z" fill="#BCE6FB"/>
<path d="M295.377 141.164C295.377 140.177 295.236 139.331 295.095 138.485C293.825 138.061 292.133 137.779 290.864 137.921C289.595 138.062 285.224 139.049 287.48 141.023C288.467 141.869 290.864 142.01 291.992 142.01C293.12 141.728 294.107 141.446 295.377 141.164ZM300.876 136.51C301.44 136.087 303.273 135.1 302.427 134.113C301.722 133.267 300.453 133.831 299.748 134.536C299.043 135.382 298.62 136.51 298.338 137.215C299.184 137.215 300.03 137.074 300.876 136.51ZM287.903 160.765C290.3 156.675 292.415 154.278 294.107 148.92C294.953 146.522 295.377 144.83 295.518 142.856C293.684 143.561 291.569 143.42 289.736 143.138C288.044 142.715 285.506 141.869 285.224 139.895C284.941 137.779 287.48 136.933 289.172 136.51C291.146 135.946 293.261 136.087 295.095 136.792C294.53 134.536 293.402 131.998 291.851 129.46C291.005 130.024 293.684 127.908 292.697 128.473C294.671 130.306 296.082 132.703 297.21 135.241C297.633 133.972 298.338 132.703 299.607 132.139C300.876 131.575 302.709 131.857 303.696 133.126C304.824 134.536 304.119 136.228 302.85 137.074C301.44 138.202 299.889 138.626 298.338 138.767C298.902 141.728 298.902 145.112 298.197 147.932C296.646 152.727 294.53 156.111 291.005 162.88C287.621 169.508 287.762 172.892 286.916 178.815C287.057 180.366 284.8 180.507 284.236 179.238C283.249 175.148 285.365 164.854 287.903 160.765Z" fill="#D2232A"/>
<path d="M289.031 122.973L292.556 123.396L296.363 127.909L291.428 130.447H288.89L289.031 122.973Z" fill="#B9D658"/>
<path d="M309.901 74.7471C312.862 78.6955 314.977 80.1057 313.567 91.2458C312.721 97.7324 303.696 110.283 299.184 113.667C291.992 119.308 294.389 121.564 294.389 124.102C294.389 126.64 292.415 124.102 288.326 122.692C284.236 121.141 276.903 122.41 269.994 120.013C263.084 117.615 247.008 112.116 243.342 101.399C240.381 92.938 238.548 81.7979 251.803 71.7859C256.315 68.4015 269.007 69.9527 274.083 73.619C279.301 77.4264 282.967 85.3232 283.672 87.1564C284.377 88.9896 283.954 82.3619 284.8 78.9775C285.646 75.7342 288.89 70.2347 293.261 69.2476C297.632 68.2605 302.85 69.1066 304.119 70.0937C305.529 70.9398 307.08 70.7987 309.901 74.7471Z" fill="#B9D658"/>
<path d="M294.389 127.768C293.825 126.64 293.261 125.371 292.415 124.384L291.71 124.525C291.569 124.525 291.146 124.384 290.723 124.525C290.582 125.089 290.3 125.794 290.441 126.499C290.441 127.345 290.3 128.332 290.3 129.037C291.71 128.614 293.12 128.191 294.389 127.768ZM315.823 88.9891C317.092 79.4001 312.016 69.6701 301.581 68.401C290.159 67.1318 285.364 77.0029 284.095 86.4508C283.813 88.284 281.275 88.284 280.852 86.5918C277.468 76.7208 267.456 69.3881 257.02 75.1697C247.291 80.3872 246.726 92.9374 251.662 101.539C259.7 115.923 277.326 118.179 292.133 120.576C292.274 120.576 292.697 120.717 292.979 120.858C302.709 112.256 313.708 102.244 315.823 88.9891ZM289.454 132.562C288.749 132.703 287.621 132.139 287.621 131.293C287.48 129.601 287.48 128.05 287.621 126.358C287.621 125.512 287.762 124.807 288.044 124.101C266.891 121.422 238.266 110.141 244.188 84.4766C248.56 66.1448 272.391 63.7476 280.711 77.99C284.095 64.3116 304.683 58.6711 315.259 70.2342C331.335 87.72 310.606 114.654 293.825 122.55C295.658 123.961 296.927 125.935 298.056 127.909C298.62 128.614 298.056 129.883 297.209 130.165C296.222 130.588 290.441 132.562 289.454 132.562Z" fill="#D2232A"/>
<path d="M279.019 95.476C279.583 97.4502 279.019 99.2834 277.89 99.5654C276.762 99.8474 275.352 98.5783 274.788 96.6041C274.224 94.6299 274.788 92.7967 275.916 92.5147C277.044 92.2327 278.455 93.5018 279.019 95.476Z" fill="black"/>
<path d="M298.196 98.5776C297.632 98.4366 297.209 98.8596 297.068 99.4237C297.068 99.4237 297.068 99.4237 297.068 99.5647C296.927 99.9878 296.504 101.962 295.094 104.077C294.389 105.205 293.402 106.192 292.274 107.179C291.005 108.167 289.453 108.872 287.62 109.436C285.505 110 283.672 110 282.121 109.718C279.723 109.295 277.749 108.167 276.48 107.179C275.775 106.615 275.352 106.192 274.929 105.91C274.788 105.769 274.647 105.628 274.506 105.487L274.365 105.346C274.083 104.923 273.378 104.923 272.955 105.205C272.532 105.487 272.532 106.192 272.814 106.615C272.814 106.615 274.365 108.449 276.903 109.859C278.172 110.564 279.864 111.269 281.698 111.551C283.531 111.833 285.646 111.833 288.043 111.269C290.299 110.705 292.274 109.577 293.684 108.449C295.94 106.615 297.209 104.5 298.055 102.808C298.901 101.116 299.042 99.8468 299.042 99.8468C299.042 99.1417 298.619 98.5776 298.196 98.5776Z" fill="black"/>
<path d="M293.966 90.8218L294.389 91.1039L293.966 90.8218L294.389 91.1039L293.966 90.8218C293.825 90.9628 293.402 91.6679 292.838 92.232C292.556 92.514 292.133 92.796 291.71 93.078C291.287 93.3601 290.723 93.5011 290.159 93.6421C289.736 93.7831 289.172 93.7831 288.608 93.6421C288.044 93.5011 287.338 93.3601 286.633 92.937C286.21 92.655 285.646 92.937 285.364 93.3601C285.082 93.7831 285.364 94.3472 285.787 94.6292C286.633 95.0523 287.479 95.3343 288.326 95.4753C289.172 95.6163 289.877 95.6163 290.582 95.4753C291.428 95.3343 292.133 95.0523 292.838 94.6292C293.825 94.0652 294.53 93.3601 294.953 92.7961C295.376 92.232 295.658 91.8089 295.658 91.8089C295.94 91.3859 295.799 90.8218 295.376 90.5398C294.812 90.2578 294.248 90.3988 293.966 90.8218Z" fill="black"/>
</svg>
