<svg width="114" height="114" viewBox="0 0 114 114" fill="none" xmlns="http://www.w3.org/2000/svg">
<g filter="url(#filter0_d)">
<circle cx="57" cy="53" r="53" fill="white"/>
<circle cx="57" cy="53" r="52.5" stroke="white"/>
</g>
<g filter="url(#filter1_d)">
<circle cx="57" cy="53" r="50" fill="white"/>
<circle cx="57" cy="53" r="49.5" stroke="#5DD2D8" stroke-dasharray="3 3"/>
</g>
<circle cx="57" cy="53" r="45.75" stroke="#2DB3BE" stroke-width="0.5"/>
<path d="M31.3843 62.78H34.9003V52.664C34.9003 52.272 34.9123 51.86 34.9362 51.428L32.4403 53.516C32.3363 53.604 32.2283 53.664 32.1163 53.696C32.0123 53.728 31.9083 53.744 31.8043 53.744C31.6443 53.744 31.4963 53.712 31.3603 53.648C31.2323 53.576 31.1363 53.496 31.0723 53.408L30.1363 52.124L35.4283 47.624H37.8643V62.78H40.9843V65H31.3843V62.78ZM48.4381 58.076C47.8381 58.076 47.2501 57.972 46.6741 57.764C46.0981 57.556 45.5821 57.244 45.1261 56.828C44.6781 56.404 44.3181 55.884 44.0461 55.268C43.7741 54.644 43.6381 53.916 43.6381 53.084C43.6381 52.308 43.7821 51.58 44.0701 50.9C44.3581 50.22 44.7621 49.624 45.2821 49.112C45.8021 48.6 46.4261 48.196 47.1541 47.9C47.8821 47.604 48.6861 47.456 49.5661 47.456C50.4541 47.456 51.2501 47.596 51.9541 47.876C52.6661 48.156 53.2701 48.548 53.7661 49.052C54.2701 49.556 54.6541 50.16 54.9181 50.864C55.1901 51.568 55.3261 52.34 55.3261 53.18C55.3261 53.716 55.2781 54.224 55.1821 54.704C55.0941 55.184 54.9621 55.648 54.7861 56.096C54.6181 56.536 54.4141 56.968 54.1741 57.392C53.9341 57.808 53.6661 58.228 53.3701 58.652L49.3981 64.316C49.2621 64.508 49.0581 64.672 48.7861 64.808C48.5221 64.936 48.2181 65 47.8741 65H45.1501L50.5381 58.268C50.6741 58.1 50.8021 57.936 50.9221 57.776C51.0421 57.616 51.1581 57.456 51.2701 57.296C50.8701 57.552 50.4301 57.748 49.9501 57.884C49.4701 58.012 48.9661 58.076 48.4381 58.076ZM52.4821 52.88C52.4821 52.408 52.4101 51.988 52.2661 51.62C52.1221 51.244 51.9181 50.928 51.6541 50.672C51.3901 50.416 51.0741 50.22 50.7061 50.084C50.3461 49.948 49.9501 49.88 49.5181 49.88C49.0701 49.88 48.6661 49.956 48.3061 50.108C47.9461 50.252 47.6381 50.456 47.3821 50.72C47.1341 50.984 46.9421 51.3 46.8061 51.668C46.6701 52.028 46.6021 52.424 46.6021 52.856C46.6021 53.824 46.8501 54.564 47.3461 55.076C47.8501 55.58 48.5621 55.832 49.4821 55.832C49.9621 55.832 50.3861 55.756 50.7541 55.604C51.1301 55.452 51.4461 55.244 51.7021 54.98C51.9581 54.716 52.1501 54.404 52.2781 54.044C52.4141 53.684 52.4821 53.296 52.4821 52.88ZM62.36 58.076C61.76 58.076 61.172 57.972 60.596 57.764C60.02 57.556 59.504 57.244 59.048 56.828C58.6 56.404 58.24 55.884 57.968 55.268C57.696 54.644 57.56 53.916 57.56 53.084C57.56 52.308 57.704 51.58 57.992 50.9C58.28 50.22 58.684 49.624 59.204 49.112C59.724 48.6 60.348 48.196 61.076 47.9C61.804 47.604 62.608 47.456 63.488 47.456C64.376 47.456 65.172 47.596 65.876 47.876C66.588 48.156 67.192 48.548 67.688 49.052C68.192 49.556 68.576 50.16 68.84 50.864C69.112 51.568 69.248 52.34 69.248 53.18C69.248 53.716 69.2 54.224 69.104 54.704C69.016 55.184 68.884 55.648 68.708 56.096C68.54 56.536 68.336 56.968 68.096 57.392C67.856 57.808 67.588 58.228 67.292 58.652L63.32 64.316C63.184 64.508 62.98 64.672 62.708 64.808C62.444 64.936 62.14 65 61.796 65H59.072L64.46 58.268C64.596 58.1 64.724 57.936 64.844 57.776C64.964 57.616 65.08 57.456 65.192 57.296C64.792 57.552 64.352 57.748 63.872 57.884C63.392 58.012 62.888 58.076 62.36 58.076ZM66.404 52.88C66.404 52.408 66.332 51.988 66.188 51.62C66.044 51.244 65.84 50.928 65.576 50.672C65.312 50.416 64.996 50.22 64.628 50.084C64.268 49.948 63.872 49.88 63.44 49.88C62.992 49.88 62.588 49.956 62.228 50.108C61.868 50.252 61.56 50.456 61.304 50.72C61.056 50.984 60.864 51.3 60.728 51.668C60.592 52.028 60.524 52.424 60.524 52.856C60.524 53.824 60.772 54.564 61.268 55.076C61.772 55.58 62.484 55.832 63.404 55.832C63.884 55.832 64.308 55.756 64.676 55.604C65.052 55.452 65.368 55.244 65.624 54.98C65.88 54.716 66.072 54.404 66.2 54.044C66.336 53.684 66.404 53.296 66.404 52.88ZM83.0739 47.648V48.932C83.0739 49.316 83.0299 49.628 82.9419 49.868C82.8619 50.1 82.7819 50.296 82.7019 50.456L76.1379 63.992C76.0019 64.272 75.8099 64.512 75.5619 64.712C75.3139 64.904 74.9779 65 74.5539 65H72.4059L79.1259 51.74C79.4059 51.196 79.7179 50.728 80.0619 50.336H71.7579C71.5739 50.336 71.4139 50.268 71.2779 50.132C71.1419 49.996 71.0739 49.836 71.0739 49.652V47.648H83.0739Z" fill="#2DB3BE"/>
<defs>
<filter id="filter0_d" x="0" y="0" width="114" height="114" filterUnits="userSpaceOnUse" color-interpolation-filters="sRGB">
<feFlood flood-opacity="0" result="BackgroundImageFix"/>
<feColorMatrix in="SourceAlpha" type="matrix" values="0 0 0 0 0 0 0 0 0 0 0 0 0 0 0 0 0 0 127 0"/>
<feOffset dy="4"/>
<feGaussianBlur stdDeviation="2"/>
<feColorMatrix type="matrix" values="0 0 0 0 0 0 0 0 0 0 0 0 0 0 0 0 0 0 0.1 0"/>
<feBlend mode="normal" in2="BackgroundImageFix" result="effect1_dropShadow"/>
<feBlend mode="normal" in="SourceGraphic" in2="effect1_dropShadow" result="shape"/>
</filter>
<filter id="filter1_d" x="3" y="3" width="108" height="108" filterUnits="userSpaceOnUse" color-interpolation-filters="sRGB">
<feFlood flood-opacity="0" result="BackgroundImageFix"/>
<feColorMatrix in="SourceAlpha" type="matrix" values="0 0 0 0 0 0 0 0 0 0 0 0 0 0 0 0 0 0 127 0"/>
<feOffset dy="4"/>
<feGaussianBlur stdDeviation="2"/>
<feColorMatrix type="matrix" values="0 0 0 0 0 0 0 0 0 0 0 0 0 0 0 0 0 0 0.1 0"/>
<feBlend mode="normal" in2="BackgroundImageFix" result="effect1_dropShadow"/>
<feBlend mode="normal" in="SourceGraphic" in2="effect1_dropShadow" result="shape"/>
</filter>
</defs>
</svg>
