<svg width="114" height="114" viewBox="0 0 114 114" fill="none" xmlns="http://www.w3.org/2000/svg">
<g filter="url(#filter0_d)">
<circle cx="57" cy="53" r="53" fill="white"/>
<circle cx="57" cy="53" r="52.5" stroke="white"/>
</g>
<g filter="url(#filter1_d)">
<circle cx="57" cy="53" r="50" fill="white"/>
<circle cx="57" cy="53" r="49.5" stroke="#5DD2D8" stroke-dasharray="3 3"/>
</g>
<circle cx="57" cy="53" r="45.75" stroke="#2DB3BE" stroke-width="0.5"/>
<path d="M31.3843 62.78H34.9003V52.664C34.9003 52.272 34.9123 51.86 34.9362 51.428L32.4403 53.516C32.3363 53.604 32.2283 53.664 32.1163 53.696C32.0123 53.728 31.9083 53.744 31.8043 53.744C31.6443 53.744 31.4963 53.712 31.3603 53.648C31.2323 53.576 31.1363 53.496 31.0723 53.408L30.1363 52.124L35.4283 47.624H37.8643V62.78H40.9843V65H31.3843V62.78ZM48.4381 58.076C47.8381 58.076 47.2501 57.972 46.6741 57.764C46.0981 57.556 45.5821 57.244 45.1261 56.828C44.6781 56.404 44.3181 55.884 44.0461 55.268C43.7741 54.644 43.6381 53.916 43.6381 53.084C43.6381 52.308 43.7821 51.58 44.0701 50.9C44.3581 50.22 44.7621 49.624 45.2821 49.112C45.8021 48.6 46.4261 48.196 47.1541 47.9C47.8821 47.604 48.6861 47.456 49.5661 47.456C50.4541 47.456 51.2501 47.596 51.9541 47.876C52.6661 48.156 53.2701 48.548 53.7661 49.052C54.2701 49.556 54.6541 50.16 54.9181 50.864C55.1901 51.568 55.3261 52.34 55.3261 53.18C55.3261 53.716 55.2781 54.224 55.1821 54.704C55.0941 55.184 54.9621 55.648 54.7861 56.096C54.6181 56.536 54.4141 56.968 54.1741 57.392C53.9341 57.808 53.6661 58.228 53.3701 58.652L49.3981 64.316C49.2621 64.508 49.0581 64.672 48.7861 64.808C48.5221 64.936 48.2181 65 47.8741 65H45.1501L50.5381 58.268C50.6741 58.1 50.8021 57.936 50.9221 57.776C51.0421 57.616 51.1581 57.456 51.2701 57.296C50.8701 57.552 50.4301 57.748 49.9501 57.884C49.4701 58.012 48.9661 58.076 48.4381 58.076ZM52.4821 52.88C52.4821 52.408 52.4101 51.988 52.2661 51.62C52.1221 51.244 51.9181 50.928 51.6541 50.672C51.3901 50.416 51.0741 50.22 50.7061 50.084C50.3461 49.948 49.9501 49.88 49.5181 49.88C49.0701 49.88 48.6661 49.956 48.3061 50.108C47.9461 50.252 47.6381 50.456 47.3821 50.72C47.1341 50.984 46.9421 51.3 46.8061 51.668C46.6701 52.028 46.6021 52.424 46.6021 52.856C46.6021 53.824 46.8501 54.564 47.3461 55.076C47.8501 55.58 48.5621 55.832 49.4821 55.832C49.9621 55.832 50.3861 55.756 50.7541 55.604C51.1301 55.452 51.4461 55.244 51.7021 54.98C51.9581 54.716 52.1501 54.404 52.2781 54.044C52.4141 53.684 52.4821 53.296 52.4821 52.88ZM62.96 65.192C62.064 65.192 61.244 65.072 60.5 64.832C59.764 64.592 59.132 64.252 58.604 63.812C58.076 63.372 57.664 62.84 57.368 62.216C57.08 61.592 56.936 60.896 56.936 60.128C56.936 59.104 57.188 58.24 57.692 57.536C58.196 56.824 58.98 56.296 60.044 55.952C59.196 55.6 58.56 55.1 58.136 54.452C57.72 53.804 57.512 53.024 57.512 52.112C57.512 51.456 57.644 50.844 57.908 50.276C58.18 49.708 58.556 49.216 59.036 48.8C59.516 48.376 60.088 48.048 60.752 47.816C61.424 47.576 62.16 47.456 62.96 47.456C63.76 47.456 64.492 47.576 65.156 47.816C65.828 48.048 66.404 48.376 66.884 48.8C67.364 49.216 67.736 49.708 68 50.276C68.272 50.844 68.408 51.456 68.408 52.112C68.408 53.024 68.196 53.804 67.772 54.452C67.348 55.1 66.716 55.6 65.876 55.952C66.94 56.296 67.724 56.824 68.228 57.536C68.732 58.24 68.984 59.104 68.984 60.128C68.984 60.896 68.836 61.592 68.54 62.216C68.252 62.84 67.844 63.372 67.316 63.812C66.788 64.252 66.152 64.592 65.408 64.832C64.672 65.072 63.856 65.192 62.96 65.192ZM62.96 62.876C63.448 62.876 63.876 62.808 64.244 62.672C64.612 62.528 64.92 62.332 65.168 62.084C65.424 61.836 65.616 61.54 65.744 61.196C65.872 60.852 65.936 60.48 65.936 60.08C65.936 59.128 65.672 58.408 65.144 57.92C64.616 57.432 63.888 57.188 62.96 57.188C62.032 57.188 61.304 57.432 60.776 57.92C60.248 58.408 59.984 59.128 59.984 60.08C59.984 60.48 60.048 60.852 60.176 61.196C60.304 61.54 60.492 61.836 60.74 62.084C60.996 62.332 61.308 62.528 61.676 62.672C62.044 62.808 62.472 62.876 62.96 62.876ZM62.96 54.86C63.44 54.86 63.844 54.784 64.172 54.632C64.5 54.48 64.764 54.28 64.964 54.032C65.164 53.776 65.304 53.488 65.384 53.168C65.472 52.84 65.516 52.504 65.516 52.16C65.516 51.832 65.464 51.52 65.36 51.224C65.256 50.928 65.1 50.668 64.892 50.444C64.684 50.212 64.42 50.028 64.1 49.892C63.78 49.756 63.4 49.688 62.96 49.688C62.52 49.688 62.14 49.756 61.82 49.892C61.5 50.028 61.232 50.212 61.016 50.444C60.808 50.668 60.652 50.928 60.548 51.224C60.452 51.52 60.404 51.832 60.404 52.16C60.404 52.504 60.444 52.84 60.524 53.168C60.612 53.488 60.756 53.776 60.956 54.032C61.156 54.28 61.42 54.48 61.748 54.632C62.076 54.784 62.48 54.86 62.96 54.86ZM83.0739 47.648V48.932C83.0739 49.316 83.0299 49.628 82.9419 49.868C82.8619 50.1 82.7819 50.296 82.7019 50.456L76.1379 63.992C76.0019 64.272 75.8099 64.512 75.5619 64.712C75.3139 64.904 74.9779 65 74.5539 65H72.4059L79.1259 51.74C79.4059 51.196 79.7179 50.728 80.0619 50.336H71.7579C71.5739 50.336 71.4139 50.268 71.2779 50.132C71.1419 49.996 71.0739 49.836 71.0739 49.652V47.648H83.0739Z" fill="#2DB3BE"/>
<defs>
<filter id="filter0_d" x="0" y="0" width="114" height="114" filterUnits="userSpaceOnUse" color-interpolation-filters="sRGB">
<feFlood flood-opacity="0" result="BackgroundImageFix"/>
<feColorMatrix in="SourceAlpha" type="matrix" values="0 0 0 0 0 0 0 0 0 0 0 0 0 0 0 0 0 0 127 0"/>
<feOffset dy="4"/>
<feGaussianBlur stdDeviation="2"/>
<feColorMatrix type="matrix" values="0 0 0 0 0 0 0 0 0 0 0 0 0 0 0 0 0 0 0.1 0"/>
<feBlend mode="normal" in2="BackgroundImageFix" result="effect1_dropShadow"/>
<feBlend mode="normal" in="SourceGraphic" in2="effect1_dropShadow" result="shape"/>
</filter>
<filter id="filter1_d" x="3" y="3" width="108" height="108" filterUnits="userSpaceOnUse" color-interpolation-filters="sRGB">
<feFlood flood-opacity="0" result="BackgroundImageFix"/>
<feColorMatrix in="SourceAlpha" type="matrix" values="0 0 0 0 0 0 0 0 0 0 0 0 0 0 0 0 0 0 127 0"/>
<feOffset dy="4"/>
<feGaussianBlur stdDeviation="2"/>
<feColorMatrix type="matrix" values="0 0 0 0 0 0 0 0 0 0 0 0 0 0 0 0 0 0 0.1 0"/>
<feBlend mode="normal" in2="BackgroundImageFix" result="effect1_dropShadow"/>
<feBlend mode="normal" in="SourceGraphic" in2="effect1_dropShadow" result="shape"/>
</filter>
</defs>
</svg>
