<svg width="372" height="250" viewBox="0 0 372 250" fill="none" xmlns="http://www.w3.org/2000/svg">
<rect width="372" height="250" fill="white"/>
<path d="M110.5 211C158.273 211 197 172.273 197 124.5C197 76.7273 158.273 38 110.5 38C62.7274 38 24 76.7273 24 124.5C24 172.273 62.7274 211 110.5 211Z" stroke="#FFDEA5" stroke-width="10.603"/>
<path d="M134.19 72.4258V64.2817H72.4929V154.113H134.19V147.944L124.812 134.247C121.851 129.928 115.434 127.583 110.499 129.064L93.3467 134C88.4109 135.481 86.9301 133.26 90.015 129.188L105.316 114.75C108.524 110.678 110.375 107.717 103.342 99.6962L91.3724 85.0121C88.4109 80.6933 90.015 78.5955 94.9508 80.4465L111.733 86.4929C116.668 88.2204 123.208 86.3694 126.417 82.2974L134.19 72.4258Z" fill="#FBAD18"/>
<path d="M141.843 176.943C141.966 176.943 142.09 176.943 142.213 176.943C142.336 176.943 142.46 177.066 142.707 177.066C142.953 177.19 143.077 177.313 143.2 177.437C143.324 177.56 143.447 177.807 143.694 178.053C143.817 178.3 143.94 178.547 144.064 178.917C144.187 179.411 144.311 179.781 144.311 179.904H138.758C138.758 179.534 138.881 179.287 139.005 178.917C139.128 178.547 139.375 178.177 139.622 177.93C139.868 177.683 140.239 177.436 140.609 177.19C140.856 177.066 141.349 176.943 141.843 176.943C141.719 176.943 141.843 176.943 141.843 176.943ZM144.928 180.521C144.928 179.904 144.928 179.287 144.681 178.794C144.557 178.3 144.311 177.807 144.064 177.56C143.817 177.313 143.57 176.943 143.2 176.82C142.953 176.573 142.583 176.449 142.336 176.326C142.09 176.203 141.843 176.203 141.596 176.203C140.979 176.203 140.485 176.326 139.992 176.573C139.498 176.82 139.128 177.066 138.758 177.437C138.388 177.807 138.141 178.177 137.894 178.67C137.647 179.164 137.647 179.658 137.647 180.151C137.647 180.645 137.771 181.262 137.894 181.632C138.141 182.125 138.388 182.496 138.758 182.866C139.128 183.236 139.498 183.483 139.992 183.73C140.485 183.976 140.979 184.1 141.596 184.1C142.213 184.1 142.707 183.976 143.2 183.73C143.324 183.73 143.447 183.606 143.57 183.483V182.619C143.323 182.742 143.2 182.866 142.953 182.989C142.583 183.113 142.09 183.236 141.719 183.236C141.226 183.236 140.856 183.113 140.485 182.989C140.115 182.866 139.745 182.619 139.498 182.249C139.251 182.002 139.005 181.632 138.881 181.138C138.758 180.768 138.634 180.521 138.634 180.151H144.928V180.521ZM137.03 183.606C136.784 183.73 136.537 183.853 136.413 183.976C135.92 184.223 135.426 184.347 134.809 184.347C134.192 184.347 133.699 184.223 133.205 183.976C132.712 183.73 132.341 183.483 131.971 183.113C131.601 182.742 131.354 182.372 131.107 181.879C130.861 181.385 130.861 180.892 130.861 180.398C130.861 179.904 130.984 179.287 131.107 178.917C131.354 178.424 131.601 178.053 131.971 177.683C132.341 177.313 132.712 177.066 133.205 176.82C133.699 176.573 134.192 176.449 134.809 176.449C135.426 176.449 135.92 176.573 136.413 176.82C136.413 176.82 136.537 176.943 136.784 177.066C136.907 177.19 137.03 177.19 137.03 177.313L136.784 177.93C136.537 177.807 136.29 177.56 136.043 177.437C135.673 177.313 135.303 177.19 134.809 177.19C134.316 177.19 133.945 177.313 133.575 177.437C133.205 177.56 132.835 177.807 132.588 178.177C132.341 178.547 132.095 178.794 131.971 179.164C131.848 179.534 131.724 180.028 131.724 180.398C131.724 180.892 131.848 181.262 131.971 181.755C132.095 182.126 132.341 182.496 132.588 182.866C132.835 183.113 133.205 183.359 133.575 183.606C133.945 183.73 134.316 183.853 134.809 183.853C135.303 183.853 135.673 183.73 136.043 183.606C136.29 183.483 136.537 183.359 136.66 183.236L137.03 183.606ZM123.58 184.1H122.84V176.449H123.58V177.807C124.197 176.82 125.061 176.326 126.172 176.326C127.282 176.326 128.022 176.573 128.516 177.19C129.01 177.807 129.38 178.547 129.38 179.658V184.1H128.639V179.904C128.639 177.93 127.776 176.943 126.048 176.943C124.938 176.943 124.074 177.56 123.58 178.917V184.1ZM118.274 176.943C118.398 176.943 118.521 176.943 118.644 176.943C118.768 176.943 118.891 177.066 119.138 177.066C119.385 177.19 119.508 177.313 119.632 177.437C119.755 177.56 119.878 177.807 120.125 178.053C120.249 178.3 120.372 178.547 120.495 178.917C120.619 179.411 120.742 179.781 120.742 179.904H115.189C115.189 179.534 115.313 179.287 115.436 178.917C115.56 178.547 115.806 178.177 116.053 177.93C116.3 177.683 116.67 177.436 117.04 177.19C117.287 177.066 117.781 176.943 118.274 176.943C118.151 176.943 118.274 176.943 118.274 176.943ZM121.483 180.521C121.483 179.904 121.359 179.287 121.236 178.794C121.112 178.3 120.866 177.807 120.619 177.56C120.372 177.313 120.125 176.943 119.755 176.82C119.508 176.573 119.138 176.449 118.891 176.326C118.644 176.203 118.398 176.203 118.151 176.203C117.534 176.203 117.04 176.326 116.547 176.573C116.053 176.82 115.683 177.066 115.313 177.437C114.943 177.807 114.696 178.177 114.449 178.67C114.202 179.164 114.202 179.658 114.202 180.151C114.202 180.645 114.326 181.262 114.449 181.632C114.696 182.125 114.943 182.496 115.313 182.866C115.683 183.236 116.053 183.483 116.547 183.73C117.04 183.976 117.534 184.1 118.151 184.1C118.768 184.1 119.261 183.976 119.755 183.73C119.878 183.73 120.002 183.606 120.125 183.483V182.619C119.878 182.742 119.755 182.866 119.508 182.989C119.138 183.113 118.644 183.236 118.274 183.236C117.781 183.236 117.411 183.113 117.04 182.989C116.67 182.866 116.3 182.619 116.053 182.249C115.806 182.002 115.56 181.632 115.436 181.138C115.313 180.768 115.189 180.521 115.189 180.151H121.483V180.521ZM111.981 180.645V180.768C111.981 180.768 111.981 180.892 111.981 181.262C111.981 181.509 111.981 181.755 111.981 181.755C111.981 181.879 111.981 182.002 111.981 182.126C111.981 182.372 111.981 182.496 112.105 182.619C112.105 182.742 112.228 182.866 112.351 182.989C112.845 183.606 113.585 183.606 114.572 183.236V183.853C114.449 183.853 114.326 183.976 114.326 183.976C114.326 183.976 114.202 183.976 114.079 183.976C113.955 183.976 113.955 183.976 113.832 183.976C113.709 183.976 113.709 183.976 113.585 183.976C113.462 183.976 113.338 183.976 113.215 183.976C113.092 183.976 112.968 183.976 112.845 183.976C112.722 183.976 112.598 183.853 112.475 183.853C112.351 183.853 112.228 183.73 112.105 183.606C111.981 183.483 111.858 183.483 111.734 183.359C111.611 183.236 111.488 183.113 111.364 182.866C111.241 182.619 111.241 182.496 111.117 182.249C111.117 182.002 110.994 181.879 110.994 181.632C110.994 181.385 110.994 181.262 110.994 181.015C110.994 180.892 110.994 180.645 110.994 180.521V180.645V173.118H111.734V180.645H111.981ZM107.786 180.645V180.768C107.786 180.768 107.786 180.892 107.786 181.262C107.786 181.509 107.786 181.755 107.786 181.755C107.786 181.879 107.786 182.002 107.786 182.126C107.786 182.372 107.786 182.496 107.909 182.619C107.909 182.742 108.032 182.866 108.156 182.989C108.649 183.606 109.39 183.606 110.377 183.236V183.853C110.254 183.853 110.13 183.976 110.13 183.976C110.13 183.976 110.007 183.976 109.883 183.976C109.76 183.976 109.76 183.976 109.637 183.976C109.513 183.976 109.513 183.976 109.39 183.976C109.266 183.976 109.143 183.976 109.02 183.976C108.896 183.976 108.773 183.976 108.649 183.976C108.526 183.976 108.403 183.853 108.279 183.853C108.156 183.853 108.032 183.73 107.909 183.606C107.786 183.483 107.662 183.483 107.539 183.359C107.416 183.236 107.292 183.113 107.169 182.866C107.045 182.619 107.045 182.496 106.922 182.249C106.922 182.002 106.799 181.879 106.799 181.632C106.799 181.385 106.799 181.262 106.799 181.015C106.799 180.892 106.799 180.645 106.799 180.521V180.645V173.118H107.539V180.645H107.786ZM102.11 176.943C102.233 176.943 102.356 176.943 102.48 176.943C102.603 176.943 102.726 177.066 102.973 177.066C103.22 177.19 103.343 177.313 103.467 177.437C103.59 177.56 103.714 177.807 103.96 178.053C104.084 178.3 104.207 178.547 104.331 178.917C104.454 179.411 104.577 179.781 104.577 179.904H99.0246C99.0246 179.534 99.148 179.287 99.2714 178.917C99.3948 178.547 99.6416 178.177 99.8884 177.93C100.135 177.683 100.505 177.436 100.876 177.19C101.246 177.066 101.616 176.943 102.11 176.943ZM105.318 180.521C105.318 179.904 105.194 179.287 105.071 178.794C104.948 178.3 104.701 177.807 104.454 177.56C104.207 177.313 103.96 176.943 103.59 176.82C103.343 176.573 102.973 176.449 102.726 176.326C102.48 176.203 102.233 176.203 101.986 176.203C101.369 176.203 100.876 176.326 100.382 176.573C99.8884 176.82 99.5182 177.066 99.148 177.437C98.7778 177.807 98.5311 178.177 98.2843 178.67C98.0375 179.164 98.0375 179.658 98.0375 180.151C98.0375 180.645 98.1609 181.262 98.2843 181.632C98.5311 182.125 98.7778 182.496 99.148 182.866C99.5182 183.236 99.8884 183.483 100.382 183.73C100.876 183.976 101.369 184.1 101.986 184.1C102.603 184.1 103.097 183.976 103.59 183.73C103.714 183.73 103.837 183.606 103.96 183.483V182.619C103.714 182.742 103.59 182.866 103.343 182.989C102.973 183.113 102.48 183.236 102.11 183.236C101.616 183.236 101.246 183.113 100.876 182.989C100.505 182.866 100.135 182.619 99.8884 182.249C99.6416 182.002 99.3948 181.632 99.2714 181.138C99.148 180.768 99.0246 180.521 99.0246 180.151H105.318V180.521ZM97.4205 183.606C97.1737 183.73 96.9269 183.853 96.8035 183.976C96.3099 184.223 95.8164 184.347 95.1994 184.347C94.5824 184.347 94.0888 184.223 93.5952 183.976C93.1017 183.73 92.7315 183.483 92.3613 183.113C91.9911 182.742 91.7443 182.372 91.4975 181.879C91.2507 181.385 91.2507 180.892 91.2507 180.398C91.2507 179.904 91.3741 179.287 91.4975 178.917C91.7443 178.424 91.9911 178.053 92.3613 177.683C92.7315 177.313 93.1017 177.066 93.5952 176.82C94.0888 176.573 94.5824 176.449 95.1994 176.449C95.8164 176.449 96.3099 176.573 96.8035 176.82C96.8035 176.82 96.9269 176.943 97.1737 177.066C97.2971 177.19 97.4205 177.19 97.4205 177.313L97.1737 177.93C96.9269 177.807 96.6801 177.56 96.4333 177.437C96.0632 177.313 95.693 177.19 95.1994 177.19C94.7058 177.19 94.3356 177.313 93.9654 177.437C93.5952 177.56 93.2251 177.807 92.9783 178.177C92.7315 178.424 92.4847 178.794 92.3613 179.164C92.2379 179.534 92.1145 180.028 92.1145 180.398C92.1145 180.892 92.2379 181.262 92.3613 181.755C92.4847 182.126 92.7315 182.496 92.9783 182.866C93.2251 183.113 93.5952 183.359 93.9654 183.606C94.3356 183.73 94.7058 183.853 95.1994 183.853C95.693 183.853 96.0632 183.73 96.4333 183.606C96.6801 183.483 96.9269 183.359 97.0503 183.236L97.4205 183.606ZM84.5874 176.449L87.1787 179.658L89.77 176.449H90.6338L87.6723 180.151L90.7572 184.1H89.8934L87.1787 180.645L84.464 184.1H83.6002L86.6851 180.151L83.7236 176.449H84.5874ZM75.3328 179.164H75.7029H81.2557V178.424H80.5154H75.2094V177.807V177.313V174.228H81.8727V173.488H74.469V183.976H81.8727V183.236H80.392H75.086V179.164H75.3328Z" fill="#FCAF17"/>
<path d="M141.843 176.943C141.966 176.943 142.09 176.943 142.213 176.943C142.336 176.943 142.46 177.066 142.707 177.066C142.953 177.19 143.077 177.313 143.2 177.437C143.324 177.56 143.447 177.807 143.694 178.053C143.817 178.3 143.94 178.547 144.064 178.917C144.187 179.411 144.311 179.781 144.311 179.904H138.758C138.758 179.534 138.881 179.287 139.005 178.917C139.128 178.547 139.375 178.177 139.622 177.93C139.868 177.683 140.239 177.436 140.609 177.19C140.856 177.066 141.349 176.943 141.843 176.943ZM141.843 176.943C141.719 176.943 141.843 176.943 141.843 176.943ZM118.274 176.943C118.398 176.943 118.521 176.943 118.644 176.943C118.768 176.943 118.891 177.066 119.138 177.066C119.385 177.19 119.508 177.313 119.632 177.437C119.755 177.56 119.878 177.807 120.125 178.053C120.249 178.3 120.372 178.547 120.495 178.917C120.619 179.411 120.742 179.781 120.742 179.904H115.189C115.189 179.534 115.313 179.287 115.436 178.917C115.56 178.547 115.806 178.177 116.053 177.93C116.3 177.683 116.67 177.436 117.04 177.19C117.287 177.066 117.781 176.943 118.274 176.943ZM118.274 176.943C118.151 176.943 118.274 176.943 118.274 176.943ZM144.928 180.521C144.928 179.904 144.928 179.287 144.681 178.794C144.557 178.3 144.311 177.807 144.064 177.56C143.817 177.313 143.57 176.943 143.2 176.82C142.953 176.573 142.583 176.449 142.336 176.326C142.09 176.203 141.843 176.203 141.596 176.203C140.979 176.203 140.485 176.326 139.992 176.573C139.498 176.82 139.128 177.066 138.758 177.437C138.388 177.807 138.141 178.177 137.894 178.67C137.647 179.164 137.647 179.658 137.647 180.151C137.647 180.645 137.771 181.262 137.894 181.632C138.141 182.125 138.388 182.496 138.758 182.866C139.128 183.236 139.498 183.483 139.992 183.73C140.485 183.976 140.979 184.1 141.596 184.1C142.213 184.1 142.707 183.976 143.2 183.73C143.324 183.73 143.447 183.606 143.57 183.483V182.619C143.323 182.742 143.2 182.866 142.953 182.989C142.583 183.113 142.09 183.236 141.719 183.236C141.226 183.236 140.856 183.113 140.485 182.989C140.115 182.866 139.745 182.619 139.498 182.249C139.251 182.002 139.005 181.632 138.881 181.138C138.758 180.768 138.634 180.521 138.634 180.151H144.928V180.521ZM137.03 183.606C136.784 183.73 136.537 183.853 136.413 183.976C135.92 184.223 135.426 184.347 134.809 184.347C134.192 184.347 133.699 184.223 133.205 183.976C132.712 183.73 132.341 183.483 131.971 183.113C131.601 182.742 131.354 182.372 131.107 181.879C130.861 181.385 130.861 180.892 130.861 180.398C130.861 179.904 130.984 179.287 131.107 178.917C131.354 178.424 131.601 178.053 131.971 177.683C132.341 177.313 132.712 177.066 133.205 176.82C133.699 176.573 134.192 176.449 134.809 176.449C135.426 176.449 135.92 176.573 136.413 176.82C136.413 176.82 136.537 176.943 136.784 177.066C136.907 177.19 137.03 177.19 137.03 177.313L136.784 177.93C136.537 177.807 136.29 177.56 136.043 177.437C135.673 177.313 135.303 177.19 134.809 177.19C134.316 177.19 133.945 177.313 133.575 177.437C133.205 177.56 132.835 177.807 132.588 178.177C132.341 178.547 132.095 178.794 131.971 179.164C131.848 179.534 131.724 180.028 131.724 180.398C131.724 180.892 131.848 181.262 131.971 181.755C132.095 182.126 132.341 182.496 132.588 182.866C132.835 183.113 133.205 183.359 133.575 183.606C133.945 183.73 134.316 183.853 134.809 183.853C135.303 183.853 135.673 183.73 136.043 183.606C136.29 183.483 136.537 183.359 136.66 183.236L137.03 183.606ZM123.58 184.1H122.84V176.449H123.58V177.807C124.197 176.82 125.061 176.326 126.172 176.326C127.282 176.326 128.022 176.573 128.516 177.19C129.01 177.807 129.38 178.547 129.38 179.658V184.1H128.639V179.904C128.639 177.93 127.776 176.943 126.048 176.943C124.938 176.943 124.074 177.56 123.58 178.917V184.1ZM121.483 180.521C121.483 179.904 121.359 179.287 121.236 178.794C121.112 178.3 120.866 177.807 120.619 177.56C120.372 177.313 120.125 176.943 119.755 176.82C119.508 176.573 119.138 176.449 118.891 176.326C118.644 176.203 118.398 176.203 118.151 176.203C117.534 176.203 117.04 176.326 116.547 176.573C116.053 176.82 115.683 177.066 115.313 177.437C114.943 177.807 114.696 178.177 114.449 178.67C114.202 179.164 114.202 179.658 114.202 180.151C114.202 180.645 114.326 181.262 114.449 181.632C114.696 182.125 114.943 182.496 115.313 182.866C115.683 183.236 116.053 183.483 116.547 183.73C117.04 183.976 117.534 184.1 118.151 184.1C118.768 184.1 119.261 183.976 119.755 183.73C119.878 183.73 120.002 183.606 120.125 183.483V182.619C119.878 182.742 119.755 182.866 119.508 182.989C119.138 183.113 118.644 183.236 118.274 183.236C117.781 183.236 117.411 183.113 117.04 182.989C116.67 182.866 116.3 182.619 116.053 182.249C115.806 182.002 115.56 181.632 115.436 181.138C115.313 180.768 115.189 180.521 115.189 180.151H121.483V180.521ZM111.981 180.645V180.768C111.981 180.768 111.981 180.892 111.981 181.262C111.981 181.509 111.981 181.755 111.981 181.755C111.981 181.879 111.981 182.002 111.981 182.126C111.981 182.372 111.981 182.496 112.105 182.619C112.105 182.742 112.228 182.866 112.351 182.989C112.845 183.606 113.585 183.606 114.572 183.236V183.853C114.449 183.853 114.326 183.976 114.326 183.976C114.326 183.976 114.202 183.976 114.079 183.976C113.955 183.976 113.955 183.976 113.832 183.976C113.709 183.976 113.709 183.976 113.585 183.976C113.462 183.976 113.338 183.976 113.215 183.976C113.092 183.976 112.968 183.976 112.845 183.976C112.722 183.976 112.598 183.853 112.475 183.853C112.351 183.853 112.228 183.73 112.105 183.606C111.981 183.483 111.858 183.483 111.734 183.359C111.611 183.236 111.488 183.113 111.364 182.866C111.241 182.619 111.241 182.496 111.117 182.249C111.117 182.002 110.994 181.879 110.994 181.632C110.994 181.385 110.994 181.262 110.994 181.015C110.994 180.892 110.994 180.645 110.994 180.521V180.645V173.118H111.734V180.645H111.981ZM107.786 180.645V180.768C107.786 180.768 107.786 180.892 107.786 181.262C107.786 181.509 107.786 181.755 107.786 181.755C107.786 181.879 107.786 182.002 107.786 182.126C107.786 182.372 107.786 182.496 107.909 182.619C107.909 182.742 108.032 182.866 108.156 182.989C108.649 183.606 109.39 183.606 110.377 183.236V183.853C110.254 183.853 110.13 183.976 110.13 183.976C110.13 183.976 110.007 183.976 109.883 183.976C109.76 183.976 109.76 183.976 109.637 183.976C109.513 183.976 109.513 183.976 109.39 183.976C109.266 183.976 109.143 183.976 109.02 183.976C108.896 183.976 108.773 183.976 108.649 183.976C108.526 183.976 108.403 183.853 108.279 183.853C108.156 183.853 108.032 183.73 107.909 183.606C107.786 183.483 107.662 183.483 107.539 183.359C107.416 183.236 107.292 183.113 107.169 182.866C107.045 182.619 107.045 182.496 106.922 182.249C106.922 182.002 106.799 181.879 106.799 181.632C106.799 181.385 106.799 181.262 106.799 181.015C106.799 180.892 106.799 180.645 106.799 180.521V180.645V173.118H107.539V180.645H107.786ZM102.11 176.943C102.233 176.943 102.356 176.943 102.48 176.943C102.603 176.943 102.726 177.066 102.973 177.066C103.22 177.19 103.343 177.313 103.467 177.437C103.59 177.56 103.714 177.807 103.96 178.053C104.084 178.3 104.207 178.547 104.331 178.917C104.454 179.411 104.577 179.781 104.577 179.904H99.0246C99.0246 179.534 99.148 179.287 99.2714 178.917C99.3948 178.547 99.6416 178.177 99.8884 177.93C100.135 177.683 100.505 177.436 100.876 177.19C101.246 177.066 101.616 176.943 102.11 176.943ZM105.318 180.521C105.318 179.904 105.194 179.287 105.071 178.794C104.948 178.3 104.701 177.807 104.454 177.56C104.207 177.313 103.96 176.943 103.59 176.82C103.343 176.573 102.973 176.449 102.726 176.326C102.48 176.203 102.233 176.203 101.986 176.203C101.369 176.203 100.876 176.326 100.382 176.573C99.8884 176.82 99.5182 177.066 99.148 177.437C98.7778 177.807 98.5311 178.177 98.2843 178.67C98.0375 179.164 98.0375 179.658 98.0375 180.151C98.0375 180.645 98.1609 181.262 98.2843 181.632C98.5311 182.125 98.7778 182.496 99.148 182.866C99.5182 183.236 99.8884 183.483 100.382 183.73C100.876 183.976 101.369 184.1 101.986 184.1C102.603 184.1 103.097 183.976 103.59 183.73C103.714 183.73 103.837 183.606 103.96 183.483V182.619C103.714 182.742 103.59 182.866 103.343 182.989C102.973 183.113 102.48 183.236 102.11 183.236C101.616 183.236 101.246 183.113 100.876 182.989C100.505 182.866 100.135 182.619 99.8884 182.249C99.6416 182.002 99.3948 181.632 99.2714 181.138C99.148 180.768 99.0246 180.521 99.0246 180.151H105.318V180.521ZM97.4205 183.606C97.1737 183.73 96.9269 183.853 96.8035 183.976C96.3099 184.223 95.8164 184.347 95.1994 184.347C94.5824 184.347 94.0888 184.223 93.5952 183.976C93.1017 183.73 92.7315 183.483 92.3613 183.113C91.9911 182.742 91.7443 182.372 91.4975 181.879C91.2507 181.385 91.2507 180.892 91.2507 180.398C91.2507 179.904 91.3741 179.287 91.4975 178.917C91.7443 178.424 91.9911 178.053 92.3613 177.683C92.7315 177.313 93.1017 177.066 93.5952 176.82C94.0888 176.573 94.5824 176.449 95.1994 176.449C95.8164 176.449 96.3099 176.573 96.8035 176.82C96.8035 176.82 96.9269 176.943 97.1737 177.066C97.2971 177.19 97.4205 177.19 97.4205 177.313L97.1737 177.93C96.9269 177.807 96.6801 177.56 96.4333 177.437C96.0632 177.313 95.693 177.19 95.1994 177.19C94.7058 177.19 94.3356 177.313 93.9654 177.437C93.5952 177.56 93.2251 177.807 92.9783 178.177C92.7315 178.424 92.4847 178.794 92.3613 179.164C92.2379 179.534 92.1145 180.028 92.1145 180.398C92.1145 180.892 92.2379 181.262 92.3613 181.755C92.4847 182.126 92.7315 182.496 92.9783 182.866C93.2251 183.113 93.5952 183.359 93.9654 183.606C94.3356 183.73 94.7058 183.853 95.1994 183.853C95.693 183.853 96.0632 183.73 96.4333 183.606C96.6801 183.483 96.9269 183.359 97.0503 183.236L97.4205 183.606ZM84.5874 176.449L87.1787 179.658L89.77 176.449H90.6338L87.6723 180.151L90.7572 184.1H89.8934L87.1787 180.645L84.464 184.1H83.6002L86.6851 180.151L83.7236 176.449H84.5874ZM75.3328 179.164H75.7029H81.2557V178.424H80.5154H75.2094V177.807V177.313V174.228H81.8727V173.488H74.469V183.976H81.8727V183.236H80.392H75.086V179.164H75.3328Z" stroke="#FCAF17" stroke-width="0.76" stroke-miterlimit="1.404"/>
<path d="M294.46 94.8716C297.275 91.0187 299.35 91.9079 299.202 96.6499L298.905 113.099C298.757 117.841 298.461 125.991 302.758 127.621L314.021 129.844C318.318 131.474 317.429 132.363 313.131 133.845L301.721 137.55C297.423 138.884 298.461 146.738 298.313 151.48L298.016 167.928C297.868 172.671 295.645 173.411 293.126 169.41L284.235 155.777C281.715 151.776 275.936 149.701 271.639 151.035L256.672 155.777C252.374 157.111 251.04 155.184 253.708 151.331L263.192 138.291C266.007 134.438 266.156 128.214 263.488 124.213L254.597 110.58C252.078 106.578 253.411 104.652 257.709 106.282L272.528 111.765C276.825 113.395 282.605 111.617 285.272 107.764L294.46 94.8716Z" fill="#D9CCE4"/>
<path d="M316.54 133.845L305.722 137.253C302.61 138.291 299.943 141.847 299.795 145.404L299.498 157.259C299.498 160.667 297.868 161.26 295.942 158.444L289.57 148.664C287.643 145.848 283.642 144.366 280.382 145.255L269.564 148.664C266.452 149.701 265.415 148.219 267.489 145.404L274.306 135.92C276.233 133.104 276.381 128.658 274.602 125.695L268.23 115.914C266.304 113.099 267.341 111.617 270.453 112.802L281.123 116.803C284.235 117.989 288.384 116.655 290.31 113.839L297.127 104.355C299.054 101.54 300.684 102.133 300.535 105.689L300.239 117.544C300.091 120.953 302.61 124.805 305.722 125.991L316.392 129.992C319.652 131.178 319.652 132.808 316.54 133.845ZM335.508 130.881L317.874 124.657C312.687 122.879 308.686 116.951 308.834 111.469L309.279 92.7967C309.427 87.3137 306.759 86.4247 303.499 90.7221L292.089 105.689C288.829 109.987 281.864 112.061 276.825 110.283L259.191 104.059C254.004 102.281 252.374 104.504 255.486 108.949L266.156 124.361C269.268 128.807 269.12 136.068 265.711 140.365L254.301 155.332C251.041 159.63 252.522 161.853 257.709 160.371L275.64 155.036C280.826 153.406 287.643 155.925 290.755 160.371L301.425 175.782C304.537 180.228 307.204 179.487 307.352 174.004L307.797 155.332C307.945 149.849 312.242 144.218 317.429 142.588L335.36 137.253C340.546 135.475 340.695 132.659 335.508 130.881Z" fill="#FCAF17"/>
<path d="M320.541 153.258C324.986 155.332 329.432 157.555 333.73 159.63C335.36 160.519 336.99 157.851 335.36 157.11C330.914 155.036 326.468 152.813 322.171 150.738C320.393 149.997 318.911 152.517 320.541 153.258Z" fill="#752B90"/>
<path d="M270.009 85.0911C272.083 91.0186 274.306 96.9461 276.381 102.874C277.122 105.096 281.716 103.615 280.975 101.244C278.9 95.316 276.677 89.3885 274.603 83.4609C273.862 81.0899 269.268 82.72 270.009 85.0911Z" fill="#752B90"/>
<path d="M239.334 132.215C243.928 132.66 248.521 133.253 253.115 133.697C254.893 133.845 254.745 131.178 253.115 130.882C248.521 130.437 243.928 129.844 239.334 129.4C237.555 129.252 237.555 132.067 239.334 132.215Z" fill="#752B90"/>
<path d="M315.206 70.8648C313.28 75.0141 311.353 79.3116 309.279 83.4609C308.538 85.0909 311.205 85.8319 311.946 84.35C313.872 80.2008 315.799 75.9033 317.874 71.754C318.466 70.1239 315.947 69.2348 315.206 70.8648Z" fill="#752B90"/>
<path d="M318.763 116.952C325.876 113.247 332.841 109.69 339.954 105.986C342.621 104.652 339.657 102.874 336.99 104.356C329.877 108.06 322.912 111.617 315.799 115.322C313.132 116.655 316.095 118.285 318.763 116.952Z" fill="#752B90"/>
<path d="M282.16 122.582L282.012 122.138L282.16 122.582L282.012 122.138L282.16 122.582C282.308 122.582 283.049 122.286 283.938 122.286C284.827 122.286 285.865 122.286 286.902 122.879C287.791 123.323 288.532 124.064 289.273 125.398C289.421 125.842 290.014 125.991 290.459 125.842C290.903 125.694 291.051 125.101 290.903 124.657C290.162 123.027 288.977 121.841 287.791 121.249C287.05 120.804 286.309 120.656 285.568 120.508C284.531 120.359 283.494 120.508 282.901 120.656C282.308 120.804 281.715 120.952 281.715 120.952C281.271 121.1 280.975 121.693 281.271 122.138C281.123 122.582 281.567 122.731 282.16 122.582Z" fill="black"/>
<path d="M303.351 132.066C303.351 132.066 303.055 131.177 302.61 130.14C302.314 129.695 302.017 129.103 301.425 128.51C300.98 127.917 300.387 127.473 299.498 127.176C298.313 126.584 296.831 126.287 294.904 126.584C294.46 126.732 294.015 127.176 294.163 127.621C294.312 128.065 294.756 128.51 295.201 128.362C296.683 128.065 297.72 128.362 298.609 128.806C299.202 129.103 299.646 129.399 299.943 129.844C300.535 130.436 300.832 131.177 301.128 131.622C301.276 131.918 301.276 132.067 301.425 132.215C301.425 132.363 301.425 132.363 301.425 132.363L301.721 132.215L301.425 132.363L301.721 132.215L301.425 132.363C301.573 132.807 302.017 133.104 302.462 132.956C303.203 133.104 303.499 132.659 303.351 132.066Z" fill="black"/>
<path d="M307.945 140.217C308.241 141.403 307.5 142.588 306.463 142.885C305.278 143.181 304.092 142.44 303.796 141.403C303.499 140.217 304.537 135.624 304.537 135.624C304.537 135.624 307.649 139.032 307.945 140.217Z" fill="#00AEEF"/>
<path d="M307.945 140.217L307.352 140.365C307.5 140.81 307.352 141.255 307.204 141.551C307.056 141.847 306.611 142.144 306.315 142.292C305.87 142.44 305.426 142.292 305.129 142.144C304.833 141.996 304.537 141.551 304.388 141.255C304.388 141.255 304.388 141.106 304.388 140.81C304.388 140.514 304.388 139.921 304.537 139.328C304.685 138.439 304.833 137.55 304.981 136.957C304.981 136.661 305.129 136.364 305.129 136.068C305.129 135.92 305.129 135.92 305.129 135.772V135.623L304.537 135.475L304.092 135.92C304.24 136.068 304.981 136.957 305.87 137.846C306.315 138.291 306.611 138.735 306.908 139.18C307.056 139.328 307.204 139.624 307.204 139.773C307.352 139.921 307.352 140.069 307.352 140.069L307.945 140.217L308.538 140.069C308.538 139.773 308.39 139.624 308.241 139.328C307.945 138.884 307.649 138.439 307.352 137.994C306.315 136.661 304.981 135.179 304.981 135.179C304.833 135.031 304.537 134.882 304.388 135.031C304.24 135.031 303.944 135.327 303.944 135.475C303.944 135.475 303.647 136.661 303.499 137.994C303.351 138.587 303.351 139.328 303.203 139.921C303.203 140.217 303.203 140.514 303.203 140.81C303.203 141.106 303.203 141.255 303.351 141.551C303.796 143.033 305.278 143.922 306.759 143.477C308.241 143.033 309.13 141.551 308.686 140.069L307.945 140.217Z" fill="black"/>
<path d="M281.123 127.473C281.123 127.473 279.641 129.992 279.641 132.512C279.641 134.883 282.16 138.884 282.16 138.884L286.902 141.255L292.089 141.847L296.386 139.773L299.498 137.254L292.385 136.216L286.013 133.104L281.123 127.473Z" fill="#F27087"/>
<path d="M280.975 127.325C280.975 127.325 284.679 133.845 290.459 135.475C296.238 137.105 299.943 137.253 299.943 137.253C299.943 137.253 294.46 142.292 291.051 142.292C287.643 142.144 286.902 141.995 284.087 140.217C281.271 138.439 279.493 134.438 279.937 131.919C280.382 129.399 280.975 127.325 280.975 127.325Z" stroke="black" stroke-width="0.981"/>
</svg>
