<svg width="372" height="250" viewBox="0 0 372 250" fill="none" xmlns="http://www.w3.org/2000/svg">
<rect width="372" height="250" fill="white"/>
<path d="M110.5 211C158.273 211 197 172.273 197 124.5C197 76.7274 158.273 38 110.5 38C62.7274 38 24 76.7274 24 124.5C24 172.273 62.7274 211 110.5 211Z" stroke="#D6D6EB" stroke-width="10.603"/>
<path d="M113.707 98.5862H122.715V65.2695H92.3595V98.9564C98.776 94.8844 99.2696 94.6376 102.231 89.7018C106.427 82.6682 105.316 80.2003 105.563 77.609C105.933 73.537 107.907 71.8095 110.992 74.4008C113.83 76.8687 116.915 82.915 116.545 87.2339C116.175 91.6761 115.928 93.2802 114.571 96.8587C114.077 97.599 113.83 98.216 113.707 98.5862ZM122.591 155.225V151.029H106.92H97.1719H92.2361V155.225H122.591Z" fill="#5B247B"/>
<path d="M113.707 98.5862H122.715V65.2695H92.3595V98.9564C98.776 94.8844 99.2696 94.6376 102.231 89.7018C106.427 82.6682 105.316 80.2003 105.563 77.609C105.933 73.537 107.907 71.8095 110.992 74.4008C113.83 76.8687 116.915 82.915 116.545 87.2339C116.175 91.6761 115.928 93.2802 114.571 96.8587C114.077 97.599 113.83 98.216 113.707 98.5862ZM122.591 155.225V151.029H106.92H97.1719H92.2361V155.225H122.591Z" stroke="#5B247B" stroke-width="0.622"/>
<path d="M109.885 143.751C109.885 146.218 111.859 148.316 114.45 148.316C114.697 148.316 114.944 148.316 115.191 148.193V148.316H122.718V139.185H115.191V139.308C114.944 139.308 114.697 139.185 114.45 139.185C111.982 139.185 109.885 141.283 109.885 143.751ZM105.566 131.411C105.566 133.879 107.54 135.977 110.131 135.977C110.378 135.977 110.625 135.977 110.872 135.853V135.977H122.841V126.845H110.872V126.969C110.625 126.969 110.378 126.845 110.131 126.845C107.663 126.845 105.566 128.82 105.566 131.411ZM107.293 114.506C107.047 114.506 106.8 114.382 106.553 114.382C104.085 114.382 101.987 116.48 101.987 118.948C101.987 121.416 103.962 123.514 106.553 123.514C106.8 123.514 107.047 123.514 107.293 123.39V123.514H122.841V114.382L107.293 114.506ZM112.229 102.043C111.982 102.043 111.736 102.043 111.489 102.043C109.021 102.043 106.923 104.141 106.923 106.609C106.923 109.077 108.897 111.174 111.489 111.174C111.736 111.174 111.982 111.174 112.229 111.051V111.174H122.841V102.043H112.229Z" fill="#5B247B"/>
<path d="M109.885 143.751C109.885 146.218 111.859 148.316 114.45 148.316C114.697 148.316 114.944 148.316 115.191 148.193V148.316H122.718V139.185H115.191V139.308C114.944 139.308 114.697 139.185 114.45 139.185C111.982 139.185 109.885 141.283 109.885 143.751ZM105.566 131.411C105.566 133.879 107.54 135.977 110.131 135.977C110.378 135.977 110.625 135.977 110.872 135.853V135.977H122.841V126.845H110.872V126.969C110.625 126.969 110.378 126.845 110.131 126.845C107.663 126.845 105.566 128.82 105.566 131.411ZM107.293 114.506C107.047 114.506 106.8 114.382 106.553 114.382C104.085 114.382 101.987 116.48 101.987 118.948C101.987 121.416 103.962 123.514 106.553 123.514C106.8 123.514 107.047 123.514 107.293 123.39V123.514H122.841V114.382L107.293 114.506ZM112.229 102.043C111.982 102.043 111.736 102.043 111.489 102.043C109.021 102.043 106.923 104.141 106.923 106.609C106.923 109.077 108.897 111.174 111.489 111.174C111.736 111.174 111.982 111.174 112.229 111.051V111.174H122.841V102.043H112.229V102.043Z" stroke="#5B247B" stroke-width="0.622"/>
<path d="M129.996 187.062C130.367 187.185 130.86 187.308 131.477 187.308C131.601 187.308 131.724 187.308 131.847 187.185C131.971 187.185 132.094 187.061 132.217 186.938C132.341 186.815 132.464 186.691 132.464 186.691C132.588 186.568 132.588 186.445 132.711 186.321C132.834 186.198 132.834 186.074 132.834 185.951C132.834 185.828 132.958 185.704 132.958 185.581C132.958 185.457 133.081 185.334 133.081 185.334L129.379 177.683H130.243L133.451 184.47L136.166 177.683H137.03L133.822 185.334C133.575 186.074 133.205 186.691 132.834 187.062C132.341 187.432 131.847 187.679 131.354 187.679C130.984 187.679 130.49 187.555 129.996 187.432V187.062ZM125.061 175.462H124.32V177.93H123.21V178.547H124.32V182.126V182.249C124.32 182.619 124.32 182.989 124.32 183.113C124.32 183.36 124.444 183.606 124.444 183.977C124.567 184.347 124.69 184.717 124.937 184.84C125.061 184.964 125.184 185.087 125.307 185.087C125.431 185.211 125.554 185.211 125.678 185.334C125.801 185.334 125.924 185.457 126.048 185.457C126.171 185.457 126.295 185.457 126.418 185.457C126.541 185.457 126.665 185.457 126.788 185.457C126.912 185.457 127.035 185.457 127.035 185.457C127.035 185.457 127.158 185.457 127.282 185.457C127.405 185.457 127.405 185.457 127.528 185.457H127.652H127.775V184.84C126.788 185.211 125.924 185.087 125.554 184.594C125.431 184.47 125.431 184.347 125.307 184.223C125.184 184.1 125.184 183.977 125.184 183.853C125.184 183.73 125.184 183.606 125.184 183.483C125.184 183.36 125.184 183.236 125.184 183.113C125.184 182.989 125.184 182.866 125.184 182.743C125.184 182.619 125.184 182.372 125.184 182.372V182.249V178.671H127.775V178.054H125.184V175.462H125.061ZM121.482 185.457H120.742V177.807H121.482V179.288V185.457ZM120.618 176.82H121.606V175.586H120.618V176.82ZM118.891 177.807C118.274 177.807 117.78 177.93 117.163 178.3C116.546 178.547 116.053 179.164 115.559 180.028V179.288V177.807H114.819V185.457H115.559V181.755C115.683 181.139 115.806 180.645 116.053 180.275C116.3 179.905 116.546 179.534 116.793 179.288C117.04 179.041 117.287 178.917 117.533 178.794C117.78 178.671 118.027 178.547 118.274 178.547C118.397 178.547 118.644 178.547 118.767 178.547V177.807H118.891ZM112.721 184.347C112.721 184.594 112.721 184.84 112.598 185.211C112.598 185.581 112.474 185.828 112.227 186.198C111.981 186.568 111.734 186.815 111.487 187.062C111.117 187.308 110.747 187.555 110.377 187.679C109.883 187.802 109.513 187.925 109.019 187.925C108.032 187.925 107.045 187.679 105.934 187.062L106.181 186.321C106.798 186.938 107.662 187.308 109.019 187.308C109.389 187.308 109.76 187.308 110.13 187.185C110.5 187.062 110.747 186.938 110.87 186.815C111.117 186.691 111.24 186.445 111.364 186.321C111.487 186.074 111.611 185.951 111.734 185.704C111.857 185.581 111.857 185.334 111.981 185.087C111.981 184.84 112.104 184.717 112.104 184.594C112.104 184.47 112.104 184.47 112.104 184.347V183.236C111.981 183.483 111.857 183.606 111.611 183.853C111.487 184.1 111.24 184.223 110.994 184.47C110.747 184.717 110.5 184.84 110.13 184.964C109.76 185.087 109.389 185.087 109.019 185.087C108.649 185.087 108.155 184.964 107.785 184.84C107.415 184.717 106.921 184.47 106.551 184.223C106.181 183.977 105.811 183.606 105.564 183.113C105.317 182.619 105.194 182.126 105.194 181.632C105.194 181.015 105.317 180.522 105.688 179.905C106.058 179.288 106.428 178.917 106.921 178.547C107.538 178.177 108.155 177.93 108.772 177.93C109.143 177.93 109.513 177.93 109.883 178.054C110.253 178.177 110.5 178.3 110.747 178.3C110.994 178.424 111.117 178.547 111.364 178.794C111.611 179.041 111.734 179.164 111.734 179.288C111.734 179.411 111.857 179.534 111.981 179.658V179.781V177.93H112.721V184.347ZM111.981 180.645C111.981 180.645 111.981 180.522 111.857 180.398C111.734 180.275 111.734 180.028 111.611 179.905C111.487 179.781 111.364 179.658 111.24 179.411C111.117 179.164 110.87 179.041 110.623 178.917C110.377 178.794 110.13 178.671 109.76 178.547C109.389 178.424 109.019 178.424 108.649 178.424C108.032 178.424 107.415 178.547 106.921 178.917C106.428 179.288 106.181 179.658 105.934 180.151C105.811 180.645 105.688 181.139 105.811 181.755C105.934 182.249 106.058 182.743 106.428 183.236C106.921 183.853 107.538 184.223 108.279 184.223C109.019 184.347 109.76 184.223 110.377 183.853C110.994 183.483 111.487 182.866 111.857 182.126V182.002V180.645H111.981ZM100.382 178.424C100.505 178.424 100.628 178.424 100.752 178.424C100.875 178.424 100.999 178.547 101.245 178.547C101.492 178.671 101.615 178.794 101.739 178.917C101.862 179.041 101.986 179.288 102.232 179.534C102.479 179.781 102.479 180.028 102.603 180.398C102.726 180.892 102.849 181.262 102.849 181.385H97.2967C97.2967 181.015 97.4201 180.768 97.5435 180.398C97.6669 180.028 97.9137 179.658 98.1604 179.411C98.4072 179.164 98.7774 178.917 99.1476 178.671C99.3944 178.424 99.888 178.424 100.382 178.424ZM103.59 182.002C103.59 181.385 103.466 180.768 103.343 180.275C103.22 179.781 102.973 179.288 102.726 179.041C102.479 178.794 102.232 178.424 101.862 178.3C101.616 178.054 101.245 177.93 100.999 177.807C100.752 177.684 100.505 177.683 100.258 177.683C99.6412 177.683 99.1476 177.807 98.654 178.054C98.1604 178.3 97.7902 178.547 97.4201 178.917C97.0499 179.288 96.8031 179.658 96.5563 180.151C96.3095 180.645 96.3095 181.139 96.3095 181.632C96.3095 182.126 96.4329 182.743 96.5563 183.113C96.8031 183.606 97.0499 183.977 97.4201 184.347C97.7902 184.717 98.1604 184.964 98.654 185.211C99.1476 185.457 99.6412 185.581 100.258 185.581C100.875 185.581 101.369 185.457 101.862 185.211C101.986 185.211 102.109 185.087 102.232 184.964V184.1C101.986 184.223 101.862 184.347 101.615 184.47C101.245 184.594 100.752 184.717 100.382 184.717C99.888 184.717 99.5178 184.594 99.1476 184.47C98.7774 184.347 98.4072 184.1 98.1604 183.73C97.9137 183.36 97.6669 183.113 97.5435 182.619C97.4201 182.249 97.2967 182.002 97.2967 181.632H103.59V182.002ZM93.2246 175.462H92.4843V177.93H91.3737V178.547H92.4843V182.126V182.249C92.4843 182.619 92.4843 182.989 92.4843 183.113C92.4843 183.36 92.6077 183.606 92.6077 183.977C92.7311 184.347 92.8544 184.717 93.1012 184.84C93.2246 184.964 93.348 185.087 93.4714 185.087C93.5948 185.087 93.7182 185.211 93.8416 185.334C93.965 185.334 94.0884 185.457 94.2118 185.457C94.3352 185.457 94.4586 185.457 94.582 185.457C94.7054 185.457 94.8288 185.457 94.9522 185.457C95.0756 185.457 95.1989 185.457 95.1989 185.457C95.3223 185.457 95.3223 185.457 95.4457 185.457C95.5691 185.457 95.5691 185.457 95.6925 185.457H95.8159H95.9393V184.84C94.9522 185.211 94.0884 185.087 93.7182 184.594C93.5948 184.47 93.5948 184.347 93.4714 184.223C93.4714 184.1 93.348 183.977 93.348 183.853C93.348 183.73 93.348 183.606 93.348 183.483C93.348 183.36 93.348 183.236 93.348 183.113C93.348 182.989 93.348 182.866 93.348 182.743C93.348 182.619 93.348 182.372 93.348 182.372V182.249V178.671H95.9393V178.054H93.348V175.462H93.2246ZM84.587 185.457H83.8466V177.807H84.587V179.164C85.204 178.177 86.0677 177.683 87.1783 177.683C88.2888 177.683 89.0292 177.93 89.5228 178.547C90.0164 179.164 90.3865 179.905 90.3865 181.015V185.457H89.6462V181.262C89.6462 179.288 88.7824 178.3 87.0549 178.3C85.9443 178.3 85.0806 178.917 84.587 180.275V185.457ZM81.5021 174.969H80.7617V185.457H81.5021V174.969Z" fill="#752B90"/>
<path d="M129.996 187.062C130.367 187.185 130.86 187.308 131.477 187.308C131.601 187.308 131.724 187.308 131.847 187.185C131.971 187.185 132.094 187.061 132.217 186.938C132.341 186.815 132.464 186.691 132.464 186.691C132.588 186.568 132.588 186.445 132.711 186.321C132.834 186.198 132.834 186.074 132.834 185.951C132.834 185.828 132.958 185.704 132.958 185.581C132.958 185.457 133.081 185.334 133.081 185.334L129.379 177.683H130.243L133.451 184.47L136.166 177.683H137.03L133.822 185.334C133.575 186.074 133.205 186.691 132.834 187.062C132.341 187.432 131.847 187.679 131.354 187.679C130.984 187.679 130.49 187.555 129.996 187.432V187.062V187.062ZM125.061 175.462H124.32V177.93H123.21V178.547H124.32V182.126V182.249C124.32 182.619 124.32 182.989 124.32 183.113C124.32 183.36 124.444 183.606 124.444 183.977C124.567 184.347 124.69 184.717 124.937 184.84C125.061 184.964 125.184 185.087 125.307 185.087C125.431 185.211 125.554 185.211 125.678 185.334C125.801 185.334 125.924 185.457 126.048 185.457C126.171 185.457 126.295 185.457 126.418 185.457C126.541 185.457 126.665 185.457 126.788 185.457C126.912 185.457 127.035 185.457 127.035 185.457C127.035 185.457 127.158 185.457 127.282 185.457C127.405 185.457 127.405 185.457 127.528 185.457H127.652H127.775V184.84C126.788 185.211 125.924 185.087 125.554 184.594C125.431 184.47 125.431 184.347 125.307 184.223C125.184 184.1 125.184 183.977 125.184 183.853C125.184 183.73 125.184 183.606 125.184 183.483C125.184 183.36 125.184 183.236 125.184 183.113C125.184 182.989 125.184 182.866 125.184 182.743C125.184 182.619 125.184 182.372 125.184 182.372V182.249V178.671H127.775V178.054H125.184V175.462H125.061ZM121.482 185.457H120.742V177.807H121.482V179.288V185.457ZM120.618 176.82H121.606V175.586H120.618V176.82ZM118.891 177.807C118.274 177.807 117.78 177.93 117.163 178.3C116.546 178.547 116.053 179.164 115.559 180.028V179.288V177.807H114.819V185.457H115.559V181.755C115.683 181.139 115.806 180.645 116.053 180.275C116.3 179.905 116.546 179.534 116.793 179.288C117.04 179.041 117.287 178.917 117.533 178.794C117.78 178.671 118.027 178.547 118.274 178.547C118.397 178.547 118.644 178.547 118.767 178.547V177.807H118.891ZM112.721 184.347C112.721 184.594 112.721 184.84 112.598 185.211C112.598 185.581 112.474 185.828 112.227 186.198C111.981 186.568 111.734 186.815 111.487 187.062C111.117 187.308 110.747 187.555 110.377 187.679C109.883 187.802 109.513 187.925 109.019 187.925C108.032 187.925 107.045 187.679 105.934 187.062L106.181 186.321C106.798 186.938 107.662 187.308 109.019 187.308C109.389 187.308 109.76 187.308 110.13 187.185C110.5 187.062 110.747 186.938 110.87 186.815C111.117 186.691 111.24 186.445 111.364 186.321C111.487 186.074 111.611 185.951 111.734 185.704C111.857 185.581 111.857 185.334 111.981 185.087C111.981 184.84 112.104 184.717 112.104 184.594C112.104 184.47 112.104 184.47 112.104 184.347V183.236C111.981 183.483 111.857 183.606 111.611 183.853C111.487 184.1 111.24 184.223 110.994 184.47C110.747 184.717 110.5 184.84 110.13 184.964C109.76 185.087 109.389 185.087 109.019 185.087C108.649 185.087 108.155 184.964 107.785 184.84C107.415 184.717 106.921 184.47 106.551 184.223C106.181 183.977 105.811 183.606 105.564 183.113C105.317 182.619 105.194 182.126 105.194 181.632C105.194 181.015 105.317 180.522 105.688 179.905C106.058 179.288 106.428 178.917 106.921 178.547C107.538 178.177 108.155 177.93 108.772 177.93C109.143 177.93 109.513 177.93 109.883 178.054C110.253 178.177 110.5 178.3 110.747 178.3C110.994 178.424 111.117 178.547 111.364 178.794C111.611 179.041 111.734 179.164 111.734 179.288C111.734 179.411 111.857 179.534 111.981 179.658V179.781V177.93H112.721V184.347V184.347ZM111.981 180.645C111.981 180.645 111.981 180.522 111.857 180.398C111.734 180.275 111.734 180.028 111.611 179.905C111.487 179.781 111.364 179.658 111.24 179.411C111.117 179.164 110.87 179.041 110.623 178.917C110.377 178.794 110.13 178.671 109.76 178.547C109.389 178.424 109.019 178.424 108.649 178.424C108.032 178.424 107.415 178.547 106.921 178.917C106.428 179.288 106.181 179.658 105.934 180.151C105.811 180.645 105.688 181.139 105.811 181.755C105.934 182.249 106.058 182.743 106.428 183.236C106.921 183.853 107.538 184.223 108.279 184.223C109.019 184.347 109.76 184.223 110.377 183.853C110.994 183.483 111.487 182.866 111.857 182.126V182.002V180.645H111.981ZM100.382 178.424C100.505 178.424 100.628 178.424 100.752 178.424C100.875 178.424 100.999 178.547 101.245 178.547C101.492 178.671 101.615 178.794 101.739 178.917C101.862 179.041 101.986 179.288 102.232 179.534C102.479 179.781 102.479 180.028 102.603 180.398C102.726 180.892 102.849 181.262 102.849 181.385H97.2967C97.2967 181.015 97.4201 180.768 97.5435 180.398C97.6669 180.028 97.9137 179.658 98.1604 179.411C98.4072 179.164 98.7774 178.917 99.1476 178.671C99.3944 178.424 99.888 178.424 100.382 178.424ZM103.59 182.002C103.59 181.385 103.466 180.768 103.343 180.275C103.22 179.781 102.973 179.288 102.726 179.041C102.479 178.794 102.232 178.424 101.862 178.3C101.616 178.054 101.245 177.93 100.999 177.807C100.752 177.684 100.505 177.683 100.258 177.683C99.6412 177.683 99.1476 177.807 98.654 178.054C98.1604 178.3 97.7902 178.547 97.4201 178.917C97.0499 179.288 96.8031 179.658 96.5563 180.151C96.3095 180.645 96.3095 181.139 96.3095 181.632C96.3095 182.126 96.4329 182.743 96.5563 183.113C96.8031 183.606 97.0499 183.977 97.4201 184.347C97.7902 184.717 98.1604 184.964 98.654 185.211C99.1476 185.457 99.6412 185.581 100.258 185.581C100.875 185.581 101.369 185.457 101.862 185.211C101.986 185.211 102.109 185.087 102.232 184.964V184.1C101.986 184.223 101.862 184.347 101.615 184.47C101.245 184.594 100.752 184.717 100.382 184.717C99.888 184.717 99.5178 184.594 99.1476 184.47C98.7774 184.347 98.4072 184.1 98.1604 183.73C97.9137 183.36 97.6669 183.113 97.5435 182.619C97.4201 182.249 97.2967 182.002 97.2967 181.632H103.59V182.002ZM93.2246 175.462H92.4843V177.93H91.3737V178.547H92.4843V182.126V182.249C92.4843 182.619 92.4843 182.989 92.4843 183.113C92.4843 183.36 92.6077 183.606 92.6077 183.977C92.7311 184.347 92.8544 184.717 93.1012 184.84C93.2246 184.964 93.348 185.087 93.4714 185.087C93.5948 185.087 93.7182 185.211 93.8416 185.334C93.965 185.334 94.0884 185.457 94.2118 185.457C94.3352 185.457 94.4586 185.457 94.582 185.457C94.7054 185.457 94.8288 185.457 94.9522 185.457C95.0756 185.457 95.1989 185.457 95.1989 185.457C95.3223 185.457 95.3223 185.457 95.4457 185.457C95.5691 185.457 95.5691 185.457 95.6925 185.457H95.8159H95.9393V184.84C94.9522 185.211 94.0884 185.087 93.7182 184.594C93.5948 184.47 93.5948 184.347 93.4714 184.223C93.4714 184.1 93.348 183.977 93.348 183.853C93.348 183.73 93.348 183.606 93.348 183.483C93.348 183.36 93.348 183.236 93.348 183.113C93.348 182.989 93.348 182.866 93.348 182.743C93.348 182.619 93.348 182.372 93.348 182.372V182.249V178.671H95.9393V178.054H93.348V175.462H93.2246ZM84.587 185.457H83.8466V177.807H84.587V179.164C85.204 178.177 86.0677 177.683 87.1783 177.683C88.2888 177.683 89.0292 177.93 89.5228 178.547C90.0164 179.164 90.3865 179.905 90.3865 181.015V185.457H89.6462V181.262C89.6462 179.288 88.7824 178.3 87.0549 178.3C85.9443 178.3 85.0806 178.917 84.587 180.275V185.457ZM81.5021 174.969H80.7617V185.457H81.5021V174.969Z" stroke="#055098" stroke-width="0.76" stroke-miterlimit="1.404"/>
<path d="M222.001 144.751C222.001 144.751 221.837 138.991 224.964 135.042C228.09 131.092 236.154 128.953 242.242 128.459C248.331 127.965 244.217 130.269 249.648 127.801C255.078 125.333 263.964 110.851 263.964 110.851C263.964 110.851 267.42 99.0028 268.078 96.8636C268.737 94.7243 266.762 79.5847 266.762 79.5847C266.762 79.5847 264.294 71.6858 268.737 72.344C273.18 73.0023 275.319 69.3819 279.762 75.9643C284.37 82.5468 287.332 82.8759 287.826 93.4078C288.319 104.104 287.003 108.218 287.167 110.522C287.332 112.826 292.763 117.598 293.914 118.092C297.206 119.902 299.345 118.586 303.459 119.737C307.408 120.889 310.206 119.902 311.358 119.573C314.155 118.75 318.269 126.32 314.814 130.269C312.345 133.067 315.966 140.472 314.155 143.27C312.345 146.067 309.877 145.409 310.535 149.358C311.522 155.447 314.978 154.131 315.307 156.105C315.636 158.08 313.826 157.751 312.016 164.004C310.206 170.422 311.193 174.865 309.219 175.359C307.244 175.688 292.927 180.131 285.028 179.967C277.294 179.802 270.876 175.03 270.876 175.03L258.369 170.587L242.736 175.359C242.736 175.359 237.964 175.523 236.483 175.853C235.002 176.182 227.597 169.27 226.116 164.333C223.153 157.257 222.001 144.751 222.001 144.751Z" fill="#8BD7F8"/>
<path d="M261.99 143.928L261.331 143.599L261.99 143.928L261.331 143.599L261.99 143.928C262.154 143.763 262.648 142.776 263.635 141.789C264.623 140.801 265.939 139.814 267.585 139.485C269.066 139.156 270.711 139.156 272.851 140.143C273.509 140.472 274.332 140.143 274.661 139.32C274.99 138.662 274.661 137.839 273.838 137.51C271.205 136.358 268.737 136.194 266.762 136.852C265.445 137.181 264.458 137.675 263.471 138.333C262.154 139.32 261.002 140.308 260.344 141.295C259.686 142.118 259.357 142.776 259.357 142.94C259.028 143.599 259.192 144.422 260.015 144.915C260.673 144.751 261.496 144.586 261.99 143.928Z" fill="black"/>
<path d="M296.548 133.396C296.548 133.396 295.396 132.574 293.75 132.08C292.927 131.751 291.94 131.586 290.788 131.422C289.636 131.257 288.484 131.422 287.168 131.586C285.193 132.08 283.054 133.396 281.243 135.536C280.75 136.194 280.914 137.017 281.408 137.51C282.066 138.004 282.889 137.84 283.383 137.346C284.864 135.536 286.345 134.713 287.826 134.384C288.649 134.219 289.636 134.055 290.459 134.219C291.775 134.384 292.927 134.713 293.75 135.042C294.079 135.207 294.408 135.371 294.737 135.536C294.902 135.536 294.902 135.7 294.902 135.7L295.231 135.371L294.902 135.7L295.231 135.371L294.902 135.7C295.56 136.194 296.383 136.029 296.877 135.371C297.37 134.713 297.206 133.726 296.548 133.396Z" fill="black"/>
<path d="M265.774 150.511C265.774 150.511 266.597 154.954 269.066 157.752C271.534 160.549 278.61 162.689 278.61 162.689L286.674 160.549L293.256 155.942L296.218 149.195L297.205 142.941L289.142 151.992L277.458 155.942L265.774 150.511Z" fill="#F27087"/>
<path d="M265.61 150.675C265.61 150.675 275.977 158.903 284.37 154.954C292.763 151.004 297.37 143.105 297.37 143.105C297.37 143.105 296.054 154.46 292.104 157.751C287.99 161.043 287.003 161.701 281.902 162.359C276.8 163.182 270.876 160.22 268.901 156.928C266.927 153.637 265.61 150.675 265.61 150.675Z" stroke="black" stroke-width="1.182"/>
<path d="M320.244 126.32C320.409 127.801 320.079 129.776 317.776 130.764C316.788 131.257 316.13 132.245 315.965 133.232C315.801 134.548 316.295 136.03 317.446 137.346C318.269 138.004 318.763 139.979 318.763 141.789C318.598 144.093 317.282 145.903 315.143 147.22C314.155 147.549 313.497 148.372 313.168 149.523C312.839 150.84 313.332 152.156 314.155 152.815C315.143 153.802 318.927 152.979 317.611 158.081C316.459 161.701 312.345 160.714 312.18 160.714C312.18 160.714 310.206 161.207 308.889 164.169C307.573 167.131 309.548 168.283 309.548 169.929C309.548 171.575 309.383 172.397 307.737 173.385C306.092 174.372 306.585 173.385 303.294 174.701C300.003 176.018 295.231 175.853 290.788 176.676C286.344 177.663 284.205 177.663 280.749 177.17C277.294 176.676 274.002 173.385 271.04 170.752C269.395 169.271 267.749 167.79 265.774 167.625C263.964 166.967 262.319 167.296 261.167 167.625C261.167 167.625 249.154 168.777 245.698 170.587C242.242 172.233 235.824 169.106 232.533 155.119C227.925 136.359 239.445 135.042 239.445 135.042C243.394 133.561 248.66 134.384 251.787 133.89C254.749 132.738 257.053 131.257 258.863 128.953C259.192 128.789 261.002 125.991 261.496 125.168C264.293 120.396 267.42 112.333 267.914 111.345C269.888 106.738 272.521 98.8388 272.686 93.4083C272.686 89.4589 273.015 87.6487 272.028 83.8638C272.028 83.8638 270.218 79.4207 272.357 76.294C274.496 73.0028 279.927 76.4586 282.066 78.5979C284.534 81.56 286.015 89.2943 286.509 92.4209C287.167 95.5476 286.674 100.814 286.18 104.269C285.686 108.219 285.686 109.7 286.838 113.814C288.319 116.118 291.94 120.89 298.687 121.219C300.661 121.384 302.636 121.219 304.611 121.054C308.231 120.89 312.016 120.725 315.472 121.713C317.611 121.877 320.079 123.523 320.244 126.32ZM321.56 115.953C317.117 113.32 312.016 113.485 307.244 113.649C306.585 113.649 305.763 113.649 305.269 113.814C304.611 113.814 303.952 113.814 303.294 113.814C297.041 113.649 292.598 113.32 291.446 108.383C290.788 105.257 291.117 101.965 291.61 98.6743C292.104 94.7248 292.598 90.7753 291.446 86.4968C289.471 78.927 284.699 72.8383 278.939 70.3698C276.471 69.0534 273.509 68.7242 271.04 69.2179C267.255 70.0407 264.787 72.6737 264.458 76.4586C264.129 79.0916 264.787 81.3954 265.445 83.8638C265.61 84.5221 265.774 85.1803 265.939 85.8385C266.762 89.2943 266.926 92.0918 266.597 95.0539C265.774 100.814 263.141 106.573 260.673 111.016L259.357 113.485C257.546 116.941 255.736 120.725 253.597 123.688C252.445 125.169 250.964 125.827 249.154 126.65C248.66 126.814 247.344 127.472 247.179 127.472C245.369 127.637 243.394 127.966 241.255 128.46C237.305 129.283 231.71 130.928 228.419 135.7C224.305 141.295 226.115 149.688 227.432 155.283V155.612C229.077 163.347 231.381 170.916 236.812 175.195C240.432 178.157 245.204 177.663 248.825 176.841C250.306 176.511 251.787 176.182 253.103 175.689C254.42 175.359 255.572 175.03 256.724 174.866L257.217 174.701C258.369 174.701 259.357 174.537 260.508 174.537C261.496 174.372 262.483 174.372 263.635 174.372C264.787 174.372 266.268 175.195 267.749 176.182C268.572 176.676 269.395 177.17 270.218 177.499C271.04 177.828 271.699 178.157 272.521 178.486C274.99 179.638 277.458 180.625 280.091 181.284C283.382 181.942 286.838 181.613 290.129 181.448C291.775 181.284 293.421 181.119 295.066 181.119C295.889 180.955 296.712 180.955 297.535 180.79C300.168 180.461 302.801 180.296 305.433 179.803C307.244 179.474 308.725 178.98 310.206 178.322C314.978 175.853 317.282 170.916 316.295 166.144C318.763 164.499 320.573 161.866 321.396 158.739C322.219 155.941 322.054 153.144 321.067 150.84C325.345 146.561 326.662 139.814 324.193 134.878C326.004 132.903 326.991 130.105 326.991 126.814C327.156 122.536 325.016 118.257 321.56 115.953Z" fill="#752B90"/>
</svg>
