<svg width="372" height="250" viewBox="0 0 372 250" fill="none" xmlns="http://www.w3.org/2000/svg">
<rect width="372" height="250" fill="white"/>
<path d="M112.5 211C160.273 211 199 172.273 199 124.5C199 76.7273 160.273 38 112.5 38C64.7274 38 26 76.7273 26 124.5C26 172.273 64.7274 211 112.5 211Z" stroke="#D3E27A" stroke-width="10.603"/>
<path d="M144.336 185.828C144.336 186.075 144.336 186.321 144.213 186.692C144.213 187.062 144.09 187.309 143.843 187.679C143.596 188.049 143.349 188.296 143.102 188.543C142.732 188.789 142.362 189.036 141.992 189.16C141.498 189.283 141.128 189.406 140.635 189.406C139.647 189.406 138.66 189.16 137.55 188.543L137.796 187.802C138.413 188.419 139.277 188.789 140.635 188.789C141.005 188.789 141.375 188.789 141.745 188.666C142.115 188.543 142.362 188.419 142.485 188.296C142.732 188.172 142.856 187.926 142.979 187.802C143.102 187.555 143.226 187.432 143.349 187.185C143.473 187.062 143.473 186.815 143.596 186.568C143.596 186.321 143.719 186.198 143.719 186.075C143.719 185.951 143.719 185.951 143.719 185.828V184.717C143.596 184.964 143.473 185.088 143.226 185.334C143.102 185.581 142.856 185.704 142.609 185.951C142.362 186.198 142.115 186.321 141.745 186.445C141.375 186.568 141.005 186.568 140.635 186.568C140.264 186.568 139.771 186.445 139.401 186.321C139.03 186.198 138.537 185.951 138.167 185.704C137.796 185.458 137.426 185.088 137.18 184.594C136.933 184.1 136.809 183.607 136.809 183.113C136.809 182.496 136.933 182.003 137.303 181.386C137.55 180.769 138.043 180.398 138.537 180.028C139.154 179.658 139.771 179.411 140.388 179.411C140.758 179.411 141.128 179.411 141.498 179.535C141.869 179.658 142.115 179.782 142.362 179.782C142.609 179.905 142.732 180.028 142.979 180.275C143.226 180.522 143.349 180.645 143.349 180.769C143.473 180.892 143.473 181.015 143.596 181.139V181.262V179.658H144.336V185.828ZM143.473 182.249C143.473 182.249 143.473 182.126 143.349 182.003C143.226 181.879 143.226 181.632 143.102 181.509C142.979 181.386 142.856 181.262 142.732 181.015C142.609 180.769 142.362 180.645 142.115 180.522C141.869 180.399 141.622 180.275 141.252 180.152C140.881 180.028 140.511 180.028 140.141 180.028C139.524 180.028 138.907 180.152 138.537 180.522C138.043 180.892 137.796 181.262 137.55 181.756C137.426 182.249 137.303 182.743 137.426 183.36C137.55 183.977 137.673 184.471 138.043 184.841C138.537 185.458 139.154 185.828 139.894 185.828C140.635 185.951 141.375 185.828 141.992 185.458C142.609 185.088 143.102 184.471 143.473 183.73V183.607V182.249ZM128.789 187.062H128.048V179.411H128.789V180.769C129.406 179.782 130.269 179.288 131.38 179.288C132.49 179.288 133.231 179.535 133.724 180.152C134.218 180.769 134.588 181.509 134.588 182.62V187.062H133.848V182.866C133.848 180.892 132.984 179.905 131.257 179.905C130.146 179.905 129.282 180.522 128.789 181.879V187.062ZM125.827 187.062H125.087V179.411H125.827V180.892V187.062ZM124.963 178.424H125.951V177.19H124.963V178.424ZM123.112 179.288C122.495 179.288 122.002 179.411 121.385 179.782C120.768 180.028 120.274 180.645 119.781 181.509V180.769V179.288H119.164V186.938H119.904V183.237C120.028 182.62 120.151 182.126 120.398 181.756C120.645 181.386 120.891 181.015 121.138 180.769C121.385 180.522 121.632 180.398 122.002 180.275C122.372 180.152 122.495 180.028 122.742 180.028C122.866 180.028 123.112 180.028 123.236 180.028V179.288H123.112ZM116.202 179.411H116.943V187.062H116.202V185.704C115.585 186.692 114.722 187.185 113.611 187.185C112.5 187.185 111.76 186.938 111.267 186.321C110.773 185.704 110.403 184.964 110.403 183.854V179.411H111.143V183.607C111.143 185.581 112.007 186.568 113.734 186.568C114.845 186.568 115.709 185.951 116.202 184.594V179.411ZM106.454 176.943H105.714V179.411H104.603V180.028H105.714V183.607V183.73C105.714 184.1 105.714 184.471 105.714 184.594C105.714 184.841 105.837 185.088 105.837 185.458C105.961 185.828 106.084 186.198 106.331 186.321C106.454 186.445 106.577 186.568 106.701 186.568C106.824 186.692 106.948 186.692 107.071 186.815C107.194 186.815 107.318 186.938 107.441 186.938C107.565 186.938 107.688 186.938 107.811 186.938C107.935 186.938 108.058 186.938 108.182 186.938C108.305 186.938 108.428 186.938 108.428 186.938C108.552 186.938 108.552 186.938 108.675 186.938C108.799 186.938 108.799 186.938 108.922 186.938H109.045H109.169V186.321C108.182 186.692 107.318 186.568 106.948 186.075C106.824 185.951 106.824 185.828 106.701 185.704C106.701 185.581 106.578 185.458 106.578 185.334C106.578 185.211 106.578 185.087 106.578 184.964C106.578 184.841 106.578 184.717 106.578 184.594C106.578 184.471 106.578 184.347 106.578 184.224C106.578 184.1 106.578 183.854 106.578 183.854V183.73V180.152H109.169V179.535H106.578V176.943H106.454ZM103.122 179.288C102.505 179.288 102.012 179.411 101.395 179.782C100.778 180.028 100.284 180.645 99.7908 181.509V180.769V179.288H99.0504V186.938H99.7908V183.237C99.9142 182.62 100.038 182.126 100.284 181.756C100.531 181.386 100.778 181.015 101.025 180.769C101.272 180.522 101.518 180.398 101.888 180.275C102.259 180.152 102.382 180.028 102.629 180.028C102.752 180.028 102.999 180.028 103.122 180.028V179.288ZM96.2123 179.411H96.9527V187.062H96.2123V185.704C95.5953 186.692 94.7316 187.185 93.621 187.185C92.5105 187.185 91.7701 186.938 91.2765 186.321C90.7829 185.704 90.4127 184.964 90.4127 183.854V179.411H91.1531V183.607C91.1531 185.581 92.0169 186.568 93.7444 186.568C94.855 186.568 95.7187 185.951 96.2123 184.594V179.411ZM80.2943 177.684L87.8214 187.062H88.315V176.573H87.5746V185.581L80.2943 176.573H79.554V187.062H80.2943V177.684Z" fill="#539B3A"/>
<path d="M144.336 185.828C144.336 186.075 144.336 186.321 144.213 186.692C144.213 187.062 144.09 187.309 143.843 187.679C143.596 188.049 143.349 188.296 143.102 188.543C142.732 188.789 142.362 189.036 141.992 189.16C141.498 189.283 141.128 189.406 140.635 189.406C139.647 189.406 138.66 189.16 137.55 188.543L137.796 187.802C138.413 188.419 139.277 188.789 140.635 188.789C141.005 188.789 141.375 188.789 141.745 188.666C142.115 188.543 142.362 188.419 142.485 188.296C142.732 188.172 142.856 187.926 142.979 187.802C143.102 187.555 143.226 187.432 143.349 187.185C143.473 187.062 143.473 186.815 143.596 186.568C143.596 186.321 143.719 186.198 143.719 186.075C143.719 185.951 143.719 185.951 143.719 185.828V184.717C143.596 184.964 143.473 185.088 143.226 185.334C143.102 185.581 142.856 185.704 142.609 185.951C142.362 186.198 142.115 186.321 141.745 186.445C141.375 186.568 141.005 186.568 140.635 186.568C140.264 186.568 139.771 186.445 139.401 186.321C139.03 186.198 138.537 185.951 138.167 185.704C137.796 185.458 137.426 185.088 137.18 184.594C136.933 184.1 136.809 183.607 136.809 183.113C136.809 182.496 136.933 182.003 137.303 181.386C137.55 180.769 138.043 180.398 138.537 180.028C139.154 179.658 139.771 179.411 140.388 179.411C140.758 179.411 141.128 179.411 141.498 179.535C141.869 179.658 142.115 179.782 142.362 179.782C142.609 179.905 142.732 180.028 142.979 180.275C143.226 180.522 143.349 180.645 143.349 180.769C143.473 180.892 143.473 181.015 143.596 181.139V181.262V179.658H144.336V185.828V185.828ZM143.473 182.249C143.473 182.249 143.473 182.126 143.349 182.003C143.226 181.879 143.226 181.632 143.102 181.509C142.979 181.386 142.856 181.262 142.732 181.015C142.609 180.769 142.362 180.645 142.115 180.522C141.869 180.399 141.622 180.275 141.252 180.152C140.881 180.028 140.511 180.028 140.141 180.028C139.524 180.028 138.907 180.152 138.537 180.522C138.043 180.892 137.796 181.262 137.55 181.756C137.426 182.249 137.303 182.743 137.426 183.36C137.55 183.977 137.673 184.471 138.043 184.841C138.537 185.458 139.154 185.828 139.894 185.828C140.635 185.951 141.375 185.828 141.992 185.458C142.609 185.088 143.102 184.471 143.473 183.73V183.607V182.249V182.249ZM128.789 187.062H128.048V179.411H128.789V180.769C129.406 179.782 130.269 179.288 131.38 179.288C132.49 179.288 133.231 179.535 133.724 180.152C134.218 180.769 134.588 181.509 134.588 182.62V187.062H133.848V182.866C133.848 180.892 132.984 179.905 131.257 179.905C130.146 179.905 129.282 180.522 128.789 181.879V187.062ZM125.827 187.062H125.087V179.411H125.827V180.892V187.062ZM124.963 178.424H125.951V177.19H124.963V178.424ZM123.112 179.288C122.495 179.288 122.002 179.411 121.385 179.782C120.768 180.028 120.274 180.645 119.781 181.509V180.769V179.288H119.164V186.938H119.904V183.237C120.028 182.62 120.151 182.126 120.398 181.756C120.645 181.386 120.891 181.015 121.138 180.769C121.385 180.522 121.632 180.398 122.002 180.275C122.372 180.152 122.495 180.028 122.742 180.028C122.866 180.028 123.112 180.028 123.236 180.028V179.288H123.112ZM116.202 179.411H116.943V187.062H116.202V185.704C115.585 186.692 114.722 187.185 113.611 187.185C112.5 187.185 111.76 186.938 111.267 186.321C110.773 185.704 110.403 184.964 110.403 183.854V179.411H111.143V183.607C111.143 185.581 112.007 186.568 113.734 186.568C114.845 186.568 115.709 185.951 116.202 184.594V179.411ZM106.454 176.943H105.714V179.411H104.603V180.028H105.714V183.607V183.73C105.714 184.1 105.714 184.471 105.714 184.594C105.714 184.841 105.837 185.088 105.837 185.458C105.961 185.828 106.084 186.198 106.331 186.321C106.454 186.445 106.577 186.568 106.701 186.568C106.824 186.692 106.948 186.692 107.071 186.815C107.194 186.815 107.318 186.938 107.441 186.938C107.565 186.938 107.688 186.938 107.811 186.938C107.935 186.938 108.058 186.938 108.182 186.938C108.305 186.938 108.428 186.938 108.428 186.938C108.552 186.938 108.552 186.938 108.675 186.938C108.799 186.938 108.799 186.938 108.922 186.938H109.045H109.169V186.321C108.182 186.692 107.318 186.568 106.948 186.075C106.824 185.951 106.824 185.828 106.701 185.704C106.701 185.581 106.578 185.458 106.578 185.334C106.578 185.211 106.578 185.087 106.578 184.964C106.578 184.841 106.578 184.717 106.578 184.594C106.578 184.471 106.578 184.347 106.578 184.224C106.578 184.1 106.578 183.854 106.578 183.854V183.73V180.152H109.169V179.535H106.578V176.943H106.454ZM103.122 179.288C102.505 179.288 102.012 179.411 101.395 179.782C100.778 180.028 100.284 180.645 99.7908 181.509V180.769V179.288H99.0504V186.938H99.7908V183.237C99.9142 182.62 100.038 182.126 100.284 181.756C100.531 181.386 100.778 181.015 101.025 180.769C101.272 180.522 101.518 180.398 101.888 180.275C102.259 180.152 102.382 180.028 102.629 180.028C102.752 180.028 102.999 180.028 103.122 180.028V179.288V179.288ZM96.2123 179.411H96.9527V187.062H96.2123V185.704C95.5953 186.692 94.7316 187.185 93.621 187.185C92.5105 187.185 91.7701 186.938 91.2765 186.321C90.7829 185.704 90.4127 184.964 90.4127 183.854V179.411H91.1531V183.607C91.1531 185.581 92.0169 186.568 93.7444 186.568C94.855 186.568 95.7187 185.951 96.2123 184.594V179.411ZM80.2943 177.684L87.8214 187.062H88.315V176.573H87.5746V185.581L80.2943 176.573H79.554V187.062H80.2943V177.684Z" stroke="#539B3A" stroke-width="0.76" stroke-miterlimit="1.404"/>
<path d="M150.259 157.448V66.6289H133.107C146.31 88.4699 136.439 115.74 136.439 115.74C136.439 115.74 95.7183 103.277 96.0885 66.6289H71.6562V157.448H97.9394C75.1113 135.113 87.9444 99.8222 87.9444 99.8222C87.9444 99.8222 134.835 114.136 127.554 157.448H150.259Z" fill="#539B3A"/>
<path d="M295.4 99.7038C294.594 101.853 289.624 108.434 289.624 108.434C288.147 111.255 289.221 109.24 287.744 111.255C285.998 113.807 284.52 112.464 282.64 119.985C280.759 127.507 277.536 128.179 275.521 128.716C273.506 129.387 270.551 130.328 269.88 130.193C265.179 128.581 265.448 126.164 262.761 120.12C255.508 103.868 250.539 104.942 249.464 96.8833C248.39 90.5705 249.733 84.795 255.374 77.9449C261.418 70.6919 270.551 68.8116 271.895 68.6772C273.103 68.5429 282.774 68.0056 289.49 75.1243C298.22 84.1234 296.34 97.0176 295.4 99.7038Z" fill="#FDBD4A"/>
<path d="M275.387 171.159C284.386 165.249 285.461 150.072 295.4 145.64C287.341 145.371 281.7 164.578 274.447 169.145C273.91 169.413 273.641 170.085 273.91 170.622C274.044 171.159 274.715 171.428 275.387 171.159Z" fill="#539B3A"/>
<path d="M300.235 144.968C287.341 138.789 281.968 147.923 285.326 157.056C287.341 153.43 292.042 145.908 300.235 144.968Z" fill="#ABD037"/>
<path d="M270.283 160.011C265.985 153.429 252.822 154.235 249.464 160.682C254.702 155.847 265.179 155.176 268.671 160.951C268.94 161.488 269.477 161.623 269.88 161.354C270.417 161.085 270.551 160.548 270.283 160.011Z" fill="#539B3A"/>
<path d="M260.478 156.653C252.285 150.743 243.017 151.818 243.823 167.13C247.852 159.205 256.449 157.19 260.478 156.653Z" fill="#ABD037"/>
<path d="M293.788 84.5265C288.953 70.8265 272.432 64.5137 259.001 71.498C244.629 78.8853 242.883 93.257 249.599 105.48C251.882 109.509 255.374 112.867 258.598 116.225C261.687 119.448 263.702 123.075 263.97 127.507C263.97 128.179 263.433 129.522 264.91 129.388C265.179 129.388 265.582 128.85 265.448 127.239C265.448 125.492 265.851 118.239 262.09 114.747C257.792 110.718 250.942 106.017 248.927 100.241C246.912 94.6001 247.45 88.8246 249.867 83.3177C254.434 73.2441 265.582 68.1402 276.73 71.0951C292.579 75.2588 297.952 93.6599 287.878 106.688C285.595 109.643 283.58 110.986 281.431 113.941C280.222 115.553 279.148 117.836 278.476 119.851C277.939 121.463 278.073 124.418 277.939 126.164C277.805 127.239 277.402 128.044 276.193 128.313C272.566 129.119 268.94 129.925 265.313 130.731C264.776 130.865 263.702 131.134 263.702 131.671C263.567 132.208 264.776 132.477 265.313 132.611C267.731 132.88 270.283 133.148 272.701 133.283C272.163 133.686 271.761 133.82 271.223 133.954C269.074 134.491 266.925 135.029 264.776 135.566C264.239 135.7 263.433 135.969 263.567 136.506C263.702 137.044 264.508 137.178 265.045 137.178C265.851 137.312 270.149 137.446 271.492 137.581C271.223 137.984 266.657 139.058 264.776 139.595C264.508 139.73 263.97 139.864 263.97 140.401C263.97 140.939 264.508 141.073 264.91 141.207C265.448 141.342 269.343 141.745 270.82 141.879C269.209 142.416 267.865 142.685 265.716 143.491C261.687 146.177 263.03 148.46 263.164 149.803C264.373 154.504 273.91 168.339 274.715 175.726C275.387 181.636 275.521 184.994 273.238 191.038C273.104 191.709 276.73 192.247 276.999 191.172C279.014 185.128 278.745 179.621 277.805 173.443C275.656 160.414 256.852 148.192 269.611 144.296C273.91 142.685 275.656 142.953 277.67 142.55C278.073 142.416 278.611 142.282 278.745 141.744C278.745 141.207 278.073 141.073 277.67 140.804C277.402 140.67 272.701 140.267 270.552 139.998C270.82 139.595 271.223 139.461 271.492 139.461C273.775 138.924 276.059 138.387 278.208 137.849C278.611 137.715 279.282 137.312 279.148 136.909C279.148 136.506 278.476 136.238 278.073 136.238C277.267 136.103 272.566 135.969 271.089 135.835C273.372 134.894 275.656 134.357 277.805 133.686C278.342 133.551 279.416 133.148 279.282 132.611C279.148 132.074 278.208 131.94 277.67 131.805C275.79 131.537 273.91 131.402 271.895 131.268C271.895 131.134 275.387 129.925 277.267 129.388C278.745 128.985 279.416 128.179 279.551 126.567C279.685 121.463 281.163 117.031 285.192 113.404C287.878 110.986 290.027 107.897 291.908 104.808C295.803 98.6296 296.34 91.6452 293.788 84.5265Z" fill="#539B3A"/>
<path d="M248.39 194.126C249.598 191.977 250.539 190.097 251.345 189.157C253.897 186.068 259 184.724 261.552 187.276C264.373 189.963 266.119 181.904 269.88 184.456C274.715 187.814 279.685 183.516 284.789 184.321C290.027 185.262 291.102 188.217 295.534 190.769C297.683 191.977 301.444 192.918 305.07 193.723C296.34 194.664 285.998 195.335 274.85 195.335C265.448 195.335 256.314 194.932 248.39 194.126Z" fill="#663B1D"/>
<path d="M298.892 86.1383C303.19 85.4667 307.488 84.9295 311.92 84.2579C313.532 83.9892 313.532 81.303 311.786 81.5716C307.488 82.2432 303.19 82.7805 298.758 83.452C297.146 83.7207 297.28 86.4069 298.892 86.1383Z" fill="#539B3A"/>
<path d="M270.149 65.4535C269.074 60.3496 268.805 55.2456 269.208 50.0074C269.343 48.6642 266.791 48.6642 266.656 50.0074C266.253 55.3799 266.656 60.7525 267.597 65.9908C267.999 67.4683 270.417 66.931 270.149 65.4535Z" fill="#539B3A"/>
<path d="M228.108 86.2724C232.272 86.6753 236.301 87.2126 240.465 87.6155C242.077 87.7499 241.942 85.3322 240.465 85.1979C236.301 84.795 232.272 84.2577 228.108 83.8548C226.631 83.5861 226.631 86.1381 228.108 86.2724Z" fill="#539B3A"/>
<path d="M244.897 66.2595C247.315 68.2742 249.867 70.1546 252.285 72.1693C253.225 72.9752 255.105 71.3635 254.165 70.6919C251.747 68.6772 249.195 66.7968 246.778 64.782C245.838 63.9762 243.957 65.4536 244.897 66.2595Z" fill="#539B3A"/>
<path d="M298.22 65.3191C295.803 67.3339 293.251 69.2143 290.833 71.229C289.893 72.0349 288.013 70.4231 288.953 69.7515C291.37 67.7368 293.922 65.8564 296.34 63.8417C297.28 63.0358 299.161 64.6476 298.22 65.3191Z" fill="#539B3A"/>
<path d="M279.819 88.9585C279.819 88.8241 279.819 88.5555 279.819 88.4212C279.551 86.4065 277.67 85.0634 275.79 85.332C273.909 85.6006 272.566 87.481 272.969 89.4958C272.969 89.8987 273.104 90.1673 273.238 90.4359C273.238 88.6898 274.447 87.0781 276.193 86.8095C277.67 86.6751 279.148 87.6153 279.819 88.9585Z" fill="black"/>
<path d="M269.208 90.3012C269.208 90.1669 269.208 89.8983 269.208 89.764C268.94 87.7493 267.059 86.4061 265.179 86.6748C263.298 86.9434 261.955 88.8238 262.358 90.8385C262.358 91.2415 262.492 91.5101 262.627 91.7787C262.627 90.0326 263.836 88.4209 265.582 88.1522C267.059 88.0179 268.537 88.9581 269.208 90.3012Z" fill="black"/>
<path d="M259.806 96.2112C259.806 96.4799 259.806 96.7485 259.806 97.0171C260.344 101.718 265.985 106.419 272.163 105.613C278.342 104.807 282.908 98.8975 282.371 94.1965C282.371 93.9279 282.237 93.6593 282.237 93.3906C282.237 97.823 277.805 101.718 272.029 102.524C266.119 103.196 260.881 100.375 259.806 96.2112Z" fill="black"/>
<path d="M282.102 92.5853C281.028 92.7196 280.222 93.7941 280.491 94.8686C280.625 95.9431 281.699 96.749 282.774 96.4804C283.848 96.3461 284.654 95.2716 284.386 94.1971C284.251 93.1225 283.311 92.3166 282.102 92.5853Z" fill="#F8951D"/>
<path d="M284.52 94.1968L284.117 94.3311C284.252 94.734 284.117 95.137 283.849 95.5399C283.58 95.8086 283.311 96.0772 282.774 96.2115C282.371 96.3458 281.968 96.2115 281.565 95.9429C281.297 95.6742 281.028 95.4056 280.894 94.8684C280.759 94.4654 280.894 94.0624 281.162 93.6595C281.431 93.3909 281.7 93.1222 282.237 92.9879C282.64 92.8536 283.043 92.9879 283.446 93.2566C283.714 93.5252 283.983 93.7938 284.117 94.3311L284.52 94.1968L284.923 94.0625C284.654 92.7193 283.446 91.9134 282.103 92.0477C280.759 92.3164 279.953 93.5252 280.088 94.8684C280.356 96.2115 281.565 97.0174 282.908 96.8831C284.252 96.6144 285.057 95.4056 284.923 94.0625L284.52 94.1968Z" fill="black"/>
<path d="M259.403 94.3315C258.329 94.4658 257.523 95.5403 257.792 96.6148C257.926 97.6894 259 98.4953 260.075 98.2266C261.149 98.0923 261.955 97.0178 261.687 95.9433C261.552 94.8688 260.478 94.1972 259.403 94.3315Z" fill="#F8951D"/>
<path d="M261.687 95.9429L261.284 96.0772C261.418 96.4801 261.284 96.8831 261.015 97.286C260.746 97.5547 260.478 97.8233 259.941 97.9576C259.538 98.0919 259.135 97.9576 258.732 97.6889C258.463 97.4203 258.194 97.1517 258.06 96.6145C257.926 96.2115 258.06 95.8086 258.329 95.4056C258.597 95.137 258.866 94.8684 259.403 94.7341C259.806 94.5997 260.209 94.734 260.612 95.0027C260.881 95.2713 261.149 95.5399 261.284 96.0772L261.687 95.9429L262.09 95.8086C261.821 94.4654 260.612 93.6595 259.269 93.7938C257.926 94.0625 257.12 95.2713 257.254 96.6145C257.523 97.9576 258.732 98.7635 260.075 98.6292C261.418 98.3605 262.224 97.1517 262.09 95.8086L261.687 95.9429Z" fill="black"/>
</svg>
