<svg width="114" height="114" viewBox="0 0 114 114" fill="none" xmlns="http://www.w3.org/2000/svg">
<g filter="url(#filter0_d)">
<circle cx="57" cy="53" r="53" fill="white"/>
<circle cx="57" cy="53" r="52.5" stroke="white"/>
</g>
<g filter="url(#filter1_d)">
<circle cx="57" cy="53" r="50" fill="white"/>
<circle cx="57" cy="53" r="49.5" stroke="#5DD2D8" stroke-dasharray="3 3"/>
</g>
<circle cx="57" cy="53" r="45.75" stroke="#2DB3BE" stroke-width="0.5"/>
<path d="M35.3803 47.456C36.1803 47.456 36.9123 47.576 37.5763 47.816C38.2403 48.048 38.8083 48.38 39.2803 48.812C39.7523 49.244 40.1203 49.764 40.3843 50.372C40.6483 50.98 40.7803 51.656 40.7803 52.4C40.7803 53.04 40.6843 53.632 40.4922 54.176C40.3082 54.72 40.0563 55.24 39.7363 55.736C39.4243 56.232 39.0563 56.712 38.6323 57.176C38.2083 57.64 37.7643 58.112 37.3003 58.592L33.3883 62.588C33.7723 62.476 34.1483 62.392 34.5163 62.336C34.8843 62.272 35.2363 62.24 35.5723 62.24H40.0243C40.3443 62.24 40.5963 62.332 40.7803 62.516C40.9723 62.692 41.0683 62.928 41.0683 63.224V65H29.1643V64.016C29.1643 63.816 29.2043 63.608 29.2843 63.392C29.3723 63.176 29.5083 62.976 29.6923 62.792L34.9603 57.512C35.4003 57.064 35.7923 56.636 36.1363 56.228C36.4883 55.82 36.7803 55.416 37.0123 55.016C37.2523 54.616 37.4323 54.212 37.5523 53.804C37.6803 53.388 37.7443 52.952 37.7443 52.496C37.7443 52.08 37.6843 51.716 37.5643 51.404C37.4443 51.084 37.2723 50.816 37.0483 50.6C36.8243 50.384 36.5563 50.224 36.2443 50.12C35.9403 50.008 35.5963 49.952 35.2122 49.952C34.5003 49.952 33.9123 50.132 33.4483 50.492C32.9923 50.852 32.6723 51.336 32.4883 51.944C32.4003 52.248 32.2683 52.468 32.0923 52.604C31.9163 52.732 31.6923 52.796 31.4203 52.796C31.3003 52.796 31.1683 52.784 31.0243 52.76L29.4643 52.484C29.5843 51.652 29.8163 50.924 30.1603 50.3C30.5043 49.668 30.9323 49.144 31.4443 48.728C31.9643 48.304 32.5563 47.988 33.2203 47.78C33.8923 47.564 34.6123 47.456 35.3803 47.456ZM55.3981 56.324C55.3981 57.836 55.2341 59.152 54.9061 60.272C54.5861 61.384 54.1381 62.304 53.5621 63.032C52.9941 63.76 52.3181 64.304 51.5341 64.664C50.7581 65.016 49.9181 65.192 49.0141 65.192C48.1101 65.192 47.2701 65.016 46.4941 64.664C45.7261 64.304 45.0581 63.76 44.4901 63.032C43.9221 62.304 43.4781 61.384 43.1581 60.272C42.8381 59.152 42.6781 57.836 42.6781 56.324C42.6781 54.804 42.8381 53.488 43.1581 52.376C43.4781 51.264 43.9221 50.344 44.4901 49.616C45.0581 48.888 45.7261 48.348 46.4941 47.996C47.2701 47.636 48.1101 47.456 49.0141 47.456C49.9181 47.456 50.7581 47.636 51.5341 47.996C52.3181 48.348 52.9941 48.888 53.5621 49.616C54.1381 50.344 54.5861 51.264 54.9061 52.376C55.2341 53.488 55.3981 54.804 55.3981 56.324ZM52.3381 56.324C52.3381 55.068 52.2461 54.028 52.0621 53.204C51.8781 52.38 51.6301 51.724 51.3181 51.236C51.0141 50.748 50.6621 50.408 50.2621 50.216C49.8621 50.016 49.4461 49.916 49.0141 49.916C48.5901 49.916 48.1781 50.016 47.7781 50.216C47.3861 50.408 47.0381 50.748 46.7341 51.236C46.4301 51.724 46.1861 52.38 46.0021 53.204C45.8261 54.028 45.7381 55.068 45.7381 56.324C45.7381 57.58 45.8261 58.62 46.0021 59.444C46.1861 60.268 46.4301 60.924 46.7341 61.412C47.0381 61.9 47.3861 62.244 47.7781 62.444C48.1781 62.636 48.5901 62.732 49.0141 62.732C49.4461 62.732 49.8621 62.636 50.2621 62.444C50.6621 62.244 51.0141 61.9 51.3181 61.412C51.6301 60.924 51.8781 60.268 52.0621 59.444C52.2461 58.62 52.3381 57.58 52.3381 56.324ZM59.228 62.78H62.744V52.664C62.744 52.272 62.756 51.86 62.78 51.428L60.284 53.516C60.18 53.604 60.072 53.664 59.96 53.696C59.856 53.728 59.752 53.744 59.648 53.744C59.488 53.744 59.34 53.712 59.204 53.648C59.076 53.576 58.98 53.496 58.916 53.408L57.98 52.124L63.272 47.624H65.708V62.78H68.828V65H59.228V62.78ZM77.9619 54.164C78.6179 54.164 79.2539 54.272 79.8699 54.488C80.4939 54.704 81.0419 55.032 81.5139 55.472C81.9859 55.904 82.3659 56.444 82.6539 57.092C82.9419 57.74 83.0859 58.496 83.0859 59.36C83.0859 60.168 82.9379 60.928 82.6419 61.64C82.3459 62.344 81.9299 62.96 81.3939 63.488C80.8579 64.016 80.2099 64.432 79.4499 64.736C78.6979 65.04 77.8659 65.192 76.9539 65.192C76.0259 65.192 75.1939 65.044 74.4579 64.748C73.7219 64.452 73.0939 64.04 72.5739 63.512C72.0539 62.976 71.6539 62.336 71.3739 61.592C71.1019 60.84 70.9659 60.008 70.9659 59.096C70.9659 58.28 71.1299 57.444 71.4579 56.588C71.7939 55.724 72.3099 54.828 73.0059 53.9L77.1459 48.344C77.2899 48.152 77.4979 47.988 77.7699 47.852C78.0499 47.716 78.3699 47.648 78.7299 47.648H81.3699L76.2219 53.948C76.1099 54.084 76.0019 54.212 75.8979 54.332C75.8019 54.452 75.7059 54.576 75.6099 54.704C75.9459 54.536 76.3059 54.404 76.6899 54.308C77.0819 54.212 77.5059 54.164 77.9619 54.164ZM73.8099 59.552C73.8099 60.032 73.8739 60.472 74.0019 60.872C74.1379 61.264 74.3339 61.6 74.5899 61.88C74.8539 62.16 75.1779 62.38 75.5619 62.54C75.9459 62.692 76.3899 62.768 76.8939 62.768C77.3659 62.768 77.7979 62.688 78.1899 62.528C78.5899 62.368 78.9299 62.144 79.2099 61.856C79.4979 61.568 79.7219 61.232 79.8819 60.848C80.0419 60.456 80.1219 60.032 80.1219 59.576C80.1219 59.08 80.0459 58.636 79.8939 58.244C79.7419 57.844 79.5259 57.508 79.2459 57.236C78.9659 56.956 78.6299 56.744 78.2379 56.6C77.8459 56.456 77.4139 56.384 76.9419 56.384C76.4699 56.384 76.0419 56.464 75.6579 56.624C75.2739 56.784 74.9419 57.008 74.6619 57.296C74.3899 57.576 74.1779 57.912 74.0259 58.304C73.8819 58.688 73.8099 59.104 73.8099 59.552Z" fill="#2DB3BE"/>
<defs>
<filter id="filter0_d" x="0" y="0" width="114" height="114" filterUnits="userSpaceOnUse" color-interpolation-filters="sRGB">
<feFlood flood-opacity="0" result="BackgroundImageFix"/>
<feColorMatrix in="SourceAlpha" type="matrix" values="0 0 0 0 0 0 0 0 0 0 0 0 0 0 0 0 0 0 127 0"/>
<feOffset dy="4"/>
<feGaussianBlur stdDeviation="2"/>
<feColorMatrix type="matrix" values="0 0 0 0 0 0 0 0 0 0 0 0 0 0 0 0 0 0 0.1 0"/>
<feBlend mode="normal" in2="BackgroundImageFix" result="effect1_dropShadow"/>
<feBlend mode="normal" in="SourceGraphic" in2="effect1_dropShadow" result="shape"/>
</filter>
<filter id="filter1_d" x="3" y="3" width="108" height="108" filterUnits="userSpaceOnUse" color-interpolation-filters="sRGB">
<feFlood flood-opacity="0" result="BackgroundImageFix"/>
<feColorMatrix in="SourceAlpha" type="matrix" values="0 0 0 0 0 0 0 0 0 0 0 0 0 0 0 0 0 0 127 0"/>
<feOffset dy="4"/>
<feGaussianBlur stdDeviation="2"/>
<feColorMatrix type="matrix" values="0 0 0 0 0 0 0 0 0 0 0 0 0 0 0 0 0 0 0.1 0"/>
<feBlend mode="normal" in2="BackgroundImageFix" result="effect1_dropShadow"/>
<feBlend mode="normal" in="SourceGraphic" in2="effect1_dropShadow" result="shape"/>
</filter>
</defs>
</svg>
