<svg width="372" height="250" viewBox="0 0 372 250" fill="none" xmlns="http://www.w3.org/2000/svg">
<rect width="372" height="250" fill="white"/>
<path d="M106.5 214C154.273 214 193 175.273 193 127.5C193 79.7274 154.273 41 106.5 41C58.7274 41 20 79.7274 20 127.5C20 175.273 58.7274 214 106.5 214Z" stroke="#C9EBFC" stroke-width="10.603"/>
<path d="M121.678 96.0336C121.678 101.463 117.482 106.275 111.312 108.496C111.312 108.496 109.461 110.347 109.091 113.185C108.721 116.024 110.819 117.998 110.819 117.998C110.819 117.998 105.883 116.641 104.526 113.926C103.045 111.211 103.538 109.854 103.538 109.854C93.42 109.854 85.2759 103.684 85.2759 96.0336C85.2759 88.3831 93.42 82.2133 103.538 82.2133C113.41 82.2133 121.678 88.3831 121.678 96.0336ZM132.783 111.951C135.745 107.139 137.225 101.833 137.225 95.9101C137.225 92.2083 136.485 88.6298 135.004 85.0514C133.523 81.4729 131.549 78.2646 128.958 75.3031C126.367 72.465 123.405 70.1206 119.827 68.393C116.248 66.6655 112.423 65.8018 108.227 65.8018H68.124V156.374H85.7695V126.019H103.292C103.292 126.019 116.865 148.723 117.729 149.834C123.035 156.621 131.302 156.374 131.302 156.374H141.544L120.937 122.317C125.873 120.219 129.822 116.764 132.783 111.951Z" fill="#055098"/>
<path d="M131.796 176.24H131.056V178.708H129.945V179.325H131.056V182.904V183.027C131.056 183.397 131.056 183.767 131.056 183.891C131.056 184.014 131.179 184.384 131.179 184.754C131.303 185.125 131.426 185.495 131.673 185.618C131.796 185.742 131.919 185.865 132.043 185.865C132.166 185.988 132.29 185.988 132.413 186.112C132.536 186.112 132.66 186.235 132.783 186.235C132.907 186.235 133.03 186.235 133.153 186.235C133.277 186.235 133.4 186.235 133.524 186.235C133.647 186.235 133.77 186.235 133.77 186.235C133.894 186.235 133.894 186.235 134.017 186.235C134.141 186.235 134.141 186.235 134.264 186.235H134.387H134.511V185.618C133.524 185.988 132.66 185.865 132.29 185.371C132.166 185.248 132.166 185.125 132.043 185.001C132.043 184.878 131.919 184.754 131.919 184.631C131.919 184.508 131.919 184.384 131.919 184.261C131.919 184.137 131.919 184.014 131.919 183.891C131.919 183.767 131.919 183.644 131.919 183.521C131.919 183.274 131.919 183.15 131.919 183.15V183.027V179.448H134.511V178.831H131.919V176.24H131.796ZM128.341 185.865C128.094 185.988 127.847 186.112 127.724 186.235C127.23 186.482 126.737 186.605 126.12 186.605C125.503 186.605 125.009 186.482 124.516 186.235C124.022 185.988 123.652 185.742 123.282 185.371C122.912 185.001 122.665 184.631 122.418 184.138C122.171 183.644 122.171 183.15 122.171 182.657C122.171 182.163 122.295 181.546 122.418 181.176C122.665 180.682 122.912 180.312 123.282 179.942C123.652 179.572 124.022 179.325 124.516 179.078C125.009 178.831 125.503 178.708 126.12 178.708C126.737 178.708 127.23 178.831 127.724 179.078C127.724 179.078 127.847 179.202 128.094 179.325C128.218 179.448 128.341 179.448 128.341 179.572L128.094 180.189C127.847 180.065 127.601 179.819 127.354 179.695C126.984 179.572 126.614 179.448 126.12 179.448C125.626 179.448 125.256 179.572 124.886 179.695C124.516 179.819 124.146 180.065 123.899 180.436C123.652 180.682 123.405 181.053 123.282 181.423C123.158 181.793 123.035 182.286 123.035 182.657C123.035 183.15 123.158 183.52 123.282 184.014C123.405 184.384 123.652 184.754 123.899 185.125C124.146 185.371 124.516 185.618 124.886 185.865C125.256 185.988 125.626 186.112 126.12 186.112C126.614 186.112 126.984 185.988 127.354 185.865C127.601 185.742 127.847 185.618 127.971 185.495L128.341 185.865ZM116.989 179.202C117.112 179.202 117.235 179.202 117.359 179.202C117.482 179.202 117.606 179.325 117.852 179.325C118.099 179.325 118.223 179.572 118.346 179.695C118.469 179.819 118.593 180.065 118.84 180.189C118.963 180.436 119.086 180.682 119.21 181.053C119.333 181.546 119.457 181.916 119.457 182.04H113.904C113.904 181.67 114.027 181.423 114.151 181.053C114.274 180.682 114.521 180.312 114.768 180.065C115.014 179.819 115.385 179.572 115.755 179.325C116.125 179.325 116.495 179.202 116.989 179.202ZM120.197 182.78C120.197 182.163 120.074 181.546 119.95 181.053C119.827 180.559 119.58 180.065 119.333 179.819C119.086 179.572 118.84 179.202 118.469 179.078C118.223 178.831 117.852 178.708 117.606 178.585C117.359 178.461 117.112 178.461 116.865 178.461C116.248 178.461 115.755 178.585 115.261 178.831C114.768 179.078 114.397 179.325 114.027 179.695C113.657 180.065 113.41 180.436 113.163 180.929C112.917 181.423 112.917 181.916 112.917 182.41C112.917 182.904 113.04 183.52 113.163 183.891C113.41 184.384 113.657 184.754 114.027 185.125C114.397 185.495 114.768 185.742 115.261 185.988C115.755 186.235 116.248 186.359 116.865 186.359C117.482 186.359 117.976 186.235 118.469 185.988C118.593 185.988 118.716 185.865 118.84 185.742V184.878C118.593 185.001 118.469 185.125 118.223 185.248C117.852 185.371 117.359 185.495 116.989 185.495C116.495 185.495 116.125 185.371 115.755 185.248C115.385 185.125 115.014 184.878 114.768 184.508C114.521 184.261 114.274 183.891 114.151 183.397C114.027 183.027 113.904 182.78 113.904 182.41H120.197V182.78ZM103.909 178.708H104.649V180.312C104.896 179.942 105.39 179.448 106.007 179.078C106.623 178.708 107.24 178.461 107.734 178.461C108.104 178.461 108.598 178.585 108.968 178.708C109.338 178.831 109.832 179.078 110.079 179.325C110.449 179.572 110.696 179.942 111.066 180.436C111.313 180.929 111.436 181.423 111.559 181.916C111.683 183.15 111.313 184.137 110.696 185.001C109.955 185.865 109.091 186.359 107.981 186.359C107.611 186.359 107.117 186.235 106.747 186.112C106.377 185.988 106.007 185.742 105.76 185.618C105.513 185.371 105.266 185.248 105.143 185.001C105.019 184.878 104.896 184.631 104.773 184.508V188.456H104.032V178.708H103.909ZM104.649 184.014C104.649 184.014 104.649 184.137 104.773 184.261C104.896 184.384 104.896 184.508 105.019 184.631C105.143 184.754 105.266 184.878 105.39 185.001C105.513 185.125 105.76 185.248 106.007 185.371C106.253 185.495 106.5 185.618 106.87 185.618C107.24 185.742 107.611 185.742 107.981 185.742C108.598 185.742 109.215 185.495 109.585 185.125C110.079 184.754 110.325 184.261 110.572 183.644C110.696 183.027 110.819 182.41 110.696 181.793C110.572 181.176 110.449 180.559 110.079 180.189C109.585 179.572 108.968 179.325 108.351 179.078C107.611 178.955 106.994 178.955 106.253 179.325C105.636 179.572 105.143 180.065 104.773 180.682V182.163V184.014H104.649ZM101.688 179.448L101.317 179.325C101.071 179.202 100.824 179.078 100.454 178.955C100.084 178.831 99.7134 178.708 99.3432 178.708C98.7262 178.585 98.1092 178.708 97.6156 178.955C96.9987 179.202 96.7519 179.695 96.5051 180.189C96.3817 180.806 96.3817 181.299 96.7519 181.793C97.1221 182.287 97.6156 182.533 98.356 182.78C98.8496 182.903 99.3432 183.027 99.7134 183.15C100.084 183.274 100.33 183.397 100.701 183.644C100.947 183.891 101.071 184.137 101.071 184.384C101.071 184.878 100.947 185.248 100.577 185.495C100.207 185.742 99.8368 185.988 99.0964 185.988C98.7262 185.988 98.2326 185.865 97.739 185.742C97.2455 185.618 96.9987 185.371 96.7519 185.248C96.6285 185.125 96.3817 185.001 96.3817 185.001L96.0115 185.618C96.1349 185.742 96.3817 185.988 96.8753 186.112C97.2455 186.235 97.739 186.482 98.2326 186.482C98.7262 186.605 99.2198 186.605 99.7134 186.482C100.207 186.482 100.701 186.235 101.071 185.865C101.441 185.495 101.688 185.001 101.688 184.384C101.688 183.891 101.688 183.52 101.441 183.15C101.194 182.78 100.824 182.533 100.454 182.41C100.084 182.287 99.59 182.04 99.0964 181.916C98.6028 181.793 98.2326 181.67 97.8624 181.423C97.4923 181.299 97.2455 181.053 97.1221 180.806C96.9987 180.559 96.9987 180.189 97.2455 179.819C97.4923 179.448 97.739 179.325 98.1092 179.202C98.4794 179.078 98.8496 179.078 99.0964 179.078C99.4666 179.078 99.7134 179.202 100.084 179.325C100.454 179.448 100.701 179.572 100.824 179.572C100.947 179.695 101.071 179.695 101.071 179.695L101.688 179.448ZM91.8161 179.202C91.9395 179.202 92.0629 179.202 92.1863 179.202C92.3097 179.202 92.433 179.325 92.6798 179.325C92.9266 179.448 93.05 179.572 93.1734 179.695C93.2968 179.819 93.4202 180.065 93.667 180.189C93.7904 180.436 93.9138 180.682 94.0372 181.053C94.1606 181.546 94.284 181.916 94.284 182.04H88.7312C88.7312 181.67 88.8546 181.423 88.978 181.053C89.1014 180.682 89.3482 180.312 89.595 180.065C89.8417 179.819 90.2119 179.572 90.5821 179.325C90.8289 179.325 91.1991 179.202 91.8161 179.202C91.6927 179.202 91.6927 179.202 91.8161 179.202ZM94.9009 182.78C94.9009 182.163 94.7776 181.546 94.6542 181.053C94.5308 180.559 94.284 180.065 94.0372 179.819C93.7904 179.572 93.5436 179.202 93.1734 179.078C92.9266 178.831 92.5565 178.708 92.3097 178.585C92.0629 178.461 91.8161 178.461 91.5693 178.461C90.9523 178.461 90.4587 178.585 89.9651 178.831C89.4716 179.078 89.1014 179.325 88.7312 179.695C88.361 180.065 88.1142 180.436 87.8674 180.929C87.6206 181.423 87.6206 181.916 87.6206 182.41C87.6206 182.904 87.744 183.52 87.8674 183.891C88.1142 184.384 88.361 184.754 88.7312 185.125C89.1014 185.495 89.4716 185.742 89.9651 185.988C90.4587 186.235 90.9523 186.359 91.5693 186.359C92.1863 186.359 92.6798 186.235 93.1734 185.988C93.2968 185.988 93.4202 185.865 93.5436 185.742V184.878C93.2968 185.001 93.1734 185.125 92.9266 185.248C92.5565 185.371 92.0629 185.495 91.6927 185.495C91.1991 185.495 90.8289 185.371 90.4587 185.248C90.0885 185.125 89.7184 184.878 89.4716 184.508C89.2248 184.261 88.978 183.891 88.8546 183.397C88.7312 183.027 88.6078 182.78 88.6078 182.41H94.9009V182.78ZM84.906 181.793C85.1527 181.916 85.3995 182.04 85.6463 182.287C85.8931 182.533 86.0165 182.657 86.2633 183.027C86.3867 183.274 86.5101 183.644 86.5101 184.014C86.5101 184.631 86.6335 185.495 86.7569 186.235H85.8931V185.865C85.8931 185.618 85.7697 185.371 85.7697 185.001C85.7697 184.631 85.7697 184.261 85.7697 184.014C85.7697 183.767 85.7697 183.644 85.6463 183.397C85.6463 183.274 85.5229 183.027 85.3995 182.904C85.2761 182.78 85.2761 182.657 85.0293 182.533C84.9059 182.41 84.7825 182.287 84.6591 182.287C84.5358 182.163 84.4124 182.163 84.1656 182.163C83.9188 182.163 83.7954 182.04 83.672 182.04C83.5486 182.04 83.4252 182.04 83.1784 181.916C82.9316 181.916 82.8082 181.916 82.6848 181.916C82.5614 181.916 82.438 181.916 82.1912 181.916C81.9445 181.916 81.8211 181.916 81.8211 181.916H81.5743H79.3532V186.235H78.6128V175.747H79.2298H79.3532H82.9316C83.1784 175.747 83.5486 175.747 83.7954 175.87C84.0422 175.87 84.4124 175.993 84.7826 176.117C85.1527 176.24 85.5229 176.363 85.7697 176.61C86.0165 176.857 86.2633 177.104 86.5101 177.474C86.6335 177.844 86.7569 178.215 86.7569 178.708C86.7569 179.572 86.5101 180.312 85.8931 180.929C85.7697 181.053 85.5229 181.176 85.1527 181.299C84.7826 181.423 84.4124 181.546 84.0422 181.67C84.289 181.67 84.5358 181.793 84.906 181.793ZM79.3532 181.299H82.5614C83.7954 181.299 84.6592 181.053 85.1527 180.682C85.6463 180.189 86.0165 179.572 86.0165 178.708C86.0165 178.091 85.7697 177.474 85.1527 177.104C84.6592 176.734 83.9188 176.487 83.1784 176.487H79.4766V178.708V181.299H79.3532Z" fill="#055098"/>
<path d="M91.8161 179.202C91.9395 179.202 92.0629 179.202 92.1863 179.202C92.3097 179.202 92.433 179.325 92.6798 179.325C92.9266 179.448 93.05 179.572 93.1734 179.695C93.2968 179.819 93.4202 180.065 93.667 180.189C93.7904 180.436 93.9138 180.682 94.0372 181.053C94.1606 181.546 94.284 181.916 94.284 182.04H88.7312C88.7312 181.67 88.8546 181.423 88.978 181.053C89.1014 180.682 89.3482 180.312 89.595 180.065C89.8417 179.819 90.2119 179.572 90.5821 179.325C90.8289 179.325 91.1991 179.202 91.8161 179.202ZM91.8161 179.202C91.6927 179.202 91.6927 179.202 91.8161 179.202ZM131.796 176.24H131.056V178.708H129.945V179.325H131.056V182.904V183.027C131.056 183.397 131.056 183.767 131.056 183.891C131.056 184.014 131.179 184.384 131.179 184.754C131.303 185.125 131.426 185.495 131.673 185.618C131.796 185.742 131.919 185.865 132.043 185.865C132.166 185.988 132.29 185.988 132.413 186.112C132.536 186.112 132.66 186.235 132.783 186.235C132.907 186.235 133.03 186.235 133.153 186.235C133.277 186.235 133.4 186.235 133.524 186.235C133.647 186.235 133.77 186.235 133.77 186.235C133.894 186.235 133.894 186.235 134.017 186.235C134.141 186.235 134.141 186.235 134.264 186.235H134.387H134.511V185.618C133.524 185.988 132.66 185.865 132.29 185.371C132.166 185.248 132.166 185.125 132.043 185.001C132.043 184.878 131.919 184.754 131.919 184.631C131.919 184.508 131.919 184.384 131.919 184.261C131.919 184.137 131.919 184.014 131.919 183.891C131.919 183.767 131.919 183.644 131.919 183.521C131.919 183.274 131.919 183.15 131.919 183.15V183.027V179.448H134.511V178.831H131.919V176.24H131.796ZM128.341 185.865C128.094 185.988 127.847 186.112 127.724 186.235C127.23 186.482 126.737 186.605 126.12 186.605C125.503 186.605 125.009 186.482 124.516 186.235C124.022 185.988 123.652 185.742 123.282 185.371C122.912 185.001 122.665 184.631 122.418 184.138C122.171 183.644 122.171 183.15 122.171 182.657C122.171 182.163 122.295 181.546 122.418 181.176C122.665 180.682 122.912 180.312 123.282 179.942C123.652 179.572 124.022 179.325 124.516 179.078C125.009 178.831 125.503 178.708 126.12 178.708C126.737 178.708 127.23 178.831 127.724 179.078C127.724 179.078 127.847 179.202 128.094 179.325C128.218 179.448 128.341 179.448 128.341 179.572L128.094 180.189C127.847 180.065 127.601 179.819 127.354 179.695C126.984 179.572 126.614 179.448 126.12 179.448C125.626 179.448 125.256 179.572 124.886 179.695C124.516 179.819 124.146 180.065 123.899 180.436C123.652 180.682 123.405 181.053 123.282 181.423C123.158 181.793 123.035 182.286 123.035 182.657C123.035 183.15 123.158 183.52 123.282 184.014C123.405 184.384 123.652 184.754 123.899 185.125C124.146 185.371 124.516 185.618 124.886 185.865C125.256 185.988 125.626 186.112 126.12 186.112C126.614 186.112 126.984 185.988 127.354 185.865C127.601 185.742 127.847 185.618 127.971 185.495L128.341 185.865ZM116.989 179.202C117.112 179.202 117.235 179.202 117.359 179.202C117.482 179.202 117.606 179.325 117.852 179.325C118.099 179.325 118.223 179.572 118.346 179.695C118.469 179.819 118.593 180.065 118.84 180.189C118.963 180.436 119.086 180.682 119.21 181.053C119.333 181.546 119.457 181.916 119.457 182.04H113.904C113.904 181.67 114.027 181.423 114.151 181.053C114.274 180.682 114.521 180.312 114.768 180.065C115.014 179.819 115.385 179.572 115.755 179.325C116.125 179.325 116.495 179.202 116.989 179.202ZM120.197 182.78C120.197 182.163 120.074 181.546 119.95 181.053C119.827 180.559 119.58 180.065 119.333 179.819C119.086 179.572 118.84 179.202 118.469 179.078C118.223 178.831 117.852 178.708 117.606 178.585C117.359 178.461 117.112 178.461 116.865 178.461C116.248 178.461 115.755 178.585 115.261 178.831C114.768 179.078 114.397 179.325 114.027 179.695C113.657 180.065 113.41 180.436 113.163 180.929C112.917 181.423 112.917 181.916 112.917 182.41C112.917 182.904 113.04 183.52 113.163 183.891C113.41 184.384 113.657 184.754 114.027 185.125C114.397 185.495 114.768 185.742 115.261 185.988C115.755 186.235 116.248 186.359 116.865 186.359C117.482 186.359 117.976 186.235 118.469 185.988C118.593 185.988 118.716 185.865 118.84 185.742V184.878C118.593 185.001 118.469 185.125 118.223 185.248C117.852 185.371 117.359 185.495 116.989 185.495C116.495 185.495 116.125 185.371 115.755 185.248C115.385 185.125 115.014 184.878 114.768 184.508C114.521 184.261 114.274 183.891 114.151 183.397C114.027 183.027 113.904 182.78 113.904 182.41H120.197V182.78ZM103.909 178.708H104.649V180.312C104.896 179.942 105.39 179.448 106.007 179.078C106.623 178.708 107.24 178.461 107.734 178.461C108.104 178.461 108.598 178.585 108.968 178.708C109.338 178.831 109.832 179.078 110.079 179.325C110.449 179.572 110.696 179.942 111.066 180.436C111.313 180.929 111.436 181.423 111.559 181.916C111.683 183.15 111.313 184.137 110.696 185.001C109.955 185.865 109.091 186.359 107.981 186.359C107.611 186.359 107.117 186.235 106.747 186.112C106.377 185.988 106.007 185.742 105.76 185.618C105.513 185.371 105.266 185.248 105.143 185.001C105.019 184.878 104.896 184.631 104.773 184.508V188.456H104.032V178.708H103.909ZM104.649 184.014C104.649 184.014 104.649 184.137 104.773 184.261C104.896 184.384 104.896 184.508 105.019 184.631C105.143 184.754 105.266 184.878 105.39 185.001C105.513 185.125 105.76 185.248 106.007 185.371C106.253 185.495 106.5 185.618 106.87 185.618C107.24 185.742 107.611 185.742 107.981 185.742C108.598 185.742 109.215 185.495 109.585 185.125C110.079 184.754 110.325 184.261 110.572 183.644C110.696 183.027 110.819 182.41 110.696 181.793C110.572 181.176 110.449 180.559 110.079 180.189C109.585 179.572 108.968 179.325 108.351 179.078C107.611 178.955 106.994 178.955 106.253 179.325C105.636 179.572 105.143 180.065 104.773 180.682V182.163V184.014H104.649ZM101.688 179.448L101.317 179.325C101.071 179.202 100.824 179.078 100.454 178.955C100.084 178.831 99.7134 178.708 99.3432 178.708C98.7262 178.585 98.1092 178.708 97.6156 178.955C96.9987 179.202 96.7519 179.695 96.5051 180.189C96.3817 180.806 96.3817 181.299 96.7519 181.793C97.1221 182.287 97.6156 182.533 98.356 182.78C98.8496 182.903 99.3432 183.027 99.7134 183.15C100.084 183.274 100.33 183.397 100.701 183.644C100.947 183.891 101.071 184.137 101.071 184.384C101.071 184.878 100.947 185.248 100.577 185.495C100.207 185.742 99.8368 185.988 99.0964 185.988C98.7262 185.988 98.2326 185.865 97.739 185.742C97.2455 185.618 96.9987 185.371 96.7519 185.248C96.6285 185.125 96.3817 185.001 96.3817 185.001L96.0115 185.618C96.1349 185.742 96.3817 185.988 96.8753 186.112C97.2455 186.235 97.739 186.482 98.2326 186.482C98.7262 186.605 99.2198 186.605 99.7134 186.482C100.207 186.482 100.701 186.235 101.071 185.865C101.441 185.495 101.688 185.001 101.688 184.384C101.688 183.891 101.688 183.52 101.441 183.15C101.194 182.78 100.824 182.533 100.454 182.41C100.084 182.287 99.59 182.04 99.0964 181.916C98.6028 181.793 98.2326 181.67 97.8624 181.423C97.4923 181.299 97.2455 181.053 97.1221 180.806C96.9987 180.559 96.9987 180.189 97.2455 179.819C97.4923 179.448 97.739 179.325 98.1092 179.202C98.4794 179.078 98.8496 179.078 99.0964 179.078C99.4666 179.078 99.7134 179.202 100.084 179.325C100.454 179.448 100.701 179.572 100.824 179.572C100.947 179.695 101.071 179.695 101.071 179.695L101.688 179.448ZM94.9009 182.78C94.9009 182.163 94.7776 181.546 94.6542 181.053C94.5308 180.559 94.284 180.065 94.0372 179.819C93.7904 179.572 93.5436 179.202 93.1734 179.078C92.9266 178.831 92.5565 178.708 92.3097 178.585C92.0629 178.461 91.8161 178.461 91.5693 178.461C90.9523 178.461 90.4587 178.585 89.9651 178.831C89.4716 179.078 89.1014 179.325 88.7312 179.695C88.361 180.065 88.1142 180.436 87.8674 180.929C87.6206 181.423 87.6206 181.916 87.6206 182.41C87.6206 182.904 87.744 183.52 87.8674 183.891C88.1142 184.384 88.361 184.754 88.7312 185.125C89.1014 185.495 89.4716 185.742 89.9651 185.988C90.4587 186.235 90.9523 186.359 91.5693 186.359C92.1863 186.359 92.6798 186.235 93.1734 185.988C93.2968 185.988 93.4202 185.865 93.5436 185.742V184.878C93.2968 185.001 93.1734 185.125 92.9266 185.248C92.5565 185.371 92.0629 185.495 91.6927 185.495C91.1991 185.495 90.8289 185.371 90.4587 185.248C90.0885 185.125 89.7184 184.878 89.4716 184.508C89.2248 184.261 88.978 183.891 88.8546 183.397C88.7312 183.027 88.6078 182.78 88.6078 182.41H94.9009V182.78ZM84.906 181.793C85.1527 181.916 85.3995 182.04 85.6463 182.287C85.8931 182.533 86.0165 182.657 86.2633 183.027C86.3867 183.274 86.5101 183.644 86.5101 184.014C86.5101 184.631 86.6335 185.495 86.7569 186.235H85.8931V185.865C85.8931 185.618 85.7697 185.371 85.7697 185.001C85.7697 184.631 85.7697 184.261 85.7697 184.014C85.7697 183.767 85.7697 183.644 85.6463 183.397C85.6463 183.274 85.5229 183.027 85.3995 182.904C85.2761 182.78 85.2761 182.657 85.0293 182.533C84.9059 182.41 84.7825 182.287 84.6591 182.287C84.5358 182.163 84.4124 182.163 84.1656 182.163C83.9188 182.163 83.7954 182.04 83.672 182.04C83.5486 182.04 83.4252 182.04 83.1784 181.916C82.9316 181.916 82.8082 181.916 82.6848 181.916C82.5614 181.916 82.438 181.916 82.1912 181.916C81.9445 181.916 81.8211 181.916 81.8211 181.916H81.5743H79.3532V186.235H78.6128V175.747H79.2298H79.3532H82.9316C83.1784 175.747 83.5486 175.747 83.7954 175.87C84.0422 175.87 84.4124 175.993 84.7826 176.117C85.1527 176.24 85.5229 176.363 85.7697 176.61C86.0165 176.857 86.2633 177.104 86.5101 177.474C86.6335 177.844 86.7569 178.215 86.7569 178.708C86.7569 179.572 86.5101 180.312 85.8931 180.929C85.7697 181.053 85.5229 181.176 85.1527 181.299C84.7826 181.423 84.4124 181.546 84.0422 181.67C84.289 181.67 84.5358 181.793 84.906 181.793ZM79.3532 181.299H82.5614C83.7954 181.299 84.6592 181.053 85.1527 180.682C85.6463 180.189 86.0165 179.572 86.0165 178.708C86.0165 178.091 85.7697 177.474 85.1527 177.104C84.6592 176.734 83.9188 176.487 83.1784 176.487H79.4766V178.708V181.299H79.3532Z" stroke="#055098" stroke-width="0.76" stroke-miterlimit="1.404"/>
<path d="M247.905 124.68C247.905 124.68 246.619 107.318 262.213 98.1543C275.878 89.9553 291.472 89.473 297.581 90.2768C314.622 92.5275 325.876 99.9227 330.216 107.8C334.557 115.678 330.377 135.612 317.195 143.49C303.851 151.367 296.617 152.332 288.578 151.689C280.54 151.046 278.933 155.386 270.894 159.727C262.695 164.068 249.995 167.926 245.172 166.479C242.278 165.675 245.654 163.425 245.654 163.425C245.654 163.425 251.12 158.923 254.496 152.493C257.712 146.062 253.049 141.561 250.959 136.577C248.709 131.754 247.905 124.68 247.905 124.68Z" fill="#F6A3AC"/>
<path d="M291.794 92.0459C280.058 92.0459 269.287 95.5827 261.409 101.531C253.532 107.318 248.548 115.518 248.548 124.681C248.548 131.915 255.3 141.883 256.747 143.812C261.891 147.992 244.047 166.801 244.047 166.801C244.047 166.801 267.679 163.104 272.984 154.101C274.431 154.583 284.881 157.316 291.472 157.316C303.208 157.316 313.979 153.779 321.857 147.831C329.734 142.044 334.718 133.845 334.718 124.681C334.718 115.518 329.734 107.318 321.857 101.531C314.301 95.7434 303.529 92.0459 291.794 92.0459ZM291.794 95.1004C303.047 95.1004 313.015 98.4764 320.41 103.942C327.644 109.408 331.985 116.643 331.985 124.681C331.985 132.719 325.393 139.632 318.159 144.937C310.925 150.403 303.047 154.262 291.954 154.262C285.363 154.262 275.878 151.046 273.306 150.886C262.695 162.782 249.513 164.229 249.513 164.229C249.513 164.229 265.589 150.403 260.605 143.169C260.123 142.204 259.802 142.365 259.802 142.365C254.657 137.381 251.763 131.272 251.763 124.681C251.763 116.643 257.39 110.695 264.624 105.229C271.698 99.9233 280.701 95.1004 291.794 95.1004H298.063H291.794Z" fill="#055098"/>
<path d="M308.995 115.356L309.639 115.999L308.995 115.356L309.639 115.999L308.995 115.356C308.835 115.517 307.87 116.481 306.584 117.285C305.941 117.768 305.137 118.089 304.333 118.411C303.529 118.732 302.565 118.893 301.6 118.893C300.796 118.893 299.832 118.732 298.867 118.411C297.903 118.089 296.938 117.607 295.813 116.642C295.17 116.16 294.044 116.16 293.562 116.964C293.08 117.607 293.08 118.732 293.884 119.214C295.17 120.179 296.456 120.983 297.742 121.465C299.028 121.947 300.314 122.108 301.439 122.108C302.886 122.108 304.333 121.787 305.459 121.304C307.227 120.661 308.674 119.697 309.639 118.893C310.603 118.089 311.246 117.446 311.246 117.446C311.889 116.803 311.728 115.678 311.085 115.195C310.603 114.552 309.639 114.552 308.995 115.356Z" fill="black"/>
<path d="M268.001 117.446C268.001 117.446 268.965 118.572 270.734 119.858C271.537 120.501 272.663 120.983 273.788 121.466C274.914 121.948 276.36 122.269 277.807 122.269C278.933 122.269 280.219 122.109 281.505 121.626C282.791 121.144 284.077 120.501 285.363 119.376C286.006 118.893 286.167 117.768 285.685 117.125C285.202 116.482 284.077 116.321 283.434 116.803C282.309 117.607 281.344 118.25 280.379 118.572C279.415 118.893 278.611 119.054 277.647 119.054C276.682 119.054 275.557 118.893 274.753 118.572C273.467 118.09 272.181 117.286 271.377 116.643C271.055 116.321 270.734 116 270.412 115.839C270.251 115.678 270.251 115.678 270.251 115.678L269.769 116L270.251 115.678L269.769 116L270.251 115.678C269.608 115.035 268.644 114.874 268.001 115.517C267.518 115.678 267.518 116.643 268.001 117.446Z" fill="black"/>
<path d="M277.968 129.182C278.289 143.168 289.704 143.168 289.704 143.168C289.704 143.168 301.118 143.168 301.439 129.182C301.439 129.182 297.42 134.005 289.704 134.005C282.308 134.005 277.968 129.182 277.968 129.182Z" fill="black"/>
</svg>
