<svg width="114" height="114" viewBox="0 0 114 114" fill="none" xmlns="http://www.w3.org/2000/svg">
<g filter="url(#filter0_d)">
<circle cx="57" cy="53" r="53" fill="white"/>
<circle cx="57" cy="53" r="52.5" stroke="white"/>
</g>
<g filter="url(#filter1_d)">
<circle cx="57" cy="53" r="50" fill="white"/>
<circle cx="57" cy="53" r="49.5" stroke="#5DD2D8" stroke-dasharray="3 3"/>
</g>
<circle cx="57" cy="53" r="45.75" stroke="#2DB3BE" stroke-width="0.5"/>
<path d="M35.3803 47.456C36.1803 47.456 36.9123 47.576 37.5763 47.816C38.2403 48.048 38.8083 48.38 39.2803 48.812C39.7523 49.244 40.1203 49.764 40.3843 50.372C40.6483 50.98 40.7803 51.656 40.7803 52.4C40.7803 53.04 40.6843 53.632 40.4922 54.176C40.3082 54.72 40.0563 55.24 39.7363 55.736C39.4243 56.232 39.0563 56.712 38.6323 57.176C38.2083 57.64 37.7643 58.112 37.3003 58.592L33.3883 62.588C33.7723 62.476 34.1483 62.392 34.5163 62.336C34.8843 62.272 35.2363 62.24 35.5723 62.24H40.0243C40.3443 62.24 40.5963 62.332 40.7803 62.516C40.9723 62.692 41.0683 62.928 41.0683 63.224V65H29.1643V64.016C29.1643 63.816 29.2043 63.608 29.2843 63.392C29.3723 63.176 29.5083 62.976 29.6923 62.792L34.9603 57.512C35.4003 57.064 35.7923 56.636 36.1363 56.228C36.4883 55.82 36.7803 55.416 37.0123 55.016C37.2523 54.616 37.4323 54.212 37.5523 53.804C37.6803 53.388 37.7443 52.952 37.7443 52.496C37.7443 52.08 37.6843 51.716 37.5643 51.404C37.4443 51.084 37.2723 50.816 37.0483 50.6C36.8243 50.384 36.5563 50.224 36.2443 50.12C35.9403 50.008 35.5963 49.952 35.2122 49.952C34.5003 49.952 33.9123 50.132 33.4483 50.492C32.9923 50.852 32.6723 51.336 32.4883 51.944C32.4003 52.248 32.2683 52.468 32.0923 52.604C31.9163 52.732 31.6923 52.796 31.4203 52.796C31.3003 52.796 31.1683 52.784 31.0243 52.76L29.4643 52.484C29.5843 51.652 29.8163 50.924 30.1603 50.3C30.5043 49.668 30.9323 49.144 31.4443 48.728C31.9643 48.304 32.5563 47.988 33.2203 47.78C33.8923 47.564 34.6123 47.456 35.3803 47.456ZM55.3981 56.324C55.3981 57.836 55.2341 59.152 54.9061 60.272C54.5861 61.384 54.1381 62.304 53.5621 63.032C52.9941 63.76 52.3181 64.304 51.5341 64.664C50.7581 65.016 49.9181 65.192 49.0141 65.192C48.1101 65.192 47.2701 65.016 46.4941 64.664C45.7261 64.304 45.0581 63.76 44.4901 63.032C43.9221 62.304 43.4781 61.384 43.1581 60.272C42.8381 59.152 42.6781 57.836 42.6781 56.324C42.6781 54.804 42.8381 53.488 43.1581 52.376C43.4781 51.264 43.9221 50.344 44.4901 49.616C45.0581 48.888 45.7261 48.348 46.4941 47.996C47.2701 47.636 48.1101 47.456 49.0141 47.456C49.9181 47.456 50.7581 47.636 51.5341 47.996C52.3181 48.348 52.9941 48.888 53.5621 49.616C54.1381 50.344 54.5861 51.264 54.9061 52.376C55.2341 53.488 55.3981 54.804 55.3981 56.324ZM52.3381 56.324C52.3381 55.068 52.2461 54.028 52.0621 53.204C51.8781 52.38 51.6301 51.724 51.3181 51.236C51.0141 50.748 50.6621 50.408 50.2621 50.216C49.8621 50.016 49.4461 49.916 49.0141 49.916C48.5901 49.916 48.1781 50.016 47.7781 50.216C47.3861 50.408 47.0381 50.748 46.7341 51.236C46.4301 51.724 46.1861 52.38 46.0021 53.204C45.8261 54.028 45.7381 55.068 45.7381 56.324C45.7381 57.58 45.8261 58.62 46.0021 59.444C46.1861 60.268 46.4301 60.924 46.7341 61.412C47.0381 61.9 47.3861 62.244 47.7781 62.444C48.1781 62.636 48.5901 62.732 49.0141 62.732C49.4461 62.732 49.8621 62.636 50.2621 62.444C50.6621 62.244 51.0141 61.9 51.3181 61.412C51.6301 60.924 51.8781 60.268 52.0621 59.444C52.2461 58.62 52.3381 57.58 52.3381 56.324ZM69.32 56.324C69.32 57.836 69.156 59.152 68.828 60.272C68.508 61.384 68.06 62.304 67.484 63.032C66.916 63.76 66.24 64.304 65.456 64.664C64.68 65.016 63.84 65.192 62.936 65.192C62.032 65.192 61.192 65.016 60.416 64.664C59.648 64.304 58.98 63.76 58.412 63.032C57.844 62.304 57.4 61.384 57.08 60.272C56.76 59.152 56.6 57.836 56.6 56.324C56.6 54.804 56.76 53.488 57.08 52.376C57.4 51.264 57.844 50.344 58.412 49.616C58.98 48.888 59.648 48.348 60.416 47.996C61.192 47.636 62.032 47.456 62.936 47.456C63.84 47.456 64.68 47.636 65.456 47.996C66.24 48.348 66.916 48.888 67.484 49.616C68.06 50.344 68.508 51.264 68.828 52.376C69.156 53.488 69.32 54.804 69.32 56.324ZM66.26 56.324C66.26 55.068 66.168 54.028 65.984 53.204C65.8 52.38 65.552 51.724 65.24 51.236C64.936 50.748 64.584 50.408 64.184 50.216C63.784 50.016 63.368 49.916 62.936 49.916C62.512 49.916 62.1 50.016 61.7 50.216C61.308 50.408 60.96 50.748 60.656 51.236C60.352 51.724 60.108 52.38 59.924 53.204C59.748 54.028 59.66 55.068 59.66 56.324C59.66 57.58 59.748 58.62 59.924 59.444C60.108 60.268 60.352 60.924 60.656 61.412C60.96 61.9 61.308 62.244 61.7 62.444C62.1 62.636 62.512 62.732 62.936 62.732C63.368 62.732 63.784 62.636 64.184 62.444C64.584 62.244 64.936 61.9 65.24 61.412C65.552 60.924 65.8 60.268 65.984 59.444C66.168 58.62 66.26 57.58 66.26 56.324ZM76.2819 58.076C75.6819 58.076 75.0939 57.972 74.5179 57.764C73.9419 57.556 73.4259 57.244 72.9699 56.828C72.5219 56.404 72.1619 55.884 71.8899 55.268C71.6179 54.644 71.4819 53.916 71.4819 53.084C71.4819 52.308 71.6259 51.58 71.9139 50.9C72.2019 50.22 72.6059 49.624 73.1259 49.112C73.6459 48.6 74.2699 48.196 74.9979 47.9C75.7259 47.604 76.5299 47.456 77.4099 47.456C78.2979 47.456 79.0939 47.596 79.7979 47.876C80.5099 48.156 81.1139 48.548 81.6099 49.052C82.1139 49.556 82.4979 50.16 82.7619 50.864C83.0339 51.568 83.1699 52.34 83.1699 53.18C83.1699 53.716 83.1219 54.224 83.0259 54.704C82.9379 55.184 82.8059 55.648 82.6299 56.096C82.4619 56.536 82.2579 56.968 82.0179 57.392C81.7779 57.808 81.5099 58.228 81.2139 58.652L77.2419 64.316C77.1059 64.508 76.9019 64.672 76.6299 64.808C76.3659 64.936 76.0619 65 75.7179 65H72.9939L78.3819 58.268C78.5179 58.1 78.6459 57.936 78.7659 57.776C78.8859 57.616 79.0019 57.456 79.1139 57.296C78.7139 57.552 78.2739 57.748 77.7939 57.884C77.3139 58.012 76.8099 58.076 76.2819 58.076ZM80.3259 52.88C80.3259 52.408 80.2539 51.988 80.1099 51.62C79.9659 51.244 79.7619 50.928 79.4979 50.672C79.2339 50.416 78.9179 50.22 78.5499 50.084C78.1899 49.948 77.7939 49.88 77.3619 49.88C76.9139 49.88 76.5099 49.956 76.1499 50.108C75.7899 50.252 75.4819 50.456 75.2259 50.72C74.9779 50.984 74.7859 51.3 74.6499 51.668C74.5139 52.028 74.4459 52.424 74.4459 52.856C74.4459 53.824 74.6939 54.564 75.1899 55.076C75.6939 55.58 76.4059 55.832 77.3259 55.832C77.8059 55.832 78.2299 55.756 78.5979 55.604C78.9739 55.452 79.2899 55.244 79.5459 54.98C79.8019 54.716 79.9939 54.404 80.1219 54.044C80.2579 53.684 80.3259 53.296 80.3259 52.88Z" fill="#2DB3BE"/>
<defs>
<filter id="filter0_d" x="0" y="0" width="114" height="114" filterUnits="userSpaceOnUse" color-interpolation-filters="sRGB">
<feFlood flood-opacity="0" result="BackgroundImageFix"/>
<feColorMatrix in="SourceAlpha" type="matrix" values="0 0 0 0 0 0 0 0 0 0 0 0 0 0 0 0 0 0 127 0"/>
<feOffset dy="4"/>
<feGaussianBlur stdDeviation="2"/>
<feColorMatrix type="matrix" values="0 0 0 0 0 0 0 0 0 0 0 0 0 0 0 0 0 0 0.1 0"/>
<feBlend mode="normal" in2="BackgroundImageFix" result="effect1_dropShadow"/>
<feBlend mode="normal" in="SourceGraphic" in2="effect1_dropShadow" result="shape"/>
</filter>
<filter id="filter1_d" x="3" y="3" width="108" height="108" filterUnits="userSpaceOnUse" color-interpolation-filters="sRGB">
<feFlood flood-opacity="0" result="BackgroundImageFix"/>
<feColorMatrix in="SourceAlpha" type="matrix" values="0 0 0 0 0 0 0 0 0 0 0 0 0 0 0 0 0 0 127 0"/>
<feOffset dy="4"/>
<feGaussianBlur stdDeviation="2"/>
<feColorMatrix type="matrix" values="0 0 0 0 0 0 0 0 0 0 0 0 0 0 0 0 0 0 0.1 0"/>
<feBlend mode="normal" in2="BackgroundImageFix" result="effect1_dropShadow"/>
<feBlend mode="normal" in="SourceGraphic" in2="effect1_dropShadow" result="shape"/>
</filter>
</defs>
</svg>
