<svg width="114" height="114" viewBox="0 0 114 114" fill="none" xmlns="http://www.w3.org/2000/svg">
<g filter="url(#filter0_d)">
<circle cx="57" cy="53" r="53" fill="white"/>
<circle cx="57" cy="53" r="52.5" stroke="white"/>
</g>
<g filter="url(#filter1_d)">
<circle cx="57" cy="53" r="50" fill="white"/>
<circle cx="57" cy="53" r="49.5" stroke="#5DD2D8" stroke-dasharray="3 3"/>
</g>
<circle cx="57" cy="53" r="45.75" stroke="#2DB3BE" stroke-width="0.5"/>
<path d="M31.3843 63.78H34.9003V53.664C34.9003 53.272 34.9123 52.86 34.9362 52.428L32.4403 54.516C32.3363 54.604 32.2283 54.664 32.1163 54.696C32.0123 54.728 31.9083 54.744 31.8043 54.744C31.6443 54.744 31.4963 54.712 31.3603 54.648C31.2323 54.576 31.1363 54.496 31.0723 54.408L30.1363 53.124L35.4283 48.624H37.8643V63.78H40.9843V66H31.3843V63.78ZM48.4381 59.076C47.8381 59.076 47.2501 58.972 46.6741 58.764C46.0981 58.556 45.5821 58.244 45.1261 57.828C44.6781 57.404 44.3181 56.884 44.0461 56.268C43.7741 55.644 43.6381 54.916 43.6381 54.084C43.6381 53.308 43.7821 52.58 44.0701 51.9C44.3581 51.22 44.7621 50.624 45.2821 50.112C45.8021 49.6 46.4261 49.196 47.1541 48.9C47.8821 48.604 48.6861 48.456 49.5661 48.456C50.4541 48.456 51.2501 48.596 51.9541 48.876C52.6661 49.156 53.2701 49.548 53.7661 50.052C54.2701 50.556 54.6541 51.16 54.9181 51.864C55.1901 52.568 55.3261 53.34 55.3261 54.18C55.3261 54.716 55.2781 55.224 55.1821 55.704C55.0941 56.184 54.9621 56.648 54.7861 57.096C54.6181 57.536 54.4141 57.968 54.1741 58.392C53.9341 58.808 53.6661 59.228 53.3701 59.652L49.3981 65.316C49.2621 65.508 49.0581 65.672 48.7861 65.808C48.5221 65.936 48.2181 66 47.8741 66H45.1501L50.5381 59.268C50.6741 59.1 50.8021 58.936 50.9221 58.776C51.0421 58.616 51.1581 58.456 51.2701 58.296C50.8701 58.552 50.4301 58.748 49.9501 58.884C49.4701 59.012 48.9661 59.076 48.4381 59.076ZM52.4821 53.88C52.4821 53.408 52.4101 52.988 52.2661 52.62C52.1221 52.244 51.9181 51.928 51.6541 51.672C51.3901 51.416 51.0741 51.22 50.7061 51.084C50.3461 50.948 49.9501 50.88 49.5181 50.88C49.0701 50.88 48.6661 50.956 48.3061 51.108C47.9461 51.252 47.6381 51.456 47.3821 51.72C47.1341 51.984 46.9421 52.3 46.8061 52.668C46.6701 53.028 46.6021 53.424 46.6021 53.856C46.6021 54.824 46.8501 55.564 47.3461 56.076C47.8501 56.58 48.5621 56.832 49.4821 56.832C49.9621 56.832 50.3861 56.756 50.7541 56.604C51.1301 56.452 51.4461 56.244 51.7021 55.98C51.9581 55.716 52.1501 55.404 52.2781 55.044C52.4141 54.684 52.4821 54.296 52.4821 53.88ZM64.04 55.164C64.696 55.164 65.332 55.272 65.948 55.488C66.572 55.704 67.12 56.032 67.592 56.472C68.064 56.904 68.444 57.444 68.732 58.092C69.02 58.74 69.164 59.496 69.164 60.36C69.164 61.168 69.016 61.928 68.72 62.64C68.424 63.344 68.008 63.96 67.472 64.488C66.936 65.016 66.288 65.432 65.528 65.736C64.776 66.04 63.944 66.192 63.032 66.192C62.104 66.192 61.272 66.044 60.536 65.748C59.8 65.452 59.172 65.04 58.652 64.512C58.132 63.976 57.732 63.336 57.452 62.592C57.18 61.84 57.044 61.008 57.044 60.096C57.044 59.28 57.208 58.444 57.536 57.588C57.872 56.724 58.388 55.828 59.084 54.9L63.224 49.344C63.368 49.152 63.576 48.988 63.848 48.852C64.128 48.716 64.448 48.648 64.808 48.648H67.448L62.3 54.948C62.188 55.084 62.08 55.212 61.976 55.332C61.88 55.452 61.784 55.576 61.688 55.704C62.024 55.536 62.384 55.404 62.768 55.308C63.16 55.212 63.584 55.164 64.04 55.164ZM59.888 60.552C59.888 61.032 59.952 61.472 60.08 61.872C60.216 62.264 60.412 62.6 60.668 62.88C60.932 63.16 61.256 63.38 61.64 63.54C62.024 63.692 62.468 63.768 62.972 63.768C63.444 63.768 63.876 63.688 64.268 63.528C64.668 63.368 65.008 63.144 65.288 62.856C65.576 62.568 65.8 62.232 65.96 61.848C66.12 61.456 66.2 61.032 66.2 60.576C66.2 60.08 66.124 59.636 65.972 59.244C65.82 58.844 65.604 58.508 65.324 58.236C65.044 57.956 64.708 57.744 64.316 57.6C63.924 57.456 63.492 57.384 63.02 57.384C62.548 57.384 62.12 57.464 61.736 57.624C61.352 57.784 61.02 58.008 60.74 58.296C60.468 58.576 60.256 58.912 60.104 59.304C59.96 59.688 59.888 60.104 59.888 60.552ZM76.2819 59.076C75.6819 59.076 75.0939 58.972 74.5179 58.764C73.9419 58.556 73.4259 58.244 72.9699 57.828C72.5219 57.404 72.1619 56.884 71.8899 56.268C71.6179 55.644 71.4819 54.916 71.4819 54.084C71.4819 53.308 71.6259 52.58 71.9139 51.9C72.2019 51.22 72.6059 50.624 73.1259 50.112C73.6459 49.6 74.2699 49.196 74.9979 48.9C75.7259 48.604 76.5299 48.456 77.4099 48.456C78.2979 48.456 79.0939 48.596 79.7979 48.876C80.5099 49.156 81.1139 49.548 81.6099 50.052C82.1139 50.556 82.4979 51.16 82.7619 51.864C83.0339 52.568 83.1699 53.34 83.1699 54.18C83.1699 54.716 83.1219 55.224 83.0259 55.704C82.9379 56.184 82.8059 56.648 82.6299 57.096C82.4619 57.536 82.2579 57.968 82.0179 58.392C81.7779 58.808 81.5099 59.228 81.2139 59.652L77.2419 65.316C77.1059 65.508 76.9019 65.672 76.6299 65.808C76.3659 65.936 76.0619 66 75.7179 66H72.9939L78.3819 59.268C78.5179 59.1 78.6459 58.936 78.7659 58.776C78.8859 58.616 79.0019 58.456 79.1139 58.296C78.7139 58.552 78.2739 58.748 77.7939 58.884C77.3139 59.012 76.8099 59.076 76.2819 59.076ZM80.3259 53.88C80.3259 53.408 80.2539 52.988 80.1099 52.62C79.9659 52.244 79.7619 51.928 79.4979 51.672C79.2339 51.416 78.9179 51.22 78.5499 51.084C78.1899 50.948 77.7939 50.88 77.3619 50.88C76.9139 50.88 76.5099 50.956 76.1499 51.108C75.7899 51.252 75.4819 51.456 75.2259 51.72C74.9779 51.984 74.7859 52.3 74.6499 52.668C74.5139 53.028 74.4459 53.424 74.4459 53.856C74.4459 54.824 74.6939 55.564 75.1899 56.076C75.6939 56.58 76.4059 56.832 77.3259 56.832C77.8059 56.832 78.2299 56.756 78.5979 56.604C78.9739 56.452 79.2899 56.244 79.5459 55.98C79.8019 55.716 79.9939 55.404 80.1219 55.044C80.2579 54.684 80.3259 54.296 80.3259 53.88Z" fill="#2DB3BE"/>
<defs>
<filter id="filter0_d" x="0" y="0" width="114" height="114" filterUnits="userSpaceOnUse" color-interpolation-filters="sRGB">
<feFlood flood-opacity="0" result="BackgroundImageFix"/>
<feColorMatrix in="SourceAlpha" type="matrix" values="0 0 0 0 0 0 0 0 0 0 0 0 0 0 0 0 0 0 127 0"/>
<feOffset dy="4"/>
<feGaussianBlur stdDeviation="2"/>
<feColorMatrix type="matrix" values="0 0 0 0 0 0 0 0 0 0 0 0 0 0 0 0 0 0 0.1 0"/>
<feBlend mode="normal" in2="BackgroundImageFix" result="effect1_dropShadow"/>
<feBlend mode="normal" in="SourceGraphic" in2="effect1_dropShadow" result="shape"/>
</filter>
<filter id="filter1_d" x="3" y="3" width="108" height="108" filterUnits="userSpaceOnUse" color-interpolation-filters="sRGB">
<feFlood flood-opacity="0" result="BackgroundImageFix"/>
<feColorMatrix in="SourceAlpha" type="matrix" values="0 0 0 0 0 0 0 0 0 0 0 0 0 0 0 0 0 0 127 0"/>
<feOffset dy="4"/>
<feGaussianBlur stdDeviation="2"/>
<feColorMatrix type="matrix" values="0 0 0 0 0 0 0 0 0 0 0 0 0 0 0 0 0 0 0.1 0"/>
<feBlend mode="normal" in2="BackgroundImageFix" result="effect1_dropShadow"/>
<feBlend mode="normal" in="SourceGraphic" in2="effect1_dropShadow" result="shape"/>
</filter>
</defs>
</svg>
