<svg width="372" height="250" viewBox="0 0 372 250" fill="none" xmlns="http://www.w3.org/2000/svg">
<mask id="mask0" mask-type="alpha" maskUnits="userSpaceOnUse" x="0" y="0" width="372" height="250">
<rect width="372" height="250" fill="white"/>
</mask>
<g mask="url(#mask0)">
<path d="M283.24 233.693C300.302 230.254 316.589 224.962 330.161 217.818C352.136 206.352 360.538 185.626 366.096 168.427C368.81 159.96 371.525 152.728 371.395 143.644C371.266 136.5 372.3 129.091 371.912 122.035C370.749 104.925 358.728 86.1387 339.08 75.114C315.555 62.0608 304.826 50.7715 300.431 30.3097C298.105 19.4614 294.356 15.7571 280.784 9.58327C269.667 4.46781 257.776 1.2045 244.462 0.322525C230.502 -0.55945 215.378 0.410723 202.194 2.70386C195.989 3.76223 188.75 5.87897 182.417 6.23176C171.042 6.84914 156.435 4.46781 144.931 3.67403C129.678 2.61566 114.555 3.05665 99.8193 4.99699C71.6406 8.70129 39.8425 22.2837 24.9776 39.2176C11.276 54.8286 21.0998 73.5265 29.3724 89.1374C33.2502 96.546 35.5769 102.102 29.3724 109.246C20.4535 119.566 10.6297 130.59 4.55443 141.88C-8.11309 165.957 7.78594 188.007 26.0117 208.116C34.8014 217.818 45.0129 222.316 57.4219 226.373C75.5184 232.194 95.8123 230.43 114.943 230.518C139.761 230.606 164.45 232.282 189.268 232.547C209.303 232.811 226.882 238.72 247.564 237.927C259.197 237.486 271.348 235.986 283.24 233.693Z" fill="#F5E3E2"/>
<path d="M262.864 211.673L339.5 222V9.5L137.163 43.7362C108.456 30.7008 80.4282 25.2835 56.1373 55.5866C45.6056 64.5591 41.0192 85.2126 40 113.146C40.3397 189.835 38.715 197.961 45 211.673L138.013 189.665L146.166 191.697H148.714" fill="#25262B"/>
<path d="M250.22 67.0004L250.509 66.9635C250.776 66.9293 250.958 66.8037 251.057 66.5866L252.517 63.2928C252.597 63.1128 252.695 62.985 252.81 62.9093C252.929 62.8332 253.078 62.7837 253.256 62.761L254.827 62.56L252.88 66.6535C252.811 66.8016 252.737 66.9264 252.656 67.0281C252.576 67.1298 252.492 67.2166 252.405 67.2887C252.546 67.3315 252.677 67.3997 252.798 67.493C252.922 67.5816 253.038 67.7081 253.148 67.8725L255.914 71.931L254.3 72.1375C254.197 72.1507 254.107 72.1535 254.031 72.1458C253.958 72.1378 253.893 72.1199 253.836 72.0924C253.78 72.0648 253.729 72.0299 253.686 71.9876C253.642 71.9411 253.599 71.8878 253.557 71.8279L251.482 68.784C251.407 68.6718 251.317 68.5985 251.213 68.564C251.112 68.5247 250.977 68.5157 250.81 68.5372L250.372 68.5932L250.753 72.5914L248.947 72.8224L248.052 63.4268L249.858 63.1957L250.22 67.0004Z" fill="white"/>
<path d="M259.033 71.532L257.216 71.7644L256.321 62.3688L258.138 62.1364L259.033 71.532Z" fill="white"/>
<path d="M267.575 65.6807C267.64 66.36 267.602 67.0002 267.461 67.6013C267.323 68.1977 267.098 68.7291 266.785 69.1956C266.472 69.6577 266.078 70.0389 265.602 70.3391C265.129 70.6346 264.589 70.8211 263.984 70.8986L260.96 71.2855L260.065 61.8898L263.089 61.5029C263.695 61.4255 264.256 61.4733 264.774 61.6464C265.295 61.819 265.752 62.0913 266.144 62.4632C266.537 62.8351 266.856 63.2968 267.104 63.8482C267.354 64.395 267.511 65.0058 267.575 65.6807ZM265.727 65.9173C265.683 65.453 265.593 65.0402 265.457 64.6789C265.322 64.3177 265.148 64.0201 264.934 63.7863C264.724 63.5478 264.477 63.3771 264.193 63.2741C263.909 63.1669 263.594 63.1354 263.249 63.1796L262.041 63.3341L262.617 69.3764L263.824 69.2219C264.17 69.1777 264.471 69.0695 264.729 68.8973C264.986 68.7208 265.195 68.4917 265.356 68.2101C265.519 67.9237 265.633 67.5871 265.698 67.2003C265.762 66.8136 265.771 66.3859 265.727 65.9173Z" fill="white"/>
<path d="M269.428 60.692C269.506 60.6819 269.573 60.6778 269.627 60.6796C269.681 60.6813 269.731 60.6924 269.776 60.7127C269.821 60.7287 269.865 60.7557 269.908 60.7937C269.951 60.8317 270.001 60.884 270.058 60.9507L274.293 66.1202C274.262 65.9415 274.234 65.7688 274.211 65.602C274.188 65.4309 274.169 65.2702 274.154 65.1197L273.681 60.1478L275.273 59.9441L276.168 69.3398L275.228 69.4601C275.089 69.4779 274.969 69.4671 274.868 69.4278C274.767 69.3885 274.665 69.3058 274.563 69.1796L270.359 64.0518C270.385 64.2138 270.41 64.3739 270.432 64.5321C270.454 64.6859 270.471 64.8316 270.484 64.9692L270.964 70.0056L269.372 70.2093L268.477 60.8136L269.428 60.692Z" fill="white"/>
<path d="M282.047 59.0775L282.206 60.7542L279.011 61.163L279.22 63.3555L281.667 63.0424L281.821 64.6546L279.374 64.9677L279.587 67.2053L282.782 66.7965L282.941 68.4732L277.93 69.1144L277.035 59.7187L282.047 59.0775Z" fill="white"/>
<path d="M287.992 64.211L288.332 67.7836L286.526 68.0146L286.186 64.4421L282.81 58.9799L284.402 58.7762C284.559 58.7561 284.688 58.7853 284.789 58.8638C284.89 58.9379 284.975 59.0401 285.045 59.1704L286.407 61.7638C286.516 61.9716 286.618 62.1632 286.71 62.3385C286.802 62.5138 286.886 62.6881 286.96 62.8613C286.996 62.6696 287.042 62.4766 287.099 62.2822C287.157 62.0877 287.218 61.8776 287.283 61.6517L288.112 58.778C288.128 58.7194 288.152 58.6598 288.182 58.5994C288.216 58.5385 288.254 58.4836 288.296 58.4347C288.341 58.381 288.393 58.3374 288.451 58.3039C288.512 58.2656 288.58 58.2416 288.655 58.2321L290.258 58.027L287.992 64.211Z" fill="white"/>
<path d="M249.252 67.1244L249.541 67.0875C249.808 67.0533 249.991 66.9277 250.089 66.7106L251.549 63.4168C251.629 63.2369 251.727 63.109 251.843 63.0334C251.961 62.9572 252.11 62.9078 252.288 62.885L253.859 62.684L251.913 66.7776C251.844 66.9256 251.769 67.0505 251.689 67.1521C251.608 67.2538 251.524 67.3407 251.438 67.4127C251.579 67.4556 251.71 67.5237 251.83 67.617C251.954 67.7056 252.071 67.8321 252.18 67.9965L254.946 72.055L253.333 72.2615C253.229 72.2747 253.139 72.2775 253.063 72.2699C252.99 72.2618 252.925 72.244 252.869 72.2164C252.812 72.1888 252.762 72.1539 252.718 72.1117C252.674 72.0651 252.631 72.0118 252.589 71.9519L250.515 68.908C250.439 68.7959 250.349 68.7225 250.245 68.688C250.144 68.6487 250.01 68.6398 249.842 68.6612L249.404 68.7172L249.785 72.7154L247.979 72.9464L247.084 63.5508L248.89 63.3197L249.252 67.1244Z" fill="white"/>
<path d="M258.065 71.656L256.248 71.8884L255.354 62.4928L257.17 62.2604L258.065 71.656Z" fill="white"/>
<path d="M266.608 65.8048C266.672 66.484 266.634 67.1242 266.493 67.7254C266.355 68.3218 266.13 68.8532 265.818 69.3196C265.505 69.7817 265.11 70.1629 264.634 70.4631C264.161 70.7586 263.622 70.9451 263.016 71.0226L259.992 71.4095L259.097 62.0139L262.121 61.627C262.727 61.5495 263.288 61.5973 263.806 61.7704C264.327 61.9431 264.784 62.2153 265.176 62.5872C265.569 62.9591 265.889 63.4208 266.136 63.9723C266.386 64.519 266.543 65.1298 266.608 65.8048ZM264.759 66.0413C264.715 65.577 264.625 65.1642 264.49 64.8029C264.354 64.4417 264.18 64.1442 263.967 63.9104C263.756 63.6718 263.509 63.5011 263.226 63.3981C262.941 63.2909 262.626 63.2594 262.281 63.3036L261.073 63.4581L261.649 69.5004L262.856 69.346C263.202 69.3018 263.503 69.1935 263.761 69.0213C264.018 68.8448 264.227 68.6158 264.388 68.3341C264.552 68.0477 264.666 67.7111 264.73 67.3244C264.794 66.9376 264.804 66.5099 264.759 66.0413Z" fill="white"/>
<path d="M268.46 60.816C268.538 60.806 268.605 60.8018 268.659 60.8036C268.713 60.8053 268.763 60.8164 268.808 60.8367C268.853 60.8527 268.897 60.8797 268.94 60.9177C268.984 60.9557 269.034 61.008 269.09 61.0747L273.325 66.2443C273.294 66.0655 273.267 65.8928 273.243 65.726C273.22 65.555 273.201 65.3942 273.187 65.2437L272.713 60.2719L274.305 60.0681L275.2 69.4638L274.26 69.5841C274.121 69.6019 274.001 69.5911 273.9 69.5518C273.799 69.5125 273.697 69.4298 273.595 69.3036L269.391 64.1759C269.417 64.3378 269.442 64.4979 269.464 64.6561C269.486 64.8099 269.503 64.9556 269.516 65.0932L269.996 70.1296L268.404 70.3333L267.509 60.9377L268.46 60.816Z" fill="white"/>
<path d="M281.079 59.2016L281.239 60.8782L278.043 61.287L278.252 63.4795L280.699 63.1664L280.853 64.7786L278.406 65.0917L278.619 67.3293L281.814 66.9206L281.974 68.5972L276.962 69.2384L276.067 59.8428L281.079 59.2016Z" fill="white"/>
<path d="M287.024 64.335L287.364 67.9076L285.558 68.1386L285.218 64.5661L281.842 59.1039L283.434 58.9002C283.591 58.8802 283.72 58.9093 283.821 58.9878C283.922 59.0619 284.008 59.1641 284.078 59.2944L285.439 61.8878C285.549 62.0957 285.65 62.2872 285.742 62.4625C285.835 62.6378 285.918 62.8121 285.992 62.9854C286.028 62.7937 286.075 62.6006 286.132 62.4062C286.189 62.2117 286.25 62.0016 286.315 61.7757L287.145 58.902C287.161 58.8434 287.184 58.7839 287.214 58.7234C287.248 58.6625 287.286 58.6076 287.328 58.5587C287.374 58.505 287.425 58.4614 287.483 58.4279C287.545 58.3896 287.613 58.3657 287.688 58.3561L289.29 58.151L287.024 64.335Z" fill="white"/>
<path d="M254.456 79.1484C254.515 79.7153 254.482 80.2489 254.356 80.7492C254.234 81.2456 254.032 81.6871 253.752 82.0739C253.472 82.457 253.118 82.772 252.691 83.019C252.266 83.262 251.782 83.4136 251.238 83.4739L248.52 83.7747L247.698 75.9328L250.416 75.6319C250.96 75.5717 251.465 75.6156 251.93 75.7637C252.399 75.9115 252.81 76.1418 253.163 76.4548C253.517 76.7678 253.805 77.1551 254.028 77.6168C254.254 78.0745 254.397 78.585 254.456 79.1484ZM252.795 79.3323C252.754 78.9448 252.673 78.5999 252.55 78.2976C252.428 77.9954 252.271 77.746 252.078 77.5495C251.889 77.3491 251.667 77.2049 251.411 77.117C251.156 77.0255 250.873 76.997 250.562 77.0313L249.477 77.1515L250.006 82.1946L251.091 82.0745C251.401 82.0401 251.672 81.9521 251.903 81.8103C252.134 81.665 252.322 81.4754 252.465 81.2417C252.612 81.0041 252.714 80.7242 252.771 80.4021C252.828 80.08 252.836 79.7234 252.795 79.3323Z" fill="white"/>
<path d="M257.855 82.7412L256.222 82.922L255.401 75.08L257.033 74.8993L257.855 82.7412Z" fill="white"/>
<path d="M262.829 75.8692C262.79 75.9606 262.746 76.0308 262.696 76.0799C262.649 76.1287 262.584 76.1576 262.501 76.1668C262.427 76.175 262.345 76.1587 262.253 76.1181C262.164 76.0735 262.062 76.0249 261.946 75.9723C261.834 75.9195 261.706 75.8755 261.563 75.8405C261.42 75.8019 261.261 75.7924 261.085 75.8119C260.78 75.8455 260.561 75.9442 260.426 76.108C260.294 76.2678 260.241 76.4715 260.267 76.7191C260.283 76.877 260.342 77.003 260.442 77.0972C260.543 77.1913 260.669 77.2681 260.821 77.3275C260.976 77.3865 261.15 77.4381 261.342 77.4821C261.537 77.5222 261.737 77.5709 261.94 77.6282C262.143 77.6819 262.343 77.7506 262.54 77.8341C262.739 77.9172 262.92 78.0316 263.081 78.1771C263.245 78.3222 263.384 78.5065 263.498 78.7298C263.612 78.9495 263.686 79.2226 263.72 79.5492C263.758 79.9116 263.737 80.2568 263.658 80.585C263.58 80.9132 263.445 81.2075 263.256 81.4681C263.069 81.7247 262.826 81.9386 262.526 82.1096C262.23 82.2768 261.883 82.3823 261.486 82.4262C261.269 82.4503 261.044 82.4498 260.811 82.4248C260.582 82.3993 260.357 82.3535 260.136 82.2872C259.915 82.2172 259.705 82.1298 259.507 82.0247C259.308 81.9197 259.132 81.7977 258.978 81.6586L259.369 80.7551C259.397 80.6866 259.441 80.6291 259.501 80.5825C259.561 80.5359 259.628 80.5086 259.701 80.5004C259.797 80.4898 259.897 80.5133 260 80.5708C260.107 80.628 260.225 80.6911 260.355 80.7602C260.489 80.8289 260.639 80.8885 260.806 80.9389C260.973 80.9894 261.166 81.0026 261.383 80.9785C261.678 80.9459 261.899 80.8488 262.047 80.6872C262.195 80.522 262.252 80.2815 262.219 79.9658C262.2 79.7828 262.14 79.6388 262.038 79.5339C261.936 79.429 261.808 79.3471 261.653 79.288C261.501 79.2286 261.329 79.1805 261.138 79.1436C260.946 79.1067 260.749 79.065 260.546 79.0185C260.344 78.9683 260.144 78.9033 259.948 78.8234C259.752 78.7399 259.571 78.6237 259.407 78.475C259.245 78.3223 259.106 78.1271 258.991 77.8895C258.875 77.6482 258.798 77.3446 258.759 76.9786C258.728 76.6844 258.751 76.3915 258.827 76.0999C258.904 75.8083 259.033 75.5418 259.215 75.3002C259.397 75.0586 259.629 74.8568 259.914 74.6947C260.197 74.529 260.531 74.4248 260.915 74.3823C261.13 74.3586 261.34 74.3553 261.546 74.3724C261.754 74.3856 261.954 74.4198 262.144 74.475C262.334 74.5265 262.513 74.5956 262.68 74.6823C262.851 74.7651 263.005 74.8641 263.144 74.9795L262.829 75.8692Z" fill="white"/>
<path d="M269.709 79.3761C269.747 79.3718 269.787 79.3765 269.827 79.3902C269.867 79.4003 269.907 79.4232 269.946 79.4587L270.669 80.1464C270.43 80.5902 270.109 80.9415 269.706 81.2004C269.305 81.4553 268.815 81.6148 268.236 81.6789C267.705 81.7377 267.217 81.6901 266.774 81.5359C266.333 81.3778 265.947 81.1374 265.615 80.8148C265.286 80.4882 265.018 80.0896 264.81 79.619C264.602 79.1448 264.468 78.6206 264.407 78.0465C264.346 77.4617 264.379 76.9153 264.507 76.4075C264.635 75.8961 264.84 75.445 265.123 75.0543C265.409 74.6633 265.766 74.3443 266.193 74.0974C266.621 73.8504 267.105 73.697 267.646 73.6371C267.908 73.6081 268.157 73.6077 268.393 73.636C268.632 73.6604 268.858 73.708 269.069 73.779C269.28 73.8464 269.477 73.9353 269.66 74.0457C269.843 74.1525 270.008 74.2757 270.155 74.4155L269.695 75.2996C269.665 75.3537 269.628 75.405 269.584 75.4533C269.541 75.4981 269.475 75.5253 269.389 75.5349C269.331 75.5413 269.275 75.5329 269.221 75.5099C269.167 75.4869 269.109 75.4588 269.047 75.4257C268.985 75.389 268.916 75.3513 268.841 75.3124C268.769 75.2696 268.682 75.2338 268.582 75.205C268.485 75.1722 268.371 75.1485 268.24 75.134C268.112 75.1191 267.963 75.121 267.794 75.1398C267.499 75.1724 267.236 75.2614 267.006 75.4067C266.774 75.5485 266.582 75.7385 266.429 75.9769C266.279 76.2113 266.17 76.4883 266.103 76.8079C266.04 77.1271 266.028 77.4787 266.068 77.8626C266.11 78.2645 266.196 78.6162 266.325 78.9177C266.457 79.2189 266.617 79.468 266.806 79.6648C266.998 79.8577 267.212 79.9974 267.447 80.0838C267.683 80.1703 267.929 80.1993 268.185 80.171C268.332 80.1547 268.466 80.1326 268.586 80.1048C268.706 80.0734 268.815 80.0323 268.913 79.9815C269.014 79.9303 269.108 79.8691 269.195 79.7978C269.284 79.7226 269.372 79.633 269.458 79.5291C269.493 79.489 269.531 79.4556 269.574 79.4292C269.616 79.3991 269.661 79.3814 269.709 79.3761Z" fill="white"/>
<path d="M278.456 76.491C278.516 77.058 278.483 77.5952 278.358 78.1026C278.236 78.6098 278.036 79.0621 277.757 79.4596C277.478 79.8535 277.125 80.1775 276.698 80.4316C276.275 80.6854 275.791 80.8424 275.247 80.9026C274.703 80.9629 274.196 80.9155 273.727 80.7606C273.257 80.6057 272.844 80.3666 272.486 80.0432C272.131 79.7159 271.84 79.3179 271.613 78.8494C271.389 78.3806 271.247 77.8627 271.188 77.2958C271.129 76.7288 271.16 76.1918 271.281 75.6847C271.406 75.1772 271.608 74.7265 271.888 74.3326C272.17 73.9384 272.525 73.6142 272.951 73.36C273.378 73.1059 273.863 72.9487 274.407 72.8885C274.951 72.8282 275.457 72.8776 275.923 73.0364C276.393 73.1913 276.805 73.4307 277.159 73.7544C277.514 74.0781 277.803 74.4744 278.027 74.9433C278.254 75.4118 278.397 75.9277 278.456 76.491ZM276.795 76.6749C276.755 76.2874 276.673 75.9443 276.551 75.6457C276.429 75.3434 276.272 75.094 276.08 74.8975C275.891 74.7007 275.668 74.5583 275.413 74.4704C275.158 74.3825 274.875 74.3558 274.565 74.3901C274.251 74.4249 273.977 74.5133 273.743 74.6554C273.511 74.7971 273.322 74.985 273.175 75.2191C273.031 75.4528 272.931 75.7307 272.874 76.0528C272.817 76.3713 272.808 76.7243 272.849 77.1119C272.89 77.503 272.972 77.8497 273.094 78.1519C273.216 78.4506 273.371 78.6983 273.56 78.8952C273.753 79.0917 273.976 79.2339 274.232 79.3218C274.49 79.4057 274.776 79.4303 275.089 79.3956C275.4 79.3612 275.671 79.275 275.902 79.1368C276.133 78.9951 276.321 78.8073 276.465 78.5736C276.612 78.3395 276.714 78.0633 276.771 77.7447C276.828 77.4227 276.836 77.0661 276.795 76.6749Z" fill="white"/>
<path d="M278.387 72.535L279.692 72.3904C279.833 72.3748 279.952 72.3979 280.049 72.4598C280.147 72.5216 280.221 72.6096 280.271 72.7238L282.065 76.772C282.145 76.9483 282.227 77.1407 282.31 77.3493C282.397 77.5575 282.48 77.777 282.559 78.0078C282.579 77.766 282.606 77.5343 282.641 77.3126C282.68 77.0906 282.718 76.8849 282.756 76.6955L283.661 72.3485C283.682 72.2445 283.735 72.1479 283.82 72.0587C283.904 71.9659 284.013 71.912 284.147 71.8972L285.463 71.7515L283.481 79.9039L282.012 80.0665L278.387 72.535Z" fill="white"/>
<path d="M290.977 71.141L291.124 72.5404L288.253 72.8582L288.445 74.6882L290.643 74.4448L290.784 75.7903L288.586 76.0338L288.781 77.9014L291.652 77.5835L291.799 78.9829L287.296 79.4815L286.474 71.6396L290.977 71.141Z" fill="white"/>
<path d="M294.475 75.7519L294.779 78.6529L293.157 78.8326L292.335 70.9906L294.61 70.7387C295.116 70.6827 295.553 70.6943 295.92 70.7733C296.291 70.8485 296.599 70.9777 296.845 71.161C297.094 71.344 297.284 71.5715 297.417 71.8436C297.549 72.1157 297.632 72.4187 297.667 72.7524C297.694 73.0071 297.689 73.2509 297.652 73.4837C297.615 73.7165 297.545 73.9365 297.444 74.1437C297.346 74.347 297.216 74.5337 297.056 74.7039C296.899 74.8737 296.712 75.0197 296.495 75.1417C296.61 75.1907 296.719 75.2549 296.821 75.3343C296.926 75.4134 297.021 75.5136 297.105 75.635L298.879 78.199L297.41 78.3616C297.138 78.3918 296.931 78.2986 296.788 78.082L295.388 75.934C295.326 75.8392 295.258 75.7741 295.183 75.7389C295.111 75.7033 295.013 75.6924 294.888 75.7062L294.475 75.7519ZM294.344 74.4978L294.997 74.4255C295.218 74.4011 295.402 74.3499 295.549 74.2719C295.699 74.1899 295.818 74.0878 295.905 73.9656C295.993 73.8434 296.051 73.7062 296.081 73.5542C296.11 73.3985 296.115 73.2345 296.097 73.0623C296.061 72.7179 295.932 72.4599 295.71 72.2885C295.491 72.1167 295.172 72.054 294.753 72.1004L294.1 72.1727L294.344 74.4978Z" fill="white"/>
<path d="M303.147 74.7101L303.459 77.6919L301.837 77.8715L301.524 74.8898L298.48 70.3102L299.911 70.1519C300.051 70.1363 300.167 70.1615 300.259 70.2277C300.349 70.2902 300.426 70.3761 300.49 70.4852L301.718 72.6578C301.817 72.8319 301.908 72.9924 301.991 73.1393C302.075 73.2861 302.15 73.4321 302.217 73.5771C302.249 73.4175 302.29 73.2568 302.341 73.0951C302.392 72.9334 302.447 72.7585 302.505 72.5706L303.245 70.1801C303.259 70.1314 303.28 70.0819 303.307 70.0317C303.338 69.9811 303.372 69.9356 303.409 69.8951C303.45 69.8507 303.497 69.8147 303.549 69.7872C303.604 69.7557 303.665 69.7362 303.732 69.7288L305.172 69.5693L303.147 74.7101Z" fill="white"/>
<path fill-rule="evenodd" clip-rule="evenodd" d="M253.933 82.2044L253.933 82.2054C253.633 82.6147 253.256 82.9505 252.802 83.2125L252.801 83.2129C252.347 83.4729 251.833 83.6328 251.262 83.696L248.323 84.0215L247.454 75.7355L250.393 75.4101C250.965 75.3469 251.501 75.3924 251.999 75.5509C252.496 75.7076 252.935 75.953 253.313 76.2873C253.689 76.6211 253.995 77.0324 254.229 77.5179C254.468 78.0014 254.617 78.5376 254.678 79.124C254.74 79.714 254.706 80.274 254.574 80.8021C254.445 81.3244 254.232 81.7927 253.933 82.2044ZM254.357 80.7494C254.483 80.2491 254.516 79.7155 254.457 79.1486C254.398 78.5852 254.255 78.0747 254.029 77.6169C253.806 77.1553 253.517 76.7679 253.164 76.455C252.811 76.142 252.4 75.9116 251.931 75.7639C251.466 75.6158 250.961 75.5719 250.417 75.6321L247.699 75.933L248.521 83.7749L251.239 83.474C251.783 83.4138 252.267 83.2622 252.692 83.0192C253.119 82.7722 253.473 82.4572 253.753 82.074C254.033 81.6873 254.235 81.2458 254.357 80.7494ZM251.917 77.7036C251.752 77.5286 251.56 77.4044 251.339 77.3284L251.336 77.3275C251.117 77.249 250.868 77.2223 250.587 77.2535L249.723 77.3491L250.206 81.9482L251.069 81.8527C251.351 81.8214 251.589 81.7425 251.788 81.6209C251.989 81.4941 252.151 81.3297 252.277 81.1255C252.406 80.9158 252.499 80.6635 252.552 80.3646C252.605 80.0667 252.613 79.7315 252.574 79.357C252.535 78.9864 252.458 78.6624 252.344 78.3827C252.231 78.1024 252.088 77.8788 251.92 77.7064L251.917 77.7036ZM251.904 81.8105C251.673 81.9522 251.402 82.0403 251.092 82.0747L250.007 82.1948L249.478 77.1516L250.563 77.0315C250.874 76.9971 251.157 77.0257 251.412 77.1172C251.668 77.2051 251.89 77.3492 252.079 77.5497C252.272 77.7462 252.429 77.9956 252.551 78.2978C252.674 78.6001 252.755 78.9449 252.796 79.3325C252.837 79.7236 252.829 80.0802 252.772 80.4023C252.715 80.7244 252.613 81.0042 252.466 81.2419C252.323 81.4756 252.135 81.6651 251.904 81.8105ZM258.101 82.9388L256.025 83.1687L255.156 74.8828L257.232 74.6529L258.101 82.9388ZM263.038 75.9495L263.035 75.956C262.99 76.0629 262.932 76.1606 262.855 76.2367C262.764 76.3304 262.646 76.3756 262.525 76.389C262.401 76.4028 262.278 76.3737 262.163 76.3225L262.158 76.3204L262.153 76.318C262.067 76.275 261.968 76.2276 261.854 76.176L261.851 76.1748C261.755 76.1292 261.641 76.0898 261.51 76.0577L261.505 76.0564C261.393 76.0263 261.262 76.017 261.109 76.034C260.837 76.0641 260.683 76.1479 260.599 76.2498C260.513 76.3538 260.468 76.4939 260.489 76.6947C260.501 76.8079 260.54 76.8815 260.596 76.9338C260.673 77.0054 260.773 77.0682 260.903 77.1192C261.046 77.1736 261.209 77.222 261.392 77.264C261.591 77.305 261.794 77.3546 262.001 77.4129C262.214 77.4692 262.423 77.5411 262.628 77.6283C262.851 77.721 263.052 77.8485 263.231 78.0103C263.418 78.176 263.573 78.383 263.697 78.6269C263.827 78.8777 263.907 79.1793 263.943 79.5248C263.983 79.9104 263.962 80.2814 263.876 80.6363C263.791 80.9918 263.645 81.3135 263.437 81.5991C263.23 81.8836 262.962 82.1182 262.637 82.3036L262.636 82.3043C262.309 82.4886 261.932 82.6017 261.511 82.6484C261.276 82.6744 261.035 82.6737 260.787 82.647C260.544 82.6201 260.306 82.5715 260.072 82.5013L260.069 82.5004C259.836 82.4266 259.614 82.334 259.403 82.2226C259.189 82.1097 258.997 81.9773 258.829 81.8249L258.711 81.718L259.164 80.6688C259.208 80.5643 259.277 80.4761 259.366 80.4066C259.458 80.3351 259.563 80.2914 259.679 80.2786C259.83 80.2619 259.975 80.3005 260.109 80.3748C260.214 80.4314 260.331 80.4938 260.46 80.5622C260.58 80.6236 260.717 80.6782 260.873 80.7252C261.005 80.7651 261.166 80.7782 261.361 80.7567C261.62 80.728 261.783 80.6465 261.883 80.5378C261.972 80.4374 262.028 80.2705 261.998 79.9905C261.983 79.8441 261.937 79.751 261.878 79.6901C261.802 79.6114 261.702 79.5461 261.574 79.497L261.572 79.4963C261.434 79.4426 261.276 79.3979 261.095 79.3631C260.901 79.3257 260.701 79.2835 260.496 79.2363L260.493 79.2355C260.28 79.1828 260.07 79.1144 259.864 79.0305L259.861 79.0293C259.641 78.9357 259.44 78.8059 259.258 78.6413L259.254 78.6381C259.07 78.4639 258.916 78.2457 258.791 77.9883L258.791 77.9874C258.66 77.7163 258.578 77.386 258.538 77.0033C258.505 76.6818 258.53 76.3619 258.613 76.0446C258.696 75.7247 258.838 75.4315 259.038 75.1666C259.239 74.8989 259.496 74.6775 259.804 74.5015C260.119 74.3177 260.484 74.2058 260.893 74.1605C261.12 74.1353 261.344 74.1316 261.564 74.1498C261.787 74.1641 262.001 74.2006 262.206 74.26C262.409 74.3152 262.601 74.3893 262.782 74.4826C262.967 74.5726 263.136 74.6808 263.288 74.8077L263.407 74.9067L263.038 75.9495ZM262.681 74.6825C262.514 74.5958 262.335 74.5267 262.145 74.4751C261.955 74.42 261.755 74.3858 261.547 74.3726C261.341 74.3554 261.131 74.3587 260.916 74.3825C260.532 74.425 260.198 74.5291 259.915 74.6948C259.63 74.857 259.397 75.0588 259.216 75.3004C259.034 75.5419 258.905 75.8085 258.828 76.1001C258.752 76.3916 258.729 76.6845 258.76 76.9788C258.799 77.3448 258.876 77.6484 258.992 77.8896C259.107 78.1273 259.246 78.3225 259.408 78.4752C259.572 78.6239 259.753 78.74 259.949 78.8236C260.145 78.9035 260.345 78.9685 260.547 79.0186C260.75 79.0652 260.947 79.1069 261.138 79.1438C261.33 79.1806 261.502 79.2288 261.654 79.2882C261.809 79.3472 261.937 79.4292 262.039 79.5341C262.141 79.639 262.201 79.7829 262.22 79.9659C262.253 80.2817 262.196 80.5222 262.048 80.6874C261.9 80.849 261.679 80.9461 261.384 80.9787C261.167 81.0027 260.974 80.9896 260.807 80.9391C260.64 80.8887 260.49 80.8291 260.356 80.7604C260.226 80.6913 260.108 80.6282 260.001 80.571C259.898 80.5134 259.798 80.49 259.702 80.5006C259.629 80.5088 259.562 80.5361 259.502 80.5827C259.442 80.6292 259.398 80.6868 259.37 80.7552L258.979 81.6588C259.133 81.7978 259.309 81.9199 259.508 82.0249C259.706 82.1299 259.916 82.2174 260.137 82.2873C260.358 82.3536 260.583 82.3995 260.812 82.4249C261.045 82.45 261.27 82.4505 261.487 82.4264C261.884 82.3825 262.231 82.2769 262.527 82.1098C262.827 81.9387 263.07 81.7249 263.257 81.4683C263.446 81.2077 263.581 80.9133 263.659 80.5852C263.738 80.257 263.759 79.9117 263.721 79.5493C263.687 79.2228 263.613 78.9497 263.499 78.73C263.385 78.5067 263.246 78.3224 263.082 78.1772C262.921 78.0317 262.74 77.9174 262.541 77.8342C262.344 77.7507 262.144 77.6821 261.941 77.6284C261.738 77.5711 261.538 77.5224 261.343 77.4823C261.151 77.4382 260.977 77.3867 260.822 77.3276C260.67 77.2682 260.544 77.1915 260.443 77.0973C260.343 77.0032 260.284 76.8772 260.268 76.7193C260.242 76.4717 260.295 76.268 260.427 76.1082C260.562 75.9444 260.781 75.8457 261.086 75.812C261.262 75.7925 261.421 75.8021 261.564 75.8407C261.707 75.8757 261.835 75.9196 261.947 75.9725C262.063 76.0251 262.165 76.0736 262.254 76.1182C262.346 76.1589 262.428 76.1752 262.502 76.167C262.585 76.1578 262.65 76.1288 262.697 76.0801C262.747 76.031 262.791 75.9608 262.83 75.8693L263.145 74.9797C263.006 74.8643 262.852 74.7653 262.681 74.6825ZM270.101 79.2966L270.947 80.1012L270.866 80.2515C270.611 80.7273 270.264 81.1079 269.827 81.3884L269.826 81.3889C269.39 81.6659 268.866 81.834 268.26 81.9011C267.701 81.9631 267.179 81.9135 266.701 81.7471L266.699 81.7464C266.228 81.5777 265.815 81.3205 265.46 80.9756L265.459 80.974C265.108 80.626 264.825 80.2037 264.607 79.7105C264.388 79.213 264.249 78.6657 264.186 78.0713C264.123 77.4636 264.157 76.8907 264.292 76.3544C264.426 75.8179 264.643 75.3401 264.944 74.9241L264.945 74.9232C265.249 74.5065 265.63 74.1665 266.084 73.9043C266.541 73.6402 267.055 73.4782 267.623 73.4153C267.9 73.3846 268.166 73.3839 268.42 73.4142C268.673 73.4401 268.913 73.4907 269.14 73.5668C269.366 73.6391 269.578 73.7346 269.776 73.8535C269.972 73.9684 270.15 74.1015 270.31 74.2531L270.432 74.3685L269.891 75.4071C269.852 75.4769 269.805 75.542 269.751 75.6024L269.744 75.6096C269.652 75.7036 269.531 75.744 269.413 75.757C269.317 75.7677 269.223 75.7534 269.134 75.7157C269.073 75.6897 269.009 75.6586 268.942 75.6229L268.934 75.6186C268.876 75.5844 268.811 75.5485 268.739 75.5112L268.733 75.5083L268.728 75.5051C268.675 75.4738 268.607 75.4446 268.52 75.4198L268.511 75.4171C268.432 75.3905 268.334 75.3694 268.215 75.3561L268.214 75.356C268.107 75.3436 267.976 75.3445 267.818 75.362C267.554 75.3912 267.324 75.4701 267.125 75.5958L267.122 75.5972C266.921 75.7205 266.753 75.886 266.618 76.0971C266.485 76.3047 266.385 76.5548 266.323 76.8517C266.265 77.1449 266.253 77.4731 266.291 77.8382C266.331 78.2224 266.412 78.5514 266.53 78.8282C266.654 79.109 266.8 79.3341 266.967 79.5083C267.138 79.6795 267.324 79.8001 267.526 79.8742C267.729 79.9485 267.94 79.9738 268.163 79.9491C268.301 79.9338 268.425 79.9133 268.535 79.8881C268.639 79.8605 268.731 79.8253 268.812 79.7833L268.814 79.7822C268.901 79.7387 268.98 79.6868 269.054 79.6267C269.131 79.5614 269.209 79.4819 269.288 79.3871L269.29 79.3837C269.338 79.3291 269.391 79.282 269.452 79.2435C269.522 79.1951 269.601 79.1638 269.687 79.1542C269.758 79.1464 269.827 79.155 269.893 79.1762C269.973 79.1982 270.04 79.2417 270.097 79.2928L270.101 79.2966ZM269.828 79.3904C269.788 79.3767 269.748 79.372 269.71 79.3762C269.662 79.3816 269.617 79.3992 269.575 79.4293C269.532 79.4558 269.494 79.4891 269.459 79.5293C269.373 79.6332 269.285 79.7228 269.196 79.798C269.109 79.8692 269.015 79.9305 268.914 79.9816C268.816 80.0324 268.707 80.0735 268.587 80.105C268.467 80.1328 268.333 80.1548 268.186 80.1711C267.93 80.1995 267.684 80.1704 267.448 80.084C267.213 79.9976 266.999 79.8579 266.807 79.665C266.618 79.4681 266.458 79.2191 266.326 78.9179C266.197 78.6164 266.111 78.2647 266.069 77.8628C266.029 77.4789 266.041 77.1273 266.104 76.8081C266.171 76.4885 266.28 76.2115 266.43 75.9771C266.583 75.7387 266.775 75.5487 267.007 75.4069C267.237 75.2616 267.5 75.1726 267.794 75.14C267.964 75.1212 268.113 75.1193 268.241 75.1342C268.372 75.1487 268.486 75.1723 268.583 75.2051C268.683 75.234 268.77 75.2698 268.842 75.3126C268.917 75.3514 268.986 75.3892 269.048 75.4259C269.11 75.459 269.168 75.487 269.222 75.5101C269.276 75.5331 269.332 75.5414 269.39 75.535C269.476 75.5255 269.541 75.4983 269.585 75.4535C269.629 75.4051 269.666 75.3539 269.696 75.2998L270.156 74.4157C270.009 74.2759 269.844 74.1526 269.661 74.0458C269.478 73.9354 269.281 73.8465 269.07 73.7792C268.859 73.7082 268.633 73.6605 268.394 73.6362C268.158 73.6079 267.909 73.6082 267.647 73.6373C267.106 73.6972 266.622 73.8506 266.194 74.0976C265.767 74.3445 265.41 74.6635 265.124 75.0545C264.841 75.4452 264.636 75.8962 264.508 76.4076C264.38 76.9155 264.347 77.4618 264.408 78.0467C264.468 78.6208 264.603 79.145 264.811 79.6192C265.019 80.0898 265.287 80.4884 265.616 80.815C265.948 81.1376 266.334 81.378 266.775 81.5361C267.218 81.6902 267.706 81.7379 268.237 81.6791C268.816 81.615 269.306 81.4554 269.707 81.2005C270.11 80.9417 270.431 80.5904 270.67 80.1466L269.947 79.4589C269.908 79.4233 269.868 79.4005 269.828 79.3904ZM277.941 79.5874L277.94 79.5883C277.642 80.0085 277.266 80.3537 276.813 80.6234C276.359 80.8954 275.844 81.0614 275.271 81.1248C274.699 81.1882 274.16 81.1389 273.657 80.973C273.159 80.8086 272.718 80.5541 272.337 80.2095L272.335 80.208C271.959 79.8605 271.652 79.4396 271.413 78.9481L271.413 78.9469C271.177 78.4531 271.029 77.9103 270.967 77.3205C270.905 76.7307 270.937 76.168 271.066 75.6339L271.066 75.6326C271.197 75.1 271.41 74.623 271.707 74.2042L271.708 74.2033C272.008 73.7832 272.386 73.438 272.839 73.1684C273.296 72.8963 273.812 72.73 274.385 72.6667C274.958 72.6033 275.496 72.6546 275.996 72.8247C276.494 72.9891 276.933 73.244 277.311 73.5892C277.688 73.9335 277.994 74.3533 278.229 74.8456C278.468 75.339 278.618 75.88 278.679 76.4666C278.741 77.0567 278.707 77.6198 278.576 78.1545C278.448 78.6868 278.237 79.1653 277.941 79.5874ZM278.359 78.1028C278.484 77.5953 278.517 77.0581 278.457 76.4912C278.398 75.9279 278.255 75.4119 278.028 74.9434C277.804 74.4746 277.515 74.0783 277.16 73.7546C276.806 73.4308 276.394 73.1915 275.924 73.0366C275.458 72.8777 274.952 72.8284 274.408 72.8887C273.864 72.9489 273.379 73.1061 272.952 73.3602C272.526 73.6143 272.171 73.9385 271.889 74.3328C271.609 74.7267 271.407 75.1774 271.282 75.6849C271.161 76.192 271.13 76.729 271.189 77.2959C271.248 77.8629 271.39 78.3808 271.614 78.8496C271.841 79.3181 272.132 79.716 272.487 80.0434C272.845 80.3667 273.258 80.6059 273.728 80.7608C274.197 80.9157 274.704 80.9631 275.248 80.9028C275.792 80.8426 276.276 80.6856 276.699 80.4318C277.126 80.1776 277.479 79.8536 277.758 79.4597C278.037 79.0623 278.237 78.6099 278.359 78.1028ZM276.346 75.7307C276.232 75.4504 276.089 75.2269 275.921 75.0544L275.919 75.053C275.754 74.8812 275.562 74.7581 275.341 74.6818C275.121 74.6062 274.872 74.581 274.589 74.6123C274.303 74.644 274.061 74.7235 273.859 74.8461C273.658 74.9692 273.494 75.1319 273.365 75.3366C273.239 75.5418 273.147 75.7916 273.095 76.0907C273.042 76.3846 273.033 76.7167 273.072 77.0875C273.111 77.4619 273.189 77.7877 273.302 78.0672C273.415 78.3438 273.556 78.5662 273.722 78.7393C273.89 78.9109 274.083 79.0337 274.304 79.1101C274.528 79.1824 274.781 79.2055 275.067 79.1738C275.35 79.1424 275.589 79.0649 275.789 78.946C275.989 78.823 276.151 78.661 276.276 78.4574L276.277 78.4556C276.406 78.2499 276.5 78.0019 276.553 77.7072C276.605 77.4094 276.614 77.0741 276.574 76.6997C276.535 76.329 276.458 76.0064 276.346 75.7307ZM276.772 77.7449C276.715 78.0634 276.613 78.3397 276.466 78.5738C276.322 78.8075 276.134 78.9952 275.903 79.137C275.672 79.2751 275.401 79.3614 275.09 79.3958C274.777 79.4305 274.491 79.4059 274.233 79.322C273.977 79.2341 273.754 79.0919 273.561 78.8954C273.372 78.6985 273.217 78.4507 273.095 78.1521C272.973 77.8498 272.891 77.5031 272.85 77.112C272.809 76.7245 272.818 76.3715 272.875 76.053C272.932 75.7309 273.032 75.453 273.176 75.2193C273.323 74.9852 273.512 74.7973 273.744 74.6555C273.978 74.5134 274.252 74.425 274.566 74.3903C274.876 74.3559 275.159 74.3827 275.414 74.4706C275.669 74.5585 275.892 74.7008 276.081 74.8977C276.273 75.0942 276.43 75.3436 276.552 75.6458C276.674 75.9445 276.756 76.2876 276.796 76.6751C276.837 77.0662 276.829 77.4228 276.772 77.7449ZM278.049 72.348L279.67 72.1686C279.85 72.1487 280.022 72.1766 280.171 72.2713C280.308 72.3584 280.409 72.4816 280.476 72.6321L282.269 76.6789C282.269 76.6791 282.27 76.6794 282.27 76.6797C282.33 76.8125 282.391 76.954 282.453 77.104C282.481 76.9447 282.51 76.7942 282.539 76.6524L282.539 76.6513L283.443 72.3047C283.474 72.1544 283.55 72.0217 283.658 71.9073C283.781 71.7716 283.942 71.6956 284.125 71.6753L285.756 71.4948L283.662 80.1087L281.88 80.306L278.049 72.348ZM283.821 72.0589C283.736 72.1481 283.683 72.2447 283.662 72.3487L282.757 76.6957C282.719 76.885 282.681 77.0907 282.642 77.3128C282.632 77.3759 282.623 77.4399 282.614 77.5047C282.592 77.6673 282.574 77.835 282.56 78.0079C282.504 77.8441 282.446 77.686 282.386 77.5336C282.361 77.4713 282.336 77.4099 282.311 77.3494C282.228 77.1409 282.146 76.9485 282.066 76.7722L280.272 72.724C280.221 72.6098 280.148 72.5218 280.05 72.46C279.953 72.3981 279.834 72.375 279.693 72.3906L278.388 72.5352L282.013 80.0667L283.482 79.904L285.464 71.7517L284.148 71.8973C284.014 71.9122 283.905 71.966 283.821 72.0589ZM291.177 70.8946L291.37 72.738L288.499 73.0558L288.644 74.4418L290.843 74.1984L291.03 75.9879L288.832 76.2314L288.981 77.655L291.852 77.3371L292.045 79.1805L287.098 79.7282L286.23 71.4423L291.177 70.8946ZM288.782 77.9016L288.587 76.0339L290.785 75.7905L290.644 74.4449L288.446 74.6884L288.254 72.8584L291.125 72.5405L290.978 71.1412L286.475 71.6397L287.297 79.4817L291.8 78.9831L291.653 77.5837L288.782 77.9016ZM296.789 78.0822L295.389 75.9341C295.327 75.8393 295.259 75.7743 295.184 75.739C295.112 75.7034 295.014 75.6925 294.889 75.7063L294.476 75.7521L294.78 78.6531L293.158 78.8327L292.336 70.9908L294.611 70.7389C295.117 70.6829 295.554 70.6944 295.921 70.7735C296.292 70.8486 296.6 70.9779 296.846 71.1612C297.095 71.3441 297.285 71.5717 297.418 71.8438C297.55 72.1159 297.633 72.4188 297.668 72.7525C297.695 73.0073 297.69 73.2511 297.653 73.4838C297.615 73.7166 297.546 73.9366 297.445 74.1439C297.346 74.3471 297.217 74.5339 297.057 74.7041C296.956 74.8128 296.844 74.9117 296.719 75.0008C296.648 75.0509 296.574 75.098 296.496 75.1419C296.575 75.1756 296.651 75.2166 296.725 75.2647C296.758 75.2865 296.79 75.3097 296.822 75.3345C296.927 75.4135 297.022 75.5138 297.106 75.6351L298.88 78.1992L297.411 78.3618C297.139 78.3919 296.932 78.2987 296.789 78.0822ZM297.29 75.5073L299.277 78.3798L297.434 78.5838C297.267 78.6024 297.106 78.5842 296.959 78.5183C296.812 78.4521 296.694 78.3442 296.603 78.2058L296.602 78.205L295.202 76.057C295.155 75.9845 295.115 75.9537 295.088 75.9413L295.084 75.9393C295.066 75.9305 295.017 75.9168 294.912 75.9283L294.721 75.9495L295.026 78.8505L292.959 79.0793L292.091 70.7934L294.588 70.5169C295.109 70.4592 295.571 70.4696 295.968 70.5548C296.362 70.635 296.702 70.7749 296.979 70.9812C297.256 71.1849 297.47 71.4401 297.618 71.7452C297.763 72.0429 297.853 72.3713 297.89 72.728C297.919 73.0005 297.913 73.264 297.873 73.5178C297.832 73.7718 297.757 74.0129 297.646 74.2404C297.537 74.4647 297.395 74.67 297.22 74.8561M297.29 75.5073C297.194 75.3691 297.084 75.2513 296.958 75.1565C296.945 75.1469 296.933 75.1375 296.92 75.1284M295.711 72.2886C295.492 72.1168 295.173 72.0542 294.754 72.1006L294.323 72.1483L294.346 72.3703L294.124 72.3949L294.322 74.276L294.543 74.2514L294.567 74.4734L294.998 74.4257C295.219 74.4013 295.403 74.35 295.55 74.272C295.7 74.1901 295.819 74.088 295.906 73.9658C295.994 73.8436 296.052 73.7064 296.082 73.5543C296.111 73.3987 296.116 73.2347 296.098 73.0625C296.062 72.718 295.933 72.4601 295.711 72.2886ZM295.863 73.5135C295.863 73.5139 295.862 73.5142 295.862 73.5146L296.082 73.5543L295.863 73.5135C295.863 73.5137 295.863 73.5134 295.863 73.5135ZM295.445 74.0753C295.446 74.0751 295.446 74.0749 295.446 74.0747L295.55 74.272L295.444 74.0761C295.444 74.0758 295.445 74.0756 295.445 74.0753ZM303.148 74.7103L303.46 77.692L301.838 77.8717L301.525 74.8899L298.481 70.3104L299.912 70.152C300.052 70.1364 300.168 70.1617 300.26 70.2278C300.35 70.2904 300.427 70.3762 300.49 70.4854L301.719 72.658C301.818 72.8321 301.909 72.9926 301.992 73.1394C302.016 73.1812 302.039 73.2229 302.062 73.2646C302.118 73.3693 302.17 73.4735 302.218 73.5773C302.241 73.4644 302.268 73.3509 302.3 73.2369C302.313 73.1898 302.327 73.1426 302.342 73.0953C302.393 72.9335 302.448 72.7587 302.506 72.5708L303.246 70.1803C303.26 70.1315 303.281 70.082 303.308 70.0319C303.339 69.9813 303.373 69.9358 303.41 69.8953C303.451 69.8509 303.498 69.8149 303.55 69.7873C303.605 69.7558 303.666 69.7364 303.733 69.7289L305.173 69.5695L303.148 74.7103ZM303.443 69.5917C303.526 69.545 303.615 69.5174 303.71 69.5069L305.516 69.3069L303.375 74.7401L303.705 77.8895L301.639 78.1183L301.309 74.9689L298.092 70.1289L299.888 69.93C300.069 69.91 300.243 69.9402 300.389 70.0452C300.509 70.1287 300.607 70.2399 300.684 70.3725L300.685 70.3745L301.913 72.5465C301.998 72.6957 302.077 72.8349 302.15 72.9641C302.195 72.8213 302.243 72.6686 302.293 72.506L303.032 70.1185C303.032 70.1179 303.032 70.1174 303.033 70.1169C303.052 70.0519 303.079 69.9884 303.112 69.9265L303.117 69.9175C303.155 69.8546 303.198 69.7967 303.247 69.7442C303.247 69.7444 303.247 69.7447 303.246 69.7449M303.443 69.5917C303.369 69.6312 303.304 69.6824 303.247 69.7442L303.443 69.5917ZM256.223 82.9221L255.402 75.0802L257.034 74.8995L257.856 82.7414L256.223 82.9221Z" fill="white"/>
<path d="M254.617 92.2195C254.658 92.215 254.701 92.2192 254.744 92.2319C254.787 92.2413 254.83 92.2629 254.872 92.2968L255.644 92.952C255.383 93.3818 255.034 93.7233 254.597 93.9765C254.163 94.226 253.634 94.3844 253.009 94.4518C252.436 94.5137 251.911 94.4725 251.434 94.3284C250.961 94.1804 250.547 93.9527 250.192 93.6452C249.841 93.3339 249.555 92.9526 249.336 92.5014C249.115 92.0467 248.975 91.5432 248.916 90.9908C248.855 90.4281 248.896 89.9016 249.039 89.4112C249.181 88.9174 249.406 88.481 249.715 88.102C250.026 87.7226 250.414 87.4118 250.876 87.1698C251.339 86.9278 251.862 86.7753 252.446 86.7123C252.729 86.6818 252.998 86.679 253.252 86.7039C253.509 86.7251 253.751 86.7688 253.978 86.835C254.205 86.8979 254.417 86.9816 254.613 87.0861C254.809 87.1872 254.986 87.3043 255.143 87.4375L254.639 88.2934C254.606 88.3459 254.566 88.3956 254.518 88.4426C254.471 88.4862 254.4 88.513 254.307 88.523C254.245 88.5298 254.185 88.5223 254.127 88.5006C254.068 88.479 254.006 88.4525 253.94 88.4212C253.873 88.3865 253.8 88.3508 253.719 88.3141C253.641 88.2736 253.548 88.24 253.441 88.2132C253.336 88.1826 253.213 88.1609 253.072 88.1482C252.935 88.1351 252.774 88.1384 252.591 88.1582C252.274 88.1924 251.99 88.2807 251.74 88.4229C251.489 88.5617 251.281 88.7467 251.114 88.9777C250.949 89.205 250.83 89.4728 250.755 89.7813C250.683 90.0893 250.668 90.4281 250.707 90.7974C250.749 91.1841 250.838 91.522 250.974 91.8111C251.113 92.0999 251.284 92.3382 251.486 92.526C251.691 92.7099 251.92 92.8423 252.173 92.9233C252.426 93.0042 252.691 93.0298 252.967 93C253.126 92.9828 253.27 92.9603 253.4 92.9323C253.529 92.9009 253.647 92.8602 253.754 92.8103C253.863 92.7601 253.965 92.7002 254.059 92.6307C254.156 92.5574 254.251 92.4702 254.345 92.3693C254.383 92.3303 254.425 92.2979 254.471 92.2719C254.516 92.2425 254.565 92.2251 254.617 92.2195Z" fill="white"/>
<path d="M261.074 85.8649L261.219 87.2113L258.122 87.5455L258.312 89.3061L260.684 89.0501L260.824 90.3447L258.452 90.6007L258.646 92.3975L261.743 92.0633L261.888 93.4097L257.031 93.9339L256.217 86.3892L261.074 85.8649Z" fill="white"/>
<path d="M263.46 85.6074C263.536 85.5992 263.6 85.5957 263.653 85.5971C263.705 85.5984 263.754 85.6071 263.797 85.6234C263.84 85.6362 263.883 85.6578 263.925 85.6882C263.966 85.7186 264.015 85.7606 264.069 85.814L268.142 89.9583C268.112 89.8148 268.087 89.6761 268.065 89.5422C268.043 89.4049 268.026 89.2758 268.013 89.1549L267.582 85.1625L269.125 84.996L269.94 92.5407L269.028 92.6391C268.894 92.6536 268.777 92.6452 268.68 92.6138C268.582 92.5824 268.484 92.5162 268.386 92.415L264.343 88.3042C264.368 88.4343 264.39 88.5628 264.411 88.6898C264.431 88.8133 264.447 88.9303 264.459 89.0408L264.896 93.085L263.353 93.2516L262.538 85.7069L263.46 85.6074Z" fill="white"/>
<path d="M276.311 84.2204L276.461 85.6082L274.338 85.8373L275.002 91.9943L273.252 92.1832L272.588 86.0262L270.465 86.2554L270.315 84.8676L276.311 84.2204Z" fill="white"/>
<path d="M279.762 88.657L280.063 91.4481L278.313 91.637L277.498 84.0923L279.953 83.8274C280.498 83.7685 280.969 83.7753 281.364 83.8479C281.763 83.9166 282.094 84.0381 282.357 84.2122C282.624 84.386 282.827 84.6033 282.967 84.8641C283.107 85.1249 283.194 85.4158 283.229 85.7369C283.255 85.982 283.247 86.2168 283.205 86.4414C283.163 86.6659 283.087 86.8785 282.976 87.0791C282.868 87.2758 282.726 87.4569 282.552 87.6224C282.381 87.7875 282.179 87.9299 281.943 88.0496C282.067 88.0956 282.184 88.1564 282.293 88.2319C282.406 88.307 282.507 88.4026 282.597 88.5187L284.485 90.9708L282.901 91.1418C282.607 91.1735 282.385 91.0858 282.233 90.8786L280.744 88.8234C280.678 88.7327 280.605 88.6708 280.524 88.6375C280.447 88.6039 280.342 88.5944 280.207 88.6089L279.762 88.657ZM279.631 87.4505L280.336 87.3745C280.574 87.3488 280.773 87.2976 280.932 87.221C281.095 87.1406 281.223 87.0412 281.319 86.9226C281.414 86.804 281.479 86.6714 281.512 86.5246C281.544 86.3744 281.552 86.2164 281.534 86.0507C281.498 85.7193 281.361 85.4722 281.124 85.3092C280.89 85.1459 280.547 85.0886 280.094 85.1375L279.39 85.2135L279.631 87.4505Z" fill="white"/>
<path d="M289.709 82.7744L289.854 84.1207L286.758 84.4549L286.948 86.2155L289.32 85.9596L289.459 87.2541L287.088 87.5101L287.282 89.307L290.378 88.9728L290.523 90.3191L285.666 90.8433L284.852 83.2986L289.709 82.7744Z" fill="white"/>
<path d="M140.485 189.727V95.4471C143.208 69.6763 162.266 48.8676 179.402 45.1861C183.085 44.3857 186.929 45.1861 190.452 46.6267C198.94 50.3082 203.397 43.8868 211.725 33.4824C219.165 43.155 231.07 46.1312 237.376 66.3149C238.177 66.7951 238.817 67.4354 239.458 68.2357C247.466 78.9602 243.782 97.6881 235.454 119.617L248.266 208.615L140.485 189.727Z" fill="#9E4B47"/>
<path d="M147.669 184.976V113.266C147.669 99.9802 150.711 86.8547 156.797 75.1698C161.121 67.1665 166.086 60.9238 172.492 58.0426C177.937 54.201 184.183 50.6795 191.389 52.4403C196.194 53.7208 201.319 56.7621 209.967 49.5591L219.576 41.5557L211.914 33.8545L192.35 43.3165C190.589 44.4369 188.476 43.3165 186.585 43.3165C183.64 43.3165 182.261 43.6366 179.859 43.3165C164.965 40.9155 152.793 56.7621 143.985 75.0097C137.419 88.2953 134.696 103.182 135.177 118.068L137.579 190.098L147.669 184.976Z" fill="#D9605F"/>
<path d="M224.191 45.3872L206.19 59.5118C197.062 55.0299 189.375 53.2692 183.129 57.7511C181.687 58.8715 180.086 59.8319 178.484 60.7923C165.352 68.4756 157.024 84.1621 154.942 110.413C154.622 113.454 154.622 116.656 154.622 119.697L155.583 180.202L166.954 174.28L164.231 120.337C163.11 98.248 172.879 76.9591 190.496 63.5135C190.656 63.3534 190.816 63.3534 190.816 63.1933C194.019 59.0316 203.308 60.3121 210.675 63.3534C211.315 63.6735 211.956 63.5135 212.436 63.1933L228.655 49.8515L224.191 45.3872Z" fill="#D9605F"/>
<path d="M233.863 57.6641L219.256 68.6073C211.248 64.6056 204.522 63.165 199.077 67.1667C197.796 68.1271 196.515 69.0875 195.073 69.8879C183.543 76.6107 176.176 90.3764 174.414 113.586C174.254 116.307 174.094 119.028 174.254 121.75L175.055 174.892L185.144 169.77L182.742 122.23C181.781 102.862 190.269 84.1338 205.803 72.2889C205.964 72.1288 205.964 72.1288 206.124 71.9687C209.006 68.2872 217.174 69.4076 223.58 72.1288C224.06 72.2889 224.701 72.2889 225.182 71.9687L236.467 63.2444L235.351 60.2682L233.863 57.6641Z" fill="#D9605F"/>
<path d="M237.672 71.4883L228.864 79.1715C223.098 75.65 218.134 74.2094 213.97 77.5708C213.009 78.3712 212.048 79.1715 210.927 79.8118C202.279 85.4141 196.674 97.099 194.752 116.947C194.592 119.348 194.432 121.589 194.432 123.99L193.951 169.769L201.478 165.608L200.838 124.47C200.517 107.823 207.244 91.8168 218.774 82.0527C218.935 82.0527 218.935 81.8926 219.095 81.8926C221.177 78.8514 227.262 79.9718 231.907 82.3728C232.227 82.5329 232.707 82.5329 233.028 82.2128L240.074 76.6104L237.672 71.4883Z" fill="#D9605F"/>
<path d="M182.582 97.741C183.222 97.1007 183.543 96.6205 183.863 95.9802C184.183 95.34 184.023 94.6997 183.383 94.0594C182.902 93.5792 182.101 93.4192 181.461 93.2591C180.82 93.099 180.019 92.939 179.539 92.6188C179.379 92.4588 179.219 92.4588 178.898 92.4588L177.617 91.1782L175.855 92.939L177.137 94.2195C177.137 94.3796 177.137 94.6997 177.297 94.8598C177.617 95.34 177.777 95.9802 177.937 96.7806C178.098 97.4208 178.258 98.2212 178.738 98.7014C179.219 99.1816 180.019 99.3416 180.66 99.1816C181.301 98.8614 181.941 98.3812 182.582 97.741ZM181.941 97.2608C181.461 97.741 180.82 98.2212 180.5 98.3812C180.18 98.5413 179.699 98.5413 179.379 98.2212C179.058 97.901 178.898 97.4208 178.738 96.7806C178.578 96.1403 178.418 95.34 177.937 94.6997L179.058 93.5792C179.699 94.0594 180.5 94.2195 181.14 94.3796C181.781 94.5396 182.422 94.6997 182.582 95.0198C182.902 95.34 182.902 95.6601 182.742 96.1403C182.902 96.1403 182.422 96.7806 181.941 97.2608Z" fill="#FBBE4E"/>
<path opacity="0.85" d="M181.462 104.783C185.619 104.783 188.989 101.414 188.989 97.2595C188.989 93.1046 185.619 89.7363 181.462 89.7363C177.305 89.7363 173.935 93.1046 173.935 97.2595C173.935 101.414 177.305 104.783 181.462 104.783Z" fill="#A5CCED"/>
<path d="M208.205 96.6184C208.845 95.9781 209.166 95.4979 209.486 94.8577C209.806 94.2174 209.646 93.5771 209.006 92.9369C208.525 92.4567 207.724 92.2966 207.084 92.1365C206.443 91.9765 205.642 91.8164 205.162 91.4963C205.002 91.3362 204.682 91.3362 204.521 91.3362L203.24 90.0557L201.479 91.8164L202.76 93.0969C202.76 93.257 202.76 93.5771 202.92 93.7372C203.24 94.2174 203.4 94.8577 203.56 95.658C203.721 96.2983 203.881 97.0986 204.361 97.5788C204.842 98.059 205.642 98.2191 206.283 98.059C206.924 97.5788 207.564 97.0986 208.205 96.6184ZM207.564 95.9781C207.084 96.4583 206.443 96.9385 206.123 97.0986C205.803 97.2587 205.322 97.2587 205.002 96.9385C204.682 96.6184 204.521 96.1382 204.361 95.4979C204.201 94.8577 204.041 94.0573 203.56 93.4171L204.682 92.2966C205.322 92.7768 206.123 92.9369 206.763 93.0969C207.404 93.257 208.045 93.4171 208.205 93.7372C208.525 94.0573 208.525 94.3775 208.365 94.8577C208.525 94.8577 208.045 95.4979 207.564 95.9781Z" fill="#FBBE4E"/>
<path opacity="0.85" d="M207.087 103.501C211.244 103.501 214.614 100.133 214.614 95.9777C214.614 91.8228 211.244 88.4546 207.087 88.4546C202.93 88.4546 199.56 91.8228 199.56 95.9777C199.56 100.133 202.93 103.501 207.087 103.501Z" fill="#A5CCED"/>
<path d="M306.146 17.8574C306.146 20.7386 306.306 23.7799 306.306 26.6611C306.306 28.4218 306.306 30.0225 306.306 31.9433C305.185 31.4631 305.665 30.5027 305.185 29.8625C304.384 28.902 303.583 29.0621 302.623 29.2222C301.501 29.3822 301.501 30.1826 301.822 30.9829C302.943 34.1843 300.22 35.945 298.939 38.0259C298.299 38.9863 297.338 40.747 295.576 40.5869C295.096 40.5869 294.935 41.2272 294.935 41.7074C294.935 45.389 292.533 46.9896 289.49 47.1497C287.729 47.1497 289.33 50.0309 287.408 48.9104C287.248 48.7504 286.768 49.0705 286.768 49.0705C286.928 52.592 281.483 50.351 281.963 54.0326C281.963 54.3527 281.963 53.8725 281.963 54.3527C282.123 55.4732 282.444 57.0738 281.162 57.554C279.881 57.8742 279.241 56.4336 278.76 55.4732C278.44 54.8329 278.44 54.1926 278.76 53.3923C278.12 53.5524 278.44 54.3527 277.959 54.6728C277.799 54.6728 277.799 54.8329 277.639 54.8329C277.159 55.153 276.838 55.6332 276.358 55.9534C274.596 56.2735 272.995 56.4336 271.393 55.4732C270.432 55.153 271.553 53.7124 270.432 53.7124C268.991 53.7124 269.952 55.4732 268.991 55.9534C268.671 55.9534 268.511 55.9534 268.19 55.9534C267.71 56.2735 267.069 56.4336 266.749 56.9138C265.468 59.1547 264.026 58.6745 262.585 57.0738C258.741 55.9534 254.898 56.7537 251.054 56.5936C248.652 56.4336 246.73 56.1134 244.808 54.5128C243.047 53.0722 240.965 51.7916 239.203 54.8329C238.883 55.4732 238.242 55.3131 237.762 55.4732C236.641 55.9534 235.039 55.9534 234.399 56.9138C233.863 55.8039 233.119 53.9437 233.119 52.8277C232.319 52.1874 231.996 48.0951 231.036 48.7354C228.633 48.0951 228.655 46.8753 224.935 45.7592C225.095 44.4787 224.775 41.4594 224.935 40.1789C227.657 35.857 227.833 39.3064 231.036 35.3047C231.836 34.3443 230.715 32.5836 232.477 31.9433C233.117 31.6232 233.758 31.4631 234.399 31.143C234.719 30.9829 235.039 30.9829 235.199 30.8229C251.535 27.4614 267.87 24.1 284.205 21.0588C289.811 19.9383 295.416 18.4977 301.181 18.1776C302.943 17.8574 304.544 17.8574 306.146 17.8574Z" fill="#25262B"/>
<path d="M278.671 51.6394C277.39 52.4397 275.949 52.1196 274.508 52.4397C273.066 52.9199 272.265 52.2796 271.785 50.839C271.305 49.3984 270.504 48.1179 269.863 46.6773C268.102 48.9182 270.344 52.7598 265.539 53.7202C260.575 54.6806 259.614 51.7994 258.012 47.7977C257.532 50.1988 257.372 51.7994 257.051 53.24C256.891 54.3605 256.411 55.0008 255.129 55.1608C252.087 55.641 251.766 55.3209 252.407 52.1196C252.887 49.5585 253.368 46.9974 254.008 44.4363C254.649 41.7152 257.372 39.9545 260.094 40.4347C260.895 40.5947 261.215 41.0749 261.375 41.7152C261.856 43.1558 262.496 44.4363 263.137 46.037C263.617 45.2367 264.098 44.5964 264.098 43.636C264.098 40.2746 265.859 38.9941 269.062 38.834C270.824 38.6739 271.625 38.834 270.984 40.9149C270.664 41.8753 270.504 42.8357 270.184 44.4363C271.945 42.3555 273.226 40.7548 274.347 38.834C275.468 37.5535 279.793 36.2729 281.234 36.7531C282.195 37.2333 282.035 37.8736 281.714 38.6739C281.074 39.9545 280.113 41.0749 279.152 42.0353C277.39 43.7961 276.91 45.5568 278.511 47.7977C278.992 48.438 279.472 49.2383 279.312 50.1988C279.152 50.9991 278.832 51.3192 278.671 51.6394Z" fill="#ED2127"/>
<path d="M278.673 51.6401C278.673 51.1599 278.673 50.8398 278.673 50.3596C279.954 47.4784 279.954 44.277 280.755 41.3958C281.235 39.7952 281.395 38.0344 282.677 36.7539C286.2 36.1136 289.883 35.7935 293.407 34.8331C295.489 34.3529 295.649 34.8331 295.168 36.5938C294.848 37.8744 294.688 38.9948 293.407 39.6351C292.446 40.2754 291.325 40.1153 290.204 40.2754C291.004 40.9156 292.926 38.6747 292.926 41.3958C292.926 44.277 291.485 45.5576 288.762 45.3975C287.801 45.3975 287.001 45.7176 286.68 46.8381C285.079 51.4801 285.079 51.4801 280.114 51.6401C279.634 51.6401 279.153 51.6401 278.673 51.6401Z" fill="#EC2026"/>
<path d="M282.515 36.9131C281.554 41.2349 280.593 45.3967 279.633 49.7185C279.472 50.5188 279.312 50.999 278.512 50.5188C275.148 46.5171 276.43 43.1557 279.953 39.9544C280.593 39.4742 280.914 38.6738 281.715 37.3933C278.672 37.7134 276.109 37.3933 274.027 39.3141C274.508 36.4329 277.07 37.7134 278.672 37.0732C279.793 36.4329 281.234 36.9131 282.515 36.9131Z" fill="#302020"/>
<path d="M279.151 55.0009C278.671 55.0009 278.03 55.0009 277.55 55.0009C277.55 54.5207 277.55 53.8804 277.71 53.4002C278.03 52.2797 278.831 52.5999 279.472 52.92C280.753 53.5603 279.472 53.7203 279.151 54.0405C278.991 54.2005 279.151 54.6807 279.151 55.0009Z" fill="#292E31"/>
<path d="M140.302 190.098L224.38 150.081H239.435L247.922 209.146L140.302 190.098Z" fill="#9E4B47"/>
<path d="M175.083 173.735L171.051 169.609V108.304L175.695 102.061C174.414 108.624 173.933 114.866 173.933 121.589L175.083 173.735Z" fill="#E8A953"/>
<path d="M193.953 164.648L190.109 160.647V109.425C190.109 103.343 193.793 98.0604 199.558 95.9795C198.277 102.542 195.394 105.584 195.394 112.306L193.953 164.648Z" fill="#E8A953"/>
<path d="M224.192 45.3872L205.644 59.644C196.516 55.1622 188.829 53.4014 182.583 57.8833C181.142 59.0038 179.54 59.9642 177.939 60.9246C164.806 68.6078 156.478 84.2944 154.396 110.545C154.076 113.587 154.076 116.788 154.076 119.829L155.037 180.335" stroke="#E8A953" stroke-miterlimit="10"/>
<path d="M60.0684 115.986L93.6998 112.145" stroke="white" stroke-miterlimit="10"/>
<path d="M61.5088 122.869L95.1403 118.868" stroke="white" stroke-miterlimit="10"/>
<path d="M65.833 99.6601L82.0082 97.7393" stroke="white" stroke-miterlimit="10"/>
<path d="M58.3057 107.343L91.9371 103.501" stroke="#ED2127" stroke-miterlimit="10"/>
<g clip-path="url(#clip0)">
<path d="M170.692 146.103C170.692 146.103 173.696 146.959 173.988 147.764C174.28 148.586 169.937 147.576 170.692 146.103Z" fill="#FFC2B0"/>
<path d="M172.701 146.377C172.701 146.377 176.89 149.854 174.383 150.299C174.383 150.299 171.86 146.994 172.701 146.377Z" fill="#FFC2B0"/>
<path d="M169.816 145.007C169.816 145.007 172.735 146.086 172.975 146.908C173.198 147.747 168.941 146.411 169.816 145.007Z" fill="#FFC2B0"/>
<path d="M178.091 150.505L175.224 146.702C175.224 146.702 170.263 143.277 169.473 143.979C168.443 144.904 172.1 146.274 172.1 146.274C172.1 146.274 174.417 148.86 174.366 148.963C174.349 148.997 174.469 149.306 174.297 149.477C174.005 149.734 173.542 149.751 173.216 149.494L172.254 148.723C172.254 148.723 170.537 147.576 170.142 148.261C169.782 148.86 171.516 149.871 171.516 149.871L173.696 151.515L175.447 152.594C176.254 153.091 177.302 152.954 177.971 152.269L178.023 152.217C178.435 151.738 178.469 151.018 178.091 150.505Z" fill="#FFC2B0"/>
<path d="M175.568 155.848C178.091 160.147 180.186 164.96 182.074 167.34C182.521 167.906 183.345 168.008 183.929 167.58L184.924 166.827C185.405 166.45 185.508 165.765 185.148 165.268L177.353 154.718C177.044 154.307 176.203 154.204 175.808 154.547C175.43 154.855 175.327 155.437 175.568 155.848Z" fill="#FFC2B0"/>
<path d="M161.559 101.007C161.559 101.007 161.817 100.151 161.834 99.7401C161.886 98.8495 161.937 98.1473 161.371 98.1987C161.371 98.1987 161.061 98.3014 160.924 98.781C160.924 98.781 160.89 99.466 160.581 99.3119C160.255 99.1578 160.169 99.0379 159.808 98.4556C159.396 97.8047 159.276 96.9826 158.812 96.9998C158.349 97.0169 158.04 97.3766 158.641 98.3185C158.641 98.3185 158.864 98.7125 158.812 98.7981C158.692 99.055 157.971 98.0616 157.628 97.9931C157.628 97.9931 156.615 97.8904 157.113 98.8495C157.113 98.8495 155.98 98.6611 156.495 99.6544C157.01 100.665 157.079 100.391 157.079 100.391C157.079 100.391 157.027 100.305 156.701 100.22C156.375 100.134 156.048 100.203 155.963 100.425C155.791 100.905 156.512 101.196 156.821 101.419C157.13 101.641 158.658 102.874 159.843 102.772C160.649 102.737 161.559 101.007 161.559 101.007Z" fill="#FFBCA8"/>
<path d="M168.855 115.651C168.855 115.651 161.714 104.844 161.748 100.991L159.087 102.926C160.031 107.996 163.551 114.898 165.971 121.286L168.855 115.651Z" fill="#EBA218"/>
<path d="M187.19 105.786C187.19 105.786 187.276 104.896 187.396 104.502C187.671 103.663 187.894 102.978 188.392 103.234C188.392 103.234 188.65 103.44 188.581 103.937C188.581 103.937 188.358 104.588 188.718 104.57C189.079 104.553 189.199 104.451 189.766 104.057C190.401 103.611 190.796 102.875 191.225 103.08C191.654 103.269 191.809 103.697 190.899 104.382C190.899 104.382 190.555 104.656 190.555 104.776C190.573 105.067 191.603 104.399 191.963 104.468C191.963 104.468 192.942 104.742 192.135 105.461C192.135 105.461 193.268 105.701 192.41 106.437C191.551 107.174 191.585 106.917 191.585 106.917C191.585 106.917 191.671 106.865 191.997 106.9C192.324 106.934 192.616 107.122 192.616 107.362C192.598 107.876 191.826 107.876 191.448 107.962C191.07 108.047 189.199 108.629 188.152 108.116C187.396 107.722 187.19 105.786 187.19 105.786Z" fill="#FFBCA8"/>
<path d="M166.022 130.637H155.824V137.385H166.022V130.637Z" fill="#35519C"/>
<path d="M172.134 175.253C172.134 180.493 167.516 181.024 161.559 180.99C155.602 180.973 150.571 180.425 150.571 175.167C150.571 169.909 155.395 165.696 161.353 165.713C167.31 165.73 172.134 170.012 172.134 175.253Z" fill="#FFBCA8"/>
<path d="M168.082 163.058L169.953 165.901C170.28 166.398 170.503 166.963 170.606 167.545L171.911 173.386L161.181 175.92V163.024L168.082 163.058Z" fill="#FFBCA8"/>
<path d="M154.298 163.007L152.581 165.85C152.272 166.347 152.066 166.912 151.98 167.494L150.727 173.557L165.989 175.938L164.169 163.041L154.298 163.007Z" fill="#FFBCA8"/>
<path d="M172.581 142.266L151.378 141.65C149.387 141.598 147.808 139.937 147.876 137.95L147.893 137.385C147.945 135.398 149.61 133.823 151.602 133.891L172.804 134.508C174.796 134.559 176.375 136.221 176.306 138.207L176.289 138.772C176.238 140.759 174.572 142.318 172.581 142.266Z" fill="#FFBCA8"/>
<path d="M175.019 137.779L151.104 136.306L150.503 137.197C148.083 140.759 147.293 145.178 148.306 149.357C149.37 153.656 151.722 159.102 151.98 167.494L169.972 165.901C174.59 145.88 175.019 137.779 175.019 137.779Z" fill="#FFBCA8"/>
<path d="M147.894 137.779L145.009 159.085C144.838 160.232 146.057 161.722 147.052 161.962L147.653 162.116C149.267 162.51 151.362 161.62 151.808 160.078L156.186 140.382C156.186 140.382 158.572 134.662 151.224 134.542C148.1 134.491 147.894 137.779 147.894 137.779Z" fill="#4C6EC9"/>
<path d="M152.701 133.703C152.701 133.703 146.091 133.223 147.859 141.085C147.859 141.085 146.743 148.449 148.941 154.238C151.138 160.027 151.602 166.604 151.602 166.604L170.469 166.141L175.019 141.975C175.019 141.975 177.319 140.331 176.787 137.402C176.238 134.474 173.989 134.285 172.856 134.234C171.723 134.182 167.757 133.72 167.757 133.72L161.868 137.865L160.581 138.43L155.825 134.559L152.701 133.703Z" fill="#4C6EC9"/>
<path d="M173.748 131.802C173.525 135.895 171.585 139.012 167.482 139.012C163.378 139.012 160.048 135.69 160.048 131.596C160.048 127.503 163.378 126.527 167.482 126.527C171.568 126.527 174.023 126.784 173.748 131.802Z" fill="#1A2B54"/>
<path d="M171.31 117.963L171.052 117.929C170.245 117.843 169.421 117.347 169.507 116.644L170.297 111.489C170.383 110.787 171.104 110.273 171.911 110.376L172.168 110.41C172.975 110.496 173.559 111.147 173.49 111.849L173.164 117.158C173.061 117.843 172.1 118.049 171.31 117.963Z" fill="#FFBCA8"/>
<path d="M168.547 115.188C168.547 115.188 165.577 115.788 165.697 118.888C165.697 118.888 164.959 122.056 165.731 124.643C166.504 127.229 164.289 127.845 164.289 127.845L173.543 130.466L177.474 120.155C177.474 120.155 178.247 120.789 178.109 119.504C177.972 118.22 177.405 117.689 176.616 117.329C176.169 117.124 173.474 115.822 173.474 115.822L172.873 116.353C171.946 117.158 170.504 116.901 169.92 115.805L169.697 115.394L168.547 115.188Z" fill="#4C6EC9"/>
<path d="M169.765 113.973C168.477 113.476 165.851 111.866 166.383 109.725L167.79 104.228C168.477 101.47 171.396 99.8088 174.263 100.511L174.555 100.579C177.439 101.282 179.242 104.125 178.555 106.882L176.735 112.209C175.568 114.572 173.49 114.743 172.289 114.606C171.808 114.538 170.228 114.144 169.765 113.973Z" fill="#FFBCA8"/>
<path d="M176.375 101.247C175.087 101.025 174.126 102.446 174.778 103.56C175.311 104.467 175.311 103.782 176.684 104.878C177.354 105.409 176.976 108.629 176.1 109.982C175.791 110.462 176.22 111.078 176.787 110.941L178.109 110.616C178.109 110.616 179.5 108.561 179.706 106.848C180.392 101.008 176.564 101.265 176.375 101.247Z" fill="#272727"/>
<path d="M175.363 102.498C175.363 102.498 175.002 103.423 173.32 103.594C170.246 103.902 168.1 101.316 166.624 108.732C166.624 108.732 166.676 104.947 167.002 103.268C167.328 101.59 167.723 100.905 169.096 100.237C170.555 99.5176 172.204 98.1646 174.865 99.5519C175.551 99.9116 176.444 101.093 176.427 101.539C176.444 102.463 175.363 102.498 175.363 102.498Z" fill="#272727"/>
<path d="M178.943 111.434C179.406 110.417 179.257 109.356 178.61 109.062C177.962 108.769 177.062 109.354 176.599 110.371C176.136 111.387 176.286 112.448 176.933 112.742C177.58 113.036 178.481 112.45 178.943 111.434Z" fill="#FFBCA8"/>
<path d="M177.097 110.547C177.097 110.547 177.629 109.314 178.642 109.965" stroke="#EA986C" stroke-width="2.0861" stroke-miterlimit="10" stroke-linecap="round" stroke-linejoin="round"/>
<path d="M177.937 111.489C177.868 111.78 177.628 111.969 177.422 111.917C177.216 111.866 177.113 111.575 177.181 111.284C177.25 110.993 177.49 110.804 177.696 110.856C177.92 110.907 178.023 111.198 177.937 111.489Z" fill="#EA986C"/>
<path d="M147.756 142.523C146.09 147.781 144.271 150.453 143.103 157.869C142.914 159.034 143.738 160.147 144.906 160.318L146.09 160.507C147.326 160.695 148.717 160.592 148.923 159.359C150.211 156.054 150.863 150.453 151.515 142.489C151.618 141.821 150.949 140.948 150.279 140.862C149.232 140.742 148.082 141.496 147.756 142.523Z" fill="#FFBCA8"/>
<path d="M159.601 170.012C159.601 170.269 159.395 170.474 159.137 170.474C158.88 170.474 158.674 170.269 158.674 170.012C158.674 169.755 158.88 169.549 159.137 169.549C159.395 169.549 159.601 169.755 159.601 170.012Z" fill="#FFBCA8"/>
<path d="M176.375 137.711L180.375 158.845C180.599 159.993 179.466 161.534 178.47 161.825L177.869 162.014C176.272 162.493 174.143 161.705 173.611 160.198L168.221 140.759C168.221 140.759 165.542 135.159 172.873 134.679C175.998 134.439 176.375 137.711 176.375 137.711Z" fill="#4C6EC9"/>
<path d="M162.005 172.478L164.907 206.578C165.061 208.65 166.692 210.243 168.581 210.175C170.452 210.106 171.929 208.445 171.894 206.39C171.86 204.728 171.826 200.121 171.997 198.597C172.272 196.216 172.186 188.697 172.289 173.78C172.306 170.44 170.401 167.46 167.448 167.46C164.46 167.443 161.731 169.104 162.005 172.478Z" fill="#FFBCA8"/>
<path d="M169.388 232.628C167.242 221.923 165.302 215.038 165.233 205.105C164.941 203.152 166.297 201.371 168.237 201.183C170.091 201.012 171.448 202.45 172.049 204.266C175.551 214.85 171.705 217.83 173.628 232.491C173.8 233.827 172.855 234.906 171.791 235.008C170.658 235.111 169.594 234.066 169.388 232.628Z" fill="#FFBCA8"/>
<path d="M151.534 239.855L135.155 237.235C135.31 234.546 137.353 232.679 139.722 233.056L152.392 235.146L151.534 239.855Z" fill="#3F60BD"/>
<path d="M142.778 238.417L135.155 237.218C135.327 234.529 137.284 232.645 139.55 233.022L140.271 233.142C142.091 233.433 143.259 235.505 142.898 237.732L142.778 238.417Z" fill="#CDE3F7"/>
<path d="M135.756 238.862L150.743 241.328C151.224 241.414 151.688 241.089 151.774 240.609C151.859 240.13 151.516 239.667 151.035 239.581L136.048 237.132C135.567 237.047 135.103 237.372 135.018 237.852C134.932 238.331 135.258 238.776 135.756 238.862Z" fill="#1A2B54"/>
<path d="M143.79 234.46L146.022 232.885C147.67 233.998 149.541 234.597 152.013 233.895C152.34 233.947 152.546 234.255 152.494 234.563L152.288 235.848L143.79 234.46Z" fill="#1A2B54"/>
<path d="M145.731 236.772L146.331 236.875C147.568 237.081 148.752 236.242 148.958 234.991L149.387 232.354C149.593 231.121 148.752 229.939 147.499 229.733L146.898 229.631C145.662 229.425 144.477 230.264 144.271 231.515L143.842 234.152C143.636 235.385 144.494 236.567 145.731 236.772Z" fill="#3F60BD"/>
<path d="M144.975 235.18C144.391 234.906 143.808 234.615 143.224 234.341C142.657 234.067 143.07 233.159 143.636 233.45C144.22 233.724 144.803 234.015 145.387 234.289C145.971 234.563 145.559 235.454 144.975 235.18Z" fill="#1A2B54"/>
<path d="M142.881 235.009C142.537 234.683 142.142 234.443 141.679 234.324C141.421 234.255 141.215 234.032 141.267 233.758C141.301 233.519 141.576 233.279 141.833 233.347C142.468 233.519 143.018 233.81 143.499 234.255C143.962 234.683 143.344 235.454 142.881 235.009Z" fill="#1A2B54"/>
<path d="M174.384 234.957H168.169V239.821H174.384V234.957Z" fill="#3F60BD"/>
<path d="M173.868 233.244C173.147 233.587 172.46 233.775 171.808 233.878V235.06H174.417V233.809C174.434 233.501 174.177 233.244 173.868 233.244Z" fill="#1A2B54"/>
<path d="M168.752 233.244C169.473 233.587 170.16 233.775 170.812 233.878V235.06H168.203V233.809C168.186 233.501 168.443 233.244 168.752 233.244Z" fill="#1A2B54"/>
<path d="M170.899 237.612H171.482C172.684 237.612 173.68 236.618 173.68 235.419V232.85C173.68 231.652 172.684 230.658 171.482 230.658H170.899C169.697 230.658 168.701 231.652 168.701 232.85V235.419C168.701 236.618 169.68 237.612 170.899 237.612Z" fill="#3F60BD"/>
<path d="M174.898 239.633L167.482 239.684C167.224 237.098 168.787 235.008 170.984 235.008H171.688C173.456 235.008 174.898 236.772 174.898 238.947V239.633Z" fill="#CDE3F7"/>
<path d="M171.757 235.351C171.328 235.231 170.882 235.214 170.435 235.317C170.178 235.368 169.92 235.283 169.835 235.026C169.766 234.803 169.886 234.478 170.126 234.426C170.727 234.289 171.345 234.272 171.946 234.426C172.53 234.58 172.341 235.505 171.757 235.351Z" fill="#1A2B54"/>
<path d="M174.538 241.106H167.928C167.482 241.106 167.121 240.746 167.121 240.301C167.121 239.855 167.482 239.496 167.928 239.496H174.538C174.984 239.496 175.345 239.855 175.345 240.301C175.345 240.746 174.984 241.106 174.538 241.106Z" fill="#1A2B54"/>
<path d="M157.73 135.124L155.361 138.43L152.7 133.686L155.808 130.62C155.808 130.62 155.911 132.418 157.679 134.337C157.885 134.576 157.902 134.885 157.73 135.124Z" fill="#7292ED"/>
<path d="M156.46 135.758L160.889 138.601C160.992 138.67 161.112 138.533 161.044 138.43L157.799 134.525L156.46 135.758Z" fill="#7292ED"/>
<path d="M164.083 135.124L166.452 138.43L169.113 133.686L166.006 130.62C166.006 130.62 165.903 132.418 164.134 134.337C163.945 134.576 163.928 134.885 164.083 135.124Z" fill="#7292ED"/>
<path d="M165.577 135.878L161.096 138.618C160.958 138.704 160.787 138.533 160.907 138.396L164.031 134.542L165.577 135.878Z" fill="#7292ED"/>
<path d="M172.221 172.084L173.611 201.474C173.611 201.474 175.689 208.41 174.298 222.899L174.848 232.747C174.882 233.33 174.453 233.809 173.869 233.809H168.77C168.221 233.809 167.74 233.364 167.689 232.799C167.225 228.277 165.354 209.917 165.251 208.136C165.131 206.115 161.56 172.067 161.56 172.067H172.221V172.084Z" fill="#85A6FF"/>
<path d="M163.533 170.012L156.665 201.508C156.665 201.508 157.678 208.616 153.026 223.756L152.494 233.313C152.408 233.895 151.79 234.357 151.12 234.357L145.678 232.302C145.026 232.302 144.253 231.549 144.322 230.983C144.785 226.496 146.45 210.602 146.725 208.838C147.051 206.835 150.966 170.012 150.966 170.012H163.533Z" fill="#85A6FF"/>
<path d="M151.601 166.586C150.708 169.412 150.211 172.204 150.64 174.876L150.846 181.435L172.409 181.247V173.146L170.469 166.124L151.601 166.586Z" fill="#85A6FF"/>
<path d="M152.065 234.648L144.064 233.347C143.807 233.313 143.635 233.056 143.669 232.816L144.167 229.802C144.202 229.545 144.459 229.373 144.699 229.408L152.7 230.709C152.957 230.744 153.129 231 153.095 231.24L152.597 234.255C152.562 234.529 152.322 234.7 152.065 234.648Z" fill="#B0C5FF"/>
<path d="M175.327 234.306H167.207C166.949 234.306 166.743 234.101 166.743 233.844V230.778C166.743 230.521 166.949 230.315 167.207 230.315H175.327C175.585 230.315 175.791 230.521 175.791 230.778V233.844C175.808 234.101 175.585 234.306 175.327 234.306Z" fill="#B0C5FF"/>
<path d="M160.048 132.727C160.048 132.727 155.945 135.587 155.739 144.03L156.116 146.976C156.116 146.976 153.009 148.192 150.657 145.88C150.451 145.692 149.73 131.836 155.842 129.747C161.953 127.674 160.048 132.727 160.048 132.727Z" fill="#1A2B54"/>
<path d="M161.662 136.221L161.181 136.255C159.688 136.375 158.023 135.758 157.902 134.457L157.507 124.831C157.404 123.53 158.538 122.348 160.031 122.228L160.512 122.194C162.005 122.074 163.31 123.033 163.413 124.352L164.701 134.097C164.821 135.399 163.156 136.101 161.662 136.221Z" fill="#FFBCA8"/>
<path d="M164.065 127.846L157.782 127.435L157.713 128.274L157.85 131.202L158.606 131.374C158.623 131.374 158.623 131.374 158.64 131.374C159.91 131.665 161.249 131.22 162.177 130.295L164.099 128.394L164.065 127.846Z" fill="#EA986C"/>
<path d="M159.155 129.832C157.387 129.866 153.49 129.164 153.009 126.15L151.807 118.374C151.189 114.504 153.73 110.838 157.473 110.239L157.851 110.188C161.593 109.588 165.147 112.277 165.765 116.148L166.383 123.906C166.246 127.537 163.894 128.856 162.417 129.301C161.851 129.49 159.791 129.832 159.155 129.832Z" fill="#FFBCA8"/>
<path d="M160.322 110.085C158.709 110.462 158.28 112.62 159.601 113.596C160.683 114.401 160.34 113.596 162.503 114.195C163.567 114.486 164.717 118.443 164.357 120.464C164.22 121.183 165.061 121.697 165.645 121.252L167.035 120.207C167.035 120.207 167.636 117.124 167.018 115C164.941 107.824 160.563 110.033 160.322 110.085Z" fill="#1B1B1B"/>
<path d="M159.773 112.037C159.773 112.037 159.808 113.305 157.919 114.35C154.469 116.233 150.674 114.247 152.632 123.701C152.632 123.701 150.812 119.248 150.348 117.107C149.902 114.966 150.022 113.973 151.292 112.5C152.649 110.924 153.919 108.526 157.73 108.835C158.726 108.92 160.34 109.862 160.563 110.393C161.027 111.489 159.773 112.037 159.773 112.037Z" fill="#1B1B1B"/>
<path d="M168.392 121.149C168.221 122.553 167.362 123.495 166.469 123.273C165.577 123.033 164.993 121.714 165.165 120.31C165.336 118.905 166.195 117.963 167.088 118.186C167.98 118.426 168.564 119.744 168.392 121.149Z" fill="#FFBCA8"/>
<path d="M165.816 120.635C165.816 120.635 165.834 118.922 167.327 119.179" stroke="#EA986C" stroke-width="2.6585" stroke-miterlimit="10" stroke-linecap="round" stroke-linejoin="round"/>
<path d="M167.275 121.337C167.327 121.714 167.155 122.056 166.898 122.108C166.623 122.142 166.365 121.868 166.314 121.491C166.262 121.114 166.434 120.772 166.692 120.721C166.949 120.669 167.224 120.943 167.275 121.337Z" fill="#EA986C"/>
<path d="M170.246 133.994C170.246 133.994 167.86 137.762 168.083 145.503L167.946 148.141C167.946 148.141 162.452 148.055 162.503 147.764C162.538 147.49 161.061 131.065 167.379 129.764C173.714 128.479 170.246 133.994 170.246 133.994Z" fill="#1A2B54"/>
<path d="M167.396 148.055H163.808V150.864H167.396V148.055Z" fill="#3F60BD"/>
<path d="M167.104 147.062C166.692 147.25 166.297 147.37 165.919 147.421V148.106H167.43V147.387C167.43 147.216 167.275 147.062 167.104 147.062Z" fill="#1A2B54"/>
<path d="M164.134 147.062C164.546 147.25 164.941 147.37 165.318 147.421V148.106H163.808V147.387C163.808 147.216 163.962 147.062 164.134 147.062Z" fill="#1A2B54"/>
<path d="M165.371 149.597H165.714C166.418 149.597 166.985 149.031 166.985 148.329V146.839C166.985 146.137 166.418 145.572 165.714 145.572H165.371C164.667 145.572 164.101 146.137 164.101 146.839V148.329C164.101 149.031 164.684 149.597 165.371 149.597Z" fill="#3F60BD"/>
<path d="M167.688 150.761L163.396 150.795C163.241 149.305 164.151 148.089 165.422 148.089H165.834C166.864 148.089 167.688 149.117 167.688 150.367V150.761Z" fill="#CDE3F7"/>
<path d="M165.867 148.295C165.61 148.226 165.352 148.209 165.095 148.278C164.957 148.312 164.803 148.261 164.751 148.106C164.7 147.969 164.768 147.798 164.923 147.764C165.266 147.678 165.627 147.678 165.97 147.764C166.314 147.832 166.211 148.381 165.867 148.295Z" fill="#1A2B54"/>
<path d="M167.482 151.618H163.671C163.413 151.618 163.207 151.412 163.207 151.155C163.207 150.898 163.413 150.693 163.671 150.693H167.499C167.757 150.693 167.963 150.898 167.963 151.155C167.945 151.412 167.739 151.618 167.482 151.618Z" fill="#1A2B54"/>
<path d="M162.881 140.057C164.615 141.496 167.894 144.219 167.98 144.321L167.997 144.339C168.374 144.801 169.078 144.852 169.542 144.458L171.087 143.123C171.516 142.763 171.585 142.129 171.276 141.684L170.932 141.187L171.087 139.868C171.207 138.824 170.932 137.762 170.297 136.906L168.615 134.645C168.477 134.474 168.254 134.405 168.048 134.474L167.825 134.559C167.362 134.73 167.19 135.296 167.482 135.707L168.855 137.625L168.151 137.06L166.589 135.261C166.28 134.919 165.748 134.867 165.404 135.176C165.13 135.415 165.044 135.775 165.164 136.101V136.083C164.855 135.741 164.323 135.69 163.979 135.998C163.636 136.306 163.585 136.837 163.894 137.18L163.928 137.231C163.636 137.111 163.293 137.145 163.035 137.351C162.761 137.591 162.675 137.985 162.812 138.31C162.331 138.807 162.348 139.612 162.881 140.057Z" fill="#FFBCA8"/>
<path d="M156.494 138.498C154.88 140.074 151.841 143.071 151.79 143.174C151.79 143.174 151.773 143.191 151.773 143.208C151.429 143.705 150.743 143.808 150.245 143.448L148.579 142.249C148.133 141.924 147.996 141.307 148.27 140.828L148.562 140.314L148.287 139.012C148.064 137.985 148.27 136.906 148.82 135.998L150.296 133.6C150.416 133.412 150.64 133.326 150.846 133.377L151.069 133.446C151.549 133.583 151.773 134.131 151.515 134.559L150.296 136.597L150.949 135.981L152.339 134.045C152.614 133.669 153.129 133.583 153.507 133.857C153.798 134.063 153.919 134.439 153.816 134.765V134.748C154.09 134.371 154.605 134.285 154.983 134.559C155.361 134.833 155.447 135.347 155.172 135.724L155.138 135.775C155.412 135.621 155.756 135.638 156.03 135.827C156.339 136.049 156.442 136.426 156.339 136.769C156.94 137.197 156.992 138.019 156.494 138.498Z" fill="#FFBCA8"/>
<path d="M172.392 142.917C174.658 147.953 176.787 150.385 178.813 157.612C179.139 158.742 178.452 159.941 177.302 160.25L176.135 160.575C174.933 160.9 173.542 160.952 173.182 159.77C171.516 156.653 170.212 151.155 168.615 143.328C168.426 142.677 168.993 141.736 169.645 141.581C170.727 141.324 171.946 141.941 172.392 142.917Z" fill="#FFBCA8"/>
<path d="M154.743 149.288L147.224 147.781C147.361 146.428 148.357 145.52 149.455 145.743L155.275 146.925L154.743 149.288Z" fill="#3F60BD"/>
<path d="M150.708 148.466L147.206 147.781C147.343 146.445 148.305 145.52 149.352 145.726L149.678 145.794C150.519 145.966 151 147.01 150.777 148.124L150.708 148.466Z" fill="#CDE3F7"/>
<path d="M147.447 148.62L154.331 150.025C154.554 150.076 154.777 149.922 154.829 149.682C154.88 149.442 154.743 149.202 154.503 149.168L147.618 147.764C147.395 147.712 147.172 147.867 147.12 148.106C147.086 148.329 147.223 148.569 147.447 148.62Z" fill="#1A2B54"/>
<path d="M151.293 146.496L152.357 145.726C153.096 146.308 153.954 146.616 155.104 146.308C155.259 146.342 155.345 146.496 155.31 146.65L155.173 147.284L151.293 146.496Z" fill="#1A2B54"/>
<path d="M152.168 147.695L152.357 147.73C152.958 147.85 153.542 147.473 153.662 146.873L153.954 145.469C154.074 144.87 153.696 144.287 153.095 144.167L152.906 144.133C152.305 144.013 151.722 144.39 151.602 144.989L151.31 146.394C151.189 146.993 151.584 147.576 152.168 147.695Z" fill="#3F60BD"/>
<path d="M151.824 146.873C151.567 146.719 151.292 146.582 151.035 146.428C150.777 146.291 150.983 145.846 151.258 145.983C151.515 146.137 151.79 146.274 152.048 146.428C152.288 146.582 152.082 147.028 151.824 146.873Z" fill="#1A2B54"/>
<path d="M150.846 146.77C150.692 146.599 150.52 146.479 150.314 146.411C150.194 146.377 150.108 146.257 150.142 146.12C150.16 146 150.297 145.88 150.417 145.914C150.709 146 150.949 146.154 151.172 146.377C151.361 146.616 151.052 146.993 150.846 146.77Z" fill="#1A2B54"/>
<path d="M175.019 116.576C175.019 116.576 185.628 109.314 187.019 105.718L189.079 107.824C186.847 113.151 181.027 117.844 176.443 122.896L175.019 116.576Z" fill="#EBA218"/>
<path d="M176.014 101.025C176.065 100.956 176.889 99.3463 178.469 99.038C178.795 98.9695 179.001 99.3463 178.812 99.6032C178.366 100.151 177.799 100.888 177.851 100.888C177.919 100.888 178.074 100.785 178.829 100.682C179.138 100.631 179.344 100.973 179.173 101.23C178.864 101.693 178.486 102.275 178.383 102.669L176.203 102.241L176.014 101.025Z" fill="#272727"/>
<path d="M166.056 102.189C166.056 102.189 165.988 102.275 165.902 102.412C165.507 103.046 166.074 103.851 166.812 103.679C167.67 103.474 168.752 103.097 169.627 102.361C169.267 102.772 168.649 103.268 167.962 103.731C167.344 104.142 167.705 105.101 168.46 105.032C169.679 104.913 171.087 104.433 172.134 103.063C172.134 103.063 172.237 104.056 172.082 105.032C171.997 105.632 172.597 106.111 173.164 105.855C175.001 105.05 177.593 103.32 176.374 100.288C176.374 100.288 170.108 95.5613 166.056 102.189Z" fill="#1B1B1B"/>
<path d="M178.829 160.215L174.417 160.729C173.473 160.832 172.614 160.164 172.511 159.222C172.408 158.28 173.078 157.423 174.022 157.321L178.434 156.807C179.379 156.704 180.237 157.372 180.34 158.314C180.443 159.256 179.756 160.112 178.829 160.215Z" fill="#7292ED"/>
<path d="M179.052 162.236L174.64 162.75C173.695 162.853 172.837 162.185 172.734 161.243C172.631 160.301 173.301 159.444 174.245 159.342L178.657 158.828C179.601 158.725 180.46 159.393 180.563 160.335C180.683 161.26 179.996 162.116 179.052 162.236Z" fill="#7292ED"/>
<path d="M149.026 160.044L144.614 159.667C143.67 159.582 142.966 158.742 143.052 157.8C143.138 156.859 143.979 156.156 144.923 156.242L149.335 156.636C150.28 156.721 150.984 157.561 150.898 158.503C150.812 159.428 149.971 160.13 149.026 160.044Z" fill="#7292ED"/>
<path d="M148.855 162.065L144.442 161.671C143.498 161.586 142.794 160.746 142.88 159.804C142.966 158.862 143.807 158.16 144.751 158.246L149.164 158.64C150.108 158.725 150.812 159.565 150.726 160.507C150.64 161.449 149.799 162.151 148.855 162.065Z" fill="#7292ED"/>
<path d="M186.212 147.696L181.697 166.039C181.525 166.706 181.886 167.392 182.521 167.666L182.899 167.82C183.929 168.248 185.096 167.734 185.474 166.689L191.414 150.333C191.414 150.333 193.749 145.743 188.873 145.212C186.779 144.99 186.212 147.696 186.212 147.696Z" fill="#FFC2B0"/>
<path d="M183.911 155.711L186.349 146.873C186.83 145.143 188.632 144.116 190.332 144.612C191.98 145.092 192.873 146.822 192.341 148.466L189.508 157.201L183.911 155.711Z" fill="#85A6FF"/>
<path d="M188.856 157.749L184.221 156.499C183.86 156.396 183.654 156.019 183.74 155.66C183.843 155.3 184.221 155.094 184.581 155.18L189.217 156.43C189.577 156.533 189.783 156.91 189.697 157.269C189.594 157.629 189.217 157.852 188.856 157.749Z" fill="#2C4482"/>
<path d="M186.658 145.161C186.658 145.161 195.689 143.585 198.401 144.236C201.114 144.887 203.277 140.725 203.277 140.725C203.277 140.725 203.912 131.185 203.723 131.065C203.534 130.946 198.212 122.708 198.212 122.708L191.242 123.684L187.534 133.72L186.658 145.161Z" fill="#783F1F"/>
<path d="M195.774 146.428L195.414 146.394C194.298 146.308 193.131 145.52 193.216 144.304L194.178 135.347C194.264 134.131 195.259 133.189 196.392 133.274L196.753 133.309C197.869 133.394 198.727 134.456 198.624 135.689L198.298 144.886C198.212 146.085 196.907 146.514 195.774 146.428Z" fill="#FFC2B0"/>
<path d="M198.522 138.824L193.869 138.361L193.577 141.187C193.835 141.77 194.058 142.506 195.448 142.129C196.479 141.838 198.298 140.125 198.522 138.824Z" fill="#EA986C"/>
<path d="M192.032 139.885C190.349 138.652 188.392 137.248 188.598 134.508L189.044 128.582C189.302 125.054 192.409 122.399 195.946 122.656L196.306 122.69C199.843 122.947 202.504 126.047 202.247 129.575L201.817 135.295C201.611 138.053 196.821 139.68 194.813 140.228C194.263 140.382 192.512 140.228 192.032 139.885Z" fill="#FFC2B0"/>
<path d="M193.955 172.547C193.92 172.787 193.714 172.958 193.474 172.924C193.234 172.889 193.062 172.684 193.096 172.444C193.131 172.204 193.337 172.033 193.577 172.067C193.817 172.102 193.972 172.307 193.955 172.547Z" fill="#FFC2B0"/>
<path d="M204.428 177.068C203.707 183.046 198.488 185.426 192.513 184.587C184.925 183.508 184.41 180.065 185.131 174.088C185.852 168.111 188.857 164.223 194.865 164.942C200.857 165.662 205.132 171.091 204.428 177.068Z" fill="#35519C"/>
<path d="M204.359 151.96L189.492 151.72C187.552 151.686 186.006 150.093 186.024 148.158V147.901C186.058 145.966 187.655 144.424 189.595 144.442L204.462 144.681C206.402 144.716 207.947 146.308 207.93 148.244V148.501C207.913 150.436 206.316 151.977 204.359 151.96Z" fill="#85A6FF"/>
<path d="M186.058 170.32L189.114 162.51L201.131 163.932L203.981 172.512L186.058 170.32Z" fill="#35519C"/>
<path d="M201.217 146.839L190.281 146.017C189.165 149.614 186.572 150.59 186.572 154.289C186.572 155.094 187.122 156.036 188.117 157.287L189.01 163.024L201.096 163.915L203.946 150.453C204.307 148.672 203.019 146.976 201.217 146.839Z" fill="#85A6FF"/>
<path d="M193.061 234.323L191.207 238.948C192.168 241.02 194.28 240.712 196.993 239.119C196.993 239.119 197.817 231.823 197.525 231.823C197.525 231.823 197.525 231.823 197.508 231.823C195.602 231.669 193.782 232.559 193.061 234.323Z" fill="#FFC2B0"/>
<path d="M199.156 240.9L199.62 236.105L197.439 234.598L198.401 240.9H199.156Z" fill="#1A2B54"/>
<path d="M199.517 236.706C200.392 232.476 197.577 231.825 197.577 231.825L197.491 233.692C197.457 234.445 197.285 235.164 196.976 235.832L196.289 237.322C195.791 238.384 194.727 239.069 193.525 239.052C192.701 239.052 191.877 238.847 191.173 238.282L188.529 239.292C188.529 239.292 187.619 239.703 187.739 240.662C187.757 240.748 187.774 240.833 187.791 240.919C187.911 240.902 188.031 240.885 188.151 240.885H195.139C196.22 240.885 197.182 240.217 197.542 239.189C197.714 238.71 197.886 238.213 198.04 237.751C198.263 237.151 198.847 236.723 199.517 236.706Z" fill="#2C4482"/>
<path d="M202.779 228.654L205.646 232.73C207.912 233.056 208.805 231.121 208.96 227.986C208.96 227.986 203.277 223.328 203.122 223.568C201.938 225.092 201.697 227.113 202.779 228.654Z" fill="#FFC2B0"/>
<path d="M211.638 227.164L207.861 224.167L205.406 225.16L211.226 227.798L211.638 227.164Z" fill="#1A2B54"/>
<path d="M208.307 224.578C205.234 221.547 203.14 223.533 203.14 223.533L204.668 224.629C205.268 225.058 205.784 225.606 206.178 226.239L207.054 227.627C207.689 228.62 207.672 229.887 207.002 230.881C206.556 231.566 205.921 232.148 205.062 232.439L204.479 235.197C204.479 235.197 204.324 236.173 205.217 236.601C205.286 236.635 205.371 236.67 205.457 236.704C205.509 236.601 205.56 236.481 205.629 236.396L209.44 230.555C210.041 229.648 209.99 228.483 209.337 227.627C209.028 227.233 208.702 226.805 208.393 226.411C207.998 225.863 207.964 225.143 208.307 224.578Z" fill="#2C4482"/>
<path d="M193.439 233.193C194.074 226.137 193.233 217.059 193.388 207.057C193.388 205.208 194.898 203.615 196.718 203.563C198.469 203.512 199.86 204.899 199.825 206.698C199.688 218.001 197.748 227.01 197.388 233.33C197.319 234.597 196.34 235.556 195.345 235.574C194.28 235.608 193.439 234.563 193.439 233.193Z" fill="#FFC2B0"/>
<path d="M201.715 227.079C197.715 222.232 191.5 217.111 185.337 210.74C184.169 209.575 184.169 207.537 185.32 206.253C186.435 205.019 188.204 204.934 189.303 206.064C196.273 213.24 200.651 220.211 204.376 224.424C205.114 225.263 205.08 226.548 204.445 227.25C203.775 228.004 202.573 227.935 201.715 227.079Z" fill="#FFC2B0"/>
<path d="M193.629 176.486L193.269 207.657C193.252 209.609 194.642 211.134 196.428 211.065C198.196 211.014 199.707 209.421 199.827 207.468C199.93 205.893 200.273 201.525 200.548 200.087C200.994 197.826 202.454 184.33 203.295 176.383C203.621 173.232 201.595 170.577 198.831 170.577C196.033 170.594 193.646 173.3 193.629 176.486Z" fill="#FFC2B0"/>
<path d="M185.44 177.291L184.65 208.873C184.598 210.86 185.989 212.606 187.792 212.812C189.577 213.018 191.122 211.63 191.277 209.678C191.397 208.102 191.809 203.718 192.118 202.296C192.599 200.07 194.264 186.574 195.225 178.644C195.603 175.493 193.594 172.495 190.796 172.084C187.963 171.673 185.508 174.054 185.44 177.291Z" fill="#FFC2B0"/>
<path d="M186.418 136.392C186.418 136.392 184.512 134.628 185.285 131.716C186.057 128.787 189.834 126.373 189.834 126.373L186.418 136.392Z" fill="#783F1F"/>
<path d="M187.929 129.541C187.929 129.541 184.495 141.427 186.659 145.161C186.659 145.161 187.723 144.424 188.204 144.116C187.792 136.614 188.856 132.829 189.886 128.941L187.929 129.541Z" fill="#A8582B"/>
<path d="M194.676 125.208C196.376 129.061 202.917 128.736 202.711 132.761C202.711 132.761 204.256 128.034 202.591 125.448C200.925 122.844 194.024 121.988 194.676 125.208Z" fill="#A8582B"/>
<path d="M201.285 129.181C201.285 129.181 204.376 137.197 199.208 144.133C199.208 144.133 202.848 143.722 204.067 142.42C205.285 141.136 204.856 127.058 204.856 127.058L201.285 129.181Z" fill="#A8582B"/>
<path d="M195.809 120.909C195.809 120.909 204.066 119.368 204.822 126.493C205.577 133.617 194.847 124.095 194.847 124.095C194.847 124.095 194.092 121.08 195.809 120.909Z" fill="#A8582B"/>
<path d="M185.268 131.699C185.268 131.699 193.8 129.421 195.156 125.859C195.877 123.975 196.307 122.502 196.547 121.526C196.736 120.789 196.186 120.07 195.431 120.036C192.924 119.899 187.808 120.344 186.452 126.013C185.268 131.031 185.268 131.699 185.268 131.699Z" fill="#A8582B"/>
<path d="M191.431 127.777C190.263 128.804 188.804 129.952 187.036 131.168L185.268 131.716C185.268 131.716 185.68 127.143 189.148 124.814C191.105 123.512 193.182 126.235 191.431 127.777Z" fill="#BD6D40"/>
<path d="M200.53 126.253C200.53 126.253 202.299 127.983 202.505 130.363L203.277 130.603C203.277 130.603 203.689 128.017 200.53 126.253Z" fill="#783F1F"/>
<path d="M203.683 133.953C204.025 132.663 203.642 131.444 202.826 131.228C202.01 131.013 201.071 131.883 200.729 133.172C200.387 134.462 200.771 135.682 201.586 135.897C202.402 136.113 203.341 135.242 203.683 133.953Z" fill="#FFC2B0"/>
<path d="M201.491 133.24C201.491 133.24 201.886 131.887 203.019 132.418" stroke="#EA986C" stroke-width="2.1941" stroke-miterlimit="10" stroke-linecap="round" stroke-linejoin="round"/>
<path d="M202.504 134.114C202.47 134.422 202.247 134.662 202.024 134.628C201.8 134.594 201.646 134.319 201.697 134.011C201.732 133.703 201.955 133.463 202.178 133.497C202.401 133.515 202.539 133.806 202.504 134.114Z" fill="#EA986C"/>
<path d="M192.083 145.76L191.311 144.458L200.221 144.561L199.345 145.931C197.646 148.62 193.714 148.518 192.083 145.76Z" fill="#FFC2B0"/>
<path d="M192.1 144.013C192.461 144.013 192.736 144.321 192.701 144.681C192.615 145.537 192.856 146.942 195.156 147.147C197.852 147.387 199.157 145.263 199.569 144.424C199.672 144.219 199.878 144.082 200.118 144.082H200.221C200.65 144.082 200.959 144.527 200.787 144.921C200.187 146.36 198.538 149.083 194.933 148.774C191.448 148.483 191.225 145.777 191.294 144.578C191.311 144.253 191.585 144.013 191.894 144.013H192.1Z" fill="#2C4482"/>
<path d="M216.514 187.087C216.514 187.087 216.978 184.005 216.342 183.405C215.724 182.806 214.849 187.173 216.514 187.087Z" fill="#FFC2B0"/>
<path d="M217.081 185.135C217.081 185.135 215.621 179.894 214.196 182.001C214.196 182.001 216.171 185.666 217.081 185.135Z" fill="#FFC2B0"/>
<path d="M217.149 188.338C217.149 188.338 217.372 185.238 216.703 184.69C216.033 184.142 215.501 188.56 217.149 188.338Z" fill="#FFC2B0"/>
<path d="M215.536 178.558L217.819 182.737C217.819 182.737 218.901 188.663 217.939 189.091C216.669 189.639 216.926 185.751 216.926 185.751C216.926 185.751 215.519 182.583 215.398 182.583C215.347 182.583 215.124 182.343 214.901 182.429C214.54 182.6 214.351 182.994 214.437 183.405L214.746 184.604C214.746 184.604 215.089 186.625 214.3 186.711C213.596 186.779 213.407 184.809 213.407 184.809L212.806 182.155L212.549 180.134C212.428 179.192 212.978 178.301 213.888 177.976L213.939 177.959C214.54 177.736 215.227 177.993 215.536 178.558Z" fill="#FFC2B0"/>
<path d="M213.251 179.843C211.483 175.236 208.908 170.56 207.964 167.426C207.672 166.432 208.273 165.388 209.268 165.131C210.247 164.874 211.243 165.439 211.517 166.415L214.899 178.336C215.037 178.832 214.59 179.552 214.093 179.654L213.251 179.843Z" fill="#FFC2B0"/>
<path d="M207.946 148.329L211.517 166.878C211.655 167.546 211.26 168.214 210.607 168.453L210.212 168.59C209.165 168.967 208.032 168.385 207.706 167.323L202.607 150.693C202.607 150.693 200.513 145.983 205.423 145.709C207.517 145.589 207.946 148.329 207.946 148.329Z" fill="#FFC2B0"/>
<path d="M204.256 158.04L202.144 149.117C201.732 147.37 202.831 145.606 204.565 145.229C206.247 144.87 207.861 145.949 208.187 147.661L209.904 156.687L204.256 158.04Z" fill="#85A6FF"/>
<path d="M209.578 157.475L204.908 158.588C204.547 158.674 204.17 158.451 204.084 158.091C203.998 157.732 204.221 157.355 204.582 157.269L209.251 156.156C209.612 156.07 209.99 156.293 210.075 156.653C210.161 157.029 209.938 157.389 209.578 157.475Z" fill="#2C4482"/>
<path d="M201.131 163.384C201.131 163.384 205.664 169.156 205.458 176.006C205.252 182.857 203.329 203.992 203.329 203.992L184.272 203.392L184.65 173.215C184.65 173.215 184.822 168.659 188.77 163.161L201.131 163.384Z" fill="#EBA218"/>
<path d="M200.307 164.651H189.217C188.547 164.651 187.998 164.103 187.998 163.435C187.998 162.767 188.547 162.219 189.217 162.219H200.307C200.977 162.219 201.526 162.767 201.526 163.435C201.526 164.103 200.977 164.651 200.307 164.651Z" fill="#2C4482"/>
<path d="M194.418 164.874H192.444C191.654 164.874 191.002 164.223 191.002 163.435C191.002 162.647 191.654 161.997 192.444 161.997H194.418C195.208 161.997 195.86 162.647 195.86 163.435C195.86 164.223 195.208 164.874 194.418 164.874Z" fill="white"/>
<path d="M169.457 168.556H152.083C151.018 168.556 150.143 167.683 150.143 166.621V166.57C150.143 165.508 151.018 164.634 152.083 164.634H169.474C170.538 164.634 171.414 165.508 171.414 166.57V166.621C171.414 167.683 170.538 168.556 169.457 168.556Z" fill="#2C4482"/>
<path d="M159.963 168.916H156.786C155.516 168.916 154.469 167.871 154.469 166.604C154.469 165.336 155.516 164.292 156.786 164.292H159.963C161.233 164.292 162.28 165.336 162.28 166.604C162.28 167.871 161.233 168.916 159.963 168.916Z" fill="white"/>
<path d="M193.508 164.051H192.667C192.324 164.051 192.049 163.777 192.049 163.435C192.049 163.092 192.324 162.818 192.667 162.818H193.508C193.851 162.818 194.126 163.092 194.126 163.435C194.126 163.777 193.851 164.051 193.508 164.051Z" fill="#2C4482"/>
<path d="M161.558 181.333L158.674 181.093L158.931 191.112L161.558 181.333Z" fill="#5281FF"/>
</g>
</g>
<defs>
<clipPath id="clip0">
<rect x="135" y="97" width="83.3334" height="144.345" fill="white"/>
</clipPath>
</defs>
</svg>
