<svg width="322" height="222" viewBox="0 0 322 222" fill="none" xmlns="http://www.w3.org/2000/svg">
<mask id="mask0" mask-type="alpha" maskUnits="userSpaceOnUse" x="0" y="0" width="322" height="222">
<rect width="322" height="222" fill="#C4C4C4"/>
</mask>
<g mask="url(#mask0)">
<path fill-rule="evenodd" clip-rule="evenodd" d="M149.522 38.5401C167.37 37.9227 185.993 30.9607 201.785 39.2317C218.443 47.957 229.465 65.1684 234.648 83.1265C239.722 100.704 237.063 119.6 229.837 136.421C223.048 152.224 210.733 165.001 195.762 173.648C181.84 181.689 165.546 184.477 149.522 182.811C134.674 181.267 121.858 173.477 109.828 164.714C97.8619 155.997 85.4857 146.655 80.7387 132.706C75.965 118.678 81.1613 104.005 84.2382 89.5187C87.736 73.0503 86.5076 53.1718 99.843 42.7584C113.227 32.307 132.495 39.1292 149.522 38.5401Z" fill="#B3DFE4"/>
<path d="M118.554 144.791H173.03C174.749 144.791 176.106 143.427 176.106 141.699V3.09227C176.106 1.36424 174.749 0 173.03 0H118.554C116.835 0 115.477 1.36424 115.477 3.09227V141.699C115.568 143.427 116.925 144.791 118.554 144.791Z" fill="#6FB5BB" stroke="#73C9BD" stroke-miterlimit="10"/>
<path d="M187.147 39.3815C187.871 39.3815 188.414 38.8358 188.414 38.1082V5.54843C188.414 4.82084 187.871 4.27515 187.147 4.27515C186.423 4.27515 185.88 4.82084 185.88 5.54843V38.0173C185.789 38.7449 186.423 39.3815 187.147 39.3815Z" fill="#73C9BD"/>
<path d="M176.69 34.5521V31.9146L188.454 31.9146V34.5521H176.69Z" fill="#73C9BD"/>
<path d="M176.657 12.8492V10.2117L188.421 10.2117V12.8492L176.657 12.8492Z" fill="#73C9BD"/>
<path d="M197.996 15.5129V18.1504H176.64V15.5129L197.996 15.5129Z" fill="#EF7A24"/>
<path d="M196.739 36.926H199.272V16.8263C199.272 16.0987 198.73 15.553 198.006 15.553H196.739V36.926Z" fill="#EF7A24"/>
<path d="M116.137 65.0555H175.632V86.7407H116.137V65.0555Z" fill="#D7EBDC"/>
<path d="M155.113 67.5747H170.134V83.9455H155.113V67.5747Z" fill="#73C9BD"/>
<path d="M156.65 69.3025H168.595V82.3082H156.65V69.3025Z" fill="#C3E1CB"/>
<path d="M162.624 79.3986C160.625 79.3986 159.004 77.7698 159.004 75.7606C159.004 73.7515 160.625 72.1227 162.624 72.1227C164.623 72.1227 166.244 73.7515 166.244 75.7606C166.244 77.7698 164.623 79.3986 162.624 79.3986Z" fill="#D7EBDC" stroke="#73C9BD" stroke-miterlimit="10"/>
<path d="M162.624 72.1222C164.615 72.1222 166.244 73.7593 166.244 75.7602C166.244 76.3058 166.153 76.7606 165.972 77.2153L161.267 72.486C161.629 72.3041 162.081 72.1222 162.624 72.1222Z" fill="#D7EBDC" stroke="#73C9BD" stroke-miterlimit="10"/>
<path d="M164.343 78.9434C163.8 79.2162 163.257 79.3981 162.624 79.3981C160.633 79.3981 159.004 77.761 159.004 75.7601C159.004 75.1235 159.185 74.5778 159.457 74.0321L164.343 78.9434Z" fill="#D7EBDC" stroke="#73C9BD" stroke-miterlimit="10"/>
<path d="M161.178 72.4863L165.883 77.2157C165.521 77.9433 164.978 78.5799 164.254 78.9437L159.368 74.0325C159.82 73.3958 160.454 72.7592 161.178 72.4863Z" fill="#D9EEE7" stroke="#73C9BD" stroke-miterlimit="10"/>
<path d="M140.091 72.4871C141.539 72.4871 142.625 73.6694 142.625 75.0336C142.625 75.3974 142.535 75.7612 142.444 76.0341L139.096 72.669C139.367 72.578 139.729 72.4871 140.091 72.4871Z" fill="#D7EBDC" stroke="#73C9BD" stroke-miterlimit="10"/>
<path d="M141.268 77.3079C140.906 77.4898 140.453 77.6717 140.091 77.6717C138.643 77.6717 137.557 76.4893 137.557 75.1251C137.557 74.6703 137.648 74.3065 137.919 73.9427L141.268 77.3079Z" fill="#D7EBDC" stroke="#73C9BD" stroke-miterlimit="10"/>
<path d="M139.096 72.6705L142.444 76.1266C142.172 76.6723 141.81 77.0361 141.358 77.3089L137.919 73.8529C138.1 73.3072 138.553 72.9434 139.096 72.6705Z" fill="#D9EEE7" stroke="#73C9BD" stroke-miterlimit="10"/>
<path d="M162.624 72.1222C164.615 72.1222 166.244 73.7593 166.244 75.7602C166.244 76.3058 166.153 76.7606 165.972 77.2153L161.267 72.486C161.629 72.3041 162.081 72.1222 162.624 72.1222Z" fill="#D7EBDC" stroke="#73C9BD" stroke-miterlimit="10"/>
<path d="M164.343 78.9434C163.8 79.2162 163.257 79.3981 162.624 79.3981C160.633 79.3981 159.004 77.761 159.004 75.7601C159.004 75.1235 159.185 74.5778 159.457 74.0321L164.343 78.9434Z" fill="#D7EBDC" stroke="#73C9BD" stroke-miterlimit="10"/>
<path d="M161.178 72.4863L165.883 77.2157C165.521 77.9433 164.978 78.5799 164.254 78.9437L159.368 74.0325C159.82 73.3958 160.454 72.7592 161.178 72.4863Z" fill="#D9EEE7" stroke="#73C9BD" stroke-miterlimit="10"/>
<path d="M131.584 72.4871C133.032 72.4871 134.118 73.6694 134.118 75.0336C134.118 75.3974 134.028 75.7612 133.937 76.0341L130.589 72.669C130.86 72.578 131.222 72.4871 131.584 72.4871Z" fill="#D7EBDC" stroke="#73C9BD" stroke-miterlimit="10"/>
<path d="M132.852 77.3079C132.49 77.4898 132.037 77.6717 131.675 77.6717C130.227 77.6717 129.141 76.4893 129.141 75.1251C129.141 74.6703 129.232 74.3065 129.503 73.9427L132.852 77.3079Z" fill="#D7EBDC" stroke="#73C9BD" stroke-miterlimit="10"/>
<path d="M130.591 72.6688L133.939 76.0339C133.668 76.5796 133.306 76.9434 132.854 77.2163L129.415 73.7602C129.596 73.3055 130.048 72.9417 130.591 72.6688Z" fill="#D9EEE7" stroke="#73C9BD" stroke-miterlimit="10"/>
<path d="M123.241 2.34558H168.586C170.243 2.34558 171.586 3.68872 171.586 5.34558V28.8152C171.586 30.472 170.243 31.8152 168.586 31.8152H123.241C121.585 31.8152 120.241 30.472 120.241 28.8152V5.34558C120.241 3.68873 121.585 2.34558 123.241 2.34558Z" fill="white"/>
<path d="M124.425 26.1927V26.2092L124.424 26.2257C124.364 27.1327 125.159 27.979 126.2 27.979H165.847C166.857 27.979 167.622 27.1555 167.622 26.1927V7.41207C167.622 6.39095 166.799 5.62573 165.847 5.62573H126.2C125.19 5.62573 124.425 6.44927 124.425 7.41207V26.1927Z" fill="#ECF5F0" stroke="#73C9BD"/>
<path d="M141.754 29.4697H150.013C151.279 29.4697 152.278 28.4689 152.278 27.2011V25.066C152.278 23.7982 151.279 22.7974 150.013 22.7974H141.754C140.488 22.7974 139.489 23.7982 139.489 25.066V27.2011C139.556 28.4689 140.555 29.4697 141.754 29.4697Z" fill="#73C9BD"/>
<path d="M82.7461 51.1358L94.3545 71.4364L90.993 73.3586L79.3846 53.0579L82.7461 51.1358Z" fill="#B2B2B2"/>
<path d="M95.0855 47.188L106.694 67.4886L103.332 69.4108L91.724 49.1102L95.0855 47.188Z" fill="#B2B2B2"/>
<path d="M137.306 74.0965C137.382 74.0586 137.42 73.9067 137.458 73.8308C137.762 72.1984 138.673 70.7178 140.002 69.7308C140.192 69.5789 140.381 69.4271 140.381 69.1993C140.381 68.8577 139.926 68.6678 139.85 68.3641C138.559 69.9206 137.192 71.591 136.927 73.565C136.927 73.6789 136.889 73.8308 136.965 73.9447C137.041 74.0965 137.192 74.1725 137.306 74.0965Z" fill="#F59B21"/>
<path d="M125.499 88.2563H192.921V86.51C192.921 83.5869 190.568 81.2332 187.645 81.2332H132.447C128.612 81.2332 125.499 84.3461 125.499 88.1804V88.2563Z" fill="#43C0C9"/>
<path d="M129.296 92.129H189.088C191.175 92.129 192.884 90.4207 192.884 88.3328V88.2948H125.462V88.3328C125.5 90.4207 127.17 92.129 129.296 92.129Z" fill="#CECECE"/>
<path d="M194.06 211.37H196.604V212.927C197.249 213.876 197.667 215.205 197.667 216.685C197.667 218.166 197.249 219.494 196.604 220.443V222H194.06C192.086 222 190.492 219.608 190.492 216.685C190.454 213.762 192.086 211.37 194.06 211.37Z" fill="#141414"/>
<path d="M196.566 222C194.595 222 192.997 219.62 192.997 216.685C192.997 213.75 194.595 211.37 196.566 211.37C198.537 211.37 200.134 213.75 200.134 216.685C200.134 219.62 198.537 222 196.566 222Z" fill="#3D3F3D"/>
<path d="M100.292 193.186H102.835V194.743C103.481 195.692 103.898 197.02 103.898 198.501C103.898 199.981 103.481 201.31 102.835 202.259V203.816H100.292C98.3179 203.816 96.7234 201.424 96.7234 198.501C96.7234 195.54 98.3179 193.186 100.292 193.186Z" fill="#141414"/>
<path d="M102.797 203.777C100.826 203.777 99.2287 201.398 99.2287 198.463C99.2287 195.527 100.826 193.148 102.797 193.148C104.768 193.148 106.366 195.527 106.366 198.463C106.366 201.398 104.768 203.777 102.797 203.777Z" fill="#3D3F3D"/>
<path d="M240.755 193.186H242.881V194.743C243.413 195.692 243.754 197.02 243.754 198.501C243.754 199.981 243.413 201.31 242.881 202.259V203.816H240.755C239.085 203.816 237.756 201.424 237.756 198.501C237.756 195.54 239.123 193.186 240.755 193.186Z" fill="#141414"/>
<path d="M242.88 203.777C241.224 203.777 239.881 201.398 239.881 198.463C239.881 195.527 241.224 193.148 242.88 193.148C244.537 193.148 245.879 195.527 245.879 198.463C245.879 201.398 244.537 203.777 242.88 203.777Z" fill="#3D3F3D"/>
<path d="M96.7235 185.403L111.909 185.517L146.417 172.8C146.872 172.648 147.366 172.572 147.859 172.686L217.142 186.2L245.5 186.39V194.173C245.424 195.122 244.855 196.033 243.754 196.412L200.134 212.509C196.87 213.724 193.301 213.989 189.884 213.344L98.8494 195.539C97.5207 195.274 96.7994 194.249 96.7235 193.148V185.403Z" fill="#B2B2B2"/>
<path d="M243.337 183.998L147.784 165.321C147.291 165.245 146.797 165.283 146.342 165.434L98.4326 183.125C95.8891 184.074 96.1928 187.719 98.8502 188.25L189.885 206.055C193.302 206.738 196.87 206.434 200.135 205.22L243.754 189.123C246.298 188.174 245.994 184.492 243.337 183.998Z" fill="#E0E0E0"/>
<path d="M205.146 134.8H179.293V193.186L209.702 183.734L205.146 134.8Z" fill="#CECECE"/>
<path d="M129.411 184.113L179.294 193.186V137.342H129.411V184.113Z" fill="#B2B2B2"/>
<path d="M157.806 109.212H213.346C220.103 109.212 225.722 114.223 226.671 120.753C226.747 121.36 226.823 122.005 226.823 122.651V129.294L183.241 144.859L181.799 134.685L114.263 125.004L157.806 109.212Z" fill="#43C0C9"/>
<path d="M114.225 124.777H169.765C177.205 124.777 183.204 130.813 183.204 138.215V144.859H134.08C123.108 144.859 114.225 135.976 114.225 125.004V124.777Z" fill="#365FAC"/>
<path d="M115.022 56.2915L80.324 65.7063L114.339 124.928L159.173 112.742L130.397 62.6693C127.322 57.2786 120.982 54.6971 115.022 56.2915Z" fill="#43C0C9"/>
<path d="M149.644 84.1943C149.758 85.7128 148.505 87.1175 146.91 87.0795C146.265 87.0415 144.329 86.548 143.721 86.2823C140.001 84.6878 136.774 83.7388 133.585 81.2712C130.7 79.0314 128.043 75.4629 126.866 71.8564C126.676 71.249 126.524 70.6416 126.6 70.0342C126.828 68.2879 128.916 67.3008 130.662 67.6045C132.409 67.9082 133.851 69.0851 135.18 70.224C139.394 73.7545 144.557 76.7916 148.733 80.3221C149.833 81.1953 149.568 82.9795 149.644 84.1943Z" fill="url(#paint0_linear)"/>
<path d="M135.37 82.221C134.687 78.7664 136.167 74.9701 138.977 72.8442C138.445 72.3127 137.952 71.8192 137.23 71.5914C134.952 73.7553 133.548 76.6785 133.662 79.7914C133.662 80.3609 133.738 80.9683 134.041 81.4618C134.345 81.9553 134.801 82.221 135.37 82.221Z" fill="#F5BF21"/>
<path d="M80.2856 65.7822L80.2096 65.8202C75.5782 67.1109 73.4143 72.4257 75.8059 76.6016L102.228 122.613C103.898 125.536 107.353 126.94 110.618 126.029L114.3 125.004L80.2856 65.7822Z" fill="#365FAC"/>
<path d="M182.064 132.788L221.812 187.834L235.364 182.519L254.042 175.23C259.433 173.18 261.369 166.574 257.99 161.905L226.367 117.906L225.19 116.236L182.064 132.788Z" fill="#43C0C9"/>
<path opacity="0.26" d="M244.475 150.743C246.639 158.26 246.715 166.65 243.109 173.559C241.249 177.127 238.553 180.089 235.364 182.518L254.042 175.229C259.433 173.179 261.369 166.574 257.99 161.904L226.367 117.905C228.987 121.854 231.606 125.84 234.112 129.826C238.25 136.431 242.312 143.227 244.475 150.743Z" fill="#365FAC"/>
<path d="M182.065 132.787L181.685 133.28C177.244 135.027 175.991 140.379 178.8 144.252L209.664 186.77C211.638 189.465 215.169 190.49 218.281 189.276L221.812 187.871L182.065 132.787Z" fill="#365FAC"/>
<path d="M226.178 164.144V164.106C226.216 161.791 225.115 160.12 223.748 158.374C223.52 158.07 221.205 154.995 220.863 155.603C222.571 152.224 226.785 151.579 229.746 153.78C232.707 155.982 234.112 159.703 237.68 161.221C239.351 161.942 241.021 162.664 242.767 163.005C244.324 163.309 245.501 162.892 247.057 162.702C247.779 162.626 248.538 162.55 249.145 162.967C249.677 163.347 249.867 164.03 249.791 164.676C249.715 165.321 249.373 165.891 249.031 166.422C247.437 168.624 245.121 169.725 242.426 169.953C241.173 170.067 239.617 170.142 238.364 169.877C236.655 169.497 235.555 168.852 233.656 169.193C231.189 169.649 227.468 170.864 226.292 167.637C225.836 166.536 226.14 165.321 226.178 164.144Z" fill="url(#paint1_linear)"/>
<path d="M217.181 167.864V167.826C217.219 165.397 216.042 163.651 214.637 161.828C214.409 161.525 211.942 158.298 211.638 158.943C213.46 155.413 217.826 154.729 220.939 157.045C224.052 159.361 225.533 163.233 229.253 164.827C230.999 165.587 232.746 166.308 234.606 166.688C236.238 166.991 237.491 166.574 239.085 166.384C239.845 166.308 240.642 166.232 241.249 166.65C241.781 167.029 242.008 167.789 241.933 168.434C241.857 169.117 241.515 169.725 241.135 170.256C239.465 172.572 237.035 173.711 234.264 173.938C232.935 174.052 231.303 174.166 230.012 173.863C228.228 173.483 227.051 172.8 225.077 173.141C222.496 173.597 218.585 174.888 217.371 171.509C216.877 170.408 217.181 169.117 217.181 167.864Z" fill="url(#paint2_linear)"/>
<path d="M81.6144 60.999L105.303 54.7352C110.77 53.2926 113.351 47.0667 110.542 42.1694L108.91 39.3222C106.974 35.9435 103.025 34.2732 99.2671 35.2982L71.1746 42.7389L81.6144 60.999Z" fill="#43C0C9"/>
<path d="M78.0837 62.0244L81.7661 61.0374L71.3263 42.7772L71.2504 42.8152C66.7708 44.03 64.6449 49.117 66.9226 53.1411L70.1115 58.7216C71.706 61.455 74.9708 62.8216 78.0837 62.0244Z" fill="#365FAC"/>
<path d="M129.41 116.045H188.556L226.215 162.208L235.099 158.45L203.096 107.997C201.122 105.264 198.047 103.518 194.668 103.176L144.102 98.4686L131.46 99.6075L129.41 116.045Z" fill="url(#paint3_linear)"/>
<path d="M121.476 122.271H178.23C179.749 122.271 181.154 122.955 182.103 124.131L216.611 167.181L226.405 161.107L196.718 113.388C194.82 110.161 191.441 108.035 187.721 107.693L137.8 103.024L123.564 105.795L121.476 122.271Z" fill="url(#paint4_linear)"/>
<path d="M127.967 73.6029C123.715 67.3391 118.78 61.5687 113.276 56.4058C117.679 56.5956 122.539 58.1521 125.917 60.9993C129.296 63.8465 131.574 65.5928 134.155 69.1613C132.067 69.3891 129.752 72.4641 127.967 73.6029Z" fill="#E0E0E0"/>
<path d="M103.975 66.7317C106.214 68.0224 112.44 67.1493 114.111 65.1752C115.781 63.2391 115.743 59.8224 114.49 57.5826C113.693 56.14 109.479 55.7224 108.378 54.5456C107.315 53.4447 106.366 52.2298 105.227 51.2048C104.088 50.1799 102.684 49.3826 101.127 49.3067C99.6088 49.2308 97.9764 50.1039 97.4829 51.5465C96.8755 53.3308 98.0903 55.153 98.8875 56.8993C99.6847 58.6076 100.064 60.5058 100.71 62.252C101.355 64.0363 102.342 65.7826 103.975 66.7317Z" fill="url(#paint5_linear)"/>
<path d="M89.8526 37.3484C89.7767 42.4734 91.5609 47.6364 94.7878 51.6225C98.7739 56.5576 106.291 57.0512 109.024 50.4836C110.087 47.9021 110.011 44.941 109.252 42.2077C107.999 37.6142 105.493 31.2364 100.862 29.1864C97.8248 27.8577 93.8767 28.3892 91.7887 30.9707C90.3082 32.717 89.8906 35.1086 89.8526 37.3484Z" fill="#F7BD98"/>
<path d="M107.998 39.1705C108.985 35.4881 108.985 31.4261 107.96 27.7437C107.087 24.7067 105.607 21.5558 102.19 20.9104C99.3428 20.3789 96.5335 21.9734 95.2428 24.4789C93.6863 27.5539 92.2437 30.553 90.1557 33.3622C88.2576 35.8678 86.6632 38.677 86.9289 42.0177C87.2326 46.1937 91.1428 49.0409 94.7113 51.2807C93.4585 48.8511 92.6613 46.2316 92.0159 43.6122C91.7881 42.7011 91.7502 41.5242 92.5854 41.1066C93.2687 40.765 94.1039 41.2585 94.5594 41.8659C95.015 42.4733 95.2807 43.2326 95.8502 43.764C96.9891 41.3344 94.7113 38.4872 95.3946 35.9057C96.1159 33.2104 99.8742 32.2613 102.456 33.2104C105.075 34.1215 106.973 36.5511 107.998 39.1705Z" fill="#8F8F8F"/>
<path d="M93.2698 69.0855C94.1809 70.8697 95.0541 72.654 95.9272 74.4382C97.18 77.0197 98.3948 79.6392 99.6096 82.2206C99.6476 82.2966 99.6855 82.3725 99.7235 82.4484C100.369 83.7771 100.976 85.0678 101.622 86.3965C101.622 86.4345 101.66 86.4725 101.66 86.4725C103.444 90.2308 105.228 93.9891 106.974 97.7854C108.493 101.05 109.784 104.581 111.568 107.732C114.453 112.781 117.68 117.754 121.476 122.271C125.69 115.97 130.018 109.706 135.485 104.429C137.762 102.227 140.306 100.329 143.115 98.8484C144.368 98.165 145.697 97.6336 147.101 97.3299C147.177 97.3299 147.253 97.2919 147.329 97.2919C148.392 97.1021 149.455 97.2539 150.442 96.7984C150.48 96.7984 150.518 96.7604 150.518 96.7604C150.594 96.7225 150.632 96.6845 150.708 96.6845C150.708 96.6845 150.746 96.6845 150.746 96.6465C150.67 96.6086 150.594 96.5706 150.518 96.4947C148.62 95.3558 146.835 93.9891 145.241 92.4706C144.823 92.053 144.368 91.6354 143.988 91.1799C143.153 90.3067 142.394 89.3577 141.672 88.3706C139.433 85.4095 137.648 82.1067 135.902 78.804C133.321 74.0207 130.663 68.516 126.753 64.7197C124.779 62.7836 122.577 61.1133 120.185 59.6707C119.047 58.9874 117.832 58.342 116.617 57.7725C115.364 57.2031 114.073 56.6716 112.783 56.254C113.39 57.279 114.035 58.304 114.225 59.4809C114.339 60.2401 114.263 61.0753 113.922 61.7586C113.732 62.1003 113.466 62.442 113.124 62.6698C112.479 63.1253 111.682 63.2012 110.885 63.2392C108.759 63.3531 106.595 63.0494 104.583 62.2901C103.634 61.9485 102.761 61.4549 101.925 60.8855C101.09 60.3161 100.445 59.2911 99.6096 58.7596C98.9263 58.342 97.9013 59.2911 97.2559 59.6327C96.193 60.2401 95.168 60.8855 94.1809 61.6068C93.3078 62.2142 91.9791 62.9355 91.4855 63.8466C90.4226 65.8966 92.4346 67.4531 93.2698 69.0855Z" fill="white"/>
<path d="M102.039 86.2824C103.178 90.3065 105.228 93.9889 106.974 97.7852C108.492 101.05 109.783 104.581 111.567 107.731C114.452 112.781 117.679 117.754 121.476 122.271C125.689 115.969 130.017 109.706 135.484 104.429C137.762 102.227 140.305 100.329 143.114 98.8482C144.367 98.1648 145.696 97.6333 147.101 97.3296C147.176 97.3296 147.252 97.2917 147.328 97.2917C148.391 97.1398 149.454 97.2157 150.441 96.7982C150.479 96.7982 150.517 96.7602 150.517 96.7602C150.593 96.7222 150.631 96.7222 150.707 96.6843C150.631 96.6463 150.593 96.5704 150.517 96.5324C148.619 95.3935 146.835 94.0269 145.24 92.5084C144.823 92.0908 144.367 91.6732 143.988 91.2176C143.152 90.3445 142.393 89.3954 141.672 88.4084C136.699 89.1676 131.612 89.7371 126.714 88.75C116.161 86.6241 106.822 78.3482 99.2673 71.0593C99.8747 75.8426 100.748 80.588 101.811 85.2574C101.849 85.5991 101.925 85.9408 102.039 86.2824Z" fill="url(#paint6_linear)"/>
<path d="M102.039 86.2824C103.178 90.3065 105.228 93.9889 106.974 97.7852C108.492 101.05 109.783 104.581 111.567 107.731C114.452 112.781 117.679 117.754 121.476 122.271C125.689 115.969 130.017 109.706 135.484 104.429C137.762 102.227 140.305 100.329 143.114 98.8482C144.367 98.1648 145.696 97.6333 147.101 97.3296C147.176 97.3296 147.252 97.2917 147.328 97.2917C148.391 97.1398 149.454 97.2157 150.441 96.7982C150.479 96.7982 150.517 96.7602 150.517 96.7602C150.593 96.7222 150.631 96.7222 150.707 96.6843C150.631 96.6463 150.593 96.5704 150.517 96.5324C148.619 95.3935 146.835 94.0269 145.24 92.5084C144.823 92.0908 144.367 91.6732 143.988 91.2176C143.152 90.3445 142.393 89.3954 141.672 88.4084C136.699 89.1676 131.612 89.7371 126.714 88.75C116.161 86.6241 106.822 78.3482 99.2673 71.0593C99.8747 75.8426 100.748 80.588 101.811 85.2574C101.849 85.5991 101.925 85.9408 102.039 86.2824Z" fill="#F2F2F2"/>
<path d="M84.6522 101.999H152.074V100.253C152.074 97.3294 149.721 94.9757 146.797 94.9757H91.5994C87.7651 94.9757 84.6522 98.0887 84.6522 101.923V101.999Z" fill="#43C0C9"/>
<path d="M88.6057 105.883H148.435C150.523 105.883 152.231 104.175 152.231 102.087V102.049H84.8094V102.087C84.8094 104.175 86.5177 105.883 88.6057 105.883Z" fill="#CECECE"/>
<path d="M104.013 97.0374C105.19 98.2902 106.518 99.2393 108.189 99.5809C109.821 99.9226 111.757 99.1633 112.213 97.5689C112.516 96.468 112.061 95.2911 111.605 94.2661C108.872 88.1921 108.081 82.3078 104.588 76.6134C102.652 73.4625 98.0146 70.5014 95.3192 67.9958C94.6359 67.3504 93.8007 66.743 92.8896 66.743C91.5609 66.743 90.5739 67.9958 90.1942 69.2106C89.0933 72.7412 90.8016 75.8921 92.5859 78.7773C94.7118 82.1939 95.547 85.231 97.6729 88.6856C99.1155 91.0772 101.887 94.7596 104.013 97.0374Z" fill="#F7BD98"/>
<path d="M96.4206 64.9854C95.6613 64.34 94.9021 63.6567 93.915 63.4289C92.0928 63.0113 90.3086 64.4919 89.6632 66.2382C89.0558 67.9845 88.9039 70.2243 89.2836 72.0465C90.3465 77.2474 92.5484 81.9548 94.9021 86.7002C100.369 84.1566 101.963 83.5492 107.923 81.727C105.456 77.8548 104.545 76.1844 102.115 72.6919C100.559 70.3761 98.5465 66.8456 96.4206 64.9854Z" fill="white"/>
<path d="M141.368 98.2032C139.963 96.2292 137.23 95.6218 134.762 95.2042C129.644 92.7484 124.557 91.9393 118.445 90.8763C116.281 90.4967 113.01 90.8765 109.897 90.8764C107.011 90.4208 102.342 90.8384 102.646 94.6347C102.798 96.6847 104.582 98.3171 106.594 99.0764C108.606 99.8356 110.846 99.8736 113.01 99.8736C118.059 99.9116 123.108 99.9875 128.195 100.025C130.738 100.063 133.244 100.063 135.787 100.101C137.04 100.101 140.495 100.747 141.482 99.7977C141.937 99.4181 141.709 98.6968 141.368 98.2032Z" fill="#F7BD98"/>
<path d="M179.56 84.4975C178.117 82.5614 175.08 82.7512 172.575 82.3715C166.425 81.4984 160.578 79.9799 154.428 79.1067C152.264 78.803 150.063 78.4993 147.899 78.2336C145.014 77.8919 140.344 78.4234 140.8 82.2577C141.027 84.2697 142.85 85.9021 144.9 86.5854C146.95 87.2688 149.152 87.2308 151.315 87.1928C156.364 87.0789 161.414 86.9651 166.501 86.8132C169.044 86.7373 168.892 86.3197 172.005 86.6993C173.258 86.8512 178.801 87.1549 179.75 86.1678C180.167 85.7123 179.939 84.991 179.56 84.4975Z" fill="#F7BD98"/>
<path d="M171.094 86.3965C172.232 86.9279 173.827 86.9279 175.042 87.0798C175.307 87.1178 175.573 87.1557 175.801 87.1937C176.978 87.3455 178.155 87.4974 179.331 87.6113C180.394 87.7252 180.964 87.9529 181.989 87.4594C182.9 87.0039 183.659 86.3585 184.419 85.7131C185.254 84.9918 186.089 84.2705 186.544 83.2835C186.848 82.6381 187 81.9168 186.848 81.2335C186.734 80.702 186.051 80.4742 185.595 80.8159C184.988 81.3094 184.381 81.765 183.811 82.2585C183.166 82.752 182.52 83.2835 181.723 83.3594C181.685 83.3594 181.685 83.3594 181.647 83.3594C180.964 83.4354 179.673 82.8279 180.053 81.9928C180.129 81.8409 180.205 81.765 180.356 81.6511C180.926 81.2715 181.913 81.2715 182.444 81.1576C182.862 81.0437 183.356 80.9298 183.583 80.5122C184.039 79.8289 183.394 79.677 182.976 79.715C181.723 79.8668 180.432 80.1326 179.18 80.1326C177.889 80.1326 176.56 80.2465 175.421 80.9298C174.852 81.2715 174.358 81.727 173.789 82.0307C173.106 82.3724 172.346 82.4483 171.625 82.6761C171.132 82.79 170.638 83.0178 170.258 83.3215C169.879 83.6252 169.803 83.9289 169.765 84.3844C169.689 85.2955 170.258 86.0168 171.094 86.3965Z" fill="#F7BD98"/>
<path d="M185.975 82.676C185.975 82.676 185.595 82.9797 185.026 83.3973C184.76 83.6251 184.418 83.8908 184.076 84.1566C183.925 84.3084 183.735 84.4603 183.545 84.6121C183.355 84.764 183.203 84.9158 182.976 85.0297C182.786 85.1816 182.596 85.2955 182.368 85.3714C182.178 85.4473 181.951 85.5612 181.723 85.5992C181.533 85.6371 181.305 85.7131 181.115 85.7131C180.926 85.751 180.736 85.751 180.546 85.789C180.204 85.8269 179.901 85.8269 179.673 85.8269C179.483 85.8269 179.331 85.8269 179.331 85.8269C179.331 85.8269 179.445 85.8269 179.673 85.8649C179.863 85.8649 180.166 85.9029 180.546 85.9029C180.736 85.9029 180.926 85.9029 181.115 85.8649C181.305 85.8649 181.533 85.8269 181.761 85.751C181.989 85.7131 182.178 85.6371 182.406 85.5232C182.634 85.4094 182.824 85.2955 183.014 85.1436C183.203 85.0297 183.393 84.8399 183.583 84.6881C183.773 84.5362 183.925 84.3844 184.114 84.2325C184.456 83.9288 184.76 83.6631 185.026 83.4353C185.633 83.0177 185.975 82.676 185.975 82.676Z" fill="#C06969"/>
<path d="M175.193 84.156C175.193 84.156 175.269 84.156 175.345 84.156C175.459 84.156 175.611 84.156 175.801 84.118C175.877 84.118 175.99 84.08 176.104 84.0421C176.218 84.0421 176.332 84.0041 176.408 83.9661C176.522 83.9282 176.636 83.8902 176.75 83.8523C176.864 83.8143 176.977 83.7384 177.091 83.7004C177.205 83.6245 177.319 83.5865 177.395 83.5106C177.509 83.4726 177.585 83.3967 177.699 83.3208C177.775 83.2449 177.889 83.2069 177.964 83.131C178.04 83.055 178.116 82.9791 178.192 82.9411C178.344 82.8273 178.42 82.6754 178.496 82.5995C178.572 82.5236 178.61 82.4856 178.61 82.4856C178.61 82.4856 178.572 82.5236 178.458 82.5995C178.382 82.6754 178.268 82.7513 178.116 82.8652C178.04 82.9032 177.964 82.9791 177.889 83.055C177.813 83.131 177.699 83.1689 177.623 83.2449C177.433 83.3587 177.205 83.4726 177.015 83.5865C176.788 83.7004 176.598 83.7763 176.37 83.8523C176.256 83.8902 176.18 83.9282 176.066 83.9661C175.952 84.0041 175.877 84.0421 175.801 84.0421C175.611 84.118 175.459 84.118 175.383 84.156C175.231 84.156 175.193 84.156 175.193 84.156Z" fill="#C06969"/>
<path d="M146.228 80.8914C146.607 80.5877 146.721 80.0941 146.721 79.7904C146.152 79.6006 145.544 79.4108 144.975 79.221C144.633 79.1071 144.33 78.9553 143.95 79.0312C143.57 79.0691 143.229 79.3728 143.229 79.7145C144.216 80.1701 145.089 80.5497 146.228 80.8914Z" fill="#F5BF21"/>
<path d="M140.609 81.4994C140.609 79.7151 141.786 78.1966 143.494 77.3615C144.406 77.6652 145.165 78.0827 146 78.5003C144.519 79.2216 143.419 80.5883 143.077 82.1068C142.242 81.879 141.444 81.7272 140.609 81.4994Z" fill="white"/>
<path d="M188.92 78.0501C192.617 75.2194 195.511 71.5754 197.418 67.3487C201.386 58.5088 200.23 49.5756 198.485 45.6461C198.283 45.2649 197.854 45.0579 197.37 45.2503C196.985 45.4553 196.773 45.8854 196.961 46.3664C198.519 49.815 199.673 58.3924 195.931 66.7024C192.697 73.909 186.428 79.1551 177.921 81.8309C170.582 84.1475 164.706 85.0759 156.261 82.8841C154.352 82.8841 153.292 82.3006 150.818 81.9472C146.234 80.2395 146.235 80.7849 146.223 81.2404C146.268 81.6524 150.361 83.3535 150.818 83.3608C151.878 84.0676 152.64 83.693 155.827 84.5556C164.615 86.8418 170.747 85.8953 178.4 83.517C182.403 82.1473 185.963 80.3147 188.92 78.0501Z" fill="#5A3D96"/>
<path d="M184.951 78.3314C187.527 76.635 189.771 74.4339 191.453 71.5181C195.642 64.4186 200.984 57.5656 199.523 50.2979C199.403 49.8345 202.227 46.1624 197.152 47.5486C199.595 47.1187 197.07 48.7079 197.07 48.7079C198.452 55.5754 193.928 63.9191 189.936 70.6174C183.477 81.5626 167.786 83.5587 156.472 81.2408C153.146 80.5367 147.558 79.6335 146.577 79.827C146.108 79.9552 145.791 79.9371 145.87 80.3374C145.991 80.8007 150.154 81.437 150.559 81.3511C150.964 81.2653 152.24 81.2393 156.202 82.0674C165.29 83.9511 176.9 83.6327 184.951 78.3314Z" fill="#EF3D4D"/>
<path d="M138.141 73.1098C138.217 72.9959 138.179 72.882 138.141 72.7681C137.61 70.9459 137.8 68.9718 138.597 67.2635C138.711 67.0357 138.825 66.77 138.711 66.5422C138.559 66.2006 137.989 66.2385 137.762 65.9348C137.268 68.1746 136.737 70.5663 137.496 72.7681C137.534 72.92 137.61 73.0718 137.724 73.1478C137.837 73.2616 138.027 73.2617 138.141 73.1098Z" fill="#F5BF21"/>
<path d="M110.543 65.6691C110.884 65.6691 111.264 65.6691 111.605 65.6311C113.655 65.4793 115.098 64.8719 115.895 63.7709C116.579 62.8219 116.768 61.4552 116.427 60.0506C116.123 58.7978 115.44 57.7348 114.794 56.6719C114.756 56.5959 114.605 56.558 114.529 56.5959C114.453 56.6339 114.415 56.7858 114.453 56.8617C115.098 57.8867 115.743 58.9496 116.047 60.1645C116.389 61.4552 116.199 62.708 115.592 63.5811C114.87 64.5681 113.542 65.1376 111.605 65.2894C106.594 65.6311 101.166 63.4672 97.787 59.7469C97.7111 59.6709 97.5972 59.6709 97.5212 59.7469C97.4453 59.8228 97.4453 59.9367 97.5212 60.0126C100.672 63.5052 105.721 65.6691 110.543 65.6691Z" fill="#E0E0E0"/>
<path d="M141.519 94.3804C141.564 94.3804 141.654 94.3804 141.699 94.3804C142.914 94.2913 144.128 93.8013 145.343 94.2913C145.748 94.4249 146.062 94.6477 146.422 94.8704C148.267 96.0286 150.201 97.1869 151.865 98.6124C152.675 99.3251 153.485 100.082 154.159 100.973C154.699 101.731 154.744 103.78 153.35 103.023C152.495 102.533 151.595 102.132 150.651 101.82C150.201 101.642 150.021 101.597 149.571 101.686C149.076 101.775 148.582 101.775 148.132 101.775C147.187 101.731 146.197 101.552 145.253 101.374C143.723 101.062 142.149 100.662 140.575 100.528C139.135 100.394 137.651 100.127 136.436 99.3697C135.671 98.9242 135.402 98.3451 135.581 97.4987C135.761 96.6968 135.806 95.8059 136.571 95.3159C136.931 95.0931 137.336 95.004 137.741 94.9595C138.955 94.7368 140.26 94.4695 141.519 94.3804Z" fill="#F7BD98"/>
<path d="M146.577 83.625C146.91 83.625 147.242 83.7143 147.63 83.7143C147.908 83.7143 147.908 83.625 147.908 83.4018C147.963 82.9554 148.074 82.509 148.185 82.1072C148.351 81.6608 148.517 81.259 148.795 80.8572C148.961 80.5894 149.404 79.6966 149.404 79.6966C149.404 79.6966 149.238 79.6073 149.016 79.5627C148.795 79.518 148.296 79.5627 148.185 79.4734C147.852 79.6966 147.686 80.0984 147.519 80.4108C147.298 80.7233 147.131 81.0804 147.021 81.4376C146.799 82.1518 146.632 82.9107 146.577 83.625Z" fill="white"/>
<path d="M149.404 83.625C149.653 83.625 149.903 83.7143 150.194 83.7143C150.402 83.7143 150.402 83.625 150.402 83.4018C150.443 82.9554 150.527 82.509 150.61 82.1072C150.734 81.6608 150.859 81.259 151.067 80.8573C151.192 80.5894 151.524 79.6966 151.524 79.6966C151.524 79.6966 151.4 79.6073 151.233 79.5627C151.067 79.518 150.693 79.5627 150.61 79.4734C150.36 79.6966 150.236 80.0984 150.111 80.4108C149.944 80.7233 149.82 81.0804 149.737 81.4376C149.57 82.1518 149.446 82.9107 149.404 83.625Z" fill="white"/>
<path d="M197.215 59.2237H198.16C199.443 59.2237 200.455 58.097 200.455 56.6699V38.5682C200.455 37.1411 199.443 36.0144 198.16 36.0144H197.148C195.865 36.0144 194.853 37.1411 194.853 38.5682V56.6699C194.92 58.097 195.933 59.2237 197.215 59.2237Z" fill="#B3DAC0" stroke="#73C9BD" stroke-miterlimit="10"/>
</g>
<defs>
<linearGradient id="paint0_linear" x1="130.948" y1="76.8711" x2="163.691" y2="78.6743" gradientUnits="userSpaceOnUse">
<stop stop-color="#DF6C6F"/>
<stop offset="0.9946" stop-color="#F5D4A1"/>
</linearGradient>
<linearGradient id="paint1_linear" x1="248.024" y1="169.284" x2="219.914" y2="157.928" gradientUnits="userSpaceOnUse">
<stop stop-color="#434343"/>
<stop offset="1" stop-color="#000101"/>
</linearGradient>
<linearGradient id="paint2_linear" x1="240.06" y1="173.255" x2="210.657" y2="161.376" gradientUnits="userSpaceOnUse">
<stop stop-color="#434343"/>
<stop offset="1" stop-color="#000101"/>
</linearGradient>
<linearGradient id="paint3_linear" x1="236.621" y1="106.728" x2="187.841" y2="127.147" gradientUnits="userSpaceOnUse">
<stop stop-color="#434343"/>
<stop offset="1" stop-color="#000101"/>
</linearGradient>
<linearGradient id="paint4_linear" x1="226.39" y1="135.109" x2="121.473" y2="135.109" gradientUnits="userSpaceOnUse">
<stop stop-color="#434343"/>
<stop offset="1" stop-color="#000101"/>
</linearGradient>
<linearGradient id="paint5_linear" x1="106.17" y1="50.9048" x2="106.699" y2="67.66" gradientUnits="userSpaceOnUse">
<stop stop-color="#DF6C6F"/>
<stop offset="0.9946" stop-color="#F5D4A1"/>
</linearGradient>
<linearGradient id="paint6_linear" x1="119.3" y1="125.774" x2="126.742" y2="70.5736" gradientUnits="userSpaceOnUse">
<stop stop-color="white"/>
<stop offset="1"/>
</linearGradient>
</defs>
</svg>
