<svg width="322" height="222" viewBox="0 0 322 222" fill="none" xmlns="http://www.w3.org/2000/svg">
<mask id="mask0" mask-type="alpha" maskUnits="userSpaceOnUse" x="0" y="0" width="322" height="222">
<rect width="322" height="222" fill="#C4C4C4"/>
</mask>
<g mask="url(#mask0)">
<path fill-rule="evenodd" clip-rule="evenodd" d="M158.171 19.9538C182.697 19.0918 208.287 9.37292 229.986 20.9191C252.877 33.0995 268.022 57.1265 275.145 82.196C282.116 106.734 278.463 133.112 268.533 156.594C259.205 178.656 242.282 196.492 221.711 208.563C202.58 219.789 180.191 223.68 158.171 221.355C137.769 219.2 120.159 208.325 103.628 196.091C87.1847 183.922 70.1785 170.881 63.6555 151.408C57.0959 131.826 64.2363 111.343 68.4643 91.1194C73.2707 68.1296 71.5827 40.3794 89.9071 25.8424C108.298 11.2524 134.774 20.7761 158.171 19.9538Z" fill="#B3DFE4"/>
<path d="M105.88 38.0265C103.795 43.4237 99.0723 63.6632 99.0723 65.1352C99.0723 66.6072 99.5629 72.863 105.573 73.1084L113.363 70.5938L111.768 32.0773C111.768 32.0773 108.149 32.0773 105.88 38.0265Z" fill="white"/>
<path opacity="0.04" d="M110.971 41.0317C110.358 44.1596 109.683 47.3489 108.947 50.4768C107.721 55.7514 105.942 61.1486 106.003 66.5458C106.003 67.5885 105.758 68.5085 105.329 69.1831C105.267 70.4711 105.206 71.6977 105.022 72.9857C105.206 72.9857 105.451 73.047 105.635 73.047L113.424 70.5324L113.24 39.0691C112.382 39.6824 111.646 40.2957 110.971 41.0317Z" fill="black"/>
<path d="M141.145 108.743C141.942 96.4151 137.711 85.0687 137.711 85.0687L119.434 88.0127C119.434 88.0127 122.623 116.164 136.975 185.285H144.396C144.334 185.224 139.428 135.116 141.145 108.743Z" fill="#003141"/>
<path opacity="0.1" d="M141.145 108.743C141.942 96.4151 137.711 85.0687 137.711 85.0687L119.434 88.0127C119.434 88.0127 120.906 101.015 126.364 131.006C128.879 130.148 132.129 130.945 133.295 134.134C136.729 143.15 137.22 153.27 139.244 162.654C140.838 170.136 142.126 177.68 142.678 185.285H144.334C144.334 185.224 139.428 135.116 141.145 108.743Z" fill="black"/>
<path d="M118.454 81.0812L110.051 86.6624C110.051 86.6624 107.598 122.051 114.038 185.284H120.477C120.477 185.284 124.893 110.766 126.917 97.8862C128.819 85.0064 118.454 81.0812 118.454 81.0812Z" fill="#003141"/>
<path opacity="0.1" d="M118.453 81.0812L110.051 86.6624C110.051 86.6624 109.069 100.83 109.989 127.264C111.707 127.693 113.056 129.104 113.792 130.821C120.968 147.933 119.986 166.885 119.557 185.223H120.477C120.477 185.223 124.893 110.705 126.917 97.8248C128.818 85.0064 118.453 81.0812 118.453 81.0812Z" fill="black"/>
<path d="M125.507 29.3172C116.307 29.9305 109.131 37.597 109.009 46.7968C109.009 48.5754 109.07 50.4154 109.254 52.2553C111.217 71.2683 109.99 86.6012 109.99 86.6012L139.552 87.5212C137.651 66.4844 143.109 34.1624 143.109 34.1624C137.467 29.8692 131.027 28.9492 125.507 29.3172Z" fill="#CAE6ED"/>
<path d="M122.562 38.1497L117.349 63.8478L120.538 71.0236L124.463 63.0504L124.218 38.3337L122.562 38.1497Z" fill="#0C70C7"/>
<path d="M113.3 31.1575C106.369 34.1014 108.454 36.0027 108.393 40.2346C108.393 43.7919 108.454 48.1465 108.332 52.2557C107.657 72.1273 104.345 126.345 104.345 126.345C104.345 126.345 113.054 127.081 115.078 126.835C114.894 110.828 119.862 77.8312 117.593 51.4584C117.654 46.5518 122.07 28.5816 122.193 28.2749C119.74 29.0722 116.734 29.6855 113.3 31.1575Z" fill="white"/>
<path d="M142.495 32.752C138.631 30.6054 134.276 28.8881 131.087 28.5814C131.271 29.1947 125.567 47.9623 124.647 54.3409C123.175 64.7673 120.231 120.273 120.231 126.59C126.855 130.761 145.194 125.977 145.194 125.977C144.396 116.838 142.25 99.0519 142.924 81.0816C143.538 63.5407 145.01 46.3677 145.746 38.8852C145.868 36.3706 144.642 33.9173 142.495 32.752Z" fill="white"/>
<path opacity="0.04" d="M140.902 43.8525C140.595 45.2631 139.92 46.2444 139 46.8577C139.43 50.6603 140.288 54.8309 140.166 58.6335C139.92 67.22 131.824 70.0412 125.017 72.8012C124.403 73.0465 123.667 73.1078 122.993 72.9852C122.931 74.2732 122.809 75.5611 122.747 76.9104C123.851 76.1131 125.078 75.4385 126.427 74.8251C128.083 74.0892 129.8 74.0892 131.15 74.7638C133.787 69.5506 141.638 71.9425 140.656 78.1371C139.614 84.5156 139.798 88.0115 139.123 92.9794C138.448 98.254 136.976 103.467 135.443 108.558C134.094 113.158 132.99 118.862 130.168 122.787C128.267 125.424 125.446 126.467 122.502 127.509C130.291 129.779 145.072 125.853 145.072 125.853C144.275 116.715 142.128 98.9286 142.803 80.9583C143.416 63.4174 144.888 46.2444 145.624 38.7619C145.808 36.7993 145.072 34.8367 143.661 33.5487C142.803 36.9833 141.699 40.2952 140.902 43.8525Z" fill="black"/>
<path d="M131.393 20.853C131.271 20.3623 131.148 19.9943 131.087 19.6877C131.025 19.5037 130.964 19.381 130.964 19.3197C130.903 19.2584 130.903 19.197 130.903 19.197C130.351 17.4184 128.45 16.4371 126.671 16.9891C124.892 17.5411 123.911 19.4424 124.463 21.221V21.2823C124.463 21.2823 124.463 21.3437 124.463 21.405C124.463 21.5277 124.463 21.773 124.463 22.0183C124.463 22.5703 124.402 23.3676 124.279 24.1036C124.156 24.8396 123.972 25.6369 123.727 26.1276C123.666 26.3729 123.543 26.6182 123.482 26.8022C123.42 26.9862 123.359 27.0475 123.359 27.0475C123.236 27.2929 123.175 27.5995 123.114 27.9062C122.746 30.2368 124.279 32.3834 126.548 32.7514C128.879 33.1194 131.025 31.5861 131.393 29.3168C131.393 29.3168 131.393 29.1328 131.455 28.8875C131.516 28.6422 131.577 28.2128 131.639 27.7835C131.761 26.8635 131.823 25.5756 131.761 24.3489C131.761 22.9996 131.577 21.773 131.393 20.853Z" fill="#FACAAE"/>
<path opacity="0.05" d="M131.393 20.853C131.271 20.3623 131.148 19.9943 131.087 19.6877C131.025 19.5037 130.964 19.381 130.964 19.3197C130.903 19.2584 130.903 19.197 130.903 19.197C130.351 17.4184 128.449 16.4371 126.671 16.9891C124.892 17.5411 123.911 19.4424 124.463 21.221V21.2823C124.463 21.2823 124.463 21.3437 124.463 21.405C124.463 21.5277 124.463 21.773 124.463 22.0183C124.463 22.5703 124.402 23.3676 124.279 24.1036C124.156 24.8396 123.972 25.6369 123.727 26.1276C123.666 26.3729 123.543 26.6182 123.482 26.8022C123.42 26.9862 123.359 27.0475 123.359 27.0475C123.236 27.2929 123.175 27.5995 123.114 27.9062C123.052 28.2128 123.052 28.5195 123.052 28.8262C124.708 29.1328 126.548 29.1941 128.204 28.8875C129.676 28.0288 130.903 26.9249 131.761 25.5756C131.761 25.1462 131.761 24.7782 131.761 24.3489C131.761 22.9996 131.577 21.773 131.393 20.853Z" fill="black"/>
<path d="M118.698 23.184C120.661 26.3732 127.96 26.9866 131.701 23.6746C135.381 20.3627 136.117 10.8562 136.117 10.8562L120.784 3.98706C120.784 3.98706 115.632 18.2774 118.698 23.184Z" fill="#FACAAE"/>
<path d="M135.626 4.04859C133.173 2.1473 124.218 0.246007 121.581 0.000678617C121.152 -0.0606534 115.939 4.04859 119.987 6.93119C121.765 8.21917 130.965 9.87513 130.781 10.9791C130.658 12.0831 130.536 13.923 130.536 13.923L131.824 16.0083C131.824 16.0083 133.725 13.2484 133.848 16.131C133.909 17.2963 133.664 18.5843 132.376 19.4429C132.069 19.6883 131.701 23.6748 131.701 23.6748L132.866 22.8162C132.866 22.8162 135.381 20.1176 136.976 15.7017C136.976 15.7017 139.552 7.17652 135.626 4.04859Z" fill="#8F705C"/>
<path d="M124.648 33.6101L122.256 35.4501L122.563 38.1487L124.218 38.3327L126.488 35.8181L125.629 33.9168L124.648 33.6101Z" fill="#0C70C7"/>
<path d="M123.482 26.6191L121.519 28.7044C121.519 28.7044 118.452 32.139 122.255 35.4509L125.812 32.691C125.812 32.691 123.052 31.1577 123.482 26.6191Z" fill="#CAE6ED"/>
<path d="M125.752 32.6903L127.469 35.6955C127.469 35.6955 132.621 33.7943 132.989 27.7224L131.885 25.7598C131.885 25.7598 130.107 30.421 125.752 32.6903Z" fill="#CAE6ED"/>
<path opacity="0.06" d="M117.411 31.8939L114.099 37.4137C114.099 37.4137 114.283 52.9921 118.576 70.8397C118.576 70.8397 118.453 39.499 122.378 27.8459L117.104 30.2992L117.411 31.8939Z" fill="black"/>
<path d="M118.576 31.7708L115.265 37.2907C115.265 37.2907 114.283 52.1943 118.515 70.0419C118.515 70.0419 118.822 39.0693 122.747 27.4775L118.331 29.8082L118.576 31.7708Z" fill="white"/>
<path opacity="0.06" d="M132.742 27.0481L128.449 35.3892C128.449 35.3892 124.524 55.6901 126.732 68.8152C126.732 68.8152 129.983 54.0955 131.516 47.533C133.049 40.9705 135.318 35.9412 135.318 35.9412L133.969 31.2187L136.177 30.2987L132.742 27.0481Z" fill="black"/>
<path d="M128.449 35.3278C128.449 35.3278 124.524 55.6287 126.732 68.7538C126.732 68.7538 128.94 53.9114 130.534 47.2876C132.068 40.7251 134.337 35.6958 134.337 35.6958L132.988 30.9733L135.196 30.0533L135.932 29.6853L132.804 26.9867L128.449 35.3278Z" fill="white"/>
<path d="M99.9307 63.2951L107.842 86.2333L121.704 84.148L113.73 61.2098L99.9307 63.2951Z" fill="#0F3C7A"/>
<path d="M119.923 72.5562C118.758 72.4949 117.654 72.1882 117.654 72.1882L118.513 74.6415C118.513 74.6415 118.942 75.9908 110.969 76.7881C109.865 76.9108 109.865 77.5241 110.846 77.8921C111.276 78.0148 113.668 78.0761 113.668 78.0761C113.668 78.0761 115.078 78.6894 115.753 78.9961C117.164 79.6707 118.268 79.9774 119.862 79.6094C121.457 79.2414 124.278 78.1374 125.443 77.3401L124.217 74.0282C124.217 74.0895 121.211 72.6176 119.923 72.5562Z" fill="#FACAAE"/>
<path d="M147.156 38.3942C146.604 36.2476 146.052 34.2236 143.722 33.365C141.023 32.3837 138.018 34.101 137.466 36.9223C137.098 38.7622 137.527 47.2874 141.207 62.559C141.391 63.4177 142.066 65.4416 141.698 66.1776C141.452 66.6683 128.879 71.0228 123.912 72.8015C122.501 73.2921 122.93 75.7454 123.176 76.972C123.85 80.3453 125.813 79.548 128.573 79.3027C132.621 78.996 142.802 75.6227 146.85 75.3161C148.628 75.1321 150.284 74.7028 151.204 73.0468C152.124 71.4522 151.695 69.5509 151.45 67.7722C150.039 57.1005 149.916 48.698 147.156 38.3942Z" fill="white"/>
<path opacity="0.04" d="M147.156 38.3944C146.604 36.2478 146.052 34.2238 143.721 33.3652C143.476 33.3038 143.292 33.2425 143.047 33.1812C143.353 33.6105 143.66 34.1625 143.844 34.7758C146.665 43.7916 148.383 53.1754 148.444 62.6205C148.444 63.0498 148.444 63.4178 148.383 63.7858C148.383 64.0311 148.383 64.2151 148.383 64.4605C147.708 71.0843 141.513 74.3963 135.319 75.6842C131.7 77.0949 127.652 77.8309 123.727 78.3828C124.647 79.9161 126.364 79.3642 128.572 79.1802C132.62 78.8735 142.801 75.5002 146.849 75.1936C148.628 75.0096 150.284 74.5803 151.204 72.9243C152.124 71.3297 151.694 69.4284 151.449 67.6497C150.038 57.1006 149.916 48.6981 147.156 38.3944Z" fill="black"/>
<path d="M115.448 181.482C115.08 183.567 109.376 188.351 106.371 188.597C103.366 188.842 103.55 190.375 103.55 190.375C103.918 190.621 104.347 191.111 105.328 191.234H115.08C115.387 191.234 115.693 191.234 115.939 191.234H118.147C119.864 190.989 121.642 190.498 121.642 190.498C121.581 185.162 119.864 181.544 119.864 181.544L115.448 181.482Z" fill="#003141"/>
<path d="M137.221 181.482C136.853 183.567 134.89 187.799 133.663 188.229C130.781 189.21 131.21 190.437 131.21 190.437C131.578 190.682 132.007 191.173 132.989 191.295H138.263C138.57 191.295 138.877 191.295 139.122 191.295H141.33C143.047 191.05 144.826 190.559 144.826 190.559C144.764 185.223 143.047 181.605 143.047 181.605L137.221 181.482Z" fill="#003141"/>
<path d="M132.191 55.1997C131.945 55.1384 131.7 55.0157 131.577 54.7704C129.492 51.2132 129.431 47.1039 129.737 44.344C130.044 41.2774 130.903 39.0081 130.903 39.0081L130.412 38.8241C130.412 38.8241 129.553 41.1547 129.247 44.2826C128.94 47.1652 129.001 51.3972 131.148 55.0157C131.332 55.3224 131.639 55.5677 132.068 55.6904C133.724 56.1197 136.607 54.5251 136.729 54.4638L136.484 54.0344C136.484 54.0344 133.663 55.5677 132.191 55.1997Z" fill="#9FABAD"/>
<path d="M137.282 53.2978L136.423 53.7271C136.178 53.8498 136.055 54.1564 136.239 54.4018C136.362 54.6471 136.73 54.7084 136.975 54.5858L137.834 54.1564C138.079 54.0338 138.202 53.7271 138.018 53.4818C137.895 53.2364 137.588 53.1751 137.282 53.2978Z" fill="#9FABAD"/>
<path d="M138.937 39.1301L138.446 39.2528C138.446 39.2528 139.121 41.5834 139.182 44.65C139.244 47.4713 138.876 51.5805 136.484 54.9538C136.361 55.1378 136.116 55.2604 135.87 55.3218C134.398 55.5671 131.7 53.8498 131.7 53.7885L131.393 54.2178C131.516 54.2791 134.276 56.1191 135.993 55.8124C136.422 55.7511 136.729 55.5671 136.974 55.1991C139.428 51.7032 139.796 47.5326 139.734 44.65C139.612 41.5221 138.937 39.1915 138.937 39.1301Z" fill="#9FABAD"/>
<path d="M131.761 53.6048L130.964 53.0528C130.719 52.8688 130.412 52.9301 130.228 53.1754C130.044 53.4208 130.105 53.7274 130.351 53.8501L131.148 54.4021C131.393 54.5861 131.7 54.5248 131.884 54.2794C132.068 54.0341 132.007 53.7274 131.761 53.6048Z" fill="#9FABAD"/>
<path d="M134.89 36.0026C132.191 35.8799 129.922 37.5359 129.799 40.4798H130.903C130.965 38.2719 132.743 36.9226 134.829 36.9839C136.914 37.0452 138.57 38.5172 138.508 40.7865L139.551 40.8478C139.674 37.9039 137.588 36.0639 134.89 36.0026Z" fill="#F17474"/>
<path d="M131.945 25.8827C132.007 26.128 132.559 26.9253 132.62 27.048C133.295 28.0293 133.785 29.072 134.153 30.4213C134.889 33.1812 134.644 36.1251 134.644 36.1251L135.38 36.1865C135.38 36.0638 135.625 33.1199 134.889 30.2373C134.521 28.8266 133.295 26.0667 131.945 25.8827Z" fill="#F17474"/>
<path d="M120.722 27.4773C118.943 28.52 116.551 30.7893 115.754 34.4692C115.018 37.9651 113.73 47.9009 113.73 48.0236L114.65 47.9622C114.65 47.9009 115.938 38.0264 116.674 34.6532C117.41 31.3412 119.925 28.6426 122.746 27.4773L123.482 26.7413C122.868 26.5573 121.703 26.9253 120.722 27.4773Z" fill="#F17474"/>
<path d="M114.344 47.6553C113.056 47.6553 112.074 48.6366 112.074 49.8019C112.074 51.0285 113.117 51.9485 114.344 51.9485C115.631 51.9485 116.613 50.9672 116.613 49.8019C116.613 48.6366 115.57 47.6553 114.344 47.6553Z" fill="#C5CCCD"/>
<path d="M114.342 48.3917C113.423 48.3917 112.748 49.0664 112.687 49.8637C112.687 50.661 113.423 51.3357 114.281 51.3357C115.201 51.3357 115.876 50.661 115.937 49.8637C115.937 49.005 115.201 48.3917 114.342 48.3917ZM114.281 50.9677C113.545 50.9677 112.993 50.4157 112.993 49.8024C112.993 49.189 113.607 48.6371 114.281 48.6371C115.017 48.6371 115.569 49.189 115.569 49.8024C115.63 50.477 115.017 50.9677 114.281 50.9677Z" fill="#9FABAD"/>
<path d="M114.344 47.349C112.933 47.349 111.768 48.453 111.768 49.8023C111.768 51.1516 112.933 52.2556 114.344 52.2556C115.754 52.2556 116.919 51.1516 116.919 49.8023C116.858 48.453 115.754 47.4103 114.344 47.349ZM114.282 51.7036C113.178 51.7036 112.258 50.8449 112.258 49.8023C112.258 48.7596 113.178 47.901 114.282 47.901C115.386 47.901 116.306 48.7596 116.306 49.8023C116.306 50.8449 115.386 51.7036 114.282 51.7036Z" fill="#9FABAD"/>
<path d="M192.869 99.0819C193.722 97.0097 193.905 97.1316 196.526 96.7049L198.659 96.2783C201.828 93.8404 209.264 87.8067 210.848 86.7096C211.762 86.1001 212.677 85.4907 213.53 84.8812C213.652 84.8203 214.322 84.3327 214.749 84.0279C219.076 77.019 221.087 68.7912 221.88 60.6243C224.561 61.3556 227.243 62.026 229.864 62.9403C229.986 63.0012 230.047 63.0012 230.168 63.0012C230.168 63.3669 230.108 63.6716 230.108 64.0373C229.376 71.8385 227.182 79.7007 222.916 86.3439C222.184 87.441 221.453 88.7818 220.417 89.6351C219.198 90.6712 217.674 91.4025 216.273 92.1949C212.92 94.0842 209.385 95.8517 205.851 97.4363C203.839 98.3505 201.767 99.3866 199.695 100.24L196.709 101.581C196.709 101.581 192.686 102.312 192.442 100.484C192.503 100.179 192.625 99.6304 192.869 99.0819Z" fill="#8F705C"/>
<path d="M215.175 83.6013C215.175 83.6013 214.87 83.9061 214.809 83.967C215.053 83.7842 215.175 83.6623 215.175 83.6013Z" fill="#8F705C"/>
<path opacity="0.05" d="M192.807 99.2647C194.879 98.5333 196.891 97.6801 198.78 96.644C202.376 94.6937 205.667 92.2558 209.263 90.3664C215.845 86.8924 221.269 82.8699 221.269 74.764C221.269 73.3012 220.782 72.2042 219.99 71.4119C220.721 68.6693 221.208 65.8657 221.574 63.0621C224.378 63.6107 227.181 64.1592 229.985 64.8296C229.193 72.387 226.998 80.0664 222.915 86.4658C222.184 87.5629 221.452 88.9037 220.416 89.757C219.197 90.7931 217.674 91.5244 216.272 92.3167C212.92 94.2061 209.385 95.9736 205.85 97.5582C203.839 98.4724 201.766 99.5085 199.694 100.362L196.708 101.703C196.708 101.703 192.685 102.434 192.441 100.606C192.502 100.179 192.624 99.7523 192.807 99.2647Z" fill="black"/>
<path d="M194.817 190.198C198.169 191.356 204.934 189.162 206.397 186.907L212.858 188.43C212.858 188.43 213.101 192.88 210.542 198.974C210.542 198.974 206.275 198.73 204.264 197.451C202.253 196.11 193.842 195.439 190.856 190.929C190.856 190.929 191.404 189.04 194.817 190.198Z" fill="white"/>
<path opacity="0.05" d="M209.629 187.699L212.798 188.491C212.798 188.491 213.042 192.94 210.482 199.035C210.482 199.035 206.216 198.791 204.205 197.511C203.474 197.024 201.767 196.597 199.817 196.048C202.803 195.378 205.668 194.159 208.045 192.087C209.568 190.685 209.934 189.161 209.629 187.699Z" fill="black"/>
<path d="M147.157 116.694C147.766 116.207 153.556 116.39 153.556 116.39L152.276 121.692L149.412 122.301L145.877 123.094C145.877 126.446 143.378 126.263 143.378 126.263C143.378 126.263 142.525 121.814 142.647 121.326C142.829 120.839 146.486 117.182 147.157 116.694Z" fill="#D4916D"/>
<path d="M178.486 130.774C178.486 131.018 180.01 145.157 172.087 148.327C172.087 148.327 165.626 149.302 158.983 148.936C152.34 148.631 130.521 148.266 130.521 148.266L127.047 135.711C130.399 134.613 152.157 131.871 163.005 131.383C176.475 130.896 178.303 130.774 178.486 130.774Z" fill="#D4916D"/>
<path d="M178.486 130.773C178.486 130.773 178.486 130.712 178.486 130.773C178.486 130.712 178.547 130.712 178.486 130.773Z" fill="#D4916D"/>
<path d="M123.754 138.697C123.754 138.514 124.912 136.076 126.131 135.893C127.654 135.101 129.544 135.162 131.738 135.71C131.921 135.771 133.871 151.252 133.688 151.13C129.788 153.751 128.142 157.773 127.228 161.308C125.643 167.586 114.855 183.858 114.855 183.858C114.855 183.858 108.639 185.26 109.065 183.371C109.309 183.371 120.889 144.852 123.754 138.697Z" fill="#D4916D"/>
<path opacity="0.05" d="M122.719 158.323C125.949 152.167 129.545 146.133 131.191 139.368C131.556 137.845 131.313 136.565 130.642 135.589C130.947 135.65 131.313 135.711 131.678 135.833C131.861 135.894 133.811 151.375 133.629 151.253C129.728 153.874 128.082 157.896 127.168 161.431C125.584 167.709 114.796 183.981 114.796 183.981C114.796 183.981 111.931 184.652 110.225 184.469C111.809 181.787 113.272 179.045 114.613 176.241C117.417 170.207 119.672 164.113 122.719 158.323Z" fill="black"/>
<path d="M163.859 129.433C179.461 128.884 178.486 130.774 178.486 130.774C178.486 130.774 182.143 149.972 174.098 153.141C174.098 153.141 167.638 154.116 160.994 153.751C156.667 153.568 141.857 152.958 133.69 154.97C129.546 147.9 130.277 142.049 128.997 134.796C130.765 134.735 154.656 132.297 162.701 129.92C163.128 129.799 163.493 129.616 163.859 129.433Z" fill="#0F3C7A"/>
<path d="M161.908 101.581C165.686 95.669 173.183 85.6128 173.183 85.6128C173.183 85.6128 181.776 76.6535 186.591 84.5157C186.591 84.5157 190.492 92.6826 187.871 100.545C185.25 108.468 182.02 117.854 181.655 122.669C181.289 127.422 179.948 137.662 178.546 141.014L157.337 132.298C157.337 132.298 162.456 112.429 163.188 110.601C163.127 110.54 158.068 107.432 161.908 101.581Z" fill="#F17474"/>
<path opacity="0.05" d="M186.957 85.4297C187.871 87.8066 189.944 94.267 187.871 100.545C185.251 108.468 182.02 117.854 181.655 122.668C181.289 127.422 179.948 137.661 178.546 141.013L157.337 132.298C157.337 132.298 162.274 113.1 163.127 110.723C170.867 113.404 188.664 95.1203 186.957 85.4297Z" fill="black"/>
<path d="M175.683 74.6429L181.351 74.3381L184.094 82.0784C181.717 84.4553 177.938 85.4305 176.475 85.0648C175.866 84.882 175.5 84.5772 175.256 84.1506C176.293 80.9204 175.988 78.2997 175.683 74.6429Z" fill="#D4916D"/>
<path opacity="0.06" d="M181.351 74.3381L182.631 77.8731C180.681 79.8234 178.365 80.9814 175.805 81.5299C176.049 79.3967 175.866 77.2636 175.683 74.6429L181.351 74.3381Z" fill="black"/>
<path d="M177.939 57.2116C184.033 56.5411 189.58 62.0873 189.58 65.1347C189.58 67.3288 188.239 70.6809 186.41 73.9111C184.948 76.4708 182.571 78.4821 179.706 79.2744C178.365 79.701 176.903 80.0058 175.806 79.8839C169.162 79.3963 169.833 76.0442 169.528 72.0826C169.284 68.243 171.844 57.882 177.939 57.2116Z" fill="#D4916D"/>
<path d="M182.082 55.8092C186.897 56.6015 188.969 57.4548 190.005 63.9152C190.798 68.8519 188.726 72.9353 186.775 74.9466C184.459 77.3235 182.448 78.1158 182.448 78.1158C183.972 73.1791 180.132 65.6217 180.132 65.6217L171.295 62.94C170.015 58.0033 174.647 54.5903 182.082 55.8092Z" fill="#989898"/>
<path opacity="0.04" d="M184.52 67.2065C186.471 65.2562 188.116 62.3917 188.726 59.4053C189.274 60.5023 189.701 61.965 190.005 63.9154C190.798 68.8521 188.726 72.9355 186.775 74.9468C184.459 77.3237 182.448 78.116 182.448 78.116C183.301 75.3734 182.509 71.8385 181.595 69.2178C182.692 68.7302 183.667 68.0598 184.52 67.2065Z" fill="black"/>
<path d="M175.38 154.378L175.551 176.989L173.479 177.005L173.307 154.393L175.38 154.378Z" fill="#C9DDE1"/>
<path d="M186.527 103.958V103.836C187.868 99.4475 191.525 99.1427 193.353 99.5694L202.008 102.007C202.617 102.19 202.983 102.861 202.8 103.47C202.617 104.14 202.008 104.506 201.398 104.323L192.744 101.885C192.439 101.824 189.696 101.276 188.721 104.445L185.125 121.754L184.76 155.58C184.699 155.58 182.444 155.58 182.444 155.58L182.809 121.571L186.527 103.958Z" fill="white"/>
<path d="M185.917 130.897V151.314L132.162 150.826L132.71 130.226L185.917 130.897Z" fill="#003141"/>
<path d="M106.992 189.284L115.342 191.783C116.256 192.026 116.743 193.002 116.5 193.977C116.256 194.891 115.281 195.439 114.427 195.196L106.078 192.697C105.163 192.453 104.676 191.478 104.92 190.503C105.163 189.588 106.078 189.04 106.992 189.284Z" fill="#003141"/>
<path d="M133.748 122.972C135.516 121.326 138.258 121.57 138.746 121.57L184.091 123.154C184.7 123.154 185.249 123.703 185.188 124.373C185.188 125.044 184.639 125.531 183.969 125.47L138.563 123.886H138.502C135.76 123.886 134.602 125.653 134.602 126.506L132.103 180.14C132.103 180.749 131.554 181.237 130.945 181.237H130.884C130.274 181.176 129.726 180.627 129.787 180.018L132.286 126.446C132.286 125.044 132.773 123.825 133.748 122.972Z" fill="white"/>
<path d="M131.189 174.412H191.1C191.71 174.412 192.258 175.021 192.198 175.692C192.198 176.362 191.649 176.85 191.04 176.85H190.979H131.068C130.458 176.85 129.91 176.24 129.971 175.57C130.031 174.96 130.519 174.412 131.189 174.412Z" fill="#C9DDE1"/>
<path d="M194.27 99.2637L201.766 101.214C202.741 101.458 203.351 102.494 203.107 103.53C202.863 104.566 201.888 105.176 200.913 104.932L193.416 102.981C192.441 102.738 191.832 101.702 192.075 100.665C192.319 99.6903 193.294 99.0199 194.27 99.2637Z" fill="#003141"/>
<path d="M128.018 157.833C129.663 153.506 133.625 153.019 135.575 153.445H184.638C184.577 153.811 184.455 155.456 184.455 155.883H135.453H135.21C134.844 155.822 131.492 155.213 130.151 158.808L116.255 194.767C116.072 195.255 115.646 195.499 115.158 195.499C115.036 195.499 114.853 195.499 114.731 195.438C114.122 195.194 113.878 194.463 114.122 193.853L128.018 157.833Z" fill="#C9DDE1"/>
<path d="M127.591 161.49L131.674 162.1C131.613 162.892 131.613 163.745 131.552 164.538L127.469 163.928C126.859 163.928 126.311 163.319 126.372 162.648C126.433 161.978 126.92 161.49 127.591 161.49Z" fill="#C9DDE1"/>
<path d="M173.73 137.843H174.766V195.743H173.73V137.843Z" fill="white"/>
<path d="M145.328 166.305H203.228V167.341H145.328V166.305Z" fill="white"/>
<path d="M154.157 145.983L195.092 186.93L194.359 187.662L153.424 146.716L154.157 145.983Z" fill="white"/>
<path d="M194.365 145.952L195.098 146.685L154.157 187.626L153.424 186.893L194.365 145.952Z" fill="white"/>
<path d="M163.59 139.913L185.87 193.354L184.914 193.753L162.634 140.312L163.59 139.913Z" fill="white"/>
<path d="M200.782 155.168L201.181 156.124L147.74 178.41L147.341 177.453L200.782 155.168Z" fill="white"/>
<path d="M147.689 155.333L201.234 177.363L200.84 178.322L147.294 156.291L147.689 155.333Z" fill="white"/>
<path d="M184.785 139.818L185.743 140.212L163.712 193.758L162.754 193.363L184.785 139.818Z" fill="white"/>
<path d="M174.28 136.442C191.04 136.442 204.692 150.094 204.692 166.854C204.692 183.615 191.04 197.267 174.28 197.267C157.519 197.267 143.867 183.615 143.867 166.854C143.867 150.033 157.519 136.442 174.28 136.442ZM174.28 193.549C189.029 193.549 201.036 181.542 201.036 166.793C201.036 152.044 189.029 140.037 174.28 140.037C159.531 140.037 147.524 152.044 147.524 166.793C147.524 181.542 159.531 193.549 174.28 193.549Z" fill="#C9DDE1"/>
<path d="M174.28 134.613C192.016 134.613 206.46 149.058 206.46 166.793C206.46 184.529 192.016 198.973 174.28 198.973C156.544 198.973 142.1 184.529 142.1 166.793C142.039 149.058 156.483 134.613 174.28 134.613ZM174.28 195.377C190.004 195.377 202.864 182.579 202.864 166.793C202.864 151.008 190.065 138.209 174.28 138.209C158.556 138.209 145.696 151.008 145.696 166.793C145.696 182.579 158.495 195.377 174.28 195.377Z" fill="#4F7D8A"/>
<path d="M174.279 164.355C175.62 164.355 176.717 165.452 176.717 166.793C176.717 168.134 175.62 169.231 174.279 169.231C172.939 169.231 171.842 168.134 171.842 166.793C171.781 165.452 172.878 164.355 174.279 164.355Z" fill="#3C626A"/>
<path d="M98.0959 183.188C105.897 183.066 109.615 180.689 109.615 180.689L115.771 182.578C115.771 182.578 115.649 184.59 115.405 186.601C115.1 188.795 114.856 191.538 112.967 190.928L94.3171 186.052C94.3171 186.113 93.0372 183.31 98.0959 183.188Z" fill="white"/>
<path opacity="0.1" d="M112.479 181.604L115.771 182.64C115.771 182.64 115.649 184.651 115.405 186.662C115.1 188.856 114.856 191.599 112.967 190.989L102.667 188.308C105.288 187.698 107.847 186.723 110.163 185.26C111.626 184.285 112.357 182.944 112.479 181.604Z" fill="black"/>
<path d="M130.336 180.385H131.494V197.39H130.336V180.385Z" fill="white"/>
<path d="M122.415 188.308H139.419V189.466H122.415V188.308Z" fill="white"/>
<path d="M137.346 194.525L136.492 195.317L124.486 183.311L125.339 182.458L137.346 194.525Z" fill="white"/>
<path d="M137.346 183.311L125.339 195.317L124.486 194.525L136.492 182.458L137.346 183.311Z" fill="white"/>
<path d="M130.886 178.557C136.555 178.557 141.187 183.189 141.187 188.857C141.187 194.525 136.555 198.974 130.886 198.974C125.218 198.974 120.586 194.586 120.586 188.857C120.586 183.189 125.218 178.557 130.886 178.557ZM130.886 196.414C135.031 196.414 138.444 193.001 138.444 188.857C138.444 184.712 135.092 181.299 130.886 181.299C126.742 181.299 123.329 184.712 123.329 188.857C123.39 193.062 126.742 196.414 130.886 196.414Z" fill="#4F7D8A"/>
<path d="M130.887 186.846C131.984 186.846 132.898 187.76 132.898 188.857C132.898 189.954 131.984 190.868 130.887 190.868C129.79 190.868 128.876 189.954 128.876 188.857C128.876 187.76 129.79 186.846 130.887 186.846Z" fill="#3C626A"/>
<path d="M153.435 115.719L168.123 113.829C168.123 113.829 170.683 102.981 171.963 99.5678C173.243 96.1547 175.132 84.2091 184.762 88.2926C184.762 88.2926 188.357 90.8523 187.078 95.5453C185.798 100.238 181.349 113.037 180.069 115.597C178.789 118.157 176.473 124.739 173.06 124.556C169.647 124.373 152.825 122.423 151.972 122.423C151.058 122.301 150.875 116.755 153.435 115.719Z" fill="#F17474"/>
<path opacity="0.04" d="M181.898 106.821C184.092 101.945 185.616 96.8862 186.53 91.5838C186.591 91.2181 186.591 90.9134 186.591 90.6086C187.2 91.8276 187.566 93.4732 187.017 95.5454C185.737 100.238 181.288 113.037 180.008 115.597C178.729 118.157 176.413 124.739 172.999 124.556C171.537 124.434 167.514 124.069 163.37 123.642C167.331 123.398 171.11 122.301 174.34 119.254C177.692 115.963 180.069 110.904 181.898 106.821Z" fill="black"/>
<path d="M183.786 67.8158C184.883 68.4862 184.761 73.9714 182.811 73.4229C180.86 72.8744 181.409 69.0956 181.409 69.0956C181.409 69.0956 182.689 67.0844 183.786 67.8158Z" fill="#D4916D"/>
<path d="M189.578 61.4151C190.432 60.9275 193.174 59.8914 194.576 61.9027C196.039 64.0358 192.87 77.688 189.03 73.4217C188.481 72.8122 188.116 72.1418 187.872 71.4714C189.578 68.5459 190.127 64.8281 189.578 61.4151Z" fill="#989898"/>
<path opacity="0.04" d="M194.697 66.4138C193.965 70.863 191.649 76.3482 189.029 73.4227C191.528 71.8991 193.539 69.2783 194.697 66.4138Z" fill="black"/>
<path d="M212.612 146.985C212.673 146.863 212.734 146.68 212.734 146.558C212.795 146.131 212.856 145.705 212.978 145.278L225.716 106.211C225.899 105.723 226.082 105.236 226.325 104.748C228.702 100.238 234.31 98.5317 238.82 100.909C243.33 103.286 244.549 110.66 242.172 115.17L223.583 149.727C223.522 149.788 222.912 157.224 221.633 161.856C218.524 173.436 212.734 189.526 212.734 189.526C212.308 190.806 204.933 187.941 205.177 186.417L212.612 146.985Z" fill="#AD85E0"/>
<path opacity="0.1" d="M233.883 111.94C234.858 106.821 228.702 104.078 225.655 106.577L225.777 106.211C225.96 105.723 226.143 105.236 226.386 104.748C228.763 100.238 234.37 98.5317 238.88 100.909C243.391 103.286 245.828 109.015 243.452 113.525L223.583 149.727C223.522 149.788 222.912 157.224 221.632 161.856C218.524 173.436 212.734 189.526 212.734 189.526C212.551 190.013 211.393 189.891 210.053 189.526C212.734 178.494 213.892 167.097 216.635 155.944C220.414 140.463 230.896 127.664 233.883 111.94Z" fill="black"/>
<path d="M251.865 195.134C255.278 194.463 256.436 193.61 257.412 192.147C258.631 190.38 258.752 188.612 258.448 187.271L263.872 184.895C263.872 184.895 266.737 187.576 269.235 193.244C269.235 193.244 264.481 197.632 258.204 198.73C255.949 199.095 254.852 199.217 249.793 198.242C249.793 198.242 248.574 195.743 251.865 195.134Z" fill="white"/>
<path opacity="0.05" d="M263.383 189.283C262.835 188.003 261.981 186.845 260.884 186.174L263.932 184.833C263.932 184.833 266.796 187.515 269.295 193.183C269.295 193.183 264.968 197.145 259.117 198.486C262.469 196.535 265.151 193.427 263.383 189.283Z" fill="black"/>
<path d="M242.355 100.178C247.475 100.239 251.558 104.384 251.497 109.503L251.254 146.742C251.436 147.047 255.581 153.934 256.129 155.457C259.055 163.381 265.576 185.565 265.576 185.565C266.003 186.906 259.116 189.954 258.384 188.491L240.771 152.349C240.649 152.105 240.527 151.801 240.466 151.557C240.405 151.313 240.344 151.13 240.283 150.886C240.039 150.399 239.857 149.85 239.735 149.302L233.091 111.027C233.03 110.479 232.97 109.93 232.97 109.381C233.091 104.262 237.236 100.178 242.355 100.178Z" fill="#AD85E0"/>
<path opacity="0.1" d="M242.356 100.178C247.476 100.239 251.559 104.384 251.498 109.503L251.255 146.742C251.437 147.047 255.582 153.934 256.13 155.457C259.056 163.381 265.577 185.565 265.577 185.565C265.76 186.053 264.846 186.845 263.688 187.516C262.896 183.127 261.616 178.922 259.665 174.839C258.081 171.487 256.069 168.378 253.997 165.331C251.864 161.613 249.426 158.139 247.72 154.178C246.562 151.618 246.562 148.875 246.379 146.072C246.135 142.354 245.891 138.575 245.526 134.857C244.855 127.605 243.941 120.352 242.234 113.221C241.991 112.185 241.503 111.393 240.894 110.783C239.918 108.711 238.7 106.7 237.054 104.749C236.505 104.079 235.896 103.652 235.287 103.409C237.115 101.397 239.614 100.178 242.356 100.178Z" fill="black"/>
<path d="M219.136 67.4494L221.696 61.1109C222.305 56.4179 223.646 53.1268 226.816 51.6031C231.326 49.409 239.127 49.6528 241.93 50.8108C251.316 54.7114 250.707 61.5984 249.671 67.4494C247.172 82.3814 248.391 90.7921 249.732 97.2525C250.829 102.494 251.56 107.735 251.56 107.735C251.56 107.735 243.21 112.733 225.17 106.821L221.513 73.0565C219.807 72.0204 218.527 70.131 219.014 67.6322C219.014 67.5713 219.075 67.5103 219.136 67.4494Z" fill="#AD85E0"/>
<path opacity="0.09" d="M249.671 67.4488C247.172 82.3808 248.391 90.7915 249.732 97.2519C250.829 102.493 251.56 107.735 251.56 107.735C251.56 107.735 247.842 109.99 239.919 109.685C239.736 104.139 239.127 98.5928 238.395 93.1075C238.335 92.498 238.213 91.8886 238.152 91.2791C238.517 84.6968 237.786 77.9926 236.201 71.5932C236.201 71.2885 236.201 70.9228 236.201 70.618C240.955 65.7423 244.856 60.257 246.989 53.9795C251.012 57.8192 250.463 62.9387 249.671 67.4488Z" fill="black"/>
<path d="M232.545 22.653C235.714 22.2264 237.42 21.3122 240.102 23.811C240.773 24.4205 241.87 25.1519 242.54 26.127C243.698 27.7117 246.623 25.4566 247.599 31.8561C249.122 41.9123 244.125 44.0455 239.066 44.2893C227.547 44.8378 225.475 36.6099 225.962 31.7342C226.45 26.8584 227.12 23.3235 232.545 22.653Z" fill="#0F353E"/>
<path d="M250.462 23.8113C253.021 25.4569 255.033 32.6487 254.301 36.3664C253.326 41.5469 247.17 46.7274 242.904 47.0322C238.699 47.3369 227.241 37.8901 227.241 37.8901C227.241 37.8901 225.168 34.9647 225.717 30.5155C226.266 26.0664 233.396 12.8409 250.462 23.8113Z" fill="#0F353E"/>
<path d="M240.466 33.99C243.087 34.2947 243.27 37.8906 242.477 40.3895C241.685 42.6445 240.527 45.1433 238.821 46.3623C235.286 48.9221 229.496 47.886 227.972 45.1433C225.595 40.8161 230.654 30.8817 230.654 30.8817C230.654 30.8817 233.274 33.1977 240.466 33.99Z" fill="#8F705C"/>
<path d="M233.335 43.923C233.213 40.5099 237.48 41.2413 238.333 43.7401C239.064 45.8733 240.832 51.1147 239.43 53.126C237.358 56.1124 231.69 53.9183 232.055 50.6272C232.36 48.3112 233.396 46.3609 233.335 43.923Z" fill="#8F705C"/>
<path opacity="0.08" d="M232.665 47.4595C232.909 47.5205 233.213 47.5205 233.457 47.5205C234.493 47.6424 234.432 47.6424 235.469 47.4595C235.895 47.3986 236.322 47.3986 236.687 47.2767C236.992 47.1548 237.297 47.0329 237.663 46.911C236.748 48.1909 235.651 48.9223 233.153 49.1661C232.848 49.1661 232.604 49.227 232.299 49.227C232.421 48.7394 232.543 48.2518 232.665 47.7033C232.665 47.6424 232.665 47.5814 232.665 47.4595Z" fill="black"/>
<path d="M230.167 87.257C230.228 87.1961 230.228 87.1961 230.167 87.257C230.167 87.257 230.167 87.1961 230.167 87.257Z" fill="#8F705C"/>
<path d="M230.776 86.708C230.715 86.769 230.654 86.8299 230.533 86.8909C230.472 86.9518 230.35 87.0127 230.289 87.1346L230.167 87.2565C230.167 87.2565 230.167 87.1956 230.167 87.2565V87.3175C230.167 87.3175 230.106 87.3784 230.167 87.3175C230.045 87.4394 229.679 87.9269 229.923 87.6832L229.984 87.5613L230.167 87.3175L230.289 87.1346C230.289 87.1346 230.35 87.1346 230.35 87.0737C230.533 86.8299 230.654 86.769 230.776 86.708Z" fill="#8F705C"/>
<path d="M204.996 98.1055L206.764 97.1913C206.764 97.1913 207.007 97.0694 207.373 96.8866C207.8 96.7038 208.348 96.399 209.141 96.0333C210.664 95.302 212.858 94.3878 215.418 93.2298C216.698 92.6813 218.161 92.0718 219.623 91.4623C221.147 90.8528 222.671 90.1824 224.316 89.512C225.901 88.8416 227.608 88.1102 229.192 87.4398C229.558 87.257 229.924 87.1351 230.228 86.9522L230.106 87.1351L229.924 87.3789V87.5617C229.68 87.8664 230.106 87.3179 230.167 87.196L230.289 87.0741C230.35 87.0132 230.411 86.9522 230.533 86.8303C230.594 86.7694 230.655 86.7084 230.777 86.6475C230.838 86.6475 230.838 86.5865 230.899 86.5865C230.96 86.5256 231.021 86.5256 231.021 86.5256C231.021 86.5256 231.021 86.5256 230.96 86.5256L230.899 86.5865L230.838 86.6475C230.838 86.6475 230.838 86.6475 230.777 86.6475C230.655 86.7084 230.533 86.7694 230.411 86.8303C230.411 86.8303 230.35 86.8303 230.35 86.8913L230.533 86.5865L231.203 85.4895C232.057 84.0268 232.788 82.4421 233.519 80.8575C234.251 79.2729 234.86 77.6883 235.409 76.1036C235.957 74.519 236.506 72.9953 236.932 71.5326C237.359 70.0699 237.786 68.6681 238.151 67.3273C238.517 65.9864 238.822 64.8284 239.066 63.7314C239.309 62.6343 239.553 61.7201 239.736 60.9278C239.919 60.1355 240.041 59.587 240.163 59.1604C240.224 58.7947 240.285 58.5509 240.285 58.5509L240.346 58.368C240.833 56.1739 242.844 54.7112 245.099 54.8941C247.537 55.1378 249.305 57.3319 249 59.7698C249 59.7698 249 60.0136 248.939 60.5012C248.878 60.9888 248.817 61.6592 248.695 62.5124C248.573 63.3657 248.391 64.4018 248.147 65.6207C247.903 66.7787 247.659 68.1196 247.293 69.5823C246.928 71.045 246.501 72.5687 246.014 74.2143C245.526 75.8599 244.917 77.5664 244.246 79.3338C243.576 81.1013 242.783 82.8688 241.869 84.6972C240.955 86.5256 239.98 88.2931 238.822 90.0605L237.969 91.3404L237.481 92.0108L237.237 92.3156L237.115 92.4984C237.359 92.1327 236.75 92.986 236.811 92.925L236.75 92.986L236.567 93.1688C236.445 93.2907 236.384 93.3517 236.262 93.4736C236.14 93.5345 236.079 93.6564 235.957 93.7174L235.835 93.8393L235.592 93.9611C235.47 94.0221 235.348 94.083 235.226 94.144C235.043 94.2659 234.86 94.3268 234.738 94.3878C234.434 94.5097 234.19 94.6316 233.885 94.7535C233.398 94.9363 232.91 95.1191 232.422 95.302C230.533 95.9724 228.766 96.5209 226.998 97.0085C225.231 97.4961 223.585 97.9836 222 98.3493C220.416 98.776 218.892 99.1416 217.49 99.4464C214.687 100.117 212.371 100.604 210.725 100.909C209.872 101.092 209.262 101.153 208.775 101.275C208.348 101.336 205.118 101.701 205.118 101.701C204.143 101.884 206.093 101.031 205.606 100.117C205.179 99.0807 203.838 98.5931 204.996 98.1055Z" fill="#8F705C"/>
<path opacity="0.05" d="M239.612 77.8711C239.551 75.4332 238.088 73.9095 236.321 73.3001C236.504 72.6906 236.687 72.1421 236.869 71.5326C237.296 70.0699 237.723 68.6681 238.088 67.3273C238.454 65.9864 238.759 64.8284 239.003 63.7314C239.246 62.6343 239.49 61.7201 239.673 60.9278C239.856 60.1355 239.978 59.587 240.1 59.1604C240.161 58.7947 240.222 58.5509 240.222 58.5509L240.283 58.368C240.77 56.1739 242.781 54.7112 245.036 54.8941C247.474 55.1378 249.242 57.3319 248.937 59.7698C248.937 59.7698 248.937 60.0136 248.876 60.5012C248.815 60.9888 248.754 61.6592 248.632 62.5124C248.51 63.3657 248.328 64.4018 248.084 65.6207C247.84 66.7787 247.596 68.1196 247.23 69.5823C246.865 71.045 246.438 72.5687 245.951 74.2143C245.463 75.8599 244.854 77.5664 244.183 79.3338C243.513 81.1013 242.72 82.8688 241.806 84.6972C240.892 86.5256 239.917 88.2931 238.759 90.0605L237.906 91.3404L237.418 92.0108L237.174 92.3156L237.052 92.4984C237.296 92.1327 236.687 92.986 236.748 92.925L236.687 92.986L236.504 93.1688C236.382 93.2907 236.321 93.3517 236.199 93.4736C236.077 93.5345 236.016 93.6564 235.894 93.7174L235.772 93.8392L235.529 93.9611C235.407 94.0221 235.285 94.083 235.163 94.144C234.98 94.2659 234.797 94.3268 234.675 94.3878C234.371 94.5097 234.127 94.6316 233.822 94.7535C233.335 94.9363 232.847 95.1191 232.359 95.302C230.47 95.9724 228.703 96.5209 226.935 97.0085C225.168 97.4961 223.522 97.9836 221.937 98.3493C221.023 98.5931 220.17 98.776 219.378 99.0197C220.901 98.2884 222.425 97.4961 223.949 96.6428C231.445 92.4984 239.917 87.5617 239.612 77.8711Z" fill="black"/>
<path d="M243.272 54.2854C249.793 51.9694 249.61 61.7818 249.549 62.2694C249.184 65.073 246.502 75.6168 246.624 75.373C244.674 75.434 242.662 74.9464 240.834 74.3979C240.042 74.1541 239.067 73.9713 238.335 73.5446C236.507 72.5695 235.958 72.5085 236.019 72.3866C238.213 64.8292 238.945 55.87 243.272 54.2854Z" fill="#B28DE3"/>
<path opacity="0.05" d="M247.415 55.0162C247.415 54.9553 247.354 54.8943 247.354 54.8334C249.61 56.9056 249.488 61.9032 249.488 62.2689C249.122 65.0725 246.44 75.6163 246.562 75.3725C245.465 75.4335 244.429 75.2506 243.332 75.0678C247.294 69.6435 248.512 60.3796 247.415 55.0162Z" fill="black"/>
<path d="M206.947 97.3741L207.679 100.3C207.557 102.616 203.778 103.347 201.889 103.225C199.634 103.103 200.731 104.81 200.731 104.81C200.792 105.419 200.304 105.663 200.304 105.663C198.476 105.48 195.672 104.566 194.575 103.225C193.478 101.884 196.038 99.2635 196.038 99.2635L206.947 97.3741Z" fill="#8F705C"/>
</g>
</svg>
