<svg width="372" height="250" viewBox="0 0 372 250" fill="none" xmlns="http://www.w3.org/2000/svg">
<mask id="mask0" mask-type="alpha" maskUnits="userSpaceOnUse" x="0" y="0" width="372" height="250">
<rect width="372" height="250" fill="white"/>
</mask>
<g mask="url(#mask0)">
<path d="M269.263 245.476C283.857 241.863 297.787 236.304 309.396 228.8C328.191 216.756 335.378 194.985 340.132 176.919C342.454 168.025 344.775 160.428 344.665 150.886C344.554 143.382 345.439 135.6 345.107 128.188C344.112 110.215 333.83 90.4819 317.025 78.9013C296.903 65.1899 287.726 53.3314 283.967 31.8379C281.977 20.4426 278.771 16.5516 267.162 10.0665C257.654 4.69308 247.482 1.26523 236.095 0.338787C224.154 -0.587658 211.219 0.431432 199.942 2.84019C194.635 3.95192 188.443 6.17539 183.026 6.54597C173.297 7.19448 160.803 4.69308 150.964 3.85928C137.918 2.74754 124.982 3.21077 112.378 5.24894C88.2761 9.14001 61.0784 23.4073 48.364 41.195C36.6446 57.5931 45.0472 77.2337 52.123 93.6318C55.4398 101.414 57.4299 107.251 52.123 114.755C44.4944 125.594 36.0918 137.175 30.8955 149.033C20.0607 174.325 33.6595 197.486 49.2485 218.609C56.7666 228.8 65.5008 233.525 76.1146 237.787C91.5929 243.901 108.951 242.048 125.314 242.141C146.541 242.234 167.658 243.994 188.886 244.272C206.023 244.55 221.059 250.757 238.748 249.923C248.699 249.46 259.091 247.885 269.263 245.476Z" fill="#FFEBCC"/>
<path d="M173.113 34.4258H138.012V36.4509H173.113V34.4258Z" fill="#595855"/>
<path d="M164.696 43.6512C164.696 38.476 160.646 34.4258 155.471 34.4258C150.295 34.4258 146.245 38.701 146.245 43.6512V45.9013H164.696V43.6512Z" fill="#FAFCFB"/>
<path d="M146.242 45.9062V64.5822C146.242 69.7574 150.292 73.8076 155.468 73.8076C160.643 73.8076 164.693 69.7574 164.693 64.5822V45.9062H146.242Z" fill="#FAFCFB"/>
<path d="M148.49 49.3936V63.7943C148.49 67.6194 151.64 70.9946 155.691 70.9946C159.516 70.9946 162.891 67.8445 162.891 63.7943V49.3936H148.49Z" fill="#9EC1FF"/>
<path d="M142.33 32.1807H138.055V195.989H142.33V32.1807Z" fill="#595855"/>
<path d="M121.632 199.814C121.632 195.539 125.232 191.938 129.507 191.938H150.883C155.158 191.938 158.759 195.539 158.759 199.814H160.334C160.334 194.638 156.058 190.363 150.883 190.363H129.507C124.332 190.363 120.057 194.638 120.057 199.814H121.632Z" fill="#595855"/>
<path d="M120.732 202.064C122.347 202.064 123.657 200.755 123.657 199.139C123.657 197.524 122.347 196.214 120.732 196.214C119.116 196.214 117.807 197.524 117.807 199.139C117.807 200.755 119.116 202.064 120.732 202.064Z" fill="#595855"/>
<path d="M159.206 202.064C160.822 202.064 162.132 200.755 162.132 199.139C162.132 197.524 160.822 196.214 159.206 196.214C157.591 196.214 156.281 197.524 156.281 199.139C156.281 200.755 157.591 202.064 159.206 202.064Z" fill="#595855"/>
<path d="M155.643 69.9302L144.133 86.2398L144.504 128.497L186.091 115.894" stroke="#9EC1FF" stroke-width="2" stroke-linejoin="round"/>
<rect x="136.267" y="85.6641" width="9.61538" height="3.4965" fill="#848484"/>
<g clip-path="url(#clip0)">
<path d="M100.88 129.89H140.186C143.198 129.89 145.607 127.499 145.607 124.51V114.572C145.607 111.583 143.198 109.192 140.186 109.192H100.955C97.943 109.192 95.5334 111.583 95.5334 114.572V124.51C95.4581 127.499 97.943 129.89 100.88 129.89Z" fill="#F59D4E"/>
<path d="M101.708 127.723H139.358C140.864 127.723 142.068 126.528 142.068 125.033V115.618C142.068 114.124 140.864 112.928 139.358 112.928H101.708C100.202 112.928 98.9972 114.124 98.9972 115.618V125.108C98.9972 126.528 100.202 127.723 101.708 127.723Z" fill="#FFF1CC"/>
<path d="M102.987 125.108H113.153C114.056 125.108 114.885 124.361 114.885 123.389V120.251C114.885 119.354 114.132 118.532 113.153 118.532H102.987C102.084 118.532 101.256 119.279 101.256 120.251V123.389C101.331 124.361 102.084 125.108 102.987 125.108Z" fill="#21AAE1"/>
<path d="M102.536 119.653H113.604V124.062H102.536V119.653Z" fill="#E8F3EA"/>
<path d="M111.421 122.791C110.922 122.791 110.517 122.356 110.517 121.82C110.517 121.284 110.922 120.849 111.421 120.849C111.92 120.849 112.324 121.284 112.324 121.82C112.324 122.356 111.92 122.791 111.421 122.791Z" fill="#5B8CC9"/>
<path d="M109.162 122.791C108.663 122.791 108.258 122.356 108.258 121.82C108.258 121.284 108.663 120.849 109.162 120.849C109.661 120.849 110.065 121.284 110.065 121.82C110.065 122.356 109.661 122.791 109.162 122.791Z" fill="#5B8CC9"/>
<path d="M85.8196 138.035C85.669 141.995 85.4431 145.955 85.2925 149.916C85.2172 152.232 85.0666 154.474 84.916 156.79C84.5395 164.561 84.163 172.332 83.7865 180.103C83.5606 185.259 83.2594 190.49 83.0335 195.645C82.8076 199.531 82.5817 203.491 82.4311 207.377C82.3558 209.917 85.0666 211.412 87.2503 210.216C88.0786 209.768 88.681 209.095 88.8316 208.124C89.3587 204.911 89.8105 201.698 90.3376 198.485C90.94 194.599 91.4671 190.714 92.0695 186.903C92.8977 181.299 93.726 175.695 94.5543 170.091C95.232 165.682 95.9097 161.199 96.5874 156.79C96.9639 154.25 97.1898 151.709 97.8675 149.243C98.244 147.973 98.6958 146.777 99.2982 145.657C100.503 143.564 102.235 142.518 104.644 142.518C114.735 142.518 124.825 142.518 134.915 142.518C139.583 142.518 143.198 145.208 144.553 149.467C145.155 151.335 145.155 153.278 145.381 155.146C146.059 160.377 146.661 165.607 147.339 170.838C148.017 176.442 148.694 181.971 149.372 187.576C149.975 192.731 150.652 197.962 151.255 203.118C151.405 204.612 151.556 206.107 151.782 207.676C152.008 209.394 153.212 210.59 154.794 210.739C156.3 210.814 157.73 209.917 158.182 208.423C158.408 207.526 158.257 206.63 158.257 205.733C158.107 201.847 157.881 197.887 157.73 194.002C157.354 185.633 156.977 177.264 156.526 168.97C156.375 165.533 156.224 162.17 156.074 158.733C155.773 151.56 155.471 144.536 155.095 137.512C155.095 137.288 155.095 136.989 155.095 136.765C154.944 136.391 154.643 136.391 154.342 136.391C153.965 136.391 153.664 136.391 153.288 136.391C131.376 136.391 109.539 136.391 87.6268 136.391C87.5515 136.391 87.4009 136.391 87.3256 136.391C85.8949 136.391 85.8949 136.391 85.8196 137.811C85.8949 137.886 85.8196 137.96 85.8196 138.035Z" fill="#D89C41"/>
<path d="M85.8187 138.035C85.8187 137.96 85.8187 137.96 85.8187 138.035C86.1199 137.586 85.6682 136.914 86.1952 136.69C86.5717 136.54 87.0988 136.615 87.5506 136.615C109.689 136.615 131.902 136.615 154.04 136.615C154.416 136.615 154.793 136.54 155.094 136.765C155.471 136.466 155.998 136.615 156.374 136.615C157.052 136.54 157.654 136.615 158.332 136.54C159.988 136.316 160.44 135.195 160.666 133.85C160.741 133.402 160.741 132.954 160.666 132.505C160.29 130.637 159.461 130.04 157.428 130.04C142.218 130.04 126.932 130.04 111.722 130.04C111.42 130.04 111.044 130.114 110.743 129.965C110.14 129.815 109.613 129.965 109.011 129.965C105.547 129.965 102.008 129.965 98.5443 129.965C98.3184 129.965 98.1678 129.965 97.9419 130.04C93.1981 130.04 88.4542 130.04 83.7104 130.04C82.5056 130.04 81.3008 130.189 80.7737 131.534C80.1713 133.028 80.1713 134.523 81.2255 135.868C81.7526 136.54 82.5809 136.615 83.4092 136.69C83.9363 136.765 84.5387 136.765 85.0658 136.69C85.6682 136.615 85.9693 136.839 85.8941 137.437C85.7435 137.586 85.8187 137.811 85.8187 138.035Z" fill="#E0DBD1"/>
<path d="M143.8 105.381L135.291 100.524H104.343V109.64H135.291L143.8 105.381Z" fill="#72CDF0"/>
</g>
<path d="M174.231 149.217C174.161 149.847 173.952 151.245 173.672 153.133C172.693 159.846 170.595 173.132 168.707 183.411C166.609 194.6 162.274 207.746 160.386 213.06L156.33 212.71L149.198 212.081L148.568 212.011C148.638 207.676 148.918 198.166 149.338 187.817C149.477 185.02 149.547 182.223 149.757 179.426C157.799 167.958 165.491 156.979 167.798 153.693C169.337 151.455 171.434 150.056 174.231 149.217Z" fill="#1C265E"/>
<path d="M174.23 149.217C174.16 149.847 173.95 151.245 173.67 153.133C173.53 153.343 173.391 153.483 173.251 153.693C170.943 157.049 163.251 167.958 155.21 179.425C153.252 182.223 151.294 185.09 149.336 187.817C149.476 185.02 149.546 182.223 149.756 179.425C157.797 167.958 165.489 156.979 167.797 153.693C169.335 151.455 171.433 150.056 174.23 149.217Z" fill="#1C265E"/>
<path d="M157.448 219.773L155.98 224.459L142.834 223.34C142.834 223.34 142.484 219.983 144.302 219.494C145.281 219.214 149.547 219.074 149.547 219.074L157.448 219.773Z" fill="#344AA4"/>
<path d="M159.546 213.06L157.449 219.773L149.617 219.074L149.197 212.081L156.33 212.71L159.546 213.06Z" fill="#994F3B"/>
<path d="M123.95 216.836L121.223 221.451L108.077 220.332C108.077 220.332 108.567 217.046 110.595 216.556C111.643 216.346 116.119 216.207 116.119 216.207L123.95 216.836Z" fill="#344AA4"/>
<path d="M127.866 210.333L123.95 216.836L116.118 216.137L117.587 209.214L127.866 210.333Z" fill="#994F3B"/>
<path d="M242.126 145.861C237.441 152.434 229.819 151.315 211.288 150.126C211.148 150.126 211.009 150.126 210.799 150.126C210.169 150.056 209.47 150.056 208.841 149.986C201.569 149.427 195.415 148.798 190.24 148.518C184.157 148.098 179.332 148.098 175.626 148.868C175.136 148.938 174.717 149.077 174.297 149.217C171.5 150.056 169.332 151.455 167.794 153.692C165.486 157.049 157.795 167.957 149.753 179.425C140.313 192.921 130.383 207.046 128.146 210.263L114.58 209.074C117.307 201.802 140.663 139.637 152.76 133.554C154.438 132.715 156.606 131.945 159.123 131.246C159.473 131.106 159.892 131.036 160.242 130.966C160.801 130.827 161.431 130.687 162.06 130.547C176.325 127.19 198.072 125.722 206.603 125.302C207.093 125.302 207.512 125.232 207.862 125.232C209.33 125.163 210.169 125.093 210.169 125.093V124.883C210.379 124.883 210.519 124.953 210.729 124.953C210.869 124.953 211.009 125.023 211.148 125.023C211.288 125.023 211.498 125.093 211.638 125.093C211.778 125.093 211.988 125.163 212.127 125.232C212.267 125.232 212.407 125.302 212.547 125.302C212.617 125.302 212.617 125.302 212.687 125.302C212.757 125.302 212.897 125.372 212.967 125.372C213.036 125.372 213.106 125.372 213.106 125.442C213.246 125.442 213.386 125.512 213.526 125.582C213.666 125.652 213.876 125.652 214.015 125.722C214.155 125.792 214.295 125.792 214.505 125.862C214.505 125.862 214.505 125.862 214.575 125.862C214.715 125.932 214.855 125.932 214.994 126.002C215.274 126.072 215.624 126.211 215.903 126.281C216.043 126.351 216.183 126.351 216.393 126.421C216.533 126.491 216.673 126.491 216.882 126.561C217.092 126.631 217.162 126.701 217.302 126.701C217.442 126.771 217.582 126.841 217.722 126.841C217.861 126.911 218.001 126.981 218.141 126.981C218.281 127.051 218.421 127.12 218.561 127.12C218.701 127.19 218.91 127.26 219.05 127.33C219.19 127.4 219.26 127.4 219.4 127.47H219.47C219.61 127.54 219.749 127.61 219.889 127.61C220.169 127.75 220.449 127.89 220.728 127.96C220.868 128.03 221.008 128.099 221.218 128.169C221.358 128.239 221.498 128.309 221.637 128.379C221.777 128.449 221.917 128.519 222.057 128.589C222.197 128.659 222.337 128.729 222.477 128.799C222.616 128.869 222.686 128.939 222.826 129.008C223.176 129.218 223.595 129.428 223.945 129.638C224.015 129.708 224.155 129.708 224.225 129.778C224.225 129.778 224.295 129.778 224.295 129.848C224.365 129.918 224.504 129.918 224.574 129.987C224.714 130.057 224.854 130.127 224.994 130.197C225.134 130.267 225.204 130.337 225.344 130.407C225.553 130.547 225.833 130.687 226.043 130.827C226.113 130.896 226.183 130.896 226.253 130.966C226.462 131.106 226.672 131.246 226.882 131.386C227.022 131.456 227.162 131.526 227.301 131.666C227.721 131.945 228.071 132.155 228.42 132.435C228.56 132.505 228.63 132.575 228.7 132.645C228.91 132.785 229.12 132.924 229.329 133.134C229.399 133.204 229.469 133.274 229.539 133.344C229.679 133.484 229.889 133.624 230.029 133.763C230.099 133.833 230.168 133.903 230.308 133.973C230.378 134.043 230.448 134.113 230.588 134.183C230.728 134.323 230.938 134.463 231.077 134.603C231.147 134.673 231.217 134.742 231.287 134.812C231.357 134.882 231.427 134.952 231.497 135.022C231.707 135.162 231.917 135.372 232.056 135.512C232.126 135.582 232.266 135.651 232.336 135.791C232.616 136.001 232.826 136.211 233.105 136.421C233.175 136.491 233.245 136.561 233.315 136.63C233.525 136.84 233.735 137.05 233.944 137.19C234.084 137.33 234.224 137.47 234.364 137.609C234.434 137.679 234.434 137.679 234.504 137.749C234.574 137.819 234.644 137.889 234.714 137.959C235.413 138.588 236.042 139.288 236.672 139.917C236.742 139.987 236.811 140.057 236.811 140.127C237.091 140.406 237.371 140.756 237.651 141.036C237.721 141.176 237.86 141.246 237.93 141.385C238.14 141.595 238.35 141.805 238.56 142.085C238.63 142.155 238.63 142.225 238.699 142.225C238.839 142.364 238.909 142.504 239.049 142.644C239.539 143.204 240.028 143.763 240.378 144.252C240.448 144.322 240.518 144.392 240.587 144.532C240.727 144.672 240.867 144.882 240.937 145.022C241.007 145.092 241.077 145.231 241.147 145.301C241.776 145.371 241.986 145.651 242.126 145.861Z" fill="#1C265E"/>
<path d="M224.574 130.057C220.728 129.708 191.079 127.12 174.507 128.729C168.703 129.288 163.738 130.197 160.172 130.966C160.661 130.757 161.291 130.547 162.06 130.477C176.325 127.12 198.072 125.652 206.603 125.232C207.093 125.232 207.512 125.163 207.862 125.163C209.33 124.953 210.169 124.883 210.169 124.883C215.693 125.722 220.448 127.68 224.574 130.057Z" fill="#1C265E"/>
<path d="M159.683 123.204C159.683 123.204 148.774 129.148 146.886 132.854C144.998 136.56 145.837 140.826 145.837 140.826C145.837 140.826 150.243 135.511 152.34 134.322C153.879 133.413 159.123 131.385 159.123 131.385L159.683 123.204Z" fill="#994F3B"/>
<path d="M250.969 94.1159C250.27 104.045 248.941 115.583 247.682 124.814C247.403 126.772 247.123 128.59 246.843 130.338C245.934 136.212 245.095 140.407 244.675 141.526V141.596C244.675 141.666 244.675 141.666 244.606 141.736C243.906 143.344 243.207 144.743 242.438 145.861C242.298 145.652 242.088 145.372 241.808 145.022C241.739 144.952 241.669 144.813 241.599 144.743C241.459 144.603 241.389 144.463 241.249 144.253C241.179 144.183 241.109 144.113 241.039 143.973C240.62 143.484 240.2 142.925 239.711 142.365C239.571 142.225 239.501 142.085 239.361 141.946C239.291 141.876 239.291 141.806 239.221 141.806C239.011 141.596 238.802 141.386 238.592 141.106C238.522 140.967 238.382 140.897 238.312 140.757C238.032 140.477 237.753 140.197 237.473 139.848C237.403 139.778 237.333 139.708 237.333 139.638C236.704 139.009 236.075 138.379 235.375 137.68C235.305 137.61 235.235 137.54 235.165 137.47C235.096 137.4 235.096 137.4 235.026 137.33C234.886 137.191 234.746 137.051 234.606 136.911C234.396 136.701 234.186 136.491 233.977 136.351C233.907 136.282 233.837 136.212 233.767 136.142C233.557 135.932 233.277 135.722 232.998 135.512C232.928 135.442 232.788 135.372 232.718 135.233C232.508 135.093 232.368 134.883 232.159 134.743C232.089 134.673 232.019 134.603 231.949 134.533C231.879 134.463 231.809 134.394 231.739 134.324C231.599 134.184 231.389 134.044 231.25 133.904C231.18 133.834 231.11 133.764 230.97 133.694C230.9 133.624 230.83 133.554 230.69 133.484C230.55 133.345 230.341 133.205 230.201 133.065C230.131 132.995 230.061 132.925 229.991 132.855C229.781 132.715 229.571 132.575 229.362 132.366C229.292 132.296 229.152 132.226 229.082 132.156C228.732 131.876 228.313 131.666 227.963 131.387C227.823 131.317 227.683 131.247 227.543 131.107C227.334 130.967 227.124 130.827 226.914 130.687C226.844 130.617 226.774 130.617 226.704 130.548C226.495 130.408 226.215 130.268 226.005 130.128C225.865 130.058 225.795 129.988 225.655 129.918C225.516 129.848 225.376 129.778 225.236 129.708C225.236 129.708 225.236 129.708 225.166 129.708C225.096 129.639 225.026 129.639 224.956 129.569C224.956 129.569 224.886 129.569 224.886 129.499C224.816 129.429 224.746 129.429 224.607 129.359C224.257 129.149 223.907 128.939 223.488 128.729C223.348 128.66 223.278 128.59 223.138 128.52C222.998 128.45 222.858 128.38 222.719 128.31C222.579 128.24 222.439 128.17 222.299 128.1C222.159 128.03 222.019 127.96 221.879 127.89C221.74 127.82 221.6 127.75 221.39 127.681C221.11 127.541 220.831 127.401 220.551 127.331C220.411 127.261 220.271 127.191 220.131 127.191H220.061C219.922 127.121 219.852 127.121 219.712 127.051C219.572 126.981 219.362 126.911 219.222 126.841C219.082 126.772 218.943 126.702 218.803 126.702C218.663 126.632 218.523 126.562 218.383 126.562C218.243 126.492 218.103 126.422 217.964 126.422C217.824 126.352 217.684 126.282 217.544 126.282C217.404 126.282 217.264 126.142 217.055 126.142C216.915 126.072 216.775 126.072 216.565 126.002C216.285 125.932 215.936 125.793 215.656 125.723C215.516 125.653 215.376 125.653 215.236 125.583C215.236 125.583 215.236 125.583 215.167 125.583C215.027 125.513 214.887 125.513 214.677 125.443C214.537 125.373 214.327 125.373 214.188 125.303C214.048 125.233 213.908 125.233 213.768 125.163C213.698 125.163 213.628 125.163 213.628 125.093C213.558 125.093 213.418 125.023 213.348 125.023C213.278 125.023 213.278 125.023 213.209 125.023C213.069 125.023 212.929 124.953 212.789 124.953C212.649 124.884 212.439 124.884 212.3 124.814C212.16 124.814 211.95 124.744 211.81 124.744C211.67 124.744 211.53 124.674 211.39 124.674C211.181 124.674 211.041 124.604 210.831 124.604C210.831 124.604 209.992 124.674 208.523 124.884C208.104 124.884 207.684 124.953 207.265 124.953C198.734 125.443 176.987 126.841 162.722 130.198C161.953 130.268 161.393 130.478 160.904 130.617C160.834 130.617 160.834 130.617 160.764 130.687C160.274 130.897 159.925 131.107 159.715 131.107V130.967V130.897L159.785 129.708L160.204 122.926C160.204 122.926 185.028 114.325 205.866 107.402C208.943 106.353 222.089 70.4808 226.774 68.5228C226.984 68.4529 227.194 68.4529 227.334 68.4529C227.404 68.4529 227.474 68.383 227.613 68.383C227.893 68.313 228.173 68.2431 228.453 68.2431C229.501 68.2431 235.305 68.1033 240.62 68.9424C240.969 69.0123 241.389 69.0822 241.739 69.1522C241.948 69.2221 242.578 70.0612 242.787 70.1311C243.557 71.2499 246.214 75.0959 248.382 80.8998C248.801 82.0186 249.221 83.2773 249.57 84.536C250.27 87.6827 250.899 90.8294 250.969 94.1159Z" fill="#DA4949"/>
<path d="M243.277 71.1104L227.613 74.8864L226.215 68.1035H227.194L240.969 68.1734H241.179L243.277 71.1104Z" fill="white"/>
<path d="M210.623 124.744C210.623 124.744 219.084 122.436 221.881 119.849C225.308 116.562 234.748 95.8643 234.748 95.8643C234.748 95.8643 228.594 130.827 225.308 130.058C222.091 129.289 210.623 124.744 210.623 124.744Z" fill="#BF2828"/>
<path d="M240.657 68.2421L226.882 68.1722L223.525 62.0886C226.602 59.9908 229.189 58.3825 230.658 57.6133C233.245 56.2847 234.364 56.6343 234.364 56.6343L240.657 68.2421Z" fill="#994F3B"/>
<path d="M226.253 53.4178V53.4877C225.833 54.8862 225.414 55.8652 225.134 56.0051C224.295 56.1449 214.365 55.5156 214.365 55.5156L216.883 45.3762C217.232 43.5582 218.281 42.5093 219.47 41.8799C222.127 40.6212 225.833 41.6002 226.742 42.789C228.141 44.6071 227.232 50.1312 226.253 53.4178Z" fill="#994F3B"/>
<path d="M236.881 47.1944V47.2643C236.251 51.9494 234.363 56.7044 234.363 56.7044C234.293 56.7044 233.244 56.3547 230.657 57.6833C230.587 57.6833 230.587 57.7533 230.517 57.7533C230.377 57.8232 230.238 57.8931 230.028 58.033C229.958 58.033 229.888 58.1029 229.888 58.1029C229.748 58.1728 229.538 58.3127 229.329 58.3826C229.049 58.5924 228.699 58.8022 228.35 59.0119C228 59.2217 227.65 59.5014 227.231 59.7112C227.091 59.7811 226.881 59.921 226.741 59.9909C226.462 60.1308 226.252 60.3405 225.972 60.4804C225.203 60.9699 224.364 61.5293 223.525 62.1586V62.0887C223.525 62.0887 216.812 66.1444 213.805 64.3963C210.798 62.6481 214.364 55.5156 214.364 55.5156C214.364 55.5156 224.294 56.145 225.133 56.0051C225.413 55.8652 225.832 54.8863 226.252 53.4877V53.4178C227.231 50.1313 228.14 44.6071 226.741 42.789C225.832 41.6003 222.126 40.6213 219.469 41.88V41.81C219.469 41.81 222.476 39.5724 230.238 40.7611C236.881 41.88 236.951 45.656 236.881 47.1944Z" fill="#B2BCC9"/>
<path d="M224.226 48.8726C224.016 47.6139 222.897 46.635 221.638 46.635C220.38 46.635 219.261 47.544 219.051 48.7328H218.002C217.792 47.4741 216.814 46.4951 215.555 46.4951C214.226 46.4951 213.107 47.6839 213.107 49.1523C213.107 50.6208 214.226 51.8095 215.555 51.8095C216.814 51.8095 217.792 50.8306 218.002 49.5719H218.981C219.121 50.9005 220.24 51.9494 221.638 51.9494C222.967 51.9494 224.086 50.9704 224.226 49.7117H227.233V48.8726H224.226ZM215.555 50.9704C214.646 50.9704 213.947 50.1313 213.947 49.1523C213.947 48.1734 214.716 47.3342 215.555 47.3342C216.464 47.3342 217.163 48.1734 217.163 49.1523C217.233 50.1313 216.464 50.9704 215.555 50.9704ZM221.638 51.1103C220.659 51.1103 219.82 50.2711 219.82 49.2922C219.82 48.3132 220.659 47.4741 221.638 47.4741C222.617 47.4741 223.457 48.3132 223.457 49.2922C223.457 50.2711 222.617 51.1103 221.638 51.1103Z" fill="white"/>
<path d="M283.484 214.945C272.435 220.05 259.429 223.966 245.234 226.483L237.472 158.445L240.549 158.654C247.891 158.654 255.723 148.515 256.982 141.173L266.422 87.609C266.492 87.3293 266.492 87.1195 266.492 86.8398C266.492 86.7 266.492 86.5601 266.492 86.4203C266.492 86.3504 266.492 86.2804 266.492 86.2105C266.492 86.1406 266.492 86.0707 266.492 86.0707C266.492 86.0707 266.492 86.0707 266.492 86.0007V85.9308C266.492 85.8609 266.492 85.8609 266.492 85.7909C266.492 85.721 266.492 85.6511 266.492 85.5812C266.492 85.5112 266.492 85.5112 266.492 85.4413C266.492 85.4413 266.492 85.4413 266.492 85.3714C266.492 85.3015 266.492 85.3015 266.492 85.2315C266.492 85.0218 266.422 84.8819 266.352 84.6721C266.352 84.6022 266.352 84.6022 266.282 84.5323C266.282 84.4623 266.212 84.3924 266.212 84.3225C266.142 84.1826 266.072 84.0428 266.072 83.9029C266.072 83.833 266.072 83.833 266.002 83.7631C265.792 83.2736 265.443 82.854 265.093 82.5044C265.023 82.4345 265.023 82.4345 264.953 82.3646C264.883 82.2946 264.883 82.2946 264.813 82.2247C264.743 82.1548 264.743 82.1548 264.674 82.0848C264.604 82.0149 264.604 82.0149 264.534 81.945C264.464 81.8751 264.394 81.8751 264.394 81.8051C264.324 81.7352 264.254 81.7352 264.254 81.6653C264.184 81.6653 264.114 81.5954 264.114 81.5954C264.044 81.5254 263.974 81.5254 263.904 81.5254C263.765 81.4555 263.625 81.3856 263.485 81.3157C263.345 81.2457 263.275 81.2457 263.135 81.1758C262.506 80.966 261.807 80.8262 261.037 80.8262H248.101C248.521 81.945 248.94 83.2037 249.29 84.4623C250.129 87.3993 250.758 90.5459 250.828 93.8325C250.129 103.762 248.8 115.3 247.542 124.53C247.402 125.579 247.262 126.558 247.122 127.537L244.745 127.397L221.739 125.859C219.921 125.719 217.963 125.719 216.075 125.859C211.529 126.278 206.914 127.607 202.579 129.775C200.201 130.963 197.894 132.362 195.656 134.04C190.621 137.816 186.566 142.641 183.909 147.956C180.762 147.956 178.035 148.095 175.797 148.585C175.378 149.634 175.168 151.032 175.168 151.871C175.168 153.27 176.077 154.459 177.126 154.459L181.531 154.738L167.686 226.763C152.791 224.245 139.226 220.259 127.758 214.875L124.541 221.868C135.17 226.763 147.477 230.678 161.182 233.336C175.308 236.133 190.272 237.531 205.656 237.531C221.109 237.531 236.074 236.133 250.129 233.336C263.834 230.678 276.141 226.763 286.77 221.868L283.484 214.945ZM216.494 131.523C218.103 131.383 219.641 131.383 221.179 131.523L244.255 132.991L246.213 133.131C245.514 137.397 244.884 140.403 244.535 141.382V141.452C244.535 141.522 244.535 141.522 244.465 141.592C243.766 143.201 243.066 144.599 242.297 145.718C237.612 152.291 229.99 151.172 211.46 149.983C211.32 149.983 211.18 149.983 210.97 149.983C210.341 149.913 209.641 149.913 209.012 149.844C201.74 149.284 195.586 148.655 190.412 148.375C190.342 148.375 190.272 148.375 190.202 148.375C195.586 139.215 205.935 132.432 216.494 131.523ZM188.174 155.228L230.06 157.955L232.228 176.835H184.048L188.174 155.228ZM205.586 229.839C194.817 229.839 184.328 229.14 174.259 227.742L183.209 180.891H232.647L237.962 227.602C227.682 229.14 216.774 229.839 205.586 229.839Z" fill="white"/>
</g>
<defs>
<clipPath id="clip0">
<rect width="80.4196" height="110.14" transform="matrix(-1 0 0 1 160.742 100.524)" fill="white"/>
</clipPath>
</defs>
</svg>
