<svg width="367" height="152" viewBox="0 0 367 152" fill="none" xmlns="http://www.w3.org/2000/svg">
<mask id="mask0" mask-type="alpha" maskUnits="userSpaceOnUse" x="0" y="0" width="367" height="152">
<rect width="367" height="152" fill="#C4C4C4"/>
</mask>
<g mask="url(#mask0)">
<path d="M158.508 45.4635C158.508 45.4635 158.583 45.4936 158.704 45.5238C158.734 45.5388 158.764 45.5388 158.794 45.5539C158.839 45.5689 158.884 45.584 158.93 45.599C159.035 45.6292 159.14 45.6593 159.276 45.7044C159.547 45.7797 159.863 45.8851 160.255 45.9905C160.631 46.0959 161.083 46.2013 161.564 46.3218C161.805 46.382 162.061 46.4422 162.332 46.5024C162.603 46.5627 162.874 46.6229 163.16 46.6831C163.447 46.7433 163.733 46.8036 164.034 46.8638C164.335 46.924 164.636 46.9692 164.952 47.0294C165.569 47.1499 166.232 47.2402 166.894 47.3456C167.557 47.451 168.234 47.5263 168.912 47.6317C169.59 47.707 170.282 47.7822 170.945 47.8575C171.622 47.9178 172.285 47.9629 172.917 48.0231C173.564 48.0533 174.182 48.0984 174.769 48.1285C175.07 48.1436 175.356 48.1587 175.627 48.1587C175.913 48.1737 176.169 48.1737 176.44 48.1888C176.952 48.2038 177.434 48.2189 177.856 48.2189C178.277 48.2189 178.639 48.2189 178.94 48.2189C179.542 48.2189 179.888 48.2189 179.888 48.2189H179.979C181.71 48.2189 183.11 49.6342 183.11 51.3657C183.11 53.0219 181.815 54.377 180.189 54.4975C180.189 54.4975 179.813 54.5276 179.166 54.5727C178.834 54.6029 178.443 54.6179 177.991 54.6631C177.539 54.7083 177.028 54.7233 176.47 54.7384C176.184 54.7534 175.898 54.7685 175.597 54.7685C175.296 54.7835 174.98 54.7986 174.664 54.7986C174.016 54.8137 173.354 54.8137 172.646 54.8287C171.953 54.8287 171.231 54.8136 170.493 54.8136C169.755 54.7835 169.017 54.7685 168.265 54.7384C167.512 54.6932 166.774 54.648 166.036 54.6029C165.298 54.5426 164.576 54.4824 163.868 54.4071C163.522 54.3619 163.175 54.3318 162.829 54.3017C162.483 54.2566 162.152 54.2114 161.835 54.1662C161.519 54.121 161.203 54.0759 160.887 54.0307C160.586 53.9855 160.285 53.9404 159.999 53.8952C159.426 53.7898 158.914 53.7145 158.448 53.6242C157.981 53.5338 157.574 53.4435 157.228 53.3682C157.063 53.3231 156.897 53.2929 156.761 53.2628C156.686 53.2478 156.626 53.2327 156.566 53.2177C156.505 53.2026 156.445 53.1875 156.385 53.1725C156.189 53.1273 156.084 53.0972 156.084 53.0972C153.946 52.5401 152.666 50.3569 153.223 48.2189C153.78 46.0809 155.963 44.801 158.101 45.3581C158.192 45.3882 158.282 45.4033 158.372 45.4334L158.508 45.4635Z" fill="#C7D7E2"/>
<path d="M158.098 52.4649C158.098 52.4649 158.174 52.4799 158.324 52.5251C158.445 52.5552 158.686 52.6004 158.972 52.6756C159.258 52.7359 159.619 52.8112 160.041 52.8864C160.447 52.9768 160.929 53.0521 161.441 53.1424C161.953 53.2327 162.525 53.3231 163.127 53.4134C163.428 53.4586 163.73 53.5038 164.046 53.5489C164.362 53.5941 164.678 53.6393 165.009 53.6844C165.672 53.7748 166.349 53.8501 167.042 53.9404C167.735 54.0307 168.442 54.091 169.15 54.1662C169.858 54.2265 170.565 54.2867 171.273 54.3469C171.98 54.3921 172.658 54.4373 173.336 54.4824C173.998 54.5125 174.646 54.5427 175.263 54.5728C175.88 54.6029 176.452 54.6179 176.994 54.633C177.536 54.6481 178.018 54.6631 178.455 54.6631C178.891 54.6631 179.268 54.6782 179.584 54.6782C180.216 54.6782 180.563 54.6932 180.563 54.6932H180.623C182.204 54.7083 183.454 56.0031 183.439 57.569C183.423 59.0446 182.279 60.2491 180.834 60.3846C180.834 60.3846 180.457 60.4147 179.81 60.475C179.479 60.5051 179.087 60.5352 178.635 60.5803C178.184 60.6255 177.672 60.6556 177.1 60.6857C176.543 60.7159 175.925 60.7761 175.278 60.8062C174.63 60.8363 173.953 60.8664 173.245 60.8965C172.538 60.9116 171.815 60.9417 171.077 60.9568C170.339 60.9718 169.587 60.9718 168.834 60.9869C168.081 60.9869 167.328 60.9869 166.575 60.9718C165.837 60.9568 165.1 60.9417 164.392 60.9116C164.031 60.8965 163.684 60.8815 163.353 60.8664C163.007 60.8514 162.676 60.8363 162.344 60.8213C161.697 60.7911 161.08 60.746 160.507 60.7008C159.935 60.6556 159.408 60.6105 158.942 60.5653C158.475 60.5201 158.053 60.475 157.722 60.4448C157.376 60.3997 157.12 60.3696 156.894 60.3394C156.698 60.3093 156.608 60.2943 156.608 60.2943C154.425 59.9931 152.904 57.9756 153.205 55.7924C153.506 53.6092 155.524 52.0884 157.707 52.3896C157.842 52.4046 157.963 52.4347 158.083 52.4649H158.098Z" fill="#38648C"/>
<path d="M154.351 48.9116C154.366 48.9116 154.366 48.9116 154.381 48.9267C154.396 48.9267 154.426 48.9417 154.456 48.9417C154.471 48.9417 154.487 48.9417 154.502 48.9568C154.517 48.9568 154.517 48.9568 154.532 48.9718C154.577 48.9869 154.637 49.002 154.697 49.017C154.727 49.0321 154.758 49.0321 154.788 49.0471C154.818 49.0622 154.848 49.0622 154.878 49.0772C155.149 49.1826 155.51 49.3181 155.917 49.5139C156.76 49.8903 157.859 50.4624 159.169 51.2604C159.5 51.4562 159.832 51.682 160.178 51.9079C160.524 52.1337 160.886 52.3897 161.247 52.6457C161.97 53.1726 162.722 53.7749 163.49 54.4374C164.258 55.1149 165.041 55.8527 165.794 56.6657C166.562 57.4788 167.3 58.3822 168.022 59.3458C169.453 61.2881 170.717 63.5315 171.681 65.9556C172.163 67.1602 172.584 68.4249 172.931 69.7047C173.277 70.9845 173.533 72.2945 173.744 73.6345C173.94 74.9595 174.09 76.2995 174.165 77.6546C174.196 77.9858 174.196 78.3321 174.211 78.6634L174.226 78.9194L174.241 79.1753L174.271 79.6421C174.301 80.2744 174.331 80.9068 174.376 81.5543C174.406 82.2017 174.436 82.8642 174.467 83.5116C174.497 84.159 174.512 84.8065 174.542 85.469C174.602 86.7789 174.632 88.0888 174.677 89.3987C174.753 92.0186 174.828 94.6233 174.873 97.198C174.918 99.7727 174.963 102.302 174.994 104.741C175.054 109.635 175.114 114.197 175.174 118.112C175.204 120.069 175.234 121.861 175.265 123.457C175.295 125.053 175.34 126.438 175.355 127.582C175.385 128.726 175.415 129.63 175.43 130.247C175.46 130.88 175.46 131.211 175.46 131.211L169.061 130.819C169.061 130.819 169.106 130.503 169.197 129.916C169.287 129.314 169.408 128.44 169.528 127.326C169.588 126.769 169.664 126.137 169.724 125.459C169.784 124.782 169.859 124.044 169.935 123.261C169.995 122.478 170.07 121.635 170.13 120.762C170.19 119.873 170.251 118.955 170.311 117.991C170.416 116.064 170.507 113.956 170.567 111.743C170.627 109.529 170.657 107.181 170.627 104.756C170.612 102.332 170.552 99.8329 170.446 97.3034C170.341 94.7739 170.175 92.1992 169.965 89.6246C169.919 88.9771 169.859 88.3448 169.799 87.6973C169.739 87.065 169.679 86.4175 169.603 85.7851C169.528 85.1528 169.468 84.5204 169.393 83.888C169.317 83.2556 169.242 82.6383 169.167 82.006C169.076 81.3736 169.001 80.7412 168.911 80.1239L168.85 79.6571L168.835 79.5367C168.835 79.5216 168.835 79.5517 168.835 79.5216V79.4915L168.82 79.4313L168.775 79.2205C168.715 78.9344 168.655 78.6483 168.595 78.3623C168.339 77.233 168.022 76.1339 167.646 75.095C167.27 74.0561 166.833 73.0774 166.336 72.174C165.839 71.2706 165.297 70.4425 164.725 69.6897C164.153 68.9368 163.536 68.2744 162.903 67.6872C162.286 67.0999 161.623 66.6031 160.976 66.1815C160.66 65.9707 160.328 65.775 160.012 65.6094C159.696 65.4287 159.38 65.2781 159.064 65.1275C158.431 64.8565 157.829 64.6307 157.242 64.4651C156.655 64.2994 156.113 64.179 155.616 64.1187C155.36 64.0886 155.119 64.0585 154.893 64.0284C154.667 64.0134 154.441 63.9983 154.246 63.9983C153.839 63.9832 153.478 64.0134 153.177 64.0435C152.875 64.0736 152.635 64.1187 152.469 64.179C152.288 64.2241 152.183 64.2844 152.153 64.3295L152.138 64.3446V64.3597C152.138 64.3747 152.153 64.3747 152.153 64.3898C152.168 64.3898 152.168 64.3898 152.183 64.4048C152.198 64.4048 152.213 64.4199 152.228 64.4199C152.243 64.4199 152.243 64.4199 152.228 64.4199L154.351 48.9116Z" fill="#38648C"/>
<path d="M128.335 20.0331L128.515 19.8675C128.591 19.8072 128.651 19.732 128.726 19.6717C128.801 19.6115 128.862 19.5362 128.937 19.4609C129.012 19.3857 129.072 19.3254 129.148 19.2501C129.223 19.1749 129.283 19.0996 129.343 19.0243C129.419 18.949 129.479 18.8737 129.539 18.7984C129.599 18.7232 129.675 18.6479 129.735 18.5575L129.931 18.3166C130.051 18.151 130.171 17.9854 130.292 17.8198L130.473 17.5638L130.638 17.3078C130.698 17.2175 130.744 17.1272 130.804 17.0368L130.954 16.7658C131.015 16.6755 131.045 16.5851 131.105 16.4948L131.256 16.2238L131.421 15.9076L131.587 15.7871C131.707 15.6968 131.843 15.6065 131.978 15.5011C132.114 15.4107 132.234 15.3204 132.37 15.23C132.626 15.0494 132.897 14.8687 133.153 14.688C133.68 14.3417 134.222 13.9954 134.764 13.6491L134.899 13.5588C135.23 13.4082 135.562 13.2576 135.908 13.1071C136.239 12.9565 136.586 12.821 136.932 12.6855C137.097 12.6102 137.278 12.55 137.444 12.4747L137.956 12.279C138.302 12.1585 138.648 12.023 139.01 11.9176C139.175 11.8724 139.341 11.9628 139.401 12.1284C139.446 12.2488 139.401 12.3843 139.296 12.4596C139.01 12.6855 138.709 12.9113 138.407 13.1221L137.956 13.4383C137.805 13.5437 137.655 13.6491 137.504 13.7545C137.203 13.9653 136.887 14.161 136.586 14.3568C136.269 14.5525 135.968 14.7482 135.652 14.944L135.788 14.8536C135.351 15.3204 134.914 15.7871 134.478 16.2388C134.252 16.4647 134.026 16.6905 133.8 16.9164C133.68 17.0218 133.574 17.1422 133.454 17.2476C133.333 17.353 133.228 17.4735 133.108 17.5789L133.439 17.1422L133.288 17.4885C133.243 17.609 133.198 17.7294 133.138 17.8348L132.972 18.1811C132.912 18.3016 132.867 18.407 132.791 18.5274L132.611 18.8587C132.55 18.9641 132.475 19.0845 132.415 19.1899C132.355 19.2953 132.279 19.4158 132.204 19.5061L131.978 19.8223L131.737 20.1234C131.662 20.2288 131.572 20.3192 131.481 20.4246C131.316 20.6203 131.12 20.801 130.924 20.9816C130.729 21.1623 130.518 21.3279 130.307 21.4936C130.202 21.5689 130.081 21.6441 129.961 21.7194C129.84 21.7947 129.72 21.87 129.569 21.9453C129.027 22.2163 128.35 22.0055 128.079 21.4484C127.853 20.9967 127.958 20.4547 128.32 20.1385L128.335 20.0331Z" fill="#F4B6BB"/>
<path d="M127.249 19.6868L117.778 32.515L101.743 35.1499C101.487 35.1951 101.216 35.2553 100.96 35.3456C98.4156 36.2038 97.0454 38.9742 97.9187 41.5188C98.7769 44.0634 101.547 45.8852 104.092 45.027C104.092 45.027 121.783 40.2992 122.13 39.6518L130.908 22.0206C131.42 21.0871 127.957 18.7232 127.249 19.6868Z" fill="white"/>
<path d="M118.156 55.0697C118.156 37.1223 131.616 15.8173 142.698 11.3455C144.354 10.4571 146.357 9.68925 148.766 9.04182C158.793 6.39187 170.568 8.59012 174.889 18.0306C179.21 27.456 178.532 42.4071 169.107 46.7284C167.466 47.4812 165.629 47.8727 163.687 47.9781C161.534 48.0835 159.817 49.83 159.862 51.9982C159.892 53.1425 159.892 54.1814 159.892 55.0848C159.892 56.9367 159.652 59.3458 159.2 62.0861C158.959 63.5465 159.576 65.0221 160.781 65.8954C168.836 71.7825 171.531 82.8792 166.668 91.9131C161.353 101.805 148.299 105.434 137.97 101.007C136.449 100.36 135.109 99.5769 133.95 98.7036C124.886 93.7199 118.156 75.7424 118.156 55.0697Z" fill="#F27788"/>
<path d="M224.484 53.0973C224.484 53.0973 224.378 53.1274 224.182 53.1726C224.122 53.1876 224.062 53.2027 224.002 53.2177C223.941 53.2328 223.881 53.2478 223.806 53.2629C223.67 53.293 223.52 53.3231 223.339 53.3683C223.008 53.4436 222.586 53.5339 222.12 53.6242C221.653 53.7146 221.141 53.8049 220.569 53.8953C220.283 53.9404 219.997 53.9856 219.68 54.0308C219.379 54.0759 219.063 54.1211 218.732 54.1663C218.416 54.2114 218.084 54.2566 217.738 54.3018C217.407 54.3319 217.061 54.3771 216.699 54.4072C215.992 54.4825 215.269 54.5427 214.531 54.6029C213.793 54.6631 213.041 54.6933 212.303 54.7384C211.55 54.7685 210.812 54.7836 210.074 54.8137C209.337 54.8137 208.614 54.8288 207.921 54.8288C207.229 54.8137 206.551 54.8137 205.904 54.7987C205.588 54.7987 205.271 54.7836 204.97 54.7685C204.669 54.7535 204.383 54.7384 204.097 54.7384C203.54 54.7083 203.028 54.6933 202.576 54.6631C202.125 54.633 201.733 54.6029 201.402 54.5728C200.754 54.5276 200.378 54.4975 200.378 54.4975C198.647 54.3771 197.352 52.8714 197.472 51.1399C197.593 49.4837 198.963 48.234 200.589 48.219H200.694C200.694 48.219 201.041 48.219 201.643 48.219C201.944 48.219 202.305 48.219 202.727 48.219C203.148 48.219 203.615 48.2039 204.142 48.1888C204.398 48.1738 204.669 48.1738 204.955 48.1587C205.241 48.1437 205.527 48.1437 205.813 48.1286C206.401 48.0985 207.033 48.0533 207.665 48.0232C208.313 47.963 208.975 47.9178 209.638 47.8576C210.315 47.7823 210.993 47.707 211.67 47.6317C212.348 47.5414 213.026 47.4511 213.688 47.3457C214.35 47.2403 214.998 47.1499 215.63 47.0295C215.946 46.9693 216.248 46.909 216.549 46.8639C216.85 46.8036 217.136 46.7434 217.422 46.6832C217.708 46.623 217.979 46.5627 218.25 46.5025C218.521 46.4423 218.777 46.3821 219.018 46.3218C219.5 46.2014 219.951 46.096 220.328 45.9906C220.719 45.8852 221.036 45.7949 221.307 45.7045C221.442 45.6593 221.547 45.6292 221.653 45.5991C221.698 45.5841 221.743 45.569 221.788 45.5539C221.819 45.5389 221.849 45.5389 221.879 45.5238C222.014 45.4787 222.074 45.4636 222.074 45.4636L222.105 45.4486C224.197 44.7409 226.456 45.84 227.179 47.9329C227.886 50.0257 226.787 52.2842 224.694 53.0069C224.679 53.037 224.574 53.0672 224.484 53.0973Z" fill="#C7D7E2"/>
<path d="M224.063 60.3092C224.063 60.3092 223.957 60.3243 223.777 60.3544C223.566 60.3845 223.295 60.4146 222.949 60.4598C222.602 60.4899 222.196 60.5501 221.729 60.5802C221.262 60.6254 220.735 60.6706 220.163 60.7158C219.591 60.7609 218.974 60.8061 218.326 60.8362C217.995 60.8513 217.664 60.8663 217.317 60.8814C216.971 60.8964 216.625 60.9115 216.279 60.9266C215.571 60.9567 214.833 60.9717 214.095 60.9868C213.358 61.0018 212.59 61.0018 211.837 61.0018C211.084 60.9868 210.331 60.9868 209.593 60.9717C208.856 60.9567 208.118 60.9266 207.425 60.9115C206.718 60.8814 206.04 60.8513 205.393 60.8212C204.745 60.791 204.143 60.7459 203.571 60.7007C203.014 60.6555 202.502 60.6405 202.035 60.5953C201.583 60.5501 201.177 60.52 200.861 60.4899C200.213 60.4297 199.837 60.3996 199.837 60.3996C198.271 60.2641 197.112 58.8789 197.247 57.313C197.383 55.8374 198.602 54.7383 200.048 54.7082H200.123C200.123 54.7082 200.484 54.7082 201.102 54.6931C201.418 54.6931 201.794 54.6931 202.231 54.6781C202.667 54.6781 203.164 54.663 203.691 54.648C204.233 54.6329 204.805 54.6179 205.423 54.5877C206.04 54.5576 206.688 54.5275 207.35 54.4974C208.013 54.4522 208.705 54.4071 209.413 54.3619C210.105 54.3017 210.828 54.2414 211.536 54.1812C212.243 54.1059 212.951 54.0457 213.644 53.9554C214.336 53.865 215.014 53.7897 215.676 53.6994C216.008 53.6542 216.324 53.6091 216.64 53.5639C216.956 53.5187 217.257 53.4735 217.558 53.4284C218.161 53.338 218.718 53.2477 219.245 53.1574C219.757 53.067 220.238 52.9767 220.645 52.9014C221.067 52.8261 221.413 52.7508 221.714 52.6906C222 52.6304 222.241 52.5702 222.361 52.54C222.512 52.5099 222.587 52.4798 222.587 52.4798H222.602C224.74 51.9679 226.908 53.2929 227.42 55.4309C227.932 57.5689 226.607 59.7371 224.469 60.249C224.319 60.2641 224.198 60.2791 224.063 60.3092Z" fill="#38648C"/>
<path d="M299.813 143H60.0979C56.7252 143 54 140.275 54 136.902V136.179C54 132.807 56.7252 130.082 60.0979 130.082H299.813C303.306 130.082 306.122 132.912 306.122 136.39V136.691C306.137 140.169 303.306 143 299.813 143Z" fill="#2DB3BE" fill-opacity="0.51"/>
<path d="M228.446 64.42C228.446 64.42 228.431 64.42 228.446 64.42C228.431 64.42 228.431 64.42 228.446 64.42C228.446 64.42 228.461 64.4049 228.476 64.4049C228.491 64.4049 228.491 64.4049 228.506 64.3898C228.506 64.3898 228.521 64.3748 228.521 64.3597V64.3447L228.506 64.3296C228.476 64.2844 228.37 64.2393 228.19 64.1791C228.009 64.1339 227.783 64.0887 227.482 64.0435C227.181 64.0134 226.819 63.9833 226.413 63.9984C226.202 63.9984 225.991 64.0134 225.765 64.0285C225.54 64.0435 225.299 64.0737 225.043 64.1188C224.531 64.1791 223.989 64.3146 223.417 64.4651C222.829 64.6308 222.227 64.8566 221.595 65.1276C221.279 65.2782 220.962 65.4287 220.646 65.6094C220.33 65.775 219.999 65.9708 219.683 66.1816C219.05 66.6182 218.388 67.1 217.755 67.6872C217.123 68.2744 216.506 68.9369 215.934 69.6898C215.361 70.4426 214.819 71.2707 214.323 72.1741C213.841 73.0775 213.404 74.0562 213.013 75.0951C212.636 76.134 212.32 77.218 212.064 78.3623C211.989 78.6484 211.944 78.9345 211.883 79.2206L211.838 79.4313L211.823 79.4916V79.5217C211.823 79.5368 211.823 79.5217 211.823 79.5367L211.808 79.6572L211.748 80.124C211.658 80.7563 211.582 81.3737 211.492 82.006C211.417 82.6233 211.341 83.2557 211.266 83.8881C211.191 84.5205 211.131 85.1528 211.055 85.7852C210.98 86.4176 210.935 87.065 210.86 87.6974C210.799 88.3298 210.739 88.9772 210.694 89.6246C210.483 92.1843 210.317 94.7589 210.212 97.3035C210.107 99.833 210.046 102.332 210.031 104.756C210.016 107.181 210.031 109.514 210.092 111.743C210.152 113.956 210.242 116.064 210.348 117.991C210.408 118.955 210.468 119.888 210.528 120.762C210.604 121.635 210.664 122.478 210.724 123.261C210.799 124.044 210.86 124.782 210.935 125.459C211.01 126.137 211.07 126.754 211.131 127.326C211.266 128.44 211.386 129.329 211.462 129.916C211.552 130.503 211.597 130.819 211.597 130.819L205.198 131.211C205.198 131.211 205.213 130.88 205.228 130.247C205.243 129.63 205.274 128.727 205.304 127.582C205.334 126.438 205.364 125.053 205.394 123.457C205.424 121.861 205.454 120.069 205.484 118.112C205.529 114.197 205.605 109.635 205.665 104.741C205.71 102.287 205.74 99.7577 205.785 97.1981C205.831 94.6234 205.906 92.0186 205.981 89.3988C206.026 88.0889 206.072 86.779 206.117 85.469C206.147 84.8216 206.177 84.1591 206.192 83.5117C206.222 82.8643 206.252 82.2018 206.282 81.5543C206.312 80.922 206.358 80.2745 206.388 79.6421L206.418 79.1754L206.433 78.9194L206.448 78.6635C206.463 78.3322 206.478 77.9859 206.493 77.6547C206.568 76.3146 206.704 74.9596 206.915 73.6346C207.125 72.3096 207.381 70.9997 207.728 69.7048C208.074 68.425 208.481 67.1603 208.977 65.9557C209.941 63.5316 211.206 61.2882 212.636 59.3459C213.359 58.3823 214.097 57.4789 214.865 56.6658C215.632 55.8377 216.4 55.0999 217.168 54.4375C217.936 53.7599 218.689 53.1727 219.412 52.6457C219.773 52.3747 220.134 52.1338 220.481 51.908C220.827 51.6671 221.158 51.4563 221.489 51.2605C222.784 50.4625 223.898 49.8904 224.742 49.514C225.163 49.3182 225.51 49.1827 225.781 49.0773C225.811 49.0623 225.841 49.0472 225.871 49.0472C225.901 49.0322 225.931 49.0322 225.961 49.0171C226.021 49.002 226.082 48.987 226.127 48.9719C226.142 48.9719 226.157 48.9719 226.157 48.9569C226.172 48.9569 226.187 48.9418 226.202 48.9418C226.232 48.9418 226.262 48.9268 226.277 48.9268C226.292 48.9268 226.292 48.9268 226.292 48.9268L228.446 64.42Z" fill="#38648C"/>
<path d="M262.517 55.0697C262.517 37.1223 249.056 15.8173 237.974 11.3455C236.318 10.4571 234.316 9.68925 231.907 9.04182C221.879 6.39187 210.105 8.59012 205.784 18.0306C201.462 27.456 202.14 42.4071 211.565 46.7284C213.206 47.4812 215.043 47.8727 216.986 47.9781C219.139 48.0835 220.855 49.83 220.81 51.9982C220.78 53.1425 220.78 54.1814 220.78 55.0848C220.78 56.9367 221.021 59.3458 221.472 62.0861C221.713 63.5465 221.096 65.0221 219.892 65.8954C211.836 71.7825 209.141 82.8792 214.004 91.9131C219.319 101.805 232.373 105.434 242.702 101.007C244.223 100.36 245.563 99.5769 246.722 98.7036C255.786 93.7199 262.517 75.7424 262.517 55.0697Z" fill="#F27788"/>
<path d="M242.069 77.0371C241.933 76.8564 241.813 76.6757 241.692 76.4951C241.572 76.3144 241.452 76.1187 241.331 75.938C241.211 75.7422 241.105 75.5616 240.985 75.3658C240.879 75.1701 240.759 74.9894 240.654 74.7937L240.337 74.2215C240.232 74.0258 240.127 73.8301 240.021 73.6343C239.81 73.2429 239.615 72.8514 239.419 72.4599L239.585 72.6858C239.178 72.1889 238.772 71.7071 238.38 71.2102L238.455 71.3006C238.44 71.2855 238.41 71.2554 238.38 71.2253L238.29 71.1349L238.094 70.9543C237.958 70.8338 237.838 70.7134 237.702 70.608C237.567 70.4875 237.431 70.3821 237.296 70.2767L237.191 70.2014L237.145 70.1563L237.115 70.1412L237.1 70.1261C236.995 70.0659 237.236 70.2014 237.221 70.1864H237.206C237.221 70.2014 237.251 70.2014 237.281 70.2165C237.311 70.2315 237.341 70.2315 237.371 70.2466L237.416 70.2617C237.431 70.2617 237.447 70.2617 237.431 70.2617C237.431 70.2617 237.416 70.2617 237.401 70.2466C237.371 70.2315 237.326 70.2315 237.281 70.2165L236.709 70.1261L236.107 70.0207C235.896 69.9756 235.7 69.9455 235.474 69.8852L235.308 69.8401L235.218 69.81H235.188H235.173C235.188 69.81 235.128 69.7949 235.218 69.825H235.203C235.203 69.825 235.203 69.825 235.218 69.825H235.233H235.263C235.293 69.825 235.308 69.825 235.339 69.825C235.429 69.825 235.519 69.81 235.64 69.7497C235.7 69.7196 235.76 69.6895 235.805 69.6443C235.851 69.5992 235.896 69.554 235.941 69.5088C236.061 69.3282 236.061 69.2529 236.076 69.2228C236.076 69.1776 236.061 69.2529 236.031 69.3281L236.046 69.1174C236.031 69.3131 236.016 69.4938 235.986 69.6895C235.956 69.8852 235.941 70.0659 235.896 70.2617C235.881 70.352 235.866 70.4574 235.851 70.5477C235.835 70.6381 235.82 70.7435 235.79 70.8338C235.745 71.0295 235.7 71.2102 235.64 71.406C235.58 71.6017 235.384 71.7071 235.188 71.6469C235.083 71.6167 235.007 71.5415 234.962 71.4361C234.887 71.2554 234.827 71.0597 234.766 70.879C234.736 70.7886 234.706 70.6983 234.691 70.5929C234.661 70.5026 234.646 70.4122 234.616 70.3068C234.571 70.1261 234.526 69.9304 234.48 69.7497C234.435 69.5691 234.405 69.3733 234.375 69.1926L234.39 68.9819C234.39 68.9668 234.375 68.9517 234.39 68.8012C234.405 68.7259 234.42 68.6054 234.571 68.3796C234.616 68.3194 234.661 68.2742 234.721 68.229C234.782 68.1839 234.857 68.1387 234.917 68.1086C235.068 68.0483 235.173 68.0333 235.278 68.0182C235.309 68.0182 235.339 68.0182 235.369 68.0182H235.414H235.444H235.459L235.504 68.0333H235.519H235.58H235.7C235.866 68.0333 236.061 68.0333 236.242 68.0333L236.829 68.0182C237.025 68.0182 237.221 68.0032 237.447 68.0032C237.507 68.0032 237.552 68.0032 237.627 68.0032C237.657 68.0032 237.702 68.0032 237.748 68.0182C237.763 68.0182 237.808 68.0182 237.838 68.0333H237.853L237.898 68.0483C237.928 68.0634 237.974 68.0634 238.004 68.0785C238.034 68.0935 238.079 68.1086 238.094 68.1086H238.109L238.38 68.2441L238.531 68.3194C238.726 68.4248 238.922 68.5452 239.103 68.6506C239.283 68.7711 239.464 68.8915 239.645 69.027C239.735 69.0872 239.825 69.1625 239.916 69.2228L240.051 69.3281C240.096 69.3733 240.142 69.4034 240.202 69.4486L240.277 69.5239C240.714 69.9906 241.15 70.4574 241.587 70.9091L241.647 70.9693L241.753 71.1349C241.979 71.5114 242.219 71.8878 242.43 72.2642C242.536 72.4599 242.656 72.6406 242.761 72.8363L243.078 73.4085C243.183 73.6042 243.288 73.7999 243.394 73.9957C243.499 74.1914 243.59 74.3872 243.695 74.5829C243.8 74.7786 243.891 74.9744 243.981 75.1851C244.071 75.3809 244.162 75.5917 244.252 75.8025C244.508 76.4499 244.192 77.1726 243.559 77.4286C243.002 77.6845 242.4 77.4888 242.069 77.0371Z" fill="#F4B6BB"/>
<path d="M242.853 71.075C242.853 71.075 243.109 71.4363 243.561 72.0687C244.012 72.7011 244.675 73.6195 245.473 74.6885C245.879 75.2306 246.301 75.8027 246.768 76.405C247.235 77.0072 247.731 77.6246 248.243 78.2569C248.499 78.5731 248.755 78.8743 249.026 79.1603C249.282 79.4464 249.553 79.7325 249.794 79.9583C249.915 80.0637 250.02 80.1691 250.08 80.1992C250.095 80.2143 250.11 80.2143 250.05 80.1541C250.02 80.124 249.96 80.0788 249.839 80.0186C249.809 80.0035 249.779 79.9884 249.734 79.9583C249.689 79.9282 249.644 79.9132 249.583 79.8981C249.523 79.868 249.463 79.8529 249.358 79.8228C249.312 79.8078 249.267 79.7927 249.222 79.7927C249.162 79.7777 249.102 79.7626 249.041 79.7626C248.936 79.7475 248.755 79.7174 248.605 79.7325C248.514 79.7325 248.409 79.7325 248.319 79.7475C248.273 79.7475 248.213 79.7626 248.168 79.7626C248.108 79.7777 248.048 79.7777 247.987 79.7927C247.867 79.8228 247.762 79.8529 247.641 79.883C247.521 79.9282 247.4 79.9734 247.28 80.0336C247.204 80.0637 247.114 80.124 247.174 80.0938H247.189L247.204 80.0788L247.355 79.9884L247.641 79.8078L247.927 79.6271L248.153 79.4765C248.304 79.3711 248.439 79.2808 248.59 79.1754C248.74 79.0549 248.906 78.9495 249.056 78.8291C249.222 78.7237 249.358 78.5882 249.523 78.4677C249.674 78.3473 249.824 78.2268 249.975 78.0913C250.125 77.9709 250.276 77.8354 250.427 77.7149C250.577 77.5794 250.713 77.4589 250.863 77.3234L251.074 77.1277L251.285 76.932C251.42 76.7965 251.556 76.6609 251.691 76.5405C252.218 75.9985 252.73 75.4564 253.197 74.9144C253.317 74.7789 253.423 74.6434 253.543 74.5229C253.649 74.3874 253.769 74.2519 253.874 74.1314C254.085 73.8755 254.296 73.6195 254.477 73.3786C254.672 73.1377 254.853 72.8968 255.019 72.671C255.199 72.4451 255.35 72.2193 255.501 72.0235C255.802 71.617 256.058 71.2406 256.268 70.9395C256.479 70.6383 256.63 70.3974 256.75 70.2318C256.856 70.0662 256.916 69.9758 256.916 69.9758L263.255 74.5681C263.255 74.5681 263.179 74.6584 263.029 74.8391C262.878 75.0198 262.683 75.2757 262.412 75.607C262.141 75.9382 261.809 76.3297 261.418 76.7814C261.222 77.0072 261.011 77.2482 260.785 77.4891C260.56 77.73 260.319 78.001 260.063 78.2569C259.807 78.528 259.551 78.799 259.265 79.0851C259.129 79.2206 258.979 79.3711 258.828 79.5217C258.677 79.6572 258.527 79.8078 258.376 79.9583C257.759 80.5455 257.082 81.1478 256.359 81.7501C256.178 81.9006 255.982 82.0512 255.802 82.2018C255.711 82.277 255.621 82.3523 255.516 82.4276C255.425 82.5029 255.32 82.5782 255.23 82.6535C255.034 82.804 254.838 82.9546 254.642 83.0901C254.432 83.2256 254.236 83.3762 254.025 83.5267C253.829 83.6773 253.603 83.8128 253.393 83.9483C253.182 84.0838 252.971 84.2344 252.745 84.3548C252.519 84.4904 252.309 84.6259 252.083 84.7463C251.857 84.8818 251.601 85.0173 251.36 85.1528L250.999 85.3486L250.698 85.4991L250.396 85.6497L250.246 85.725L250.08 85.8003C249.945 85.8605 249.809 85.9207 249.674 85.9659C249.538 86.0111 249.418 86.0412 249.282 86.0713C249.222 86.0864 249.147 86.1014 249.087 86.1014C249.026 86.1165 248.981 86.1165 248.921 86.1165C248.815 86.1315 248.68 86.1315 248.59 86.1315C248.409 86.1315 248.198 86.1165 248.063 86.0864C247.987 86.0713 247.912 86.0562 247.837 86.0412C247.777 86.0261 247.716 86.0111 247.656 85.996C247.536 85.9659 247.445 85.9358 247.355 85.8906C247.25 85.8605 247.189 85.8304 247.114 85.7852C247.039 85.7551 246.979 85.725 246.918 85.6949C246.693 85.5744 246.542 85.469 246.422 85.3787C246.166 85.198 246.015 85.0475 245.864 84.9119C245.593 84.6409 245.398 84.4151 245.202 84.1892C244.841 83.7526 244.554 83.3461 244.268 82.9546C243.997 82.5631 243.741 82.1716 243.485 81.7952C243.004 81.0424 242.552 80.3197 242.145 79.6271C241.739 78.9345 241.347 78.2871 241.001 77.6848C240.309 76.4803 239.751 75.4865 239.36 74.7789C238.969 74.0712 238.743 73.6647 238.743 73.6647L242.853 71.075Z" fill="#91D7E0"/>
<path d="M285.968 137.458L261.757 137.548C258.113 137.563 254.997 134.883 254.485 131.27L252 114.165L295.544 114L293.195 131.119C292.698 134.748 289.627 137.443 285.968 137.458Z" fill="#6E9FA6"/>
<path d="M293.248 126.182L253.8 126.332C252.701 126.332 251.767 125.519 251.632 124.435L250.352 114.362C250.337 110.523 253.439 107.406 257.263 107.391L289.665 107.271C293.504 107.256 296.621 110.357 296.636 114.182L295.401 124.269C295.266 125.369 294.347 126.182 293.248 126.182Z" fill="#91D7E0"/>
<path d="M264.792 108.039V107.03C264.792 105.645 265.319 104.335 266.298 103.341C267.276 102.347 268.586 101.805 269.971 101.805L276.913 101.775C278.298 101.775 279.608 102.302 280.601 103.281C281.595 104.259 282.137 105.569 282.137 106.955V107.963L279.894 107.978V106.97C279.894 106.172 279.578 105.434 279.02 104.877C278.463 104.32 277.726 104.019 276.943 104.019H276.928L269.987 104.049C269.189 104.049 268.451 104.365 267.894 104.922C267.337 105.479 267.035 106.232 267.035 107.015V108.024L264.792 108.039Z" fill="#5179FF"/>
<path d="M261.251 129.75C260.815 129.75 260.393 129.584 260.092 129.268C259.776 128.952 259.61 128.545 259.595 128.093L259.58 125.097C259.58 124.179 260.318 123.441 261.236 123.441H262.019C262.456 123.441 262.877 123.607 263.179 123.923C263.495 124.239 263.66 124.645 263.675 125.097L263.691 128.093C263.691 129.012 262.953 129.75 262.034 129.75H261.251C261.266 129.75 261.251 129.75 261.251 129.75ZM262.034 124.645H261.251C260.995 124.645 260.8 124.856 260.8 125.097L260.815 128.093C260.815 128.214 260.86 128.334 260.95 128.41C261.041 128.5 261.146 128.545 261.266 128.545H262.049C262.305 128.545 262.501 128.334 262.501 128.093L262.486 125.097C262.486 124.977 262.441 124.856 262.35 124.781C262.26 124.706 262.155 124.645 262.034 124.645Z" fill="#D5FAFF"/>
<path d="M285.222 129.66C284.319 129.66 283.566 128.922 283.566 128.004L283.551 125.008C283.551 124.089 284.289 123.351 285.207 123.351H285.99C286.893 123.351 287.646 124.089 287.646 125.008L287.661 128.004C287.661 128.44 287.496 128.862 287.179 129.178C286.863 129.494 286.457 129.66 286.005 129.675L285.222 129.66ZM285.99 124.556H285.207C284.951 124.556 284.755 124.767 284.755 125.008L284.77 128.004C284.77 128.124 284.816 128.245 284.906 128.32C284.996 128.41 285.102 128.455 285.222 128.455H286.005C286.125 128.455 286.246 128.41 286.321 128.32C286.412 128.23 286.457 128.124 286.457 128.004L286.442 125.008C286.442 124.767 286.246 124.556 285.99 124.556Z" fill="#D5FAFF"/>
<path d="M280.553 117.313C280.553 117.946 280.387 118.714 280.086 119.572C277.813 126.122 268.447 126.167 266.114 119.632C265.813 118.789 265.632 118.021 265.632 117.374C265.617 113.248 268.944 109.906 273.07 109.876C277.18 109.86 280.538 113.188 280.553 117.313Z" fill="#EB5757"/>
<path d="M277.211 115.853L274.742 115.868V113.399L271.4 113.414L271.415 115.883H268.96V119.075L271.43 119.06V121.665L274.772 121.65L274.757 119.045H277.226L277.211 115.853Z" fill="#FBFCFF"/>
<path d="M269.684 66.934C272.334 67.476 260.771 73.0469 260.771 73.0469C260.771 73.0469 258.362 71.2401 258.693 69.1924C258.798 68.5149 261.689 68.274 261.764 67.4459C262.035 64.6002 262.035 60.9715 261.117 57.2977C260.455 54.6177 267.892 57.0568 267.892 57.0568C267.892 57.0568 267.004 63.6215 268.103 66.3618C268.118 66.3769 269.187 66.8286 269.684 66.934Z" fill="#ECAEB3"/>
<path d="M262.262 64.9466C260.455 65.3983 258.829 63.983 258.754 62.0407L258.588 60.3695C258.332 57.7647 258.543 55.1298 259.191 52.5852C259.115 50.658 260.621 49.0318 262.563 48.9566L263.798 48.9114C265.725 48.8361 267.351 50.3418 267.427 52.2841L267.728 60.6405C267.803 62.5677 262.262 64.9466 262.262 64.9466Z" fill="#F4B6BB"/>
<path d="M259.176 54.6479C259.026 55.9126 258.589 57.1322 257.881 58.2012L257.339 58.9992C257.249 59.225 257.415 59.481 257.671 59.466L260.019 59.3756L260.034 53.6541L259.733 52.9314C259.402 53.368 259.252 54.0004 259.176 54.6479Z" fill="#F4B6BB"/>
<path d="M268.72 52.6003C268.539 50.3117 266.401 48.279 265.573 49.6191C264.564 51.2301 262.562 50.7634 262.2 51.0344C262.125 51.0946 262.05 51.1548 262.004 51.2602C261.959 51.3656 261.959 51.5011 261.974 51.6216C262.035 52.5852 262.381 53.4585 262.893 53.9554L264.052 54.3619C264.429 54.5877 264.745 55.0545 264.805 55.6718C264.88 56.4548 264.549 57.2979 264.624 58.0809C264.986 58.0357 265.151 57.328 265.212 56.7709C265.257 56.2891 265.332 55.7923 265.528 55.4008C265.723 54.9943 266.115 54.7383 266.356 54.9792C266.536 55.1599 266.582 55.5363 266.627 55.8826C266.853 57.6141 267.38 59.18 268.163 60.3845C268.328 58.6229 268.494 56.8613 268.644 55.0846C268.705 54.2414 268.795 53.3983 268.72 52.6003Z" fill="#100D31"/>
<path d="M245.445 100.465L246.815 125.625L265.696 123.502L265.756 97.0925L245.445 100.465Z" fill="#6E9FA6"/>
<path d="M249.735 133.258L249.479 136.209C249.403 136.616 248.982 136.917 248.5 136.917L238.217 136.977C237.915 136.977 237.825 135.863 238.096 135.758L244.977 133.996L246.618 132.31L249.735 133.258Z" fill="#367BF5"/>
<path d="M265.439 94.5029L243.622 100.797C241.363 101.911 241.123 103.221 240.761 104.982L242.99 134.599L249.991 134.93L249.238 109.228L264.942 108.009C266.011 108.144 277.454 105.886 276.325 100.812C275.196 95.7376 270.618 93.4339 265.439 94.5029Z" fill="#11ADD2"/>
<path d="M256.812 135.457L256.977 137.986C256.872 138.393 256.45 138.664 255.969 138.634L245.926 139.176C245.64 139.161 245.293 138.257 245.564 138.152L252.731 135.682L254.312 134.327L256.812 135.457Z" fill="#367BF5"/>
<path d="M275.404 94.3823C272.047 90.9193 269.879 92.5304 264.518 95.2104L249.326 103.251L248.363 104.139C247.49 104.952 246.978 106.141 247.083 107.421L250.516 136.556L257.969 136.24L255.861 111.02L271.851 106.894C272.649 106.518 273.432 106.006 274.109 105.374C277.633 102.106 278.747 97.8453 275.404 94.3823Z" fill="#11B2D8"/>
<path d="M270.903 66.3772C270.903 66.3923 270.948 66.4224 271.038 66.6783C271.084 66.7837 274.577 68.1388 274.637 68.2894C274.697 68.4249 275.465 88.1189 275.48 88.4953C275.48 88.8717 279.681 100.074 278.07 107.512L271.415 107.572C269.232 107.587 267.47 109.364 267.47 111.547V130.834C265.558 129.72 258.632 111.11 256.93 103.898C256.163 100.631 253.106 100.781 252.895 100.902C249.267 102.919 244.78 100.089 244.78 100.089C244.78 100.089 252.519 96.7914 254.567 95.5417C254.868 95.3611 255.033 95.0298 255.003 94.6835C254.792 91.8228 254.506 77.0975 256.042 71.1652C256.042 71.1501 256.042 71.1501 256.057 71.1351C256.644 69.3584 259.038 68.3797 260.92 68.0786C260.92 68.0786 260.439 70.4726 262.215 70.5178C263.992 70.5629 268.946 66.7235 268.946 66.7235L270.903 66.3772Z" fill="#EEFAFB"/>
<path d="M262.11 70.6382C262.11 70.6382 262.095 70.7737 262.065 71.0447C262.035 71.3157 262.005 71.6921 261.945 72.189C261.915 72.4299 261.9 72.7009 261.869 73.0021C261.839 73.3032 261.809 73.6194 261.779 73.9657C261.749 74.312 261.719 74.6733 261.689 75.0648C261.659 75.4563 261.598 75.8477 261.553 76.2693C261.508 76.6909 261.463 77.1276 261.418 77.5792C261.373 78.0309 261.343 78.4977 261.297 78.9795C261.252 79.4613 261.222 79.9582 261.192 80.4701C261.177 80.7261 261.162 80.982 261.132 81.238C261.117 81.4939 261.102 81.765 261.087 82.0209C261.026 83.0749 260.996 84.174 260.951 85.2731C260.936 86.3873 260.906 87.5166 260.921 88.6308C260.921 89.1879 260.921 89.76 260.951 90.3171C260.966 90.8742 260.981 91.4313 260.996 91.9884C261.026 92.5455 261.056 93.0875 261.087 93.6295C261.087 93.765 261.102 93.9005 261.102 94.0361L261.117 94.2318V94.292V94.3372V94.4426C261.117 94.7588 261.041 95.0298 260.951 95.3008C260.755 95.8428 260.424 96.2795 260.063 96.6709C259.716 97.0624 259.325 97.4087 258.933 97.7099C258.151 98.3272 257.368 98.809 256.63 99.2306C256.253 99.4414 255.907 99.6521 255.546 99.8027C255.184 99.9683 254.853 100.104 254.537 100.239C253.905 100.51 253.332 100.721 252.866 100.887C252.399 101.052 252.023 101.173 251.782 101.263C251.526 101.338 251.39 101.384 251.39 101.384C251.39 101.384 251.526 101.323 251.767 101.218C252.007 101.113 252.354 100.947 252.805 100.736C253.257 100.525 253.784 100.254 254.386 99.9382C254.688 99.7726 255.004 99.607 255.335 99.4112C255.666 99.2155 256.028 99.0499 256.389 98.824C257.112 98.4025 257.895 97.9206 258.632 97.3334C259.009 97.0323 259.37 96.7161 259.701 96.3397C260.033 95.9783 260.319 95.5568 260.499 95.1051C260.59 94.8792 260.635 94.6383 260.635 94.4125V94.3071V94.2619V94.2167L260.62 94.021C260.62 93.8855 260.605 93.75 260.605 93.6145C260.575 93.0724 260.545 92.5153 260.514 91.9583C260.499 91.4012 260.484 90.8441 260.469 90.2719C260.454 89.7148 260.454 89.1427 260.439 88.5705C260.424 87.4413 260.454 86.312 260.469 85.1979C260.514 84.0837 260.545 82.9846 260.605 81.9306C260.62 81.6596 260.635 81.4036 260.65 81.1477C260.665 80.8917 260.68 80.6357 260.71 80.3798C260.74 79.8678 260.77 79.371 260.816 78.8892C260.861 78.4074 260.906 77.9406 260.936 77.4739C260.981 77.0222 261.026 76.5855 261.071 76.1489C261.117 75.7273 261.147 75.3208 261.207 74.9444C261.267 74.5679 261.327 74.2066 261.388 73.8603C261.508 73.1827 261.614 72.5955 261.719 72.0987C261.809 71.6169 261.9 71.2404 261.96 70.9694C262.08 70.7737 262.11 70.6382 262.11 70.6382Z" fill="#71B5E8"/>
<path d="M261.435 71.7373C261.345 72.204 261.134 72.5503 260.953 72.5202C260.773 72.4901 260.712 72.0836 260.803 71.6168C260.893 71.15 261.104 70.8037 261.285 70.8339C261.465 70.864 261.525 71.2705 261.435 71.7373Z" fill="#71B5E8"/>
<path d="M260.41 78.588C260.365 79.0547 260.185 79.4312 260.019 79.4161C259.838 79.401 259.733 79.0096 259.778 78.5278C259.823 78.061 260.004 77.6846 260.169 77.6997C260.35 77.7147 260.456 78.1062 260.41 78.588Z" fill="#71B5E8"/>
<path d="M260.063 85.2581C260.063 85.7399 259.913 86.1163 259.732 86.1163C259.552 86.1163 259.416 85.7249 259.416 85.2581C259.416 84.7763 259.567 84.3999 259.747 84.3999C259.943 84.3999 260.079 84.7914 260.063 85.2581Z" fill="#71B5E8"/>
<path d="M259.753 93.164C259.928 93.1632 260.067 92.7783 260.065 92.3043C260.063 91.8303 259.92 91.4467 259.745 91.4475C259.57 91.4483 259.431 91.8332 259.433 92.3072C259.435 92.7812 259.578 93.1648 259.753 93.164Z" fill="#71B5E8"/>
<path d="M255.817 98.9295C255.441 99.2156 255.049 99.336 254.944 99.1855C254.839 99.05 255.064 98.7037 255.441 98.4176C255.817 98.1315 256.209 98.0111 256.314 98.1616C256.419 98.2971 256.194 98.6434 255.817 98.9295Z" fill="#71B5E8"/>
<path d="M273.898 96.3848H267.815V104.033H273.898V96.3848Z" fill="url(#paint0_linear)"/>
<path d="M267.232 49.5591C266.946 49.273 266.524 49.1525 266.118 49.0622C264.883 48.8062 263.588 48.7611 262.324 48.9267C261.495 49.0321 261.285 49.0773 260.562 49.4687C259.839 49.8602 259.207 50.4474 258.891 51.1701C258.68 51.6821 258.62 52.2241 258.394 52.736C258.213 53.1426 257.882 53.534 257.46 53.6695C257.385 53.6996 257.385 53.805 257.46 53.8201C258.258 54.046 259.101 54.0309 259.93 53.805C263.182 52.9167 264.522 55.2354 265.38 54.7536C266.238 54.2718 267.217 51.8176 267.503 50.9292C267.624 50.4775 267.578 49.9204 267.232 49.5591Z" fill="#100D31"/>
<path d="M260.139 52.8864C260.033 53.308 259.868 53.7145 259.657 54.0909C260.154 54.1812 260.696 54.0006 261.027 53.6091C261.162 53.9403 261.403 54.2415 261.704 54.4372C261.765 54.3017 261.87 54.1812 262.006 54.106C262.111 54.4221 262.442 54.6329 262.773 54.6179C262.683 54.5125 262.788 54.3469 262.924 54.3168C263.06 54.2866 263.18 54.3619 263.3 54.4372C263.451 54.5577 263.602 54.7082 263.632 54.8889C263.797 54.8136 263.903 54.6329 263.888 54.4673C264.038 54.5727 264.189 54.6781 264.339 54.7986C264.58 54.4071 264.505 53.8801 264.264 53.5037C264.023 53.1122 263.617 52.8563 263.21 52.6605C262.563 52.3594 261.84 52.2389 261.132 52.2841C260.906 52.2992 260.681 52.3293 260.485 52.4347C260.289 52.5401 260.123 52.7208 260.108 52.9466" fill="#100D31"/>
<path opacity="0.35" d="M241.365 59.2239C241.475 55.9745 238.929 53.2515 235.68 53.142C232.431 53.0325 229.708 55.5779 229.598 58.8274C229.489 62.0768 232.034 64.7997 235.283 64.9092C238.533 65.0187 241.256 62.4733 241.365 59.2239Z" fill="white"/>
<path d="M236.559 72.174C236.318 72.174 236.123 71.9933 236.108 71.7524L235.596 65.2329C235.581 64.977 235.761 64.7662 236.017 64.7511C236.273 64.7361 236.484 64.9167 236.499 65.1727L237.011 71.6922C237.026 71.9481 236.845 72.1589 236.589 72.174C236.589 72.174 236.574 72.174 236.559 72.174Z" fill="#E8E8E8"/>
<path d="M235.521 65.6846C232.133 65.6846 229.257 63.0798 228.956 59.6619C228.64 56.0484 231.335 52.8413 234.963 52.5402C238.577 52.239 241.784 54.9191 242.085 58.5477C242.401 62.1613 239.706 65.3684 236.078 65.6695C235.897 65.6846 235.716 65.6846 235.521 65.6846ZM235.536 53.4135C235.37 53.4135 235.204 53.4134 235.054 53.4285C231.937 53.6995 229.603 56.4549 229.874 59.5716C230.145 62.6883 232.901 65.0221 236.017 64.7511C239.134 64.48 241.468 61.7247 241.197 58.608C240.941 55.6569 238.457 53.4135 235.536 53.4135Z" fill="#E8E8E8"/>
<path d="M236.983 74.2518L236.682 74.2819C236.094 74.327 235.582 73.8904 235.537 73.3032L235.146 68.3195C235.101 67.7323 235.537 67.2203 236.124 67.1752L236.426 67.1451C237.013 67.0999 237.525 67.5365 237.57 68.1237L237.961 73.1075C238.007 73.6947 237.57 74.2066 236.983 74.2518Z" fill="#6F86FF"/>
<path d="M235.429 69.8099L236.919 69.4485H237.07L238.606 69.3582C239.072 69.3281 239.479 69.6894 239.494 70.1562C239.524 70.6229 239.163 71.0295 238.696 71.0445C238.606 71.0445 238.515 71.0445 238.44 71.0144L236.949 70.6229H237.1L235.564 70.7283C235.308 70.7434 235.082 70.5477 235.067 70.2917C235.067 70.0658 235.218 69.8551 235.429 69.8099Z" fill="#F4B6BB"/>
<path d="M111.396 108.52C111.396 108.52 98.8994 107.045 77.8052 109.951L82.5329 81.1475H107.707L111.396 108.52Z" fill="#E0E0E0"/>
<path d="M78.8875 134.297L78.21 137.896C78.3605 138.377 78.9327 138.709 79.5801 138.694L90.5262 140.651C90.9177 140.636 91.1887 140.019 90.8273 139.898L84.1724 135.472L83.1485 134.116L78.8875 134.297Z" fill="#367BF5"/>
<path d="M105.526 133.334L105.616 136.586C105.707 137.083 106.234 137.489 106.881 137.534L118.821 138.543C119.212 138.573 119.348 138.182 119.017 138.016L111.804 134.237L108.823 131.241L105.526 133.334Z" fill="#367BF5"/>
<path d="M107.168 72.1587C107.168 72.1587 107.153 72.3695 107.123 72.776C107.093 73.1976 107.063 73.7999 107.002 74.5828C106.912 76.1487 106.792 78.3921 106.701 81.0873C106.656 82.4424 106.611 83.9029 106.566 85.4537C106.536 87.0045 110.315 132.716 110.36 132.912C110.465 133.318 103.193 135.788 103.012 135.381C102.922 135.186 96.5833 100.269 96.4026 99.3509C96.2219 98.4324 96.0412 97.529 95.8606 96.6256C95.5143 94.8189 95.183 93.0422 94.8668 91.3107C94.5507 89.5792 94.2796 87.923 94.0237 86.327C93.7677 84.746 93.5268 83.2404 93.316 81.8552C92.8944 79.0848 92.5782 76.751 92.3675 75.1249C92.2621 74.2968 92.1868 73.6493 92.1266 73.2127C92.0814 72.761 92.0513 72.5201 92.0513 72.5201V72.4749C92.0513 72.4749 107.213 71.1951 107.153 70.7284C107.093 70.2466 107.213 71.692 107.168 72.1587Z" fill="#11B2D8"/>
<path d="M100.283 68.6206L99.861 70.7286L99.4394 72.8666L98.6263 77.1577L97.8434 81.4639L97.0906 85.7851L96.3679 90.1063C96.142 91.5518 95.9011 92.9972 95.6903 94.4276C95.4645 95.873 95.2537 97.3184 95.0429 98.7639C94.8321 100.209 94.6364 101.655 94.4256 103.1L94.2148 104.606L86.4456 135.08C86.4456 135.08 78.827 135.246 78.7065 134.192C78.7065 134.192 80.5886 118.563 80.9801 116.034C81.3716 113.504 81.8534 111.005 82.3954 108.505C82.6664 107.256 82.9525 106.021 83.2536 104.771L83.7204 102.904L83.9613 101.971L84.0968 101.504L84.2323 101.007L83.8709 102.784C83.7655 101.293 83.6601 99.8028 83.5698 98.3122C83.4795 96.8216 83.3891 95.331 83.3138 93.8404C83.2235 92.3498 83.1633 90.8592 83.088 89.3686L82.9073 84.8968L82.7568 80.4099L82.6363 75.9231L82.546 71.4362L82.5158 69.1777C82.5158 69.1777 100.388 67.9883 100.268 68.5755L100.283 68.6206Z" fill="#11B2D8"/>
<path d="M91.1729 35.6617L99.3636 34.7433L99.4389 23.6466C99.4389 23.6466 91.0072 19.9879 91.8956 23.6466C93.4916 30.1661 91.1729 35.6617 91.1729 35.6617Z" fill="#ECAEB3"/>
<path d="M96.0827 30.422L98.0701 31.9578C98.5519 32.1234 99.4403 32.1836 99.907 32.1535C101.127 32.0631 101.292 31.5061 101.774 30.437C102.226 29.4433 102.301 29.2927 102.482 28.2087C102.482 28.2087 103.099 24.6854 103.792 21.7795C105.252 15.5762 99.636 15.4859 99.636 15.4859C96.8204 14.3115 90.9183 16.314 91.9873 20.304C92.6197 22.698 92.439 24.2789 92.4691 25.4834C92.4992 26.5826 93.0563 27.501 93.6435 28.4195C94.3813 29.5638 95.7966 30.1359 96.0827 30.422Z" fill="#F4B6BB"/>
<path d="M104.211 27.1849C104.437 27.8022 103.97 27.9979 103.624 27.8775L101.727 27.6366L103.142 23.3906L103.398 23.3003C103.489 26.0556 104.211 27.1849 104.211 27.1849Z" fill="#F4B6BB"/>
<path d="M91.4896 80.3043C97.0605 84.0233 105.342 80.3043 105.342 80.3043L99.5448 34.0807L99.3942 33.1321C99.3942 33.1321 98.9275 35.3304 91.9864 32.9062L89.7129 34.3065L91.4896 80.3043Z" fill="#556786"/>
<path d="M103.294 104.064C103.309 108.099 107.555 110.764 111.154 108.942C111.56 108.746 111.786 108.566 111.741 108.43C110.973 105.464 108.911 67.4461 108.911 67.4461C108.911 67.4461 108.7 59.6618 108.082 51.2904C107.646 45.2979 110.491 37.2878 110.1 36.8662C109.603 36.3543 104.303 35.481 102.06 35.0444C101.563 34.954 101.096 34.7884 100.644 34.5625L99.5905 34.0205L99.4399 34.0657C99.455 34.0506 103.144 50.9441 103.294 104.064Z" fill="white"/>
<path d="M91.5041 112.39C91.5041 112.39 85.9182 112.902 81.9131 111.321L82.2594 91.7623L79.9106 110.568C79.9106 110.568 77.7274 110.116 77.8027 109.83C78.1189 108.445 80.6785 85.83 81.1603 67.1599L79.8654 41.7143C79.8654 38.7632 82.4552 35.8874 87.9357 34.5624L89.7124 34.2914L91.188 33.4482C91.5041 33.5687 93.6873 38.5223 94.2143 55.3706C94.2294 55.9879 94.2444 56.6353 94.2595 57.2978C94.5305 69.3431 93.9885 86.9743 91.5041 112.39Z" fill="white"/>
<path d="M101.141 34.8335C101.186 34.8486 101.232 34.8485 101.292 34.8636C101.141 36.4897 101.608 38.1761 102.466 39.6365L102.782 40.1786L101.969 42.7382L104.318 44.7859L102.466 58.8186L102.195 58.3669L102 57.1925L103.626 44.7106L101.322 42.5876L102.195 40.0732L102.015 39.6968C101.247 38.176 100.87 36.4596 101.141 34.8335Z" fill="#59A9E4"/>
<path d="M89.1714 44.801L90.9179 42.2263L89.4876 39.9528L89.6532 39.3505C90.1049 37.7244 90.135 35.9778 89.5779 34.4421C89.6231 34.427 89.6683 34.3969 89.7134 34.3818C90.391 35.8875 90.4512 37.6341 90.1049 39.2903L90.0146 39.6968L91.4901 41.9101L89.8038 44.545L94.1852 55.3857C94.2003 56.0031 94.2153 56.6505 94.2304 57.313L89.1714 44.801Z" fill="#59A9E4"/>
<path d="M92.3014 14.7933C91.925 14.5223 91.5335 14.2814 91.1119 14.0857C91.7142 14.0255 92.3466 14.0706 92.9338 14.2362C92.6628 13.9201 92.3014 13.6942 91.9099 13.5888C92.5122 13.4985 92.9338 13.4834 93.3554 13.9351C93.3554 13.6039 93.4758 13.4985 93.2951 13.2124C93.536 13.4232 93.7167 13.6792 93.8522 13.9803C93.8974 13.2124 94.4244 12.4897 95.1471 12.2036C94.8309 12.6553 94.575 13.2576 94.4545 13.7394C96.6226 12.0229 97.9476 12.8812 101.411 14.0255C101.877 14.176 103.759 14.6729 104.557 17.8799C104.783 18.7683 104.196 19.3103 105.325 20.56C105.536 20.7256 105.762 20.8611 106.003 20.9515C105.115 21.4333 103.85 21.7645 103.007 21.2225C103.037 21.4785 103.187 21.7194 103.413 21.8699C102.51 21.6441 101.621 21.3279 100.793 20.9063C100.808 21.1472 100.974 21.3731 101.185 21.4785C100.327 21.3279 99.5737 20.7557 99.0016 20.0933C98.8811 20.018 98.7607 19.9276 98.6402 19.8373C98.2789 19.5362 97.6917 20.289 97.7669 20.7407C97.3002 20.5299 96.9689 20.0933 96.8937 19.5964C96.1107 19.7319 96.0053 21.5387 95.7644 22.2765C95.5988 22.7583 94.2437 20.6654 93.7619 20.831C93.1446 21.0418 92.1659 22.6378 92.7531 24.7006C92.7531 24.7006 92.3918 25.8148 92.3767 25.7395C92.3767 25.7395 91.654 24.0682 91.4884 23.5864C91.1722 22.698 90.8409 22.1409 90.6753 21.6591C90.2688 20.4998 90.0429 19.2651 90.2085 18.0606C90.3742 16.8561 90.9764 15.6817 91.9702 14.959C92.0906 14.8987 92.196 14.8385 92.3014 14.7933Z" fill="#000036"/>
<path d="M100.991 48.7461C102.513 48.7461 103.747 47.5124 103.747 45.9907C103.747 44.469 102.513 43.2354 100.991 43.2354C99.4694 43.2354 98.2358 44.469 98.2358 45.9907C98.2358 47.5124 99.4694 48.7461 100.991 48.7461Z" fill="#DCDCDC"/>
<path d="M100.993 44.9516C100.752 44.9516 100.571 44.7559 100.571 44.5301V38.0106C100.571 37.047 100.33 35.7973 100.014 35.0595C99.9238 34.8487 100.014 34.5927 100.24 34.5024C100.451 34.4121 100.707 34.5024 100.797 34.7282C101.173 35.5865 101.429 36.9416 101.429 38.0256V44.5451C101.414 44.7559 101.234 44.9516 100.993 44.9516Z" fill="#367BF5"/>
<path d="M90.1199 42.7384C89.8941 42.7384 89.7134 42.5577 89.7134 42.3319V36.6104C89.7134 35.7221 89.8941 34.8488 90.2404 34.0357C90.3307 33.84 90.5566 33.7346 90.7673 33.8249C90.9631 33.9153 91.0685 34.1411 90.9781 34.3519C90.677 35.0596 90.5114 35.8275 90.5114 36.6104V42.3319C90.5264 42.5577 90.3458 42.7384 90.1199 42.7384Z" fill="#367BF5"/>
<path d="M89.5821 57.9909C89.3864 57.9909 89.1906 57.9758 88.9949 57.9307L87.8506 57.6747L87.956 57.223L89.1003 57.479C89.6875 57.6145 90.2897 57.5091 90.7866 57.1778C91.2835 56.8617 91.6448 56.3648 91.7653 55.7776L93.813 46.6082L94.2647 46.7136L92.217 55.883C91.9309 57.1327 90.8167 57.9909 89.5821 57.9909Z" fill="#DCDCDC"/>
<path d="M86.9611 57.8552L87.473 57.9757C87.744 58.0359 88.0151 57.8703 88.0753 57.5993L88.1204 57.3885C88.1807 57.1175 88.0151 56.8464 87.744 56.7862L87.0514 56.6356C86.7804 56.5754 86.5094 56.741 86.4492 57.0121V57.0422C86.3438 57.4035 86.5847 57.7799 86.9611 57.8552Z" fill="#367BF5"/>
<path d="M90.6782 57.9907C89.4436 57.9907 88.3143 57.1324 88.0433 55.8677L85.9956 46.7133L86.4473 46.6079L88.495 55.7773C88.6305 56.3645 88.9768 56.8614 89.4737 57.1776C89.9705 57.4938 90.5728 57.5992 91.16 57.4787L92.3043 57.2228L92.4097 57.6745L91.2654 57.9304C91.0697 57.9756 90.8739 57.9907 90.6782 57.9907Z" fill="#DCDCDC"/>
<path d="M92.6067 57.9607L93.1187 57.8403C93.4349 57.765 93.6456 57.4488 93.5704 57.1326V57.1025C93.4951 56.7863 93.1789 56.5755 92.8627 56.6508L92.3508 56.7712C92.0346 56.8465 91.8238 57.1627 91.8991 57.4789V57.509C91.9744 57.8252 92.2906 58.0209 92.6067 57.9607Z" fill="#367BF5"/>
<path d="M94.3964 47.1349H93.5984V46.2165C93.5984 44.3043 92.0325 42.7384 90.1203 42.7384C88.2081 42.7384 86.6422 44.3043 86.6422 46.2165V47.1349H85.8442V46.2165C85.8442 43.8526 87.7564 41.9404 90.1203 41.9404C92.4842 41.9404 94.3964 43.8526 94.3964 46.2165V47.1349Z" fill="#367BF5"/>
<path d="M100.977 47.5266C101.825 47.5266 102.512 46.839 102.512 45.9908C102.512 45.1427 101.825 44.4551 100.977 44.4551C100.129 44.4551 99.4409 45.1427 99.4409 45.9908C99.4409 46.839 100.129 47.5266 100.977 47.5266Z" fill="#367BF5"/>
<path d="M100.975 47.7976C99.981 47.7976 99.168 46.9846 99.168 45.9909C99.168 44.9971 99.981 44.1841 100.975 44.1841C101.968 44.1841 102.782 44.9971 102.782 45.9909C102.782 46.9846 101.968 47.7976 100.975 47.7976ZM100.975 44.7412C100.282 44.7412 99.71 45.3133 99.71 46.0059C99.71 46.6985 100.282 47.2707 100.975 47.2707C101.667 47.2707 102.24 46.6985 102.24 46.0059C102.24 45.2983 101.667 44.7412 100.975 44.7412Z" fill="#367BF5"/>
<path d="M101.579 45.9907C101.579 45.6594 101.308 45.3884 100.976 45.3884C100.645 45.3884 100.374 45.6594 100.374 45.9907C100.374 46.3219 100.645 46.593 100.976 46.593C101.308 46.593 101.579 46.337 101.579 45.9907Z" fill="#EEFAFB"/>
<path d="M102.016 66.7837L100.375 67.386L100.751 67.2204L99.4263 68.7712C99.0499 69.2078 98.3723 69.2681 97.9357 68.8766C97.499 68.5002 97.4388 67.8226 97.8303 67.386C97.9056 67.2957 97.9959 67.2204 98.1013 67.1602L99.8629 66.1363L100.164 65.9707L100.254 65.9858L101.986 66.2417C102.136 66.2718 102.242 66.4073 102.227 66.5579C102.182 66.6633 102.106 66.7536 102.016 66.7837Z" fill="#F4B6BB"/>
<path d="M98.5381 78.6933L115.025 81.0421C115.025 81.0421 116.516 61.3632 121.695 55.8374L105.991 52.6304C101.685 54.7533 98.5381 78.6933 98.5381 78.6933Z" fill="#FFF2E6"/>
<path d="M100.433 67.7774C100.237 67.7774 99.2284 67.687 98.9423 67.3558L95.7804 67.7473L94.7114 70.7435L98.9423 72.5051C99.1079 72.6256 99.2886 72.7008 99.4994 72.746L100.87 72.9869C101.803 73.1525 105.055 71.9781 105.402 71.0898L106.079 67.2956C106.109 67.0848 105.944 66.9041 105.733 66.9342C105.176 67.0095 104.227 67.1299 103.866 67.145L100.433 67.7774Z" fill="#F4B6BB"/>
<path d="M97.7536 66.5127L82.0947 61.7548C82.0947 61.7548 87.5 36.6706 83.8112 36.1888C81.0558 35.8274 78.1198 39.3055 77.6982 40.6455C74.3858 51.2002 74.3858 52.5552 73.6631 67.1149C73.6631 67.1149 73.9492 68.5453 76.1474 69.0873L96.4888 73.514L97.7536 66.5127Z" fill="white"/>
<path d="M157.907 86.1165C157.787 85.8003 157.651 85.4841 157.516 85.1679C157.38 84.8518 157.23 84.5506 157.094 84.2344C156.944 83.9183 156.793 83.6171 156.643 83.316C156.567 83.1654 156.492 83.0149 156.417 82.8643L156.191 82.4126L156.146 82.3223L156.086 82.247L155.965 82.0814C155.935 82.0362 155.905 81.991 155.875 81.9458C155.83 81.8706 155.83 81.8555 155.815 81.8404C155.815 81.8254 155.799 81.8103 155.799 81.7802C155.799 81.7501 155.784 81.7049 155.784 81.6598L155.769 81.5845V81.5694C155.769 81.5393 155.769 81.8555 155.769 81.72V81.6899C155.769 81.72 155.769 81.7501 155.754 81.7802V81.7953V81.8103V81.7802L155.769 81.735L155.799 81.6297L156.025 80.7564L156.251 79.868L156.296 79.7024V79.6422L156.311 79.4615V79.2959C156.311 79.1905 156.311 79.07 156.311 78.9646C156.311 78.7388 156.296 78.528 156.281 78.2871C156.266 78.0613 156.236 77.8203 156.176 77.5493C156.161 77.474 156.146 77.4138 156.116 77.3385C156.101 77.3084 156.101 77.2633 156.086 77.2181C156.07 77.1729 156.055 77.1428 156.04 77.0976C156.025 77.0525 156.01 77.0073 155.98 76.9621L155.95 76.8868C155.935 76.8567 155.92 76.8266 155.905 76.7965C155.845 76.6911 155.739 76.5405 155.589 76.405L155.498 76.3298L155.453 76.3147C155.167 76.1641 154.881 76.0286 154.595 75.8931L153.722 75.4715C153.436 75.336 153.134 75.2005 152.833 75.0951L152.607 75.0198L152.367 74.9445C152.201 74.8994 152.035 74.8542 151.87 74.8392C151.674 74.809 151.493 74.9445 151.463 75.1403C151.448 75.2306 151.463 75.3059 151.508 75.3661C151.599 75.5167 151.704 75.6522 151.794 75.7877L151.945 75.9835L152.111 76.1641C152.321 76.405 152.562 76.6309 152.803 76.8417L153.526 77.4891C153.767 77.6999 154.008 77.9107 154.249 78.1215L154.128 78.0161C154.053 77.9559 154.008 77.8806 153.993 77.8655L153.978 77.8505C153.978 77.8354 153.978 77.8505 153.978 77.8505C153.978 77.8505 153.978 77.8505 153.978 77.8655V77.8956V77.9709C153.993 78.0914 153.993 78.2419 153.993 78.4076C153.993 78.5732 153.978 78.7388 153.963 78.9195L153.932 79.1905L153.917 79.326L153.902 79.4465L153.947 79.2206L153.646 80.1089C153.556 80.4101 153.451 80.6961 153.36 81.0123L153.33 81.1328L153.315 81.193L153.3 81.2231L153.285 81.3135C153.27 81.3737 153.255 81.449 153.255 81.5092V81.5393V81.6899V81.7049V81.8555C153.255 81.9609 153.27 82.0663 153.285 82.1867C153.3 82.3072 153.33 82.4427 153.36 82.5782C153.436 82.8643 153.571 83.1202 153.676 83.316C153.737 83.4214 153.782 83.4967 153.842 83.5719C153.887 83.6472 153.948 83.7225 153.993 83.7827L153.887 83.6171L154.113 84.0688C154.188 84.2194 154.264 84.3699 154.339 84.5205C154.505 84.8216 154.655 85.1228 154.821 85.4239C154.986 85.725 155.152 86.0262 155.318 86.3122C155.483 86.6134 155.664 86.8995 155.845 87.2006C156.191 87.7577 156.914 87.9233 157.471 87.577C157.922 87.2307 158.103 86.6284 157.907 86.1165Z" fill="#F4B6BB"/>
<path d="M176.275 99.065L163.312 102.106L162.8 102.001C162.228 101.881 161.746 101.564 161.4 101.158L153.073 83.4965L156.596 82.292L165.194 95.7977L177.224 89.6245C179.904 89.5794 181.816 90.9043 182.117 93.5694C182.479 96.7764 176.607 99.1252 176.275 99.065Z" fill="#91D7E0"/>
<path d="M183.006 130.443C182.916 130.443 182.765 130.443 182.629 130.443H182.208L181.365 130.458C180.793 130.473 180.22 130.488 179.648 130.518C178.504 130.563 177.36 130.639 176.2 130.714C173.912 130.88 171.623 131.12 169.38 131.437C167.136 131.753 164.923 132.159 162.815 132.701C161.761 132.972 160.737 133.274 159.774 133.635C158.81 133.981 157.892 134.388 157.124 134.824L155.603 128.034L156.16 128.169L156.732 128.305L157.907 128.561C158.69 128.726 159.472 128.892 160.27 129.043C161.851 129.359 163.432 129.645 165.028 129.931C168.205 130.473 171.412 130.94 174.619 131.316C175.417 131.407 176.23 131.497 177.028 131.587C177.826 131.662 178.639 131.753 179.437 131.813C180.235 131.888 181.049 132.28 181.847 132.355C182.645 132.4 193.094 133.695 193.892 133.68H193.967C195.352 133.665 195.518 137.218 194.208 137.324C193.365 137.399 192.537 137.474 191.694 137.535L190.429 137.625L189.164 137.7C188.321 137.745 187.493 137.775 186.65 137.806C185.806 137.821 184.978 137.851 184.135 137.851C183.292 137.866 182.464 137.866 181.621 137.866C180.778 137.851 179.949 137.851 179.106 137.836C178.263 137.821 177.435 137.79 176.592 137.76C175.749 137.73 174.921 137.7 174.077 137.655C170.735 137.489 167.392 137.218 164.065 136.872C162.393 136.691 160.737 136.511 159.066 136.285C158.238 136.179 157.395 136.059 156.567 135.939L155.317 135.743L154.685 135.637L154.022 135.532C151.974 135.186 150.604 133.243 150.95 131.211C151.116 130.247 151.628 129.434 152.336 128.877L152.501 128.742C153.646 127.733 154.82 126.905 156.009 126.182C157.199 125.444 158.388 124.812 159.578 124.225C161.972 123.05 164.381 122.102 166.805 121.228C169.229 120.37 171.653 119.617 174.092 118.925C175.312 118.578 176.547 118.262 177.781 117.946C178.399 117.795 179.016 117.645 179.648 117.494L180.597 117.283L181.079 117.178C181.244 117.148 181.395 117.118 181.591 117.073L182.118 116.982C185.806 116.305 189.345 118.759 190.022 122.448C190.7 126.137 188.246 129.675 184.557 130.353C184.045 130.428 183.503 130.458 183.006 130.443Z" fill="#11A2C5"/>
<path d="M192 133.452L192.828 133.272C193.294 131.736 195.402 131.766 195.959 132.444L196.652 133.031C197.751 133.964 198.429 134.416 199.814 134.777L204.421 136.117C205.054 136.298 205.415 137.006 205.144 137.608C205.084 137.744 205.008 137.834 204.903 137.849C204.496 137.894 195.734 137.713 192.391 137.653C192.376 137.623 192.813 135.124 192 133.452Z" fill="#465C7C"/>
<path d="M193.048 135.607L178.609 134.072L176.2 133.921C175.402 133.861 174.589 133.786 173.791 133.725L172.586 133.62L171.773 133.545C173.776 133.243 175.808 133.003 177.841 132.792C179.136 132.656 180.431 132.551 181.71 132.445C182.358 132.4 183.005 132.355 183.638 132.31L184.601 132.25C184.918 132.235 185.234 132.22 185.52 132.205C185.911 132.19 186.363 132.144 186.754 132.054C190.398 131.271 191.377 126.844 190.579 123.201C189.796 119.557 187.974 118.714 187.974 118.714L183.698 118.879C183.306 118.97 182.975 119.045 182.629 119.12L181.59 119.376C180.913 119.542 180.22 119.723 179.542 119.903C178.187 120.265 176.832 120.626 175.492 121.018C172.797 121.8 170.132 122.644 167.467 123.592C166.805 123.833 166.142 124.074 165.464 124.33C164.802 124.586 164.14 124.842 163.477 125.113C163.146 125.248 162.815 125.384 162.483 125.519C162.152 125.655 161.821 125.79 161.49 125.941L160.496 126.378L159.502 126.844C159.171 126.995 158.84 127.176 158.508 127.326L158.012 127.567L157.515 127.838C156.852 128.184 156.19 128.561 155.542 128.952L154.549 129.57L153.57 130.247C153.239 130.488 152.907 130.744 152.591 131C152.26 131.271 151.929 131.557 151.612 131.843L151.492 131.934C150.769 132.521 150.272 133.364 150.137 134.343C149.866 136.39 151.296 138.287 153.359 138.558L154.022 138.649L154.654 138.724L155.919 138.875C156.762 138.965 157.59 139.055 158.433 139.146C159.261 139.236 160.104 139.296 160.932 139.371L163.432 139.567L165.931 139.733C166.759 139.778 167.603 139.823 168.446 139.853C169.274 139.898 170.117 139.914 170.96 139.944L172.21 139.989L173.46 140.004C174.303 140.019 175.131 140.034 175.974 140.034L178.488 140.019H179.121L179.753 140.004L181.003 139.974C181.846 139.944 182.674 139.944 183.517 139.883L186.032 139.748C186.875 139.688 187.703 139.612 188.546 139.552L189.796 139.447C190.217 139.402 190.639 139.356 191.046 139.311L193.876 139.206C195.186 139.1 194.433 135.532 193.048 135.607Z" fill="#11B2D8"/>
<path d="M192.914 135.607C193.411 135.532 193.411 135.216 193.411 135.216C193.411 134.869 193.637 134.433 193.847 134.207C194.389 133.56 195.488 133.635 196.166 134.132L196.648 134.493C197.747 135.427 199.117 136.119 200.502 136.465L204.974 137.414C205.712 137.565 206.164 138.348 205.893 139.04C205.832 139.191 205.757 139.296 205.652 139.311C205.275 139.356 193.757 139.251 193.757 139.251C194.043 137.309 192.673 135.637 192.914 135.607Z" fill="#6884AF"/>
<path d="M146.462 80.0787C146.026 78.1514 147.065 76.2543 148.781 75.8628L150.227 75.5316C150.663 75.4262 151.1 75.7574 151.22 76.2392L151.431 77.1878C151.491 77.4739 151.762 77.6696 152.018 77.6094L152.952 77.3986C153.208 77.3384 153.373 77.0523 153.298 76.7662L153.283 76.6759L154.412 76.4199C154.909 76.3145 155.406 76.6608 155.542 77.2179L155.858 78.6182C155.978 79.1753 155.677 79.7173 155.195 79.8227L154.066 80.0787C154.006 79.7926 153.735 79.5968 153.479 79.6571L152.545 79.8679C152.289 79.9281 152.124 80.2142 152.199 80.5002L152.41 81.4488C152.515 81.9306 152.259 82.4124 151.823 82.5178L150.377 82.8491C148.646 83.2556 146.899 81.9908 146.462 80.0787Z" fill="white"/>
<path d="M153.705 77.218L154.608 78.6634L154.533 78.3322L153.84 80.6659C153.72 81.0725 153.945 81.5091 154.367 81.6446C154.774 81.7651 155.21 81.5392 155.346 81.1176C155.361 81.0574 155.376 80.9821 155.376 80.9219L155.466 78.4827V78.3924C155.466 78.3021 155.436 78.2117 155.391 78.1364L154.412 76.7512C154.277 76.5706 154.021 76.5254 153.84 76.6458C153.644 76.7964 153.584 77.0373 153.705 77.218Z" fill="#F4B6BB"/>
<path d="M185.398 128.094C185.338 128.094 185.293 128.094 185.248 128.094C178.879 128.049 172.104 125.414 164.545 120.054C162.272 118.443 160.043 116.696 157.89 115.01C156.927 114.242 155.948 113.474 154.954 112.721C152.319 114.739 149.428 116.486 146.417 117.856C137.775 121.785 129.313 122.102 122.568 118.744C120.655 117.795 119.029 116.064 118.096 114.016C117.132 111.863 117.042 109.605 117.855 107.692C119.315 104.245 123.049 102.784 125.142 102.227C128.575 101.309 132.309 101.293 136.269 102.167C139.717 102.935 143.255 104.365 146.763 106.413C149.624 108.069 152.334 110.026 154.954 112.029C158.824 109.017 162.091 105.434 164.304 101.67C168.671 94.2922 166.939 86.8241 164.139 82.6835C161.88 79.341 158.748 77.6245 155.767 78.0762C155.617 78.1063 155.466 78.001 155.451 77.8353C155.421 77.6848 155.526 77.5342 155.692 77.5191C158.899 77.0373 162.241 78.8441 164.62 82.3674C167.511 86.6585 169.303 94.3674 164.801 101.956C162.558 105.735 159.29 109.334 155.421 112.375C156.369 113.113 157.318 113.851 158.251 114.573C160.405 116.26 162.618 118.006 164.876 119.602C172.344 124.887 178.999 127.492 185.263 127.537C185.308 127.537 185.353 127.537 185.398 127.537C187.582 127.537 189.102 127.115 190.156 126.212C190.277 126.107 190.442 126.122 190.548 126.242C190.653 126.363 190.638 126.528 190.518 126.634C188.982 127.929 186.904 128.094 185.398 128.094ZM130.578 102.091C128.741 102.091 126.964 102.317 125.278 102.769C123.275 103.311 119.722 104.681 118.352 107.918C116.831 111.502 118.909 116.335 122.793 118.262C129.388 121.545 137.684 121.228 146.176 117.359C149.112 116.019 151.913 114.332 154.487 112.39C151.913 110.433 149.263 108.521 146.477 106.894C141.057 103.733 135.576 102.091 130.578 102.091Z" fill="white"/>
<path d="M166.758 75.5467C166.186 74.2217 165.614 72.8215 165.825 71.4062C166.036 69.9156 166.171 68.0485 167.436 67.2204C168.731 66.3622 169.95 65.504 172.766 66.7085C173.895 67.1903 176.651 67.1301 177.614 67.8829C180.58 70.2317 182.372 74.3572 180.324 78.287C179.843 79.2055 179.993 80.3799 180.279 81.3736C180.475 82.0662 180.912 82.6685 181.168 83.346C181.424 84.0236 181.439 84.8818 180.912 85.3787C180.339 85.9207 179.376 85.74 178.728 85.3034C178.081 84.8517 177.614 84.1892 177.012 83.6773C176.349 83.1202 175.521 82.7588 174.889 82.1566C174.076 81.3887 173.669 80.2895 172.917 79.4614C171.095 77.4288 167.572 77.218 166.337 74.7788" fill="#100D31"/>
<path d="M174.874 79.085C174.874 79.085 175.476 82.8642 178.307 84.686C179.09 85.1829 172.751 91.5518 172.751 91.5518C172.751 91.5518 173.383 83.4212 171.637 81.9005C169.89 80.3798 174.874 79.085 174.874 79.085Z" fill="#ECAEB3"/>
<path d="M176.2 76.405C175.793 79.7024 172.315 81.9308 169.68 81.9007C166.594 81.8555 166.323 78.528 166.729 75.2306C167.136 71.9332 169.59 69.5091 172.21 69.8403C174.83 70.1565 176.621 73.1076 176.2 76.405Z" fill="#F4B6BB"/>
<path d="M167.723 71.9784C168.145 71.06 169.184 71.1503 169.846 71.8429C170.509 72.5355 170.915 73.6497 171.307 74.6886C171.698 75.7275 172.165 76.8116 172.888 77.3536C173.505 77.8204 174.228 77.8354 174.875 78.2269C175.824 78.799 176.516 80.2445 176.531 81.6749C176.531 82.0362 176.516 82.4427 176.667 82.7439C176.938 83.2859 177.525 83.0751 177.856 82.6686C178.428 81.9308 178.684 80.7715 178.684 79.6121C178.684 78.4527 178.474 77.3085 178.218 76.1792C177.796 74.3122 177.239 72.4452 176.32 70.9395C175.131 68.9822 173.324 67.7927 171.593 67.9131C169.861 68.0336 168.28 69.5393 167.633 71.7676C167.783 71.6622 167.934 71.5568 168.085 71.4514" fill="#100D31"/>
<path d="M177.42 84.43C178.7 84.159 179.588 85.1076 179.588 85.1076C183.458 88.4502 187.568 102.739 189.646 114.769C191.076 123.005 191.754 130.217 190.082 131.888C186.454 135.532 175.101 133.77 172.286 133.77C171.503 133.77 160.346 133.785 160.346 133.785L172.813 137.956C173.701 139.778 174.665 140.079 174.665 140.079C163.944 139.432 154.624 140.32 151.568 138.257C149.535 136.887 149.55 133.168 151.598 131.512C151.974 131.211 154.564 129.6 154.564 129.6C153.796 128.967 152.983 128.41 153.345 128.019C154.775 126.498 160.225 123.999 160.225 123.999C162.86 122.598 174.077 118.925 174.077 118.925C174.153 118.879 172.858 105.073 172.24 104.787C172.225 104.787 171.171 104.214 171.156 104.199C169.244 103.311 168.326 101.113 169.048 99.1253C169.485 97.9057 170.072 96.2796 170.72 94.2921C171.713 91.2958 172.828 87.7124 172.828 87.7124C172.828 87.7124 175.463 86.4175 177.42 84.43Z" fill="#EEFAFB"/>
<path d="M172.419 126.438C170.748 124.029 166.908 122.342 166.908 122.342L173.473 118.563C173.473 118.563 177.915 119.03 179.059 122.342L172.419 126.438Z" fill="#A5D2EF"/>
<path d="M163.448 122.177C163.358 122.222 163.252 122.282 163.162 122.342C163.072 122.403 162.966 122.463 162.876 122.508C162.786 122.568 162.68 122.628 162.59 122.689C162.5 122.749 162.409 122.809 162.319 122.869L161.777 123.216C161.687 123.276 161.611 123.321 161.521 123.366C161.446 123.411 161.37 123.457 161.295 123.487L161.22 123.532H161.205C161.205 123.532 161.205 123.532 161.22 123.532C161.22 123.532 161.22 123.532 161.25 123.532C161.265 123.532 161.28 123.532 161.295 123.532C161.16 123.547 161.476 123.517 161.446 123.517H161.431C161.476 123.517 161.536 123.517 161.596 123.517H161.641H161.611L161.476 123.487C161.265 123.442 161.039 123.396 160.813 123.351L159.473 123.065L158.796 122.915L158.374 123.321L157.877 123.803C157.712 123.968 157.546 124.134 157.395 124.3C157.23 124.465 157.079 124.631 156.914 124.812L156.793 124.947L156.673 125.098C156.628 125.143 156.582 125.203 156.537 125.263L156.507 125.309L156.462 125.369L156.387 125.474L156.296 125.595L156.266 125.67C156.161 126.001 156.055 126.332 155.965 126.664L155.679 127.672C155.589 128.004 155.498 128.35 155.438 128.696L155.393 128.952L155.363 129.223C155.348 129.404 155.318 129.585 155.333 129.765C155.333 129.961 155.498 130.112 155.679 130.112C155.769 130.112 155.86 130.081 155.92 130.021C156.055 129.901 156.176 129.75 156.296 129.615L156.462 129.404L156.628 129.193C156.838 128.907 157.034 128.621 157.215 128.32L157.757 127.431C157.938 127.13 158.103 126.829 158.284 126.528L158.163 126.739L158.193 126.724L158.224 126.694L158.314 126.603L158.419 126.498L158.54 126.393C158.69 126.257 158.856 126.107 159.022 125.971L159.518 125.549L160.015 125.128L158.916 125.399C159.368 125.534 159.82 125.655 160.271 125.775C160.497 125.835 160.723 125.896 160.964 125.956L161.16 126.001L161.22 126.016L161.265 126.031H161.28L161.34 126.046C161.401 126.061 161.476 126.061 161.536 126.061H161.551L161.702 126.046H161.717C161.762 126.046 161.807 126.031 161.852 126.016C161.897 126.001 161.927 126.001 161.958 125.986L162.048 125.956L162.199 125.911L162.334 125.866L162.454 125.82C162.741 125.685 162.966 125.549 163.192 125.414C163.418 125.278 163.614 125.143 163.81 124.992C163.915 124.917 164.005 124.842 164.096 124.766C164.186 124.691 164.291 124.616 164.382 124.541C164.472 124.465 164.562 124.39 164.653 124.3C164.743 124.209 164.833 124.134 164.924 124.044C165.375 123.577 165.36 122.824 164.879 122.372C164.502 122.011 163.96 121.951 163.523 122.177H163.448Z" fill="#F4B6BB"/>
<path d="M182.445 111.411L182.43 110.824C182.43 110.824 181.587 94.4578 181.557 94.2319C181.286 91.0851 179.84 87.9082 176.754 89.1579C175.052 89.8505 174.284 93.7501 174.766 97.2432L175.474 110.071L161.381 123.427L163.323 126.483L181.195 113.805C181.978 113.294 182.475 112.405 182.445 111.411Z" fill="#91D7E0"/>
<path d="M189.523 97.5745C186.722 98.3725 186.421 94.6083 185.894 92.6359C185.759 92.1842 185.186 90.6334 185.081 90.257C184.765 89.0977 184.464 87.9232 183.816 86.9295C183.425 86.3423 182.928 85.8454 182.341 85.454C182.07 85.2733 181.769 85.1077 181.452 85.1077C181.151 85.1077 180.835 85.2883 180.745 85.5594C180.489 85.7702 180.323 86.1014 180.278 86.4326C180.203 86.8843 180.323 87.336 180.474 87.7727C180.85 88.7363 181.498 89.5795 182.009 90.4829C182.341 91.0701 182.612 91.6874 182.838 92.3198C184.087 94.774 182.747 98.1316 185.262 100.134C186.602 101.143 188.243 101.098 189.357 99.848C189.854 99.0801 189.764 98.1918 189.523 97.5745Z" fill="#100D31"/>
<path d="M281.309 108.249C288.594 108.249 294.499 102.344 294.499 95.0599C294.499 87.7755 288.594 81.8704 281.309 81.8704C274.025 81.8704 268.12 87.7755 268.12 95.0599C268.12 102.344 274.025 108.249 281.309 108.249Z" fill="#FBFCFF"/>
<path d="M281.31 107.15C278.298 107.15 275.287 106.036 272.953 103.793C270.619 101.564 269.294 98.5529 269.219 95.3157C269.144 92.0786 270.348 89.0221 272.577 86.6883C277.184 81.8702 284.863 81.7046 289.681 86.3119C294.499 90.9192 294.665 98.598 290.057 103.416C287.678 105.9 284.502 107.15 281.31 107.15ZM281.31 83.8426C278.358 83.8426 275.407 85.002 273.209 87.2906C271.131 89.4587 270.032 92.2893 270.092 95.2856C270.153 98.2819 271.387 101.067 273.555 103.145C278.027 107.421 285.134 107.271 289.41 102.799C293.686 98.327 293.535 91.2203 289.064 86.9443C286.896 84.8815 284.11 83.8426 281.31 83.8426Z" fill="#EAEAEA"/>
<path d="M274.245 103.311C274.019 103.311 273.793 103.22 273.613 103.055C273.251 102.708 273.236 102.136 273.583 101.775L287.525 87.2153C287.871 86.8539 288.443 86.8389 288.805 87.1852C289.166 87.5315 289.181 88.1036 288.835 88.465L274.893 103.025C274.727 103.22 274.486 103.311 274.245 103.311Z" fill="#EAEAEA"/>
<path d="M269.745 87.8176C269.67 88.1639 269.58 88.4952 269.489 88.8264C269.444 88.992 269.384 89.1576 269.339 89.3233C269.293 89.4889 269.233 89.6545 269.173 89.8201C269.068 90.1514 268.947 90.4676 268.827 90.7988C268.706 91.1301 268.586 91.4462 268.45 91.7624L268.51 91.5516C268.465 91.7925 268.42 91.9281 268.36 92.0786C268.315 92.2292 268.255 92.3496 268.209 92.4851C268.104 92.7411 267.999 92.9971 267.878 93.238C267.758 93.4789 267.637 93.7348 267.487 93.9908C267.411 94.1263 267.336 94.2468 267.231 94.4124C267.186 94.4877 267.125 94.563 267.035 94.6683L266.96 94.7436L266.869 94.834C266.749 94.9695 267.035 94.6533 267.005 94.6834C267.005 94.6834 267.005 94.6985 267.005 94.6834C267.05 94.6382 267.08 94.578 267.11 94.5178C267.125 94.4877 267.14 94.4576 267.155 94.4274L267.17 94.3823L267.186 94.3522C267.201 94.307 267.216 94.2618 267.216 94.2468V94.2166C267.216 94.2016 267.216 94.2016 267.216 94.2016C267.216 94.2016 267.201 94.2468 267.201 94.2919L267.17 94.4425L267.125 94.7888L267.035 95.5115L266.93 96.2342L266.824 96.9569L266.643 96.3095C266.734 96.5052 266.809 96.6859 266.899 96.8817C266.99 97.0774 267.065 97.2581 267.14 97.4538C267.186 97.5592 267.216 97.6495 267.246 97.7549C267.276 97.8603 267.306 97.9657 267.336 98.0711C267.351 98.1163 267.366 98.1765 267.366 98.2368C267.381 98.297 267.396 98.3421 267.396 98.4024C267.411 98.5078 267.426 98.6282 267.441 98.7487C267.457 98.9745 267.276 99.1552 267.05 99.1703C266.99 99.1703 266.93 99.1552 266.869 99.1401C266.764 99.095 266.659 99.0347 266.553 98.9745C266.508 98.9444 266.463 98.9143 266.418 98.8842C266.372 98.8541 266.327 98.824 266.282 98.7938C266.192 98.7336 266.101 98.6734 266.026 98.5981C265.936 98.5379 265.861 98.4626 265.785 98.3873C265.635 98.2518 265.484 98.1012 265.334 97.9507C265.183 97.8001 265.032 97.6495 264.882 97.514L264.731 97.3635L264.701 96.8817C264.686 96.6257 264.671 96.3848 264.656 96.1288C264.641 95.8729 264.626 95.632 264.626 95.376C264.626 95.12 264.611 94.8791 264.611 94.6232V94.2317C264.611 94.1564 264.611 94.0962 264.626 94.0209C264.626 93.9456 264.641 93.8704 264.656 93.7499L264.671 93.6897V93.6596L264.686 93.6144C264.686 93.5993 264.716 93.524 264.731 93.4638L264.746 93.4337L264.761 93.3885C264.776 93.3584 264.792 93.3283 264.807 93.2982C264.837 93.238 264.882 93.1777 264.912 93.1175V93.1025C264.882 93.1326 265.168 92.8164 265.047 92.9519C265.032 92.967 265.032 92.967 265.017 92.982L265.002 92.9971C265.002 92.9971 265.002 92.982 265.032 92.9519C265.063 92.8917 265.108 92.8164 265.153 92.726C265.243 92.5454 265.334 92.3496 265.424 92.1539C265.514 91.9582 265.59 91.7474 265.665 91.5366C265.695 91.4312 265.74 91.3408 265.755 91.2505L265.785 91.1301C265.8 91.0999 265.8 91.0698 265.8 91.0698L265.725 91.2505L265.845 90.859C265.951 90.5278 266.056 90.1966 266.177 89.8804C266.282 89.5491 266.403 89.2329 266.538 88.9167C266.598 88.7511 266.659 88.6006 266.734 88.4349C266.794 88.2693 266.869 88.1187 266.93 87.9531C267.065 87.6369 267.201 87.3207 267.366 87.0046C267.682 86.3872 268.435 86.1463 269.053 86.4625C269.61 86.7034 269.866 87.2756 269.745 87.8176Z" fill="#F4B6BB"/>
<path d="M282.663 73.7699C282.452 73.5892 280.781 71.8276 280.074 71.2855C279.381 70.7435 278.703 70.2768 278.086 69.8251C277.469 69.3884 276.897 68.9969 276.385 68.6506C275.873 68.3194 275.436 68.0183 275.06 67.7924C274.683 67.5515 274.397 67.3708 274.186 67.2504C274.081 67.1902 274.006 67.145 273.961 67.1149C273.9 67.0848 273.885 67.0697 273.885 67.0697L273.87 67.0546C271.521 65.6845 268.525 66.4674 267.14 68.8012C266.026 70.6983 272.229 74.7937 274.217 76.6607C267.26 80.6357 263.873 89.1728 263.873 89.1728C263.617 90.3321 268.435 92.154 268.796 91.7926C268.796 91.7926 274.668 81.8854 282.844 81.6896C283.22 81.7047 289.815 82.0209 282.663 73.7699Z" fill="#91D7E0"/>
<path d="M234.692 68.47C234.692 68.47 235.716 69.7197 236.303 69.268C236.891 68.8163 236.002 71.9631 236.002 71.9631C236.002 71.9631 235.4 71.9781 235.144 71.6921C234.888 71.3759 234.692 68.47 234.692 68.47Z" fill="#F4B6BB"/>
</g>
<defs>
<linearGradient id="paint0_linear" x1="270.862" y1="85.535" x2="270.862" y2="107.74" gradientUnits="userSpaceOnUse">
<stop stop-color="white"/>
<stop offset="1" stop-color="#88C4EB"/>
</linearGradient>
</defs>
</svg>
