<svg width="322" height="222" viewBox="0 0 322 222" fill="none" xmlns="http://www.w3.org/2000/svg">
<mask id="mask0" mask-type="alpha" maskUnits="userSpaceOnUse" x="0" y="0" width="322" height="222">
<rect width="322" height="222" fill="#C4C4C4"/>
</mask>
<g mask="url(#mask0)">
<path fill-rule="evenodd" clip-rule="evenodd" d="M167.628 213.965C141.736 214.05 114.434 223.306 91.9271 210.589C68.1842 197.174 52.9956 171.703 46.3007 145.414C39.7477 119.682 44.4592 92.3884 55.6945 68.3119C66.2501 45.692 84.6763 27.7146 106.762 15.849C127.302 4.8141 151.038 1.50895 174.184 4.65335C195.628 7.56665 213.845 19.4507 230.879 32.711C247.823 45.9006 265.332 60.0158 271.577 80.4688C277.857 101.037 269.66 122.089 264.543 142.967C258.726 166.701 259.603 195.597 239.806 210.099C219.937 224.655 192.327 213.883 167.628 213.965Z" fill="#B3DFE4"/>
<path d="M115.2 81.2759L118.061 90.7156C125.069 90.5011 133.15 85.7812 133.15 85.7812L129.789 80.0602L115.2 81.2759Z" fill="white"/>
<path d="M119.708 45.9499C118.85 40.8725 110.411 37.7259 109.767 43.0894C108.623 52.7436 112.342 80.7052 112.342 80.7052L114.559 87.0698C116.418 84.4953 121.424 79.1319 121.424 79.1319C119.422 68.1189 121.281 54.8175 119.708 45.9499Z" fill="white"/>
<path d="M94.2462 215.863C90.9566 215.505 86.2367 209.498 85.9507 206.923L79.443 205.493C79.443 205.493 78.1558 209.855 77.7267 215.648C77.6552 216.578 78.2273 217.436 79.157 217.722C79.8006 217.936 80.6588 218.151 81.4454 218.294H96.9637C97.1067 218.222 97.1782 218.151 97.3212 218.079C97.3212 218.079 97.5358 216.22 94.2462 215.863Z" fill="#F6F8FA"/>
<path d="M89.956 148.141C86.7379 147.998 83.9489 150.501 83.8059 153.791V153.862C83.8059 153.862 82.5186 158.868 81.9465 165.376C81.3744 171.883 80.8739 192.765 80.3733 197.628C79.8727 202.491 79.5151 205.781 79.5151 205.781V205.852C79.3721 207.497 85.6652 208.641 86.0228 206.853C86.0228 206.853 86.6664 203.635 87.6676 198.772C88.6687 193.909 89.956 187.473 91.1717 180.966C92.3874 174.458 93.5316 167.95 94.3183 163.087C94.6758 160.656 95.0334 158.582 95.2479 157.08C95.4625 155.65 95.534 154.792 95.534 154.792C95.534 154.577 95.6055 154.434 95.6055 154.22C95.7485 151.002 93.2456 148.213 89.956 148.141Z" fill="#D4916D"/>
<path d="M99.4669 5.25807C89.2405 6.25925 87.3812 10.1925 86.4515 18.3449C84.6637 33.0051 96.2488 33.7917 97.9651 33.2196C105.259 30.8597 111.839 26.5689 111.839 18.3449C111.767 10.121 107.047 4.47143 99.4669 5.25807Z" fill="#0F353E"/>
<path d="M129.86 214.862C126.499 214.719 119.991 208.926 119.49 206.352L113.126 206.852C113.126 206.852 112.053 210.928 112.983 217.365C112.983 217.365 114.055 217.937 121.922 218.294H130.146C131.218 218.008 132.22 217.651 133.078 217.007C133.078 217.007 133.221 215.076 129.86 214.862Z" fill="#F6F8FA"/>
<path d="M93.9623 92.0035C88.5273 92.0035 84.165 96.4373 84.165 101.872L84.3081 154.506C84.3081 157.295 86.3819 159.726 89.2425 160.227C92.389 160.727 95.321 158.511 95.8216 155.364L103.76 103.374V103.303C103.831 102.802 103.831 102.373 103.831 101.872C103.76 96.3658 99.3973 91.932 93.9623 92.0035Z" fill="#D4916D"/>
<path d="M119.848 153.289C119.848 153.075 119.848 152.86 119.777 152.717C119.777 152.503 119.705 152.36 119.705 152.145C119.705 150.644 119.634 148.427 119.634 145.709C119.562 140.703 119.348 134.053 119.061 127.402C118.775 120.751 118.489 114.1 118.275 109.095C117.989 104.089 117.846 100.799 117.846 100.799C117.846 100.298 117.774 99.7978 117.631 99.2973C116.559 94.0053 111.338 90.5727 105.975 91.6454C100.683 92.7181 97.25 97.9385 98.3227 103.302V103.373C98.3227 103.373 98.9664 106.592 99.9675 111.454C100.969 116.317 102.256 122.753 103.472 129.261C104.759 135.697 105.903 142.205 106.761 147.068C107.333 150.5 107.762 153.075 107.977 154.362C107.905 154.791 107.476 159.511 107.977 164.159C108.478 169.094 112.84 207.139 112.84 207.139C112.983 208.783 119.419 208.784 119.491 206.924C119.491 206.924 119.777 193.551 119.848 180.25C119.92 173.599 119.92 166.877 119.848 161.871C119.991 156.722 119.848 153.289 119.848 153.289Z" fill="#D4916D"/>
<path opacity="0.05" d="M119.848 153.289C119.848 153.075 119.848 152.932 119.777 152.717C119.777 152.503 119.705 152.36 119.705 152.145C119.705 150.644 119.634 148.427 119.634 145.709C119.562 140.703 119.348 134.053 119.061 127.402C118.775 120.751 118.489 114.1 118.275 109.095C117.989 104.089 117.846 100.799 117.846 100.799C117.846 100.298 117.774 99.7978 117.631 99.2973C116.559 94.0053 111.338 90.5727 105.975 91.6454C100.683 92.7181 97.25 97.9385 98.3227 103.302V103.373C98.3227 103.373 98.9664 106.592 99.9675 111.454C100.969 116.317 102.256 122.753 103.472 129.261C104.759 135.697 105.903 142.205 106.761 147.068C107.333 150.5 107.762 153.075 107.977 154.362C107.905 154.791 107.476 159.511 107.977 164.159C108.478 169.094 112.84 207.139 112.84 207.139C112.911 207.639 113.483 207.997 114.342 208.211C112.84 201.99 108.978 166.662 114.342 157.795C115.7 155.506 117.703 154.577 119.777 154.505C119.848 153.719 119.848 153.289 119.848 153.289Z" fill="black"/>
<path d="M91.9561 18.0584C91.9561 18.0584 92.2421 27.4981 95.8893 31.0022C99.6079 34.5779 107.26 34.3633 109.477 31.3598C112.909 26.7115 108.118 9.61987 108.118 9.61987L91.9561 18.0584Z" fill="#D4916D"/>
<path opacity="0.05" d="M89.9559 148.141C86.7378 147.998 83.9488 150.501 83.8057 153.791V153.862C83.8057 153.862 82.5185 158.868 81.9464 165.376C81.3743 171.883 80.8737 192.765 80.3731 197.628C79.8725 202.491 79.515 205.781 79.515 205.781V205.852C79.4435 206.21 79.801 206.567 80.3016 206.925C80.5162 203.993 81.0167 201.061 81.5888 198.415C84.0203 186.83 83.6627 174.029 86.9523 161.657C88.0965 157.438 91.9582 156.151 95.2478 157.08C95.4623 155.722 95.5339 154.935 95.5339 154.935C95.5339 154.72 95.6054 154.577 95.6054 154.363C95.7484 151.002 93.2455 148.213 89.9559 148.141Z" fill="black"/>
<path d="M115.056 82.7047C107.476 83.0623 99.9669 83.2768 92.3865 83.7774C92.315 83.9204 92.2435 84.135 92.172 84.278C88.3818 92.2159 88.8824 101.656 89.0254 110.166C89.0969 113.026 89.24 115.815 89.4545 118.676C89.7405 119.105 90.0266 119.605 90.0981 120.249C90.8132 123.968 90.8847 127.615 90.8132 131.262C91.2423 134.48 91.7429 137.627 92.315 140.845C92.6011 142.489 91.9574 143.777 90.9563 144.635C90.9563 145.207 91.0278 145.851 91.0278 146.423L121.564 145.779C121.564 142.704 118.274 92.4305 116.701 89.0694C116.129 87.4246 115.485 84.7786 115.056 82.7047Z" fill="#1C437A"/>
<path d="M114.558 79.7737L116.918 63.1827C116.56 59.6786 116.274 56.1029 115.773 52.5988C115.13 47.5929 114.558 43.1591 110.553 39.655C110.052 39.2259 109.766 38.7968 109.552 38.2962C106.262 37.8672 102.901 37.8672 99.6116 38.5108C93.819 39.7265 89.3137 43.7312 84.0933 46.3057C84.2363 48.6656 85.309 51.3116 85.7381 54.3151L88.5271 76.7702C90.1004 77.0562 91.4591 78.2719 91.2446 80.4173C90.887 84.8511 90.744 89.2849 90.3149 93.7187H117.776C117.418 91.2158 117.061 89.4995 116.846 88.8559C115.487 86.1384 114.558 79.7737 114.558 79.7737Z" fill="#00758C"/>
<path d="M106.69 37.5104C106.69 37.5104 106.619 37.3674 106.547 37.1528C106.476 36.9383 106.333 36.6522 106.19 36.2947C105.904 35.5795 105.618 34.5068 105.332 33.5057C105.117 32.433 104.903 31.3603 104.831 30.5021C104.76 30.073 104.76 29.787 104.76 29.5724C104.76 29.5009 104.76 29.4294 104.76 29.3579V29.2864V29.2149C104.831 27.2125 103.401 25.4962 101.47 25.1386C99.3247 24.7811 97.3223 26.2828 96.9647 28.4282C96.9647 28.4282 96.9647 28.6428 96.8932 29.0003C96.8217 29.3579 96.7502 29.787 96.7502 30.3591C96.6072 31.4318 96.5356 32.9336 96.6072 34.4353C96.6072 35.9371 96.8217 37.4389 96.9647 38.5831C97.0362 39.1552 97.1793 39.6558 97.2508 39.9418C97.3223 40.2994 97.3938 40.4424 97.3938 40.4424C97.4653 40.7285 97.5368 41.086 97.6798 41.3721C98.7525 43.875 101.613 45.0192 104.116 44.0181C106.547 42.8738 107.763 40.0133 106.69 37.5104Z" fill="#D4916D"/>
<path opacity="0.05" d="M103.614 33.7915C102.827 33.8631 102.112 33.72 101.325 33.577C100.61 33.5055 99.8951 33.434 99.1799 33.1479C98.1788 32.7904 97.3921 32.3613 96.6055 31.7892C96.6055 31.9322 96.6055 32.0752 96.6055 32.2183C98.1072 33.72 99.5375 35.2218 101.468 35.4363C102.756 35.5794 103.971 35.3648 105.259 35.0788C105.402 35.0073 105.545 35.0073 105.688 34.9358C105.545 34.5067 105.473 34.0776 105.33 33.577C104.758 33.6485 104.186 33.72 103.614 33.7915Z" fill="black"/>
<path d="M95.677 37.3665C95.677 37.295 95.677 37.295 95.677 37.2235C94.3898 37.438 93.2456 37.6526 92.3874 38.0102C77.0122 44.8754 81.2314 46.8778 82.3041 53.9575C82.3041 53.9575 88.0967 83.7784 86.9524 84.8511C86.9524 84.8511 82.9477 99.2967 82.1611 107.235C81.1599 117.032 78.943 153.074 78.5854 154.934L111.767 154.433C112.197 147.782 110.123 82.0621 109.837 79.1301C107.62 59.8931 98.466 49.9528 95.677 37.3665Z" fill="white"/>
<path opacity="0.05" d="M86.8094 63.6116C85.3077 58.3197 84.4495 52.7417 85.0931 47.6642C83.9489 46.8061 83.2338 45.4473 82.9477 44.0171C81.1599 46.8061 81.732 49.9527 82.3041 53.9574C82.3041 53.9574 88.0967 83.7783 86.9524 84.851C86.9524 84.851 82.9477 99.2966 82.1611 107.234C81.1599 117.032 78.943 153.074 78.5854 154.934L89.7414 154.791C86.1658 148.64 85.4507 141.06 85.5222 133.766C85.5937 122.467 87.5961 111.454 89.956 100.441C91.4578 93.5755 92.8165 86.3527 91.6723 79.3445C90.6711 73.9095 88.2397 68.8321 86.8094 63.6116Z" fill="black"/>
<path d="M116.13 79.7745C116.416 77.1285 116.917 72.0511 117.275 67.2597C119.491 66.044 118.633 53.6008 118.633 53.6008C120.064 46.5925 121.565 42.2302 108.264 37.0813H108.192C119.491 104.661 117.346 147.426 116.917 154.291L124.926 153.576C124.64 151.716 121.279 110.311 118.419 91.1451C117.418 84.3513 116.13 79.7745 116.13 79.7745Z" fill="white"/>
<path d="M92.1014 9.97776L89.0264 21.8489L92.173 23.7082C92.173 23.7082 101.47 17.5581 103.4 11.6226C103.4 11.6226 107.334 14.4831 109.551 14.4831L108.263 9.47717L92.1014 9.97776Z" fill="#0F353E"/>
<path opacity="0.1" d="M96.6057 34.1492L91.2422 38.5115L94.7463 44.304L92.1004 48.4518L102.398 60.6089L107.19 66.2585C106.188 63.8985 105.33 58.1775 101.54 50.3826C97.3208 41.801 96.6057 34.1492 96.6057 34.1492Z" fill="black"/>
<path d="M96.6057 34.1492L91.2422 38.5115L96.1766 43.5889L93.5306 47.7366L103.185 60.1084L106.975 65.9724C105.974 63.6125 105.402 58.1775 101.612 50.3826C97.3208 41.801 96.6057 34.1492 96.6057 34.1492Z" fill="white"/>
<path opacity="0.1" d="M111.482 38.1536L105.832 35.3646C106.976 38.8688 107.977 45.9485 108.407 50.3823C108.907 54.8161 112.769 68.4036 112.769 68.4036L113.627 45.8055L110.909 41.7293L111.482 38.1536Z" fill="black"/>
<path d="M109.911 41.3012L110.412 37.6541L105.406 33.7924C106.55 37.2965 107.909 45.878 108.409 50.3118C108.91 54.7456 112.772 68.3331 112.772 68.3331L112.629 45.3059L109.911 41.3012Z" fill="white"/>
<path d="M94.1767 23.3517C94.1767 23.3517 91.8168 21.3494 91.1732 22.136C90.029 23.7093 92.3889 29.1443 94.7488 27.1419C97.1803 25.068 94.1767 23.3517 94.1767 23.3517Z" fill="#D4916D"/>
<path d="M111.198 19.2032C111.126 18.4881 110.769 17.9159 110.268 17.4869C109.911 17.2008 109.41 17.0578 108.981 17.1293L107.694 17.3438C106.55 17.4869 105.763 18.7741 105.906 20.1329V20.2759C105.977 20.991 106.335 21.6346 106.907 21.9922C107.193 22.2067 107.622 22.3497 107.98 22.3497C108.123 22.3497 108.266 22.3498 108.337 22.2782L109.625 21.9922C110.697 21.7776 111.341 20.5619 111.198 19.2747V19.2032ZM109.553 21.4916L108.266 21.7776C107.908 21.8492 107.622 21.7776 107.265 21.5631C106.836 21.2771 106.621 20.7765 106.55 20.2044V20.0613C106.407 19.0602 106.979 18.059 107.837 17.9159L109.124 17.7014C109.196 17.7014 109.267 17.7014 109.267 17.7014C109.482 17.7014 109.768 17.7729 109.982 17.9875C110.34 18.2735 110.626 18.7741 110.697 19.2747V19.4177C110.769 20.4189 110.268 21.2771 109.553 21.4916Z" fill="#25487A"/>
<path d="M104.689 20.276C104.618 19.5609 104.189 18.9173 103.688 18.4882C103.188 18.1306 102.615 17.9876 102.043 18.0591L100.47 18.2737C99.1113 18.4882 98.1102 19.847 98.3962 21.3487V21.4918C98.5392 22.2069 98.8968 22.922 99.4689 23.2796C99.898 23.5656 100.327 23.7087 100.756 23.7087C100.899 23.7087 101.114 23.7087 101.257 23.6371L102.83 23.2796C104.117 22.9935 104.904 21.7063 104.689 20.276ZM102.687 22.8505L101.114 23.2081C100.613 23.2796 100.184 23.2081 99.7549 22.922C99.3259 22.636 98.9683 22.0639 98.8968 21.4918V21.3487C98.7538 20.133 99.4689 19.0603 100.542 18.9173L102.115 18.7028C102.186 18.7028 102.258 18.7028 102.329 18.7028C102.687 18.7028 103.045 18.8458 103.331 19.0603C103.76 19.3464 104.046 19.847 104.117 20.4191V20.5621C104.26 21.5633 103.617 22.636 102.687 22.8505Z" fill="#25487A"/>
<path d="M98.2517 20.9919L94.1039 21.2065C93.9609 21.2065 93.8179 21.3495 93.8179 21.4925C93.8179 21.6356 93.9609 21.7786 94.1039 21.7786L98.2517 21.564C98.3947 21.564 98.5377 21.421 98.5377 21.278C98.5377 21.135 98.3947 20.9919 98.2517 20.9919Z" fill="#25487A"/>
<path d="M105.263 19.6309C104.834 19.6309 104.476 19.8454 104.19 20.2745L104.619 20.632C105.263 19.8454 105.978 20.4175 106.049 20.489L106.407 20.0599C106.407 19.9884 105.906 19.6309 105.263 19.6309Z" fill="#25487A"/>
<path d="M86.7378 42.8726C83.8058 42.372 80.9453 44.8034 79.9441 47.5924C77.2981 54.9582 74.4376 76.1261 77.2266 88.3548C77.5127 89.499 87.882 85.2082 87.6675 83.4919C86.7378 76.4121 89.8844 56.2455 91.1716 49.0942C91.6007 46.1622 89.6699 43.3732 86.7378 42.8726Z" fill="white"/>
<path d="M108.336 79.0595L103.402 79.7031L102.4 86.5683L107.764 84.9235C107.764 84.9235 109.909 85.2811 110.91 85.138C111.912 84.995 114.844 84.1369 114.844 84.1369L116.345 84.5659L122.138 78.9879L126.715 79.56C127.573 79.417 127.573 78.4873 127.573 78.4873C127.573 78.4873 118.634 75.1978 118.133 75.1978C117.633 75.1978 108.336 79.0595 108.336 79.0595Z" fill="#E79D77"/>
<path d="M140.945 67.9754C134.437 70.3353 124.425 73.6249 122.065 74.4116C121.708 74.5546 121.493 74.7691 121.279 75.0552C121.279 75.0552 116.773 82.7786 114.914 85.6391C114.628 86.1397 115.558 86.3542 115.558 86.3542L132.006 81.6344L141.445 68.6905C141.517 68.762 141.946 67.6178 140.945 67.9754Z" fill="#00314E"/>
<path d="M115.703 86.3533L132.294 82.277L141.59 68.7611L122.282 75.3403L115.703 86.3533Z" fill="#00314E"/>
<path d="M136.943 78.4159H134.154C133.725 78.4159 133.368 78.7735 133.368 79.2025C133.368 79.6316 133.725 79.9892 134.154 79.9892H136.943C137.372 79.9892 137.73 79.6316 137.73 79.2025C137.801 78.7735 137.444 78.4159 136.943 78.4159Z" fill="#E79D77"/>
<path d="M135.724 81.3479H131.863H128.144C127.715 81.3479 127.357 81.7055 127.357 82.1345C127.357 82.5636 127.715 82.9212 128.144 82.9212H135.653C136.082 82.9212 136.44 82.5636 136.44 82.1345C136.511 81.7055 136.154 81.3479 135.724 81.3479Z" fill="#E79D77"/>
<path d="M135.009 85.1379L132.005 84.7089L129.073 84.2798C128.715 84.2083 128.143 84.4228 128.072 84.8519C127.929 85.424 128.501 85.8531 128.858 85.8531L134.436 86.7827C134.794 86.8543 135.509 86.4967 135.581 85.9961C135.581 85.567 135.366 85.2095 135.009 85.1379Z" fill="#E79D77"/>
<path d="M135.298 79.702C135.298 79.702 134.654 80.4887 132.008 81.4183C130.936 81.8474 127.575 82.8486 127.575 82.8486C127.575 82.8486 126.788 82.9916 126.931 83.6352C127.074 84.2073 127.718 84.4219 127.718 84.4219L135.369 85.4231C135.369 85.4231 136.514 85.0655 136.085 84.0643C136.013 83.8498 136.585 83.9213 136.8 83.2777C136.943 82.8486 136.943 81.5614 136.943 81.1323C136.871 80.6317 137.443 79.7735 137.443 79.7735L135.298 79.702Z" fill="#E79D77"/>
<path d="M131.934 87.642C133.436 87.4989 134.723 86.5693 134.723 86.5693L135.725 84.6384L129.002 85.9257C129.074 85.8541 130.504 87.785 131.934 87.642Z" fill="#E79D77"/>
<path d="M87.4515 81.2049L76.8676 82.4921C76.8676 82.4921 76.0095 92.4324 80.4433 93.7196C86.9509 95.5789 108.047 85.9247 108.047 85.9247L107.833 79.131C105.473 79.274 87.4515 81.2049 87.4515 81.2049Z" fill="white"/>
<path d="M175.129 7.76069C169.194 8.11825 164.831 12.409 163.973 17.844C163.115 23.2075 160.541 25.9965 157.752 32.2181C155.034 38.4397 160.255 42.802 160.255 42.802C155.535 57.1761 186.285 54.9592 191.434 53.1714C196.655 51.3836 193.937 30.7163 191.577 20.633C189.289 10.5497 181.065 7.40313 175.129 7.76069Z" fill="#00314E"/>
<path d="M154.106 113.957L149.457 113.885C147.169 119.678 147.169 125.685 147.169 125.685L150.316 134.553C151.245 133.695 151.317 132.765 151.317 132.765L150.459 126.257C150.459 126.257 150.888 123.683 151.531 122.109C152.175 120.536 152.175 122.825 152.532 125.328C152.89 127.831 154.392 127.115 154.392 127.115V121.466C155.464 119.106 154.106 113.957 154.106 113.957Z" fill="#FACAAE"/>
<path d="M158.254 50.1687C156.752 59.0363 158.54 72.4092 156.538 83.4222L148.385 114.03L155.107 115.388L165.691 84.9955C165.691 84.9955 169.41 57.034 168.266 47.3797C167.622 41.8732 159.184 45.0913 158.254 50.1687Z" fill="#F17474"/>
<path opacity="0.1" d="M164.762 44.5192C164.762 44.9483 164.69 45.4489 164.619 45.9495C159.613 67.904 161.758 94.2922 151.604 114.602L155.179 115.317L165.763 84.924C165.763 84.924 169.482 56.9625 168.338 47.3082C167.98 45.1629 166.478 44.3762 164.762 44.5192Z" fill="black"/>
<path d="M196.013 99.7979L175.846 101.729L175.631 113.385C176.561 120.394 180.494 154.934 180.494 154.934H180.709L188.575 207.782C188.075 210.214 182.711 214.648 179.493 214.862C176.99 215.005 176.49 217.651 176.346 218.509H196.084C196.013 213.789 195.44 208.998 195.154 207.568C195.512 198.772 196.513 173.599 195.727 167.735C194.94 161.657 193.51 153.647 193.081 151.359C192.937 144.493 192.938 129.476 195.154 119.249C198.086 105.662 196.013 99.7979 196.013 99.7979Z" fill="#FACAAE"/>
<path opacity="0.06" d="M196.013 99.7979L175.846 101.729L175.631 113.385C176.275 117.962 178.206 134.553 179.422 145.352C180.709 145.209 182.068 145.566 183.355 146.567C193.081 154.362 191.936 170.31 193.009 181.537C193.796 189.833 194.797 198.343 193.081 206.638C192.151 211.072 190.005 215.434 187.216 218.581H196.084C196.013 213.861 195.44 209.07 195.154 207.639C195.512 198.843 196.513 173.671 195.727 167.807C194.94 161.728 193.51 153.719 193.081 151.43C192.937 144.565 192.938 129.547 195.154 119.321C198.086 105.662 196.013 99.7979 196.013 99.7979Z" fill="black"/>
<path d="M177.205 208.426C177.563 202.633 179.207 174.171 178.349 167.807C177.491 161.227 175.846 152.288 175.632 151.001C174.988 143.278 176.847 121.538 176.847 121.538L177.563 98.5821L160.614 97.6525C160.614 97.6525 160.399 101.8 160.113 110.668C159.827 119.535 163.403 154.72 163.403 154.72L170.769 208.927C169.41 211.358 164.333 214.719 161.258 214.934C158.612 215.077 158.04 217.723 157.896 218.581H178.707C178.635 212.788 177.348 208.426 177.348 208.426H177.205Z" fill="#FACAAE"/>
<path opacity="0.06" d="M177.204 208.426C177.561 202.633 179.206 174.171 178.348 167.807C177.49 161.227 175.845 152.288 175.63 151.001C174.987 143.278 176.846 121.538 176.846 121.538L177.561 98.5821L160.613 97.6525C160.613 97.6525 160.398 101.8 160.112 110.668C159.897 116.46 161.399 133.552 162.4 144.708C163.902 144.35 165.547 144.708 166.906 146.281C172.484 152.431 173.699 160.226 174.415 168.236C175.344 178.104 175.344 187.83 175.559 197.771C175.702 204.707 177.99 213.575 172.341 218.581H178.705C178.634 212.788 177.347 208.426 177.347 208.426H177.204Z" fill="black"/>
<path d="M188.361 215.577C185.286 215.934 184.071 215.863 181.21 214.504C181.21 214.504 178.993 215.004 178.85 215.004C176.919 215.434 176.419 217.793 176.347 218.58H196.085C196.085 217.293 196.085 215.291 195.942 214.075C194.082 215.362 190.292 215.291 188.361 215.577Z" fill="#0F3C7A"/>
<path d="M162.472 214.647C162.043 214.719 161.614 214.862 161.185 214.862C158.539 215.005 157.967 217.651 157.824 218.509H178.634C178.634 217.293 178.634 215.362 178.491 214.361C173.127 214.79 167.693 217.364 162.472 214.647Z" fill="#0F3C7A"/>
<path d="M196.011 99.7979L159.325 100.298C159.325 100.298 156.322 140.56 158.181 141.99C158.181 141.99 180.851 143.135 198.657 141.061C198.657 141.061 198.729 127.187 197.442 111.311C197.084 106.949 196.941 103.517 196.011 99.7979Z" fill="#0F3C7A"/>
<path opacity="0.1" d="M196.011 99.7979L167.334 100.155C175.057 102.444 182.566 104.732 187.644 111.955C193.722 120.68 194.509 130.977 194.723 141.347C196.082 141.204 197.369 141.132 198.657 140.918C198.657 140.918 198.728 127.044 197.441 111.168C197.083 106.949 196.94 103.517 196.011 99.7979Z" fill="black"/>
<path opacity="0.06" d="M196.014 99.7979L191.365 99.8694C188.862 115.745 185.716 132.622 173.272 142.277C180.924 142.277 190.293 141.99 198.66 141.061C198.66 141.061 198.731 127.187 197.444 111.311C197.086 106.949 196.943 103.517 196.014 99.7979Z" fill="black"/>
<path d="M181.281 37.7968C178.921 37.0816 164.046 43.8754 161.472 45.8062L162.401 58.8931C162.401 58.8931 160.971 63.6844 161.186 66.0444C161.4 68.4043 163.331 70.3351 163.331 70.3351C163.331 70.3351 163.831 84.8523 163.116 86.9976C162.401 89.143 159.326 100.371 159.326 100.371C159.326 100.371 179.35 104.161 196.012 99.87C196.012 99.87 191.221 86.7831 191.221 77.2004C191.221 67.6892 196.441 58.1064 196.441 58.1064C196.441 58.1064 198.801 50.0255 196.656 45.9492C196.727 45.9492 183.641 38.5119 181.281 37.7968Z" fill="#F17474"/>
<path d="M180.065 32.5046L172.27 36.6524L172.842 40.0135L167.622 42.3019C167.622 42.3019 173.772 50.0253 186.93 40.4426C186.93 40.4426 183.354 39.0838 181.71 37.3675C180.565 36.4378 179.922 34.1494 180.065 32.5046Z" fill="#FACAAE"/>
<path opacity="0.06" d="M188.929 65.6869C189.144 77.0574 187.284 89.3576 179.275 97.7962C177.845 99.3695 176.2 100.657 174.483 101.801C180.991 102.015 188.786 101.658 195.937 99.7985C195.937 99.7985 191.146 86.7117 191.146 77.1289C191.146 67.5462 196.366 58.035 196.366 58.035C196.366 58.035 196.795 56.5332 197.153 54.4594C194.793 55.532 192.505 56.6763 190.216 57.9635C190.002 60.5379 189.573 63.1124 188.929 65.6869Z" fill="black"/>
<path opacity="0.06" d="M180.065 32.5046L172.27 36.6524L172.842 40.0135L170.625 41.0147C170.983 41.3007 171.341 41.6583 171.627 42.0874C172.342 43.0885 175.989 42.731 176.919 42.588C178.993 42.2304 180.351 41.0862 181.782 39.5844C182.139 39.2268 182.568 38.7978 182.926 38.3687C182.425 38.0826 181.996 37.7251 181.638 37.3675C180.566 36.4378 179.922 34.1494 180.065 32.5046Z" fill="black"/>
<path d="M201.804 54.1016C199.087 47.2363 198.3 46.5212 196.011 45.4485C188.217 41.8013 187.501 54.6021 187.501 54.6021L202.019 82.7782C206.023 85.6387 204.951 81.2765 206.095 86.1393C206.595 86.1393 207.024 86.0678 207.239 86.0678C210.386 85.2812 210.171 81.7771 210.1 79.0596C209.956 76.3421 204.522 60.9668 201.804 54.1016Z" fill="#F17474"/>
<path d="M185.428 21.7059C184.784 21.7059 183.354 24.1373 183.354 24.1373C183.354 24.1373 180.494 16.7 179.492 16.1278C178.491 15.5557 171.411 12.0516 169.338 14.5546C167.264 17.0575 166.906 22.8501 166.835 25.496C166.763 28.142 167.121 34.5782 171.555 36.7236C172.699 37.2957 175.202 36.2945 178.849 34.5782C181.352 33.3625 183.14 29.5008 183.14 29.5008L183.855 28.0705C183.855 28.0705 185.571 28.4996 186.715 25.7821C187.931 22.9931 186.143 21.7059 185.428 21.7059Z" fill="#FACAAE"/>
<path d="M168.478 13.5532C168.478 13.5532 164.76 18.4876 165.761 19.8463C168.478 23.4935 178.919 18.4161 178.919 18.4161C178.919 18.4161 186.214 21.1336 180.85 34.1489C180.779 34.3634 181.494 35.0071 183.067 33.0762C185.713 29.8581 189.789 23.2789 189.789 23.2789L179.348 12.9811L168.478 13.5532Z" fill="#00314E"/>
<path d="M199.158 99.9402L191.72 100.584C188.788 100.941 186.643 103.444 186.786 106.376L186.214 215.505C186.214 216.435 187 217.221 187.93 217.221C188.86 217.221 189.646 216.435 189.646 215.505L190.219 106.305V106.233V106.162C190.147 105.018 190.934 104.088 192.006 103.945L199.372 103.301C200.302 103.23 201.017 102.372 200.946 101.442C200.946 100.512 200.087 99.8687 199.158 99.9402Z" fill="#8F705C"/>
<path d="M230.485 114.814C223.119 116.173 214.109 123.61 206.814 124.826C207.744 133.551 209.317 144.635 212.035 154.79C218.9 180.678 227.982 212.358 227.982 212.358L240.068 209.712C240.068 209.712 235.777 180.249 233.703 153.002C232.416 136.483 232.416 114.457 230.485 114.814Z" fill="#002B39"/>
<path d="M231.771 207.566C231.271 209.926 222.832 214.217 218.684 214.431C214.537 214.646 215.18 217.506 215.18 217.506C215.681 217.792 216.324 218.364 217.683 218.579H231.128C231.557 218.579 231.986 218.579 232.272 218.579H235.347C237.707 218.364 242.069 217.792 242.069 217.792C241.997 211.785 239.709 207.638 239.709 207.638L231.771 207.566Z" fill="#003141"/>
<path d="M214.538 2.11028C210.605 2.89692 205.885 4.68475 204.097 8.97552C204.097 8.97552 201.594 12.4797 202.166 15.8408C202.309 16.8419 200.164 19.774 199.377 20.9182C199.163 21.2757 199.735 22.1339 200.664 22.3484C200.664 22.3484 201.308 22.6345 201.308 23.3496C201.308 24.0647 201.451 25.7095 201.665 26.6392C201.952 27.6404 202.095 27.3543 202.023 27.998C201.88 28.6416 201.522 30.3579 202.953 30.93C204.383 31.4306 206.671 31.216 207.53 31.0015C208.388 30.787 220.545 25.8526 222.905 23.3496C225.265 20.8467 229.055 15.4832 226.838 10.0482C224.55 4.61323 218.471 1.32364 214.538 2.11028Z" fill="#FFC09D"/>
<path d="M221.401 20.8462L207.312 29.1417C207.312 29.1417 210.101 31.2156 210.745 33.3609C211.889 37.0796 214.249 38.2953 214.249 38.2953L223.975 31.5731C223.903 31.5731 220.471 24.2788 221.401 20.8462Z" fill="#FFC09D"/>
<path d="M220.761 2.39661C211.321 -0.106342 201.595 5.40015 201.595 5.40015C201.595 5.40015 202.596 7.54554 204.742 8.54672C204.742 8.54672 212.179 13.4811 211.679 15.1974C211.178 16.9137 212.179 15.3404 213.967 16.3416C215.755 17.2713 217.257 23.2784 217.257 23.2784L221.69 25.7098C221.69 25.7098 227.483 21.7766 227.769 13.8387C227.84 9.33336 223.335 3.11174 220.761 2.39661Z" fill="#9D9996"/>
<path d="M205.314 101.085C205.314 101.085 205.672 117.962 206.101 146.21C206.458 172.955 210.749 211.286 210.749 211.286H225.338C225.338 211.286 228.413 181.394 229.056 154.076C229.7 126.758 234.563 127.259 234.849 113.457C234.92 110.954 234.849 106.448 233.562 101.156H205.314V101.085Z" fill="#003141"/>
<path opacity="0.1" d="M205.386 104.732C205.6 103.516 205.958 102.229 206.315 101.085H205.314C205.314 101.085 205.314 102.372 205.386 104.732Z" fill="black"/>
<path opacity="0.1" d="M230.699 101.085C230.699 101.228 230.699 101.299 230.699 101.443C230.055 119.035 225.55 136.269 224.263 153.79C222.904 172.24 222.189 190.691 221.402 209.212C221.402 209.928 221.259 210.643 221.044 211.215H225.335C225.335 211.215 228.41 181.322 229.054 154.005C229.698 126.687 234.56 127.187 234.846 113.385C234.918 110.882 234.846 106.377 233.559 101.085H230.699Z" fill="black"/>
<path d="M223.979 30.358C223.979 30.358 216.255 33.0755 213.681 36.7227C211.106 40.2983 205.028 51.0253 203.955 57.3184C203.311 60.9656 201.309 88.9271 201.452 92.0737C201.881 102.944 205.457 109.666 205.457 109.666C205.457 109.666 220.975 110.739 233.49 102.229C233.49 102.229 235.993 75.2681 235.85 64.6842C235.778 54.1003 237.28 32.9325 223.979 30.358Z" fill="#0C70C7"/>
<path opacity="0.1" d="M224.405 30.4296C224.977 31.2877 225.335 32.4319 225.263 33.7907C224.977 39.4402 222.76 44.3746 219.471 48.6654C220.114 55.6021 220.329 62.8249 219.542 69.6186C218.827 76.2693 215.108 80.0595 210.031 84.0642C207.528 86.0666 204.024 86.2096 201.879 84.2788C201.664 88.1405 201.521 91.144 201.521 92.0737C201.95 102.944 205.526 109.666 205.526 109.666C205.526 109.666 221.044 110.739 233.559 102.229C233.559 102.229 236.062 75.2682 235.919 64.6842C235.776 54.1719 237.206 33.3616 224.405 30.4296Z" fill="black"/>
<path d="M215.464 15.5545C214.534 15.1254 213.39 16.8417 213.39 16.8417C213.39 16.8417 213.676 21.061 213.819 21.7046C213.891 22.3482 215.035 22.2052 216.036 21.4185C217.395 20.3458 217.18 16.3411 215.464 15.5545Z" fill="#FFC09D"/>
<path d="M209.96 19.4164C209.459 21.7764 205.955 25.6381 205.025 24.4939C203.095 22.277 201.235 22.6345 201.235 22.6345C201.164 22.706 200.949 23.4927 201.021 24.5654C201.021 24.7799 201.593 25.2805 201.45 25.4235C201.021 25.8526 201.521 28.3556 201.521 30.0004C201.521 31.6452 202.236 31.6452 205.24 31.6452C208.887 31.6452 211.033 28.9992 211.533 28.3556C212.034 27.7119 214.108 14.196 214.108 14.196L211.819 14.053C211.819 14.053 210.46 17.0565 209.96 19.4164Z" fill="#9D9996"/>
<path d="M201.381 26.6397C202.025 26.4967 202.955 25.4955 202.955 25.4955C202.168 25.2095 201.453 25.2095 201.453 25.2095C200.809 25.7816 201.381 26.6397 201.381 26.6397Z" fill="#FFC09D"/>
<path d="M215.253 207.71C214.753 210.07 206.386 214.432 202.167 214.718C198.019 215.004 198.734 217.793 198.734 217.793C199.235 218.079 199.878 218.437 201.237 218.58H214.681C215.11 218.58 215.54 218.58 215.826 218.58H218.901C221.261 218.294 225.623 217.865 225.623 217.865C225.48 211.858 223.191 207.781 223.191 207.781L215.253 207.71Z" fill="#003141"/>
<path d="M237.134 84.6365C236.991 83.5638 236.919 82.7057 236.776 81.776L236.347 79.0585C236.061 77.2707 235.704 75.4829 235.418 73.695C234.774 70.1194 233.987 66.5438 233.272 63.0396C232.486 59.5355 231.699 56.0314 230.841 52.4557L229.554 47.1638L228.195 41.9433C227.48 39.1543 224.691 37.5095 221.902 38.2246C219.113 38.9398 217.468 41.7288 218.183 44.5178L219.542 49.7382L220.829 54.8872C221.687 58.3198 222.474 61.7524 223.189 65.185C223.976 68.6176 224.691 72.0503 225.334 75.5544C225.62 77.2707 225.978 78.987 226.264 80.7033L226.55 82.7057C226.407 82.7772 226.264 82.9202 226.121 82.9917C224.977 83.7069 223.69 84.3505 222.474 84.9941L220.543 85.9238L218.612 86.7819C217.969 87.068 217.325 87.354 216.61 87.6401C215.966 87.9261 215.251 88.2122 214.607 88.4267C213.249 88.9273 211.89 89.4279 210.531 89.9285C209.173 90.4291 207.742 90.7866 206.383 91.2872C205.668 91.5018 204.953 91.7163 204.31 91.9308L202.236 92.5029L198.016 93.5756H197.945C196.729 93.8617 195.871 95.0774 196.014 96.3646C196.157 97.7949 197.444 98.7961 198.875 98.653L203.38 98.1525L205.668 97.8664C206.455 97.7234 207.17 97.6519 207.957 97.5804C209.459 97.2943 210.96 97.1513 212.462 96.7937C213.964 96.5077 215.466 96.2216 216.967 95.864C217.754 95.721 218.469 95.5065 219.184 95.3635C219.899 95.1489 220.686 95.0059 221.401 94.7914L223.618 94.1477L225.835 93.4326C227.337 92.932 228.839 92.4314 230.34 91.7878C231.055 91.5018 231.842 91.1442 232.629 90.7866L233.773 90.2145C234.202 90 234.488 89.857 235.06 89.4994C236.419 88.3552 237.349 86.5674 237.134 84.6365Z" fill="#FFC09D"/>
<path d="M231.413 47.6638C230.626 44.5887 228.767 39.2967 225.477 37.8665C222.474 36.5077 217.825 38.7962 217.182 41.9427C216.824 43.8021 217.182 46.8056 217.611 48.6649C218.612 52.6697 224.762 78.7004 223.904 80.9173C223.117 82.9911 213.892 86.4953 200.805 92.0018C201.306 93.3605 202.879 98.5809 202.879 98.5809C202.879 98.5809 217.682 96.5071 221.901 95.3629C226.407 94.0756 237.92 91.0721 237.205 84.6359C236.991 74.4096 234.416 59.8209 231.413 47.6638Z" fill="#0C70C7"/>
<path opacity="0.06" d="M231.415 47.6639C230.986 45.9476 230.199 43.5161 228.984 41.4423C231.487 53.2419 233.775 65.1845 231.344 76.9842C229.556 85.7088 224.049 89.785 217.399 92.6455C213.036 95.7921 207.959 97.9375 202.667 98.295C202.739 98.438 202.738 98.5096 202.738 98.5096C202.738 98.5096 217.542 96.4357 221.761 95.2915C226.266 94.0042 237.78 91.0007 237.065 84.5645C236.993 74.4097 234.419 59.8211 231.415 47.6639Z" fill="black"/>
<path d="M197.374 93.646C197.374 93.646 189.579 95.5768 188.864 97.5792C188.149 99.7246 188.506 102.371 190.509 104.087C192.582 105.803 197.66 104.587 197.66 104.587C197.66 104.587 197.588 103.944 197.088 103.515C196.802 103.3 196.087 103.944 195.872 103.014C195.657 102.085 196.516 100.94 198.446 100.154C200.377 99.2955 199.233 95.7914 199.233 95.7914L197.374 93.646Z" fill="#FFC09D"/>
<path d="M186.214 210.785L185.499 218.579H190.719L189.718 210.785H186.214Z" fill="#765C4B"/>
<path d="M211.102 35.2921V40.441C212.317 38.0811 223.545 30.5008 223.545 30.5008L222.329 27.5687C217.681 27.9978 211.102 35.2921 211.102 35.2921Z" fill="white"/>
</g>
</svg>
