<svg width="367" height="152" viewBox="0 0 367 152" fill="none" xmlns="http://www.w3.org/2000/svg">
<mask id="mask0" mask-type="alpha" maskUnits="userSpaceOnUse" x="0" y="0" width="367" height="152">
<rect width="367" height="152" fill="#C4C4C4"/>
</mask>
<g mask="url(#mask0)">
<path d="M318.576 78.7377C309.283 62.9497 287.902 56.815 278.249 41.2075C274.009 34.351 272.475 26.2315 269.317 18.8337C266.25 11.436 260.747 4.12841 252.537 2.41429C248.748 1.60234 244.778 2.14364 240.899 2.68494C229.532 4.21863 207.158 7.46643 207.158 7.46643C179.461 14.5936 156.005 27.0435 135.345 46.4401C126.775 54.5596 118.926 63.6715 113.603 74.1366C110.987 79.279 108.912 85.2333 110.626 90.6463C111.979 95.0669 115.588 98.3147 119.016 101.563C124.97 107.246 130.654 113.381 134.443 120.598C138.232 127.816 140.037 136.296 138.052 144.325C136.157 151.723 131.286 158.219 129.12 165.526C124.429 181.314 133.902 198.365 148.246 206.755C162.591 215.145 180.454 216.138 197.324 213.973C231.787 209.552 263.724 192.952 292.323 173.465C301.254 167.331 310.276 160.745 316.32 151.903C326.515 137.018 326.966 117.982 324.891 100.57C323.808 92.9017 322.455 85.2333 318.576 78.7377Z" fill="#C3F3F9"/>
<path d="M150.097 76.1933C156.225 76.1933 161.193 71.2252 161.193 65.0967C161.193 58.9681 156.225 54 150.097 54C143.968 54 139 58.9681 139 65.0967C139 71.2252 143.968 76.1933 150.097 76.1933Z" fill="white"/>
<path d="M176.991 77.4956C176.991 81.1043 174.104 83.9912 170.496 83.9912C166.887 83.9912 164 81.1043 164 77.4956C164 73.8869 166.887 71 170.496 71C174.104 71 176.991 73.8869 176.991 77.4956Z" fill="white"/>
<path d="M115.783 115.783C137.098 94.4679 137.098 59.9093 115.783 38.5943C94.4679 17.2793 59.9094 17.2793 38.5943 38.5943C17.2793 59.9093 17.2793 94.4679 38.5943 115.783C59.9094 137.098 94.4679 137.098 115.783 115.783Z" fill="white"/>
<path d="M104.881 105.994H43.5339C42.6318 105.994 41.8198 105.272 41.8198 104.279V66.3884C41.8198 65.4863 42.5416 64.6743 43.5339 64.6743H104.881C105.784 64.6743 106.595 65.3961 106.595 66.3884V104.279C106.505 105.272 105.784 105.994 104.881 105.994Z" fill="#9F5F2B"/>
<path d="M102.445 103.197C101.182 103.197 100.46 101.573 100.37 99.7688C100.28 97.4232 100.28 74.1472 100.28 71.8918C100.28 71.8918 64.4638 69.9973 47.7737 70.5386C46.6911 70.5386 44.165 70.4484 44.165 68.0125C44.165 66.3886 46.8715 66.6592 47.5933 66.6592H101.633C103.437 66.6592 104.881 68.3734 104.881 70.6288V99.2275C104.971 101.393 105.242 103.197 102.445 103.197Z" fill="#91572C"/>
<path d="M104.846 45.9522L56.1465 62.1786L63.3044 83.6614L112.004 67.4349L104.846 45.9522Z" fill="#C6E5ED"/>
<path d="M91.6195 62.9606C92.9727 67.1106 90.7173 71.7116 86.5673 73.0649C82.4174 74.4181 77.8163 72.1627 76.463 68.0128C75.1098 63.8628 77.3652 59.2617 81.5152 57.9085C85.7554 56.465 90.2662 58.8106 91.6195 62.9606Z" fill="#028486"/>
<path d="M82.4169 69.367C83.0485 69.5475 84.0408 69.6377 84.943 69.2768C86.206 68.8257 86.5669 68.0138 86.2963 67.292C86.0256 66.4801 85.3941 66.2094 83.9506 66.1192C82.0561 66.029 80.8833 65.3975 80.5224 64.2247C79.9811 62.691 80.8832 61.0671 82.868 60.3454C83.8604 60.0747 84.7626 59.9845 85.3941 60.1649V61.6084C84.943 61.5182 84.1311 61.428 83.2289 61.6986C82.2365 62.0595 81.7854 62.7812 82.0561 63.5029C82.3267 64.3149 82.9582 64.4953 84.4017 64.4953C86.2963 64.5855 87.3789 65.1268 87.8299 66.5703C88.3712 68.2844 87.4691 69.8181 85.2137 70.6301C84.1311 70.9909 83.1387 70.9909 82.3267 70.8105L82.4169 69.367Z" fill="#C6E5ED"/>
<path d="M82.8475 59.8061L81.647 60.1984L85.2337 71.1746L86.4342 70.7823L82.8475 59.8061Z" fill="#C6E5ED"/>
<path d="M109.753 66.9302L64.7345 81.9061L58.3291 62.7802L103.347 47.8042L109.753 66.9302ZM65.2758 80.8235L108.67 66.3889L102.896 48.8868L59.5019 63.3215L65.2758 80.8235Z" fill="#028486"/>
<path d="M63.6522 61.3372L58.9609 62.8708L60.6751 67.923L60.9457 67.8328C63.3816 66.8404 64.6446 64.1339 63.7424 61.6078L63.6522 61.3372Z" fill="#028486"/>
<path d="M98.2954 49.7888L102.987 48.2551L104.611 53.3073H104.34C101.814 53.9388 99.1976 52.5855 98.3856 50.0595L98.2954 49.7888Z" fill="#028486"/>
<path d="M70.0574 79.6503L65.3661 81.184L63.7422 76.1318L64.0128 76.0416C66.5389 75.4101 69.1552 76.7633 69.9671 79.2894L70.0574 79.6503Z" fill="#028486"/>
<path d="M104.701 68.1029L109.392 66.5692L107.678 61.5171L107.407 61.6073C104.971 62.5997 103.708 65.3062 104.61 67.8323L104.701 68.1029Z" fill="#028486"/>
<path d="M81.7465 32.2217L49.7812 72.39L67.5005 86.4907L99.4657 46.3223L81.7465 32.2217Z" fill="#C6E5ED"/>
<path d="M79.8908 53.6682C83.319 56.3747 83.9505 61.4269 81.1538 64.8551C78.4473 68.2834 73.3952 68.9149 69.9669 66.1182C66.5387 63.4117 65.9072 58.3595 68.7039 54.9313C71.4104 51.503 76.4625 50.8715 79.8908 53.6682Z" fill="#028486"/>
<path d="M75.6516 64.0431C76.2831 63.8626 77.1853 63.3213 77.7266 62.5996C78.5385 61.6072 78.4483 60.705 77.8168 60.1637C77.0951 59.6224 76.3733 59.8029 75.1103 60.5246C73.4864 61.517 72.1331 61.6072 71.231 60.7953C69.9679 59.8029 69.7875 57.9083 71.1408 56.2844C71.7723 55.4725 72.5842 55.0214 73.2157 54.7507L73.9375 55.9236C73.4864 56.104 72.7647 56.4649 72.2234 57.1866C71.5918 57.9985 71.6821 58.9007 72.2234 59.3518C72.8549 59.8931 73.5766 59.6224 74.7494 58.9007C76.3733 57.9985 77.6364 57.8181 78.719 58.7203C80.0722 59.8029 80.1624 61.6974 78.719 63.5018C77.9972 64.3137 77.1853 64.9452 76.4636 65.3061L75.6516 64.0431Z" fill="#C6E5ED"/>
<path d="M70.804 55.7786L70.0117 56.7622L79.0051 64.0061L79.7974 63.0225L70.804 55.7786Z" fill="#C6E5ED"/>
<path d="M97.2122 47.0824L67.7113 84.1614L51.9233 71.6213L81.4242 34.5422L97.2122 47.0824ZM67.5308 82.9886L96.0393 47.2628L81.6047 35.7151L53.1864 71.5311L67.5308 82.9886Z" fill="#028486"/>
<path d="M55.5322 67.561L52.4648 71.4404L56.6148 74.6882L56.7952 74.5077C58.2387 72.3425 57.8778 69.4556 55.8029 67.7415L55.5322 67.561Z" fill="#028486"/>
<path d="M78.2671 38.9633L81.3345 35.084L85.4844 38.422L85.304 38.6024C83.4997 40.497 80.6127 40.7676 78.5377 39.1437L78.2671 38.9633Z" fill="#028486"/>
<path d="M70.8692 79.4704L67.8018 83.3497L63.6519 80.0116L63.8323 79.8312C65.6366 77.9367 68.5236 77.666 70.5985 79.2899L70.8692 79.4704Z" fill="#028486"/>
<path d="M93.6941 50.8715L96.7614 46.9922L92.6115 43.7444L92.431 43.9248C90.9876 46.09 91.3484 48.977 93.4234 50.6911L93.6941 50.8715Z" fill="#028486"/>
<path d="M54.0762 30.2272L46.1606 80.9445L68.5333 84.4363L76.4489 33.719L54.0762 30.2272Z" fill="#C6E5ED"/>
<path d="M64.0642 65.37C68.3399 64.1935 70.8523 59.7737 69.6758 55.498C68.4994 51.2223 64.0796 48.7098 59.8039 49.8863C55.5282 51.0628 53.0157 55.4826 54.1922 59.7583C55.3686 64.034 59.7885 66.5465 64.0642 65.37Z" fill="#028486"/>
<path d="M64.5538 60.8849C65.0048 60.4338 65.5461 59.5317 65.6364 58.6295C65.8168 57.2763 65.2755 56.6447 64.4635 56.4643C63.5614 56.2839 63.0201 56.735 62.3886 57.998C61.4864 59.7121 60.3136 60.3436 59.1408 60.1632C57.5169 59.8925 56.4343 58.4491 56.7951 56.2839C56.9756 55.2915 57.4266 54.4795 57.7875 53.9382L59.0505 54.5698C58.7799 54.9306 58.3288 55.5621 58.1484 56.4643C57.9679 57.5469 58.5092 58.1784 59.231 58.3589C60.0429 58.4491 60.494 57.998 61.2157 56.735C62.1179 55.111 63.1103 54.3893 64.644 54.66C66.3581 54.9306 67.3505 56.4643 66.9896 58.8099C66.8092 59.8925 66.3581 60.8849 65.907 61.5164L64.5538 60.8849Z" fill="#C6E5ED"/>
<path d="M56.2575 56.1606L56.0557 57.4073L67.4544 59.2527L67.6563 58.0059L56.2575 56.1606Z" fill="#C6E5ED"/>
<path d="M74.9292 35.4446L67.6216 82.2671L47.7739 79.1997L55.0815 32.3772L74.9292 35.4446ZM66.8999 81.3649L73.9368 36.1663L55.713 33.3696L48.6761 78.5682L66.8999 81.3649Z" fill="#028486"/>
<path d="M48.8565 73.8767L48.1348 78.7484L53.3673 79.5604V79.2897C53.5478 76.6734 51.7434 74.3278 49.1272 73.9669L48.8565 73.8767Z" fill="#028486"/>
<path d="M54.4502 37.7902L55.2621 32.9185L60.4947 33.7304L60.4045 34.0011C59.773 36.5271 57.3371 38.2412 54.7208 37.7902H54.4502Z" fill="#028486"/>
<path d="M68.0728 76.6732L67.2609 81.5449L62.0283 80.7329L62.1185 80.4623C62.7501 77.9362 65.1859 76.2221 67.8022 76.6732H68.0728Z" fill="#028486"/>
<path d="M73.6663 40.4964L74.3881 35.6247L69.1555 34.8127V35.0834C68.975 37.6997 70.7794 40.0453 73.3957 40.4062L73.6663 40.4964Z" fill="#028486"/>
<path d="M93.8745 90.9274L106.324 91.0176C107.227 91.0176 107.948 90.2959 107.948 89.3937V83.8003C107.948 82.8981 107.227 82.1764 106.324 82.1764L93.8745 82.0862V90.9274Z" fill="#93562A"/>
<path d="M101.633 110.054H43.4436C42.5414 110.054 41.7295 109.332 41.7295 108.34V70.4487C41.7295 69.5466 42.4512 68.7346 43.4436 68.7346H101.633C102.536 68.7346 103.348 69.4564 103.348 70.4487V108.34C103.348 109.242 102.536 110.054 101.633 110.054Z" fill="#9F5F2B"/>
<path d="M106.505 82.8982H94.0551H93.8746C93.0627 82.9884 92.4312 83.7101 92.4312 84.5221V90.1155C92.4312 90.9275 93.0627 91.6492 93.8746 91.7394H106.325H106.505C107.317 91.6492 107.948 90.9275 107.948 90.1155V84.5221C108.039 83.6199 108.039 82.8982 106.505 82.8982Z" fill="#B27757"/>
<path d="M97.3028 89.935C98.7477 89.935 99.9191 88.7636 99.9191 87.3187C99.9191 85.8737 98.7477 84.7024 97.3028 84.7024C95.8579 84.7024 94.6865 85.8737 94.6865 87.3187C94.6865 88.7636 95.8579 89.935 97.3028 89.935Z" fill="#9F5F2B"/>
<path d="M203.113 174.285H241.816C252.191 165.625 259.048 150.107 259.048 132.515C259.048 105.36 284.94 76.0393 223.232 76.0393C160.08 76.0393 185.972 105.36 185.972 132.515C185.972 150.107 192.829 165.534 203.113 174.285Z" fill="#6D6E71"/>
<path d="M250.477 157.054V97.2406C250.477 88.9406 240.644 85.6928 229.547 81.2722L212.135 81.5429C197.971 88.0385 194.362 88.9406 194.362 97.2406V157.054H250.477Z" fill="#F7A504"/>
<path d="M244.253 60.522C243.621 59.4394 242.087 61.7851 241.366 63.5894C241.005 62.9579 239.471 53.9362 239.291 50.0569C235.141 45.6363 229.728 45.095 223.052 45.095C215.654 45.095 207.354 46.1776 203.114 49.7862C202.843 54.5677 202.392 62.7775 202.392 63.2285C201.67 61.4242 200.407 59.4394 199.776 60.522C198.693 62.3264 197.25 64.8524 198.964 68.2807C200.678 71.7089 201.219 73.1524 202.392 71.8893C202.572 71.7089 202.753 71.348 204.647 70.3557C204.647 70.3557 206.903 79.7382 208.888 82.4447C210.06 83.9784 214.661 87.5871 214.661 87.5871C214.661 87.5871 220.165 89.6621 222.059 89.5718C223.954 89.4816 229.096 87.136 229.096 87.136C229.096 87.136 234.509 84.1588 236.043 82.4447C237.937 80.2795 241.005 71.8893 241.005 71.8893C241.095 71.6187 241.185 71.4383 241.275 71.2578C241.366 71.5285 241.456 71.7991 241.636 71.8893C242.809 73.1524 243.35 71.7089 245.065 68.2807C246.779 64.8524 245.335 62.3264 244.253 60.522Z" fill="#FACAAE"/>
<path d="M206 68.1003C206 68.1003 205.098 60.7928 204.917 59.2591C204.647 57.7254 205.188 53.1243 206 51.6809C206.812 50.2374 211.774 47.982 213.398 47.2603C215.022 46.5385 222.239 46.8092 226.209 47.5309C230.178 48.1624 235.681 50.5081 237.486 51.7711C239.29 53.0341 240.102 55.6504 239.741 57.9058C239.29 60.1612 238.929 63.0482 238.929 64.0406C238.929 64.9427 238.027 68.7318 238.027 68.7318C238.027 68.7318 238.749 69.9949 239.47 68.7318C240.192 67.559 241.726 63.3188 241.997 62.7775C242.267 62.2362 246.688 53.9363 245.605 46.719C245.154 43.3809 242.989 38.9603 240.373 36.7049C237.756 34.3593 232.704 32.7354 229.908 32.5549C227.111 32.3745 223.322 32.1941 223.322 32.1941C223.322 32.1941 223.051 31.5625 223.953 30.7506C224.855 29.9386 223.683 29.5778 221.608 30.7506C219.533 31.9234 216.736 33.3669 216.736 33.3669C216.736 33.3669 215.202 34.5397 215.473 33.5473C215.743 32.6451 217.818 30.0289 217.818 30.0289C217.818 30.0289 207.444 34.1788 204.647 37.3364C196.076 46.6287 203.113 63.4993 203.564 64.8525C204.015 66.2058 204.917 67.4688 205.369 68.1905C205.729 68.8221 206 68.1003 206 68.1003Z" fill="#414042"/>
<path d="M196.167 83.7981L169.553 124.125C165.403 130.44 163.238 140.274 167.027 142.619C170.816 144.965 179.116 138.921 183.266 132.696L209.158 91.1057L196.167 83.7981Z" fill="#E08F00"/>
<path d="M204.376 86.7752C204.376 86.7752 206.09 83.1665 206.451 81.0013C206.812 78.7459 207.083 72.5209 206 71.6187C202.392 68.822 202.933 63.2286 202.843 60.3416C202.752 59.1688 202.482 54.5678 201.58 55.2895C197.7 58.7178 195.716 68.3709 195.716 69.5438C195.716 70.8068 199.054 80.0089 199.054 80.0089L191.295 92.0077L199.505 95.6164L204.376 86.7752Z" fill="#FACAAE"/>
<path d="M202.572 58.1765C202.572 58.1765 202.753 59.0787 202.843 60.4319C202.933 61.1537 202.843 61.8754 202.843 62.7776C202.843 63.2287 202.843 63.6797 202.843 64.0406C202.843 64.4917 202.933 64.9428 203.023 65.3939C203.294 67.1982 203.926 68.9123 204.647 69.9949C205.008 70.5362 205.369 70.9873 205.64 71.3482C205.91 71.6188 206.091 71.7992 206.091 71.7992C206.091 71.7992 205.91 71.6188 205.64 71.3482C205.369 71.0775 204.918 70.6264 204.557 70.0851C203.745 69.0025 203.023 67.1982 202.753 65.3939C202.662 64.9428 202.572 64.4917 202.572 64.0406C202.572 63.5895 202.572 63.1384 202.572 62.6874C202.572 61.8754 202.662 61.0634 202.662 60.3417C202.662 59.0787 202.572 58.1765 202.572 58.1765Z" fill="#D8B78F"/>
<path d="M206.181 71.8899C206.181 71.8899 206.271 71.9801 206.361 72.1605C206.451 72.341 206.542 72.7018 206.632 73.0627C206.722 73.8747 206.722 74.8671 206.722 75.8594C206.722 76.8518 206.722 77.9344 206.632 78.6561C206.542 79.3779 206.542 79.9192 206.542 79.9192C206.542 79.9192 206.451 79.3779 206.451 78.6561C206.361 77.9344 206.361 76.8518 206.361 75.8594C206.361 75.3181 206.361 74.867 206.361 74.3257C206.361 73.8747 206.451 73.4236 206.361 73.0627C206.361 72.7018 206.271 72.341 206.271 72.1605C206.271 72.0703 206.181 71.8899 206.181 71.8899Z" fill="#D8B78F"/>
<path d="M198.332 68.5517C198.242 68.5517 198.151 68.4615 198.151 68.3713C198.151 68.3713 198.512 63.9507 199.414 61.2441C200.317 58.4474 202.121 56.7333 202.211 56.6431C202.301 56.5529 202.392 56.5529 202.482 56.6431C202.572 56.7333 202.572 56.8235 202.482 56.9137C202.482 56.9137 200.677 58.7181 199.775 61.3344C198.963 64.0409 198.512 68.3713 198.512 68.4615C198.512 68.4615 198.422 68.5517 198.332 68.5517Z" fill="#D8B78F"/>
<path d="M200.136 66.7467C200.136 66.7467 200.046 66.7467 200.136 66.7467C200.046 66.7467 199.956 66.6565 199.956 66.5663C199.956 66.4761 200.316 63.4989 200.587 62.5065C200.858 61.5141 202.391 58.8076 202.482 58.7174C202.572 58.6272 202.662 58.6272 202.752 58.6272C202.843 58.7174 202.842 58.8076 202.842 58.8979C202.842 58.8979 201.309 61.6946 201.038 62.5967C200.768 63.5891 200.407 66.5663 200.407 66.5663C200.226 66.6565 200.226 66.7467 200.136 66.7467Z" fill="#D8B78F"/>
<path d="M192.738 81.8132L167.839 123.944C164.05 130.35 162.426 140.274 166.305 142.439C170.184 144.604 178.123 138.289 182.003 131.793L206.902 89.6621L192.738 81.8132Z" fill="#F7A504"/>
<path d="M216.375 83.167C216.195 83.167 216.014 83.0768 216.014 82.8963C215.924 82.7159 216.014 82.4453 216.285 82.355C216.375 82.355 217.819 79.9192 221.788 79.9192C226.028 79.9192 227.382 82.355 227.562 82.355C227.833 82.4453 227.923 82.7159 227.833 82.8963C227.742 83.167 227.562 83.2572 227.291 83.167C227.291 83.167 224.224 82.1746 221.608 82.1746C219.172 82.1746 216.646 83.167 216.646 83.167C216.465 83.167 216.375 83.167 216.375 83.167Z" fill="#E9BDA4"/>
<path d="M239.652 87.0462C239.652 87.0462 237.938 83.4375 237.577 81.2723C237.216 79.0169 236.945 72.7919 238.028 71.8897C241.636 69.093 241.095 63.4996 241.185 60.6126C241.276 59.4398 241.546 54.8388 242.448 55.5605C246.328 58.9887 248.312 68.6419 248.312 69.8148C248.312 71.0778 244.974 80.2799 244.974 80.2799L252.643 92.2787L244.433 95.8874L239.652 87.0462Z" fill="#FACAAE"/>
<path d="M241.365 58.3569C241.365 58.3569 241.275 59.2591 241.275 60.6124C241.275 61.2439 241.365 62.0558 241.365 62.958C241.365 63.4091 241.365 63.8602 241.365 64.3112C241.365 64.7623 241.275 65.2134 241.185 65.6645C240.824 67.4688 240.102 69.1829 239.38 70.3558C239.019 70.8971 238.568 71.3481 238.298 71.6188C238.027 71.8894 237.847 72.0699 237.847 72.0699C237.847 72.0699 238.027 71.8894 238.298 71.6188C238.568 71.3481 238.929 70.8971 239.29 70.2655C240.012 69.0927 240.643 67.3786 240.914 65.6645C241.004 65.2134 241.004 64.7623 241.094 64.3112C241.094 63.8602 241.094 63.4091 241.094 63.0482C241.094 62.2363 241.094 61.4243 241.094 60.7026C241.185 59.2591 241.365 58.3569 241.365 58.3569Z" fill="#D8B78F"/>
<path d="M237.757 72.1606C237.757 72.1606 237.666 72.2509 237.666 72.5215C237.576 72.7019 237.576 73.0628 237.576 73.4237C237.576 73.7845 237.576 74.2356 237.576 74.6867C237.576 75.1378 237.576 75.6791 237.576 76.2204C237.576 77.2128 237.576 78.2954 237.486 79.0171C237.396 79.7389 237.396 80.2802 237.396 80.2802C237.396 80.2802 237.306 79.7389 237.306 79.0171C237.215 78.2954 237.215 77.2128 237.215 76.2204C237.215 75.228 237.215 74.2356 237.306 73.4237C237.396 73.0628 237.486 72.7019 237.576 72.5215C237.666 72.2509 237.757 72.1606 237.757 72.1606Z" fill="#D8B78F"/>
<path d="M245.696 68.7323C245.605 68.7323 245.515 68.642 245.515 68.5518C245.515 68.5518 245.154 64.2214 244.252 61.4247C243.44 58.7182 241.636 57.0041 241.546 57.0041C241.455 56.9139 241.455 56.8237 241.546 56.7334C241.636 56.6432 241.726 56.6432 241.816 56.7334C241.907 56.8237 243.711 58.5378 244.613 61.3345C245.515 64.1312 245.876 68.4616 245.876 68.4616C245.876 68.642 245.786 68.7323 245.696 68.7323Z" fill="#D8B78F"/>
<path d="M243.891 67.018C243.801 67.018 243.711 66.9277 243.711 66.8375C243.711 66.8375 243.35 63.7702 243.079 62.868C242.808 61.9658 241.275 59.1691 241.275 59.1691C241.184 59.0789 241.275 58.9887 241.365 58.8985C241.455 58.8082 241.545 58.8985 241.636 58.9887C241.726 59.0789 243.259 61.7854 243.53 62.7778C243.801 63.7702 244.162 66.6571 244.162 66.8375C244.071 66.9277 243.981 67.018 243.891 67.018Z" fill="#D8B78F"/>
<path d="M251.109 83.7981L277.723 124.125C281.873 130.44 284.038 140.274 280.249 142.619C276.46 144.965 268.16 138.921 264.01 132.696L237.938 91.3763L251.109 83.7981Z" fill="#E08F00"/>
<path d="M254.537 81.8132L279.437 123.944C283.226 130.35 284.85 140.274 280.971 142.439C277.091 144.604 269.152 138.289 265.273 131.793L240.373 89.6621L254.537 81.8132Z" fill="#F7A504"/>
<path d="M188.408 71.9803C187.596 72.7923 186.965 72.5216 186.423 71.9803C185.882 71.439 185.702 70.8977 186.514 70.0858C187.326 69.2738 189.401 69.0032 189.401 69.0032C189.401 69.0032 189.22 71.1684 188.408 71.9803Z" fill="#F6F8FA"/>
<path d="M191.115 62.3268C189.942 62.6876 189.581 62.1463 189.4 61.4246C189.22 60.7029 189.31 60.1616 190.393 59.8007C191.566 59.4398 193.46 60.2518 193.46 60.2518C193.46 60.2518 192.287 61.9659 191.115 62.3268Z" fill="#F6F8FA"/>
<path d="M256.522 66.1156C257.334 66.9275 257.965 66.6569 258.506 66.1156C259.048 65.5743 259.228 65.033 258.416 64.221C257.604 63.4091 255.529 63.1384 255.529 63.1384C255.529 63.1384 255.62 65.3036 256.522 66.1156Z" fill="#F6F8FA"/>
<path d="M254.988 58.4469C256.161 58.8078 256.522 58.2665 256.702 57.5447C256.883 56.823 256.793 56.2817 255.71 55.9208C254.537 55.56 252.643 56.3719 252.643 56.3719C252.643 56.3719 253.815 58.1762 254.988 58.4469Z" fill="#F6F8FA"/>
<path d="M314.712 143.161H135V153.446H314.712V143.161Z" fill="#A7A9AC"/>
<path d="M314.621 143.883H303.344V174.556H314.621V143.883Z" fill="#A7A9AC"/>
<path d="M140.277 142.883H129V173.556H140.277V142.883Z" fill="#A7A9AC"/>
</g>
</svg>
