<svg width="372" height="250" viewBox="0 0 372 250" fill="none" xmlns="http://www.w3.org/2000/svg">
<mask id="mask0" mask-type="alpha" maskUnits="userSpaceOnUse" x="0" y="0" width="372" height="250">
<rect width="372" height="250" fill="white"/>
</mask>
<g mask="url(#mask0)">
<g clip-path="url(#clip0)">
<path d="M307.307 229.409L262.859 249.655C261.215 250.402 257.508 249.805 255.801 249.143L159.021 210.771L203.048 188.563L307.307 229.409Z" fill="#4D4D4D"/>
<path d="M305.318 192.529L306.168 231.377L307.934 232.088L306.59 192.678L305.318 192.529Z" fill="url(#paint0_linear)"/>
<path d="M309.53 231.19L307.934 232.088L306.59 192.677L308.394 192.191L309.53 231.19Z" fill="url(#paint1_linear)"/>
<path d="M287.428 200.285L288.281 239.136L290.044 239.844L288.699 200.436L287.428 200.285Z" fill="url(#paint2_linear)"/>
<path d="M291.643 238.949L290.044 239.844L288.699 200.436L290.504 199.95L291.643 238.949Z" fill="url(#paint3_linear)"/>
<path d="M266.547 209.559L267.4 248.407L269.163 249.118L267.818 209.71L266.547 209.559Z" fill="url(#paint4_linear)"/>
<path d="M270.762 248.223L269.163 249.118L267.818 209.71L269.626 209.224L270.762 248.223Z" fill="url(#paint5_linear)"/>
<path d="M99.6539 142.791L159.262 168.068L160.314 204.951L99.5215 179.188L99.6539 142.791Z" fill="#158184"/>
<path d="M97.7412 146.446L97.8736 154.84L159.572 178.52L159.394 172.547L97.7412 146.446Z" fill="#157077"/>
<path d="M106.035 144.819L105.453 181.557" stroke="#F3F4F8" stroke-miterlimit="10"/>
<path d="M115.6 147.475L114.956 185.97" stroke="#F3F4F8" stroke-miterlimit="10"/>
<path d="M146.244 158.703L146.551 199.83L148.306 200.598L147.512 158.872L146.244 158.703Z" fill="url(#paint6_linear)"/>
<path d="M149.679 199.825L148.07 200.761L147.275 159.035L149.087 158.536L149.679 199.825Z" fill="#D6D7D8"/>
<path d="M120.115 147.102L119.537 189.664L121.275 190.475L121.38 147.291L120.115 147.102Z" fill="#D6D7D8"/>
<path d="M122.906 189.526L121.275 190.475L121.38 147.291L123.202 146.795L122.906 189.526Z" fill="#D6D7D8"/>
<path d="M97.3824 139.396L96.832 180.78L98.5703 181.57L98.6504 139.581L97.3824 139.396Z" fill="url(#paint7_linear)"/>
<path d="M100.197 180.646L98.5703 181.57L98.6504 139.58L100.472 139.097L100.197 180.646Z" fill="#D6D7D8"/>
<path d="M129.21 155.014L128.625 191.751" stroke="#F3F4F8" stroke-miterlimit="10"/>
<path d="M140.034 157.242L139.39 195.737" stroke="#F3F4F8" stroke-miterlimit="10"/>
<path d="M96.2119 80.2471L97.1942 148.803L161.996 173.873L161.732 105.458L96.2119 80.2471Z" fill="url(#paint8_linear)"/>
<path d="M161.732 105.457L161.997 173.872L201.349 157.183L201.088 88.7676L161.732 105.457Z" fill="url(#paint9_linear)"/>
<path d="M96.2119 80.2469L161.732 105.457L201.087 88.7681L136.275 61.1094L96.2119 80.2469Z" fill="#E0E1E2"/>
<path d="M108.16 64.2119L108.223 80.1927L162.052 100.893L161.99 84.9431L108.16 64.2119Z" fill="#F3F4F8"/>
<path d="M161.99 84.9435L162.053 100.894L190.119 88.993L190.06 73.043L161.99 84.9435Z" fill="url(#paint10_linear)"/>
<path d="M161.794 84.9433L190.059 73.1247L135.843 50.3086L108.16 64.2121" fill="#E0E1E2"/>
<path d="M113.264 61.1087V63.9917L135.822 52.6131L135.596 50.0498L113.264 61.1087Z" fill="url(#paint11_linear)"/>
<path d="M135.596 50.0498L135.822 52.6131L184.597 72.1599L184.587 69.502L135.596 50.0498Z" fill="url(#paint12_linear)"/>
<path d="M161.078 80.5352L161.089 83.1931L187.11 72.1599L187.099 69.502L161.078 80.5352Z" fill="url(#paint13_linear)"/>
<path d="M111.173 61.4004L111.18 63.7846L161.087 83.1933L161.076 80.5353L111.173 61.4004Z" fill="#F3F4F8"/>
<path d="M111.163 61.3957L161.077 80.5306L187.098 69.4974L135.575 49.3008L111.163 61.3957ZM113.253 61.1041L135.063 50.3036L184.576 69.4897L161.074 79.4537L113.253 61.1041Z" fill="url(#paint14_linear)"/>
<path d="M182.891 103.221V99.4938L198.42 92.9092V96.6364L182.891 103.221Z" fill="#6E81C6"/>
<path d="M164.662 110.95V107.222L180.195 100.638V104.365L164.662 110.95Z" fill="#6E81C6"/>
<path d="M182.891 106.668L198.42 100.083V103.81L182.891 110.397V106.668Z" fill="#6E81C6"/>
<path d="M180.195 111.538L164.662 118.122V114.395L180.195 107.811V111.538Z" fill="#6E81C6"/>
<path d="M182.891 113.843L198.42 107.259V110.986L182.891 117.571V113.843Z" fill="#6E81C6"/>
<path d="M180.195 118.714L164.662 125.298V121.571L180.195 114.986V118.714Z" fill="#6E81C6"/>
<path d="M182.891 121.016L198.42 114.432V118.159L182.891 124.746V121.016Z" fill="#6E81C6"/>
<path d="M180.195 125.886L164.662 132.474V128.744L180.195 122.159V125.886Z" fill="#6E81C6"/>
<path d="M180.195 133.062L164.662 139.647V135.92L180.195 129.335V133.062Z" fill="#6E81C6"/>
<path d="M182.891 128.191L198.42 121.606V125.334L182.891 131.918V128.191Z" fill="#6E81C6"/>
<path d="M182.891 135.365L198.42 128.78V132.51L182.891 139.095V135.365Z" fill="#6E81C6"/>
<path d="M180.195 140.238L164.662 146.82V143.092L180.195 136.508V140.238Z" fill="#6E81C6"/>
<path d="M182.891 142.541L198.42 135.956V139.683L182.891 146.268V142.541Z" fill="#6E81C6"/>
<path d="M180.195 147.411L164.662 153.995V150.268L180.195 143.684V147.411Z" fill="#6E81C6"/>
<path d="M182.891 149.714L198.42 143.129V146.859L182.891 153.443V149.714Z" fill="#6E81C6"/>
<path d="M180.195 154.584L164.662 161.171V157.441L180.195 150.856V154.584Z" fill="#6E81C6"/>
<path d="M180.195 158.032V161.759L164.662 168.344V164.617L180.195 158.032Z" fill="#6E81C6"/>
<path d="M198.42 150.305V154.032L182.891 160.617V156.889L198.42 150.305Z" fill="#6E81C6"/>
<path d="M136.627 62.8818L136.641 66.5118L148.23 71.4567L148.216 67.8293L136.627 62.8818Z" fill="url(#paint15_linear)"/>
<path d="M148.216 67.8293L148.23 71.4567L159.896 66.5118L159.882 62.8818L148.216 67.8293Z" fill="white"/>
<path d="M136.627 62.882L148.216 67.8295L159.882 62.882L148.293 57.9346L136.627 62.882Z" fill="url(#paint16_linear)"/>
<path d="M162.889 71.3057L162.896 73.6157L165.484 74.7182L165.473 72.4108L162.889 71.3057Z" fill="url(#paint17_linear)"/>
<path d="M165.473 72.4108L165.483 74.7182L168.085 73.6157L168.075 71.3057L165.473 72.4108Z" fill="white"/>
<path d="M162.889 71.3057L165.473 72.4108L168.075 71.3057L165.491 70.2031L162.889 71.3057Z" fill="url(#paint18_linear)"/>
<path d="M166.776 72.1764C166.502 72.308 166.273 72.4852 166.109 72.6936C165.945 72.902 165.85 73.1358 165.832 73.3762C165.832 73.8187 166.26 73.9978 166.783 73.7752C167.058 73.6434 167.287 73.4658 167.451 73.2569C167.615 73.048 167.709 72.8137 167.727 72.5729C167.727 72.1406 167.299 71.9538 166.776 72.1764Z" fill="#6E81C6"/>
<path d="M157.35 68.9326L157.36 71.2426L159.948 72.3452L159.938 70.0352L157.35 68.9326Z" fill="url(#paint19_linear)"/>
<path d="M159.938 70.0352L159.948 72.3452L162.55 71.2426L162.54 68.9326L159.938 70.0352Z" fill="white"/>
<path d="M157.35 68.9326L159.938 70.0352L162.54 68.9326L159.955 67.8301L157.35 68.9326Z" fill="url(#paint20_linear)"/>
<path d="M161.241 69.8016C160.966 69.9333 160.738 70.1104 160.574 70.3188C160.41 70.5273 160.315 70.7611 160.297 71.0014C160.297 71.444 160.725 71.623 161.248 71.4005C161.523 71.2686 161.751 71.091 161.915 70.8822C162.079 70.6733 162.174 70.4389 162.192 70.1982C162.188 69.7582 161.763 69.5816 161.241 69.8016Z" fill="#6E81C6"/>
<path d="M132.522 60.7178L132.526 61.411L134.567 62.2834V61.5901L132.522 60.7178Z" fill="#F3F4F8"/>
<path d="M134.567 61.5901V62.2834L136.626 61.411L136.623 60.7178L134.567 61.5901Z" fill="white"/>
<path d="M132.522 60.718L134.567 61.5904L136.622 60.718L134.578 59.8457L132.522 60.718Z" fill="url(#paint21_linear)"/>
<path d="M134.031 43.6731L134.097 60.6029C134.102 60.6349 134.117 60.6655 134.142 60.6919C134.167 60.7184 134.201 60.7397 134.24 60.7538C134.352 60.7948 134.476 60.8162 134.601 60.8162C134.726 60.8162 134.849 60.7948 134.961 60.7538C135.003 60.7399 135.039 60.7181 135.065 60.6907C135.091 60.6633 135.107 60.6312 135.111 60.5978L135.048 43.668C135.044 43.7013 135.027 43.7331 135 43.7601C134.973 43.7871 134.937 43.8083 134.895 43.8215C134.784 43.8636 134.661 43.8856 134.536 43.8856C134.411 43.8856 134.288 43.8636 134.178 43.8215C134.137 43.8085 134.103 43.7879 134.077 43.7618C134.051 43.7357 134.036 43.7051 134.031 43.6731Z" fill="#86A7BC"/>
<path d="M134.181 43.5167C133.983 43.6011 133.979 43.7367 134.181 43.8211C134.292 43.8633 134.415 43.8853 134.54 43.8853C134.665 43.8853 134.788 43.8633 134.899 43.8211C135.098 43.7367 135.105 43.6011 134.899 43.5142C134.787 43.4736 134.664 43.4527 134.54 43.4531C134.415 43.4536 134.293 43.4753 134.181 43.5167Z" fill="url(#paint22_linear)"/>
<path d="M143.758 61.7969L143.761 63.3062L148.206 65.2018L148.199 63.6925L143.758 61.7969Z" fill="url(#paint23_linear)"/>
<path d="M148.199 63.6925L148.206 65.2018L152.675 63.3062L152.668 61.7969L148.199 63.6925Z" fill="white"/>
<path d="M143.758 61.797L148.199 63.6925L152.668 61.797L148.227 59.9014L143.758 61.797Z" fill="url(#paint24_linear)"/>
<path d="M146.513 60.3115L146.52 61.8234L148.213 62.5448L148.206 61.0355L146.513 60.3115Z" fill="#F3F4F8"/>
<path d="M148.206 61.0355L148.213 62.5448L149.916 61.8234L149.913 60.3115L148.206 61.0355Z" fill="white"/>
<path d="M146.513 60.3112L148.206 61.0352L149.913 60.3112L148.216 59.5898L146.513 60.3112Z" fill="url(#paint25_linear)"/>
<path d="M159.029 210.753L159.395 172.547L206.993 190.124L206.958 230.213L159.029 210.753Z" fill="#1AA3AD"/>
<path d="M159.35 172.9L159.663 180.288L205.554 197.76L205.369 190.129L159.35 172.9Z" fill="#157577"/>
<path d="M174.701 179.037L175.551 217.885L177.317 218.596L175.973 179.188L174.701 179.037Z" fill="url(#paint26_linear)"/>
<path d="M178.913 217.701L177.317 218.596L175.973 179.188L177.777 178.702L178.913 217.701Z" fill="#D6D7D8"/>
<path d="M223.02 200.119L223.873 238.967L225.636 239.678L224.291 200.268L223.02 200.119Z" fill="url(#paint27_linear)"/>
<path d="M227.234 238.781L225.636 239.679L224.291 200.268L226.099 199.784L227.234 238.781Z" fill="url(#paint28_linear)"/>
<path d="M242.08 207.586L242.934 246.437L244.7 247.145L243.355 207.737L242.08 207.586Z" fill="url(#paint29_linear)"/>
<path d="M246.295 246.25L244.7 247.145L243.355 207.737L245.16 207.251L246.295 246.25Z" fill="url(#paint30_linear)"/>
<path d="M205.553 193.586L206.403 232.434L208.169 233.145L206.824 193.737L205.553 193.586Z" fill="url(#paint31_linear)"/>
<path d="M209.764 232.249L208.169 233.144L206.824 193.736L208.629 193.25L209.764 232.249Z" fill="url(#paint32_linear)"/>
<path d="M191.23 184.629L192.094 224.324L193.86 225.05L192.502 184.782L191.23 184.629Z" fill="url(#paint33_linear)"/>
<path d="M195.454 224.135L193.859 225.051L192.5 184.783L194.304 184.287L195.454 224.135Z" fill="url(#paint34_linear)"/>
<path d="M309.491 169.659L309.07 209.487L261.998 233.838L262.496 190.252L309.491 169.659Z" fill="#EDEDEF"/>
<path d="M262.497 191.168L261.999 233.838L205.379 211.091L205.369 190.13L159.262 172.55L158.656 149.992L262.497 191.168Z" fill="#F3F4F8"/>
<path d="M309.492 169.659L265.044 189.905C263.399 190.652 259.693 190.058 257.986 189.393L158.656 149.997L205.244 128.813L309.492 169.659Z" fill="#C6C6C6"/>
<path d="M274.984 190.449L275.124 193.729L271.309 195.453L271.17 192.176L274.984 190.449Z" fill="#96CEE0"/>
<path d="M282.34 187.124L282.479 190.401L278.665 192.125L278.525 188.848L282.34 187.124Z" fill="#96CEE0"/>
<path d="M293.085 182.258L293.224 185.537L289.406 187.267L289.264 183.987L293.085 182.258Z" fill="#96CEE0"/>
<path d="M300.439 178.933L300.578 182.21L296.76 183.939L296.617 180.659L300.439 178.933Z" fill="#96CEE0"/>
<path d="M275.252 195.384L275.392 198.656L271.581 200.38L271.441 197.108L275.252 195.384Z" fill="#96CEE0"/>
<path d="M282.606 192.056L282.749 195.328L278.934 197.052L278.795 193.78L282.606 192.056Z" fill="#96CEE0"/>
<path d="M293.356 187.193L293.496 190.465L289.675 192.192L289.535 188.923L293.356 187.193Z" fill="#96CEE0"/>
<path d="M300.71 183.864L300.849 187.136L297.028 188.865L296.889 185.594L300.71 183.864Z" fill="#96CEE0"/>
<path d="M275.793 207.982L275.933 211.254L272.122 212.978L271.982 209.707L275.793 207.982Z" fill="#96CEE0"/>
<path d="M283.147 204.654L283.29 207.926L279.475 209.65L279.336 206.378L283.147 204.654Z" fill="#96CEE0"/>
<path d="M293.896 200.048L294.035 203.32L290.214 205.046L290.074 201.777L293.896 200.048Z" fill="#96CEE0"/>
<path d="M301.249 196.464L301.388 199.736L297.567 201.465L297.428 198.193L301.249 196.464Z" fill="#96CEE0"/>
<path d="M276.064 214.278L276.204 217.555L272.389 219.282L272.25 216.005L276.064 214.278Z" fill="#96CEE0"/>
<path d="M283.418 210.95L283.557 214.23L279.746 215.954L279.604 212.677L283.418 210.95Z" fill="#96CEE0"/>
<path d="M294.165 206.087L294.304 209.364L290.487 211.093L290.344 207.816L294.165 206.087Z" fill="#96CEE0"/>
<path d="M301.519 202.759L301.658 206.038L297.84 207.765L297.697 204.488L301.519 202.759Z" fill="#96CEE0"/>
<path d="M267.343 102.828L261.605 102.626L261.616 105.893L267.294 105.89L267.343 102.828Z" fill="#91BECE"/>
<path d="M261.628 109.407L267.31 106.291L267.293 105.89L261.625 108.982L261.628 109.407Z" fill="#4D91C4"/>
<path d="M261.66 105.892L267.293 105.89L261.681 108.977L261.66 105.892Z" fill="#697FBC"/>
<path opacity="0.81" d="M267.193 105.907L267.273 102.848L261.536 105.339L261.49 108.962L267.193 105.907Z" fill="#A6D8F4"/>
<path d="M267.376 113.38L261.639 113.178L261.649 116.444L267.331 116.439L267.376 113.38Z" fill="#91BECE"/>
<path d="M261.664 119.959L267.345 116.841L267.331 116.439L261.66 119.535L261.664 119.959Z" fill="#4D91C4"/>
<path d="M261.699 116.445L267.332 116.439L261.717 119.53L261.699 116.445Z" fill="#697FBC"/>
<path opacity="0.81" d="M267.113 116.46L267.193 113.4L261.455 115.889L261.41 119.514L267.113 116.46Z" fill="#A6D8F4"/>
<path d="M267.411 123.715L261.674 123.513L261.688 126.779L267.366 126.774L267.411 123.715Z" fill="#91BECE"/>
<path d="M261.699 130.292L267.384 127.176L267.367 126.774L261.699 129.87V130.292Z" fill="#4D91C4"/>
<path d="M261.734 126.78L267.367 126.774L261.752 129.865L261.734 126.78Z" fill="#697FBC"/>
<path opacity="0.81" d="M267.036 126.795L267.116 123.732L261.379 126.224L261.334 129.846L267.036 126.795Z" fill="#A6D8F4"/>
<path d="M266.854 62.9873L261.117 62.7852L261.131 66.0519L266.809 66.0494L266.854 62.9873Z" fill="#91BECE"/>
<path d="M261.141 69.5663L266.826 66.4479L266.808 66.0488L261.141 69.1416V69.5663Z" fill="#4D91C4"/>
<path d="M261.176 66.0514L266.808 66.0488L261.193 69.1365L261.176 66.0514Z" fill="#697FBC"/>
<path opacity="0.81" d="M267.14 66.0699L267.22 63.0078L261.483 65.4994L261.438 69.1218L267.14 66.0699Z" fill="#A6D8F4"/>
<path d="M266.886 71.8281L261.148 71.626L261.159 74.8927L266.84 74.8902L266.886 71.8281Z" fill="#91BECE"/>
<path d="M261.171 78.4071L266.853 75.2887L266.839 74.8896L261.168 77.9824L261.171 78.4071Z" fill="#4D91C4"/>
<path d="M261.207 74.8922L266.84 74.8896L261.224 77.9773L261.207 74.8922Z" fill="#697FBC"/>
<path opacity="0.81" d="M267.073 74.9107L267.154 71.8486L261.416 74.3403L261.371 77.9626L267.073 74.9107Z" fill="#A6D8F4"/>
<path d="M267.269 82.3749L261.535 82.1729L261.546 85.4396L267.224 85.4371L267.269 82.3749Z" fill="#91BECE"/>
<path d="M261.557 88.955L267.242 85.8391L267.224 85.4375L261.557 88.5329V88.955Z" fill="#4D91C4"/>
<path d="M261.592 85.4401L267.224 85.4375L261.609 88.5277L261.592 85.4401Z" fill="#697FBC"/>
<path opacity="0.81" d="M267.345 85.458L267.421 82.3984L261.684 84.8875L261.639 88.5124L267.345 85.458Z" fill="#A6D8F4"/>
<path d="M267.308 92.7099L261.57 92.5078L261.581 95.7746L267.259 95.772L267.308 92.7099Z" fill="#91BECE"/>
<path d="M261.592 99.2899L267.277 96.1741L267.263 95.7725L261.592 98.8678V99.2899Z" fill="#4D91C4"/>
<path d="M261.629 95.775L267.262 95.7725L261.646 98.8601L261.629 95.775Z" fill="#697FBC"/>
<path opacity="0.81" d="M267.27 95.7926L267.347 92.7305L261.61 95.2221L261.564 98.8444L267.27 95.7926Z" fill="#A6D8F4"/>
<path d="M266.882 54.9185L266.653 38.5898L249.002 47.2594L251.51 156.84L262.504 151.857L261.312 58.0599L266.882 54.9185Z" fill="url(#paint35_linear)"/>
<path d="M198.617 27.7334L204.347 134.001L251.82 155.781L249.001 47.2597L198.617 27.7334Z" fill="url(#paint36_linear)"/>
<path d="M216.515 19.5117L198.617 27.7336L249.001 47.2599L266.652 38.5904L216.515 19.5117Z" fill="#C6C6C6"/>
<path d="M255.376 55.6836L255.446 61.5443L252.976 63.0332L252.91 57.459L255.376 55.6836Z" fill="#6E81C6"/>
<path d="M260.132 52.2578L260.202 58.226L257.736 59.8632L257.666 54.0332L260.132 52.2578Z" fill="#6E81C6"/>
<path d="M255.585 66.0059L255.655 71.8666L253.185 73.3554L253.119 67.7812L255.585 66.0059Z" fill="#6E81C6"/>
<path d="M260.341 62.5801L260.411 68.5482L257.945 70.1854L257.875 64.3554L260.341 62.5801Z" fill="#6E81C6"/>
<path d="M255.677 75.5625L255.747 81.4232L253.277 82.912L253.211 77.3404L255.677 75.5625Z" fill="#6E81C6"/>
<path d="M260.431 72.1377L260.501 78.1059L258.035 79.7456L257.965 73.913L260.431 72.1377Z" fill="#6E81C6"/>
<path d="M255.808 95.4443L255.874 101.305L253.408 102.794L253.342 97.2197L255.808 95.4443Z" fill="#6E81C6"/>
<path d="M260.476 82.918L260.546 88.8861L258.079 90.5233L258.01 84.6933L260.476 82.918Z" fill="#6E81C6"/>
<path d="M255.376 85.376L255.446 91.3441L252.98 92.9814L252.91 87.1513L255.376 85.376Z" fill="#6E81C6"/>
<path d="M256.421 105.158L256.491 111.129L254.025 112.766L253.955 106.936L256.421 105.158Z" fill="#6E81C6"/>
<path d="M256.644 114.184L256.714 120.152L254.247 121.789L254.178 115.959L256.644 114.184Z" fill="#6E81C6"/>
<path d="M256.85 124.516L256.923 130.486L254.453 132.124L254.387 126.294L256.85 124.516Z" fill="#6E81C6"/>
<path d="M257.072 134.183L257.141 140.153L254.675 141.788L254.605 135.961L257.072 134.183Z" fill="#6E81C6"/>
<path d="M256.421 144.132L256.491 150.1L254.025 151.737L253.955 145.907L256.421 144.132Z" fill="#6E81C6"/>
<path d="M260.685 93.2393L260.755 99.2074L258.288 100.845L258.219 95.0146L260.685 93.2393Z" fill="#6E81C6"/>
<path d="M260.775 102.797L260.845 108.768L258.378 110.405L258.309 104.575L260.775 102.797Z" fill="#6E81C6"/>
<path d="M260.809 112.356L260.882 118.325L258.412 119.962L258.346 114.132L260.809 112.356Z" fill="#6E81C6"/>
<path d="M261.016 122.679L261.085 128.647L258.619 130.284L258.553 124.454L261.016 122.679Z" fill="#6E81C6"/>
<path d="M261.105 132.236L261.175 138.207L258.709 139.844L258.643 134.014L261.105 132.236Z" fill="#6E81C6"/>
<path d="M260.968 141.796L261.038 147.767L258.572 149.404L258.502 143.574L260.968 141.796Z" fill="#6E81C6"/>
<path d="M250 56.1237C241.045 59.961 190.758 60.2603 181.725 56.4358L160.87 47.2598L158.641 149.992L193.781 162.678C197.784 167.027 227.222 168.708 234.997 162.525L251.819 155.792L250 56.1237Z" fill="#1AA3AD"/>
<path d="M187.996 107.186L188.003 103.999L194.099 106.631L194.13 109.77L187.996 107.186Z" fill="url(#paint37_linear)"/>
<path d="M199.052 87.8346L160.334 71.4189L160.254 74.8366L199.038 91.283C207.799 94.9974 222.008 94.9974 230.713 91.283L251.711 82.3294V81.3855V78.8811L230.717 87.8346C222.022 91.549 207.813 91.549 199.052 87.8346Z" fill="#148291"/>
<path d="M198.89 101.74L159.705 85.125L159.305 88.4097L198.876 105.189C207.637 108.903 221.846 108.903 230.551 105.189L251.546 96.235V95.2911V92.7866L230.551 101.74C221.86 105.455 207.651 105.455 198.89 101.74Z" fill="#148291"/>
<path d="M199.751 114.689L159.409 97.583L159.305 100.993L199.737 118.133C208.498 121.847 222.707 121.847 231.412 118.133L252.41 109.179V108.238V105.733L231.415 114.687C222.72 118.404 208.512 118.404 199.751 114.689Z" fill="#148291"/>
<path d="M193.797 62.8694L192.355 163.799L177.533 157.293L177.728 55.5762L193.797 62.8694Z" fill="#158184"/>
<path d="M229.941 63.8676C223.033 66.5818 215.802 68.086 207.874 66.9374C198.298 65.3718 177.376 55.0267 159.304 46.6104L158.656 149.993L177.533 157.294L178.578 71.1379L197.58 79.2267C200.778 80.5875 204.366 81.3797 208.055 81.54C211.745 81.7004 215.435 81.2244 218.829 80.1502L250.235 69.0837L250.013 56.1241L229.941 63.8676Z" fill="#F3F4F8"/>
<path d="M159.305 46.6098L202.499 68.0829C205.021 69.18 207.891 69.771 210.822 69.7966C213.753 69.8221 216.642 69.2814 219.199 68.2287L250.02 56.1235L200.127 34.9062L159.305 46.6098Z" fill="#ADC3F7"/>
<path d="M211.126 26.4589L188.808 18.2217L161.494 30.3192C167.855 33.2789 184.596 39.3571 184.596 39.3571L211.126 26.4589Z" fill="#EBEBED"/>
<path d="M161.496 30.3193L159.305 46.6096L177.951 55.8829L184.57 38.7894C175.517 35.63 167.128 32.55 161.496 30.3193Z" fill="#F3F4F8"/>
<path d="M207.775 58.784C214.837 59.8049 222.162 59.0516 228.571 56.6453L246.72 51.2221L221.865 40.043L181.109 48.779C181.109 48.779 188.393 52.1532 191.814 53.5449C198.359 56.2053 204.013 58.1956 207.775 58.784Z" fill="#EBEBED"/>
<path d="M241.547 41.3857L225.756 48.8606C220.009 51.0172 214.55 53.0586 207.953 52.1504C204.56 51.6209 199.453 49.8225 193.552 47.423C193.019 47.2055 183.576 43.0562 182.889 42.7569L180.643 48.7686C180.643 48.7686 196.973 57.0058 207.486 59.2058C220.347 61.897 250.349 49.4669 248.022 48.4053" fill="#F3F4F8"/>
<path d="M206.57 46.1362C212.144 47.3897 217.491 45.6783 223.103 43.4528L237.245 36.822L211.12 26.459L184.59 39.3572C184.59 39.3572 188.934 41.199 191.787 42.3348C199.858 45.5351 203.669 45.4814 206.57 46.1362Z" fill="#EBEBED"/>
<path d="M223.103 43.453C217.815 45.4355 213.001 46.973 206.926 46.1365C203.791 45.6479 198.493 45.0672 193.066 42.8595C192.578 42.66 185.221 39.0658 184.587 38.7895L182.891 42.7674C182.891 42.7674 198.301 50.0939 207.954 52.1609C219.049 54.5374 242.182 42.3479 241.548 41.386L237.246 36.8223L223.103 43.453Z" fill="#F3F4F8"/>
<path d="M247.289 47.2598L229.004 55.5123C222.63 57.9042 214.799 60.227 207.487 59.2191C203.725 58.6307 181.55 48.7486 180.787 48.4186L177.951 55.8858L183.688 59.0733L202.067 68.2135C207.198 70.4468 213.628 70.9789 218.833 68.8352C224.65 67.4205 237.553 61.3858 250.002 56.1263L247.289 47.2598Z" fill="#F3F4F8"/>
<path d="M196.588 30.1445L196.584 31.3571L193.014 32.8817L193.017 31.6692L196.588 30.1445Z" fill="white"/>
<path d="M193.017 31.6696L193.013 32.8821L189.422 31.36L189.429 30.1475L193.017 31.6696Z" fill="url(#paint38_linear)"/>
<path d="M196.588 30.1451L193.018 31.6698L189.43 30.1477L193 28.623L196.588 30.1451Z" fill="url(#paint39_linear)"/>
<path d="M193.954 0.381698L193.839 29.9462C193.831 30.0013 193.803 30.0538 193.758 30.0986C193.714 30.1434 193.654 30.1791 193.585 30.202C193.39 30.2744 193.175 30.3121 192.956 30.3121C192.738 30.3121 192.523 30.2744 192.328 30.202C192.256 30.1776 192.193 30.1397 192.148 30.0921C192.102 30.0445 192.074 29.9889 192.066 29.9309L192.181 0.374023C192.188 0.432303 192.215 0.488255 192.261 0.535979C192.307 0.583704 192.37 0.621433 192.443 0.645187C192.638 0.717576 192.853 0.755292 193.071 0.755292C193.29 0.755292 193.505 0.717576 193.7 0.645187C193.77 0.621575 193.831 0.58478 193.875 0.538518C193.92 0.492255 193.947 0.438162 193.954 0.381698Z" fill="url(#paint40_linear)"/>
<path d="M193.691 0.11294C194.039 0.258754 194.039 0.496662 193.691 0.645034C193.496 0.717423 193.28 0.755139 193.062 0.755139C192.843 0.755139 192.628 0.717423 192.433 0.645034C192.085 0.496662 192.085 0.258754 192.433 0.110382C192.628 0.0367728 192.843 -0.00141791 193.062 -0.000972714C193.281 -0.000527514 193.497 0.0385406 193.691 0.11294Z" fill="url(#paint41_linear)"/>
<path d="M162.146 52.084L160.773 52.7363L162.501 53.56L162.553 53.5831L163.922 52.9307L163.874 52.9077L162.146 52.084Z" fill="#CC2B2B"/>
<path d="M162.555 53.583L164.934 58.4128V54.9797L163.924 52.9307L162.555 53.583Z" fill="#931F1F"/>
<path d="M162.502 56.1621V59.9303L163.874 59.2933L163.867 58.4082L162.502 56.1621Z" fill="#931F1F"/>
<path d="M166.303 54.0645L164.934 54.7168L166.654 55.5379L168.03 54.8882L168.023 54.8856L166.303 54.0645Z" fill="#CC2B2B"/>
<path d="M166.661 55.54V61.9277L168.023 61.2703L168.03 61.2754V54.8877L166.654 55.5375L166.661 55.54Z" fill="#931F1F"/>
<path d="M164.933 54.7163V58.4129L162.553 53.5831L162.501 53.5601L160.773 52.7363V59.124L162.487 59.9375L162.501 59.9452V56.1617L164.922 61.0989L164.933 61.104L166.653 61.9252L166.66 61.9277V55.5401L166.653 55.5375L164.933 54.7163Z" fill="#BE2827"/>
<path d="M169.789 55.8037L168.42 56.456L170.008 57.2132L170.179 57.2951L171.548 56.6428L171.377 56.5609L169.789 55.8037Z" fill="#CC2B2B"/>
<path d="M170.18 59.5691L171.549 58.551V56.6426L170.18 57.2949V59.5691Z" fill="#931F1F"/>
<path d="M172.043 58.1826L174.318 59.2647L175.687 58.6124L173.412 57.5303L172.043 58.1826Z" fill="#CC2B2B"/>
<path d="M171.969 60.7916L174.759 65.9616L176.145 65.34L173.338 60.1367L171.969 60.7916Z" fill="#931F1F"/>
<path d="M171.969 60.7918L173.338 60.137L175.686 58.6123L174.317 59.2646L171.969 60.7918Z" fill="#931F1F"/>
<path d="M170.18 61.9819L170.814 61.6801L170.761 61.5752L170.18 61.9819Z" fill="#CC2B2B"/>
<path d="M170.18 61.9816V63.803L171.549 63.1506V63.0841L170.814 61.6797L170.18 61.9816Z" fill="#931F1F"/>
<path d="M174.317 59.2649L172.043 58.1828L170.179 59.5693V57.2951L170.008 57.2133L168.42 56.4561V62.964L170.008 63.7212L170.179 63.803V61.9817L170.761 61.5749L172.503 64.9107L174.777 65.9928L171.97 60.7921L174.317 59.2649Z" fill="#BE2827"/>
<path d="M177.852 67.4163L179.221 66.764V65.8789L177.852 65.2266V67.4163Z" fill="#931F1F"/>
<path d="M177.852 63.7896L179.189 63.1526L177.852 62.5156V63.7896Z" fill="#931F1F"/>
<path d="M181.091 64.0605L179.189 63.1523L177.852 63.7893L180.203 64.9098L181.572 64.2575L181.129 64.0451L181.091 64.0605Z" fill="#CC2B2B"/>
<path d="M180.203 66.3468L181.572 65.6945V64.2568L180.203 64.9092V66.3468Z" fill="#931F1F"/>
<path d="M181.092 64.0605L181.13 64.0451L182.464 63.4082V61.9219L181.092 62.5742V64.0605Z" fill="#931F1F"/>
<path d="M176.064 60.1793L181.091 62.5737L182.464 61.9214L177.433 59.5244L176.064 60.1793Z" fill="#CC2B2B"/>
<path d="M176.064 66.5674L177.851 67.4167V65.2269L180.203 66.3474V64.9097L177.851 63.7892V62.5153L181.091 64.0604V62.5741L176.064 60.1797V66.5674Z" fill="#BE2827"/>
<path d="M205.759 184.788L159.029 166.628L158.82 155.441L205.972 173.878L205.759 184.788Z" fill="#F3F4F8"/>
<path d="M264.075 205.555C262.428 206.302 258.725 205.709 257.018 205.044L159.029 166.628L159.378 173.323L256.666 210.16C258.37 210.828 262.076 211.424 263.72 210.672L309.377 190.626L309.496 185.709L264.075 205.555Z" fill="#AFE1F2"/>
<path d="M264.59 189.242C262.946 189.989 259.239 189.393 257.532 188.73L158.648 149.762L158.819 155.441L257.177 193.844C258.884 194.511 262.587 195.107 264.231 194.355L309.491 174.21V169.659L264.59 189.242Z" fill="#AFE1F2"/>
<path d="M211.785 184.479V178.242L214.757 179.319L214.548 185.64L211.785 184.479Z" fill="#96CEE0"/>
<path d="M217.027 186.525V180.288L219.999 181.365L219.79 187.686L217.027 186.525Z" fill="#96CEE0"/>
<path d="M221.957 188.664V182.427L224.928 183.504L224.719 189.825L221.957 188.664Z" fill="#96CEE0"/>
<path d="M227.199 190.537V184.3L230.167 185.377L229.962 191.701L227.199 190.537Z" fill="#96CEE0"/>
<path d="M231.895 192.667V186.428L234.866 187.505L234.657 193.828L231.895 192.667Z" fill="#96CEE0"/>
<path d="M237.219 194.675V188.436L240.19 189.513L239.981 195.834L237.219 194.675Z" fill="#96CEE0"/>
<path d="M242.385 196.623V190.386L245.356 191.463L245.147 197.784L242.385 196.623Z" fill="#96CEE0"/>
<path d="M248.127 198.63V192.391L251.095 193.468L250.889 199.791L248.127 198.63Z" fill="#96CEE0"/>
<path d="M253.68 200.633V194.396L256.648 195.473L256.442 201.797L253.68 200.633Z" fill="#96CEE0"/>
<path d="M209.967 206.041L210.336 194.777L213.273 195.908L212.896 207.243L209.967 206.041Z" fill="#96CEE0"/>
<path d="M214.68 207.962L215.049 196.688L217.985 197.817L217.609 209.162L214.68 207.962Z" fill="#96CEE0"/>
<path d="M219.438 209.838L219.807 198.6L222.743 199.728L222.371 211.035L219.438 209.838Z" fill="#96CEE0"/>
<path d="M224.416 211.971L224.785 200.733L227.718 201.862L227.346 213.197L224.416 211.971Z" fill="#96CEE0"/>
<path d="M229.404 213.777L229.774 202.536L232.707 203.667L232.334 215.002L229.404 213.777Z" fill="#96CEE0"/>
<path d="M234.197 215.813L234.567 204.575L237.503 205.706L237.13 217.018L234.197 215.813Z" fill="#96CEE0"/>
<path d="M244.729 220.402L245.101 209.175L248.034 210.305L247.662 221.602L244.729 220.402Z" fill="#96CEE0"/>
<path d="M250.875 222.81L251.248 211.549L254.181 212.68L253.808 224.012L250.875 222.81Z" fill="#96CEE0"/>
<path d="M238.988 217.96L239.358 206.722L242.294 207.852L241.921 219.164L238.988 217.96Z" fill="#96CEE0"/>
<path d="M263.828 228.005C261.699 228.729 261.389 228.885 258.801 228.279L205.379 207.652L205.303 212.357L258.731 233.106C260.438 233.774 262.717 234.145 264.364 233.398L309.074 213.797V208.361L263.828 228.005Z" fill="#AFE1F2"/>
<path d="M177.586 118.294L181.783 117.67L192.923 122.162L192.847 124.751L177.586 118.294Z" fill="#116B72"/>
<path d="M177.585 121.963L177.533 157.386L192.376 163.062L193.351 128.32L177.585 121.963Z" fill="#1AA3AD"/>
<path d="M183.546 73.2584L181.783 117.67L177.586 118.295L178.561 71.1377L183.546 73.2584Z" fill="#148291"/>
<path d="M182.228 104.528L173.133 107.388V113.07L182.343 110.566L182.228 104.528Z" fill="#A0D2E8"/>
<path d="M173.133 113.069V114.814L188.077 121.191L188.066 119.398L173.133 113.069Z" fill="#1BA7AA"/>
<path d="M188.066 119.398L188.073 121.191L196.719 117.648V115.732L188.066 119.398Z" fill="#1BA7AA"/>
<path d="M173.133 113.07L188.042 119.414L196.719 115.733L182.343 110.565L173.133 113.07Z" fill="#1BA7AA"/>
<path opacity="0.81" d="M173.133 113.07V107.389L188.077 113.26L188.042 119.415L173.133 113.07Z" fill="#A6D8F4"/>
<path d="M196.719 109.66L188.077 113.259L188.066 119.414L196.719 115.733V109.66Z" fill="#A0D2E8"/>
<path opacity="0.81" d="M196.72 109.66L182.229 104.528L182.343 110.566L196.72 115.733" fill="#A6D8F4"/>
<path d="M181.88 89.9092L172.785 92.7666V98.4508L181.995 95.9464L181.88 89.9092Z" fill="#A0D2E8"/>
<path d="M172.785 98.4502V100.195L187.729 106.572L187.719 104.779L172.785 98.4502Z" fill="#1BA7AA"/>
<path d="M187.719 104.779L187.726 106.572L196.372 103.029V101.113L187.719 104.779Z" fill="#1BA7AA"/>
<path d="M172.785 98.4507L187.694 104.795L196.371 101.114L181.995 95.9463L172.785 98.4507Z" fill="#1BA7AA"/>
<path opacity="0.81" d="M172.785 98.4508V92.7666L187.729 98.6375L187.694 104.795L172.785 98.4508Z" fill="#A6D8F4"/>
<path d="M196.372 95.041L187.729 98.6378L187.719 104.795L196.372 101.114V95.041Z" fill="#A0D2E8"/>
<path opacity="0.81" d="M196.372 95.0408L181.881 89.9092L181.996 95.9464L196.372 101.114" fill="#A6D8F4"/>
<path d="M183.464 77.6943L174.369 80.5544V86.2385L183.579 83.7316L183.464 77.6943Z" fill="#A0D2E8"/>
<path d="M174.369 86.2383V87.9829L189.313 94.3604L189.303 92.5671L174.369 86.2383Z" fill="#1BA7AA"/>
<path d="M189.303 92.5672L189.306 94.3605L197.956 90.8174V88.9014L189.303 92.5672Z" fill="#1BA7AA"/>
<path d="M174.369 86.2384L189.275 92.5801L197.955 88.9015L183.579 83.7314L174.369 86.2384Z" fill="#1BA7AA"/>
<path opacity="0.81" d="M174.369 86.2389V80.5547L189.313 86.4256L189.275 92.5805L174.369 86.2389Z" fill="#A6D8F4"/>
<path d="M197.956 82.8281L189.313 86.4249L189.303 92.5798L197.956 88.9012V82.8281Z" fill="#A0D2E8"/>
<path opacity="0.81" d="M197.956 82.8285L183.465 77.6943L183.58 83.7316L197.956 88.9016" fill="#A6D8F4"/>
<path d="M230.512 130.77L251.51 121.817V120.875V118.368L230.512 127.322C221.803 131.036 207.598 131.036 198.837 127.322L177.588 118.294V121.962L198.837 130.77C207.598 134.484 221.81 134.484 230.512 130.77Z" fill="#148291"/>
<path d="M230.058 143.29L251.053 134.336V133.395V130.891L230.055 139.844C221.346 143.559 207.141 143.559 198.384 139.844L177.553 131.006V134.457L198.37 143.29C207.144 147.004 221.353 147.004 230.058 143.29Z" fill="#148291"/>
<path d="M230.511 156.006L251.51 147.053V146.111V143.607L230.511 152.561C221.803 156.272 207.598 156.275 198.837 152.561L177.539 143.53V147.112L198.823 155.994C207.598 159.721 221.81 159.721 230.511 156.006Z" fill="#148291"/>
<path d="M198.838 165.802C207.599 169.516 221.811 169.516 230.513 165.802L251.511 156.848V155.907V153.402L230.513 162.356C221.804 166.07 207.599 166.07 198.838 162.356L177.533 153.489V157.373L198.838 165.802Z" fill="#148291"/>
<path d="M187.659 168.628L187.541 174.854L190.46 176.029L190.579 169.8L187.659 168.628Z" fill="#96CEE0"/>
<path d="M182.513 166.723L182.398 172.949L185.028 174.011L185.147 167.782L182.513 166.723Z" fill="#96CEE0"/>
<path d="M202.292 174.205L202.174 180.432L204.529 181.381L204.647 175.154L202.292 174.205Z" fill="#96CEE0"/>
<path d="M192.734 170.852L192.615 177.078L194.813 177.961L194.928 171.734L192.734 170.852Z" fill="#96CEE0"/>
<path d="M197.224 172.499L197.105 178.728L199.572 179.718L199.69 173.492L197.224 172.499Z" fill="#96CEE0"/>
<path d="M177.724 164.873L177.605 171.102L179.96 172.049L180.079 165.822L177.724 164.873Z" fill="#96CEE0"/>
<path d="M175.084 170.114L160.475 164.873V158.354L175.485 163.798L175.084 170.114Z" fill="#F2F2F4"/>
<path d="M168.326 176.341L169.023 214.823" stroke="#F3F4F8" stroke-miterlimit="10"/>
<path d="M184.803 182.642L185.496 221.139" stroke="#F3F4F8" stroke-miterlimit="10"/>
<path d="M199.105 188.07L199.799 226.568" stroke="#F3F4F8" stroke-miterlimit="10"/>
<path d="M205.553 209.65L97.0195 167.116L97.0613 163.854L205.124 205.841L205.553 209.65Z" fill="#AFE1F2"/>
<path d="M103.102 138.222L103.252 147.949L99.0576 146.347L98.9287 136.634L103.102 138.222Z" fill="#96CEE0"/>
<path d="M111.783 141.473L111.936 151.199L107.739 149.598L107.613 139.885L111.783 141.473Z" fill="#96CEE0"/>
<path d="M120.881 145.067L121.031 154.794L116.837 153.192L116.708 143.481L120.881 145.067Z" fill="#96CEE0"/>
<path d="M130.175 148.557L130.325 158.285L126.131 156.681L126.002 146.971L130.175 148.557Z" fill="#96CEE0"/>
<path d="M139.187 152.115L139.337 161.841L135.143 160.24L135.014 150.529L139.187 152.115Z" fill="#96CEE0"/>
<path d="M148.647 155.832L148.8 165.558L144.603 163.957L144.478 154.246L148.647 155.832Z" fill="#96CEE0"/>
<path d="M158.908 159.805L159.144 169.56L154.863 167.93L154.734 158.217L158.908 159.805Z" fill="#96CEE0"/>
<path d="M102.74 126.209L102.893 135.935L98.6957 134.334L98.5703 124.623L102.74 126.209Z" fill="#96CEE0"/>
<path d="M111.95 129.511L112.103 139.238L107.906 137.636L107.78 127.923L111.95 129.511Z" fill="#96CEE0"/>
<path d="M121.049 133.106L121.202 142.832L117.004 141.23L116.879 131.52L121.049 133.106Z" fill="#96CEE0"/>
<path d="M130.342 136.595L130.495 146.321L126.298 144.719L126.169 135.009L130.342 136.595Z" fill="#96CEE0"/>
<path d="M139.355 140.153L139.505 149.88L135.311 148.278L135.182 138.567L139.355 140.153Z" fill="#96CEE0"/>
<path d="M148.815 143.87L148.968 153.596L144.771 151.995L144.646 142.284L148.815 143.87Z" fill="#96CEE0"/>
<path d="M158.67 147.687L158.855 157.429L155.03 155.968L154.904 146.255L158.67 147.687Z" fill="#96CEE0"/>
<path d="M102.764 113.675L102.914 123.401L98.7197 121.799L98.5908 112.086L102.764 113.675Z" fill="#96CEE0"/>
<path d="M111.974 116.974L112.124 126.702L107.93 125.098L107.801 115.388L111.974 116.974Z" fill="#96CEE0"/>
<path d="M121.069 120.571L121.222 130.297L117.025 128.696L116.899 118.982L121.069 120.571Z" fill="#96CEE0"/>
<path d="M130.363 124.06L130.516 133.786L126.319 132.185L126.193 122.472L130.363 124.06Z" fill="#96CEE0"/>
<path d="M139.375 127.619L139.528 137.345L135.33 135.744L135.205 126.03L139.375 127.619Z" fill="#96CEE0"/>
<path d="M148.84 131.336L148.99 141.062L144.796 139.46L144.667 129.747L148.84 131.336Z" fill="#96CEE0"/>
<path d="M158.749 135.175L158.686 144.82L155.049 143.43L154.924 133.72L158.749 135.175Z" fill="#96CEE0"/>
<path d="M102.545 99.5353L102.698 109.261L98.5004 107.66L98.375 97.9492L102.545 99.5353Z" fill="#96CEE0"/>
<path d="M111.758 102.838L111.908 112.564L107.71 110.962L107.585 101.249L111.758 102.838Z" fill="#96CEE0"/>
<path d="M120.854 106.432L121.008 116.158L116.81 114.556L116.685 104.846L120.854 106.432Z" fill="#96CEE0"/>
<path d="M130.147 109.921L130.3 119.647L126.103 118.046L125.978 108.335L130.147 109.921Z" fill="#96CEE0"/>
<path d="M139.159 113.48L139.312 123.206L135.115 121.604L134.989 111.894L139.159 113.48Z" fill="#96CEE0"/>
<path d="M148.623 117.197L148.773 126.923L144.576 125.322L144.45 115.611L148.623 117.197Z" fill="#96CEE0"/>
<path d="M158.83 121.149L158.774 130.799L154.834 129.294L154.709 119.581L158.83 121.149Z" fill="#96CEE0"/>
<path d="M102.615 85.4607L102.768 95.1868L98.5703 93.5854L98.4414 83.8721L102.615 85.4607Z" fill="#96CEE0"/>
<path d="M111.825 88.7609L111.978 98.4869L107.78 96.8855L107.651 87.1748L111.825 88.7609Z" fill="#96CEE0"/>
<path d="M120.922 92.3546L121.072 102.083L116.878 100.479L116.749 90.7686L120.922 92.3546Z" fill="#96CEE0"/>
<path d="M130.216 95.8464L130.366 105.573L126.172 103.971L126.043 94.2578L130.216 95.8464Z" fill="#96CEE0"/>
<path d="M139.229 99.4025L139.379 109.131L135.185 107.53L135.056 97.8164L139.229 99.4025Z" fill="#96CEE0"/>
<path d="M148.69 103.119L148.84 112.848L144.645 111.246L144.517 101.533L148.69 103.119Z" fill="#96CEE0"/>
<path d="M158.924 107.084L158.865 116.728L154.904 115.217L154.775 105.506L158.924 107.084Z" fill="#96CEE0"/>
<path d="M102.615 85.4607L102.649 87.6632L98.4693 85.9007L98.4414 83.8721L102.615 85.4607Z" fill="#89BDC9"/>
<path d="M111.825 88.7609L111.859 90.9634L107.679 89.2009L107.651 87.1748L111.825 88.7609Z" fill="#89BDC9"/>
<path d="M120.922 92.3546L120.957 94.5597L116.777 92.7972L116.749 90.7686L120.922 92.3546Z" fill="#89BDC9"/>
<path d="M130.216 95.8464L130.251 98.049L126.071 96.2864L126.043 94.2578L130.216 95.8464Z" fill="#89BDC9"/>
<path d="M139.208 99.4025L139.243 101.608L135.062 99.845L135.038 97.8164L139.208 99.4025Z" fill="#89BDC9"/>
<path d="M148.69 103.119L148.725 105.324L144.544 103.562L144.517 101.533L148.69 103.119Z" fill="#89BDC9"/>
<path d="M158.918 107.092L158.953 109.294L154.776 107.534L154.748 105.506L158.918 107.092Z" fill="#89BDC9"/>
<path d="M102.618 99.6329L102.653 101.835L98.4761 100.075L98.4482 98.0469L102.618 99.6329Z" fill="#89BDC9"/>
<path d="M111.831 102.935L111.863 105.138L107.686 103.375L107.658 101.347L111.831 102.935Z" fill="#89BDC9"/>
<path d="M120.926 106.529L120.961 108.732L116.781 106.969L116.757 104.943L120.926 106.529Z" fill="#89BDC9"/>
<path d="M130.22 110.019L130.255 112.224L126.075 110.461L126.051 108.433L130.22 110.019Z" fill="#89BDC9"/>
<path d="M139.214 113.577L139.249 115.782L135.069 114.017L135.041 111.991L139.214 113.577Z" fill="#89BDC9"/>
<path d="M148.694 117.294L148.729 119.497L144.549 117.734L144.524 115.708L148.694 117.294Z" fill="#89BDC9"/>
<path d="M158.924 121.266L158.958 123.469L154.778 121.706L154.754 119.678L158.924 121.266Z" fill="#89BDC9"/>
<path d="M102.451 113.684L102.486 115.887L98.3056 114.124L98.2812 112.096L102.451 113.684Z" fill="#89BDC9"/>
<path d="M112.01 116.928L112.044 119.133L107.864 117.37L107.84 115.342L112.01 116.928Z" fill="#89BDC9"/>
<path d="M121.108 120.523L121.143 122.728L116.962 120.965L116.935 118.937L121.108 120.523Z" fill="#89BDC9"/>
<path d="M130.402 124.06L130.436 126.263L126.256 124.5L126.229 122.472L130.402 124.06Z" fill="#89BDC9"/>
<path d="M139.434 127.572L139.469 129.775L135.289 128.012L135.265 125.983L139.434 127.572Z" fill="#89BDC9"/>
<path d="M148.874 131.29L148.909 133.492L144.728 131.73L144.704 129.701L148.874 131.29Z" fill="#89BDC9"/>
<path d="M158.749 135.175L158.655 137.263L154.952 135.702L154.924 133.674L158.749 135.175Z" fill="#89BDC9"/>
<path d="M102.74 126.171L102.775 128.376L98.5703 126.6V124.623L102.74 126.171Z" fill="#89BDC9"/>
<path d="M111.804 129.401L111.839 131.604L107.659 129.841L107.631 127.812L111.804 129.401Z" fill="#89BDC9"/>
<path d="M120.899 132.996L120.934 135.199L116.754 133.436L116.729 131.41L120.899 132.996Z" fill="#89BDC9"/>
<path d="M130.192 136.485L130.227 138.688L126.047 136.928L126.022 134.899L130.192 136.485Z" fill="#89BDC9"/>
<path d="M139.204 140.044L139.239 142.247L135.059 140.487L135.031 138.458L139.204 140.044Z" fill="#89BDC9"/>
<path d="M148.666 143.761L148.701 145.963L144.52 144.203L144.496 142.175L148.666 143.761Z" fill="#89BDC9"/>
<path d="M262.503 151.857L309.491 169.659L309.494 165.244L262.447 147.403L262.503 151.857Z" fill="url(#paint42_linear)"/>
<path d="M264.593 184.297C262.949 185.047 259.243 184.451 257.536 183.786L203.41 163.799L202.77 167.124L257.181 188.892C258.888 189.559 262.59 190.155 264.235 189.403L309.491 169.644V165.257L264.593 184.297Z" fill="#F3F4F8"/>
<path d="M158.7 147.626L158.606 149.716L154.903 148.153L154.875 146.124L158.7 147.626Z" fill="#89BDC9"/>
<path d="M103.081 138.14L103.113 140.346L98.9082 138.57V136.593L103.081 138.14Z" fill="#89BDC9"/>
<path d="M111.794 141.371L111.829 143.573L107.648 141.811L107.624 139.782L111.794 141.371Z" fill="#89BDC9"/>
<path d="M120.888 144.966L120.923 147.168L116.743 145.406L116.719 143.377L120.888 144.966Z" fill="#89BDC9"/>
<path d="M130.182 148.454L130.217 150.657L126.037 148.894L126.013 146.868L130.182 148.454Z" fill="#89BDC9"/>
<path d="M139.194 152.013L139.229 154.216L135.049 152.453L135.024 150.425L139.194 152.013Z" fill="#89BDC9"/>
<path d="M148.658 155.73L148.69 157.933L144.513 156.17L144.485 154.142L148.658 155.73Z" fill="#89BDC9"/>
<path d="M158.694 159.595L158.596 161.683L154.894 160.122L154.869 158.094L158.694 159.595Z" fill="#89BDC9"/>
</g>
<path opacity="0.2" d="M320.062 89.3003C319.255 89.2578 318.504 89.4846 317.894 89.8959C316.746 90.6757 315.372 91.0727 313.983 91.0727H313.884C312.467 91.0727 311.574 90.619 310.384 89.8533C309.831 89.4988 308.698 89.2861 308.003 89.2861C307.309 89.2861 306.161 89.4988 305.623 89.8533C304.433 90.6332 303.554 91.0727 302.123 91.0727H302.024C300.635 91.0727 299.26 90.6757 298.113 89.8959C297.503 89.4846 296.752 89.2578 295.945 89.3003C294.159 89.3996 292.714 90.8601 292.643 92.6609C292.572 94.6602 294.159 96.2908 296.129 96.2908C296.823 96.2908 297.475 96.0781 298.028 95.7236C299.218 94.9438 300.592 94.5042 302.009 94.5042H302.109C303.526 94.5042 304.418 94.9579 305.609 95.7236C306.161 96.0781 307.295 96.2908 307.989 96.2908C308.684 96.2908 309.831 96.0781 310.37 95.7236C311.56 94.9438 312.439 94.5042 313.87 94.5042H313.969C315.386 94.5042 316.761 94.9579 317.951 95.7236C318.504 96.0781 319.155 96.2908 319.85 96.2908C321.819 96.2908 323.421 94.646 323.336 92.6609C323.293 90.8601 321.848 89.3996 320.062 89.3003Z" fill="#479096"/>
<path opacity="0.2" d="M80.2441 48.3775C79.0396 48.3066 77.906 48.6611 76.9849 49.2849C75.2561 50.4618 73.1873 51.0574 71.0759 51.0574H70.9201C68.7804 51.0574 67.4484 50.3768 65.6488 49.2141C64.8269 48.6752 63.1123 48.3633 62.0495 48.3633C61.0009 48.3633 59.2722 48.6752 58.4503 49.2141C56.6507 50.3768 55.3187 51.0574 53.179 51.0574H53.0515C50.9543 51.0574 48.8854 50.4618 47.1425 49.2849C46.2214 48.6611 45.102 48.3207 43.8834 48.3775C41.191 48.5193 39.023 50.7313 38.9238 53.4395C38.8104 56.4456 41.2052 58.9128 44.1809 58.9128C45.2295 58.9128 46.2214 58.6009 47.0433 58.0621C48.8429 56.8993 50.9118 56.2187 53.0515 56.2187H53.2073C55.347 56.2187 56.679 56.8993 58.4786 58.0621C59.3005 58.6009 61.0151 58.9128 62.0779 58.9128C63.1265 58.9128 64.8552 58.6009 65.6771 58.0621C67.4767 56.8993 68.8087 56.2187 70.9484 56.2187H71.1043C73.244 56.2187 75.3128 56.8993 77.1124 58.0621C77.9343 58.6009 78.9121 58.9128 79.9748 58.9128C82.9506 58.9128 85.3453 56.4456 85.2319 53.4395C85.1186 50.7313 82.9364 48.5193 80.2441 48.3775Z" fill="#479096"/>
<path d="M108.053 185.293C108.053 182.514 106.707 180.075 104.695 178.714C103.576 177.962 102.995 176.53 103.264 175.127C103.335 174.729 103.377 174.332 103.377 173.921C103.377 171.156 101.592 168.845 99.2113 168.264C98.5878 168.108 98.1627 167.47 98.2193 166.775C98.2477 166.463 98.2619 166.165 98.2335 165.924C98.0493 164.322 97.2133 163.443 96.023 162.734C95.4136 162.365 95.1019 161.599 95.2861 160.862C95.3711 160.493 95.4136 160.11 95.4278 159.728C95.4987 156.778 94.0391 155.559 93.0189 155.006C92.5229 154.736 92.1687 154.24 92.0128 153.659C91.616 152.085 90.2557 150.936 88.6545 151.05C87.0957 151.163 85.8063 152.496 85.6362 154.198C85.6362 154.212 85.6362 154.226 85.6362 154.24C85.5795 154.821 85.1261 155.247 84.5876 155.218C84.4176 155.204 84.2334 155.218 84.0492 155.233C82.0653 155.417 80.4783 157.161 80.3366 159.316C80.3082 159.657 80.3224 159.997 80.3791 160.323C80.4924 161.075 80.1807 161.812 79.5997 162.223C78.4803 162.989 77.6159 164.152 77.1624 165.513C76.9924 166.037 76.5815 166.449 76.0855 166.59C73.8608 167.271 72.217 169.483 72.217 172.135C72.217 172.844 72.3304 173.524 72.5571 174.148C72.8972 175.127 72.4579 176.19 71.5794 176.587C69.213 177.665 67.5551 180.203 67.5551 183.166C67.5551 184.372 67.8243 185.492 68.3061 186.484C69.0288 187.987 68.7595 189.845 67.6117 190.979C65.9963 192.596 64.9619 194.921 64.9619 197.516V200.721H108.734V197.516C108.734 196.211 107.983 194.992 107.09 193.872C106.126 192.667 106.055 190.908 106.863 189.575C107.614 188.356 108.053 186.881 108.053 185.293Z" fill="#479096"/>
<path d="M114.358 186.923C114.358 184.442 113.153 182.258 111.354 181.039C110.362 180.358 109.838 179.082 110.078 177.834C110.149 177.479 110.178 177.125 110.178 176.756C110.178 174.289 108.591 172.219 106.465 171.694C105.898 171.552 105.516 170.985 105.572 170.361C105.601 170.078 105.601 169.808 105.572 169.596C105.402 168.164 104.665 167.384 103.589 166.746C103.036 166.419 102.767 165.725 102.923 165.072C102.993 164.746 103.036 164.406 103.05 164.051C103.121 161.414 101.803 160.322 100.896 159.84C100.457 159.599 100.131 159.16 100.003 158.635C99.6492 157.217 98.4306 156.21 96.9994 156.309C95.5965 156.409 94.4629 157.6 94.307 159.117C94.307 159.131 94.307 159.145 94.307 159.16C94.2645 159.684 93.8536 160.067 93.3718 160.039C93.2159 160.025 93.0601 160.039 92.89 160.053C91.1188 160.209 89.7017 161.783 89.5742 163.711C89.56 164.023 89.5742 164.321 89.6025 164.604C89.7017 165.271 89.4325 165.937 88.9082 166.306C87.9163 166.987 87.1369 168.022 86.726 169.255C86.5701 169.723 86.2017 170.092 85.7624 170.22C83.7644 170.829 82.3049 172.814 82.3049 175.168C82.3049 175.806 82.4041 176.416 82.6025 176.969C82.9 177.834 82.5174 178.798 81.7239 179.153C79.6126 180.117 78.1247 182.386 78.1247 185.037C78.1247 186.115 78.3656 187.122 78.8049 188.015C79.4567 189.362 79.2158 191.021 78.1814 192.042C76.7218 193.474 75.8008 195.558 75.8008 197.884V200.748H114.939V197.884C114.939 196.721 114.273 195.615 113.465 194.622C112.601 193.545 112.544 191.971 113.267 190.78C113.961 189.66 114.358 188.341 114.358 186.923Z" fill="#2A8188"/>
<g opacity="0.4">
<path opacity="0.4" d="M71.5728 192.443C72.1821 193.45 72.1396 194.769 71.4027 195.676C70.7367 196.513 70.1699 197.435 70.1699 198.413V200.823H103.13V198.413C103.13 196.456 102.35 194.712 101.118 193.493C100.239 192.642 100.041 191.238 100.593 190.104C100.962 189.352 101.16 188.501 101.16 187.608C101.16 185.382 99.9131 183.468 98.1277 182.66C97.4617 182.362 97.1358 181.554 97.3908 180.816C97.5609 180.348 97.6459 179.824 97.6459 179.299C97.6459 177.314 96.4131 175.641 94.741 175.13C94.3584 175.017 94.0609 174.719 93.9333 174.308C93.5932 173.273 92.9414 172.408 92.1054 171.826C91.6661 171.529 91.4394 170.961 91.5102 170.394C91.5386 170.153 91.5527 169.898 91.5386 169.643C91.4394 168.012 90.2349 166.693 88.747 166.566C88.6053 166.552 88.4778 166.552 88.3503 166.552C87.9535 166.566 87.5993 166.254 87.5567 165.814C87.5567 165.8 87.5567 165.8 87.5567 165.786C87.4292 164.51 86.4656 163.503 85.2895 163.418C84.085 163.333 83.0506 164.184 82.753 165.375C82.6397 165.814 82.3705 166.183 82.002 166.381C81.2368 166.793 80.1316 167.714 80.1882 169.926C80.2024 170.224 80.2308 170.508 80.3016 170.791C80.4291 171.344 80.2024 171.926 79.749 172.209C78.8562 172.748 78.2186 173.4 78.0769 174.606C78.0485 174.79 78.0627 175.017 78.0769 175.244C78.1194 175.768 77.8077 176.25 77.3259 176.364C75.5404 176.803 74.1943 178.533 74.1943 180.618C74.1943 180.93 74.2226 181.242 74.2793 181.525C74.4918 182.574 74.0384 183.652 73.2023 184.219C71.6861 185.254 70.68 187.084 70.68 189.182C70.68 190.416 71.0201 191.522 71.5728 192.443Z" fill="#DDDDDD"/>
</g>
<g clip-path="url(#clip1)">
<path d="M87.1389 200.545C87.4671 202.636 87.8085 204.756 87.7035 206.875C87.6772 207.319 87.6378 207.762 87.5853 208.191C87.3358 210.117 86.7975 211.987 86.2592 213.843C85.5895 212.984 85.2744 211.848 85.1956 210.726C85.1431 209.881 85.2087 209.023 85.2613 208.178C85.3138 207.36 85.3532 206.543 85.2875 205.739C85.235 205.158 85.0774 204.59 85.0512 204.008C84.9461 201.694 86.7844 199.714 88.8196 198.841L87.1389 200.545Z" fill="#76BBCF"/>
<path d="M87.5848 208.192C87.3353 210.118 86.797 211.988 86.2586 213.844C85.589 212.985 85.2739 211.85 85.1951 210.727C85.1426 209.882 85.2082 209.024 85.2607 208.179C85.8647 208.553 86.6132 208.663 87.2697 208.4L87.2565 207.666C87.3747 207.846 87.4798 208.026 87.5848 208.192Z" fill="#F9A183"/>
<path d="M89.6999 230.606C89.6736 230.606 89.6474 230.592 89.6342 230.592C89.2929 230.467 88.9646 230.356 88.6232 230.231C88.6232 230.204 88.6232 230.162 88.6232 230.135C88.6232 230.065 88.6495 229.871 88.6626 229.816L88.7545 228.999C88.7676 228.777 88.807 228.555 88.8202 228.417C88.8858 227.89 88.9777 227.378 89.0959 226.865C89.306 225.854 89.4373 224.829 89.5423 223.79C89.6474 222.696 89.7655 221.601 89.91 220.507C90.0019 219.897 90.0807 219.302 90.1332 218.692C90.1594 218.027 90.1594 217.349 90.1332 216.684C89.8575 216.697 89.5817 216.739 89.3191 216.808C87.9273 216.808 87.796 219.191 87.5071 220.23C87.3364 220.839 87.1658 221.449 87.0738 222.072C86.9688 222.793 86.9688 223.527 86.9951 224.261C87.0607 226.491 87.5071 228.777 87.3496 230.98C87.3496 231.063 87.3364 231.132 87.3496 231.187C87.3627 231.547 87.5465 231.644 88.203 231.534C88.4131 231.506 88.6232 231.464 88.8202 231.437L89.8181 231.27C89.9231 231.257 90.0413 231.229 90.1069 231.146C90.212 231.021 90.1726 230.855 90.0675 230.73C89.9625 230.619 89.8312 230.633 89.6999 230.606Z" fill="#F9A183"/>
<path d="M90.0933 231.146C90.0145 231.229 89.9095 231.243 89.8044 231.27L88.8065 231.437C88.5964 231.464 88.3864 231.506 88.1894 231.534C87.546 231.631 87.3622 231.547 87.3359 231.187C87.3359 231.076 87.3359 230.938 87.3622 230.772C87.4278 230.786 87.4935 230.799 87.546 230.799C88.2682 230.841 88.9903 230.772 89.6994 230.605C89.8307 230.633 89.962 230.619 90.0539 230.73C90.1721 230.855 90.2115 231.021 90.0933 231.146Z" fill="#D39568"/>
<path d="M93.8093 230.814C93.783 230.814 93.7567 230.8 93.7436 230.8C93.4022 230.675 93.074 230.564 92.7326 230.44C92.7326 230.412 92.7326 230.37 92.7326 230.343C92.7326 230.273 92.7588 230.079 92.772 230.024L92.8639 229.207C92.877 228.985 92.9164 228.763 92.9295 228.625C92.9952 228.098 93.0871 227.586 93.2053 227.073C93.4154 226.062 93.5467 225.037 93.6517 223.998C93.7567 222.904 93.8749 221.809 94.0194 220.715C94.1113 220.105 94.19 219.51 94.2426 218.9C94.2688 218.235 94.2688 217.557 94.2426 216.892C93.9668 216.905 93.6911 216.947 93.4285 217.016C92.0367 217.016 91.9054 219.399 91.6165 220.438C91.4458 221.047 91.2751 221.657 91.1832 222.28C91.0782 223.001 91.0782 223.735 91.1044 224.469C91.1701 226.699 91.6165 228.985 91.4589 231.188C91.4589 231.271 91.4458 231.34 91.4589 231.395C91.4721 231.756 91.6559 231.852 92.3124 231.742C92.5225 231.714 92.7326 231.672 92.9427 231.645L93.9406 231.478C94.0456 231.465 94.1638 231.437 94.2294 231.354C94.3345 231.229 94.2951 231.063 94.19 230.938C94.0719 230.841 93.9406 230.841 93.8093 230.814Z" fill="#F9A183"/>
<path d="M94.2031 231.354C94.1243 231.437 94.0193 231.451 93.9142 231.478L92.9163 231.645C92.7063 231.672 92.4962 231.714 92.2861 231.742C91.6427 231.839 91.4589 231.755 91.4326 231.395C91.4326 231.284 91.4326 231.146 91.4589 230.98C91.5245 230.994 91.5902 231.007 91.6427 231.007C92.3649 231.049 93.087 230.98 93.7961 230.813C93.9274 230.841 94.0587 230.827 94.1506 230.938C94.2688 231.063 94.3081 231.229 94.2031 231.354Z" fill="#D39568"/>
<path d="M89.148 198.328C89.056 198.439 89.2793 198.536 89.4368 198.536C90.3297 198.536 91.1569 198.065 91.5639 197.456C91.971 196.832 92.0103 196.084 91.7871 195.405C91.7083 195.156 91.5902 194.893 91.3538 194.699C91.1175 194.519 90.7367 194.408 90.4347 194.519C90.2903 194.574 90.1721 194.657 90.0671 194.754C89.1742 195.53 88.6096 196.555 88.4914 197.594C88.452 197.941 88.5046 198.342 88.8853 198.522C88.9904 198.439 89.0298 198.315 88.9773 198.204L89.148 198.328Z" fill="#F7B690"/>
<path d="M89.1346 213.705C89.7779 213.498 90.4476 213.359 91.1304 213.29C91.2617 211.489 91.3536 209.688 91.1172 207.901C91.1041 207.804 91.2879 207.749 91.0253 207.624C90.9071 207.569 90.8021 207.499 90.6708 207.486C89.7779 207.375 88.9245 207.278 88.0054 207.167L87.5195 214.467C88.0054 214.121 88.57 213.886 89.1346 213.705Z" fill="#FFA180"/>
<path d="M94.3083 216.074C94.2952 213.774 94.1245 211.447 93.6518 209.286C93.2185 207.347 93.1266 207.873 91.4459 207.956C90.0016 208.025 88.3997 208.025 87.0867 207.347C87.218 208.33 86.5746 208.746 86.3251 209.66C85.7999 211.627 85.8524 213.663 86.2726 215.617C86.4039 216.212 86.8897 221.546 86.8372 221.518C88.2553 222.308 89.9228 222.321 91.5247 222.308C92.4569 222.308 93.4417 222.28 94.2558 221.781C94.374 221.712 94.4921 221.615 94.5578 221.504C94.6366 221.379 94.6628 221.227 94.676 221.075C94.886 219.385 94.3214 217.75 94.3083 216.074Z" fill="#B97B6E"/>
<path d="M93.7564 208.829C94.1635 208.358 94.518 207.818 94.82 207.264C94.7149 206.433 94.2554 205.574 94.1635 205.117C93.612 202.415 93.2969 199.575 90.6445 198.62C89.988 198.384 89.3709 198.204 88.7801 198.135C88.0185 198.343 87.3226 198.73 86.7711 199.354C86.259 199.936 86.049 200.545 85.852 201.279C85.8126 201.418 85.7732 201.556 85.747 201.695C85.7207 201.944 85.7207 202.18 85.7207 202.415C85.9964 203.44 86.4166 204.438 86.7186 205.421C86.9943 206.294 87.0337 207.236 87.0337 208.15C87.0469 208.192 87.2569 208.22 87.2701 208.261C87.8478 208.303 88.2811 208.718 89.0427 208.801C89.5416 208.857 90.1587 208.704 90.6577 208.76C91.3536 208.843 92.102 208.912 92.6929 208.538C92.9292 208.386 93.1262 208.136 93.2312 207.873C93.3494 208.22 93.5201 208.566 93.7564 208.829Z" fill="#76BBCF"/>
<path d="M91.1567 193.771C90.277 193.383 89.3185 193.231 88.6488 194.09C87.3489 195.766 83.1735 202.097 88.5438 201.529C89.5154 201.432 90.4477 200.698 90.684 199.686C90.9598 198.509 90.3164 197.345 90.8547 196.209C91.1042 195.669 92.1546 195.073 91.9708 194.436C91.892 194.173 91.6557 194.021 91.4193 193.896C91.3405 193.841 91.2486 193.799 91.1567 193.771Z" fill="#41657B"/>
<path d="M97.4069 214.107C97.4069 214.01 97.3937 213.899 97.3937 213.802C97.3937 213.747 97.3806 213.705 97.3806 213.65C97.3675 213.553 97.3544 213.47 97.3412 213.373C97.2099 212.403 96.8948 211.475 96.5009 210.575C96.4878 210.547 96.4746 210.533 96.4746 210.505C96.4484 210.436 96.4221 210.381 96.3958 210.311C96.3827 210.298 96.3827 210.284 96.3696 210.256C96.3302 210.173 96.2908 210.09 96.2645 210.007C96.1989 209.868 96.1332 209.73 96.0676 209.591C95.6605 208.732 95.2273 207.887 94.8596 207.028C94.8071 206.917 94.7152 206.834 94.6101 206.807C94.4263 206.834 94.2556 206.931 94.1112 207.028C94.0061 207.125 93.9011 207.208 93.7961 207.291C93.5203 207.569 93.2708 207.901 93.1133 208.261C93.6122 209.106 94.19 209.882 94.7808 210.644C94.9384 210.838 95.0828 211.032 95.2404 211.226C95.2798 211.267 95.3192 211.309 95.3454 211.364C95.3454 211.378 95.3586 211.378 95.3586 211.392C95.4111 211.461 95.4636 211.517 95.5161 211.586C95.5292 211.6 95.5292 211.614 95.5424 211.614C95.7393 211.891 95.9232 212.181 96.0151 212.514C96.0938 212.791 96.107 213.096 96.1726 213.387C96.3171 213.996 96.6847 214.536 97.1705 214.813C97.3281 214.717 97.3806 214.523 97.3937 214.315C97.3937 214.301 97.3937 214.273 97.3937 214.259C97.4069 214.204 97.4069 214.162 97.4069 214.107Z" fill="#F9A183"/>
<path d="M87.165 208.233L86.9549 208.164C87.1913 207.249 86.8893 206.349 86.5741 205.407C86.3247 204.687 86.0752 203.939 86.0752 203.177H86.2984C86.2984 203.897 86.5479 204.631 86.7842 205.324C87.0862 206.266 87.4276 207.249 87.165 208.233Z" fill="#5193A2"/>
<path d="M102.803 225.259C103.092 225.398 103.368 225.564 103.617 225.758C103.722 225.841 103.775 225.882 103.867 225.966C103.814 226.118 103.762 226.27 103.696 226.437C103.696 226.492 103.683 226.534 103.683 226.589C103.67 227.005 103.735 227.392 103.88 227.766C104.208 228.598 104.576 229.429 104.996 230.218C105.062 230.343 105.154 230.509 105.127 230.703C105.114 230.828 105.049 230.939 104.983 231.022C104.76 231.354 104.445 231.617 104.103 231.798C104.064 231.811 104.024 231.825 103.985 231.825C103.932 231.825 103.88 231.811 103.841 231.784C103.762 231.728 103.709 231.645 103.696 231.548C103.683 231.327 103.788 231.119 103.893 230.911C103.985 230.717 104.077 230.537 104.064 230.385C104.051 230.301 103.998 230.205 103.946 230.121C103.749 229.803 103.539 229.512 103.328 229.221C102.829 228.514 102.304 227.794 102.094 226.838C101.976 226.284 102.094 225.605 102.199 225.01C102.409 225.079 102.606 225.162 102.803 225.259Z" fill="#F9A183"/>
<path d="M98.7849 231.673C98.8899 231.576 99.0212 231.506 99.1525 231.437C99.3626 231.312 99.5727 231.202 99.5858 231.035C99.6515 230.412 99.5202 229.512 99.402 228.722C99.3364 228.279 99.2707 227.849 99.2445 227.503C99.2313 227.309 99.2182 227.171 99.2051 227.06C99.1788 226.893 99.1657 226.741 99.1657 226.422C99.1525 225.813 99.1657 225.287 99.2051 224.802L99.2182 224.677L99.3364 224.663C99.3889 224.663 99.4283 224.649 99.4808 224.649C99.9141 224.608 100.374 224.58 100.768 224.705L100.873 224.732L100.859 224.843C100.833 225.051 100.82 225.273 100.807 225.494C100.781 225.827 100.768 226.159 100.715 226.492C100.689 226.686 100.663 226.838 100.636 226.977C100.571 227.323 100.531 227.586 100.518 228.057C100.518 228.237 100.518 228.459 100.518 228.694C100.531 229.318 100.544 230.024 100.466 230.509C100.466 230.523 100.466 230.523 100.466 230.537C100.426 230.814 100.374 231.077 100.387 231.382C100.387 231.409 100.387 231.437 100.4 231.465V231.506C100.413 231.659 100.374 231.783 100.295 231.894L100.269 231.922L100.242 231.936C100.111 231.991 99.9666 232.033 99.8091 232.061C99.6909 232.088 99.5333 232.102 99.3889 232.116C99.3758 232.116 99.3626 232.116 99.3626 232.116H99.3495C99.3232 232.116 99.297 232.116 99.2707 232.102C99.2445 232.102 99.1788 232.102 99.1132 232.088C99.0606 232.088 98.995 232.088 98.9556 232.074H98.9425C98.9293 232.074 98.9031 232.061 98.8899 232.061H98.8768L98.8637 232.047C98.7849 232.005 98.7455 231.936 98.7324 231.853C98.693 231.811 98.7192 231.728 98.7849 231.673Z" fill="#F9A183"/>
<path d="M104.089 218.181C103.971 219.968 104.063 221.769 104.339 223.528C104.417 224.04 104.509 224.539 104.509 225.052C104.496 225.647 104.339 226.243 104.05 226.755C103.314 225.107 102.566 223.375 102.71 221.561C102.776 220.743 103.026 219.954 103.301 219.178C103.446 218.776 103.669 218.319 104.063 218.25C104.102 218.236 104.168 218.25 104.181 218.291C104.194 218.333 104.102 218.347 104.115 218.305L104.089 218.181Z" fill="#F7B690"/>
<path d="M103.762 224.012C103.644 223.68 103.552 223.347 103.526 223.001C103.526 221.117 103.329 219.275 103.368 217.377C103.368 217.349 103.368 217.335 103.368 217.308C103.263 216.989 103.093 216.684 102.856 216.449C102.567 216.269 102.265 216.116 101.937 216.033C101.872 216.033 101.819 216.033 101.753 216.033C101.727 216.075 101.675 216.102 101.622 216.116C100.414 216.366 99.7838 217.779 99.902 218.984C99.9151 219.108 99.8626 219.178 99.7838 219.219C99.7444 220.743 99.4818 222.295 99.3111 223.832C99.298 223.998 99.2849 224.165 99.2586 224.331C99.2455 224.428 99.2455 224.525 99.2324 224.608C99.1667 225.356 99.0879 226.104 99.0223 226.838C98.996 227.046 98.9829 227.268 99.0748 227.448C99.1798 227.669 99.4031 227.78 99.6263 227.863C100.585 228.251 101.399 228.237 102.37 228.043C103.027 227.919 104.222 228.182 104.616 227.462C104.668 227.365 104.695 227.268 104.708 227.143C104.773 226.021 104.13 225.037 103.762 224.012Z" fill="#78CDD0"/>
<path d="M100.243 218.443C100.283 218.443 100.322 218.443 100.348 218.43C100.361 218.402 100.374 218.388 100.388 218.36C100.335 218.388 100.296 218.416 100.243 218.443Z" fill="#F7B690"/>
<path d="M104.68 227.157C104.667 227.282 104.64 227.379 104.588 227.476C104.194 228.196 102.999 227.933 102.342 228.057C101.371 228.251 100.557 228.265 99.5982 227.877C99.3882 227.794 99.1518 227.67 99.0468 227.462C98.9549 227.282 98.9811 227.06 98.9943 226.852C99.0599 226.104 99.1387 225.356 99.2043 224.622C99.979 224.705 100.767 224.774 101.542 224.705C102.316 224.636 103.091 224.428 103.747 224.026C104.128 225.038 104.772 226.021 104.68 227.157Z" fill="#DFECFE"/>
<path d="M100.006 216.144C99.6909 215.797 98.4829 213.692 97.4982 212.708C97.183 212.5 96.8416 212.431 96.5003 212.445C96.4346 212.473 96.369 212.5 96.3033 212.528C96.277 212.736 96.369 212.985 96.5134 213.138C97.0123 213.623 97.1042 213.609 97.3931 214.329C97.6163 214.883 97.8921 215.423 98.2072 215.908C98.6799 216.642 99.2445 217.293 99.8747 217.82C99.9404 217.875 99.9929 217.917 100.045 217.945C100.466 218.222 100.951 218.194 100.965 217.529C100.965 216.989 100.295 216.462 100.006 216.144Z" fill="#F7B690"/>
<path d="M101.332 213.013C101.227 213.054 101.109 213.096 101.004 213.137L100.728 213.442C100.426 213.788 100.124 214.135 99.9663 214.564C99.8088 214.994 99.835 215.548 100.15 215.866C100.557 216.282 101.266 216.157 101.66 215.742C102.054 215.326 102.198 214.703 102.238 214.107C102.251 213.858 102.251 213.595 102.185 213.359C101.936 213.207 101.647 213.082 101.332 213.013Z" fill="#F7B690"/>
<path d="M103.853 217.252C103.617 216.657 103.393 216.186 103.38 215.535C103.367 214.828 103.617 214.136 103.17 213.498C102.816 212.986 101.713 212.432 101.24 213.083C100.794 213.692 101.463 214.44 101.437 215.05C101.411 215.715 100.899 216.366 100.728 217.017C100.492 217.945 100.334 218.956 100.649 219.857C100.964 220.757 101.883 221.491 102.763 221.256C103.026 221.187 103.262 221.034 103.472 220.854C104.628 219.829 104.391 218.624 103.879 217.308C103.866 217.28 103.853 217.266 103.853 217.252Z" fill="#B97B6E"/>
</g>
</g>
<defs>
<linearGradient id="paint0_linear" x1="305.318" y1="212.309" x2="307.934" y2="212.309" gradientUnits="userSpaceOnUse">
<stop stop-color="#D8DDED"/>
<stop offset="1" stop-color="#EDEEF2"/>
</linearGradient>
<linearGradient id="paint1_linear" x1="2082.18" y1="33277.5" x2="2107" y2="33277.5" gradientUnits="userSpaceOnUse">
<stop stop-color="#D8DDED"/>
<stop offset="1" stop-color="#EDEEF2"/>
</linearGradient>
<linearGradient id="paint2_linear" x1="1723.46" y1="34231.1" x2="1743.11" y2="34231.1" gradientUnits="userSpaceOnUse">
<stop stop-color="#D8DDED"/>
<stop offset="1" stop-color="#EDEEF2"/>
</linearGradient>
<linearGradient id="paint3_linear" x1="1915.24" y1="34493.1" x2="1940.11" y2="34493.1" gradientUnits="userSpaceOnUse">
<stop stop-color="#D8DDED"/>
<stop offset="1" stop-color="#EDEEF2"/>
</linearGradient>
<linearGradient id="paint4_linear" x1="1545.77" y1="35674.4" x2="1565.41" y2="35674.4" gradientUnits="userSpaceOnUse">
<stop stop-color="#D8DDED"/>
<stop offset="1" stop-color="#EDEEF2"/>
</linearGradient>
<linearGradient id="paint5_linear" x1="1717.92" y1="35948.2" x2="1742.77" y2="35948.2" gradientUnits="userSpaceOnUse">
<stop stop-color="#D8DDED"/>
<stop offset="1" stop-color="#EDEEF2"/>
</linearGradient>
<linearGradient id="paint6_linear" x1="442.436" y1="29579.7" x2="454.644" y2="29579.7" gradientUnits="userSpaceOnUse">
<stop stop-color="#D8DDED"/>
<stop offset="1" stop-color="#EDEEF2"/>
</linearGradient>
<linearGradient id="paint7_linear" x1="100.069" y1="26596.6" x2="109.56" y2="26596.6" gradientUnits="userSpaceOnUse">
<stop stop-color="#D8DDED"/>
<stop offset="1" stop-color="#EDEEF2"/>
</linearGradient>
<linearGradient id="paint8_linear" x1="7648.93" y1="37611" x2="703.287" y2="60549.2" gradientUnits="userSpaceOnUse">
<stop stop-color="#D8DDED"/>
<stop offset="1" stop-color="#EDEEF2"/>
</linearGradient>
<linearGradient id="paint9_linear" x1="132175" y1="43776.3" x2="127670" y2="43776.3" gradientUnits="userSpaceOnUse">
<stop stop-color="#D8DDED"/>
<stop offset="1" stop-color="#EDEEF2"/>
</linearGradient>
<linearGradient id="paint10_linear" x1="92639.1" y1="9541.39" x2="90367.8" y2="9541.39" gradientUnits="userSpaceOnUse">
<stop stop-color="#D8DDED"/>
<stop offset="1" stop-color="#EDEEF2"/>
</linearGradient>
<linearGradient id="paint11_linear" x1="1217.51" y1="3157.7" x2="2678.41" y2="3157.7" gradientUnits="userSpaceOnUse">
<stop stop-color="#D8DDED"/>
<stop offset="1" stop-color="#EDEEF2"/>
</linearGradient>
<linearGradient id="paint12_linear" x1="135.596" y1="61.1036" x2="184.597" y2="61.1036" gradientUnits="userSpaceOnUse">
<stop stop-color="#C7D4F6"/>
<stop offset="1" stop-color="#6E81C6"/>
</linearGradient>
<linearGradient id="paint13_linear" x1="-306218" y1="-96513.2" x2="-305295" y2="-95653.2" gradientUnits="userSpaceOnUse">
<stop stop-color="#D8DDED"/>
<stop offset="1" stop-color="#EDEEF2"/>
</linearGradient>
<linearGradient id="paint14_linear" x1="11646.5" y1="8889.53" x2="11646.5" y2="6909.87" gradientUnits="userSpaceOnUse">
<stop stop-color="#D8DDED"/>
<stop offset="1" stop-color="#EDEEF2"/>
</linearGradient>
<linearGradient id="paint15_linear" x1="1482.84" y1="2314.39" x2="1869.35" y2="2314.39" gradientUnits="userSpaceOnUse">
<stop stop-color="#D8DDED"/>
<stop offset="1" stop-color="#EDEEF2"/>
</linearGradient>
<linearGradient id="paint16_linear" x1="2834.71" y1="2490.2" x2="4387.24" y2="2490.2" gradientUnits="userSpaceOnUse">
<stop stop-color="#D8DDED"/>
<stop offset="1" stop-color="#EDEEF2"/>
</linearGradient>
<linearGradient id="paint17_linear" x1="7405.78" y1="996.826" x2="7429.57" y2="1094.35" gradientUnits="userSpaceOnUse">
<stop stop-color="#C7D4F6"/>
<stop offset="1" stop-color="#6E81C6"/>
</linearGradient>
<linearGradient id="paint18_linear" x1="1155.7" y1="685.572" x2="1232.93" y2="685.572" gradientUnits="userSpaceOnUse">
<stop stop-color="#D8DDED"/>
<stop offset="1" stop-color="#EDEEF2"/>
</linearGradient>
<linearGradient id="paint19_linear" x1="7381.4" y1="962.786" x2="7405.16" y2="1060.32" gradientUnits="userSpaceOnUse">
<stop stop-color="#C7D4F6"/>
<stop offset="1" stop-color="#6E81C6"/>
</linearGradient>
<linearGradient id="paint20_linear" x1="1068.35" y1="662.021" x2="1145.63" y2="662.021" gradientUnits="userSpaceOnUse">
<stop stop-color="#D8DDED"/>
<stop offset="1" stop-color="#EDEEF2"/>
</linearGradient>
<linearGradient id="paint21_linear" x1="559.906" y1="473.939" x2="608.162" y2="473.939" gradientUnits="userSpaceOnUse">
<stop stop-color="#D8DDED"/>
<stop offset="1" stop-color="#EDEEF2"/>
</linearGradient>
<linearGradient id="paint22_linear" x1="244.703" y1="117.23" x2="247.68" y2="117.23" gradientUnits="userSpaceOnUse">
<stop stop-color="#D8DDED"/>
<stop offset="1" stop-color="#EDEEF2"/>
</linearGradient>
<linearGradient id="paint23_linear" x1="750.911" y1="906.961" x2="807.716" y2="906.961" gradientUnits="userSpaceOnUse">
<stop stop-color="#D8DDED"/>
<stop offset="1" stop-color="#EDEEF2"/>
</linearGradient>
<linearGradient id="paint24_linear" x1="1359.97" y1="975.734" x2="1587.9" y2="975.734" gradientUnits="userSpaceOnUse">
<stop stop-color="#D8DDED"/>
<stop offset="1" stop-color="#EDEEF2"/>
</linearGradient>
<linearGradient id="paint25_linear" x1="637.448" y1="400.345" x2="670.63" y2="400.345" gradientUnits="userSpaceOnUse">
<stop stop-color="#D8DDED"/>
<stop offset="1" stop-color="#EDEEF2"/>
</linearGradient>
<linearGradient id="paint26_linear" x1="764.151" y1="30924" x2="783.798" y2="30924" gradientUnits="userSpaceOnUse">
<stop stop-color="#D8DDED"/>
<stop offset="1" stop-color="#EDEEF2"/>
</linearGradient>
<linearGradient id="paint27_linear" x1="1175.34" y1="34205.2" x2="1194.99" y2="34205.2" gradientUnits="userSpaceOnUse">
<stop stop-color="#D8DDED"/>
<stop offset="1" stop-color="#EDEEF2"/>
</linearGradient>
<linearGradient id="paint28_linear" x1="1306.54" y1="34466.6" x2="1331.42" y2="34466.6" gradientUnits="userSpaceOnUse">
<stop stop-color="#D8DDED"/>
<stop offset="1" stop-color="#EDEEF2"/>
</linearGradient>
<linearGradient id="paint29_linear" x1="1339.01" y1="35367.4" x2="1358.71" y2="35367.4" gradientUnits="userSpaceOnUse">
<stop stop-color="#D8DDED"/>
<stop offset="1" stop-color="#EDEEF2"/>
</linearGradient>
<linearGradient id="paint30_linear" x1="1485.25" y1="35639" x2="1510.06" y2="35639" gradientUnits="userSpaceOnUse">
<stop stop-color="#D8DDED"/>
<stop offset="1" stop-color="#EDEEF2"/>
</linearGradient>
<linearGradient id="paint31_linear" x1="1026.7" y1="33188.3" x2="1046.35" y2="33188.3" gradientUnits="userSpaceOnUse">
<stop stop-color="#D8DDED"/>
<stop offset="1" stop-color="#EDEEF2"/>
</linearGradient>
<linearGradient id="paint32_linear" x1="1140.39" y1="33441.2" x2="1165.21" y2="33441.2" gradientUnits="userSpaceOnUse">
<stop stop-color="#D8DDED"/>
<stop offset="1" stop-color="#EDEEF2"/>
</linearGradient>
<linearGradient id="paint33_linear" x1="908.615" y1="32551.2" x2="928.471" y2="32551.2" gradientUnits="userSpaceOnUse">
<stop stop-color="#D8DDED"/>
<stop offset="1" stop-color="#EDEEF2"/>
</linearGradient>
<linearGradient id="paint34_linear" x1="1009.03" y1="32798" x2="1034.08" y2="32798" gradientUnits="userSpaceOnUse">
<stop stop-color="#D8DDED"/>
<stop offset="1" stop-color="#EDEEF2"/>
</linearGradient>
<linearGradient id="paint35_linear" x1="9012.49" y1="45440.4" x2="9926.32" y2="45423.9" gradientUnits="userSpaceOnUse">
<stop stop-color="#D8DDED"/>
<stop offset="1" stop-color="#EDEEF2"/>
</linearGradient>
<linearGradient id="paint36_linear" x1="224.544" y1="54.6563" x2="225.812" y2="184.786" gradientUnits="userSpaceOnUse">
<stop stop-color="#6E81C6"/>
<stop offset="1" stop-color="#C7D4F6"/>
</linearGradient>
<linearGradient id="paint37_linear" x1="187.996" y1="106.885" x2="194.13" y2="106.885" gradientUnits="userSpaceOnUse">
<stop stop-color="white"/>
<stop offset="0.2" stop-color="#F1F3F9"/>
<stop offset="0.58" stop-color="#CBD2EA"/>
<stop offset="1" stop-color="#9AA7D6"/>
</linearGradient>
<linearGradient id="paint38_linear" x1="1182.87" y1="360.821" x2="918.332" y2="579.904" gradientUnits="userSpaceOnUse">
<stop stop-color="#6E81C6"/>
<stop offset="1" stop-color="#C7D4F6"/>
</linearGradient>
<linearGradient id="paint39_linear" x1="189.43" y1="30.1477" x2="196.588" y2="30.1477" gradientUnits="userSpaceOnUse">
<stop stop-color="#D8DDED"/>
<stop offset="1" stop-color="#F3F4F8"/>
</linearGradient>
<linearGradient id="paint40_linear" x1="711.587" y1="1796.36" x2="721.82" y2="1796.36" gradientUnits="userSpaceOnUse">
<stop stop-color="#6E81C6"/>
<stop offset="1" stop-color="#C7D4F6"/>
</linearGradient>
<linearGradient id="paint41_linear" x1="682.572" y1="1.11807" x2="691.632" y2="1.11807" gradientUnits="userSpaceOnUse">
<stop stop-color="#D8DDED"/>
<stop offset="1" stop-color="#F3F4F8"/>
</linearGradient>
<linearGradient id="paint42_linear" x1="22714.3" y1="13939.6" x2="29068.5" y2="13939.6" gradientUnits="userSpaceOnUse">
<stop stop-color="#D8DDED"/>
<stop offset="1" stop-color="#EDEEF2"/>
</linearGradient>
<clipPath id="clip0">
<rect x="96.2119" width="215.774" height="250" fill="white"/>
</clipPath>
<clipPath id="clip1">
<rect x="85.0508" y="193.452" width="20.0893" height="38.6905" fill="white"/>
</clipPath>
</defs>
</svg>
