<svg width="372" height="250" viewBox="0 0 372 250" fill="none" xmlns="http://www.w3.org/2000/svg">
<mask id="mask0" mask-type="alpha" maskUnits="userSpaceOnUse" x="0" y="0" width="372" height="250">
<rect width="372" height="250" fill="white"/>
</mask>
<g mask="url(#mask0)">
<mask id="mask1" mask-type="alpha" maskUnits="userSpaceOnUse" x="17" y="-11" width="339" height="264">
<rect x="17" y="-11" width="338.769" height="264" fill="white"/>
</mask>
<g mask="url(#mask1)">
<path d="M267.024 218.846H58.8564C57.5925 216.323 43.3102 194.93 28.4466 164.012C1.42399 107.899 32.9461 -35.1725 188.206 16.7826C264.395 42.2626 319.021 14.5438 339.295 55.3758C358.506 94.0401 352.844 170.196 267.024 218.846Z" fill="#F9F9F9"/>
<g opacity="0.6">
<path opacity="0.6" d="M200.719 104.169V104.371V107.326L201.755 108.361H254.796V104.977L253.937 104.169H200.719Z" fill="#D9DADC"/>
<path opacity="0.6" d="M203.57 41.9893V42.1913H203.418V102.553H203.57V103.79H250.849V102.553H252.062V42.1913H250.849V41.9893H203.57Z" fill="#D9DADC"/>
<path opacity="0.6" d="M197.027 38.529L195.814 40.3222L197.027 40.9283H258.458V38.529L257.245 37.9229L197.027 38.529Z" fill="#D9DADC"/>
<path opacity="0.6" d="M199.43 42.1914H197.029V102.553H199.43V42.1914Z" fill="#D9DADC"/>
<path opacity="0.6" d="M202.635 42.1914H200.234V102.553H202.635V42.1914Z" fill="#D9DADC"/>
<path opacity="0.6" d="M255.272 42.1914H252.871V102.553H255.272V42.1914Z" fill="#D9DADC"/>
<path opacity="0.6" d="M258.459 42.1914H256.059V102.553H258.459V42.1914Z" fill="#D9DADC"/>
</g>
<path d="M199.502 106.721L200.538 107.756H253.579V104.372L252.72 103.564H199.502V106.721Z" fill="#D9DADC"/>
<path d="M249.639 41.3828H202.359V103.184H249.639V41.3828Z" fill="#F0F0F1"/>
<path d="M248.629 43.3042H203.396V102.049H248.629V43.3042Z" fill="url(#paint0_linear)"/>
<path d="M248.655 102.074H203.371V43.2529H248.655V102.074ZM203.422 101.998H248.629V43.3287H203.422V101.998Z" fill="url(#paint1_linear)"/>
<path d="M252.518 103.766H199.502V106.721H252.518V103.766Z" fill="#F0F0F1"/>
<g opacity="0.53">
<path opacity="0.53" d="M216.817 43.3037L204.788 101.948H203.424V97.4523L214.517 43.3037H216.817Z" fill="white"/>
</g>
<g opacity="0.53">
<path opacity="0.53" d="M220.152 43.3032H224.043L212.015 101.947L208.148 101.922L220.152 43.3032Z" fill="white"/>
</g>
<g opacity="0.53">
<path opacity="0.53" d="M248.604 43.3027V59.416L236.676 101.947L224.547 101.922L240.998 43.3027H248.604Z" fill="white"/>
</g>
<path d="M227.331 43.3027H225.031V102.831H227.331V43.3027Z" fill="#F0F0F1"/>
<path d="M257.243 37.9233H195.812V40.3226H257.243V37.9233Z" fill="#F0F0F1"/>
<path d="M195.811 41.5828V101.944H198.211V41.5828H195.811Z" fill="#FAFAFF"/>
<path d="M199.01 41.5726V101.934H201.41V41.5726H199.01Z" fill="#FAFAFF"/>
<path d="M202.207 41.5633V101.925H204.608V41.5633H202.207Z" fill="#FAFAFF"/>
<path d="M205.408 41.578V101.939H207.809V41.578H205.408Z" fill="#FAFAFF"/>
<path d="M208.609 41.5682V101.93H211.01V41.5682H208.609Z" fill="#FAFAFF"/>
<path d="M242.053 41.5779V101.939H244.453V41.5779H242.053Z" fill="#FAFAFF"/>
<path d="M245.25 41.5682V101.93H247.651V41.5682H245.25Z" fill="#FAFAFF"/>
<path d="M248.447 41.5829V101.944H250.848V41.5829H248.447Z" fill="#FAFAFF"/>
<path d="M251.648 41.574V101.936H254.049V41.574H251.648Z" fill="#FAFAFF"/>
<path d="M254.846 41.5643V101.926H257.246V41.5643H254.846Z" fill="#FAFAFF"/>
<g opacity="0.6">
<path opacity="0.6" d="M114.626 104.169V104.371V107.326L115.662 108.361H168.678V104.977L167.844 104.169H114.626Z" fill="#D9DADC"/>
<path opacity="0.6" d="M117.483 41.9893V42.1913H117.331V102.553H117.483V103.79H164.763V102.553H165.95V42.1913H164.763V41.9893H117.483Z" fill="#D9DADC"/>
<path opacity="0.6" d="M110.938 38.529L109.725 40.3222L110.938 40.9283H172.369V38.529L171.156 37.9229L110.938 38.529Z" fill="#D9DADC"/>
<path opacity="0.6" d="M113.336 42.1909H110.936V102.552H113.336V42.1909Z" fill="#D9DADC"/>
<path opacity="0.6" d="M116.519 42.1909H114.118V102.552H116.519V42.1909Z" fill="#D9DADC"/>
<path opacity="0.6" d="M169.157 42.1909H166.756V102.552H169.157V42.1909Z" fill="#D9DADC"/>
<path opacity="0.6" d="M172.365 42.1909H169.965V102.552H172.365V42.1909Z" fill="#D9DADC"/>
</g>
<path d="M113.412 106.721L114.448 107.757H167.464V104.373L166.63 103.564H113.412V106.721Z" fill="#D9DADC"/>
<path d="M163.547 41.3838H116.268V103.185H163.547V41.3838Z" fill="#F0F0F1"/>
<path d="M162.508 43.3042H117.275V102.049H162.508V43.3042Z" fill="url(#paint2_linear)"/>
<path d="M162.56 102.074H117.276V43.2534H162.56V102.074ZM117.302 101.999H162.509V43.3292H117.302V101.999Z" fill="url(#paint3_linear)"/>
<path d="M166.428 103.766H113.412V106.721H166.428V103.766Z" fill="#F0F0F1"/>
<g opacity="0.53">
<path opacity="0.53" d="M130.698 43.3037L118.695 101.948H117.305V97.4523L128.398 43.3037H130.698Z" fill="white"/>
</g>
<g opacity="0.53">
<path opacity="0.53" d="M134.055 43.3027H137.921L125.918 101.947L122.026 101.922L134.055 43.3027Z" fill="white"/>
</g>
<g opacity="0.53">
<path opacity="0.53" d="M162.511 43.3032V59.4165L150.584 101.947L138.454 101.922L154.905 43.3032H162.511Z" fill="white"/>
</g>
<path d="M141.206 43.3027H138.906V102.831H141.206V43.3027Z" fill="#F0F0F1"/>
<path d="M171.155 37.9238H109.724V40.3231H171.155V37.9238Z" fill="#F0F0F1"/>
<path d="M109.711 41.577V101.938H112.112V41.577H109.711Z" fill="#FAFAFF"/>
<path d="M112.911 41.5677V101.929H115.312V41.5677H112.911Z" fill="#FAFAFF"/>
<path d="M116.107 41.5828V101.944H118.508V41.5828H116.107Z" fill="#FAFAFF"/>
<path d="M119.31 41.5731V101.935H121.71V41.5731H119.31Z" fill="#FAFAFF"/>
<path d="M122.51 41.5633V101.925H124.91V41.5633H122.51Z" fill="#FAFAFF"/>
<path d="M155.953 41.5731V101.935H158.354V41.5731H155.953Z" fill="#FAFAFF"/>
<path d="M159.152 41.5623V101.924H161.553V41.5623H159.152Z" fill="#FAFAFF"/>
<path d="M162.348 41.578V101.939H164.748V41.578H162.348Z" fill="#FAFAFF"/>
<path d="M165.551 41.5677V101.929H167.951V41.5677H165.551Z" fill="#FAFAFF"/>
<path d="M168.746 41.5838V101.945H171.147V41.5838H168.746Z" fill="#FAFAFF"/>
<path d="M80.1235 114.745L83.1416 117.557L83.482 151.055H37.9382L32.6963 146.179V114.745H80.1235Z" fill="#D9DADC"/>
<path d="M80.1916 114.744H56.7275V148.673H80.1916V114.744Z" fill="#F0F0F1"/>
<path d="M78.3763 116.264H58.8154V147.131H78.3763V116.264Z" fill="#ABDDFF"/>
<path d="M78.3763 125.653H58.8154V126.674H78.3763V125.653Z" fill="white"/>
<path d="M78.3763 136.381H58.8154V137.401H78.3763V136.381Z" fill="white"/>
<path d="M77.0155 121.276H68.8916V125.653H77.0155V121.276Z" fill="white"/>
<path d="M68.074 123.453H63.2178V125.653H68.074V123.453Z" fill="#FE6B61"/>
<path d="M63.9656 133.999H59.1094V136.199H63.9656V133.999Z" fill="#FE6B61"/>
<path d="M64.6696 131.936H61.5381V136.335H64.6696V131.936Z" fill="white"/>
<path d="M76.0837 142.776H72.9521V147.176H76.0837V142.776Z" fill="white"/>
<path d="M63.7409 145.453H60.6094V147.177H63.7409V145.453Z" fill="white"/>
<path d="M75.4054 132.004H69.46V136.404H75.4054V132.004Z" fill="white"/>
<path d="M69.1632 142.776H63.2178V147.176H69.1632V142.776Z" fill="#0C5A75"/>
<path d="M72.4083 134.521H66.4629V136.29H72.4083V134.521Z" fill="#0C5A75"/>
<path d="M71.9314 144.478H68.7998V147.154H71.9314V144.478Z" fill="white"/>
<path d="M67.755 133.728H65.2588V136.404H67.755V133.728Z" fill="white"/>
<path d="M64.67 122.977H62.1738V125.653H64.67V122.977Z" fill="white"/>
<g opacity="0.57">
<path opacity="0.57" d="M78.3763 116.286H58.8154V147.131H78.3763V116.286Z" fill="#EEF2F6"/>
</g>
<g opacity="0.39">
<path opacity="0.39" d="M68.8906 116.286L59.4959 147.131H58.6562V142.164L66.5305 116.286H68.8906Z" fill="white"/>
</g>
<g opacity="0.39">
<path opacity="0.39" d="M78.9901 116.286L69.5954 147.131H65.6016L75.0189 116.286H78.9901Z" fill="white"/>
</g>
<path d="M56.1603 114.745H32.6963V148.674H56.1603V114.745Z" fill="#F0F0F1"/>
<path d="M54.3461 116.264H34.7852V147.131H54.3461V116.264Z" fill="url(#paint4_linear)"/>
<path d="M54.3461 125.653H34.7852V126.673H54.3461V125.653Z" fill="white"/>
<path d="M54.3461 136.381H34.7852V137.402H54.3461V136.381Z" fill="white"/>
<path d="M52.986 122.978H48.0391V125.654H52.986V122.978Z" fill="white"/>
<path d="M44.0437 121.276H39.1875V125.653H44.0437V121.276Z" fill="#FE6B61"/>
<path d="M52.7605 134.021H47.9043V136.221H52.7605V134.021Z" fill="#FE6B61"/>
<path d="M40.6404 131.936H37.5088V136.335H40.6404V131.936Z" fill="white"/>
<path d="M52.0544 142.776H48.9229V147.176H52.0544V142.776Z" fill="white"/>
<path d="M39.7097 145.453H36.5781V147.177H39.7097V145.453Z" fill="white"/>
<path d="M51.3741 132.003H45.4287V136.403H51.3741V132.003Z" fill="white"/>
<path d="M45.1569 140.871H41.9346V147.153H45.1569V140.871Z" fill="#0C5A75"/>
<path d="M40.755 123.884H34.8096V125.653H40.755V123.884Z" fill="#0C5A75"/>
<path d="M47.9011 144.478H44.7695V147.154H47.9011V144.478Z" fill="white"/>
<path d="M43.7481 133.727H41.252V136.403H43.7481V133.727Z" fill="white"/>
<path d="M40.6417 122.978H38.1455V125.654H40.6417V122.978Z" fill="white"/>
<g opacity="0.57">
<path opacity="0.57" d="M54.3461 116.286H34.7852V147.131H54.3461V116.286Z" fill="#EEF2F6"/>
</g>
<g opacity="0.39">
<path opacity="0.39" d="M44.8603 116.286L35.4656 147.131H34.626V142.164L42.5003 116.286H44.8603Z" fill="white"/>
</g>
<g opacity="0.39">
<path opacity="0.39" d="M54.9596 116.286L45.5649 147.131H41.5938L50.9884 116.286H54.9596Z" fill="white"/>
</g>
<path d="M188.231 229.617C280.76 229.617 355.769 227.332 355.769 224.514C355.769 221.696 280.76 219.411 188.231 219.411C95.7019 219.411 20.6924 221.696 20.6924 224.514C20.6924 227.332 95.7019 229.617 188.231 229.617Z" fill="#A9CCD0"/>
<path d="M56.7054 196.255H50.2607V208.752H56.7054V196.255Z" fill="#59CCD8"/>
<path d="M43.0866 181.785H56.0213C56.6567 181.785 57.1786 181.263 57.1786 180.628V179.902H41.5889V180.311C41.5889 181.127 42.2696 181.785 43.0866 181.785Z" fill="#FED351"/>
<path d="M70.9119 174.936H80.0797C81.237 174.936 82.1674 175.866 82.1674 177.023V218.912C82.1674 219.162 81.9632 219.366 81.7136 219.366H81.0101C80.7605 219.366 80.5562 219.162 80.5562 218.912V177.635C80.5562 176.773 79.8528 176.07 78.9905 176.07H72.2281C71.502 176.07 70.9119 176.66 70.9119 177.385V218.912C70.9119 219.162 70.7077 219.366 70.4581 219.366H69.7546C69.505 219.366 69.3008 219.162 69.3008 218.912V176.569C69.3008 175.662 70.0269 174.936 70.9119 174.936Z" fill="#BCBBBD"/>
<path d="M79.5127 221.203C79.5127 222.291 80.3977 223.176 81.4869 223.176C82.5762 223.176 83.4612 222.291 83.4612 221.203C83.4612 220.114 82.5762 219.229 81.4869 219.229C80.3977 219.229 79.5127 220.114 79.5127 221.203Z" fill="#79787A"/>
<path d="M68.2314 221.203C68.2314 222.292 69.1165 223.176 70.2057 223.176C71.2949 223.176 72.1799 222.292 72.1799 221.203C72.1799 220.114 71.2949 219.23 70.2057 219.23C69.1391 219.207 68.2314 220.114 68.2314 221.203Z" fill="#79787A"/>
<path d="M80.5552 208.752H37.6211V210.113H80.5552V208.752Z" fill="#79787A"/>
<path d="M80.5524 181.785H37.3232V182.942H80.5524V181.785Z" fill="#79787A"/>
<path d="M37.7098 174.936H46.8776C48.0349 174.936 48.9653 175.866 48.9653 177.023V218.912C48.9653 219.162 48.761 219.366 48.5114 219.366H47.8079C47.5583 219.366 47.3541 219.162 47.3541 218.912V177.635C47.3541 176.773 46.6506 176.07 45.7883 176.07H39.026C38.2998 176.07 37.7098 176.66 37.7098 177.385V218.912C37.7098 219.162 37.5056 219.366 37.2559 219.366H36.5525C36.3029 219.366 36.0986 219.162 36.0986 218.912V176.569C36.0986 175.662 36.8248 174.936 37.7098 174.936Z" fill="#BCBBBD"/>
<path d="M61.2841 181.787H75.2627V178.884H61.2841V181.787Z" fill="#00A2B1"/>
<path d="M62.5373 208.753H75.7897L76.3797 199.59H61.9473L62.5373 208.753Z" fill="#FED351"/>
<path d="M61.3541 200.624H76.9893V199.603H61.3541V200.624Z" fill="#00A2B1"/>
<path d="M65.3718 202.288H52.6641V208.751H65.3718V202.288Z" fill="#9F9F9F"/>
<path d="M65.3738 202.287H58.3164V208.751H65.3738V202.287Z" fill="#BFBFBF"/>
<path d="M45.9932 221.203C45.9932 222.291 46.8782 223.176 47.9674 223.176C49.0566 223.176 49.9417 222.291 49.9417 221.203C49.9417 220.114 49.0566 219.229 47.9674 219.229C46.8782 219.229 45.9932 220.114 45.9932 221.203Z" fill="#79787A"/>
<path d="M34.7393 221.203C34.7393 222.291 35.6243 223.176 36.7135 223.176C37.8027 223.176 38.6877 222.291 38.6877 221.203C38.6877 220.114 37.8027 219.229 36.7135 219.229C35.6243 219.229 34.7393 220.114 34.7393 221.203Z" fill="#79787A"/>
<path d="M40.5458 190.336C40.5458 190.336 40.977 193.987 37.7773 194.962V195.325C37.7773 195.325 41.7485 194.191 41.5216 191.81C41.272 189.428 40.5458 190.336 40.5458 190.336Z" fill="#EEF2F6"/>
<path d="M44.8371 191.855H41.7055L39.459 189.133C39.459 189.133 42.1821 188.634 44.8371 190.471C45.0413 190.607 45.0867 191.855 44.8371 191.855Z" fill="#84A2B0"/>
<path d="M39.1575 189.051L39.0986 190.092L40.1408 190.151L40.1997 189.109L39.1575 189.051Z" fill="#F87070"/>
<path d="M41.6364 197.888V193.76C41.6364 193.352 41.9768 193.012 42.3852 193.012H44.0191C44.4275 193.012 44.7679 193.352 44.7679 193.76V197.888C44.7679 198.296 45.1083 198.636 45.5168 198.636C46.016 198.636 46.4018 199.022 46.4018 199.521V207.232C46.4018 208.071 45.721 208.774 44.8587 208.774H41.591C40.7968 208.774 40.1387 208.117 40.1387 207.323V199.385C40.1387 198.977 40.4791 198.636 40.8875 198.636C41.296 198.636 41.6364 198.296 41.6364 197.888Z" fill="#EAEFD6"/>
<path d="M41.8193 193.193H44.6332L44.5197 191.855H41.9328L41.8193 193.193Z" fill="#F87070"/>
<path d="M176.796 219.435H137.742V222.859H176.796V219.435Z" fill="#79787A"/>
<path d="M160.593 193.421H147.477V219.48H160.593V193.421Z" fill="#BCBBBD"/>
<path d="M175.867 197.095H151.404V199.567H175.867V197.095Z" fill="#79787A"/>
<path d="M126.647 224.742H146.617C149.068 224.742 151.337 222.497 151.995 219.458L156.375 198.978C156.601 197.934 156.034 196.982 155.217 196.982H122.631C121.791 196.982 121.065 197.934 121.11 199L122.2 219.548C122.359 222.542 124.242 224.742 126.647 224.742Z" fill="#00A2B1"/>
<path d="M126.076 224.742H143.913C146.091 224.742 148.133 222.497 148.723 219.458L152.649 198.978C152.853 197.934 152.354 196.982 151.605 196.982H122.468C121.719 196.982 121.061 197.934 121.107 199L122.082 219.548C122.219 222.542 123.898 224.742 126.076 224.742Z" fill="#01BBCA"/>
<path d="M142.663 192.333L172.504 192.446C174.614 192.446 176.52 190.495 176.657 188.182L178.744 147.268C178.88 144.546 177.065 142.459 174.569 142.437L152.081 142.369C149.584 142.369 147.247 144.478 146.771 147.199L139.532 188.069C139.123 190.359 140.553 192.31 142.663 192.333Z" fill="#00A2B1"/>
<path d="M142.373 192.333L169.422 192.446C171.351 192.446 173.076 190.495 173.166 188.182L175.05 147.268C175.186 144.546 173.529 142.459 171.26 142.437L150.905 142.369C148.636 142.369 146.525 144.478 146.094 147.199L139.513 188.069C139.15 190.359 140.467 192.31 142.373 192.333Z" fill="#01BBCA"/>
<path d="M122.423 197.186H151.402C152.128 197.186 152.695 196.596 152.695 195.893V193.67C152.695 192.944 152.105 192.377 151.402 192.377H122.423C121.697 192.377 121.13 192.967 121.13 193.67V195.893C121.13 196.596 121.72 197.186 122.423 197.186Z" fill="#00A2B1"/>
<path d="M152.085 197.186H173.643C174.414 197.186 175.049 196.551 175.049 195.78V193.761C175.049 192.99 174.414 192.355 173.643 192.355H152.085C151.313 192.355 150.678 192.99 150.678 193.761V195.78C150.678 196.551 151.313 197.186 152.085 197.186Z" fill="#00A2B1"/>
<path d="M119.089 176.388H136.289C137.538 176.388 138.559 175.368 138.559 174.12V173.826C138.559 172.578 137.538 171.558 136.289 171.558H119.089C117.84 171.558 116.819 172.578 116.819 173.826V174.12C116.819 175.368 117.84 176.388 119.089 176.388Z" fill="#00A2B1"/>
<path d="M128.691 206.803C129.031 205.056 128.237 199.227 127.647 195.122C127.488 194.079 126.807 193.558 127.148 192.015C127.307 191.312 127.851 190.314 128.827 189.521C130.847 190.178 132.594 191.516 133.956 192.9C133.547 193.013 133.184 193.195 133.048 193.535C132.866 193.988 132.662 194.17 132.844 194.669C134.387 198.66 133.502 200.724 132.98 203.741C132.776 204.92 132.299 206.349 132.231 207.506C132.186 208.118 132.276 208.753 132.526 209.343C132.753 209.887 130.37 210.93 128.441 211.202C126.558 211.52 128.282 208.912 128.691 206.803Z" fill="#FFC794"/>
<path d="M133.385 210.93C133.226 211.384 133.044 211.475 132.863 211.543C132.25 211.747 131.615 211.883 130.979 212.064C129.958 212.382 130.412 211.338 128.188 213.244C127.961 213.425 127.712 213.584 127.462 213.743C126.668 214.219 125.737 214.491 124.807 214.468C124.331 214.468 123.831 214.378 123.536 214.015C123.468 213.924 123.173 212.971 123.219 212.858C123.264 212.722 123.695 213.198 123.831 213.176C124.285 213.062 124.694 213.289 125.147 213.13C125.942 212.858 126.645 212.359 127.303 211.837C127.961 211.316 128.597 210.749 129.323 210.318C130.049 209.887 130.889 209.592 131.728 209.66C132.001 209.683 132.273 209.751 132.568 209.774C132.727 209.796 132.976 209.706 133.113 209.751C133.43 209.91 133.498 210.635 133.385 210.93Z" fill="#1F3BC0"/>
<path d="M127.826 207.619C127.486 207.959 127.236 208.368 126.964 208.821C126.079 210.431 124.581 211.248 123.356 212.563C123.016 212.926 123.356 213.244 123.651 213.561C126.102 214.31 128.076 212.178 129.733 211.316C130.436 210.93 131.253 210.93 131.979 210.636C132.592 210.363 133.25 210.386 133.273 209.728C133.295 209.252 132.751 207.982 132.388 207.687C131.049 208.866 129.846 209.388 129.37 208.458C129.188 208.027 127.985 207.46 127.826 207.619Z" fill="#796B6A"/>
<path d="M137.152 184.734C138.514 184.031 141.396 184.417 142.485 185.233C143.075 185.664 145.526 186.186 145.616 186.889C145.798 188.273 142.621 189.52 141.6 190.495C140.579 191.47 142.258 191.879 140.942 192.4C138.854 193.217 135.836 194.124 133.703 194.895C132.727 193.648 129.754 189.974 128.279 189.407C131.025 187.456 133.725 186.458 137.152 184.734Z" fill="#1F3BC0"/>
<path d="M151.039 162.463C150.268 162.804 149.542 163.28 148.906 163.847C149.133 162.781 149.474 161.738 149.927 160.74C150.132 160.309 150.359 159.878 150.676 159.538C151.334 158.857 153.694 157.973 153.672 159.583C153.672 161.216 152.31 161.919 151.039 162.463Z" fill="#AE5E0E"/>
<path d="M123.196 173.781C122.311 174.461 121.698 175.255 121.199 175.799C120.677 176.389 120.291 177.5 120.246 177.954C120.36 178.203 120.904 177.115 121.335 176.638C120.791 177.274 120.178 178.498 120.382 178.77C120.45 178.974 121.29 177.568 121.653 177.047C121.108 177.682 120.473 179.315 120.677 179.405C120.859 179.473 121.835 178.181 122.266 177.478C121.517 178.838 121.313 179.224 121.562 179.383C121.721 179.496 123.264 177.772 123.627 177.228C123.627 177.704 122.765 178.952 123.241 179.111C123.514 178.748 124.512 177.568 124.739 177.296C125.828 176.003 124.195 175.595 125.806 174.892C127.19 174.302 128.529 173.441 130.707 171.694C131.252 171.377 136.607 171.694 138.65 171.15C141.827 170.311 142.507 166.206 141.1 165.548C140.215 165.14 129.822 167.816 128.937 168.519C127.553 169.336 124.648 172.669 123.196 173.781Z" fill="#FFC794"/>
<path d="M139.4 165.366C139.219 165.389 139.015 165.434 138.969 165.593C138.901 165.48 138.72 165.434 138.584 165.502C138.447 165.548 138.357 165.661 138.266 165.775C138.107 165.57 137.721 165.752 137.767 166.001C137.699 165.865 137.494 165.57 137.404 165.684C137.313 165.797 137.154 165.956 137.154 166.115C137.562 169.88 136.904 171.036 136.904 171.399C136.904 172.329 137.313 171.513 137.88 171.875C138.243 171.127 138.606 170.379 138.947 169.653C139.673 168.133 139.945 168.315 140.444 167.521C140.694 167.135 140.83 166.682 141.125 166.342C141.375 166.047 142.033 165.457 141.42 165.208C140.921 165.003 139.922 165.298 139.4 165.366Z" fill="#DB7B00"/>
<path d="M149.407 165.275C147.251 164.685 146.252 165.094 144.369 164.753C141.941 164.323 138.65 166.568 138.31 168.473C137.402 173.417 136.994 178.497 137.198 183.464C137.47 190.042 139.172 190.586 142.1 192.536C143.552 193.512 148.998 192.037 150.246 190.79C153.037 187.955 150.292 183.759 150.745 181.831C153.332 170.877 153.809 166.5 149.407 165.275Z" fill="#FFC794"/>
<path d="M136.632 183.464C138.017 190.563 138.992 190.813 142.124 192.536C143.644 193.375 149.022 192.037 150.271 190.79C153.062 187.955 151.337 183.737 150.77 181.831C150.361 180.539 135.679 178.588 136.632 183.464Z" fill="#116572"/>
<path d="M143.37 197.639C142.575 196.732 141.441 196.256 140.306 195.848C139.762 195.643 139.194 195.485 138.604 195.462C138.445 195.462 137.923 195.507 137.765 195.53C138.604 193.058 140.011 190.109 141.509 188.658C143.506 186.708 147.25 185.143 149.95 185.959C150.835 186.231 151.698 186.708 152.197 187.479C152.606 188.114 152.719 188.953 152.401 189.633C152.265 190.359 151.947 191.039 151.539 191.652C150.359 193.398 148.362 194.94 146.569 196.074C145.639 196.664 145.004 198.161 144.368 199.249C144.209 198.796 143.687 198.002 143.37 197.639Z" fill="#3854D9"/>
<path d="M138.31 168.473C137.924 170.56 137.243 172.737 136.698 174.937C135.95 177.976 135.7 181.968 136.585 184.758C137.198 186.685 142.916 186.096 146.297 187.366C147.001 187.638 149.27 188.795 149.27 188.795C150.291 189.588 151.471 191.902 152.583 190.677C154.035 189.09 151.267 183.987 151.721 182.059C154.194 171.581 153.854 166.886 149.951 165.434C149.769 165.366 149.588 165.298 149.406 165.253C147.25 164.663 146.252 165.071 144.368 164.731C143.325 164.55 142.122 164.867 141.055 165.434C139.671 166.205 138.514 167.385 138.31 168.473Z" fill="#F49402"/>
<path d="M143.371 165.547C143.28 165.661 141.896 166.976 144.937 166.976C148.091 166.976 149.679 166.046 149.793 165.797C149.861 165.638 148.931 165.184 149.657 161.805C148.726 162.009 147.569 162.712 146.593 162.871C145.822 162.985 144.755 163.121 144.074 163.325C143.258 163.597 144.347 164.028 143.371 165.547Z" fill="#FCA57E"/>
<path d="M151.289 160.625C151.652 160.24 154.262 158.879 152.946 155.409C152.537 154.366 152.152 153.436 151.04 152.642C150.087 151.962 148.294 150.079 145.82 151.145C144.414 151.758 143.415 152.96 142.825 154.116C142.507 154.751 142.008 155.863 141.622 156.543C140.283 159.015 141.055 162.961 142.666 163.574C144.391 164.209 146.683 164.027 148.158 163.279C149.065 162.825 149.882 162.1 150.314 161.51C150.654 161.147 150.926 161.011 151.289 160.625Z" fill="#F9B393"/>
<path d="M149.951 160.762C151.358 159.288 153.968 160.309 150.609 162.44C150.314 162.622 149.838 162.577 149.611 162.282C149.475 162.1 149.475 161.692 149.543 161.488L149.951 160.762Z" fill="#FFC794"/>
<path d="M154.671 154.593C154.308 154.049 154.194 153.845 154.035 153.232C153.582 151.418 151.562 149.989 149.883 149.49C146.592 148.515 143.892 149.331 142.326 152.416C142.644 152.756 143.211 153.323 143.597 153.595C143.869 153.799 144.346 153.958 144.618 153.822C144.958 153.663 145.322 153.482 145.662 153.323C145.39 153.595 145.185 153.935 145.049 154.298C146.729 155.523 147.409 155.319 147.818 155.092C148.725 154.548 149.02 154.57 150.064 154.684C149.497 154.865 148.975 155.251 148.657 155.772C148.794 155.772 151.04 155.41 151.585 155.591C150.632 156.657 149.769 159.447 150.314 161.034C150.518 160.671 151.04 160.626 151.449 160.603C152.265 160.581 153.945 160.036 154.444 159.447C154.989 158.743 155.919 156.453 154.671 154.593Z" fill="#AE5E0E"/>
<path d="M152.22 151.668C151.448 151.192 150.609 150.715 149.701 150.738C151.267 151.509 152.901 152.348 153.899 153.8C153.264 153.505 152.492 153.505 151.857 153.8C152.538 153.959 153.219 154.027 153.922 153.981C153.809 155.025 153.4 156.023 152.742 156.862C153.514 156.567 154.104 155.864 154.262 155.07C154.489 156.045 154.512 157.066 154.33 158.041C154.852 155.274 154.784 153.21 152.22 151.668Z" fill="#C68D7D"/>
<path d="M137.107 212.517C136.835 212.472 136.562 212.495 136.29 212.54C136.449 212.336 136.585 212.109 136.721 211.905C137.969 209.864 137.606 207.732 137.652 205.351C137.674 203.06 137.039 198.615 137.334 197.753C137.561 197.095 137.81 196.324 138.105 195.485C138.264 195.462 138.446 195.439 138.605 195.439C139.195 195.462 139.762 195.644 140.307 195.825C141.419 196.211 142.576 196.71 143.37 197.617C143.688 197.98 143.96 198.411 144.142 198.864C144.028 199.068 143.915 199.295 143.801 199.499C142.939 201.359 144.051 202.697 143.96 204.716C143.869 207.142 141.555 210.386 141.101 212.767C141.055 212.948 141.055 213.13 141.055 213.334C140.239 213.901 139.195 214.128 138.264 213.901C138.264 213.152 137.81 212.631 137.107 212.517Z" fill="#FFC794"/>
<path d="M135.95 217.643C136.858 217.439 137.697 216.962 138.469 216.395C139.309 215.783 140.171 215.012 141.169 214.831C141.169 215.193 141.101 215.534 140.874 215.828C140.352 216.509 139.831 216.259 139.15 216.804C138.31 217.439 137.516 218.21 136.495 218.55C135.474 218.89 132.728 219.457 131.843 217.325C131.752 217.076 131.729 216.826 131.797 216.577C132.909 217.552 134.498 217.983 135.95 217.643Z" fill="#1F3BC0"/>
<path d="M138.466 216.396C137.694 216.963 136.855 217.439 135.947 217.643C134.495 217.984 132.906 217.575 131.771 216.577C131.908 216.033 132.43 215.511 133.315 215.035C134.336 214.468 135.334 213.516 136.06 212.54C136.219 212.041 136.378 212.019 136.65 212.064C137.354 212.155 138.262 213.198 138.262 213.947C139.215 214.151 140.236 213.947 141.053 213.38C141.053 213.879 141.166 214.4 141.166 214.876C140.168 215.013 139.328 215.761 138.466 216.396Z" fill="#796B6A"/>
<path d="M144.663 183.873C146.093 183.464 147.318 182.875 147.795 182.943C148.316 183.011 151.266 183.011 151.63 183.011C152.333 183.011 153.059 182.988 153.763 182.965C154.489 182.943 156.713 182.262 157.167 181.673C157.779 180.879 158.142 178.407 158.006 177.409C157.688 175.231 152.583 178.157 153.105 178.633C152.31 178.656 151.493 178.974 150.745 179.246C149.905 179.563 149.043 179.904 148.18 180.13C146.705 180.516 147.454 179.994 146.183 179.563C145.979 179.495 145.775 179.45 145.593 179.359C145.298 179.2 145.117 178.883 144.822 178.724C144.64 178.611 144.504 178.724 144.481 178.86C144.436 179.087 144.708 179.541 144.958 179.767C145.071 179.881 145.23 180.04 145.185 180.198C145.094 180.493 144.232 180.561 143.324 180.198C143.143 180.13 142.28 179.699 141.94 179.881C141.781 179.972 141.713 180.244 142.031 180.539C142.394 180.879 142.893 181.038 143.369 181.174C143.596 181.242 143.483 181.4 143.324 181.423C142.938 181.468 142.711 181.264 141.758 180.969C141.236 180.811 141.1 181.151 141.441 181.468C142.031 182.035 142.848 182.308 143.642 182.444C143.143 182.92 141.736 182.103 141.577 182.376C141.463 182.625 142.507 183.033 142.802 183.124C143.188 183.215 143.619 183.237 144.005 183.079C143.869 183.623 142.893 183.487 142.757 183.782C142.734 183.85 142.757 183.941 142.825 183.986C143.029 184.122 143.755 184.122 144.663 183.873Z" fill="#FFC794"/>
<path d="M151.833 178.338C151.22 176.501 150.471 174.46 150.017 173.553C149.268 172.011 150.267 169.924 150.653 168.541C151.084 167.044 151.22 166.182 152.536 166.976C153.625 167.633 156.122 171.013 156.598 172.147C157.415 174.052 157.937 175.14 158.209 177.114C156.371 176.909 153.603 177.749 151.833 178.338Z" fill="#DB7B00"/>
<path d="M146.796 168.79C147.636 168.813 148.362 169.856 147.432 170.242C146.887 170.469 146.184 170.355 145.73 170.718C145.616 170.831 145.503 170.968 145.367 171.036C144.709 171.421 143.755 170.378 144.845 169.289C145.117 169.017 145.457 168.813 145.821 168.768L146.796 168.79Z" fill="#8F3D26"/>
<path d="M141.917 179.586C141.645 179.699 141.396 179.835 141.214 180.039C141.032 180.266 140.964 180.584 141.123 180.833C141.305 181.105 141.691 181.151 142.008 181.151C143.211 181.128 145.412 180.674 145.889 179.45C144.709 178.905 143.097 179.109 141.917 179.586Z" fill="#AE5E0E"/>
<path d="M144.957 191.357C144.685 191.561 144.322 191.538 143.959 191.516C142.711 191.425 142.983 190.314 142.983 190.041C143.006 189.497 144.05 186.775 144.73 187.841C145.207 188.544 145.684 190.767 144.957 191.357Z" fill="#AE5E0E"/>
<path d="M139.012 186.911C138.763 187.025 138.513 187.138 138.377 187.365C138.127 187.705 138.218 188.182 138.354 188.59C138.4 188.771 138.99 189.497 140.079 188.749C140.782 188.25 141.44 187.524 141.531 186.594C141.645 185.233 139.466 186.707 139.012 186.911Z" fill="#AE5E0E"/>
<path d="M142.892 180.992C142.121 181.672 138.989 182.942 140.192 185.823C140.464 186.503 141.644 187.66 142.257 188.023C143.119 188.522 146.909 188.907 148.475 185.732C149.065 184.53 148.906 183.078 148.588 181.786C148.406 181.06 148.134 180.334 147.658 179.767C147.476 179.54 147.226 179.336 146.954 179.246C144.571 178.429 144.458 179.608 142.892 180.992Z" fill="#8F3D26"/>
<path d="M148.362 180.199C147.749 181.718 147.296 183.51 148.044 184.984C148.158 185.211 148.317 185.415 148.521 185.528C149.088 185.823 149.769 185.234 149.951 184.599C150.495 182.875 148.43 180.017 148.362 180.199Z" fill="#AE5E0E"/>
<path d="M152.674 170.808C154.829 172.578 155.192 176.116 153.468 178.293C152.696 179.268 151.562 179.971 150.359 180.334C148.203 180.992 145.889 180.13 144.3 178.542C143.506 177.749 143.143 176.433 143.075 175.322C143.029 174.505 143.279 173.643 143.619 172.895C144.345 171.33 145.866 170.241 147.659 169.674C149.61 169.062 151.13 169.538 152.674 170.808Z" fill="#AE5E0E"/>
<path d="M147.137 175.118C147.818 175.254 148.34 175.821 148.726 176.411C148.998 176.841 149.27 177.318 149.248 177.839C149.225 178.361 148.907 178.86 148.453 179.155C148 179.45 147.455 179.54 146.933 179.518C146.071 179.45 145.254 179.041 144.709 178.384C144.165 177.726 143.96 176.796 144.142 175.957C144.21 175.707 144.301 175.481 144.46 175.277C144.823 174.8 145.481 174.664 146.071 174.755C146.661 174.846 147.205 175.118 147.727 175.413L147.137 175.118Z" fill="#8F3D26"/>
<path d="M147.293 175.502C147.406 175.684 147.452 175.91 147.361 176.092C147.27 176.273 147.043 176.387 146.839 176.387C146.635 176.387 146.431 176.296 146.249 176.205C145.886 176.001 145.478 175.389 146.022 175.094C146.363 174.867 147.089 175.185 147.293 175.502Z" fill="#FECCC6"/>
<path d="M148.087 175.14C148.042 175.253 147.906 175.276 147.792 175.231C147.679 175.185 147.656 175.049 147.702 174.936C147.747 174.822 147.883 174.8 147.997 174.845C148.11 174.913 148.155 175.049 148.087 175.14Z" fill="#1A1A20"/>
<path d="M146.749 174.459C146.704 174.573 146.568 174.595 146.454 174.55C146.341 174.505 146.318 174.369 146.364 174.255C146.409 174.142 146.545 174.119 146.659 174.164C146.772 174.21 146.795 174.346 146.749 174.459Z" fill="#1A1A20"/>
<path d="M154.94 173.258C154.191 172.759 153.579 173.054 153.42 173.463C153.261 173.848 153.488 174.279 153.601 174.687C153.896 175.753 153.306 176.32 153.511 176.978C153.647 177.363 154.101 177.636 154.486 177.522C154.986 177.363 155.394 176.842 155.508 176.366C155.848 174.982 155.848 174.642 155.757 174.438C155.485 173.689 155.031 173.326 154.94 173.258Z" fill="#8F3D26"/>
<path d="M144.663 183.872C146.093 183.464 147.318 182.874 147.795 182.942C148.316 183.011 151.266 183.011 151.63 183.011C152.333 183.011 153.059 182.988 153.763 182.965C154.489 182.942 156.713 182.262 157.167 181.672C157.779 180.879 154.806 178.974 153.105 178.633C152.31 178.656 151.493 178.974 150.745 179.246C149.905 179.563 149.043 179.903 148.18 180.13C146.705 180.516 147.454 179.994 146.183 179.563C145.979 179.495 145.775 179.45 145.593 179.359C145.298 179.2 145.117 178.883 144.822 178.724C144.64 178.611 144.504 178.724 144.481 178.86C144.436 179.087 144.708 179.54 144.958 179.767C145.071 179.881 145.23 180.039 145.185 180.198C145.094 180.493 144.232 180.561 143.324 180.198C143.143 180.13 142.28 179.699 141.94 179.881C141.781 179.971 141.713 180.244 142.031 180.538C142.394 180.879 142.893 181.037 143.369 181.173C143.596 181.241 143.483 181.4 143.324 181.423C142.938 181.468 142.711 181.264 141.758 180.969C141.236 180.811 141.1 181.151 141.441 181.468C142.031 182.035 142.848 182.307 143.642 182.444C143.143 182.92 141.736 182.103 141.577 182.375C141.463 182.625 142.507 183.033 142.802 183.124C143.188 183.215 143.619 183.237 144.005 183.079C143.869 183.623 142.893 183.487 142.757 183.782C142.734 183.85 142.757 183.94 142.825 183.986C143.029 184.122 143.755 184.122 144.663 183.872Z" fill="#FFC794"/>
<path d="M175.866 177.545H174.709V198.252H175.866V177.545Z" fill="#BCBBBD"/>
<path d="M175.322 201.018C176.438 201.018 177.342 199.993 177.342 198.728C177.342 197.463 176.438 196.437 175.322 196.437C174.207 196.437 173.303 197.463 173.303 198.728C173.303 199.993 174.207 201.018 175.322 201.018Z" fill="#BCBBBD"/>
<path d="M119.089 124.746C117.591 124.066 113.53 123.998 113.552 129.282C112.304 130.575 113.847 133.75 116.071 132.82C116.321 132.73 116.57 132.662 116.775 132.503C119.112 130.961 119.339 130.756 119.838 129.418C120.088 128.738 120.678 127.785 120.746 127.06C120.814 126.198 119.883 125.109 119.089 124.746Z" fill="#522316"/>
<path d="M116.364 125.222C115.751 125.245 115.07 125.403 114.707 125.902C114.526 126.152 114.435 126.424 114.367 126.719C114.163 127.535 114.049 128.488 114.549 129.168C114.526 128.057 115.343 127.082 116.319 126.537C116.614 126.379 117.226 126.106 117.272 125.721C117.362 125.245 116.727 125.199 116.364 125.222Z" fill="#662C1B"/>
<path d="M123.353 163.733C122.581 161.487 121.81 159.174 121.129 156.861C120.539 154.865 119.881 153.073 119.767 150.215C119.677 148.242 120.788 142.595 120.902 140.622C121.061 138.218 119.245 139.329 118.474 137.038C118.179 136.176 117.611 135.292 116.726 135.111C116.023 134.974 114.775 134.861 114.321 135.405C113.845 135.95 113.481 136.313 113.3 137.016C112.506 140.032 112.438 140.486 112.506 143.593C112.574 146.609 111.802 149.467 112.982 152.302C114.684 156.362 117.248 162.326 121.764 165.071C123.738 166.273 123.512 164.141 123.353 163.733Z" fill="#FCA57E"/>
<path d="M109.105 220.047C106.246 221.589 101.208 218.051 101.412 217.96C102.638 217.303 100.595 209.297 100.618 206.462C100.664 200.565 100.55 197.208 103.341 194.509C106.291 191.629 104.385 188.59 102.07 184.145C98.3943 177.136 93.5608 168.881 97.4866 158.924C100.051 152.438 104.725 155.681 105.247 155.16C109.264 158.244 109.173 163.12 110.013 168.11C111.669 177.93 113.099 189.497 112.872 192.151C112.691 194.373 103.682 212.404 108.492 217.529C109.99 219.162 110.648 219.23 109.105 220.047Z" fill="#FCA57E"/>
<path d="M108.265 221.363C106.041 220.977 103.771 220.524 101.57 220.886C101.638 221.499 101.593 222.293 101.956 222.746C106.517 222.792 112.803 223.427 115.912 221.794C115.935 221.544 115.844 221.317 115.708 221.113C115.617 221.136 115.549 221.181 115.458 221.204C113.212 222.111 110.67 221.771 108.265 221.363Z" fill="#796B6A"/>
<path d="M112.553 219.571C110.579 219.117 110.147 218.255 109.149 217.688C108.173 217.099 107.742 218.414 107.402 218.822C105.745 220.931 101.955 217.711 101.479 217.688C100.912 219.911 101.411 220.387 101.57 220.886C103.771 220.523 106.04 220.977 108.264 221.362C110.669 221.771 113.211 222.088 115.48 221.226C115.571 221.204 115.639 221.158 115.73 221.136C115.162 220.342 113.597 219.82 112.553 219.571Z" fill="#F2F2F2"/>
<path d="M101.818 189.86C102.091 190.54 102.363 191.266 102.204 191.969C102.091 192.468 101.773 192.899 101.501 193.352C100.956 194.305 100.684 195.394 100.434 196.46C98.9818 202.47 99.708 218.391 100.434 218.527C102.681 218.935 106.312 216.577 108.558 216.985C107.06 214.173 112.96 193.715 113.051 191.13C113.187 187.909 111.304 171.67 110.033 167.588C109.579 166.114 108.876 164.617 107.56 163.755C105.018 162.077 99.708 163.097 97.0076 163.959C94.4433 164.776 94.0122 166.363 94.2618 168.926C95.0107 176.252 99.0953 183.169 101.818 189.86Z" fill="#00A2B1"/>
<path d="M89.3611 167.95C90.8588 175.027 94.5804 180.787 92.6969 188.272C92.1296 190.494 90.9496 192.513 90.4503 194.758C88.7938 202.129 96.2142 212.199 94.4896 219.57C94.4442 219.819 94.3307 220.069 94.1946 220.318C94.7619 221.793 96.2596 222.722 97.8254 223.017C100.548 223.516 103.816 222.677 101.57 220.454C99.1189 218.028 98.8465 213.015 98.8238 200.451C98.8238 199.476 98.8465 198.5 98.9146 197.525C98.9827 196.414 99.0962 195.325 99.3004 194.214C99.3912 193.76 99.6408 193.465 99.9812 192.762C100.912 190.834 102.455 185.913 102.659 166.476C102.704 162.643 101.138 157.903 97.0992 156.406C89.4065 153.549 88.3626 163.12 89.3611 167.95Z" fill="#FFC794"/>
<path d="M100.796 223.833C98.5267 223.289 96.2121 222.654 93.8975 222.881C93.9428 223.516 93.8294 224.604 94.1925 225.103C98.2544 225.466 105.357 226.305 108.693 224.831C108.738 224.559 108.67 224.332 108.534 224.105C108.443 224.128 108.353 224.151 108.284 224.173C105.856 224.945 103.247 224.446 100.796 223.833Z" fill="#796B6A"/>
<path d="M105.335 222.292C103.316 221.68 102.884 220.727 101.886 220.047C100.91 219.366 100.411 220.727 100.048 221.158C98.1871 223.244 94.5109 219.638 94.0117 219.57C93.2629 221.838 93.7621 222.36 93.8756 222.882C96.1902 222.655 98.5048 223.29 100.774 223.834C103.225 224.424 105.834 224.945 108.263 224.197C108.353 224.174 108.444 224.152 108.512 224.129C107.99 223.267 106.402 222.609 105.335 222.292Z" fill="white"/>
<path d="M89.5409 194.828C88.9282 201.337 92.2413 212.291 92.6951 217.371C92.9448 220.116 91.8101 219.821 93.2171 222.157C95.9629 220.887 98.7313 219.639 101.477 218.369C100.479 215.398 100.842 209.388 100.524 206.281C99.1171 192.741 103.678 182.331 102.544 168.587C102.476 167.77 102.43 166.909 101.908 166.274C101.386 165.638 100.569 165.389 99.7979 165.185C97.1202 164.436 94.2836 163.665 91.6286 164.504C87.544 165.775 88.5878 169.29 88.8147 172.579C89.1097 177.205 89.7905 191.97 89.5409 194.828Z" fill="#01BBCA"/>
<path d="M124.057 146.882C123.989 148.946 122.264 150.397 121.175 151.849C112.12 163.847 111.031 160.513 111.848 173.213C107.332 171.195 98.6638 176.253 88.3387 170.764C88.3387 170.764 86.546 161.17 91.788 156.34C93.1495 155.092 94.7607 153.618 96.6442 150.125C100.456 143.14 105.335 134.998 107.219 134.045C115.116 130.054 121.424 134.408 123.444 138.082C123.58 138.354 124.215 140.69 124.057 146.882Z" fill="#5FE5F1"/>
<path d="M115.117 151.645L114.686 152.938C114.799 152.507 114.958 152.076 115.117 151.645Z" fill="#D65F3D"/>
<path d="M126.713 157.927C126.713 158.017 126.736 158.085 126.758 158.153C126.758 158.085 126.736 157.995 126.713 157.927Z" fill="#FDB9B1"/>
<path d="M127.237 168.715L131.071 168.66L131.071 168.615L127.236 168.669L127.237 168.715Z" fill="#73747C"/>
<path d="M127.135 169.03L127.226 169.029L127.215 168.303L127.125 168.304L127.135 169.03Z" fill="#73747C"/>
<path d="M131.037 169.155L131.128 169.154L131.114 168.179L131.023 168.18L131.037 169.155Z" fill="#73747C"/>
<path d="M132.379 168.795L132.72 168.791L132.715 168.45L132.375 168.455L132.379 168.795Z" fill="#73747C"/>
<path d="M132.566 168.637L134.812 168.605L134.812 168.56L132.566 168.592L132.566 168.637Z" fill="#73747C"/>
<g opacity="0.5">
<path opacity="0.5" d="M132.424 168.129L128.726 168.182L128.74 169.202L132.439 169.15L132.424 168.129Z" fill="#01BBCA"/>
</g>
<path opacity="0.5" d="M131.184 169.084H132.341V168.223H131.184V169.084Z" fill="white"/>
<path d="M124.055 163.324C124.94 164.027 127.255 164.254 128.185 164.935C129.252 165.728 129.479 165.774 129.751 166.658C130.114 167.815 130.159 167.86 130.023 169.062C129.751 169.153 129.479 168.904 129.411 168.631C129.342 168.359 129.07 167.815 129.025 167.543C128.911 166.749 128.162 166.885 127.346 166.885C126.529 166.885 125.939 166.862 125.235 167.225C126.347 167.747 127.164 167.815 127.232 168.586C127.164 169.561 126.438 168.654 126.211 168.631C124.94 168.473 125.462 168.768 124.191 168.586C123.737 168.541 123.284 168.473 122.898 168.246C122.489 168.019 122.217 167.634 121.945 167.248C120.447 165.184 118.972 163.098 117.497 160.988C117.406 160.875 117.338 160.739 117.361 160.603C117.384 160.467 117.497 160.376 117.61 160.308C118.564 159.65 119.925 158.856 121.65 158.357C122.762 159.469 122.989 162.485 124.055 163.324Z" fill="#38C0FC"/>
<path d="M104.949 145.839C104.971 145.067 105.266 144.591 105.63 143.888C105.993 143.185 107.309 143.004 108.08 142.981C109.056 142.935 109.873 143.729 110.395 144.546C111.779 146.746 113.39 145.113 113.844 147.698C114.207 149.808 112.8 154.888 113.368 156.952C114.207 159.923 116.227 162.531 118.156 164.708C118.473 165.071 118.768 165.411 119.041 165.774C118.337 166.069 117.634 166.364 117.044 166.84C116.136 167.566 115.569 168.609 115.047 169.675C112.369 167.044 109.941 163.914 108.466 161.919C106.515 159.242 106.605 156.067 105.766 152.915C104.903 149.694 104.881 149.218 104.949 145.839Z" fill="#FFC794"/>
<path d="M117.045 166.863C117.635 166.387 118.338 166.092 119.041 165.797C120.335 167.43 121.719 168.745 122.854 170.514C123.103 170.9 125.69 171.626 126.144 171.739C127.007 171.988 131.069 172.646 127.483 176.32C126.893 176.933 124.873 177.59 124.601 176.434C124.465 175.867 126.235 177.137 122.377 174.551C120.471 173.259 117.498 172.079 115.07 169.698C115.57 168.632 116.137 167.589 117.045 166.863Z" fill="#4BCCF9"/>
<path d="M114.525 152.801C114.843 148.673 114.094 141.869 113.391 138.876C112.982 137.152 111.303 135.065 109.737 134.612C109.011 134.408 108.103 134.249 106.901 135.315C103.497 138.331 104.722 149.036 104.45 153.663C106.991 152.552 111.757 152.506 114.525 152.801Z" fill="#01BBCA"/>
<path d="M117.728 127.831C117.637 128.648 117.706 129.509 118.091 130.258C118.159 130.371 118.25 130.507 118.364 130.53C118.477 130.553 118.613 130.485 118.727 130.417C118.931 130.281 119.158 130.145 119.362 130.008C119.657 129.827 119.952 129.623 120.179 129.373C120.429 129.079 120.565 128.738 120.633 128.375C120.928 127.151 120.633 125.79 119.771 124.883C119.612 124.724 119.203 124.134 118.999 124.134C118.659 124.112 118.5 124.815 118.432 125.042C118.159 125.971 117.842 126.879 117.728 127.831Z" fill="#7A2C17"/>
<path d="M117.001 132.161C116.321 132.91 115.368 132.388 115.163 132.819C114.732 133.636 115.64 135.722 116.185 136.561C117.274 138.24 118.431 140.598 120.02 143.252C121.358 140.099 121.449 139.374 121.608 136.743C121.676 135.541 122.017 135.359 122.607 134.407C123.401 133.114 127.077 129.372 124.921 128.147C123.469 127.331 120.973 127.421 120.542 128.17C119.77 129.485 118.045 131.027 117.001 132.161Z" fill="#FCA57E"/>
<path d="M131.504 129.577C131.299 129.917 131.072 130.212 130.8 130.416C129.983 131.029 129.643 131.664 129.643 131.664C129.144 134.499 127.01 135.225 124.537 136.721C123.72 137.198 122.109 135.792 121.95 135.61C119.999 133.183 119.772 131.754 119.635 131.437C119.318 130.666 119.681 130.19 119.908 129.373C120.044 128.829 120.294 127.808 120.362 127.218C120.43 126.606 120.203 123.998 120.566 123.454C121.315 122.388 121.995 121.594 123.244 121.186C124.492 120.777 125.626 120.46 127.147 120.913C128.485 121.299 130.777 123.068 131.14 123.612C131.458 124.089 131.821 125.087 132.048 125.88C132.116 126.13 132.184 126.379 132.23 126.561C132.366 127.173 132.094 128.557 131.504 129.577Z" fill="#F9B393"/>
<path d="M120.859 127.989C121.472 126.107 119.021 123.975 118.885 127.966C118.862 128.329 119.203 128.76 119.588 128.851C119.838 128.919 120.224 128.783 120.383 128.624L120.859 127.989Z" fill="#FFC794"/>
<path d="M120.131 126.697C120.245 126.878 120.54 127.831 120.041 128.194C119.723 128.42 119.496 127.876 119.632 127.921C119.995 128.057 120.063 127.604 120.109 127.468C120.131 127.354 120.154 127.082 120.131 126.946C120.086 126.742 119.972 126.402 119.7 126.425C119.7 126.152 120.041 126.515 120.131 126.697Z" fill="#C68D7D"/>
<path d="M132.069 127.535C132.047 125.88 126.964 123.045 123.401 125.676C123.174 125.857 127.69 118.668 132.047 125.88C132.115 126.129 132.183 126.379 132.228 126.56C132.364 127.173 132.659 126.537 132.069 127.535Z" fill="#FCA57E"/>
<path d="M126.51 124.224C125.352 124.564 124.649 124.882 122.72 126.469C120.269 128.488 119.679 127.558 118.749 127.603C117.387 124.791 118.953 120.051 123.809 119.144C125.057 118.917 128.234 117.193 130.549 120.822C132.909 119.938 134.066 125.494 133.771 126.923C133.499 128.193 133.431 129.35 132.682 130.438C131.933 131.504 131.048 131.3 129.755 131.55C131.525 129.577 132.205 128.896 132.092 126.651C132.024 125.358 131.661 124.723 130.662 125.109C130.186 124.95 130.458 123.09 126.51 124.224Z" fill="#7A2C17"/>
<path d="M126.486 122.841C125.215 123.159 124.216 124.088 123.195 124.928C122.174 125.744 121.017 126.538 119.701 126.515C119.179 126.493 118.657 126.356 118.226 126.107C118.861 126.107 119.474 125.789 119.95 125.359C120.427 124.928 120.813 124.406 121.221 123.93C122.265 122.637 123.581 121.48 125.192 121.049C126.803 120.618 128.732 121.049 129.663 122.433C129.776 122.592 130.298 123.431 130.185 123.612C130.094 123.748 129.322 123.181 129.118 123.091C128.278 122.728 127.348 122.614 126.486 122.841Z" fill="#8F3D26"/>
<path d="M132.114 123.861C132.795 124.27 133.158 125.063 133.203 125.857C133.226 126.22 133.18 126.606 133.067 126.946C132.727 125.993 132.341 125.041 131.615 124.338C131.41 124.133 131.161 123.997 130.911 123.907C131.274 123.634 131.705 123.612 132.114 123.861Z" fill="#8F3D26"/>
<path d="M129.783 131.904L129.656 132.034L130.339 132.698L130.466 132.568L129.783 131.904Z" fill="#43424E"/>
<path opacity="0.24" d="M125.627 130.825L125.037 130.462C124.583 130.167 124.515 129.6 124.901 129.192L124.992 129.078C125.377 128.67 126.058 128.579 126.535 128.874L127.125 129.237C127.579 129.532 127.647 130.099 127.261 130.507L127.17 130.621C126.784 131.029 126.104 131.12 125.627 130.825Z" fill="#DEDDE9"/>
<path opacity="0.24" d="M128.892 133.025L128.392 132.707C127.984 132.458 127.961 131.913 128.347 131.505L128.438 131.392C128.801 130.983 129.436 130.847 129.845 131.097L130.344 131.414C130.752 131.664 130.775 132.208 130.389 132.616L130.299 132.73C129.935 133.138 129.3 133.274 128.892 133.025Z" fill="#DEDDE9"/>
<path d="M125.577 130.892L124.987 130.53C124.738 130.371 124.579 130.144 124.556 129.872C124.533 129.6 124.624 129.327 124.828 129.123L124.919 129.01C125.328 128.579 126.077 128.466 126.576 128.783L127.166 129.146C127.415 129.305 127.574 129.532 127.597 129.804C127.62 130.076 127.529 130.348 127.325 130.552L127.234 130.666C126.984 130.938 126.621 131.074 126.258 131.074C126.008 131.097 125.782 131.028 125.577 130.892ZM125.078 129.146L124.987 129.259C124.806 129.441 124.738 129.645 124.76 129.872C124.783 130.076 124.919 130.257 125.101 130.393L125.691 130.756C126.122 131.028 126.757 130.938 127.12 130.575L127.211 130.461C127.393 130.28 127.461 130.076 127.438 129.849C127.415 129.645 127.279 129.464 127.098 129.327L126.508 128.965C126.349 128.851 126.145 128.806 125.94 128.806C125.6 128.806 125.282 128.919 125.078 129.146Z" fill="#43424E"/>
<path d="M128.845 133.115L128.346 132.798C128.141 132.661 128.028 132.48 127.983 132.253C127.937 131.981 128.051 131.686 128.255 131.459L128.346 131.346C128.754 130.892 129.435 130.756 129.866 131.051L130.365 131.369C130.57 131.505 130.683 131.686 130.728 131.913C130.774 132.185 130.66 132.48 130.456 132.707L130.365 132.82C130.116 133.115 129.73 133.274 129.367 133.274C129.185 133.251 129.004 133.206 128.845 133.115ZM128.505 131.459L128.414 131.573C128.232 131.777 128.141 132.004 128.187 132.231C128.21 132.412 128.3 132.548 128.459 132.639L128.958 132.956C129.321 133.183 129.911 133.07 130.252 132.684L130.343 132.571C130.524 132.367 130.615 132.14 130.57 131.913C130.547 131.732 130.456 131.596 130.297 131.505L129.798 131.187C129.662 131.097 129.526 131.074 129.367 131.074C129.072 131.074 128.731 131.21 128.505 131.459Z" fill="#43424E"/>
<path d="M128.526 131.414C128.526 131.392 128.571 130.938 128.208 130.666C127.868 130.416 127.278 130.439 127.255 130.439V130.62C127.255 130.62 127.799 130.598 128.095 130.825C128.367 131.029 128.344 131.392 128.344 131.392L128.526 131.414Z" fill="#43424E"/>
<path d="M121.718 126.111L121.595 126.244L124.84 129.25L124.964 129.117L121.718 126.111Z" fill="#43424E"/>
<path d="M158.687 177.545H178.225C179.474 177.545 180.495 176.525 180.495 175.277V174.982C180.495 173.735 179.474 172.714 178.225 172.714H158.687C157.439 172.714 156.418 173.735 156.418 174.982V175.277C156.441 176.525 157.439 177.545 158.687 177.545Z" fill="#79787A"/>
<path d="M275.598 203.445H245.009C243.693 203.445 242.694 202.356 242.785 201.041L245.077 167.361C245.168 166.023 246.302 164.957 247.641 164.957H278.231C279.547 164.957 280.545 166.046 280.455 167.361L278.163 201.041C278.072 202.379 276.915 203.445 275.598 203.445Z" fill="#00A2B1"/>
<path d="M267.701 203.196H182.877V207.437H267.701V203.196Z" fill="#00A2B1"/>
<path d="M200.282 176.321L192.476 180.925C191.25 182.218 190.456 183.805 190.116 185.529C190.002 186.096 189.957 186.685 189.957 187.298V203.219H182.877V189.339C182.877 185.574 184.216 181.945 186.644 179.065C188.142 177.296 190.365 176.275 192.703 176.275L200.282 176.321Z" fill="#00A2B1"/>
<path d="M207.499 176.298V203.219H187.348V187.275C187.348 184.916 188.255 182.626 189.867 180.902L191.342 179.337C193.18 177.387 195.767 176.275 198.467 176.275L207.499 176.298Z" fill="#01BBCA"/>
<path d="M236.138 203.445H206.23C204.913 203.445 203.915 202.356 204.006 201.041L206.298 167.361C206.388 166.023 207.523 164.957 208.862 164.957H238.771C240.087 164.957 241.085 166.046 240.994 167.361L238.702 201.041C238.612 202.356 237.454 203.445 236.138 203.445Z" fill="#01BBCA"/>
<path d="M271.675 203.445H241.085C239.769 203.445 238.77 202.356 238.861 201.041L241.153 167.361C241.244 166.023 242.379 164.957 243.717 164.957H274.307C275.623 164.957 276.621 166.046 276.531 167.361L274.239 201.041C274.148 202.379 272.991 203.445 271.675 203.445Z" fill="#01BBCA"/>
<path d="M283.904 203.196H267.725V207.437H283.904V203.196Z" fill="#01BBCA"/>
<path d="M222.907 203.4H189.799C188.46 203.4 187.371 202.311 187.371 200.973V197.004C187.371 195.666 188.46 194.577 189.799 194.577H222.907C224.246 194.577 225.336 195.666 225.336 197.004V200.973C225.336 202.311 224.246 203.4 222.907 203.4Z" fill="#00A2B1"/>
<path d="M261.007 203.4H227.491C226.265 203.4 225.244 202.402 225.244 201.155V196.778C225.244 195.553 226.243 194.532 227.491 194.532H261.007C262.233 194.532 263.254 195.53 263.254 196.778V201.155C263.231 202.379 262.233 203.4 261.007 203.4Z" fill="#00A2B1"/>
<path d="M280.638 176.547L272.831 181.151C271.606 182.444 270.812 184.032 270.471 185.755C270.358 186.322 270.312 186.912 270.312 187.524V203.446H263.232V189.566C263.232 185.801 264.571 182.172 266.999 179.292C268.497 177.523 270.721 176.502 273.058 176.502L280.638 176.547Z" fill="#00A2B1"/>
<path d="M281.93 176.502C283.019 176.502 283.904 177.386 283.904 178.475V203.423L267.725 203.446V187.502C267.725 185.143 268.632 182.852 270.243 181.129L271.718 179.564C273.557 177.613 276.144 176.502 278.821 176.502H281.93Z" fill="#01BBCA"/>
<path d="M268.243 207.459H264.885V223.199H268.243V207.459Z" fill="#BCBBBD"/>
<path d="M283.792 207.459H280.434V223.199H283.792V207.459Z" fill="#BCBBBD"/>
<path d="M186.304 207.459H182.945V223.199H186.304V207.459Z" fill="#BCBBBD"/>
<path d="M201.847 207.459H198.488V223.199H201.847V207.459Z" fill="#BCBBBD"/>
<path d="M212.695 181.014C207.112 183.804 193.588 185.233 193.996 190.063C194.904 200.655 199.987 207.368 199.647 213.514C199.533 215.669 197.763 217.438 195.562 220.455C194.473 221.929 194.359 221.634 192.93 222.632C195.358 223.017 197.922 223.993 198.535 221.793C199.17 219.525 202.461 218.686 205.456 218.572C205.615 215.828 204.639 214.785 204.548 212.925C204.004 202.333 204.639 202.106 204.162 199.362C203.391 194.962 200.917 192.445 200.917 192.445C200.917 192.445 208.656 191.197 223.02 190.426C228.058 190.154 216.053 179.336 212.695 181.014Z" fill="#FED0CA"/>
<path d="M204.934 223.131C204.73 223.131 203.005 223.199 202.847 223.199C202.915 222.11 202.869 220.613 202.824 219.525C202.801 218.98 202.801 218.867 202.756 218.527C203.437 218.368 205.275 218.164 205.434 218.549C205.025 220.137 204.889 222.337 204.934 223.131Z" fill="#1F3BC0"/>
<path d="M191.818 222.382C192.657 221.725 194.518 221.248 195.222 220.727C195.585 220.999 197.219 222.019 197.831 221.77C198.308 221.566 199.147 220.704 199.76 219.91C201.349 217.824 202.688 215.465 205.161 215.102C205.66 216.281 206.159 216.508 205.433 218.481C201.939 218.754 201.916 218.935 200.441 220.999C199.011 223.017 199.624 223.675 192.022 223.539C191.273 223.312 191.341 222.768 191.818 222.382Z" fill="#516DF2"/>
<path d="M218.254 183.282C211.674 187.433 197.536 190.2 199.374 195.484C202.892 205.531 213.126 210.044 215.804 215.578C216.734 217.529 216.121 219.343 215.645 223.04C215.418 224.854 215.146 224.65 214.374 226.215C216.689 225.376 219.412 224.991 218.867 222.768C218.323 220.477 220.796 218.164 223.36 216.599C222.158 214.127 220.433 213.945 219.434 212.381C213.829 203.377 214.669 202.605 212.922 200.428C210.131 196.958 206.749 195.938 206.749 195.938C206.749 195.938 217.755 197.82 229.964 190.2C234.253 187.546 221.431 181.264 218.254 183.282Z" fill="#FFC794"/>
<path d="M233.504 192.514C230.804 197.707 215.622 196.12 213.58 196.142C212.536 196.165 213.013 195.621 212.718 194.373C212.604 193.874 212.355 193.262 211.855 192.514C210.471 190.472 210.267 190.518 205.683 188.431C201.735 186.571 199.783 186.027 197.4 186.186C197.627 185.687 209.2 181.378 215.327 180.811C215.94 180.743 218.005 180.811 218.459 180.584C219.004 180.312 219.389 180.607 220.047 180.675C227.445 181.264 230.395 178.996 231.099 179.291C231.144 179.314 231.167 179.314 231.212 179.337C236.454 181.695 234.548 190.495 233.504 192.514Z" fill="#F49402"/>
<path d="M225.107 220.863C224.925 220.976 223.45 221.838 223.292 221.929C222.815 220.931 222.066 219.661 221.476 218.708C221.181 218.232 221.136 218.141 220.932 217.869C221.454 217.393 222.951 216.349 223.292 216.576C223.745 218.187 224.699 220.182 225.107 220.863Z" fill="#1F3BC0"/>
<path d="M212.672 225.308C213.103 224.332 215.1 224.264 215.463 223.471C215.917 223.539 217.256 223.403 217.868 223.176C218.98 222.745 218.844 221.86 219.003 220.885C219.389 218.3 220.024 215.623 221.023 213.514C221.998 214.557 222.997 214.512 223.315 216.599C220.41 218.526 220.455 218.685 220.16 221.225C220.002 222.609 219.956 223.017 219.638 224.196C219.366 225.24 217.982 225.897 214.85 226.056C214.079 226.147 212.422 225.852 212.672 225.308Z" fill="#516DF2"/>
<path d="M204.231 180.674C203.528 179.631 203.324 178.338 203.256 177.091C203.165 175.322 204.753 172.918 205.434 171.262C206.092 169.607 205.888 168.722 207.431 167.838C207.93 167.543 208.475 167.316 209.065 167.293C209.632 167.271 210.245 167.475 210.608 167.928C211.039 168.45 211.039 169.198 210.971 169.879C210.721 172.192 209.746 174.324 208.77 176.388C207.771 178.474 207.136 180.606 206.319 182.738C205.638 182.194 204.731 181.423 204.231 180.674Z" fill="#FCA57E"/>
<path d="M214.263 153.05C215.784 151.576 217.327 152.46 218.076 154.434C218.234 154.819 218.348 155.25 218.416 155.658C218.892 158.085 216.85 160.466 215.738 162.508C214.581 164.617 210.882 168.745 209.43 170.695C209.157 171.058 208.477 168.495 205.98 169.743C205.98 168.903 206.23 168.903 206.525 167.951C207.841 163.324 210.7 156.543 214.263 153.05Z" fill="#3854D9"/>
<g opacity="0.6">
<path opacity="0.6" d="M212.104 163.006C212.875 165.637 213.737 165.796 214.736 167.928C217.187 173.212 216.324 174.868 216.165 176.682C214.94 180.855 214.781 181.762 214.622 183.01C214.895 182.851 223.858 182.783 225.991 178.247L224.766 174.754C226.173 172.509 226.99 169.878 227.058 167.225C227.081 166.658 228.556 157.676 228.147 157.291C227.466 156.633 226.672 165.909 220.409 165.41C219.501 165.342 217.255 164.48 216.46 164.072C215.258 163.482 212.966 165.433 212.104 163.006Z" fill="#F87070"/>
</g>
<path d="M234.546 158.175C234.569 154.66 232.663 152.936 229.667 151.983C227.148 151.19 221.997 150.713 219.592 150.713C217.3 150.781 214.781 152.051 214.1 154.229C213.056 157.585 211.944 159.672 211.967 161.6C212.035 164.548 213.193 165.07 214.645 167.95C216.733 172.123 217.005 174.777 215.484 179.199C215.099 180.628 214.894 181.581 214.645 183.032C218.003 183.554 226.536 184.416 233.865 181.581C232.595 177.997 230.802 176.886 230.87 174.278C230.915 168.767 234.523 163.187 234.546 158.175Z" fill="#516DF2"/>
<path d="M231.348 165.388C230.509 164.617 230.032 161.601 230.486 158.924C230.985 155.976 232.46 153.413 232.687 153.549C235.682 155.545 236.386 156.543 238.247 158.425C240.176 160.398 240.675 160.897 242.309 163.097C242.626 163.506 243.648 165.025 244.124 164.889C245.191 164.594 246.756 164.481 248.526 164.481C247.914 166.273 247.891 168.2 248.504 169.992C246.03 170.332 243.965 170.536 242.989 170.446C241.855 170.332 240.221 170.31 239.154 169.856C235.524 168.336 233.595 167.429 231.348 165.388Z" fill="#3854D9"/>
<path d="M212.694 206.937L212.671 206.529C212.648 206.665 212.648 206.801 212.694 206.937Z" fill="#FDB9B1"/>
<path d="M198.875 195.098C199.102 195.325 199.443 195.37 199.783 195.393C200.986 195.438 202.052 194.871 202.915 194.191C203.573 193.647 203.527 193.102 203.55 192.399C203.55 192.263 203.55 192.104 203.573 191.946C203.618 191.311 203.981 190.471 204.163 189.836C204.526 188.657 204.662 187.886 204.73 186.548C204.753 186.117 206.523 186.639 207.067 186.593C208.701 186.502 210.607 185.754 210.902 184.166C210.948 183.962 210.948 183.713 210.925 183.441C210.834 181.49 209.132 180.832 207.158 180.923C204.866 181.037 202.234 182.148 201.326 183.418C199.715 185.709 200.623 188.929 200.396 191.469C200.396 191.583 200.373 191.673 200.373 191.787C200.328 191.946 200.237 192.104 200.123 192.263C199.897 192.603 199.602 192.966 199.375 193.238C198.898 193.783 198.285 194.554 198.875 195.098Z" fill="#796B6A"/>
<path d="M199.353 193.216C199.648 192.831 200.124 192.309 200.306 191.855C202.121 191.946 201.282 193.783 203.528 192.128C203.505 192.944 203.642 193.579 202.893 194.169C202.03 194.849 200.964 195.416 199.761 195.371C199.444 195.371 199.08 195.303 198.854 195.076C198.286 194.554 198.899 193.783 199.353 193.216Z" fill="#F2F2F2"/>
<path d="M207.228 184.802C208.067 185.573 208.498 185.823 209.179 186.118C209.474 186.254 209.837 186.39 210.314 186.594C211.403 187.047 212.424 187.093 213.332 186.866C215.533 186.299 217.076 184.099 217.212 182.103C217.643 175.866 218.256 175.594 217.644 172.873C217.417 171.807 217.167 170.99 216.895 170.31C216.736 169.924 216.577 169.584 216.418 169.289C215.51 167.747 214.421 167.588 212.855 167.112C211.358 166.658 207.659 169.471 207.432 171.172C207.409 171.33 207.386 171.466 207.364 171.602C206.66 176.343 205.503 175.73 205.526 179.676C205.526 180.425 205.639 181.287 205.843 182.126C206.116 183.192 206.547 184.167 207.228 184.802Z" fill="#01BBCA"/>
<path d="M207.931 197.774C208.226 197.91 208.589 197.888 208.93 197.797C210.132 197.479 211.04 196.572 211.698 195.642C212.197 194.916 211.993 194.372 211.789 193.669C211.744 193.533 211.698 193.374 211.675 193.215C211.539 192.58 211.63 191.605 211.63 190.925C211.653 189.632 211.539 188.816 211.199 187.455C211.085 187.024 213.037 187.001 213.559 186.797C215.17 186.207 216.849 184.869 216.668 183.191C216.645 182.964 216.577 182.715 216.486 182.443C215.806 180.515 213.899 180.356 211.948 181.036C209.679 181.83 207.364 183.735 206.842 185.3C205.912 188.09 207.795 191.038 208.34 193.669C208.362 193.782 208.385 193.873 208.408 193.987C208.408 194.168 208.362 194.349 208.317 194.554C208.204 194.962 207.999 195.415 207.863 195.756C207.568 196.436 207.182 197.411 207.931 197.774Z" fill="#796B6A"/>
<path d="M207.862 195.757C208.044 195.281 208.361 194.623 208.407 194.124C210.245 193.67 209.972 195.757 211.72 193.421C211.947 194.26 212.264 194.827 211.697 195.666C211.039 196.619 210.154 197.503 208.929 197.821C208.611 197.912 208.225 197.957 207.93 197.798C207.181 197.413 207.567 196.437 207.862 195.757Z" fill="#F2F2F2"/>
<path d="M210.041 170.173C209.724 170.128 209.406 169.81 209.111 169.606C206.91 168.064 206.547 165.66 207.818 164.322C208.067 164.072 207.591 163.664 207.772 162.122C208.135 158.765 210.836 158.108 214.081 158.947C217.734 159.877 217.19 163.8 216.827 165.728C216.781 165.955 216.804 169.311 211.834 170.037C211.539 170.083 210.382 170.219 210.041 170.173Z" fill="#F9B393"/>
<path d="M218.71 159.605C218.642 159.287 218.393 159.038 218.098 158.947C218.098 158.856 218.098 158.766 218.075 158.675C217.984 158.244 217.576 157.949 217.144 157.972C217.144 157.972 217.144 157.972 217.144 157.949C217.031 157.45 216.532 157.155 216.055 157.269C215.987 157.292 215.942 157.292 215.896 157.337C215.896 157.269 215.896 157.223 215.874 157.155C215.76 156.656 215.261 156.362 214.784 156.475C214.58 156.52 214.399 156.634 214.285 156.793C214.126 156.362 213.673 156.112 213.219 156.226C212.969 156.294 212.765 156.43 212.651 156.634C212.424 156.407 212.107 156.316 211.789 156.384C211.585 156.43 211.403 156.566 211.267 156.725C211.086 156.634 210.881 156.611 210.654 156.656C210.314 156.747 210.064 156.997 209.974 157.337C209.769 157.178 209.474 157.087 209.202 157.155C208.726 157.269 208.431 157.722 208.499 158.176C208.362 158.153 208.249 158.153 208.113 158.176C207.614 158.289 207.319 158.788 207.432 159.265C207.478 159.423 207.568 159.582 207.659 159.696C207.296 159.877 207.092 160.285 207.205 160.716C207.319 161.215 207.818 161.51 208.294 161.397C208.499 161.351 208.658 161.238 208.771 161.102C208.975 161.442 209.361 161.646 209.769 161.555C209.996 161.51 210.155 161.374 210.291 161.215C210.496 161.555 210.881 161.737 211.29 161.646C211.449 161.623 211.562 161.533 211.676 161.442C211.903 161.669 212.22 161.782 212.561 161.714C212.719 161.669 212.856 161.601 212.946 161.51C213.083 161.986 213.559 162.281 214.036 162.168C214.263 162.122 214.444 161.986 214.58 161.805L214.603 161.827C214.399 162.213 214.512 162.689 214.853 162.961C214.989 163.075 215.148 163.143 215.329 163.143C215.352 163.188 215.374 163.234 215.42 163.302C215.352 163.506 215.352 163.71 215.443 163.914C215.533 164.164 215.738 164.345 215.964 164.413C215.806 164.617 215.738 164.912 215.851 165.184C216.01 165.57 216.464 165.774 216.849 165.615C217.054 165.524 217.19 165.388 217.281 165.184C217.417 165.229 217.576 165.229 217.757 165.207C218.256 165.093 218.551 164.594 218.438 164.118C218.415 163.982 218.347 163.846 218.256 163.755C218.665 163.597 218.892 163.143 218.801 162.712C218.733 162.463 218.574 162.258 218.37 162.122C218.778 161.964 219.005 161.51 218.914 161.079C218.869 160.83 218.71 160.625 218.506 160.512C218.688 160.263 218.801 159.945 218.71 159.605Z" fill="#AE5E0E"/>
<path d="M211.083 167.951C211.152 168.722 210.675 169.402 209.994 169.47C209.313 169.538 208.701 168.971 208.61 168.2C208.542 167.429 209.018 166.749 209.699 166.681C210.38 166.613 210.993 167.18 211.083 167.951Z" fill="#F07957"/>
<path d="M210.156 167.974C210.246 168.337 210.088 168.654 209.815 168.722C209.543 168.79 209.248 168.541 209.18 168.201C209.089 167.838 209.248 167.52 209.52 167.452C209.793 167.384 210.088 167.634 210.156 167.974Z" fill="#B45B41"/>
<path d="M208.769 169.334C208.565 169.334 208.338 169.266 208.157 169.153C207.907 168.994 207.726 168.745 207.658 168.427C207.59 168.132 207.635 167.815 207.794 167.565C207.953 167.316 208.202 167.134 208.52 167.066C209.133 166.93 209.745 167.316 209.904 167.928C210.04 168.541 209.654 169.153 209.042 169.312C208.951 169.334 208.86 169.334 208.769 169.334ZM208.769 167.565C208.724 167.565 208.679 167.565 208.633 167.588C208.475 167.633 208.338 167.724 208.248 167.86C208.157 167.996 208.134 168.178 208.157 168.336C208.202 168.495 208.293 168.631 208.429 168.722C208.565 168.813 208.747 168.835 208.906 168.813C209.246 168.745 209.45 168.404 209.382 168.064C209.314 167.747 209.064 167.565 208.769 167.565Z" fill="#B66D58"/>
<path d="M216.054 166.069C216.69 164.572 219.186 164.935 217.484 167.044C217.302 167.271 216.486 167.475 216.259 167.316C216.1 167.226 215.986 166.931 215.986 166.749L216.054 166.069Z" fill="#FFC794"/>
<path d="M216.78 165.705C216.44 166.023 216.303 166.817 216.485 166.635C216.53 166.59 216.893 165.524 217.302 165.819C217.415 165.683 217.143 165.388 216.78 165.705Z" fill="#C68D7D"/>
<path d="M210.266 182.058C210.243 182.035 210.243 182.035 210.22 182.012C209.607 182.829 209.358 182.579 208.359 183.418C208.518 183.917 209.267 183.35 209.494 183.6C209.607 183.736 209.676 184.031 209.607 184.348C209.517 184.802 209.086 185.868 209.176 185.959C209.312 186.117 209.562 185.777 209.948 185.255C209.993 185.573 209.63 186.412 209.925 186.48C210.084 186.526 210.606 185.437 210.651 185.187C210.765 185.323 210.515 186.208 210.719 186.253C210.856 186.276 211.173 185.505 211.173 185.301C211.332 185.369 211.196 185.913 211.355 185.981C211.627 186.072 211.718 184.326 212.331 183.464C211.514 183.305 210.856 182.67 210.266 182.058Z" fill="#FCA57E"/>
<path d="M214.669 169.879C213.376 170.196 213.217 172.374 213.171 173.417C213.126 174.573 213.852 176.796 213.126 177.703C212.581 178.361 210.925 181.037 210.539 181.627C210.426 181.786 210.335 181.922 210.244 182.035C210.267 182.058 210.267 182.058 210.29 182.081C210.88 182.693 211.538 183.328 212.332 183.487C212.377 183.419 212.423 183.351 212.468 183.328C214.488 181.967 215.69 180.947 216.553 178.815C216.87 178.021 217.506 175.481 217.597 174.619C217.937 171.103 216.848 169.334 214.669 169.879Z" fill="#5FE5F1"/>
<path d="M205.185 173.757C206.774 172.623 209.179 175.004 209.679 175.027C209.747 175.957 208.294 175.571 207.954 175.367C207.273 174.936 206.638 175.027 206.706 175.39C206.865 176.161 206.683 176.297 207.182 176.886C207.682 177.476 208.294 177.998 208.635 178.701C208.794 179.018 208.794 179.563 208.43 179.585C208.294 179.585 208.158 179.495 208.067 179.404C207.273 178.746 206.751 178.587 206.093 177.771C207.387 180.334 207.409 179.721 208.34 181.332C208.135 181.559 207.954 181.559 207.682 181.445C207.409 181.309 206.887 180.901 206.683 180.651C206.161 180.062 205.934 179.653 205.412 179.064C205.889 180.629 206.479 180.742 207.023 181.581C207.114 181.717 207.205 181.944 207.069 182.035C206.933 182.148 206.615 181.967 206.456 181.876C205.639 181.468 205.231 180.992 204.686 179.903C205.458 181.785 205.866 182.171 205.73 182.216C205.412 182.375 205.14 182.239 204.754 181.672C203.574 179.88 203.052 178.225 203.325 176.274C203.483 174.959 203.869 174.664 205.185 173.757Z" fill="#FFC794"/>
<path d="M257.259 150.419C257.237 150.192 257.146 149.988 257.123 149.761C257.1 149.511 257.191 149.239 257.123 149.012C257.032 148.74 256.783 148.582 256.578 148.377C256.306 148.083 256.17 147.697 255.875 147.448C255.535 147.153 255.035 147.085 254.65 147.266C254.128 147.516 253.878 148.083 253.492 148.491C253.107 148.922 252.108 149.421 253.583 151.53C254.15 152.346 254.559 151.757 255.058 151.847C256.692 152.142 257.327 151.099 257.259 150.419Z" fill="#46251A"/>
<path d="M240.806 148.399C240.965 148.558 241.078 148.762 241.169 148.966C241.237 149.125 241.282 149.329 241.418 149.442C241.577 149.578 241.804 149.578 242.008 149.51C242.213 149.442 242.372 149.329 242.553 149.216C243.325 148.785 243.801 148.785 243.869 147.877C243.915 147.333 244.005 146.449 242.939 146.086C242.508 145.927 241.759 145.927 241.6 145.972C241.396 146.04 240.851 146.653 240.715 147.152C240.511 148.036 240.42 147.991 240.806 148.399Z" fill="#46251A"/>
<path d="M240.444 163.959C237.222 168.54 235.429 170.649 235.792 175.775C238.652 174.777 238.742 178.905 242.146 170.468C242.668 169.198 243.167 167.928 243.281 166.589C243.394 165.365 243.19 163.845 242.26 162.893C241.556 163.142 240.876 163.346 240.444 163.959Z" fill="#DBF3FF"/>
<path d="M253.742 156.11C254.899 154.386 254.786 150.168 254.695 150.304C253.833 151.415 253.81 152.799 253.628 152.844C253.492 152.89 253.379 152.98 253.288 153.071C252.63 153.819 252.29 154.704 251.949 155.566C251.609 156.45 250.905 157.539 250.52 158.401C251.427 158.31 252.97 157.267 253.742 156.11Z" fill="#46251A"/>
<path d="M247.979 225.851C247.502 226.985 249.499 226.985 250.361 226.985C250.951 226.985 252.268 226.803 253.47 226.236C254.265 225.851 255.24 226.123 255.263 225.533C255.263 225.08 255.263 224.808 254.446 224.808C252.676 224.808 250.679 225.42 249.567 225.42C249.181 225.42 248.864 225.556 248.274 225.556C248.183 225.533 247.979 225.692 247.979 225.851Z" fill="#1F3BC0"/>
<path d="M257.032 212.198C256.828 213.582 256.351 215.101 255.875 216.644C255.33 218.413 254.808 220.204 254.763 221.747C254.763 222.041 254.899 222.45 255.058 222.881C255.194 223.311 255.33 223.788 255.308 224.241C255.285 224.513 255.194 224.808 255.013 225.058C254.037 225.625 254.309 224.967 252.584 225.806C251.563 226.283 250.315 226.441 248.454 226.124C247.887 225.897 247.433 225.194 248.341 224.672C248.772 224.423 249.044 224.241 249.271 224.06C249.498 223.878 249.657 223.72 249.907 223.516C249.998 223.448 250.088 223.357 250.202 223.266C250.792 222.767 251.2 222.291 251.45 221.724C252.426 219.637 251.064 217.052 250.928 208.751C250.905 207.095 250.451 205.236 249.544 203.784C249.113 203.081 248.477 202.242 248.069 201.471C248.001 201.357 247.955 201.221 247.887 201.108C247.32 199.838 247.32 198.704 246.821 197.434C246.821 197.411 246.798 197.388 246.798 197.366C246.004 195.392 245.346 193.419 245.051 191.31C245.028 191.083 244.983 190.879 244.96 190.652C244.824 189.609 244.688 188.566 244.688 187.523C244.688 185.867 245.55 183.644 248.228 183.123C250.769 182.646 251.926 184.71 252.335 186.116C252.721 187.432 253.016 188.702 253.22 189.972C253.583 192.172 253.742 194.372 253.81 196.753C253.81 196.867 253.81 196.957 253.81 197.071C253.81 197.252 253.833 197.434 253.833 197.615C253.946 199.316 254.4 200.926 254.808 202.106C255.126 203.013 255.421 203.693 255.512 203.965C256.601 206.8 257.486 209.159 257.032 212.198Z" fill="#FFC794"/>
<path d="M249.612 223.605C249.385 223.787 248.795 224.445 248.364 224.694C247.456 225.216 247.91 225.919 248.477 226.146C250.315 226.463 251.563 226.304 252.607 225.828C254.332 225.012 254.059 225.647 255.035 225.08C255.217 224.83 255.307 224.535 255.33 224.263C255.353 223.81 255.217 223.333 255.081 222.902C255.126 223.22 254.944 223.583 254.831 223.719C254.468 224.082 253.832 224.49 252.811 224.83C252.13 225.034 250.928 223.106 249.612 223.605Z" fill="#F49402"/>
<path d="M244.439 220.703C244.371 221.292 244.939 222.313 244.825 223.22C244.78 223.492 244.689 223.764 244.485 224.014C241.875 224.785 242.306 223.424 240.514 224.15C239.47 224.581 239.22 225.057 236.338 224.694C236.134 223.923 236.293 223.674 237.246 223.197C238.358 222.63 239.107 222.449 239.81 221.927C240.423 221.474 240.854 220.998 241.149 220.476C242.238 218.457 241.149 215.396 241.512 207.117C241.58 205.462 241.331 203.897 240.854 202.355C240.65 201.652 240.173 200.835 239.833 200.087C239.742 199.883 239.651 199.678 239.583 199.497C239.243 198.59 238.834 197.841 238.471 197.048C238.312 196.707 238.176 196.344 238.04 195.959C237.359 193.918 236.837 191.877 236.656 189.745C236.633 189.518 236.61 189.314 236.61 189.087C236.52 188.044 236.474 187 236.542 185.957C236.656 184.301 237.632 182.124 240.332 181.784C242.896 181.444 243.94 183.598 244.258 185.027C244.553 186.365 244.757 187.658 244.893 188.928C245.143 191.264 245.143 193.555 245.052 196.05V196.072C245.052 196.095 245.075 196.118 245.12 196.14C245.256 196.186 245.597 196.095 245.597 196.254C245.597 196.412 245.597 196.594 245.597 196.753C245.619 197.841 245.71 198.839 245.824 199.678C245.982 201.039 246.209 202.037 246.323 202.4C247.185 205.28 247.684 207.798 247.049 210.792C246.731 212.107 244.576 219.138 244.439 220.703Z" fill="#FFC794"/>
<path d="M254.834 202.105C254.948 202.446 255.311 203.375 255.47 203.761C255.583 204.056 254.743 201.901 251.998 202.264C251.498 202.332 249.229 202.582 248.707 201.992C248.526 201.788 248.253 201.697 248.094 201.47C248.026 201.357 247.981 201.221 247.913 201.107C247.346 199.837 247.346 198.703 246.846 197.433C246.846 197.411 246.824 197.388 246.824 197.365C246.801 196.912 246.824 196.458 247.005 196.095C247.209 195.664 247.731 195.506 248.185 195.347C248.957 195.097 249.774 195.007 250.568 195.075C251.249 195.12 251.952 195.279 252.565 195.619C253.064 195.891 253.495 196.299 253.858 196.73C253.858 196.844 253.858 196.934 253.858 197.048C253.858 197.229 253.881 197.411 253.881 197.592C253.972 199.338 254.426 200.926 254.834 202.105Z" fill="#FDB9B1"/>
<path d="M247.864 200.245C247.547 200.427 247.138 200.472 246.753 200.495C246.253 200.517 245.709 200.54 245.255 200.313C244.869 200.109 244.574 199.746 244.143 199.656C243.394 199.474 242.713 200.177 241.964 200.245C241.942 200.245 241.896 200.245 241.874 200.245C241.783 200.041 241.715 199.837 241.669 199.633C241.397 198.68 241.057 197.932 240.762 197.093C241.216 196.617 241.76 196.163 242.146 195.868C242.532 195.573 242.94 195.324 243.417 195.188C243.893 195.052 244.393 195.074 244.892 195.165C245.845 195.346 246.73 195.845 247.365 196.548C247.388 196.571 247.388 196.594 247.411 196.594C247.433 196.617 247.456 196.639 247.456 196.662C247.615 196.866 247.774 197.07 247.887 197.297C247.819 198.408 247.819 199.406 247.864 200.245Z" fill="#FDB9B1"/>
<path d="M241.307 167.337L251.291 167.814C251.291 167.814 250.316 175.842 251.745 177.521C252.676 178.632 255.081 179.562 256.624 180.083C255.83 177.067 254.922 174.776 253.901 174.164C253.81 172.213 258.621 165.16 254.559 163.232C251.677 161.781 250.429 160.987 247.161 161.236C245.301 161.372 244.257 161.486 243.122 162.098C241.647 162.892 241.579 164.525 241.352 165.795C240.944 168.244 240.081 170.308 240.081 173.007C239.537 173.302 238.924 174.663 238.334 176.636C239.219 176.273 240.036 175.865 240.308 175.57C241.012 174.822 241.307 167.337 241.307 167.337Z" fill="#C6E9F7"/>
<path d="M256.602 180.083C255.058 179.561 252.653 178.632 251.723 177.52C250.316 175.819 251.269 167.813 251.269 167.813L241.284 167.337C241.284 167.337 240.989 174.821 240.263 175.592C239.991 175.887 239.174 176.273 238.289 176.658C236.269 183.258 234.295 196.707 234.522 200.132C246.73 205.893 259.733 201.402 260.073 200.971C259.778 198.658 258.53 187.318 256.602 180.083Z" fill="#FE6B61"/>
<path d="M249.433 197.637L243.646 196.707C242.126 196.457 241.082 195.028 241.332 193.509L241.831 190.379C242.081 188.859 243.51 187.816 245.031 188.066L250.817 188.996C252.338 189.245 253.382 190.674 253.132 192.193L252.633 195.323C252.383 196.843 250.953 197.886 249.433 197.637Z" fill="#516DF2"/>
<path d="M251.568 193.214L243.036 191.853C242.287 191.74 241.765 191.014 241.879 190.266L242.083 189.018C242.196 188.27 242.923 187.748 243.671 187.862L252.204 189.222C252.953 189.336 253.475 190.062 253.361 190.81L253.157 192.057C253.043 192.829 252.317 193.35 251.568 193.214Z" fill="#3854D9"/>
<path d="M244.575 224.446C244.439 224.559 244.28 224.559 244.098 224.559C243.554 224.559 243.009 224.468 242.464 224.446C241.557 224.423 240.672 224.672 239.809 224.922C239.583 224.99 239.333 225.081 239.106 225.126C238.334 225.308 237.518 225.262 236.791 225.013C236.428 224.877 236.042 224.672 235.884 224.31C235.838 224.219 235.838 224.105 235.884 224.037C235.952 223.947 236.088 223.947 236.201 223.947C236.61 223.969 236.996 224.037 237.404 224.037C238.108 224.037 238.811 223.811 239.469 223.561C240.127 223.312 240.785 223.04 241.489 222.881C242.192 222.722 242.941 222.699 243.576 222.994C243.803 223.085 243.985 223.198 244.212 223.312C244.325 223.357 244.552 223.357 244.666 223.448C244.893 223.629 244.779 224.287 244.575 224.446Z" fill="#1F3BC0"/>
<path d="M238.881 222.245C237.497 223.13 237.633 223.039 236.181 223.447C235.999 223.493 235.954 223.833 235.908 223.992C237.678 225.239 240.038 224.014 241.581 223.765C242.239 223.651 242.897 223.855 243.556 223.81C244.123 223.765 244.645 223.946 244.849 223.425C244.985 223.062 244.872 221.202 244.667 221.565C243.896 222.948 242.171 222.608 240.583 223.107C239.721 223.356 239.017 222.154 238.881 222.245Z" fill="#F49402"/>
<path d="M253.243 190.516C253.22 190.516 253.198 190.516 253.152 190.516C252.88 190.47 252.676 190.198 252.721 189.926L256.08 168.335C256.125 168.063 256.397 167.858 256.67 167.904C256.942 167.949 257.146 168.221 257.101 168.493L253.742 190.085C253.72 190.334 253.493 190.516 253.243 190.516Z" fill="#3854D9"/>
<path d="M245.87 161.894C245.825 162.053 244.963 163.935 247.504 163.754C250.136 163.55 251.021 162.166 251.044 161.826C251.067 161.599 250.046 161.486 250.976 156.587C250.227 156.927 248.775 157.857 248.003 158.106C247.391 158.311 246.528 158.56 245.984 158.878C245.371 159.263 246.37 159.785 245.87 161.894Z" fill="#FCA57E"/>
<path d="M252.972 149.284C251.792 147.719 252.042 147.696 250.227 147.084C248.683 146.562 247.095 145.02 244.553 147.152C243.033 148.422 242.239 149.533 242.193 151.869C242.193 152.345 242.307 152.504 242.239 153.298C242.148 154.364 241.898 154.387 241.898 155.339C241.898 158.65 244.1 160.442 245.325 160.51C248.388 160.692 250.612 159.036 251.429 156.768C251.838 155.679 255.854 153.094 252.972 149.284Z" fill="#F9B393"/>
<path d="M251.338 155.476C252.314 153.571 255.241 153.82 252.496 156.973C252.246 157.267 251.747 157.335 251.452 157.109C251.27 156.973 251.134 156.564 251.157 156.338L251.338 155.476Z" fill="#FFC794"/>
<path d="M247.365 145.36C246.207 145.972 245.254 146.993 244.732 148.218C249.157 151.302 252.176 154.341 251.767 155.475C253.151 154.908 254.082 153.547 254.399 152.096C254.694 150.644 254.899 149.556 254.377 148.172C254.104 147.447 253.288 146.313 252.743 145.791C251.994 145.065 250.927 144.748 249.906 144.612C247.546 144.294 246.866 145.519 246.888 146.245L247.365 145.36Z" fill="#46251A"/>
<path d="M244.758 148.195C243.782 148.512 242.307 150.372 242.262 152.957C242.217 150.825 241.899 148.308 244.236 146.153C245.394 145.087 246.619 144.997 246.891 145.223C247.391 145.609 245.916 146.562 244.758 148.195Z" fill="#46251A"/>
<path d="M245.278 161.349C244.529 164.139 244.053 166.248 243.622 169.4H241.738C242.056 166.361 242.555 164.048 243.554 161.825L245.278 161.349Z" fill="#E55248"/>
<path d="M251.288 161.758C249.768 164.389 249.064 166.521 248.111 169.832L250.267 169.968C250.993 167.292 251.742 165.296 253.24 162.597L251.288 161.758Z" fill="#E55248"/>
<path d="M243.375 189.632C243.102 189.632 242.898 189.428 242.853 189.156C242.853 189.088 242.195 182.737 241.9 176.228C241.287 162.801 242.717 161.781 243.261 161.395C243.488 161.237 243.829 161.282 243.987 161.531C244.146 161.758 244.101 162.098 243.851 162.257C243.488 162.507 242.376 164.253 242.921 176.183C243.216 182.669 243.874 188.997 243.874 189.042C243.897 189.337 243.692 189.586 243.42 189.609C243.397 189.632 243.375 189.632 243.375 189.632Z" fill="#3854D9"/>
<path d="M258.009 175.434C258.122 174.05 257.759 171.42 257.169 166.611C257.055 165.704 255.853 163.618 254.764 163.55C254.332 163.527 253.879 163.55 253.493 163.686C252.653 163.958 251.995 164.706 251.995 166.339C252.063 166.816 253.039 174.867 253.13 175.525C253.175 175.888 253.22 176.341 253.289 176.817C253.243 176.885 252.63 178.586 251.904 180.514C253.266 180.877 254.287 181.875 254.9 183.1C255.966 181.399 257.895 177.498 258.054 176.931C258.167 176.613 257.963 175.933 258.009 175.434Z" fill="#DBF3FF"/>
<path d="M254.901 183.122C254.288 181.92 253.267 180.899 251.905 180.537C251.406 181.875 250.862 183.304 250.43 184.438C250.113 185.163 249.84 185.73 249.704 186.002C249.455 186.456 248.887 186.093 248.093 186.864C247.866 187.091 246.8 188.407 246.936 188.679C247.253 189.223 248.07 188.066 248.365 187.976C248.865 187.817 248.638 188.452 248.547 188.747C248.343 189.473 248.048 190.198 247.685 190.856C247.571 191.037 247.48 191.31 247.639 191.446C247.798 191.604 248.07 191.468 248.229 191.31C248.774 190.765 249.024 190.017 249.273 189.314C249.092 190.062 248.819 190.765 248.456 191.446C248.411 191.514 248.388 191.582 248.388 191.672C248.411 191.786 248.547 191.854 248.66 191.854C248.774 191.854 248.887 191.763 248.955 191.695C249.069 191.604 249.772 189.949 249.84 189.835C249.84 189.858 249.205 191.446 249.205 191.468C249.182 191.582 249.228 191.718 249.341 191.763C249.455 191.809 249.568 191.763 249.659 191.695C249.818 191.559 249.931 191.355 250.022 191.173C250.249 190.72 250.408 190.244 250.544 189.745C250.408 190.312 250.272 190.879 250.158 191.423C250.135 191.536 250.113 191.672 250.204 191.74C250.272 191.786 250.362 191.763 250.43 191.74C250.635 191.65 250.748 191.4 250.839 191.196C251.066 190.629 251.225 190.017 251.293 189.404C251.293 189.404 251.86 187.817 251.883 187.341C251.928 186.91 253.222 185.798 254.901 183.122Z" fill="#FFC794"/>
<path d="M235.429 173.619C234.567 175.615 234.975 176.93 235.701 177.52C235.996 177.77 236.155 178.132 237.063 177.747C237.88 177.407 238.47 176.908 238.924 176.295C237.426 176.001 236.201 174.889 235.429 173.619Z" fill="#DBF3FF"/>
<path d="M241.806 164.389C239.605 164.751 240.059 167.972 238.788 169.129C237.154 170.603 236.065 172.19 235.43 173.619C235.952 175.842 237.245 176.477 238.924 176.318C240.263 174.504 240.241 171.76 240.785 169.741C240.785 169.696 241.171 169.401 241.239 169.31C242.056 168.199 241.262 167.541 241.534 167.087C241.625 166.951 241.806 166.906 241.988 166.906C242.192 166.906 242.532 167.019 242.623 166.974C242.85 166.815 242.283 166.112 241.579 166.226C242.033 166.067 242.532 166.475 242.986 166.362C243.168 166.316 243.349 166.112 243.236 165.954C243.145 165.817 242.691 165.749 241.67 165.545C242.941 165.681 243.054 165.727 243.168 165.681C243.508 165.568 243.236 165.114 242.464 165.046C242.169 165.024 241.874 165.046 241.602 164.956C242.442 164.774 242.873 165.296 243.077 164.933C243.349 164.457 242.033 164.343 241.806 164.389Z" fill="#FFC794"/>
<path d="M256.106 162.258C254.222 161.51 252.271 161.986 251.703 161.986C251.59 163.006 253.11 162.938 253.519 163.029C254.699 163.324 254.767 163.142 254.676 163.551C254.472 164.39 254.721 164.299 254.131 164.934C253.541 165.569 252.861 166.114 252.429 166.862C252.225 167.202 252.225 167.815 252.634 167.837C252.793 167.837 252.929 167.746 253.042 167.656C253.95 166.975 254.517 166.794 255.289 165.955C253.746 168.722 252.316 169.107 252.656 169.765C252.861 170.037 253.065 170.037 253.383 169.924C253.7 169.788 254.29 169.357 254.517 169.107C255.13 168.472 255.379 168.041 255.992 167.406C255.379 169.107 254.744 169.198 254.109 170.105C253.995 170.264 253.904 170.491 254.041 170.604C254.199 170.74 254.54 170.536 254.721 170.468C255.652 170.037 256.106 169.538 256.764 168.382C255.833 170.423 255.425 170.287 255.516 170.876C255.856 171.058 256.174 170.922 256.605 170.332C257.989 168.404 258.965 166.091 257.944 164.163C257.376 163.052 256.991 162.621 256.106 162.258Z" fill="#FFC794"/>
<path d="M226.56 150.26C226.651 151.258 227.695 151.417 227.627 151.87C227.468 152.777 225.517 153.889 224.586 154.206C222.725 154.864 222.498 154.819 220.615 154.864C218.936 154.909 218.641 152.619 220.184 151.122C221.023 150.283 220.683 149.784 220.797 148.672C220.955 147.175 220.275 142.027 222.703 142.345C224.337 142.549 226.265 144.136 226.152 144.976C225.97 146.495 226.424 148.74 226.56 150.26Z" fill="#FCA57E"/>
<path d="M232.347 141.438C232.279 141.823 232.143 142.164 231.961 142.458C231.394 143.298 231.281 144.001 231.281 144.001C231.735 146.813 229.965 148.174 228.149 150.374C227.559 151.099 225.585 150.306 225.381 150.17C222.771 148.537 222.09 147.267 221.863 147.017C221.319 146.405 221.5 145.838 221.455 144.999C221.409 144.432 221.319 143.411 221.183 142.821C221.046 142.232 219.98 139.85 220.161 139.238C220.524 137.991 220.91 137.038 221.931 136.267C222.975 135.473 223.928 134.838 225.494 134.747C226.878 134.679 229.601 135.586 230.101 135.995C230.555 136.335 231.213 137.174 231.666 137.832C231.825 138.059 231.961 138.263 232.052 138.421C232.393 138.92 232.574 140.327 232.347 141.438Z" fill="#F9B393"/>
<path d="M232.346 141.438C231.778 139.896 228.216 136.154 225.719 139.76C225.561 139.986 225.243 132.434 231.642 137.809C231.801 138.036 231.937 138.24 232.028 138.399C232.391 138.92 232.572 140.327 232.346 141.438Z" fill="#FCA57E"/>
<path d="M222.791 142.027C222.246 142.458 221.928 143.184 221.974 143.887C221.996 144.409 222.223 144.93 222.201 145.452C222.155 145.951 221.906 146.404 221.656 146.858C221.384 147.38 221.134 147.947 220.93 148.491C220.521 148.536 220.113 148.287 219.909 147.924C219.682 147.584 219.614 147.153 219.545 146.745C219.364 145.452 219.341 144.046 219.999 142.912C220.635 141.846 221.792 141.211 222.927 140.666C223.267 140.508 224.266 140.19 224.129 140.916C224.039 141.506 223.176 141.732 222.791 142.027Z" fill="#FCA57E"/>
<path d="M224.946 132.82C225.945 133.84 227.874 134.997 227.579 136.403C227.284 137.809 225.468 140.304 224.379 141.257C223.744 141.801 222.359 141.415 221.815 142.073C221.293 142.731 220.975 143.638 221.293 144.409C221.406 144.704 221.611 144.953 221.656 145.248C221.815 146.405 220.362 147.698 220.748 148.696C221.542 150.691 219.818 151.508 218.57 150.397C217.481 149.444 215.416 147.766 216.028 146.291C216.187 145.883 216.459 145.52 216.459 145.089C216.437 144.727 216.232 144.409 216.051 144.092C215.075 142.3 215.506 139.85 217.027 138.49C217.617 137.968 217.707 137.015 218.207 136.426C219.092 135.428 220.158 133.681 222.314 132.82C223.426 132.343 224.946 132.82 224.946 132.82Z" fill="#63322B"/>
<path d="M229.442 138.081C230.055 138.535 230.735 138.898 231.325 139.374C233.141 140.848 232.346 142.118 232.097 143.161C231.938 143.796 231.983 144.568 232.483 144.953C232.778 145.18 233.663 145.361 233.186 146.79C233.005 147.289 232.755 147.788 232.868 148.31C233.118 147.221 235.274 147.04 233.209 144.227C233.05 144.001 233.322 143.411 233.368 143.139C233.436 142.753 233.776 142.481 234.048 142.186C235.478 140.735 235.228 138.194 234.071 136.38C233.821 136.017 231.983 134.452 231.893 134.021C231.688 133.137 229.51 132.23 228.625 131.935C227.263 131.481 224.2 131.481 224.631 133.454C225.04 135.382 227.853 136.879 229.442 138.081Z" fill="#63322B"/>
<path d="M224.086 139.306C223.223 139.759 222.293 140.1 221.476 140.621C220.954 140.939 220.455 141.347 220.182 141.891C219.91 142.436 219.865 143.139 220.251 143.638C220.477 143.955 220.886 144.25 220.772 144.613C220.727 144.772 220.591 144.885 220.477 144.998C219.615 145.838 219.207 147.312 219.978 148.242C219.071 147.561 218.707 146.246 219.116 145.203C219.207 144.976 219.32 144.749 219.32 144.499C219.32 144.023 218.889 143.66 218.685 143.229C218.39 142.617 218.526 141.891 218.844 141.279C219.161 140.689 219.661 140.168 220.228 139.827C220.795 139.487 221.453 139.328 222.066 139.034C223.087 138.557 223.927 137.764 224.471 136.811C224.744 136.357 225.061 134.43 225.492 134.362C226.377 134.248 226.582 136.063 226.491 136.539C226.219 137.854 225.175 138.716 224.086 139.306Z" fill="#7A4039"/>
<path d="M249.318 149.33C250.521 150.147 251.497 151.326 251.792 152.755C251.928 153.435 251.905 154.138 251.883 154.819C252.518 153.14 252.45 151.19 251.633 149.58C250.839 147.969 249.341 146.722 247.616 146.2C247.321 146.11 247.026 146.042 246.731 146.11C245.824 146.268 245.166 147.312 246.073 147.856C247.14 148.446 248.32 148.65 249.318 149.33Z" fill="#63322B"/>
<path d="M242.83 149.33C243.239 148.831 243.284 148.083 243.783 147.561C243.987 147.334 245.122 146.269 245.462 146.563C246.03 147.062 244.759 147.629 244.555 147.743C243.829 148.083 243.307 148.718 242.83 149.33Z" fill="#63322B"/>
<path d="M209.839 157.993C209.998 157.835 210.248 157.767 210.475 157.812C210.566 157.585 210.702 157.381 210.906 157.268C211.11 157.154 211.405 157.154 211.564 157.336C211.7 157.109 211.973 156.996 212.222 157.064C212.472 157.132 212.676 157.358 212.676 157.631C212.517 157.494 212.313 157.449 212.109 157.494C211.904 157.54 211.746 157.676 211.678 157.857C211.564 157.676 211.314 157.653 211.133 157.744C210.951 157.835 210.838 158.016 210.747 158.198C210.543 158.13 210.18 158.107 209.998 158.22C209.839 158.311 209.726 158.492 209.703 158.628C209.567 158.424 209.681 158.152 209.839 157.993Z" fill="#CC7158"/>
<path d="M214.057 157.494C214.284 157.449 214.533 157.539 214.67 157.721C214.874 157.607 215.101 157.517 215.35 157.539C215.577 157.562 215.827 157.743 215.85 157.97C216.076 157.88 216.394 157.948 216.553 158.129C216.712 158.333 216.735 158.628 216.576 158.855C216.53 158.651 216.394 158.492 216.213 158.424C216.031 158.356 215.804 158.356 215.645 158.469C215.668 158.265 215.486 158.084 215.282 158.061C215.078 158.016 214.874 158.106 214.715 158.197C214.579 158.016 214.352 157.925 214.148 157.902C213.966 157.88 213.785 157.948 213.603 157.925C213.58 157.698 213.83 157.539 214.057 157.494Z" fill="#CC7158"/>
<path d="M215.486 159.945C215.554 159.763 215.44 159.536 215.259 159.423C215.077 159.31 214.873 159.31 214.669 159.378C214.623 159.128 214.419 158.924 214.192 158.879C213.965 158.833 213.693 158.924 213.557 159.128C213.965 159.151 214.351 159.491 214.374 159.899C214.555 159.809 214.782 159.763 214.986 159.854C215.19 159.945 215.327 160.149 215.304 160.353C215.327 160.103 216.098 160.217 216.212 160.738C216.393 160.33 215.917 159.854 215.486 159.945Z" fill="#CC7158"/>
<path d="M217.276 160.352C217.457 160.352 217.616 160.465 217.661 160.647C217.707 160.805 217.616 161.01 217.457 161.078C217.571 161.214 217.593 161.44 217.503 161.599C217.435 161.758 217.253 161.871 217.071 161.894C217.23 161.713 217.321 161.463 217.321 161.214C217.321 161.1 217.253 160.941 217.14 160.987C217.23 160.873 217.276 160.715 217.208 160.579C217.162 160.443 217.026 160.352 216.867 160.352C217.139 160.352 217.298 159.966 217.14 159.671C217.48 159.671 217.548 160.17 217.276 160.352Z" fill="#CC7158"/>
<path d="M210.584 159.808C210.448 159.581 210.176 159.468 209.926 159.559C209.676 159.627 209.518 159.876 209.518 160.126C209.563 159.967 209.745 159.922 209.903 159.922C210.198 159.922 210.471 160.08 210.63 160.307C210.607 160.239 210.675 160.148 210.766 160.103C211.015 159.99 211.265 160.012 211.515 160.08C211.31 159.808 210.879 159.423 210.584 159.808Z" fill="#CC7158"/>
<path d="M216.62 162.779C216.551 162.62 216.325 162.507 216.188 162.62C216.393 162.484 216.415 162.19 216.256 162.008C216.098 161.827 215.825 161.781 215.621 161.872C215.961 162.008 216.12 162.484 215.939 162.802C216.12 162.847 216.302 162.87 216.461 162.983C216.574 163.051 216.688 163.187 216.71 163.324C216.642 163.142 216.688 162.938 216.62 162.779Z" fill="#CC7158"/>
<path d="M295.34 121.117V158.629V165.524V219.253H348.213V165.524V158.629V121.117H295.34Z" fill="#ABDDFF"/>
<path d="M350.322 121.117H322.115V193.239H350.322V121.117Z" fill="#F7F7F7"/>
<path d="M348.123 123.339H324.092V193.398H348.123V123.339Z" fill="#ABDDFF"/>
<path d="M348.123 136.947H324.092V138.421H348.123V136.947Z" fill="white"/>
<path d="M348.167 152.506H324.566V153.98H348.167V152.506Z" fill="white"/>
<path d="M348.167 168.132H324.566V169.607H348.167V168.132Z" fill="white"/>
<path d="M346.421 130.574H336.459V136.925H346.421V130.574Z" fill="white"/>
<path d="M335.458 133.749H329.49V136.924H335.458V133.749Z" fill="#FE6B61"/>
<path d="M330.761 149.036H324.906V152.211H330.761V149.036Z" fill="#FE6B61"/>
<path d="M331.261 146.019H327.426V152.392H331.261V146.019Z" fill="white"/>
<path d="M345.374 161.76H341.607V168.133H345.374V161.76Z" fill="white"/>
<path d="M330.49 165.638H326.723V168.132H330.49V165.638Z" fill="white"/>
<path d="M344.444 146.133H337.137V152.506H344.444V146.133Z" fill="white"/>
<path d="M337.069 161.76H329.875V168.133H337.069V161.76Z" fill="#0C5A75"/>
<path d="M340.994 149.784H333.801V152.347H340.994V149.784Z" fill="#0C5A75"/>
<path d="M340.361 164.231H336.594V168.11H340.361V164.231Z" fill="white"/>
<path d="M335.071 148.65H332.008V152.529H335.071V148.65Z" fill="white"/>
<path d="M331.261 133.047H328.197V136.925H331.261V133.047Z" fill="white"/>
<path d="M343.4 174.278H339.52V193.579H343.4V174.278Z" fill="#507FCD"/>
<path d="M342.65 175.911H340.268V186.253H342.65V175.911Z" fill="#AFD1F4"/>
<path d="M340.266 175.446H342.648V174.811H340.266V175.446Z" fill="#AFD1F4"/>
<path d="M339.158 174.278H335.277V193.579H339.158V174.278Z" fill="#507FCD"/>
<path d="M338.387 175.911H336.004V186.253H338.387V175.911Z" fill="#AFD1F4"/>
<path d="M336.024 175.446H338.406V174.811H336.024V175.446Z" fill="#AFD1F4"/>
<path d="M331.263 174.076L327.213 192.948L331.007 193.762L335.057 174.889L331.263 174.076Z" fill="#507FCD"/>
<path d="M331.654 175.82L329.484 185.932L331.814 186.432L333.984 176.319L331.654 175.82Z" fill="#AFD1F4"/>
<path d="M331.75 175.375L334.08 175.875L334.213 175.254L331.884 174.754L331.75 175.375Z" fill="#AFD1F4"/>
<path d="M347.554 174.278H343.674V193.579H347.554V174.278Z" fill="#507FCD"/>
<path d="M346.807 175.911H344.424V186.253H346.807V175.911Z" fill="#AFD1F4"/>
<path d="M344.432 175.446H346.814V174.811H344.432V175.446Z" fill="#AFD1F4"/>
<g opacity="0.57">
<path opacity="0.57" d="M348.119 123.363H324.088V193.24H348.119V123.363Z" fill="#EEF2F6"/>
</g>
<g opacity="0.39">
<path opacity="0.39" d="M336.456 123.363L324.929 168.088H323.885V160.875L333.574 123.363H336.456Z" fill="white"/>
</g>
<g opacity="0.39">
<path opacity="0.39" d="M348.87 123.362L330.648 193.239H325.77L343.992 123.362H348.87Z" fill="white"/>
</g>
<path d="M321.302 121.117H292.777V193.239H321.302V121.117Z" fill="#F7F7F7"/>
<path d="M319.371 123.339H295.34V193.398H319.371V123.339Z" fill="#ABDDFF"/>
<path d="M319.371 136.947H295.34V138.421H319.371V136.947Z" fill="white"/>
<path d="M318.987 152.506H295.387V153.98H318.987V152.506Z" fill="white"/>
<path d="M318.987 168.132H295.387V169.607H318.987V168.132Z" fill="white"/>
<path d="M314.263 164.912H308.295V168.087H314.263V164.912Z" fill="#FE6B61"/>
<path d="M302.532 149.036H296.678V152.211H302.532V149.036Z" fill="#FE6B61"/>
<path d="M312.837 130.574H309.002V136.947H312.837V130.574Z" fill="white"/>
<path d="M317.146 161.76H313.379V168.133H317.146V161.76Z" fill="white"/>
<path d="M302.238 165.638H298.471V168.132H302.238V165.638Z" fill="white"/>
<path d="M315.696 146.133H308.389V152.506H315.696V146.133Z" fill="white"/>
<path d="M312.744 149.784H305.551V152.347H312.744V149.784Z" fill="#0C5A75"/>
<path d="M310.927 134.385H307.342V136.948H310.927V134.385Z" fill="#0C5A75"/>
<path d="M304.417 164.231H300.65V168.11H304.417V164.231Z" fill="white"/>
<path d="M306.321 148.65H303.258V152.529H306.321V148.65Z" fill="white"/>
<path d="M302.511 133.047H299.447V136.925H302.511V133.047Z" fill="white"/>
<path d="M315.167 174.279H311.287V193.58H315.167V174.279Z" fill="#507FCD"/>
<path d="M314.396 175.912H312.014V186.254H314.396V175.912Z" fill="#AFD1F4"/>
<path d="M312.041 175.446H314.424V174.811H312.041V175.446Z" fill="#AFD1F4"/>
<path d="M310.902 174.28H307.021V193.58H310.902V174.28Z" fill="#507FCD"/>
<path d="M310.152 175.912H307.77V186.254H310.152V175.912Z" fill="#AFD1F4"/>
<path d="M307.779 175.446H310.162V174.811H307.779V175.446Z" fill="#AFD1F4"/>
<path d="M319.32 174.279H315.439V193.58H319.32V174.279Z" fill="#507FCD"/>
<path d="M318.57 175.912H316.188V186.254H318.57V175.912Z" fill="#AFD1F4"/>
<path d="M316.178 175.446H318.561V174.811H316.178V175.446Z" fill="#AFD1F4"/>
<path d="M302.623 174.28H298.742V193.58H302.623V174.28Z" fill="#507FCD"/>
<path d="M301.873 175.912H299.49V186.254H301.873V175.912Z" fill="#AFD1F4"/>
<path d="M299.484 175.446H301.867V174.811H299.484V175.446Z" fill="#AFD1F4"/>
<path d="M306.775 174.279H302.895V193.58H306.775V174.279Z" fill="#507FCD"/>
<path d="M306.029 175.912H303.646V186.254H306.029V175.912Z" fill="#AFD1F4"/>
<path d="M303.645 175.446H306.027V174.811H303.645V175.446Z" fill="#AFD1F4"/>
<g opacity="0.57">
<path opacity="0.57" d="M319.371 123.362H295.34V193.239H319.371V123.362Z" fill="#EEF2F6"/>
</g>
<g opacity="0.39">
<path opacity="0.39" d="M307.706 123.363L296.156 168.088H295.135V160.875L304.824 123.363H307.706Z" fill="white"/>
</g>
<g opacity="0.39">
<path opacity="0.39" d="M320.118 123.363L301.896 193.24H296.994L315.216 123.363H320.118Z" fill="white"/>
</g>
<path d="M350.323 193.398H292.775V221.181H350.323V193.398Z" fill="#F7F7F7"/>
<path d="M339.499 198.818H331.92V199.794H339.499V198.818Z" fill="#F7F7F7"/>
<path d="M322.434 196.075V204.943V206.553V219.254H348.212V206.553V204.943V196.075H322.434Z" fill="#ABDDFF"/>
<path d="M324.436 197.518V205.093H325.411V197.518H324.436Z" fill="#F7F7F7"/>
<path d="M321.254 196.075V204.943V206.553V219.254H295.453V206.553V204.943V196.075H321.254Z" fill="#ABDDFF"/>
<path d="M318.285 197.516V205.091H319.261V197.516H318.285Z" fill="#F7F7F7"/>
<path d="M350.323 219.003H348.213V223.177H350.323V219.003Z" fill="#F7F7F7"/>
<path d="M294.862 219.003H292.752V223.177H294.862V219.003Z" fill="#F7F7F7"/>
</g>
</g>
<defs>
<linearGradient id="paint0_linear" x1="226.011" y1="102.031" x2="226.011" y2="43.295" gradientUnits="userSpaceOnUse">
<stop stop-color="#EEF2F6"/>
<stop offset="1" stop-color="#B7DDF2"/>
</linearGradient>
<linearGradient id="paint1_linear" x1="226.01" y1="102.068" x2="226.01" y2="43.2566" gradientUnits="userSpaceOnUse">
<stop stop-color="#EEF2F6"/>
<stop offset="1" stop-color="#B7DDF2"/>
</linearGradient>
<linearGradient id="paint2_linear" x1="139.909" y1="102.031" x2="139.909" y2="43.295" gradientUnits="userSpaceOnUse">
<stop stop-color="#EEF2F6"/>
<stop offset="1" stop-color="#B7DDF2"/>
</linearGradient>
<linearGradient id="paint3_linear" x1="139.909" y1="102.068" x2="139.909" y2="43.2571" gradientUnits="userSpaceOnUse">
<stop stop-color="#EEF2F6"/>
<stop offset="1" stop-color="#B7DDF2"/>
</linearGradient>
<linearGradient id="paint4_linear" x1="44.5713" y1="147.14" x2="44.5713" y2="116.271" gradientUnits="userSpaceOnUse">
<stop stop-color="#D5E8FA"/>
<stop offset="1" stop-color="#B7DDF2"/>
</linearGradient>
</defs>
</svg>
