<svg width="367" height="152" viewBox="0 0 367 152" fill="none" xmlns="http://www.w3.org/2000/svg">
<mask id="mask0" mask-type="alpha" maskUnits="userSpaceOnUse" x="0" y="0" width="367" height="152">
<rect width="367" height="152" fill="#C4C4C4"/>
</mask>
<g mask="url(#mask0)">
<mask id="mask1" mask-type="alpha" maskUnits="userSpaceOnUse" x="0" y="0" width="367" height="152">
<rect width="367" height="152" fill="#C4C4C4"/>
</mask>
<g mask="url(#mask1)">
<mask id="mask2" mask-type="alpha" maskUnits="userSpaceOnUse" x="21" y="8" width="346" height="144">
<rect x="21" y="8" width="346" height="143.924" fill="#E5EFFF" fill-opacity="0.91"/>
</mask>
<g mask="url(#mask2)">
<path d="M243.482 69.9259L240.025 68.9375L224.676 122.532L228.133 123.52L243.482 69.9259Z" fill="#10A0CF"/>
<path d="M248.969 74.6547C266.233 74.6547 280.228 60.6722 280.228 43.4239C280.228 26.1756 266.233 12.1931 248.969 12.1931C231.705 12.1931 217.71 26.1756 217.71 43.4239C217.71 60.6722 231.705 74.6547 248.969 74.6547Z" fill="#FF5656"/>
<path d="M259.401 69.8648C253.032 72.753 242.761 74.3028 229.811 65.4972C229.153 65.051 228.965 64.1352 229.435 63.4777C229.882 62.8202 230.798 62.6559 231.457 63.102C242.08 70.3109 252.703 71.1563 261.352 65.4972C270.847 59.2745 275.031 47.604 273.597 39.8785C271.223 29.6874 264.572 22.3376 255.359 19.6842C247.838 17.5943 239.941 19.0032 233.713 23.5587C227.908 27.8089 224.476 34.2429 224.241 41.17C224.053 47.7449 227.344 54.2494 233.078 58.5935C238.93 63.0551 246.122 64.417 252.797 62.3506C262.551 59.2275 268.544 50.0227 267.016 40.489C265.489 31.6129 256.746 24.9911 247.156 25.4137C241.257 25.8129 235.805 29.2647 232.89 34.4073C230.328 38.9158 230.164 44.0348 232.42 48.4494C234.817 53.0283 239.33 56.1749 244.524 56.8324C249.319 57.4429 253.855 55.7757 257.004 52.2769L257.028 52.2534C260.906 48.0737 261.54 41.9449 258.626 37.0137C256.393 33.5619 251.975 31.472 247.344 31.7069C244.101 32.0121 241.21 33.5384 239.424 35.9336C237.802 38.0939 237.168 40.7708 237.685 43.4947C238.202 45.9603 239.894 48.0502 242.268 49.2243C244.9 50.5158 247.909 50.5158 250.541 49.2243C252.374 48.285 253.573 46.4769 253.714 44.4105C253.855 42.3911 252.962 40.489 251.316 39.2915C249.107 38.3052 246.334 38 244.877 39.4793C244.266 40.5595 244.031 41.898 244.36 42.5554C244.43 42.6729 244.548 42.9312 245.182 42.9781C247.344 43.119 248.332 43.0016 248.825 41.851C249.131 41.0996 249.977 40.7473 250.729 41.0526C251.481 41.3579 251.834 42.2032 251.528 42.9546C250.188 46.2186 246.827 45.9838 245.018 45.8664C243.561 45.7725 242.432 45.068 241.821 43.8939C240.881 42.0623 241.469 39.5498 242.503 37.8591L242.573 37.7417L242.667 37.6477C244.806 35.2526 248.755 34.9004 252.68 36.732L252.797 36.7789L252.891 36.8494C255.429 38.634 256.816 41.5222 256.605 44.6218C256.393 47.7214 254.607 50.3984 251.857 51.8073H251.834C248.402 53.498 244.454 53.498 240.999 51.8308C237.779 50.2575 235.546 47.4397 234.841 44.0818V44.0583C234.183 40.536 234.982 37.0372 237.121 34.2194C239.424 31.1668 243.067 29.2178 247.133 28.8421H247.18C252.844 28.5603 258.32 31.1668 261.094 35.5109L261.117 35.5579C264.713 41.6162 263.937 49.1304 259.19 54.2729C255.406 58.4761 249.953 60.4955 244.195 59.7676C238.061 58.9927 232.702 55.2826 229.858 49.8348C227.132 44.481 227.32 38.3757 230.375 32.9984C233.76 27.0105 240.129 22.9951 246.992 22.5255H247.015C258.062 22.0324 268.121 29.7109 269.884 40.0194C271.482 50.0931 265.912 59.7676 256.393 64.0883C255.523 64.4874 254.607 64.8397 253.667 65.1449C246.075 67.4931 237.943 65.9433 231.316 60.9182C224.852 56.0105 221.139 48.6138 221.35 41.0996C221.585 33.2567 225.487 26.0243 231.997 21.234C238.93 16.1384 247.744 14.5651 256.135 16.8898C266.429 19.8485 273.809 27.9967 276.417 39.2445L276.441 39.315C278.298 49.2008 272.351 61.7636 262.927 67.9393C261.94 68.5733 260.765 69.2543 259.401 69.8648Z" fill="white"/>
<path d="M257.452 74.7953L239.402 79.069L226.029 67.5864L222.269 87.5694L239.567 81.5111L251.624 94.2618L257.452 74.7953Z" fill="url(#paint0_radial)"/>
<path d="M292.427 142.891L290.759 144.323L268.924 163.179L268.572 163.109C267.303 163.015 266.034 162.686 264.67 162.193C264.623 162.193 264.6 162.169 264.553 162.146C262.273 161.301 259.758 159.939 256.75 158.107C256.632 158.037 256.515 157.966 256.397 157.896C254.259 156.604 251.861 155.078 249.135 153.34C248.806 153.129 248.477 152.918 248.148 152.706C246.691 151.79 245.116 150.804 243.447 149.771C241.52 148.573 239.522 147.141 237.572 145.544C237.266 145.286 236.961 145.051 236.679 144.793C234.211 142.703 231.837 140.355 229.651 137.866C229.628 137.842 229.604 137.819 229.604 137.795C228.312 136.316 227.089 134.766 226.008 133.193C225.844 132.958 225.679 132.723 225.538 132.512C224.833 131.479 224.199 130.422 223.611 129.365L223 128.144L234.399 103.23L235.715 100.342L292.427 142.891Z" fill="#91D7E0"/>
<path d="M226.385 133.427L225.986 133.24C225.821 133.005 225.657 132.77 225.516 132.559L239.594 103.793L240.651 104.31L226.385 133.427Z" fill="#8258DF"/>
<path d="M246.236 110.778L229.561 137.83L230.561 138.446L247.237 111.393L246.236 110.778Z" fill="#8258DF"/>
<path d="M236.657 144.816L255.013 119.996L255.953 120.7L237.55 145.567L236.657 144.816Z" fill="#8258DF"/>
<path d="M249.134 153.363C248.805 153.152 248.476 152.94 248.147 152.729L265.845 128.12L266.808 128.801L249.134 153.363Z" fill="#3CB9C4"/>
<path d="M256.752 158.13L276.494 136.151L275.601 135.352L255.835 157.402L256.399 157.918L256.752 158.13Z" fill="#3CB9C4"/>
<path d="M264.667 162.216L288.687 141.176L287.911 140.308L263.868 161.371L264.55 162.169H264.573L264.667 162.216Z" fill="#3CB9C4"/>
<path d="M301.287 136.454C291.721 149.181 275.457 142.09 258.418 129.316C241.355 116.565 229.979 102.946 239.545 90.2187C249.11 77.4916 270.663 77.515 287.726 90.2891C304.789 103.063 310.829 123.727 301.287 136.454Z" fill="#FAF6E7"/>
<path d="M256.413 95.713C255.99 96.2766 255.168 96.394 254.604 95.9713C254.04 95.5486 253.922 94.7268 254.345 94.1632C254.768 93.5996 255.591 93.4822 256.155 93.9049C256.719 94.3511 256.836 95.1494 256.413 95.713Z" fill="#FBD9B6"/>
<path d="M264.666 116.565C264.243 117.129 263.42 117.246 262.856 116.823C262.292 116.401 262.174 115.579 262.598 115.015C263.021 114.452 263.843 114.334 264.407 114.757C264.971 115.203 265.089 116.001 264.666 116.565Z" fill="#FBD9B6"/>
<path d="M293.057 124.783C292.634 125.347 291.812 125.464 291.248 125.042C290.684 124.619 290.566 123.797 290.989 123.234C291.412 122.67 292.235 122.553 292.799 122.975C293.363 123.398 293.48 124.22 293.057 124.783Z" fill="#FBD9B6"/>
<path d="M293.477 135.491C294.182 135.327 294.863 135.773 295.004 136.478C295.169 137.182 294.722 137.863 294.017 138.004C293.312 138.168 292.63 137.722 292.489 137.018C292.348 136.313 292.771 135.656 293.477 135.491Z" fill="#FBD9B6"/>
<path d="M245.439 106.585C246.144 106.421 246.826 106.867 246.967 107.571C247.131 108.276 246.685 108.957 245.98 109.098C245.275 109.262 244.593 108.816 244.452 108.111C244.288 107.407 244.734 106.726 245.439 106.585Z" fill="#FBD9B6"/>
<g opacity="0.1">
<path opacity="0.1" d="M319.175 75.8945C319.058 76.0823 318.964 76.3641 318.87 76.7633C318.141 79.6515 317.765 87.7058 316.59 93.952V93.9754C316.073 96.441 315.391 98.5309 314.498 99.705C313.276 101.325 311.208 102.124 308.622 102.194C308.763 102.57 308.904 102.945 309.022 103.345C308.81 103.368 308.599 103.368 308.387 103.368C309.422 106.092 309.821 108.699 309.515 110.953C309.304 112.479 308.152 113.043 307.259 114.24C302.23 120.956 288.433 119.477 275.718 109.943C264.672 101.654 258.514 90.641 260.395 83.4791C260.677 82.3989 261.147 81.4127 261.805 80.5438C264.837 76.505 271.3 75.7301 278.727 77.8434C278.727 77.4208 278.774 77.0216 278.844 76.6224C278.891 76.3171 278.962 76.0353 279.032 75.7301C279.126 75.3779 279.244 75.0491 279.385 74.7204C285.496 60.8661 317.201 72.3957 319.128 75.4483C319.222 75.6362 319.246 75.777 319.175 75.8945Z" fill="black"/>
</g>
<path d="M319.901 74.7209C319.807 74.8853 319.689 75.1436 319.618 75.4958C319.524 75.848 319.43 76.2707 319.36 76.7638C318.725 80.5444 318.279 88.2699 317.08 93.9525V93.976C316.563 96.4415 315.882 98.5314 314.988 99.7055C313.766 101.326 311.698 102.124 309.113 102.195C309.254 102.57 309.395 102.946 309.512 103.345C310.405 106.14 310.593 108.746 310.006 110.977C309.724 112.057 309.254 113.043 308.596 113.912C303.566 120.628 289.182 118.327 276.444 108.816C265.985 100.974 259.898 90.665 260.885 83.5266C261.097 82.0002 261.637 80.6148 262.53 79.4172C265.562 75.3784 271.931 74.6035 279.335 76.6699C279.382 76.6934 279.429 76.6934 279.452 76.7168C279.452 76.4116 279.476 76.1063 279.523 75.8011C279.617 75.0262 279.828 74.2982 280.11 73.6172C286.55 59.0116 321.24 72.5371 319.901 74.7209Z" fill="#F9FDFD"/>
<path d="M289.512 75.3313C289.394 75.2608 289.324 75.1199 289.324 74.979L289.136 71.1045C289.112 70.8462 289.324 70.6349 289.582 70.6114C289.841 70.5879 290.052 70.7993 290.076 71.0576L290.264 74.9321C290.287 75.1904 290.076 75.4017 289.817 75.4252C289.723 75.4487 289.606 75.4017 289.512 75.3313Z" fill="#FFD6AF"/>
<path d="M310.124 78.9003C309.936 78.7594 309.842 78.5011 309.912 78.2663C310.006 77.961 310.335 77.7732 310.641 77.8671L314.542 78.9942C314.848 79.0881 315.036 79.4169 314.942 79.7221C314.848 80.0274 314.519 80.2153 314.213 80.1213L310.312 78.9942C310.241 78.9707 310.194 78.9238 310.124 78.9003Z" fill="#FFD6AF"/>
<path d="M300.79 100.809C300.696 100.738 300.649 100.668 300.602 100.55L298.228 94.5858C298.111 94.2806 298.252 93.9518 298.557 93.8344C298.863 93.717 299.192 93.8579 299.309 94.1632L301.683 100.128C301.801 100.433 301.66 100.762 301.354 100.879C301.166 100.949 300.931 100.926 300.79 100.809Z" fill="#FFD6AF"/>
<path d="M300.533 76.6696C300.369 76.5522 300.275 76.3644 300.298 76.153L300.604 72.2551C300.627 71.9263 300.909 71.6915 301.238 71.715C301.567 71.7385 301.802 72.0203 301.779 72.349L301.473 76.247C301.45 76.5757 301.168 76.8105 300.839 76.7871C300.721 76.7871 300.627 76.7401 300.533 76.6696Z" fill="#FFD6AF"/>
<path d="M281.686 89.608C281.474 89.4436 281.404 89.1853 281.498 88.927L283.731 83.2913C283.848 82.9861 284.201 82.8452 284.483 82.9626C284.788 83.08 284.929 83.4322 284.812 83.714L282.579 89.3497C282.462 89.6549 282.109 89.7958 281.827 89.6784C281.756 89.6549 281.709 89.6314 281.686 89.608Z" fill="#FFD6AF"/>
<path d="M303.096 88.8332C302.955 88.7393 302.884 88.5984 302.861 88.4105C302.837 88.0818 303.073 87.8 303.402 87.7765L309.512 87.2599C309.841 87.2364 310.123 87.4713 310.147 87.8C310.17 88.1288 309.935 88.4105 309.606 88.434L303.496 88.9506C303.355 88.9506 303.214 88.9271 303.096 88.8332Z" fill="#FFD6AF"/>
<path d="M296.233 90.782C296.022 90.6177 295.928 90.3359 296.045 90.0776L297.573 86.5788C297.714 86.2735 298.043 86.1561 298.349 86.2736C298.654 86.391 298.772 86.7432 298.654 87.0484L297.126 90.5472C296.985 90.8525 296.656 90.9699 296.351 90.8525C296.304 90.829 296.257 90.8055 296.233 90.782Z" fill="#FFD6AF"/>
<path d="M307.16 97.0989C307.066 97.0284 306.995 96.958 306.972 96.8406C306.854 96.5353 306.995 96.2066 307.301 96.0892L309.769 95.1264C310.074 95.009 310.403 95.1499 310.521 95.4552C310.638 95.7604 310.497 96.0892 310.192 96.2066L307.724 97.1693C307.536 97.2633 307.324 97.2163 307.16 97.0989Z" fill="#FFD6AF"/>
<path d="M271.789 85.8512C271.718 85.8043 271.648 85.7103 271.601 85.6164L270.026 82.1881C269.885 81.8828 270.026 81.5541 270.308 81.4132C270.614 81.2723 270.943 81.4132 271.084 81.695L272.658 85.1233C272.799 85.4286 272.658 85.7573 272.376 85.8982C272.188 86.0156 271.953 85.9921 271.789 85.8512Z" fill="#FFD6AF"/>
<path d="M288.617 105.411C288.406 105.247 288.312 104.942 288.453 104.683C288.594 104.402 288.946 104.261 289.228 104.402L293.882 106.656C294.164 106.797 294.305 107.149 294.164 107.431C294.023 107.713 293.67 107.854 293.388 107.713L288.735 105.458C288.688 105.458 288.664 105.435 288.617 105.411Z" fill="#FFD6AF"/>
<path d="M283.163 99.8226C282.952 99.6583 282.858 99.353 282.975 99.0947L285.302 94.2575C285.443 93.9757 285.795 93.8348 286.077 93.9757C286.359 94.1166 286.5 94.4688 286.359 94.7506L284.033 99.5878C283.892 99.8696 283.539 100.01 283.257 99.8696C283.234 99.8696 283.187 99.8461 283.163 99.8226Z" fill="#FFD6AF"/>
<path d="M264.669 86.8139C264.786 82.6341 269.275 80.6147 272.918 80.5677C273.67 80.5443 273.67 79.3702 272.918 79.3937C268.594 79.4641 263.611 81.9532 263.494 86.8139C263.47 87.5653 264.645 87.5653 264.669 86.8139Z" fill="white"/>
<path d="M282.908 77.6795C282.978 75.6131 284.718 74.1807 286.41 73.2884C288.854 71.9969 291.698 71.5508 294.448 71.5273C295.341 71.5273 295.341 70.1418 294.448 70.1418C289.935 70.1888 281.709 71.7856 281.521 77.656C281.498 78.5718 282.884 78.5718 282.908 77.6795Z" fill="white"/>
<path d="M150.938 147.636L106.964 180.088C106.118 180.722 104.896 180.534 104.261 179.689L46.092 101.001C45.4574 100.156 45.6455 98.9351 46.4916 98.3011L90.4888 65.8493C91.3349 65.2152 92.5571 65.4031 93.1916 66.2484L151.361 144.936C151.972 145.781 151.784 147.002 150.938 147.636Z" fill="#A37B56"/>
<path d="M105.089 96.5633L93.1024 105.416C91.5277 106.567 89.2949 106.238 88.1198 104.664L74.7937 86.6305C73.6421 85.0572 73.9711 82.8264 75.5458 81.6523L87.5322 72.7997C89.1069 71.6491 91.3397 71.9778 92.5148 73.5511L105.841 91.5851C107.016 93.1584 106.664 95.3892 105.089 96.5633Z" fill="#7E4E22"/>
<path d="M79.0686 88.1331C78.3871 87.2173 77.4704 86.3485 77.0239 85.2918C76.4363 83.9533 77.588 83.108 78.6691 82.521C79.1862 82.2392 78.8571 81.3469 78.3401 81.6521C77.0474 82.3566 75.6137 83.3898 75.9428 85.0335C76.2483 86.4424 77.4704 87.5695 78.3165 88.6967C78.6691 89.1898 79.4447 88.6262 79.0686 88.1331Z" fill="#E9E5E4"/>
<path d="M83.5332 112.46L71.5467 121.313C69.972 122.464 67.7393 122.135 66.5641 120.562L53.2381 102.528C52.0864 100.954 52.4155 98.7236 53.9901 97.5495L65.9766 88.6969C67.5513 87.5463 69.784 87.875 70.9592 89.4483L84.2852 107.482C85.4604 109.079 85.1078 111.31 83.5332 112.46Z" fill="#7E4E22"/>
<path d="M57.5139 104.054C56.8324 103.138 55.9158 102.269 55.4692 101.212C54.8816 99.874 56.0333 99.0287 57.1144 98.4416C57.6315 98.1598 57.3024 97.2675 56.7854 97.5728C55.4927 98.2772 54.059 99.3104 54.3881 100.954C54.6936 102.363 55.9158 103.49 56.7619 104.617C57.1144 105.087 57.89 104.523 57.5139 104.054Z" fill="#E9E5E4"/>
<path d="M124.268 122.464L112.281 131.316C110.706 132.467 108.474 132.138 107.299 130.565L93.9724 112.531C92.8208 110.958 93.1498 108.727 94.7245 107.553L106.711 98.7001C108.286 97.5495 110.518 97.8782 111.694 99.4515L125.02 117.486C126.195 119.082 125.842 121.313 124.268 122.464Z" fill="#7E4E22"/>
<path d="M98.2478 114.057C97.5663 113.141 96.6496 112.272 96.2031 111.216C95.6155 109.877 96.7672 109.032 97.8483 108.445C98.3653 108.163 98.0363 107.271 97.5192 107.576C96.2266 108.28 94.7929 109.314 95.122 110.957C95.4275 112.366 96.6496 113.493 97.4957 114.621C97.8483 115.09 98.6239 114.527 98.2478 114.057Z" fill="#E9E5E4"/>
<path d="M102.712 138.384L90.7254 147.237C89.1507 148.387 86.918 148.059 85.7428 146.485L72.4168 128.451C71.2651 126.878 71.5942 124.647 73.1689 123.473L85.1553 114.62C86.73 113.47 88.9627 113.799 90.1379 115.372L103.464 133.406C104.639 134.979 104.287 137.21 102.712 138.384Z" fill="#7E4E22"/>
<path d="M76.6931 129.954C76.0116 129.038 75.095 128.17 74.6484 127.113C74.0608 125.774 75.2125 124.929 76.2936 124.342C76.8107 124.06 76.4816 123.168 75.9646 123.473C74.6719 124.178 73.2382 125.211 73.5673 126.855C73.8728 128.263 75.095 129.391 75.9411 130.518C76.2936 131.011 77.0692 130.447 76.6931 129.954Z" fill="#E9E5E4"/>
<path d="M143.442 148.387L131.455 157.24C129.881 158.391 127.648 158.062 126.473 156.488L113.147 138.454C111.995 136.881 112.324 134.65 113.899 133.476L125.885 124.624C127.46 123.473 129.693 123.802 130.868 125.375L144.194 143.409C145.346 145.006 145.017 147.237 143.442 148.387Z" fill="#6E4016"/>
<path d="M117.423 139.981C116.741 139.065 115.824 138.196 115.378 137.139C114.79 135.801 115.942 134.955 117.023 134.368C117.54 134.087 117.211 133.194 116.694 133.5C115.401 134.204 113.968 135.237 114.297 136.881C114.602 138.29 115.824 139.417 116.671 140.544C117.023 141.014 117.775 140.45 117.423 139.981Z" fill="#E9E5E4"/>
<path d="M121.886 164.308L109.9 173.16C108.325 174.311 106.092 173.982 104.917 172.409L91.5911 154.375C90.4394 152.802 90.7685 150.571 92.3432 149.397L104.33 140.544C105.904 139.393 108.137 139.722 109.312 141.296L122.638 159.33C123.79 160.903 123.461 163.134 121.886 164.308Z" fill="#6E4016"/>
<path d="M95.8685 155.878C95.1869 154.962 94.2703 154.093 93.8237 153.036C93.2361 151.698 94.3878 150.852 95.4689 150.265C95.986 149.984 95.6569 149.091 95.1399 149.397C93.8472 150.101 92.4135 151.134 92.7426 152.778C93.0481 154.187 94.2703 155.314 95.1164 156.441C95.4689 156.934 96.221 156.371 95.8685 155.878Z" fill="#E9E5E4"/>
<path d="M153.97 148.247L106.682 183.164C105.907 183.751 104.802 183.563 104.215 182.788L74.4601 142.564C73.8725 141.789 74.0605 140.686 74.8361 140.099L122.124 105.205C122.899 104.618 124.004 104.805 124.592 105.58L154.346 145.805C154.91 146.556 154.746 147.683 153.97 148.247Z" fill="#4C8EB0"/>
<path d="M80.288 157.733C77.0212 153.554 74.2713 148.951 72.1561 144.09C71.6155 142.869 71.122 141.531 71.357 140.216C71.639 138.784 72.7436 137.68 73.8013 136.67C86.7043 124.46 100.994 113.728 116.318 104.711C117.516 104.007 118.739 103.303 120.102 103.021C122.311 102.575 124.638 103.303 126.518 104.571C128.398 105.839 129.902 107.553 131.336 109.29C133.122 111.427 134.862 113.588 136.53 115.795C136.906 116.288 137.282 116.828 137.306 117.439C137.329 119.012 135.214 119.458 133.639 119.599C128.351 120.116 123.651 123.168 119.514 126.503C115.378 129.86 111.523 133.618 106.823 136.107C104.566 137.304 102.122 138.173 99.9599 139.512C96.6225 141.554 94.0137 144.607 92.0629 147.988C89.7127 152.074 88.2085 156.7 85.0121 160.175C84.26 160.997 83.2494 161.796 82.1448 161.584C81.3927 161.444 80.1705 161.021 80.3115 160.246C80.7111 157.992 80.6171 160.011 80.288 157.733Z" fill="#88A2A8"/>
<path d="M123.015 128.545C124.167 131.927 127.645 133.946 131.17 133.265C142.193 131.128 160.126 125.117 169.903 120.186C173.076 118.589 174.58 114.879 173.428 111.498L171.031 104.453L120.641 121.571" fill="#CCCCCC"/>
<path d="M99.3021 58.8759C98.3854 56.199 98.0329 48.3091 100.195 45.2565C102.851 50.305 113.028 51.5496 123.674 47.9334C134.251 44.3407 141.537 37.2492 140.691 31.6135C144.239 32.8111 148.681 38.8694 149.645 41.6168L151.878 48.1447L101.488 65.263" fill="#CCCCCC"/>
<path d="M140.691 31.636C141.56 37.2481 134.274 44.3396 123.675 47.9558C113.028 51.572 102.851 50.3509 100.195 45.2789C100.571 44.7388 101.041 44.3631 101.582 44.1752L138.693 31.5655C139.304 31.3307 139.986 31.3777 140.691 31.636Z" fill="#E6E6E6"/>
<path d="M132.392 36.919C134.296 37.9053 134.484 39.3377 133.685 40.4648C132.885 41.5919 131.358 41.9441 129.478 40.9579C127.574 39.9717 126.822 36.919 126.822 36.919C126.822 36.919 130.512 35.9328 132.392 36.919Z" fill="#4D4D4D"/>
<path d="M98.9033 57.6771C111.665 63.1953 145.721 51.5248 149.293 40.5588L172.843 109.76C165.44 115.795 132.841 126.737 122.453 126.878" fill="#FF5656"/>
<path d="M111.782 95.5533L162.172 78.4351L153.147 51.9006C149.574 62.8666 115.542 74.5371 102.757 69.0189" fill="#F88C93"/>
<path d="M122.593 75.3828C122.17 75.5237 121.958 76.2047 122.005 77.3788C122.052 78.5528 122.193 79.5626 122.475 80.3844C123.063 82.1221 123.815 82.8265 124.732 82.5213C124.99 82.4273 125.178 82.2395 125.296 81.9577C125.413 81.6759 125.484 81.3941 125.484 81.1358C125.484 80.8775 125.484 80.5018 125.46 80.0557L127.388 79.5626C127.552 80.8541 127.482 81.9107 127.176 82.7326C126.894 83.5545 126.283 84.118 125.39 84.4233C124.332 84.7755 123.369 84.6581 122.523 84.0476C121.676 83.4371 121.042 82.5213 120.619 81.2767C120.125 79.8209 119.937 78.318 120.031 76.7682C120.078 75.9933 120.266 75.3124 120.619 74.7018C120.971 74.0913 121.465 73.6921 122.099 73.4573C122.899 73.199 123.557 73.2459 124.074 73.6686C124.332 73.8565 124.567 74.0678 124.779 74.3026C124.99 74.5374 125.178 74.8427 125.366 75.2419C125.672 75.8759 125.977 76.5569 126.259 77.3083L124.285 77.7779C123.862 76.5099 123.463 75.7585 123.11 75.5002C122.946 75.3593 122.781 75.3124 122.593 75.3828Z" fill="white"/>
<path d="M132.653 82.0048C131.713 82.3336 130.773 82.1692 129.833 81.5587C128.892 80.9247 128.14 79.7741 127.553 78.0364C126.965 76.3222 126.848 74.7959 127.177 73.4809C127.506 72.166 128.164 71.3441 129.128 71.0154C130.091 70.6866 131.031 70.851 131.948 71.485C132.864 72.119 133.617 73.2931 134.204 74.9838C134.792 76.6979 134.909 78.2008 134.557 79.5392C134.251 80.8542 133.617 81.6761 132.653 82.0048ZM129.01 74.2793C128.963 75.1481 129.128 76.1579 129.527 77.332C129.927 78.4826 130.35 79.3044 130.82 79.7741C131.29 80.2437 131.713 80.4081 132.112 80.2672C132.512 80.1263 132.747 79.6332 132.794 78.7409C132.841 77.872 132.676 76.8623 132.277 75.6882C131.877 74.5376 131.454 73.7158 131.008 73.2461C130.561 72.7765 130.138 72.6121 129.762 72.753C129.316 72.8939 129.081 73.4105 129.01 74.2793Z" fill="white"/>
<path d="M137.565 79.6563C136.742 77.6604 136.037 75.8288 135.473 74.1381C134.909 72.4474 134.439 70.8976 134.063 69.4887L136.084 68.9956C136.507 70.7333 137.001 72.377 137.518 73.9268C138.035 75.4766 138.458 76.6037 138.764 77.3082C139.093 77.1438 139.939 76.7446 141.278 76.1341L142.148 77.7543C141.443 78.0831 140.432 78.5997 139.163 79.2572L137.565 79.6563Z" fill="white"/>
<path d="M147.53 76.228L146.496 74.279L144.31 75.1244L144.686 78.0831L142.548 78.5997L141.537 66.9762L144.357 66.2717L149.716 75.641L147.53 76.228ZM143.464 68.5025L144.099 73.4102L145.744 72.7997L143.464 68.5025Z" fill="white"/>
<path d="M132.841 41.1931L128.705 40.4182L127.741 14.6352C127.67 14.0247 127.435 11.4652 129.222 9.63361C130.538 8.27166 132.489 7.75507 135.027 8.10729C141.279 8.95264 149.998 13.1089 150.351 13.2968L148.729 16.6781C148.635 16.6312 140.197 12.5923 134.533 11.8409C133.805 11.747 132.489 11.6765 131.924 12.2636C131.313 12.8741 131.478 14.1186 131.478 14.1421L131.501 14.236V14.33L132.841 41.1931Z" fill="white"/>
<path d="M106.352 69.2308C106.188 69.2308 106 69.1838 105.835 69.1134C103.814 68.1741 102.028 59.6972 101.37 55.353L102.991 55.0947C104.119 62.5619 105.906 67.1644 106.564 67.634C106.493 67.587 106.282 67.5401 106.094 67.6575L106.94 69.0664C106.752 69.1838 106.564 69.2308 106.352 69.2308Z" fill="white"/>
<path d="M107.432 76.745C106.727 75.1013 106.069 73.3401 105.458 71.5085L107.009 70.9919C107.62 72.7766 108.255 74.5142 108.936 76.111L107.432 76.745Z" fill="white"/>
<path d="M194.735 41.9238C174.452 41.9238 158 58.3611 158 78.6259C158 98.8907 174.452 115.328 194.735 115.328C215.018 115.328 231.47 98.8907 231.47 78.6259C231.47 58.3611 215.018 41.9238 194.735 41.9238ZM206.322 78.6259C206.322 85.0129 201.128 90.2024 194.735 90.2024C188.319 90.2024 183.148 85.0129 183.148 78.6259C183.148 72.2388 188.342 67.0494 194.735 67.0494C199.224 67.0494 203.102 69.5854 205.029 73.2955C205.335 73.8826 205.593 74.4931 205.781 75.1271C206.134 76.2307 206.322 77.4048 206.322 78.6259Z" fill="#FAB371"/>
<path d="M226.98 70.0315C227.968 66.7206 226.158 62.7991 223.009 61.3902C220.705 60.357 218.073 60.5918 215.605 60.1222C212.879 59.6056 210.341 58.2202 208.39 56.2477C206.369 54.2048 205.029 51.6218 203.313 49.3206C201.597 47.0194 199.271 44.9295 196.427 44.5773C192.878 44.1546 189.588 46.5732 187.402 49.391C186.438 50.6591 185.592 52.021 184.417 53.1246C183.265 54.2283 181.691 55.0267 180.116 54.8388C178.518 54.6275 177.249 53.4534 175.744 52.8898C173.042 51.8566 169.657 53.1481 168.294 55.7076C166.743 58.6429 167.847 62.2825 167.189 65.523C166.931 66.8145 165.991 68.2704 164.675 68.0825V68.1765C163.123 67.4955 161.149 68.0121 160.115 69.374C159.104 70.736 159.151 72.7789 160.233 74.0704C161.079 75.0801 162.371 75.5732 163.499 76.2307C165.474 77.3578 167.095 79.0485 168.129 81.068C168.412 81.6315 168.67 82.2421 168.694 82.8761C168.764 84.4493 167.542 85.7408 166.672 87.0323C164.98 89.5449 164.346 92.7854 165.239 95.6736C166.132 98.5619 168.576 100.981 171.537 101.591C174.193 102.155 177.061 101.333 179.599 102.296C183.007 103.61 184.464 107.532 186.955 110.232C189.94 113.473 194.641 114.905 198.989 114.177C203.337 113.449 207.215 110.725 209.659 107.062C211.163 104.785 212.385 101.99 214.971 101.074C216.804 100.417 218.896 100.957 220.752 100.347C223.784 99.3133 224.983 95.5327 224.63 92.3392C224.301 89.1457 222.915 86.14 222.632 82.9465C222.397 80.3165 222.938 77.5927 224.184 75.2445C225.1 73.5068 226.416 71.9335 226.98 70.0315ZM194.735 90.2259C188.318 90.2259 183.148 85.0364 183.148 78.6493C183.148 72.2623 188.342 67.0728 194.735 67.0728C199.224 67.0728 203.102 69.6089 205.029 73.319C205.334 73.906 205.593 74.5166 205.781 75.1506C206.134 76.2542 206.322 77.4283 206.322 78.6493C206.322 85.0364 201.127 90.2259 194.735 90.2259Z" fill="#FDFDFD"/>
<path d="M173.371 60.0054C173.159 61.0152 172.501 61.8135 171.561 62.1423C170.433 62.518 170.903 64.42 172.055 64.0208C173.583 63.5042 174.805 62.1892 175.157 60.522C175.416 59.301 173.63 58.7844 173.371 60.0054Z" fill="#B9DAE1"/>
<path d="M177.247 82.9003C178.399 84.3796 179.527 85.859 180.679 87.3383C181.008 87.761 181.666 87.6905 181.995 87.3383C182.395 86.9391 182.301 86.3521 181.995 85.9529C180.843 84.4735 179.715 82.9942 178.564 81.5148C178.235 81.0921 177.577 81.1626 177.247 81.5148C176.848 81.914 176.918 82.5011 177.247 82.9003Z" fill="#B9DAE1"/>
<path d="M214.357 68.9986C214.709 69.3273 214.968 69.8204 214.897 70.337C214.827 70.8536 215.015 71.3937 215.555 71.5346C216.002 71.652 216.613 71.3702 216.707 70.8536C216.895 69.6561 216.566 68.435 215.696 67.6131C214.78 66.7678 213.463 68.1532 214.357 68.9986Z" fill="#B9DAE1"/>
<path d="M221.315 90.8367C219.975 90.8367 218.636 90.8367 217.296 90.8367C216.097 90.8367 216.097 92.7857 217.296 92.7857C218.636 92.7857 219.975 92.7857 221.315 92.7857C222.514 92.7857 222.514 90.8367 221.315 90.8367Z" fill="#B9DAE1"/>
<path d="M201.524 104.268C199.738 105.536 198.069 106.969 196.565 108.565C195.719 109.458 197.035 110.843 197.881 109.951C199.291 108.471 200.819 107.133 202.464 105.959C203.451 105.254 202.511 103.564 201.524 104.268Z" fill="#376191"/>
<path d="M181.289 99.0085C179.033 98.2571 176.918 97.0595 175.108 95.4393C174.192 94.6174 172.875 96.0028 173.792 96.8247C175.86 98.6798 178.21 100.065 180.796 100.911C181.947 101.263 182.441 99.3842 181.289 99.0085Z" fill="#82BBB5"/>
<path d="M197.295 50.4951C198.611 52.7259 200.186 54.7688 201.972 56.6004C202.818 57.4927 204.134 56.1073 203.288 55.2149C201.619 53.5008 200.139 51.5753 198.893 49.5089C198.258 48.4522 196.637 49.4384 197.295 50.4951Z" fill="#B9DAE1"/>
<path d="M185.239 53.4068C185.145 54.6748 185.075 55.9429 184.981 57.1874C184.886 58.4554 186.743 58.4319 186.837 57.1874C186.931 55.9194 187.002 54.6514 187.096 53.4068C187.19 52.1388 185.333 52.1623 185.239 53.4068Z" fill="#B9DAE1"/>
<path d="M208.432 74.47C207.539 74.6813 206.67 74.9161 205.777 75.1274C205.565 74.4934 205.33 73.8829 205.024 73.2959C205.988 73.061 206.975 72.8262 207.939 72.5679C209.114 72.2862 209.584 74.1882 208.432 74.47Z" fill="#B9DAE1"/>
<path d="M169.889 74.9866C168.761 74.7518 167.61 74.6579 166.458 74.7518C165.283 74.8457 165.259 76.8182 166.458 76.7008C167.445 76.6304 168.409 76.6539 169.396 76.8652C170.571 77.1235 171.065 75.2449 169.889 74.9866Z" fill="#B9DAE1"/>
<path d="M168.645 93.1383C168.716 94.4298 168.481 95.6978 167.94 96.8719C167.4 97.999 169.022 98.9852 169.539 97.8581C170.244 96.3788 170.573 94.782 170.502 93.1383C170.432 91.8703 168.575 91.8703 168.645 93.1383Z" fill="#706FAB"/>
<path d="M210.856 97.3883C210.762 98.6798 210.856 99.9478 211.091 101.216C211.326 102.46 213.112 101.92 212.877 100.699C212.689 99.5956 212.642 98.4919 212.713 97.3883C212.807 96.1203 210.95 96.1437 210.856 97.3883Z" fill="#706FAB"/>
<path d="M182.431 274.015C234.287 274.015 276.324 232.341 276.324 180.933C276.324 129.526 234.287 87.8516 182.431 87.8516C130.575 87.8516 88.5371 129.526 88.5371 180.933C88.5371 232.341 130.575 274.015 182.431 274.015Z" fill="#2DB3BE"/>
<path d="M182.431 265.445C229.524 265.445 267.699 227.608 267.699 180.934C267.699 134.26 229.524 96.4231 182.431 96.4231C135.339 96.4231 97.1631 134.26 97.1631 180.934C97.1631 227.608 135.339 265.445 182.431 265.445Z" fill="#B3DFE4"/>
<path d="M182.432 265.609C159.61 265.609 138.176 256.803 122.029 240.812C105.907 224.821 97.0225 203.57 97.0225 180.933C97.0225 158.32 105.907 137.046 122.029 121.055C138.152 105.064 159.61 96.2581 182.432 96.2581C205.253 96.2581 226.687 105.064 242.834 121.055C258.957 137.046 267.864 158.297 267.864 180.933C267.864 203.546 258.98 224.821 242.834 240.812C226.687 256.803 205.253 265.609 182.432 265.609ZM182.432 96.5633C135.497 96.5633 97.328 134.416 97.328 180.933C97.328 227.451 135.52 265.304 182.432 265.304C229.367 265.304 267.535 227.451 267.535 180.933C267.535 134.416 229.367 96.5633 182.432 96.5633Z" fill="#E6E6E6"/>
<path d="M182.432 257.555C225.124 257.555 259.733 223.25 259.733 180.933C259.733 138.617 225.124 104.312 182.432 104.312C139.74 104.312 105.131 138.617 105.131 180.933C105.131 223.25 139.74 257.555 182.432 257.555Z" fill="white"/>
<path d="M257.102 180.933H246.385C246.385 146.016 217.688 117.58 182.434 117.58C147.18 117.58 118.483 145.993 118.483 180.933H107.766C107.766 161.138 115.545 142.541 129.647 128.546C143.748 114.574 162.504 106.872 182.434 106.872C202.364 106.872 221.12 114.574 235.221 128.546C249.323 142.541 257.102 161.138 257.102 180.933Z" fill="url(#paint1_linear)"/>
<path d="M182.431 216.719C162.524 216.719 146.331 200.658 146.331 180.933C146.331 161.208 162.524 145.147 182.431 145.147C202.338 145.147 218.531 161.185 218.531 180.933C218.531 200.681 202.338 216.719 182.431 216.719ZM182.431 146.626C163.347 146.626 147.811 162.007 147.811 180.933C147.811 199.859 163.347 215.24 182.431 215.24C201.515 215.24 217.05 199.859 217.05 180.933C217.05 162.007 201.515 146.626 182.431 146.626Z" fill="url(#paint2_linear)"/>
<path d="M141.795 117.345L144.569 121.736C144.898 121.525 145.227 121.313 145.579 121.125L142.877 116.687C142.5 116.899 142.148 117.133 141.795 117.345Z" fill="white"/>
<path d="M134.084 122.909L137.375 126.925C137.68 126.666 137.986 126.432 138.291 126.197L135.048 122.135C134.743 122.369 134.414 122.628 134.084 122.909Z" fill="white"/>
<path d="M121.043 136.646L125.226 139.722C125.226 139.699 125.25 139.699 125.25 139.675L128.963 142.376L129.833 141.178L121.748 135.308L120.878 136.505L121.043 136.646C121.066 136.623 121.043 136.623 121.043 136.646Z" fill="white"/>
<path d="M150.115 112.812L152.324 117.532C152.677 117.368 153.029 117.203 153.382 117.039L151.266 112.296C150.867 112.46 150.491 112.624 150.115 112.812Z" fill="white"/>
<path d="M168.143 106.989L169.106 112.108C169.482 112.038 169.882 111.967 170.258 111.897L169.388 106.778C168.965 106.848 168.566 106.918 168.143 106.989Z" fill="white"/>
<path d="M127.13 129.367L130.914 132.936C131.196 132.654 131.454 132.373 131.736 132.091L128.023 128.451C127.717 128.756 127.435 129.062 127.13 129.367Z" fill="white"/>
<path d="M244.858 147.988L249.441 145.523C249.229 145.147 249.041 144.771 248.83 144.419L244.293 146.955C244.481 147.307 244.669 147.659 244.858 147.988Z" fill="white"/>
<path d="M121.044 146.133L116.532 143.526C116.32 143.902 116.108 144.254 115.897 144.63L120.457 147.166C120.668 146.814 120.856 146.462 121.044 146.133Z" fill="white"/>
<path d="M238.439 130.118C238.157 129.813 237.875 129.508 237.57 129.203L233.809 132.795C234.091 133.077 234.35 133.359 234.608 133.664L238.439 130.118Z" fill="white"/>
<path d="M227.323 126.784C227.629 127.042 227.934 127.277 228.24 127.536L231.601 123.567C231.272 123.285 230.943 123.027 230.614 122.769L227.323 126.784Z" fill="white"/>
<path d="M220.13 121.641C220.459 121.853 220.788 122.064 221.117 122.275L223.961 117.908C223.608 117.673 223.256 117.462 222.88 117.227L220.13 121.641Z" fill="white"/>
<path d="M186.733 111.004C187.132 111.028 187.508 111.051 187.908 111.075L188.308 105.885C187.885 105.862 187.461 105.815 187.038 105.791L186.733 111.004Z" fill="white"/>
<path d="M195.523 112.061C195.899 112.131 196.299 112.202 196.675 112.295L197.709 107.2C197.286 107.106 196.887 107.036 196.464 106.965L195.523 112.061Z" fill="white"/>
<path d="M177.566 105.815L177.895 111.004C178.295 110.981 178.671 110.957 179.071 110.934L178.836 105.744C178.413 105.768 177.989 105.791 177.566 105.815Z" fill="white"/>
<path d="M212.35 117.415C212.703 117.579 213.055 117.744 213.408 117.931L215.688 113.259C215.311 113.071 214.912 112.883 214.536 112.719L212.35 117.415Z" fill="white"/>
<path d="M158.79 108.867L158.955 109.36L160.553 114.315L161.869 118.401L163.279 117.931L160.2 108.421L158.79 108.867Z" fill="white"/>
<path d="M205.708 108.738L202.622 118.23L204.03 118.687L207.116 109.195L205.708 108.738Z" fill="white"/>
<path d="M243.729 136.201L235.648 142.067L236.519 143.264L244.6 137.398L243.729 136.201Z" fill="white"/>
<path d="M148.589 143.738L149.764 142.728C150.587 142.023 151.409 141.742 152.279 141.859C153.125 142 153.971 142.54 154.794 143.479C155.405 144.207 155.804 144.865 155.969 145.499C156.133 146.133 156.11 146.696 155.922 147.213C155.71 147.73 155.381 148.199 154.935 148.575L153.689 149.632L148.589 143.738ZM150.939 143.925L153.853 147.33C154.206 146.955 154.347 146.579 154.3 146.203C154.253 145.804 153.971 145.334 153.477 144.747C153.172 144.395 152.913 144.137 152.655 143.949C152.396 143.761 152.161 143.644 151.926 143.62C151.715 143.597 151.527 143.597 151.409 143.667C151.268 143.691 151.104 143.785 150.939 143.925Z" fill="#2DB3BE"/>
<path d="M154.347 139.135L155.733 138.196L160.081 144.677L158.695 145.616L154.347 139.135Z" fill="#2DB3BE"/>
<path d="M166.382 141.249L164.831 142.047L163.985 141.014L162.41 141.812L162.739 143.104L161.235 143.879L159.425 136.036L161.094 135.19L166.382 141.249ZM163.068 139.91C162.316 138.994 161.658 138.079 161.047 137.21H161.023C161.4 138.243 161.729 139.3 162.034 140.427L163.068 139.91Z" fill="#2DB3BE"/>
<path d="M165.04 133.429L166.638 132.889C167.578 132.584 168.307 132.537 168.847 132.795C169.388 133.054 169.764 133.476 169.952 134.087C170.164 134.744 170.046 135.355 169.576 135.965C170.352 136.012 170.869 136.459 171.127 137.257C171.339 137.891 171.292 138.478 171.01 139.018C170.728 139.558 170.234 139.934 169.529 140.169L167.461 140.85L165.04 133.429ZM167.108 134.322L167.649 135.918C168.354 135.66 168.612 135.284 168.448 134.791C168.354 134.486 168.189 134.322 167.978 134.251C167.766 134.181 167.484 134.204 167.108 134.322ZM168.072 137.28L168.612 138.877C169.012 138.736 169.294 138.572 169.459 138.384C169.623 138.196 169.647 137.961 169.553 137.68C169.365 137.14 168.941 136.999 168.213 137.233L168.072 137.28Z" fill="#2DB3BE"/>
<path d="M171.93 131.386L175.244 130.776L175.549 132.419L173.88 132.725L174.139 134.134L175.596 133.852L175.902 135.449L174.444 135.73L174.703 137.116L176.395 136.81L176.701 138.454L173.363 139.065L171.93 131.386Z" fill="#2DB3BE"/>
<path d="M177.378 130.494L181.35 130.236L181.468 132.02L180.316 132.091L180.692 138.102L179 138.219L178.624 132.208L177.496 132.279L177.378 130.494Z" fill="#2DB3BE"/>
<path d="M183.724 130.283L187.085 130.471L186.991 132.138L185.299 132.044L185.205 133.476L186.685 133.57L186.591 135.191L185.111 135.097L185.017 136.506L186.732 136.6L186.638 138.267L183.254 138.079L183.724 130.283Z" fill="#2DB3BE"/>
<path d="M188.379 138.337L188.708 136.552C189.178 136.975 189.578 137.21 189.93 137.28C190.142 137.327 190.306 137.28 190.447 137.186C190.588 137.092 190.682 136.928 190.706 136.74C190.729 136.576 190.706 136.435 190.635 136.27C190.565 136.13 190.424 135.918 190.236 135.683C189.766 135.12 189.437 134.603 189.249 134.157C189.06 133.711 189.013 133.241 189.108 132.772C189.225 132.114 189.531 131.598 190.001 131.269C190.471 130.917 191.011 130.823 191.646 130.94C192.116 131.034 192.539 131.222 192.962 131.504L192.633 133.218C192.21 132.842 191.834 132.631 191.528 132.56C191.317 132.513 191.152 132.537 191.011 132.631C190.87 132.725 190.8 132.842 190.753 133.03C190.682 133.359 190.894 133.758 191.364 134.274C191.646 134.58 191.904 134.979 192.163 135.472C192.421 135.965 192.492 136.505 192.374 137.069C192.257 137.726 191.928 138.243 191.411 138.595C190.894 138.947 190.306 139.065 189.625 138.924C189.225 138.853 188.778 138.642 188.379 138.337Z" fill="#2DB3BE"/>
<path d="M199.73 133.406L201.516 134.181C202.245 134.486 202.715 134.932 202.973 135.496C203.232 136.059 203.208 136.693 202.903 137.374C202.762 137.727 202.527 138.032 202.221 138.29C201.916 138.549 201.587 138.689 201.21 138.736L201.046 142.493L199.424 141.789L199.589 137.985H199.565L198.155 141.249L196.627 140.591L199.73 133.406ZM200.67 135.449L199.941 137.163C200.623 137.445 201.069 137.327 201.281 136.834C201.422 136.506 201.446 136.224 201.351 136.012C201.257 135.801 201.022 135.613 200.67 135.449Z" fill="#2DB3BE"/>
<path d="M206.17 136.435L207.604 137.257L203.726 144.043L202.292 143.221L206.17 136.435Z" fill="#2DB3BE"/>
<path d="M205.558 145.006L206.639 143.526C206.874 144.113 207.132 144.489 207.414 144.7C207.579 144.818 207.743 144.865 207.931 144.841C208.096 144.818 208.237 144.724 208.378 144.559C208.472 144.442 208.519 144.278 208.519 144.113C208.519 143.949 208.472 143.714 208.401 143.409C208.213 142.681 208.143 142.094 208.166 141.624C208.19 141.155 208.354 140.708 208.636 140.309C209.036 139.769 209.53 139.44 210.094 139.323C210.658 139.206 211.222 139.346 211.715 139.722C212.091 140.004 212.397 140.356 212.655 140.802L211.621 142.211C211.386 141.695 211.151 141.342 210.893 141.155C210.728 141.037 210.564 140.99 210.399 140.99C210.235 141.014 210.094 141.084 210 141.249C209.812 141.507 209.812 141.976 210.023 142.634C210.141 143.033 210.211 143.503 210.235 144.043C210.258 144.606 210.094 145.1 209.741 145.569C209.342 146.109 208.824 146.438 208.213 146.532C207.602 146.626 207.015 146.485 206.451 146.062C206.098 145.827 205.793 145.452 205.558 145.006Z" fill="#2DB3BE"/>
<path d="M215.1 142.705L216.299 143.855L213.761 146.509L213.784 146.532L217.451 144.959L218.72 146.156L214.724 147.871L213.267 151.769L211.951 150.501L213.173 147.166L213.15 147.143L210.917 149.491L209.718 148.34L215.1 142.705Z" fill="#2DB3BE"/>
</g>
</g>
</g>
<defs>
<radialGradient id="paint0_radial" cx="0" cy="0" r="1" gradientUnits="userSpaceOnUse" gradientTransform="translate(239.874 81.0093) rotate(4.68809) scale(14.8335 14.8204)">
<stop stop-color="#F77982"/>
<stop offset="1" stop-color="#D64851"/>
</radialGradient>
<linearGradient id="paint1_linear" x1="107.767" y1="143.908" x2="257.101" y2="143.908" gradientUnits="userSpaceOnUse">
<stop stop-color="#76D7D0"/>
<stop offset="0.244792" stop-color="#FFE98D"/>
<stop offset="0.505208" stop-color="#FFCF5B"/>
<stop offset="0.755208" stop-color="#FF9B50"/>
<stop offset="0.978144" stop-color="#F5724C"/>
</linearGradient>
<linearGradient id="paint2_linear" x1="146.323" y1="180.933" x2="218.539" y2="180.933" gradientUnits="userSpaceOnUse">
<stop stop-color="#54C2BA"/>
<stop offset="0.5065" stop-color="#FECF0E"/>
<stop offset="0.558" stop-color="#FEC90E"/>
<stop offset="0.6291" stop-color="#FEB70C"/>
<stop offset="0.7116" stop-color="#FE9A0A"/>
<stop offset="0.8026" stop-color="#FE7108"/>
<stop offset="0.9007" stop-color="#FF3D04"/>
<stop offset="1" stop-color="#FF0000"/>
</linearGradient>
</defs>
</svg>
