<svg width="149" height="150" viewBox="0 0 149 150" fill="none" xmlns="http://www.w3.org/2000/svg">
<path d="M149 75.5C149 116.6 115.6 150 74.5 150C33.4 150 0 116.6 0 75.5C0 34.4 33.4 1 74.5 1C115.6 1 149 34.4 149 75.5Z" fill="#F8F6F6"/>
<mask id="mask0" mask-type="alpha" maskUnits="userSpaceOnUse" x="1" y="0" width="147" height="150">
<path d="M74.5 149.8C115.093 149.8 148 116.266 148 74.9C148 33.5339 115.093 0 74.5 0C33.9071 0 1 33.5339 1 74.9C1 116.266 33.9071 149.8 74.5 149.8Z" fill="#F8F6F6"/>
<path d="M80.3998 18.7C82.3998 14.5 74.1998 12.2 71.3998 11.5C71.8998 12.1 72.1998 12.8 72.5998 13.4C71.0998 12.4 68.7998 11.8 66.9998 11.5C66.9998 11.5 66.9998 11.5 67.0998 11.5C70.0998 13.8 62.9998 15.3 64.0998 18.7C65.6998 17.9 67.8998 18 69.7998 18C70.6998 18 74.1998 19.6 74.9998 19.6C76.0998 19.5 74.5998 17.7 75.8998 17.8C76.7998 17.8 80.3998 18.7 80.3998 18.7Z" fill="#063754"/>
</mask>
<g mask="url(#mask0)">
<path d="M88.0998 80.2912C88.0998 80.2912 79.9998 93.3912 74.3998 93.2912C68.9998 93.1912 61.7998 80.2912 61.7998 80.2912L61.9998 60.4912H87.9998L88.0998 80.2912Z" fill="#F7995A"/>
<path d="M89.5998 50.4911C94.7998 45.7911 93.1998 55.3911 91.8998 57.8911C91.4998 58.7911 90.4998 60.5911 89.2998 60.7911L89.5998 50.4911Z" fill="#F7995A"/>
<path d="M59.2998 50.4911C54.0998 45.7911 55.6998 55.3911 56.9998 57.8911C57.3998 58.7911 58.3998 60.5911 59.5998 60.7911L59.2998 50.4911Z" fill="#F7995A"/>
<path d="M89.7993 53.9912C89.2993 47.9912 90.6993 38.4912 88.0993 34.4912C85.0993 29.8912 79.3993 29.4912 74.4993 29.4912C69.5993 29.4912 63.8993 29.8912 60.8993 34.4912C58.2993 38.4912 59.6993 47.9912 59.1993 53.9912C58.5993 61.5912 60.6993 66.8912 66.4993 71.5912C68.1993 72.9912 72.1993 73.7912 74.3993 73.8912C76.5993 73.8912 80.5993 72.9912 82.2993 71.5912C88.1993 66.8912 90.3993 61.6912 89.7993 53.9912Z" fill="#F7AC6F"/>
<path d="M85.2992 59.0914C84.8992 53.5914 88.6992 46.6914 86.2992 42.9914C83.4992 38.7914 78.3992 36.6914 73.8992 36.6914C69.3992 36.6914 65.1992 39.1914 62.3992 43.4914C59.9992 47.0914 64.3992 53.4914 63.5992 58.9914C62.4992 65.9914 61.7992 66.5914 67.1992 70.8914C68.7992 72.1914 72.3992 72.9914 74.4992 72.9914C76.5992 72.9914 80.1992 72.1914 81.7992 70.8914C87.0992 66.4914 85.8992 66.0914 85.2992 59.0914Z" fill="#F7AC6F"/>
<path d="M93.0996 33.1914C92.7996 32.1914 89.7996 28.1914 89.7996 28.1914L84.5996 23.5914C84.5996 23.5914 75.2996 20.5914 73.7996 20.1914C70.2996 19.0914 65.2996 23.0914 65.2996 23.0914L62.3996 26.0914L62.2996 25.1914C62.2996 25.1914 57.1996 29.6914 55.9996 35.3914C55.1996 38.7914 55.7996 46.8914 56.7996 49.3914C56.7996 49.3914 58.5996 50.7914 59.1996 50.6914C59.0996 48.0914 60.1996 44.4914 60.1996 42.5914C60.6996 40.9914 64.5996 34.5914 66.3996 33.9914C68.2996 32.0914 73.7996 34.3914 73.7996 34.3914L77.5996 32.9914C77.5996 32.9914 78.4996 34.4914 78.9996 34.6914C79.8996 35.0914 82.8996 34.3914 82.8996 34.3914C87.1996 36.7914 88.3996 43.4914 88.3996 43.4914C88.3996 43.4914 89.5996 48.0914 89.4996 50.6914C90.0996 50.7914 92.2996 49.3914 92.2996 49.3914C92.6996 46.2914 94.4996 38.1914 93.0996 33.1914Z" fill="#00314E"/>
<path d="M101 145.492L102.9 141.592L102.7 136.392L110.9 83.6916L97.1 77.3916L75.8 86.6916L74.4 93.7916L73.1 86.6916L51.8 77.3916L38 83.6916L46.2 136.392L46 141.592L47.9 145.492L47.4 150.392L42.9 167.392C42.9 167.392 51.1 170.492 74.5 170.492C97.8 170.492 104.7 167.392 104.7 167.392L101.5 150.392L101 145.492Z" fill="#FCE587"/>
<path d="M70.8998 83.3916L73.0998 86.6916L69.5998 85.4916L65.9998 90.8916L51.7998 77.3916L59.1998 71.8916L70.8998 83.3916Z" fill="#FDD36A"/>
<path d="M43.7997 129.691L44.5997 125.891L37.9997 83.6914L33.5997 89.6914L22.6997 124.791L43.7997 129.691Z" fill="#FDD36A"/>
<path d="M77.9998 83.3916L75.7998 86.6916L79.2998 85.4916L82.8998 90.8916L97.1998 77.3916L89.6998 71.8916L77.9998 83.3916Z" fill="#FDD36A"/>
<path d="M48.1998 144.491C53.6998 149.591 64.5998 145.891 69.8998 150.191C63.6998 153.291 48.4998 150.591 58.7998 160.491C54.7998 160.591 51.2998 159.091 47.2998 159.391C47.5998 155.891 48.9998 152.091 48.3998 148.991L48.1998 144.491Z" fill="#FDD36A"/>
<path d="M100.9 149.392C98.5999 154.092 91.7999 153.592 86.8999 154.492C89.1999 157.092 94.3999 156.592 98.2999 156.692C97.6999 157.292 96.9999 158.192 96.0999 158.892C97.4999 159.292 101.7 159.492 102 159.492L100.9 149.392Z" fill="#FDD36A"/>
<path d="M40.1999 142.592L21.3999 141.292L24.9999 125.292L43.7999 129.692L40.1999 142.592Z" fill="#F7995A"/>
<path d="M49.9998 172.692L54.9998 174.292L45.9998 179.692L42.8998 183.492C42.8998 183.492 18.9998 153.992 21.3998 141.292C27.6998 133.492 40.1998 142.592 40.1998 142.592L49.9998 172.692Z" fill="#F7AC6F"/>
<path d="M105.1 129.691L104.3 125.891L110.9 83.6914L115.3 89.6914L126.3 124.791L105.1 129.691Z" fill="#FDD36A"/>
<path d="M108.7 142.592L127.5 141.292L124 125.292L105.1 129.692L108.7 142.592Z" fill="#F7995A"/>
<path d="M98.8999 172.692L93.8999 174.292L102.9 179.692L106 183.492C106 183.492 129.9 153.992 127.5 141.292C121.2 133.492 108.7 142.592 108.7 142.592L98.8999 172.692Z" fill="#F7AC6F"/>
<path d="M79.0015 142.319C81.7353 148.745 89.3293 151.666 96.012 149.037C102.695 146.408 105.732 139.106 102.998 132.681C100.265 126.255 92.6707 123.334 85.988 125.963C79.3053 128.592 76.2677 135.894 79.0015 142.319Z" fill="url(#paint0_radial)"/>
<path d="M36.1171 141.09C39.1663 148.544 47.6366 151.932 55.0903 148.883C62.5441 145.834 65.9322 137.363 62.8829 129.91C59.8337 122.456 51.3634 119.068 43.9097 122.117C36.4559 125.166 33.0678 133.637 36.1171 141.09Z" fill="url(#paint1_radial)"/>
<path d="M75.1002 42.8914C75.1002 44.3914 74.6002 45.5914 73.9002 45.5914C73.3002 45.5914 72.7002 44.3914 72.7002 42.8914C72.7002 41.3914 73.9002 40.1914 73.9002 40.1914C73.9002 40.1914 75.1002 41.3914 75.1002 42.8914Z" fill="#FEEEE0"/>
<path d="M88.6002 56.3914C88.6002 57.8914 88.1002 59.0914 87.4002 59.0914C86.7002 59.0914 86.2002 57.8914 86.2002 56.3914C86.2002 54.8914 87.4002 53.6914 87.4002 53.6914C87.4002 53.6914 88.6002 54.9914 88.6002 56.3914Z" fill="#FEEEE0"/>
<path d="M63.8004 62.8914C63.8004 64.3914 63.3004 65.5914 62.6004 65.5914C62.0004 65.5914 61.4004 64.3914 61.4004 62.8914C61.4004 61.3914 62.6004 60.1914 62.6004 60.1914C62.6004 60.1914 63.8004 61.3914 63.8004 62.8914Z" fill="#FEEEE0"/>
<path d="M66.4005 72.1912C66.4005 73.6912 65.9005 74.8912 65.2005 74.8912C64.6005 74.8912 64.0005 73.6912 64.0005 72.1912C64.0005 70.6912 65.2005 69.4912 65.2005 69.4912C65.2005 69.4912 66.4005 70.6912 66.4005 72.1912Z" fill="#FEEEE0"/>
</g>
<defs>
<radialGradient id="paint0_radial" cx="0" cy="0" r="1" gradientUnits="userSpaceOnUse" gradientTransform="translate(90.9268 137.666) rotate(158.62) scale(12.8839 12.5227)">
<stop stop-color="#FF5748"/>
<stop offset="1" stop-color="#ECAF8D" stop-opacity="0.16"/>
</radialGradient>
<radialGradient id="paint1_radial" cx="0" cy="0" r="1" gradientUnits="userSpaceOnUse" gradientTransform="translate(49.4184 135.693) rotate(157.846) scale(14.4482)">
<stop stop-color="#FF5748"/>
<stop offset="1" stop-color="#ECAF8D" stop-opacity="0.16"/>
</radialGradient>
</defs>
</svg>
