<svg width="136" height="136" viewBox="0 0 136 136" fill="none" xmlns="http://www.w3.org/2000/svg">
<circle cx="68" cy="68" r="68" fill="#579B46"/>
<path fill-rule="evenodd" clip-rule="evenodd" d="M67.5 14.6482C38.3107 14.6482 14.6482 38.3107 14.6482 67.5C14.6482 96.6893 38.3107 120.352 67.5 120.352C96.6893 120.352 120.352 96.6893 120.352 67.5C120.352 38.3107 96.6893 14.6482 67.5 14.6482ZM6 67.5C6 33.5345 33.5345 6 67.5 6C101.466 6 129 33.5345 129 67.5C129 101.466 101.466 129 67.5 129C33.5345 129 6 101.466 6 67.5Z" fill="white"/>
<path d="M88 107.769C88 107.923 88 108.077 87.9181 108.308C87.9181 108.538 87.8362 108.692 87.6724 108.923C87.5086 109.154 87.3448 109.308 87.181 109.462C86.9352 109.615 86.6895 109.769 86.4438 109.846C86.1162 109.923 85.8705 110 85.5429 110C84.8876 110 84.2324 109.846 83.4952 109.462L83.6591 109C84.0686 109.385 84.6419 109.615 85.5429 109.615C85.7886 109.615 86.0343 109.615 86.28 109.538C86.5257 109.462 86.6895 109.385 86.7714 109.308C86.9352 109.231 87.0172 109.077 87.0991 109C87.181 108.846 87.2629 108.769 87.3448 108.615C87.4267 108.538 87.4267 108.385 87.5086 108.231C87.5086 108.077 87.5905 108 87.5905 107.923C87.5905 107.846 87.5905 107.846 87.5905 107.769V107.077C87.5086 107.231 87.4267 107.308 87.2629 107.462C87.181 107.615 87.0171 107.692 86.8533 107.846C86.6895 108 86.5257 108.077 86.28 108.154C86.0343 108.231 85.7886 108.231 85.5429 108.231C85.2971 108.231 84.9695 108.154 84.7238 108.077C84.4781 108 84.1505 107.846 83.9048 107.692C83.659 107.538 83.4133 107.308 83.2495 107C83.0857 106.692 83.0038 106.385 83.0038 106.077C83.0038 105.692 83.0857 105.385 83.3314 105C83.4952 104.615 83.8229 104.385 84.1505 104.154C84.56 103.923 84.9695 103.769 85.3791 103.769C85.6248 103.769 85.8705 103.769 86.1162 103.846C86.3619 103.923 86.5257 104 86.6895 104C86.8533 104.077 86.9352 104.154 87.0991 104.308C87.2629 104.462 87.3448 104.538 87.3448 104.615C87.4267 104.692 87.4267 104.769 87.5086 104.846V104.923V103.923H88V107.769V107.769ZM87.4267 105.538C87.4267 105.538 87.4267 105.462 87.3448 105.385C87.2629 105.308 87.2629 105.154 87.181 105.077C87.099 105 87.0172 104.923 86.9352 104.769C86.8533 104.615 86.6895 104.538 86.5257 104.462C86.3619 104.385 86.1981 104.308 85.9524 104.231C85.7067 104.154 85.461 104.154 85.2152 104.154C84.8057 104.154 84.3962 104.231 84.1505 104.462C83.8229 104.692 83.659 104.923 83.4952 105.231C83.4133 105.538 83.3314 105.846 83.4133 106.231C83.4952 106.615 83.5772 106.923 83.8229 107.154C84.1505 107.538 84.56 107.769 85.0514 107.769C85.5429 107.846 86.0343 107.769 86.4438 107.538C86.8533 107.308 87.181 106.923 87.4267 106.462V106.385V105.538V105.538ZM77.68 108.538H77.1886V103.769H77.68V104.615C78.0895 104 78.6629 103.692 79.4 103.692C80.1371 103.692 80.6286 103.846 80.9562 104.231C81.2838 104.615 81.5295 105.077 81.5295 105.769V108.538H81.0381V105.923C81.0381 104.692 80.4648 104.077 79.3181 104.077C78.581 104.077 78.0076 104.462 77.68 105.308V108.538ZM75.7143 108.538H75.2229V103.769H75.7143V104.692V108.538ZM75.141 103.154H75.7962V102.385H75.141V103.154ZM73.9124 103.692C73.5029 103.692 73.1752 103.769 72.7657 104C72.3562 104.154 72.0286 104.538 71.701 105.077V104.615V103.692H71.2914V108.462H71.7829V106.154C71.8648 105.769 71.9467 105.462 72.1105 105.231C72.2743 105 72.4381 104.769 72.6019 104.615C72.7657 104.462 72.9295 104.385 73.1752 104.308C73.421 104.231 73.5029 104.154 73.6667 104.154C73.7486 104.154 73.9124 104.154 73.9943 104.154V103.692H73.9124ZM69.3257 103.769H69.8171V108.538H69.3257V107.692C68.9162 108.308 68.3429 108.615 67.6057 108.615C66.8686 108.615 66.3772 108.462 66.0495 108.077C65.7219 107.692 65.4762 107.231 65.4762 106.538V103.769H65.9676V106.385C65.9676 107.615 66.541 108.231 67.6876 108.231C68.4248 108.231 68.9981 107.846 69.3257 107V103.769ZM62.8552 102.231H62.3638V103.769H61.6267V104.154H62.3638V106.385V106.462C62.3638 106.692 62.3638 106.923 62.3638 107C62.3638 107.154 62.4457 107.308 62.4457 107.538C62.5276 107.769 62.6095 108 62.7733 108.077C62.8552 108.154 62.9371 108.231 63.019 108.231C63.101 108.308 63.1829 108.308 63.2648 108.385C63.3467 108.385 63.4286 108.462 63.5105 108.462C63.5924 108.462 63.6743 108.462 63.7562 108.462C63.8381 108.462 63.92 108.462 64.0019 108.462C64.0838 108.462 64.1657 108.462 64.1657 108.462C64.2476 108.462 64.2476 108.462 64.3295 108.462C64.4114 108.462 64.4114 108.462 64.4933 108.462H64.5752H64.6571V108.077C64.0019 108.308 63.4286 108.231 63.1829 107.923C63.101 107.846 63.101 107.769 63.019 107.692C63.019 107.615 62.9372 107.538 62.9372 107.462C62.9372 107.385 62.9372 107.308 62.9372 107.231C62.9372 107.154 62.9372 107.077 62.9372 107C62.9372 106.923 62.9372 106.846 62.9372 106.769C62.9372 106.692 62.9372 106.538 62.9372 106.538V106.462V104.231H64.6571V103.846H62.9372V102.231H62.8552ZM60.6438 103.692C60.2343 103.692 59.9067 103.769 59.4972 104C59.0876 104.154 58.76 104.538 58.4324 105.077V104.615V103.692H57.941V108.462H58.4324V106.154C58.5143 105.769 58.5962 105.462 58.76 105.231C58.9238 105 59.0876 104.769 59.2514 104.615C59.4152 104.462 59.5791 104.385 59.8248 104.308C60.0705 104.231 60.1524 104.154 60.3162 104.154C60.3981 104.154 60.5619 104.154 60.6438 104.154V103.692V103.692ZM56.0571 103.769H56.5486V108.538H56.0571V107.692C55.6476 108.308 55.0743 108.615 54.3372 108.615C53.6 108.615 53.1086 108.462 52.781 108.077C52.4533 107.692 52.2076 107.231 52.2076 106.538V103.769H52.6991V106.385C52.6991 107.615 53.2724 108.231 54.419 108.231C55.1562 108.231 55.7295 107.846 56.0571 107V103.769ZM45.4914 102.692L50.4876 108.538H50.8152V102H50.3238V107.615L45.4914 102H45V108.538H45.4914V102.692Z" fill="#F8F8F8"/>
<path d="M92 89V29H80.6531C89.3878 43.4293 82.8571 61.4457 82.8571 61.4457C82.8571 61.4457 55.9184 53.212 56.1633 29H40V89H57.3878C42.2857 74.2446 50.7755 50.9293 50.7755 50.9293C50.7755 50.9293 81.7959 60.3859 76.9796 89H92Z" fill="#F8F8F8"/>
</svg>
