<svg width="136" height="136" viewBox="0 0 136 136" fill="none" xmlns="http://www.w3.org/2000/svg">
<circle cx="68" cy="68" r="68" fill="#B61D22"/>
<path fill-rule="evenodd" clip-rule="evenodd" d="M68 13.7185C38.5734 13.7185 14.7185 37.5734 14.7185 67C14.7185 96.4265 38.5734 120.282 68 120.282C97.4266 120.282 121.282 96.4265 121.282 67C121.282 37.5734 97.4266 13.7185 68 13.7185ZM6 67C6 32.7583 33.7584 5 68 5C102.242 5 130 32.7583 130 67C130 101.242 102.242 129 68 129C33.7583 129 6 101.242 6 67Z" fill="#EFC9C3"/>
<path d="M92 39.733C86.7115 31.4769 77.4364 26 66.8595 26C50.3432 26 37 39.406 37 56C37 72.594 50.3432 86 66.8595 86C73.6124 86 79.8772 83.7112 84.8402 79.9509C77.4364 83.3024 66.7781 79.2153 59.8624 69.8965C52.1331 59.515 51.8891 46.6812 59.2929 41.1226C65.7204 36.2997 75.7278 38.5886 83.2944 46.0272C84.0266 44.9646 85.3284 43.6567 87.6065 42.1853C89.5592 40.9592 90.9423 40.2235 92 39.733Z" fill="white"/>
<path d="M92.1606 105.717H91.6704V101.038H92.1606V101.868C92.569 101.264 93.1409 100.962 93.8761 100.962C94.6113 100.962 95.1014 101.113 95.4282 101.491C95.7549 101.868 96 102.321 96 103V105.717H95.5099V103.151C95.5099 101.943 94.938 101.34 93.7944 101.34C93.0592 101.34 92.4873 101.717 92.1606 102.547V105.717ZM88.7296 105.566C89.0563 105.415 89.3014 105.264 89.5465 105.038C89.7916 104.811 89.9549 104.585 90.1183 104.283C90.2817 103.981 90.2817 103.679 90.2817 103.377C90.2817 103.075 90.2 102.698 90.1183 102.472C89.9549 102.17 89.7916 101.943 89.5465 101.717C89.3014 101.491 89.0563 101.34 88.7296 101.189C88.4028 101.038 88.0761 100.962 87.6676 100.962C87.2592 100.962 86.9324 101.038 86.6056 101.189C86.2789 101.34 86.0338 101.491 85.7887 101.717C85.5437 101.943 85.3803 102.17 85.2169 102.472C85.0535 102.774 85.0535 103.075 85.0535 103.377C85.0535 103.679 85.1352 104.057 85.2169 104.283C85.3803 104.585 85.5437 104.811 85.7887 105.038C86.0338 105.264 86.2789 105.415 86.6056 105.566C86.9324 105.717 87.2592 105.792 87.6676 105.792C88.0761 105.792 88.4028 105.717 88.7296 105.566ZM86.9324 105.189C86.6873 105.113 86.4423 104.962 86.2789 104.736C86.1155 104.585 85.9521 104.358 85.8704 104.057C85.7887 103.83 85.707 103.528 85.707 103.226C85.707 102.925 85.7887 102.698 85.8704 102.472C85.9521 102.245 86.1155 102.019 86.2789 101.868C86.4423 101.717 86.6873 101.566 86.9324 101.415C87.1775 101.34 87.5042 101.264 87.7493 101.264C88.0761 101.264 88.3211 101.34 88.5662 101.415C88.8113 101.491 89.0563 101.642 89.2197 101.868C89.3831 102.019 89.5465 102.245 89.6282 102.547C89.7099 102.774 89.7916 103.075 89.7916 103.377C89.7916 103.679 89.7099 103.906 89.6282 104.132C89.5465 104.358 89.3831 104.585 89.2197 104.736C89.0563 104.887 88.8113 105.038 88.5662 105.189C88.3211 105.264 87.9944 105.34 87.7493 105.34C87.4225 105.34 87.1775 105.34 86.9324 105.189ZM83.7465 105.717H83.2563V101.038H83.7465V101.943V105.717ZM83.1746 100.358H83.8282V99.6038H83.1746V100.358ZM81.7859 101.415L81.5408 101.34C81.3775 101.264 81.2141 101.189 80.969 101.113C80.7239 101.038 80.4789 100.962 80.2338 100.962C79.8254 100.887 79.4169 100.962 79.0901 101.113C78.7634 101.264 78.5183 101.566 78.3549 101.868C78.2732 102.245 78.2732 102.547 78.5183 102.849C78.7634 103.151 79.0901 103.302 79.5803 103.453C79.907 103.528 80.2338 103.604 80.4789 103.679C80.7239 103.755 80.8873 103.83 81.1324 103.981C81.2958 104.132 81.3775 104.283 81.3775 104.434C81.3775 104.736 81.2958 104.962 81.0507 105.113C80.8056 105.264 80.5606 105.415 80.0704 105.415C79.8254 105.415 79.4986 105.34 79.1718 105.264C78.8451 105.189 78.6817 105.038 78.5183 104.962C78.4366 104.887 78.2732 104.811 78.2732 104.811L78.0282 105.189C78.1099 105.264 78.2732 105.415 78.6 105.491C78.8451 105.566 79.1718 105.717 79.4986 105.717C79.8254 105.792 80.1521 105.792 80.4789 105.717C80.8056 105.717 81.1324 105.566 81.3775 105.34C81.6225 105.113 81.7859 104.811 81.7859 104.434C81.7859 104.132 81.7859 103.906 81.6225 103.679C81.4592 103.453 81.2141 103.302 80.969 103.226C80.7239 103.151 80.3972 103 80.0704 102.925C79.7437 102.849 79.4986 102.774 79.2535 102.623C79.0084 102.547 78.8451 102.396 78.7634 102.245C78.6817 102.094 78.6817 101.868 78.8451 101.642C79.0084 101.415 79.1718 101.34 79.4169 101.264C79.662 101.189 79.907 101.189 80.0704 101.189C80.3155 101.189 80.4789 101.264 80.7239 101.34C80.969 101.415 81.1324 101.491 81.2141 101.491C81.2958 101.491 81.3775 101.566 81.3775 101.566L81.7859 101.415ZM77.2113 101.415L76.9662 101.34C76.8028 101.264 76.6394 101.189 76.3944 101.113C76.1493 101.038 75.9042 100.962 75.6592 100.962C75.2507 100.887 74.8423 100.962 74.5155 101.113C74.1887 101.264 73.9437 101.566 73.7803 101.868C73.6986 102.245 73.6986 102.547 73.9437 102.849C74.1887 103.151 74.5155 103.302 75.0056 103.453C75.3324 103.528 75.6592 103.604 75.9042 103.679C76.1493 103.755 76.3127 103.83 76.5578 103.981C76.7211 104.132 76.8028 104.283 76.8028 104.434C76.8028 104.736 76.7211 104.962 76.4761 105.113C76.231 105.264 75.9859 105.415 75.4958 105.415C75.2507 105.415 74.9239 105.34 74.5972 105.264C74.2704 105.189 74.107 105.038 73.9437 104.962C73.862 104.887 73.6986 104.811 73.6986 104.811L73.4535 105.189C73.5352 105.264 73.6986 105.415 74.0254 105.491C74.3521 105.566 74.5972 105.717 74.924 105.717C75.2507 105.792 75.5775 105.792 75.9042 105.717C76.231 105.717 76.5577 105.566 76.8028 105.34C77.0479 105.113 77.2113 104.811 77.2113 104.434C77.2113 104.132 77.2113 103.906 77.0479 103.679C76.8845 103.453 76.6394 103.302 76.3944 103.226C76.1493 103.151 75.8225 103 75.4958 102.925C75.169 102.849 74.924 102.774 74.6789 102.623C74.4338 102.547 74.2704 102.396 74.1887 102.245C74.107 102.094 74.107 101.868 74.2704 101.642C74.4338 101.415 74.5972 101.34 74.8423 101.264C75.0873 101.189 75.3324 101.189 75.4958 101.189C75.7409 101.189 75.9042 101.264 76.1493 101.34C76.3944 101.415 76.5577 101.491 76.6394 101.491C76.7211 101.566 76.8028 101.566 76.8028 101.566L77.2113 101.415ZM68.9606 105.189C68.7155 105.113 68.4704 104.962 68.307 104.736C68.1437 104.585 67.9803 104.358 67.8986 104.057C67.8169 103.83 67.7352 103.528 67.7352 103.226C67.7352 102.925 67.8169 102.698 67.8986 102.472C67.9803 102.245 68.1437 102.019 68.307 101.868C68.4704 101.717 68.7155 101.566 68.9606 101.415C69.2056 101.34 69.5324 101.264 69.7775 101.264C70.1042 101.264 70.3493 101.34 70.5944 101.415C70.8394 101.491 71.0845 101.642 71.2479 101.868C71.4113 102.019 71.5747 102.245 71.6563 102.547C71.738 102.774 71.8197 103.075 71.8197 103.377C71.8197 103.679 71.738 103.906 71.6563 104.132C71.5747 104.358 71.4113 104.585 71.2479 104.736C71.0845 104.887 70.8394 105.038 70.5944 105.189C70.3493 105.264 70.0225 105.34 69.7775 105.34C69.4507 105.34 69.2056 105.34 68.9606 105.189ZM71.5747 105.038C71.6563 104.962 71.738 104.887 71.8197 104.811V105.717H72.3099V101.038H71.8197V101.868C71.738 101.792 71.6563 101.717 71.5747 101.642C71.3296 101.415 71.0845 101.264 70.7578 101.113C70.431 100.962 70.1042 100.887 69.6958 100.887C69.2873 100.887 68.9606 100.962 68.6338 101.113C68.307 101.264 68.062 101.415 67.8169 101.642C67.5718 101.868 67.4085 102.094 67.2451 102.396C67.0817 102.698 67.0817 103 67.0817 103.302C67.0817 103.604 67.1634 103.981 67.2451 104.208C67.4085 104.509 67.5718 104.736 67.8169 104.962C68.062 105.189 68.307 105.34 68.6338 105.491C68.9606 105.642 69.2873 105.717 69.6958 105.717C70.1042 105.717 70.431 105.642 70.7578 105.491C71.0845 105.491 71.4113 105.264 71.5747 105.038ZM60.8732 101.038H61.3634V102.019C61.5268 101.792 61.8535 101.491 62.262 101.264C62.6704 101.038 63.0789 100.887 63.4056 100.887C63.6507 100.887 63.9775 100.962 64.2225 101.038C64.4676 101.113 64.7944 101.264 64.9577 101.415C65.2028 101.566 65.3662 101.792 65.6113 102.094C65.7746 102.396 65.8563 102.698 65.938 103C66.0197 103.755 65.7746 104.358 65.3662 104.887C64.8761 105.415 64.3042 105.717 63.569 105.717C63.3239 105.717 62.9972 105.641 62.7521 105.566C62.507 105.491 62.262 105.34 62.0986 105.264C61.9352 105.113 61.7718 105.038 61.6901 104.887C61.6085 104.811 61.5268 104.66 61.4451 104.585V107H60.9549V101.038H60.8732ZM61.3634 104.208C61.3634 104.208 61.3634 104.283 61.4451 104.358C61.5268 104.434 61.5268 104.509 61.6085 104.585C61.6901 104.66 61.7718 104.736 61.8535 104.811C61.9352 104.887 62.0986 104.962 62.262 105.038C62.4254 105.113 62.5887 105.189 62.8338 105.189C63.0789 105.264 63.3239 105.264 63.569 105.264C63.9775 105.264 64.3859 105.113 64.631 104.887C64.9578 104.66 65.1211 104.358 65.2845 103.981C65.3662 103.604 65.4479 103.226 65.3662 102.849C65.2845 102.472 65.2028 102.094 64.9577 101.868C64.631 101.491 64.2225 101.34 63.8141 101.189C63.3239 101.113 62.9155 101.113 62.4254 101.34C62.0169 101.491 61.6902 101.792 61.4451 102.17V103.075V104.208H61.3634ZM52.2141 105.717H51.7239V101.038H52.2141V101.868C52.6225 101.264 53.1944 100.962 53.9296 100.962C54.4197 100.962 54.7465 101.038 55.0732 101.264C55.3183 101.491 55.5634 101.717 55.7268 102.094C55.8085 102.019 55.8085 101.868 55.8901 101.792C55.9718 101.717 56.0535 101.566 56.2169 101.415C56.3803 101.264 56.5437 101.189 56.7887 101.038C57.0338 100.962 57.2789 100.887 57.524 100.887C57.8507 100.887 58.1775 100.962 58.4225 101.038C58.6676 101.189 58.9127 101.34 58.9944 101.491C59.1578 101.717 59.2394 101.943 59.3211 102.17C59.4028 102.396 59.4028 102.623 59.4028 102.925V105.642H58.9127V103.075V103C58.9127 102.925 58.9127 102.849 58.9127 102.774C58.9127 102.698 58.9127 102.547 58.831 102.396C58.831 102.245 58.7493 102.17 58.6676 102.019C58.5859 101.868 58.5042 101.792 58.4225 101.642C58.3408 101.566 58.1775 101.415 58.0141 101.415C57.8507 101.34 57.6056 101.34 57.4423 101.34C56.6254 101.34 56.1352 101.792 55.8085 102.623C55.8085 102.774 55.8085 102.849 55.8085 103V105.717H55.3183V103.151V103.075C55.3183 103 55.3183 102.925 55.3183 102.849C55.3183 102.774 55.3183 102.623 55.2366 102.472C55.2366 102.321 55.1549 102.245 55.0732 102.094C54.9916 101.943 54.9099 101.868 54.8282 101.717C54.7465 101.641 54.5831 101.491 54.4197 101.491C54.2563 101.415 54.0113 101.415 53.8479 101.415C53.1127 101.415 52.5409 101.792 52.2141 102.623V105.717V105.717ZM48.7831 105.566C49.1099 105.415 49.3549 105.264 49.6 105.038C49.8451 104.811 50.0085 104.585 50.1718 104.283C50.3352 103.981 50.3352 103.679 50.3352 103.377C50.3352 103.075 50.2535 102.698 50.1718 102.472C50.0085 102.17 49.8451 101.943 49.6 101.717C49.3549 101.491 49.1099 101.34 48.7831 101.189C48.4563 101.038 48.1296 100.962 47.7211 100.962C47.3127 100.962 46.9859 101.038 46.6592 101.189C46.3324 101.34 46.0873 101.491 45.8423 101.717C45.5972 101.943 45.4338 102.17 45.2704 102.472C45.107 102.774 45.1071 103.075 45.1071 103.377C45.1071 103.679 45.1887 104.057 45.2704 104.283C45.4338 104.585 45.5972 104.811 45.8423 105.038C46.0873 105.264 46.3324 105.415 46.6592 105.566C46.9859 105.717 47.3127 105.792 47.7211 105.792C48.1296 105.792 48.4563 105.717 48.7831 105.566ZM46.9042 105.189C46.6592 105.113 46.4141 104.962 46.2507 104.736C46.0873 104.585 45.9239 104.358 45.8423 104.057C45.7606 103.83 45.6789 103.528 45.6789 103.226C45.6789 102.925 45.7606 102.698 45.8423 102.472C45.9239 102.245 46.0873 102.019 46.2507 101.868C46.4141 101.717 46.6592 101.566 46.9042 101.415C47.1493 101.34 47.4761 101.264 47.7211 101.264C48.0479 101.264 48.293 101.34 48.538 101.415C48.7831 101.491 49.0282 101.642 49.1916 101.868C49.3549 102.019 49.5183 102.245 49.6 102.547C49.6817 102.849 49.7634 103.075 49.7634 103.377C49.7634 103.679 49.6817 103.906 49.6 104.132C49.5183 104.358 49.3549 104.585 49.1916 104.736C49.0282 104.887 48.7831 105.038 48.538 105.189C48.293 105.34 47.9662 105.34 47.7211 105.34C47.4761 105.34 47.1493 105.34 46.9042 105.189ZM44.1268 100.132V100.887C44.0451 100.736 43.8817 100.585 43.7183 100.434C43.5549 100.283 43.3099 100.132 43.0648 99.9811C42.9831 99.9057 42.8197 99.9056 42.738 99.8302C42.4113 99.6792 42.0028 99.6038 41.5127 99.6038C41.1042 99.6038 40.6958 99.6792 40.2873 99.8302C39.9606 99.9811 39.6338 100.208 39.3887 100.434C39.1437 100.66 38.8986 100.962 38.8169 101.34C38.6535 101.717 38.5718 102.094 38.5718 102.472C38.5718 102.849 38.6535 103.226 38.8169 103.604C38.9803 103.981 39.1437 104.283 39.4704 104.509C39.7155 104.736 40.0423 104.962 40.369 105.113C40.6958 105.264 41.1042 105.34 41.5944 105.34C42.0028 105.34 42.4113 105.264 42.738 105.113C42.8197 105.038 42.9831 105.038 43.0648 104.962C43.3099 104.811 43.4732 104.66 43.7183 104.509C43.8817 104.358 43.9634 104.208 44.0451 104.057V104.811C43.8 105.113 43.4732 105.264 43.0648 105.491H42.9831C42.5747 105.642 42.0845 105.792 41.5127 105.792C41.0225 105.792 40.5324 105.717 40.0423 105.491C39.6338 105.34 39.2254 105.038 38.9803 104.736C38.6535 104.434 38.4085 104.057 38.2451 103.679C38.0817 103.302 38 102.849 38 102.396C38 101.943 38.0817 101.566 38.2451 101.113C38.4085 100.736 38.6535 100.358 38.9803 100.057C39.3071 99.7547 39.6338 99.5283 40.0423 99.3019C40.4507 99.1509 40.9408 99 41.5127 99C42.0028 99 42.493 99.0754 42.9831 99.3019H43.0648C43.4732 99.6037 43.8 99.8302 44.1268 100.132Z" fill="white"/>
<path fill-rule="evenodd" clip-rule="evenodd" d="M40.5072 98.9872C40.5053 98.9885 40.5034 98.9897 40.5015 98.9909C40.9457 98.8011 41.395 98.7042 41.8478 98.7042C42.3738 98.7042 42.8364 98.7978 43.2208 99.0036L43.2662 99.0279L43.2892 99.0526C43.2997 99.0573 43.3147 99.0629 43.3444 99.0735L43.3487 99.075C43.3564 99.0778 43.3655 99.081 43.3754 99.0847C43.3508 99.0638 43.3259 99.0426 43.3006 99.0211H43.254L43.188 98.9858C42.7477 98.75 42.3046 98.669 41.8478 98.669C41.342 98.669 40.9002 98.8203 40.5072 98.9872ZM40.2519 98.376C40.6753 98.1947 41.2127 98 41.8478 98C42.3557 98 42.8762 98.0873 43.3997 98.3521H43.5196L43.6052 98.4254C43.6731 98.4836 43.7395 98.5399 43.8046 98.5952C44.1246 98.8667 44.4134 99.1118 44.6997 99.4184L44.7912 99.5164V100.535L44.1994 100.685C44.1448 100.568 44.0237 100.433 43.8468 100.244C43.709 100.096 43.4923 99.9396 43.2367 99.7572L43.2109 99.7388L43.2019 99.7291C43.1914 99.7244 43.1764 99.7187 43.1467 99.7082L43.1424 99.7066C43.1143 99.6966 43.0699 99.6808 43.0263 99.6596C42.9925 99.6431 42.9508 99.6196 42.909 99.5852C42.6399 99.4494 42.2905 99.3732 41.8478 99.3732C41.4834 99.3732 41.1156 99.4502 40.7428 99.6082C40.4506 99.7666 40.1536 100.005 39.9311 100.244C39.7051 100.486 39.506 100.781 39.441 101.129L39.4354 101.159L39.4247 101.188C39.2739 101.591 39.2004 101.989 39.2004 102.384C39.2004 102.778 39.2739 103.176 39.4247 103.58C39.5857 104.011 39.7241 104.288 39.9798 104.493L39.9976 104.507L40.0133 104.524C40.2387 104.765 40.5407 105.007 40.8365 105.166C41.1098 105.312 41.4694 105.394 41.9301 105.394C42.2892 105.394 42.6369 105.32 42.909 105.182C42.9508 105.148 42.9925 105.124 43.0263 105.108C43.0699 105.087 43.1143 105.071 43.1424 105.061L43.1467 105.059C43.1764 105.049 43.1914 105.043 43.2019 105.038L43.2109 105.029L43.2367 105.01C43.3472 104.931 43.4401 104.852 43.5437 104.763L43.547 104.761C43.641 104.68 43.7442 104.592 43.8665 104.502C43.9787 104.376 44.0394 104.249 44.1172 104.083L44.709 104.232V105.224L44.6466 105.313C44.3932 105.675 44.0593 105.884 43.7267 106.093C43.6746 106.126 43.6225 106.159 43.5707 106.192L43.4965 106.239H43.3874C42.9731 106.414 42.4552 106.592 41.8478 106.592C41.3217 106.592 40.782 106.498 40.2397 106.21C39.7843 106.012 39.3404 105.633 39.0627 105.244C38.7061 104.857 38.4434 104.383 38.269 103.916C38.0871 103.43 38 102.858 38 102.296C38 101.724 38.0903 101.247 38.2627 100.694L38.2656 100.684L38.269 100.675C38.4459 100.202 38.7137 99.7205 39.0781 99.3303C39.4279 98.9558 39.7779 98.6755 40.2071 98.3998L40.2286 98.386L40.2519 98.376ZM83.4668 99.0387L83.7793 98.7042H84.437L84.7495 99.0387V99.919L84.437 100.254H83.7793L83.4668 99.919V99.0387ZM84.0917 99.3732V99.5845H84.1246V99.3732H84.0917ZM56.159 101.268C56.1608 101.265 56.1626 101.263 56.1645 101.26C56.174 101.246 56.185 101.229 56.1977 101.21C56.2523 101.128 56.3258 101.022 56.4262 100.915C56.5732 100.757 56.7338 100.649 56.8956 100.539C56.9469 100.504 56.9983 100.469 57.0494 100.433L57.0842 100.408L57.1435 100.387C57.3764 100.304 57.6646 100.201 57.9627 100.201C58.3388 100.201 58.7036 100.3 58.9659 100.394L59.0055 100.408L59.0464 100.437C59.1654 100.522 59.2982 100.617 59.4117 100.714C59.5164 100.804 59.6377 100.922 59.712 101.069C59.8935 101.366 59.9851 101.66 60.0641 101.914L60.0679 101.926C60.1663 102.242 60.1662 102.554 60.1661 102.884L60.1661 106.081L59.8537 106.416H59.3604L59.0479 106.081V102.736C59.0479 102.651 59.0453 102.545 58.9987 102.445L58.9657 102.375V102.296C58.9657 102.273 58.9628 102.258 58.9473 102.225C58.9373 102.204 58.9253 102.182 58.9054 102.145L58.9035 102.141C58.8839 102.105 58.8593 102.059 58.8343 102.005C58.8028 101.938 58.7716 101.887 58.7304 101.821L58.7283 101.818C58.6944 101.763 58.654 101.698 58.6126 101.617C58.5802 101.583 58.5464 101.55 58.5107 101.523C58.4875 101.505 58.4695 101.494 58.4572 101.489C58.4539 101.487 58.4516 101.486 58.4501 101.486H58.3822L58.3162 101.451C58.2841 101.433 58.2255 101.417 58.1371 101.407C58.0521 101.398 57.9644 101.398 57.8804 101.398C57.5387 101.398 57.2854 101.505 57.0803 101.699C56.8756 101.893 56.6994 102.193 56.5485 102.62V106.169L56.2361 106.504H55.7428L55.4303 106.169V102.824C55.4303 102.739 55.4277 102.633 55.3811 102.533L55.3481 102.463V102.384C55.3481 102.361 55.3452 102.347 55.3297 102.313C55.3197 102.292 55.3077 102.27 55.2878 102.233L55.2859 102.229C55.2663 102.193 55.2417 102.147 55.2167 102.093C55.1852 102.026 55.154 101.975 55.1128 101.909L55.1107 101.906C55.0768 101.851 55.0364 101.786 54.995 101.705C54.9626 101.671 54.9288 101.638 54.8931 101.611C54.8699 101.593 54.8519 101.582 54.8396 101.577C54.8363 101.575 54.834 101.574 54.8325 101.574H54.7646L54.6986 101.539C54.6665 101.521 54.6079 101.505 54.5195 101.495C54.4345 101.486 54.3468 101.486 54.2628 101.486C53.9541 101.486 53.6948 101.576 53.4783 101.757C53.2678 101.932 53.0783 102.209 52.9309 102.62V106.169H52.6185V106.504H52.1251L51.8127 106.169V100.711L52.1251 100.377H52.6185L52.9309 100.711V100.795C53.3228 100.461 53.7966 100.289 54.345 100.289C54.882 100.289 55.2841 100.387 55.6836 100.708L55.7013 100.722L55.726 100.748C55.8656 100.898 56.0185 101.062 56.159 101.268ZM52.4376 101.72V102.152C52.4956 102.019 52.5596 101.894 52.6296 101.779L52.4376 101.72ZM55.9165 102.079L56.0685 102.113C56.038 102.185 56.009 102.259 55.9812 102.335C55.9775 102.324 55.9735 102.314 55.9693 102.303C55.9614 102.218 55.9416 102.145 55.9165 102.079ZM64.2092 101.212C63.77 101.136 63.4389 101.147 63.0355 101.363L63.0239 101.369L63.0118 101.374C62.7037 101.506 62.4372 101.768 62.2216 102.127V104.408L62.198 104.434C62.2328 104.485 62.2544 104.532 62.2683 104.562L62.2708 104.567C62.2913 104.611 62.2928 104.61 62.2945 104.612L62.5412 104.876C62.5516 104.887 62.5833 104.913 62.65 104.954C62.713 104.993 62.787 105.033 62.8711 105.078C63.033 105.164 63.1398 105.218 63.3069 105.218H63.3576L63.4057 105.235C63.5968 105.304 63.7932 105.306 64.0468 105.306C64.3851 105.306 64.7135 105.158 64.8947 104.964L64.9105 104.947L64.9282 104.933C65.1783 104.732 65.3161 104.463 65.4727 104.048C65.5544 103.61 65.6157 103.245 65.5493 102.89C65.5073 102.665 65.4697 102.466 65.4154 102.292C65.3612 102.118 65.2987 101.996 65.2236 101.916L65.2114 101.903L65.2006 101.889C64.9363 101.535 64.6106 101.384 64.2092 101.212ZM62.1394 101.015C62.2707 100.899 62.4157 100.788 62.5706 100.689C62.995 100.416 63.4665 100.201 63.8824 100.201C64.1805 100.201 64.548 100.303 64.8034 100.394C65.0596 100.485 65.4247 100.672 65.6426 100.891C65.8935 101.079 66.076 101.343 66.2641 101.616C66.2932 101.658 66.3225 101.701 66.3522 101.743L66.3691 101.767L66.3817 101.794C66.5616 102.179 66.6508 102.561 66.7314 102.906L66.7398 102.942L66.7421 102.967C66.8332 103.943 66.5558 104.727 66.1099 105.395L66.1018 105.407L66.0928 105.418C65.5547 106.091 64.8981 106.504 64.0468 106.504C63.7487 106.504 63.3811 106.401 63.1258 106.31C62.9758 106.257 62.8331 106.179 62.7153 106.111C62.6589 106.078 62.6123 106.049 62.5714 106.024C62.5164 105.991 62.4717 105.964 62.4272 105.94L62.3818 105.916L62.346 105.877C62.3027 105.831 62.265 105.797 62.2216 105.759V107.665L61.9092 108H61.4158L61.1034 107.665V100.711H61.3336V100.377H61.8269L62.1394 100.711V101.015ZM69.0046 100.5C69.3772 100.301 69.7539 100.201 70.2132 100.201C70.6725 100.201 71.0492 100.301 71.4218 100.5C71.6527 100.624 71.8512 100.751 72.0385 100.907V100.711L72.3509 100.377H72.8442L73.1566 100.711V106.169L72.8442 106.504H72.3509L72.0385 106.169V105.934C72.0016 105.965 71.9633 105.994 71.9238 106.021C71.7649 106.131 71.571 106.218 71.3603 106.236C71.0076 106.414 70.6472 106.504 70.2132 106.504C69.7539 106.504 69.3772 106.404 69.0046 106.204C68.6533 106.016 68.377 105.82 68.1013 105.525C67.8255 105.23 67.6429 104.934 67.4672 104.558L67.4573 104.537L67.4503 104.514C67.3593 104.222 67.2698 103.746 67.2698 103.352L67.2698 103.33C67.2697 102.99 67.2696 102.569 67.4672 102.146C67.6429 101.77 67.8255 101.474 68.1013 101.179C68.377 100.884 68.6533 100.688 69.0046 100.5ZM72.5318 105.054V104.267C72.5165 104.318 72.501 104.368 72.486 104.416L72.4829 104.426C72.4281 104.602 72.345 104.775 72.2488 104.929L72.5318 105.054ZM68.1626 104.528C68.1407 104.464 68.1211 104.396 68.1043 104.326C68.018 104.046 67.9275 103.661 67.9275 103.264C67.9275 102.858 68.0233 102.55 68.1049 102.288L68.1079 102.278C68.0806 102.331 68.0534 102.387 68.0261 102.445C67.8992 102.717 67.8947 102.992 67.8947 103.352C67.8947 103.653 67.9651 104.042 68.0363 104.281C68.0783 104.369 68.1198 104.451 68.1626 104.528ZM72.285 101.847C72.3679 102.001 72.4386 102.178 72.4866 102.378C72.5017 102.427 72.5169 102.479 72.5318 102.534V101.738L72.285 101.847ZM76.2467 100.289C76.5333 100.296 76.8094 100.395 77.0339 100.475L77.0539 100.482C77.3122 100.574 77.4895 100.667 77.6505 100.754L77.8761 100.834L77.8934 101.462L77.4264 101.662L77.3663 101.662L77.3662 101.349C77.3663 101.662 77.3664 101.662 77.3663 101.662L77.3651 101.662L77.3638 101.662L77.3611 101.662L77.3553 101.662C77.3512 101.662 77.3467 101.661 77.3418 101.661C77.3321 101.66 77.3207 101.659 77.308 101.657C77.2826 101.653 77.2512 101.646 77.2161 101.634C77.1707 101.618 77.1201 101.593 77.0688 101.555C77.0572 101.552 77.0466 101.548 77.0372 101.545C76.9944 101.532 76.9491 101.514 76.9071 101.498C76.8849 101.489 76.8625 101.48 76.8397 101.47C76.7705 101.442 76.6969 101.412 76.6097 101.381C76.5407 101.356 76.4831 101.334 76.4328 101.315C76.2731 101.254 76.1878 101.222 76.0507 101.222C75.8839 101.222 75.6846 101.224 75.4918 101.293C75.3759 101.334 75.3049 101.367 75.2477 101.408C75.1946 101.446 75.1404 101.5 75.0774 101.601C74.9674 101.778 74.9886 101.914 75.0147 101.97C75.0607 102.069 75.1612 102.183 75.3273 102.243L75.367 102.257L75.4019 102.282C75.6038 102.426 75.8093 102.503 76.1265 102.587C76.3124 102.637 76.4931 102.71 76.6498 102.777C76.6946 102.797 76.7366 102.815 76.7762 102.832C76.8829 102.879 76.9725 102.918 77.0539 102.947C77.3563 103.055 77.6643 103.272 77.8728 103.607C78.0903 103.956 78.09 104.312 78.0898 104.64C78.0898 104.651 78.0897 104.662 78.0897 104.673C78.0897 105.211 77.886 105.645 77.5871 105.965C77.3056 106.267 76.9171 106.489 76.5015 106.503C76.1468 106.592 75.7902 106.592 75.4355 106.503C75.2347 106.496 75.0638 106.441 74.9179 106.385C74.8689 106.366 74.8246 106.348 74.7828 106.332C74.6827 106.291 74.5971 106.257 74.495 106.229C74.0847 106.12 73.8714 105.893 73.7744 105.789L73.6019 105.605L74.1229 104.675L74.3817 104.813L74.383 104.814L74.3854 104.815L74.3927 104.819C74.3987 104.823 74.407 104.827 74.417 104.833C74.4369 104.845 74.4644 104.861 74.4952 104.881C74.5405 104.91 74.6088 104.956 74.6703 105.013C74.7121 105.038 74.7508 105.064 74.7842 105.088C74.7951 105.095 74.8055 105.102 74.8156 105.109C74.8502 105.134 74.8814 105.155 74.9165 105.178C75.0013 105.232 75.0958 105.283 75.2221 105.316C75.5659 105.408 75.8515 105.482 76.0507 105.482C76.4494 105.482 76.6323 105.352 76.8628 105.187L76.8641 105.186C76.9893 105.097 77.0538 104.966 77.0538 104.673C77.0538 104.62 77.0317 104.531 76.9192 104.403C76.7081 104.255 76.5712 104.184 76.363 104.11C76.1303 104.027 75.8147 103.942 75.4816 103.853L75.47 103.85L75.4586 103.845C74.9491 103.664 74.5441 103.461 74.2386 103.025C73.9131 102.56 73.9287 102.091 74.0178 101.614L74.026 101.57L74.0447 101.53C74.2226 101.149 74.5084 100.723 74.9244 100.5C75.2981 100.3 75.7679 100.195 76.2467 100.289ZM77.2319 103.823C77.1235 103.711 76.9913 103.63 76.8563 103.581C76.754 103.545 76.6367 103.494 76.5237 103.445C76.4877 103.429 76.4522 103.413 76.4177 103.399C76.2661 103.334 76.1179 103.275 75.975 103.236C75.6477 103.149 75.369 103.054 75.0891 102.862C74.9749 102.816 74.8735 102.756 74.7852 102.686C74.9669 102.914 75.2133 103.052 75.645 103.207C75.9661 103.293 76.3032 103.383 76.5606 103.475C76.8155 103.566 76.9963 103.66 77.2319 103.823ZM80.8509 100.289C81.1376 100.296 81.4136 100.395 81.6381 100.475L81.6582 100.482C81.9165 100.574 82.0937 100.667 82.2547 100.754L82.4803 100.834L82.4976 101.462L81.8952 101.72L81.7561 101.571C81.7105 101.566 81.6703 101.554 81.6415 101.545C81.5986 101.532 81.5534 101.514 81.5113 101.498C81.4891 101.489 81.4668 101.48 81.4439 101.47C81.3748 101.442 81.3011 101.412 81.2139 101.381C81.1449 101.356 81.0873 101.334 81.037 101.315C80.8774 101.254 80.792 101.222 80.655 101.222C80.4881 101.222 80.2888 101.224 80.096 101.293C79.9801 101.334 79.9091 101.367 79.8519 101.408C79.7988 101.446 79.7446 101.5 79.6816 101.601C79.5716 101.778 79.5928 101.914 79.6189 101.97C79.665 102.069 79.7654 102.183 79.9316 102.243L79.9713 102.257L80.0061 102.282C80.2081 102.426 80.4135 102.503 80.7307 102.587C80.9167 102.637 81.0973 102.71 81.254 102.777C81.2988 102.797 81.3408 102.815 81.3804 102.832C81.4871 102.879 81.5767 102.918 81.6582 102.947C81.9606 103.055 82.2686 103.272 82.4771 103.607C82.6945 103.956 82.6943 104.312 82.694 104.64C82.694 104.651 82.694 104.662 82.694 104.673C82.694 105.211 82.4902 105.645 82.1914 105.965C81.9098 106.267 81.5213 106.489 81.1058 106.503C80.751 106.592 80.3944 106.592 80.0397 106.503C79.8409 106.496 79.654 106.443 79.4976 106.387C79.4134 106.357 79.3331 106.325 79.2627 106.296L79.2538 106.292C79.1894 106.266 79.1355 106.244 79.0866 106.226C78.6845 106.115 78.4747 105.892 78.3786 105.789L78.2061 105.605L78.7271 104.675L78.9859 104.813L78.9896 104.815L78.9969 104.819C79.003 104.823 79.0112 104.827 79.0213 104.833C79.0412 104.845 79.0686 104.861 79.0994 104.881C79.1447 104.91 79.213 104.956 79.2745 105.013C79.3163 105.038 79.355 105.064 79.3884 105.088C79.3993 105.095 79.4097 105.102 79.4198 105.109C79.4544 105.134 79.4856 105.155 79.5208 105.178C79.6056 105.232 79.7001 105.283 79.8263 105.316C80.1702 105.408 80.4557 105.482 80.655 105.482C81.0537 105.482 81.2366 105.352 81.4671 105.187L81.4683 105.186C81.5935 105.097 81.658 104.966 81.658 104.673C81.658 104.62 81.6359 104.531 81.5234 104.403C81.3123 104.255 81.1754 104.184 80.9673 104.11C80.7345 104.027 80.4189 103.942 80.0859 103.853L80.0742 103.85L80.0629 103.845C79.5533 103.664 79.1483 103.461 78.8429 103.025C78.5174 102.56 78.533 102.091 78.622 101.614L78.6302 101.57L78.6489 101.53C78.8268 101.149 79.1126 100.723 79.5286 100.5C79.9023 100.3 80.3722 100.195 80.8509 100.289ZM81.8362 103.823C81.7277 103.711 81.5955 103.63 81.4606 103.581C81.3582 103.545 81.2409 103.494 81.1279 103.445C81.092 103.429 81.0564 103.413 81.022 103.399C80.8704 103.334 80.7221 103.275 80.5792 103.236C80.2519 103.149 79.9732 103.054 79.6933 102.862C79.5792 102.817 79.4777 102.756 79.3895 102.686C79.5712 102.914 79.8175 103.052 80.2492 103.207C80.5704 103.293 80.9074 103.383 81.1649 103.475C81.4197 103.566 81.6005 103.66 81.8362 103.823ZM46.8879 100.588C47.2604 100.389 47.6372 100.289 48.0964 100.289C48.5557 100.289 48.9325 100.389 49.305 100.588C49.6563 100.776 49.9327 100.972 50.2084 101.267C50.4841 101.562 50.6668 101.858 50.8424 102.234L50.8524 102.255L50.8594 102.278C50.9503 102.57 51.0399 103.046 51.0399 103.44C51.0399 103.448 51.0399 103.455 51.0399 103.462C51.04 103.802 51.0401 104.223 50.8424 104.646C50.6668 105.022 50.4841 105.318 50.2084 105.613C49.9326 105.909 49.6563 106.104 49.305 106.292C48.9325 106.492 48.5557 106.592 48.0964 106.592C47.6371 106.592 47.2604 106.492 46.8879 106.292C46.5366 106.104 46.2602 105.909 45.9845 105.613C45.7088 105.318 45.5261 105.022 45.3504 104.646L45.3405 104.625L45.3335 104.602C45.2426 104.31 45.153 103.834 45.153 103.44C45.153 103.433 45.153 103.425 45.153 103.418C45.1529 103.078 45.1528 102.657 45.3504 102.234C45.5261 101.858 45.7088 101.562 45.9845 101.267C46.2602 100.972 46.5365 100.776 46.8879 100.588ZM87.0927 100.588C87.4653 100.389 87.842 100.289 88.3013 100.289C88.7606 100.289 89.1373 100.389 89.5099 100.588C89.8612 100.776 90.1375 100.972 90.4132 101.267C90.689 101.562 90.8716 101.858 91.0473 102.234L91.0572 102.255L91.0642 102.278C91.1552 102.57 91.2447 103.046 91.2447 103.44V103.462C91.2448 103.802 91.2449 104.223 91.0473 104.646C90.8716 105.022 90.689 105.318 90.4132 105.613C90.1375 105.909 89.8612 106.104 89.5099 106.292C89.1373 106.492 88.7606 106.592 88.3013 106.592C87.842 106.592 87.4652 106.492 87.0927 106.292C86.7414 106.104 86.4651 105.909 86.1893 105.613C85.9136 105.318 85.7309 105.022 85.5553 104.646L85.5454 104.625L85.5383 104.602C85.4474 104.31 85.3579 103.834 85.3579 103.44L85.3579 103.418C85.3578 103.078 85.3576 102.657 85.5553 102.234C85.7309 101.858 85.9136 101.562 86.1893 101.267C86.4651 100.972 86.7414 100.776 87.0927 100.588ZM86.3715 104.814C86.2983 104.671 86.236 104.508 86.1924 104.326C86.1061 104.046 86.0156 103.661 86.0156 103.264C86.0156 102.964 86.0678 102.718 86.1279 102.504C86.1234 102.514 86.1188 102.524 86.1142 102.533C85.9873 102.805 85.9827 103.08 85.9827 103.44C85.9827 103.741 86.0531 104.13 86.1244 104.369C86.2045 104.538 86.2831 104.682 86.3715 104.814ZM93.1357 100.795C93.5277 100.461 94.0014 100.289 94.5499 100.289C95.3325 100.289 95.9415 100.476 96.356 101.03C96.7206 101.518 97 102.118 97 103V106.169L96.6876 106.504H96.1943L95.8818 106.169V103.176C95.8818 102.513 95.7455 102.079 95.5275 101.812C95.3164 101.554 94.9834 101.398 94.4677 101.398C94.1589 101.398 93.8996 101.488 93.6831 101.669C93.4727 101.844 93.2832 102.12 93.1357 102.532V106.169L92.8233 106.504H92.33L92.0176 106.169V100.711L92.33 100.377H92.8233L93.1357 100.711V100.795ZM92.6424 101.72L92.7906 101.765C92.7375 101.859 92.6881 101.959 92.6424 102.064V101.72ZM83.5491 100.711L83.8615 100.377H84.3548L84.6672 100.711V106.169L84.3548 106.504H83.8615L83.5491 106.169V100.711ZM47.4121 101.455C47.1719 101.627 46.9688 101.775 46.8374 101.916C46.7032 102.06 46.567 102.28 46.5018 102.49C46.4196 102.754 46.3534 102.972 46.3534 103.264C46.3534 103.566 46.4248 103.879 46.5018 104.127L46.5056 104.139L46.5085 104.151C46.5757 104.439 46.709 104.651 46.8374 104.788L46.8593 104.812L46.8765 104.839C46.9968 105.032 47.1822 105.167 47.3731 105.235L47.4127 105.25L47.4476 105.274C47.6018 105.385 47.8289 105.394 48.0964 105.394C48.3639 105.394 48.591 105.385 48.7453 105.274C49.0009 105.092 49.2177 104.936 49.3555 104.788C49.4897 104.644 49.6259 104.424 49.6911 104.215C49.7732 103.951 49.8395 103.733 49.8395 103.44C49.8395 103.195 49.7945 103.009 49.7296 102.742C49.7154 102.683 49.7002 102.621 49.6844 102.553C49.6172 102.265 49.4839 102.054 49.3555 101.916L49.3336 101.893L49.3164 101.865C49.196 101.672 49.0107 101.537 48.8198 101.469C48.5733 101.381 48.3696 101.31 48.0964 101.31C47.9118 101.31 47.6421 101.376 47.4121 101.455ZM69.6111 101.455C69.3709 101.627 69.1678 101.775 69.0364 101.916C68.9022 102.06 68.766 102.28 68.7008 102.49C68.6186 102.754 68.5524 102.972 68.5524 103.264C68.5524 103.566 68.6238 103.879 68.7008 104.127L68.7046 104.139L68.7075 104.151C68.7747 104.439 68.908 104.651 69.0364 104.788L69.0583 104.812L69.0755 104.839C69.1958 105.032 69.3812 105.167 69.5721 105.235L69.6117 105.25L69.6466 105.274C69.8028 105.386 69.9526 105.394 70.2954 105.394C70.4801 105.394 70.7498 105.328 70.9798 105.249C71.22 105.077 71.4231 104.929 71.5545 104.788C71.6887 104.644 71.8249 104.424 71.8901 104.215C71.9722 103.951 72.0385 103.733 72.0385 103.44C72.0385 103.139 71.9671 102.825 71.8901 102.578L71.8863 102.565L71.8834 102.553C71.8162 102.265 71.6829 102.054 71.5545 101.916L71.5326 101.893L71.5154 101.865C71.395 101.672 71.2097 101.537 71.0188 101.469C70.7723 101.381 70.5686 101.31 70.2954 101.31C70.1108 101.31 69.8411 101.376 69.6111 101.455ZM87.6991 101.455C87.459 101.627 87.2558 101.775 87.1245 101.916C86.9903 102.06 86.854 102.28 86.7889 102.49C86.7067 102.754 86.6405 102.972 86.6405 103.264C86.6405 103.566 86.7119 103.879 86.7889 104.127L86.7927 104.139L86.7956 104.151C86.8628 104.439 86.9961 104.651 87.1245 104.788L87.1464 104.812L87.1635 104.839C87.2839 105.032 87.4692 105.167 87.6601 105.235L87.6998 105.25L87.7346 105.274C87.8909 105.386 88.0407 105.394 88.3835 105.394C88.5681 105.394 88.8378 105.328 89.0679 105.249C89.3081 105.077 89.5112 104.929 89.6425 104.788C89.7768 104.644 89.913 104.424 89.9781 104.215C90.0603 103.951 90.1265 103.733 90.1265 103.44C90.1265 103.139 90.0552 102.825 89.9781 102.578L89.9743 102.565L89.9714 102.553C89.9043 102.265 89.771 102.054 89.6425 101.916L89.6206 101.893L89.6035 101.865C89.4831 101.672 89.2978 101.537 89.1069 101.469C88.8604 101.381 88.6567 101.31 88.3835 101.31C88.1989 101.31 87.9292 101.376 87.6991 101.455Z" fill="white"/>
</svg>
