<svg xmlns="http://www.w3.org/2000/svg" width="36" height="35" viewBox="0 0 36 35" fill="none"><path d="M9.23438 9.07394V27.4497C9.23438 28.713 10.2677 29.7466 11.5306 29.7466H25.3077C26.5707 29.7466 27.6039 28.713 27.6039 27.4497V15.9648V9.07394C27.6039 7.81061 26.5707 6.77698 25.3077 6.77698H11.5306C10.2677 6.77698 9.23438 7.81061 9.23438 9.07394Z" fill="#C7D7E2"></path><path d="M9.23438 9.07394V27.4497C9.23438 28.713 10.2677 29.7466 11.5306 29.7466H25.3077C26.5707 29.7466 27.6039 28.713 27.6039 27.4497V15.9648L24.1596 13.6679V6.77698H11.5306C10.2677 6.77698 9.23438 7.81061 9.23438 9.07394Z" fill="white"></path><path d="M22.1389 17.1123H14.6763V19.4093H22.1389V17.1123Z" fill="#F27788"></path><path d="M19.5672 14.5167H17.271V21.9819H19.5672V14.5167Z" fill="#F27788"></path><path d="M27.6038 13.8966C27.2135 13.8966 26.915 13.598 26.915 13.2075V9.07297C26.915 8.17715 26.2031 7.46509 25.3076 7.46509H23.3559C22.9655 7.46509 22.667 7.16649 22.667 6.776C22.667 6.38552 22.9655 6.08691 23.3559 6.08691H25.3076C26.9609 6.08691 28.2927 7.41915 28.2927 9.07297V13.2075C28.2927 13.598 27.9942 13.8966 27.6038 13.8966Z" fill="#454B54"></path><path d="M25.3076 30.4347H11.5305C9.8772 30.4347 8.54541 29.1025 8.54541 27.4487V9.07297C8.54541 7.41915 9.8772 6.08691 11.5305 6.08691H24.1595C24.5499 6.08691 24.8484 6.38552 24.8484 6.776V12.4265C24.8484 12.9548 25.1239 13.4602 25.5602 13.7588L26.9609 14.7005C27.7875 15.2518 28.2927 16.1936 28.2927 17.1813V27.4487C28.2927 29.1025 26.9609 30.4347 25.3076 30.4347ZM11.5305 7.46509C10.6349 7.46509 9.92313 8.17715 9.92313 9.07297V27.4487C9.92313 28.3445 10.6349 29.0566 11.5305 29.0566H25.3076C26.2032 29.0566 26.915 28.3445 26.915 27.4487V17.2042C26.915 16.6759 26.6394 16.1706 26.2032 15.872L24.8025 14.9302C23.9758 14.356 23.4707 13.4372 23.4707 12.4265V7.46509H11.5305Z" fill="#454B54"></path></svg>