<svg width="124" height="124" viewBox="0 0 124 124" fill="none" xmlns="http://www.w3.org/2000/svg">
<path fill-rule="evenodd" clip-rule="evenodd" d="M62 8.71847C32.5734 8.71847 8.71847 32.5734 8.71847 62C8.71847 91.4265 32.5734 115.282 62 115.282C91.4266 115.282 115.282 91.4265 115.282 62C115.282 32.5734 91.4266 8.71847 62 8.71847ZM0 62C0 27.7583 27.7584 0 62 0C96.2417 0 124 27.7583 124 62C124 96.2416 96.2417 124 62 124C27.7583 124 0 96.2416 0 62Z" fill="#EFC9C3"/>
<path d="M86 34.733C80.7115 26.4769 71.4364 21 60.8595 21C44.3432 21 31 34.406 31 51C31 67.594 44.3432 81 60.8595 81C67.6124 81 73.8772 78.7112 78.8402 74.9509C71.4364 78.3024 60.7781 74.2153 53.8624 64.8965C46.1331 54.515 45.8891 41.6812 53.2929 36.1226C59.7204 31.2997 69.7278 33.5886 77.2944 41.0272C78.0266 39.9646 79.3284 38.6567 81.6065 37.1853C83.5592 35.9592 84.9423 35.2235 86 34.733Z" fill="#B61D22"/>
<path d="M86.1606 100.717H85.6704V96.0377H86.1606V96.8679C86.569 96.2641 87.1409 95.9623 87.8761 95.9623C88.6113 95.9623 89.1014 96.1132 89.4282 96.4906C89.7549 96.8679 90 97.3208 90 98V100.717H89.5099V98.151C89.5099 96.9434 88.938 96.3396 87.7944 96.3396C87.0592 96.3396 86.4873 96.717 86.1606 97.5471V100.717ZM82.7296 100.566C83.0563 100.415 83.3014 100.264 83.5465 100.038C83.7916 99.8113 83.9549 99.5849 84.1183 99.283C84.2817 98.9811 84.2817 98.6792 84.2817 98.3774C84.2817 98.0755 84.2 97.6981 84.1183 97.4717C83.9549 97.1698 83.7916 96.9434 83.5465 96.717C83.3014 96.4906 83.0563 96.3396 82.7296 96.1887C82.4028 96.0377 82.0761 95.9623 81.6676 95.9623C81.2592 95.9623 80.9324 96.0377 80.6056 96.1887C80.2789 96.3396 80.0338 96.4906 79.7887 96.717C79.5437 96.9434 79.3803 97.1698 79.2169 97.4717C79.0535 97.7736 79.0535 98.0755 79.0535 98.3774C79.0535 98.6792 79.1352 99.0566 79.2169 99.283C79.3803 99.5849 79.5437 99.8113 79.7887 100.038C80.0338 100.264 80.2789 100.415 80.6056 100.566C80.9324 100.717 81.2592 100.792 81.6676 100.792C82.0761 100.792 82.4028 100.717 82.7296 100.566ZM80.9324 100.189C80.6873 100.113 80.4423 99.9623 80.2789 99.7358C80.1155 99.5849 79.9521 99.3585 79.8704 99.0566C79.7887 98.8302 79.707 98.5283 79.707 98.2264C79.707 97.9245 79.7887 97.6981 79.8704 97.4717C79.9521 97.2453 80.1155 97.0189 80.2789 96.8679C80.4423 96.717 80.6873 96.566 80.9324 96.4151C81.1775 96.3396 81.5042 96.2642 81.7493 96.2642C82.0761 96.2642 82.3211 96.3396 82.5662 96.4151C82.8113 96.4905 83.0563 96.6415 83.2197 96.8679C83.3831 97.0189 83.5465 97.2453 83.6282 97.5471C83.7099 97.7736 83.7916 98.0755 83.7916 98.3774C83.7916 98.6792 83.7099 98.9057 83.6282 99.1321C83.5465 99.3585 83.3831 99.5849 83.2197 99.7358C83.0563 99.8868 82.8113 100.038 82.5662 100.189C82.3211 100.264 81.9944 100.34 81.7493 100.34C81.4225 100.34 81.1775 100.34 80.9324 100.189ZM77.7465 100.717H77.2563V96.0377H77.7465V96.9434V100.717ZM77.1746 95.3585H77.8282V94.6038H77.1746V95.3585ZM75.7859 96.4151L75.5408 96.3396C75.3775 96.2641 75.2141 96.1887 74.969 96.1132C74.7239 96.0377 74.4789 95.9623 74.2338 95.9623C73.8254 95.8868 73.4169 95.9623 73.0901 96.1132C72.7634 96.2641 72.5183 96.566 72.3549 96.8679C72.2732 97.2453 72.2732 97.5472 72.5183 97.849C72.7634 98.1509 73.0901 98.3019 73.5803 98.4528C73.907 98.5283 74.2338 98.6037 74.4789 98.6792C74.7239 98.7547 74.8873 98.8302 75.1324 98.9811C75.2958 99.1321 75.3775 99.283 75.3775 99.4339C75.3775 99.7358 75.2958 99.9623 75.0507 100.113C74.8056 100.264 74.5606 100.415 74.0704 100.415C73.8254 100.415 73.4986 100.34 73.1718 100.264C72.8451 100.189 72.6817 100.038 72.5183 99.9623C72.4366 99.8868 72.2732 99.8113 72.2732 99.8113L72.0282 100.189C72.1099 100.264 72.2732 100.415 72.6 100.491C72.8451 100.566 73.1718 100.717 73.4986 100.717C73.8254 100.792 74.1521 100.792 74.4789 100.717C74.8056 100.717 75.1324 100.566 75.3775 100.34C75.6225 100.113 75.7859 99.8113 75.7859 99.4339C75.7859 99.1321 75.7859 98.9056 75.6225 98.6792C75.4592 98.4528 75.2141 98.3019 74.969 98.2264C74.7239 98.1509 74.3972 98 74.0704 97.9245C73.7437 97.849 73.4986 97.7736 73.2535 97.6226C73.0084 97.5472 72.8451 97.3962 72.7634 97.2453C72.6817 97.0943 72.6817 96.8679 72.8451 96.6415C73.0084 96.4151 73.1718 96.3396 73.4169 96.2642C73.662 96.1887 73.907 96.1887 74.0704 96.1887C74.3155 96.1887 74.4789 96.2641 74.7239 96.3396C74.969 96.4151 75.1324 96.4906 75.2141 96.4906C75.2958 96.4906 75.3775 96.566 75.3775 96.566L75.7859 96.4151ZM71.2113 96.4151L70.9662 96.3396C70.8028 96.2641 70.6394 96.1887 70.3944 96.1132C70.1493 96.0377 69.9042 95.9623 69.6592 95.9623C69.2507 95.8868 68.8423 95.9623 68.5155 96.1132C68.1887 96.2641 67.9437 96.566 67.7803 96.8679C67.6986 97.2453 67.6986 97.5472 67.9437 97.849C68.1887 98.1509 68.5155 98.3019 69.0056 98.4528C69.3324 98.5283 69.6592 98.6037 69.9042 98.6792C70.1493 98.7547 70.3127 98.8302 70.5578 98.9811C70.7211 99.1321 70.8028 99.283 70.8028 99.4339C70.8028 99.7358 70.7211 99.9623 70.4761 100.113C70.231 100.264 69.9859 100.415 69.4958 100.415C69.2507 100.415 68.9239 100.34 68.5972 100.264C68.2704 100.189 68.107 100.038 67.9437 99.9623C67.862 99.8868 67.6986 99.8113 67.6986 99.8113L67.4535 100.189C67.5352 100.264 67.6986 100.415 68.0254 100.491C68.3521 100.566 68.5972 100.717 68.924 100.717C69.2507 100.792 69.5775 100.792 69.9042 100.717C70.231 100.717 70.5577 100.566 70.8028 100.34C71.0479 100.113 71.2113 99.8113 71.2113 99.4339C71.2113 99.1321 71.2113 98.9056 71.0479 98.6792C70.8845 98.4528 70.6394 98.3019 70.3944 98.2264C70.1493 98.1509 69.8225 98 69.4958 97.9245C69.169 97.849 68.924 97.7736 68.6789 97.6226C68.4338 97.5472 68.2704 97.3962 68.1887 97.2453C68.107 97.0943 68.107 96.8679 68.2704 96.6415C68.4338 96.4151 68.5972 96.3396 68.8423 96.2642C69.0873 96.1887 69.3324 96.1887 69.4958 96.1887C69.7409 96.1887 69.9042 96.2641 70.1493 96.3396C70.3944 96.4151 70.5577 96.4906 70.6394 96.4906C70.7211 96.566 70.8028 96.566 70.8028 96.566L71.2113 96.4151ZM62.9606 100.189C62.7155 100.113 62.4704 99.9623 62.307 99.7358C62.1437 99.5849 61.9803 99.3585 61.8986 99.0566C61.8169 98.8302 61.7352 98.5283 61.7352 98.2264C61.7352 97.9245 61.8169 97.6981 61.8986 97.4717C61.9803 97.2453 62.1437 97.0189 62.307 96.8679C62.4704 96.717 62.7155 96.566 62.9606 96.4151C63.2056 96.3396 63.5324 96.2642 63.7775 96.2642C64.1042 96.2642 64.3493 96.3396 64.5944 96.4151C64.8394 96.4905 65.0845 96.6415 65.2479 96.8679C65.4113 97.0189 65.5747 97.2453 65.6563 97.5471C65.738 97.7736 65.8197 98.0755 65.8197 98.3774C65.8197 98.6792 65.738 98.9057 65.6563 99.1321C65.5747 99.3585 65.4113 99.5849 65.2479 99.7358C65.0845 99.8868 64.8394 100.038 64.5944 100.189C64.3493 100.264 64.0225 100.34 63.7775 100.34C63.4507 100.34 63.2056 100.34 62.9606 100.189ZM65.5747 100.038C65.6563 99.9623 65.738 99.8868 65.8197 99.8113V100.717H66.3099V96.0377H65.8197V96.8679C65.738 96.7924 65.6563 96.717 65.5747 96.6415C65.3296 96.4151 65.0845 96.2641 64.7578 96.1132C64.431 95.9623 64.1042 95.8868 63.6958 95.8868C63.2873 95.8868 62.9606 95.9623 62.6338 96.1132C62.307 96.2641 62.062 96.4151 61.8169 96.6415C61.5718 96.8679 61.4085 97.0943 61.2451 97.3962C61.0817 97.6981 61.0817 98 61.0817 98.3019C61.0817 98.6037 61.1634 98.9811 61.2451 99.2075C61.4085 99.5094 61.5718 99.7358 61.8169 99.9623C62.062 100.189 62.307 100.34 62.6338 100.491C62.9606 100.642 63.2873 100.717 63.6958 100.717C64.1042 100.717 64.431 100.642 64.7578 100.491C65.0845 100.491 65.4113 100.264 65.5747 100.038ZM54.8732 96.0377H55.3634V97.0189C55.5268 96.7925 55.8535 96.4906 56.262 96.2642C56.6704 96.0377 57.0789 95.8868 57.4056 95.8868C57.6507 95.8868 57.9775 95.9622 58.2225 96.0377C58.4676 96.1132 58.7944 96.2641 58.9577 96.4151C59.2028 96.566 59.3662 96.7924 59.6113 97.0943C59.7746 97.3962 59.8563 97.6981 59.938 98C60.0197 98.7547 59.7746 99.3585 59.3662 99.8868C58.8761 100.415 58.3042 100.717 57.569 100.717C57.3239 100.717 56.9972 100.641 56.7521 100.566C56.507 100.491 56.262 100.34 56.0986 100.264C55.9352 100.113 55.7718 100.038 55.6901 99.8868C55.6084 99.8113 55.5268 99.6604 55.4451 99.5849V102H54.9549V96.0377H54.8732ZM55.3634 99.2075C55.3634 99.2075 55.3634 99.283 55.4451 99.3585C55.5268 99.434 55.5268 99.5094 55.6085 99.5849C55.6901 99.6604 55.7718 99.7358 55.8535 99.8113C55.9352 99.8868 56.0986 99.9623 56.262 100.038C56.4254 100.113 56.5887 100.189 56.8338 100.189C57.0789 100.264 57.3239 100.264 57.569 100.264C57.9775 100.264 58.3859 100.113 58.631 99.8868C58.9578 99.6604 59.1211 99.3585 59.2845 98.9811C59.3662 98.6038 59.4479 98.2264 59.3662 97.849C59.2845 97.4717 59.2028 97.0943 58.9577 96.8679C58.631 96.4906 58.2225 96.3396 57.8141 96.1887C57.3239 96.1132 56.9155 96.1132 56.4254 96.3396C56.0169 96.4906 55.6901 96.7924 55.4451 97.1698V98.0755V99.2075H55.3634ZM46.2141 100.717H45.7239V96.0377H46.2141V96.8679C46.6225 96.2641 47.1944 95.9623 47.9296 95.9623C48.4197 95.9623 48.7465 96.0377 49.0732 96.2642C49.3183 96.4906 49.5634 96.717 49.7268 97.0943C49.8085 97.0189 49.8085 96.8679 49.8901 96.7924C49.9718 96.717 50.0535 96.566 50.2169 96.4151C50.3803 96.2641 50.5437 96.1886 50.7887 96.0377C51.0338 95.9622 51.2789 95.8868 51.524 95.8868C51.8507 95.8868 52.1775 95.9622 52.4225 96.0377C52.6676 96.1886 52.9127 96.3396 52.9944 96.4906C53.1578 96.717 53.2394 96.9434 53.3211 97.1698C53.4028 97.3962 53.4028 97.6226 53.4028 97.9245V100.642H52.9127V98.0755V98C52.9127 97.9245 52.9127 97.8491 52.9127 97.7736C52.9127 97.6981 52.9127 97.5472 52.831 97.3962C52.831 97.2453 52.7493 97.1698 52.6676 97.0189C52.5859 96.8679 52.5042 96.7925 52.4225 96.6415C52.3408 96.566 52.1775 96.4151 52.0141 96.4151C51.8507 96.3396 51.6056 96.3396 51.4423 96.3396C50.6254 96.3396 50.1352 96.7924 49.8085 97.6226C49.8085 97.7736 49.8085 97.8491 49.8085 98V100.717H49.3183V98.151V98.0755C49.3183 98 49.3183 97.9245 49.3183 97.849C49.3183 97.7736 49.3183 97.6226 49.2366 97.4717C49.2366 97.3207 49.1549 97.2453 49.0732 97.0943C48.9916 96.9434 48.9099 96.8679 48.8282 96.717C48.7465 96.6415 48.5831 96.4906 48.4197 96.4906C48.2563 96.4151 48.0113 96.4151 47.8479 96.4151C47.1127 96.4151 46.5409 96.7924 46.2141 97.6226V100.717ZM42.7831 100.566C43.1099 100.415 43.3549 100.264 43.6 100.038C43.8451 99.8113 44.0085 99.5849 44.1718 99.283C44.3352 98.9811 44.3352 98.6792 44.3352 98.3774C44.3352 98.0755 44.2535 97.6981 44.1718 97.4717C44.0085 97.1698 43.8451 96.9434 43.6 96.717C43.3549 96.4906 43.1099 96.3396 42.7831 96.1887C42.4563 96.0377 42.1296 95.9623 41.7211 95.9623C41.3127 95.9623 40.9859 96.0377 40.6592 96.1887C40.3324 96.3396 40.0873 96.4906 39.8423 96.717C39.5972 96.9434 39.4338 97.1698 39.2704 97.4717C39.107 97.7736 39.1071 98.0755 39.1071 98.3774C39.1071 98.6792 39.1887 99.0566 39.2704 99.283C39.4338 99.5849 39.5972 99.8113 39.8423 100.038C40.0873 100.264 40.3324 100.415 40.6592 100.566C40.9859 100.717 41.3127 100.792 41.7211 100.792C42.1296 100.792 42.4563 100.717 42.7831 100.566ZM40.9042 100.189C40.6592 100.113 40.4141 99.9623 40.2507 99.7358C40.0873 99.5849 39.9239 99.3585 39.8423 99.0566C39.7606 98.8302 39.6789 98.5283 39.6789 98.2264C39.6789 97.9245 39.7606 97.6981 39.8423 97.4717C39.9239 97.2453 40.0873 97.0189 40.2507 96.8679C40.4141 96.717 40.6592 96.566 40.9042 96.4151C41.1493 96.3396 41.4761 96.2642 41.7211 96.2642C42.0479 96.2642 42.293 96.3396 42.538 96.4151C42.7831 96.4905 43.0282 96.6415 43.1916 96.8679C43.3549 97.0189 43.5183 97.2453 43.6 97.5471C43.6817 97.849 43.7634 98.0755 43.7634 98.3774C43.7634 98.6792 43.6817 98.9057 43.6 99.1321C43.5183 99.3585 43.3549 99.5849 43.1916 99.7358C43.0282 99.8868 42.7831 100.038 42.538 100.189C42.293 100.34 41.9662 100.34 41.7211 100.34C41.4761 100.34 41.1493 100.34 40.9042 100.189ZM38.1268 95.1321V95.8868C38.0451 95.7359 37.8817 95.5849 37.7183 95.4339C37.5549 95.283 37.3099 95.1321 37.0648 94.9811C36.9831 94.9057 36.8197 94.9056 36.738 94.8302C36.4113 94.6792 36.0028 94.6038 35.5127 94.6038C35.1042 94.6038 34.6958 94.6792 34.2873 94.8302C33.9606 94.9811 33.6338 95.2075 33.3887 95.4339C33.1437 95.6604 32.8986 95.9623 32.8169 96.3396C32.6535 96.717 32.5718 97.0943 32.5718 97.4717C32.5718 97.849 32.6535 98.2264 32.8169 98.6038C32.9803 98.9811 33.1437 99.283 33.4704 99.5094C33.7155 99.7359 34.0423 99.9623 34.369 100.113C34.6958 100.264 35.1042 100.34 35.5944 100.34C36.0028 100.34 36.4113 100.264 36.738 100.113C36.8197 100.038 36.9831 100.038 37.0648 99.9623C37.3099 99.8113 37.4732 99.6604 37.7183 99.5094C37.8817 99.3585 37.9634 99.2075 38.0451 99.0566V99.8113C37.8 100.113 37.4732 100.264 37.0648 100.491H36.9831C36.5747 100.642 36.0845 100.792 35.5127 100.792C35.0225 100.792 34.5324 100.717 34.0423 100.491C33.6338 100.34 33.2254 100.038 32.9803 99.7358C32.6535 99.434 32.4085 99.0566 32.2451 98.6792C32.0817 98.3019 32 97.8491 32 97.3962C32 96.9434 32.0817 96.566 32.2451 96.1132C32.4085 95.7358 32.6535 95.3585 32.9803 95.0566C33.3071 94.7547 33.6338 94.5283 34.0423 94.3019C34.4507 94.1509 34.9408 94 35.5127 94C36.0028 94 36.493 94.0754 36.9831 94.3019H37.0648C37.4732 94.6037 37.8 94.8302 38.1268 95.1321Z" fill="#D2232A"/>
<path fill-rule="evenodd" clip-rule="evenodd" d="M34.5072 93.9872C34.5053 93.9885 34.5034 93.9897 34.5015 93.9909C34.9457 93.8011 35.395 93.7042 35.8478 93.7042C36.3738 93.7042 36.8364 93.7978 37.2208 94.0036L37.2662 94.0279L37.2892 94.0526C37.2997 94.0573 37.3147 94.0629 37.3444 94.0735L37.3487 94.075C37.3564 94.0778 37.3655 94.081 37.3754 94.0847C37.3508 94.0638 37.3259 94.0426 37.3006 94.0211H37.254L37.188 93.9858C36.7477 93.75 36.3046 93.669 35.8478 93.669C35.342 93.669 34.9002 93.8203 34.5072 93.9872ZM34.2519 93.376C34.6753 93.1947 35.2127 93 35.8478 93C36.3557 93 36.8762 93.0873 37.3997 93.3521H37.5196L37.6052 93.4254C37.6731 93.4836 37.7395 93.5399 37.8046 93.5952C38.1246 93.8667 38.4134 94.1118 38.6997 94.4184L38.7912 94.5164V95.5352L38.1994 95.6848C38.1448 95.5679 38.0237 95.433 37.8468 95.2435C37.709 95.096 37.4923 94.9396 37.2367 94.7572L37.2109 94.7388L37.2019 94.7291C37.1914 94.7244 37.1764 94.7187 37.1467 94.7082L37.1424 94.7066C37.1143 94.6966 37.0699 94.6808 37.0263 94.6596C36.9925 94.6431 36.9508 94.6196 36.909 94.5852C36.6399 94.4494 36.2905 94.3732 35.8478 94.3732C35.4834 94.3732 35.1156 94.4502 34.7428 94.6082C34.4506 94.7666 34.1536 95.0053 33.9311 95.2435C33.7051 95.4855 33.506 95.7809 33.441 96.129L33.4354 96.1591L33.4247 96.1876C33.2739 96.5913 33.2004 96.9894 33.2004 97.3838C33.2004 97.7782 33.2739 98.1763 33.4247 98.58C33.5857 99.011 33.7241 99.2876 33.9798 99.493L33.9976 99.5072L34.0133 99.524C34.2387 99.7654 34.5407 100.007 34.8365 100.166C35.1098 100.312 35.4694 100.394 35.9301 100.394C36.2892 100.394 36.6369 100.32 36.909 100.182C36.9508 100.148 36.9925 100.124 37.0263 100.108C37.0699 100.087 37.1143 100.071 37.1424 100.061L37.1467 100.059C37.1764 100.049 37.1914 100.043 37.2019 100.038L37.2109 100.029L37.2367 100.01C37.3472 99.9315 37.4401 99.8522 37.5437 99.7634L37.547 99.7606C37.641 99.6801 37.7442 99.5917 37.8665 99.5024C37.9787 99.3759 38.0394 99.2492 38.1172 99.0828L38.709 99.2324V100.224L38.6466 100.313C38.3932 100.675 38.0593 100.884 37.7267 101.093C37.6746 101.126 37.6225 101.159 37.5707 101.192L37.4965 101.239H37.3874C36.9731 101.414 36.4552 101.592 35.8478 101.592C35.3217 101.592 34.782 101.498 34.2397 101.21C33.7843 101.012 33.3404 100.633 33.0627 100.244C32.7061 99.8573 32.4434 99.3832 32.269 98.9165C32.0871 98.4295 32 97.8579 32 97.2958C32 96.7236 32.0903 96.2472 32.2627 95.6935L32.2656 95.6842L32.269 95.6751C32.4459 95.2016 32.7137 94.7205 33.0781 94.3303C33.4279 93.9558 33.7779 93.6755 34.2071 93.3998L34.2286 93.386L34.2519 93.376ZM77.4668 94.0387L77.7793 93.7042H78.437L78.7495 94.0387V94.919L78.437 95.2535H77.7793L77.4668 94.919V94.0387ZM78.0917 94.3732V94.5845H78.1246V94.3732H78.0917ZM50.159 96.2682C50.1608 96.2655 50.1626 96.2627 50.1645 96.2598C50.174 96.2455 50.185 96.2291 50.1977 96.21C50.2523 96.1281 50.3258 96.0224 50.4262 95.9148C50.5732 95.7575 50.7338 95.6486 50.8956 95.539C50.9469 95.5042 50.9983 95.4694 51.0494 95.4329L51.0842 95.4081L51.1435 95.3869C51.3764 95.3037 51.6646 95.2007 51.9627 95.2007C52.3388 95.2007 52.7036 95.3003 52.9659 95.3939L53.0055 95.4081L53.0464 95.4372C53.1654 95.5221 53.2982 95.6169 53.4117 95.7141C53.5164 95.8038 53.6377 95.9225 53.712 96.0691C53.8935 96.3655 53.9851 96.6599 54.0641 96.9138L54.0679 96.9259C54.1663 97.242 54.1662 97.5543 54.1661 97.8844L54.1661 101.081L53.8537 101.415H53.3604L53.0479 101.081V97.7359C53.0479 97.6508 53.0453 97.5452 52.9987 97.4454L52.9657 97.3748V97.2958C52.9657 97.273 52.9628 97.2585 52.9473 97.2253C52.9373 97.2039 52.9253 97.1815 52.9054 97.1446L52.9035 97.1411C52.8839 97.1048 52.8593 97.0589 52.8343 97.0052C52.8028 96.9378 52.7716 96.8872 52.7304 96.8211L52.7283 96.8177C52.6944 96.7633 52.654 96.6984 52.6126 96.6166C52.5802 96.5828 52.5464 96.5499 52.5107 96.5226C52.4875 96.5049 52.4695 96.4943 52.4572 96.4887C52.4539 96.4873 52.4516 96.4864 52.4501 96.4859H52.3822L52.3162 96.4506C52.2841 96.4334 52.2255 96.4167 52.1371 96.4072C52.0521 96.3981 51.9644 96.3979 51.8804 96.3979C51.5387 96.3979 51.2854 96.5048 51.0803 96.699C50.8756 96.8929 50.6994 97.1925 50.5485 97.6199V101.169L50.2361 101.504H49.7428L49.4303 101.169V97.8239C49.4303 97.7388 49.4277 97.6332 49.3811 97.5334L49.3481 97.4628V97.3838C49.3481 97.361 49.3452 97.3465 49.3297 97.3133C49.3197 97.2919 49.3077 97.2695 49.2878 97.2326L49.2859 97.2291C49.2663 97.1928 49.2417 97.1469 49.2167 97.0932C49.1852 97.0258 49.154 96.9752 49.1128 96.9091L49.1107 96.9057C49.0768 96.8513 49.0364 96.7864 48.995 96.7046C48.9626 96.6709 48.9288 96.6379 48.8931 96.6107C48.8699 96.5929 48.8519 96.5824 48.8396 96.5768C48.8363 96.5753 48.834 96.5745 48.8325 96.5739H48.7646L48.6986 96.5386C48.6665 96.5214 48.6079 96.5047 48.5195 96.4952C48.4345 96.4861 48.3468 96.4859 48.2628 96.4859C47.9541 96.4859 47.6948 96.5763 47.4783 96.7565C47.2678 96.9318 47.0783 97.2085 46.9309 97.6202V101.169H46.6185V101.504H46.1251L45.8127 101.169V95.7112L46.1251 95.3767H46.6185L46.9309 95.7112V95.7951C47.3228 95.4609 47.7966 95.2887 48.345 95.2887C48.882 95.2887 49.2841 95.387 49.6836 95.7078L49.7013 95.722L49.726 95.7484C49.8656 95.8979 50.0185 96.0615 50.159 96.2682ZM46.4376 96.72V97.1523C46.4956 97.0186 46.5596 96.894 46.6296 96.7789L46.4376 96.72ZM49.9165 97.0795L50.0685 97.1129C50.038 97.1849 50.009 97.2591 49.9812 97.3352C49.9775 97.3245 49.9735 97.3137 49.9693 97.3029C49.9614 97.2178 49.9416 97.1445 49.9165 97.0795ZM58.2092 96.2115C57.77 96.1363 57.4389 96.1466 57.0355 96.3626L57.0239 96.3688L57.0118 96.3739C56.7037 96.5059 56.4372 96.7683 56.2216 97.127V99.4084L56.198 99.4336C56.2328 99.4853 56.2544 99.5318 56.2683 99.5615L56.2708 99.5669C56.2913 99.6108 56.2928 99.6102 56.2945 99.612L56.5412 99.8761C56.5516 99.8873 56.5833 99.9135 56.65 99.9543C56.713 99.9928 56.787 100.033 56.8711 100.078C57.033 100.164 57.1398 100.218 57.3069 100.218H57.3576L57.4057 100.235C57.5968 100.304 57.7932 100.306 58.0468 100.306C58.3851 100.306 58.7135 100.158 58.8947 99.9642L58.9104 99.9474L58.9282 99.9331C59.1783 99.7323 59.3161 99.4633 59.4727 99.0484C59.5544 98.6097 59.6157 98.2449 59.5493 97.8895C59.5073 97.6649 59.4697 97.4662 59.4154 97.2915C59.3612 97.1176 59.2987 96.9965 59.2236 96.9161L59.2114 96.903L59.2006 96.8885C58.9363 96.5348 58.6106 96.3838 58.2092 96.2115ZM56.1394 96.0152C56.2707 95.8994 56.4157 95.788 56.5706 95.6885C56.995 95.4159 57.4665 95.2007 57.8824 95.2007C58.1805 95.2007 58.548 95.3028 58.8034 95.3939C59.0596 95.4853 59.4247 95.6717 59.6426 95.8911C59.8935 96.0785 60.076 96.3431 60.2641 96.6158C60.2932 96.6581 60.3225 96.7005 60.3522 96.7429L60.3691 96.7671L60.3817 96.7941C60.5616 97.1792 60.6508 97.5615 60.7314 97.9064L60.7398 97.9425L60.7421 97.9667C60.8332 98.9431 60.5558 99.7267 60.1099 100.395L60.1018 100.407L60.0928 100.418C59.5547 101.091 58.8981 101.504 58.0468 101.504C57.7487 101.504 57.3811 101.401 57.1258 101.31C56.9758 101.257 56.8331 101.179 56.7153 101.111C56.6589 101.078 56.6123 101.049 56.5714 101.024C56.5164 100.991 56.4717 100.964 56.4272 100.94L56.3818 100.916L56.346 100.877C56.3027 100.831 56.265 100.797 56.2216 100.759V102.665L55.9092 103H55.4158L55.1034 102.665V95.7112H55.3336V95.3767H55.8269L56.1394 95.7112V96.0152ZM63.0047 95.5001C63.3772 95.3007 63.7539 95.2007 64.2132 95.2007C64.6725 95.2007 65.0492 95.3007 65.4218 95.5001C65.6527 95.6237 65.8512 95.7506 66.0385 95.9068V95.7112L66.3509 95.3767H66.8442L67.1566 95.7112V101.169L66.8442 101.504H66.3509L66.0385 101.169V100.934C66.0016 100.965 65.9633 100.994 65.9238 101.021C65.7649 101.131 65.571 101.218 65.3603 101.236C65.0076 101.414 64.6472 101.504 64.2132 101.504C63.7539 101.504 63.3772 101.404 63.0047 101.204C62.6533 101.016 62.377 100.82 62.1013 100.525C61.8255 100.23 61.6429 99.9342 61.4672 99.558L61.4573 99.5368L61.4503 99.5142C61.3593 99.2222 61.2698 98.7461 61.2698 98.3521L61.2698 98.3298C61.2697 97.9899 61.2696 97.5694 61.4672 97.1462C61.6429 96.77 61.8255 96.4742 62.1013 96.179C62.377 95.8838 62.6533 95.6882 63.0047 95.5001ZM66.5318 100.054V99.2666C66.5165 99.3182 66.501 99.3679 66.486 99.4161L66.4829 99.4262C66.4281 99.6021 66.345 99.7745 66.2488 99.9288L66.5318 100.054ZM62.1626 99.5279C62.1407 99.4635 62.1211 99.3963 62.1043 99.3263C62.018 99.0464 61.9275 98.6611 61.9275 98.2641C61.9275 97.8575 62.0233 97.5501 62.1049 97.2881L62.1079 97.2783C62.0806 97.3313 62.0534 97.3868 62.0261 97.4454C61.8992 97.7171 61.8947 97.9915 61.8947 98.3521C61.8947 98.6528 61.965 99.042 62.0363 99.2806C62.0783 99.3694 62.1198 99.4512 62.1626 99.5279ZM66.285 96.8474C66.3679 97.0007 66.4386 97.1776 66.4865 97.3779C66.5017 97.4269 66.5169 97.4792 66.5318 97.5341V96.7379L66.285 96.8474ZM70.2467 95.2891C70.5333 95.296 70.8094 95.3946 71.0339 95.4748L71.0539 95.4819C71.3122 95.5741 71.4895 95.6674 71.6505 95.7535L71.8761 95.834L71.8934 96.462L71.4264 96.6619L71.3663 96.6619L71.3662 96.3493C71.3663 96.6619 71.3664 96.6619 71.3663 96.6619L71.3651 96.6619L71.3638 96.6619L71.3611 96.6619L71.3553 96.6618C71.3512 96.6616 71.3467 96.6614 71.3418 96.661C71.3321 96.6603 71.3207 96.6592 71.308 96.6572C71.2826 96.6533 71.2512 96.6463 71.2161 96.6338C71.1707 96.6176 71.1201 96.5926 71.0688 96.5547C71.0572 96.5515 71.0466 96.5484 71.0372 96.5454C70.9944 96.532 70.9491 96.5145 70.9071 96.4976C70.8849 96.4887 70.8625 96.4796 70.8397 96.4702C70.7705 96.4419 70.6969 96.4118 70.6097 96.3807C70.5407 96.3561 70.4831 96.3342 70.4328 96.315C70.2731 96.2543 70.1878 96.2218 70.0507 96.2218C69.8839 96.2218 69.6846 96.2239 69.4918 96.2927C69.3759 96.3341 69.3049 96.3669 69.2477 96.4077C69.1946 96.4456 69.1404 96.4999 69.0774 96.6011C68.9674 96.7778 68.9886 96.9142 69.0147 96.9701C69.0607 97.0687 69.1612 97.1832 69.3274 97.2425L69.367 97.2567L69.4019 97.2815C69.6038 97.4257 69.8093 97.5025 70.1265 97.5874C70.3124 97.6372 70.4931 97.7103 70.6498 97.7774C70.6946 97.7966 70.7366 97.8149 70.7762 97.8322C70.8829 97.8787 70.9725 97.9177 71.0539 97.9467C71.3563 98.0547 71.6643 98.2718 71.8728 98.6067C72.0903 98.9559 72.09 99.3115 72.0898 99.6396C72.0898 99.6506 72.0897 99.6616 72.0897 99.6725C72.0897 100.211 71.886 100.645 71.5871 100.965C71.3056 101.267 70.9171 101.489 70.5015 101.503C70.1468 101.592 69.7902 101.592 69.4355 101.503C69.2347 101.496 69.0638 101.441 68.9179 101.385C68.8689 101.366 68.8246 101.348 68.7828 101.332C68.6827 101.291 68.5971 101.257 68.495 101.229C68.0847 101.12 67.8714 100.893 67.7744 100.789L67.6019 100.605L68.1229 99.6749L68.3817 99.8135L68.383 99.8142L68.3854 99.8155L68.3927 99.8195C68.3987 99.8228 68.407 99.8275 68.417 99.8333C68.4369 99.8447 68.4644 99.8611 68.4952 99.8808C68.5405 99.91 68.6088 99.9564 68.6703 100.013C68.7121 100.038 68.7508 100.064 68.7842 100.088C68.7951 100.095 68.8055 100.102 68.8156 100.109C68.8502 100.134 68.8814 100.155 68.9165 100.178C69.0013 100.232 69.0958 100.283 69.2221 100.316C69.5659 100.408 69.8515 100.482 70.0507 100.482C70.4494 100.482 70.6323 100.352 70.8628 100.187L70.8641 100.186C70.9893 100.097 71.0538 99.966 71.0538 99.6725C71.0538 99.6195 71.0317 99.5309 70.9192 99.4035C70.7081 99.2549 70.5712 99.1838 70.363 99.1096C70.1303 99.0265 69.8147 98.9418 69.4816 98.8527L69.47 98.8496L69.4586 98.8455C68.9491 98.6636 68.5441 98.4607 68.2386 98.0246C67.9131 97.56 67.9287 97.0908 68.0178 96.614L68.026 96.57L68.0447 96.53C68.2226 96.1491 68.5084 95.7228 68.9244 95.5001C69.2981 95.3 69.7679 95.1948 70.2467 95.2891ZM71.2319 98.8231C71.1235 98.7111 70.9913 98.6296 70.8563 98.5814C70.754 98.5449 70.6367 98.4938 70.5237 98.4445C70.4877 98.4288 70.4522 98.4134 70.4177 98.3986C70.2661 98.3337 70.1179 98.2747 69.975 98.2365C69.6477 98.1489 69.369 98.0538 69.0891 97.8619C68.9749 97.8165 68.8735 97.7562 68.7852 97.6858C68.9669 97.9136 69.2132 98.0519 69.645 98.2068C69.9661 98.2927 70.3032 98.383 70.5606 98.4749C70.8155 98.5658 70.9963 98.6598 71.2319 98.8231ZM74.8509 95.2891C75.1376 95.296 75.4136 95.3946 75.6381 95.4748L75.6582 95.4819C75.9165 95.5741 76.0937 95.6674 76.2547 95.7535L76.4803 95.834L76.4976 96.462L75.8952 96.7199L75.7561 96.571C75.7105 96.5657 75.6703 96.5544 75.6415 96.5454C75.5986 96.532 75.5534 96.5145 75.5113 96.4976C75.4891 96.4887 75.4668 96.4796 75.4439 96.4702C75.3748 96.4419 75.3011 96.4118 75.2139 96.3807C75.1449 96.3561 75.0873 96.3342 75.037 96.315C74.8774 96.2543 74.792 96.2218 74.655 96.2218C74.4881 96.2218 74.2888 96.2239 74.096 96.2927C73.9801 96.3341 73.9091 96.3669 73.8519 96.4077C73.7988 96.4456 73.7446 96.4999 73.6816 96.6011C73.5716 96.7778 73.5928 96.9142 73.6189 96.9701C73.665 97.0687 73.7654 97.1832 73.9316 97.2425L73.9713 97.2567L74.0061 97.2815C74.2081 97.4257 74.4135 97.5025 74.7307 97.5874C74.9167 97.6372 75.0973 97.7103 75.254 97.7774C75.2988 97.7966 75.3408 97.8149 75.3804 97.8322C75.4871 97.8786 75.5767 97.9177 75.6582 97.9467C75.9606 98.0547 76.2686 98.2718 76.4771 98.6067C76.6945 98.9559 76.6943 99.3115 76.694 99.6396C76.694 99.6506 76.694 99.6616 76.694 99.6725C76.694 100.211 76.4902 100.645 76.1914 100.965C75.9098 101.267 75.5213 101.489 75.1058 101.503C74.751 101.592 74.3944 101.592 74.0397 101.503C73.8409 101.496 73.654 101.443 73.4976 101.387C73.4134 101.357 73.3331 101.325 73.2627 101.296L73.2538 101.292C73.1894 101.266 73.1355 101.244 73.0866 101.226C72.6845 101.115 72.4747 100.892 72.3786 100.789L72.2061 100.605L72.7271 99.6749L72.9859 99.8135L72.9896 99.8155L72.9969 99.8195C73.003 99.8228 73.0112 99.8275 73.0213 99.8333C73.0412 99.8447 73.0686 99.8611 73.0994 99.8808C73.1447 99.91 73.213 99.9564 73.2745 100.013C73.3163 100.038 73.355 100.064 73.3885 100.088C73.3993 100.095 73.4097 100.102 73.4198 100.109C73.4544 100.134 73.4856 100.155 73.5208 100.178C73.6056 100.232 73.7001 100.283 73.8263 100.316C74.1702 100.408 74.4557 100.482 74.655 100.482C75.0537 100.482 75.2365 100.352 75.4671 100.187L75.4683 100.186C75.5935 100.097 75.658 99.966 75.658 99.6725C75.658 99.6195 75.6359 99.5309 75.5234 99.4035C75.3123 99.2549 75.1754 99.1838 74.9673 99.1096C74.7345 99.0265 74.4189 98.9418 74.0859 98.8527L74.0742 98.8496L74.0629 98.8455C73.5533 98.6636 73.1483 98.4607 72.8429 98.0246C72.5174 97.56 72.533 97.0908 72.622 96.614L72.6302 96.57L72.6489 96.53C72.8268 96.1491 73.1126 95.7228 73.5286 95.5001C73.9023 95.3 74.3722 95.1948 74.8509 95.2891ZM75.8362 98.8231C75.7277 98.7112 75.5955 98.6296 75.4606 98.5814C75.3582 98.5449 75.2409 98.4938 75.1279 98.4445C75.092 98.4288 75.0564 98.4134 75.022 98.3986C74.8704 98.3337 74.7221 98.2747 74.5792 98.2365C74.2519 98.1489 73.9732 98.0538 73.6933 97.8619C73.5792 97.8165 73.4777 97.7562 73.3895 97.6858C73.5712 97.9136 73.8175 98.0519 74.2492 98.2068C74.5704 98.2927 74.9074 98.383 75.1649 98.4749C75.4197 98.5658 75.6005 98.6599 75.8362 98.8231ZM40.8879 95.5881C41.2604 95.3887 41.6372 95.2887 42.0964 95.2887C42.5557 95.2887 42.9325 95.3887 43.305 95.5881C43.6563 95.7762 43.9327 95.9718 44.2084 96.267C44.4841 96.5622 44.6668 96.858 44.8424 97.2342L44.8524 97.2555L44.8594 97.278C44.9503 97.57 45.0399 98.0461 45.0399 98.4401C45.0399 98.4475 45.0399 98.455 45.0399 98.4624C45.04 98.8023 45.0401 99.2229 44.8424 99.6461C44.6668 100.022 44.4841 100.318 44.2084 100.613C43.9326 100.909 43.6563 101.104 43.305 101.292C42.9325 101.492 42.5557 101.592 42.0964 101.592C41.6371 101.592 41.2604 101.492 40.8879 101.292C40.5366 101.104 40.2602 100.909 39.9845 100.613C39.7088 100.318 39.5261 100.022 39.3504 99.6461L39.3405 99.6248L39.3335 99.6023C39.2426 99.3102 39.153 98.8342 39.153 98.4401C39.153 98.4328 39.153 98.4253 39.153 98.4178C39.1529 98.078 39.1528 97.6574 39.3504 97.2342C39.5261 96.858 39.7088 96.5622 39.9845 96.267C40.2602 95.9718 40.5365 95.7762 40.8879 95.5881ZM81.0927 95.5881C81.4653 95.3887 81.842 95.2887 82.3013 95.2887C82.7606 95.2887 83.1373 95.3887 83.5099 95.5881C83.8612 95.7762 84.1375 95.9718 84.4132 96.267C84.689 96.5622 84.8716 96.858 85.0473 97.2342L85.0572 97.2555L85.0642 97.278C85.1552 97.57 85.2447 98.0461 85.2447 98.4401V98.4624C85.2448 98.8023 85.2449 99.2229 85.0473 99.6461C84.8716 100.022 84.689 100.318 84.4132 100.613C84.1375 100.909 83.8612 101.104 83.5099 101.292C83.1373 101.492 82.7606 101.592 82.3013 101.592C81.842 101.592 81.4652 101.492 81.0927 101.292C80.7414 101.104 80.4651 100.909 80.1893 100.613C79.9136 100.318 79.7309 100.022 79.5553 99.6461L79.5454 99.6248L79.5383 99.6023C79.4474 99.3102 79.3579 98.8342 79.3579 98.4401L79.3579 98.4179C79.3578 98.078 79.3576 97.6574 79.5553 97.2342C79.7309 96.858 79.9136 96.5622 80.1893 96.267C80.4651 95.9718 80.7414 95.7762 81.0927 95.5881ZM80.3715 99.8141C80.2983 99.6709 80.236 99.5082 80.1924 99.3263C80.1061 99.0464 80.0156 98.6611 80.0156 98.2641C80.0156 97.9639 80.0678 97.7178 80.1279 97.5041C80.1234 97.5138 80.1188 97.5236 80.1142 97.5334C79.9873 97.8051 79.9827 98.0796 79.9827 98.4401C79.9827 98.7409 80.0531 99.1301 80.1244 99.3687C80.2045 99.5382 80.2831 99.6821 80.3715 99.8141ZM87.1357 95.7951C87.5277 95.4609 88.0014 95.2887 88.5499 95.2887C89.3325 95.2887 89.9415 95.4757 90.356 96.0305C90.7206 96.5185 91 97.1183 91 98V101.169L90.6876 101.504H90.1943L89.8818 101.169V98.1761C89.8818 97.5132 89.7455 97.0786 89.5275 96.8118C89.3164 96.5536 88.9834 96.3979 88.4677 96.3979C88.1589 96.3979 87.8996 96.4883 87.6831 96.6685C87.4727 96.8438 87.2832 97.1205 87.1357 97.5322V101.169L86.8233 101.504H86.33L86.0176 101.169V95.7112L86.33 95.3767H86.8233L87.1357 95.7112V95.7951ZM86.6424 96.72L86.7906 96.7655C86.7375 96.8593 86.6881 96.9589 86.6424 97.0642V96.72ZM77.5491 95.7112L77.8615 95.3767H78.3548L78.6672 95.7112V101.169L78.3548 101.504H77.8615L77.5491 101.169V95.7112ZM41.4121 96.4551C41.1719 96.6267 40.9688 96.7755 40.8374 96.9161C40.7032 97.0598 40.567 97.2803 40.5018 97.4896C40.4196 97.7535 40.3534 97.9716 40.3534 98.2641C40.3534 98.5656 40.4248 98.8792 40.5018 99.1266L40.5056 99.1388L40.5085 99.1512C40.5757 99.4389 40.709 99.6506 40.8374 99.7881L40.8593 99.8115L40.8765 99.8391C40.9968 100.032 41.1822 100.167 41.3731 100.235L41.4127 100.25L41.4476 100.274C41.6018 100.385 41.8289 100.394 42.0964 100.394C42.3639 100.394 42.591 100.385 42.7453 100.274C43.0009 100.092 43.2177 99.9356 43.3555 99.7881C43.4897 99.6444 43.6259 99.4239 43.6911 99.2146C43.7732 98.9507 43.8395 98.7326 43.8395 98.4401C43.8395 98.1946 43.7945 98.0092 43.7296 97.7418C43.7154 97.6833 43.7002 97.6208 43.6844 97.5529C43.6172 97.2653 43.4839 97.0536 43.3555 96.9161L43.3336 96.8927L43.3164 96.8651C43.196 96.6718 43.0107 96.5368 42.8198 96.4687C42.5733 96.3807 42.3696 96.3099 42.0964 96.3099C41.9118 96.3099 41.6421 96.376 41.4121 96.4551ZM63.6111 96.4551C63.3709 96.6267 63.1678 96.7755 63.0364 96.9161C62.9022 97.0598 62.766 97.2803 62.7008 97.4896C62.6186 97.7535 62.5524 97.9716 62.5524 98.2641C62.5524 98.5656 62.6238 98.8792 62.7008 99.1266L62.7046 99.1388L62.7075 99.1512C62.7747 99.4389 62.908 99.6506 63.0364 99.7881L63.0583 99.8115L63.0755 99.8391C63.1958 100.032 63.3812 100.167 63.5721 100.235L63.6117 100.25L63.6466 100.274C63.8028 100.386 63.9526 100.394 64.2954 100.394C64.4801 100.394 64.7498 100.328 64.9798 100.249C65.22 100.077 65.4231 99.9287 65.5545 99.7881C65.6887 99.6444 65.8249 99.4239 65.8901 99.2146C65.9722 98.9507 66.0385 98.7326 66.0385 98.4401C66.0385 98.1386 65.9671 97.825 65.8901 97.5776L65.8863 97.5654L65.8834 97.5529C65.8162 97.2653 65.6829 97.0536 65.5545 96.9161L65.5326 96.8927L65.5154 96.8651C65.395 96.6718 65.2097 96.5368 65.0188 96.4687C64.7723 96.3807 64.5686 96.3099 64.2954 96.3099C64.1108 96.3099 63.8411 96.376 63.6111 96.4551ZM81.6991 96.4551C81.459 96.6267 81.2558 96.7755 81.1245 96.9161C80.9903 97.0598 80.854 97.2803 80.7889 97.4896C80.7067 97.7535 80.6405 97.9716 80.6405 98.2641C80.6405 98.5656 80.7119 98.8792 80.7889 99.1266L80.7927 99.1388L80.7956 99.1512C80.8628 99.4389 80.9961 99.6506 81.1245 99.7881L81.1464 99.8115L81.1635 99.8391C81.2839 100.032 81.4692 100.167 81.6601 100.235L81.6998 100.25L81.7346 100.274C81.8909 100.386 82.0407 100.394 82.3835 100.394C82.5681 100.394 82.8378 100.328 83.0679 100.249C83.3081 100.077 83.5112 99.9287 83.6425 99.7881C83.7768 99.6444 83.913 99.4239 83.9781 99.2146C84.0603 98.9507 84.1265 98.7326 84.1265 98.4401C84.1265 98.1386 84.0552 97.825 83.9781 97.5776L83.9743 97.5654L83.9714 97.5529C83.9043 97.2653 83.771 97.0536 83.6425 96.9161L83.6207 96.8927L83.6035 96.8651C83.4831 96.6718 83.2978 96.5368 83.1069 96.4687C82.8604 96.3807 82.6567 96.3099 82.3835 96.3099C82.1989 96.3099 81.9292 96.376 81.6991 96.4551Z" fill="#D2232A"/>
</svg>
