<svg width="124" height="123" viewBox="0 0 124 123" fill="none" xmlns="http://www.w3.org/2000/svg">
<path fill-rule="evenodd" clip-rule="evenodd" d="M62 8.64817C32.5734 8.64817 8.71847 32.3107 8.71847 61.5C8.71847 90.6893 32.5734 114.352 62 114.352C91.4266 114.352 115.282 90.6893 115.282 61.5C115.282 32.3107 91.4266 8.64817 62 8.64817ZM0 61.5C0 27.5345 27.7584 0 62 0C96.2417 0 124 27.5345 124 61.5C124 95.4655 96.2417 123 62 123C27.7584 123 0 95.4655 0 61.5Z" fill="#FFDEA5"/>
<path d="M78 27.3489V22H37V81H78V76.9478L71.768 67.9519C69.8 65.1154 65.536 63.5756 62.256 64.5481L50.858 67.7898C47.578 68.7624 46.594 67.3036 48.644 64.6291L58.812 55.147C60.944 52.4725 62.174 50.5275 57.5 45.2596L49.546 35.6154C47.578 32.7788 48.644 31.4011 51.924 32.6167L63.076 36.5879C66.356 37.7225 70.702 36.5069 72.834 33.8324L78 27.3489Z" fill="#FBAD18"/>
<path d="M82.9422 96.3846C83.0245 96.3846 83.1068 96.3846 83.1891 96.3846C83.2715 96.3846 83.3538 96.4615 83.5184 96.4615C83.683 96.5384 83.7653 96.6154 83.8476 96.6923C83.93 96.7692 84.0123 96.9231 84.1769 97.0769C84.2592 97.2308 84.3415 97.3846 84.4238 97.6154C84.5061 97.923 84.5884 98.1539 84.5884 98.2308H80.8844C80.8844 98 80.9667 97.8461 81.049 97.6154C81.1313 97.3846 81.296 97.1538 81.4606 97C81.6252 96.8461 81.8722 96.6923 82.1191 96.5385C82.2837 96.4615 82.613 96.3846 82.9422 96.3846C82.8599 96.3846 82.9422 96.3846 82.9422 96.3846ZM85 98.6154C85 98.2308 85 97.8461 84.8354 97.5385C84.7531 97.2308 84.5884 96.9231 84.4238 96.7692C84.2592 96.6154 84.0946 96.3846 83.8476 96.3077C83.683 96.1539 83.4361 96.0769 83.2715 96C83.1068 95.9231 82.9422 95.9231 82.7776 95.9231C82.366 95.9231 82.0368 96 81.7075 96.1538C81.3783 96.3077 81.1313 96.4615 80.8844 96.6923C80.6375 96.9231 80.4729 97.1539 80.3082 97.4615C80.1436 97.7692 80.1436 98.0769 80.1436 98.3846C80.1436 98.6923 80.2259 99.0769 80.3082 99.3077C80.4729 99.6154 80.6375 99.8461 80.8844 100.077C81.1313 100.308 81.3783 100.462 81.7075 100.615C82.0368 100.769 82.366 100.846 82.7776 100.846C83.1891 100.846 83.5184 100.769 83.8476 100.615C83.93 100.615 84.0123 100.538 84.0946 100.462V99.9231C83.9299 100 83.8476 100.077 83.683 100.154C83.4361 100.231 83.1068 100.308 82.8599 100.308C82.5306 100.308 82.2837 100.231 82.0368 100.154C81.7898 100.077 81.5429 99.9231 81.3783 99.6923C81.2137 99.5384 81.049 99.3077 80.9667 99C80.8844 98.7692 80.8021 98.6154 80.8021 98.3846H85V98.6154ZM79.7321 100.538C79.5674 100.615 79.4028 100.692 79.3205 100.769C78.9912 100.923 78.662 101 78.2504 101C77.8389 101 77.5096 100.923 77.1804 100.769C76.8511 100.615 76.6042 100.462 76.3573 100.231C76.1103 100 75.9457 99.7692 75.7811 99.4615C75.6165 99.1538 75.6165 98.8461 75.6165 98.5384C75.6165 98.2308 75.6988 97.8461 75.7811 97.6154C75.9457 97.3077 76.1103 97.0769 76.3573 96.8461C76.6042 96.6154 76.8511 96.4615 77.1804 96.3077C77.5096 96.1539 77.8389 96.0769 78.2504 96.0769C78.662 96.0769 78.9912 96.1539 79.3205 96.3077C79.3205 96.3077 79.4028 96.3846 79.5674 96.4615C79.6497 96.5384 79.7321 96.5384 79.7321 96.6154L79.5674 97C79.4028 96.9231 79.2382 96.7692 79.0736 96.6923C78.8266 96.6154 78.5797 96.5385 78.2504 96.5385C77.9212 96.5385 77.6743 96.6154 77.4273 96.6923C77.1804 96.7692 76.9335 96.9231 76.7688 97.1538C76.6042 97.3846 76.4396 97.5384 76.3573 97.7692C76.275 98 76.1926 98.3077 76.1926 98.5384C76.1926 98.8461 76.275 99.0769 76.3573 99.3846C76.4396 99.6154 76.6042 99.8461 76.7688 100.077C76.9335 100.231 77.1804 100.385 77.4273 100.538C77.6743 100.615 77.9212 100.692 78.2504 100.692C78.5797 100.692 78.8266 100.615 79.0736 100.538C79.2382 100.462 79.4028 100.385 79.4851 100.308L79.7321 100.538ZM70.7601 100.846H70.2662V96.0769H70.7601V96.9231C71.1716 96.3077 71.7478 96 72.4886 96C73.2294 96 73.7233 96.1538 74.0525 96.5385C74.3818 96.9231 74.6287 97.3846 74.6287 98.0769V100.846H74.1349V98.2308C74.1349 97 73.5587 96.3846 72.4063 96.3846C71.6655 96.3846 71.0893 96.7692 70.7601 97.6154V100.846ZM67.2207 96.3846C67.303 96.3846 67.3853 96.3846 67.4676 96.3846C67.5499 96.3846 67.6322 96.4615 67.7969 96.4615C67.9615 96.5384 68.0438 96.6154 68.1261 96.6923C68.2084 96.7692 68.2907 96.9231 68.4553 97.0769C68.5377 97.2308 68.62 97.3846 68.7023 97.6154C68.7846 97.923 68.8669 98.1539 68.8669 98.2308H65.1629C65.1629 98 65.2452 97.8461 65.3275 97.6154C65.4098 97.3846 65.5744 97.1538 65.7391 97C65.9037 96.8461 66.1506 96.6923 66.3975 96.5385C66.5622 96.4615 66.8914 96.3846 67.2207 96.3846C67.1384 96.3846 67.2207 96.3846 67.2207 96.3846ZM69.3608 98.6154C69.3608 98.2308 69.2785 97.8461 69.1962 97.5385C69.1138 97.2308 68.9492 96.9231 68.7846 96.7692C68.62 96.6154 68.4553 96.3846 68.2084 96.3077C68.0438 96.1539 67.7968 96.0769 67.6322 96C67.4676 95.9231 67.303 95.9231 67.1384 95.9231C66.7268 95.9231 66.3976 96 66.0683 96.1538C65.7391 96.3077 65.4921 96.4615 65.2452 96.6923C64.9983 96.9231 64.8336 97.1539 64.669 97.4615C64.5044 97.7692 64.5044 98.0769 64.5044 98.3846C64.5044 98.6923 64.5867 99.0769 64.669 99.3077C64.8336 99.6154 64.9983 99.8461 65.2452 100.077C65.4921 100.308 65.7391 100.462 66.0683 100.615C66.3976 100.769 66.7268 100.846 67.1384 100.846C67.5499 100.846 67.8792 100.769 68.2084 100.615C68.2907 100.615 68.373 100.538 68.4553 100.462V99.9231C68.2907 100 68.2084 100.077 68.0438 100.154C67.7968 100.231 67.4676 100.308 67.2207 100.308C66.8914 100.308 66.6445 100.231 66.3975 100.154C66.1506 100.077 65.9037 99.9231 65.7391 99.6923C65.5744 99.5384 65.4098 99.3077 65.3275 99C65.2452 98.7692 65.1629 98.6154 65.1629 98.3846H69.3608V98.6154ZM63.0228 98.6923V98.7692C63.0228 98.7692 63.0228 98.8461 63.0228 99.0769C63.0228 99.2308 63.0228 99.3846 63.0228 99.3846C63.0228 99.4616 63.0228 99.5385 63.0228 99.6154C63.0228 99.7692 63.0228 99.8461 63.1051 99.9231C63.1051 100 63.1874 100.077 63.2697 100.154C63.599 100.538 64.0928 100.538 64.7513 100.308V100.692C64.669 100.692 64.5867 100.769 64.5867 100.769C64.5867 100.769 64.5044 100.769 64.4221 100.769C64.3398 100.769 64.3398 100.769 64.2574 100.769C64.1751 100.769 64.1751 100.769 64.0928 100.769C64.0105 100.769 63.9282 100.769 63.8459 100.769C63.7636 100.769 63.6813 100.769 63.599 100.769C63.5166 100.769 63.4343 100.692 63.352 100.692C63.2697 100.692 63.1874 100.615 63.1051 100.538C63.0228 100.462 62.9405 100.462 62.8582 100.385C62.7758 100.308 62.6935 100.231 62.6112 100.077C62.5289 99.9231 62.5289 99.8461 62.4466 99.6923C62.4466 99.5384 62.3643 99.4615 62.3643 99.3077C62.3643 99.1538 62.3643 99.0769 62.3643 98.9231C62.3643 98.8461 62.3643 98.6923 62.3643 98.6154V98.6923V94H62.8582V98.6923H63.0228ZM60.2242 98.6923V98.7692C60.2242 98.7692 60.2242 98.8461 60.2242 99.0769C60.2242 99.2308 60.2242 99.3846 60.2242 99.3846C60.2242 99.4616 60.2242 99.5385 60.2242 99.6154C60.2242 99.7692 60.2242 99.8461 60.3065 99.9231C60.3065 100 60.3888 100.077 60.4711 100.154C60.8004 100.538 61.2942 100.538 61.9527 100.308V100.692C61.8704 100.692 61.7881 100.769 61.7881 100.769C61.7881 100.769 61.7058 100.769 61.6235 100.769C61.5412 100.769 61.5412 100.769 61.4588 100.769C61.3765 100.769 61.3765 100.769 61.2942 100.769C61.2119 100.769 61.1296 100.769 61.0473 100.769C60.965 100.769 60.8827 100.769 60.8004 100.769C60.718 100.769 60.6357 100.692 60.5534 100.692C60.4711 100.692 60.3888 100.615 60.3065 100.538C60.2242 100.462 60.1419 100.462 60.0595 100.385C59.9772 100.308 59.8949 100.231 59.8126 100.077C59.7303 99.9231 59.7303 99.8461 59.648 99.6923C59.648 99.5384 59.5657 99.4615 59.5657 99.3077C59.5657 99.1538 59.5657 99.0769 59.5657 98.9231C59.5657 98.8461 59.5657 98.6923 59.5657 98.6154V98.6923V94H60.0595V98.6923H60.2242ZM56.4378 96.3846C56.5201 96.3846 56.6025 96.3846 56.6848 96.3846C56.7671 96.3846 56.8494 96.4615 57.014 96.4615C57.1786 96.5384 57.2609 96.6154 57.3433 96.6923C57.4256 96.7692 57.5079 96.9231 57.6725 97.0769C57.7548 97.2308 57.8371 97.3846 57.9194 97.6154C58.0018 97.923 58.0841 98.1539 58.0841 98.2308H54.38C54.38 98 54.4624 97.8461 54.5447 97.6154C54.627 97.3846 54.7916 97.1538 54.9562 97C55.1208 96.8461 55.3678 96.6923 55.6147 96.5385C55.8617 96.4615 56.1086 96.3846 56.4378 96.3846ZM58.5779 98.6154C58.5779 98.2308 58.4956 97.8461 58.4133 97.5385C58.331 97.2308 58.1664 96.9231 58.0018 96.7692C57.8371 96.6154 57.6725 96.3846 57.4256 96.3077C57.2609 96.1539 57.014 96.0769 56.8494 96C56.6848 95.9231 56.5201 95.9231 56.3555 95.9231C55.944 95.9231 55.6147 96 55.2855 96.1538C54.9562 96.3077 54.7093 96.4615 54.4623 96.6923C54.2154 96.9231 54.0508 97.1539 53.8862 97.4615C53.7215 97.7692 53.7215 98.0769 53.7215 98.3846C53.7215 98.6923 53.8039 99.0769 53.8862 99.3077C54.0508 99.6154 54.2154 99.8461 54.4623 100.077C54.7093 100.308 54.9562 100.462 55.2855 100.615C55.6147 100.769 55.944 100.846 56.3555 100.846C56.7671 100.846 57.0963 100.769 57.4256 100.615C57.5079 100.615 57.5902 100.538 57.6725 100.462V99.9231C57.5079 100 57.4256 100.077 57.261 100.154C57.014 100.231 56.6848 100.308 56.4378 100.308C56.1086 100.308 55.8617 100.231 55.6147 100.154C55.3678 100.077 55.1208 99.9231 54.9562 99.6923C54.7916 99.5384 54.627 99.3077 54.5447 99C54.4624 98.7692 54.38 98.6154 54.38 98.3846H58.5779V98.6154ZM53.31 100.538C53.1454 100.615 52.9807 100.692 52.8984 100.769C52.5692 100.923 52.2399 101 51.8284 101C51.4168 101 51.0876 100.923 50.7583 100.769C50.4291 100.615 50.1821 100.462 49.9352 100.231C49.6883 100 49.5236 99.7692 49.359 99.4615C49.1944 99.1538 49.1944 98.8461 49.1944 98.5384C49.1944 98.2308 49.2767 97.8461 49.359 97.6154C49.5236 97.3077 49.6883 97.0769 49.9352 96.8461C50.1821 96.6154 50.4291 96.4615 50.7583 96.3077C51.0876 96.1539 51.4168 96.0769 51.8284 96.0769C52.2399 96.0769 52.5692 96.1539 52.8984 96.3077C52.8984 96.3077 52.9807 96.3846 53.1454 96.4615C53.2277 96.5384 53.31 96.5384 53.31 96.6154L53.1454 97C52.9807 96.9231 52.8161 96.7692 52.6515 96.6923C52.4046 96.6154 52.1576 96.5385 51.8284 96.5385C51.4991 96.5385 51.2522 96.6154 51.0053 96.6923C50.7583 96.7692 50.5114 96.9231 50.3468 97.1538C50.1821 97.3077 50.0175 97.5384 49.9352 97.7692C49.8529 98 49.7706 98.3077 49.7706 98.5384C49.7706 98.8461 49.8529 99.0769 49.9352 99.3846C50.0175 99.6154 50.1821 99.8461 50.3468 100.077C50.5114 100.231 50.7583 100.385 51.0053 100.538C51.2522 100.615 51.4991 100.692 51.8284 100.692C52.1576 100.692 52.4046 100.615 52.6515 100.538C52.8161 100.462 52.9807 100.385 53.063 100.308L53.31 100.538ZM44.7496 96.0769L46.4781 98.0769L48.2067 96.0769H48.7828L46.8074 98.3846L48.8652 100.846H48.289L46.4781 98.6923L44.6673 100.846H44.0911L46.1489 98.3846L44.1734 96.0769H44.7496ZM38.5762 97.7692H38.8231H42.5271V97.3077H42.0333H38.4939V96.9231V96.6154V94.6923H42.9387V94.2308H38V100.769H42.9387V100.308H41.951H38.4116V97.7692H38.5762Z" fill="#FCAF17"/>
</svg>
