<svg width="123" height="123" viewBox="0 0 123 123" fill="none" xmlns="http://www.w3.org/2000/svg">
<path fill-rule="evenodd" clip-rule="evenodd" d="M61.5 8.64816C32.3107 8.64816 8.64816 32.3107 8.64816 61.5C8.64816 90.6893 32.3107 114.352 61.5 114.352C90.6893 114.352 114.352 90.6893 114.352 61.5C114.352 32.3107 90.6893 8.64816 61.5 8.64816ZM0 61.5C0 27.5345 27.5345 0 61.5 0C95.4655 0 123 27.5345 123 61.5C123 95.4655 95.4655 123 61.5 123C27.5345 123 0 95.4655 0 61.5Z" fill="#D6D6EB"/>
<path d="M64.0891 44.2222H70V22H50.081V44.4691C54.2915 41.7531 54.6154 41.5885 56.5587 38.2963C59.3117 33.6049 58.583 31.9589 58.7449 30.2305C58.9879 27.5144 60.2834 26.3621 62.3077 28.0905C64.17 29.7366 66.1943 33.7695 65.9514 36.6502C65.7085 39.6132 65.5466 40.6831 64.6559 43.0699C64.332 43.5638 64.17 43.9753 64.0891 44.2222ZM69.919 82V79.2017H59.6356H53.2389H50V82H69.919Z" fill="#5B247B"/>
<path fill-rule="evenodd" clip-rule="evenodd" d="M49.0829 22H70V44.5418H63.3302L63.4434 44.2078C63.5307 43.9499 63.7017 43.5301 64.0376 43.029C64.9293 40.711 65.0917 39.6725 65.3385 36.759C65.4575 35.392 65.0199 33.7237 64.3036 32.183C63.5882 30.6444 62.6131 29.2712 61.696 28.4858C60.6886 27.6537 59.9725 27.601 59.4979 27.9123C59.2434 28.0793 59.0164 28.3724 58.8367 28.8025C58.6575 29.2313 58.5321 29.7812 58.4714 30.4376L58.4713 30.4387C58.4392 30.7708 58.4427 31.0978 58.4467 31.4623C58.4477 31.5497 58.4486 31.6394 58.4491 31.7317C58.4518 32.2038 58.4414 32.729 58.3451 33.35C58.1522 34.5944 57.6189 36.1964 56.1969 38.5422C55.2019 40.1742 54.6045 41.0609 53.7032 41.8739C52.852 42.6416 51.7331 43.3401 49.7677 44.5669C49.6735 44.6257 49.5773 44.6858 49.479 44.7471L49.0829 44.9945V22ZM49.5988 22.5076V44.0712C51.5105 42.8776 52.5584 42.2179 53.3546 41.4997C54.1948 40.7418 54.7588 39.9142 55.754 38.2821C57.1516 35.9763 57.6549 34.4365 57.8352 33.2734C57.9255 32.6907 57.9359 32.1958 57.9333 31.7345C57.9328 31.6489 57.9319 31.5637 57.9309 31.4789C57.9268 31.1123 57.9228 30.7525 57.9577 30.3912C58.0215 29.7012 58.1552 29.0985 58.3596 28.6095C58.5634 28.1215 58.8443 27.7311 59.2118 27.49C59.9809 26.9854 60.9644 27.2181 62.0294 28.0985L62.0328 28.1013C63.0227 28.9483 64.0371 30.3898 64.7726 31.9718C65.5076 33.5525 65.9822 35.3125 65.8525 36.8017C65.6026 39.7525 65.4335 40.839 64.5097 43.2355L64.4994 43.2624L64.4832 43.2863C64.2899 43.5716 64.1562 43.8269 64.0639 44.0342H69.4842V22.5076H49.5988ZM49 78.7178H69.9171V82H49V78.7178ZM49.5158 79.2253V81.4924H69.4012V79.2253H49.5158Z" fill="#5B247B"/>
<path d="M60.9231 74.04C60.9231 75.64 62.1538 77 63.7692 77C63.9231 77 64.0769 77 64.2308 76.92V77H68.9231V71.08H64.2308V71.16C64.0769 71.16 63.9231 71.08 63.7692 71.08C62.2308 71.08 60.9231 72.44 60.9231 74.04ZM58.2308 66.04C58.2308 67.64 59.4615 69 61.0769 69C61.2308 69 61.3846 69 61.5385 68.92V69H69V63.08H61.5385V63.16C61.3846 63.16 61.2308 63.08 61.0769 63.08C59.5385 63.08 58.2308 64.36 58.2308 66.04ZM59.3077 55.08C59.1538 55.08 59 55 58.8461 55C57.3077 55 56 56.36 56 57.96C56 59.56 57.2308 60.92 58.8461 60.92C59 60.92 59.1538 60.92 59.3077 60.84V60.92H69V55L59.3077 55.08ZM62.3846 47C62.2308 47 62.0769 47 61.9231 47C60.3846 47 59.0769 48.36 59.0769 49.96C59.0769 51.56 60.3077 52.92 61.9231 52.92C62.0769 52.92 62.2308 52.92 62.3846 52.84V52.92H69V47H62.3846Z" fill="#5B247B"/>
<path fill-rule="evenodd" clip-rule="evenodd" d="M58.4243 49.3669C58.4243 47.5439 59.9988 46 61.8579 46H70V52.7338H62.1054V52.7259C62.02 52.7339 61.9412 52.7338 61.8731 52.7338C61.868 52.7338 61.8629 52.7338 61.8579 52.7338C59.9085 52.7338 58.4243 51.1853 58.4243 49.3669ZM62.6378 52.2117H69.4675V46.5221H61.8579C60.2929 46.5221 58.9567 47.8322 58.9567 49.3669C58.9567 50.9061 60.2119 52.2117 61.8579 52.2117C62.0358 52.2117 62.1453 52.2078 62.2525 52.1552L62.6378 51.9663V52.2117ZM70 54.392V61.1279H58.6811V61.12C58.5958 61.128 58.5169 61.1279 58.4488 61.1279C58.4437 61.1279 58.4387 61.1279 58.4337 61.1279C56.4842 61.1279 55 59.5794 55 57.761C55 55.938 56.5745 54.3941 58.4337 54.3941C58.5526 54.3941 58.6659 54.4219 58.745 54.4414C58.7484 54.4422 58.7518 54.443 58.7551 54.4439C58.8463 54.4662 58.8995 54.4779 58.9464 54.478C58.9467 54.478 58.947 54.478 58.9473 54.478L70 54.392ZM59.2136 60.6058H69.4675V54.9183L58.9494 55.0001L58.9473 55.0001C58.8284 55.0001 58.7151 54.9723 58.636 54.9528C58.6326 54.952 58.6292 54.9512 58.6259 54.9504C58.5341 54.9279 58.4808 54.9162 58.4337 54.9162C56.8686 54.9162 55.5325 56.2263 55.5325 57.761C55.5325 59.3002 56.7876 60.6058 58.4337 60.6058C58.6115 60.6058 58.721 60.6019 58.8283 60.5493L59.2136 60.3604V60.6058ZM57.4826 66.239C57.4826 64.3275 59.0618 62.8721 60.9163 62.8721C61.0061 62.8721 61.0926 62.888 61.1637 62.9041V62.8721H70V69.6059H61.1637V69.598C61.0784 69.606 60.9997 69.6059 60.9317 69.6059L60.9163 69.6059C58.9668 69.6059 57.4826 68.0574 57.4826 66.239ZM61.6961 69.0838H69.4675V63.3942H61.6961V63.4782H61.4299C61.3109 63.4782 61.1976 63.4503 61.1186 63.4309L61.1085 63.4284C61.0166 63.4059 60.9634 63.3942 60.9163 63.3942C59.3465 63.3942 58.0151 64.625 58.0151 66.239C58.0151 67.7783 59.2702 69.0838 60.9163 69.0838C61.0942 69.0838 61.2036 69.08 61.3108 69.0274L61.6961 68.8385V69.0838ZM60.4788 74.6331C60.4788 72.8101 62.0533 71.2662 63.9125 71.2662C64.0023 71.2662 64.0889 71.2821 64.1599 71.2982V71.2662H69.9144V78H64.1599V77.9921C64.0747 78.0001 63.9959 78 63.9279 78L63.9125 78C61.9631 78 60.4788 76.4515 60.4788 74.6331ZM64.6924 77.4779H69.3819V71.7883H64.6924V71.8723H64.4261C64.3072 71.8723 64.1939 71.8444 64.1148 71.825L64.1047 71.8225C64.0129 71.8 63.9596 71.7883 63.9125 71.7883C62.3474 71.7883 61.0113 73.0985 61.0113 74.6331C61.0113 76.1724 62.2665 77.4779 63.9125 77.4779C64.0905 77.4779 64.1999 77.4741 64.3071 77.4215L64.6924 77.2326V77.4779Z" fill="#5B247B"/>
<path d="M74.375 103.4C74.6184 103.486 74.943 103.571 75.3487 103.571C75.4298 103.571 75.511 103.571 75.5921 103.486C75.6732 103.486 75.7544 103.4 75.8355 103.314C75.9167 103.229 75.9978 103.143 75.9978 103.143C76.0789 103.057 76.0789 102.971 76.1601 102.886C76.2412 102.8 76.2412 102.714 76.2412 102.629C76.2412 102.543 76.3224 102.457 76.3224 102.371C76.3224 102.286 76.4035 102.2 76.4035 102.2L73.9693 96.8857H74.5373L76.6469 101.6L78.432 96.8857H79L76.8903 102.2C76.7281 102.714 76.4846 103.143 76.2412 103.4C75.9167 103.657 75.5921 103.829 75.2675 103.829C75.0241 103.829 74.6996 103.743 74.375 103.657V103.4ZM71.1294 95.3429H70.6425V97.0572H69.9123V97.4857H70.6425V99.9715V100.057C70.6425 100.314 70.6425 100.571 70.6425 100.657C70.6425 100.829 70.7237 101 70.7237 101.257C70.8048 101.514 70.886 101.771 71.0482 101.857C71.1294 101.943 71.2105 102.029 71.2917 102.029C71.3728 102.114 71.4539 102.114 71.5351 102.2C71.6162 102.2 71.6974 102.286 71.7785 102.286C71.8596 102.286 71.9408 102.286 72.0219 102.286C72.1031 102.286 72.1842 102.286 72.2653 102.286C72.3465 102.286 72.4276 102.286 72.4276 102.286C72.4276 102.286 72.5088 102.286 72.5899 102.286C72.671 102.286 72.671 102.286 72.7522 102.286H72.8333H72.9145V101.857C72.2654 102.114 71.6974 102.029 71.4539 101.686C71.3728 101.6 71.3728 101.514 71.2917 101.429C71.2105 101.343 71.2105 101.257 71.2105 101.171C71.2105 101.086 71.2105 101 71.2105 100.914C71.2105 100.829 71.2105 100.743 71.2105 100.657C71.2105 100.571 71.2105 100.486 71.2105 100.4C71.2105 100.314 71.2105 100.143 71.2105 100.143V100.057V97.5714H72.9145V97.1429H71.2105V95.3429H71.1294ZM68.7763 102.286H68.2895V96.9715H68.7763V98V102.286ZM68.2083 96.2857H68.8575V95.4286H68.2083V96.2857ZM67.0724 96.9715C66.6667 96.9715 66.3421 97.0572 65.9364 97.3143C65.5307 97.4857 65.2061 97.9143 64.8816 98.5143V98V96.9715H64.3947V102.286H64.8816V99.7143C64.9627 99.2857 65.0439 98.9429 65.2061 98.6858C65.3684 98.4286 65.5307 98.1714 65.693 98C65.8553 97.8286 66.0175 97.7429 66.1798 97.6572C66.3421 97.5715 66.5044 97.4857 66.6667 97.4857C66.7478 97.4857 66.9101 97.4857 66.9912 97.4857V96.9715H67.0724ZM63.0153 101.514C63.0153 101.686 63.0154 101.857 62.9342 102.114C62.9342 102.371 62.8531 102.543 62.6908 102.8C62.5285 103.057 62.3662 103.229 62.2039 103.4C61.9605 103.571 61.7171 103.743 61.4737 103.829C61.1491 103.914 60.9057 104 60.5811 104C59.932 104 59.2829 103.829 58.5526 103.4L58.7149 102.886C59.1206 103.314 59.6886 103.571 60.5811 103.571C60.8246 103.571 61.068 103.571 61.3114 103.486C61.5548 103.4 61.7171 103.314 61.7982 103.229C61.9605 103.143 62.0417 102.971 62.1228 102.886C62.2039 102.714 62.2851 102.629 62.3662 102.457C62.4474 102.371 62.4474 102.2 62.5285 102.029C62.5285 101.857 62.6096 101.771 62.6096 101.686C62.6096 101.6 62.6096 101.6 62.6096 101.514V100.743C62.5285 100.914 62.4474 101 62.2851 101.171C62.2039 101.343 62.0417 101.429 61.8794 101.6C61.7171 101.771 61.5548 101.857 61.3114 101.943C61.068 102.029 60.8246 102.029 60.5811 102.029C60.3377 102.029 60.0132 101.943 59.7697 101.857C59.5263 101.771 59.2017 101.6 58.9583 101.429C58.7149 101.257 58.4715 101 58.3092 100.657C58.1469 100.314 58.0658 99.9714 58.0658 99.6286C58.0658 99.2 58.1469 98.8571 58.3903 98.4286C58.6338 98 58.8772 97.7429 59.2017 97.4857C59.6075 97.2286 60.0132 97.0572 60.4189 97.0572C60.6623 97.0572 60.9057 97.0571 61.1491 97.1429C61.3925 97.2286 61.5548 97.3143 61.7171 97.3143C61.8794 97.4 61.9605 97.4857 62.1228 97.6572C62.2851 97.8286 62.3662 97.9143 62.3662 98C62.3662 98.0857 62.4474 98.1715 62.5285 98.2572V98.3429V97.0572H63.0153V101.514ZM62.5285 98.9429C62.5285 98.9429 62.5285 98.8572 62.4474 98.7714C62.3662 98.6857 62.3662 98.5143 62.2851 98.4286C62.2039 98.3429 62.1228 98.2572 62.0417 98.0857C61.9605 97.9143 61.7982 97.8286 61.636 97.7429C61.4737 97.6572 61.3114 97.5714 61.068 97.4857C60.8246 97.4 60.5811 97.4 60.3377 97.4C59.932 97.4 59.5263 97.4857 59.2017 97.7429C58.8772 98 58.7149 98.2572 58.5526 98.6C58.4715 98.9429 58.3904 99.2857 58.4715 99.7143C58.5526 100.057 58.6338 100.4 58.8772 100.743C59.2018 101.171 59.6075 101.429 60.0943 101.429C60.5811 101.514 61.068 101.429 61.4737 101.171C61.8794 100.914 62.2039 100.486 62.4474 99.9715V99.8857V98.9429H62.5285ZM54.9013 97.4C54.9824 97.4 55.0636 97.4 55.1447 97.4C55.2259 97.4 55.307 97.4857 55.4693 97.4857C55.6316 97.5714 55.7127 97.6572 55.7939 97.7429C55.875 97.8286 55.9561 98 56.1184 98.1714C56.2807 98.3429 56.2807 98.5143 56.3618 98.7714C56.443 99.1143 56.5241 99.3714 56.5241 99.4572H52.8728C52.8728 99.2 52.954 99.0286 53.0351 98.7714C53.1162 98.5143 53.2785 98.2572 53.4408 98.0857C53.6031 97.9143 53.8465 97.7429 54.0899 97.5714C54.2522 97.4 54.5767 97.4 54.9013 97.4ZM57.011 99.8857C57.011 99.4572 56.9298 99.0286 56.8487 98.6858C56.7675 98.3429 56.6053 98 56.443 97.8286C56.2807 97.6572 56.1184 97.4 55.875 97.3143C55.7127 97.1429 55.4693 97.0572 55.307 96.9715C55.1447 96.8858 54.9825 96.8857 54.8202 96.8857C54.4145 96.8857 54.0899 96.9714 53.7653 97.1429C53.4408 97.3143 53.1974 97.4857 52.9539 97.7429C52.7105 98 52.5482 98.2572 52.386 98.6C52.2237 98.9429 52.2237 99.2857 52.2237 99.6286C52.2237 99.9714 52.3048 100.4 52.386 100.657C52.5482 101 52.7105 101.257 52.9539 101.514C53.1974 101.771 53.4408 101.943 53.7653 102.114C54.0899 102.286 54.4145 102.371 54.8202 102.371C55.2259 102.371 55.5504 102.286 55.875 102.114C55.9561 102.114 56.0373 102.029 56.1184 101.943V101.343C55.9561 101.429 55.875 101.514 55.7127 101.6C55.4693 101.686 55.1447 101.771 54.9013 101.771C54.5767 101.771 54.3333 101.686 54.0899 101.6C53.8465 101.514 53.6031 101.343 53.4408 101.086C53.2785 100.829 53.1162 100.657 53.0351 100.314C52.954 100.057 52.8728 99.8857 52.8728 99.6286H57.011V99.8857ZM50.1952 95.3429H49.7083V97.0572H48.9781V97.4857H49.7083V99.9715V100.057C49.7083 100.314 49.7083 100.571 49.7083 100.657C49.7083 100.829 49.7895 101 49.7895 101.257C49.8706 101.514 49.9518 101.771 50.114 101.857C50.1952 101.943 50.2763 102.029 50.3575 102.029C50.4386 102.029 50.5197 102.114 50.6009 102.2C50.682 102.2 50.7632 102.286 50.8443 102.286C50.9254 102.286 51.0066 102.286 51.0877 102.286C51.1689 102.286 51.25 102.286 51.3311 102.286C51.4123 102.286 51.4934 102.286 51.4934 102.286C51.5746 102.286 51.5746 102.286 51.6557 102.286C51.7368 102.286 51.7368 102.286 51.818 102.286H51.8991H51.9803V101.857C51.3311 102.114 50.7632 102.029 50.5197 101.686C50.4386 101.6 50.4386 101.514 50.3575 101.429C50.3575 101.343 50.2763 101.257 50.2763 101.171C50.2763 101.086 50.2763 101 50.2763 100.914C50.2763 100.829 50.2763 100.743 50.2763 100.657C50.2763 100.571 50.2763 100.486 50.2763 100.4C50.2763 100.314 50.2763 100.143 50.2763 100.143V100.057V97.5714H51.9803V97.1429H50.2763V95.3429H50.1952ZM44.5154 102.286H44.0285V96.9715H44.5154V97.9143C44.9211 97.2286 45.489 96.8857 46.2193 96.8857C46.9496 96.8857 47.4364 97.0572 47.761 97.4857C48.0855 97.9143 48.3289 98.4286 48.3289 99.2V102.286H47.8421V99.3715C47.8421 98 47.2741 97.3143 46.1382 97.3143C45.4079 97.3143 44.8399 97.7429 44.5154 98.6858V102.286ZM42.4868 95H42V102.286H42.4868V95Z" fill="#752B90"/>
</svg>
