<svg width="116" height="117" viewBox="0 0 116 117" fill="none" xmlns="http://www.w3.org/2000/svg">
<mask id="mask0" mask-type="alpha" maskUnits="userSpaceOnUse" x="0" y="0" width="116" height="117">
<rect width="116" height="117" fill="#C4C4C4"/>
</mask>
<g mask="url(#mask0)">
<path d="M77.9855 105.95C77.9855 105.95 74.607 106.896 74.4719 109.463C74.3367 112.031 77.58 114.193 78.9314 115.004C80.418 115.815 87.8506 119.058 96.6346 115.004C98.1211 114.193 101.229 112.436 101.094 109.463C100.959 104.463 94.6075 103.382 94.6075 103.382C94.6075 103.382 94.6075 98.7875 88.3911 98.9226C83.1207 99.0577 82.5802 102.842 82.5802 102.842C82.5802 102.842 80.418 101.761 78.6612 103.247C77.0395 104.463 77.9855 105.95 77.9855 105.95Z" fill="#BCE6FB"/>
<path d="M33.1198 52.5702C33.1198 52.5702 36.4982 53.5161 36.6334 56.0838C36.7685 57.8406 37.1739 59.5974 32.0387 59.4622C30.417 59.4622 28.6602 57.9757 27.9845 58.3811C25.0114 60.4082 24.606 60.4082 24.606 60.4082C24.606 60.4082 21.4978 61.8947 18.1193 59.4622C17.3085 58.9217 17.9842 61.6244 14.4706 61.6244C11.0921 61.6244 9.87587 59.0568 10.011 56.0838C10.1462 51.0836 16.4977 50.0025 16.4977 50.0025C16.4977 50.0025 16.4977 45.4078 22.7141 45.543C27.9845 45.6781 28.525 49.4619 28.525 49.4619C28.525 49.4619 30.6873 48.3809 32.4441 49.8674C33.9306 51.0837 33.1198 52.5702 33.1198 52.5702Z" fill="#BCE6FB"/>
<path d="M77.4455 75.9491C77.4455 75.0032 77.3104 74.1923 77.1753 73.3815C75.959 72.976 74.3373 72.7058 73.1211 72.841C71.9048 72.9761 67.7155 73.922 69.8778 75.8139C70.8237 76.6248 73.1211 76.7599 74.2022 76.7599C75.2833 76.4897 76.2293 76.2194 77.4455 75.9491ZM82.7159 71.4896C83.2565 71.0842 85.0133 70.1382 84.2025 69.1922C83.5268 68.3814 82.3105 68.9219 81.6348 69.5976C80.9591 70.4084 80.5537 71.4896 80.2834 72.1653C81.0943 72.1653 81.9051 72.0301 82.7159 71.4896ZM70.2832 94.7334C72.5805 90.8143 74.6076 88.517 76.2293 83.3818C77.0401 81.0844 77.4455 79.4628 77.5807 77.5708C75.8238 78.2465 73.7968 78.1113 72.04 77.841C70.4183 77.4356 67.9858 76.6248 67.7155 74.7329C67.4453 72.7058 69.8777 71.895 71.4994 71.4896C73.3913 70.949 75.4184 71.0841 77.1753 71.7598C76.6347 69.5976 75.5536 67.1651 74.0671 64.7326C73.2562 65.2732 75.8238 63.2461 74.8779 63.7866C76.7698 65.5434 78.1212 67.8408 79.2023 70.2733C79.6077 69.057 80.2835 67.8408 81.4997 67.3002C82.716 66.7597 84.4728 67.03 85.4187 68.2462C86.4998 69.5976 85.8241 71.2192 84.6079 72.0301C83.2565 73.1112 81.77 73.5166 80.2834 73.6518C80.824 76.4897 80.824 79.733 80.1483 82.4358C78.6618 87.0305 76.6347 90.2738 73.2562 96.7605C70.0129 103.112 70.1481 106.355 69.3372 112.031C69.4724 113.518 67.3101 113.653 66.7695 112.437C65.8236 108.518 67.8507 98.6524 70.2832 94.7334Z" fill="#D2232A"/>
<path d="M71.3642 58.5161L74.7426 58.9215L78.3913 63.246L73.6615 65.6785H71.229L71.3642 58.5161Z" fill="#B9D658"/>
<path d="M91.365 12.299C94.203 16.0829 96.23 17.4343 94.8787 28.1102C94.0678 34.3266 85.4189 46.354 81.0945 49.5973C74.2024 55.0029 76.4998 57.165 76.4998 59.5975C76.4998 62.03 74.6079 59.5975 70.6888 58.2462C66.7698 56.7596 59.7426 57.9759 53.1208 55.6786C46.499 53.3812 31.0931 48.1108 27.5795 37.8402C24.7416 29.7319 22.9848 19.0559 35.6879 9.4611C40.0123 6.21777 52.1748 7.70428 57.0398 11.2179C62.0399 14.8666 65.5535 22.4345 66.2292 24.1913C66.9049 25.9481 66.4995 19.5965 67.3104 16.3531C68.1212 13.2449 71.2294 7.97459 75.4187 7.02861C79.608 6.08264 84.6081 6.89344 85.8243 7.83941C87.1757 8.65025 88.6623 8.51509 91.365 12.299Z" fill="#B9D658"/>
<path d="M76.4996 63.1111C75.959 62.03 75.4185 60.8137 74.6076 59.8677L73.9319 60.0029C73.7968 60.0029 73.3914 59.8678 72.9859 60.0029C72.8508 60.5435 72.5805 61.2191 72.7157 61.8948C72.7157 62.7056 72.5805 63.6516 72.5805 64.3273C73.9319 63.9219 75.2833 63.5165 76.4996 63.1111ZM97.0407 25.9479C98.2569 16.7585 93.3919 7.43386 83.3916 6.21761C72.4454 5.00136 67.8507 14.4611 66.6344 23.5154C66.3642 25.2722 63.9316 25.2722 63.5262 23.6505C60.2829 14.1908 50.688 7.16365 40.6878 12.7043C31.3632 17.7045 30.8227 29.7318 35.5525 37.9752C43.2554 51.7594 60.1478 53.9216 74.3373 56.219C74.4725 56.219 74.8779 56.3541 75.1482 56.4892C84.4727 48.2458 95.0136 38.651 97.0407 25.9479ZM71.7697 67.7057C71.094 67.8409 70.0129 67.3004 70.0129 66.4895C69.8778 64.8679 69.8778 63.3814 70.0129 61.7597C70.0129 60.9489 70.148 60.2731 70.4183 59.5974C50.1475 57.0298 22.7143 46.2187 28.3901 21.6235C32.5794 4.05542 55.4179 1.7581 63.3911 15.4071C66.6344 2.29865 86.3647 -3.1069 96.5001 7.97448C111.906 24.7317 92.0405 50.5432 75.959 58.1109C77.7158 59.4623 78.9321 61.3542 80.0132 63.2462C80.5537 63.9219 80.0132 65.1382 79.2023 65.4085C78.2564 65.8139 72.7157 67.7057 71.7697 67.7057Z" fill="#D2232A"/>
<path d="M61.7701 32.1644C62.3107 34.0564 61.7701 35.8132 60.689 36.0835C59.6079 36.3538 58.2565 35.1375 57.716 33.2455C57.1754 31.3536 57.716 29.5968 58.7971 29.3266C59.8782 29.0563 61.2296 30.2725 61.7701 32.1644Z" fill="black"/>
<path d="M80.1481 35.1373C79.6076 35.0021 79.2021 35.4075 79.067 35.9481C79.067 35.9481 79.067 35.9481 79.067 36.0833C78.9319 36.4887 78.5264 38.3806 77.1751 40.4077C76.4994 41.4888 75.5534 42.4347 74.4723 43.3807C73.256 44.3267 71.7695 45.0024 70.0127 45.543C67.9856 46.0835 66.2288 46.0835 64.7423 45.8133C62.4449 45.4079 60.553 44.3267 59.3367 43.3807C58.661 42.8402 58.2556 42.4348 57.8502 42.1645C57.7151 42.0294 57.5799 41.8942 57.4448 41.7591L57.3096 41.6239C57.0394 41.2185 56.3637 41.2185 55.9583 41.4888C55.5528 41.7591 55.5529 42.4348 55.8231 42.8402C55.8231 42.8402 57.3097 44.597 59.7422 45.9484C60.9584 46.6241 62.5801 47.2998 64.3369 47.5701C66.0937 47.8403 68.1208 47.8403 70.4181 47.2998C72.5803 46.7592 74.4723 45.6781 75.8237 44.597C77.9859 42.8402 79.2021 40.8131 80.013 39.1914C80.8238 37.5698 80.9589 36.3536 80.9589 36.3536C80.9589 35.6779 80.5535 35.1373 80.1481 35.1373Z" fill="black"/>
<path d="M76.0945 27.7046L76.4999 27.9749L76.0945 27.7046L76.4999 27.9749L76.0945 27.7046C75.9593 27.8397 75.5539 28.5154 75.0133 29.056C74.743 29.3263 74.3376 29.5965 73.9322 29.8668C73.5268 30.1371 72.9863 30.2722 72.4457 30.4074C72.0403 30.5425 71.4997 30.5425 70.9592 30.4074C70.4186 30.2722 69.7429 30.1371 69.0672 29.7317C68.6618 29.4614 68.1213 29.7317 67.851 30.1371C67.5807 30.5425 67.851 31.0831 68.2564 31.3534C69.0672 31.7588 69.8781 32.029 70.6889 32.1642C71.4997 32.2993 72.1754 32.2993 72.8511 32.1642C73.6619 32.029 74.3376 31.7588 75.0133 31.3534C75.9593 30.8128 76.635 30.1371 77.0404 29.5966C77.4458 29.056 77.7161 28.6506 77.7161 28.6506C77.9864 28.2452 77.8513 27.7046 77.4458 27.4343C76.9053 27.164 76.3647 27.2992 76.0945 27.7046Z" fill="black"/>
</g>
</svg>
