<svg width="116" height="117" viewBox="0 0 116 117" fill="none" xmlns="http://www.w3.org/2000/svg">
<mask id="mask0" mask-type="alpha" maskUnits="userSpaceOnUse" x="0" y="0" width="116" height="117">
<rect width="116" height="117" fill="#C4C4C4"/>
</mask>
<g mask="url(#mask0)">
<path d="M76.9252 42.75C76.3252 44.35 72.6252 49.25 72.6252 49.25C71.5252 51.35 72.3252 49.85 71.2252 51.35C69.9252 53.25 68.8252 52.25 67.4252 57.85C66.0252 63.45 63.6252 63.95 62.1252 64.35C60.6252 64.85 58.4252 65.55 57.9252 65.45C54.4252 64.25 54.6252 62.45 52.6252 57.95C47.2252 45.85 43.5252 46.65 42.7252 40.65C41.9252 35.95 42.9252 31.65 47.1252 26.55C51.6252 21.15 58.4252 19.75 59.4252 19.65C60.3252 19.55 67.5252 19.15 72.5252 24.45C79.0252 31.15 77.6252 40.75 76.9252 42.75Z" fill="#FDBD4A"/>
<path d="M62.0251 95.9501C68.7251 91.5501 69.5251 80.2501 76.9251 76.9501C70.9251 76.7501 66.7251 91.0501 61.3251 94.4501C60.9251 94.6501 60.7251 95.1501 60.9251 95.5501C61.0251 95.9501 61.5251 96.1501 62.0251 95.9501Z" fill="#539B3A"/>
<path d="M80.5249 76.45C70.9249 71.85 66.925 78.65 69.425 85.45C70.925 82.75 74.4249 77.15 80.5249 76.45Z" fill="#ABD037"/>
<path d="M58.2251 87.65C55.0251 82.75 45.2251 83.35 42.7251 88.15C46.6251 84.55 54.4251 84.05 57.0251 88.35C57.2251 88.75 57.6251 88.85 57.9251 88.65C58.3251 88.45 58.4251 88.05 58.2251 87.65Z" fill="#539B3A"/>
<path d="M50.9249 85.15C44.8249 80.75 37.9248 81.55 38.5248 92.95C41.5248 87.05 47.9249 85.55 50.9249 85.15Z" fill="#ABD037"/>
<path d="M75.7249 31.45C72.1249 21.25 59.8249 16.55 49.8249 21.75C39.1249 27.25 37.8249 37.95 42.8249 47.05C44.5249 50.05 47.1249 52.55 49.5249 55.05C51.8249 57.45 53.3249 60.15 53.5249 63.45C53.5249 63.95 53.1249 64.95 54.2249 64.85C54.4249 64.85 54.7249 64.45 54.6249 63.25C54.6249 61.95 54.9249 56.55 52.1249 53.95C48.9249 50.95 43.8249 47.45 42.3249 43.15C40.8249 38.95 41.2249 34.65 43.0249 30.55C46.4249 23.05 54.7249 19.25 63.0249 21.45C74.8249 24.55 78.8249 38.25 71.3249 47.95C69.6249 50.15 68.1249 51.15 66.5249 53.35C65.6249 54.55 64.8249 56.25 64.3249 57.75C63.9249 58.95 64.0249 61.15 63.9249 62.45C63.8249 63.25 63.5249 63.85 62.6249 64.05C59.9249 64.65 57.2249 65.25 54.5249 65.85C54.1249 65.95 53.3249 66.15 53.3249 66.55C53.2249 66.95 54.1249 67.15 54.5249 67.25C56.3249 67.45 58.2249 67.65 60.0249 67.75C59.6249 68.05 59.3249 68.15 58.9249 68.25C57.3249 68.65 55.7249 69.05 54.1249 69.45C53.7249 69.55 53.1249 69.75 53.2249 70.15C53.3249 70.55 53.9249 70.65 54.3249 70.65C54.9249 70.75 58.1249 70.85 59.1249 70.95C58.9249 71.25 55.5249 72.05 54.1249 72.45C53.9249 72.55 53.5249 72.65 53.5249 73.05C53.5249 73.45 53.9249 73.55 54.2249 73.65C54.6249 73.75 57.5249 74.05 58.6249 74.15C57.4249 74.55 56.4249 74.75 54.8249 75.35C51.8249 77.35 52.8249 79.05 52.9249 80.05C53.8249 83.55 60.9249 93.85 61.5249 99.35C62.0249 103.75 62.1249 106.25 60.4249 110.75C60.3249 111.25 63.0249 111.65 63.2249 110.85C64.7249 106.35 64.5249 102.25 63.8249 97.65C62.2249 87.95 48.2249 78.85 57.7249 75.95C60.9249 74.75 62.2249 74.95 63.7249 74.65C64.0249 74.55 64.4249 74.45 64.5249 74.05C64.5249 73.65 64.0249 73.55 63.7249 73.35C63.5249 73.25 60.0249 72.95 58.4249 72.75C58.6249 72.45 58.9249 72.35 59.1249 72.35C60.8249 71.95 62.5249 71.55 64.1249 71.15C64.4249 71.05 64.9249 70.75 64.8249 70.45C64.8249 70.15 64.3249 69.95 64.0249 69.95C63.4249 69.85 59.9249 69.75 58.8249 69.65C60.5249 68.95 62.2249 68.55 63.8249 68.05C64.2249 67.95 65.0249 67.65 64.9249 67.25C64.8249 66.85 64.1249 66.75 63.7249 66.65C62.3249 66.45 60.9249 66.35 59.4249 66.25C59.4249 66.15 62.0249 65.25 63.4249 64.85C64.5249 64.55 65.0249 63.95 65.1249 62.75C65.2249 58.95 66.3249 55.65 69.3249 52.95C71.3249 51.15 72.9249 48.85 74.3249 46.55C77.2249 41.95 77.6249 36.75 75.7249 31.45Z" fill="#539B3A"/>
<path d="M41.9248 113.05C42.8248 111.45 43.5248 110.05 44.1248 109.35C46.0248 107.05 49.8248 106.05 51.7248 107.95C53.8248 109.95 55.1248 103.95 57.9248 105.85C61.5248 108.35 65.2248 105.15 69.0248 105.75C72.9248 106.45 73.7248 108.65 77.0248 110.55C78.6248 111.45 81.4248 112.15 84.1248 112.75C77.6248 113.45 69.9248 113.95 61.6248 113.95C54.6248 113.95 47.8248 113.65 41.9248 113.05Z" fill="#663B1D"/>
<path d="M79.5248 32.65C82.7248 32.15 85.9248 31.75 89.2248 31.25C90.4248 31.05 90.4248 29.05 89.1248 29.25C85.9248 29.75 82.7248 30.15 79.4248 30.65C78.2248 30.85 78.3248 32.85 79.5248 32.65Z" fill="#539B3A"/>
<path d="M58.125 17.25C57.325 13.45 57.125 9.65 57.425 5.75C57.525 4.75 55.625 4.75 55.525 5.75C55.225 9.75 55.525 13.75 56.225 17.65C56.525 18.75 58.325 18.35 58.125 17.25Z" fill="#539B3A"/>
<path d="M26.825 32.75C29.925 33.05 32.925 33.45 36.025 33.75C37.225 33.85 37.125 32.05 36.025 31.95C32.925 31.65 29.925 31.25 26.825 30.95C25.725 30.75 25.725 32.65 26.825 32.75Z" fill="#539B3A"/>
<path d="M39.3251 17.8501C41.1251 19.3501 43.0251 20.7501 44.8251 22.2501C45.5251 22.8501 46.9251 21.6501 46.2251 21.1501C44.4251 19.6501 42.5251 18.2501 40.7251 16.7501C40.0251 16.1501 38.6251 17.2501 39.3251 17.8501Z" fill="#539B3A"/>
<path d="M79.0249 17.15C77.2249 18.65 75.3249 20.05 73.5249 21.55C72.8249 22.15 71.4249 20.95 72.1249 20.45C73.9249 18.95 75.8249 17.55 77.6249 16.05C78.3249 15.45 79.7249 16.65 79.0249 17.15Z" fill="#539B3A"/>
<path d="M65.3248 34.7501C65.3248 34.6501 65.3248 34.4501 65.3248 34.3501C65.1248 32.8501 63.7248 31.8501 62.3248 32.0501C60.9248 32.2501 59.9248 33.6501 60.2248 35.1501C60.2248 35.4501 60.3248 35.6501 60.4248 35.8501C60.4248 34.5501 61.3248 33.3501 62.6248 33.1501C63.7248 33.0501 64.8248 33.7501 65.3248 34.7501Z" fill="black"/>
<path d="M57.4249 35.7501C57.4249 35.6501 57.4249 35.4501 57.4249 35.3501C57.2249 33.8501 55.8249 32.8501 54.4249 33.0501C53.0249 33.2501 52.0249 34.6501 52.3249 36.1501C52.3249 36.4501 52.4249 36.6501 52.5249 36.8501C52.5249 35.5501 53.4249 34.3501 54.7249 34.1501C55.8249 34.0501 56.9249 34.7501 57.4249 35.7501Z" fill="black"/>
<path d="M50.4248 40.1501C50.4248 40.3501 50.4248 40.55 50.4248 40.75C50.8248 44.25 55.0248 47.7501 59.6248 47.1501C64.2248 46.5501 67.6248 42.1501 67.2248 38.6501C67.2248 38.4501 67.1248 38.25 67.1248 38.05C67.1248 41.35 63.8248 44.25 59.5248 44.85C55.1248 45.35 51.2248 43.2501 50.4248 40.1501Z" fill="black"/>
<path d="M67.0249 37.45C66.2249 37.55 65.6249 38.35 65.8249 39.15C65.9249 39.95 66.7249 40.55 67.5249 40.35C68.3249 40.25 68.9249 39.45 68.7249 38.65C68.6249 37.85 67.9249 37.25 67.0249 37.45Z" fill="#F8951D"/>
<path d="M68.825 38.65L68.525 38.75C68.625 39.05 68.525 39.35 68.325 39.65C68.125 39.85 67.925 40.05 67.525 40.15C67.225 40.25 66.925 40.15 66.625 39.95C66.425 39.75 66.225 39.55 66.125 39.15C66.025 38.85 66.125 38.55 66.325 38.25C66.525 38.05 66.725 37.85 67.125 37.75C67.425 37.65 67.725 37.75 68.025 37.95C68.225 38.15 68.425 38.35 68.525 38.75L68.825 38.65L69.125 38.55C68.925 37.55 68.025 36.95 67.025 37.05C66.025 37.25 65.425 38.15 65.525 39.15C65.725 40.15 66.625 40.75 67.625 40.65C68.625 40.45 69.225 39.55 69.125 38.55L68.825 38.65Z" fill="black"/>
<path d="M50.125 38.75C49.325 38.85 48.725 39.65 48.925 40.45C49.025 41.25 49.825 41.85 50.625 41.65C51.425 41.55 52.025 40.75 51.825 39.95C51.725 39.15 50.925 38.65 50.125 38.75Z" fill="#F8951D"/>
<path d="M51.825 39.9499L51.525 40.0499C51.625 40.3499 51.525 40.6499 51.325 40.9499C51.125 41.1499 50.925 41.3499 50.525 41.4499C50.225 41.5499 49.925 41.4499 49.625 41.2499C49.425 41.0499 49.225 40.8499 49.125 40.4499C49.025 40.1499 49.125 39.8499 49.325 39.5499C49.525 39.3499 49.725 39.1499 50.125 39.0499C50.425 38.9499 50.725 39.0499 51.025 39.2499C51.225 39.4499 51.425 39.6499 51.525 40.0499L51.825 39.9499L52.125 39.8499C51.925 38.8499 51.025 38.2499 50.025 38.3499C49.025 38.5499 48.425 39.4499 48.525 40.4499C48.725 41.4499 49.625 42.0499 50.625 41.9499C51.625 41.7499 52.225 40.8499 52.125 39.8499L51.825 39.9499Z" fill="black"/>
</g>
</svg>
