<svg width="116" height="117" viewBox="0 0 116 117" fill="none" xmlns="http://www.w3.org/2000/svg">
<mask id="mask0" mask-type="alpha" maskUnits="userSpaceOnUse" x="0" y="0" width="116" height="117">
<rect width="116" height="117" fill="#C4C4C4"/>
</mask>
<g mask="url(#mask0)">
<path d="M62.4597 28.8716C65.2753 25.0187 67.3499 25.9079 67.2017 30.6499L66.9053 47.0988C66.7571 51.8408 66.4608 59.9911 70.7582 61.6212L82.0206 63.844C86.318 65.4741 85.4289 66.3633 81.1314 67.8452L69.7209 71.5499C65.4234 72.8836 66.4608 80.7376 66.3126 85.4796L66.0162 101.928C65.868 106.671 63.6452 107.411 61.126 103.41L52.2347 89.777C49.7155 85.7759 43.9361 83.7014 39.6387 85.0351L24.6716 89.777C20.3742 91.1107 19.0405 89.1843 21.7079 85.3314L31.1919 72.2908C34.0075 68.4379 34.1557 62.214 31.4883 58.2129L22.597 44.5795C20.0778 40.5785 21.4115 38.6521 25.709 40.2821L40.5278 45.7651C44.8253 47.3952 50.6046 45.6169 53.272 41.764L62.4597 28.8716Z" fill="#D9CCE4"/>
<path d="M84.5401 67.8449L73.7223 71.2532C70.6104 72.2906 67.943 75.8471 67.7948 79.4036L67.4984 91.2587C67.4984 94.667 65.8683 95.2598 63.9419 92.4443L57.5698 82.6638C55.6433 79.8482 51.6422 78.3663 48.3821 79.2555L37.5643 82.6638C34.4524 83.7011 33.4151 82.2192 35.4897 79.4036L42.3063 69.9196C44.2328 67.104 44.381 62.6583 42.6027 59.6946L36.2307 49.9142C34.3042 47.0986 35.3415 45.6166 38.4535 46.8021L49.123 50.8033C52.235 51.9888 56.3843 50.6551 58.3107 47.8395L65.1274 38.3555C67.0539 35.5399 68.6839 36.1326 68.5357 39.6891L68.2393 51.5442C68.0911 54.9525 70.6104 58.8054 73.7223 59.991L84.3919 63.9921C87.6521 65.1776 87.652 66.8076 84.5401 67.8449ZM103.508 64.8812L85.8738 58.6572C80.6872 56.879 76.6861 50.9515 76.8343 45.4685L77.2788 26.7967C77.427 21.3137 74.7596 20.4247 71.4995 24.7221L60.089 39.6891C56.8288 43.9866 49.864 46.0613 44.8256 44.283L27.1912 38.0591C22.0046 36.2808 20.3745 38.5036 23.4864 42.9493L34.156 58.3609C37.2679 62.8066 37.1198 70.0678 33.7114 74.3653L22.3009 89.3323C19.0408 93.6297 20.5227 95.8526 25.7093 94.3707L43.6401 89.0359C48.8267 87.4058 55.6433 89.925 58.7553 94.3707L69.4249 109.782C72.5368 114.228 75.2042 113.487 75.3524 108.004L75.797 89.3323C75.9451 83.8493 80.2426 78.2182 85.4292 76.5881L103.36 71.2532C108.547 69.475 108.695 66.6594 103.508 64.8812Z" fill="#FCAF17"/>
<path d="M88.5408 87.2576C92.9865 89.3323 97.4321 91.5551 101.73 93.6297C103.36 94.5188 104.99 91.8514 103.36 91.1105C98.914 89.0358 94.4684 86.813 90.1709 84.7384C88.3927 83.9975 86.9108 86.5167 88.5408 87.2576Z" fill="#752B90"/>
<path d="M38.0088 19.0908C40.0834 25.0184 42.3063 30.9459 44.3809 36.8734C45.1219 39.0963 49.7157 37.6143 48.9747 35.2433C46.9001 29.3158 44.6773 23.3882 42.6026 17.4607C41.8617 15.0897 37.2679 16.7198 38.0088 19.0908Z" fill="#752B90"/>
<path d="M7.3337 66.2153C11.9275 66.6599 16.5214 67.2526 21.1152 67.6972C22.8935 67.8454 22.7453 65.178 21.1152 64.8816C16.5214 64.437 11.9275 63.8443 7.3337 63.3997C5.55543 63.2515 5.55543 66.0671 7.3337 66.2153Z" fill="#752B90"/>
<path d="M83.2062 4.86484C81.2797 9.01411 79.3533 13.3116 77.2786 17.4609C76.5377 19.0909 79.2051 19.8319 79.946 18.35C81.8725 14.2008 83.7989 9.9033 85.8736 5.75402C86.4663 4.12395 83.9471 3.23476 83.2062 4.86484Z" fill="#752B90"/>
<path d="M86.7631 50.9517C93.8761 47.247 100.841 43.6904 107.954 39.9857C110.621 38.652 107.658 36.8738 104.99 38.3557C97.8772 42.0604 90.9123 45.6169 83.7993 49.3216C81.1319 50.6553 84.0957 52.2854 86.7631 50.9517Z" fill="#752B90"/>
<path d="M50.1598 56.5823L50.0116 56.1378L50.1598 56.5823L50.0116 56.1378L50.1598 56.5823C50.308 56.5823 51.0489 56.2859 51.938 56.2859C52.8272 56.2859 53.8645 56.286 54.9018 56.8787C55.7909 57.3233 56.5319 58.0642 57.2728 59.3979C57.421 59.8424 58.0138 59.9907 58.4584 59.8425C58.9029 59.6943 59.0511 59.1015 58.9029 58.6569C58.162 57.0268 56.9765 55.8414 55.791 55.2486C55.05 54.804 54.3091 54.6558 53.5681 54.5077C52.5308 54.3595 51.4935 54.5077 50.9008 54.6559C50.308 54.8041 49.7152 54.9522 49.7152 54.9522C49.2707 55.1004 48.9743 55.6932 49.2707 56.1378C49.1225 56.5824 49.5671 56.7305 50.1598 56.5823Z" fill="black"/>
<path d="M71.351 66.0665C71.351 66.0665 71.0546 65.1774 70.6101 64.14C70.3137 63.6955 70.0173 63.1028 69.4246 62.51C68.98 61.9172 68.3872 61.4726 67.4981 61.1763C66.3126 60.5835 64.8307 60.2872 62.9043 60.5836C62.4597 60.7318 62.0152 61.1762 62.1633 61.6208C62.3115 62.0654 62.7561 62.5099 63.2006 62.3618C64.6825 62.0654 65.7199 62.3618 66.609 62.8064C67.2018 63.1028 67.6463 63.3991 67.9427 63.8436C68.5354 64.4364 68.8318 65.1774 69.1282 65.6219C69.2764 65.9183 69.2764 66.0665 69.4246 66.2147C69.4246 66.3629 69.4246 66.3629 69.4246 66.3629L69.7209 66.2147L69.4246 66.3629L69.7209 66.2147L69.4246 66.3629C69.5728 66.8074 70.0173 67.1038 70.4619 66.9557C71.2028 67.1038 71.4992 66.6592 71.351 66.0665Z" fill="black"/>
<path d="M75.9447 74.2171C76.2411 75.4026 75.5001 76.5882 74.4628 76.8846C73.2773 77.1809 72.0918 76.44 71.7954 75.4027C71.4991 74.2172 72.5364 69.6233 72.5364 69.6233C72.5364 69.6233 75.6483 73.0316 75.9447 74.2171Z" fill="#00AEEF"/>
<path d="M75.9452 74.2172L75.3524 74.3654C75.5006 74.81 75.3524 75.2546 75.2042 75.5509C75.056 75.8473 74.6115 76.1437 74.3151 76.2919C73.8705 76.4401 73.426 76.2919 73.1296 76.1437C72.8332 75.9955 72.5368 75.5509 72.3887 75.2545C72.3887 75.2545 72.3887 75.1064 72.3887 74.81C72.3887 74.5136 72.3887 73.9209 72.5369 73.3281C72.685 72.439 72.8332 71.5499 72.9814 70.9571C72.9814 70.6608 73.1296 70.3643 73.1296 70.0679C73.1296 69.9198 73.1296 69.9197 73.1296 69.7716V69.6234L72.5369 69.4752L72.0923 69.9198C72.2405 70.068 72.9814 70.9571 73.8705 71.8462C74.3151 72.2908 74.6115 72.7354 74.9078 73.18C75.056 73.3281 75.2042 73.6245 75.2042 73.7727C75.3524 73.9208 75.3524 74.0691 75.3524 74.0691L75.9452 74.2172L76.5379 74.0691C76.5379 73.7727 76.3898 73.6245 76.2416 73.3281C75.9452 72.8835 75.6488 72.4389 75.3524 71.9944C74.3151 70.6607 72.9814 69.1789 72.9814 69.1789C72.8332 69.0307 72.5368 68.8824 72.3887 69.0306C72.2405 69.0306 71.9441 69.3271 71.9441 69.4752C71.9441 69.4752 71.6477 70.6607 71.4995 71.9944C71.3513 72.5871 71.3513 73.3281 71.2031 73.9209C71.2031 74.2173 71.2031 74.5136 71.2031 74.81C71.2031 75.1064 71.2031 75.2546 71.3513 75.5509C71.7959 77.0328 73.2778 77.9219 74.7597 77.4774C76.2416 77.0328 77.1307 75.5509 76.6861 74.0691L75.9452 74.2172Z" fill="black"/>
<path d="M49.123 61.4729C49.123 61.4729 47.6411 63.9921 47.6411 66.5113C47.6411 68.8824 50.1603 72.8834 50.1603 72.8834L54.9023 75.2544L60.0889 75.8472L64.3864 73.7725L67.4984 71.2533L60.3853 70.2161L54.0132 67.104L49.123 61.4729Z" fill="#F27087"/>
<path d="M48.9744 61.3247C48.9744 61.3247 52.6791 67.845 58.4585 69.4751C64.2378 71.1051 67.9425 71.2533 67.9425 71.2533C67.9425 71.2533 62.4595 76.2917 59.0512 76.2917C55.6429 76.1435 54.9019 75.9953 52.0863 74.217C49.2707 72.4388 47.4925 68.4377 47.9371 65.9185C48.3816 63.3993 48.9744 61.3247 48.9744 61.3247Z" stroke="black" stroke-width="0.981"/>
</g>
</svg>
