<svg width="116" height="117" viewBox="0 0 116 117" fill="none" xmlns="http://www.w3.org/2000/svg">
<mask id="mask0" mask-type="alpha" maskUnits="userSpaceOnUse" x="0" y="0" width="116" height="117">
<rect width="116" height="117" fill="#C4C4C4"/>
</mask>
<g mask="url(#mask0)">
<path d="M4.00149 78.7509C4.00149 78.7509 3.83691 72.9913 6.96356 69.0418C10.0902 65.0924 18.1537 62.9531 24.2424 62.4594C30.3312 61.9657 26.2172 64.2696 31.6477 61.8012C37.0782 59.3328 45.9644 44.8514 45.9644 44.8514C45.9644 44.8514 49.4202 33.0031 50.0785 30.8638C50.7367 28.7245 48.7619 13.5849 48.7619 13.5849C48.7619 13.5849 46.2936 5.68604 50.7367 6.34428C55.1798 7.00252 57.3191 3.38216 61.7622 9.96458C66.3699 16.547 69.332 16.8761 69.8257 27.408C70.3194 38.1045 69.0029 42.2185 69.1674 44.5224C69.332 46.8262 74.7625 51.5984 75.9144 52.0921C79.2056 53.9023 81.345 52.5858 85.459 53.7377C89.4084 54.8896 92.2059 53.9023 93.3579 53.5732C96.1554 52.7504 100.269 60.3202 96.8137 64.2696C94.3452 67.0671 97.9656 74.4723 96.1554 77.2698C94.3453 80.0674 91.8768 79.4092 92.5351 83.3586C93.5224 89.4473 96.9782 88.1308 97.3073 90.1056C97.6364 92.0803 95.8263 91.7512 94.0161 98.0045C92.2059 104.422 93.1933 108.865 91.2186 109.359C89.2439 109.688 74.9271 114.131 67.0282 113.967C59.2938 113.802 52.876 109.03 52.876 109.03L40.3693 104.587L24.7361 109.359C24.7361 109.359 19.9638 109.524 18.4828 109.853C17.0018 110.182 9.59655 103.27 8.11551 98.3336C5.15342 91.2575 4.00149 78.7509 4.00149 78.7509Z" fill="#8BD7F8"/>
<path d="M43.9897 77.9277L43.3314 77.5985L43.9897 77.9277L43.3314 77.5985L43.9897 77.9277C44.1542 77.7631 44.6479 76.7758 45.6353 75.7884C46.6226 74.801 47.9391 73.8136 49.5847 73.4845C51.0658 73.1554 52.7114 73.1554 54.8507 74.1428C55.5089 74.4719 56.3317 74.1428 56.6608 73.32C56.99 72.6617 56.6608 71.8389 55.838 71.5098C53.2051 70.3578 50.7366 70.1933 48.7619 70.8516C47.4454 71.1807 46.4581 71.6743 45.4707 72.3326C44.1542 73.3199 43.0023 74.3073 42.3441 75.2946C41.6858 76.1174 41.3567 76.7757 41.3567 76.9402C41.0276 77.5985 41.1921 78.4213 42.0149 78.915C42.6732 78.7504 43.496 78.5859 43.9897 77.9277Z" fill="black"/>
<path d="M78.5475 67.3959C78.5475 67.3959 77.3956 66.5731 75.75 66.0795C74.9272 65.7503 73.9398 65.5857 72.7879 65.4212C71.636 65.2566 70.484 65.4212 69.1676 65.5858C67.1928 66.0795 65.0536 67.3959 63.2434 69.5352C62.7497 70.1934 62.9142 71.0163 63.4079 71.5099C64.0662 72.0036 64.889 71.8391 65.3827 71.3454C66.8637 69.5353 68.3448 68.7125 69.8258 68.3833C70.6486 68.2188 71.636 68.0542 72.4588 68.2187C73.7752 68.3833 74.9272 68.7124 75.75 69.0415C76.0791 69.2061 76.4082 69.3706 76.7373 69.5352C76.9019 69.5352 76.9019 69.6998 76.9019 69.6998L77.2311 69.3707L76.9019 69.6998L77.2311 69.3707L76.9019 69.6998C77.5602 70.1935 78.383 70.0289 78.8767 69.3707C79.3703 68.7124 79.2058 67.725 78.5475 67.3959Z" fill="black"/>
<path d="M47.7744 84.5113C47.7744 84.5113 48.5972 88.9543 51.0656 91.7519C53.534 94.5494 60.6102 96.6887 60.6102 96.6887L68.6736 94.5494L75.2561 89.9417L78.2181 83.1948L79.2055 76.9414L71.142 85.9922L59.4582 89.9417L47.7744 84.5113Z" fill="#F27087"/>
<path d="M47.6104 84.675C47.6104 84.675 57.9777 92.9031 66.3702 88.9536C74.7628 85.0042 79.3705 77.1052 79.3705 77.1052C79.3705 77.1052 78.054 88.4598 74.1046 91.7511C69.9906 95.0423 69.0032 95.7006 63.9018 96.3588C58.8005 97.1816 52.8763 94.2195 50.9016 90.9283C48.9268 87.637 47.6104 84.675 47.6104 84.675Z" stroke="black" stroke-width="1.182"/>
<path d="M102.244 60.3204C102.409 61.8015 102.08 63.7762 99.7758 64.7636C98.7884 65.2573 98.1302 66.2446 97.9656 67.232C97.801 68.5485 98.2948 70.0295 99.4467 71.346C100.269 72.0043 100.763 73.979 100.763 75.7892C100.599 78.093 99.2821 79.9032 97.1428 81.2197C96.1554 81.5488 95.4972 82.3715 95.1681 83.5234C94.839 84.8399 95.3327 86.1564 96.1555 86.8147C97.1428 87.802 100.928 86.9792 99.6112 92.0806C98.4593 95.7009 94.3453 94.7136 94.1807 94.7136C94.1807 94.7136 92.206 95.2073 90.8895 98.1694C89.573 101.131 91.5478 102.283 91.5478 103.929C91.5478 105.575 91.3832 106.397 89.7376 107.385C88.092 108.372 88.5857 107.385 85.2945 108.701C82.0033 110.018 77.231 109.853 72.7879 110.676C68.3447 111.663 66.2054 111.663 62.7497 111.17C59.2939 110.676 56.0027 107.385 53.0406 104.752C51.395 103.271 49.7494 101.79 47.7746 101.625C45.9645 100.967 44.3189 101.296 43.167 101.625C43.167 101.625 31.154 102.777 27.6983 104.587C24.2425 106.233 17.8246 103.106 14.5334 89.1185C9.92573 70.3586 21.4449 69.0421 21.4449 69.0421C25.3944 67.5611 30.6603 68.3839 33.787 67.8902C36.7491 66.7383 39.053 65.2572 40.8631 62.9534C41.1922 62.7888 43.0024 59.9913 43.4961 59.1685C46.2936 54.3962 49.4203 46.3328 49.914 45.3455C51.8887 40.7378 54.5216 32.8388 54.6862 27.4083C54.6862 23.4589 55.0153 21.6487 54.028 17.8638C54.028 17.8638 52.2178 13.4207 54.3571 10.294C56.4963 7.00282 61.9269 10.4586 64.0662 12.5979C66.5346 15.56 68.0156 23.2943 68.5093 26.4209C69.1675 29.5476 68.6739 34.8135 68.1802 38.2693C67.6865 42.2187 67.6865 43.6999 68.8384 47.8139C70.3195 50.1177 73.9398 54.89 80.6867 55.2191C82.6615 55.3837 84.6362 55.219 86.6109 55.0545C90.2313 54.8899 94.0162 54.7254 97.4719 55.7128C99.6112 55.8773 102.08 57.5229 102.244 60.3204ZM103.561 49.9531C99.1176 47.3202 94.0162 47.4847 89.2439 47.6493C88.5857 47.6493 87.7629 47.6493 87.2692 47.8139C86.6109 47.8139 85.9527 47.8139 85.2945 47.8139C79.0412 47.6493 74.598 47.3201 73.4461 42.3833C72.7878 39.2566 73.117 35.9655 73.6107 32.6743C74.1043 28.7248 74.598 24.7753 73.4461 20.4968C71.4714 12.927 66.6991 6.83825 60.9395 4.36984C58.4711 3.05336 55.509 2.72422 53.0406 3.2179C49.2557 4.0407 46.7873 6.67371 46.4582 10.4586C46.129 13.0916 46.7873 15.3954 47.4455 17.8638C47.6101 18.5221 47.7746 19.1803 47.9392 19.8385C48.762 23.2943 48.9266 26.0918 48.5974 29.0539C47.7746 34.8135 45.1417 40.5732 42.6733 45.0163L41.3568 47.4847C39.5466 50.9405 37.7364 54.7254 35.5972 57.6875C34.4452 59.1686 32.9642 59.8268 31.1541 60.6496C30.6604 60.8141 29.3439 61.4724 29.1793 61.4724C27.3691 61.6369 25.3944 61.966 23.2551 62.4597C19.3057 63.2825 13.7106 64.9282 10.4194 69.7004C6.3054 75.2955 8.11556 83.688 9.43204 89.2831V89.6122C11.0776 97.3465 13.3815 104.916 18.812 109.195C22.4323 112.157 27.2046 111.663 30.8249 110.841C32.306 110.511 33.787 110.182 35.1035 109.689C36.42 109.359 37.5719 109.03 38.7238 108.866L39.2175 108.701C40.3694 108.701 41.3568 108.537 42.5087 108.537C43.4961 108.372 44.4834 108.372 45.6354 108.372C46.7873 108.372 48.2683 109.195 49.7494 110.182C50.5722 110.676 51.395 111.17 52.2178 111.499C53.0406 111.828 53.6988 112.157 54.5216 112.486C56.99 113.638 59.4585 114.625 62.0914 115.284C65.3826 115.942 68.8384 115.613 72.1296 115.448C73.7752 115.284 75.4208 115.119 77.0664 115.119C77.8892 114.955 78.7121 114.955 79.5349 114.79C82.1678 114.461 84.8008 114.296 87.4337 113.803C89.2439 113.474 90.7249 112.98 92.206 112.322C96.9782 109.853 99.2821 104.916 98.2947 100.144C100.763 98.4985 102.573 95.8655 103.396 92.7389C104.219 89.9414 104.054 87.1439 103.067 84.84C107.346 80.5614 108.662 73.8144 106.194 68.8776C108.004 66.9029 108.991 64.1053 108.991 60.8141C109.156 56.5355 107.016 52.257 103.561 49.9531Z" fill="#752B90"/>
</g>
</svg>
