<svg width="116" height="117" viewBox="0 0 116 117" fill="none" xmlns="http://www.w3.org/2000/svg">
<mask id="mask0" mask-type="alpha" maskUnits="userSpaceOnUse" x="0" y="0" width="116" height="117">
<rect width="116" height="117" fill="#C4C4C4"/>
</mask>
<g mask="url(#mask0)">
<path d="M13.2184 54.4643C13.2184 54.4643 11.8291 35.708 28.675 25.8089C43.4369 16.9517 60.2829 16.4307 66.8823 17.299C85.2913 19.7304 97.4481 27.7192 102.137 36.229C106.826 44.7388 102.311 66.2739 88.07 74.7837C73.6554 83.2935 65.8403 84.3355 57.1568 83.6408C48.4733 82.9461 46.7366 87.6352 38.0532 92.3243C29.196 97.0133 15.4761 101.181 10.266 99.6184C7.13999 98.75 10.7871 96.3186 10.7871 96.3186C10.7871 96.3186 16.6918 91.4559 20.3389 84.5091C23.8123 77.5623 18.7759 72.6996 16.5182 67.3158C14.0868 62.1057 13.2184 54.4643 13.2184 54.4643Z" fill="#F6A3AC"/>
<path d="M60.6306 19.21C47.9527 19.21 36.3169 23.0306 27.8071 29.4564C19.2973 35.7085 13.9135 44.5657 13.9135 54.4648C13.9135 62.28 21.2076 73.0474 22.7707 75.1314C28.3281 79.6468 9.05078 99.9663 9.05078 99.9663C9.05078 99.9663 34.5802 95.9718 40.3113 86.2463C41.8743 86.7673 53.1628 89.7197 60.2833 89.7197C72.9611 89.7197 84.597 85.8989 93.1068 79.4732C101.617 73.2211 107 64.364 107 54.4648C107 44.5657 101.617 35.7085 93.1068 29.4564C84.9443 23.2043 73.3084 19.21 60.6306 19.21ZM60.6306 22.5096C72.7874 22.5096 83.555 26.1567 91.5438 32.0614C99.3589 37.9662 104.048 45.7814 104.048 54.4648C104.048 63.1483 96.9275 70.6161 89.1124 76.3471C81.2972 82.2519 72.7875 86.42 60.8043 86.42C53.6838 86.42 43.4373 82.9466 40.6586 82.7729C29.1964 95.6245 14.9555 97.1875 14.9555 97.1875C14.9555 97.1875 32.3225 82.2519 26.9387 74.4368C26.4177 73.3948 26.0704 73.5685 26.0704 73.5685C20.5129 68.1847 17.3869 61.5853 17.3869 54.4648C17.3869 45.7814 23.4653 39.3555 31.2805 33.4508C38.9219 27.7197 48.6474 22.5096 60.6306 22.5096H67.4037H60.6306Z" fill="#055098"/>
<path d="M79.2129 44.3919L79.9076 45.0865L79.2129 44.3919L79.9076 45.0865L79.2129 44.3919C79.0392 44.5655 77.9972 45.6075 76.6079 46.4758C75.9132 46.9968 75.0448 47.3442 74.1765 47.6915C73.3081 48.0389 72.2661 48.2125 71.2241 48.2125C70.3557 48.2125 69.3137 48.0389 68.2717 47.6915C67.2297 47.3442 66.1877 46.8232 64.972 45.7812C64.2773 45.2602 63.0616 45.2602 62.5406 46.1286C62.0196 46.8232 62.0196 48.0389 62.888 48.5599C64.2773 49.6019 65.6667 50.4703 67.056 50.9913C68.4454 51.5123 69.8347 51.6859 71.0504 51.6859C72.6134 51.6859 74.1765 51.3386 75.3921 50.8175C77.3025 50.1229 78.8655 49.0808 79.9076 48.2125C80.9496 47.3442 81.6443 46.6495 81.6443 46.6495C82.3389 45.9549 82.1653 44.7391 81.4706 44.2181C80.9496 43.5234 79.9076 43.5235 79.2129 44.3919Z" fill="black"/>
<path d="M34.9274 46.6494C34.9274 46.6494 35.9694 47.865 37.8797 49.2544C38.7481 49.9491 39.9638 50.4701 41.1795 50.9911C42.3952 51.5121 43.9582 51.8594 45.5212 51.8594C46.7369 51.8594 48.1262 51.6857 49.5156 51.1647C50.905 50.6437 52.2943 49.9491 53.6837 48.7334C54.3783 48.2124 54.552 46.9967 54.031 46.302C53.51 45.6073 52.2943 45.4336 51.5997 45.9546C50.384 46.823 49.3419 47.5177 48.2999 47.8651C47.2579 48.2124 46.3896 48.386 45.3475 48.386C44.3055 48.386 43.0898 48.2124 42.2215 47.8651C40.8321 47.344 39.4428 46.4757 38.5744 45.781C38.2271 45.4337 37.8798 45.0863 37.5324 44.9127C37.3587 44.739 37.3587 44.7389 37.3587 44.7389L36.8378 45.0863L37.3587 44.7389L36.8378 45.0863L37.3587 44.7389C36.6641 44.0442 35.6221 43.8706 34.9274 44.5653C34.4064 44.739 34.4064 45.781 34.9274 46.6494Z" fill="black"/>
<path d="M45.6943 59.3269C46.0417 74.4361 58.3722 74.4362 58.3722 74.4362C58.3722 74.4362 70.7027 74.4361 71.0501 59.3269C71.0501 59.3269 66.7084 64.537 58.3722 64.537C50.3834 64.537 45.6943 59.3269 45.6943 59.3269Z" fill="black"/>
</g>
</svg>
