<svg width="123" height="123" viewBox="0 0 123 123" fill="none" xmlns="http://www.w3.org/2000/svg">
<path fill-rule="evenodd" clip-rule="evenodd" d="M61.5 8.64816C32.3107 8.64816 8.64816 32.3107 8.64816 61.5C8.64816 90.6893 32.3107 114.352 61.5 114.352C90.6893 114.352 114.352 90.6893 114.352 61.5C114.352 32.3107 90.6893 8.64816 61.5 8.64816ZM0 61.5C0 27.5345 27.5345 0 61.5 0C95.4655 0 123 27.5345 123 61.5C123 95.4655 95.4655 123 61.5 123C27.5345 123 0 95.4655 0 61.5Z" fill="#D3E27A"/>
<mask id="path-2-outside-1" maskUnits="userSpaceOnUse" x="38" y="95" width="45" height="10" fill="black">
<rect fill="white" x="38" y="95" width="45" height="10"/>
<path d="M82 101.769C82 101.923 82 102.077 81.9181 102.308C81.9181 102.538 81.8362 102.692 81.6724 102.923C81.5086 103.154 81.3448 103.308 81.181 103.462C80.9352 103.615 80.6895 103.769 80.4438 103.846C80.1162 103.923 79.8705 104 79.5429 104C78.8876 104 78.2324 103.846 77.4952 103.462L77.6591 103C78.0686 103.385 78.6419 103.615 79.5429 103.615C79.7886 103.615 80.0343 103.615 80.28 103.538C80.5257 103.462 80.6895 103.385 80.7714 103.308C80.9352 103.231 81.0172 103.077 81.0991 103C81.181 102.846 81.2629 102.769 81.3448 102.615C81.4267 102.538 81.4267 102.385 81.5086 102.231C81.5086 102.077 81.5905 102 81.5905 101.923C81.5905 101.846 81.5905 101.846 81.5905 101.769V101.077C81.5086 101.231 81.4267 101.308 81.2629 101.462C81.181 101.615 81.0171 101.692 80.8533 101.846C80.6895 102 80.5257 102.077 80.28 102.154C80.0343 102.231 79.7886 102.231 79.5429 102.231C79.2971 102.231 78.9695 102.154 78.7238 102.077C78.4781 102 78.1505 101.846 77.9048 101.692C77.659 101.538 77.4133 101.308 77.2495 101C77.0857 100.692 77.0038 100.385 77.0038 100.077C77.0038 99.6923 77.0857 99.3846 77.3314 99C77.4952 98.6154 77.8229 98.3846 78.1505 98.1538C78.56 97.9231 78.9695 97.7692 79.3791 97.7692C79.6248 97.7692 79.8705 97.7692 80.1162 97.8462C80.3619 97.9231 80.5257 98 80.6895 98C80.8533 98.0769 80.9352 98.1538 81.0991 98.3077C81.2629 98.4615 81.3448 98.5385 81.3448 98.6154C81.4267 98.6923 81.4267 98.7692 81.5086 98.8462V98.9231V97.9231H82V101.769V101.769ZM81.4267 99.5385C81.4267 99.5385 81.4267 99.4615 81.3448 99.3846C81.2629 99.3077 81.2629 99.1538 81.181 99.0769C81.099 99 81.0172 98.9231 80.9352 98.7692C80.8533 98.6154 80.6895 98.5385 80.5257 98.4615C80.3619 98.3846 80.1981 98.3077 79.9524 98.2308C79.7067 98.1538 79.461 98.1538 79.2152 98.1538C78.8057 98.1538 78.3962 98.2308 78.1505 98.4615C77.8229 98.6923 77.659 98.9231 77.4952 99.2308C77.4133 99.5385 77.3314 99.8462 77.4133 100.231C77.4952 100.615 77.5772 100.923 77.8229 101.154C78.1505 101.538 78.56 101.769 79.0514 101.769C79.5429 101.846 80.0343 101.769 80.4438 101.538C80.8533 101.308 81.181 100.923 81.4267 100.462V100.385V99.5385V99.5385ZM71.68 102.538H71.1886V97.7692H71.68V98.6154C72.0895 98 72.6629 97.6923 73.4 97.6923C74.1371 97.6923 74.6286 97.8462 74.9562 98.2308C75.2838 98.6154 75.5295 99.0769 75.5295 99.7692V102.538H75.0381V99.9231C75.0381 98.6923 74.4648 98.0769 73.3181 98.0769C72.581 98.0769 72.0076 98.4615 71.68 99.3077V102.538ZM69.7143 102.538H69.2229V97.7692H69.7143V98.6923V102.538ZM69.141 97.1538H69.7962V96.3846H69.141V97.1538ZM67.9124 97.6923C67.5029 97.6923 67.1752 97.7692 66.7657 98C66.3562 98.1539 66.0286 98.5385 65.701 99.0769V98.6154V97.6923H65.2914V102.462H65.7829V100.154C65.8648 99.7692 65.9467 99.4615 66.1105 99.2308C66.2743 99 66.4381 98.7692 66.6019 98.6154C66.7657 98.4615 66.9295 98.3846 67.1752 98.3077C67.421 98.2308 67.5029 98.1538 67.6667 98.1538C67.7486 98.1538 67.9124 98.1538 67.9943 98.1538V97.6923H67.9124ZM63.3257 97.7692H63.8171V102.538H63.3257V101.692C62.9162 102.308 62.3429 102.615 61.6057 102.615C60.8686 102.615 60.3772 102.462 60.0495 102.077C59.7219 101.692 59.4762 101.231 59.4762 100.538V97.7692H59.9676V100.385C59.9676 101.615 60.541 102.231 61.6876 102.231C62.4248 102.231 62.9981 101.846 63.3257 101V97.7692ZM56.8552 96.2308H56.3638V97.7692H55.6267V98.1538H56.3638V100.385V100.462C56.3638 100.692 56.3638 100.923 56.3638 101C56.3638 101.154 56.4457 101.308 56.4457 101.538C56.5276 101.769 56.6095 102 56.7733 102.077C56.8552 102.154 56.9371 102.231 57.019 102.231C57.101 102.308 57.1829 102.308 57.2648 102.385C57.3467 102.385 57.4286 102.462 57.5105 102.462C57.5924 102.462 57.6743 102.462 57.7562 102.462C57.8381 102.462 57.92 102.462 58.0019 102.462C58.0838 102.462 58.1657 102.462 58.1657 102.462C58.2476 102.462 58.2476 102.462 58.3295 102.462C58.4114 102.462 58.4114 102.462 58.4933 102.462H58.5752H58.6571V102.077C58.0019 102.308 57.4286 102.231 57.1829 101.923C57.101 101.846 57.101 101.769 57.019 101.692C57.019 101.615 56.9372 101.538 56.9372 101.462C56.9372 101.385 56.9372 101.308 56.9372 101.231C56.9372 101.154 56.9372 101.077 56.9372 101C56.9372 100.923 56.9372 100.846 56.9372 100.769C56.9372 100.692 56.9372 100.538 56.9372 100.538V100.462V98.2308H58.6571V97.8462H56.9372V96.2308H56.8552ZM54.6438 97.6923C54.2343 97.6923 53.9067 97.7692 53.4972 98C53.0876 98.1539 52.76 98.5385 52.4324 99.0769V98.6154V97.6923H51.941V102.462H52.4324V100.154C52.5143 99.7692 52.5962 99.4615 52.76 99.2308C52.9238 99 53.0876 98.7692 53.2514 98.6154C53.4152 98.4615 53.5791 98.3846 53.8248 98.3077C54.0705 98.2308 54.1524 98.1538 54.3162 98.1538C54.3981 98.1538 54.5619 98.1538 54.6438 98.1538V97.6923V97.6923ZM50.0571 97.7692H50.5486V102.538H50.0571V101.692C49.6476 102.308 49.0743 102.615 48.3372 102.615C47.6 102.615 47.1086 102.462 46.781 102.077C46.4533 101.692 46.2076 101.231 46.2076 100.538V97.7692H46.6991V100.385C46.6991 101.615 47.2724 102.231 48.419 102.231C49.1562 102.231 49.7295 101.846 50.0571 101V97.7692ZM39.4914 96.6923L44.4876 102.538H44.8152V96H44.3238V101.615L39.4914 96H39V102.538H39.4914V96.6923Z"/>
</mask>
<path d="M82 101.769C82 101.923 82 102.077 81.9181 102.308C81.9181 102.538 81.8362 102.692 81.6724 102.923C81.5086 103.154 81.3448 103.308 81.181 103.462C80.9352 103.615 80.6895 103.769 80.4438 103.846C80.1162 103.923 79.8705 104 79.5429 104C78.8876 104 78.2324 103.846 77.4952 103.462L77.6591 103C78.0686 103.385 78.6419 103.615 79.5429 103.615C79.7886 103.615 80.0343 103.615 80.28 103.538C80.5257 103.462 80.6895 103.385 80.7714 103.308C80.9352 103.231 81.0172 103.077 81.0991 103C81.181 102.846 81.2629 102.769 81.3448 102.615C81.4267 102.538 81.4267 102.385 81.5086 102.231C81.5086 102.077 81.5905 102 81.5905 101.923C81.5905 101.846 81.5905 101.846 81.5905 101.769V101.077C81.5086 101.231 81.4267 101.308 81.2629 101.462C81.181 101.615 81.0171 101.692 80.8533 101.846C80.6895 102 80.5257 102.077 80.28 102.154C80.0343 102.231 79.7886 102.231 79.5429 102.231C79.2971 102.231 78.9695 102.154 78.7238 102.077C78.4781 102 78.1505 101.846 77.9048 101.692C77.659 101.538 77.4133 101.308 77.2495 101C77.0857 100.692 77.0038 100.385 77.0038 100.077C77.0038 99.6923 77.0857 99.3846 77.3314 99C77.4952 98.6154 77.8229 98.3846 78.1505 98.1538C78.56 97.9231 78.9695 97.7692 79.3791 97.7692C79.6248 97.7692 79.8705 97.7692 80.1162 97.8462C80.3619 97.9231 80.5257 98 80.6895 98C80.8533 98.0769 80.9352 98.1538 81.0991 98.3077C81.2629 98.4615 81.3448 98.5385 81.3448 98.6154C81.4267 98.6923 81.4267 98.7692 81.5086 98.8462V98.9231V97.9231H82V101.769V101.769ZM81.4267 99.5385C81.4267 99.5385 81.4267 99.4615 81.3448 99.3846C81.2629 99.3077 81.2629 99.1538 81.181 99.0769C81.099 99 81.0172 98.9231 80.9352 98.7692C80.8533 98.6154 80.6895 98.5385 80.5257 98.4615C80.3619 98.3846 80.1981 98.3077 79.9524 98.2308C79.7067 98.1538 79.461 98.1538 79.2152 98.1538C78.8057 98.1538 78.3962 98.2308 78.1505 98.4615C77.8229 98.6923 77.659 98.9231 77.4952 99.2308C77.4133 99.5385 77.3314 99.8462 77.4133 100.231C77.4952 100.615 77.5772 100.923 77.8229 101.154C78.1505 101.538 78.56 101.769 79.0514 101.769C79.5429 101.846 80.0343 101.769 80.4438 101.538C80.8533 101.308 81.181 100.923 81.4267 100.462V100.385V99.5385V99.5385ZM71.68 102.538H71.1886V97.7692H71.68V98.6154C72.0895 98 72.6629 97.6923 73.4 97.6923C74.1371 97.6923 74.6286 97.8462 74.9562 98.2308C75.2838 98.6154 75.5295 99.0769 75.5295 99.7692V102.538H75.0381V99.9231C75.0381 98.6923 74.4648 98.0769 73.3181 98.0769C72.581 98.0769 72.0076 98.4615 71.68 99.3077V102.538ZM69.7143 102.538H69.2229V97.7692H69.7143V98.6923V102.538ZM69.141 97.1538H69.7962V96.3846H69.141V97.1538ZM67.9124 97.6923C67.5029 97.6923 67.1752 97.7692 66.7657 98C66.3562 98.1539 66.0286 98.5385 65.701 99.0769V98.6154V97.6923H65.2914V102.462H65.7829V100.154C65.8648 99.7692 65.9467 99.4615 66.1105 99.2308C66.2743 99 66.4381 98.7692 66.6019 98.6154C66.7657 98.4615 66.9295 98.3846 67.1752 98.3077C67.421 98.2308 67.5029 98.1538 67.6667 98.1538C67.7486 98.1538 67.9124 98.1538 67.9943 98.1538V97.6923H67.9124ZM63.3257 97.7692H63.8171V102.538H63.3257V101.692C62.9162 102.308 62.3429 102.615 61.6057 102.615C60.8686 102.615 60.3772 102.462 60.0495 102.077C59.7219 101.692 59.4762 101.231 59.4762 100.538V97.7692H59.9676V100.385C59.9676 101.615 60.541 102.231 61.6876 102.231C62.4248 102.231 62.9981 101.846 63.3257 101V97.7692ZM56.8552 96.2308H56.3638V97.7692H55.6267V98.1538H56.3638V100.385V100.462C56.3638 100.692 56.3638 100.923 56.3638 101C56.3638 101.154 56.4457 101.308 56.4457 101.538C56.5276 101.769 56.6095 102 56.7733 102.077C56.8552 102.154 56.9371 102.231 57.019 102.231C57.101 102.308 57.1829 102.308 57.2648 102.385C57.3467 102.385 57.4286 102.462 57.5105 102.462C57.5924 102.462 57.6743 102.462 57.7562 102.462C57.8381 102.462 57.92 102.462 58.0019 102.462C58.0838 102.462 58.1657 102.462 58.1657 102.462C58.2476 102.462 58.2476 102.462 58.3295 102.462C58.4114 102.462 58.4114 102.462 58.4933 102.462H58.5752H58.6571V102.077C58.0019 102.308 57.4286 102.231 57.1829 101.923C57.101 101.846 57.101 101.769 57.019 101.692C57.019 101.615 56.9372 101.538 56.9372 101.462C56.9372 101.385 56.9372 101.308 56.9372 101.231C56.9372 101.154 56.9372 101.077 56.9372 101C56.9372 100.923 56.9372 100.846 56.9372 100.769C56.9372 100.692 56.9372 100.538 56.9372 100.538V100.462V98.2308H58.6571V97.8462H56.9372V96.2308H56.8552ZM54.6438 97.6923C54.2343 97.6923 53.9067 97.7692 53.4972 98C53.0876 98.1539 52.76 98.5385 52.4324 99.0769V98.6154V97.6923H51.941V102.462H52.4324V100.154C52.5143 99.7692 52.5962 99.4615 52.76 99.2308C52.9238 99 53.0876 98.7692 53.2514 98.6154C53.4152 98.4615 53.5791 98.3846 53.8248 98.3077C54.0705 98.2308 54.1524 98.1538 54.3162 98.1538C54.3981 98.1538 54.5619 98.1538 54.6438 98.1538V97.6923V97.6923ZM50.0571 97.7692H50.5486V102.538H50.0571V101.692C49.6476 102.308 49.0743 102.615 48.3372 102.615C47.6 102.615 47.1086 102.462 46.781 102.077C46.4533 101.692 46.2076 101.231 46.2076 100.538V97.7692H46.6991V100.385C46.6991 101.615 47.2724 102.231 48.419 102.231C49.1562 102.231 49.7295 101.846 50.0571 101V97.7692ZM39.4914 96.6923L44.4876 102.538H44.8152V96H44.3238V101.615L39.4914 96H39V102.538H39.4914V96.6923Z" fill="#579B46"/>
<path d="M82 101.769C82 101.923 82 102.077 81.9181 102.308C81.9181 102.538 81.8362 102.692 81.6724 102.923C81.5086 103.154 81.3448 103.308 81.181 103.462C80.9352 103.615 80.6895 103.769 80.4438 103.846C80.1162 103.923 79.8705 104 79.5429 104C78.8876 104 78.2324 103.846 77.4952 103.462L77.6591 103C78.0686 103.385 78.6419 103.615 79.5429 103.615C79.7886 103.615 80.0343 103.615 80.28 103.538C80.5257 103.462 80.6895 103.385 80.7714 103.308C80.9352 103.231 81.0172 103.077 81.0991 103C81.181 102.846 81.2629 102.769 81.3448 102.615C81.4267 102.538 81.4267 102.385 81.5086 102.231C81.5086 102.077 81.5905 102 81.5905 101.923C81.5905 101.846 81.5905 101.846 81.5905 101.769V101.077C81.5086 101.231 81.4267 101.308 81.2629 101.462C81.181 101.615 81.0171 101.692 80.8533 101.846C80.6895 102 80.5257 102.077 80.28 102.154C80.0343 102.231 79.7886 102.231 79.5429 102.231C79.2971 102.231 78.9695 102.154 78.7238 102.077C78.4781 102 78.1505 101.846 77.9048 101.692C77.659 101.538 77.4133 101.308 77.2495 101C77.0857 100.692 77.0038 100.385 77.0038 100.077C77.0038 99.6923 77.0857 99.3846 77.3314 99C77.4952 98.6154 77.8229 98.3846 78.1505 98.1538C78.56 97.9231 78.9695 97.7692 79.3791 97.7692C79.6248 97.7692 79.8705 97.7692 80.1162 97.8462C80.3619 97.9231 80.5257 98 80.6895 98C80.8533 98.0769 80.9352 98.1538 81.0991 98.3077C81.2629 98.4615 81.3448 98.5385 81.3448 98.6154C81.4267 98.6923 81.4267 98.7692 81.5086 98.8462V98.9231V97.9231H82V101.769V101.769ZM81.4267 99.5385C81.4267 99.5385 81.4267 99.4615 81.3448 99.3846C81.2629 99.3077 81.2629 99.1538 81.181 99.0769C81.099 99 81.0172 98.9231 80.9352 98.7692C80.8533 98.6154 80.6895 98.5385 80.5257 98.4615C80.3619 98.3846 80.1981 98.3077 79.9524 98.2308C79.7067 98.1538 79.461 98.1538 79.2152 98.1538C78.8057 98.1538 78.3962 98.2308 78.1505 98.4615C77.8229 98.6923 77.659 98.9231 77.4952 99.2308C77.4133 99.5385 77.3314 99.8462 77.4133 100.231C77.4952 100.615 77.5772 100.923 77.8229 101.154C78.1505 101.538 78.56 101.769 79.0514 101.769C79.5429 101.846 80.0343 101.769 80.4438 101.538C80.8533 101.308 81.181 100.923 81.4267 100.462V100.385V99.5385V99.5385ZM71.68 102.538H71.1886V97.7692H71.68V98.6154C72.0895 98 72.6629 97.6923 73.4 97.6923C74.1371 97.6923 74.6286 97.8462 74.9562 98.2308C75.2838 98.6154 75.5295 99.0769 75.5295 99.7692V102.538H75.0381V99.9231C75.0381 98.6923 74.4648 98.0769 73.3181 98.0769C72.581 98.0769 72.0076 98.4615 71.68 99.3077V102.538ZM69.7143 102.538H69.2229V97.7692H69.7143V98.6923V102.538ZM69.141 97.1538H69.7962V96.3846H69.141V97.1538ZM67.9124 97.6923C67.5029 97.6923 67.1752 97.7692 66.7657 98C66.3562 98.1539 66.0286 98.5385 65.701 99.0769V98.6154V97.6923H65.2914V102.462H65.7829V100.154C65.8648 99.7692 65.9467 99.4615 66.1105 99.2308C66.2743 99 66.4381 98.7692 66.6019 98.6154C66.7657 98.4615 66.9295 98.3846 67.1752 98.3077C67.421 98.2308 67.5029 98.1538 67.6667 98.1538C67.7486 98.1538 67.9124 98.1538 67.9943 98.1538V97.6923H67.9124ZM63.3257 97.7692H63.8171V102.538H63.3257V101.692C62.9162 102.308 62.3429 102.615 61.6057 102.615C60.8686 102.615 60.3772 102.462 60.0495 102.077C59.7219 101.692 59.4762 101.231 59.4762 100.538V97.7692H59.9676V100.385C59.9676 101.615 60.541 102.231 61.6876 102.231C62.4248 102.231 62.9981 101.846 63.3257 101V97.7692ZM56.8552 96.2308H56.3638V97.7692H55.6267V98.1538H56.3638V100.385V100.462C56.3638 100.692 56.3638 100.923 56.3638 101C56.3638 101.154 56.4457 101.308 56.4457 101.538C56.5276 101.769 56.6095 102 56.7733 102.077C56.8552 102.154 56.9371 102.231 57.019 102.231C57.101 102.308 57.1829 102.308 57.2648 102.385C57.3467 102.385 57.4286 102.462 57.5105 102.462C57.5924 102.462 57.6743 102.462 57.7562 102.462C57.8381 102.462 57.92 102.462 58.0019 102.462C58.0838 102.462 58.1657 102.462 58.1657 102.462C58.2476 102.462 58.2476 102.462 58.3295 102.462C58.4114 102.462 58.4114 102.462 58.4933 102.462H58.5752H58.6571V102.077C58.0019 102.308 57.4286 102.231 57.1829 101.923C57.101 101.846 57.101 101.769 57.019 101.692C57.019 101.615 56.9372 101.538 56.9372 101.462C56.9372 101.385 56.9372 101.308 56.9372 101.231C56.9372 101.154 56.9372 101.077 56.9372 101C56.9372 100.923 56.9372 100.846 56.9372 100.769C56.9372 100.692 56.9372 100.538 56.9372 100.538V100.462V98.2308H58.6571V97.8462H56.9372V96.2308H56.8552ZM54.6438 97.6923C54.2343 97.6923 53.9067 97.7692 53.4972 98C53.0876 98.1539 52.76 98.5385 52.4324 99.0769V98.6154V97.6923H51.941V102.462H52.4324V100.154C52.5143 99.7692 52.5962 99.4615 52.76 99.2308C52.9238 99 53.0876 98.7692 53.2514 98.6154C53.4152 98.4615 53.5791 98.3846 53.8248 98.3077C54.0705 98.2308 54.1524 98.1538 54.3162 98.1538C54.3981 98.1538 54.5619 98.1538 54.6438 98.1538V97.6923V97.6923ZM50.0571 97.7692H50.5486V102.538H50.0571V101.692C49.6476 102.308 49.0743 102.615 48.3372 102.615C47.6 102.615 47.1086 102.462 46.781 102.077C46.4533 101.692 46.2076 101.231 46.2076 100.538V97.7692H46.6991V100.385C46.6991 101.615 47.2724 102.231 48.419 102.231C49.1562 102.231 49.7295 101.846 50.0571 101V97.7692ZM39.4914 96.6923L44.4876 102.538H44.8152V96H44.3238V101.615L39.4914 96H39V102.538H39.4914V96.6923Z" stroke="#579B46" stroke-width="0.4" mask="url(#path-2-outside-1)"/>
<path d="M86 83V23H74.6531C83.3878 37.4293 76.8571 55.4457 76.8571 55.4457C76.8571 55.4457 49.9184 47.212 50.1633 23H34V83H51.3878C36.2857 68.2446 44.7755 44.9293 44.7755 44.9293C44.7755 44.9293 75.7959 54.3859 70.9796 83H86Z" fill="#579B46"/>
</svg>
