<svg width="124" height="123" viewBox="0 0 124 123" fill="none" xmlns="http://www.w3.org/2000/svg">
<path fill-rule="evenodd" clip-rule="evenodd" d="M62 8.64816C32.5734 8.64816 8.71847 32.3108 8.71847 61.5C8.71847 90.6893 32.5734 114.352 62 114.352C91.4266 114.352 115.282 90.6893 115.282 61.5C115.282 32.3108 91.4266 8.64816 62 8.64816ZM0 61.5C0 27.5345 27.7583 0 62 0C96.2417 0 124 27.5345 124 61.5C124 95.4655 96.2417 123 62 123C27.7584 123 0 95.4655 0 61.5Z" fill="#C9EBFC"/>
<path d="M72.0118 41.027C72.0118 44.6237 69.2689 47.8116 65.2353 49.283C65.2353 49.283 64.0252 50.5092 63.7832 52.3892C63.5412 54.2693 64.9126 55.5772 64.9126 55.5772C64.9126 55.5772 61.6857 54.6781 60.7983 52.8797C59.8303 51.0814 60.1529 50.1822 60.1529 50.1822C53.5378 50.1822 48.2134 46.0951 48.2134 41.027C48.2134 35.9589 53.5378 31.8718 60.1529 31.8718C66.6067 31.8718 72.0118 35.9589 72.0118 41.027ZM79.2723 51.5718C81.2084 48.3838 82.1765 44.8689 82.1765 40.9452C82.1765 38.4929 81.6924 36.1224 80.7244 33.7519C79.7563 31.3813 78.4655 29.256 76.7714 27.2942C75.0773 25.4141 73.1412 23.861 70.8017 22.7166C68.4622 21.5722 65.9613 21 63.2185 21H37V80.9992H48.5361V60.8905H59.9916C59.9916 60.8905 68.8655 75.9312 69.4302 76.6669C72.8992 81.1627 78.3042 80.9992 78.3042 80.9992H85L71.5277 58.4382C74.7546 57.0486 77.3361 54.7598 79.2723 51.5718Z" fill="#055098"/>
<path d="M78.2031 93.3495H77.713V95.0971H76.9779V95.534H77.713V98.068V98.1553C77.713 98.4175 77.713 98.6796 77.713 98.7669C77.713 98.8543 77.7947 99.1165 77.7947 99.3787C77.8764 99.6408 77.9581 99.9029 78.1214 99.9903C78.2031 100.078 78.2848 100.165 78.3664 100.165C78.4481 100.252 78.5298 100.252 78.6115 100.34C78.6932 100.34 78.7748 100.427 78.8565 100.427C78.9382 100.427 79.0199 100.427 79.1015 100.427C79.1832 100.427 79.2649 100.427 79.3466 100.427C79.4283 100.427 79.5099 100.427 79.5099 100.427C79.5916 100.427 79.5916 100.427 79.6733 100.427C79.755 100.427 79.755 100.427 79.8366 100.427H79.9183H80V99.9903C79.3466 100.252 78.7748 100.165 78.5298 99.8155C78.4481 99.7282 78.4481 99.6407 78.3664 99.5534C78.3664 99.466 78.2848 99.3786 78.2848 99.2912C78.2848 99.2038 78.2848 99.1165 78.2848 99.0291C78.2848 98.9417 78.2848 98.8543 78.2848 98.7669C78.2848 98.6796 78.2848 98.5922 78.2848 98.5049C78.2848 98.3301 78.2848 98.2427 78.2848 98.2427V98.1553V95.6213H80V95.1845H78.2848V93.3495H78.2031ZM75.9161 100.165C75.7528 100.252 75.5894 100.34 75.5077 100.427C75.181 100.602 74.8543 100.689 74.4459 100.689C74.0375 100.689 73.7108 100.602 73.3841 100.427C73.0574 100.252 72.8124 100.078 72.5673 99.8155C72.3223 99.5534 72.1589 99.2913 71.9956 98.9418C71.8322 98.5922 71.8322 98.2427 71.8322 97.8932C71.8322 97.5436 71.9139 97.1068 71.9956 96.8447C72.1589 96.4952 72.3223 96.233 72.5673 95.9709C72.8124 95.7087 73.0574 95.5339 73.3841 95.3592C73.7108 95.1844 74.0375 95.0971 74.4459 95.0971C74.8543 95.0971 75.181 95.1844 75.5077 95.3592C75.5077 95.3592 75.5894 95.4466 75.7528 95.534C75.8344 95.6214 75.9161 95.6213 75.9161 95.7087L75.7528 96.1456C75.5894 96.0582 75.426 95.8834 75.2627 95.7961C75.0177 95.7087 74.7726 95.6213 74.4459 95.6213C74.1192 95.6213 73.8742 95.7087 73.6291 95.7961C73.3841 95.8834 73.1391 96.0583 72.9757 96.3204C72.8124 96.4952 72.649 96.7572 72.5673 97.0194C72.4856 97.2815 72.404 97.631 72.404 97.8932C72.404 98.2427 72.4856 98.5048 72.5673 98.8543C72.649 99.1164 72.8124 99.3786 72.9757 99.6407C73.1391 99.8155 73.3841 99.9902 73.6291 100.165C73.8742 100.252 74.1192 100.34 74.4459 100.34C74.7726 100.34 75.0177 100.252 75.2627 100.165C75.426 100.078 75.5894 99.9903 75.6711 99.9029L75.9161 100.165ZM68.4018 95.4466C68.4834 95.4466 68.5651 95.4466 68.6468 95.4466C68.7285 95.4466 68.8102 95.534 68.9735 95.534C69.1369 95.534 69.2185 95.7087 69.3002 95.7961C69.3819 95.8834 69.4636 96.0582 69.6269 96.1456C69.7086 96.3204 69.7903 96.4952 69.872 96.7573C69.9536 97.1068 70.0353 97.3689 70.0353 97.4563H66.3598C66.3598 97.1941 66.4415 97.0194 66.5232 96.7573C66.6049 96.4952 66.7682 96.233 66.9316 96.0582C67.0949 95.8835 67.34 95.7087 67.585 95.534C67.83 95.534 68.0751 95.4466 68.4018 95.4466ZM70.5254 97.9805C70.5254 97.5436 70.4437 97.1068 70.362 96.7573C70.2804 96.4078 70.117 96.0583 69.9536 95.8835C69.7903 95.7088 69.6269 95.4465 69.3819 95.3592C69.2185 95.1844 68.9735 95.0971 68.8102 95.0097C68.6468 94.9224 68.4834 94.9223 68.3201 94.9223C67.9117 94.9223 67.585 95.0097 67.2583 95.1845C66.9316 95.3592 66.6865 95.5339 66.4415 95.7961C66.1965 96.0582 66.0331 96.3203 65.8698 96.6698C65.7064 97.0194 65.7064 97.3689 65.7064 97.7184C65.7064 98.068 65.7881 98.5048 65.8698 98.7669C66.0331 99.1165 66.1965 99.3786 66.4415 99.6407C66.6865 99.9029 66.9316 100.078 67.2583 100.252C67.585 100.427 67.9117 100.515 68.3201 100.515C68.7285 100.515 69.0552 100.427 69.3819 100.252C69.4636 100.252 69.5453 100.165 69.6269 100.078V99.466C69.4636 99.5534 69.3819 99.6407 69.2185 99.7281C68.9735 99.8155 68.6468 99.9029 68.4018 99.9029C68.0751 99.9029 67.83 99.8155 67.585 99.7281C67.34 99.6407 67.0949 99.466 66.9316 99.2038C66.7682 99.0291 66.6049 98.7669 66.5232 98.4174C66.4415 98.1553 66.3598 97.9806 66.3598 97.7184H70.5254V97.9805ZM59.7439 95.0971H60.234V96.233C60.3974 95.9708 60.7241 95.6213 61.1324 95.3592C61.5408 95.097 61.9492 94.9223 62.2759 94.9223C62.521 94.9223 62.8477 95.0097 63.0927 95.0971C63.3378 95.1845 63.6645 95.3592 63.8278 95.534C64.0728 95.7087 64.2362 95.9709 64.4812 96.3204C64.6446 96.6699 64.7263 97.0194 64.8079 97.3689C64.8896 98.2427 64.6446 98.9417 64.2362 99.5534C63.7461 100.165 63.1744 100.515 62.4393 100.515C62.1943 100.515 61.8676 100.427 61.6225 100.34C61.3775 100.252 61.1325 100.078 60.9691 99.9903C60.8057 99.8155 60.6424 99.7281 60.5607 99.5534C60.479 99.466 60.3973 99.2912 60.3157 99.2038V102H59.8256V95.0971H59.7439ZM60.234 98.8543C60.234 98.8543 60.234 98.9417 60.3157 99.0291C60.3973 99.1165 60.3973 99.2038 60.479 99.2912C60.5607 99.3786 60.6424 99.466 60.7241 99.5534C60.8057 99.6407 60.9691 99.7282 61.1324 99.8155C61.2958 99.9029 61.4592 99.9903 61.7042 99.9903C61.9492 100.078 62.1943 100.078 62.4393 100.078C62.8477 100.078 63.2561 99.9029 63.5011 99.6407C63.8278 99.3786 63.9912 99.0291 64.1545 98.5922C64.2362 98.1553 64.3179 97.7184 64.2362 97.2816C64.1545 96.8447 64.0728 96.4077 63.8278 96.1456C63.5011 95.7087 63.0927 95.5339 62.6843 95.3592C62.1943 95.2718 61.7859 95.2719 61.2958 95.534C60.8874 95.7087 60.5607 96.0582 60.3157 96.4951V97.5436V98.8543H60.234ZM58.2737 95.6213L58.0287 95.534C57.8653 95.4466 57.702 95.3592 57.457 95.2718C57.2119 95.1844 56.9669 95.0971 56.7219 95.0971C56.3135 95.0097 55.9051 95.0971 55.5784 95.2718C55.17 95.4466 55.0066 95.7961 54.8433 96.1456C54.7616 96.5825 54.7616 96.932 55.0066 97.2816C55.2517 97.6311 55.5784 97.8058 56.0684 97.9805C56.3951 98.0679 56.7219 98.1553 56.9669 98.2427C57.2119 98.3301 57.3753 98.4175 57.6203 98.5922C57.7837 98.767 57.8653 98.9417 57.8653 99.1165C57.8653 99.466 57.7837 99.7281 57.5386 99.9029C57.2936 100.078 57.0486 100.252 56.5585 100.252C56.3135 100.252 55.9868 100.165 55.66 100.078C55.3333 99.9902 55.17 99.8155 55.0066 99.7281C54.9249 99.6407 54.7616 99.5534 54.7616 99.5534L54.5166 99.9903C54.5982 100.078 54.7616 100.252 55.0883 100.34C55.3333 100.427 55.66 100.602 55.9867 100.602C56.3135 100.689 56.6402 100.689 56.9669 100.602C57.2936 100.602 57.6203 100.427 57.8653 100.165C58.1104 99.9028 58.2737 99.5534 58.2737 99.1165C58.2737 98.767 58.2737 98.5048 58.1104 98.2427C57.947 97.9806 57.702 97.8058 57.457 97.7184C57.2119 97.6311 56.8852 97.4563 56.5585 97.3689C56.2318 97.2815 55.9868 97.1941 55.7417 97.0194C55.4967 96.932 55.3333 96.7572 55.2517 96.5825C55.17 96.4077 55.17 96.1457 55.3333 95.8835C55.4967 95.6214 55.66 95.534 55.9051 95.4466C56.1501 95.3593 56.3951 95.3592 56.5585 95.3592C56.8035 95.3592 56.9669 95.4466 57.2119 95.534C57.4569 95.6214 57.6203 95.7087 57.702 95.7087C57.7837 95.7961 57.8653 95.7961 57.8653 95.7961L58.2737 95.6213ZM51.7395 95.4466C51.8212 95.4466 51.9029 95.4466 51.9845 95.4466C52.0662 95.4466 52.1479 95.534 52.3113 95.534C52.4746 95.6214 52.5563 95.7087 52.638 95.7961C52.7196 95.8834 52.8013 96.0582 52.9647 96.1456C53.0464 96.3204 53.128 96.4952 53.2097 96.7573C53.2914 97.1068 53.3731 97.3689 53.3731 97.4563H49.6976C49.6976 97.1941 49.7792 97.0194 49.8609 96.7573C49.9426 96.4952 50.106 96.233 50.2693 96.0582C50.4327 95.8835 50.6777 95.7087 50.9227 95.534C51.0861 95.534 51.3311 95.4466 51.7395 95.4466C51.6578 95.4466 51.6578 95.4466 51.7395 95.4466ZM53.7815 97.9805C53.7815 97.5436 53.6998 97.1068 53.6181 96.7573C53.5364 96.4078 53.3731 96.0583 53.2097 95.8835C53.0464 95.7088 52.883 95.4465 52.638 95.3592C52.4746 95.1844 52.2296 95.0971 52.0662 95.0097C51.9029 94.9224 51.7395 94.9223 51.5762 94.9223C51.1678 94.9223 50.8411 95.0097 50.5143 95.1845C50.1876 95.3592 49.9426 95.5339 49.6976 95.7961C49.4525 96.0582 49.2892 96.3203 49.1258 96.6698C48.9625 97.0194 48.9625 97.3689 48.9625 97.7184C48.9625 98.068 49.0441 98.5048 49.1258 98.7669C49.2892 99.1165 49.4525 99.3786 49.6976 99.6407C49.9426 99.9029 50.1876 100.078 50.5143 100.252C50.8411 100.427 51.1678 100.515 51.5762 100.515C51.9845 100.515 52.3113 100.427 52.638 100.252C52.7196 100.252 52.8013 100.165 52.883 100.078V99.466C52.7197 99.5534 52.638 99.6407 52.4746 99.7281C52.2296 99.8155 51.9029 99.9029 51.6578 99.9029C51.3311 99.9029 51.0861 99.8155 50.8411 99.7281C50.596 99.6407 50.351 99.466 50.1876 99.2038C50.0243 99.0291 49.8609 98.7669 49.7793 98.4174C49.6976 98.1553 49.6159 97.9806 49.6159 97.7184H53.7815V97.9805ZM47.1656 97.2816C47.3289 97.3689 47.4923 97.4563 47.6556 97.6311C47.819 97.8058 47.9007 97.8932 48.064 98.1553C48.1457 98.3301 48.2274 98.5922 48.2274 98.8543C48.2274 99.2912 48.3091 99.9029 48.3907 100.427H47.819V100.165C47.819 99.9902 47.7373 99.8155 47.7373 99.5534C47.7373 99.2912 47.7373 99.0291 47.7373 98.8543C47.7373 98.6795 47.7373 98.5922 47.6556 98.4174C47.6556 98.33 47.574 98.1554 47.4923 98.068C47.4106 97.9806 47.4106 97.8932 47.2472 97.8058C47.1656 97.7184 47.0839 97.6311 47.0022 97.6311C46.9205 97.5437 46.8389 97.5436 46.6755 97.5436C46.5121 97.5436 46.4305 97.4563 46.3488 97.4563C46.2671 97.4563 46.1854 97.4563 46.0221 97.3689C45.8587 97.3689 45.777 97.3689 45.6954 97.3689C45.6137 97.3689 45.532 97.3689 45.3686 97.3689C45.2053 97.3689 45.1236 97.3689 45.1236 97.3689H44.9603H43.4901V100.427H43V93H43.4084H43.4901H45.8587C46.0221 93 46.2671 93 46.4305 93.0874C46.5938 93.0874 46.8389 93.1748 47.0839 93.2622C47.3289 93.3496 47.574 93.4368 47.7373 93.6116C47.9007 93.7864 48.064 93.9612 48.2274 94.2233C48.309 94.4855 48.3907 94.7476 48.3907 95.0971C48.3907 95.7087 48.2274 96.233 47.819 96.6698C47.7373 96.7572 47.574 96.8446 47.3289 96.932C47.0839 97.0194 46.8388 97.1068 46.5938 97.1942C46.7572 97.1942 46.9205 97.2816 47.1656 97.2816ZM43.4901 96.932H45.6137C46.4305 96.932 47.0022 96.7573 47.3289 96.4951C47.6556 96.1456 47.9007 95.7087 47.9007 95.0971C47.9007 94.6602 47.7373 94.2233 47.3289 93.9611C47.0022 93.699 46.5121 93.5242 46.0221 93.5242H43.5717V95.0971V96.932H43.4901Z" fill="#055098"/>
<path fill-rule="evenodd" clip-rule="evenodd" d="M44.2045 96.6618H45.9535C46.7307 96.6618 47.2239 96.5101 47.4808 96.3292C47.7606 96.048 47.9501 95.7193 47.9501 95.2622C47.9501 94.9384 47.8226 94.6457 47.5248 94.4695L47.5109 94.4613L47.498 94.4517C47.227 94.2512 46.7994 94.1067 46.366 94.1067H44.2045V96.6618ZM47.9789 97.1947C48.0633 97.2502 48.1507 97.3176 48.2377 97.4034C48.4101 97.5734 48.5084 97.671 48.6894 97.9388L48.7002 97.9548L48.709 97.972C48.8061 98.1637 48.9071 98.4556 48.9071 98.7612C48.9071 99.1392 48.985 99.6853 49.0678 100.175L48.7586 100.535H48.1811L47.8676 100.226V99.9818C47.8676 99.9445 47.8587 99.9053 47.8367 99.8077L47.8338 99.7947C47.812 99.698 47.7851 99.5694 47.7851 99.4123V98.7612C47.7851 98.6738 47.7843 98.6397 47.779 98.6086C47.7751 98.5853 47.7667 98.5539 47.7357 98.4927L47.7026 98.4274V98.3726C47.6992 98.3627 47.6932 98.3479 47.6841 98.33C47.6746 98.3113 47.6637 98.2928 47.6526 98.2769C47.6412 98.2603 47.6327 98.2509 47.6294 98.2476C47.5897 98.2084 47.5619 98.171 47.5424 98.1431C47.5307 98.1263 47.5247 98.1173 47.5205 98.1109C47.5158 98.1038 47.5132 98.1 47.5074 98.0924C47.5029 98.0864 47.5008 98.0844 47.4983 98.0823C47.4952 98.0797 47.4856 98.0723 47.4634 98.0614L47.4179 98.0389L47.3819 98.0034C47.3606 97.9824 47.3436 97.9657 47.3273 97.9506C47.3188 97.9428 47.3116 97.9364 47.3055 97.9313H47.2262L47.1461 97.8523C47.1404 97.8518 47.1329 97.8513 47.123 97.8509C47.0984 97.8499 47.069 97.8498 47.0261 97.8498C46.8867 97.8498 46.7823 97.8141 46.7137 97.7871C46.6934 97.7791 46.6824 97.7745 46.6748 97.7714C46.6721 97.7702 46.6698 97.7693 46.6677 97.7684C46.626 97.768 46.5684 97.7657 46.5005 97.7523C46.436 97.7396 46.3693 97.7185 46.2964 97.6871H44.122V100.226L43.8085 100.535H43.3135L43 100.226V93.3092L43.3135 93L46.2056 93C46.2862 93 46.4022 93 46.521 93.0117C46.6188 93.0213 46.7374 93.0404 46.851 93.0844C46.9556 93.0927 47.0635 93.1171 47.1601 93.1431C47.2818 93.1759 47.4121 93.2187 47.5324 93.2583L47.5377 93.26C47.547 93.2631 47.5565 93.2662 47.5662 93.2694C47.7924 93.3435 48.102 93.4449 48.3203 93.6601L48.3243 93.6641C48.4886 93.8262 48.672 94.0071 48.8544 94.277L48.8777 94.3114L48.8942 94.3601C48.976 94.6023 49.0721 94.8864 49.0721 95.2622C49.0721 95.8981 48.8844 96.4704 48.4027 96.9455C48.3007 97.0462 48.1505 97.1266 47.9789 97.1947ZM46.6532 97.763C46.6532 97.763 46.6536 97.7631 46.6544 97.7634L46.6532 97.763ZM43.8085 97.0687V96.971H43.627V97.2477L43.8085 97.0687ZM43.627 93.7486L43.759 93.6184H43.627V93.7486ZM78.063 93.6347L78.3765 93.3255H78.954L79.2675 93.6347V95.0343H80.6865L81 95.3436V95.7504L80.6865 96.0597H79.2675V99.1357C79.2696 99.1401 79.2722 99.1452 79.2756 99.1519L79.2773 99.1551C79.2866 99.1734 79.3034 99.2066 79.3171 99.2427C79.3209 99.2526 79.3248 99.2637 79.3286 99.276C79.3622 99.3225 79.3833 99.3642 79.3969 99.3911L79.3994 99.3961C79.42 99.4367 79.4215 99.4361 79.4232 99.4378L79.4389 99.4533L79.4523 99.4709C79.5108 99.5478 79.6276 99.6208 79.8266 99.6444C80.0246 99.6678 80.283 99.6381 80.5764 99.5296L81 99.8191V100.226L80.6865 100.535H79.5315C79.4595 100.535 79.3996 100.518 79.3595 100.503C79.3231 100.489 79.2894 100.473 79.2709 100.464L79.2675 100.462C79.2607 100.459 79.2555 100.456 79.2511 100.454H79.1541L79.0623 100.363C79.0622 100.363 79.0624 100.363 79.0623 100.363C79.0608 100.362 79.0579 100.359 79.0199 100.34L79.0149 100.337C78.9874 100.324 78.9447 100.303 78.897 100.269C78.8217 100.245 78.7628 100.207 78.7247 100.178C78.6768 100.143 78.6319 100.101 78.5968 100.067C78.4543 99.9781 78.3678 99.8426 78.3126 99.7337C78.251 99.612 78.2037 99.4722 78.1649 99.3574L78.1455 99.2997V99.2496C78.1455 99.1587 78.1298 99.0607 78.1103 98.9643C78.1055 98.9407 78.1007 98.918 78.0958 98.8954C78.0911 98.8735 78.0862 98.8506 78.0819 98.8295C78.0752 98.7963 78.063 98.7359 78.063 98.6799V95.9783H77.634L77.3205 95.6691V95.2622L77.634 94.953H78.063V93.6347ZM78.6405 95.311L78.4837 95.4657L78.69 95.6691V95.7016L78.8467 95.547L78.6405 95.3436V95.311ZM51.9925 94.7902C52.1496 94.79 52.3792 94.7898 52.6113 94.9043C52.6441 94.9204 52.6819 94.9371 52.7308 94.9587L52.7358 94.9609C52.7845 94.9824 52.8417 95.0077 52.9 95.0365C52.9983 95.0849 53.1131 95.1493 53.2177 95.2392C53.3753 95.306 53.4974 95.4099 53.59 95.5013C53.6437 95.5542 53.6932 95.6089 53.7351 95.6553C53.7793 95.7042 53.8142 95.7428 53.8478 95.7759C54.0673 95.9925 54.2524 96.3768 54.3428 96.7333C54.4113 97.0038 54.4831 97.3404 54.508 97.6944L54.5171 97.7034V97.9475H54.2036V98.0127H50.3723C50.3799 98.0341 50.3881 98.0569 50.3969 98.0814C50.4149 98.1312 50.4354 98.1883 50.4585 98.2566L50.4623 98.2678L50.4652 98.2794C50.5326 98.5453 50.6664 98.741 50.7953 98.8681L50.8172 98.8898L50.8345 98.9152C50.9552 99.0939 51.1412 99.2186 51.3328 99.2816C51.5802 99.363 51.7846 99.4286 52.0586 99.4286C52.2484 99.4286 52.5279 99.3643 52.7624 99.2888C52.8165 99.2608 52.8605 99.2322 52.916 99.1956L52.9192 99.1935C52.9805 99.1532 53.0559 99.1037 53.1559 99.0543L53.6096 99.3309V100.029L53.5121 100.125C53.475 100.161 53.42 100.216 53.3605 100.26C53.3148 100.294 53.2392 100.342 53.141 100.363C52.7826 100.532 52.4173 100.617 51.9761 100.617C51.5153 100.617 51.1372 100.524 50.7634 100.34C50.4108 100.166 50.1336 99.9852 49.8569 99.7123C49.5802 99.4394 49.3969 99.1659 49.2207 98.8182L49.2107 98.7985L49.2037 98.7777C49.1124 98.5077 49.0226 98.0677 49.0226 97.7034C49.0226 97.6966 49.0226 97.6897 49.0226 97.6828C49.0225 97.3686 49.0224 96.9798 49.2207 96.5886C49.3969 96.2409 49.5802 95.9674 49.8569 95.6945C50.1336 95.4216 50.4109 95.2408 50.7634 95.067C51.1372 94.8826 51.5152 94.7902 51.9761 94.7902C51.9815 94.7902 51.9869 94.7902 51.9925 94.7902ZM53.3934 97.1501C53.372 97.0735 53.3485 96.9872 53.325 96.8952C53.2637 96.7157 53.203 96.5858 53.1383 96.4563C53.0524 96.3971 52.9886 96.3292 52.9418 96.2739C52.917 96.2445 52.8932 96.2139 52.8753 96.1908C52.8711 96.1854 52.8672 96.1804 52.8637 96.176C52.8416 96.1477 52.8319 96.1366 52.827 96.1318C52.7632 96.0689 52.7151 96.0217 52.6309 95.9735C52.5346 95.9629 52.4596 95.9366 52.4063 95.9155C52.386 95.9075 52.375 95.903 52.3674 95.8998C52.3648 95.8987 52.3625 95.8978 52.3605 95.897H52.1411C51.9567 95.897 51.8089 95.915 51.6835 95.934C51.6624 95.9372 51.64 95.9409 51.6167 95.9446C51.5544 95.9547 51.4857 95.9658 51.4201 95.9724C51.1941 96.1216 51.0033 96.2522 50.8778 96.376C50.7431 96.5088 50.6064 96.7127 50.541 96.9061C50.5179 96.9744 50.4974 97.0315 50.4794 97.0813C50.4706 97.1058 50.4624 97.1286 50.4548 97.1501H53.3934ZM49.8476 97.5407L49.7651 97.4593C49.7651 97.2069 49.8396 97.0038 49.9044 96.8273C49.9192 96.7871 49.9334 96.7483 49.9462 96.7106C49.9952 96.5656 50.0668 96.4231 50.1502 96.2929C50.0089 96.4588 49.8972 96.6369 49.7815 96.8652C49.6542 97.1163 49.6496 97.3701 49.6496 97.7034C49.6496 97.9815 49.7202 98.3412 49.7918 98.5618C49.9418 98.8544 50.0868 99.0644 50.3003 99.275C50.3274 99.3017 50.3545 99.3273 50.3817 99.352C50.3641 99.3299 50.3469 99.3072 50.3304 99.2838C50.139 99.0882 49.9552 98.807 49.8601 98.4417C49.8483 98.4073 49.8353 98.3719 49.8219 98.3354C49.7571 98.1589 49.6826 97.9558 49.6826 97.7034L49.8476 97.5407ZM52.3458 95.8915C52.3457 95.8915 52.3461 95.8916 52.347 95.8919L52.3458 95.8915ZM68.9052 94.7902C69.0623 94.79 69.2919 94.7898 69.5241 94.9043C69.5568 94.9204 69.5947 94.9371 69.6435 94.9587L69.6485 94.9609C69.6972 94.9824 69.7544 95.0077 69.8128 95.0365C69.911 95.0849 70.0258 95.1493 70.1304 95.2392C70.288 95.306 70.4101 95.4099 70.5028 95.5013C70.5564 95.5542 70.6059 95.6089 70.6478 95.6553C70.692 95.7041 70.7269 95.7428 70.7605 95.7759C70.9801 95.9925 71.1652 96.3768 71.2555 96.7333C71.3241 97.0038 71.3958 97.3404 71.4207 97.6944L71.4299 97.7034V97.9475H71.1164V98.0127H67.285C67.2926 98.0341 67.3008 98.0569 67.3097 98.0814C67.3276 98.1312 67.3482 98.1883 67.3712 98.2566L67.375 98.2678L67.378 98.2794C67.4454 98.5453 67.5791 98.741 67.708 98.8681L67.73 98.8898L67.7472 98.9152C67.8679 99.0939 68.0539 99.2186 68.2455 99.2816C68.4929 99.363 68.6973 99.4286 68.9713 99.4286C69.1612 99.4286 69.4406 99.3643 69.6751 99.2888C69.7293 99.2608 69.7732 99.2322 69.8288 99.1956L69.832 99.1935C69.8932 99.1532 69.9687 99.1037 70.0687 99.0543L70.5224 99.3309V100.029L70.4249 100.125C70.3877 100.161 70.3327 100.216 70.2733 100.26C70.2275 100.294 70.152 100.342 70.0537 100.363C69.6953 100.532 69.33 100.617 68.8888 100.617C68.428 100.617 68.05 100.524 67.6761 100.34C67.3236 100.166 67.0463 99.9852 66.7696 99.7123C66.4929 99.4394 66.3097 99.1659 66.1334 98.8182L66.1234 98.7985L66.1164 98.7777C66.0252 98.5077 65.9353 98.0677 65.9353 97.7034L65.9353 97.6828C65.9352 97.3686 65.9351 96.9798 66.1334 96.5886C66.3097 96.2409 66.4929 95.9674 66.7696 95.6945C67.0463 95.4216 67.3236 95.2408 67.6761 95.067C68.0499 94.8826 68.428 94.7902 68.8888 94.7902C68.8942 94.7902 68.8996 94.7902 68.9052 94.7902ZM70.2236 97.1501C70.2022 97.0734 70.1786 96.9871 70.1552 96.895C70.0939 96.7156 70.0332 96.5858 69.9685 96.4563C69.8826 96.3971 69.8188 96.3292 69.7721 96.2739C69.7472 96.2444 69.7234 96.2139 69.7055 96.1908C69.7013 96.1854 69.6974 96.1804 69.6939 96.176C69.6718 96.1477 69.6621 96.1366 69.6572 96.1318C69.6253 96.1004 69.5956 96.064 69.577 96.0414L69.572 96.0353C69.5495 96.0078 69.5358 95.9918 69.5231 95.9793C69.5226 95.9788 69.5221 95.9783 69.5217 95.9779C69.3958 95.9736 69.3006 95.9408 69.2365 95.9155C69.2162 95.9075 69.2052 95.903 69.1976 95.8998C69.195 95.8987 69.1928 95.8978 69.1907 95.897H68.9713C68.832 95.897 68.7079 95.914 68.5756 95.934C68.5651 95.9356 68.5544 95.9373 68.5435 95.9389C68.4533 95.9528 68.3516 95.9683 68.2464 95.975C68.0221 96.1231 67.8328 96.2529 67.708 96.376C67.5733 96.5088 67.4366 96.7127 67.3712 96.9061C67.3482 96.9744 67.3276 97.0315 67.3097 97.0813C67.3008 97.1058 67.2926 97.1286 67.285 97.1501H70.2236ZM66.7191 97.5814L66.5953 97.7034C66.5953 97.9558 66.6699 98.1589 66.7346 98.3354C66.748 98.3719 66.761 98.4073 66.7728 98.4417C66.8679 98.807 67.0518 99.0882 67.2431 99.2838C67.2597 99.3072 67.2768 99.3299 67.2944 99.352C67.2672 99.3273 67.2401 99.3017 67.213 99.275C66.9995 99.0644 66.8545 98.8544 66.7045 98.5618C66.6329 98.3412 66.5623 97.9815 66.5623 97.7034C66.5623 97.3701 66.5669 97.1163 66.6942 96.8652C66.7217 96.811 66.7489 96.7596 66.7764 96.7106C66.7636 96.7483 66.7494 96.7871 66.7346 96.8273C66.6699 97.0038 66.5953 97.2069 66.5953 97.4593L66.7191 97.5814ZM61.0936 98.7846C61.1285 98.8323 61.1502 98.8753 61.1641 98.9028L61.1666 98.9078C61.1856 98.9451 61.1883 98.9476 61.19 98.9491C61.1901 98.9492 61.1899 98.9489 61.19 98.9491L61.4379 99.1936C61.4484 99.204 61.4801 99.2281 61.5471 99.2659C61.6103 99.3015 61.6846 99.3382 61.7689 99.3799C61.9314 99.46 62.0386 99.5099 62.2062 99.5099H62.2571L62.3054 99.5258C62.4972 99.5888 62.6942 99.5913 62.9488 99.5913C63.2882 99.5913 63.6177 99.4544 63.7996 99.275L63.8154 99.2594L63.8332 99.2462C64.0841 99.0606 64.2224 98.812 64.3795 98.4285C64.4615 98.0229 64.523 97.6857 64.4564 97.3572C64.4143 97.1496 64.3766 96.9658 64.322 96.8044C64.2677 96.6436 64.2049 96.5316 64.1296 96.4573L64.1173 96.4452L64.1065 96.4318C63.8413 96.1048 63.5145 95.9653 63.1117 95.806C62.671 95.7365 62.3387 95.746 61.9339 95.9457L61.9223 95.9514L61.9102 95.9562C61.6011 96.0781 61.3336 96.3208 61.1172 96.6524V98.7612L61.0936 98.7846ZM61.0347 95.5431C61.1665 95.436 61.312 95.3331 61.4674 95.2411C61.8933 94.9891 62.3664 94.7902 62.7838 94.7902C63.083 94.7902 63.4518 94.8847 63.7079 94.9689C63.965 95.0534 64.3314 95.2257 64.55 95.4285C64.8017 95.6018 64.9849 95.8463 65.1736 96.0984C65.2029 96.1375 65.2323 96.1767 65.2621 96.2159L65.2791 96.2382L65.2917 96.2632C65.4722 96.6192 65.5617 96.9725 65.6425 97.2914L65.651 97.3248L65.6532 97.3472C65.7447 98.2497 65.4664 98.9741 65.0189 99.592L65.0108 99.6031L65.0018 99.6135C64.4618 100.235 63.803 100.617 62.9488 100.617C62.6496 100.617 62.2808 100.522 62.0246 100.438C61.8741 100.389 61.7308 100.317 61.6127 100.253C61.5561 100.223 61.5094 100.197 61.4683 100.174C61.4131 100.143 61.3682 100.118 61.3235 100.096L61.278 100.073L61.2421 100.038C61.1986 99.9949 61.1608 99.9636 61.1172 99.9283V101.691L60.8037 102H60.3087L59.9952 101.691V95.2622H60.2262V94.953H60.7212L61.0347 95.2622V95.5431ZM57.2053 94.9533C57.4931 94.9597 57.7702 95.0509 57.9956 95.1251L58.0153 95.1316C58.2745 95.2168 58.4524 95.3031 58.614 95.3827L58.8403 95.4571L58.8576 96.0376L58.3891 96.2224L58.3288 96.2224L58.3287 95.9334C58.3288 96.2224 58.3289 96.2224 58.3288 96.2224L58.3275 96.2224L58.3262 96.2224L58.3236 96.2223L58.3177 96.2222C58.3136 96.2221 58.3091 96.2219 58.3042 96.2215C58.2944 96.2209 58.283 96.2198 58.2702 96.218C58.2447 96.2144 58.2133 96.2079 58.178 96.1964C58.1325 96.1814 58.0817 96.1582 58.0303 96.1232C58.0187 96.1203 58.008 96.1174 57.9986 96.1147C57.9556 96.1023 57.9102 96.0861 57.868 96.0705C57.8457 96.0622 57.8232 96.0538 57.8002 96.0451C57.7308 96.019 57.657 95.9912 57.5695 95.9624C57.5002 95.9396 57.4423 95.9193 57.3917 95.9016C57.2317 95.8455 57.1462 95.8155 57.0087 95.8155C56.8413 95.8155 56.6413 95.8175 56.4478 95.8811C56.3315 95.9193 56.2603 95.9497 56.2029 95.9874C56.1496 96.0225 56.0952 96.0726 56.032 96.1661C55.9216 96.3295 55.9429 96.4556 55.9691 96.5072C56.0153 96.5984 56.1161 96.7042 56.2828 96.7591L56.3226 96.7721L56.3576 96.7951C56.5603 96.9284 56.7664 96.9994 57.0847 97.0779C57.2713 97.1239 57.4526 97.1915 57.6098 97.2536C57.6548 97.2713 57.6969 97.2882 57.7367 97.3042C57.8437 97.3471 57.9336 97.3832 58.0153 97.4101C58.3188 97.5099 58.6278 97.7106 58.8371 98.0201C59.0552 98.3429 59.055 98.6717 59.0547 98.975C59.0547 98.9852 59.0547 98.9953 59.0547 99.0054C59.0547 99.5029 58.8502 99.9048 58.5504 100.2C58.2679 100.479 57.878 100.685 57.461 100.697C57.1051 100.78 56.7473 100.78 56.3913 100.697C56.1918 100.691 56.0043 100.642 55.8474 100.591C55.7629 100.563 55.6823 100.533 55.6117 100.506L55.6026 100.503C55.538 100.478 55.484 100.458 55.4349 100.441C55.0315 100.339 54.8209 100.133 54.7245 100.038L54.5514 99.8671L55.0742 99.0077L55.3338 99.1357L55.3352 99.1363L55.3375 99.1375L55.3449 99.1412C55.3509 99.1443 55.3593 99.1486 55.3693 99.154C55.3893 99.1646 55.4169 99.1797 55.4477 99.1979C55.4932 99.2248 55.5617 99.2678 55.6235 99.3203C55.6654 99.3433 55.7042 99.3677 55.7378 99.3891C55.7487 99.3961 55.7591 99.4028 55.7693 99.4093C55.804 99.4316 55.8353 99.4517 55.8706 99.4726C55.9557 99.5229 56.0505 99.5693 56.1772 99.6005C56.5223 99.6856 56.8088 99.7541 57.0087 99.7541C57.4087 99.7541 57.5922 99.6334 57.8236 99.4813L57.8248 99.4805C57.9505 99.3979 58.0152 99.2767 58.0152 99.0054C58.0152 98.9564 57.993 98.8745 57.8801 98.7567C57.6683 98.6193 57.5309 98.5537 57.3221 98.485C57.0885 98.4082 56.7718 98.3299 56.4376 98.2475L56.426 98.2446L56.4145 98.2409C55.9033 98.0728 55.4969 97.8852 55.1904 97.4821C54.8637 97.0525 54.8794 96.6188 54.9687 96.178L54.977 96.1374L54.9958 96.1004C54.9995 96.0931 55.0032 96.0857 55.0069 96.0783C55.1648 95.7664 55.375 95.3511 55.8899 95.1427C56.2631 94.9614 56.7298 94.8671 57.2053 94.9533ZM55.7387 97.1687C55.9211 97.3794 56.1682 97.5072 56.6015 97.6504C56.9238 97.7299 57.262 97.8134 57.5203 97.8983C57.7761 97.9824 57.9575 98.0693 58.1939 98.2202C58.0851 98.1167 57.9525 98.0413 57.8171 97.9968C57.7143 97.963 57.5967 97.9158 57.4833 97.8702C57.4472 97.8557 57.4115 97.8414 57.3769 97.8278C57.2248 97.7678 57.0761 97.7133 56.9327 97.6779C56.6042 97.5969 56.3246 97.509 56.0437 97.3316C55.9291 97.2896 55.8273 97.2338 55.7387 97.1687ZM73.8637 95.2297C74.2375 95.0453 74.6156 94.953 75.0764 94.953C75.5372 94.953 75.9153 95.0453 76.2891 95.2297L76.3347 95.2522L76.368 95.285L76.3709 95.2876C76.3757 95.2917 76.385 95.2995 76.399 95.3098C76.4269 95.3305 76.4728 95.361 76.5366 95.3925L76.5821 95.415L76.6181 95.4504C76.6239 95.4561 76.6241 95.4563 76.6301 95.4596C76.6366 95.4633 76.6497 95.4708 76.6837 95.4931C76.7084 95.5093 76.7609 95.5453 76.8041 95.6061C76.8534 95.6756 76.8749 95.7542 76.8749 95.8318V95.8913L76.6875 96.3535L76.2562 96.5152C76.148 96.4619 76.0459 96.3863 75.97 96.3301L75.9608 96.3233C75.8821 96.265 75.8266 96.225 75.7784 96.1987C75.5416 96.121 75.3417 96.0597 75.0764 96.0597C74.8023 96.0597 74.5979 96.1252 74.3505 96.2065C74.1591 96.2695 73.973 96.3943 73.8522 96.573L73.835 96.5985L73.8131 96.6201C73.6784 96.753 73.5417 96.9568 73.4763 97.1502C73.3967 97.3857 73.3274 97.673 73.3274 97.8661C73.3274 98.0931 73.3725 98.2644 73.4376 98.5116C73.451 98.5621 73.4651 98.6158 73.4799 98.6738C73.5453 98.8608 73.6741 99.0582 73.834 99.2951C73.9661 99.4193 74.1615 99.5509 74.3903 99.7015C74.6203 99.7767 74.8172 99.8354 75.0764 99.8354C75.3426 99.8354 75.5431 99.7735 75.7812 99.6954C75.8574 99.6578 75.9249 99.6241 75.9831 99.5913C76.0501 99.5536 76.0818 99.5295 76.0923 99.5191L76.5356 99.5191L76.7831 99.7632L76.7016 100.258C76.6173 100.3 76.543 100.337 76.4798 100.372C76.4129 100.41 76.3811 100.434 76.3706 100.445L76.3346 100.48L76.2891 100.503C75.9153 100.687 75.5373 100.779 75.0764 100.779C74.6155 100.779 74.2375 100.687 73.8637 100.503C73.5112 100.329 73.2339 100.148 72.9572 99.8751C72.6805 99.6022 72.4972 99.3287 72.321 98.981C72.1227 98.5898 72.1228 98.2009 72.1229 97.8867L72.1229 97.8661C72.1229 97.5019 72.2127 97.0619 72.304 96.7919L72.311 96.7711L72.321 96.7514C72.4972 96.4037 72.6805 96.1302 72.9572 95.8573C73.2339 95.5844 73.5111 95.4036 73.8637 95.2297Z" fill="#055098"/>
</svg>
