<svg width="136" height="136" viewBox="0 0 136 136" fill="none" xmlns="http://www.w3.org/2000/svg">
<circle cx="68" cy="68" r="68" fill="#5B247B"/>
<path fill-rule="evenodd" clip-rule="evenodd" d="M68.5 14.6482C39.3107 14.6482 15.6482 38.3107 15.6482 67.5C15.6482 96.6893 39.3107 120.352 68.5 120.352C97.6893 120.352 121.352 96.6893 121.352 67.5C121.352 38.3107 97.6893 14.6482 68.5 14.6482ZM7 67.5C7 33.5345 34.5345 6 68.5 6C102.466 6 130 33.5345 130 67.5C130 101.466 102.466 129 68.5 129C34.5345 129 7 101.466 7 67.5Z" fill="white"/>
<path d="M71.0891 50.2222H77V28H57.081V50.4691C61.2915 47.7531 61.6154 47.5885 63.5587 44.2963C66.3117 39.6049 65.583 37.9589 65.7449 36.2305C65.9879 33.5144 67.2834 32.3621 69.3077 34.0905C71.17 35.7366 73.1943 39.7695 72.9514 42.6502C72.7085 45.6132 72.5466 46.6831 71.6559 49.0699C71.332 49.5638 71.17 49.9753 71.0891 50.2222ZM76.919 88V85.2017H66.6356H60.2389H57V88H76.919Z" fill="white"/>
<path fill-rule="evenodd" clip-rule="evenodd" d="M56.0829 28H77V50.5418H70.3302L70.4434 50.2078C70.5307 49.9499 70.7017 49.5301 71.0376 49.029C71.9293 46.711 72.0917 45.6725 72.3385 42.759C72.4575 41.392 72.0199 39.7237 71.3036 38.183C70.5882 36.6444 69.6131 35.2712 68.696 34.4858C67.6886 33.6537 66.9725 33.601 66.4979 33.9123C66.2434 34.0793 66.0164 34.3724 65.8367 34.8025C65.6575 35.2313 65.5321 35.7812 65.4714 36.4376L65.4713 36.4387C65.4392 36.7708 65.4427 37.0978 65.4467 37.4623C65.4477 37.5497 65.4486 37.6394 65.4491 37.7317C65.4518 38.2038 65.4414 38.729 65.3451 39.35C65.1522 40.5944 64.6189 42.1964 63.1969 44.5422C62.2019 46.1742 61.6045 47.0609 60.7032 47.8739C59.852 48.6416 58.7331 49.3401 56.7677 50.5669C56.6735 50.6257 56.5773 50.6858 56.479 50.7471L56.0829 50.9945V28ZM56.5988 28.5076V50.0712C58.5105 48.8776 59.5584 48.2179 60.3546 47.4997C61.1948 46.7418 61.7588 45.9142 62.754 44.2821C64.1516 41.9763 64.6549 40.4365 64.8352 39.2734C64.9255 38.6907 64.9359 38.1958 64.9333 37.7345C64.9328 37.6489 64.9319 37.5637 64.9309 37.4789C64.9268 37.1123 64.9228 36.7525 64.9577 36.3912C65.0215 35.7012 65.1552 35.0985 65.3596 34.6095C65.5634 34.1215 65.8443 33.7311 66.2118 33.49C66.9809 32.9854 67.9644 33.2181 69.0294 34.0985L69.0328 34.1013C70.0227 34.9483 71.0371 36.3898 71.7726 37.9718C72.5076 39.5525 72.9822 41.3125 72.8525 42.8017C72.6026 45.7525 72.4335 46.839 71.5097 49.2355L71.4994 49.2624L71.4832 49.2863C71.2899 49.5716 71.1562 49.8269 71.0639 50.0342H76.4842V28.5076H56.5988ZM56 84.7177H76.9171V88H56V84.7177ZM56.5158 85.2253V87.4924H76.4012V85.2253H56.5158Z" fill="white"/>
<path d="M67.9231 80.04C67.9231 81.64 69.1538 83 70.7692 83C70.9231 83 71.0769 83 71.2308 82.92V83H75.9231V77.08H71.2308V77.16C71.0769 77.16 70.9231 77.08 70.7692 77.08C69.2308 77.08 67.9231 78.44 67.9231 80.04ZM65.2308 72.04C65.2308 73.64 66.4615 75 68.0769 75C68.2308 75 68.3846 75 68.5385 74.92V75H76V69.08H68.5385V69.16C68.3846 69.16 68.2308 69.08 68.0769 69.08C66.5385 69.08 65.2308 70.36 65.2308 72.04ZM66.3077 61.08C66.1538 61.08 66 61 65.8462 61C64.3077 61 63 62.36 63 63.96C63 65.56 64.2308 66.92 65.8462 66.92C66 66.92 66.1538 66.92 66.3077 66.84V66.92H76V61L66.3077 61.08ZM69.3846 53C69.2308 53 69.0769 53 68.9231 53C67.3846 53 66.0769 54.36 66.0769 55.96C66.0769 57.56 67.3077 58.92 68.9231 58.92C69.0769 58.92 69.2308 58.92 69.3846 58.84V58.92H76V53H69.3846V53Z" fill="white"/>
<path fill-rule="evenodd" clip-rule="evenodd" d="M65.4243 55.3669C65.4243 53.5439 66.9988 52 68.8579 52H77V58.7338H69.1054V58.7259C69.02 58.7339 68.9412 58.7338 68.8731 58.7338C68.868 58.7338 68.8629 58.7338 68.8579 58.7338C66.9085 58.7338 65.4243 57.1853 65.4243 55.3669ZM69.6378 58.2117H76.4675V52.5221H68.8579C67.2929 52.5221 65.9567 53.8322 65.9567 55.3669C65.9567 56.9061 67.2119 58.2117 68.8579 58.2117C69.0358 58.2117 69.1453 58.2078 69.2525 58.1552L69.6378 57.9663V58.2117ZM77 60.392V67.1279H65.6811V67.12C65.5958 67.128 65.5169 67.1279 65.4488 67.1279C65.4437 67.1279 65.4387 67.1279 65.4337 67.1279C63.4842 67.1279 62 65.5794 62 63.761C62 61.938 63.5745 60.3941 65.4337 60.3941C65.5526 60.3941 65.6659 60.4219 65.745 60.4414C65.7484 60.4422 65.7518 60.443 65.7551 60.4439C65.8463 60.4662 65.8995 60.4779 65.9464 60.478C65.9467 60.478 65.947 60.478 65.9473 60.478L77 60.392ZM66.2136 66.6058H76.4675V60.9183L65.9494 61.0001L65.9473 61.0001C65.8284 61.0001 65.7151 60.9723 65.636 60.9528C65.6326 60.952 65.6292 60.9512 65.6259 60.9504C65.5341 60.9279 65.4808 60.9162 65.4337 60.9162C63.8686 60.9162 62.5325 62.2263 62.5325 63.761C62.5325 65.3002 63.7876 66.6058 65.4337 66.6058C65.6115 66.6058 65.721 66.6019 65.8283 66.5493L66.2136 66.3604V66.6058ZM64.4826 72.239C64.4826 70.3275 66.0618 68.8721 67.9163 68.8721C68.0061 68.8721 68.0926 68.888 68.1637 68.9041V68.8721H77V75.6059H68.1637V75.598C68.0784 75.606 67.9997 75.6059 67.9317 75.6059L67.9163 75.6059C65.9668 75.6059 64.4826 74.0574 64.4826 72.239ZM68.6961 75.0838H76.4675V69.3942H68.6961V69.4782H68.4299C68.3109 69.4782 68.1976 69.4503 68.1186 69.4309L68.1085 69.4284C68.0166 69.4059 67.9634 69.3942 67.9163 69.3942C66.3465 69.3942 65.0151 70.625 65.0151 72.239C65.0151 73.7783 66.2702 75.0838 67.9163 75.0838C68.0942 75.0838 68.2036 75.08 68.3108 75.0274L68.6961 74.8385V75.0838ZM67.4788 80.6331C67.4788 78.8101 69.0533 77.2662 70.9125 77.2662C71.0023 77.2662 71.0889 77.2821 71.1599 77.2982V77.2662H76.9144V84H71.1599V83.9921C71.0747 84.0001 70.9959 84 70.9279 84L70.9125 84C68.9631 84 67.4788 82.4515 67.4788 80.6331ZM71.6924 83.4779H76.3819V77.7883H71.6924V77.8723H71.4261C71.3072 77.8723 71.1939 77.8444 71.1148 77.825L71.1047 77.8225C71.0129 77.8 70.9596 77.7883 70.9125 77.7883C69.3474 77.7883 68.0113 79.0985 68.0113 80.6331C68.0113 82.1724 69.2665 83.4779 70.9125 83.4779C71.0905 83.4779 71.1999 83.4741 71.3071 83.4215L71.6924 83.2326V83.4779Z" fill="white"/>
<mask id="path-7-outside-1" maskUnits="userSpaceOnUse" x="48" y="100" width="39" height="11" fill="black">
<rect fill="white" x="48" y="100" width="39" height="11"/>
<path d="M81.375 109.4C81.6184 109.486 81.943 109.571 82.3487 109.571C82.4298 109.571 82.511 109.571 82.5921 109.486C82.6732 109.486 82.7544 109.4 82.8355 109.314C82.9167 109.229 82.9978 109.143 82.9978 109.143C83.0789 109.057 83.0789 108.971 83.1601 108.886C83.2412 108.8 83.2412 108.714 83.2412 108.629C83.2412 108.543 83.3224 108.457 83.3224 108.371C83.3224 108.286 83.4035 108.2 83.4035 108.2L80.9693 102.886H81.5373L83.6469 107.6L85.432 102.886H86L83.8903 108.2C83.7281 108.714 83.4846 109.143 83.2412 109.4C82.9167 109.657 82.5921 109.829 82.2675 109.829C82.0241 109.829 81.6996 109.743 81.375 109.657V109.4V109.4ZM78.1294 101.343H77.6425V103.057H76.9123V103.486H77.6425V105.971V106.057C77.6425 106.314 77.6425 106.571 77.6425 106.657C77.6425 106.829 77.7237 107 77.7237 107.257C77.8048 107.514 77.886 107.771 78.0482 107.857C78.1294 107.943 78.2105 108.029 78.2917 108.029C78.3728 108.114 78.4539 108.114 78.5351 108.2C78.6162 108.2 78.6974 108.286 78.7785 108.286C78.8596 108.286 78.9408 108.286 79.0219 108.286C79.1031 108.286 79.1842 108.286 79.2653 108.286C79.3465 108.286 79.4276 108.286 79.4276 108.286C79.4276 108.286 79.5088 108.286 79.5899 108.286C79.671 108.286 79.671 108.286 79.7522 108.286H79.8333H79.9145V107.857C79.2654 108.114 78.6974 108.029 78.4539 107.686C78.3728 107.6 78.3728 107.514 78.2917 107.429C78.2105 107.343 78.2105 107.257 78.2105 107.171C78.2105 107.086 78.2105 107 78.2105 106.914C78.2105 106.829 78.2105 106.743 78.2105 106.657C78.2105 106.571 78.2105 106.486 78.2105 106.4C78.2105 106.314 78.2105 106.143 78.2105 106.143V106.057V103.571H79.9145V103.143H78.2105V101.343H78.1294ZM75.7763 108.286H75.2895V102.971H75.7763V104V108.286ZM75.2083 102.286H75.8575V101.429H75.2083V102.286ZM74.0724 102.971C73.6667 102.971 73.3421 103.057 72.9364 103.314C72.5307 103.486 72.2061 103.914 71.8816 104.514V104V102.971H71.3947V108.286H71.8816V105.714C71.9627 105.286 72.0439 104.943 72.2061 104.686C72.3684 104.429 72.5307 104.171 72.693 104C72.8553 103.829 73.0175 103.743 73.1798 103.657C73.3421 103.571 73.5044 103.486 73.6667 103.486C73.7478 103.486 73.9101 103.486 73.9912 103.486V102.971H74.0724ZM70.0153 107.514C70.0153 107.686 70.0154 107.857 69.9342 108.114C69.9342 108.371 69.8531 108.543 69.6908 108.8C69.5285 109.057 69.3662 109.229 69.2039 109.4C68.9605 109.571 68.7171 109.743 68.4737 109.829C68.1491 109.914 67.9057 110 67.5811 110C66.932 110 66.2829 109.829 65.5526 109.4L65.7149 108.886C66.1206 109.314 66.6886 109.571 67.5811 109.571C67.8246 109.571 68.068 109.571 68.3114 109.486C68.5548 109.4 68.7171 109.314 68.7982 109.229C68.9605 109.143 69.0417 108.971 69.1228 108.886C69.2039 108.714 69.2851 108.629 69.3662 108.457C69.4474 108.371 69.4474 108.2 69.5285 108.029C69.5285 107.857 69.6096 107.771 69.6096 107.686C69.6096 107.6 69.6096 107.6 69.6096 107.514V106.743C69.5285 106.914 69.4474 107 69.2851 107.171C69.2039 107.343 69.0417 107.429 68.8794 107.6C68.7171 107.771 68.5548 107.857 68.3114 107.943C68.068 108.029 67.8246 108.029 67.5811 108.029C67.3377 108.029 67.0132 107.943 66.7697 107.857C66.5263 107.771 66.2017 107.6 65.9583 107.429C65.7149 107.257 65.4715 107 65.3092 106.657C65.1469 106.314 65.0658 105.971 65.0658 105.629C65.0658 105.2 65.1469 104.857 65.3903 104.429C65.6338 104 65.8772 103.743 66.2017 103.486C66.6075 103.229 67.0132 103.057 67.4189 103.057C67.6623 103.057 67.9057 103.057 68.1491 103.143C68.3925 103.229 68.5548 103.314 68.7171 103.314C68.8794 103.4 68.9605 103.486 69.1228 103.657C69.2851 103.829 69.3662 103.914 69.3662 104C69.3662 104.086 69.4474 104.171 69.5285 104.257V104.343V103.057H70.0153V107.514V107.514ZM69.5285 104.943C69.5285 104.943 69.5285 104.857 69.4474 104.771C69.3662 104.686 69.3662 104.514 69.2851 104.429C69.2039 104.343 69.1228 104.257 69.0417 104.086C68.9605 103.914 68.7982 103.829 68.636 103.743C68.4737 103.657 68.3114 103.571 68.068 103.486C67.8246 103.4 67.5811 103.4 67.3377 103.4C66.932 103.4 66.5263 103.486 66.2017 103.743C65.8772 104 65.7149 104.257 65.5526 104.6C65.4715 104.943 65.3904 105.286 65.4715 105.714C65.5526 106.057 65.6338 106.4 65.8772 106.743C66.2018 107.171 66.6075 107.429 67.0943 107.429C67.5811 107.514 68.068 107.429 68.4737 107.171C68.8794 106.914 69.2039 106.486 69.4474 105.971V105.886V104.943H69.5285ZM61.9013 103.4C61.9824 103.4 62.0636 103.4 62.1447 103.4C62.2259 103.4 62.307 103.486 62.4693 103.486C62.6316 103.571 62.7127 103.657 62.7939 103.743C62.875 103.829 62.9561 104 63.1184 104.171C63.2807 104.343 63.2807 104.514 63.3618 104.771C63.443 105.114 63.5241 105.371 63.5241 105.457H59.8728C59.8728 105.2 59.954 105.029 60.0351 104.771C60.1162 104.514 60.2785 104.257 60.4408 104.086C60.6031 103.914 60.8465 103.743 61.0899 103.571C61.2522 103.4 61.5767 103.4 61.9013 103.4ZM64.011 105.886C64.011 105.457 63.9298 105.029 63.8487 104.686C63.7675 104.343 63.6053 104 63.443 103.829C63.2807 103.657 63.1184 103.4 62.875 103.314C62.7127 103.143 62.4693 103.057 62.307 102.971C62.1447 102.886 61.9825 102.886 61.8202 102.886C61.4145 102.886 61.0899 102.971 60.7653 103.143C60.4408 103.314 60.1974 103.486 59.9539 103.743C59.7105 104 59.5482 104.257 59.386 104.6C59.2237 104.943 59.2237 105.286 59.2237 105.629C59.2237 105.971 59.3048 106.4 59.386 106.657C59.5482 107 59.7105 107.257 59.9539 107.514C60.1974 107.771 60.4408 107.943 60.7653 108.114C61.0899 108.286 61.4145 108.371 61.8202 108.371C62.2259 108.371 62.5504 108.286 62.875 108.114C62.9561 108.114 63.0373 108.029 63.1184 107.943V107.343C62.9561 107.429 62.875 107.514 62.7127 107.6C62.4693 107.686 62.1447 107.771 61.9013 107.771C61.5767 107.771 61.3333 107.686 61.0899 107.6C60.8465 107.514 60.6031 107.343 60.4408 107.086C60.2785 106.829 60.1162 106.657 60.0351 106.314C59.954 106.057 59.8728 105.886 59.8728 105.629H64.011V105.886ZM57.1952 101.343H56.7083V103.057H55.9781V103.486H56.7083V105.971V106.057C56.7083 106.314 56.7083 106.571 56.7083 106.657C56.7083 106.829 56.7895 107 56.7895 107.257C56.8706 107.514 56.9518 107.771 57.114 107.857C57.1952 107.943 57.2763 108.029 57.3575 108.029C57.4386 108.029 57.5197 108.114 57.6009 108.2C57.682 108.2 57.7632 108.286 57.8443 108.286C57.9254 108.286 58.0066 108.286 58.0877 108.286C58.1689 108.286 58.25 108.286 58.3311 108.286C58.4123 108.286 58.4934 108.286 58.4934 108.286C58.5746 108.286 58.5746 108.286 58.6557 108.286C58.7368 108.286 58.7368 108.286 58.818 108.286H58.8991H58.9803V107.857C58.3311 108.114 57.7632 108.029 57.5197 107.686C57.4386 107.6 57.4386 107.514 57.3575 107.429C57.3575 107.343 57.2763 107.257 57.2763 107.171C57.2763 107.086 57.2763 107 57.2763 106.914C57.2763 106.829 57.2763 106.743 57.2763 106.657C57.2763 106.571 57.2763 106.486 57.2763 106.4C57.2763 106.314 57.2763 106.143 57.2763 106.143V106.057V103.571H58.9803V103.143H57.2763V101.343H57.1952ZM51.5154 108.286H51.0285V102.971H51.5154V103.914C51.9211 103.229 52.489 102.886 53.2193 102.886C53.9496 102.886 54.4364 103.057 54.761 103.486C55.0855 103.914 55.3289 104.429 55.3289 105.2V108.286H54.8421V105.371C54.8421 104 54.2741 103.314 53.1382 103.314C52.4079 103.314 51.8399 103.743 51.5154 104.686V108.286ZM49.4868 101H49V108.286H49.4868V101Z"/>
</mask>
<path d="M81.375 109.4C81.6184 109.486 81.943 109.571 82.3487 109.571C82.4298 109.571 82.511 109.571 82.5921 109.486C82.6732 109.486 82.7544 109.4 82.8355 109.314C82.9167 109.229 82.9978 109.143 82.9978 109.143C83.0789 109.057 83.0789 108.971 83.1601 108.886C83.2412 108.8 83.2412 108.714 83.2412 108.629C83.2412 108.543 83.3224 108.457 83.3224 108.371C83.3224 108.286 83.4035 108.2 83.4035 108.2L80.9693 102.886H81.5373L83.6469 107.6L85.432 102.886H86L83.8903 108.2C83.7281 108.714 83.4846 109.143 83.2412 109.4C82.9167 109.657 82.5921 109.829 82.2675 109.829C82.0241 109.829 81.6996 109.743 81.375 109.657V109.4V109.4ZM78.1294 101.343H77.6425V103.057H76.9123V103.486H77.6425V105.971V106.057C77.6425 106.314 77.6425 106.571 77.6425 106.657C77.6425 106.829 77.7237 107 77.7237 107.257C77.8048 107.514 77.886 107.771 78.0482 107.857C78.1294 107.943 78.2105 108.029 78.2917 108.029C78.3728 108.114 78.4539 108.114 78.5351 108.2C78.6162 108.2 78.6974 108.286 78.7785 108.286C78.8596 108.286 78.9408 108.286 79.0219 108.286C79.1031 108.286 79.1842 108.286 79.2653 108.286C79.3465 108.286 79.4276 108.286 79.4276 108.286C79.4276 108.286 79.5088 108.286 79.5899 108.286C79.671 108.286 79.671 108.286 79.7522 108.286H79.8333H79.9145V107.857C79.2654 108.114 78.6974 108.029 78.4539 107.686C78.3728 107.6 78.3728 107.514 78.2917 107.429C78.2105 107.343 78.2105 107.257 78.2105 107.171C78.2105 107.086 78.2105 107 78.2105 106.914C78.2105 106.829 78.2105 106.743 78.2105 106.657C78.2105 106.571 78.2105 106.486 78.2105 106.4C78.2105 106.314 78.2105 106.143 78.2105 106.143V106.057V103.571H79.9145V103.143H78.2105V101.343H78.1294ZM75.7763 108.286H75.2895V102.971H75.7763V104V108.286ZM75.2083 102.286H75.8575V101.429H75.2083V102.286ZM74.0724 102.971C73.6667 102.971 73.3421 103.057 72.9364 103.314C72.5307 103.486 72.2061 103.914 71.8816 104.514V104V102.971H71.3947V108.286H71.8816V105.714C71.9627 105.286 72.0439 104.943 72.2061 104.686C72.3684 104.429 72.5307 104.171 72.693 104C72.8553 103.829 73.0175 103.743 73.1798 103.657C73.3421 103.571 73.5044 103.486 73.6667 103.486C73.7478 103.486 73.9101 103.486 73.9912 103.486V102.971H74.0724ZM70.0153 107.514C70.0153 107.686 70.0154 107.857 69.9342 108.114C69.9342 108.371 69.8531 108.543 69.6908 108.8C69.5285 109.057 69.3662 109.229 69.2039 109.4C68.9605 109.571 68.7171 109.743 68.4737 109.829C68.1491 109.914 67.9057 110 67.5811 110C66.932 110 66.2829 109.829 65.5526 109.4L65.7149 108.886C66.1206 109.314 66.6886 109.571 67.5811 109.571C67.8246 109.571 68.068 109.571 68.3114 109.486C68.5548 109.4 68.7171 109.314 68.7982 109.229C68.9605 109.143 69.0417 108.971 69.1228 108.886C69.2039 108.714 69.2851 108.629 69.3662 108.457C69.4474 108.371 69.4474 108.2 69.5285 108.029C69.5285 107.857 69.6096 107.771 69.6096 107.686C69.6096 107.6 69.6096 107.6 69.6096 107.514V106.743C69.5285 106.914 69.4474 107 69.2851 107.171C69.2039 107.343 69.0417 107.429 68.8794 107.6C68.7171 107.771 68.5548 107.857 68.3114 107.943C68.068 108.029 67.8246 108.029 67.5811 108.029C67.3377 108.029 67.0132 107.943 66.7697 107.857C66.5263 107.771 66.2017 107.6 65.9583 107.429C65.7149 107.257 65.4715 107 65.3092 106.657C65.1469 106.314 65.0658 105.971 65.0658 105.629C65.0658 105.2 65.1469 104.857 65.3903 104.429C65.6338 104 65.8772 103.743 66.2017 103.486C66.6075 103.229 67.0132 103.057 67.4189 103.057C67.6623 103.057 67.9057 103.057 68.1491 103.143C68.3925 103.229 68.5548 103.314 68.7171 103.314C68.8794 103.4 68.9605 103.486 69.1228 103.657C69.2851 103.829 69.3662 103.914 69.3662 104C69.3662 104.086 69.4474 104.171 69.5285 104.257V104.343V103.057H70.0153V107.514V107.514ZM69.5285 104.943C69.5285 104.943 69.5285 104.857 69.4474 104.771C69.3662 104.686 69.3662 104.514 69.2851 104.429C69.2039 104.343 69.1228 104.257 69.0417 104.086C68.9605 103.914 68.7982 103.829 68.636 103.743C68.4737 103.657 68.3114 103.571 68.068 103.486C67.8246 103.4 67.5811 103.4 67.3377 103.4C66.932 103.4 66.5263 103.486 66.2017 103.743C65.8772 104 65.7149 104.257 65.5526 104.6C65.4715 104.943 65.3904 105.286 65.4715 105.714C65.5526 106.057 65.6338 106.4 65.8772 106.743C66.2018 107.171 66.6075 107.429 67.0943 107.429C67.5811 107.514 68.068 107.429 68.4737 107.171C68.8794 106.914 69.2039 106.486 69.4474 105.971V105.886V104.943H69.5285ZM61.9013 103.4C61.9824 103.4 62.0636 103.4 62.1447 103.4C62.2259 103.4 62.307 103.486 62.4693 103.486C62.6316 103.571 62.7127 103.657 62.7939 103.743C62.875 103.829 62.9561 104 63.1184 104.171C63.2807 104.343 63.2807 104.514 63.3618 104.771C63.443 105.114 63.5241 105.371 63.5241 105.457H59.8728C59.8728 105.2 59.954 105.029 60.0351 104.771C60.1162 104.514 60.2785 104.257 60.4408 104.086C60.6031 103.914 60.8465 103.743 61.0899 103.571C61.2522 103.4 61.5767 103.4 61.9013 103.4ZM64.011 105.886C64.011 105.457 63.9298 105.029 63.8487 104.686C63.7675 104.343 63.6053 104 63.443 103.829C63.2807 103.657 63.1184 103.4 62.875 103.314C62.7127 103.143 62.4693 103.057 62.307 102.971C62.1447 102.886 61.9825 102.886 61.8202 102.886C61.4145 102.886 61.0899 102.971 60.7653 103.143C60.4408 103.314 60.1974 103.486 59.9539 103.743C59.7105 104 59.5482 104.257 59.386 104.6C59.2237 104.943 59.2237 105.286 59.2237 105.629C59.2237 105.971 59.3048 106.4 59.386 106.657C59.5482 107 59.7105 107.257 59.9539 107.514C60.1974 107.771 60.4408 107.943 60.7653 108.114C61.0899 108.286 61.4145 108.371 61.8202 108.371C62.2259 108.371 62.5504 108.286 62.875 108.114C62.9561 108.114 63.0373 108.029 63.1184 107.943V107.343C62.9561 107.429 62.875 107.514 62.7127 107.6C62.4693 107.686 62.1447 107.771 61.9013 107.771C61.5767 107.771 61.3333 107.686 61.0899 107.6C60.8465 107.514 60.6031 107.343 60.4408 107.086C60.2785 106.829 60.1162 106.657 60.0351 106.314C59.954 106.057 59.8728 105.886 59.8728 105.629H64.011V105.886ZM57.1952 101.343H56.7083V103.057H55.9781V103.486H56.7083V105.971V106.057C56.7083 106.314 56.7083 106.571 56.7083 106.657C56.7083 106.829 56.7895 107 56.7895 107.257C56.8706 107.514 56.9518 107.771 57.114 107.857C57.1952 107.943 57.2763 108.029 57.3575 108.029C57.4386 108.029 57.5197 108.114 57.6009 108.2C57.682 108.2 57.7632 108.286 57.8443 108.286C57.9254 108.286 58.0066 108.286 58.0877 108.286C58.1689 108.286 58.25 108.286 58.3311 108.286C58.4123 108.286 58.4934 108.286 58.4934 108.286C58.5746 108.286 58.5746 108.286 58.6557 108.286C58.7368 108.286 58.7368 108.286 58.818 108.286H58.8991H58.9803V107.857C58.3311 108.114 57.7632 108.029 57.5197 107.686C57.4386 107.6 57.4386 107.514 57.3575 107.429C57.3575 107.343 57.2763 107.257 57.2763 107.171C57.2763 107.086 57.2763 107 57.2763 106.914C57.2763 106.829 57.2763 106.743 57.2763 106.657C57.2763 106.571 57.2763 106.486 57.2763 106.4C57.2763 106.314 57.2763 106.143 57.2763 106.143V106.057V103.571H58.9803V103.143H57.2763V101.343H57.1952ZM51.5154 108.286H51.0285V102.971H51.5154V103.914C51.9211 103.229 52.489 102.886 53.2193 102.886C53.9496 102.886 54.4364 103.057 54.761 103.486C55.0855 103.914 55.3289 104.429 55.3289 105.2V108.286H54.8421V105.371C54.8421 104 54.2741 103.314 53.1382 103.314C52.4079 103.314 51.8399 103.743 51.5154 104.686V108.286ZM49.4868 101H49V108.286H49.4868V101Z" fill="white"/>
<path d="M81.375 109.4C81.6184 109.486 81.943 109.571 82.3487 109.571C82.4298 109.571 82.511 109.571 82.5921 109.486C82.6732 109.486 82.7544 109.4 82.8355 109.314C82.9167 109.229 82.9978 109.143 82.9978 109.143C83.0789 109.057 83.0789 108.971 83.1601 108.886C83.2412 108.8 83.2412 108.714 83.2412 108.629C83.2412 108.543 83.3224 108.457 83.3224 108.371C83.3224 108.286 83.4035 108.2 83.4035 108.2L80.9693 102.886H81.5373L83.6469 107.6L85.432 102.886H86L83.8903 108.2C83.7281 108.714 83.4846 109.143 83.2412 109.4C82.9167 109.657 82.5921 109.829 82.2675 109.829C82.0241 109.829 81.6996 109.743 81.375 109.657V109.4V109.4ZM78.1294 101.343H77.6425V103.057H76.9123V103.486H77.6425V105.971V106.057C77.6425 106.314 77.6425 106.571 77.6425 106.657C77.6425 106.829 77.7237 107 77.7237 107.257C77.8048 107.514 77.886 107.771 78.0482 107.857C78.1294 107.943 78.2105 108.029 78.2917 108.029C78.3728 108.114 78.4539 108.114 78.5351 108.2C78.6162 108.2 78.6974 108.286 78.7785 108.286C78.8596 108.286 78.9408 108.286 79.0219 108.286C79.1031 108.286 79.1842 108.286 79.2653 108.286C79.3465 108.286 79.4276 108.286 79.4276 108.286C79.4276 108.286 79.5088 108.286 79.5899 108.286C79.671 108.286 79.671 108.286 79.7522 108.286H79.8333H79.9145V107.857C79.2654 108.114 78.6974 108.029 78.4539 107.686C78.3728 107.6 78.3728 107.514 78.2917 107.429C78.2105 107.343 78.2105 107.257 78.2105 107.171C78.2105 107.086 78.2105 107 78.2105 106.914C78.2105 106.829 78.2105 106.743 78.2105 106.657C78.2105 106.571 78.2105 106.486 78.2105 106.4C78.2105 106.314 78.2105 106.143 78.2105 106.143V106.057V103.571H79.9145V103.143H78.2105V101.343H78.1294ZM75.7763 108.286H75.2895V102.971H75.7763V104V108.286ZM75.2083 102.286H75.8575V101.429H75.2083V102.286ZM74.0724 102.971C73.6667 102.971 73.3421 103.057 72.9364 103.314C72.5307 103.486 72.2061 103.914 71.8816 104.514V104V102.971H71.3947V108.286H71.8816V105.714C71.9627 105.286 72.0439 104.943 72.2061 104.686C72.3684 104.429 72.5307 104.171 72.693 104C72.8553 103.829 73.0175 103.743 73.1798 103.657C73.3421 103.571 73.5044 103.486 73.6667 103.486C73.7478 103.486 73.9101 103.486 73.9912 103.486V102.971H74.0724ZM70.0153 107.514C70.0153 107.686 70.0154 107.857 69.9342 108.114C69.9342 108.371 69.8531 108.543 69.6908 108.8C69.5285 109.057 69.3662 109.229 69.2039 109.4C68.9605 109.571 68.7171 109.743 68.4737 109.829C68.1491 109.914 67.9057 110 67.5811 110C66.932 110 66.2829 109.829 65.5526 109.4L65.7149 108.886C66.1206 109.314 66.6886 109.571 67.5811 109.571C67.8246 109.571 68.068 109.571 68.3114 109.486C68.5548 109.4 68.7171 109.314 68.7982 109.229C68.9605 109.143 69.0417 108.971 69.1228 108.886C69.2039 108.714 69.2851 108.629 69.3662 108.457C69.4474 108.371 69.4474 108.2 69.5285 108.029C69.5285 107.857 69.6096 107.771 69.6096 107.686C69.6096 107.6 69.6096 107.6 69.6096 107.514V106.743C69.5285 106.914 69.4474 107 69.2851 107.171C69.2039 107.343 69.0417 107.429 68.8794 107.6C68.7171 107.771 68.5548 107.857 68.3114 107.943C68.068 108.029 67.8246 108.029 67.5811 108.029C67.3377 108.029 67.0132 107.943 66.7697 107.857C66.5263 107.771 66.2017 107.6 65.9583 107.429C65.7149 107.257 65.4715 107 65.3092 106.657C65.1469 106.314 65.0658 105.971 65.0658 105.629C65.0658 105.2 65.1469 104.857 65.3903 104.429C65.6338 104 65.8772 103.743 66.2017 103.486C66.6075 103.229 67.0132 103.057 67.4189 103.057C67.6623 103.057 67.9057 103.057 68.1491 103.143C68.3925 103.229 68.5548 103.314 68.7171 103.314C68.8794 103.4 68.9605 103.486 69.1228 103.657C69.2851 103.829 69.3662 103.914 69.3662 104C69.3662 104.086 69.4474 104.171 69.5285 104.257V104.343V103.057H70.0153V107.514V107.514ZM69.5285 104.943C69.5285 104.943 69.5285 104.857 69.4474 104.771C69.3662 104.686 69.3662 104.514 69.2851 104.429C69.2039 104.343 69.1228 104.257 69.0417 104.086C68.9605 103.914 68.7982 103.829 68.636 103.743C68.4737 103.657 68.3114 103.571 68.068 103.486C67.8246 103.4 67.5811 103.4 67.3377 103.4C66.932 103.4 66.5263 103.486 66.2017 103.743C65.8772 104 65.7149 104.257 65.5526 104.6C65.4715 104.943 65.3904 105.286 65.4715 105.714C65.5526 106.057 65.6338 106.4 65.8772 106.743C66.2018 107.171 66.6075 107.429 67.0943 107.429C67.5811 107.514 68.068 107.429 68.4737 107.171C68.8794 106.914 69.2039 106.486 69.4474 105.971V105.886V104.943H69.5285ZM61.9013 103.4C61.9824 103.4 62.0636 103.4 62.1447 103.4C62.2259 103.4 62.307 103.486 62.4693 103.486C62.6316 103.571 62.7127 103.657 62.7939 103.743C62.875 103.829 62.9561 104 63.1184 104.171C63.2807 104.343 63.2807 104.514 63.3618 104.771C63.443 105.114 63.5241 105.371 63.5241 105.457H59.8728C59.8728 105.2 59.954 105.029 60.0351 104.771C60.1162 104.514 60.2785 104.257 60.4408 104.086C60.6031 103.914 60.8465 103.743 61.0899 103.571C61.2522 103.4 61.5767 103.4 61.9013 103.4ZM64.011 105.886C64.011 105.457 63.9298 105.029 63.8487 104.686C63.7675 104.343 63.6053 104 63.443 103.829C63.2807 103.657 63.1184 103.4 62.875 103.314C62.7127 103.143 62.4693 103.057 62.307 102.971C62.1447 102.886 61.9825 102.886 61.8202 102.886C61.4145 102.886 61.0899 102.971 60.7653 103.143C60.4408 103.314 60.1974 103.486 59.9539 103.743C59.7105 104 59.5482 104.257 59.386 104.6C59.2237 104.943 59.2237 105.286 59.2237 105.629C59.2237 105.971 59.3048 106.4 59.386 106.657C59.5482 107 59.7105 107.257 59.9539 107.514C60.1974 107.771 60.4408 107.943 60.7653 108.114C61.0899 108.286 61.4145 108.371 61.8202 108.371C62.2259 108.371 62.5504 108.286 62.875 108.114C62.9561 108.114 63.0373 108.029 63.1184 107.943V107.343C62.9561 107.429 62.875 107.514 62.7127 107.6C62.4693 107.686 62.1447 107.771 61.9013 107.771C61.5767 107.771 61.3333 107.686 61.0899 107.6C60.8465 107.514 60.6031 107.343 60.4408 107.086C60.2785 106.829 60.1162 106.657 60.0351 106.314C59.954 106.057 59.8728 105.886 59.8728 105.629H64.011V105.886ZM57.1952 101.343H56.7083V103.057H55.9781V103.486H56.7083V105.971V106.057C56.7083 106.314 56.7083 106.571 56.7083 106.657C56.7083 106.829 56.7895 107 56.7895 107.257C56.8706 107.514 56.9518 107.771 57.114 107.857C57.1952 107.943 57.2763 108.029 57.3575 108.029C57.4386 108.029 57.5197 108.114 57.6009 108.2C57.682 108.2 57.7632 108.286 57.8443 108.286C57.9254 108.286 58.0066 108.286 58.0877 108.286C58.1689 108.286 58.25 108.286 58.3311 108.286C58.4123 108.286 58.4934 108.286 58.4934 108.286C58.5746 108.286 58.5746 108.286 58.6557 108.286C58.7368 108.286 58.7368 108.286 58.818 108.286H58.8991H58.9803V107.857C58.3311 108.114 57.7632 108.029 57.5197 107.686C57.4386 107.6 57.4386 107.514 57.3575 107.429C57.3575 107.343 57.2763 107.257 57.2763 107.171C57.2763 107.086 57.2763 107 57.2763 106.914C57.2763 106.829 57.2763 106.743 57.2763 106.657C57.2763 106.571 57.2763 106.486 57.2763 106.4C57.2763 106.314 57.2763 106.143 57.2763 106.143V106.057V103.571H58.9803V103.143H57.2763V101.343H57.1952ZM51.5154 108.286H51.0285V102.971H51.5154V103.914C51.9211 103.229 52.489 102.886 53.2193 102.886C53.9496 102.886 54.4364 103.057 54.761 103.486C55.0855 103.914 55.3289 104.429 55.3289 105.2V108.286H54.8421V105.371C54.8421 104 54.2741 103.314 53.1382 103.314C52.4079 103.314 51.8399 103.743 51.5154 104.686V108.286ZM49.4868 101H49V108.286H49.4868V101Z" stroke="white" stroke-width="0.4" mask="url(#path-7-outside-1)"/>
</svg>
