<svg width="56" height="56" viewBox="0 0 56 56" fill="none" xmlns="http://www.w3.org/2000/svg">
<g filter="url(#filter0_d)">
<circle cx="28" cy="24" r="24" fill="white"/>
</g>
<path d="M17.3906 25.7719C15.8375 24.1969 14.875 22.0094 14.875 19.625C14.875 14.7906 18.7906 10.875 23.625 10.875C28.4594 10.875 32.375 14.7906 32.375 19.625C32.375 24.4594 28.4594 28.375 23.625 28.375H14.875L17.3906 25.7719Z" fill="white"/>
<path d="M21 29.0312H14.875C14.6125 29.0312 14.3718 28.8781 14.2625 28.6375C14.1531 28.3969 14.2187 28.1125 14.3937 27.9156L16.4718 25.75C15.0281 24.0437 14.2187 21.9 14.2187 19.625C14.2187 14.4406 18.4406 10.2188 23.625 10.2188C27.7593 10.2188 31.3687 12.8656 32.5937 16.8031C32.7031 17.1531 32.5062 17.525 32.1562 17.6344C31.8062 17.7438 31.4343 17.5469 31.325 17.1969C30.275 13.8063 27.1906 11.5312 23.625 11.5312C19.1625 11.5312 15.5312 15.1625 15.5312 19.625C15.5312 21.7688 16.3625 23.7812 17.85 25.3125C18.0906 25.575 18.1125 25.9687 17.85 26.2312L16.4281 27.7188H21C21.3718 27.7188 21.6562 28.0031 21.6562 28.375C21.6562 28.7469 21.3718 29.0312 21 29.0312Z" fill="#BF2828"/>
<path d="M38.6094 34.5219C40.1625 32.9469 41.125 30.7812 41.125 28.375C41.125 23.5406 37.2094 19.625 32.375 19.625C27.5406 19.625 23.625 23.5406 23.625 28.375C23.625 33.2094 27.5406 37.125 32.375 37.125H41.125L38.6094 34.5219Z" fill="white"/>
<path d="M41.125 37.7812H32.375C27.1906 37.7812 22.9688 33.5594 22.9688 28.375C22.9688 23.1906 27.1906 18.9688 32.375 18.9688C37.5594 18.9688 41.7812 23.1906 41.7812 28.375C41.7812 30.65 40.9719 32.7937 39.5062 34.5L41.5844 36.6656C41.7594 36.8625 41.825 37.125 41.7156 37.3875C41.6281 37.6281 41.3875 37.7812 41.125 37.7812ZM32.375 20.2812C27.9125 20.2812 24.2812 23.9125 24.2812 28.375C24.2812 32.8375 27.9125 36.4688 32.375 36.4688H39.5719L38.1281 34.9812C37.8875 34.7187 37.8875 34.325 38.1281 34.0625C39.6375 32.5312 40.4469 30.5188 40.4469 28.375C40.4688 23.9125 36.8375 20.2812 32.375 20.2812Z" fill="#444B54"/>
<path d="M35.6562 27.5H29.0937C28.7219 27.5 28.4375 27.2156 28.4375 26.8438C28.4375 26.4719 28.7219 26.1875 29.0937 26.1875H35.6562C36.0281 26.1875 36.3125 26.4719 36.3125 26.8438C36.3125 27.2156 36.0281 27.5 35.6562 27.5Z" fill="#444B54"/>
<path d="M32.375 30.7812H29.0938C28.7219 30.7812 28.4375 30.4969 28.4375 30.125C28.4375 29.7531 28.7219 29.4688 29.0938 29.4688H32.375C32.7469 29.4688 33.0313 29.7531 33.0313 30.125C33.0313 30.4969 32.7469 30.7812 32.375 30.7812Z" fill="#444B54"/>
<path d="M35.6562 30.7813C35.4812 30.7813 35.3063 30.7156 35.1969 30.5844C35.0656 30.475 35 30.3 35 30.125C35 30.0813 35 30.0375 35.0219 29.9938C35.0219 29.95 35.0438 29.9063 35.0656 29.8625C35.0875 29.8188 35.1094 29.7969 35.1312 29.7531C35.1531 29.7094 35.175 29.6875 35.2187 29.6438C35.3719 29.4906 35.5906 29.425 35.8094 29.4687C35.8531 29.4687 35.8969 29.4906 35.9406 29.5125C35.9844 29.5344 36.0281 29.5562 36.05 29.5781C36.0938 29.6 36.1156 29.6219 36.1375 29.6656C36.1594 29.6875 36.2031 29.7313 36.225 29.775C36.2469 29.8188 36.2687 29.8406 36.2906 29.8844C36.3125 29.9281 36.3125 29.9719 36.3344 30.0156C36.3344 30.0594 36.3562 30.1031 36.3562 30.1469C36.3562 30.3219 36.2906 30.4969 36.1594 30.6062C36.1375 30.6281 36.0937 30.6719 36.0719 30.6938C36.0281 30.7156 36.0062 30.7375 35.9625 30.7594C35.9188 30.7813 35.875 30.7813 35.8313 30.8031C35.7438 30.7813 35.7 30.7813 35.6562 30.7813Z" fill="#444B54"/>
<defs>
<filter id="filter0_d" x="0" y="0" width="56" height="56" filterUnits="userSpaceOnUse" color-interpolation-filters="sRGB">
<feFlood flood-opacity="0" result="BackgroundImageFix"/>
<feColorMatrix in="SourceAlpha" type="matrix" values="0 0 0 0 0 0 0 0 0 0 0 0 0 0 0 0 0 0 127 0"/>
<feOffset dy="4"/>
<feGaussianBlur stdDeviation="2"/>
<feColorMatrix type="matrix" values="0 0 0 0 0 0 0 0 0 0 0 0 0 0 0 0 0 0 0.15 0"/>
<feBlend mode="normal" in2="BackgroundImageFix" result="effect1_dropShadow"/>
<feBlend mode="normal" in="SourceGraphic" in2="effect1_dropShadow" result="shape"/>
</filter>
</defs>
</svg>
