<svg xmlns="http://www.w3.org/2000/svg" width="43" height="80" viewBox="0 0 43 80" fill="none"><path d="M41.753 79.2838C41.753 79.3163 41.753 79.3814 41.7205 79.414C41.7205 79.414 41.7205 79.4465 41.6879 79.4465C41.6879 79.4465 41.6879 79.4791 41.6553 79.4791C41.6553 79.4791 41.6553 79.4791 41.6228 79.5116L41.5902 79.5442L41.5577 79.5767C41.5252 79.5767 41.5252 79.6093 41.4926 79.6093C41.4601 79.6093 41.4275 79.6418 41.395 79.6418C41.3624 79.6744 41.2973 79.7069 41.2322 79.7069C41.1997 79.7069 41.1671 79.7395 41.1671 79.7395C40.9067 79.8371 40.5812 79.9022 40.1906 79.9673C40.1255 79.9673 40.0604 79.9673 39.9953 79.9998C39.9302 79.9998 39.8977 79.9998 39.8326 79.9998C39.7675 79.9998 39.7349 79.9998 39.6698 79.9998C39.6373 79.9998 39.6047 79.9998 39.5396 79.9998C39.4094 79.9998 39.3118 79.9998 39.1816 79.9998C37.7494 79.9998 36.5776 79.6744 36.5776 79.2512C37.5215 71.1789 38.4655 48.9474 36.6752 43.4465C35.7313 40.5496 31.4673 33.6816 23.1671 36.2856C22.7114 36.4158 24.4366 29.6455 25.4781 24.7955C26.3244 20.857 27.2358 18.5135 27.3335 18.7413C29.3516 25.414 33.4528 25.0885 38.3353 32.5098C44.4872 41.9493 41.8506 75.3127 41.753 79.2838Z" fill="#FFBE40"></path><path d="M41.7526 79.2838C41.7526 79.3163 41.7526 79.3814 41.72 79.414C41.72 79.414 41.72 79.4465 41.6875 79.4465C41.6875 79.4465 41.6875 79.4791 41.6549 79.4791C41.6549 79.4791 41.6549 79.4791 41.6224 79.5116L41.5898 79.5442L41.5573 79.5767C41.5247 79.5767 41.5247 79.6093 41.4922 79.6093C41.4596 79.6093 41.4271 79.6418 41.3945 79.6418C41.362 79.6744 41.2969 79.7069 41.2318 79.7069C41.1992 79.7069 41.1667 79.7395 41.1667 79.7395C40.9063 79.8371 40.5808 79.9022 40.1902 79.9673C40.1251 79.9673 40.06 79.9673 39.9949 79.9998C39.9298 79.9998 39.8972 79.9998 39.8321 79.9998C39.767 79.9998 39.7345 79.9998 39.6694 79.9998C39.6368 79.9998 39.6043 79.9998 39.5392 79.9998C39.767 75.1499 42.2083 43.3814 36.1866 34.2024C33.7128 30.4266 28.9605 26.9764 25.5103 24.7955C26.3565 20.857 27.2679 18.5135 27.3656 18.7413C29.3837 25.414 33.4849 25.0885 38.3674 32.5098C44.4867 41.9493 41.8502 75.3127 41.7526 79.2838Z" fill="#FFA717"></path><path d="M27.7891 22.68C28.1796 23.7216 28.5051 24.6004 28.5051 25.7071C28.5051 26.7812 28.3424 27.8228 27.9844 28.8319C27.724 29.5805 27.3334 30.2966 27.3334 31.1103C27.3334 32.4449 27.6914 33.519 27.2032 34.821C26.7475 36.0253 27.3659 36.123 28.3098 36.6112C31.0766 37.9783 33.0947 40.7451 33.3876 43.8373C33.4853 44.8463 33.5178 45.8228 33.7457 46.7993C33.9735 47.7432 34.2339 48.557 34.0712 49.5335C33.9735 50.1194 33.6154 50.6402 33.4852 51.2261C33.3876 51.7143 33.4852 52.1375 33.3225 52.6582C32.997 53.6022 32.4762 54.481 31.7927 55.1971C31.1417 55.8807 30.1977 56.1736 29.6118 56.9548C28.7655 58.0941 27.8542 58.6474 26.5522 59.2008C26.0314 59.4286 25.7384 59.8517 25.2827 60.1447C24.7945 60.4376 24.2086 60.5678 23.6552 60.6004C22.6787 60.6655 21.7674 60.34 20.8234 60.3074C19.5865 60.2749 18.4798 60.7957 17.2755 60.9259C16.1688 61.0561 14.8343 60.4376 13.9554 59.8192C12.9789 59.1031 12.0024 58.4196 10.9934 57.7686C10.082 57.1827 8.91022 56.9548 8.32433 56.0109C7.83608 55.2297 7.77098 54.5787 6.98979 53.9928C5.59015 52.9187 4.58111 51.6818 4.02776 49.9892C3.70227 49.0127 3.47442 48.0687 2.79088 47.255C2.17243 46.5389 1.84694 45.6926 1.61909 44.7812C1.29359 43.5769 0.935544 42.3725 0.740246 41.1357C0.577497 40.2243 1.03319 39.3129 0.837896 38.3364C0.642598 37.3924 0.252 36.481 0.0892518 35.5371C-0.106047 34.3653 0.0567001 33.161 0.219449 32.0217C0.382197 30.9476 0.414749 29.906 0.414749 28.8319C0.414749 27.7577 0.968092 26.8138 0.870443 25.6745C0.805343 24.7957 0.512398 23.8843 0.902994 23.1031C1.19594 22.5498 1.71674 22.1266 1.94458 21.5407C2.23753 20.7595 2.20498 19.9132 2.40028 19.0995C2.53048 18.5136 2.88853 18.0254 2.95363 17.4069C3.01873 16.821 2.95363 16.3002 3.34422 15.8445C3.66972 15.4539 4.12542 15.2261 4.48346 14.868C5.6878 13.6312 5.5576 11.5805 6.63174 10.2134C7.34783 9.30204 8.06393 8.45575 8.91022 7.7071C9.43102 7.25141 9.36592 6.76316 9.65886 6.17726C10.1471 5.16822 11.1887 4.84273 12.1326 4.48468C13.044 4.15919 13.695 3.37799 14.4437 2.79209C15.6806 1.84815 17.2104 1.6203 18.5775 1.00186C22.2882 -0.658176 26.6498 -0.00718129 30.393 1.16461C31.5648 1.52266 32.7366 1.88071 33.7782 2.5317C34.9174 3.21524 35.308 4.12664 36.0241 5.13568C36.7728 6.24237 37.554 7.15376 37.9771 8.48829C38.4328 9.92048 38.4979 11.7107 37.8144 13.0453C37.4563 13.6962 37.2285 14.4449 37.0983 15.161C36.9681 15.8771 37.1634 16.7234 36.9681 17.4069C36.6426 18.6113 35.4382 19.783 34.3966 20.4015C33.648 20.8572 32.7366 20.9548 31.8903 21.2803C31.1417 21.5733 30.5232 22.1917 29.7746 22.4521C29.2212 22.6474 28.4726 22.5172 27.7891 22.68Z" fill="#B32D2E"></path><path d="M37.9119 13.0453C37.5538 13.6963 37.326 14.4124 37.1958 15.1611C37.0656 15.8772 37.2609 16.7234 37.0656 17.407C36.7401 18.6113 35.5357 19.7831 34.4941 20.4016C33.7129 20.8573 32.8341 20.9549 31.9878 21.2804C31.2392 21.5734 30.6207 22.1918 29.8721 22.4522C29.1885 22.68 28.4073 22.5173 27.7564 22.7126C28.1469 23.7542 28.4724 24.633 28.4724 25.7397C28.4724 26.8139 28.3097 27.8555 27.9516 28.8645C27.6912 29.6131 27.3007 30.3292 27.3007 31.143C27.3007 32.4775 27.6587 33.5517 27.1705 34.8536C26.7148 36.058 27.3332 36.1556 28.2771 36.6439C31.0439 38.011 33.062 40.7777 33.3549 43.8699C33.4526 44.8789 33.4851 45.8554 33.7129 46.8319C33.9408 47.7759 34.2012 48.5896 34.0384 49.5661C33.9408 50.152 33.5827 50.6728 33.4525 51.2587C33.3549 51.7469 33.4525 52.1701 33.2898 52.6909C32.9643 53.6348 32.4435 54.5137 31.76 55.2298C31.109 55.9133 30.165 56.2063 29.5791 56.9874C28.7328 58.1267 27.8215 58.68 26.5195 59.2334C25.9987 59.4612 25.7057 59.8844 25.25 60.1773C24.7618 60.4703 24.1759 60.6005 23.6225 60.633C22.646 60.6981 21.7347 60.3726 20.7907 60.3401C19.5538 60.3075 18.4471 60.8283 17.2428 60.9585C16.2989 61.0561 15.2247 60.6656 14.3784 60.1448C14.411 60.1448 14.4435 60.1448 14.4761 60.1448C15.6479 60.0146 16.7545 59.4938 18.024 59.5263C18.9679 59.5589 19.8793 59.8844 20.8558 59.8193C21.4092 59.7867 22.0276 59.6565 22.4833 59.3636C22.939 59.0706 23.2319 58.6475 23.7527 58.4196C25.0547 57.8337 25.9661 57.3129 26.8124 56.1737C27.3983 55.3925 28.3422 55.0996 28.9932 54.416C29.6768 53.6999 30.1976 52.8211 30.5231 51.8771C30.6858 51.3889 30.5882 50.9332 30.6858 50.4449C30.816 49.8591 31.1415 49.3383 31.2717 48.7524C31.467 47.7759 31.1741 46.9296 30.9462 46.0182C30.6858 45.0417 30.6533 44.0652 30.5882 43.0562C30.3278 39.9639 28.2771 37.1972 25.5104 35.8301C24.5665 35.3744 23.9806 35.2442 24.4037 34.0399C24.892 32.7054 24.5339 31.6312 24.5339 30.3292C24.5339 29.548 24.892 28.7994 25.1849 28.0508C25.543 27.0417 25.7383 26.0001 25.7057 24.926C25.7057 23.7867 25.3802 22.9404 24.9896 21.8989C25.6732 21.7361 26.4218 21.8663 27.1054 21.6385C27.854 21.3781 28.4399 20.7596 29.2211 20.4667C30.0674 20.1737 30.9788 20.0435 31.7274 19.5878C32.7365 18.9694 33.9733 17.7976 34.2988 16.5932C34.4941 15.9097 34.2988 15.096 34.429 14.3473C34.5592 13.5987 34.7871 12.8826 35.1451 12.2316C35.8287 10.8971 35.7636 9.13937 35.3079 7.67463C34.8847 6.34009 34.1035 5.42871 33.3549 4.32202C32.6388 3.28042 32.2482 2.40158 31.109 1.71804C30.4905 1.32744 29.807 1.03449 29.0909 0.806641C29.5791 0.936839 30.0348 1.06704 30.5231 1.19724C31.6949 1.55529 32.8667 1.91334 33.9083 2.56433C35.0475 3.24788 35.4381 4.15927 36.1542 5.16831C36.9028 6.275 37.684 7.18639 38.1072 8.52093C38.5629 9.92056 38.628 11.7108 37.9119 13.0453Z" fill="#992627"></path><path d="M16.2013 17.1465C16.8523 18.0579 17.6661 18.8391 18.5124 19.5226C19.3912 20.2062 20.3351 20.7921 21.3442 21.2152C21.6046 21.3128 21.865 21.4105 22.0928 21.5081C22.3532 21.6058 22.6136 21.6709 22.874 21.736C23.3948 21.8987 23.9156 21.9964 24.469 22.1266C24.7294 22.1917 24.9897 22.2568 25.2827 22.2893C25.4129 22.3219 25.5431 22.3544 25.6733 22.3544C25.8035 22.387 25.9337 22.387 26.0964 22.4195L26.2917 22.4521L26.487 22.4846L26.9102 22.5497C27.1706 22.5823 27.4635 22.6148 27.7565 22.6474V22.7125C27.4635 22.7776 27.2031 22.8101 26.9102 22.8427C26.6172 22.8752 26.3568 22.9078 26.0639 22.8752C25.9337 22.8752 25.7709 22.8752 25.6407 22.8752C25.5105 22.8752 25.3478 22.8752 25.2176 22.8427C24.9247 22.8427 24.6643 22.7776 24.3713 22.745C24.0784 22.7125 23.818 22.6474 23.525 22.5823L23.1019 22.4521C22.9717 22.4195 22.8415 22.3544 22.6787 22.3219C22.1254 22.1266 21.6046 21.8987 21.1163 21.6383C20.1073 21.1175 19.1634 20.4991 18.2845 19.7505C17.8614 19.3599 17.4708 18.9693 17.1127 18.5461C16.7547 18.123 16.3966 17.6673 16.1362 17.179L16.2013 17.1465Z" fill="#992627"></path><path d="M15.5179 43.3492C16.6246 42.9912 17.6987 42.568 18.7403 42.0798C19.7819 41.6241 20.8235 41.1033 21.8 40.4849C22.0604 40.3221 22.2882 40.1919 22.5161 40.0292C22.7439 39.8664 22.9718 39.7037 23.1996 39.5409C23.6553 39.2154 24.111 38.8574 24.5667 38.4993L24.7295 38.3691L24.8922 38.2389C24.9899 38.1413 25.1201 38.0436 25.2177 37.946L25.5432 37.653C25.6409 37.5554 25.7385 37.4577 25.8362 37.3601C26.2268 36.9695 26.6173 36.5464 26.9754 36.0581L27.0405 36.0907C26.8452 36.644 26.5197 37.1648 26.1617 37.6205C25.8036 38.1087 25.3805 38.5319 24.9573 38.9225C24.0785 39.7362 23.0369 40.3221 22.0278 40.8755C20.9862 41.4288 19.9121 41.8845 18.838 42.3076C18.2846 42.5029 17.7313 42.6982 17.1779 42.861C16.6246 43.0237 16.0712 43.1865 15.4854 43.3167L15.5179 43.3492Z" fill="#992627"></path><path d="M6.33885 35.2115C6.1761 35.2115 6.0459 35.0813 6.01335 34.9185C5.81805 33.1609 4.19057 31.7612 3.40938 31.5334C3.24663 31.4683 3.14898 31.3055 3.18153 31.1428C3.24663 30.98 3.40938 30.8824 3.57213 30.9149C4.54862 31.2079 6.40395 32.7703 6.6318 34.8534C6.66435 35.0162 6.53415 35.1789 6.33885 35.2115C6.33885 35.2115 6.3714 35.2115 6.33885 35.2115Z" fill="#992627"></path><path d="M5.65492 33.356C5.58982 33.356 5.52472 33.3235 5.49217 33.2909C5.32943 33.1933 5.29688 32.998 5.39453 32.8352C6.33847 31.3705 8.0636 31.7611 8.7146 32.1842C8.87735 32.2819 8.9099 32.4772 8.81225 32.6399C8.7146 32.8027 8.5193 32.8352 8.35655 32.7376C7.96595 32.4772 6.63141 32.1191 5.91532 33.1933C5.85022 33.3235 5.75257 33.356 5.65492 33.356Z" fill="#992627"></path><path d="M11.0587 28.767C10.8959 28.767 10.7332 28.6368 10.7332 28.4741C10.7332 28.2788 10.8634 28.1486 11.0261 28.116C11.6771 28.0835 13.6301 27.1721 14.1509 25.3493C14.216 25.1866 14.3787 25.0889 14.5415 25.1215C14.7042 25.1866 14.8019 25.3493 14.7693 25.5121C14.1834 27.5627 12.0677 28.7019 11.0587 28.767Z" fill="#992627"></path><path d="M15.1596 30.5895C15.1596 30.5895 15.127 30.5895 15.1596 30.5895C14.476 30.5244 12.9788 29.9385 12.2301 27.9855C12.165 27.8228 12.2627 27.6275 12.4254 27.5624C12.5882 27.4973 12.7835 27.5949 12.8486 27.7577C13.4344 29.2875 14.5737 29.906 15.1921 29.9385C15.3874 29.9385 15.5176 30.1013 15.4851 30.2966C15.4525 30.4593 15.3223 30.5895 15.1596 30.5895Z" fill="#992627"></path><path d="M28.7656 46.2787C27.9193 46.2787 26.7801 45.9207 26.1617 44.6512C26.0966 44.4885 26.1617 44.2932 26.3244 44.2281C26.4872 44.163 26.6825 44.2281 26.7476 44.3908C27.4637 45.9207 29.0586 45.6277 29.1237 45.6277C29.2864 45.5952 29.4817 45.7254 29.5143 45.8881C29.5468 46.0508 29.4166 46.2461 29.2539 46.2787C29.1237 46.2461 28.9609 46.2787 28.7656 46.2787Z" fill="#992627"></path><path d="M22.353 49.045C22.3205 49.045 22.2879 49.045 22.2879 49.045C22.1252 49.0124 21.995 48.8171 22.0601 48.6544C22.1252 48.4591 22.6134 46.6363 24.1433 45.9527C24.1758 45.9527 26.5845 44.7158 27.1053 42.6327C27.1378 42.4699 27.3331 42.3397 27.4959 42.4048C27.6586 42.4374 27.7888 42.6327 27.7237 42.7954C27.1378 45.2041 24.4362 46.5386 24.4037 46.5386C23.1342 47.092 22.7111 48.752 22.7111 48.8171C22.646 48.9473 22.5158 49.045 22.353 49.045Z" fill="#992627"></path><path d="M22.7767 31.1103C22.679 31.1103 22.5814 31.0777 22.5163 30.9801C22.4837 30.9475 21.6049 29.8083 20.4657 30.3291C20.3029 30.3942 20.1076 30.3291 20.0425 30.1663C19.9774 30.0036 20.0425 29.8083 20.2053 29.7432C21.5073 29.1573 22.6139 30.0036 23.0696 30.5895C23.1673 30.7197 23.1673 30.9475 23.0045 31.0452C22.9069 31.0777 22.8418 31.1103 22.7767 31.1103Z" fill="#992627"></path><path d="M20.0747 32.0867C20.0422 32.0867 20.0096 32.0867 19.9445 32.0542C19.7818 31.9891 19.6841 31.7938 19.7492 31.631C20.3351 30.1663 19.619 28.1157 19.3912 27.6925C18.7076 26.3254 19.2935 24.8281 19.3586 24.6654C19.4237 24.5026 19.619 24.405 19.7818 24.4701C19.9445 24.5352 20.0422 24.7305 19.9771 24.8932C19.9445 24.9583 19.4563 26.2603 20.0096 27.3996C20.0096 27.4321 21.1489 29.9384 20.3677 31.8914C20.3026 31.9891 20.2049 32.0867 20.0747 32.0867Z" fill="#992627"></path><path d="M24.2738 46.5714C24.2412 46.5714 24.2087 46.5714 24.1761 46.5389C22.451 45.9204 21.8651 44.0977 21.7675 43.7396C21.7349 43.5769 21.8326 43.3816 21.9953 43.349C22.1581 43.3165 22.3534 43.4141 22.3859 43.5769C22.451 43.7722 22.9393 45.4322 24.3714 45.953C24.5342 46.0181 24.6318 46.2134 24.5667 46.3761C24.5342 46.4738 24.404 46.5714 24.2738 46.5714Z" fill="#992627"></path><path d="M18.6427 9.8553C17.894 9.8553 16.9826 9.62745 16.2991 8.78116C16.2014 8.65096 16.2014 8.42311 16.3316 8.32546C16.4618 8.22781 16.6897 8.22782 16.7873 8.35802C17.7313 9.52981 19.3262 9.13921 19.489 9.04156C19.6517 8.94391 19.847 9.00901 19.9121 9.17176C20.0098 9.33451 19.9447 9.5298 19.7819 9.5949C19.6192 9.75765 19.1635 9.8553 18.6427 9.8553Z" fill="#992627"></path><path d="M13.1093 14.2171C13.0768 14.2171 13.0768 14.2171 13.0442 14.2171C12.8815 14.1845 12.7513 14.0218 12.7838 13.859C12.8164 13.6312 13.207 11.4829 14.7368 10.2135C15.2251 9.79033 17.3408 7.60949 17.6988 5.36356C17.7314 5.20081 17.8941 5.07062 18.0569 5.10317C18.2196 5.13572 18.3498 5.29847 18.3173 5.46121C17.8941 8.26049 15.16 10.6692 15.1274 10.7017C13.7929 11.8084 13.4348 13.7288 13.4023 13.9567C13.4023 14.0869 13.2721 14.2171 13.1093 14.2171Z" fill="#992627"></path><path d="M8.97569 48.1662C8.84549 48.1662 8.71529 48.0685 8.68274 47.9383C8.68274 47.9058 8.6502 47.8733 8.6502 47.8082C7.41331 44.6183 8.35724 42.5351 9.39883 41.3308C9.52903 41.2006 9.72433 41.168 9.85453 41.2982C9.98473 41.4284 10.0173 41.6237 9.88708 41.7539C8.55254 43.2837 8.35724 45.2693 9.23609 47.5803C9.26864 47.6454 9.26864 47.7105 9.30119 47.7431C9.36629 47.9058 9.26864 48.1011 9.10589 48.1662C9.04079 48.1662 9.00824 48.1662 8.97569 48.1662Z" fill="#992627"></path><path d="M8.5523 43.9024C8.38956 43.9024 8.25936 43.7722 8.22681 43.642C8.22681 43.6094 7.70601 40.4195 5.55773 39.5407C5.39498 39.4756 5.29733 39.2803 5.36243 39.1175C5.42753 38.9548 5.62283 38.8571 5.78558 38.9222C8.25936 39.9313 8.8127 43.3816 8.84525 43.5118C8.8778 43.6745 8.7476 43.8698 8.58485 43.8698L8.5523 43.9024Z" fill="#992627"></path><path d="M20.6281 58.4196C20.5956 58.4196 20.5305 58.4196 20.4979 58.387C20.3352 58.3219 20.2701 58.1266 20.3352 57.9639C20.5956 57.378 21.8325 54.3834 19.0657 52.3002C18.9355 52.2026 18.903 51.9747 19.0006 51.8445C19.0983 51.7143 19.3261 51.6818 19.4563 51.7794C22.6462 54.1556 21.2466 57.5733 20.9211 58.2243C20.856 58.3545 20.7583 58.4196 20.6281 58.4196Z" fill="#992627"></path><path d="M20.9208 54.6114C20.8557 54.6114 20.7581 54.5789 20.7255 54.5463C20.5953 54.4161 20.5628 54.2208 20.693 54.0906C22.0926 52.398 23.5248 52.5933 23.5899 52.6259C23.7527 52.6584 23.8829 52.8212 23.8503 52.9839C23.8178 53.1467 23.655 53.2769 23.4923 53.2443C23.4272 53.2443 22.353 53.1141 21.1812 54.4812C21.1161 54.5789 21.0185 54.6114 20.9208 54.6114Z" fill="#992627"></path><path d="M18.9354 38.9548C17.2102 38.9548 15.7455 37.9458 15.062 37.3924C14.9318 37.2948 14.8992 37.0669 15.0294 36.9367C15.1271 36.8065 15.3549 36.774 15.4851 36.9042C16.2989 37.5552 18.4146 38.9874 20.4978 37.9783C20.6605 37.9132 20.8558 37.9783 20.9209 38.1411C20.986 38.3038 20.9209 38.4991 20.7582 38.5642C20.1397 38.8246 19.5213 38.9548 18.9354 38.9548Z" fill="#992627"></path><path d="M14.8672 42.0472C14.737 42.0472 14.6394 41.9821 14.5743 41.8519C14.5092 41.6892 14.5743 41.4939 14.737 41.4288C14.7696 41.4288 17.0155 40.3546 17.3735 38.4016C17.4061 38.2389 17.5688 38.1087 17.7641 38.1413C17.9269 38.1738 18.0571 38.3366 18.0245 38.5319C17.6014 40.8429 15.1276 42.0147 14.9974 42.0472C14.9649 42.0472 14.9323 42.0472 14.8672 42.0472Z" fill="#992627"></path><path d="M9.75665 54.7412C9.56135 54.7412 9.43115 54.5785 9.43115 54.4157C9.43115 54.253 9.5939 54.0902 9.75665 54.0902C9.95195 54.0902 12.3606 54.0577 12.8814 52.0721C12.914 51.9094 13.1093 51.7792 13.272 51.8443C13.4348 51.8768 13.565 52.0721 13.4999 52.2349C12.8814 54.7086 9.8543 54.7412 9.75665 54.7412Z" fill="#992627"></path><path d="M14.0855 56.1737C14.0204 56.1737 13.9553 56.1412 13.8902 56.1086C13.0765 55.4251 12.5882 54.3835 12.458 53.1791C12.458 52.9838 12.5882 52.8536 12.751 52.8211C12.9137 52.7885 13.0765 52.9513 13.109 53.114C13.2067 54.1556 13.6298 55.0345 14.3133 55.6204C14.4435 55.7506 14.4761 55.9459 14.3459 56.0761C14.2808 56.1412 14.1831 56.1737 14.0855 56.1737Z" fill="#992627"></path><path d="M27.1705 8.91142C27.1054 8.91142 27.0403 8.87886 26.9752 8.84631C26.8124 8.74866 26.7799 8.55337 26.8775 8.39062C26.8775 8.35807 27.9842 6.50273 26.3893 5.07055C26.2591 4.94035 26.2591 4.74505 26.3567 4.61485C26.4869 4.48465 26.6822 4.48465 26.8124 4.5823C28.5375 6.17724 27.7238 8.26042 27.3983 8.74867C27.3658 8.84632 27.2681 8.91142 27.1705 8.91142Z" fill="#992627"></path><path d="M29.8398 8.42322C29.7422 8.42322 29.6445 8.39066 29.5794 8.29301C29.5469 8.26046 28.7331 7.34907 27.5613 7.31652C27.366 7.31652 27.2358 7.15377 27.2358 6.99102C27.2358 6.79573 27.3986 6.66553 27.5613 6.66553C29.0261 6.69808 30.0026 7.83732 30.0351 7.86987C30.1653 8.00007 30.1328 8.22792 30.0026 8.32556C30.0026 8.39066 29.9049 8.42322 29.8398 8.42322Z" fill="#992627"></path><path d="M8.61718 23.559C8.51953 23.559 8.42188 23.5264 8.35678 23.4287C7.80343 22.7452 7.21754 22.4197 6.66419 22.3872C6.04575 22.3546 5.65515 22.7452 5.65515 22.7778C5.52495 22.908 5.32965 22.908 5.19946 22.7778C5.06926 22.6476 5.06926 22.4523 5.19946 22.3221C5.23201 22.2895 5.78535 21.7036 6.69674 21.7362C7.44539 21.7687 8.19403 22.1919 8.87757 23.0056C9.00777 23.1358 8.97522 23.3637 8.84502 23.4613C8.77992 23.5264 8.68227 23.559 8.61718 23.559Z" fill="#992627"></path><path d="M7.93355 22.9081C7.86845 22.9081 7.8359 22.9081 7.7708 22.8755C7.60806 22.7779 7.54296 22.5826 7.64061 22.4198C8.58455 20.7598 7.93355 19.0672 7.93355 19.0672C7.86845 18.9044 7.93355 18.7091 8.12885 18.644C8.2916 18.5789 8.4869 18.644 8.552 18.8393C8.58455 18.9044 9.33319 20.8249 8.2265 22.7778C8.12885 22.8429 8.0312 22.9081 7.93355 22.9081Z" fill="#992627"></path><path d="M25.9664 18.7087C25.9339 18.7087 25.9013 18.7087 25.8688 18.6762C25.706 18.6111 25.6084 18.4483 25.6735 18.253C25.706 18.1554 26.4872 15.942 28.1798 15.7467C28.3425 15.7141 28.5053 15.8443 28.5378 16.0396C28.5704 16.2024 28.4402 16.3651 28.2449 16.3977C26.9429 16.5279 26.2919 18.4483 26.2594 18.4809C26.2268 18.6111 26.0966 18.7087 25.9664 18.7087Z" fill="#992627"></path><path d="M27.5283 16.6257C27.4958 16.6257 27.4632 16.6257 27.4307 16.6257C25.8032 16.17 24.6314 14.4774 24.5989 14.3798C24.5012 14.217 24.5338 14.0217 24.6965 13.9241C24.8593 13.8264 25.0546 13.859 25.1522 14.0217C25.1522 14.0217 26.2589 15.5841 27.626 16.0072C27.7887 16.0723 27.8864 16.2351 27.8538 16.3978C27.7887 16.5606 27.6585 16.6257 27.5283 16.6257Z" fill="#992627"></path><path d="M6.17621 44.2279C6.14366 43.3816 5.75306 42.6004 5.00442 42.698C4.12557 42.6004 3.11653 43.349 3.08398 44.2279C3.08398 45.0742 4.09302 45.3346 5.00442 45.2695C5.68796 45.302 6.07856 45.0416 6.17621 44.2279Z" fill="#992627"></path><path d="M15.5499 19.0672C15.4522 18.3186 14.5408 17.2445 13.662 17.2119C12.9134 17.277 12.1322 18.2535 12.0996 19.0347C12.0996 19.9786 12.9134 20.5971 13.7596 20.6947C14.4757 20.6296 15.4197 19.8159 15.5499 19.0672Z" fill="#992627"></path><path d="M19.1636 44.8465C18.8056 44.2932 18.4801 44.0653 17.8942 44.3257C17.406 44.6512 16.8526 45.172 17.1781 45.7905C17.406 46.2462 18.1546 46.4089 18.7079 46.2136C19.2938 45.9207 19.2938 45.4324 19.1636 44.8465Z" fill="#992627"></path><path d="M17.4059 27.4976C17.3082 26.8466 17.1129 26.4885 16.4619 26.5211C15.876 26.6187 15.1599 26.8791 15.1925 27.5627C15.225 28.0509 15.8109 28.5392 16.3968 28.5717C17.0804 28.5392 17.3082 28.116 17.4059 27.4976Z" fill="#992627"></path><path d="M23.9159 17.7324C23.8182 17.0814 23.6229 16.7234 22.9719 16.7559C22.386 16.8536 21.6699 17.114 21.7025 17.7975C21.735 18.2858 22.3209 18.774 22.9068 18.8066C23.5904 18.774 23.8182 18.3509 23.9159 17.7324Z" fill="#992627"></path><path d="M12.523 31.9893C12.4254 31.3383 12.2301 30.9802 11.5791 31.0128C10.9932 31.1104 10.2771 31.3708 10.3097 32.0544C10.3422 32.5426 10.9281 33.0309 11.514 33.0634C12.1975 32.9983 12.4254 32.6077 12.523 31.9893Z" fill="#992627"></path><path d="M31.8902 17.8301C31.7926 17.1791 31.5973 16.8211 30.9463 16.8536C30.3604 16.9513 29.6443 17.2116 29.6769 17.8952C29.7094 18.3834 30.2953 18.8717 30.8812 18.9042C31.5647 18.8717 31.76 18.4485 31.8902 17.8301Z" fill="#992627"></path><path d="M17.4381 21.4434C17.3404 20.7924 17.1451 20.4343 16.4941 20.4669C15.9082 20.5645 15.1922 20.8249 15.2247 21.5085C15.2573 21.9967 15.8431 22.485 16.429 22.5175C17.1126 22.4524 17.3079 22.0618 17.4381 21.4434Z" fill="#992627"></path><path d="M12.7837 24.5681C12.7511 23.9497 12.1001 23.5916 11.4817 23.6893C10.8958 23.6893 10.5052 24.0148 10.4727 24.5681C10.5052 25.2517 10.9284 25.6097 11.5142 25.5772C12.1327 25.5121 12.7837 25.1866 12.7837 24.5681Z" fill="#992627"></path><path d="M10.4072 51.812C10.7002 51.1936 10.6351 50.3798 10.1143 50.1194C9.49581 49.9567 8.87737 50.5426 8.64952 51.0959C8.48677 51.6493 8.61697 52.1375 9.26796 52.463C9.78876 52.5932 10.2119 52.3654 10.4072 51.812Z" fill="#992627"></path><path d="M12.7187 44.358C12.7187 43.8698 11.9701 43.4141 11.3191 43.4792C10.6681 43.4141 10.1473 43.8047 10.1147 44.5208C10.1798 45.009 10.7332 45.3996 11.254 45.302C11.9701 45.2369 12.7838 44.9765 12.7187 44.358Z" fill="#992627"></path><path d="M23.1022 35.9601C23.1022 35.4718 22.4838 35.0161 21.9955 35.0812C21.4747 35.0161 21.0516 35.4067 21.019 36.1228C21.0516 36.6111 21.5073 37.0017 21.9304 36.904C22.4838 36.8389 23.1348 36.5785 23.1022 35.9601Z" fill="#992627"></path><path d="M26.227 41.2336C25.9341 40.843 25.0552 40.9081 24.567 41.2987C23.9811 41.5917 23.7858 42.2427 24.1438 42.8286C24.4693 43.2192 25.1529 43.1866 25.5435 42.8286C26.0968 42.3729 26.6176 41.6893 26.227 41.2336Z" fill="#992627"></path><path d="M5.9809 17.8952C5.39501 17.765 5.03696 18.3509 4.84166 19.0344C4.77656 19.6203 5.00441 19.9133 5.52521 20.1411C6.1111 20.2062 6.40405 19.9784 6.53425 19.4576C6.697 18.7415 6.59934 18.0905 5.9809 17.8952Z" fill="#992627"></path><path d="M31.4344 3.89859C31.0764 3.41035 30.3929 3.60565 29.807 4.0288C29.3838 4.41939 29.3513 4.80999 29.6117 5.33079C30.0348 5.75393 30.3603 5.78648 30.816 5.46098C31.4344 5.03784 31.825 4.45194 31.4344 3.89859Z" fill="#992627"></path><path d="M18.2194 54.9045C17.8613 54.4162 17.1778 54.6115 16.5919 55.0347C16.1687 55.4253 16.1362 55.8159 16.3966 56.3366C16.8197 56.7598 17.1452 56.7923 17.6009 56.4668C18.2194 56.0111 18.5774 55.4578 18.2194 54.9045Z" fill="#992627"></path><path d="M15.1273 7.70709C15.1273 7.12119 14.4437 6.6655 13.8253 6.69805C13.2394 6.6655 12.7186 7.08864 12.7186 7.67454C12.6535 8.39063 13.2394 8.71613 13.8253 8.65103C14.4437 8.68358 15.1598 8.29298 15.1273 7.70709Z" fill="#992627"></path><path d="M3.89764 34.691C3.93019 33.9749 3.34429 33.4541 2.72585 33.4541C2.1074 33.4541 1.65171 34.1051 1.68426 34.6259C1.71681 35.2769 2.1725 35.8302 2.6933 35.8628C3.34429 35.8628 3.83254 35.2769 3.89764 34.691Z" fill="#992627"></path><path d="M19.3913 34.9185C19.4238 34.2024 18.8379 33.6816 18.2195 33.6816C17.6011 33.6816 17.1454 34.3326 17.1779 34.8534C17.2105 35.5044 17.6662 36.0578 18.1869 36.0903C18.8379 36.0903 19.3262 35.5044 19.3913 34.9185Z" fill="#992627"></path><path d="M25.6079 55.6207C25.6404 55.0674 25.2499 54.807 24.5989 54.7744C23.9804 54.807 23.1992 55.0674 23.1992 55.6533C23.2318 56.2717 23.9804 56.6623 24.664 56.6298C25.2173 56.5647 25.6079 56.2392 25.6079 55.6207Z" fill="#992627"></path><path d="M20.7583 49.4685C20.7257 48.85 20.563 48.6547 19.912 48.5896C19.261 48.5571 18.5774 48.8826 18.5774 49.501C18.5449 50.0869 19.2935 50.6077 19.8794 50.6403C20.563 50.6403 20.7908 50.1195 20.7583 49.4685Z" fill="#992627"></path><path d="M24.2413 25.1212C24.1111 24.34 23.4927 23.982 22.744 23.8843C21.9628 23.8192 21.5397 24.4051 21.4746 25.1863C21.3769 26.0326 21.8977 26.7813 22.7766 26.8464C23.5252 26.7162 24.1762 25.935 24.2413 25.1212Z" fill="#992627"></path><path d="M25.9015 11.1251C25.7713 10.3439 25.1528 9.98589 24.4042 9.88824C23.623 9.82314 23.1998 10.409 23.1347 11.1902C23.0371 12.0365 23.5579 12.7852 24.4367 12.8503C25.1854 12.7526 25.8364 11.9389 25.9015 11.1251Z" fill="#992627"></path><path d="M10.9286 14.2174C10.7984 13.4362 10.1799 13.0782 9.43128 12.9805C8.65009 12.9154 8.22694 13.5013 8.16184 14.2825C8.06419 15.1288 8.58499 15.8774 9.46383 15.9425C10.2125 15.8123 10.8635 15.0312 10.9286 14.2174Z" fill="#992627"></path><path d="M17.243 48.4596C17.1453 47.9063 16.8849 47.5808 16.5269 47.1576C16.1688 46.767 15.8759 46.0835 15.2574 46.0835C14.6715 46.0835 14.0856 46.5066 13.695 46.8647C13.3044 47.2553 13.2719 47.8412 13.337 48.3945C13.4021 49.4361 14.2158 49.9894 15.2574 49.8918C16.4943 50.1196 17.0477 49.5338 17.243 48.4596Z" fill="#992627"></path><path d="M20.2704 13.0129C19.8147 12.7525 19.2614 12.6874 18.643 12.7525C18.0896 12.8176 17.2108 12.785 16.7551 13.1756C15.9088 13.8917 16.8853 14.6404 17.7641 15.2588C18.2849 15.4216 18.5779 16.0075 19.1638 15.9424C19.7496 15.8773 20.4332 15.5192 20.7912 15.0961C21.5724 14.4776 21.1493 13.436 20.2704 13.0129Z" fill="#992627"></path><path d="M28.5051 50.3471C28.5376 49.273 27.8541 48.6546 26.8776 48.7848C25.8685 48.6871 25.1199 49.273 25.2501 50.2169C25.2175 50.8028 25.3803 51.1609 25.6407 51.4864C25.9336 51.8119 26.2917 52.1699 26.8125 52.1374C27.8866 52.1699 28.5376 51.226 28.5051 50.3471Z" fill="#992627"></path><path d="M7.57546 27.5301C7.67311 27.0744 7.67312 26.6187 7.67312 26.2607C7.57547 24.7634 5.10168 25.2517 4.35304 26.0003C3.99499 26.3909 3.7997 26.814 3.83225 27.465C3.76715 28.6043 4.58089 29.06 5.91543 29.06C6.92447 29.2227 7.41272 28.4415 7.57546 27.5301Z" fill="#992627"></path><path d="M32.2156 12.6222C32.3133 12.0363 32.8666 11.1575 32.476 10.7669C32.0854 10.3437 31.1415 10.4739 30.6207 10.5716C29.9697 10.4739 29.5465 10.7343 29.1885 11.1249C28.8304 11.5155 28.6351 11.9387 28.6677 12.5897C28.6026 13.7289 29.4163 14.1846 30.7509 14.1846C31.825 14.3473 32.2156 13.7615 32.2156 12.6222Z" fill="#992627"></path><path d="M12.6537 36.286C12.6862 35.7001 12.6211 34.919 12.2306 34.5609C11.8725 34.2029 11.1239 34.2029 10.4729 34.268C9.43127 34.1052 8.87793 35.2119 8.87793 36.1558C8.94303 36.7417 8.87793 37.1974 9.26853 37.6206C9.65912 38.0112 10.0823 38.532 10.7007 38.5645C11.7098 38.4018 12.8164 37.5229 12.6537 36.286Z" fill="#992627"></path><path d="M24.6968 5.16827C24.7293 4.54983 24.0783 4.15923 23.7203 3.80118C23.3297 3.41059 22.9716 3.34549 22.3858 3.37804C21.7348 3.34549 20.9536 3.01999 20.563 3.37804C20.1724 3.73609 20.3677 4.54982 20.3677 5.20082C20.3351 5.81926 20.563 6.17731 20.9861 6.53536C21.3767 6.86085 21.8324 6.79576 22.4834 6.79576C23.5575 6.86086 24.6642 6.20987 24.6968 5.16827Z" fill="#992627"></path></svg>