<svg xmlns="http://www.w3.org/2000/svg" width="43" height="80" viewBox="0 0 43 80" fill="none"><path d="M41.3906 79.2702C41.3906 79.3034 41.3906 79.3698 41.3574 79.403C41.3574 79.403 41.3574 79.4362 41.3242 79.4362L41.291 79.4693C41.291 79.4693 41.291 79.4693 41.2578 79.5025L41.2246 79.5357L41.1915 79.5689C41.1583 79.5689 41.1583 79.6021 41.1251 79.6021C41.0919 79.6021 41.0587 79.6353 41.0255 79.6353C40.9592 79.6684 40.926 79.7016 40.8596 79.7016C40.8264 79.7016 40.7932 79.7348 40.7932 79.7348C40.5278 79.8344 40.1959 79.9007 39.7977 79.9671C39.7313 79.9671 39.665 79.9671 39.5986 80.0003C39.5322 80.0003 39.499 80.0003 39.4327 80.0003C39.3663 80.0003 39.3331 80.0003 39.2668 80.0003C39.2336 80.0003 39.2004 80.0003 39.134 80.0003C39.0013 80.0003 38.9017 80.0003 38.769 80.0003C37.3089 80.0003 36.1474 79.6684 36.1474 79.237C37.1098 71.0073 38.0721 48.3424 36.247 42.7342C35.2846 39.7808 30.9375 32.7789 22.4755 35.4336C22.0109 35.5664 23.7697 28.664 24.8316 23.7196C25.6944 19.7043 26.6235 17.315 26.7231 17.5473C28.7805 24.3501 32.9617 24.0182 37.9394 31.5843C44.178 41.2077 41.4901 75.2217 41.3906 79.2702Z" fill="#FFBE40"></path><path d="M41.391 79.2702C41.391 79.3034 41.391 79.3698 41.3579 79.403C41.3579 79.403 41.3578 79.4362 41.3247 79.4362L41.2915 79.4693C41.2915 79.4693 41.2915 79.4693 41.2583 79.5025L41.2251 79.5357L41.1919 79.5689C41.1588 79.5689 41.1587 79.6021 41.1256 79.6021C41.0924 79.6021 41.0592 79.6353 41.026 79.6353C40.9596 79.6684 40.9265 79.7016 40.8601 79.7016C40.8269 79.7016 40.7937 79.7348 40.7937 79.7348C40.5282 79.8344 40.1964 79.9007 39.7982 79.9671C39.7318 79.9671 39.6654 79.9671 39.5991 80.0003C39.5327 80.0003 39.4995 80.0003 39.4331 80.0003C39.3668 80.0003 39.3336 80.0003 39.2672 80.0003C39.234 80.0003 39.2009 80.0003 39.1345 80.0003C39.3668 75.0558 41.8556 42.6678 35.7165 33.3098C33.1945 29.4605 28.3496 25.9429 24.832 23.7196C25.6948 19.7043 26.624 17.315 26.7235 17.5473C28.781 24.3501 32.9622 24.0182 37.9399 31.5843C44.1785 41.2077 41.4906 75.2217 41.391 79.2702Z" fill="#FFA717"></path><path d="M26.7233 21.9605C27.0883 22.956 27.387 23.8188 27.4202 24.9139C27.4202 25.9426 27.2543 26.9714 26.9224 27.9337C26.6569 28.6638 26.2919 29.3606 26.2919 30.1239C26.2919 31.4181 26.6569 32.4468 26.1592 33.741C25.7278 34.9024 26.2919 35.002 27.2211 35.4665C29.8758 36.7939 31.8669 39.4819 32.1324 42.4685C32.2319 43.464 32.2651 44.36 32.4974 45.3223C32.7297 46.2183 32.9952 47.0479 32.796 47.9771C32.6965 48.5412 32.3647 49.039 32.2319 49.6031C32.1324 50.0677 32.2319 50.4991 32.066 50.9968C31.7673 51.926 31.2364 52.7556 30.5727 53.4525C29.9422 54.1162 29.013 54.4148 28.4821 55.1781C27.6525 56.3063 26.7897 56.8041 25.5287 57.3683C25.0309 57.6005 24.7654 57.9987 24.3008 58.2974C23.8363 58.5961 23.239 58.6956 22.708 58.7288C21.7457 58.7952 20.8829 58.4633 19.9537 58.4633C18.7591 58.4301 17.664 58.9279 16.5357 59.0606C15.6065 59.1602 14.6442 58.7952 13.881 58.3306C13.4827 58.0983 13.2504 57.7996 12.9518 57.5342C12.5536 57.2023 12.1554 57.3682 11.6908 57.1691C11.3921 57.0364 11.2262 56.7377 10.9939 56.4723C10.3966 55.7754 9.1024 56.0409 8.671 55.0785C8.57145 54.8462 8.57145 54.6139 8.50508 54.3817C8.33916 53.5852 7.57592 53.4193 7.11134 52.8552C6.61358 52.2578 5.88352 51.7269 5.45212 51.0964C5.18665 50.665 5.18664 50.0677 4.8548 49.6695C4.52296 49.2713 3.89246 49.2049 3.62698 48.7735C3.42788 48.4748 3.49424 48.0766 3.49424 47.7116C3.49424 47.0811 2.96329 46.2846 2.56508 45.8201C1.96776 45.1232 1.6691 44.3268 1.43681 43.4308C1.13815 42.2694 0.773122 41.1079 0.574016 39.9133C0.408094 39.0173 0.872671 38.1545 0.673565 37.1921C0.507643 36.4289 0.242172 35.732 0.07625 34.9688C-0.0896719 34.3051 0.0430636 34.0396 0.208986 33.4423C0.540829 32.0486 -0.189221 30.6216 0.142623 29.1947C0.408098 28.0996 0.441274 27.1041 0.673565 26.009C0.93904 24.8475 0.242176 23.487 0.806311 22.4251C1.07179 21.8941 1.60273 21.4959 1.83502 20.8986C2.13368 20.1686 2.1005 19.3058 2.26642 18.5425C2.39916 17.9784 2.731 17.5138 2.79737 16.9165C2.86374 16.4519 2.83055 15.9873 3.06284 15.5891C3.3615 15.0582 4.19111 14.7263 4.39022 14.1954C4.58933 13.6312 4.25748 13.1335 4.72206 12.5693C4.92117 12.337 5.18665 12.1379 5.41894 11.9388C6.18218 11.242 5.61804 10.1801 6.14899 9.45C6.38128 9.15134 6.74632 9.0186 7.11134 8.85268C7.70866 8.5872 8.07369 7.98988 8.57146 7.59167C9.06922 7.16027 9.03603 6.66251 9.30151 6.13156C9.79927 5.13603 10.7948 4.83737 11.6908 4.50552C12.454 4.20687 13.0513 3.60954 13.6818 3.07859C14.2128 2.64719 14.3787 1.91714 15.2083 1.88396C15.7061 1.85078 16.2039 2.0167 16.6684 1.88396C17.3985 1.68485 17.8631 0.888429 18.5931 0.722507C19.2568 0.556585 19.9537 0.921609 20.6506 0.822056C21.5465 0.689319 22.343 -0.23984 23.2058 0.0588193C23.5708 0.191557 23.8363 0.523397 24.1681 0.656134C24.6659 0.822056 25.1968 0.589765 25.7278 0.490212C27.022 0.191553 27.8184 0.921605 28.9798 1.25345C30.2408 1.61848 31.5019 1.91714 32.6633 2.6472C33.7584 3.31088 34.1566 4.17368 34.8203 5.16921C35.5504 6.23111 36.3136 7.12708 36.7118 8.38809C37.1764 9.78184 37.2096 11.5074 36.5459 12.8016C36.2141 13.4321 35.9818 14.129 35.849 14.859C35.7163 15.5559 35.8822 16.3523 35.7163 17.016C35.4176 18.1775 34.223 19.3389 33.2275 19.9031C32.4974 20.3345 31.6014 20.4672 30.805 20.7659C30.0749 21.0313 29.5108 21.6618 28.7807 21.8941C28.1171 21.9273 27.387 21.7946 26.7233 21.9605Z" fill="#9A402C"></path><path d="M36.5465 12.6027C36.2146 13.2332 35.9823 13.9301 35.8496 14.6601C35.7168 15.357 35.8828 16.1534 35.7168 16.8171C35.4182 17.9786 34.2235 19.14 33.228 19.7041C32.498 20.1355 31.602 20.2683 30.8055 20.5669C30.0755 20.8324 29.5114 21.4629 28.7813 21.6952C28.1176 21.9275 27.3876 21.7616 26.7239 21.9275C27.1221 22.923 27.4207 23.7858 27.4207 24.8477C27.4207 25.8764 27.2548 26.9052 26.923 27.8675C26.6575 28.5976 26.2925 29.2944 26.2925 30.0577C26.2925 31.3519 26.6575 32.3806 26.1597 33.6748C25.7283 34.8362 26.3257 34.9358 27.2216 35.4004C29.8764 36.7277 31.8674 39.4157 32.1329 42.4023C32.2325 43.3978 32.2657 44.327 32.498 45.2561C32.7302 46.1521 32.9957 46.9817 32.7966 47.9109C32.6971 48.475 32.3652 48.9728 32.2325 49.5369C32.1329 50.0015 32.2325 50.4329 32.0666 50.9307C31.7679 51.8598 31.237 52.6894 30.5733 53.3863C29.9428 54.05 29.0136 54.3486 28.4826 55.1119C27.653 56.2401 26.7902 56.7379 25.5292 57.3021C25.0315 57.5344 24.766 57.9326 24.3014 58.2312C23.8368 58.5299 23.2395 58.6294 22.7086 58.6626C21.7462 58.729 20.8834 58.3971 19.9543 58.3971C18.7596 58.364 17.6645 58.8617 16.5363 58.9945C15.6071 59.094 14.5784 58.6958 13.7488 58.198C13.782 58.198 13.8151 58.198 13.8483 58.198C15.0098 58.0653 16.0717 57.5675 17.2663 57.6007C18.1955 57.6339 19.0583 57.9326 20.0206 57.8662C20.5516 57.833 21.1489 57.7334 21.6135 57.4348C22.0781 57.1693 22.3435 56.7379 22.8413 56.5056C24.1023 55.9415 24.9651 55.4437 25.7947 54.3155C26.3588 53.5522 27.2548 53.2536 27.8853 52.5899C28.549 51.893 29.08 51.0634 29.3786 50.1342C29.5445 49.6365 29.445 49.2383 29.5445 48.7405C29.6773 48.1764 30.0091 47.6786 30.1087 47.1144C30.2746 46.1853 30.0423 45.3557 29.81 44.4597C29.5777 43.4974 29.5445 42.5682 29.445 41.6059C29.1795 38.6193 27.1885 35.9313 24.5337 34.6039C23.6377 34.1394 23.0404 34.0398 23.4718 32.8783C23.9364 31.5842 23.6045 30.5554 23.6045 29.2613C23.6045 28.498 23.9696 27.768 24.235 27.0711C24.6001 26.1087 24.766 25.08 24.7328 24.0513C24.7328 22.9562 24.401 22.1266 24.0359 21.1311C24.6996 20.9652 25.4297 21.0979 26.0934 20.8988C26.8234 20.6665 27.3876 20.036 28.1176 19.7705C28.914 19.4719 29.81 19.3723 30.5401 18.9077C31.5356 18.3104 32.6971 17.1821 33.0289 16.0207C33.1948 15.357 33.0289 14.5606 33.1616 13.8637C33.2944 13.1336 33.5267 12.4368 33.8585 11.8063C34.5222 10.5121 34.4558 8.81966 34.0244 7.39274C33.6262 6.09855 32.863 5.23576 32.1329 4.17386C31.436 3.17833 31.071 2.31553 29.9759 1.65184C29.3786 1.28681 28.7149 0.98815 28.0181 0.755859C28.4826 0.888597 28.9472 1.02134 29.4118 1.15408C30.5401 1.48592 31.6683 1.85095 32.6639 2.48145C33.759 3.14514 34.1572 4.00794 34.8209 5.00347C35.5509 6.06537 36.3142 6.96134 36.7124 8.22235C37.1438 9.61609 37.2101 11.3085 36.5465 12.6027Z" fill="#822021"></path><path d="M15.5078 16.5845C16.1383 17.4473 16.9015 18.2105 17.7643 18.8742C18.5939 19.5379 19.5231 20.102 20.5186 20.5002C20.7509 20.5998 21.0164 20.6993 21.2487 20.7989C21.5141 20.8653 21.7464 20.9648 22.0119 21.0312C22.5097 21.1639 23.0406 21.2967 23.5384 21.4294C23.8039 21.4958 24.0694 21.5289 24.3348 21.5953C24.4676 21.6285 24.6003 21.6617 24.733 21.6617C24.8658 21.6949 24.9985 21.6949 25.1313 21.7281L25.3304 21.7612L25.5295 21.7944L25.9277 21.8608C26.1932 21.894 26.4586 21.9272 26.7241 21.9603V22.0267C26.4586 22.0599 26.1931 22.1263 25.8945 22.1594C25.629 22.1594 25.3304 22.1926 25.0649 22.1926C24.9321 22.1926 24.7994 22.1926 24.6667 22.1926C24.5339 22.1926 24.4012 22.1926 24.2685 22.1594C24.003 22.1594 23.7043 22.0931 23.4388 22.0599C23.1734 22.0267 22.9079 21.9603 22.6092 21.894L22.211 21.7944C22.0783 21.7612 21.9456 21.6949 21.8128 21.6617C21.2819 21.4626 20.7841 21.2635 20.2863 20.998C19.2908 20.5002 18.3948 19.8697 17.5652 19.1729C17.167 18.8078 16.7688 18.4096 16.4038 18.0114C16.0387 17.58 15.7069 17.1486 15.4414 16.684L15.5078 16.5845Z" fill="#822021"></path><path d="M14.844 41.9707C15.9059 41.6056 16.9678 41.2074 17.9633 40.7428C18.992 40.2782 19.9876 39.7805 20.9499 39.2164C21.1822 39.0836 21.4145 38.9177 21.6468 38.785C21.8791 38.619 22.1114 38.4863 22.3105 38.3204C22.7419 37.9885 23.2065 37.6567 23.6047 37.3248L23.7706 37.1921L23.9365 37.0594C24.0361 36.9598 24.1356 36.8934 24.2352 36.7939L24.5338 36.5284C24.6334 36.4289 24.7329 36.3293 24.8325 36.2298C25.2307 35.8316 25.5957 35.4333 25.9276 34.9688L25.9939 35.0019C25.7948 35.5329 25.4962 36.0307 25.1643 36.4952C24.8325 36.9598 24.4343 37.3912 24.0029 37.7562C23.1733 38.5527 22.1446 39.1168 21.149 39.6478C20.1535 40.1787 19.1248 40.6433 18.0629 41.0415C17.5319 41.2406 17.001 41.4065 16.47 41.6056C15.9391 41.7716 15.3749 41.9375 14.844 42.0702V41.9707Z" fill="#822021"></path><path d="M7.97463 47.5458C7.94144 46.9485 7.1782 46.0857 6.71362 46.152C6.08312 46.152 5.45262 46.8821 5.41943 47.5126C5.41943 47.9108 5.95039 48.0104 6.11631 48.2427C6.31541 48.475 6.41496 48.9396 6.68044 48.9064C7.24457 48.9727 7.90826 48.309 7.97463 47.5458Z" fill="#822021"></path><path d="M3.462 32.6792C3.42882 32.1814 2.69876 31.4846 2.26736 31.5177C1.67004 31.5177 1.07272 32.1151 1.00635 32.646C1.00635 32.9779 1.50411 33.0442 1.67004 33.2433C1.86914 33.4424 1.93551 33.8075 2.23417 33.8075C2.79831 33.8406 3.42882 33.3097 3.462 32.6792Z" fill="#822021"></path><path d="M11.3268 44.4264C11.3268 43.7959 11.0282 43.2317 10.464 43.2981C9.83353 43.2317 9.07029 43.7627 9.03711 44.4264C9.03711 45.0569 9.76716 45.256 10.464 45.1896C10.9618 45.2228 11.2273 45.0237 11.3268 44.4264Z" fill="#822021"></path><path d="M17.7317 45.82C17.6653 45.2891 17.0017 44.4595 16.338 44.4595C15.7738 44.5258 15.2097 45.2227 15.1765 45.7868C15.1765 46.4837 15.7738 46.9483 16.4043 47.0147C16.9353 46.9483 17.6322 46.3842 17.7317 45.82Z" fill="#822021"></path><path d="M12.7866 20.6003C12.7203 20.0694 12.0566 19.2397 11.3929 19.2397C10.8288 19.3061 10.2646 20.003 10.2314 20.5671C10.2314 21.264 10.8288 21.7286 11.4593 21.7949C11.9902 21.7618 12.6871 21.1644 12.7866 20.6003Z" fill="#822021"></path><path d="M18.1958 28.5315C18.1295 28.0005 17.4658 27.1709 16.8021 27.1709C16.2379 27.2373 15.6738 27.9341 15.6406 28.4983C15.6406 29.1951 16.2379 29.6597 16.8685 29.7261C17.3994 29.6597 18.1295 29.0624 18.1958 28.5315Z" fill="#822021"></path><path d="M14.7779 55.842C14.8775 55.2115 14.3465 54.8133 13.7824 54.8133C13.1187 54.7801 12.7537 55.2115 12.7537 55.9084C12.7537 56.5057 13.1851 56.8707 13.716 56.8375C14.2801 56.8375 14.8443 56.4393 14.7779 55.842Z" fill="#822021"></path><path d="M14.6782 7.85764C14.7446 7.19395 14.0146 6.56345 13.4504 6.62981C12.8531 6.663 12.1562 7.19395 12.123 7.75808C12.123 8.38859 12.8531 9.01909 13.4504 8.98591C14.0146 9.05228 14.6451 8.38859 14.6782 7.85764Z" fill="#822021"></path><path d="M26.0938 11.5407C26.0274 11.0098 25.3637 10.1802 24.7 10.1802C24.1359 10.2465 23.5718 10.9434 23.5386 11.5076C23.5386 12.2044 24.1359 12.669 24.7664 12.7354C25.2973 12.669 25.9942 12.1049 26.0938 11.5407Z" fill="#822021"></path><path d="M8.47292 15.8215C8.40655 15.2905 7.74287 14.4609 7.07918 14.4609C6.51504 14.5273 5.95091 15.2242 5.91772 15.7883C5.91772 16.4852 6.51504 16.9498 7.14554 17.0161C7.67649 16.9498 8.37336 16.3524 8.47292 15.8215Z" fill="#822021"></path><path d="M20.2204 45.8534C19.8222 45.5879 19.2249 45.787 18.9262 46.318C18.6607 46.7162 18.6939 47.2471 19.2249 47.4794C19.6563 47.7781 20.154 47.7117 20.3531 47.1808C20.7513 46.7826 20.6518 46.1521 20.2204 45.8534Z" fill="#822021"></path><path d="M12.1895 40.0465C12.1232 39.5819 11.9904 39.3164 11.4927 39.3164C11.0613 39.3828 10.5303 39.5819 10.5635 40.0796C10.5967 40.4447 11.0281 40.7765 11.4595 40.8097C11.9572 40.7765 12.09 40.4779 12.1895 40.0465Z" fill="#822021"></path><path d="M10.6632 48.1099C10.5968 47.6454 10.4641 47.3799 9.96628 47.3799C9.53489 47.4463 9.00394 47.6454 9.03713 48.1431C9.07031 48.5081 9.50171 48.84 9.93311 48.8732C10.4309 48.8732 10.5636 48.5745 10.6632 48.1099Z" fill="#822021"></path><path d="M18.7266 31.9825C18.6603 31.5179 18.5275 31.2524 18.0298 31.2524C17.5984 31.3188 17.0674 31.5179 17.1006 32.0157C17.1338 32.3807 17.5652 32.7126 17.9966 32.7457C18.4944 32.7457 18.6271 32.4471 18.7266 31.9825Z" fill="#822021"></path><path d="M34.3236 17.6466C34.2572 17.182 34.1245 16.9165 33.6267 16.9165C33.1953 16.9829 32.6643 17.182 32.6975 17.6797C32.7307 18.0448 33.1621 18.3766 33.5935 18.4098C34.0913 18.4098 34.2572 18.1111 34.3236 17.6466Z" fill="#822021"></path><path d="M27.6866 9.61629C27.6202 9.15171 27.4875 8.88623 26.9897 8.88623C26.5583 8.9526 26.0274 9.15171 26.0606 9.64948C26.0937 10.0145 26.5251 10.3463 26.9565 10.3795C27.4543 10.3463 27.6202 10.0477 27.6866 9.61629Z" fill="#822021"></path><path d="M24.3016 54.1827C24.2352 53.7181 24.1025 53.4526 23.6047 53.4526C23.1733 53.519 22.6424 53.7181 22.6756 54.2159C22.7087 54.5809 23.1401 54.9127 23.5715 54.9459C24.0693 54.9127 24.2352 54.6141 24.3016 54.1827Z" fill="#822021"></path><path d="M3.79378 22.3922C3.72742 21.9276 3.59468 21.6621 3.09691 21.6621C2.66551 21.7285 2.13456 21.9276 2.16774 22.4254C2.20093 22.7904 2.63233 23.1222 3.06372 23.1554C3.56149 23.1222 3.69423 22.8236 3.79378 22.3922Z" fill="#822021"></path><path d="M21.3814 27.3697C21.3151 26.9051 21.1823 26.6396 20.6846 26.6396C20.2532 26.706 19.7222 26.9051 19.7554 27.4029C19.7886 27.7679 20.22 28.0998 20.6514 28.1329C21.1491 28.1329 21.3151 27.8343 21.3814 27.3697Z" fill="#822021"></path><path d="M6.14985 18.9742C6.14985 18.2442 5.85119 17.5805 5.15432 17.4478C4.3579 17.4478 3.56148 18.3105 3.56148 18.8747C3.52829 19.5052 4.39108 20.2021 5.02159 20.1357C5.81801 20.2684 6.11667 19.6047 6.14985 18.9742Z" fill="#822021"></path><path d="M10.7623 17.4146C10.6959 16.95 10.5632 16.6846 10.0654 16.6846C9.63402 16.7509 9.10306 16.9501 9.13625 17.4478C9.16943 17.8128 9.60083 18.1447 10.0322 18.1779C10.53 18.1779 10.6959 17.8792 10.7623 17.4146Z" fill="#822021"></path><path d="M22.2113 23.2882C22.1449 22.8236 22.0122 22.5581 21.5144 22.5581C21.083 22.6245 20.552 22.8236 20.5852 23.3213C20.6184 23.6864 21.0498 24.0182 21.4812 24.0514C21.979 24.0514 22.1117 23.7527 22.2113 23.2882Z" fill="#822021"></path><path d="M3.19636 25.4781C3.12999 25.0135 2.99725 24.748 2.49949 24.748C2.06809 24.8144 1.53714 25.0135 1.57033 25.5113C1.60351 25.8763 2.03491 26.2082 2.46631 26.2413C2.96408 26.2082 3.12999 25.9095 3.19636 25.4781Z" fill="#822021"></path><path d="M23.8702 16.5186C23.8038 16.054 23.6711 15.7886 23.1733 15.7886C22.7419 15.8549 22.211 16.054 22.2442 16.5518C22.2773 16.9168 22.7087 17.2487 23.1401 17.2819C23.6379 17.2819 23.8038 16.9832 23.8702 16.5186Z" fill="#822021"></path><path d="M16.0054 4.47247C16.0054 4.00789 15.5076 3.7756 15.043 3.80878C14.6117 3.80878 14.313 4.04107 14.313 4.43928C14.3462 4.93705 14.6448 5.20253 15.0762 5.20253C15.5076 5.13616 15.9722 4.93705 16.0054 4.47247Z" fill="#822021"></path><path d="M17.3658 15.5894C17.2994 15.1249 17.1667 14.8594 16.6689 14.8594C16.2375 14.9257 15.7066 15.1249 15.7398 15.6226C15.7729 15.9877 16.2043 16.3195 16.6357 16.3527C17.1335 16.3195 17.2662 16.0208 17.3658 15.5894Z" fill="#822021"></path><path d="M11.2271 14.3946C11.1608 13.93 11.028 13.6646 10.5302 13.6646C10.0989 13.7309 9.56791 13.93 9.60109 14.4278C9.63428 14.7928 10.0657 15.1247 10.4971 15.1578C10.9948 15.1247 11.1276 14.826 11.2271 14.3946Z" fill="#822021"></path><path d="M24.3016 26.3741C24.2352 25.9095 24.1025 25.644 23.6047 25.644C23.1733 25.7104 22.6424 25.9095 22.6756 26.4073C22.7087 26.7723 23.1401 27.1042 23.5715 27.1373C24.0693 27.1042 24.202 26.8055 24.3016 26.3741Z" fill="#822021"></path><path d="M4.78927 44.327C4.82246 43.8293 4.62334 43.2983 4.19195 43.2651C3.72737 43.2983 3.42871 43.8624 3.42871 44.2938C3.4619 44.7252 3.69418 45.0239 4.19195 45.0903C4.59016 45.0571 4.78927 44.7584 4.78927 44.327Z" fill="#822021"></path><path d="M15.674 31.75C15.674 31.385 15.1098 31.0531 14.6452 31.0863C14.1807 31.0199 13.7825 31.3186 13.7493 31.8495C13.7825 32.2146 14.2138 32.48 14.5789 32.4137C15.1098 32.4137 15.7071 32.2146 15.674 31.75Z" fill="#822021"></path><path d="M11.194 54.1827C11.1608 53.7513 11.0613 53.5854 10.5635 53.5522C10.0658 53.5522 9.568 53.7514 9.60118 54.2159C9.568 54.6473 10.1321 55.0124 10.5635 55.0787C11.0613 55.0124 11.194 54.6473 11.194 54.1827Z" fill="#822021"></path><path d="M3.49562 40.3118C3.49562 39.8472 2.99785 39.615 2.53327 39.6481C2.10188 39.6481 1.80322 39.8804 1.80322 40.2787C1.83641 40.7764 2.13506 41.0419 2.56646 41.0419C2.99786 41.0087 3.46243 40.7764 3.49562 40.3118Z" fill="#822021"></path><path d="M8.43956 12.0055C8.63867 11.5409 8.60548 10.9435 8.20727 10.7444C7.74269 10.6449 7.31128 11.0431 7.14536 11.4745C7.04581 11.8727 7.11219 12.2377 7.60995 12.47C7.97498 12.5696 8.27364 12.4037 8.43956 12.0055Z" fill="#822021"></path><path d="M32.5649 13.8967C32.5649 13.4322 32.399 13.2331 31.9012 13.2662C31.4366 13.2662 31.2043 13.4653 31.1711 13.9299C31.2043 14.3613 31.4366 14.8591 31.9012 14.7927C32.3326 14.8259 32.4985 14.2618 32.5649 13.8967Z" fill="#822021"></path><path d="M11.7914 29.8257C11.7914 29.4606 11.2273 29.1288 10.7627 29.162C10.2981 29.0956 9.89988 29.3943 9.8667 29.9252C9.89988 30.2903 10.3313 30.5557 10.6963 30.4894C11.2273 30.4894 11.8246 30.2903 11.7914 29.8257Z" fill="#822021"></path><path d="M16.5363 25.4785C16.5363 25.1135 15.9721 24.7816 15.5076 24.8148C15.043 24.7484 14.6448 25.0471 14.6116 25.5781C14.6448 25.9431 15.0762 26.2086 15.4412 26.1422C15.9721 26.1422 16.5695 25.9431 16.5363 25.4785Z" fill="#822021"></path><path d="M23.0743 1.78458C23.0743 1.28681 22.9084 0.855413 22.4438 0.755859C21.946 0.755859 21.4482 1.35318 21.4482 1.75139C21.4482 2.18279 21.9792 2.64737 22.3774 2.61419C22.8752 2.68056 23.0411 2.21597 23.0743 1.78458Z" fill="#822021"></path><path d="M7.84241 23.8852C7.84241 23.5202 7.27828 23.1884 6.8137 23.2216C6.34912 23.1552 5.95091 23.4538 5.91772 23.9848C5.95091 24.3498 6.38231 24.6153 6.74733 24.5489C7.27828 24.5489 7.8756 24.3498 7.84241 23.8852Z" fill="#822021"></path><path d="M33.4273 8.78684C32.9959 8.68728 32.7304 9.11868 32.5977 9.64963C32.5645 10.081 32.6972 10.3133 33.0954 10.4461C33.5268 10.4792 33.7259 10.3465 33.8255 9.94829C33.9582 9.38416 33.8918 8.88639 33.4273 8.78684Z" fill="#822021"></path><path d="M10.6628 7.45919C10.3974 7.09416 9.89959 7.26007 9.4682 7.55873C9.16954 7.85739 9.13635 8.12288 9.33546 8.52109C9.63412 8.85293 9.8996 8.85293 10.2314 8.62064C10.6628 8.28879 10.9283 7.8574 10.6628 7.45919Z" fill="#822021"></path><path d="M27.9189 2.14961C27.6535 1.78459 27.1557 1.9505 26.7243 2.24916C26.4256 2.54782 26.3925 2.81331 26.5916 3.21152C26.8902 3.54336 27.1557 3.54336 27.4875 3.31107C27.9189 2.97922 28.1844 2.54783 27.9189 2.14961Z" fill="#822021"></path><path d="M23.6381 35.7655C23.6381 35.3341 23.1403 35.0023 22.6757 35.0355C22.2443 35.0023 21.8461 35.3341 21.8461 35.7655C21.7798 36.2965 22.2112 36.5288 22.6757 36.4956C23.1403 36.4624 23.6713 36.1969 23.6381 35.7655Z" fill="#822021"></path><path d="M27.3213 53.5191C27.3545 53.0213 26.9894 52.7227 26.5912 52.7227C26.0603 52.7227 25.5957 53.0213 25.6289 53.5191C25.6621 53.9173 26.1266 54.3487 26.4917 54.3487C26.9562 54.3487 27.3545 53.9173 27.3213 53.5191Z" fill="#822021"></path><path d="M30.5405 44.0948C30.5737 43.597 30.2087 43.2983 29.8104 43.2983C29.2795 43.2983 28.8149 43.597 28.8481 44.0948C28.8813 44.493 29.3459 44.9244 29.7109 44.9244C30.1755 44.9244 30.5405 44.493 30.5405 44.0948Z" fill="#822021"></path><path d="M22.1446 57.0366C22.1114 56.5389 21.7796 56.2402 21.3814 56.207C20.8504 56.2402 20.5849 56.5721 20.5186 57.0698C20.5186 57.5012 20.8836 58.0322 21.315 58.0322C21.7464 58.0322 22.1114 57.468 22.1446 57.0366Z" fill="#822021"></path><path d="M30.4082 51.0968C30.4082 50.6654 30.01 50.4331 29.5122 50.3999C29.0808 50.3336 28.6826 50.6986 28.7158 51.13C28.7822 51.5282 29.1472 51.8932 29.5786 51.9264C29.9768 51.9264 30.4082 51.5282 30.4082 51.0968Z" fill="#822021"></path><path d="M30.9719 16.4855C30.9719 16.0541 30.5737 15.8218 30.076 15.7886C29.6446 15.7222 29.2463 16.0872 29.2795 16.5186C29.3459 16.9169 29.7109 17.2819 30.1423 17.3151C30.5405 17.3151 30.9719 16.9169 30.9719 16.4855Z" fill="#822021"></path><path d="M11.9907 10.9767C11.9907 10.5453 11.5925 10.313 11.0948 10.2798C10.6634 10.2134 10.2651 10.5785 10.2983 11.0099C10.3647 11.4081 10.7297 11.7731 11.1611 11.8063C11.5925 11.8063 12.0239 11.4081 11.9907 10.9767Z" fill="#822021"></path><path d="M29.3789 13.9303C29.3789 13.4989 28.9807 13.2666 28.4829 13.2334C28.0515 13.167 27.6533 13.5321 27.6865 13.9635C27.7529 14.3617 28.1179 14.7267 28.5493 14.7599C28.9807 14.7267 29.4121 14.3617 29.3789 13.9303Z" fill="#822021"></path><path d="M26.9902 49.6696C26.9902 49.2382 26.592 49.0059 26.0943 48.9727C25.6629 48.9063 25.2647 49.2713 25.2978 49.7027C25.3642 50.1009 25.7292 50.466 26.1606 50.4992C26.5588 50.4992 26.9902 50.101 26.9902 49.6696Z" fill="#822021"></path><path d="M24.3353 42.6676C24.3022 42.2362 23.9371 41.8711 23.5389 41.9043C23.008 41.8379 22.7425 42.203 22.8089 42.6344C22.8089 43.0658 23.008 43.4308 23.4394 43.4308C23.9371 43.4308 24.3022 43.099 24.3353 42.6676Z" fill="#822021"></path><path d="M30.8058 39.9799C30.7726 39.5153 30.2748 38.9844 29.8434 38.9512C29.412 38.9512 29.0138 39.4489 28.9806 39.8803C28.9474 40.4113 29.3125 40.6436 29.7439 40.6436C30.2085 40.544 30.7394 40.3781 30.8058 39.9799Z" fill="#822021"></path><path d="M17.6648 56.9702C17.6648 56.4393 17.4325 56.1738 17.0343 56.1074C16.5697 56.1406 16.3706 56.5056 16.3706 56.9039C16.3706 57.3684 16.5697 57.7998 17.0011 57.7666C17.4325 57.7335 17.698 57.4348 17.6648 56.9702Z" fill="#822021"></path><path d="M16.8353 34.77C16.8353 34.239 16.4371 33.874 15.9726 33.8408C15.508 33.8408 15.1761 34.3054 15.2093 34.7036C15.2425 35.1682 15.5743 35.5996 15.9726 35.5996C16.4371 35.6328 16.769 35.2014 16.8353 34.77Z" fill="#822021"></path><path d="M9.53457 29.228C9.53457 28.697 9.13635 28.332 8.67177 28.2988C8.20719 28.2988 7.87535 28.7634 7.90853 29.1616C7.94172 29.6262 8.27356 30.0576 8.67177 30.0576C9.13635 30.0908 9.50138 29.6594 9.53457 29.228Z" fill="#822021"></path><path d="M16.8683 53.9507C16.8683 53.4529 16.6029 53.1875 16.1715 53.1211C15.6737 53.1543 15.4414 53.4861 15.4414 53.8844C15.4414 54.3157 15.6737 54.7471 16.1715 54.714C16.6029 54.6476 16.9015 54.3821 16.8683 53.9507Z" fill="#822021"></path><path d="M4.92177 28.4648C4.92177 27.9339 4.52356 27.5688 4.05898 27.5356C3.5944 27.5356 3.26256 28.0002 3.29574 28.3984C3.32893 28.863 3.66077 29.2944 4.05898 29.2944C4.52356 29.3276 4.88859 28.8962 4.92177 28.4648Z" fill="#822021"></path><path d="M9.63426 51.13C9.66744 50.7318 9.36879 50.5327 8.90421 50.4995C8.43962 50.5327 7.87549 50.6986 7.87549 51.1632C7.90867 51.6278 8.43963 51.8933 8.93739 51.8933C9.36879 51.7937 9.63426 51.5614 9.63426 51.13Z" fill="#822021"></path><path d="M21.8462 40.8424C21.8794 40.4442 21.5807 40.2451 21.1161 40.2119C20.6515 40.2451 20.0874 40.411 20.0874 40.8756C20.1206 41.3402 20.6515 41.6057 21.1493 41.6057C21.5475 41.5393 21.813 41.307 21.8462 40.8424Z" fill="#822021"></path><path d="M17.7975 49.006C17.7644 48.5746 17.6648 48.4087 17.167 48.3755C16.6693 48.3755 16.1715 48.5746 16.2047 49.0392C16.1715 49.4706 16.7356 49.8356 17.167 49.902C17.6648 49.8688 17.7975 49.4706 17.7975 49.006Z" fill="#822021"></path><path d="M20.4526 43.3649C20.4526 42.9004 19.8885 42.6017 19.4239 42.5685C18.9593 42.5353 18.6606 42.9003 18.6606 43.3317C18.6938 43.8295 19.0257 44.1945 19.4239 44.1614C19.8553 44.1282 20.4194 43.73 20.4526 43.3649Z" fill="#822021"></path><path d="M15.8063 51.4287C15.8063 50.9309 15.6072 50.765 15.1095 50.7982C14.6781 50.7318 14.1803 50.9309 14.2135 51.3623C14.2135 51.8269 14.7112 52.3246 15.1095 52.2583C15.6404 52.2583 15.8395 51.8601 15.8063 51.4287Z" fill="#822021"></path><path d="M10.1985 37.2256C10.1322 36.6614 9.50166 36.2964 8.90434 36.2964C8.27384 36.3296 7.74288 36.5619 7.67651 37.1924C7.7097 37.7897 8.27383 38.5197 8.87115 38.5529C9.50166 38.4866 10.1985 37.8561 10.1985 37.2256Z" fill="#822021"></path><path d="M14.5788 37.2587C14.4793 36.6945 14.0479 36.429 13.4837 36.3295C12.9196 36.2631 12.5877 36.6945 12.5546 37.2918C12.4882 37.9223 12.8864 38.4533 13.5169 38.5197C14.0479 38.4533 14.5456 37.856 14.5788 37.2587Z" fill="#822021"></path><path d="M28.5161 19.5716C28.4165 19.0075 27.9851 18.742 27.421 18.6425C26.8569 18.5761 26.525 19.0075 26.4918 19.6048C26.4254 20.2353 26.8237 20.7663 27.4542 20.8326C27.9851 20.7663 28.4829 20.169 28.5161 19.5716Z" fill="#822021"></path><path d="M8.63886 33.8407C8.53931 33.2765 8.10791 33.0111 7.54378 32.9115C6.97964 32.8452 6.6478 33.2766 6.61462 33.8739C6.54825 34.5044 6.94646 35.0353 7.57696 35.1017C8.10792 35.0353 8.60567 34.438 8.63886 33.8407Z" fill="#822021"></path><path d="M19.9218 7.22691C19.8223 6.66278 19.3909 6.39731 18.8267 6.29775C18.2626 6.23139 17.9308 6.66278 17.8976 7.2601C17.8312 7.8906 18.2294 8.42156 18.8599 8.48793C19.3909 8.38837 19.8886 7.79105 19.9218 7.22691Z" fill="#822021"></path><path d="M14.413 15.4564C14.3135 14.8923 13.8821 14.6268 13.3179 14.5272C12.7538 14.4609 12.422 14.8923 12.3888 15.4896C12.3224 16.1201 12.7206 16.651 13.3511 16.7174C13.8821 16.651 14.3799 16.0537 14.413 15.4564Z" fill="#822021"></path><path d="M34.1902 6.23163C34.1902 5.56794 33.9579 4.97063 33.3274 4.83789C32.6305 4.83789 31.9668 5.63432 31.9668 6.16527C31.9668 6.76258 32.6637 7.39309 33.2278 7.32672C33.8915 7.42627 34.157 6.79576 34.1902 6.23163Z" fill="#822021"></path><path d="M27.7534 37.5239C27.8197 36.7938 27.0233 36.462 26.426 36.462C25.9282 36.3624 25.2645 36.8602 25.2977 37.4243C25.2645 38.1212 25.8618 38.5858 26.5255 38.5526C27.1229 38.6853 27.7534 38.088 27.7534 37.5239Z" fill="#822021"></path><path d="M24.8991 31.352C24.9655 30.622 24.169 30.2901 23.5717 30.2901C23.074 30.1906 22.4103 30.6883 22.4435 31.2525C22.4103 31.9493 23.0076 32.4139 23.6713 32.3807C24.2354 32.5135 24.8659 31.9162 24.8991 31.352Z" fill="#822021"></path><path d="M23.6049 8.98581C23.6713 8.25575 22.8749 7.9239 22.2775 7.9239C21.7798 7.82435 21.1161 8.32211 21.1493 8.88625C21.1161 9.58312 21.7134 10.0477 22.3771 10.0145C22.9744 10.1473 23.6049 9.58313 23.6049 8.98581Z" fill="#822021"></path><path d="M30.2419 5.80019C30.1756 5.10331 29.8769 4.83783 29.2132 4.73828C28.6491 4.83783 28.0518 5.23605 28.0518 5.767C28.1513 6.3975 28.6159 6.8289 29.2796 6.76253C29.8437 6.8289 30.2088 6.3975 30.2419 5.80019Z" fill="#822021"></path><path d="M16.1386 19.1069C16.205 18.3768 15.4085 18.045 14.8112 18.045C14.3135 17.9454 13.6498 18.4432 13.683 19.0073C13.6498 19.7042 14.2471 20.1688 14.9108 20.1356C15.5081 20.2352 16.1386 19.671 16.1386 19.1069Z" fill="#822021"></path><path d="M8.27387 26.6064C8.34024 25.8764 7.54381 25.5445 6.94649 25.5445C6.44873 25.445 5.78503 25.9427 5.81821 26.5069C5.78503 27.2037 6.38235 27.6683 7.04604 27.6351C7.64336 27.7679 8.27387 27.1705 8.27387 26.6064Z" fill="#822021"></path><path d="M26.0942 23.5537C26.1605 22.8236 25.3641 22.4918 24.7668 22.4918C24.269 22.3922 23.6053 22.89 23.6385 23.4541C23.6053 24.151 24.2027 24.6156 24.8664 24.5824C25.4637 24.7151 26.061 24.1178 26.0942 23.5537Z" fill="#822021"></path><path d="M28.7151 42.2031C28.6819 41.7385 28.35 41.2075 27.9186 41.2075C27.5204 41.2075 27.1222 41.7385 27.1222 42.2031C27.089 42.6344 27.4541 42.9995 27.8855 43.0327C28.35 43.0327 28.7151 42.6344 28.7151 42.2031Z" fill="#822021"></path><path d="M23.3396 49.2717C23.3064 48.6744 22.8418 47.9775 22.2113 47.9775C21.6472 47.9775 21.083 48.6744 21.083 49.2717C21.0498 49.8359 21.5808 50.3005 22.1781 50.3668C22.8418 50.3668 23.3064 49.8359 23.3396 49.2717Z" fill="#822021"></path><path d="M26.4585 46.1189C26.4253 45.5216 25.9607 44.8247 25.3302 44.8247C24.766 44.8247 24.2019 45.5216 24.2019 46.1189C24.1687 46.683 24.6997 47.1476 25.297 47.214C25.9607 47.214 26.4253 46.683 26.4585 46.1189Z" fill="#822021"></path><path d="M30.939 47.3134C30.9058 46.7161 30.3417 46.4838 29.7444 46.3511C29.0807 46.3511 28.6493 46.7161 28.6825 47.3798C28.6825 47.9107 29.2134 48.674 29.7112 48.5412C30.408 48.6408 30.939 47.9771 30.939 47.3134Z" fill="#822021"></path><path d="M14.7446 48.4751C14.6782 48.0769 14.4791 47.8114 14.2136 47.5127C13.9482 47.2141 13.7159 46.7163 13.2845 46.7163C12.8531 46.7163 12.4217 47.015 12.1562 47.2804C11.8576 47.5791 11.8576 48.0105 11.8907 48.4087C11.9239 49.172 12.5212 49.5702 13.3177 49.5038C14.1805 49.7029 14.6119 49.2715 14.7446 48.4751Z" fill="#822021"></path><path d="M25.0981 5.03677C25.0649 4.33989 24.4012 3.47709 23.638 3.60983C22.9079 3.47709 22.012 4.43944 22.012 5.06994C22.0451 5.43497 22.6425 5.56771 22.8748 5.8C23.107 5.99911 23.2398 6.59643 23.638 6.62961C24.3681 6.62961 25.0981 5.70045 25.0981 5.03677Z" fill="#822021"></path><path d="M18.7933 52.0589C18.6274 51.7934 18.3951 51.6938 18.1296 51.6938C17.8973 51.6938 17.5323 51.5611 17.3 51.8266C16.9018 52.2912 17.2668 52.988 17.5987 53.5853C17.7978 53.7844 17.8973 54.249 18.1628 54.249C18.3951 54.249 18.7269 54.0499 18.8929 53.7513C19.2579 53.3199 19.1251 52.4571 18.7933 52.0589Z" fill="#822021"></path><path d="M10.9289 23.5866C10.5639 23.7525 10.2984 24.0512 10.0661 24.4494C9.86698 24.8144 9.46877 25.3122 9.50195 25.7768C9.56832 26.6064 10.4311 26.3409 11.1944 26.1086C11.5262 25.8763 11.9908 25.9427 12.1899 25.5776C12.389 25.2126 12.4886 24.6485 12.389 24.2503C12.3558 23.4207 11.5594 23.2216 10.9289 23.5866Z" fill="#822021"></path><path d="M29.3791 9.35052C28.9478 9.45007 28.6823 9.74873 28.4832 10.1138C28.3172 10.4456 27.919 10.9102 28.0518 11.3748C28.3172 12.2044 29.3128 12.0384 30.2088 11.9057C30.5738 11.7066 31.1711 11.8393 31.337 11.4743C31.503 11.1093 31.5029 10.5452 31.3038 10.1469C31.1379 9.31733 30.076 9.05186 29.3791 9.35052Z" fill="#822021"></path><path d="M7.21191 41.6723C7.21191 40.8759 6.78052 40.1458 6.05046 40.2122C5.65225 40.2454 5.41995 40.4445 5.18766 40.6768C4.889 40.9423 4.65672 41.1745 4.62354 41.5728C4.6899 42.0042 4.98856 42.2365 5.22085 42.5351C5.45314 42.8338 5.61906 43.1656 6.05046 43.0993C6.68096 43.0993 7.17873 42.4687 7.21191 41.6723Z" fill="#822021"></path><path d="M20.7842 35.0353C20.7842 34.4048 20.3528 33.8738 19.6227 33.9402C19.2245 33.9734 18.9922 34.1061 18.7599 34.3052C18.4613 34.5043 18.229 34.7034 18.1958 35.0021C18.2622 35.3339 18.5608 35.4999 18.7931 35.7322C19.0254 35.9644 19.1913 36.1967 19.6227 36.1635C20.22 36.1304 20.751 35.6326 20.7842 35.0353Z" fill="#822021"></path><path d="M21.9785 12.9013C21.9785 12.1049 21.4807 11.3748 20.6179 11.4412C20.1534 11.4744 19.8879 11.6735 19.5892 11.9058C19.2574 12.1713 18.9587 12.4036 18.9255 12.8018C18.9919 13.2332 19.3569 13.4655 19.6224 13.7641C19.9211 14.0628 20.087 14.3946 20.5848 14.3283C21.348 14.3283 21.9453 13.6978 21.9785 12.9013Z" fill="#822021"></path><path d="M24.8991 19.9035C24.8991 19.3394 24.3681 18.8084 23.4721 18.8748C22.9744 18.8748 22.7089 19.0407 22.4102 19.2066C22.0452 19.4057 21.7466 19.5716 21.7134 19.8371C21.8129 20.1358 22.1448 20.3017 22.4434 20.534C22.7421 20.7331 22.9412 20.9654 23.439 20.9322C24.2354 20.9322 24.8659 20.4676 24.8991 19.9035Z" fill="#822021"></path><path d="M4.35765 35.2678C3.72714 34.936 3.12983 35.0355 2.7648 35.7656C2.26704 36.4625 2.53251 37.093 3.09665 37.3253C3.85989 37.7235 4.49039 37.7235 4.92179 36.9602C5.22045 36.3297 4.95497 35.5997 4.35765 35.2678Z" fill="#822021"></path><path d="M14.9766 42.8337C15.0098 42.0373 14.4788 41.6059 13.782 41.6722C13.0519 41.6059 12.4878 42.0373 12.5873 42.7341C12.5542 43.1655 12.6869 43.431 12.886 43.6633C13.1183 43.9288 13.3506 44.1611 13.7488 44.1611C14.512 44.1942 15.0098 43.4974 14.9766 42.8337Z" fill="#822021"></path><path d="M17.6645 11.5742C17.6977 10.645 17.0672 10.1141 16.2376 10.2136C15.3416 10.1141 14.7111 10.645 14.8106 11.4415C14.7774 11.9392 14.9102 12.2711 15.1757 12.5365C15.4411 12.8352 15.7398 13.1007 16.2044 13.1007C17.1004 13.1339 17.6977 12.3374 17.6645 11.5742Z" fill="#822021"></path><path d="M19.1249 39.0837C19.0917 38.5859 18.6935 38.2541 18.2621 38.3204C18.0298 38.3204 17.7311 38.2873 17.5652 38.42C17.3661 38.5859 17.2002 38.8182 17.2002 39.0505C17.2997 39.5483 17.7643 39.7474 18.1957 39.7142C18.7599 39.7142 19.0585 39.5815 19.1249 39.0837Z" fill="#822021"></path><path d="M25.2646 40.0792C25.331 39.7805 25.6297 39.3491 25.4306 39.15C25.1983 38.9509 24.6341 39.0173 24.3355 39.0505C23.9705 39.0173 23.705 39.1169 23.4727 39.316C23.2736 39.5151 23.1408 39.7142 23.174 40.046C23.1408 40.6102 23.6054 40.8424 24.4018 40.8424C25.0323 40.942 25.2646 40.6433 25.2646 40.0792Z" fill="#822021"></path><path d="M17.8643 22.4586C17.9306 22.0272 18.3288 21.3967 18.0634 21.098C17.7647 20.7662 17.101 20.8989 16.7028 20.9653C16.2382 20.8989 15.9064 21.098 15.6409 21.3635C15.3754 21.629 15.2095 21.9608 15.2759 22.4586C15.2095 23.3214 15.84 23.62 16.8023 23.62C17.5656 23.7196 17.8643 23.2882 17.8643 22.4586Z" fill="#822021"></path><path d="M20.884 17.0826C20.9504 16.6512 21.3486 16.0207 21.0831 15.722C20.7845 15.3902 20.1208 15.5229 19.7226 15.5893C19.258 15.5229 18.9261 15.7221 18.6607 15.9875C18.3952 16.253 18.2293 16.5848 18.2956 17.0826C18.2293 17.9454 18.8598 18.2441 19.8221 18.2441C20.5854 18.3768 20.884 17.9122 20.884 17.0826Z" fill="#822021"></path><path d="M13.0521 33.7745C13.0853 33.3431 13.019 32.7789 12.7535 32.4803C12.488 32.2148 11.957 32.2148 11.4593 32.248C10.696 32.1152 10.2978 32.9448 10.2646 33.6417C10.2978 34.0731 10.2646 34.405 10.5633 34.7036C10.862 35.0023 11.1606 35.3673 11.6252 35.4005C12.3553 35.3341 13.1517 34.6704 13.0521 33.7745Z" fill="#822021"></path><path d="M21.0492 3.94137C21.0824 3.47679 20.5846 3.21132 20.3191 2.94584C20.0537 2.64718 19.755 2.614 19.3236 2.614C18.8258 2.58081 18.2617 2.34852 17.9962 2.614C17.7308 2.87947 17.8635 3.47679 17.8303 3.94137C17.8303 4.37277 17.963 4.67143 18.2949 4.9369C18.5935 5.16919 18.9254 5.13601 19.39 5.13601C20.1864 5.20238 21.016 4.70461 21.0492 3.94137Z" fill="#822021"></path><path d="M5.95018 34.106C5.78426 34.106 5.65152 33.9733 5.61833 33.8074C5.41923 31.9822 3.72682 30.7212 3.09632 30.5221C2.9304 30.4557 2.83084 30.2898 2.86402 30.1239C2.93039 29.958 3.09632 29.8584 3.26224 29.8916C4.22459 30.1571 6.01654 31.6836 6.24883 33.741C6.28202 33.9069 6.14928 34.0728 5.95018 34.106C5.95018 34.106 5.98336 34.106 5.95018 34.106Z" fill="#822021"></path><path d="M5.28705 32.314C5.22069 32.314 5.15432 32.2808 5.12113 32.2476C4.95521 32.148 4.92202 31.9489 5.02157 31.783C5.95074 30.3561 7.64315 30.7543 8.27365 31.1193C8.43957 31.2189 8.47275 31.418 8.3732 31.5839C8.27364 31.7498 8.07454 31.783 7.90862 31.6835C7.51041 31.4512 6.2494 31.0861 5.58571 32.148C5.48616 32.2808 5.38661 32.314 5.28705 32.314Z" fill="#822021"></path><path d="M10.4964 27.9004C10.3305 27.9004 10.1646 27.7676 10.1646 27.6017C10.1646 27.4026 10.2973 27.2698 10.4632 27.2367C11.0937 27.2035 12.952 26.3075 13.483 24.5819C13.5494 24.416 13.7153 24.3164 13.8812 24.3496C14.0471 24.416 14.1467 24.5819 14.1135 24.7478C13.5494 26.7057 11.5251 27.8008 10.4964 27.9004C10.5296 27.9004 10.5296 27.9004 10.4964 27.9004Z" fill="#822021"></path><path d="M14.4784 29.6593C13.7815 29.6261 12.3546 29.0287 11.6245 27.1372C11.5582 26.9713 11.6577 26.7722 11.8237 26.7058C11.9896 26.6395 12.1887 26.739 12.2551 26.905C12.8192 28.3651 13.9143 28.9624 14.5116 28.9956C14.7107 28.9956 14.8434 29.1615 14.8103 29.3606C14.8103 29.5265 14.6775 29.6593 14.4784 29.6593Z" fill="#822021"></path><path d="M27.6859 44.8246C26.8895 44.8246 25.7612 44.4927 25.1639 43.2317C25.0975 43.0658 25.1639 42.8667 25.3298 42.8003C25.4957 42.734 25.6948 42.8003 25.7612 42.9663C26.458 44.4264 27.9845 44.1609 28.0509 44.1277C28.2168 44.0945 28.4159 44.2273 28.4491 44.3932C28.4823 44.5591 28.3496 44.7582 28.1836 44.7914C28.0177 44.7914 27.8518 44.8246 27.6859 44.8246Z" fill="#822021"></path><path d="M21.4802 47.5124C21.447 47.5124 21.4138 47.5124 21.4138 47.5124C21.2479 47.4792 21.1151 47.2801 21.1815 47.1141C21.2479 46.915 21.7125 45.1231 23.2058 44.4926C23.239 44.4926 25.5618 43.2979 26.0596 41.3069C26.0928 41.141 26.2919 41.0082 26.4578 41.0746C26.6238 41.1078 26.7565 41.3069 26.6901 41.4728C26.1924 43.5302 24.0354 44.8576 23.4712 45.1231C22.2434 45.654 21.8452 47.2469 21.812 47.3132C21.7456 47.4128 21.6129 47.5124 21.4802 47.5124Z" fill="#822021"></path><path d="M21.8787 30.1568C21.7791 30.1568 21.6795 30.1236 21.6132 30.0241C21.58 29.9909 20.7172 28.8958 19.6221 29.3936C19.4562 29.4599 19.2571 29.3936 19.1907 29.2277C19.1243 29.0617 19.1907 28.8626 19.3566 28.7962C20.6176 28.2321 21.6795 29.0617 22.1441 29.6259C22.2437 29.7586 22.2105 29.9909 22.0778 30.0904C22.0114 30.1236 21.945 30.1568 21.8787 30.1568Z" fill="#822021"></path><path d="M19.2571 31.0859C19.2239 31.0859 19.1907 31.0859 19.1243 31.0527C18.9584 30.9864 18.8588 30.7873 18.9252 30.6213C19.4893 29.1944 18.7925 27.2365 18.5934 26.8051C17.9297 25.4778 18.4938 24.0177 18.5602 23.8517C18.6266 23.6858 18.8257 23.5863 18.9916 23.6526C19.1575 23.719 19.2571 23.9181 19.1907 24.084C19.1575 24.1504 18.6929 25.4114 19.2239 26.5065C19.2239 26.5397 20.319 28.9953 19.5889 30.8536C19.4893 30.9864 19.3898 31.0859 19.2571 31.0859Z" fill="#822021"></path><path d="M23.306 45.1232C23.2728 45.1232 23.2396 45.1232 23.2064 45.0901C21.514 44.4927 20.9499 42.7008 20.8504 42.3689C20.8172 42.203 20.9167 42.0039 21.0826 41.9707C21.2486 41.9375 21.4477 42.0371 21.4809 42.203C21.514 42.3689 22.0118 43.995 23.4055 44.4927C23.5715 44.5591 23.671 44.7582 23.6047 44.9241C23.5715 45.0237 23.4387 45.1232 23.306 45.1232Z" fill="#822021"></path><path d="M17.8636 9.54961C17.1336 9.54961 16.2376 9.31733 15.5739 8.5209C15.4743 8.38817 15.4743 8.15587 15.6071 8.05631C15.7398 7.95676 15.9721 7.95676 16.0717 8.0895C17.0008 9.21777 18.4941 8.81955 18.6932 8.72C18.8591 8.62045 19.0583 8.68682 19.1246 8.85275C19.2242 9.01867 19.1578 9.21777 18.9919 9.28414C18.826 9.45006 18.3946 9.54961 17.8636 9.54961Z" fill="#822021"></path><path d="M12.5206 13.7638C12.4874 13.7638 12.4874 13.7638 12.4542 13.7638C12.2883 13.7306 12.1555 13.5647 12.1887 13.3988C12.2219 13.1665 12.5869 11.1091 14.0802 9.88123C14.578 9.48302 16.6022 7.35923 16.9341 5.20224C16.9673 5.03632 17.1332 4.90358 17.2991 4.93676C17.465 4.96994 17.5978 5.13587 17.5646 5.30179C17.1332 7.98973 14.5116 10.379 14.4784 10.379C13.1842 11.4741 12.8524 13.2992 12.8192 13.4983C12.8192 13.6643 12.6533 13.7638 12.5206 13.7638Z" fill="#822021"></path><path d="M8.50562 46.6495C8.37288 46.6495 8.24014 46.55 8.20696 46.4173C8.20696 46.3841 8.17377 46.3509 8.17377 46.2845C6.97913 43.1984 7.9083 41.141 8.90383 39.9795C9.03657 39.8468 9.23568 39.8136 9.36841 39.9463C9.50115 40.0791 9.53434 40.2782 9.4016 40.4109C8.10741 41.9042 7.9083 43.7957 8.7711 46.0191C8.80428 46.0854 8.80428 46.1518 8.83746 46.185C8.90383 46.3509 8.80427 46.55 8.63835 46.6164C8.57198 46.6496 8.5388 46.6495 8.50562 46.6495Z" fill="#822021"></path><path d="M8.07398 42.5014C7.90806 42.5014 7.77532 42.3687 7.74214 42.236C7.74214 42.2028 7.24437 39.1166 5.18694 38.287C5.02102 38.2207 4.92146 38.0216 4.98783 37.8556C5.0542 37.6897 5.25331 37.5902 5.41923 37.6565C7.84169 38.6189 8.37264 41.9705 8.37264 42.1364C8.40583 42.3023 8.27309 42.5014 8.10717 42.5014C8.10717 42.5014 8.10717 42.5014 8.07398 42.5014Z" fill="#822021"></path><path d="M19.7879 56.605C19.7548 56.605 19.6884 56.605 19.6552 56.5718C19.4893 56.5055 19.4229 56.3064 19.4893 56.1404C19.7548 55.5763 20.9494 52.6893 18.2615 50.665C18.1287 50.5655 18.0955 50.3332 18.1951 50.2004C18.2946 50.0677 18.5269 50.0345 18.6597 50.1341C21.7458 52.457 20.3853 55.7754 20.0866 56.4059C20.0202 56.5386 19.9207 56.605 19.7879 56.605Z" fill="#822021"></path><path d="M20.0866 52.8884C20.0202 52.8884 19.9206 52.8552 19.8875 52.8221C19.7547 52.6893 19.7215 52.4902 19.8543 52.3575C21.2148 50.6983 22.6418 50.9305 22.6749 50.9305C22.8409 50.9637 22.9736 51.1296 22.9404 51.2956C22.9072 51.4615 22.7413 51.5942 22.5754 51.5611C22.509 51.5611 21.4803 51.4283 20.352 52.7557C20.2857 52.8552 20.1861 52.8884 20.0866 52.8884Z" fill="#822021"></path><path d="M18.1622 37.723C16.503 37.723 15.0428 36.7275 14.3792 36.1965C14.2464 36.097 14.2132 35.8647 14.346 35.7319C14.4455 35.5992 14.6778 35.566 14.8106 35.6988C15.607 36.3293 17.6312 37.6898 19.6223 36.7275C19.7882 36.6611 19.9873 36.7275 20.0537 36.8934C20.1201 37.0593 20.0537 37.2584 19.8878 37.3248C19.3236 37.6235 18.7263 37.723 18.1622 37.723Z" fill="#822021"></path><path d="M14.213 40.7432C14.0803 40.7432 13.9807 40.6768 13.9143 40.5441C13.848 40.3782 13.9143 40.1791 14.0803 40.1127C14.1135 40.1127 16.3036 39.084 16.6355 37.1925C16.6686 37.0266 16.8346 36.8938 17.0337 36.927C17.1996 36.9602 17.3323 37.1261 17.2991 37.3252C16.9009 39.5817 14.4785 40.71 14.3789 40.7432C14.3126 40.71 14.2794 40.7432 14.213 40.7432Z" fill="#822021"></path><path d="M9.30154 53.0544H9.26837C9.06926 53.0544 8.93652 52.8885 8.93652 52.7226C8.93652 52.5235 9.10245 52.3907 9.26837 52.3907C9.36792 52.3907 11.7904 52.3907 12.2881 50.4329C12.3213 50.2669 12.5204 50.1342 12.6864 50.2006C12.8523 50.2337 12.985 50.4329 12.9186 50.5988C12.4209 52.5235 10.3634 53.0544 9.30154 53.0544Z" fill="#822021"></path><path d="M13.4493 54.415C13.3829 54.415 13.3166 54.3818 13.2502 54.3486C12.4538 53.685 11.956 52.6894 11.8564 51.4948C11.8564 51.2957 11.9892 51.1629 12.1551 51.1298C12.3542 51.0966 12.4869 51.2625 12.5201 51.4284C12.6197 52.4571 13.0179 53.2868 13.6816 53.8177C13.8143 53.9504 13.8475 54.1495 13.7148 54.2823C13.6484 54.3818 13.5488 54.415 13.4493 54.415Z" fill="#822021"></path><path d="M26.1264 8.62034C26.06 8.62034 25.9937 8.58716 25.9273 8.55397C25.7614 8.45442 25.7282 8.25531 25.8278 8.08939C26.0601 7.75755 26.6906 6.09833 25.3632 4.90369C25.2304 4.77095 25.2304 4.57185 25.33 4.43911C25.4627 4.30637 25.6618 4.30637 25.7946 4.40592C27.487 5.96559 26.6906 7.98984 26.3587 8.45442C26.3587 8.58716 26.226 8.62034 26.1264 8.62034Z" fill="#822021"></path><path d="M28.7144 8.15577C28.6148 8.15577 28.5153 8.12259 28.4489 8.02303C28.4489 8.02303 27.6525 7.12705 26.5242 7.09386C26.3251 7.09386 26.1924 6.92794 26.1924 6.76202C26.1924 6.56291 26.3583 6.43018 26.5242 6.43018C27.9512 6.46336 28.9135 7.55845 28.9467 7.62482C29.0794 7.75755 29.0462 7.98984 28.9135 8.0894C28.8803 8.12258 28.7808 8.15577 28.7144 8.15577Z" fill="#822021"></path><path d="M8.17385 22.8231C8.0743 22.8231 7.97475 22.79 7.90838 22.6904C7.34425 22.0267 6.8133 21.6949 6.28235 21.6949C5.68503 21.6617 5.31999 22.0599 5.31999 22.0599C5.18725 22.1926 4.98815 22.1926 4.85541 22.0599C4.72267 21.9272 4.72267 21.7281 4.85541 21.5953C4.8886 21.5621 5.41955 20.998 6.31552 21.0312C7.04558 21.0644 7.77564 21.4626 8.43933 22.259C8.57207 22.3918 8.53888 22.624 8.40615 22.7236C8.30659 22.8232 8.24022 22.8231 8.17385 22.8231Z" fill="#822021"></path><path d="M7.47702 22.1929C7.41066 22.1929 7.37747 22.1929 7.3111 22.1598C7.14518 22.0602 7.07881 21.8611 7.17837 21.6952C8.07435 20.0691 7.44385 18.4763 7.44385 18.4431C7.37748 18.2772 7.44384 18.0781 7.64295 18.0117C7.80887 17.9453 8.00798 18.0117 8.07435 18.2108C8.10753 18.2772 8.83759 20.1355 7.77569 22.027C7.70932 22.1266 7.60976 22.1929 7.47702 22.1929Z" fill="#822021"></path><path d="M24.9645 18.1113C24.9313 18.1113 24.8981 18.1113 24.8649 18.0782C24.699 18.0118 24.5994 17.8459 24.6658 17.6468C24.699 17.5472 25.4622 15.3902 27.1215 15.1911C27.2874 15.1579 27.4533 15.2907 27.4865 15.4898C27.5197 15.6557 27.3869 15.8216 27.1878 15.8548C25.96 15.9875 25.2963 17.8459 25.2963 17.8459C25.2299 18.045 25.0972 18.1113 24.9645 18.1113Z" fill="#822021"></path><path d="M26.4582 16.1199C26.425 16.1199 26.3918 16.1199 26.3586 16.1199C24.799 15.6554 23.6375 14.0293 23.6043 13.963C23.5048 13.797 23.538 13.5979 23.7039 13.4984C23.8698 13.3988 24.0689 13.432 24.1685 13.5979C24.1685 13.5979 25.2304 15.1244 26.5577 15.4894C26.7237 15.5558 26.8232 15.7217 26.79 15.8877C26.7569 16.0204 26.6241 16.1199 26.4582 16.1199Z" fill="#822021"></path></svg>