<svg width="722" height="176" viewBox="0 0 722 176" fill="none" xmlns="http://www.w3.org/2000/svg">
<rect width="722" height="176" fill="#F9F9F9"/>
<rect x="261" width="193" height="176" fill="#F9F9F9"/>
<rect x="522" width="193" height="176" fill="#F9F9F9"/>
<g clip-path="url(#clip0)">
<path d="M51.4157 119.014C48.4944 105.505 48.5843 91.2213 51.4157 76.3438L64 79.3101C56.045 86.2012 54.1573 100.805 56.3596 119.014H51.4157Z" fill="#E8CA8F"/>
<path d="M61.0786 68.1291L61.528 63.5655C56.3145 61.9682 49.7977 61.74 42.6516 62.1964C40.9887 63.1091 40.1797 64.8433 39.9999 67.2164C39.955 68.0379 40.4943 68.7681 41.3033 68.9506C45.1235 69.6352 53.6179 70.0002 60.6291 70.4566L61.0786 68.1291Z" fill="#E8CA8F"/>
<path d="M62.6515 68.8136L43.7751 66.5317V74.2899L62.6515 79.31V68.8136Z" fill="#8FB2D1"/>
</g>
<g clip-path="url(#clip1)">
<path d="M322.046 113.824C319.475 101.936 319.555 89.3658 322.046 76.2729L333.121 78.8835C326.12 84.9479 324.459 97.7998 326.397 113.824H322.046Z" fill="#E8CA8F"/>
<path d="M330.55 69.0439L330.945 65.0277C326.357 63.6221 320.622 63.4212 314.333 63.8229C312.87 64.6261 312.158 66.1523 312 68.2407C311.96 68.9636 312.435 69.6062 313.147 69.7668C316.509 70.3693 323.984 70.6906 330.154 71.0922L330.55 69.0439Z" fill="#E8CA8F"/>
<path d="M331.934 69.6463L315.322 67.6382V74.4657L331.934 78.8835V69.6463Z" fill="#8FB2D1"/>
</g>
<g clip-path="url(#clip2)">
<path d="M596.144 119.666C594.06 110.029 594.124 99.8377 596.144 89.2236L605.122 91.3399C599.447 96.2563 598.1 106.675 599.671 119.666H596.144Z" fill="#E8CA8F"/>
<path d="M603.038 83.3622L603.359 80.1063C599.639 78.9668 594.99 78.804 589.892 79.1296C588.705 79.7807 588.128 81.018 588 82.711C587.968 83.2971 588.353 83.818 588.93 83.9482C591.655 84.4366 597.715 84.6971 602.717 85.0227L603.038 83.3622Z" fill="#E8CA8F"/>
<path d="M604.16 83.8511L590.693 82.2231V87.7581L604.16 91.3395V83.8511Z" fill="#8FB2D1"/>
</g>
<path d="M122.739 125.837C120.252 123.979 119.244 121.719 120.819 118.751C129.815 104.462 128.097 87.4788 116.111 72.3815C115.089 71.1004 113.838 69.9705 112.985 68.5884C111.818 66.6966 111.446 64.6059 113.387 62.9237C115.327 61.2415 117.395 61.681 118.974 63.3679C132.943 78.2924 140.672 100.815 128.988 121.182C128.362 122.312 124.526 125.555 122.739 125.837Z" fill="#FEB4B4"/>
<path d="M140.096 151.29C137.127 149.189 133.693 148.37 130.324 147.381C126.442 146.343 122.485 145.615 118.49 145.202C113.028 143.59 105.6 142.609 97.409 142.639C91.1118 142.602 84.8335 143.299 78.7005 144.715C73.9683 145.654 69.1989 146.448 64.5413 147.672C59.8836 148.897 55.1529 150.085 52.0705 154.301L52.089 157.335C52.8928 158.976 54.239 160.287 55.8983 161.047C61.3685 163.91 67.2286 165.139 73.2259 166.009C77.6891 166.667 82.2128 166.335 86.6816 166.919L109.098 166.838C113.42 166.216 117.748 165.624 122.07 164.971C128.251 164.033 134.325 162.7 139.807 159.501C143.864 157.132 143.899 153.976 140.096 151.29Z" fill="#E0D6DF"/>
<path d="M105.3 153.582C104.886 153.584 104.475 153.499 104.095 153.332C103.364 153.011 102.788 152.41 102.494 151.662C102.201 150.915 102.214 150.081 102.531 149.345C116.174 117.564 102.452 108.683 102.283 108.599C101.6 108.181 101.109 107.508 100.918 106.727C100.727 105.945 100.852 105.121 101.265 104.434C101.678 103.747 102.346 103.254 103.121 103.064C103.896 102.874 104.715 103.001 105.398 103.419C106.159 103.883 123.757 115.191 108.026 151.76C107.796 152.297 107.416 152.755 106.932 153.078C106.448 153.401 105.881 153.576 105.3 153.582Z" fill="#A53C3B"/>
<path d="M103.094 149.436C120.962 138.289 134.605 151.311 128.154 153.415C128.154 153.415 97.651 157.863 103.094 149.436Z" fill="#A53C3B"/>
<path d="M117.8 42.3971C136.95 77.8681 117.604 131.751 75.6628 124.511C45.4153 119.283 59.405 76.8311 62.0048 80.003C60.7179 78.4106 59.7958 76.5543 59.3043 74.5662C58.8127 72.578 58.7636 70.5067 59.1606 68.4996C52.618 58.9611 50.964 46.4293 54.2022 35.4309C61.1284 11.869 99.2305 7.99654 117.8 42.3971Z" fill="#EB5757"/>
<path d="M70.3791 40.4955C71.9038 41.3262 74.5672 39.2683 74.8457 42.2366C75.1243 45.2049 72.1914 43.8037 70.938 44.7657C70.0702 45.4294 69.22 45.0023 68.5135 44.3201C68.1762 44.0097 67.9513 43.5962 67.874 43.1445C67.7967 42.6929 67.8715 42.2287 68.0865 41.825C68.2511 41.3688 68.5711 40.9855 68.9902 40.7424C69.4094 40.4994 69.9011 40.4119 70.3791 40.4955Z" fill="#F8AEB0"/>
<path d="M68.6883 90.4843C69.6565 89.6626 67.9421 87.0871 70.1791 87.1335C72.0896 87.175 72.7557 89.3179 72.9658 91.0625C73.1381 92.5467 72.0538 93.1628 70.663 93.1073C69.1452 93.028 68.6317 92.1026 68.6883 90.4843Z" fill="#F8AEB0"/>
<path d="M67.7904 30.8941C67.6166 32.1494 66.9927 33.0063 65.7047 33.108C65.4055 33.1607 65.0981 33.1468 64.8046 33.0671C64.511 32.9874 64.2384 32.8439 64.0062 32.6469C63.774 32.4498 63.5878 32.204 63.4609 31.927C63.3341 31.65 63.2696 31.3485 63.2721 31.044C63.2458 30.7642 63.2784 30.4821 63.3679 30.216C63.4574 29.9499 63.6017 29.7057 63.7915 29.4993C63.9813 29.2929 64.2123 29.1289 64.4697 29.0178C64.727 28.9068 65.0049 28.8512 65.2854 28.8546C66.7305 28.722 67.4556 29.5801 67.7904 30.8941Z" fill="#F8AEB0"/>
<path d="M119.249 60.7661C119.359 61.5887 119.196 62.4242 118.785 63.1437C117.32 63.9006 115.918 64.1845 114.933 62.4426C114.23 61.2329 114.92 60.2485 115.884 59.6692C117.289 58.864 118.341 59.7754 119.249 60.7661Z" fill="#F8AEB0"/>
<path d="M105.956 86.6347C105.693 87.2418 105.303 87.7854 104.814 88.2294C104.325 88.6734 103.746 89.0076 103.117 89.2099C102.478 89.382 101.766 88.6631 101.992 88.1772C102.542 87.0049 102.707 85.3794 104.356 85.1005C105.292 84.9394 105.822 85.5377 105.956 86.6347Z" fill="#F8AEB0"/>
<path d="M72.5867 159.166C72.1724 159.169 71.7621 159.083 71.3821 158.916C70.6503 158.595 70.0744 157.994 69.781 157.247C69.4877 156.499 69.5009 155.665 69.8178 154.929C83.4605 123.148 69.7387 114.267 69.5697 114.183C68.8867 113.766 68.3958 113.092 68.2049 112.311C68.014 111.53 68.1388 110.705 68.5518 110.018C68.9648 109.332 69.6323 108.839 70.4073 108.648C71.1823 108.458 72.0014 108.586 72.6844 109.004C73.4453 109.467 91.044 120.775 75.3128 157.345C75.0824 157.882 74.7023 158.339 74.2185 158.663C73.7347 158.986 73.1679 159.161 72.5867 159.166Z" fill="#A53C3B"/>
<path d="M70.365 155.215C88.2334 144.068 101.876 157.091 95.4252 159.195C95.4252 159.195 64.9222 163.642 70.365 155.215Z" fill="#A53C3B"/>
<path d="M81.181 135.619C78.941 133.471 78.2164 131.104 80.1377 128.352C90.7892 115.274 91.1487 98.2107 81.0997 81.7608C80.2426 80.3643 79.1394 79.0899 78.4624 77.6139C77.5352 75.5936 77.42 73.4734 79.5479 72.0417C81.6758 70.61 83.6721 71.2995 85.0317 73.1667C97.0672 89.6881 101.994 112.985 87.9405 131.765C87.1825 132.81 82.9862 135.558 81.181 135.619Z" fill="#FEB4B4"/>
<path d="M111.543 51.048C111.952 52.5678 112.021 53.907 111.321 55.1944C111.063 55.6875 110.698 56.1156 110.252 56.4469C108.947 57.4145 107.347 57.8981 105.724 57.815C104.99 57.7917 104.279 57.5498 103.681 57.1202C103.084 56.6906 102.628 56.0928 102.37 55.4029C101.782 54.1373 101.532 52.741 101.644 51.3509C101.829 48.9926 103.29 47.569 105.501 47.1549C106.28 46.9676 107.092 46.9742 107.869 47.1742C108.645 47.3742 109.361 47.7615 109.954 48.3022C110.759 49.0275 111.315 49.9885 111.543 51.048Z" fill="#C63837"/>
<path d="M93.0562 55.5736C93.3366 56.3952 93.4268 57.2695 93.3199 58.1303C93.2607 58.6395 93.0899 59.129 92.8196 59.5637C92.5493 59.9985 92.1864 60.3678 91.7566 60.6452C90.5636 61.4317 89.1587 61.8343 87.7293 61.7993C86.8724 61.8197 86.0296 61.5732 85.317 61.0939C84.6045 60.6145 84.0574 59.9259 83.7511 59.1229C83.0701 57.5617 82.7336 55.9447 83.3705 54.2757C83.6229 53.6193 84.0151 53.0263 84.5198 52.5377C85.0244 52.0492 85.6294 51.6769 86.2928 51.4467C87.3907 50.9506 88.6348 50.8833 89.7817 51.2582C91.3762 51.8585 92.2427 53.1038 92.8266 54.6169C92.9222 54.9309 92.9989 55.2504 93.0562 55.5736Z" fill="#C63837"/>
<path d="M105.788 52.1761C105.911 52.5874 105.882 53.0287 105.708 53.42C105.651 53.5653 105.56 53.6948 105.443 53.798C105.326 53.9011 105.186 53.975 105.035 54.0135C104.884 54.0519 104.725 54.054 104.573 54.0194C104.421 53.9848 104.279 53.9146 104.159 53.8145C103.931 53.6445 103.745 53.4237 103.616 53.1694C103.488 52.9152 103.42 52.6346 103.418 52.3498C103.407 52.1904 103.452 52.0322 103.543 51.9018C103.714 51.6861 103.94 51.5213 104.197 51.4253C104.455 51.3293 104.734 51.3058 105.004 51.3572C105.207 51.3854 105.395 51.4816 105.538 51.6302C105.68 51.7788 105.768 51.9712 105.788 52.1761Z" fill="#FFFEFE"/>
<path d="M86.9598 56.5061C87.0721 56.9894 87.0032 57.4968 86.7662 57.9316C86.6917 58.093 86.5823 58.2357 86.446 58.3492C86.3096 58.4628 86.1496 58.5444 85.9776 58.5882C85.8057 58.632 85.6261 58.6369 85.4519 58.6024C85.2776 58.568 85.1131 58.4951 84.9703 58.3891C84.6705 58.1836 84.4257 57.9073 84.2575 57.5847C84.0892 57.2621 84.0027 56.9031 84.0056 56.5395C83.9979 56.3374 84.05 56.1377 84.1554 55.9656C84.2608 55.7935 84.4147 55.6567 84.5978 55.5724C84.8122 55.4528 85.0437 55.3668 85.2842 55.3174C86.1824 55.1202 86.7332 55.4744 86.9598 56.5061Z" fill="#FFFEFE"/>
<path d="M384.45 120.781C382.261 119.145 381.374 117.156 382.76 114.545C390.677 101.97 389.166 87.0239 378.616 73.7378C377.717 72.6103 376.616 71.616 375.866 70.3997C374.839 68.7348 374.511 66.895 376.219 65.4145C377.927 63.9341 379.747 64.3209 381.136 65.8054C393.431 78.9395 400.232 98.7605 389.95 116.684C389.398 117.679 386.022 120.533 384.45 120.781Z" fill="#FEB4B4"/>
<path d="M399.725 143.18C397.112 141.331 394.089 140.611 391.125 139.74C387.709 138.827 384.226 138.186 380.711 137.823C375.903 136.404 369.367 135.541 362.158 135.567C356.616 135.535 351.091 136.148 345.694 137.394C341.529 138.221 337.332 138.919 333.233 139.997C329.134 141.074 324.971 142.12 322.258 145.831L322.275 148.501C322.982 149.944 324.167 151.099 325.627 151.767C330.441 154.287 335.598 155.368 340.876 156.134C344.804 156.713 348.785 156.421 352.718 156.935L372.445 156.864C376.249 156.316 380.058 155.795 383.861 155.221C389.3 154.395 394.646 153.222 399.47 150.406C403.04 148.321 403.072 145.545 399.725 143.18Z" fill="#E0D6DF"/>
<path d="M369.103 145.198C368.738 145.2 368.377 145.125 368.042 144.978C367.398 144.695 366.892 144.167 366.634 143.509C366.375 142.851 366.387 142.117 366.666 141.469C378.672 113.5 366.596 105.685 366.448 105.611C365.846 105.243 365.414 104.651 365.246 103.963C365.078 103.276 365.188 102.55 365.552 101.946C365.915 101.341 366.503 100.907 367.185 100.74C367.867 100.572 368.588 100.685 369.189 101.052C369.858 101.461 385.346 111.412 371.502 143.595C371.299 144.067 370.964 144.47 370.539 144.755C370.113 145.039 369.614 145.193 369.103 145.198Z" fill="#B76567"/>
<path d="M367.161 141.549C382.886 131.74 394.892 143.199 389.216 145.05C389.216 145.05 362.371 148.964 367.161 141.549Z" fill="#B76567"/>
<path d="M380.061 47.422C396.914 78.638 379.889 126.057 342.979 119.686C316.36 115.085 328.671 77.7253 330.959 80.5167C329.827 79.1154 329.015 77.4818 328.583 75.7321C328.15 73.9824 328.107 72.1596 328.456 70.3933C322.698 61.999 321.243 50.9705 324.093 41.2914C330.188 20.5559 363.719 17.148 380.061 47.422Z" fill="#DB6262"/>
<path d="M338.371 45.6774C339.712 46.4084 342.056 44.5974 342.301 47.2095C342.547 49.8217 339.966 48.5886 338.863 49.4352C338.099 50.0192 337.351 49.6433 336.729 49.043C336.432 48.7698 336.234 48.4059 336.166 48.0085C336.098 47.6111 336.164 47.2026 336.353 46.8473C336.498 46.4458 336.78 46.1086 337.148 45.8946C337.517 45.6807 337.95 45.6038 338.371 45.6774Z" fill="#F8AEB0"/>
<path d="M352.243 28.0431C353.585 28.7741 355.929 26.9631 356.174 29.5753C356.419 32.1874 353.838 30.9543 352.735 31.8009C351.971 32.3849 351.223 32.009 350.601 31.4087C350.305 31.1356 350.107 30.7717 350.039 30.3742C349.971 29.9768 350.036 29.5683 350.226 29.213C350.371 28.8115 350.652 28.4743 351.021 28.2604C351.39 28.0464 351.823 27.9695 352.243 28.0431Z" fill="#F8AEB0"/>
<path d="M365.243 110.043C366.585 110.774 368.929 108.963 369.174 111.575C369.419 114.187 366.838 112.954 365.735 113.801C364.972 114.385 364.223 114.009 363.602 113.409C363.305 113.136 363.107 112.772 363.039 112.374C362.971 111.977 363.037 111.568 363.226 111.213C363.371 110.812 363.652 110.474 364.021 110.26C364.39 110.046 364.823 109.97 365.243 110.043Z" fill="#F8AEB0"/>
<path d="M377.824 92.8408C378.914 92.5789 379.3 90.436 380.717 91.741C382.135 93.0459 380.123 93.6441 379.938 94.6495C379.81 95.3443 379.218 95.5077 378.584 95.4863C378.288 95.4834 378.001 95.3823 377.769 95.1988C377.537 95.0154 377.372 94.7601 377.3 94.4729C377.182 94.1825 377.169 93.8597 377.265 93.5613C377.361 93.2628 377.558 93.0078 377.824 92.8408Z" fill="#F8AEB0"/>
<path d="M346.232 99.9616C347.322 99.6997 347.708 97.5564 349.126 98.8616C350.544 100.167 348.532 100.765 348.347 101.771C348.218 102.466 347.626 102.629 346.992 102.608C346.696 102.605 346.41 102.504 346.177 102.32C345.945 102.137 345.78 101.881 345.708 101.594C345.59 101.304 345.577 100.981 345.673 100.682C345.769 100.384 345.967 100.129 346.232 99.9616Z" fill="#F8AEB0"/>
<path d="M330.232 63.9616C331.322 63.6997 331.708 61.5564 333.126 62.8616C334.544 64.1669 332.532 64.7652 332.347 65.7707C332.218 66.4658 331.626 66.6292 330.992 66.6077C330.696 66.6048 330.41 66.5037 330.177 66.3202C329.945 66.1367 329.78 65.8813 329.708 65.5941C329.59 65.3036 329.577 64.9808 329.673 64.6823C329.769 64.3838 329.967 64.1287 330.232 63.9616Z" fill="#F8AEB0"/>
<path d="M367.232 38.9616C368.322 38.6997 368.708 36.5564 370.126 37.8616C371.544 39.1669 369.532 39.7652 369.347 40.7707C369.218 41.4658 368.626 41.6292 367.992 41.6077C367.696 41.6048 367.41 41.5037 367.177 41.3202C366.945 41.1367 366.78 40.8813 366.708 40.5941C366.59 40.3036 366.577 39.9808 366.673 39.6823C366.769 39.3838 366.967 39.1287 367.232 38.9616Z" fill="#F8AEB0"/>
<path d="M354.232 39.9616C355.322 39.6997 355.708 37.5564 357.126 38.8616C358.544 40.1669 356.532 40.7652 356.347 41.7707C356.218 42.4658 355.626 42.6292 354.992 42.6077C354.696 42.6048 354.41 42.5037 354.177 42.3202C353.945 42.1367 353.78 41.8813 353.708 41.5941C353.59 41.3036 353.577 40.9808 353.673 40.6823C353.769 40.3838 353.967 40.1287 354.232 39.9616Z" fill="#F8AEB0"/>
<path d="M367.232 97.9616C368.322 97.6997 368.708 95.5564 370.126 96.8616C371.544 98.1669 369.532 98.7652 369.347 99.7707C369.218 100.466 368.626 100.629 367.992 100.608C367.696 100.605 367.41 100.504 367.177 100.32C366.945 100.137 366.78 99.8813 366.708 99.5941C366.59 99.3036 366.577 98.9808 366.673 98.6823C366.769 98.3838 366.967 98.1287 367.232 97.9616Z" fill="#F8AEB0"/>
<path d="M331.232 97.9616C332.322 97.6997 332.708 95.5564 334.126 96.8616C335.544 98.1669 333.532 98.7652 333.347 99.7707C333.218 100.466 332.626 100.629 331.992 100.608C331.696 100.605 331.41 100.504 331.177 100.32C330.945 100.137 330.78 99.8813 330.708 99.5941C330.59 99.3036 330.577 98.9808 330.673 98.6823C330.769 98.3838 330.967 98.1287 331.232 97.9616Z" fill="#F8AEB0"/>
<path d="M336.883 89.6693C337.735 88.9462 336.226 86.6797 338.195 86.7205C339.876 86.757 340.462 88.6428 340.647 90.1782C340.799 91.4843 339.844 92.0264 338.621 91.9776C337.285 91.9078 336.833 91.0935 336.883 89.6693Z" fill="#F8AEB0"/>
<path d="M336.092 37.2279C335.939 38.3328 335.39 39.0871 334.257 39.1766C333.993 39.2231 333.723 39.2108 333.465 39.1406C333.206 39.0705 332.966 38.9442 332.762 38.7708C332.558 38.5973 332.394 38.3809 332.282 38.1371C332.171 37.8932 332.114 37.6278 332.116 37.3598C332.093 37.1135 332.122 36.8652 332.201 36.631C332.279 36.3967 332.406 36.1818 332.573 36.0002C332.74 35.8185 332.944 35.6741 333.17 35.5763C333.396 35.4785 333.641 35.4296 333.888 35.4326C335.159 35.3159 335.797 36.0712 336.092 37.2279Z" fill="#F8AEB0"/>
<path d="M381.377 63.5162C381.474 64.2404 381.331 64.9758 380.97 65.6091C379.68 66.2754 378.447 66.5253 377.58 64.9919C376.962 63.9272 377.569 63.0607 378.417 62.5507C379.653 61.842 380.579 62.6442 381.377 63.5162Z" fill="#F8AEB0"/>
<path d="M369.68 86.2813C369.448 86.8156 369.106 87.294 368.675 87.6847C368.244 88.0755 367.735 88.3696 367.182 88.5476C366.619 88.6991 365.992 88.0664 366.192 87.6387C366.675 86.6071 366.821 85.1765 368.272 84.9311C369.096 84.7893 369.562 85.3159 369.68 86.2813Z" fill="#F8AEB0"/>
<path d="M340.314 150.112C339.949 150.114 339.588 150.039 339.253 149.892C338.609 149.61 338.103 149.081 337.844 148.423C337.586 147.765 337.598 147.031 337.877 146.383C349.883 118.415 337.807 110.6 337.658 110.525C337.057 110.158 336.625 109.565 336.457 108.878C336.289 108.19 336.399 107.465 336.763 106.86C337.126 106.256 337.713 105.822 338.396 105.655C339.078 105.487 339.798 105.599 340.4 105.967C341.069 106.375 356.557 116.327 342.713 148.509C342.51 148.982 342.175 149.385 341.75 149.669C341.324 149.954 340.825 150.108 340.314 150.112Z" fill="#B76567"/>
<path d="M338.74 146.561C354.465 136.752 366.471 148.211 360.795 150.063C360.795 150.063 333.951 153.976 338.74 146.561Z" fill="#B76567"/>
<path d="M347.877 129.39C345.906 127.499 345.268 125.417 346.959 122.995C356.333 111.486 356.649 96.4691 347.805 81.9926C347.051 80.7636 346.08 79.6421 345.485 78.3432C344.669 76.5652 344.567 74.6993 346.44 73.4394C348.312 72.1794 350.069 72.7862 351.266 74.4295C361.857 88.9689 366.193 109.471 353.826 125.999C353.159 126.918 349.466 129.337 347.877 129.39Z" fill="#FEB4B4"/>
<path d="M374.929 54.607C375.289 55.9444 375.349 57.123 374.733 58.256C374.507 58.6899 374.185 59.0667 373.793 59.3582C372.645 60.2098 371.236 60.6353 369.808 60.5621C369.162 60.5417 368.536 60.3288 368.011 59.9507C367.485 59.5727 367.083 59.0465 366.857 58.4395C366.339 57.3256 366.119 56.0968 366.218 54.8735C366.381 52.7981 367.666 51.5453 369.612 51.1808C370.297 51.016 371.012 51.0218 371.695 51.1979C372.378 51.3739 373.009 51.7147 373.531 52.1906C374.239 52.8288 374.728 53.6746 374.929 54.607Z" fill="#AE5555"/>
<path d="M358.26 59.0676C358.507 59.7907 358.586 60.5601 358.492 61.3176C358.44 61.7657 358.29 62.1965 358.052 62.5791C357.814 62.9617 357.495 63.2867 357.117 63.5308C356.067 64.2229 354.83 64.5773 353.573 64.5465C352.818 64.5644 352.077 64.3475 351.45 63.9256C350.823 63.5038 350.341 62.8978 350.072 62.1911C349.472 60.8172 349.176 59.3942 349.737 57.9254C349.959 57.3478 350.304 56.8259 350.748 56.3959C351.192 55.966 351.725 55.6384 352.308 55.4358C353.275 54.9992 354.369 54.94 355.379 55.2699C356.782 55.7981 357.544 56.8941 358.058 58.2256C358.142 58.502 358.21 58.7832 358.26 59.0676Z" fill="#AE5555"/>
<path d="M226.017 79.9895L240.063 80.0048L235.508 84.5648L237.008 86.0647L244.054 79.0103L236.984 71.9405L235.49 73.4372L240.06 78.0071L226.013 77.9918L226.017 79.9895Z" fill="#404040"/>
<path d="M369.532 55.9566C369.64 56.3185 369.615 56.7069 369.462 57.0512C369.411 57.1791 369.331 57.2931 369.228 57.3839C369.125 57.4746 369.002 57.5396 368.869 57.5735C368.736 57.6073 368.597 57.6091 368.463 57.5787C368.329 57.5483 368.204 57.4865 368.099 57.3984C367.898 57.2488 367.734 57.0544 367.621 56.8307C367.508 56.607 367.448 56.3601 367.447 56.1095C367.437 55.9692 367.476 55.83 367.557 55.7152C367.707 55.5254 367.906 55.3804 368.133 55.2959C368.359 55.2114 368.604 55.1907 368.842 55.2359C369.021 55.2607 369.187 55.3454 369.312 55.4762C369.437 55.607 369.515 55.7763 369.532 55.9566Z" fill="#FFFEFE"/>
<path d="M353.326 59.7672C353.425 60.1925 353.364 60.639 353.156 61.0217C353.09 61.1637 352.994 61.2892 352.874 61.3891C352.754 61.4891 352.613 61.5609 352.462 61.5995C352.31 61.638 352.152 61.6423 351.999 61.612C351.846 61.5817 351.701 61.5175 351.575 61.4242C351.311 61.2434 351.096 61.0002 350.948 60.7163C350.8 60.4325 350.724 60.1165 350.726 59.7965C350.719 59.6187 350.765 59.443 350.858 59.2915C350.951 59.14 351.086 59.0196 351.247 58.9455C351.436 58.8402 351.64 58.7646 351.852 58.721C352.642 58.5475 353.127 58.8592 353.326 59.7672Z" fill="#FFFEFE"/>
<path d="M482 80L496.07 80L491.5 84.5703L493 86.0703L500.07 79L493 71.9297L491.5 73.4297L496.07 78L482 78L482 80Z" fill="#404040"/>
<path d="M641.887 124.647C640.113 123.322 639.394 121.709 640.517 119.592C646.934 109.398 645.708 97.2814 637.157 86.5105C636.428 85.5964 635.535 84.7904 634.927 83.8043C634.095 82.4546 633.829 80.9631 635.213 79.7629C636.598 78.5628 638.073 78.8764 639.199 80.0799C649.165 90.7277 654.679 106.796 646.345 121.326C645.898 122.133 643.162 124.446 641.887 124.647Z" fill="#FEB4B4"/>
<path d="M654.268 142.807C652.15 141.307 649.7 140.723 647.296 140.017C644.527 139.277 641.704 138.757 638.854 138.463C634.957 137.312 629.657 136.613 623.814 136.634C619.321 136.607 614.842 137.104 610.467 138.114C607.091 138.785 603.688 139.351 600.365 140.224C597.043 141.098 593.668 141.946 591.469 144.954L591.482 147.119C592.056 148.289 593.016 149.225 594.2 149.767C598.103 151.81 602.283 152.687 606.562 153.308C609.746 153.777 612.974 153.54 616.162 153.957L632.154 153.9C635.237 153.456 638.325 153.034 641.409 152.568C645.818 151.899 650.151 150.948 654.062 148.665C656.956 146.975 656.981 144.723 654.268 142.807Z" fill="#E0D6DF"/>
<path d="M629.446 144.441C629.15 144.443 628.858 144.382 628.586 144.263C628.064 144.034 627.654 143.605 627.444 143.072C627.235 142.538 627.244 141.944 627.47 141.418C637.201 118.745 627.412 112.409 627.292 112.349C626.804 112.051 626.454 111.571 626.318 111.013C626.182 110.456 626.271 109.868 626.565 109.378C626.86 108.888 627.336 108.536 627.889 108.4C628.442 108.265 629.026 108.356 629.513 108.654C630.056 108.985 642.61 117.052 631.39 143.142C631.226 143.525 630.955 143.851 630.61 144.082C630.265 144.313 629.86 144.437 629.446 144.441Z" fill="#C1686A"/>
<path d="M627.87 141.483C640.617 133.53 650.351 142.822 645.749 144.323C645.749 144.323 623.988 147.495 627.87 141.483Z" fill="#C1686A"/>
<path d="M638.325 65.1767C651.987 90.4833 638.189 128.925 608.27 123.759C586.693 120.029 600.8 90.2264 602.655 92.4894C601.737 91.3533 598.661 90.4844 598.656 86.9822C598.653 84.981 600.361 83.9132 600.644 82.4813C595.977 75.6761 590.648 68.0523 592.957 60.2057C597.897 43.3959 625.077 40.6338 638.325 65.1767Z" fill="#923D38"/>
<path d="M604.53 63.762C605.618 64.3547 607.518 62.8864 607.717 65.0044C607.916 67.1224 605.823 66.1225 604.929 66.8089C604.31 67.2825 603.703 66.9777 603.199 66.4909C602.959 66.2694 602.798 65.9743 602.743 65.6521C602.688 65.3298 602.741 64.9986 602.895 64.7105C603.012 64.385 603.24 64.1116 603.539 63.9381C603.838 63.7647 604.189 63.7023 604.53 63.762Z" fill="#C86E56"/>
<path d="M618.465 50.0468C620.111 50.9438 622.986 48.7217 623.287 51.9268C623.588 55.1319 620.422 53.6188 619.069 54.6575C618.132 55.3742 617.214 54.9129 616.451 54.1763C616.087 53.8411 615.844 53.3946 615.761 52.907C615.678 52.4193 615.758 51.9181 615.99 51.4822C616.168 50.9896 616.513 50.5758 616.966 50.3133C617.418 50.0508 617.949 49.9565 618.465 50.0468Z" fill="#C86E56"/>
<path d="M603.328 99.5505C604.36 98.675 602.533 95.9309 604.916 95.9804C606.952 96.0246 607.662 98.3078 607.886 100.167C608.069 101.748 606.914 102.404 605.432 102.345C603.815 102.261 603.268 101.275 603.328 99.5505Z" fill="#C86E56"/>
<path d="M626.024 106.112C626.92 105.352 625.334 102.97 627.403 103.013C629.17 103.051 629.786 105.033 629.981 106.647C630.14 108.02 629.137 108.59 627.851 108.538C626.447 108.465 625.972 107.609 626.024 106.112Z" fill="#C86E56"/>
<path d="M602.683 56.9126C602.559 57.8084 602.114 58.4199 601.195 58.4924C600.982 58.5301 600.763 58.5201 600.553 58.4632C600.344 58.4064 600.149 58.304 599.984 58.1634C599.818 58.0227 599.685 57.8473 599.595 57.6497C599.504 57.452 599.458 57.2368 599.46 57.0195C599.441 56.8198 599.464 56.6185 599.528 56.4287C599.592 56.2388 599.695 56.0646 599.83 55.9173C599.966 55.77 600.131 55.6529 600.314 55.5737C600.498 55.4944 600.696 55.4548 600.896 55.4572C601.927 55.3626 602.444 55.9749 602.683 56.9126Z" fill="#C86E56"/>
<path d="M639.395 78.2239C639.473 78.8109 639.357 79.4071 639.064 79.9205C638.019 80.4606 637.019 80.6632 636.317 79.4201C635.815 78.5569 636.307 77.8545 636.995 77.4411C637.997 76.8665 638.747 77.5169 639.395 78.2239Z" fill="#C86E56"/>
<path d="M629.912 96.6792C629.724 97.1123 629.446 97.5001 629.097 97.8168C628.748 98.1336 628.336 98.372 627.887 98.5163C627.43 98.6391 626.923 98.1262 627.084 97.7795C627.476 96.9433 627.594 95.7836 628.771 95.5847C629.439 95.4698 629.817 95.8967 629.912 96.6792Z" fill="#C86E56"/>
<path d="M608.873 107.116C608.685 107.549 608.407 107.937 608.058 108.254C607.709 108.571 607.296 108.809 606.848 108.953C606.391 109.076 605.883 108.563 606.045 108.217C606.437 107.38 606.555 106.221 607.731 106.022C608.399 105.907 608.777 106.334 608.873 107.116Z" fill="#C86E56"/>
<path d="M610.873 53.1167C610.685 53.5498 610.407 53.9376 610.058 54.2543C609.709 54.5711 609.296 54.8095 608.848 54.9538C608.391 55.0766 607.883 54.5637 608.045 54.217C608.437 53.3808 608.555 52.2211 609.731 52.0222C610.399 51.9073 610.777 52.3342 610.873 53.1167Z" fill="#C86E56"/>
<path d="M630.873 57.1167C630.685 57.5497 630.407 57.9375 630.058 58.2543C629.709 58.571 629.296 58.8094 628.848 58.9537C628.391 59.0764 627.883 58.5636 628.045 58.2169C628.437 57.3807 628.555 56.2211 629.731 56.0222C630.399 55.9073 630.777 56.3342 630.873 57.1167Z" fill="#C86E56"/>
<path d="M609.873 81.1167C609.685 81.5497 609.407 81.9375 609.058 82.2543C608.709 82.571 608.296 82.8094 607.848 82.9537C607.391 83.0764 606.883 82.5636 607.045 82.2169C607.437 81.3807 607.555 80.2211 608.731 80.0222C609.399 79.9073 609.777 80.3342 609.873 81.1167Z" fill="#C86E56"/>
<path d="M640.713 92.764C640.415 93.4498 639.975 94.0638 639.422 94.5654C638.869 95.0669 638.216 95.4445 637.505 95.6729C636.782 95.8673 635.978 95.0552 636.234 94.5063C636.854 93.1821 637.041 91.3458 638.905 91.0308C639.963 90.8489 640.561 91.5248 640.713 92.764Z" fill="#C86E56"/>
<path d="M629.55 115.768C629.253 116.454 628.813 117.068 628.26 117.569C627.707 118.071 627.053 118.448 626.343 118.677C625.62 118.871 624.815 118.059 625.071 117.51C625.692 116.186 625.879 114.35 627.742 114.035C628.8 113.853 629.399 114.529 629.55 115.768Z" fill="#C86E56"/>
<path d="M606.107 148.425C605.812 148.427 605.519 148.366 605.248 148.247C604.726 148.018 604.315 147.589 604.106 147.056C603.896 146.522 603.906 145.927 604.132 145.402C613.862 122.729 604.074 116.393 603.953 116.333C603.466 116.035 603.116 115.554 602.979 114.997C602.843 114.44 602.932 113.852 603.227 113.362C603.521 112.872 603.997 112.52 604.55 112.384C605.103 112.248 605.687 112.34 606.175 112.638C606.717 112.968 619.272 121.036 608.052 147.126C607.887 147.509 607.616 147.835 607.271 148.066C606.926 148.296 606.522 148.421 606.107 148.425Z" fill="#C1686A"/>
<path d="M604.83 145.546C617.577 137.593 627.311 146.885 622.709 148.386C622.709 148.386 600.948 151.558 604.83 145.546Z" fill="#C1686A"/>
<path d="M612.239 131.627C610.641 130.093 610.124 128.405 611.495 126.442C619.091 117.112 619.347 104.938 612.179 93.2018C611.567 92.2055 610.78 91.2963 610.297 90.2433C609.636 88.8019 609.554 87.2892 611.071 86.2679C612.589 85.2465 614.013 85.7384 614.983 87.0706C623.568 98.8577 627.084 115.479 617.06 128.877C616.52 129.622 613.527 131.583 612.239 131.627Z" fill="#FEB4B4"/>
<path fill-rule="evenodd" clip-rule="evenodd" d="M114.87 71.0797C115.103 71.5526 114.805 72.1148 114.283 72.1876L94.4885 74.9457C94.2165 74.9835 93.9639 74.798 93.9187 74.5271C93.8727 74.2511 94.0592 73.9901 94.3352 73.944L114.049 70.6585C114.385 70.6024 114.719 70.7735 114.87 71.0797Z" fill="#C63837"/>
<path d="M358.746 74.5105C366.208 68.7489 370.361 68.4565 377.746 70.5105" stroke="#C15C5C"/>
<path d="M621.44 87.1378C627.489 82.4669 630.856 82.2299 636.842 83.8951" stroke="#76271F"/>
<path fill-rule="evenodd" clip-rule="evenodd" d="M621.156 74.7102C622.107 74.3617 623.04 73.7031 624.187 72.5216C624.38 72.3235 624.696 72.3108 624.898 72.4984C625.101 72.6861 625.113 73.0032 624.921 73.2016C623.711 74.4505 622.65 75.2276 621.5 75.6491C620.375 76.0618 619.212 76.1157 617.826 76.0055C617.551 75.9836 617.351 75.7374 617.379 75.4626C617.407 75.1879 617.652 74.9887 617.928 75.0103C619.236 75.1127 620.228 75.0507 621.156 74.7102Z" fill="#76271F"/>
<path fill-rule="evenodd" clip-rule="evenodd" d="M631.796 70.234C632.701 69.7809 633.555 69.0215 634.562 67.7186C634.731 67.5002 635.043 67.4519 635.266 67.6157C635.488 67.7794 635.536 68.0931 635.367 68.3118C634.305 69.6888 633.338 70.5802 632.244 71.1282C631.172 71.6648 630.022 71.8491 628.633 71.8952C628.357 71.9044 628.13 71.6823 628.127 71.4061C628.124 71.13 628.346 70.9045 628.622 70.895C629.933 70.8497 630.912 70.6766 631.796 70.234Z" fill="#76271F"/>
<path d="M358.849 62.4897C358.841 63.3901 358.091 64.135 357.349 63.9793C356.52 63.9793 355.849 63.3124 355.849 62.4897C355.849 61.7819 356.404 61.7407 357.036 61.2688C357.248 61.111 357.502 60.9845 357.756 61.0556C358.386 61.2318 358.849 61.8071 358.849 62.4897Z" fill="#BAD3FF"/>
<path d="M371.153 59.205C370.603 58.4914 369.556 58.3493 369.058 58.9208C368.397 59.4203 368.263 60.3572 368.759 61.0136C369.186 61.5783 369.654 61.2766 370.443 61.2717C370.707 61.2701 370.985 61.218 371.145 61.008C371.542 60.4873 371.564 59.7496 371.153 59.205Z" fill="#BAD3FF"/>
<path d="M619.691 76L618.136 79.1667C617.7 80.0476 618.436 81 619.5 81C620.536 81 621.245 80.119 620.918 79.2619L619.691 76Z" fill="#BAD3FF"/>
<defs>
<clipPath id="clip0">
<rect x="40" y="62.0137" width="24" height="57" fill="white"/>
</clipPath>
<clipPath id="clip1">
<rect x="312" y="63.6621" width="21.121" height="50.1623" fill="white"/>
</clipPath>
<clipPath id="clip2">
<rect x="588" y="79" width="17.1223" height="40.6656" fill="white"/>
</clipPath>
</defs>
</svg>
