<svg width="150" height="149" viewBox="0 0 150 149" fill="none" xmlns="http://www.w3.org/2000/svg">
<path d="M149 74.5C149 115.6 115.6 149 74.5 149C33.4 149 0 115.6 0 74.5C0 33.4 33.4 0 74.5 0C115.6 0 149 33.4 149 74.5Z" fill="#F8F6F6"/>
<mask id="mask0" mask-type="alpha" maskUnits="userSpaceOnUse" x="1" y="0" width="149" height="149">
<path d="M150 74.5C150 115.6 116.6 149 75.5 149C34.4 149 1 115.6 1 74.5C1 33.4 34.4 0 75.5 0C116.6 0 150 33.4 150 74.5Z" fill="#F8F6F6"/>
</mask>
<g mask="url(#mask0)">
<path d="M46.1097 65.041C42.7097 68.441 37.8097 87.941 39.9097 111.641C38.0097 131.141 34.6097 144.141 36.6097 147.541C39.9097 155.541 46.7097 153.741 51.4097 157.241C53.5097 152.441 51.3097 90.641 49.4097 80.341C48.5097 75.741 46.1097 65.041 46.1097 65.041Z" fill="#FFC09D"/>
<path d="M87.4097 62.3406C85.9097 60.8406 84.3097 44.0406 84.2097 39.1406C76.9097 36.5406 66.3097 46.4406 64.0097 48.7406C64.0097 59.1406 61.0097 79.1406 66.9097 78.8406C95.5097 77.3406 87.4097 62.3406 87.4097 62.3406Z" fill="#ECAF8D"/>
<path d="M51.1096 111.14C50.5096 104.94 42.3096 103.14 43.2096 96.4404C44.1096 89.2404 47.6096 87.6404 46.9096 80.2404C46.6096 77.2404 43.8096 67.7404 46.2096 65.1404C48.3096 62.8404 60.0096 63.3404 62.9096 62.6404C63.0096 63.5404 64.2096 65.7404 64.3096 66.7404L68.9096 71.6404L87.4096 62.4404C87.4096 62.4404 88.9096 60.0404 88.9096 60.2404L107.41 68.1404C98.1096 68.8404 97.3096 80.5404 97.9096 87.4404C98.2096 90.7404 102.11 93.0404 103.01 96.1404C104.01 99.6404 99.1096 105.34 97.9096 108.54C95.7096 114.84 95.0096 119.74 93.9096 126.34C93.4096 129.44 97.4096 131.54 96.7096 133.84C96.3096 134.94 94.1096 135.14 93.9096 136.24C93.6096 137.44 95.1096 137.74 95.9096 138.44C98.5096 140.84 96.2096 142.84 96.9096 145.74C97.5096 147.84 100.41 156.44 100.91 156.64C96.7096 160.84 73.9096 161.34 69.9096 161.54C58.8096 162.14 46.1096 154.44 41.3096 154.44C44.4096 139.74 52.7096 126.14 51.1096 111.14Z" fill="#FCE587"/>
<path d="M53.7095 108.24C65.4095 113.14 82.6095 117.64 95.1095 97.04C93.0095 100.64 92.8095 116.44 93.2095 121.04C93.6095 125.44 93.9095 127.24 93.2095 131.84C91.0095 132.44 90.6095 134.14 91.2095 136.84C91.9095 140.24 92.8095 137.44 94.6095 139.84C99.3095 145.74 92.5095 144.44 98.3095 153.84C94.6095 152.04 87.8095 148.44 90.3095 144.44C84.7095 141.94 84.0095 138.14 85.1095 132.44C85.5095 130.34 87.1095 128.64 87.5095 125.94C87.8095 123.44 86.6095 120.44 86.8095 117.74C78.0095 116.54 62.2095 116.84 55.0095 111.74L53.7095 108.24Z" fill="#FDD36A"/>
<path d="M80 139.496C80 147.428 73.4953 153.992 65.6355 153.992C57.5047 154.265 51 147.701 51 139.496C51 131.564 57.5047 125 65.3645 125C73.4953 125 80 131.564 80 139.496Z" fill="url(#paint0_radial)"/>
<path d="M95.4099 13.0409C94.9099 9.34087 93.9099 5.24087 89.8099 4.24087C86.1099 3.34087 81.7099 5.04087 79.4099 8.04087C78.4099 9.24087 78.0099 10.6409 77.6099 12.1409L95.4099 13.0409Z" fill="#00314E"/>
<path d="M91.3097 28.1409C92.8097 25.6409 94.2097 23.1409 95.3097 20.4409C96.1097 18.4409 97.3097 15.2409 95.7097 13.3409C94.2097 11.4409 90.9097 11.1409 88.7097 10.8409C85.9097 10.4409 83.0097 10.2409 80.2097 10.9409C78.0097 11.4409 76.1097 12.5409 74.4097 13.9409L91.3097 28.1409Z" fill="#063754"/>
<path d="M77.6099 12.4405C80.2099 11.7405 83.1099 11.5405 85.8099 11.7405C87.7099 11.8405 89.5099 12.4405 91.2099 13.1405C91.8099 13.4405 94.5099 14.5405 93.5099 15.1405C93.0099 15.4405 91.4099 14.9405 90.8099 14.8405C89.7099 14.6405 88.6099 14.5405 87.5099 14.3405C87.5099 14.3405 87.4099 14.4405 87.5099 14.4405C89.2099 15.9405 91.0099 16.7405 91.8099 19.0405C92.2099 20.3405 92.6099 21.8405 91.9099 23.0405C91.0099 22.4405 90.5099 20.8405 89.8099 19.9405C88.9099 18.6405 87.8099 17.4405 86.6099 16.5405C84.9099 15.1405 82.6099 14.0405 80.4099 13.6405L77.6099 12.4405Z" fill="#00314E"/>
<path d="M80.2097 42.7406C79.6097 36.8406 79.0097 27.4406 76.2097 23.7406C73.0097 19.4406 67.8097 19.5406 63.3097 20.0406C58.8097 20.5406 53.7097 21.4406 51.4097 26.2406C49.4097 30.3406 50.8097 38.5406 51.8097 44.4406C53.0097 51.9406 53.9097 56.8406 61.2097 62.2406C62.9097 63.4406 65.2097 67.1406 73.1097 59.6406C78.2097 54.7406 81.0097 50.2406 80.2097 42.7406Z" fill="#FFC09D"/>
<path d="M79.5098 40.4413C80.6098 39.7413 85.8098 40.8413 83.0098 49.4413C84.3098 48.3413 83.8098 51.1413 84.0098 53.1413C89.6098 46.2413 91.9098 41.9413 92.2098 38.8413C93.3098 27.3413 88.0098 18.4413 85.3098 16.6413C81.5098 14.2413 80.6098 11.1413 69.9098 12.2413C65.1098 12.7413 55.9098 16.1413 52.4098 20.3413C49.5098 23.9413 48.2098 29.5413 50.6098 31.0413C51.4098 29.3413 52.6098 28.0413 54.3098 27.7413C55.4098 26.7413 56.5098 25.3413 58.6098 26.9413C62.0098 23.4413 66.6098 25.4413 68.6098 28.1413C73.0098 26.7413 80.5098 34.6413 79.5098 40.4413Z" fill="#00314E"/>
<path d="M71.7097 27.0416C71.0097 22.3416 80.4097 21.2416 78.3097 16.6416C80.5097 19.0416 81.3097 22.6416 78.3097 24.9416C77.6097 25.4416 76.8097 25.7416 76.0097 26.0416C78.0097 25.1416 81.8097 26.4416 82.5097 23.5416C83.3097 28.8416 76.0097 26.6416 73.1097 27.3416L71.7097 27.0416Z" fill="#00314E"/>
<path d="M58.01 25.841C57.01 17.941 63.41 14.941 69.81 13.041C67.11 15.641 61.21 17.741 61.91 22.341C61.31 19.641 67.81 18.441 68.71 15.941C67.91 19.641 63.31 20.441 62.41 23.841C60.71 23.941 59.11 24.441 58.31 26.041L58.01 25.841Z" fill="#00314E"/>
<path d="M79.1099 40.4406C83.8099 35.4406 83.0099 44.6406 82.1099 47.1406C81.7099 48.0406 80.5099 49.9406 79.4099 50.2406L79.1099 40.4406Z" fill="#FFC09D"/>
<path d="M63.9884 139.813C65.4884 137.313 71.0884 129.413 71.0884 129.413C71.0884 129.413 68.6884 130.113 67.9884 130.013C63.8884 129.713 64.1884 126.513 64.1884 126.513L66.9884 126.913L75.5884 122.113L82.8884 123.113L82.9884 123.313C87.9884 122.313 92.6884 119.413 97.5884 117.713C102.388 116.013 105.688 114.313 110.088 112.113C104.688 102.213 100.888 98.0135 97.0884 93.6135C91.6884 87.2135 97.0884 61.1135 106.988 68.2135C111.788 71.7135 126.088 105.813 126.888 114.613C127.088 117.413 128.488 122.713 126.188 124.713C125.188 125.613 118.388 126.913 116.388 127.413C108.588 129.313 105.888 129.313 97.1884 129.713C93.5884 129.913 90.2884 129.813 88.0884 131.413L85.6884 136.313L85.0884 136.913C84.9884 137.013 84.7884 137.213 84.6884 137.313L82.2883 139.513C82.1883 139.713 82.1884 139.813 82.0884 140.013C82.0884 140.013 75.7884 148.113 74.9884 147.613C74.1884 147.113 73.9884 146.113 74.5884 145.213C74.5884 145.213 69.6884 150.513 68.6884 149.913C67.6884 149.413 67.8884 147.613 68.5884 146.413C67.7884 147.113 65.4884 148.513 64.6884 148.113C63.6884 147.613 63.5884 146.213 64.4884 145.013L66.9884 141.513L64.4884 144.113C64.2884 144.113 61.5884 143.913 63.9884 139.813Z" fill="#FFC09D"/>
<g clip-path="url(#clip0)">
<path d="M32.0294 121.915C31.9111 122.031 31.8377 122.185 31.8218 122.351C31.806 122.516 31.8488 122.681 31.9428 122.818L36.8305 130.789L36.8325 130.789C36.8631 130.844 36.901 130.896 36.9452 130.941C37.0765 131.074 37.2554 131.15 37.4426 131.152C37.6298 131.153 37.81 131.081 37.9435 130.949L40.7117 128.227L44.8174 133.893C44.8432 133.932 44.8729 133.969 44.9061 134.003C45.0374 134.136 45.2163 134.212 45.4035 134.214C45.5907 134.215 45.7709 134.142 45.9044 134.011C45.9957 133.921 46.0608 133.808 46.0925 133.683C46.1243 133.559 46.1217 133.429 46.0848 133.306L46.0858 133.305L43.1964 123.398L43.1828 123.394C43.161 123.252 43.1096 123.115 43.0018 123.005C42.7286 122.727 42.2813 122.724 42.0035 122.997L39.2353 125.719L36.2063 119.203C36.1716 119.11 36.1175 119.025 36.0475 118.954C35.9162 118.82 35.7373 118.744 35.5501 118.743C35.3629 118.741 35.1827 118.814 35.0492 118.945L32.0294 121.915Z" fill="#EB5757"/>
</g>
<path d="M50.6502 116.106C50.5532 116.132 50.4686 116.191 50.411 116.273C50.3534 116.355 50.3267 116.455 50.3354 116.555L50.5325 122.209L50.5335 122.21C50.5331 122.248 50.5378 122.286 50.5476 122.323C50.5769 122.433 50.6485 122.526 50.7466 122.583C50.8447 122.639 50.9612 122.655 51.0707 122.625L53.3397 122.018L53.8123 126.224C53.8141 126.253 53.8188 126.281 53.8262 126.309C53.8556 126.418 53.9271 126.511 54.0252 126.568C54.1233 126.625 54.2399 126.64 54.3493 126.611C54.4243 126.591 54.4923 126.55 54.5461 126.494C54.5998 126.438 54.6374 126.369 54.6546 126.293L54.6554 126.293L56.0876 120.216L56.0816 120.209C56.1122 120.128 56.1262 120.041 56.1021 119.951C56.0411 119.723 55.8068 119.588 55.579 119.649L53.31 120.257L53.6576 115.923C53.6673 115.864 53.6642 115.803 53.6485 115.744C53.6192 115.635 53.5476 115.542 53.4495 115.485C53.3514 115.428 53.2349 115.413 53.1254 115.442L50.6502 116.106Z" fill="#EB5757"/>
</g>
<defs>
<radialGradient id="paint0_radial" cx="0" cy="0" r="1" gradientUnits="userSpaceOnUse" gradientTransform="translate(65.4347 139.567) scale(14.435 14.567)">
<stop offset="0.0832259" stop-color="#EA2154" stop-opacity="0.57"/>
<stop offset="0.9745" stop-color="#FCE587"/>
</radialGradient>
<clipPath id="clip0">
<rect x="25" y="126.848" width="21.1769" height="21.1769" transform="rotate(-44.5193 25 126.848)" fill="white"/>
</clipPath>
</defs>
</svg>
