<svg width="149" height="150" viewBox="0 0 149 150" fill="none" xmlns="http://www.w3.org/2000/svg">
<path d="M149 74.5C149 115.6 115.6 149 74.5 149C33.4 149 0 115.6 0 74.5C0 33.4 33.4 0 74.5 0C115.6 0 149 33.4 149 74.5Z" fill="#F8F6F6"/>
<mask id="mask0" mask-type="alpha" maskUnits="userSpaceOnUse" x="0" y="0" width="147" height="150">
<path d="M146.9 74.9C146.9 116.3 114 149.8 73.4 149.8C32.9 149.8 0 116.3 0 74.9C0 33.5 32.9 0 73.5 0C114 0 146.9 33.5 146.9 74.9Z" fill="#F8F6F6"/>
</mask>
<g mask="url(#mask0)">
<path d="M87.0988 67.5998C87.0988 67.5998 78.9988 80.6998 73.3988 80.5998C67.9988 80.4998 60.7988 67.5998 60.7988 67.5998L60.9988 47.7998H86.9988L87.0988 67.5998Z" fill="#F7995A"/>
<path d="M88.5988 37.7997C93.7988 33.0997 92.1988 42.6997 90.8988 45.1997C90.4988 46.0997 89.4988 47.8997 88.2988 48.0997L88.5988 37.7997Z" fill="#F7995A"/>
<path d="M58.2998 37.7997C53.0998 33.0997 54.6998 42.6997 55.9998 45.1997C56.3998 46.0997 57.3998 47.8997 58.5998 48.0997L58.2998 37.7997Z" fill="#F7995A"/>
<path d="M88.8002 41.2998C88.3002 35.2998 89.7002 25.7998 87.1002 21.7998C84.1002 17.1998 78.4002 16.7998 73.5002 16.7998C68.6002 16.7998 62.9002 17.1998 59.9002 21.7998C57.3002 25.7998 58.7002 35.2998 58.2002 41.2998C57.6002 48.8998 59.7002 54.1998 65.5002 58.8998C67.2002 60.2998 71.2002 61.0998 73.4002 61.1998C75.6002 61.1998 79.6002 60.2998 81.3002 58.8998C87.2002 54.1998 89.4002 48.9998 88.8002 41.2998Z" fill="#F7AC6F"/>
<path d="M84.3002 46.4C83.9002 40.9 87.7002 34 85.3002 30.3C82.5002 26.1 77.4002 24 72.9002 24C68.4002 24 64.2002 26.5 61.4002 30.8C59.0002 34.4 63.4002 40.8 62.6002 46.2C61.5002 53.2 60.8002 53.8 66.2002 58.1C67.8002 59.4 71.4002 60.2 73.5002 60.2C75.6002 60.2 79.2002 59.4 80.8002 58.1C86.1002 53.8 84.9002 53.4 84.3002 46.4Z" fill="url(#paint0_radial)"/>
<path d="M92.0996 20.5C91.7996 19.5 88.7996 15.5 88.7996 15.5L83.5996 10.9C83.5996 10.9 74.2996 7.90001 72.7996 7.50001C69.2996 6.40001 64.2996 10.4 64.2996 10.4L61.3996 13.4L61.2996 12.5C61.2996 12.5 56.1996 17 54.9996 22.7C54.1996 26.1 54.7996 34.2 55.7996 36.6C55.7996 36.6 57.5996 38 58.1996 37.9C58.0996 35.3 59.1996 31.7 59.1996 29.8C59.6996 28.2 63.5996 21.8 65.3996 21.2C67.2996 19.3 72.7996 21.6 72.7996 21.6L76.5996 20.2C76.5996 20.2 77.4996 21.7 77.9996 21.9C78.8996 22.3 81.8996 21.6 81.8996 21.6C86.1996 24 87.3996 30.7 87.3996 30.7C87.3996 30.7 88.5996 35.3 88.4996 37.9C89.0996 38 91.2996 36.6 91.2996 36.6C91.6996 33.6 93.4996 25.5 92.0996 20.5Z" fill="#01324F"/>
<path d="M79.3994 18.7C81.3994 14.5 73.1994 12.2 70.3994 11.5C70.8994 12.1 71.1993 12.8 71.5993 13.4C70.0993 12.4 67.7993 11.8 65.9993 11.5C65.9993 11.5 65.9993 11.5 66.0993 11.5C69.0993 13.8 61.9993 15.3 63.0993 18.7C64.6993 17.9 66.8994 17.9 68.7994 18C69.6994 18 73.1993 19.6 73.9993 19.6C75.0993 19.5 73.5993 17.7 74.8994 17.8C75.7993 17.8 79.3994 18.7 79.3994 18.7Z" fill="#063754"/>
<path d="M99.999 132.8L101.899 128.9L101.699 123.7L109.899 71.0002L96.099 64.7002L74.799 74.0002L73.399 81.1002L72.099 74.0002L50.799 64.7002L36.999 71.0002L45.199 123.7L44.999 128.9L46.899 132.8L46.399 137.7L41.899 154.7C41.899 154.7 50.099 157.8 73.499 157.8C96.799 157.8 103.799 154.7 103.799 154.7L100.599 137.7L99.999 132.8Z" fill="#FCE587"/>
<path d="M69.8988 70.7002L72.0988 74.0002L68.5988 72.8002L64.9988 78.2002L50.7988 64.7002L58.1988 59.2002L69.8988 70.7002Z" fill="#FDD36A"/>
<path d="M42.7992 117L43.5992 113.2L36.9992 71L32.5992 77L21.6992 112.1L42.7992 117Z" fill="#FDD36A"/>
<path d="M76.9988 70.7002L74.7988 74.0002L78.2988 72.8002L81.8988 78.2002L96.1988 64.7002L88.6988 59.2002L76.9988 70.7002Z" fill="#FDD36A"/>
<path d="M47.1988 131.8C52.6988 136.9 63.5988 133.2 68.8988 137.5C62.6988 140.6 47.4988 137.9 57.7988 147.8C53.7988 147.9 50.2988 146.4 46.2988 146.7C46.5988 143.2 47.9988 139.4 47.3988 136.3L47.1988 131.8Z" fill="#FDD36A"/>
<path d="M99.8994 136.7C97.5994 141.4 90.7994 140.9 85.8994 141.8C88.1994 144.4 93.3994 143.9 97.2994 144C96.6994 144.6 95.9994 145.5 95.0994 146.2C96.4994 146.6 100.699 146.8 100.999 146.8L99.8994 136.7Z" fill="#FDD36A"/>
<path d="M39.0995 129.482L20.3935 136.001L23.6462 112.553L42.58 116.567L39.0995 129.482Z" fill="#F7995A"/>
<path d="M101.823 127.433L81.5 132.5L51.5005 134.5C51.5005 134.5 77.037 143.702 83.4995 144.5C89.8622 145.304 109.56 146.988 109.56 146.988C109.56 146.988 121.998 136 119.998 99.5C111.676 96.2138 106.497 109 106.497 109L101.823 127.433Z" fill="#FCAC6B"/>
<path d="M99.8664 129.76L104.5 129L106.063 105.525L101.825 127.433L57.501 134.5L82 133L99.8664 129.76Z" fill="#F48A42"/>
<path d="M104.099 117L103.299 113.2L109.899 71L114.299 77L125.199 112.1L104.099 117Z" fill="#FDD36A"/>
<path d="M59.501 120.001L89.0007 113.001L89.0007 120.001L94.001 123.719C94.001 123.719 33.6026 147.128 21.9366 141.564C16.0041 133.481 27.501 121.501 27.501 121.501L59.501 120.001Z" fill="#F7AC6F"/>
<path d="M93.6112 104.381L94.6171 101.506C94.6171 101.506 97.8055 102.691 96.1765 106.712C95.9182 107.331 94.1457 109.256 94.1457 109.256C94.1457 109.256 104.154 107.568 107.246 107.356C112.235 107.015 111.009 109.604 111.009 109.604L107.379 110.755L111.841 110.049C113.331 109.846 114.683 110.556 114.665 111.76C114.726 112.657 112.221 114.132 111.251 114.6C112.741 114.397 114.491 115.079 114.474 116.283C114.463 117.587 107.289 119.682 107.289 119.682C108.38 119.507 109.232 120.251 109.294 121.149C109.362 122.146 98.8829 124.268 98.8829 124.268C98.6833 124.281 98.4838 124.295 98.2843 124.309L93.6909 126.027L86.6731 126.006L82.6659 117.26L85.0738 109.978L93.6112 104.381Z" fill="#FFB579"/>
<path d="M122.29 102.143C122.421 101.577 122.734 101.186 123.229 100.97C123.34 100.921 123.458 100.883 123.583 100.854C124.416 100.662 125.273 100.235 125.465 99.4013C125.657 98.5681 125.137 97.7185 124.284 97.6552C123.937 97.6294 123.599 97.6252 123.272 97.6425C122.496 97.6769 121.799 97.8303 121.179 98.1027C120.574 98.3677 120.065 98.7508 119.652 99.2519C119.24 99.753 118.95 100.368 118.782 101.095C118.659 101.631 118.622 102.166 118.673 102.699C118.726 103.222 118.795 103.728 118.88 104.216C118.98 104.696 119.068 105.148 119.144 105.57C119.22 105.992 119.221 106.364 119.146 106.688C119.016 107.254 118.703 107.645 118.208 107.861C118.096 107.909 117.978 107.948 117.853 107.977C117.02 108.169 116.163 108.596 115.972 109.43C115.78 110.263 116.299 111.112 117.152 111.18C117.494 111.207 117.824 111.214 118.144 111.2C118.933 111.158 119.63 111.004 120.236 110.739C120.856 110.467 121.372 110.08 121.784 109.579C122.196 109.078 122.486 108.463 122.654 107.736C122.778 107.2 122.813 106.67 122.76 106.147C122.71 105.614 122.635 105.107 122.535 104.626C122.45 104.138 122.369 103.683 122.293 103.261C122.217 102.839 122.216 102.466 122.29 102.143Z" fill="#75B7D2"/>
<path d="M116.667 99.8217C116.798 99.2556 117.111 98.8646 117.606 98.6487C117.717 98.6002 117.835 98.5615 117.96 98.5328C118.793 98.341 119.65 97.9133 119.842 97.08C120.034 96.2468 119.514 95.3972 118.661 95.3339C118.314 95.3082 117.976 95.3039 117.648 95.3213C116.873 95.3556 116.176 95.509 115.556 95.7814C114.951 96.0464 114.442 96.4295 114.029 96.9306C113.617 97.4317 113.327 98.0462 113.159 98.774C113.036 99.3098 112.999 99.8443 113.05 100.378C113.103 100.901 113.172 101.406 113.257 101.894C113.357 102.375 113.445 102.826 113.521 103.248C113.597 103.67 113.597 104.043 113.523 104.367C113.393 104.933 113.08 105.324 112.585 105.54C112.473 105.588 112.355 105.627 112.23 105.656C111.397 105.847 110.54 106.275 110.348 107.108C110.157 107.942 110.676 108.791 111.529 108.859C111.871 108.886 112.201 108.892 112.521 108.878C113.31 108.836 114.007 108.683 114.613 108.418C115.233 108.146 115.749 107.759 116.161 107.258C116.573 106.757 116.863 106.142 117.031 105.414C117.154 104.879 117.19 104.349 117.137 103.826C117.087 103.293 117.012 102.786 116.912 102.305C116.826 101.817 116.746 101.362 116.67 100.94C116.594 100.518 116.593 100.145 116.667 99.8217Z" fill="#75B7D2"/>
<path d="M23.522 89.143C23.3916 88.5769 23.0788 88.1859 22.5836 87.97C22.4723 87.9215 22.3542 87.8828 22.2294 87.8541C21.3961 87.6623 20.5395 87.2346 20.3475 86.4013C20.1556 85.5681 20.6757 84.7185 21.5284 84.6552C21.8759 84.6294 22.2134 84.6252 22.541 84.6425C23.3161 84.6769 24.0135 84.8303 24.6331 85.1027C25.2386 85.3677 25.7476 85.7508 26.16 86.2519C26.5724 86.753 26.8625 87.3675 27.0301 88.0953C27.1536 88.6311 27.1901 89.1656 27.1396 89.6988C27.0869 90.2219 27.0178 90.7275 26.9322 91.2156C26.8326 91.6963 26.7448 92.1477 26.6687 92.5697C26.5927 92.9917 26.592 93.3645 26.6665 93.688C26.7969 94.2541 27.1097 94.6451 27.6049 94.861C27.7162 94.9095 27.8343 94.9481 27.9591 94.9769C28.7924 95.1686 29.649 95.5964 29.841 96.4296C30.0329 97.2629 29.513 98.1124 28.6606 98.1801C28.3189 98.2072 27.9883 98.2137 27.6686 98.1995C26.8794 98.1578 26.1821 98.0044 25.5765 97.7394C24.9569 97.4669 24.4409 97.0802 24.0285 96.579C23.6161 96.0779 23.326 95.4634 23.1584 94.7356C23.035 94.1999 22.9996 93.6704 23.0524 93.1473C23.1028 92.6141 23.1778 92.1071 23.2774 91.6264C23.363 91.1383 23.4438 90.6833 23.5198 90.2613C23.5958 89.8392 23.5966 89.4665 23.522 89.143Z" fill="#75B7D2"/>
<path d="M29.1451 86.8217C29.0147 86.2556 28.7019 85.8646 28.2067 85.6487C28.0954 85.6002 27.9773 85.5615 27.8524 85.5328C27.0191 85.341 26.1625 84.9133 25.9706 84.08C25.7786 83.2468 26.2988 82.3972 27.1515 82.3339C27.499 82.3082 27.8365 82.3039 28.164 82.3213C28.9392 82.3556 29.6365 82.509 30.2561 82.7814C30.8617 83.0464 31.3706 83.4295 31.7831 83.9306C32.1955 84.4317 32.4855 85.0462 32.6532 85.774C32.7766 86.3098 32.8131 86.8443 32.7627 87.3775C32.71 87.9006 32.6408 88.4062 32.5553 88.8943C32.4556 89.375 32.3678 89.8264 32.2918 90.2484C32.2158 90.6704 32.215 91.0432 32.2895 91.3667C32.4199 91.9328 32.7327 92.3238 33.2279 92.5397C33.3392 92.5882 33.4573 92.6268 33.5822 92.6556C34.4155 92.8473 35.2721 93.2751 35.464 94.1084C35.656 94.9416 35.1361 95.7911 34.2837 95.8588C33.942 95.8859 33.6113 95.8924 33.2917 95.8782C32.5025 95.8365 31.8051 95.6831 31.1996 95.4181C30.58 95.1456 30.064 94.7589 29.6515 94.2578C29.2391 93.7566 28.9491 93.1422 28.7814 92.4143C28.658 91.8786 28.6227 91.3491 28.6754 90.826C28.7258 90.2928 28.8008 89.7858 28.9005 89.3051C28.986 88.8171 29.0668 88.362 29.1428 87.94C29.2188 87.5179 29.2196 87.1452 29.1451 86.8217Z" fill="#75B7D2"/>
</g>
<defs>
<radialGradient id="paint0_radial" cx="0" cy="0" r="1" gradientUnits="userSpaceOnUse" gradientTransform="translate(73.4029 42.1172) scale(15.6422)">
<stop stop-color="#FF5748"/>
<stop offset="1" stop-color="#FABC84"/>
</radialGradient>
</defs>
</svg>
