<svg width="153" height="150" viewBox="0 0 153 150" fill="none" xmlns="http://www.w3.org/2000/svg">
<path d="M152 75.5C152 116.6 118.6 150 77.5 150C36.4 150 3 116.6 3 75.5C3 34.4 36.4 1 77.5 1C118.6 1 152 34.4 152 75.5Z" fill="#F8F6F6"/>
<path d="M149 75.5C149 116.6 115.6 150 74.5 150C33.4 150 0 116.6 0 75.5C0 34.4 33.4 1 74.5 1C115.6 1 149 34.4 149 75.5Z" fill="#F8F6F6"/>
<mask id="mask0" mask-type="alpha" maskUnits="userSpaceOnUse" x="4" y="0" width="149" height="149">
<path d="M153 74.5C153 115.6 119.6 149 78.5 149C37.4 149 4 115.6 4 74.5C4 33.4 37.4 0 78.5 0C119.6 0 153 33.4 153 74.5Z" fill="#F8F6F6"/>
</mask>
<g mask="url(#mask0)">
<path d="M49.4324 31.1481C48.6372 31.0748 47.9905 30.4769 47.6644 29.6638C47.6192 29.6107 47.574 29.5576 47.5288 29.5045C47.3026 29.2389 47.1351 28.8809 47.0173 28.5275C46.8359 27.7766 46.8125 26.9425 46.8751 26.263C46.8841 26.166 46.8885 26.1174 46.8975 26.0204C46.8249 25.72 46.7568 25.3712 46.7926 24.9829C46.8105 24.7888 46.8328 24.5462 46.9049 24.3081C47.139 23.3997 47.6579 22.6644 48.3081 22.137C48.317 22.0399 48.2762 21.9383 48.2355 21.8367C48.2444 21.7396 48.2534 21.6425 48.2623 21.5455C48.3249 20.866 48.9164 20.4311 49.4448 20.1372C50.0273 19.7993 50.6958 19.6161 51.1024 19.5557C51.6129 19.4558 52.015 19.4439 52.3629 19.476C52.7109 19.508 53.0046 19.584 53.1855 19.7964C53.3665 20.0089 53.4435 20.2607 53.4211 20.5033C53.4032 20.6975 53.3401 20.8385 53.2725 21.028C53.4216 21.0417 53.5166 21.0994 53.6115 21.1571C53.9142 21.136 54.2621 21.1681 54.5604 21.1955C55.2562 21.2596 55.8979 21.3677 56.3139 21.7486C56.5983 21.3832 56.973 21.1241 57.5332 21.0288C57.7365 20.9986 57.9398 20.9684 58.1386 20.9867C58.6853 21.037 59.1103 21.3209 59.3231 21.732C59.4543 21.9399 59.5313 22.1917 59.5587 22.4389C60.1412 22.101 60.8142 21.8693 61.5145 21.8849C62.111 21.9398 62.7213 22.3876 62.8486 23.1824C62.8804 23.3811 62.9122 23.5798 62.8943 23.7739C62.8451 24.3077 62.6016 24.7747 62.2676 25.1355C62.358 25.2417 62.3988 25.3434 62.4351 25.4935C62.5936 25.9486 62.5941 26.487 62.5991 26.9769C62.5499 27.5107 62.4013 28.0354 62.2661 28.4145C62.4107 28.4768 62.6096 28.4951 62.7542 28.5573C63.2378 28.7487 63.717 28.9886 63.8666 29.5407C63.9074 29.6424 63.9029 29.6909 63.8939 29.788C63.7816 30.4628 63.1946 30.8492 62.5624 31.1826C61.9301 31.5159 61.2571 31.7476 60.9003 31.8126C60.5434 31.8776 60.191 31.8941 59.8927 31.8666C58.8489 31.7705 58.1074 31.1149 57.5462 30.1333C57.4602 29.9786 57.3742 29.8238 57.3424 29.6251C56.489 30.1828 55.4457 30.6251 54.4019 30.529C54.1037 30.5015 53.7602 30.4209 53.4212 30.2918C53.3715 30.2872 53.376 30.2387 53.3263 30.2341L53.2766 30.2296C52.6801 30.1746 52.0474 29.9695 51.523 29.6765C51.3968 29.9586 51.2705 30.2406 51.0538 30.4164C50.4986 31.0015 49.9792 31.1984 49.4324 31.1481ZM49.4906 30.5172C49.8385 30.5492 50.1502 30.4311 50.5294 30.1234C50.6919 29.9915 50.8137 29.758 50.8947 29.4229C50.6189 29.1528 50.3475 28.8341 50.2342 28.4322C50.0855 28.9569 49.8917 29.4284 49.5125 29.7361C49.341 29.965 48.9796 30.0786 48.6317 30.0465C48.8534 30.3606 49.1879 30.5382 49.4906 30.5172ZM58.0114 29.9804C58.5318 30.8603 59.0383 31.3475 59.8336 31.4207C60.0821 31.4436 60.3351 31.4179 60.6423 31.3483C60.8997 31.2742 61.5683 31.091 62.1463 30.8017C62.7244 30.5123 63.1623 30.1121 63.1846 29.8695C63.1891 29.821 63.1891 29.821 63.1936 29.7724C63.1573 29.6223 63.0668 29.516 62.877 29.4007C62.6871 29.2853 62.3978 29.1608 62.0544 29.0802C62.0047 29.0756 61.955 29.071 61.9053 29.0665C61.3411 29.7487 60.5101 30.0637 59.7148 29.9904C59.0686 29.9309 58.4945 29.6333 58.0422 29.1023C57.9339 29.1902 57.8255 29.2781 57.7172 29.366C57.7942 29.6178 57.8757 29.8211 58.0114 29.9804ZM48.586 29.455C48.9836 29.4916 49.1461 29.3598 49.3763 29.0384C49.6064 28.717 49.755 28.1923 49.8673 27.5174C49.9076 27.0807 50.002 26.5999 50.0467 26.1146C49.7848 26.2373 49.5726 26.3646 49.3648 26.4434C49.157 26.5221 48.9493 26.6009 48.746 26.6311C48.4438 27.1906 48.1913 27.7546 48.1376 28.337C48.1108 28.6282 48.1292 28.9725 48.2017 29.2728C48.3419 29.3836 48.4368 29.4413 48.586 29.455ZM56.6898 27.4605C56.6316 28.0914 56.474 28.7131 56.1221 29.268C55.892 29.5895 55.6167 29.8577 55.2508 30.0198C55.8652 29.8806 56.5471 29.5519 57.0844 29.1609C56.9348 28.6087 56.8438 27.9641 56.7529 27.3195C56.7529 27.3195 56.7529 27.3195 56.7574 27.271C56.6987 27.3634 56.6942 27.412 56.6898 27.4605ZM52.8914 28.9705C52.86 29.3102 52.9416 29.5135 53.4162 29.8019C53.6648 29.8248 53.9675 29.8038 54.1752 29.725C54.889 29.595 55.2682 29.2873 55.5525 28.9219C55.8413 28.508 55.9854 28.0319 56.0391 27.4495C56.0615 27.2069 56.0839 26.9642 56.0565 26.717C55.6231 27.0686 55.1489 27.3186 54.6429 27.3699C54.4938 27.3562 54.3899 27.3955 54.2905 27.3864C54.0917 27.3681 53.9471 27.3058 53.8069 27.195C53.4053 27.7454 52.9406 28.4367 52.8914 28.9705ZM52.3859 29.5602C52.3043 29.357 52.2273 29.1051 52.2497 28.8625C52.3212 28.086 52.9396 27.3599 53.3501 26.7125C53.4088 26.62 53.4674 26.5275 53.5758 26.4396C53.6384 25.7602 54.2612 24.9855 54.5544 24.5231C54.6131 24.4306 54.7214 24.3427 54.7801 24.2502C54.7393 24.1486 54.6941 24.0955 54.4998 24.0286C54.45 24.0241 54.4048 23.9709 54.3054 23.9618C54.0569 23.9389 53.7497 24.0085 53.3839 24.1706C53.1041 24.4874 52.8287 24.7557 52.4992 25.068C52.1975 26.1658 51.9728 27.5156 51.7163 28.6666C51.6487 28.8561 51.6309 29.0502 51.5633 29.2398C51.8525 29.3643 52.0921 29.4842 52.3859 29.5602ZM50.8207 27.5073C50.8162 27.5559 50.8162 27.5559 50.8117 27.6044C50.7715 28.0412 50.8848 28.4431 51.1562 28.7618C51.2282 28.5237 51.2506 28.2811 51.3227 28.043C51.3227 28.043 51.3351 26.8206 51.4385 26.2428C51.1045 26.6036 50.9151 27.0266 50.8207 27.5073ZM59.764 29.4566C60.261 29.5024 60.776 29.354 61.1597 28.9978C60.6671 28.9035 60.2198 28.8623 59.7769 28.7726C59.334 28.6829 58.9906 28.6023 58.7013 28.4778C58.6968 28.5263 58.6427 28.5703 58.6427 28.5703C58.5885 28.6142 58.5343 28.6582 58.4801 28.7021C58.8375 29.1755 59.2669 29.4108 59.764 29.4566ZM47.5725 27.9424C47.6624 27.5102 47.8021 27.0825 47.987 26.708C47.8379 26.6943 47.6435 26.6274 47.4989 26.5652C47.5084 27.0065 47.5133 27.4964 47.5725 27.9424ZM57.1132 26.1291C57.2812 27.0255 57.3951 27.9659 57.572 28.7653C57.6262 28.7214 57.6804 28.6774 57.7346 28.6335C57.5308 28.1253 57.4219 27.6748 57.4666 27.1894C57.5785 25.9762 58.3772 24.9241 58.7694 23.9324C58.327 24.3811 57.8215 24.9708 57.316 25.5605C57.2077 25.6484 57.149 25.7409 57.0407 25.8288C57.0317 25.9258 57.0725 26.0275 57.1132 26.1291ZM59.4334 23.7978C59.0189 25.0321 58.166 26.1282 58.0631 27.2444C58.0362 27.5356 58.0591 27.8313 58.1814 28.1362C58.2356 28.0923 58.2942 27.9998 58.2987 27.9513C58.3032 27.9027 58.3076 27.8542 58.3076 27.8542C58.33 27.6116 58.4473 27.4266 58.664 27.2508C58.7182 27.2068 58.7724 27.1629 58.831 27.0704C58.8897 26.9779 58.9438 26.9339 58.9528 26.8369C59.3092 26.2335 59.7197 25.5861 60.1621 25.1374C60.4872 24.8737 60.8122 24.6099 61.2596 24.6511L61.3093 24.6557C61.4584 24.6694 61.603 24.7317 61.7477 24.794C62.0275 24.4771 62.2079 24.1512 62.2392 23.8114C62.2526 23.6659 62.2661 23.5203 62.2298 23.3701C62.0846 22.7694 61.7998 22.5964 61.4022 22.5597C60.8554 22.5094 60.0741 22.829 59.5368 23.22C59.5686 23.4187 59.501 23.6082 59.4334 23.7978ZM59.1481 27.9806C59.3425 28.0474 59.6859 28.128 60.1288 28.2177C60.5717 28.3074 61.1184 28.3578 61.6607 28.4566C61.7914 28.1261 61.94 27.6014 61.9892 27.0676C62.0295 26.6308 62.0245 26.1409 61.9022 25.836C61.9067 25.7875 61.857 25.7829 61.8615 25.7344C61.8073 25.7783 61.7531 25.8223 61.7487 25.8708C61.1482 26.4028 60.4121 26.7755 59.929 27.1226C59.7168 27.2498 59.5045 27.3771 59.3917 27.5136C59.2744 27.6985 59.2068 27.8881 59.094 28.0245C59.0532 27.9229 59.0984 27.976 59.1481 27.9806ZM54.4028 26.7115C54.4526 26.7161 54.552 26.7253 54.6514 26.7344C55.0535 26.7225 55.5366 26.3755 56.0784 25.9359C56.0918 25.7903 56.0555 25.6402 56.0192 25.49C55.9964 25.1942 55.9327 24.7968 55.9188 24.404C55.9188 24.404 55.9233 24.3555 55.8736 24.3509C55.8825 24.2539 55.8373 24.2007 55.7921 24.1476C55.6792 24.2841 55.5664 24.4205 55.4581 24.5084C55.4581 24.5084 55.4581 24.5084 55.4536 24.5569C55.4044 25.0908 55.1111 25.5532 54.7682 26.011C54.5967 26.24 54.4252 26.4689 54.2537 26.6978C54.2537 26.6978 54.3034 26.7024 54.4028 26.7115ZM48.0904 26.1302C48.1898 26.1394 48.2395 26.144 48.3434 26.1046C48.8171 25.3162 49.4806 24.6432 49.9861 24.0535C50.0944 23.9655 50.2073 23.8291 50.3698 23.6972C50.3788 23.6002 50.3877 23.5031 50.4464 23.4106C50.3017 23.3484 50.1571 23.2861 50.0124 23.2239C49.7684 23.1524 49.5288 23.0325 49.2395 22.908C48.4269 23.5673 47.8901 24.4967 47.6336 25.6477C47.6291 25.6962 47.6202 25.7933 47.6112 25.8903C47.7017 25.9966 47.8463 26.0588 48.0904 26.1302ZM50.6343 26.2666C50.8689 25.8967 51.2029 25.5359 51.5324 25.2236C51.266 25.3949 50.9996 25.5661 50.7332 25.7374C50.6656 25.9269 50.6521 26.0725 50.6343 26.2666ZM49.2694 25.8473C49.4771 25.7685 49.7977 25.5533 50.1183 25.3381C50.1362 25.144 50.1586 24.9014 50.1765 24.7072C49.8922 25.0726 49.5537 25.4819 49.2694 25.8473ZM60.6278 25.5229C60.4608 25.7033 60.2893 25.9322 60.1179 26.1611C60.4926 25.902 60.9171 25.6474 61.2963 25.3397C61.3505 25.2958 61.3505 25.2958 61.4047 25.2518C61.355 25.2472 61.355 25.2472 61.3053 25.2427C61.1065 25.2243 60.849 25.2985 60.6278 25.5229ZM50.9215 24.2375C50.8495 24.4756 50.8271 24.7182 50.8047 24.9609C51.017 24.8336 51.2292 24.7063 51.4459 24.5305C51.3689 24.2787 51.2918 24.0269 51.1109 23.8144C51.0523 23.9069 50.9981 23.9509 50.9439 23.9948C50.9394 24.0434 50.9305 24.1404 50.9215 24.2375ZM56.8592 25.0779C57.6356 24.2685 58.3215 23.3528 58.9672 22.8739C58.9443 22.5781 58.9214 22.2823 58.7857 22.123C58.659 21.8666 58.4691 21.7513 58.0715 21.7147C57.9721 21.7055 57.823 21.6918 57.6694 21.7266C57.2628 21.787 56.9964 21.9582 56.8204 22.2357C56.7618 22.3282 56.7031 22.4207 56.6942 22.5177C56.6852 22.6148 56.6808 22.6633 56.6718 22.7604C56.6539 22.9545 56.5863 23.144 56.5232 23.2851C56.4964 23.5762 56.5148 23.9205 56.5332 24.2648C56.6644 24.4727 56.737 24.773 56.8592 25.0779ZM51.9743 24.2365C52.0782 24.1972 52.1323 24.1532 52.2362 24.1138C52.3083 23.8758 52.4256 23.6908 52.5384 23.5544C52.7775 23.1359 53.1612 22.7797 53.6309 22.5782C53.6354 22.5297 53.6399 22.4812 53.6488 22.3841C53.6756 22.0929 53.5941 21.8896 53.5037 21.7834C53.3048 21.7651 53.1015 21.7953 52.8983 21.8256C52.6681 22.147 52.4425 22.4198 52.1626 22.7367C51.9415 22.961 51.77 23.1899 51.5488 23.4143C51.7297 23.6267 51.9017 23.9362 51.9743 24.2365ZM54.7975 23.5177C54.9918 23.5845 55.132 23.6953 55.2677 23.8546C55.3263 23.7622 55.3805 23.7182 55.4347 23.6742C55.2493 23.5103 55.0142 23.3419 54.7701 23.2704C54.5758 23.2036 54.4267 23.1899 54.2776 23.1761C54.2279 23.1716 54.1285 23.1624 54.0787 23.1578C54.0201 23.2503 54.0112 23.3474 53.948 23.4884C54.1016 23.4536 54.2507 23.4673 54.3998 23.4811C54.5082 23.3932 54.6528 23.4554 54.7975 23.5177ZM50.6039 22.7889C50.676 22.5508 50.7978 22.3173 50.9195 22.0838C50.5582 22.1974 50.1968 22.3109 49.8762 22.5261C50.1203 22.5975 50.3599 22.7175 50.6039 22.7889ZM51.259 22.7513C51.4215 22.6195 51.5344 22.483 51.6472 22.3466C51.76 22.2102 51.9226 22.0783 52.0399 21.8933C51.9405 21.8842 51.8863 21.9281 51.8366 21.9236C51.5702 22.0948 51.3942 22.3723 51.259 22.7513ZM54.3402 22.4967C54.539 22.515 54.7831 22.5864 54.9774 22.6533C55.3164 22.7824 55.5515 22.9509 55.8318 23.1724C55.886 23.1285 55.8905 23.08 55.9447 23.036C55.9625 22.8419 56.0346 22.6038 56.0525 22.4097C56.057 22.3612 56.0117 22.3081 55.962 22.3035C55.8308 22.0956 55.2478 21.8951 54.5519 21.831C54.4028 21.8173 54.3034 21.8081 54.1543 21.7944C54.2358 21.9977 54.2631 22.2449 54.2408 22.4876C54.2408 22.4876 54.2408 22.4876 54.2363 22.5361C54.2905 22.4921 54.2905 22.4921 54.3402 22.4967ZM51.1979 20.1518C50.841 20.2168 50.2222 20.4045 49.748 20.6545C49.2196 20.9484 48.8856 21.3092 48.8588 21.6004C48.8543 21.6489 49.9433 21.7982 49.9433 21.7982C50.3092 21.6361 50.7247 21.4786 51.1313 21.4181C51.2351 21.3788 51.3887 21.344 51.5875 21.3623C51.5875 21.3623 51.6417 21.3183 51.6914 21.3229C52.012 21.1077 52.3237 20.9896 52.6761 20.9731C52.7978 20.7396 52.861 20.5986 52.8744 20.453C52.8878 20.3074 52.8426 20.2543 52.7973 20.2012C52.7521 20.1481 52.6075 20.0858 52.359 20.0629C52.0607 20.0355 51.6586 20.0474 51.1979 20.1518Z" fill="#BF2828"/>
<path d="M116.153 44.858C115.358 44.7848 114.711 44.1869 114.385 43.3738C114.34 43.3207 114.295 43.2676 114.249 43.2144C114.023 42.9489 113.856 42.5909 113.738 42.2374C113.557 41.4866 113.533 40.6524 113.596 39.973C113.605 39.8759 113.609 39.8274 113.618 39.7303C113.546 39.43 113.478 39.0811 113.513 38.6929C113.531 38.4988 113.554 38.2561 113.626 38.018C113.86 37.1097 114.379 36.3744 115.029 35.847C115.038 35.7499 114.997 35.6483 114.956 35.5466C114.965 35.4496 114.974 35.3525 114.983 35.2554C115.046 34.576 115.637 34.1411 116.165 33.8471C116.748 33.5092 117.417 33.3261 117.823 33.2656C118.334 33.1658 118.736 33.1539 119.084 33.1859C119.432 33.218 119.725 33.294 119.906 33.5064C120.087 33.7188 120.164 33.9706 120.142 34.2133C120.124 34.4074 120.061 34.5484 119.993 34.738C120.142 34.7517 120.237 34.8094 120.332 34.8671C120.635 34.846 120.983 34.878 121.281 34.9055C121.977 34.9696 122.619 35.0776 123.035 35.4585C123.319 35.0932 123.694 34.834 124.254 34.7388C124.457 34.7086 124.66 34.6783 124.859 34.6967C125.406 34.747 125.831 35.0309 126.044 35.442C126.175 35.6498 126.252 35.9016 126.279 36.1489C126.862 35.811 127.535 35.5793 128.235 35.5949C128.832 35.6498 129.442 36.0975 129.569 36.8923C129.601 37.091 129.633 37.2897 129.615 37.4838C129.566 38.0177 129.322 38.4847 128.988 38.8455C129.079 38.9517 129.119 39.0533 129.156 39.2035C129.314 39.6586 129.315 40.197 129.32 40.6869C129.271 41.2207 129.122 41.7454 128.987 42.1245C129.131 42.1867 129.33 42.205 129.475 42.2673C129.958 42.4587 130.438 42.6986 130.587 43.2507C130.628 43.3523 130.624 43.4009 130.615 43.4979C130.502 44.1728 129.915 44.5592 129.283 44.8925C128.651 45.2258 127.978 45.4575 127.621 45.5225C127.264 45.5876 126.912 45.6041 126.613 45.5766C125.57 45.4805 124.828 44.8249 124.267 43.8433C124.181 43.6885 124.095 43.5338 124.063 43.3351C123.21 43.8928 122.166 44.335 121.123 44.2389C120.824 44.2115 120.481 44.1309 120.142 44.0018C120.092 43.9972 120.097 43.9487 120.047 43.9441L119.997 43.9395C119.401 43.8846 118.768 43.6795 118.244 43.3865C118.117 43.6685 117.991 43.9506 117.774 44.1264C117.219 44.7115 116.7 44.9084 116.153 44.858ZM116.211 44.2271C116.559 44.2592 116.871 44.141 117.25 43.8334C117.413 43.7015 117.534 43.468 117.615 43.1329C117.34 42.8628 117.068 42.5441 116.955 42.1421C116.806 42.6668 116.612 43.1384 116.233 43.4461C116.062 43.675 115.7 43.7885 115.352 43.7565C115.574 44.0706 115.909 44.2482 116.211 44.2271ZM124.732 43.6904C125.252 44.5703 125.759 45.0574 126.554 45.1307C126.803 45.1535 127.056 45.1279 127.363 45.0583C127.62 44.9841 128.289 44.801 128.867 44.5116C129.445 44.2223 129.883 43.8221 129.905 43.5794C129.91 43.5309 129.91 43.5309 129.914 43.4824C129.878 43.3322 129.787 43.226 129.598 43.1106C129.408 42.9953 129.118 42.8707 128.775 42.7902C128.725 42.7856 128.676 42.781 128.626 42.7764C128.062 43.4586 127.231 43.7736 126.435 43.7004C125.789 43.6409 125.215 43.3433 124.763 42.8122C124.655 42.9001 124.546 42.988 124.438 43.076C124.515 43.3278 124.596 43.531 124.732 43.6904ZM115.307 43.165C115.704 43.2016 115.867 43.0697 116.097 42.7483C116.327 42.4269 116.476 41.9022 116.588 41.2274C116.628 40.7906 116.723 40.3099 116.767 39.8246C116.506 39.9473 116.293 40.0746 116.086 40.1533C115.878 40.2321 115.67 40.3108 115.467 40.341C115.164 40.9005 114.912 41.4646 114.858 42.047C114.831 42.3381 114.85 42.6824 114.922 42.9828C115.063 43.0936 115.158 43.1512 115.307 43.165ZM123.41 41.1705C123.352 41.8014 123.195 42.4231 122.843 42.978C122.613 43.2994 122.337 43.5677 121.972 43.7298C122.586 43.5906 123.268 43.2619 123.805 42.8709C123.655 42.3187 123.565 41.6741 123.474 41.0295C123.474 41.0295 123.474 41.0295 123.478 40.9809C123.419 41.0734 123.415 41.1219 123.41 41.1705ZM119.612 42.6805C119.581 43.0202 119.662 43.2235 120.137 43.5119C120.385 43.5348 120.688 43.5137 120.896 43.435C121.61 43.3049 121.989 42.9973 122.273 42.6319C122.562 42.218 122.706 41.7419 122.76 41.1595C122.782 40.9168 122.805 40.6742 122.777 40.427C122.344 40.7786 121.87 41.0286 121.364 41.0799C121.214 41.0661 121.111 41.1055 121.011 41.0964C120.812 41.078 120.668 41.0158 120.528 40.905C120.126 41.4553 119.661 42.1467 119.612 42.6805ZM119.107 43.2702C119.025 43.0669 118.948 42.8151 118.97 42.5725C119.042 41.796 119.66 41.0698 120.071 40.4224C120.129 40.33 120.188 40.2375 120.296 40.1496C120.359 39.4701 120.982 38.6955 121.275 38.233C121.334 38.1406 121.442 38.0527 121.501 37.9602C121.46 37.8585 121.415 37.8054 121.22 37.7386C121.171 37.734 121.125 37.6809 121.026 37.6717C120.778 37.6489 120.47 37.7185 120.105 37.8805C119.825 38.1974 119.549 38.4657 119.22 38.7779C118.918 39.8758 118.693 41.2255 118.437 42.3765C118.369 42.5661 118.352 42.7602 118.284 42.9497C118.573 43.0743 118.813 43.1942 119.107 43.2702ZM117.541 41.2173C117.537 41.2658 117.537 41.2658 117.532 41.3144C117.492 41.7511 117.605 42.1531 117.877 42.4718C117.949 42.2337 117.971 41.991 118.043 41.753C118.043 41.753 118.056 40.5305 118.159 39.9527C117.825 40.3135 117.636 40.7366 117.541 41.2173ZM126.485 43.1666C126.982 43.2123 127.497 43.064 127.88 42.7078C127.388 42.6135 126.94 42.5723 126.498 42.4826C126.055 42.3928 125.711 42.3123 125.422 42.1877C125.417 42.2363 125.363 42.2802 125.363 42.2802C125.309 42.3242 125.255 42.3681 125.201 42.4121C125.558 42.8855 125.988 43.1208 126.485 43.1666ZM114.293 41.6523C114.383 41.2201 114.523 40.7925 114.708 40.418C114.559 40.4043 114.364 40.3374 114.22 40.2751C114.229 40.7165 114.234 41.2064 114.293 41.6523ZM123.834 39.8391C124.002 40.7355 124.116 41.6759 124.293 42.4753C124.347 42.4313 124.401 42.3874 124.455 42.3434C124.251 41.8352 124.143 41.3847 124.187 40.8994C124.299 39.6861 125.098 38.634 125.49 37.6423C125.048 38.091 124.542 38.6807 124.037 39.2704C123.928 39.3583 123.87 39.4508 123.761 39.5387C123.752 39.6358 123.793 39.7374 123.834 39.8391ZM126.154 37.5077C125.74 38.7421 124.887 39.8381 124.784 40.9543C124.757 41.2455 124.78 41.5413 124.902 41.8462C124.956 41.8022 125.015 41.7098 125.019 41.6612C125.024 41.6127 125.028 41.5642 125.028 41.5642C125.051 41.3215 125.168 41.1365 125.385 40.9607C125.439 40.9168 125.493 40.8728 125.552 40.7803C125.61 40.6879 125.665 40.6439 125.673 40.5468C126.03 39.9434 126.44 39.296 126.883 38.8473C127.208 38.5836 127.533 38.3199 127.98 38.3611L128.03 38.3657C128.179 38.3794 128.324 38.4417 128.468 38.5039C128.748 38.1871 128.929 37.8611 128.96 37.5214C128.973 37.3758 128.987 37.2302 128.95 37.08C128.805 36.4794 128.52 36.3063 128.123 36.2697C127.576 36.2194 126.795 36.5389 126.257 36.9299C126.289 37.1286 126.222 37.3182 126.154 37.5077ZM125.869 41.6905C126.063 41.7574 126.407 41.8379 126.849 41.9276C127.292 42.0174 127.839 42.0677 128.381 42.1666C128.512 41.836 128.661 41.3114 128.71 40.7775C128.75 40.3408 128.745 39.8509 128.623 39.546C128.627 39.4974 128.578 39.4928 128.582 39.4443C128.528 39.4883 128.474 39.5322 128.469 39.5808C127.869 40.1128 127.133 40.4855 126.65 40.8325C126.437 40.9598 126.225 41.0871 126.112 41.2235C125.995 41.4085 125.927 41.598 125.815 41.7345C125.774 41.6328 125.819 41.6859 125.869 41.6905ZM121.124 40.4215C121.173 40.4261 121.273 40.4352 121.372 40.4444C121.774 40.4325 122.257 40.0854 122.799 39.6459C122.812 39.5003 122.776 39.3501 122.74 39.2C122.717 38.9042 122.653 38.5068 122.639 38.114C122.639 38.114 122.644 38.0655 122.594 38.0609C122.603 37.9638 122.558 37.9107 122.513 37.8576C122.4 37.994 122.287 38.1305 122.179 38.2184C122.179 38.2184 122.179 38.2184 122.174 38.2669C122.125 38.8007 121.832 39.2632 121.489 39.721C121.317 39.9499 121.146 40.1788 120.974 40.4078C120.974 40.4078 121.024 40.4123 121.124 40.4215ZM114.811 39.8402C114.91 39.8493 114.96 39.8539 115.064 39.8145C115.538 39.0261 116.201 38.3531 116.707 37.7634C116.815 37.6755 116.928 37.5391 117.091 37.4072C117.099 37.3101 117.108 37.2131 117.167 37.1206C117.022 37.0583 116.878 36.9961 116.733 36.9338C116.489 36.8624 116.25 36.7425 115.96 36.6179C115.148 37.2772 114.611 38.2066 114.354 39.3576C114.35 39.4062 114.341 39.5032 114.332 39.6003C114.422 39.7065 114.567 39.7688 114.811 39.8402ZM117.355 39.9766C117.59 39.6066 117.924 39.2459 118.253 38.9336C117.987 39.1048 117.72 39.2761 117.454 39.4473C117.386 39.6369 117.373 39.7824 117.355 39.9766ZM115.99 39.5572C116.198 39.4785 116.518 39.2633 116.839 39.0481C116.857 38.854 116.879 38.6113 116.897 38.4172C116.613 38.7826 116.274 39.1919 115.99 39.5572ZM127.348 39.2328C127.181 39.4132 127.01 39.6421 126.839 39.8711C127.213 39.6119 127.638 39.3573 128.017 39.0497C128.071 39.0057 128.071 39.0057 128.125 38.9618C128.076 38.9572 128.076 38.9572 128.026 38.9526C127.827 38.9343 127.57 39.0085 127.348 39.2328ZM117.642 37.9474C117.57 38.1855 117.548 38.4282 117.525 38.6708C117.738 38.5435 117.95 38.4163 118.167 38.2404C118.09 37.9886 118.013 37.7368 117.832 37.5244C117.773 37.6169 117.719 37.6608 117.665 37.7048C117.66 37.7533 117.651 37.8504 117.642 37.9474ZM123.58 38.7879C124.356 37.9784 125.042 37.0627 125.688 36.5838C125.665 36.2881 125.642 35.9923 125.506 35.833C125.38 35.5766 125.19 35.4612 124.792 35.4246C124.693 35.4155 124.544 35.4017 124.39 35.4365C123.983 35.497 123.717 35.6682 123.541 35.9457C123.482 36.0381 123.424 36.1306 123.415 36.2277C123.406 36.3247 123.401 36.3733 123.392 36.4703C123.375 36.6645 123.307 36.854 123.244 36.995C123.217 37.2862 123.235 37.6305 123.254 37.9748C123.385 38.1826 123.458 38.483 123.58 38.7879ZM118.695 37.9465C118.799 37.9071 118.853 37.8632 118.957 37.8238C119.029 37.5857 119.146 37.4008 119.259 37.2643C119.498 36.8459 119.882 36.4896 120.352 36.2882C120.356 36.2397 120.361 36.1911 120.369 36.0941C120.396 35.8029 120.315 35.5996 120.224 35.4934C120.026 35.4751 119.822 35.5053 119.619 35.5355C119.389 35.8569 119.163 36.1298 118.883 36.4466C118.662 36.671 118.491 36.8999 118.269 37.1242C118.45 37.3367 118.622 37.6462 118.695 37.9465ZM121.518 37.2276C121.712 37.2945 121.853 37.4053 121.988 37.5646C122.047 37.4721 122.101 37.4282 122.155 37.3842C121.97 37.2203 121.735 37.0518 121.491 36.9804C121.296 36.9136 121.147 36.8998 120.998 36.8861C120.949 36.8815 120.849 36.8724 120.799 36.8678C120.741 36.9603 120.732 37.0573 120.669 37.1984C120.822 37.1636 120.971 37.1773 121.121 37.191C121.229 37.1031 121.374 37.1654 121.518 37.2276ZM117.325 36.4989C117.397 36.2608 117.518 36.0273 117.64 35.7938C117.279 35.9073 116.918 36.0209 116.597 36.2361C116.841 36.3075 117.081 36.4274 117.325 36.4989ZM117.98 36.4613C118.142 36.3294 118.255 36.193 118.368 36.0566C118.481 35.9201 118.643 35.7883 118.761 35.6033C118.661 35.5942 118.607 35.6381 118.557 35.6335C118.291 35.8048 118.115 36.0822 117.98 36.4613ZM121.061 36.2067C121.26 36.225 121.504 36.2964 121.698 36.3632C122.037 36.4923 122.272 36.6608 122.552 36.8824C122.607 36.8385 122.611 36.7899 122.665 36.746C122.683 36.5518 122.755 36.3138 122.773 36.1197C122.778 36.0711 122.732 36.018 122.683 36.0134C122.551 35.8056 121.968 35.6051 121.273 35.541C121.123 35.5273 121.024 35.5181 120.875 35.5044C120.956 35.7076 120.984 35.9549 120.961 36.1975C120.961 36.1975 120.961 36.1975 120.957 36.2461C121.011 36.2021 121.011 36.2021 121.061 36.2067ZM117.919 33.8617C117.562 33.9267 116.943 34.1145 116.469 34.3645C115.94 34.6584 115.606 35.0192 115.579 35.3104C115.575 35.3589 116.664 35.5081 116.664 35.5081C117.03 35.346 117.445 35.1885 117.852 35.1281C117.956 35.0887 118.109 35.0539 118.308 35.0722C118.308 35.0722 118.362 35.0283 118.412 35.0329C118.733 34.8177 119.044 34.6995 119.397 34.683C119.519 34.4495 119.582 34.3085 119.595 34.1629C119.608 34.0173 119.563 33.9642 119.518 33.9111C119.473 33.858 119.328 33.7958 119.08 33.7729C118.781 33.7454 118.379 33.7573 117.919 33.8617Z" fill="#BF2828"/>
<path d="M20.7474 42.7637H56.2103C58.3125 42.7637 59.9577 44.4089 59.9577 46.511V54.0972L67.2696 63.6941L59.9577 60.1295V66.0705C59.9577 68.1727 58.3125 69.8179 56.2103 69.8179H20.7474C18.6452 69.8179 17 68.1727 17 66.0705V46.511C17 44.4089 18.6452 42.7637 20.7474 42.7637Z" fill="#FF6B43"/>
<path d="M32.0799 47.1504C30.9831 47.1504 30.252 47.8816 30.252 48.9784V55.3763H35.7359V48.9784C35.7359 47.8816 35.0047 47.1504 33.9079 47.1504H32.0799ZM32.9939 48.9784C33.5423 48.9784 33.9079 49.344 33.9079 49.8924V50.8064C33.9079 51.3548 33.5423 51.7204 32.9939 51.7204C32.4455 51.7204 32.0799 51.3548 32.0799 50.8064V49.8924C32.0799 49.4354 32.4455 48.9784 32.9939 48.9784ZM30.252 57.2043C30.252 59.6721 31.6229 61.8657 33.9079 63.3281V64.5163C33.9079 65.0647 34.2735 65.4303 34.8219 65.4303H42.1339C42.6823 65.4303 43.0479 65.0647 43.0479 64.5163V63.3281C45.0586 62.1399 46.2468 60.3119 46.6124 58.3011C46.7038 57.7527 46.2468 57.2957 45.6984 57.2957H30.252V57.2043Z" fill="#F8F6F6"/>
<path d="M100.853 72.635C100.853 72.635 92.9754 85.3751 87.5292 85.2778C82.2776 85.1806 75.2754 72.635 75.2754 72.635L75.4699 53.3789H100.756L100.853 72.635Z" fill="#F7995A"/>
<path d="M102.311 43.6542C107.368 39.0833 105.812 48.4196 104.548 50.8509C104.159 51.7262 103.187 53.4768 102.02 53.6713L102.311 43.6542Z" fill="#F7995A"/>
<path d="M72.8436 43.6542C67.7865 39.0833 69.3425 48.4196 70.6068 50.8509C70.9958 51.7262 71.9683 53.4768 73.1354 53.6713L72.8436 43.6542Z" fill="#F7995A"/>
<path d="M102.506 47.0574C102.019 41.2222 103.381 31.9832 100.852 28.0931C97.9348 23.6195 92.3914 23.2305 87.626 23.2305C82.8606 23.2305 77.3172 23.6195 74.3996 28.0931C71.8711 31.9832 73.2326 41.2222 72.7463 47.0574C72.1628 54.4486 74.2051 59.603 79.8458 64.1739C81.4991 65.5354 85.3892 66.3135 87.5288 66.4107C89.6683 66.4107 93.5584 65.5354 95.2117 64.1739C100.95 59.603 103.089 54.5459 102.506 47.0574Z" fill="#F7AC6F"/>
<path d="M98.1297 52.017C97.7407 46.6681 101.436 39.9577 99.1023 36.3593C96.3792 32.2747 91.4193 30.2324 87.0429 30.2324C82.6665 30.2324 78.5819 32.6637 75.8588 36.8456C73.5248 40.3467 77.8039 46.5709 77.0259 51.9198C75.9561 58.7275 75.2753 59.311 80.527 63.4929C82.083 64.7572 85.5841 65.5352 87.6264 65.5352C89.6687 65.5352 93.1698 64.7572 94.7259 63.4929C99.8803 59.2138 98.7132 58.8247 98.1297 52.017Z" fill="#F7AC6F"/>
<path d="M105.715 26.829C105.423 25.8565 102.505 21.9664 102.505 21.9664L97.4483 17.4928C97.4483 17.4928 88.4038 14.5752 86.945 14.1862C83.5411 13.1164 78.6785 17.0065 78.6785 17.0065L75.8582 19.9241L75.7609 19.0488C75.7609 19.0488 70.801 23.4252 69.634 28.9686C68.8559 32.2752 69.4395 40.1527 70.412 42.584C70.412 42.584 72.1625 43.9455 72.7461 43.8483C72.6488 41.3197 73.7186 37.8186 73.7186 35.9708C74.2049 34.4147 77.9977 28.1906 79.7483 27.607C81.5961 25.7592 86.945 27.9961 86.945 27.9961L90.6406 26.6345C90.6406 26.6345 91.5158 28.0933 92.0021 28.2878C92.8774 28.6768 95.795 27.9961 95.795 27.9961C99.9768 30.3301 101.144 36.8461 101.144 36.8461C101.144 36.8461 102.311 41.3197 102.214 43.8483C102.797 43.9455 104.937 42.584 104.937 42.584C105.326 39.5691 107.076 31.6917 105.715 26.829Z" fill="#00314E"/>
<path d="M113.397 136.044L115.245 132.251L115.05 127.194L123.025 75.9414L109.604 69.8145L88.8895 78.859L87.5279 85.7639L86.2637 78.859L65.5488 69.8145L52.1279 75.9414L60.1027 127.194L59.9082 132.251L61.756 136.044L61.2697 140.809L56.8933 157.342C56.8933 157.342 64.868 160.357 87.6252 160.357C110.285 160.357 116.996 157.342 116.996 157.342L113.883 140.809L113.397 136.044Z" fill="#FCE587"/>
<path d="M84.1261 75.6499L86.2656 78.8592L82.8618 77.6922L79.3607 82.9438L65.5508 69.8147L72.7475 64.4658L84.1261 75.6499Z" fill="#FDD36A"/>
<path d="M57.7684 120.678L58.5464 116.982L52.1277 75.9414L47.8486 81.7766L37.248 115.912L57.7684 120.678Z" fill="#FDD36A"/>
<path d="M91.0312 75.6499L88.8916 78.8592L92.2954 77.6922L95.7965 82.9438L109.704 69.8147L102.41 64.4658L91.0312 75.6499Z" fill="#FDD36A"/>
<path d="M62.0501 135.071C67.399 140.031 77.9995 136.433 83.1539 140.615C77.1243 143.63 62.3418 141.004 72.3589 150.632C68.4688 150.729 65.0649 149.27 61.1748 149.562C61.4666 146.158 62.8281 142.463 62.2446 139.448L62.0501 135.071Z" fill="#FDD36A"/>
<path d="M113.301 139.837C111.064 144.408 104.451 143.922 99.6855 144.797C101.922 147.325 106.98 146.839 110.772 146.936C110.189 147.52 109.508 148.395 108.633 149.076C109.994 149.465 114.079 149.659 114.371 149.659L113.301 139.837Z" fill="#FDD36A"/>
<path d="M54.2699 133.223L35.9863 131.959L39.4874 116.398L57.771 120.678L54.2699 133.223Z" fill="#F7995A"/>
<path d="M63.7993 162.496L68.662 164.052L59.9092 169.304L56.8944 173C56.8944 173 33.651 144.31 35.985 131.959C42.112 124.373 54.2686 133.223 54.2686 133.223L63.7993 162.496Z" fill="#F7AC6F"/>
<path d="M117.386 120.678L116.608 116.982L123.027 75.9414L127.306 81.7766L138.004 115.912L117.386 120.678Z" fill="#FDD36A"/>
<path d="M120.887 133.223L139.17 131.959L135.767 116.398L117.386 120.678L120.887 133.223Z" fill="#F7995A"/>
<path d="M111.357 162.496L106.494 164.052L115.247 169.304L118.262 173C118.262 173 141.505 144.31 139.171 131.959C133.044 124.373 120.888 133.223 120.888 133.223L111.357 162.496Z" fill="#F7AC6F"/>
<path d="M88.21 36.2625C88.21 37.7213 87.7238 38.8884 87.043 38.8884C86.4595 38.8884 85.876 37.7213 85.876 36.2625C85.876 34.8038 87.043 33.6367 87.043 33.6367C87.043 33.6367 88.21 34.8038 88.21 36.2625Z" fill="#FEEEE0"/>
<path d="M101.341 49.3915C101.341 50.8502 100.855 52.0173 100.174 52.0173C99.4931 52.0173 99.0068 50.8502 99.0068 49.3915C99.0068 47.9327 100.174 46.7656 100.174 46.7656C100.174 46.7656 101.341 48.0299 101.341 49.3915Z" fill="#FEEEE0"/>
<path d="M77.2208 55.7137C77.2208 57.1725 76.7345 58.3395 76.0537 58.3395C75.4702 58.3395 74.8867 57.1725 74.8867 55.7137C74.8867 54.2549 76.0537 53.0879 76.0537 53.0879C76.0537 53.0879 77.2208 54.2549 77.2208 55.7137Z" fill="#FEEEE0"/>
<path d="M79.7501 64.7577C79.7501 66.2165 79.2638 67.3835 78.583 67.3835C77.9995 67.3835 77.416 66.2165 77.416 64.7577C77.416 63.2989 78.583 62.1318 78.583 62.1318C78.583 62.1318 79.7501 63.2989 79.7501 64.7577Z" fill="#FEEEE0"/>
</g>
</svg>
