<svg width="149" height="150" viewBox="0 0 149 150" fill="none" xmlns="http://www.w3.org/2000/svg">
<path d="M149 75.5C149 116.6 115.6 150 74.5 150C33.4 150 0 116.6 0 75.5C0 34.4 33.4 1 74.5 1C115.6 1 149 34.4 149 75.5Z" fill="#F8F6F6"/>
<mask id="mask0" mask-type="alpha" maskUnits="userSpaceOnUse" x="0" y="0" width="149" height="149">
<path d="M149 74.5C149 115.6 115.6 149 74.5 149C33.4 149 0 115.6 0 74.5C0 33.4 33.4 0 74.5 0C115.6 0 149 33.4 149 74.5Z" fill="#F8F6F6"/>
</mask>
<g mask="url(#mask0)">
<path d="M114.426 151.655H103.892V86H127.321C130.687 86 133.441 89.239 133.441 93.222V129.288C133.441 141.632 124.917 151.655 114.426 151.655Z" fill="#E8E9FB"/>
<path d="M97.5536 90.946V145.833H44.1807C40.946 145.833 38.3232 148.46 38.3232 151.699V151.742H97.5973V151.655H102.581V86H102.537C99.7829 86 97.5536 88.2323 97.5536 90.946Z" fill="#D7D8EC"/>
<path d="M95.9377 144.515C95.9377 144.515 109.051 174.892 56.5965 164.606L45.9307 137.731C45.9307 137.731 50.433 139.175 56.5965 134.229L95.9377 144.515Z" fill="#F7BA8E"/>
<path d="M74.212 45.5954C74.212 45.5954 58.6503 62.8407 56.1587 43.1443L53.7982 44.326C53.0114 44.72 52.0497 44.151 52.0497 43.2318V39.0299C52.0497 39.0299 46.7168 33.296 49.9953 26.7306C53.2737 20.1651 71.7204 11.1485 83.173 29.1817V39.0299L101.183 53.8679L106.515 74.3084L73.4251 66.3423C73.4689 66.3861 79.9383 54.218 74.212 45.5954Z" fill="#FFB68F"/>
<path d="M101.226 53.9121C101.226 53.9121 82.8668 65.3798 74.8237 63.4539C74.1243 63.2789 73.4249 63.8041 73.4249 64.5482C73.6872 73.3459 73.7309 114.927 53.2734 134.317C53.2734 134.317 70.4961 159.354 98.341 151.957C98.341 151.957 93.8386 104.773 101.619 87.9213L112.285 78.9047C112.329 78.8609 112.897 62.7974 101.226 53.9121Z" fill="#FCE587"/>
<path d="M112.329 78.8604C112.329 78.8604 122.164 94.0485 119.279 99.7824C119.279 99.7824 104.286 117.422 77.7522 115.802C77.7522 115.802 77.3151 126.876 63.1522 132.216C63.1522 132.216 59.0432 132.216 65.6001 127.314C65.6001 127.314 60.9666 131.384 58.3438 128.539C55.7648 125.694 53.4043 124.381 58.3438 122.411C58.3438 122.411 60.7043 120.486 63.1522 117.903C63.1522 117.903 58.2127 117.903 56.5953 119.566C56.5953 119.566 54.2349 115.846 60.2672 114.62L71.6324 111.732C71.6324 111.732 96.33 106.392 103.717 97.375C103.717 97.375 102.537 96.3683 101.663 87.9207L112.329 78.8604Z" fill="#FFB68F"/>
<path d="M70.4965 99.3888C69.2726 98.2945 67.4367 98.1632 65.9942 98.9073C64.4642 99.6952 63.1529 101.446 62.5846 102.584C62.1038 103.503 62.4535 104.991 62.366 106.304C62.06 109.543 64.2894 112.563 67.4804 113.001C68.7043 113.176 69.5349 112.826 69.2289 111.338C69.2289 111.338 74.4307 112.826 71.5019 108.843C71.5019 108.843 76.7474 109.762 73.9935 106.173C73.9935 106.173 77.9714 107.968 76.1354 105.123L68.7043 103.109C68.7043 103.109 72.9882 101.533 70.4965 99.3888Z" fill="#F4B08B"/>
<path d="M49.0769 29.5321C49.0769 29.5321 53.7104 22.8353 55.4589 27.3436C55.4589 27.3436 57.8193 32.1583 60.0487 29.5321C62.3217 26.9059 63.9391 33.4714 64.7696 30.3199C65.6002 27.1247 73.7744 26.512 68.4415 35.5723C68.4415 35.5723 77.0528 34.1279 78.8888 38.0234L83.1726 39.0301C83.1726 39.0301 95.0624 17.0577 74.9546 11.7615C74.9546 11.7615 53.011 -2.81385 45.2302 25.4177C45.2302 25.4177 43.7877 31.2829 49.7325 39.0739C49.82 39.0301 46.6727 32.2458 49.0769 29.5321Z" fill="#00314E"/>
<path d="M48.9463 137.556C48.9463 137.556 16.4243 141.889 1.25605 150.512C1.25605 150.512 -7.3553 153.926 -2.02238 175.285C6.19556 208.113 8.64346 218.793 8.64346 218.793L19.8776 215.335L20.8392 168.326L56.596 164.649L48.9901 139.219V137.556H48.9463Z" fill="#F15A29"/>
<path d="M48.9471 137.337C48.9471 137.337 51.6573 133.135 42.6525 137.337C33.6477 141.539 42.6525 138.825 42.6525 138.825L56.5968 166.794C56.5968 166.794 63.1974 168.414 63.1537 165.875L48.9471 137.337Z" fill="#CF4D23"/>
<path d="M56.5518 126.614C56.5518 126.614 60.0487 124.688 62.3218 122.193C62.3218 122.237 58.9559 126.702 56.5518 126.614Z" fill="#B98F6B"/>
<path d="M58.3447 128.496C58.3447 128.496 64.5082 126.57 65.907 123.287C65.907 123.287 65.7758 126.876 58.3447 128.496Z" fill="#B98F6B"/>
<path d="M71.5014 108.843L65.9062 106.874C65.9062 106.874 68.7038 106.611 71.5014 108.843Z" fill="#B98F6B"/>
<path d="M69.2284 111.294L65.9062 108.799C65.9062 108.843 66.8242 110.944 69.2284 111.294Z" fill="#B98F6B"/>
<path d="M73.9932 106.129L69.2285 105.517C69.2285 105.517 71.8513 107.18 73.9932 106.129Z" fill="#B98F6B"/>
<path d="M74.2119 45.5955L76.6161 43.1006C76.6161 43.1006 78.5394 51.0229 76.6161 54.8747C76.6161 54.8747 75.0424 48.0904 74.2119 45.5955Z" fill="#DB9C7B"/>
<path d="M103.719 97.3312H107.784L103.719 86.1699L101.664 87.9207C101.664 87.8769 102.101 94.6175 103.719 97.3312Z" fill="#DB9C7B"/>
<path d="M65.9062 32.2455C65.9062 32.2455 69.5781 27.0369 67.5673 33.3397L65.9062 32.2455Z" fill="#DB9C7B"/>
<path d="M54.0599 106.348C53.2731 104.991 52.4863 103.634 51.7432 102.277C50.9564 100.92 50.2132 99.5635 49.5138 98.1628C48.7707 96.806 48.0276 95.4053 47.3282 94.0485L45.1863 89.8903C44.4869 88.4897 43.7875 87.089 43.0881 85.7322L40.9462 81.5303C39.5911 78.729 38.236 75.9277 36.8809 73.1265L40.4654 73.0389C39.3726 75.884 38.3235 78.729 37.1869 81.574L35.5259 85.8197L33.8211 90.0654L32.16 94.2673L30.1492 90.2405C28.5756 87.089 27.0456 83.9376 25.5594 80.7862C24.0295 77.6348 22.587 74.4396 21.1008 71.2444C20.3576 69.6686 19.6582 68.0492 18.9588 66.4297C18.2594 64.8102 17.5163 63.2345 16.8606 61.5712C16.1612 59.9517 15.4618 58.3323 14.8062 56.7128C14.1505 55.0933 13.4948 53.43 12.8828 51.8105C13.8445 53.2987 14.8062 54.7869 15.7241 56.2751C16.6421 57.7632 17.56 59.2952 18.478 60.7834C19.396 62.2715 20.2702 63.8035 21.1445 65.3354C22.0187 66.8674 22.9367 68.3556 23.7672 69.9313C25.472 72.9952 27.2205 76.059 28.8816 79.1667C30.5426 82.2744 32.2037 85.382 33.8211 88.4897L30.1492 88.6648L31.8103 84.4191L33.4714 80.1734C34.6079 77.3284 35.7444 74.5271 36.8809 71.6821L38.6294 67.3488L40.4654 71.5945C41.6893 74.4396 42.9133 77.3284 44.0935 80.1734L45.842 84.5066C46.4103 85.951 47.0222 87.3954 47.5905 88.8398L49.2953 93.2168C49.8635 94.6612 50.3881 96.1494 50.9564 97.5938C51.5246 99.0382 52.0492 100.526 52.5737 102.015C53.0546 103.371 53.5791 104.86 54.0599 106.348Z" fill="#EB5757"/>
<path d="M51.0439 114.446C50.257 114.402 49.4265 114.358 48.6397 114.27C47.8528 114.183 47.066 114.095 46.2792 114.008C44.7055 113.833 43.1319 113.57 41.5582 113.308C39.9846 113.045 38.4547 112.739 36.881 112.432C35.3511 112.126 33.7774 111.776 32.2475 111.425L34.4768 108.58C35.2637 109.893 36.0505 111.25 36.7936 112.607C37.187 113.264 37.5367 113.964 37.9301 114.621L39.0229 116.678L41.1648 120.705L36.7936 119.654C33.3403 118.823 29.887 117.86 26.4775 116.809C24.7727 116.284 23.0679 115.715 21.4068 115.058C20.5763 114.752 19.702 114.446 18.8715 114.095C18.041 113.745 17.2104 113.395 16.3799 113.045C17.2978 113.045 18.1721 113.089 19.0901 113.132C20.008 113.176 20.8823 113.264 21.8002 113.351C23.5924 113.483 25.3846 113.701 27.1331 113.964C30.6738 114.446 34.1708 115.058 37.6678 115.759L35.4822 118.691L34.3894 116.546C33.996 115.89 33.6463 115.19 33.2529 114.533C32.5098 113.176 31.8104 111.819 31.111 110.419L28.9254 106.217L33.2966 107.574C34.7828 108.055 36.3128 108.537 37.799 109.018C39.2852 109.543 40.7714 110.069 42.2577 110.638C43.7439 111.207 45.2301 111.776 46.6726 112.432C47.4157 112.739 48.1151 113.045 48.8582 113.395C49.6013 113.701 50.3445 114.052 51.0439 114.446Z" fill="#EB5757"/>
</g>
<circle cx="77" cy="13" r="9" fill="#00314E"/>
</svg>
