<svg width="111" height="39" viewBox="0 0 111 39" fill="none" xmlns="http://www.w3.org/2000/svg">
<path d="M31.0758 21.681C32.3183 15.5552 33.5926 9.42937 34.8031 3.27148C35.0261 2.18102 35.3766 1.69993 36.619 1.73201C40.856 1.82822 45.1249 1.79615 49.3619 1.76408C50.3176 1.76408 50.7636 1.76408 50.5088 3.04697C48.2469 13.4063 46.0806 23.7657 43.8825 34.1251C43.6595 35.2155 43.2453 36.306 43.1816 37.3965C43.086 38.8718 42.3533 39.0001 41.1427 38.968C36.4279 38.9039 31.6811 38.9359 26.9663 38.9359C24.5451 38.9359 23.4938 38.2945 22.6337 35.9853C20.9134 31.3027 19.2887 26.5881 17.6002 21.8734C17.3135 21.0396 16.9949 20.2057 16.4215 19.3718C15.6251 23.1884 14.8286 27.005 14.0322 30.7895C13.5225 33.227 12.9809 35.6645 12.5031 38.1341C12.3756 38.8076 12.0889 39.0001 11.4518 39.0001C7.88376 38.968 4.34761 38.9359 0.779596 38.968C-0.176121 38.968 -0.048692 38.519 0.110594 37.8455C2.24503 28.8011 4.37947 19.7246 6.48205 10.6802C6.86433 9.01243 7.1829 7.34467 7.66076 5.70898C8.45719 2.95076 9.89077 1.82822 12.7261 1.76408C16.0711 1.69993 19.4161 1.76408 22.7611 1.66786C23.8442 1.63579 24.1947 2.0848 24.5132 3.0149C26.4884 9.01243 28.5273 15.01 30.5343 21.0075C30.6298 21.2641 30.7254 21.4886 30.821 21.7131C30.8847 21.7131 30.9803 21.7131 31.0758 21.681Z" fill="#BE2827"/>
<path d="M110.177 0C109.477 3.5921 108.999 6.79934 108.202 9.91035C107.788 11.4819 106.195 11.8347 104.698 11.8668C100.939 11.8668 97.1796 11.8668 93.3886 11.8988C92.8789 11.8988 92.1143 11.5781 91.9231 12.412C91.6683 13.4383 91.4771 14.4967 91.3816 15.523C91.3497 15.8437 91.8913 15.7475 92.2099 15.7475C95.077 15.7475 97.9442 15.7796 100.811 15.7154C102.022 15.6834 103.137 15.1702 104.22 14.1439C103.583 17.1908 103.041 19.949 102.468 22.6751C102.054 24.5033 100.971 25.3692 99.0592 25.4013C96.1283 25.4334 93.2293 25.4334 90.2984 25.4013C89.4383 25.3692 89.0878 25.6579 88.9286 26.4918C88.2914 29.6669 87.5905 32.8421 86.9215 36.0172C86.5074 38.0378 85.488 38.9679 83.3854 38.9679C79.8174 39 76.2812 38.9679 72.7132 39C71.9168 39 71.5982 38.9358 71.7893 37.9416C74.3379 26.139 76.8546 14.3363 79.3076 2.53371C79.5306 1.47533 80.1996 1.66776 80.8368 1.66776C88.6418 1.66776 96.4469 1.63569 104.22 1.66776C106.259 1.66776 108.202 1.60362 110.177 0Z" fill="#BE2827"/>
<path d="M77.6511 1.69983C72.4902 7.56907 67.6161 13.1817 62.6463 18.7623C61.9773 19.5 61.9136 20.0452 62.3596 20.9432C65.0038 26.5559 67.6161 32.2327 70.1965 37.8774C70.3239 38.1661 70.4514 38.4547 70.6744 38.9358C67.5523 38.9358 64.6215 38.9358 61.6906 38.9358C59.4606 38.9358 57.2306 38.9037 55.0005 38.9679C54.236 38.9679 53.8855 38.7434 53.6307 38.0057C51.6555 32.1685 49.6485 26.3314 47.6096 20.5263C47.3548 19.8207 47.6096 19.4358 47.9601 18.9547C52.229 13.4383 56.4978 7.92186 60.7667 2.40542C61.0534 2.02055 61.3402 1.69983 61.9136 1.69983C67.0426 1.69983 72.1717 1.69983 77.6511 1.69983Z" fill="#BE2827"/>
</svg>
