<svg xmlns="http://www.w3.org/2000/svg" width="677" height="51" viewBox="0 0 677 51" fill="none"><path d="M0 49.6H7.744L9.024 38.656H15.424L16.768 49.6H24.448L17.664 0.959999H6.848L0 49.6ZM1.472 48.32L7.936 2.24H16.512L22.976 48.32H17.856L16.448 37.376H8L6.592 48.32H1.472ZM8.576 32.768H15.872L12.544 6.848H11.904L8.576 32.768ZM9.92 31.488L12.224 12.544L14.592 31.488H9.92Z" fill="#26929D"></path><path d="M37.2775 49.6H47.8375C54.2375 49.6 58.3975 45.44 58.3975 39.04V11.52C58.3975 5.184 54.1735 0.959999 47.8375 0.959999H37.2775V49.6ZM38.5575 48.32V2.24H47.8375C53.4055 2.24 57.1175 5.952 57.1175 11.52V39.04C57.1175 44.608 53.4055 48.32 47.8375 48.32H38.5575ZM43.6775 43.712H47.8375C50.3335 43.712 51.9975 42.048 51.9975 39.552V11.008C51.9975 8.512 50.3335 6.848 47.8375 6.848H43.6775V43.712ZM44.9575 42.432V8.128H47.8375C49.5655 8.128 50.7175 9.28 50.7175 11.008V39.552C50.7175 41.28 49.5655 42.432 47.8375 42.432H44.9575Z" fill="#26929D"></path><path d="M69.3125 49.6H77.0565L78.3365 38.656H84.7365L86.0805 49.6H93.7605L86.9765 0.959999H76.1605L69.3125 49.6ZM70.7845 48.32L77.2485 2.24H85.8245L92.2885 48.32H87.1685L85.7605 37.376H77.3125L75.9045 48.32H70.7845ZM77.8885 32.768H85.1845L81.8565 6.848H81.2165L77.8885 32.768ZM79.2325 31.488L81.5365 12.544L83.9045 31.488H79.2325Z" fill="#26929D"></path><path d="M106.59 49.6H114.27V34.176L115.998 30.4L121.694 49.6H129.758L120.798 19.712L129.31 0.959999H120.862L114.27 15.552V0.959999H106.59V49.6ZM107.87 48.32V2.24H112.99V21.504L121.694 2.24H127.326L119.454 19.648L128.03 48.32H122.654L116.254 26.752L112.99 33.92V48.32H107.87Z" fill="#26929D"></path><path d="M138.062 49.6H145.807L147.087 38.656H153.487L154.831 49.6H162.511L155.727 0.959999H144.911L138.062 49.6ZM139.535 48.32L145.999 2.24H154.575L161.039 48.32H155.919L154.511 37.376H146.062L144.655 48.32H139.535ZM146.639 32.768H153.935L150.607 6.848H149.967L146.639 32.768ZM147.983 31.488L150.286 12.544L152.655 31.488H147.983Z" fill="#26929D"></path><path d="M175.34 49.6H183.02V28.864H188.78V49.6H196.46V0.959999H188.78V21.696H183.02V0.959999H175.34V49.6ZM176.62 48.32V2.24H181.74V22.976H190.06V2.24H195.18V48.32H190.06V27.584H181.74V48.32H176.62Z" fill="#26929D"></path><path d="M228.438 49.6H236.182L237.462 38.656H243.862L245.206 49.6H252.885L246.102 0.959999H235.286L228.438 49.6ZM229.91 48.32L236.374 2.24H244.95L251.414 48.32H246.294L244.886 37.376H236.438L235.03 48.32H229.91ZM237.014 32.768H244.31L240.982 6.848H240.342L237.014 32.768ZM238.358 31.488L240.661 12.544L243.03 31.488H238.358Z" fill="#26929D"></path><path d="M265.715 49.6H273.395V25.984L281.715 49.6H288.115V0.959999H280.435V24.768L272.051 0.959999H265.715V49.6ZM266.995 48.32V2.24H271.155L281.715 31.872V2.24H286.835V48.32H282.611L272.115 18.816V48.32H266.995Z" fill="#26929D"></path><path d="M304.777 49.6H315.337C321.737 49.6 325.897 45.44 325.897 39.04V11.52C325.897 5.184 321.673 0.959999 315.337 0.959999H304.777V49.6ZM306.057 48.32V2.24H315.337C320.905 2.24 324.618 5.952 324.618 11.52V39.04C324.618 44.608 320.905 48.32 315.337 48.32H306.057ZM311.178 43.712H315.337C317.833 43.712 319.497 42.048 319.497 39.552V11.008C319.497 8.512 317.833 6.848 315.337 6.848H311.178V43.712ZM312.458 42.432V8.128H315.337C317.065 8.128 318.217 9.28 318.217 11.008V39.552C318.217 41.28 317.065 42.432 315.337 42.432H312.458Z" fill="#26929D"></path><path d="M336.812 49.6H344.557L345.837 38.656H352.237L353.581 49.6H361.26L354.477 0.959999H343.66L336.812 49.6ZM338.285 48.32L344.749 2.24H353.324L359.789 48.32H354.669L353.26 37.376H344.812L343.405 48.32H338.285ZM345.389 32.768H352.685L349.357 6.848H348.717L345.389 32.768ZM346.733 31.488L349.036 12.544L351.405 31.488H346.733Z" fill="#26929D"></path><path d="M393.277 49.6H403.837C410.237 49.6 414.397 45.44 414.397 39.04V32.96C414.397 29.76 413.31 27.136 411.454 25.28C413.31 23.424 414.397 20.8 414.397 17.6V11.52C414.397 5.184 410.173 0.959999 403.837 0.959999H393.277V49.6ZM394.557 48.32V2.24H403.837C409.405 2.24 413.118 5.952 413.118 11.52V17.6C413.118 20.992 411.774 23.68 409.406 25.28C411.774 26.88 413.118 29.568 413.118 32.96V39.04C413.118 44.608 409.405 48.32 403.837 48.32H394.557ZM399.678 22.976H403.837C406.333 22.976 407.997 21.312 407.997 18.816V11.008C407.997 8.512 406.333 6.848 403.837 6.848H399.678V22.976ZM400.958 21.696V8.128H403.837C405.565 8.128 406.717 9.28 406.717 11.008V18.816C406.717 20.544 405.565 21.696 403.837 21.696H400.958ZM399.678 43.712H403.837C406.333 43.712 407.997 42.048 407.997 39.552V31.744C407.997 29.248 406.333 27.584 403.837 27.584H399.678V43.712ZM400.958 42.432V28.864H403.837C405.565 28.864 406.717 30.016 406.717 31.744V39.552C406.717 41.28 405.565 42.432 403.837 42.432H400.958Z" fill="#26929D"></path><path d="M430.09 49.6H449.93V42.432H437.77V28.864H447.37V21.696H437.77V8.128H449.93V0.959999H430.09V49.6ZM431.37 48.32V2.24H448.65V6.848H436.49V22.976H446.09V27.584H436.49V43.712H448.65V48.32H431.37Z" fill="#26929D"></path><path d="M464.34 49.6H472.02V31.68H473.236L478.74 49.6H486.74L480.788 30.144C483.732 28.416 485.46 25.216 485.46 21.12V11.52C485.46 5.184 481.236 0.959999 474.9 0.959999H464.34V49.6ZM465.62 48.32V2.24H474.9C480.468 2.24 484.18 5.952 484.18 11.52V21.12C484.18 25.088 482.324 28.096 479.252 29.504L485.012 48.32H479.636L474.196 30.4H470.74V48.32H465.62ZM470.74 25.792H474.9C477.396 25.792 479.06 24.128 479.06 21.632V11.008C479.06 8.512 477.396 6.848 474.9 6.848H470.74V25.792ZM472.02 24.512V8.128H474.9C476.628 8.128 477.78 9.28 477.78 11.008V21.632C477.78 23.36 476.628 24.512 474.9 24.512H472.02Z" fill="#26929D"></path><path d="M501.777 49.6H509.457V0.959999H501.777V49.6ZM503.057 48.32V2.24H508.178V48.32H503.057Z" fill="#26929D"></path><path d="M535.69 50.56C542.09 50.56 546.25 46.4 546.25 40V36.16C546.25 24.32 532.81 21.696 532.81 13.76V10.048C532.81 8.32 533.962 7.168 535.69 7.168C537.418 7.168 538.57 8.32 538.57 10.048V16.32H546.25V10.56C546.25 4.224 542.026 0 535.69 0C529.29 0 525.13 4.16 525.13 10.56V14.4C525.13 26.24 538.57 28.8 538.57 36.8V40.512C538.57 42.24 537.418 43.392 535.69 43.392C533.962 43.392 532.81 42.24 532.81 40.512V34.24H525.13V40C525.13 46.336 529.354 50.56 535.69 50.56ZM535.69 49.28C530.122 49.28 526.41 45.568 526.41 40V35.52H531.53V40.512C531.53 43.008 533.194 44.672 535.69 44.672C538.186 44.672 539.85 43.008 539.85 40.512V36.8C539.85 27.904 526.41 25.664 526.41 14.336V10.56C526.41 4.992 530.122 1.28 535.69 1.28C541.258 1.28 544.97 4.992 544.97 10.56V15.04H539.85V10.048C539.85 7.552 538.186 5.888 535.69 5.888C533.194 5.888 531.53 7.552 531.53 10.048V13.76C531.53 22.656 544.97 24.896 544.97 36.224V40C544.97 45.568 541.258 49.28 535.69 49.28Z" fill="#26929D"></path><path d="M561.902 49.6H569.582V0.959999H561.902V49.6ZM563.182 48.32V2.24H568.302V48.32H563.182Z" fill="#26929D"></path><path d="M586.215 49.6H593.895V34.176L595.623 30.4L601.319 49.6H609.383L600.423 19.712L608.935 0.959999H600.487L593.895 15.552V0.959999H586.215V49.6ZM587.495 48.32V2.24H592.615V21.504L601.319 2.24H606.951L599.079 19.648L607.655 48.32H602.279L595.879 26.752L592.615 33.92V48.32H587.495Z" fill="#26929D"></path><path d="M630.822 50.56C637.222 50.56 641.382 46.4 641.382 40V10.56C641.382 4.224 637.158 0 630.822 0C624.422 0 620.262 4.16 620.262 10.56V40C620.262 46.336 624.486 50.56 630.822 50.56ZM630.822 49.28C625.254 49.28 621.542 45.568 621.542 40V10.56C621.542 4.992 625.254 1.28 630.822 1.28C636.39 1.28 640.102 4.992 640.102 10.56V40C640.102 45.568 636.39 49.28 630.822 49.28ZM630.822 44.672C633.318 44.672 634.982 43.008 634.982 40.512V10.048C634.982 7.552 633.318 5.888 630.822 5.888C628.326 5.888 626.662 7.552 626.662 10.048V40.512C626.662 43.008 628.326 44.672 630.822 44.672ZM630.822 43.392C629.094 43.392 627.943 42.24 627.943 40.512V10.048C627.943 8.32 629.094 7.168 630.822 7.168C632.55 7.168 633.702 8.32 633.702 10.048V40.512C633.702 42.24 632.55 43.392 630.822 43.392Z" fill="#26929D"></path><path d="M662.202 34.24H669.882V28.544C674.042 27.2 676.602 23.616 676.602 18.56V10.56C676.602 4.224 672.378 0 666.042 0C659.642 0 655.482 4.16 655.482 10.56V16.32H663.162V10.048C663.162 8.32 664.314 7.168 666.042 7.168C667.771 7.168 668.922 8.32 668.922 10.048V19.072C668.922 20.8 667.771 21.952 666.042 21.952H662.202V34.24ZM663.482 32.96V23.232H666.042C668.538 23.232 670.202 21.568 670.202 19.072V10.048C670.202 7.552 668.538 5.888 666.042 5.888C663.547 5.888 661.882 7.552 661.882 10.048V15.04H656.762V10.56C656.762 4.992 660.474 1.28 666.042 1.28C671.61 1.28 675.322 4.992 675.322 10.56V18.56C675.322 23.232 672.698 26.56 668.602 27.584V32.96H663.482ZM662.202 49.6H669.882V41.92H662.202V49.6ZM663.482 48.32V43.2H668.602V48.32H663.482Z" fill="#26929D"></path></svg>