<svg xmlns="http://www.w3.org/2000/svg" width="502" height="65" viewBox="0 0 502 65" fill="none"><path d="M6.829 7.224C8.717 7.224 10.269 7.448 11.485 7.896C12.717 8.344 13.629 8.952 14.221 9.72C14.813 10.472 15.109 11.32 15.109 12.264C15.109 13.192 14.901 13.976 14.485 14.616C14.085 15.24 13.525 15.752 12.805 16.152C12.101 16.536 11.285 16.832 10.357 17.04C9.429 17.232 8.445 17.376 7.405 17.472L4.549 17.712C4.197 17.744 3.957 17.8 3.829 17.88C3.717 17.944 3.661 18.024 3.661 18.12C3.661 18.248 3.725 18.336 3.853 18.384C3.981 18.416 4.197 18.432 4.501 18.432H24.829V21H4.357C3.285 21 2.453 20.872 1.861 20.616C1.285 20.36 0.877 20.04 0.637 19.656C0.413 19.256 0.301 18.848 0.301 18.432C0.301 17.68 0.589 17.024 1.165 16.464C1.757 15.888 2.773 15.536 4.213 15.408L6.229 15.24C7.765 15.096 8.917 14.896 9.685 14.64C10.469 14.368 10.989 14.04 11.245 13.656C11.501 13.272 11.629 12.84 11.629 12.36C11.629 11.688 11.397 11.16 10.933 10.776C10.485 10.376 9.917 10.096 9.229 9.936C9.341 10.336 9.397 10.792 9.397 11.304C9.397 12.424 9.005 13.304 8.221 13.944C7.437 14.584 6.285 14.904 4.765 14.904C3.997 14.904 3.261 14.784 2.557 14.544C1.869 14.304 1.301 13.92 0.853 13.392C0.421 12.864 0.205 12.184 0.205 11.352C0.205 9.912 0.789 8.864 1.957 8.208C3.141 7.552 4.765 7.224 6.829 7.224ZM3.397 11.16C3.397 11.656 3.557 11.992 3.877 12.168C4.197 12.344 4.557 12.432 4.957 12.432C5.373 12.432 5.725 12.312 6.013 12.072C6.301 11.816 6.445 11.384 6.445 10.776C6.445 10.424 6.381 10.064 6.253 9.696C6.125 9.696 5.997 9.696 5.869 9.696C5.741 9.696 5.653 9.696 5.605 9.696C5.013 9.696 4.493 9.808 4.045 10.032C3.613 10.24 3.397 10.616 3.397 11.16ZM27.1304 21V7.512H42.8024V10.08H37.7624V13.176C38.1944 12.904 38.6664 12.696 39.1784 12.552C39.6904 12.392 40.2664 12.312 40.9064 12.312C41.9464 12.312 42.7784 12.496 43.4024 12.864C44.0264 13.232 44.4744 13.704 44.7464 14.28C45.0184 14.84 45.1544 15.416 45.1544 16.008C45.1544 16.536 45.0824 17 44.9384 17.4C44.7944 17.8 44.6264 18.144 44.4344 18.432H48.1304V7.512H51.7064V21H34.1864V18.432H40.9304C41.0904 18.256 41.2424 18.008 41.3864 17.688C41.5304 17.368 41.6024 17.008 41.6024 16.608C41.6024 15.952 41.4424 15.504 41.1224 15.264C40.8024 15.008 40.3864 14.88 39.8744 14.88C39.5224 14.88 39.1624 14.952 38.7944 15.096C38.4424 15.224 38.0984 15.408 37.7624 15.648V17.16H34.1864V10.08H30.7064V21H27.1304ZM39.4424 5.112C38.8664 5.112 38.3944 4.928 38.0264 4.56C37.6584 4.176 37.4744 3.696 37.4744 3.12C37.4744 2.544 37.6584 2.072 38.0264 1.704C38.3944 1.32 38.8664 1.128 39.4424 1.128C40.0024 1.128 40.4664 1.32 40.8344 1.704C41.2024 2.072 41.3864 2.544 41.3864 3.12C41.3864 3.696 41.2024 4.176 40.8344 4.56C40.4664 4.928 40.0024 5.112 39.4424 5.112ZM60.6732 21.288C59.4732 21.288 58.4172 21.128 57.5052 20.808C56.5932 20.472 55.8812 19.992 55.3692 19.368C54.8572 18.728 54.6012 17.952 54.6012 17.04C54.6012 16.288 54.7932 15.616 55.1772 15.024C55.5772 14.416 56.2012 13.92 57.0492 13.536V7.512H71.8812V10.08H67.3692V12.672H67.4172C68.4412 12.672 69.2892 12.712 69.9612 12.792C70.6332 12.872 71.2092 13.008 71.6892 13.2C72.1692 13.376 72.6172 13.616 73.0332 13.92C73.5132 14.256 73.8892 14.704 74.1612 15.264C74.4492 15.808 74.5932 16.432 74.5932 17.136C74.5932 18.432 74.1772 19.448 73.3452 20.184C72.5292 20.92 71.3532 21.288 69.8172 21.288C69.4332 21.288 68.9932 21.264 68.4972 21.216C68.0172 21.184 67.5692 21.112 67.1532 21L67.7292 18.528C68.1612 18.64 68.6252 18.696 69.1212 18.696C70.4972 18.696 71.1852 18.12 71.1852 16.968C71.1852 16.424 71.0012 16.024 70.6332 15.768C70.2812 15.496 69.8172 15.32 69.2412 15.24C68.6652 15.144 68.0412 15.096 67.3692 15.096V15.24C67.3692 16.36 67.2572 17.248 67.0332 17.904C66.8252 18.544 66.5212 19.088 66.1212 19.536C65.5292 20.176 64.7692 20.632 63.8412 20.904C62.9292 21.16 61.8732 21.288 60.6732 21.288ZM60.2652 10.08V12.768C60.9052 12.704 61.5932 12.672 62.3292 12.672H63.8892V10.08H60.2652ZM58.1292 16.968C58.1292 17.576 58.3772 18.024 58.8732 18.312C59.3852 18.6 60.0652 18.744 60.9132 18.744C61.8412 18.744 62.5692 18.512 63.0972 18.048C63.6252 17.568 63.8892 16.648 63.8892 15.288V15.096H61.8972C61.3372 15.096 60.8012 15.128 60.2892 15.192C59.7932 15.24 59.3692 15.352 59.0172 15.528C58.4252 15.832 58.1292 16.312 58.1292 16.968ZM88.9461 21.288C87.2981 21.288 85.9621 20.784 84.9381 19.776C83.9301 18.752 83.4261 17.224 83.4261 15.192C83.4261 13.912 83.6421 12.776 84.0741 11.784C84.5221 10.792 85.1221 9.96 85.8741 9.288C86.6421 8.6 87.5221 8.088 88.5141 7.752C89.5061 7.4 90.5621 7.224 91.6821 7.224C92.6581 7.224 93.5141 7.336 94.2501 7.56C95.0021 7.768 95.7461 8.08 96.4821 8.496V7.512H110.138V10.08H106.706V13.44C107.058 13.296 107.434 13.184 107.834 13.104C108.25 13.008 108.682 12.96 109.13 12.96C110.778 12.96 112.034 13.472 112.898 14.496C113.762 15.52 114.194 16.936 114.194 18.744C114.194 20.088 113.93 21.272 113.402 22.296C112.89 23.32 112.178 24.2 111.266 24.936C110.354 25.672 109.306 26.28 108.122 26.76C106.954 27.256 105.714 27.64 104.402 27.912C103.09 28.2 101.762 28.4 100.418 28.512C99.0901 28.64 97.8101 28.704 96.5781 28.704H94.6821C92.9701 28.704 91.2581 28.6 89.5461 28.392C87.8501 28.184 86.2421 27.832 84.7221 27.336C83.2181 26.84 81.8741 26.16 80.6901 25.296C79.5221 24.432 78.6021 23.344 77.9301 22.032C77.2581 20.736 76.9221 19.176 76.9221 17.352V16.992C76.9221 15.728 77.0581 14.552 77.3301 13.464C77.6181 12.36 77.9941 11.304 78.4581 10.296C78.9381 9.288 79.4661 8.272 80.0421 7.248L82.8021 8.832C81.9221 10.336 81.2821 11.712 80.8821 12.96C80.4821 14.192 80.2821 15.488 80.2821 16.848V17.28C80.2821 18.8 80.5861 20.08 81.1941 21.12C81.8021 22.176 82.6261 23.024 83.6661 23.664C84.7061 24.32 85.8661 24.816 87.1461 25.152C88.4261 25.504 89.7461 25.744 91.1061 25.872C92.4661 26 93.7701 26.064 95.0181 26.064H95.7621C96.6421 26.064 97.6181 26.032 98.6901 25.968C99.7621 25.904 100.85 25.784 101.954 25.608C103.074 25.432 104.146 25.168 105.17 24.816C106.21 24.48 107.138 24.04 107.954 23.496C108.77 22.952 109.418 22.272 109.898 21.456C110.378 20.656 110.618 19.704 110.618 18.6C110.618 17.752 110.426 17.032 110.042 16.44C109.674 15.832 109.074 15.528 108.242 15.528C107.938 15.528 107.658 15.568 107.402 15.648C107.162 15.712 106.93 15.816 106.706 15.96V21H103.13V10.08H99.5541V21H95.9781V11.784C95.4501 11.224 94.8261 10.76 94.1061 10.392C93.3861 10.024 92.5381 9.84 91.5621 9.84C90.4581 9.84 89.4981 10.144 88.6821 10.752C87.8661 11.344 87.2821 12.168 86.9301 13.224C87.3141 13.048 87.7221 12.912 88.1541 12.816C88.5861 12.72 89.0501 12.672 89.5461 12.672C90.8261 12.672 91.8661 13.032 92.6661 13.752C93.4661 14.472 93.8661 15.496 93.8661 16.824C93.8661 18.2 93.4501 19.288 92.6181 20.088C91.7861 20.888 90.5621 21.288 88.9461 21.288ZM88.6581 15.096C88.2741 15.096 87.9061 15.168 87.5541 15.312C87.2181 15.456 86.8981 15.64 86.5941 15.864C86.6421 16.936 86.8581 17.704 87.2421 18.168C87.6261 18.616 88.1461 18.84 88.8021 18.84C89.3301 18.84 89.7461 18.68 90.0501 18.36C90.3541 18.04 90.5061 17.584 90.5061 16.992C90.5061 16.384 90.3381 15.92 90.0021 15.6C89.6661 15.264 89.2181 15.096 88.6581 15.096ZM122.243 21.288C121.044 21.288 119.988 21.128 119.076 20.808C118.164 20.472 117.452 19.992 116.94 19.368C116.428 18.728 116.172 17.952 116.172 17.04C116.172 16.288 116.364 15.616 116.748 15.024C117.148 14.416 117.772 13.92 118.62 13.536V7.512H133.452V10.08H128.94V12.672H128.988C130.012 12.672 130.86 12.712 131.532 12.792C132.204 12.872 132.78 13.008 133.26 13.2C133.74 13.376 134.188 13.616 134.604 13.92C135.084 14.256 135.46 14.704 135.732 15.264C136.02 15.808 136.164 16.432 136.164 17.136C136.164 18.432 135.748 19.448 134.916 20.184C134.1 20.92 132.924 21.288 131.388 21.288C131.004 21.288 130.564 21.264 130.068 21.216C129.588 21.184 129.14 21.112 128.724 21L129.299 18.528C129.732 18.64 130.196 18.696 130.692 18.696C132.068 18.696 132.756 18.12 132.756 16.968C132.756 16.424 132.572 16.024 132.204 15.768C131.852 15.496 131.388 15.32 130.812 15.24C130.236 15.144 129.612 15.096 128.94 15.096V15.24C128.94 16.36 128.828 17.248 128.604 17.904C128.396 18.544 128.092 19.088 127.692 19.536C127.1 20.176 126.34 20.632 125.412 20.904C124.5 21.16 123.444 21.288 122.243 21.288ZM121.836 10.08V12.768C122.476 12.704 123.164 12.672 123.9 12.672H125.46V10.08H121.836ZM119.7 16.968C119.7 17.576 119.948 18.024 120.444 18.312C120.956 18.6 121.636 18.744 122.484 18.744C123.412 18.744 124.14 18.512 124.668 18.048C125.196 17.568 125.46 16.648 125.46 15.288V15.096H123.468C122.908 15.096 122.372 15.128 121.86 15.192C121.364 15.24 120.94 15.352 120.588 15.528C119.996 15.832 119.7 16.312 119.7 16.968ZM126.684 5.112C126.108 5.112 125.636 4.928 125.268 4.56C124.9 4.176 124.716 3.696 124.716 3.12C124.716 2.544 124.9 2.072 125.268 1.704C125.636 1.32 126.108 1.128 126.684 1.128C127.244 1.128 127.707 1.32 128.076 1.704C128.444 2.072 128.628 2.544 128.628 3.12C128.628 3.696 128.444 4.176 128.076 4.56C127.707 4.928 127.244 5.112 126.684 5.112ZM150.516 21.288C149.348 21.288 148.308 21.128 147.396 20.808C146.484 20.472 145.772 19.992 145.26 19.368C144.748 18.728 144.492 17.952 144.492 17.04C144.492 16.288 144.684 15.616 145.068 15.024C145.452 14.416 146.068 13.92 146.916 13.536V7.512H161.772V10.08H157.188V12.744C158.948 12.92 160.356 13.36 161.412 14.064C162.468 14.752 163.228 15.6 163.692 16.608C164.156 17.616 164.388 18.672 164.388 19.776C164.388 21.44 164.044 22.84 163.356 23.976C162.684 25.128 161.764 26.048 160.596 26.736C159.444 27.424 158.14 27.92 156.684 28.224C155.228 28.544 153.732 28.704 152.196 28.704H151.572C149.572 28.704 147.836 28.488 146.364 28.056C144.892 27.624 143.652 27.032 142.644 26.28C141.636 25.528 140.82 24.672 140.196 23.712C139.588 22.768 139.148 21.776 138.876 20.736C138.604 19.68 138.468 18.64 138.468 17.616V17.112C138.468 15.784 138.62 14.536 138.924 13.368C139.228 12.184 139.628 11.08 140.124 10.056C140.62 9.032 141.14 8.096 141.684 7.248L144.492 8.904C143.708 10.072 143.076 11.352 142.596 12.744C142.116 14.12 141.876 15.472 141.876 16.8V17.376C141.876 18.592 142.052 19.728 142.404 20.784C142.772 21.824 143.348 22.736 144.132 23.52C144.916 24.32 145.924 24.944 147.156 25.392C148.404 25.84 149.9 26.064 151.644 26.064H151.788C154.556 26.064 156.74 25.552 158.34 24.528C159.94 23.52 160.74 21.96 160.74 19.848C160.74 18.568 160.412 17.56 159.756 16.824C159.1 16.088 158.244 15.584 157.188 15.312C157.172 16.432 157.06 17.312 156.852 17.952C156.644 18.576 156.348 19.104 155.964 19.536C155.372 20.176 154.612 20.632 153.684 20.904C152.772 21.16 151.716 21.288 150.516 21.288ZM150.132 10.08V12.768C150.772 12.704 151.468 12.672 152.22 12.672H153.756V10.08H150.132ZM147.996 16.968C147.996 17.576 148.244 18.024 148.74 18.312C149.252 18.584 149.932 18.72 150.78 18.72C151.404 18.72 151.932 18.624 152.364 18.432C152.812 18.24 153.156 17.896 153.396 17.4C153.636 16.888 153.756 16.184 153.756 15.288V15.096H151.764C151.204 15.096 150.668 15.128 150.156 15.192C149.66 15.24 149.236 15.352 148.884 15.528C148.292 15.832 147.996 16.312 147.996 16.968ZM177.04 21.288C175.84 21.288 174.784 21.128 173.872 20.808C172.96 20.472 172.248 19.992 171.736 19.368C171.224 18.728 170.968 17.952 170.968 17.04C170.968 16.288 171.16 15.616 171.544 15.024C171.944 14.416 172.568 13.92 173.416 13.536V7.512H188.272V10.08H183.688V12.672H188.272V15.096H183.688V15.24C183.688 16.36 183.584 17.248 183.376 17.904C183.168 18.544 182.864 19.088 182.464 19.536C181.872 20.176 181.112 20.632 180.184 20.904C179.272 21.16 178.224 21.288 177.04 21.288ZM176.632 10.08V12.768C177.272 12.704 177.96 12.672 178.696 12.672H180.256V10.08H176.632ZM177.28 18.72C177.904 18.72 178.432 18.624 178.864 18.432C179.312 18.24 179.656 17.896 179.896 17.4C180.136 16.888 180.256 16.184 180.256 15.288V15.096H178.264C177.704 15.096 177.168 15.128 176.656 15.192C176.16 15.24 175.736 15.352 175.384 15.528C174.792 15.832 174.496 16.312 174.496 16.968C174.496 17.576 174.744 18.024 175.24 18.312C175.752 18.584 176.432 18.72 177.28 18.72ZM186.703 0.576C188.127 0.576 189.311 0.743999 190.255 1.08C191.215 1.416 192.015 1.888 192.655 2.496C193.055 2.864 193.415 3.328 193.735 3.888C194.071 4.432 194.335 5.176 194.527 6.12C194.735 7.064 194.839 8.336 194.839 9.936V21H191.263V10.608C191.263 8.976 191.159 7.632 190.951 6.576C190.759 5.504 190.279 4.656 189.511 4.032C189.207 3.776 188.839 3.568 188.407 3.408C187.959 3.248 187.367 3.168 186.631 3.168C185.831 3.168 185.191 3.296 184.711 3.552C184.231 3.808 183.887 4.152 183.679 4.584C183.471 5 183.367 5.448 183.367 5.928C183.367 6.344 183.439 6.776 183.583 7.224C183.711 7.672 183.927 8.144 184.231 8.64H180.631C180.423 8.256 180.263 7.8 180.151 7.272C180.023 6.744 179.959 6.232 179.959 5.736C179.959 4.824 180.151 4.048 180.535 3.408C180.903 2.752 181.407 2.216 182.047 1.8C182.687 1.384 183.415 1.08 184.231 0.887999C185.031 0.679999 185.855 0.576 186.703 0.576ZM212.206 7.224C214.35 7.224 215.982 7.944 217.102 9.384C218.238 10.808 218.806 12.768 218.806 15.264C218.806 16.784 218.67 18.128 218.398 19.296C218.142 20.448 217.774 21.512 217.294 22.488H221.998V7.512H225.574V25.056H215.95C214.766 26.336 213.27 27.264 211.462 27.84C209.654 28.416 207.582 28.704 205.246 28.704H204.838C203.446 28.704 202.198 28.568 201.094 28.296C199.99 28.024 199.118 27.592 198.478 27C197.838 26.424 197.518 25.68 197.518 24.768C197.518 23.984 197.814 23.392 198.406 22.992C198.678 22.816 198.998 22.688 199.366 22.608C199.75 22.528 200.398 22.488 201.31 22.488H213.622C214.15 21.592 214.55 20.52 214.822 19.272C215.094 18.024 215.23 16.704 215.23 15.312C215.23 13.328 214.918 11.912 214.294 11.064C213.67 10.216 212.894 9.792 211.966 9.792C211.566 9.792 211.206 9.856 210.886 9.984C210.582 10.096 210.31 10.296 210.07 10.584C209.798 10.936 209.614 11.344 209.518 11.808C209.438 12.256 209.398 12.848 209.398 13.584V21H205.822V13.728C205.822 12.848 205.79 12.16 205.726 11.664C205.678 11.168 205.55 10.768 205.342 10.464C205.198 10.256 205.022 10.096 204.814 9.984C204.606 9.856 204.342 9.792 204.022 9.792C203.382 9.792 202.926 10.016 202.654 10.464C202.446 10.768 202.31 11.168 202.246 11.664C202.198 12.16 202.174 12.84 202.174 13.704V21H198.598V13.056C198.598 11.872 198.718 10.92 198.958 10.2C199.214 9.464 199.59 8.872 200.086 8.424C200.518 8.008 201.022 7.704 201.598 7.512C202.174 7.32 202.782 7.224 203.422 7.224C204.462 7.224 205.302 7.392 205.942 7.728C206.582 8.048 207.158 8.576 207.67 9.312C208.214 8.672 208.822 8.168 209.494 7.8C210.182 7.416 211.086 7.224 212.206 7.224ZM204.718 26.328H205.054C206.654 26.328 208.022 26.216 209.158 25.992C210.31 25.784 211.302 25.392 212.134 24.816H201.574C201.302 24.816 201.094 24.84 200.95 24.888C200.822 24.936 200.758 25.048 200.758 25.224C200.758 25.544 201.086 25.808 201.742 26.016C202.414 26.224 203.406 26.328 204.718 26.328ZM229.396 21V7.512H243.58V10.08H240.124V12.936C240.492 12.744 240.892 12.592 241.324 12.48C241.772 12.368 242.26 12.312 242.788 12.312C244.308 12.312 245.532 12.784 246.46 13.728C247.404 14.672 247.876 16.072 247.876 17.928C247.876 19.336 247.636 20.488 247.156 21.384C246.692 22.296 246.084 23.008 245.332 23.52C244.516 24.08 243.516 24.472 242.332 24.696C241.164 24.936 239.732 25.056 238.036 25.056H235.9C234.924 25.056 234.236 25.096 233.836 25.176C233.436 25.272 233.108 25.408 232.852 25.584C232.596 25.776 232.396 26.016 232.252 26.304C232.108 26.608 232.036 27.016 232.036 27.528C232.036 27.864 232.06 28.2 232.108 28.536L228.604 28.704C228.556 28.368 228.516 28.032 228.484 27.696C228.468 27.376 228.46 27.024 228.46 26.64C228.46 25.92 228.604 25.288 228.892 24.744C229.18 24.216 229.564 23.784 230.044 23.448C230.364 23.224 230.724 23.04 231.124 22.896C231.524 22.752 232.02 22.648 232.612 22.584C233.204 22.52 233.94 22.488 234.82 22.488H237.58C238.748 22.488 239.692 22.44 240.412 22.344C241.132 22.264 241.716 22.12 242.164 21.912C242.628 21.704 243.028 21.432 243.364 21.096C243.652 20.808 243.892 20.408 244.084 19.896C244.276 19.368 244.372 18.736 244.372 18C244.372 16.976 244.156 16.2 243.724 15.672C243.308 15.144 242.724 14.88 241.972 14.88C241.588 14.88 241.252 14.928 240.964 15.024C240.676 15.12 240.396 15.264 240.124 15.456V21H236.548V10.08H232.972V21H229.396ZM243.604 0.576C245.364 0.576 246.62 0.895999 247.372 1.536C248.14 2.16 248.524 2.968 248.524 3.96C248.524 4.936 248.196 5.704 247.54 6.264C246.884 6.824 245.924 7.104 244.66 7.104C243.3 7.104 242.316 6.824 241.708 6.264C241.1 5.688 240.796 4.936 240.796 4.008C240.796 3.848 240.812 3.688 240.844 3.528C240.428 3.8 240.092 4.16 239.836 4.608C239.596 5.04 239.476 5.544 239.476 6.12C239.476 6.52 239.516 6.88 239.596 7.2C239.692 7.504 239.812 7.816 239.956 8.136L237.124 8.616C236.74 7.816 236.548 6.912 236.548 5.904C236.548 5.28 236.676 4.656 236.932 4.032C237.204 3.392 237.62 2.816 238.18 2.304C238.74 1.776 239.468 1.36 240.364 1.056C241.26 0.736 242.34 0.576 243.604 0.576ZM243.22 3.888C243.22 4.688 243.652 5.088 244.516 5.088C244.932 5.088 245.228 4.984 245.404 4.776C245.58 4.552 245.668 4.288 245.668 3.984C245.668 3.52 245.476 3.216 245.092 3.072C244.724 2.928 244.26 2.856 243.7 2.856C243.62 2.856 243.548 2.856 243.484 2.856C243.308 3.192 243.22 3.536 243.22 3.888ZM256.268 26.112L254.012 24.024L258.068 20.208V10.08H254.324V21H250.748V7.512H265.076V10.08H261.644V21L256.268 26.112ZM271.634 21.288C270.434 21.288 269.378 21.128 268.466 20.808C267.554 20.472 266.842 19.992 266.33 19.368C265.818 18.728 265.562 17.952 265.562 17.04C265.562 16.288 265.754 15.616 266.138 15.024C266.538 14.416 267.162 13.92 268.01 13.536V7.512H282.842V10.08H278.33V12.672H278.378C279.402 12.672 280.25 12.712 280.922 12.792C281.594 12.872 282.17 13.008 282.65 13.2C283.13 13.376 283.578 13.616 283.994 13.92C284.474 14.256 284.85 14.704 285.122 15.264C285.41 15.808 285.554 16.432 285.554 17.136C285.554 18.432 285.138 19.448 284.306 20.184C283.49 20.92 282.314 21.288 280.778 21.288C280.394 21.288 279.954 21.264 279.458 21.216C278.978 21.184 278.53 21.112 278.114 21L278.69 18.528C279.122 18.64 279.586 18.696 280.082 18.696C281.458 18.696 282.146 18.12 282.146 16.968C282.146 16.424 281.962 16.024 281.594 15.768C281.242 15.496 280.778 15.32 280.202 15.24C279.626 15.144 279.002 15.096 278.33 15.096V15.24C278.33 16.36 278.218 17.248 277.994 17.904C277.786 18.544 277.482 19.088 277.082 19.536C276.49 20.176 275.73 20.632 274.802 20.904C273.89 21.16 272.834 21.288 271.634 21.288ZM271.226 10.08V12.768C271.866 12.704 272.554 12.672 273.29 12.672H274.85V10.08H271.226ZM269.09 16.968C269.09 17.576 269.338 18.024 269.834 18.312C270.346 18.6 271.026 18.744 271.874 18.744C272.802 18.744 273.53 18.512 274.058 18.048C274.586 17.568 274.85 16.648 274.85 15.288V15.096H272.858C272.298 15.096 271.762 15.128 271.25 15.192C270.754 15.24 270.33 15.352 269.978 15.528C269.386 15.832 269.09 16.312 269.09 16.968ZM301.491 7.224C302.979 7.224 304.187 7.544 305.115 8.184C306.043 8.808 306.723 9.672 307.155 10.776C307.603 11.88 307.827 13.128 307.827 14.52C307.827 15.736 307.683 16.752 307.395 17.568C307.123 18.384 306.683 19.048 306.075 19.56C305.643 19.928 305.155 20.216 304.611 20.424C304.067 20.632 303.411 20.784 302.643 20.88C301.891 20.96 300.955 21 299.835 21H288.435V7.512H292.011V18.432H296.427V12.48C296.427 11.488 296.531 10.68 296.739 10.056C296.963 9.432 297.283 8.912 297.699 8.496C298.579 7.648 299.843 7.224 301.491 7.224ZM301.731 9.792C301.523 9.792 301.315 9.824 301.107 9.888C300.915 9.952 300.739 10.064 300.579 10.224C300.371 10.432 300.219 10.72 300.123 11.088C300.043 11.44 300.003 12.024 300.003 12.84V18.432H300.915C301.763 18.432 302.427 18.312 302.907 18.072C303.403 17.816 303.747 17.4 303.939 16.824C304.147 16.248 304.251 15.48 304.251 14.52C304.251 13.64 304.171 12.848 304.011 12.144C303.851 11.424 303.587 10.856 303.219 10.44C302.851 10.008 302.355 9.792 301.731 9.792ZM297.771 5.112C297.195 5.112 296.723 4.928 296.355 4.56C295.987 4.176 295.803 3.696 295.803 3.12C295.803 2.544 295.987 2.072 296.355 1.704C296.723 1.32 297.195 1.128 297.771 1.128C298.331 1.128 298.795 1.32 299.163 1.704C299.531 2.072 299.715 2.544 299.715 3.12C299.715 3.696 299.531 4.176 299.163 4.56C298.795 4.928 298.331 5.112 297.771 5.112ZM323.497 21.288C321.705 21.288 320.169 20.896 318.889 20.112C317.609 19.312 316.625 18.2 315.937 16.776C315.265 15.336 314.929 13.648 314.929 11.712C314.929 10.016 315.217 8.488 315.793 7.128C316.369 5.752 317.169 4.576 318.193 3.6C319.233 2.624 320.449 1.88 321.841 1.368C323.233 0.84 324.745 0.576 326.377 0.576C327.561 0.576 328.649 0.704 329.641 0.959999C330.633 1.216 331.545 1.648 332.377 2.256C333.065 2.752 333.625 3.344 334.057 4.032C334.505 4.72 334.833 5.592 335.041 6.648C335.265 7.688 335.377 9.008 335.377 10.608V21H331.801V11.688C331.801 10.92 331.769 10.112 331.705 9.264C331.657 8.4 331.521 7.576 331.297 6.792C331.089 6.008 330.753 5.352 330.289 4.824C329.793 4.232 329.209 3.816 328.537 3.576C327.881 3.336 327.105 3.216 326.209 3.216C325.233 3.216 324.273 3.384 323.329 3.72C322.401 4.056 321.561 4.576 320.809 5.28C320.057 5.968 319.457 6.864 319.009 7.968C318.561 9.056 318.337 10.36 318.337 11.88C318.337 13.256 318.481 14.424 318.769 15.384C319.073 16.328 319.465 17.08 319.945 17.64C319.897 17.432 319.849 17.224 319.801 17.016C319.769 16.792 319.753 16.56 319.753 16.32C319.753 15.088 320.153 14.064 320.953 13.248C321.753 12.432 323.001 12.024 324.697 12.024C325.817 12.024 326.737 12.224 327.457 12.624C328.177 13.024 328.713 13.56 329.065 14.232C329.417 14.904 329.593 15.64 329.593 16.44C329.593 18.056 329.049 19.272 327.961 20.088C326.873 20.888 325.385 21.288 323.497 21.288ZM322.729 16.488C322.729 16.936 322.785 17.36 322.897 17.76C323.009 18.144 323.161 18.488 323.353 18.792C323.529 18.808 323.713 18.816 323.905 18.816C324.801 18.816 325.409 18.584 325.729 18.12C326.065 17.64 326.233 17.104 326.233 16.512C326.233 16 326.097 15.536 325.825 15.12C325.553 14.704 325.113 14.496 324.505 14.496C324.025 14.496 323.609 14.656 323.257 14.976C322.905 15.296 322.729 15.8 322.729 16.488ZM344.361 21.288C342.553 21.288 341.089 20.928 339.969 20.208C338.849 19.472 338.289 18.416 338.289 17.04C338.289 16.288 338.481 15.616 338.865 15.024C339.265 14.416 339.889 13.92 340.737 13.536V7.512H355.593V10.08H351.057V12.696C352.465 12.76 353.713 13 354.801 13.416C355.889 13.832 356.737 14.472 357.345 15.336C357.969 16.184 358.281 17.296 358.281 18.672C358.281 19.76 358.049 20.68 357.585 21.432C357.137 22.2 356.489 22.864 355.641 23.424C354.857 23.968 353.817 24.376 352.521 24.648C351.225 24.92 349.601 25.056 347.649 25.056H345.777C344.801 25.056 344.105 25.096 343.689 25.176C343.289 25.272 342.961 25.408 342.705 25.584C342.449 25.776 342.249 26.016 342.105 26.304C341.961 26.608 341.889 27.016 341.889 27.528C341.889 27.864 341.913 28.2 341.961 28.536L338.457 28.704C338.409 28.368 338.369 28.032 338.337 27.696C338.321 27.376 338.313 27.024 338.313 26.64C338.313 25.92 338.457 25.288 338.745 24.744C339.033 24.216 339.417 23.784 339.897 23.448C340.217 23.224 340.577 23.04 340.977 22.896C341.377 22.752 341.873 22.648 342.465 22.584C343.057 22.52 343.793 22.488 344.673 22.488H346.833C348.225 22.488 349.369 22.432 350.265 22.32C351.161 22.224 351.881 22.064 352.425 21.84C352.985 21.616 353.441 21.32 353.793 20.952C354.433 20.312 354.753 19.456 354.753 18.384C354.753 17.616 354.577 17.008 354.225 16.56C353.873 16.112 353.417 15.784 352.857 15.576C352.297 15.352 351.697 15.208 351.057 15.144V15.24C351.057 16.36 350.945 17.248 350.721 17.904C350.513 18.544 350.209 19.088 349.809 19.536C349.233 20.176 348.481 20.632 347.553 20.904C346.625 21.16 345.561 21.288 344.361 21.288ZM343.953 10.08V12.768C344.593 12.704 345.289 12.672 346.041 12.672H347.577V10.08H343.953ZM341.817 16.968C341.817 17.56 342.065 18 342.561 18.288C343.073 18.576 343.753 18.72 344.601 18.72C345.225 18.72 345.753 18.624 346.185 18.432C346.633 18.24 346.977 17.896 347.217 17.4C347.457 16.888 347.577 16.184 347.577 15.288V15.096H345.585C345.025 15.096 344.489 15.128 343.977 15.192C343.481 15.24 343.057 15.352 342.705 15.528C342.113 15.832 341.817 16.312 341.817 16.968ZM361.091 21V7.512H375.419V10.08H371.987V21H368.411V10.08H364.667V21H361.091ZM377.732 21V7.512H381.308V18.432H393.26V21H377.732ZM401.088 26.112L398.832 24.024L402.888 20.208V10.08H399.144V21H395.568V7.512H409.896V10.08H406.464V21L401.088 26.112ZM402 5.112C401.424 5.112 400.952 4.928 400.584 4.56C400.216 4.176 400.032 3.696 400.032 3.12C400.032 2.544 400.216 2.072 400.584 1.704C400.952 1.32 401.424 1.128 402 1.128C402.56 1.128 403.024 1.32 403.392 1.704C403.76 2.072 403.944 2.544 403.944 3.12C403.944 3.696 403.76 4.176 403.392 4.56C403.024 4.928 402.56 5.112 402 5.112ZM424.785 27.792V21H412.209V7.512H415.785V18.432H424.785V7.512H428.337V27.792H424.785ZM436.882 21.288C435.218 21.288 433.874 20.784 432.85 19.776C431.842 18.768 431.338 17.256 431.338 15.24C431.338 13.64 431.738 12.24 432.538 11.04C433.338 9.84 434.482 8.904 435.97 8.232C437.474 7.56 439.258 7.224 441.322 7.224C442.634 7.224 443.786 7.336 444.778 7.56C445.786 7.784 446.778 8.168 447.754 8.712C448.522 8.2 449.314 7.824 450.13 7.584C450.962 7.344 451.794 7.224 452.626 7.224C454.37 7.224 455.77 7.544 456.826 8.184C457.898 8.824 458.674 9.68 459.154 10.752C459.65 11.808 459.898 12.968 459.898 14.232C459.898 15.208 459.786 16.136 459.562 17.016C459.354 17.88 459.09 18.68 458.77 19.416C458.45 20.136 458.114 20.76 457.762 21.288L454.81 19.848C455.226 19.192 455.578 18.432 455.866 17.568C456.17 16.688 456.322 15.648 456.322 14.448C456.322 12.976 455.962 11.84 455.242 11.04C454.522 10.24 453.53 9.84 452.266 9.84C451.85 9.84 451.458 9.88 451.09 9.96C450.722 10.024 450.362 10.136 450.01 10.296C450.874 11.096 451.57 12.008 452.098 13.032C452.626 14.056 452.89 15.216 452.89 16.512C452.89 17.984 452.474 19.152 451.642 20.016C450.81 20.864 449.642 21.288 448.138 21.288C446.986 21.288 446.05 21.072 445.33 20.64C444.626 20.208 444.106 19.632 443.77 18.912C443.434 18.176 443.266 17.376 443.266 16.512C443.266 15.392 443.466 14.344 443.866 13.368C444.282 12.376 444.834 11.464 445.522 10.632C444.898 10.36 444.242 10.16 443.554 10.032C442.866 9.904 442.138 9.84 441.37 9.84C439.642 9.84 438.242 10.168 437.17 10.824C436.098 11.464 435.354 12.256 434.938 13.2C435.306 13.04 435.698 12.912 436.114 12.816C436.53 12.72 436.978 12.672 437.458 12.672C438.754 12.672 439.794 13.032 440.578 13.752C441.378 14.472 441.778 15.496 441.778 16.824C441.778 18.2 441.362 19.288 440.53 20.088C439.714 20.888 438.498 21.288 436.882 21.288ZM446.602 16.344C446.602 17.224 446.738 17.864 447.01 18.264C447.282 18.648 447.626 18.84 448.042 18.84C448.618 18.84 449.002 18.584 449.194 18.072C449.402 17.544 449.506 16.944 449.506 16.272C449.506 15.504 449.362 14.76 449.074 14.04C448.786 13.32 448.362 12.68 447.802 12.12C447.418 12.648 447.122 13.264 446.914 13.968C446.706 14.672 446.602 15.464 446.602 16.344ZM436.57 15.096C436.17 15.096 435.802 15.176 435.466 15.336C435.13 15.48 434.81 15.664 434.506 15.888C434.554 16.944 434.762 17.696 435.13 18.144C435.514 18.592 436.042 18.816 436.714 18.816C437.258 18.816 437.674 18.664 437.962 18.36C438.266 18.04 438.418 17.584 438.418 16.992C438.418 16.4 438.25 15.936 437.914 15.6C437.594 15.264 437.146 15.096 436.57 15.096ZM463.044 21V7.512H466.62V18.432H478.572V21H463.044ZM485.128 21.288C484.424 21.288 483.824 21.192 483.328 21C482.848 20.824 482.432 20.552 482.08 20.184C481.76 19.832 481.48 19.368 481.24 18.792C481 18.2 480.88 17.32 480.88 16.152V7.512H484.456V15.912C484.456 16.52 484.488 17.008 484.552 17.376C484.616 17.744 484.752 18.04 484.96 18.264C485.232 18.568 485.64 18.72 486.184 18.72C486.504 18.72 486.8 18.648 487.072 18.504C487.36 18.36 487.616 18.16 487.84 17.904V7.512H491.416V18.432H498.376V7.512H501.952V21H487.84V20.352C487.488 20.64 487.088 20.864 486.64 21.024C486.192 21.2 485.688 21.288 485.128 21.288ZM64.3883 57.288C62.3403 57.288 60.5323 56.896 58.9643 56.112C57.3963 55.312 56.1643 54.144 55.2683 52.608C54.3883 51.056 53.9483 49.16 53.9483 46.92C53.9483 44.728 54.4123 42.864 55.3403 41.328C56.2843 39.776 57.5883 38.6 59.2523 37.8C60.9163 36.984 62.8283 36.576 64.9883 36.576C66.9243 36.576 68.4203 36.984 69.4763 37.8C70.5323 38.616 71.0603 39.776 71.0603 41.28C71.0603 42.112 70.8683 42.864 70.4843 43.536C70.1163 44.192 69.5723 44.712 68.8523 45.096C68.1323 45.48 67.2363 45.672 66.1643 45.672C64.6443 45.672 63.4763 45.272 62.6603 44.472C61.8443 43.656 61.4363 42.648 61.4363 41.448C61.4363 41.064 61.4603 40.728 61.5083 40.44C61.5723 40.152 61.6603 39.896 61.7723 39.672C60.9563 39.976 60.2123 40.456 59.5403 41.112C58.8843 41.752 58.3563 42.568 57.9563 43.56C57.5563 44.536 57.3563 45.688 57.3563 47.016C57.3563 48.296 57.5403 49.408 57.9083 50.352C58.2763 51.296 58.7643 52.08 59.3723 52.704C59.9963 53.328 60.6843 53.808 61.4363 54.144C61.3403 53.92 61.2683 53.664 61.2203 53.376C61.1723 53.072 61.1483 52.72 61.1483 52.32C61.1483 51.536 61.3243 50.824 61.6763 50.184C62.0283 49.528 62.5483 49.008 63.2363 48.624C63.9403 48.224 64.8203 48.024 65.8763 48.024C66.9803 48.024 67.8923 48.232 68.6123 48.648C69.3323 49.048 69.8683 49.584 70.2203 50.256C70.5883 50.912 70.7723 51.632 70.7723 52.416C70.7723 54 70.2123 55.208 69.0923 56.04C67.9723 56.872 66.4043 57.288 64.3883 57.288ZM64.4363 41.232C64.4363 41.936 64.5963 42.44 64.9163 42.744C65.2523 43.048 65.6443 43.2 66.0923 43.2C66.6523 43.2 67.0603 43.016 67.3163 42.648C67.5723 42.28 67.7003 41.832 67.7003 41.304C67.7003 40.92 67.6203 40.56 67.4603 40.224C67.3003 39.872 67.0283 39.592 66.6443 39.384C66.2763 39.16 65.7483 39.048 65.0603 39.048C64.8683 39.336 64.7163 39.672 64.6043 40.056C64.4923 40.424 64.4363 40.816 64.4363 41.232ZM64.1483 52.488C64.1483 52.936 64.2043 53.36 64.3163 53.76C64.4283 54.16 64.5803 54.512 64.7723 54.816H64.8443C65.7243 54.816 66.3723 54.6 66.7883 54.168C67.2043 53.72 67.4123 53.144 67.4123 52.44C67.4123 51.912 67.2843 51.456 67.0283 51.072C66.7723 50.688 66.3563 50.496 65.7803 50.496C65.3323 50.496 64.9483 50.656 64.6283 50.976C64.3083 51.296 64.1483 51.8 64.1483 52.488ZM73.5366 57V43.512H87.7206V46.08H84.2646V48.936C84.6326 48.744 85.0326 48.592 85.4646 48.48C85.9126 48.368 86.4006 48.312 86.9286 48.312C88.4486 48.312 89.6726 48.784 90.6006 49.728C91.5446 50.672 92.0166 52.072 92.0166 53.928C92.0166 55.336 91.7766 56.488 91.2966 57.384C90.8326 58.296 90.2246 59.008 89.4726 59.52C88.6566 60.08 87.6566 60.472 86.4726 60.696C85.3046 60.936 83.8726 61.056 82.1766 61.056H80.0406C79.0646 61.056 78.3766 61.096 77.9766 61.176C77.5766 61.272 77.2486 61.408 76.9926 61.584C76.7366 61.776 76.5366 62.016 76.3926 62.304C76.2486 62.608 76.1766 63.016 76.1766 63.528C76.1766 63.864 76.2006 64.2 76.2486 64.536L72.7446 64.704C72.6966 64.368 72.6566 64.032 72.6246 63.696C72.6086 63.376 72.6006 63.024 72.6006 62.64C72.6006 61.92 72.7446 61.288 73.0326 60.744C73.3206 60.216 73.7046 59.784 74.1846 59.448C74.5046 59.224 74.8646 59.04 75.2646 58.896C75.6646 58.752 76.1606 58.648 76.7526 58.584C77.3446 58.52 78.0806 58.488 78.9606 58.488H81.7206C82.8886 58.488 83.8326 58.44 84.5526 58.344C85.2726 58.264 85.8566 58.12 86.3046 57.912C86.7686 57.704 87.1686 57.432 87.5046 57.096C87.7926 56.808 88.0326 56.408 88.2246 55.896C88.4166 55.368 88.5126 54.736 88.5126 54C88.5126 52.976 88.2966 52.2 87.8646 51.672C87.4486 51.144 86.8646 50.88 86.1126 50.88C85.7286 50.88 85.3926 50.928 85.1046 51.024C84.8166 51.12 84.5366 51.264 84.2646 51.456V57H80.6886V46.08H77.1126V57H73.5366ZM94.8882 57V43.512H109.216V46.08H105.784V57H102.208V46.08H98.4642V57H94.8882ZM115.777 57.288C115.073 57.288 114.473 57.192 113.977 57C113.497 56.824 113.081 56.552 112.729 56.184C112.409 55.832 112.129 55.368 111.889 54.792C111.649 54.2 111.529 53.32 111.529 52.152V43.512H115.105V51.912C115.105 52.52 115.137 53.008 115.201 53.376C115.265 53.744 115.401 54.04 115.609 54.264C115.881 54.568 116.289 54.72 116.833 54.72C117.153 54.72 117.449 54.648 117.721 54.504C118.009 54.36 118.265 54.16 118.489 53.904V43.512H122.065V54.432H129.025V43.512H132.601V57H118.489V56.352C118.137 56.64 117.737 56.864 117.289 57.024C116.841 57.2 116.337 57.288 115.777 57.288ZM122.065 41.112C121.489 41.112 121.017 40.928 120.649 40.56C120.281 40.176 120.097 39.696 120.097 39.12C120.097 38.544 120.281 38.072 120.649 37.704C121.017 37.32 121.489 37.128 122.065 37.128C122.625 37.128 123.089 37.32 123.457 37.704C123.825 38.072 124.009 38.544 124.009 39.12C124.009 39.696 123.825 40.176 123.457 40.56C123.089 40.928 122.625 41.112 122.065 41.112ZM141.579 57.288C140.379 57.288 139.323 57.128 138.411 56.808C137.499 56.472 136.787 55.992 136.275 55.368C135.763 54.728 135.507 53.952 135.507 53.04C135.507 52.288 135.699 51.616 136.083 51.024C136.483 50.416 137.107 49.92 137.955 49.536V43.512H152.787V46.08H148.275V48.672H148.323C149.347 48.672 150.195 48.712 150.867 48.792C151.539 48.872 152.115 49.008 152.595 49.2C153.075 49.376 153.523 49.616 153.939 49.92C154.419 50.256 154.795 50.704 155.067 51.264C155.355 51.808 155.499 52.432 155.499 53.136C155.499 54.432 155.083 55.448 154.251 56.184C153.435 56.92 152.259 57.288 150.723 57.288C150.339 57.288 149.899 57.264 149.403 57.216C148.923 57.184 148.475 57.112 148.059 57L148.635 54.528C149.067 54.64 149.531 54.696 150.027 54.696C151.403 54.696 152.091 54.12 152.091 52.968C152.091 52.424 151.907 52.024 151.539 51.768C151.187 51.496 150.723 51.32 150.147 51.24C149.571 51.144 148.947 51.096 148.275 51.096V51.24C148.275 52.36 148.163 53.248 147.939 53.904C147.731 54.544 147.427 55.088 147.027 55.536C146.435 56.176 145.675 56.632 144.747 56.904C143.835 57.16 142.779 57.288 141.579 57.288ZM141.171 46.08V48.768C141.811 48.704 142.499 48.672 143.235 48.672H144.795V46.08H141.171ZM139.035 52.968C139.035 53.576 139.283 54.024 139.779 54.312C140.291 54.6 140.971 54.744 141.819 54.744C142.747 54.744 143.475 54.512 144.003 54.048C144.531 53.568 144.795 52.648 144.795 51.288V51.096H142.803C142.243 51.096 141.707 51.128 141.195 51.192C140.699 51.24 140.275 51.352 139.923 51.528C139.331 51.832 139.035 52.312 139.035 52.968ZM163.084 57.288C161.436 57.288 160.1 56.784 159.076 55.776C158.068 54.752 157.564 53.224 157.564 51.192C157.564 49.912 157.78 48.776 158.212 47.784C158.66 46.792 159.26 45.96 160.012 45.288C160.78 44.6 161.66 44.088 162.652 43.752C163.644 43.4 164.7 43.224 165.82 43.224C166.796 43.224 167.652 43.336 168.388 43.56C169.14 43.768 169.884 44.08 170.62 44.496V43.512H184.276V46.08H180.844V57H177.268V46.08H173.692V57H170.116V47.784C169.588 47.224 168.964 46.76 168.244 46.392C167.524 46.024 166.676 45.84 165.7 45.84C164.596 45.84 163.636 46.144 162.82 46.752C162.004 47.344 161.42 48.168 161.068 49.224C161.452 49.048 161.86 48.912 162.292 48.816C162.724 48.72 163.188 48.672 163.684 48.672C164.964 48.672 166.004 49.032 166.804 49.752C167.604 50.472 168.004 51.496 168.004 52.824C168.004 54.2 167.588 55.288 166.756 56.088C165.924 56.888 164.7 57.288 163.084 57.288ZM162.796 51.096C162.412 51.096 162.044 51.168 161.692 51.312C161.356 51.456 161.036 51.64 160.732 51.864C160.78 52.936 160.996 53.704 161.38 54.168C161.764 54.616 162.284 54.84 162.94 54.84C163.468 54.84 163.884 54.68 164.188 54.36C164.492 54.04 164.644 53.584 164.644 52.992C164.644 52.384 164.476 51.92 164.14 51.6C163.804 51.264 163.356 51.096 162.796 51.096ZM170.596 41.112C170.02 41.112 169.548 40.928 169.18 40.56C168.812 40.176 168.628 39.696 168.628 39.12C168.628 38.544 168.812 38.072 169.18 37.704C169.548 37.32 170.02 37.128 170.596 37.128C171.156 37.128 171.62 37.32 171.988 37.704C172.356 38.072 172.54 38.544 172.54 39.12C172.54 39.696 172.356 40.176 171.988 40.56C171.62 40.928 171.156 41.112 170.596 41.112ZM195.92 57.288C194.272 57.288 192.936 56.784 191.912 55.776C190.904 54.768 190.4 53.248 190.4 51.216C190.4 49.488 190.776 48.032 191.528 46.848C192.28 45.664 193.304 44.768 194.6 44.16C195.896 43.536 197.352 43.224 198.968 43.224C200.44 43.224 201.688 43.416 202.712 43.8C203.736 44.168 204.568 44.68 205.208 45.336C205.848 45.976 206.312 46.72 206.6 47.568C206.888 48.4 207.032 49.272 207.032 50.184C207.032 50.968 206.952 51.72 206.792 52.44C206.632 53.144 206.424 53.808 206.168 54.432H211.232V43.512H214.808V57H202.496L202.376 55.056C202.68 54.512 202.936 53.864 203.144 53.112C203.352 52.36 203.456 51.52 203.456 50.592C203.456 49.072 203.048 47.904 202.232 47.088C201.432 46.256 200.256 45.84 198.704 45.84C197.488 45.84 196.472 46.16 195.656 46.8C194.856 47.424 194.288 48.232 193.952 49.224C194.32 49.048 194.712 48.912 195.128 48.816C195.56 48.72 196.024 48.672 196.52 48.672C197.8 48.672 198.84 49.032 199.64 49.752C200.44 50.472 200.84 51.496 200.84 52.824C200.84 54.2 200.424 55.288 199.592 56.088C198.76 56.888 197.536 57.288 195.92 57.288ZM195.632 51.096C195.248 51.096 194.88 51.168 194.528 51.312C194.192 51.456 193.872 51.64 193.568 51.864C193.616 52.936 193.832 53.696 194.216 54.144C194.6 54.592 195.12 54.816 195.776 54.816C196.32 54.816 196.736 54.664 197.024 54.36C197.328 54.04 197.48 53.584 197.48 52.992C197.48 52.384 197.312 51.92 196.976 51.6C196.656 51.264 196.208 51.096 195.632 51.096ZM224.135 62.112L221.879 60.024L225.935 56.208V46.08H222.191V57H218.615V43.512H232.943V46.08H229.511V57L224.135 62.112ZM244.6 57.288C242.952 57.288 241.616 56.784 240.592 55.776C239.584 54.768 239.08 53.248 239.08 51.216C239.08 49.488 239.456 48.032 240.208 46.848C240.96 45.664 241.984 44.768 243.28 44.16C244.576 43.536 246.032 43.224 247.648 43.224C249.12 43.224 250.368 43.416 251.392 43.8C252.416 44.168 253.248 44.68 253.888 45.336C254.528 45.976 254.992 46.72 255.28 47.568C255.568 48.4 255.712 49.272 255.712 50.184C255.712 50.968 255.632 51.72 255.472 52.44C255.312 53.144 255.104 53.808 254.848 54.432H259.912V43.512H263.488V57H251.176L251.056 55.056C251.36 54.512 251.616 53.864 251.824 53.112C252.032 52.36 252.136 51.52 252.136 50.592C252.136 49.072 251.728 47.904 250.912 47.088C250.112 46.256 248.936 45.84 247.384 45.84C246.168 45.84 245.152 46.16 244.336 46.8C243.536 47.424 242.968 48.232 242.632 49.224C243 49.048 243.392 48.912 243.808 48.816C244.24 48.72 244.704 48.672 245.2 48.672C246.48 48.672 247.52 49.032 248.32 49.752C249.12 50.472 249.52 51.496 249.52 52.824C249.52 54.2 249.104 55.288 248.272 56.088C247.44 56.888 246.216 57.288 244.6 57.288ZM244.312 51.096C243.928 51.096 243.56 51.168 243.208 51.312C242.872 51.456 242.552 51.64 242.248 51.864C242.296 52.936 242.512 53.696 242.896 54.144C243.28 54.592 243.8 54.816 244.456 54.816C245 54.816 245.416 54.664 245.704 54.36C246.008 54.04 246.16 53.584 246.16 52.992C246.16 52.384 245.992 51.92 245.656 51.6C245.336 51.264 244.888 51.096 244.312 51.096ZM267.294 57V43.512H281.622V46.08H278.19V57H274.614V46.08H270.87V57H267.294ZM288.183 57.288C287.479 57.288 286.879 57.192 286.383 57C285.903 56.824 285.487 56.552 285.135 56.184C284.815 55.832 284.535 55.368 284.295 54.792C284.055 54.2 283.935 53.32 283.935 52.152V43.512H287.511V51.912C287.511 52.52 287.543 53.008 287.607 53.376C287.671 53.744 287.807 54.04 288.015 54.264C288.287 54.568 288.695 54.72 289.239 54.72C289.559 54.72 289.855 54.648 290.127 54.504C290.415 54.36 290.671 54.16 290.895 53.904V43.512H294.471V54.432H301.431V43.512H305.007V57H290.895V56.352C290.543 56.64 290.143 56.864 289.695 57.024C289.247 57.2 288.743 57.288 288.183 57.288ZM294.471 41.112C293.895 41.112 293.423 40.928 293.055 40.56C292.687 40.176 292.503 39.696 292.503 39.12C292.503 38.544 292.687 38.072 293.055 37.704C293.423 37.32 293.895 37.128 294.471 37.128C295.031 37.128 295.495 37.32 295.863 37.704C296.231 38.072 296.415 38.544 296.415 39.12C296.415 39.696 296.231 40.176 295.863 40.56C295.495 40.928 295.031 41.112 294.471 41.112ZM308.826 57V43.512H312.402V54.432H321.378V43.512H324.954V57H308.826ZM316.914 41.112C316.338 41.112 315.866 40.928 315.498 40.56C315.13 40.176 314.946 39.696 314.946 39.12C314.946 38.544 315.13 38.072 315.498 37.704C315.866 37.32 316.338 37.128 316.914 37.128C317.474 37.128 317.938 37.32 318.306 37.704C318.674 38.072 318.858 38.544 318.858 39.12C318.858 39.696 318.674 40.176 318.306 40.56C317.938 40.928 317.474 41.112 316.914 41.112ZM341.347 63.792V57H328.771V43.512H332.347V54.432H341.347V43.512H344.899V63.792H341.347ZM353.42 57.288C351.772 57.288 350.436 56.784 349.412 55.776C348.404 54.752 347.9 53.224 347.9 51.192C347.9 49.912 348.116 48.776 348.548 47.784C348.996 46.792 349.596 45.96 350.348 45.288C351.116 44.6 351.996 44.088 352.988 43.752C353.98 43.4 355.036 43.224 356.156 43.224C357.132 43.224 357.988 43.336 358.724 43.56C359.476 43.768 360.22 44.08 360.956 44.496V43.512H374.612V46.08H371.18V57H367.604V46.08H364.028V57H360.452V47.784C359.924 47.224 359.3 46.76 358.58 46.392C357.86 46.024 357.012 45.84 356.036 45.84C354.932 45.84 353.972 46.144 353.156 46.752C352.34 47.344 351.756 48.168 351.404 49.224C351.788 49.048 352.196 48.912 352.628 48.816C353.06 48.72 353.524 48.672 354.02 48.672C355.3 48.672 356.34 49.032 357.14 49.752C357.94 50.472 358.34 51.496 358.34 52.824C358.34 54.2 357.924 55.288 357.092 56.088C356.26 56.888 355.036 57.288 353.42 57.288ZM353.132 51.096C352.748 51.096 352.38 51.168 352.028 51.312C351.692 51.456 351.372 51.64 351.068 51.864C351.116 52.936 351.332 53.704 351.716 54.168C352.1 54.616 352.62 54.84 353.276 54.84C353.804 54.84 354.22 54.68 354.524 54.36C354.828 54.04 354.98 53.584 354.98 52.992C354.98 52.384 354.812 51.92 354.476 51.6C354.14 51.264 353.692 51.096 353.132 51.096ZM360.932 41.112C360.356 41.112 359.884 40.928 359.516 40.56C359.148 40.176 358.964 39.696 358.964 39.12C358.964 38.544 359.148 38.072 359.516 37.704C359.884 37.32 360.356 37.128 360.932 37.128C361.492 37.128 361.956 37.32 362.324 37.704C362.692 38.072 362.876 38.544 362.876 39.12C362.876 39.696 362.692 40.176 362.324 40.56C361.956 40.928 361.492 41.112 360.932 41.112ZM380.866 57.288C379.218 57.288 377.882 56.784 376.858 55.776C375.85 54.752 375.346 53.224 375.346 51.192C375.346 49.912 375.562 48.776 375.994 47.784C376.442 46.792 377.042 45.96 377.794 45.288C378.562 44.6 379.442 44.088 380.434 43.752C381.426 43.4 382.482 43.224 383.602 43.224C384.578 43.224 385.434 43.336 386.17 43.56C386.922 43.768 387.666 44.08 388.402 44.496V43.512H402.058V46.08H398.626V57H395.05V46.08H391.474V57H387.898V47.784C387.37 47.224 386.746 46.76 386.026 46.392C385.306 46.024 384.458 45.84 383.482 45.84C382.378 45.84 381.418 46.144 380.602 46.752C379.786 47.344 379.202 48.168 378.85 49.224C379.234 49.048 379.642 48.912 380.074 48.816C380.506 48.72 380.97 48.672 381.466 48.672C382.746 48.672 383.786 49.032 384.586 49.752C385.386 50.472 385.786 51.496 385.786 52.824C385.786 54.2 385.37 55.288 384.538 56.088C383.706 56.888 382.482 57.288 380.866 57.288ZM380.578 51.096C380.194 51.096 379.826 51.168 379.474 51.312C379.138 51.456 378.818 51.64 378.514 51.864C378.562 52.936 378.778 53.704 379.162 54.168C379.546 54.616 380.066 54.84 380.722 54.84C381.25 54.84 381.666 54.68 381.97 54.36C382.274 54.04 382.426 53.584 382.426 52.992C382.426 52.384 382.258 51.92 381.922 51.6C381.586 51.264 381.138 51.096 380.578 51.096ZM408.603 57.288C406.795 57.288 405.331 56.928 404.211 56.208C403.091 55.472 402.531 54.416 402.531 53.04C402.531 52.288 402.723 51.616 403.107 51.024C403.507 50.416 404.131 49.92 404.979 49.536V43.512H419.835V46.08H415.299V48.696C416.707 48.76 417.955 49 419.043 49.416C420.131 49.832 420.979 50.472 421.587 51.336C422.211 52.184 422.523 53.296 422.523 54.672C422.523 55.76 422.291 56.68 421.827 57.432C421.379 58.2 420.731 58.864 419.883 59.424C419.099 59.968 418.059 60.376 416.763 60.648C415.467 60.92 413.843 61.056 411.891 61.056H410.019C409.043 61.056 408.347 61.096 407.931 61.176C407.531 61.272 407.203 61.408 406.947 61.584C406.691 61.776 406.491 62.016 406.347 62.304C406.203 62.608 406.131 63.016 406.131 63.528C406.131 63.864 406.155 64.2 406.203 64.536L402.699 64.704C402.651 64.368 402.611 64.032 402.579 63.696C402.563 63.376 402.555 63.024 402.555 62.64C402.555 61.92 402.699 61.288 402.987 60.744C403.275 60.216 403.659 59.784 404.139 59.448C404.459 59.224 404.819 59.04 405.219 58.896C405.619 58.752 406.115 58.648 406.707 58.584C407.299 58.52 408.035 58.488 408.915 58.488H411.075C412.467 58.488 413.611 58.432 414.507 58.32C415.403 58.224 416.123 58.064 416.667 57.84C417.227 57.616 417.683 57.32 418.035 56.952C418.675 56.312 418.995 55.456 418.995 54.384C418.995 53.616 418.819 53.008 418.467 52.56C418.115 52.112 417.659 51.784 417.099 51.576C416.539 51.352 415.939 51.208 415.299 51.144V51.24C415.299 52.36 415.187 53.248 414.963 53.904C414.755 54.544 414.451 55.088 414.051 55.536C413.475 56.176 412.723 56.632 411.795 56.904C410.867 57.16 409.803 57.288 408.603 57.288ZM408.195 46.08V48.768C408.835 48.704 409.531 48.672 410.283 48.672H411.819V46.08H408.195ZM406.059 52.968C406.059 53.56 406.307 54 406.803 54.288C407.315 54.576 407.995 54.72 408.843 54.72C409.467 54.72 409.995 54.624 410.427 54.432C410.875 54.24 411.219 53.896 411.459 53.4C411.699 52.888 411.819 52.184 411.819 51.288V51.096H409.827C409.267 51.096 408.731 51.128 408.219 51.192C407.723 51.24 407.299 51.352 406.947 51.528C406.355 51.832 406.059 52.312 406.059 52.968ZM425.334 57V43.512H439.662V46.08H436.23V57H432.654V46.08H428.91V57H425.334ZM440.522 41.22C440.794 40.98 441.09 40.752 441.41 40.536C441.738 40.32 442.09 40.132 442.466 39.972C442.842 39.812 443.25 39.688 443.69 39.6C444.13 39.504 444.606 39.456 445.118 39.456C445.814 39.456 446.446 39.552 447.014 39.744C447.59 39.936 448.082 40.212 448.49 40.572C448.898 40.924 449.214 41.352 449.438 41.856C449.662 42.36 449.774 42.924 449.774 43.548C449.774 44.156 449.686 44.684 449.51 45.132C449.334 45.572 449.11 45.956 448.838 46.284C448.574 46.612 448.286 46.896 447.974 47.136C447.662 47.376 447.366 47.604 447.086 47.82C446.806 48.028 446.562 48.236 446.354 48.444C446.154 48.644 446.034 48.872 445.994 49.128L445.718 50.88H443.69L443.486 48.924C443.478 48.884 443.474 48.852 443.474 48.828C443.474 48.796 443.474 48.76 443.474 48.72C443.474 48.368 443.562 48.064 443.738 47.808C443.914 47.544 444.134 47.3 444.398 47.076C444.662 46.844 444.946 46.62 445.25 46.404C445.554 46.188 445.838 45.956 446.102 45.708C446.366 45.452 446.586 45.164 446.762 44.844C446.938 44.524 447.026 44.148 447.026 43.716C447.026 43.428 446.97 43.172 446.858 42.948C446.754 42.716 446.606 42.52 446.414 42.36C446.222 42.192 445.99 42.064 445.718 41.976C445.454 41.888 445.166 41.844 444.854 41.844C444.398 41.844 444.01 41.896 443.69 42C443.378 42.096 443.11 42.208 442.886 42.336C442.67 42.456 442.486 42.568 442.334 42.672C442.182 42.768 442.046 42.816 441.926 42.816C441.638 42.816 441.43 42.696 441.302 42.456L440.522 41.22ZM442.79 55.368C442.79 55.12 442.834 54.884 442.922 54.66C443.018 54.436 443.146 54.244 443.306 54.084C443.474 53.924 443.67 53.796 443.894 53.7C444.118 53.604 444.358 53.556 444.614 53.556C444.862 53.556 445.098 53.604 445.322 53.7C445.546 53.796 445.738 53.924 445.898 54.084C446.058 54.244 446.186 54.436 446.282 54.66C446.378 54.884 446.426 55.12 446.426 55.368C446.426 55.624 446.378 55.864 446.282 56.088C446.186 56.304 446.058 56.492 445.898 56.652C445.738 56.812 445.546 56.936 445.322 57.024C445.098 57.12 444.862 57.168 444.614 57.168C444.358 57.168 444.118 57.12 443.894 57.024C443.67 56.936 443.474 56.812 443.306 56.652C443.146 56.492 443.018 56.304 442.922 56.088C442.834 55.864 442.79 55.624 442.79 55.368Z" fill="#26929D"></path></svg>