<svg xmlns="http://www.w3.org/2000/svg" xmlns:xlink="http://www.w3.org/1999/xlink" width="500" zoomAndPan="magnify" viewBox="0 0 375 374.999991" height="500" preserveAspectRatio="xMidYMid meet" version="1.0"><defs><g/><clipPath id="id1"><path d="M 135.140625 107 L 223 107 L 223 198.296875 L 135.140625 198.296875 Z M 135.140625 107 " clip-rule="nonzero"/></clipPath><clipPath id="id2"><path d="M 152 103.046875 L 240 103.046875 L 240 194 L 152 194 Z M 152 103.046875 " clip-rule="nonzero"/></clipPath></defs><g clip-path="url(#id1)"><path fill="#365b6d" d="M 186.804688 187.066406 C 191.027344 185.667969 202.730469 181.238281 203.726562 177.429688 C 200.125 172.03125 194.929688 176.570312 188.34375 177.335938 C 181.085938 178.195312 178.101562 178.738281 171.367188 180.472656 C 160.675781 183.21875 135.277344 157.273438 146.007812 129.71875 C 150.152344 119.089844 153.136719 115.972656 161.558594 109.566406 C 162.757812 108.648438 163.339844 108.125 164.054688 107.492188 C 152.347656 111.132812 140.832031 123.21875 136.964844 138.722656 C 134.695312 147.820312 135.164062 156.65625 137.792969 165.472656 C 144.339844 187.40625 167.65625 200.21875 189.1875 198.035156 C 193.089844 197.640625 197.367188 196.390625 200.050781 194.707031 C 201.644531 193.699219 202.695312 192.617188 204.511719 191.515625 C 209.203125 188.695312 223.890625 181.054688 222.632812 175.523438 C 215.488281 170.949219 196.242188 192.878906 186.824219 187.066406 Z M 186.804688 187.066406 " fill-opacity="1" fill-rule="evenodd"/></g><g clip-path="url(#id2)"><path fill="#6c9286" d="M 188.457031 114.253906 C 184.234375 115.652344 172.53125 120.082031 171.539062 123.890625 C 175.140625 129.289062 180.335938 124.75 186.917969 123.984375 C 194.179688 123.125 197.160156 122.585938 203.894531 120.847656 C 214.585938 118.101562 239.984375 144.046875 229.253906 171.601562 C 225.164062 182.117188 222.296875 185.199219 213.703125 191.757812 C 212.503906 192.671875 211.921875 193.195312 211.210938 193.832031 C 222.914062 190.1875 234.433594 178.101562 238.296875 162.597656 C 240.566406 153.5 240.097656 144.664062 237.472656 135.847656 C 230.925781 113.917969 207.628906 101.101562 186.074219 103.289062 C 182.171875 103.679688 177.894531 104.933594 175.214844 106.613281 C 173.621094 107.621094 172.570312 108.707031 170.75 109.808594 C 166.058594 112.628906 151.371094 120.269531 152.628906 125.796875 C 159.777344 130.375 179.023438 108.445312 188.4375 114.253906 Z M 188.457031 114.253906 " fill-opacity="1" fill-rule="evenodd"/></g><path fill="#41c1ba" d="M 183.972656 169.246094 C 184.160156 158.65625 180.578125 152.398438 173.226562 150.4375 C 172.851562 150.4375 172.550781 150.625 172.15625 151.089844 C 170.5625 153.707031 176.1875 153.800781 174.257812 160.132812 C 172.042969 167.378906 157.132812 165.585938 158.800781 145.878906 C 160.207031 129.105469 174.257812 129.011719 176.902344 136.574219 C 178.796875 141.992188 174.519531 143.1875 175.738281 146.066406 C 175.796875 146.085938 175.851562 146.101562 175.925781 146.121094 C 176.359375 146.269531 177.503906 146.738281 178.816406 147.355469 C 180.484375 148.34375 181.855469 149.765625 182.980469 151.574219 C 185.417969 155.574219 186.542969 161.550781 186.355469 169.507812 C 185.472656 169.398438 184.6875 169.285156 184.011719 169.210938 Z M 183.972656 169.246094 " fill-opacity="1" fill-rule="evenodd"/><path fill="#41c1ba" d="M 191.308594 169.246094 C 191.121094 158.65625 194.703125 152.398438 202.054688 150.4375 C 202.429688 150.4375 202.730469 150.625 203.125 151.089844 C 204.71875 153.707031 199.09375 153.800781 201.023438 160.132812 C 203.238281 167.378906 218.132812 165.585938 216.480469 145.878906 C 215.074219 129.105469 201.023438 129.011719 198.378906 136.574219 C 196.484375 141.992188 200.761719 143.1875 199.542969 146.066406 C 199.484375 146.085938 199.429688 146.101562 199.355469 146.121094 C 198.921875 146.269531 197.761719 146.738281 196.464844 147.355469 C 194.796875 148.34375 193.425781 149.765625 192.300781 151.574219 C 189.863281 155.574219 188.738281 161.550781 188.925781 169.507812 C 189.808594 169.398438 190.59375 169.285156 191.269531 169.210938 Z M 191.308594 169.246094 " fill-opacity="1" fill-rule="evenodd"/><g fill="#365b6d" fill-opacity="1"><g transform="translate(150.975186, 240.931724)"><g><path d="M 10.328125 -0.046875 C 9.867188 -0.046875 9.640625 -0.273438 9.640625 -0.734375 L 9.640625 -10.734375 L 9.546875 -11.046875 L 1.375 -27.53125 C 1.289062 -27.664062 1.25 -27.785156 1.25 -27.890625 C 1.25 -28.023438 1.300781 -28.132812 1.40625 -28.21875 C 1.519531 -28.300781 1.671875 -28.34375 1.859375 -28.34375 L 6.5625 -28.34375 C 6.9375 -28.34375 7.207031 -28.164062 7.375 -27.8125 L 12.3125 -17.28125 C 12.363281 -17.207031 12.421875 -17.171875 12.484375 -17.171875 C 12.554688 -17.171875 12.601562 -17.207031 12.625 -17.28125 L 17.5625 -27.8125 C 17.757812 -28.164062 18.03125 -28.34375 18.375 -28.34375 L 23.109375 -28.34375 C 23.515625 -28.34375 23.71875 -28.179688 23.71875 -27.859375 C 23.71875 -27.722656 23.691406 -27.613281 23.640625 -27.53125 L 15.390625 -11.046875 L 15.296875 -10.734375 L 15.296875 -0.734375 C 15.296875 -0.273438 15.066406 -0.046875 14.609375 -0.046875 Z M 10.328125 -0.046875 "/></g></g></g><g fill="#365b6d" fill-opacity="1"><g transform="translate(175.956561, 240.931724)"><g><path d="M 14.171875 -28.375 C 15.953125 -28.375 17.515625 -28.007812 18.859375 -27.28125 C 20.210938 -26.550781 21.257812 -25.519531 22 -24.1875 C 22.738281 -22.851562 23.109375 -21.320312 23.109375 -19.59375 C 23.109375 -17.894531 22.722656 -16.394531 21.953125 -15.09375 C 21.191406 -13.800781 20.113281 -12.796875 18.71875 -12.078125 C 17.332031 -11.367188 15.734375 -11.015625 13.921875 -11.015625 L 8.21875 -11.015625 C 8.050781 -11.015625 7.96875 -10.929688 7.96875 -10.765625 L 7.96875 -0.6875 C 7.96875 -0.226562 7.738281 0 7.28125 0 L 2.953125 0 C 2.492188 0 2.265625 -0.226562 2.265625 -0.6875 L 2.265625 -27.6875 C 2.265625 -28.144531 2.492188 -28.375 2.953125 -28.375 Z M 13.3125 -15.59375 C 14.5625 -15.59375 15.5625 -15.945312 16.3125 -16.65625 C 17.070312 -17.375 17.453125 -18.3125 17.453125 -19.46875 C 17.453125 -20.65625 17.070312 -21.613281 16.3125 -22.34375 C 15.5625 -23.070312 14.5625 -23.4375 13.3125 -23.4375 L 8.21875 -23.4375 C 8.050781 -23.4375 7.96875 -23.359375 7.96875 -23.203125 L 7.96875 -15.828125 C 7.96875 -15.671875 8.050781 -15.59375 8.21875 -15.59375 Z M 13.3125 -15.59375 "/></g></g></g><g fill="#365b6d" fill-opacity="1"><g transform="translate(200.128164, 240.931724)"><g><path d="M 11.046875 0.328125 C 9.023438 0.328125 7.238281 -0.0546875 5.6875 -0.828125 C 4.132812 -1.597656 2.925781 -2.675781 2.0625 -4.0625 C 1.195312 -5.457031 0.765625 -7.070312 0.765625 -8.90625 L 0.765625 -10.328125 C 0.765625 -10.785156 0.992188 -11.015625 1.453125 -11.015625 L 5.796875 -11.015625 C 6.253906 -11.015625 6.484375 -10.785156 6.484375 -10.328125 L 6.484375 -8.90625 C 6.484375 -7.613281 6.898438 -6.566406 7.734375 -5.765625 C 8.566406 -4.972656 9.671875 -4.578125 11.046875 -4.578125 C 12.453125 -4.578125 13.585938 -4.972656 14.453125 -5.765625 C 15.316406 -6.566406 15.75 -7.613281 15.75 -8.90625 L 15.75 -27.65625 C 15.75 -28.113281 15.976562 -28.34375 16.4375 -28.34375 L 20.734375 -28.34375 C 21.191406 -28.34375 21.421875 -28.113281 21.421875 -27.65625 L 21.421875 -8.90625 C 21.421875 -7.070312 20.988281 -5.457031 20.125 -4.0625 C 19.257812 -2.675781 18.039062 -1.597656 16.46875 -0.828125 C 14.90625 -0.0546875 13.097656 0.328125 11.046875 0.328125 Z M 11.046875 0.328125 "/></g></g></g><g fill="#41c1ba" fill-opacity="1"><g transform="translate(55.068337, 270.645919)"><g><path d="M 10.203125 0 C 10.015625 0 9.894531 -0.0859375 9.84375 -0.265625 L 9.21875 -2.3125 C 9.207031 -2.382812 9.160156 -2.421875 9.078125 -2.421875 L 3.859375 -2.421875 C 3.773438 -2.421875 3.726562 -2.382812 3.71875 -2.3125 L 3.09375 -0.265625 C 3.039062 -0.0859375 2.921875 0 2.734375 0 L 0.921875 0 C 0.816406 0 0.738281 -0.03125 0.6875 -0.09375 C 0.644531 -0.164062 0.632812 -0.253906 0.65625 -0.359375 L 4.9375 -13.71875 C 4.988281 -13.894531 5.109375 -13.984375 5.296875 -13.984375 L 7.625 -13.984375 C 7.8125 -13.984375 7.929688 -13.894531 7.984375 -13.71875 L 12.28125 -0.359375 C 12.289062 -0.328125 12.296875 -0.285156 12.296875 -0.234375 C 12.296875 -0.078125 12.203125 0 12.015625 0 Z M 4.328125 -4.375 C 4.316406 -4.28125 4.351562 -4.234375 4.4375 -4.234375 L 8.5 -4.234375 C 8.582031 -4.234375 8.617188 -4.28125 8.609375 -4.375 L 6.546875 -11.15625 C 6.535156 -11.21875 6.515625 -11.25 6.484375 -11.25 C 6.453125 -11.25 6.421875 -11.21875 6.390625 -11.15625 Z M 4.328125 -4.375 "/></g></g></g><g fill="#41c1ba" fill-opacity="1"><g transform="translate(70.639185, 270.645919)"><g><path d="M 3.71875 0 C 3.53125 0 3.410156 -0.0859375 3.359375 -0.265625 L 0.546875 -9.84375 C 0.523438 -9.875 0.515625 -9.90625 0.515625 -9.9375 C 0.515625 -10.019531 0.539062 -10.082031 0.59375 -10.125 C 0.644531 -10.175781 0.71875 -10.203125 0.8125 -10.203125 L 2.5625 -10.203125 C 2.738281 -10.203125 2.847656 -10.109375 2.890625 -9.921875 L 4.53125 -3.375 C 4.539062 -3.320312 4.566406 -3.296875 4.609375 -3.296875 C 4.648438 -3.296875 4.675781 -3.320312 4.6875 -3.375 L 6.390625 -9.921875 C 6.429688 -10.109375 6.550781 -10.203125 6.75 -10.203125 L 8.28125 -10.203125 C 8.488281 -10.203125 8.609375 -10.109375 8.640625 -9.921875 L 10.40625 -3.359375 C 10.414062 -3.304688 10.441406 -3.28125 10.484375 -3.28125 C 10.523438 -3.28125 10.550781 -3.304688 10.5625 -3.359375 L 12.28125 -9.921875 C 12.320312 -10.109375 12.441406 -10.203125 12.640625 -10.203125 L 14.359375 -10.1875 C 14.460938 -10.1875 14.539062 -10.148438 14.59375 -10.078125 C 14.644531 -10.015625 14.660156 -9.929688 14.640625 -9.828125 L 11.796875 -0.265625 C 11.742188 -0.0859375 11.625 0 11.4375 0 L 9.671875 0 C 9.484375 0 9.363281 -0.0859375 9.3125 -0.265625 L 7.59375 -6.234375 C 7.570312 -6.285156 7.539062 -6.3125 7.5 -6.3125 C 7.46875 -6.3125 7.441406 -6.285156 7.421875 -6.234375 L 5.84375 -0.28125 C 5.8125 -0.09375 5.691406 0 5.484375 0 Z M 3.71875 0 "/></g></g></g><g fill="#41c1ba" fill-opacity="1"><g transform="translate(88.46573, 270.645919)"><g><path d="M 5.125 -10.359375 C 5.96875 -10.359375 6.710938 -10.210938 7.359375 -9.921875 C 8.003906 -9.628906 8.5 -9.226562 8.84375 -8.71875 C 9.1875 -8.207031 9.359375 -7.625 9.359375 -6.96875 L 9.359375 -0.3125 C 9.359375 -0.101562 9.253906 0 9.046875 0 L 7.375 0 C 7.15625 0 7.046875 -0.101562 7.046875 -0.3125 L 7.046875 -0.8125 C 7.046875 -0.875 7.03125 -0.90625 7 -0.90625 C 6.976562 -0.914062 6.945312 -0.90625 6.90625 -0.875 C 6.1875 -0.1875 5.226562 0.15625 4.03125 0.15625 C 3.050781 0.15625 2.242188 -0.09375 1.609375 -0.59375 C 0.972656 -1.101562 0.65625 -1.859375 0.65625 -2.859375 C 0.65625 -3.890625 1.015625 -4.695312 1.734375 -5.28125 C 2.460938 -5.863281 3.488281 -6.15625 4.8125 -6.15625 L 6.921875 -6.15625 C 7.003906 -6.15625 7.046875 -6.191406 7.046875 -6.265625 L 7.046875 -6.734375 C 7.046875 -7.253906 6.890625 -7.65625 6.578125 -7.9375 C 6.265625 -8.21875 5.800781 -8.359375 5.1875 -8.359375 C 4.726562 -8.359375 4.34375 -8.273438 4.03125 -8.109375 C 3.726562 -7.953125 3.523438 -7.722656 3.421875 -7.421875 C 3.359375 -7.242188 3.238281 -7.160156 3.0625 -7.171875 L 1.265625 -7.390625 C 1.148438 -7.398438 1.066406 -7.425781 1.015625 -7.46875 C 0.960938 -7.519531 0.941406 -7.578125 0.953125 -7.640625 C 1.078125 -8.441406 1.519531 -9.09375 2.28125 -9.59375 C 3.050781 -10.101562 4 -10.359375 5.125 -10.359375 Z M 4.671875 -1.671875 C 5.328125 -1.671875 5.882812 -1.84375 6.34375 -2.1875 C 6.8125 -2.539062 7.046875 -2.984375 7.046875 -3.515625 L 7.046875 -4.4375 C 7.046875 -4.507812 7.003906 -4.546875 6.921875 -4.546875 L 5.265625 -4.546875 C 4.566406 -4.546875 4.007812 -4.410156 3.59375 -4.140625 C 3.175781 -3.878906 2.96875 -3.503906 2.96875 -3.015625 C 2.96875 -2.585938 3.128906 -2.253906 3.453125 -2.015625 C 3.773438 -1.785156 4.179688 -1.671875 4.671875 -1.671875 Z M 4.671875 -1.671875 "/></g></g></g><g fill="#41c1ba" fill-opacity="1"><g transform="translate(101.521367, 270.645919)"><g><path d="M 5.984375 -10.328125 C 6.367188 -10.328125 6.722656 -10.253906 7.046875 -10.109375 C 7.203125 -10.023438 7.265625 -9.890625 7.234375 -9.703125 L 6.90625 -8.046875 C 6.894531 -7.941406 6.859375 -7.875 6.796875 -7.84375 C 6.734375 -7.820312 6.644531 -7.820312 6.53125 -7.84375 C 6.375 -7.894531 6.160156 -7.921875 5.890625 -7.921875 C 5.734375 -7.921875 5.609375 -7.914062 5.515625 -7.90625 C 4.953125 -7.882812 4.484375 -7.6875 4.109375 -7.3125 C 3.734375 -6.945312 3.546875 -6.472656 3.546875 -5.890625 L 3.546875 -0.3125 C 3.546875 -0.101562 3.441406 0 3.234375 0 L 1.5625 0 C 1.34375 0 1.234375 -0.101562 1.234375 -0.3125 L 1.234375 -9.890625 C 1.234375 -10.097656 1.34375 -10.203125 1.5625 -10.203125 L 3.234375 -10.203125 C 3.441406 -10.203125 3.546875 -10.097656 3.546875 -9.890625 L 3.546875 -9.109375 C 3.546875 -9.054688 3.5625 -9.019531 3.59375 -9 C 3.625 -8.988281 3.648438 -9.007812 3.671875 -9.0625 C 4.234375 -9.90625 5.003906 -10.328125 5.984375 -10.328125 Z M 5.984375 -10.328125 "/></g></g></g><g fill="#41c1ba" fill-opacity="1"><g transform="translate(111.662556, 270.645919)"><g><path d="M 5.8125 -1.796875 C 6.300781 -1.804688 6.726562 -1.90625 7.09375 -2.09375 C 7.457031 -2.289062 7.753906 -2.554688 7.984375 -2.890625 C 8.054688 -3.003906 8.144531 -3.0625 8.25 -3.0625 C 8.3125 -3.0625 8.367188 -3.039062 8.421875 -3 L 9.390625 -2.234375 C 9.484375 -2.140625 9.53125 -2.054688 9.53125 -1.984375 C 9.53125 -1.921875 9.507812 -1.859375 9.46875 -1.796875 C 9.082031 -1.179688 8.554688 -0.703125 7.890625 -0.359375 C 7.222656 -0.015625 6.457031 0.15625 5.59375 0.15625 C 4.539062 0.15625 3.65625 -0.09375 2.9375 -0.59375 C 2.226562 -1.09375 1.710938 -1.785156 1.390625 -2.671875 C 1.128906 -3.410156 1 -4.238281 1 -5.15625 C 1 -6.070312 1.070312 -6.773438 1.21875 -7.265625 C 1.46875 -8.210938 1.960938 -8.960938 2.703125 -9.515625 C 3.453125 -10.078125 4.363281 -10.359375 5.4375 -10.359375 C 7.925781 -10.359375 9.378906 -8.992188 9.796875 -6.265625 C 9.867188 -5.828125 9.914062 -5.28125 9.9375 -4.625 C 9.9375 -4.414062 9.832031 -4.3125 9.625 -4.3125 L 3.4375 -4.3125 C 3.351562 -4.3125 3.3125 -4.269531 3.3125 -4.1875 C 3.3125 -3.832031 3.351562 -3.539062 3.4375 -3.3125 C 3.582031 -2.832031 3.859375 -2.457031 4.265625 -2.1875 C 4.679688 -1.925781 5.195312 -1.796875 5.8125 -1.796875 Z M 5.40625 -8.359375 C 4.90625 -8.359375 4.488281 -8.234375 4.15625 -7.984375 C 3.832031 -7.742188 3.613281 -7.40625 3.5 -6.96875 C 3.40625 -6.695312 3.347656 -6.414062 3.328125 -6.125 C 3.316406 -6.050781 3.351562 -6.015625 3.4375 -6.015625 L 7.453125 -6.015625 C 7.523438 -6.015625 7.5625 -6.050781 7.5625 -6.125 C 7.507812 -6.53125 7.472656 -6.769531 7.453125 -6.84375 C 7.328125 -7.3125 7.085938 -7.679688 6.734375 -7.953125 C 6.378906 -8.222656 5.9375 -8.359375 5.40625 -8.359375 Z M 5.40625 -8.359375 "/></g></g></g><g fill="#41c1ba" fill-opacity="1"><g transform="translate(125.11743, 270.645919)"><g><path d="M 6.125 -10.359375 C 7.21875 -10.359375 8.085938 -10.039062 8.734375 -9.40625 C 9.378906 -8.769531 9.703125 -7.898438 9.703125 -6.796875 L 9.703125 -0.3125 C 9.703125 -0.101562 9.597656 0 9.390625 0 L 7.703125 0 C 7.492188 0 7.390625 -0.101562 7.390625 -0.3125 L 7.390625 -6.3125 C 7.390625 -6.925781 7.210938 -7.421875 6.859375 -7.796875 C 6.503906 -8.171875 6.039062 -8.359375 5.46875 -8.359375 C 4.894531 -8.359375 4.429688 -8.171875 4.078125 -7.796875 C 3.722656 -7.429688 3.546875 -6.941406 3.546875 -6.328125 L 3.546875 -0.3125 C 3.546875 -0.101562 3.441406 0 3.234375 0 L 1.5625 0 C 1.34375 0 1.234375 -0.101562 1.234375 -0.3125 L 1.234375 -9.890625 C 1.234375 -10.097656 1.34375 -10.203125 1.5625 -10.203125 L 3.234375 -10.203125 C 3.441406 -10.203125 3.546875 -10.097656 3.546875 -9.890625 L 3.546875 -9.34375 C 3.546875 -9.289062 3.5625 -9.253906 3.59375 -9.234375 C 3.625 -9.222656 3.648438 -9.238281 3.671875 -9.28125 C 4.234375 -10 5.050781 -10.359375 6.125 -10.359375 Z M 6.125 -10.359375 "/></g></g></g><g fill="#41c1ba" fill-opacity="1"><g transform="translate(138.612227, 270.645919)"><g><path d="M 5.8125 -1.796875 C 6.300781 -1.804688 6.726562 -1.90625 7.09375 -2.09375 C 7.457031 -2.289062 7.753906 -2.554688 7.984375 -2.890625 C 8.054688 -3.003906 8.144531 -3.0625 8.25 -3.0625 C 8.3125 -3.0625 8.367188 -3.039062 8.421875 -3 L 9.390625 -2.234375 C 9.484375 -2.140625 9.53125 -2.054688 9.53125 -1.984375 C 9.53125 -1.921875 9.507812 -1.859375 9.46875 -1.796875 C 9.082031 -1.179688 8.554688 -0.703125 7.890625 -0.359375 C 7.222656 -0.015625 6.457031 0.15625 5.59375 0.15625 C 4.539062 0.15625 3.65625 -0.09375 2.9375 -0.59375 C 2.226562 -1.09375 1.710938 -1.785156 1.390625 -2.671875 C 1.128906 -3.410156 1 -4.238281 1 -5.15625 C 1 -6.070312 1.070312 -6.773438 1.21875 -7.265625 C 1.46875 -8.210938 1.960938 -8.960938 2.703125 -9.515625 C 3.453125 -10.078125 4.363281 -10.359375 5.4375 -10.359375 C 7.925781 -10.359375 9.378906 -8.992188 9.796875 -6.265625 C 9.867188 -5.828125 9.914062 -5.28125 9.9375 -4.625 C 9.9375 -4.414062 9.832031 -4.3125 9.625 -4.3125 L 3.4375 -4.3125 C 3.351562 -4.3125 3.3125 -4.269531 3.3125 -4.1875 C 3.3125 -3.832031 3.351562 -3.539062 3.4375 -3.3125 C 3.582031 -2.832031 3.859375 -2.457031 4.265625 -2.1875 C 4.679688 -1.925781 5.195312 -1.796875 5.8125 -1.796875 Z M 5.40625 -8.359375 C 4.90625 -8.359375 4.488281 -8.234375 4.15625 -7.984375 C 3.832031 -7.742188 3.613281 -7.40625 3.5 -6.96875 C 3.40625 -6.695312 3.347656 -6.414062 3.328125 -6.125 C 3.316406 -6.050781 3.351562 -6.015625 3.4375 -6.015625 L 7.453125 -6.015625 C 7.523438 -6.015625 7.5625 -6.050781 7.5625 -6.125 C 7.507812 -6.53125 7.472656 -6.769531 7.453125 -6.84375 C 7.328125 -7.3125 7.085938 -7.679688 6.734375 -7.953125 C 6.378906 -8.222656 5.9375 -8.359375 5.40625 -8.359375 Z M 5.40625 -8.359375 "/></g></g></g><g fill="#41c1ba" fill-opacity="1"><g transform="translate(152.067102, 270.645919)"><g><path d="M 5.046875 0.125 C 4.210938 0.125 3.476562 0 2.84375 -0.25 C 2.207031 -0.5 1.71875 -0.835938 1.375 -1.265625 C 1.03125 -1.703125 0.859375 -2.1875 0.859375 -2.71875 L 0.859375 -2.8125 C 0.859375 -3.03125 0.960938 -3.140625 1.171875 -3.140625 L 2.78125 -3.140625 C 2.988281 -3.140625 3.09375 -3.09375 3.09375 -3 L 3.09375 -2.859375 C 3.09375 -2.523438 3.273438 -2.234375 3.640625 -1.984375 C 4.003906 -1.742188 4.46875 -1.625 5.03125 -1.625 C 5.5625 -1.625 5.992188 -1.734375 6.328125 -1.953125 C 6.660156 -2.171875 6.828125 -2.445312 6.828125 -2.78125 C 6.828125 -3.082031 6.691406 -3.304688 6.421875 -3.453125 C 6.148438 -3.609375 5.707031 -3.773438 5.09375 -3.953125 L 4.328125 -4.1875 C 3.648438 -4.394531 3.078125 -4.609375 2.609375 -4.828125 C 2.148438 -5.054688 1.757812 -5.363281 1.4375 -5.75 C 1.113281 -6.144531 0.953125 -6.648438 0.953125 -7.265625 C 0.953125 -8.203125 1.316406 -8.945312 2.046875 -9.5 C 2.773438 -10.050781 3.738281 -10.328125 4.9375 -10.328125 C 5.75 -10.328125 6.457031 -10.195312 7.0625 -9.9375 C 7.675781 -9.675781 8.148438 -9.316406 8.484375 -8.859375 C 8.828125 -8.398438 9 -7.875 9 -7.28125 C 9 -7.21875 8.96875 -7.160156 8.90625 -7.109375 C 8.851562 -7.066406 8.78125 -7.046875 8.6875 -7.046875 L 7.15625 -7.046875 C 6.9375 -7.046875 6.828125 -7.085938 6.828125 -7.171875 L 6.828125 -7.28125 C 6.828125 -7.632812 6.65625 -7.925781 6.3125 -8.15625 C 5.976562 -8.382812 5.519531 -8.5 4.9375 -8.5 C 4.414062 -8.5 3.988281 -8.398438 3.65625 -8.203125 C 3.332031 -8.015625 3.171875 -7.75 3.171875 -7.40625 C 3.171875 -7.082031 3.320312 -6.835938 3.625 -6.671875 C 3.9375 -6.515625 4.453125 -6.332031 5.171875 -6.125 L 5.625 -6.015625 C 6.34375 -5.796875 6.941406 -5.578125 7.421875 -5.359375 C 7.898438 -5.148438 8.304688 -4.847656 8.640625 -4.453125 C 8.972656 -4.054688 9.140625 -3.546875 9.140625 -2.921875 C 9.140625 -1.972656 8.765625 -1.226562 8.015625 -0.6875 C 7.273438 -0.144531 6.285156 0.125 5.046875 0.125 Z M 5.046875 0.125 "/></g></g></g><g fill="#41c1ba" fill-opacity="1"><g transform="translate(164.563801, 270.645919)"><g><path d="M 5.046875 0.125 C 4.210938 0.125 3.476562 0 2.84375 -0.25 C 2.207031 -0.5 1.71875 -0.835938 1.375 -1.265625 C 1.03125 -1.703125 0.859375 -2.1875 0.859375 -2.71875 L 0.859375 -2.8125 C 0.859375 -3.03125 0.960938 -3.140625 1.171875 -3.140625 L 2.78125 -3.140625 C 2.988281 -3.140625 3.09375 -3.09375 3.09375 -3 L 3.09375 -2.859375 C 3.09375 -2.523438 3.273438 -2.234375 3.640625 -1.984375 C 4.003906 -1.742188 4.46875 -1.625 5.03125 -1.625 C 5.5625 -1.625 5.992188 -1.734375 6.328125 -1.953125 C 6.660156 -2.171875 6.828125 -2.445312 6.828125 -2.78125 C 6.828125 -3.082031 6.691406 -3.304688 6.421875 -3.453125 C 6.148438 -3.609375 5.707031 -3.773438 5.09375 -3.953125 L 4.328125 -4.1875 C 3.648438 -4.394531 3.078125 -4.609375 2.609375 -4.828125 C 2.148438 -5.054688 1.757812 -5.363281 1.4375 -5.75 C 1.113281 -6.144531 0.953125 -6.648438 0.953125 -7.265625 C 0.953125 -8.203125 1.316406 -8.945312 2.046875 -9.5 C 2.773438 -10.050781 3.738281 -10.328125 4.9375 -10.328125 C 5.75 -10.328125 6.457031 -10.195312 7.0625 -9.9375 C 7.675781 -9.675781 8.148438 -9.316406 8.484375 -8.859375 C 8.828125 -8.398438 9 -7.875 9 -7.28125 C 9 -7.21875 8.96875 -7.160156 8.90625 -7.109375 C 8.851562 -7.066406 8.78125 -7.046875 8.6875 -7.046875 L 7.15625 -7.046875 C 6.9375 -7.046875 6.828125 -7.085938 6.828125 -7.171875 L 6.828125 -7.28125 C 6.828125 -7.632812 6.65625 -7.925781 6.3125 -8.15625 C 5.976562 -8.382812 5.519531 -8.5 4.9375 -8.5 C 4.414062 -8.5 3.988281 -8.398438 3.65625 -8.203125 C 3.332031 -8.015625 3.171875 -7.75 3.171875 -7.40625 C 3.171875 -7.082031 3.320312 -6.835938 3.625 -6.671875 C 3.9375 -6.515625 4.453125 -6.332031 5.171875 -6.125 L 5.625 -6.015625 C 6.34375 -5.796875 6.941406 -5.578125 7.421875 -5.359375 C 7.898438 -5.148438 8.304688 -4.847656 8.640625 -4.453125 C 8.972656 -4.054688 9.140625 -3.546875 9.140625 -2.921875 C 9.140625 -1.972656 8.765625 -1.226562 8.015625 -0.6875 C 7.273438 -0.144531 6.285156 0.125 5.046875 0.125 Z M 5.046875 0.125 "/></g></g></g><g fill="#41c1ba" fill-opacity="1"><g transform="translate(177.0605, 270.645919)"><g><path d="M 2.65625 0.015625 C 2.1875 0.015625 1.800781 -0.128906 1.5 -0.421875 C 1.207031 -0.710938 1.0625 -1.078125 1.0625 -1.515625 C 1.0625 -1.929688 1.222656 -2.285156 1.546875 -2.578125 C 1.867188 -2.878906 2.238281 -3.03125 2.65625 -3.03125 C 3.082031 -3.03125 3.460938 -2.878906 3.796875 -2.578125 C 4.128906 -2.285156 4.296875 -1.929688 4.296875 -1.515625 C 4.296875 -1.085938 4.140625 -0.722656 3.828125 -0.421875 C 3.515625 -0.128906 3.125 0.015625 2.65625 0.015625 Z M 2.65625 0.015625 "/></g></g></g><g fill="#41c1ba" fill-opacity="1"><g transform="translate(185.085717, 270.645919)"><g/></g></g><g fill="#41c1ba" fill-opacity="1"><g transform="translate(191.713606, 270.645919)"><g><path d="M 7.0625 -14 C 7.90625 -14 8.644531 -13.820312 9.28125 -13.46875 C 9.925781 -13.125 10.421875 -12.632812 10.765625 -12 C 11.117188 -11.375 11.296875 -10.648438 11.296875 -9.828125 C 11.296875 -9.015625 11.113281 -8.296875 10.75 -7.671875 C 10.394531 -7.046875 9.890625 -6.5625 9.234375 -6.21875 C 8.578125 -5.882812 7.816406 -5.71875 6.953125 -5.71875 L 3.78125 -5.71875 C 3.695312 -5.71875 3.65625 -5.675781 3.65625 -5.59375 L 3.65625 -0.3125 C 3.65625 -0.101562 3.546875 0 3.328125 0 L 1.65625 0 C 1.445312 0 1.34375 -0.101562 1.34375 -0.3125 L 1.34375 -13.671875 C 1.34375 -13.890625 1.445312 -14 1.65625 -14 Z M 6.734375 -7.59375 C 7.410156 -7.59375 7.953125 -7.789062 8.359375 -8.1875 C 8.773438 -8.582031 8.984375 -9.109375 8.984375 -9.765625 C 8.984375 -10.429688 8.773438 -10.96875 8.359375 -11.375 C 7.953125 -11.789062 7.410156 -12 6.734375 -12 L 3.78125 -12 C 3.695312 -12 3.65625 -11.957031 3.65625 -11.875 L 3.65625 -7.703125 C 3.65625 -7.628906 3.695312 -7.59375 3.78125 -7.59375 Z M 6.734375 -7.59375 "/></g></g></g><g fill="#41c1ba" fill-opacity="1"><g transform="translate(206.226467, 270.645919)"><g><path d="M 5.984375 -10.328125 C 6.367188 -10.328125 6.722656 -10.253906 7.046875 -10.109375 C 7.203125 -10.023438 7.265625 -9.890625 7.234375 -9.703125 L 6.90625 -8.046875 C 6.894531 -7.941406 6.859375 -7.875 6.796875 -7.84375 C 6.734375 -7.820312 6.644531 -7.820312 6.53125 -7.84375 C 6.375 -7.894531 6.160156 -7.921875 5.890625 -7.921875 C 5.734375 -7.921875 5.609375 -7.914062 5.515625 -7.90625 C 4.953125 -7.882812 4.484375 -7.6875 4.109375 -7.3125 C 3.734375 -6.945312 3.546875 -6.472656 3.546875 -5.890625 L 3.546875 -0.3125 C 3.546875 -0.101562 3.441406 0 3.234375 0 L 1.5625 0 C 1.34375 0 1.234375 -0.101562 1.234375 -0.3125 L 1.234375 -9.890625 C 1.234375 -10.097656 1.34375 -10.203125 1.5625 -10.203125 L 3.234375 -10.203125 C 3.441406 -10.203125 3.546875 -10.097656 3.546875 -9.890625 L 3.546875 -9.109375 C 3.546875 -9.054688 3.5625 -9.019531 3.59375 -9 C 3.625 -8.988281 3.648438 -9.007812 3.671875 -9.0625 C 4.234375 -9.90625 5.003906 -10.328125 5.984375 -10.328125 Z M 5.984375 -10.328125 "/></g></g></g><g fill="#41c1ba" fill-opacity="1"><g transform="translate(216.367664, 270.645919)"><g><path d="M 5.8125 -1.796875 C 6.300781 -1.804688 6.726562 -1.90625 7.09375 -2.09375 C 7.457031 -2.289062 7.753906 -2.554688 7.984375 -2.890625 C 8.054688 -3.003906 8.144531 -3.0625 8.25 -3.0625 C 8.3125 -3.0625 8.367188 -3.039062 8.421875 -3 L 9.390625 -2.234375 C 9.484375 -2.140625 9.53125 -2.054688 9.53125 -1.984375 C 9.53125 -1.921875 9.507812 -1.859375 9.46875 -1.796875 C 9.082031 -1.179688 8.554688 -0.703125 7.890625 -0.359375 C 7.222656 -0.015625 6.457031 0.15625 5.59375 0.15625 C 4.539062 0.15625 3.65625 -0.09375 2.9375 -0.59375 C 2.226562 -1.09375 1.710938 -1.785156 1.390625 -2.671875 C 1.128906 -3.410156 1 -4.238281 1 -5.15625 C 1 -6.070312 1.070312 -6.773438 1.21875 -7.265625 C 1.46875 -8.210938 1.960938 -8.960938 2.703125 -9.515625 C 3.453125 -10.078125 4.363281 -10.359375 5.4375 -10.359375 C 7.925781 -10.359375 9.378906 -8.992188 9.796875 -6.265625 C 9.867188 -5.828125 9.914062 -5.28125 9.9375 -4.625 C 9.9375 -4.414062 9.832031 -4.3125 9.625 -4.3125 L 3.4375 -4.3125 C 3.351562 -4.3125 3.3125 -4.269531 3.3125 -4.1875 C 3.3125 -3.832031 3.351562 -3.539062 3.4375 -3.3125 C 3.582031 -2.832031 3.859375 -2.457031 4.265625 -2.1875 C 4.679688 -1.925781 5.195312 -1.796875 5.8125 -1.796875 Z M 5.40625 -8.359375 C 4.90625 -8.359375 4.488281 -8.234375 4.15625 -7.984375 C 3.832031 -7.742188 3.613281 -7.40625 3.5 -6.96875 C 3.40625 -6.695312 3.347656 -6.414062 3.328125 -6.125 C 3.316406 -6.050781 3.351562 -6.015625 3.4375 -6.015625 L 7.453125 -6.015625 C 7.523438 -6.015625 7.5625 -6.050781 7.5625 -6.125 C 7.507812 -6.53125 7.472656 -6.769531 7.453125 -6.84375 C 7.328125 -7.3125 7.085938 -7.679688 6.734375 -7.953125 C 6.378906 -8.222656 5.9375 -8.359375 5.40625 -8.359375 Z M 5.40625 -8.359375 "/></g></g></g><g fill="#41c1ba" fill-opacity="1"><g transform="translate(229.822538, 270.645919)"><g><path d="M 4.078125 0 C 3.890625 0 3.769531 -0.0859375 3.71875 -0.265625 L 0.5625 -9.84375 C 0.550781 -9.882812 0.546875 -9.929688 0.546875 -9.984375 C 0.546875 -10.128906 0.632812 -10.203125 0.8125 -10.203125 L 2.703125 -10.203125 C 2.878906 -10.203125 3 -10.113281 3.0625 -9.9375 L 4.953125 -3.3125 C 4.972656 -3.257812 5 -3.234375 5.03125 -3.234375 C 5.070312 -3.234375 5.097656 -3.257812 5.109375 -3.3125 L 7.015625 -9.921875 C 7.066406 -10.109375 7.1875 -10.203125 7.375 -10.203125 L 9.25 -10.1875 C 9.351562 -10.1875 9.429688 -10.148438 9.484375 -10.078125 C 9.535156 -10.015625 9.539062 -9.929688 9.5 -9.828125 L 6.375 -0.265625 C 6.320312 -0.0859375 6.203125 0 6.015625 0 Z M 4.078125 0 "/></g></g></g><g fill="#41c1ba" fill-opacity="1"><g transform="translate(242.518869, 270.645919)"><g><path d="M 5.8125 -1.796875 C 6.300781 -1.804688 6.726562 -1.90625 7.09375 -2.09375 C 7.457031 -2.289062 7.753906 -2.554688 7.984375 -2.890625 C 8.054688 -3.003906 8.144531 -3.0625 8.25 -3.0625 C 8.3125 -3.0625 8.367188 -3.039062 8.421875 -3 L 9.390625 -2.234375 C 9.484375 -2.140625 9.53125 -2.054688 9.53125 -1.984375 C 9.53125 -1.921875 9.507812 -1.859375 9.46875 -1.796875 C 9.082031 -1.179688 8.554688 -0.703125 7.890625 -0.359375 C 7.222656 -0.015625 6.457031 0.15625 5.59375 0.15625 C 4.539062 0.15625 3.65625 -0.09375 2.9375 -0.59375 C 2.226562 -1.09375 1.710938 -1.785156 1.390625 -2.671875 C 1.128906 -3.410156 1 -4.238281 1 -5.15625 C 1 -6.070312 1.070312 -6.773438 1.21875 -7.265625 C 1.46875 -8.210938 1.960938 -8.960938 2.703125 -9.515625 C 3.453125 -10.078125 4.363281 -10.359375 5.4375 -10.359375 C 7.925781 -10.359375 9.378906 -8.992188 9.796875 -6.265625 C 9.867188 -5.828125 9.914062 -5.28125 9.9375 -4.625 C 9.9375 -4.414062 9.832031 -4.3125 9.625 -4.3125 L 3.4375 -4.3125 C 3.351562 -4.3125 3.3125 -4.269531 3.3125 -4.1875 C 3.3125 -3.832031 3.351562 -3.539062 3.4375 -3.3125 C 3.582031 -2.832031 3.859375 -2.457031 4.265625 -2.1875 C 4.679688 -1.925781 5.195312 -1.796875 5.8125 -1.796875 Z M 5.40625 -8.359375 C 4.90625 -8.359375 4.488281 -8.234375 4.15625 -7.984375 C 3.832031 -7.742188 3.613281 -7.40625 3.5 -6.96875 C 3.40625 -6.695312 3.347656 -6.414062 3.328125 -6.125 C 3.316406 -6.050781 3.351562 -6.015625 3.4375 -6.015625 L 7.453125 -6.015625 C 7.523438 -6.015625 7.5625 -6.050781 7.5625 -6.125 C 7.507812 -6.53125 7.472656 -6.769531 7.453125 -6.84375 C 7.328125 -7.3125 7.085938 -7.679688 6.734375 -7.953125 C 6.378906 -8.222656 5.9375 -8.359375 5.40625 -8.359375 Z M 5.40625 -8.359375 "/></g></g></g><g fill="#41c1ba" fill-opacity="1"><g transform="translate(255.973743, 270.645919)"><g><path d="M 6.125 -10.359375 C 7.21875 -10.359375 8.085938 -10.039062 8.734375 -9.40625 C 9.378906 -8.769531 9.703125 -7.898438 9.703125 -6.796875 L 9.703125 -0.3125 C 9.703125 -0.101562 9.597656 0 9.390625 0 L 7.703125 0 C 7.492188 0 7.390625 -0.101562 7.390625 -0.3125 L 7.390625 -6.3125 C 7.390625 -6.925781 7.210938 -7.421875 6.859375 -7.796875 C 6.503906 -8.171875 6.039062 -8.359375 5.46875 -8.359375 C 4.894531 -8.359375 4.429688 -8.171875 4.078125 -7.796875 C 3.722656 -7.429688 3.546875 -6.941406 3.546875 -6.328125 L 3.546875 -0.3125 C 3.546875 -0.101562 3.441406 0 3.234375 0 L 1.5625 0 C 1.34375 0 1.234375 -0.101562 1.234375 -0.3125 L 1.234375 -9.890625 C 1.234375 -10.097656 1.34375 -10.203125 1.5625 -10.203125 L 3.234375 -10.203125 C 3.441406 -10.203125 3.546875 -10.097656 3.546875 -9.890625 L 3.546875 -9.34375 C 3.546875 -9.289062 3.5625 -9.253906 3.59375 -9.234375 C 3.625 -9.222656 3.648438 -9.238281 3.671875 -9.28125 C 4.234375 -10 5.050781 -10.359375 6.125 -10.359375 Z M 6.125 -10.359375 "/></g></g></g><g fill="#41c1ba" fill-opacity="1"><g transform="translate(269.468548, 270.645919)"><g><path d="M 6.65625 -8.640625 C 6.65625 -8.429688 6.546875 -8.328125 6.328125 -8.328125 L 4.390625 -8.328125 C 4.304688 -8.328125 4.265625 -8.285156 4.265625 -8.203125 L 4.265625 -3.5 C 4.265625 -2.976562 4.375 -2.601562 4.59375 -2.375 C 4.820312 -2.144531 5.175781 -2.03125 5.65625 -2.03125 L 6.171875 -2.03125 C 6.378906 -2.03125 6.484375 -1.925781 6.484375 -1.71875 L 6.484375 -0.375 C 6.484375 -0.164062 6.378906 -0.0546875 6.171875 -0.046875 L 5.21875 -0.015625 C 4.164062 -0.015625 3.378906 -0.195312 2.859375 -0.5625 C 2.335938 -0.9375 2.070312 -1.617188 2.0625 -2.609375 L 2.0625 -8.203125 C 2.0625 -8.285156 2.019531 -8.328125 1.9375 -8.328125 L 0.90625 -8.328125 C 0.6875 -8.328125 0.578125 -8.429688 0.578125 -8.640625 L 0.578125 -9.890625 C 0.578125 -10.097656 0.6875 -10.203125 0.90625 -10.203125 L 1.9375 -10.203125 C 2.019531 -10.203125 2.0625 -10.242188 2.0625 -10.328125 L 2.0625 -12.5625 C 2.0625 -12.769531 2.164062 -12.875 2.375 -12.875 L 3.953125 -12.875 C 4.160156 -12.875 4.265625 -12.769531 4.265625 -12.5625 L 4.265625 -10.328125 C 4.265625 -10.242188 4.304688 -10.203125 4.390625 -10.203125 L 6.328125 -10.203125 C 6.546875 -10.203125 6.65625 -10.097656 6.65625 -9.890625 Z M 6.65625 -8.640625 "/></g></g></g><g fill="#41c1ba" fill-opacity="1"><g transform="translate(279.569814, 270.645919)"><g><path d="M 2.5625 -11.484375 C 2.113281 -11.484375 1.75 -11.617188 1.46875 -11.890625 C 1.195312 -12.160156 1.0625 -12.507812 1.0625 -12.9375 C 1.0625 -13.363281 1.195312 -13.707031 1.46875 -13.96875 C 1.75 -14.238281 2.113281 -14.375 2.5625 -14.375 C 3 -14.375 3.351562 -14.238281 3.625 -13.96875 C 3.894531 -13.707031 4.03125 -13.363281 4.03125 -12.9375 C 4.03125 -12.507812 3.894531 -12.160156 3.625 -11.890625 C 3.351562 -11.617188 3 -11.484375 2.5625 -11.484375 Z M 1.71875 0 C 1.5 0 1.390625 -0.101562 1.390625 -0.3125 L 1.390625 -9.890625 C 1.390625 -10.097656 1.5 -10.203125 1.71875 -10.203125 L 3.390625 -10.203125 C 3.609375 -10.203125 3.71875 -10.097656 3.71875 -9.890625 L 3.71875 -0.3125 C 3.71875 -0.101562 3.609375 0 3.390625 0 Z M 1.71875 0 "/></g></g></g><g fill="#41c1ba" fill-opacity="1"><g transform="translate(287.295597, 270.645919)"><g><path d="M 5.59375 0.15625 C 4.539062 0.15625 3.632812 -0.109375 2.875 -0.640625 C 2.113281 -1.171875 1.585938 -1.910156 1.296875 -2.859375 C 1.066406 -3.503906 0.953125 -4.257812 0.953125 -5.125 C 0.953125 -5.976562 1.0625 -6.738281 1.28125 -7.40625 C 1.582031 -8.34375 2.113281 -9.066406 2.875 -9.578125 C 3.632812 -10.097656 4.546875 -10.359375 5.609375 -10.359375 C 6.617188 -10.359375 7.492188 -10.097656 8.234375 -9.578125 C 8.972656 -9.066406 9.492188 -8.347656 9.796875 -7.421875 C 10.046875 -6.785156 10.171875 -6.03125 10.171875 -5.15625 C 10.171875 -4.3125 10.054688 -3.550781 9.828125 -2.875 C 9.515625 -1.925781 8.984375 -1.179688 8.234375 -0.640625 C 7.492188 -0.109375 6.613281 0.15625 5.59375 0.15625 Z M 5.59375 -1.84375 C 6.082031 -1.84375 6.503906 -1.976562 6.859375 -2.25 C 7.210938 -2.53125 7.460938 -2.925781 7.609375 -3.4375 C 7.753906 -3.863281 7.828125 -4.421875 7.828125 -5.109375 C 7.828125 -5.765625 7.757812 -6.328125 7.625 -6.796875 C 7.476562 -7.296875 7.222656 -7.679688 6.859375 -7.953125 C 6.492188 -8.222656 6.054688 -8.359375 5.546875 -8.359375 C 5.046875 -8.359375 4.613281 -8.222656 4.25 -7.953125 C 3.894531 -7.679688 3.644531 -7.296875 3.5 -6.796875 C 3.363281 -6.328125 3.296875 -5.765625 3.296875 -5.109375 C 3.296875 -4.460938 3.363281 -3.90625 3.5 -3.4375 C 3.644531 -2.925781 3.898438 -2.53125 4.265625 -2.25 C 4.628906 -1.976562 5.070312 -1.84375 5.59375 -1.84375 Z M 5.59375 -1.84375 "/></g></g></g><g fill="#41c1ba" fill-opacity="1"><g transform="translate(301.049897, 270.645919)"><g><path d="M 6.125 -10.359375 C 7.21875 -10.359375 8.085938 -10.039062 8.734375 -9.40625 C 9.378906 -8.769531 9.703125 -7.898438 9.703125 -6.796875 L 9.703125 -0.3125 C 9.703125 -0.101562 9.597656 0 9.390625 0 L 7.703125 0 C 7.492188 0 7.390625 -0.101562 7.390625 -0.3125 L 7.390625 -6.3125 C 7.390625 -6.925781 7.210938 -7.421875 6.859375 -7.796875 C 6.503906 -8.171875 6.039062 -8.359375 5.46875 -8.359375 C 4.894531 -8.359375 4.429688 -8.171875 4.078125 -7.796875 C 3.722656 -7.429688 3.546875 -6.941406 3.546875 -6.328125 L 3.546875 -0.3125 C 3.546875 -0.101562 3.441406 0 3.234375 0 L 1.5625 0 C 1.34375 0 1.234375 -0.101562 1.234375 -0.3125 L 1.234375 -9.890625 C 1.234375 -10.097656 1.34375 -10.203125 1.5625 -10.203125 L 3.234375 -10.203125 C 3.441406 -10.203125 3.546875 -10.097656 3.546875 -9.890625 L 3.546875 -9.34375 C 3.546875 -9.289062 3.5625 -9.253906 3.59375 -9.234375 C 3.625 -9.222656 3.648438 -9.238281 3.671875 -9.28125 C 4.234375 -10 5.050781 -10.359375 6.125 -10.359375 Z M 6.125 -10.359375 "/></g></g></g><g fill="#41c1ba" fill-opacity="1"><g transform="translate(314.544703, 270.645919)"><g><path d="M 2.65625 0.015625 C 2.1875 0.015625 1.800781 -0.128906 1.5 -0.421875 C 1.207031 -0.710938 1.0625 -1.078125 1.0625 -1.515625 C 1.0625 -1.929688 1.222656 -2.285156 1.546875 -2.578125 C 1.867188 -2.878906 2.238281 -3.03125 2.65625 -3.03125 C 3.082031 -3.03125 3.460938 -2.878906 3.796875 -2.578125 C 4.128906 -2.285156 4.296875 -1.929688 4.296875 -1.515625 C 4.296875 -1.085938 4.140625 -0.722656 3.828125 -0.421875 C 3.515625 -0.128906 3.125 0.015625 2.65625 0.015625 Z M 2.65625 0.015625 "/></g></g></g><g fill="#41c1ba" fill-opacity="1"><g transform="translate(126.21144, 298.39631)"><g><path d="M 10.5625 -13.984375 C 10.78125 -13.984375 10.890625 -13.875 10.890625 -13.65625 L 10.890625 -12.28125 C 10.890625 -12.070312 10.78125 -11.96875 10.5625 -11.96875 L 6.984375 -11.96875 C 6.910156 -11.96875 6.875 -11.925781 6.875 -11.84375 L 6.875 -0.3125 C 6.875 -0.101562 6.765625 0 6.546875 0 L 4.875 0 C 4.65625 0 4.546875 -0.101562 4.546875 -0.3125 L 4.546875 -11.84375 C 4.546875 -11.925781 4.507812 -11.96875 4.4375 -11.96875 L 1 -11.96875 C 0.78125 -11.96875 0.671875 -12.070312 0.671875 -12.28125 L 0.671875 -13.65625 C 0.671875 -13.875 0.78125 -13.984375 1 -13.984375 Z M 10.5625 -13.984375 "/></g></g></g><g fill="#41c1ba" fill-opacity="1"><g transform="translate(140.404909, 298.39631)"><g><path d="M 5.984375 -10.328125 C 6.367188 -10.328125 6.722656 -10.253906 7.046875 -10.109375 C 7.203125 -10.023438 7.265625 -9.890625 7.234375 -9.703125 L 6.90625 -8.046875 C 6.894531 -7.941406 6.859375 -7.875 6.796875 -7.84375 C 6.734375 -7.820312 6.644531 -7.820312 6.53125 -7.84375 C 6.375 -7.894531 6.160156 -7.921875 5.890625 -7.921875 C 5.734375 -7.921875 5.609375 -7.914062 5.515625 -7.90625 C 4.953125 -7.882812 4.484375 -7.6875 4.109375 -7.3125 C 3.734375 -6.945312 3.546875 -6.472656 3.546875 -5.890625 L 3.546875 -0.3125 C 3.546875 -0.101562 3.441406 0 3.234375 0 L 1.5625 0 C 1.34375 0 1.234375 -0.101562 1.234375 -0.3125 L 1.234375 -9.890625 C 1.234375 -10.097656 1.34375 -10.203125 1.5625 -10.203125 L 3.234375 -10.203125 C 3.441406 -10.203125 3.546875 -10.097656 3.546875 -9.890625 L 3.546875 -9.109375 C 3.546875 -9.054688 3.5625 -9.019531 3.59375 -9 C 3.625 -8.988281 3.648438 -9.007812 3.671875 -9.0625 C 4.234375 -9.90625 5.003906 -10.328125 5.984375 -10.328125 Z M 5.984375 -10.328125 "/></g></g></g><g fill="#41c1ba" fill-opacity="1"><g transform="translate(150.546099, 298.39631)"><g><path d="M 5.8125 -1.796875 C 6.300781 -1.804688 6.726562 -1.90625 7.09375 -2.09375 C 7.457031 -2.289062 7.753906 -2.554688 7.984375 -2.890625 C 8.054688 -3.003906 8.144531 -3.0625 8.25 -3.0625 C 8.3125 -3.0625 8.367188 -3.039062 8.421875 -3 L 9.390625 -2.234375 C 9.484375 -2.140625 9.53125 -2.054688 9.53125 -1.984375 C 9.53125 -1.921875 9.507812 -1.859375 9.46875 -1.796875 C 9.082031 -1.179688 8.554688 -0.703125 7.890625 -0.359375 C 7.222656 -0.015625 6.457031 0.15625 5.59375 0.15625 C 4.539062 0.15625 3.65625 -0.09375 2.9375 -0.59375 C 2.226562 -1.09375 1.710938 -1.785156 1.390625 -2.671875 C 1.128906 -3.410156 1 -4.238281 1 -5.15625 C 1 -6.070312 1.070312 -6.773438 1.21875 -7.265625 C 1.46875 -8.210938 1.960938 -8.960938 2.703125 -9.515625 C 3.453125 -10.078125 4.363281 -10.359375 5.4375 -10.359375 C 7.925781 -10.359375 9.378906 -8.992188 9.796875 -6.265625 C 9.867188 -5.828125 9.914062 -5.28125 9.9375 -4.625 C 9.9375 -4.414062 9.832031 -4.3125 9.625 -4.3125 L 3.4375 -4.3125 C 3.351562 -4.3125 3.3125 -4.269531 3.3125 -4.1875 C 3.3125 -3.832031 3.351562 -3.539062 3.4375 -3.3125 C 3.582031 -2.832031 3.859375 -2.457031 4.265625 -2.1875 C 4.679688 -1.925781 5.195312 -1.796875 5.8125 -1.796875 Z M 5.40625 -8.359375 C 4.90625 -8.359375 4.488281 -8.234375 4.15625 -7.984375 C 3.832031 -7.742188 3.613281 -7.40625 3.5 -6.96875 C 3.40625 -6.695312 3.347656 -6.414062 3.328125 -6.125 C 3.316406 -6.050781 3.351562 -6.015625 3.4375 -6.015625 L 7.453125 -6.015625 C 7.523438 -6.015625 7.5625 -6.050781 7.5625 -6.125 C 7.507812 -6.53125 7.472656 -6.769531 7.453125 -6.84375 C 7.328125 -7.3125 7.085938 -7.679688 6.734375 -7.953125 C 6.378906 -8.222656 5.9375 -8.359375 5.40625 -8.359375 Z M 5.40625 -8.359375 "/></g></g></g><g fill="#41c1ba" fill-opacity="1"><g transform="translate(164.000976, 298.39631)"><g><path d="M 5.125 -10.359375 C 5.96875 -10.359375 6.710938 -10.210938 7.359375 -9.921875 C 8.003906 -9.628906 8.5 -9.226562 8.84375 -8.71875 C 9.1875 -8.207031 9.359375 -7.625 9.359375 -6.96875 L 9.359375 -0.3125 C 9.359375 -0.101562 9.253906 0 9.046875 0 L 7.375 0 C 7.15625 0 7.046875 -0.101562 7.046875 -0.3125 L 7.046875 -0.8125 C 7.046875 -0.875 7.03125 -0.90625 7 -0.90625 C 6.976562 -0.914062 6.945312 -0.90625 6.90625 -0.875 C 6.1875 -0.1875 5.226562 0.15625 4.03125 0.15625 C 3.050781 0.15625 2.242188 -0.09375 1.609375 -0.59375 C 0.972656 -1.101562 0.65625 -1.859375 0.65625 -2.859375 C 0.65625 -3.890625 1.015625 -4.695312 1.734375 -5.28125 C 2.460938 -5.863281 3.488281 -6.15625 4.8125 -6.15625 L 6.921875 -6.15625 C 7.003906 -6.15625 7.046875 -6.191406 7.046875 -6.265625 L 7.046875 -6.734375 C 7.046875 -7.253906 6.890625 -7.65625 6.578125 -7.9375 C 6.265625 -8.21875 5.800781 -8.359375 5.1875 -8.359375 C 4.726562 -8.359375 4.34375 -8.273438 4.03125 -8.109375 C 3.726562 -7.953125 3.523438 -7.722656 3.421875 -7.421875 C 3.359375 -7.242188 3.238281 -7.160156 3.0625 -7.171875 L 1.265625 -7.390625 C 1.148438 -7.398438 1.066406 -7.425781 1.015625 -7.46875 C 0.960938 -7.519531 0.941406 -7.578125 0.953125 -7.640625 C 1.078125 -8.441406 1.519531 -9.09375 2.28125 -9.59375 C 3.050781 -10.101562 4 -10.359375 5.125 -10.359375 Z M 4.671875 -1.671875 C 5.328125 -1.671875 5.882812 -1.84375 6.34375 -2.1875 C 6.8125 -2.539062 7.046875 -2.984375 7.046875 -3.515625 L 7.046875 -4.4375 C 7.046875 -4.507812 7.003906 -4.546875 6.921875 -4.546875 L 5.265625 -4.546875 C 4.566406 -4.546875 4.007812 -4.410156 3.59375 -4.140625 C 3.175781 -3.878906 2.96875 -3.503906 2.96875 -3.015625 C 2.96875 -2.585938 3.128906 -2.253906 3.453125 -2.015625 C 3.773438 -1.785156 4.179688 -1.671875 4.671875 -1.671875 Z M 4.671875 -1.671875 "/></g></g></g><g fill="#41c1ba" fill-opacity="1"><g transform="translate(177.056612, 298.39631)"><g><path d="M 6.65625 -8.640625 C 6.65625 -8.429688 6.546875 -8.328125 6.328125 -8.328125 L 4.390625 -8.328125 C 4.304688 -8.328125 4.265625 -8.285156 4.265625 -8.203125 L 4.265625 -3.5 C 4.265625 -2.976562 4.375 -2.601562 4.59375 -2.375 C 4.820312 -2.144531 5.175781 -2.03125 5.65625 -2.03125 L 6.171875 -2.03125 C 6.378906 -2.03125 6.484375 -1.925781 6.484375 -1.71875 L 6.484375 -0.375 C 6.484375 -0.164062 6.378906 -0.0546875 6.171875 -0.046875 L 5.21875 -0.015625 C 4.164062 -0.015625 3.378906 -0.195312 2.859375 -0.5625 C 2.335938 -0.9375 2.070312 -1.617188 2.0625 -2.609375 L 2.0625 -8.203125 C 2.0625 -8.285156 2.019531 -8.328125 1.9375 -8.328125 L 0.90625 -8.328125 C 0.6875 -8.328125 0.578125 -8.429688 0.578125 -8.640625 L 0.578125 -9.890625 C 0.578125 -10.097656 0.6875 -10.203125 0.90625 -10.203125 L 1.9375 -10.203125 C 2.019531 -10.203125 2.0625 -10.242188 2.0625 -10.328125 L 2.0625 -12.5625 C 2.0625 -12.769531 2.164062 -12.875 2.375 -12.875 L 3.953125 -12.875 C 4.160156 -12.875 4.265625 -12.769531 4.265625 -12.5625 L 4.265625 -10.328125 C 4.265625 -10.242188 4.304688 -10.203125 4.390625 -10.203125 L 6.328125 -10.203125 C 6.546875 -10.203125 6.65625 -10.097656 6.65625 -9.890625 Z M 6.65625 -8.640625 "/></g></g></g><g fill="#41c1ba" fill-opacity="1"><g transform="translate(187.157871, 298.39631)"><g><path d="M 12.15625 -10.359375 C 13.1875 -10.359375 13.988281 -10.046875 14.5625 -9.421875 C 15.144531 -8.804688 15.4375 -7.945312 15.4375 -6.84375 L 15.4375 -0.3125 C 15.4375 -0.101562 15.328125 0 15.109375 0 L 13.453125 0 C 13.242188 0 13.140625 -0.101562 13.140625 -0.3125 L 13.140625 -6.375 C 13.140625 -6.976562 12.972656 -7.457031 12.640625 -7.8125 C 12.316406 -8.175781 11.882812 -8.359375 11.34375 -8.359375 C 10.800781 -8.359375 10.351562 -8.175781 10 -7.8125 C 9.65625 -7.457031 9.484375 -6.984375 9.484375 -6.390625 L 9.484375 -0.3125 C 9.484375 -0.101562 9.378906 0 9.171875 0 L 7.515625 0 C 7.296875 0 7.1875 -0.101562 7.1875 -0.3125 L 7.1875 -6.375 C 7.1875 -6.976562 7.019531 -7.457031 6.6875 -7.8125 C 6.351562 -8.175781 5.914062 -8.359375 5.375 -8.359375 C 4.863281 -8.359375 4.445312 -8.210938 4.125 -7.921875 C 3.800781 -7.628906 3.609375 -7.234375 3.546875 -6.734375 L 3.546875 -0.3125 C 3.546875 -0.101562 3.441406 0 3.234375 0 L 1.5625 0 C 1.34375 0 1.234375 -0.101562 1.234375 -0.3125 L 1.234375 -9.890625 C 1.234375 -10.097656 1.34375 -10.203125 1.5625 -10.203125 L 3.234375 -10.203125 C 3.441406 -10.203125 3.546875 -10.097656 3.546875 -9.890625 L 3.546875 -9.34375 C 3.546875 -9.289062 3.5625 -9.253906 3.59375 -9.234375 C 3.632812 -9.222656 3.664062 -9.25 3.6875 -9.3125 C 4.257812 -10.007812 5.097656 -10.359375 6.203125 -10.359375 C 6.859375 -10.359375 7.425781 -10.226562 7.90625 -9.96875 C 8.394531 -9.707031 8.773438 -9.328125 9.046875 -8.828125 C 9.066406 -8.785156 9.09375 -8.765625 9.125 -8.765625 C 9.164062 -8.765625 9.191406 -8.789062 9.203125 -8.84375 C 9.515625 -9.351562 9.925781 -9.734375 10.4375 -9.984375 C 10.957031 -10.234375 11.53125 -10.359375 12.15625 -10.359375 Z M 12.15625 -10.359375 "/></g></g></g><g fill="#41c1ba" fill-opacity="1"><g transform="translate(206.341833, 298.39631)"><g><path d="M 5.8125 -1.796875 C 6.300781 -1.804688 6.726562 -1.90625 7.09375 -2.09375 C 7.457031 -2.289062 7.753906 -2.554688 7.984375 -2.890625 C 8.054688 -3.003906 8.144531 -3.0625 8.25 -3.0625 C 8.3125 -3.0625 8.367188 -3.039062 8.421875 -3 L 9.390625 -2.234375 C 9.484375 -2.140625 9.53125 -2.054688 9.53125 -1.984375 C 9.53125 -1.921875 9.507812 -1.859375 9.46875 -1.796875 C 9.082031 -1.179688 8.554688 -0.703125 7.890625 -0.359375 C 7.222656 -0.015625 6.457031 0.15625 5.59375 0.15625 C 4.539062 0.15625 3.65625 -0.09375 2.9375 -0.59375 C 2.226562 -1.09375 1.710938 -1.785156 1.390625 -2.671875 C 1.128906 -3.410156 1 -4.238281 1 -5.15625 C 1 -6.070312 1.070312 -6.773438 1.21875 -7.265625 C 1.46875 -8.210938 1.960938 -8.960938 2.703125 -9.515625 C 3.453125 -10.078125 4.363281 -10.359375 5.4375 -10.359375 C 7.925781 -10.359375 9.378906 -8.992188 9.796875 -6.265625 C 9.867188 -5.828125 9.914062 -5.28125 9.9375 -4.625 C 9.9375 -4.414062 9.832031 -4.3125 9.625 -4.3125 L 3.4375 -4.3125 C 3.351562 -4.3125 3.3125 -4.269531 3.3125 -4.1875 C 3.3125 -3.832031 3.351562 -3.539062 3.4375 -3.3125 C 3.582031 -2.832031 3.859375 -2.457031 4.265625 -2.1875 C 4.679688 -1.925781 5.195312 -1.796875 5.8125 -1.796875 Z M 5.40625 -8.359375 C 4.90625 -8.359375 4.488281 -8.234375 4.15625 -7.984375 C 3.832031 -7.742188 3.613281 -7.40625 3.5 -6.96875 C 3.40625 -6.695312 3.347656 -6.414062 3.328125 -6.125 C 3.316406 -6.050781 3.351562 -6.015625 3.4375 -6.015625 L 7.453125 -6.015625 C 7.523438 -6.015625 7.5625 -6.050781 7.5625 -6.125 C 7.507812 -6.53125 7.472656 -6.769531 7.453125 -6.84375 C 7.328125 -7.3125 7.085938 -7.679688 6.734375 -7.953125 C 6.378906 -8.222656 5.9375 -8.359375 5.40625 -8.359375 Z M 5.40625 -8.359375 "/></g></g></g><g fill="#41c1ba" fill-opacity="1"><g transform="translate(219.796707, 298.39631)"><g><path d="M 6.125 -10.359375 C 7.21875 -10.359375 8.085938 -10.039062 8.734375 -9.40625 C 9.378906 -8.769531 9.703125 -7.898438 9.703125 -6.796875 L 9.703125 -0.3125 C 9.703125 -0.101562 9.597656 0 9.390625 0 L 7.703125 0 C 7.492188 0 7.390625 -0.101562 7.390625 -0.3125 L 7.390625 -6.3125 C 7.390625 -6.925781 7.210938 -7.421875 6.859375 -7.796875 C 6.503906 -8.171875 6.039062 -8.359375 5.46875 -8.359375 C 4.894531 -8.359375 4.429688 -8.171875 4.078125 -7.796875 C 3.722656 -7.429688 3.546875 -6.941406 3.546875 -6.328125 L 3.546875 -0.3125 C 3.546875 -0.101562 3.441406 0 3.234375 0 L 1.5625 0 C 1.34375 0 1.234375 -0.101562 1.234375 -0.3125 L 1.234375 -9.890625 C 1.234375 -10.097656 1.34375 -10.203125 1.5625 -10.203125 L 3.234375 -10.203125 C 3.441406 -10.203125 3.546875 -10.097656 3.546875 -9.890625 L 3.546875 -9.34375 C 3.546875 -9.289062 3.5625 -9.253906 3.59375 -9.234375 C 3.625 -9.222656 3.648438 -9.238281 3.671875 -9.28125 C 4.234375 -10 5.050781 -10.359375 6.125 -10.359375 Z M 6.125 -10.359375 "/></g></g></g><g fill="#41c1ba" fill-opacity="1"><g transform="translate(233.291504, 298.39631)"><g><path d="M 6.65625 -8.640625 C 6.65625 -8.429688 6.546875 -8.328125 6.328125 -8.328125 L 4.390625 -8.328125 C 4.304688 -8.328125 4.265625 -8.285156 4.265625 -8.203125 L 4.265625 -3.5 C 4.265625 -2.976562 4.375 -2.601562 4.59375 -2.375 C 4.820312 -2.144531 5.175781 -2.03125 5.65625 -2.03125 L 6.171875 -2.03125 C 6.378906 -2.03125 6.484375 -1.925781 6.484375 -1.71875 L 6.484375 -0.375 C 6.484375 -0.164062 6.378906 -0.0546875 6.171875 -0.046875 L 5.21875 -0.015625 C 4.164062 -0.015625 3.378906 -0.195312 2.859375 -0.5625 C 2.335938 -0.9375 2.070312 -1.617188 2.0625 -2.609375 L 2.0625 -8.203125 C 2.0625 -8.285156 2.019531 -8.328125 1.9375 -8.328125 L 0.90625 -8.328125 C 0.6875 -8.328125 0.578125 -8.429688 0.578125 -8.640625 L 0.578125 -9.890625 C 0.578125 -10.097656 0.6875 -10.203125 0.90625 -10.203125 L 1.9375 -10.203125 C 2.019531 -10.203125 2.0625 -10.242188 2.0625 -10.328125 L 2.0625 -12.5625 C 2.0625 -12.769531 2.164062 -12.875 2.375 -12.875 L 3.953125 -12.875 C 4.160156 -12.875 4.265625 -12.769531 4.265625 -12.5625 L 4.265625 -10.328125 C 4.265625 -10.242188 4.304688 -10.203125 4.390625 -10.203125 L 6.328125 -10.203125 C 6.546875 -10.203125 6.65625 -10.097656 6.65625 -9.890625 Z M 6.65625 -8.640625 "/></g></g></g><g fill="#41c1ba" fill-opacity="1"><g transform="translate(243.392762, 298.39631)"><g><path d="M 2.65625 0.015625 C 2.1875 0.015625 1.800781 -0.128906 1.5 -0.421875 C 1.207031 -0.710938 1.0625 -1.078125 1.0625 -1.515625 C 1.0625 -1.929688 1.222656 -2.285156 1.546875 -2.578125 C 1.867188 -2.878906 2.238281 -3.03125 2.65625 -3.03125 C 3.082031 -3.03125 3.460938 -2.878906 3.796875 -2.578125 C 4.128906 -2.285156 4.296875 -1.929688 4.296875 -1.515625 C 4.296875 -1.085938 4.140625 -0.722656 3.828125 -0.421875 C 3.515625 -0.128906 3.125 0.015625 2.65625 0.015625 Z M 2.65625 0.015625 "/></g></g></g></svg>