<svg xmlns="http://www.w3.org/2000/svg" xmlns:xlink="http://www.w3.org/1999/xlink" width="111" zoomAndPan="magnify" viewBox="0 0 83.25 30.000001" height="40" preserveAspectRatio="xMidYMid meet" version="1.0"><defs><clipPath id="id1"><path d="M 27 2 L 51 2 L 51 27.613281 L 27 27.613281 Z M 27 2 " clip-rule="nonzero"/></clipPath><clipPath id="id2"><path d="M 31 1.480469 L 55.261719 1.480469 L 55.261719 27 L 31 27 Z M 31 1.480469 " clip-rule="nonzero"/></clipPath></defs><g clip-path="url(#id1)"><path fill="#365b6d" d="M 40.882812 24.53125 C 42.019531 24.148438 45.175781 22.933594 45.441406 21.886719 C 44.472656 20.40625 43.070312 21.652344 41.296875 21.863281 C 39.339844 22.097656 38.535156 22.246094 36.71875 22.722656 C 33.839844 23.476562 26.992188 16.359375 29.882812 8.800781 C 31 5.882812 31.804688 5.027344 34.074219 3.269531 C 34.398438 3.019531 34.554688 2.875 34.75 2.703125 C 31.59375 3.699219 28.488281 7.015625 27.445312 11.269531 C 26.835938 13.765625 26.960938 16.1875 27.667969 18.609375 C 29.433594 24.625 35.71875 28.140625 41.523438 27.539062 C 42.574219 27.433594 43.726562 27.089844 44.453125 26.628906 C 44.882812 26.351562 45.164062 26.054688 45.65625 25.75 C 46.917969 24.976562 50.878906 22.882812 50.539062 21.363281 C 48.613281 20.109375 43.425781 26.125 40.886719 24.53125 Z M 40.882812 24.53125 " fill-opacity="1" fill-rule="evenodd"/></g><g clip-path="url(#id2)"><path fill="#6c9286" d="M 41.328125 4.558594 C 40.1875 4.941406 37.035156 6.15625 36.765625 7.199219 C 37.738281 8.683594 39.136719 7.4375 40.910156 7.226562 C 42.867188 6.992188 43.671875 6.84375 45.488281 6.367188 C 48.371094 5.613281 55.214844 12.730469 52.324219 20.289062 C 51.222656 23.171875 50.449219 24.019531 48.132812 25.816406 C 47.808594 26.070312 47.652344 26.210938 47.460938 26.386719 C 50.613281 25.386719 53.71875 22.070312 54.761719 17.820312 C 55.375 15.324219 55.246094 12.898438 54.539062 10.480469 C 52.773438 4.464844 46.496094 0.949219 40.683594 1.550781 C 39.632812 1.65625 38.480469 2 37.757812 2.460938 C 37.328125 2.738281 37.042969 3.035156 36.554688 3.335938 C 35.289062 4.109375 31.332031 6.207031 31.667969 7.722656 C 33.59375 8.980469 38.785156 2.964844 41.320312 4.558594 Z M 41.328125 4.558594 " fill-opacity="1" fill-rule="evenodd"/></g><path fill="#41c1ba" d="M 40.117188 19.644531 C 40.167969 16.738281 39.203125 15.019531 37.222656 14.484375 C 37.121094 14.484375 37.039062 14.535156 36.933594 14.664062 C 36.503906 15.378906 38.019531 15.40625 37.5 17.140625 C 36.902344 19.128906 32.882812 18.636719 33.332031 13.234375 C 33.710938 8.628906 37.5 8.605469 38.210938 10.679688 C 38.722656 12.167969 37.570312 12.496094 37.898438 13.285156 C 37.914062 13.289062 37.929688 13.292969 37.949219 13.300781 C 38.066406 13.339844 38.375 13.46875 38.726562 13.636719 C 39.179688 13.910156 39.546875 14.296875 39.851562 14.796875 C 40.507812 15.890625 40.8125 17.53125 40.761719 19.714844 C 40.523438 19.683594 40.308594 19.652344 40.128906 19.632812 Z M 40.117188 19.644531 " fill-opacity="1" fill-rule="evenodd"/><path fill="#41c1ba" d="M 42.09375 19.644531 C 42.042969 16.738281 43.011719 15.019531 44.992188 14.484375 C 45.09375 14.484375 45.175781 14.535156 45.28125 14.664062 C 45.710938 15.378906 44.195312 15.40625 44.714844 17.140625 C 45.3125 19.128906 49.324219 18.636719 48.878906 13.234375 C 48.5 8.628906 44.714844 8.605469 44 10.679688 C 43.492188 12.167969 44.644531 12.496094 44.316406 13.285156 C 44.300781 13.289062 44.285156 13.292969 44.265625 13.300781 C 44.148438 13.339844 43.835938 13.46875 43.484375 13.636719 C 43.035156 13.910156 42.667969 14.296875 42.363281 14.796875 C 41.707031 15.890625 41.402344 17.53125 41.453125 19.714844 C 41.691406 19.683594 41.902344 19.652344 42.085938 19.632812 Z M 42.09375 19.644531 " fill-opacity="1" fill-rule="evenodd"/></svg>