<svg width="175" height="249" viewBox="0 0 175 249" fill="none" xmlns="http://www.w3.org/2000/svg">
<rect width="175" height="249" fill="white"/>
<path d="M20.7859 141.047V142.262H18.3934V149H16.9139V142.262H14.5104V141.047H20.7859ZM22.9382 143.269C23.3599 143.269 23.7412 143.337 24.0822 143.473C24.4269 143.608 24.7202 143.801 24.9622 144.05C25.2042 144.299 25.3912 144.604 25.5232 144.963C25.6552 145.322 25.7212 145.724 25.7212 146.167C25.7212 146.615 25.6552 147.018 25.5232 147.377C25.3912 147.737 25.2042 148.043 24.9622 148.296C24.7202 148.549 24.4269 148.743 24.0822 148.879C23.7412 149.015 23.3599 149.083 22.9382 149.083C22.5166 149.083 22.1334 149.015 21.7887 148.879C21.4441 148.743 21.1489 148.549 20.9032 148.296C20.6612 148.043 20.4724 147.737 20.3367 147.377C20.2047 147.018 20.1387 146.615 20.1387 146.167C20.1387 145.724 20.2047 145.322 20.3367 144.963C20.4724 144.604 20.6612 144.299 20.9032 144.05C21.1489 143.801 21.4441 143.608 21.7887 143.473C22.1334 143.337 22.5166 143.269 22.9382 143.269ZM22.9382 148.037C23.4076 148.037 23.7541 147.88 23.9777 147.564C24.2051 147.249 24.3187 146.787 24.3187 146.178C24.3187 145.57 24.2051 145.106 23.9777 144.787C23.7541 144.468 23.4076 144.308 22.9382 144.308C22.4616 144.308 22.1096 144.47 21.8822 144.792C21.6549 145.111 21.5412 145.573 21.5412 146.178C21.5412 146.783 21.6549 147.245 21.8822 147.564C22.1096 147.88 22.4616 148.037 22.9382 148.037ZM26.0937 143.357H27.1717C27.2743 143.357 27.3605 143.381 27.4302 143.428C27.4998 143.476 27.5438 143.537 27.5622 143.61L28.3707 146.624C28.4147 146.789 28.4495 146.95 28.4752 147.108C28.5045 147.266 28.532 147.423 28.5577 147.581C28.598 147.423 28.6402 147.266 28.6842 147.108C28.7318 146.95 28.7813 146.789 28.8327 146.624L29.7677 143.599C29.7897 143.526 29.8337 143.465 29.8997 143.417C29.9657 143.37 30.0427 143.346 30.1307 143.346H30.7302C30.8292 143.346 30.9117 143.37 30.9777 143.417C31.0437 143.465 31.0877 143.526 31.1097 143.599L32.0337 146.679C32.0813 146.837 32.1235 146.991 32.1602 147.141C32.2005 147.288 32.239 147.436 32.2757 147.587C32.3013 147.429 32.3288 147.271 32.3582 147.113C32.3912 146.956 32.4315 146.793 32.4792 146.624L33.3152 143.61C33.3335 143.537 33.3775 143.476 33.4472 143.428C33.5168 143.381 33.5975 143.357 33.6892 143.357H34.7177L32.9302 149H31.8357C31.7183 149 31.634 148.919 31.5827 148.758L30.5652 145.496C30.5322 145.39 30.501 145.284 30.4717 145.177C30.446 145.067 30.424 144.959 30.4057 144.853C30.3837 144.963 30.3598 145.073 30.3342 145.183C30.3085 145.289 30.2792 145.397 30.2462 145.507L29.2177 148.758C29.1663 148.919 29.0673 149 28.9207 149H27.8812L26.0937 143.357ZM39.9043 149H39.2938C39.1655 149 39.0647 148.982 38.9913 148.945C38.918 148.905 38.863 148.826 38.8263 148.708L38.7053 148.307C38.5623 148.435 38.4212 148.549 38.2818 148.648C38.1462 148.743 38.005 148.824 37.8583 148.89C37.7117 148.956 37.5558 149.006 37.3908 149.039C37.2258 149.072 37.0425 149.088 36.8408 149.088C36.6025 149.088 36.3825 149.057 36.1808 148.994C35.9792 148.928 35.805 148.831 35.6583 148.703C35.5153 148.575 35.4035 148.415 35.3228 148.224C35.2422 148.034 35.2018 147.812 35.2018 147.559C35.2018 147.346 35.2568 147.137 35.3668 146.932C35.4805 146.723 35.6675 146.536 35.9278 146.371C36.1882 146.202 36.5347 146.063 36.9673 145.953C37.4 145.843 37.9372 145.781 38.5788 145.766V145.436C38.5788 145.058 38.4982 144.78 38.3368 144.6C38.1792 144.417 37.9482 144.325 37.6438 144.325C37.4238 144.325 37.2405 144.351 37.0938 144.402C36.9472 144.453 36.8188 144.512 36.7088 144.578C36.6025 144.64 36.5035 144.697 36.4118 144.748C36.3202 144.8 36.2193 144.825 36.1093 144.825C36.0177 144.825 35.9388 144.802 35.8728 144.754C35.8068 144.706 35.7537 144.648 35.7133 144.578L35.4658 144.143C36.1148 143.549 36.8977 143.252 37.8143 143.252C38.1443 143.252 38.4377 143.307 38.6943 143.417C38.9547 143.524 39.1747 143.674 39.3543 143.868C39.534 144.059 39.6697 144.288 39.7613 144.556C39.8567 144.824 39.9043 145.117 39.9043 145.436V149ZM37.2643 148.153C37.4037 148.153 37.532 148.14 37.6493 148.114C37.7667 148.089 37.8767 148.05 37.9793 147.999C38.0857 147.948 38.1865 147.885 38.2818 147.812C38.3808 147.735 38.4798 147.645 38.5788 147.542V146.591C38.1828 146.609 37.851 146.644 37.5833 146.695C37.3193 146.743 37.1067 146.805 36.9453 146.882C36.784 146.959 36.6685 147.049 36.5988 147.152C36.5328 147.255 36.4998 147.366 36.4998 147.487C36.4998 147.726 36.5695 147.896 36.7088 147.999C36.8518 148.102 37.037 148.153 37.2643 148.153ZM41.2402 149V143.357H42.0377C42.177 143.357 42.2742 143.383 42.3292 143.434C42.3842 143.485 42.4208 143.573 42.4392 143.698L42.5217 144.38C42.7233 144.032 42.9598 143.757 43.2312 143.555C43.5025 143.353 43.8068 143.252 44.1442 143.252C44.4228 143.252 44.6538 143.317 44.8372 143.445L44.6612 144.462C44.6502 144.528 44.6263 144.576 44.5897 144.605C44.553 144.631 44.5035 144.644 44.4412 144.644C44.3862 144.644 44.311 144.631 44.2157 144.605C44.1203 144.58 43.9938 144.567 43.8362 144.567C43.5538 144.567 43.3118 144.646 43.1102 144.803C42.9085 144.957 42.738 145.185 42.5987 145.485V149H41.2402ZM49.7014 149C49.5254 149 49.4099 148.917 49.3549 148.752L49.2449 148.208C49.1276 148.34 49.0047 148.459 48.8764 148.565C48.7481 148.672 48.6087 148.763 48.4584 148.84C48.3117 148.917 48.1522 148.976 47.9799 149.017C47.8112 149.061 47.6279 149.083 47.4299 149.083C47.1219 149.083 46.8396 149.018 46.5829 148.89C46.3262 148.762 46.1044 148.576 45.9174 148.334C45.7341 148.089 45.5911 147.786 45.4884 147.427C45.3894 147.068 45.3399 146.657 45.3399 146.195C45.3399 145.777 45.3967 145.388 45.5104 145.029C45.6241 144.67 45.7872 144.358 45.9999 144.094C46.2126 143.83 46.4674 143.625 46.7644 143.478C47.0614 143.328 47.3951 143.252 47.7654 143.252C48.0807 143.252 48.3502 143.304 48.5739 143.406C48.7976 143.505 48.9974 143.639 49.1734 143.808V140.827H50.5319V149H49.7014ZM47.8919 148.004C48.1742 148.004 48.4144 147.946 48.6124 147.828C48.8104 147.711 48.9974 147.544 49.1734 147.328V144.798C49.0194 144.611 48.8507 144.479 48.6674 144.402C48.4877 144.325 48.2934 144.286 48.0844 144.286C47.8791 144.286 47.6921 144.325 47.5234 144.402C47.3584 144.479 47.2172 144.596 47.0999 144.754C46.9862 144.908 46.8982 145.106 46.8359 145.348C46.7736 145.586 46.7424 145.869 46.7424 146.195C46.7424 146.525 46.7681 146.805 46.8194 147.036C46.8744 147.264 46.9514 147.451 47.0504 147.597C47.1494 147.74 47.2704 147.845 47.4134 147.911C47.5564 147.973 47.7159 148.004 47.8919 148.004ZM55.3533 144.457C55.3167 144.516 55.2782 144.558 55.2378 144.583C55.1975 144.605 55.1462 144.616 55.0838 144.616C55.0178 144.616 54.9463 144.598 54.8693 144.561C54.796 144.525 54.7098 144.484 54.6108 144.44C54.5118 144.393 54.3982 144.351 54.2698 144.314C54.1452 144.277 53.9967 144.259 53.8243 144.259C53.5567 144.259 53.3458 144.316 53.1918 144.429C53.0378 144.543 52.9608 144.692 52.9608 144.875C52.9608 144.996 52.9993 145.099 53.0763 145.183C53.157 145.264 53.2615 145.335 53.3898 145.397C53.5218 145.46 53.6703 145.517 53.8353 145.568C54.0003 145.616 54.169 145.669 54.3413 145.727C54.5137 145.786 54.6823 145.854 54.8473 145.931C55.0123 146.004 55.159 146.1 55.2873 146.217C55.4193 146.331 55.5238 146.468 55.6008 146.629C55.6815 146.791 55.7218 146.985 55.7218 147.212C55.7218 147.484 55.6723 147.735 55.5733 147.966C55.4743 148.193 55.3295 148.391 55.1388 148.56C54.9482 148.725 54.7117 148.855 54.4293 148.95C54.1507 149.042 53.8298 149.088 53.4668 149.088C53.2725 149.088 53.0818 149.07 52.8948 149.033C52.7115 149 52.5337 148.952 52.3613 148.89C52.1927 148.828 52.035 148.754 51.8883 148.67C51.7453 148.586 51.6188 148.494 51.5088 148.395L51.8223 147.878C51.8627 147.816 51.9103 147.768 51.9653 147.735C52.0203 147.702 52.09 147.685 52.1743 147.685C52.2587 147.685 52.3375 147.709 52.4108 147.757C52.4878 147.805 52.5758 147.856 52.6748 147.911C52.7738 147.966 52.8893 148.017 53.0213 148.065C53.157 148.113 53.3275 148.136 53.5328 148.136C53.6942 148.136 53.8317 148.118 53.9453 148.081C54.0627 148.041 54.158 147.99 54.2313 147.927C54.3083 147.865 54.3633 147.794 54.3963 147.713C54.433 147.629 54.4513 147.542 54.4513 147.454C54.4513 147.322 54.411 147.214 54.3303 147.13C54.2533 147.046 54.1488 146.972 54.0168 146.91C53.8885 146.848 53.74 146.793 53.5713 146.745C53.4063 146.694 53.2358 146.639 53.0598 146.58C52.8875 146.521 52.717 146.453 52.5483 146.376C52.3833 146.296 52.2348 146.195 52.1028 146.074C51.9745 145.953 51.87 145.804 51.7893 145.628C51.7123 145.452 51.6738 145.24 51.6738 144.99C51.6738 144.759 51.7197 144.539 51.8113 144.33C51.903 144.121 52.0368 143.94 52.2128 143.786C52.3925 143.628 52.6143 143.504 52.8783 143.412C53.146 143.317 53.454 143.269 53.8023 143.269C54.191 143.269 54.5448 143.333 54.8638 143.461C55.1828 143.59 55.4487 143.758 55.6613 143.967L55.3533 144.457ZM62.6615 147.911C62.9952 147.911 63.2849 147.882 63.5305 147.823C63.7799 147.761 64.0164 147.676 64.24 147.57V146.123H63.2445C63.1492 146.123 63.074 146.098 63.019 146.046C62.964 145.991 62.9365 145.925 62.9365 145.848V145.012H65.582V148.23C65.3804 148.377 65.1695 148.505 64.9495 148.615C64.7332 148.721 64.5004 148.809 64.251 148.879C64.0054 148.949 63.7414 149 63.459 149.033C63.1767 149.07 62.8724 149.088 62.546 149.088C61.9667 149.088 61.4332 148.987 60.9455 148.785C60.4579 148.584 60.0362 148.303 59.6805 147.944C59.3249 147.585 59.0462 147.156 58.8445 146.657C58.6465 146.158 58.5475 145.614 58.5475 145.023C58.5475 144.426 58.6447 143.878 58.839 143.379C59.0334 142.88 59.3084 142.451 59.664 142.092C60.0234 141.733 60.4579 141.454 60.9675 141.256C61.4772 141.058 62.0492 140.959 62.6835 140.959C63.3325 140.959 63.8935 141.056 64.3665 141.25C64.8432 141.441 65.2465 141.69 65.5765 141.998L65.1475 142.669C65.0632 142.805 64.9514 142.873 64.812 142.873C64.724 142.873 64.6342 142.844 64.5425 142.785C64.4252 142.715 64.3042 142.646 64.1795 142.576C64.0585 142.506 63.9229 142.446 63.7725 142.394C63.6259 142.343 63.459 142.301 63.272 142.268C63.0887 142.235 62.876 142.218 62.634 142.218C62.2417 142.218 61.886 142.284 61.567 142.416C61.2517 142.548 60.9822 142.737 60.7585 142.983C60.5349 143.229 60.3625 143.524 60.2415 143.868C60.1205 144.213 60.06 144.598 60.06 145.023C60.06 145.482 60.1242 145.891 60.2525 146.25C60.3809 146.606 60.5605 146.906 60.7915 147.152C61.0225 147.398 61.2975 147.586 61.6165 147.718C61.9355 147.847 62.2839 147.911 62.6615 147.911ZM71.3038 149H70.6933C70.5649 149 70.4641 148.982 70.3908 148.945C70.3174 148.905 70.2624 148.826 70.2258 148.708L70.1048 148.307C69.9618 148.435 69.8206 148.549 69.6813 148.648C69.5456 148.743 69.4044 148.824 69.2578 148.89C69.1111 148.956 68.9553 149.006 68.7903 149.039C68.6253 149.072 68.4419 149.088 68.2403 149.088C68.0019 149.088 67.7819 149.057 67.5803 148.994C67.3786 148.928 67.2044 148.831 67.0578 148.703C66.9148 148.575 66.8029 148.415 66.7223 148.224C66.6416 148.034 66.6013 147.812 66.6013 147.559C66.6013 147.346 66.6563 147.137 66.7663 146.932C66.8799 146.723 67.0669 146.536 67.3273 146.371C67.5876 146.202 67.9341 146.063 68.3668 145.953C68.7994 145.843 69.3366 145.781 69.9783 145.766V145.436C69.9783 145.058 69.8976 144.78 69.7363 144.6C69.5786 144.417 69.3476 144.325 69.0433 144.325C68.8233 144.325 68.6399 144.351 68.4933 144.402C68.3466 144.453 68.2183 144.512 68.1083 144.578C68.0019 144.64 67.9029 144.697 67.8113 144.748C67.7196 144.8 67.6188 144.825 67.5088 144.825C67.4171 144.825 67.3383 144.802 67.2723 144.754C67.2063 144.706 67.1531 144.648 67.1128 144.578L66.8653 144.143C67.5143 143.549 68.2971 143.252 69.2138 143.252C69.5438 143.252 69.8371 143.307 70.0938 143.417C70.3541 143.524 70.5741 143.674 70.7538 143.868C70.9334 144.059 71.0691 144.288 71.1608 144.556C71.2561 144.824 71.3038 145.117 71.3038 145.436V149ZM68.6638 148.153C68.8031 148.153 68.9314 148.14 69.0488 148.114C69.1661 148.089 69.2761 148.05 69.3788 147.999C69.4851 147.948 69.5859 147.885 69.6813 147.812C69.7803 147.735 69.8793 147.645 69.9783 147.542V146.591C69.5823 146.609 69.2504 146.644 68.9828 146.695C68.7188 146.743 68.5061 146.805 68.3448 146.882C68.1834 146.959 68.0679 147.049 67.9983 147.152C67.9323 147.255 67.8993 147.366 67.8993 147.487C67.8993 147.726 67.9689 147.896 68.1083 147.999C68.2513 148.102 68.4364 148.153 68.6638 148.153ZM74.0861 143.357V149H72.7276V143.357H74.0861ZM74.2896 141.712C74.2896 141.83 74.2657 141.94 74.2181 142.042C74.1704 142.145 74.1062 142.235 74.0256 142.312C73.9486 142.389 73.8569 142.451 73.7506 142.499C73.6442 142.543 73.5306 142.565 73.4096 142.565C73.2922 142.565 73.1804 142.543 73.0741 142.499C72.9714 142.451 72.8816 142.389 72.8046 142.312C72.7276 142.235 72.6652 142.145 72.6176 142.042C72.5736 141.94 72.5516 141.83 72.5516 141.712C72.5516 141.591 72.5736 141.478 72.6176 141.371C72.6652 141.265 72.7276 141.173 72.8046 141.096C72.8816 141.019 72.9714 140.959 73.0741 140.915C73.1804 140.867 73.2922 140.843 73.4096 140.843C73.5306 140.843 73.6442 140.867 73.7506 140.915C73.8569 140.959 73.9486 141.019 74.0256 141.096C74.1062 141.173 74.1704 141.265 74.2181 141.371C74.2657 141.478 74.2896 141.591 74.2896 141.712ZM75.6259 149V143.357H76.4564C76.6324 143.357 76.7479 143.439 76.8029 143.604L76.8964 144.05C77.0101 143.933 77.1292 143.826 77.2539 143.731C77.3822 143.636 77.5161 143.553 77.6554 143.483C77.7984 143.414 77.9506 143.361 78.1119 143.324C78.2732 143.287 78.4492 143.269 78.6399 143.269C78.9479 143.269 79.2211 143.322 79.4594 143.428C79.6977 143.531 79.8957 143.678 80.0534 143.868C80.2147 144.055 80.3357 144.281 80.4164 144.545C80.5007 144.805 80.5429 145.093 80.5429 145.408V149H79.1844V145.408C79.1844 145.064 79.1037 144.798 78.9424 144.611C78.7847 144.42 78.5464 144.325 78.2274 144.325C77.9927 144.325 77.7727 144.378 77.5674 144.484C77.3621 144.591 77.1677 144.736 76.9844 144.919V149H75.6259ZM82.1199 149V144.38L81.6304 144.303C81.524 144.285 81.4379 144.248 81.3719 144.193C81.3095 144.138 81.2784 144.061 81.2784 143.962V143.406H82.1199V142.988C82.1199 142.666 82.1675 142.376 82.2629 142.119C82.3619 141.863 82.5012 141.645 82.6809 141.465C82.8642 141.285 83.086 141.148 83.3464 141.052C83.6067 140.957 83.9 140.909 84.2264 140.909C84.4867 140.909 84.7287 140.944 84.9524 141.014L84.9249 141.696C84.9175 141.802 84.868 141.868 84.7764 141.894C84.6847 141.92 84.5784 141.932 84.4574 141.932C84.296 141.932 84.1512 141.951 84.0229 141.987C83.8982 142.02 83.7919 142.081 83.7039 142.169C83.6159 142.253 83.548 142.367 83.5004 142.51C83.4564 142.649 83.4344 142.823 83.4344 143.032V143.406H84.9029V144.374H83.4784V149H82.1199ZM86.9773 143.357V146.943C86.9773 147.288 87.0561 147.555 87.2138 147.746C87.3751 147.933 87.6153 148.026 87.9343 148.026C88.169 148.026 88.389 147.975 88.5943 147.872C88.7996 147.766 88.994 147.621 89.1773 147.438V143.357H90.5358V149H89.7053C89.5293 149 89.4138 148.917 89.3588 148.752L89.2653 148.301C89.148 148.419 89.027 148.527 88.9023 148.626C88.7776 148.721 88.6438 148.804 88.5008 148.873C88.3615 148.939 88.2093 148.991 88.0443 149.028C87.883 149.068 87.7088 149.088 87.5218 149.088C87.2138 149.088 86.9406 149.037 86.7023 148.934C86.4676 148.828 86.2696 148.679 86.1083 148.488C85.947 148.298 85.8241 148.072 85.7398 147.812C85.6591 147.548 85.6188 147.258 85.6188 146.943V143.357H86.9773ZM93.4328 140.827V149H92.0743V140.827H93.4328ZM102.193 141.047V142.224H98.667V144.429H101.445V145.568H98.667V147.817H102.193V149H97.1765V141.047H102.193ZM103.394 149V143.357H104.225C104.401 143.357 104.516 143.439 104.571 143.604L104.659 144.022C104.758 143.912 104.861 143.812 104.967 143.72C105.077 143.628 105.193 143.549 105.314 143.483C105.439 143.417 105.571 143.366 105.71 143.329C105.853 143.289 106.009 143.269 106.177 143.269C106.533 143.269 106.825 143.366 107.052 143.56C107.283 143.751 107.455 144.006 107.569 144.325C107.657 144.138 107.767 143.978 107.899 143.846C108.031 143.711 108.176 143.601 108.333 143.516C108.491 143.432 108.658 143.37 108.834 143.329C109.014 143.289 109.193 143.269 109.373 143.269C109.685 143.269 109.961 143.317 110.203 143.412C110.445 143.507 110.649 143.647 110.814 143.83C110.979 144.013 111.104 144.237 111.188 144.501C111.276 144.765 111.32 145.067 111.32 145.408V149H109.961V145.408C109.961 145.049 109.883 144.78 109.725 144.6C109.567 144.417 109.336 144.325 109.032 144.325C108.893 144.325 108.762 144.349 108.641 144.396C108.524 144.444 108.42 144.514 108.328 144.605C108.24 144.693 108.17 144.805 108.119 144.941C108.068 145.077 108.042 145.232 108.042 145.408V149H106.678V145.408C106.678 145.031 106.601 144.756 106.447 144.583C106.297 144.411 106.073 144.325 105.776 144.325C105.582 144.325 105.398 144.374 105.226 144.473C105.057 144.569 104.9 144.701 104.753 144.869V149H103.394ZM112.654 150.843V143.357H113.485C113.573 143.357 113.648 143.377 113.71 143.417C113.773 143.458 113.813 143.52 113.831 143.604L113.941 144.127C114.169 143.867 114.429 143.656 114.722 143.494C115.019 143.333 115.366 143.252 115.762 143.252C116.07 143.252 116.35 143.317 116.603 143.445C116.86 143.573 117.08 143.76 117.263 144.006C117.45 144.248 117.593 144.549 117.692 144.908C117.795 145.264 117.846 145.672 117.846 146.134C117.846 146.556 117.789 146.947 117.676 147.306C117.562 147.665 117.399 147.977 117.186 148.241C116.977 148.505 116.722 148.712 116.422 148.862C116.125 149.009 115.791 149.083 115.421 149.083C115.102 149.083 114.83 149.035 114.607 148.939C114.387 148.84 114.189 148.705 114.013 148.532V150.843H112.654ZM115.294 144.325C115.012 144.325 114.77 144.385 114.568 144.506C114.37 144.624 114.185 144.791 114.013 145.007V147.537C114.167 147.728 114.334 147.861 114.513 147.938C114.697 148.012 114.893 148.048 115.102 148.048C115.307 148.048 115.492 148.01 115.657 147.933C115.826 147.856 115.967 147.739 116.081 147.581C116.198 147.423 116.288 147.225 116.35 146.987C116.413 146.745 116.444 146.461 116.444 146.134C116.444 145.804 116.416 145.526 116.361 145.298C116.31 145.067 116.235 144.88 116.136 144.737C116.037 144.594 115.916 144.49 115.773 144.424C115.633 144.358 115.474 144.325 115.294 144.325ZM120.32 140.827V149H118.962V140.827H120.32ZM124.269 143.269C124.691 143.269 125.072 143.337 125.413 143.473C125.758 143.608 126.051 143.801 126.293 144.05C126.535 144.299 126.722 144.604 126.854 144.963C126.986 145.322 127.052 145.724 127.052 146.167C127.052 146.615 126.986 147.018 126.854 147.377C126.722 147.737 126.535 148.043 126.293 148.296C126.051 148.549 125.758 148.743 125.413 148.879C125.072 149.015 124.691 149.083 124.269 149.083C123.848 149.083 123.464 149.015 123.12 148.879C122.775 148.743 122.48 148.549 122.234 148.296C121.992 148.043 121.803 147.737 121.668 147.377C121.536 147.018 121.47 146.615 121.47 146.167C121.47 145.724 121.536 145.322 121.668 144.963C121.803 144.604 121.992 144.299 122.234 144.05C122.48 143.801 122.775 143.608 123.12 143.473C123.464 143.337 123.848 143.269 124.269 143.269ZM124.269 148.037C124.739 148.037 125.085 147.88 125.309 147.564C125.536 147.249 125.65 146.787 125.65 146.178C125.65 145.57 125.536 145.106 125.309 144.787C125.085 144.468 124.739 144.308 124.269 144.308C123.793 144.308 123.441 144.47 123.213 144.792C122.986 145.111 122.872 145.573 122.872 146.178C122.872 146.783 122.986 147.245 123.213 147.564C123.441 147.88 123.793 148.037 124.269 148.037ZM129.932 150.551C129.891 150.646 129.838 150.718 129.772 150.766C129.71 150.817 129.613 150.843 129.481 150.843H128.469L129.525 148.582L127.242 143.357H128.43C128.54 143.357 128.624 143.383 128.683 143.434C128.742 143.485 128.786 143.544 128.815 143.61L130.02 146.536C130.06 146.631 130.095 146.73 130.124 146.833C130.153 146.936 130.179 147.038 130.201 147.141C130.23 147.035 130.262 146.932 130.295 146.833C130.331 146.734 130.37 146.633 130.41 146.53L131.543 143.61C131.572 143.537 131.62 143.476 131.686 143.428C131.756 143.381 131.833 143.357 131.917 143.357H133.006L129.932 150.551ZM133.795 149V143.357H134.625C134.801 143.357 134.917 143.439 134.972 143.604L135.06 144.022C135.159 143.912 135.262 143.812 135.368 143.72C135.478 143.628 135.593 143.549 135.714 143.483C135.839 143.417 135.971 143.366 136.11 143.329C136.253 143.289 136.409 143.269 136.578 143.269C136.934 143.269 137.225 143.366 137.452 143.56C137.683 143.751 137.856 144.006 137.969 144.325C138.057 144.138 138.167 143.978 138.299 143.846C138.431 143.711 138.576 143.601 138.734 143.516C138.892 143.432 139.058 143.37 139.234 143.329C139.414 143.289 139.594 143.269 139.773 143.269C140.085 143.269 140.362 143.317 140.604 143.412C140.846 143.507 141.049 143.647 141.214 143.83C141.379 144.013 141.504 144.237 141.588 144.501C141.676 144.765 141.72 145.067 141.72 145.408V149H140.362V145.408C140.362 145.049 140.283 144.78 140.125 144.6C139.968 144.417 139.737 144.325 139.432 144.325C139.293 144.325 139.163 144.349 139.042 144.396C138.925 144.444 138.82 144.514 138.728 144.605C138.64 144.693 138.571 144.805 138.519 144.941C138.468 145.077 138.442 145.232 138.442 145.408V149H137.078V145.408C137.078 145.031 137.001 144.756 136.847 144.583C136.697 144.411 136.473 144.325 136.176 144.325C135.982 144.325 135.799 144.374 135.626 144.473C135.458 144.569 135.3 144.701 135.153 144.869V149H133.795ZM145.387 143.269C145.742 143.269 146.069 143.326 146.366 143.439C146.666 143.553 146.925 143.72 147.141 143.94C147.357 144.156 147.526 144.424 147.647 144.743C147.768 145.058 147.829 145.419 147.829 145.826C147.829 145.929 147.823 146.015 147.812 146.085C147.805 146.151 147.788 146.204 147.763 146.244C147.741 146.281 147.709 146.309 147.669 146.327C147.629 146.342 147.577 146.349 147.515 146.349H144.028C144.068 146.928 144.224 147.354 144.496 147.625C144.767 147.896 145.126 148.032 145.574 148.032C145.794 148.032 145.982 148.006 146.14 147.955C146.301 147.904 146.441 147.847 146.558 147.784C146.679 147.722 146.784 147.665 146.872 147.614C146.963 147.563 147.051 147.537 147.136 147.537C147.191 147.537 147.238 147.548 147.279 147.57C147.319 147.592 147.354 147.623 147.383 147.663L147.779 148.158C147.629 148.334 147.46 148.483 147.273 148.604C147.086 148.721 146.89 148.817 146.685 148.89C146.483 148.96 146.276 149.009 146.063 149.039C145.854 149.068 145.651 149.083 145.453 149.083C145.06 149.083 144.695 149.018 144.358 148.89C144.021 148.758 143.727 148.565 143.478 148.312C143.229 148.056 143.033 147.74 142.89 147.366C142.747 146.989 142.675 146.552 142.675 146.057C142.675 145.672 142.737 145.311 142.862 144.974C142.987 144.633 143.165 144.338 143.396 144.088C143.63 143.835 143.914 143.636 144.248 143.489C144.585 143.342 144.965 143.269 145.387 143.269ZM145.414 144.242C145.018 144.242 144.708 144.354 144.485 144.578C144.261 144.802 144.118 145.119 144.056 145.529H146.608C146.608 145.353 146.584 145.188 146.536 145.034C146.488 144.877 146.415 144.739 146.316 144.622C146.217 144.505 146.092 144.413 145.942 144.347C145.792 144.277 145.616 144.242 145.414 144.242ZM148.931 149V143.357H149.761C149.937 143.357 150.053 143.439 150.108 143.604L150.201 144.05C150.315 143.933 150.434 143.826 150.559 143.731C150.687 143.636 150.821 143.553 150.96 143.483C151.103 143.414 151.255 143.361 151.417 143.324C151.578 143.287 151.754 143.269 151.945 143.269C152.253 143.269 152.526 143.322 152.764 143.428C153.002 143.531 153.2 143.678 153.358 143.868C153.519 144.055 153.64 144.281 153.721 144.545C153.805 144.805 153.848 145.093 153.848 145.408V149H152.489V145.408C152.489 145.064 152.408 144.798 152.247 144.611C152.089 144.42 151.851 144.325 151.532 144.325C151.297 144.325 151.077 144.378 150.872 144.484C150.667 144.591 150.472 144.736 150.289 144.919V149H148.931ZM157.036 149.088C156.548 149.088 156.173 148.95 155.909 148.675C155.645 148.397 155.513 148.014 155.513 147.526V144.374H154.941C154.867 144.374 154.803 144.351 154.748 144.303C154.697 144.255 154.671 144.184 154.671 144.088V143.549L155.579 143.401L155.865 141.861C155.879 141.788 155.912 141.731 155.964 141.69C156.019 141.65 156.086 141.63 156.167 141.63H156.871V143.406H158.356V144.374H156.871V147.432C156.871 147.608 156.915 147.746 157.003 147.845C157.091 147.944 157.208 147.993 157.355 147.993C157.439 147.993 157.509 147.984 157.564 147.966C157.623 147.944 157.672 147.922 157.713 147.9C157.757 147.878 157.795 147.858 157.828 147.839C157.861 147.817 157.894 147.806 157.927 147.806C157.967 147.806 158 147.817 158.026 147.839C158.052 147.858 158.079 147.887 158.109 147.927L158.516 148.587C158.318 148.752 158.09 148.877 157.834 148.961C157.577 149.046 157.311 149.088 157.036 149.088ZM159.332 148.252C159.332 148.138 159.352 148.03 159.392 147.927C159.436 147.825 159.495 147.737 159.568 147.663C159.645 147.59 159.735 147.531 159.838 147.487C159.941 147.443 160.051 147.421 160.168 147.421C160.282 147.421 160.39 147.443 160.492 147.487C160.595 147.531 160.683 147.59 160.756 147.663C160.83 147.737 160.888 147.825 160.932 147.927C160.976 148.03 160.998 148.138 160.998 148.252C160.998 148.369 160.976 148.479 160.932 148.582C160.888 148.681 160.83 148.767 160.756 148.84C160.683 148.914 160.595 148.971 160.492 149.011C160.39 149.055 160.282 149.077 160.168 149.077C160.051 149.077 159.941 149.055 159.838 149.011C159.735 148.971 159.645 148.914 159.568 148.84C159.495 148.767 159.436 148.681 159.392 148.582C159.352 148.479 159.332 148.369 159.332 148.252ZM159.332 144.33C159.332 144.217 159.352 144.109 159.392 144.006C159.436 143.903 159.495 143.815 159.568 143.742C159.645 143.669 159.735 143.61 159.838 143.566C159.941 143.522 160.051 143.5 160.168 143.5C160.282 143.5 160.39 143.522 160.492 143.566C160.595 143.61 160.683 143.669 160.756 143.742C160.83 143.815 160.888 143.903 160.932 144.006C160.976 144.109 160.998 144.217 160.998 144.33C160.998 144.448 160.976 144.558 160.932 144.66C160.888 144.759 160.83 144.846 160.756 144.919C160.683 144.992 160.595 145.051 160.492 145.095C160.39 145.135 160.282 145.155 160.168 145.155C160.051 145.155 159.941 145.135 159.838 145.095C159.735 145.051 159.645 144.992 159.568 144.919C159.495 144.846 159.436 144.759 159.392 144.66C159.352 144.558 159.332 144.448 159.332 144.33ZM47.0559 156.047V157.262H44.6634V164H43.1839V157.262H40.7804V156.047H47.0559ZM47.9164 164V155.827H49.2749V158.967C49.4949 158.758 49.7369 158.59 50.0009 158.461C50.2649 158.333 50.5748 158.269 50.9304 158.269C51.2384 158.269 51.5116 158.322 51.7499 158.428C51.9883 158.531 52.1863 158.678 52.3439 158.868C52.5053 159.055 52.6263 159.281 52.7069 159.545C52.7913 159.805 52.8334 160.093 52.8334 160.408V164H51.4749V160.408C51.4749 160.064 51.3943 159.798 51.2329 159.611C51.0753 159.42 50.8369 159.325 50.5179 159.325C50.2833 159.325 50.0633 159.378 49.8579 159.484C49.6526 159.591 49.4583 159.736 49.2749 159.919V164H47.9164ZM56.5004 158.269C56.856 158.269 57.1824 158.326 57.4794 158.439C57.78 158.553 58.0385 158.72 58.2549 158.94C58.4712 159.156 58.6399 159.424 58.7609 159.743C58.8819 160.058 58.9424 160.419 58.9424 160.826C58.9424 160.929 58.9369 161.015 58.9259 161.085C58.9185 161.151 58.902 161.204 58.8764 161.244C58.8544 161.281 58.8232 161.309 58.7829 161.327C58.7425 161.342 58.6912 161.349 58.6289 161.349H55.1419C55.1822 161.928 55.338 162.354 55.6094 162.625C55.8807 162.896 56.24 163.032 56.6874 163.032C56.9074 163.032 57.0962 163.006 57.2539 162.955C57.4152 162.904 57.5545 162.847 57.6719 162.784C57.7929 162.722 57.8974 162.665 57.9854 162.614C58.077 162.563 58.165 162.537 58.2494 162.537C58.3044 162.537 58.352 162.548 58.3924 162.57C58.4327 162.592 58.4675 162.623 58.4969 162.663L58.8929 163.158C58.7425 163.334 58.5739 163.483 58.3869 163.604C58.1999 163.721 58.0037 163.817 57.7984 163.89C57.5967 163.96 57.3895 164.009 57.1769 164.039C56.9679 164.068 56.7644 164.083 56.5664 164.083C56.174 164.083 55.8092 164.018 55.4719 163.89C55.1345 163.758 54.8412 163.565 54.5919 163.312C54.3425 163.056 54.1464 162.74 54.0034 162.366C53.8604 161.989 53.7889 161.552 53.7889 161.057C53.7889 160.672 53.8512 160.311 53.9759 159.974C54.1005 159.633 54.2784 159.338 54.5094 159.088C54.744 158.835 55.0282 158.636 55.3619 158.489C55.6992 158.342 56.0787 158.269 56.5004 158.269ZM56.5279 159.242C56.1319 159.242 55.822 159.354 55.5984 159.578C55.3747 159.802 55.2317 160.119 55.1694 160.529H57.7214C57.7214 160.353 57.6975 160.188 57.6499 160.034C57.6022 159.877 57.5289 159.739 57.4299 159.622C57.3309 159.505 57.2062 159.413 57.0559 159.347C56.9055 159.277 56.7295 159.242 56.5279 159.242ZM67.2643 156.047V157.224H63.7388V159.578H66.7143V160.76H63.7388V164H62.2483V156.047H67.2643ZM72.7701 164H72.1596C72.0312 164 71.9304 163.982 71.8571 163.945C71.7837 163.905 71.7287 163.826 71.6921 163.708L71.5711 163.307C71.4281 163.435 71.2869 163.549 71.1476 163.648C71.0119 163.743 70.8707 163.824 70.7241 163.89C70.5774 163.956 70.4216 164.006 70.2566 164.039C70.0916 164.072 69.9082 164.088 69.7066 164.088C69.4682 164.088 69.2482 164.057 69.0466 163.994C68.8449 163.928 68.6707 163.831 68.5241 163.703C68.3811 163.575 68.2692 163.415 68.1886 163.224C68.1079 163.034 68.0676 162.812 68.0676 162.559C68.0676 162.346 68.1226 162.137 68.2326 161.932C68.3462 161.723 68.5332 161.536 68.7936 161.371C69.0539 161.202 69.4004 161.063 69.8331 160.953C70.2657 160.843 70.8029 160.781 71.4446 160.766V160.436C71.4446 160.058 71.3639 159.78 71.2026 159.6C71.0449 159.417 70.8139 159.325 70.5096 159.325C70.2896 159.325 70.1062 159.351 69.9596 159.402C69.8129 159.453 69.6846 159.512 69.5746 159.578C69.4682 159.64 69.3692 159.697 69.2776 159.748C69.1859 159.8 69.0851 159.825 68.9751 159.825C68.8834 159.825 68.8046 159.802 68.7386 159.754C68.6726 159.706 68.6194 159.648 68.5791 159.578L68.3316 159.143C68.9806 158.549 69.7634 158.252 70.6801 158.252C71.0101 158.252 71.3034 158.307 71.5601 158.417C71.8204 158.524 72.0404 158.674 72.2201 158.868C72.3997 159.059 72.5354 159.288 72.6271 159.556C72.7224 159.824 72.7701 160.117 72.7701 160.436V164ZM70.1301 163.153C70.2694 163.153 70.3977 163.14 70.5151 163.114C70.6324 163.089 70.7424 163.05 70.8451 162.999C70.9514 162.948 71.0522 162.885 71.1476 162.812C71.2466 162.735 71.3456 162.645 71.4446 162.542V161.591C71.0486 161.609 70.7167 161.644 70.4491 161.695C70.1851 161.743 69.9724 161.805 69.8111 161.882C69.6497 161.959 69.5342 162.049 69.4646 162.152C69.3986 162.255 69.3656 162.366 69.3656 162.487C69.3656 162.726 69.4352 162.896 69.5746 162.999C69.7176 163.102 69.9027 163.153 70.1301 163.153ZM78.0714 159.55C78.031 159.602 77.9907 159.642 77.9504 159.671C77.9137 159.701 77.8587 159.715 77.7854 159.715C77.7157 159.715 77.6479 159.695 77.5819 159.655C77.5159 159.611 77.437 159.563 77.3454 159.512C77.2537 159.457 77.1437 159.409 77.0154 159.369C76.8907 159.325 76.7349 159.303 76.5479 159.303C76.3095 159.303 76.1005 159.347 75.9209 159.435C75.7412 159.519 75.5909 159.642 75.4699 159.803C75.3525 159.965 75.2645 160.161 75.2059 160.392C75.1472 160.619 75.1179 160.878 75.1179 161.167C75.1179 161.468 75.149 161.736 75.2114 161.97C75.2774 162.205 75.3709 162.403 75.4919 162.564C75.6129 162.722 75.7595 162.843 75.9319 162.927C76.1042 163.008 76.2985 163.048 76.5149 163.048C76.7312 163.048 76.9054 163.023 77.0374 162.971C77.173 162.916 77.2867 162.858 77.3784 162.795C77.47 162.729 77.5489 162.671 77.6149 162.619C77.6845 162.564 77.7615 162.537 77.8459 162.537C77.9559 162.537 78.0384 162.579 78.0934 162.663L78.4839 163.158C78.3335 163.334 78.1704 163.483 77.9944 163.604C77.8184 163.721 77.635 163.817 77.4444 163.89C77.2574 163.96 77.063 164.009 76.8614 164.039C76.6597 164.068 76.4599 164.083 76.2619 164.083C75.9135 164.083 75.5854 164.018 75.2774 163.89C74.9694 163.758 74.6999 163.567 74.4689 163.318C74.2415 163.069 74.06 162.764 73.9244 162.405C73.7924 162.042 73.7264 161.629 73.7264 161.167C73.7264 160.753 73.785 160.37 73.9024 160.018C74.0234 159.662 74.1994 159.356 74.4304 159.099C74.6614 158.839 74.9474 158.636 75.2884 158.489C75.6294 158.342 76.0217 158.269 76.4654 158.269C76.887 158.269 77.2555 158.337 77.5709 158.473C77.8899 158.608 78.1759 158.802 78.4289 159.055L78.0714 159.55ZM81.2016 164.088C80.7139 164.088 80.3381 163.95 80.0741 163.675C79.8101 163.397 79.6781 163.014 79.6781 162.526V159.374H79.1061C79.0327 159.374 78.9686 159.351 78.9136 159.303C78.8622 159.255 78.8366 159.184 78.8366 159.088V158.549L79.7441 158.401L80.0301 156.861C80.0447 156.788 80.0777 156.731 80.1291 156.69C80.1841 156.65 80.2519 156.63 80.3326 156.63H81.0366V158.406H82.5216V159.374H81.0366V162.432C81.0366 162.608 81.0806 162.746 81.1686 162.845C81.2566 162.944 81.3739 162.993 81.5206 162.993C81.6049 162.993 81.6746 162.984 81.7296 162.966C81.7882 162.944 81.8377 162.922 81.8781 162.9C81.9221 162.878 81.9606 162.858 81.9936 162.839C82.0266 162.817 82.0596 162.806 82.0926 162.806C82.1329 162.806 82.1659 162.817 82.1916 162.839C82.2172 162.858 82.2447 162.887 82.2741 162.927L82.6811 163.587C82.4831 163.752 82.2557 163.877 81.9991 163.961C81.7424 164.046 81.4766 164.088 81.2016 164.088ZM86.011 158.269C86.4326 158.269 86.814 158.337 87.155 158.473C87.4996 158.608 87.793 158.801 88.035 159.05C88.277 159.299 88.464 159.604 88.596 159.963C88.728 160.322 88.794 160.724 88.794 161.167C88.794 161.615 88.728 162.018 88.596 162.377C88.464 162.737 88.277 163.043 88.035 163.296C87.793 163.549 87.4996 163.743 87.155 163.879C86.814 164.015 86.4326 164.083 86.011 164.083C85.5893 164.083 85.2061 164.015 84.8615 163.879C84.5168 163.743 84.2216 163.549 83.976 163.296C83.734 163.043 83.5451 162.737 83.4095 162.377C83.2775 162.018 83.2115 161.615 83.2115 161.167C83.2115 160.724 83.2775 160.322 83.4095 159.963C83.5451 159.604 83.734 159.299 83.976 159.05C84.2216 158.801 84.5168 158.608 84.8615 158.473C85.2061 158.337 85.5893 158.269 86.011 158.269ZM86.011 163.037C86.4803 163.037 86.8268 162.88 87.0505 162.564C87.2778 162.249 87.3915 161.787 87.3915 161.178C87.3915 160.57 87.2778 160.106 87.0505 159.787C86.8268 159.468 86.4803 159.308 86.011 159.308C85.5343 159.308 85.1823 159.47 84.955 159.792C84.7276 160.111 84.614 160.573 84.614 161.178C84.614 161.783 84.7276 162.245 84.955 162.564C85.1823 162.88 85.5343 163.037 86.011 163.037ZM89.8539 164V158.357H90.6514C90.7908 158.357 90.8879 158.383 90.9429 158.434C90.9979 158.485 91.0346 158.573 91.0529 158.698L91.1354 159.38C91.3371 159.032 91.5736 158.757 91.8449 158.555C92.1163 158.353 92.4206 158.252 92.7579 158.252C93.0366 158.252 93.2676 158.317 93.4509 158.445L93.2749 159.462C93.2639 159.528 93.2401 159.576 93.2034 159.605C93.1668 159.631 93.1173 159.644 93.0549 159.644C92.9999 159.644 92.9248 159.631 92.8294 159.605C92.7341 159.58 92.6076 159.567 92.4499 159.567C92.1676 159.567 91.9256 159.646 91.7239 159.803C91.5223 159.957 91.3518 160.185 91.2124 160.485V164H89.8539ZM97.6937 159.457C97.657 159.516 97.6185 159.558 97.5782 159.583C97.5378 159.605 97.4865 159.616 97.4242 159.616C97.3582 159.616 97.2867 159.598 97.2097 159.561C97.1363 159.525 97.0502 159.484 96.9512 159.44C96.8522 159.393 96.7385 159.351 96.6102 159.314C96.4855 159.277 96.337 159.259 96.1647 159.259C95.897 159.259 95.6862 159.316 95.5322 159.429C95.3782 159.543 95.3012 159.692 95.3012 159.875C95.3012 159.996 95.3397 160.099 95.4167 160.183C95.4973 160.264 95.6018 160.335 95.7302 160.397C95.8622 160.46 96.0107 160.517 96.1757 160.568C96.3407 160.616 96.5093 160.669 96.6817 160.727C96.854 160.786 97.0227 160.854 97.1877 160.931C97.3527 161.004 97.4993 161.1 97.6277 161.217C97.7597 161.331 97.8642 161.468 97.9412 161.629C98.0218 161.791 98.0622 161.985 98.0622 162.212C98.0622 162.484 98.0127 162.735 97.9137 162.966C97.8147 163.193 97.6698 163.391 97.4792 163.56C97.2885 163.725 97.052 163.855 96.7697 163.95C96.491 164.042 96.1702 164.088 95.8072 164.088C95.6128 164.088 95.4222 164.07 95.2352 164.033C95.0518 164 94.874 163.952 94.7017 163.89C94.533 163.828 94.3753 163.754 94.2287 163.67C94.0857 163.586 93.9592 163.494 93.8492 163.395L94.1627 162.878C94.203 162.816 94.2507 162.768 94.3057 162.735C94.3607 162.702 94.4303 162.685 94.5147 162.685C94.599 162.685 94.6778 162.709 94.7512 162.757C94.8282 162.805 94.9162 162.856 95.0152 162.911C95.1142 162.966 95.2297 163.017 95.3617 163.065C95.4973 163.113 95.6678 163.136 95.8732 163.136C96.0345 163.136 96.172 163.118 96.2857 163.081C96.403 163.041 96.4983 162.99 96.5717 162.927C96.6487 162.865 96.7037 162.794 96.7367 162.713C96.7733 162.629 96.7917 162.542 96.7917 162.454C96.7917 162.322 96.7513 162.214 96.6707 162.13C96.5937 162.046 96.4892 161.972 96.3572 161.91C96.2288 161.848 96.0803 161.793 95.9117 161.745C95.7467 161.694 95.5762 161.639 95.4002 161.58C95.2278 161.521 95.0573 161.453 94.8887 161.376C94.7237 161.296 94.5752 161.195 94.4432 161.074C94.3148 160.953 94.2103 160.804 94.1297 160.628C94.0527 160.452 94.0142 160.24 94.0142 159.99C94.0142 159.759 94.06 159.539 94.1517 159.33C94.2433 159.121 94.3772 158.94 94.5532 158.786C94.7328 158.628 94.9547 158.504 95.2187 158.412C95.4863 158.317 95.7943 158.269 96.1427 158.269C96.5313 158.269 96.8852 158.333 97.2042 158.461C97.5232 158.59 97.789 158.758 98.0017 158.967L97.6937 159.457ZM101.35 164V156.047H104.094C104.615 156.047 105.059 156.096 105.425 156.195C105.796 156.294 106.098 156.436 106.333 156.619C106.571 156.802 106.745 157.024 106.855 157.284C106.965 157.545 107.02 157.838 107.02 158.164C107.02 158.351 106.993 158.531 106.938 158.703C106.883 158.872 106.797 159.032 106.679 159.182C106.566 159.329 106.419 159.462 106.239 159.583C106.063 159.704 105.853 159.807 105.607 159.891C106.7 160.137 107.246 160.727 107.246 161.662C107.246 162 107.182 162.311 107.053 162.597C106.925 162.883 106.738 163.131 106.492 163.34C106.247 163.545 105.944 163.707 105.585 163.824C105.226 163.941 104.815 164 104.353 164H101.35ZM102.829 160.513V162.845H104.331C104.606 162.845 104.835 162.812 105.018 162.746C105.205 162.68 105.354 162.592 105.464 162.482C105.578 162.372 105.658 162.244 105.706 162.097C105.757 161.95 105.783 161.794 105.783 161.629C105.783 161.457 105.755 161.303 105.7 161.167C105.645 161.028 105.559 160.911 105.442 160.815C105.325 160.716 105.174 160.641 104.991 160.59C104.808 160.539 104.586 160.513 104.325 160.513H102.829ZM102.829 159.49H104.012C104.514 159.49 104.896 159.398 105.156 159.215C105.416 159.032 105.546 158.74 105.546 158.34C105.546 157.926 105.429 157.631 105.194 157.455C104.96 157.279 104.593 157.191 104.094 157.191H102.829V159.49ZM110.77 158.269C111.126 158.269 111.452 158.326 111.749 158.439C112.05 158.553 112.308 158.72 112.524 158.94C112.741 159.156 112.909 159.424 113.03 159.743C113.151 160.058 113.212 160.419 113.212 160.826C113.212 160.929 113.206 161.015 113.195 161.085C113.188 161.151 113.172 161.204 113.146 161.244C113.124 161.281 113.093 161.309 113.052 161.327C113.012 161.342 112.961 161.349 112.898 161.349H109.411C109.452 161.928 109.608 162.354 109.879 162.625C110.15 162.896 110.51 163.032 110.957 163.032C111.177 163.032 111.366 163.006 111.523 162.955C111.685 162.904 111.824 162.847 111.941 162.784C112.062 162.722 112.167 162.665 112.255 162.614C112.347 162.563 112.435 162.537 112.519 162.537C112.574 162.537 112.622 162.548 112.662 162.57C112.702 162.592 112.737 162.623 112.766 162.663L113.162 163.158C113.012 163.334 112.843 163.483 112.656 163.604C112.469 163.721 112.273 163.817 112.068 163.89C111.866 163.96 111.659 164.009 111.446 164.039C111.237 164.068 111.034 164.083 110.836 164.083C110.444 164.083 110.079 164.018 109.741 163.89C109.404 163.758 109.111 163.565 108.861 163.312C108.612 163.056 108.416 162.74 108.273 162.366C108.13 161.989 108.058 161.552 108.058 161.057C108.058 160.672 108.121 160.311 108.245 159.974C108.37 159.633 108.548 159.338 108.779 159.088C109.014 158.835 109.298 158.636 109.631 158.489C109.969 158.342 110.348 158.269 110.77 158.269ZM110.797 159.242C110.401 159.242 110.092 159.354 109.868 159.578C109.644 159.802 109.501 160.119 109.439 160.529H111.991C111.991 160.353 111.967 160.188 111.919 160.034C111.872 159.877 111.798 159.739 111.699 159.622C111.6 159.505 111.476 159.413 111.325 159.347C111.175 159.277 110.999 159.242 110.797 159.242ZM114.314 164V155.827H115.672V158.967C115.892 158.758 116.134 158.59 116.398 158.461C116.662 158.333 116.972 158.269 117.328 158.269C117.636 158.269 117.909 158.322 118.147 158.428C118.386 158.531 118.584 158.678 118.741 158.868C118.903 159.055 119.024 159.281 119.104 159.545C119.189 159.805 119.231 160.093 119.231 160.408V164H117.872V160.408C117.872 160.064 117.792 159.798 117.63 159.611C117.473 159.42 117.234 159.325 116.915 159.325C116.681 159.325 116.461 159.378 116.255 159.484C116.05 159.591 115.856 159.736 115.672 159.919V164H114.314ZM122.012 158.357V164H120.654V158.357H122.012ZM122.216 156.712C122.216 156.83 122.192 156.94 122.144 157.042C122.097 157.145 122.033 157.235 121.952 157.312C121.875 157.389 121.783 157.451 121.677 157.499C121.571 157.543 121.457 157.565 121.336 157.565C121.219 157.565 121.107 157.543 121 157.499C120.898 157.451 120.808 157.389 120.731 157.312C120.654 157.235 120.592 157.145 120.544 157.042C120.5 156.94 120.478 156.83 120.478 156.712C120.478 156.591 120.5 156.478 120.544 156.371C120.592 156.265 120.654 156.173 120.731 156.096C120.808 156.019 120.898 155.959 121 155.915C121.107 155.867 121.219 155.843 121.336 155.843C121.457 155.843 121.571 155.867 121.677 155.915C121.783 155.959 121.875 156.019 121.952 156.096C122.033 156.173 122.097 156.265 122.144 156.371C122.192 156.478 122.216 156.591 122.216 156.712ZM123.552 164V158.357H124.383C124.559 158.357 124.674 158.439 124.729 158.604L124.823 159.05C124.936 158.933 125.056 158.826 125.18 158.731C125.309 158.636 125.442 158.553 125.582 158.483C125.725 158.414 125.877 158.361 126.038 158.324C126.2 158.287 126.376 158.269 126.566 158.269C126.874 158.269 127.147 158.322 127.386 158.428C127.624 158.531 127.822 158.678 127.98 158.868C128.141 159.055 128.262 159.281 128.343 159.545C128.427 159.805 128.469 160.093 128.469 160.408V164H127.111V160.408C127.111 160.064 127.03 159.798 126.869 159.611C126.711 159.42 126.473 159.325 126.154 159.325C125.919 159.325 125.699 159.378 125.494 159.484C125.288 159.591 125.094 159.736 124.911 159.919V164H123.552ZM133.775 164C133.599 164 133.484 163.917 133.429 163.752L133.319 163.208C133.201 163.34 133.078 163.459 132.95 163.565C132.822 163.672 132.682 163.763 132.532 163.84C132.385 163.917 132.226 163.976 132.054 164.017C131.885 164.061 131.702 164.083 131.504 164.083C131.196 164.083 130.913 164.018 130.657 163.89C130.4 163.762 130.178 163.576 129.991 163.334C129.808 163.089 129.665 162.786 129.562 162.427C129.463 162.068 129.414 161.657 129.414 161.195C129.414 160.777 129.47 160.388 129.584 160.029C129.698 159.67 129.861 159.358 130.074 159.094C130.286 158.83 130.541 158.625 130.838 158.478C131.135 158.328 131.469 158.252 131.839 158.252C132.154 158.252 132.424 158.304 132.648 158.406C132.871 158.505 133.071 158.639 133.247 158.808V155.827H134.606V164H133.775ZM131.966 163.004C132.248 163.004 132.488 162.946 132.686 162.828C132.884 162.711 133.071 162.544 133.247 162.328V159.798C133.093 159.611 132.924 159.479 132.741 159.402C132.561 159.325 132.367 159.286 132.158 159.286C131.953 159.286 131.766 159.325 131.597 159.402C131.432 159.479 131.291 159.596 131.174 159.754C131.06 159.908 130.972 160.106 130.91 160.348C130.847 160.586 130.816 160.869 130.816 161.195C130.816 161.525 130.842 161.805 130.893 162.036C130.948 162.264 131.025 162.451 131.124 162.597C131.223 162.74 131.344 162.845 131.487 162.911C131.63 162.973 131.79 163.004 131.966 163.004ZM48.6857 171.047V172.224H45.1602V174.429H47.9377V175.568H45.1602V177.817H48.6857V179H43.6697V171.047H48.6857ZM49.8876 179V173.357H50.7181C50.8941 173.357 51.0096 173.439 51.0646 173.604L51.1526 174.022C51.2516 173.912 51.3543 173.812 51.4606 173.72C51.5706 173.628 51.6861 173.549 51.8071 173.483C51.9318 173.417 52.0638 173.366 52.2031 173.329C52.3461 173.289 52.502 173.269 52.6706 173.269C53.0263 173.269 53.3178 173.366 53.5451 173.56C53.7761 173.751 53.9485 174.006 54.0621 174.325C54.1501 174.138 54.2601 173.978 54.3921 173.846C54.5241 173.711 54.669 173.601 54.8266 173.516C54.9843 173.432 55.1511 173.37 55.3271 173.329C55.5068 173.289 55.6865 173.269 55.8661 173.269C56.1778 173.269 56.4546 173.317 56.6966 173.412C56.9386 173.507 57.1421 173.647 57.3071 173.83C57.4721 174.013 57.5968 174.237 57.6811 174.501C57.7691 174.765 57.8131 175.067 57.8131 175.408V179H56.4546V175.408C56.4546 175.049 56.3758 174.78 56.2181 174.6C56.0605 174.417 55.8295 174.325 55.5251 174.325C55.3858 174.325 55.2556 174.349 55.1346 174.396C55.0173 174.444 54.9128 174.514 54.8211 174.605C54.7331 174.693 54.6635 174.805 54.6121 174.941C54.5608 175.077 54.5351 175.232 54.5351 175.408V179H53.1711V175.408C53.1711 175.031 53.0941 174.756 52.9401 174.583C52.7898 174.411 52.5661 174.325 52.2691 174.325C52.0748 174.325 51.8915 174.374 51.7191 174.473C51.5505 174.569 51.3928 174.701 51.2461 174.869V179H49.8876ZM59.1474 180.843V173.357H59.9779C60.0659 173.357 60.1411 173.377 60.2034 173.417C60.2657 173.458 60.3061 173.52 60.3244 173.604L60.4344 174.127C60.6617 173.867 60.9221 173.656 61.2154 173.494C61.5124 173.333 61.8589 173.252 62.2549 173.252C62.5629 173.252 62.8434 173.317 63.0964 173.445C63.3531 173.573 63.5731 173.76 63.7564 174.006C63.9434 174.248 64.0864 174.549 64.1854 174.908C64.2881 175.264 64.3394 175.672 64.3394 176.134C64.3394 176.556 64.2826 176.947 64.1689 177.306C64.0552 177.665 63.8921 177.977 63.6794 178.241C63.4704 178.505 63.2156 178.712 62.9149 178.862C62.6179 179.009 62.2842 179.083 61.9139 179.083C61.5949 179.083 61.3236 179.035 61.0999 178.939C60.8799 178.84 60.6819 178.705 60.5059 178.532V180.843H59.1474ZM61.7874 174.325C61.5051 174.325 61.2631 174.385 61.0614 174.506C60.8634 174.624 60.6782 174.791 60.5059 175.007V177.537C60.6599 177.728 60.8267 177.861 61.0064 177.938C61.1897 178.012 61.3859 178.048 61.5949 178.048C61.8002 178.048 61.9854 178.01 62.1504 177.933C62.3191 177.856 62.4602 177.739 62.5739 177.581C62.6912 177.423 62.7811 177.225 62.8434 176.987C62.9057 176.745 62.9369 176.461 62.9369 176.134C62.9369 175.804 62.9094 175.526 62.8544 175.298C62.8031 175.067 62.7279 174.88 62.6289 174.737C62.5299 174.594 62.4089 174.49 62.2659 174.424C62.1266 174.358 61.9671 174.325 61.7874 174.325ZM66.8136 170.827V179H65.4551V170.827H66.8136ZM70.7624 173.269C71.1841 173.269 71.5654 173.337 71.9064 173.473C72.2511 173.608 72.5444 173.801 72.7864 174.05C73.0284 174.299 73.2154 174.604 73.3474 174.963C73.4794 175.322 73.5454 175.724 73.5454 176.167C73.5454 176.615 73.4794 177.018 73.3474 177.377C73.2154 177.737 73.0284 178.043 72.7864 178.296C72.5444 178.549 72.2511 178.743 71.9064 178.879C71.5654 179.015 71.1841 179.083 70.7624 179.083C70.3408 179.083 69.9576 179.015 69.6129 178.879C69.2683 178.743 68.9731 178.549 68.7274 178.296C68.4854 178.043 68.2966 177.737 68.1609 177.377C68.0289 177.018 67.9629 176.615 67.9629 176.167C67.9629 175.724 68.0289 175.322 68.1609 174.963C68.2966 174.604 68.4854 174.299 68.7274 174.05C68.9731 173.801 69.2683 173.608 69.6129 173.473C69.9576 173.337 70.3408 173.269 70.7624 173.269ZM70.7624 178.037C71.2318 178.037 71.5783 177.88 71.8019 177.564C72.0293 177.249 72.1429 176.787 72.1429 176.178C72.1429 175.57 72.0293 175.106 71.8019 174.787C71.5783 174.468 71.2318 174.308 70.7624 174.308C70.2858 174.308 69.9338 174.47 69.7064 174.792C69.4791 175.111 69.3654 175.573 69.3654 176.178C69.3654 176.783 69.4791 177.245 69.7064 177.564C69.9338 177.88 70.2858 178.037 70.7624 178.037ZM76.4248 180.551C76.3844 180.646 76.3313 180.718 76.2653 180.766C76.2029 180.817 76.1058 180.843 75.9738 180.843H74.9618L76.0178 178.582L73.7353 173.357H74.9233C75.0333 173.357 75.1176 173.383 75.1763 173.434C75.2349 173.485 75.2789 173.544 75.3083 173.61L76.5128 176.536C76.5531 176.631 76.5879 176.73 76.6173 176.833C76.6466 176.936 76.6723 177.038 76.6943 177.141C76.7236 177.035 76.7548 176.932 76.7878 176.833C76.8244 176.734 76.8629 176.633 76.9033 176.53L78.0363 173.61C78.0656 173.537 78.1133 173.476 78.1793 173.428C78.2489 173.381 78.3259 173.357 78.4103 173.357H79.4993L76.4248 180.551ZM84.71 179H84.0995C83.9712 179 83.8703 178.982 83.797 178.945C83.7237 178.905 83.6687 178.826 83.632 178.708L83.511 178.307C83.368 178.435 83.2268 178.549 83.0875 178.648C82.9518 178.743 82.8107 178.824 82.664 178.89C82.5173 178.956 82.3615 179.006 82.1965 179.039C82.0315 179.072 81.8482 179.088 81.6465 179.088C81.4082 179.088 81.1882 179.057 80.9865 178.994C80.7848 178.928 80.6107 178.831 80.464 178.703C80.321 178.575 80.2092 178.415 80.1285 178.224C80.0478 178.034 80.0075 177.812 80.0075 177.559C80.0075 177.346 80.0625 177.137 80.1725 176.932C80.2862 176.723 80.4732 176.536 80.7335 176.371C80.9938 176.202 81.3403 176.063 81.773 175.953C82.2057 175.843 82.7428 175.781 83.3845 175.766V175.436C83.3845 175.058 83.3038 174.78 83.1425 174.6C82.9848 174.417 82.7538 174.325 82.4495 174.325C82.2295 174.325 82.0462 174.351 81.8995 174.402C81.7528 174.453 81.6245 174.512 81.5145 174.578C81.4082 174.64 81.3092 174.697 81.2175 174.748C81.1258 174.8 81.025 174.825 80.915 174.825C80.8233 174.825 80.7445 174.802 80.6785 174.754C80.6125 174.706 80.5593 174.648 80.519 174.578L80.2715 174.143C80.9205 173.549 81.7033 173.252 82.62 173.252C82.95 173.252 83.2433 173.307 83.5 173.417C83.7603 173.524 83.9803 173.674 84.16 173.868C84.3397 174.059 84.4753 174.288 84.567 174.556C84.6623 174.824 84.71 175.117 84.71 175.436V179ZM82.07 178.153C82.2093 178.153 82.3377 178.14 82.455 178.114C82.5723 178.089 82.6823 178.05 82.785 177.999C82.8913 177.948 82.9922 177.885 83.0875 177.812C83.1865 177.735 83.2855 177.645 83.3845 177.542V176.591C82.9885 176.609 82.6567 176.644 82.389 176.695C82.125 176.743 81.9123 176.805 81.751 176.882C81.5897 176.959 81.4742 177.049 81.4045 177.152C81.3385 177.255 81.3055 177.366 81.3055 177.487C81.3055 177.726 81.3752 177.896 81.5145 177.999C81.6575 178.102 81.8427 178.153 82.07 178.153ZM86.0623 179V170.827H87.4208V174.05C87.6445 173.812 87.8975 173.623 88.1798 173.483C88.4622 173.34 88.7922 173.269 89.1698 173.269C89.4778 173.269 89.7583 173.333 90.0113 173.461C90.268 173.586 90.488 173.769 90.6713 174.011C90.8583 174.253 91.0013 174.552 91.1003 174.908C91.203 175.264 91.2543 175.672 91.2543 176.134C91.2543 176.556 91.1975 176.947 91.0838 177.306C90.9702 177.665 90.807 177.977 90.5943 178.241C90.3853 178.505 90.1305 178.712 89.8298 178.862C89.5328 179.009 89.1992 179.083 88.8288 179.083C88.6565 179.083 88.4988 179.064 88.3558 179.028C88.2128 178.994 88.0827 178.947 87.9653 178.884C87.848 178.822 87.738 178.747 87.6353 178.659C87.5363 178.567 87.441 178.466 87.3493 178.356L87.2888 178.736C87.2668 178.831 87.2283 178.899 87.1733 178.939C87.122 178.98 87.0505 179 86.9588 179H86.0623ZM88.7023 174.325C88.42 174.325 88.178 174.385 87.9763 174.506C87.7783 174.624 87.5932 174.791 87.4208 175.007V177.537C87.5748 177.728 87.7417 177.861 87.9213 177.938C88.1047 178.012 88.3027 178.048 88.5153 178.048C88.7207 178.048 88.9058 178.01 89.0708 177.933C89.2358 177.856 89.3752 177.739 89.4888 177.581C89.6062 177.423 89.696 177.225 89.7583 176.987C89.8207 176.745 89.8518 176.461 89.8518 176.134C89.8518 175.804 89.8243 175.526 89.7693 175.298C89.718 175.067 89.6428 174.88 89.5438 174.737C89.4448 174.594 89.3238 174.49 89.1808 174.424C89.0415 174.358 88.882 174.325 88.7023 174.325ZM93.7658 173.357V179H92.4073V173.357H93.7658ZM93.9693 171.712C93.9693 171.83 93.9454 171.94 93.8978 172.042C93.8501 172.145 93.7859 172.235 93.7053 172.312C93.6283 172.389 93.5366 172.451 93.4303 172.499C93.3239 172.543 93.2103 172.565 93.0893 172.565C92.9719 172.565 92.8601 172.543 92.7538 172.499C92.6511 172.451 92.5613 172.389 92.4843 172.312C92.4073 172.235 92.3449 172.145 92.2973 172.042C92.2533 171.94 92.2313 171.83 92.2313 171.712C92.2313 171.591 92.2533 171.478 92.2973 171.371C92.3449 171.265 92.4073 171.173 92.4843 171.096C92.5613 171.019 92.6511 170.959 92.7538 170.915C92.8601 170.867 92.9719 170.843 93.0893 170.843C93.2103 170.843 93.3239 170.867 93.4303 170.915C93.5366 170.959 93.6283 171.019 93.7053 171.096C93.7859 171.173 93.8501 171.265 93.8978 171.371C93.9454 171.478 93.9693 171.591 93.9693 171.712ZM96.7521 170.827V179H95.3936V170.827H96.7521ZM99.7384 173.357V179H98.3799V173.357H99.7384ZM99.9419 171.712C99.9419 171.83 99.9181 171.94 99.8704 172.042C99.8228 172.145 99.7586 172.235 99.6779 172.312C99.6009 172.389 99.5093 172.451 99.4029 172.499C99.2966 172.543 99.1829 172.565 99.0619 172.565C98.9446 172.565 98.8328 172.543 98.7264 172.499C98.6238 172.451 98.5339 172.389 98.4569 172.312C98.3799 172.235 98.3176 172.145 98.2699 172.042C98.2259 171.94 98.2039 171.83 98.2039 171.712C98.2039 171.591 98.2259 171.478 98.2699 171.371C98.3176 171.265 98.3799 171.173 98.4569 171.096C98.5339 171.019 98.6238 170.959 98.7264 170.915C98.8328 170.867 98.9446 170.843 99.0619 170.843C99.1829 170.843 99.2966 170.867 99.4029 170.915C99.5093 170.959 99.6009 171.019 99.6779 171.096C99.7586 171.173 99.8228 171.265 99.8704 171.371C99.9181 171.478 99.9419 171.591 99.9419 171.712ZM103.132 179.088C102.644 179.088 102.268 178.95 102.004 178.675C101.74 178.397 101.608 178.014 101.608 177.526V174.374H101.036C100.963 174.374 100.899 174.351 100.844 174.303C100.792 174.255 100.767 174.184 100.767 174.088V173.549L101.674 173.401L101.96 171.861C101.975 171.788 102.008 171.731 102.059 171.69C102.114 171.65 102.182 171.63 102.263 171.63H102.967V173.406H104.452V174.374H102.967V177.432C102.967 177.608 103.011 177.746 103.099 177.845C103.187 177.944 103.304 177.993 103.451 177.993C103.535 177.993 103.605 177.984 103.66 177.966C103.718 177.944 103.768 177.922 103.808 177.9C103.852 177.878 103.891 177.858 103.924 177.839C103.957 177.817 103.99 177.806 104.023 177.806C104.063 177.806 104.096 177.817 104.122 177.839C104.147 177.858 104.175 177.887 104.204 177.927L104.611 178.587C104.413 178.752 104.186 178.877 103.929 178.961C103.673 179.046 103.407 179.088 103.132 179.088ZM107.534 180.551C107.494 180.646 107.441 180.718 107.375 180.766C107.312 180.817 107.215 180.843 107.083 180.843H106.071L107.127 178.582L104.845 173.357H106.033C106.143 173.357 106.227 173.383 106.286 173.434C106.344 173.485 106.388 173.544 106.418 173.61L107.622 176.536C107.662 176.631 107.697 176.73 107.727 176.833C107.756 176.936 107.782 177.038 107.804 177.141C107.833 177.035 107.864 176.932 107.897 176.833C107.934 176.734 107.972 176.633 108.013 176.53L109.146 173.61C109.175 173.537 109.223 173.476 109.289 173.428C109.358 173.381 109.435 173.357 109.52 173.357H110.609L107.534 180.551ZM120.592 179H119.448C119.32 179 119.213 178.969 119.129 178.906C119.048 178.84 118.99 178.76 118.953 178.664L118.359 177.042H115.064L114.47 178.664C114.441 178.749 114.382 178.826 114.294 178.895C114.21 178.965 114.106 179 113.981 179H112.831L115.955 171.047H117.468L120.592 179ZM115.444 175.997H117.979L117.011 173.351C116.967 173.234 116.918 173.097 116.863 172.939C116.812 172.778 116.76 172.603 116.709 172.416C116.658 172.603 116.606 172.778 116.555 172.939C116.507 173.1 116.46 173.241 116.412 173.362L115.444 175.997ZM121.334 179V173.357H122.164C122.34 173.357 122.456 173.439 122.511 173.604L122.604 174.05C122.718 173.933 122.837 173.826 122.962 173.731C123.09 173.636 123.224 173.553 123.363 173.483C123.506 173.414 123.659 173.361 123.82 173.324C123.981 173.287 124.157 173.269 124.348 173.269C124.656 173.269 124.929 173.322 125.167 173.428C125.406 173.531 125.604 173.678 125.761 173.868C125.923 174.055 126.044 174.281 126.124 174.545C126.209 174.805 126.251 175.093 126.251 175.408V179H124.892V175.408C124.892 175.064 124.812 174.798 124.65 174.611C124.493 174.42 124.254 174.325 123.935 174.325C123.701 174.325 123.481 174.378 123.275 174.484C123.07 174.591 122.876 174.736 122.692 174.919V179H121.334ZM131.557 179C131.381 179 131.265 178.917 131.21 178.752L131.1 178.208C130.983 178.34 130.86 178.459 130.732 178.565C130.604 178.672 130.464 178.763 130.314 178.84C130.167 178.917 130.008 178.976 129.835 179.017C129.667 179.061 129.483 179.083 129.285 179.083C128.977 179.083 128.695 179.018 128.438 178.89C128.182 178.762 127.96 178.576 127.773 178.334C127.59 178.089 127.447 177.786 127.344 177.427C127.245 177.068 127.195 176.657 127.195 176.195C127.195 175.777 127.252 175.388 127.366 175.029C127.48 174.67 127.643 174.358 127.855 174.094C128.068 173.83 128.323 173.625 128.62 173.478C128.917 173.328 129.251 173.252 129.621 173.252C129.936 173.252 130.206 173.304 130.429 173.406C130.653 173.505 130.853 173.639 131.029 173.808V170.827H132.387V179H131.557ZM129.747 178.004C130.03 178.004 130.27 177.946 130.468 177.828C130.666 177.711 130.853 177.544 131.029 177.328V174.798C130.875 174.611 130.706 174.479 130.523 174.402C130.343 174.325 130.149 174.286 129.94 174.286C129.735 174.286 129.548 174.325 129.379 174.402C129.214 174.479 129.073 174.596 128.955 174.754C128.842 174.908 128.754 175.106 128.691 175.348C128.629 175.586 128.598 175.869 128.598 176.195C128.598 176.525 128.624 176.805 128.675 177.036C128.73 177.264 128.807 177.451 128.906 177.597C129.005 177.74 129.126 177.845 129.269 177.911C129.412 177.973 129.571 178.004 129.747 178.004ZM35.5948 187.493C35.5545 187.574 35.5068 187.631 35.4518 187.664C35.4005 187.697 35.3381 187.713 35.2648 187.713C35.1915 187.713 35.109 187.686 35.0173 187.631C34.9256 187.572 34.8175 187.508 34.6928 187.438C34.5681 187.369 34.4215 187.306 34.2528 187.251C34.0878 187.193 33.8916 187.163 33.6643 187.163C33.459 187.163 33.2793 187.189 33.1253 187.24C32.975 187.288 32.8466 187.356 32.7403 187.444C32.6376 187.532 32.5606 187.638 32.5093 187.763C32.458 187.884 32.4323 188.018 32.4323 188.164C32.4323 188.351 32.4836 188.507 32.5863 188.632C32.6926 188.757 32.832 188.863 33.0043 188.951C33.1766 189.039 33.3728 189.118 33.5928 189.187C33.8128 189.257 34.0365 189.332 34.2638 189.413C34.4948 189.49 34.7203 189.582 34.9403 189.688C35.1603 189.791 35.3565 189.923 35.5288 190.084C35.7011 190.242 35.8386 190.436 35.9413 190.667C36.0476 190.898 36.1008 191.178 36.1008 191.508C36.1008 191.868 36.0385 192.205 35.9138 192.52C35.7928 192.832 35.6131 193.105 35.3748 193.34C35.1401 193.571 34.8523 193.754 34.5113 193.89C34.1703 194.022 33.7798 194.088 33.3398 194.088C33.0868 194.088 32.8375 194.062 32.5918 194.011C32.3461 193.963 32.1096 193.894 31.8823 193.802C31.6586 193.71 31.4478 193.6 31.2498 193.472C31.0555 193.344 30.8813 193.201 30.7273 193.043L31.1563 192.333C31.1966 192.282 31.2443 192.24 31.2993 192.207C31.358 192.17 31.4221 192.152 31.4918 192.152C31.5835 192.152 31.6825 192.19 31.7888 192.267C31.8951 192.341 32.0198 192.423 32.1628 192.515C32.3095 192.607 32.48 192.691 32.6743 192.768C32.8723 192.841 33.1088 192.878 33.3838 192.878C33.8055 192.878 34.1318 192.779 34.3628 192.581C34.5938 192.379 34.7093 192.091 34.7093 191.717C34.7093 191.508 34.6561 191.338 34.5498 191.206C34.4471 191.074 34.3096 190.964 34.1373 190.876C33.965 190.784 33.7688 190.707 33.5488 190.645C33.3288 190.583 33.1051 190.515 32.8778 190.441C32.6505 190.368 32.4268 190.28 32.2068 190.177C31.9868 190.075 31.7906 189.941 31.6183 189.776C31.446 189.611 31.3066 189.406 31.2003 189.16C31.0976 188.911 31.0463 188.604 31.0463 188.241C31.0463 187.952 31.1031 187.669 31.2168 187.394C31.3341 187.119 31.5028 186.876 31.7228 186.663C31.9465 186.45 32.2196 186.28 32.5423 186.151C32.865 186.023 33.2335 185.959 33.6478 185.959C34.1171 185.959 34.5498 186.032 34.9458 186.179C35.3418 186.326 35.6791 186.531 35.9578 186.795L35.5948 187.493ZM38.3958 188.357V191.943C38.3958 192.288 38.4746 192.555 38.6323 192.746C38.7936 192.933 39.0338 193.026 39.3528 193.026C39.5874 193.026 39.8074 192.975 40.0128 192.872C40.2181 192.766 40.4124 192.621 40.5958 192.438V188.357H41.9543V194H41.1238C40.9478 194 40.8323 193.917 40.7773 193.752L40.6838 193.301C40.5664 193.419 40.4454 193.527 40.3208 193.626C40.1961 193.721 40.0623 193.804 39.9193 193.873C39.7799 193.939 39.6278 193.991 39.4628 194.028C39.3014 194.068 39.1273 194.088 38.9403 194.088C38.6323 194.088 38.3591 194.037 38.1208 193.934C37.8861 193.828 37.6881 193.679 37.5268 193.488C37.3654 193.298 37.2426 193.072 37.1583 192.812C37.0776 192.548 37.0373 192.258 37.0373 191.943V188.357H38.3958ZM46.7542 189.457C46.7175 189.516 46.679 189.558 46.6387 189.583C46.5984 189.605 46.547 189.616 46.4847 189.616C46.4187 189.616 46.3472 189.598 46.2702 189.561C46.1969 189.525 46.1107 189.484 46.0117 189.44C45.9127 189.393 45.799 189.351 45.6707 189.314C45.546 189.277 45.3975 189.259 45.2252 189.259C44.9575 189.259 44.7467 189.316 44.5927 189.429C44.4387 189.543 44.3617 189.692 44.3617 189.875C44.3617 189.996 44.4002 190.099 44.4772 190.183C44.5579 190.264 44.6624 190.335 44.7907 190.397C44.9227 190.46 45.0712 190.517 45.2362 190.568C45.4012 190.616 45.5699 190.669 45.7422 190.727C45.9145 190.786 46.0832 190.854 46.2482 190.931C46.4132 191.004 46.5599 191.1 46.6882 191.217C46.8202 191.331 46.9247 191.468 47.0017 191.629C47.0824 191.791 47.1227 191.985 47.1227 192.212C47.1227 192.484 47.0732 192.735 46.9742 192.966C46.8752 193.193 46.7304 193.391 46.5397 193.56C46.349 193.725 46.1125 193.855 45.8302 193.95C45.5515 194.042 45.2307 194.088 44.8677 194.088C44.6734 194.088 44.4827 194.07 44.2957 194.033C44.1124 194 43.9345 193.952 43.7622 193.89C43.5935 193.828 43.4359 193.754 43.2892 193.67C43.1462 193.586 43.0197 193.494 42.9097 193.395L43.2232 192.878C43.2635 192.816 43.3112 192.768 43.3662 192.735C43.4212 192.702 43.4909 192.685 43.5752 192.685C43.6595 192.685 43.7384 192.709 43.8117 192.757C43.8887 192.805 43.9767 192.856 44.0757 192.911C44.1747 192.966 44.2902 193.017 44.4222 193.065C44.5579 193.113 44.7284 193.136 44.9337 193.136C45.095 193.136 45.2325 193.118 45.3462 193.081C45.4635 193.041 45.5589 192.99 45.6322 192.927C45.7092 192.865 45.7642 192.794 45.7972 192.713C45.8339 192.629 45.8522 192.542 45.8522 192.454C45.8522 192.322 45.8119 192.214 45.7312 192.13C45.6542 192.046 45.5497 191.972 45.4177 191.91C45.2894 191.848 45.1409 191.793 44.9722 191.745C44.8072 191.694 44.6367 191.639 44.4607 191.58C44.2884 191.521 44.1179 191.453 43.9492 191.376C43.7842 191.296 43.6357 191.195 43.5037 191.074C43.3754 190.953 43.2709 190.804 43.1902 190.628C43.1132 190.452 43.0747 190.24 43.0747 189.99C43.0747 189.759 43.1205 189.539 43.2122 189.33C43.3039 189.121 43.4377 188.94 43.6137 188.786C43.7934 188.628 44.0152 188.504 44.2792 188.412C44.5469 188.317 44.8549 188.269 45.2032 188.269C45.5919 188.269 45.9457 188.333 46.2647 188.461C46.5837 188.59 46.8495 188.758 47.0622 188.967L46.7542 189.457ZM50.06 194.088C49.5723 194.088 49.1965 193.95 48.9325 193.675C48.6685 193.397 48.5365 193.014 48.5365 192.526V189.374H47.9645C47.8911 189.374 47.827 189.351 47.772 189.303C47.7206 189.255 47.695 189.184 47.695 189.088V188.549L48.6025 188.401L48.8885 186.861C48.9031 186.788 48.9361 186.731 48.9875 186.69C49.0425 186.65 49.1103 186.63 49.191 186.63H49.895V188.406H51.38V189.374H49.895V192.432C49.895 192.608 49.939 192.746 50.027 192.845C50.115 192.944 50.2323 192.993 50.379 192.993C50.4633 192.993 50.533 192.984 50.588 192.966C50.6466 192.944 50.6961 192.922 50.7365 192.9C50.7805 192.878 50.819 192.858 50.852 192.839C50.885 192.817 50.918 192.806 50.951 192.806C50.9913 192.806 51.0243 192.817 51.05 192.839C51.0756 192.858 51.1031 192.887 51.1325 192.927L51.5395 193.587C51.3415 193.752 51.1141 193.877 50.8575 193.961C50.6008 194.046 50.335 194.088 50.06 194.088ZM56.8824 194H56.2719C56.1435 194 56.0427 193.982 55.9694 193.945C55.896 193.905 55.841 193.826 55.8044 193.708L55.6834 193.307C55.5404 193.435 55.3992 193.549 55.2599 193.648C55.1242 193.743 54.983 193.824 54.8364 193.89C54.6897 193.956 54.5339 194.006 54.3689 194.039C54.2039 194.072 54.0205 194.088 53.8189 194.088C53.5805 194.088 53.3605 194.057 53.1589 193.994C52.9572 193.928 52.783 193.831 52.6364 193.703C52.4934 193.575 52.3815 193.415 52.3009 193.224C52.2202 193.034 52.1799 192.812 52.1799 192.559C52.1799 192.346 52.2349 192.137 52.3449 191.932C52.4585 191.723 52.6455 191.536 52.9059 191.371C53.1662 191.202 53.5127 191.063 53.9454 190.953C54.378 190.843 54.9152 190.781 55.5569 190.766V190.436C55.5569 190.058 55.4762 189.78 55.3149 189.6C55.1572 189.417 54.9262 189.325 54.6219 189.325C54.4019 189.325 54.2185 189.351 54.0719 189.402C53.9252 189.453 53.7969 189.512 53.6869 189.578C53.5805 189.64 53.4815 189.697 53.3899 189.748C53.2982 189.8 53.1974 189.825 53.0874 189.825C52.9957 189.825 52.9169 189.802 52.8509 189.754C52.7849 189.706 52.7317 189.648 52.6914 189.578L52.4439 189.143C53.0929 188.549 53.8757 188.252 54.7924 188.252C55.1224 188.252 55.4157 188.307 55.6724 188.417C55.9327 188.524 56.1527 188.674 56.3324 188.868C56.512 189.059 56.6477 189.288 56.7394 189.556C56.8347 189.824 56.8824 190.117 56.8824 190.436V194ZM54.2424 193.153C54.3817 193.153 54.51 193.14 54.6274 193.114C54.7447 193.089 54.8547 193.05 54.9574 192.999C55.0637 192.948 55.1645 192.885 55.2599 192.812C55.3589 192.735 55.4579 192.645 55.5569 192.542V191.591C55.1609 191.609 54.829 191.644 54.5614 191.695C54.2974 191.743 54.0847 191.805 53.9234 191.882C53.762 191.959 53.6465 192.049 53.5769 192.152C53.5109 192.255 53.4779 192.366 53.4779 192.487C53.4779 192.726 53.5475 192.896 53.6869 192.999C53.8299 193.102 54.015 193.153 54.2424 193.153ZM59.6647 188.357V194H58.3062V188.357H59.6647ZM59.8682 186.712C59.8682 186.83 59.8444 186.94 59.7967 187.042C59.749 187.145 59.6849 187.235 59.6042 187.312C59.5272 187.389 59.4355 187.451 59.3292 187.499C59.2229 187.543 59.1092 187.565 58.9882 187.565C58.8709 187.565 58.759 187.543 58.6527 187.499C58.55 187.451 58.4602 187.389 58.3832 187.312C58.3062 187.235 58.2439 187.145 58.1962 187.042C58.1522 186.94 58.1302 186.83 58.1302 186.712C58.1302 186.591 58.1522 186.478 58.1962 186.371C58.2439 186.265 58.3062 186.173 58.3832 186.096C58.4602 186.019 58.55 185.959 58.6527 185.915C58.759 185.867 58.8709 185.843 58.9882 185.843C59.1092 185.843 59.2229 185.867 59.3292 185.915C59.4355 185.959 59.5272 186.019 59.6042 186.096C59.6849 186.173 59.749 186.265 59.7967 186.371C59.8444 186.478 59.8682 186.591 59.8682 186.712ZM61.2045 194V188.357H62.035C62.211 188.357 62.3265 188.439 62.3815 188.604L62.475 189.05C62.5887 188.933 62.7078 188.826 62.8325 188.731C62.9608 188.636 63.0947 188.553 63.234 188.483C63.377 188.414 63.5292 188.361 63.6905 188.324C63.8518 188.287 64.0278 188.269 64.2185 188.269C64.5265 188.269 64.7997 188.322 65.038 188.428C65.2763 188.531 65.4743 188.678 65.632 188.868C65.7933 189.055 65.9143 189.281 65.995 189.545C66.0793 189.805 66.1215 190.093 66.1215 190.408V194H64.763V190.408C64.763 190.064 64.6823 189.798 64.521 189.611C64.3633 189.42 64.125 189.325 63.806 189.325C63.5713 189.325 63.3513 189.378 63.146 189.484C62.9407 189.591 62.7463 189.736 62.563 189.919V194H61.2045ZM71.8785 194H71.268C71.1396 194 71.0388 193.982 70.9655 193.945C70.8921 193.905 70.8371 193.826 70.8005 193.708L70.6795 193.307C70.5365 193.435 70.3953 193.549 70.256 193.648C70.1203 193.743 69.9791 193.824 69.8325 193.89C69.6858 193.956 69.53 194.006 69.365 194.039C69.2 194.072 69.0166 194.088 68.815 194.088C68.5766 194.088 68.3566 194.057 68.155 193.994C67.9533 193.928 67.7791 193.831 67.6325 193.703C67.4895 193.575 67.3776 193.415 67.297 193.224C67.2163 193.034 67.176 192.812 67.176 192.559C67.176 192.346 67.231 192.137 67.341 191.932C67.4546 191.723 67.6416 191.536 67.902 191.371C68.1623 191.202 68.5088 191.063 68.9415 190.953C69.3741 190.843 69.9113 190.781 70.553 190.766V190.436C70.553 190.058 70.4723 189.78 70.311 189.6C70.1533 189.417 69.9223 189.325 69.618 189.325C69.398 189.325 69.2146 189.351 69.068 189.402C68.9213 189.453 68.793 189.512 68.683 189.578C68.5766 189.64 68.4776 189.697 68.386 189.748C68.2943 189.8 68.1935 189.825 68.0835 189.825C67.9918 189.825 67.913 189.802 67.847 189.754C67.781 189.706 67.7278 189.648 67.6875 189.578L67.44 189.143C68.089 188.549 68.8718 188.252 69.7885 188.252C70.1185 188.252 70.4118 188.307 70.6685 188.417C70.9288 188.524 71.1488 188.674 71.3285 188.868C71.5081 189.059 71.6438 189.288 71.7355 189.556C71.8308 189.824 71.8785 190.117 71.8785 190.436V194ZM69.2385 193.153C69.3778 193.153 69.5061 193.14 69.6235 193.114C69.7408 193.089 69.8508 193.05 69.9535 192.999C70.0598 192.948 70.1606 192.885 70.256 192.812C70.355 192.735 70.454 192.645 70.553 192.542V191.591C70.157 191.609 69.8251 191.644 69.5575 191.695C69.2935 191.743 69.0808 191.805 68.9195 191.882C68.7581 191.959 68.6426 192.049 68.573 192.152C68.507 192.255 68.474 192.366 68.474 192.487C68.474 192.726 68.5436 192.896 68.683 192.999C68.826 193.102 69.0111 193.153 69.2385 193.153ZM73.2308 194V185.827H74.5893V189.05C74.8129 188.812 75.0659 188.623 75.3483 188.483C75.6306 188.34 75.9606 188.269 76.3383 188.269C76.6463 188.269 76.9268 188.333 77.1798 188.461C77.4364 188.586 77.6564 188.769 77.8398 189.011C78.0268 189.253 78.1698 189.552 78.2688 189.908C78.3714 190.264 78.4228 190.672 78.4228 191.134C78.4228 191.556 78.3659 191.947 78.2523 192.306C78.1386 192.665 77.9754 192.977 77.7628 193.241C77.5538 193.505 77.2989 193.712 76.9983 193.862C76.7013 194.009 76.3676 194.083 75.9973 194.083C75.8249 194.083 75.6673 194.064 75.5243 194.028C75.3813 193.994 75.2511 193.947 75.1338 193.884C75.0164 193.822 74.9064 193.747 74.8038 193.659C74.7048 193.567 74.6094 193.466 74.5178 193.356L74.4573 193.736C74.4353 193.831 74.3968 193.899 74.3418 193.939C74.2904 193.98 74.2189 194 74.1273 194H73.2308ZM75.8708 189.325C75.5884 189.325 75.3464 189.385 75.1448 189.506C74.9468 189.624 74.7616 189.791 74.5893 190.007V192.537C74.7433 192.728 74.9101 192.861 75.0898 192.938C75.2731 193.012 75.4711 193.048 75.6838 193.048C75.8891 193.048 76.0743 193.01 76.2393 192.933C76.4043 192.856 76.5436 192.739 76.6573 192.581C76.7746 192.423 76.8644 192.225 76.9268 191.987C76.9891 191.745 77.0203 191.461 77.0203 191.134C77.0203 190.804 76.9928 190.526 76.9378 190.298C76.8864 190.067 76.8113 189.88 76.7123 189.737C76.6133 189.594 76.4923 189.49 76.3493 189.424C76.2099 189.358 76.0504 189.325 75.8708 189.325ZM80.9342 188.357V194H79.5757V188.357H80.9342ZM81.1377 186.712C81.1377 186.83 81.1139 186.94 81.0662 187.042C81.0186 187.145 80.9544 187.235 80.8737 187.312C80.7967 187.389 80.7051 187.451 80.5987 187.499C80.4924 187.543 80.3787 187.565 80.2577 187.565C80.1404 187.565 80.0286 187.543 79.9222 187.499C79.8196 187.451 79.7297 187.389 79.6527 187.312C79.5757 187.235 79.5134 187.145 79.4657 187.042C79.4217 186.94 79.3997 186.83 79.3997 186.712C79.3997 186.591 79.4217 186.478 79.4657 186.371C79.5134 186.265 79.5757 186.173 79.6527 186.096C79.7297 186.019 79.8196 185.959 79.9222 185.915C80.0286 185.867 80.1404 185.843 80.2577 185.843C80.3787 185.843 80.4924 185.867 80.5987 185.915C80.7051 185.959 80.7967 186.019 80.8737 186.096C80.9544 186.173 81.0186 186.265 81.0662 186.371C81.1139 186.478 81.1377 186.591 81.1377 186.712ZM83.9205 185.827V194H82.562V185.827H83.9205ZM86.9069 188.357V194H85.5484V188.357H86.9069ZM87.1104 186.712C87.1104 186.83 87.0865 186.94 87.0389 187.042C86.9912 187.145 86.927 187.235 86.8464 187.312C86.7694 187.389 86.6777 187.451 86.5714 187.499C86.465 187.543 86.3514 187.565 86.2304 187.565C86.113 187.565 86.0012 187.543 85.8949 187.499C85.7922 187.451 85.7024 187.389 85.6254 187.312C85.5484 187.235 85.486 187.145 85.4384 187.042C85.3944 186.94 85.3724 186.83 85.3724 186.712C85.3724 186.591 85.3944 186.478 85.4384 186.371C85.486 186.265 85.5484 186.173 85.6254 186.096C85.7024 186.019 85.7922 185.959 85.8949 185.915C86.0012 185.867 86.113 185.843 86.2304 185.843C86.3514 185.843 86.465 185.867 86.5714 185.915C86.6777 185.959 86.7694 186.019 86.8464 186.096C86.927 186.173 86.9912 186.265 87.0389 186.371C87.0865 186.478 87.1104 186.591 87.1104 186.712ZM90.3002 194.088C89.8125 194.088 89.4367 193.95 89.1727 193.675C88.9087 193.397 88.7767 193.014 88.7767 192.526V189.374H88.2047C88.1314 189.374 88.0672 189.351 88.0122 189.303C87.9609 189.255 87.9352 189.184 87.9352 189.088V188.549L88.8427 188.401L89.1287 186.861C89.1434 186.788 89.1764 186.731 89.2277 186.69C89.2827 186.65 89.3505 186.63 89.4312 186.63H90.1352V188.406H91.6202V189.374H90.1352V192.432C90.1352 192.608 90.1792 192.746 90.2672 192.845C90.3552 192.944 90.4725 192.993 90.6192 192.993C90.7035 192.993 90.7732 192.984 90.8282 192.966C90.8869 192.944 90.9364 192.922 90.9767 192.9C91.0207 192.878 91.0592 192.858 91.0922 192.839C91.1252 192.817 91.1582 192.806 91.1912 192.806C91.2315 192.806 91.2645 192.817 91.2902 192.839C91.3159 192.858 91.3434 192.887 91.3727 192.927L91.7797 193.587C91.5817 193.752 91.3544 193.877 91.0977 193.961C90.841 194.046 90.5752 194.088 90.3002 194.088ZM94.7026 195.551C94.6623 195.646 94.6091 195.718 94.5431 195.766C94.4808 195.817 94.3836 195.843 94.2516 195.843H93.2396L94.2956 193.582L92.0131 188.357H93.2011C93.3111 188.357 93.3954 188.383 93.4541 188.434C93.5128 188.485 93.5568 188.544 93.5861 188.61L94.7906 191.536C94.8309 191.631 94.8658 191.73 94.8951 191.833C94.9244 191.936 94.9501 192.038 94.9721 192.141C95.0014 192.035 95.0326 191.932 95.0656 191.833C95.1023 191.734 95.1408 191.633 95.1811 191.53L96.3141 188.61C96.3434 188.537 96.3911 188.476 96.4571 188.428C96.5268 188.381 96.6038 188.357 96.6881 188.357H97.7771L94.7026 195.551ZM108.398 190.023C108.398 190.606 108.301 191.147 108.107 191.646C107.912 192.141 107.639 192.57 107.287 192.933C106.935 193.296 106.512 193.58 106.017 193.785C105.522 193.987 104.974 194.088 104.372 194.088C103.771 194.088 103.221 193.987 102.722 193.785C102.227 193.58 101.802 193.296 101.446 192.933C101.094 192.57 100.821 192.141 100.627 191.646C100.432 191.147 100.335 190.606 100.335 190.023C100.335 189.44 100.432 188.901 100.627 188.406C100.821 187.908 101.094 187.477 101.446 187.114C101.802 186.751 102.227 186.469 102.722 186.267C103.221 186.062 103.771 185.959 104.372 185.959C104.974 185.959 105.522 186.062 106.017 186.267C106.512 186.472 106.935 186.756 107.287 187.119C107.639 187.479 107.912 187.908 108.107 188.406C108.301 188.901 108.398 189.44 108.398 190.023ZM106.88 190.023C106.88 189.587 106.822 189.197 106.704 188.852C106.591 188.504 106.426 188.208 106.209 187.966C105.993 187.724 105.729 187.539 105.417 187.411C105.109 187.283 104.761 187.218 104.372 187.218C103.984 187.218 103.633 187.283 103.322 187.411C103.01 187.539 102.744 187.724 102.524 187.966C102.308 188.208 102.141 188.504 102.024 188.852C101.906 189.197 101.848 189.587 101.848 190.023C101.848 190.46 101.906 190.852 102.024 191.2C102.141 191.545 102.308 191.838 102.524 192.08C102.744 192.319 103.01 192.502 103.322 192.63C103.633 192.759 103.984 192.823 104.372 192.823C104.761 192.823 105.109 192.759 105.417 192.63C105.729 192.502 105.993 192.319 106.209 192.08C106.426 191.838 106.591 191.545 106.704 191.2C106.822 190.852 106.88 190.46 106.88 190.023ZM109.733 194V189.38L109.243 189.303C109.137 189.285 109.051 189.248 108.985 189.193C108.922 189.138 108.891 189.061 108.891 188.962V188.406H109.733V187.988C109.733 187.666 109.78 187.376 109.876 187.119C109.975 186.863 110.114 186.645 110.294 186.465C110.477 186.285 110.699 186.148 110.959 186.052C111.219 185.957 111.513 185.909 111.839 185.909C112.099 185.909 112.341 185.944 112.565 186.014L112.538 186.696C112.53 186.802 112.481 186.868 112.389 186.894C112.297 186.92 112.191 186.932 112.07 186.932C111.909 186.932 111.764 186.951 111.636 186.987C111.511 187.02 111.405 187.081 111.317 187.169C111.229 187.253 111.161 187.367 111.113 187.51C111.069 187.649 111.047 187.823 111.047 188.032V188.406H112.516V189.374H111.091V194H109.733ZM122.261 194H120.771V190.524H117.042V194H115.551V186.047H117.042V189.468H120.771V186.047H122.261V194ZM125.235 188.357V194H123.877V188.357H125.235ZM125.439 186.712C125.439 186.83 125.415 186.94 125.367 187.042C125.319 187.145 125.255 187.235 125.175 187.312C125.098 187.389 125.006 187.451 124.9 187.499C124.793 187.543 124.68 187.565 124.559 187.565C124.441 187.565 124.329 187.543 124.223 187.499C124.12 187.451 124.031 187.389 123.954 187.312C123.877 187.235 123.814 187.145 123.767 187.042C123.723 186.94 123.701 186.83 123.701 186.712C123.701 186.591 123.723 186.478 123.767 186.371C123.814 186.265 123.877 186.173 123.954 186.096C124.031 186.019 124.12 185.959 124.223 185.915C124.329 185.867 124.441 185.843 124.559 185.843C124.68 185.843 124.793 185.867 124.9 185.915C125.006 185.959 125.098 186.019 125.175 186.096C125.255 186.173 125.319 186.265 125.367 186.371C125.415 186.478 125.439 186.591 125.439 186.712ZM126.775 194V188.357H127.572C127.712 188.357 127.809 188.383 127.864 188.434C127.919 188.485 127.955 188.573 127.974 188.698L128.056 189.38C128.258 189.032 128.494 188.757 128.766 188.555C129.037 188.353 129.341 188.252 129.679 188.252C129.957 188.252 130.188 188.317 130.372 188.445L130.196 189.462C130.185 189.528 130.161 189.576 130.124 189.605C130.088 189.631 130.038 189.644 129.976 189.644C129.921 189.644 129.846 189.631 129.75 189.605C129.655 189.58 129.528 189.567 129.371 189.567C129.088 189.567 128.846 189.646 128.645 189.803C128.443 189.957 128.273 190.185 128.133 190.485V194H126.775ZM132.712 188.357V194H131.353V188.357H132.712ZM132.915 186.712C132.915 186.83 132.891 186.94 132.844 187.042C132.796 187.145 132.732 187.235 132.651 187.312C132.574 187.389 132.482 187.451 132.376 187.499C132.27 187.543 132.156 187.565 132.035 187.565C131.918 187.565 131.806 187.543 131.7 187.499C131.597 187.451 131.507 187.389 131.43 187.312C131.353 187.235 131.291 187.145 131.243 187.042C131.199 186.94 131.177 186.83 131.177 186.712C131.177 186.591 131.199 186.478 131.243 186.371C131.291 186.265 131.353 186.173 131.43 186.096C131.507 186.019 131.597 185.959 131.7 185.915C131.806 185.867 131.918 185.843 132.035 185.843C132.156 185.843 132.27 185.867 132.376 185.915C132.482 185.959 132.574 186.019 132.651 186.096C132.732 186.173 132.796 186.265 132.844 186.371C132.891 186.478 132.915 186.591 132.915 186.712ZM134.251 194V188.357H135.082C135.258 188.357 135.373 188.439 135.428 188.604L135.522 189.05C135.636 188.933 135.755 188.826 135.879 188.731C136.008 188.636 136.142 188.553 136.281 188.483C136.424 188.414 136.576 188.361 136.737 188.324C136.899 188.287 137.075 188.269 137.265 188.269C137.573 188.269 137.847 188.322 138.085 188.428C138.323 188.531 138.521 188.678 138.679 188.868C138.84 189.055 138.961 189.281 139.042 189.545C139.126 189.805 139.168 190.093 139.168 190.408V194H137.81V190.408C137.81 190.064 137.729 189.798 137.568 189.611C137.41 189.42 137.172 189.325 136.853 189.325C136.618 189.325 136.398 189.378 136.193 189.484C135.988 189.591 135.793 189.736 135.61 189.919V194H134.251ZM142.456 188.258C142.698 188.258 142.925 188.284 143.138 188.335C143.351 188.383 143.545 188.454 143.721 188.549H145.343V189.055C145.343 189.14 145.321 189.206 145.277 189.253C145.233 189.301 145.158 189.334 145.052 189.352L144.546 189.446C144.583 189.541 144.61 189.642 144.628 189.748C144.65 189.855 144.661 189.967 144.661 190.084C144.661 190.363 144.605 190.616 144.491 190.843C144.381 191.067 144.227 191.257 144.029 191.415C143.835 191.573 143.602 191.695 143.33 191.783C143.063 191.868 142.771 191.91 142.456 191.91C142.243 191.91 142.036 191.89 141.834 191.849C141.658 191.956 141.57 192.075 141.57 192.207C141.57 192.321 141.622 192.405 141.724 192.46C141.831 192.511 141.968 192.548 142.137 192.57C142.309 192.592 142.504 192.607 142.72 192.614C142.936 192.618 143.158 192.629 143.385 192.647C143.613 192.665 143.835 192.698 144.051 192.746C144.267 192.79 144.46 192.861 144.628 192.96C144.801 193.059 144.938 193.195 145.041 193.367C145.147 193.536 145.2 193.754 145.2 194.022C145.2 194.271 145.138 194.513 145.013 194.748C144.892 194.983 144.715 195.192 144.48 195.375C144.249 195.558 143.965 195.705 143.627 195.815C143.29 195.929 142.905 195.986 142.472 195.986C142.043 195.986 141.671 195.943 141.356 195.859C141.041 195.778 140.778 195.668 140.569 195.529C140.364 195.393 140.21 195.236 140.107 195.056C140.005 194.876 139.953 194.689 139.953 194.495C139.953 194.231 140.034 194.009 140.195 193.829C140.357 193.65 140.58 193.507 140.866 193.4C140.727 193.323 140.615 193.221 140.531 193.092C140.447 192.964 140.404 192.797 140.404 192.592C140.404 192.508 140.419 192.421 140.448 192.333C140.478 192.242 140.522 192.152 140.58 192.064C140.643 191.976 140.72 191.893 140.811 191.816C140.903 191.736 141.011 191.664 141.136 191.602C140.85 191.448 140.624 191.243 140.459 190.986C140.298 190.729 140.217 190.429 140.217 190.084C140.217 189.805 140.272 189.554 140.382 189.33C140.496 189.103 140.652 188.911 140.85 188.753C141.052 188.592 141.288 188.469 141.559 188.384C141.834 188.3 142.133 188.258 142.456 188.258ZM143.946 194.253C143.946 194.143 143.913 194.053 143.847 193.983C143.781 193.914 143.692 193.861 143.578 193.824C143.464 193.784 143.33 193.754 143.176 193.736C143.026 193.718 142.865 193.705 142.692 193.697C142.524 193.686 142.348 193.677 142.164 193.67C141.985 193.659 141.811 193.642 141.642 193.62C141.488 193.705 141.363 193.806 141.268 193.923C141.176 194.037 141.13 194.169 141.13 194.319C141.13 194.418 141.154 194.51 141.202 194.594C141.253 194.682 141.332 194.757 141.438 194.82C141.548 194.882 141.69 194.93 141.862 194.963C142.034 194.999 142.245 195.018 142.494 195.018C142.747 195.018 142.966 194.997 143.149 194.957C143.332 194.92 143.483 194.867 143.6 194.798C143.721 194.732 143.809 194.651 143.864 194.556C143.919 194.464 143.946 194.363 143.946 194.253ZM142.456 191.041C142.625 191.041 142.771 191.019 142.896 190.975C143.021 190.927 143.123 190.863 143.204 190.782C143.288 190.702 143.351 190.605 143.391 190.491C143.435 190.377 143.457 190.253 143.457 190.117C143.457 189.838 143.373 189.618 143.204 189.457C143.039 189.292 142.79 189.209 142.456 189.209C142.122 189.209 141.871 189.292 141.702 189.457C141.537 189.618 141.455 189.838 141.455 190.117C141.455 190.249 141.475 190.372 141.515 190.485C141.559 190.599 141.622 190.698 141.702 190.782C141.787 190.863 141.891 190.927 142.016 190.975C142.144 191.019 142.291 191.041 142.456 191.041ZM43.6733 206.2V209H42.1938V201.047H44.7843C45.316 201.047 45.7761 201.109 46.1648 201.234C46.5535 201.359 46.8743 201.533 47.1273 201.756C47.3803 201.98 47.5673 202.248 47.6883 202.559C47.8093 202.871 47.8698 203.212 47.8698 203.582C47.8698 203.967 47.8056 204.321 47.6773 204.644C47.549 204.963 47.3565 205.238 47.0998 205.469C46.8431 205.7 46.5223 205.88 46.1373 206.008C45.7523 206.136 45.3013 206.2 44.7843 206.2H43.6733ZM43.6733 205.045H44.7843C45.0556 205.045 45.2921 205.012 45.4938 204.946C45.6955 204.877 45.8623 204.78 45.9943 204.655C46.1263 204.527 46.2253 204.373 46.2913 204.193C46.3573 204.01 46.3903 203.806 46.3903 203.582C46.3903 203.37 46.3573 203.177 46.2913 203.005C46.2253 202.833 46.1263 202.686 45.9943 202.565C45.8623 202.444 45.6955 202.352 45.4938 202.29C45.2921 202.224 45.0556 202.191 44.7843 202.191H43.6733V205.045ZM53.085 209H52.4745C52.3462 209 52.2453 208.982 52.172 208.945C52.0987 208.905 52.0437 208.826 52.007 208.708L51.886 208.307C51.743 208.435 51.6018 208.549 51.4625 208.648C51.3268 208.743 51.1857 208.824 51.039 208.89C50.8923 208.956 50.7365 209.006 50.5715 209.039C50.4065 209.072 50.2232 209.088 50.0215 209.088C49.7832 209.088 49.5632 209.057 49.3615 208.994C49.1598 208.928 48.9857 208.831 48.839 208.703C48.696 208.575 48.5842 208.415 48.5035 208.224C48.4228 208.034 48.3825 207.812 48.3825 207.559C48.3825 207.346 48.4375 207.137 48.5475 206.932C48.6612 206.723 48.8482 206.536 49.1085 206.371C49.3688 206.202 49.7153 206.063 50.148 205.953C50.5807 205.843 51.1178 205.781 51.7595 205.766V205.436C51.7595 205.058 51.6788 204.78 51.5175 204.6C51.3598 204.417 51.1288 204.325 50.8245 204.325C50.6045 204.325 50.4212 204.351 50.2745 204.402C50.1278 204.453 49.9995 204.512 49.8895 204.578C49.7832 204.64 49.6842 204.697 49.5925 204.748C49.5008 204.8 49.4 204.825 49.29 204.825C49.1983 204.825 49.1195 204.802 49.0535 204.754C48.9875 204.706 48.9343 204.648 48.894 204.578L48.6465 204.143C49.2955 203.549 50.0783 203.252 50.995 203.252C51.325 203.252 51.6183 203.307 51.875 203.417C52.1353 203.524 52.3553 203.674 52.535 203.868C52.7147 204.059 52.8503 204.288 52.942 204.556C53.0373 204.824 53.085 205.117 53.085 205.436V209ZM50.445 208.153C50.5843 208.153 50.7127 208.14 50.83 208.114C50.9473 208.089 51.0573 208.05 51.16 207.999C51.2663 207.948 51.3672 207.885 51.4625 207.812C51.5615 207.735 51.6605 207.645 51.7595 207.542V206.591C51.3635 206.609 51.0317 206.644 50.764 206.695C50.5 206.743 50.2873 206.805 50.126 206.882C49.9647 206.959 49.8492 207.049 49.7795 207.152C49.7135 207.255 49.6805 207.366 49.6805 207.487C49.6805 207.726 49.7502 207.896 49.8895 207.999C50.0325 208.102 50.2177 208.153 50.445 208.153ZM56.2743 209.088C55.7867 209.088 55.4108 208.95 55.1468 208.675C54.8828 208.397 54.7508 208.014 54.7508 207.526V204.374H54.1788C54.1055 204.374 54.0413 204.351 53.9863 204.303C53.935 204.255 53.9093 204.184 53.9093 204.088V203.549L54.8168 203.401L55.1028 201.861C55.1175 201.788 55.1505 201.731 55.2018 201.69C55.2568 201.65 55.3247 201.63 55.4053 201.63H56.1093V203.406H57.5943V204.374H56.1093V207.432C56.1093 207.608 56.1533 207.746 56.2413 207.845C56.3293 207.944 56.4467 207.993 56.5933 207.993C56.6777 207.993 56.7473 207.984 56.8023 207.966C56.861 207.944 56.9105 207.922 56.9508 207.9C56.9948 207.878 57.0333 207.858 57.0663 207.839C57.0993 207.817 57.1323 207.806 57.1653 207.806C57.2057 207.806 57.2387 207.817 57.2643 207.839C57.29 207.858 57.3175 207.887 57.3468 207.927L57.7538 208.587C57.5558 208.752 57.3285 208.877 57.0718 208.961C56.8152 209.046 56.5493 209.088 56.2743 209.088ZM60.1212 203.357V209H58.7627V203.357H60.1212ZM60.3247 201.712C60.3247 201.83 60.3009 201.94 60.2532 202.042C60.2056 202.145 60.1414 202.235 60.0607 202.312C59.9837 202.389 59.8921 202.451 59.7857 202.499C59.6794 202.543 59.5657 202.565 59.4447 202.565C59.3274 202.565 59.2156 202.543 59.1092 202.499C59.0066 202.451 58.9167 202.389 58.8397 202.312C58.7627 202.235 58.7004 202.145 58.6527 202.042C58.6087 201.94 58.5867 201.83 58.5867 201.712C58.5867 201.591 58.6087 201.478 58.6527 201.371C58.7004 201.265 58.7627 201.173 58.8397 201.096C58.9167 201.019 59.0066 200.959 59.1092 200.915C59.2156 200.867 59.3274 200.843 59.4447 200.843C59.5657 200.843 59.6794 200.867 59.7857 200.915C59.8921 200.959 59.9837 201.019 60.0607 201.096C60.1414 201.173 60.2056 201.265 60.2532 201.371C60.3009 201.478 60.3247 201.591 60.3247 201.712ZM63.9931 203.269C64.3487 203.269 64.6751 203.326 64.9721 203.439C65.2727 203.553 65.5312 203.72 65.7476 203.94C65.9639 204.156 66.1326 204.424 66.2536 204.743C66.3746 205.058 66.4351 205.419 66.4351 205.826C66.4351 205.929 66.4296 206.015 66.4186 206.085C66.4112 206.151 66.3947 206.204 66.3691 206.244C66.3471 206.281 66.3159 206.309 66.2756 206.327C66.2352 206.342 66.1839 206.349 66.1216 206.349H62.6346C62.6749 206.928 62.8307 207.354 63.1021 207.625C63.3734 207.896 63.7327 208.032 64.1801 208.032C64.4001 208.032 64.5889 208.006 64.7466 207.955C64.9079 207.904 65.0472 207.847 65.1646 207.784C65.2856 207.722 65.3901 207.665 65.4781 207.614C65.5697 207.563 65.6577 207.537 65.7421 207.537C65.7971 207.537 65.8447 207.548 65.8851 207.57C65.9254 207.592 65.9602 207.623 65.9896 207.663L66.3856 208.158C66.2352 208.334 66.0666 208.483 65.8796 208.604C65.6926 208.721 65.4964 208.817 65.2911 208.89C65.0894 208.96 64.8822 209.009 64.6696 209.039C64.4606 209.068 64.2571 209.083 64.0591 209.083C63.6667 209.083 63.3019 209.018 62.9646 208.89C62.6272 208.758 62.3339 208.565 62.0846 208.312C61.8352 208.056 61.6391 207.74 61.4961 207.366C61.3531 206.989 61.2816 206.552 61.2816 206.057C61.2816 205.672 61.3439 205.311 61.4686 204.974C61.5932 204.633 61.7711 204.338 62.0021 204.088C62.2367 203.835 62.5209 203.636 62.8546 203.489C63.1919 203.342 63.5714 203.269 63.9931 203.269ZM64.0206 204.242C63.6246 204.242 63.3147 204.354 63.0911 204.578C62.8674 204.802 62.7244 205.119 62.6621 205.529H65.2141C65.2141 205.353 65.1902 205.188 65.1426 205.034C65.0949 204.877 65.0216 204.739 64.9226 204.622C64.8236 204.505 64.6989 204.413 64.5486 204.347C64.3982 204.277 64.2222 204.242 64.0206 204.242ZM67.537 209V203.357H68.3675C68.5435 203.357 68.659 203.439 68.714 203.604L68.8075 204.05C68.9212 203.933 69.0404 203.826 69.165 203.731C69.2934 203.636 69.4272 203.553 69.5665 203.483C69.7095 203.414 69.8617 203.361 70.023 203.324C70.1844 203.287 70.3604 203.269 70.551 203.269C70.859 203.269 71.1322 203.322 71.3705 203.428C71.6089 203.531 71.8069 203.678 71.9645 203.868C72.1259 204.055 72.2469 204.281 72.3275 204.545C72.4119 204.805 72.454 205.093 72.454 205.408V209H71.0955V205.408C71.0955 205.064 71.0149 204.798 70.8535 204.611C70.6959 204.42 70.4575 204.325 70.1385 204.325C69.9039 204.325 69.6839 204.378 69.4785 204.484C69.2732 204.591 69.0789 204.736 68.8955 204.919V209H67.537ZM75.6425 209.088C75.1548 209.088 74.779 208.95 74.515 208.675C74.251 208.397 74.119 208.014 74.119 207.526V204.374H73.547C73.4737 204.374 73.4095 204.351 73.3545 204.303C73.3032 204.255 73.2775 204.184 73.2775 204.088V203.549L74.185 203.401L74.471 201.861C74.4857 201.788 74.5187 201.731 74.57 201.69C74.625 201.65 74.6928 201.63 74.7735 201.63H75.4775V203.406H76.9625V204.374H75.4775V207.432C75.4775 207.608 75.5215 207.746 75.6095 207.845C75.6975 207.944 75.8148 207.993 75.9615 207.993C76.0458 207.993 76.1155 207.984 76.1705 207.966C76.2292 207.944 76.2787 207.922 76.319 207.9C76.363 207.878 76.4015 207.858 76.4345 207.839C76.4675 207.817 76.5005 207.806 76.5335 207.806C76.5738 207.806 76.6068 207.817 76.6325 207.839C76.6582 207.858 76.6857 207.887 76.715 207.927L77.122 208.587C76.924 208.752 76.6967 208.877 76.44 208.961C76.1833 209.046 75.9175 209.088 75.6425 209.088ZM81.3924 204.457C81.3557 204.516 81.3172 204.558 81.2769 204.583C81.2366 204.605 81.1852 204.616 81.1229 204.616C81.0569 204.616 80.9854 204.598 80.9084 204.561C80.8351 204.525 80.7489 204.484 80.6499 204.44C80.5509 204.393 80.4372 204.351 80.3089 204.314C80.1842 204.277 80.0357 204.259 79.8634 204.259C79.5957 204.259 79.3849 204.316 79.2309 204.429C79.0769 204.543 78.9999 204.692 78.9999 204.875C78.9999 204.996 79.0384 205.099 79.1154 205.183C79.1961 205.264 79.3006 205.335 79.4289 205.397C79.5609 205.46 79.7094 205.517 79.8744 205.568C80.0394 205.616 80.2081 205.669 80.3804 205.727C80.5527 205.786 80.7214 205.854 80.8864 205.931C81.0514 206.004 81.1981 206.1 81.3264 206.217C81.4584 206.331 81.5629 206.468 81.6399 206.629C81.7206 206.791 81.7609 206.985 81.7609 207.212C81.7609 207.484 81.7114 207.735 81.6124 207.966C81.5134 208.193 81.3686 208.391 81.1779 208.56C80.9872 208.725 80.7507 208.855 80.4684 208.95C80.1897 209.042 79.8689 209.088 79.5059 209.088C79.3116 209.088 79.1209 209.07 78.9339 209.033C78.7506 209 78.5727 208.952 78.4004 208.89C78.2317 208.828 78.0741 208.754 77.9274 208.67C77.7844 208.586 77.6579 208.494 77.5479 208.395L77.8614 207.878C77.9017 207.816 77.9494 207.768 78.0044 207.735C78.0594 207.702 78.1291 207.685 78.2134 207.685C78.2977 207.685 78.3766 207.709 78.4499 207.757C78.5269 207.805 78.6149 207.856 78.7139 207.911C78.8129 207.966 78.9284 208.017 79.0604 208.065C79.1961 208.113 79.3666 208.136 79.5719 208.136C79.7332 208.136 79.8707 208.118 79.9844 208.081C80.1017 208.041 80.1971 207.99 80.2704 207.927C80.3474 207.865 80.4024 207.794 80.4354 207.713C80.4721 207.629 80.4904 207.542 80.4904 207.454C80.4904 207.322 80.4501 207.214 80.3694 207.13C80.2924 207.046 80.1879 206.972 80.0559 206.91C79.9276 206.848 79.7791 206.793 79.6104 206.745C79.4454 206.694 79.2749 206.639 79.0989 206.58C78.9266 206.521 78.7561 206.453 78.5874 206.376C78.4224 206.296 78.2739 206.195 78.1419 206.074C78.0136 205.953 77.9091 205.804 77.8284 205.628C77.7514 205.452 77.7129 205.24 77.7129 204.99C77.7129 204.759 77.7587 204.539 77.8504 204.33C77.9421 204.121 78.0759 203.94 78.2519 203.786C78.4316 203.628 78.6534 203.504 78.9174 203.412C79.1851 203.317 79.4931 203.269 79.8414 203.269C80.2301 203.269 80.5839 203.333 80.9029 203.461C81.2219 203.59 81.4877 203.758 81.7004 203.967L81.3924 204.457ZM84.3116 201.047H85.5546C85.6829 201.047 85.7893 201.078 85.8736 201.14C85.9616 201.199 86.0203 201.28 86.0496 201.382L87.4026 206.14C87.4356 206.257 87.4649 206.386 87.4906 206.525C87.5199 206.661 87.5474 206.805 87.5731 206.959C87.6024 206.805 87.6336 206.661 87.6666 206.525C87.7033 206.386 87.7418 206.257 87.7821 206.14L89.3441 201.382C89.3734 201.298 89.4303 201.221 89.5146 201.151C89.6026 201.082 89.7089 201.047 89.8336 201.047H90.2681C90.3964 201.047 90.5028 201.078 90.5871 201.14C90.6714 201.199 90.7301 201.28 90.7631 201.382L92.3141 206.14C92.3948 206.375 92.4644 206.635 92.5231 206.921C92.5488 206.778 92.5744 206.64 92.6001 206.508C92.6294 206.376 92.6588 206.254 92.6881 206.14L94.0411 201.382C94.0668 201.291 94.1236 201.212 94.2116 201.146C94.2996 201.08 94.4059 201.047 94.5306 201.047H95.6911L93.2216 209H91.8851L90.1471 203.566C90.1251 203.496 90.1013 203.421 90.0756 203.34C90.0536 203.26 90.0316 203.174 90.0096 203.082C89.9876 203.174 89.9638 203.26 89.9381 203.34C89.9161 203.421 89.8941 203.496 89.8721 203.566L88.1176 209H86.7811L84.3116 201.047ZM97.9337 203.357V209H96.5752V203.357H97.9337ZM98.1372 201.712C98.1372 201.83 98.1134 201.94 98.0657 202.042C98.0181 202.145 97.9539 202.235 97.8732 202.312C97.7962 202.389 97.7046 202.451 97.5982 202.499C97.4919 202.543 97.3782 202.565 97.2572 202.565C97.1399 202.565 97.0281 202.543 96.9217 202.499C96.8191 202.451 96.7292 202.389 96.6522 202.312C96.5752 202.235 96.5129 202.145 96.4652 202.042C96.4212 201.94 96.3992 201.83 96.3992 201.712C96.3992 201.591 96.4212 201.478 96.4652 201.371C96.5129 201.265 96.5752 201.173 96.6522 201.096C96.7292 201.019 96.8191 200.959 96.9217 200.915C97.0281 200.867 97.1399 200.843 97.2572 200.843C97.3782 200.843 97.4919 200.867 97.5982 200.915C97.7046 200.959 97.7962 201.019 97.8732 201.096C97.9539 201.173 98.0181 201.265 98.0657 201.371C98.1134 201.478 98.1372 201.591 98.1372 201.712ZM101.327 209.088C100.839 209.088 100.464 208.95 100.2 208.675C99.9356 208.397 99.8036 208.014 99.8036 207.526V204.374H99.2316C99.1582 204.374 99.0941 204.351 99.0391 204.303C98.9877 204.255 98.9621 204.184 98.9621 204.088V203.549L99.8696 203.401L100.156 201.861C100.17 201.788 100.203 201.731 100.255 201.69C100.31 201.65 100.377 201.63 100.458 201.63H101.162V203.406H102.647V204.374H101.162V207.432C101.162 207.608 101.206 207.746 101.294 207.845C101.382 207.944 101.499 207.993 101.646 207.993C101.73 207.993 101.8 207.984 101.855 207.966C101.914 207.944 101.963 207.922 102.004 207.9C102.048 207.878 102.086 207.858 102.119 207.839C102.152 207.817 102.185 207.806 102.218 207.806C102.258 207.806 102.291 207.817 102.317 207.839C102.343 207.858 102.37 207.887 102.4 207.927L102.807 208.587C102.609 208.752 102.381 208.877 102.125 208.961C101.868 209.046 101.602 209.088 101.327 209.088ZM103.727 209V200.827H105.086V203.967C105.306 203.758 105.548 203.59 105.812 203.461C106.076 203.333 106.386 203.269 106.741 203.269C107.049 203.269 107.323 203.322 107.561 203.428C107.799 203.531 107.997 203.678 108.155 203.868C108.316 204.055 108.437 204.281 108.518 204.545C108.602 204.805 108.644 205.093 108.644 205.408V209H107.286V205.408C107.286 205.064 107.205 204.798 107.044 204.611C106.886 204.42 106.648 204.325 106.329 204.325C106.094 204.325 105.874 204.378 105.669 204.484C105.464 204.591 105.269 204.736 105.086 204.919V209H103.727ZM117.65 207.124C117.731 207.124 117.801 207.156 117.859 207.218L118.442 207.85C118.12 208.25 117.722 208.556 117.249 208.769C116.78 208.982 116.215 209.088 115.555 209.088C114.965 209.088 114.433 208.987 113.96 208.785C113.491 208.584 113.089 208.303 112.755 207.944C112.422 207.585 112.165 207.156 111.985 206.657C111.809 206.158 111.721 205.614 111.721 205.023C111.721 204.426 111.82 203.879 112.018 203.384C112.216 202.886 112.495 202.457 112.854 202.097C113.214 201.738 113.643 201.459 114.141 201.261C114.644 201.06 115.197 200.959 115.802 200.959C116.393 200.959 116.908 201.054 117.348 201.245C117.792 201.432 118.171 201.681 118.486 201.993L117.991 202.68C117.962 202.724 117.924 202.763 117.876 202.796C117.832 202.829 117.77 202.845 117.689 202.845C117.605 202.845 117.518 202.812 117.43 202.746C117.342 202.68 117.231 202.609 117.095 202.532C116.959 202.455 116.787 202.383 116.578 202.317C116.373 202.251 116.11 202.218 115.791 202.218C115.417 202.218 115.073 202.284 114.757 202.416C114.446 202.545 114.176 202.73 113.949 202.972C113.725 203.214 113.549 203.509 113.421 203.857C113.296 204.202 113.234 204.591 113.234 205.023C113.234 205.471 113.296 205.869 113.421 206.217C113.549 206.565 113.722 206.859 113.938 207.097C114.154 207.335 114.409 207.519 114.702 207.647C114.996 207.772 115.311 207.834 115.648 207.834C115.85 207.834 116.032 207.823 116.193 207.801C116.358 207.779 116.508 207.744 116.644 207.696C116.783 207.649 116.913 207.588 117.034 207.515C117.159 207.438 117.282 207.344 117.403 207.234C117.44 207.201 117.478 207.176 117.518 207.157C117.559 207.135 117.603 207.124 117.65 207.124ZM121.092 204.38H121.439C121.578 204.38 121.694 204.362 121.785 204.325C121.877 204.285 121.956 204.222 122.022 204.138L124.216 201.36C124.308 201.243 124.403 201.162 124.502 201.118C124.605 201.071 124.733 201.047 124.887 201.047H126.163L123.485 204.352C123.4 204.455 123.32 204.541 123.243 204.611C123.166 204.681 123.083 204.737 122.995 204.781C123.116 204.825 123.224 204.888 123.32 204.968C123.419 205.049 123.514 205.152 123.606 205.276L126.367 209H125.058C124.882 209 124.75 208.976 124.662 208.928C124.577 208.877 124.506 208.804 124.447 208.708L122.198 205.771C122.124 205.676 122.042 205.608 121.95 205.568C121.859 205.524 121.728 205.502 121.56 205.502H121.092V209H119.613V201.041H121.092V204.38ZM134.306 205.023C134.306 205.606 134.209 206.142 134.014 206.629C133.82 207.117 133.547 207.537 133.195 207.889C132.843 208.241 132.419 208.514 131.924 208.708C131.429 208.903 130.881 209 130.28 209H127.244V201.047H130.28C130.881 201.047 131.429 201.146 131.924 201.344C132.419 201.538 132.843 201.811 133.195 202.163C133.547 202.512 133.82 202.93 134.014 203.417C134.209 203.905 134.306 204.44 134.306 205.023ZM132.793 205.023C132.793 204.587 132.735 204.197 132.617 203.852C132.5 203.504 132.333 203.21 132.117 202.972C131.901 202.73 131.637 202.545 131.325 202.416C131.017 202.288 130.669 202.224 130.28 202.224H128.734V207.823H130.28C130.669 207.823 131.017 207.759 131.325 207.63C131.637 207.502 131.901 207.319 132.117 207.08C132.333 206.838 132.5 206.545 132.617 206.2C132.735 205.852 132.793 205.46 132.793 205.023Z" fill="#343C53"/>
<circle cx="88" cy="74" r="51" fill="#E4E8F3"/>
<rect x="63.2285" y="55.0571" width="51" height="52.4571" fill="white"/>
<rect x="67.7334" y="58.2729" width="42.5421" height="3.03872" fill="#E7E7E7"/>
<rect x="67.7324" y="64.2021" width="42.5421" height="3.03872" fill="#E7E7E7"/>
<rect x="67.7324" y="70.1313" width="42.5421" height="3.03872" fill="#E7E7E7"/>
<rect x="67.7324" y="76.0605" width="42.5421" height="3.03872" fill="#E7E7E7"/>
<rect x="67.7324" y="81.9897" width="42.5421" height="3.03872" fill="#E7E7E7"/>
<rect x="67.7324" y="87.9189" width="42.5421" height="3.03872" fill="#E7E7E7"/>
<rect x="67.7324" y="93.8481" width="42.5421" height="3.03872" fill="#E7E7E7"/>
<rect x="67.7324" y="99.7773" width="42.5421" height="3.03872" fill="#E7E7E7"/>
<path d="M103.3 36.1143H63.2285V55.0571H114.229V46.7166L103.3 36.1143Z" fill="#FF342E"/>
<path d="M68.3757 45.7346V48.7324H67.7539V41.3718H70.2613C71.0264 41.3718 71.6297 41.5673 72.0712 41.9582C72.516 42.3492 72.7385 42.8867 72.7385 43.5709C72.7385 44.2618 72.5245 44.796 72.0964 45.1734C71.6718 45.5475 71.055 45.7346 70.2462 45.7346H68.3757ZM68.3757 45.2088H70.2613C70.8646 45.2088 71.3247 45.0656 71.6415 44.7791C71.9583 44.4926 72.1167 44.0933 72.1167 43.581C72.1167 43.0721 71.9583 42.6677 71.6415 42.3677C71.328 42.0644 70.8815 41.9094 70.3018 41.9026H68.3757V45.2088Z" fill="white"/>
<path d="M74.1337 48.7324V41.3718H76.1913C76.7945 41.3718 77.3354 41.51 77.814 41.7864C78.2926 42.0594 78.665 42.452 78.9312 42.9643C79.2009 43.4765 79.3357 44.0596 79.3357 44.7134V45.3908C79.3357 46.048 79.2025 46.6311 78.9363 47.14C78.67 47.6489 78.2943 48.0415 77.809 48.3178C77.327 48.5942 76.7726 48.7324 76.1458 48.7324H74.1337ZM74.7555 41.9026V48.2066H76.1508C76.926 48.2066 77.5478 47.9505 78.0162 47.4382C78.4847 46.9226 78.7189 46.2266 78.7189 45.3504V44.7033C78.7189 43.8574 78.4881 43.1799 78.0263 42.671C77.5646 42.1621 76.9563 41.906 76.2014 41.9026H74.7555Z" fill="white"/>
<path d="M84.9724 45.2948H81.5398V48.7324H80.918V41.3718H85.4779V41.9026H81.5398V44.764H84.9724V45.2948Z" fill="white"/>
<path d="M104.029 36.8909L113.985 46.4781L104.916 47.2547L104.029 36.8909Z" fill="#FF6661"/>
</svg>
