<svg xmlns="http://www.w3.org/2000/svg" width="773" height="425" viewBox="0 0 773 425" fill="none"><path d="M688.737 164.21L682.351 156.792L681.32 151.023L675.552 149.375L677.2 145.666H668.341L667.311 138.661L660.718 142.37H653.507L647.739 141.752L639.086 142.37L633.729 148.345L631.875 153.29L629.402 157.616L624.252 161.325L612.921 163.591C612.921 163.591 601.795 163.179 601.177 163.179C600.559 163.179 594.172 162.767 594.172 162.767C594.172 162.767 571.304 149.993 570.48 149.787C569.45 149.375 563.475 144.43 563.475 144.43C563.475 144.43 554.204 142.37 552.968 142.782C551.732 143.194 547.199 144.43 546.375 144.842C545.345 145.254 539.782 145.254 539.782 145.254L536.074 153.702L518.974 156.998L516.708 166.064L511.557 170.391L507.849 167.094L513.617 159.677L514.647 149.581L520.416 148.345L524.536 151.435L533.189 151.023L536.28 143.606L537.31 138.661L540.194 134.747V130.832L537.722 129.184L539.988 124.445L541.018 119.706L536.28 115.791L529.275 110.022L530.305 99.9268L527.833 92.3035L531.953 89.007L528.451 85.7104L525.361 87.9768H520.828L510.115 100.339L509.497 116.822L488.894 121.56L485.392 125.887L484.98 140.31L478.387 142.37L474.267 139.073L478.387 135.365L481.477 130.008L479.623 125.681L474.473 124.445L476.327 120.53L481.477 121.766L491.985 115.173L497.753 108.58L499.608 104.666L494.251 103.635L486.422 103.223L480.653 96.6302L477.151 99.3087L476.121 107.344L472.618 107.962L473.237 98.6906L454.488 83.238H444.599L442.333 95.188L428.323 109.816L413.49 123.621L409.781 121.56L406.073 123.827L403.807 130.42L398.45 134.335L392.681 130.626V120.942L398.45 118.676L397.832 114.761L392.681 115.173L383.204 122.797L379.702 120.118L390.209 106.726L396.802 107.756L401.952 110.847L406.691 111.259L416.168 100.957L421.525 90.8613L432.856 82.4138L435.122 71.0819L442.127 65.313L441.509 58.7199L433.268 51.0966L427.911 53.363L424.203 57.6897L421.113 56.6595L422.761 52.7449L427.293 51.0966L430.384 45.1216L429.148 39.3526L424.409 37.7043L419.876 39.7647L416.374 44.0914L413.284 43.4733L412.666 33.7897L416.374 31.7293V35.438L424.203 34.2017L423.173 26.5785L407.309 18.131L401.334 16.0707L400.098 10.3017H397.008L391.239 16.6888L388.149 15.4526L394.742 9.06552L391.239 4.7388L381.556 0L378.466 4.7388L377.436 12.156H374.963L375.581 6.18104L368.989 11.1259L363.014 7.41725L370.843 3.70862L369.195 0H348.18L338.909 1.64828L317.277 19.3673L295.438 30.0811L281.841 40.3828V46.7699L274.218 45.1216L269.685 58.5138L252.585 56.4535L239.606 59.75L234.867 53.1569L224.36 55.8354L224.772 49.8604L214.883 39.5586L210.35 49.8604L205.406 49.4483L205.818 43.0612L210.969 39.1466L212.205 33.3776L208.084 35.644L204.376 37.9104L201.285 38.3224V42.6492L200.049 45.9457L194.281 41.2069C194.281 41.2069 197.783 37.2923 198.813 36.8802C199.843 36.4681 201.698 33.5836 201.698 33.5836L196.547 32.5535L190.16 33.7897L174.09 41.2069L149.986 64.9009L140.715 65.519L134.328 68.8156H129.589L125.469 74.7906L120.318 75.8207L121.966 79.5294L124.851 80.1475L129.589 72.1121L134.122 71.7L137.624 73.9664L145.865 74.9966L151.634 80.3535L151.222 85.2983L147.513 86.9466L137.624 78.2932L134.534 80.5595L136.8 85.5044L131.65 82.2078L131.237 85.9164L140.509 90.8613V95.8061L134.122 93.7458L128.971 89.8311L125.263 89.213L122.378 82.8259L119.288 79.5294L117.434 82.2078V86.9466L117.022 91.2733L113.519 91.6854L111.871 101.369L106.515 112.083C106.515 112.083 99.3038 113.319 98.2737 113.731C97.2436 114.143 95.1833 122.385 95.1833 122.385L96.2135 135.777L89.2086 148.757L81.9978 162.767L78.9075 173.069L71.9027 178.426L67.7822 187.698L60.7774 197.793L65.3099 197.175L72.5207 184.401L83.234 173.069L82.6159 168.33L85.7063 166.682L87.9725 156.998L92.093 157.616L107.957 152.878L116.198 159.883L120.73 167.918L116.198 168.33L115.374 165.446L113.107 168.124V173.481L107.957 176.778L99.7159 176.16L94.5653 178.22L91.6809 174.923L88.1785 178.22L82.4099 181.516L77.2593 185.843L76.8472 193.26L74.581 196.969L65.1039 200.678L57.481 204.386L62.0135 212.422L64.4858 221.487L70.4605 224.784L74.993 227.05L76.8472 231.377C77.4653 233.643 80.3496 234.055 80.3496 234.055C82.6159 235.085 83.44 237.146 83.44 237.146L86.5303 240.236V242.915L83.0279 243.533C83.0279 243.533 80.5557 244.769 79.9376 243.533C79.3195 242.297 79.5255 242.297 78.7015 241.267H74.1689L70.6665 237.558C73.7569 233.231 73.7569 233.231 73.7569 233.231C73.7569 233.231 69.6364 229.523 67.5762 229.523C67.1641 229.523 66.9581 229.523 66.7521 229.935C65.5159 231.583 63.2497 229.935 63.2497 229.935C60.9834 230.553 60.7774 232.201 59.5413 229.935C58.3051 227.668 58.3051 226.638 57.8931 225.608C57.481 224.578 56.6569 222.311 56.6569 222.311C55.4208 220.045 53.7726 218.603 53.7726 218.603L50.2702 219.839C48.828 221.693 45.7377 226.02 45.1196 232.613C44.9136 235.498 45.3256 237.97 45.7377 239.618L40.9991 241.885L37.2907 261.87L34.2004 263.93L35.8486 270.317H31.11L33.9943 275.262L28.0197 291.333L24.9293 296.072L26.7835 301.429L29.2558 303.695L21.4269 305.755V310.082L24.5173 314.409L19.1606 318.117V321.414L24.3112 323.062L25.3414 329.037H34.8184L37.9088 332.334H56.2449L63.4557 331.098L65.722 325.123L60.3654 320.384H55.6268L55.0087 316.675L47.7979 316.057L48.21 311.73L49.4461 309.464L45.9437 307.816V304.725L49.6521 300.398L48.0039 295.042L49.2401 291.333L42.6473 284.328L40.3811 276.292L42.6473 272.996L46.1497 274.232L48.0039 277.941L50.2702 276.292L62.6316 285.976L67.3702 280.619V276.292L72.5207 277.941L76.2292 276.292V281.031L73.1388 282.679L71.9027 287.006L68.1942 289.067V295.454L72.7268 297.72L78.0834 292.363L86.7364 289.067V292.157L81.5858 293.805L80.9677 296.896L73.9629 306.579L74.993 308.64L82.8219 310.288L86.5303 318.736L94.1532 319.354L104.042 328.419L110.635 326.153L115.374 319.354L107.133 306.373C107.133 306.373 106.103 299.368 105.278 298.75C104.248 298.132 106.927 294.011 106.927 294.011L111.665 294.629L115.374 301.635V306.373L118.464 311.318L125.469 315.027L128.559 311.112L126.705 299.78L126.293 290.509L130.413 291.127L133.504 300.398L131.65 305.755L135.152 309.67L141.539 313.997L147.307 312.348V303.901L149.162 295.866L154.518 295.248L162.759 300.192L169.764 304.931L174.296 304.313V299.574L172.03 295.248L176.151 295.866L181.301 292.157L187.688 292.775L197.165 302.047L203.552 307.816L207.054 305.755L201.698 299.162L201.079 290.097L204.788 280.825L210.144 276.086V282.679L207.26 292.363L216.737 298.956V302.047H212.205L211.175 298.956H208.702L210.969 307.61L216.737 309.67L229.717 310.7L234.249 308.022L237.134 308.64V313.379L253.615 316.469L257.324 313.379L254.44 301.635L238.37 304.313L228.481 301.635L225.39 299.368L224.978 292.775L221.888 288.036L219.003 282.061L220.652 276.086L224.154 271.76H230.747L242.49 276.086L241.254 282.061L234.661 288.448L235.691 292.775L241.048 294.423L248.259 295.042L242.902 291.127L249.495 290.097L257.324 297.72V301.017H261.444L259.796 305.961L264.535 308.228L273.188 323.268L279.162 328.625H284.519V333.57L290.494 334.806L302.443 342.842L298.735 344.49L293.378 349.229L297.086 351.907H302.443L313.568 359.942H323.663L341.381 378.692L345.09 371.686L347.974 373.953L352.713 373.541L354.979 370.862L361.984 371.892L369.813 377.249L381.556 374.571L390.209 364.269L402.983 363.857V367.772L393.505 367.36L392.475 370.656L405.249 371.274L410.605 379.928H413.49L409.987 370.862L413.49 369.214L415.962 373.541L417.61 377.455L419.876 378.074L422.761 382.4V362.415L421.113 354.38L429.972 358.088L432.444 361.797L436.564 360.767L438.213 364.063L450.574 360.973V355.616H457.785V344.49L454.282 343.46L453.252 338.515L449.132 338.103L446.866 333.364L442.127 333.776L442.745 338.103L437.388 337.485V343.872L431.002 349.229L423.379 351.495L421.525 347.58L426.263 344.284L425.027 328.213H443.157L444.805 322.444V315.027L450.574 305.343L447.69 300.398L455.931 292.775L457.785 295.454L454.694 300.398L455.931 302.665L460.669 302.253V308.846L466.438 310.494V314.203L455.725 312.967L450.986 311.318L449.338 316.057L450.368 327.801L453.458 333.57L457.991 334.188L457.373 341.193L464.378 341.605L466.644 345.314L479.005 332.334L507.849 318.323L543.285 306.373L575.218 294.629L599.323 290.303L620.955 283.916L636.407 269.493L638.261 271.142L632.493 279.177L636.201 280.825L649.593 279.177L669.165 242.297L677.406 218.603L689.149 186.461L690.385 172.657L688.737 164.21ZM124.645 145.048H117.434L112.283 140.722L107.751 142.164V134.541L112.283 131.862L110.635 126.093H106.103C106.103 126.093 107.133 119.706 107.751 118.676C108.369 117.646 107.751 115.997 107.751 115.997L113.725 109.61L120.318 112.907L121.966 106.52L125.675 108.168L129.177 115.791L126.087 119.088H118.464V124.033H122.584L122.172 130.42L116.198 132.686L115.58 135.777L121.554 138.043C121.554 138.043 126.293 139.073 126.293 140.104C126.499 141.546 124.645 145.048 124.645 145.048ZM124.851 121.354C127.117 121.354 127.117 121.354 127.117 121.354C130.001 122.591 132.268 126.093 132.268 126.093L131.031 129.184H127.323V126.093C125.469 125.681 124.851 121.354 124.851 121.354ZM134.946 141.546L130.413 143.812L128.147 138.867L129.177 133.923L132.062 135.571H135.152L138.86 133.923L140.509 139.691L134.946 141.546ZM200.873 63.8707H197.783L194.899 57.4837H192.426L197.783 50.8906H200.873V63.8707Z" fill="#D5EEF6"></path><path d="M180.683 297.307L182.537 301.015L187.893 302.664V309.257H195.31L192.426 303.282L187.893 297.307H180.683Z" fill="#D5EEF6"></path><path d="M350.652 377.456L352.507 381.164L357.245 383.637L362.602 379.104L356.627 374.777L350.652 377.456Z" fill="#D5EEF6"></path><path d="M342.411 385.285L346.532 383.637L350.652 386.521L354.773 385.285H364.456L370.842 390.23L375.375 391.878L377.847 395.587L391.239 397.235L400.098 399.913L403.188 397.853V394.144L406.072 391.878L408.957 399.913L404.218 404.034L401.334 406.301L402.57 410.215L401.334 412.07H394.947L397.419 419.281H391.239L391.445 424.638L385.676 420.723L380.319 419.693L373.933 410.627L371.254 410.009L370.842 404.24L364.868 402.18L356.627 394.557L350.652 395.999V389.612L346.12 390.23L342.411 385.285Z" fill="#D5EEF6"></path><path d="M412.047 400.533L414.932 404.242L413.283 410.217H408.957L404.836 416.398V406.714L409.781 404.242L412.047 400.533Z" fill="#D5EEF6"></path><path d="M373.109 381.165H381.35L388.973 376.426L398.862 379.104L401.334 385.491V394.145H393.093L387.118 390.23L378.878 389.612L373.109 385.491V381.165Z" fill="#D5EEF6"></path><path d="M581.685 90C581.685 90 551 90 551 114.251V176.749C551 176.749 551 201 581.685 201H742.315C742.315 201 773 201 773 176.749V114.251C773 114.251 773 90 742.315 90H581.685Z" fill="#FCF4D8"></path><path d="M572.539 230.141C571.509 292.363 538.134 351.701 487.04 386.933C490.336 375.807 492.808 363.857 494.25 351.495C391.651 398.677 256.087 390.436 190.778 315.645C278.544 360.973 377.023 349.847 446.659 304.313C451.604 301.017 456.548 297.72 461.287 294.217C451.192 288.448 442.127 282.679 433.886 277.323C472.824 268.257 518.561 258.367 572.539 230.141Z" fill="#FCE3BA"></path><path d="M24.7228 261.252C24.7228 261.252 0 261.252 0 285.976V349.847C0 349.847 0 374.571 24.7228 374.571H154.312C154.312 374.571 179.034 374.571 179.034 349.847V285.976C179.034 285.976 179.034 261.252 154.312 261.252H24.7228Z" fill="#FCF4D8"></path><path d="M54.1797 301.336H46.7891C46.7891 301.836 46.8203 302.365 46.8828 302.922H45.7969C45.8594 302.323 45.8906 301.794 45.8906 301.336V291.047C45.8906 290.609 45.8594 290.12 45.7969 289.578C46.3854 289.641 46.9141 289.672 47.3828 289.672H53.6328C54.1693 289.672 54.6823 289.641 55.1719 289.578C55.1094 290.151 55.0781 290.641 55.0781 291.047V300.789C55.0781 301.336 55.1094 301.914 55.1719 302.523H54.0859C54.1484 302.06 54.1797 301.664 54.1797 301.336ZM46.7891 290.469V293.273H54.1797V290.469H46.7891ZM46.7891 294.07V296.906H54.1797V294.07H46.7891ZM46.7891 297.703V300.539H54.1797V297.703H46.7891ZM62.8516 289.211L63.5703 288.469C64.3724 289.12 65.0938 289.776 65.7344 290.438L65.0469 291.125H67.8125C68.4219 290.359 68.9453 289.438 69.3828 288.359L70.5938 288.969C70.724 289.031 70.7839 289.089 70.7734 289.141C70.7734 289.198 70.7031 289.242 70.5625 289.273C70.2448 289.346 69.9948 289.521 69.8125 289.797C69.5052 290.245 69.1953 290.688 68.8828 291.125H72.2891C72.6536 291.125 73.1068 291.094 73.6484 291.031V292.023C73.1484 291.961 72.6953 291.93 72.2891 291.93H60.7109C60.3359 291.93 59.9141 291.961 59.4453 292.023V291.031C59.9349 291.094 60.3568 291.125 60.7109 291.125H64.8672C64.2578 290.432 63.5859 289.794 62.8516 289.211ZM60.9453 293.32C61.4714 293.383 61.9089 293.414 62.2578 293.414H64.9453C65.3099 293.414 65.737 293.383 66.2266 293.32C66.1641 293.872 66.1328 294.336 66.1328 294.711V301.625C66.1432 302.188 66.0052 302.565 65.7188 302.758C65.4375 302.982 64.849 303.138 63.9531 303.227C63.8906 302.82 63.7161 302.404 63.4297 301.977C63.9714 302.044 64.3672 302.078 64.6172 302.078C64.7682 302.078 64.8828 302.065 64.9609 302.039C65.1745 301.987 65.276 301.789 65.2656 301.445V299.062H61.9062V301.945C61.9062 302.284 61.9401 302.737 62.0078 303.305H60.9453C61.013 302.747 61.0469 302.299 61.0469 301.961V294.711C61.0469 294.383 61.013 293.919 60.9453 293.32ZM61.9062 296.68V298.297H65.2656V296.68H61.9062ZM61.9062 294.188V295.914H65.2656V294.188H61.9062ZM69.1719 300.023H68.0859C68.1484 299.492 68.1797 299.044 68.1797 298.68V295.93C68.1797 295.503 68.1484 295.016 68.0859 294.469L69.2812 294.633C69.4115 294.643 69.4766 294.674 69.4766 294.727C69.487 294.758 69.4453 294.833 69.3516 294.953C69.1589 295.156 69.0677 295.456 69.0781 295.852V298.664C69.0781 299.07 69.1094 299.523 69.1719 300.023ZM69.1562 303.516C69.125 303.099 68.9818 302.677 68.7266 302.25C69.2682 302.323 69.6927 302.359 70 302.359C70.2292 302.359 70.4062 302.339 70.5312 302.297C70.8281 302.234 70.9714 302.005 70.9609 301.609V294.359C70.9609 293.922 70.9297 293.417 70.8672 292.844L72.0859 293C72.2214 293.01 72.2943 293.042 72.3047 293.094C72.3151 293.135 72.2682 293.211 72.1641 293.32C71.9714 293.534 71.8698 293.839 71.8594 294.234V301.828C71.8802 302.505 71.7318 302.922 71.4141 303.078C71.1484 303.281 70.3958 303.427 69.1562 303.516ZM75.3281 301.383C76.2708 300.435 76.9219 299.396 77.2812 298.266L78.2891 298.859C78.388 298.911 78.4323 298.958 78.4219 299C78.401 299.031 78.3203 299.062 78.1797 299.094C78.0182 299.115 77.8542 299.286 77.6875 299.609C77.2708 300.365 76.8099 301.117 76.3047 301.867C76.0495 301.674 75.724 301.513 75.3281 301.383ZM76.7891 294.344H78.3203C77.8307 293.703 77.3203 293.133 76.7891 292.633L77.4922 292.055C77.9714 292.544 78.4896 293.104 79.0469 293.734L78.4219 294.344H79.7656C80.3854 293.354 80.8021 292.479 81.0156 291.719L82.0547 292.297C82.1693 292.359 82.2214 292.411 82.2109 292.453C82.2109 292.5 82.1536 292.544 82.0391 292.586C81.8984 292.648 81.7682 292.727 81.6484 292.82C81.5443 292.94 81.2214 293.448 80.6797 294.344H81.875C82.1719 294.333 82.5885 294.302 83.125 294.25V295.242C82.6146 295.185 82.1927 295.151 81.8594 295.141H80.0547V296.844H81.6328C81.9974 296.828 82.4141 296.794 82.8828 296.742V297.734C82.3411 297.682 81.9141 297.651 81.6016 297.641H80.0547V301.383C80.0755 302.044 79.9583 302.451 79.7031 302.602C79.5 302.794 78.9062 302.922 77.9219 302.984C77.8906 302.568 77.7578 302.195 77.5234 301.867C77.862 301.914 78.1406 301.938 78.3594 301.938C78.5833 301.938 78.7474 301.914 78.8516 301.867C79.0651 301.789 79.1667 301.57 79.1562 301.211V297.641H77.2031C76.7969 297.651 76.3542 297.682 75.875 297.734V296.742C76.4531 296.81 76.8958 296.844 77.2031 296.844H79.1562V295.141H76.7891C76.4766 295.151 76.0495 295.185 75.5078 295.242V294.25C76.0286 294.302 76.4557 294.333 76.7891 294.344ZM75.8438 291.672V290.68C76.4844 290.742 76.9323 290.773 77.1875 290.773H79.5703C79.1641 290.294 78.625 289.768 77.9531 289.195L78.625 288.555C79.0312 288.883 79.6094 289.398 80.3594 290.102L79.7188 290.773H81.5703C81.862 290.763 82.2839 290.732 82.8359 290.68V291.672C82.2839 291.62 81.862 291.589 81.5703 291.578H77.1875C76.974 291.578 76.526 291.609 75.8438 291.672ZM80.6094 298.844L81.4141 298.328C81.8307 298.938 82.2396 299.609 82.6406 300.344L81.7656 300.875C81.4219 300.083 81.0365 299.406 80.6094 298.844ZM88.3047 288.758L89.1406 289.625C89.224 289.708 89.2552 289.773 89.2344 289.82C89.2135 289.862 89.1406 289.878 89.0156 289.867C88.9583 289.862 88.8802 289.859 88.7812 289.859C88.4688 289.859 88.1615 289.914 87.8594 290.023C87.2969 290.206 86.2474 290.51 84.7109 290.938V294.102H88.5938C88.8854 294.102 89.3125 294.07 89.875 294.008V295C89.3438 294.948 88.9167 294.917 88.5938 294.906H87.7969V301.734C87.8177 302.172 87.849 302.646 87.8906 303.156H86.8047C86.8672 302.51 86.8984 302.036 86.8984 301.734V294.906H84.7266C84.7474 297.292 84.6302 298.927 84.375 299.812C84.1302 300.828 83.5312 301.961 82.5781 303.211C82.3542 302.94 82.0234 302.711 81.5859 302.523C82.5026 301.732 83.1016 300.828 83.3828 299.812C83.6797 298.844 83.8229 297.198 83.8125 294.875V291.594C83.8125 291.583 83.8073 291.487 83.7969 291.305C83.7552 290.888 83.724 290.503 83.7031 290.148C83.7969 290.164 83.8906 290.172 83.9844 290.172C84.2865 290.172 84.6719 290.107 85.1406 289.977C86.5885 289.591 87.6432 289.185 88.3047 288.758ZM100.148 290.906C100.659 290.969 101.081 291 101.414 291H103.922C104.276 291.01 104.693 290.979 105.172 290.906C105.099 291.438 105.068 291.943 105.078 292.422V300.906C105.068 301.297 105.099 301.74 105.172 302.234H104.086C104.148 301.755 104.18 301.323 104.18 300.938V300.539H101.141V301.125C101.13 301.5 101.161 301.943 101.234 302.453H100.148C100.211 301.953 100.242 301.521 100.242 301.156V292.422C100.253 291.995 100.221 291.49 100.148 290.906ZM104.18 299.766V291.766H101.141V299.766H104.18ZM92.7266 291.977H94.4688C94.4688 290.346 94.4479 289.242 94.4062 288.664L95.6484 288.805C95.8099 288.815 95.8854 288.859 95.875 288.938C95.875 288.99 95.7943 289.091 95.6328 289.242C95.5078 289.346 95.4453 289.622 95.4453 290.07C95.4453 290.497 95.4453 290.833 95.4453 291.078C95.4349 291.37 95.4245 291.669 95.4141 291.977H97.2188C97.6771 291.987 98.1198 291.956 98.5469 291.883C98.4635 292.263 98.3464 294.987 98.1953 300.055C98.1745 300.961 98.0104 301.547 97.7031 301.812C97.4219 302.125 96.776 302.339 95.7656 302.453C95.6771 301.984 95.4948 301.565 95.2188 301.195C95.5469 301.253 95.8385 301.281 96.0938 301.281C96.4115 301.281 96.6484 301.234 96.8047 301.141C97.0911 300.984 97.2448 300.607 97.2656 300.008C97.3958 297.758 97.4818 295.336 97.5234 292.742H95.3984C95.4089 297.466 94.4688 300.966 92.5781 303.242C92.3229 303.112 91.8854 302.961 91.2656 302.789C93.3906 301.211 94.4531 297.862 94.4531 292.742H92.7578C92.4922 292.732 92.1302 292.766 91.6719 292.844V291.883C92.0938 291.956 92.4453 291.987 92.7266 291.977ZM110.359 302.188C111.594 301.333 112.388 300.292 112.742 299.062C112.945 298.411 113.083 297.612 113.156 296.664C113.208 295.992 113.234 295.19 113.234 294.258C113.234 293.898 113.229 293.464 113.219 292.953C113.208 292.344 113.172 291.74 113.109 291.141C113.547 291.219 114.031 291.253 114.562 291.242H116.5V289.914C116.51 289.336 116.479 288.828 116.406 288.391L117.688 288.555C117.74 288.57 117.766 288.596 117.766 288.633C117.766 288.664 117.745 288.706 117.703 288.758C117.479 288.909 117.378 289.341 117.398 290.055V291.242H119.891C120.276 291.253 120.745 291.219 121.297 291.141C120.927 292.005 120.586 292.982 120.273 294.07C119.956 293.987 119.635 293.93 119.312 293.898C119.505 293.544 119.719 292.924 119.953 292.039H117.398V295.352H118.82C119.216 295.362 119.669 295.331 120.18 295.258C119.57 297.398 118.776 299.099 117.797 300.359C118.969 301.375 120.349 302.01 121.938 302.266C121.5 302.615 121.198 302.992 121.031 303.398C119.396 302.633 118.12 301.844 117.203 301.031C116.104 302.01 114.802 302.885 113.297 303.656C113.083 303.281 112.776 302.956 112.375 302.68C113.953 302.315 115.37 301.547 116.625 300.375C115.656 299.161 114.867 297.753 114.258 296.148H114.117C114.117 298.773 113.232 301.005 111.461 302.844C111.128 302.531 110.76 302.312 110.359 302.188ZM114.133 292.039C114.133 292.862 114.133 293.508 114.133 293.977C114.133 294.497 114.128 294.956 114.117 295.352H116.5V292.039H114.133ZM107.125 299.562C107.938 299.432 108.706 299.24 109.43 298.984V293.914H108.469C108.193 293.904 107.846 293.935 107.43 294.008V293.016C107.779 293.089 108.109 293.12 108.422 293.109H109.43V290.312C109.44 289.781 109.406 289.273 109.328 288.789L110.531 288.953C110.641 288.964 110.695 288.99 110.695 289.031C110.695 289.073 110.646 289.143 110.547 289.242C110.396 289.367 110.32 289.771 110.32 290.453V293.109H111.383C111.638 293.12 111.964 293.089 112.359 293.016V294.008C111.964 293.935 111.628 293.904 111.352 293.914H110.32V298.727C111.195 298.482 111.901 298.247 112.438 298.023L112.32 299.125C110.529 299.542 108.93 300.07 107.523 300.711L107.125 299.562ZM117.203 299.672C117.995 298.682 118.565 297.508 118.914 296.148H115.219C115.719 297.492 116.38 298.667 117.203 299.672ZM123.312 296.664C125.792 295.555 127.552 293.82 128.594 291.461H124.898C124.591 291.461 124.169 291.495 123.633 291.562V290.57C124.128 290.633 124.549 290.664 124.898 290.664H128.867C129.122 289.961 129.276 289.198 129.328 288.375L130.641 288.633C130.771 288.654 130.841 288.69 130.852 288.742C130.852 288.794 130.794 288.859 130.68 288.938C130.466 289.062 130.326 289.26 130.258 289.531C130.154 289.943 130.047 290.32 129.938 290.664H135.969C136.365 290.664 136.831 290.633 137.367 290.57V291.562C136.852 291.484 136.385 291.451 135.969 291.461H129.672C129.391 292.122 129.047 292.768 128.641 293.398H133.352C133.883 293.409 134.443 293.378 135.031 293.305C134.964 293.956 134.93 294.51 134.93 294.969V301.703C134.951 302.333 134.818 302.729 134.531 302.891C134.307 303.083 133.625 303.237 132.484 303.352C132.443 302.883 132.305 302.44 132.07 302.023C132.549 302.086 132.935 302.117 133.227 302.117C133.43 302.117 133.578 302.102 133.672 302.07C133.906 302.008 134.018 301.799 134.008 301.445V299.43H128.32V301.75C128.32 302.135 128.354 302.633 128.422 303.242H127.297C127.365 302.643 127.398 302.146 127.398 301.75V295.062C126.596 295.927 125.583 296.776 124.359 297.609C124.099 297.286 123.75 296.971 123.312 296.664ZM128.32 294.203V296.008H134.008V294.203H128.32ZM128.32 296.805V298.633H134.008V296.805H128.32ZM48.2422 334.758C49.1484 335.398 50.013 336.099 50.8359 336.859C52.1693 335.875 53.3151 334.76 54.2734 333.516H48.3906C47.2708 334.625 46.2578 335.531 45.3516 336.234C45.1016 335.953 44.7318 335.69 44.2422 335.445C46.2786 334.539 47.9583 332.924 49.2812 330.602L50.5 331.141C50.6042 331.188 50.6641 331.232 50.6797 331.273C50.6641 331.315 50.6042 331.346 50.5 331.367C50.2656 331.466 50.0573 331.609 49.875 331.797C49.6719 332.068 49.4062 332.372 49.0781 332.711H54.8359C55.638 332.659 56.0964 332.628 56.2109 332.617C55.9974 332.893 55.651 333.331 55.1719 333.93C53.7656 335.669 51.9844 337.258 49.8281 338.695H55.0625C55.6354 338.695 56.0625 338.664 56.3438 338.602C56.276 338.93 56.2422 339.357 56.2422 339.883V344.188C56.2422 344.589 56.276 344.94 56.3438 345.242H55.2188C55.2812 345.029 55.3125 344.682 55.3125 344.203H48.3906C48.3906 344.734 48.4219 345.102 48.4844 345.305H47.4141C47.4766 344.982 47.5078 344.539 47.5078 343.977V339.93C46.4193 340.409 45.3698 340.841 44.3594 341.227C44.1875 340.883 43.8984 340.523 43.4922 340.148C45.4661 339.904 47.6302 338.997 49.9844 337.43C49.2812 336.716 48.4714 336.089 47.5547 335.547L48.2422 334.758ZM48.4375 339.492V343.43H55.3125V339.492H48.4375ZM63.2031 344.375C64.026 343.417 64.5755 342.409 64.8516 341.352C65.138 340.326 65.276 338.794 65.2656 336.758V333.898C65.2656 333.492 65.2344 332.979 65.1719 332.359C65.6615 332.422 66.1094 332.453 66.5156 332.453H69.3828C68.8568 331.88 68.2734 331.37 67.6328 330.922L68.2578 330.203C68.9505 330.724 69.5755 331.234 70.1328 331.734L69.5078 332.453H72.1016C72.7318 332.453 73.1641 332.422 73.3984 332.359V333.32C72.9505 333.258 72.5182 333.227 72.1016 333.227H66.1328V336.391H68.9609V335.18H68.0234C67.6797 335.18 67.2995 335.211 66.8828 335.273V334.344C67.3307 334.406 67.7109 334.438 68.0234 334.438H68.9609V334.25C68.9609 334.036 68.9297 333.737 68.8672 333.352L69.9844 333.516C70.1042 333.526 70.1641 333.557 70.1641 333.609C70.1745 333.651 70.1328 333.708 70.0391 333.781C69.8984 333.911 69.8281 334.089 69.8281 334.312V334.438H71.3125C71.7188 334.448 72.1562 334.417 72.625 334.344C72.5625 334.812 72.5312 335.229 72.5312 335.594V336.391H72.9141C73.2161 336.401 73.5677 336.37 73.9688 336.297V337.258C73.6094 337.19 73.2578 337.156 72.9141 337.156H72.5312V338.188C72.5312 338.495 72.5625 338.893 72.625 339.383C72.1771 339.32 71.7448 339.289 71.3281 339.289H69.8281V339.414C69.8281 339.628 69.849 339.896 69.8906 340.219H68.8984C68.9401 339.865 68.9609 339.596 68.9609 339.414V339.289H68.0547C67.7214 339.289 67.3151 339.32 66.8359 339.383V338.453C67.3047 338.521 67.7109 338.555 68.0547 338.555H68.9609V337.156H66.1172C66.1224 337.333 66.125 337.539 66.125 337.773C66.125 340.638 65.5078 343.031 64.2734 344.953C63.9974 344.698 63.6406 344.505 63.2031 344.375ZM69.8281 337.156V338.555H71.6719V337.156H69.8281ZM69.8281 335.18V336.391H71.6719V335.18H69.8281ZM66.4688 340.633C66.9688 340.695 67.401 340.727 67.7656 340.727H71.5859C71.9818 340.737 72.4089 340.706 72.8672 340.633C72.8047 341.133 72.7734 341.526 72.7734 341.812V343.961C72.7734 344.357 72.8047 344.805 72.8672 345.305H71.8125C71.8646 345.029 71.8958 344.75 71.9062 344.469H67.4297C67.4505 344.76 67.4818 345.07 67.5234 345.398H66.4688C66.5312 344.951 66.5625 344.552 66.5625 344.203V341.914C66.5625 341.612 66.5312 341.185 66.4688 340.633ZM67.4297 341.461V343.734H71.9062V341.461H67.4297ZM58.9141 341.398C60.1745 340.32 61.125 338.641 61.7656 336.359H60.6797C60.2943 336.359 59.8568 336.391 59.3672 336.453V335.461C59.8776 335.529 60.3151 335.562 60.6797 335.562H61.8281V331.93C61.8281 331.471 61.7969 330.964 61.7344 330.406L62.9922 330.57C63.1536 330.591 63.2396 330.628 63.25 330.68C63.2604 330.732 63.1979 330.812 63.0625 330.922C62.849 331.104 62.737 331.451 62.7266 331.961V335.562H63.5234C63.8307 335.562 64.2682 335.529 64.8359 335.461V336.453C64.3672 336.391 63.9297 336.359 63.5234 336.359H62.7266V337.031C63.388 337.693 64.0755 338.44 64.7891 339.273L63.9219 339.93C63.5729 339.341 63.1745 338.807 62.7266 338.328V344.008C62.7266 344.424 62.7578 344.904 62.8203 345.445H61.7344C61.7969 344.893 61.8281 344.414 61.8281 344.008V338.727C61.349 339.857 60.763 340.924 60.0703 341.93C59.7474 341.695 59.362 341.518 58.9141 341.398ZM59.4609 332.648L60.1953 332.117C60.7266 332.857 61.2005 333.583 61.6172 334.297L60.7891 334.805C60.4245 334.049 59.9818 333.331 59.4609 332.648ZM62.8984 334.523C63.3672 333.732 63.7474 332.846 64.0391 331.867L64.9609 332.328C65.0703 332.38 65.1198 332.427 65.1094 332.469C65.1094 332.516 65.0443 332.565 64.9141 332.617C64.7682 332.68 64.651 332.839 64.5625 333.094C64.349 333.661 64.0833 334.271 63.7656 334.922C63.5208 334.75 63.2318 334.617 62.8984 334.523ZM77.3672 343.016C79.3516 341.896 80.6719 340.242 81.3281 338.055H80.1328C79.7161 338.055 79.2682 338.086 78.7891 338.148V337.156C79.2682 337.224 79.7161 337.258 80.1328 337.258H81.2031C81.6406 337.258 82.0885 337.224 82.5469 337.156C81.9062 339.781 80.5469 341.948 78.4688 343.656C78.0833 343.391 77.7161 343.177 77.3672 343.016ZM85.6016 339.477C86.9661 341.216 88.3854 342.315 89.8594 342.773C89.4531 343.044 89.1068 343.375 88.8203 343.766C86.8255 342.521 85.237 340.789 84.0547 338.57V343.461C84.0651 344.091 83.888 344.518 83.5234 344.742C83.2161 344.977 82.5443 345.104 81.5078 345.125C81.4453 344.708 81.3021 344.294 81.0781 343.883C81.5938 343.956 82.0078 343.992 82.3203 343.992C82.5234 343.992 82.6693 343.977 82.7578 343.945C83.0234 343.893 83.1458 343.669 83.125 343.273V336.695C83.125 336.299 83.0938 335.841 83.0312 335.32L84.3203 335.516C84.4297 335.526 84.4844 335.552 84.4844 335.594C84.4844 335.635 84.4375 335.682 84.3438 335.734C84.1406 335.844 84.0391 336.164 84.0391 336.695C84.2734 337.305 84.6354 337.992 85.125 338.758C86.4896 337.961 87.4714 337.193 88.0703 336.453L89.0156 337.516C89.0625 337.573 89.0859 337.612 89.0859 337.633C89.0859 337.643 89.0833 337.651 89.0781 337.656C89.0573 337.688 88.987 337.698 88.8672 337.688C88.6016 337.677 88.3021 337.784 87.9688 338.008C87.2552 338.487 86.4661 338.977 85.6016 339.477ZM75.0312 344.266C76.4688 342.943 77.1927 340.367 77.2031 336.539V332.617C77.2031 332.221 77.1719 331.763 77.1094 331.242C77.6406 331.305 78.151 331.336 78.6406 331.336H86.9141C87.4297 331.336 87.9271 331.305 88.4062 331.242C88.3385 331.732 88.3047 332.18 88.3047 332.586V333.516C88.3047 333.964 88.3385 334.443 88.4062 334.953C87.901 334.891 87.3776 334.859 86.8359 334.859H78.1016V337C78.0807 340.052 77.5625 342.536 76.5469 344.453C76.0677 344.349 75.5625 344.286 75.0312 344.266ZM87.4141 334.055V332.133H78.1016V334.055H87.4141ZM91.2188 339C92.0521 338.635 92.9688 338.133 93.9688 337.492C93.9688 337.409 93.974 337.208 93.9844 336.891C93.9844 336.62 93.9844 336.453 93.9844 336.391L93.3281 336.844C92.7865 336.031 92.1745 335.214 91.4922 334.391L92.3438 333.766C92.9792 334.557 93.526 335.279 93.9844 335.93C93.974 334.456 93.9219 333.271 93.8281 332.375C94.2865 332.427 94.6875 332.458 95.0312 332.469H99.8125C99.3125 331.979 98.7526 331.484 98.1328 330.984L98.8047 330.25C99.4453 330.781 100.081 331.341 100.711 331.93L100.18 332.469H104.469C104.807 332.458 105.208 332.427 105.672 332.375V333.367C105.234 333.315 104.833 333.284 104.469 333.273H94.9141C94.9245 333.914 94.9297 334.586 94.9297 335.289C94.9297 336.346 94.9141 337.232 94.8828 337.945C94.8411 339.138 94.7448 340.151 94.5938 340.984C94.349 342.49 93.7318 343.94 92.7422 345.336C92.388 345.112 91.9557 344.953 91.4453 344.859C93.013 343.516 93.8438 341.375 93.9375 338.438C93.1406 339.036 92.474 339.565 91.9375 340.023L91.2188 339ZM104.68 335.914H100.805C100.773 336.831 100.737 337.513 100.695 337.961H103.633C104.029 337.961 104.477 337.93 104.977 337.867C104.924 338.357 104.893 338.786 104.883 339.156V343.141C104.914 344.026 104.786 344.565 104.5 344.758C104.276 344.992 103.562 345.164 102.359 345.273C102.271 344.805 102.13 344.383 101.938 344.008C102.458 344.065 102.852 344.094 103.117 344.094C103.372 344.094 103.549 344.07 103.648 344.023C103.898 343.961 104.01 343.706 103.984 343.258V338.758H100.594L100.484 339.18C101.625 340.096 102.633 340.948 103.508 341.734L102.727 342.523C101.945 341.56 101.096 340.737 100.18 340.055C99.6693 341.06 98.9818 341.961 98.1172 342.758C97.7839 342.409 97.4583 342.164 97.1406 342.023C98.4948 341.237 99.3307 340.148 99.6484 338.758H96.9609V344.07C96.9714 344.383 97.0052 344.799 97.0625 345.32H95.9688C96.026 344.872 96.0599 344.461 96.0703 344.086V339.227C96.0599 338.831 96.026 338.378 95.9688 337.867C96.4635 337.919 96.9062 337.951 97.2969 337.961H99.7656C99.8281 337.216 99.8646 336.534 99.875 335.914H96.7891C96.4453 335.924 96.0339 335.956 95.5547 336.008V335.016C96.0651 335.068 96.4766 335.099 96.7891 335.109H104.68C104.987 335.109 105.354 335.078 105.781 335.016V336.008C105.365 335.945 104.997 335.914 104.68 335.914ZM107.297 344.039C108.047 343.346 108.732 342.206 109.352 340.617L110.406 341.141C110.49 341.188 110.521 341.232 110.5 341.273C110.479 341.326 110.404 341.372 110.273 341.414C110.107 341.456 109.917 341.69 109.703 342.117C109.266 342.961 108.779 343.794 108.242 344.617C107.904 344.362 107.589 344.169 107.297 344.039ZM108.93 336.266C109.56 336.328 110.068 336.359 110.453 336.359H114.039V335.383H110.945C110.607 335.383 110.096 335.414 109.414 335.477C109.466 334.945 109.497 334.497 109.508 334.133V333.609C109.508 333.297 109.477 332.844 109.414 332.25C110.055 332.312 110.57 332.344 110.961 332.344H114.039V332.133C114.029 331.805 113.995 331.305 113.938 330.633L115.203 330.82C115.276 330.846 115.312 330.885 115.312 330.938C115.312 330.995 115.271 331.062 115.188 331.141C115.005 331.323 114.909 331.586 114.898 331.93V332.344H118.164C118.419 332.344 118.909 332.312 119.633 332.25C119.581 332.802 119.549 333.276 119.539 333.672V334.188C119.549 334.536 119.581 334.966 119.633 335.477C118.94 335.414 118.451 335.383 118.164 335.383H114.898V336.359H118.594C118.948 336.359 119.44 336.328 120.07 336.266C120.013 336.917 119.979 337.37 119.969 337.625V338.055C119.969 338.378 120.003 338.82 120.07 339.383C119.378 339.32 118.859 339.289 118.516 339.289H114.914C114.914 339.596 114.94 339.938 114.992 340.312H113.953C113.99 339.969 114.018 339.628 114.039 339.289H110.484C110.151 339.289 109.638 339.32 108.945 339.383C109.003 338.852 109.036 338.404 109.047 338.039V337.672C109.036 337.406 108.997 336.938 108.93 336.266ZM109.906 337.125V338.523H114.039V337.125H109.906ZM110.375 334.617H114.039V333.109H110.375V334.617ZM114.898 333.109V334.617H118.68V333.109H114.898ZM119.109 338.523V337.125H114.898V338.523H119.109ZM117.859 342.148C118.167 342.482 118.544 342.719 118.992 342.859C118.94 342.984 118.862 343.164 118.758 343.398C118.596 343.763 118.495 343.987 118.453 344.07C118.141 344.742 117.276 345.083 115.859 345.094C115.073 345.104 114.294 345.094 113.523 345.062C112.596 345.031 111.995 344.914 111.719 344.711C111.406 344.529 111.255 344.167 111.266 343.625V342.117C111.266 341.81 111.234 341.326 111.172 340.664L112.359 340.859C112.464 340.87 112.521 340.906 112.531 340.969C112.542 341.021 112.505 341.091 112.422 341.18C112.24 341.326 112.154 341.617 112.164 342.055V343.289C112.154 343.674 112.24 343.909 112.422 343.992C112.578 344.096 113.026 344.161 113.766 344.188C113.984 344.193 114.284 344.195 114.664 344.195C115.195 344.195 115.63 344.185 115.969 344.164C116.536 344.133 116.911 344.076 117.094 343.992C117.297 343.919 117.466 343.737 117.602 343.445C117.732 343.232 117.818 342.799 117.859 342.148ZM113.797 341.18L114.469 340.539C114.854 340.898 115.43 341.469 116.195 342.25L115.492 342.953C114.914 342.271 114.349 341.68 113.797 341.18ZM118.289 340.938L119.016 340.281C119.62 340.865 120.521 341.818 121.719 343.141L121.016 343.828C120.224 342.891 119.315 341.927 118.289 340.938ZM131.312 336.617H125.047C124.672 336.628 124.234 336.659 123.734 336.711V335.719C124.234 335.771 124.672 335.802 125.047 335.812H129.938V333.688H127.109C126.776 333.698 126.344 333.729 125.812 333.781V332.789C126.333 332.846 126.766 332.88 127.109 332.891H129.938V331.867C129.927 331.482 129.896 331.021 129.844 330.484L131.016 330.648C131.099 330.659 131.141 330.698 131.141 330.766C131.141 330.828 131.099 330.896 131.016 330.969C130.906 331 130.857 331.357 130.867 332.039V332.891H133.633C134.06 332.87 134.482 332.836 134.898 332.789V333.672C135.367 333.224 135.794 332.685 136.18 332.055L137.219 333.078C137.286 333.146 137.32 333.201 137.32 333.242C137.32 333.253 137.318 333.263 137.312 333.273C137.302 333.315 137.229 333.341 137.094 333.352C136.792 333.362 136.451 333.539 136.07 333.883C135.419 334.456 134.672 335.099 133.828 335.812H136.531C136.896 335.802 137.323 335.771 137.812 335.719V336.711C137.323 336.659 136.896 336.628 136.531 336.617H132.945C131.867 337.393 130.854 338.044 129.906 338.57H134.008C134.456 338.56 134.93 338.526 135.43 338.469C135.378 338.974 135.344 339.422 135.328 339.812V343.961C135.344 344.336 135.378 344.815 135.43 345.398H134.344C134.396 344.992 134.427 344.646 134.438 344.359H128.469C128.479 344.667 128.51 345.044 128.562 345.492H127.461C127.513 344.982 127.544 344.513 127.555 344.086V339.781C126.445 340.307 125.224 340.831 123.891 341.352C123.729 340.924 123.453 340.547 123.062 340.219C125.74 339.75 128.49 338.549 131.312 336.617ZM128.453 341.797V343.625H134.438V341.797H128.453ZM128.453 339.336V341.031H134.438V339.336H128.453ZM130.867 333.688V335.812H132.289C133.195 335.188 134.029 334.51 134.789 333.781C134.445 333.74 134.055 333.708 133.617 333.688H130.867Z" fill="#333333"></path><path d="M80.5312 320.32V322.625H78.8047V320.32H73.9141V318.844L78.4531 311.617H80.5312V318.867H82.1406V320.32H80.5312ZM78.8047 313.492L75.4844 318.867H78.8047V313.492ZM90.7266 317.117C90.7266 318.966 90.4062 320.372 89.7656 321.336C89.1302 322.299 88.1823 322.781 86.9219 322.781C84.4167 322.781 83.1641 320.893 83.1641 317.117C83.1641 315.81 83.3021 314.74 83.5781 313.906C83.8594 313.073 84.2708 312.456 84.8125 312.055C85.3542 311.654 86.0729 311.453 86.9688 311.453C88.2448 311.453 89.1901 311.917 89.8047 312.844C90.4193 313.771 90.7266 315.195 90.7266 317.117ZM88.9141 317.117C88.9141 316.091 88.849 315.271 88.7188 314.656C88.5885 314.042 88.3828 313.591 88.1016 313.305C87.8255 313.018 87.4479 312.875 86.9688 312.875C86.2396 312.875 85.724 313.201 85.4219 313.852C85.1198 314.497 84.9688 315.586 84.9688 317.117C84.9688 318.596 85.1224 319.672 85.4297 320.344C85.737 321.016 86.2396 321.352 86.9375 321.352C87.625 321.352 88.125 321.01 88.4375 320.328C88.7552 319.646 88.9141 318.576 88.9141 317.117ZM92.3359 312.422V310.828C92.9297 310.917 93.5911 310.979 94.3203 311.016H104.445C105.185 310.979 105.846 310.917 106.43 310.828V312.422C105.846 312.349 105.185 312.292 104.445 312.25H98.875C98.8698 312.391 98.8568 312.612 98.8359 312.914C98.7891 313.857 98.75 314.505 98.7188 314.859H102.578C103.344 314.818 103.982 314.758 104.492 314.68C104.398 315.211 104.326 315.831 104.273 316.539C104.174 317.784 104.089 319.016 104.016 320.234C103.938 321.74 103.643 322.654 103.133 322.977C102.701 323.383 101.576 323.573 99.7578 323.547C99.7318 323.083 99.5026 322.448 99.0703 321.641C100.32 321.901 101.115 322.029 101.453 322.023C101.823 322.029 102.076 321.911 102.211 321.672C102.352 321.469 102.44 321.021 102.477 320.328L102.766 316.086H98.5938C98.2188 319.398 96.7135 322.023 94.0781 323.961C93.651 323.581 93.0859 323.214 92.3828 322.859C95.763 321.312 97.4062 317.776 97.3125 312.25H94.3203C93.6797 312.281 93.0182 312.339 92.3359 312.422Z" fill="#FF6279"></path><path d="M587.156 114.367H585.555V120.781C585.576 121.422 585.448 121.807 585.172 121.938C584.948 122.12 584.255 122.247 583.094 122.32C583.042 121.977 582.914 121.599 582.711 121.188C583.232 121.24 583.638 121.266 583.93 121.266C584.154 121.266 584.302 121.25 584.375 121.219C584.589 121.161 584.685 120.938 584.664 120.547V114.367H583.219C582.828 114.367 582.359 114.398 581.812 114.461V113.438C582.37 113.505 582.839 113.539 583.219 113.539H587.352C587.81 113.539 588.263 113.505 588.711 113.438C588.263 114.354 587.786 115.26 587.281 116.156C587.036 115.99 586.74 115.836 586.391 115.695C586.656 115.31 586.911 114.867 587.156 114.367ZM585.383 111.953C585.617 112.146 585.904 112.406 586.242 112.734L585.508 113.453C584.794 112.708 583.984 111.953 583.078 111.188L583.703 110.547C584.021 110.792 584.357 111.083 584.711 111.422C585.148 110.802 585.576 110.109 585.992 109.344H583.586C583.174 109.344 582.721 109.375 582.227 109.438V108.414C582.763 108.482 583.216 108.516 583.586 108.516H586.312C586.75 108.516 587.208 108.482 587.688 108.414C587.385 108.841 587.122 109.242 586.898 109.617C586.398 110.451 585.893 111.229 585.383 111.953ZM587.125 121.469C589.281 120.865 590.562 120.096 590.969 119.164C591.255 118.664 591.43 117.987 591.492 117.133C591.534 116.727 591.555 116.258 591.555 115.727C591.555 115.138 591.529 114.396 591.477 113.5L592.711 113.617C592.826 113.628 592.888 113.648 592.898 113.68C592.909 113.721 592.867 113.797 592.773 113.906C592.602 114.099 592.516 114.471 592.516 115.023C592.526 115.336 592.531 115.615 592.531 115.859C592.531 117.76 592.286 119.07 591.797 119.789C591.307 120.685 590.06 121.565 588.055 122.43C587.82 122.049 587.51 121.729 587.125 121.469ZM595.367 118.828H594.273C594.341 118.349 594.375 117.891 594.375 117.453V112.094H589.875V117.602C589.875 118.008 589.909 118.451 589.977 118.93H588.883C588.951 118.451 588.984 118.008 588.984 117.602V112.477C588.984 112.128 588.951 111.69 588.883 111.164C589.398 111.232 589.857 111.266 590.258 111.266H590.867C591.122 110.646 591.352 109.919 591.555 109.086H589.617C589.237 109.086 588.789 109.12 588.273 109.188V108.156C588.779 108.224 589.227 108.258 589.617 108.258H594.852C595.32 108.258 595.784 108.224 596.242 108.156V109.188C595.732 109.12 595.268 109.086 594.852 109.086H592.633C592.341 109.93 592.068 110.656 591.812 111.266H594.086C594.492 111.266 594.919 111.232 595.367 111.164C595.299 111.602 595.266 112.008 595.266 112.383V117.453C595.266 117.87 595.299 118.328 595.367 118.828ZM593.094 118.75C594.307 119.646 595.422 120.547 596.438 121.453L595.672 122.227C594.708 121.211 593.635 120.281 592.453 119.438L593.094 118.75ZM601.219 112.945C601.167 113.445 601.135 113.93 601.125 114.398L601 120C602.062 119.245 602.919 118.536 603.57 117.875L603.508 119.297C601.643 120.661 600.63 121.487 600.469 121.773L599.688 120.812C599.922 120.615 600.044 120.307 600.055 119.891L600.211 113.844H599.016C598.672 113.828 598.234 113.859 597.703 113.938V112.945C598.203 113.018 598.641 113.049 599.016 113.039H599.922C600.297 113.049 600.729 113.018 601.219 112.945ZM598.547 108.625L599.203 107.844C600.13 108.448 601.138 109.203 602.227 110.109L601.57 110.977C600.602 110.049 599.594 109.266 598.547 108.625ZM607.078 107.359L608.391 107.523C608.526 107.544 608.594 107.591 608.594 107.664C608.594 107.747 608.526 107.844 608.391 107.953C608.198 108.125 608.102 108.477 608.102 109.008V112.797H611.445C611.669 112.797 612.026 112.766 612.516 112.703V113.727C612.057 113.664 611.721 113.633 611.508 113.633H608.102V121.07C608.091 121.628 608.122 122.135 608.195 122.594H607.078C607.141 122.026 607.172 121.518 607.172 121.07V113.633H603.781C603.464 113.622 603.091 113.654 602.664 113.727V112.703C603.055 112.776 603.422 112.807 603.766 112.797H607.172V109.148C607.182 108.565 607.151 107.969 607.078 107.359ZM617.859 119.938V117.117H616.164C615.857 117.117 615.435 117.151 614.898 117.219V116.227C615.404 116.289 615.81 116.32 616.117 116.32H617.859V115.5C617.87 115.141 617.839 114.672 617.766 114.094L618.914 114.258C619.055 114.268 619.13 114.299 619.141 114.352C619.161 114.404 619.12 114.484 619.016 114.594C618.854 114.75 618.768 115.042 618.758 115.469V116.32H620.297C620.615 116.331 621.068 116.299 621.656 116.227V117.219C621.078 117.141 620.641 117.107 620.344 117.117H618.758V119.82C620.07 119.727 621.232 119.552 622.242 119.297C622.128 119.573 622.031 119.93 621.953 120.367C618.193 120.742 615.698 121.099 614.469 121.438L613.992 120.141C615.492 120.167 616.781 120.099 617.859 119.938ZM615.992 113.086C617.878 113.023 619.424 112.927 620.633 112.797C620.169 112.234 619.661 111.68 619.109 111.133L619.891 110.516C620.854 111.536 621.729 112.586 622.516 113.664L621.656 114.414C621.474 114.086 621.302 113.794 621.141 113.539C619.255 113.695 617.831 113.836 616.867 113.961C615.909 114.081 615.227 114.19 614.82 114.289L614.406 113.102C614.875 113.039 615.232 112.831 615.477 112.477C616.299 111.357 616.956 110.312 617.445 109.344H615.688C615.333 109.344 614.88 109.375 614.328 109.438V108.445C614.943 108.513 615.396 108.547 615.688 108.547H620.695C621.065 108.557 621.518 108.523 622.055 108.445V109.438C621.539 109.375 621.102 109.344 620.742 109.344H618.102L618.594 109.633C618.714 109.706 618.773 109.763 618.773 109.805C618.763 109.862 618.688 109.911 618.547 109.953C618.344 110.005 618.154 110.159 617.977 110.414C617.326 111.352 616.664 112.242 615.992 113.086ZM624.438 117.922H623.352C623.414 117.375 623.445 116.927 623.445 116.578V111.133C623.445 110.763 623.414 110.258 623.352 109.617L624.5 109.773C624.63 109.784 624.701 109.818 624.711 109.875C624.721 109.917 624.677 109.995 624.578 110.109C624.422 110.281 624.344 110.581 624.344 111.008V116.578C624.344 116.885 624.375 117.333 624.438 117.922ZM624.789 122.227C624.695 121.852 624.513 121.43 624.242 120.961C624.68 121.008 625.036 121.031 625.312 121.031C625.594 121.031 625.792 121.008 625.906 120.961C626.167 120.888 626.289 120.654 626.273 120.258V109.117C626.273 108.747 626.242 108.242 626.18 107.602L627.352 107.758C627.477 107.768 627.544 107.802 627.555 107.859C627.565 107.911 627.523 107.995 627.43 108.109C627.268 108.323 627.182 108.617 627.172 108.992V120.609C627.182 121.219 627.023 121.63 626.695 121.844C626.404 122.052 625.768 122.18 624.789 122.227ZM629.992 120.625V119.922C630.232 119.318 630.578 118.719 631.031 118.125C631.49 117.526 632.159 116.844 633.039 116.078C633.945 115.297 634.578 114.638 634.938 114.102C635.302 113.565 635.484 113.003 635.484 112.414C635.484 111.737 635.294 111.216 634.914 110.852C634.534 110.482 634.005 110.297 633.328 110.297C632.714 110.297 632.208 110.479 631.812 110.844C631.422 111.203 631.193 111.698 631.125 112.328L630.125 112.203C630.203 111.38 630.531 110.716 631.109 110.211C631.693 109.706 632.435 109.453 633.336 109.453C634.331 109.453 635.107 109.708 635.664 110.219C636.221 110.729 636.5 111.44 636.5 112.352C636.5 112.82 636.417 113.26 636.25 113.672C636.083 114.083 635.833 114.495 635.5 114.906C635.167 115.312 634.599 115.872 633.797 116.586C632.391 117.836 631.503 118.888 631.133 119.742H636.664V120.625H629.992ZM645.328 115.117C645.328 116.956 645.031 118.359 644.438 119.328C643.844 120.297 642.966 120.781 641.805 120.781C640.654 120.781 639.784 120.307 639.195 119.359C638.612 118.411 638.32 116.997 638.32 115.117C638.32 113.206 638.604 111.784 639.172 110.852C639.745 109.919 640.641 109.453 641.859 109.453C643.031 109.453 643.901 109.922 644.469 110.859C645.042 111.797 645.328 113.216 645.328 115.117ZM644.328 115.117C644.328 113.435 644.133 112.208 643.742 111.438C643.357 110.667 642.727 110.281 641.852 110.281C640.945 110.281 640.294 110.669 639.898 111.445C639.508 112.216 639.312 113.44 639.312 115.117C639.312 116.758 639.516 117.974 639.922 118.766C640.328 119.552 640.961 119.945 641.82 119.945C642.674 119.945 643.305 119.542 643.711 118.734C644.122 117.922 644.328 116.716 644.328 115.117ZM653.617 117.078C653.617 118.245 653.307 119.154 652.688 119.805C652.073 120.456 651.211 120.781 650.102 120.781C648.326 120.781 647.263 119.961 646.914 118.32L647.906 118.164C648.068 118.805 648.328 119.263 648.688 119.539C649.047 119.81 649.542 119.945 650.172 119.945C650.948 119.945 651.547 119.701 651.969 119.211C652.391 118.721 652.602 118.023 652.602 117.117C652.602 116.341 652.393 115.724 651.977 115.266C651.565 114.802 651 114.57 650.281 114.57C649.859 114.57 649.487 114.635 649.164 114.766C648.841 114.891 648.516 115.099 648.188 115.391H647.258L647.602 109.617H653.07V110.461H648.492L648.234 114.445C648.599 114.18 648.956 113.997 649.305 113.898C649.659 113.794 650.036 113.742 650.438 113.742C651.411 113.742 652.185 114.044 652.758 114.648C653.331 115.247 653.617 116.057 653.617 117.078ZM662.203 115.117C662.203 116.956 661.906 118.359 661.312 119.328C660.719 120.297 659.841 120.781 658.68 120.781C657.529 120.781 656.659 120.307 656.07 119.359C655.487 118.411 655.195 116.997 655.195 115.117C655.195 113.206 655.479 111.784 656.047 110.852C656.62 109.919 657.516 109.453 658.734 109.453C659.906 109.453 660.776 109.922 661.344 110.859C661.917 111.797 662.203 113.216 662.203 115.117ZM661.203 115.117C661.203 113.435 661.008 112.208 660.617 111.438C660.232 110.667 659.602 110.281 658.727 110.281C657.82 110.281 657.169 110.669 656.773 111.445C656.383 112.216 656.188 113.44 656.188 115.117C656.188 116.758 656.391 117.974 656.797 118.766C657.203 119.552 657.836 119.945 658.695 119.945C659.549 119.945 660.18 119.542 660.586 118.734C660.997 117.922 661.203 116.716 661.203 115.117ZM668.172 107.586L669.242 108.141C669.393 108.219 669.479 108.289 669.5 108.352C669.51 108.404 669.456 108.445 669.336 108.477C669.06 108.523 668.82 108.737 668.617 109.117C668.461 109.372 668.312 109.602 668.172 109.805H675.992C676.43 109.805 676.888 109.773 677.367 109.711V110.734C676.836 110.672 676.378 110.641 675.992 110.641H672.219V113.359H675.07C675.529 113.359 675.971 113.328 676.398 113.266V114.258C675.924 114.19 675.482 114.156 675.07 114.156H672.219V117.875H676.664C677.148 117.875 677.635 117.841 678.125 117.773V118.797C677.667 118.734 677.18 118.703 676.664 118.703H672.219V120.781C672.219 121.229 672.25 121.784 672.312 122.445H671.164C671.227 121.831 671.258 121.276 671.258 120.781V118.703H665.336C664.924 118.703 664.445 118.734 663.898 118.797V117.773C664.409 117.841 664.888 117.875 665.336 117.875H666.633V114.625C666.633 114.208 666.602 113.755 666.539 113.266C667.07 113.328 667.56 113.359 668.008 113.359H671.258V110.641H667.594C666.667 111.688 665.76 112.62 664.875 113.438C664.609 113.203 664.208 112.948 663.672 112.672C665.88 111.307 667.38 109.612 668.172 107.586ZM667.531 114.156V117.875H671.258V114.156H667.531ZM680.633 109.039L681.32 108.43C682.216 109.273 682.99 110.107 683.641 110.93L682.922 111.57C682.281 110.747 681.518 109.904 680.633 109.039ZM688.297 116C687.307 115.135 686.258 114.32 685.148 113.555L685.852 112.867C686.878 113.633 687.88 114.417 688.859 115.219C689.552 114.109 689.969 112.865 690.109 111.484H685.82C685.445 111.495 685.003 111.529 684.492 111.586V110.562C684.961 110.615 685.404 110.646 685.82 110.656H692.156C692.552 110.646 692.99 110.615 693.469 110.562V111.586C692.99 111.529 692.552 111.495 692.156 111.484H691.07C690.857 113.182 690.365 114.622 689.594 115.805C690.854 116.904 691.974 117.935 692.953 118.898L692.156 119.742C691.182 118.549 690.141 117.51 689.031 116.625C687.901 117.807 686.333 118.826 684.328 119.68C684.073 119.253 683.786 118.917 683.469 118.672C685.432 118.245 687.042 117.354 688.297 116ZM686.969 108.242L687.625 107.555C688.396 108.148 689.169 108.786 689.945 109.469L689.32 110.195C688.617 109.508 687.833 108.857 686.969 108.242ZM683.102 113.391C683.044 113.88 683.01 114.323 683 114.719V119.602C683.448 119.737 683.885 119.906 684.312 120.109C685.146 120.495 685.924 120.734 686.648 120.828C687.096 120.901 687.672 120.938 688.375 120.938C688.828 120.938 689.294 120.924 689.773 120.898C691.211 120.831 692.656 120.69 694.109 120.477C693.839 120.872 693.688 121.294 693.656 121.742C692.016 121.81 690.245 121.87 688.344 121.922C686.552 121.974 685.076 121.669 683.914 121.008C683.372 120.695 682.893 120.539 682.477 120.539C682.049 120.539 681.688 120.701 681.391 121.023C681.089 121.289 680.799 121.599 680.523 121.953L679.672 120.961C680.646 120.148 681.458 119.701 682.109 119.617V114.32H681.031C680.724 114.331 680.315 114.362 679.805 114.414V113.391C680.315 113.443 680.724 113.474 681.031 113.484H681.742C682.169 113.474 682.622 113.443 683.102 113.391ZM695.336 114.641C698.836 113.448 701.201 111.091 702.43 107.57L703.594 108.109C703.693 108.167 703.742 108.211 703.742 108.242C703.742 108.273 703.682 108.326 703.562 108.398C703.469 108.461 703.372 108.578 703.273 108.75C705.346 111.469 707.721 113.279 710.398 114.18C709.982 114.466 709.607 114.789 709.273 115.148C706.492 113.57 704.328 111.727 702.781 109.617C701.448 111.951 699.367 113.945 696.539 115.602C696.253 115.289 695.852 114.969 695.336 114.641ZM703.5 114.352V121.164C703.5 121.539 703.531 122.016 703.594 122.594H702.445C702.508 122.016 702.539 121.539 702.539 121.164V114.062C702.539 113.714 702.508 113.266 702.445 112.719L703.727 112.883C703.852 112.893 703.919 112.924 703.93 112.977C703.94 113.029 703.893 113.099 703.789 113.188C703.596 113.365 703.5 113.753 703.5 114.352ZM711.742 114.766C713.065 114.031 714.125 113.062 714.922 111.859H713.5C713.135 111.87 712.682 111.901 712.141 111.953V110.961C712.724 111.023 713.177 111.055 713.5 111.055H715.531V109.086C715.521 108.737 715.49 108.208 715.438 107.5L716.602 107.695C716.784 107.716 716.88 107.742 716.891 107.773C716.911 107.805 716.87 107.87 716.766 107.969C716.521 108.172 716.398 108.555 716.398 109.117V111.055H718.219C718.453 111.055 718.896 111.023 719.547 110.961V111.953C718.969 111.901 718.526 111.87 718.219 111.859H716.461C716.93 112.177 717.831 112.854 719.164 113.891C718.94 114.156 718.721 114.432 718.508 114.719C717.898 114.078 717.195 113.461 716.398 112.867V113.438C716.409 113.74 716.44 114.216 716.492 114.867H715.438C715.49 114.237 715.521 113.76 715.531 113.438V112.531C714.656 113.734 713.719 114.758 712.719 115.602C712.479 115.31 712.154 115.031 711.742 114.766ZM713.164 116.461H714.586C714.831 115.878 715.034 115.378 715.195 114.961L716.297 115.391C716.406 115.432 716.461 115.479 716.461 115.531C716.461 115.578 716.401 115.622 716.281 115.664C716.125 115.695 715.982 115.839 715.852 116.094L715.641 116.461H717.625C717.646 116.461 717.792 116.451 718.062 116.43C718.677 116.388 719 116.372 719.031 116.383C718.724 117.398 718.159 118.503 717.336 119.695C717.487 119.758 717.716 119.849 718.023 119.969C718.326 120.094 718.549 120.19 718.695 120.258C718.56 120.461 718.417 120.753 718.266 121.133C717.948 120.945 717.419 120.706 716.68 120.414C715.581 121.268 714.404 121.914 713.148 122.352C712.945 122.023 712.656 121.682 712.281 121.328C713.542 121.276 714.706 120.844 715.773 120.031C715.023 119.714 714.138 119.414 713.117 119.133C713.508 118.602 713.875 117.979 714.219 117.266H713.164C712.831 117.276 712.393 117.307 711.852 117.359V116.367C712.44 116.43 712.878 116.461 713.164 116.461ZM715.227 117.266L714.477 118.656C715.128 118.891 715.789 119.13 716.461 119.375C716.961 118.766 717.375 118.062 717.703 117.266H715.227ZM713.5 108.352C713.651 108.576 713.854 108.88 714.109 109.266C714.344 109.615 714.534 109.896 714.68 110.109L713.93 110.625C713.581 109.974 713.193 109.354 712.766 108.766L713.5 108.352ZM718.633 108.062L719.484 108.719C719.557 108.771 719.589 108.82 719.578 108.867C719.568 108.898 719.516 108.919 719.422 108.93C719.25 108.93 719.052 109.068 718.828 109.344C718.635 109.568 718.273 110.016 717.742 110.688C717.591 110.557 717.354 110.388 717.031 110.18C717.661 109.539 718.195 108.833 718.633 108.062ZM723.578 112.125H721.016C720.729 112.641 720.406 113.18 720.047 113.742C719.786 113.596 719.427 113.464 718.969 113.344C720.359 111.927 721.167 109.964 721.391 107.453L722.57 107.82C722.701 107.867 722.771 107.911 722.781 107.953C722.781 107.984 722.721 108.031 722.602 108.094C722.409 108.172 722.271 108.385 722.188 108.734C721.812 110.016 721.534 110.88 721.352 111.328H724.781C725.089 111.318 725.51 111.286 726.047 111.234V112.227C725.438 112.159 725.016 112.125 724.781 112.125H724.508C724.232 114.828 723.714 116.872 722.953 118.258C724.062 119.706 725.253 120.708 726.523 121.266C726.076 121.469 725.729 121.76 725.484 122.141C724.62 121.536 723.607 120.534 722.445 119.133C721.43 120.523 720.26 121.622 718.938 122.43C718.714 122.081 718.393 121.81 717.977 121.617C719.695 120.794 720.977 119.674 721.82 118.258C721.107 117.169 720.573 115.734 720.219 113.953C720.646 113.922 720.956 113.878 721.148 113.82C721.331 115.039 721.729 116.208 722.344 117.328C722.943 116.198 723.354 114.464 723.578 112.125ZM733.883 107.523C734.737 108.023 735.542 108.555 736.297 109.117L735.758 109.789H740.094C740.464 109.789 740.901 109.758 741.406 109.695C741.339 110.049 741.305 110.466 741.305 110.945V111.555C741.305 111.945 741.339 112.365 741.406 112.812H740.312C740.38 112.411 740.414 111.992 740.414 111.555V110.594H729.609V111.602C729.609 112.122 729.641 112.544 729.703 112.867H728.617C728.685 112.409 728.719 111.987 728.719 111.602V110.992C728.719 110.576 728.685 110.143 728.617 109.695C728.919 109.758 729.357 109.789 729.93 109.789H735.406C734.443 109.138 733.711 108.669 733.211 108.383L733.883 107.523ZM740.828 117.219H735.438V120.828C735.458 121.375 735.234 121.75 734.766 121.953C734.318 122.177 733.453 122.32 732.172 122.383C732.052 121.841 731.88 121.404 731.656 121.07C732.328 121.164 732.88 121.211 733.312 121.211C733.599 121.211 733.815 121.19 733.961 121.148C734.357 121.065 734.549 120.799 734.539 120.352V117.219H729.086C728.648 117.219 728.201 117.25 727.742 117.312V116.32C728.143 116.383 728.591 116.414 729.086 116.414H734.539C734.529 115.841 734.497 115.404 734.445 115.102C735.435 114.664 736.271 114.115 736.953 113.453H731.609C731.323 113.453 730.901 113.487 730.344 113.555V112.562C730.74 112.625 731.161 112.656 731.609 112.656H737.898C738.195 112.656 738.628 112.625 739.195 112.562C738.096 113.703 736.844 114.727 735.438 115.633V116.414H740.828C741.234 116.414 741.682 116.383 742.172 116.32V117.312C741.682 117.25 741.234 117.219 740.828 117.219ZM642.109 136.891C641.214 137.719 640.362 138.672 639.555 139.75L638.656 138.922C639.776 138.151 640.719 137.148 641.484 135.914L642.109 136.891ZM642.211 128.633L643.422 128.789C643.521 128.799 643.57 128.823 643.57 128.859C643.581 128.891 643.542 128.943 643.453 129.016C643.318 129.208 643.245 129.63 643.234 130.281V141.898C643.234 142.409 643.266 142.852 643.328 143.227H642.211C642.284 142.768 642.315 142.326 642.305 141.898V129.961C642.284 129.352 642.253 128.909 642.211 128.633ZM643.805 132.875C645.237 131.901 646.294 130.513 646.977 128.711L648.141 129.031C648.281 129.073 648.352 129.128 648.352 129.195C648.341 129.258 648.266 129.315 648.125 129.367C647.979 129.409 647.831 129.531 647.68 129.734C647.549 129.927 647.372 130.172 647.148 130.469C647.117 130.516 647.091 130.555 647.07 130.586H650.961C651.513 130.586 651.997 130.552 652.414 130.484C650.711 133.005 648.401 134.922 645.484 136.234C645.24 135.979 644.927 135.685 644.547 135.352C645.635 135.211 646.776 134.727 647.969 133.898C647.359 133.32 646.885 132.919 646.547 132.695C646.781 132.513 646.995 132.299 647.188 132.055C647.557 132.367 648.031 132.805 648.609 133.367C649.453 132.727 650.115 132.076 650.594 131.414H646.531C646.229 131.82 645.802 132.328 645.25 132.938C645.089 133.109 644.966 133.242 644.883 133.336C644.836 133.326 644.695 133.266 644.461 133.156C644.174 133.031 643.956 132.938 643.805 132.875ZM644.828 136.453H649.984V135.852C649.943 135.133 649.901 134.63 649.859 134.344L651.086 134.5C651.227 134.526 651.302 134.57 651.312 134.633C651.323 134.695 651.263 134.766 651.133 134.844C650.987 134.927 650.914 135.234 650.914 135.766V136.453H651.984C652.495 136.453 652.922 136.422 653.266 136.359V137.352C652.839 137.289 652.411 137.258 651.984 137.258H650.914V141.625C650.924 142.224 650.716 142.63 650.289 142.844C649.904 143.078 649.115 143.206 647.922 143.227C647.922 143.216 647.911 143.182 647.891 143.125C647.708 142.625 647.562 142.273 647.453 142.07C648.01 142.133 648.466 142.164 648.82 142.164C649.138 142.164 649.372 142.138 649.523 142.086C649.852 142.013 650.005 141.773 649.984 141.367V137.258H644.828C644.521 137.258 644.086 137.289 643.523 137.352V136.359C643.893 136.422 644.328 136.453 644.828 136.453ZM645.172 138.375L645.859 137.766C645.964 137.885 646.138 138.068 646.383 138.312C647.023 138.974 647.557 139.544 647.984 140.023L647.219 140.695C646.49 139.727 645.807 138.953 645.172 138.375ZM639.188 131.445L639.891 130.844C640.719 131.703 641.474 132.56 642.156 133.414L641.344 134.086C640.641 133.076 639.922 132.195 639.188 131.445ZM655.695 129.867L656.492 129.242C657.435 130.372 658.227 131.401 658.867 132.328L658 132.953C657.234 131.755 656.466 130.727 655.695 129.867ZM658.461 139.914C661.034 138.794 662.438 136.693 662.672 133.609H660.852C660.508 133.62 660.081 133.651 659.57 133.703V132.711C660.102 132.763 660.529 132.794 660.852 132.805H662.719C662.786 131.883 662.82 131.091 662.82 130.43C662.82 129.753 662.786 129.148 662.719 128.617L664.156 128.773C664.245 128.784 664.289 128.812 664.289 128.859C664.289 128.901 664.253 128.948 664.18 129C663.909 129.13 663.768 129.44 663.758 129.93C663.747 130.247 663.732 130.706 663.711 131.305C663.69 131.987 663.669 132.487 663.648 132.805H666.367C666.674 132.794 667.122 132.763 667.711 132.711V133.703C667.18 133.651 666.732 133.62 666.367 133.609H663.617C663.508 136.552 662.159 138.909 659.57 140.68C659.227 140.362 658.857 140.107 658.461 139.914ZM663.508 136.711L664.258 135.992C665.794 137.367 667.073 138.583 668.094 139.641L667.328 140.406C666.177 139.161 664.904 137.93 663.508 136.711ZM657.953 134.57C657.901 135.143 657.87 135.596 657.859 135.93V140.422C658.391 140.583 659.073 140.867 659.906 141.273C660.63 141.591 661.516 141.784 662.562 141.852C663.021 141.872 663.497 141.883 663.992 141.883C665.643 141.883 667.385 141.76 669.219 141.516C669.016 141.974 668.875 142.378 668.797 142.727C668.339 142.737 667.667 142.753 666.781 142.773C665.536 142.82 664.625 142.844 664.047 142.844C662.745 142.844 661.792 142.768 661.188 142.617C660.536 142.477 659.677 142.146 658.609 141.625C658.172 141.391 657.776 141.273 657.422 141.273C657.036 141.273 656.695 141.417 656.398 141.703C656.154 141.896 655.849 142.221 655.484 142.68C655.219 142.211 654.969 141.885 654.734 141.703C655.516 141.115 656.258 140.714 656.961 140.5V135.461H655.891C655.578 135.461 655.167 135.495 654.656 135.562V134.57C655.125 134.622 655.536 134.654 655.891 134.664H656.578C656.875 134.664 657.333 134.633 657.953 134.57ZM674.734 140.938V138.117H673.039C672.732 138.117 672.31 138.151 671.773 138.219V137.227C672.279 137.289 672.685 137.32 672.992 137.32H674.734V136.5C674.745 136.141 674.714 135.672 674.641 135.094L675.789 135.258C675.93 135.268 676.005 135.299 676.016 135.352C676.036 135.404 675.995 135.484 675.891 135.594C675.729 135.75 675.643 136.042 675.633 136.469V137.32H677.172C677.49 137.331 677.943 137.299 678.531 137.227V138.219C677.953 138.141 677.516 138.107 677.219 138.117H675.633V140.82C676.945 140.727 678.107 140.552 679.117 140.297C679.003 140.573 678.906 140.93 678.828 141.367C675.068 141.742 672.573 142.099 671.344 142.438L670.867 141.141C672.367 141.167 673.656 141.099 674.734 140.938ZM672.867 134.086C674.753 134.023 676.299 133.927 677.508 133.797C677.044 133.234 676.536 132.68 675.984 132.133L676.766 131.516C677.729 132.536 678.604 133.586 679.391 134.664L678.531 135.414C678.349 135.086 678.177 134.794 678.016 134.539C676.13 134.695 674.706 134.836 673.742 134.961C672.784 135.081 672.102 135.19 671.695 135.289L671.281 134.102C671.75 134.039 672.107 133.831 672.352 133.477C673.174 132.357 673.831 131.312 674.32 130.344H672.562C672.208 130.344 671.755 130.375 671.203 130.438V129.445C671.818 129.513 672.271 129.547 672.562 129.547H677.57C677.94 129.557 678.393 129.523 678.93 129.445V130.438C678.414 130.375 677.977 130.344 677.617 130.344H674.977L675.469 130.633C675.589 130.706 675.648 130.763 675.648 130.805C675.638 130.862 675.562 130.911 675.422 130.953C675.219 131.005 675.029 131.159 674.852 131.414C674.201 132.352 673.539 133.242 672.867 134.086ZM681.312 138.922H680.227C680.289 138.375 680.32 137.927 680.32 137.578V132.133C680.32 131.763 680.289 131.258 680.227 130.617L681.375 130.773C681.505 130.784 681.576 130.818 681.586 130.875C681.596 130.917 681.552 130.995 681.453 131.109C681.297 131.281 681.219 131.581 681.219 132.008V137.578C681.219 137.885 681.25 138.333 681.312 138.922ZM681.664 143.227C681.57 142.852 681.388 142.43 681.117 141.961C681.555 142.008 681.911 142.031 682.188 142.031C682.469 142.031 682.667 142.008 682.781 141.961C683.042 141.888 683.164 141.654 683.148 141.258V130.117C683.148 129.747 683.117 129.242 683.055 128.602L684.227 128.758C684.352 128.768 684.419 128.802 684.43 128.859C684.44 128.911 684.398 128.995 684.305 129.109C684.143 129.323 684.057 129.617 684.047 129.992V141.609C684.057 142.219 683.898 142.63 683.57 142.844C683.279 143.052 682.643 143.18 681.664 143.227ZM629.188 176.297C630.531 175.016 631.443 173.107 631.922 170.57L633.07 170.969C633.221 171.021 633.286 171.068 633.266 171.109C633.266 171.167 633.18 171.258 633.008 171.383C632.857 171.482 632.734 171.669 632.641 171.945C632.375 172.701 632.115 173.383 631.859 173.992H635.055C635.44 173.992 635.888 173.961 636.398 173.898C636.336 174.57 636.305 175.12 636.305 175.547L636.227 182.953C636.237 183.818 636.018 184.404 635.57 184.711C635.143 185.055 634.253 185.294 632.898 185.43C632.852 185.039 632.69 184.63 632.414 184.203C632.794 184.24 633.135 184.258 633.438 184.258C633.99 184.258 634.401 184.195 634.672 184.07C635.089 183.888 635.297 183.5 635.297 182.906L635.422 174.789H631.539C631.154 175.518 630.753 176.203 630.336 176.844C629.94 176.615 629.557 176.432 629.188 176.297ZM630.961 178.008L631.727 177.367C632.56 178.232 633.398 179.208 634.242 180.297L633.359 180.969C632.656 179.88 631.857 178.893 630.961 178.008ZM624.766 185H623.742C623.81 184.349 623.844 183.87 623.844 183.562V175.562C623.844 175.167 623.81 174.638 623.742 173.977C624.159 174.039 624.581 174.07 625.008 174.07C625.456 172.898 625.771 171.763 625.953 170.664L627.086 170.969C627.247 171.01 627.328 171.057 627.328 171.109C627.339 171.177 627.273 171.253 627.133 171.336C626.93 171.466 626.781 171.68 626.688 171.977C626.432 172.69 626.172 173.388 625.906 174.07H627.648C628.107 174.07 628.591 174.039 629.102 173.977C629.039 174.617 629.008 175.146 629.008 175.562V183.195C629.008 183.544 629.039 183.987 629.102 184.523H628.031C628.083 184.19 628.115 183.885 628.125 183.609H624.672C624.672 183.969 624.703 184.432 624.766 185ZM624.703 179.227V182.805H628.141V179.227H624.703ZM624.703 174.875V178.453H628.141V174.875H624.703ZM638.562 177.703C639.073 176.724 639.365 175.518 639.438 174.086L640.578 174.297C640.661 174.318 640.708 174.344 640.719 174.375C640.719 174.417 640.682 174.477 640.609 174.555C640.448 174.69 640.346 174.891 640.305 175.156C640.112 176.312 639.893 177.253 639.648 177.977C639.305 177.846 638.943 177.755 638.562 177.703ZM643.469 173.641C643.823 174.344 644.172 175.159 644.516 176.086L643.523 176.523C643.341 175.721 643.026 174.898 642.578 174.055L643.469 173.641ZM643.297 183.688C644.396 182.865 645.297 181.776 646 180.422L646.945 181C647.029 181.052 647.06 181.094 647.039 181.125C647.029 181.172 646.966 181.211 646.852 181.242C646.659 181.305 646.482 181.443 646.32 181.656C645.638 182.682 644.961 183.568 644.289 184.312C644.034 184.036 643.703 183.828 643.297 183.688ZM645.438 172.953H648.977C648.419 172.333 647.727 171.747 646.898 171.195L647.555 170.406C648.289 170.953 649.023 171.568 649.758 172.25L649.219 172.953H651.789C652.185 172.953 652.612 172.922 653.07 172.859V173.852C652.602 173.773 652.174 173.74 651.789 173.75H645.438C645.109 173.75 644.695 173.784 644.195 173.852V172.859C644.716 172.922 645.13 172.953 645.438 172.953ZM646.625 185.43C646.604 185.023 646.477 184.62 646.242 184.219C646.674 184.276 647.023 184.305 647.289 184.305C647.497 184.305 647.648 184.286 647.742 184.25C647.977 184.193 648.089 183.984 648.078 183.625V179.625H646.273C645.951 179.625 645.549 179.656 645.07 179.719C645.138 179.26 645.172 178.839 645.172 178.453V176.438C645.172 176.193 645.143 175.81 645.086 175.289C645.534 175.341 645.909 175.367 646.211 175.367H650.516C650.833 175.378 651.242 175.346 651.742 175.273C651.68 175.773 651.648 176.172 651.648 176.469V178.484C651.648 178.818 651.68 179.229 651.742 179.719C651.284 179.646 650.875 179.615 650.516 179.625H648.977V184.039C648.997 184.549 648.854 184.885 648.547 185.047C648.255 185.229 647.615 185.357 646.625 185.43ZM650.781 178.82V176.164H646.031V178.82H650.781ZM649.789 181.078L650.578 180.375C651.432 181.208 652.253 182.115 653.039 183.094L652.227 183.852C651.477 182.794 650.664 181.87 649.789 181.078ZM641.133 170.484L642.398 170.648C642.518 170.669 642.583 170.701 642.594 170.742C642.594 170.784 642.544 170.854 642.445 170.953C642.232 171.146 642.125 171.534 642.125 172.117V183.781C642.125 184.286 642.159 184.836 642.227 185.43H641.133C641.201 184.768 641.234 184.219 641.234 183.781V172.039C641.234 171.612 641.201 171.094 641.133 170.484ZM654.492 183.719C659.055 182.411 661.336 178.779 661.336 172.82C661.336 172.279 661.318 171.724 661.281 171.156L662.672 171.398C662.792 171.419 662.857 171.458 662.867 171.516C662.888 171.568 662.849 171.63 662.75 171.703C662.578 171.875 662.471 172.099 662.43 172.375C662.424 172.521 662.422 172.708 662.422 172.938C662.422 177.698 664.664 181.346 669.148 183.883C668.747 184.008 668.375 184.299 668.031 184.758C665.016 182.966 662.995 180.268 661.969 176.664C661.276 180.346 659.122 183.029 655.508 184.711C655.195 184.232 654.857 183.901 654.492 183.719ZM670.867 177.766C672.19 177.031 673.25 176.062 674.047 174.859H672.625C672.26 174.87 671.807 174.901 671.266 174.953V173.961C671.849 174.023 672.302 174.055 672.625 174.055H674.656V172.086C674.646 171.737 674.615 171.208 674.562 170.5L675.727 170.695C675.909 170.716 676.005 170.742 676.016 170.773C676.036 170.805 675.995 170.87 675.891 170.969C675.646 171.172 675.523 171.555 675.523 172.117V174.055H677.344C677.578 174.055 678.021 174.023 678.672 173.961V174.953C678.094 174.901 677.651 174.87 677.344 174.859H675.586C676.055 175.177 676.956 175.854 678.289 176.891C678.065 177.156 677.846 177.432 677.633 177.719C677.023 177.078 676.32 176.461 675.523 175.867V176.438C675.534 176.74 675.565 177.216 675.617 177.867H674.562C674.615 177.237 674.646 176.76 674.656 176.438V175.531C673.781 176.734 672.844 177.758 671.844 178.602C671.604 178.31 671.279 178.031 670.867 177.766ZM672.289 179.461H673.711C673.956 178.878 674.159 178.378 674.32 177.961L675.422 178.391C675.531 178.432 675.586 178.479 675.586 178.531C675.586 178.578 675.526 178.622 675.406 178.664C675.25 178.695 675.107 178.839 674.977 179.094L674.766 179.461H676.75C676.771 179.461 676.917 179.451 677.188 179.43C677.802 179.388 678.125 179.372 678.156 179.383C677.849 180.398 677.284 181.503 676.461 182.695C676.612 182.758 676.841 182.849 677.148 182.969C677.451 183.094 677.674 183.19 677.82 183.258C677.685 183.461 677.542 183.753 677.391 184.133C677.073 183.945 676.544 183.706 675.805 183.414C674.706 184.268 673.529 184.914 672.273 185.352C672.07 185.023 671.781 184.682 671.406 184.328C672.667 184.276 673.831 183.844 674.898 183.031C674.148 182.714 673.263 182.414 672.242 182.133C672.633 181.602 673 180.979 673.344 180.266H672.289C671.956 180.276 671.518 180.307 670.977 180.359V179.367C671.565 179.43 672.003 179.461 672.289 179.461ZM674.352 180.266L673.602 181.656C674.253 181.891 674.914 182.13 675.586 182.375C676.086 181.766 676.5 181.062 676.828 180.266H674.352ZM672.625 171.352C672.776 171.576 672.979 171.88 673.234 172.266C673.469 172.615 673.659 172.896 673.805 173.109L673.055 173.625C672.706 172.974 672.318 172.354 671.891 171.766L672.625 171.352ZM677.758 171.062L678.609 171.719C678.682 171.771 678.714 171.82 678.703 171.867C678.693 171.898 678.641 171.919 678.547 171.93C678.375 171.93 678.177 172.068 677.953 172.344C677.76 172.568 677.398 173.016 676.867 173.688C676.716 173.557 676.479 173.388 676.156 173.18C676.786 172.539 677.32 171.833 677.758 171.062ZM682.703 175.125H680.141C679.854 175.641 679.531 176.18 679.172 176.742C678.911 176.596 678.552 176.464 678.094 176.344C679.484 174.927 680.292 172.964 680.516 170.453L681.695 170.82C681.826 170.867 681.896 170.911 681.906 170.953C681.906 170.984 681.846 171.031 681.727 171.094C681.534 171.172 681.396 171.385 681.312 171.734C680.938 173.016 680.659 173.88 680.477 174.328H683.906C684.214 174.318 684.635 174.286 685.172 174.234V175.227C684.562 175.159 684.141 175.125 683.906 175.125H683.633C683.357 177.828 682.839 179.872 682.078 181.258C683.188 182.706 684.378 183.708 685.648 184.266C685.201 184.469 684.854 184.76 684.609 185.141C683.745 184.536 682.732 183.534 681.57 182.133C680.555 183.523 679.385 184.622 678.062 185.43C677.839 185.081 677.518 184.81 677.102 184.617C678.82 183.794 680.102 182.674 680.945 181.258C680.232 180.169 679.698 178.734 679.344 176.953C679.771 176.922 680.081 176.878 680.273 176.82C680.456 178.039 680.854 179.208 681.469 180.328C682.068 179.198 682.479 177.464 682.703 175.125ZM693.008 170.523C693.862 171.023 694.667 171.555 695.422 172.117L694.883 172.789H699.219C699.589 172.789 700.026 172.758 700.531 172.695C700.464 173.049 700.43 173.466 700.43 173.945V174.555C700.43 174.945 700.464 175.365 700.531 175.812H699.438C699.505 175.411 699.539 174.992 699.539 174.555V173.594H688.734V174.602C688.734 175.122 688.766 175.544 688.828 175.867H687.742C687.81 175.409 687.844 174.987 687.844 174.602V173.992C687.844 173.576 687.81 173.143 687.742 172.695C688.044 172.758 688.482 172.789 689.055 172.789H694.531C693.568 172.138 692.836 171.669 692.336 171.383L693.008 170.523ZM699.953 180.219H694.562V183.828C694.583 184.375 694.359 184.75 693.891 184.953C693.443 185.177 692.578 185.32 691.297 185.383C691.177 184.841 691.005 184.404 690.781 184.07C691.453 184.164 692.005 184.211 692.438 184.211C692.724 184.211 692.94 184.19 693.086 184.148C693.482 184.065 693.674 183.799 693.664 183.352V180.219H688.211C687.773 180.219 687.326 180.25 686.867 180.312V179.32C687.268 179.383 687.716 179.414 688.211 179.414H693.664C693.654 178.841 693.622 178.404 693.57 178.102C694.56 177.664 695.396 177.115 696.078 176.453H690.734C690.448 176.453 690.026 176.487 689.469 176.555V175.562C689.865 175.625 690.286 175.656 690.734 175.656H697.023C697.32 175.656 697.753 175.625 698.32 175.562C697.221 176.703 695.969 177.727 694.562 178.633V179.414H699.953C700.359 179.414 700.807 179.383 701.297 179.32V180.312C700.807 180.25 700.359 180.219 699.953 180.219Z" fill="#333333"></path><path d="M641.789 161.18H644.641V153.258L642.062 154.906V153.414L644.75 151.617H646.43V161.18H648.859V162.625H641.789V161.18ZM657.781 157.117C657.781 158.966 657.461 160.372 656.82 161.336C656.185 162.299 655.237 162.781 653.977 162.781C651.471 162.781 650.219 160.893 650.219 157.117C650.219 155.81 650.357 154.74 650.633 153.906C650.914 153.073 651.326 152.456 651.867 152.055C652.409 151.654 653.128 151.453 654.023 151.453C655.299 151.453 656.245 151.917 656.859 152.844C657.474 153.771 657.781 155.195 657.781 157.117ZM655.969 157.117C655.969 156.091 655.904 155.271 655.773 154.656C655.643 154.042 655.438 153.591 655.156 153.305C654.88 153.018 654.503 152.875 654.023 152.875C653.294 152.875 652.779 153.201 652.477 153.852C652.174 154.497 652.023 155.586 652.023 157.117C652.023 158.596 652.177 159.672 652.484 160.344C652.792 161.016 653.294 161.352 653.992 161.352C654.68 161.352 655.18 161.01 655.492 160.328C655.81 159.646 655.969 158.576 655.969 157.117ZM666.672 157.117C666.672 158.966 666.352 160.372 665.711 161.336C665.076 162.299 664.128 162.781 662.867 162.781C660.362 162.781 659.109 160.893 659.109 157.117C659.109 155.81 659.247 154.74 659.523 153.906C659.805 153.073 660.216 152.456 660.758 152.055C661.299 151.654 662.018 151.453 662.914 151.453C664.19 151.453 665.135 151.917 665.75 152.844C666.365 153.771 666.672 155.195 666.672 157.117ZM664.859 157.117C664.859 156.091 664.794 155.271 664.664 154.656C664.534 154.042 664.328 153.591 664.047 153.305C663.771 153.018 663.393 152.875 662.914 152.875C662.185 152.875 661.669 153.201 661.367 153.852C661.065 154.497 660.914 155.586 660.914 157.117C660.914 158.596 661.068 159.672 661.375 160.344C661.682 161.016 662.185 161.352 662.883 161.352C663.57 161.352 664.07 161.01 664.383 160.328C664.701 159.646 664.859 158.576 664.859 157.117ZM668.281 152.422V150.828C668.875 150.917 669.536 150.979 670.266 151.016H680.391C681.13 150.979 681.792 150.917 682.375 150.828V152.422C681.792 152.349 681.13 152.292 680.391 152.25H674.82C674.815 152.391 674.802 152.612 674.781 152.914C674.734 153.857 674.695 154.505 674.664 154.859H678.523C679.289 154.818 679.927 154.758 680.438 154.68C680.344 155.211 680.271 155.831 680.219 156.539C680.12 157.784 680.034 159.016 679.961 160.234C679.883 161.74 679.589 162.654 679.078 162.977C678.646 163.383 677.521 163.573 675.703 163.547C675.677 163.083 675.448 162.448 675.016 161.641C676.266 161.901 677.06 162.029 677.398 162.023C677.768 162.029 678.021 161.911 678.156 161.672C678.297 161.469 678.385 161.021 678.422 160.328L678.711 156.086H674.539C674.164 159.398 672.659 162.023 670.023 163.961C669.596 163.581 669.031 163.214 668.328 162.859C671.708 161.312 673.352 157.776 673.258 152.25H670.266C669.625 152.281 668.964 152.339 668.281 152.422Z" fill="#FF6279"></path></svg>