<svg width="250" height="230" viewBox="0 0 250 230" fill="none" xmlns="http://www.w3.org/2000/svg">
<mask id="mask0" mask-type="alpha" maskUnits="userSpaceOnUse" x="0" y="0" width="250" height="230">
<rect width="250" height="230" fill="#F9F9F9"/>
</mask>
<g mask="url(#mask0)">
<path fill-rule="evenodd" clip-rule="evenodd" d="M16.2331 138.942C3.65089 103.301 -3.80304 60.7362 19.8107 31.2255C42.8558 2.42543 85.2678 9.02104 122.077 6.66679C161.004 4.17712 206.394 -11.1406 232.763 17.6055C259.481 46.7324 249.884 93.4771 235.467 130.279C224.094 159.311 194.322 172.238 166.599 186.505C139.472 200.464 111.645 218.167 82.5574 208.967C50.3091 198.766 27.493 170.838 16.2331 138.942Z" fill="#D2F8FD"/>
<path d="M136.123 71.7227L116.174 49.9112V37.8115C120.643 36.3786 123.834 32.08 123.834 27.1445C123.834 20.9354 118.887 16 112.663 16H75.0007C68.7768 16 63.8296 20.9354 63.8296 27.1445C63.8296 32.08 67.0213 36.2194 71.4898 37.8115V49.9112L51.2222 72.0411C48.0304 75.2253 46.4346 79.3647 46.4346 83.6633V178.073C46.4346 187.308 53.9352 194.79 63.1912 194.79H124.632C133.888 194.79 141.389 187.308 141.389 178.073V83.6633C141.229 79.2055 139.474 74.9069 136.123 71.7227Z" fill="#B6DFE0"/>
<path d="M131.176 85.2561C130.857 81.4351 127.824 78.4102 123.835 78.4102H63.9895C60.1594 78.4102 56.9676 81.4351 56.6484 85.2561V171.706C56.6484 178.87 62.5532 184.761 69.7346 184.761H117.93C125.111 184.761 131.016 178.87 131.016 171.706L131.176 85.2561Z" fill="#EFEFEF"/>
<path d="M136.123 71.7227L116.174 49.9113V37.8115C120.643 36.3786 123.835 32.08 123.835 27.1445C123.835 20.9354 118.887 16 112.664 16H101.014C107.238 16 112.185 20.9354 112.185 27.1445C112.185 32.08 108.993 36.2194 104.525 37.8115V49.9113L112.823 71.7227C116.174 74.9069 118.09 79.2055 118.09 83.8225V178.233C118.09 187.467 110.589 194.95 101.333 194.95H124.633C133.889 194.95 141.389 187.467 141.389 178.233V83.6633C141.23 79.2055 139.474 74.9069 136.123 71.7227Z" fill="#ABC3C6"/>
<path d="M136.123 71.7227L116.174 49.9113V37.8115C120.643 36.3786 123.835 32.08 123.835 27.1445C123.835 20.9354 118.887 16 112.663 16H101.014C107.237 16 112.185 20.9354 112.185 27.1445C112.185 32.08 108.993 36.2194 104.524 37.8115V49.9113C104.524 49.9113 109.791 73.7924 109.791 78.4094H111.227L110.429 184.283L108.514 184.76C105.961 190.81 100.056 194.95 93.0342 194.95H124.632C133.889 194.95 141.389 187.467 141.389 178.233V83.6633C141.23 79.2055 139.474 74.9069 136.123 71.7227Z" fill="#97BEBF"/>
<path d="M131.175 85.2561C130.856 81.4351 127.824 78.4102 123.834 78.4102H109.791V93.0573V178.074C109.791 180.462 109.312 182.691 108.354 184.761H117.93C125.111 184.761 131.016 178.87 131.016 171.706L131.175 85.2561Z" fill="#CCCCCC"/>
<path d="M84.0973 67.9029C89.5232 70.9278 90.7999 78.8882 87.1294 85.4157C83.2993 92.1025 75.9583 94.9682 70.5323 91.9433C65.1064 88.9183 63.8297 80.9579 67.5002 74.4304C71.1707 67.5845 78.6713 64.7187 84.0973 67.9029Z" fill="white"/>
<path d="M89.2043 25.5538C89.2043 28.8972 85.853 31.6037 81.7037 31.6037C77.5545 31.6037 74.2031 28.8972 74.2031 25.5538C74.2031 22.2104 77.5545 19.5039 81.7037 19.5039C85.853 19.5039 89.2043 22.2104 89.2043 25.5538Z" fill="white"/>
<path d="M248.223 95.4895V79.3203H230.945C214.577 79.3203 201.24 91.8628 201.24 107.428V139.917C201.24 155.482 214.577 168.024 230.945 168.024H248.223V151.704C248.223 136.593 235.643 124.352 219.882 123.748V123.597C235.643 122.841 248.223 110.601 248.223 95.4895Z" fill="#6B6B6B"/>
<path d="M214.577 123.597C214.577 157.144 185.176 184.193 131.222 184.193V63C185.176 63 214.577 90.2005 214.577 123.597Z" fill="#8D8B8E"/>
<path d="M164.716 123.593C164.716 154.42 150.015 179.354 132.131 179.354C114.096 179.354 99.5469 154.42 99.5469 123.593C99.5469 92.7658 114.096 67.832 132.131 67.832C150.015 67.832 164.716 92.7658 164.716 123.593Z" fill="#EA6060"/>
<path d="M132.131 183.89C111.368 183.89 95 157.445 95 123.595C95 89.7457 111.368 63.3008 132.131 63.3008C152.894 63.3008 169.262 89.7457 169.262 123.595C169.111 157.445 152.894 183.89 132.131 183.89ZM132.131 72.3676C116.824 72.3676 104.093 95.7903 104.093 123.595C104.093 151.4 116.824 174.823 132.131 174.823C147.438 174.823 160.169 151.4 160.169 123.595C160.169 95.7903 147.287 72.3676 132.131 72.3676Z" fill="#B5B5B5"/>
<path d="M143.801 150.95C143.801 163.946 138.496 174.373 131.98 174.373C125.463 174.373 120.158 163.795 120.158 150.95C120.158 137.954 125.463 127.527 131.98 127.527C138.648 127.527 143.801 137.954 143.801 150.95Z" fill="#BF4554"/>
<path d="M140.164 105.613C140.164 97.9066 136.527 91.7109 131.98 91.7109C127.433 91.7109 123.796 97.9066 123.796 105.613C123.796 110.449 125.16 114.68 127.433 117.249V127.525C127.433 129.943 129.403 132.058 131.98 132.058C134.405 132.058 136.527 130.094 136.527 127.525V117.249C138.8 114.68 140.164 110.449 140.164 105.613Z" fill="#FFD3C5"/>
<path d="M191.541 99.8729C188.359 103.046 182.751 102.442 178.811 98.5129C174.87 94.5839 174.415 88.9927 177.447 85.8193C180.629 82.6459 186.237 83.2504 190.177 87.1793C194.118 90.9572 194.724 96.6995 191.541 99.8729Z" fill="#B5B5B5"/>
<path d="M77.6328 148.457V159.202C80.9255 159.895 83.6117 163.101 83.6117 166.394C83.6117 169.687 80.9255 171.853 77.6328 171.16V190.309C77.6328 193.602 80.319 196.808 83.6117 197.501L139.935 209.026C143.228 209.719 145.914 207.553 145.914 204.26V158.422L77.6328 148.457Z" fill="#F7B000"/>
<path d="M122.432 182.165C122.432 186.064 125.638 189.877 129.537 190.657C133.436 191.436 136.642 188.924 136.642 185.024C136.642 181.125 133.436 177.312 129.537 176.532C125.551 175.753 122.432 178.266 122.432 182.165Z" fill="#E28C10"/>
<path d="M104.147 167.174C104.147 170.033 106.4 172.719 109.26 173.326C112.119 173.932 114.372 172.113 114.372 169.253C114.372 166.394 112.119 163.708 109.26 163.101C106.4 162.494 104.147 164.314 104.147 167.174Z" fill="#E28C10"/>
<path d="M85.7783 181.991C85.7783 186.324 89.2444 190.569 93.5769 191.436C97.9095 192.303 101.375 189.53 101.375 185.197C101.375 180.865 97.9095 176.619 93.5769 175.752C89.331 174.886 85.7783 177.659 85.7783 181.991Z" fill="#E28C10"/>
<path d="M139.935 131.3L81.7054 143.345C79.4525 143.691 77.6328 145.684 77.6328 148.197C77.6328 150.623 79.4525 152.703 81.7921 153.05L139.935 165.007C143.228 165.701 145.914 163.534 145.914 160.242V136.066C145.914 132.773 143.228 130.694 139.935 131.3Z" fill="#FFE000"/>
<path d="M137.595 151.058C137.595 153.658 134.216 155.737 129.97 155.737C125.811 155.737 122.345 153.658 122.345 151.058C122.345 148.459 125.724 146.379 129.97 146.379C134.216 146.466 137.595 148.545 137.595 151.058Z" fill="#F7B000"/>
<path d="M112.813 145.599C112.813 147.246 110.56 148.632 107.787 148.632C105.015 148.632 102.762 147.246 102.762 145.599C102.762 143.953 105.015 142.566 107.787 142.566C110.56 142.566 112.813 143.866 112.813 145.599Z" fill="#F7B000"/>
<path d="M35.52 212.164L37.3547 213.999L47.7206 203.633C53.6833 197.67 53.9585 188.221 48.271 182.534L46.4363 180.699L36.0704 191.065C30.1077 197.028 29.8325 206.476 35.52 212.164Z" fill="#C14450"/>
<path d="M36.0702 191.065L46.4361 180.699L44.6014 178.865C38.9139 173.177 29.4653 173.452 23.5026 179.415L13.1367 189.781L14.9714 191.616C20.6589 197.303 30.1075 197.028 36.0702 191.065Z" fill="#EA6060"/>
<path d="M65.4252 158.318C65.15 155.658 64.5996 153.089 63.6822 150.521C63.2236 149.236 62.6732 148.044 62.1228 146.759C61.4806 145.567 60.9302 144.374 60.1964 143.182C58.7286 140.888 57.0774 138.779 55.2427 137.036C54.7841 136.577 54.3254 136.118 53.8667 135.66C53.4081 135.201 52.8577 134.834 52.399 134.467C51.9403 134.1 51.3899 133.733 50.9312 133.275C50.3808 132.908 49.9222 132.632 49.4635 132.265C49.0048 131.899 48.4544 131.623 47.9958 131.348C47.5371 131.073 46.9867 130.798 46.528 130.523C45.5189 129.972 44.6016 129.513 43.5925 129.147C42.5835 128.78 41.6661 128.413 40.7488 128.137C39.8315 127.862 38.9141 127.587 38.0885 127.404C37.8133 127.312 37.6298 127.22 37.3546 127.22C37.0794 127.22 36.896 127.128 36.6208 127.128C36.1621 127.037 35.7034 126.945 35.2448 126.945C34.4192 126.853 33.5018 126.67 32.8597 126.67C31.3919 126.486 30.5663 126.395 30.5663 126.395C30.4746 126.395 30.2911 126.395 30.1994 126.395C30.1077 126.395 29.9242 126.395 29.8325 126.395H17.0815C8.73368 126.395 2.03711 133.091 2.03711 141.439C2.03711 149.787 8.73368 156.483 17.0815 156.483H29.4655C29.8325 156.483 30.4746 156.575 31.3919 156.575C31.4837 156.575 31.3919 156.667 31.3919 156.667H31.4837C31.6671 156.667 31.8506 156.758 32.0341 156.758C32.2175 156.758 32.401 156.85 32.6762 156.942C32.8597 156.942 33.1349 157.034 33.3183 157.125C33.4101 157.125 33.5935 157.217 33.6853 157.217C33.777 157.309 33.9605 157.309 34.0522 157.401L34.4192 157.584C34.5109 157.676 34.6944 157.768 34.7861 157.768C34.8778 157.859 35.0613 157.859 35.153 157.951C35.2448 158.043 35.4282 158.134 35.52 158.226C36.0704 158.501 36.529 158.96 37.0794 159.419C37.3546 159.602 37.5381 159.877 37.8133 160.153L38.4554 160.978C38.8224 161.529 39.281 162.171 39.4645 162.905C39.5562 163.272 39.7397 163.547 39.8315 163.914L40.0149 164.464V164.556C40.0149 163.272 40.0149 164.189 40.0149 163.914V164.189V164.831C40.0149 165.198 40.1067 165.657 40.1067 166.024V166.299V166.39V166.482C40.1067 166.574 40.1984 166.666 40.1984 166.757V166.849V166.941V167.216C40.2901 167.95 40.2901 168.684 40.2901 169.418C40.2901 169.785 40.1984 170.06 40.1984 170.427C40.1067 170.794 40.1067 171.069 40.0149 171.344C39.9232 171.986 39.7397 172.445 39.7397 172.995C39.648 173.454 39.4645 173.821 39.4645 174.096C39.3728 174.371 39.3728 174.555 39.3728 174.555L38.6389 178.041C38.1802 180.242 38.5472 182.719 39.9232 184.829C42.5835 188.957 48.0875 190.058 52.2155 187.398C52.2155 187.398 52.4907 187.214 52.9494 186.939C53.4081 186.664 54.1419 186.113 54.9675 185.471C55.4262 185.104 55.7931 184.737 56.2518 184.279C56.7105 183.82 57.2609 183.361 57.7196 182.811C58.1782 182.26 58.7286 181.618 59.279 180.976C59.8294 180.242 60.2881 179.508 60.8385 178.683C61.8476 177.032 62.7649 175.197 63.4988 173.087L63.774 172.261L63.9575 171.895L64.0492 171.436C64.2327 170.794 64.3244 170.152 64.5079 169.418C64.5996 168.776 64.7831 168.225 64.8748 167.583C64.9665 167.216 64.9665 166.849 65.0583 166.39L65.15 165.84L65.2417 165.565V164.464C65.2417 163.822 65.2417 163.18 65.2417 162.538C65.7004 160.886 65.5169 159.602 65.4252 158.318Z" fill="#FFB8B8"/>
<path d="M30.567 126.395C30.4753 126.395 30.2918 126.395 30.2001 126.395C30.1083 126.395 29.9249 126.395 29.8331 126.395H27.2646C27.2646 126.578 27.1729 126.761 27.1729 126.945V156.483H29.3745C29.7414 156.483 30.3835 156.575 31.3009 156.575C31.3926 156.575 31.3009 156.667 31.3009 156.667H31.3926C31.5761 156.667 31.7595 156.758 31.943 156.758C32.1265 156.758 32.3099 156.85 32.5851 156.942C32.6769 156.942 32.7686 156.942 32.8603 157.034V126.945C32.8603 126.853 32.8603 126.67 32.8603 126.578C32.8603 126.578 32.8603 126.578 32.7686 126.578C31.3926 126.486 30.567 126.395 30.567 126.395Z" fill="#E88989"/>
<path d="M56.0681 137.953L35.7949 158.226C36.2536 158.502 36.7123 158.96 37.1709 159.327C37.4461 159.511 37.6296 159.786 37.9048 160.061L38.5469 160.887C38.9139 161.437 39.2808 161.987 39.556 162.63L59.7375 142.448C58.6367 140.889 57.3524 139.329 56.0681 137.953Z" fill="#E88989"/>
<path d="M40.1982 164.465V164.74C40.1982 165.107 40.29 165.566 40.29 165.933V166.208V166.3V166.391C40.29 166.483 40.3817 166.575 40.3817 166.666V166.758V166.85V167.125C40.4734 167.859 40.4734 168.593 40.4734 169.327C40.4734 169.694 40.3817 169.969 40.3817 170.336H64.3242C64.416 169.969 64.5077 169.51 64.5994 169.143C64.6912 168.501 64.8746 167.951 64.9664 167.309C65.0581 166.942 65.0581 166.575 65.1498 166.116L65.2416 165.566L65.3333 165.29V164.648H40.1982V164.465Z" fill="#E88989"/>
<path d="M65.4252 158.319C65.15 155.658 64.5996 153.09 63.6822 150.521C63.2236 149.237 62.6732 148.044 62.1228 146.76C61.4806 145.568 60.9302 144.375 60.1963 143.182C58.7286 140.889 57.0774 138.779 55.2427 137.036C54.784 136.578 54.3254 136.119 53.8667 135.66C53.408 135.202 52.8576 134.835 52.399 134.468C51.9403 134.101 51.3899 133.734 50.9312 133.275C50.3808 132.908 49.9222 132.633 49.4635 132.266C49.0048 131.899 48.4544 131.624 47.9957 131.349C47.5371 131.074 46.9867 130.798 46.528 130.523C45.5189 129.973 44.6016 129.514 43.5925 129.147C42.5834 128.78 41.6661 128.413 40.7488 128.138C39.8314 127.863 38.9141 127.588 38.0885 127.404C37.905 127.404 37.7216 127.312 37.5381 127.312C38.1802 127.588 38.8224 127.955 39.5562 128.322C40.0149 128.597 40.5653 128.872 41.024 129.147C41.4826 129.422 42.033 129.789 42.4917 130.065C42.9504 130.431 43.5008 130.707 43.9595 131.074C44.4181 131.441 44.9685 131.807 45.4272 132.266C45.8859 132.633 46.4363 133.092 46.8949 133.459C47.3536 133.917 47.8123 134.376 48.2709 134.835C50.1056 136.669 51.7568 138.687 53.2246 140.981C53.9584 142.082 54.6006 143.366 55.151 144.558C55.7014 145.751 56.2518 147.035 56.7105 148.32C57.5361 150.888 58.1782 153.548 58.4534 156.117C58.5451 157.401 58.7286 158.685 58.6369 159.97C58.6369 160.612 58.6369 161.254 58.6369 161.896V162.997L58.5451 163.089L58.4534 163.639C58.3617 164.006 58.3617 164.465 58.2699 164.832C58.1782 165.474 57.9947 166.116 57.903 166.666C57.7195 167.308 57.6278 168.042 57.4443 168.684L57.3526 169.143L57.1691 169.51L56.8939 170.427C56.1601 172.537 55.151 174.372 54.2336 176.023C53.6832 176.849 53.2246 177.583 52.6742 178.317C52.1238 178.959 51.5734 179.601 51.1147 180.151C50.656 180.702 50.1056 181.252 49.647 181.619C49.1883 182.078 48.7296 182.445 48.3627 182.811C47.5371 183.454 46.8032 183.912 46.3445 184.279C45.8859 184.554 45.6107 184.738 45.6107 184.738C44.4181 185.563 43.0421 186.022 41.6661 186.114C44.6016 188.866 49.0965 189.325 52.5824 187.031C52.5824 187.031 52.8576 186.848 53.3163 186.573C53.775 186.297 54.5088 185.747 55.3344 185.105C55.7931 184.738 56.1601 184.371 56.6187 183.912C57.0774 183.454 57.6278 182.995 58.0865 182.445C58.5451 181.894 59.0955 181.252 59.6459 180.61C60.1963 179.876 60.655 179.142 61.2054 178.317C62.2145 176.665 63.1318 174.831 63.8657 172.721L64.1409 171.895L64.3244 171.528L64.4161 171.07C64.5996 170.427 64.6913 169.785 64.8748 169.051C64.9665 168.409 65.15 167.859 65.2417 167.217C65.3334 166.85 65.3334 166.483 65.4252 166.024L65.5169 165.474L65.6086 165.199V164.098C65.6086 163.456 65.6086 162.813 65.6086 162.171C65.7004 160.887 65.5169 159.603 65.4252 158.319Z" fill="#E88D8E"/>
<path d="M56.0683 137.953L53.1328 140.889C53.8667 141.989 54.5088 143.274 55.0592 144.466C55.3344 145.108 55.6096 145.659 55.8848 146.301L59.6459 142.54C58.6368 140.889 57.3526 139.329 56.0683 137.953Z" fill="#CE6363"/>
<path d="M58.2705 164.465C58.2705 164.557 58.2705 164.74 58.1787 164.832C58.087 165.474 57.9035 166.116 57.8118 166.666C57.6283 167.309 57.5366 168.042 57.3531 168.685L57.2614 169.143L57.0779 169.51L56.8027 170.152H64.4166C64.5084 169.785 64.6001 169.327 64.6918 168.96C64.7836 168.318 64.967 167.767 65.0588 167.125C65.1505 166.758 65.1505 166.391 65.2422 165.933L65.334 165.382L65.4257 165.107V164.465H58.2705Z" fill="#CE6363"/>
<path d="M17.6321 132.357C19.6503 134.375 19.2834 138.045 16.8065 140.521C14.3297 142.998 10.6604 143.365 8.64223 141.347C6.62409 139.329 6.99102 135.659 9.46784 133.183C12.0364 130.706 15.614 130.339 17.6321 132.357Z" fill="#FFE1E1"/>
<path d="M43.3165 133.733C44.6925 135.109 44.509 137.677 42.7661 139.42C41.0231 141.163 38.4546 141.438 37.0786 139.97C35.7026 138.594 35.886 136.026 37.629 134.283C39.3719 132.632 41.9405 132.357 43.3165 133.733Z" fill="#FFE1E1"/>
</g>
</svg>
