<svg width="151" height="165" viewBox="0 0 151 165" fill="none" xmlns="http://www.w3.org/2000/svg">
<g clip-path="url(#clip0)">
<path d="M142.334 19.0217C141.976 32.1759 141.636 44.9024 141.312 57.2184C140.342 93.3453 138.946 165 138.946 165H12.6158C12.6158 165 9.94281 93.3966 8.68291 51.5051C8.49563 45.2616 8.39348 38.6418 10.9303 33.168C13.5012 27.6258 19.6814 23.9481 24.9934 26.8732C29.4541 29.3364 31.5313 35.1693 33.8297 40.0957C36.1111 44.9537 40.1292 49.9827 44.7091 49.1104C48.9314 48.3064 51.8598 42.1997 52.7792 37.2733C54.1072 30.1745 55.5714 22.9731 58.4828 16.4046C61.8028 8.91234 67.1318 2.41224 73.7207 0.496417C78.1133 -0.786498 82.9656 0.359573 86.6431 3.72936C91.1379 7.8518 90.9846 14.7282 94.2876 19.8599C97.914 25.5389 103.907 30.1061 109.747 26.5653C116.353 22.5626 116.625 11.1874 121.988 4.63596C127.607 -2.15494 138.316 -0.512809 141.261 7.59521C142.538 11.1018 142.453 15.1388 142.334 19.0217Z" fill="#B2DFDC"/>
<path d="M128.744 75.8609C127.45 77.024 122.036 75.228 120.231 75.4674C97.1445 78.6662 53.7633 77.5201 38.0997 76.5451C35.9886 76.4082 34.3882 76.2885 33.4007 76.1688C33.3496 76.1688 33.3155 76.1517 33.2645 76.1517C32.7197 76.0832 32.2259 76.0832 31.7492 76.1003C30.1488 76.1859 29.0081 76.699 28.5314 76.853C27.4077 77.2293 26.267 77.6056 25.0411 77.7083C24.7857 77.7254 24.5474 77.7254 24.292 77.6741C23.8153 77.5885 23.5088 77.4004 23.3215 77.1438C23.0321 76.7846 22.998 76.2885 22.998 75.8438C22.998 73.5174 24.2409 71.1569 24.2239 68.8647C24.2239 68.3002 24.1388 67.7357 23.9515 67.1713C23.7301 66.5384 23.4748 65.7344 23.2023 64.7936C20.8528 56.6 17.1583 36.9629 25.1092 15.4612C25.8754 13.3915 23.0151 10.6717 24.326 9.08086C25.7902 7.30188 28.6846 9.40587 33.1453 8.99533C59.7563 6.56635 85.1415 6.49792 101.605 8.02032C102.031 8.05453 102.456 8.10584 102.882 8.14006C102.967 8.14006 103.052 8.15716 103.138 8.15716C108.875 8.72164 116.775 10.3809 119.772 10.9112C120.453 11.0309 127.093 9.2177 128.506 10.6546C129.459 11.6296 128.386 13.8362 127.654 17.0178C127.637 17.1034 127.688 17.4968 127.791 18.1468C128.761 24.0482 134.005 51.2973 127.501 66.9831C127.075 71.0713 130.872 73.9451 128.744 75.8609Z" fill="white"/>
<path d="M127.484 26.2377C127.927 30.2062 126.752 33.7983 126.752 33.7983C126.752 33.7983 124.845 30.9588 124.386 26.9903C123.943 23.0219 125.118 19.4297 125.118 19.4297C125.118 19.4297 127.025 22.2863 127.484 26.2377Z" fill="#EFF0F0"/>
<path d="M128.268 43.2226C128.132 47.2253 126.429 50.3727 126.429 50.3727C126.429 50.3727 124.982 47.02 125.118 43.0173C125.254 39.0146 126.957 35.8672 126.957 35.8672C126.957 35.8672 128.421 39.2199 128.268 43.2226Z" fill="#EFF0F0"/>
<path d="M126.292 60.7228C125.424 64.6058 123.245 67.1374 123.245 67.1374C123.245 67.1374 122.462 63.3742 123.313 59.5083C124.181 55.6254 126.36 53.0938 126.36 53.0938C126.36 53.0938 127.144 56.857 126.292 60.7228Z" fill="#EFF0F0"/>
<path opacity="0.5" d="M128.744 75.8605C127.45 77.0236 122.036 75.2275 120.232 75.467C97.1449 78.6658 53.7637 77.5197 38.1001 76.5447C35.4612 75.1078 38.2023 66.7774 49.2519 71.3788C69.6145 79.8631 104.159 75.6552 115.09 62.9629C118.461 59.0457 132.013 28.7689 107.445 17.1029C101.163 14.1266 103.053 8.17383 103.138 8.17383C108.876 8.73831 116.775 10.3975 119.772 10.9278C120.453 11.0476 127.093 9.23437 128.506 10.6712C129.459 11.6463 128.387 13.8529 127.655 17.0345C127.638 17.12 127.689 17.5135 127.791 18.1635C128.761 24.0649 134.005 51.314 127.502 66.9998C127.076 71.0709 130.873 73.9446 128.744 75.8605Z" fill="#F6F6F5"/>
<path d="M52.7413 46.3034C52.4008 47.2784 42.6792 47.056 41.5725 49.7929C45.9822 49.1429 53.5926 48.3902 53.9161 49.3482C54.2906 50.4087 42.7132 53.7101 42.4408 57.2509C48.7573 55.5917 54.5971 54.2574 55.7208 54.9588C56.8275 55.6601 52.3157 58.2088 53.9331 65.0681C56.521 62.126 64.4209 57.097 65.7829 57.4391C67.1279 57.7641 64.9997 61.0997 67.6047 65.7182C70.4139 61.801 74.3808 58.2772 74.6533 58.2088C75.1811 58.0549 75.4024 62.776 77.6327 64.5892C78.484 60.9799 78.8756 57.8667 79.4204 57.7983C79.7439 57.7641 83.8641 64.5379 87.1841 64.9313C85.7199 60.7575 83.4555 55.7114 84.1195 55.3522C84.7835 54.9759 94.454 60.826 97.774 63.1523C98.1145 61.2194 88.6313 52.6495 89.3463 52.1877C90.0614 51.7258 99.1871 53.2311 103.103 54.343C100.243 51.4179 93.092 48.51 93.8922 47.8942C94.7264 47.2613 98.7445 46.7652 101.639 46.9363C99.749 44.5244 95.4926 44.6955 95.6628 43.8231C95.8331 42.9336 106.491 41.9757 114.766 43.002C111.548 39.598 95.8671 39.9572 95.782 39.0677C95.6799 38.1611 103.461 33.9532 107.683 33.4229C102.167 32.7387 95.118 35.0137 94.8626 34.1926C94.6073 33.3374 100.243 29.7452 107.649 26.786C100.975 26.8544 93.5517 31.2847 92.8366 30.6347C92.1045 29.9676 97.3654 23.9293 100.975 21.4832C93.8241 21.5003 90.1125 29.1465 88.9718 29.0097C87.8311 28.8728 86.3498 23.5017 89.0229 17.7713C85.6518 18.7464 81.2762 28.4965 80.3398 28.086C79.4034 27.6754 80.493 19.7727 82.485 11.8357C77.4455 14.966 75.828 27.2478 75.0448 26.9057C74.2617 26.5465 73.3253 14.3502 68.8135 11.5449C69.3413 16.0437 68.4389 25.2978 67.5706 25.0583C66.9066 24.8872 63.0248 16.3516 58.7854 13.8371C59.7048 16.9674 62.1565 24.032 62.0203 24.203C61.7308 24.6136 56.5721 18.524 50.8855 16.9503C54.6482 20.3714 58.8876 26.3412 58.6662 26.786C58.4449 27.2307 54.0863 24.4425 48.4849 24.6136C52.1284 26.6149 55.9081 30.0873 55.7038 30.8742C55.4995 31.661 41.8449 28.1373 39.0527 29.1465C46.7994 31.7295 54.6482 34.9282 54.3758 35.6808C54.0012 36.7585 42.6962 35.0137 41.249 36.6387C44.0923 37.323 56.1124 40.0599 55.5165 41.0178C54.9206 41.9757 39.257 40.7954 37.1118 42.677C43.241 43.9086 53.0989 45.3284 52.7413 46.3034Z" fill="#EFF0F0"/>
<path d="M53.9846 97.2636L59.8073 83.0489L60.1649 82.9121C60.1649 82.9121 61.1013 82.416 61.9696 81.6462C62.1058 81.5265 62.242 81.3897 62.3782 81.2528C62.3952 81.2357 62.4293 81.2015 62.4463 81.1844C63.6892 79.8844 64.3872 78.1738 64.3872 76.3777V62.1973H86.7078V76.4291C86.7078 78.2251 87.3888 79.9528 88.6487 81.2357L88.6657 81.2528C88.7679 81.3554 88.8871 81.4752 88.9892 81.5778C89.8746 82.3818 90.862 82.9121 90.862 82.9121L91.2877 83.0831L99.2897 95.0912L53.9846 97.2636Z" fill="#D18E5A"/>
<path d="M129.34 101.591C116.894 108.895 96.3271 107.304 95.7142 102.976C93.0071 84.1604 130.787 75.0602 130.191 71.6049C129.561 68.0641 102.439 54.5849 102.439 54.5849C102.439 54.5849 99.4939 54.5507 96.8379 54.2941C96.0887 54.2257 95.3737 54.1402 94.7437 54.0375C94.1308 53.9349 93.62 53.8152 93.2284 53.6783C90.249 52.5493 82.8428 46.2545 82.8428 46.2545C81.6681 45.4163 81.0722 44.1334 81.0551 42.8334C81.0381 41.5163 81.6 40.1991 82.7747 39.3268L88.5124 35.0675C89.8574 34.0754 91.6451 33.9556 93.1093 34.7596L96.8208 36.8122L107.189 42.5255C107.189 42.5255 147.591 53.9349 150.945 73.1444C151.916 78.6524 137.665 95.8948 129.34 101.591Z" fill="#E2985E"/>
<path d="M69.9542 42.9028C69.9201 44.1686 69.3242 45.4344 68.1665 46.2554C68.1665 46.2554 60.7604 52.5674 57.7809 53.6792C57.4063 53.8161 56.8785 53.9358 56.2656 54.0385C55.6016 54.1411 54.8355 54.2437 54.0693 54.3121C51.4304 54.5516 48.5871 54.5858 48.5871 54.5858C48.5871 54.5858 21.4483 68.065 20.8354 71.6058C20.2224 75.0441 58.0022 84.1442 55.3122 102.977C54.6993 107.305 34.1153 108.896 21.6866 101.592C13.3271 95.8957 -0.923345 78.6533 0.0471139 73.1453C3.40116 53.9358 43.8029 42.5264 43.8029 42.5264L53.9501 36.9329L57.9001 34.7605C59.3643 33.9395 61.152 34.0592 62.497 35.0684L68.2516 39.3277C68.7284 39.6698 69.1029 40.0974 69.3753 40.5593C69.6818 41.0554 69.8691 41.6027 69.9372 42.1672C69.9542 42.4067 69.9542 42.6633 69.9542 42.9028Z" fill="#E2985E"/>
<path d="M115.022 80.2437C111.463 81.7147 107.939 83.4082 104.823 85.3069C104.313 85.6148 103.717 85.7345 103.138 85.649C98.9665 85.0503 94.0461 84.2122 94.0461 84.2122L91.2709 83.0832L91.2198 83.0661C86.4356 85.7688 81.1066 87.274 75.5052 87.274C69.9038 87.274 64.5748 85.7688 59.7906 83.0661L56.9644 84.2122L50.4946 85.9398C49.0475 86.3332 47.5152 86.1109 46.2382 85.324C43.1055 83.4253 39.5472 81.7147 35.9718 80.2266L21.6533 101.574C27.3739 104.876 34.2692 109.015 38.7299 118.748C39.8877 134.52 42.2202 152.737 39.5812 165.156H112.025C109.352 151.026 110.867 137.924 111.157 126.497C111.293 121.434 112.825 116.507 115.72 112.351C119.636 106.689 124.692 104.26 129.34 101.574L115.022 80.2437Z" fill="#2568B6"/>
<path d="M91.2707 83.0835L91.2197 83.0664C86.4355 85.7691 81.1064 87.2744 75.505 87.2744C69.9036 87.2744 64.5746 85.7691 59.7904 83.0664L56.9641 84.2125L58.6156 85.1533C63.9276 88.1468 69.5971 89.6692 75.505 89.6692C81.4129 89.6692 87.0824 88.1468 92.3944 85.1533L94.0459 84.2125L91.2707 83.0835Z" fill="white"/>
<path d="M94.3015 45.7756C95.9019 46.323 97.5875 47.1783 96.9745 50.4968C96.7873 51.4889 96.3446 52.3613 95.7828 53.0626C95.306 53.6442 94.9655 54.3284 94.8634 55.0639C94.5399 57.3219 93.3311 58.9982 91.8839 58.9982C90.1984 59.0153 92.7182 45.2283 94.3015 45.7756Z" fill="#D18E5A"/>
<path d="M56.6913 45.7756C55.0909 46.323 53.4054 47.1783 54.0183 50.4968C54.2056 51.4889 54.6482 52.3613 55.2271 53.0626C55.7038 53.6442 56.0443 54.3284 56.1465 55.0639C56.47 57.3219 57.6788 58.9982 59.126 58.9982C60.7945 59.0153 58.2747 45.2283 56.6913 45.7756Z" fill="#D18E5A"/>
<path opacity="0.25" d="M86.6735 62.1973V72.1014C83.8302 75.1119 79.8633 77.7291 75.4877 77.7291C71.1462 77.7291 67.1962 75.1462 64.353 72.1527V62.1973H86.6735Z" fill="#D18E5A"/>
<path d="M92.8365 35.4094C91.7468 30.3633 87.6947 26.6172 82.8765 26.6172H68.1153C63.297 26.6172 59.2449 30.3633 58.1553 35.4094C57.968 36.2989 57.8659 37.2226 57.8659 38.1634L58.3085 56.2782C58.3085 58.6216 59.4663 61.6664 59.9941 63.6507C61.0497 67.6192 67.6215 76.1377 75.5044 76.1377C83.3702 76.1377 89.9591 67.6192 91.0147 63.6507C91.5425 61.6664 92.7003 58.6216 92.7003 56.2782L93.1429 38.1634C93.1429 37.2226 93.0408 36.2989 92.8365 35.4094Z" fill="#E2985E"/>
<path d="M95.0327 37.9756C94.7944 24.8899 92.0873 21.3149 89.3462 22.0846C74.5169 11.291 55.7717 18.2872 55.6185 37.3427C55.5504 45.4166 56.4868 52.0022 56.7422 54.893C56.8273 55.7996 57.4913 56.4838 58.2915 56.4838C58.2404 55.6628 57.5424 47.5205 60.0792 41.9099C60.5048 40.952 60.4367 39.823 59.8919 38.9507C61.0837 36.5559 62.3266 34.0414 66.9235 35.9059C74.4828 38.9678 77.5304 37.9756 79.6416 37.3256C78.1604 39.7546 67.3491 38.2664 67.3491 38.2664C67.3491 38.2664 72.7803 40.5586 77.0707 40.0112C85.2771 38.9849 85.5835 33.8703 85.5835 33.8703C89.9251 34.4519 91.2701 38.4375 91.2871 38.4888C91.202 38.6599 91.0998 38.8309 91.0147 38.9849C90.5039 39.8401 90.4188 40.952 90.8444 41.8757C93.4834 47.7087 92.6491 56.518 92.6491 56.518C93.4664 56.5009 94.1304 55.7825 94.1985 54.8588C94.3858 52.0022 95.1689 45.656 95.0327 37.9756Z" fill="#153F57"/>
<path d="M135.013 144.58C134.145 151.508 134.349 158.504 134.571 165.483H15.3063C15.5106 161.6 15.6979 157.717 15.8852 153.834C16.0725 150.242 16.2427 146.65 16.0384 143.075C15.749 137.995 14.6934 132.948 14.2337 127.885C14.2167 127.731 14.1997 127.577 14.1997 127.423C14.1826 127.15 14.1486 126.859 14.1316 126.585C14.1145 126.414 14.1145 126.226 14.0975 126.055C14.0805 125.901 14.0805 125.747 14.0634 125.593C14.0634 125.49 14.0464 125.388 14.0464 125.285C14.0294 125.148 14.0294 124.994 14.0294 124.857C14.0294 124.823 14.0294 124.806 14.0294 124.772C14.0294 124.584 14.0124 124.396 14.0124 124.207C13.9783 122.531 14.0975 120.718 15.2893 119.401C16.9408 117.605 19.9543 117.399 22.6103 117.365C33.5237 117.245 44.4541 117.451 55.3675 117.964C80.5314 119.178 105.831 122.121 130.842 119.349C132.562 119.161 134.537 119.007 135.813 120.017C136.818 120.821 137.056 122.086 137.176 123.267C137.891 130.4 135.899 137.481 135.013 144.58Z" fill="#FBD790"/>
<path d="M135.013 144.58C134.145 151.508 134.349 158.504 134.571 165.483H121.699C123.01 161.104 122.38 155.015 124.866 151.422C127.011 148.309 129.208 145.076 129.718 141.467C130.229 137.841 128.527 133.701 124.781 132.264C123.095 131.614 121.189 131.58 119.35 131.546C92.3472 131.101 65.3616 130.639 38.3591 130.194C31.8893 130.092 25.3685 129.972 19.018 128.809C17.4346 128.518 15.8512 128.159 14.2678 127.885C14.2508 127.731 14.2338 127.577 14.2338 127.423C14.2168 127.15 14.1827 126.859 14.1657 126.585C14.1487 126.414 14.1487 126.226 14.1316 126.055C14.1146 125.901 14.1146 125.747 14.0976 125.593C14.0976 125.49 14.0806 125.388 14.0806 125.285C14.0635 125.148 14.0635 124.994 14.0635 124.857C14.0635 124.823 14.0635 124.806 14.0635 124.772C14.0635 124.584 14.0465 124.396 14.0465 124.207C14.0125 122.531 14.1316 120.718 15.3234 119.401C16.9749 117.605 19.9884 117.399 22.6444 117.365C33.5578 117.245 44.4883 117.451 55.4017 117.964C80.5655 119.178 105.866 122.121 130.876 119.349C132.596 119.161 134.571 119.007 135.848 120.017C136.852 120.821 137.09 122.086 137.21 123.267C137.891 130.4 135.899 137.481 135.013 144.58Z" fill="#F5C968"/>
<path d="M143.645 126.5C143.389 126.945 142.811 127.219 142.283 127.441C139.661 128.536 136.886 129.203 134.128 129.836C114.531 134.249 94.6282 136.319 74.7764 136.028C64.8164 135.891 54.8564 135.156 44.9645 133.821C33.2169 132.231 21.4692 129.75 10.3515 125.388C9.67048 125.115 8.98945 124.841 8.42761 124.396C6.55479 122.925 6.87828 120.548 7.4231 118.649C8.37653 115.296 9.46617 111.978 10.692 108.71C11.3049 107.068 13.2459 106.23 15.2038 106.743C52.0131 116.1 90.1164 116.459 126.892 107.889C130.893 106.966 134.962 105.905 138.997 106.025C139.44 106.042 139.933 106.076 140.257 106.333C140.597 106.607 140.682 107.051 140.751 107.462C141.772 113.397 142.777 119.35 143.764 125.303C143.798 125.679 143.866 126.107 143.645 126.5Z" fill="white"/>
<path d="M140.24 106.315C139.917 106.058 139.44 106.024 138.98 106.007C134.945 105.904 130.876 106.948 126.875 107.872C126.824 107.889 126.773 107.889 126.739 107.906C127.25 109.172 129.157 109.616 130.791 109.531C132.562 109.445 134.486 109.018 135.984 109.736C137.295 110.352 137.925 111.703 138.316 113.02C138.895 114.97 139.151 117.143 138.248 119.178C136.392 123.455 130.519 125.422 125.428 126.534C108.079 130.382 90.3893 132.127 72.7507 131.751C70.0777 131.7 67.3877 131.597 64.7317 131.785C62.6375 131.939 60.5945 132.298 58.5344 132.623C55.2484 133.136 51.9284 133.598 48.7106 134.3C57.3766 135.343 66.0767 135.907 74.7938 136.027C94.6457 136.301 114.532 134.248 134.145 129.835C136.903 129.219 139.678 128.535 142.3 127.44C142.828 127.218 143.407 126.944 143.662 126.499C143.884 126.106 143.833 125.678 143.764 125.285C142.777 119.332 141.79 113.397 140.751 107.444C140.666 107.033 140.581 106.589 140.24 106.315Z" fill="#F6F6F5"/>
</g>
<defs>
<clipPath id="clip0">
<rect width="151" height="165" fill="white"/>
</clipPath>
</defs>
</svg>
