<svg width="144" height="144" viewBox="0 0 144 144" fill="none" xmlns="http://www.w3.org/2000/svg">
<path d="M72 144C111.765 144 144 111.765 144 72C144 32.2355 111.765 0 72 0C32.2355 0 0 32.2355 0 72C0 111.765 32.2355 144 72 144Z" fill="#D1C9BD"/>
<path d="M143.622 66.2408C143.622 66.2385 143.622 66.2361 143.622 66.2338C143.575 65.6411 143.522 65.0531 143.461 64.4651C143.447 64.3227 143.428 64.1781 143.412 64.0357C143.363 63.597 143.314 63.1584 143.258 62.722C143.209 62.3417 143.153 61.9637 143.099 61.5856C143.071 61.3943 143.046 61.2006 143.018 61.007C137.723 26.547 107.944 0.151367 72.0002 0.151367C69.4591 0.151367 66.9507 0.284372 64.4796 0.541048C53.9628 18.7277 38.8236 36.233 34.2338 40.8555C28.9649 46.1641 45.6162 64.6354 57.6333 68.8822C57.6333 68.8822 67.2843 80.5727 63.3572 89.7033C63.3572 89.7033 83.1376 113.469 83.9823 123.022C83.9823 123.022 85.4057 131.612 88.7565 141.888C120.274 134.304 143.729 105.806 143.848 71.764C143.844 69.9066 143.767 68.0632 143.622 66.2408Z" fill="#FDBC98"/>
<path d="M107.359 108.1C107.359 108.1 90.1472 100.624 80.5849 95.7565C71.0225 90.889 64.7643 86.7168 62.6782 91.0617C60.5921 95.4088 63.5486 101.84 71.1975 103.926C78.8465 106.012 96.9282 108.968 107.359 108.1Z" fill="#E6764A"/>
<path d="M70.8498 116.272C71.3351 120.255 76.9354 126.877 90.6699 122.01C104.404 117.142 109.62 108.256 109.62 108.256L86.15 104.796H74.7746C74.7723 104.796 69.9794 109.143 70.8498 116.272Z" fill="#FF8453"/>
<path d="M53.5521 54.4642C39.8152 49.76 34.6887 44.1622 33.515 42.6758C30.9692 49.0204 46.3465 65.443 57.6332 69.4028C57.6332 69.4028 57.7709 69.5685 57.9996 69.8671C74.0955 72.8399 79.369 68.3737 78.326 63.9402C77.283 59.5067 69.5453 59.9408 53.5521 54.4642Z" fill="#FFA069"/>
<path d="M47.8659 67.9395C47.8659 67.9395 29.9149 94.4938 47.8659 94.4938C65.8169 94.4938 47.8659 67.9395 47.8659 67.9395Z" fill="#CE2121"/>
</svg>
