<svg width="144" height="144" viewBox="0 0 144 144" fill="none" xmlns="http://www.w3.org/2000/svg">
<g clip-path="url(#clip0)">
<path d="M72 144C111.764 144 144 111.764 144 72C144 32.2355 111.764 0 72 0C32.2355 0 0 32.2355 0 72C0 111.764 32.2355 144 72 144Z" fill="#D1C9BD"/>
<path d="M26.3534 16.3188C25.9408 19.5128 26.057 22.2587 26.6972 24.2102C30.4722 35.7178 34.067 49.7887 24.8192 59.5748C21.3857 63.2075 19.7187 66.9232 19.2682 70.6768C19.2682 70.6768 19.0974 73.7832 20.7549 77.9779C31.2002 89.3289 45.3635 97.2038 61.3148 99.6628C64.8313 99.9686 68.6371 100.135 72.7654 100.135C76.2535 100.135 79.4997 99.9805 82.5183 99.6936C94.5523 97.8748 105.576 92.9759 114.762 85.8266C115.334 85.1674 115.863 84.4987 116.353 83.8277C119.45 79.5856 120.126 73.8614 118.146 68.915C117.16 66.4513 115.855 63.9544 114.21 61.4717C105.403 48.1668 117.885 43.1327 111.734 11.951C100.348 4.40337 86.6893 0 71.9995 0C54.673 0 38.7763 6.12251 26.3534 16.3188Z" fill="#98441D"/>
<path d="M63.8143 51.8922C63.8143 51.8922 64.5494 58.828 61.2842 64.0494C61.2842 64.0494 66.0978 68.5358 72.6258 67.2316C79.1538 65.9251 83.4765 62.2544 83.4765 62.2544C83.4765 62.2544 80.0501 56.4615 79.9671 51.8922C79.8865 47.3228 63.8143 51.8922 63.8143 51.8922Z" fill="#FDBC98"/>
<path opacity="0.48" d="M72.3793 56.9115C76.9368 56.9115 79.308 56.1029 80.5268 55.3488C80.2067 54.1917 79.9885 53.0037 79.9672 51.8892C79.8866 47.3199 63.812 51.8892 63.812 51.8892C63.812 51.8892 63.9638 53.3404 63.8191 55.4129C65.543 56.1764 68.2676 56.9115 72.3793 56.9115Z" fill="#FDBC98"/>
<path d="M40.3344 19.4463C40.3344 19.4463 35.516 17.5541 32.1133 21.7843C28.7106 26.0146 34.2854 33.8824 40.2869 33.5765C46.2885 33.2682 40.3344 19.4463 40.3344 19.4463Z" fill="#FDBC98"/>
<path d="M99.7788 16.5674C99.7788 16.5674 104.597 14.6752 108 18.9054C111.403 23.1357 105.828 31.0034 99.8262 30.6976C93.8246 30.3917 99.7788 16.5674 99.7788 16.5674Z" fill="#FDBC98"/>
<path opacity="0.4" d="M39.0638 22.0002C39.0638 22.0002 36.4579 21.4359 35.0162 22.3512C33.5721 23.2665 33.0789 25.1682 33.961 26.5056C34.8407 27.8429 37.0933 26.8921 37.4988 28.0184C37.9043 29.1447 38.6773 30.6931 41.3189 30.5888C43.9581 30.4845 39.0638 22.0002 39.0638 22.0002Z" fill="#FDBC98"/>
<path opacity="0.4" d="M101.524 19.2902C101.524 19.2902 103.869 18.6049 105.233 19.4514C106.596 20.298 107.144 22.1736 106.409 23.5513C105.676 24.929 103.573 24.0848 103.262 25.2301C102.952 26.3754 102.326 27.957 99.9143 27.976C97.5027 27.995 101.524 19.2902 101.524 19.2902Z" fill="#FDBC98"/>
<path d="M37.66 8.70241C37.3897 12.2095 37.4585 15.6762 37.8687 18.9556C40.3158 38.5348 53.0422 52.6531 70.5442 54.0545C78.0088 54.6521 97.4695 46.7725 100.405 28.6255C101.664 20.8526 101.671 12.8331 101.268 6.20313C92.3263 2.2171 82.4241 0 72.0002 0C59.5654 0 47.8658 3.15373 37.66 8.70241Z" fill="#FDBC98"/>
<path opacity="0.79" d="M65.8679 26.3582L70.2594 27.2426C70.3471 27.2616 70.442 27.2592 70.5297 27.2379L74.9497 26.1471C75.4524 26.0238 75.8152 26.5242 75.4192 26.7945L70.8261 29.9553C70.6483 30.0763 70.3851 30.0834 70.2001 29.9672L65.4434 27.0245C65.0308 26.7684 65.3581 26.2562 65.8679 26.3582Z" fill="#FDBC98"/>
<path d="M109.96 133.187C117.221 128.672 123.619 122.906 128.85 116.183V115.837L109.96 117.675V133.187Z" fill="#FDBC98"/>
<path d="M84.6434 61.2012C85.2552 62.5907 66.9469 68.884 61.5903 61.2012C55.5626 62.3014 40.5219 65.9057 37.1216 68.4737C36.2276 69.1495 39.3221 93.1274 39.3221 93.1274C39.3221 93.1274 38.625 110.833 38.2266 118.203C37.7713 126.571 39.0755 134.427 39.4003 136.213C49.1888 141.192 60.2695 144.002 72.0047 144.002C83.8158 144.002 94.963 141.159 104.796 136.118C105.173 130.517 105.984 117.24 105.854 108.339C105.688 96.8052 112.707 72.5641 112.707 72.5641C112.707 72.5641 87.6525 62.3726 84.6434 61.2012Z" fill="#FFD93B"/>
<path d="M132.852 110.492C132.212 105.712 131.233 99.4305 130.019 94.7734C127.361 84.589 119.069 75.1041 113.636 72.8751L110.546 71.3291C105.031 78.016 104.44 119.346 104.44 119.346C110.501 120.888 120.159 119.84 126.704 118.803C128.947 116.19 131.003 113.414 132.852 110.492Z" fill="#FFC33E"/>
<path d="M14.7607 115.675C19.5388 121.926 25.3127 127.375 31.8526 131.776L33.7282 116.157L15.216 111.884L14.7607 115.675Z" fill="#FDBC98"/>
<path d="M34.4045 69.0223C28.7325 70.6893 20.5589 79.8636 16.6511 90.1239C14.3131 96.2583 12.032 105.331 10.9009 110.099C11.8541 111.626 12.8643 113.113 13.9242 114.559C19.9139 116.459 31.6871 119.726 38.9786 118.695C38.9786 118.695 43.5622 75.1354 38.9193 67.5332L34.4045 69.0223Z" fill="#FFC33E"/>
<path d="M72.432 71.3291C57.5003 71.3291 45.3525 83.4769 45.3525 98.4085C45.3525 113.34 57.5003 125.488 72.432 125.488C87.3636 125.488 99.5114 113.34 99.5114 98.4085C99.5114 83.4769 87.3636 71.3291 72.432 71.3291ZM72.432 123.608C58.5389 123.608 47.2353 112.304 47.2353 98.4109C47.2353 84.5179 58.5389 73.2142 72.432 73.2142C86.325 73.2142 97.6287 84.5179 97.6287 98.4109C97.6287 112.304 86.325 123.608 72.432 123.608Z" fill="#CE2121"/>
<path d="M72.4316 77.3047C60.7936 77.3047 51.3276 86.773 51.3276 98.4086C51.3276 110.044 60.7959 119.513 72.4316 119.513C84.0695 119.513 93.5355 110.044 93.5355 98.4086C93.5355 86.773 84.0695 77.3047 72.4316 77.3047ZM72.4316 117.632C61.8322 117.632 53.2104 109.01 53.2104 98.411C53.2104 87.8116 61.8322 79.1898 72.4316 79.1898C83.031 79.1898 91.6527 87.8116 91.6527 98.411C91.6527 109.01 83.031 117.632 72.4316 117.632Z" fill="#CE2121"/>
<path d="M72.4313 83.8154C64.3834 83.8154 57.8364 90.3624 57.8364 98.4103C57.8364 106.458 64.3834 113.005 72.4313 113.005C80.4793 113.005 87.0263 106.458 87.0263 98.4103C87.0263 90.3624 80.4793 83.8154 72.4313 83.8154ZM72.4313 111.12C65.422 111.12 59.7192 105.417 59.7192 98.408C59.7192 91.3986 65.422 85.6958 72.4313 85.6958C79.4407 85.6958 85.1435 91.3986 85.1435 98.408C85.1435 105.417 79.4407 111.12 72.4313 111.12Z" fill="#CE2121"/>
</g>
<defs>
<clipPath id="clip0">
<rect width="144" height="144" fill="white"/>
</clipPath>
</defs>
</svg>
