<svg width="159" height="144" viewBox="0 0 159 144" fill="none" xmlns="http://www.w3.org/2000/svg">
<g clip-path="url(#clip0)">
<path d="M86.25 144C126.015 144 158.25 111.765 158.25 72C158.25 32.2355 126.015 0 86.25 0C46.4855 0 14.25 32.2355 14.25 72C14.25 111.765 46.4855 144 86.25 144Z" fill="#C5E8EF"/>
<path d="M128.65 35.7398C119.85 45.3498 113.1 56.8098 108.79 69.0998C106.03 76.9798 102.37 96.6998 90.91 94.3698C83.74 92.9098 77.76 86.6698 73.3 81.2998C69.9 77.1998 66.05 73.4398 63.1 68.9798C61.3 66.2598 59.5 63.1098 59.42 59.7598C59.4 59.0298 60.75 52.1998 60.78 52.1998C58.41 52.4998 56.23 52.2398 53.82 53.0198C47.01 55.2198 40.21 56.1298 33.23 57.3598C31.92 57.5898 30.54 57.8998 29.58 58.8198C29.36 59.0298 29.15 59.2998 29.14 59.6098C29.12 59.9298 29.3 60.2098 29.47 60.4798C32.43 65.0598 34.56 69.8898 37.5 74.4798C41.01 79.9698 43.91 85.8098 46.85 91.6098C53.92 105.55 64.86 117.41 76.48 127.34C90.1 138.97 105.68 128.01 114.99 116.71C124.98 104.58 132.44 90.6098 140.17 77.0098C145.72 67.2398 149.37 58.5398 154.36 48.7598C151.25 39.6498 146.37 31.3698 140.13 24.3198C135.78 27.2598 132.09 31.9798 128.65 35.7398Z" fill="#FCC6A7"/>
<path d="M70.2899 29.1602C70.2 25.2902 68.4299 22.0002 63.7999 24.9002C58.7999 28.0402 58.1299 36.1102 57.0399 41.2502C56.0599 41.0202 55.0399 40.7102 54.0999 40.3402C53.2799 40.0202 53.0899 28.4902 53.0399 27.1702C52.8799 23.1702 53.3099 18.9202 52.5899 14.9702C52.0299 11.8702 50.8299 4.12022 47.4599 2.53022C39.9099 -1.02978 41.3099 14.3902 41.6799 17.9202C42.1199 22.2202 43.7399 27.1502 42.9299 31.4702C42.5699 31.7402 41.4599 32.2102 40.9699 32.3702C37.6899 25.1702 34.4599 17.9702 31.2299 10.6702C29.7299 7.29022 24.3599 -2.38978 20.5199 4.29022C17.6999 9.20022 22.4099 16.0602 24.4499 20.3802C26.8699 25.5102 32.3699 31.5602 32.6999 37.3602C32.0299 38.0002 31.9399 38.4002 30.9199 39.1802C30.8499 39.2302 23.9399 32.2402 23.3399 31.4802C20.8599 28.3002 18.5599 25.0402 15.5099 22.3702C10.6699 18.1402 2.08994 17.5102 6.41994 26.2202C8.60994 30.6302 12.3899 33.7502 15.5699 37.3602C18.3899 40.5702 21.0599 43.9902 24.8899 46.1202C23.1499 48.1902 23.6799 49.1702 21.7399 48.3002C20.9399 47.9402 19.7299 47.1402 18.9699 46.7102C16.5299 45.3302 14.0599 43.9702 11.4899 42.8202C9.03994 41.7202 1.22994 37.9802 0.119944 42.6402C-1.48006 49.3402 15.5399 56.0502 19.4199 58.1702C24.2899 60.8302 28.0299 64.3002 33.9699 63.9602C37.5099 63.7602 40.9199 62.5902 44.2799 61.4402C49.3099 59.7102 54.8799 57.7302 59.0599 54.3602C61.1899 52.6402 60.9299 52.5802 62.0999 50.1202C64.7699 44.5302 68.4099 39.0502 69.8899 32.9502C70.1699 31.7502 70.3199 30.4202 70.2899 29.1602Z" fill="#FCC6A7"/>
<path opacity="0.44" d="M62.0299 28.7399C62.3099 27.6199 62.7599 25.4099 63.9599 24.9399C64.6099 24.6799 65.6399 24.8599 66.3199 24.9199C67.2799 25.0099 68.6199 25.2799 69.3299 25.9899C70.3499 27.0099 69.9499 28.6499 69.6899 29.8599C69.4199 31.1599 68.8299 32.9199 67.2699 33.3299C66.3299 33.5699 63.8699 32.9599 62.9899 32.4699C61.7099 31.7799 61.7399 29.8999 62.0299 28.7399Z" fill="#F58D87"/>
<path opacity="0.44" d="M42.2501 8.97979C42.1301 7.82979 41.7901 5.59979 42.7501 4.73979C43.2801 4.27979 44.3001 4.0798 44.9601 3.9098C45.9001 3.6698 47.2401 3.4498 48.1601 3.8798C49.4701 4.4898 49.6501 6.1598 49.8301 7.3898C50.0201 8.69979 50.0801 10.5598 48.7501 11.4798C47.9501 12.0298 45.4301 12.2998 44.4401 12.1498C42.9901 11.9398 42.3701 10.1598 42.2501 8.97979Z" fill="#F58D87"/>
<path opacity="0.44" d="M20.81 10.1099C20.37 9.03995 19.4 6.99995 20.08 5.89995C20.45 5.29995 21.38 4.81995 21.96 4.46995C22.79 3.96995 24.01 3.37995 25.01 3.51995C26.44 3.72995 27.09 5.27995 27.62 6.40995C28.18 7.60995 28.77 9.36995 27.76 10.6399C27.15 11.3999 24.82 12.3799 23.82 12.5199C22.38 12.7299 21.27 11.2099 20.81 10.1099Z" fill="#F58D87"/>
<path opacity="0.44" d="M8.52993 27.7099C6.57993 25.7799 5.62993 24.5199 7.41993 22.0699C8.50993 20.5799 9.97993 19.8499 11.7799 20.6499C13.4799 21.3999 15.7299 23.4699 15.1399 25.5399C14.8699 26.4799 13.0899 28.2699 12.2299 28.7899C10.9799 29.5299 9.37993 28.5499 8.52993 27.7099Z" fill="#F58D87"/>
<path opacity="0.44" d="M3.99992 48.04C3.11992 47.58 1.34992 46.75 1.19992 45.65C1.11992 45.05 1.46992 44.22 1.65992 43.67C1.92992 42.88 2.41992 41.81 3.16992 41.36C4.23992 40.71 5.51992 41.38 6.48992 41.85C7.51992 42.34 8.87992 43.19 8.89992 44.59C8.90992 45.43 7.89992 47.36 7.30992 48.01C6.47992 48.93 4.90992 48.52 3.99992 48.04Z" fill="#F58D87"/>
<path d="M67.6001 90.2801C66.1801 85.7501 65.0301 81.0502 63.6801 76.5702C62.8601 73.8302 60.7101 71.9502 58.1701 70.7502C53.5901 68.5802 45.5301 68.5202 45.6901 75.4002C45.8501 82.1202 55.2901 84.5102 55.0401 91.8202C54.9601 94.2201 53.2101 99.3802 56.0001 101.15C58.5001 102.74 60.4501 100.04 63.1801 103.36C65.6401 106.35 66.5301 110.38 71.3501 110.21C73.9201 110.12 77.0201 108.22 76.8801 105.24C76.6301 100.26 69.0701 94.9601 67.6001 90.2801Z" fill="#E9A0A0"/>
<path d="M66.0101 90.2502C64.9201 86.7902 64.0501 83.2002 63.0201 79.7802C62.3901 77.6902 60.7501 76.2502 58.8101 75.3302C55.3101 73.6702 49.1501 73.6302 49.2801 78.8802C49.4001 84.0102 56.6101 85.8302 56.4201 91.4202C56.3601 93.2502 55.0201 97.1902 57.1501 98.5502C59.0601 99.7702 60.5501 97.7002 62.6401 100.24C64.5201 102.52 65.2001 105.6 68.8801 105.47C70.8401 105.4 73.2101 103.95 73.1001 101.67C72.9101 97.8702 67.1301 93.8302 66.0101 90.2502Z" fill="#F58D87"/>
<path d="M61.1199 80.3298C59.8199 78.0998 53.1099 74.8398 52.6899 78.9598C52.2999 82.7598 58.1099 85.2798 59.1399 88.5598C59.9099 90.9998 55.4699 97.3398 60.5899 97.2698C61.2799 97.2598 61.6999 96.7498 62.4799 96.8898C63.4999 97.0698 64.5399 98.4798 65.0499 99.2998C65.8199 100.55 66.6099 103.33 68.5599 101.54C71.1799 99.1498 63.4299 91.2498 62.2799 88.9798C60.7399 85.9398 62.4999 81.5998 60.0699 79.1398L61.1199 80.3298Z" fill="#764941"/>
<path d="M59.27 120.38C58.99 121.01 58.73 121.59 58.59 122.03C57.81 124.51 56.74 126.89 55.87 129.33C54.59 132.91 52.5 136.79 55.09 140.37C59.85 146.94 65.95 141.33 66.48 135.27C67.1 128.33 61.81 122.78 60.49 116.17C60.69 117.19 59.91 118.93 59.27 120.38Z" fill="#E04B4B"/>
</g>
<defs>
<clipPath id="clip0">
<rect width="158.25" height="144" fill="white"/>
</clipPath>
</defs>
</svg>
