<svg width="168" height="160" viewBox="0 0 168 160" fill="none" xmlns="http://www.w3.org/2000/svg">
<g clip-path="url(#clip0)">
<path d="M72 160C111.765 160 144 127.765 144 88C144 48.2355 111.765 16 72 16C32.2355 16 0 48.2355 0 88C0 127.765 32.2355 160 72 160Z" fill="#C5E8EF"/>
<path d="M167.03 96.1198C167.68 97.4998 168.36 99.0898 167.78 100.5C167.37 101.51 166.4 102.17 165.48 102.75C163.74 103.82 161.95 104.8 160.11 105.69C155.69 107.8 150.99 109.35 146.18 110.26C138.37 97.4498 133.67 83.0998 127.1 69.6798C126.62 68.6898 126.18 67.6098 125.59 66.6798C125.14 65.9698 124.22 65.3598 124.81 64.4198C125.72 62.9598 129.08 62.3698 130.64 61.8398C136.95 59.6898 143.15 57.4598 149.48 55.3298C150.45 54.9998 151.64 54.7098 152.41 55.3798C152.76 55.6798 152.94 56.1198 153.08 56.5498C154.41 60.8898 156.28 65.0798 157.62 69.4398C158.11 71.0198 158.59 72.5898 159.08 74.1698C159.36 75.0798 159.64 75.9898 159.92 76.8898C161.92 83.3598 163.96 90.0298 167.03 96.1198Z" fill="#A1D7E8"/>
<path opacity="0.55" d="M144.35 70.08C145.58 69.32 147.23 68.79 148.43 69.6C148.96 69.95 149.31 70.51 149.76 70.95C151.15 72.31 153.59 72.42 155.1 71.19C155.44 73.18 156.13 75.12 156.81 77.02C158.64 82.16 160.45 87.24 162.61 92.26C163.14 93.5 163.66 94.68 164.33 95.83C164.91 96.82 165.59 98.14 165.15 99.31C164.88 100.02 164.31 100.58 163.7 101.04C162.95 101.59 162.12 102.02 161.28 102.43C157.61 104.22 153.79 105.73 149.89 106.94C149.23 107.14 148.53 107.34 147.87 107.17C146.76 106.89 145.93 104.64 145.52 103.67C142.36 96.25 139.21 88.82 136.05 81.4C134.36 77.43 132.14 73.74 130.3 69.88C130.93 69.78 131.49 69.36 132.13 69.3C132.79 69.23 133.43 69.57 133.97 69.96C135.42 71.03 137.21 71.79 139.05 71.97C141.25 72.17 142.53 71.2 144.35 70.08Z" fill="#3D76BC"/>
<path d="M22.31 57.85C16.32 59.91 20.14 64.03 22.66 67.84C25.17 71.63 27.87 75.12 30.56 78.76C32.4 81.26 37.67 86.77 39.8 80.64C40.83 77.68 35.17 72.24 33.34 70C31.46 67.69 29.78 65.13 28.1 62.59C27.31 61.4 26.55 59.68 25.52 58.69C24.06 57.32 23.89 57.31 22.31 57.85Z" fill="#FCC6A7"/>
<path d="M91.21 26.1901C96.66 22.9701 97.32 28.5401 98.59 32.9301C99.85 37.3001 100.75 41.6101 101.79 46.0201C102.5 49.0501 103.28 56.6301 97.23 54.2701C94.31 53.1301 93.83 45.3001 93.31 42.4601C92.77 39.5301 91.91 36.5901 91.07 33.6701C90.67 32.2901 89.86 30.6101 89.78 29.1801C89.67 27.1901 89.77 27.0401 91.21 26.1901Z" fill="#FCC6A7"/>
<path d="M63.76 86.8301H57.54V95.2901H63.76V86.8301Z" fill="#F6D2BC"/>
<path d="M81.3198 82.7286C98.218 71.5361 102.062 47.5847 89.9059 29.2315C77.7498 10.8784 54.1966 5.07354 37.2985 16.266C20.4003 27.4585 16.5562 51.4099 28.7124 69.763C40.8685 88.1161 64.4217 93.921 81.3198 82.7286Z" fill="#FCC6A7"/>
<path d="M69.8001 1.25022C66.8501 1.94022 63.8901 4.37022 61.0601 5.62022C52.2401 9.53022 42.8501 11.9702 33.7901 15.3202C31.4401 16.1902 26.9201 16.9802 26.7701 19.9602C26.6701 21.8502 26.9101 23.0402 24.5901 23.3902C22.9901 23.6302 21.1201 23.0902 19.6301 23.7302C19.5101 26.2302 21.6701 27.5902 18.0401 27.9102C15.5301 28.1302 13.1901 29.5902 11.6501 31.0302C11.5601 31.1202 14.0801 36.6802 14.4901 37.7302C15.6001 40.5902 16.4001 43.6502 17.1101 46.6202C18.3901 51.9202 21.6101 55.0802 25.4101 58.8902C27.6701 61.1602 30.8001 63.0302 32.8501 65.5802C32.4301 62.7102 30.7201 59.9302 29.7701 57.2202C28.8201 54.4902 28.2401 51.6002 28.4801 48.6402C28.7801 44.9502 33.5301 42.8502 36.4701 41.3102C41.8101 38.5102 47.3101 36.0102 52.6401 33.2202C57.6501 30.5902 62.7801 28.2902 67.9201 26.0102C70.7901 24.7302 73.5501 23.3802 76.6501 23.0802C77.4201 22.3602 83.0601 28.4802 84.0101 29.4702C86.2201 31.7902 88.3701 35.6202 91.3101 37.0502C91.3601 31.5902 88.1701 25.5302 85.7301 20.6302C83.8101 16.7802 81.5401 13.2702 79.9601 9.21022C78.9301 6.57022 78.4201 3.11022 76.1401 1.30022C75.2101 0.560221 73.9401 -0.0297788 72.7501 0.0102212C71.4101 0.0502212 71.0801 0.950221 69.8001 1.25022Z" fill="#873E3A"/>
<path d="M135.93 91.0099C140.11 94.7899 143.52 91.7399 146.53 88.1399C147.53 86.9499 149.46 83.8899 146.63 83.5399C144.71 83.2999 142.8 85.7299 141.79 86.8499C143.11 85.3599 145.95 82.9999 144.28 81.0599C142.25 78.6999 139.24 81.6799 138.12 83.3099C138.9 81.7999 141.95 79.6699 140.84 77.5799C139.27 74.6099 136.49 78.4799 135.35 79.7399C133.88 81.3699 131.77 83.5899 132.06 85.8899C132.39 88.4499 134.61 89.7399 135.93 91.0099Z" fill="#FCC6A7"/>
<path d="M57.63 92.8202C57.14 92.7802 56.73 92.9402 56.35 93.2302C56.06 95.6702 65.39 95.2402 63.82 92.1102C66.26 91.4302 68.78 93.3602 66.93 95.8202C65.53 97.6802 62.15 97.8002 60.05 97.8802C57.75 97.9702 54.19 98.2402 53.46 95.4502C52.82 92.9902 55.56 91.1902 57.78 91.3602C57.9 91.9202 57.84 92.4402 57.63 92.8202Z" fill="white"/>
<path opacity="0.35" d="M155.46 88.53C155.46 89.37 154.78 90.04 153.95 90.04C153.11 90.04 152.44 89.36 152.44 88.53C152.44 87.69 153.12 87.02 153.95 87.02C154.78 87.02 155.46 87.7 155.46 88.53Z" fill="white"/>
<path opacity="0.35" d="M149.65 96.3899C149.65 97.2299 148.97 97.8999 148.14 97.8999C147.3 97.8999 146.63 97.2199 146.63 96.3899C146.63 95.5499 147.31 94.8799 148.14 94.8799C148.98 94.8799 149.65 95.5499 149.65 96.3899Z" fill="white"/>
<path opacity="0.35" d="M160.81 98.0898C162.064 98.0898 163.08 97.0735 163.08 95.8198C163.08 94.5661 162.064 93.5498 160.81 93.5498C159.556 93.5498 158.54 94.5661 158.54 95.8198C158.54 97.0735 159.556 98.0898 160.81 98.0898Z" fill="white"/>
<path opacity="0.35" d="M145.61 78.3499C146.361 78.3499 146.97 77.741 146.97 76.9899C146.97 76.2388 146.361 75.6299 145.61 75.6299C144.859 75.6299 144.25 76.2388 144.25 76.9899C144.25 77.741 144.859 78.3499 145.61 78.3499Z" fill="white"/>
<path opacity="0.35" d="M156.12 80.5501C156.12 81.1801 155.61 81.6801 154.99 81.6801C154.36 81.6801 153.86 81.1701 153.86 80.5501C153.86 79.9201 154.37 79.4201 154.99 79.4201C155.61 79.4101 156.12 79.9201 156.12 80.5501Z" fill="white"/>
<path opacity="0.35" d="M137.89 76.9899C138.393 76.9899 138.8 76.5825 138.8 76.0799C138.8 75.5773 138.393 75.1699 137.89 75.1699C137.387 75.1699 136.98 75.5773 136.98 76.0799C136.98 76.5825 137.387 76.9899 137.89 76.9899Z" fill="white"/>
<path d="M133.05 108.43C135.18 102.76 138.21 96.2502 134.23 90.6002C133.8 89.9902 133.26 89.4202 132.56 89.1802C130.67 88.5502 129.01 90.5302 128 92.2502C124.71 97.8302 122.61 104.62 118.91 109.77C117.22 112.12 115.33 114.62 112.55 115.44C109.56 116.32 106.39 114.99 103.71 113.4C99.85 111.12 96.34 108.23 93.36 104.87C88.77 99.7102 84.22 97.6902 77.22 97.4902C72.13 97.3502 67.28 97.9202 62.28 98.2502C57.98 98.5402 53.69 97.0302 49.51 98.7902C44.76 100.79 40.06 104.58 36.06 107.74C28.86 113.43 19.05 120.15 14.37 128.04C14.04 128.6 13.7 129.16 13.36 129.72C15.79 133.12 18.49 136.31 21.46 139.24C24.91 133.88 28.57 128.83 34.14 125.94C34.74 125.63 35.38 125.34 36.06 125.38C39.1 125.54 39.6 135.96 39.83 137.88C40.46 143.15 40.5 147.65 39.98 152.46C49.62 157.29 60.49 160 72 160C76.7 160 81.28 159.54 85.73 158.68C88.2 152.37 87.37 143.69 86.73 138.03C86.1 132.4 83.75 126.79 84.15 121.05C84.58 114.83 88.22 115.73 91.8 118.16C94.21 119.79 96.6 122.11 97.98 123.41C99.31 124.66 100.66 125.93 102.29 126.76C105.08 128.18 108.36 128.17 111.5 128.12C121.76 127.96 129.7 117.35 133.05 108.43Z" fill="#484A7F"/>
</g>
<defs>
<clipPath id="clip0">
<rect width="168" height="160" fill="white"/>
</clipPath>
</defs>
</svg>
