<svg width="144" height="153" viewBox="0 0 144 153" fill="none" xmlns="http://www.w3.org/2000/svg">
<g clip-path="url(#clip0)">
<path d="M72 144C111.765 144 144 111.765 144 72C144 32.2355 111.765 0 72 0C32.2355 0 0 32.2355 0 72C0 111.765 32.2355 144 72 144Z" fill="#C5E8EF"/>
<path d="M21.79 56.11C21.79 56.11 65.26 22.02 119.33 54.96L109.57 78.06C67.14 59.53 33.03 78.6 33.03 78.6L21.79 56.11Z" fill="white"/>
<path d="M66.5099 46.8202C66.5099 46.1302 65.4299 46.1302 65.4399 46.8202C65.4499 49.3502 65.5699 51.8702 65.7099 54.4002C63.6299 55.0602 61.3599 54.6502 60.6299 52.4202C60.0999 50.8302 60.3399 49.1102 60.0599 47.4802C59.9399 46.8002 58.9099 47.0902 59.0199 47.7702C59.3399 49.6302 59.1399 51.5502 59.7299 53.3802C60.5499 55.9302 63.4299 56.1402 65.7799 55.5002C65.9799 59.0502 66.2099 62.6002 66.2599 66.1602C66.2699 66.8502 67.3399 66.8502 67.3299 66.1602C67.2399 59.7002 66.5499 53.2702 66.5099 46.8202Z" fill="black"/>
<path d="M76.22 47.08C74.36 46.26 72.34 46.94 71.03 49.09C69.66 51.33 69.43 54.17 69.49 56.74C69.59 60.62 70.93 67.33 76.21 66.55C79.92 66.01 80.32 59.54 80.4 56.84C80.49 53.84 80.08 50.62 77.94 48.33C77.39 47.76 76.81 47.35 76.22 47.08ZM77.46 64.35C76.01 66.73 73.21 65.11 72.06 63.38C70.93 61.68 70.72 59.33 70.58 57.36C70.44 55.24 70.49 52.99 71.25 50.98C72.1 48.72 74.37 46.73 76.6 48.62C78.84 50.51 79.11 53.16 79.13 55.95C79.15 58.73 78.94 61.91 77.46 64.35Z" fill="black"/>
<path d="M30.2162 50.811L29.3005 51.2129L32.5238 58.5568L33.4395 58.1549L30.2162 50.811Z" fill="black"/>
<path d="M110.091 49.9552L106.87 58.3696L107.804 58.7271L111.025 50.3127L110.091 49.9552Z" fill="black"/>
<path d="M69.0682 40.5751L68.8899 45.9419L69.8893 45.9751L70.0676 40.6083L69.0682 40.5751Z" fill="black"/>
<path d="M47.6534 43.7885L46.6934 44.0684L47.9473 48.3692L48.9073 48.0893L47.6534 43.7885Z" fill="black"/>
<path d="M92.5129 43.2879L91.0818 47.7646L92.0343 48.0691L93.4654 43.5924L92.5129 43.2879Z" fill="black"/>
<path d="M113.33 32.7702C68.5701 12.7202 31.0801 34.0802 31.0801 34.0802L29.5801 29.1602L22.8301 40.6602L35.7501 40.9902L32.6701 37.1602C32.6701 37.1602 68.6101 16.3702 113.37 36.4202L113.33 32.7702Z" fill="#E95E47"/>
<path d="M60.7799 139.91C60.6899 137.72 60.7799 135.53 60.9699 133.31C61.2499 130.06 60.8499 126.71 61.1799 123.42C61.8499 116.79 63.4099 110.72 64.0599 104.17C64.6399 98.3799 67.3599 82.2999 60.5799 79.3699C50.5799 75.0399 52.2399 94.4199 49.6199 98.0299C46.2099 95.8399 53.7999 79.8899 44.8699 82.5799C41.4799 83.5999 41.6199 87.5699 41.1299 90.5399C40.8099 92.4999 40.9599 98.0899 38.9299 98.8299C34.8499 97.9099 41.9599 83.7299 34.3799 85.9999C28.4299 87.7799 34.8899 99.4999 30.1099 100.7C26.7499 101.54 30.8399 91.5899 25.0299 92.9299C22.8999 93.4199 22.4099 95.1099 22.7699 97.0699C23.0399 98.5299 23.7999 99.8799 24.0499 101.36C24.1899 102.22 24.0199 103 23.0099 102.83C21.9299 102.65 21.1599 101.66 20.7299 100.74C20.6699 100.6 20.5999 100.47 20.4899 100.37C20.4099 100.3 20.3099 100.25 20.2099 100.21C19.4199 99.9099 18.4199 100.39 18.1499 101.19C18.0199 101.57 18.0399 101.99 18.0999 102.39C18.2499 103.47 18.7399 104.34 19.0699 105.34C19.4299 106.44 19.6799 107.6 20.0399 108.71C20.7799 110.99 21.5599 113.27 21.8199 115.67C22.2999 119.97 22.7099 124.09 23.6999 128.23C25.0799 133.97 23.2899 139.96 23.7099 145.76C23.7299 146.03 23.7599 146.31 23.9099 146.53C24.1699 146.9 24.6999 146.96 25.1499 147C30.2099 147.41 35.0199 149.3 39.9499 150.53C44.4999 151.66 49.1799 152.23 53.8699 152.46C56.4699 152.59 59.5699 152.35 60.9199 150.12C61.9099 148.47 61.5199 146.39 61.2199 144.49C60.9799 142.95 60.8399 141.43 60.7799 139.91Z" fill="#FCC6A7"/>
<g opacity="0.57">
<path opacity="0.57" d="M62.4599 84.8201C62.5899 83.6201 62.9699 81.2901 61.9599 80.3801C61.4099 79.8901 60.3399 79.6801 59.6499 79.5001C58.6699 79.2401 57.2699 79.0101 56.3099 79.4501C54.9299 80.0801 54.7299 81.8301 54.5399 83.1201C54.3299 84.4901 54.2599 86.4401 55.6499 87.4101C56.4899 88.0001 59.1199 88.2901 60.1599 88.1401C61.6599 87.9201 62.3199 86.0601 62.4599 84.8201Z" fill="white"/>
<path opacity="0.57" d="M45.6097 82.4199C43.8897 82.5199 43.7397 85.0599 43.6097 86.3299C43.5097 87.2599 43.4197 87.8299 44.3997 88.2599C44.9197 88.4899 46.2297 88.5999 46.8097 88.4399C48.2097 88.0399 47.9297 85.6099 48.0097 84.3299C48.0597 83.4799 48.1397 82.7899 47.2297 82.3999C46.4097 82.0399 46.3397 82.3699 45.6097 82.4199Z" fill="white"/>
<path opacity="0.57" d="M35.0097 85.77C33.4697 85.86 33.3397 88.12 33.2197 89.26C33.1297 90.09 33.0097 90.69 33.9297 90.98C34.5297 91.17 35.6297 91.28 36.0797 91.14C37.3197 90.75 37.0797 88.61 37.1497 87.47C37.1997 86.71 37.2697 86.1 36.4597 85.75C35.7297 85.43 35.6597 85.73 35.0097 85.77Z" fill="white"/>
<path opacity="0.57" d="M24.6099 93.1901C23.4299 93.5801 23.7999 95.3701 23.9499 96.2801C24.0599 96.9501 24.0899 97.4401 24.8599 97.4701C25.3699 97.5001 26.2499 97.3501 26.5699 97.1401C27.4599 96.5701 26.8199 94.9601 26.6399 94.0601C26.5199 93.4601 26.4499 92.9601 25.7399 92.8601C25.0899 92.7801 25.0999 93.0301 24.6099 93.1901Z" fill="white"/>
<path opacity="0.57" d="M18.6398 101.57C18.6398 102.34 18.4598 103.39 19.4398 103.6C20.2198 103.77 20.6698 103.06 20.7198 102.35C20.8498 100.42 18.3198 100.36 18.6398 102.47V101.57Z" fill="white"/>
</g>
<path d="M77.0099 140.01C77.4198 134.29 77.7998 128.5 77.2398 122.85C76.5698 116.22 75.0098 110.15 74.3598 103.6C73.7798 97.81 71.0598 81.73 77.8398 78.8C87.8398 74.47 86.1799 93.85 88.7999 97.46C92.2099 95.27 84.6199 79.32 93.5499 82.01C96.9398 83.03 96.7998 87 97.2898 89.97C97.6098 91.93 97.4598 97.52 99.4898 98.26C103.57 97.34 96.4598 83.16 104.04 85.43C109.99 87.21 103.53 98.93 108.31 100.13C111.67 100.97 107.58 91.02 113.39 92.36C115.91 92.94 116.01 95.12 115.48 97.25C115.2 98.37 114.8 99.46 114.51 100.58C114.14 101.99 114.21 104.41 116.22 102.67C117.11 101.9 117.08 100.73 118.11 100.03C118.79 99.57 119.55 99.64 119.93 100.44C120.4 101.44 119.79 102.66 119.6 103.65C118.88 107.51 117.04 111.04 116.59 115.09C116.11 119.39 115.7 123.51 114.71 127.65C113.92 130.94 113.96 134.41 113.98 137.76C114 139.84 114.12 141.79 114.79 143.78C115 144.4 116.59 148.63 117.36 148.54C104.88 150.03 92.2398 150.13 79.7398 148.82C78.6098 148.7 77.2998 148.45 76.8098 147.43C76.5698 146.92 76.5898 146.34 76.6298 145.77C76.7298 143.87 76.8698 141.94 77.0099 140.01Z" fill="#FCC6A7"/>
<g opacity="0.57">
<path opacity="0.57" d="M75.96 84.2502C75.83 83.0502 75.45 80.7202 76.46 79.8102C77.01 79.3202 78.08 79.1102 78.77 78.9302C79.75 78.6702 81.15 78.4402 82.11 78.8802C83.49 79.5102 83.69 81.2603 83.88 82.5503C84.09 83.9203 84.16 85.8702 82.77 86.8402C81.93 87.4302 79.3 87.7202 78.26 87.5702C76.76 87.3502 76.1 85.4902 75.96 84.2502Z" fill="white"/>
<path opacity="0.57" d="M92.8 81.8502C94.52 81.9502 94.67 84.4902 94.8 85.7602C94.9 86.6902 94.99 87.2603 94.01 87.6902C93.49 87.9202 92.18 88.0303 91.6 87.8703C90.2 87.4703 90.48 85.0402 90.4 83.7602C90.35 82.9102 90.27 82.2202 91.18 81.8302C92 81.4702 92.08 81.8102 92.8 81.8502Z" fill="white"/>
<path opacity="0.57" d="M103.4 85.2001C104.94 85.2901 105.07 87.5502 105.19 88.6902C105.28 89.5202 105.4 90.1202 104.48 90.4102C103.88 90.6002 102.78 90.7102 102.33 90.5702C101.09 90.1802 101.33 88.0402 101.26 86.9002C101.21 86.1402 101.14 85.5302 101.95 85.1802C102.69 84.8602 102.76 85.1601 103.4 85.2001Z" fill="white"/>
<path opacity="0.57" d="M113.81 92.6203C114.99 93.0103 114.62 94.8003 114.47 95.7103C114.36 96.3803 114.33 96.8703 113.56 96.9003C113.05 96.9303 112.17 96.7803 111.85 96.5703C110.96 96.0003 111.6 94.3903 111.78 93.4903C111.9 92.8903 111.97 92.3903 112.68 92.2903C113.32 92.2103 113.31 92.4603 113.81 92.6203Z" fill="white"/>
<path opacity="0.57" d="M119.77 101C119.77 101.77 119.95 102.82 118.97 103.03C118.19 103.2 117.74 102.49 117.69 101.78C117.56 99.8503 120.09 99.7903 119.77 101.9V101Z" fill="white"/>
</g>
</g>
<defs>
<clipPath id="clip0">
<rect width="144" height="152.48" fill="white"/>
</clipPath>
</defs>
</svg>
