<svg width="144" height="162" viewBox="0 0 144 162" fill="none" xmlns="http://www.w3.org/2000/svg">
<g clip-path="url(#clip0)">
<path d="M72 161.14C111.765 161.14 144 128.905 144 89.1401C144 49.3756 111.765 17.1401 72 17.1401C32.2355 17.1401 0 49.3756 0 89.1401C0 128.905 32.2355 161.14 72 161.14Z" fill="#C5E8EF"/>
<path d="M70.3099 74.2198C70.3199 72.4898 70.1799 70.7598 69.8799 68.9498C68.9799 63.6698 65.1299 59.0298 60.5499 56.4198C56.0799 53.8798 49.7499 51.3898 44.5699 51.4498C34.9399 51.5698 25.4999 56.3398 21.0099 65.0498C19.5199 67.9398 19.7199 70.9698 19.7199 74.3298C19.7199 80.7598 22.6099 86.8298 23.3199 93.2298C23.9399 98.7998 31.0399 97.4998 35.4199 97.4998C42.3599 97.4998 49.2899 97.4998 56.2299 97.4998C59.7999 97.4998 64.4399 98.1898 65.8599 94.5898C66.4999 92.9798 66.2499 91.0998 66.5199 89.3998C67.0799 85.9298 69.3699 83.0598 69.8899 79.4898C70.1499 77.6898 70.2999 75.9598 70.3099 74.2198Z" fill="#F58D87"/>
<path d="M23.37 18.2101C19.97 17.3301 20.48 20.4001 20.47 22.9401C20.47 25.4601 20.65 27.9001 20.78 30.4101C20.86 32.1301 21.62 36.2901 24.48 34.1101C25.86 33.0501 24.91 28.8001 24.75 27.2101C24.59 25.5701 24.59 23.8701 24.59 22.1801C24.59 21.3801 24.77 20.3601 24.59 19.5901C24.34 18.5101 24.26 18.4501 23.37 18.2101Z" fill="#F6D2BC"/>
<path d="M63.1599 17.15C66.5599 16.27 66.0499 19.34 66.0599 21.88C66.0599 24.4 65.8799 26.84 65.7499 29.35C65.6699 31.07 64.9099 35.23 62.0499 33.05C60.6699 31.99 61.6199 27.74 61.7799 26.15C61.9399 24.51 61.9399 22.81 61.9399 21.12C61.9399 20.32 61.7599 19.3 61.9399 18.53C62.1899 17.44 62.2599 17.38 63.1599 17.15Z" fill="#F6D2BC"/>
<path d="M45.4799 46.4302H41.6699V51.6202H45.4799V46.4302Z" fill="#F6D2BC"/>
<path d="M43.0399 47.8001C54.2845 47.8001 63.3999 37.9011 63.3999 25.6901C63.3999 13.4791 54.2845 3.58008 43.0399 3.58008C31.7954 3.58008 22.6799 13.4791 22.6799 25.6901C22.6799 37.9011 31.7954 47.8001 43.0399 47.8001Z" fill="#F6D2BC"/>
<path d="M23.97 18.7702C23.1 13.8202 23.33 8.50019 25.76 4.49019C28.67 -0.309809 36.32 0.390191 41.21 0.220192C44.06 0.120192 47.01 -0.109809 49.9 0.0701915C51.26 0.160192 52.22 1.17019 53.4 1.30019C54.43 1.42019 56.47 -0.569809 56.79 1.27019C57.63 1.34019 58.11 0.680192 58.9 0.680192C59.75 0.680192 60.05 1.30019 60.76 1.56019C62.48 2.18019 62.94 0.890191 64.54 0.530191C64.31 0.580191 64.18 9.01019 64.15 9.84019C64.03 12.8602 63.72 15.5402 63.11 18.5002C62.76 20.2102 62.67 22.9002 62.06 24.2102C60.97 19.8602 61.42 15.0202 58.23 11.6102C56.39 9.65019 51.3 8.63019 48.75 8.51019C42.9 8.25019 40.18 8.16019 34.67 9.70019C29.33 11.1902 26.89 15.6802 26.38 20.9102C26.25 22.2102 26.04 24.4302 26.01 25.8102C25.14 23.7102 24.42 21.2902 23.97 18.7702Z" fill="#873E3A"/>
<path d="M35.5401 152.55L44.3901 156.9L30.8601 156.82L30.8701 152.52L35.5401 152.55Z" fill="#3F4270"/>
<path d="M46.6801 152.55L37.8301 156.9L51.3601 156.82L51.3501 152.52L46.6801 152.55Z" fill="#484A7F"/>
<path d="M63.7099 108.96C64.1499 107.9 64.5499 106.81 64.8899 105.69C65.4299 103.91 65.6199 102.15 65.7899 100.29C65.9699 98.3002 66.1599 95.6402 65.8999 93.6802C57.0899 93.8602 48.2499 93.6902 39.4399 93.6902C33.9799 93.6902 28.4599 93.8502 23.0099 93.6802C21.9999 96.6702 22.8199 100.03 23.2699 103.14C23.7699 106.51 24.8899 110.24 26.4199 113.27C27.6099 115.63 29.6599 117.8 31.2199 119.93C32.7099 121.97 34.2099 124.01 35.6999 126.05C35.9299 126.36 37.8099 128.4 37.6999 128.78L30.8599 152.51L34.9999 152.63L42.4199 128.78C42.5899 128.21 40.2099 125.31 39.8399 124.73C38.9999 123.41 37.9799 122.1 37.2799 120.71C36.2099 118.56 34.8999 116.19 34.5399 113.78C33.6899 107.99 39.8499 106.88 44.1399 106.88C48.7299 106.88 56.3599 110.54 53.9299 116.33C52.7899 119.04 50.0399 121.68 48.2599 124.01C46.9899 125.67 45.7099 127.34 44.4399 129L47.4799 152.96L51.1899 152.51L49.0499 129.9C54.4399 123.16 60.3999 116.88 63.7099 108.96Z" fill="#A276A3"/>
<path d="M36.53 94.57C35.32 93.81 33.64 92.7 32.26 93.26C31.74 93.47 31.3501 93.81 31.0301 94.21C18.7301 87.98 22.82 64.71 22.82 64.71L20.0101 69.96C18.8301 89.06 25.77 95.31 29.46 97.16C28.09 100.4 30.3601 102.2 32.9001 103.66C33.7801 104.16 35.94 105.02 35.76 103.01C35.69 102.18 35.0101 101.52 34.3101 101C35.2701 101.57 36.3201 101.97 36.9701 100.99C38.1401 99.21 35.88 97.59 34.71 97.07C35.75 97.37 37.5 99.15 38.64 98.05C40.26 96.48 37.47 95.16 36.53 94.57Z" fill="#F6D2BC"/>
<path d="M54.2801 93.6701C55.4901 92.9101 57.1701 91.8001 58.5501 92.3601C59.0701 92.5701 59.4601 92.9101 59.7801 93.3101C72.0801 87.0801 67.9901 63.8101 67.9901 63.8101L70.8001 69.0601C71.9801 88.1601 65.0401 94.4101 61.3501 96.2601C62.7201 99.5001 60.4501 101.3 57.9101 102.76C57.0301 103.26 54.8701 104.12 55.0501 102.1C55.1201 101.27 55.8001 100.61 56.5001 100.09C55.5401 100.66 54.4901 101.06 53.8401 100.08C52.6701 98.3001 54.9301 96.6801 56.1001 96.1601C55.0601 96.4601 53.3101 98.2401 52.1701 97.1401C50.5601 95.5801 53.3401 94.2601 54.2801 93.6701Z" fill="#F6D2BC"/>
<path d="M23.1601 61.6001C23.1601 61.6001 18.0601 64.3001 17.3101 75.2501L26.1601 72.7001C26.1601 72.6901 21.3601 66.2401 23.1601 61.6001Z" fill="#893B66"/>
<path d="M65.3101 60.4702C65.3101 60.4702 70.4101 63.1702 71.1601 74.1202L62.3101 71.5702C62.3101 71.5702 67.1101 65.1202 65.3101 60.4702Z" fill="#893B66"/>
<path d="M41.6701 51.6099C41.6701 51.6099 36.5901 52.2199 34.8601 53.1899L39.6601 56.7099L43.2601 51.6899L41.6701 51.6099Z" fill="#893B66"/>
<path d="M45.1 51.5098C45.1 51.5098 50.39 51.8098 52.11 52.7798L46.86 56.7198L43.26 51.6998L45.1 51.5098Z" fill="#893B66"/>
<path d="M44.91 60.9999C44.91 61.7499 44.31 62.3499 43.56 62.3499C42.81 62.3499 42.21 61.7499 42.21 60.9999C42.21 60.2499 42.81 59.6499 43.56 59.6499C44.3 59.6499 44.91 60.2499 44.91 60.9999Z" fill="white"/>
<path d="M45.1299 69.0902C45.1299 69.8402 44.5299 70.4402 43.7799 70.4402C43.0299 70.4402 42.4299 69.8402 42.4299 69.0902C42.4299 68.3402 43.0299 67.7402 43.7799 67.7402C44.5299 67.7402 45.1299 68.3502 45.1299 69.0902Z" fill="white"/>
<path d="M97.24 92.2397H83.97V99.1997H97.24V92.2397Z" fill="#D3D3CB"/>
<path d="M131.72 116.92C130.92 117.72 131.02 118.83 130.98 120.17C130.89 122.92 131.51 126.45 128.96 128.4C126.79 130.06 122.51 129.65 120.09 128.88C116.8 129.21 118.24 136.66 121.14 137.29C124.71 138.07 129.97 137.38 133.23 136.29C140.57 133.83 139.83 122.41 139.5 115.78C139.52 116.14 132.91 116.17 132.5 116.37C132.17 116.54 131.92 116.72 131.72 116.92Z" fill="#D3D3CB"/>
<path d="M66.5001 121.79C65.7201 129.15 71.3301 139.19 78.3101 142.22C82.1601 143.89 87.2601 143.97 91.4601 144.18C93.0401 144.26 96.0401 144.2 97.2301 145.23C99.8301 147.5 97.1401 148.45 94.8801 148.59C90.6601 148.84 83.6801 147.51 80.1601 150.09C78.4701 151.33 76.4801 153.53 75.4901 155.42C74.7601 156.81 73.6001 161.95 73.6001 161.99L113.8 161.73C115 155.58 111.25 154.61 105.96 153.55C105.98 153.41 105.98 152.98 105.97 152.84C109.56 151.4 114.51 152.71 115.65 147.55C117.18 140.61 109 143.29 107.8 139.45C112.54 139.06 116.88 140.92 120.19 135.78C121.47 133.8 121.79 130.87 122.16 128.63C122.5 126.54 123.38 123.98 122.97 121.84C118.45 121.59 74.0001 121.33 66.5001 121.79Z" fill="white"/>
<path d="M95.0001 129.54C110.668 129.54 123.37 125.658 123.37 120.87C123.37 116.081 110.668 112.2 95.0001 112.2C79.3318 112.2 66.6301 116.081 66.6301 120.87C66.6301 125.658 79.3318 129.54 95.0001 129.54Z" fill="#EBECC7"/>
<path d="M118.45 119.69C118.45 122.52 108.13 124.81 95.4001 124.81C82.6701 124.81 72.3501 122.52 72.3501 119.69C72.3501 116.86 82.6701 114.57 95.4001 114.57C108.13 114.57 118.45 116.86 118.45 119.69Z" fill="#86D3E8"/>
<path d="M117.22 74.7499C117.22 74.8399 117.21 74.9299 117.21 75.0199V108.91C117.21 114.13 121.44 118.37 126.67 118.37H144V74.6699L117.22 74.7499Z" fill="white"/>
<path d="M144 65.5698H126.66C121.53 65.5698 117.36 69.6598 117.22 74.7598L144 74.6698V65.5698Z" fill="#D3D3CB"/>
<path d="M103.8 79.6396H77.79V81.0497H103.8V79.6396Z" fill="#D3D3CB"/>
<path d="M96.9101 94.3399H83.9101C82.0601 94.3399 80.5601 92.8399 80.5601 90.9899V78.7699C80.5601 76.9199 82.0601 75.4199 83.9101 75.4199H96.9101C98.7601 75.4199 100.26 76.9199 100.26 78.7699V90.9899C100.26 92.8399 98.7601 94.3399 96.9101 94.3399Z" fill="white"/>
</g>
<defs>
<clipPath id="clip0">
<rect width="144" height="161.99" fill="white"/>
</clipPath>
</defs>
</svg>
