<svg width="116" height="144" viewBox="0 0 116 144" fill="none" xmlns="http://www.w3.org/2000/svg">
<g clip-path="url(#clip0)">
<path d="M53.6137 35.3155C56.4641 32.4567 63.5282 26.0736 66.3787 23.2148C78.3257 34.9458 84.6462 51.2361 83.6795 67.9206C79.6394 67.6988 75.5992 67.477 71.559 67.2306C72.3026 54.0209 67.0727 39.579 53.6137 35.3155Z" fill="#C13542"/>
<path d="M37.1051 16.9074C36.3615 15.6505 35.8162 14.2704 35.3948 12.8903C33.6102 7.17271 35.841 2.63806 35.0478 1.50439C34.5273 0.765048 29.9666 0.27215 29.3965 1.75084C28.3059 4.65894 28.876 8.35567 27.7854 11.2884L25.6042 9.51398C23.3734 8.15851 24.8358 5.91583 25.0837 5.10254C25.7529 2.95844 23.1752 1.89871 21.8119 2.46554C20.7461 2.90915 21.0435 6.5073 19.4324 7.61632C18.6393 7.96135 16.7307 7.39452 17.0034 5.02861C17.1273 3.94424 17.276 2.49019 17.3504 1.55368C17.3999 1.03614 17.0034 0.493954 16.4581 0.395375C15.764 0.27215 14.9461 0.296795 14.5247 0.469309C12.864 1.25795 14.2769 2.21909 13.0375 5.76796C12.7153 6.65517 11.7487 7.64097 10.8564 7.96135C8.40251 8.82392 6.22131 10.4998 3.99054 12.077C2.65208 13.0382 2.18114 14.788 2.82558 16.2913C2.85037 16.3406 2.87515 16.3899 2.87515 16.4145C3.61874 18.0165 5.65122 18.5586 7.1384 17.5728C9.79054 15.8477 12.641 14.4676 15.764 14.4676C19.482 14.4676 22.9521 16.5131 25.5051 19.1748C28.0828 21.8364 29.917 25.0895 31.8256 28.2687C32.5444 29.4517 33.2384 30.5361 33.9076 31.5711C36.7085 28.9095 40.0546 26.6915 43.7974 25.0649C41.3683 22.4772 38.8897 19.9388 37.1051 16.9074Z" fill="#7AABED"/>
<g opacity="0.39">
<path opacity="0.39" d="M37.1051 16.9074C36.3615 15.6505 35.8162 14.2704 35.3948 12.8903C33.6102 7.17271 35.841 2.63806 35.0478 1.50439C34.5273 0.765048 29.9666 0.27215 29.3965 1.75084C28.3059 4.65894 28.876 8.35567 27.7854 11.2884L25.6042 9.51398C23.3734 8.15851 24.8358 5.91583 25.0837 5.10254C25.7529 2.95844 23.1752 1.89871 21.8119 2.46554C20.7461 2.90915 21.0435 6.5073 19.4324 7.61632C18.6393 7.96135 16.7307 7.39452 17.0034 5.02861C17.1273 3.94424 17.276 2.49019 17.3504 1.55368C17.3999 1.03614 17.0034 0.493954 16.4581 0.395375C15.764 0.27215 14.9461 0.296795 14.5247 0.469309C12.864 1.25795 14.2769 2.21909 13.0375 5.76796C12.7153 6.65517 11.7487 7.64097 10.8564 7.96135C8.40251 8.82392 6.22131 10.4998 3.99054 12.077C2.65208 13.0382 2.18114 14.788 2.82558 16.2913C2.85037 16.3406 2.87515 16.3899 2.87515 16.4145C3.61874 18.0165 5.65122 18.5586 7.1384 17.5728C9.79054 15.8477 12.641 14.4676 15.764 14.4676C19.482 14.4676 22.9521 16.5131 25.5051 19.1748C28.0828 21.8364 29.917 25.0895 31.8256 28.2687C32.5444 29.4517 33.2384 30.5361 33.9076 31.5711C36.7085 28.9095 40.0546 26.6915 43.7974 25.0649C41.3683 22.4772 38.8897 19.9388 37.1051 16.9074Z" fill="#7AABED"/>
</g>
<path d="M102.344 78.3951C87.3482 69.6708 69.6012 66.7874 52.573 70.3362C50.4909 70.7552 48.3593 69.6215 47.7892 67.65C47.467 66.4424 47.1448 65.2594 46.8226 64.0518C46.2773 62.0802 47.814 59.9115 50.2679 59.3939C70.0226 55.2782 89.7029 60.3551 108.02 68.7343C111.094 70.1391 107.152 81.3279 102.344 78.3951Z" fill="#FFB3B3"/>
<g opacity="0.81">
<path opacity="0.81" d="M102.343 78.3954C104.673 79.8002 106.78 77.9272 108.019 75.4627C90.1234 67.4777 70.9636 62.7952 51.7542 66.7877C50.2918 67.0834 49.1516 67.9953 48.6063 69.0797C49.5482 70.1394 51.085 70.6569 52.5969 70.3365C69.6003 66.7877 87.3473 69.6711 102.343 78.3954Z" fill="#FFB3B3"/>
</g>
<path d="M6.99081 84.7054C7.80876 88.969 5.33012 94.6373 12.766 107.699C25.3575 129.83 44.6164 147.451 65.8088 143.434C81.4241 140.477 101.997 88.7225 95.8002 84.2864C92.578 81.9698 86.9515 65.8521 70.766 64.817C64.6438 64.4227 58.9429 52.6671 52.1763 49.5372C34.7515 41.4783 2.60363 62.0568 6.99081 84.7054Z" fill="#FF675C"/>
<path d="M104.624 65.9738C88.4137 59.7387 70.4188 59.7387 54.2085 65.9738C52.2256 66.7378 49.9205 65.9492 49.053 64.0762C48.5325 62.9425 48.0368 61.8088 47.5162 60.6752C46.6487 58.8268 47.8137 56.4362 50.1684 55.5244C69.006 48.3034 89.2316 50.1764 108.689 55.5244C111.911 56.4362 109.854 68.1179 104.624 65.9738Z" fill="#FFB3B3"/>
<g opacity="0.81">
<path opacity="0.81" d="M110.176 60.1577C90.2482 54.859 69.5268 53.0599 50.2678 60.2316C49.3259 60.5766 48.5823 61.1434 48.0618 61.8335C48.4088 62.5729 48.7311 63.3368 49.0781 64.0762C49.9456 65.9492 52.2507 66.7378 54.2336 65.9739C70.4439 59.7387 88.4388 59.7387 104.649 65.9739C107.797 67.2554 109.78 63.5094 110.176 60.1577Z" fill="#FFB3B3"/>
</g>
<path opacity="0.41" d="M95.8 84.2852C93.1479 82.3875 78.1522 66.2944 67.8163 61.7598C84.1752 111.296 65.1889 128.4 40.4769 130.913C37.0812 131.258 33.7103 131.16 30.4385 130.642C40.8239 140.328 52.9693 145.848 65.8334 143.408C81.424 140.476 101.997 88.7213 95.8 84.2852Z" fill="#C13542"/>
<path d="M70.7658 64.8163C67.7915 67.9708 93.5692 91.6792 96.965 85.5426C96.9898 84.9511 97.0145 84.5322 97.0393 84.2857C97.2376 80.9833 103.533 75.4382 96.1222 60.1091C94.6846 57.1271 85.8855 48.7971 70.7658 64.8163Z" fill="#C13542"/>
<path opacity="0.54" d="M16.4345 10.9672C11.1054 10.7701 6.2969 12.9881 2.82681 16.2412C2.82681 16.2659 2.8516 16.2905 2.8516 16.3152C2.87639 16.3645 2.90117 16.4138 2.90117 16.4384C3.64476 18.0403 5.67724 18.5825 7.16442 17.5967C9.79177 15.8469 12.6422 14.4668 15.7653 14.4668C19.4832 14.4668 22.9533 16.5123 25.5063 19.174C28.0841 21.8356 29.9183 25.0888 31.8268 28.2679C32.5456 29.4509 33.2396 30.5353 33.9089 31.5704C34.3798 31.1267 34.8507 30.7078 35.3465 30.2888C35.4208 29.6973 35.6687 29.0566 35.4456 28.4897C32.2234 19.8394 26.1507 11.3369 16.4345 10.9672Z" fill="#7AABED"/>
<path d="M115.827 44.4836C115.257 41.7234 114.067 39.5054 112.01 39.8997C110.523 40.0969 108.193 41.2059 105.02 41.6248C104.178 41.7234 99.7656 42.6599 103.558 36.203C104.252 35.02 102.715 34.3546 101.476 34.256C100.955 34.2067 100.658 34.1328 100.286 34.5025C99.3194 35.4143 97.857 42.1424 93.3955 42.8817C93.1724 42.9064 92.4784 42.8817 91.4374 42.8571C89.4297 42.8078 86.1083 42.7339 82.3904 43.1282C79.0938 43.4732 75.4998 44.3851 72.1536 44.9519C71.0382 45.1491 69.9476 45.2969 68.9066 45.3955C63.6271 45.8145 61.0989 44.3851 59.6117 43.4486C58.8186 42.931 57.1083 41.0334 55.1006 38.6674C51.4322 39.5054 48.3339 41.5263 46.3262 44.2125C45.0869 45.8884 44.963 48.1557 46.004 49.9795C46.2767 50.4724 46.5493 50.9652 46.822 51.4581C46.9955 51.7785 49.0527 53.7501 45.9544 57.5208C45.1117 58.5559 43.798 59.591 42.1621 60.9957C36.9074 65.5797 32.2724 67.4773 29.0006 68.266C28.4305 69.375 27.7861 70.3115 27.0673 71.1248C29.5707 71.9627 32.7433 72.5788 33.8339 72.2338C37.8245 70.9523 42.1374 70.2375 46.5989 70.2375C51.0356 70.2375 56.4886 71.1001 61.2228 72.5049C64.6433 73.5153 68.2869 71.5437 69.204 68.1181C69.5263 66.9105 69.9476 65.8015 70.7656 64.8403C75.1775 59.6402 83.9271 57.0525 92.4784 55.3027C99.1459 53.9473 105.69 53.1094 109.978 51.9757C115.034 50.6202 115.009 49.6344 115.331 49.1169C115.976 48.0079 116.199 46.3074 115.827 44.4836Z" fill="#7AABED"/>
<g opacity="0.32">
<path opacity="0.32" d="M110.126 45.5691C110.622 47.9596 112.134 49.6848 113.497 49.4137C114.885 49.1426 115.604 46.9738 115.108 44.5833C114.612 42.1927 113.547 40.2704 111.737 40.7387C110.374 41.1084 109.63 43.1785 110.126 45.5691Z" fill="#8E3557"/>
</g>
<g opacity="0.32">
<path opacity="0.32" d="M110.126 45.5684C110.523 47.4907 111.564 48.9694 112.679 49.3391C113.423 48.5012 113.745 46.85 113.373 45.0509C112.976 43.1039 112.208 41.4774 110.944 41.1816C110.126 42.0196 109.729 43.6954 110.126 45.5684Z" fill="#8E3557"/>
</g>
<path opacity="0.54" d="M50.4407 49.5368C50.4407 48.2553 50.0937 46.0126 50.8621 44.041C51.5561 42.3159 54.2083 39.3092 56.5134 40.4675C56.6373 40.5168 56.6373 40.4675 56.5878 40.3443C56.1168 39.8021 55.6211 39.2353 55.1006 38.6191C55.051 38.6684 54.9271 38.6931 54.7783 38.6931C51.2587 39.5803 48.2595 41.5519 46.3262 44.1642C45.5578 46.1112 44.963 48.1074 46.004 49.9311C46.2766 50.424 46.5493 50.9169 46.8219 51.4098C46.9954 51.7302 49.0527 53.7018 45.9544 57.4725C45.1117 58.5076 43.798 59.5426 42.1621 60.9474C41.9886 61.0953 41.8399 61.2185 41.6912 61.3664C47.0202 58.7047 50.4407 54.3919 50.4407 49.5368Z" fill="#7AABED"/>
<path d="M106.582 16.2904C103.781 12.569 100.484 10.0306 97.014 8.47797C96.3448 8.18223 96.1217 7.36895 96.4935 6.75283L98.2038 4.06654C98.3277 3.72151 98.3277 3.32719 98.1294 3.00681C97.9311 2.68643 97.5593 2.3414 96.8405 2.09495C95.7995 1.74992 95.2294 1.89779 94.9072 2.07031C94.7337 2.16888 94.6345 2.31675 94.5602 2.48927L93.1226 4.7566C92.3542 5.98884 90.9414 6.6789 89.479 6.58032H89.4542L90.52 1.3556C90.52 0.985931 90.3713 0.616258 90.0739 0.394454C89.7764 0.17265 89.3055 -0.0245091 88.5371 0.000135739C87.4465 0.0494255 86.9508 0.394454 86.7277 0.665547C86.6038 0.813417 86.5542 0.985931 86.5542 1.18309L86.0337 3.7708C85.7115 5.39736 84.4474 6.70354 82.8115 7.04857C75.0038 8.65049 68.4106 13.8752 66.7499 20.0118C66.5268 20.3814 66.3286 20.7758 66.1055 21.1701C65.7089 21.9094 64.9157 22.353 64.073 22.2545C62.7593 22.1066 61.7927 20.9729 61.8422 19.6667C62.0157 13.8752 63.8004 12.0761 64.7174 8.62584C65.2132 6.77748 63.4286 5.84097 61.9662 5.39736C60.8508 5.05233 59.6362 5.56988 59.0909 6.60496C58.6448 7.46753 58.3474 8.42868 58.0499 9.34054C53.4149 24.1521 45.6072 24.2507 43.7978 25.0393C40.055 26.6659 36.7089 28.8839 33.908 31.5456C28.4798 36.721 25.1585 43.5969 25.1585 51.1382C25.1585 52.0501 24.3157 64.6683 24.4149 65.5555C25.2576 73.6144 49.2508 61.563 48.2098 52.8634C47.9619 50.7686 43.5003 42.8822 55.1003 38.6433C56.2901 38.1997 57.6286 38.1997 58.9918 38.1997C64.6679 38.1997 69.6251 40.9353 72.1533 44.9524C75.4747 44.3856 79.0935 43.4737 82.3901 43.1287C83.9764 42.9562 85.4884 42.8822 86.8516 42.8329C88.091 41.6007 89.0824 40.3438 89.8756 39.2348C87.8183 35.2423 84.7448 31.7427 80.9525 28.9332C78.8209 27.3806 77.3585 26.4934 76.3422 25.9265C77.1602 20.0118 82.638 15.4278 89.2311 15.4278C93.8414 15.4278 97.8815 17.6459 100.211 20.9976C101.129 22.3284 102.963 22.6734 104.276 21.7123C104.946 21.2194 105.59 20.7018 106.185 20.1843C107.3 19.1738 107.474 17.4734 106.582 16.2904Z" fill="#FFB3B3"/>
<g opacity="0.28">
<path opacity="0.28" d="M73.6162 44.6818C75.847 44.2628 78.1521 43.7453 80.3581 43.4002C76.2436 36.3764 69.5265 31.8664 61.9667 31.7925C31.0829 31.546 33.0658 62.1796 29.0752 68.1684C29.3974 68.1437 29.7445 68.0944 30.0915 68.0205C31.8265 67.5769 33.4128 67.0593 34.8752 66.5171C40.5265 64.0773 46.6239 59.4441 47.9624 55.1066C48.1607 54.4165 48.2351 53.7757 48.2351 53.2089C48.2351 53.0857 48.2351 52.9871 48.2103 52.8639C47.9624 50.7691 43.5009 42.8827 55.1009 38.6438C56.2906 38.2002 57.6291 38.2002 58.9923 38.2002C64.6684 38.2002 69.6257 40.9357 72.1539 44.9529C72.5504 44.8789 72.947 44.805 73.3436 44.7311C73.4427 44.7064 73.5171 44.7064 73.6162 44.6818Z" fill="#FF675C"/>
</g>
<g opacity="0.12">
<path opacity="0.12" d="M60.6026 23.2889C61.7924 23.0917 64.1223 22.2292 63.0812 21.8595C62.3377 21.3912 61.8667 20.5533 61.8915 19.6415C62.065 13.8499 63.8496 12.0508 64.7667 8.60055C65.2624 6.75219 63.4778 5.81568 62.0154 5.37207C60.9 5.02705 59.6855 5.54459 59.1402 6.57967C58.6941 7.44224 58.3966 8.40339 58.0992 9.31525C55.3975 17.9163 51.63 21.5638 48.5812 23.2889C48.953 24.6444 55.2735 24.1515 60.6026 23.2889Z" fill="#FF675C"/>
</g>
<g opacity="0.3">
<path opacity="0.3" d="M106.582 16.2904C103.781 12.569 100.484 10.0306 97.0141 8.47797C96.3449 8.18223 96.1218 7.36895 96.4936 6.75283L98.2039 4.06654C98.3278 3.72151 98.3278 3.32719 98.1295 3.00681C97.9312 2.68643 97.5595 2.3414 96.8406 2.09495C95.7996 1.74992 95.2295 1.89779 94.9073 2.07031C94.7338 2.16888 94.6347 2.31675 94.5603 2.48927L93.1227 4.7566C92.3543 5.98884 90.9415 6.6789 89.4791 6.58032H89.4543L90.5201 1.3556C90.5201 0.985931 90.3714 0.616258 90.074 0.394454C89.7765 0.17265 89.3056 -0.0245091 88.5372 0.000135739C87.4466 0.0494255 86.9509 0.394454 86.7278 0.665547C86.6039 0.813417 86.5543 0.985931 86.5543 1.18309L86.0338 3.7708C85.7116 5.39736 84.4475 6.70354 82.8116 7.04857C75.0039 8.65049 68.4107 13.8752 66.75 20.0118C66.527 20.3814 66.3287 20.7758 66.1056 21.1701C65.8825 21.6137 65.4859 21.9587 65.0398 22.1312C64.7671 23.6839 73.8141 28.7361 76.3424 25.6308C77.309 19.8639 82.6876 15.4278 89.1817 15.4278C93.7919 15.4278 97.8321 17.6459 100.162 20.9976C101.079 22.3284 102.913 22.6734 104.227 21.7123C104.896 21.2194 105.541 20.7018 106.136 20.1843C107.3 19.1738 107.474 17.4734 106.582 16.2904Z" fill="#FF675C"/>
</g>
<g opacity="0.25">
<path opacity="0.25" d="M104.054 16.3888C101.625 13.1604 98.7 10.7698 95.3786 9.26647C94.4615 8.87216 93.7923 8.08352 93.4949 7.14702C93.371 6.72805 93.3214 6.28445 93.371 5.86548C92.2308 6.9745 90.7188 7.59062 89.0829 7.59062C88.9342 7.59062 88.7855 7.59062 88.612 7.56598L86.059 7.39346L86.4556 5.42188C85.5385 6.70341 84.1504 7.63991 82.5393 7.9603C75.5248 9.3897 69.6256 14.0722 68.188 19.3216L68.1137 19.5927C68.1137 19.5927 67.5684 20.5538 67.3701 20.9235C66.6265 22.3529 65.1889 23.2155 63.6026 23.2155C63.4291 23.2155 63.2556 23.2155 63.1068 23.1908C60.653 22.8951 58.8436 20.8003 58.918 18.3358C59.0419 13.9983 60.0086 11.6324 60.8761 9.53757C61.2479 8.65035 61.5949 7.78778 61.8427 6.82663C61.694 6.70341 61.3222 6.45696 60.6034 6.2598C60.5786 6.2598 60.5539 6.2598 60.5539 6.2598C60.5043 6.2598 60.4051 6.28445 60.3556 6.38302C59.9838 7.07308 59.7111 7.93565 59.4633 8.74893C55.0265 22.8458 47.7145 24.8174 44.5915 25.68C44.3436 25.7539 44.0214 25.8278 43.9222 25.8771C40.4274 27.4051 37.3291 29.4506 34.6769 31.9644C29.4966 36.918 26.6214 43.301 26.6214 49.9552C26.6214 50.3248 26.547 51.6064 26.3487 54.8595C26.1504 58.0387 25.853 63.362 25.853 64.1753C25.8778 64.4463 26.0017 64.7914 27.3402 64.7914C31.1573 64.7914 38.8162 61.1932 42.9803 56.5353C44.5667 54.7856 45.335 53.1343 45.2111 51.9268C45.1863 51.7789 45.0624 51.3599 44.9633 51.0395C44.0462 47.9343 41.6419 39.7029 53.5393 35.3407C55.1256 34.7739 56.7615 34.7 58.1992 34.7739C68.2624 35.2175 72.3026 39.3825 74.6573 44.484C77.2351 43.9665 79.8872 43.3996 82.341 43.1285C83.9274 42.956 85.4393 42.8821 86.8026 42.8328C87.571 42.0688 88.2402 41.3048 88.835 40.5655C86.2573 35.6365 81.7957 31.6687 78.8462 29.4753C77.4581 28.4648 76.3923 27.7501 75.5496 27.2326C74.8308 26.789 74.2607 26.1729 73.8889 25.4089C73.5419 24.6942 73.418 23.8809 73.6162 23.0922C75.153 16.6599 81.3248 11.9528 88.488 11.9528C93.6932 11.9528 98.4769 14.3926 101.303 18.5083C101.427 18.7055 101.625 18.804 101.848 18.804C101.972 18.804 102.096 18.7548 102.195 18.6808C102.815 18.2126 103.409 17.7443 103.955 17.2514C104.227 17.0296 104.252 16.6599 104.054 16.3888Z" fill="#FFB3B3"/>
</g>
<g opacity="0.44">
<path opacity="0.44" d="M43.7978 25.0385C40.055 26.665 36.7089 28.8831 33.908 31.5447C28.4798 36.7201 25.1585 43.596 25.1585 51.1374C25.1585 52.0492 24.3157 64.6674 24.4149 65.5546C24.6875 68.093 27.2405 68.6352 30.5867 67.9205C38.4439 66.2447 42.4841 57.6436 39.014 50.4227C37.7499 47.7857 36.9815 44.8529 37.0559 41.723C37.3533 29.647 48.9781 23.1162 48.9781 23.0176C46.5986 24.4716 44.5909 24.6934 43.7978 25.0385Z" fill="#FF675C"/>
</g>
<path opacity="0.43" d="M98.2286 3.81967C98.0056 4.3865 97.0389 4.55902 96.0475 4.18934C95.056 3.81967 94.4611 3.05568 94.6594 2.48885C94.8825 1.92202 95.8492 1.7495 96.8406 2.11918C97.8321 2.48885 98.4517 3.25284 98.2286 3.81967Z" fill="#802C39"/>
<path opacity="0.74" d="M96.8651 2.11951C95.8737 1.74984 94.907 1.89771 94.6839 2.48918C94.4609 3.05602 95.0805 3.82001 96.072 4.18968C97.0634 4.55935 98.0301 4.41148 98.2532 3.82001C98.4515 3.25318 97.8318 2.48918 96.8651 2.11951ZM96.1959 3.84465C95.4027 3.54891 94.907 2.95744 95.0557 2.53847C95.2292 2.11951 95.9976 2.02093 96.7908 2.31667C97.5839 2.61241 98.0797 3.20389 97.9309 3.62285C97.7574 4.04181 96.9891 4.14039 96.1959 3.84465Z" fill="white"/>
<path opacity="0.43" d="M88.5869 2.21804C89.641 2.21804 90.4955 1.72151 90.4955 1.10902C90.4955 0.496525 89.641 0 88.5869 0C87.5329 0 86.6784 0.496525 86.6784 1.10902C86.6784 1.72151 87.5329 2.21804 88.5869 2.21804Z" fill="#802C39"/>
<path opacity="0.77" d="M88.5869 0C87.5459 0 86.6784 0.492898 86.6784 1.10902C86.6784 1.72514 87.5211 2.21804 88.5869 2.21804C89.6527 2.21804 90.4955 1.72514 90.4955 1.10902C90.4955 0.492898 89.6279 0 88.5869 0ZM88.5869 1.84837C87.7442 1.84837 87.0502 1.47869 87.0502 1.01044C87.0502 0.542187 87.7442 0.172514 88.5869 0.172514C89.4297 0.172514 90.1237 0.542187 90.1237 1.01044C90.0989 1.47869 89.4297 1.84837 88.5869 1.84837Z" fill="white"/>
<path d="M39.7077 19.9871C38.3445 16.6847 36.312 14.4913 34.7009 14.8856C34.7009 14.8856 34.7009 14.8856 34.7009 14.8609C23.5966 15.7728 14.4257 34.0593 6.56841 45.3467C4.9573 47.6879 0.520551 56.9544 2.47867 59.1478C5.5026 62.4995 16.5077 57.6198 27.265 43.5969C28.7026 41.7239 29.8923 39.703 30.9334 37.6082C33.1889 33.0489 36.6838 29.2782 39.4847 27.7995L39.6086 27.4052C41.1949 26.7398 41.1206 23.4374 39.7077 19.9871Z" fill="#A7CAFF"/>
<path opacity="0.54" d="M33.5117 22.8945C32.7681 21.0954 32.5202 19.2717 32.6442 17.793C32.4211 18.6309 32.2972 19.5428 32.2972 20.4793C32.2972 20.6271 32.2972 20.7504 32.2972 20.8982C32.3715 23.1656 31.5288 25.3343 29.8681 26.8869C26.8194 29.7457 18.9621 39.998 17.0288 44.1876C18.863 44.5573 22.457 45.2966 25.2578 46.036C25.9023 45.2474 26.5715 44.4341 27.216 43.5715C28.6536 41.6985 29.8433 39.6776 30.8843 37.5828C33.0903 33.0974 36.5108 29.4007 39.2621 27.8727C39.3117 27.8481 39.3613 27.7988 39.4108 27.7741C37.8493 27.6756 34.7758 25.9751 33.5117 22.8945Z" fill="#7AABED"/>
<path d="M39.9565 19.9869C39.2129 18.311 38.2711 16.9309 37.3292 15.9698C35.7924 14.3678 34.33 14.8607 34.1813 14.8854C31.8514 15.2797 32.3719 19.1243 32.3719 19.1982C32.3967 19.2968 32.3967 19.3954 32.4215 19.494C32.4463 19.5926 32.4711 19.7158 32.4958 19.8144C32.5206 19.8883 32.5206 19.9622 32.5454 20.0608C32.595 20.258 32.6446 20.4305 32.6941 20.6276C32.7189 20.7016 32.7189 20.7509 32.7437 20.8248C32.7933 20.9727 32.8181 21.1205 32.8676 21.2684C32.8924 21.3423 32.9172 21.4163 32.942 21.4902C32.9916 21.6381 33.0411 21.7859 33.0907 21.9338C33.1155 22.0077 33.1403 22.057 33.1651 22.131C33.2394 22.3528 33.3386 22.5499 33.4377 22.7717C33.5121 22.9443 33.5864 23.0921 33.6608 23.2646C33.6856 23.2893 33.6856 23.3386 33.7104 23.3632C33.7847 23.5111 33.8591 23.659 33.9582 23.8068C33.9582 23.8315 33.983 23.8561 33.983 23.8808C34.0574 24.0286 34.1317 24.1519 34.2061 24.2751C34.2309 24.2997 34.2309 24.3244 34.2557 24.349C34.33 24.4969 34.4292 24.6201 34.5283 24.768C34.5531 24.7926 34.5531 24.8173 34.5779 24.8419C34.6523 24.9651 34.7514 25.0884 34.8258 25.2116C34.8258 25.2362 34.8505 25.2362 34.8505 25.2609C34.9497 25.3841 35.0488 25.5073 35.148 25.6305C35.1728 25.6552 35.1976 25.6798 35.1976 25.7045C35.3958 25.9509 35.5941 26.1974 35.7924 26.4192C35.8172 26.4438 35.8172 26.4438 35.842 26.4685C35.9411 26.5671 36.0403 26.6903 36.1642 26.7889C36.1642 26.7889 36.1642 26.7889 36.189 26.8135C36.2882 26.9121 36.3873 27.0107 36.4864 27.0846L36.5112 27.1092C36.6104 27.2078 36.7343 27.2818 36.8335 27.3803L36.8582 27.405C36.9574 27.4789 38.2958 28.5879 39.436 27.8239C40.7993 26.8874 41.989 24.5215 39.9565 19.9869Z" fill="#BBE4FF"/>
<path opacity="0.7" d="M39.0379 26.8925C40.4442 26.3202 40.5753 23.4054 39.3308 20.3821C38.0863 17.3588 35.9374 15.3719 34.5311 15.9442C33.1249 16.5165 32.9937 19.4313 34.2382 22.4546C35.4827 25.4779 37.6316 27.4648 39.0379 26.8925Z" fill="#802C39"/>
<path opacity="0.43" d="M33.7841 16.6582C33.1397 17.8165 33.2636 20.1085 34.2303 22.4497C35.1969 24.8157 36.7337 26.5654 38.0474 26.9105C38.6918 25.7522 38.5679 23.4602 37.6012 21.1189C36.6345 18.753 35.0978 17.0032 33.7841 16.6582Z" fill="#802C39"/>
<g opacity="0.33">
<path opacity="0.33" d="M32.3214 17.8178C32.371 16.7334 32.6932 15.3287 33.9077 14.959C33.8334 14.9836 33.7342 14.9836 33.6599 15.0083C33.7342 14.9836 33.8334 14.9836 33.9077 14.959C23.1752 16.6348 14.2274 34.3299 6.56841 45.3461C4.9573 47.6874 0.520551 56.9538 2.47867 59.1472C3.17269 59.9359 4.31286 60.2563 5.77525 60.133C4.31286 57.8164 7.06414 49.2154 8.55132 47.0713C15.3428 37.2872 23.1505 22.2539 32.3214 17.8178Z" fill="white"/>
</g>
<path d="M37.7254 48.0322C35.445 47.6132 32.7185 46.0606 29.8929 44.4094C29.8929 44.3847 29.9177 44.3847 29.9177 44.3847L29.7442 44.3355C29.7194 44.3108 29.6946 44.3108 29.6698 44.2862C27.2408 43.325 24.6382 42.4871 22.1596 42.0188C22.1596 42.0188 21.7878 41.9942 21.1681 41.9449C17.1775 41.6985 13.2613 43.1525 10.3861 45.9374C10.3861 45.9374 7.08948 48.5004 4.21426 53.0351C0.496314 58.7774 -0.718216 65.8504 0.421955 72.6524C1.28948 77.8279 3.64418 85.3445 7.23819 90.1996C7.23819 90.1996 7.75871 82.4611 14.2775 80.5634C16.4587 79.9227 26.6459 81.3274 30.3143 69.4979C30.7852 67.9945 34.0818 66.6884 34.8749 65.2343C36.2382 62.7698 35.916 60.3053 36.8331 58.0873C37.6014 56.2636 38.469 54.5877 39.2126 53.2815C40.3279 51.4085 39.857 48.4019 37.7254 48.0322Z" fill="#C13542"/>
<g opacity="0.32">
<path opacity="0.32" d="M37.7254 48.0322C35.445 47.6132 32.7185 46.0606 29.8929 44.4094C29.8929 44.3847 29.9177 44.3847 29.9177 44.3847L29.7442 44.3355C29.7194 44.3108 29.6946 44.3108 29.6698 44.2862C27.2408 43.325 24.6382 42.4871 22.1596 42.0188C22.1596 42.0188 21.7878 41.9942 21.1681 41.9449C17.1775 41.6985 13.2613 43.1525 10.3861 45.9374C10.3861 45.9374 7.08948 48.5004 4.21426 53.0351C0.496314 58.7774 -0.718216 65.8504 0.421955 72.6524C1.28948 77.8279 3.64418 85.3445 7.23819 90.1996C7.23819 90.1996 7.75871 82.4611 14.2775 80.5634C16.4587 79.9227 26.6459 81.3274 30.3143 69.4979C30.7852 67.9945 34.0818 66.6884 34.8749 65.2343C36.2382 62.7698 35.916 60.3053 36.8331 58.0873C37.6014 56.2636 38.469 54.5877 39.2126 53.2815C40.3279 51.4085 39.857 48.4019 37.7254 48.0322Z" fill="#C13542"/>
</g>
<path d="M38.2956 48.2059C38.1221 48.132 37.9238 48.058 37.7255 48.0087C35.4451 47.5898 32.7187 46.0372 29.893 44.3859C29.893 44.3613 29.9178 44.3613 29.9178 44.3613L29.7443 44.312C29.7195 44.2874 29.6947 44.2874 29.6699 44.2627C27.2409 43.3016 24.6383 42.4636 22.1597 41.9954C22.1597 41.9954 21.7879 41.9708 21.1682 41.9215C17.1776 41.675 13.2614 43.1291 10.3862 45.9139C10.3862 45.9139 7.08959 48.477 4.21438 53.0117C4.18959 53.0363 4.1648 53.0609 4.1648 53.1102C-0.544599 60.553 3.59472 70.5095 12.2204 72.4565C18.8631 73.9598 26.0263 72.0375 27.6375 66.8128C28.1084 65.3095 31.405 64.0033 32.1981 62.5492C33.5614 60.0847 35.4947 58.5568 36.4366 56.3634C37.205 54.5396 38.0725 52.8638 38.8161 51.5576C39.287 50.6704 38.9648 49.3889 38.2956 48.2059Z" fill="#C13542"/>
<path opacity="0.54" d="M113.25 50.5228C112.06 50.5228 110.969 49.7342 110.226 48.502C104.178 49.8081 97.3368 50.8679 89.9009 51.6072C79.9863 52.6176 70.5428 56.3637 62.8838 62.7221C59.265 65.7287 54.3573 68.3164 48.5325 70.3127C52.5727 70.5098 57.1829 71.3231 61.2479 72.5307C64.6684 73.5412 68.312 71.5696 69.2291 68.1439C69.5513 66.9363 69.9727 65.8273 70.7906 64.8662C75.2026 59.6661 83.9522 57.0784 92.5034 55.3286C99.171 53.9731 105.715 53.1352 110.003 52.0015C112.382 51.3608 113.621 50.8186 114.315 50.3503C113.968 50.4489 113.621 50.5228 113.25 50.5228Z" fill="#7AABED"/>
<g opacity="0.48">
<path opacity="0.48" d="M58.3476 71.7416C54.3818 70.8051 50.1681 70.2383 46.5989 70.2383C42.1373 70.2383 37.8245 70.953 33.8339 72.2345C33.0655 72.481 31.3057 72.2592 29.4467 71.8156C25.233 81.1313 16.31 79.973 14.2775 80.5645C13.5091 80.7863 12.8151 81.082 12.1954 81.4271C12.3937 82.7332 12.7407 84.1626 13.2612 85.7892C19.3587 104.396 38.4442 124.679 48.7801 121.302C59.1159 117.951 64.3706 90.3485 58.3476 71.7416Z" fill="#FFB3B3"/>
</g>
<path opacity="0.5" d="M99.914 37.1895C99.0217 39.4322 97.7824 42.1432 95.4277 43.2029C95.1054 43.3754 94.7832 43.4986 94.4114 43.6218C93.6926 43.8437 92.9242 43.9422 92.0815 43.8929C91.8089 43.9176 91.5362 43.9422 91.2636 43.9669C90.4704 44.0408 89.6524 44.0901 88.8345 44.1394C85.5379 44.3366 82.2165 44.4105 78.92 44.6816C77.7798 44.7802 76.6148 44.9034 75.4499 45.0759C75.0285 45.1745 74.6319 45.2484 74.2106 45.347C73.8636 45.4456 73.5165 45.5441 73.1695 45.6181C72.773 45.766 72.4012 45.8892 72.0046 45.9878C71.608 46.0863 71.2114 46.1849 70.8396 46.2588C67.5678 46.5792 64.3456 46.8257 61.3712 45.5934C63.8499 47.8115 67.32 48.3044 70.2447 47.6143C70.6413 47.565 71.0131 47.5157 71.3849 47.4664C71.7567 47.3925 72.1285 47.3432 72.5003 47.2446C72.9465 47.1707 73.3926 47.0721 73.8388 46.9735C74.7063 46.7764 75.5738 46.5792 76.3918 46.4067C76.8131 46.3574 77.2345 46.3081 77.6559 46.2588C78.0772 46.2096 78.4986 46.1849 78.92 46.1356C82.2909 45.8892 85.6866 45.9138 89.0824 45.6427C89.8755 45.5688 90.6687 45.4949 91.4618 45.3963C91.7345 45.3716 91.9824 45.3223 92.255 45.2977C92.6268 45.2484 93.0234 45.1991 93.3952 45.1005C93.8165 45.0266 94.2379 44.928 94.6593 44.8048C95.0806 44.6816 95.502 44.5091 95.8986 44.3119C98.2781 43.3508 100.013 40.8863 100.038 38.1753C100.236 37.5346 100.187 36.9924 99.914 37.1895Z" fill="white"/>
<path opacity="0.54" d="M62.7094 24.8425C61.5196 23.9553 59.4871 23.8567 58.0495 23.7089C56.3145 23.5364 54.6042 23.6349 52.8692 23.906C49.6965 24.4236 46.3008 25.7297 43.8717 27.8985C43.6239 28.1203 43.9461 28.4653 44.194 28.3175C45.6812 27.6274 47.0444 26.9127 48.6307 26.4691C50.1427 26.0255 51.7042 25.6805 53.2658 25.5326C54.7034 25.3847 56.1906 25.4094 57.6282 25.5079C58.4709 25.5819 59.3136 25.7051 60.1316 25.8776C60.8504 26.0255 61.5444 26.3212 62.288 26.2966C63.1555 26.2719 63.329 25.3108 62.7094 24.8425Z" fill="white"/>
<path opacity="0.48" d="M24.0929 24.2509C24.0929 24.2263 24.0681 24.2263 24.0929 24.2509C22.0108 26.74 19.9535 29.2785 17.7971 31.7183C15.7399 34.0349 14.0048 36.5241 12.1706 39.0132C11.6997 39.654 12.2698 40.344 12.9142 40.4919C15.6903 36.179 18.6151 31.5704 21.7134 27.5533C22.5065 26.4443 23.2997 25.3353 24.0929 24.2509Z" fill="white"/>
<path d="M84.0752 98.876C80.5804 95.7215 77.1351 97.1509 76.5402 97.1263C76.8624 94.2182 76.9616 91.2854 76.9368 88.3527C76.912 85.1981 76.6393 82.0189 76.4658 78.8644C76.2923 75.7838 77.1599 73.27 74.5077 71.4956C73.3428 70.7069 74.4581 80.6142 74.5821 86.0361C74.6316 88.747 69.6248 85.9128 68.3855 85.3706C65.4359 84.0645 62.1145 83.5962 58.9915 82.9554C58.818 82.9308 58.7684 83.1772 58.9171 83.2019C60.9496 83.6948 63.0316 84.1138 65.0145 84.7792C66.9727 85.4199 68.8564 86.7261 70.3436 88.1555C71.0376 88.8456 71.5581 89.6835 72.2274 90.3736C75.0034 93.1584 73.4419 98.5557 72.7727 101.784C71.6573 107.157 66.353 110.558 63.7009 112.357C62.412 113.219 61.0735 114.033 59.7103 114.846C58.3718 115.635 56.9342 116.251 55.5957 117.015C55.4966 117.064 55.571 117.212 55.6701 117.187C57.2812 116.916 58.9915 116.275 60.5282 115.708C61.9906 115.191 63.4282 114.526 64.7915 113.835C67.1214 112.628 69.2282 111.051 71.2111 109.35C68.6086 115.955 63.3291 127.168 56.5624 134.685C54.7034 136.755 53.0428 138.85 51.0103 140.748C50.8616 140.871 50.812 141.019 50.812 141.191C50.812 141.66 58.6445 135.005 61.2222 131.161C61.8419 130.224 62.4863 129.263 63.106 128.302C62.9573 135.917 64.5932 139.959 65.3863 141.339C65.4359 141.438 65.5846 141.339 65.5351 141.241C64.147 138.554 63.7504 135.203 63.7257 132.196C63.7009 130.693 63.8744 129.189 64.2214 127.735C64.3949 127.045 64.5932 126.355 64.8163 125.69V125.665C66.3282 123.324 67.9641 120.391 67.9641 120.761C67.9641 125.147 69.1043 124.482 70.418 125.221C72.1282 126.158 70.3932 128.696 71.7564 130.027C72.9957 131.235 74.8051 130.865 76.3171 130.495C76.5154 130.446 76.441 130.15 76.2428 130.2C75.0778 130.446 73.7146 130.742 72.624 130.101C71.459 129.411 71.6573 128.351 71.806 127.242C71.9299 126.355 71.9051 125.517 71.112 124.926C70.6658 124.605 70.1205 124.507 69.6496 124.236C68.5094 123.57 69.0051 122.067 69.1539 120.982L69.2034 120.711C69.5257 118.641 70.1949 116.62 71.112 114.723C72.7727 111.371 74.2103 107.871 75.2017 104.273C75.3752 103.633 75.5239 102.992 75.6727 102.326C75.747 102.376 76.8128 100.527 80.0846 106.417C81.0017 108.044 81.3735 109.892 81.7453 111.716C82.1667 113.663 82.5633 115.93 82.3898 117.927C82.3898 118 82.5137 118.025 82.5385 117.951C82.8111 117.138 83.0838 113.835 82.9846 113.047C82.7368 111.248 82.3898 109.399 81.9684 107.625C81.6214 106.097 80.8778 104.865 80.0103 103.583C79.2419 102.45 78.0274 100.749 78.3 99.3196C78.3 99.2704 78.3 99.2211 78.3 99.1964C78.8701 98.95 79.4402 98.6296 80.0103 98.4817C83.3564 97.6684 87.1735 104.15 87.6445 104.889C87.9915 105.456 88.1898 106.122 88.6359 106.59C88.7846 106.762 87.9915 102.4 84.0752 98.876Z" fill="#C13542"/>
<path opacity="0.53" d="M59.7846 115.708C58.4213 116.201 56.9589 116.744 55.5213 117.064C55.4966 117.138 55.5709 117.212 55.6453 117.187C57.2564 116.916 58.9666 116.275 60.5034 115.708C61.9658 115.191 63.4034 114.525 64.7666 113.835C66.6504 112.874 69.5256 110.706 71.1863 109.35C71.3102 109.03 66.353 112.652 64.0231 113.835C62.6846 114.525 61.247 115.191 59.7846 115.708Z" fill="#C13542"/>
<path opacity="0.53" d="M75.9211 102.203C75.2519 101.956 74.9792 102.375 74.9544 102.351C74.8057 102.992 74.657 103.657 74.4835 104.298C73.492 107.896 72.0792 111.395 70.3937 114.747C69.4518 116.645 68.8074 118.641 68.4852 120.736L68.4356 121.007C68.2621 122.067 67.7664 123.595 68.9313 124.26C69.4023 124.531 69.9476 124.605 70.3937 124.95C70.7407 125.197 70.9142 125.492 71.0382 125.813C71.6826 126.946 70.6664 128.893 71.757 130.027C71.8066 130.052 71.8561 130.101 71.9057 130.126C72.5254 130.495 73.1946 130.569 73.8886 130.495C73.4425 130.446 73.0211 130.347 72.6493 130.126C71.4843 129.436 71.6826 128.376 71.8313 127.267C71.9553 126.38 71.9305 125.542 71.1373 124.95C70.6912 124.63 70.1459 124.531 69.6749 124.26C68.5348 123.595 69.0305 122.091 69.1792 121.007L69.2288 120.736C69.551 118.666 70.2202 116.645 71.1373 114.747C72.798 111.395 74.2356 107.896 75.2271 104.298C75.4006 103.657 75.5493 103.016 75.698 102.351C75.7228 102.375 75.7971 102.277 75.9211 102.203Z" fill="#C13542"/>
<path opacity="0.53" d="M67.618 85.3458C68.5103 85.7401 71.4847 87.3914 72.9718 87.1449C71.4103 86.9477 69.13 85.6908 68.3616 85.3458C65.412 84.0396 62.0906 83.5714 58.9676 82.9306C58.8684 82.906 58.8188 82.9799 58.8188 83.0538C61.7684 83.6207 64.8667 84.1136 67.618 85.3458Z" fill="#C13542"/>
<path opacity="0.53" d="M63.751 132.195C63.7263 130.692 63.8998 129.189 64.2468 127.735C64.4203 127.045 64.6186 126.355 64.8416 125.689V125.664C65.7339 124.284 67.3698 121.746 67.9895 120.76C67.9647 120.464 63.9741 124.334 63.5032 127.735C63.404 128.474 63.2057 129.189 63.1314 129.928C63.2305 136.484 64.6929 140.032 65.4117 141.339C65.4613 141.437 65.61 141.339 65.5604 141.24C64.1724 138.554 63.7758 135.227 63.751 132.195Z" fill="#C13542"/>
<path opacity="0.53" d="M81.9934 107.673C81.6464 106.145 80.9028 104.913 80.0353 103.632C79.2669 102.498 78.0524 100.797 78.325 99.3679C78.325 99.3187 78.325 99.2694 78.325 99.2447C78.8951 98.9983 79.4652 98.6779 80.0353 98.53C80.1097 98.5054 80.184 98.5054 80.2832 98.4807C79.9609 98.4314 79.6139 98.4561 79.2917 98.53C78.6968 98.6779 78.1268 98.9736 77.5815 99.2447C77.5815 99.294 77.5815 99.3187 77.5815 99.3679C77.3088 100.797 78.5233 102.498 79.2917 103.632C80.1592 104.913 80.7293 106.195 81.2498 107.673C83.4558 113.859 82.5139 116.841 82.4148 117.95C82.4148 118.024 82.5387 118.049 82.5635 117.975C82.8362 117.162 83.1088 113.859 83.0097 113.07C82.7618 111.271 82.4148 109.448 81.9934 107.673Z" fill="#C13542"/>
<path opacity="0.53" d="M60.4786 131.161C57.5786 135.745 50.812 141.043 50.812 141.191C50.812 141.66 58.6445 135.005 61.2222 131.161C61.594 130.594 62.7342 128.894 63.106 128.302C63.106 127.932 61.0983 130.2 60.4786 131.161Z" fill="#C13542"/>
<path opacity="0.53" d="M84.0758 98.876C82.0681 97.0523 80.0604 96.7565 78.6228 96.8305C79.9613 96.9044 81.6467 97.348 83.3322 98.876C88.116 103.213 88.2399 106.171 88.686 106.664C88.7852 106.762 87.992 102.4 84.0758 98.876Z" fill="#C13542"/>
<path opacity="0.43" d="M69.6996 60.8477C68.0389 60.8477 57.7278 67.4525 54.1586 70.6563C51.7543 72.8251 45.6321 75.5114 42.7073 76.9161C44.0458 75.2156 49.7714 67.4771 51.8287 65.8259C53.9851 64.1008 55.4475 62.5974 58.6201 61.0941C58.744 61.0448 58.6201 60.8477 58.4962 60.8723C56.1911 61.6116 54.0099 63.2136 52.1013 64.6676C49.9945 66.2695 48.0859 68.0933 46.227 69.9663C45.3347 70.8781 44.4671 71.8146 43.55 72.7265C42.6082 73.663 41.9141 74.8213 40.9723 75.7578C37.18 79.6517 27.5133 82.2148 23.5723 85.1229C23.2005 85.4186 22.8039 85.665 22.4321 85.9854L22.7295 82.683C22.8287 81.6233 23.7706 79.1834 24.762 77.6062C23.6466 78.3948 22.5065 78.937 21.3911 79.3313C20.2757 81.1797 20.4244 83.9399 20.1022 85.9115C19.8047 87.7352 19.5569 89.5589 19.4825 91.4073L19.4329 92.4177C19.4082 93.1817 19.2347 93.9457 19.0116 94.6851C18.0449 97.6425 17.8466 100.723 18.0697 103.828C18.1936 105.677 18.4911 107.525 18.9868 109.299C19.2347 110.236 20.7962 114.919 20.821 114.746C20.9945 112.553 20.6723 111.542 20.35 110.335C19.8543 108.412 19.5321 106.465 19.4329 104.494C19.3338 102.695 19.4577 100.92 19.6808 99.1212C19.7304 98.7515 20.2509 98.7022 20.3748 99.0719C21.0193 101.068 21.9116 103.015 22.8782 105.011C24.8612 109.102 27.0671 113.07 29.868 116.644C30.4381 117.358 30.7355 118.246 30.7355 119.157C30.7603 125.417 34.6765 130.765 39.7825 134.363C40.0552 134.56 35.6928 129.681 34.0569 126.995C32.8671 125.023 32.1731 122.78 32.0244 120.513C31.9996 120.069 32.5449 119.847 32.8423 120.168C34.7013 122.238 36.709 124.185 38.8159 125.984C41.8894 128.621 44.7646 132.071 49.1765 132.195C49.4492 132.195 46.5988 131.997 43.8723 129.188C42.5586 127.857 41.1953 126.576 39.9312 125.195C38.0227 123.101 36.0646 121.006 34.2056 118.837C33.9577 118.541 34.2552 118.122 34.627 118.246C35.4201 118.541 36.2133 118.837 37.0312 119.133C38.6423 119.724 41.3936 121.08 43.1287 121.154C43.2278 121.154 39.4851 118.837 38.1714 118.196C37.1304 117.679 34.8253 116.841 31.4791 113.711C29.4466 111.813 27.8107 109.571 26.5714 107.106C26.2988 106.564 26.0261 106.022 25.7782 105.48C24.9107 103.68 23.9688 101.881 23.2253 100.033C24.7372 98.3325 27.3398 99.269 29.0253 100.329C30.9834 101.561 32.8176 102.793 35.0731 103.36C35.1227 103.385 35.1475 103.286 35.0979 103.286C32.2475 102.276 30.8842 99.0965 28.0338 98.0368C26.7449 97.5685 25.3321 97.4207 24.0928 97.815C23.2748 98.0861 22.3825 97.6178 22.1842 96.7552C21.9612 95.7448 21.8124 94.6851 21.8124 93.6007C21.8124 92.7628 21.6637 88.9921 27.1415 86.2812C27.2902 86.2072 27.4637 86.1087 27.6124 86.0347C29.05 85.1968 30.8594 85.3447 32.1483 86.4044C32.3962 86.6016 32.6441 86.7987 32.8919 86.9712C34.156 87.8831 35.5688 88.5485 37.056 88.9921C38.4936 89.4357 39.956 89.6575 41.4432 89.5097C42.8064 89.3864 44.2688 89.1893 45.5082 88.6224C45.5825 88.5978 45.5577 88.4499 45.4586 88.4499C43.7979 88.4746 42.3107 88.5485 40.65 88.2281C39.1629 87.9324 37.7005 87.6366 36.2876 87.0452C34.8253 86.429 30.3637 84.556 42.2364 79.4545C48.8543 76.6204 54.7535 72.3568 59.9338 67.4278C64.2466 63.3368 69.8731 60.8477 69.6996 60.8477Z" fill="#C13542"/>
<path d="M43.9721 88.4758C44.4678 88.4758 44.9883 88.4758 45.5088 88.4512H45.4841C44.9635 88.4758 44.4678 88.4758 43.9721 88.4758Z" fill="#FF675C"/>
<path d="M34.8248 118.321C35.5684 118.616 36.3368 118.887 37.0804 119.158C38.6915 119.75 41.4427 121.105 43.1778 121.179C43.1778 121.179 43.153 121.155 43.1034 121.105C41.3932 120.834 39.0137 119.701 37.5761 119.158C36.7829 118.863 34.8992 118.247 34.8248 118.321Z" fill="#FF675C"/>
<path d="M43.5256 76.5464C43.4017 76.6943 52.2752 72.8251 54.6795 70.6563C57.7282 67.9207 65.6846 62.696 68.9812 61.242C69.4769 60.9955 69.7495 60.8477 69.7 60.8477C68.0393 60.8477 57.7282 67.4525 54.1589 70.6563C51.953 72.6279 46.6239 75.0677 43.5256 76.5464Z" fill="#FF675C"/>
<path d="M25.7291 99.1217C26.8941 99.1957 28.1086 99.7379 29.0505 100.329C31.0086 101.562 32.8428 102.794 35.0983 103.361C35.1479 103.385 35.1727 103.287 35.1231 103.287C34.9248 103.213 34.7513 103.139 34.5778 103.065C32.7684 102.424 31.1821 101.389 29.5462 100.329C28.4804 99.6393 27.0428 99.0232 25.7291 99.1217Z" fill="#FF675C"/>
<path d="M48.9539 132.147C44.9881 131.654 42.2616 128.475 39.3616 125.986C37.2548 124.187 32.9915 119.997 32.7932 120.095C32.818 120.12 32.8676 120.145 32.8924 120.169C34.7513 122.24 36.759 124.187 38.8659 125.986C41.9394 128.623 44.8146 132.073 49.2265 132.196C49.3009 132.221 49.2018 132.196 48.9539 132.147Z" fill="#FF675C"/>
<path d="M31.3054 119.157C31.4046 118.245 31.008 117.358 30.4379 116.643C27.637 113.045 25.431 109.077 23.4481 105.011C22.4815 103.039 20.5234 98.7758 20.3499 98.9237C20.3994 98.973 20.4242 98.9976 20.449 99.0715C21.0934 101.068 21.9858 103.015 22.9524 105.011C24.9353 109.102 27.1413 113.07 29.9422 116.643C30.5122 117.358 30.8097 118.245 30.8097 119.157C30.8345 125.417 34.7507 130.765 39.8567 134.363C39.931 134.437 30.3635 127.339 31.3054 119.157Z" fill="#FF675C"/>
<path d="M32.6448 86.38C31.8516 85.7146 30.8354 85.4189 29.8439 85.4682C30.6619 85.5175 31.4798 85.8132 32.149 86.38C32.3969 86.5772 32.6448 86.7743 32.8926 86.9469C34.1567 87.8587 35.5695 88.5241 37.0567 88.9677C38.2713 89.3374 39.4858 89.5592 40.7499 89.5099C39.6593 89.4853 38.5935 89.2881 37.5525 88.9677C36.0653 88.4995 34.6524 87.8341 33.3883 86.9469C33.1405 86.799 32.8926 86.6018 32.6448 86.38Z" fill="#FF675C"/>
<path d="M19.5076 109.3C19.0367 107.501 18.7392 105.677 18.5905 103.829C18.3674 100.724 18.5657 97.6185 19.5324 94.6858C19.7803 93.9464 19.929 93.2071 19.9538 92.4185L20.0033 91.408C20.0777 89.5597 20.3256 87.7359 20.623 85.9122C20.9452 83.9406 20.3008 82.5112 21.4162 79.332C20.3008 81.1804 20.4495 83.9406 20.1273 85.9122C19.8298 87.7359 19.582 89.5597 19.5076 91.408L19.458 92.4185C19.4332 93.1825 19.2597 93.9464 19.0367 94.6858C18.07 97.6432 17.8717 100.724 18.0948 103.829C18.2187 105.677 18.5162 107.526 19.0119 109.3C19.2597 110.237 20.8213 114.919 20.8461 114.747C20.8956 114.303 19.6811 109.916 19.5076 109.3Z" fill="#FF675C"/>
<path d="M23.0276 85.5919C23.0276 85.5919 24.614 84.7046 26.8695 83.6942C31.8268 81.5008 40.0063 77.9273 41.543 75.7832C42.3114 74.6988 43.1789 73.6884 44.1208 72.7519C45.0379 71.84 45.8806 70.9035 46.7977 69.9917C48.6567 68.1186 50.5653 66.2949 52.6721 64.693C54.4815 63.3129 56.5388 61.7849 58.72 60.9963C58.6952 60.9223 58.6208 60.873 58.5465 60.873C56.2413 61.6124 54.0601 63.2143 52.1516 64.6684C50.0448 66.2703 48.1362 68.094 46.2772 69.967C45.3849 70.8789 44.5174 71.8154 43.6003 72.7272C42.6584 73.6637 41.9644 74.822 41.0225 75.7586C37.2302 79.6524 27.5635 82.2155 23.6225 85.1236C23.4242 85.2961 23.2259 85.444 23.0276 85.5919Z" fill="#FF675C"/>
<g opacity="0.66">
<path opacity="0.66" d="M97.0641 84.0401C97.0641 83.9661 97.0888 83.8922 97.0888 83.8429C97.1136 83.769 97.1136 83.695 97.1384 83.6211C97.1384 83.5965 97.1384 83.5965 97.1632 83.5718C97.188 83.4979 97.2128 83.4239 97.2376 83.35C97.3863 82.8818 96.9401 82.4381 96.4692 82.586C93.0735 83.5965 90.3965 78.8153 90.223 78.5689C90.1487 78.4703 90.0495 78.421 89.9504 78.3717C80.9282 73.9849 82.6136 67.528 82.6632 67.0844C82.9854 64.6938 78.7222 58.5819 70.7658 64.8663C69.7991 65.9014 71.8812 69.1053 75.2521 72.7527C75.2769 72.7773 75.3017 72.802 75.3265 72.8513C75.376 72.9006 75.4256 72.9499 75.4752 72.9991C76.1692 73.7631 76.9376 74.5271 77.7307 75.2911C77.7555 75.3158 77.7803 75.3404 77.8051 75.3651C77.929 75.4883 78.0777 75.6115 78.2017 75.7347C78.2512 75.784 78.3008 75.8333 78.3752 75.8826C78.4991 75.9812 78.5982 76.1044 78.7222 76.203C78.7965 76.2769 78.8709 76.3509 78.97 76.4248C79.0692 76.5234 79.1683 76.5973 79.2675 76.6959C79.3666 76.7945 79.4658 76.8684 79.5649 76.967C79.6393 77.0409 79.7384 77.1148 79.8376 77.2134C79.9119 77.2874 80.0111 77.3613 80.0854 77.4352C80.2589 77.5831 80.4076 77.731 80.5812 77.8788C83.2581 80.2447 86.1333 82.4628 88.7111 84.0647C88.835 84.1386 88.9589 84.2126 89.0829 84.2865C89.1572 84.3358 89.2564 84.3851 89.3307 84.4344C89.4794 84.5083 89.6034 84.5823 89.7521 84.6808C89.8264 84.7301 89.876 84.7548 89.9504 84.8041C90.1239 84.9026 90.2726 84.9766 90.4213 85.0752C90.4461 85.0998 90.4957 85.1244 90.5205 85.1244C90.7188 85.223 90.8923 85.3216 91.0905 85.4202C91.1401 85.4448 91.1897 85.4695 91.2393 85.4941C91.3632 85.568 91.5119 85.6173 91.6359 85.6913C91.7102 85.7159 91.7598 85.7406 91.8341 85.7899C91.9581 85.8391 92.0572 85.8884 92.1564 85.9377C92.2307 85.9624 92.3051 85.987 92.3794 86.0117C92.4786 86.0609 92.5777 86.0856 92.6769 86.1349C92.7512 86.1595 92.8256 86.1842 92.8999 86.2088C92.9991 86.2335 93.0982 86.2828 93.1974 86.3074C93.2717 86.332 93.3461 86.3567 93.3957 86.3813C93.4948 86.406 93.5692 86.4306 93.6683 86.4553C93.7427 86.4799 93.7923 86.4799 93.8666 86.5046C93.9658 86.5292 94.0401 86.5538 94.1393 86.5538C94.1888 86.5538 94.2632 86.5785 94.3128 86.5785C94.4119 86.6031 94.4863 86.6031 94.5606 86.6031C94.6102 86.6031 94.6598 86.6278 94.7341 86.6278C94.8333 86.6278 94.9076 86.6278 95.0068 86.6278C95.0564 86.6278 95.0811 86.6278 95.1307 86.6278C95.2546 86.6278 95.3786 86.6278 95.5025 86.6031C95.5025 86.6031 95.5025 86.6031 95.5273 86.6031C95.6512 86.5785 95.7504 86.5538 95.8495 86.5292C95.8743 86.5292 95.9239 86.5046 95.9487 86.5046C96.023 86.4799 96.0974 86.4553 96.147 86.4306C96.1965 86.406 96.2213 86.3813 96.2461 86.3813C96.2957 86.3567 96.37 86.3074 96.4196 86.2827C96.4444 86.2581 96.494 86.2335 96.5187 86.2088C96.5683 86.1595 96.6179 86.1349 96.6675 86.0856C96.6923 86.0609 96.7418 86.0117 96.7666 85.987C96.8162 85.9377 96.841 85.8884 96.8905 85.8391C96.9153 85.8145 96.9401 85.7652 96.9649 85.7406C97.0145 85.6666 97.0393 85.568 97.0393 85.4941V85.4695C97.0393 85.4448 97.0393 85.3955 97.0393 85.3709C97.0393 85.3462 97.0393 85.3216 97.0393 85.297C97.0393 85.2477 97.0393 85.223 97.0393 85.1737C97.0393 85.1491 97.0393 85.1244 97.0393 85.0998C97.0393 85.0751 97.0393 85.0505 97.0393 85.0259C97.0393 84.9766 97.0393 84.9273 97.0393 84.878C97.0393 84.8533 97.0393 84.8533 97.0393 84.8287C97.0393 84.7794 97.0393 84.7548 97.0393 84.7055C97.0393 84.7055 97.0393 84.7055 97.0393 84.6808C97.0393 84.6562 97.0393 84.6069 97.0393 84.5823C97.0393 84.5576 97.0393 84.533 97.0393 84.533C97.0393 84.5083 97.0393 84.5083 97.0393 84.4837C97.0393 84.459 97.0393 84.4097 97.0393 84.3851C97.0393 84.3112 97.0393 84.2372 97.0641 84.1879C97.0641 84.0647 97.0641 84.0401 97.0641 84.0401Z" fill="#C13542"/>
</g>
<path opacity="0.53" d="M76.4658 78.8398C76.3667 76.8929 76.6641 75.1677 76.218 73.7137C75.9701 73.4426 75.7222 73.1961 75.4744 72.9497C75.4248 72.9004 75.3752 72.8511 75.3256 72.8018C75.3009 72.7772 75.2761 72.7525 75.2513 72.7032C74.8795 72.3089 74.5325 71.9146 74.2103 71.5449C74.1855 71.5942 74.1359 71.6682 74.1111 71.7421C76.3171 73.5165 75.5487 75.9071 75.6974 78.8398C75.8709 81.9943 76.1436 85.1735 76.1684 88.3281C76.1932 91.2608 76.094 94.1936 75.7718 97.1017C75.8957 97.1017 76.1684 97.0524 76.5402 96.9784C76.8376 94.1196 76.9368 91.2115 76.912 88.3281C76.912 85.1735 76.6393 81.9943 76.4658 78.8398Z" fill="#C13542"/>
<g opacity="0.45">
<path opacity="0.45" d="M96.1214 60.1085C96.0966 60.0346 96.0471 59.9607 95.9975 59.8867C94.8325 67.5513 90.4453 73.5893 84.8436 75.2405C84.9676 80.7856 89.1812 81.8946 89.0325 84.2605C87.6693 106.293 79.118 127.562 67.6171 140.303C65.1881 142.989 63.6017 143.803 58.7436 144C59.0658 144 59.3633 144.024 59.6855 144.024C59.7599 144.024 59.8094 144.024 59.8838 144.024C60.2556 144.024 60.6026 144.024 60.9744 144C61.0735 144 61.1727 144 61.2718 143.975C61.5445 143.95 61.8171 143.95 62.065 143.926C62.1889 143.926 62.3376 143.901 62.4616 143.901C62.7094 143.876 62.9573 143.852 63.1804 143.827C63.3043 143.803 63.453 143.803 63.577 143.778C63.8248 143.753 64.0975 143.704 64.3453 143.679C64.4693 143.655 64.5684 143.655 64.6923 143.63C65.0641 143.581 65.4359 143.507 65.8077 143.433C80.3325 140.673 99.1206 95.745 96.7163 85.8871C96.8154 85.7885 96.8898 85.6653 96.9642 85.542C96.9889 84.9506 97.0137 84.5316 97.0385 84.2851C97.2616 80.9827 103.557 75.4376 96.1214 60.1085Z" fill="#C13542"/>
</g>
</g>
<defs>
<clipPath id="clip0">
<rect width="116" height="144" fill="white"/>
</clipPath>
</defs>
</svg>
