<svg width="144" height="144" viewBox="0 0 144 144" fill="none" xmlns="http://www.w3.org/2000/svg">
<path d="M72 144C111.765 144 144 111.765 144 72C144 32.2355 111.765 0 72 0C32.2355 0 0 32.2355 0 72C0 111.765 32.2355 144 72 144Z" fill="#D1C9BD"/>
<path d="M116.59 101.961C107.006 87.4819 121.131 82.2177 113.475 46.9504C105.821 11.6831 71.2654 12.1312 71.2654 12.1312C34.7683 8.66369 19.4891 50.0842 23.5049 62.323C27.5207 74.5618 31.3429 89.5307 21.5075 99.9377C17.8557 103.802 16.0823 107.755 15.604 111.747C15.604 111.747 15.422 115.051 17.1837 119.513C28.2931 131.586 43.36 139.961 60.3263 142.579C64.0644 142.903 68.1152 143.08 72.5044 143.08C76.2145 143.08 79.668 142.917 82.8788 142.611C95.6799 140.677 107.403 135.466 117.175 127.862C117.784 127.159 118.347 126.45 118.869 125.736C122.162 121.226 122.883 115.133 120.776 109.873C119.726 107.258 118.337 104.602 116.59 101.961Z" fill="#98441D"/>
<path d="M64.5655 97.9032C64.5655 97.9032 65.2842 104.696 62.0874 109.808C62.0874 109.808 66.8009 114.202 73.1945 112.926C79.5881 111.647 83.8209 108.051 83.8209 108.051C83.8209 108.051 80.4654 102.379 80.3837 97.9032C80.3067 93.4277 64.5655 97.9032 64.5655 97.9032Z" fill="#FDBC98"/>
<path opacity="0.4" d="M72.9564 102.822C77.4202 102.822 79.742 102.029 80.9344 101.291C80.6217 100.157 80.407 98.9952 80.386 97.9032C80.3067 93.4277 64.5654 97.9032 64.5654 97.9032C64.5654 97.9032 64.7148 99.3242 64.5724 101.354C66.2595 102.099 68.9266 102.822 72.9564 102.822Z" fill="#FDBC98"/>
<path d="M41.5699 66.1267C41.5699 66.1267 36.8494 64.274 33.5173 68.4181C30.1851 72.5623 35.643 80.2673 41.5209 79.9663C47.4011 79.6653 41.5699 66.1267 41.5699 66.1267Z" fill="#FDBC98"/>
<path d="M99.7886 63.3103C99.7886 63.3103 104.509 61.4576 107.841 65.6017C111.173 69.7459 105.716 77.4508 99.8376 77.1498C93.9574 76.8465 99.7886 63.3103 99.7886 63.3103Z" fill="#FDBC98"/>
<path opacity="0.4" d="M40.3267 68.6284C40.3267 68.6284 37.7762 68.0777 36.3622 68.9737C34.9481 69.8698 34.4651 71.7318 35.3285 73.0432C36.1895 74.3522 38.3969 73.4235 38.7936 74.5249C39.1903 75.6286 39.9487 77.1454 42.5341 77.0427C45.1195 76.94 40.3267 68.6284 40.3267 68.6284Z" fill="#FDBC98"/>
<path opacity="0.4" d="M101.499 65.975C101.499 65.975 103.795 65.303 105.13 66.1313C106.465 66.9597 107.001 68.7961 106.283 70.1448C105.564 71.4935 103.506 70.6675 103.202 71.7876C102.897 72.9076 102.285 74.4593 99.9216 74.478C97.5602 74.499 101.499 65.975 101.499 65.975Z" fill="#FDBC98"/>
<path d="M71.1576 100.022C78.4683 100.607 97.5276 92.8909 100.402 75.1172C102.057 64.8992 101.504 54.2424 100.736 47.0298C99.8984 39.1709 96.2162 31.8813 90.3337 26.6054C85.0018 21.8219 77.3552 17.6077 67.4405 18.6461C46.225 20.8675 36.756 46.4721 39.1548 65.6482C41.5535 84.8219 54.0163 98.6497 71.1576 100.022Z" fill="#FDBC98"/>
<path opacity="0.79" d="M66.5795 72.8985L70.88 73.7642C70.9663 73.7829 71.0573 73.7806 71.1437 73.7596L75.4722 72.6908C75.9645 72.5695 76.3215 73.0595 75.9342 73.3255L71.4354 76.4197C71.2627 76.5387 71.0037 76.5434 70.8217 76.4313L66.1642 73.5496C65.7581 73.2999 66.0778 72.7982 66.5795 72.8985Z" fill="#FDBC98"/>
<path opacity="0.19" d="M71.7266 89.396C73.8994 89.396 75.6608 88.5154 75.6608 87.429C75.6608 86.3426 73.8994 85.4619 71.7266 85.4619C69.5539 85.4619 67.7925 86.3426 67.7925 87.429C67.7925 88.5154 69.5539 89.396 71.7266 89.396Z" fill="#FDBC98"/>
<path d="M71.7155 143.455C87.9492 143.455 102.96 138.23 115.168 129.375C109.279 122.836 96.5408 110.115 83.0373 105.69C83.0373 105.69 74.581 112.072 63.4062 106.395C63.4062 106.395 42.3565 112.667 30.3394 130.833C42.1535 138.802 56.3897 143.455 71.7155 143.455Z" fill="#FFD93B"/>
<path d="M38.7022 64.9905C38.7022 64.9905 37.4819 50.8477 44.8811 44.1111C52.2781 37.3745 71.2744 28.7268 70.8264 20.7652C70.8264 20.7652 72.9195 28.4632 65.8352 33.5127C65.8352 33.5127 76.0253 31.8256 73.0688 21.7849C73.0688 21.7849 73.6312 25.7471 83.1655 29.0512C92.6999 32.353 101.525 51.8277 101.67 61.5744C101.67 61.5744 103.135 57.6403 102.475 49.6856C101.814 41.7357 95.3623 25.2944 86.7007 20.7675C78.039 16.2407 65.3569 14.92 56.2425 19.6755C47.1259 24.4287 35.0341 39.1082 38.7022 64.9905Z" fill="#98441D"/>
<path opacity="0.76" d="M38.065 64.2955L37.9576 64.2768C35.0292 63.7471 33.0831 60.947 33.6128 58.0186L35.6079 46.9698C36.1352 44.0414 38.9377 42.0953 41.8661 42.625L41.9734 42.6437C44.9019 43.171 46.848 45.9735 46.3183 48.9019L44.3232 59.9507C43.7958 62.8791 40.9934 64.8252 38.065 64.2955Z" fill="#FF1A1A"/>
<path opacity="0.76" d="M101.238 64.2955L101.346 64.2768C104.274 63.7471 106.22 60.947 105.69 58.0186L103.695 46.9698C103.166 44.0414 100.365 42.0953 97.437 42.625L97.3297 42.6437C94.4012 43.171 92.4552 45.9735 92.9849 48.9019L94.9799 59.9507C95.5073 62.8791 98.3097 64.8252 101.238 64.2955Z" fill="#FF1A1A"/>
</svg>
