<svg width="151" height="150" viewBox="0 0 151 150" fill="none" xmlns="http://www.w3.org/2000/svg">
<path d="M149 75.5C149 116.6 115.6 150 74.5 150C33.4 150 0 116.6 0 75.5C0 34.4 33.4 1 74.5 1C115.6 1 149 34.4 149 75.5Z" fill="#F8F6F6"/>
<mask id="mask0" mask-type="alpha" maskUnits="userSpaceOnUse" x="4" y="0" width="147" height="150">
<path d="M77.5 149.8C118.093 149.8 151 116.266 151 74.9C151 33.5339 118.093 0 77.5 0C36.9071 0 4 33.5339 4 74.9C4 116.266 36.9071 149.8 77.5 149.8Z" fill="#F8F6F6"/>
</mask>
<g mask="url(#mask0)">
<mask id="mask1" mask-type="alpha" maskUnits="userSpaceOnUse" x="30" y="33" width="50" height="45">
<path d="M55.964 74.0887L34.2758 52.2993L54.4915 37.3687L75.8989 40.8727L74.9041 64.0938L55.964 74.0887Z" fill="#C4C4C4" stroke="black"/>
</mask>
<g mask="url(#mask1)">
<path d="M57.6668 45.5504C57.6668 45.5504 62.3731 40.5015 63.494 41.1223C64.4938 41.6842 64.2704 43.3732 63.5595 44.5252C64.3667 43.9445 66.5802 42.4757 67.3379 42.9196C68.3066 43.3914 68.3813 44.7761 67.5804 45.9591L65.1155 49.328L67.5898 46.8626C67.5898 46.8626 70.2723 47.0455 67.8727 50.8957C66.392 53.3206 60.8074 60.7882 60.8074 60.7882C60.8074 60.7882 63.1204 60.1918 63.7537 60.2756C67.703 60.626 67.3743 63.7618 67.3743 63.7618L64.6296 63.3989L56.3031 67.8831L49.3949 66.8406L49.5781 67.0796L27.9849 99.1107C27.9849 99.1107 10.5119 104.534 10.1135 95.2006C12.2078 82.2877 38.7608 63.7587 38.7608 63.7587L43.7776 59.6102L46.6707 53.9779L50.0732 50.9907C50.1321 50.8696 50.1601 50.6585 50.3091 50.5064C50.3091 50.5064 56.524 42.8214 57.2816 43.2653C58.0392 43.7092 58.2007 44.7617 57.6668 45.5504Z" fill="#FABC84"/>
</g>
<path d="M106.292 46.0404C106.292 46.0404 103.229 44.9026 101.916 49.016C101.741 49.6286 101.741 52.2542 101.741 52.2542C101.741 52.2542 95.5272 44.5526 93.4268 42.4521C90.0136 38.9514 89.2259 41.752 89.2259 41.752L95.7023 52.6043L88.2632 59.1682L91.5014 65.382L96.5774 69.7579L104.892 65.8196L107.692 58.7306L105.242 48.841L106.292 46.0404Z" fill="#FABC84"/>
<path d="M90.4515 50.5039C90.0139 51.4666 90.2765 52.5168 91.0642 52.8669L97.5405 55.8425C98.3282 56.1926 99.2909 55.755 99.7285 54.7923C100.166 53.8296 99.9035 52.7794 99.1159 52.4293L92.6395 49.3661C91.8518 49.0161 90.8891 49.5412 90.4515 50.5039Z" fill="#FABC84"/>
<path d="M88.3508 53.742C87.8257 54.7922 88.0883 55.9299 88.8759 56.28L95.3523 59.2556C96.14 59.6057 97.1902 59.0806 97.6278 58.0304C98.1529 56.9801 97.8903 55.8424 97.1027 55.4923L90.6263 52.5167C89.8386 52.1666 88.8759 52.6917 88.3508 53.742Z" fill="#FABC84"/>
<path d="M88.1758 57.5055C87.8257 58.2932 88.0007 59.1683 88.7009 59.5184L94.127 62.0564C94.8272 62.319 95.6148 61.9689 95.9649 61.1813C96.315 60.3936 96.1399 59.5184 95.4398 59.1683L90.0137 56.6303C89.401 56.2802 88.5258 56.7178 88.1758 57.5055Z" fill="#FABC84"/>
<path d="M89.1003 72.2912C89.1003 72.2912 81.0003 85.3912 75.4003 85.2912C70.0003 85.1912 62.8003 72.2912 62.8003 72.2912L63.0003 52.4912H89.0003L89.1003 72.2912Z" fill="#F7995A"/>
<path d="M90.6 42.4916C95.8 37.7916 94.2 47.3916 92.9 49.8916C92.5 50.7916 91.5 52.5916 90.3 52.7916L90.6 42.4916Z" fill="#F7995A"/>
<path d="M90.7001 45.9912C90.2001 39.9912 91.6001 30.4912 89.0001 26.4912C86.0001 21.8912 80.3001 21.4912 75.4001 21.4912C70.5001 21.4912 64.8001 21.8912 61.8001 26.4912C59.2001 30.4912 60.6001 39.9912 60.1001 45.9912C59.5001 53.5912 61.6001 58.8912 67.4001 63.5912C69.1001 64.9912 73.1001 65.7912 75.3001 65.8912C77.5001 65.8912 81.5001 64.9912 83.2001 63.5912C89.2001 58.8912 91.4001 53.6912 90.7001 45.9912Z" fill="#FABC84"/>
<path d="M86.3002 51.0914C85.9002 45.5914 89.7002 38.6914 87.3002 34.9914C84.5002 30.7914 79.4002 28.6914 74.9002 28.6914C70.4002 28.6914 66.2002 31.1914 63.4002 35.4914C61.0002 39.0914 65.4002 45.4914 64.6002 50.9914C63.5002 57.9914 62.8002 58.5914 68.2002 62.8914C69.8002 64.1914 73.4002 64.9914 75.5002 64.9914C77.6002 64.9914 81.2002 64.1914 82.8002 62.8914C88.1002 58.4914 86.9002 58.0914 86.3002 51.0914Z" fill="#FABC84"/>
<path d="M94.1001 25.1914C93.8001 24.1914 90.8001 20.1914 90.8001 20.1914L85.6001 15.5914C85.6001 15.5914 76.3001 12.5914 74.8001 12.1914C71.3001 11.0914 66.3001 15.0914 66.3001 15.0914L63.4001 18.0914L63.3001 17.1914C63.3001 17.1914 58.2001 21.6914 57.0001 27.3914C56.2001 30.7914 56.8001 38.8914 57.8001 41.2914C57.8001 41.2914 59.6001 42.6914 60.2001 42.5914C60.1001 39.9914 61.2001 36.3914 61.2001 34.4914C61.7001 32.8914 65.6001 26.4914 67.4001 25.8914C69.3001 23.9914 74.8001 26.2914 74.8001 26.2914L78.6001 24.8914C78.6001 24.8914 79.5001 26.3914 80.0001 26.5914C80.9001 26.9914 83.9001 26.2914 83.9001 26.2914C88.2001 28.6914 89.4001 35.3914 89.4001 35.3914C89.4001 35.3914 90.6001 39.9914 90.5001 42.5914C91.1001 42.6914 93.3001 41.2914 93.3001 41.2914C93.7001 38.2914 95.5001 30.1914 94.1001 25.1914Z" fill="#00314E"/>
<path d="M81.4001 23.3914C83.4001 19.1914 75.2001 16.8914 72.4001 16.1914C72.9001 16.7914 73.2001 17.4914 73.6001 18.0914C72.1001 17.0914 69.8001 16.4914 68.0001 16.1914C68.0001 16.1914 68.0001 16.1914 68.1001 16.1914C71.1001 18.4914 64.0001 19.9914 65.1001 23.3914C66.7001 22.5914 68.9001 22.6914 70.8001 22.6914C71.7001 22.6914 75.2001 24.2914 76.0001 24.2914C77.1001 24.1914 75.6001 22.3914 76.9001 22.4914C77.8001 22.4914 81.4001 23.3914 81.4001 23.3914Z" fill="#053E60"/>
<path d="M60.3 42.4916C55.1 37.7916 56.7 47.3916 58 49.8916C58.4 50.7916 59.4 52.5916 60.6 52.7916L60.3 42.4916Z" fill="#F7995A"/>
<path d="M102 137.492L103.9 133.592L103.7 128.392L111.9 75.6916L98.1002 69.3916L76.8002 78.6916L75.4002 85.7916L74.1002 78.6916L52.8002 69.3916L39.0002 75.6916L47.2002 128.392L47.0002 133.592L48.9002 137.492L48.4002 142.392L43.9002 159.392C43.9002 159.392 52.1002 162.492 75.5002 162.492C98.8002 162.492 105.7 159.392 105.7 159.392L102.5 142.392L102 137.492Z" fill="#FCE587"/>
<path d="M71.9003 75.3916L74.1003 78.6916L70.6003 77.4916L67.0003 82.8916L52.8003 69.3916L60.2003 63.8916L71.9003 75.3916Z" fill="#FDD36A"/>
<path d="M79.0003 75.3916L76.8003 78.6916L80.3003 77.4916L83.9003 82.8916L98.2003 69.3916L90.7003 63.8916L79.0003 75.3916Z" fill="#FDD36A"/>
<path d="M49.2003 136.492C54.7003 141.592 65.6003 137.892 70.9003 142.192C64.7003 145.292 49.5003 142.592 59.8003 152.492C55.8003 152.592 52.3003 151.092 48.3003 151.392C48.6003 147.892 50.0003 144.092 49.4003 140.992L49.2003 136.492Z" fill="#FDD36A"/>
<path d="M101.9 141.392C99.6001 146.092 92.8001 145.592 87.9001 146.492C90.2001 149.092 95.4001 148.592 99.3001 148.692C98.7001 149.292 98.0001 150.192 97.1001 150.892C98.5001 151.292 102.7 151.492 103 151.492L101.9 141.392Z" fill="#FDD36A"/>
<path d="M43.9229 101.216L41.3848 73.2974L36.2212 81.6116C36.2212 81.6116 20.7305 100.341 25.0189 102.879C33.5957 108.042 43.9229 101.216 43.9229 101.216Z" fill="#FDD36A"/>
<path d="M104.366 107.216L106.904 79.2974L112.068 87.6116C112.068 87.6116 127.559 106.341 123.27 108.879C114.694 114.042 104.366 107.216 104.366 107.216Z" fill="#FDD36A"/>
<path d="M104.979 65.7319L98.2397 65.907L94.2139 66.6946C94.2139 66.6946 113.118 105.728 123.358 109.054C131.584 107.566 133.597 95.4882 128.521 90.3246C122.482 84.1983 104.979 65.7319 104.979 65.7319Z" fill="#FABC84"/>
<mask id="mask2" mask-type="alpha" maskUnits="userSpaceOnUse" x="3" y="56" width="56" height="59">
<path d="M58 71.1914L37.5 56.6914L8.5 87.6914L4 109.191L35 113.691L58 71.1914Z" fill="#FABC84" stroke="black"/>
</mask>
<g mask="url(#mask2)">
<path d="M56.8264 41.8828C56.8264 41.8828 60.9744 35.6615 62.2814 36.1291C63.4486 36.5548 63.5054 38.3996 62.947 39.7556C63.7083 38.9935 65.8178 37.0359 66.7054 37.3779C67.8237 37.7128 68.1458 39.1801 67.4966 40.585L65.451 44.6181L67.6648 41.5493C67.6648 41.5493 70.5647 41.2754 68.673 45.8115C67.5144 48.6632 62.8505 57.6241 62.8505 57.6241C62.8505 57.6241 65.219 56.5817 65.9108 56.5605C70.1944 56.244 70.3916 59.6541 70.3916 59.6541L67.3938 59.7463L59.2766 65.9974L51.7086 66.0918L51.9463 66.3153L34.466 104.339C34.466 104.339 16.7345 113.194 14.6753 103.286C14.6547 89.1139 39.8002 64.6579 39.8002 64.6579L44.4378 59.3448L46.5451 52.8169L49.66 49.028C49.7019 48.8882 49.6948 48.6576 49.8275 48.4688C49.8275 48.4688 55.1271 39.1652 56.0147 39.5072C56.9024 39.8492 57.2593 40.9462 56.8264 41.8828Z" fill="#FABC84"/>
</g>
<path d="M58.5885 68.5195C60.1949 72.414 64.6571 74.1842 68.5838 72.591C72.5105 70.9978 74.2954 66.5722 72.689 62.6777C71.0826 58.7831 66.6204 57.0129 62.6937 58.6061C58.767 60.1993 56.9821 64.6249 58.5885 68.5195Z" fill="url(#paint0_radial)"/>
<path d="M82.4527 63.766C83.6884 66.7618 87.1208 68.1235 90.1414 66.898C93.1619 65.6724 94.5349 62.2681 93.2992 59.2723C92.0635 56.2765 88.6311 54.9148 85.6105 56.1404C82.59 57.3659 81.217 60.7702 82.4527 63.766Z" fill="url(#paint1_radial)"/>
</g>
<defs>
<radialGradient id="paint0_radial" cx="0" cy="0" r="1" gradientUnits="userSpaceOnUse" gradientTransform="translate(65.5957 65.6995) rotate(158.011) scale(7.60259 7.5578)">
<stop stop-color="#FF5748"/>
<stop offset="1" stop-color="#ECAF8D" stop-opacity="0.16"/>
</radialGradient>
<radialGradient id="paint1_radial" cx="0" cy="0" r="1" gradientUnits="userSpaceOnUse" gradientTransform="translate(87.8429 61.5968) rotate(158.011) scale(5.84815 5.81369)">
<stop stop-color="#FF5748"/>
<stop offset="1" stop-color="#ECAF8D" stop-opacity="0"/>
</radialGradient>
</defs>
</svg>
