<svg width="149" height="149" viewBox="0 0 149 149" fill="none" xmlns="http://www.w3.org/2000/svg">
<path d="M149 74.5C149 115.6 115.6 149 74.5 149C33.4 149 0 115.6 0 74.5C0 33.4 33.4 0 74.5 0C115.6 0 149 33.4 149 74.5Z" fill="#F8F6F6"/>
<mask id="mask0" mask-type="alpha" maskUnits="userSpaceOnUse" x="0" y="0" width="149" height="149">
<path d="M149 74.5C149 115.6 115.6 149 74.5 149C33.4 149 0 115.6 0 74.5C0 33.4 33.4 0 74.5 0C115.6 0 149 33.4 149 74.5Z" fill="#F8F6F6"/>
</mask>
<g mask="url(#mask0)">
<path d="M116.801 -12.2079C116.801 -26.4728 105.284 -38 91.1753 -38H58.9271C44.6745 -38 33.1572 -26.4728 33.1572 -12.2079V33.6126C33.1572 47.8775 44.6745 59.4047 58.9271 59.4047H91.1753C105.428 59.4047 116.945 47.8775 116.945 33.6126V-12.2079H116.801Z" fill="#E0E0E0"/>
<path d="M113.632 -11.0553C113.632 -24.1674 102.979 -34.8301 89.878 -34.8301H60.2211C47.1202 -34.8301 36.4668 -24.1674 36.4668 -11.0553V31.163C36.4668 44.2752 47.1202 54.9379 60.2211 54.9379H89.878C102.979 54.9379 113.632 44.2752 113.632 31.163V-11.0553Z" fill="white"/>
<path d="M115.872 103.208C115.872 117.197 104.578 128.5 90.6017 128.5H59.5052C45.5291 128.5 34.2354 117.197 34.2354 103.208V74.5343C34.2354 60.5451 45.5291 49.2422 59.5052 49.2422H90.6017C104.578 49.2422 115.872 60.5451 115.872 74.5343V103.208Z" fill="white" stroke="#E4E4E4"/>
<path d="M109.315 74.2459C109.315 85.629 94.199 94.7067 75.6274 94.7067C57.0558 94.7067 41.9395 85.4849 41.9395 74.2459C41.9395 62.8628 57.0558 53.7852 75.6274 53.7852C94.199 53.7852 109.315 63.0069 109.315 74.2459Z" fill="white"/>
<path d="M96.7897 55.9462C96.2139 55.6581 95.494 55.514 94.7742 55.2258C94.1983 55.0817 93.6225 54.9376 92.9026 54.6494C92.3268 54.5054 91.607 54.3613 91.0311 54.2172C90.4552 54.0731 89.7354 53.929 89.0156 53.929C88.2957 53.7849 87.5759 53.6408 86.8561 53.6408C85.9923 53.4967 85.2725 53.4967 84.2647 53.3526C83.257 53.2085 82.2492 53.2085 81.2414 53.2085C80.0897 53.2085 78.794 53.0645 77.4983 53.0645C76.6345 53.0645 75.9147 53.0645 75.0509 53.0645C74.1871 53.0645 73.3233 53.0645 72.4595 53.0645C70.732 53.0645 69.0044 53.2085 67.4207 53.2085C65.8371 53.3526 64.3975 53.3526 63.1018 53.4967C61.3742 53.6408 59.9345 53.929 58.4949 54.2172C56.0475 54.6494 53.888 55.2258 52.1604 55.9462C51.4406 56.2344 50.7207 56.6667 50.0009 56.9549C49.569 57.2431 49.1371 57.5312 48.7052 57.8194C48.2733 58.1076 47.9854 58.3958 47.6975 58.6839C47.4095 58.9721 47.1216 59.2603 46.8337 59.5485C46.5457 59.8367 46.2578 60.1249 45.9699 60.5571C45.6819 60.9894 45.394 61.2776 45.25 61.7098C44.9621 62.1421 44.8182 62.7185 44.5302 63.1507C44.2423 63.8712 44.0983 64.5916 43.9544 65.3121C43.6664 66.753 43.5225 68.338 43.5225 69.923C43.5225 70.6434 43.5225 71.3639 43.5225 71.9402V82.0265C43.5225 81.306 43.5225 80.5856 43.5225 80.0092C43.5225 78.4242 43.6664 76.8393 43.9544 75.3984C44.0983 74.6779 44.2423 73.9575 44.5302 73.237C44.6742 72.8047 44.9621 72.2284 45.25 71.7961C45.394 71.3638 45.6819 71.0757 45.9699 70.6434C46.2578 70.3552 46.4018 69.9229 46.8337 69.6348C47.1216 69.3466 47.4095 69.0584 47.6975 68.7702C47.9854 68.4821 48.4173 68.1939 48.7052 67.9057C49.1371 67.6175 49.569 67.3293 50.0009 67.0412C50.5768 66.753 51.2966 66.3207 52.1604 66.0325C53.888 65.3121 56.0475 64.7357 58.4949 64.3035C59.9345 64.0153 61.5182 63.8712 63.1018 63.583C64.3975 63.4389 65.8371 63.2948 67.4207 63.2948C69.0044 63.1507 70.588 63.1507 72.4595 63.1507C73.3233 63.1507 74.1871 63.1507 75.0509 63.1507C75.9147 63.1507 76.7785 63.1507 77.4983 63.1507C78.794 63.1507 80.0897 63.1507 81.2414 63.2948C82.2492 63.2948 83.257 63.4389 84.2647 63.4389C85.1285 63.583 85.9923 63.583 86.8561 63.7271C87.5759 63.8712 88.2957 63.8712 89.0156 64.0153C89.7354 64.1594 90.3113 64.3035 91.0311 64.3035C91.7509 64.4475 92.3268 64.5916 92.9026 64.7357C93.6225 64.8798 94.1983 65.0239 94.7742 65.3121C95.494 65.6003 96.2139 65.7443 96.7897 66.0325C105.14 69.3466 106.579 75.2543 106.579 81.8824V71.7961C106.579 65.168 105.14 59.4044 96.7897 55.9462Z" fill="#F5F3F3"/>
<path d="M124 72.2282C124 73.2368 123.856 74.1013 123.712 75.11C123.568 75.9745 123.28 76.839 122.992 77.7036C122.704 78.5681 122.273 79.4327 121.841 80.1531C121.409 81.0176 120.833 81.7381 120.257 82.6026C119.681 83.3231 119.105 84.1876 118.385 84.9081C117.666 85.6285 116.802 86.4931 116.082 87.2135C115.218 87.934 114.21 88.7985 113.203 89.5189C112.051 90.3835 110.755 91.1039 109.46 91.8244C107.588 92.833 105.716 93.8416 103.557 94.5621C99.5259 96.1471 95.063 97.588 90.1682 98.4525C88.2966 98.7407 86.2811 99.0289 84.4096 99.317C83.1139 99.4611 81.6742 99.6052 80.3785 99.6052C79.2268 99.6052 78.0751 99.7493 76.9234 99.7493C76.3475 99.7493 75.9156 99.7493 75.3397 99.7493C74.7639 99.7493 74.188 99.7493 73.6121 99.7493C72.6044 99.7493 71.5966 99.7493 70.5889 99.6052C69.5811 99.6052 68.7173 99.4611 67.7096 99.4611C66.7018 99.317 65.838 99.317 64.8302 99.173C63.8225 99.0289 62.8147 98.8848 61.9509 98.7407C60.9432 98.5966 59.9354 98.4525 58.9277 98.1643C57.7759 97.8761 56.7682 97.7321 55.6165 97.4439C54.3208 97.1557 53.169 96.7234 51.8734 96.4353C50.2897 96.003 48.7061 95.4266 47.2665 94.8503C34.3096 89.8071 26.1035 81.4499 26.1035 71.94V82.0263C26.1035 91.5362 34.3096 99.8934 46.9785 104.937C48.4182 105.513 50.0018 106.089 51.5854 106.522C52.7371 106.954 54.0328 107.242 55.3285 107.53C56.3363 107.818 57.488 108.107 58.6397 108.251C59.6475 108.395 60.6553 108.683 61.663 108.827C62.6708 108.971 63.5346 109.115 64.5423 109.259C65.5501 109.403 66.4139 109.547 67.4216 109.547C68.4294 109.692 69.2932 109.692 70.3009 109.692C71.3087 109.692 72.3165 109.836 73.3242 109.836C73.9001 109.836 74.4759 109.836 75.0518 109.836C75.6277 109.836 76.0596 109.836 76.6354 109.836C77.7871 109.836 78.9389 109.836 80.0906 109.692C81.5303 109.547 82.8259 109.547 84.1216 109.403C86.1371 109.115 88.0087 108.971 89.8803 108.539C94.7751 107.674 99.238 106.377 103.269 104.648C105.285 103.784 107.3 102.919 109.172 101.911C110.467 101.19 111.763 100.326 112.915 99.6052C113.923 98.8848 114.93 98.1643 115.794 97.2998C116.658 96.5793 117.378 95.8589 118.098 94.9944C118.817 94.2739 119.393 93.4094 119.969 92.6889C120.545 91.9685 121.121 91.1039 121.553 90.2394C121.985 89.3749 122.416 88.6544 122.704 87.7899C122.992 86.9253 123.28 86.0608 123.424 85.1962C123.568 84.3317 123.712 83.3231 123.712 82.3145C123.712 82.1704 123.712 82.0263 123.712 81.8822V71.7959C124 72.0841 124 72.0841 124 72.2282Z" fill="#C2C2C2"/>
<path d="M26.6035 71.7962C26.6035 64.0657 26.9118 57.3214 32.9682 52.4268C36.0156 49.964 40.5561 47.9389 47.341 46.532C54.1243 45.1254 63.1209 44.3428 75.0518 44.3428C96.8451 44.3428 108.938 47.4805 115.584 52.4562C122.177 57.3917 123.5 64.2111 123.5 71.9403C123.5 79.3922 118.207 86.2458 109.427 91.2645C100.662 96.2751 88.5137 99.3937 75.0518 99.3937C61.5899 99.3937 49.442 96.2751 40.6769 91.2469C31.8986 86.2111 26.6035 79.3218 26.6035 71.7962ZM43.0233 71.9403C43.0233 77.373 46.7142 82.2278 52.4979 85.6974C58.2924 89.1734 66.2665 91.316 75.0518 91.316C83.8371 91.316 91.8113 89.1734 97.6057 85.6974C103.389 82.2278 107.08 77.373 107.08 71.9403C107.08 66.7059 106.21 61.7856 101.652 58.2182C97.1391 54.6868 89.1093 52.5645 75.0518 52.5645C59.6444 52.5645 51.5924 54.6808 47.4107 58.2308C43.1823 61.8205 43.0233 66.7785 43.0233 71.9403Z" fill="white" stroke="#E4E4E4"/>
<path d="M59.5032 41.6816H45.3945V48.742H59.5032V41.6816Z" fill="white"/>
<path d="M104.709 41.6816H90.6006V48.742H104.709V41.6816Z" fill="white"/>
<path d="M75.8834 91.5251C75.8073 91.5381 75.731 91.5499 75.6546 91.5606C75.2343 91.6194 74.8102 91.6439 74.3862 91.6339C74.2706 91.6311 74.155 91.6258 74.0395 91.618L73.8412 91.6045C70.3642 91.3678 66.9149 90.8148 63.5342 89.952L64.7411 89.6782C71.4658 88.1526 78.446 88.2464 85.129 89.952L84.0918 90.2167C81.4016 90.9033 78.6539 91.3413 75.8834 91.5251Z" fill="#F7DC95"/>
<path d="M73.5181 74.1809C74.4206 75.0782 76.1223 75.1573 76.8554 74.5803C79.6095 72.2236 77.6143 69.7276 76.1987 67.9103C75.6192 67.2316 75.2177 66.6019 74.8494 65.8516C74.4811 65.1013 74.4688 64.449 75.057 63.7024C75.7114 62.7145 77.0449 62.0432 78.7012 61.5906C79.546 61.304 80.101 60.6781 79.7327 59.9277C79.2195 59.0078 77.8615 58.3744 76.8056 58.7327C74.3376 59.3512 72.2711 60.5994 71.0948 62.0926C70.1297 63.5142 70.0879 65.0601 71.0026 66.6098C71.5158 67.5298 72.2402 68.3781 72.7865 69.1774C74.0573 70.8251 74.7817 71.6734 73.5931 72.5143C72.7483 72.8009 72.9055 73.6229 73.5181 74.1809Z" fill="#BBBC7B"/>
<path d="M85.4123 82.1001C84.1079 81.8487 83.2281 80.3706 83.4477 79.3536C84.4579 75.4151 87.8435 75.6523 90.2911 75.7918C91.2291 75.8896 92.0351 75.858 92.9438 75.7216C93.8524 75.5852 94.4972 75.1903 94.9512 74.1978C95.6104 72.9955 95.6393 71.381 95.3017 69.6128C95.1842 68.6763 95.5357 67.7886 96.4444 67.6522C97.5875 67.5402 98.8481 68.3648 98.995 69.5355C99.5526 72.1354 99.3042 74.7669 98.3961 76.7519C97.4586 78.5028 95.9639 79.5024 94.0147 79.6459C92.8716 79.7579 91.6991 79.6357 90.6585 79.6428C88.4454 79.5278 87.2729 79.4056 87.0095 80.9957C87.127 81.9322 86.2478 82.3027 85.4123 82.1001Z" fill="#BBBC7B"/>
<path d="M64.5904 82.7259C65.5112 83.121 66.246 82.296 66.1831 81.3459C65.8293 77.5922 63.4755 76.2203 61.7767 75.2017C61.1217 74.8483 60.569 74.4483 59.9547 73.9132C59.3404 73.3781 58.9304 72.7497 58.7037 71.7112C58.354 70.4028 58.4744 69.0426 58.8607 67.7242C59.0231 66.9975 58.858 66.094 58.2437 65.559C57.4657 64.9355 56.5253 65.0388 56.3223 65.9472C55.712 67.8574 55.6545 70.1676 56.1077 72.2445C56.6016 74.1397 57.5447 75.6665 58.8755 76.69C59.6536 77.3135 60.4722 77.7552 61.1887 78.2437C62.7238 79.1738 63.5425 79.6156 63.5857 81.0641C63.4234 81.7908 63.8949 82.5542 64.5904 82.7259Z" fill="#BBBC7B"/>
</g>
</svg>
