<svg width="149" height="149" viewBox="0 0 149 149" fill="none" xmlns="http://www.w3.org/2000/svg">
<path d="M149 74.5C149 115.6 115.6 149 74.5 149C33.4 149 0 115.6 0 74.5C0 33.4 33.4 0 74.5 0C115.6 0 149 33.4 149 74.5Z" fill="#F8F6F6"/>
<mask id="mask0" mask-type="alpha" maskUnits="userSpaceOnUse" x="0" y="0" width="149" height="149">
<path d="M149 74.5C149 115.6 115.6 149 74.5 149C33.4 149 0 115.6 0 74.5C0 33.4 33.4 0 74.5 0C115.6 0 149 33.4 149 74.5Z" fill="#F8F6F6"/>
</mask>
<g mask="url(#mask0)">
<path d="M72.089 -5V46.8326C69.3089 53.4465 67.4423 60.4082 66.5405 67.5258L66.5 67.8458L82.3994 57.7997L76.9795 -5H72.089Z" fill="#CC8166"/>
<path d="M73.5 -5L81.5834 58C60.6245 68.5066 46.8767 81.7863 35 103.5L24.6041 106.523C22.4687 107.143 20.9413 109.118 21.3716 111.3C21.9589 114.278 23.1864 117.054 24.6465 119.615C26.8954 123.56 28.1352 127.992 28.2945 132.53C28.499 138.355 29.7091 144.225 32.6793 148.196L41.2603 151.232C42.2081 151.568 43.0026 150.452 42.3755 149.666L38.9669 145.394C39.6656 137.689 41.7614 132.086 41.7614 126.482C43.1587 120.178 47.3505 113.874 53.6382 107.57C69.8011 94.7415 88.5609 82.5635 107.414 71.0364C108.746 70.2223 109.624 68.8354 109.786 67.2831L117.214 -3.79968L73.5 -5Z" fill="#E09980"/>
<path d="M67.0003 97C67.0002 102.635 66.0422 112.222 67.1339 122.155C67.8438 128.615 67.6601 135.269 65.1954 141.282L64.076 144.013C62.6409 147.514 64.3347 151.361 68.0844 151.867C73.9984 152.666 81.9112 152.785 88.3138 152.426C93.1449 152.155 97.9912 151.856 102.82 152.168L117.21 153.099C119.306 153.099 121.402 152.399 122.101 150.297C122.799 148.196 120.703 146.795 115.114 146.795C106.739 143.566 98.9584 139.741 91.2237 136.418C90.0527 135.915 89.3123 134.736 89.4047 133.465C90.2115 122.369 92.143 112.038 93.4569 101.5C94.1555 94.4956 98.0963 85.4471 96.0004 78L67.0003 97Z" fill="#CC8166"/>
<path d="M110 63.497C110 69.2407 105.29 73.994 99.5981 73.994C93.7103 74.1921 89 69.4387 89 63.497C89 57.7534 93.7103 53 99.4019 53C105.29 53 110 57.7534 110 63.497Z" fill="url(#paint0_radial)"/>
<path d="M84 131.498C84 134.507 81.5327 136.997 78.5514 136.997C75.4673 137.101 73 134.611 73 131.498C73 128.49 75.4673 126 78.4486 126C81.5327 126 84 128.49 84 131.498Z" fill="url(#paint1_radial)"/>
<path d="M46 108.998C46 112.28 43.3084 114.997 40.0561 114.997C36.6916 115.11 34 112.394 34 108.998C34 105.716 36.6916 103 39.9439 103C43.3084 103 46 105.716 46 108.998Z" fill="url(#paint2_radial)"/>
</g>
<defs>
<radialGradient id="paint0_radial" cx="0" cy="0" r="1" gradientUnits="userSpaceOnUse" gradientTransform="translate(99.4527 63.5485) scale(10.4529 10.5485)">
<stop offset="0.0832259" stop-color="#EA2154" stop-opacity="0.57"/>
<stop offset="0.9745" stop-color="#E09980"/>
</radialGradient>
<radialGradient id="paint1_radial" cx="0" cy="0" r="1" gradientUnits="userSpaceOnUse" gradientTransform="translate(78.4752 131.525) scale(5.47533 5.52541)">
<stop offset="0.0832259" stop-color="#EA2154" stop-opacity="0.57"/>
<stop offset="0.9745" stop-color="#CC8166"/>
</radialGradient>
<radialGradient id="paint2_radial" cx="0" cy="0" r="1" gradientUnits="userSpaceOnUse" gradientTransform="translate(39.973 109.028) scale(5.97308 6.02772)">
<stop offset="0.0832259" stop-color="#EA2154" stop-opacity="0.74"/>
<stop offset="0.9745" stop-color="#CC8166" stop-opacity="0"/>
</radialGradient>
</defs>
</svg>
