<svg width="758" height="32" viewBox="0 0 758 32" fill="none" xmlns="http://www.w3.org/2000/svg">
<g clip-path="url(#clip0)">
<path d="M682.489 17.7271C682.857 17.8696 683.168 17.7271 683.48 17.5561C685.405 16.5586 687.047 15.1906 688.859 14.0221C694.153 10.6021 699.844 7.98012 705.817 5.98513C710.064 4.56013 714.396 3.39163 718.784 2.53663C723.144 1.68163 727.56 1.08313 732.005 0.684132C737.894 0.142633 743.755 -0.0853665 749.672 0.0286333C751.427 0.0571333 753.211 0.199633 754.966 0.313633C756.523 0.427633 757.486 1.19713 757.769 2.47963C757.882 2.96413 757.797 3.42013 757.655 3.87613C757.316 4.36063 756.834 4.38913 756.325 4.30363C753.805 3.90463 751.285 3.64813 748.737 3.67663C747.18 3.67663 745.623 3.50563 744.066 3.50563C741.32 3.53413 738.602 3.67663 735.856 3.70513C733.591 3.70513 731.326 3.96163 729.089 4.16113C725.324 4.50313 721.558 4.93063 717.821 5.58613C714.537 6.15613 711.253 6.86862 708.026 7.72362C705.279 8.43612 702.618 9.49062 699.929 10.4881C697.38 11.4286 695.002 12.7396 692.596 13.9936C691.662 14.4781 690.699 14.9341 689.793 15.5041C688.123 16.5586 686.396 17.5561 684.895 18.8386C683.649 19.8931 682.63 21.1756 681.554 22.3726C679.799 24.3106 677.761 25.9066 675.411 27.0751C673.146 28.2151 670.796 29.0701 668.276 29.4691C664.964 30.0106 661.68 29.9251 658.339 29.6686C656.64 29.5261 654.97 29.2696 653.3 28.9561C651.12 28.5571 648.94 28.0726 646.816 27.2746C645.599 26.8186 644.438 26.3341 643.277 25.8211C640.871 24.6241 638.606 23.1991 636.511 21.4891C635.718 20.8621 635.888 19.7791 636.822 19.5511C637.389 19.4086 637.898 19.1236 638.408 18.8671C638.776 19.0381 639.172 19.0666 639.597 19.0666C651.856 19.0666 664.143 19.0666 676.402 19.0666C678.129 19.0666 679.771 18.6391 681.356 18.0406C681.696 17.8696 682.092 17.7556 682.489 17.7271Z" fill="#C9C7C1"/>
<path d="M682.487 17.7266C682.402 18.1541 682.006 18.1256 681.723 18.2396C680.024 18.9521 678.297 19.3796 676.457 19.3796C664.481 19.3796 652.477 19.3796 640.502 19.4081C639.879 19.4081 639.284 19.3796 638.661 19.4081C638.095 19.4366 638.123 19.2371 638.407 18.8666C639.681 17.7551 641.096 16.8146 642.54 15.9026C645.371 14.0501 648.344 12.4541 651.458 11.1716C654.657 9.86061 657.941 8.89161 661.367 8.52111C663.292 8.32161 665.217 8.26461 667.143 8.54961C669.634 8.92011 671.984 9.74661 674.192 10.9151C677.137 12.4541 679.741 14.4206 681.865 16.9856C682.091 17.1851 682.289 17.4701 682.487 17.7266Z" fill="white"/>
<path d="M643.276 25.8207C643.785 25.9062 644.238 26.1912 644.72 26.3622C646.277 26.8752 647.862 27.3027 649.448 27.7017C650.439 27.9582 651.458 28.2147 652.449 28.4142C654.6 28.8417 656.752 29.1552 658.932 29.3832C660.801 29.5827 662.697 29.5542 664.594 29.4972C666.576 29.4402 668.501 29.0982 670.426 28.6137C672.522 28.1007 674.475 27.2742 676.287 26.1912C678.354 24.9657 680.251 23.5122 681.751 21.5457C683.223 19.6647 684.979 18.0687 687.045 16.7862C688.546 15.8742 689.99 14.8482 691.575 14.0502C694.01 12.7962 696.388 11.4852 698.908 10.4307C700.238 9.88918 701.626 9.51868 702.956 8.94869C704.485 8.29319 706.099 7.83719 707.713 7.40969C709.355 6.98219 710.968 6.49769 712.639 6.21269C713.8 6.01319 714.989 5.72819 716.149 5.50019C718.075 5.10119 720 4.81619 721.925 4.55969C724.218 4.27469 726.483 3.93269 728.776 3.76169C730.305 3.61919 731.834 3.53369 733.363 3.44819C737.383 3.24869 741.403 3.07769 745.452 3.16319C748.792 3.24869 752.133 3.30569 755.446 3.73319C756.153 3.81869 756.861 4.18919 757.597 3.84719C757.003 5.01569 756.097 5.50019 754.851 5.38619C753.124 5.21519 751.369 5.12969 749.642 4.95869C744.942 4.55969 740.214 4.64519 735.514 4.75919C731.806 4.87319 728.097 5.18669 724.388 5.64269C720.877 6.07019 717.395 6.55469 713.941 7.29569C711.082 7.89419 708.25 8.60669 705.476 9.49018C703.013 10.2597 700.55 11.0862 698.172 12.0837C695.907 13.0527 693.698 14.0502 691.547 15.2472C689.395 16.4442 687.328 17.6982 685.318 19.1517C684.101 20.0352 683.223 21.2037 682.317 22.3437C679.543 25.8492 676.089 28.4712 671.955 30.0957C668.615 31.3782 665.132 31.6632 661.593 31.4352C657.375 31.1502 653.326 30.1527 649.363 28.6992C647.381 27.9582 645.484 26.9892 643.587 26.0772C643.474 26.0202 643.389 25.9062 643.276 25.8207Z" fill="#AAA9A6"/>
</g>
<g clip-path="url(#clip1)">
<path d="M523.489 17.7271C523.857 17.8696 524.168 17.7271 524.48 17.5561C526.405 16.5586 528.047 15.1906 529.859 14.0221C535.153 10.6021 540.844 7.98012 546.817 5.98513C551.064 4.56013 555.396 3.39163 559.784 2.53663C564.144 1.68163 568.56 1.08313 573.005 0.684132C578.894 0.142633 584.755 -0.0853665 590.672 0.0286333C592.427 0.0571333 594.211 0.199633 595.966 0.313633C597.523 0.427633 598.486 1.19713 598.769 2.47963C598.882 2.96413 598.797 3.42013 598.655 3.87613C598.316 4.36063 597.834 4.38913 597.325 4.30363C594.805 3.90463 592.285 3.64813 589.737 3.67663C588.18 3.67663 586.623 3.50563 585.066 3.50563C582.32 3.53413 579.602 3.67663 576.856 3.70513C574.591 3.70513 572.326 3.96163 570.089 4.16113C566.324 4.50313 562.558 4.93063 558.821 5.58613C555.537 6.15613 552.253 6.86862 549.026 7.72362C546.279 8.43612 543.618 9.49062 540.929 10.4881C538.38 11.4286 536.002 12.7396 533.596 13.9936C532.662 14.4781 531.699 14.9341 530.793 15.5041C529.123 16.5586 527.396 17.5561 525.895 18.8386C524.649 19.8931 523.63 21.1756 522.554 22.3726C520.799 24.3106 518.761 25.9066 516.411 27.0751C514.146 28.2151 511.796 29.0701 509.276 29.4691C505.964 30.0106 502.68 29.9251 499.339 29.6686C497.64 29.5261 495.97 29.2696 494.3 28.9561C492.12 28.5571 489.94 28.0726 487.816 27.2746C486.599 26.8186 485.438 26.3341 484.277 25.8211C481.871 24.6241 479.606 23.1991 477.511 21.4891C476.718 20.8621 476.888 19.7791 477.822 19.5511C478.389 19.4086 478.898 19.1236 479.408 18.8671C479.776 19.0381 480.172 19.0666 480.597 19.0666C492.856 19.0666 505.143 19.0666 517.402 19.0666C519.129 19.0666 520.771 18.6391 522.356 18.0406C522.696 17.8696 523.092 17.7556 523.489 17.7271Z" fill="#C9C7C1"/>
<path d="M523.487 17.7266C523.402 18.1541 523.006 18.1256 522.723 18.2396C521.024 18.9521 519.297 19.3796 517.457 19.3796C505.481 19.3796 493.477 19.3796 481.502 19.4081C480.879 19.4081 480.284 19.3796 479.661 19.4081C479.095 19.4366 479.123 19.2371 479.407 18.8666C480.681 17.7551 482.096 16.8146 483.54 15.9026C486.371 14.0501 489.344 12.4541 492.458 11.1716C495.657 9.86061 498.941 8.89161 502.367 8.52111C504.292 8.32161 506.217 8.26461 508.143 8.54961C510.634 8.92011 512.984 9.74661 515.192 10.9151C518.137 12.4541 520.741 14.4206 522.865 16.9856C523.091 17.1851 523.289 17.4701 523.487 17.7266Z" fill="white"/>
<path d="M484.276 25.8207C484.785 25.9062 485.238 26.1912 485.72 26.3622C487.277 26.8752 488.862 27.3027 490.448 27.7017C491.439 27.9582 492.458 28.2147 493.449 28.4142C495.6 28.8417 497.752 29.1552 499.932 29.3832C501.801 29.5827 503.697 29.5542 505.594 29.4972C507.576 29.4402 509.501 29.0982 511.426 28.6137C513.522 28.1007 515.475 27.2742 517.287 26.1912C519.354 24.9657 521.251 23.5122 522.751 21.5457C524.223 19.6647 525.979 18.0687 528.045 16.7862C529.546 15.8742 530.99 14.8482 532.575 14.0502C535.01 12.7962 537.388 11.4852 539.908 10.4307C541.238 9.88918 542.626 9.51868 543.956 8.94869C545.485 8.29319 547.099 7.83719 548.713 7.40969C550.355 6.98219 551.968 6.49769 553.639 6.21269C554.8 6.01319 555.989 5.72819 557.149 5.50019C559.075 5.10119 561 4.81619 562.925 4.55969C565.218 4.27469 567.483 3.93269 569.776 3.76169C571.305 3.61919 572.834 3.53369 574.363 3.44819C578.383 3.24869 582.403 3.07769 586.452 3.16319C589.792 3.24869 593.133 3.30569 596.446 3.73319C597.153 3.81869 597.861 4.18919 598.597 3.84719C598.003 5.01569 597.097 5.50019 595.851 5.38619C594.124 5.21519 592.369 5.12969 590.642 4.95869C585.942 4.55969 581.214 4.64519 576.514 4.75919C572.806 4.87319 569.097 5.18669 565.388 5.64269C561.877 6.07019 558.395 6.55469 554.941 7.29569C552.082 7.89419 549.25 8.60669 546.476 9.49018C544.013 10.2597 541.55 11.0862 539.172 12.0837C536.907 13.0527 534.698 14.0502 532.547 15.2472C530.395 16.4442 528.328 17.6982 526.318 19.1517C525.101 20.0352 524.223 21.2037 523.317 22.3437C520.543 25.8492 517.089 28.4712 512.955 30.0957C509.615 31.3782 506.132 31.6632 502.593 31.4352C498.375 31.1502 494.326 30.1527 490.363 28.6992C488.381 27.9582 486.484 26.9892 484.587 26.0772C484.474 26.0202 484.389 25.9062 484.276 25.8207Z" fill="#AAA9A6"/>
</g>
<g clip-path="url(#clip2)">
<path d="M46.4821 17.7271C46.8501 17.8696 47.1616 17.7271 47.473 17.5561C49.3982 16.5586 51.0402 15.1906 52.8522 14.0221C58.1464 10.6021 63.837 7.98012 69.8107 5.98513C74.0574 4.56013 78.389 3.39163 82.7773 2.53663C87.1372 1.68163 91.5538 1.08313 95.9987 0.684132C101.887 0.142633 107.748 -0.0853665 113.665 0.0286333C115.42 0.0571333 117.204 0.199633 118.959 0.313633C120.516 0.427633 121.479 1.19713 121.762 2.47963C121.875 2.96413 121.79 3.42013 121.649 3.87613C121.309 4.36063 120.828 4.38913 120.318 4.30363C117.798 3.90463 115.279 3.64813 112.731 3.67663C111.174 3.67663 109.616 3.50563 108.059 3.50563C105.313 3.53413 102.595 3.67663 99.8491 3.70513C97.5841 3.70513 95.3192 3.96163 93.0826 4.16113C89.3172 4.50313 85.5518 4.93063 81.8147 5.58613C78.5306 6.15613 75.2465 6.86862 72.019 7.72362C69.2728 8.43612 66.6115 9.49062 63.9219 10.4881C61.3739 11.4286 58.9957 12.7396 56.5893 13.9936C55.655 14.4781 54.6924 14.9341 53.7864 15.5041C52.1161 16.5586 50.3891 17.5561 48.8886 18.8386C47.6429 19.8931 46.6237 21.1756 45.5478 22.3726C43.7925 24.3106 41.7541 25.9066 39.4043 27.0751C37.1393 28.2151 34.7895 29.0701 32.2698 29.4691C28.9574 30.0106 25.6732 29.9251 22.3325 29.6686C20.6338 29.5261 18.9634 29.2696 17.2931 28.9561C15.1131 28.5571 12.9331 28.0726 10.8098 27.2746C9.59237 26.8186 8.4316 26.3341 7.27084 25.8211C4.86437 24.6241 2.59946 23.1991 0.504419 21.4891C-0.2883 20.8621 -0.118432 19.7791 0.815844 19.5511C1.38207 19.4086 1.89168 19.1236 2.40128 18.8671C2.76933 19.0381 3.16569 19.0666 3.59036 19.0666C15.8492 19.0666 28.1363 19.0666 40.3952 19.0666C42.1221 19.0666 43.7642 18.6391 45.3496 18.0406C45.6894 17.8696 46.0857 17.7556 46.4821 17.7271Z" fill="#C9C7C1"/>
<path d="M46.4808 17.7266C46.3959 18.1541 45.9995 18.1256 45.7164 18.2396C44.0177 18.9521 42.2907 19.3796 40.4505 19.3796C28.4748 19.3796 16.4708 19.3796 4.49504 19.4081C3.87219 19.4081 3.27765 19.3796 2.6548 19.4081C2.08857 19.4366 2.11688 19.2371 2.39999 18.8666C3.67401 17.7551 5.08958 16.8146 6.53346 15.9026C9.36459 14.0501 12.3373 12.4541 15.4515 11.1716C18.6507 9.86061 21.9348 8.89161 25.3605 8.52111C27.2857 8.32161 29.2109 8.26461 31.136 8.54961C33.6275 8.92011 35.9773 9.74661 38.1856 10.9151C41.13 12.4541 43.7346 14.4206 45.858 16.9856C46.0845 17.1851 46.2826 17.4701 46.4808 17.7266Z" fill="white"/>
<path d="M7.26929 25.8207C7.77889 25.9062 8.23187 26.1912 8.71317 26.3622C10.2703 26.8752 11.8557 27.3027 13.4412 27.7017C14.4321 27.9582 15.4513 28.2147 16.4422 28.4142C18.5938 28.8417 20.7455 29.1552 22.9255 29.3832C24.794 29.5827 26.6909 29.5542 28.5878 29.4972C30.5696 29.4402 32.4947 29.0982 34.4199 28.6137C36.5149 28.1007 38.4684 27.2742 40.2804 26.1912C42.3471 24.9657 44.244 23.5122 45.7445 21.5457C47.2166 19.6647 48.972 18.0687 51.0387 16.7862C52.5392 15.8742 53.9831 14.8482 55.5685 14.0502C58.0033 12.7962 60.3814 11.4852 62.9011 10.4307C64.2318 9.88918 65.619 9.51868 66.9497 8.94869C68.4785 8.29319 70.0922 7.83719 71.706 7.40969C73.3481 6.98219 74.9618 6.49769 76.6322 6.21269C77.7929 6.01319 78.982 5.72819 80.1428 5.50019C82.068 5.10119 83.9931 4.81619 85.9183 4.55969C88.2115 4.27469 90.4764 3.93269 92.7697 3.76169C94.2985 3.61919 95.8273 3.53369 97.3561 3.44819C101.376 3.24869 105.397 3.07769 109.445 3.16319C112.786 3.24869 116.127 3.30569 119.439 3.73319C120.147 3.81869 120.855 4.18919 121.591 3.84719C120.996 5.01569 120.09 5.50019 118.844 5.38619C117.117 5.21519 115.362 5.12969 113.635 4.95869C108.935 4.55969 104.207 4.64519 99.5078 4.75919C95.799 4.87319 92.0902 5.18669 88.3814 5.64269C84.8708 6.07019 81.3885 6.55469 77.9345 7.29569C75.075 7.89419 72.2439 8.60669 69.4694 9.49018C67.0063 10.2597 64.5432 11.0862 62.1651 12.0837C59.9001 13.0527 57.6919 14.0502 55.5402 15.2472C53.3885 16.4442 51.3218 17.6982 49.3117 19.1517C48.0943 20.0352 47.2166 21.2037 46.3107 22.3437C43.5362 25.8492 40.0822 28.4712 35.9487 30.0957C32.608 31.3782 29.1257 31.6632 25.5868 31.4352C21.3684 31.1502 17.3198 30.1527 13.3562 28.6992C11.3744 27.9582 9.47757 26.9892 7.58071 26.0772C7.46747 26.0202 7.38253 25.9062 7.26929 25.8207Z" fill="#AAA9A6"/>
</g>
<g clip-path="url(#clip3)">
<path d="M364.489 17.7271C364.857 17.8696 365.168 17.7271 365.48 17.5561C367.405 16.5586 369.047 15.1906 370.859 14.0221C376.153 10.6021 381.844 7.98012 387.817 5.98513C392.064 4.56013 396.396 3.39163 400.784 2.53663C405.144 1.68163 409.56 1.08313 414.005 0.684132C419.894 0.142633 425.755 -0.0853665 431.672 0.0286333C433.427 0.0571333 435.211 0.199633 436.966 0.313633C438.523 0.427633 439.486 1.19713 439.769 2.47963C439.882 2.96413 439.797 3.42013 439.655 3.87613C439.316 4.36063 438.834 4.38913 438.325 4.30363C435.805 3.90463 433.285 3.64813 430.737 3.67663C429.18 3.67663 427.623 3.50563 426.066 3.50563C423.32 3.53413 420.602 3.67663 417.856 3.70513C415.591 3.70513 413.326 3.96163 411.089 4.16113C407.324 4.50313 403.558 4.93063 399.821 5.58613C396.537 6.15613 393.253 6.86862 390.026 7.72362C387.279 8.43612 384.618 9.49062 381.929 10.4881C379.38 11.4286 377.002 12.7396 374.596 13.9936C373.662 14.4781 372.699 14.9341 371.793 15.5041C370.123 16.5586 368.396 17.5561 366.895 18.8386C365.649 19.8931 364.63 21.1756 363.554 22.3726C361.799 24.3106 359.761 25.9066 357.411 27.0751C355.146 28.2151 352.796 29.0701 350.276 29.4691C346.964 30.0106 343.68 29.9251 340.339 29.6686C338.64 29.5261 336.97 29.2696 335.3 28.9561C333.12 28.5571 330.94 28.0726 328.816 27.2746C327.599 26.8186 326.438 26.3341 325.277 25.8211C322.871 24.6241 320.606 23.1991 318.511 21.4891C317.718 20.8621 317.888 19.7791 318.822 19.5511C319.389 19.4086 319.898 19.1236 320.408 18.8671C320.776 19.0381 321.172 19.0666 321.597 19.0666C333.856 19.0666 346.143 19.0666 358.402 19.0666C360.129 19.0666 361.771 18.6391 363.356 18.0406C363.696 17.8696 364.092 17.7556 364.489 17.7271Z" fill="#C9C7C1"/>
<path d="M364.487 17.7266C364.402 18.1541 364.006 18.1256 363.723 18.2396C362.024 18.9521 360.297 19.3796 358.457 19.3796C346.481 19.3796 334.477 19.3796 322.502 19.4081C321.879 19.4081 321.284 19.3796 320.661 19.4081C320.095 19.4366 320.123 19.2371 320.407 18.8666C321.681 17.7551 323.096 16.8146 324.54 15.9026C327.371 14.0501 330.344 12.4541 333.458 11.1716C336.657 9.86061 339.941 8.89161 343.367 8.52111C345.292 8.32161 347.217 8.26461 349.143 8.54961C351.634 8.92011 353.984 9.74661 356.192 10.9151C359.137 12.4541 361.741 14.4206 363.865 16.9856C364.091 17.1851 364.289 17.4701 364.487 17.7266Z" fill="white"/>
<path d="M325.276 25.8207C325.785 25.9062 326.238 26.1912 326.72 26.3622C328.277 26.8752 329.862 27.3027 331.448 27.7017C332.439 27.9582 333.458 28.2147 334.449 28.4142C336.6 28.8417 338.752 29.1552 340.932 29.3832C342.801 29.5827 344.697 29.5542 346.594 29.4972C348.576 29.4402 350.501 29.0982 352.426 28.6137C354.522 28.1007 356.475 27.2742 358.287 26.1912C360.354 24.9657 362.251 23.5122 363.751 21.5457C365.223 19.6647 366.979 18.0687 369.045 16.7862C370.546 15.8742 371.99 14.8482 373.575 14.0502C376.01 12.7962 378.388 11.4852 380.908 10.4307C382.238 9.88918 383.626 9.51868 384.956 8.94869C386.485 8.29319 388.099 7.83719 389.713 7.40969C391.355 6.98219 392.968 6.49769 394.639 6.21269C395.8 6.01319 396.989 5.72819 398.149 5.50019C400.075 5.10119 402 4.81619 403.925 4.55969C406.218 4.27469 408.483 3.93269 410.776 3.76169C412.305 3.61919 413.834 3.53369 415.363 3.44819C419.383 3.24869 423.403 3.07769 427.452 3.16319C430.792 3.24869 434.133 3.30569 437.446 3.73319C438.153 3.81869 438.861 4.18919 439.597 3.84719C439.003 5.01569 438.097 5.50019 436.851 5.38619C435.124 5.21519 433.369 5.12969 431.642 4.95869C426.942 4.55969 422.214 4.64519 417.514 4.75919C413.806 4.87319 410.097 5.18669 406.388 5.64269C402.877 6.07019 399.395 6.55469 395.941 7.29569C393.082 7.89419 390.25 8.60669 387.476 9.49018C385.013 10.2597 382.55 11.0862 380.172 12.0837C377.907 13.0527 375.698 14.0502 373.547 15.2472C371.395 16.4442 369.328 17.6982 367.318 19.1517C366.101 20.0352 365.223 21.2037 364.317 22.3437C361.543 25.8492 358.089 28.4712 353.955 30.0957C350.615 31.3782 347.132 31.6632 343.593 31.4352C339.375 31.1502 335.326 30.1527 331.363 28.6992C329.381 27.9582 327.484 26.9892 325.587 26.0772C325.474 26.0202 325.389 25.9062 325.276 25.8207Z" fill="#AAA9A6"/>
</g>
<g clip-path="url(#clip4)">
<path d="M205.489 17.7271C205.857 17.8696 206.168 17.7271 206.48 17.5561C208.405 16.5586 210.047 15.1906 211.859 14.0221C217.153 10.6021 222.844 7.98012 228.817 5.98513C233.064 4.56013 237.396 3.39163 241.784 2.53663C246.144 1.68163 250.56 1.08313 255.005 0.684132C260.894 0.142633 266.755 -0.0853665 272.672 0.0286333C274.427 0.0571333 276.211 0.199633 277.966 0.313633C279.523 0.427633 280.486 1.19713 280.769 2.47963C280.882 2.96413 280.797 3.42013 280.655 3.87613C280.316 4.36063 279.834 4.38913 279.325 4.30363C276.805 3.90463 274.285 3.64813 271.737 3.67663C270.18 3.67663 268.623 3.50563 267.066 3.50563C264.32 3.53413 261.602 3.67663 258.856 3.70513C256.591 3.70513 254.326 3.96163 252.089 4.16113C248.324 4.50313 244.558 4.93063 240.821 5.58613C237.537 6.15613 234.253 6.86862 231.026 7.72362C228.279 8.43612 225.618 9.49062 222.929 10.4881C220.38 11.4286 218.002 12.7396 215.596 13.9936C214.662 14.4781 213.699 14.9341 212.793 15.5041C211.123 16.5586 209.396 17.5561 207.895 18.8386C206.649 19.8931 205.63 21.1756 204.554 22.3726C202.799 24.3106 200.761 25.9066 198.411 27.0751C196.146 28.2151 193.796 29.0701 191.276 29.4691C187.964 30.0106 184.68 29.9251 181.339 29.6686C179.64 29.5261 177.97 29.2696 176.3 28.9561C174.12 28.5571 171.94 28.0726 169.816 27.2746C168.599 26.8186 167.438 26.3341 166.277 25.8211C163.871 24.6241 161.606 23.1991 159.511 21.4891C158.718 20.8621 158.888 19.7791 159.822 19.5511C160.389 19.4086 160.898 19.1236 161.408 18.8671C161.776 19.0381 162.172 19.0666 162.597 19.0666C174.856 19.0666 187.143 19.0666 199.402 19.0666C201.129 19.0666 202.771 18.6391 204.356 18.0406C204.696 17.8696 205.092 17.7556 205.489 17.7271Z" fill="#C9C7C1"/>
<path d="M205.487 17.7266C205.402 18.1541 205.006 18.1256 204.723 18.2396C203.024 18.9521 201.297 19.3796 199.457 19.3796C187.481 19.3796 175.477 19.3796 163.502 19.4081C162.879 19.4081 162.284 19.3796 161.661 19.4081C161.095 19.4366 161.123 19.2371 161.407 18.8666C162.681 17.7551 164.096 16.8146 165.54 15.9026C168.371 14.0501 171.344 12.4541 174.458 11.1716C177.657 9.86061 180.941 8.89161 184.367 8.52111C186.292 8.32161 188.217 8.26461 190.143 8.54961C192.634 8.92011 194.984 9.74661 197.192 10.9151C200.137 12.4541 202.741 14.4206 204.865 16.9856C205.091 17.1851 205.289 17.4701 205.487 17.7266Z" fill="white"/>
<path d="M166.276 25.8207C166.785 25.9062 167.238 26.1912 167.72 26.3622C169.277 26.8752 170.862 27.3027 172.448 27.7017C173.439 27.9582 174.458 28.2147 175.449 28.4142C177.6 28.8417 179.752 29.1552 181.932 29.3832C183.801 29.5827 185.697 29.5542 187.594 29.4972C189.576 29.4402 191.501 29.0982 193.426 28.6137C195.522 28.1007 197.475 27.2742 199.287 26.1912C201.354 24.9657 203.251 23.5122 204.751 21.5457C206.223 19.6647 207.979 18.0687 210.045 16.7862C211.546 15.8742 212.99 14.8482 214.575 14.0502C217.01 12.7962 219.388 11.4852 221.908 10.4307C223.238 9.88918 224.626 9.51868 225.956 8.94869C227.485 8.29319 229.099 7.83719 230.713 7.40969C232.355 6.98219 233.968 6.49769 235.639 6.21269C236.8 6.01319 237.989 5.72819 239.149 5.50019C241.075 5.10119 243 4.81619 244.925 4.55969C247.218 4.27469 249.483 3.93269 251.776 3.76169C253.305 3.61919 254.834 3.53369 256.363 3.44819C260.383 3.24869 264.403 3.07769 268.452 3.16319C271.792 3.24869 275.133 3.30569 278.446 3.73319C279.153 3.81869 279.861 4.18919 280.597 3.84719C280.003 5.01569 279.097 5.50019 277.851 5.38619C276.124 5.21519 274.369 5.12969 272.642 4.95869C267.942 4.55969 263.214 4.64519 258.514 4.75919C254.806 4.87319 251.097 5.18669 247.388 5.64269C243.877 6.07019 240.395 6.55469 236.941 7.29569C234.082 7.89419 231.25 8.60669 228.476 9.49018C226.013 10.2597 223.55 11.0862 221.172 12.0837C218.907 13.0527 216.698 14.0502 214.547 15.2472C212.395 16.4442 210.328 17.6982 208.318 19.1517C207.101 20.0352 206.223 21.2037 205.317 22.3437C202.543 25.8492 199.089 28.4712 194.955 30.0957C191.615 31.3782 188.132 31.6632 184.593 31.4352C180.375 31.1502 176.326 30.1527 172.363 28.6992C170.381 27.9582 168.484 26.9892 166.587 26.0772C166.474 26.0202 166.389 25.9062 166.276 25.8207Z" fill="#AAA9A6"/>
</g>
<defs>
<clipPath id="clip0">
<rect x="636" width="121.796" height="31.5495" fill="white"/>
</clipPath>
<clipPath id="clip1">
<rect x="477" width="121.796" height="31.5495" fill="white"/>
</clipPath>
<clipPath id="clip2">
<rect width="121.796" height="31.5495" fill="white"/>
</clipPath>
<clipPath id="clip3">
<rect x="318" width="121.796" height="31.5495" fill="white"/>
</clipPath>
<clipPath id="clip4">
<rect x="159" width="121.796" height="31.5495" fill="white"/>
</clipPath>
</defs>
</svg>
