<svg width="153" height="299" viewBox="0 0 153 299" fill="none" xmlns="http://www.w3.org/2000/svg">
<path opacity="0.2" d="M144.992 291C144.992 295.419 114.502 299 80.8767 299C47.2565 299 19.9998 295.419 19.9998 291C19.9998 286.581 47.2565 283 80.8767 283C114.502 283 144.992 286.586 144.992 291Z" fill="#98C3C9"/>
<path d="M18.8595 155.611C15.8588 163.995 14.2606 169.305 22.1519 184.531C30.0432 199.758 37.4916 221.356 47.0696 228.084C56.644 234.813 92.4649 252.162 98.1416 259.245C101.198 263.011 99.7434 269.695 97.85 273.764C95.9565 277.832 95.6686 280.448 97.85 281.031C100.031 281.613 110.074 268.535 111.385 264.61C112.695 260.686 111.82 259.525 109.056 256.617C106.291 253.71 80.3843 229.444 80.3843 228.136C80.3843 226.828 59.8588 186.131 59.8588 186.131L18.8595 155.611Z" fill="#382E2E"/>
<path d="M111.384 264.607C110.077 268.531 100.03 281.609 97.8484 281.027C95.6669 280.445 95.9548 277.828 97.8484 273.76C99.742 269.692 101.196 263.007 98.1363 259.245C97.8373 258.873 97.4535 258.467 96.9958 258.044C99.6386 255.46 101.602 253.054 102.898 250.637C105.965 253.577 108.32 255.847 109.051 256.614C111.823 259.521 112.694 260.686 111.384 264.607Z" fill="#FAA284"/>
<path d="M18.8599 155.611C19.9229 150.15 103.295 145.757 117.357 153.93C118.498 167.078 75.2062 196.909 59.7079 195.623C42.9582 194.233 14.977 175.576 18.8599 155.611Z" fill="#403435"/>
<path d="M117.573 153.064C118.407 161.234 119.928 175.956 115.373 185.699C110.819 195.442 99.1109 215.791 87.835 222.501C92.3896 228.563 92.3896 239.861 87.835 251.532C83.2803 263.202 80.4641 270.344 78.076 279.438C77.6405 283.119 79.7333 287.412 78.076 289.59C76.4188 291.768 57.0375 292.612 54.129 291.525C52.1913 290.921 52.3131 288.743 59.5806 285.839C66.8481 282.935 72.4215 281.244 72.6651 279.431C71.6943 274.592 58.1263 193.058 59.8611 186.13C61.1603 178.554 117.573 153.064 117.573 153.064Z" fill="#FAA284"/>
<path d="M115.369 185.699C110.815 195.443 99.1069 215.791 87.831 222.502C92.3857 228.563 92.3857 239.862 87.831 251.532C84.2028 260.826 81.6782 267.252 79.5928 274.077C77.0755 274.199 74.0268 273.561 71.4726 272.599C67.9736 251.834 58.3882 192.016 59.8608 186.127C61.1638 178.55 117.577 153.058 117.577 153.058C118.407 161.235 119.924 175.956 115.369 185.699Z" fill="#403435"/>
<path d="M111.384 264.606C110.077 268.531 100.03 281.609 97.8484 281.027C95.6669 280.444 95.9548 277.828 97.8484 273.76C97.9444 273.554 98.0367 273.347 98.1289 273.13C98.8672 274.412 100.381 273.609 101.54 271.925C102.695 270.237 108.202 262.871 108.431 255.983C108.701 256.245 108.911 256.462 109.055 256.614C111.823 259.521 112.694 260.685 111.384 264.606Z" fill="#403435"/>
<path d="M111.384 264.606C110.077 268.531 100.03 281.609 97.8484 281.027C95.6669 280.444 95.9548 277.828 97.8484 273.76C97.9444 273.554 98.0367 273.347 98.1289 273.13C98.8672 274.412 100.381 273.609 101.54 271.925C102.695 270.237 108.202 262.871 108.431 255.983C108.701 256.245 108.911 256.462 109.055 256.614C111.823 259.521 112.694 260.685 111.384 264.606Z" fill="#403435"/>
<path d="M52.1184 11.9657C52.0298 7.14939 65.0884 -3.33445 90.6263 1.04702C116.164 5.42849 107.985 35.9035 106.187 42.6766C104.394 49.4496 105.988 51.2405 107.184 55.224C108.38 59.2075 104.988 60.4014 105.988 64.7866C106.988 69.1718 107.184 74.9462 107.184 74.9462C107.184 74.9462 53.9159 109.206 52.1184 11.9657Z" fill="#5E4B4C"/>
<path d="M89.7547 43.6387C88.9796 50.397 82.4244 61.7652 94.0289 66.7879C105.633 71.8106 94.9959 94.5913 68.1146 93.6258C41.2332 92.6603 40.1296 71.9985 45.8063 65.0486C55.7387 63.3092 54.5761 63.6962 54.5761 63.6962L56.3182 53.2676L89.7547 43.6387Z" fill="#F39F82"/>
<path d="M52.1175 11.9651C55.635 3.93543 83.0331 2.03396 88.4108 14.1134C93.7886 26.1929 88.4108 32.0963 88.4108 32.0963C96.2061 29.6789 97.2839 33.4376 97.5496 35.855C97.8191 38.2723 96.7413 42.5654 89.7543 43.6377C85.9895 49.5411 74.6989 60.2792 56.6869 55.1792C38.675 50.0791 49.6962 31.5582 49.9657 24.8515C50.2351 18.1411 50.2351 16.2618 52.1175 11.9651Z" fill="#FAA284"/>
<path d="M33.5813 106.855C29.8276 112.312 25.3098 119.111 21.0062 124.749C16.7062 130.384 11.059 145.953 18.8543 155.611C26.6496 165.273 86.5947 170.064 116.702 153.713C121.777 150.489 119.286 123.677 108.855 112.404C107.294 109.703 103.529 106.501 104.876 102.742C101.65 97.9112 43.5469 92.369 33.5813 106.855Z" fill="#FFCC9A"/>
<path d="M7.7897 79.53C5.90361 89.2547 -0.692147 105.41 1.97642 113.878C4.64868 122.346 16.899 124.856 27.8981 116.387C38.8935 107.919 50.6012 75.5059 36.4205 67.6348C27.2706 72.0015 19.2575 85.8019 19.2575 85.8019L7.7897 79.53Z" fill="#FAA284"/>
<path d="M78.0731 289.594C76.4159 291.768 57.0346 292.616 54.1261 291.529C52.1883 290.924 52.3101 288.747 59.5777 285.843C59.98 285.684 60.3786 285.526 60.7698 285.371C61.8033 287.479 62.9069 288.028 68.0041 287.752C73.0977 287.479 74.9616 287.118 78.5751 285.371C78.8076 287.059 78.8593 288.562 78.0731 289.594Z" fill="#FAA284"/>
<path d="M78.0731 289.594C76.4159 291.768 57.0346 292.616 54.1261 291.529C52.1883 290.924 52.3101 288.747 59.5777 285.843C59.98 285.684 60.3786 285.526 60.7698 285.371C61.8033 287.479 62.9069 288.028 68.0041 287.752C73.0977 287.479 74.9616 287.118 78.5751 285.371C78.8076 287.059 78.8593 288.562 78.0731 289.594Z" fill="#403435"/>
<path d="M105.319 102.75C108.715 108.852 121.441 115.334 133.171 117.092C129.945 126.459 124.778 131.607 118.182 133.656C116.606 141.251 106.858 146.336 101.872 151.65C98.9412 158.088 109.538 159.82 115.108 157.48C120.677 155.14 124.671 146.362 127.31 143.141C129.949 139.921 147.245 128.799 151.058 121.776C154.87 114.752 152.523 110.945 148.714 106.262C144.901 101.578 125.14 74.4712 107.024 70.7568C97.9889 69.9682 99.4542 92.2146 105.319 102.75Z" fill="#FAA284"/>
<path d="M35.7928 68.579C38.6127 66.8471 42.5879 64.1202 45.8027 65.0525C45.1162 71.1769 43.5955 83.3006 60.2935 84.8188C76.9914 86.3334 91.3308 80.5885 94.0253 66.7918C97.373 65.9848 105.165 67.3114 107.014 70.7605C104.02 76.6639 103.061 81.7382 105.611 86.9819C108.856 93.6592 111.247 108.197 98.6796 109.497C84.3881 110.975 71.9828 104.084 58.5587 104.301C42.9865 104.552 34.0544 110.828 27.3331 103.436C16.4706 91.4924 33.187 85.0326 34.704 78.5396C36.2247 72.0429 35.7928 68.579 35.7928 68.579Z" fill="#FFCC9A"/>
<path d="M0.488547 83.6757C-1.96964 77.7723 5.45659 65.1291 9.23614 63.6956C13.012 62.2621 19.999 66.3083 20.4124 70.5939C20.8258 74.8759 21.1506 82.1906 17.3895 84.6928C13.6247 87.1912 2.49643 88.4957 0.488547 83.6757Z" fill="#FAA284"/>
</svg>
