<svg xmlns="http://www.w3.org/2000/svg" width="195" height="187" viewBox="0 0 195 187" fill="none"><mask id="mask0" maskUnits="userSpaceOnUse" x="0" y="0" width="195" height="187"><rect width="195" height="187" fill="white"></rect></mask><g mask="url(#mask0)"><path fill-rule="evenodd" clip-rule="evenodd" d="M0.114343 98.9753C-2.50807 70.64 0.158109 38.382 24.044 22.0275C47.3546 6.06692 78.5309 19.6811 107.178 25.6698C137.473 32.0031 175.24 30.4334 189.775 56.6742C204.503 83.2626 187.959 114.975 169.681 138.509C155.261 157.074 129.922 160.181 105.889 164.682C82.3723 169.086 57.5835 176.044 37.1217 163.333C14.4368 149.241 2.46115 124.333 0.114343 98.9753Z" fill="#D2F8FD"></path><mask id="mask1" maskUnits="userSpaceOnUse" x="-1" y="10" width="197" height="161"><path fill-rule="evenodd" clip-rule="evenodd" d="M0.113366 98.9752C-2.50904 70.64 0.157133 38.382 24.043 22.0275C47.3537 6.06692 89.8531 9.51127 118.5 15.5C148.795 21.8333 175.239 30.4334 189.774 56.6742C204.502 83.2626 187.958 114.975 169.68 138.509C155.26 157.074 129.921 160.181 105.888 164.682C82.3714 169.086 57.5825 176.044 37.1208 163.333C14.4358 149.241 2.46017 124.333 0.113366 98.9752Z" fill="#D2F8FD"></path></mask><g mask="url(#mask1)"><path d="M196.508 64.9928C195.552 60.3383 194.257 54.7621 191.466 50.2837C187.223 51.3943 179.128 53.1494 165.829 55.1127C164.378 55.3247 159.484 54.7109 156.166 51.7303C153.14 48.9319 154.185 51.8153 150.187 52.3687C147.759 52.6825 143.432 46.4351 143.18 49.1195C142.213 55.7212 139.9 59.7596 137.574 61.0501C135.156 62.4868 132.08 62.7011 129.233 63.3625C127.307 63.6847 125.445 63.7421 124.231 63.899C122.779 64.111 121.474 64.4141 119.905 64.6537C119.576 64.855 119.102 64.9653 118.801 65.2852C118.4 66.2535 118.265 67.2853 118.248 68.2895C118.306 70.1518 118.903 73.264 120.876 73.6811C121.406 73.8082 121.753 74.2276 121.982 74.6747C123.37 74.7275 124.878 76.3777 122.37 77.9606C122.16 78.1344 120.756 79.0858 120.482 79.5244C118.788 81.9186 122.257 88.2403 125.104 87.5789C127.833 86.9452 127.341 88.0596 127.397 88.2969C127.452 88.5342 127.619 90.871 127.674 91.1083C127.969 92.9155 128.62 94.64 129.991 95.697C130.109 95.6695 130.137 95.7881 130.255 95.7605C130.639 95.7965 130.876 95.7414 131.141 95.8049C132.628 95.2094 134.893 95.8088 134.984 95.6626C135.103 95.635 135.075 95.5164 135.194 95.4888C136.082 97.1582 137.389 98.4801 138.76 99.5372C140.478 101.014 142.47 102.052 144.423 101.848C146.258 101.672 148.074 100.875 149.771 100.106C152.626 98.9424 155.364 97.8065 158.192 96.5244C159.086 96.0667 159.834 95.5179 160.526 94.7318C166.335 90.1316 171.888 84.9658 178.41 81.8252C182.58 79.8566 189.728 79.9469 195.469 79.3636C196.961 75.016 197.547 70.0033 196.508 64.9928Z" fill="#FABB87"></path><path d="M145.655 88.3071C143.272 87.7353 140.656 90.4686 138.686 91.6765C137.071 92.8017 135.843 95.5878 134.722 97.2235C134.75 97.3421 134.923 97.5519 134.951 97.6705C136.379 100.59 139.303 102.412 141.922 101.303C142.606 101.019 142.907 100.699 143.508 100.059C144.383 98.9809 145.159 98.5508 145.887 97.3812C146.644 96.3303 147.927 93.7814 148.245 92.4572C148.353 91.3068 147.126 88.7158 145.655 88.3071Z" fill="#FA9D62"></path><path d="M138.651 81.3034C137.255 81.7527 135.558 82.522 134.336 83.181C131.836 84.2618 129.711 85.8806 127.76 87.7092L127.788 87.8279C127.779 88.33 128.336 88.5757 128.254 88.2198C128.858 89.2049 129.059 89.5332 130.11 90.2895C132.678 92.1939 135.746 92.4817 138.439 92.2314C141.222 91.8349 146.214 90.1754 146.372 86.0123C146.359 83.2644 145.077 80.4362 142.384 80.6865C140.878 80.6612 139.81 80.9092 138.651 81.3034Z" fill="#FA9D62"></path><path d="M136.858 71.9675C135.581 72.3892 133.884 73.1585 132.661 73.8175C130.308 74.9894 128.155 76.4896 126.35 78.4093L126.378 78.5279C126.369 79.03 126.927 79.2757 126.844 78.9198C127.448 79.9049 127.649 80.2333 128.581 81.0171C131.031 82.949 133.98 83.2643 136.673 83.0141C139.338 82.6451 144.211 81.0132 144.25 76.8777C144.237 74.1298 142.955 71.3015 140.381 71.5243C139.112 71.4439 138.044 71.6919 136.858 71.9675Z" fill="#FA9D62"></path><path d="M134.265 64.5667C132.987 64.9885 131.318 65.8764 130.068 66.4168C127.714 67.5886 125.59 69.2075 123.812 71.2458L123.84 71.3645C123.831 71.8666 124.389 72.1123 124.306 71.7564C124.937 72.8601 125.139 73.1885 126.071 73.9723C128.548 76.0228 131.552 76.5755 134.217 76.2065C136.791 75.9838 141.664 74.3519 141.621 69.8604C141.553 66.8753 140.244 63.9284 137.642 64.0325C136.4 64.0707 135.424 64.1725 134.265 64.5667Z" fill="#FA9D62"></path><path d="M140.5 90.8766C139.004 91.9742 137.572 92.807 136.077 93.9046C134.791 94.8285 133.149 95.835 132.439 97.6253C132.003 98.9771 132.243 100.547 133.02 101.742C134.603 104.25 136.857 103.727 138.792 102.902C138.792 102.902 138.673 102.93 138.91 102.875C141.236 101.584 143.196 99.2534 144.626 96.7956C145.445 95.4799 146.483 93.4882 145.924 91.6175C145.474 90.2214 144.332 89.6114 143.328 89.5945C142.296 89.459 141.458 90.154 140.5 90.8766Z" fill="#FABB87"></path><path d="M134.629 63.9823C132.593 63.8299 130.695 64.2708 128.714 64.3558C126.349 64.4048 123.93 64.2165 121.593 64.3841C119.996 64.505 117.979 64.9735 117.123 66.6727C116.54 67.9334 116.782 71.1282 117.46 72.9714C118.285 74.9056 118.806 75.5348 120.596 76.2443C122.944 77.1996 125.526 76.4747 127.662 75.9787C130.035 75.4276 132.49 75.2325 134.891 74.8C136.461 74.5604 138.094 74.056 139.242 72.5389C140.299 71.168 140.25 68.8037 139.335 67.0156C138.218 64.8992 136.281 64.0986 134.629 63.9823Z" fill="#FABB87"></path><path d="M138.88 81.7527C137.366 82.2295 135.961 83.1809 134.355 83.804C132.54 84.6008 130.641 85.0417 128.972 85.9296C127.75 86.5886 126.318 87.4214 125.991 89.2477C125.792 90.5443 126.214 91.8218 126.755 93.0717C126.837 93.4277 127.011 93.6374 127.094 93.9933L127.323 94.4403C128.365 95.6987 128.859 96.2092 130.246 96.262C132.255 96.2957 134.079 94.9968 135.575 93.8992C137.307 92.7464 139.096 91.831 140.856 90.7969C141.96 90.1654 143.218 89.1229 143.745 87.625C144.273 86.1271 143.832 84.2288 142.908 82.9429C141.81 81.4473 140.277 81.3034 138.88 81.7527Z" fill="#FABB87"></path><path d="M135.874 72.5706C134.003 73.1301 132.242 74.1642 130.399 74.8424C128.228 75.7218 125.772 75.917 123.628 76.9151C122.169 77.6293 120.171 78.7185 119.726 80.5723C119.409 81.8965 119.794 83.5575 120.453 84.7798C122.221 88.6207 123.736 88.1439 125.278 87.7857C127.56 87.3808 129.53 86.1729 131.5 84.9651C133.589 83.7297 135.851 82.704 137.968 81.5873C139.427 80.8731 140.804 79.8031 141.569 78.25C142.215 76.7245 141.893 74.7987 140.732 73.5679C139.397 72.1274 137.507 72.0662 135.874 72.5706Z" fill="#FABB87"></path><path d="M131.641 94.186C130.855 93.4933 130.251 92.5082 129.766 91.4955C129.28 90.4829 129.032 89.4151 128.903 88.3198C129.388 89.3324 129.846 90.2265 130.213 91.2667C130.698 92.2793 131.183 93.292 131.641 94.186Z" fill="#FA9D62"></path><path d="M126.507 85.0022C125.784 84.0446 125.418 83.0044 125.142 81.818C124.894 80.7503 124.856 79.5087 124.964 78.3583C125.212 79.4261 125.487 80.6125 125.735 81.6803C125.865 82.7756 126.113 83.8433 126.507 85.0022Z" fill="#FA9D62"></path><path d="M122.639 74.2728C122.173 73.8809 121.679 73.3704 121.423 72.8047C121.166 72.2391 120.91 71.6734 120.745 70.9616C120.469 69.7752 120.522 68.3874 120.63 67.237C120.905 68.4234 120.944 69.6649 121.219 70.8513C121.613 72.0102 122.008 73.169 122.639 74.2728Z" fill="#FA9D62"></path><path d="M170.137 67.7416C168.858 66.5384 167.578 65.3351 166.417 64.1043C161.562 59.3549 157.456 54.0566 154.307 48.0358C152.22 43.8941 150.698 39.496 148.255 35.4369C146.873 33.257 145.045 31.3059 143.663 29.126C142.336 27.1834 141.694 24.9567 140.486 22.9865C137.458 18.5632 134.54 26.9935 134.561 29.2393C134.45 34.1418 138.035 38.8109 139.703 43.3001C141.654 48.4736 141.752 53.2024 141.158 58.7173L170.137 67.7416Z" fill="#FABB87"></path><path d="M137.359 38.5922C137.787 37.7426 138.361 36.984 139.108 36.4352C139.856 35.8864 140.75 35.4287 141.727 35.3269C140.979 35.8757 140.231 36.4245 139.483 36.9733C138.827 37.3759 138.079 37.9247 137.359 38.5922Z" fill="#FA9D62"></path><path d="M142.27 62.959C144.253 64.499 146.327 65.8929 148.528 66.757C150.848 67.5936 153.268 67.7819 155.732 67.0846C154.628 67.7161 153.351 68.1378 152.109 68.1761C150.749 68.2419 149.452 68.0429 148.338 67.5515C145.872 66.6238 143.742 64.9927 142.27 62.959Z" fill="#FA9D62"></path><path d="M144.258 81.7538C145.864 81.1308 147.754 81.192 149.553 81.3994C151.352 81.6068 153.059 81.9605 154.739 82.1955C156.447 82.5491 158.21 83.14 159.699 84.1695C161.161 85.0803 162.587 86.3747 163.539 87.7792C162.259 86.576 160.888 85.5189 159.335 84.7543C157.782 83.9896 156.138 83.3711 154.458 83.1362C152.75 82.7825 151.042 82.4289 149.335 82.0753C148.422 81.9122 147.655 81.8403 146.741 81.6773C146.066 81.4591 145.208 81.5334 144.258 81.7538Z" fill="#FA9D62"></path></g><path fill-rule="evenodd" clip-rule="evenodd" d="M35.1008 160.35C21.7008 160.162 12.2008 150.459 11.2008 139.626C10.7008 132.843 12.0008 125.307 16.5008 118.242C21.2008 110.611 23.0008 104.3 25.5008 98.1765C27.1008 94.22 28.0008 92.5243 28.9008 90.7345C29.6008 89.3214 31.6008 88.9446 33.1008 89.7925C34.1008 88.8504 36.1008 88.8504 37.1008 89.7925C38.5008 88.9446 40.5008 89.3214 41.2008 90.7345C42.2008 92.5243 43.0008 94.22 44.6008 98.1765C47.1008 104.3 49.0008 110.517 53.7008 118.242C58.1008 125.401 59.4008 132.843 59.0008 139.626C57.9008 150.459 48.2008 160.162 35.1008 160.35Z" fill="#4F843F"></path><path fill-rule="evenodd" clip-rule="evenodd" d="M35.1009 92.1497C36.0009 92.1497 36.8009 91.7729 36.8009 91.2077C36.8009 90.7366 36.1009 90.2656 35.1009 90.2656C34.2009 90.2656 33.4009 90.6424 33.4009 91.2077C33.4009 91.7729 34.2009 92.1497 35.1009 92.1497Z" fill="#406C34"></path><path fill-rule="evenodd" clip-rule="evenodd" d="M10.0005 102.417C16.5005 89.134 24.1005 82.7283 32.6005 84.6123C33.4005 86.6848 31.7005 88.7572 25.6005 91.1123C20.6005 92.5254 15.9005 97.2355 10.0005 102.417Z" fill="#6DA03F"></path><path fill-rule="evenodd" clip-rule="evenodd" d="M10.0005 102.418C16.6005 92.4321 23.9005 85.9321 32.4005 83.9539C26.9005 81.693 22.6005 81.7872 19.0005 83.2945C15.7005 85.1785 12.7005 91.4901 10.0005 102.418Z" fill="#86BA41"></path><path fill-rule="evenodd" clip-rule="evenodd" d="M35.3003 86.6865C34.8003 85.7445 33.9003 84.8967 32.6003 84.6141C30.8003 84.5199 26.3003 86.0271 22.5003 88.8532C17.7003 92.5271 13.5003 97.5199 10.3003 101.947C12.2003 98.8387 16.8003 92.5271 22.2003 88.3822C25.9003 85.5561 30.6003 83.9547 32.6003 84.0489C33.9003 84.2373 35.3003 85.3677 36.1003 86.4039L35.3003 86.6865Z" fill="#A7D25F"></path><path fill-rule="evenodd" clip-rule="evenodd" d="M38.2001 83.1992C38.6001 83.3876 38.9001 83.7644 39.3001 84.1412C37.4001 85.8369 36.3001 88.192 36.0001 91.1123C35.7001 91.9601 34.2001 91.7717 34.1001 91.018C34.8001 88.0978 35.2001 86.5905 35.2001 86.5905C35.9001 86.4021 36.7001 84.1412 38.2001 83.1992Z" fill="#88B14C"></path><path fill-rule="evenodd" clip-rule="evenodd" d="M28.2003 85.2733C28.9003 85.0849 29.3003 84.8965 29.3003 84.8965C25.9003 83.9545 22.5003 83.7661 19.3003 84.5197C22.4003 84.4255 25.4003 84.6139 28.2003 85.2733Z" fill="#A7D25F"></path><path fill-rule="evenodd" clip-rule="evenodd" d="M23.6003 87.719C24.2003 87.3422 24.4003 87.1538 24.4003 87.1538C21.7003 86.777 19.2003 86.8712 16.8003 87.4364C20.0003 87.3422 22.3003 87.4364 23.6003 87.719Z" fill="#A7D25F"></path><path fill-rule="evenodd" clip-rule="evenodd" d="M19.8007 90.6433C20.2007 90.3607 20.3007 90.1723 20.3007 90.1723C18.4007 89.9839 16.7007 90.0781 15.2007 90.4549C17.5007 90.4549 19.0007 90.5491 19.8007 90.6433Z" fill="#A7D25F"></path><path fill-rule="evenodd" clip-rule="evenodd" d="M38.1001 83.575C38.4001 83.4808 38.8001 84.046 38.7001 84.1402C38.0001 84.9881 37.4001 85.4591 36.5001 87.0605C36.2001 87.6257 35.9001 89.133 35.5001 91.2054C35.3001 91.4881 34.6001 91.2054 34.6001 90.9228C35.2001 88.662 35.6001 87.3431 35.7001 86.7779C35.8001 86.6837 36.0001 86.4953 36.2001 86.2127C36.6001 85.3649 37.4001 84.4228 38.1001 83.575Z" fill="#98C15A"></path><path fill-rule="evenodd" clip-rule="evenodd" d="M19.4001 119.186C23.5001 112.404 25.5001 104.491 28.6001 95.2588C29.1001 93.7515 30.4001 92.6211 32.2001 92.6211C35.8001 92.7153 36.1001 96.5776 37.2001 100.817C38.9001 107.599 40.7001 113.157 42.7001 118.338C53.1001 142.831 40.5001 155.925 28.6001 155.737C20.6001 154.889 14.4001 148.766 13.6001 137.273C13.7001 129.454 16.3001 123.614 19.4001 119.186Z" fill="#669B48"></path><path fill-rule="evenodd" clip-rule="evenodd" d="M22.2001 133.408C21.9001 130.3 22.9001 126.626 23.9001 123.329C26.2001 115.793 23.0001 117.394 21.1001 120.032C19.3001 122.575 16.2001 126.626 15.6001 134.539C15.8001 139.532 22.0001 139.532 22.2001 133.408Z" fill="white"></path><path fill-rule="evenodd" clip-rule="evenodd" d="M30.5007 94.5983C30.8007 94.6925 30.9007 95.0694 30.8007 95.4462C30.7007 95.823 30.4007 96.0114 30.1007 96.0114C29.8007 95.9172 29.7007 95.5404 29.8007 95.1636C29.9007 94.7867 30.2007 94.5041 30.5007 94.5983Z" fill="#476A38"></path><path fill-rule="evenodd" clip-rule="evenodd" d="M32.6007 92.8086C32.9007 92.8086 33.1007 93.1854 33.1007 93.5622C33.1007 93.939 32.8007 94.2216 32.5007 94.2216C32.2007 94.2216 32.0007 93.8448 32.1007 93.468C32.0007 93.0912 32.3007 92.8086 32.6007 92.8086Z" fill="#476A38"></path><path fill-rule="evenodd" clip-rule="evenodd" d="M34.7009 96.6719C35.0009 96.6719 35.2009 96.9545 35.3009 97.3313C35.3009 97.7081 35.1009 98.0849 34.9009 98.0849C34.6009 98.0849 34.3009 97.8023 34.3009 97.4255C34.2009 96.9545 34.4009 96.6719 34.7009 96.6719Z" fill="#476A38"></path><path fill-rule="evenodd" clip-rule="evenodd" d="M31.7005 96.6719C32.0005 96.6719 32.2005 97.0487 32.1005 97.4255C32.1005 97.8023 31.8005 98.0849 31.5005 98.0849C31.2005 98.0849 31.0005 97.7081 31.0005 97.3313C31.2005 96.9545 31.4005 96.6719 31.7005 96.6719Z" fill="#476A38"></path><path fill-rule="evenodd" clip-rule="evenodd" d="M28.7005 99.2148C29.0005 99.2148 29.2005 99.5916 29.1005 99.9685C29.1005 100.345 28.8005 100.628 28.5005 100.628C28.2005 100.628 28.0005 100.251 28.0005 99.8743C28.1005 99.4974 28.4005 99.2148 28.7005 99.2148Z" fill="#476A38"></path><path fill-rule="evenodd" clip-rule="evenodd" d="M33.4005 101.663C33.7005 101.663 33.9005 102.04 33.9005 102.417C33.8005 102.794 33.6005 103.076 33.3005 103.076C33.0005 103.076 32.8005 102.699 32.9005 102.322C32.8005 101.946 33.1005 101.569 33.4005 101.663Z" fill="#476A38"></path><path fill-rule="evenodd" clip-rule="evenodd" d="M38.0007 102.604C38.3007 102.604 38.6007 102.792 38.7007 103.263C38.8007 103.64 38.6007 104.017 38.3007 104.017C38.0007 104.111 37.7007 103.828 37.6007 103.451C37.5007 102.98 37.7007 102.604 38.0007 102.604Z" fill="#476A38"></path><path fill-rule="evenodd" clip-rule="evenodd" d="M36.5007 99.1218C36.8007 99.0276 37.1007 99.3102 37.2007 99.687C37.3007 100.064 37.1007 100.441 36.8007 100.535C36.5007 100.535 36.2007 100.346 36.1007 99.8754C36.0007 99.4986 36.2007 99.1218 36.5007 99.1218Z" fill="#476A38"></path><path fill-rule="evenodd" clip-rule="evenodd" d="M35.9005 106.372C36.2005 106.277 36.5005 106.56 36.6005 107.031C36.7005 107.408 36.5005 107.785 36.2005 107.785C35.9005 107.879 35.6005 107.596 35.5005 107.125C35.5005 106.843 35.6005 106.466 35.9005 106.372Z" fill="#476A38"></path><path fill-rule="evenodd" clip-rule="evenodd" d="M29.8001 104.302C30.1001 104.302 30.3001 104.679 30.2001 105.055C30.2001 105.432 29.9001 105.715 29.6001 105.715C29.3001 105.715 29.1001 105.338 29.1001 104.961C29.2001 104.584 29.5001 104.208 29.8001 104.302Z" fill="#476A38"></path><path fill-rule="evenodd" clip-rule="evenodd" d="M26.1004 103.452C26.4004 103.546 26.5004 103.923 26.3004 104.3C26.2004 104.677 25.8004 104.865 25.6004 104.771C25.3004 104.677 25.2004 104.3 25.4004 103.923C25.5004 103.64 25.8004 103.358 26.1004 103.452Z" fill="#476A38"></path><path fill-rule="evenodd" clip-rule="evenodd" d="M26.0008 99.6861C26.3008 99.7803 26.4008 100.157 26.2008 100.534C26.1008 100.911 25.7008 101.099 25.5008 101.005C25.2008 100.911 25.1008 100.534 25.3008 100.157C25.5008 99.7803 25.8008 99.5919 26.0008 99.6861Z" fill="#476A38"></path><path fill-rule="evenodd" clip-rule="evenodd" d="M31.2005 90.8305C31.4005 91.0189 31.3005 91.3957 31.0005 91.6784C30.7005 91.961 30.3005 91.961 30.1005 91.7726C29.9005 91.5841 30.0005 91.2073 30.4005 90.9247C30.6005 90.6421 31.1005 90.6421 31.2005 90.8305Z" fill="#476A38"></path><path fill-rule="evenodd" clip-rule="evenodd" d="M26.4005 108.54C26.7005 108.54 26.9005 108.917 26.9005 109.294C26.9005 109.67 26.6005 109.953 26.3005 109.953C26.0005 109.953 25.8005 109.576 25.9005 109.199C25.8005 108.823 26.1005 108.446 26.4005 108.54Z" fill="#476A38"></path><path fill-rule="evenodd" clip-rule="evenodd" d="M29.5001 114.662C29.8001 114.662 30.0001 115.039 30.0001 115.416C30.0001 115.793 29.7001 116.075 29.4001 116.075C29.1001 116.075 28.9001 115.698 29.0001 115.322C29.0001 114.945 29.3001 114.662 29.5001 114.662Z" fill="#476A38"></path><path fill-rule="evenodd" clip-rule="evenodd" d="M34.4005 112.31C34.7005 112.31 34.9005 112.686 34.9005 113.063C34.9005 113.44 34.6005 113.723 34.3005 113.723C34.0005 113.723 33.8005 113.346 33.9005 112.969C33.9005 112.592 34.1005 112.215 34.4005 112.31Z" fill="#476A38"></path><path fill-rule="evenodd" clip-rule="evenodd" d="M40.4005 116.641C40.7005 116.641 41.0005 116.829 41.1005 117.3C41.2005 117.677 41.0005 118.054 40.7005 118.054C40.4005 118.148 40.1005 117.865 40.0005 117.488C40.0005 117.017 40.1005 116.641 40.4005 116.641Z" fill="#476A38"></path><path fill-rule="evenodd" clip-rule="evenodd" d="M22.2003 115.887C22.5003 115.887 22.7003 116.264 22.7003 116.64C22.6003 117.017 22.4003 117.3 22.1003 117.3C21.8003 117.3 21.6003 116.923 21.7003 116.546C21.6003 116.169 21.9003 115.887 22.2003 115.887Z" fill="#476A38"></path><path fill-rule="evenodd" clip-rule="evenodd" d="M22.3006 110.804C22.6006 110.898 22.7006 111.275 22.5006 111.651C22.3006 112.028 22.0006 112.217 21.8006 112.122C21.5006 112.028 21.4006 111.651 21.6006 111.275C21.6006 110.992 22.0006 110.709 22.3006 110.804Z" fill="#476A38"></path><path fill-rule="evenodd" clip-rule="evenodd" d="M16.8009 121.35C17.1009 121.35 17.3009 121.727 17.3009 122.104C17.3009 122.481 17.0009 122.763 16.7009 122.763C16.4009 122.763 16.2009 122.386 16.3009 122.009C16.2009 121.538 16.5009 121.256 16.8009 121.35Z" fill="#476A38"></path><path fill-rule="evenodd" clip-rule="evenodd" d="M13.0001 130.585C13.3001 130.585 13.5001 130.962 13.5001 131.339C13.5001 131.715 13.2001 131.998 12.9001 131.998C12.6001 131.998 12.4001 131.621 12.5001 131.244C12.4001 130.868 12.7001 130.491 13.0001 130.585Z" fill="#476A38"></path><path fill-rule="evenodd" clip-rule="evenodd" d="M15.0003 137.648C15.3003 137.648 15.5003 138.025 15.4003 138.402C15.4003 138.779 15.1003 139.061 14.8003 139.061C14.5003 139.061 14.3003 138.685 14.3003 138.308C14.4003 137.931 14.7003 137.648 15.0003 137.648Z" fill="#476A38"></path><path fill-rule="evenodd" clip-rule="evenodd" d="M13.8009 143.207C14.1009 143.207 14.4009 143.49 14.4009 143.866C14.5009 144.243 14.3009 144.62 14.0009 144.62C13.7009 144.714 13.4009 144.432 13.4009 143.961C13.4009 143.584 13.5009 143.207 13.8009 143.207Z" fill="#476A38"></path><path fill-rule="evenodd" clip-rule="evenodd" d="M18.0007 149.333C18.3007 149.238 18.6007 149.521 18.6007 149.992C18.7007 150.369 18.5007 150.746 18.2007 150.746C17.9007 150.746 17.6007 150.463 17.6007 150.086C17.5007 149.615 17.7007 149.333 18.0007 149.333Z" fill="#476A38"></path><path fill-rule="evenodd" clip-rule="evenodd" d="M21.5007 145.374C21.8007 145.279 22.1007 145.562 22.1007 146.033C22.2007 146.41 22.0007 146.787 21.7007 146.787C21.4007 146.787 21.1007 146.504 21.1007 146.127C21.0007 145.75 21.2007 145.374 21.5007 145.374Z" fill="#476A38"></path><path fill-rule="evenodd" clip-rule="evenodd" d="M21.7002 152.534C21.9002 152.345 22.3002 152.345 22.6002 152.628C22.9002 152.91 23.0002 153.287 22.8002 153.476C22.6002 153.664 22.2002 153.664 21.9002 153.381C21.6002 153.099 21.5002 152.722 21.7002 152.534Z" fill="#476A38"></path><path fill-rule="evenodd" clip-rule="evenodd" d="M27.1001 157.338C27.2001 157.055 27.5001 156.961 27.9001 156.961C28.3001 157.055 28.6001 157.338 28.6001 157.62C28.5001 157.903 28.2001 157.997 27.8001 157.997C27.4001 157.809 27.1001 157.526 27.1001 157.338Z" fill="#476A38"></path><path fill-rule="evenodd" clip-rule="evenodd" d="M25.2005 138.309C25.5005 138.309 25.7005 138.685 25.6005 139.062C25.5005 139.439 25.2005 139.722 24.9005 139.722C24.6005 139.627 24.5005 139.345 24.5005 138.968C24.7005 138.591 25.0005 138.309 25.2005 138.309Z" fill="#476A38"></path><path fill-rule="evenodd" clip-rule="evenodd" d="M25.4009 126.91C25.7009 126.91 25.9009 127.287 25.8009 127.664C25.7009 128.041 25.4009 128.323 25.2009 128.323C24.9009 128.229 24.7009 127.946 24.8009 127.57C24.8009 127.193 25.1009 126.91 25.4009 126.91Z" fill="#476A38"></path><path fill-rule="evenodd" clip-rule="evenodd" d="M32.9001 121.26C33.2001 121.26 33.5001 121.542 33.5001 121.919C33.6001 122.296 33.4001 122.673 33.1001 122.673C32.8001 122.767 32.5001 122.484 32.5001 122.013C32.4001 121.637 32.6001 121.26 32.9001 121.26Z" fill="#476A38"></path><path fill-rule="evenodd" clip-rule="evenodd" d="M39.9001 129.172C40.2001 129.172 40.5001 129.454 40.5001 129.831C40.6001 130.208 40.4001 130.585 40.1001 130.585C39.8001 130.679 39.5001 130.397 39.5001 129.926C39.4001 129.549 39.6001 129.266 39.9001 129.172Z" fill="#476A38"></path><path fill-rule="evenodd" clip-rule="evenodd" d="M29.6003 131.619C29.9003 131.619 30.2003 131.902 30.2003 132.279C30.3003 132.655 30.1003 133.032 29.8003 133.032C29.5003 133.126 29.2003 132.844 29.2003 132.373C29.1003 131.996 29.3003 131.619 29.6003 131.619Z" fill="#476A38"></path><path fill-rule="evenodd" clip-rule="evenodd" d="M36.2009 135.575C36.5009 135.669 36.6009 136.046 36.5009 136.423C36.4009 136.8 36.1009 137.082 35.8009 136.988C35.5009 136.894 35.4009 136.517 35.5009 136.14C35.6009 135.763 35.9009 135.481 36.2009 135.575Z" fill="#476A38"></path><path fill-rule="evenodd" clip-rule="evenodd" d="M44.2009 141.04C44.5009 141.134 44.6009 141.511 44.5009 141.888C44.4009 142.264 44.1009 142.547 43.8009 142.453C43.5009 142.359 43.4009 141.982 43.5009 141.605C43.6009 141.228 43.9009 140.946 44.2009 141.04Z" fill="#476A38"></path><path fill-rule="evenodd" clip-rule="evenodd" d="M46.8005 135.387C47.1005 135.481 47.2005 135.858 47.1005 136.235C47.0005 136.611 46.7005 136.894 46.4005 136.8C46.1005 136.706 46.0005 136.329 46.1005 135.952C46.2005 135.481 46.5005 135.293 46.8005 135.387Z" fill="#476A38"></path><path fill-rule="evenodd" clip-rule="evenodd" d="M39.0007 146.503C39.3007 146.597 39.4007 146.974 39.3007 147.35C39.2007 147.727 38.9007 148.01 38.6007 147.916C38.3007 147.821 38.2007 147.445 38.3007 147.068C38.4007 146.691 38.8007 146.408 39.0007 146.503Z" fill="#476A38"></path><path fill-rule="evenodd" clip-rule="evenodd" d="M29.9001 147.257C30.2001 147.351 30.3001 147.728 30.2001 148.104C30.1001 148.481 29.8001 148.764 29.5001 148.67C29.2001 148.575 29.1001 148.199 29.2001 147.822C29.3001 147.445 29.6001 147.162 29.9001 147.257Z" fill="#476A38"></path><path fill-rule="evenodd" clip-rule="evenodd" d="M34.2009 154.229C34.5009 154.323 34.6009 154.7 34.5009 155.076C34.4009 155.453 34.1009 155.736 33.8009 155.642C33.5009 155.547 33.4009 155.171 33.5009 154.794C33.6009 154.417 33.9009 154.229 34.2009 154.229Z" fill="#476A38"></path><path fill-rule="evenodd" clip-rule="evenodd" d="M44.5001 122.86C44.8001 122.766 45.1001 123.048 45.2001 123.425C45.3001 123.802 45.1001 124.179 44.8001 124.273C44.5001 124.367 44.2001 124.085 44.1001 123.614C44.1001 123.331 44.3001 122.954 44.5001 122.86Z" fill="#476A38"></path><path fill-rule="evenodd" clip-rule="evenodd" d="M47.1003 117.585C47.4003 117.49 47.7003 117.773 47.8003 118.15C47.9003 118.527 47.7003 118.903 47.4003 118.903C47.1003 118.998 46.8003 118.715 46.7003 118.338C46.6003 117.961 46.8003 117.585 47.1003 117.585Z" fill="#476A38"></path><path fill-rule="evenodd" clip-rule="evenodd" d="M47.5007 126.061C47.8007 125.967 48.1007 126.25 48.2007 126.626C48.3007 127.003 48.1007 127.38 47.8007 127.38C47.5007 127.474 47.2007 127.192 47.1007 126.815C47.0007 126.532 47.2007 126.155 47.5007 126.061Z" fill="#476A38"></path><path fill-rule="evenodd" clip-rule="evenodd" d="M54.1003 127.948C54.4003 127.854 54.7003 128.136 54.8003 128.513C54.9003 128.89 54.7003 129.267 54.4003 129.361C54.1003 129.361 53.8003 129.173 53.7003 128.702C53.6003 128.419 53.8003 128.042 54.1003 127.948Z" fill="#476A38"></path><path fill-rule="evenodd" clip-rule="evenodd" d="M50.7003 131.434C51.0003 131.34 51.3003 131.622 51.4003 132.093C51.5003 132.47 51.3003 132.847 51.0003 132.847C50.7003 132.941 50.4003 132.659 50.3003 132.282C50.3003 131.811 50.4003 131.434 50.7003 131.434Z" fill="#476A38"></path><path fill-rule="evenodd" clip-rule="evenodd" d="M54.9007 140.379C55.2007 140.473 55.4007 140.756 55.3007 141.133C55.2007 141.509 54.9007 141.792 54.6007 141.792C54.3007 141.698 54.2007 141.415 54.2007 141.038C54.4007 140.662 54.7007 140.379 54.9007 140.379Z" fill="#476A38"></path><path fill-rule="evenodd" clip-rule="evenodd" d="M58.2005 136.803C58.5005 136.897 58.6005 137.18 58.6005 137.556C58.5005 137.933 58.2005 138.216 57.9005 138.216C57.6005 138.216 57.5005 137.839 57.5005 137.462C57.7005 137.085 57.9005 136.803 58.2005 136.803Z" fill="#476A38"></path><path fill-rule="evenodd" clip-rule="evenodd" d="M49.6009 143.68C49.9009 143.774 50.0009 144.057 50.0009 144.434C49.9009 144.811 49.6009 145.093 49.3009 145.093C49.0009 144.999 48.9009 144.716 48.9009 144.34C49.0009 143.869 49.3009 143.586 49.6009 143.68Z" fill="#476A38"></path><path fill-rule="evenodd" clip-rule="evenodd" d="M51.9001 120.973C52.2001 120.879 52.5001 121.162 52.6001 121.539C52.7001 121.915 52.5001 122.292 52.2001 122.292C51.9001 122.386 51.6001 122.104 51.5001 121.727C51.4001 121.35 51.6001 120.973 51.9001 120.973Z" fill="#476A38"></path><path fill-rule="evenodd" clip-rule="evenodd" d="M41.4005 110.141C41.7005 110.047 42.0005 110.33 42.1005 110.707C42.2005 111.083 42.0005 111.46 41.7005 111.554C41.4005 111.649 41.1005 111.366 41.0005 110.895C41.0005 110.612 41.1005 110.236 41.4005 110.141Z" fill="#476A38"></path><path fill-rule="evenodd" clip-rule="evenodd" d="M48.8009 111.745C49.1009 111.65 49.4009 111.933 49.5009 112.404C49.6009 112.781 49.4009 113.158 49.1009 113.158C48.8009 113.252 48.5009 112.969 48.4009 112.592C48.4009 112.216 48.5009 111.839 48.8009 111.745Z" fill="#476A38"></path><path fill-rule="evenodd" clip-rule="evenodd" d="M43.7003 107.221C44.0003 107.127 44.3003 107.41 44.4003 107.881C44.5003 108.257 44.3003 108.634 44.0003 108.634C43.7003 108.728 43.4003 108.446 43.3003 108.069C43.3003 107.598 43.4003 107.221 43.7003 107.221Z" fill="#476A38"></path><path fill-rule="evenodd" clip-rule="evenodd" d="M45.1003 102.041C45.4003 101.947 45.7003 102.23 45.8003 102.701C45.9003 103.078 45.7003 103.455 45.4003 103.455C45.1003 103.549 44.8003 103.266 44.7003 102.889C44.6003 102.512 44.8003 102.136 45.1003 102.041Z" fill="#476A38"></path><path fill-rule="evenodd" clip-rule="evenodd" d="M41.8009 101.382C42.1009 101.287 42.4009 101.57 42.5009 101.947C42.6009 102.324 42.4009 102.7 42.1009 102.795C41.8009 102.889 41.5009 102.606 41.4009 102.135C41.4009 101.758 41.5009 101.476 41.8009 101.382Z" fill="#476A38"></path><path fill-rule="evenodd" clip-rule="evenodd" d="M38.3005 97.3308C38.6005 97.2366 38.9005 97.5192 39.0005 97.896C39.1005 98.2728 38.9005 98.6496 38.6005 98.6496C38.3005 98.7438 38.0005 98.4612 37.9005 98.0844C37.8005 97.7076 38.0005 97.3308 38.3005 97.3308Z" fill="#476A38"></path><path fill-rule="evenodd" clip-rule="evenodd" d="M41.5001 97.0456C41.8001 96.9514 42.1001 97.234 42.2001 97.6108C42.3001 97.9876 42.1001 98.3644 41.8001 98.4586C41.5001 98.5528 41.2001 98.2702 41.1001 97.7992C41.1001 97.5166 41.2001 97.1398 41.5001 97.0456Z" fill="#476A38"></path><path fill-rule="evenodd" clip-rule="evenodd" d="M41.1003 93.0898C41.3003 93.0898 41.6003 93.2782 41.7003 93.5609C41.8003 93.9377 41.6003 94.2203 41.4003 94.2203C41.2003 94.2203 40.9003 94.0319 40.8003 93.7493C40.8003 93.4667 40.9003 93.184 41.1003 93.0898Z" fill="#476A38"></path><path fill-rule="evenodd" clip-rule="evenodd" d="M38.6007 92.8075C38.8007 92.7133 39.1007 92.9959 39.1007 93.2786C39.2007 93.6554 39.0007 93.938 38.8007 93.938C38.6007 94.0322 38.3007 93.7496 38.3007 93.467C38.2007 93.0901 38.3007 92.8075 38.6007 92.8075Z" fill="#476A38"></path><path fill-rule="evenodd" clip-rule="evenodd" d="M38.6003 90.4528C38.7003 90.2644 39.0003 90.1701 39.3003 90.3586C39.6003 90.4528 39.8003 90.7354 39.7003 91.018C39.6003 91.2064 39.3003 91.3006 38.9003 91.1122C38.7003 90.9238 38.5003 90.6412 38.6003 90.4528Z" fill="#476A38"></path><path fill-rule="evenodd" clip-rule="evenodd" d="M36.3003 93.5594C36.5003 93.4652 36.8003 93.5594 37.0003 93.9362C37.2003 94.2188 37.1003 94.5014 36.9003 94.5956C36.7003 94.6898 36.4003 94.5956 36.2003 94.2188C36.0003 94.0304 36.1003 93.7478 36.3003 93.5594Z" fill="#476A38"></path><path fill-rule="evenodd" clip-rule="evenodd" d="M51.3004 148.763C51.5004 148.858 51.5004 149.329 51.3004 149.611C51.1004 149.894 50.7004 150.082 50.5004 149.894C50.3004 149.8 50.2004 149.329 50.5004 149.046C50.7004 148.763 51.0004 148.575 51.3004 148.763Z" fill="#476A38"></path><path fill-rule="evenodd" clip-rule="evenodd" d="M44.4001 148.104C44.6001 148.293 44.6001 148.67 44.4001 148.952C44.2001 149.329 43.8001 149.423 43.5001 149.329C43.3001 149.141 43.3001 148.764 43.5001 148.481C43.8001 148.104 44.2001 148.01 44.4001 148.104Z" fill="#476A38"></path><path fill-rule="evenodd" clip-rule="evenodd" d="M42.6009 154.324C42.7009 154.606 42.4009 154.889 42.0009 154.983C41.6009 155.077 41.2009 154.983 41.1009 154.701C41.0009 154.418 41.3009 154.135 41.7009 154.041C42.2009 153.947 42.6009 154.041 42.6009 154.324Z" fill="#476A38"></path><path fill-rule="evenodd" clip-rule="evenodd" d="M37.9007 158.468C38.0007 158.75 37.7007 159.033 37.3007 159.127C36.9007 159.221 36.5007 159.127 36.4007 158.845C36.3007 158.562 36.6007 158.279 37.0007 158.185C37.4007 158.091 37.8007 158.279 37.9007 158.468Z" fill="#476A38"></path><path fill-rule="evenodd" clip-rule="evenodd" d="M45.7009 156.114C45.8009 156.302 45.7009 156.679 45.4009 156.962C45.1009 157.15 44.7009 157.15 44.5009 156.962C44.4009 156.773 44.5009 156.397 44.8009 156.114C45.1009 155.926 45.6009 155.926 45.7009 156.114Z" fill="#476A38"></path><path fill-rule="evenodd" clip-rule="evenodd" d="M30.5007 94.5983C30.8007 94.6925 30.9007 95.0694 30.8007 95.4462C30.7007 95.823 30.4007 96.0114 30.1007 96.0114C29.8007 95.9172 29.7007 95.5404 29.8007 95.1636C29.9007 94.7867 30.2007 94.5041 30.5007 94.5983Z" fill="#62853F"></path><path fill-rule="evenodd" clip-rule="evenodd" d="M32.6007 92.8086C32.9007 92.8086 33.1007 93.1854 33.1007 93.5622C33.1007 93.939 32.8007 94.2216 32.5007 94.2216C32.2007 94.2216 32.0007 93.8448 32.1007 93.468C32.0007 93.0912 32.3007 92.8086 32.6007 92.8086Z" fill="#62853F"></path><path fill-rule="evenodd" clip-rule="evenodd" d="M34.7009 96.6719C35.0009 96.6719 35.2009 96.9545 35.3009 97.3313C35.3009 97.7081 35.1009 98.0849 34.9009 98.0849C34.6009 98.0849 34.3009 97.8023 34.3009 97.4255C34.2009 96.9545 34.4009 96.6719 34.7009 96.6719Z" fill="#62853F"></path><path fill-rule="evenodd" clip-rule="evenodd" d="M31.7005 96.6719C32.0005 96.6719 32.2005 97.0487 32.1005 97.4255C32.1005 97.8023 31.8005 98.0849 31.5005 98.0849C31.2005 98.0849 31.0005 97.7081 31.0005 97.3313C31.2005 96.9545 31.4005 96.6719 31.7005 96.6719Z" fill="#62853F"></path><path fill-rule="evenodd" clip-rule="evenodd" d="M28.7005 99.2148C29.0005 99.2148 29.2005 99.5916 29.1005 99.9685C29.1005 100.345 28.8005 100.628 28.5005 100.628C28.2005 100.628 28.0005 100.251 28.0005 99.8743C28.1005 99.4974 28.4005 99.2148 28.7005 99.2148Z" fill="#62853F"></path><path fill-rule="evenodd" clip-rule="evenodd" d="M33.4005 101.663C33.7005 101.663 33.9005 102.04 33.9005 102.417C33.8005 102.794 33.6005 103.076 33.3005 103.076C33.0005 103.076 32.8005 102.699 32.9005 102.322C32.8005 101.946 33.1005 101.569 33.4005 101.663Z" fill="#62853F"></path><path fill-rule="evenodd" clip-rule="evenodd" d="M38.0005 103.924C37.8005 103.83 37.6005 103.641 37.6005 103.359C37.5005 103.076 37.6005 102.888 37.7005 102.699C37.8005 103.17 37.9005 103.547 38.0005 103.924Z" fill="#62853F"></path><path fill-rule="evenodd" clip-rule="evenodd" d="M36.5007 99.1191C36.6007 99.1191 36.7007 99.1191 36.8007 99.2133C36.9007 99.5902 37.0007 99.967 37.1007 100.344C37.0007 100.438 36.9007 100.532 36.8007 100.532C36.5007 100.532 36.2007 100.344 36.1007 99.8728C36.0007 99.496 36.2007 99.1191 36.5007 99.1191Z" fill="#62853F"></path><path fill-rule="evenodd" clip-rule="evenodd" d="M35.9005 106.372C36.2005 106.277 36.5005 106.56 36.6005 107.031C36.7005 107.408 36.5005 107.785 36.2005 107.785C35.9005 107.879 35.6005 107.596 35.5005 107.125C35.5005 106.843 35.6005 106.466 35.9005 106.372Z" fill="#62853F"></path><path fill-rule="evenodd" clip-rule="evenodd" d="M29.8001 104.302C30.1001 104.302 30.3001 104.679 30.2001 105.055C30.2001 105.432 29.9001 105.715 29.6001 105.715C29.3001 105.715 29.1001 105.338 29.1001 104.961C29.2001 104.584 29.5001 104.208 29.8001 104.302Z" fill="#62853F"></path><path fill-rule="evenodd" clip-rule="evenodd" d="M26.1005 103.453C26.4005 103.547 26.5005 103.924 26.3005 104.301C26.2005 104.678 25.8005 104.866 25.6005 104.772C25.6005 104.772 25.6005 104.772 25.5005 104.772C25.6005 104.301 25.8005 103.83 25.9005 103.453C26.0005 103.453 26.1005 103.453 26.1005 103.453Z" fill="#62853F"></path><path fill-rule="evenodd" clip-rule="evenodd" d="M26.4005 108.54C26.7005 108.54 26.9005 108.917 26.9005 109.294C26.9005 109.67 26.6005 109.953 26.3005 109.953C26.0005 109.953 25.8005 109.576 25.9005 109.199C25.8005 108.823 26.1005 108.446 26.4005 108.54Z" fill="#62853F"></path><path fill-rule="evenodd" clip-rule="evenodd" d="M29.5001 114.662C29.8001 114.662 30.0001 115.039 30.0001 115.416C30.0001 115.793 29.7001 116.075 29.4001 116.075C29.1001 116.075 28.9001 115.698 29.0001 115.322C29.0001 114.945 29.2001 114.662 29.5001 114.662Z" fill="#62853F"></path><path fill-rule="evenodd" clip-rule="evenodd" d="M34.4005 112.31C34.7005 112.31 34.9005 112.686 34.9005 113.063C34.9005 113.44 34.6005 113.723 34.3005 113.723C34.0005 113.723 33.8005 113.346 33.9005 112.969C33.9005 112.592 34.1005 112.215 34.4005 112.31Z" fill="#62853F"></path><path fill-rule="evenodd" clip-rule="evenodd" d="M40.4005 116.641C40.7005 116.641 41.0005 116.829 41.1005 117.3C41.2005 117.677 41.0005 118.054 40.7005 118.054C40.4005 118.148 40.1005 117.865 40.0005 117.488C40.0005 117.017 40.1005 116.641 40.4005 116.641Z" fill="#62853F"></path><path fill-rule="evenodd" clip-rule="evenodd" d="M22.2003 115.887C22.5003 115.887 22.7003 116.264 22.7003 116.64C22.6003 117.017 22.4003 117.3 22.1003 117.3C21.8003 117.3 21.6003 116.923 21.7003 116.546C21.6003 116.169 21.9003 115.887 22.2003 115.887Z" fill="#62853F"></path><path fill-rule="evenodd" clip-rule="evenodd" d="M15.0003 137.648C15.3003 137.648 15.5003 138.025 15.4003 138.402C15.4003 138.779 15.1003 139.061 14.8003 139.061C14.5003 139.061 14.3003 138.685 14.3003 138.308C14.4003 137.931 14.7003 137.648 15.0003 137.648Z" fill="#62853F"></path><path fill-rule="evenodd" clip-rule="evenodd" d="M18.0007 149.333C18.3007 149.238 18.6007 149.521 18.6007 149.992C18.7007 150.275 18.6007 150.463 18.5007 150.651C18.2007 150.369 17.9007 149.992 17.7007 149.615C17.7007 149.427 17.8007 149.333 18.0007 149.333Z" fill="#62853F"></path><path fill-rule="evenodd" clip-rule="evenodd" d="M21.5007 145.374C21.8007 145.279 22.1007 145.562 22.1007 146.033C22.2007 146.41 22.0007 146.787 21.7007 146.787C21.4007 146.787 21.1007 146.504 21.1007 146.127C21.0007 145.75 21.2007 145.374 21.5007 145.374Z" fill="#62853F"></path><path fill-rule="evenodd" clip-rule="evenodd" d="M21.7002 152.534C21.9002 152.345 22.3002 152.345 22.6002 152.628C22.9002 152.91 23.0002 153.287 22.8002 153.476C22.6002 153.664 22.2002 153.664 21.9002 153.381C21.6002 153.099 21.5002 152.722 21.7002 152.534Z" fill="#62853F"></path><path fill-rule="evenodd" clip-rule="evenodd" d="M25.2005 138.309C25.5005 138.309 25.7005 138.685 25.6005 139.062C25.5005 139.439 25.2005 139.722 24.9005 139.722C24.6005 139.627 24.5005 139.345 24.5005 138.968C24.7005 138.591 25.0005 138.309 25.2005 138.309Z" fill="#62853F"></path><path fill-rule="evenodd" clip-rule="evenodd" d="M25.4009 126.91C25.7009 126.91 25.9009 127.287 25.8009 127.664C25.7009 128.041 25.4009 128.323 25.2009 128.323C24.9009 128.229 24.7009 127.946 24.8009 127.57C24.8009 127.193 25.1009 126.91 25.4009 126.91Z" fill="#62853F"></path><path fill-rule="evenodd" clip-rule="evenodd" d="M32.9001 121.26C33.2001 121.26 33.5001 121.542 33.5001 121.919C33.6001 122.296 33.4001 122.673 33.1001 122.673C32.8001 122.767 32.5001 122.484 32.5001 122.013C32.4001 121.637 32.6001 121.26 32.9001 121.26Z" fill="#62853F"></path><path fill-rule="evenodd" clip-rule="evenodd" d="M39.9001 129.172C40.2001 129.172 40.5001 129.454 40.5001 129.831C40.6001 130.208 40.4001 130.585 40.1001 130.585C39.8001 130.679 39.5001 130.397 39.5001 129.926C39.4001 129.549 39.6001 129.266 39.9001 129.172Z" fill="#62853F"></path><path fill-rule="evenodd" clip-rule="evenodd" d="M29.6003 131.619C29.9003 131.619 30.2003 131.902 30.2003 132.279C30.3003 132.655 30.1003 133.032 29.8003 133.032C29.5003 133.126 29.2003 132.844 29.2003 132.373C29.1003 131.996 29.3003 131.619 29.6003 131.619Z" fill="#62853F"></path><path fill-rule="evenodd" clip-rule="evenodd" d="M36.2009 135.575C36.5009 135.669 36.6009 136.046 36.5009 136.423C36.4009 136.8 36.1009 137.082 35.8009 136.988C35.5009 136.894 35.4009 136.517 35.5009 136.14C35.6009 135.763 35.9009 135.481 36.2009 135.575Z" fill="#62853F"></path><path fill-rule="evenodd" clip-rule="evenodd" d="M44.2009 141.04C44.5009 141.134 44.6009 141.511 44.5009 141.888C44.4009 142.264 44.1009 142.547 43.8009 142.453C43.5009 142.359 43.4009 141.982 43.5009 141.605C43.6009 141.228 43.9009 140.946 44.2009 141.04Z" fill="#62853F"></path><path fill-rule="evenodd" clip-rule="evenodd" d="M46.6005 136.706C46.5005 136.706 46.5005 136.706 46.4005 136.706C46.1005 136.612 46.0005 136.235 46.1005 135.858C46.2005 135.576 46.4005 135.387 46.6005 135.293C46.6005 135.764 46.6005 136.235 46.6005 136.706Z" fill="#62853F"></path><path fill-rule="evenodd" clip-rule="evenodd" d="M39.0007 146.503C39.3007 146.597 39.4007 146.974 39.3007 147.35C39.2007 147.727 38.9007 148.01 38.6007 147.916C38.3007 147.821 38.2007 147.445 38.3007 147.068C38.4007 146.691 38.8007 146.408 39.0007 146.503Z" fill="#62853F"></path><path fill-rule="evenodd" clip-rule="evenodd" d="M29.9001 147.257C30.2001 147.351 30.3001 147.728 30.2001 148.104C30.1001 148.481 29.8001 148.764 29.5001 148.67C29.2001 148.575 29.1001 148.199 29.2001 147.822C29.3001 147.445 29.6001 147.162 29.9001 147.257Z" fill="#62853F"></path><path fill-rule="evenodd" clip-rule="evenodd" d="M34.2009 154.229C34.4009 154.323 34.5009 154.511 34.5009 154.7C34.1009 154.794 33.8009 154.982 33.4009 155.076C33.4009 154.982 33.4009 154.888 33.5009 154.794C33.6009 154.417 33.9009 154.229 34.2009 154.229Z" fill="#62853F"></path><path fill-rule="evenodd" clip-rule="evenodd" d="M44.9009 124.272C44.6009 124.366 44.3009 124.084 44.2009 123.707C44.1009 123.33 44.3009 123.047 44.5009 122.953C44.6009 123.424 44.8009 123.801 44.9009 124.272Z" fill="#62853F"></path><path fill-rule="evenodd" clip-rule="evenodd" d="M59.4002 160.35C46.0002 160.162 36.5002 150.459 35.5002 139.626C35.1002 132.843 36.3002 125.307 40.8002 118.242C45.5002 110.611 47.3002 104.3 49.8002 98.1765C51.4002 94.22 52.3002 92.5243 53.2002 90.7345C53.9002 89.3214 55.9002 88.9446 57.4002 89.7925C58.4002 88.8504 60.4002 88.8504 61.4002 89.7925C62.8002 88.9446 64.8002 89.3214 65.5002 90.7345C66.5002 92.5243 67.3002 94.22 68.9002 98.1765C71.4002 104.3 73.3002 110.517 78.0002 118.242C82.4002 125.401 83.7002 132.843 83.2002 139.626C82.3002 150.459 72.5002 160.162 59.4002 160.35Z" fill="#4F843F"></path><path fill-rule="evenodd" clip-rule="evenodd" d="M59.3999 158.186C46.8999 157.997 37.9999 148.86 36.9999 138.78C36.5999 132.374 37.6999 125.403 41.8999 118.715C46.2999 111.555 47.9999 105.621 50.3999 99.9683C51.8999 96.2002 52.6999 93.6567 53.5999 92.0553C54.3999 90.548 56.2999 90.3596 57.7999 91.8669C58.4999 92.7147 60.1999 92.7147 60.8999 91.8669C62.3999 90.2654 64.2999 90.4538 65.0999 92.0553C65.9999 93.7509 66.7999 96.2944 68.2999 99.9683C70.6999 105.715 72.3999 111.555 76.7999 118.715C80.8999 125.403 82.1999 132.374 81.6999 138.78C80.7999 148.86 71.6999 157.903 59.3999 158.186Z" fill="#D2E67B"></path><path fill-rule="evenodd" clip-rule="evenodd" d="M59.4001 154.795C48.1001 154.607 40.1001 146.411 39.2001 137.367C38.8001 131.621 39.9001 125.309 43.6001 119.28C47.5001 112.78 49.1001 107.505 51.2001 102.324C52.6001 99.0268 53.3001 96.6718 54.1001 95.1645C54.8001 93.7515 56.5001 93.5631 57.9001 94.9761C58.5001 95.7298 60.1001 95.7298 60.7001 94.9761C62.1001 93.5631 63.7001 93.7515 64.5001 95.1645C65.3001 96.6718 66.0001 98.9326 67.4001 102.324C69.5001 107.505 71.1001 112.78 75.0001 119.28C78.8001 125.309 79.9001 131.621 79.4001 137.367C78.7001 146.411 70.5001 154.607 59.4001 154.795Z" fill="#F9EB89"></path><path fill-rule="evenodd" clip-rule="evenodd" d="M59.4006 118.34C54.5006 118.34 48.8006 124.463 47.0006 133.883C45.8006 140.383 50.0006 145.282 55.4006 146.978C57.0006 147.354 58.1006 147.543 59.3006 147.354C60.6006 147.449 61.7006 147.26 63.3006 146.978C68.7006 145.282 72.8006 140.383 71.7006 133.883C70.0006 124.463 64.3006 118.34 59.4006 118.34Z" fill="#FCE26C"></path><path fill-rule="evenodd" clip-rule="evenodd" d="M59.4002 122.012C55.8002 122.012 51.5002 126.533 50.2002 133.599C49.3002 138.403 52.5002 143.773 56.5002 143.302C57.2002 143.207 58.3002 143.207 59.4002 143.207C60.5002 143.207 61.6002 143.207 62.4002 143.302C66.3002 143.678 69.5002 138.403 68.6002 133.599C67.3002 126.533 63.0002 122.012 59.4002 122.012Z" fill="#B5522C"></path><path fill-rule="evenodd" clip-rule="evenodd" d="M52.1002 139.063C49.7002 134.164 54.0002 122.766 59.6002 123.048C61.5002 123.331 63.2002 126.534 64.9002 134.164C65.6002 137.744 63.5002 141.606 60.1002 141.983C55.5002 142.266 53.3002 141.418 52.1002 139.063Z" fill="#D36936"></path><path fill-rule="evenodd" clip-rule="evenodd" d="M54.2999 133.881C55.5999 134.069 56.2999 133.504 56.3999 132.091C56.5999 130.395 57.0999 128.605 57.7999 126.25C58.2999 125.026 57.8999 124.555 56.8999 125.402C55.2999 126.721 54.0999 128.7 53.3999 131.337C53.0999 132.844 53.4999 133.692 54.2999 133.881Z" fill="#DC8552"></path><path fill-rule="evenodd" clip-rule="evenodd" d="M116 81.8417C116 82.0301 116 82.2185 116 82.3127L114.7 124.516C114.6 127.153 112.4 129.414 109.5 129.414H93.4995H77.4995C74.6995 129.414 72.3995 127.247 72.2995 124.516L70.9995 82.3127C70.9995 82.1243 70.9995 81.9359 70.9995 81.8417C71.4995 74.6823 81.9995 76.7547 82.4995 71.6678V60.7402H104.3V71.6678C105 76.7547 115.5 74.5881 116 81.8417Z" fill="#AFB889"></path><path fill-rule="evenodd" clip-rule="evenodd" d="M74.9995 85.4199H113.6L112.5 123.101C112.4 125.362 110.5 127.905 108.2 127.905H93.5995H80.0995C77.6995 127.905 75.7995 125.362 75.7995 123.101L74.9995 85.4199Z" fill="#C3B86B"></path><path fill-rule="evenodd" clip-rule="evenodd" d="M82.5999 57.5352H104.5C105.4 57.5352 106.2 58.2888 106.2 59.1366C106.2 59.9844 105.4 60.7381 104.5 60.7381H82.5999C81.6999 60.7381 80.8999 59.9844 80.8999 59.1366C80.8999 58.2888 81.6999 57.5352 82.5999 57.5352Z" fill="#AFB889"></path><path fill-rule="evenodd" clip-rule="evenodd" d="M84.2993 57.9121H95.0993C95.6993 57.9121 96.0993 58.2889 96.0993 58.8541C96.0993 59.3252 95.6993 59.7962 95.0993 59.7962H84.2993C83.6993 59.7962 83.2993 59.4194 83.2993 58.8541C83.2993 58.3831 83.6993 57.9121 84.2993 57.9121Z" fill="#CDD6A6"></path><path fill-rule="evenodd" clip-rule="evenodd" d="M84.9997 58.1953H91.7997C91.9997 58.1953 92.0997 58.2895 92.0997 58.4779C92.0997 58.6663 91.8997 58.7605 91.7997 58.7605H84.9997C84.7997 58.7605 84.6997 58.5721 84.6997 58.4779C84.6997 58.3837 84.7997 58.1953 84.9997 58.1953Z" fill="white"></path><path fill-rule="evenodd" clip-rule="evenodd" d="M93.5997 57.5362C93.5997 57.5362 89.9997 57.5362 82.6997 57.5362C79.1997 51.6957 88.5997 50.0942 93.5997 50C98.6997 50 108 51.6957 104.5 57.5362C97.1997 57.5362 93.5997 57.5362 93.5997 57.5362Z" fill="#CA9256"></path><path d="M100.999 60.7402H85.7993V71.6678H100.999V60.7402Z" fill="#BD854D"></path><path fill-rule="evenodd" clip-rule="evenodd" d="M84.5996 60.7402C92.0996 60.7402 95.7996 60.7402 95.7996 60.7402C95.6996 64.791 95.6996 68.4649 95.7996 71.762C95.9996 74.4939 96.0996 75.1533 97.5996 75.9069C100.7 77.3199 102.2 79.4866 102.3 82.3127C102.7 82.4069 102.7 96.0663 102.8 122.349C102.7 126.494 101.4 127.813 96.3996 127.907C94.4996 128.001 92.6996 127.907 85.1996 127.813C78.3996 127.624 74.5996 127.247 74.3996 123.856C74.3996 123.856 73.9996 110.008 73.1996 82.2185C72.9996 79.7692 75.8996 77.6968 81.5996 76.0011C83.3996 75.3417 84.3996 73.9286 84.4996 71.762C84.5996 68.2765 84.5996 64.6026 84.5996 60.7402Z" fill="#CDD6A6"></path><path fill-rule="evenodd" clip-rule="evenodd" d="M75.1991 82.6862C75.2991 85.0412 78.3991 85.3238 78.4991 82.7804C78.6991 81.1789 80.0991 80.1427 82.0991 79.2007C83.6991 78.5412 83.1991 77.2224 81.6991 77.4108C77.2991 78.2586 75.0991 80.0485 75.1991 82.6862Z" fill="white"></path><path fill-rule="evenodd" clip-rule="evenodd" d="M95.6992 57.538C96.3992 53.2047 95.4992 50.8496 92.8992 50.8496C86.5992 51.2264 84.3992 52.3569 83.1992 54.5235C82.7992 55.7482 83.0992 56.7844 83.7992 57.6322C91.6992 57.538 95.6992 57.538 95.6992 57.538Z" fill="#D4A775"></path><path fill-rule="evenodd" clip-rule="evenodd" d="M102.6 85.4184C102.7 91.259 102.8 113.774 102.9 122.252C102.8 126.397 101.5 127.716 96.4999 127.81C94.5999 127.904 92.7999 127.81 85.2999 127.81C76.6999 128.187 74.6999 127.15 74.4999 123.759L73.3999 85.3242H102.6V85.4184Z" fill="#DAC871"></path><path fill-rule="evenodd" clip-rule="evenodd" d="M85.7993 60.7402H95.7993C95.6993 64.791 95.6993 68.3707 95.7993 71.6678H85.7993V60.7402Z" fill="#C49259"></path><path fill-rule="evenodd" clip-rule="evenodd" d="M87.1991 61.9626V71.1003C87.1991 71.4771 86.8991 71.8539 86.3991 71.8539C85.9991 71.8539 85.5991 71.5713 85.5991 71.1003V61.9626C85.5991 61.5858 85.8991 61.209 86.3991 61.209C86.7991 61.3032 87.1991 61.5858 87.1991 61.9626Z" fill="white"></path><path fill-rule="evenodd" clip-rule="evenodd" d="M145.4 107C163 107 177.3 120.471 177.3 137.051C177.3 153.63 163 167.101 145.4 167.101C127.8 167.101 113.5 153.63 113.5 137.051C113.5 120.471 127.8 107 145.4 107Z" fill="#AA7733"></path><path fill-rule="evenodd" clip-rule="evenodd" d="M145.399 109.637C161.499 109.637 174.499 121.883 174.499 137.05C174.499 152.216 161.499 164.463 145.399 164.463C129.299 164.463 116.299 152.216 116.299 137.05C116.299 121.883 129.299 109.637 145.399 109.637Z" fill="#E9F2EF"></path><path fill-rule="evenodd" clip-rule="evenodd" d="M145.4 118.777C156.1 118.777 164.8 126.973 164.8 137.053C164.7 147.132 156.1 155.234 145.4 155.234C134.7 155.234 126 147.038 126 136.959C126 126.973 134.7 118.777 145.4 118.777Z" fill="#B3C2C8"></path><path fill-rule="evenodd" clip-rule="evenodd" d="M99.8995 107C117.5 107 131.8 120.471 131.8 137.051C131.8 153.63 117.5 167.101 99.8995 167.101C82.2995 167.101 67.9995 153.63 67.9995 137.051C67.9995 120.471 82.2995 107 99.8995 107Z" fill="#AA7733"></path><path fill-rule="evenodd" clip-rule="evenodd" d="M99.8999 114.158C101.8 114.158 103.4 115.571 103.4 117.455C103.4 119.245 101.9 120.752 99.8999 120.752C97.9999 120.752 96.3999 119.339 96.3999 117.455C96.3999 115.571 97.9999 114.158 99.8999 114.158Z" fill="#95591E"></path><path fill-rule="evenodd" clip-rule="evenodd" d="M92.5991 109.447C94.4991 109.447 96.0991 110.86 96.0991 112.744C96.0991 114.534 94.5991 116.041 92.5991 116.041C90.6991 116.041 89.0991 114.628 89.0991 112.744C89.0991 110.86 90.6991 109.447 92.5991 109.447Z" fill="#95591E"></path><path fill-rule="evenodd" clip-rule="evenodd" d="M107.299 109.447C105.399 109.447 103.799 110.86 103.799 112.744C103.799 114.534 105.299 116.041 107.299 116.041C109.199 116.041 110.799 114.628 110.799 112.744C110.799 110.86 109.199 109.447 107.299 109.447Z" fill="#95591E"></path><path d="M113.5 121.038C113.2 120.661 113.8 120.19 114.1 120.567C118 125.277 119.5 130.458 118.3 136.299C118.2 136.77 117.4 136.581 117.5 136.11C118.7 130.552 117.3 125.466 113.5 121.038ZM84.9998 114.067C85.3998 113.784 85.7998 114.444 85.3998 114.726C79.9998 117.647 76.6998 121.603 75.5998 126.784C75.4998 127.255 74.6998 127.067 74.7998 126.596C75.9998 121.226 79.3998 117.081 84.9998 114.067ZM81.2998 120.284C81.5998 119.908 82.1998 120.284 81.9998 120.661C78.0998 126.219 75.6998 132.248 77.3998 138.277C77.4998 138.748 76.7998 138.937 76.5998 138.466C74.8998 132.248 77.2998 126.031 81.2998 120.284ZM90.7998 117.741C91.0998 117.364 91.6998 117.835 91.3998 118.212C87.8998 122.451 86.9998 127.821 87.1998 133.473C87.1998 133.944 86.3998 133.944 86.3998 133.473C86.1998 127.632 87.0998 122.074 90.7998 117.741ZM95.7998 120.755C95.8998 120.284 96.5998 120.379 96.5998 120.85C96.1998 124.9 95.5998 128.857 94.7998 132.719C94.6998 133.19 93.8998 133.096 93.9998 132.625C94.7998 128.668 95.3998 124.712 95.7998 120.755ZM101.5 122.922C101.4 122.451 102.2 122.263 102.3 122.734C103.8 129.422 104.7 136.77 102.4 142.705C102.2 143.176 101.5 142.893 101.7 142.422C103.8 136.77 103 129.516 101.5 122.922ZM105.6 118.683C105.3 118.306 106 117.835 106.3 118.306C109.1 122.263 110.4 126.502 109.1 131.024C109 131.495 108.2 131.306 108.3 130.835C109.5 126.502 108.3 122.451 105.6 118.683ZM113.9 115.386C113.4 115.292 113.5 114.632 114 114.632C120.3 115.292 123.8 119.531 125.6 125.277C125.7 125.748 125 125.937 124.8 125.466C123.1 120.002 119.9 116.045 113.9 115.386ZM111.6 136.581C111.4 136.11 112.1 135.828 112.3 136.299C115.4 142.234 114.5 149.11 112.1 155.705C111.9 156.176 111.2 155.893 111.4 155.422C113.6 149.016 114.5 142.328 111.6 136.581ZM121.8 128.292C121.6 127.821 122.3 127.538 122.5 127.915C126.5 135.357 126.9 142.799 122.6 149.958C122.4 150.335 121.7 150.052 121.9 149.581C126.1 142.705 125.7 135.545 121.8 128.292ZM118.9 146.567C118.9 146.096 119.7 146.19 119.7 146.661C119.2 151.56 117.9 156.458 114.5 159.755C114.1 160.132 113.6 159.567 113.9 159.284C117.1 156.081 118.4 151.277 118.9 146.567ZM118.7 157.871C119 157.495 119.6 158.06 119.3 158.342C115.6 162.016 111.4 164.748 106.4 165.879C105.9 165.973 105.7 165.313 106.2 165.125C111 164.089 115.1 161.451 118.7 157.871ZM71.0998 129.705C71.1998 129.234 71.9998 129.328 71.8998 129.799C70.5998 136.393 70.0998 143.929 73.8998 148.828C74.1998 149.205 73.5998 149.676 73.2998 149.299C69.3998 144.118 69.7998 136.487 71.0998 129.705ZM81.3998 133.379C81.4998 132.908 82.2998 133.096 82.1998 133.567C80.3998 139.408 79.9998 145.248 82.4998 150.524C82.6998 150.995 81.9998 151.277 81.7998 150.806C79.0998 145.342 79.4998 139.408 81.3998 133.379ZM91.1998 131.589C91.2998 131.118 92.0998 131.306 91.9998 131.777C89.9998 139.125 89.2998 146.284 90.6998 153.444C90.7998 153.915 89.9998 154.009 89.8998 153.538C88.3998 146.379 89.0998 139.031 91.1998 131.589ZM97.0998 143.552C97.1998 143.081 97.9998 143.27 97.8998 143.741C95.9998 150.052 96.2998 155.987 100.3 161.263C100.6 161.639 99.8998 162.11 99.6998 161.734C95.4998 156.27 95.0998 150.052 97.0998 143.552ZM105.2 146.944C105.2 146.473 106 146.473 106 146.944C106.3 152.784 105.8 159.096 102.2 163.335C101.9 163.712 101.3 163.241 101.6 162.864C105 158.719 105.5 152.596 105.2 146.944ZM85.9998 150.806C85.9998 150.335 86.7998 150.241 86.7998 150.712C87.2998 157.118 89.8998 162.11 96.0998 164.371C96.5998 164.56 96.2998 165.219 95.7998 165.031C89.2998 162.77 86.4998 157.495 85.9998 150.806ZM77.1998 152.031C77.0998 151.56 77.8998 151.371 77.9998 151.842C79.0998 156.647 82.1998 160.132 86.7998 162.581C87.1998 162.864 86.8998 163.429 86.3998 163.241C81.5998 160.697 78.2998 157.024 77.1998 152.031Z" fill="#95591E"></path><path fill-rule="evenodd" clip-rule="evenodd" d="M94.137 152.021C95.2949 157.07 103.829 161.037 119.847 162.669C126.937 163.139 131.615 159.095 133.247 156.91C134.531 155.413 138.358 156.117 138.438 158.614C139.31 172.137 90.2054 176.134 78.3511 172.98C65.1977 168.342 57.8168 161.056 57.5765 153.565C56.7486 146.195 63.0338 138.236 75.3508 132.619C86.7735 128.386 136.055 128.229 137.133 141.839C137.411 144.328 133.807 145.346 132.217 143.97C130.282 141.936 125.053 138.31 118.073 139.374C102.478 142.245 94.5713 147.002 94.137 152.021Z" fill="#FF7549"></path><path fill-rule="evenodd" clip-rule="evenodd" d="M58.5673 153.523C58.7318 159.959 65.0159 167.195 78.7914 172.192C83.6644 173.621 93.5009 173.59 108.301 172.1C121.785 170.281 130.728 167.499 135.222 163.655C137.654 161.532 138.387 159.289 137.429 157.022C137.21 156.743 137.097 156.555 137.196 156.551C137.302 156.643 137.408 156.734 137.514 156.826C137.514 156.826 137.62 156.918 137.726 157.009C138.15 157.376 138.389 157.943 138.438 158.614C139.31 172.137 90.2054 176.134 78.3511 172.98C65.1977 168.342 57.8168 161.056 57.5765 153.565C56.7486 146.195 63.0338 138.236 75.3508 132.619C86.7735 128.386 136.055 128.229 137.133 141.839C137.181 142.511 137.017 142.998 136.655 143.494C136.563 143.595 136.563 143.595 136.471 143.695C136.379 143.795 136.287 143.895 136.194 143.995C136.194 143.995 136.181 143.803 136.358 143.507C136.985 141.172 135.836 139.009 133.214 137.1C128.197 133.657 118.909 131.645 105.245 130.972C90.3214 130.736 80.54 131.534 75.9014 133.365C62.9184 139.395 57.8083 147.112 58.5673 153.523Z" fill="#7F7F7F"></path><path d="M88.1988 154.637C88.4626 155.577 88.3485 156.722 87.9203 157.595C87.5763 158.275 86.6587 159.169 85.7368 158.638C84.1093 157.851 84.8568 154.588 85.6562 153.414L85.7609 153.504C85.0594 154.675 84.7904 156.397 85.2772 157.707C85.7777 159.207 87.2052 158.576 87.7177 157.509C88.1527 156.73 88.1689 155.589 87.9119 154.744L88.1988 154.637Z" fill="#FFB79C"></path><path d="M95.7601 155.077C95.1931 155.386 94.6397 155.885 94.4779 156.367C93.9287 158.291 96.4444 159.135 96.179 155.439C96.2837 155.53 96.3884 155.621 96.5978 155.802C96.7858 159.786 93.4868 158.975 94.3732 156.276C94.5282 155.699 94.9837 155.205 95.6486 154.891C95.6486 154.891 95.6486 154.891 95.7601 155.077Z" fill="#FFB79C"></path><path d="M83.6597 153.205C81.1998 154.945 81.8418 159.731 84.4369 161.258C86.5089 162.421 89.0954 161.061 89.9625 159.292L90.2254 158.799L90.4581 159.271C90.6977 159.838 91.1217 160.205 91.7371 160.468C93.385 161.265 95.3466 160.893 96.6722 159.971C97.5298 159.453 98.3598 158.552 99.1761 157.459C99.2821 157.55 99.2821 157.55 99.4872 157.638C99.1321 158.231 97.479 160.129 97.0963 160.338C95.4802 161.369 93.3203 161.749 91.5664 160.86C91.0502 160.593 90.6261 160.226 90.3012 159.855C89.2359 161.633 86.4236 162.618 84.3447 161.358C81.4385 159.652 80.7965 154.866 83.5399 152.921L83.6597 153.205Z" fill="#FFB79C"></path><path d="M89.9914 159.353C90.4481 157.629 90.7193 156.008 90.7022 154.399L91.1894 154.473C90.7193 156.008 90.5442 157.625 90.4785 159.427L89.9914 159.353Z" fill="#FFB79C"></path><path d="M78.7688 153.187C79.7291 161.013 80.2144 162.24 87.6699 166.53C87.9806 166.709 88.4478 166.305 88.7309 166.101C88.9426 166.284 89.2533 166.463 89.6491 166.446C90.7514 166.592 97.5228 162.757 98.2801 162.245C99.7877 161.126 100.688 159.841 101.602 158.748C101.707 158.839 102.315 159.005 102.421 159.097C101.514 160.286 100.204 161.397 98.6045 162.615C97.38 163.53 90.8134 167.452 89.4142 167.32C89.1173 167.332 88.8067 167.153 88.595 166.97C88.3119 167.174 87.9298 167.382 87.4144 167.116C79.853 162.734 79.5243 160.926 78.4512 152.913L78.7688 153.187Z" fill="#FFB79C"></path><path d="M75.2427 152.827C75.7782 157.509 77.3407 161.283 79.2304 164.084C80.3444 165.765 84.7134 169.901 87.2668 169.505C87.5638 169.493 87.656 169.393 87.9461 169.285C88.1579 169.468 88.6735 169.734 88.9705 169.721C90.3772 169.95 97.8378 165.987 99.1688 165.163C101.442 163.627 103.305 161.916 105.055 160.018C105.26 160.106 105.663 160.185 105.768 160.276C103.926 162.274 101.766 163.997 99.3943 165.537C97.8791 166.561 90.4323 170.716 88.7217 170.404C88.4178 170.321 88.213 170.233 87.9022 170.055C87.711 170.159 87.612 170.163 87.414 170.171C84.6626 170.575 79.969 166.069 78.756 164.392C76.8595 161.496 75.594 157.709 74.9526 152.935L75.2496 152.923L75.2427 152.827Z" fill="#FFB79C"></path><path d="M84.2708 172.963C80.9812 172.153 79.0882 170.333 77.2047 167.279C75.0987 163.855 73.7832 159.163 73.3422 153.009L73.5375 153.001C73.9717 159.06 75.4825 163.744 77.5816 167.074C79.674 170.309 83.0586 172.445 86.8227 173.045L86.3346 173.066C85.8464 173.086 84.6681 173.041 84.2708 172.963Z" fill="#FFB79C"></path><path d="M89.298 172.979C92.756 172.737 96.8174 171.221 99.9328 168.978C102.666 166.943 104.842 164.067 107.26 160.413C107.458 160.405 107.967 160.576 108.066 160.571C105.655 164.321 102.984 167.217 100.25 169.253C97.7084 171.184 95.6131 172.424 92.7698 172.928C91.6808 172.974 90.4929 173.024 89.298 172.979Z" fill="#FFB79C"></path><path d="M104.73 171.889C107.67 168.909 110.948 165.151 112.647 161.366C112.843 161.357 112.745 161.362 112.843 161.357C110.89 165.725 108.71 168.293 105.228 171.964L104.835 171.98L104.73 171.889Z" fill="#FFB79C"></path><path d="M114.044 170.648C114.915 167.762 116.156 164.576 118.128 162.023C118.324 162.015 118.324 162.015 118.526 162.101C116.547 164.559 115.403 167.742 114.532 170.628C114.434 170.632 114.337 170.636 114.239 170.64L114.044 170.648Z" fill="#FFB79C"></path><path d="M118.986 169.732C119.682 167.138 121.246 164.316 122.85 162.063C123.045 162.055 123.045 162.055 123.241 162.047C121.441 164.308 120.36 167.014 119.664 169.609L118.986 169.732Z" fill="#FFB79C"></path><path d="M126.26 167.746C126.751 165.17 127.602 163.619 127.314 160.887C127.499 160.785 127.499 160.785 127.594 160.781C127.849 163.041 127.53 165.326 127.108 167.521C126.821 167.533 126.541 167.639 126.26 167.746Z" fill="#FFB79C"></path><path d="M132.258 165.189C132.994 161.838 131.244 161.912 129.805 159.507C129.896 159.408 129.903 159.503 129.993 159.404C131.12 161.538 133.383 161.822 132.814 164.786C132.634 164.983 132.536 164.987 132.258 165.189Z" fill="#FFB79C"></path><path d="M136.837 161.58C136.355 159.016 133.984 159.116 131.925 158.054L132.017 157.955C134.273 159.008 136.222 158.543 137.29 160.986C137.106 161.186 136.922 161.385 136.837 161.58Z" fill="#FFB79C"></path><path d="M137.897 157.557C136.67 157.123 135.138 156.604 133.235 156.49C133.328 156.389 133.328 156.389 133.42 156.288C135.124 156.41 136.536 156.642 137.763 157.076C137.877 157.266 137.883 157.363 137.897 157.557Z" fill="#FFB79C"></path><path d="M67.2523 153.61C66.9827 155.334 66.9664 156.477 67.0278 157.33C67.1029 158.374 67.5158 158.642 67.8101 158.629C69.8703 158.542 69.408 154.851 70.4966 153.569L70.7704 153.272L70.9735 153.358C70.7064 153.75 70.4394 154.142 70.1724 154.534C69.6656 155.697 69.512 159.033 67.851 159.198C67.3605 159.219 66.7309 158.675 66.7267 157.248C66.6585 156.299 66.766 155.058 67.0356 153.334L67.2318 153.326L67.2523 153.61Z" fill="#FFB79C"></path><path d="M65.4542 153.753C64.9024 155.682 64.6825 156.74 64.5816 158.078C64.4669 159.227 64.5807 162.176 66.3857 162.577C69.8906 163.287 70.4159 156.88 71.7342 154.632C72.0867 154.046 72.2492 153.562 72.7137 153.161L73.1073 153.145L73.3177 153.327C72.7548 153.732 72.3955 154.223 72.043 154.81C70.5417 157.256 70.5425 164.117 66.5389 163.333C64.4387 162.945 64.4164 159.896 64.5106 158.463C64.6115 157.124 64.8887 155.492 65.4405 153.563L65.6372 153.555L65.4542 153.753Z" fill="#FFB79C"></path><path d="M73.4663 153.222C72.7852 154.481 72.4052 155.917 72.0318 157.448C71.2356 161.174 72.3849 165.195 70.7053 168.674C70.6027 168.584 70.1031 168.322 70.0005 168.231C71.5081 165.043 71.1131 160.8 71.8266 157.267C72.1041 155.741 72.4974 154.494 73.0826 153.238L73.2612 153.041L73.4663 153.222Z" fill="#FFB79C"></path><path d="M73.6565 153.205C73.5958 153.68 73.4426 154.159 73.3882 154.729C72.9151 158.717 73.4513 168.045 75.7018 171.158C75.0354 170.904 74.7452 170.728 74.4551 170.552C73.2155 167.3 72.7301 158.725 72.9131 154.56C72.9674 153.991 73.0282 153.516 73.1814 153.037L73.4588 153.025L73.6565 153.205Z" fill="#FFB79C"></path><path d="M62.9113 163.423C63.0004 160.574 63.471 157.615 64.3434 154.828C62.7442 156.982 61.8448 159.39 61.7423 162.05C61.5347 161.869 61.4241 161.684 61.3135 161.499C61.6938 158.638 63.0719 156.114 64.748 153.673L65.3305 153.648L65.3372 153.743C63.8823 156.554 63.4588 160.175 63.5275 163.871C63.2228 163.694 63.1122 163.509 62.9113 163.423Z" fill="#FFB79C"></path><path d="M59.7445 159.132C59.8787 158.272 60.1107 157.407 60.4472 156.633C60.9587 155.567 61.6723 154.587 62.5882 153.693L62.979 153.677L62.8881 153.775C60.7633 155.575 60.4879 157.201 60.2805 159.774C59.9738 159.597 59.8557 159.317 59.7445 159.132Z" fill="#FFB79C"></path><path d="M58.6499 156.45C59.2699 155.471 59.9952 154.583 61.0224 153.778L61.4158 153.761L61.1344 153.964C59.9105 154.777 59.3957 155.847 58.7961 157.111C58.7824 156.921 58.6635 156.64 58.6499 156.45Z" fill="#FFB79C"></path><path d="M87.9777 150.238C88.1055 149.283 87.828 148.154 87.2772 147.321C86.8379 146.674 85.7976 145.863 84.9504 146.374C83.4452 147.293 84.6557 150.474 85.6185 151.574L85.7096 151.475C84.8447 150.371 84.3305 148.681 84.6269 147.338C84.9096 145.805 86.419 146.312 87.0814 147.33C87.6253 148.067 87.8049 149.2 87.6704 150.061L87.9777 150.238Z" fill="#FFB79C"></path><path d="M95.4447 148.989C94.8369 148.73 94.2154 148.281 93.9856 147.815C93.1641 145.949 95.5437 144.898 95.8091 148.594C95.9002 148.495 95.9913 148.396 96.1735 148.198C95.7897 144.222 92.6269 145.306 93.8945 147.914C94.1311 148.474 94.6547 148.928 95.3604 149.183C95.3536 149.088 95.3536 149.088 95.4447 148.989Z" fill="#FFB79C"></path><path d="M83.6979 151.964C81.0037 150.442 80.9564 145.631 83.3171 143.895C85.2099 142.563 87.9756 143.698 89.0909 145.383L89.4227 145.851L89.5864 145.362C89.7433 144.778 90.1122 144.378 90.6862 144.065C92.2101 143.134 94.2131 143.338 95.6558 144.047C96.5824 144.489 97.5364 145.315 98.5043 146.333C98.5965 146.233 98.5965 146.233 98.7948 146.225C98.3501 145.57 96.4419 143.918 96.0316 143.743C94.2777 142.854 92.0765 142.658 90.4604 143.689C89.9855 143.998 89.6166 144.399 89.3469 144.795C88.0334 143.118 85.097 142.376 83.2111 143.803C80.5668 145.743 80.6142 150.554 83.6195 152.256L83.6979 151.964Z" fill="#FFB79C"></path><path d="M89.1098 145.322C89.8062 146.996 90.3038 148.585 90.5131 150.185L90.987 150.07C90.3038 148.585 89.9023 146.992 89.5836 145.207L89.1098 145.322Z" fill="#FFB79C"></path><path d="M78.9103 152.388C78.7416 144.529 79.0479 143.269 85.8426 138.378C86.1257 138.174 86.648 138.536 86.9587 138.715C87.1359 138.419 87.4259 138.311 87.8217 138.295C88.8965 138.057 96.1773 141.3 97.0034 141.744C98.6625 142.73 99.7416 143.931 100.807 144.942C100.899 144.842 101.479 144.625 101.571 144.526C100.499 143.42 99.0377 142.426 97.2728 141.349C95.9243 140.543 88.8346 137.197 87.4629 137.446C87.166 137.459 86.8829 137.663 86.6988 137.862C86.3881 137.683 85.9785 137.509 85.5044 137.817C78.6177 142.808 78.5506 144.633 78.634 152.688L78.9103 152.388Z" fill="#FFB79C"></path><path d="M75.4945 153.046C75.3551 148.348 76.3666 144.464 77.8431 141.522C78.7092 139.757 82.4584 135.279 85.0531 135.457C85.3501 135.445 85.456 135.536 85.7668 135.715C85.951 135.515 86.4254 135.207 86.7155 135.099C88.0809 134.753 96.0649 138.065 97.506 138.772C99.9854 140.108 102.083 141.652 104.094 143.391C104.286 143.287 104.675 143.174 104.767 143.074C102.656 141.339 100.255 139.712 97.6765 138.381C96.0235 137.491 88.0258 133.988 86.3703 134.442C86.0802 134.55 85.8891 134.654 85.6058 134.858C85.4009 134.771 85.3019 134.775 85.1039 134.783C82.3112 134.613 78.2925 139.487 77.3274 141.256C75.8579 144.294 75.1433 148.164 75.1906 152.963L75.4876 152.95L75.4945 153.046Z" fill="#FFB79C"></path><path d="M81.6265 132.388C78.4726 133.471 76.851 135.439 75.4152 138.633C73.8045 142.119 73.1742 146.989 73.6152 153.143L73.8105 153.134C73.3763 147.075 74.2086 142.292 75.8193 138.806C77.43 135.319 80.4889 132.911 84.1513 132.091L83.6631 132.112C83.1818 132.227 82.017 132.371 81.6265 132.388Z" fill="#FFB79C"></path><path d="M86.718 131.677C90.1895 131.627 94.4434 132.791 97.8615 134.759C100.87 136.551 103.445 139.226 106.373 142.654C106.571 142.646 107.052 142.433 107.144 142.334C104.21 138.81 101.139 136.156 98.131 134.363C95.3274 132.658 93.067 131.601 90.1688 131.34C89.0868 131.481 87.899 131.531 86.718 131.677Z" fill="#FFB79C"></path><path d="M102.209 131.259C105.559 133.975 109.357 137.433 111.589 141.053C111.786 141.045 111.687 141.049 111.779 140.95C109.211 136.773 106.674 134.404 102.694 131.143L102.301 131.16L102.209 131.259Z" fill="#FFB79C"></path><path d="M111.637 131.561C112.916 134.356 114.605 137.419 116.931 139.79C117.126 139.782 117.126 139.782 117.315 139.679C114.996 137.403 113.404 134.336 112.126 131.54C112.028 131.544 111.931 131.549 111.833 131.553L111.637 131.561Z" fill="#FFB79C"></path><path d="M116.664 131.868C117.727 134.389 119.685 137.061 121.602 139.166C121.797 139.157 121.797 139.157 121.993 139.149C119.88 137.053 118.419 134.454 117.355 131.934L116.664 131.868Z" fill="#FFB79C"></path><path d="M124.152 133.206C125 135.725 126.063 137.194 126.159 139.934C126.357 140.02 126.357 140.02 126.453 140.016C126.39 137.747 125.752 135.503 125.026 133.358C124.739 133.37 124.445 133.288 124.152 133.206Z" fill="#FFB79C"></path><path d="M130.419 135.154C131.627 138.423 129.871 138.402 128.789 141.009C128.893 141.099 128.887 141.005 128.991 141.095C129.807 138.879 132.016 138.406 131.029 135.508C130.821 135.327 130.717 135.236 130.419 135.154Z" fill="#FFB79C"></path><path d="M135.418 138.294C135.307 140.883 132.935 140.983 131.042 142.211L131.147 142.302C133.239 141.066 135.242 141.364 135.953 138.846C135.742 138.664 135.53 138.481 135.418 138.294Z" fill="#FFB79C"></path><path d="M136.974 142.179C135.817 142.715 134.367 143.359 132.493 143.633C132.599 143.726 132.599 143.726 132.713 143.915C134.388 143.65 135.759 143.3 136.916 142.765C136.995 142.47 136.981 142.276 136.974 142.179Z" fill="#FFB79C"></path><path d="M67.3033 153.278C66.788 151.587 66.6081 150.453 66.5467 149.599C66.4716 148.556 66.8436 148.255 67.1379 148.242C69.1981 148.155 69.268 151.863 70.5339 153.046L70.8487 153.318L71.0381 153.215C70.7165 152.848 70.3949 152.481 70.0733 152.114C69.4028 151.001 68.7716 147.698 67.097 147.673C66.6064 147.694 66.0587 148.288 66.2592 149.706C66.3274 150.655 66.6123 151.88 67.1275 153.57L67.3237 153.562L67.3033 153.278Z" fill="#FFB79C"></path><path d="M65.5494 153.285C64.7237 151.413 64.3531 150.38 64.0605 149.058C63.7815 147.926 63.4709 144.984 65.208 144.435C68.5907 143.434 70.0334 149.76 71.6669 151.883C72.1016 152.437 72.3326 152.904 72.8521 153.263L73.2457 153.246L73.4288 153.048C72.811 152.693 72.3831 152.234 71.9484 151.681C70.0128 149.475 69.0279 142.653 65.1601 143.769C63.1278 144.332 63.5436 147.364 63.8431 148.781C64.1358 150.104 64.6458 151.702 65.4715 153.574L65.6684 153.566L65.5494 153.285Z" fill="#FFB79C"></path><path d="M73.6342 153.083C72.7802 151.889 72.2008 150.494 71.6148 149.005C70.3002 145.369 70.8713 141.18 68.7199 137.959C68.6306 138.057 68.1708 138.361 68.0815 138.459C70.0278 141.5 70.2309 145.751 71.4362 149.202C71.9263 150.695 72.4924 151.902 73.2504 153.1L73.4556 153.28L73.6342 153.083Z" fill="#FFB79C"></path><path d="M73.807 153.135C73.6827 152.669 73.466 152.206 73.3354 151.645C72.3288 147.721 71.6076 138.401 73.4263 135.109C72.798 135.42 72.5333 135.621 72.2685 135.821C71.4735 139.163 72.1439 147.73 72.8857 151.853C73.0163 152.414 73.1405 152.881 73.3573 153.344L73.6347 153.332L73.807 153.135Z" fill="#FFB79C"></path><path d="M61.6607 144.095C62.154 146.918 63.0424 149.82 64.3055 152.516C62.4101 150.511 61.174 148.193 60.6941 145.558C60.5134 145.755 60.4299 145.948 60.3463 146.142C61.1308 148.953 62.859 151.345 64.8716 153.63L65.454 153.605L65.4473 153.511C63.6018 150.839 62.6663 147.276 62.2026 143.503C61.9317 143.799 61.8481 143.992 61.6607 144.095Z" fill="#FFB79C"></path><path d="M59.069 148.662C59.3255 149.506 59.6797 150.346 60.1248 151.087C60.7924 152.198 61.6351 153.018 62.6732 153.829L63.0639 153.812L62.9595 153.722C60.5903 152.112 60.084 150.519 59.5099 147.979C59.2304 148.18 59.1531 148.469 59.069 148.662Z" fill="#FFB79C"></path><path d="M58.3304 151.447C59.0873 152.368 59.9357 153.19 61.0724 153.904L61.4658 153.887L61.1571 153.71C59.8169 152.909 59.1583 151.984 58.3809 150.778C58.3946 150.968 58.3167 151.257 58.3304 151.447Z" fill="#FFB79C"></path><path fill-rule="evenodd" clip-rule="evenodd" d="M94.0703 152.209C94.2389 153.198 94.8128 154.269 95.7852 155.323C94.868 155.064 93.5661 155.021 91.8864 155.293C89.7155 155.686 88.0013 155.461 86.7439 154.619C86.0052 154.053 85.2872 153.785 84.6895 153.811C82.8895 153.79 81.4811 153.651 80.6703 153.487C75.1638 153.327 68.4895 153.616 60.6336 154.156C59.7508 154.394 59.0811 154.821 58.5316 155.542C58.3838 154.851 58.2497 154.359 58.3079 153.759C58.2734 153.262 58.2321 152.666 58.2903 152.065C58.9363 152.735 59.6681 153.201 60.5715 153.262C68.455 153.12 75.1225 152.731 80.5807 152.196C81.3638 151.962 82.7447 151.703 84.5309 151.526C85.1286 151.5 85.8052 151.172 86.4612 150.546C87.5945 149.6 89.2673 149.228 91.4796 149.431C93.1868 149.557 94.475 149.401 95.3508 149.064C94.5301 150.196 94.101 151.211 94.0703 152.209Z" fill="#FFDDCF"></path><path fill-rule="evenodd" clip-rule="evenodd" d="M92.4799 152.172C92.576 153.505 91.369 154.606 89.8892 154.669C88.4094 154.731 87.0515 153.738 86.9554 152.404C86.8593 151.071 88.0663 149.969 89.5461 149.907C91.0259 149.845 92.3907 150.934 92.4799 152.172Z" fill="#FFB79C"></path></g><path d="M31.961 42.132C31.367 42.132 30.806 42.033 30.278 41.835C29.7573 41.6297 29.2953 41.329 28.892 40.933C28.496 40.537 28.1843 40.0457 27.957 39.459C27.7297 38.8723 27.616 38.1977 27.616 37.435C27.616 36.6723 27.7333 35.9977 27.968 35.411C28.21 34.8243 28.54 34.333 28.958 33.937C29.3833 33.5337 29.8747 33.233 30.432 33.035C30.9893 32.8297 31.587 32.727 32.225 32.727C32.665 32.727 33.0647 32.793 33.424 32.925C33.7907 33.057 34.0803 33.266 34.293 33.552C34.513 33.8307 34.623 34.201 34.623 34.663C34.623 35.2423 34.447 35.686 34.095 35.994C33.7503 36.302 33.3067 36.456 32.764 36.456C32.1993 36.456 31.763 36.302 31.455 35.994C31.147 35.6787 30.993 35.2753 30.993 34.784C30.993 34.542 31.0333 34.3183 31.114 34.113C31.1947 33.9077 31.2973 33.728 31.422 33.574C30.9013 33.684 30.4247 33.9003 29.992 34.223C29.5593 34.5383 29.211 34.96 28.947 35.488C28.6903 36.016 28.562 36.654 28.562 37.402C28.562 38.128 28.672 38.7513 28.892 39.272C29.1193 39.7927 29.42 40.2143 29.794 40.537C30.1753 40.8597 30.6043 41.0907 31.081 41.23C30.9783 41.0613 30.894 40.8743 30.828 40.669C30.7693 40.4563 30.74 40.2217 30.74 39.965C30.74 39.459 30.9013 39.0373 31.224 38.7C31.5467 38.3627 32.0087 38.194 32.61 38.194C33.1453 38.194 33.589 38.359 33.941 38.689C34.293 39.0117 34.469 39.481 34.469 40.097C34.469 40.5737 34.359 40.9623 34.139 41.263C33.919 41.5637 33.6183 41.7837 33.237 41.923C32.863 42.0623 32.4377 42.132 31.961 42.132ZM31.873 34.685C31.873 35.015 31.9573 35.2643 32.126 35.433C32.2947 35.6017 32.5147 35.686 32.786 35.686C33.0867 35.686 33.3177 35.5907 33.479 35.4C33.6477 35.202 33.732 34.9563 33.732 34.663C33.732 34.267 33.5927 33.9773 33.314 33.794C33.0427 33.6033 32.7053 33.508 32.302 33.508C32.148 33.6913 32.038 33.882 31.972 34.08C31.906 34.2707 31.873 34.4723 31.873 34.685ZM31.62 40.119C31.62 40.5957 31.7483 41.01 32.005 41.362C32.027 41.362 32.06 41.362 32.104 41.362C32.5367 41.362 32.8887 41.2593 33.16 41.054C33.4387 40.8413 33.578 40.5223 33.578 40.097C33.578 39.7743 33.4973 39.5067 33.336 39.294C33.182 39.074 32.94 38.964 32.61 38.964C32.324 38.964 32.0857 39.063 31.895 39.261C31.7117 39.4517 31.62 39.7377 31.62 40.119ZM35.885 42V35.906H41.616V36.698H39.691V38.414C39.8743 38.304 40.076 38.2123 40.296 38.139C40.5233 38.0583 40.7727 38.018 41.044 38.018C41.418 38.018 41.7553 38.1133 42.056 38.304C42.364 38.4947 42.6097 38.777 42.793 39.151C42.9763 39.525 43.068 39.9833 43.068 40.526C43.068 41.186 42.9727 41.7067 42.782 42.088C42.5913 42.4693 42.3237 42.7847 41.979 43.034C41.6197 43.2907 41.187 43.4667 40.681 43.562C40.175 43.6647 39.526 43.716 38.734 43.716H37.909C37.601 43.716 37.3627 43.738 37.194 43.782C37.0253 43.826 36.8787 43.8883 36.754 43.969C36.6367 44.0497 36.545 44.1633 36.479 44.31C36.413 44.4567 36.38 44.651 36.38 44.893C36.38 45.113 36.391 45.311 36.413 45.487L35.511 45.531C35.489 45.399 35.4707 45.2523 35.456 45.091C35.4413 44.937 35.434 44.7977 35.434 44.673C35.434 44.3503 35.4927 44.0753 35.61 43.848C35.7273 43.628 35.8777 43.4483 36.061 43.309C36.2517 43.1697 36.4643 43.0707 36.699 43.012C36.941 42.9533 37.2453 42.924 37.612 42.924H38.635C39.2363 42.924 39.724 42.8983 40.098 42.847C40.4793 42.7957 40.7873 42.7113 41.022 42.594C41.2567 42.484 41.4583 42.3373 41.627 42.154C41.7737 41.9927 41.891 41.7837 41.979 41.527C42.0743 41.263 42.122 40.9403 42.122 40.559C42.122 39.9943 42.0083 39.5653 41.781 39.272C41.561 38.9713 41.2383 38.821 40.813 38.821C40.615 38.821 40.417 38.865 40.219 38.953C40.021 39.0337 39.845 39.1327 39.691 39.25V42H38.745V36.698H36.831V42H35.885ZM46.4677 42.132C46.0277 42.132 45.6317 42.0623 45.2797 41.923C44.9277 41.7837 44.649 41.5783 44.4437 41.307C44.2383 41.0357 44.1357 40.7093 44.1357 40.328C44.1357 39.9467 44.231 39.6167 44.4217 39.338C44.6197 39.052 44.9313 38.8283 45.3567 38.667V35.906H51.1097V36.698H49.0527V38.392H51.1097V39.162H49.0527V39.514C49.0527 40.0053 49.0087 40.3903 48.9207 40.669C48.84 40.9477 48.7227 41.1823 48.5687 41.373C48.3413 41.6517 48.048 41.8497 47.6887 41.967C47.3367 42.077 46.9297 42.132 46.4677 42.132ZM46.2257 36.698V38.458C46.5337 38.414 46.8747 38.392 47.2487 38.392H48.1177V36.698H46.2257ZM46.5557 41.34C46.8783 41.34 47.1533 41.2923 47.3807 41.197C47.6153 41.0943 47.795 40.922 47.9197 40.68C48.0517 40.4307 48.1177 40.0897 48.1177 39.657V39.162H47.1717C46.7977 39.162 46.4787 39.184 46.2147 39.228C45.958 39.272 45.738 39.3453 45.5547 39.448C45.2393 39.6313 45.0817 39.921 45.0817 40.317C45.0817 40.6543 45.221 40.911 45.4997 41.087C45.7783 41.2557 46.1303 41.34 46.5557 41.34ZM50.5669 32.727C50.9776 32.727 51.3589 32.793 51.7109 32.925C52.0629 33.0497 52.3636 33.2403 52.6129 33.497C52.7889 33.673 52.9392 33.8893 53.0639 34.146C53.1886 34.3953 53.2839 34.7253 53.3499 35.136C53.4232 35.5393 53.4599 36.0637 53.4599 36.709V42H52.5139V36.896C52.5139 36.324 52.4882 35.862 52.4369 35.51C52.3929 35.1507 52.3232 34.861 52.2279 34.641C52.1399 34.421 52.0299 34.234 51.8979 34.08C51.7366 33.8893 51.5386 33.7537 51.3039 33.673C51.0619 33.5923 50.7942 33.552 50.5009 33.552C49.9656 33.552 49.5659 33.6877 49.3019 33.959C49.0379 34.223 48.9059 34.5677 48.9059 34.993C48.9059 35.1837 48.9352 35.4 48.9939 35.642C49.0452 35.8767 49.1406 36.1077 49.2799 36.335H48.2789C48.1836 36.159 48.1066 35.95 48.0479 35.708C47.9892 35.466 47.9599 35.2277 47.9599 34.993C47.9599 34.4723 48.0772 34.047 48.3119 33.717C48.5466 33.3797 48.8619 33.1303 49.2579 32.969C49.6539 32.8077 50.0902 32.727 50.5669 32.727ZM57.0648 42.121C56.5368 42.121 56.1298 41.9487 55.8438 41.604C55.7631 41.494 55.6861 41.3693 55.6128 41.23C55.5468 41.0907 55.4918 40.9073 55.4478 40.68C55.4111 40.4527 55.3928 40.152 55.3928 39.778V35.906H56.3388V39.547C56.3388 39.8843 56.3535 40.1923 56.3828 40.471C56.4121 40.7423 56.5001 40.9513 56.6468 41.098C56.7201 41.1713 56.8045 41.23 56.8998 41.274C57.0025 41.3107 57.1235 41.329 57.2628 41.329C57.4608 41.329 57.6478 41.2813 57.8238 41.186C57.9998 41.0907 58.1648 40.9367 58.3188 40.724V35.906H59.2648V41.208H63.1038V35.906H64.0498V45.113H63.0928V42H58.3188V41.615C58.1795 41.747 58.0071 41.8643 57.8018 41.967C57.5965 42.0697 57.3508 42.121 57.0648 42.121ZM65.9846 42V35.906H71.6606V36.698H69.7466V38.436C69.8933 38.348 70.0839 38.2563 70.3186 38.161C70.5533 38.0657 70.8319 38.018 71.1546 38.018C71.7046 38.018 72.1336 38.1757 72.4416 38.491C72.7569 38.799 72.9146 39.2317 72.9146 39.789C72.9146 40.053 72.8779 40.306 72.8046 40.548C72.7313 40.79 72.6359 41.01 72.5186 41.208H74.5866V35.906H75.5326V42H68.8006V41.208H71.5616C71.6863 41.0247 71.7853 40.823 71.8586 40.603C71.9319 40.3757 71.9686 40.1373 71.9686 39.888C71.9686 39.4993 71.8769 39.2243 71.6936 39.063C71.5103 38.9017 71.2756 38.821 70.9896 38.821C70.7549 38.821 70.5276 38.8687 70.3076 38.964C70.0949 39.0593 69.9079 39.1693 69.7466 39.294V40.416H68.8006V36.698H66.9306V42H65.9846ZM70.7586 34.542C70.5459 34.542 70.3699 34.476 70.2306 34.344C70.0913 34.2047 70.0216 34.025 70.0216 33.805C70.0216 33.5923 70.0913 33.4163 70.2306 33.277C70.3699 33.1377 70.5459 33.068 70.7586 33.068C70.9713 33.068 71.1473 33.1377 71.2866 33.277C71.4259 33.4163 71.4956 33.5923 71.4956 33.805C71.4956 34.025 71.4259 34.2047 71.2866 34.344C71.1473 34.476 70.9713 34.542 70.7586 34.542ZM79.371 42.132C78.931 42.132 78.535 42.0623 78.183 41.923C77.831 41.7837 77.5523 41.5783 77.347 41.307C77.1417 41.0357 77.039 40.7093 77.039 40.328C77.039 39.9467 77.1343 39.613 77.325 39.327C77.523 39.041 77.8347 38.821 78.26 38.667V35.906H84.013V36.698H81.956V38.392H82.132C82.704 38.392 83.166 38.436 83.518 38.524C83.87 38.6047 84.1707 38.7403 84.42 38.931C84.6107 39.0777 84.761 39.272 84.871 39.514C84.981 39.7487 85.036 40.02 85.036 40.328C85.036 40.8853 84.8673 41.318 84.53 41.626C84.2 41.934 83.7307 42.088 83.122 42.088C82.9533 42.088 82.77 42.077 82.572 42.055C82.374 42.033 82.1907 41.9963 82.022 41.945L82.231 41.208C82.473 41.2813 82.7407 41.318 83.034 41.318C83.738 41.318 84.09 40.9733 84.09 40.284C84.09 39.9467 83.9947 39.701 83.804 39.547C83.6207 39.3857 83.386 39.283 83.1 39.239C82.814 39.1877 82.517 39.162 82.209 39.162H81.956V39.514C81.956 40.0053 81.912 40.3903 81.824 40.669C81.7433 40.9477 81.626 41.1823 81.472 41.373C81.2447 41.6517 80.9513 41.8497 80.592 41.967C80.24 42.077 79.833 42.132 79.371 42.132ZM79.129 36.698V38.458C79.437 38.414 79.778 38.392 80.152 38.392H81.021V36.698H79.129ZM77.985 40.317C77.985 40.6543 78.1243 40.911 78.403 41.087C78.6817 41.2557 79.0337 41.34 79.459 41.34C79.7817 41.34 80.0567 41.2923 80.284 41.197C80.5187 41.0943 80.6983 40.922 80.823 40.68C80.955 40.438 81.021 40.097 81.021 39.657V39.162H80.075C79.701 39.162 79.382 39.184 79.118 39.228C78.8613 39.272 78.6413 39.3453 78.458 39.448C78.1427 39.6313 77.985 39.921 77.985 40.317ZM88.3161 42.132C87.9275 42.132 87.5718 42.0367 87.2491 41.846C86.9265 41.648 86.6698 41.3437 86.4791 40.933C86.2958 40.5223 86.2041 39.987 86.2041 39.327C86.2041 38.7257 86.2921 38.205 86.4681 37.765C86.6515 37.3177 86.9008 36.9473 87.2161 36.654C87.5315 36.3607 87.8871 36.1407 88.2831 35.994C88.6791 35.8473 89.0898 35.774 89.5151 35.774C89.9771 35.774 90.3731 35.84 90.7031 35.972C91.0405 36.0967 91.3448 36.2653 91.6161 36.478V35.906H97.1601V36.698H95.2901V42H94.3441V36.698H92.4301V42H91.4841V37.523C91.2348 37.2223 90.9488 36.9913 90.6261 36.83C90.3108 36.6687 89.9295 36.588 89.4821 36.588C88.8368 36.588 88.3051 36.797 87.8871 37.215C87.4691 37.6257 87.2125 38.1573 87.1171 38.81C87.3078 38.6853 87.5168 38.5863 87.7441 38.513C87.9715 38.4323 88.2061 38.392 88.4481 38.392C88.9761 38.392 89.4015 38.5533 89.7241 38.876C90.0541 39.1987 90.2191 39.635 90.2191 40.185C90.2191 40.7937 90.0468 41.2703 89.7021 41.615C89.3648 41.9597 88.9028 42.132 88.3161 42.132ZM88.2941 39.162C88.0741 39.162 87.8615 39.2097 87.6561 39.305C87.4508 39.393 87.2601 39.514 87.0841 39.668C87.1135 40.2987 87.2491 40.7423 87.4911 40.999C87.7331 41.2557 88.0228 41.384 88.3601 41.384C88.6608 41.384 88.8955 41.2923 89.0641 41.109C89.2328 40.9183 89.3171 40.647 89.3171 40.295C89.3171 39.9283 89.2218 39.6497 89.0311 39.459C88.8405 39.261 88.5948 39.162 88.2941 39.162ZM91.4621 34.542C91.2495 34.542 91.0735 34.476 90.9341 34.344C90.7948 34.2047 90.7251 34.025 90.7251 33.805C90.7251 33.5923 90.7948 33.4163 90.9341 33.277C91.0735 33.1377 91.2495 33.068 91.4621 33.068C91.6748 33.068 91.8508 33.1377 91.9901 33.277C92.1295 33.4163 92.1991 33.5923 92.1991 33.805C92.1991 34.025 92.1295 34.2047 91.9901 34.344C91.8508 34.476 91.6748 34.542 91.4621 34.542ZM99.3031 34.1185V37.2645C99.3031 37.4295 99.2994 37.5908 99.2921 37.7485C99.2848 37.9062 99.2756 38.0657 99.2646 38.227C99.2536 38.3847 99.2389 38.5478 99.2206 38.7165C99.2059 38.8815 99.1876 39.0593 99.1656 39.25H98.5056C98.4836 39.0593 98.4634 38.8815 98.4451 38.7165C98.4304 38.5478 98.4176 38.3847 98.4066 38.227C98.3956 38.0657 98.3864 37.9062 98.3791 37.7485C98.3718 37.5908 98.3681 37.4295 98.3681 37.2645V34.1185H99.3031ZM98.1316 41.395C98.1316 41.2997 98.1481 41.2098 98.1811 41.1255C98.2178 41.0412 98.2673 40.9678 98.3296 40.9055C98.3919 40.8432 98.4634 40.7937 98.5441 40.757C98.6284 40.7203 98.7201 40.702 98.8191 40.702C98.9144 40.702 99.0024 40.7203 99.0831 40.757C99.1674 40.7937 99.2408 40.8432 99.3031 40.9055C99.3654 40.9678 99.4149 41.0412 99.4516 41.1255C99.4883 41.2098 99.5066 41.2997 99.5066 41.395C99.5066 41.494 99.4883 41.5857 99.4516 41.67C99.4149 41.7507 99.3654 41.8222 99.3031 41.8845C99.2408 41.9468 99.1674 41.9945 99.0831 42.0275C99.0024 42.0642 98.9144 42.0825 98.8191 42.0825C98.7201 42.0825 98.6284 42.0642 98.5441 42.0275C98.4634 41.9945 98.3919 41.9468 98.3296 41.8845C98.2673 41.8222 98.2178 41.7507 98.1811 41.67C98.1481 41.5857 98.1316 41.494 98.1316 41.395Z" fill="#219653"></path></svg>