<svg width="377" height="210" viewBox="0 0 377 210" fill="none" xmlns="http://www.w3.org/2000/svg">
<rect width="377" height="210" rx="4" fill="#D2F8FD"/>
<mask id="mask0" mask-type="alpha" maskUnits="userSpaceOnUse" x="0" y="0" width="377" height="210">
<rect width="377" height="210" rx="4" fill="#D2F8FD"/>
</mask>
<g mask="url(#mask0)">
<path d="M-54.3082 -15H467.746V225H-54.3082V-15Z" fill="#D2F8FD"/>
<path d="M288.858 116.714L291.073 119.506L277.013 143.024L283.122 148.092C283.122 148.092 301.273 127.418 303.853 121.996C306.434 116.573 299.813 107.46 299.813 107.46L292.319 109.508L288.858 116.714Z" fill="#FAA284"/>
<path d="M266.606 202.311H289.253C286.39 216.37 283.5 230.043 282.24 234.36C279.347 244.281 276.543 300.706 276.543 300.706H267.132C266.972 291.295 265.797 280.532 264.973 274.429C260.253 239.469 267.65 225.019 267.65 225.019C266.483 217.658 266.315 209.683 266.606 202.311Z" fill="#FAA284"/>
<path d="M242.356 202.311H266.271C266.118 212.593 265.589 224.353 264.079 231.732C260.85 247.5 263.4 300.702 263.4 300.702L254.314 301.197C240.779 251.564 248.232 226.284 248.232 226.284C245.436 217.703 243.546 209.668 242.356 202.311Z" fill="#FAA284"/>
<path d="M266.98 202.293H289.627C287.535 212.341 285.429 222.635 283.956 228.998C279.795 229.869 273.665 230.744 266.137 230.613C267.114 226.799 268.024 225.009 268.024 225.009C266.857 217.644 266.689 209.364 266.98 202.293Z" fill="#EF8D72"/>
<path d="M248.609 226.274C245.809 217.692 243.922 209.364 242.733 202.293H266.648C266.503 211.969 266.018 223.156 264.676 230.569C259.672 230.398 254.098 229.783 248.106 228.444C248.393 227 248.609 226.274 248.609 226.274Z" fill="#EF8D72"/>
<path d="M284.735 88.8101C284.735 88.8101 289.079 48.9644 279.284 29.583C271.681 14.5371 262.669 22.1624 262.669 22.1624C262.669 22.1624 254.008 16.1932 248.139 24.0901C242.274 31.9908 232.699 51.6997 246.271 74.4453C259.839 97.1946 284.735 88.8101 284.735 88.8101Z" fill="url(#paint0_linear)"/>
<path d="M242.997 33.1548C244.28 30.1442 245.741 27.5838 247.099 25.5667C260.238 32.0235 271.137 28.3504 276.718 25.377C277.58 26.5306 278.441 27.9187 279.284 29.5859C279.806 30.6205 280.287 31.7146 280.73 32.8534C272.706 34.0033 257.945 35.4137 242.997 33.1548Z" fill="#674434"/>
<path d="M282.911 81.7314C282.911 81.7314 287.904 84.3923 303.377 113.926L290.618 120.464C290.618 120.464 266.505 91.6417 282.911 81.7314Z" fill="#EA6060"/>
<path d="M268.254 74.4827L268.292 83.6933L257.001 83.738L256.953 71.7549C261.643 74.8177 266.327 74.7321 268.254 74.4827Z" fill="#FAA284"/>
<path d="M256.949 71.7544L256.912 62.5251L268.202 62.4805L268.251 74.4822C266.327 74.7315 261.644 74.8171 256.949 71.7544Z" fill="#EF8D72"/>
<path d="M244.436 46.4558L244.735 46.5563C244.735 46.5563 246.371 58.2342 250.354 44.1001C259.746 36.9214 262.669 26.1143 262.669 26.1143C266.23 34.0261 274.943 45.0193 279.421 46.8019C279.574 49.4665 279.291 53.5117 278.963 57.1252C278.314 64.196 274.634 69.3689 267.684 71.0026C250.928 74.9436 246.204 59.0567 246.204 59.0567C246.204 59.0567 239.906 59.1906 239.175 51.0555C238.579 44.4127 244.436 46.4558 244.436 46.4558Z" fill="#FAA284"/>
<path d="M262.27 31.916C262.27 31.916 257.751 40.6577 250.353 44.1001C259.79 36.8916 262.669 26.1143 262.669 26.1143C265.834 33.1441 273.068 42.6078 277.784 45.879C274.589 44.5876 268.974 41.1415 262.27 31.916Z" fill="#EF8D72"/>
<path d="M247.681 57.3375C247.681 57.3375 252.222 69.0862 261.614 70.3515C267.33 71.1218 272.248 68.688 275.22 66.6635C273.382 68.7512 270.88 70.2547 267.684 71.0064C250.928 74.9475 246.204 59.0605 246.204 59.0605C246.204 59.0605 241.215 59.1238 239.608 53.4746C243.795 59.2727 247.681 57.3375 247.681 57.3375Z" fill="#EF8D72"/>
<path d="M262.792 84.9955C254.317 84.9955 251.86 81.1699 251.289 79.6776C259.656 77.3889 267.546 78.055 273.072 79.3687C272.889 80.8796 271.424 84.9955 262.792 84.9955Z" fill="#FAA284"/>
<path d="M238.922 151.1H238.918C247.919 129.389 245.995 120.387 245.995 120.387H245.928C243.549 111.518 241.152 104.366 241.152 104.366V83.3246C244.134 81.5829 247.818 80.3288 250.85 79.4542C251.04 79.3984 251.26 79.3538 251.45 79.3017C252.02 80.7977 254.325 84.6196 262.8 84.6196C271.431 84.6196 272.714 80.4367 272.897 78.9258C273.269 79.0151 273.642 79.1081 273.997 79.2012C279.712 80.7233 283.232 81.8285 283.232 81.8285L284.716 91.7202C290.563 99.1854 292.043 101.887 292.099 104.061C292.222 108.943 288.329 115.002 288.329 115.002C288.329 115.002 316.107 135.857 301.316 179.011C297.871 189.066 296.126 208.66 294.232 222.18C294.232 222.18 262.472 229.623 239.134 221.808C234.06 207.96 227.979 175.066 238.922 151.1Z" fill="#FC6B6B"/>
<path d="M238.922 151.099H238.918C247.919 129.388 245.995 120.386 245.995 120.386H245.928C243.549 111.518 241.151 104.365 241.151 104.365V103.971C249.354 111.213 264.779 118.864 288.262 114.994C288.262 114.994 222.605 129.593 238.922 221.29C233.884 207.167 228.113 174.779 238.922 151.099Z" fill="#EA6060"/>
<path d="M277.352 156.923C277.628 156.339 277.438 155.874 276.629 155.535L278.161 156.172C278.971 156.507 279.836 156.272 280.186 155.427C280.537 154.586 280.093 153.805 279.288 153.47L281.405 154.222C282.356 154.397 283.087 154.233 283.43 153.407C283.777 152.581 283.441 151.967 282.535 151.438L280.846 150.552C281.655 150.887 282.58 150.459 282.942 149.641C283.236 148.967 282.804 148.148 281.994 147.813L271.208 142.987L274.161 141.398C275.104 140.884 275.936 139.622 275.619 138.755C275.298 137.888 274.541 137.896 273.598 138.409L266.137 140.583C263.892 141.137 261.394 142.086 260.119 145.141C258.799 148.312 260.779 151.111 263.296 152.703L265.73 154.181L267.871 155.037L275.003 157.478C275.812 157.813 277.058 157.541 277.352 156.923Z" fill="#EF8D72"/>
<path d="M241.681 118.932C241.234 120.952 240.865 122.53 240.701 123.736C249.053 131.369 257.871 136.903 265.5 141.822L260.507 149.072C251.45 145.525 242.662 140.978 234.75 135.704C232.438 134.164 230.026 132.355 228.419 130.092C226.353 127.178 226.566 126.624 228.889 116.159C233.948 118.868 238.829 119.114 241.681 118.932Z" fill="#EF8D72"/>
<path d="M228.418 116.519C229.075 113.568 230.469 109.772 231.662 105.735C234.503 96.1109 237.777 87.3319 237.919 86.9635C239.179 83.5956 242.937 81.8837 246.312 83.1415C249.686 84.3994 251.401 88.1506 250.141 91.5223C250.111 91.5967 247.274 99.2034 244.693 107.696C243.243 112.47 242.427 116.665 241.808 119.467C238.959 119.645 233.478 119.225 228.418 116.519Z" fill="#FC6B6B"/>
<path d="M276.862 143.46L292.959 119.5L303.703 122.431C301.122 127.854 282.971 148.528 282.971 148.528L276.862 143.46Z" fill="#FAA284"/>
<path d="M274.67 160.068C274.124 159.72 274.041 159.221 274.546 158.508L273.589 159.861C273.082 160.577 272.225 160.837 271.478 160.306C270.733 159.78 270.696 158.883 271.203 158.166L269.81 159.93C269.099 160.584 268.395 160.833 267.663 160.315C266.93 159.797 266.89 159.103 267.378 158.17L268.338 156.52C267.831 157.236 266.819 157.364 266.079 156.859C265.473 156.446 265.406 155.52 265.912 154.804L272.483 144.972L269.14 145.197C268.07 145.265 266.695 144.635 266.506 143.733C266.319 142.827 266.96 142.43 268.033 142.364L275.5 140.238C277.695 139.514 280.313 138.991 283.009 140.905C285.808 142.892 285.613 146.318 284.331 149.009L283.053 151.556L281.697 153.419L276.955 159.287C276.447 160.006 275.246 160.438 274.67 160.068Z" fill="#FAA284"/>
<path d="M145.285 165.466C142.853 172.279 141.558 176.595 147.953 188.969C154.349 201.344 160.385 218.897 168.148 224.365C175.908 229.834 204.939 243.933 209.54 249.69C212.017 252.75 210.838 258.183 209.304 261.489C207.769 264.795 207.536 266.922 209.304 267.395C211.071 267.868 219.211 257.24 220.273 254.05C221.335 250.861 220.626 249.917 218.385 247.554C216.145 245.191 195.148 225.47 195.148 224.407C195.148 223.344 178.513 190.269 178.513 190.269L145.285 165.466Z" fill="#382E2E"/>
<path d="M145.285 165.466C146.147 161.028 213.716 157.458 225.113 164.101C226.038 174.786 190.952 199.03 178.391 197.984C164.816 196.855 142.138 181.692 145.285 165.466Z" fill="#403435"/>
<path d="M225.288 163.397C225.964 170.037 227.197 182.001 223.505 189.92C219.814 197.838 210.325 214.376 201.187 219.829C204.878 224.756 204.878 233.938 201.187 243.422C197.495 252.907 195.213 258.711 193.277 266.102C192.924 269.094 194.621 272.583 193.277 274.353C191.934 276.123 176.227 276.809 173.869 275.925C172.299 275.434 172.398 273.664 178.288 271.304C184.178 268.944 188.695 267.57 188.892 266.096C188.105 262.164 177.109 195.9 178.515 190.27C179.568 184.113 225.288 163.397 225.288 163.397Z" fill="#FAA284"/>
<path d="M223.502 189.919C219.811 197.837 210.322 214.375 201.184 219.828C204.875 224.755 204.875 233.937 201.184 243.422C198.243 250.975 196.197 256.198 194.507 261.744C192.467 261.843 189.996 261.325 187.926 260.543C185.09 243.667 177.321 195.052 178.515 190.266C179.571 184.109 225.291 163.391 225.291 163.391C225.964 170.036 227.194 182.001 223.502 189.919Z" fill="#403435"/>
<path d="M172.24 48.7246C172.168 44.8104 182.752 36.2901 203.449 39.8509C224.146 43.4118 217.517 68.1791 216.061 73.6836C214.607 79.1881 215.899 80.6435 216.868 83.881C217.838 87.1184 215.088 88.0887 215.899 91.6526C216.71 95.2164 216.868 99.9093 216.868 99.9093C216.868 99.9093 173.697 127.752 172.24 48.7246Z" fill="#5E4B4C"/>
<path d="M202.743 74.4648C202.114 79.9574 196.802 89.1964 206.207 93.2784C215.612 97.3604 206.99 115.874 185.204 115.09C163.418 114.305 162.524 97.5131 167.124 91.8648C175.174 90.4513 174.232 90.7657 174.232 90.7657L175.644 82.2903L202.743 74.4648Z" fill="#F39F82"/>
<path d="M172.239 48.7245C175.09 42.1988 197.295 40.6535 201.653 50.4705C206.012 60.2876 201.653 65.0853 201.653 65.0853C207.971 63.1207 208.845 66.1754 209.06 68.1401C209.279 70.1047 208.405 73.5936 202.742 74.4651C199.691 79.2629 190.541 87.9898 175.943 83.845C161.345 79.7001 170.277 64.6481 170.495 59.1975C170.714 53.7439 170.714 52.2165 172.239 48.7245Z" fill="#FAA284"/>
<path d="M157.216 125.842C154.174 130.277 150.513 135.802 147.025 140.384C143.54 144.964 138.963 157.617 145.281 165.466C151.599 173.319 200.182 177.212 224.582 163.924C228.695 161.303 226.676 139.513 218.223 130.352C216.957 128.157 213.906 125.554 214.998 122.499C212.383 118.573 165.293 114.069 157.216 125.842Z" fill="#FFCC9A"/>
<path d="M136.313 103.635C134.785 111.538 129.439 124.668 131.602 131.55C133.768 138.432 143.696 140.472 152.61 133.589C161.522 126.707 171.01 100.365 159.517 93.9678C152.102 97.5167 145.607 108.732 145.607 108.732L136.313 103.635Z" fill="#FAA284"/>
<path d="M215.357 122.505C218.109 127.464 228.423 132.732 237.93 134.161C235.315 141.774 231.127 145.958 225.782 147.623C224.505 153.795 216.604 157.928 212.563 162.247C210.188 167.478 218.776 168.886 223.29 166.984C227.804 165.083 231.041 157.949 233.18 155.331C235.318 152.714 249.336 143.676 252.426 137.967C255.516 132.259 253.614 129.166 250.527 125.359C247.436 121.553 231.421 99.5227 216.739 96.5039C209.416 95.863 210.604 113.943 215.357 122.505Z" fill="#FAA284"/>
<path d="M159.009 94.7346C161.294 93.3271 164.516 91.1109 167.121 91.8686C166.565 96.846 165.332 106.699 178.865 107.933C192.398 109.164 204.02 104.495 206.204 93.2822C208.917 92.6263 215.232 93.7044 216.73 96.5076C214.304 101.305 213.527 105.429 215.594 109.691C218.223 115.117 220.162 126.932 209.976 127.989C198.393 129.19 188.339 123.59 177.46 123.767C164.839 123.97 157.6 129.07 152.152 123.063C143.349 113.357 156.897 108.107 158.126 102.83C159.359 97.5498 159.009 94.7346 159.009 94.7346Z" fill="#FFCC9A"/>
<path d="M130.396 107.004C128.404 102.207 134.422 91.9315 137.486 90.7665C140.546 89.6015 146.208 92.8898 146.543 96.3728C146.878 99.8528 147.142 105.798 144.093 107.831C141.042 109.862 132.023 110.922 130.396 107.004Z" fill="#FAA284"/>
<path d="M86.3388 89.0537C86.3388 89.0537 76.5114 101.215 74.3018 130.038C74.3018 130.038 77.8222 137.775 88.4399 133.717C88.4399 133.717 95.8891 93.2536 86.3388 89.0537Z" fill="#EFC075"/>
<path d="M84.8565 173.833L84.1074 313.394C84.1074 313.394 95.0322 318.878 105.331 314.599L109.268 198.441L112.309 198.298L127.181 314.618C127.181 314.618 135.046 318.148 146.656 313.869L134.87 173.841H84.8565V173.833Z" fill="#7C5F49"/>
<path d="M134.865 173.833H84.8818V193.331C89.0016 195.132 97.226 198.021 109.192 200.125L109.271 198.448L112.308 198.298L112.641 200.69C119.611 201.753 127.746 202.491 137.056 202.663L134.865 173.833Z" fill="#6B513F"/>
<path d="M106.803 80.2272L106.549 89.4878L121.9 89.9108L122.23 77.8652C115.781 80.7849 109.418 80.5416 106.803 80.2272Z" fill="#FAA284"/>
<path d="M122.23 77.8615L122.485 68.5822L107.133 68.1592L106.8 80.2272C109.418 80.5416 115.781 80.7849 122.23 77.8615Z" fill="#EF8D72"/>
<path d="M113.132 91.5832C122.218 91.5832 124.398 86.5448 124.712 84.969C118.259 83.6701 111.87 83.146 103.927 84.2203C103.743 86.0507 104.207 91.5832 113.132 91.5832Z" fill="#FAA284"/>
<path d="M145.154 91.7565C145.154 91.7565 136.409 86.984 125.761 84.6632C125.3 84.5621 124.843 84.4685 124.394 84.375C124.079 85.9508 122.379 90.7683 113.293 90.7683C104.368 90.7683 104.084 85.6439 104.267 83.8135C103.608 83.9033 102.934 84.0006 102.241 84.1092C97.3949 84.8728 91.3988 86.8267 86.5675 89.0839C86.5675 89.0839 80.0621 117.169 82.9272 183.674C82.9272 183.674 104.556 191.445 139.266 184.831C139.266 184.831 136 138.254 140.51 120.04C140.502 120.04 143.727 103.203 145.154 91.7565Z" fill="#FFD07D"/>
<path d="M145.154 91.7559C115.484 116.562 111.844 131.284 82.3618 140.642C82.1221 148.723 82.6352 175.577 82.9198 183.673C82.9198 183.673 104.548 191.444 139.259 184.83C139.259 184.83 135.993 138.254 140.502 120.039C140.502 120.039 144.88 93.2756 145.154 91.7559Z" fill="#EFC075"/>
<path d="M125.918 33.752C125.918 33.752 111.132 40.7854 107.571 40.3998C104.009 40.0143 92.601 34.553 92.601 34.553C91.1329 41.3993 94.7321 47.336 94.7321 47.336L126.87 54.7549L132.289 56.1811C133.757 50.3867 135.004 44.4425 134.993 41.0324C128.371 39.5239 125.918 33.752 125.918 33.752Z" fill="#3B221D"/>
<path d="M130.926 29.8515C128.034 18.2177 108.17 17.4242 108.17 17.4242C97.7283 11.0795 101.65 19.1947 101.65 19.1947C84.1819 12.9473 92.5 28.6687 92.5 28.6687C86.0321 28.4404 92.6011 34.553 92.6011 34.553C92.6011 34.553 104.009 40.0143 107.571 40.3998C111.132 40.7854 125.918 33.7519 125.918 33.7519C125.918 33.7519 128.372 39.5239 134.993 41.0287C134.959 30.6713 130.926 29.8515 130.926 29.8515Z" fill="#502F26"/>
<path d="M130.914 51.9702L128.502 54.0027C127.997 52.7974 127.585 51.5435 127.248 50.2745C125.297 42.9416 125.918 33.7559 125.918 33.7559C109.065 40.2915 94.6534 35.5638 94.6534 35.5638C95.4586 43.9186 92.6909 62.3313 99.0989 71.7828C101.009 74.5977 103.421 76.9597 107.469 77.596C125.102 80.3547 129.634 63.1136 129.634 63.1136C129.634 63.1136 135.161 64.5847 136.285 56.4433C137.221 49.6943 130.914 51.9702 130.914 51.9702Z" fill="#FAA284"/>
<path d="M123.424 36.7465C123.424 36.7465 124.84 44.5248 126.986 49.2225C125.357 42.2228 125.918 33.752 125.918 33.752C109.065 40.2875 94.6534 35.5599 94.6534 35.5599C94.7395 36.4695 94.777 37.5139 94.7807 38.648C101.335 39.5576 113.076 40.3624 123.424 36.7465Z" fill="#EF8D72"/>
<path d="M93.9606 17.7871C93.9606 17.7871 101.312 25.0077 118.484 24.9927C118.484 24.9927 107.267 32.8085 91.9944 27.598C91.9907 27.598 88.0956 18.3299 93.9606 17.7871Z" fill="#674434"/>
<path d="M128.293 61.0773C126.795 65.4456 121.207 76.2072 109.159 75.5522C102.638 75.1966 99.3275 70.8994 97.1553 67.8974C97.6721 69.3086 98.3088 70.6187 99.0991 71.7828C101.009 74.5977 103.421 76.9596 107.47 77.596C125.102 80.3547 129.634 63.1136 129.634 63.1136C129.634 63.1136 133.866 64.2927 135.738 58.9062C132.446 64.3676 128.293 61.0773 128.293 61.0773Z" fill="#EF8D72"/>
<path d="M105.972 172.987C105.092 165.081 102.414 152.605 102.414 152.605L92.8262 154.279L98.1369 165.37L97.1706 166.882C98.8372 168.716 103.83 173.923 105.972 172.987Z" fill="#FAA284"/>
<path d="M95.9686 168.735C95.9686 168.735 97.2382 176.772 105.436 179.317C105.504 179.34 105.612 179.34 105.612 179.329C104.114 175.567 95.9686 168.735 95.9686 168.735Z" fill="#CC5350"/>
<path d="M105.953 172.987C103.811 173.923 98.8261 168.716 97.1632 166.886L95.9648 168.739C95.9648 168.739 104.114 175.57 105.612 179.332C106.361 179.205 106.35 176.566 105.953 172.987Z" fill="#ED695F"/>
<path d="M119.604 176.951C119.817 176.835 119.997 176.689 120.132 176.494C120.776 175.573 120.345 174.244 119.469 172.859C117.596 173.672 115.746 171.474 112.93 169.61C110.709 168.143 108.567 168.379 107.488 168.648L107.185 173.076C107.185 173.08 114.357 171.385 119.604 176.951Z" fill="#ED695F"/>
<path d="M112.93 169.611C115.746 171.475 117.446 173.668 119.315 172.86C117.469 169.948 113.488 166.807 113.488 166.807L113.394 149.532L103.229 153.156L107.499 167.365L107.45 168.649C108.529 168.379 110.709 168.143 112.93 169.611Z" fill="#FAA284"/>
<path d="M107.185 173.081C107.185 173.081 116.694 178.524 119.607 176.951C114.357 171.385 107.185 173.081 107.185 173.081Z" fill="#CC5350"/>
<path d="M86.1067 77.5589C86.1067 77.5589 103.709 72.4121 102.616 94.8786C102.616 94.8786 101.559 99.086 106.806 96.5294C106.806 96.5294 101.926 103.331 98.7692 96.7727C98.6644 96.5593 98.552 96.3497 98.4322 96.1438C98.6981 98.2737 98.0764 99.6737 97.8329 100.946C97.2637 103.918 99.1887 103.675 99.1887 103.675C98.2974 104.502 95.7619 106.351 95.2113 99.2993C95.0952 97.8283 94.8555 96.5256 94.5596 95.3989C94.1065 97.0609 93.1365 98.7416 91.1702 99.6924C91.1702 99.6924 92.0466 90.0686 88.2715 86.0597C85.8521 83.8662 84.3652 81.392 86.1067 77.5589Z" fill="#3B221D"/>
<path d="M89.384 81.6273C89.3091 79.2055 87.8859 77.2853 86.2044 77.3339C84.5228 77.3863 83.2194 79.3889 83.2906 81.8108C83.3655 84.2326 84.7887 86.1529 86.4703 86.1042C88.1519 86.0518 89.4589 84.0492 89.384 81.6273Z" fill="#E23D3D"/>
<path d="M72.4371 108.118C72.4371 108.118 49.8947 112.168 49.4715 90.9068C49.0483 69.6455 63.7669 65.1912 70.3809 67.9387C70.3809 67.9387 87.8935 61.1598 88.7174 89.2598C88.7174 89.2561 89.5264 106.894 72.4371 108.118Z" fill="#502F26"/>
<path d="M86.3016 75.7774C84.8297 72.2251 82.8448 70.084 80.7774 68.8301C78.6202 70.915 75.3581 72.869 70.553 73.292C64.4483 73.831 60.7294 71.6075 58.6133 69.4964C55.9392 71.1583 53.4674 73.7973 51.7671 77.649C58.7369 78.2891 72.8264 78.9442 86.3016 75.7774Z" fill="#674434"/>
<path d="M53.6473 85.1988C53.5724 82.7769 52.1492 80.8529 50.4676 80.9053C48.786 80.9577 47.4827 82.9603 47.5538 85.3822C47.6287 87.804 49.0519 89.7243 50.7335 89.6756C52.4188 89.6232 53.7222 87.6206 53.6473 85.1988Z" fill="#E23D3D"/>
<path d="M50.5087 82.1885C50.5087 82.1885 32.6292 78.1234 35.0823 100.481C35.0823 100.481 36.3931 104.618 31 102.387C31 102.387 36.2845 108.881 39.0372 102.143C39.1271 101.923 39.2282 101.705 39.3331 101.496C39.1982 103.637 39.9061 104.999 40.2244 106.25C40.9735 109.184 39.0372 109.057 39.0372 109.057C39.9772 109.828 42.6214 111.52 42.7412 104.449C42.7674 102.974 42.9285 101.661 43.1532 100.515C43.7075 102.147 44.7748 103.768 46.7972 104.595C46.7972 104.595 45.3366 95.0426 48.8609 90.809C51.1454 88.4695 52.4787 85.9092 50.5087 82.1885Z" fill="#502F26"/>
<path d="M56.9205 89.0536C56.9205 89.0536 65.7854 88.1964 70.6242 75.5445C70.6242 75.5445 79.1969 84.7901 85.2005 84.5992C85.2005 84.5992 77.2007 82.9448 70.3208 72.2168C70.3171 72.2168 67.8602 83.9854 56.9205 89.0536Z" fill="#D88D6C"/>
<path d="M76.6802 113.033L76.7739 115.631C76.7739 115.631 75.8188 117.835 72.5156 117.936C69.6131 118.026 68.1786 115.949 68.1786 115.949L68.0401 112.082C71.6841 114.253 75.2196 113.269 76.6802 113.033Z" fill="#FAA284"/>
<path d="M68.0478 112.079L67.7969 104.379L76.3921 104.064L76.6842 113.033C75.2199 113.269 71.6844 114.253 68.0478 112.079Z" fill="#EF8D72"/>
<path d="M56.5691 92.4936C56.5691 92.4936 56.7076 89.6263 56.9211 89.0536C67.5575 84.3559 70.3214 72.2168 70.3214 72.2168C70.3214 72.2168 76.4261 82.3721 85.2011 84.5992C90.8526 100.381 84.9539 107.878 75.1041 109.989C61.8086 112.842 58.3031 101.814 58.3031 101.814C58.3031 101.814 53.689 104.753 51.528 98.9019C48.985 92.0332 55.3781 92.0519 56.5691 92.4936Z" fill="#FAA284"/>
<path d="M68.1669 114.59C68.1669 114.59 59.3057 123.255 67.8972 146.107C72.4177 158.13 97.6004 150.652 99.9711 150.85C99.9711 150.85 106.645 143.322 105.495 139.662C105.495 139.662 96.2821 133.852 88.4359 133.717C88.4359 133.717 85.1776 119.299 76.5749 113.804C76.5786 113.804 74.1105 116.454 68.1669 114.59Z" fill="#80D1A6"/>
<path d="M86.0394 147.256C86.0394 147.256 73.2421 150.92 72.1035 150.864C72.1035 150.864 72.1035 162.352 89.4812 156.872L92.0018 151.25L86.0394 147.256Z" fill="#FAA284"/>
<path d="M145.154 91.7558C145.154 91.7558 136.72 88.488 122.851 118.684L116.447 130.973C116.447 130.973 95.927 143.232 86.1558 146.227C86.1558 146.227 84.9274 154.188 90.4403 157.557C90.4403 157.557 118.604 153.253 128.874 141.308C137.585 131.175 157.296 102.656 145.154 91.7558Z" fill="#FFD07D"/>
<path d="M76.275 118.112C76.275 118.112 87.0425 121.099 91.2371 119.55C95.428 118 101.829 109.926 101.829 109.926C101.829 109.926 104.918 109.926 106.746 112.857C106.746 112.857 100.237 126.078 92.1509 126.961C84.065 127.844 78.2787 126.628 76.0428 126.407C73.8069 126.186 70.6123 124.195 71.2714 120.987C71.9306 117.779 76.275 118.112 76.275 118.112Z" fill="#FAA284"/>
<path d="M103.211 113.856C103.211 113.856 98.7657 111.932 101.305 105.295C101.305 105.295 101.856 103.042 103.552 103.367C103.552 103.367 105.604 99.9648 107.679 101.421C107.679 101.421 112.908 104.816 111.645 108.069C110.387 111.318 108.05 115.911 103.211 113.856Z" fill="#FAA284"/>
<path d="M65.096 132.16L61.2947 133.961C60.3808 134.395 59.9913 135.484 60.4258 136.397L60.6243 136.813C60.8827 137.359 61.3771 137.711 61.9276 137.82C61.6654 138.314 61.6205 138.883 61.8602 139.381L62.0587 139.796C62.3433 140.395 62.9613 140.739 63.6504 140.766C63.2946 141.286 63.2085 141.971 63.5006 142.581L63.6991 142.997C63.9126 143.446 64.2871 143.768 64.7178 143.925C64.6466 144.15 64.6204 144.397 64.6691 144.644L64.7365 145.01C64.8863 145.815 65.6616 146.343 66.463 146.193L69.8112 145.568C70.6165 145.418 71.1445 144.644 70.9947 143.839L70.9273 143.472C70.7962 142.772 70.1933 142.282 69.5079 142.263L69.9386 142.057C70.8524 141.623 71.2419 140.534 70.8075 139.62L70.609 139.205C70.3805 138.726 69.9685 138.396 69.5004 138.25C70.3094 137.685 70.6539 136.701 70.2719 135.9L70.0734 135.484C69.7064 134.713 68.7851 134.361 67.8712 134.571C67.9424 134.2 67.9087 133.807 67.7327 133.44L67.5342 133.025C67.0997 132.115 66.0061 131.726 65.096 132.16Z" fill="#FAA284"/>
</g>
<rect width="377" height="210" rx="4" fill="black" fill-opacity="0.4"/>
<defs>
<linearGradient id="paint0_linear" x1="262.214" y1="36.63" x2="262.71" y2="72.8523" gradientUnits="userSpaceOnUse">
<stop stop-color="#502F26"/>
<stop offset="1" stop-color="#3B221D"/>
</linearGradient>
</defs>
</svg>
