<svg width="377" height="210" viewBox="0 0 377 210" fill="none" xmlns="http://www.w3.org/2000/svg">
<rect width="377" height="210" rx="4" fill="#ECFFD5"/>
<path d="M128.937 176.776L126.221 179.642C125.926 179.953 125.926 180.457 126.221 180.767C126.515 181.078 126.993 181.078 127.287 180.767L130.567 177.307C130.845 177.013 130.845 176.539 130.567 176.246L127.287 172.786C126.993 172.475 126.515 172.475 126.221 172.786C125.926 173.096 125.926 173.6 126.221 173.911L128.937 176.776Z" fill="#F9F9F9"/>
<g clip-path="url(#clip0)">
<path d="M204.638 58.9699C204.638 58.9699 209.891 57.8089 214.87 59.1971C214.87 59.1971 221.615 58.9699 234.324 60.6823C234.324 60.6823 246.015 59.4409 262.856 59.283L263.54 64.2651C263.54 64.2651 243.164 68.8676 235.561 68.4353C235.561 68.4353 221.033 71.306 211.012 70.58C205.177 70.1616 200.154 61.1866 204.638 58.9699Z" fill="#FFA786"/>
<path d="M262.156 59.4768C262.156 59.4768 271.785 56.7752 274.101 57.49C276.418 58.2049 285.864 58.9198 285.986 60.4272C285.986 60.4272 286.321 61.9374 283.913 61.6187C281.505 61.3 276.232 61.8958 276.232 61.8958C276.232 61.8958 276.263 62.5719 275.349 62.7298C274.436 62.8878 271.084 64.0793 270.81 64.0793C270.536 64.0793 264.149 64.833 263.061 64.0793C263.061 64.082 259.322 62.7714 262.156 59.4768Z" fill="#FFA786"/>
<path opacity="0.2" d="M99 193.29C99 195.892 143.704 198 188.422 198C233.137 198 269.385 195.892 269.385 193.29C269.385 190.688 233.137 188.579 188.422 188.579C143.704 188.579 99 190.688 99 193.29Z" fill="#73B2F0"/>
<path d="M236.176 150.589C236.259 154.278 237.106 158.645 237.781 163.555C238.335 167.572 238.91 181.881 238.451 188.254H246.386C247.125 172.737 248.838 160.011 249.97 150.296C245.185 149.257 240.665 148.916 236.176 150.589Z" fill="#FFA786"/>
<path d="M238.304 184.273C238.304 184.273 236.671 186.87 237.429 191.58H259.909C259.909 191.58 261.73 188.188 255.076 187.548C250.77 187.133 246.936 183.101 246.936 183.101C246.936 183.101 245.669 183.259 245.124 184.858C244.52 186.626 240.947 187.05 239.66 185.154C238.844 183.946 238.304 184.273 238.304 184.273Z" fill="#ED5656"/>
<path d="M260.058 191.58H237.363V193.243H260.058V191.58Z" fill="#E2EAF2"/>
<path d="M251.365 188.914C251.528 188.914 251.683 188.814 251.752 188.645C252.19 187.57 253.136 187.318 253.145 187.318C253.369 187.26 253.51 187.022 253.455 186.783C253.399 186.545 253.172 186.401 252.948 186.459C252.893 186.473 251.581 186.822 250.98 188.299C250.889 188.524 250.988 188.784 251.202 188.881C251.254 188.903 251.31 188.914 251.365 188.914Z" fill="#E2EAF2"/>
<path d="M249.685 188.252C249.848 188.252 250.003 188.152 250.072 187.983C250.51 186.908 251.456 186.656 251.465 186.653C251.692 186.595 251.83 186.357 251.775 186.119C251.719 185.88 251.492 185.736 251.268 185.792C251.213 185.805 249.901 186.155 249.3 187.631C249.209 187.856 249.309 188.116 249.522 188.213C249.571 188.241 249.63 188.252 249.685 188.252Z" fill="#E2EAF2"/>
<path d="M248.423 187.366C248.586 187.366 248.741 187.266 248.807 187.097C249.245 186.022 250.191 185.77 250.202 185.77C250.426 185.711 250.565 185.473 250.512 185.235C250.457 184.997 250.23 184.852 250.006 184.908C249.95 184.922 248.638 185.271 248.038 186.748C247.946 186.972 248.046 187.233 248.259 187.33C248.312 187.355 248.367 187.366 248.423 187.366Z" fill="#E2EAF2"/>
<path d="M247.163 186.482C247.327 186.482 247.482 186.382 247.551 186.213C247.988 185.138 248.935 184.886 248.946 184.886C249.17 184.828 249.308 184.589 249.256 184.351C249.2 184.113 248.973 183.969 248.749 184.024C248.694 184.038 247.382 184.387 246.781 185.864C246.69 186.088 246.79 186.349 247.003 186.446C247.053 186.471 247.108 186.482 247.163 186.482Z" fill="#E2EAF2"/>
<path d="M134.031 156.182C132.724 157.437 128.548 160.623 125.227 164.766C120.3 170.909 120.754 169.945 112.456 179.784C112.022 180.3 110.536 181.813 109.935 182.48C108.69 183.866 109.949 185.947 109.949 185.947C111.194 186.914 116.647 185.98 116.68 185.357C116.716 184.733 117.037 183.96 117.037 183.96C124.701 177 134.678 170.793 142.616 164.766C139.275 159.307 136.956 157.262 134.031 156.182Z" fill="#FFA786"/>
<path d="M249.97 150.293C250.862 142.645 251.393 136.843 250.803 132.961C248.991 120.999 224.936 118.175 211.856 115.042L207.749 102.717L183.349 101.511C179.961 107.214 175.771 114.759 175.771 114.759C166.776 122.504 160.54 128.594 147.394 145.912C147.394 145.912 139.544 150.883 134.034 156.178C135.479 158.642 137.92 162.053 142.619 164.763C145.844 162.313 150.712 157.816 153.87 155.774C156.679 153.959 187.185 137.045 190.86 133.33C190.86 133.33 197.921 135.455 211.77 137.198C220.082 138.245 236.851 137.522 236.851 137.522C236.851 137.522 235.991 142.374 236.176 150.592C239.973 151.135 244.933 151.379 249.97 150.293Z" fill="#4C4847"/>
<path d="M118.628 191.58H107.281V193.243H118.628V191.58Z" fill="#E2EAF2"/>
<path d="M107.405 191.58C107.405 191.58 106.677 189.518 107.713 187.731L109.152 184.555C109.152 184.555 109.855 185.243 110.489 184.949C111.319 184.564 113.599 181.851 115.772 184.943C115.772 184.943 116.578 184.447 117.043 184.589L117.912 187.659C117.912 187.659 119.409 190.197 118.44 191.583H107.405V191.58Z" fill="#ED5656"/>
<path d="M111.081 188.316C111.114 188.316 111.147 188.31 111.181 188.296C113.027 187.59 114.898 188.133 114.917 188.138C115.078 188.185 115.244 188.08 115.285 187.905C115.329 187.728 115.233 187.545 115.075 187.498C114.992 187.473 113.002 186.894 110.981 187.67C110.824 187.731 110.741 187.919 110.796 188.091C110.84 188.23 110.956 188.316 111.081 188.316Z" fill="#E2EAF2"/>
<path d="M111.081 187.432C111.114 187.432 111.147 187.426 111.181 187.412C113.027 186.706 114.898 187.249 114.917 187.254C115.078 187.302 115.244 187.196 115.285 187.022C115.329 186.844 115.233 186.664 115.075 186.614C114.992 186.589 113.002 186.01 110.981 186.786C110.824 186.847 110.741 187.036 110.796 187.207C110.84 187.346 110.956 187.432 111.081 187.432Z" fill="#E2EAF2"/>
<path d="M111.081 186.548C111.114 186.548 111.147 186.542 111.181 186.529C113.027 185.822 114.898 186.365 114.917 186.371C115.078 186.418 115.244 186.315 115.285 186.138C115.329 185.961 115.233 185.78 115.075 185.731C114.992 185.706 113.002 185.126 110.981 185.902C110.824 185.963 110.741 186.152 110.796 186.324C110.84 186.462 110.956 186.548 111.081 186.548Z" fill="#E2EAF2"/>
<path d="M111.081 185.661C111.114 185.661 111.147 185.656 111.181 185.642C113.027 184.935 114.898 185.478 114.917 185.484C115.078 185.531 115.244 185.428 115.285 185.251C115.329 185.074 115.233 184.891 115.075 184.844C114.992 184.819 113.002 184.24 110.981 185.016C110.824 185.077 110.741 185.265 110.796 185.437C110.84 185.575 110.956 185.661 111.081 185.661Z" fill="#E2EAF2"/>
<path d="M190.86 133.33C190.86 133.33 197.671 131.041 201.519 126.469C201.519 126.469 200.741 132 198.316 135.037C198.319 135.037 193.763 134.081 190.86 133.33Z" fill="#3D3A39"/>
<path d="M177.57 27.6777C177.57 27.6777 172.654 32.6931 172.992 54.5029C173.327 76.3155 170.645 86.5596 168.691 88.3108C168.691 88.3108 183.363 100.411 184.162 81.5858C184.965 62.7602 182.092 39.2962 182.956 31.9394L177.57 27.6777Z" fill="#632B24"/>
<path d="M181.76 88.9258C182.648 92.7801 183.014 97.5239 183.349 101.511C183.349 101.511 192.994 107.419 207.749 102.717L208.504 89.2694C198.712 89.1336 187.434 89.3386 181.76 88.9258Z" fill="#FFA786"/>
<path d="M197.948 45.1067L197.425 54.029L197.027 60.8759L188.657 60.3827L189.18 51.477L189.581 44.6162L197.948 45.1067Z" fill="#FFA786"/>
<path d="M189.18 51.477L189.581 44.6162L197.948 45.1067L197.425 54.029C195.986 54.1232 192.515 53.9708 189.18 51.477Z" fill="#D38462"/>
<path d="M208.161 60.9866L209.251 70.6987C209.251 70.6987 204.596 63.824 204.638 58.9722C206.985 60.0334 208.161 60.9866 208.161 60.9866Z" fill="#FFA786"/>
<path d="M197.641 69.1252C186.786 69.7625 186.194 61.4719 184.325 57.0385C184.325 57.0385 195.02 55.2678 201.386 57.7977C201.383 57.8005 208.07 68.5128 197.641 69.1252Z" fill="#FFA786"/>
<path d="M177.509 59.2796C178.721 58.6672 179.975 58.1989 181.223 57.8276C181.256 57.8969 190.774 73.8324 179.205 79.5876C178.765 78.3545 177.052 70.0141 177.052 70.0141L177.509 59.2796Z" fill="#FFA786"/>
<path d="M208.964 89.4491L209.429 84.395C209.429 84.395 212.966 81.9954 212.573 76.8775C212.42 74.8741 212.42 73.5829 208.31 68.7144C208.31 68.7144 205.667 63.1338 204.962 58.5369C204.544 57.955 202 57.5726 201.137 57.7084C201.137 57.7084 206.824 68.1048 197.658 68.3625C188.491 68.6202 186.387 61.4823 184.519 57.0489C183.883 56.6637 181.497 57.3953 181.226 57.8247C181.259 57.894 188.776 73.932 178.27 78.5511C179.133 80.9757 180.329 84.9353 181.361 89.4214C186.407 90.2776 201.034 92.3558 208.964 89.4491Z" fill="#FF5353"/>
<path opacity="0.1" d="M211.79 79.8098C211.79 79.8098 191.976 85.4153 182.679 75.9111C182.679 75.9111 183.681 84.7115 192.466 84.875C201.253 85.0385 211.034 86.7315 211.79 79.8098Z" fill="black"/>
<path d="M207.995 38.1602C207.995 38.1602 214.203 34.5275 212.88 28.8859C211.687 23.8041 206.794 17.9852 204.809 17.2038C204.809 17.2038 206.168 14.2472 202.449 12.5376C198.729 10.8279 181.411 12.7121 177.633 25.2505C175.779 31.3991 179.632 36.0072 179.632 36.0072L207.995 38.1602Z" fill="#7F3A2D"/>
<path opacity="0.1" d="M179.488 21.2548C181.561 18.071 184.655 15.8571 187.929 14.394C195.698 23.9398 204.984 23.7237 210.007 22.6652C210.749 23.7874 211.433 25.0039 211.972 26.2314C198.851 28.2818 187.038 24.6381 179.488 21.2548Z" fill="white"/>
<path d="M182.059 32.8847C182.059 32.8847 183.202 37.5841 184.661 32.2003C185.316 29.7729 192.252 30.2246 196.631 27.764C202.745 24.3309 204.569 19.019 204.569 19.019C207.793 21.8481 207.583 28.1464 208.025 32.4912C208.189 34.4724 208.056 37.4871 207.876 40.1832C207.527 45.4591 204.89 49.3771 199.764 50.7238C187.403 53.9685 183.603 42.2309 183.603 42.2309C183.603 42.2309 178.931 42.4471 178.237 36.4065C177.672 31.4715 182.059 32.8847 182.059 32.8847Z" fill="#FFA786"/>
<path d="M196.229 29.9115C189.1 32.6658 186.313 30.0583 184.658 32.2003C185.314 29.7729 192.25 30.2246 196.628 27.764C202.742 24.3309 204.566 19.019 204.566 19.019C204.566 19.019 203.359 27.1572 196.229 29.9115Z" fill="#D38462"/>
<path d="M184.666 40.9225C184.666 40.9225 188.256 49.5816 195.247 50.3519C199.504 50.8202 203.107 48.9166 205.275 47.3538C203.952 48.9415 202.122 50.1081 199.764 50.726C187.404 53.9707 183.603 42.2332 183.603 42.2332C183.603 42.2332 179.903 42.3745 178.605 38.1987C181.821 42.4382 184.666 40.9225 184.666 40.9225Z" fill="#D38462"/>
<path d="M181.223 57.8281C181.223 57.8281 175.306 58.3657 170.327 59.7539C170.327 59.7539 163.582 59.5267 150.872 61.2391C150.872 61.2391 139.229 59.4602 122.384 59.2995L121.872 64.2012C121.872 64.2012 142.03 69.4216 149.632 68.9893C149.632 68.9893 169.197 71.9431 179.219 71.2199C185.059 70.7987 182.867 61.4248 181.223 57.8281Z" fill="#FFA786"/>
<path d="M123.029 59.4768C123.029 59.4768 113.4 56.7752 111.084 57.49C108.767 58.2049 99.321 58.9198 99.1992 60.4272C99.1992 60.4272 98.8643 61.9374 101.272 61.6187C103.68 61.3 108.953 61.8958 108.953 61.8958C108.953 61.8958 108.922 62.5719 109.836 62.7298C110.749 62.8878 114.101 64.0793 114.377 64.0793C114.651 64.0793 121.039 64.833 122.127 64.0793C122.124 64.082 125.863 62.7714 123.029 59.4768Z" fill="#FFA786"/>
</g>
<rect width="377" height="210" rx="4" fill="black" fill-opacity="0.3"/>
<defs>
<clipPath id="clip0">
<rect x="99" y="12" width="187" height="186" fill="white"/>
</clipPath>
</defs>
</svg>
