<svg width="250" height="260" viewBox="0 0 250 260" fill="none" xmlns="http://www.w3.org/2000/svg">
<path opacity="0.3" d="M241.712 247.731C241.712 254.059 193.472 259.286 133.785 259.286C74.0983 259.286 25.8584 254.059 25.8584 247.731C25.8584 241.403 74.0983 236.176 133.785 236.176C193.472 236.176 241.712 241.128 241.712 247.731Z" fill="#98C3C9"/>
<path d="M52.321 66.1279C60.0332 66.1279 58.8247 57.036 53.1473 57.1487C44.5188 57.3235 32.5794 54.9448 25.7216 42.2906C17.9812 28.0017 21.011 10.9283 21.0447 10.7592L12.197 9.11328C12.0452 9.93623 8.57136 29.5292 17.8182 46.5913C24.0127 58.0281 34.4063 64.7131 47.869 65.925C49.4036 66.0659 50.8932 66.1279 52.321 66.1279Z" fill="#FFA786"/>
<path d="M10.3877 10.8434C10.3877 13.0248 11.7649 13.4137 13.0971 13.5321L20.0336 13.4081C21.3659 13.5265 23.5694 11.5931 22.0067 7.96312L20.8487 5.40972C20.652 4.68259 19.9043 4.24857 19.1792 4.44585C18.797 4.54731 18.4991 4.8066 18.3304 5.13352L18.3023 4.96442C18.2068 4.21475 17.5266 3.6849 16.779 3.78073C16.3124 3.83146 15.9358 4.11893 15.7391 4.50222C15.503 4.11329 15.0814 3.854 14.598 3.84273C13.8447 3.83146 13.2264 4.43458 13.2151 5.18989L13.1983 5.84938C13.024 5.33644 12.5462 4.95315 11.9729 4.9306C11.2196 4.89678 10.5844 5.48299 10.5563 6.23267C10.562 6.23267 10.3877 9.90212 10.3877 10.8434Z" fill="#D38462"/>
<path d="M26.3183 0.417969V2.94882H5.30077V0.417969H0V11.3361H5.30077V8.80529H26.3183V11.3361H31.6247V0.417969H26.3183Z" fill="#696372"/>
<path d="M54.6933 21.8398L53.1025 39.6122L56.2223 38.1748L58.2515 45.3446L61.6018 38.3665L87.3186 37.9212L90.6689 44.1215L91.6076 38.3665L95.0702 39.708L93.3277 21.8398H54.6933Z" fill="#EAE4F4"/>
<path d="M97.0326 137.286C97.0326 127.545 50.9896 127.545 50.9896 137.286L47.2402 235.047H55.4584L70.4388 148.818C70.4388 146.868 72.069 145.278 74.0757 145.278C76.0881 145.278 77.7182 146.862 77.7182 148.818L92.3614 235.047H100.58L97.0326 137.286Z" fill="#FFA970"/>
<path d="M53.1033 225.501C57.752 225.501 61.209 223.336 62.2152 217.192L68.0669 181.479C68.0669 179.466 70.1692 175.825 74.0141 175.825C77.859 175.825 79.9613 179.466 79.9613 181.479L85.8916 217.198C86.9091 223.336 90.3717 225.501 95.0036 225.501C99.6354 225.501 104.217 223.28 103.846 217.068L99.315 141.492H48.6682L44.2275 217.068C43.8621 223.28 48.4546 225.501 53.1033 225.501Z" fill="#EAE4F4"/>
<path d="M61.6031 26.1933C61.6031 28.9496 59.5289 31.1817 56.9656 31.1817C54.408 31.1817 52.3281 28.9496 52.3281 26.1933C52.3281 23.437 54.4023 21.1992 56.9656 21.1992C59.5289 21.2049 61.6031 23.437 61.6031 26.1933Z" fill="#FFA786"/>
<path d="M84.7674 34.3047H63.2607V56.3891H84.7674V34.3047Z" fill="#FFA970"/>
<path d="M63.2325 56.3906H84.7616L106.785 63.8535L99.4329 143.561H48.5388L41.2031 62.822L63.2325 56.3906Z" fill="#55CEA6"/>
<path d="M84.7615 56.3884C84.7615 62.3407 79.9498 67.1713 74.0082 67.1713C68.0666 67.1713 63.2549 62.3463 63.2549 56.3884C63.2549 50.4361 68.0666 45.6055 74.0082 45.6055C79.9498 45.6055 84.7615 50.4361 84.7615 56.3884Z" fill="#FFA786"/>
<path d="M63.2607 47.0379L84.7674 56.3891V34.3047H63.2607V47.0379Z" fill="#D38462"/>
<path d="M90.8833 26.1884C91.4004 14.1259 91.2093 11.3076 86.7742 6.6743C83.3172 3.06685 76.5999 3.02176 74.6044 3.09503C74.4132 3.0894 74.2221 3.07812 74.031 3.07812C73.8343 3.07812 73.6488 3.0894 73.4576 3.09503C71.4621 3.02176 64.7392 3.06685 61.2822 6.6743C56.8471 11.3076 56.656 14.1259 57.1731 26.2053C56.656 38.2677 59.3485 41.4186 63.5306 46.283C69.5341 53.2611 79.1182 52.6298 84.5314 46.283C88.691 41.396 91.4004 38.262 90.8833 26.1884Z" fill="#FFA786"/>
<path d="M95.7242 26.1933C95.7242 28.9496 93.6499 31.1817 91.0867 31.1817C88.5291 31.1817 86.4492 28.9496 86.4492 26.1933C86.4492 23.437 88.5234 21.1992 91.0867 21.1992C93.6499 21.2049 95.7242 23.437 95.7242 26.1933Z" fill="#FFA786"/>
<path d="M88.5502 32.7166L84.1826 37.7727L81.5125 34.2329L78.1511 32.5081L70.1015 32.5137L66.8244 34.2329L64.0363 37.7727L59.6686 32.7166L58.8929 23.7713L56.9648 20.3555C56.9648 20.3555 57.0267 25.2086 57.1054 31.2004C57.1841 37.1921 59.1571 42.5864 61.518 45.3371C63.8789 48.0877 67.6507 50.7595 69.9498 51.3006C72.2488 51.8418 75.97 51.8418 78.2635 51.3006C80.5625 50.7595 84.3343 48.0877 86.6952 45.3371C89.0561 42.5864 90.9898 37.1865 91.0179 31.2004L91.0685 20.3555L89.1236 23.7713L88.5502 32.7166ZM79.7475 41.29L74.1094 41.972L68.4714 41.29L67.9824 38.3702L70.0566 35.2757L74.0083 34.7176L78.1342 35.2362L80.2365 38.3645L79.7475 41.29Z" fill="#EAE4F4"/>
<path d="M99.8315 150.199H48.1504L48.5382 143.559H99.4324L99.8315 150.199Z" fill="#D0C8DB"/>
<path d="M71.6979 162.906C70.9672 162.906 70.377 162.726 70.377 160.635V146.988H73.0245V160.635C73.0189 162.726 72.4287 162.906 71.6979 162.906Z" fill="white"/>
<path d="M76.2057 159.697C75.475 159.697 74.8848 159.517 74.8848 157.426V146.992H77.5323V157.426C77.5267 159.517 76.9365 159.697 76.2057 159.697Z" fill="white"/>
<path d="M48.1509 150.199L47.1953 166.399L63.3449 148.812L48.1509 150.199Z" fill="#D0C8DB"/>
<path d="M99.8333 150.198L100.811 166.578L86.4043 148.039L99.8333 150.198Z" fill="#D0C8DB"/>
<path d="M47.7689 221.375L47.2461 235.055H55.4586L57.8364 221.375H47.7689Z" fill="#EAE4F4"/>
<path d="M90.04 221.375L92.3672 235.055H100.58L100.085 221.375H90.04Z" fill="#EAE4F4"/>
<path d="M72.26 161.664H71.1357V166.399H72.26V161.664Z" fill="white"/>
<path d="M76.7678 158.457H75.6436V163.192H76.7678V158.457Z" fill="white"/>
<path d="M37.5312 246.479V250.098H54.0519L55.3841 247.674H57.8349V242.844H55.7214L53.6078 246.479H37.5312Z" fill="#EAE4F4"/>
<path d="M55.8855 229.191C54.8062 229.191 53.9349 230.065 53.9349 231.147V231.92C53.9349 231.92 52.7939 232.681 49.3874 231.018C46.3688 229.547 43.7157 232.111 44.008 235.256L44.5307 235.285L41.9562 240.408C41.9562 240.408 37.4818 240.155 37.5436 246.479H53.6202L55.7337 242.843H57.8473V237.646V232.573V231.147C57.836 230.071 56.9591 229.191 55.8855 229.191Z" fill="#4698D1"/>
<path d="M42.9179 234.621C42.7661 235.021 42.9741 235.472 43.3732 235.624L48.3311 237.479C48.7302 237.631 49.1799 237.422 49.326 237.022C49.4778 236.622 49.2698 236.171 48.8707 236.025L43.9128 234.17C43.5137 234.012 43.064 234.221 42.9179 234.621Z" fill="white"/>
<path d="M40.8827 239.196C40.731 239.596 40.939 240.047 41.3381 240.199L46.2959 242.053C46.695 242.206 47.1447 241.997 47.2965 241.597C47.4483 241.197 47.2403 240.746 46.8412 240.593L41.8833 238.739C41.4786 238.592 41.0345 238.795 40.8827 239.196Z" fill="white"/>
<path d="M41.9228 237C41.771 237.4 41.979 237.851 42.3781 238.003L47.336 239.858C47.7351 240.01 48.1848 239.801 48.3309 239.401C48.4827 239.001 48.2747 238.55 47.8756 238.403L42.9177 236.549C42.5186 236.391 42.0746 236.6 41.9228 237Z" fill="white"/>
<path d="M109.983 246.479V250.098H93.4627L92.1249 247.674H89.6797V242.844H91.7933L93.9068 246.479H109.983Z" fill="#EAE4F4"/>
<path d="M91.6298 229.191C92.709 229.191 93.5803 230.065 93.5803 231.147V231.92C93.5803 231.92 94.7214 232.681 98.1278 231.018C101.146 229.547 103.8 232.111 103.507 235.256L102.985 235.285L105.559 240.408C105.559 240.408 110.028 240.155 109.972 246.479H93.8951L91.7815 242.843H89.668V237.646V232.573V231.147C89.6792 230.071 90.5505 229.191 91.6298 229.191Z" fill="#4698D1"/>
<path d="M104.599 234.62C104.751 235.02 104.543 235.471 104.144 235.617L99.1863 237.472C98.7872 237.624 98.3375 237.415 98.1913 237.015C98.0396 236.615 98.2476 236.164 98.6467 236.018L103.605 234.163C104.004 234.011 104.448 234.22 104.599 234.62Z" fill="white"/>
<path d="M106.629 239.197C106.78 239.597 106.578 240.048 106.173 240.2L101.215 242.055C100.816 242.207 100.367 241.998 100.215 241.598C100.063 241.198 100.271 240.747 100.67 240.6L105.628 238.746C106.038 238.594 106.482 238.797 106.629 239.197Z" fill="white"/>
<path d="M105.594 237C105.745 237.4 105.537 237.851 105.138 238.003L100.18 239.858C99.7813 240.01 99.3316 239.801 99.1855 239.401C99.0337 239.001 99.2417 238.55 99.6408 238.403L104.599 236.549C104.998 236.391 105.442 236.6 105.594 237Z" fill="white"/>
<path d="M95.7058 66.1301C87.9935 66.1301 89.2021 57.0382 94.8795 57.1509C103.508 57.3257 115.447 54.947 122.305 42.2927C130.046 28.0038 127.016 10.9305 126.982 10.7614L135.824 9.12109C135.976 9.94404 139.45 29.537 130.203 46.5991C124.008 58.0359 113.615 64.7209 100.152 65.9328C98.6232 66.0681 97.128 66.1301 95.7058 66.1301Z" fill="#FFA786"/>
<path d="M95.7064 66.1291C87.9941 66.1291 84.7676 56.3947 84.7676 56.3947C84.7676 56.3947 105.341 57.5502 113.43 52.2461L116.999 60.6616C112.143 63.5757 106.493 65.3569 100.158 65.9319C98.6238 66.0671 97.1285 66.1291 95.7064 66.1291Z" fill="#55CEA6"/>
<path d="M127.31 13.2752C127.31 13.2921 127.31 13.3034 127.315 13.3203L136.585 18.1678C136.556 15.8849 136.416 13.9347 136.27 12.4297L127.31 13.2752Z" fill="#D38462"/>
<path d="M52.3211 66.1291C60.0334 66.1291 63.2599 56.3947 63.2599 56.3947C63.2599 56.3947 42.6864 57.5502 34.5919 52.2461L31.0225 60.6616C35.8792 63.5757 41.5284 65.3569 47.8635 65.9319C49.4037 66.0671 50.8933 66.1291 52.3211 66.1291Z" fill="#55CEA6"/>
<path d="M19.9095 10.2653C19.7016 10.9924 20.1232 11.7477 20.8483 11.9563C21.5734 12.1592 22.321 11.7421 22.529 11.015L23.6195 7.28916C23.8275 6.56203 23.5296 5.55307 22.8045 5.35015C22.0793 5.1416 21.3317 5.56435 21.1237 6.28584L19.9095 10.2653Z" fill="#D38462"/>
<path d="M21.7591 2.68868C21.7591 0.507298 20.3819 0.118369 19.0497 0L12.1132 0.174736C10.781 0.0563664 8.57746 0.811677 10.1401 4.44167L11.2981 6.43141C11.4948 7.15854 12.2425 7.59256 12.9676 7.39527C13.3498 7.29381 13.6478 7.03453 13.8164 6.7076L13.8445 6.8767C13.9401 7.62638 14.6202 8.15622 15.3678 8.0604C15.8288 8.00403 16.2054 7.71656 16.4021 7.33327C16.6382 7.7222 17.0598 7.98149 17.5432 7.99276C18.2965 8.00403 18.9148 7.40091 18.926 6.6456L18.9429 5.98611C19.1172 6.49905 19.595 6.88234 20.1683 6.90489C20.9216 6.93871 21.5511 6.3525 21.5849 5.60282C21.5905 5.60282 21.7647 3.63 21.7591 2.68868Z" fill="#FFA786"/>
<path d="M20.4394 18.1632C20.4844 15.2434 20.7261 12.9831 20.8891 11.7656L11.6816 13.2199L20.4394 18.1632Z" fill="#D38462"/>
<path d="M137.606 10.8747C137.606 13.0561 136.229 13.445 134.896 13.5634L127.96 13.4394C126.628 13.5577 124.424 11.6244 125.987 7.99437L127.145 5.44097C127.342 4.71384 128.089 4.27982 128.814 4.4771C129.197 4.57856 129.494 4.83785 129.663 5.16477L129.691 4.99567C129.787 4.246 130.467 3.71615 131.215 3.81198C131.675 3.86834 132.052 4.15581 132.254 4.5391C132.491 4.15018 132.912 3.89089 133.396 3.87962C134.149 3.86834 134.767 4.47146 134.778 5.22677L134.795 5.88626C134.969 5.37333 135.447 4.99004 136.021 4.96749C136.774 4.93367 137.403 5.51988 137.437 6.26955C137.432 6.26955 137.606 9.93337 137.606 10.8747Z" fill="#D38462"/>
<path d="M121.67 0.445312V2.9818H142.687V0.445312H147.988V11.3691H142.687V8.83264H121.67V11.3691H116.369V0.445312H121.67Z" fill="#696372"/>
<path d="M128.083 10.2927C128.291 11.0198 127.87 11.7751 127.145 11.9836C126.42 12.1866 125.672 11.7695 125.464 11.0423L124.373 7.3165C124.165 6.58938 124.463 5.58042 125.188 5.3775C125.914 5.16894 126.661 5.59169 126.869 6.31318L128.083 10.2927Z" fill="#D38462"/>
<path d="M126.229 2.72383C126.229 0.542454 127.606 0.153526 128.938 0.0351562L135.874 0.209892C137.207 0.0915227 139.41 0.846833 137.847 4.47683L136.69 6.46656C136.493 7.19369 135.745 7.62771 135.02 7.43043C134.638 7.32897 134.34 7.06968 134.171 6.74276L134.143 6.91186C134.048 7.66153 133.367 8.19138 132.62 8.09555C132.159 8.03919 131.782 7.75172 131.585 7.36843C131.349 7.75735 130.928 8.01664 130.444 8.02791C129.691 8.03919 129.073 7.43607 129.062 6.68076L129.045 6.02127C128.87 6.5342 128.393 6.9175 127.819 6.94004C127.066 6.97386 126.436 6.38765 126.403 5.63798C126.403 5.63798 126.229 3.66515 126.229 2.72383Z" fill="#FFA786"/>
<path d="M91.8493 11.0945L86.1157 3.76685L77.594 1.12891H70.5282L62.0065 3.76685L56.2729 11.0945L54.6934 21.8436L57.3859 21.0995L58.9936 24.9155L58.943 14.9669L61.6018 15.2994V9.75297L64.7777 5.90878L70.5282 7.89851H77.594L83.3445 5.90878L86.5205 9.75297V15.2994L89.1793 14.9669L89.0725 24.6224L90.7363 21.0995L93.4289 21.8436L91.8493 11.0945Z" fill="#EAE4F4"/>
<path d="M92.2437 13.7578H55.8803L55.0146 19.6819H93.1094L92.2437 13.7578Z" fill="#FF4E62"/>
<path d="M216.769 130.524C216.769 120.784 208.64 112.887 198.618 112.887H194.29C184.267 112.887 176.139 120.784 176.139 130.524L175.476 236.701H181.586L192.828 146.244C192.828 144.294 194.458 142.71 196.471 142.71C198.483 142.71 200.113 144.294 200.113 146.244L211.356 236.701H217.483L216.769 130.524Z" fill="#FFA786"/>
<path d="M194.29 112.887C184.268 112.887 176.556 120.778 176.14 130.524L171.918 184.1C171.26 190.289 175.201 193.057 181.407 193.057H182.16C188.371 193.057 193.329 190.267 193.245 184.038L193.953 163.154C193.953 161.204 194.459 159.62 196.471 159.62C198.484 159.62 198.99 161.204 198.99 163.154L199.698 184.038C199.608 190.267 204.572 193.057 210.783 193.057H211.525C217.731 193.057 221.671 190.295 221.013 184.1L216.769 130.524C216.365 120.812 208.641 112.887 198.619 112.887H194.29Z" fill="#696372"/>
<path d="M175.828 180.52L175.732 203.432H185.727L188.571 180.52H175.828Z" fill="#696372"/>
<path d="M204.373 180.52L207.223 203.432H217.257L217.105 180.52H204.373Z" fill="#696372"/>
<path d="M224.278 41.7175C224.278 36.1766 217.195 28.8152 214.62 28.2121L218.611 26.8424C218.611 26.8424 197.521 13.2919 185.711 30.3991C185.711 30.3991 174.024 26.1321 169.066 44.2483L171.888 42.2248L181.292 62.2968H212.31L221.456 40.8494L224.278 41.7175Z" fill="#EAE4F4"/>
<path d="M201.53 78.4102H191.355C184.655 78.4102 178.151 82.8969 178.151 82.8969L176.139 130.521H216.769L214.739 82.0402C214.739 82.0402 208.23 78.4102 201.53 78.4102Z" fill="#FF8585"/>
<path d="M202.714 70.7539H190.168V78.4141H202.714V70.7539Z" fill="#FFA786"/>
<path d="M202.714 78.1108C202.714 81.583 199.904 84.4013 196.441 84.4013C192.979 84.4013 190.168 81.583 190.168 78.1108C190.168 74.6386 192.979 71.8203 196.441 71.8203C199.904 71.8259 202.714 74.6386 202.714 78.1108Z" fill="#FFA786"/>
<path d="M190.096 71.9263L190.169 70.7539H202.715V78.4141L190.096 71.9263Z" fill="#D38462"/>
<path d="M185.666 34.0792C190 30.3984 196.92 30.3984 196.92 30.3984C196.92 30.3984 203.84 30.3984 208.173 34.0792C215.65 40.4317 214.958 49.2192 214.132 55.0362C212.901 63.7054 208.826 73.096 196.92 73.096C184.475 73.096 180.871 63.8575 179.567 55.3744C178.747 50.0309 178.19 40.4317 185.666 34.0792Z" fill="#FFA786"/>
<path d="M218.64 51.4221C218.64 53.6542 216.757 55.4692 214.43 55.4692C212.108 55.4692 210.22 53.6599 210.22 51.4221C210.22 49.19 212.103 47.375 214.43 47.375C216.752 47.375 218.64 49.19 218.64 51.4221Z" fill="#FFA786"/>
<path d="M182.472 51.4221C182.472 53.6542 180.584 55.4692 178.262 55.4692C175.935 55.4692 174.052 53.6599 174.052 51.4221C174.052 49.19 175.935 47.375 178.262 47.375C180.584 47.375 182.472 49.19 182.472 51.4221Z" fill="#FFA786"/>
<path d="M179.203 47.4798C179.203 47.4798 186.421 46.7809 187.725 38.1737C187.725 38.1737 189.001 42.7394 194.931 44.4924L195.178 39.0418C195.178 39.0418 196.539 44.1035 203.706 44.4924L202.357 38.7938C202.357 38.7938 206.275 45.9692 214.431 47.3784L216.769 43.6244L208.399 31.483L190.856 28.8789L177.264 37.6777L179.203 47.4798Z" fill="#EAE4F4"/>
<path d="M178.275 246.842L179.972 243.922H181.67V247.755H179.702L178.629 250.083H170.101C168.01 250.083 166.139 248.651 165.352 246.842H178.275Z" fill="#514B59"/>
<path d="M214.598 246.818L212.901 243.898H211.203V247.731H213.171L214.244 250.059H222.771C224.863 250.059 226.734 248.628 227.527 246.818H214.598Z" fill="#514B59"/>
<path d="M177.453 236.699V235.707C177.453 234.732 176.666 233.938 175.688 233.938C174.716 233.938 173.923 234.727 173.923 235.707V237.883L165.025 244.681C165.019 244.777 165.014 244.867 165.014 244.963C165.014 245.628 165.143 246.27 165.373 246.851H178.268L179.966 243.926H181.664L181.579 236.699H177.453Z" fill="#FF4E62"/>
<path d="M227.847 244.658L219.365 238.142V235.684C219.365 234.709 218.572 233.914 217.6 233.914C216.628 233.914 215.835 234.709 215.835 235.684V236.699H211.361L211.203 243.902H212.901L214.598 246.822H227.493C227.724 246.236 227.853 245.599 227.853 244.934C227.853 244.844 227.847 244.748 227.847 244.658Z" fill="#FF4E62"/>
<path d="M182.056 83.5819C180.224 83.5819 178.234 83.4861 176.165 83.2381C164.878 81.8797 156.896 76.5361 153.074 67.7881C148.61 57.5575 150.645 41.7862 150.73 41.1211L155.187 41.7186C155.165 41.8708 153.237 56.915 157.194 65.9843C162.422 77.9735 176.064 79.3544 184.294 79.005C188.133 78.8415 183.091 83.5819 182.056 83.5819Z" fill="#FFA786"/>
<path d="M182.056 83.5815C180.223 83.5815 178.233 83.4857 176.165 83.2377C170.251 82.5275 165.243 80.7181 161.269 77.9054L163.708 74.0781C171.426 79.6302 184.821 78.9876 190.173 78.4127C190.173 78.4127 190.639 82.9389 188.914 83.1531C187.182 83.373 184.799 83.5815 182.056 83.5815Z" fill="#FF8585"/>
<path d="M150.639 41.9104L155.192 41.7188C155.186 41.7638 154.995 43.2576 154.855 45.5629L150.639 41.9104Z" fill="#D38462"/>
<path d="M149.273 40.2849C149.273 41.632 150.122 41.8688 150.949 41.9477L155.232 41.8744C156.053 41.9477 157.413 40.7527 156.452 38.5093L155.738 36.9311C155.62 36.4801 155.153 36.2152 154.709 36.3336C154.473 36.3956 154.288 36.5591 154.186 36.7563L154.169 36.6492C154.108 36.187 153.692 35.8601 153.231 35.9165C152.944 35.9503 152.714 36.1307 152.59 36.3674C152.444 36.1307 152.185 35.9672 151.887 35.9616C151.421 35.9559 151.038 36.3279 151.033 36.7902L151.016 37.2016C150.904 36.886 150.611 36.6492 150.257 36.6323C149.791 36.6098 149.403 36.9705 149.38 37.4384C149.38 37.4384 149.273 39.7043 149.273 40.2849Z" fill="#D38462"/>
<path d="M159.808 35.4515C159.808 35.8855 158.549 36.235 156.998 36.235H149.64C148.088 36.235 146.829 35.8855 146.829 35.4515C146.829 35.0174 146.098 34.668 145.193 34.668C144.288 34.668 143.558 35.9306 143.558 37.4863V38.5967C143.558 40.1524 144.288 41.415 145.193 41.415C146.098 41.415 146.829 41.0656 146.829 40.6315C146.829 40.1975 148.088 39.848 149.64 39.848H156.998C158.549 39.848 159.808 40.1975 159.808 40.6315C159.808 41.0656 160.539 41.415 161.444 41.415C162.349 41.415 163.08 40.1524 163.08 38.5967V37.4863C163.08 35.9306 162.349 34.668 161.444 34.668C160.545 34.668 159.808 35.0174 159.808 35.4515Z" fill="#4698D1"/>
<path d="M155.12 39.9635C155.007 40.4144 155.283 40.871 155.733 40.9893C156.182 41.1021 156.638 40.8259 156.75 40.3749L157.346 38.0526C157.458 37.6017 157.256 36.9817 156.806 36.869C156.357 36.7562 155.901 37.0324 155.789 37.4833L155.12 39.9635Z" fill="#D38462"/>
<path d="M156.261 34.9948C156.261 33.6477 155.412 33.4109 154.585 33.332L150.302 33.4053C149.476 33.332 148.121 34.527 149.082 36.7704L149.796 38.3486C149.914 38.7996 150.381 39.0645 150.825 38.9461C151.061 38.8841 151.246 38.7207 151.348 38.5234L151.364 38.6305C151.421 39.0927 151.842 39.4196 152.303 39.3632C152.59 39.3294 152.82 39.149 152.944 38.9123C153.09 39.149 153.349 39.3125 153.647 39.3181C154.113 39.3238 154.49 38.9518 154.501 38.4896L154.512 38.0837C154.625 38.3994 154.911 38.6361 155.271 38.653C155.732 38.6756 156.126 38.3148 156.148 37.847C156.148 37.8413 156.261 35.5754 156.261 34.9948Z" fill="#FFA786"/>
<path d="M211.502 83.5819C213.334 83.5819 215.324 83.4861 217.393 83.2381C228.68 81.8797 236.668 76.5361 240.484 67.7881C244.948 57.5575 242.913 41.7862 242.828 41.1211L238.371 41.7186C238.393 41.8708 240.321 56.915 236.37 65.9843C230.816 78.7062 215.791 79.4841 207.814 78.9204C204.767 78.7062 209.782 83.5819 211.502 83.5819Z" fill="#FFA786"/>
<path d="M243.21 45.3542C243.058 42.9305 242.856 41.324 242.828 41.1211L238.325 41.8708L243.21 45.3542Z" fill="#D38462"/>
<path d="M211.502 83.5815C213.334 83.5815 215.324 83.4857 217.393 83.2377C223.306 82.5275 228.315 80.7181 232.289 77.9054L229.849 74.0781C221.85 79.8331 207.825 79.0215 202.716 78.4127C202.716 78.4127 202.845 82.922 204.464 83.1306C206.201 83.356 208.657 83.5815 211.502 83.5815Z" fill="#FF8585"/>
<path d="M244.283 40.2849C244.283 41.632 243.434 41.8688 242.608 41.9477L238.325 41.8744C237.498 41.9477 236.144 40.7527 237.105 38.5093L237.819 36.9311C237.937 36.4801 238.403 36.2152 238.847 36.3336C239.083 36.3956 239.269 36.5591 239.37 36.7563L239.387 36.6492C239.443 36.187 239.865 35.8601 240.326 35.9165C240.612 35.9503 240.843 36.1307 240.966 36.3674C241.113 36.1307 241.371 35.9672 241.669 35.9616C242.136 35.9559 242.512 36.3279 242.524 36.7902L242.535 37.196C242.647 36.8803 242.934 36.6436 243.294 36.6267C243.755 36.6041 244.148 36.9649 244.171 37.4327C244.176 37.4384 244.283 39.7043 244.283 40.2849Z" fill="#D38462"/>
<path d="M233.749 35.4515C233.749 35.8855 235.008 36.235 236.56 36.235H243.918C245.469 36.235 246.728 35.8855 246.728 35.4515C246.728 35.0174 247.459 34.668 248.364 34.668C249.269 34.668 250 35.9306 250 37.4863V38.5967C250 40.1524 249.269 41.415 248.364 41.415C247.459 41.415 246.728 41.0656 246.728 40.6315C246.728 40.1975 245.469 39.848 243.918 39.848H236.56C235.008 39.848 233.749 40.1975 233.749 40.6315C233.749 41.0656 233.018 41.415 232.113 41.415C231.208 41.415 230.478 40.1524 230.478 38.5967V37.4863C230.478 35.9306 231.208 34.668 232.113 34.668C233.013 34.668 233.749 35.0174 233.749 35.4515Z" fill="#4698D1"/>
<path d="M238.404 39.9231C238.528 40.3684 238.269 40.8362 237.825 40.9659C237.375 41.0955 236.914 40.8306 236.785 40.3853L236.111 38.0856C235.981 37.6346 236.167 37.0146 236.611 36.8849C237.055 36.7553 237.522 37.0146 237.651 37.4655L238.404 39.9231Z" fill="#D38462"/>
<path d="M236.733 34.9948C236.733 33.6477 237.582 33.4109 238.409 33.332L242.692 33.4053C243.513 33.332 244.873 34.527 243.912 36.7704L243.198 38.3486C243.08 38.7996 242.613 39.0645 242.169 38.9461C241.933 38.8841 241.748 38.7207 241.646 38.5234L241.629 38.6305C241.568 39.0927 241.152 39.4196 240.691 39.3632C240.404 39.3294 240.174 39.149 240.05 38.9123C239.904 39.149 239.645 39.3125 239.347 39.3181C238.881 39.3238 238.498 38.9518 238.493 38.4896L238.482 38.0837C238.369 38.3994 238.077 38.6361 237.723 38.653C237.256 38.6756 236.868 38.3148 236.846 37.847C236.846 37.8413 236.733 35.5754 236.733 34.9948Z" fill="#FFA786"/>
<path d="M192.71 98.8451C192.716 99.3073 192.598 99.7019 192.35 100.029C192.187 100.249 191.963 100.406 191.665 100.497C191.507 100.547 191.322 100.57 191.114 100.57C190.726 100.57 190.4 100.474 190.147 100.277C189.933 100.119 189.765 99.9048 189.641 99.6286C189.517 99.3581 189.444 99.0424 189.422 98.6929L190.372 98.6253C190.411 99.0086 190.518 99.2904 190.675 99.4652C190.793 99.5948 190.934 99.6568 191.086 99.6512C191.305 99.6455 191.479 99.5384 191.608 99.3299C191.676 99.2284 191.71 99.0819 191.71 98.8902C191.71 98.614 191.586 98.3435 191.339 98.0729C191.142 97.8869 190.844 97.6051 190.456 97.2331C190.125 96.9118 189.894 96.6243 189.759 96.3706C189.613 96.0832 189.54 95.7732 189.54 95.4406C189.54 94.8375 189.742 94.3809 190.147 94.0709C190.394 93.8849 190.704 93.7891 191.074 93.7891C191.429 93.7891 191.732 93.868 191.985 94.0258C192.182 94.1498 192.339 94.3189 192.463 94.5444C192.581 94.7642 192.654 95.0235 192.682 95.311L191.727 95.4857C191.698 95.2151 191.62 95.0066 191.496 94.8544C191.406 94.7473 191.271 94.6909 191.103 94.6909C190.923 94.6909 190.782 94.7698 190.687 94.9333C190.608 95.0629 190.569 95.2264 190.569 95.4181C190.569 95.7224 190.698 96.0268 190.956 96.3425C191.058 96.4608 191.204 96.6017 191.401 96.7652C191.631 96.9569 191.783 97.0921 191.856 97.171C192.103 97.4191 192.289 97.6614 192.424 97.8982C192.485 98.0109 192.536 98.1124 192.575 98.2082C192.66 98.4506 192.71 98.6591 192.71 98.8451Z" fill="#FF4E62"/>
<path d="M196.336 93.8845C196.819 93.8845 197.207 94.0367 197.494 94.3411C197.758 94.6342 197.893 95.0062 197.893 95.4572V96.4154C197.893 96.8494 197.741 97.2271 197.438 97.5314C197.134 97.8415 196.769 97.9937 196.336 97.9937H195.763V100.485H194.768V93.8789H196.336V93.8845ZM196.932 95.4741C196.932 95.2993 196.881 95.1641 196.774 95.057C196.673 94.9499 196.533 94.8991 196.364 94.8991H195.763V97.0129H196.364C196.521 97.0129 196.656 96.9565 196.763 96.8438C196.876 96.731 196.932 96.5958 196.932 96.4379V95.4741Z" fill="#FF4E62"/>
<path d="M201.384 93.8008C201.822 93.8008 202.193 93.9586 202.503 94.263C202.806 94.573 202.964 94.945 202.964 95.379V98.9865C202.964 99.4262 202.806 99.7982 202.503 100.108C202.193 100.413 201.822 100.57 201.39 100.57C200.951 100.57 200.58 100.413 200.277 100.108C199.973 99.7982 199.821 99.4261 199.821 98.9921V95.3847C199.821 94.945 199.979 94.573 200.282 94.263C200.586 93.953 200.957 93.8008 201.384 93.8008ZM201.929 95.3565C201.929 95.1987 201.873 95.0634 201.766 94.9563C201.654 94.8436 201.519 94.7928 201.361 94.7928C201.204 94.7928 201.069 94.8492 200.957 94.9563C200.844 95.069 200.788 95.1987 200.788 95.3565V98.9752C200.788 99.133 200.844 99.2683 200.957 99.3811C201.069 99.4938 201.204 99.5445 201.361 99.5445C201.519 99.5445 201.654 99.4882 201.766 99.3811C201.879 99.2683 201.929 99.133 201.929 98.9752V95.3565Z" fill="#FF4E62"/>
<path d="M206.645 93.8867C207.196 93.8867 207.607 94.0389 207.865 94.3433C208.096 94.6082 208.208 94.9802 208.208 95.4593V96.4176C208.208 96.8854 208.028 97.28 207.674 97.6069L208.411 100.493H207.337L206.735 98.0015C206.707 98.0015 206.679 98.0015 206.645 98.0015H206.072V100.493H205.077V93.8867H206.645ZM207.241 95.4763C207.241 95.093 207.05 94.9013 206.674 94.9013H206.072V97.0151H206.674C206.831 97.0151 206.966 96.9587 207.078 96.846C207.191 96.7332 207.241 96.5979 207.241 96.4401V95.4763Z" fill="#FF4E62"/>
<path d="M211.228 94.8822H210.171V93.8789H213.274V94.8822H212.223V100.491H211.228V94.8822Z" fill="#FF4E62"/>
<path d="M187.314 95.0413C186.055 92.7303 184.014 94.9511 184.014 94.9511C184.014 94.9511 182.103 92.6175 180.72 94.8609C179.337 97.0987 183.857 100.571 183.857 100.571C183.857 100.571 188.567 97.358 187.314 95.0413Z" fill="#FF4E62"/>
</svg>
