<svg width="69" height="70" viewBox="0 0 69 70" fill="none" xmlns="http://www.w3.org/2000/svg">
<path fill-rule="evenodd" clip-rule="evenodd" d="M31.4703 3.35646C39.3665 2.02341 47.6296 -2.13018 54.8244 1.37031C62.2908 5.00294 66.6414 13.3194 68.5087 21.3768C70.2861 29.0456 66.8262 36.5119 64.7273 44.0999C62.5065 52.1287 62.6477 61.8751 55.9319 66.8452C49.2058 71.8229 39.7996 69.6541 31.4703 68.7122C24.0406 67.872 16.5017 66.4775 10.7408 61.7348C5.18793 57.1635 2.14442 50.3295 0.626082 43.32C-0.778266 36.8367 0.314126 30.2483 2.56852 24.0069C4.76203 17.9341 7.97437 12.1545 13.2427 8.39019C18.4928 4.63899 25.0976 4.4323 31.4703 3.35646Z" fill="#DAF5F2"/>
<path d="M34.44 47.288C33.096 47.288 31.866 47.108 30.75 46.748C29.646 46.388 28.698 45.878 27.906 45.218C27.114 44.558 26.496 43.76 26.052 42.824C25.62 41.888 25.404 40.844 25.404 39.692C25.404 38.156 25.782 36.86 26.538 35.804C27.294 34.736 28.47 33.944 30.066 33.428C28.794 32.9 27.84 32.15 27.204 31.178C26.58 30.206 26.268 29.036 26.268 27.668C26.268 26.684 26.466 25.766 26.862 24.914C27.27 24.062 27.834 23.324 28.554 22.7C29.274 22.064 30.132 21.572 31.128 21.224C32.136 20.864 33.24 20.684 34.44 20.684C35.64 20.684 36.738 20.864 37.734 21.224C38.742 21.572 39.606 22.064 40.326 22.7C41.046 23.324 41.604 24.062 42 24.914C42.408 25.766 42.612 26.684 42.612 27.668C42.612 29.036 42.294 30.206 41.658 31.178C41.022 32.15 40.074 32.9 38.814 33.428C40.41 33.944 41.586 34.736 42.342 35.804C43.098 36.86 43.476 38.156 43.476 39.692C43.476 40.844 43.254 41.888 42.81 42.824C42.378 43.76 41.766 44.558 40.974 45.218C40.182 45.878 39.228 46.388 38.112 46.748C37.008 47.108 35.784 47.288 34.44 47.288ZM34.44 43.814C35.172 43.814 35.814 43.712 36.366 43.508C36.918 43.292 37.38 42.998 37.752 42.626C38.136 42.254 38.424 41.81 38.616 41.294C38.808 40.778 38.904 40.22 38.904 39.62C38.904 38.192 38.508 37.112 37.716 36.38C36.924 35.648 35.832 35.282 34.44 35.282C33.048 35.282 31.956 35.648 31.164 36.38C30.372 37.112 29.976 38.192 29.976 39.62C29.976 40.22 30.072 40.778 30.264 41.294C30.456 41.81 30.738 42.254 31.11 42.626C31.494 42.998 31.962 43.292 32.514 43.508C33.066 43.712 33.708 43.814 34.44 43.814ZM34.44 31.79C35.16 31.79 35.766 31.676 36.258 31.448C36.75 31.22 37.146 30.92 37.446 30.548C37.746 30.164 37.956 29.732 38.076 29.252C38.208 28.76 38.274 28.256 38.274 27.74C38.274 27.248 38.196 26.78 38.04 26.336C37.884 25.892 37.65 25.502 37.338 25.166C37.026 24.818 36.63 24.542 36.15 24.338C35.67 24.134 35.1 24.032 34.44 24.032C33.78 24.032 33.21 24.134 32.73 24.338C32.25 24.542 31.848 24.818 31.524 25.166C31.212 25.502 30.978 25.892 30.822 26.336C30.678 26.78 30.606 27.248 30.606 27.74C30.606 28.256 30.666 28.76 30.786 29.252C30.918 29.732 31.134 30.164 31.434 30.548C31.734 30.92 32.13 31.22 32.622 31.448C33.114 31.676 33.72 31.79 34.44 31.79Z" fill="#26929D"/>
</svg>
