<svg width="519" height="456" viewBox="0 0 519 456" fill="none" xmlns="http://www.w3.org/2000/svg">
<path fill-rule="evenodd" clip-rule="evenodd" d="M335.35 146.037C404.44 145.134 480.234 160.556 505.44 224.731C534.955 299.878 516.288 391.034 449.432 436.49C387.085 478.879 307.889 445.564 248.037 399.738C194.021 358.381 156.328 293.245 178.437 229.002C199.688 167.255 269.908 146.891 335.35 146.037Z" fill="#CAE1FC"/>
<path fill-rule="evenodd" clip-rule="evenodd" d="M253.632 12.3232C324.072 8.04867 394.036 46.4052 416.39 113.597C439.244 182.295 408.876 258.085 348.673 298.001C295.394 333.326 227.003 312.381 177.346 272.088C135.599 238.214 126.757 181.939 141.936 130.252C158.828 72.7314 194.003 15.9417 253.632 12.3232Z" fill="#CBBCFF" fill-opacity="0.6"/>
<path fill-rule="evenodd" clip-rule="evenodd" d="M128.435 107C188.16 107.169 230.794 157.051 250.754 213.369C272.951 276 283.92 354.202 229.599 392.44C176.634 429.723 110.252 388.295 59.5933 347.931C17.452 314.355 -10.8278 264.497 3.9795 212.675C20.514 154.808 68.2797 106.831 128.435 107Z" fill="#DAFAFF" fill-opacity="0.6"/>
<g clip-path="url(#clip0)">
<path d="M363.872 259.507L345.411 260.505L339.423 152.157L357.885 151.158L363.872 259.507Z" fill="url(#paint0_linear)"/>
<path d="M406.449 236.705L387.988 234.875L395.805 158.148L414.266 160.146L406.449 236.705Z" fill="url(#paint1_linear)"/>
<path d="M389.153 245.858L370.691 245.193L374.018 160.811L392.479 161.476L389.153 245.858Z" fill="url(#paint2_linear)"/>
<path d="M334.434 250.685L316.139 253.515L303 166.636L321.295 163.807L334.434 250.685Z" fill="url(#paint3_linear)"/>
<path d="M417.26 265.332L398.965 262.669L414.267 155.152L432.562 157.815L417.26 265.332Z" fill="url(#paint4_linear)"/>
<path d="M396.803 254.847L378.342 253.349L387.489 145L405.95 146.664L396.803 254.847Z" fill="url(#paint5_linear)"/>
<path d="M374.183 253.681L355.722 254.68L349.735 146.165L368.196 145.166L374.183 253.681Z" fill="url(#paint6_linear)"/>
<path d="M344.911 234.542L326.45 236.539L316.804 146.997L335.099 145L344.911 234.542Z" fill="url(#paint7_linear)"/>
<path d="M411.605 332.322L429.568 205H398.134C394.807 219.813 381.502 230.797 365.702 230.797C349.901 230.797 336.596 219.813 333.269 205H303L320.962 332.322H411.605Z" fill="#7671B0"/>
<path d="M149.123 147.031L155.776 144.701L131.826 76.4627C127.834 64.9788 118.853 56.3242 107.211 52.8291C95.5687 49.1675 83.2611 51.3312 73.6146 58.4878L48.9995 76.6292L53.1575 82.4544L77.9389 64.313C85.9222 58.4878 95.9013 56.8235 105.215 59.6529C114.695 62.4823 121.847 69.6389 125.173 78.9592L149.123 147.031Z" fill="#BDBDBD"/>
<path d="M124.674 78.9593L132.491 76.2964C128.333 64.646 119.352 55.825 107.543 52.1634C95.7347 48.5019 83.2608 50.6655 73.2817 57.9886L78.2713 64.646C86.0883 58.9872 95.901 57.3229 105.049 60.1523C114.196 62.9816 121.348 69.9719 124.674 78.9593Z" fill="url(#paint8_linear)"/>
<path d="M78.2713 65.1453C78.105 65.1453 77.9386 65.1453 77.9386 64.9789L72.9491 58.3215C72.7828 58.1551 72.7828 57.8222 73.1154 57.8222C73.2817 57.6558 73.6144 57.6558 73.7807 57.9886L78.7702 64.646C78.9366 64.8124 78.9366 65.1453 78.6039 65.1453C78.4376 65.1453 78.2713 65.1453 78.2713 65.1453Z" fill="#BEC2C5"/>
<path d="M79.9344 63.9808C79.768 63.9808 79.6017 63.9808 79.6017 63.8143L75.1111 56.8241C74.9448 56.6577 75.1111 56.3248 75.2774 56.3248C75.4438 56.1584 75.7764 56.3248 75.7764 56.4912L80.267 63.4815C80.4333 63.6479 80.267 63.9808 80.1007 63.9808C80.1007 63.9808 80.1007 63.9808 79.9344 63.9808Z" fill="#BEC2C5"/>
<path d="M81.7643 62.8156C81.5979 62.8156 81.4316 62.8156 81.4316 62.6492L77.44 55.3261C77.2737 55.1596 77.44 54.8268 77.6063 54.8268C77.7726 54.6603 78.1053 54.8268 78.1053 54.9932L82.0969 62.3163C82.2632 62.4827 82.0969 62.8156 81.9306 62.8156C81.7643 62.8156 81.7643 62.8156 81.7643 62.8156Z" fill="#BEC2C5"/>
<path d="M83.4272 61.984C83.2609 61.984 83.0945 61.8175 83.0945 61.8175L79.6019 54.328C79.4355 54.1616 79.6018 53.8287 79.7682 53.8287C79.9345 53.6623 80.2671 53.8287 80.2671 53.9951L83.7598 61.4847C83.9261 61.6511 83.7598 61.984 83.5935 61.984C83.5935 61.984 83.5935 61.984 83.4272 61.984Z" fill="#BEC2C5"/>
<path d="M85.2568 61.1513C85.0905 61.1513 84.9242 60.9848 84.9242 60.8184L81.9304 52.996C81.9304 52.8295 81.9304 52.4967 82.0967 52.4967C82.2631 52.3302 82.5957 52.4967 82.5957 52.6631L85.5894 60.4855C85.7557 60.8184 85.7557 61.1513 85.2568 61.1513C85.4231 61.1513 85.4231 61.1513 85.2568 61.1513Z" fill="#BEC2C5"/>
<path d="M87.2523 60.6511C87.086 60.6511 86.9196 60.4847 86.9196 60.3182L84.2585 52.3294C84.2585 52.1629 84.2585 51.8301 84.5912 51.8301C84.7575 51.8301 85.0901 51.8301 85.0901 52.1629L87.5849 60.1518C87.5849 60.3182 87.5849 60.4847 87.2523 60.6511C87.2523 60.4847 87.2523 60.6511 87.2523 60.6511Z" fill="#BEC2C5"/>
<path d="M89.0816 59.9855C88.9153 59.9855 88.749 59.8191 88.749 59.6526L86.7532 51.4973C86.7532 51.3309 86.7532 50.998 87.0858 50.998C87.2521 50.998 87.5848 50.998 87.5848 51.3309L89.5806 59.4862C89.5806 59.8191 89.4143 59.9855 89.0816 59.9855Z" fill="#BEC2C5"/>
<path d="M90.9115 59.6535C90.7452 59.6535 90.5789 59.487 90.5789 59.3206L89.082 51.1653C89.082 50.9989 89.2483 50.666 89.4147 50.666C89.581 50.666 89.9136 50.8325 89.9136 50.9989L91.4105 59.1542C91.4105 59.3206 91.2442 59.6535 90.9115 59.6535Z" fill="#BEC2C5"/>
<path d="M92.9069 59.3199C92.7406 59.3199 92.5743 59.1535 92.5743 58.987L91.7427 50.6653C91.7427 50.4989 91.909 50.166 92.0753 50.166C92.2416 50.166 92.5743 50.3325 92.5743 50.4989L93.4058 58.8206C93.2395 59.1535 93.0732 59.3199 92.9069 59.3199Z" fill="#BEC2C5"/>
<path d="M94.7368 59.3199C94.5705 59.3199 94.4042 59.1535 94.4042 58.987L94.0715 50.6653C94.0715 50.4989 94.2378 50.166 94.4042 50.166C94.7368 50.166 94.9031 50.3325 94.9031 50.4989L95.2357 58.8206C95.2357 58.987 94.9031 59.3199 94.7368 59.3199Z" fill="#BEC2C5"/>
<path d="M96.5662 59.1539C96.3999 59.1539 96.0672 58.9874 96.2336 58.6546L96.3999 50.3329C96.3999 50.1664 96.5662 50 96.8988 50C97.0651 50 97.2315 50.1664 97.2315 50.4993L97.0651 58.821C97.0651 58.9874 96.8988 59.1539 96.5662 59.1539Z" fill="#BEC2C5"/>
<path d="M98.5622 59.3199C98.2296 59.3199 98.0632 59.1535 98.2296 58.8206L98.8948 50.4989C98.8948 50.3325 99.0611 50.166 99.3938 50.166C99.5601 50.166 99.7264 50.3324 99.7264 50.6653L99.0611 58.987C98.8948 59.1535 98.7285 59.3199 98.5622 59.3199Z" fill="#BEC2C5"/>
<path d="M100.392 59.4859C100.059 59.4859 99.8926 59.3195 100.059 58.9866L101.223 50.6649C101.223 50.4985 101.556 50.332 101.722 50.332C101.888 50.332 102.055 50.4985 102.055 50.8313L100.89 59.153C100.724 59.3195 100.558 59.4859 100.392 59.4859Z" fill="#BEC2C5"/>
<path d="M102.221 59.8195C101.889 59.8195 101.722 59.4866 101.889 59.3202L103.552 51.1649C103.552 50.9985 103.885 50.832 104.051 50.832C104.217 50.832 104.383 51.1649 104.383 51.3313L102.72 59.4866C102.72 59.8195 102.388 59.8195 102.221 59.8195Z" fill="#BEC2C5"/>
<path d="M104.05 60.3191C103.718 60.3191 103.552 59.9862 103.718 59.8198L105.88 51.8309C105.88 51.6645 106.213 51.498 106.379 51.498C106.545 51.498 106.712 51.8309 106.712 51.9974L104.549 59.9862C104.383 60.1526 104.217 60.3191 104.05 60.3191Z" fill="#BEC2C5"/>
<path d="M105.88 60.8186C105.547 60.6522 105.381 60.4858 105.547 60.3193L108.208 52.4969C108.208 52.3305 108.541 52.1641 108.707 52.1641C108.874 52.1641 109.04 52.4969 109.04 52.6634L106.379 60.4858C106.212 60.8186 106.046 60.8186 105.88 60.8186Z" fill="#BEC2C5"/>
<path d="M107.71 61.4842C107.71 61.4842 107.543 61.4842 107.71 61.4842C107.377 61.3178 107.211 61.1514 107.377 60.9849L110.537 53.329C110.537 52.9961 110.87 52.9961 111.036 52.9961C111.202 53.1625 111.369 53.329 111.202 53.4954L108.042 61.3178C108.042 61.4842 107.876 61.4842 107.71 61.4842Z" fill="#BEC2C5"/>
<path d="M109.373 62.316H109.207C109.04 62.1496 108.874 61.9831 109.04 61.8167L112.699 54.3272C112.866 54.1607 113.032 53.9943 113.198 54.1607C113.365 54.3272 113.531 54.4936 113.365 54.66L109.706 62.1496C109.706 62.316 109.539 62.316 109.373 62.316Z" fill="#BEC2C5"/>
<path d="M111.036 63.1476H110.87C110.704 62.9812 110.537 62.8148 110.704 62.6483L114.862 55.3252C115.028 55.1588 115.194 54.9923 115.361 55.1588C115.527 55.3252 115.693 55.4916 115.527 55.6581L111.369 62.9812C111.369 63.1476 111.203 63.1476 111.036 63.1476Z" fill="#BEC2C5"/>
<path d="M112.699 64.1462H112.533C112.366 63.9798 112.366 63.8133 112.366 63.6469L116.857 56.6567C117.023 56.4902 117.19 56.4902 117.356 56.4902C117.522 56.6567 117.522 56.8231 117.522 56.9895L113.032 63.9798C113.032 64.1462 112.865 64.1462 112.699 64.1462Z" fill="#BEC2C5"/>
<path d="M114.196 65.3114C114.03 65.3114 114.03 65.3114 114.03 65.3114C113.864 65.1449 113.864 64.9785 113.864 64.8121L118.853 58.1547C119.019 57.9883 119.186 57.9883 119.518 57.9883C119.685 58.1547 119.685 58.3211 119.685 58.4876L114.695 65.1449C114.529 65.1449 114.362 65.3114 114.196 65.3114Z" fill="#BEC2C5"/>
<path d="M115.693 66.4768C115.526 66.4768 115.526 66.4768 115.36 66.3104C115.194 66.1439 115.194 65.9775 115.36 65.6446L120.682 59.3201C120.849 59.1537 121.015 59.1537 121.348 59.3201C121.514 59.4866 121.514 59.653 121.348 59.9859L116.025 66.3104C116.025 66.4768 115.859 66.4768 115.693 66.4768Z" fill="#BEC2C5"/>
<path d="M117.19 67.808C117.023 67.808 117.023 67.808 116.857 67.6416C116.691 67.4751 116.691 67.1423 116.857 66.9758L122.678 60.9842C122.845 60.8178 123.177 60.8178 123.344 60.9842C123.51 61.1506 123.51 61.4835 123.344 61.6499L117.522 67.6416C117.356 67.6416 117.19 67.808 117.19 67.808Z" fill="#BEC2C5"/>
<path d="M118.52 69.1392C118.354 69.1392 118.354 69.1392 118.187 68.9728C118.021 68.8063 118.021 68.4735 118.187 68.307L124.341 62.6483C124.508 62.4818 124.84 62.4818 125.007 62.6483C125.173 62.8147 125.173 63.1476 125.007 63.314L118.853 68.9728C118.686 69.1392 118.52 69.1392 118.52 69.1392Z" fill="#BEC2C5"/>
<path d="M119.684 70.6379C119.518 70.6379 119.518 70.6379 119.352 70.4715C119.185 70.3051 119.185 69.9722 119.352 69.8058L125.838 64.6463C126.005 64.4799 126.337 64.4799 126.503 64.6463C126.67 64.8127 126.67 65.1456 126.503 65.312L120.017 70.4715C120.017 70.6379 119.851 70.6379 119.684 70.6379Z" fill="#BEC2C5"/>
<path d="M120.849 72.1351C120.682 72.1351 120.516 72.1351 120.516 71.9686C120.35 71.8022 120.516 71.4693 120.682 71.4693L127.501 66.8092C127.668 66.6427 128 66.8092 128 66.9756C128.167 67.142 128 67.4749 127.834 67.4749L121.015 72.1351C121.015 72.1351 121.015 72.1351 120.849 72.1351Z" fill="#BEC2C5"/>
<path d="M122.013 73.8002C121.847 73.8002 121.68 73.8002 121.68 73.6338C121.514 73.4674 121.68 73.1345 121.847 73.1345L128.998 68.8072C129.165 68.6408 129.497 68.8072 129.497 68.9737C129.664 69.1401 129.497 69.473 129.331 69.473L122.179 73.8002H122.013Z" fill="#BEC2C5"/>
<path d="M123.011 75.631C122.844 75.631 122.678 75.631 122.678 75.4646C122.512 75.2982 122.678 74.9653 122.844 74.9653L130.329 71.1373C130.495 70.9709 130.828 71.1373 130.828 71.3037C130.994 71.4702 130.828 71.803 130.661 71.803L123.177 75.631H123.011Z" fill="#BEC2C5"/>
<path d="M123.842 77.4622C123.676 77.4622 123.51 77.2958 123.51 77.1293C123.343 76.9629 123.51 76.63 123.676 76.63L131.327 73.3014C131.493 73.1349 131.825 73.3014 131.825 73.4678C131.992 73.6342 131.825 73.9671 131.659 73.9671L123.842 77.4622C124.009 77.4622 123.842 77.4622 123.842 77.4622Z" fill="#BEC2C5"/>
<path d="M124.674 79.4584C124.508 79.4584 124.342 79.292 124.342 79.1256C124.342 78.9591 124.342 78.6263 124.674 78.6263L132.491 75.7969C132.657 75.7969 132.99 75.7969 132.99 76.1297C132.99 76.2962 132.99 76.629 132.657 76.629L124.674 79.4584Z" fill="#BEC2C5"/>
<path d="M212.454 325.577H132.288L111 142H233.909L212.454 325.577Z" fill="#7396C6"/>
<path d="M222.802 111.082H121.015L110.537 132.718H233.446L222.802 111.082Z" fill="url(#paint9_linear)"/>
<path d="M239.434 132.719H104.383V142.039H239.434V132.719Z" fill="url(#paint10_linear)"/>
<path d="M336.329 301.389H188.638C184.147 301.389 180.655 304.884 180.655 309.211C180.655 313.538 184.314 317.033 188.638 317.033H336.329C340.819 317.033 344.312 313.538 344.312 309.211C344.312 304.884 340.819 301.389 336.329 301.389Z" fill="url(#paint11_linear)"/>
<path d="M336.329 317.033H188.638C184.147 317.033 180.655 320.528 180.655 324.856C180.655 329.183 184.314 332.678 188.638 332.678H336.329C340.819 332.678 344.312 329.183 344.312 324.856C344.478 320.528 340.819 317.033 336.329 317.033Z" fill="url(#paint12_linear)"/>
<path d="M187 296.728C187 254.953 220.928 221 262.674 221C304.42 221 338.349 254.953 338.349 296.728H187Z" fill="#FBB559"/>
<path d="M262.483 296.729H175C178.16 300.057 185.311 301.389 189.636 301.389H262.483H335.33C339.821 301.389 346.806 300.057 349.967 296.729H262.483Z" fill="url(#paint13_linear)"/>
<path d="M338.158 333.011V332.678H186.975C186.975 332.844 186.975 332.844 186.975 333.011C186.975 346.991 198.783 358.142 212.754 358.142H312.545C326.349 358.142 338.158 346.991 338.158 333.011Z" fill="#FBB559"/>
<path d="M220.072 301.389H192.296C189.635 301.389 188.138 304.717 190.134 306.548L230.882 347.325L269.302 308.878C274.125 304.052 280.611 301.389 287.43 301.389H220.072Z" fill="url(#paint14_linear)"/>
<path d="M314.042 317.033H316.37C320.029 317.033 323.023 320.029 323.023 323.691V346.825C323.023 350.487 320.029 353.316 316.537 353.316C312.877 353.316 310.05 350.32 310.05 346.825V326.354C310.05 323.857 308.054 321.86 305.56 321.86C303.065 321.86 301.069 323.857 301.069 326.354V338.836C301.069 342.498 298.075 345.327 294.582 345.327C290.923 345.327 288.096 342.331 288.096 338.836C288.096 338.836 288.096 331.513 288.096 328.684C288.096 325.854 285.102 325.688 285.102 328.684C285.102 331.679 285.102 345.66 285.102 345.66C285.102 349.321 282.109 352.151 278.616 352.151C274.957 352.151 272.13 349.155 272.13 345.66V325.688C272.13 320.861 268.304 317.033 263.481 317.033H314.042Z" fill="#E43133"/>
</g>
<defs>
<linearGradient id="paint0_linear" x1="318.231" y1="175.822" x2="385.168" y2="235.801" gradientUnits="userSpaceOnUse">
<stop stop-color="#FCE377"/>
<stop offset="0.3602" stop-color="#FBC44E"/>
<stop offset="0.645" stop-color="#FBB035"/>
<stop offset="0.8172" stop-color="#FBA92C"/>
</linearGradient>
<linearGradient id="paint1_linear" x1="371.799" y1="171.823" x2="408.038" y2="235.799" gradientUnits="userSpaceOnUse">
<stop stop-color="#FCE377"/>
<stop offset="0.3602" stop-color="#FBC44E"/>
<stop offset="0.645" stop-color="#FBB035"/>
<stop offset="0.8172" stop-color="#FBA92C"/>
</linearGradient>
<linearGradient id="paint2_linear" x1="350.857" y1="177.346" x2="396.229" y2="240.808" gradientUnits="userSpaceOnUse">
<stop stop-color="#FCE377"/>
<stop offset="0.3602" stop-color="#FBC44E"/>
<stop offset="0.645" stop-color="#FBB035"/>
<stop offset="0.8172" stop-color="#FBA92C"/>
</linearGradient>
<linearGradient id="paint3_linear" x1="283.43" y1="188.077" x2="342.544" y2="241.9" gradientUnits="userSpaceOnUse">
<stop stop-color="#FCE377"/>
<stop offset="0.3602" stop-color="#FBC44E"/>
<stop offset="0.645" stop-color="#FBB035"/>
<stop offset="0.8172" stop-color="#FBA92C"/>
</linearGradient>
<linearGradient id="paint4_linear" x1="388.717" y1="174.311" x2="442.734" y2="246.159" gradientUnits="userSpaceOnUse">
<stop stop-color="#FCE377"/>
<stop offset="0.306" stop-color="#FCDC72"/>
<stop offset="0.7444" stop-color="#FCC964"/>
<stop offset="1" stop-color="#FCBB59"/>
</linearGradient>
<linearGradient id="paint5_linear" x1="363.167" y1="165.598" x2="421.185" y2="234.249" gradientUnits="userSpaceOnUse">
<stop stop-color="#FCE377"/>
<stop offset="0.306" stop-color="#FCDC72"/>
<stop offset="0.7444" stop-color="#FCC964"/>
<stop offset="1" stop-color="#FCBB59"/>
</linearGradient>
<linearGradient id="paint6_linear" x1="328.533" y1="169.931" x2="395.47" y2="229.909" gradientUnits="userSpaceOnUse">
<stop stop-color="#FCE377"/>
<stop offset="0.306" stop-color="#FCDC72"/>
<stop offset="0.7444" stop-color="#FCC964"/>
<stop offset="1" stop-color="#FCBB59"/>
</linearGradient>
<linearGradient id="paint7_linear" x1="296.398" y1="167.938" x2="354.644" y2="224.439" gradientUnits="userSpaceOnUse">
<stop stop-color="#FCE377"/>
<stop offset="0.306" stop-color="#FCDC72"/>
<stop offset="0.7444" stop-color="#FCC964"/>
<stop offset="1" stop-color="#FCBB59"/>
</linearGradient>
<linearGradient id="paint8_linear" x1="108.959" y1="84.5194" x2="96.1838" y2="48.1357" gradientUnits="userSpaceOnUse">
<stop stop-color="#BEC2C5"/>
<stop offset="0.0112231" stop-color="#C0C4C6"/>
<stop offset="0.1628" stop-color="#D3D5D6"/>
<stop offset="0.3397" stop-color="#E0E1E2"/>
<stop offset="0.5652" stop-color="#E8E8E8"/>
<stop offset="1" stop-color="#EAEAEA"/>
</linearGradient>
<linearGradient id="paint9_linear" x1="123.321" y1="109.27" x2="233.22" y2="141.257" gradientUnits="userSpaceOnUse">
<stop stop-color="#EAEAEA"/>
<stop offset="0.4348" stop-color="#E8E8E8"/>
<stop offset="0.6603" stop-color="#E0E1E2"/>
<stop offset="0.8372" stop-color="#D3D5D6"/>
<stop offset="0.9888" stop-color="#C0C4C6"/>
<stop offset="1" stop-color="#BEC2C5"/>
</linearGradient>
<linearGradient id="paint10_linear" x1="114.713" y1="120.686" x2="237.791" y2="156.509" gradientUnits="userSpaceOnUse">
<stop offset="0.3333" stop-color="#EAEAEA"/>
<stop offset="0.8817" stop-color="#A9AEB2"/>
</linearGradient>
<linearGradient id="paint11_linear" x1="262.537" y1="317.052" x2="262.537" y2="301.433" gradientUnits="userSpaceOnUse">
<stop stop-color="#68160B"/>
<stop offset="0.7234" stop-color="#7D3128"/>
<stop offset="1" stop-color="#863D34"/>
</linearGradient>
<linearGradient id="paint12_linear" x1="262.537" y1="332.671" x2="262.537" y2="317.052" gradientUnits="userSpaceOnUse">
<stop stop-color="#68160B"/>
<stop offset="0.7234" stop-color="#7D3128"/>
<stop offset="1" stop-color="#863D34"/>
</linearGradient>
<linearGradient id="paint13_linear" x1="218.739" y1="252.89" x2="306.396" y2="340.485" gradientUnits="userSpaceOnUse">
<stop stop-color="#A2CA5E"/>
<stop offset="0.2415" stop-color="#9BC459"/>
<stop offset="0.5883" stop-color="#88B44C"/>
<stop offset="0.9972" stop-color="#699936"/>
<stop offset="1" stop-color="#699936"/>
</linearGradient>
<linearGradient id="paint14_linear" x1="213.654" y1="278.819" x2="261.862" y2="326.992" gradientUnits="userSpaceOnUse">
<stop stop-color="#FCE377"/>
<stop offset="0.306" stop-color="#FCDC72"/>
<stop offset="0.7444" stop-color="#FCC964"/>
<stop offset="1" stop-color="#FCBB59"/>
</linearGradient>
<clipPath id="clip0">
<rect x="42" width="398" height="358" fill="white"/>
</clipPath>
</defs>
</svg>
