<svg xmlns="http://www.w3.org/2000/svg" width="258" height="230" viewBox="0 0 258 230" fill="none"><mask id="mask0" maskUnits="userSpaceOnUse" x="0" y="0" width="250" height="230"><rect width="250" height="230" fill="#F9F9F9"></rect></mask><g mask="url(#mask0)"><path fill-rule="evenodd" clip-rule="evenodd" d="M16.2328 138.944C3.65059 103.303 -3.80334 60.7379 19.8104 31.2272C42.8555 2.42713 85.2675 9.02274 122.077 6.6685C161.003 4.17883 206.394 -11.1389 232.763 17.6072C259.481 46.7341 249.884 93.4788 235.467 130.281C224.094 159.313 194.322 172.24 166.598 186.507C139.472 200.466 111.645 218.169 82.5571 208.968C50.3088 198.768 27.4928 170.84 16.2328 138.944Z" fill="#D2F8FD"></path></g><g clip-path="url(#clip0)"><path d="M121.084 110.457C119.119 108.962 117.434 108.869 115.095 110.55C112.662 112.324 109.667 112.138 106.86 110.83C94.6005 105.133 82.2478 99.5291 69.895 93.8319C58.2909 88.4148 46.6869 82.9978 34.9892 77.6742C29.0936 74.9657 27.4091 69.8288 30.5909 64.225C40.4169 47.1333 50.243 29.9483 60.2562 12.95C63.3443 7.71979 68.8656 6.59902 73.8254 10.0547C94.8812 24.8114 115.843 39.6616 136.899 54.3249C140.83 57.0334 143.263 60.1155 142.608 65.159C142.327 67.2137 144.666 67.4005 145.789 68.5213C146.912 69.5486 146.164 70.576 145.696 71.51C144.292 74.2185 142.701 76.7402 141.204 79.3553C138.49 84.212 135.589 88.9752 132.875 93.8319C129.881 98.9687 126.792 104.106 123.704 109.242C123.143 110.176 122.394 110.83 121.084 110.457Z" fill="#E8E8E6"></path><path d="M121.084 110.457C122.675 109.99 122.956 108.402 123.611 107.281C128.29 99.4357 132.969 91.6837 137.367 83.745C140.175 78.7015 143.543 73.9383 145.789 68.5212C146.819 68.708 147.661 69.175 148.503 69.8288C149.439 70.576 150.562 70.8562 151.779 70.6694C163.383 69.0816 171.431 78.0477 167.968 89.0686C164.225 100.93 158.329 111.484 149.346 120.357C141.391 128.295 129.787 123.345 126.886 115.874C125.857 113.072 123.424 111.764 121.084 110.457Z" fill="#BEBEBE"></path><path d="M137.835 217.583C138.864 217.77 139.332 218.33 139.239 219.264C139.145 220.011 138.677 220.572 137.835 220.478C136.993 220.478 136.525 219.918 136.525 219.171C136.525 218.237 137.086 217.77 137.835 217.583Z" fill="#FDFDFD"></path><path d="M157.113 193.86C156.084 193.674 155.616 193.113 155.709 192.273C155.709 191.525 156.084 190.965 157.019 190.965C157.955 190.965 158.423 191.525 158.517 192.366C158.423 193.3 157.862 193.767 157.113 193.86Z" fill="#BEBEBE"></path><path d="M163.196 124.093C163.29 123.159 163.757 122.692 164.6 122.692C165.442 122.692 165.816 123.252 165.816 124.093C165.816 124.933 165.348 125.4 164.506 125.4C163.664 125.307 163.29 124.746 163.196 124.093Z" fill="#BEBEBE"></path><path d="M172.179 147.909C173.022 148.002 173.49 148.563 173.396 149.31C173.396 150.057 172.928 150.711 172.086 150.711C171.244 150.804 170.776 150.244 170.776 149.403C170.776 148.469 171.337 148.096 172.179 147.909Z" fill="#BEBEBE"></path><path d="M159.733 149.403C159.546 150.151 159.172 150.711 158.423 150.711C157.487 150.711 157.019 150.057 157.113 149.217C157.113 148.563 157.581 148.002 158.236 148.002C159.078 148.002 159.546 148.563 159.733 149.403Z" fill="#BEBEBE"></path><path d="M158.142 220.292C158.985 220.292 159.453 220.665 159.64 221.506C159.733 222.346 159.265 222.813 158.423 222.907C157.581 223 157.019 222.626 157.019 221.786C156.926 221.039 157.3 220.478 158.142 220.292Z" fill="#BEBEBE"></path><path d="M158.516 169.67C157.58 169.577 157.019 169.203 157.112 168.363C157.112 167.616 157.58 167.055 158.423 167.055C159.171 167.055 159.733 167.616 159.733 168.363C159.733 169.297 159.078 169.577 158.516 169.67Z" fill="#BEBEBE"></path><path d="M148.129 160.798C147.287 160.798 146.819 160.331 146.819 159.49C146.819 158.743 147.287 158.182 148.129 158.276C148.878 158.369 149.439 158.743 149.439 159.583C149.439 160.424 148.878 160.704 148.129 160.798Z" fill="#BEBEBE"></path><path d="M164.412 158.183C165.348 158.183 165.816 158.65 165.816 159.49C165.816 160.331 165.442 160.798 164.599 160.798C163.757 160.798 163.289 160.424 163.289 159.584C163.289 158.743 163.757 158.369 164.412 158.183Z" fill="#BEBEBE"></path><path d="M176.11 168.363C176.017 169.203 175.549 169.67 174.8 169.67C173.958 169.67 173.49 169.203 173.49 168.456C173.49 167.616 173.864 167.149 174.8 167.149C175.549 167.149 176.017 167.616 176.11 168.363Z" fill="#BEBEBE"></path><path d="M163.289 184.894C162.54 184.801 161.979 184.427 161.979 183.586C161.979 182.839 162.353 182.279 163.195 182.279C164.037 182.279 164.505 182.746 164.505 183.493C164.505 184.334 164.131 184.801 163.289 184.894Z" fill="#BEBEBE"></path><path d="M176.204 184.894C175.455 184.894 174.987 184.521 174.894 183.773C174.8 182.933 175.268 182.373 176.017 182.279C176.859 182.186 177.42 182.653 177.42 183.493C177.42 184.334 176.952 184.801 176.204 184.894Z" fill="#BEBEBE"></path><path d="M158.236 201.332C159.078 201.332 159.639 201.706 159.639 202.546C159.639 203.387 159.171 203.854 158.423 203.947C157.581 204.041 157.113 203.574 157.019 202.733C157.019 201.892 157.487 201.519 158.236 201.332Z" fill="#BEBEBE"></path><path d="M185 210.111C185 211.045 184.533 211.419 183.69 211.419C182.848 211.419 182.38 210.952 182.38 210.111C182.38 209.271 182.848 208.897 183.69 208.897C184.533 208.897 184.907 209.364 185 210.111Z" fill="#BEBEBE"></path><path d="M174.8 134.179C173.958 134.086 173.49 133.619 173.49 132.778C173.49 131.938 173.958 131.471 174.8 131.564C175.549 131.658 176.11 132.031 176.11 132.872C176.11 133.806 175.549 134.179 174.8 134.179Z" fill="#BEBEBE"></path><path d="M176.11 221.786C176.017 222.627 175.455 223 174.706 223C173.864 222.907 173.49 222.44 173.49 221.599C173.584 220.759 174.051 220.292 174.894 220.385C175.642 220.478 176.11 220.945 176.11 221.786Z" fill="#BEBEBE"></path><path d="M183.596 174.433C183.596 175.367 183.128 175.834 182.286 175.834C181.537 175.834 181.069 175.554 180.976 174.807C180.882 173.966 181.257 173.499 182.099 173.406C183.035 173.406 183.596 173.686 183.596 174.433Z" fill="#BEBEBE"></path><path d="M149.439 210.205C149.439 211.045 148.878 211.512 148.035 211.419C147.193 211.419 146.819 210.858 146.819 210.018C146.819 209.271 147.38 208.897 148.035 208.897C148.878 208.897 149.439 209.364 149.439 210.205Z" fill="#BEBEBE"></path><path d="M145.415 178.637C144.667 178.543 144.105 178.17 144.105 177.329C144.199 176.582 144.667 176.021 145.415 176.021C146.07 176.021 146.538 176.582 146.538 177.236C146.725 178.076 146.257 178.45 145.415 178.637Z" fill="#BEBEBE"></path><path d="M146.725 194.888C146.538 195.822 146.164 196.289 145.322 196.289C144.573 196.289 144.199 195.822 144.105 195.168C144.105 194.327 144.573 193.86 145.322 193.767C146.164 193.767 146.538 194.327 146.725 194.888Z" fill="#BEBEBE"></path><path d="M156.926 131.564C156.926 132.405 156.458 132.872 155.615 132.872C154.867 132.872 154.305 132.498 154.305 131.658C154.305 130.91 154.773 130.35 155.615 130.35C156.458 130.257 156.832 130.817 156.926 131.564Z" fill="#BEBEBE"></path><path d="M148.223 139.316C148.971 139.41 149.533 139.877 149.439 140.624C149.439 141.371 148.878 141.651 148.223 141.744C147.474 141.744 146.912 141.371 146.819 140.53C146.819 139.69 147.38 139.316 148.223 139.316Z" fill="#BEBEBE"></path><path d="M174.8 200.024C175.548 200.118 176.11 200.491 176.11 201.332C176.11 202.079 175.548 202.359 174.893 202.452C174.145 202.546 173.677 202.172 173.583 201.425C173.49 200.585 173.957 200.118 174.8 200.024Z" fill="#BEBEBE"></path><path d="M164.506 141.745C163.757 141.651 163.289 141.278 163.289 140.531C163.289 139.69 163.757 139.223 164.599 139.223C165.348 139.223 165.722 139.69 165.816 140.344C165.816 141.278 165.348 141.651 164.506 141.745Z" fill="#BEBEBE"></path><path d="M139.239 187.416C138.49 187.416 137.929 187.043 137.929 186.202C137.929 185.455 138.396 185.081 139.145 184.988C139.987 184.988 140.455 185.361 140.549 186.202C140.455 186.949 140.081 187.416 139.239 187.416Z" fill="#BEBEBE"></path><path d="M182.286 192.552C183.035 192.646 183.596 193.019 183.596 193.86C183.596 194.607 183.035 194.981 182.38 194.981C181.538 194.981 181.07 194.514 181.07 193.673C181.07 192.926 181.631 192.646 182.286 192.552Z" fill="#BEBEBE"></path><path d="M165.816 212.82C165.722 213.567 165.348 214.034 164.599 214.034C163.757 214.034 163.196 213.66 163.289 212.82C163.289 211.979 163.851 211.606 164.693 211.699C165.442 211.699 165.722 212.166 165.816 212.82Z" fill="#BEBEBE"></path><path d="M87.8626 60.3956C103.304 60.3956 118.744 60.3956 134.185 60.3956C138.397 60.3956 139.332 61.7966 137.648 65.7193C137.086 67.0268 136.712 68.241 138.397 69.0816C139.894 69.8287 139.707 70.9495 138.958 72.2571C136.244 76.7401 133.624 81.2232 131.004 85.7062C128.009 90.9365 125.014 96.2601 122.02 101.49C120.99 103.265 120.148 105.039 117.621 103.358C116.779 102.798 116.031 103.545 115.469 104.292C112.287 107.935 111.632 108.122 107.515 106.16C97.2208 101.49 87.0204 96.6337 76.82 91.9638C66.3389 87.1072 55.7642 82.344 45.1896 77.4873C42.2885 76.1797 39.3875 74.7788 36.5801 73.3778C33.5855 71.8835 32.8368 69.4552 34.4277 66.4665C34.9892 65.3457 35.6443 64.3183 36.2993 63.1976C37.4223 61.2362 38.9196 60.3022 41.3527 60.3022C56.7936 60.489 72.3281 60.3956 87.8626 60.3956Z" fill="#FDFDFD"></path><path d="M151.217 107.281C151.872 107.281 152.153 107.655 152.34 108.215C152.621 109.429 151.124 111.951 149.907 112.324C149.346 112.511 148.878 112.605 148.597 111.951C147.942 110.83 150.001 107.374 151.217 107.281Z" fill="#7C7C7C"></path><path d="M160.669 91.2168C161.324 91.2168 161.511 91.5904 161.605 92.0574C161.792 93.1781 160.201 95.8866 159.078 96.2602C158.61 96.3536 158.049 96.3536 157.955 95.8866C157.581 94.8593 157.861 93.9253 158.517 93.0847C158.984 92.2442 159.546 91.4036 160.669 91.2168Z" fill="#7C7C7C"></path><path d="M160.107 102.331C159.92 104.106 159.172 105.413 157.487 106.067C156.645 106.347 156.271 105.6 156.271 104.853C156.271 103.639 158.142 101.21 159.078 101.21C159.827 101.117 160.107 101.584 160.107 102.331Z" fill="#7B7A7A"></path></g><path d="M157.71 29.1C157.77 29.508 157.836 29.934 157.908 30.378C157.98 30.81 158.052 31.278 158.124 31.782C158.676 31.434 159.252 31.086 159.852 30.738C160.464 30.378 161.034 30.09 161.562 29.874C161.61 29.862 161.67 29.862 161.742 29.874C161.826 29.874 161.91 29.892 161.994 29.928C162.078 29.952 162.15 29.988 162.21 30.036C162.27 30.084 162.312 30.144 162.336 30.216C162.36 30.3 162.342 30.414 162.282 30.558C162.222 30.69 162.156 30.768 162.084 30.792C161.94 30.876 161.748 30.99 161.508 31.134C161.28 31.266 161.034 31.41 160.77 31.566C160.518 31.722 160.266 31.878 160.014 32.034C159.774 32.19 159.57 32.322 159.402 32.43C160.086 32.802 160.752 33.12 161.4 33.384C162.06 33.648 162.756 33.864 163.488 34.032C163.56 34.044 163.632 34.092 163.704 34.176C163.788 34.248 163.854 34.338 163.902 34.446C163.95 34.554 163.974 34.662 163.974 34.77C163.986 34.878 163.962 34.974 163.902 35.058C163.83 35.154 163.728 35.214 163.596 35.238C163.476 35.25 163.35 35.244 163.218 35.22C162.306 35.004 161.472 34.74 160.716 34.428C159.96 34.104 159.168 33.714 158.34 33.258C158.4 33.774 158.454 34.308 158.502 34.86C158.562 35.412 158.616 35.994 158.664 36.606C158.664 36.738 158.61 36.816 158.502 36.84C158.394 36.852 158.274 36.846 158.142 36.822C158.01 36.798 157.89 36.756 157.782 36.696C157.674 36.636 157.608 36.576 157.584 36.516C157.512 35.964 157.434 35.382 157.35 34.77C157.278 34.158 157.194 33.54 157.098 32.916C157.002 32.28 156.9 31.656 156.792 31.044C156.684 30.42 156.576 29.826 156.468 29.262C156.444 29.13 156.474 28.98 156.558 28.812C156.642 28.632 156.798 28.53 157.026 28.506C157.11 28.506 157.188 28.53 157.26 28.578C157.344 28.614 157.416 28.668 157.476 28.74C157.548 28.8 157.602 28.866 157.638 28.938C157.674 28.998 157.698 29.052 157.71 29.1ZM166.284 31.422C166.212 31.746 166.14 32.106 166.068 32.502C165.996 32.886 165.942 33.258 165.906 33.618C165.882 33.978 165.882 34.302 165.906 34.59C165.942 34.878 166.02 35.082 166.14 35.202C166.344 35.238 166.578 35.154 166.842 34.95C167.106 34.734 167.364 34.464 167.616 34.14C167.868 33.816 168.096 33.468 168.3 33.096C168.504 32.712 168.648 32.376 168.732 32.088C168.78 31.944 168.822 31.794 168.858 31.638C168.894 31.482 168.912 31.32 168.912 31.152C168.912 31.056 168.972 30.966 169.092 30.882C169.224 30.786 169.332 30.732 169.416 30.72C169.476 30.708 169.542 30.72 169.614 30.756C169.698 30.792 169.77 30.846 169.83 30.918C169.902 30.978 169.962 31.056 170.01 31.152C170.07 31.236 170.1 31.326 170.1 31.422C170.124 31.782 170.16 32.178 170.208 32.61C170.256 33.042 170.31 33.474 170.37 33.906C170.442 34.338 170.514 34.758 170.586 35.166C170.658 35.574 170.73 35.94 170.802 36.264C170.838 36.396 170.802 36.546 170.694 36.714C170.586 36.882 170.466 36.984 170.334 37.02C170.226 37.044 170.112 37.032 169.992 36.984C169.884 36.936 169.8 36.84 169.74 36.696C169.68 36.528 169.62 36.324 169.56 36.084C169.512 35.832 169.464 35.574 169.416 35.31C169.38 35.034 169.344 34.776 169.308 34.536C169.272 34.284 169.248 34.074 169.236 33.906C169.056 34.23 168.84 34.56 168.588 34.896C168.348 35.22 168.084 35.52 167.796 35.796C167.52 36.06 167.226 36.27 166.914 36.426C166.614 36.57 166.302 36.624 165.978 36.588C165.498 36.528 165.132 36.078 164.88 35.238C164.784 34.902 164.736 34.53 164.736 34.122C164.748 33.714 164.778 33.312 164.826 32.916C164.886 32.508 164.952 32.124 165.024 31.764C165.108 31.404 165.18 31.11 165.24 30.882C165.264 30.786 165.312 30.702 165.384 30.63C165.456 30.546 165.54 30.516 165.636 30.54C165.816 30.576 165.978 30.684 166.122 30.864C166.278 31.044 166.332 31.23 166.284 31.422ZM177.501 30.54C177.285 30.66 177.057 30.786 176.817 30.918C176.589 31.05 176.355 31.206 176.115 31.386C175.887 31.554 175.665 31.758 175.449 31.998C175.245 32.226 175.059 32.502 174.891 32.826C174.651 33.282 174.489 33.75 174.405 34.23C174.321 34.698 174.267 35.16 174.243 35.616C174.243 35.832 174.189 36.054 174.081 36.282C173.985 36.498 173.847 36.606 173.667 36.606C173.439 36.606 173.253 36.492 173.109 36.264C172.977 36.024 172.887 35.796 172.839 35.58C172.635 34.728 172.467 33.888 172.335 33.06C172.203 32.22 172.089 31.386 171.993 30.558C171.993 30.39 172.041 30.282 172.137 30.234C172.245 30.186 172.365 30.168 172.497 30.18C172.641 30.192 172.779 30.228 172.911 30.288C173.043 30.348 173.121 30.444 173.145 30.576C173.193 31.02 173.253 31.488 173.325 31.98C173.397 32.46 173.469 32.874 173.541 33.222C173.589 32.814 173.721 32.418 173.937 32.034C174.153 31.65 174.417 31.302 174.729 30.99C175.053 30.678 175.413 30.414 175.809 30.198C176.217 29.982 176.631 29.838 177.051 29.766C177.231 29.742 177.381 29.742 177.501 29.766C177.621 29.79 177.705 29.832 177.753 29.892C177.801 29.952 177.807 30.048 177.771 30.18C177.747 30.312 177.657 30.432 177.501 30.54ZM183.088 30.09C183.136 30.426 183.172 30.786 183.196 31.17C183.232 31.542 183.256 31.92 183.268 32.304C183.292 32.688 183.304 33.06 183.304 33.42C183.304 33.78 183.298 34.104 183.286 34.392C183.67 34.656 183.898 34.89 183.97 35.094C184.054 35.298 184.066 35.478 184.006 35.634C183.934 35.85 183.802 35.964 183.61 35.976C183.43 35.976 183.22 35.91 182.98 35.778C182.812 35.898 182.62 36.03 182.404 36.174C182.188 36.306 181.96 36.438 181.72 36.57C181.48 36.69 181.24 36.798 181 36.894C180.76 36.99 180.538 37.056 180.334 37.092C179.95 37.152 179.602 37.08 179.29 36.876C178.99 36.672 178.786 36.366 178.678 35.958C178.606 35.682 178.588 35.4 178.624 35.112C178.66 34.812 178.75 34.53 178.894 34.266C179.038 33.99 179.23 33.744 179.47 33.528C179.722 33.312 180.016 33.144 180.352 33.024C180.436 32.988 180.55 32.958 180.694 32.934C180.85 32.91 181.006 32.904 181.162 32.916C181.33 32.916 181.498 32.946 181.666 33.006C181.834 33.066 181.99 33.168 182.134 33.312C182.134 33.108 182.128 32.886 182.116 32.646C182.116 32.394 182.11 32.142 182.098 31.89C182.086 31.638 182.068 31.404 182.044 31.188C182.032 30.96 182.014 30.768 181.99 30.612C181.966 30.432 181.894 30.324 181.774 30.288C181.666 30.24 181.528 30.246 181.36 30.306C181.072 30.402 180.736 30.588 180.352 30.864C179.968 31.14 179.602 31.434 179.254 31.746C179.146 31.854 179.02 31.902 178.876 31.89C178.744 31.878 178.63 31.824 178.534 31.728C178.438 31.632 178.384 31.524 178.372 31.404C178.36 31.272 178.408 31.134 178.516 30.99C178.72 30.774 178.948 30.552 179.2 30.324C179.452 30.096 179.716 29.892 179.992 29.712C180.268 29.52 180.55 29.364 180.838 29.244C181.126 29.124 181.414 29.058 181.702 29.046C182.122 29.034 182.446 29.13 182.674 29.334C182.902 29.526 183.04 29.778 183.088 30.09ZM181 33.96C180.844 33.996 180.676 34.074 180.496 34.194C180.328 34.302 180.172 34.44 180.028 34.608C179.896 34.764 179.794 34.944 179.722 35.148C179.662 35.34 179.662 35.532 179.722 35.724C179.746 35.796 179.794 35.85 179.866 35.886C179.95 35.922 180.04 35.928 180.136 35.904C180.424 35.844 180.748 35.73 181.108 35.562C181.48 35.382 181.774 35.19 181.99 34.986C181.99 34.914 181.954 34.824 181.882 34.716C181.81 34.596 181.726 34.482 181.63 34.374C181.534 34.254 181.426 34.152 181.306 34.068C181.198 33.984 181.096 33.948 181 33.96ZM186.208 30.81C186.244 30.99 186.28 31.194 186.316 31.422C186.364 31.638 186.412 31.866 186.46 32.106C186.508 32.334 186.55 32.568 186.586 32.808C186.622 33.048 186.652 33.276 186.676 33.492C186.82 33.18 186.976 32.85 187.144 32.502C187.312 32.154 187.492 31.836 187.684 31.548C187.888 31.248 188.098 31.002 188.314 30.81C188.542 30.618 188.788 30.522 189.052 30.522C189.448 30.522 189.778 30.666 190.042 30.954C190.318 31.242 190.546 31.602 190.726 32.034C190.918 32.454 191.068 32.898 191.176 33.366C191.284 33.834 191.374 34.248 191.446 34.608C191.518 34.932 191.374 35.172 191.014 35.328C190.846 35.412 190.72 35.424 190.636 35.364C190.552 35.304 190.504 35.244 190.492 35.184C190.432 35.04 190.354 34.788 190.258 34.428C190.174 34.068 190.072 33.702 189.952 33.33C189.844 32.958 189.718 32.634 189.574 32.358C189.43 32.082 189.268 31.956 189.088 31.98C188.872 31.992 188.68 32.154 188.512 32.466C188.368 32.718 188.218 33 188.062 33.312C187.918 33.612 187.774 33.924 187.63 34.248C187.486 34.56 187.342 34.878 187.198 35.202C187.066 35.514 186.94 35.802 186.82 36.066C186.736 36.15 186.628 36.21 186.496 36.246C186.376 36.27 186.25 36.258 186.118 36.21C185.998 36.174 185.902 36.114 185.83 36.03C185.758 35.946 185.722 35.862 185.722 35.778C185.614 34.842 185.5 33.99 185.38 33.222C185.272 32.454 185.128 31.668 184.948 30.864C184.864 30.588 184.846 30.372 184.894 30.216C184.954 30.048 185.134 29.982 185.434 30.018C185.854 30.09 186.112 30.354 186.208 30.81ZM195.961 31.782C196.057 31.914 196.147 32.082 196.231 32.286C196.327 32.478 196.399 32.676 196.447 32.88C196.519 33.204 196.597 33.558 196.681 33.942C196.777 34.314 196.867 34.704 196.951 35.112C197.047 35.52 197.131 35.934 197.203 36.354C197.287 36.774 197.359 37.176 197.419 37.56C197.491 38.088 197.449 38.592 197.293 39.072C197.149 39.564 196.903 40.002 196.555 40.386C196.207 40.77 195.775 41.076 195.259 41.304C194.743 41.532 194.161 41.658 193.513 41.682C193.369 41.67 193.219 41.598 193.063 41.466C192.907 41.346 192.829 41.22 192.829 41.088C192.817 40.956 192.877 40.848 193.009 40.764C193.153 40.692 193.297 40.644 193.441 40.62C193.693 40.596 193.951 40.542 194.215 40.458C194.491 40.386 194.749 40.278 194.989 40.134C195.229 39.99 195.445 39.816 195.637 39.612C195.841 39.408 195.997 39.168 196.105 38.892C196.189 38.676 196.231 38.412 196.231 38.1C196.231 37.776 196.207 37.458 196.159 37.146C196.123 36.834 196.069 36.54 195.997 36.264C195.937 35.976 195.883 35.76 195.835 35.616C195.751 35.7 195.643 35.79 195.511 35.886C195.391 35.982 195.253 36.072 195.097 36.156C194.941 36.24 194.767 36.306 194.575 36.354C194.395 36.402 194.209 36.42 194.017 36.408C193.813 36.396 193.621 36.324 193.441 36.192C193.273 36.06 193.123 35.892 192.991 35.688C192.859 35.472 192.751 35.226 192.667 34.95C192.595 34.674 192.559 34.386 192.559 34.086C192.583 33.366 192.763 32.73 193.099 32.178C193.447 31.614 193.999 31.176 194.755 30.864C194.815 30.852 194.893 30.84 194.989 30.828C195.097 30.816 195.205 30.816 195.313 30.828C195.421 30.828 195.523 30.84 195.619 30.864C195.727 30.888 195.817 30.924 195.889 30.972C196.021 31.068 196.087 31.206 196.087 31.386C196.087 31.566 196.045 31.698 195.961 31.782ZM193.693 34.248C193.693 34.38 193.705 34.53 193.729 34.698C193.753 34.854 193.831 34.968 193.963 35.04C194.107 35.124 194.281 35.136 194.485 35.076C194.701 35.016 194.899 34.914 195.079 34.77C195.247 34.638 195.355 34.494 195.403 34.338C195.463 34.17 195.463 33.948 195.403 33.672C195.343 33.396 195.277 33.108 195.205 32.808C195.133 32.508 195.085 32.238 195.061 31.998C194.917 32.07 194.761 32.172 194.593 32.304C194.437 32.436 194.293 32.604 194.161 32.808C194.029 33 193.915 33.216 193.819 33.456C193.735 33.696 193.693 33.96 193.693 34.248ZM203.735 30.864C203.783 30.852 203.855 30.846 203.951 30.846C204.047 30.834 204.137 30.84 204.221 30.864C204.317 30.876 204.395 30.906 204.455 30.954C204.527 30.99 204.569 31.038 204.581 31.098C204.605 31.242 204.581 31.374 204.509 31.494C204.449 31.602 204.335 31.698 204.167 31.782C203.711 31.998 203.237 32.244 202.745 32.52C202.253 32.784 201.833 33.024 201.485 33.24C201.701 33.384 201.947 33.546 202.223 33.726C202.511 33.906 202.805 34.098 203.105 34.302C203.405 34.494 203.705 34.704 204.005 34.932C204.305 35.148 204.587 35.364 204.851 35.58C205.091 35.784 205.133 35.97 204.977 36.138C204.905 36.222 204.785 36.282 204.617 36.318C204.461 36.354 204.311 36.336 204.167 36.264C203.903 36.132 203.615 35.976 203.303 35.796C202.991 35.604 202.673 35.412 202.349 35.22C202.025 35.016 201.707 34.818 201.395 34.626C201.095 34.422 200.819 34.236 200.567 34.068C200.615 34.488 200.657 34.908 200.693 35.328C200.741 35.748 200.783 36.168 200.819 36.588C200.891 36.816 200.885 37.002 200.801 37.146C200.717 37.29 200.579 37.356 200.387 37.344C200.183 37.308 200.033 37.23 199.937 37.11C199.841 36.978 199.769 36.81 199.721 36.606C199.649 36.114 199.565 35.532 199.469 34.86C199.385 34.188 199.295 33.492 199.199 32.772C199.103 32.052 199.007 31.35 198.911 30.666C198.827 29.982 198.749 29.376 198.677 28.848C198.653 28.68 198.635 28.5 198.623 28.308C198.623 28.104 198.689 27.972 198.821 27.912C199.001 27.84 199.187 27.882 199.379 28.038C199.571 28.182 199.715 28.404 199.811 28.704C199.907 29.256 200.003 29.856 200.099 30.504C200.195 31.152 200.291 31.836 200.387 32.556C200.627 32.412 200.903 32.256 201.215 32.088C201.539 31.908 201.857 31.74 202.169 31.584C202.493 31.416 202.793 31.266 203.069 31.134C203.345 31.002 203.567 30.912 203.735 30.864ZM210.597 30.09C210.645 30.426 210.681 30.786 210.705 31.17C210.741 31.542 210.765 31.92 210.777 32.304C210.801 32.688 210.813 33.06 210.813 33.42C210.813 33.78 210.807 34.104 210.795 34.392C211.179 34.656 211.407 34.89 211.479 35.094C211.563 35.298 211.575 35.478 211.515 35.634C211.443 35.85 211.311 35.964 211.119 35.976C210.939 35.976 210.729 35.91 210.489 35.778C210.321 35.898 210.129 36.03 209.913 36.174C209.697 36.306 209.469 36.438 209.229 36.57C208.989 36.69 208.749 36.798 208.509 36.894C208.269 36.99 208.047 37.056 207.843 37.092C207.459 37.152 207.111 37.08 206.799 36.876C206.499 36.672 206.295 36.366 206.187 35.958C206.115 35.682 206.097 35.4 206.133 35.112C206.169 34.812 206.259 34.53 206.403 34.266C206.547 33.99 206.739 33.744 206.979 33.528C207.231 33.312 207.525 33.144 207.861 33.024C207.945 32.988 208.059 32.958 208.203 32.934C208.359 32.91 208.515 32.904 208.671 32.916C208.839 32.916 209.007 32.946 209.175 33.006C209.343 33.066 209.499 33.168 209.643 33.312C209.643 33.108 209.637 32.886 209.625 32.646C209.625 32.394 209.619 32.142 209.607 31.89C209.595 31.638 209.577 31.404 209.553 31.188C209.541 30.96 209.523 30.768 209.499 30.612C209.475 30.432 209.403 30.324 209.283 30.288C209.175 30.24 209.037 30.246 208.869 30.306C208.581 30.402 208.245 30.588 207.861 30.864C207.477 31.14 207.111 31.434 206.763 31.746C206.655 31.854 206.529 31.902 206.385 31.89C206.253 31.878 206.139 31.824 206.043 31.728C205.947 31.632 205.893 31.524 205.881 31.404C205.869 31.272 205.917 31.134 206.025 30.99C206.229 30.774 206.457 30.552 206.709 30.324C206.961 30.096 207.225 29.892 207.501 29.712C207.777 29.52 208.059 29.364 208.347 29.244C208.635 29.124 208.923 29.058 209.211 29.046C209.631 29.034 209.955 29.13 210.183 29.334C210.411 29.526 210.549 29.778 210.597 30.09ZM208.509 33.96C208.353 33.996 208.185 34.074 208.005 34.194C207.837 34.302 207.681 34.44 207.537 34.608C207.405 34.764 207.303 34.944 207.231 35.148C207.171 35.34 207.171 35.532 207.231 35.724C207.255 35.796 207.303 35.85 207.375 35.886C207.459 35.922 207.549 35.928 207.645 35.904C207.933 35.844 208.257 35.73 208.617 35.562C208.989 35.382 209.283 35.19 209.499 34.986C209.499 34.914 209.463 34.824 209.391 34.716C209.319 34.596 209.235 34.482 209.139 34.374C209.043 34.254 208.935 34.152 208.815 34.068C208.707 33.984 208.605 33.948 208.509 33.96ZM213.718 30.81C213.754 30.99 213.79 31.194 213.826 31.422C213.874 31.638 213.922 31.866 213.97 32.106C214.018 32.334 214.06 32.568 214.096 32.808C214.132 33.048 214.162 33.276 214.186 33.492C214.33 33.18 214.486 32.85 214.654 32.502C214.822 32.154 215.002 31.836 215.194 31.548C215.398 31.248 215.608 31.002 215.824 30.81C216.052 30.618 216.298 30.522 216.562 30.522C216.958 30.522 217.288 30.666 217.552 30.954C217.828 31.242 218.056 31.602 218.236 32.034C218.428 32.454 218.578 32.898 218.686 33.366C218.794 33.834 218.884 34.248 218.956 34.608C219.028 34.932 218.884 35.172 218.524 35.328C218.356 35.412 218.23 35.424 218.146 35.364C218.062 35.304 218.014 35.244 218.002 35.184C217.942 35.04 217.864 34.788 217.768 34.428C217.684 34.068 217.582 33.702 217.462 33.33C217.354 32.958 217.228 32.634 217.084 32.358C216.94 32.082 216.778 31.956 216.598 31.98C216.382 31.992 216.19 32.154 216.022 32.466C215.878 32.718 215.728 33 215.572 33.312C215.428 33.612 215.284 33.924 215.14 34.248C214.996 34.56 214.852 34.878 214.708 35.202C214.576 35.514 214.45 35.802 214.33 36.066C214.246 36.15 214.138 36.21 214.006 36.246C213.886 36.27 213.76 36.258 213.628 36.21C213.508 36.174 213.412 36.114 213.34 36.03C213.268 35.946 213.232 35.862 213.232 35.778C213.124 34.842 213.01 33.99 212.89 33.222C212.782 32.454 212.638 31.668 212.458 30.864C212.374 30.588 212.356 30.372 212.404 30.216C212.464 30.048 212.644 29.982 212.944 30.018C213.364 30.09 213.622 30.354 213.718 30.81ZM159.798 51.998C159.738 51.998 159.66 51.992 159.564 51.98C159.48 51.956 159.396 51.926 159.312 51.89C159.24 51.842 159.174 51.788 159.114 51.728C159.054 51.656 159.024 51.584 159.024 51.512C159.024 51.416 159.078 51.302 159.186 51.17C159.306 51.026 159.498 50.918 159.762 50.846C160.122 50.762 160.5 50.714 160.896 50.702C161.292 50.678 161.688 50.678 162.084 50.702C162.48 50.714 162.87 50.738 163.254 50.774C163.638 50.798 163.998 50.816 164.334 50.828C164.526 50.828 164.652 50.864 164.712 50.936C164.772 51.008 164.802 51.092 164.802 51.188C164.802 51.404 164.706 51.572 164.514 51.692C164.322 51.812 164.13 51.866 163.938 51.854C163.734 51.842 163.518 51.836 163.29 51.836C163.074 51.836 162.846 51.836 162.606 51.836C162.606 52.172 162.618 52.55 162.642 52.97C162.678 53.378 162.714 53.792 162.75 54.212C162.786 54.632 162.822 55.034 162.858 55.418C162.906 55.802 162.948 56.126 162.984 56.39C163.008 56.486 162.984 56.576 162.912 56.66C162.852 56.732 162.756 56.768 162.624 56.768C162.372 56.768 162.186 56.612 162.066 56.3C161.838 55.712 161.676 55.04 161.58 54.284C160.932 54.68 160.296 54.926 159.672 55.022C159.048 55.118 158.484 55.1 157.98 54.968C157.488 54.824 157.086 54.584 156.774 54.248C156.474 53.9 156.324 53.48 156.324 52.988C156.324 52.52 156.408 52.016 156.576 51.476C156.744 50.936 156.984 50.414 157.296 49.91C157.608 49.406 157.974 48.95 158.394 48.542C158.826 48.122 159.306 47.804 159.834 47.588C160.014 47.54 160.182 47.534 160.338 47.57C160.506 47.594 160.656 47.654 160.788 47.75C160.932 47.834 161.058 47.942 161.166 48.074C161.286 48.194 161.388 48.314 161.472 48.434C161.532 48.518 161.568 48.608 161.58 48.704C161.592 48.8 161.556 48.89 161.472 48.974C161.292 49.106 161.136 49.094 161.004 48.938C160.8 48.686 160.626 48.536 160.482 48.488C160.35 48.428 160.164 48.476 159.924 48.632C159.684 48.8 159.42 49.058 159.132 49.406C158.844 49.742 158.574 50.12 158.322 50.54C158.082 50.948 157.89 51.374 157.746 51.818C157.602 52.25 157.554 52.652 157.602 53.024C157.638 53.348 157.818 53.582 158.142 53.726C158.466 53.858 158.832 53.918 159.24 53.906C159.66 53.894 160.074 53.816 160.482 53.672C160.902 53.528 161.226 53.336 161.454 53.096C161.442 52.892 161.43 52.688 161.418 52.484C161.406 52.268 161.4 52.058 161.4 51.854C161.136 51.878 160.872 51.902 160.608 51.926C160.344 51.938 160.074 51.962 159.798 51.998ZM170.22 50.09C170.268 50.426 170.304 50.786 170.328 51.17C170.364 51.542 170.388 51.92 170.4 52.304C170.424 52.688 170.436 53.06 170.436 53.42C170.436 53.78 170.43 54.104 170.418 54.392C170.802 54.656 171.03 54.89 171.102 55.094C171.186 55.298 171.198 55.478 171.138 55.634C171.066 55.85 170.934 55.964 170.742 55.976C170.562 55.976 170.352 55.91 170.112 55.778C169.944 55.898 169.752 56.03 169.536 56.174C169.32 56.306 169.092 56.438 168.852 56.57C168.612 56.69 168.372 56.798 168.132 56.894C167.892 56.99 167.67 57.056 167.466 57.092C167.082 57.152 166.734 57.08 166.422 56.876C166.122 56.672 165.918 56.366 165.81 55.958C165.738 55.682 165.72 55.4 165.756 55.112C165.792 54.812 165.882 54.53 166.026 54.266C166.17 53.99 166.362 53.744 166.602 53.528C166.854 53.312 167.148 53.144 167.484 53.024C167.568 52.988 167.682 52.958 167.826 52.934C167.982 52.91 168.138 52.904 168.294 52.916C168.462 52.916 168.63 52.946 168.798 53.006C168.966 53.066 169.122 53.168 169.266 53.312C169.266 53.108 169.26 52.886 169.248 52.646C169.248 52.394 169.242 52.142 169.23 51.89C169.218 51.638 169.2 51.404 169.176 51.188C169.164 50.96 169.146 50.768 169.122 50.612C169.098 50.432 169.026 50.324 168.906 50.288C168.798 50.24 168.66 50.246 168.492 50.306C168.204 50.402 167.868 50.588 167.484 50.864C167.1 51.14 166.734 51.434 166.386 51.746C166.278 51.854 166.152 51.902 166.008 51.89C165.876 51.878 165.762 51.824 165.666 51.728C165.57 51.632 165.516 51.524 165.504 51.404C165.492 51.272 165.54 51.134 165.648 50.99C165.852 50.774 166.08 50.552 166.332 50.324C166.584 50.096 166.848 49.892 167.124 49.712C167.4 49.52 167.682 49.364 167.97 49.244C168.258 49.124 168.546 49.058 168.834 49.046C169.254 49.034 169.578 49.13 169.806 49.334C170.034 49.526 170.172 49.778 170.22 50.09ZM168.132 53.96C167.976 53.996 167.808 54.074 167.628 54.194C167.46 54.302 167.304 54.44 167.16 54.608C167.028 54.764 166.926 54.944 166.854 55.148C166.794 55.34 166.794 55.532 166.854 55.724C166.878 55.796 166.926 55.85 166.998 55.886C167.082 55.922 167.172 55.928 167.268 55.904C167.556 55.844 167.88 55.73 168.24 55.562C168.612 55.382 168.906 55.19 169.122 54.986C169.122 54.914 169.086 54.824 169.014 54.716C168.942 54.596 168.858 54.482 168.762 54.374C168.666 54.254 168.558 54.152 168.438 54.068C168.33 53.984 168.228 53.948 168.132 53.96ZM177.571 50.54C177.355 50.66 177.127 50.786 176.887 50.918C176.659 51.05 176.425 51.206 176.185 51.386C175.957 51.554 175.735 51.758 175.519 51.998C175.315 52.226 175.129 52.502 174.961 52.826C174.721 53.282 174.559 53.75 174.475 54.23C174.391 54.698 174.337 55.16 174.313 55.616C174.313 55.832 174.259 56.054 174.151 56.282C174.055 56.498 173.917 56.606 173.737 56.606C173.509 56.606 173.323 56.492 173.179 56.264C173.047 56.024 172.957 55.796 172.909 55.58C172.705 54.728 172.537 53.888 172.405 53.06C172.273 52.22 172.159 51.386 172.063 50.558C172.063 50.39 172.111 50.282 172.207 50.234C172.315 50.186 172.435 50.168 172.567 50.18C172.711 50.192 172.849 50.228 172.981 50.288C173.113 50.348 173.191 50.444 173.215 50.576C173.263 51.02 173.323 51.488 173.395 51.98C173.467 52.46 173.539 52.874 173.611 53.222C173.659 52.814 173.791 52.418 174.007 52.034C174.223 51.65 174.487 51.302 174.799 50.99C175.123 50.678 175.483 50.414 175.879 50.198C176.287 49.982 176.701 49.838 177.121 49.766C177.301 49.742 177.451 49.742 177.571 49.766C177.691 49.79 177.775 49.832 177.823 49.892C177.871 49.952 177.877 50.048 177.841 50.18C177.817 50.312 177.727 50.432 177.571 50.54ZM183.158 50.09C183.206 50.426 183.242 50.786 183.266 51.17C183.302 51.542 183.326 51.92 183.338 52.304C183.362 52.688 183.374 53.06 183.374 53.42C183.374 53.78 183.368 54.104 183.356 54.392C183.74 54.656 183.968 54.89 184.04 55.094C184.124 55.298 184.136 55.478 184.076 55.634C184.004 55.85 183.872 55.964 183.68 55.976C183.5 55.976 183.29 55.91 183.05 55.778C182.882 55.898 182.69 56.03 182.474 56.174C182.258 56.306 182.03 56.438 181.79 56.57C181.55 56.69 181.31 56.798 181.07 56.894C180.83 56.99 180.608 57.056 180.404 57.092C180.02 57.152 179.672 57.08 179.36 56.876C179.06 56.672 178.856 56.366 178.748 55.958C178.676 55.682 178.658 55.4 178.694 55.112C178.73 54.812 178.82 54.53 178.964 54.266C179.108 53.99 179.3 53.744 179.54 53.528C179.792 53.312 180.086 53.144 180.422 53.024C180.506 52.988 180.62 52.958 180.764 52.934C180.92 52.91 181.076 52.904 181.232 52.916C181.4 52.916 181.568 52.946 181.736 53.006C181.904 53.066 182.06 53.168 182.204 53.312C182.204 53.108 182.198 52.886 182.186 52.646C182.186 52.394 182.18 52.142 182.168 51.89C182.156 51.638 182.138 51.404 182.114 51.188C182.102 50.96 182.084 50.768 182.06 50.612C182.036 50.432 181.964 50.324 181.844 50.288C181.736 50.24 181.598 50.246 181.43 50.306C181.142 50.402 180.806 50.588 180.422 50.864C180.038 51.14 179.672 51.434 179.324 51.746C179.216 51.854 179.09 51.902 178.946 51.89C178.814 51.878 178.7 51.824 178.604 51.728C178.508 51.632 178.454 51.524 178.442 51.404C178.43 51.272 178.478 51.134 178.586 50.99C178.79 50.774 179.018 50.552 179.27 50.324C179.522 50.096 179.786 49.892 180.062 49.712C180.338 49.52 180.62 49.364 180.908 49.244C181.196 49.124 181.484 49.058 181.772 49.046C182.192 49.034 182.516 49.13 182.744 49.334C182.972 49.526 183.11 49.778 183.158 50.09ZM181.07 53.96C180.914 53.996 180.746 54.074 180.566 54.194C180.398 54.302 180.242 54.44 180.098 54.608C179.966 54.764 179.864 54.944 179.792 55.148C179.732 55.34 179.732 55.532 179.792 55.724C179.816 55.796 179.864 55.85 179.936 55.886C180.02 55.922 180.11 55.928 180.206 55.904C180.494 55.844 180.818 55.73 181.178 55.562C181.55 55.382 181.844 55.19 182.06 54.986C182.06 54.914 182.024 54.824 181.952 54.716C181.88 54.596 181.796 54.482 181.7 54.374C181.604 54.254 181.496 54.152 181.376 54.068C181.268 53.984 181.166 53.948 181.07 53.96ZM186.207 50.936C186.219 51.128 186.237 51.368 186.261 51.656C186.297 51.932 186.333 52.226 186.369 52.538C186.405 52.838 186.441 53.138 186.477 53.438C186.525 53.738 186.567 54.014 186.603 54.266C186.735 54.002 186.897 53.678 187.089 53.294C187.281 52.91 187.479 52.544 187.683 52.196C187.899 51.836 188.115 51.536 188.331 51.296C188.559 51.044 188.763 50.918 188.943 50.918C189.135 50.918 189.309 51.014 189.465 51.206C189.633 51.386 189.777 51.608 189.897 51.872C190.017 52.136 190.119 52.418 190.203 52.718C190.299 53.018 190.377 53.282 190.437 53.51C190.485 53.354 190.545 53.18 190.617 52.988C190.701 52.784 190.785 52.58 190.869 52.376C190.965 52.16 191.067 51.95 191.175 51.746C191.295 51.542 191.421 51.362 191.553 51.206C191.709 51.038 191.877 50.918 192.057 50.846C192.237 50.762 192.369 50.72 192.453 50.72C192.561 50.72 192.687 50.756 192.831 50.828C192.987 50.888 193.143 50.972 193.299 51.08C193.455 51.188 193.599 51.32 193.731 51.476C193.875 51.62 193.989 51.77 194.073 51.926C194.241 52.25 194.373 52.604 194.469 52.988C194.577 53.372 194.655 53.738 194.703 54.086C194.751 54.434 194.781 54.746 194.793 55.022C194.817 55.286 194.835 55.472 194.847 55.58C194.847 55.736 194.829 55.856 194.793 55.94C194.757 56.012 194.691 56.072 194.595 56.12C194.463 56.18 194.349 56.204 194.253 56.192C194.157 56.168 194.079 56.126 194.019 56.066C193.959 56.006 193.911 55.94 193.875 55.868C193.839 55.784 193.815 55.712 193.803 55.652C193.767 55.376 193.725 55.094 193.677 54.806C193.641 54.518 193.599 54.242 193.551 53.978C193.503 53.702 193.443 53.45 193.371 53.222C193.311 52.982 193.245 52.772 193.173 52.592C193.149 52.544 193.107 52.484 193.047 52.412C192.999 52.328 192.939 52.25 192.867 52.178C192.807 52.106 192.747 52.046 192.687 51.998C192.627 51.95 192.585 51.92 192.561 51.908C192.441 51.908 192.315 52.022 192.183 52.25C192.051 52.466 191.925 52.73 191.805 53.042C191.685 53.354 191.571 53.684 191.463 54.032C191.367 54.368 191.295 54.656 191.247 54.896C191.247 55.208 191.187 55.442 191.067 55.598C190.947 55.742 190.821 55.814 190.689 55.814C190.557 55.814 190.413 55.766 190.257 55.67C190.113 55.562 190.017 55.442 189.969 55.31C189.897 55.118 189.819 54.902 189.735 54.662C189.651 54.422 189.561 54.176 189.465 53.924C189.381 53.672 189.291 53.426 189.195 53.186C189.111 52.946 189.027 52.73 188.943 52.538C188.775 52.766 188.607 53.018 188.439 53.294C188.283 53.57 188.127 53.852 187.971 54.14C187.827 54.428 187.683 54.716 187.539 55.004C187.407 55.28 187.281 55.526 187.161 55.742C187.077 55.874 186.987 55.994 186.891 56.102C186.795 56.198 186.681 56.246 186.549 56.246C186.453 56.246 186.351 56.204 186.243 56.12C186.135 56.024 186.033 55.91 185.937 55.778C185.841 55.646 185.751 55.496 185.667 55.328C185.595 55.16 185.541 54.992 185.505 54.824C185.409 54.308 185.325 53.744 185.253 53.132C185.193 52.508 185.133 51.902 185.073 51.314C185.061 51.11 185.085 50.924 185.145 50.756C185.217 50.576 185.349 50.456 185.541 50.396C185.745 50.36 185.901 50.39 186.009 50.486C186.117 50.582 186.183 50.732 186.207 50.936ZM199.15 47.318C199.042 47.846 198.928 48.368 198.808 48.884C198.7 49.4 198.598 49.916 198.502 50.432C198.406 50.948 198.334 51.464 198.286 51.98C198.238 52.496 198.232 53.012 198.268 53.528C198.292 53.66 198.268 53.786 198.196 53.906C198.136 54.026 198.064 54.104 197.98 54.14C197.716 54.236 197.524 54.17 197.404 53.942C197.26 53.33 197.182 52.724 197.17 52.124C197.17 51.524 197.212 50.93 197.296 50.342C197.392 49.754 197.512 49.172 197.656 48.596C197.812 48.008 197.968 47.426 198.124 46.85C198.184 46.61 198.28 46.478 198.412 46.454C198.544 46.43 198.67 46.442 198.79 46.49C198.97 46.55 199.084 46.67 199.132 46.85C199.18 47.03 199.186 47.186 199.15 47.318ZM198.43 57.002C198.43 57.134 198.412 57.314 198.376 57.542C198.352 57.758 198.304 57.962 198.232 58.154C198.172 58.346 198.082 58.502 197.962 58.622C197.854 58.742 197.716 58.766 197.548 58.694C197.452 58.634 197.356 58.52 197.26 58.352C197.164 58.184 197.122 58.028 197.134 57.884C197.158 57.596 197.218 57.314 197.314 57.038C197.41 56.762 197.536 56.594 197.692 56.534C197.764 56.51 197.842 56.51 197.926 56.534C198.022 56.558 198.106 56.6 198.178 56.66C198.25 56.708 198.31 56.768 198.358 56.84C198.406 56.9 198.43 56.954 198.43 57.002Z" fill="black"></path><defs><clipPath id="clip0"><rect width="156" height="215" fill="white" transform="translate(29 8)"></rect></clipPath></defs></svg>