<svg width="195" height="187" viewBox="0 0 195 187" fill="none" xmlns="http://www.w3.org/2000/svg">
<mask id="mask0" mask-type="alpha" maskUnits="userSpaceOnUse" x="0" y="0" width="195" height="187">
<rect width="195" height="187" fill="white"/>
</mask>
<g mask="url(#mask0)">
<path fill-rule="evenodd" clip-rule="evenodd" d="M0.114343 98.9772C-2.50807 70.6419 0.158109 38.3839 24.044 22.0295C47.3546 6.06887 78.5309 19.683 107.178 25.6718C137.473 32.005 175.24 30.4354 189.775 56.6761C204.503 83.2646 187.959 114.977 169.681 138.511C155.261 157.076 129.922 160.183 105.889 164.684C82.3723 169.088 57.5835 176.046 37.1217 163.335C14.4368 149.243 2.46115 124.335 0.114343 98.9772Z" fill="#D2F8FD"/>
<path d="M102.927 72C117.563 72 129.427 60.8071 129.427 47C129.427 33.1929 117.563 22 102.927 22C88.2917 22 76.4272 33.1929 76.4272 47C76.4272 60.8071 88.2917 72 102.927 72Z" fill="#54293A"/>
<path d="M27.4272 97C27.4272 97 29.8978 113.452 43.4272 114L43.0743 99.9613L27.4272 97Z" fill="#FFCDA3"/>
<path d="M48.6297 110.135C47.2301 98.6421 36.1496 101.99 37.5492 113.371C39.532 128.993 40.815 142.717 43.8476 157L58.4272 153.318C54.6949 139.37 50.0294 122.298 48.6297 110.135Z" fill="#FFCDA3"/>
<path d="M74.5979 114C72.552 117.143 63.1647 155.65 62.0815 158.793C61.4798 160.477 60.3966 160.365 59.9152 158.569C59.4338 156.885 58.9524 155.088 58.471 153.18L43.4272 156.885C44.5104 161.824 45.8342 166.876 47.5192 172.04C50.0465 180.011 58.7117 182.144 65.8124 177.766C76.1625 171.367 93.3725 134.32 98.4272 128.707L74.5979 114Z" fill="#AF4EA6"/>
<path d="M49.814 113C48.4546 113 47.3218 111.881 47.4351 110.537L47.5483 101.358C47.5483 100.015 48.6812 98.8958 50.0405 99.0077C51.3999 99.0077 52.5327 100.127 52.4194 101.47L52.3061 110.649C52.3061 111.993 51.1733 113 49.814 113Z" fill="#FFCDA3"/>
<path d="M49.3495 111.887C49.3495 111.775 49.4687 111.775 49.3495 111.887L49.4687 67.9902C49.3495 67.9902 49.1111 67.9902 48.9919 67.9902L33.3755 68.2142V111.887H49.3495Z" fill="#D4F5F9"/>
<path d="M35.1636 88.1465V110.879L47.2037 110.543C47.3229 110.543 47.4421 110.543 47.4421 110.543V88.1465H35.1636Z" fill="#6AC3D1"/>
<path d="M29.9188 99.2302L36.9521 94.415C37.6674 93.8551 38.7402 93.9671 39.2171 94.527L39.4555 94.8629C39.9323 95.4228 39.6939 96.3187 38.9787 96.8786L31.9453 101.694C31.2301 102.254 30.1572 102.142 29.6803 101.582L29.4419 101.246C28.9651 100.686 29.2035 99.6781 29.9188 99.2302Z" fill="#FFCDA3"/>
<path d="M31.3486 103.599L37.309 99.1201C37.9051 98.6722 38.8588 98.7842 39.3356 99.3441L39.574 99.68C40.0508 100.24 39.9316 101.136 39.3356 101.584L33.3751 106.063C32.7791 106.511 31.8254 106.399 31.3486 105.839L31.1102 105.503C30.6333 104.943 30.6333 104.047 31.3486 103.599Z" fill="#FFCDA3"/>
<path d="M27.8925 95.3126L32.5417 91.9531C33.4953 91.2812 34.6874 91.2812 35.2835 91.9531C35.8795 92.625 35.6411 93.7448 34.6874 94.3047L30.0383 97.6642C29.0846 98.3361 27.8925 98.3361 27.2965 97.6642C26.7004 96.9923 27.0581 95.9845 27.8925 95.3126Z" fill="#FFCDA3"/>
<path d="M33.2565 107.295L36.8328 103.823C37.548 103.151 38.6209 103.039 39.3362 103.711C40.0514 104.271 39.9322 105.391 39.217 106.063L35.6407 109.534C34.9254 110.206 33.8525 110.318 33.1373 109.646C32.422 109.086 32.5412 107.966 33.2565 107.295Z" fill="#FFCDA3"/>
<path d="M77.6023 160.488C98.1063 158.808 115.988 149.961 133.035 139.995C133.869 134.06 134.227 128.013 132.677 122.078C132.2 120.062 131.485 118.159 130.77 116.255C130.174 115.583 135.538 117.151 135.18 116.367C132.081 109.984 120.756 103.153 113.007 101.137C112.411 101.025 111.815 100.801 111.339 100.577L111.458 100.801C109.431 100.466 107.405 100.354 105.378 100.242V100.13C104.544 100.13 103.828 100.018 103.113 100.018C100.967 100.018 98.8216 100.242 96.6758 100.577L96.795 100.354C96.3182 100.577 95.7221 100.801 95.1261 100.913C87.3775 102.929 78.1984 107.744 75.099 114.127C74.3837 115.023 77.6023 115.471 77.0063 116.143C76.1718 118.047 75.5758 119.95 75.099 121.966C72.4764 132.604 75.4566 143.242 77.0063 153.881C77.3639 156.12 77.4831 158.248 77.6023 160.488Z" fill="#AF4EA6"/>
<path d="M132.796 180.306C132.677 179.522 132.558 178.851 132.439 178.067C131.127 173.587 130.412 169.108 130.293 164.629C113.008 172.916 94.4111 178.851 76.0529 175.267C75.8144 176.163 75.6952 177.059 75.4568 177.955C75.3376 178.739 75.0992 179.522 75.0992 180.306C73.9071 199.903 82.0133 211.997 93.3382 211.997H114.677C125.882 212.109 135.538 195.424 132.796 180.306Z" fill="#AF4EA6"/>
<path d="M130.174 164.63C130.055 161.159 130.174 157.575 130.651 153.88C131.366 149.289 132.32 144.585 132.916 139.994C115.869 149.849 97.9873 158.695 77.4833 160.487C77.6025 165.526 77.0065 170.341 75.9336 175.268C94.2918 178.852 112.888 173.029 130.174 164.63Z" fill="#AF4EA6"/>
<path d="M94.4111 91.9531V100.8C94.4111 104.383 97.749 107.183 101.921 107.183H104.902C109.074 107.183 112.412 104.271 112.412 100.8V91.9531C109.789 92.961 106.69 93.5209 103.352 93.5209C100.133 93.5209 97.0337 92.961 94.4111 91.9531Z" fill="#FFCDA3"/>
<path d="M104.663 87.1368H104.186C101.087 87.1368 97.6295 85.5691 94.4109 83.1055V87.0248V91.84C97.0335 93.0718 100.133 93.7437 103.471 93.7437C106.809 93.7437 109.908 93.0718 112.531 91.84V84.8972V84.4492C110.027 86.129 107.405 87.1368 104.663 87.1368Z" fill="#FFA780"/>
<path d="M107.285 32.6035H98.4636C89.8805 32.6035 82.8472 39.8823 82.8472 48.7288V49.4007V68.3256V68.6615C82.8472 75.2685 95.1257 87.8104 103.947 87.8104C113.722 87.8104 122.782 74.7085 122.782 68.1016V67.7657V49.5127V48.8408C122.901 39.8823 115.868 32.6035 107.285 32.6035Z" fill="#FFCDA3"/>
<path d="M77.7217 58.6955C77.7217 58.6955 77.3641 66.3102 83.0861 65.8623V64.0706V58.9195V56.9038C82.9669 56.6798 78.9138 53.9923 77.7217 58.6955Z" fill="#FFA780"/>
<path d="M128.267 58.6955C128.267 58.6955 128.624 66.3102 122.902 65.8623V64.0706V58.9195V56.9038C123.141 56.6798 127.074 53.9923 128.267 58.6955Z" fill="#FFA780"/>
<path d="M123.974 42.5705C109.788 35.5156 95.6023 49.6253 81.5356 42.5705C81.5356 41.4507 81.5356 40.2189 81.5356 39.0991C95.7215 46.1539 109.907 32.0442 123.974 39.0991C123.974 40.2189 123.974 41.3387 123.974 42.5705Z" fill="#54293A"/>
<path d="M107.881 30.3638C102.04 29.8039 96.0797 30.2518 90.3577 31.8195C89.0464 32.1555 87.6159 32.7154 86.7814 33.7232C85.4701 35.4029 86.3045 37.9785 88.0927 39.2103C89.8808 40.4421 92.265 40.778 94.4108 40.5541C96.5565 40.3301 98.8215 39.7702 100.967 39.6582C104.305 39.4343 107.762 39.5462 110.266 36.8587C111.219 35.8509 111.338 35.2909 110.862 34.0592C110.623 33.4992 108.597 30.3638 107.881 30.3638Z" fill="#54293A"/>
<path d="M117.061 45.5947C120.28 48.2822 123.021 51.7537 123.975 55.673C127.671 51.7537 128.624 45.5947 126.121 40.7795C123.617 36.0762 117.895 33.0527 112.293 33.3887C110.743 33.5007 109.312 33.8366 108.12 34.7325C107.167 35.4044 106.094 36.9721 106.451 38.0919C106.809 39.3237 108.239 39.6597 109.312 40.2196C111.935 41.8993 114.677 43.579 117.061 45.5947Z" fill="#54293A"/>
<path d="M87.2582 63.5094C84.6356 61.4938 82.3707 59.0302 81.2978 56.1187C80.7017 54.7749 80.4633 53.2071 80.5825 51.7514C80.5825 50.8555 80.821 48.168 81.8938 47.832C82.3707 48.9518 82.1323 50.6316 82.3707 51.8634C82.6091 53.2071 82.9667 54.6629 83.4436 56.0067C84.1588 58.5823 85.4701 61.1578 87.2582 63.5094Z" fill="#54293A"/>
<path d="M113.723 22.8622C113.723 28.7972 108.597 33.7244 102.159 33.7244C95.8414 33.7244 90.5962 28.9092 90.5962 22.8622C90.5962 16.9272 95.7222 12 102.159 12C108.597 12 113.723 16.8152 113.723 22.8622Z" fill="#54293A"/>
<path d="M111.934 125.551C104.066 117.264 96.1984 124.207 102.636 133.39C109.311 142.908 114.914 151.755 121.471 160.377L132.557 152.315C125.762 144.364 117.775 131.822 111.934 125.551Z" fill="#FFCDA3"/>
<path d="M153.896 167.991C150.677 151.977 142.809 132.381 135.061 116.367C130.173 106.289 113.722 108.864 117.775 119.279C119.802 124.654 134.584 151.082 136.372 156.569C135.18 155.449 133.869 153.993 132.557 152.425L121.471 160.488C126.12 166.535 131.246 172.582 137.564 178.517C144.597 185.012 155.445 175.829 153.896 167.991Z" fill="#AF4EA6"/>
<path d="M106.451 130.701C109.789 128.573 112.531 125.662 114.319 122.19C115.273 120.398 115.869 118.047 114.796 116.367C113.604 114.575 111.1 114.351 109.074 114.463C106.809 114.575 104.425 115.023 102.279 115.695C101.444 115.919 100.491 116.255 99.8946 116.815C99.0602 117.599 98.3449 118.607 98.2257 119.839C97.9873 123.31 100.61 127.901 101.444 130.365C102.756 134.956 102.279 133.276 106.451 130.701Z" fill="#FFCDA3"/>
<path d="M107.643 120.06L104.901 107.742C104.663 106.958 105.378 106.062 106.332 105.838C107.285 105.614 108.239 106.174 108.477 107.07L111.219 119.388C111.458 120.172 110.742 121.068 109.789 121.292C108.716 121.404 107.762 120.844 107.643 120.06Z" fill="#FFCDA3"/>
<path d="M104.782 123.645L100.729 111.663C100.49 110.879 100.967 109.983 101.801 109.759C102.636 109.535 103.59 109.983 103.828 110.767L107.881 122.861C108.12 123.645 107.643 124.54 106.808 124.764C105.974 124.988 105.02 124.54 104.782 123.645Z" fill="#FFCDA3"/>
<path d="M101.563 127.79L97.5101 115.696C97.2717 114.912 97.7485 114.016 98.583 113.792C99.4174 113.568 100.371 114.016 100.61 114.8L104.663 126.894C104.901 127.678 104.424 128.574 103.59 128.798C102.755 129.134 101.802 128.574 101.563 127.79Z" fill="#FFCDA3"/>
<path d="M105.139 90.836L107.166 97.7788C107.285 98.2267 107.762 98.5627 108.239 98.4507C108.835 98.3387 109.193 97.8908 109.073 97.3309L106.808 89.8281L107.881 89.4922L110.027 96.883C110.146 97.3309 110.623 97.6668 111.1 97.5549C111.696 97.4429 112.054 96.995 111.934 96.435L109.908 89.4922C110.742 89.7162 111.338 90.388 111.577 91.1719L113.126 96.547C113.484 97.8908 112.65 99.3466 111.219 99.6825L109.789 100.018C108.358 100.354 106.808 99.5705 106.451 98.2267L104.901 92.8516C104.424 92.1797 104.663 91.3959 105.139 90.836Z" fill="#E2E2E2"/>
<path d="M108.359 99.9059L116.822 128.125C117.061 128.797 117.776 129.245 118.611 129.021C119.326 128.797 119.803 128.125 119.564 127.341L111.1 99.1221C110.862 98.4502 110.147 98.0023 109.312 98.2262C108.597 98.4502 108.239 99.2341 108.359 99.9059Z" fill="#E2E2E2"/>
<path d="M108.954 131.259C108.001 130.811 107.643 129.691 108.12 128.795L115.034 116.478C115.511 115.582 116.703 115.246 117.657 115.694C118.61 116.142 118.968 117.261 118.491 118.157L111.577 130.475C111.1 131.371 109.908 131.707 108.954 131.259Z" fill="#FFCDA3"/>
<path d="M110.027 107.52C110.862 107.296 111.815 107.856 111.935 108.752L114.438 119.166C113.365 118.942 111.1 115.135 110.027 115.583L108.716 109.424C108.597 108.528 109.074 107.744 110.027 107.52Z" fill="#FFCDA3"/>
<path d="M106.427 94C109.741 94 112.427 91.5376 112.427 88.5C112.427 85.4624 109.741 83 106.427 83C103.114 83 100.427 85.4624 100.427 88.5C100.427 91.5376 103.114 94 106.427 94Z" fill="#F7665F"/>
<path d="M102.756 178.633C94.1733 178.521 87.3784 177.401 87.3784 175.945C87.3784 174.49 94.1733 173.37 102.756 173.258C111.339 173.37 118.134 174.49 118.134 175.945C118.134 177.401 111.339 178.521 102.756 178.633Z" fill="white"/>
<path d="M102.756 162.731L67.7085 161.387C67.7085 161.387 72 172.138 87.9741 176.729L102.756 176.393L117.538 176.617C133.512 172.026 137.803 161.275 137.803 161.275L102.756 162.731Z" fill="white"/>
<path d="M102.756 164.969C83.4446 164.969 67.709 163.289 67.709 161.274C67.709 159.258 83.4446 157.578 102.756 157.578C122.068 157.578 137.804 159.258 137.804 161.274C137.804 163.289 122.188 164.969 102.756 164.969Z" fill="#E0F1ED"/>
<path d="M96.6758 165.19C97.6295 165.19 98.5832 165.19 99.5368 165.19C100.967 165.078 102.398 165.078 103.709 165.078C102.994 164.07 102.159 163.174 101.206 162.39C100.133 161.494 98.3447 160.15 96.0798 160.822C93.338 161.606 93.5764 163.622 94.4108 165.078C95.1261 165.078 95.9606 165.19 96.6758 165.19Z" fill="#F9713D"/>
<path d="M101.087 164.404C100.61 164.516 100.252 164.74 100.252 164.964C100.252 164.852 101.683 164.74 101.802 164.628C102.279 164.404 101.445 164.404 101.087 164.404Z" fill="#FCB87A"/>
<path d="M96.1979 165.19C96.6747 165.078 97.2708 164.854 97.39 164.742C97.5092 164.406 96.5555 164.406 96.0787 164.518C95.6019 164.63 95.2442 164.966 95.3634 165.19C95.6019 165.078 95.8403 165.19 96.1979 165.19Z" fill="#FCB87A"/>
<path d="M98.4632 162.053C98.1056 162.277 97.6287 162.389 97.1519 162.389C97.0327 162.165 97.1519 161.829 97.6287 161.829C98.1056 161.717 98.7016 161.829 98.7016 162.053H98.4632Z" fill="#FCB87A"/>
<path d="M90.3572 155.783C91.9069 157.351 93.8143 158.807 96.0792 160.151C93.2182 158.247 90.238 156.343 86.1849 154.999C88.6883 156.791 91.5493 158.471 94.7679 160.039C92.7414 158.919 90.5956 157.911 88.3306 156.903C85.9464 156.007 83.4431 155.223 80.582 154.775C80.8204 154.775 81.4165 155.335 81.6549 155.447C82.0125 155.671 82.4894 155.895 82.847 156.119C83.6815 156.567 84.5159 156.903 85.3504 157.351C87.1385 158.135 89.0459 158.919 91.0724 159.591C92.0261 159.927 93.099 160.262 94.0527 160.598C94.7679 160.822 95.96 161.382 96.9137 161.158C98.4634 160.71 96.1984 159.367 95.6024 158.919C94.0527 157.911 92.3837 156.791 90.3572 155.783Z" fill="#37AD70"/>
<path d="M85.2311 164.519C87.8537 164.631 90.5955 164.855 93.2181 164.967C92.6221 164.519 92.026 164.071 91.3108 163.735C90.1187 162.951 88.0921 161.943 86.1848 162.727C85.1119 163.175 84.7543 163.847 84.8735 164.519C84.9927 164.519 85.1119 164.519 85.2311 164.519Z" fill="#F9713D"/>
<path d="M88.9269 163.623C88.6885 163.847 88.2116 163.959 87.854 164.071C87.6156 163.847 87.7348 163.623 88.0924 163.511C88.4501 163.399 89.0461 163.511 89.1653 163.623H88.9269Z" fill="#FCB87A"/>
<path d="M79.6288 158.697C81.5362 160.04 83.6819 161.16 86.0661 162.28C82.8475 160.824 79.6288 159.257 75.5757 158.473C78.4367 159.928 81.5362 161.16 84.874 162.392C82.7283 161.608 80.4633 160.712 78.0791 160.152C75.6949 159.48 73.0723 159.033 70.4497 158.921C70.6881 158.921 71.4034 159.369 71.6418 159.48C72.1186 159.704 72.4763 159.816 72.9531 160.04C73.7876 160.376 74.7412 160.712 75.6949 160.936C77.6023 161.496 79.5096 162.056 81.5362 162.504C82.4898 162.728 83.5627 162.952 84.5164 163.176C85.2316 163.4 86.4237 163.736 87.2582 163.4C88.5695 162.952 86.0661 161.832 85.4701 161.496C83.5627 160.264 81.6554 159.369 79.6288 158.697Z" fill="#37AD70"/>
<path d="M86.5427 164.519C89.4037 164.631 92.384 164.855 95.245 165.079C94.4105 163.735 93.4569 162.391 92.2648 161.16C91.3111 160.376 89.7614 159.144 87.6156 159.704C84.6354 160.488 85.3506 163.063 86.3043 164.295C86.4235 164.407 86.4235 164.519 86.5427 164.519Z" fill="#F9713D"/>
<path d="M92.0278 163.062C91.6701 163.174 91.3125 163.286 91.3125 163.51C91.3125 163.398 92.6238 163.398 92.743 163.286C93.1006 163.063 92.3854 163.062 92.0278 163.062Z" fill="#FCB87A"/>
<path d="M87.0194 163.85H86.9002C86.781 163.85 86.781 163.85 86.781 163.738C86.5426 163.402 86.9002 163.066 87.4962 162.954C87.8539 162.842 88.8075 162.954 88.6883 163.178C88.4499 163.514 87.377 163.738 87.0194 163.85Z" fill="#FCB87A"/>
<path d="M89.7613 160.936C89.4037 161.048 88.9268 161.16 88.45 161.272C88.3308 161.048 88.45 160.824 88.9268 160.712C89.2844 160.6 89.8805 160.712 89.9997 160.936H89.7613Z" fill="#FCB87A"/>
<path d="M82.6091 155.001C83.9204 156.456 85.5894 157.8 87.6159 159.144C85.1125 157.352 82.4899 155.561 78.9137 154.329C81.1786 156.008 83.682 157.576 86.4238 159.144C84.6357 158.136 82.7284 157.128 80.7018 156.232C78.6752 155.337 76.2911 154.553 73.6685 154.217C73.9069 154.217 74.3837 154.777 74.6221 154.889C74.9798 155.113 75.3374 155.337 75.695 155.561C76.4103 156.008 77.1255 156.344 77.96 156.68C79.5097 157.464 81.2978 158.136 83.086 158.808C83.9204 159.144 84.8741 159.48 85.8278 159.816C86.543 160.04 87.4967 160.6 88.4504 160.376C89.8809 160.04 87.8544 158.696 87.3775 158.36C85.947 157.016 84.3973 156.008 82.6091 155.001Z" fill="#37AD70"/>
<path d="M118.253 158.695C117.537 158.583 116.822 158.583 116.107 158.695C115.392 158.807 114.915 159.031 114.319 159.255C113.723 159.479 112.888 159.591 112.292 159.367C111.935 159.255 111.815 159.031 111.577 158.919C110.623 158.471 108.835 158.583 108.358 159.255C108.12 159.591 108.239 160.039 108.239 160.375C108.239 160.711 108.001 161.159 107.405 161.383C106.689 161.495 105.736 161.271 105.02 161.495C103.828 161.943 105.497 162.951 104.663 163.511C104.067 163.846 102.636 163.846 102.636 164.294C102.636 164.63 103.59 164.854 104.424 164.854C109.074 164.854 113.723 164.294 118.014 163.399C119.087 163.175 120.279 162.839 120.994 162.391C121.59 161.943 121.71 161.495 122.067 161.047C122.306 160.711 123.14 160.263 123.259 159.927C123.259 159.031 119.445 158.807 118.253 158.695Z" fill="#37AD70"/>
<path d="M135.3 161.045C133.751 160.485 131.128 161.157 129.698 160.597C129.34 160.485 129.102 160.261 128.744 160.037C127.552 159.365 125.525 159.365 123.856 159.477C123.26 159.477 122.783 159.477 122.307 159.701C121.711 159.925 121.353 160.149 120.876 160.485C119.922 161.045 118.254 161.381 116.823 161.157C115.393 161.045 113.962 160.597 112.532 160.821C111.339 161.045 110.743 161.717 110.028 162.277C108.598 163.621 106.333 164.741 103.591 165.188C104.544 164.964 106.094 165.076 107.167 165.076C108.478 165.076 120.757 165.188 133.751 163.061C135.3 162.725 137.327 161.717 135.3 161.045Z" fill="#C6E541"/>
<path d="M163.67 188.259H85.8267C82.9657 188.259 80.5815 186.019 80.5815 183.331C80.5815 180.644 82.9657 178.404 85.8267 178.404H163.67C166.531 178.404 168.916 180.644 168.916 183.331C168.916 186.019 166.531 188.259 163.67 188.259Z" fill="#FCF1AE"/>
<path d="M113.722 188.259H39.9312C37.0702 188.259 34.686 186.019 34.686 183.331C34.686 180.644 37.0702 178.404 39.9312 178.404H113.603C116.464 178.404 118.848 180.644 118.848 183.331C118.967 186.019 116.583 188.259 113.722 188.259Z" fill="#FCF1AE"/>
<path d="M82.4272 40.4909C84.8515 42.2364 87.7606 43 90.6697 43C95.7606 43 100.973 40.3818 100.973 40.3818C101.094 40.3818 101.7 40.4909 102.185 40.4909C106.548 40.4909 108.124 37.6545 112.488 37.6545C113.215 37.6545 113.942 37.6545 114.67 37.6545C115.882 37.6545 118.427 37.5455 118.427 35.9091C118.427 34.8182 116.124 31 108.124 31C102.185 31 97.2151 34.4909 96.7303 34.4909C95.3969 34.4909 93.8212 33.9455 92.2454 33.9455C91.0333 33.9455 86.0636 35.5818 83.7606 38.9636C83.6394 39.1818 82.5485 39.7273 82.4272 40.4909Z" fill="#54293A"/>
</g>
</svg>
