<svg width="149" height="149" viewBox="0 0 149 149" fill="none" xmlns="http://www.w3.org/2000/svg">
<path d="M149 74.5C149 115.6 115.6 149 74.5 149C33.4 149 0 115.6 0 74.5C0 33.4 33.4 0 74.5 0C115.6 0 149 33.4 149 74.5Z" fill="#F8F6F6"/>
<rect x="44" y="45" width="59" height="71" rx="29.5" fill="#002789"/>
<path d="M79 49C75 48.6494 71.1739 48.6494 67.1739 49C67.1739 41.8124 67.1739 34.6248 67 27.4372C67 25.1582 67.5217 24.1063 70.1304 24.1063C79 23.7557 79 23.7557 79 32.6964C79 38.1309 79 43.5655 79 49Z" fill="#C6C6C6"/>
<path d="M72.9328 15C74.3228 18.1213 75.539 20.5082 76.5815 22.8951C77.4502 24.9148 76.929 26.7508 75.3653 28.0361C73.8015 29.3213 72.064 29.3213 70.674 28.0361C68.9365 26.7508 68.589 24.7311 69.4578 22.7115C70.3265 20.5082 71.5428 18.1213 72.9328 15Z" fill="#EB5757"/>
<rect x="58" y="54" width="32" height="35" rx="4" fill="#84C8C1"/>
<path d="M68.3463 76.9134H66.9366V73.4926H63.4097V76.9134H62V69.0866H63.4097V72.4533H66.9366V69.0866H68.3463V76.9134Z" fill="#002789"/>
<path d="M71.44 76.9134H70.0355V69.0866H71.44V76.9134Z" fill="#002789"/>
<path d="M76.5894 75.8417C76.905 75.8417 77.1789 75.8128 77.4113 75.7551C77.6471 75.6937 77.8708 75.6107 78.0823 75.5061V74.0825H77.1408C77.0506 74.0825 76.9795 74.0573 76.9275 74.0068C76.8755 73.9526 76.8495 73.8877 76.8495 73.8119V72.9892H79.3516V76.1556C79.1608 76.3 78.9614 76.4263 78.7534 76.5345C78.5488 76.6392 78.3285 76.7258 78.0927 76.7943C77.8604 76.8629 77.6107 76.9134 77.3436 76.9459C77.0766 76.982 76.7888 77 76.4801 77C75.9322 77 75.4276 76.9008 74.9664 76.7023C74.5051 76.5038 74.1063 76.2278 73.7699 75.8742C73.4336 75.5205 73.17 75.0983 72.9793 74.6076C72.792 74.1168 72.6984 73.581 72.6984 73C72.6984 72.4118 72.7903 71.8723 72.9741 71.3816C73.1579 70.8908 73.4179 70.4687 73.7543 70.115C74.0942 69.7614 74.5051 69.4871 74.9872 69.2923C75.4692 69.0974 76.0102 69 76.6102 69C77.224 69 77.7546 69.0956 78.202 69.2869C78.6528 69.4745 79.0343 69.7199 79.3464 70.023L78.9406 70.6834C78.8609 70.8169 78.7551 70.8836 78.6233 70.8836C78.5401 70.8836 78.4551 70.8548 78.3684 70.797C78.2575 70.7285 78.143 70.6599 78.0251 70.5913C77.9107 70.5228 77.7823 70.4632 77.6402 70.4127C77.5014 70.3622 77.3437 70.3207 77.1668 70.2882C76.9934 70.2558 76.7922 70.2395 76.5634 70.2395C76.1923 70.2395 75.8559 70.3045 75.5542 70.4344C75.256 70.5643 75.0011 70.7501 74.7895 70.9919C74.578 71.2336 74.415 71.5241 74.3005 71.8633C74.1861 72.2025 74.1289 72.5814 74.1289 73C74.1289 73.4511 74.1896 73.8534 74.3109 74.207C74.4323 74.5571 74.6022 74.853 74.8207 75.0947C75.0392 75.3365 75.2993 75.5223 75.601 75.6522C75.9027 75.7785 76.2322 75.8417 76.5894 75.8417Z" fill="#002789"/>
<path d="M87 76.9134H85.5903V73.4926H82.0634V76.9134H80.6537V69.0866H82.0634V72.4533H85.5903V69.0866H87V76.9134Z" fill="#002789"/>
<path d="M101.503 65.162C102.973 68.401 103.79 71.6401 103.79 75.0411C103.627 82.8148 104.77 90.7505 102.973 98.5243C102.32 101.278 101.013 103.869 100.033 106.46C94.9698 113.424 88.763 118.768 79.9426 120.388C69.8156 122.331 60.832 119.578 52.9917 113.1C49.1896 108.702 45.7722 103.845 44.4089 98.1936C41.8815 87.7157 43.1793 77.0563 44.9881 66.2956C44.9881 65.8098 45.4781 65.4859 45.6415 65C47.9282 65.9717 48.5816 68.2391 49.2349 70.3445C50.0516 73.5835 50.705 76.9845 50.5416 80.2236C50.2149 87.9973 50.2632 96.698 54.1833 103.5C54.6734 104.958 56.9616 105.326 58.7583 106.46C68.232 108.403 76.0225 109.537 85.6595 107.27C87.4562 106.784 87.4616 106.31 89.2583 105.5C91.8718 104.366 93.8517 99.9819 94.3417 98.5243C98.7518 90.4266 97.7466 85.2441 97.7466 76.1748C97.4199 72.1259 97.9099 67.9152 101.503 65.162Z" fill="#0072BC"/>
<rect x="56" y="93" width="10" height="5" rx="2.5" fill="#7396C6"/>
<rect x="69" y="93" width="10" height="5" rx="2.5" fill="#7396C6"/>
<rect x="82" y="93" width="10" height="5" rx="2.5" fill="#7396C6"/>
</svg>
