<svg xmlns="http://www.w3.org/2000/svg" width="43" height="80" viewBox="0 0 43 80" fill="none"><path d="M41.9425 79.3274C41.9425 79.358 41.9425 79.4191 41.912 79.4497C41.912 79.4497 41.912 79.4802 41.8814 79.4802L41.8508 79.5108C41.8508 79.5108 41.8203 79.5108 41.8203 79.5414L41.7897 79.572L41.7591 79.6025C41.7286 79.6025 41.7286 79.6331 41.698 79.6331C41.6674 79.6331 41.6369 79.6637 41.6063 79.6637C41.5451 79.6942 41.5146 79.7248 41.4534 79.7248C41.4229 79.7248 41.3923 79.7554 41.3923 79.7554C41.1477 79.8471 40.842 79.9082 40.4752 79.9694C40.4141 79.9694 40.3529 79.9694 40.2918 79.9999C40.2307 79.9999 40.2001 79.9999 40.139 79.9999C40.0778 79.9999 40.0472 79.9999 39.9861 79.9999C39.9555 79.9999 39.925 79.9999 39.8638 79.9999C39.7416 79.9999 39.6498 79.9999 39.5276 79.9999C38.1825 79.9999 37.1126 79.6942 37.1126 79.2968C37.9991 71.7156 38.8856 50.8368 37.2043 45.6705C36.3178 42.9499 32.3132 36.4997 24.518 38.9453C24.09 39.0676 25.7102 32.7091 26.6884 28.1543C27.4832 24.4554 28.3392 22.2544 28.4309 22.4684C30.3262 28.7351 34.1779 28.4294 38.7633 35.3992C44.5104 44.2338 42.0343 75.5979 41.9425 79.3274Z" fill="#FFBE40"></path><path d="M41.9428 79.3274C41.9428 79.358 41.9428 79.4191 41.9123 79.4497C41.9123 79.4497 41.9123 79.4802 41.8817 79.4802L41.8511 79.5108C41.8511 79.5108 41.8206 79.5108 41.8206 79.5414L41.79 79.572L41.7594 79.6025C41.7288 79.6025 41.7288 79.6331 41.6983 79.6331C41.6677 79.6331 41.6371 79.6637 41.6066 79.6637C41.5454 79.6942 41.5149 79.7248 41.4537 79.7248C41.4232 79.7248 41.3926 79.7554 41.3926 79.7554C41.148 79.8471 40.8423 79.9082 40.4755 79.9694C40.4144 79.9694 40.3532 79.9694 40.2921 79.9999C40.2309 79.9999 40.2004 79.9999 40.1392 79.9999C40.0781 79.9999 40.0475 79.9999 39.9864 79.9999C39.9558 79.9999 39.9252 79.9999 39.8641 79.9999C40.0781 75.4451 42.3708 45.6094 36.7155 36.9888C34.3922 33.4428 29.9291 30.2024 26.6887 28.1543C27.4835 24.4554 28.3395 22.2544 28.4312 22.4684C30.3265 28.7351 34.1782 28.4294 38.7636 35.3992C44.5107 44.2338 42.0345 75.5979 41.9428 79.3274Z" fill="#FFA717"></path><path d="M30.1736 24.8835C30.1736 24.8835 31.3658 28.0627 31.3658 32.2201C31.3658 35.0936 29.3482 39.6484 29.3482 39.6484C29.3482 39.6484 36.96 41.9412 36.96 51.2954C36.96 58.6015 33.3834 63.1869 28.9203 65.3573C26.9027 66.3355 24.6711 66.8246 22.5313 66.8246C20.6054 66.8246 18.7712 66.5801 17.0594 66.0604C6.5435 63.0034 -0.120623 51.1425 0.00165455 34.4822C-0.120623 16.2935 11.2817 1.92587 23.5401 0.183416C24.3654 0.0611387 25.1908 0 26.0467 0C26.6887 0 27.3307 0.0305694 27.9115 0.0611387C36.9906 0.794803 41.5148 6.84754 41.5148 13.0837C41.5148 23.6301 30.1736 24.8835 30.1736 24.8835Z" fill="#E64041"></path><path d="M21.0945 22.6825C21.0945 22.6825 28.5229 26.0451 28.7063 32.3424C28.9508 40.5655 24.3043 44.3867 24.3043 44.3867C24.3043 44.3867 33.4445 42.9805 33.7197 52.1207C34.2088 67.222 17.579 66.0909 17.0594 66.0298C6.5435 63.0034 -0.120623 51.1425 0.00165455 34.4822C-0.120623 16.2935 11.2817 1.92587 23.5401 0.183416C24.3654 0.0611387 25.1908 0 26.0467 0C26.6887 0 27.3307 0.0305694 27.9115 0.0611387C34.4227 1.95644 37.6937 7.12266 37.6937 12.3806C37.6937 22.927 21.0945 22.6825 21.0945 22.6825Z" fill="#FF4041"></path><path d="M17.4874 18.8003C18.1905 19.7785 19.077 20.665 20.0247 21.3987C20.9723 22.1324 22.0117 22.7743 23.1427 23.2634C23.4179 23.3857 23.693 23.4774 23.9681 23.5997C24.2432 23.6914 24.5489 23.7831 24.8241 23.8748C25.4049 24.0277 25.9857 24.1805 26.5665 24.3028C26.8722 24.3639 27.1473 24.4251 27.453 24.4862C27.6059 24.5168 27.7587 24.5473 27.9116 24.5779C28.0644 24.6085 28.2173 24.6085 28.3701 24.639L28.5841 24.6696L28.7981 24.7002L29.2566 24.7613C29.5623 24.7919 29.868 24.8225 30.1737 24.8836V24.9447C29.868 25.0059 29.5623 25.0364 29.2566 25.067C28.9509 25.0976 28.6452 25.1281 28.309 25.1281C28.1561 25.1281 28.0033 25.1281 27.8504 25.1281C27.6976 25.1281 27.5447 25.0976 27.3919 25.0976C27.0862 25.067 26.7805 25.0364 26.4442 25.0059C26.1385 24.9447 25.8328 24.8836 25.5271 24.8225L25.0686 24.639C24.9158 24.6085 24.7629 24.5473 24.6101 24.4862C24.0293 24.2722 23.4484 24.0277 22.8676 23.7525C21.7365 23.2023 20.6972 22.4992 19.7801 21.6738C19.3216 21.2458 18.8936 20.8179 18.4656 20.3593C18.0988 19.8702 17.732 19.3811 17.4263 18.8309L17.4874 18.8003Z" fill="#CD4041"></path><path d="M17.6096 5.62475C17.6096 5.22735 15.8672 4.43255 11.6486 9.38478C10.5481 10.6687 9.23364 13.1448 10.1201 13.6645C11.1289 14.2759 12.0154 11.0661 13.3911 9.20137C14.4916 7.6729 17.6096 7.00037 17.6096 5.62475Z" fill="white"></path><path d="M4.61762 34.7271C4.31193 34.024 1.25499 43.2865 7.21601 53.0381C8.28594 54.7806 10.059 57.2567 11.4652 56.5536C13.0853 55.7588 11.3123 54.3832 9.69213 51.9682C8.40822 50.0423 6.29893 44.6316 5.96267 43.0419C4.28136 35.3079 4.98445 35.583 4.61762 34.7271Z" fill="white"></path><path d="M16.6926 47.5963C17.9154 47.1989 19.077 46.7403 20.2387 46.2207C21.4003 45.701 22.5314 45.1202 23.6013 44.4782C23.8764 44.3254 24.121 44.1419 24.3961 43.9585C24.6407 43.7751 24.9158 43.5917 25.1603 43.4083C25.6494 43.0414 26.1691 42.6746 26.6582 42.2772L26.8417 42.1244L27.0251 41.9715C27.1473 41.8798 27.2696 41.7575 27.3919 41.6658L27.7282 41.3601C27.8504 41.2379 27.9422 41.1461 28.0644 41.0239C28.4924 40.5959 28.9204 40.1068 29.3178 39.6177L29.3789 39.6482C29.1344 40.2596 28.8287 40.8099 28.4313 41.3601C28.0339 41.8798 27.5753 42.3689 27.1168 42.7969C26.1691 43.6834 25.0075 44.3254 23.8764 44.9367C22.7454 45.5481 21.5532 46.0678 20.3609 46.5263C19.7496 46.7403 19.1687 46.9543 18.5574 47.1377C17.946 47.3211 17.3346 47.5046 16.7232 47.6574L16.6926 47.5963Z" fill="#CD4041"></path></svg>