<svg width="377" height="210" viewBox="0 0 377 210" fill="none" xmlns="http://www.w3.org/2000/svg">
<rect width="377" height="210" rx="4" fill="#D2F8FD"/>
<mask id="mask0" mask-type="alpha" maskUnits="userSpaceOnUse" x="0" y="0" width="377" height="210">
<rect width="377" height="210" rx="4" fill="#D2F8FD"/>
</mask>
<g mask="url(#mask0)">
<path d="M209.133 86.1142C200.897 83.1222 199.782 80.9113 199.782 80.9113C199.782 80.9113 199.793 76.3361 204.63 77.0956C211.211 78.1363 219.177 79.5235 231.299 81.6049C238.816 82.8947 239.958 70.852 233.724 69.8113C227.489 68.7711 210.865 66.3421 207.056 65.648C203.246 64.9549 200.134 60.5425 209.48 60.098C215.752 59.8051 224.927 59.4049 237.187 59.4049C245.5 59.4049 244.46 46.2235 236.841 46.2235C231.516 46.2235 209.832 46.6464 205.671 46.5706C201.514 46.4942 200.2 44.6514 206.017 42.0612C212.251 39.2852 219.632 36.3369 225.758 33.7357C234.763 29.92 228.588 19.5784 222.295 21.9416C216.796 24.0119 204.631 29.0099 195.28 33.0421C190.496 35.1124 180.999 37.7242 185.929 31.3073C189.392 26.7985 192.856 25.0636 196.318 19.8602C199.782 14.6573 192.33 9.41061 189.852 11.4272C184.31 15.9365 175.592 23.8713 167.226 28.9984C161.189 32.6934 154.756 38.5447 154.356 38.9113L154.336 38.9076H-5L-4.88116 77.8282H154.333V77.7892C154.333 77.7892 193.619 92.391 205.668 96.8682C217.79 101.377 220.562 90.277 209.133 86.1142Z" fill="#FFA786"/>
<path d="M15.3393 84.7282C11.7441 84.7282 8.8298 81.8094 8.8298 78.2086V38.6866C8.8298 35.0858 11.7441 32.167 15.3393 32.167H85.2996C88.8948 32.167 91.8091 35.0858 91.8091 38.6866V78.2086C91.8091 81.8094 88.8948 84.7282 85.2996 84.7282H15.3393Z" fill="#3A5677"/>
<path d="M19.2694 64.24C15.885 64.24 13.1416 61.4924 13.1416 58.1027V42.8853C13.1416 39.4957 15.885 36.748 19.2694 36.748H81.5795C84.9639 36.748 87.7073 39.4957 87.7073 42.8853V58.1027C87.7073 61.4924 84.9639 64.24 81.5795 64.24H19.2694V64.24Z" fill="#4B6C8C"/>
<path d="M41.643 132.204V81.0938H46.7963V132.204C46.7963 136.789 48.8703 138.816 53.4909 138.816H149.701C151.536 138.816 153.193 139.14 154.625 139.761C156.11 140.404 157.37 141.379 158.358 142.649C160.114 144.908 161.011 148.109 161.011 152.157V162.885H155.858V152.157C155.858 149.288 155.322 147.172 154.289 145.843C153.334 144.614 151.826 144.03 149.701 144.03H53.4909C49.9257 144.03 47.0708 143.05 45.0095 141.14C42.7772 139.072 41.643 136.057 41.643 132.204Z" fill="#3A5677"/>
<path d="M210.128 182.679C210.128 191.796 202.748 199.187 193.645 199.187H161.375C152.272 199.187 144.892 191.796 144.892 182.679V122.314C144.892 113.197 152.272 105.806 161.375 105.806H193.645C202.748 105.806 210.128 113.197 210.128 122.314V182.679Z" fill="#3A495D"/>
<path d="M203.816 148.167C203.816 153.778 199.275 158.326 193.673 158.326H161.448C155.846 158.326 151.305 153.778 151.305 148.167V123.007C151.305 113.971 155.846 112.849 161.448 112.849H193.673C199.275 112.849 203.816 113.971 203.816 123.007V148.167Z" fill="#50C0E7"/>
<path d="M193.673 159.438H161.448C155.243 159.438 150.195 154.382 150.195 148.167V123.007C150.195 118.476 151.308 115.417 153.6 113.657C155.803 111.964 158.803 111.736 161.448 111.736H193.673C196.318 111.736 199.318 111.964 201.521 113.657C203.813 115.417 204.926 118.476 204.926 123.007V148.167C204.927 154.382 199.878 159.438 193.673 159.438ZM161.448 113.961C159.176 113.961 156.627 114.135 154.952 115.422C153.246 116.733 152.416 119.214 152.416 123.007V148.168C152.416 153.156 156.468 157.214 161.448 157.214H193.674C198.654 157.214 202.706 153.156 202.706 148.168V123.007C202.706 119.214 201.876 116.733 200.169 115.422C198.494 114.135 195.945 113.961 193.674 113.961H161.448V113.961Z" fill="#BCCCDD"/>
<path d="M154.701 180.921C154.7 180.951 154.698 180.98 154.698 181.01C154.698 181.018 154.698 181.025 154.698 181.033C154.698 181.04 154.698 181.047 154.698 181.055C154.698 181.085 154.7 181.114 154.701 181.144C154.826 187.406 163.745 189.101 175.288 189.34V172.727C163.745 172.964 154.827 174.659 154.701 180.921Z" fill="#A5C4C4"/>
<path d="M176.07 190.139L175.272 190.123C165.411 189.919 154.071 188.716 153.92 181.16L153.919 181.147C153.918 181.116 153.917 181.085 153.917 181.055C153.917 181.048 153.917 181.04 153.917 181.033C153.917 181.025 153.917 181.018 153.917 181.011C153.917 180.98 153.918 180.95 153.919 180.919L153.92 180.898C154.071 173.35 165.411 172.147 175.272 171.943L176.07 171.927V190.139ZM155.48 181.059L155.482 181.121C155.534 183.699 157.326 185.54 160.961 186.759C164.041 187.791 168.477 188.374 174.507 188.538V173.528C168.477 173.692 164.041 174.276 160.961 175.308C157.326 176.526 155.535 178.368 155.483 180.937L155.48 181.008C155.48 181.015 155.481 181.022 155.481 181.029V181.033V181.037C155.48 181.044 155.48 181.051 155.48 181.059Z" fill="#E62D43"/>
<path d="M198.143 180.92C198.144 180.95 198.146 180.98 198.146 181.01C198.146 181.017 198.146 181.025 198.146 181.032C198.146 181.039 198.146 181.047 198.146 181.054C198.146 181.084 198.144 181.114 198.143 181.144C198.018 187.406 189.1 189.101 177.556 189.339V172.726C189.1 172.964 198.018 174.658 198.143 180.92Z" fill="#A5C4C4"/>
<path d="M176.775 190.138V171.926L177.573 171.943C187.434 172.146 198.774 173.349 198.925 180.905L198.926 180.919C198.927 180.949 198.928 180.98 198.928 181.01C198.928 181.018 198.928 181.025 198.928 181.032C198.928 181.04 198.928 181.047 198.928 181.054C198.928 181.085 198.927 181.116 198.926 181.146L198.925 181.167C198.774 188.715 187.434 189.918 177.573 190.122L176.775 190.138ZM178.338 173.527V188.537C184.368 188.374 188.804 187.79 191.884 186.758C195.519 185.54 197.31 183.698 197.362 181.128L197.364 181.055L197.364 181.032L197.364 181.008L197.362 180.944C197.31 178.366 195.518 176.525 191.884 175.306C188.804 174.275 184.367 173.692 178.338 173.527Z" fill="#E62D43"/>
<path d="M154.701 180.92C154.7 180.95 154.698 180.98 154.698 181.01C154.698 181.017 154.698 181.025 154.698 181.032C154.698 181.039 154.698 181.047 154.698 181.054C154.698 181.084 154.7 181.114 154.701 181.144C154.826 187.406 163.745 189.101 175.288 189.339V172.726C163.745 172.964 154.827 174.658 154.701 180.92Z" fill="#50C0E7"/>
<path d="M198.143 180.92C198.144 180.95 198.146 180.98 198.146 181.01C198.146 181.017 198.146 181.025 198.146 181.032C198.146 181.039 198.146 181.047 198.146 181.054C198.146 181.084 198.144 181.114 198.143 181.144C198.018 187.406 189.1 189.101 177.556 189.339V172.726C189.1 172.964 198.018 174.658 198.143 180.92Z" fill="#50C0E7"/>
<path d="M170.141 180.854V186.04L165.657 183.447L161.172 180.854L165.657 178.261L170.141 175.668V180.854Z" fill="#F9F9F9"/>
<path d="M182.703 180.853V186.039L187.188 183.446L191.672 180.853L187.188 178.26L182.703 175.667V180.853Z" fill="#F9F9F9"/>
<path d="M163.471 125.057L161.124 124.033V119.675L163.471 117.915V125.057ZM163.471 132.669L161.124 130.904V126.39L163.471 125.507V132.669Z" fill="#F9F9F9"/>
<path d="M179.881 118.823L178.681 119.684H170.221L172.968 117.92H178.681L179.881 118.823ZM172.567 130.593L171.385 131.475L170.22 130.593V125.508L172.567 126.389V130.593V130.593ZM180.875 125.285L178.672 126.062L172.955 126.103L170.768 125.282L172.951 124.298H178.616L180.875 125.285ZM181.409 132.664H172.967L171.766 131.762L172.967 130.901H179.171L181.409 132.664ZM181.409 125.057L179.063 124.031V119.971L180.227 119.09L181.409 119.971V125.057V125.057Z" fill="#F9F9F9"/>
<path d="M186.085 124.031L183.739 125.057V119.971L184.903 119.09L186.085 119.971V124.031V124.031ZM186.085 130.593L184.903 131.475L183.739 130.593V125.508L186.085 126.389V130.593V130.593ZM193.399 118.823L192.198 119.684H186.486L185.285 118.823L186.486 117.92H192.198L193.399 118.823ZM193.399 131.762L192.198 132.664H186.486L185.285 131.762L186.486 130.901H192.198L193.399 131.762ZM194.928 125.057L192.581 124.031V119.971L193.745 119.09L194.928 119.971V125.057V125.057ZM194.928 130.593L193.745 131.475L192.581 130.593V126.389L194.928 125.508V130.593V130.593Z" fill="#F9F9F9"/>
<path d="M172.567 143.057L170.22 144.082V138.997L171.385 138.115L172.567 138.997V143.057V143.057ZM172.567 149.619L171.385 150.501L170.22 149.619V144.533L172.567 145.415V149.619V149.619ZM180.865 144.306L178.691 145.123L172.956 145.129L170.766 144.306L173.014 143.324H178.616L180.865 144.306ZM179.881 137.848L178.681 138.71H172.968L171.767 137.848L172.968 136.946H178.681L179.881 137.848ZM179.881 150.788L178.681 151.69H172.968L171.767 150.788L172.968 149.926H178.681L179.881 150.788ZM181.409 144.082L179.063 143.057V138.997L180.227 138.115L181.409 138.997V144.082V144.082ZM181.409 149.619L180.227 150.501L179.063 149.619V145.415L181.409 144.533V149.619V149.619Z" fill="#F9F9F9"/>
<path d="M186.085 143.057L183.739 144.082V138.997L184.903 138.115L186.085 138.997V143.057V143.057ZM186.085 149.619L184.903 150.501L183.739 149.619V144.533L186.085 145.415V149.619V149.619ZM193.399 137.848L192.198 138.71H186.486L185.285 137.848L186.486 136.946H192.198L193.399 137.848ZM193.399 150.788L192.198 151.69H186.486L185.285 150.788L186.486 149.926H192.198L193.399 150.788ZM194.928 144.082L192.581 143.057V138.997L193.745 138.115L194.928 138.997V144.082V144.082ZM194.928 149.619L193.745 150.501L192.581 149.619V145.415L194.928 144.533V149.619V149.619Z" fill="#F9F9F9"/>
<path d="M182.728 166.284C182.728 167.796 181.505 169.021 179.995 169.021H174.155C172.646 169.021 171.422 167.796 171.422 166.284V166.281C171.422 164.769 172.646 163.543 174.155 163.543H179.995C181.505 163.543 182.728 164.769 182.728 166.281V166.284Z" fill="#E62D43"/>
<path fill-rule="evenodd" clip-rule="evenodd" d="M163.67 142.57C162.944 142.075 161.606 141.996 160.85 143.055C160.094 141.996 158.758 142.075 158.033 142.57C157.129 143.185 156.621 144.446 157.111 145.508C157.835 147.077 160.323 148.36 160.851 149.548C161.254 148.305 163.888 147.086 164.591 145.508C165.066 144.446 164.574 143.185 163.67 142.57Z" fill="#E62D43"/>
</g>
<rect width="377" height="210" rx="4" fill="black" fill-opacity="0.4"/>
</svg>
