<svg xmlns="http://www.w3.org/2000/svg" width="43" height="80" viewBox="0 0 43 80" fill="none"><path d="M41.7144 79.0355C41.7144 79.0673 41.7144 79.131 41.6826 79.1628C41.6826 79.1628 41.6826 79.1946 41.6508 79.1946C41.6508 79.1946 41.6508 79.2264 41.619 79.2264C41.619 79.2264 41.619 79.2264 41.5872 79.2582L41.5554 79.29L41.5236 79.3218C41.4918 79.3218 41.4918 79.3536 41.46 79.3536C41.4282 79.3536 41.3964 79.3854 41.3646 79.3854C41.301 79.4172 41.2692 79.449 41.2056 79.449C41.1738 79.449 41.142 79.4808 41.142 79.4808C40.8876 79.5762 40.5378 79.6398 40.188 79.7034C40.1244 79.7034 40.0608 79.7034 39.9972 79.7352C39.9336 79.7352 39.9018 79.7352 39.8382 79.7352C39.7746 79.7352 39.7428 79.7352 39.6792 79.7352C39.6474 79.7352 39.6155 79.7352 39.5519 79.7352C39.4247 79.7352 39.3293 79.7352 39.2021 79.7352C37.8029 79.7352 36.6581 79.4172 36.6581 79.0037C37.5803 71.1172 38.5025 49.3974 36.7535 44.0231C35.8313 41.1929 31.6654 34.4829 23.5563 37.027C23.111 37.1542 24.7965 30.5397 25.8141 25.8014C26.6409 21.9535 27.5313 19.6639 27.6267 19.8865C29.5984 26.4056 33.6052 26.0876 38.3753 33.3381C44.3856 42.5285 41.8098 75.1559 41.7144 79.0355Z" fill="#FFBE40"></path><path d="M41.7147 79.0355C41.7147 79.0673 41.7147 79.131 41.6829 79.1628C41.6829 79.1628 41.6829 79.1946 41.6511 79.1946C41.6511 79.1946 41.6511 79.2264 41.6193 79.2264C41.6193 79.2264 41.6193 79.2264 41.5875 79.2582L41.5557 79.29L41.5239 79.3218C41.4921 79.3218 41.4921 79.3536 41.4603 79.3536C41.4285 79.3536 41.3967 79.3854 41.3649 79.3854C41.3013 79.4172 41.2695 79.449 41.2059 79.449C41.1741 79.449 41.1423 79.4808 41.1423 79.4808C40.8879 79.5762 40.5381 79.6398 40.1882 79.7034C40.1246 79.7034 40.0611 79.7034 39.9975 79.7352C39.9338 79.7352 39.902 79.7352 39.8384 79.7352C39.7748 79.7352 39.743 79.7352 39.6794 79.7352C39.6476 79.7352 39.6158 79.7352 39.5522 79.7352C39.7748 74.9969 42.1599 43.9595 36.2768 34.9917C33.8599 31.3029 29.2171 27.932 25.8462 25.8014C26.673 21.9535 27.5634 19.6639 27.6588 19.8865C29.6304 26.4056 33.6373 26.0876 38.4074 33.3381C44.3859 42.5285 41.8101 75.1559 41.7147 79.0355Z" fill="#FFA717"></path><path d="M28.5169 23.2892C28.8985 24.3387 29.2483 25.2609 29.2483 26.4057C29.2483 27.4869 29.0893 28.5999 28.7077 29.6176C28.4215 30.3808 28.0399 31.144 28.0399 31.939C28.0399 33.3064 28.4215 34.4195 27.9127 35.7551C27.4675 36.9953 28.0717 37.0907 29.0257 37.5995C31.856 38.9987 33.9548 41.8608 34.241 45.009C34.3364 46.0585 34.3682 47.0443 34.6226 48.0619C34.877 49.0159 35.1314 49.8745 34.9406 50.8922C34.8134 51.4964 34.4636 52.037 34.3364 52.6412C34.241 53.15 34.3364 53.5952 34.1774 54.104C33.8594 55.0898 33.3188 55.9803 32.6192 56.7117C31.9514 57.4113 30.9656 57.7293 30.3932 58.5243C29.5345 59.7009 28.5805 60.2415 27.2767 60.8457C26.7361 61.1001 26.4499 61.5135 25.9729 61.8316C25.4959 62.1496 24.8598 62.245 24.2874 62.2768C23.2698 62.3404 22.3476 61.9906 21.3618 61.9906C20.0898 61.9588 18.9449 62.4994 17.7365 62.6266C16.5917 62.7538 15.2243 62.1496 14.3339 61.4818C13.3162 60.7503 12.3304 60.0507 11.281 59.3829C10.3588 58.7787 9.15037 58.5561 8.51435 57.5703C8.00555 56.7753 7.94193 56.1075 7.14691 55.5032C5.71589 54.3902 4.66647 53.1182 4.12586 51.3692C3.80785 50.3833 3.55345 49.3975 2.85384 48.5707C2.21782 47.8075 1.89982 46.9807 1.64542 46.0267C1.32741 44.7864 0.945816 43.5462 0.723212 42.2742C0.564209 41.3202 1.04121 40.398 0.850402 39.4121C0.659599 38.4263 0.246203 37.5041 0.0872001 36.5183C-0.103603 35.3099 0.0553878 34.0696 0.214391 32.893C0.373394 31.78 0.405206 30.7306 0.405206 29.6176C0.405206 28.5045 0.977616 27.5187 0.882215 26.3739C0.818614 25.4835 0.500592 24.5295 0.9458 23.7345C1.23201 23.162 1.77262 22.7486 2.02703 22.1126C2.34503 21.3176 2.31324 20.4272 2.47224 19.6004C2.59945 18.9962 2.98105 18.5192 3.04465 17.8831C3.10825 17.3107 3.07645 16.7383 3.45805 16.2613C3.77606 15.8479 4.25307 15.6253 4.63468 15.2755C5.8749 14.0035 5.7477 11.9046 6.86072 10.5054C7.62393 9.5832 8.32354 8.69278 9.21395 7.92957C9.75456 7.45256 9.69097 6.94375 9.97717 6.37134C10.486 5.32192 11.5354 5.00391 12.5212 4.62231C13.4434 4.2725 14.1113 3.47748 14.9063 2.87327C16.1783 1.91926 17.7365 1.66485 19.1676 1.02884C22.9836 -0.688393 27.4675 0.0112201 31.3154 1.18784C32.5238 1.53765 33.7322 1.91926 34.7816 2.58707C35.9583 3.31848 36.3399 4.2089 37.0713 5.29012C37.8663 6.43494 38.6613 7.35716 39.1065 8.72458C39.5835 10.2192 39.6471 12.0318 38.9475 13.3993C38.5977 14.0671 38.3433 14.8303 38.2161 15.5935C38.0889 16.3567 38.2797 17.1835 38.0889 17.8831C37.7709 19.1234 36.4989 20.3318 35.4494 20.9678C34.6544 21.4448 33.7322 21.5402 32.8736 21.8582C32.0786 22.1444 31.4744 22.8122 30.7112 23.0666C29.9797 23.2892 29.2165 23.1302 28.5169 23.2892Z" fill="#CC3334"></path><path d="M38.916 13.3992C38.5662 14.0671 38.3118 14.8303 38.1846 15.5935C38.0574 16.3567 38.2482 17.1835 38.0574 17.8831C37.7394 19.1234 36.4674 20.3318 35.4179 20.9678C34.6229 21.4448 33.7007 21.5402 32.8421 21.8582C32.0471 22.1444 31.4429 22.8122 30.6796 23.0666C29.98 23.2892 29.185 23.162 28.4854 23.321C28.8988 24.3704 29.2168 25.2927 29.2168 26.4375C29.2168 27.5187 29.0578 28.6317 28.6762 29.6493C28.39 30.4126 28.0084 31.1758 28.0084 31.9708C28.0084 33.3382 28.39 34.4512 27.8812 35.7869C27.436 37.0271 28.0402 37.1225 28.9942 37.6313C31.8245 39.0305 33.9233 41.8926 34.2095 45.0408C34.3049 46.0903 34.3367 47.0761 34.5911 48.0937C34.8455 49.0477 35.0999 49.9063 34.9091 50.9239C34.7819 51.5282 34.4321 52.0688 34.3049 52.673C34.2095 53.1818 34.3049 53.627 34.1459 54.1358C33.8279 55.1216 33.2873 56.012 32.5877 56.7434C31.9199 57.4431 30.934 57.7611 30.3616 58.5561C29.503 59.7327 28.549 60.2733 27.2452 60.8775C26.7046 61.1319 26.4184 61.5453 25.9414 61.8633C25.4644 62.1813 24.8284 62.2767 24.2559 62.3085C23.2383 62.3722 22.3161 62.0223 21.3303 62.0223C20.0583 61.9905 18.9134 62.5312 17.705 62.6584C16.7192 62.7856 15.6062 62.3404 14.7476 61.7997C14.7794 61.7997 14.8112 61.7997 14.843 61.7997C16.0514 61.6407 17.1962 61.1319 18.4682 61.1637C19.454 61.1955 20.3763 61.5135 21.3939 61.4499C21.9663 61.4181 22.5705 61.2909 23.0793 61.0047C23.5563 60.7185 23.8425 60.2733 24.3831 60.0189C25.7188 59.4147 26.641 58.8741 27.4996 57.6975C28.072 56.9024 29.0578 56.5844 29.7256 55.8848C30.4252 55.1534 30.9659 54.263 31.2839 53.2772C31.4429 52.7684 31.3475 52.3232 31.4429 51.8144C31.5701 51.2101 31.9199 50.7013 32.0471 50.0653C32.2379 49.0477 31.9517 48.1891 31.7291 47.2351C31.4747 46.2175 31.4429 45.2316 31.3475 44.1822C31.0613 41.034 28.9624 38.1719 26.1322 36.7727C25.1781 36.2957 24.5421 36.1685 25.0191 34.9282C25.528 33.5608 25.1464 32.4478 25.1464 31.1122C25.1464 30.2854 25.528 29.5539 25.8142 28.7907C26.1958 27.7731 26.3866 26.6601 26.3548 25.5789C26.3548 24.434 26.005 23.5118 25.6234 22.4624C26.323 22.3034 27.0862 22.4306 27.8176 22.208C28.5808 21.9536 29.185 21.2858 29.98 20.9996C30.8387 20.6816 31.7609 20.5544 32.5559 20.1092C33.6053 19.4732 34.8455 18.2647 35.1953 17.0245C35.3861 16.3249 35.1953 15.4663 35.3225 14.7349C35.4497 13.9717 35.7041 13.2402 36.054 12.5406C36.7536 11.1732 36.69 9.36057 36.213 7.86595C35.7677 6.49852 34.9727 5.5763 34.1777 4.43148C33.4463 3.38206 33.0329 2.45985 31.8881 1.72843C31.2521 1.31502 30.5207 1.02882 29.821 0.774414C30.3299 0.901616 30.8069 1.02882 31.2839 1.18782C32.4923 1.53763 33.7007 1.91924 34.7501 2.58705C35.9268 3.31846 36.3083 4.20888 37.0398 5.2901C37.8348 6.43492 38.6298 7.35714 39.075 8.72456C39.5838 10.2192 39.6474 12 38.916 13.3992Z" fill="#B32D2E"></path><path d="M16.6237 17.5967C17.2915 18.5189 18.1184 19.3457 19.0088 20.0453C19.8992 20.7449 20.885 21.3491 21.9026 21.7626C22.157 21.8898 22.4114 21.9852 22.6976 22.0806C22.952 22.176 23.2383 22.2714 23.4927 22.335C24.0333 22.494 24.5739 22.6212 25.1145 22.7484C25.4007 22.812 25.6551 22.8756 25.9413 22.9074C26.0685 22.9392 26.2275 22.971 26.3547 22.971C26.4819 23.0028 26.6409 23.0028 26.7681 23.0346L26.9907 23.0664L27.2133 23.0982L27.6267 23.1618C27.9129 23.1936 28.1991 23.2254 28.4854 23.2572V23.3208C28.1991 23.3844 27.9129 23.4162 27.6267 23.448C27.3405 23.4798 27.0543 23.5116 26.7363 23.4798C26.5773 23.4798 26.4501 23.4798 26.2911 23.4798C26.1321 23.4798 26.0049 23.448 25.8459 23.448C25.5597 23.448 25.2735 23.3844 24.9555 23.3526C24.6693 23.3208 24.3831 23.2572 24.0969 23.1936L23.6835 23.0664C23.5562 23.0346 23.3973 22.971 23.27 22.9392C22.7294 22.7484 22.1888 22.494 21.6482 22.2396C20.5988 21.7308 19.613 21.0629 18.7544 20.2997C18.3092 19.9181 17.9275 19.5047 17.5459 19.0595C17.1643 18.6143 16.8145 18.1691 16.5283 17.6603L16.6237 17.5967Z" fill="#B32D2E"></path><path d="M15.8921 44.564C17.0369 44.1824 18.1181 43.7689 19.1994 43.2601C20.2806 42.7831 21.33 42.2425 22.3476 41.6383C22.602 41.4793 22.8564 41.3203 23.079 41.1613C23.3334 41.0023 23.556 40.8433 23.8104 40.6525C24.2875 40.3027 24.7645 39.9529 25.2097 39.5713L25.3687 39.4441L25.5277 39.3169C25.6231 39.2215 25.7503 39.1261 25.8457 39.0307L26.1637 38.7445C26.2591 38.6491 26.3863 38.5536 26.4817 38.4264C26.8951 38.013 27.2767 37.5678 27.6583 37.0908L27.7219 37.1226C27.4993 37.695 27.1813 38.2356 26.8315 38.7126C26.4817 39.2215 26.0365 39.6349 25.5913 40.0801C24.7009 40.9069 23.6196 41.5111 22.5702 42.0835C21.5208 42.6559 20.4078 43.1329 19.2948 43.5781C18.7223 43.8007 18.1817 43.9915 17.6093 44.1506C17.0369 44.3414 16.4645 44.5004 15.8921 44.6276V44.564Z" fill="#B32D2E"></path><path d="M6.44751 36.169C6.28851 36.169 6.1613 36.0418 6.1295 35.8828C5.9387 34.0701 4.25327 32.6073 3.42645 32.3847C3.26745 32.3211 3.17205 32.1621 3.20385 32.0031C3.26745 31.8441 3.42645 31.7487 3.58546 31.7805C4.57128 32.0667 6.4793 33.6885 6.7337 35.8192C6.7655 35.9782 6.63831 36.1372 6.44751 36.169C6.44751 36.169 6.47931 36.169 6.44751 36.169Z" fill="#B32D2E"></path><path d="M5.74801 34.2924C5.68441 34.2924 5.6208 34.2606 5.589 34.2288C5.43 34.1334 5.3982 33.9426 5.49361 33.7836C6.47942 32.289 8.22844 32.7024 8.89625 33.1158C9.05526 33.2112 9.08707 33.402 8.99167 33.561C8.89627 33.72 8.70546 33.7518 8.54645 33.6564C8.13305 33.402 6.76561 33.0204 6.0342 34.1334C5.9388 34.2288 5.84341 34.2924 5.74801 34.2924Z" fill="#B32D2E"></path><path d="M11.2814 29.5543C11.1224 29.5543 10.9634 29.4271 10.9634 29.2681C10.9634 29.0773 11.0906 28.9501 11.2496 28.9183C12.0764 28.8547 13.9526 27.8053 14.4614 26.0881C14.525 25.9291 14.6841 25.8337 14.8431 25.8655C15.0021 25.9291 15.0975 26.0881 15.0657 26.2471C14.4933 28.3459 12.3626 29.4907 11.2814 29.5543C11.3132 29.5543 11.2814 29.5543 11.2814 29.5543Z" fill="#B32D2E"></path><path d="M15.5107 31.4303C14.811 31.3667 13.2846 30.7625 12.5214 28.759C12.4578 28.6 12.5532 28.4092 12.7122 28.3456C12.8712 28.282 13.062 28.3774 13.1256 28.5364C13.7298 30.0946 14.9064 30.7625 15.5424 30.7943C15.7332 30.7943 15.8605 30.9533 15.8287 31.1441C15.8287 31.3031 15.6697 31.4303 15.5107 31.4303Z" fill="#B32D2E"></path><path d="M29.5349 47.5533C28.6763 47.5533 27.4997 47.2035 26.8955 45.8997C26.8319 45.7407 26.8955 45.5499 27.0545 45.4863C27.2135 45.4227 27.4043 45.4863 27.4679 45.6453C28.2311 47.2035 29.8847 46.9173 29.9483 46.9173C30.1073 46.8855 30.2981 47.0127 30.3299 47.1717C30.3617 47.3307 30.2345 47.5215 30.0755 47.5533C29.8847 47.5215 29.7257 47.5533 29.5349 47.5533Z" fill="#B32D2E"></path><path d="M22.9518 50.4153C22.92 50.4153 22.8882 50.4153 22.8882 50.4153C22.7292 50.3835 22.6021 50.1926 22.6657 50.0336C22.7293 49.811 23.238 47.9666 24.7963 47.267C25.3051 47.0444 27.3721 45.7406 27.8491 43.8643C27.8809 43.7053 28.0718 43.5781 28.2308 43.6417C28.3898 43.6735 28.5169 43.8643 28.4533 44.0233C27.8491 46.472 25.0825 47.8394 25.0507 47.8712C23.7469 48.4436 23.3017 50.1608 23.2699 50.2244C23.2063 50.3198 23.079 50.4153 22.9518 50.4153Z" fill="#B32D2E"></path><path d="M23.3653 31.9708C23.2699 31.9708 23.1745 31.939 23.1109 31.8436C23.0791 31.78 22.1569 30.6352 20.9803 31.144C20.8213 31.2076 20.6305 31.144 20.5669 30.985C20.5033 30.826 20.5669 30.6352 20.7259 30.5716C22.0297 29.9674 23.1745 30.8578 23.6197 31.462C23.7151 31.5892 23.7151 31.8118 23.5561 31.9072C23.4925 31.939 23.4289 31.9708 23.3653 31.9708Z" fill="#B32D2E"></path><path d="M20.567 32.9571C20.5352 32.9571 20.5034 32.9571 20.4398 32.9253C20.2808 32.8617 20.1854 32.6709 20.249 32.5119C20.8532 30.9855 20.1218 28.8866 19.8992 28.4414C19.2314 27.0422 19.772 25.5158 19.8356 25.325C19.8992 25.166 20.09 25.0706 20.249 25.1342C20.408 25.1978 20.5034 25.3886 20.4398 25.5476C20.408 25.6112 19.8992 26.9786 20.4716 28.1552C20.4716 28.187 21.6482 30.7629 20.8532 32.7345C20.8214 32.8935 20.6942 32.9571 20.567 32.9571Z" fill="#B32D2E"></path><path d="M24.892 47.8714C24.8602 47.8714 24.8284 47.8714 24.7966 47.8396C23.0158 47.2036 22.4116 45.3273 22.3162 44.9775C22.2844 44.8185 22.3798 44.6277 22.5388 44.5959C22.6978 44.5641 22.8886 44.6595 22.9204 44.8185C22.984 45.0093 23.4928 46.7266 24.9874 47.2672C25.1464 47.3308 25.2418 47.5216 25.1782 47.6806C25.1464 47.776 25.0192 47.8714 24.892 47.8714Z" fill="#B32D2E"></path><path d="M18.5956 13.4948C17.8324 13.4948 16.8784 13.2404 16.2106 12.4136C16.1152 12.2864 16.1152 12.0638 16.2424 11.9684C16.3696 11.873 16.5922 11.873 16.6876 12.0002C17.6734 13.2086 19.2952 12.7952 19.4861 12.6998C19.6451 12.6044 19.8359 12.668 19.8995 12.827C19.9949 12.986 19.9312 13.1768 19.7722 13.2404C19.5496 13.3994 19.1044 13.4948 18.5956 13.4948Z" fill="#B32D2E"></path><path d="M12.8713 17.9787C12.8395 17.9787 12.8395 17.9787 12.8077 17.9787C12.6487 17.9469 12.5214 17.7879 12.5532 17.6289C12.585 17.3745 12.9985 15.2121 14.5567 13.9083C15.0655 13.463 17.2597 11.2052 17.6095 8.91556C17.6413 8.75656 17.8003 8.62936 17.9593 8.66116C18.1183 8.69296 18.2456 8.85196 18.2138 9.01096C17.7686 11.873 14.9701 14.3853 14.9383 14.3853C13.5709 15.5301 13.1893 17.5017 13.1575 17.7243C13.1575 17.8515 13.0303 17.9787 12.8713 17.9787Z" fill="#B32D2E"></path><path d="M11.0585 48.0303C10.9313 48.0303 10.804 47.9349 10.7722 47.8077C10.7722 47.7759 10.7404 47.7441 10.7086 47.6805C9.43662 44.405 10.4224 42.2744 11.4719 41.0342C11.5991 40.907 11.7899 40.8752 11.9171 41.0024C12.0443 41.1296 12.0761 41.3204 11.9489 41.4476C10.5814 43.0376 10.3588 45.0728 11.281 47.4579C11.3128 47.5215 11.3447 47.5851 11.3447 47.6169C11.4083 47.7759 11.3129 47.9667 11.1539 48.0303C11.1539 48.0303 11.0903 48.0303 11.0585 48.0303Z" fill="#B32D2E"></path><path d="M10.6137 43.61C10.4547 43.61 10.3275 43.4828 10.2957 43.3556C10.2957 43.3238 9.75507 40.0165 7.56083 39.1261C7.40183 39.0625 7.30642 38.8717 7.37002 38.7127C7.43362 38.5537 7.62442 38.4583 7.78342 38.5219C10.3275 39.5395 10.8999 43.1012 10.8999 43.2284C10.9317 43.3874 10.8045 43.5782 10.6455 43.5782C10.6455 43.61 10.6455 43.61 10.6137 43.61Z" fill="#B32D2E"></path><path d="M21.1393 60.0512C21.1075 60.0512 21.0439 60.0512 21.0121 60.0194C20.8531 59.9558 20.7895 59.765 20.8531 59.606C21.1393 59.0018 22.4114 55.9172 19.5175 53.7547C19.3903 53.6593 19.3585 53.4367 19.4539 53.3095C19.5493 53.1823 19.7719 53.1505 19.8991 53.2459C23.1746 55.6945 21.7436 59.1926 21.4255 59.8604C21.3619 59.9876 21.2665 60.0512 21.1393 60.0512Z" fill="#B32D2E"></path><path d="M21.4574 56.1398C21.3938 56.1398 21.2984 56.108 21.2666 56.0762C21.1394 55.949 21.1076 55.7582 21.2348 55.631C22.6976 53.9137 24.1604 54.1045 24.224 54.1363C24.383 54.1681 24.5102 54.3271 24.4784 54.4861C24.4466 54.6451 24.2876 54.7723 24.1286 54.7405C24.065 54.7405 22.952 54.5815 21.7436 56.0444C21.6482 56.0762 21.5528 56.1398 21.4574 56.1398Z" fill="#B32D2E"></path><path d="M19.4223 40.0167C17.6733 40.0167 16.1469 38.9672 15.4473 38.4266C15.3201 38.3312 15.2882 38.1086 15.4154 37.9814C15.5108 37.8542 15.7335 37.8224 15.8607 37.9496C16.6875 38.6174 18.8817 40.0803 21.0124 39.0627C21.1714 38.999 21.3622 39.0627 21.4258 39.2217C21.4894 39.3807 21.4258 39.5715 21.2668 39.6351C20.6307 39.8895 20.0265 40.0167 19.4223 40.0167Z" fill="#B32D2E"></path><path d="M15.2246 43.1968C15.0974 43.1968 15.002 43.1332 14.9384 43.006C14.8748 42.847 14.9384 42.6562 15.0974 42.5926C15.1292 42.5926 17.4507 41.4796 17.8323 39.4444C17.8641 39.2854 18.0231 39.1582 18.2139 39.19C18.3729 39.2218 18.5001 39.3808 18.4683 39.5716C18.0549 41.9248 15.4791 43.1332 15.3837 43.165C15.32 43.1968 15.2882 43.1968 15.2246 43.1968Z" fill="#B32D2E"></path><path d="M9.97767 56.2667C9.78687 56.2667 9.65967 56.1077 9.65967 55.9487C9.65967 55.7896 9.81867 55.6306 9.97767 55.6306C10.1685 55.6306 12.6807 55.5988 13.1895 53.5318C13.2213 53.3728 13.4121 53.2456 13.5711 53.3092C13.7301 53.341 13.8573 53.5318 13.7937 53.6908C13.1577 56.2349 10.0731 56.2667 9.97767 56.2667Z" fill="#B32D2E"></path><path d="M14.4295 57.7296C14.3659 57.7296 14.3023 57.6978 14.2387 57.666C13.4119 56.9664 12.9031 55.9169 12.7759 54.6449C12.7759 54.4541 12.9031 54.3269 13.0621 54.2951C13.2529 54.2633 13.3801 54.4223 13.4119 54.5813C13.5073 55.6625 13.9525 56.5848 14.6521 57.1572C14.7793 57.2844 14.8111 57.4752 14.6839 57.6024C14.5885 57.6978 14.4931 57.7296 14.4295 57.7296Z" fill="#B32D2E"></path><path d="M27.8811 9.10645C27.8175 9.10645 27.7539 9.07465 27.6903 9.04285C27.5313 8.94745 27.4995 8.75664 27.5949 8.59764C27.5949 8.56584 28.7398 6.6578 27.0861 5.16318C26.9589 5.03597 26.9589 4.84517 27.0543 4.71797C27.1815 4.59077 27.3723 4.59077 27.4995 4.68617C29.2804 6.308 28.4218 8.47044 28.1038 8.94745C28.072 9.07465 27.9765 9.10645 27.8811 9.10645Z" fill="#B32D2E"></path><path d="M30.616 8.62947C30.5206 8.62947 30.4252 8.59767 30.3616 8.50226C30.3616 8.50226 29.503 7.51645 28.2946 7.48464C28.1038 7.48464 27.9766 7.32564 27.9766 7.16664C27.9766 6.97584 28.1356 6.84863 28.2946 6.84863C29.821 6.91223 30.8068 8.02525 30.8386 8.08886C30.9658 8.21606 30.934 8.43866 30.8068 8.53406C30.775 8.59766 30.6796 8.62947 30.616 8.62947Z" fill="#B32D2E"></path><path d="M8.80099 24.2119C8.70558 24.2119 8.61019 24.1801 8.54659 24.0847C7.94237 23.385 7.36996 23.0352 6.79755 23.0034C6.16154 23.0034 5.74814 23.4168 5.74814 23.4168C5.62093 23.544 5.43012 23.544 5.30292 23.4168C5.17572 23.2896 5.17572 23.0988 5.30292 22.9716C5.33472 22.9398 5.90713 22.3356 6.82935 22.3674C7.59256 22.3992 8.35577 22.8126 9.05539 23.6712C9.18259 23.7984 9.1508 24.0211 9.02359 24.1165C8.95999 24.1801 8.86459 24.2119 8.80099 24.2119Z" fill="#B32D2E"></path><path d="M8.06932 23.5124C8.00572 23.5124 7.97391 23.5124 7.91031 23.4806C7.75131 23.3852 7.6877 23.1944 7.7831 23.0354C8.73712 21.3181 8.06932 19.5691 8.06932 19.5691C8.00572 19.4101 8.06931 19.2193 8.26011 19.1557C8.41912 19.0921 8.60993 19.1557 8.67354 19.3465C8.70534 19.4419 9.46855 21.3817 8.35553 23.3534C8.29193 23.4488 8.19652 23.5124 8.06932 23.5124Z" fill="#B32D2E"></path><path d="M26.6411 19.1871C26.6093 19.1871 26.5775 19.1871 26.5457 19.1553C26.3867 19.0917 26.2913 18.9327 26.3549 18.7419C26.3867 18.6464 27.1817 16.3568 28.9307 16.166C29.0897 16.1342 29.2487 16.2614 29.2805 16.4522C29.3123 16.6112 29.1851 16.7702 28.9943 16.802C27.6587 16.961 26.9591 18.9327 26.9591 18.9327C26.8955 19.1235 26.7683 19.1871 26.6411 19.1871Z" fill="#B32D2E"></path><path d="M28.231 17.0883C28.1992 17.0883 28.1674 17.0883 28.1356 17.0883C26.4819 16.6113 25.2735 14.8623 25.2099 14.7987C25.1145 14.6397 25.1463 14.4489 25.3053 14.3535C25.4643 14.2581 25.6551 14.2899 25.7505 14.4489C25.7505 14.4807 26.8635 16.0707 28.3264 16.4841C28.4854 16.5477 28.5808 16.7067 28.549 16.8657C28.4854 16.9929 28.3582 17.0883 28.231 17.0883Z" fill="#B32D2E"></path></svg>