<svg width="250" height="386" viewBox="0 0 250 386" fill="none" xmlns="http://www.w3.org/2000/svg">
<path d="M135.724 194.204C135.322 188.586 134.116 184.173 132.91 180.963L130.096 147.258C130.096 146.054 129.694 144.85 129.292 143.647C128.488 140.838 127.684 138.029 126.478 136.023C125.674 134.819 125.272 132.813 125.674 131.208C126.88 125.992 126.88 119.17 126.076 111.948C124.468 102.318 123.262 95.4969 121.654 91.0832C122.056 87.0707 121.654 82.657 119.644 78.2432C115.223 68.6133 110.399 66.6071 103.163 65.0021C103.163 65.0021 93.5156 62.5946 89.8978 60.5884C88.6918 59.7859 87.4859 59.3846 85.8779 58.5821C84.27 58.1809 83.0641 56.9771 82.2601 56.1746C80.6522 54.5696 79.8482 52.1622 79.8482 49.7547V48.1497C83.868 43.736 86.2799 37.7173 86.6819 31.6985C87.4859 30.8961 87.8879 29.2911 88.2898 27.2848C88.6918 24.0748 88.2898 21.6674 87.0839 21.2661H86.6819V17.6549C86.6819 8.02495 78.6423 0 68.9947 0H66.9848C57.3373 0 49.2976 8.02495 49.2976 17.6549V21.2661H48.8957C47.6897 21.6674 47.2877 24.0748 47.6897 27.2848C48.0917 29.2911 48.4937 30.4948 49.2976 31.6985C49.6996 37.7173 52.1115 43.3347 56.1313 48.1497V50.1559C56.1313 52.5634 55.3274 54.5696 53.7194 56.5759C52.5135 57.7796 51.3075 58.5821 50.1016 58.9834C48.4937 59.3846 47.2877 60.1871 46.0818 60.9896C42.062 63.3971 32.8164 65.4033 32.8164 65.4033C25.5807 67.0083 20.757 68.6133 16.3352 78.6445C14.3253 83.0582 13.5213 87.4719 14.3253 91.4844C13.1193 95.8981 11.5114 102.318 9.90346 112.349C8.69751 119.572 9.09949 126.393 10.3054 131.609C10.7074 133.214 10.3054 134.819 9.50148 136.424C8.29553 138.832 7.08959 141.239 6.6876 144.048C6.28562 145.252 6.28562 146.455 5.88364 147.659L3.06977 181.364C1.86383 184.574 0.657883 188.586 0.255901 194.605C-0.548062 203.031 0.657883 210.254 2.26581 213.464C3.47175 216.272 4.6777 219.081 5.88364 220.285C8.29553 224.699 10.7074 227.909 11.9134 227.507C13.1193 227.106 12.3153 222.692 9.90346 217.476C9.90346 215.47 9.50147 213.062 9.09949 210.254C10.3054 207.044 11.5114 202.63 11.9134 197.414C11.9134 197.815 11.9134 197.815 11.9134 197.815C12.7173 205.037 14.7272 211.056 16.3352 211.056C17.5411 211.056 17.9431 204.636 17.1391 197.414C16.3352 192.198 15.1292 188.185 14.3253 185.778L25.5807 156.486C25.9827 155.283 27.1887 148.863 27.5906 147.659C28.3946 144.449 28.3946 141.64 27.9926 138.832C27.9926 137.628 27.9926 136.424 28.7966 135.22C31.2085 131.208 31.6105 124.788 32.4144 118.368C33.2184 120.374 34.0223 122.38 34.8263 124.387C36.0322 126.393 36.4342 128.8 36.4342 134.418V150.869C34.8263 156.085 34.0223 162.505 34.0223 169.728C34.0223 172.938 34.0223 175.746 34.4243 178.555C33.6204 182.568 32.8164 187.383 32.0124 193C29.1986 201.426 27.9926 213.062 28.7966 226.304C29.6005 237.137 31.2085 246.767 34.0223 254.391C34.0223 254.792 34.0223 255.193 34.0223 255.595C34.0223 256.798 34.0223 257.601 34.4243 258.805C33.6204 267.231 33.6204 274.854 33.6204 282.077C33.2184 283.682 33.2184 285.287 33.2184 287.293C32.0124 293.713 31.2085 301.738 31.6105 310.967C32.4144 323.004 41.258 353.098 41.258 353.9C41.66 355.505 41.66 357.511 40.856 359.116C40.0521 360.32 40.0521 361.925 40.0521 363.129C40.0521 363.53 40.0521 363.931 40.454 364.734C40.0521 366.339 39.6501 367.944 39.2481 369.549C38.8461 370.753 37.2382 372.759 35.6303 374.765C34.8263 375.568 34.4243 376.37 33.6204 377.173C31.6105 380.383 32.0124 383.191 33.6204 383.592C34.0223 383.592 34.8263 383.191 35.2283 383.994L35.6303 384.395C36.4342 384.796 37.2382 384.796 38.4441 384.395C38.4441 384.395 38.4441 384.395 38.8461 384.395C38.8461 384.395 39.2481 384.395 39.2481 384.796C39.2481 385.198 39.6501 385.198 40.0521 385.198C40.856 385.599 41.66 385.198 42.464 384.796C42.8659 384.796 42.8659 384.395 43.2679 384.395C43.6699 384.395 44.0719 384.796 44.0719 384.796C44.4739 385.198 45.2778 384.796 46.0818 384.796H46.4838C46.8858 384.796 46.8857 384.796 47.2877 385.198C48.0917 386 48.8957 386 50.1016 386H51.3075C53.3175 386 56.9353 382.389 56.9353 380.383C56.9353 379.981 56.9353 379.981 56.9353 379.58C56.9353 379.179 57.3373 378.376 56.9353 377.975C56.9353 375.969 56.5333 374.364 56.5333 373.561C56.5333 372.759 56.5333 372.358 56.5333 371.555C56.5333 371.154 56.5333 370.753 56.5333 370.351C56.5333 368.345 56.5333 366.74 56.5333 365.135C56.9353 364.333 56.9353 363.129 56.9353 362.326C56.9353 357.913 53.7194 355.906 54.1214 352.696C54.1214 349.888 53.7194 349.487 55.7293 332.634C57.3373 326.615 57.7392 319.393 57.7392 310.967C57.7392 305.349 57.3373 300.534 56.9353 295.719C56.9353 292.911 56.9353 290.102 56.9353 286.892C56.9353 285.688 56.9353 284.083 56.5333 282.879C57.7393 276.459 58.5432 269.638 59.3472 262.416C59.7492 261.212 60.5531 259.607 60.9551 257.601C62.161 254.391 62.965 249.977 63.769 244.761C64.9749 239.545 66.1809 233.526 66.9848 227.507C67.7888 221.489 68.1908 216.272 68.5927 211.056V210.655V211.056C68.9947 216.272 69.3967 221.89 70.2007 227.507C71.0046 233.927 72.2106 239.545 73.4165 244.761C74.2205 249.977 75.0244 254.391 76.2304 257.601C76.6324 259.607 77.0344 260.811 77.8383 262.416C78.6423 269.638 79.4462 276.459 80.6522 282.879C80.6522 284.083 80.2502 285.287 80.2502 286.892C80.2502 290.102 79.8482 293.312 80.2502 295.719C79.4462 300.133 79.0443 305.349 79.4462 310.967C79.4462 318.992 79.8482 326.615 81.4561 332.634C83.0641 349.487 82.6621 349.888 83.0641 352.696C83.0641 355.906 80.2502 357.913 80.2502 362.326C80.2502 363.53 80.6522 364.333 80.6522 365.135C80.6522 366.74 80.6522 368.345 80.6522 370.351C80.6522 370.753 80.6522 371.154 80.6522 371.555C80.6522 372.358 80.6522 372.759 80.6522 373.561C80.6522 374.364 80.2502 375.969 80.2502 377.975C80.2502 378.376 80.2502 379.179 80.2502 379.58C80.2502 379.981 80.2502 379.981 80.2502 380.383C80.6522 382.389 84.27 386 85.8779 386H87.0839C88.2898 386 89.0938 385.599 89.8978 385.198C90.2997 385.198 90.2997 384.796 90.7017 384.796C91.1037 384.796 91.1037 384.796 91.1037 384.796C91.9077 385.198 92.3097 385.198 93.1136 384.796L93.9176 384.395C94.3196 384.395 94.3196 384.395 94.7215 384.796C95.5255 385.198 96.3295 385.599 97.1334 385.198C97.5354 385.198 97.5354 384.796 97.9374 384.796C97.9374 384.796 98.3394 384.796 98.3394 384.395H98.7414C99.5453 385.198 100.751 384.796 101.555 384.395C101.555 384.395 101.957 384.395 101.957 383.994C102.359 383.592 103.163 383.994 103.565 383.592C105.173 383.191 105.575 380.383 103.565 377.173C103.163 376.37 102.359 375.568 101.555 374.765C99.9473 372.759 98.3394 370.753 97.9374 369.549C97.5354 367.543 97.1334 365.938 96.7314 364.734C96.7314 364.333 97.1334 363.931 97.1334 363.129C97.1334 361.925 97.1334 359.919 96.3295 359.116C95.5255 357.511 95.5255 355.505 95.9275 353.9C95.9275 353.098 105.173 323.004 105.575 310.967C105.977 302.139 105.575 293.713 103.967 287.293C103.967 285.688 103.967 283.682 103.565 282.077C103.565 274.854 103.565 267.231 102.761 258.805C102.761 258.002 103.163 256.798 103.163 255.595C103.163 255.193 103.163 254.792 103.163 254.391C105.977 246.767 107.987 237.137 108.389 226.304C109.193 213.464 107.987 201.426 105.173 193C104.369 187.383 103.565 182.969 102.761 178.555C103.163 175.746 103.163 172.938 103.163 169.728C103.163 162.505 102.359 156.085 100.751 150.869V130.807C100.751 128.399 101.153 125.992 102.359 123.985C103.163 122.38 103.967 120.374 104.771 117.967C105.575 124.387 105.977 130.807 108.389 134.819C108.791 136.023 109.193 137.227 109.193 138.43C108.791 141.239 109.193 144.048 109.595 147.258C109.997 148.462 111.203 154.882 111.605 156.085L123.262 184.975C122.056 186.981 120.85 191.395 120.448 196.611C119.644 203.834 119.644 210.254 121.252 210.254C122.458 210.254 124.468 204.636 125.674 197.012C125.674 196.611 125.674 196.611 125.674 196.611C126.076 201.827 127.282 206.241 128.488 209.451C127.684 212.26 127.684 214.667 127.684 216.674C125.272 221.489 124.468 225.902 125.674 226.705C126.88 227.106 129.292 223.896 131.704 219.482C132.91 217.877 134.116 215.47 135.322 212.661C135.322 209.852 136.528 202.229 135.724 194.204Z" fill="#9B9B9B"/>
<path d="M248.788 202.423C248.788 202.021 248.788 201.62 248.788 201.218V193.586L247.981 154.621C247.981 153.416 247.981 151.809 247.577 150.604C247.173 146.988 246.365 143.775 245.558 140.561C245.154 139.758 245.154 139.356 245.154 138.553C245.154 131.322 244.75 122.886 243.942 113.647C241.519 90.3486 236.673 75.8873 232.231 73.0754C228.596 71.0669 216.481 67.4516 213.25 66.2465C212.442 65.8448 211.635 65.4431 210.827 65.0414C204.769 61.4261 206.385 54.9989 206.788 53.3921C208.404 51.7853 210.019 49.3751 211.231 47.3666C212.846 44.153 214.058 40.5377 214.462 36.9224C215.269 36.119 215.673 34.5122 216.077 32.9054C216.481 30.0935 216.077 27.6833 214.865 27.2816H214.462V24.4697C214.462 15.2306 206.788 8 197.904 8H195.885C186.596 8 179.327 15.6323 179.327 24.4697V28.085H178.923C177.712 28.085 177.308 30.8969 177.712 33.7088C178.115 35.3156 178.519 36.9224 179.327 37.7258C179.731 41.3411 180.538 44.9564 182.558 48.17C183.769 50.5802 184.981 52.5887 187 54.1955C187.404 55.8023 189.019 62.2295 182.962 65.8448C182.154 66.2465 181.346 66.6482 180.538 67.0499C177.308 67.8533 165.596 71.4686 161.558 73.8788C157.115 76.289 152.269 91.152 149.846 114.451C148.635 123.69 148.635 132.125 148.635 139.356C148.635 140.159 148.635 140.561 148.231 141.365C147.423 144.176 146.615 147.39 146.212 151.407C146.212 152.612 145.808 154.219 145.808 155.424L145 194.389V202.021C145 202.423 145 202.825 145 203.226V203.628C145 204.833 145 206.038 145 207.645C145.404 213.671 146.212 219.294 147.423 221.303C148.231 223.311 149.038 224.918 149.442 226.123C150.654 229.337 152.269 231.345 152.673 230.542C153.077 230.14 152.269 226.927 151.058 223.311C151.058 221.705 150.654 220.098 150.25 218.089C150.654 215.679 150.654 212.064 150.654 208.448V208.85C151.865 214.072 153.077 218.491 153.885 218.089C154.692 217.688 154.288 213.269 153.077 208.047C152.269 204.833 151.865 202.021 151.058 200.414C150.654 199.611 150.654 198.808 150.654 198.004L151.462 194.791L159.135 157.834C159.538 156.629 159.538 155.022 159.942 153.817C160.346 151.407 161.558 144.98 161.558 142.168C161.558 141.766 161.558 141.365 161.558 140.963C163.577 133.732 164.385 128.51 165.596 117.664C165.596 116.459 166 115.254 166 113.647C166.404 114.049 166.808 114.451 166.808 114.852C173.269 127.305 173.269 147.792 173.269 153.014C173.269 154.219 173.269 155.424 172.865 156.629C172.462 157.433 172.462 158.236 171.654 159.039C159.538 179.928 161.154 214.072 163.981 229.337C167.615 248.618 171.25 272.319 174.885 282.361C174.885 283.566 174.885 284.772 174.885 285.977C171.654 311.685 180.942 353.061 180.942 353.061C182.154 357.881 182.962 361.496 182.962 361.496C182.962 362.701 183.365 364.308 182.558 365.513C182.154 366.317 182.154 367.522 182.154 368.727C182.154 369.129 182.154 369.53 182.154 369.932C181.75 371.137 181.346 372.342 181.346 373.547C181.346 374.351 180.135 375.957 178.923 377.564C178.519 378.368 178.115 378.769 177.712 379.171C176.096 381.581 176.5 383.59 177.712 383.991C178.115 383.991 178.519 383.59 178.923 383.991C178.923 383.991 178.923 383.992 179.327 384.393C179.731 384.795 180.538 384.795 180.942 384.393C180.942 384.393 180.942 384.393 181.346 384.393C181.346 384.393 181.346 384.393 181.75 384.393L182.154 384.795C182.558 385.197 183.365 384.795 183.769 384.393H184.173C184.577 384.393 184.981 384.795 184.981 384.795C185.385 384.795 185.788 384.795 186.192 384.795H186.596C187 384.795 187 384.795 187 385.197C187.404 385.598 188.212 386 189.019 386H189.827C191.038 386 193.865 383.188 193.865 381.581V381.18C193.865 380.778 193.865 380.376 193.865 379.974C193.865 378.368 193.462 377.163 193.462 376.761C193.462 376.359 193.462 375.957 193.462 375.154C193.462 374.752 193.462 374.752 193.462 374.351C193.462 372.744 193.462 371.539 193.462 370.334C193.865 369.53 193.865 369.129 193.865 368.325C193.865 365.112 191.846 363.505 191.846 361.095C191.846 359.488 191.846 359.086 192.25 353.864C192.25 353.864 195.885 311.284 195.885 310.48C195.885 298.028 193.462 293.609 193.462 287.182C193.462 285.575 193.462 283.968 193.865 282.361C194.673 277.139 195.077 265.088 195.077 261.473C193.865 240.986 197.096 204.03 197.096 203.628C197.096 204.03 200.327 240.584 199.115 261.473C199.115 265.088 199.519 277.139 200.327 282.361C200.327 283.165 200.327 284.772 200.327 286.378C200.327 292.806 197.904 297.224 197.904 309.677C197.904 310.882 201.538 353.061 201.538 353.061C201.942 358.283 201.942 358.684 201.942 360.291C201.942 362.701 199.923 364.308 199.923 367.522C199.923 368.325 199.923 369.129 200.327 369.53C200.327 370.735 200.327 371.94 200.327 373.547C200.327 373.949 200.327 373.949 200.327 374.351C200.327 374.752 200.327 375.154 200.327 375.957C200.327 376.761 199.923 377.564 199.923 379.171C199.923 379.573 199.923 379.974 199.923 380.376V380.778C200.327 382.385 202.75 385.197 203.962 385.197H204.769C205.577 385.197 205.981 384.795 206.788 384.393L207.192 383.991H207.596C208 384.393 208.404 384.393 208.808 383.991C208.808 383.991 209.212 383.59 209.615 383.59H210.019C210.423 383.991 211.231 383.991 211.635 383.991L212.038 383.59C212.038 383.59 212.038 383.59 212.442 383.59C212.442 383.59 212.442 383.59 212.846 383.59C213.654 383.991 214.058 383.991 214.865 383.59C214.865 383.59 214.865 383.59 215.269 383.188C215.673 382.786 216.077 383.188 216.481 383.188C217.692 382.786 217.692 380.778 216.481 378.368C216.077 377.966 215.673 377.163 215.269 376.761C214.058 375.154 212.846 373.547 212.846 372.744C212.442 371.539 212.038 369.932 212.038 369.129C212.038 368.727 212.038 368.325 212.038 367.923C212.038 366.718 212.038 365.513 211.635 364.71C211.231 363.505 211.231 361.898 211.231 360.693C211.231 360.291 212.038 357.078 213.25 352.257C213.25 352.257 222.538 310.882 220.115 283.165C220.115 281.96 220.115 280.755 220.115 279.549C223.75 269.507 227.385 245.807 231.019 226.525C233.846 211.26 235.462 177.116 223.346 156.227C222.942 155.424 222.538 154.621 222.135 153.817C221.731 152.612 221.731 151.407 221.731 150.202C221.731 145.382 221.731 124.493 228.192 112.04C228.596 111.639 228.596 111.237 229 110.835C229 112.04 229.404 113.245 229.404 114.852C230.615 125.698 231.423 131.322 233.442 138.151C233.442 138.553 233.442 138.954 233.442 139.356C233.442 142.168 234.654 148.595 235.058 151.005C235.058 152.21 235.462 153.817 235.865 155.022L243.538 191.979L244.346 195.192C244.346 195.996 244.346 196.799 243.942 197.603C243.135 199.209 242.731 202.021 241.923 205.235C240.712 210.457 240.712 215.277 241.115 215.277C241.923 215.679 243.135 211.26 244.346 206.038V205.637C244.346 209.252 244.346 212.867 244.75 215.277C244.346 217.286 243.942 219.294 243.942 220.499C242.327 224.115 241.923 226.927 242.327 227.73C242.731 228.132 244.346 226.123 245.558 223.311C246.365 222.508 247.173 220.499 247.577 218.491C248.788 216.482 249.596 211.26 250 204.833C248.788 205.235 248.788 204.03 248.788 202.423C248.788 202.825 248.788 202.423 248.788 202.423Z" fill="#9B9B9B"/>
</svg>
