<svg width="149" height="149" viewBox="0 0 149 149" fill="none" xmlns="http://www.w3.org/2000/svg">
<path d="M149 74.5C149 115.6 115.6 149 74.5 149C33.4 149 0 115.6 0 74.5C0 33.4 33.4 0 74.5 0C115.6 0 149 33.4 149 74.5Z" fill="#F8F6F6"/>
<mask id="mask0" mask-type="alpha" maskUnits="userSpaceOnUse" x="0" y="0" width="149" height="149">
<path d="M149 74.4999C149 115.648 115.668 149 74.5 149C33.3319 149.108 0 115.756 0 74.4999C0 33.3517 33.3319 0 74.5 0C115.668 0 149 33.3517 149 74.4999Z" fill="#F8F6F6"/>
</mask>
<g mask="url(#mask0)">
<path d="M87.9193 68.687C87.9193 68.687 79.1337 82.453 73.2767 82.3393C67.5369 82.2255 59.6885 68.687 59.6885 68.687V48.0947H87.8021L87.9193 68.687Z" fill="#F7995A"/>
<path d="M89.2304 37.9368C94.8531 33.0447 93.096 43.0564 91.8075 45.6731C91.3389 46.5833 90.2846 48.5173 88.9961 48.7449L89.2304 37.9368Z" fill="#F7995A"/>
<path d="M56.5498 37.9368C50.927 33.0447 52.6841 43.0564 53.9727 45.6731C54.4412 46.5833 55.4955 48.5173 56.784 48.7449L56.5498 37.9368Z" fill="#F7995A"/>
<path d="M89.2312 41.5776C88.7626 35.3203 90.1683 25.4223 87.4741 21.2129C84.1942 16.4346 78.1029 15.9795 72.8316 15.9795C67.5603 15.9795 61.3518 16.4346 58.189 21.2129C55.3777 25.3086 56.9005 35.3203 56.4319 41.5776C55.7291 49.5414 58.0719 55.0023 64.2803 60.0082C66.1546 61.4872 70.3716 62.3973 72.8316 62.3973C75.2915 62.3973 79.5086 61.4872 81.3828 60.0082C87.7084 55.0023 89.934 49.5414 89.2312 41.5776Z" fill="#F7AC6F"/>
<path d="M92.7569 19.8474C92.4055 18.8235 89.2427 14.614 89.2427 14.614L83.7371 9.72194C83.7371 9.72194 73.6631 6.65017 72.1403 6.1951C68.3918 5.0574 63.0033 9.26687 63.0033 9.26687L59.9577 12.3386L59.8405 11.3147C59.8405 11.3147 54.4521 16.093 53.0464 22.009C52.2264 25.5359 52.8121 33.9548 53.8664 36.5715C53.8664 36.5715 55.8578 38.0505 56.4435 37.9367C56.3263 35.2063 57.6149 31.4519 57.6149 29.404C58.2006 27.6975 62.4176 21.0989 64.2919 20.4163C66.4004 18.3684 72.2574 20.8713 72.2574 20.8713L76.3573 19.3923C76.3573 19.3923 77.2944 20.9851 77.763 21.2126C78.7001 21.6677 81.98 20.8713 81.98 20.8713C86.5485 23.3743 87.9542 30.4279 87.9542 30.4279C87.9542 30.4279 89.2427 35.2063 89.1256 37.9367C89.8284 38.0505 92.1712 36.5715 92.1712 36.5715C92.4055 33.3859 94.2798 24.967 92.7569 19.8474Z" fill="#01324F"/>
<path d="M79.277 17.7998C81.3855 13.3628 72.6 11.0874 69.5544 10.291C70.0229 10.8599 70.4915 11.6562 70.8429 12.3389C69.2029 11.2012 66.743 10.6323 64.7516 10.291C64.7516 10.291 64.7516 10.291 64.8688 10.291C68.1487 12.6802 60.4174 14.2729 61.706 17.7998C63.4631 17.0034 65.8059 17.0034 67.7973 17.1172C68.7344 17.1172 72.4829 18.8237 73.3028 18.8237C74.4743 18.7099 72.8343 16.7759 74.24 16.8896C75.4114 16.8896 79.277 17.7998 79.277 17.7998Z" fill="#063754"/>
<path d="M100.687 42.9658C100.687 60.7023 85.7105 75.3808 67.614 75.3808C48.8934 75.9924 33.917 61.3139 33.917 42.9658C33.917 25.2293 48.8934 10.5508 66.9899 10.5508C85.7105 10.5508 100.687 25.2293 100.687 42.9658Z" fill="url(#paint0_radial)"/>
<path d="M42.5036 124.873L25.5994 140.086L17.8956 114.129L40.0675 109.817L42.5036 124.873Z" fill="#F7995A"/>
<path d="M101.739 136.38L103.848 132.285L103.613 126.824L112.399 71.6455L97.5222 65.0469L74.6798 74.9448L73.157 82.3398L71.6342 74.9448L48.6747 65.2744L33.915 71.7593L42.7006 126.937L42.4663 132.398L44.5748 136.494L44.1062 141.614L39.3035 159.362C39.3035 159.362 48.089 162.661 73.2741 162.661C98.4593 162.661 105.839 159.362 105.839 159.362L102.442 141.614L101.739 136.38Z" fill="#FCE587"/>
<path d="M69.4096 71.4175L71.6353 74.9443L67.8868 73.6928L64.0211 79.2675L48.6758 65.1601L56.7585 59.4717L69.4096 71.4175Z" fill="#FDD36A"/>
<path d="M40.1246 119.883L41.0617 115.901L33.9162 71.7588L29.1134 78.1299L17.3994 114.764L40.1246 119.883Z" fill="#FDD36A"/>
<path d="M76.9063 71.4175L74.6807 74.9443L78.4291 73.6928L82.2948 79.2675L97.6401 65.1601L89.5575 59.4717L76.9063 71.4175Z" fill="#FDD36A"/>
<path d="M44.9294 135.355C50.7864 140.703 62.5004 136.834 68.3574 141.271C61.6804 144.457 45.3979 141.727 56.4091 152.08C52.0749 152.193 48.3264 150.601 44.1094 150.942C44.4608 147.301 45.9836 143.319 45.2808 140.134L44.9294 135.355Z" fill="#FDD36A"/>
<path d="M101.622 140.476C99.1619 145.368 91.7821 144.913 86.6279 145.823C89.0879 148.553 94.7106 147.984 98.9277 148.212C98.342 148.781 97.522 149.805 96.4677 150.487C97.9905 150.829 102.442 151.17 102.793 151.056L101.622 140.476Z" fill="#FDD36A"/>
<path d="M106.194 119.883L105.257 115.901L112.402 71.7588L117.205 78.1299L128.919 114.764L106.194 119.883Z" fill="#FDD36A"/>
<path d="M110.059 133.308L130.207 132.056L126.459 115.332L106.193 119.883L110.059 133.308Z" fill="#F7995A"/>
<path d="M99.5164 164.821L94.1279 166.528L103.851 172.216L107.13 176.198C107.13 176.198 132.784 145.253 130.324 132.056C123.53 123.864 110.059 133.421 110.059 133.421L99.5164 164.821Z" fill="#F7AC6F"/>
<path d="M96.001 97.5791C96.001 107.848 87.3304 116.346 76.8535 116.346C66.0153 116.7 57.3447 108.202 57.3447 97.5791C57.3447 87.3106 66.0153 78.8125 76.4922 78.8125C87.3304 78.8125 96.001 87.3106 96.001 97.5791Z" fill="url(#paint1_radial)"/>
<path d="M47.8028 109.49L66.7159 98.2665L70.0387 100.554L73.7443 105.093C73.7443 105.093 46.8129 142.784 27.0481 145.473C14.512 135.84 23.9633 124.877 23.9633 124.877L47.8028 109.49Z" fill="#F7AC6F"/>
<path d="M65.7411 84.3968L65.0917 81.1285C65.0917 81.1285 68.8623 80.4948 69.5541 85.187C69.6533 85.9136 69.0198 88.7064 69.0198 88.7064C69.0198 88.7064 77.7951 81.6112 80.6822 79.7111C85.3389 76.6464 85.6127 79.7659 85.6127 79.7659L82.7348 82.8478L86.6734 79.7278C88.0072 78.7179 89.7228 78.6447 90.387 79.7915C90.955 80.6056 89.354 83.3751 88.6751 84.3498C90.009 83.34 92.0971 83.0216 92.7613 84.1683C93.4886 85.4055 87.6996 91.3272 87.6996 91.3272C88.661 90.5625 89.9109 90.7958 90.4789 91.6098C91.11 92.5144 82.1214 100.278 82.1214 100.278C81.9352 100.4 81.7489 100.523 81.5626 100.646L78.0689 104.793L71.2341 108.631L62.3877 102.574L60.6078 94.3745L65.7411 84.3968Z" fill="#F7AC6F"/>
</g>
<defs>
<radialGradient id="paint0_radial" cx="0" cy="0" r="1" gradientUnits="userSpaceOnUse" gradientTransform="translate(74.7208 41.7741) rotate(3.01247) scale(25.7014 25.1943)">
<stop offset="0.0832259" stop-color="#7DB800" stop-opacity="0.35"/>
<stop offset="0.9745" stop-color="#E09980" stop-opacity="0"/>
</radialGradient>
<radialGradient id="paint1_radial" cx="0" cy="0" r="1" gradientUnits="userSpaceOnUse" gradientTransform="translate(76.5858 97.6712) scale(19.2414 18.8587)">
<stop offset="0.0832259" stop-color="#EA2154" stop-opacity="0.83"/>
<stop offset="0.9745" stop-color="#E09980" stop-opacity="0"/>
</radialGradient>
</defs>
</svg>
