<svg width="149" height="149" viewBox="0 0 149 149" fill="none" xmlns="http://www.w3.org/2000/svg">
<path d="M149 74.5C149 115.6 115.6 149 74.5 149C33.4 149 0 115.6 0 74.5C0 33.4 33.4 0 74.5 0C115.6 0 149 33.4 149 74.5Z" fill="#F8F6F6"/>
<mask id="mask0" mask-type="alpha" maskUnits="userSpaceOnUse" x="0" y="0" width="149" height="149">
<path d="M149 74.5C149 115.6 115.6 149 74.5 149C33.4 149 0 115.6 0 74.5C0 33.4 33.4 0 74.5 0C115.6 0 149 33.4 149 74.5Z" fill="#F8F6F6"/>
</mask>
<g mask="url(#mask0)">
<path d="M91.1975 121.882C91.4231 118.214 92.095 114.606 91.6109 110.909C91.0583 106.749 90.9051 102.512 90.6159 98.3223C90.5859 98.0589 90.6196 97.8038 90.3899 97.5789C89.5948 97.2142 88.8429 97.504 88.2017 97.9381C87.9545 101.279 86.8618 97.9221 85.6114 101C84.0666 99.1109 85.628 107.588 85.6112 107.715C86.0089 110.103 86.4789 112.436 86.7407 114.871C86.7623 115.198 86.7285 115.453 86.5589 115.755C86.1136 116.669 85.6046 117.575 85.2784 118.569C84.5961 120.295 83.2761 121.937 83.852 123.959C84.0311 124.567 84.2102 125.175 84.3256 125.774C84.7945 127.133 85.2634 128.492 84.942 129.942C84.9335 130.006 84.9251 130.069 84.9167 130.133C84.658 130.618 84.2127 131.532 84.6506 131.655C85.5178 131.964 85.0678 132.424 85.0173 132.806C84.9967 133.452 84.5383 133.975 84.5899 134.566C84.3828 135.641 84.1119 136.708 83.9048 137.784C83.7652 138.349 83.8721 139.012 84.4459 139.088C85.0197 139.164 85.1773 139.444 85.4539 139.805C85.8411 140.31 86.2452 140.688 86.818 139.791C87.5351 138.783 88.1332 137.694 88.8419 136.75C89.695 135.695 90.2462 134.471 90.2404 133.043C90.3453 131.759 90.5139 130.484 90.6188 129.201C90.6357 129.073 90.7247 128.89 90.7416 128.763C90.9318 127.815 90.7949 126.889 90.8491 125.988C91.0347 124.585 91.0842 123.229 91.1975 121.882Z" fill="#FEB679"/>
<path d="M71.6547 79.9564L89.4685 74.6187L93.3914 97.5129L80.0793 100.986L71.6547 79.9564Z" fill="#F1E09B"/>
<path d="M93.3909 92.4326C91.4616 92.9471 88.6963 94.2333 86.6384 94.2976C84.2589 94.4262 81.8152 94.7478 79.4357 94.9407C78.5997 95.005 77.9566 95.2622 77.5064 95.9697C77.2492 96.5484 77.3778 96.9986 77.6993 97.4488C78.2781 98.3491 78.7926 99.3138 79.3071 100.214C79.9502 101.243 80.5933 102.336 81.3007 103.365L94.7414 100.15C94.4199 98.9279 93.7768 92.6255 93.3909 92.4326Z" fill="#FDD36A"/>
<path d="M106.961 64.7788C106.382 64.9074 105.868 64.8431 105.289 64.9074C104.132 64.9717 102.91 65.1647 101.752 65.2933C100.916 65.4219 100.08 65.5505 99.437 66.3222C98.0222 68.0586 96.4144 69.6664 94.9996 71.467C94.8067 71.7243 94.6138 71.9172 94.4208 72.1744C93.5848 73.0748 92.8131 74.0394 92.0414 75.0041C91.5912 75.5829 91.3983 76.2259 91.7198 76.869C92.0414 77.4478 92.6202 77.6408 93.2633 77.5121C93.3276 77.5121 93.3919 77.5765 93.4562 77.5765C94.9353 78.0266 96.3501 78.4768 97.8292 78.927C98.2151 78.1552 98.408 77.2549 98.7939 76.4832C99.1798 75.7115 99.3084 75.6472 99.8872 76.3546C100.659 77.3192 101.431 78.2839 101.495 79.5701C102.074 79.8916 102.652 80.0845 103.296 79.763C103.424 79.5701 103.489 79.3771 103.489 79.1842C103.746 77.5765 103.296 76.1616 102.074 75.0041C101.752 74.7468 101.559 74.4253 101.302 74.1037C100.916 73.7179 100.916 73.3963 101.238 72.9461C102.267 71.5313 103.231 70.1165 104.196 68.7017C104.517 68.2515 104.903 68.0586 105.418 67.9943C106.511 67.7371 107.669 67.9943 108.826 67.7371C109.019 67.6727 109.212 67.6727 109.405 67.6084L107.09 64.7788C107.026 64.7788 107.026 64.7788 106.961 64.7788Z" fill="#FEB679"/>
<path d="M130.626 68.1872C131.591 66.7723 131.526 65.3575 131.076 63.8784C130.819 63.0424 130.305 62.335 130.433 61.3703C130.626 60.3414 130.24 59.634 129.404 59.0552C127.861 57.8976 126.253 56.8043 124.71 55.7111C124.452 55.5825 124.067 55.4538 124.195 55.068C124.517 53.9104 123.681 53.7175 122.909 53.5245C120.401 52.7528 117.829 52.2383 115.256 51.6596C114.87 51.5952 114.549 51.5952 114.227 51.7882C108.954 55.1966 103.102 56.6757 96.9279 57.3831C96.9922 57.8333 97.378 57.8333 97.6352 57.8976C98.3427 58.0905 99.0501 58.2192 99.7575 58.3478C100.143 58.4121 100.465 58.4764 100.851 58.5407C103.68 59.0552 106.51 59.8269 109.404 60.2128C109.725 60.2128 110.111 60.1484 110.433 60.3414C111.848 61.499 111.976 62.7851 110.754 63.7498C110.304 64.1357 109.725 64.3929 109.147 64.4572C108.504 64.5215 107.861 64.6501 107.217 64.7144L109.533 67.5441C110.754 67.4154 111.783 67.8013 112.555 69.0232C113.391 70.2451 114.484 71.0168 116.156 71.0168C118.407 71.0168 119.05 72.1101 119.565 73.975C119.694 74.5538 119.758 75.0683 119.822 75.6471C119.951 76.3545 119.694 76.869 119.05 77.1905C118.665 77.3835 118.021 77.4478 117.957 78.0909C118.021 79.8272 118.279 81.5636 117.507 83.1713C116.607 85.0363 117.443 86.5798 118.086 88.2518C120.272 86.837 119.822 84.3289 120.851 82.2067C120.98 83.107 121.237 83.8787 122.009 83.3643C123.616 82.3353 125.546 81.5636 125.996 79.3771C126.06 78.9269 126.382 78.541 126.51 78.0909C127.025 76.8047 127.797 75.9043 129.147 75.3899C130.112 75.0683 130.626 74.2966 130.562 73.2033C130.498 72.6245 130.498 72.0457 130.369 71.5313C130.047 69.7949 129.662 68.1229 129.34 66.2579C129.854 66.9653 129.983 67.6727 130.626 68.1872Z" fill="#2C1F18"/>
<path d="M95.1915 71.5314C94.1625 70.9527 92.8763 70.824 91.976 69.9237C92.8763 67.5442 93.7767 65.2291 94.6127 62.8496C95.2558 61.049 95.8989 59.184 96.542 57.3833C96.6706 57.3833 96.7993 57.3833 96.9279 57.3833C97.8282 57.8335 98.7928 57.7692 99.6932 58.155C101.172 58.6695 102.587 59.3126 104.066 59.8271C105.224 60.2772 105.352 60.5345 104.709 61.5634C104.002 62.6567 103.23 63.6857 102.523 64.7789C102.33 65.1005 102.073 65.3577 101.751 65.5506C100.594 65.5506 99.8861 66.258 99.243 67.0941C97.8925 68.5732 96.542 70.0523 95.1915 71.5314Z" fill="#FD9756"/>
<path d="M119.244 72.6894C118.794 71.8534 118.344 70.8888 117.251 70.9531C114.936 71.0174 113.264 70.0527 111.977 68.2521C111.849 68.0591 111.72 67.9948 111.592 67.8019C111.27 67.416 110.949 67.2874 110.434 67.3517C108.698 67.4803 106.897 67.609 105.161 67.6733C104.646 67.6733 104.389 67.9305 104.132 68.2521C103.103 69.7312 102.074 71.2746 100.981 72.7537C100.53 73.3325 100.53 73.7184 101.109 74.2329C102.524 75.5834 103.682 76.9982 103.296 79.1204C103.296 79.3133 103.296 79.5063 103.296 79.6349C103.617 79.6349 103.746 79.8921 103.874 80.0851C105.032 81.8857 105.289 81.95 106.897 80.4709C106.961 80.4066 107.026 80.3423 107.09 80.278C107.797 79.8278 108.569 79.3133 109.276 78.8632C110.884 78.2201 112.492 78.1558 114.1 78.7989C114.871 79.0561 115.643 79.442 116.351 78.6059C116.865 78.413 117.38 78.2844 117.894 78.0915C118.344 77.7056 118.859 77.5127 119.373 77.3197C119.888 77.1268 120.081 76.741 120.081 76.2265C119.952 75.0689 119.823 73.7827 119.244 72.6894Z" fill="#FEB679"/>
<path d="M97.8298 78.863C97.7012 77.6411 98.4086 76.6764 98.9231 75.7118C99.116 75.2616 99.5019 75.3902 99.8234 75.7118C100.402 76.4835 100.981 77.2552 101.495 78.0269C101.817 78.4771 101.367 78.9916 101.495 79.4418C101.045 79.4418 100.788 79.0559 100.467 78.863C100.274 78.4771 100.209 78.0269 100.209 77.5768C100.016 78.0269 100.402 78.4128 100.081 78.7987C99.3089 79.699 98.6015 78.9273 97.8298 78.863Z" fill="#FCB57B"/>
<path d="M100.08 78.9273C99.8868 78.2842 99.7582 77.7054 100.08 76.7407C100.53 77.5767 100.658 78.2198 100.466 78.9273C100.337 78.9273 100.208 78.9273 100.08 78.9273Z" fill="#FEB679"/>
<path d="M101.687 65.4864C102.652 64.0716 103.552 62.5925 104.517 61.242C104.967 60.5989 104.839 60.3417 104.131 60.0844C102.716 59.5699 101.302 58.9912 99.8867 58.4767C99.6938 58.4124 99.6295 58.2837 99.6295 58.0908C102.202 58.4124 104.774 59.1198 107.347 59.5699C108.054 59.6986 108.761 59.8272 109.469 59.8915C109.855 60.9848 109.533 62.271 108.761 62.9784C108.504 63.2356 108.247 63.4285 107.861 63.107C106.961 62.3353 106.318 62.5925 105.868 63.6858C105.675 64.1359 105.803 64.779 105.289 65.1006C104.067 65.2292 102.909 65.3578 101.687 65.4864Z" fill="#FD9756"/>
<path d="M110.434 60.1488C111.334 60.5989 111.848 61.3063 111.784 62.3353C111.656 63.4286 111.012 64.136 109.983 64.5218C109.019 64.8434 108.054 64.8434 107.09 64.972C106.704 64.9077 106.897 64.7148 107.025 64.5861C107.282 64.3289 107.668 64.0717 107.99 63.8787C109.147 63.107 109.791 62.0781 109.791 60.6632C109.791 60.1488 109.919 59.8915 110.434 60.1488Z" fill="#FCB075"/>
<path d="M110.433 60.1487C110.24 60.213 109.983 60.0844 110.047 60.4059C110.24 62.3995 109.018 63.5571 107.539 64.5218C107.346 64.6504 106.96 64.5861 107.089 64.9719C106.51 65.2292 105.931 65.0362 105.353 65.1005C105.674 64.3931 105.481 63.5571 106.06 62.8497C106.832 61.9494 107.732 62.0137 108.246 63.1713C109.404 62.3352 109.597 61.1133 109.597 59.8271C109.79 59.9558 110.176 59.8271 110.433 60.1487Z" fill="#C74F1E"/>
<path d="M82.9087 125.423C81.944 123.944 81.108 122.401 81.3009 120.471C81.3652 120.086 81.3009 119.7 81.2366 119.25C80.9151 116.42 81.5582 110.118 81.4939 109.475C81.3009 108.896 81.5582 106.259 81.6225 105.552C81.7511 102.529 81.944 99.5065 82.1369 96.484C82.2013 95.1334 82.4585 93.7829 81.944 92.4967C81.6225 92.3038 81.2366 92.2395 80.9151 92.2395C78.9858 92.1752 77.0565 92.3038 75.1272 92.0466C74.7413 91.9823 74.3555 92.0466 73.9696 92.2395C73.7767 92.4324 73.7124 92.6897 73.7124 92.9469C73.841 94.2331 76.0275 108.638 76.3491 111.018C76.4134 111.597 76.2848 111.918 76.0275 112.433C75.2558 113.719 74.3555 114.941 74.2912 116.549C74.1625 117.513 74.1625 118.542 74.2912 119.507C74.4198 122.594 75.1272 125.616 75.8989 128.575C75.9632 128.896 76.0275 129.153 75.8346 129.475C75.4487 130.118 75.3844 130.825 75.1915 131.533C75.0629 132.112 74.8699 132.626 74.2912 132.819C73.0693 133.205 71.9117 133.848 70.5612 133.784C69.9824 133.784 69.4679 134.105 69.0821 134.427C68.6319 134.813 68.439 135.391 68.6962 135.842C68.8891 136.227 69.3393 136.292 69.7895 136.292C69.9824 136.292 70.1753 136.292 70.3683 136.292C70.7541 136.292 71.2686 136.227 71.0114 136.999C70.8827 137.385 71.3329 137.321 71.5902 137.321C73.2622 137.321 74.9986 137.321 76.6706 137.321C76.9922 137.321 77.3137 137.192 77.571 136.935C78.7285 136.163 80.0147 135.584 80.9794 134.555C81.4295 132.948 81.944 131.276 82.1369 129.603C82.2013 129.025 82.2656 128.639 82.973 128.703C83.3588 128.767 83.4875 128.446 83.6161 128.06C84.0019 127.031 83.4231 126.259 82.9087 125.423Z" fill="#FEB679"/>
<path d="M63.3589 136.806C62.5229 135.649 61.8797 134.298 61.0437 133.076C60.5293 132.305 60.0791 131.533 59.5646 130.761C59.3717 130.504 59.2431 130.247 59.0501 129.989C55.9633 125.166 33.069 94.2975 32.2973 93.9116C32.2973 93.5257 32.1686 93.1399 32.4902 92.8826C32.8117 92.2395 32.6188 91.5321 32.4259 90.889C30.7538 90.8247 20.4 86.1301 20.0784 85.8729C18.7922 84.7153 13.6474 78.1557 13.4545 78.2843C13.0043 77.5769 12.8114 76.6766 12.104 76.1621C12.104 76.2907 12.104 76.4193 12.0397 76.4837C11.268 77.4483 7.40939 85.1012 7.21645 85.9372C6.63766 89.4742 6.12318 93.0113 5.93026 96.6126C5.80164 99.6995 5.67302 102.786 3.93665 105.552C3.74373 105.873 3.61511 106.259 3.48649 106.645C1.42858 111.147 -0.500717 115.713 -2.55862 120.214C-4.29499 124.137 -6.03136 128.06 -7.76772 131.983C-8.9896 134.748 -10.2115 137.514 -11.4334 140.279C-12.591 142.916 -13.6842 145.617 -14.8418 148.253C-15.6135 149.99 -16.7711 151.469 -18.6361 152.112C-19.9866 152.626 -21.4014 153.141 -22.7519 153.591C-26.0317 154.877 -29.3758 156.099 -32.3984 157.964C-33.6845 158.736 -34.7778 159.636 -35.8711 160.665C-36.064 160.858 -36.3856 161.051 -36.3856 161.437C-37.929 162.916 -39.4081 164.331 -40.9516 165.81V165.874C-42.1734 166.389 -43.0095 167.353 -43.7812 168.382C-43.7812 168.447 -43.7812 168.511 -43.8455 168.575C-45.3889 170.054 -46.9967 171.598 -48.5401 173.077C-48.6044 173.077 -48.6687 173.077 -48.733 173.077C-48.7973 173.077 -48.926 173.141 -48.9903 173.141C-49.4404 173.463 -49.8263 173.784 -49.9549 174.299C-50.9196 175.392 -52.0128 176.357 -53.1061 177.257C-53.1704 177.321 -53.2347 177.386 -53.2347 177.45C-53.5563 177.707 -53.8135 178.029 -54.1351 178.286C-54.1351 178.286 -54.1351 178.286 -54.1994 178.286C-54.3923 178.286 -54.5209 178.415 -54.6495 178.608C-54.7138 178.608 -54.7138 178.608 -54.7782 178.672C-54.9711 178.865 -55.2283 179.058 -55.4212 179.251C-55.4212 179.315 -55.4212 179.379 -55.4212 179.444C-55.9357 179.894 -56.4502 180.408 -57.029 180.858C-57.1576 180.923 -57.2862 181.051 -57.4148 181.116C-57.5435 181.244 -57.7364 181.373 -57.865 181.501C-57.9293 181.566 -57.9936 181.566 -58.0579 181.63C-58.4438 181.887 -59.4728 181.501 -59.0869 182.595C-59.4085 182.852 -59.7943 183.109 -60.0515 183.366C-62.1738 185.231 -64.4246 187.032 -66.6755 188.769C-67.7687 189.605 -69.5051 189.99 -69.6337 191.855C-70.4697 193.206 -70.5983 194.814 -70.9842 196.357C-71.0485 196.679 -70.9199 196.936 -70.534 197C-70.2768 197 -70.0839 196.936 -69.8909 196.807C-60.566 192.048 -51.1125 187.418 -41.8519 182.659C-41.466 182.466 -41.0159 182.338 -40.8229 181.887C-40.8229 181.887 -40.8229 181.887 -40.8229 181.823C-40.3728 181.566 -39.9226 181.373 -39.4724 181.116C-38.8936 180.794 -38.3148 180.537 -37.7361 180.215C-37.7361 180.215 -37.6718 180.28 -37.6718 180.344C-37.2859 180.408 -36.9643 180.215 -36.7714 179.894C-36.7714 179.829 -36.7714 179.829 -36.7071 179.765C-36.4499 179.637 -36.1926 179.508 -35.9354 179.379C-35.9354 179.379 -35.8711 179.379 -35.8711 179.444C-35.3566 179.444 -34.9064 179.251 -34.5849 178.736C-34.5849 178.736 -34.5849 178.736 -34.5849 178.672C-34.1347 178.479 -33.6845 178.222 -33.2344 178.029C-33.1701 178.029 -33.0415 178.029 -32.9771 178.029C-32.7199 178.029 -32.4627 177.9 -32.2054 177.772C-28.0253 175.649 -23.9095 173.463 -19.7293 171.341C-19.4721 171.212 -19.1505 171.019 -19.0862 170.633C-18.1216 170.119 -17.1569 169.604 -16.1923 169.09C-14.3273 168.061 -12.3337 167.16 -10.9189 165.488C-10.1472 164.91 -9.69701 164.138 -9.11822 163.43H-9.05391C-8.21788 162.98 -7.70341 162.273 -7.38186 161.373V161.308C-6.2886 160.086 -5.25964 158.736 -4.29499 157.45C-3.90913 157.514 -3.78051 157.192 -3.58759 156.935C2.07168 149.668 7.4737 142.273 12.8757 134.813C16.9915 129.153 21.0431 123.558 25.0946 117.899C25.6734 117.127 25.8663 117.063 26.638 117.706C27.474 118.349 28.1814 119.121 28.8888 119.957C30.4966 121.758 31.9757 123.687 33.6478 125.423C36.0915 127.996 38.9212 130.247 41.7508 132.433C43.7444 133.977 45.6737 135.52 47.1528 137.578C48.1818 138.928 47.9888 139.764 46.767 140.858C45.4808 141.887 44.066 142.851 42.8441 143.945C41.3649 145.231 39.8858 146.581 39.1141 148.446C38.0208 150.954 36.9919 153.591 36.0272 156.099C34.0336 161.18 31.9757 166.26 29.9178 171.276C27.2811 177.836 24.6444 184.395 22.072 190.955C21.6862 191.92 21.7505 191.984 22.7151 192.241C24.1942 192.306 25.7377 192.241 27.2811 192.241C27.667 192.241 28.0528 192.241 28.3744 191.984C29.0175 192.048 29.339 191.662 29.7249 191.148C35.3841 182.788 41.1077 174.427 46.767 166.067C49.4037 162.209 52.0404 158.414 54.7414 154.62C55.1915 154.106 55.706 153.72 56.0276 153.141C57.8282 150.44 59.7575 147.739 61.6868 145.102C62.4585 144.009 63.4232 142.98 63.7447 141.629C64.5808 139.893 64.5164 138.35 63.3589 136.806Z" fill="#2B384E"/>
<path d="M96.5429 57.3835C95.5783 56.869 94.485 56.5475 93.7133 55.7757C93.5203 55.1327 93.1345 54.6182 92.7486 54.0394C91.9769 52.9461 91.0123 52.1101 90.1119 51.0811C86.9608 48.1229 83.1665 46.1293 79.0506 44.9074C74.6776 43.6212 70.1759 42.9781 65.5456 43.0424C64.0022 42.9138 62.3944 43.1067 60.851 43.2353C58.8574 43.4283 56.7995 43.6855 54.8059 44.0071C50.6257 44.7145 46.5742 45.872 42.6513 47.3512C38.9214 48.766 35.4486 50.5667 32.1688 52.8175C29.6608 54.6182 27.217 56.4832 25.0304 58.734C21.3005 62.271 18.0207 66.3225 15.1911 70.567C14.8695 71.2101 14.4836 71.8532 14.0978 72.432C13.3904 73.5896 12.5544 74.6828 12.1042 75.969C12.5544 76.7407 18.3422 84.5222 20.0143 85.937C20.3358 86.2586 26.9597 89.7956 27.7958 90.0528C28.1173 90.1172 28.5032 90.3101 28.8247 90.3744C29.9823 90.6959 31.2042 91.0818 32.4904 90.8889C33.1335 90.1172 34.7412 82.9788 35.5773 82.0784C36.9278 80.6636 38.2139 79.1845 39.6931 77.8983C41.8153 76.1619 43.9375 74.3613 46.7028 73.7825C51.3331 72.7535 55.9634 71.5316 60.7224 71.0172C64.8382 70.6313 71.9766 71.7246 71.5907 71.6603C71.3978 71.6603 71.2692 71.6603 71.0762 71.6603C70.1759 71.6603 69.9187 71.9818 69.983 72.8821C70.0473 73.2037 70.1116 73.5252 70.1759 73.8468C70.4331 75.7118 70.9476 77.5768 70.9476 79.4417C70.9476 80.0848 71.1406 82.2714 71.1406 82.9145C71.0762 85.2296 71.0762 87.4805 71.1406 89.7956C71.1406 90.2458 70.9476 90.503 70.6261 90.7603C70.4975 91.0175 70.4975 91.339 70.4975 91.6606L85.353 93.2683C85.6746 90.4387 86.0604 87.6734 86.2533 84.8438C86.2533 84.5222 86.2533 84.2007 86.382 83.8791C87.4752 81.2424 88.3756 78.4771 89.5975 75.8404C90.4978 73.7825 91.5911 71.7889 92.3628 69.6667C92.4914 69.2808 92.5557 68.8949 92.7486 68.5091C94.0348 65.2293 95.2567 62.0138 96.4143 58.734C96.4786 58.4768 96.8645 57.9623 96.5429 57.3835Z" fill="#FCE587"/>
<path d="M85.9273 89.8069C85.9273 90.5143 86.6347 85.5625 86.3774 85.3053C84.3838 85.1123 81.6185 85.5625 79.6249 84.9837C77.3098 84.2763 74.9303 83.7618 72.6151 83.1187C71.8434 82.9258 71.136 82.9258 70.4286 83.4403C69.9784 83.8904 69.9784 84.3406 70.1071 84.9194C70.3643 85.9483 69.8498 87.1059 70.0427 88.1349C70.3 89.3568 70.6215 90.5786 70.8788 91.8005L85.1555 93.344C85.3485 91.9935 85.9273 91.0288 85.9273 89.8069Z" fill="#FDD36A"/>
</g>
<path d="M81.5042 21.8726V18.7998H57V33.1998H81.5042V30.3078H85.0734V21.8726H81.5042Z" fill="white"/>
<path fill-rule="evenodd" clip-rule="evenodd" d="M57 17H83.3709V20.4437H86.9449V31.7589H83.3709V35H57V17ZM58.8334 18.8621V33.1379H81.5375V29.8968H85.1116V22.3057H81.5375V18.8621H58.8334Z" fill="#231F20"/>
<path d="M60.821 25.757C60.821 24.5447 60.821 23.3324 60.821 22.1201C60.7431 21.1503 61.1325 20.5441 62.5341 20.6047C63.78 20.6047 64.5587 20.9078 64.4809 21.9989C64.4809 24.7265 64.403 27.4542 64.403 30.1818C64.403 31.0911 63.78 31.3941 62.6899 31.3941C61.4439 31.4548 60.7431 31.0911 60.7431 30C60.821 28.5453 60.821 27.1511 60.821 25.757Z" fill="#D12A2A"/>
</svg>
