<svg width="165" height="234" viewBox="0 0 165 234" fill="none" xmlns="http://www.w3.org/2000/svg">
<g clip-path="url(#clip0)">
<path d="M59.2845 6.47374C59.2845 6.47374 30.6302 10.1749 25.4263 46.1405C20.652 79.1656 44.3065 90.6604 46.2942 113.871C48.2818 137.082 24.8062 152.033 28.9507 188.393C33.0952 224.753 73.8098 234.513 101.688 221.421C129.574 208.331 159.978 169.905 152.168 107.711C144.881 49.7333 102.553 -4.60746 59.2845 6.47374Z" fill="#C34731"/>
<path d="M49.8094 69.4632L46.2516 70.8054C46.2516 70.8054 56.7403 83.6338 52.4728 86.3039C48.9785 88.4922 39.0971 87.9514 35.6351 87.6834C36.7288 89.5464 37.8249 91.384 38.8778 93.226C41.9262 93.3509 47.3187 93.104 54.9873 90.9788C67.5674 87.4801 49.8094 69.4632 49.8094 69.4632Z" fill="#BA271E"/>
<path d="M52.678 171.461C58.02 156.881 47.1838 131.996 44.8732 126.981C44.0237 129.932 42.8878 132.838 41.6124 135.773C53.5493 146.797 49.7122 173.135 49.7122 173.135L52.678 171.461Z" fill="#BA271E"/>
<path d="M60.3136 10.4217C60.3136 10.4217 33.9411 12.7165 28.9313 47.3812C24.332 79.2151 49.1797 91.897 51.0945 114.269C53.0094 136.642 28.7525 152.776 32.3876 186.182C36.1946 221.258 73.8749 229.952 100.709 217.222C126.272 205.087 154.657 164.64 147.988 108.505C141.883 57.1374 102.022 -0.262755 60.3136 10.4217Z" fill="#E88468"/>
<path d="M52.473 86.3047C49.9438 87.8841 44.0642 88.0409 39.6924 87.8986C40.7781 89.6667 41.8663 91.4092 42.9207 93.1485C45.9672 92.9391 49.9905 92.3533 54.9799 90.9703C67.5676 87.4809 49.8012 69.4631 49.8012 69.4631L46.2434 70.8054C46.2519 70.8062 56.7406 83.6346 52.473 86.3047Z" fill="#DC6D52"/>
<path d="M52.6774 171.461C56.8354 160.108 51.1921 142.523 47.4019 132.917C46.5268 134.983 45.5477 137.064 44.5152 139.166C52.8711 151.419 49.7116 173.135 49.7116 173.135L52.6774 171.461Z" fill="#DC6D52"/>
<path d="M53.7282 12.1298C53.7105 12.1366 53.6842 12.1426 53.6657 12.158C56.1819 25.7452 60.5015 48.1801 60.5015 48.1801C59.9403 40.1902 55.1144 18.306 53.7282 12.1298Z" fill="#D95F45"/>
<path d="M50.1273 13.7415C50.0918 13.7552 50.064 13.7782 50.0284 13.7918C52.8791 27.3688 57.6717 48.6241 57.6717 48.6241C56.9622 40.8427 51.8547 20.4565 50.1273 13.7415Z" fill="#D95F45"/>
<path d="M45.4893 16.6158C45.4614 16.6388 45.4336 16.6618 45.4065 16.6763C49.2902 30.0023 54.4813 48.3742 54.4813 48.3742C53.1638 41.1335 47.8957 24.1766 45.4893 16.6158Z" fill="#D95F45"/>
<path d="M41.7667 19.7506C41.738 19.7821 41.7101 19.8051 41.6814 19.8366C45.8596 32.857 51.1403 49.7723 51.1403 49.7723C49.6255 42.5381 44.2393 26.8037 41.7667 19.7506Z" fill="#D95F45"/>
<path d="M38.4353 23.4369C38.4058 23.4769 38.367 23.5246 38.3375 23.5645C43.0168 35.9995 48.3475 50.4517 48.3475 50.4517C46.5341 43.5655 41.2076 30.2192 38.4353 23.4369Z" fill="#D95F45"/>
<path d="M35.3676 27.9373C35.317 28.0181 35.275 28.0997 35.2244 28.1805C40.5826 39.4303 46.0827 51.1567 46.0827 51.1567C43.9804 45.3137 38.8899 34.9211 35.3676 27.9373Z" fill="#D95F45"/>
<path d="M32.9265 32.7558C32.8727 32.8706 32.8273 32.9861 32.7819 33.1017C38.481 42.8593 43.805 52.0749 43.805 52.0749C41.5507 47.1854 36.8297 39.1596 32.9265 32.7558Z" fill="#D95F45"/>
<path d="M31.441 36.631C31.3932 36.772 31.3453 36.913 31.2975 37.0541C36.7945 45.5409 41.5653 52.9631 41.5653 52.9631C39.3961 48.7846 35.2498 42.3315 31.441 36.631Z" fill="#D95F45"/>
<path d="M30.3414 40.3111C30.3004 40.47 30.2594 40.6288 30.2184 40.7876C35.5396 48.2633 39.9316 54.4747 39.9316 54.4747C37.8156 50.8069 34.0314 45.3831 30.3414 40.3111Z" fill="#D95F45"/>
<path d="M29.3016 45.052C29.2683 45.2201 29.2434 45.3891 29.21 45.5572C34.4809 51.7855 38.6141 56.6948 38.6141 56.6948C36.4761 53.6077 32.9196 49.2771 29.3016 45.052Z" fill="#D95F45"/>
<path d="M28.693 49.2264C28.6758 49.4047 28.6509 49.5737 28.6337 49.7519C33.4345 54.8291 37.0157 58.6393 37.0157 58.6393C35.0233 56.0804 31.9497 52.6794 28.693 49.2264Z" fill="#D95F45"/>
<path d="M28.3955 53.0967C28.3867 53.2758 28.3856 53.4642 28.3769 53.6433C32.703 57.9716 35.796 61.083 35.796 61.083C33.9834 58.8759 31.3001 56.0356 28.3955 53.0967Z" fill="#D95F45"/>
<path d="M88.1159 221.473C88.1599 221.46 88.2115 221.457 88.2555 221.444C85.6188 209.722 82.6182 195.839 82.6182 195.839C83.2369 202.437 86.4824 215.29 88.1159 221.473Z" fill="#D95F45"/>
<path d="M91.8565 220.543C91.9005 220.53 91.936 220.516 91.98 220.504C89.0198 208.767 85.5747 194.618 85.5747 194.618C86.3759 201.363 90.1154 214.589 91.8565 220.543Z" fill="#D95F45"/>
<path d="M97.5856 218.581C97.6304 218.559 97.6752 218.538 97.7277 218.526C93.6454 207.254 88.9541 193.97 88.9541 193.97C90.3851 200.39 95.1713 212.604 97.5856 218.581Z" fill="#D95F45"/>
<path d="M102.11 216.527C102.146 216.505 102.191 216.483 102.226 216.47C97.7218 205.234 92.4312 191.694 92.4312 191.694C94.1225 198.252 99.5736 210.839 102.11 216.527Z" fill="#D95F45"/>
<path d="M106.381 214.079C106.426 214.058 106.463 214.027 106.508 214.006C101.343 203.143 95.3486 190.255 95.3486 190.255C97.4143 196.566 103.425 208.41 106.381 214.079Z" fill="#D95F45"/>
<path d="M110.954 210.908C110.999 210.878 111.046 210.84 111.083 210.809C104.837 200.69 97.7065 188.942 97.7065 188.942C100.372 194.797 107.287 205.419 110.954 210.908Z" fill="#D95F45"/>
<path d="M115.317 207.331C115.364 207.292 115.411 207.246 115.458 207.207C108.215 197.942 100.103 187.41 100.103 187.41C103.294 192.776 110.971 202.152 115.317 207.331Z" fill="#D95F45"/>
<path d="M118.42 204.419C118.467 204.372 118.524 204.318 118.571 204.271C110.879 195.588 102.444 185.924 102.444 185.924C105.85 190.925 113.703 199.444 118.42 204.419Z" fill="#D95F45"/>
<path d="M121.185 201.551C121.233 201.496 121.281 201.449 121.329 201.394C113.131 193.167 104.135 183.997 104.135 183.997C107.833 188.804 116.185 196.857 121.185 201.551Z" fill="#D95F45"/>
<path d="M124.776 197.393C124.815 197.345 124.853 197.297 124.893 197.241C115.732 189.872 105.473 181.471 105.473 181.471C109.8 185.97 119.356 193.327 124.776 197.393Z" fill="#D95F45"/>
<path d="M127.619 193.718C127.658 193.67 127.689 193.613 127.728 193.566C118.042 186.84 107.134 179.146 107.134 179.146C111.789 183.344 121.937 190.063 127.619 193.718Z" fill="#D95F45"/>
<path d="M129.857 190.552C129.887 190.503 129.918 190.455 129.947 190.415C119.91 183.971 108.379 176.44 108.379 176.44C113.313 180.579 124.148 187.177 129.857 190.552Z" fill="#D95F45"/>
<path d="M34.3673 195.501C34.4203 195.661 34.4741 195.811 34.5271 195.971C38.4497 190.148 41.5607 185.557 41.5607 185.557C39.574 187.892 36.9278 191.654 34.3673 195.501Z" fill="#D95F45"/>
<path d="M35.688 198.998C35.7434 199.132 35.8065 199.275 35.8704 199.41C40.2117 192.616 43.8816 186.932 43.8816 186.932C41.6388 189.704 38.5307 194.441 35.688 198.998Z" fill="#D95F45"/>
<path d="M38.0359 203.536C38.1014 203.654 38.1763 203.764 38.2426 203.873C42.368 195.953 46.0525 188.968 46.0525 188.968C43.8039 192.331 40.7036 198.225 38.0359 203.536Z" fill="#D95F45"/>
<path d="M40.6238 207.275C40.6927 207.359 40.7615 207.443 40.8219 207.526C45.1675 198.565 49.352 190.034 49.352 190.034C46.8749 193.992 43.3438 201.335 40.6238 207.275Z" fill="#D95F45"/>
<path d="M43.4224 210.427C43.4844 210.493 43.5549 210.56 43.6169 210.626C47.6927 200.919 51.8178 191.233 51.8178 191.233C49.3625 195.674 45.8949 204.129 43.4224 210.427Z" fill="#D95F45"/>
<path d="M46.8947 213.507C46.9583 213.556 47.022 213.605 47.0771 213.653C50.3868 203.117 53.9049 192.105 53.9049 192.105C51.7164 197.145 48.7828 206.886 46.8947 213.507Z" fill="#D95F45"/>
<path d="M50.8948 216.252C50.9516 216.283 51.0084 216.315 51.0644 216.354C53.4568 205.138 56.1582 192.847 56.1582 192.847C54.3153 198.469 52.135 209.526 50.8948 216.252Z" fill="#D95F45"/>
<path d="M54.193 218.038C54.2422 218.06 54.2906 218.09 54.3397 218.112C56.1808 206.585 58.3433 193.59 58.3433 193.59C56.7333 199.544 55.06 211.369 54.193 218.038Z" fill="#D95F45"/>
<path d="M57.45 219.451C57.4915 219.464 57.5237 219.484 57.5653 219.497C58.8591 207.617 60.491 193.567 60.491 193.567C59.0823 200.003 57.9429 213.115 57.45 219.451Z" fill="#D95F45"/>
<path d="M62.266 221.017C62.2829 221.019 62.2991 221.029 62.316 221.031C62.5021 208.76 62.8736 192.891 62.8736 192.891C61.9404 200.333 62.171 216.252 62.266 221.017Z" fill="#D95F45"/>
<path d="M66.425 221.943C66.4589 221.947 66.5004 221.959 66.5343 221.963C65.9674 209.61 65.272 192.575 65.272 192.575C64.8372 199.371 65.9104 215.063 66.425 221.943Z" fill="#D95F45"/>
<path d="M70.1949 222.473C70.2373 222.477 70.2881 222.482 70.3304 222.486C69.3246 209.988 67.7168 191.69 67.7168 191.69C67.4763 198.6 69.3624 215.434 70.1949 222.473Z" fill="#D95F45"/>
<path d="M148.598 134.822C148.61 134.703 148.613 134.584 148.624 134.465C139.56 132.546 131.797 130.874 131.797 130.874C135.811 132.156 142.458 133.608 148.598 134.822Z" fill="#D95F45"/>
<path d="M148.789 131.781C148.792 131.661 148.804 131.542 148.807 131.423C139.741 129.701 132.004 128.194 132.004 128.194C136.036 129.384 142.655 130.687 148.789 131.781Z" fill="#D95F45"/>
<path d="M148.94 127.571C148.943 127.451 148.947 127.323 148.95 127.203C140.22 126.243 132.973 125.427 132.973 125.427C136.861 126.233 143.038 126.98 148.94 127.571Z" fill="#D95F45"/>
<path d="M148.964 123.699C148.967 123.58 148.961 123.459 148.956 123.339C139.959 122.584 132.397 121.926 132.397 121.926C136.437 122.662 142.894 123.264 148.964 123.699Z" fill="#D95F45"/>
<path d="M148.88 120.143C148.875 120.023 148.869 119.902 148.864 119.782C139.892 119.475 132.379 119.191 132.379 119.191C136.432 119.713 142.842 119.994 148.88 120.143Z" fill="#D95F45"/>
<path d="M148.699 116.45C148.693 116.329 148.679 116.208 148.674 116.087C139.73 116.547 132.215 116.905 132.215 116.905C136.309 117.089 142.696 116.818 148.699 116.45Z" fill="#D95F45"/>
<path d="M148.405 112.59C148.391 112.468 148.386 112.348 148.372 112.227C139.428 113.482 131.857 114.512 131.857 114.512C136.002 114.349 142.427 113.5 148.405 112.59Z" fill="#D95F45"/>
<path d="M148.087 109.423C148.073 109.302 148.059 109.18 148.045 109.059C139.127 110.763 131.518 112.182 131.518 112.182C135.682 111.816 142.131 110.635 148.087 109.423Z" fill="#D95F45"/>
<path d="M147.711 106.412C147.697 106.291 147.683 106.178 147.66 106.056C138.479 108.266 130.447 110.176 130.447 110.176C134.804 109.579 141.619 107.971 147.711 106.412Z" fill="#D95F45"/>
<path d="M147.085 102.282C147.07 102.169 147.046 102.064 147.032 101.951C137.484 105.204 128.64 108.175 128.64 108.175C133.325 107.105 140.84 104.537 147.085 102.282Z" fill="#D95F45"/>
<path d="M146.382 98.4943C146.358 98.3976 146.342 98.2933 146.326 98.1974C136.594 102.204 127.154 106.034 127.154 106.034C132.081 104.585 140.134 101.229 146.382 98.4943Z" fill="#D95F45"/>
<path d="M145.673 95.1342C145.655 95.0469 145.637 94.968 145.612 94.8798C135.494 99.432 125.099 104.034 125.099 104.034C130.429 102.307 139.388 98.1566 145.673 95.1342Z" fill="#D95F45"/>
<path d="M143.406 86.3959C143.367 86.2721 143.328 86.1398 143.297 86.0168C134.56 88.4923 127.172 90.5505 127.172 90.5505C131.214 89.8637 137.535 88.1388 143.406 86.3959Z" fill="#D95F45"/>
<path d="M142.447 83.2262C142.408 83.1024 142.368 82.9786 142.33 82.8463C133.546 85.5401 126.078 87.8047 126.078 87.8047C130.162 87.0278 136.545 85.1204 142.447 83.2262Z" fill="#D95F45"/>
<path d="M140.996 78.8688C140.948 78.7442 140.909 78.6204 140.862 78.4873C132.553 81.8442 125.609 84.614 125.609 84.614C129.494 83.5092 135.42 81.1889 140.996 78.8688Z" fill="#D95F45"/>
<path d="M139.542 74.8972C139.495 74.7726 139.446 74.6564 139.407 74.5326C130.811 78.2901 123.442 81.4728 123.442 81.4728C127.507 80.1884 133.785 77.4996 139.542 74.8972Z" fill="#D95F45"/>
<path d="M138.092 71.2423C138.043 71.1261 137.995 71.0015 137.947 70.8854C129.447 75.1493 122.119 78.7901 122.119 78.7901C126.174 77.2647 132.421 74.1873 138.092 71.2423Z" fill="#D95F45"/>
<path d="M136.452 67.4158C136.404 67.2996 136.347 67.1827 136.298 67.0666C128.066 72.1962 120.883 76.631 120.883 76.631C124.884 74.6891 130.992 70.9297 136.452 67.4158Z" fill="#D95F45"/>
<path d="M134.608 63.4233C134.551 63.3063 134.501 63.1987 134.444 63.0817C126.498 69.139 119.425 74.4756 119.425 74.4756C123.376 72.0747 129.371 67.5416 134.608 63.4233Z" fill="#D95F45"/>
<path d="M133.007 60.1732C132.949 60.0647 132.891 59.9563 132.842 59.8402C125.058 66.4359 118.023 72.3504 118.023 72.3504C121.94 69.6805 127.907 64.6476 133.007 60.1732Z" fill="#D95F45"/>
<path d="M131.389 57.0945C131.331 56.9945 131.281 56.8869 131.222 56.7869C123.428 64.1015 116.112 70.897 116.112 70.897C120.151 67.8448 126.349 62.0118 131.389 57.0945Z" fill="#D95F45"/>
<path d="M128.99 52.8245C128.939 52.7338 128.887 52.6517 128.835 52.5695C121.23 61.205 113.548 69.8331 113.548 69.8331C117.731 66.0065 124.274 58.4503 128.99 52.8245Z" fill="#D95F45"/>
<path d="M126.668 48.9823C126.624 48.9095 126.579 48.8451 126.535 48.7722C119.159 58.3042 111.213 68.4319 111.213 68.4319C115.515 63.9913 122.332 54.9278 126.668 48.9823Z" fill="#D95F45"/>
<path d="M124.533 45.6901C124.503 45.6444 124.466 45.5893 124.436 45.5436C117.054 55.7604 108.449 67.4866 108.449 67.4866C113.07 62.4 120.603 51.5037 124.533 45.6901Z" fill="#D95F45"/>
<path d="M116.704 35.2371C116.635 35.1533 116.567 35.0695 116.497 34.9941C108.707 44.8286 100.988 54.4642 100.988 54.4642C105.141 50.232 111.775 41.742 116.704 35.2371Z" fill="#D95F45"/>
<path d="M114.258 32.4194C114.188 32.3441 114.119 32.2687 114.049 32.1934C106.328 42.3773 98.5712 52.4892 98.5712 52.4892C102.753 48.0541 109.422 39.1132 114.258 32.4194Z" fill="#D95F45"/>
<path d="M110.471 28.4352C110.402 28.3599 110.323 28.2923 110.253 28.2169C103.333 39.0443 96.4647 49.6967 96.4647 49.6967C100.262 44.9071 106.133 35.5545 110.471 28.4352Z" fill="#D95F45"/>
<path d="M107.033 25.1788C106.963 25.1119 106.892 25.0536 106.821 24.9868C99.9557 36.4022 92.9019 47.9964 92.9019 47.9964C96.7775 42.8373 102.833 32.5514 107.033 25.1788Z" fill="#D95F45"/>
<path d="M103.581 22.2463C103.51 22.1879 103.439 22.1296 103.367 22.0797C96.9641 34.0115 90.3272 46.246 90.3272 46.246C94.0137 40.743 99.7057 29.8819 103.581 22.2463Z" fill="#D95F45"/>
<path d="M99.5646 19.2252C99.4925 19.1753 99.4204 19.1254 99.3482 19.0756C93.8743 31.7489 88.097 44.9068 88.097 44.9068C91.4104 38.9304 96.3192 27.2391 99.5646 19.2252Z" fill="#D95F45"/>
<path d="M95.1957 16.4008C95.1227 16.3594 95.0583 16.3188 94.9853 16.2775C90.5158 29.614 85.6889 43.7299 85.6889 43.7299C88.5792 37.2667 92.6251 24.686 95.1957 16.4008Z" fill="#D95F45"/>
<path d="M91.656 14.4629C91.5907 14.4309 91.5169 14.398 91.444 14.3566C87.5706 27.9825 83.3318 42.5583 83.3318 42.5583C85.9631 35.8558 89.4861 22.8471 91.656 14.4629Z" fill="#D95F45"/>
<path d="M88.1857 12.8667C88.1195 12.8431 88.0627 12.8119 87.9966 12.7883C84.6706 26.853 80.8978 42.3568 80.8978 42.3568C83.3322 35.2152 86.4281 21.2309 88.1857 12.8667Z" fill="#D95F45"/>
<path d="M83.1388 11.0386C83.0888 11.0251 83.0473 11.0125 82.9973 10.9991C80.7993 25.6876 78.1163 42.917 78.1163 42.917C80.0978 34.9772 82.1725 18.9999 83.1388 11.0386Z" fill="#D95F45"/>
<path d="M75.3355 43.0318C76.9726 34.5873 78.1882 17.3267 78.6558 9.92529C78.622 9.922 78.5804 9.90939 78.5466 9.9061C77.1629 24.8366 75.3355 43.0318 75.3355 43.0318Z" fill="#D95F45"/>
<path d="M74.8553 9.35913C74.8299 9.35666 74.813 9.35501 74.7876 9.35254C73.8195 24.4949 72.4274 43.8464 72.4274 43.8464C73.938 34.764 74.6501 15.6377 74.8553 9.35913Z" fill="#D95F45"/>
<path d="M134.68 182.664C134.71 182.616 134.732 182.567 134.763 182.518C125.224 175.601 114.593 167.78 114.593 167.78C119.056 171.848 128.994 178.787 134.68 182.664Z" fill="#D95F45"/>
<path d="M136.204 179.806C136.236 179.749 136.258 179.691 136.289 179.634C126.724 172.997 116.333 165.705 116.333 165.705C120.748 169.554 130.318 175.968 136.204 179.806Z" fill="#D95F45"/>
<path d="M138.298 175.484C138.331 175.41 138.364 175.336 138.396 175.262C128.665 169.637 118.793 163.861 118.793 163.861C123.186 167.056 131.989 172.034 138.298 175.484Z" fill="#D95F45"/>
<path d="M139.891 171.834C139.923 171.76 139.956 171.686 139.99 171.603C130.162 166.26 120.3 160.837 120.3 160.837C124.733 163.882 133.49 168.538 139.891 171.834Z" fill="#D95F45"/>
<path d="M141.281 168.327C141.315 168.245 141.34 168.162 141.374 168.079C131.489 163.322 121.864 158.633 121.864 158.633C126.303 161.344 134.764 165.354 141.281 168.327Z" fill="#D95F45"/>
<path d="M142.628 164.567C142.654 164.475 142.687 164.393 142.713 164.301C132.622 160.449 123.038 156.741 123.038 156.741C127.59 159 135.928 162.151 142.628 164.567Z" fill="#D95F45"/>
<path d="M143.844 160.744C143.87 160.653 143.896 160.561 143.922 160.469C133.668 157.501 124.091 154.693 124.091 154.693C128.744 156.525 137.021 158.898 143.844 160.744Z" fill="#D95F45"/>
<path d="M144.698 157.742C144.724 157.65 144.751 157.55 144.777 157.458C134.559 154.999 125.13 152.694 125.13 152.694C129.782 154.278 137.886 156.223 144.698 157.742Z" fill="#D95F45"/>
<path d="M145.425 154.909C145.451 154.817 145.47 154.716 145.495 154.624C135.057 152.589 125.337 150.649 125.337 150.649C130.142 152.06 138.5 153.678 145.425 154.909Z" fill="#D95F45"/>
<path d="M146.302 151.051C146.32 150.959 146.336 150.875 146.362 150.783C135.402 149.554 124.868 148.333 124.868 148.333C130.039 149.402 139.126 150.388 146.302 151.051Z" fill="#D95F45"/>
<path d="M146.975 147.628C146.992 147.544 147.009 147.46 147.018 147.367C135.788 146.712 124.775 146.027 124.775 146.027C130.176 146.844 139.702 147.35 146.975 147.628Z" fill="#D95F45"/>
<path d="M147.471 144.627C147.487 144.551 147.494 144.475 147.511 144.39C135.902 144.033 124.085 143.613 124.085 143.613C129.812 144.333 140.108 144.562 147.471 144.627Z" fill="#D95F45"/>
<path d="M9.60675 125.061C10.1194 124.357 11.008 123.123 11.546 122.687C30.298 107.432 40.1416 126.401 44.7603 133.098C44.7603 133.098 56.834 150.399 50.8676 170.111L66.1511 174.108C66.1511 174.108 65.8869 162.428 66.3885 158.655C66.8695 155.094 68.1055 152.832 70.6322 157.911C73.1095 162.882 76.4269 173.753 76.4269 173.753L92.422 164.022C92.422 164.022 83.6223 155.3 81.309 149.428C81.309 149.428 80.482 145.868 82.595 145.765C85.8076 145.606 100.537 155.068 100.537 155.068L106.88 140.303C106.88 140.303 92.4425 135.78 88.6048 130.025C88.6048 130.025 87.662 127.662 90.465 126.435C94.2226 124.795 109.775 126.719 109.775 126.719L111.3 110.062C111.3 110.062 103.055 111.6 92.1194 109.234C86.3498 107.988 91.5015 104.307 91.5015 104.307C96.3602 100.297 108.55 96.2381 108.55 96.2381L99.0807 80.1153C99.0807 80.1153 93.2412 88.9654 86.3859 89.3101C82.7695 89.4898 82.1391 86.5492 83.0264 82.942C84.3661 77.485 89.1418 70.7081 89.1418 70.7081L72.7093 65.8627C72.7093 65.8627 72.9865 72.6338 71.5971 78.1631C70.2929 83.3408 67.3104 79.2631 67.3104 79.2631C63.3548 72.0744 62.8734 64.4094 62.8734 64.4094L48.616 72.8781C48.616 72.8781 53.3851 76.1611 56.6454 83.0251C61.3756 92.9885 40.025 91.5297 40.025 91.5297C24.1171 92.6653 17.9146 94.3932 12.1246 98.3978" fill="#FAB487"/>
<path d="M10.9617 110.428C15.9512 110.193 23.132 108.869 26.6682 107.396C26.6682 107.396 40.3 109.201 51.4564 131.658C51.4564 131.658 47.0615 113.098 35.3722 104.995C35.3722 104.995 50.1225 112.916 54.1491 117.6C58.1673 122.284 62.5546 131.109 61.8401 137.527C61.8401 137.527 65.4527 122.796 54.2226 111.977C48.2793 106.249 45.3492 104.105 43.9008 103.347C48.4566 104.15 63.4056 107.009 77.1555 112.013C77.1555 112.013 58.3696 99.5008 40.8467 96.6489C34.1132 95.5572 27.7874 94.5822 22.5442 93.8154C18.1397 94.8954 15.0843 96.3465 12.1255 98.3897" fill="#F7965B"/>
<path d="M48.9014 73.1116C48.9014 73.1116 36.8077 68.131 33.2208 59.9584C29.634 51.7858 45.0064 34.4362 59.5192 43.0455C59.5192 43.0455 65.4871 46.3079 62.8764 64.4698C62.8764 64.4698 62.1766 71.0002 57.9182 73.3113C53.4526 75.7307 48.9014 73.1116 48.9014 73.1116Z" fill="#DB5442"/>
<path d="M71.883 64.1545C71.883 64.1545 67.172 53.0189 69.4916 44.5893C72.5614 33.439 82.8568 35.3569 91.8474 39.1875C101.289 43.2161 107.723 52.6253 103.449 58.3627C97.181 66.7854 87.1095 71.9248 87.1095 71.9248C87.1095 71.9248 82.233 74.2615 77.9194 72.3681C73.4982 70.4386 71.883 64.1545 71.883 64.1545Z" fill="#DB5442"/>
<path d="M97.7771 81.8395C97.7771 81.8395 101.983 66.9863 108.869 61.6315C117.984 54.5395 124.604 64.1467 128.609 74.0054C132.297 83.079 133.365 95.0172 126.346 96.3571C115.119 98.4964 107.61 96.3266 107.61 96.3266C107.61 96.3266 101.989 95.0432 99.4124 91.0992C96.3679 86.4243 97.7771 81.8395 97.7771 81.8395Z" fill="#DB5442"/>
<path d="M107.355 111.341C107.355 111.341 115.155 103.967 123.496 101.427C134.533 98.0614 136.804 105.78 137.626 116.649C138.356 126.421 134.9 136.351 127.772 135.804C117.318 135.002 108.946 128.395 108.946 128.395C108.946 128.395 104.369 125.516 103.658 120.845C102.922 116.077 107.355 111.341 107.355 111.341Z" fill="#DB5442"/>
<path d="M50.8684 170.103C50.8684 170.103 55.6633 166.576 60.0234 168.165C65.4651 170.151 66.1519 174.1 66.1519 174.1C66.1519 174.1 72.3389 189.775 70.7024 196.18C69.0658 202.585 61.3613 204.021 52.942 202.328C44.5227 200.636 35.796 192.838 38.477 186.063C40.0944 181.978 43.852 176.182 50.8684 170.103Z" fill="#DB5442"/>
<path d="M75.5802 172.874C75.5802 172.874 74.4755 185.715 77.5158 193.44C80.5467 201.173 93.9384 196.177 99.7538 192.44C104.029 189.694 111.849 181.662 108.818 173.929C105.787 166.196 91.5846 163.136 91.5846 163.136C91.5846 163.136 84.2589 161.626 79.7487 164.684C76.3369 166.992 75.5802 172.874 75.5802 172.874Z" fill="#DB5442"/>
<path d="M99.3052 154.28C99.3052 154.28 106.158 169.874 114.012 171.4C121.867 172.918 127.433 162.122 128.947 158.755C131.045 154.118 133.138 141.938 126.704 139.333C120.271 136.728 105.015 140.404 105.015 140.404C105.015 140.404 100.999 141.539 99.3056 145.522C97.7235 149.241 99.3052 154.28 99.3052 154.28Z" fill="#DB5442"/>
<path d="M73.846 67.3704C73.846 67.3704 72.0097 51.8783 73.4749 38.1383C73.1429 38.3888 72.8254 38.6664 72.5131 38.9788C72.0122 43.5405 71.3039 53.0779 73.846 67.3704Z" fill="#CB392F"/>
<path d="M75.1072 66.353C75.1072 66.353 75.1769 49.8037 77.384 36.4357C77.0963 36.4934 76.8078 36.5596 76.5261 36.6437C75.8549 40.5803 74.083 53.425 75.1072 66.353Z" fill="#CB392F"/>
<path d="M76.7077 68.1027C76.7077 68.1027 78.7588 50.2464 81.4619 36.2582C81.1316 36.2261 80.7997 36.211 80.4762 36.1967C79.6298 40.1763 76.554 56.6048 76.7077 68.1027Z" fill="#CB392F"/>
<path d="M84.5763 36.758C84.3086 36.6977 84.0324 36.6366 83.7639 36.5848C82.9231 39.6223 79.9118 51.9352 77.7444 70.5515C77.7444 70.5515 81.8354 50.254 84.5763 36.758Z" fill="#CB392F"/>
<path d="M87.6243 37.5941C87.3505 37.5075 87.0853 37.4218 86.8107 37.3436C85.7737 40.7306 82.8249 51.6013 78.9987 69.6021C79.0072 69.603 84.0421 51.4797 87.6243 37.5941Z" fill="#CB392F"/>
<path d="M104.748 53.3297C104.709 52.9403 104.635 52.5476 104.545 52.1532C96.3219 62.4939 85.5469 71.5497 85.5469 71.5497C95.7261 63.9699 101.6 57.3256 104.748 53.3297Z" fill="#CB392F"/>
<path d="M102.928 48.3712C102.773 48.1162 102.609 47.8688 102.445 47.613C95.2669 58.818 84.9472 70.5917 84.9472 70.5917C93.5174 62.3242 100.268 52.5345 102.928 48.3712Z" fill="#CB392F"/>
<path d="M100.406 45.1009C100.173 44.8554 99.9231 44.6084 99.6735 44.3613C92.6527 56.4985 83.1299 70.5521 83.1299 70.5521C90.0706 62.6917 97.6526 49.9663 100.406 45.1009Z" fill="#CB392F"/>
<path d="M97.8528 42.7707C97.6228 42.5855 97.3835 42.408 97.1442 42.2305C90.4914 54.275 80.7701 71.797 80.7701 71.797C90.4533 57.322 96.0464 46.5113 97.8528 42.7707Z" fill="#CB392F"/>
<path d="M94.5785 40.558C94.3274 40.4136 94.0755 40.2777 93.8237 40.1418C87.8639 53.1535 80.4053 70.2614 80.4053 70.2614C88.5853 54.2691 93.1262 44.0845 94.5785 40.558Z" fill="#CB392F"/>
<path d="M90.6716 38.7051C90.408 38.6023 90.1528 38.5004 89.8892 38.3976C88.6598 42.0058 85.251 52.5062 79.9024 69.6306C79.9024 69.6306 86.528 52.2961 90.6716 38.7051Z" fill="#CB392F"/>
<path d="M116.369 59.3106C116.025 59.2429 115.669 59.2083 115.312 59.1907C112.787 61.876 105.774 69.2409 98.5185 83.9862C98.5269 83.987 106.681 69.5862 116.369 59.3106Z" fill="#CB392F"/>
<path d="M119.95 60.9099C119.726 60.751 119.493 60.5913 119.267 60.4579C116.944 62.6401 107.323 72.3222 100.15 83.9133C100.141 83.9125 110.179 70.3718 119.95 60.9099Z" fill="#CB392F"/>
<path d="M122.837 63.675C122.622 63.4227 122.407 63.1705 122.19 62.9352C118.989 65.8032 107.004 77.0379 100.4 86.2764C100.391 86.2756 112.434 73.3068 122.837 63.675Z" fill="#CB392F"/>
<path d="M99.7823 88.8645C99.7823 88.8645 114.517 75.4633 124.701 66.2387C124.537 65.9914 124.381 65.7449 124.216 65.506C121.1 68.0224 111.791 75.9781 99.7823 88.8645Z" fill="#CB392F"/>
<path d="M101.357 88.8459C101.357 88.8459 115.316 77.8973 126.283 68.9716C126.139 68.7005 126.001 68.4386 125.847 68.1752C122.329 70.8753 113.9 77.6826 101.357 88.8459Z" fill="#CB392F"/>
<path d="M105.48 94.3032C117.641 94.2516 126.099 92.5459 131.1 91.2154C131.182 90.8977 131.248 90.5699 131.298 90.232C118.82 93.4664 105.48 94.3032 105.48 94.3032Z" fill="#CB392F"/>
<path d="M131.503 86.6015C131.497 86.3181 131.481 86.0338 131.458 85.7402C119.415 90.1394 105.555 93.1709 105.555 93.1709C116.102 91.7797 126.186 88.544 131.503 86.6015Z" fill="#CB392F"/>
<path d="M131.102 82.7065C131.041 82.3664 130.98 82.0177 130.919 81.6776C118.489 86.9819 104.123 92.0636 104.123 92.0636C113.229 90.1039 125.025 85.3464 131.102 82.7065Z" fill="#CB392F"/>
<path d="M130.423 79.4692C130.342 79.1529 130.254 78.8272 130.165 78.5101C117.836 84.1841 101.494 91.6703 101.494 91.6703C115.526 86.5988 125.543 81.9256 130.423 79.4692Z" fill="#CB392F"/>
<path d="M129.292 75.7771C129.192 75.4846 129.084 75.1913 128.975 74.9064C116.776 81.7072 102.105 90.2127 102.105 90.2127C115.848 83.348 124.926 78.3176 129.292 75.7771Z" fill="#CB392F"/>
<path d="M127.712 71.8786C127.592 71.6099 127.465 71.3319 127.337 71.0624C123.419 73.8349 114.911 79.9576 102.064 89.3947C102.064 89.4032 116.485 80.1277 127.712 71.8786Z" fill="#CB392F"/>
<path d="M65.3257 172.742C65.3257 172.742 68.6119 186.147 69.1928 199.238C69.5133 198.84 69.7948 198.405 70.0372 197.932C69.7868 192.74 68.8583 184.217 65.3257 172.742Z" fill="#CB392F"/>
<path d="M65.6595 201.825C65.9445 201.707 66.2227 201.572 66.4839 201.434C66.5985 196.004 66.4274 184.864 64.1943 173.918C64.1952 173.909 65.9591 188.735 65.6595 201.825Z" fill="#CB392F"/>
<path d="M61.6809 202.836C62.0271 202.792 62.3648 202.748 62.6956 202.686C63.1128 196.779 63.7762 182.49 62.4033 172.373C62.4033 172.373 62.5292 188.933 61.6809 202.836Z" fill="#CB392F"/>
<path d="M61.0708 170.066C61.0708 170.066 59.6055 189.291 58.5389 202.975C58.8463 202.98 59.1536 202.984 59.4533 202.979C60.0367 198.271 61.1702 186.547 61.0708 170.066Z" fill="#CB392F"/>
<path d="M59.9383 171.165C59.9383 171.165 57.3104 188.708 55.4584 202.736C55.754 202.773 56.0496 202.811 56.346 202.84C57.0654 198.316 58.4993 187.641 59.9383 171.165Z" fill="#CB392F"/>
<path d="M38.0286 187.87C37.9668 188.421 37.9727 188.979 38.0387 189.534C44.7751 179.1 53.2082 170.039 53.2082 170.039C45.6644 177.241 40.9336 183.465 38.0286 187.87Z" fill="#CB392F"/>
<path d="M39.5609 193.589C39.7234 193.854 39.9037 194.111 40.0924 194.369C45.8348 182.81 53.9273 170.906 53.9273 170.906C47.2005 179.207 42.0846 188.53 39.5609 193.589Z" fill="#CB392F"/>
<path d="M42.2444 196.79C42.5033 197.03 42.7708 197.27 43.0398 197.493C48.4742 184.876 55.7157 170.721 55.7157 170.721C50.2402 178.724 44.7368 190.906 42.2444 196.79Z" fill="#CB392F"/>
<path d="M44.9205 198.909C45.1852 199.089 45.4507 199.261 45.7256 199.424C50.8269 186.715 57.9058 169.202 57.9058 169.202C50.7541 183.4 46.6112 194.155 44.9205 198.909Z" fill="#CB392F"/>
<path d="M48.3348 200.818C48.6052 200.939 48.8841 201.06 49.1639 201.173C53.4263 187.679 58.4629 170.687 58.4629 170.687C52.8247 186.121 49.6115 196.366 48.3348 200.818Z" fill="#CB392F"/>
<path d="M52.3225 202.192C52.5318 202.238 52.7326 202.283 52.9418 202.329C53.0172 202.345 53.0926 202.361 53.1765 202.378C54.0915 197.865 56.1026 187.409 59.0497 171.25C59.0412 171.25 54.8042 188.371 52.3225 202.192Z" fill="#CB392F"/>
<path d="M87.6494 163.078C87.6494 163.078 99.4422 169.315 109.493 177.388C109.49 176.976 109.453 176.561 109.399 176.144C105.322 172.869 98.4001 167.98 87.6494 163.078Z" fill="#CB392F"/>
<path d="M108.802 181.435C108.899 181.144 108.995 180.862 109.074 180.57C104.856 176.715 96.8574 169.964 87.7744 164.702C87.7659 164.701 99.3637 172.779 108.802 181.435Z" fill="#CB392F"/>
<path d="M106.986 185.106C107.176 184.816 107.351 184.516 107.525 184.216C103.024 179.656 93.4374 170.412 85.4268 165.022C85.4268 165.022 97.2957 175.423 106.986 185.106Z" fill="#CB392F"/>
<path d="M105.099 187.639C105.303 187.393 105.506 187.147 105.71 186.893C102.24 182.991 94.4733 174.729 82.8198 164.486C82.8198 164.486 95.6468 177.799 105.099 187.639Z" fill="#CB392F"/>
<path d="M102.996 189.859C103.212 189.657 103.429 189.439 103.656 189.221C100.511 185.41 93.6521 177.476 82.8892 166.069C82.8892 166.069 93.8496 179.235 102.996 189.859Z" fill="#CB392F"/>
<path d="M81.8472 197.187C82.1641 197.269 82.4995 197.336 82.8367 197.386C78.9226 184.64 77.5845 170.361 77.5845 170.361C78.0534 183.638 80.3476 192.448 81.8472 197.187Z" fill="#CB392F"/>
<path d="M86.5551 197.387C86.8319 197.354 87.1094 197.312 87.3955 197.272C82.391 185.105 78.708 170.41 78.708 170.41C80.5664 181.783 84.5592 192.565 86.5551 197.387Z" fill="#CB392F"/>
<path d="M90.3745 196.609C90.6993 196.521 91.0258 196.416 91.3515 196.319C85.5392 183.842 79.7559 168.943 79.7559 168.943C82.1235 178.497 87.6826 190.94 90.3745 196.609Z" fill="#CB392F"/>
<path d="M93.5116 195.552C93.8051 195.435 94.107 195.319 94.3919 195.201C88.317 182.964 80.0806 166.293 80.0806 166.293C85.8358 180.863 91.034 191.027 93.5116 195.552Z" fill="#CB392F"/>
<path d="M97.0053 193.989C97.2842 193.845 97.5539 193.709 97.8151 193.571C90.629 181.509 81.5479 166.855 81.5479 166.855C89.0317 180.789 94.4137 189.847 97.0053 193.989Z" fill="#CB392F"/>
<path d="M100.578 191.869C100.808 191.703 101.039 191.529 101.28 191.338C98.3255 187.408 92.0027 179.15 82.3579 166.789C82.3571 166.798 92.0132 180.899 100.578 191.869Z" fill="#CB392F"/>
<path d="M128.655 140.646C128.305 140.286 127.916 139.974 127.479 139.717C122.218 139.669 113.57 140.516 102.718 143.034C102.717 143.043 115.97 140.458 128.655 140.646Z" fill="#CB392F"/>
<path d="M130.547 144.24C130.472 143.95 130.388 143.668 130.287 143.392C124.493 142.932 111.972 143.077 101.892 144.411C101.892 144.411 117.96 143.214 130.547 144.24Z" fill="#CB392F"/>
<path d="M101.199 145.57C101.199 145.57 117.675 146.511 131.019 148.194C131.018 147.851 131.01 147.499 130.983 147.162C124.382 146.289 110.421 144.966 101.199 145.57Z" fill="#CB392F"/>
<path d="M100.241 146.718C100.241 146.718 117.501 149.287 130.848 151.297C130.888 150.966 130.92 150.635 130.944 150.303C125.424 149.303 114.709 147.661 100.241 146.718Z" fill="#CB392F"/>
<path d="M130.358 154.239C130.421 153.937 130.485 153.635 130.541 153.323C125.318 152.164 114.583 150.023 100.347 147.748C100.347 147.748 116.915 151.45 130.358 154.239Z" fill="#CB392F"/>
<path d="M116.848 171.427C117.239 171.363 117.616 171.262 117.995 171.145C108.084 163.668 99.6611 154.58 99.6611 154.58C106.578 162.974 112.643 168.234 116.848 171.427Z" fill="#CB392F"/>
<path d="M121.252 169.379C121.483 169.205 121.705 169.021 121.929 168.828C111.17 162.332 100.57 153.932 100.57 153.932C107.906 160.815 116.253 166.348 121.252 169.379Z" fill="#CB392F"/>
<path d="M124.043 166.686C124.274 166.417 124.488 166.146 124.703 165.876C112.967 159.67 100.524 152.11 100.524 152.11C107.491 157.681 117.988 163.526 124.043 166.686Z" fill="#CB392F"/>
<path d="M125.985 164.106C126.176 163.816 126.357 163.534 126.538 163.251C114.474 157.348 99.1641 149.818 99.1641 149.818C111.221 157.041 120.753 161.721 125.985 164.106Z" fill="#CB392F"/>
<path d="M127.905 160.873C128.061 160.58 128.208 160.303 128.336 160.033C115.598 154.998 99.9683 149.279 99.9683 149.279C112.936 155.125 122.851 158.942 127.905 160.873Z" fill="#CB392F"/>
<path d="M129.54 157.219C129.635 156.945 129.723 156.654 129.812 156.354C124.649 154.935 114.082 152.117 100.27 148.546C100.269 148.554 116.385 153.755 129.54 157.219Z" fill="#CB392F"/>
<path d="M130.721 100.981C130.206 100.82 129.661 100.715 129.067 100.666C124.343 102.486 116.226 106.153 105.901 113.744C105.901 113.744 118.177 105.786 130.721 100.981Z" fill="#CB392F"/>
<path d="M134.299 103.566C134.117 103.326 133.934 103.102 133.732 102.885C129.15 104.3 117.758 108.248 107.363 114.427C107.371 114.436 121.572 107.522 134.299 103.566Z" fill="#CB392F"/>
<path d="M136.079 107.183C135.974 106.856 135.859 106.545 135.743 106.242C130.593 107.601 116.03 111.807 106.509 116.64C106.501 116.639 122.561 110.925 136.079 107.183Z" fill="#CB392F"/>
<path d="M136.844 110.232C136.787 109.935 136.722 109.637 136.664 109.349C132.267 110.267 120.664 113.029 104.767 118.656C104.767 118.656 123.574 113.706 136.844 110.232Z" fill="#CB392F"/>
<path d="M137.308 113.302C137.269 112.998 137.238 112.704 137.198 112.408C132.684 113.204 122.16 115.334 106.177 119.367C106.177 119.367 123.492 116.14 137.308 113.302Z" fill="#CB392F"/>
<path d="M131.21 135.17C131.596 134.984 131.969 134.755 132.318 134.497C119.681 131.606 107.32 126.111 107.32 126.111C117.946 131.6 126.141 134.017 131.21 135.17Z" fill="#CB392F"/>
<path d="M134.946 131.462C135.09 131.21 135.235 130.95 135.371 130.689C122.378 129.092 107.909 125.157 107.909 125.157C118.529 129.018 129.657 130.811 134.946 131.462Z" fill="#CB392F"/>
<path d="M107.145 123.506C116.679 126.139 130.35 127.365 136.534 127.769C136.634 127.444 136.726 127.11 136.818 126.777C123.075 125.766 107.145 123.506 107.145 123.506Z" fill="#CB392F"/>
<path d="M137.293 124.518C137.348 124.215 137.395 123.902 137.434 123.589C123.787 122.913 104.988 121.943 104.988 121.943C120.769 124.069 132.287 124.477 137.293 124.518Z" fill="#CB392F"/>
<path d="M137.698 120.675C137.71 120.376 137.723 120.069 137.726 119.769C123.661 120.15 106.206 120.93 106.206 120.93C122.336 121.212 132.965 120.917 137.698 120.675Z" fill="#CB392F"/>
<path d="M137.617 116.477C137.594 116.184 137.571 115.89 137.547 115.605C132.861 116.238 122.441 117.735 106.55 120.192C106.542 120.192 123.817 118.623 137.617 116.477Z" fill="#CB392F"/>
<path d="M32.7314 58.0352C32.7942 58.624 32.9195 59.1846 33.1252 59.7102C36.7329 63.3345 42.4607 68.3732 51.1071 73.7299C51.0978 73.7376 41.1993 66.7423 32.7314 58.0352Z" fill="#CB392F"/>
<path d="M33.3676 53.6664C33.2611 53.9731 33.1638 54.2721 33.0834 54.5728C36.7347 58.8955 43.3854 66.1491 51.1607 72.1153C51.1607 72.1153 41.3026 63.1101 33.3676 53.6664Z" fill="#CB392F"/>
<path d="M53.4005 72.0241C53.4005 72.0241 43.3629 60.5421 35.2568 49.9506C35.0571 50.2482 34.8743 50.5475 34.7007 50.8391C38.5041 55.8878 46.4765 65.9179 53.4005 72.0241Z" fill="#CB392F"/>
<path d="M55.8023 72.8228C55.8023 72.8228 45.0737 58.2315 37.1965 47.4822C36.9855 47.7188 36.7746 47.9554 36.5713 48.2013C39.4205 52.4202 45.8835 61.438 55.8023 72.8228Z" fill="#CB392F"/>
<path d="M39.3476 45.3952C39.1238 45.5877 38.9 45.7802 38.6754 45.9812C41.1982 50.0398 46.8523 58.6705 55.8958 71.2384C55.9042 71.2393 46.8774 56.9076 39.3476 45.3952Z" fill="#CB392F"/>
<path d="M60.797 44.3278C60.3668 43.7375 59.9898 43.3924 59.7505 43.2148C61.5528 55.3444 61.3512 67.5105 61.3512 67.5105C62.0946 57.2567 61.5241 49.5401 60.797 44.3278Z" fill="#CB392F"/>
<path d="M56.2208 41.5253C55.931 41.4286 55.6318 41.3395 55.3403 41.2598C58.5231 53.5236 60.3061 67.3566 60.3061 67.3566C59.8039 57.0759 57.6484 47.0971 56.2208 41.5253Z" fill="#CB392F"/>
<path d="M52.2621 40.7373C51.914 40.7121 51.5728 40.7046 51.2307 40.7056C55.3511 53.6176 59.1495 68.7091 59.1495 68.7091C57.9651 59.2961 54.2578 46.8871 52.2621 40.7373Z" fill="#CB392F"/>
<path d="M49.0009 40.8669C48.6971 40.9145 48.3933 40.9621 48.0963 41.0275C52.5355 53.8247 58.5731 71.3106 58.5731 71.3106C54.685 56.2618 50.8654 45.6328 49.0009 40.8669Z" fill="#CB392F"/>
<path d="M45.4147 41.7947C45.1399 41.8965 44.8727 42.0076 44.6055 42.1187C50.1241 54.8924 57.24 70.5979 57.24 70.5979C51.5506 55.6995 47.387 46.0654 45.4147 41.7947Z" fill="#CB392F"/>
<path d="M41.8222 43.5877C41.5856 43.736 41.3482 43.8929 41.1107 44.0498C43.4313 48.1659 48.5606 57.0969 56.4732 70.5747C56.4816 70.5755 48.7679 55.3946 41.8222 43.5877Z" fill="#CB392F"/>
<path d="M90.5057 95.9492C95.0312 94.8553 104.153 96.8819 104.153 96.8819C104.153 96.8819 119.243 100.671 127.764 97.7805L127.632 97.2021C127.632 97.2021 120.892 99.8889 104.366 96.0113C98.9971 94.0668 93.9402 93.8494 91.3885 93.8927C93.4459 85.8746 98.6392 76.1048 98.6392 76.1048C98.6392 76.1048 100.07 73.9473 100.68 73.3896L100.312 73.131C100.312 73.131 98.9624 74.3538 98.3533 75.3486C98.3533 75.3486 98.3826 72.7463 97.9184 71.0045L97.3206 71.2634C97.3206 71.2634 97.6127 74.6082 97.5363 76.1947C93.8732 81.8971 89.6708 93.9742 89.6708 93.9742C80.2861 105.539 68.2026 103.37 68.2026 103.37C45.0539 93.3641 26.4764 91.4294 26.4764 91.4294L23.936 96.3069C42.1364 97.2795 67.353 107.384 67.353 107.384L67.3538 107.375C74.88 111.055 85.5458 117.542 93.2814 122.416C94.1415 124.308 96.5487 129.915 96.5392 133.461L97.6665 133.297C97.6665 133.297 97.4185 128.877 95.3682 123.733C100.008 126.677 103.165 128.767 103.165 128.767L104.108 127.77C99.9252 124.347 94.0661 120.401 88.4189 116.827C96.5559 115.339 102.585 111.426 103.854 110.418C105.177 109.373 109.58 108.575 109.58 108.575L109.541 108.006C107.265 108.205 105.3 108.631 105.3 108.631L105.646 107.439C106.233 106.228 110.643 102.886 110.643 102.886L110.171 102.463C107.814 104.025 106.059 105.645 106.059 105.645C106.691 103.967 106.775 102.133 106.775 102.133L106.025 102.103C105.463 105.536 103.658 109.079 103.658 109.079C97.7825 113.616 89.2688 115.11 86.3151 115.509C77.9774 110.319 70.6379 106.212 70.6379 106.212C82.3408 106.304 88.6151 98.7047 90.5057 95.9492Z" fill="#DB1A21"/>
<path d="M39.5273 98.7135C41.7268 99.2187 43.9129 99.774 46.0288 100.348C47.92 99.4438 50.3244 98.2722 52.0724 97.3452C49.8995 96.6541 47.8139 96.0314 45.8404 95.4882L39.5273 98.7135Z" fill="#B91319"/>
<path d="M84.7915 82.8912C85.7481 82.2815 87.534 80.1671 87.534 80.1671L86.9991 79.6867C86.1154 80.869 84.4916 82.0137 83.617 82.5714C81.5577 82.474 71.0826 82.1497 63.5405 84.6471C63.5405 84.6471 67.4061 81.8008 70.1752 74.7346C70.1752 74.7346 73.4747 72.5274 74.451 70.917L73.8727 70.3552C73.8727 70.3552 71.8428 72.4288 70.1753 73.4064C70.1753 73.4064 69.1963 70.5347 69.3405 67.0095L68.4444 67.1709C68.4444 67.1709 68.0145 70.2913 68.8624 74.607C68.8624 74.607 67.612 78.5216 61.5902 83.6863C61.5902 83.6863 45.4613 96.2149 27.3597 98.7311C27.3597 98.7311 26.5675 102.15 27.4663 103.995C27.4663 103.995 43.724 100.922 61.3765 87.7531C62.1451 87.4079 72.4616 82.9179 83.8972 83.6527C83.8972 83.6527 83.8972 83.6527 83.9057 83.6535C83.9057 83.6535 83.9057 83.6535 83.9141 83.6543C83.9226 83.6551 83.9311 83.656 83.9395 83.6568C85.6279 83.701 88.1957 84.1991 88.1957 84.1991L88.3318 83.5868C86.4039 83.0137 84.7915 82.8912 84.7915 82.8912Z" fill="#006B94"/>
<path d="M61.3464 148.645C60.303 146.881 55.6784 137.682 53.9307 131.797C53.9307 131.797 48.0549 107.685 31.9221 100.624L24.6092 103.315C24.6092 103.315 40.9308 105.681 50.6301 129.505C50.2942 132.36 48.9414 141.843 44.804 151.922C44.804 151.922 40.8189 155.562 37.9719 157.067L38.348 157.952C38.348 157.952 42.1624 156.078 44.2841 154.116C44.2841 154.116 41.4364 161.2 40.5637 165.452L41.2276 165.748C41.2276 165.748 43.3318 159.988 43.9598 158.267C43.9598 158.267 44.4494 161.956 45.0101 163.407L45.7331 163.092C45.7331 163.092 44.9631 157.439 45.0281 155.971C45.0908 154.614 49.8597 145.609 51.9415 133.891C52.947 137.108 55.2752 143.179 60.1626 150.544C60.1626 150.544 60.5759 156.703 58.9695 160.497L59.9394 160.9C59.9394 160.9 61.9069 156.995 61.7789 151.952C61.7789 151.952 65.7369 157.17 70.6563 160.314L71.1802 159.67C71.1717 159.67 63.6025 152.455 61.3464 148.645Z" fill="#006B94"/>
<path d="M59.5633 145.249L58.3882 147.766C58.8307 148.494 59.2969 149.242 59.7962 150.002C60.1102 149.407 60.5209 148.607 60.9014 147.856C60.5531 147.213 60.0932 146.312 59.5633 145.249Z" fill="#004766"/>
<path d="M34.7542 101.926C36.231 101.419 37.8978 100.801 39.7142 100.052C37.67 98.8251 35.8959 97.8985 34.4978 97.2398C32.179 97.8799 29.7862 98.4013 27.3599 98.7396C27.3599 98.7396 27.3591 98.7481 27.3481 98.7727C29.856 99.625 32.3579 100.717 34.7542 101.926Z" fill="#004766"/>
<path d="M12.3588 95.9779C17.7506 96.622 21.058 96.4551 21.058 96.4551C35.7266 97.8813 53.5005 113.08 53.5005 113.08C53.5005 113.08 62.9976 125.29 61.5906 135.333C60.1951 145.258 51.4312 158.006 43.4353 172.713C41.8536 173.245 36.8188 175.009 35.7283 176.386L35.9449 176.887C35.9449 176.887 39.8639 174.903 42.5698 174.326C40.3768 178.44 38.2638 182.7 36.4035 187.086L37.0783 187.358C37.0783 187.358 45.4444 169.087 54.5022 156.659C54.5022 156.659 56.8969 161.777 59.491 165.362C59.491 165.362 61.6487 168.246 65.3876 171.309C67.5426 173.069 70.8061 186.532 70.8696 187.644L71.2169 187.677C71.2169 187.677 69.6236 176.922 66.8565 172.12C68.5434 173.064 70.4634 173.542 70.4634 173.542L70.6069 173.119C68.7645 172.545 66.9366 171.468 65.9941 170.87C65.8633 170.721 65.7316 170.579 65.589 170.463C63.8011 168.883 62.4151 167.746 60.2913 165.132C60.2913 165.132 55.6783 158.642 56.0944 154.337C56.0944 154.337 62.2635 143.317 63.7774 136.412C63.7774 136.412 75.1663 147.356 75.2721 158.995C75.3872 170.627 73.4809 173.544 73.5268 179.435C73.5268 179.435 72.5945 196.329 81.9989 198.709L82.1608 198.185C73.3443 195.648 74.3727 179.44 74.3727 179.44C74.3727 179.44 74.8455 173.753 75.208 172.392C75.5704 171.03 77.7839 163.344 77.6804 158.844C77.6804 158.844 85.0845 162.195 90.4062 162.326C90.4062 162.326 109.758 165.982 109.912 176.503L110.276 176.538C110.276 176.538 111.978 166.446 90.8675 161.446C90.8675 161.446 80.1136 159.938 77.3558 154.862C77.3558 154.862 74.8659 144.628 65.0329 133.594C65.0329 133.594 64.2339 124.527 58.879 115.72C70.0742 122.301 78.2769 131.805 78.2769 131.805C78.2769 131.805 93.9288 151.092 95.6941 153.877C97.451 156.661 103.081 163.773 103.081 163.773L103.529 163.294C103.529 163.294 102.627 162.452 97.3656 153.919C94.4615 149.207 89.3918 142.578 85.4463 137.584C90.8284 139.479 100.066 140.042 103.032 139.431C106.452 138.718 116.801 137.787 116.801 137.787L116.729 137.026C115.878 136.901 112.79 137.089 109.87 137.319C112.393 135.182 114.384 132.805 114.384 132.805L113.68 132.394C113.399 133.001 109.63 136.173 108.087 137.463C105.828 137.655 104.025 137.831 104.025 137.831C95.3964 139.006 85.6848 135.559 82.9579 134.497C81.0422 132.117 79.7548 130.578 79.7548 130.578C71.5916 120.135 59.0146 112.725 54.9472 110.496C42.7904 98.7394 31.9666 95.1248 31.9666 95.1248C43.7255 93.3116 53.7947 84.9242 53.7947 84.9242C66.6581 71.5982 65.71 60.5372 65.71 60.5372L64.4057 60.4104C64.0302 69.4232 59.1034 76.0825 55.251 79.9413C54.0781 78.4561 50.6329 75.0962 40.6468 69.095L40.2793 69.6249C40.2793 69.6249 52.008 77.0551 53.4089 81.6646C51.7842 83.0834 50.6451 83.8125 50.6451 83.8125C48.1588 85.3018 41.6022 91.3999 24.429 90.7671C20.2807 90.6123 16.7153 90 13.0293 89.0418" fill="#DB1A21"/>
<path d="M12.0098 99.5864C17.0192 100.031 21.897 99.8021 27.359 98.7478L27.4657 104.011C27.4657 104.011 21.2444 105.669 11.4326 105.469" fill="#006B94"/>
<path d="M11.5894 103.933C18.5862 105.042 16.9602 104.353 26.271 103.544L27.2742 104.044C26.1294 104.302 20.272 105.643 11.4331 105.461" fill="#005172"/>
</g>
<path d="M29.7537 191.876C23.5684 166.387 43.7136 131.401 43.7136 131.401C53.1869 136.898 135.954 121.905 152.906 108.278C158.889 169.885 134.458 202.872 105.539 219.865C77.1192 233.859 38.7273 228.861 29.7537 191.876Z" fill="#755744" fill-opacity="0.8"/>
<defs>
<clipPath id="clip0">
<rect width="144.425" height="220.855" transform="matrix(0.995307 0.0967669 -0.0962293 0.995359 21.2529 0)" fill="white"/>
</clipPath>
</defs>
</svg>
