<svg width="195" height="187" viewBox="0 0 195 187" fill="none" xmlns="http://www.w3.org/2000/svg">
<mask id="mask0" mask-type="alpha" maskUnits="userSpaceOnUse" x="0" y="0" width="195" height="179">
<path fill-rule="evenodd" clip-rule="evenodd" d="M91.7566 0.628982C122.076 -0.825651 155.724 -1.67772 175.872 21.025C196.886 44.7042 199.435 80.3967 189.108 110.325C179.901 137.01 152.933 150.088 127.276 161.862C102.471 173.246 75.4606 184.794 50.4008 173.981C24.3595 162.745 9.50568 135.969 3.18744 108.32C-3.13309 80.6607 -0.834173 50.5515 17.1881 28.6383C34.9325 7.06284 63.8537 1.9677 91.7566 0.628982Z" fill="#C4C4C4"/>
</mask>
<g mask="url(#mask0)">
<path d="M204.183 136.832H-65.2625V189.424H204.183V136.832Z" fill="#CDE8F7"/>
<path d="M204.161 -28.5547H-27.9788V153.831H204.161V-28.5547Z" fill="#F9F9F9"/>
<path d="M55.2815 124.96V122.924C55.2815 122.224 54.7154 121.658 54.0161 121.658H52.7951C52.0958 121.658 51.5298 122.224 51.5298 122.924V124.96C51.5298 125.66 50.9637 126.226 50.2644 126.226C49.5651 126.226 48.999 126.792 48.999 127.491V143.237C48.999 143.936 49.5651 144.502 50.2644 144.502H56.5524C57.2517 144.502 57.8177 143.936 57.8177 143.237V127.491C57.8177 126.792 57.2517 126.226 56.5524 126.226C55.8531 126.231 55.2815 125.66 55.2815 124.96Z" fill="#8BD6F7"/>
<path d="M55.4531 121.031H51.385V123.723H55.4531V121.031Z" fill="#BADFF4"/>
<path d="M57.2069 130.738H49.5093V140.379H57.2069V130.738Z" fill="#BADFF4"/>
<path d="M45.8129 124.96V122.924C45.8129 122.224 45.2469 121.658 44.5476 121.658H43.3266C42.6273 121.658 42.0612 122.224 42.0612 122.924V124.96C42.0612 125.66 41.4952 126.226 40.7959 126.226C40.0966 126.226 39.5305 126.792 39.5305 127.491V143.237C39.5305 143.936 40.0966 144.502 40.7959 144.502H47.0894C47.7887 144.502 48.3548 143.936 48.3548 143.237V127.491C48.3548 126.792 47.7887 126.226 47.0894 126.226C46.379 126.231 45.8129 125.66 45.8129 124.96Z" fill="#8BD6F7"/>
<path d="M45.9848 121.031H41.9167V123.723H45.9848V121.031Z" fill="#BADFF4"/>
<path d="M47.7335 130.738H40.0359V140.379H47.7335V130.738Z" fill="#BADFF4"/>
<path d="M36.3388 124.96V122.924C36.3388 122.224 35.7728 121.658 35.0735 121.658H33.8525C33.1532 121.658 32.5871 122.224 32.5871 122.924V124.96C32.5871 125.66 32.021 126.226 31.3218 126.226C30.6225 126.226 30.0564 126.792 30.0564 127.491V143.237C30.0564 143.936 30.6225 144.502 31.3218 144.502H37.6153C38.3146 144.502 38.8807 143.936 38.8807 143.237V127.491C38.8807 126.792 38.3146 126.226 37.6153 126.226C36.9049 126.231 36.3388 125.66 36.3388 124.96Z" fill="#8BD6F7"/>
<path d="M36.5104 121.031H32.4424V123.723H36.5104V121.031Z" fill="#BADFF4"/>
<path d="M38.2584 130.738H30.5608V140.379H38.2584V130.738Z" fill="#BADFF4"/>
<path d="M26.8655 124.96V122.924C26.8655 122.224 26.2994 121.658 25.6001 121.658H24.3791C23.6798 121.658 23.1138 122.224 23.1138 122.924V124.96C23.1138 125.66 22.5477 126.226 21.8484 126.226C21.1491 126.226 20.583 126.792 20.583 127.491V143.237C20.583 143.936 21.1491 144.502 21.8484 144.502H28.1364C28.8357 144.502 29.4018 143.936 29.4018 143.237V127.491C29.4018 126.792 28.8357 126.226 28.1364 126.226C27.4371 126.231 26.8655 125.66 26.8655 124.96Z" fill="#8BD6F7"/>
<path d="M27.038 121.031H22.97V123.723H27.038V121.031Z" fill="#BADFF4"/>
<path d="M28.7909 130.738H21.0933V140.379H28.7909V130.738Z" fill="#BADFF4"/>
<path d="M17.3764 124.959V122.922C17.3764 122.222 16.8104 121.656 16.1111 121.656H14.8901C14.1908 121.656 13.6247 122.222 13.6247 122.922V124.959C13.6247 125.658 13.0586 126.224 12.3594 126.224C11.6601 126.224 11.094 126.79 11.094 127.489V143.235C11.094 143.934 11.6601 144.5 12.3594 144.5H18.6474C19.3466 144.5 19.9127 143.934 19.9127 143.235V127.489C19.9127 126.79 19.3466 126.224 18.6474 126.224C17.9481 126.229 17.3764 125.658 17.3764 124.959Z" fill="#8BD6F7"/>
<path d="M17.5483 121.029H13.4802V123.721H17.5483V121.029Z" fill="#BADFF4"/>
<path d="M19.3019 130.736H11.6042V140.377H19.3019V130.736Z" fill="#BADFF4"/>
<path d="M7.90869 124.959V122.922C7.90869 122.222 7.3426 121.656 6.64331 121.656H5.42234C4.72305 121.656 4.15697 122.222 4.15697 122.922V124.959C4.15697 125.658 3.59088 126.224 2.89159 126.224C2.1923 126.224 1.62622 126.79 1.62622 127.489V143.235C1.62622 143.934 2.1923 144.5 2.89159 144.5H9.18516C9.88445 144.5 10.4505 143.934 10.4505 143.235V127.489C10.4505 126.79 9.88445 126.224 9.18516 126.224C8.47478 126.229 7.90869 125.658 7.90869 124.959Z" fill="#8BD6F7"/>
<path d="M8.08122 121.029H4.01318V123.721H8.08122V121.029Z" fill="#BADFF4"/>
<path d="M9.82924 130.736H2.13159V140.377H9.82924V130.736Z" fill="#BADFF4"/>
<path d="M-1.5657 124.96V122.924C-1.5657 122.224 -2.13179 121.658 -2.83107 121.658H-4.05204C-4.75132 121.658 -5.31741 122.224 -5.31741 122.924V124.96C-5.31741 125.66 -5.88349 126.226 -6.58277 126.226C-7.28206 126.226 -7.84814 126.792 -7.84814 127.491V143.237C-7.84814 143.936 -7.28206 144.502 -6.58277 144.502H-0.289231C0.410051 144.502 0.976133 143.936 0.976133 143.237V127.491C0.976133 126.792 0.410051 126.226 -0.289231 126.226C-0.999613 126.231 -1.5657 125.66 -1.5657 124.96Z" fill="#8BD6F7"/>
<path d="M0.354153 130.738H-7.34351V140.379H0.354153V130.738Z" fill="#BADFF4"/>
<path d="M99.602 122.908V120.632C99.602 119.85 98.9694 119.217 98.1868 119.217H96.8216C96.039 119.217 95.4064 119.85 95.4064 120.632V122.902C95.4064 123.685 94.7737 124.317 93.9911 124.317C93.2086 124.317 92.5759 124.95 92.5759 125.733V143.315C92.5759 144.098 93.2086 144.73 93.9911 144.73H101.017C101.8 144.73 102.432 144.098 102.432 143.315V125.738C102.432 124.956 101.8 124.323 101.017 124.323C100.235 124.323 99.602 123.685 99.602 122.908Z" fill="#CDE8F7"/>
<path d="M99.7914 118.518H95.2461V121.526H99.7914V118.518Z" fill="#BADFF4"/>
<path d="M101.75 129.352H93.1531V140.119H101.75V129.352Z" fill="#BADFF4"/>
<path d="M110.575 122.908V120.632C110.575 119.85 109.942 119.217 109.16 119.217H107.794C107.012 119.217 106.379 119.85 106.379 120.632V122.902C106.379 123.685 105.747 124.317 104.964 124.317C104.182 124.317 103.549 124.95 103.549 125.733V143.315C103.549 144.098 104.182 144.73 104.964 144.73H111.99C112.773 144.73 113.405 144.098 113.405 143.315V125.738C113.405 124.956 112.773 124.323 111.99 124.323C111.208 124.323 110.575 123.685 110.575 122.908Z" fill="#CDE8F7"/>
<path d="M110.769 118.518H106.224V121.526H110.769V118.518Z" fill="#BADFF4"/>
<path d="M112.723 129.352H104.127V140.119H112.723V129.352Z" fill="#BADFF4"/>
<path d="M121.545 122.908V120.632C121.545 119.85 120.912 119.217 120.13 119.217H118.764C117.982 119.217 117.349 119.85 117.349 120.632V122.902C117.349 123.685 116.717 124.317 115.934 124.317C115.151 124.317 114.519 124.95 114.519 125.733V143.315C114.519 144.098 115.151 144.73 115.934 144.73H122.96C123.743 144.73 124.375 144.098 124.375 143.315V125.738C124.375 124.956 123.743 124.323 122.96 124.323C122.183 124.323 121.545 123.685 121.545 122.908Z" fill="#CDE8F7"/>
<path d="M121.739 118.518H117.194V121.526H121.739V118.518Z" fill="#BADFF4"/>
<path d="M123.693 129.352H115.096V140.119H123.693V129.352Z" fill="#BADFF4"/>
<path d="M132.524 122.908V120.632C132.524 119.85 131.891 119.217 131.109 119.217H129.743C128.961 119.217 128.328 119.85 128.328 120.632V122.902C128.328 123.685 127.696 124.317 126.913 124.317C126.13 124.317 125.498 124.95 125.498 125.733V143.315C125.498 144.098 126.13 144.73 126.913 144.73H133.939C134.722 144.73 135.354 144.098 135.354 143.315V125.738C135.354 124.956 134.722 124.323 133.939 124.323C133.157 124.323 132.524 123.685 132.524 122.908Z" fill="#CDE8F7"/>
<path d="M132.718 118.518H128.173V121.526H132.718V118.518Z" fill="#BADFF4"/>
<path d="M134.672 129.352H126.075V140.119H134.672V129.352Z" fill="#BADFF4"/>
<path d="M143.496 122.908V120.632C143.496 119.85 142.863 119.217 142.08 119.217H140.715C139.933 119.217 139.3 119.85 139.3 120.632V122.902C139.3 123.685 138.667 124.317 137.885 124.317C137.102 124.317 136.469 124.95 136.469 125.733V143.315C136.469 144.098 137.102 144.73 137.885 144.73H144.911C145.693 144.73 146.326 144.098 146.326 143.315V125.738C146.326 124.956 145.693 124.323 144.911 124.323C144.128 124.323 143.496 123.685 143.496 122.908Z" fill="#CDE8F7"/>
<path d="M143.69 118.518H139.144V121.526H143.69V118.518Z" fill="#BADFF4"/>
<path d="M145.643 129.352H137.046V140.119H145.643V129.352Z" fill="#BADFF4"/>
<path d="M154.33 122.908V120.632C154.33 119.85 153.697 119.217 152.915 119.217H151.549C150.767 119.217 150.134 119.85 150.134 120.632V122.902C150.134 123.685 149.501 124.317 148.719 124.317C147.936 124.317 147.304 124.95 147.304 125.733V143.315C147.304 144.098 147.936 144.73 148.719 144.73H155.745C156.528 144.73 157.16 144.098 157.16 143.315V125.738C157.16 124.956 156.528 124.323 155.745 124.323C154.968 124.323 154.33 123.685 154.33 122.908Z" fill="#CDE8F7"/>
<path d="M154.524 118.518H149.979V121.526H154.524V118.518Z" fill="#BADFF4"/>
<path d="M156.483 129.352H147.886V140.119H156.483V129.352Z" fill="#BADFF4"/>
<path d="M165.307 122.908V120.632C165.307 119.85 164.675 119.217 163.892 119.217H162.527C161.744 119.217 161.112 119.85 161.112 120.632V122.902C161.112 123.685 160.479 124.317 159.696 124.317C158.914 124.317 158.281 124.95 158.281 125.733V143.315C158.281 144.098 158.914 144.73 159.696 144.73H166.723C167.505 144.73 168.138 144.098 168.138 143.315V125.738C168.138 124.956 167.505 124.323 166.723 124.323C165.94 124.323 165.307 123.685 165.307 122.908Z" fill="#CDE8F7"/>
<path d="M165.502 118.518H160.956V121.526H165.502V118.518Z" fill="#BADFF4"/>
<path d="M167.456 129.352H158.859V140.119H167.456V129.352Z" fill="#BADFF4"/>
<path d="M176.279 122.908V120.632C176.279 119.85 175.646 119.217 174.864 119.217H173.499C172.716 119.217 172.083 119.85 172.083 120.632V122.902C172.083 123.685 171.451 124.317 170.668 124.317C169.886 124.317 169.253 124.95 169.253 125.733V143.315C169.253 144.098 169.886 144.73 170.668 144.73H177.694C178.477 144.73 179.109 144.098 179.109 143.315V125.738C179.109 124.956 178.477 124.323 177.694 124.323C176.912 124.323 176.279 123.685 176.279 122.908Z" fill="#CDE8F7"/>
<path d="M176.473 118.518H171.928V121.526H176.473V118.518Z" fill="#BADFF4"/>
<path d="M178.427 129.352H169.83V140.119H178.427V129.352Z" fill="#BADFF4"/>
<path d="M187.257 122.908V120.632C187.257 119.85 186.624 119.217 185.842 119.217H184.476C183.694 119.217 183.061 119.85 183.061 120.632V122.902C183.061 123.685 182.428 124.317 181.646 124.317C180.863 124.317 180.231 124.95 180.231 125.733V143.315C180.231 144.098 180.863 144.73 181.646 144.73H188.672C189.455 144.73 190.087 144.098 190.087 143.315V125.738C190.087 124.956 189.455 124.323 188.672 124.323C187.89 124.323 187.257 123.685 187.257 122.908Z" fill="#CDE8F7"/>
<path d="M187.451 118.518H182.906V121.526H187.451V118.518Z" fill="#BADFF4"/>
<path d="M189.405 129.352H180.809V140.119H189.405V129.352Z" fill="#BADFF4"/>
<path d="M198.228 122.908V120.632C198.228 119.85 197.595 119.217 196.813 119.217H195.448C194.665 119.217 194.032 119.85 194.032 120.632V122.902C194.032 123.685 193.4 124.317 192.617 124.317C191.835 124.317 191.202 124.95 191.202 125.733V143.315C191.202 144.098 191.835 144.73 192.617 144.73H199.643C200.426 144.73 201.058 144.098 201.058 143.315V125.738C201.058 124.956 200.426 124.323 199.643 124.323C198.861 124.323 198.228 123.685 198.228 122.908Z" fill="#CDE8F7"/>
<path d="M198.422 118.518H193.877V121.526H198.422V118.518Z" fill="#BADFF4"/>
<path d="M200.376 129.352H191.779V140.119H200.376V129.352Z" fill="#BADFF4"/>
<path d="M127.162 38.8279V37.4238C127.162 36.9409 126.741 36.5469 126.219 36.5469H125.309C124.787 36.5469 124.365 36.9409 124.365 37.4238V38.8279C124.365 39.3108 123.943 39.7049 123.422 39.7049C122.9 39.7049 122.478 40.0989 122.478 40.5818V51.4488C122.478 51.9316 122.9 52.3257 123.422 52.3257H128.111C128.633 52.3257 129.055 51.9316 129.055 51.4488V40.5818C129.055 40.0989 128.633 39.7049 128.111 39.7049C127.59 39.7049 127.162 39.3108 127.162 38.8279Z" fill="#CDE8F7"/>
<path d="M127.295 36.1133H124.26V37.9725H127.295V36.1133Z" fill="#BADFF4"/>
<path d="M128.599 42.8125H122.861V49.467H128.599V42.8125Z" fill="#BADFF4"/>
<path d="M134.494 38.8279V37.4238C134.494 36.9409 134.072 36.5469 133.55 36.5469H132.64C132.119 36.5469 131.697 36.9409 131.697 37.4238V38.8279C131.697 39.3108 131.275 39.7049 130.753 39.7049C130.232 39.7049 129.81 40.0989 129.81 40.5818V51.4488C129.81 51.9316 130.232 52.3257 130.753 52.3257H135.443C135.965 52.3257 136.386 51.9316 136.386 51.4488V40.5818C136.386 40.0989 135.965 39.7049 135.443 39.7049C134.916 39.7049 134.494 39.3108 134.494 38.8279Z" fill="#CDE8F7"/>
<path d="M134.621 36.1133H131.586V37.9725H134.621V36.1133Z" fill="#BADFF4"/>
<path d="M135.926 42.8125H130.188V49.467H135.926V42.8125Z" fill="#BADFF4"/>
<path d="M141.819 38.8279V37.4238C141.819 36.9409 141.397 36.5469 140.875 36.5469H139.965C139.444 36.5469 139.022 36.9409 139.022 37.4238V38.8279C139.022 39.3108 138.6 39.7049 138.078 39.7049C137.557 39.7049 137.135 40.0989 137.135 40.5818V51.4488C137.135 51.9316 137.557 52.3257 138.078 52.3257H142.768C143.29 52.3257 143.711 51.9316 143.711 51.4488V40.5818C143.711 40.0989 143.29 39.7049 142.768 39.7049C142.241 39.7049 141.819 39.3108 141.819 38.8279Z" fill="#CDE8F7"/>
<path d="M141.952 36.1133H138.916V37.9725H141.952V36.1133Z" fill="#BADFF4"/>
<path d="M143.251 42.8125H137.512V49.467H143.251V42.8125Z" fill="#BADFF4"/>
<path d="M149.152 38.8279V37.4238C149.152 36.9409 148.73 36.5469 148.208 36.5469H147.292C146.771 36.5469 146.349 36.9409 146.349 37.4238V38.8279C146.349 39.3108 145.927 39.7049 145.405 39.7049C144.884 39.7049 144.462 40.0989 144.462 40.5818V51.4488C144.462 51.9316 144.884 52.3257 145.405 52.3257H150.095C150.617 52.3257 151.038 51.9316 151.038 51.4488V40.5818C151.038 40.0989 150.617 39.7049 150.095 39.7049C149.573 39.7049 149.152 39.3108 149.152 38.8279Z" fill="#CDE8F7"/>
<path d="M149.279 36.1133H146.243V37.9725H149.279V36.1133Z" fill="#BADFF4"/>
<path d="M150.583 42.8125H144.844V49.467H150.583V42.8125Z" fill="#BADFF4"/>
<path d="M156.476 38.8279V37.4238C156.476 36.9409 156.055 36.5469 155.533 36.5469H154.623C154.101 36.5469 153.679 36.9409 153.679 37.4238V38.8279C153.679 39.3108 153.257 39.7049 152.736 39.7049C152.214 39.7049 151.792 40.0989 151.792 40.5818V51.4488C151.792 51.9316 152.214 52.3257 152.736 52.3257H157.425C157.947 52.3257 158.369 51.9316 158.369 51.4488V40.5818C158.369 40.0989 157.947 39.7049 157.425 39.7049C156.898 39.7049 156.476 39.3108 156.476 38.8279Z" fill="#CDE8F7"/>
<path d="M156.604 36.1133H153.568V37.9725H156.604V36.1133Z" fill="#BADFF4"/>
<path d="M157.908 42.8125H152.17V49.467H157.908V42.8125Z" fill="#BADFF4"/>
<path d="M163.713 38.8279V37.4238C163.713 36.9409 163.292 36.5469 162.77 36.5469H161.86C161.338 36.5469 160.916 36.9409 160.916 37.4238V38.8279C160.916 39.3108 160.494 39.7049 159.973 39.7049C159.451 39.7049 159.029 40.0989 159.029 40.5818V51.4488C159.029 51.9316 159.451 52.3257 159.973 52.3257H164.662C165.184 52.3257 165.606 51.9316 165.606 51.4488V40.5818C165.606 40.0989 165.184 39.7049 164.662 39.7049C164.135 39.7049 163.713 39.3108 163.713 38.8279Z" fill="#CDE8F7"/>
<path d="M163.841 36.1133H160.805V37.9725H163.841V36.1133Z" fill="#BADFF4"/>
<path d="M165.145 42.8125H159.407V49.467H165.145V42.8125Z" fill="#BADFF4"/>
<path d="M171.039 38.8279V37.4238C171.039 36.9409 170.617 36.5469 170.095 36.5469H169.185C168.663 36.5469 168.242 36.9409 168.242 37.4238V38.8279C168.242 39.3108 167.82 39.7049 167.298 39.7049C166.777 39.7049 166.355 40.0989 166.355 40.5818V51.4488C166.355 51.9316 166.777 52.3257 167.298 52.3257H171.988C172.51 52.3257 172.931 51.9316 172.931 51.4488V40.5818C172.931 40.0989 172.51 39.7049 171.988 39.7049C171.461 39.7049 171.039 39.3108 171.039 38.8279Z" fill="#CDE8F7"/>
<path d="M171.166 36.1133H168.13V37.9725H171.166V36.1133Z" fill="#BADFF4"/>
<path d="M172.471 42.8125H166.732V49.467H172.471V42.8125Z" fill="#BADFF4"/>
<path d="M178.365 38.8279V37.4238C178.365 36.9409 177.943 36.5469 177.422 36.5469H176.512C175.99 36.5469 175.568 36.9409 175.568 37.4238V38.8279C175.568 39.3108 175.146 39.7049 174.625 39.7049C174.103 39.7049 173.681 40.0989 173.681 40.5818V51.4488C173.681 51.9316 174.103 52.3257 174.625 52.3257H179.314C179.836 52.3257 180.258 51.9316 180.258 51.4488V40.5818C180.258 40.0989 179.836 39.7049 179.314 39.7049C178.793 39.7049 178.365 39.3108 178.365 38.8279Z" fill="#CDE8F7"/>
<path d="M178.498 36.1133H175.463V37.9725H178.498V36.1133Z" fill="#BADFF4"/>
<path d="M179.797 42.8125H174.059V49.467H179.797V42.8125Z" fill="#BADFF4"/>
<path d="M185.696 38.8279V37.4238C185.696 36.9409 185.274 36.5469 184.753 36.5469H183.843C183.321 36.5469 182.899 36.9409 182.899 37.4238V38.8279C182.899 39.3108 182.477 39.7049 181.956 39.7049C181.434 39.7049 181.012 40.0989 181.012 40.5818V51.4488C181.012 51.9316 181.434 52.3257 181.956 52.3257H186.645C187.167 52.3257 187.589 51.9316 187.589 51.4488V40.5818C187.589 40.0989 187.167 39.7049 186.645 39.7049C186.118 39.7049 185.696 39.3108 185.696 38.8279Z" fill="#CDE8F7"/>
<path d="M185.824 36.1133H182.788V37.9725H185.824V36.1133Z" fill="#BADFF4"/>
<path d="M187.128 42.8125H181.39V49.467H187.128V42.8125Z" fill="#BADFF4"/>
<path d="M193.021 38.8279V37.4238C193.021 36.9409 192.599 36.5469 192.078 36.5469H191.168C190.646 36.5469 190.224 36.9409 190.224 37.4238V38.8279C190.224 39.3108 189.802 39.7049 189.281 39.7049C188.759 39.7049 188.337 40.0989 188.337 40.5818V51.4488C188.337 51.9316 188.759 52.3257 189.281 52.3257H193.97C194.492 52.3257 194.914 51.9316 194.914 51.4488V40.5818C194.914 40.0989 194.492 39.7049 193.97 39.7049C193.443 39.7049 193.021 39.3108 193.021 38.8279Z" fill="#CDE8F7"/>
<path d="M193.154 36.1133H190.118V37.9725H193.154V36.1133Z" fill="#BADFF4"/>
<path d="M194.453 42.8125H188.715V49.467H194.453V42.8125Z" fill="#BADFF4"/>
<path d="M203.906 79.4062H9.1062V83.3468H203.906V79.4062Z" fill="#2DB3BE"/>
<path d="M47.5228 61.8526V60.0488C47.5228 59.4272 47.0178 58.9277 46.4017 58.9277H45.3195C44.6979 58.9277 44.1984 59.4328 44.1984 60.0488V61.8526C44.1984 62.4742 43.6934 62.9737 43.0774 62.9737C42.4558 62.9737 41.9563 63.4788 41.9563 64.0948V78.0588C41.9563 78.6804 42.4613 79.1799 43.0774 79.1799H48.655C49.2766 79.1799 49.776 78.6748 49.776 78.0588V64.1004C49.776 63.4788 49.271 62.9793 48.655 62.9793C48.0278 62.9737 47.5228 62.4742 47.5228 61.8526Z" fill="#CDE8F7"/>
<path d="M47.6779 58.3672H44.0706V60.7537H47.6779V58.3672Z" fill="#BADFF4"/>
<path d="M49.2325 66.9688H42.4062V75.5158H49.2325V66.9688Z" fill="#BADFF4"/>
<path d="M56.2355 61.8526V60.0488C56.2355 59.4272 55.7304 58.9277 55.1144 58.9277H54.0322C53.4106 58.9277 52.9111 59.4328 52.9111 60.0488V61.8526C52.9111 62.4742 52.406 62.9737 51.79 62.9737C51.1684 62.9737 50.6689 63.4788 50.6689 64.0948V78.0588C50.6689 78.6804 51.174 79.1799 51.79 79.1799H57.3676C57.9892 79.1799 58.4887 78.6748 58.4887 78.0588V64.1004C58.4887 63.4788 57.9837 62.9793 57.3676 62.9793C56.7405 62.9737 56.2355 62.4742 56.2355 61.8526Z" fill="#CDE8F7"/>
<path d="M56.3906 58.3672H52.7832V60.7537H56.3906V58.3672Z" fill="#BADFF4"/>
<path d="M57.9452 66.9688H51.1189V75.5158H57.9452V66.9688Z" fill="#BADFF4"/>
<path d="M64.9505 61.8526V60.0488C64.9505 59.4272 64.4455 58.9277 63.8295 58.9277H62.7472C62.1257 58.9277 61.6262 59.4328 61.6262 60.0488V61.8526C61.6262 62.4742 61.1211 62.9737 60.5051 62.9737C59.8835 62.9737 59.384 63.4788 59.384 64.0948V78.0588C59.384 78.6804 59.8891 79.1799 60.5051 79.1799H66.0827C66.7043 79.1799 67.2038 78.6748 67.2038 78.0588V64.1004C67.2038 63.4788 66.6987 62.9793 66.0827 62.9793C65.4556 62.9737 64.9505 62.4742 64.9505 61.8526Z" fill="#CDE8F7"/>
<path d="M65.1057 58.3672H61.4983V60.7537H65.1057V58.3672Z" fill="#BADFF4"/>
<path d="M66.6603 66.9688H59.834V75.5158H66.6603V66.9688Z" fill="#BADFF4"/>
<path d="M73.6622 61.8526V60.0488C73.6622 59.4272 73.1572 58.9277 72.5411 58.9277H71.4589C70.8373 58.9277 70.3378 59.4328 70.3378 60.0488V61.8526C70.3378 62.4742 69.8328 62.9737 69.2168 62.9737C68.5952 62.9737 68.0957 63.4788 68.0957 64.0948V78.0588C68.0957 78.6804 68.6007 79.1799 69.2168 79.1799H74.7944C75.416 79.1799 75.9155 78.6748 75.9155 78.0588V64.1004C75.9155 63.4788 75.4104 62.9793 74.7944 62.9793C74.1672 62.9737 73.6622 62.4742 73.6622 61.8526Z" fill="#CDE8F7"/>
<path d="M73.8174 58.3672H70.21V60.7537H73.8174V58.3672Z" fill="#BADFF4"/>
<path d="M75.372 66.9688H68.5457V75.5158H75.372V66.9688Z" fill="#BADFF4"/>
<path d="M82.3768 61.8526V60.0488C82.3768 59.4272 81.8718 58.9277 81.2557 58.9277H80.1735C79.5519 58.9277 79.0524 59.4328 79.0524 60.0488V61.8526C79.0524 62.4742 78.5474 62.9737 77.9314 62.9737C77.3098 62.9737 76.8103 63.4788 76.8103 64.0948V78.0588C76.8103 78.6804 77.3153 79.1799 77.9314 79.1799H83.509C84.1306 79.1799 84.6301 78.6748 84.6301 78.0588V64.1004C84.6301 63.4788 84.125 62.9793 83.509 62.9793C82.8818 62.9737 82.3768 62.4742 82.3768 61.8526Z" fill="#CDE8F7"/>
<path d="M82.5321 58.3672H78.9246V60.7537H82.5321V58.3672Z" fill="#BADFF4"/>
<path d="M84.0866 66.9688H77.2603V75.5158H84.0866V66.9688Z" fill="#BADFF4"/>
<path d="M90.9781 61.8526V60.0488C90.9781 59.4272 90.473 58.9277 89.857 58.9277H88.7748C88.1532 58.9277 87.6537 59.4328 87.6537 60.0488V61.8526C87.6537 62.4742 87.1487 62.9737 86.5327 62.9737C85.9111 62.9737 85.4116 63.4788 85.4116 64.0948V78.0588C85.4116 78.6804 85.9167 79.1799 86.5327 79.1799H92.1102C92.7318 79.1799 93.2313 78.6748 93.2313 78.0588V64.1004C93.2313 63.4788 92.7263 62.9793 92.1102 62.9793C91.4831 62.9737 90.9781 62.4742 90.9781 61.8526Z" fill="#CDE8F7"/>
<path d="M91.1333 58.3672H87.5259V60.7537H91.1333V58.3672Z" fill="#BADFF4"/>
<path d="M92.6878 66.9688H85.8616V75.5158H92.6878V66.9688Z" fill="#BADFF4"/>
<path d="M99.6918 61.8526V60.0488C99.6918 59.4272 99.1867 58.9277 98.5707 58.9277H97.4885C96.8669 58.9277 96.3674 59.4328 96.3674 60.0488V61.8526C96.3674 62.4742 95.8623 62.9737 95.2463 62.9737C94.6247 62.9737 94.1252 63.4788 94.1252 64.0948V78.0588C94.1252 78.6804 94.6303 79.1799 95.2463 79.1799H100.824C101.446 79.1799 101.945 78.6748 101.945 78.0588V64.1004C101.945 63.4788 101.44 62.9793 100.824 62.9793C100.197 62.9737 99.6918 62.4742 99.6918 61.8526Z" fill="#CDE8F7"/>
<path d="M99.8469 58.3672H96.2395V60.7537H99.8469V58.3672Z" fill="#BADFF4"/>
<path d="M101.402 66.9688H94.5754V75.5158H101.402V66.9688Z" fill="#BADFF4"/>
<path d="M108.405 61.8526V60.0488C108.405 59.4272 107.9 58.9277 107.284 58.9277H106.201C105.58 58.9277 105.08 59.4328 105.08 60.0488V61.8526C105.08 62.4742 104.575 62.9737 103.959 62.9737C103.338 62.9737 102.838 63.4788 102.838 64.0948V78.0588C102.838 78.6804 103.343 79.1799 103.959 79.1799H109.537C110.158 79.1799 110.658 78.6748 110.658 78.0588V64.1004C110.658 63.4788 110.153 62.9793 109.537 62.9793C108.91 62.9737 108.405 62.4742 108.405 61.8526Z" fill="#CDE8F7"/>
<path d="M108.56 58.3672H104.952V60.7537H108.56V58.3672Z" fill="#BADFF4"/>
<path d="M110.115 66.9688H103.288V75.5158H110.115V66.9688Z" fill="#BADFF4"/>
<path d="M117.117 61.8526V60.0488C117.117 59.4272 116.612 58.9277 115.996 58.9277H114.914C114.292 58.9277 113.793 59.4328 113.793 60.0488V61.8526C113.793 62.4742 113.288 62.9737 112.672 62.9737C112.05 62.9737 111.551 63.4788 111.551 64.0948V78.0588C111.551 78.6804 112.056 79.1799 112.672 79.1799H118.249C118.871 79.1799 119.37 78.6748 119.37 78.0588V64.1004C119.37 63.4788 118.865 62.9793 118.249 62.9793C117.622 62.9737 117.117 62.4742 117.117 61.8526Z" fill="#CDE8F7"/>
<path d="M117.272 58.3672H113.665V60.7537H117.272V58.3672Z" fill="#BADFF4"/>
<path d="M118.827 66.9688H112V75.5158H118.827V66.9688Z" fill="#BADFF4"/>
<path d="M125.831 61.8526V60.0488C125.831 59.4272 125.326 58.9277 124.71 58.9277H123.628C123.006 58.9277 122.507 59.4328 122.507 60.0488V61.8526C122.507 62.4742 122.002 62.9737 121.386 62.9737C120.764 62.9737 120.265 63.4788 120.265 64.0948V78.0588C120.265 78.6804 120.77 79.1799 121.386 79.1799H126.963C127.585 79.1799 128.085 78.6748 128.085 78.0588V64.1004C128.085 63.4788 127.58 62.9793 126.963 62.9793C126.336 62.9737 125.831 62.4742 125.831 61.8526Z" fill="#CDE8F7"/>
<path d="M125.987 58.3672H122.379V60.7537H125.987V58.3672Z" fill="#BADFF4"/>
<path d="M127.542 66.9688H120.715V75.5158H127.542V66.9688Z" fill="#BADFF4"/>
<path d="M133.6 65.6893V64.2851C133.6 63.8023 133.179 63.4082 132.657 63.4082H131.747C131.225 63.4082 130.803 63.8023 130.803 64.2851V65.6893C130.803 66.1721 130.381 66.5662 129.86 66.5662C129.338 66.5662 128.916 66.9602 128.916 67.4431V78.3101C128.916 78.793 129.338 79.187 129.86 79.187H134.549C135.071 79.187 135.493 78.793 135.493 78.3101V67.4431C135.493 66.9602 135.071 66.5662 134.549 66.5662C134.028 66.5662 133.6 66.1721 133.6 65.6893Z" fill="#CDE8F7"/>
<path d="M133.734 62.9746H130.698V64.8339H133.734V62.9746Z" fill="#BADFF4"/>
<path d="M135.037 69.6738H129.299V76.3283H135.037V69.6738Z" fill="#BADFF4"/>
<path d="M140.931 65.6893V64.2851C140.931 63.8023 140.51 63.4082 139.988 63.4082H139.078C138.556 63.4082 138.134 63.8023 138.134 64.2851V65.6893C138.134 66.1721 137.712 66.5662 137.191 66.5662C136.669 66.5662 136.247 66.9602 136.247 67.4431V78.3101C136.247 78.793 136.669 79.187 137.191 79.187H141.88C142.402 79.187 142.824 78.793 142.824 78.3101V67.4431C142.824 66.9602 142.402 66.5662 141.88 66.5662C141.353 66.5662 140.931 66.1721 140.931 65.6893Z" fill="#CDE8F7"/>
<path d="M141.059 62.9746H138.023V64.8339H141.059V62.9746Z" fill="#BADFF4"/>
<path d="M142.363 69.6738H136.625V76.3283H142.363V69.6738Z" fill="#BADFF4"/>
<path d="M148.258 65.6893V64.2851C148.258 63.8023 147.836 63.4082 147.315 63.4082H146.404C145.883 63.4082 145.461 63.8023 145.461 64.2851V65.6893C145.461 66.1721 145.039 66.5662 144.517 66.5662C143.996 66.5662 143.574 66.9602 143.574 67.4431V78.3101C143.574 78.793 143.996 79.187 144.517 79.187H149.207C149.729 79.187 150.151 78.793 150.151 78.3101V67.4431C150.151 66.9602 149.729 66.5662 149.207 66.5662C148.68 66.5662 148.258 66.1721 148.258 65.6893Z" fill="#CDE8F7"/>
<path d="M148.391 62.9746H145.355V64.8339H148.391V62.9746Z" fill="#BADFF4"/>
<path d="M149.69 69.6738H143.951V76.3283H149.69V69.6738Z" fill="#BADFF4"/>
<path d="M155.589 65.6893V64.2851C155.589 63.8023 155.167 63.4082 154.646 63.4082H153.73C153.208 63.4082 152.786 63.8023 152.786 64.2851V65.6893C152.786 66.1721 152.365 66.5662 151.843 66.5662C151.321 66.5662 150.899 66.9602 150.899 67.4431V78.3101C150.899 78.793 151.321 79.187 151.843 79.187H156.533C157.054 79.187 157.476 78.793 157.476 78.3101V67.4431C157.476 66.9602 157.054 66.5662 156.533 66.5662C156.011 66.5662 155.589 66.1721 155.589 65.6893Z" fill="#CDE8F7"/>
<path d="M155.717 62.9746H152.681V64.8339H155.717V62.9746Z" fill="#BADFF4"/>
<path d="M157.021 69.6738H151.282V76.3283H157.021V69.6738Z" fill="#BADFF4"/>
<path d="M162.916 65.6893V64.2851C162.916 63.8023 162.494 63.4082 161.972 63.4082H161.062C160.54 63.4082 160.118 63.8023 160.118 64.2851V65.6893C160.118 66.1721 159.697 66.5662 159.175 66.5662C158.653 66.5662 158.231 66.9602 158.231 67.4431V78.3101C158.231 78.793 158.653 79.187 159.175 79.187H163.865C164.386 79.187 164.808 78.793 164.808 78.3101V67.4431C164.808 66.9602 164.386 66.5662 163.865 66.5662C163.337 66.5662 162.916 66.1721 162.916 65.6893Z" fill="#CDE8F7"/>
<path d="M163.043 62.9746H160.007V64.8339H163.043V62.9746Z" fill="#BADFF4"/>
<path d="M164.348 69.6738H158.609V76.3283H164.348V69.6738Z" fill="#BADFF4"/>
<path d="M170.152 65.6893V64.2851C170.152 63.8023 169.73 63.4082 169.208 63.4082H168.298C167.777 63.4082 167.355 63.8023 167.355 64.2851V65.6893C167.355 66.1721 166.933 66.5662 166.411 66.5662C165.89 66.5662 165.468 66.9602 165.468 67.4431V78.3101C165.468 78.793 165.89 79.187 166.411 79.187H171.101C171.623 79.187 172.044 78.793 172.044 78.3101V67.4431C172.044 66.9602 171.623 66.5662 171.101 66.5662C170.574 66.5662 170.152 66.1721 170.152 65.6893Z" fill="#CDE8F7"/>
<path d="M170.279 62.9746H167.243V64.8339H170.279V62.9746Z" fill="#BADFF4"/>
<path d="M171.584 69.6738H165.845V76.3283H171.584V69.6738Z" fill="#BADFF4"/>
<path d="M177.478 65.6893V64.2851C177.478 63.8023 177.056 63.4082 176.534 63.4082H175.624C175.102 63.4082 174.681 63.8023 174.681 64.2851V65.6893C174.681 66.1721 174.259 66.5662 173.737 66.5662C173.215 66.5662 172.794 66.9602 172.794 67.4431V78.3101C172.794 78.793 173.215 79.187 173.737 79.187H178.427C178.948 79.187 179.37 78.793 179.37 78.3101V67.4431C179.37 66.9602 178.948 66.5662 178.427 66.5662C177.9 66.5662 177.478 66.1721 177.478 65.6893Z" fill="#CDE8F7"/>
<path d="M177.605 62.9746H174.569V64.8339H177.605V62.9746Z" fill="#BADFF4"/>
<path d="M178.91 69.6738H173.171V76.3283H178.91V69.6738Z" fill="#BADFF4"/>
<path d="M184.804 65.6893V64.2851C184.804 63.8023 184.382 63.4082 183.86 63.4082H182.95C182.428 63.4082 182.007 63.8023 182.007 64.2851V65.6893C182.007 66.1721 181.585 66.5662 181.063 66.5662C180.541 66.5662 180.12 66.9602 180.12 67.4431V78.3101C180.12 78.793 180.541 79.187 181.063 79.187H185.753C186.274 79.187 186.696 78.793 186.696 78.3101V67.4431C186.696 66.9602 186.274 66.5662 185.753 66.5662C185.231 66.5662 184.804 66.1721 184.804 65.6893Z" fill="#CDE8F7"/>
<path d="M184.937 62.9746H181.901V64.8339H184.937V62.9746Z" fill="#BADFF4"/>
<path d="M186.236 69.6738H180.497V76.3283H186.236V69.6738Z" fill="#BADFF4"/>
<path d="M192.136 65.6893V64.2851C192.136 63.8023 191.714 63.4082 191.193 63.4082H190.282C189.761 63.4082 189.339 63.8023 189.339 64.2851V65.6893C189.339 66.1721 188.917 66.5662 188.395 66.5662C187.874 66.5662 187.452 66.9602 187.452 67.4431V78.3101C187.452 78.793 187.874 79.187 188.395 79.187H193.085C193.607 79.187 194.028 78.793 194.028 78.3101V67.4431C194.028 66.9602 193.607 66.5662 193.085 66.5662C192.558 66.5662 192.136 66.1721 192.136 65.6893Z" fill="#CDE8F7"/>
<path d="M192.263 62.9746H189.228V64.8339H192.263V62.9746Z" fill="#BADFF4"/>
<path d="M193.568 69.6738H187.829V76.3283H193.568V69.6738Z" fill="#BADFF4"/>
<path d="M199.461 65.6893V64.2851C199.461 63.8023 199.04 63.4082 198.518 63.4082H197.608C197.086 63.4082 196.664 63.8023 196.664 64.2851V65.6893C196.664 66.1721 196.243 66.5662 195.721 66.5662C195.199 66.5662 194.777 66.9602 194.777 67.4431V78.3101C194.777 78.793 195.199 79.187 195.721 79.187H200.41C200.932 79.187 201.354 78.793 201.354 78.3101V67.4431C201.354 66.9602 200.932 66.5662 200.41 66.5662C199.883 66.5662 199.461 66.1721 199.461 65.6893Z" fill="#CDE8F7"/>
<path d="M198.606 97.7422H192.058V111.484H198.606V97.7422Z" fill="#8BD6F7"/>
<path d="M197.502 98.8456H193.156C192.546 98.8456 192.052 98.3517 192.052 97.7412C192.052 97.1307 192.546 96.6367 193.156 96.6367H197.502C198.112 96.6367 198.606 97.1307 198.606 97.7412C198.606 98.3517 198.112 98.8456 197.502 98.8456Z" fill="#BADFF4"/>
<path d="M196.062 98.2143C196.467 97.809 196.467 97.1519 196.062 96.7466C195.656 96.3413 194.999 96.3413 194.594 96.7466C194.189 97.1519 194.189 97.809 194.594 98.2143C194.999 98.6197 195.657 98.6197 196.062 98.2143Z" fill="#CDE8F7"/>
<path d="M191.263 97.7402H184.715V111.482H191.263V97.7402Z" fill="#8BD6F7"/>
<path d="M190.165 98.8456H185.819C185.209 98.8456 184.715 98.3517 184.715 97.7412C184.715 97.1307 185.209 96.6367 185.819 96.6367H190.165C190.775 96.6367 191.269 97.1307 191.269 97.7412C191.263 98.3517 190.77 98.8456 190.165 98.8456Z" fill="#BADFF4"/>
<path d="M188.72 98.2183C189.125 97.813 189.125 97.1558 188.72 96.7505C188.314 96.3452 187.657 96.3452 187.252 96.7505C186.847 97.1558 186.847 97.8129 187.252 98.2183C187.657 98.6236 188.314 98.6236 188.72 98.2183Z" fill="#CDE8F7"/>
<path d="M132.602 92.1133H123.372V111.489H132.602V92.1133Z" fill="#BADFF4"/>
<path d="M131.048 93.6666H124.926C124.066 93.6666 123.372 92.9729 123.372 92.1126C123.372 91.2523 124.066 90.5586 124.926 90.5586H131.048C131.908 90.5586 132.602 91.2523 132.602 92.1126C132.602 92.9673 131.908 93.6666 131.048 93.6666Z" fill="#BADFF4"/>
<path d="M129.435 91.978C129.564 91.1822 129.024 90.4324 128.228 90.3033C127.432 90.1742 126.683 90.7146 126.553 91.5103C126.424 92.3061 126.965 93.0559 127.76 93.185C128.556 93.3141 129.306 92.7737 129.435 91.978Z" fill="#CDE8F7"/>
<path d="M122.778 92.1133H113.549V111.489H122.778V92.1133Z" fill="#BADFF4"/>
<path d="M121.224 93.6686H115.103C114.243 93.6686 113.549 92.9748 113.549 92.1146C113.549 91.2543 114.243 90.5605 115.103 90.5605H121.224C122.085 90.5605 122.778 91.2543 122.778 92.1146C122.778 92.9693 122.085 93.6686 121.224 93.6686Z" fill="#BADFF4"/>
<path d="M119.611 91.978C119.74 91.1823 119.2 90.4325 118.404 90.3034C117.608 90.1742 116.859 90.7146 116.73 91.5103C116.6 92.3061 117.141 93.0559 117.937 93.185C118.732 93.3142 119.482 92.7738 119.611 91.978Z" fill="#CDE8F7"/>
<path d="M112.955 92.1133H103.725V111.489H112.955V92.1133Z" fill="#BADFF4"/>
<path d="M111.401 93.6686H105.279C104.419 93.6686 103.725 92.9748 103.725 92.1146C103.725 91.2543 104.419 90.5605 105.279 90.5605H111.401C112.261 90.5605 112.955 91.2543 112.955 92.1146C112.955 92.9693 112.261 93.6686 111.401 93.6686Z" fill="#BADFF4"/>
<path d="M109.787 91.9781C109.917 91.1823 109.376 90.4325 108.581 90.3034C107.785 90.1742 107.035 90.7146 106.906 91.5103C106.777 92.3061 107.317 93.0559 108.113 93.185C108.909 93.3142 109.658 92.7738 109.787 91.9781Z" fill="#CDE8F7"/>
<path d="M103.131 92.1113H93.9019V111.487H103.131V92.1113Z" fill="#BADFF4"/>
<path d="M101.577 93.6666H95.4558C94.5956 93.6666 93.9019 92.9729 93.9019 92.1126C93.9019 91.2523 94.5956 90.5586 95.4558 90.5586H101.577C102.438 90.5586 103.131 91.2523 103.131 92.1126C103.131 92.9673 102.438 93.6666 101.577 93.6666Z" fill="#BADFF4"/>
<path d="M99.9641 91.978C100.093 91.1822 99.5528 90.4324 98.7571 90.3033C97.9614 90.1742 97.2116 90.7146 97.0825 91.5103C96.9533 92.3061 97.4937 93.0559 98.2894 93.185C99.0852 93.3142 99.8349 92.7738 99.9641 91.978Z" fill="#CDE8F7"/>
<path d="M93.3086 92.1152H84.0792V111.49H93.3086V92.1152Z" fill="#BADFF4"/>
<path d="M91.7546 93.6686H85.6332C84.7729 93.6686 84.0792 92.9748 84.0792 92.1146C84.0792 91.2543 84.7729 90.5605 85.6332 90.5605H91.7546C92.6148 90.5605 93.3086 91.2543 93.3086 92.1146C93.3086 92.9693 92.6148 93.6686 91.7546 93.6686Z" fill="#BADFF4"/>
<path d="M90.1414 91.978C90.2705 91.1823 89.7301 90.4325 88.9344 90.3034C88.1387 90.1742 87.389 90.7146 87.2598 91.5103C87.1307 92.3061 87.6711 93.0559 88.4668 93.185C89.2625 93.3142 90.0122 92.7738 90.1414 91.978Z" fill="#CDE8F7"/>
<path d="M83.485 92.1133H74.2555V111.489H83.485V92.1133Z" fill="#BADFF4"/>
<path d="M81.931 93.6686H75.8095C74.9492 93.6686 74.2555 92.9748 74.2555 92.1146C74.2555 91.2543 74.9492 90.5605 75.8095 90.5605H81.931C82.7913 90.5605 83.485 91.2543 83.485 92.1146C83.485 92.9693 82.7913 93.6686 81.931 93.6686Z" fill="#BADFF4"/>
<path d="M80.3168 91.978C80.4459 91.1823 79.9056 90.4325 79.1098 90.3034C78.3141 90.1742 77.5644 90.7146 77.4352 91.5103C77.3061 92.3061 77.8465 93.0559 78.6422 93.185C79.4379 93.3142 80.1876 92.7738 80.3168 91.978Z" fill="#CDE8F7"/>
<path d="M73.6611 92.1113H64.4316V111.487H73.6611V92.1113Z" fill="#BADFF4"/>
<path d="M72.1071 93.6666H65.9856C65.1254 93.6666 64.4316 92.9729 64.4316 92.1126C64.4316 91.2523 65.1254 90.5586 65.9856 90.5586H72.1071C72.9673 90.5586 73.6611 91.2523 73.6611 92.1126C73.6611 92.9673 72.9673 93.6666 72.1071 93.6666Z" fill="#BADFF4"/>
<path d="M70.4939 91.978C70.623 91.1822 70.0826 90.4324 69.2869 90.3033C68.4912 90.1741 67.7414 90.7145 67.6123 91.5103C67.4831 92.3061 68.0235 93.0559 68.8192 93.185C69.615 93.3142 70.3647 92.7738 70.4939 91.978Z" fill="#CDE8F7"/>
<path d="M63.8384 92.1113H54.609V111.487H63.8384V92.1113Z" fill="#BADFF4"/>
<path d="M62.2845 93.6666H56.163C55.3027 93.6666 54.609 92.9729 54.609 92.1126C54.609 91.2523 55.3027 90.5586 56.163 90.5586H62.2845C63.1447 90.5586 63.8384 91.2523 63.8384 92.1126C63.8384 92.9673 63.1447 93.6666 62.2845 93.6666Z" fill="#BADFF4"/>
<path d="M60.6703 91.978C60.7995 91.1822 60.2591 90.4324 59.4634 90.3033C58.6677 90.1742 57.9179 90.7146 57.7888 91.5103C57.6596 92.3061 58.2 93.0559 58.9957 93.185C59.7914 93.3141 60.5412 92.7737 60.6703 91.978Z" fill="#CDE8F7"/>
<path d="M183.927 97.7422H177.378V111.484H183.927V97.7422Z" fill="#8BD6F7"/>
<path d="M182.822 98.8456H178.477C177.866 98.8456 177.372 98.3517 177.372 97.7412C177.372 97.1307 177.866 96.6367 178.477 96.6367H182.822C183.433 96.6367 183.927 97.1307 183.927 97.7412C183.927 98.3517 183.433 98.8456 182.822 98.8456Z" fill="#BADFF4"/>
<path d="M181.382 98.2143C181.787 97.809 181.787 97.1519 181.382 96.7466C180.977 96.3413 180.32 96.3413 179.914 96.7466C179.509 97.1519 179.509 97.809 179.914 98.2143C180.32 98.6197 180.977 98.6197 181.382 98.2143Z" fill="#CDE8F7"/>
<path d="M176.583 97.7402H170.034V111.482H176.583V97.7402Z" fill="#8BD6F7"/>
<path d="M175.484 98.8456H171.139C170.528 98.8456 170.034 98.3517 170.034 97.7412C170.034 97.1307 170.528 96.6367 171.139 96.6367H175.484C176.095 96.6367 176.589 97.1307 176.589 97.7412C176.583 98.3517 176.089 98.8456 175.484 98.8456Z" fill="#BADFF4"/>
<path d="M174.039 98.2163C174.445 97.811 174.445 97.1539 174.039 96.7486C173.634 96.3433 172.977 96.3433 172.572 96.7486C172.166 97.1539 172.166 97.811 172.572 98.2163C172.977 98.6215 173.634 98.6216 174.039 98.2163Z" fill="#CDE8F7"/>
<path d="M169.248 97.7422H162.699V111.484H169.248V97.7422Z" fill="#8BD6F7"/>
<path d="M168.143 98.8456H163.798C163.187 98.8456 162.693 98.3517 162.693 97.7412C162.693 97.1307 163.187 96.6367 163.798 96.6367H168.143C168.754 96.6367 169.248 97.1307 169.248 97.7412C169.248 98.3517 168.754 98.8456 168.143 98.8456Z" fill="#BADFF4"/>
<path d="M166.703 98.2144C167.108 97.809 167.108 97.1519 166.703 96.7466C166.298 96.3413 165.641 96.3413 165.235 96.7466C164.83 97.1519 164.83 97.809 165.235 98.2144C165.641 98.6197 166.298 98.6197 166.703 98.2144Z" fill="#CDE8F7"/>
<path d="M161.905 97.7402H155.356V111.482H161.905V97.7402Z" fill="#8BD6F7"/>
<path d="M160.806 98.8456H156.46C155.85 98.8456 155.356 98.3517 155.356 97.7412C155.356 97.1307 155.85 96.6367 156.46 96.6367H160.806C161.416 96.6367 161.91 97.1307 161.91 97.7412C161.905 98.3517 161.411 98.8456 160.806 98.8456Z" fill="#BADFF4"/>
<path d="M159.361 98.2163C159.766 97.811 159.766 97.1539 159.361 96.7485C158.956 96.3432 158.299 96.3432 157.893 96.7485C157.488 97.1539 157.488 97.811 157.893 98.2163C158.299 98.6216 158.956 98.6216 159.361 98.2163Z" fill="#CDE8F7"/>
<path d="M154.568 97.7422H148.02V111.484H154.568V97.7422Z" fill="#8BD6F7"/>
<path d="M153.464 98.8456H149.118C148.508 98.8456 148.014 98.3517 148.014 97.7412C148.014 97.1307 148.508 96.6367 149.118 96.6367H153.464C154.074 96.6367 154.568 97.1307 154.568 97.7412C154.568 98.3517 154.074 98.8456 153.464 98.8456Z" fill="#BADFF4"/>
<path d="M152.024 98.2144C152.429 97.809 152.429 97.1519 152.023 96.7466C151.618 96.3413 150.961 96.3413 150.556 96.7466C150.151 97.1519 150.151 97.809 150.556 98.2144C150.961 98.6197 151.618 98.6197 152.024 98.2144Z" fill="#CDE8F7"/>
<path d="M147.226 97.7402H140.677V111.482H147.226V97.7402Z" fill="#8BD6F7"/>
<path d="M146.127 98.8456H141.781C141.171 98.8456 140.677 98.3517 140.677 97.7412C140.677 97.1307 141.171 96.6367 141.781 96.6367H146.127C146.737 96.6367 147.231 97.1307 147.231 97.7412C147.226 98.3517 146.732 98.8456 146.127 98.8456Z" fill="#BADFF4"/>
<path d="M144.683 98.2163C145.088 97.811 145.088 97.1539 144.683 96.7485C144.277 96.3432 143.62 96.3432 143.215 96.7485C142.81 97.1539 142.81 97.811 143.215 98.2163C143.62 98.6216 144.277 98.6216 144.683 98.2163Z" fill="#CDE8F7"/>
<path d="M139.888 97.7422H133.339V111.484H139.888V97.7422Z" fill="#8BD6F7"/>
<path d="M138.784 98.8456H134.438C133.828 98.8456 133.334 98.3517 133.334 97.7412C133.334 97.1307 133.828 96.6367 134.438 96.6367H138.784C139.394 96.6367 139.888 97.1307 139.888 97.7412C139.888 98.3517 139.394 98.8456 138.784 98.8456Z" fill="#BADFF4"/>
<path d="M137.343 98.2143C137.749 97.809 137.749 97.1519 137.343 96.7466C136.938 96.3413 136.281 96.3413 135.876 96.7466C135.47 97.1519 135.47 97.809 135.876 98.2143C136.281 98.6196 136.938 98.6196 137.343 98.2143Z" fill="#CDE8F7"/>
<path d="M203.906 111.596H-0.772705V115.814H203.906V111.596Z" fill="#2DB3BE"/>
<path d="M203.906 144.674H-0.994873V148.892H203.906V144.674Z" fill="#2DB3BE"/>
<path d="M203.906 53.043H9.1062V56.9835H203.906V53.043Z" fill="#2DB3BE"/>
<path d="M203.906 19.8535H9.1062V23.794H203.906V19.8535Z" fill="#2DB3BE"/>
<path d="M72.8767 52.9327H66.1058L65.4954 47.6602H73.4872L72.8767 52.9327Z" fill="#BADFF4"/>
<path d="M74.1538 47.4375H64.8301V47.7705H74.1538V47.4375Z" fill="#8BD6F7"/>
<path d="M72.9603 51.9915H65.9675L65.6345 49.1055H73.3488L72.9603 51.9915Z" fill="#CDE8F7"/>
<path d="M81.8123 52.9327H75.0414L74.4309 47.6602H82.4228L81.8123 52.9327Z" fill="#BADFF4"/>
<path d="M83.0882 47.4375H73.7644V47.7705H83.0882V47.4375Z" fill="#8BD6F7"/>
<path d="M81.8949 51.9915H74.9021L74.5691 49.1055H82.2834L81.8949 51.9915Z" fill="#CDE8F7"/>
<path d="M72.8767 47.2686H66.1058L65.4954 41.9961H73.4872L72.8767 47.2686Z" fill="#BADFF4"/>
<path d="M74.1538 41.7754H64.8301V42.1084H74.1538V41.7754Z" fill="#8BD6F7"/>
<path d="M72.9603 46.3274H65.9675L65.6345 43.4414H73.3488L72.9603 46.3274Z" fill="#CDE8F7"/>
<path d="M81.8123 47.2686H75.0414L74.4309 41.9961H82.4228L81.8123 47.2686Z" fill="#BADFF4"/>
<path d="M83.0882 41.7754H73.7644V42.1084H83.0882V41.7754Z" fill="#8BD6F7"/>
<path d="M81.8949 46.3274H74.9021L74.5691 43.4414H82.2834L81.8949 46.3274Z" fill="#CDE8F7"/>
<path d="M72.8772 41.6632H66.1063L65.4958 36.3906H73.4876L72.8772 41.6632Z" fill="#BADFF4"/>
<path d="M74.1541 36.1699H64.8303V36.5029H74.1541V36.1699Z" fill="#8BD6F7"/>
<path d="M72.9608 40.722H65.968L65.635 37.8359H73.3493L72.9608 40.722Z" fill="#CDE8F7"/>
<path d="M81.8123 41.6632H75.0414L74.4309 36.3906H82.4228L81.8123 41.6632Z" fill="#BADFF4"/>
<path d="M83.0894 36.1699H73.7656V36.5029H83.0894V36.1699Z" fill="#8BD6F7"/>
<path d="M81.8959 40.722H74.9031L74.5701 37.8359H82.2844L81.8959 40.722Z" fill="#CDE8F7"/>
<path d="M91.6372 52.9308H84.8663L84.2559 47.6582H92.2477L91.6372 52.9308Z" fill="#BADFF4"/>
<path d="M92.9143 47.4355H83.5906V47.7686H92.9143V47.4355Z" fill="#8BD6F7"/>
<path d="M91.7208 51.9876H84.728L84.395 49.1016H92.1093L91.7208 51.9876Z" fill="#CDE8F7"/>
<path d="M100.573 52.9308H93.8019L93.1914 47.6582H101.183L100.573 52.9308Z" fill="#BADFF4"/>
<path d="M101.85 47.4355H92.5261V47.7686H101.85V47.4355Z" fill="#8BD6F7"/>
<path d="M100.656 51.9876H93.6628L93.3298 49.1016H101.044L100.656 51.9876Z" fill="#CDE8F7"/>
<path d="M91.6379 47.2686H84.8671L84.2566 41.9961H92.2484L91.6379 47.2686Z" fill="#BADFF4"/>
<path d="M92.9148 41.7754H83.5911V42.1084H92.9148V41.7754Z" fill="#8BD6F7"/>
<path d="M91.7216 46.3274H84.7287L84.3958 43.4414H92.1101L91.7216 46.3274Z" fill="#CDE8F7"/>
<path d="M100.573 47.2686H93.8021L93.1917 41.9961H101.183L100.573 47.2686Z" fill="#BADFF4"/>
<path d="M101.85 41.7754H92.5264V42.1084H101.85V41.7754Z" fill="#8BD6F7"/>
<path d="M100.656 46.3274H93.6631L93.3301 43.4414H101.044L100.656 46.3274Z" fill="#CDE8F7"/>
<path d="M91.6369 41.6632H84.8661L84.2556 36.3906H92.2474L91.6369 41.6632Z" fill="#BADFF4"/>
<path d="M92.9139 36.1699H83.5901V36.5029H92.9139V36.1699Z" fill="#8BD6F7"/>
<path d="M91.7206 40.722H84.7278L84.3948 37.8359H92.1091L91.7206 40.722Z" fill="#CDE8F7"/>
<path d="M100.573 41.6632H93.8026L93.1921 36.3906H101.184L100.573 41.6632Z" fill="#BADFF4"/>
<path d="M101.849 36.1699H92.5254V36.5029H101.849V36.1699Z" fill="#8BD6F7"/>
<path d="M100.656 40.722H93.6633L93.3303 37.8359H101.045L100.656 40.722Z" fill="#CDE8F7"/>
<path d="M111.118 52.9327H104.347L103.736 47.6602H111.728L111.118 52.9327Z" fill="#BADFF4"/>
<path d="M112.394 47.4375H103.07V47.7705H112.394V47.4375Z" fill="#8BD6F7"/>
<path d="M111.201 51.9915H104.208L103.875 49.1055H111.59L111.201 51.9915Z" fill="#CDE8F7"/>
<path d="M120.053 52.9327H113.282L112.672 47.6602H120.664L120.053 52.9327Z" fill="#BADFF4"/>
<path d="M121.33 47.4375H112.006V47.7705H121.33V47.4375Z" fill="#8BD6F7"/>
<path d="M120.136 51.9915H113.143L112.81 49.1055H120.525L120.136 51.9915Z" fill="#CDE8F7"/>
<path d="M111.118 47.2686H104.347L103.736 41.9961H111.728L111.118 47.2686Z" fill="#BADFF4"/>
<path d="M112.394 41.7754H103.07V42.1084H112.394V41.7754Z" fill="#8BD6F7"/>
<path d="M111.201 46.3274H104.208L103.875 43.4414H111.59L111.201 46.3274Z" fill="#CDE8F7"/>
<path d="M120.053 47.2686H113.282L112.672 41.9961H120.664L120.053 47.2686Z" fill="#BADFF4"/>
<path d="M121.33 41.7754H112.006V42.1084H121.33V41.7754Z" fill="#8BD6F7"/>
<path d="M120.136 46.3274H113.143L112.81 43.4414H120.525L120.136 46.3274Z" fill="#CDE8F7"/>
<path d="M111.117 41.6632H104.346L103.735 36.3906H111.727L111.117 41.6632Z" fill="#BADFF4"/>
<path d="M112.393 36.1699H103.069V36.5029H112.393V36.1699Z" fill="#8BD6F7"/>
<path d="M111.2 40.722H104.208L103.875 37.8359H111.589L111.2 40.722Z" fill="#CDE8F7"/>
<path d="M120.053 41.6632H113.282L112.672 36.3906H120.664L120.053 41.6632Z" fill="#BADFF4"/>
<path d="M121.329 36.1699H112.005V36.5029H121.329V36.1699Z" fill="#8BD6F7"/>
<path d="M120.136 40.722H113.143L112.81 37.8359H120.525L120.136 40.722Z" fill="#CDE8F7"/>
<path d="M127.607 6.41779V5.01363C127.607 4.53077 127.185 4.13672 126.664 4.13672H125.753C125.232 4.13672 124.81 4.53077 124.81 5.01363V6.41779C124.81 6.90064 124.388 7.2947 123.866 7.2947C123.345 7.2947 122.923 7.68875 122.923 8.17161V19.0386C122.923 19.5215 123.345 19.9155 123.866 19.9155H128.556C129.078 19.9155 129.5 19.5215 129.5 19.0386V8.16606C129.5 7.6832 129.078 7.28915 128.556 7.28915C128.034 7.2947 127.607 6.90064 127.607 6.41779Z" fill="#CDE8F7"/>
<path d="M127.74 3.70312H124.704V5.56239H127.74V3.70312Z" fill="#BADFF4"/>
<path d="M129.044 10.4023H123.305V17.0569H129.044V10.4023Z" fill="#BADFF4"/>
<path d="M134.939 6.41779V5.01363C134.939 4.53077 134.517 4.13672 133.995 4.13672H133.085C132.563 4.13672 132.141 4.53077 132.141 5.01363V6.41779C132.141 6.90064 131.72 7.2947 131.198 7.2947C130.676 7.2947 130.255 7.68875 130.255 8.17161V19.0386C130.255 19.5215 130.676 19.9155 131.198 19.9155H135.888C136.409 19.9155 136.831 19.5215 136.831 19.0386V8.16606C136.831 7.6832 136.409 7.28915 135.888 7.28915C135.36 7.2947 134.939 6.90064 134.939 6.41779Z" fill="#CDE8F7"/>
<path d="M135.066 3.70312H132.03V5.56239H135.066V3.70312Z" fill="#BADFF4"/>
<path d="M136.371 10.4023H130.632V17.0569H136.371V10.4023Z" fill="#BADFF4"/>
<path d="M142.264 6.41779V5.01363C142.264 4.53077 141.842 4.13672 141.321 4.13672H140.411C139.889 4.13672 139.467 4.53077 139.467 5.01363V6.41779C139.467 6.90064 139.045 7.2947 138.524 7.2947C138.002 7.2947 137.58 7.68875 137.58 8.17161V19.0386C137.58 19.5215 138.002 19.9155 138.524 19.9155H143.213C143.735 19.9155 144.157 19.5215 144.157 19.0386V8.16606C144.157 7.6832 143.735 7.28915 143.213 7.28915C142.686 7.2947 142.264 6.90064 142.264 6.41779Z" fill="#CDE8F7"/>
<path d="M142.397 3.70312H139.362V5.56239H142.397V3.70312Z" fill="#BADFF4"/>
<path d="M143.696 10.4023H137.958V17.0569H143.696V10.4023Z" fill="#BADFF4"/>
<path d="M149.596 6.41779V5.01363C149.596 4.53077 149.174 4.13672 148.653 4.13672H147.737C147.215 4.13672 146.793 4.53077 146.793 5.01363V6.41779C146.793 6.90064 146.372 7.2947 145.85 7.2947C145.328 7.2947 144.906 7.68875 144.906 8.17161V19.0386C144.906 19.5215 145.328 19.9155 145.85 19.9155H150.54C151.061 19.9155 151.483 19.5215 151.483 19.0386V8.16606C151.483 7.6832 151.061 7.28915 150.54 7.28915C150.018 7.2947 149.596 6.90064 149.596 6.41779Z" fill="#CDE8F7"/>
<path d="M149.724 3.70312H146.688V5.56239H149.724V3.70312Z" fill="#BADFF4"/>
<path d="M151.028 10.4023H145.289V17.0569H151.028V10.4023Z" fill="#BADFF4"/>
<path d="M156.922 6.41779V5.01363C156.922 4.53077 156.5 4.13672 155.978 4.13672H155.068C154.546 4.13672 154.125 4.53077 154.125 5.01363V6.41779C154.125 6.90064 153.703 7.2947 153.181 7.2947C152.659 7.2947 152.238 7.68875 152.238 8.17161V19.0386C152.238 19.5215 152.659 19.9155 153.181 19.9155H157.871C158.392 19.9155 158.814 19.5215 158.814 19.0386V8.16606C158.814 7.6832 158.392 7.28915 157.871 7.28915C157.343 7.2947 156.922 6.90064 156.922 6.41779Z" fill="#CDE8F7"/>
<path d="M157.049 3.70312H154.013V5.56239H157.049V3.70312Z" fill="#BADFF4"/>
<path d="M158.354 10.4023H152.615V17.0569H158.354V10.4023Z" fill="#BADFF4"/>
<path d="M164.158 6.41779V5.01363C164.158 4.53077 163.736 4.13672 163.215 4.13672H162.305C161.783 4.13672 161.361 4.53077 161.361 5.01363V6.41779C161.361 6.90064 160.939 7.2947 160.418 7.2947C159.896 7.2947 159.474 7.68875 159.474 8.17161V19.0386C159.474 19.5215 159.896 19.9155 160.418 19.9155H165.107C165.629 19.9155 166.051 19.5215 166.051 19.0386V8.16606C166.051 7.6832 165.629 7.28915 165.107 7.28915C164.58 7.2947 164.158 6.90064 164.158 6.41779Z" fill="#CDE8F7"/>
<path d="M164.286 3.70312H161.25V5.56239H164.286V3.70312Z" fill="#BADFF4"/>
<path d="M165.59 10.4023H159.852V17.0569H165.59V10.4023Z" fill="#BADFF4"/>
<path d="M171.483 6.41779V5.01363C171.483 4.53077 171.061 4.13672 170.539 4.13672H169.629C169.108 4.13672 168.686 4.53077 168.686 5.01363V6.41779C168.686 6.90064 168.264 7.2947 167.742 7.2947C167.221 7.2947 166.799 7.68875 166.799 8.17161V19.0386C166.799 19.5215 167.221 19.9155 167.742 19.9155H172.432C172.954 19.9155 173.375 19.5215 173.375 19.0386V8.16606C173.375 7.6832 172.954 7.28915 172.432 7.28915C171.905 7.2947 171.483 6.90064 171.483 6.41779Z" fill="#CDE8F7"/>
<path d="M171.61 3.70312H168.574V5.56239H171.61V3.70312Z" fill="#BADFF4"/>
<path d="M172.915 10.4023H167.176V17.0569H172.915V10.4023Z" fill="#BADFF4"/>
<path d="M178.811 6.41779V5.01363C178.811 4.53077 178.389 4.13672 177.867 4.13672H176.957C176.435 4.13672 176.014 4.53077 176.014 5.01363V6.41779C176.014 6.90064 175.592 7.2947 175.07 7.2947C174.548 7.2947 174.127 7.68875 174.127 8.17161V19.0386C174.127 19.5215 174.548 19.9155 175.07 19.9155H179.76C180.281 19.9155 180.703 19.5215 180.703 19.0386V8.16606C180.703 7.6832 180.281 7.28915 179.76 7.28915C179.238 7.2947 178.811 6.90064 178.811 6.41779Z" fill="#CDE8F7"/>
<path d="M178.944 3.70312H175.908V5.56239H178.944V3.70312Z" fill="#BADFF4"/>
<path d="M180.243 10.4023H174.504V17.0569H180.243V10.4023Z" fill="#BADFF4"/>
<path d="M186.14 6.41779V5.01363C186.14 4.53077 185.719 4.13672 185.197 4.13672H184.287C183.765 4.13672 183.343 4.53077 183.343 5.01363V6.41779C183.343 6.90064 182.921 7.2947 182.4 7.2947C181.878 7.2947 181.456 7.68875 181.456 8.17161V19.0386C181.456 19.5215 181.878 19.9155 182.4 19.9155H187.089C187.611 19.9155 188.033 19.5215 188.033 19.0386V8.16606C188.033 7.6832 187.611 7.28915 187.089 7.28915C186.562 7.2947 186.14 6.90064 186.14 6.41779Z" fill="#CDE8F7"/>
<path d="M186.268 3.70312H183.232V5.56239H186.268V3.70312Z" fill="#BADFF4"/>
<path d="M187.573 10.4023H181.834V17.0569H187.573V10.4023Z" fill="#BADFF4"/>
<path d="M193.467 6.41779V5.01363C193.467 4.53077 193.045 4.13672 192.523 4.13672H191.613C191.092 4.13672 190.67 4.53077 190.67 5.01363V6.41779C190.67 6.90064 190.248 7.2947 189.726 7.2947C189.205 7.2947 188.783 7.68875 188.783 8.17161V19.0386C188.783 19.5215 189.205 19.9155 189.726 19.9155H194.416C194.938 19.9155 195.359 19.5215 195.359 19.0386V8.16606C195.359 7.6832 194.938 7.28915 194.416 7.28915C193.889 7.2947 193.467 6.90064 193.467 6.41779Z" fill="#CDE8F7"/>
<path d="M193.6 3.70312H190.564V5.56239H193.6V3.70312Z" fill="#BADFF4"/>
<path d="M194.899 10.4023H189.16V17.0569H194.899V10.4023Z" fill="#BADFF4"/>
<path d="M73.3217 20.5186H66.5509L65.9404 15.2461H73.9321L73.3217 20.5186Z" fill="#BADFF4"/>
<path d="M74.5989 15.0234H65.2751V15.3564H74.5989V15.0234Z" fill="#8BD6F7"/>
<path d="M73.4054 19.5755H66.4126L66.0796 16.6895H73.7939L73.4054 19.5755Z" fill="#CDE8F7"/>
<path d="M82.257 20.5186H75.4862L74.8757 15.2461H82.8675L82.257 20.5186Z" fill="#BADFF4"/>
<path d="M83.5331 15.0234H74.2095V15.3564H83.5331V15.0234Z" fill="#8BD6F7"/>
<path d="M82.3401 19.5755H75.3472L75.0142 16.6895H82.7286L82.3401 19.5755Z" fill="#CDE8F7"/>
<path d="M73.3217 14.8565H66.5509L65.9404 9.58398H73.9321L73.3217 14.8565Z" fill="#BADFF4"/>
<path d="M74.5989 9.36133H65.2751V9.69433H74.5989V9.36133Z" fill="#8BD6F7"/>
<path d="M73.4054 13.9134H66.4126L66.0796 11.0273H73.7939L73.4054 13.9134Z" fill="#CDE8F7"/>
<path d="M82.257 14.8565H75.4862L74.8757 9.58398H82.8675L82.257 14.8565Z" fill="#BADFF4"/>
<path d="M83.5331 9.36133H74.2095V9.69433H83.5331V9.36133Z" fill="#8BD6F7"/>
<path d="M82.3401 13.9134H75.3472L75.0142 11.0273H82.7286L82.3401 13.9134Z" fill="#CDE8F7"/>
<path d="M73.3214 9.25302H66.5507L65.9402 3.98047H73.9319L73.3214 9.25302Z" fill="#BADFF4"/>
<path d="M74.5984 3.75781H65.2747V4.09082H74.5984V3.75781Z" fill="#8BD6F7"/>
<path d="M73.4052 8.3079H66.4123L66.0793 5.42188H73.7936L73.4052 8.3079Z" fill="#CDE8F7"/>
<path d="M82.257 9.25302H75.4862L74.8757 3.98047H82.8675L82.257 9.25302Z" fill="#BADFF4"/>
<path d="M83.5331 3.75586H74.2095V4.08886H83.5331V3.75586Z" fill="#8BD6F7"/>
<path d="M82.3401 8.3079H75.3472L75.0142 5.42188H82.7286L82.3401 8.3079Z" fill="#CDE8F7"/>
<path d="M92.082 20.5186H85.3112L84.7007 15.2461H92.6925L92.082 20.5186Z" fill="#BADFF4"/>
<path d="M93.3581 15.0234H84.0343V15.3564H93.3581V15.0234Z" fill="#8BD6F7"/>
<path d="M92.1648 19.5755H85.172L84.839 16.6895H92.5533L92.1648 19.5755Z" fill="#CDE8F7"/>
<path d="M101.017 20.5186H94.2458L93.6353 15.2461H101.627L101.017 20.5186Z" fill="#BADFF4"/>
<path d="M102.293 15.0234H92.9697V15.3564H102.293V15.0234Z" fill="#8BD6F7"/>
<path d="M101.1 19.5755H94.1074L93.7744 16.6895H101.489L101.1 19.5755Z" fill="#CDE8F7"/>
<path d="M92.082 14.8565H85.3112L84.7007 9.58398H92.6925L92.082 14.8565Z" fill="#BADFF4"/>
<path d="M93.3581 9.36133H84.0343V9.69433H93.3581V9.36133Z" fill="#8BD6F7"/>
<path d="M92.1648 13.9134H85.172L84.839 11.0273H92.5533L92.1648 13.9134Z" fill="#CDE8F7"/>
<path d="M101.017 14.8565H94.2458L93.6353 9.58398H101.627L101.017 14.8565Z" fill="#BADFF4"/>
<path d="M102.293 9.36133H92.9697V9.69433H102.293V9.36133Z" fill="#8BD6F7"/>
<path d="M101.1 13.9134H94.1074L93.7744 11.0273H101.489L101.1 13.9134Z" fill="#CDE8F7"/>
<path d="M92.0817 9.25302H85.3109L84.7004 3.98047H92.6922L92.0817 9.25302Z" fill="#BADFF4"/>
<path d="M93.358 3.75781H84.0342V4.09082H93.358V3.75781Z" fill="#8BD6F7"/>
<path d="M92.1647 8.3079H85.1719L84.8389 5.42188H92.5532L92.1647 8.3079Z" fill="#CDE8F7"/>
<path d="M101.017 9.25302H94.2458L93.6353 3.98047H101.627L101.017 9.25302Z" fill="#BADFF4"/>
<path d="M102.293 3.75586H92.9697V4.08886H102.293V3.75586Z" fill="#8BD6F7"/>
<path d="M101.1 8.3079H94.1074L93.7744 5.42188H101.489L101.1 8.3079Z" fill="#CDE8F7"/>
<path d="M111.563 20.5186H104.792L104.181 15.2461H112.173L111.563 20.5186Z" fill="#BADFF4"/>
<path d="M112.839 15.0234H103.516V15.3564H112.839V15.0234Z" fill="#8BD6F7"/>
<path d="M111.646 19.5755H104.654L104.321 16.6895H112.035L111.646 19.5755Z" fill="#CDE8F7"/>
<path d="M120.499 20.5186H113.728L113.118 15.2461H121.11L120.499 20.5186Z" fill="#BADFF4"/>
<path d="M121.775 15.0234H112.451V15.3564H121.775V15.0234Z" fill="#8BD6F7"/>
<path d="M120.582 19.5755H113.589L113.256 16.6895H120.971L120.582 19.5755Z" fill="#CDE8F7"/>
<path d="M111.563 14.8565H104.792L104.181 9.58398H112.173L111.563 14.8565Z" fill="#BADFF4"/>
<path d="M112.839 9.36133H103.516V9.69433H112.839V9.36133Z" fill="#8BD6F7"/>
<path d="M111.646 13.9134H104.654L104.321 11.0273H112.035L111.646 13.9134Z" fill="#CDE8F7"/>
<path d="M120.498 14.8565H113.728L113.117 9.58398H121.109L120.498 14.8565Z" fill="#BADFF4"/>
<path d="M121.775 9.36133H112.451V9.69433H121.775V9.36133Z" fill="#8BD6F7"/>
<path d="M120.581 13.9134H113.589L113.256 11.0273H120.97L120.581 13.9134Z" fill="#CDE8F7"/>
<path d="M111.563 9.25302H104.792L104.182 3.98047H112.173L111.563 9.25302Z" fill="#BADFF4"/>
<path d="M112.84 3.75781H103.516V4.09082H112.84V3.75781Z" fill="#8BD6F7"/>
<path d="M111.647 8.3079H104.654L104.321 5.42188H112.035L111.647 8.3079Z" fill="#CDE8F7"/>
<path d="M120.498 9.25302H113.728L113.117 3.98047H121.109L120.498 9.25302Z" fill="#BADFF4"/>
<path d="M121.775 3.75586H112.451V4.08886H121.775V3.75586Z" fill="#8BD6F7"/>
<path d="M120.581 8.3079H113.589L113.256 5.42188H120.97L120.581 8.3079Z" fill="#CDE8F7"/>
<path d="M51.4512 91.7691V89.7322C51.4512 89.0329 50.8851 88.4668 50.1858 88.4668H48.9648C48.2655 88.4668 47.6994 89.0329 47.6994 89.7322V91.7691C47.6994 92.4684 47.1334 93.0345 46.4341 93.0345C45.7348 93.0345 45.1687 93.6006 45.1687 94.2999V110.045C45.1687 110.745 45.7348 111.311 46.4341 111.311H52.7221C53.4214 111.311 53.9875 110.745 53.9875 110.045V94.2999C53.9875 93.6006 53.4214 93.0345 52.7221 93.0345C52.0228 93.04 51.4512 92.4684 51.4512 91.7691Z" fill="#8BD6F7"/>
<path d="M51.6227 87.8398H47.5547V90.5316H51.6227V87.8398Z" fill="#BADFF4"/>
<path d="M53.3767 97.5469H45.679V107.187H53.3767V97.5469Z" fill="#BADFF4"/>
<path d="M41.9829 91.7691V89.7322C41.9829 89.0329 41.4168 88.4668 40.7175 88.4668H39.4965C38.7973 88.4668 38.2312 89.0329 38.2312 89.7322V91.7691C38.2312 92.4684 37.6651 93.0345 36.9658 93.0345C36.2665 93.0345 35.7004 93.6006 35.7004 94.2999V110.045C35.7004 110.745 36.2665 111.311 36.9658 111.311H43.2593C43.9586 111.311 44.5247 110.745 44.5247 110.045V94.2999C44.5247 93.6006 43.9586 93.0345 43.2593 93.0345C42.549 93.04 41.9829 92.4684 41.9829 91.7691Z" fill="#8BD6F7"/>
<path d="M42.1547 87.8398H38.0867V90.5316H42.1547V87.8398Z" fill="#BADFF4"/>
<path d="M43.9027 97.5469H36.2051V107.187H43.9027V97.5469Z" fill="#BADFF4"/>
<path d="M32.5095 91.7691V89.7322C32.5095 89.0329 31.9434 88.4668 31.2441 88.4668H30.0232C29.3239 88.4668 28.7578 89.0329 28.7578 89.7322V91.7691C28.7578 92.4684 28.1917 93.0345 27.4924 93.0345C26.7931 93.0345 26.2271 93.6006 26.2271 94.2999V110.045C26.2271 110.745 26.7931 111.311 27.4924 111.311H33.786C34.4853 111.311 35.0514 110.745 35.0514 110.045V94.2999C35.0514 93.6006 34.4853 93.0345 33.786 93.0345C33.0756 93.04 32.5095 92.4684 32.5095 91.7691Z" fill="#8BD6F7"/>
<path d="M32.6811 87.8398H28.613V90.5316H32.6811V87.8398Z" fill="#BADFF4"/>
<path d="M34.43 97.5469H26.7324V107.187H34.43V97.5469Z" fill="#BADFF4"/>
<path d="M23.0351 91.7691V89.7322C23.0351 89.0329 22.469 88.4668 21.7698 88.4668H20.5488C19.8495 88.4668 19.2834 89.0329 19.2834 89.7322V91.7691C19.2834 92.4684 18.7173 93.0345 18.0181 93.0345C17.3188 93.0345 16.7527 93.6006 16.7527 94.2999V110.045C16.7527 110.745 17.3188 111.311 18.0181 111.311H24.306C25.0053 111.311 25.5714 110.745 25.5714 110.045V94.2999C25.5714 93.6006 25.0053 93.0345 24.306 93.0345C23.6068 93.04 23.0351 92.4684 23.0351 91.7691Z" fill="#8BD6F7"/>
<path d="M23.2067 87.8398H19.1387V90.5316H23.2067V87.8398Z" fill="#BADFF4"/>
<path d="M24.9606 97.5469H17.2629V107.187H24.9606V97.5469Z" fill="#BADFF4"/>
</g>
<g clip-path="url(#clip0)">
<path d="M117.883 178.812C117.883 178.812 118.085 180.511 117.298 181.46C116.511 182.408 113.155 183.113 113.205 183.844C113.342 185.888 116.107 185.066 117.046 185.066C118.908 185.066 121.416 182.55 121.416 182.55L123 180.917C123 180.917 122.278 179.08 121.991 178.604C121.703 178.127 121.128 177.584 121.128 177.584L117.883 178.812Z" fill="#0075BF"/>
<path d="M85.3354 181.76C85.3354 181.76 86.2538 186.904 85.4767 186.975C84.6996 187.046 82.1765 186.954 82.1765 186.954C82.1765 186.954 79.4415 186.954 78.624 186.939C77.8065 186.929 73.9563 187.167 73.9765 185.767C73.9866 185.153 76.6358 185.833 78.0992 184.834C79.8149 183.657 83.2665 182.252 83.2665 182.252L85.3354 181.76Z" fill="#10A6E8"/>
<path d="M88.1107 99.5859C88.1107 99.5859 72.629 119.152 71.7358 119.431C70.8427 119.71 67.4365 120.445 66.8663 122.109C66.2961 123.773 67.8856 127.147 68.693 126.964C69.5054 126.781 68.8091 125.716 68.8091 125.716C68.8091 125.716 69.6215 123.038 70.6761 122.941C71.7308 122.85 73.1084 123.124 73.1084 123.124L73.5121 125.158C73.5121 125.158 74.2438 123.956 74.1631 123.215C74.0823 122.474 76.1361 121.475 77.1908 121.014C78.2454 120.552 88.7718 111.101 88.7718 111.101L88.1107 99.5859Z" fill="#EC9696"/>
<path d="M91.2594 67.6263C90.4873 70.9185 91.113 72.4353 91.7236 74.3731C92.3948 76.5088 97.779 81.2011 102.361 76.3109C103.774 74.7992 104.945 66.5458 101.897 64.4811C95.7959 60.3569 92.1677 63.7456 91.2594 67.6263Z" fill="#063B75"/>
<path d="M89.3016 128.703C89.3016 128.703 92.4404 146.097 99.727 158.14C105.591 167.829 115.35 180.846 115.35 180.846L122.061 178.132C122.061 178.132 120.916 169.052 112.332 156.502C104.233 144.657 109.078 127.779 109.078 127.779L89.3016 128.703Z" fill="#063B75"/>
<path d="M86.2084 183.698C86.2084 183.698 85.2446 162.94 95.3975 152.272C105.888 141.249 107.508 137.444 108.674 131.174C109.936 124.412 109.007 122.221 109.007 122.221C109.007 122.221 107.887 124.387 101.18 126.208C94.474 128.029 89.993 128.369 89.993 128.369C89.993 128.369 83.0545 143.334 79.613 154.996C76.1715 166.659 79.2497 183.784 79.2497 183.784L86.2084 183.698Z" fill="#0075BF"/>
<path d="M89.766 128.759C89.766 128.759 82.9738 125.34 83.3321 117.142C83.6955 108.945 87.6618 97.546 87.9998 94.9589C88.3127 92.6051 94.3883 84.5596 98.3041 83.5298C103.91 82.0587 108.83 88.9679 108.275 93.4877C107.412 100.503 106.126 110.644 108.477 117.477C109.047 119.131 109.739 123.691 109.739 123.691C109.739 123.691 105.868 126.162 101.019 127.405C93.4497 129.348 89.766 128.759 89.766 128.759Z" fill="#F44268"/>
<path d="M94.5345 97.9813C94.5345 97.9813 90.2301 107.706 84.2251 113.159C78.2202 118.612 74.5163 122.082 74.5163 122.082C74.5163 122.082 72.7047 121.783 70.8376 122.711C68.9705 123.64 68.8091 124.467 68.8091 124.467C68.8091 124.467 68.4054 127.607 68.9705 128.347C69.5408 129.088 69.8637 128.439 69.8637 128.439C69.8637 128.439 70.2674 126.496 71.8115 126.496C73.3557 126.496 72.7854 127.51 76.3531 126.313C79.9208 125.111 85.7239 120.129 89.7759 116.898C93.8331 113.661 101.357 105.535 101.357 105.535C101.357 105.535 102.028 102.486 99.3486 99.6604C96.9869 97.1646 94.5345 97.9813 94.5345 97.9813Z" fill="#F2B8B8"/>
<path d="M95.4629 80.2778C95.4629 80.2778 96.1896 84.4071 94.4133 86.0253C92.6421 87.6435 90.9718 89.8299 92.4806 90.1343C93.9894 90.4386 98.0365 87.7044 99.187 86.5529C100.332 85.4013 101.69 84.4882 101.387 83.9404C101.084 83.3925 100.918 82.3424 100.918 81.0691C100.918 79.7959 101.17 76.5898 101.17 76.5898L95.4629 80.2778Z" fill="#F2B8B8"/>
<path d="M95.4278 84.0517C95.8164 82.2864 95.4631 80.2775 95.4631 80.2775L99.6666 77.5788L101.165 76.3359C101.14 77.0258 100.933 79.2883 100.913 80.308C100.444 81.4544 99.0863 82.8139 97.4866 83.4075C96.6944 83.7067 96.0081 83.9097 95.4278 84.0517Z" fill="#EC9696"/>
<path d="M91.3959 72.1965C91.3959 72.1965 91.7239 68.326 92.5919 67.7629C93.6213 67.0933 95.2108 66.2461 95.2108 66.2461C95.2108 66.2461 98.6624 69.2086 98.9753 70.0304C99.2881 70.8522 99.6414 72.506 99.5404 73.1857C99.2881 74.8242 100.055 75.4431 100.055 75.4431C100.055 75.4431 100.272 72.1306 101.019 71.8871C101.766 71.6436 101.912 73.8655 101.912 73.8655C101.912 73.8655 101.746 75.6105 100.731 77.7918C99.8028 79.7956 96.6238 82.332 93.591 81.0638C89.3774 79.3035 91.3959 72.1965 91.3959 72.1965Z" fill="#F2B8B8"/>
<path d="M101.423 83.9707C101.423 83.9707 101.675 86.1774 99.6665 88.7645C97.6582 91.3517 96.654 94.2533 96.654 94.2533L92.511 90.1545C92.511 90.1545 96.5127 88.3638 98.2788 86.989C100.04 85.6092 101.423 83.9707 101.423 83.9707Z" fill="#0075BF"/>
<path d="M92.5111 90.15L89.6903 91.2863C89.6903 91.2863 91.4464 88.826 92.2638 87.9433C93.0813 87.0606 95.1503 84.8945 95.1503 84.8945C95.1503 84.8945 95.1604 85.3308 94.5901 85.975C94.0199 86.6193 92.3244 88.7651 92.3244 89.2673C92.3244 89.7695 92.5111 90.15 92.5111 90.15Z" fill="#0075BF"/>
<path d="M96.5276 78.04C96.5276 78.04 95.8363 75.7065 93.6412 75.5898C91.6883 75.4884 91.5723 77.4008 91.5723 77.4008C91.5723 77.4008 92.3897 77.5835 93.0155 77.0407C93.6412 76.4979 93.6765 76.092 93.6765 76.092C93.6765 76.092 93.7371 77.3349 94.5697 77.6849C95.3973 78.04 96.5276 78.04 96.5276 78.04Z" fill="#063B75"/>
<path d="M71.645 150.243C71.645 150.243 71.1758 151.597 71.529 152.302C71.8822 153.007 73.4011 152.657 74.2791 153.246C75.1572 153.834 76.8224 154.012 76.5449 152.921C76.2673 151.836 74.8039 151.303 74.3952 150.831C73.9865 150.359 74.5718 149.654 74.5718 149.654L71.645 150.243Z" fill="#063B75"/>
<path d="M67.4668 141.193C67.4668 141.193 71.7157 143.227 71.7863 146.144C71.8519 149.061 71.5189 150.755 71.5189 150.755L74.2842 150.552C74.2842 150.552 75.8333 147.838 75.1622 143.161C74.486 138.484 66.4626 137.398 66.4626 137.398L67.4668 141.193Z" fill="#D22E58"/>
<path d="M75.6971 151.161C75.6971 151.161 75.1572 152.718 75.5609 153.535C75.9646 154.347 77.7206 153.941 78.7299 154.621C79.7441 155.3 81.6617 155.503 81.3438 154.245C81.0259 152.992 79.3405 152.379 78.8661 151.841C78.3918 151.298 79.068 150.486 79.068 150.486L75.6971 151.161Z" fill="#0075BF"/>
<path d="M75.4951 151.774C75.4951 151.774 76.1007 144.992 71.8518 142.486C67.6029 139.975 63.0462 142.754 58.0252 140.183C54.5837 138.417 53.0346 134.963 53.4383 130.149C53.842 125.334 54.3163 120.789 57.0816 117.943C58.6812 116.295 63.8939 115.097 66.5936 118.963C69.2934 122.828 66.7299 128.591 66.9317 130.899C67.1336 133.207 73.6078 132.254 76.9837 138.63C80.3596 145.007 78.871 151.378 78.871 151.378L75.4951 151.774Z" fill="#F44268"/>
<path d="M62.4056 116.108C62.4056 116.108 59.2366 115.499 58.7623 114.074C58.2879 112.648 58.7623 111.36 58.7623 111.36C58.7623 111.36 56.5369 110.34 57.4149 107.834C58.293 105.323 59.8421 105.8 59.8421 105.8C59.8421 105.8 59.3022 103.831 60.7202 102.954C62.1382 102.071 63.6217 102.751 63.6217 102.751C63.6217 102.751 63.8892 101.057 65.5797 101.057C67.2701 101.057 67.7394 102.411 67.7394 102.411C67.7394 102.411 69.2886 101.868 69.9648 103.091C70.641 104.313 70.7066 105.531 70.7066 105.531C70.7066 105.531 72.2558 106.479 72.1246 108.311C71.9883 110.142 69.1574 111.365 69.1574 111.365L64.9741 110.213L62.4056 116.108Z" fill="#063B75"/>
<path d="M56.2492 177.078H19.0992V178.925H56.2492V177.078Z" fill="#063B75"/>
<path d="M73.5205 128.129L71.9548 127.59L54.6144 178.487L56.1801 179.026L73.5205 128.129Z" fill="#063B75"/>
<path d="M52.3888 185.859C50.4763 185.859 48.9221 184.296 48.9221 182.374C48.9221 180.451 50.4763 178.889 52.3888 178.889C54.3013 178.889 55.8555 180.451 55.8555 182.374C55.8555 184.296 54.3013 185.859 52.3888 185.859ZM52.3888 180.436C51.324 180.436 50.4611 181.303 50.4611 182.374C50.4611 183.444 51.324 184.311 52.3888 184.311C53.4535 184.311 54.3164 183.444 54.3164 182.374C54.3164 181.303 53.4535 180.436 52.3888 180.436Z" fill="#063B75"/>
<path d="M21.6225 185.859C19.71 185.859 18.1558 184.296 18.1558 182.374C18.1558 180.451 19.71 178.889 21.6225 178.889C23.535 178.889 25.0892 180.451 25.0892 182.374C25.0892 184.296 23.535 185.859 21.6225 185.859ZM21.6225 180.436C20.5578 180.436 19.6949 181.303 19.6949 182.374C19.6949 183.444 20.5578 184.311 21.6225 184.311C22.6872 184.311 23.5501 183.444 23.5501 182.374C23.5501 181.303 22.6872 180.436 21.6225 180.436Z" fill="#063B75"/>
<path d="M72.8308 128.136C73.8842 128.136 74.7382 127.277 74.7382 126.218C74.7382 125.159 73.8842 124.301 72.8308 124.301C71.7773 124.301 70.9233 125.159 70.9233 126.218C70.9233 127.277 71.7773 128.136 72.8308 128.136Z" fill="#F44268"/>
<path d="M45.2988 141.325V138.976C45.2988 138.169 44.6479 137.51 43.8455 137.51H42.4427C41.6403 137.51 40.9843 138.164 40.9843 138.971V141.319C40.9843 142.126 40.3334 142.78 39.526 142.78C38.7236 142.78 38.0676 143.435 38.0676 144.241L38.0525 162.412C38.0525 163.219 38.7035 163.878 39.5058 163.878L46.7269 163.883C47.5292 163.883 48.1852 163.229 48.1852 162.422L48.2004 144.252C48.2004 143.445 47.5494 142.785 46.7471 142.785C45.9498 142.785 45.2988 142.131 45.2988 141.325Z" fill="#10A6E8"/>
<path d="M45.5006 136.789H40.8278V139.894H45.5006V136.789Z" fill="#EC9696"/>
<path d="M47.4989 147.984H38.658V159.109H47.4989V147.984Z" fill="#BADFF4"/>
<path d="M26.6278 164.538H18.8466L18.1401 158.445H27.3343L26.6278 164.538Z" fill="#10A6E8"/>
<path d="M28.1014 158.186H17.3782V158.571H28.1014V158.186Z" fill="#8BD6F7"/>
<path d="M26.7237 163.445H18.6851L18.3016 160.107H27.1728L26.7237 163.445Z" fill="#CDE8F7"/>
<path d="M36.907 164.538H29.1207L28.4193 158.445H37.6084L36.907 164.538Z" fill="#10A6E8"/>
<path d="M38.3754 158.186H27.6523V158.571H38.3754V158.186Z" fill="#8BD6F7"/>
<path d="M37.0028 163.445H28.9592L28.5757 160.107H37.4469L37.0028 163.445Z" fill="#CDE8F7"/>
<path d="M26.6278 157.995H18.8466L18.1401 151.902H27.3343L26.6278 157.995Z" fill="#10A6E8"/>
<path d="M28.1014 151.643H17.3782V152.028H28.1014V151.643Z" fill="#8BD6F7"/>
<path d="M26.7237 156.902H18.6851L18.3016 153.564H27.1728L26.7237 156.902Z" fill="#CDE8F7"/>
<path d="M36.907 157.995H29.1207L28.4193 151.902H37.6084L36.907 157.995Z" fill="#10A6E8"/>
<path d="M38.3754 151.643H27.6523V152.028H38.3754V151.643Z" fill="#8BD6F7"/>
<path d="M37.0028 156.902H28.9592L28.5757 153.564H37.4469L37.0028 156.902Z" fill="#CDE8F7"/>
<path d="M26.6278 151.516H18.8466L18.1401 145.418H27.3343L26.6278 151.516Z" fill="#10A6E8"/>
<path d="M28.1014 145.164H17.3782V145.55H28.1014V145.164Z" fill="#8BD6F7"/>
<path d="M26.7237 150.424H18.6851L18.3016 147.086H27.1728L26.7237 150.424Z" fill="#CDE8F7"/>
<path d="M36.907 151.516H29.1207L28.4193 145.418H37.6084L36.907 151.516Z" fill="#10A6E8"/>
<path d="M38.3754 145.164H27.6523V145.55H38.3754V145.164Z" fill="#8BD6F7"/>
<path d="M37.0028 150.424H28.9592L28.5757 147.086H37.4469L37.0028 150.424Z" fill="#CDE8F7"/>
<path d="M11 132.854L17.1765 166.03L60.8512 165.269L71.8569 133.046L11 132.854ZM15.9856 151.227H23.348L23.8375 156.706H17.005L15.9856 151.227ZM34.4395 149.68L34.273 142.72H42.907L42.6446 149.68H34.4395ZM42.579 151.227L42.3721 156.706H34.606L34.4748 151.227H42.579ZM44.2998 142.72H53.7815L52.7672 149.68H44.0373L44.2998 142.72ZM44.3603 141.173L44.6126 134.502L54.9775 134.533L54.0086 141.173H44.3603ZM42.9625 141.173H34.2326L34.0711 134.467L43.2098 134.497L42.9625 141.173ZM32.8399 141.173H23.8476L23.2471 134.436L32.6784 134.467L32.8399 141.173ZM32.8752 142.72L33.0417 149.68H24.6096L23.9889 142.72H32.8752ZM23.2118 149.68H15.698L14.4011 142.72H22.586L23.2118 149.68ZM24.7458 151.227H33.077L33.2082 156.706H25.2353L24.7458 151.227ZM33.2486 158.253L33.3899 164.204L25.9216 164.335L25.3766 158.258H33.2486V158.253ZM34.6414 158.253H42.3116L42.0895 164.051L34.7776 164.178L34.6414 158.253ZM43.7093 158.253H51.5107L50.6882 163.899L43.4924 164.026L43.7093 158.253ZM43.7649 156.706L43.9718 151.227H52.5351L51.7328 156.706H43.7649ZM53.948 151.227H64.0202L62.1481 156.706H53.1457L53.948 151.227ZM54.1701 149.68L55.1844 142.72H66.9218L64.545 149.68H54.1701ZM55.4114 141.173L56.3803 134.538L69.7022 134.578L67.4516 141.173H55.4114ZM21.8493 134.431L22.4498 141.173H14.1135L12.8519 134.401L21.8493 134.431ZM17.2926 158.253H23.9737L24.5187 164.356L18.4482 164.462L17.2926 158.253ZM59.7461 163.742L52.1011 163.874L52.9237 158.253H61.6233L59.7461 163.742Z" fill="#0075BF"/>
<path d="M58.4947 123.363C58.4947 123.363 56.4056 131.16 63.6872 131.977C70.9689 132.793 69.894 125.737 71.645 124.854C73.4011 123.972 73.2649 123.16 73.2649 123.16C73.2649 123.16 69.7376 122.146 67.9916 124.281C66.2507 126.417 65.7763 128.38 64.2928 127.502C63.7124 127.157 64.3584 124.991 64.2928 123.703C64.2272 122.414 63.4702 121.019 61.7293 120.786C58.6965 120.38 58.4947 123.363 58.4947 123.363Z" fill="#F2B8B8"/>
<path d="M60.3163 116.443C60.3163 116.443 62.138 118.746 63.889 119.426C65.6451 120.106 67.058 119.766 67.058 119.766C67.058 119.766 66.8562 119.02 66.2506 118.34C65.7309 117.762 65.0345 117.797 65.3726 116.712C65.6199 115.926 66.4525 114.744 66.4525 114.744L62.9454 113.795C62.9454 113.795 62.138 115.423 61.6637 115.966C61.1944 116.514 60.3163 116.443 60.3163 116.443Z" fill="#F2B8B8"/>
<path d="M62.0019 112.374C62.0019 112.374 62.1382 116.66 65.7815 116.985C69.4249 117.309 70.3685 113.221 70.3685 110.659C70.3685 108.102 68.8849 104.43 67.5376 105.322C65.0448 111.095 61.2501 108.701 61.1945 109.614C61.0583 111.902 62.0019 112.374 62.0019 112.374Z" fill="#F2B8B8"/>
<path d="M52.8984 134.01L53.9783 141.193L52.4543 141.726L51.2786 134.01H52.8984Z" fill="#0075BF"/>
<path d="M85.2503 73.0852C85.6322 72.1585 85.1944 71.0962 84.2726 70.7123C83.3508 70.3285 82.294 70.7685 81.9122 71.6952C81.5304 72.6218 81.9681 73.6842 82.8899 74.0681C83.8117 74.4519 84.8685 74.0119 85.2503 73.0852Z" fill="white"/>
<path d="M81.6254 67.2057C83.0443 65.7793 83.0443 63.4668 81.6254 62.0404C80.2065 60.6141 77.9061 60.6141 76.4873 62.0404C75.0684 63.4668 75.0684 65.7793 76.4873 67.2057C77.9061 68.632 80.2065 68.632 81.6254 67.2057Z" fill="white"/>
<path d="M69.3488 57.9018C76.4639 57.9018 82.2317 52.1035 82.2317 44.9509C82.2317 37.7983 76.4639 32 69.3488 32C62.2338 32 56.4659 37.7983 56.4659 44.9509C56.4659 52.1035 62.2338 57.9018 69.3488 57.9018Z" fill="white"/>
<path d="M69.6367 33.8509C71.9327 34.0335 75.3338 36.1387 73.391 41.1507C72.3717 43.7784 66.7149 48.1512 66.4475 48.7853C66.0337 49.7542 67.8453 51.205 66.2557 51.6463C64.6662 52.0877 63.5409 49.4701 64.5148 48.0649C64.8175 47.6236 65.2616 47.3091 65.6956 46.9946C68.1632 45.1937 70.8679 42.8805 70.984 39.568C71.0193 38.599 70.7216 37.4729 69.8335 37.0924C69.0967 36.7779 68.2338 37.1229 67.603 37.62C66.9723 38.1171 66.4626 38.7664 65.7915 39.2078C65.5896 39.3397 65.3625 39.4564 65.1203 39.4766C64.5097 39.5274 63.995 38.9136 63.9496 38.2947C63.9042 37.6758 64.2171 37.0924 64.5804 36.5953C65.7107 35.0481 67.7948 33.7038 69.6367 33.8509Z" fill="#F44268"/>
<path d="M67.0228 55.4562C67.831 55.4562 68.4862 54.9475 68.4862 54.3199C68.4862 53.6923 67.831 53.1836 67.0228 53.1836C66.2146 53.1836 65.5594 53.6923 65.5594 54.3199C65.5594 54.9475 66.2146 55.4562 67.0228 55.4562Z" fill="#F44268"/>
</g>
<defs>
<clipPath id="clip0">
<rect x="11" y="32" width="112" height="155" fill="white"/>
</clipPath>
</defs>
</svg>
