<svg xmlns="http://www.w3.org/2000/svg" width="195" height="187" viewBox="0 0 195 187" fill="none"><mask id="mask0" maskUnits="userSpaceOnUse" x="0" y="0" width="195" height="187"><rect width="195" height="187" fill="white"></rect></mask><g mask="url(#mask0)"><path fill-rule="evenodd" clip-rule="evenodd" d="M0.114343 98.9753C-2.50807 70.64 0.158109 38.382 24.044 22.0275C47.3546 6.06692 78.5309 19.6811 107.178 25.6698C137.473 32.0031 175.24 30.4334 189.775 56.6742C204.503 83.2626 187.959 114.975 169.681 138.509C155.261 157.074 129.922 160.181 105.889 164.682C82.3723 169.086 57.5835 176.044 37.1217 163.333C14.4368 149.241 2.46115 124.333 0.114343 98.9753Z" fill="#D2F8FD"></path><mask id="mask1" maskUnits="userSpaceOnUse" x="-1" y="10" width="197" height="161"><path fill-rule="evenodd" clip-rule="evenodd" d="M0.113366 98.9752C-2.50904 70.64 0.157133 38.382 24.043 22.0275C47.3537 6.06692 89.8531 9.51127 118.5 15.5C148.795 21.8333 188.001 19.5 189.774 56.6742C204.502 83.2626 187.958 114.975 169.68 138.509C155.26 157.074 129.921 160.181 105.888 164.682C82.3714 169.086 57.5825 176.044 37.1208 163.333C14.4358 149.241 2.46017 124.333 0.113366 98.9752Z" fill="#D2F8FD"></path></mask><g mask="url(#mask1)"><path d="M177.395 33.8569C174.569 33.9196 172.338 36.1876 169.793 44.1655C168.672 47.5939 167.53 52.1513 164.73 54.6858C159.196 59.9685 153.951 49.1621 151.686 45.4985C147.155 38.1714 141.076 26.6358 133.963 21.4962C132.918 20.6906 130.23 20.8984 129.907 23.1487C129.504 25.891 134.065 31.5245 135.509 33.7532C138.049 37.848 141.148 42.2408 143.057 46.1062C143.671 47.3235 143.214 49.1464 140.844 47.3862C133.949 41.8997 126.517 30.962 119.191 25.8871C118.215 25.154 116.189 23.8975 114.677 25.4794C113.525 26.7183 113.926 28.0002 114.614 29.0077C118.464 34.9039 127.703 43.562 132.272 48.7721C132.896 49.4248 136.838 54.1234 134.946 53.2942C132.142 52.0868 127.093 46.0867 124.653 44.2539C121.798 41.986 118.911 37.5286 115.476 36.0918C112.952 35.0333 111.638 37.3973 112.521 39.3281C116.13 46.8414 124.912 53.4393 130.742 59.2493C132.339 60.7762 130.185 62.6933 128.716 61.8759C125.848 60.3137 123.057 58.4005 120.117 56.9069C118.654 55.8072 114.037 53.2786 113.092 54.7351C112.007 56.1876 113.188 57.2794 113.951 58.0772C118.319 62.6463 123.837 66.1177 128.421 70.4811C133.354 75.0659 138.007 79.5018 143.733 83.1908C149.387 86.9484 155.403 90.2219 160.403 95.0204C163.597 98.0743 183.955 118.504 186.788 122.043C194.618 122.613 196.98 108.2 199.597 100.154C193.086 95.2091 189.231 91.1093 186.655 89.0978C181.778 85.2911 174.797 80.17 172.647 74.0386C171.64 71.116 172.885 68.6795 173.783 65.8803C175.127 61.8227 175.092 55.8912 176.085 51.7533C177.078 47.6154 178.402 44.6869 178.763 40.3196C178.89 37.1461 178.738 33.8236 177.395 33.8569Z" fill="#FABB87"></path><path d="M157.047 60.5009C156.881 61.9074 156.997 63.3218 157.326 64.6716C157.654 66.0214 158.055 67.3026 158.738 68.5916C159.28 69.8767 159.965 71.0247 160.72 72.2451C161.475 73.4656 162.232 74.545 163.059 75.6969C162.088 74.6822 161.19 73.5988 160.363 72.4469C159.537 71.295 158.923 70.0785 158.312 68.7209C157.77 67.4358 157.3 66.0821 157.043 64.6638C156.786 63.2455 156.67 61.831 157.047 60.5009Z" fill="#FA9D62"></path><path d="M136.51 66.4745C137.938 65.9462 139.157 65.1989 140.309 64.2368C141.391 63.2018 142.404 62.0937 143.206 60.9088C144.95 58.543 146.277 55.7395 147.601 53.0779C147.15 54.4856 146.558 55.8893 145.896 57.2201C145.234 58.5509 144.43 59.8777 143.556 61.1316C142.683 62.3855 141.67 63.4935 140.518 64.4557C139.366 65.4178 137.933 66.2301 136.51 66.4745Z" fill="#FA9D62"></path><path d="M117.742 60.9089C118.036 60.3492 118.258 59.8584 118.621 59.3715C118.984 58.8847 119.347 58.3978 119.78 57.9839C119.698 58.6205 119.335 59.1074 119.041 59.6672C118.75 60.085 118.245 60.5679 117.742 60.9089Z" fill="#FA9D62"></path><path d="M123.386 64.7822C123.463 64.4292 123.61 64.1492 123.757 63.8692C123.904 63.5892 124.123 63.2402 124.339 63.0332C124.556 62.8262 124.775 62.4772 124.991 62.2701C125.208 62.0631 125.497 61.7871 125.783 61.653C125.417 62.282 125.053 62.769 124.618 63.325C124.327 63.743 123.891 64.2991 123.386 64.7822Z" fill="#FA9D62"></path><path d="M116.654 42.7031C117.226 42.4351 117.729 42.0941 118.231 41.7532C118.733 41.4122 119.166 40.9983 119.599 40.5844C119.375 41.2171 119.012 41.7039 118.437 42.1138C117.935 42.4548 117.291 42.7918 116.654 42.7031Z" fill="#FA9D62"></path><path d="M127.016 54.11C127.174 53.2622 127.612 52.5643 128.119 51.9393C128.627 51.3142 129.204 50.7622 129.921 50.356C129.483 51.054 128.905 51.606 128.398 52.2311C127.962 52.7871 127.524 53.485 127.016 54.11Z" fill="#FA9D62"></path><path d="M131.857 46.1526C132.226 45.3813 132.806 44.6869 133.453 44.2075C134.172 43.6591 134.889 43.2527 135.675 42.9193C135.026 43.5407 134.379 44.0201 133.731 44.4994C133.084 44.9788 132.435 45.6002 131.857 46.1526Z" fill="#FA9D62"></path><path d="M133.856 29.1426C134.641 28.8097 135.355 28.5458 136.068 28.2819C136.426 28.0791 136.712 27.9451 137.07 27.7423C137.428 27.5394 137.717 27.2637 137.935 26.9151C137.709 27.6891 137.06 28.3095 136.275 28.6423C135.489 28.9752 134.706 29.1662 133.856 29.1426Z" fill="#FA9D62"></path><path d="M119.681 33.7148C120.328 33.2357 121.044 32.8295 121.619 32.4194C121.908 32.1434 122.196 31.8674 122.413 31.6603C122.701 31.3843 122.92 31.0353 123.067 30.7553C122.982 31.5341 122.472 32.3011 121.825 32.7802C121.251 33.1904 120.464 33.5236 119.681 33.7148Z" fill="#FA9D62"></path><path d="M141.865 41.2694C142.156 40.8523 142.516 40.5079 142.874 40.3052C143.304 40.0337 143.731 39.9038 144.23 39.705C145.085 39.4453 146.079 39.3311 147.067 39.5004C146.213 39.7601 145.219 39.8743 144.364 40.134C143.44 40.321 142.655 40.6535 141.865 41.2694Z" fill="#FA9D62"></path><path d="M178.429 42.0144C178.429 42.0144 175.005 39.7271 177.631 35.2742C177.631 35.2742 179.016 32.9791 178.86 37.7127C178.912 38.7748 178.429 42.0144 178.429 42.0144Z" fill="#F2D2C2"></path></g><path d="M86.3604 81.5422C86.3604 79.7312 86.6999 78.0334 87.4922 76.3356L92.812 64.2246H61.7988L86.3604 88.7861V81.5422Z" fill="#FF3D3D"></path><path d="M92.8122 142.778H16.6375L21.9572 130.667C22.6364 129.083 23.0891 127.272 23.0891 125.461V81.4309C23.0891 79.6199 22.7495 77.9221 21.9572 76.2243L16.6375 64.1133H61.799L73.7968 76.1111L86.3605 88.6748V125.347C86.3605 127.158 86.7001 128.856 87.4924 130.554L92.8122 142.778Z" fill="#61B6F2"></path><path d="M36.7842 81.5422V125.572C36.7842 127.383 36.4446 129.081 35.6523 130.778L30.3326 142.889H16.637L21.9567 130.778C22.6359 129.194 23.0886 127.383 23.0886 125.572V81.5422C23.0886 79.7312 22.7491 78.0334 21.9567 76.3356L16.637 64.2246H30.3326L35.6523 76.3356C36.4446 77.9202 36.7842 79.7312 36.7842 81.5422Z" fill="#B0E2FC"></path><path d="M92.8113 142.776H79.1157L73.7959 130.665C73.1168 129.081 72.6641 127.27 72.6641 125.459V81.4292C72.6641 79.6182 73.0036 77.9204 73.7959 76.2226V76.1094L86.3597 88.6731V125.346C86.3597 127.157 86.6992 128.854 87.4915 130.552L92.8113 142.776Z" fill="#299AEA"></path><path d="M92.8117 58H16.637V64.2253H92.8117V58Z" fill="#1379DA"></path><path d="M92.8117 142.777H16.637V149.003H92.8117V142.777Z" fill="#1379DA"></path><path d="M60.605 108.674C68.5173 105.396 72.2746 96.3252 68.9971 88.4129C65.7197 80.5006 56.6485 76.7433 48.7362 80.0207C40.8239 83.2982 37.0666 92.3693 40.344 100.282C43.6215 108.194 52.6926 111.951 60.605 108.674Z" fill="#FFE600"></path><path d="M54.6673 105.649C60.9184 105.649 65.986 100.582 65.986 94.3304C65.986 88.0793 60.9184 83.0117 54.6673 83.0117C48.4162 83.0117 43.3486 88.0793 43.3486 94.3304C43.3486 100.582 48.4162 105.649 54.6673 105.649Z" fill="white"></path><path d="M75.8327 102.822H44.5931C43.3481 102.822 42.4426 103.615 42.4426 104.746V109.274C41.7634 109.274 41.1975 109.84 41.1975 110.406C41.1975 111.085 41.7634 111.538 42.5557 111.538H75.8327V102.822Z" fill="#E92B40"></path><path d="M47.1971 100.219V108.142C47.1971 107.463 46.6311 107.01 45.8388 107.01H36.6707H22.9751V98.2949H44.9333C46.1784 98.2949 47.1971 99.2004 47.1971 100.219Z" fill="#FF3D3D"></path><path d="M45.8382 107.008H41.1975V110.403C41.1975 109.724 41.7634 109.272 42.5557 109.272H45.8382C46.5173 109.272 47.1964 108.706 47.1964 108.14C47.1964 107.461 46.6305 107.008 45.8382 107.008Z" fill="#D40000"></path><path d="M78.2102 103.276C78.097 103.276 78.097 103.276 77.9839 103.163C74.9278 101.352 71.9849 105.426 68.4761 110.859C65.1937 111.765 61.119 114.821 56.4784 117.651C49.1212 122.178 43.3487 124.555 45.386 129.082C45.4992 129.309 45.6124 129.648 45.8388 129.875C49.008 134.968 60.1003 140.741 67.797 135.987C69.7212 134.742 71.3058 133.044 72.4377 131.007C75.2674 129.875 77.9838 128.064 79.7948 125.234C84.8882 117.651 82.1718 105.879 78.2102 103.276Z" fill="#1379DA"></path><path d="M76.9658 100.558C76.8526 100.558 76.8526 100.558 76.7394 100.445C79.7954 104.633 81.2669 114.254 76.9658 120.932C72.0987 128.289 61.9119 129.082 57.6108 126.705C57.8372 127.271 58.29 127.723 58.8559 128.063C62.8174 130.666 73.6834 130.1 78.6636 122.517C83.6438 114.933 81.0405 103.275 76.9658 100.558Z" fill="#FFE21F"></path><path d="M76.9656 120.933C81.2667 114.368 79.7953 104.634 76.7393 100.446C72.7777 98.1821 69.0426 105.539 64.1755 113.01C59.9876 119.461 56.2525 123.875 57.6107 126.705C61.9118 129.082 72.2118 128.29 76.9656 120.933Z" fill="#FFC51E"></path><path d="M72.664 109.954C72.3245 109.388 71.9849 109.049 71.5322 108.709C73.7959 114.482 72.0981 126.479 64.9673 130.894C58.0629 135.195 48.4421 131.007 44.2542 126.366C44.3673 126.592 44.4805 126.932 44.7069 127.158C47.8761 132.252 58.9684 138.024 66.6651 133.271C74.3618 128.517 75.8333 115.047 72.664 109.954Z" fill="#FFEF81"></path><path d="M64.9674 130.892C72.2114 126.478 73.9092 114.367 71.5322 108.707C68.1366 105.991 62.2509 110.745 55.3465 115.046C47.9894 119.573 42.2168 121.95 44.2542 126.478C48.4421 131.005 58.063 135.193 64.9674 130.892Z" fill="#FFE21F"></path><path d="M66.0997 121.047C66.8498 121.047 67.4579 120.438 67.4579 119.688C67.4579 118.938 66.8498 118.33 66.0997 118.33C65.3496 118.33 64.7415 118.938 64.7415 119.688C64.7415 120.438 65.3496 121.047 66.0997 121.047Z" fill="#FFC51E"></path><path d="M52.9702 123.309C53.9703 123.309 54.7812 122.499 54.7812 121.498C54.7812 120.498 53.9703 119.688 52.9702 119.688C51.97 119.688 51.1592 120.498 51.1592 121.498C51.1592 122.499 51.97 123.309 52.9702 123.309Z" fill="#FFC51E"></path><path d="M65.1932 113.69C65.1932 114.369 64.6273 114.935 63.9482 114.935C63.269 114.935 62.7031 114.369 62.7031 113.69C62.7031 113.011 63.269 112.445 63.9482 112.445C64.6273 112.445 65.1932 113.011 65.1932 113.69Z" fill="#FFC51E"></path><path d="M56.1385 128.288C56.1385 128.967 55.5726 129.533 54.8935 129.533C54.2144 129.533 53.6484 128.967 53.6484 128.288C53.6484 127.609 54.2144 127.043 54.8935 127.043C55.5726 127.043 56.1385 127.609 56.1385 128.288Z" fill="#FFC51E"></path><path d="M63.9489 125.799C63.9489 127.044 62.9302 128.063 61.6851 128.063C60.4401 128.063 59.4214 127.044 59.4214 125.799C59.4214 124.554 60.4401 123.535 61.6851 123.535C63.0434 123.535 63.9489 124.554 63.9489 125.799Z" fill="#FFC51E"></path><g clip-path="url(#clip0)"><path d="M125.744 90.8242C109.727 90.8242 96.6606 103.949 96.6606 120.038C96.6606 136.127 109.727 149.252 125.744 149.252C141.76 149.252 154.827 136.127 154.827 120.038C154.827 103.949 141.76 90.8242 125.744 90.8242ZM125.744 133.304C118.438 133.304 112.396 127.377 112.396 119.897C112.396 112.558 118.297 106.49 125.744 106.49C133.05 106.49 139.091 112.417 139.091 119.897C138.95 127.377 133.05 133.304 125.744 133.304Z" fill="#F3AA43"></path><path d="M150.612 120.18C150.612 117.075 149.91 113.97 148.786 111.148C148.083 109.595 147.381 108.043 146.397 106.632C144.711 104.091 142.604 101.833 140.075 100.14C138.248 98.8695 136.422 97.8816 134.315 97.0348C131.645 96.0469 128.695 95.4824 125.744 95.4824C115.488 95.4824 106.637 101.692 102.843 110.583C102 112.559 101.438 114.676 101.017 116.934C100.876 118.063 100.736 119.192 100.736 120.462C100.736 122.438 101.017 124.273 101.298 126.107C101.719 127.801 102.281 129.494 102.984 130.906C104.248 133.728 106.075 136.269 108.182 138.386C109.587 139.797 111.132 140.926 112.818 141.914C115.347 143.466 118.157 144.454 121.108 145.019C122.513 145.301 124.058 145.442 125.463 145.442C134.174 145.442 141.761 140.926 146.257 134.152C147.943 131.753 149.067 128.93 149.769 125.966C150.191 124.132 150.331 122.297 150.331 120.462C150.612 120.321 150.612 120.321 150.612 120.18ZM126.306 137.115C125.744 137.115 125.042 137.115 124.48 136.974C121.951 136.692 119.562 135.704 117.595 134.434C115.066 132.74 112.959 130.2 111.835 127.236C111.273 125.684 110.851 123.849 110.711 122.156C110.711 121.874 110.711 121.732 110.711 121.45C110.711 117.499 112.116 113.97 114.504 111.289C117.314 107.902 121.67 105.785 126.447 105.785C126.728 105.785 127.009 105.785 127.29 105.785C131.364 106.067 135.017 107.761 137.687 110.583C138.951 111.853 139.934 113.265 140.637 114.958C141.62 116.934 142.042 119.192 142.042 121.591C142.042 122.438 141.901 123.285 141.761 124.132C141.339 126.672 140.356 128.93 138.81 130.906C136.001 134.575 131.364 137.115 126.306 137.115Z" fill="#F2F2F2"></path><path d="M140.074 100.139L127.149 105.785C126.868 105.785 126.587 105.785 126.306 105.785C121.529 105.785 117.314 107.902 114.363 111.289L101.016 117.075C101.297 114.817 101.859 112.7 102.843 110.724L134.314 97.1758C136.422 97.7403 138.389 98.8693 140.074 100.139Z" fill="#D16241"></path><path d="M110.71 122.014C110.71 123.848 111.132 125.542 111.834 127.094L103.123 130.905C102.421 129.352 101.859 127.8 101.438 126.106L110.71 122.014Z" fill="#D16241"></path><path d="M148.785 111.147L140.496 114.816C139.793 113.264 138.81 111.711 137.545 110.441L146.397 106.631C147.38 108.042 148.223 109.595 148.785 111.147Z" fill="#D16241"></path><path d="M117.594 134.432C119.561 135.843 121.95 136.69 124.479 136.972L112.958 141.911C111.272 140.924 109.727 139.653 108.322 138.383L117.594 134.432Z" fill="#D16241"></path><path d="M150.612 120.462C150.612 122.297 150.472 124.272 150.05 125.966L138.81 130.764C140.356 128.789 141.339 126.53 141.761 123.99L150.612 120.18C150.612 120.321 150.612 120.321 150.612 120.462Z" fill="#D16241"></path><path d="M146.537 134.15C142.041 140.925 134.454 145.441 125.743 145.441C124.198 145.441 122.793 145.3 121.388 145.017L146.537 134.15Z" fill="#D16241"></path><path d="M117.713 139.461C117.713 142.594 114.789 144.943 111.28 144.943H79.8962C76.1924 144.943 73.2684 142.398 73.2684 139.461L68.2002 113.418C68.2002 110.285 71.1242 107.936 74.8279 107.936H116.349C120.052 107.936 122.976 110.481 122.976 113.418L117.713 139.461Z" fill="#EA6742"></path><path d="M98.8049 137.307C98.8049 139.265 97.2454 141.027 95.1012 141.027C93.1519 141.027 91.3975 139.461 91.3975 137.307V111.656C91.3975 109.698 92.9569 107.936 95.1012 107.936C97.0505 107.936 98.8049 109.502 98.8049 111.656V137.307Z" fill="#E3483F"></path><path d="M111.475 137.697C111.085 139.655 109.331 141.026 107.382 140.83C105.432 140.438 104.068 138.676 104.263 136.718L107.966 111.263C108.356 109.305 110.111 107.934 112.06 108.13C114.009 108.522 115.374 110.284 115.179 112.242L111.475 137.697Z" fill="#E3483F"></path><path d="M78.7264 137.697C79.1163 139.655 80.8707 141.026 82.82 140.83C84.7693 140.438 86.1339 138.676 85.9389 136.718L82.2352 111.263C81.8453 109.305 80.0909 107.934 78.1416 108.13C76.1923 108.522 74.8277 110.284 75.0227 112.242L78.7264 137.697Z" fill="#E3483F"></path><path d="M128.239 101.279C128.239 107.153 123.366 112.049 117.518 112.049C116.543 112.049 115.764 111.853 114.789 111.657C110.5 116.356 103.483 119.685 95.4905 119.685C87.4983 119.685 80.4807 116.552 76.1922 111.657C75.2175 111.853 74.2428 112.049 73.2682 112.049C67.4202 112.049 62.5469 107.153 62.5469 101.279C62.5469 100.3 62.7418 99.5168 62.9367 98.7336C64.1063 94.0342 68.1999 90.5096 73.2682 90.5096C74.0479 90.5096 74.8276 90.7054 75.6074 90.7054C79.8959 85.6144 87.1084 82.0898 95.4905 82.0898C103.678 82.0898 111.085 85.4186 115.179 90.7054C115.958 90.5096 116.543 90.5096 117.323 90.5096C122.391 90.5096 126.485 94.0342 127.654 98.7336C128.239 99.5168 128.239 100.496 128.239 101.279Z" fill="#FFC562"></path><path d="M88.8629 108.133C88.8629 110.679 86.7186 112.832 84.1845 112.832C81.6504 112.832 79.5061 110.679 79.5061 108.133C79.5061 105.587 81.6504 103.434 84.1845 103.434C86.9136 103.434 88.8629 105.392 88.8629 108.133Z" fill="#9D6C4E"></path><path d="M98.2196 95.2092C98.2196 97.7547 96.0753 99.9086 93.5412 99.9086C91.0071 99.9086 88.8628 97.7547 88.8628 95.2092C88.8628 92.6637 91.0071 90.5098 93.5412 90.5098C96.0753 90.5098 98.2196 92.6637 98.2196 95.2092Z" fill="#9D6C4E"></path><path d="M119.077 105.586C119.077 108.132 116.933 110.286 114.399 110.286C111.865 110.286 109.721 108.132 109.721 105.586C109.721 103.041 111.865 100.887 114.399 100.887C116.933 100.887 119.077 103.041 119.077 105.586Z" fill="#9D6C4E"></path><path d="M114.399 90.5099C114.399 93.0555 112.255 95.2094 109.72 95.2094C107.186 95.2094 105.042 93.0555 105.042 90.5099C105.042 87.9644 107.186 85.8105 109.72 85.8105C112.255 85.8105 114.399 87.9644 114.399 90.5099Z" fill="#9D6C4E"></path><path d="M81.2603 90.5099C81.2603 93.0555 79.1161 95.2094 76.582 95.2094C74.0478 95.2094 71.9036 93.0555 71.9036 90.5099C71.9036 87.9644 74.0478 85.8105 76.582 85.8105C79.1161 85.8105 81.2603 87.9644 81.2603 90.5099Z" fill="#9D6C4E"></path><path d="M83.5999 143.769C78.7266 142.398 71.904 141.615 64.3016 141.615C56.6992 141.615 49.8766 142.398 45.0032 143.769H37.011V148.86C37.011 152.972 49.0968 156.301 64.1067 156.301C79.1165 156.301 91.2023 152.972 91.2023 149.056V143.965H83.5999V143.769Z" fill="#E3972B"></path><path d="M91.2023 143.77C91.2023 147.882 79.1165 151.015 64.1067 151.015C49.0968 151.015 37.011 147.882 37.011 143.77C37.011 139.658 49.0968 136.525 64.1067 136.525C79.1165 136.525 91.2023 139.854 91.2023 143.77Z" fill="#FFC562"></path><path d="M53.5806 144.555C53.5806 145.338 52.8008 146.121 52.0211 146.121H48.1224C47.3427 146.121 46.563 145.338 46.563 144.555C46.563 143.772 47.3427 142.988 48.1224 142.988H52.0211C52.8008 142.988 53.5806 143.576 53.5806 144.555Z" fill="#9D6C4E"></path><path d="M67.81 140.442C67.81 141.421 67.0303 142.204 66.0556 142.204H60.4026C59.4279 142.204 58.6482 141.421 58.6482 140.442C58.6482 139.463 59.4279 138.68 60.4026 138.68H66.0556C66.8354 138.68 67.81 139.463 67.81 140.442Z" fill="#9D6C4E"></path><path d="M77.5574 146.121C77.5574 146.904 76.9726 147.492 76.1928 147.492H73.2688C72.4891 147.492 71.9043 146.904 71.9043 146.121C71.9043 145.338 72.4891 144.75 73.2688 144.75H76.1928C76.9726 144.555 77.5574 145.142 77.5574 146.121Z" fill="#9D6C4E"></path><path d="M64.8863 147.492C64.8863 148.275 64.3015 148.862 63.5217 148.862H61.5724C60.7927 148.862 60.0129 148.275 60.0129 147.492C60.0129 146.709 60.5977 146.121 61.5724 146.121H63.5217C64.3015 146.121 64.8863 146.709 64.8863 147.492Z" fill="#9D6C4E"></path><path d="M82.2353 141.421C82.2353 142.205 81.6505 142.792 80.8708 142.792H77.9468C77.1671 142.792 76.5823 142.205 76.5823 141.421C76.5823 140.638 77.1671 140.051 77.9468 140.051H80.6759C81.4556 140.051 82.2353 140.638 82.2353 141.421Z" fill="#9D6C4E"></path><path d="M112.06 154.54C109.331 155.91 88.4735 161.002 86.5241 161.002C84.9647 161.002 80.8711 159.827 84.1849 152.973C84.7697 151.799 85.5495 150.428 86.5241 148.861C93.7366 138.092 107.772 134.959 107.772 134.959C107.772 134.959 110.306 141.812 111.67 147.491C112.645 151.015 113.035 153.952 112.06 154.54Z" fill="#E3972B"></path><path d="M111.866 147.295C108.357 148.862 88.2786 153.561 86.5243 153.561C85.9395 153.561 84.9648 153.365 84.1851 152.778C84.7699 151.603 85.5496 150.233 86.5243 148.666C93.7368 137.897 107.772 134.764 107.772 134.764C107.772 134.764 110.501 141.813 111.866 147.295Z" fill="#FFC562"></path><path d="M134.283 154.54C137.012 155.911 157.87 161.002 159.819 161.002C161.378 161.002 165.472 159.827 162.158 152.974C161.573 151.799 160.794 150.428 159.819 148.862C152.412 138.092 138.376 134.764 138.376 134.764C138.376 134.764 135.842 141.617 134.478 147.295C133.503 151.016 133.113 153.953 134.283 154.54Z" fill="#E3972B"></path><path d="M134.478 147.295C137.986 148.862 158.064 153.561 159.819 153.561C160.404 153.561 161.378 153.365 162.158 152.778C161.573 151.603 160.793 150.233 159.819 148.666C152.411 138.092 138.376 134.764 138.376 134.764C138.376 134.764 135.842 141.813 134.478 147.295Z" fill="#FFC562"></path><path d="M141.69 141.029V147.687C141.69 152.778 137.597 156.694 132.723 156.694H114.01C108.942 156.694 105.043 152.582 105.043 147.687V141.029C105.043 140.833 105.043 140.833 105.043 140.638C105.238 135.742 109.137 131.826 114.01 131.826H132.723C137.597 131.826 141.69 135.742 141.69 140.638C141.69 140.638 141.69 140.833 141.69 141.029Z" fill="#FFC562"></path><path d="M141.69 140.638C141.69 141.617 141.495 142.596 141.105 143.379C139.936 146.903 136.427 149.449 132.528 149.449H113.815C109.916 149.449 106.602 146.903 105.238 143.379C104.848 142.596 104.848 141.617 104.653 140.638C104.848 135.742 108.746 131.826 113.62 131.826H132.333C137.596 131.826 141.69 135.742 141.69 140.638Z" fill="#FFD894"></path></g></g><path d="M49.2125 47.7531C49.0801 47.6973 48.942 47.5947 48.7981 47.4453C48.6676 47.2962 48.59 47.168 48.5653 47.0609C48.5036 46.793 48.4364 46.465 48.3637 46.0769C48.291 45.6888 48.2187 45.2741 48.147 44.8326C48.0752 44.3912 48.0036 43.9431 47.9321 43.4884C47.8742 43.0205 47.8158 42.5794 47.7569 42.1649C47.6982 41.737 47.652 41.3561 47.6183 41.0221C47.5845 40.688 47.5628 40.4209 47.5533 40.2207C47.5573 40.0074 47.6328 39.8888 47.78 39.8649C48.1273 39.8314 48.3716 39.9627 48.5127 40.2587C48.5749 40.4999 48.6431 40.7746 48.7173 41.0827C48.7916 41.3908 48.8653 41.7256 48.9385 42.087C49.2607 41.973 49.5502 41.8251 49.807 41.6432C50.0638 41.4613 50.2742 41.2652 50.4381 41.0549C50.6157 40.8315 50.7399 40.6071 50.8108 40.3818C50.8953 40.1433 50.913 39.9103 50.8639 39.6826C50.802 39.4281 50.6189 39.238 50.3145 39.1122C50.0101 38.9865 49.6647 38.92 49.2781 38.9128C48.7448 38.9028 48.263 38.9938 47.8327 39.1858C47.4159 39.3647 47.0316 39.5908 46.6798 39.8643C46.5176 39.9813 46.3435 40.018 46.1576 39.9745C45.9587 39.9175 45.8277 39.7883 45.7648 39.5871C45.7683 39.4005 45.8046 39.2411 45.8738 39.1091C45.9429 38.977 46.0318 38.8586 46.1405 38.754C46.5617 38.3351 47.0539 38.0443 47.6171 37.8815C48.1936 37.7189 48.7951 37.6435 49.4216 37.6553C49.9282 37.6648 50.4133 37.7539 50.8769 37.9226C51.3538 38.0915 51.755 38.3858 52.0806 38.8053C52.2355 39.0749 52.3103 39.3563 52.3048 39.6496C52.3126 39.9432 52.2673 40.229 52.1687 40.5072C52.0701 40.7854 51.9318 41.0495 51.7538 41.2996C51.5891 41.5499 51.4183 41.7667 51.2415 41.9501C51.5753 41.9297 51.9146 41.9694 52.2595 42.0692C52.6046 42.1557 52.9084 42.3081 53.1711 42.5264C53.4473 42.7316 53.6689 43.0024 53.836 43.3389C54.003 43.6755 54.0822 44.077 54.0734 44.5436C54.0634 45.0768 53.9343 45.5612 53.6861 45.9966C53.4513 46.4323 53.1377 46.7998 52.7453 47.0992C52.3663 47.3988 51.9286 47.6306 51.4321 47.7947C50.9489 47.959 50.4474 48.0363 49.9275 48.0266C49.7008 48.0223 49.5221 47.9523 49.3913 47.8165C49.3246 47.8152 49.265 47.7941 49.2125 47.7531ZM49.2111 43.5524C49.3081 44.0743 49.3979 44.616 49.4807 45.1777C49.5636 45.7393 49.6531 46.3011 49.7492 46.863L49.8292 46.8645C50.1225 46.87 50.4434 46.8227 50.792 46.7225C51.154 46.6226 51.4901 46.4756 51.8005 46.2813C52.1111 46.0738 52.3691 45.8252 52.5746 45.5357C52.7803 45.2328 52.88 44.8946 52.8736 44.5211C52.8132 44.1866 52.6647 43.9304 52.428 43.7526C52.1912 43.5748 51.9001 43.456 51.5545 43.3962C51.2222 43.3367 50.8489 43.3297 50.4347 43.3752C50.034 43.4077 49.6262 43.4668 49.2111 43.5524ZM60.2431 43.0589C59.7175 43.3558 59.1531 43.5853 58.5499 43.7473C57.947 43.8961 57.299 43.9639 56.6058 43.9509C56.6237 44.418 56.75 44.7938 56.9847 45.0782C57.2197 45.3494 57.5166 45.5149 57.8756 45.575C58.0884 45.6057 58.3018 45.603 58.5158 45.567C58.7432 45.5313 58.9509 45.4751 59.1391 45.3987C59.3408 45.3091 59.5226 45.2125 59.6846 45.1088C59.8466 45.0052 59.9886 44.9011 60.1105 44.7967C60.2325 44.6923 60.3604 44.6281 60.4942 44.6039C60.6283 44.5664 60.7284 44.5616 60.7945 44.5895C60.9799 44.6597 61.0428 44.8609 60.9833 45.1932C60.762 45.6158 60.4485 45.9766 60.0428 46.2757C59.6374 46.5615 59.1873 46.7398 58.6926 46.8105C58.2645 46.8825 57.8249 46.8543 57.3739 46.7258C56.9229 46.5973 56.5207 46.3564 56.1672 46.0031C55.8664 45.6907 55.6398 45.3264 55.4876 44.9102C55.3354 44.4939 55.2434 44.0654 55.2116 43.6248C55.1794 43.2108 55.2201 42.8181 55.3337 42.4468C55.4607 42.0758 55.6468 41.7526 55.892 41.4771C56.1374 41.1884 56.4419 40.954 56.8053 40.7741C57.1687 40.5942 57.5907 40.4955 58.0711 40.4778C58.6451 40.4485 59.163 40.5649 59.6248 40.8269C60.0866 41.089 60.4066 41.4484 60.5848 41.9051C60.6867 42.1604 60.7092 42.3809 60.6524 42.5665C60.6089 42.7524 60.4725 42.9165 60.2431 43.0589ZM57.969 41.6561C57.8352 41.6802 57.6877 41.7242 57.5264 41.7878C57.3785 41.8517 57.2369 41.9357 57.1016 42.0399C56.9799 42.131 56.8645 42.2422 56.7553 42.3735C56.6598 42.4917 56.6038 42.6307 56.5875 42.7904C56.8141 42.7946 57.0611 42.7793 57.3285 42.7443C57.6092 42.7095 57.8767 42.6679 58.131 42.6193C58.3988 42.5576 58.6402 42.4888 58.855 42.4128C59.0831 42.3371 59.2713 42.2539 59.4197 42.1633C59.3178 41.9081 59.1207 41.751 58.8285 41.6922C58.5498 41.6203 58.2633 41.6082 57.969 41.6561ZM68.4346 41.012C68.1921 41.1408 67.9362 41.2761 67.6669 41.4177C67.4108 41.5596 67.1476 41.728 66.8773 41.923C66.6205 42.1049 66.3696 42.3269 66.1247 42.589C65.8933 42.8381 65.6809 43.1408 65.4875 43.4972C65.2114 43.9988 65.0217 44.5154 64.9184 45.0468C64.8153 45.565 64.7457 46.0771 64.7096 46.5832C64.7051 46.8232 64.6405 47.0687 64.5158 47.3197C64.4046 47.5577 64.2491 47.6748 64.0491 47.671C63.7958 47.6663 63.5915 47.5358 63.4363 47.2795C63.2947 47.0101 63.1994 46.7549 63.1506 46.514C62.9417 45.5632 62.7726 44.6266 62.6432 43.704C62.514 42.7681 62.4047 41.8392 62.3153 40.9174C62.3188 40.7307 62.3744 40.6117 62.482 40.5604C62.603 40.5093 62.7367 40.4918 62.8831 40.5079C63.0428 40.5243 63.1954 40.5671 63.3407 40.6365C63.4861 40.7059 63.5708 40.8142 63.5947 40.9613C63.6388 41.4556 63.6957 41.9767 63.7654 42.5248C63.8354 43.0595 63.9068 43.521 63.9796 43.9091C64.0414 43.4568 64.1963 43.0196 64.4442 42.5975C64.6922 42.1754 64.9927 41.7943 65.3458 41.4542C65.7122 41.1144 66.1176 40.8286 66.5621 40.5969C67.0198 40.3654 67.4827 40.214 67.9508 40.1428C68.1513 40.1199 68.3179 40.123 68.4507 40.1522C68.5835 40.1813 68.676 40.2297 68.728 40.2974C68.7801 40.365 68.7848 40.4718 68.742 40.6177C68.7126 40.7638 68.6102 40.8953 68.4346 41.012ZM71.0784 39.1012C71.0724 39.4211 71.059 39.781 71.0381 40.1806C71.0306 40.5806 71.0229 40.9938 71.0149 41.4204C71.0202 41.8473 71.0187 42.2873 71.0102 42.7406C71.015 43.1941 71.0202 43.6276 71.0258 44.0411C71.1641 43.777 71.329 43.52 71.5203 43.2702C71.712 43.0071 71.923 42.7777 72.1533 42.5819C72.3971 42.3865 72.6467 42.2311 72.9022 42.1159C73.1711 42.0009 73.4588 41.9463 73.7654 41.952C74.0987 41.9583 74.39 42.0704 74.6393 42.2885C74.9019 42.5068 75.1232 42.7976 75.3031 43.161C75.4965 43.5114 75.6558 43.9078 75.7809 44.3502C75.9062 44.7793 76.0046 45.2212 76.0761 45.676C76.1612 46.1176 76.2198 46.5455 76.2521 46.9595C76.2846 47.3602 76.3114 47.7074 76.3326 48.0012C76.3286 48.2145 76.272 48.3868 76.1629 48.5181C76.0537 48.6494 75.9258 48.7137 75.7792 48.7109C75.6725 48.7089 75.5405 48.6398 75.383 48.5035C75.2391 48.3541 75.1357 48.1788 75.0728 47.9776C75.0358 47.8169 75.0002 47.5828 74.9659 47.2755C74.9317 46.9681 74.8911 46.6406 74.8443 46.293C74.7977 45.9321 74.7378 45.5709 74.6646 45.2094C74.5913 44.848 74.4973 44.5262 74.3826 44.244C74.2815 43.9487 74.1524 43.7196 73.9954 43.5566C73.8384 43.3937 73.6529 43.3302 73.4389 43.3662C73.1044 43.4266 72.8067 43.6544 72.5459 44.0496C72.2985 44.445 72.0767 44.8942 71.8806 45.3973C71.6978 45.9007 71.5415 46.4112 71.4118 46.9288C71.2954 47.4467 71.2075 47.8652 71.1482 48.1841C71.0904 48.4231 71.014 48.5883 70.9189 48.6799C70.8374 48.7584 70.7434 48.7966 70.6367 48.7946C70.5301 48.7926 70.4311 48.7374 70.3398 48.629C70.2618 48.5209 70.1842 48.3927 70.1069 48.2446C70.0433 48.0834 69.9863 47.9223 69.9359 47.7613C69.8859 47.587 69.8553 47.4397 69.8442 47.3195C69.791 46.5984 69.7506 45.9109 69.7228 45.2569C69.6953 44.5896 69.6745 43.9224 69.6603 43.2554C69.6595 42.5886 69.6655 41.9086 69.6785 41.2153C69.6918 40.5088 69.7192 39.7559 69.7608 38.9565C69.7733 38.2899 70.0189 37.9945 70.4976 38.0701C70.657 38.0998 70.7948 38.2224 70.9108 38.4379C71.027 38.6402 71.0829 38.8612 71.0784 39.1012ZM82.7001 43.4797C82.1744 43.7765 81.61 44.006 81.0069 44.1681C80.404 44.3168 79.756 44.3847 79.0628 44.3717C79.0807 44.8388 79.207 45.2145 79.4417 45.499C79.6767 45.7701 79.9736 45.9357 80.3326 45.9958C80.5453 46.0264 80.7588 46.0237 80.9728 45.9878C81.2002 45.952 81.4079 45.8959 81.5961 45.8194C81.7978 45.7298 81.9796 45.6332 82.1416 45.5296C82.3036 45.4259 82.4455 45.3219 82.5675 45.2175C82.6895 45.1131 82.8174 45.0488 82.9512 45.0246C83.0853 44.9871 83.1854 44.9824 83.2515 45.0103C83.4369 45.0804 83.4998 45.2816 83.4403 45.6139C83.219 46.0365 82.9055 46.3974 82.4998 46.6965C82.0944 46.9823 81.6443 47.1605 81.1496 47.2313C80.7215 47.3033 80.2819 47.275 79.8309 47.1466C79.3799 47.0181 78.9777 46.7772 78.6242 46.4238C78.3234 46.1115 78.0968 45.7472 77.9446 45.3309C77.7924 44.9147 77.7004 44.4862 77.6686 44.0455C77.6364 43.6315 77.6771 43.2389 77.7907 42.8676C77.9177 42.4966 78.1038 42.1733 78.349 41.8979C78.5944 41.6091 78.8989 41.3748 79.2623 41.1949C79.6257 41.015 80.0477 40.9162 80.5281 40.8985C81.1021 40.8693 81.62 40.9857 82.0818 41.2477C82.5436 41.5097 82.8636 41.8691 83.0418 42.3259C83.1437 42.5812 83.1662 42.8016 83.1094 42.9872C83.0659 43.1731 82.9295 43.3373 82.7001 43.4797ZM80.426 42.0768C80.2922 42.101 80.1447 42.1449 79.9834 42.2086C79.8355 42.2725 79.6939 42.3565 79.5586 42.4606C79.4369 42.5517 79.3215 42.6629 79.2123 42.7942C79.1168 42.9124 79.0608 43.0514 79.0445 43.2111C79.2711 43.2154 79.5181 43.2 79.7855 43.165C80.0662 43.1303 80.3337 43.0886 80.588 43.04C80.8558 42.9784 81.0972 42.9095 81.312 42.8336C81.5401 42.7578 81.7283 42.6747 81.8767 42.5841C81.7748 42.3288 81.5777 42.1717 81.2855 42.1129C81.0068 42.041 80.7203 42.029 80.426 42.0768ZM86.1868 41.6447C86.2231 41.8454 86.2588 42.0728 86.294 42.3268C86.3429 42.5677 86.3915 42.822 86.4398 43.0897C86.4884 43.3439 86.5301 43.6048 86.5651 43.8721C86.6001 44.1395 86.6287 44.3934 86.6509 44.6339C86.8174 44.2903 86.9975 43.9269 87.1914 43.5438C87.3853 43.1607 87.5919 42.8112 87.8112 42.4952C88.044 42.1662 88.2824 41.8973 88.5264 41.6885C88.7837 41.4799 89.059 41.3784 89.3522 41.3839C89.7922 41.3922 90.1558 41.559 90.4431 41.8844C90.7437 42.2101 90.9895 42.6148 91.1804 43.0985C91.385 43.569 91.5424 44.0654 91.6526 44.5876C91.7629 45.1097 91.8542 45.5715 91.9267 45.9729C92 46.3344 91.835 46.598 91.4318 46.7638C91.2434 46.8536 91.1032 46.8643 91.0112 46.7959C90.9191 46.7275 90.867 46.6599 90.8549 46.593C90.7913 46.4318 90.7099 46.1502 90.6107 45.7483C90.5249 45.3466 90.4192 44.9379 90.2936 44.5221C90.1814 44.1066 90.0482 43.744 89.8939 43.4344C89.7397 43.1248 89.5624 42.9815 89.3619 43.0044C89.1217 43.0132 88.905 43.1892 88.7119 43.5323C88.5467 43.8092 88.3742 44.1194 88.1944 44.4628C88.0282 44.793 87.8617 45.1366 87.695 45.4936C87.5285 45.8372 87.3619 46.1875 87.1952 46.5444C87.0421 46.8883 86.8961 47.2056 86.7573 47.4964C86.6622 47.5879 86.541 47.6523 86.3936 47.6896C86.2598 47.7138 86.1201 47.6978 85.9744 47.6417C85.8419 47.5992 85.7365 47.5306 85.6582 47.4358C85.58 47.341 85.5417 47.2469 85.5435 47.1536C85.443 46.1115 85.3341 45.1626 85.2168 44.307C85.1128 43.4515 84.9692 42.5753 84.7859 41.6784C84.6984 41.3701 84.6829 41.1297 84.7394 40.9574C84.8096 40.772 85.0109 40.7025 85.3434 40.7487C85.8085 40.8374 86.0896 41.1361 86.1868 41.6447ZM97.8981 43.1043C98.1516 43.0957 98.4038 43.1604 98.6546 43.2985C98.9054 43.4366 99.0281 43.6456 99.0229 43.9255C98.992 44.1516 98.8626 44.2959 98.6347 44.3583C98.4204 44.4076 98.2466 44.4311 98.1133 44.4286C97.8467 44.4236 97.56 44.4249 97.2531 44.4324C96.9462 44.44 96.6326 44.4542 96.3121 44.4748C96.2772 44.9143 96.2428 45.327 96.2089 45.7131C96.1883 46.0995 96.1685 46.4458 96.1494 46.7522C96.1306 47.0452 96.1195 47.285 96.116 47.4717C96.1125 47.6583 96.1173 47.7584 96.1303 47.772C96.4246 47.7242 96.7395 47.6434 97.075 47.5297C97.4241 47.4028 97.7667 47.2692 98.1027 47.1288C98.4523 46.9754 98.7886 46.8216 99.1115 46.6677C99.4481 46.5006 99.7643 46.3465 100.06 46.2053C100.195 46.1412 100.315 46.1234 100.421 46.1521C100.541 46.181 100.613 46.2424 100.638 46.3362C100.662 46.4833 100.639 46.6629 100.568 46.875C100.497 47.087 100.374 47.2781 100.197 47.4481C99.9942 47.6044 99.724 47.786 99.3868 47.993C99.0631 48.187 98.7128 48.3738 98.3361 48.5535C97.9593 48.7331 97.5763 48.8926 97.1869 49.032C96.8111 49.1583 96.4764 49.2321 96.1826 49.2532C95.7419 49.285 95.4109 49.1588 95.1895 48.8746C94.9681 48.5904 94.8481 48.2347 94.8294 47.8076C94.8108 47.3805 94.8133 46.8872 94.8372 46.3275C94.8743 45.7681 94.9121 45.1754 94.9505 44.5493C94.6967 44.5713 94.4496 44.5933 94.2091 44.6155C93.9822 44.6245 93.7619 44.6404 93.5481 44.6631C93.3748 44.6598 93.1823 44.6162 92.9705 44.5322C92.772 44.4485 92.6749 44.2933 92.6791 44.0667C92.6806 43.9867 92.716 43.8807 92.7851 43.7486C92.8543 43.6166 93.0028 43.5193 93.2307 43.4569C93.779 43.3738 94.387 43.3052 95.0548 43.2511C95.1066 42.6253 95.1646 42.0196 95.2289 41.434C95.2932 40.8484 95.3499 40.3161 95.3988 39.8369C95.4152 39.6772 95.4645 39.5381 95.5467 39.4196C95.6289 39.3011 95.7167 39.2428 95.81 39.2445C96.0369 39.2354 96.2491 39.2994 96.4465 39.4365C96.6576 39.5604 96.7616 39.7024 96.7586 39.8624C96.6968 40.3146 96.6339 40.8269 96.5698 41.3991C96.5191 41.9716 96.4681 42.5574 96.4168 43.1566C96.684 43.1349 96.9375 43.1263 97.1775 43.1308C97.431 43.1222 97.6712 43.1134 97.8981 43.1043ZM104.933 40.4356C104.904 40.5684 104.81 40.64 104.649 40.6503C104.489 40.6607 104.356 40.6648 104.249 40.6628C103.915 40.6699 103.568 40.6968 103.207 40.7433C102.86 40.7902 102.492 40.8633 102.103 40.9627C101.942 41.013 101.769 40.9898 101.584 40.893C101.399 40.7961 101.29 40.6074 101.255 40.3267C101.257 40.22 101.298 40.1341 101.38 40.069C101.461 40.0038 101.555 39.9456 101.663 39.8943C101.838 39.8175 102.046 39.7547 102.287 39.7059C102.528 39.6437 102.769 39.6016 103.009 39.5794C103.263 39.5575 103.503 39.5553 103.729 39.5729C103.956 39.5772 104.142 39.6006 104.288 39.6434C104.5 39.714 104.665 39.8171 104.782 39.9527C104.913 40.0885 104.964 40.2495 104.933 40.4356ZM104.349 47.0858C104.438 47.3009 104.48 47.535 104.476 47.7883C104.484 48.0285 104.415 48.1939 104.266 48.2845C104.077 48.401 103.878 48.3906 103.667 48.2533C103.456 48.116 103.299 47.933 103.197 47.7044C103.056 47.4217 102.949 47.0796 102.876 46.6782C102.804 46.2634 102.751 45.8557 102.719 45.455C102.686 45.0543 102.667 44.6806 102.66 44.3337C102.666 43.9871 102.671 43.7272 102.675 43.5538C102.691 43.3675 102.748 43.1952 102.844 43.0369C102.941 42.8787 103.062 42.7876 103.209 42.7637C103.449 42.7816 103.64 42.8985 103.783 43.1145C103.926 43.3172 103.988 43.5718 103.969 43.8781C103.964 44.1181 103.966 44.3849 103.974 44.6784C103.982 44.9719 104.003 45.2657 104.037 45.5597C104.072 45.8538 104.113 46.1412 104.161 46.4222C104.209 46.6898 104.272 46.911 104.349 47.0858Z" fill="#BF2828"></path><defs><clipPath id="clip0"><rect width="140.352" height="92.8132" fill="white" transform="translate(37.011 68.1875)"></rect></clipPath></defs></svg>