<svg width="195" height="187" viewBox="0 0 195 187" fill="none" xmlns="http://www.w3.org/2000/svg">
<mask id="mask0" mask-type="alpha" maskUnits="userSpaceOnUse" x="0" y="0" width="195" height="187">
<rect width="195" height="187" fill="white"/>
</mask>
<g mask="url(#mask0)">
<path fill-rule="evenodd" clip-rule="evenodd" d="M0.114343 98.9752C-2.50807 70.64 0.158109 38.382 24.044 22.0275C47.3546 6.06692 78.5309 19.6811 107.178 25.6698C137.473 32.0031 175.24 30.4334 189.775 56.6742C204.503 83.2626 187.959 114.975 169.681 138.509C155.261 157.074 129.922 160.181 105.889 164.682C82.3723 169.086 57.5835 176.044 37.1217 163.333C14.4368 149.241 2.46115 124.333 0.114343 98.9752Z" fill="#D2F8FD"/>
<path fill-rule="evenodd" clip-rule="evenodd" d="M172.57 119.466V125.764C172.57 126.311 172.159 126.722 171.612 126.722H170.106C169.558 126.722 169.147 126.311 169.147 125.764V119.466C169.147 118.919 169.558 118.508 170.106 118.508H171.612C172.159 118.508 172.57 118.919 172.57 119.466Z" fill="#C7B299"/>
<path d="M178.73 144.52H163.123C161.754 149.996 163.26 166.425 163.397 167.246C163.397 167.52 163.944 168.341 165.314 168.615C166.683 168.889 175.445 169.026 176.814 168.615C178.046 168.341 178.457 167.52 178.457 167.109C178.594 166.288 180.099 149.996 178.73 144.52Z" fill="#FCD068"/>
<path d="M178.731 145.066C178.046 142.328 174.624 137.262 173.939 134.387C173.255 131.923 173.391 125.351 173.528 123.982H173.118C172.981 125.351 172.844 131.649 173.391 134.114C173.939 136.852 176.814 141.643 177.362 144.245C178.457 149.447 177.225 165.191 177.225 166.013C177.225 166.424 176.814 166.971 175.856 167.245C174.624 167.519 167.504 167.656 166.409 167.245C165.314 166.971 164.903 166.287 164.903 166.013C164.903 165.191 163.671 149.584 164.766 144.382C165.314 141.643 168.052 136.715 168.737 134.114C169.284 131.786 169.147 125.351 169.01 123.982H168.6C168.737 125.351 168.873 131.923 168.189 134.387C167.504 137.125 164.082 142.191 163.397 144.929C162.028 150.405 163.534 166.56 163.671 167.382C163.671 167.656 164.219 168.34 165.588 168.614C166.957 168.888 175.719 168.888 177.088 168.614C178.32 168.34 178.731 167.793 178.731 167.382C178.594 166.56 180.1 150.405 178.731 145.066Z" fill="#60AFAF"/>
<path d="M174.212 125.077C174.212 125.351 174.075 125.488 173.802 125.488H168.052C167.778 125.488 167.641 125.351 167.641 125.077V123.297C167.641 123.024 167.778 122.887 168.052 122.887H173.802C174.075 122.887 174.212 123.024 174.212 123.297V125.077Z" fill="#60AFAF"/>
<path fill-rule="evenodd" clip-rule="evenodd" d="M70.3007 34.1717C69.4793 28.8323 74.6818 23.356 80.158 24.0406C77.9675 22.5346 77.9675 18.8381 79.6104 16.6476C81.2533 14.4571 83.9914 13.3618 86.5926 12.6773C88.0986 12.2666 89.7415 11.8559 91.2475 11.582C91.6582 10.0761 92.4796 8.707 93.5749 7.61174C96.8607 4.32598 102.611 4.18907 106.444 6.92721C107.539 7.74865 108.361 8.57009 109.045 9.39153C110.141 9.39153 111.236 9.39153 112.331 9.66534C116.301 10.6237 119.313 14.4571 119.45 18.4274C119.45 16.1 122.599 14.594 124.79 15.6892C126.98 16.7845 127.802 19.5226 127.391 21.85C127.117 24.1775 125.748 26.368 124.516 28.2847C128.76 28.1478 131.498 32.5288 131.361 35.4038C131.361 38.2789 129.992 42.9337 125.2 45.6718C125.2 45.6718 130.54 46.6302 130.95 53.2017C131.087 56.6244 128.349 59.6363 125.063 60.5947C121.778 61.6899 118.355 61.2792 114.932 60.8685C115.617 64.1542 114.248 67.8507 111.51 69.7674C108.772 71.6841 104.938 71.9579 102.063 70.1781L98.3666 63.3328C91.5213 66.4816 83.3069 69.6305 77.0092 65.5233C72.2174 62.3745 70.7115 55.3922 73.5865 50.4636C71.396 50.8743 69.7531 48.1361 70.0269 45.9456C70.3007 43.7551 71.396 41.5646 71.396 39.3741C71.396 37.5943 70.5746 35.9514 70.3007 34.1717Z" fill="#626262"/>
<path fill-rule="evenodd" clip-rule="evenodd" d="M130.95 168.889L61.2647 169.848C60.7171 159.991 68.9315 144.931 68.7946 143.562C68.5208 120.014 66.3303 117.002 66.4672 100.573C66.4672 92.7693 70.9851 78.2572 74.8185 72.3702C74.8185 72.3702 75.7769 72.3702 77.9674 71.9595C87.4139 70.0428 108.771 70.4535 116.849 72.3702C131.087 75.656 126.159 97.6979 123.557 108.377C121.778 115.359 121.914 127.681 122.325 140.413C122.462 145.889 130.813 163.55 130.95 168.889Z" fill="#8BA7E0"/>
<path fill-rule="evenodd" clip-rule="evenodd" d="M88.372 48.8194C88.372 64.2899 84.2648 72.6412 84.2648 72.6412C83.5802 76.3377 89.4672 90.576 96.1757 90.576C103.295 90.576 108.908 75.2424 108.223 72.5043C108.223 72.5043 105.485 63.6053 106.033 51.5575C106.581 38.8252 88.372 48.8194 88.372 48.8194Z" fill="#F2B183"/>
<path fill-rule="evenodd" clip-rule="evenodd" d="M74.8187 72.3672C66.6043 74.0101 61.6757 75.516 56.3363 85.5102C50.7231 96.189 45.11 125.35 49.3541 130.279C53.5982 135.344 58.3899 135.892 59.2114 135.755C61.6757 135.207 70.027 107.963 70.1639 105.636C70.3008 103.308 74.8187 72.3672 74.8187 72.3672Z" fill="#8BA7E0"/>
<path fill-rule="evenodd" clip-rule="evenodd" d="M122.188 107.419L118.628 72.9184C132.73 72.3708 149.022 90.4425 150.802 94.9604C153.266 100.984 144.367 108.788 142.313 108.651C138.617 108.651 124.789 107.83 122.188 107.419Z" fill="#8BA7E0"/>
<path fill-rule="evenodd" clip-rule="evenodd" d="M66.4675 171.901L124.79 169.847C122.736 156.841 118.081 113.578 119.177 102.078C120.272 90.5781 118.629 73.0541 118.629 73.0541C118.629 73.0541 117.944 72.7802 116.712 72.5064C116.165 72.3695 114.659 72.0957 114.659 72.0957L112.742 98.5187C112.605 100.572 110.688 102.215 108.361 102.215H86.319C84.1285 102.215 82.2118 100.709 81.938 98.7925L77.9677 72.0957L74.8188 72.5064C75.9141 79.3518 69.3426 135.894 68.658 139.591C67.8366 142.877 66.4675 158.21 66.4675 171.901Z" fill="#F2F2F2"/>
<path fill-rule="evenodd" clip-rule="evenodd" d="M38.1271 103.583C45.657 110.292 62.7703 119.738 63.5918 124.119C64.1394 126.857 61.5382 136.304 59.6215 136.304C51.1332 136.578 38.6747 122.613 32.1032 110.702C30.7341 108.238 31.9663 107.69 33.883 105.774C34.8413 104.815 36.758 102.214 38.1271 103.583Z" fill="#98B3E8"/>
<path fill-rule="evenodd" clip-rule="evenodd" d="M36.0736 109.745C37.1689 109.334 37.8534 108.375 37.9903 107.28C38.2641 105.364 39.4963 100.298 38.2641 98.792C37.7165 98.1075 36.4843 96.0539 35.2522 95.917C34.9784 95.917 33.6093 95.7801 33.6093 95.7801C32.514 94.6848 31.4188 93.5896 30.8712 93.7265C29.639 93.8634 27.5854 95.5063 27.0378 97.0122C26.764 97.8337 26.0794 101.804 26.4901 102.762C27.0378 103.994 29.639 106.048 31.145 107.965C32.514 109.334 34.4307 110.429 36.0736 109.745Z" fill="#F2B183"/>
<path fill-rule="evenodd" clip-rule="evenodd" d="M83.3071 31.0234C83.8547 29.6543 88.6464 19.797 101.242 21.8506C101.242 23.9042 102.337 26.2317 103.843 27.0531C106.307 28.5591 110.278 28.1484 111.647 30.8865C112.605 32.8032 111.373 34.9937 111.236 37.1842C111.099 39.6485 112.879 41.9759 115.206 42.9343C115.069 43.8926 114.933 44.7141 114.796 45.6724C112.742 56.625 105.76 69.0835 93.4382 66.893C81.6642 64.8394 79.0629 50.3272 80.9796 39.3747C81.5273 36.3628 82.2118 33.4877 83.3071 31.0234Z" fill="#F7BC92"/>
<path d="M134.921 58.5409L104.117 57.1719C103.706 57.1719 103.432 57.4457 103.432 57.8564C103.432 58.2671 103.706 58.404 104.117 58.404L134.921 59.6362C135.332 59.6362 135.605 59.4993 135.605 59.0886C135.605 58.6779 135.332 58.5409 134.921 58.5409Z" fill="#999999"/>
<path fill-rule="evenodd" clip-rule="evenodd" d="M127.253 62.6471C126.021 61.4149 121.914 62.6471 120.682 63.8793C119.723 64.9745 118.491 67.3019 119.176 69.3555C123.557 81.5402 130.95 102.35 141.218 108.511C144.366 110.291 155.73 100.981 150.664 92.0821C148.611 88.2487 142.039 77.2961 127.253 62.6471Z" fill="#98B3E8"/>
<path d="M113.699 58.8145C113.015 57.3086 118.491 53.0645 119.586 53.0645C120.681 53.0645 126.979 54.4335 127.937 55.3919C128.896 56.3502 126.979 62.511 127.253 63.6063C127.527 64.7015 121.092 68.5349 120.408 67.3028C119.586 66.0706 118.354 63.1956 118.765 61.5527C118.628 61.4158 115.068 62.1003 113.699 58.8145Z" fill="#F2B183"/>
<path fill-rule="evenodd" clip-rule="evenodd" d="M94.5329 57.1719C94.1221 57.1719 93.9852 57.5826 94.1221 57.8564C94.9436 59.3624 96.9972 60.8684 100.009 60.8684C103.158 60.8684 105.759 60.0469 106.17 57.7195C106.17 57.4457 106.033 57.1719 105.759 57.1719H94.5329Z" fill="#999999"/>
<path d="M112.742 169.161H81.5272C75.5034 169.161 70.5747 164.233 70.5747 158.209V136.988H123.695V158.209C123.695 164.233 118.766 169.161 112.742 169.161Z" fill="#F1586C"/>
<path d="M126.295 133.566H67.8361C67.0147 133.566 66.8778 134.799 67.5623 135.757C68.1099 136.578 69.479 137.674 70.3005 137.674H123.968C124.789 137.674 126.021 136.578 126.706 135.757C127.254 134.799 127.117 133.566 126.295 133.566Z" fill="#B3B3B3"/>
<path d="M131.635 146.161H123.694V142.465H131.635C132.73 142.465 133.552 143.286 133.552 144.382C133.552 145.34 132.73 146.161 131.635 146.161Z" fill="#E65064"/>
<path d="M62.634 142.465H70.5746V146.161H62.634C61.5387 146.161 60.7173 145.34 60.7173 144.245C60.7173 143.286 61.5387 142.465 62.634 142.465Z" fill="#E65064"/>
<path d="M47.0628 126.929C51.3399 125.961 51.8446 112.084 48.1901 95.9343C44.5355 79.7844 38.1056 67.4769 33.8284 68.4448C29.5513 69.4127 29.0466 83.2894 32.7011 99.4393C36.3557 115.589 42.7856 127.897 47.0628 126.929Z" fill="#F1586C"/>
<path d="M34.9775 68.5352C32.6501 71.2733 33.1977 83.8687 36.6204 98.5177C39.9062 113.167 44.8348 124.804 48.1206 126.31C51.4063 123.298 51.5432 110.566 48.2575 95.9165C48.1206 95.232 47.9837 94.5474 47.8468 93.9998C44.4241 80.3091 39.0847 69.7673 34.9775 68.5352Z" fill="#E6E6E6"/>
<path opacity="0.5" d="M78.7882 105.226C81.8002 100.297 85.2228 94.5472 83.5799 89.071C82.2109 84.4161 77.9668 81.4042 75.7763 77.1601C73.9965 73.7374 74.2703 66.2075 80.0204 67.029C78.7882 66.8921 81.8001 74.1481 82.074 74.6957C85.0859 78.9399 90.0146 80.9935 93.1634 85.1007C97.5444 90.7138 97.2706 99.4759 92.6158 104.815C90.2884 107.416 87.0026 109.47 86.3181 112.893C84.949 119.327 96.1754 131.238 82.2109 127.679C71.1214 124.804 74.4072 112.482 78.7882 105.226Z" fill="#CCCCCC"/>
<path opacity="0.5" d="M103.979 121.517C103.979 116.041 99.5979 111.66 101.241 106.183C102.199 102.761 104.937 102.761 106.991 100.707C108.634 99.0642 109.181 96.3261 110.961 94.957C111.235 95.0939 111.372 95.2308 111.509 95.6416C113.562 101.939 107.402 104.404 107.949 109.195C108.223 111.933 110.414 114.124 111.098 116.862C112.056 120.832 111.919 127.404 108.086 129.868C106.854 130.69 101.788 132.333 100.693 130.416C99.7348 128.499 103.842 123.981 103.979 121.517Z" fill="#CCCCCC"/>
<path d="M164.218 143.15H143.682V167.794H164.218V143.15Z" fill="#E6E6E6"/>
<path d="M142.313 140.412C142.313 139.864 143.956 139.043 144.914 139.043H164.492C165.45 139.043 165.587 139.864 165.587 140.412V141.918C165.587 142.466 165.45 143.15 164.492 143.15H145.051C144.093 143.15 142.45 142.466 142.45 141.918V140.412H142.313Z" fill="#E6E6E6"/>
<path d="M155.319 135.072C156.962 135.072 158.331 136.441 158.331 138.084C158.331 139.727 156.962 141.096 155.319 141.096C153.676 141.096 152.307 139.727 152.307 138.084C152.307 136.441 153.676 135.072 155.319 135.072Z" fill="#E6E6E6"/>
<path d="M149.021 153.554C153.266 154.375 154.908 153.691 155.456 153.006C156.278 152.185 158.057 152.185 159.29 152.459C160.111 152.732 160.522 153.006 161.206 152.733C161.617 152.596 161.48 153.691 164.218 153.691V167.655H143.682V155.608C143.682 155.744 146.831 153.143 149.021 153.554Z" fill="#B3B3B3"/>
<path d="M27.722 161.494C26.3529 157.524 26.3529 152.869 28.4065 149.309C29.0911 148.077 30.1863 147.256 30.7339 146.023C31.1447 145.202 31.1447 144.244 31.4185 143.422C32.103 141.369 34.7042 140.136 36.8948 140.821C37.3055 140.958 37.5793 141.095 37.7162 141.506C37.99 142.053 37.5793 142.738 37.1686 143.285C36.3471 144.381 37.8531 145.613 37.0317 146.708C39.7698 149.172 41.8234 147.393 45.5199 148.077C46.2044 148.214 46.8889 148.351 47.2997 148.898C48.6687 150.131 47.7104 152.732 45.9306 152.869C47.9842 153.827 49.2164 156.018 50.0378 158.208C50.1747 158.619 50.3116 159.03 50.3116 159.44C50.1747 160.809 48.3949 161.357 47.0258 161.357C46.752 163.137 48.9425 164.917 47.9842 166.423C47.5735 167.107 46.752 167.244 46.0675 167.518C44.5615 167.929 42.9186 168.339 41.4127 168.75C41.002 168.887 40.4543 169.024 40.0436 168.75C39.496 168.476 15.948 167.929 15.8111 167.518C15.4004 166.286 13.6206 164.643 15.6742 163.684C19.0969 162.178 22.5195 163.821 27.722 161.494Z" fill="url(#paint0_linear)"/>
<path d="M29.2276 151.91C29.6384 151.225 30.8705 151.089 31.8289 151.225C31.8289 150.678 31.9658 149.993 32.5134 149.583C32.9241 149.035 33.7456 148.761 34.4301 148.898C35.1146 149.035 35.7992 149.583 35.5254 150.13C36.073 149.309 36.6206 148.487 37.579 147.94C38.4004 147.392 39.7695 146.981 40.8647 147.255C41.2754 147.392 41.5492 147.529 41.8231 147.666C42.0969 148.077 42.0969 148.624 41.8231 149.035C41.5492 149.446 41.0016 149.719 40.5909 149.993C42.2338 150.541 43.7398 150.952 45.2457 151.636C44.2874 151.91 43.7398 152.731 43.7398 153.416C43.7398 153.964 44.1505 154.511 43.8767 154.922C43.7398 155.196 43.329 155.333 43.0552 155.333C41.96 155.743 40.7278 155.88 39.6326 155.743C39.4956 156.291 39.4956 156.839 39.3587 157.386C39.3587 157.523 39.3587 157.66 39.2218 157.797C38.8111 158.345 37.8528 158.208 37.1682 158.071C35.7992 157.66 34.567 156.976 33.4717 156.154C32.9241 156.291 32.5134 156.428 31.9658 156.565C31.9658 156.702 29.0907 152.184 29.2276 151.91Z" fill="url(#paint1_linear)"/>
<path d="M35.6617 158.483C35.5248 157.662 35.6617 156.841 35.9355 156.156C36.2093 155.471 36.6201 154.787 36.4831 154.102C36.3462 153.281 35.1141 152.733 34.2926 153.281C33.4712 153.829 33.3343 155.198 32.5129 155.608C31.5545 156.019 30.4592 155.198 30.1854 154.102C29.9116 153.144 25.8044 153.281 25.8044 155.471C25.8044 156.43 26.2151 157.525 25.5306 158.21C24.5723 159.305 23.3401 159.305 24.1615 160.948C24.5723 161.906 25.9413 162.317 26.489 163.275C27.1735 164.507 26.352 165.192 26.6259 166.287C26.8997 167.245 29.0902 168.615 30.1854 167.93C30.4592 167.793 30.5962 167.519 30.7331 167.109C31.1438 166.013 32.1021 165.055 33.1974 164.507C33.0605 165.192 32.9236 166.013 32.7867 166.698C34.1557 166.835 35.5248 166.698 36.757 166.287C37.1677 166.15 37.5784 166.013 37.8522 165.603C37.9891 165.329 37.9891 165.055 37.9891 164.781C37.9891 162.728 36.0724 160.811 35.6617 158.483Z" fill="url(#paint2_linear)"/>
<path d="M39.9064 157.526C40.3172 156.567 40.591 155.472 41.4124 154.651C42.2339 153.966 43.6029 153.692 44.2875 154.377C45.2458 155.335 44.8351 157.252 45.9303 158.073C46.6149 158.621 47.7101 158.484 48.5316 158.484C49.4899 158.484 50.5852 158.758 50.7221 159.579C50.9959 160.401 50.1744 161.222 49.4899 161.77C48.8054 162.318 48.2578 163.276 48.6685 164.097C48.8054 164.371 49.2161 164.645 49.2161 165.056C49.2161 165.33 48.9423 165.603 48.6685 165.74C47.7101 166.425 46.3411 166.972 45.3827 166.151C45.1089 165.877 44.972 165.466 44.6982 165.193C43.8767 164.234 42.0969 164.371 41.5493 165.466C41.2755 165.74 41.2755 166.151 41.0017 166.562C40.7279 166.835 40.3172 166.972 39.9064 167.109C38.8112 167.52 37.579 167.931 36.4838 167.657C34.1564 166.972 35.3885 164.782 34.8409 163.55C34.1564 162.044 32.7873 161.496 33.0611 159.579C33.198 158.21 34.0194 156.841 35.3885 156.431C36.6207 156.02 36.8945 156.431 37.7159 156.978C38.5374 157.526 39.2219 159.443 39.9064 157.526Z" fill="url(#paint3_linear)"/>
</g>
<defs>
<linearGradient id="paint0_linear" x1="15.8364" y1="154.683" x2="51.479" y2="154.683" gradientUnits="userSpaceOnUse">
<stop stop-color="#5FB25C"/>
<stop offset="1" stop-color="#ABE099"/>
</linearGradient>
<linearGradient id="paint1_linear" x1="36.0487" y1="148.418" x2="39.2724" y2="158.374" gradientUnits="userSpaceOnUse">
<stop stop-color="#ABE099"/>
<stop offset="1" stop-color="#5FB25C"/>
</linearGradient>
<linearGradient id="paint2_linear" x1="28.9207" y1="153.589" x2="33.5461" y2="167.875" gradientUnits="userSpaceOnUse">
<stop stop-color="#ABE099"/>
<stop offset="1" stop-color="#5FB25C"/>
</linearGradient>
<linearGradient id="paint3_linear" x1="40.4008" y1="155.203" x2="44.5348" y2="167.972" gradientUnits="userSpaceOnUse">
<stop stop-color="#ABE099"/>
<stop offset="1" stop-color="#5FB25C"/>
</linearGradient>
</defs>
</svg>
