<svg width="149" height="149" viewBox="0 0 149 149" fill="none" xmlns="http://www.w3.org/2000/svg">
<path d="M149 74.5C149 115.6 115.6 149 74.5 149C33.4 149 0 115.6 0 74.5C0 33.4 33.4 0 74.5 0C115.6 0 149 33.4 149 74.5Z" fill="#F8F6F6"/>
<mask id="mask0" mask-type="alpha" maskUnits="userSpaceOnUse" x="0" y="0" width="149" height="149">
<path d="M149 74.5C149 115.6 115.6 149 74.5 149C33.4 149 0 115.6 0 74.5C0 33.4 33.4 0 74.5 0C115.6 0 149 33.4 149 74.5Z" fill="#F8F6F6"/>
</mask>
<g mask="url(#mask0)">
<path d="M27.5946 64.2127C22.0526 55.3692 21.6066 46.1383 25.811 36.7784C28.1042 31.6788 31.799 27.8703 37.5321 26.7729C39.5069 26.3856 41.5453 26.192 43.329 27.6766C43.5838 27.9348 43.5201 28.3222 43.5201 28.6449C43.5201 29.9359 44.0934 30.646 45.4312 30.9688C47.8518 31.5497 48.1703 32.4534 46.96 34.7127C45.5586 37.2948 45.1764 37.4885 42.3735 36.6493C40.8446 36.1974 39.1884 36.1329 37.9143 34.9709C37.5958 34.6482 37.1499 34.4545 36.704 34.7773C36.4492 34.9709 36.3218 35.2292 36.5129 35.4874C36.7677 35.9392 37.2136 36.0038 37.6595 35.9392C39.698 35.681 41.5453 36.5202 43.4564 36.972C44.0297 37.1011 44.4756 37.3593 44.7304 37.9403C45.0489 39.2313 44.1571 39.7478 43.2653 40.1996C42.3098 40.716 41.2268 40.6515 40.2713 41.0388C39.9528 41.1679 39.6343 41.2324 39.3158 41.297C38.9973 41.4261 38.3602 41.1033 38.3602 41.5552C38.2965 42.2007 38.9973 42.4589 39.4432 42.8462C39.5706 42.9753 39.698 43.0399 39.8254 43.169C41.4179 44.46 41.9276 46.0738 41.4816 48.0749C41.3542 48.5267 41.4179 48.9786 41.3542 49.4305C40.972 50.6569 40.9083 51.948 40.3987 53.1744C40.1439 53.6909 40.335 54.0136 40.8446 54.2073C42.8194 54.7882 44.4119 55.9502 44.7304 58.0804C45.1764 60.9206 44.7304 63.6963 42.7557 65.9556C41.4816 67.4403 39.7617 68.2149 37.8506 68.4086C36.3855 68.5377 34.8566 68.6022 33.3915 68.6022C32.5634 68.6668 31.9264 68.2149 31.2256 67.8922C30.4612 67.5049 29.8242 66.8594 29.0598 66.472C28.2316 65.9556 27.7857 65.181 27.5946 64.2127Z" fill="#EB5757"/>
<path d="M105.184 67.8922C100.47 65.5038 98.7497 60.6624 100.597 55.0464C100.279 53.9491 100.979 53.239 101.68 52.8517C103.527 51.7543 103.718 50.3987 103.145 48.3976C102.635 46.7193 102.635 44.8473 103.591 43.169C104.292 42.1361 103.464 42.1361 102.827 41.9425C100.406 41.1679 98.3675 39.9414 97.5393 37.3593C96.1379 33.0344 98.1127 28.9677 102.572 27.1602C107.413 26.1919 111.172 28.4512 114.293 31.8079C118.497 36.3265 120.281 41.8134 120.281 48.0103C120.281 48.4622 120.217 48.914 119.899 49.2368C119.134 49.6887 118.306 49.6241 117.542 49.2368C116.331 48.1394 117.16 46.4611 116.459 45.2992C116.905 46.4611 116.714 47.8167 117.096 49.1077C117.032 49.4305 116.905 49.7532 116.65 49.9469C114.611 50.786 114.484 50.7215 113.529 48.7849C113.337 48.3976 113.21 48.0749 112.764 48.0749C112.509 48.0749 112.318 48.2685 112.318 48.4622C112.254 48.914 112.509 49.1722 112.955 49.3013C113.974 49.6887 114.739 50.2051 114.484 51.4961C113.337 53.5617 113.274 53.6263 111.172 53.0453C110.407 52.8517 109.579 52.7871 109.006 52.3998C109.643 52.7226 110.471 52.8517 111.363 53.0453C112.318 53.3035 113.274 53.4972 113.274 54.7237C113.274 56.0792 112.191 56.0793 111.299 56.1438C111.108 56.1438 110.98 56.2084 110.789 56.2729C110.98 56.2084 110.662 56.2729 110.726 56.2729C111.745 56.1438 112.828 55.7565 113.592 56.8539C114.293 57.8221 114.548 58.7904 113.465 59.6296C113.019 60.2751 112.254 60.3396 111.617 60.5978C111.299 60.727 111.108 61.0497 111.108 61.3725C111.108 61.6952 111.299 61.8889 111.617 61.8889C112 61.9534 112.254 61.6952 112.446 61.437C112.828 60.7915 112.955 59.9523 113.656 59.5005C114.42 58.855 115.121 58.9841 115.885 59.5005C117.032 60.9852 116.968 62.018 115.631 64.0836C113.783 65.3101 112.191 66.9884 109.961 67.634C108.241 68.0858 106.776 68.344 105.184 67.8922Z" fill="#EB5757"/>
<path d="M72.186 138.962C71.2304 139.091 71.2304 138.511 71.2304 137.8C71.2304 136.768 71.2304 135.799 71.2304 134.767C71.2304 132.184 70.0201 130.377 67.8542 129.021C60.1463 124.309 53.8398 118.241 49.8266 109.914C47.9155 105.912 46.8963 101.652 46.5778 97.1976C46.4504 95.7129 46.8963 94.3573 47.9792 93.1954C48.4888 92.6144 49.317 92.1626 49.1896 91.1298C50.1451 90.6134 51.0369 90.0969 52.1199 89.9678C54.859 89.5805 57.4071 88.4832 60.1463 88.0958C71.1667 86.353 82.1235 86.4175 92.8891 90.0324C93.2076 90.1615 93.5261 90.1615 93.8446 90.0324C94.9912 90.0969 95.9468 90.6134 96.5201 91.6462C100.661 95.0028 99.3867 99.2632 98.3675 103.395C95.9468 113.142 90.0225 120.501 82.1872 126.31C80.722 127.408 79.1932 128.376 77.6643 129.344C75.6896 130.635 74.6703 132.443 74.734 134.831C74.734 135.864 74.734 136.832 74.734 137.865C74.734 138.704 74.4792 139.156 73.5237 138.898C73.0778 137.542 73.46 136.122 73.3963 134.767C73.2689 132.636 73.5237 130.506 73.1415 128.44C73.0141 127.73 73.0778 126.956 73.5874 126.375C74.3518 125.988 74.4155 126.698 74.5429 127.085C74.7977 127.86 75.2437 127.795 75.817 127.601C76.5177 127.343 77.1547 127.02 77.728 126.633C84.0345 122.695 89.067 117.596 92.1884 110.689C93.0165 108.881 93.2076 106.88 94.0357 105.137C94.2268 104.621 94.2268 104.105 94.1631 103.588C94.2268 102.878 94.2268 102.168 94.4816 101.523C94.7364 101.135 94.6727 100.683 94.4179 100.296C94.2905 99.6506 93.9083 99.0696 94.2905 98.4241C94.4179 98.1659 94.6727 98.0368 94.9276 97.7786C94.1631 97.9077 93.5898 98.4241 92.8254 98.1013C92.698 98.0368 92.5706 97.9722 92.4432 97.8431C91.615 96.3584 93.2076 96.0357 93.5898 95.2611C93.4624 95.3902 93.2713 95.5838 93.0802 95.7775C91.9336 96.8103 91.7425 96.8103 91.1691 95.3902C91.0417 95.0674 90.8506 94.9383 90.5958 94.8737C89.8951 94.8092 89.2581 94.4864 88.7485 93.97C88.4937 93.3891 87.984 93.4536 87.5381 93.6473C84.6078 93.0018 81.7413 92.3562 78.7473 92.1626C71.8038 91.7107 64.8602 91.7107 58.1078 93.97C56.5153 94.4864 55.1138 95.3256 53.8398 96.423C51.3554 98.5532 51.4828 101.393 51.9288 104.169C53.3302 112.754 57.9804 119.274 64.8602 124.309C66.9624 125.858 69.0646 127.408 71.6126 128.182C71.9312 128.311 72.186 128.505 72.3771 128.828C72.823 132.249 73.1415 135.606 72.186 138.962Z" fill="#D8B6A8"/>
<path d="M44.6979 37.9399C42.9143 37.4235 41.0669 36.9717 39.2833 36.4552C38.71 36.2616 38.3277 36.5198 37.8818 36.7134C37.0537 36.9716 36.353 36.778 35.9071 35.9388C35.5249 35.1642 35.8434 34.4541 36.4167 34.0023C37.1811 33.4859 37.9455 33.6795 38.4552 34.3896C39.347 35.7452 40.8758 35.5515 42.1499 35.8743C45.5261 36.8425 46.0357 36.5198 47.246 33.2277C47.5645 32.3885 46.8638 31.4848 45.7172 31.4202C43.1691 31.162 42.4684 30.0001 43.4239 27.6117C44.1883 26.8371 45.0802 26.4498 46.0994 26.9662C47.246 27.5471 47.6919 28.58 47.5008 29.871C47.6282 30.7102 48.0104 31.4202 48.7112 31.8721C48.7749 31.8721 48.8386 31.8721 48.9023 31.8075C49.7941 31.0329 51.7689 30.9684 51.6415 29.8064C51.514 27.8053 51.514 25.546 50.1126 23.8032C49.4756 23.0285 49.2845 22.3185 49.8578 21.5439C50.3674 20.8338 51.1955 20.8983 51.8326 21.2857C52.597 21.7375 52.5333 22.4476 52.2785 23.3513C51.6415 25.6106 52.7244 27.6762 53.1703 29.8064C53.2977 30.2583 57.1198 30.3874 57.4383 30.0001C57.8205 29.5482 57.7568 29.0964 57.6294 28.58C57.3746 27.6762 57.6294 26.9016 58.585 26.5143C59.2857 26.2561 59.9227 26.5143 60.3049 27.1598C60.8145 28.0636 60.4323 28.7736 59.7316 29.3546C59.0946 29.871 58.3302 30.3874 59.1583 31.0975C59.859 31.743 60.7508 32.8404 61.8975 31.4202C62.9167 30.1938 64.127 29.0964 65.2737 27.9345C65.847 27.3535 66.2929 26.8371 66.3566 25.9334C66.484 25.0296 67.121 24.3841 68.0766 24.5132C68.841 24.5778 69.2232 25.1587 69.2232 25.9334C69.2869 26.8371 68.9684 27.4826 67.9492 27.4826C67.1847 27.4826 66.8025 28.0636 66.2929 28.5154C65.0826 29.7419 63.9359 31.0329 62.6619 32.1948C61.9612 32.9049 61.7064 33.4213 62.4071 34.325C63.1078 35.2288 63.2352 36.8425 65.0189 36.0034C65.9744 35.5515 67.2484 35.6806 67.758 34.2605C68.2677 32.9049 69.6691 32.5822 70.8157 33.1631C72.0261 33.8086 72.4083 35.1642 71.7713 36.3261C71.0705 37.5526 69.7328 38.069 68.5225 37.1653C66.9299 36.0034 65.6559 37.1653 64.3181 37.5526C63.5537 37.7463 63.9359 38.7145 63.9359 39.3601C63.9996 40.1992 63.4263 41.4903 64.2544 41.8776C65.4648 42.5231 66.8025 43.104 68.3314 42.9749C68.7136 42.9104 69.0958 42.8458 69.478 42.8458C70.1787 42.8458 70.6246 43.2977 70.8157 43.9432C71.0068 44.5887 70.752 45.1697 70.1787 45.557C69.6054 45.8797 69.0321 46.0089 68.4588 45.4924C68.0766 45.1697 67.8217 44.6533 67.4395 44.4596C64.8915 42.9104 62.9167 43.5559 61.7701 46.3316C61.579 46.848 61.7064 47.1708 62.0249 47.5581C63.49 49.1719 64.8915 50.7857 66.3566 52.3994C66.7388 52.7867 67.121 52.9159 67.6306 53.045C68.4588 53.2386 68.841 53.8196 68.6499 54.6587C68.5225 55.3688 68.1403 55.9498 67.3758 55.9498C66.6114 55.9498 65.9107 55.627 65.7196 54.7878C65.21 51.6894 62.4071 50.3338 60.8145 48.0745C60.5597 47.6872 58.0116 48.5909 57.8205 49.1719C57.5657 50.0756 57.6931 51.1084 58.585 51.6248C59.4768 52.0767 60.1775 52.5931 60.2412 53.6905C60.3049 54.7233 60.0501 55.5625 59.0946 56.0789C58.1391 56.5953 57.3109 56.2725 56.5465 55.5625C55.7184 54.7878 55.7821 53.8841 56.0369 52.9159C56.1006 52.6576 56.2917 52.464 56.4828 52.2058C57.1835 51.4312 56.6102 50.7211 56.4191 50.011C56.228 49.2364 55.5273 49.5592 55.0177 49.6237C52.0874 49.6883 52.0237 49.6883 51.1955 52.5931C50.6859 54.4005 49.603 56.1434 50.24 58.2091C50.3674 58.5318 50.0489 59.0482 49.9215 59.5001C49.1571 60.5329 48.329 60.3393 47.5645 59.6292C46.7364 58.8546 46.5453 57.8218 47.3097 56.9826C48.2015 55.9498 48.5838 54.7233 49.0934 53.4968C49.2845 53.1741 49.4119 52.7867 49.5393 52.3994C50.4948 49.1719 50.3037 48.7846 47.1823 47.429C46.8001 47.2353 46.5453 46.9126 46.4179 46.5253C46.2905 45.2988 45.5898 44.266 44.889 43.3622C44.1246 42.394 43.0417 42.7167 42.2136 43.4913C41.258 44.3305 40.3025 44.0723 39.4744 43.2977C38.7737 42.5231 38.3277 41.7485 39.5381 41.0384C39.7292 40.9093 39.9203 40.7802 40.1751 40.6511C40.9395 40.1992 41.6402 40.6511 42.4047 40.6511C44.1883 40.5865 44.8253 39.8765 44.6979 37.9399Z" fill="#068FA8"/>
<path d="M73.9695 126.311C73.3325 127.924 74.0969 129.603 73.9695 131.217C73.8421 133.282 73.9058 135.348 73.9695 137.349C73.9695 137.93 73.9695 138.446 73.5236 138.898C73.0777 138.898 72.6318 138.963 72.2496 138.963C71.8037 136.252 72.1859 133.54 72.0585 130.829C72.0585 130.119 72.0585 129.409 72.0585 128.635C71.4215 127.924 71.3578 127.021 71.5489 126.117C71.6763 125.02 71.2304 124.051 70.7207 123.083C68.9371 120.049 67.2808 116.951 65.4972 113.917C64.7965 112.755 64.2231 111.593 64.2231 110.173C64.2868 108.236 65.3061 106.945 67.2171 106.816C71.0393 106.622 74.8614 106.622 78.6198 106.816C81.4864 106.945 82.7604 109.592 81.359 112.368C79.8938 115.337 78.2376 118.177 76.5176 120.953C75.5621 122.502 74.734 124.051 74.4154 125.859C74.288 126.117 74.1606 126.246 73.9695 126.311Z" fill="#FEC142"/>
<path d="M96.5202 91.7116C95.5647 91.3243 94.5454 90.937 93.8447 90.0978C96.9024 83.8363 96.8387 77.123 96.3291 70.4096C95.9469 64.9228 95.8832 59.5005 96.5839 54.0136C97.0935 49.9468 98.8772 46.7193 102.253 44.3954C102.763 44.0727 103.145 43.5563 103.591 43.1689C103.591 45.751 103.145 48.3976 104.419 50.8506C104.738 51.4315 104.292 51.7543 103.782 52.0125C102.444 52.7226 101.489 53.8199 100.661 55.111C99.4505 56.402 99.3231 58.0158 99.2594 59.6296C99.0046 64.8582 99.3231 70.1514 99.6416 75.3801C100.024 81.0606 99.3231 86.6121 96.5202 91.7116Z" fill="#FEC142"/>
<path d="M49.4446 53.4967C49.1261 54.8523 49.1898 56.4015 47.6609 57.2407C47.0239 57.628 47.1513 58.4026 47.4698 59.0481C48.0432 60.0809 48.935 59.8227 49.8268 59.5645C50.1453 65.0514 49.572 70.4737 49.3809 75.9606C49.1898 80.8665 50.0179 85.6433 52.1838 90.0973C51.2919 90.7429 50.6549 92.0339 49.2535 91.2593C46.5143 86.0306 45.8773 80.3501 46.3869 74.5404C46.7691 69.9573 46.9602 65.4387 46.8328 60.8555C46.2595 58.919 46.5143 56.6597 44.8581 55.0459C44.221 54.4004 43.3292 53.884 43.4566 52.7221C44.1573 51.7538 44.7306 50.7855 44.8581 49.4945C44.9855 48.1389 45.941 47.4289 47.3424 47.558C49.3172 49.0426 49.6994 51.1083 49.4446 53.4967Z" fill="#FEC142"/>
<path d="M116.349 49.8662C116.477 49.6726 116.604 49.4789 116.795 49.2853C116.986 49.0916 117.241 49.0916 117.496 49.2207C118.579 49.8662 119.789 49.0916 120.936 49.4789C121.7 49.8662 122.401 49.6726 123.165 49.5435C124.121 48.7688 125.076 48.0588 125.522 46.8323C125.713 46.3159 126.096 46.1222 126.542 46.1868C126.924 46.1868 127.179 46.5095 127.242 46.8323C127.37 47.3487 126.988 47.736 126.605 47.8651C125.331 48.2524 124.758 49.4789 123.802 50.189C122.656 51.0281 122.847 51.8028 123.739 52.6419C124.631 53.4811 125.331 52.8356 126.096 52.3837C126.287 52.2546 126.414 51.9319 126.605 51.7382C127.115 51.1572 127.688 50.899 128.325 51.4155C128.899 51.8673 129.281 52.3837 128.835 53.1583C128.453 53.8684 127.879 54.2557 127.051 53.933C126.796 53.8684 126.542 53.5456 126.35 53.6102C125.586 53.8039 124.439 53.4165 124.248 54.643C124.121 55.6758 123.93 56.8378 125.459 57.096C125.968 57.1605 126.478 57.4187 127.051 57.2251C127.497 57.096 127.943 57.2896 128.07 57.806C128.198 58.1288 128.134 58.5161 127.816 58.7098C127.37 58.968 126.924 58.968 126.605 58.5807C126.223 58.1933 125.841 57.9997 125.331 57.806C124.567 57.5478 123.93 57.3542 123.357 58.2579C122.847 59.0971 122.656 59.7426 123.357 60.4527C124.312 61.3564 124.949 62.5828 126.223 63.2284C126.669 63.4866 126.86 63.8093 126.733 64.3257C126.669 64.713 126.414 64.9067 126.032 64.9067C125.459 64.9712 125.268 64.5839 125.14 64.1321C124.694 62.712 123.548 61.8728 122.656 60.84C121.955 60.0008 121.318 60.1944 120.681 60.7754C120.108 61.4209 120.363 62.0664 121 62.4537C121.637 62.9056 121.891 63.422 121.7 64.1321C121.573 64.6485 121.191 64.9713 120.681 65.1004C119.662 65.294 119.407 64.4548 119.025 63.7448C118.451 63.0993 119.28 62.2601 118.706 61.6146C117.56 61.1627 116.158 61.2918 115.394 60.1299C114.757 59.6135 114.183 59.5489 113.546 60.1299C113.164 60.259 113.101 60.0653 113.101 59.7426C114.311 58.7098 113.292 57.7415 112.782 56.9669C112.336 56.3214 111.444 56.6441 110.871 57.096C110.361 57.4833 109.979 57.7415 109.406 57.2896C109.087 56.9669 109.024 56.6441 109.215 56.2568C109.597 55.6758 110.043 55.8049 110.68 55.9341C111.381 56.0632 112.336 56.3859 112.591 55.3531C112.909 54.1912 112.018 53.933 111.189 53.8039C110.17 53.6102 109.215 53.0292 108.132 53.4165C107.686 53.5456 107.367 53.352 107.176 52.9647C106.985 52.5128 107.113 52.1901 107.431 51.9319C107.75 51.6737 108.195 51.6737 108.514 51.9964C109.024 52.5774 109.724 52.6419 110.425 52.9001C111.954 53.5456 113.228 53.4811 113.992 51.7382C114.12 50.189 115.649 50.5763 116.349 49.8662Z" fill="#068FA8"/>
<path d="M123.211 49.3007C122.702 50.3336 122.001 50.6563 121.109 49.7526C120.982 49.5589 120.854 49.3653 120.791 49.1071C120.663 48.7843 121.173 48.4616 120.727 48.2034C120.409 48.4616 120.472 49.2362 119.772 48.9134C119.708 43.8139 118.625 38.9725 115.822 34.6476C113.72 31.3554 110.79 29.0316 107.031 27.7406C105.566 27.2241 104.037 27.0305 102.508 27.095C107.604 25.3522 112 26.7723 115.822 30.3226C119.963 34.2602 122.192 39.1662 122.766 44.9112C122.957 46.3959 123.084 47.816 123.211 49.3007Z" fill="#C53F43"/>
<path d="M28.3264 63.4708C28.8998 64.1163 29.5368 64.7618 30.1101 65.3428C30.3649 66.3756 30.9382 67.0211 32.0849 66.6984C32.7219 66.9566 33.4226 67.2148 34.0596 67.473C34.6329 67.9248 35.5248 67.0211 35.907 68.054C35.7159 69.6677 36.8625 70.5715 37.818 71.5397C38.1365 71.8625 38.7099 72.1207 38.5824 72.7017C38.5824 72.8308 38.3913 72.9599 38.2639 73.0244C37.5632 73.1535 37.4995 72.508 37.2447 72.1207C36.7351 71.4106 36.1618 70.7006 35.6522 69.9905C35.3336 69.6032 35.0151 69.345 34.5055 69.6677C34.0596 70.055 33.8685 70.4424 34.3144 70.9588C34.4418 71.0879 34.5692 71.217 34.6329 71.3461C34.9514 71.7979 35.0151 72.2498 34.6329 72.7017C34.3781 73.0244 33.9959 73.089 33.55 72.9599C32.9767 72.7662 32.8493 72.3143 32.9767 71.7334C33.1041 71.1524 33.2315 70.636 32.4671 70.4424C31.7663 70.2487 31.3841 70.5715 31.0656 71.2815C30.7471 72.0561 30.4923 72.8308 30.556 73.7345C30.556 74.1863 30.4923 74.7028 29.919 74.7028C29.6642 74.7028 29.282 74.7027 29.1546 74.5091C28.7724 74.0572 29.1546 73.6699 29.4094 73.3472C29.919 72.7662 29.9827 72.0561 30.2375 71.3461C30.556 70.5715 30.556 69.8614 29.7279 69.5386C28.8361 69.1513 28.4538 69.8614 28.199 70.5715C28.1353 70.7006 28.1353 70.8942 28.0716 71.0879C27.8168 71.6688 27.3709 71.7334 26.8613 71.5397C26.2243 71.2815 26.0969 70.7651 26.4154 70.1842C26.6702 69.7323 27.1161 69.4741 27.6257 69.4095C28.2627 69.2804 28.9635 69.0222 28.7087 68.2476C28.4538 67.6021 27.9442 67.0211 27.0524 67.2148C26.5428 67.3439 25.7784 67.7312 25.7784 66.892C25.7147 65.9238 26.5428 66.5047 27.0524 66.3756C27.4346 66.3111 27.7531 66.182 27.8168 65.8592C27.8805 65.4719 27.6257 65.2782 27.3072 65.0846C26.6065 64.6327 25.8421 64.31 24.9502 64.3745C24.568 64.3745 24.1221 64.4391 23.931 63.9872C23.8673 63.8581 23.9947 63.6645 24.1221 63.5999C24.4406 63.3417 24.8865 63.3417 25.205 63.5999C25.9058 64.1809 26.7339 64.1163 27.562 64.0518C28.0079 64.0518 28.199 63.8581 28.3264 63.4708Z" fill="#068FA8"/>
<path d="M35.239 68.7953C34.7293 68.3435 33.9012 68.7953 33.3916 68.2143C35.7486 67.9561 38.1692 68.408 40.3988 66.9879C42.7558 65.5677 43.9024 63.5666 44.1572 60.9846C44.3483 59.1126 44.5394 57.1761 42.7558 55.7559C41.864 55.0459 40.9084 54.9168 39.8892 54.6585C39.3159 54.5294 38.7426 54.2712 39.2522 53.7548C40.3988 52.4638 40.2714 50.7209 40.781 49.3008C40.8447 49.3008 40.9084 49.3653 40.9721 49.3653C41.418 50.7855 42.3099 51.8828 43.5202 52.722C44.0298 53.303 44.5394 53.8839 45.1128 54.4649C46.0046 56.0141 46.8964 57.4988 46.1957 59.3708C46.3868 64.8577 42.1825 69.6345 35.239 68.7953Z" fill="#C53F41"/>
<path d="M105.184 67.8919C108.497 67.8274 111.427 66.73 113.848 64.4062C114.23 64.0188 114.739 64.0834 115.122 63.8252C115.631 64.2771 115.44 64.7289 115.185 65.1808C114.803 65.8263 114.93 66.4718 114.867 67.1173C111.809 68.7957 108.56 69.4412 105.184 67.8919Z" fill="#C54044"/>
<path d="M119.453 60.7909C120.217 61.8237 119.389 62.5983 119.071 63.4375C117.988 64.3412 117.478 65.955 115.886 66.2777C115.312 65.955 115.312 65.4386 115.376 64.8576C115.567 63.6957 115.949 62.5983 116.395 61.5655C117.096 60.0808 118.37 60.5972 119.453 60.7909Z" fill="#BD464A"/>
<path d="M119.453 60.7916C116.713 60.9207 115.567 62.6636 115.949 66.2139C115.758 66.6658 115.376 66.8594 114.93 67.0531C113.974 66.4721 113.783 65.7621 114.675 64.9229C115.057 64.6001 115.121 64.2128 115.121 63.761C115.376 63.0509 115.567 62.2763 115.885 61.5662C116.331 60.7271 115.949 60.2106 115.376 59.7588C116.586 60.9207 118.179 60.017 119.453 60.7916Z" fill="#068FA8"/>
<path d="M46.1957 59.4352C46.3868 57.6923 45.6224 56.1431 45.1128 54.5293C47.0876 56.2722 46.769 58.5315 46.769 60.7908C46.5779 60.3389 46.3868 59.8871 46.1957 59.4352Z" fill="#9E9067"/>
<path d="M48.6166 31.8722C47.661 31.5494 46.7692 31.2267 47.4062 29.8711C47.9795 30.4521 48.2981 31.1621 48.6166 31.8722Z" fill="#8E7793"/>
<path d="M39.2524 43.2978C40.3354 44.0078 41.2272 43.7496 41.9916 42.7168C42.4375 42.7168 42.6923 42.975 42.8835 43.3623C43.0746 44.847 43.7753 46.2671 43.2657 47.8164C42.756 48.7201 41.9916 49.3656 40.9087 49.4301C40.845 49.3656 40.7813 49.3656 40.7813 49.301C41.3546 47.0417 41.0998 44.9115 39.2524 43.2978Z" fill="#CA4642"/>
<path d="M44.5396 37.9395C45.304 38.7786 45.1129 40.0696 44.6033 40.5861C43.9026 41.3607 42.6286 41.4252 41.5456 41.0379C40.9723 40.8443 40.399 40.6506 39.8257 40.5861C40.5901 40.0696 41.6093 40.1988 42.4375 39.876C43.393 39.4887 44.5396 39.3596 44.5396 37.9395Z" fill="#C8454C"/>
<path d="M39.2522 41.0387C38.8062 41.8133 38.8699 42.5234 39.1884 43.298C38.8699 43.0398 38.424 42.8462 38.1692 42.4589C37.8507 42.007 36.7041 41.8779 37.15 41.2324C37.5322 40.6514 38.4877 40.5869 39.2522 41.0387Z" fill="#D63B41"/>
<path d="M105.948 41.6839C108.242 40.5866 110.344 39.6183 111.363 37.2945C111.554 36.9071 111.809 36.5198 111.809 36.068C111.873 35.6807 111.873 35.0351 112.446 35.1643C112.955 35.2934 112.764 35.9389 112.764 36.3262C112.573 38.5855 110.598 40.7802 108.305 41.2966C107.604 41.4903 107.031 42.2004 105.948 41.6839Z" fill="#DC373A"/>
<path d="M116.459 49.6239C115.949 50.5277 114.548 50.2695 114.102 51.3668C114.357 50.3986 113.847 50.0113 113.019 49.9467C111.936 49.9467 111.554 49.3012 111.618 48.3329C111.681 47.5583 112.255 47.1064 112.955 47.1064C113.911 47.1064 114.293 47.752 114.293 48.6557C114.166 51.0441 115.567 49.6239 116.459 49.6239Z" fill="#068FA8"/>
<path d="M113.147 59.4355C113.274 59.5646 113.402 59.6938 113.593 59.8229C113.274 60.2747 113.083 60.7266 113.019 61.3721C112.956 62.2758 112.382 62.7922 111.427 62.6631C110.79 62.5986 110.28 62.2113 110.28 61.4366C110.28 60.5329 110.662 59.8874 111.618 59.8874C112.191 59.8229 112.701 59.7583 113.147 59.4355Z" fill="#068FA8"/>
<path d="M117.351 49.0426C117.16 49.0426 116.969 49.0426 116.841 49.0426C116.077 47.687 116.65 45.9441 115.44 44.7176C115.249 44.524 115.44 44.0721 115.695 43.8139C116.013 43.5557 116.395 43.5557 116.778 43.7494C117.16 44.0076 117.224 44.3303 117.16 44.7822C116.905 46.0732 117.096 47.3642 117.478 48.6553C117.606 48.8489 117.606 48.978 117.351 49.0426Z" fill="#068FA8"/>
<path d="M117.351 49.0426C117.414 48.9135 117.414 48.7844 117.478 48.6553C118.179 49.1071 119.007 48.978 119.771 48.978C120.599 48.7198 119.644 47.5579 120.536 47.3643C121.173 47.7516 121.045 48.3971 121.109 48.978C121.109 49.2362 121.109 49.4945 121.109 49.7527C119.962 49.0426 118.561 49.7527 117.351 49.0426Z" fill="#8FA2B4"/>
<path d="M71.9953 125.924C71.9953 126.828 71.9953 127.796 71.9953 128.7C69.8294 129.087 68.4917 127.473 66.9628 126.569C59.7645 122.18 54.6046 115.983 52.0566 107.85C51.2284 105.332 50.9099 102.685 51.2284 100.039C51.547 97.3277 53.458 95.7785 55.6239 94.552C58.6816 92.8736 62.0578 92.2927 65.434 91.7763C68.428 91.3244 71.4857 91.3244 74.5434 91.389C79.1299 91.4535 83.6527 91.9054 88.0482 93.39C89.1311 93.7774 89.1948 94.7456 89.2585 95.7139C88.94 96.5531 88.303 96.9404 87.4111 97.0049C86.9015 97.0049 86.5193 96.8113 86.2645 96.3594C86.2008 95.843 85.946 96.424 85.7549 96.2949C85.0542 96.424 84.4172 96.1012 83.7801 95.9721C75.6263 94.4229 67.5998 94.2292 59.5734 96.7467C58.7453 97.0049 57.9171 97.3922 57.1527 97.8441C54.9232 99.2642 54.3498 100.555 54.7321 103.202C55.7513 110.496 59.5097 116.048 64.9881 120.631C66.5806 121.986 68.3006 123.277 70.1479 124.31C70.8486 124.697 71.4857 125.214 71.9953 125.924Z" fill="#FDDCDA"/>
<path d="M73.9702 126.311C73.9702 126.182 73.9702 126.053 74.0339 125.923C74.6709 124.762 75.8813 124.374 76.9005 123.729C81.9967 120.501 86.201 116.37 88.9402 110.883C89.832 109.14 90.3416 107.268 90.8512 105.332C91.0423 104.815 91.2334 104.234 91.2971 103.653C91.4245 103.201 91.4245 102.685 91.8705 102.427C93.5267 102.62 93.9089 104.105 94.5459 105.267C92.3801 115.595 85.8188 122.438 77.2827 127.731C77.0916 127.86 76.9005 127.925 76.7094 127.989C74.0976 129.086 74.0976 129.087 73.9702 126.311Z" fill="#FDDCD9"/>
<path d="M91.6154 103.497C92.0613 104.078 91.8702 104.465 91.3606 104.853C90.4688 105.369 90.1503 104.788 89.8955 104.078C89.7043 103.562 89.6406 102.981 88.9399 102.916C88.7488 102.851 88.5577 102.722 88.3666 102.593C87.7296 101.883 87.1563 101.173 86.2007 100.786C86.0733 100.786 86.0096 100.786 85.8822 100.721C85.2452 100.592 84.2897 100.915 84.1623 99.9466C84.0349 98.9784 85.0541 99.0429 85.6274 98.7847C86.137 98.5265 86.0733 98.0101 86.137 97.5582C86.2007 96.9773 86.7104 96.6545 87.0926 96.2672C87.6659 96.009 88.4303 96.009 88.8125 95.428C88.9399 95.2989 89.0673 95.2344 89.1947 95.2344C89.3221 95.2344 89.5132 95.2344 89.6406 95.2344C91.1058 95.2989 92.0613 96.1381 92.5709 97.4291C92.6346 97.4291 92.6983 97.4937 92.762 97.4937C93.7176 97.881 93.1443 98.7847 93.3991 99.4302C93.3991 99.5593 93.3991 99.6884 93.3354 99.8821C93.1443 100.269 92.8894 100.592 92.762 101.044C92.5709 101.69 91.7428 101.819 91.488 102.335C91.3606 102.722 91.5517 103.11 91.6154 103.497Z" fill="#068FA8"/>
<path d="M92.698 97.7144C91.9973 96.3589 90.5958 96.1007 89.3218 95.7133C89.704 95.0678 90.5321 95.0033 90.978 94.4223C91.5513 94.4223 92.1884 94.4223 91.8699 95.326C91.7425 95.6488 91.615 95.9716 91.9973 96.1652C92.3158 96.2943 92.4432 95.9716 92.698 95.7779C93.2076 95.326 93.7172 94.7451 94.0994 94.0996C94.2905 93.7768 94.609 93.6477 94.9275 93.9059C95.3735 94.2932 95.055 94.5514 94.7364 94.8096C93.9083 95.7134 92.6343 96.2298 92.698 97.7144Z" fill="#068FA8"/>
<path d="M94.9273 101.523C94.9273 102.298 94.991 103.072 94.6088 103.783C93.08 103.847 92.1881 102.427 92.7615 100.878C93.8444 100.039 94.4814 100.426 94.9273 101.523Z" fill="#F8DCD9"/>
<path d="M92.8894 100.903C92.5072 102.452 93.5901 103.033 94.6094 103.614C94.9916 104.131 95.0553 104.582 94.5457 105.034C93.2716 104.582 93.2079 102.904 91.9976 102.323C91.7428 102.452 91.488 102.452 91.2969 102.194C91.7428 101.742 92.1887 101.355 92.6346 100.903C92.6983 100.709 92.8257 100.709 92.8894 100.903Z" fill="#068FA8"/>
<path d="M93.2077 99.78C92.5707 99.199 93.3351 98.4244 92.8892 97.7789C93.3351 97.7143 93.9084 97.8434 94.2906 97.4561C94.7365 97.0043 95.1187 96.5524 95.8195 96.9397C96.138 97.1334 96.2654 97.4561 96.138 97.7789C95.8832 98.5535 95.1824 98.3598 94.6091 98.4244C94.0358 98.8117 93.9084 99.6509 93.2077 99.78Z" fill="#068FA8"/>
<path d="M90.9779 94.4874C91.0416 95.7784 90.2772 95.843 89.3216 95.7784C89.0668 95.1329 88.5572 94.4874 89.1305 93.7773C89.6402 94.1647 90.2772 94.4229 90.9779 94.4874Z" fill="#EDD9D9"/>
<path d="M92.8893 101.136C92.7619 101.136 92.6982 101.136 92.5708 101.136C92.6345 100.684 92.6345 100.168 93.2715 100.103C93.8448 99.5223 94.4182 99.8451 94.9278 100.232C95.7559 100.62 95.947 101.072 94.9278 101.523C94.2908 101.201 93.7811 100.361 92.8893 101.136Z" fill="#068FA8"/>
<path d="M94.9275 100.297C94.3542 100.232 93.8445 100.168 93.2712 100.168C93.2712 100.039 93.2712 99.974 93.2075 99.8449C93.2712 99.0057 93.4623 98.2956 94.609 98.5538C94.6727 99.0702 94.8001 99.6512 94.9275 100.297Z" fill="#F0D9D6"/>
<path d="M89.0671 93.7128C89.1308 94.3583 89.1945 95.0684 89.2582 95.7139C89.1308 95.7139 89.0034 95.7139 88.8759 95.6494C88.4937 94.8747 88.5574 93.971 87.9204 93.3255C87.9841 92.9382 88.0478 92.4863 88.4937 92.4863C89.1945 92.6154 88.9396 93.3255 89.0671 93.7128Z" fill="#068FA8"/>
<path d="M53.7759 40.6506C53.7759 42.2644 52.7567 43.2972 51.2278 43.2972C49.6353 43.2972 48.4886 42.1353 48.5523 40.5215C48.616 39.1659 49.8901 37.9395 51.2915 37.9395C52.8204 38.004 53.8396 39.0368 53.7759 40.6506Z" fill="#64C9DC"/>
<path d="M40.9087 49.4297C41.3546 48.7197 41.928 48.2678 42.6924 48.0096C43.9027 47.6223 45.0493 47.0413 46.0686 46.2021C46.2597 46.2021 46.3871 46.2667 46.4508 46.3958C46.7056 46.5895 46.9604 46.8477 47.2152 47.0413C47.3426 47.235 47.2789 47.4286 47.1515 47.6223C45.9412 48.2032 44.9856 48.8488 45.3042 50.5916C45.4953 51.689 44.476 52.27 43.5842 52.7218C41.2909 52.5282 40.7813 51.8827 40.9087 49.4297Z" fill="#068FA8"/>
<path d="M58.6177 44.2657C57.5985 44.1366 57.1526 43.491 57.0889 42.5228C57.0889 41.4254 57.8533 41.1026 58.6814 41.0381C59.6369 41.0381 60.0191 41.6836 60.0191 42.5873C60.0191 43.5556 59.4458 44.072 58.6177 44.2657Z" fill="#64C9DC"/>
<path d="M58.108 34.9063C58.1717 36.1327 57.7895 36.6492 56.7703 36.6492C55.8148 36.6492 55.1777 36.1973 55.1777 35.1645C55.1777 34.3253 55.5599 33.6798 56.5792 33.6152C57.5347 33.6152 58.0443 34.1962 58.108 34.9063Z" fill="#64C9DC"/>
<path d="M86.2003 99.7154C86.0092 99.7154 85.7544 99.7154 85.5633 99.7799C85.1811 99.8445 84.6715 99.4572 84.4167 99.9736C84.353 100.103 84.353 100.296 84.4804 100.425C84.9263 100.942 85.2448 100.425 85.627 100.296C86.0092 100.103 86.3914 100.296 86.7099 100.49C87.6018 101.458 87.0921 102.168 86.4551 102.556C86.9647 102.168 87.6018 101.265 88.4936 102.491C88.9395 103.266 88.4299 103.976 88.3025 104.686C88.5573 104.105 88.4936 103.33 89.1306 102.878C89.9587 102.943 91.1054 102.556 90.4684 104.169C90.1498 105.009 90.7869 105.202 91.4876 105.202C90.978 109.011 89.258 112.303 87.0284 115.337C83.5885 119.985 79.3205 123.535 74.097 125.988C73.9058 124.89 74.2244 123.987 74.7977 123.018C76.8361 119.597 78.7472 116.047 80.722 112.561C82.3145 109.721 81.1042 107.526 77.9191 107.462C74.6066 107.462 71.2941 107.462 67.9816 107.462C65.115 107.462 63.8409 109.721 65.2424 112.238C67.2172 115.918 69.3193 119.533 71.4215 123.148C71.9311 124.051 72.2496 124.955 72.0585 125.988C63.395 122.05 54.7953 113.142 53.9671 101.91C53.8397 100.103 54.7316 98.8116 56.133 97.8434C58.1078 96.4232 60.401 95.7132 62.6943 95.2613C70.4659 93.7766 78.2376 93.7766 85.9455 95.9714C86.2003 95.9714 86.3914 96.0359 86.5188 96.2296C86.7736 96.3587 86.9647 96.4232 87.2196 96.5523C87.347 97.1979 86.6462 97.4561 86.6462 98.037C86.0092 98.618 85.3722 97.8434 84.8626 98.037C86.4551 98.2952 86.4551 98.3598 86.2003 99.7154Z" fill="#EB5757"/>
<path d="M115.368 55.5388C115.431 54.5705 115.814 53.8604 116.833 53.925C117.788 53.925 118.362 54.5705 118.362 55.5388C118.362 56.507 117.788 57.088 116.833 57.1525C115.814 57.2171 115.431 56.507 115.368 55.5388Z" fill="#64C9DC"/>
<path d="M119.898 53.1095C119.261 53.0449 118.879 52.7867 118.816 52.2058C118.752 51.5602 119.134 51.2375 119.707 51.2375C120.281 51.1729 120.599 51.5602 120.663 52.1412C120.79 52.7222 120.344 52.9804 119.898 53.1095Z" fill="#64C9DC"/>
<path d="M121.746 56.7242C121.682 57.3052 121.364 57.5634 120.854 57.5634C120.281 57.6279 120.09 57.1761 120.09 56.7242C120.09 56.1432 120.408 55.7559 120.982 55.8205C121.555 55.8205 121.746 56.2723 121.746 56.7242Z" fill="#64C9DC"/>
<path d="M121.045 48.9781C120.536 48.5262 120.408 48.0098 120.472 47.3643C120.791 47.0415 121.173 46.7188 121.555 47.2997C122.192 48.0743 121.428 48.4617 121.045 48.9781Z" fill="#068FA8"/>
<path d="M42.1949 43.125C43.4053 44.1578 44.6793 45.1906 45.8896 46.2235C45.1889 47.8373 44.106 48.4182 42.4497 47.8373C42.7045 46.2235 42.1312 44.7388 42.1949 43.125Z" fill="#F3C931"/>
<path d="M86.4552 96.2301C86.264 96.1656 86.0729 96.0365 85.8818 95.9719C86.0092 95.5846 85.8181 95.0682 86.3915 94.8745C86.71 94.81 86.9011 94.9391 86.9648 95.2618C87.1559 95.7137 86.9648 96.0365 86.4552 96.2301Z" fill="#068FA8"/>
<path d="M91.297 102.362C91.5518 102.427 91.8066 102.427 91.9977 102.491C91.934 102.943 91.9977 103.395 91.6155 103.782C90.9785 103.46 90.5963 103.072 91.297 102.362Z" fill="#ED4856"/>
<path d="M88.2391 102.491C87.3473 101.91 86.7103 102.04 86.5192 103.201C86.4555 103.718 86.0732 103.976 85.5636 103.912C85.1814 103.847 84.9266 103.653 84.9266 103.266C84.8629 102.75 85.1177 102.362 85.6273 102.298C86.9014 102.169 87.0288 101.459 86.5829 100.426C87.2199 101.071 87.9206 101.781 88.5576 102.427C88.4939 102.621 88.4302 102.685 88.2391 102.491Z" fill="#068FA8"/>
<path d="M89.7038 99.6509C89.5764 100.232 89.2579 100.619 88.6845 100.619C87.9838 100.619 87.729 100.103 87.729 99.5218C87.729 98.9408 88.2386 98.6826 88.7482 98.6826C89.449 98.6826 89.5764 99.199 89.7038 99.6509Z" fill="#64C9DC"/>
<path d="M86.2006 99.7161C86.3917 97.9086 84.9265 98.4896 84.0984 98.2314C83.7162 98.1023 83.2066 98.425 83.0155 97.8441C82.9518 97.6504 83.0792 97.3922 83.2066 97.2631C83.5888 96.9403 83.8436 97.2631 84.2258 97.3922C84.9902 97.6504 85.7547 97.8441 86.5828 98.0377C86.4554 98.6187 86.965 99.3288 86.2006 99.7161Z" fill="#068FA8"/>
<path d="M88.2391 102.259C88.3665 102.259 88.4939 102.259 88.6213 102.259C88.7487 102.388 88.8761 102.517 89.0035 102.646C88.8124 103.614 88.2391 104.518 88.3028 105.551C88.3028 106.003 88.1754 106.39 87.6658 106.261C87.0287 106.132 87.0924 105.68 87.3472 105.228C87.9206 104.26 88.3665 103.356 88.2391 102.259Z" fill="#068FA8"/>
<path d="M91.87 100.361C91.8063 100.684 91.6789 100.942 91.233 100.942C90.8508 100.942 90.6597 100.619 90.6597 100.297C90.6597 99.9739 90.8508 99.8448 91.1693 99.7803C91.6152 99.7803 91.87 99.9094 91.87 100.361Z" fill="#64C9DC"/>
<path d="M90.5324 98.2959C90.1502 98.1668 89.9591 97.9086 90.0228 97.5859C90.0865 97.1986 90.405 97.0695 90.7235 97.134C91.042 97.1986 91.1694 97.3922 91.1694 97.715C91.1057 98.0377 90.9146 98.2959 90.5324 98.2959Z" fill="#64C9DC"/>
</g>
</svg>
