<svg width="250" height="317" viewBox="0 0 250 317" fill="none" xmlns="http://www.w3.org/2000/svg">
<path opacity="0.3" d="M250 303.531C250 310.38 194.129 316.038 125 316.038C55.8712 316.038 0 310.38 0 303.531C0 296.682 55.8712 291.023 125 291.023C194.129 291.023 250 296.384 250 303.531Z" fill="#98C3C9"/>
<path d="M191.085 11.7442C193.615 6.86332 196.92 7.02805 201.683 7.69308C203.756 10.6399 205.646 14.1908 207.372 18.2542L203.17 22.4884C199.384 21.2743 197.457 19.6758 195.158 17.4671C192.689 15.0877 192.006 13.9163 191.085 11.7442Z" fill="#FFA786"/>
<path d="M200.505 18.1076C200.584 17.284 199.981 16.5457 199.158 16.4664L190.993 15.6672C190.17 15.5878 189.432 16.1919 189.353 17.0155C189.273 17.8392 189.877 18.5774 190.7 18.6567L199.767 20.7372C200.584 20.8165 200.42 18.9313 200.505 18.1076Z" fill="#FFA786"/>
<path d="M193.548 13.2002C194.219 12.7488 194.402 11.8275 193.951 11.1563L189.005 3.76784C188.554 3.09671 187.633 2.91368 186.963 3.36516C186.292 3.81665 186.109 4.73792 186.56 5.40905L191.505 12.7976C191.957 13.4687 192.877 13.6517 193.548 13.2002Z" fill="#FFA786"/>
<path d="M195.085 10.083C195.756 9.63156 195.939 8.71029 195.487 8.03916L190.548 0.650651C190.097 -0.0204773 189.176 -0.203512 188.506 0.247974C187.835 0.69946 187.652 1.62074 188.103 2.29186L193.048 9.68037C193.494 10.3515 194.414 10.5345 195.085 10.083Z" fill="#FFA786"/>
<path d="M199.018 10.2651C199.695 9.81362 199.878 8.89844 199.426 8.22121L194.5 0.820502C194.048 0.143273 193.134 -0.0397621 192.457 0.411724C191.78 0.86321 191.597 1.77838 192.048 2.45561L196.975 9.85633C197.426 10.5336 198.347 10.7166 199.018 10.2651Z" fill="#FFA786"/>
<path d="M202.06 10.9174C202.737 10.466 202.92 9.55079 202.468 8.87356L197.542 1.47285C197.09 0.795617 196.176 0.612582 195.499 1.06407C194.822 1.51555 194.639 2.43073 195.09 3.10796L200.017 10.5087C200.468 11.1798 201.389 11.3628 202.06 10.9174Z" fill="#FFA786"/>
<path d="M164.091 291.257H156.945C156.945 291.257 153.031 274.271 151.018 246.621C149.006 218.97 152.256 180.234 157.262 153.09L173.335 186.14C172.402 186.122 161.689 239.098 161.689 239.098C169.213 248.726 163.378 291.239 164.091 291.257Z" fill="#F79673"/>
<path d="M191.927 291.511H199.073C199.073 291.511 202.866 274.489 204.67 246.79C206.475 219.091 202.945 180.275 197.737 153.082L181.908 186.193C182.841 186.175 193.951 239.249 193.951 239.249C186.487 248.907 192.64 291.499 191.927 291.511Z" fill="#F79673"/>
<path d="M164.012 291.254C164.012 291.254 166.402 300.546 147.683 295.275L156.939 291.254L159.305 286.953L164.012 291.254Z" fill="#F79673"/>
<path d="M152.323 171.335C152.323 171.335 139.14 230.48 150.939 286.934H165.494C165.494 286.934 163.585 233.805 173.805 186.13H178.104L179.652 167.32L152.323 171.335Z" fill="#767F87"/>
<path d="M202.475 171.331C202.475 171.331 218.354 227.041 203.622 286.765H189.067C189.067 286.765 191.085 233.709 180.963 186.102H176.665L175.152 167.316L202.475 171.331Z" fill="#767F87"/>
<path d="M181.03 76.9153C179.493 76.4821 178.609 75.7012 177.298 75.6523V100.582H199.176C203.944 100.582 204.133 94.511 204.133 94.511C204.121 86.0365 194.694 80.7773 181.03 76.9153Z" fill="#28A9BC"/>
<path d="M173.567 76.9153C175.103 76.4821 175.987 75.7012 177.298 75.6523V100.582H155.42C150.652 100.582 150.463 94.511 150.463 94.511C150.475 86.0365 159.902 80.7773 173.567 76.9153Z" fill="#28A9BC"/>
<path d="M170.914 80.5498C171.085 87.438 183.768 87.2 183.603 80.2264L183.682 61.8497L171.164 60.8125L170.914 80.5498Z" fill="#F79673"/>
<path d="M160.675 60.7195C162.637 60.2977 163.691 57.4561 163.029 54.3725C162.367 51.2889 160.24 49.131 158.278 49.5528C156.315 49.9745 155.261 52.8162 155.923 55.8997C156.585 58.9833 158.712 61.1412 160.675 60.7195Z" fill="#F79673"/>
<path d="M197.713 55.7102C196.64 58.6753 194.244 60.5301 192.353 59.8468C190.469 59.1634 189.805 56.2044 190.878 53.2392C191.951 50.274 194.347 48.4193 196.237 49.1026C198.128 49.7859 198.786 52.745 197.713 55.7102Z" fill="#F79673"/>
<path d="M199.543 18.5934L206.159 14.5117C221.879 41.9975 221.97 70.3374 200.513 99.7633C200.513 99.7633 193.763 86.3102 196.251 83.0339C212.787 61.2588 209.678 46.4147 199.543 18.5934Z" fill="#FFA786"/>
<path d="M177.994 75.4913L176.36 75.4974C167.897 75.5279 161.013 68.6885 160.982 60.2201L160.915 40.8855C160.885 32.4171 167.72 25.5289 176.19 25.4984L177.824 25.4923C186.287 25.4618 193.171 32.3012 193.202 40.7757L193.269 60.1103C193.293 68.5726 186.458 75.4608 177.994 75.4913Z" fill="#FFA786"/>
<path d="M204.134 177.671C186.006 180.001 168.109 180.099 150.463 177.671V94.5117H204.134V177.671Z" fill="#28A9BC"/>
<path d="M161.031 81.5469C152.903 85.9397 143.817 95.7809 133.043 115.207C130.061 120.588 130.147 127.446 133.317 132.687L150.409 157.201L156.305 152.558C153.031 147.83 144.281 134.584 142.525 129.6C141.269 126.03 141.97 121.967 144.275 119.148L159.476 100.552L161.031 81.5469Z" fill="#FFA786"/>
<path d="M193.213 45.9576C193.213 45.9576 185.555 32.4984 191.994 32.0896C198.433 31.6869 198.189 33.9078 199.183 38.0932C200.116 42.0467 193.164 55.2496 193.164 55.2496L193.213 45.9576Z" fill="#E5E2DF"/>
<path d="M161.274 45.9576C161.274 45.9576 168.933 32.4984 162.494 32.0896C156.055 31.6869 156.299 33.9078 155.305 38.0932C154.372 42.0467 161.323 55.2496 161.323 55.2496L161.274 45.9576Z" fill="#E5E2DF"/>
<path d="M180.579 55.9587C180.463 55.855 177.707 53.4206 174.591 55.6597C173.811 56.221 173.238 55.2143 174.018 54.653C177.799 51.938 181.226 55.0008 181.262 55.0313C181.726 55.4584 181.049 56.3858 180.579 55.9587Z" fill="#646D78"/>
<path d="M170.001 51.6052C167.434 51.5076 165.294 53.3624 165.208 55.7479C165.129 58.1335 167.141 60.1408 169.702 60.2384C172.263 60.336 174.41 58.4813 174.495 56.0957C174.58 53.7101 172.568 51.7029 170.001 51.6052ZM169.678 59.3842C167.635 59.3049 166.031 57.7064 166.092 55.8028C166.16 53.9054 167.867 52.4228 169.91 52.5021C171.952 52.5814 173.556 54.1799 173.495 56.0835C173.434 57.981 171.721 59.4574 169.678 59.3842Z" fill="#646D78"/>
<path d="M185.329 52.0506C182.768 51.9529 180.622 53.8077 180.536 56.1933C180.457 58.5788 182.469 60.5861 185.03 60.6837C187.591 60.7813 189.738 58.9266 189.823 56.541C189.902 54.1555 187.89 52.1482 185.329 52.0506ZM185.006 59.8295C182.963 59.7502 181.36 58.1517 181.421 56.2482C181.488 54.3446 183.195 52.8681 185.238 52.9474C187.28 53.0267 188.884 54.6253 188.823 56.5288C188.756 58.4263 187.049 59.9028 185.006 59.8295Z" fill="#646D78"/>
<path d="M161.128 81.5469C161.128 81.5469 148.408 86.5986 138.981 105.341L146.774 119.728L157.567 109.692C157.567 109.692 164.567 101.827 165.201 98.984C165.829 96.1409 161.128 81.5469 161.128 81.5469Z" fill="#28A9BC"/>
<path d="M189.274 80.9153C190.232 80.9153 199.762 70.8789 199.762 70.8789L215.201 81.5437L204.226 104.667L189.274 80.9153Z" fill="#28A9BC"/>
<path d="M155.445 292.409C155.939 292.037 141.878 293.55 136.872 294.679C132.305 295.423 129.122 299.92 134.567 301.726C134.567 301.726 138.165 301.567 146.848 301.848C150.439 301.964 159.982 302.671 163.695 302.446C164.598 302.391 165.378 301.64 165.61 300.627C166.177 298.114 166.78 293.684 164.177 293.135L155.445 292.409Z" fill="#434A54"/>
<path d="M150.64 293.256L155.134 289.449L159.231 290.755C160.67 293.842 163.853 293.189 164.42 291.615L165.585 291.731L165.67 294.715L150.64 293.256Z" fill="#434A54"/>
<path d="M143.348 293.593C143.348 293.593 147.927 295.27 147.945 298.956L149.579 298.736C149.579 298.736 149.122 294.386 145.378 293.324L143.348 293.593Z" fill="#B9B9BA"/>
<path d="M148.092 292.995C148.092 292.995 152.653 294.77 152.677 298.461L154.299 298.242C154.299 298.242 153.634 293.507 150.013 292.781L148.092 292.995Z" fill="#B9B9BA"/>
<path d="M164.408 302.438H134.219C133.237 302.438 132.438 301.639 132.438 300.657V300.547H165.67V301.175C165.67 301.871 165.109 302.438 164.408 302.438Z" fill="#333333"/>
<path d="M191.957 291.254C191.957 291.254 189.567 300.546 208.287 295.275L199.03 291.254L196.665 286.953L191.957 291.254Z" fill="#F79673"/>
<path d="M200.525 292.409C200.031 292.037 214.092 293.55 219.098 294.679C223.665 295.423 226.848 299.92 221.403 301.726C221.403 301.726 217.805 301.567 209.122 301.848C205.531 301.964 195.988 302.671 192.275 302.446C191.372 302.391 190.592 301.64 190.36 300.627C189.793 298.114 189.189 293.684 191.793 293.135L200.525 292.409Z" fill="#434A54"/>
<path d="M205.335 293.256L200.841 289.449L196.744 290.755C195.305 293.842 192.122 293.189 191.555 291.615L190.39 291.731L190.305 294.715L205.335 293.256Z" fill="#434A54"/>
<path d="M212.628 293.593C212.628 293.593 208.049 295.27 208.031 298.956L206.396 298.736C206.396 298.736 206.854 294.386 210.598 293.324L212.628 293.593Z" fill="#B9B9BA"/>
<path d="M207.878 292.995C207.878 292.995 203.317 294.77 203.293 298.461L201.671 298.242C201.671 298.242 202.336 293.507 205.957 292.781L207.878 292.995Z" fill="#B9B9BA"/>
<path d="M191.561 302.438H221.75C222.732 302.438 223.531 301.639 223.531 300.657V300.547H190.299V301.175C190.299 301.871 190.866 302.438 191.561 302.438Z" fill="#333333"/>
<path d="M147.896 159.96L148.5 164.56L148.086 171.845L150.275 175.768C150.275 175.768 152.11 175.573 150.653 171.467L151.287 167.757L153.384 157.825C153.384 157.825 152.073 163.938 154.372 164.017C156.671 164.09 156.305 152.559 156.305 152.559L152.592 151.016L147.896 159.96Z" fill="#FFA786"/>
<path d="M48.8107 291.215L48.5912 297.413L40.0729 291.916C40.0729 291.916 36.701 274.229 33.0058 246.585C29.3107 218.946 30.1888 180.216 33.5424 153.078L51.6339 186.116C50.6949 186.098 43.2193 239.056 43.2193 239.056C51.3351 248.702 48.0912 291.202 48.8107 291.215Z" fill="#F79673"/>
<path d="M58.7558 291.212L58.5119 296.636L66.8777 291.92C66.8777 291.92 70.8594 274.233 74.5607 246.588C78.2558 218.95 77.3777 180.22 74.0241 153.082L55.9326 186.12C56.8716 186.102 64.3473 239.06 64.3473 239.06C56.2253 248.699 59.4692 291.2 58.7558 291.212Z" fill="#F79673"/>
<path d="M28.9334 177.847C28.9334 177.847 20.6225 233.649 37.0798 286.912H51.6347C51.6347 286.912 45.342 236.785 51.6347 191.807H55.9334V174.059L28.9334 177.847Z" fill="#C2BCA6"/>
<path d="M33.7078 177.846L55.9273 174.722V174.051L28.9334 177.846C28.9334 177.846 20.6225 233.647 37.0798 286.91H41.8542C25.403 233.647 33.7078 177.846 33.7078 177.846Z" fill="#B7B19C"/>
<path d="M78.4394 177.847C78.4394 177.847 89.8358 230.482 70.2931 286.912H55.7382C55.7382 286.912 62.0309 236.785 55.7382 191.807H51.4395V174.059L78.4394 177.847Z" fill="#C2BCA6"/>
<path d="M39.5301 292.405C40.024 292.033 27.713 294.492 22.7069 295.614C18.1398 296.359 13.2069 299.916 18.652 301.722C18.652 301.722 22.2496 301.563 30.9325 301.844C34.524 301.96 44.0666 302.667 47.7801 302.442C48.6825 302.387 49.463 301.636 49.6947 300.623C50.2618 298.11 50.8654 293.68 48.2618 293.131L39.5301 292.405Z" fill="#28A9BC"/>
<path d="M34.7256 293.256L39.2195 289.449L43.3171 290.755C44.7561 293.842 47.939 293.189 48.5061 291.615L49.6707 291.731L49.7561 294.715L34.7256 293.256Z" fill="#28A9BC"/>
<path d="M28.8652 294.422C28.8652 294.422 32.8287 295.88 32.8408 299.101L34.2616 298.906C34.2616 298.906 33.8713 295.111 30.6335 294.184L28.8652 294.422Z" fill="white"/>
<path d="M32.9814 293.892C32.9814 293.892 36.9266 295.436 36.9449 298.657L38.3534 298.468C38.3534 298.468 37.7863 294.338 34.6461 293.703L32.9814 293.892Z" fill="white"/>
<path d="M48.4937 302.438H18.3108C17.3291 302.438 16.5303 301.639 16.5303 300.657V300.547H49.762V301.175C49.7559 301.871 49.1949 302.438 48.4937 302.438Z" fill="#333333"/>
<path d="M67.6038 292.405C67.1099 292.033 79.4209 294.492 84.427 295.614C88.9941 296.359 93.927 299.916 88.4819 301.722C88.4819 301.722 84.8843 301.563 76.2014 301.844C72.61 301.96 63.0673 302.667 59.3539 302.442C58.4514 302.387 57.6709 301.636 57.4392 300.623C56.8721 298.11 56.2685 293.68 58.8721 293.131L67.6038 292.405Z" fill="#28A9BC"/>
<path d="M72.4094 293.256L67.9155 289.449L63.8179 290.755C62.3789 293.842 59.196 293.189 58.6289 291.615L57.4643 291.731L57.3789 294.715L72.4094 293.256Z" fill="#28A9BC"/>
<path d="M78.2674 294.422C78.2674 294.422 74.304 295.88 74.2918 299.101L72.8711 298.906C72.8711 298.906 73.2613 295.111 76.4991 294.184L78.2674 294.422Z" fill="white"/>
<path d="M74.1591 293.892C74.1591 293.892 70.2139 295.436 70.1956 298.657L68.7871 298.468C68.7871 298.468 69.3542 294.338 72.4944 293.703L74.1591 293.892Z" fill="white"/>
<path d="M58.6411 302.438H88.8301C89.8118 302.438 90.6106 301.639 90.6106 300.657V300.547H57.3789V301.175C57.3789 301.871 57.9399 302.438 58.6411 302.438Z" fill="#333333"/>
<path d="M74.6707 177.846L52.4512 174.722V174.051L79.4451 177.846C79.4451 177.846 87.7499 233.647 71.2987 286.91H66.5243C82.9817 233.647 74.6707 177.846 74.6707 177.846Z" fill="#B7B19C"/>
<path d="M28.2192 183.93L79.4753 183.832L80.0241 187.798C80.0241 187.798 58.8838 191.733 27.9326 187.017L28.2192 183.93Z" fill="#B7B19C"/>
<path d="M57.3108 82.9387C55.7742 82.5055 54.8901 81.7246 53.5791 81.6758V106.605H75.4572C80.2255 106.605 80.4145 100.534 80.4145 100.534C80.4084 92.06 70.9816 86.8008 57.3108 82.9387Z" fill="#9BC6EA"/>
<path d="M49.8537 82.9387C51.3902 82.5055 52.2744 81.7246 53.5854 81.6758V106.605H31.7073C26.939 106.605 26.75 100.534 26.75 100.534C26.7561 92.06 36.1829 86.8008 49.8537 82.9387Z" fill="#9BC6EA"/>
<path d="M46.0612 38.5308C50.4157 35.8902 52.5024 31.3667 50.7221 28.4274C48.9418 25.4882 43.9685 25.246 39.614 27.8867C35.2595 30.5273 33.1727 35.0507 34.9531 37.99C36.7334 40.9293 41.7067 41.1714 46.0612 38.5308Z" fill="#E5E2DF"/>
<path d="M67.9277 17.7638C70.4582 12.8829 73.7631 13.0476 78.5253 13.7126C80.5985 16.6595 82.4887 20.2103 84.2143 24.2737L80.0131 28.5079C76.2265 27.2938 74.2997 25.6953 72.0009 23.4867C69.5314 21.1133 68.8424 19.9358 67.9277 17.7638Z" fill="#FFA786"/>
<path d="M77.3411 24.1272C77.4203 23.3035 76.8167 22.5653 75.9935 22.4859L67.8289 21.6867C67.0057 21.6074 66.2679 22.2114 66.1886 23.035C66.1094 23.8587 66.713 24.5969 67.5362 24.6763L76.6033 26.7568C77.4264 26.8361 77.2618 24.9508 77.3411 24.1272Z" fill="#FFA786"/>
<path d="M70.3841 19.2198C71.0548 18.7683 71.2377 17.847 70.7865 17.1759L65.8414 9.78737C65.3902 9.11624 64.4694 8.93321 63.7987 9.38469C63.128 9.83618 62.945 10.7575 63.3963 11.4286L68.3414 18.8171C68.7926 19.4882 69.7133 19.6713 70.3841 19.2198Z" fill="#FFA786"/>
<path d="M71.928 16.1026C72.5988 15.6511 72.7817 14.7298 72.3305 14.0587L67.3853 6.67018C66.9341 5.99905 66.0134 5.81602 65.3427 6.26751C64.6719 6.71899 64.489 7.64027 64.9402 8.31139L69.8853 15.6999C70.3366 16.371 71.2573 16.5541 71.928 16.1026Z" fill="#FFA786"/>
<path d="M75.8596 16.2863C76.5364 15.8349 76.7194 14.9197 76.2682 14.2425L71.3413 6.84785C70.8901 6.17062 69.9755 5.98758 69.2986 6.43907C68.6218 6.89055 68.4389 7.80573 68.8901 8.48296L73.8169 15.8837C74.2681 16.5548 75.1828 16.7378 75.8596 16.2863Z" fill="#FFA786"/>
<path d="M78.9026 16.937C79.5794 16.4855 79.7623 15.5703 79.3111 14.8931L74.3843 7.49238C73.9331 6.81515 73.0184 6.63211 72.3416 7.0836C71.6648 7.53508 71.4818 8.45026 71.9331 9.12749L76.8599 16.5282C77.3111 17.1993 78.2257 17.3824 78.9026 16.937Z" fill="#FFA786"/>
<path d="M47.1956 86.5732C47.1285 96.7621 59.8175 96.4388 59.8846 86.2498L59.9639 67.8731L47.4456 66.8359L47.1956 86.5732Z" fill="#F79673"/>
<path d="M39.3104 60.405C39.969 63.4861 38.9141 66.3293 36.9568 66.7502C34.9933 67.1712 32.8653 65.0114 32.2068 61.9303C31.5482 58.8492 32.6031 56.0061 34.5604 55.5851C36.5238 55.158 38.6519 57.3178 39.3104 60.405Z" fill="#F79673"/>
<path d="M74.0005 61.7297C72.9274 64.6949 70.531 66.5496 68.6408 65.8663C66.7505 65.183 66.092 62.2239 67.1652 59.2587C68.2383 56.2936 70.6347 54.4388 72.5249 55.1221C74.4091 55.8055 75.0676 58.7645 74.0005 61.7297Z" fill="#F79673"/>
<path d="M75.8294 24.6168L82.4453 20.5352C98.1648 48.0209 93.8234 78.7891 75.4636 106.604C75.4636 106.604 67.5612 91.9615 70.049 88.6852C86.5856 66.9162 85.488 49.6743 75.8294 24.6168Z" fill="#FFA786"/>
<path d="M54.2737 81.517L52.6396 81.5231C44.1761 81.5536 37.292 74.7142 37.2615 66.2458L37.1944 46.9051C37.1639 38.4366 43.9993 31.5484 52.4688 31.5179L54.103 31.5118C62.5664 31.4813 69.4505 38.3207 69.481 46.7891L69.5481 66.1237C69.5786 74.5982 62.7432 81.4865 54.2737 81.517Z" fill="#FFA786"/>
<path d="M45.249 33.3578C45.249 33.3578 47.249 41.9421 69.81 55.627C69.81 55.627 79.4381 28.5256 50.1576 29.6971C50.1637 29.6971 48.0417 30.4292 45.249 33.3578Z" fill="#E5E2DF"/>
<path d="M48.768 37.2144C48.768 37.2144 38.1827 50.9359 37.2315 58.4525C37.2315 58.4525 25.6095 36.4029 44.7985 31.5586L48.768 37.2144Z" fill="#E5E2DF"/>
<path d="M80.4149 183.699C61.5917 186.512 43.7015 186.512 26.7441 183.699L29.86 147.166L26.7441 100.534L81.1344 99.7656L76.9576 147.611L80.4149 183.699Z" fill="#9BC6EA"/>
<path d="M37.317 87.5664C29.1889 91.9592 20.1036 101.8 9.32917 121.227C6.34746 126.608 6.43283 133.465 9.60356 138.706L25.4633 162.348L32.4999 157.559C29.2255 152.831 20.567 140.604 18.817 135.619C17.5609 132.05 18.2621 127.987 20.567 125.168L35.7682 106.572L37.317 87.5664Z" fill="#FFA786"/>
<path d="M37.3172 87.5664C37.3172 87.5664 24.5977 92.6182 15.1709 111.361L22.9636 125.747L33.7563 115.711C33.7563 115.711 40.7563 107.847 41.3904 105.004C42.0185 102.16 37.3172 87.5664 37.3172 87.5664Z" fill="#9BC6EA"/>
<path d="M65.4639 86.9388C66.4212 86.9388 75.9517 76.9023 75.9517 76.9023L91.3907 87.5672L80.4151 110.691C71.5614 111.777 66.97 102.948 65.4639 86.9388Z" fill="#9BC6EA"/>
<path d="M24.0908 164.96L24.6945 169.56L24.2798 176.845L26.4689 180.768C26.4689 180.768 28.3042 180.573 26.8469 176.467L27.4811 172.757L29.5786 162.825C29.5786 162.825 28.2676 168.938 30.5664 169.017C32.8652 169.09 32.4994 157.559 32.4994 157.559L28.7859 156.016L24.0908 164.96Z" fill="#FFA786"/>
</svg>
