<svg width="149" height="149" viewBox="0 0 149 149" fill="none" xmlns="http://www.w3.org/2000/svg">
<path d="M149 74.5C149 115.6 115.6 149 74.5 149C33.4 149 0 115.6 0 74.5C0 33.4 33.4 0 74.5 0C115.6 0 149 33.4 149 74.5Z" fill="#F8F6F6"/>
<mask id="mask0" mask-type="alpha" maskUnits="userSpaceOnUse" x="0" y="0" width="149" height="149">
<path d="M149 74.5C149 115.6 115.6 149 74.5 149C33.4 149 0 115.6 0 74.5C0 33.4 33.4 0 74.5 0C115.6 0 149 33.4 149 74.5Z" fill="#F8F6F6"/>
</mask>
<g mask="url(#mask0)">
<path d="M66.7998 65.8997L91.5998 61.1997V52.9997L67.9998 52.6997L66.7998 65.8997Z" fill="#E2DCDC"/>
<path d="M93.0999 60.4999C91.5999 58.9999 89.9999 49.1999 89.7999 44.2999C82.3999 41.5999 73.7999 43.5999 71.3999 45.8999C71.3999 56.2999 66.3999 77.4999 72.3999 77.1999C101.3 75.5999 93.0999 60.4999 93.0999 60.4999Z" fill="#ECAF8D"/>
<path d="M51.5 63.1997C47 67.6997 24 99.1997 27.9 100.9C48.1 100.9 56.8 85.2997 55.5 78.2997C54.9 75.0997 51.5 63.1997 51.5 63.1997Z" fill="#FFC09D"/>
<path d="M56.4998 109.7C55.8998 103.5 47.5998 101.6 48.4998 94.9C49.3998 87.6 52.8998 86 52.1998 78.5C51.8998 75.4 49.0998 65.9 51.4998 63.3C53.5998 61 65.3998 61.5 68.3998 60.8C68.4998 61.7 69.7998 64 69.7998 64.9L74.4998 69.8L93.1998 60.6C93.1998 60.6 94.6998 58.2 94.6998 58.4L113.4 66.4C104 67.1 103.2 78.9 103.9 85.8C104.2 89.1 108.2 91.5 109 94.6C110 98.2 105 103.9 103.9 107.1C101.7 113.5 101 118.4 99.8998 125C99.3998 128.1 103.5 130.2 102.7 132.5C102.3 133.6 100.1 133.8 99.8998 134.9C99.5998 136.1 101.2 136.4 101.9 137.1C104.5 139.5 102.2 141.6 102.9 144.4C103.5 146.6 106.5 155.2 106.9 155.4C102.7 159.7 79.6998 160.1 75.6998 160.3C64.5998 160.9 51.6998 153.1 46.7998 153.1C49.6998 138.6 58.0998 124.9 56.4998 109.7Z" fill="#FCE587"/>
<path d="M59.0999 106.8C70.8999 111.8 88.2999 116.3 100.8 95.5C98.6999 99.1 98.4999 115.1 98.8999 119.7C99.2999 124.2 99.5999 126 98.8999 130.6C96.6999 131.2 96.2999 132.9 96.7999 135.6C97.4999 139 98.3999 136.3 100.3 138.6C105.1 144.6 98.1999 143.2 104 152.7C100.2 150.9 93.3999 147.2 95.8999 143.2C90.2999 140.7 89.4999 136.8 90.5999 131.1C90.9999 129 92.6999 127.3 92.9999 124.6C93.2999 122 92.0999 119.1 92.2999 116.4C83.3999 115.2 67.4999 115.5 60.1999 110.4L59.0999 106.8Z" fill="#FDD36A"/>
<path d="M55.4999 61.4001L49.4999 55.1001L45.0999 60.3001C45.0999 60.3001 23.1999 85.2001 23.2999 97.2001C25.1999 105.8 39.9999 96.4001 39.9999 96.4001L55.4999 61.4001Z" fill="#FFAC7D"/>
<path d="M67.7 54.7001L70.3 54.1001C70.3 54.1001 69.6 51.1001 65.8 52.2001C65.2 52.4001 63.3 53.7001 63.3 53.7001C63.3 53.7001 65.9 44.9001 66.4 42.2001C67.3 37.8001 64.8 38.6001 64.8 38.6001L63.4 41.7001L64.5 37.8001C64.9 36.5001 64.3 35.2001 63.3 35.1001C62.5 35.0001 60.9 37.0001 60.4 37.9001C60.7 36.6001 60.3 35.0001 59.2 34.8001C58.1 34.6001 55.4 40.8001 55.4 40.8001C55.6 39.9001 55.1 39.0001 54.3 38.8001C53.4 38.6001 50.4 47.8001 50.4 47.8001C50.4 48.0001 50.3 48.1001 50.3 48.3001L48.2 52.2001L47.5 58.4001L54.9 63.0001L61.7 61.6001L67.7 54.7001Z" fill="#FFAC7D"/>
<path d="M93.6873 10.6108C92.4873 7.01081 90.7873 3.21081 86.4873 3.01081C82.6873 2.81081 78.5873 5.41081 76.8873 8.81081C76.1873 10.2108 75.9873 11.7108 75.9873 13.2108L93.6873 10.6108Z" fill="#00314E"/>
<path d="M92.6874 26.411C93.6874 23.611 94.5874 20.911 95.0874 18.011C95.4874 15.811 96.0874 12.511 94.0874 10.811C92.1874 9.21104 88.8874 9.61104 86.6874 9.71104C83.8874 9.91104 80.8874 10.311 78.2874 11.511C76.1874 12.411 74.5874 13.911 73.0874 15.611L92.6874 26.411Z" fill="#063754"/>
<path d="M76.0874 13.5107C78.5874 12.3107 81.3874 11.6107 84.0874 11.1107C85.9874 10.8107 87.8874 11.0107 89.6874 11.5107C90.2874 11.7107 93.2874 12.2107 92.3874 13.0107C91.8874 13.4107 90.2874 13.2107 89.6874 13.2107C88.5874 13.2107 87.4874 13.3107 86.2874 13.3107V13.4107C88.2874 14.5107 90.1874 15.0107 91.4874 17.1107C92.1874 18.2107 92.7874 19.7107 92.3874 21.1107C91.2874 20.7107 90.5874 19.2107 89.6874 18.5107C88.5874 17.4107 87.2874 16.5107 85.8874 15.8107C83.8874 14.8107 81.3874 14.1107 79.1874 14.1107L76.0874 13.5107Z" fill="#053E60"/>
<path d="M84.5875 43.0109C82.7875 37.3109 80.2875 28.1109 76.8875 25.0109C72.8875 21.4109 67.6875 22.5109 63.3875 23.9109C59.0875 25.2109 54.1875 27.2109 52.8875 32.4109C51.7875 36.9109 54.6875 44.7109 56.7875 50.3109C59.4875 57.5109 61.2875 62.1109 69.5875 66.0109C71.4875 66.9109 74.4875 70.0109 80.7875 61.1109C84.9875 55.2109 86.7875 50.3109 84.5875 43.0109Z" fill="#FFC09D"/>
<path d="M79.0874 45.4109C79.4874 40.1109 77.5874 37.9109 74.5874 35.1109C70.9874 32.0109 67.9874 32.5109 64.0874 33.7109C60.2874 34.9109 55.1874 34.3109 54.0874 38.9109C53.0874 42.9109 55.8874 47.0109 57.6874 51.9109C60.0874 58.2109 62.3874 62.2109 69.7874 65.6109C71.4874 66.4109 75.3874 68.0109 78.9874 61.5109C81.9874 56.1109 78.5874 52.2109 79.0874 45.4109Z" fill="#FFC09D"/>
<path d="M83.3874 40.3932C84.2874 39.4932 89.6874 39.4932 88.5874 48.5932C89.6874 47.1932 89.6874 50.0932 90.2874 52.0932C94.4874 44.1932 95.8874 39.4932 95.5874 36.3932C94.3874 24.7932 87.4874 16.9932 84.3874 15.7932C80.2874 14.0932 78.6874 11.2932 68.3874 14.3932C63.6874 15.7932 55.2874 20.9932 52.6874 25.8932C50.4874 29.9932 50.2874 35.7932 52.9874 36.7932C53.3874 34.8932 54.3874 33.3932 55.9874 32.7932C56.8874 31.5932 57.6874 29.9932 60.0874 31.1932C62.7874 27.0932 67.6874 28.0932 70.1874 30.3932C74.2874 28.1932 83.2874 34.3932 83.3874 40.3932Z" fill="#00314E"/>
<path d="M73.0875 28.6933C71.4875 24.1933 80.5875 21.1933 77.5875 17.0933C80.1875 19.0933 81.7875 22.4933 79.1875 25.2933C78.5875 25.9933 77.8875 26.3933 77.0875 26.8933C78.8875 25.5933 82.8875 26.1933 82.9875 23.1933C84.7875 28.2933 77.1876 27.5933 74.3876 28.7933L73.0875 28.6933Z" fill="#063754"/>
<path d="M59.2875 30.1934C56.6875 22.4934 62.4875 18.3934 68.4875 15.1934C66.2875 18.2934 60.8875 21.4934 62.4875 25.8934C61.3875 23.2934 67.4875 20.8934 67.9875 18.1934C67.9875 21.9934 63.5875 23.6934 63.2875 27.2934C61.5875 27.6934 60.1875 28.5934 59.6875 30.2934L59.2875 30.1934Z" fill="#063754"/>
<path d="M83.0874 40.9109C86.7874 35.0109 87.7874 44.3109 87.3874 46.9109C87.1874 47.9109 86.3874 49.9109 85.3874 50.5109L83.0874 40.9109Z" fill="#FCAC6B"/>
<path d="M113.5 66.3002C115.6 68.2002 118.8 72.8002 120 83.9002C122.7 108.5 116.7 109.4 112.9 110.7C110.6 111.5 106.9 105.3 104.4 105C102.3 105.2 100.8 78.0002 104.8 70.7002C107.7 65.4002 113.6 66.2002 113.5 66.3002Z" fill="#FFC09D"/>
<path d="M77.1 46.4001C77.1 46.4001 73.7 40.0001 74.7 39.1001C75.6 38.3001 77.2 39.1001 78.1 40.2001C77.8 39.2001 77.1 36.5001 77.8 35.9001C78.6 35.1001 80 35.5001 80.9 36.7001L83.4 40.3001L81.8 37.0001C81.8 37.0001 82.9 34.4001 85.9 38.1001C87.8 40.4001 93.3 48.5001 93.3 48.5001C93.3 48.5001 93.5 46.0001 93.8 45.4001C95.5 41.6001 98.5 43.0001 98.5 43.0001L97.2 45.6001L98.8 55.4001L95.4 61.9001L95.7 61.8001L120.1 94.2001C120.1 94.2001 119.5 113.4 110.1 110.6C98 104.1 88.7 71.4001 88.7 71.4001L86.3 65.0001L81.7 60.2001L79.9 55.8001C79.8 55.7001 79.6 55.6001 79.5 55.4001C79.5 55.4001 74 46.6001 74.7 46.0001C75.4 45.4001 76.5 45.6001 77.1 46.4001Z" fill="#FFAC7D"/>
<path d="M38.1 32.7001C37.8 32.6001 37.6 32.4001 37.5 32.0001V31.9001C37.5 31.3001 37.9 31.0001 38.4 30.7001C38.9 30.4001 39.6 30.0001 40.5 29.7001C42.3 29.0001 44.8 28.2001 47.9 27.3001C54.1 25.6001 62.8 23.7001 72.4 21.9001C85.8 19.5001 97.6 18.1001 103.8 18.1001C105.9 18.1001 107.3 18.2001 108.1 18.6001C108.4 18.7001 108.6 19.0001 108.7 19.3001V19.4001C108.7 19.8001 108.5 20.0001 108.3 20.2001C108.1 20.4001 107.8 20.6001 107.5 20.8001C106.8 21.2001 105.8 21.6001 104.6 22.1001C102.1 23.0001 99.4 23.8001 95 24.9001L94.4 24.1001C100.3 22.6001 104.3 21.4001 106.4 20.3001C107.1 20.0001 107.6 19.6001 107.7 19.5001C107.7 19.5001 107.7 19.5001 107.6 19.5001C107.5 19.4001 107.2 19.3001 106.9 19.3001C106.2 19.2001 105.2 19.1001 103.8 19.1001C97.8 19.1001 86 20.5001 72.6 22.9001C64.5 24.3001 57.1 25.9001 51.2 27.4001C45.4 28.9001 41.1 30.3001 39.3 31.3001C38.9 31.5001 38.6 31.7001 38.6 31.9001C38.7 32.0001 39 32.1001 39.3 32.1001C40 32.2001 41 32.3001 42.4 32.3001C44.6 32.3001 47.3 32.2001 50.8 31.8001L50.3 32.8001C46.8 33.1001 44.7 33.2001 42.4 33.2001C40.3 33.2001 38.9 33.1001 38.1 32.7001Z" fill="#EB5757"/>
<path d="M43.7999 35.8998L45 34.7998L44.9 36.3998L46.5 36.5998L45.0999 37.4998L45.9 38.8998L44.4 38.4998L43.7999 39.9998L43.2 38.4998L41.7 38.8998L42.5 37.4998L41.2 36.5998L42.7 36.3998L42.5999 34.7998L43.7999 35.8998Z" fill="#EB5757"/>
<path d="M90.5999 4.7L91.3999 4L91.2999 5.1L92.3999 5.2L91.4999 5.8L91.9999 6.8L90.9999 6.5L90.5999 7.5L90.1999 6.5L89.1999 6.8L89.6999 5.8L88.8999 5.2L89.8999 5.1L89.7999 4L90.5999 4.7Z" fill="#EB5757"/>
<path d="M69 27.5998L69.7 26.7998V27.8998L70.7 28.0998L69.8 28.6998L70.4 29.5998L69.3 29.2998L69 30.2998L68.6 29.2998L67.5 29.5998L68.1 28.6998L67.2 28.0998L68.2 27.8998V26.7998L69 27.5998Z" fill="#EB5757"/>
<path d="M99.7 16.9999L100.8 15.8999L100.7 17.4999L102.3 17.7999L101 18.6999L101.8 20.0999L100.2 19.5999L99.7 21.0999L99.1 19.5999L97.5 20.0999L98.3 18.6999L97 17.7999L98.6 17.4999L98.5 15.8999L99.7 16.9999Z" fill="#EB5757"/>
<path d="M46.7001 15.3998L47.9001 14.2998L47.8001 15.8998L49.4001 16.1998L48.1001 17.0998L48.9001 18.4998L47.3001 17.9998L46.7001 19.4998L46.1001 17.9998L44.6001 18.4998L45.4001 17.0998L44.1001 16.1998L45.7001 15.8998L45.6001 14.2998L46.7001 15.3998Z" fill="#EB5757"/>
</g>
</svg>
