<svg xmlns="http://www.w3.org/2000/svg" width="195" height="187" viewBox="0 0 195 187" fill="none"><mask id="mask0" maskUnits="userSpaceOnUse" x="0" y="0" width="195" height="187"><rect width="195" height="187" fill="white"></rect></mask><g mask="url(#mask0)"><path fill-rule="evenodd" clip-rule="evenodd" d="M0.114343 98.9753C-2.50807 70.64 0.158109 38.382 24.044 22.0275C47.3546 6.06692 78.5309 19.6811 107.178 25.6698C137.473 32.0031 175.24 30.4334 189.775 56.6742C204.503 83.2626 187.959 114.975 169.681 138.509C155.261 157.074 129.922 160.181 105.889 164.682C82.3723 169.086 57.5835 176.044 37.1217 163.333C14.4368 149.241 2.46115 124.333 0.114343 98.9753Z" fill="#D2F8FD"></path><mask id="mask1" maskUnits="userSpaceOnUse" x="-1" y="10" width="197" height="161"><path fill-rule="evenodd" clip-rule="evenodd" d="M0.113366 98.9752C-2.50904 70.64 0.157133 38.382 24.043 22.0275C47.3537 6.06692 89.8531 9.51127 118.5 15.5C148.795 21.8333 188.001 19.5 189.774 56.6742C204.502 83.2626 187.958 114.975 169.68 138.509C155.26 157.074 129.921 160.181 105.888 164.682C82.3714 169.086 57.5825 176.044 37.1208 163.333C14.4358 149.241 2.46017 124.333 0.113366 98.9752Z" fill="#D2F8FD"></path></mask><g mask="url(#mask1)"><path d="M177.395 33.8569C174.569 33.9196 172.338 36.1876 169.793 44.1655C168.672 47.5939 167.53 52.1513 164.73 54.6858C159.196 59.9685 153.951 49.1621 151.686 45.4985C147.155 38.1714 141.076 26.6358 133.963 21.4962C132.918 20.6906 130.23 20.8984 129.907 23.1487C129.504 25.891 134.065 31.5245 135.509 33.7532C138.049 37.848 141.148 42.2408 143.057 46.1062C143.671 47.3235 143.214 49.1464 140.844 47.3862C133.949 41.8997 126.517 30.962 119.191 25.8871C118.215 25.154 116.189 23.8975 114.677 25.4794C113.525 26.7183 113.926 28.0002 114.614 29.0077C118.464 34.9039 127.703 43.562 132.272 48.7721C132.896 49.4248 136.838 54.1234 134.946 53.2942C132.142 52.0868 127.093 46.0867 124.653 44.2539C121.798 41.986 118.911 37.5286 115.476 36.0918C112.952 35.0333 111.638 37.3973 112.521 39.3281C116.13 46.8414 124.912 53.4393 130.742 59.2493C132.339 60.7762 130.185 62.6933 128.716 61.8759C125.848 60.3137 123.057 58.4005 120.117 56.9069C118.654 55.8072 114.037 53.2786 113.092 54.7351C112.007 56.1876 113.188 57.2794 113.951 58.0772C118.319 62.6463 123.837 66.1177 128.421 70.4811C133.354 75.0659 138.007 79.5018 143.733 83.1908C149.387 86.9484 155.403 90.2219 160.403 95.0204C163.597 98.0743 183.955 118.504 186.788 122.043C194.618 122.613 196.98 108.2 199.597 100.154C193.086 95.2091 189.231 91.1093 186.655 89.0978C181.778 85.2911 174.797 80.17 172.647 74.0386C171.64 71.116 172.885 68.6795 173.783 65.8803C175.127 61.8227 175.092 55.8912 176.085 51.7533C177.078 47.6154 178.402 44.6869 178.763 40.3196C178.89 37.1461 178.738 33.8236 177.395 33.8569Z" fill="#FABB87"></path><path d="M157.047 60.5009C156.881 61.9074 156.997 63.3218 157.326 64.6716C157.654 66.0214 158.055 67.3026 158.738 68.5916C159.28 69.8767 159.965 71.0247 160.72 72.2451C161.475 73.4656 162.232 74.545 163.059 75.6969C162.088 74.6822 161.19 73.5988 160.363 72.4469C159.537 71.295 158.923 70.0785 158.312 68.7209C157.77 67.4358 157.3 66.0821 157.043 64.6638C156.786 63.2455 156.67 61.831 157.047 60.5009Z" fill="#FA9D62"></path><path d="M136.51 66.4745C137.938 65.9462 139.157 65.1989 140.309 64.2368C141.391 63.2018 142.404 62.0937 143.206 60.9088C144.95 58.543 146.277 55.7395 147.601 53.0779C147.15 54.4856 146.558 55.8893 145.896 57.2201C145.234 58.5509 144.43 59.8777 143.556 61.1316C142.683 62.3855 141.67 63.4935 140.518 64.4557C139.366 65.4178 137.933 66.2301 136.51 66.4745Z" fill="#FA9D62"></path><path d="M117.742 60.9089C118.036 60.3492 118.258 59.8584 118.621 59.3715C118.984 58.8847 119.347 58.3978 119.78 57.9839C119.698 58.6205 119.335 59.1074 119.041 59.6672C118.75 60.085 118.245 60.5679 117.742 60.9089Z" fill="#FA9D62"></path><path d="M123.386 64.7822C123.463 64.4292 123.61 64.1492 123.757 63.8692C123.904 63.5892 124.123 63.2402 124.339 63.0332C124.556 62.8262 124.775 62.4772 124.991 62.2701C125.208 62.0631 125.497 61.7871 125.783 61.653C125.417 62.282 125.053 62.769 124.618 63.325C124.327 63.743 123.891 64.2991 123.386 64.7822Z" fill="#FA9D62"></path><path d="M116.654 42.7031C117.226 42.4351 117.729 42.0941 118.231 41.7532C118.733 41.4122 119.166 40.9983 119.599 40.5844C119.375 41.2171 119.012 41.7039 118.437 42.1138C117.935 42.4548 117.291 42.7918 116.654 42.7031Z" fill="#FA9D62"></path><path d="M127.016 54.11C127.174 53.2622 127.612 52.5643 128.119 51.9393C128.627 51.3142 129.204 50.7622 129.921 50.356C129.483 51.054 128.905 51.606 128.398 52.2311C127.962 52.7871 127.524 53.485 127.016 54.11Z" fill="#FA9D62"></path><path d="M131.857 46.1526C132.226 45.3813 132.806 44.6869 133.453 44.2075C134.172 43.6591 134.889 43.2527 135.675 42.9193C135.026 43.5407 134.379 44.0201 133.731 44.4994C133.084 44.9788 132.435 45.6002 131.857 46.1526Z" fill="#FA9D62"></path><path d="M133.856 29.1426C134.641 28.8097 135.355 28.5458 136.068 28.2819C136.426 28.0791 136.712 27.9451 137.07 27.7423C137.428 27.5394 137.717 27.2637 137.935 26.9151C137.709 27.6891 137.06 28.3095 136.275 28.6423C135.489 28.9752 134.706 29.1662 133.856 29.1426Z" fill="#FA9D62"></path><path d="M119.681 33.7148C120.328 33.2357 121.044 32.8295 121.619 32.4194C121.908 32.1434 122.196 31.8674 122.413 31.6603C122.701 31.3843 122.92 31.0353 123.067 30.7553C122.982 31.5341 122.472 32.3011 121.825 32.7802C121.251 33.1904 120.464 33.5236 119.681 33.7148Z" fill="#FA9D62"></path><path d="M141.865 41.2694C142.156 40.8523 142.516 40.5079 142.874 40.3052C143.304 40.0337 143.731 39.9038 144.23 39.705C145.085 39.4453 146.079 39.3311 147.067 39.5004C146.213 39.7601 145.219 39.8743 144.364 40.134C143.44 40.321 142.655 40.6535 141.865 41.2694Z" fill="#FA9D62"></path><path d="M178.429 42.0144C178.429 42.0144 175.005 39.7271 177.631 35.2742C177.631 35.2742 179.016 32.9791 178.86 37.7127C178.912 38.7748 178.429 42.0144 178.429 42.0144Z" fill="#F2D2C2"></path></g><path d="M86.3604 81.5422C86.3604 79.7312 86.6999 78.0334 87.4922 76.3356L92.812 64.2246H61.7988L86.3604 88.7861V81.5422Z" fill="#FF3D3D"></path><path d="M92.8122 142.778H16.6375L21.9572 130.667C22.6364 129.083 23.0891 127.272 23.0891 125.461V81.4309C23.0891 79.6199 22.7495 77.9221 21.9572 76.2243L16.6375 64.1133H61.799L73.7968 76.1111L86.3605 88.6748V125.347C86.3605 127.158 86.7001 128.856 87.4924 130.554L92.8122 142.778Z" fill="#61B6F2"></path><path d="M36.7842 81.5422V125.572C36.7842 127.383 36.4446 129.081 35.6523 130.778L30.3326 142.889H16.637L21.9567 130.778C22.6359 129.194 23.0886 127.383 23.0886 125.572V81.5422C23.0886 79.7312 22.7491 78.0334 21.9567 76.3356L16.637 64.2246H30.3326L35.6523 76.3356C36.4446 77.9202 36.7842 79.7312 36.7842 81.5422Z" fill="#B0E2FC"></path><path d="M92.8113 142.776H79.1157L73.7959 130.665C73.1168 129.081 72.6641 127.27 72.6641 125.459V81.4292C72.6641 79.6182 73.0036 77.9204 73.7959 76.2226V76.1094L86.3597 88.6731V125.346C86.3597 127.157 86.6992 128.854 87.4915 130.552L92.8113 142.776Z" fill="#299AEA"></path><path d="M92.8117 58H16.637V64.2253H92.8117V58Z" fill="#1379DA"></path><path d="M92.8117 142.777H16.637V149.003H92.8117V142.777Z" fill="#1379DA"></path><path d="M60.605 108.674C68.5173 105.396 72.2746 96.3252 68.9971 88.4129C65.7197 80.5006 56.6485 76.7433 48.7362 80.0207C40.8239 83.2982 37.0666 92.3693 40.344 100.282C43.6215 108.194 52.6926 111.951 60.605 108.674Z" fill="#FFE600"></path><path d="M54.6673 105.649C60.9184 105.649 65.986 100.582 65.986 94.3304C65.986 88.0793 60.9184 83.0117 54.6673 83.0117C48.4162 83.0117 43.3486 88.0793 43.3486 94.3304C43.3486 100.582 48.4162 105.649 54.6673 105.649Z" fill="white"></path><path d="M75.8327 102.822H44.5931C43.3481 102.822 42.4426 103.615 42.4426 104.746V109.274C41.7634 109.274 41.1975 109.84 41.1975 110.406C41.1975 111.085 41.7634 111.538 42.5557 111.538H75.8327V102.822Z" fill="#E92B40"></path><path d="M47.1971 100.219V108.142C47.1971 107.463 46.6311 107.01 45.8388 107.01H36.6707H22.9751V98.2949H44.9333C46.1784 98.2949 47.1971 99.2004 47.1971 100.219Z" fill="#FF3D3D"></path><path d="M45.8382 107.008H41.1975V110.403C41.1975 109.724 41.7634 109.272 42.5557 109.272H45.8382C46.5173 109.272 47.1964 108.706 47.1964 108.14C47.1964 107.461 46.6305 107.008 45.8382 107.008Z" fill="#D40000"></path><path d="M78.2102 103.276C78.097 103.276 78.097 103.276 77.9839 103.163C74.9278 101.352 71.9849 105.426 68.4761 110.859C65.1937 111.765 61.119 114.821 56.4784 117.651C49.1212 122.178 43.3487 124.555 45.386 129.082C45.4992 129.309 45.6124 129.648 45.8388 129.875C49.008 134.968 60.1003 140.741 67.797 135.987C69.7212 134.742 71.3058 133.044 72.4377 131.007C75.2674 129.875 77.9838 128.064 79.7948 125.234C84.8882 117.651 82.1718 105.879 78.2102 103.276Z" fill="#1379DA"></path><path d="M76.9658 100.558C76.8526 100.558 76.8526 100.558 76.7394 100.445C79.7954 104.633 81.2669 114.254 76.9658 120.932C72.0987 128.289 61.9119 129.082 57.6108 126.705C57.8372 127.271 58.29 127.723 58.8559 128.063C62.8174 130.666 73.6834 130.1 78.6636 122.517C83.6438 114.933 81.0405 103.275 76.9658 100.558Z" fill="#FFE21F"></path><path d="M76.9656 120.933C81.2667 114.368 79.7953 104.634 76.7393 100.446C72.7777 98.1821 69.0426 105.539 64.1755 113.01C59.9876 119.461 56.2525 123.875 57.6107 126.705C61.9118 129.082 72.2118 128.29 76.9656 120.933Z" fill="#FFC51E"></path><path d="M72.664 109.954C72.3245 109.388 71.9849 109.049 71.5322 108.709C73.7959 114.482 72.0981 126.479 64.9673 130.894C58.0629 135.195 48.4421 131.007 44.2542 126.366C44.3673 126.592 44.4805 126.932 44.7069 127.158C47.8761 132.252 58.9684 138.024 66.6651 133.271C74.3618 128.517 75.8333 115.047 72.664 109.954Z" fill="#FFEF81"></path><path d="M64.9674 130.892C72.2114 126.478 73.9092 114.367 71.5322 108.707C68.1366 105.991 62.2509 110.745 55.3465 115.046C47.9894 119.573 42.2168 121.95 44.2542 126.478C48.4421 131.005 58.063 135.193 64.9674 130.892Z" fill="#FFE21F"></path><path d="M66.0997 121.047C66.8498 121.047 67.4579 120.438 67.4579 119.688C67.4579 118.938 66.8498 118.33 66.0997 118.33C65.3496 118.33 64.7415 118.938 64.7415 119.688C64.7415 120.438 65.3496 121.047 66.0997 121.047Z" fill="#FFC51E"></path><path d="M52.9702 123.309C53.9703 123.309 54.7812 122.499 54.7812 121.498C54.7812 120.498 53.9703 119.688 52.9702 119.688C51.97 119.688 51.1592 120.498 51.1592 121.498C51.1592 122.499 51.97 123.309 52.9702 123.309Z" fill="#FFC51E"></path><path d="M65.1932 113.69C65.1932 114.369 64.6273 114.935 63.9482 114.935C63.269 114.935 62.7031 114.369 62.7031 113.69C62.7031 113.011 63.269 112.445 63.9482 112.445C64.6273 112.445 65.1932 113.011 65.1932 113.69Z" fill="#FFC51E"></path><path d="M56.1385 128.288C56.1385 128.967 55.5726 129.533 54.8935 129.533C54.2144 129.533 53.6484 128.967 53.6484 128.288C53.6484 127.609 54.2144 127.043 54.8935 127.043C55.5726 127.043 56.1385 127.609 56.1385 128.288Z" fill="#FFC51E"></path><path d="M63.9489 125.799C63.9489 127.044 62.9302 128.063 61.6851 128.063C60.4401 128.063 59.4214 127.044 59.4214 125.799C59.4214 124.554 60.4401 123.535 61.6851 123.535C63.0434 123.535 63.9489 124.554 63.9489 125.799Z" fill="#FFC51E"></path><g clip-path="url(#clip0)"><path d="M125.744 90.8242C109.727 90.8242 96.6606 103.949 96.6606 120.038C96.6606 136.127 109.727 149.252 125.744 149.252C141.76 149.252 154.827 136.127 154.827 120.038C154.827 103.949 141.76 90.8242 125.744 90.8242ZM125.744 133.304C118.438 133.304 112.396 127.377 112.396 119.897C112.396 112.558 118.297 106.49 125.744 106.49C133.05 106.49 139.091 112.417 139.091 119.897C138.95 127.377 133.05 133.304 125.744 133.304Z" fill="#F3AA43"></path><path d="M150.612 120.18C150.612 117.075 149.91 113.97 148.786 111.148C148.083 109.595 147.381 108.043 146.397 106.632C144.711 104.091 142.604 101.833 140.075 100.14C138.248 98.8695 136.422 97.8816 134.315 97.0348C131.645 96.0469 128.695 95.4824 125.744 95.4824C115.488 95.4824 106.637 101.692 102.843 110.583C102 112.559 101.438 114.676 101.017 116.934C100.876 118.063 100.736 119.192 100.736 120.462C100.736 122.438 101.017 124.273 101.298 126.107C101.719 127.801 102.281 129.494 102.984 130.906C104.248 133.728 106.075 136.269 108.182 138.386C109.587 139.797 111.132 140.926 112.818 141.914C115.347 143.466 118.157 144.454 121.108 145.019C122.513 145.301 124.058 145.442 125.463 145.442C134.174 145.442 141.761 140.926 146.257 134.152C147.943 131.753 149.067 128.93 149.769 125.966C150.191 124.132 150.331 122.297 150.331 120.462C150.612 120.321 150.612 120.321 150.612 120.18ZM126.306 137.115C125.744 137.115 125.042 137.115 124.48 136.974C121.951 136.692 119.562 135.704 117.595 134.434C115.066 132.74 112.959 130.2 111.835 127.236C111.273 125.684 110.851 123.849 110.711 122.156C110.711 121.874 110.711 121.732 110.711 121.45C110.711 117.499 112.116 113.97 114.504 111.289C117.314 107.902 121.67 105.785 126.447 105.785C126.728 105.785 127.009 105.785 127.29 105.785C131.364 106.067 135.017 107.761 137.687 110.583C138.951 111.853 139.934 113.265 140.637 114.958C141.62 116.934 142.042 119.192 142.042 121.591C142.042 122.438 141.901 123.285 141.761 124.132C141.339 126.672 140.356 128.93 138.81 130.906C136.001 134.575 131.364 137.115 126.306 137.115Z" fill="#F2F2F2"></path><path d="M140.074 100.139L127.149 105.785C126.868 105.785 126.587 105.785 126.306 105.785C121.529 105.785 117.314 107.902 114.363 111.289L101.016 117.075C101.297 114.817 101.859 112.7 102.843 110.724L134.314 97.1758C136.422 97.7403 138.389 98.8693 140.074 100.139Z" fill="#D16241"></path><path d="M110.71 122.014C110.71 123.848 111.132 125.542 111.834 127.094L103.123 130.905C102.421 129.352 101.859 127.8 101.438 126.106L110.71 122.014Z" fill="#D16241"></path><path d="M148.785 111.147L140.496 114.816C139.793 113.264 138.81 111.711 137.545 110.441L146.397 106.631C147.38 108.042 148.223 109.595 148.785 111.147Z" fill="#D16241"></path><path d="M117.594 134.432C119.561 135.843 121.95 136.69 124.479 136.972L112.958 141.911C111.272 140.924 109.727 139.653 108.322 138.383L117.594 134.432Z" fill="#D16241"></path><path d="M150.612 120.462C150.612 122.297 150.472 124.272 150.05 125.966L138.81 130.764C140.356 128.789 141.339 126.53 141.761 123.99L150.612 120.18C150.612 120.321 150.612 120.321 150.612 120.462Z" fill="#D16241"></path><path d="M146.537 134.15C142.041 140.925 134.454 145.441 125.743 145.441C124.198 145.441 122.793 145.3 121.388 145.017L146.537 134.15Z" fill="#D16241"></path><path d="M117.713 139.461C117.713 142.594 114.789 144.943 111.28 144.943H79.8962C76.1924 144.943 73.2684 142.398 73.2684 139.461L68.2002 113.418C68.2002 110.285 71.1242 107.936 74.8279 107.936H116.349C120.052 107.936 122.976 110.481 122.976 113.418L117.713 139.461Z" fill="#EA6742"></path><path d="M98.8049 137.307C98.8049 139.265 97.2454 141.027 95.1012 141.027C93.1519 141.027 91.3975 139.461 91.3975 137.307V111.656C91.3975 109.698 92.9569 107.936 95.1012 107.936C97.0505 107.936 98.8049 109.502 98.8049 111.656V137.307Z" fill="#E3483F"></path><path d="M111.475 137.697C111.085 139.655 109.331 141.026 107.382 140.83C105.432 140.438 104.068 138.676 104.263 136.718L107.966 111.263C108.356 109.305 110.111 107.934 112.06 108.13C114.009 108.522 115.374 110.284 115.179 112.242L111.475 137.697Z" fill="#E3483F"></path><path d="M78.7264 137.697C79.1163 139.655 80.8707 141.026 82.82 140.83C84.7693 140.438 86.1339 138.676 85.9389 136.718L82.2352 111.263C81.8453 109.305 80.0909 107.934 78.1416 108.13C76.1923 108.522 74.8277 110.284 75.0227 112.242L78.7264 137.697Z" fill="#E3483F"></path><path d="M128.239 101.279C128.239 107.153 123.366 112.049 117.518 112.049C116.543 112.049 115.764 111.853 114.789 111.657C110.5 116.356 103.483 119.685 95.4905 119.685C87.4983 119.685 80.4807 116.552 76.1922 111.657C75.2175 111.853 74.2428 112.049 73.2682 112.049C67.4202 112.049 62.5469 107.153 62.5469 101.279C62.5469 100.3 62.7418 99.5168 62.9367 98.7336C64.1063 94.0342 68.1999 90.5096 73.2682 90.5096C74.0479 90.5096 74.8276 90.7054 75.6074 90.7054C79.8959 85.6144 87.1084 82.0898 95.4905 82.0898C103.678 82.0898 111.085 85.4186 115.179 90.7054C115.958 90.5096 116.543 90.5096 117.323 90.5096C122.391 90.5096 126.485 94.0342 127.654 98.7336C128.239 99.5168 128.239 100.496 128.239 101.279Z" fill="#FFC562"></path><path d="M88.8629 108.133C88.8629 110.679 86.7186 112.832 84.1845 112.832C81.6504 112.832 79.5061 110.679 79.5061 108.133C79.5061 105.587 81.6504 103.434 84.1845 103.434C86.9136 103.434 88.8629 105.392 88.8629 108.133Z" fill="#9D6C4E"></path><path d="M98.2196 95.2092C98.2196 97.7547 96.0753 99.9086 93.5412 99.9086C91.0071 99.9086 88.8628 97.7547 88.8628 95.2092C88.8628 92.6637 91.0071 90.5098 93.5412 90.5098C96.0753 90.5098 98.2196 92.6637 98.2196 95.2092Z" fill="#9D6C4E"></path><path d="M119.077 105.586C119.077 108.132 116.933 110.286 114.399 110.286C111.865 110.286 109.721 108.132 109.721 105.586C109.721 103.041 111.865 100.887 114.399 100.887C116.933 100.887 119.077 103.041 119.077 105.586Z" fill="#9D6C4E"></path><path d="M114.399 90.5099C114.399 93.0555 112.255 95.2094 109.72 95.2094C107.186 95.2094 105.042 93.0555 105.042 90.5099C105.042 87.9644 107.186 85.8105 109.72 85.8105C112.255 85.8105 114.399 87.9644 114.399 90.5099Z" fill="#9D6C4E"></path><path d="M81.2603 90.5099C81.2603 93.0555 79.1161 95.2094 76.582 95.2094C74.0478 95.2094 71.9036 93.0555 71.9036 90.5099C71.9036 87.9644 74.0478 85.8105 76.582 85.8105C79.1161 85.8105 81.2603 87.9644 81.2603 90.5099Z" fill="#9D6C4E"></path><path d="M83.5999 143.769C78.7266 142.398 71.904 141.615 64.3016 141.615C56.6992 141.615 49.8766 142.398 45.0032 143.769H37.011V148.86C37.011 152.972 49.0968 156.301 64.1067 156.301C79.1165 156.301 91.2023 152.972 91.2023 149.056V143.965H83.5999V143.769Z" fill="#E3972B"></path><path d="M91.2023 143.77C91.2023 147.882 79.1165 151.015 64.1067 151.015C49.0968 151.015 37.011 147.882 37.011 143.77C37.011 139.658 49.0968 136.525 64.1067 136.525C79.1165 136.525 91.2023 139.854 91.2023 143.77Z" fill="#FFC562"></path><path d="M53.5806 144.555C53.5806 145.338 52.8008 146.121 52.0211 146.121H48.1224C47.3427 146.121 46.563 145.338 46.563 144.555C46.563 143.772 47.3427 142.988 48.1224 142.988H52.0211C52.8008 142.988 53.5806 143.576 53.5806 144.555Z" fill="#9D6C4E"></path><path d="M67.81 140.442C67.81 141.421 67.0303 142.204 66.0556 142.204H60.4026C59.4279 142.204 58.6482 141.421 58.6482 140.442C58.6482 139.463 59.4279 138.68 60.4026 138.68H66.0556C66.8354 138.68 67.81 139.463 67.81 140.442Z" fill="#9D6C4E"></path><path d="M77.5574 146.121C77.5574 146.904 76.9726 147.492 76.1928 147.492H73.2688C72.4891 147.492 71.9043 146.904 71.9043 146.121C71.9043 145.338 72.4891 144.75 73.2688 144.75H76.1928C76.9726 144.555 77.5574 145.142 77.5574 146.121Z" fill="#9D6C4E"></path><path d="M64.8863 147.492C64.8863 148.275 64.3015 148.862 63.5217 148.862H61.5724C60.7927 148.862 60.0129 148.275 60.0129 147.492C60.0129 146.709 60.5977 146.121 61.5724 146.121H63.5217C64.3015 146.121 64.8863 146.709 64.8863 147.492Z" fill="#9D6C4E"></path><path d="M82.2353 141.421C82.2353 142.205 81.6505 142.792 80.8708 142.792H77.9468C77.1671 142.792 76.5823 142.205 76.5823 141.421C76.5823 140.638 77.1671 140.051 77.9468 140.051H80.6759C81.4556 140.051 82.2353 140.638 82.2353 141.421Z" fill="#9D6C4E"></path><path d="M112.06 154.54C109.331 155.91 88.4735 161.002 86.5241 161.002C84.9647 161.002 80.8711 159.827 84.1849 152.973C84.7697 151.799 85.5495 150.428 86.5241 148.861C93.7366 138.092 107.772 134.959 107.772 134.959C107.772 134.959 110.306 141.812 111.67 147.491C112.645 151.015 113.035 153.952 112.06 154.54Z" fill="#E3972B"></path><path d="M111.866 147.295C108.357 148.862 88.2786 153.561 86.5243 153.561C85.9395 153.561 84.9648 153.365 84.1851 152.778C84.7699 151.603 85.5496 150.233 86.5243 148.666C93.7368 137.897 107.772 134.764 107.772 134.764C107.772 134.764 110.501 141.813 111.866 147.295Z" fill="#FFC562"></path><path d="M134.283 154.54C137.012 155.911 157.87 161.002 159.819 161.002C161.378 161.002 165.472 159.827 162.158 152.974C161.573 151.799 160.794 150.428 159.819 148.862C152.412 138.092 138.376 134.764 138.376 134.764C138.376 134.764 135.842 141.617 134.478 147.295C133.503 151.016 133.113 153.953 134.283 154.54Z" fill="#E3972B"></path><path d="M134.478 147.295C137.986 148.862 158.064 153.561 159.819 153.561C160.404 153.561 161.378 153.365 162.158 152.778C161.573 151.603 160.793 150.233 159.819 148.666C152.411 138.092 138.376 134.764 138.376 134.764C138.376 134.764 135.842 141.813 134.478 147.295Z" fill="#FFC562"></path><path d="M141.69 141.029V147.687C141.69 152.778 137.597 156.694 132.723 156.694H114.01C108.942 156.694 105.043 152.582 105.043 147.687V141.029C105.043 140.833 105.043 140.833 105.043 140.638C105.238 135.742 109.137 131.826 114.01 131.826H132.723C137.597 131.826 141.69 135.742 141.69 140.638C141.69 140.638 141.69 140.833 141.69 141.029Z" fill="#FFC562"></path><path d="M141.69 140.638C141.69 141.617 141.495 142.596 141.105 143.379C139.936 146.903 136.427 149.449 132.528 149.449H113.815C109.916 149.449 106.602 146.903 105.238 143.379C104.848 142.596 104.848 141.617 104.653 140.638C104.848 135.742 108.746 131.826 113.62 131.826H132.333C137.596 131.826 141.69 135.742 141.69 140.638Z" fill="#FFD894"></path></g></g><path d="M18.0427 44.0159L18.1568 37.9229L23.8868 38.0303L23.872 38.8221L21.9473 38.7861L21.9152 40.5018C22.1005 40.3952 22.3039 40.3074 22.5252 40.2382C22.754 40.1618 23.0041 40.1261 23.2754 40.1312C23.6493 40.1382 23.9848 40.2398 24.2818 40.4361C24.5862 40.6325 24.8265 40.9194 25.0028 41.2968C25.1791 41.6741 25.2622 42.1341 25.252 42.6767C25.2397 43.3365 25.1346 43.8553 24.9368 44.233C24.739 44.6107 24.4655 44.921 24.1162 45.1638C23.7522 45.4137 23.3163 45.5816 22.8086 45.6674C22.3007 45.7606 21.6509 45.7998 20.859 45.7849L20.0342 45.7695C19.7262 45.7637 19.4875 45.7812 19.3181 45.8221C19.1486 45.8629 19.0008 45.9225 18.8746 46.0008C18.7558 46.0792 18.662 46.1912 18.5933 46.3366C18.5246 46.482 18.4879 46.6757 18.4834 46.9176C18.4793 47.1376 18.4866 47.3357 18.5053 47.5121L17.6026 47.5392C17.5831 47.4068 17.5675 47.2599 17.5558 47.0983C17.5441 46.944 17.5393 46.8046 17.5417 46.6799C17.5477 46.3573 17.6115 46.0835 17.7331 45.8584C17.8545 45.6406 18.0082 45.4638 18.1941 45.3279C18.3874 45.1922 18.6018 45.0972 18.8376 45.0429C19.0806 44.9888 19.3855 44.9652 19.7521 44.972L20.7749 44.9912C21.3761 45.0025 21.8642 44.9859 22.2391 44.9416C22.6213 44.8974 22.9308 44.8189 23.1676 44.706C23.4043 44.6004 23.6087 44.4575 23.7808 44.2774C23.9304 44.1188 24.0517 43.9121 24.1445 43.6571C24.2447 43.3949 24.2984 43.0732 24.3056 42.6919C24.3161 42.1274 24.2105 41.6963 23.9887 41.3988C23.7744 41.094 23.4546 40.9377 23.0294 40.9297C22.8314 40.926 22.6326 40.9663 22.433 41.0506C22.2335 41.1275 22.0557 41.2232 21.8995 41.3376L21.848 44.0871L20.9022 44.0694L21.0015 38.7684L19.0878 38.7325L18.9885 44.0336L18.0427 44.0159ZM24.299 34.8584C24.7096 34.8661 25.112 34.9213 25.5061 35.0241C25.9002 35.1268 26.2524 35.3168 26.5626 35.594C26.8368 35.8338 27.0627 36.1094 27.2402 36.4208C27.4251 36.7323 27.561 37.1126 27.6479 37.5616C27.7349 38.0107 27.7721 38.5688 27.7596 39.236L27.6667 44.1962L26.7208 44.1784L26.8119 39.3173C26.8274 38.4888 26.7483 37.8198 26.5745 37.3105C26.408 36.8013 26.1548 36.4151 25.815 36.1521C25.6126 35.9942 25.3837 35.8799 25.1283 35.8091C24.8658 35.7309 24.5915 35.6891 24.3055 35.6837C23.6457 35.6713 23.1225 35.7972 22.7362 36.0614C22.3425 36.3254 22.1402 36.747 22.1294 37.3262C22.1224 37.7002 22.1998 38.0683 22.3617 38.4308L21.4049 38.4129C21.3345 38.2575 21.2792 38.0731 21.2392 37.8597C21.1992 37.6462 21.1809 37.4478 21.1844 37.2645C21.1954 36.678 21.3509 36.2078 21.6509 35.854C21.9436 35.5001 22.3261 35.2432 22.7985 35.0834C23.2709 34.9235 23.7711 34.8485 24.299 34.8584ZM35.0169 38.1068C35.8528 38.1224 36.4849 38.4423 36.9133 39.0665C37.349 39.6907 37.5563 40.5674 37.5351 41.6966C37.5214 42.4298 37.4355 43.0993 37.2775 43.7051C37.1267 44.3111 36.9262 44.8391 36.6757 45.2891L39.1832 45.3361L39.3147 38.3193L40.2605 38.337L40.1142 46.1457L36.2319 46.0729C35.7069 46.6939 35.0897 47.1407 34.3805 47.4135C33.6784 47.6937 32.8582 47.825 31.9197 47.8075L31.6997 47.8033C31.2451 47.7948 30.81 47.728 30.3942 47.6029C29.9784 47.485 29.6371 47.299 29.3705 47.0446C29.1112 46.7903 28.9854 46.4616 28.9929 46.0583C28.999 45.7357 29.117 45.5032 29.3471 45.3608C29.4511 45.2894 29.5731 45.2367 29.7131 45.2027C29.8603 45.1761 30.0915 45.1658 30.4068 45.1717L35.5649 45.2683C35.8588 44.8484 36.0922 44.332 36.265 43.7191C36.4453 43.0991 36.5426 42.4078 36.5569 41.6453C36.5694 40.978 36.5061 40.4451 36.3668 40.0464C36.2349 39.6479 36.0423 39.3582 35.789 39.1774C35.543 38.9968 35.2551 38.9034 34.9251 38.8972C34.7345 38.8936 34.5542 38.9233 34.3843 38.9861C34.2146 39.0416 34.0661 39.1378 33.9389 39.2748C33.7891 39.4407 33.6827 39.6367 33.6198 39.8629C33.5569 40.0891 33.5217 40.4002 33.5143 40.7961L33.4486 44.3045L32.5027 44.2868L32.5689 40.7564C32.5756 40.3971 32.563 40.0925 32.531 39.8425C32.4991 39.5852 32.4297 39.3749 32.3228 39.2115C32.2515 39.1002 32.1578 39.0104 32.0418 38.9422C31.9257 38.874 31.7833 38.8383 31.6147 38.8352C31.4461 38.832 31.3025 38.8623 31.1839 38.9261C31.0728 38.9827 30.976 39.0616 30.8934 39.1627C30.7731 39.3218 30.6922 39.5294 30.6507 39.7853C30.6166 40.0414 30.5965 40.3307 30.5905 40.6533L30.5231 44.2497L29.5772 44.232L29.6475 40.4816C29.6575 39.9464 29.7056 39.5365 29.7916 39.2521C29.8777 38.9603 30.0366 38.7029 30.2681 38.4799C30.5818 38.1777 31.01 38.0317 31.5525 38.0419C32.2857 38.0556 32.8072 38.4101 33.1169 39.1054C33.2765 38.8076 33.5121 38.5663 33.8236 38.3815C34.1426 38.1894 34.5403 38.0979 35.0169 38.1068ZM31.9567 47.005C32.5873 47.0168 33.1533 46.9504 33.6547 46.8058C34.1635 46.6613 34.6267 46.4096 35.0441 46.0507L30.293 45.9617C30.205 45.96 30.1168 45.9694 30.0284 45.9897C29.9472 46.0175 29.9054 46.0938 29.9031 46.2184C29.8991 46.431 30.0571 46.61 30.3771 46.7554C30.7043 46.9082 31.1905 46.9907 31.8357 47.0028L31.9567 47.005ZM43.9797 44.6338C43.5397 44.6256 43.1451 44.5485 42.7958 44.4026C42.4465 44.2567 42.1717 44.0462 41.9715 43.7711C41.7713 43.4959 41.6747 43.1677 41.6819 42.7865C41.689 42.4052 41.7906 42.0734 41.9866 41.791C42.1899 41.5087 42.5056 41.2946 42.9338 41.1486L42.9855 38.3881L48.7375 38.4959L48.7226 39.2877L46.666 39.2492L46.6343 40.9429C47.2352 40.9688 47.7651 41.0704 48.2238 41.2477C48.6901 41.4178 49.0517 41.6886 49.3088 42.0602C49.5659 42.4317 49.6887 42.9218 49.6773 43.5304C49.6681 44.0216 49.5688 44.4305 49.3793 44.757C49.1897 45.0908 48.9239 45.3792 48.582 45.6222C48.2179 45.8721 47.7783 46.0399 47.2633 46.1256C46.7555 46.2188 46.1056 46.2579 45.3137 46.2431L44.071 46.2198C43.763 46.214 43.5243 46.2316 43.3549 46.2724C43.1854 46.3132 43.0376 46.3728 42.9114 46.4511C42.7926 46.5296 42.6988 46.6415 42.6301 46.7869C42.5614 46.9323 42.5247 47.126 42.5202 47.368C42.5161 47.5879 42.5234 47.7861 42.5421 47.9625L41.6394 47.9896C41.6199 47.8572 41.6043 47.7102 41.5926 47.5486C41.5809 47.3944 41.5761 47.2549 41.5785 47.1303C41.5845 46.8077 41.6483 46.5338 41.7699 46.3087C41.8913 46.091 42.045 45.9141 42.2309 45.7783C42.4242 45.6425 42.6386 45.5475 42.8744 45.4933C43.1174 45.4391 43.4223 45.4155 43.7889 45.4224L44.9876 45.4448C45.6402 45.4571 46.176 45.4378 46.595 45.3869C47.0139 45.3435 47.3528 45.2655 47.6116 45.1529C47.8703 45.0478 48.0856 44.9051 48.2577 44.725C48.5644 44.408 48.7228 43.9782 48.7329 43.4357C48.741 43.0031 48.6446 42.6675 48.4437 42.4291C48.243 42.1833 47.9785 42.0096 47.6504 41.9081C47.3222 41.8066 46.9786 41.7452 46.6196 41.7238L46.6132 42.0647C46.604 42.556 46.5528 42.9401 46.4596 43.217C46.3738 43.4941 46.2521 43.7266 46.0945 43.9143C45.862 44.1887 45.565 44.3811 45.2035 44.4917C44.8495 44.5951 44.4416 44.6425 43.9797 44.6338ZM43.8395 39.1962L43.8065 40.9559C44.1153 40.9177 44.4566 40.9021 44.8306 40.9091L45.6994 40.9254L45.7312 39.2317L43.8395 39.1962ZM42.6279 42.7932C42.6216 43.1305 42.7561 43.3897 43.0314 43.5709C43.3069 43.7447 43.6572 43.8356 44.0825 43.8436C44.4051 43.8497 44.6809 43.8071 44.91 43.7161C45.1466 43.6178 45.3294 43.4489 45.4586 43.2093C45.5953 42.9625 45.6676 42.6228 45.6757 42.1902L45.685 41.6953L44.7392 41.6775C44.3652 41.6705 44.0459 41.6865 43.7811 41.7256C43.5237 41.7648 43.3023 41.834 43.1171 41.9332C42.7984 42.1106 42.6353 42.3972 42.6279 42.7932ZM46.0355 37.081C45.8229 37.077 45.6481 37.0077 45.5113 36.8732C45.3746 36.7312 45.3083 36.5503 45.3124 36.3303C45.3164 36.1177 45.3894 35.943 45.5313 35.8063C45.6732 35.6696 45.8505 35.6033 46.0631 35.6073C46.2757 35.6112 46.4504 35.6842 46.5871 35.8261C46.7238 35.968 46.7902 36.1453 46.7862 36.3579C46.7821 36.5779 46.709 36.7562 46.5671 36.8929C46.4253 37.0223 46.2481 37.085 46.0355 37.081ZM53.0552 44.8039C52.6153 44.7956 52.2207 44.7185 51.8713 44.5726C51.522 44.4267 51.2472 44.2162 51.047 43.9411C50.8468 43.666 50.7503 43.3378 50.7574 42.9565C50.7646 42.5752 50.8661 42.2434 51.0621 41.961C51.2654 41.6788 51.5812 41.4647 52.0093 41.3187L52.061 38.5581L57.813 38.6659L57.7982 39.4578L55.7416 39.4192L55.7098 41.1129C56.3108 41.1389 56.8406 41.2405 57.2994 41.4178C57.7656 41.5879 58.1273 41.8587 58.3844 42.2302C58.6414 42.6018 58.7643 43.0918 58.7529 43.7004C58.7437 44.1916 58.6443 44.6005 58.4549 44.927C58.2652 45.2609 57.9995 45.5493 57.6575 45.7922C57.2934 46.0421 56.8539 46.2099 56.3388 46.2956C55.831 46.3888 55.1812 46.428 54.3893 46.4131L53.1465 46.3898C52.8386 46.3841 52.5999 46.4016 52.4304 46.4424C52.2609 46.4833 52.1131 46.5428 51.987 46.6212C51.8682 46.6996 51.7744 46.8116 51.7056 46.957C51.6369 47.1024 51.6003 47.296 51.5957 47.538C51.5916 47.758 51.5989 47.9561 51.6176 48.1325L50.7149 48.1596C50.6954 48.0272 50.6798 47.8802 50.6682 47.7187C50.6564 47.5644 50.6517 47.425 50.654 47.3003C50.6601 46.9777 50.7239 46.7039 50.8455 46.4788C50.9669 46.261 51.1206 46.0842 51.3065 45.9483C51.4997 45.8126 51.7142 45.7176 51.9499 45.6633C52.193 45.6092 52.4978 45.5856 52.8644 45.5924L54.0632 45.6149C54.7158 45.6271 55.2515 45.6078 55.6706 45.557C56.0895 45.5135 56.4283 45.4355 56.6871 45.323C56.9458 45.2178 57.1612 45.0752 57.3333 44.895C57.6399 44.578 57.7983 44.1483 57.8085 43.6057C57.8166 43.1731 57.7202 42.8376 57.5193 42.5991C57.3185 42.3533 57.0541 42.1796 56.7259 42.0781C56.3978 41.9766 56.0542 41.9152 55.6952 41.8938L55.6888 42.2347C55.6796 42.726 55.6284 43.1101 55.5352 43.3871C55.4493 43.6642 55.3276 43.8966 55.1701 44.0843C54.9376 44.3587 54.6406 44.5512 54.2791 44.6618C53.9251 44.7651 53.5171 44.8125 53.0552 44.8039ZM52.915 39.3663L52.8821 41.126C53.1909 41.0877 53.5322 41.0721 53.9061 41.0791L54.775 41.0954L54.8067 39.4017L52.915 39.3663ZM51.7035 42.9632C51.6971 43.3005 51.8316 43.5597 52.107 43.7409C52.3824 43.9148 52.7328 44.0057 53.158 44.0136C53.4806 44.0197 53.7565 43.9772 53.9856 43.8861C54.2221 43.7879 54.405 43.6189 54.5342 43.3793C54.6708 43.1325 54.7432 42.7928 54.7513 42.3602L54.7606 41.8653L53.8147 41.8476C53.4408 41.8406 53.1214 41.8566 52.8567 41.8956C52.5992 41.9348 52.3779 42.004 52.1927 42.1032C51.8739 42.2806 51.7109 42.5673 51.7035 42.9632ZM57.8087 35.4863C58.2193 35.494 58.6217 35.5492 59.0158 35.6519C59.41 35.7546 59.7622 35.9446 60.0724 36.2218C60.3466 36.4616 60.5725 36.7373 60.75 37.0486C60.9349 37.3602 61.0708 37.7404 61.1577 38.1895C61.2446 38.6385 61.2818 39.1966 61.2693 39.8639L61.1764 44.824L60.2306 44.8063L60.3217 39.9451C60.3372 39.1166 60.258 38.4477 60.0842 37.9383C59.9177 37.4291 59.6646 37.043 59.3248 36.7799C59.1224 36.6221 58.8935 36.5078 58.6381 36.437C58.3755 36.3587 58.1012 36.3169 57.8153 36.3115C57.1554 36.2992 56.6323 36.4251 56.2459 36.6892C55.8522 36.9532 55.65 37.3748 55.6391 37.9541C55.6321 38.328 55.7096 38.6962 55.8715 39.0586L54.9146 39.0407C54.8442 38.8853 54.789 38.7009 54.749 38.4875C54.709 38.274 54.6907 38.0756 54.6941 37.8923C54.7051 37.3058 54.8606 36.8356 55.1606 36.4818C55.4533 36.1279 55.8359 35.871 56.3083 35.7112C56.7807 35.5514 57.2808 35.4764 57.8087 35.4863ZM64.8772 45.0254C64.4886 45.0181 64.1348 44.9161 63.8157 44.7194C63.4968 44.5154 63.2459 44.2063 63.063 43.7921C62.8874 43.3781 62.8057 42.8412 62.8181 42.1813C62.8328 41.3968 62.9991 40.7434 63.3169 40.2213C63.6421 39.6993 64.0638 39.3111 64.5819 39.0568C65.1001 38.8024 65.6598 38.6809 66.2611 38.6922C67.0089 38.7062 67.6112 38.8605 68.0677 39.1551C68.5243 39.4497 68.8544 39.8373 69.0581 40.3178C69.2693 40.7912 69.3694 41.3175 69.3586 41.8967C69.3498 42.366 69.2906 42.783 69.1811 43.1476C69.0716 43.5123 68.9405 43.8546 68.7878 44.1745L71.7243 44.2295L71.8236 38.9284L72.7695 38.9461L72.6553 45.0391L67.8052 44.9482L67.7741 44.2545C67.9476 44.001 68.0891 43.6883 68.1988 43.3163C68.3159 42.9371 68.3791 42.4982 68.3885 41.9996C68.4032 41.2151 68.2129 40.6064 67.8176 40.1736C67.4223 39.7408 66.8837 39.518 66.2018 39.5052C65.5273 39.4926 64.9735 39.6912 64.5404 40.1012C64.1148 40.5039 63.8482 41.0307 63.7406 41.6815C63.9336 41.5604 64.1444 41.4653 64.3731 41.3963C64.6019 41.3199 64.8373 41.2839 65.0792 41.2885C65.6071 41.2984 66.0294 41.4676 66.3459 41.7963C66.6698 42.1251 66.8266 42.5644 66.8163 43.1143C66.8049 43.7229 66.6237 44.1963 66.2726 44.5344C65.9289 44.8727 65.4638 45.0363 64.8772 45.0254ZM64.9108 42.0555C64.6909 42.0513 64.4774 42.095 64.2703 42.1865C64.0633 42.2706 63.8704 42.388 63.6916 42.5387C63.7091 43.1698 63.8364 43.6159 64.0736 43.8771C64.3107 44.1383 64.5979 44.272 64.9352 44.2783C65.2211 44.2837 65.4538 44.1963 65.6332 44.0163C65.8128 43.829 65.9058 43.5594 65.9124 43.2074C65.9193 42.8408 65.8292 42.5604 65.6421 42.3662C65.4552 42.1647 65.2114 42.0611 64.9108 42.0555ZM72.3665 35.759C73.2903 35.7763 74.0481 36.0436 74.6399 36.5607C74.842 36.7332 75.0177 36.9492 75.1668 37.2087C75.3235 37.461 75.442 37.7897 75.5224 38.1946C75.6103 38.5923 75.6485 39.0991 75.637 39.715L75.5362 45.093L74.5904 45.0753L74.6854 40.0052C74.6962 39.426 74.672 38.9561 74.6127 38.5956C74.561 38.2279 74.4747 37.9366 74.3541 37.7216C74.2409 37.4994 74.1013 37.3135 73.9355 37.1637C73.7337 36.9692 73.4944 36.8253 73.2174 36.7321C72.9404 36.6389 72.659 36.5896 72.373 36.5843C71.7791 36.5732 71.3145 36.7111 70.979 36.9982C70.6436 37.2853 70.4712 37.6782 70.4619 38.1768C70.452 38.7047 70.58 39.1141 70.8459 39.4052C71.112 39.6889 71.4753 39.8717 71.9358 39.9537L71.9212 40.7345C71.4676 40.6747 71.0557 40.5386 70.6856 40.3263C70.3155 40.114 70.0276 39.8262 69.8217 39.463C69.6084 39.0996 69.5066 38.6613 69.5162 38.148C69.5264 37.6055 69.6632 37.157 69.9265 36.8025C70.1825 36.4479 70.5249 36.1829 70.9536 36.0076C71.3823 35.8323 71.8532 35.7494 72.3665 35.759ZM77.4688 45.1292L77.5829 39.0363L78.5288 39.054L78.4294 44.3551L83.9505 44.4585L83.9356 45.2504L77.4688 45.1292ZM86.8626 45.4373C86.474 45.43 86.1202 45.328 85.8011 45.1313C85.4822 44.9273 85.2313 44.6182 85.0484 44.2041C84.8728 43.79 84.7911 43.2531 84.8035 42.5932C84.8182 41.8087 84.9845 41.1553 85.3023 40.6332C85.6275 40.1112 86.0492 39.723 86.5673 39.4687C87.0855 39.2143 87.6452 39.0928 88.2465 39.1041C88.9943 39.1181 89.5966 39.2724 90.0531 39.567C90.5097 39.8616 90.8398 40.2492 91.0435 40.7298C91.2547 41.2031 91.3548 41.7294 91.344 42.3087C91.3352 42.7779 91.276 43.1949 91.1665 43.5596C91.057 43.9242 90.9259 44.2665 90.7732 44.5864L93.7097 44.6414L93.809 39.3403L94.7549 39.358L94.5824 48.5634L93.6366 48.5457L93.6949 45.4332L89.7906 45.3601L89.7595 44.6664C89.933 44.4129 90.0745 44.1002 90.1842 43.7282C90.3013 43.349 90.3645 42.9101 90.3739 42.4115C90.3886 41.627 90.1983 41.0183 89.803 40.5855C89.4077 40.1527 88.8691 39.9299 88.1872 39.9171C87.5127 39.9045 86.9589 40.1031 86.5258 40.5131C86.1002 40.9159 85.8336 41.4426 85.726 42.0934C85.919 41.9723 86.1298 41.8772 86.3585 41.8082C86.5873 41.7318 86.8227 41.6959 87.0646 41.7004C87.5925 41.7103 88.0148 41.8796 88.3313 42.2082C88.6552 42.537 88.812 42.9763 88.8017 43.5263C88.7903 44.1348 88.6091 44.6082 88.258 44.9463C87.9143 45.2846 87.4492 45.4483 86.8626 45.4373ZM86.8962 42.4674C86.6763 42.4632 86.4627 42.5069 86.2557 42.5984C86.0487 42.6825 85.8558 42.7999 85.677 42.9506C85.6945 43.5817 85.8218 44.0279 86.059 44.289C86.2961 44.5502 86.5833 44.6839 86.9206 44.6902C87.2065 44.6956 87.4392 44.6083 87.6186 44.4282C87.7982 44.2409 87.8912 43.9713 87.8978 43.6193C87.9047 43.2527 87.8146 42.9723 87.6275 42.7781C87.4406 42.5766 87.1968 42.473 86.8962 42.4674ZM102.103 39.3637C102.653 39.374 103.102 39.5254 103.448 39.818C103.795 40.1032 104.048 40.5003 104.207 41.0094C104.366 41.5111 104.44 42.0919 104.427 42.7518C104.418 43.2651 104.355 43.704 104.238 44.0685C104.121 44.433 103.939 44.7304 103.693 44.9604C103.432 45.2049 103.113 45.3713 102.737 45.4596C102.369 45.5481 101.869 45.5864 101.239 45.5746L96.5758 45.4872L96.6899 39.3943L97.6357 39.412L97.5364 44.7131L100.022 44.7596L100.08 41.6472C100.089 41.1926 100.136 40.8341 100.221 40.5717C100.315 40.302 100.443 40.0771 100.608 39.8968C100.78 39.7166 100.985 39.5811 101.221 39.4902C101.457 39.3993 101.752 39.3571 102.103 39.3637ZM102.067 40.1551C101.942 40.1528 101.821 40.1725 101.702 40.2143C101.584 40.2488 101.484 40.3093 101.402 40.3957C101.282 40.5255 101.191 40.6888 101.129 40.8857C101.067 41.0752 101.031 41.3973 101.023 41.8519L100.968 44.7774L101.485 44.7871C101.983 44.7964 102.373 44.734 102.654 44.5999C102.936 44.4658 103.138 44.2423 103.261 43.9292C103.384 43.6161 103.451 43.1993 103.461 42.6787C103.469 42.2094 103.426 41.7869 103.33 41.411C103.242 41.0353 103.094 40.7355 102.885 40.5115C102.684 40.2804 102.411 40.1616 102.067 40.1551ZM100.477 38.101C100.264 38.097 100.089 38.0277 99.9526 37.8931C99.8159 37.7512 99.7496 37.5703 99.7537 37.3503C99.7577 37.1377 99.8307 36.963 99.9726 36.8263C100.115 36.6896 100.292 36.6233 100.504 36.6273C100.717 36.6312 100.892 36.7042 101.028 36.8461C101.165 36.988 101.231 37.1653 101.227 37.3779C101.223 37.5979 101.15 37.7762 101.008 37.9129C100.867 38.0423 100.689 38.105 100.477 38.101ZM107.148 37.8024L107.09 40.9479C107.086 41.1128 107.08 41.2741 107.069 41.4316C107.059 41.5891 107.047 41.7484 107.033 41.9095C107.019 42.0669 107.001 42.2298 106.98 42.3981C106.962 42.5628 106.94 42.7402 106.915 42.9304L106.255 42.9181C106.237 42.727 106.22 42.5489 106.204 42.3835C106.193 42.2146 106.183 42.0513 106.175 41.8934C106.167 41.7319 106.161 41.5723 106.157 41.4145C106.152 41.2567 106.152 41.0953 106.155 40.9304L106.214 37.7849L107.148 37.8024ZM105.841 45.0557C105.843 44.9604 105.861 44.8709 105.895 44.7872C105.934 44.7035 105.984 44.6312 106.048 44.57C106.111 44.5088 106.184 44.4607 106.265 44.4255C106.35 44.3905 106.442 44.3738 106.541 44.3757C106.637 44.3775 106.724 44.3975 106.804 44.4356C106.888 44.4739 106.96 44.5247 107.021 44.5882C107.082 44.6517 107.131 44.726 107.166 44.811C107.201 44.896 107.217 44.9861 107.216 45.0815C107.214 45.1804 107.194 45.2717 107.155 45.3554C107.117 45.4353 107.066 45.5059 107.003 45.5671C106.939 45.6282 106.865 45.6745 106.78 45.7059C106.699 45.7411 106.611 45.7577 106.515 45.756C106.416 45.7541 106.325 45.7341 106.241 45.6958C106.161 45.6613 106.091 45.6123 106.03 45.5488C105.968 45.4853 105.92 45.4129 105.885 45.3316C105.854 45.2466 105.839 45.1547 105.841 45.0557Z" fill="#BF2828"></path><defs><clipPath id="clip0"><rect width="140.352" height="92.8132" fill="white" transform="translate(37.011 68.1875)"></rect></clipPath></defs></svg>