<svg xmlns="http://www.w3.org/2000/svg" width="250" height="230" viewBox="0 0 250 230" fill="none"><mask id="mask0" maskUnits="userSpaceOnUse" x="0" y="0" width="250" height="230"><rect width="250" height="230" fill="#F9F9F9"></rect></mask><g mask="url(#mask0)"><path fill-rule="evenodd" clip-rule="evenodd" d="M16.2328 138.944C3.65058 103.303 -3.80335 60.7379 19.8104 31.2272C42.8555 2.42714 85.2675 9.02275 122.077 6.6685C161.003 4.17883 206.394 -11.1389 232.763 17.6072C259.481 46.7341 249.884 93.4788 235.467 130.281C224.094 159.313 194.322 172.24 166.598 186.507C139.472 200.466 111.645 218.169 82.5571 208.968C50.3088 198.768 27.4927 170.84 16.2328 138.944Z" fill="#D2F8FD"></path><path d="M216.318 108.769H201.059V153.981H216.318V108.769Z" fill="#FE8618"></path><path d="M201.058 108.768H140.021V153.981H201.058V108.768Z" fill="#FEA829"></path><path d="M216.882 153.982H201.482C203.177 153.982 204.449 155.253 204.449 156.949V161.187C204.449 169.665 197.526 176.447 189.19 176.447H204.449C212.926 176.447 219.708 169.524 219.708 161.187V156.949C219.85 155.253 218.437 153.982 216.882 153.982Z" fill="#FE8618"></path><path d="M204.591 161.187V156.949C204.591 155.253 203.319 153.982 201.623 153.982H139.597C137.901 153.982 136.63 155.253 136.63 156.949V161.187C136.63 169.665 143.553 176.447 151.889 176.447H189.19C197.667 176.447 204.591 169.665 204.591 161.187Z" fill="#FEA829"></path><path d="M188.342 47.3074L182.266 42.6448H158.954L152.878 47.3074C150.617 49.0028 149.205 51.4048 148.639 54.0893H192.439C191.874 51.4048 190.461 49.0028 188.342 47.3074Z" fill="#CEECFC"></path><path d="M197.526 78.9561L192.864 71.7503C190.886 68.7832 190.462 64.9684 191.733 61.5774L192.157 60.3058C192.864 58.1865 193.005 56.0671 192.581 53.9478H162.627C160.791 55.6432 160.226 58.469 161.215 60.7297C161.638 61.86 161.921 62.5665 161.921 63.2729C162.062 64.6858 160.932 66.0987 159.519 66.24C159.378 66.24 159.378 66.24 159.237 66.24C157.965 66.24 156.693 65.251 156.552 63.8381C156.552 63.8381 156.411 63.5555 156.269 62.9903C154.998 60.1645 154.998 56.9148 156.269 54.089H148.781C148.357 56.2084 148.498 58.3278 149.205 60.4471L149.629 61.7187C150.9 65.1097 150.477 68.9245 148.498 71.8916L143.836 79.0974C139.032 86.3032 136.489 94.7807 136.489 103.541V105.801C136.489 107.497 137.76 108.768 139.456 108.768H201.624C203.319 108.768 204.591 107.497 204.591 105.801V103.541C204.732 94.7807 202.189 86.3032 197.526 78.9561ZM158.53 77.2607L153.867 84.4665C150.618 89.5529 148.781 95.3458 148.357 101.139C148.216 102.552 147.086 103.682 145.673 103.682H145.531C144.118 103.541 142.988 102.269 142.988 100.856C143.412 94.0742 145.673 87.4336 149.346 81.6407L154.009 74.4348C154.857 73.1632 156.411 72.8807 157.682 73.5871C158.954 74.4348 159.378 76.1303 158.53 77.2607Z" fill="#FEA829"></path><path d="M163.193 53.3828L164.606 52.3937C165.736 51.546 166.019 49.8505 165.171 48.7202C164.323 47.5899 162.628 47.3073 161.498 48.155L160.085 49.1441C158.248 50.4157 156.976 52.1112 156.27 54.0892H162.628C162.769 53.8066 163.052 53.6653 163.193 53.3828Z" fill="#F7FBFE"></path><path d="M156.27 62.9903C156.552 63.5555 156.552 63.8381 156.552 63.8381C156.694 65.251 157.824 66.24 159.237 66.24C159.378 66.24 159.378 66.24 159.52 66.24C160.932 66.0987 162.063 64.8271 161.921 63.2729C161.921 62.5665 161.639 61.86 161.215 60.7297C160.226 58.469 160.791 55.7845 162.628 53.9478H156.27C154.998 56.7736 154.998 60.0232 156.27 62.9903Z" fill="#FFE3BA"></path><path d="M157.682 73.587C156.41 72.7393 154.856 73.1632 154.008 74.4348L149.346 81.6406C145.672 87.4335 143.553 94.0741 143.129 100.856C142.988 102.269 144.118 103.541 145.672 103.682H145.814C147.227 103.682 148.357 102.552 148.498 101.139C148.922 95.2045 150.759 89.5528 154.008 84.4664L158.671 77.2606C159.377 76.1303 158.954 74.4348 157.682 73.587Z" fill="#FFE3BA"></path><path d="M216.318 108.768H140.021V112.301H216.318V108.768Z" fill="#FE8618"></path><path d="M216.318 150.449H140.021V153.981H216.318V150.449Z" fill="#FECF3F"></path><path d="M216.318 117.529H201.059V145.08H216.318V117.529Z" fill="#EE1E1D"></path><path d="M201.058 117.529H140.021V145.08H201.058V117.529Z" fill="#FF3D3D"></path><path d="M155.422 117.529C155.422 126.006 148.64 132.788 140.162 132.788V117.529H155.422Z" fill="#EE1E1D"></path><path d="M194.701 128.69H161.639C160.65 128.69 159.661 127.842 159.661 126.712C159.661 125.723 160.509 124.734 161.639 124.734H194.701C195.69 124.734 196.679 125.582 196.679 126.712C196.679 127.842 195.831 128.69 194.701 128.69Z" fill="white"></path><path d="M167.856 137.45H161.639C160.65 137.45 159.661 136.602 159.661 135.472C159.661 134.483 160.509 133.494 161.639 133.494H167.856C168.845 133.494 169.834 134.342 169.834 135.472C169.834 136.602 168.987 137.45 167.856 137.45Z" fill="white"></path><path d="M194.701 137.45H177.604C176.615 137.45 175.626 136.602 175.626 135.472C175.626 134.483 176.474 133.494 177.604 133.494H194.701C195.69 133.494 196.679 134.342 196.679 135.472C196.679 136.602 195.831 137.45 194.701 137.45Z" fill="white"></path><path d="M203.602 47.3074L197.526 42.6448H182.125L188.201 47.3074C190.462 49.0028 191.875 51.4048 192.44 54.0893H207.699C207.275 51.4048 205.862 49.0028 203.602 47.3074Z" fill="#B0E2FC"></path><path d="M208.122 71.7511C206.144 68.784 205.72 64.9691 206.992 61.5782L207.416 60.3066C208.122 58.1872 208.263 56.0678 207.839 53.9485H192.439C192.863 56.0678 192.721 58.1872 192.015 60.3066L191.591 61.5782C190.319 64.9691 190.885 68.784 192.721 71.7511L197.384 78.9569C202.047 86.304 204.59 94.7814 204.59 103.4V105.661C204.59 107.356 203.318 108.628 201.623 108.628H217.023C218.719 108.628 219.99 107.356 219.99 105.661V103.4C219.99 94.7814 217.447 86.1627 212.785 78.9569L208.122 71.7511Z" fill="#FE8618"></path><path d="M197.387 35.0146H158.956V42.503H197.387V35.0146Z" fill="#8FCCF6"></path><path d="M195.267 21.875H161.216C158.39 21.875 156.129 24.1356 156.129 26.9615V36.1453C156.129 37.8408 157.401 39.1124 159.096 39.1124H197.527C199.223 39.1124 200.494 37.8408 200.494 36.1453V26.9615C200.494 24.1356 198.234 21.875 195.267 21.875Z" fill="#FF3D3D"></path><path d="M169.411 35.58C168.564 35.58 167.857 34.8736 167.857 34.0258V27.2439C167.857 26.3961 168.564 25.6897 169.411 25.6897C170.259 25.6897 170.966 26.3961 170.966 27.2439V34.0258C170.966 34.8736 170.259 35.58 169.411 35.58Z" fill="#EE1E1D"></path><path d="M160.651 35.58C159.803 35.58 159.097 34.8736 159.097 34.0258V27.2439C159.097 26.3961 159.803 25.6897 160.651 25.6897C161.499 25.6897 162.205 26.3961 162.205 27.2439V34.0258C162.205 34.8736 161.499 35.58 160.651 35.58Z" fill="#EE1E1D"></path><path d="M178.172 35.58C177.324 35.58 176.617 34.8736 176.617 34.0258V27.2439C176.617 26.3961 177.324 25.6897 178.172 25.6897C179.019 25.6897 179.726 26.3961 179.726 27.2439V34.0258C179.867 34.8736 179.161 35.58 178.172 35.58Z" fill="#EE1E1D"></path><path d="M187.073 35.58C186.225 35.58 185.518 34.8736 185.518 34.0258V27.2439C185.518 26.3961 186.225 25.6897 187.073 25.6897C187.92 25.6897 188.627 26.3961 188.627 27.2439V34.0258C188.627 34.8736 187.92 35.58 187.073 35.58Z" fill="#EE1E1D"></path><path d="M195.833 35.58C194.985 35.58 194.279 34.8736 194.279 34.0258V27.2439C194.279 26.3961 194.985 25.6897 195.833 25.6897C196.681 25.6897 197.387 26.3961 197.387 27.2439V34.0258C197.528 34.8736 196.822 35.58 195.833 35.58Z" fill="#EE1E1D"></path><path d="M75.4205 167.981H97.2737V165.404H75.4205V167.981Z" fill="#FF3D3D"></path><path d="M25.4053 167.981H47.2584V165.404H25.4053V167.981Z" fill="#E92B40"></path><path d="M22.0851 170.122H95.2288C96.2572 170.122 97.0285 169.22 97.0285 168.319C97.0285 167.288 96.2572 166.515 95.2288 166.515H22.0851C21.0567 166.515 20.2854 167.288 20.2854 168.319C20.2854 169.349 21.0567 170.122 22.0851 170.122Z" fill="#FFE600"></path><path d="M21.4424 175.017H98.4426C99.7281 175.017 100.885 173.858 100.885 172.57C100.885 171.281 99.7281 170.122 98.4426 170.122H21.4424C20.1569 170.122 19 171.281 19 172.57C19 173.986 20.0284 175.017 21.4424 175.017Z" fill="#C53E33"></path><path d="M99.8569 175.017L99.9854 180.685C99.9854 181.715 99.0856 182.617 98.0572 182.617H30.0554C26.0704 182.617 22.7281 179.397 22.7281 175.274C22.7281 175.017 22.7281 175.274 22.7281 175.017H99.8569Z" fill="#EE8B42"></path><path d="M22.599 166.516H97.928C98.9564 166.516 99.8563 165.614 99.8563 164.583V146.936C99.8563 145.905 98.9564 145.004 97.928 145.004H44.9663C44.0665 145.004 43.2952 145.004 42.3954 145.132C31.5974 146.421 23.1132 155.438 22.599 166.516Z" fill="#EE8B3A"></path><path d="M78.1317 155.824C78.3888 156.855 79.8029 157.241 80.5741 156.468L92.0149 145.004H79.2887C77.3604 148.353 76.9748 152.346 78.1317 155.824Z" fill="#E58935"></path><path d="M59.7489 155.824C60.006 156.855 61.42 157.241 62.1913 156.468L73.6321 145.004H60.9059C59.1062 148.353 58.7205 152.217 59.7489 155.824Z" fill="#E16B2E"></path><path d="M41.4954 155.824C41.7525 156.855 43.1665 157.241 43.9378 156.468L55.3786 145.004H45.0948C44.1949 145.004 43.4236 145.004 42.5238 145.132C40.7241 148.482 40.467 152.346 41.4954 155.824Z" fill="#E16B2E"></path><path d="M96.771 148.224C97.2852 148.739 97.928 148.868 98.1851 148.61C98.4422 148.353 98.3136 147.709 97.7994 147.193C97.2852 146.678 96.6425 146.549 96.3854 146.807C96.1283 147.065 96.2568 147.709 96.771 148.224Z" fill="#FBC890"></path><path d="M94.7144 152.474C95.2286 152.99 95.8713 153.119 96.1284 152.861C96.3855 152.603 96.257 151.959 95.7428 151.444C95.2286 150.929 94.5858 150.8 94.3287 151.058C94.0716 151.315 94.2002 151.959 94.7144 152.474Z" fill="#FBC890"></path><path d="M75.1751 157.885C75.6893 158.4 76.332 158.529 76.5891 158.271C76.8462 158.013 76.7177 157.369 76.2035 156.854C75.6893 156.339 75.0465 156.21 74.7894 156.468C74.4038 156.725 74.6609 157.369 75.1751 157.885Z" fill="#FBC890"></path><path d="M52.4218 151.702C52.936 152.217 53.5787 152.346 53.8358 152.088C54.0929 151.831 53.9644 151.187 53.4502 150.671C52.936 150.156 52.2932 150.027 52.0361 150.285C51.779 150.542 51.9076 151.187 52.4218 151.702Z" fill="#FBC890"></path><path d="M34.1685 151.444C34.6827 151.959 35.3254 152.088 35.5825 151.831C35.8396 151.573 35.7111 150.929 35.1969 150.414C34.6827 149.898 34.0399 149.77 33.7828 150.027C33.3972 150.285 33.6543 150.929 34.1685 151.444Z" fill="#FBC890"></path><path d="M32.7539 157.37C33.2681 157.885 33.9109 158.014 34.168 157.756C34.4251 157.498 34.2965 156.854 33.7823 156.339C33.2681 155.824 32.6254 155.695 32.3683 155.953C32.1112 156.339 32.2397 156.854 32.7539 157.37Z" fill="#FBC890"></path><path d="M39.6958 159.173C40.21 159.688 40.8527 159.817 41.1098 159.559C41.3669 159.302 41.2384 158.657 40.7242 158.142C40.21 157.627 39.5672 157.498 39.3102 157.756C39.0531 158.013 39.3102 158.657 39.6958 159.173Z" fill="#FBC890"></path><path d="M51.3936 157.112C51.9078 157.627 52.5505 157.756 52.8076 157.498C53.0647 157.241 52.9362 156.597 52.422 156.081C51.9078 155.566 51.265 155.437 51.0079 155.695C50.7508 156.081 50.8794 156.725 51.3936 157.112Z" fill="#FBC890"></path><path d="M68.8758 156.726C69.39 157.241 70.0328 157.37 70.2899 157.112C70.547 156.855 70.4184 156.21 69.9042 155.695C69.39 155.18 68.7473 155.051 68.4902 155.309C68.2331 155.566 68.4902 156.21 68.8758 156.726Z" fill="#FBC890"></path><path d="M75.0465 147.58C75.5607 148.095 76.2035 148.224 76.4606 147.966C76.7177 147.709 76.5891 147.064 76.0749 146.549C75.5607 146.034 74.918 145.905 74.6609 146.163C74.2753 146.42 74.5324 147.064 75.0465 147.58Z" fill="#FBC890"></path><path d="M85.3303 154.922C85.8445 155.437 86.4873 155.566 86.7443 155.309C87.0014 155.051 86.8729 154.407 86.3587 153.892C85.8445 153.376 85.2018 153.248 84.9447 153.505C84.6876 153.763 84.9447 154.407 85.3303 154.922Z" fill="#FBC890"></path><path d="M88.6726 158.658C89.1868 159.173 89.8296 159.302 90.0867 159.044C90.3438 158.786 90.2152 158.142 89.701 157.627C89.1868 157.112 88.5441 156.983 88.287 157.241C88.0299 157.498 88.1584 158.142 88.6726 158.658Z" fill="#FBC890"></path><path d="M93.3 147.58C92.7858 148.095 92.1431 148.224 91.886 147.966C91.6289 147.709 91.7574 147.064 92.2716 146.549C92.7858 146.034 93.4286 145.905 93.6857 146.163C93.9428 146.42 93.6857 147.064 93.3 147.58Z" fill="#FBC890"></path><path d="M91.115 152.861C90.6008 153.376 89.958 153.505 89.7009 153.248C89.4438 152.99 89.5724 152.346 90.0866 151.831C90.6008 151.315 91.2435 151.187 91.5006 151.444C91.8863 151.702 91.6292 152.346 91.115 152.861Z" fill="#FBC890"></path><path d="M95.7428 157.885C95.2286 158.4 94.5858 158.529 94.3287 158.271C94.0716 158.013 94.2002 157.369 94.7144 156.854C95.2286 156.339 95.8713 156.21 96.1284 156.468C96.3855 156.725 96.257 157.369 95.7428 157.885Z" fill="#FBC890"></path><path d="M74.9182 152.474C74.404 152.99 73.7613 153.119 73.5042 152.861C73.2471 152.603 73.3756 151.959 73.8898 151.444C74.404 150.929 75.0467 150.8 75.3038 151.058C75.6895 151.315 75.4324 151.959 74.9182 152.474Z" fill="#FBC890"></path><path d="M57.4354 148.224C56.9212 148.739 56.2785 148.868 56.0214 148.61C55.7643 148.353 55.8928 147.709 56.407 147.193C56.9212 146.678 57.5639 146.549 57.821 146.807C58.0781 147.065 57.9496 147.709 57.4354 148.224Z" fill="#FBC890"></path><path d="M48.5658 155.695C48.0516 156.21 47.4088 156.339 47.1517 156.082C46.8946 155.824 47.0232 155.18 47.5374 154.665C48.0516 154.149 48.6943 154.021 48.9514 154.278C49.2085 154.536 49.08 155.18 48.5658 155.695Z" fill="#FBC890"></path><path d="M56.7927 154.15C56.2785 154.665 55.6358 154.794 55.3787 154.536C55.1216 154.278 55.2501 153.634 55.7643 153.119C56.2785 152.604 56.9212 152.475 57.1783 152.733C57.564 153.119 57.3069 153.763 56.7927 154.15Z" fill="#FBC890"></path><path d="M38.6673 148.61C38.1531 149.125 37.5104 149.254 37.2533 148.997C36.9962 148.739 37.1248 148.095 37.6389 147.58C38.1531 147.064 38.7959 146.936 39.053 147.193C39.3101 147.451 39.1815 148.095 38.6673 148.61Z" fill="#FBC890"></path><path d="M31.3402 153.892C30.826 154.407 30.1833 154.536 29.9262 154.278C29.6691 154.021 29.7976 153.376 30.3118 152.861C30.826 152.346 31.4687 152.217 31.7258 152.475C31.9829 152.732 31.8544 153.376 31.3402 153.892Z" fill="#FBC890"></path><path d="M38.6673 154.278C38.1531 154.793 37.5104 154.922 37.2533 154.664C36.9962 154.407 37.1248 153.763 37.6389 153.247C38.1531 152.732 38.7959 152.603 39.053 152.861C39.3101 153.119 39.1815 153.763 38.6673 154.278Z" fill="#FBC890"></path><path d="M70.5473 152.217C70.0331 152.732 69.3904 152.861 69.1333 152.603C68.8762 152.346 69.0048 151.702 69.519 151.186C70.0331 150.671 70.6759 150.542 70.933 150.8C71.1901 151.058 71.0615 151.702 70.5473 152.217Z" fill="#FBC890"></path><path d="M65.1482 157.885C64.634 158.4 63.9912 158.529 63.7341 158.271C63.477 158.013 63.6056 157.369 64.1198 156.854C64.634 156.339 65.2767 156.21 65.5338 156.468C65.9195 156.725 65.6624 157.369 65.1482 157.885Z" fill="#FBC890"></path><path d="M114.511 19.5391C124.667 32.8069 131.48 56.6375 131.48 83.6884C131.48 125.424 115.411 159.173 95.7435 159.173C90.9872 159.173 86.4881 157.241 82.246 153.634C87.7735 160.848 94.2009 164.97 101.143 164.97C120.939 164.97 136.879 131.221 136.879 89.485C136.75 57.7968 127.495 30.7459 114.511 19.5391Z" fill="#E16B2E"></path><path d="M131.351 83.6883C131.351 56.6374 124.538 32.8068 114.382 19.539C110.269 15.9322 105.77 14 101.014 14C81.2172 14 65.2772 47.7492 65.2772 89.485C65.2772 116.536 72.0903 140.366 82.2455 153.634C86.3591 157.241 90.9868 159.173 95.7431 159.173C115.411 159.302 131.351 125.424 131.351 83.6883Z" fill="#EE8B3A"></path><path d="M94.7149 52.7733C105.127 46.0749 115.154 43.1122 117.211 46.2038C119.268 49.2953 112.454 57.2818 101.914 63.9801C91.3726 70.6784 81.4745 73.6411 79.4177 70.5496C77.4895 67.4581 84.3025 59.4716 94.7149 52.7733Z" fill="#E16B2E"></path><path d="M95.3574 31.5184C103.842 25.9794 112.069 23.6608 113.74 26.1082C115.411 28.6845 109.755 35.1252 101.271 40.6642C92.7864 46.2032 84.5594 48.5219 82.8882 46.0744C81.2171 43.4981 86.8732 37.0574 95.3574 31.5184Z" fill="#E16B2E"></path><path d="M146.648 75.1863L140.092 80.7253L133.665 75.1863L126.852 182.746H133.151L146.648 75.1863Z" fill="#FEAE4E"></path><path d="M127.108 80.7258L120.553 75.1868L113.997 80.7258L107.569 75.1868L101.013 80.7258L94.4573 75.1868L87.9014 80.7258L81.474 75.1868L74.9181 80.7258L68.3621 75.1868L61.8062 80.7258L55.3788 75.1868L69.2619 182.746H126.851L133.664 75.1868L127.108 80.7258Z" fill="#FEBD6F"></path><path d="M107.056 120.142C107.056 124.136 107.827 127.485 111.941 127.485H113.226V176.563C113.226 179.912 115.926 182.746 119.396 182.746H163.103C166.445 182.746 169.273 180.041 169.273 176.563V127.485H170.558C174.543 127.485 177.886 124.264 177.886 120.142C177.886 116.149 174.672 112.8 170.558 112.8H111.941C107.956 112.8 107.056 116.149 107.056 120.142Z" fill="#BA482A"></path><path d="M76.5896 120.143C76.5896 124.136 79.8033 127.485 83.9168 127.485H85.2023V176.563C85.2023 179.912 87.9018 182.746 91.3726 182.746H131.222C134.565 182.746 137.393 180.041 137.393 176.563V127.485H138.678C142.663 127.485 146.005 124.265 146.005 120.143C146.005 116.149 142.792 112.8 138.678 112.8H83.9168C79.8033 112.8 76.5896 116.149 76.5896 120.143Z" fill="#E16B2E"></path><path d="M91.2444 178.495C90.216 178.495 89.3162 177.594 89.3162 176.563V123.234H83.9172C82.2461 123.234 80.832 121.817 80.832 120.143C80.832 118.468 82.2461 117.051 83.9172 117.051H138.55C140.221 117.051 141.635 118.468 141.635 120.143C141.635 121.817 140.221 123.234 138.55 123.234H133.151V176.563C133.151 177.594 132.251 178.495 131.223 178.495H91.2444Z" fill="#EE8B42"></path><path d="M98.8285 133.539C99.9644 133.539 100.885 132.616 100.885 131.478C100.885 130.34 99.9644 129.417 98.8285 129.417C97.6926 129.417 96.7717 130.34 96.7717 131.478C96.7717 132.616 97.6926 133.539 98.8285 133.539Z" fill="#E16B2E"></path><path d="M126.081 167.417C126.081 168.576 125.181 169.478 124.024 169.478C122.867 169.478 121.967 168.576 121.967 167.417C121.967 166.258 122.867 165.356 124.024 165.356C125.181 165.356 126.081 166.258 126.081 167.417Z" fill="#E16B2E"></path><path d="M120.424 157.241C121.205 157.241 121.838 156.607 121.838 155.824C121.838 155.042 121.205 154.407 120.424 154.407C119.643 154.407 119.01 155.042 119.01 155.824C119.01 156.607 119.643 157.241 120.424 157.241Z" fill="#E16B2E"></path><path d="M96.6434 155.18C96.6434 155.953 96.0006 156.597 95.2293 156.597C94.458 156.597 93.8153 155.953 93.8153 155.18C93.8153 154.407 94.458 153.763 95.2293 153.763C96.1292 153.892 96.6434 154.536 96.6434 155.18Z" fill="#E16B2E"></path><path d="M123.124 138.048C124.686 138.048 125.952 136.779 125.952 135.214C125.952 133.649 124.686 132.38 123.124 132.38C121.562 132.38 120.296 133.649 120.296 135.214C120.296 136.779 121.562 138.048 123.124 138.048Z" fill="#E16B2E"></path><path d="M102.814 152.346C104.376 152.346 105.642 151.077 105.642 149.512C105.642 147.947 104.376 146.678 102.814 146.678C101.252 146.678 99.9857 147.947 99.9857 149.512C99.9857 151.077 101.252 152.346 102.814 152.346Z" fill="#E16B2E"></path><path d="M115.925 173.858C117.487 173.858 118.753 172.589 118.753 171.024C118.753 169.459 117.487 168.19 115.925 168.19C114.363 168.19 113.097 169.459 113.097 171.024C113.097 172.589 114.363 173.858 115.925 173.858Z" fill="#E16B2E"></path><path d="M111.298 123.491C111.298 124.264 110.655 124.908 109.884 124.908C109.112 124.908 108.47 124.264 108.47 123.491C108.47 122.719 109.112 122.074 109.884 122.074C110.655 122.074 111.298 122.719 111.298 123.491Z" fill="#E16B2E"></path><path d="M102.042 167.804C102.042 168.963 101.142 169.865 99.9854 169.865C98.8284 169.865 97.9286 168.963 97.9286 167.804C97.9286 166.644 98.8284 165.743 99.9854 165.743C101.142 165.614 102.042 166.644 102.042 167.804Z" fill="#E16B2E"></path><path fill-rule="evenodd" clip-rule="evenodd" d="M157.254 152.249C162.774 136.8 178.322 127.147 191.937 130.717C205.552 134.286 212.052 149.719 206.531 165.169C201.01 180.618 185.539 190.291 171.924 186.721C158.309 183.152 151.733 167.699 157.254 152.249Z" fill="#AA7733"></path><path fill-rule="evenodd" clip-rule="evenodd" d="M162.108 152.447C162.704 150.779 164.367 149.679 165.914 150.085C167.384 150.47 168.151 152.111 167.524 153.867C166.928 155.535 165.265 156.636 163.718 156.23C162.171 155.824 161.512 154.115 162.108 152.447Z" fill="#95591E"></path><path fill-rule="evenodd" clip-rule="evenodd" d="M156.068 157.036C156.663 155.37 158.293 154.358 159.762 154.743C161.231 155.128 161.998 156.768 161.371 158.523C160.775 160.189 159.114 161.288 157.568 160.883C156.13 160.41 155.472 158.703 156.068 157.036Z" fill="#95591E"></path><path fill-rule="evenodd" clip-rule="evenodd" d="M159.95 145.092C159.354 146.76 160.012 148.469 161.559 148.875C163.029 149.26 164.738 148.268 165.365 146.512C165.961 144.844 165.303 143.135 163.755 142.729C162.177 142.412 160.546 143.424 159.95 145.092Z" fill="#95591E"></path><path d="M173.226 143.394C172.823 143.576 172.624 142.948 173.027 142.766C178.117 140.358 182.841 140.157 187.259 142.466C187.614 142.655 187.209 143.317 186.853 143.128C182.667 140.879 178.13 141.033 173.226 143.394ZM158.644 166.92C158.615 166.529 159.204 166.299 159.311 166.711C160.015 172.078 162.228 175.825 166.136 177.905C166.491 178.094 166.086 178.755 165.73 178.566C161.667 176.445 159.254 172.55 158.644 166.92ZM162.587 171.505C162.372 171.16 162.87 170.715 163.116 170.971C166.487 175.502 170.653 178.993 176.166 178.711C176.584 178.725 176.519 179.379 176.07 179.453C170.37 179.782 165.973 176.231 162.587 171.505ZM163.401 162.602C163.186 162.257 163.761 161.832 163.976 162.176C166.358 166.16 170.484 168.105 175.187 169.146C175.573 169.247 175.323 169.949 174.936 169.848C170.156 168.787 165.876 166.801 163.401 162.602ZM167.521 158.883C167.166 158.694 167.463 158.1 167.849 158.202C171.049 159.424 174.109 160.802 177.029 162.336C177.384 162.525 177.056 163.206 176.7 163.017C173.703 161.464 170.644 160.086 167.521 158.883ZM171.087 154.348C170.669 154.335 170.765 153.592 171.183 153.606C177.144 153.729 183.458 154.521 187.609 157.816C187.933 158.093 187.481 158.646 187.157 158.369C183.176 155.311 176.971 154.451 171.087 154.348ZM168.893 149.839C168.489 150.021 168.322 149.305 168.803 149.143C172.929 147.538 176.816 147.31 180.121 149.424C180.476 149.613 180.071 150.274 179.715 150.085C176.457 148.079 172.801 148.368 168.893 149.839ZM168.789 141.847C168.555 142.265 167.936 142.103 168.202 141.597C170.718 136.211 175.296 134.052 180.578 133.71C180.996 133.723 180.931 134.378 180.481 134.452C175.463 134.768 171.18 136.812 168.789 141.847ZM185.436 148.514C184.987 148.588 184.974 147.913 185.423 147.839C191.267 146.396 196.63 148.666 201.291 152.191C201.615 152.467 201.164 153.021 200.84 152.744C196.225 149.327 191.094 147.118 185.436 148.514ZM181.861 137.692C181.411 137.767 181.399 137.092 181.771 136.997C189.134 135.089 195.369 136.34 199.898 141.653C200.144 141.91 199.693 142.463 199.369 142.186C194.963 137.001 189.038 135.832 181.861 137.692ZM195.954 144.17C195.567 144.069 195.895 143.387 196.282 143.488C200.146 144.981 203.76 147.176 205.4 150.869C205.584 151.301 204.963 151.618 204.825 151.294C203.122 147.777 199.663 145.622 195.954 144.17ZM205.139 146.866C204.924 146.522 205.576 146.117 205.714 146.441C207.57 150.478 208.495 154.751 207.856 159.381C207.776 159.84 207.172 159.874 207.174 159.395C207.86 154.872 206.98 150.707 205.139 146.866ZM167.122 182.482C166.767 182.292 167.095 181.611 167.45 181.8C172.379 184.339 178.44 186.312 183.621 184.12C184.025 183.938 184.223 184.566 183.82 184.748C178.389 187.163 172.251 185.17 167.122 182.482ZM173.337 174.323C172.981 174.133 173.387 173.472 173.742 173.661C177.972 176.497 182.641 178.105 187.756 177.047C188.205 176.973 188.218 177.648 187.768 177.722C182.468 178.827 177.644 177.179 173.337 174.323ZM174.94 165.339C174.585 165.15 174.991 164.488 175.346 164.677C180.751 168.013 186.408 170.168 192.725 170.481C193.143 170.494 192.969 171.217 192.551 171.203C186.235 170.891 180.422 168.695 174.94 165.339ZM186.612 162.737C186.256 162.547 186.662 161.886 187.017 162.075C191.603 165.101 196.569 166.115 202.153 163.74C202.557 163.558 202.724 164.274 202.352 164.368C196.581 166.79 191.352 165.802 186.612 162.737ZM191.967 156.272C191.58 156.17 191.831 155.468 192.218 155.57C197.106 156.563 202.131 158.36 204.482 162.431C204.697 162.776 204.122 163.201 203.907 162.856C201.539 159.069 196.701 157.225 191.967 156.272ZM189.117 173.949C188.73 173.848 188.904 173.126 189.29 173.227C194.706 174.167 199.62 172.96 203.42 168.007C203.731 167.608 204.178 168.014 203.867 168.412C199.973 173.628 194.764 174.95 189.117 173.949ZM187.363 181.934C186.945 181.92 187.041 181.178 187.459 181.191C191.748 181.26 195.581 179.29 199.034 175.781C199.392 175.491 199.761 175.876 199.45 176.274C195.857 179.938 191.806 182.043 187.363 181.934Z" fill="#95591E"></path><path fill-rule="evenodd" clip-rule="evenodd" d="M74.0128 193.607C72.5904 193.207 68.59 190.273 66.9009 188.584C63.5672 185.251 62.4115 181.428 63.5672 177.205C64.8562 173.56 68.3677 170.893 74.2795 171.027C80.1468 170.893 83.6583 173.56 84.9918 177.205C86.1031 181.428 84.9918 185.251 81.6581 188.584C79.969 190.229 76.013 193.163 74.5462 193.607C74.324 193.652 74.2351 193.652 74.0128 193.607Z" fill="#AF5736"></path><path fill-rule="evenodd" clip-rule="evenodd" d="M74.2352 192.807C75.7909 192.718 79.3913 186.362 78.8135 178.494C78.369 173.96 76.9466 171.471 70.1459 172.449C67.39 172.849 65.5676 174.583 64.6341 177.65C63.6118 181.383 64.4563 184.984 67.0789 187.695C70.1459 190.896 72.5017 192.585 74.2352 192.807Z" fill="#D46D44"></path><path fill-rule="evenodd" clip-rule="evenodd" d="M67.1678 175.16C66.0122 176.227 65.6121 177.383 65.3899 179.161C65.301 179.916 65.3899 181.116 65.8344 182.005C66.4567 183.206 67.1678 183.339 67.3012 182.094C67.5234 180.494 67.879 178.627 68.6791 177.605C70.5015 175.427 68.3235 174.227 67.1678 175.16Z" fill="#DD8359"></path><path d="M66.5901 174.404C66.6345 174.316 66.7679 174.316 66.8568 174.36C66.9457 174.404 67.2568 174.76 67.2124 174.849C64.0565 178.983 64.6343 184.05 68.1014 187.873C69.2571 189.117 70.4572 190.584 72.3241 191.962C71.4795 191.029 70.7683 189.873 70.1016 188.851C67.2124 185.561 67.8791 179.872 69.8349 175.293C69.8794 175.205 69.9683 175.116 70.0572 175.16C70.1461 175.205 70.1905 175.293 70.1905 175.382C68.6348 179.294 67.7902 185.383 70.3683 188.895C71.4795 190.584 72.813 192.095 74.4576 193.518L74.591 193.607C74.3687 193.651 74.2798 193.651 74.0576 193.607C74.0131 193.607 73.9243 193.562 73.8798 193.562C71.1239 191.651 69.0348 189.873 67.5235 188.228C63.9231 184.317 63.3008 178.672 66.5901 174.404Z" fill="#99452B"></path><path d="M77.258 175.382C77.2135 175.293 77.3024 175.16 77.3913 175.16C77.4802 175.116 77.8803 175.116 77.9247 175.249C78.4137 177.249 78.6804 179.116 78.7248 180.805C78.8582 184.228 77.4358 187.962 76.1023 191.073C75.7467 191.873 75.4355 192.495 75.1244 192.94C76.0578 192.362 76.9913 191.518 77.8358 190.495C78.9915 189.117 79.7027 187.25 80.6806 185.117C81.4362 182.983 81.614 181.25 81.3918 179.605C81.1251 177.827 80.725 176.227 79.5693 174.982C79.5249 174.893 79.5249 174.805 79.5693 174.716C79.6582 174.627 79.7471 174.671 79.836 174.716C81.0362 176.049 81.8363 177.605 82.103 179.472C82.3697 181.205 82.1474 183.161 81.3918 185.383C80.3694 187.562 79.3026 189.339 78.147 190.717C77.3469 191.695 76.4579 192.495 75.5689 193.118C75.1689 193.34 74.8577 193.473 74.591 193.562C74.3688 193.651 74.2354 193.651 74.0576 193.562L74.2354 193.429C74.7244 193.073 75.2578 192.229 75.8356 190.895C77.1691 187.873 78.2803 184.183 78.147 180.85C78.0581 179.205 77.7469 177.383 77.258 175.382Z" fill="#99452B"></path><path d="M71.6569 175.471C71.6569 175.383 71.7458 175.294 71.8791 175.294C71.968 175.294 72.0569 175.427 72.0125 175.516C71.3902 179.294 71.2568 182.406 71.6124 184.984C72.0569 187.117 72.5014 188.895 72.9904 190.318C73.4349 191.651 73.8793 192.673 74.3238 193.429C76.5463 192.229 78.3243 190.762 79.7022 189.029C81.0801 187.295 82.0136 185.25 82.5025 182.939C82.7248 181.117 82.6803 179.561 82.3247 178.272C81.9691 176.983 81.3913 175.916 80.5023 175.116C80.4134 175.027 80.4134 174.938 80.5023 174.849C80.5912 174.76 80.6801 174.76 80.769 174.849C81.7024 175.694 82.3247 176.805 82.6803 178.183C83.0359 179.516 83.0804 181.117 82.8581 182.983C82.3692 185.339 81.3913 187.428 79.9689 189.206C78.7688 190.718 77.2575 192.051 75.3906 193.207C75.0795 193.385 74.7683 193.518 74.5461 193.562C74.3238 193.607 74.2349 193.651 74.0127 193.607C73.5237 192.851 73.0348 191.784 72.5903 190.406C72.1014 188.94 71.6569 187.162 71.2124 185.028C70.8568 182.45 70.9901 179.25 71.6569 175.471Z" fill="#99452B"></path><path d="M73.0352 174.894C73.0352 174.805 73.1241 174.716 73.2574 174.716C73.3463 174.716 73.7019 174.849 73.7019 174.938C73.213 178.583 73.1241 181.961 73.3019 185.073C73.4797 188.006 73.5686 190.718 74.3686 193.162C75.1687 191.518 75.7021 189.251 75.9244 186.406C76.1911 183.295 76.1466 179.516 75.7466 175.027C75.7466 174.938 75.8355 174.849 75.9244 174.805C76.0133 174.805 76.1022 174.894 76.1022 174.983C76.5022 179.516 76.5467 183.339 76.28 186.45C76.0133 189.517 75.4354 191.873 74.5464 193.607C73.7019 191.029 73.213 188.184 73.0352 185.073C72.3684 181.961 72.5462 178.583 73.0352 174.894Z" fill="#99452B"></path><path d="M66.5896 174.404C66.634 174.316 66.7673 174.316 66.8562 174.36C66.9451 174.404 67.2563 174.76 67.2118 174.849C64.0559 178.983 64.6338 184.05 68.1008 187.873C69.2565 189.117 70.4566 190.584 72.3235 191.962C71.479 191.029 70.7678 189.873 70.1011 188.851C67.2118 185.561 67.8786 179.872 69.8344 175.293C69.8788 175.205 69.9677 175.116 70.0566 175.16C70.1455 175.205 70.19 175.293 70.19 175.382C68.6342 179.294 67.7897 185.383 70.3677 188.895C71.2567 190.228 72.2791 191.473 73.4792 192.629C71.879 192.095 69.7455 190.451 67.1229 187.739C63.8781 183.828 63.4336 178.494 66.5896 174.404Z" fill="#BE5434"></path><path d="M77.2579 175.382C77.2135 175.293 77.3024 175.16 77.3913 175.16C77.4802 175.115 77.8802 175.115 77.9247 175.249C78.4136 177.249 78.6803 179.116 78.7248 180.805C78.8137 184.005 77.5691 187.561 76.3245 190.584C75.9245 191.251 75.5244 191.828 75.1688 192.184C75.3466 191.828 75.5689 191.428 75.7467 190.939C77.0801 187.917 78.1914 184.228 78.058 180.894C78.058 179.205 77.7469 177.382 77.2579 175.382Z" fill="#BE5434"></path><path d="M71.6572 175.471C71.6572 175.383 71.7461 175.294 71.8794 175.294C71.9683 175.294 72.0572 175.427 72.0128 175.516C71.3905 179.294 71.2571 182.406 71.6127 184.984C72.0572 187.117 72.5017 188.895 72.9907 190.318C73.3018 191.295 73.6574 192.096 73.9685 192.762C73.8352 192.718 73.6574 192.673 73.4796 192.629C73.1685 192.007 72.9018 191.295 72.6351 190.406C72.1461 188.94 71.7016 187.162 71.2571 185.028C70.8571 182.45 70.9904 179.25 71.6572 175.471Z" fill="#BE5434"></path><path d="M73.0356 174.894C73.0356 174.805 73.1245 174.716 73.2578 174.716C73.3467 174.716 73.7023 174.849 73.7023 174.938C73.2134 178.583 73.1245 181.961 73.3023 185.073C73.48 187.873 73.5689 190.451 74.2357 192.807C74.1023 192.807 73.969 192.762 73.8356 192.718C73.1689 190.406 72.7244 187.873 72.5911 185.117C72.3688 181.961 72.5466 178.583 73.0356 174.894ZM74.5468 192.673C75.2136 191.073 75.6581 188.984 75.8803 186.406C76.147 183.295 76.1026 179.516 75.7025 175.027C75.7025 174.938 75.7914 174.849 75.8803 174.805C75.9692 174.805 76.0581 174.894 76.0581 174.983C76.4582 179.516 76.5026 183.339 76.2359 186.45C76.0137 188.762 75.6581 190.718 75.0802 192.273C74.9024 192.451 74.7246 192.629 74.5468 192.673Z" fill="#BE5434"></path><path fill-rule="evenodd" clip-rule="evenodd" d="M74.2354 177.294C74.4132 177.516 74.6355 177.516 74.9022 177.294C75.08 177.472 75.3022 177.472 75.48 177.25C75.7023 177.472 75.9245 177.472 76.1912 177.205C76.5024 177.427 76.8135 177.383 77.0802 177.116C77.3469 177.338 77.5691 177.294 77.8358 176.983C78.2359 177.161 78.6359 177.072 78.9915 176.761C79.1693 176.983 79.3916 176.938 79.6138 176.627C79.925 176.761 80.2361 176.672 80.5917 176.405C80.9028 176.583 81.1695 176.494 81.3473 176.183C81.7029 176.272 82.0141 176.138 82.2363 175.872C82.6364 175.96 82.9475 175.827 83.0809 175.472C83.5254 175.472 83.7476 175.338 83.7921 175.071C83.7476 175.027 83.7476 174.983 83.7032 174.938V174.894C83.6587 174.849 83.6587 174.805 83.6143 174.805V174.76L83.5698 174.716L83.5254 174.627V174.583L83.4809 174.538L83.392 174.449L83.3476 174.405V174.36L83.3031 174.271V174.227L83.2587 174.316C83.2142 174.271 83.2142 174.271 83.1698 174.227L83.1253 174.183V174.138L83.0364 174.049L82.992 174.005V173.96C82.9475 173.916 82.9031 173.916 82.9031 173.871H82.8586L82.8142 173.827L82.7253 173.738L82.6808 173.694H82.6364L82.5919 173.649L82.503 173.56L82.4586 173.516L82.3697 173.471C80.4139 172.093 77.7469 171.293 74.2354 171.382C70.7239 171.293 68.057 172.093 66.1012 173.471L66.0123 173.516L65.9234 173.56L65.879 173.605C65.8345 173.649 65.8345 173.649 65.7901 173.694L65.7012 173.738L65.7456 173.827L65.7012 173.871L65.6567 173.916L65.6123 173.96L65.5234 174.049H65.4789L65.4345 174.094C65.39 174.138 65.39 174.138 65.3456 174.183L65.3011 174.227C65.3011 174.227 65.3011 174.271 65.2567 174.316V174.36C65.2122 174.405 65.2122 174.449 65.1678 174.449V174.494C65.1233 174.538 65.1233 174.583 65.0789 174.583L65.0344 174.627C64.99 174.671 64.99 174.716 64.9455 174.76H64.9011C64.8566 174.805 64.8566 174.849 64.8122 174.849V174.894C64.7677 174.938 64.7677 174.983 64.7233 175.027C64.7677 175.294 64.99 175.427 65.4345 175.427C65.6123 175.827 65.879 175.96 66.279 175.827C66.5012 176.094 66.7679 176.227 67.168 176.138C67.3458 176.449 67.6125 176.538 67.9236 176.361C68.2792 176.672 68.6348 176.716 68.9015 176.583C69.1238 176.894 69.346 176.938 69.5238 176.716C69.8794 177.027 70.2794 177.116 70.6795 176.938C70.9462 177.205 71.2129 177.25 71.4351 177.072C71.7018 177.383 71.9685 177.383 72.3241 177.161C72.5464 177.427 72.8131 177.472 73.0353 177.205C73.2576 177.427 73.4798 177.427 73.6576 177.25C73.8354 177.516 74.0576 177.516 74.2354 177.294Z" fill="#9A432B"></path><path fill-rule="evenodd" clip-rule="evenodd" d="M74.2351 177.294C74.4129 177.516 74.6351 177.516 74.9018 177.294C75.0796 177.472 75.3019 177.472 75.4796 177.25C75.7019 177.472 75.9241 177.472 76.1908 177.205C76.502 177.427 76.8131 177.383 77.0798 177.116C77.3465 177.339 77.5688 177.294 77.8355 176.983C78.1022 177.116 78.3244 177.116 78.5911 177.027C77.9244 173.471 76.1464 171.605 70.1013 172.449C68.0566 172.76 66.5009 173.783 65.4341 175.605C65.6119 175.872 65.8786 175.961 66.1897 175.872C66.412 176.138 66.6787 176.272 67.0787 176.183C67.2565 176.494 67.5232 176.583 67.8344 176.405C68.1899 176.716 68.5455 176.761 68.8122 176.627C69.0345 176.939 69.2567 176.983 69.4345 176.761C69.7901 177.072 70.1902 177.161 70.5902 176.983C70.8569 177.25 71.1236 177.294 71.3459 177.116C71.6125 177.427 71.8792 177.427 72.2348 177.205C72.4571 177.472 72.7238 177.516 72.946 177.25C73.1683 177.472 73.3905 177.472 73.5683 177.294C73.835 177.516 74.0573 177.516 74.2351 177.294Z" fill="#AC4A2E"></path><path fill-rule="evenodd" clip-rule="evenodd" d="M74.2352 176.938C74.413 177.161 74.6352 177.161 74.8575 176.938C75.0353 177.116 75.2131 177.116 75.4353 176.894C75.6575 177.116 75.8798 177.116 76.102 176.85C76.4132 177.072 76.6799 177.027 76.9466 176.761C77.1688 176.983 77.3911 176.938 77.6578 176.627C78.0578 176.805 78.4134 176.716 78.769 176.405C78.9468 176.627 79.1246 176.583 79.3468 176.272C79.6135 176.405 79.9247 176.316 80.2803 176.049C80.5914 176.227 80.8137 176.138 80.9915 175.827C81.3471 175.916 81.6138 175.783 81.836 175.516C82.2361 175.605 82.5028 175.472 82.6361 175.116C83.1695 175.116 83.3917 174.894 83.3028 174.405C81.4804 172.271 78.4579 170.938 74.2352 171.027C70.0125 170.938 66.9899 172.271 65.1675 174.405C65.0786 174.894 65.3008 175.116 65.8342 175.116C66.012 175.516 66.2787 175.649 66.6343 175.516C66.8566 175.783 67.1233 175.916 67.4789 175.827C67.6567 176.138 67.8789 176.227 68.19 176.049C68.5456 176.361 68.8568 176.449 69.1235 176.272C69.3457 176.583 69.5235 176.627 69.7013 176.405C70.0569 176.716 70.4125 176.805 70.8126 176.627C71.0793 176.894 71.3015 176.938 71.5238 176.761C71.7904 177.072 72.0571 177.072 72.3683 176.85C72.5905 177.116 72.8128 177.161 73.035 176.894C73.2573 177.116 73.4351 177.116 73.6129 176.938C73.8796 177.161 74.0574 177.205 74.2352 176.938Z" fill="#DC9B66"></path><path fill-rule="evenodd" clip-rule="evenodd" d="M74.2354 176.938C74.4132 177.161 74.6355 177.161 74.8577 176.938C75.0355 177.116 75.2133 177.116 75.4356 176.894C75.6578 177.116 75.8801 177.116 76.1023 176.849C76.4135 177.072 76.6802 177.027 76.9469 176.761C77.1691 176.983 77.3913 176.938 77.658 176.627C77.9692 176.761 78.2359 176.761 78.5026 176.583C77.7914 173.293 75.9245 171.604 70.1016 172.405C68.2348 172.671 66.7679 173.56 65.7456 175.071H65.7901C65.9679 175.472 66.2345 175.605 66.5901 175.472C66.8124 175.738 67.0791 175.872 67.4347 175.783C67.6125 176.094 67.8347 176.183 68.1459 176.005C68.5015 176.316 68.8126 176.405 69.0793 176.227C69.3016 176.538 69.4794 176.583 69.6572 176.36C70.0127 176.672 70.3683 176.761 70.7684 176.583C71.0351 176.849 71.2573 176.894 71.4796 176.716C71.7463 177.027 72.013 177.027 72.3241 176.805C72.5464 177.072 72.7686 177.116 72.9909 176.849C73.2131 177.072 73.3909 177.072 73.5687 176.894C73.8798 177.161 74.0576 177.205 74.2354 176.938Z" fill="#E9A76D"></path><path fill-rule="evenodd" clip-rule="evenodd" d="M66.4124 176.005C66.5902 176.182 66.8568 176.227 67.1235 176.182C67.3013 176.494 67.568 176.582 67.8792 176.405C68.2348 176.716 68.5904 176.76 68.8571 176.627C68.946 176.76 69.0349 176.849 69.1238 176.894C70.0128 175.205 68.1459 174.36 67.1235 175.16C66.8568 175.427 66.5902 175.693 66.4124 176.005Z" fill="#BC6243"></path><path fill-rule="evenodd" clip-rule="evenodd" d="M66.7233 175.605C66.9011 175.827 67.1678 175.916 67.4789 175.827C67.6567 176.138 67.879 176.227 68.1901 176.049C68.5457 176.361 68.8568 176.449 69.1235 176.272C69.168 176.361 69.2124 176.405 69.2569 176.449C69.7014 175.027 68.0567 174.36 67.1233 175.116C66.99 175.294 66.8566 175.427 66.7233 175.605Z" fill="#EDB87F"></path><path fill-rule="evenodd" clip-rule="evenodd" d="M59.4777 187.695C58.0997 187.339 54.1437 184.45 52.4991 182.806C49.2543 179.516 48.0986 175.827 49.2543 171.693C50.5433 168.093 52.8992 164.759 58.1886 166.226C60.1 165.781 62.278 165.87 63.8782 166.626C67.5675 165.115 69.301 169.204 70.19 171.693C71.2568 175.827 70.19 179.561 66.9452 182.806C65.345 184.45 61.4779 187.251 60.0555 187.695C59.8333 187.784 59.6999 187.784 59.4777 187.695Z" fill="#E6C6A7"></path><path fill-rule="evenodd" clip-rule="evenodd" d="M63.8334 166.626C65.9669 168.893 66.9893 171.471 66.9448 174.405C66.5003 177.472 64.1001 181.916 59.744 187.739C59.8329 187.739 59.9218 187.739 60.0107 187.695C61.4775 187.25 65.3002 184.45 66.9004 182.805C70.1452 179.516 71.212 175.827 70.1452 171.693C69.3006 169.204 67.5671 165.115 63.8334 166.626Z" fill="#E6C6A7"></path><path fill-rule="evenodd" clip-rule="evenodd" d="M59.8332 185.962C61.7445 181.339 62.9002 177.25 63.3447 173.738C63.4781 169.116 62.2335 166.715 59.4776 166.626C57.433 166.626 55.0327 168.404 54.4548 170.36C52.7658 175.961 54.277 181.161 58.9887 186.006C59.3887 186.406 59.6999 186.406 59.8332 185.962Z" fill="#F5D7BA"></path><path fill-rule="evenodd" clip-rule="evenodd" d="M58.1879 166.226C54.4541 167.382 52.7206 170.582 53.0318 175.738C53.2095 179.205 55.4765 183.206 59.7881 187.739C59.6992 187.739 59.6103 187.739 59.5214 187.695C58.1434 187.339 54.1874 184.45 52.5428 182.806C49.298 179.516 48.1423 175.827 49.298 171.693C50.5426 168.093 52.8984 164.759 58.1879 166.226Z" fill="#F5D7BA"></path><path fill-rule="evenodd" clip-rule="evenodd" d="M54.1435 179.561C55.0325 181.517 56.8993 184.273 59.7886 187.74C58.544 186.762 54.588 182.317 53.4767 179.428C52.2322 176.05 52.6322 171.916 53.5656 169.738C54.3657 167.915 55.9215 166.671 58.1884 166.182C58.544 166.093 58.7662 166.049 58.7662 166.049C56.1882 167.16 54.6324 168.538 54.099 170.182C53.1212 173.472 53.1212 176.628 54.1435 179.561Z" fill="#D9B69A"></path><path fill-rule="evenodd" clip-rule="evenodd" d="M65.3446 179.872C62.811 184.006 60.9442 186.628 59.744 187.784C64.3223 179.561 70.2785 175.116 63.8334 166.67C67.4782 170.049 68.3672 174.271 65.3446 179.872Z" fill="#CEA98C"></path><path fill-rule="evenodd" clip-rule="evenodd" d="M56.0107 175.872C56.5441 174.272 57.0775 173.205 57.7442 171.96C59.0332 169.515 58.811 168.138 57.8331 167.96C56.4107 167.737 55.4328 169.382 54.9439 172.049C54.3216 175.827 55.4773 178.139 56.0107 175.872Z" fill="#FAEADB"></path><path fill-rule="evenodd" clip-rule="evenodd" d="M51.7879 195.518C55.6994 196.363 59.3887 196.051 62.4113 194.94C63.4781 194.54 67.4785 192.629 67.6563 191.695C68.0119 190.806 65.7006 187.028 65.0338 186.095C63.1225 183.517 60.1888 181.205 56.4995 179.739C51.1656 177.783 45.1205 177.872 43.0758 184.183C41.0311 190.673 46.2762 194.273 51.7879 195.518Z" fill="#BF6831"></path><path fill-rule="evenodd" clip-rule="evenodd" d="M45.0751 184.094C46.6753 179.827 51.9648 178.849 58.321 181.783C63.1216 184.405 66.9887 189.562 66.4997 190.984C66.1886 192.095 61.2547 192.317 53.5649 191.384C46.8086 190.184 44.1417 187.25 45.0751 184.094Z" fill="#DF8B3F"></path><path fill-rule="evenodd" clip-rule="evenodd" d="M62.4105 186.762C63.8774 187.918 64.233 187.918 63.4329 186.717C61.166 183.828 58.6323 182.628 57.9211 183.428C57.5211 184.006 57.6989 184.45 58.4101 184.673C60.0547 185.295 61.3882 186.006 62.4105 186.762Z" fill="#E8AA70"></path><path d="M42.7194 187.873C42.8527 187.828 42.9861 187.828 43.0305 187.917C43.475 188.317 43.8306 188.939 44.3195 189.073C45.1641 189.295 46.0531 188.495 46.7643 188.806C47.7421 189.295 46.9865 189.962 48.1422 190.051C48.72 190.14 49.3423 190.184 49.8757 190.895H49.9202C50.5425 191.962 52.3204 191.74 53.9651 191.606C55.5208 191.473 56.4098 191.473 57.9655 191.784C58.6767 191.918 59.4768 192.051 60.3213 192.273C60.7658 192.362 60.6325 192.629 60.188 192.54C59.3434 192.318 58.5433 192.54 57.8766 192.407C57.0321 192.273 54.7207 191.918 54.0095 191.962C52.1871 192.184 50.1869 192.673 49.3868 191.251C49.0312 190.806 48.6311 190.495 48.1866 190.451C46.3642 190.317 47.1199 189.784 46.4087 189.428C46.0086 189.251 45.0752 189.651 44.1862 189.428C43.7417 189.295 43.2528 189.028 42.8083 188.673C42.8083 188.406 42.7194 188.139 42.7194 187.873Z" fill="#8D4725"></path><path d="M42.8083 188.095C42.7638 188.095 42.7638 188.095 42.7194 188.05C42.6749 187.872 42.6749 187.65 42.6749 187.428C42.6749 187.383 42.7194 187.383 42.7194 187.383C43.3417 187.339 43.9195 187.295 44.5418 187.339C45.1641 187.383 45.653 187.828 46.2753 187.961C46.6754 188.095 46.6309 188.406 46.1864 188.317C45.6086 188.139 45.0752 188.05 44.4974 188.006C43.9195 187.961 43.3417 188.006 42.8083 188.095Z" fill="#8D4725"></path><path d="M42.8977 187.517C42.8088 187.561 42.7199 187.606 42.631 187.561C42.631 187.339 42.631 187.161 42.631 186.895C43.5644 186.272 44.4979 185.872 45.4313 185.695C47.4315 185.206 47.5649 185.917 49.0761 186.183C49.3873 186.228 49.8318 186.406 50.1429 186.406C50.5874 186.406 50.6319 186.717 50.1874 186.717C49.8318 186.717 49.4762 186.717 49.1206 186.628C47.6982 186.361 47.0315 185.606 45.3868 186.006C44.5423 186.228 43.8311 186.939 42.8977 187.517Z" fill="#8D4725"></path><path d="M45.8756 187.162C45.4756 187.162 45.4311 186.895 45.8756 186.895C46.6757 186.939 47.298 186.806 47.8759 187.073C48.4982 187.34 49.0315 187.651 49.3871 188.184C49.6094 188.406 49.6538 188.895 49.9205 189.029C50.8095 189.34 51.6985 188.54 52.6764 188.629C53.2098 188.673 53.7876 188.806 54.4099 189.073C55.1656 189.34 55.7434 189.873 56.4101 190.006C57.0769 190.14 57.877 189.829 58.4993 189.829C59.9661 189.606 60.6773 190.673 62.0552 191.073C62.6775 191.251 63.2998 191.473 63.9665 191.473C64.1443 191.473 64.3666 191.296 64.3666 191.473C64.3666 191.696 64.2332 191.829 64.0554 191.829C63.3443 191.829 62.6331 191.74 61.9663 191.562C60.8106 191.251 59.8327 190.318 58.5882 190.495C58.5882 190.495 58.5437 190.54 58.4993 190.495C57.8325 190.495 57.1213 190.451 56.4101 190.318C55.699 190.184 54.9433 189.962 54.1877 189.695C53.6098 189.473 53.0764 189.34 52.6319 189.295C51.4763 189.206 51.1207 189.784 49.8761 189.34C49.476 189.206 49.1204 188.984 48.8982 188.629H48.8537C48.5426 188.184 48.1426 187.828 47.6536 187.606C47.1202 187.295 46.5424 187.162 45.8756 187.162Z" fill="#8D4725"></path><path d="M49.654 187.517C49.4762 187.473 49.3873 187.251 49.4317 187.117C49.4762 186.939 49.6984 187.117 49.8762 187.162C50.2318 187.251 50.4985 187.028 50.8097 187.028C51.1208 187.028 51.432 186.984 51.7431 186.85C52.0987 186.762 52.4543 186.717 52.8988 186.806C54.3212 186.984 56.188 188.362 57.4326 188.362C57.6104 188.362 57.966 188.273 57.9216 188.495C57.9216 188.673 57.7882 188.851 57.566 188.806C56.9437 188.806 56.3214 188.717 55.6991 188.54C54.6768 188.273 53.9211 187.384 52.8988 187.206C52.5432 187.162 52.1876 187.428 51.9654 187.517H51.9209C51.5653 187.606 51.2097 187.695 50.8097 187.695C50.4096 187.695 50.054 187.651 49.654 187.517Z" fill="#8D4725"></path><path d="M43.5193 186.317C43.3415 186.45 43.1637 186.361 43.0748 186.228C42.9415 186.095 42.986 185.872 43.1637 185.783C44.675 184.628 46.3197 184.183 48.0087 183.872C50.7201 183.383 52.0981 183.739 54.4539 184.05C54.8539 184.139 55.254 184.139 55.654 184.183C56.0985 184.139 56.4097 183.961 56.9431 184.139C57.4765 184.272 58.2321 184.761 58.8544 185.117C59.9212 185.517 61.0769 186.095 62.277 186.895C62.8548 187.295 66.6775 189.917 66.1885 190.495C66.0996 190.539 65.7885 190.184 65.6551 190.051C64.3217 188.806 63.1215 188.228 61.9214 187.472C60.6768 186.628 59.6545 186.361 58.4988 185.694C57.9209 185.339 57.3431 185.117 56.8986 184.983C56.543 184.894 55.8318 185.028 55.4762 185.028C55.0317 184.983 54.7206 184.761 54.3205 184.717C52.0536 184.405 50.7646 183.694 48.0976 184.228C46.4975 184.583 44.9862 185.25 43.5193 186.317Z" fill="#8D4725"></path><path d="M47.7867 185.072C47.6089 185.072 47.2978 185.25 47.2089 185.072C47.2089 184.895 47.2978 184.717 47.52 184.717C48.3645 184.583 49.2091 184.583 50.0092 184.672C52.8539 185.028 52.2316 185.784 54.543 186.584C55.2542 186.85 56.0543 186.984 56.5432 187.028C56.721 187.028 56.9433 187.028 56.9433 187.206C56.8988 187.384 56.6766 187.25 56.4988 187.25C55.9209 187.206 55.3431 187.339 54.543 187.028C52.9428 186.495 51.6094 185.561 49.9203 185.339C49.2091 185.25 48.6312 184.939 47.7867 185.072Z" fill="#8D4725"></path><path d="M44.5423 183.65C44.3645 183.739 44.1867 183.694 44.0978 183.517C44.0089 183.383 44.0533 183.161 44.1867 183.072C46.1424 181.961 48.2316 181.427 50.4985 181.383C52.7209 181.339 54.899 182.005 57.4326 183.072C57.6104 183.116 57.8771 183.161 57.7882 183.339C57.7437 183.517 57.5215 183.561 57.3437 183.517C54.899 182.494 52.5876 182.005 50.4985 182.05C48.3205 182.05 46.3647 182.628 44.5423 183.65Z" fill="#8D4725"></path><path d="M58.7658 183.072C58.588 183.028 58.4991 182.85 58.5436 182.672C58.588 182.494 58.8991 182.628 59.0769 182.672C59.8326 182.85 60.4104 182.894 60.9883 183.206C61.5661 183.561 61.8328 184.006 62.1884 184.495C62.3218 184.628 62.544 184.806 62.4107 184.895C62.2773 185.028 62.0995 184.806 61.9662 184.672C61.6106 184.272 61.1661 184.095 60.6327 183.783C60.0993 183.472 59.477 183.25 58.7658 183.072Z" fill="#8D4725"></path><path d="M58.8987 187.872C58.7209 187.828 58.632 187.65 58.6765 187.472C58.7209 187.295 58.8543 187.428 59.0321 187.472C59.8766 187.739 60.8545 187.828 61.699 188.095C61.8768 188.139 61.9657 188.361 61.8768 188.495C61.8324 188.673 61.5657 188.584 61.3435 188.495C60.899 188.317 60.4545 188.584 60.01 188.45C59.6099 188.317 59.2988 188.006 58.8987 187.872Z" fill="#8D4725"></path><path d="M54.1879 194.363C54.0101 194.363 53.8768 194.185 53.9212 193.963C53.9212 193.785 54.2768 193.963 54.4991 194.007C55.4325 194.185 56.0548 193.874 57.0327 194.007C58.1884 194.14 59.5663 194.229 60.722 193.918C60.8998 193.874 61.2109 193.563 61.2554 193.74C61.3443 193.918 61.2109 194.096 61.0776 194.185C58.8106 194.852 56.4548 194.763 54.1879 194.363Z" fill="#8D4725"></path><path d="M50.0981 193.029C50.2759 193.073 50.3648 193.251 50.3204 193.429C50.2759 193.607 50.0092 193.384 49.787 193.296C48.9869 193.029 48.4091 193.073 47.8757 192.807C47.2978 192.451 46.8978 192.14 46.6311 191.784C46.5422 191.651 46.5866 191.429 46.72 191.34C46.8533 191.251 47.12 191.829 47.2534 191.962C47.7868 192.718 49.2092 192.718 50.0981 193.029Z" fill="#8D4725"></path><path d="M55.0315 191.517C55.9649 191.473 56.765 191.562 57.9207 191.739L58.1874 191.784C57.2095 191.739 56.1427 191.651 55.0315 191.517Z" fill="#9A5429"></path><path d="M45.8307 187.828C45.964 187.917 46.0974 187.961 46.2752 188.006C46.6752 188.095 46.6308 188.406 46.2752 188.317C46.0974 188.139 45.964 188.006 45.8307 187.828Z" fill="#9A5429"></path><path d="M44.9419 185.828C45.1197 185.783 45.253 185.739 45.4308 185.739C47.4311 185.25 47.5644 185.961 49.0757 186.228C49.3868 186.272 49.8313 186.45 50.1425 186.45C50.587 186.45 50.6314 186.761 50.1869 186.761C49.8313 186.761 49.4757 186.761 49.1201 186.672C47.6978 186.406 47.031 185.65 45.3864 186.05C45.253 186.095 45.1197 186.095 44.9863 186.183C44.9863 186.05 44.9419 185.917 44.9419 185.828Z" fill="#9A5429"></path><path d="M45.8756 187.162C45.4756 187.162 45.4311 186.895 45.8756 186.895C46.6757 186.939 47.298 186.806 47.8759 187.073C48.4982 187.34 49.0315 187.651 49.3871 188.184C49.6094 188.406 49.6538 188.895 49.9205 189.029C50.8095 189.34 51.6985 188.54 52.6764 188.629C53.2098 188.673 53.7876 188.806 54.4099 189.073C55.1656 189.34 55.7434 189.873 56.4101 190.006C57.0769 190.14 57.877 189.829 58.4993 189.829C59.9661 189.606 60.6773 190.673 62.0552 191.073C62.6775 191.251 63.2998 191.473 63.9665 191.473C64.1443 191.473 64.3666 191.296 64.3666 191.473C64.3666 191.696 64.2332 191.829 64.0554 191.829C63.3443 191.829 62.6331 191.74 61.9663 191.562C60.8106 191.251 59.8327 190.318 58.5882 190.495C58.5882 190.495 58.5437 190.54 58.4993 190.495C57.8325 190.495 57.1213 190.451 56.4101 190.318C55.699 190.184 54.9433 189.962 54.1877 189.695C53.6098 189.473 53.0764 189.34 52.6319 189.295C51.4763 189.206 51.1207 189.784 49.8761 189.34C49.476 189.206 49.1204 188.984 48.8982 188.629H48.8537C48.5426 188.184 48.1426 187.828 47.6536 187.606C47.1202 187.295 46.5424 187.162 45.8756 187.162Z" fill="#9A5429"></path><path d="M49.654 187.517C49.4762 187.473 49.3873 187.251 49.4317 187.117C49.4762 186.939 49.6984 187.117 49.8762 187.162C50.2318 187.251 50.4985 187.028 50.8097 187.028C51.1208 187.028 51.432 186.984 51.7431 186.85C52.0987 186.762 52.4543 186.717 52.8988 186.806C54.3212 186.984 56.188 188.362 57.4326 188.362C57.6104 188.362 57.966 188.273 57.9216 188.495C57.9216 188.673 57.7882 188.851 57.566 188.806C56.9437 188.806 56.3214 188.717 55.6991 188.54C54.6768 188.273 53.9211 187.384 52.8988 187.206C52.5432 187.162 52.1876 187.428 51.9654 187.517H51.9209C51.5653 187.606 51.2097 187.695 50.8097 187.695C50.4096 187.695 50.054 187.651 49.654 187.517Z" fill="#9A5429"></path><path d="M44.9424 184.761C45.9203 184.317 46.8982 184.094 47.9205 183.872C50.6319 183.383 52.0099 183.739 54.3657 184.05C54.7657 184.139 55.1658 184.139 55.5658 184.183C56.0103 184.139 56.3215 183.961 56.8549 184.139C57.3882 184.272 58.1439 184.761 58.7662 185.117C59.833 185.517 60.9886 186.095 62.1888 186.895C62.7666 187.295 66.5893 189.917 66.1003 190.495C66.0114 190.539 65.7003 190.184 65.5669 190.051C64.2335 188.806 63.0333 188.228 61.8332 187.472C60.5886 186.628 59.5663 186.361 58.4106 185.694C57.8327 185.339 57.2549 185.117 56.8104 184.983C56.4548 184.894 55.7436 185.028 55.388 185.028C54.9435 184.983 54.6324 184.761 54.2323 184.717C51.9654 184.405 50.6764 183.694 48.0094 184.228C46.8982 184.45 45.8759 184.805 44.8535 185.428C44.898 185.206 44.9424 184.983 44.9424 184.761Z" fill="#9A5429"></path><path d="M47.7867 185.072C47.6089 185.072 47.2978 185.25 47.2089 185.072C47.2089 184.895 47.2978 184.717 47.52 184.717C48.3645 184.583 49.2091 184.583 50.0092 184.672C52.8539 185.028 52.2316 185.784 54.543 186.584C55.2542 186.85 56.0543 186.984 56.5432 187.028C56.721 187.028 56.9433 187.028 56.9433 187.206C56.8988 187.384 56.6766 187.25 56.4988 187.25C55.9209 187.206 55.3431 187.339 54.543 187.028C52.9428 186.495 51.6094 185.561 49.9203 185.339C49.2091 185.25 48.6312 184.939 47.7867 185.072Z" fill="#9A5429"></path><path d="M46.2754 182.094C47.6089 181.65 49.0313 181.383 50.4981 181.339C52.7206 181.294 54.8986 181.961 57.4322 183.028C57.61 183.072 57.8767 183.116 57.7878 183.294C57.7433 183.472 57.5211 183.517 57.3433 183.472C54.8986 182.45 52.5872 181.961 50.4981 182.005C48.7646 182.05 47.0755 182.405 45.5642 183.116C45.7865 182.761 46.0087 182.405 46.2754 182.094Z" fill="#9A5429"></path><path d="M58.7658 183.072C58.588 183.028 58.4991 182.85 58.5436 182.672C58.588 182.494 58.8991 182.628 59.0769 182.672C59.5214 182.761 59.8326 182.85 60.1437 182.894C60.9438 183.472 61.7439 184.095 62.4107 184.761C62.4551 184.85 62.4551 184.895 62.4107 184.939C62.2773 185.072 62.0995 184.85 61.9662 184.717C61.6106 184.317 61.1661 184.139 60.6327 183.828C60.0993 183.472 59.477 183.25 58.7658 183.072Z" fill="#9A5429"></path><path d="M58.8987 187.872C58.7209 187.828 58.632 187.65 58.6765 187.472C58.7209 187.295 58.8543 187.428 59.0321 187.472C59.8766 187.739 60.8545 187.828 61.699 188.095C61.8768 188.139 61.9657 188.361 61.8768 188.495C61.8324 188.673 61.5657 188.584 61.3435 188.495C60.899 188.317 60.4545 188.584 60.01 188.45C59.6099 188.317 59.2988 188.006 58.8987 187.872Z" fill="#9A5429"></path><path d="M18.994 53.286C19.042 53.406 18.994 53.526 18.85 53.646C18.706 53.754 18.478 53.826 18.166 53.862C17.626 53.934 17.074 54.012 16.51 54.096C15.946 54.168 15.37 54.246 14.782 54.33C14.758 54.942 14.758 55.554 14.782 56.166C15.058 56.166 15.388 56.142 15.772 56.094C16.168 56.034 16.57 55.962 16.978 55.878C17.386 55.794 17.776 55.71 18.148 55.626C18.532 55.53 18.856 55.452 19.12 55.392C19.252 55.356 19.39 55.332 19.534 55.32C19.678 55.296 19.804 55.296 19.912 55.32C20.032 55.332 20.128 55.374 20.2 55.446C20.272 55.518 20.308 55.62 20.308 55.752C20.308 55.788 20.266 55.842 20.182 55.914C20.098 55.986 19.99 56.064 19.858 56.148C19.738 56.22 19.606 56.292 19.462 56.364C19.33 56.424 19.21 56.472 19.102 56.508C18.358 56.748 17.626 56.958 16.906 57.138C16.186 57.306 15.484 57.396 14.8 57.408C14.404 57.42 14.104 57.318 13.9 57.102C13.696 56.874 13.588 56.55 13.576 56.13C13.552 55.542 13.552 54.948 13.576 54.348C13.372 54.228 13.27 54.06 13.27 53.844C13.294 53.616 13.402 53.46 13.594 53.376C13.618 53.028 13.636 52.68 13.648 52.332C13.66 51.972 13.678 51.618 13.702 51.27C13.57 51.246 13.45 51.18 13.342 51.072C13.246 50.964 13.198 50.844 13.198 50.712C13.198 50.604 13.222 50.508 13.27 50.424C13.318 50.328 13.408 50.256 13.54 50.208C13.756 50.16 14.02 50.106 14.332 50.046C14.644 49.986 14.962 49.932 15.286 49.884C15.622 49.836 15.94 49.794 16.24 49.758C16.552 49.722 16.816 49.698 17.032 49.686C17.284 49.662 17.524 49.686 17.752 49.758C17.992 49.83 18.214 49.968 18.418 50.172C18.466 50.34 18.43 50.466 18.31 50.55C18.202 50.634 18.058 50.688 17.878 50.712C17.698 50.736 17.482 50.766 17.23 50.802C16.978 50.826 16.714 50.856 16.438 50.892C16.174 50.928 15.904 50.964 15.628 51C15.364 51.024 15.112 51.054 14.872 51.09C14.872 51.114 14.872 51.144 14.872 51.18C14.884 51.204 14.89 51.228 14.89 51.252C14.866 51.564 14.848 51.876 14.836 52.188C14.824 52.5 14.812 52.812 14.8 53.124C15.304 53.04 15.82 52.968 16.348 52.908C16.876 52.836 17.296 52.788 17.608 52.764C17.86 52.74 18.106 52.77 18.346 52.854C18.586 52.938 18.802 53.082 18.994 53.286ZM22.6328 49.326C22.6928 50.634 22.7948 51.99 22.9388 53.394C23.0828 54.786 23.2388 56.118 23.4068 57.39C23.4428 57.918 23.2988 58.188 22.9748 58.2C22.9028 58.2 22.8308 58.176 22.7588 58.128C22.6868 58.068 22.6208 57.996 22.5608 57.912C22.5008 57.828 22.4408 57.738 22.3808 57.642C22.3328 57.546 22.3028 57.462 22.2908 57.39C22.1948 56.778 22.1048 56.13 22.0208 55.446C21.9368 54.762 21.8588 54.078 21.7868 53.394C21.7268 52.698 21.6728 52.02 21.6248 51.36C21.5768 50.7 21.5468 50.094 21.5348 49.542C21.5588 49.254 21.6008 49.014 21.6608 48.822C21.7208 48.618 21.8468 48.522 22.0388 48.534C22.2428 48.546 22.3868 48.63 22.4708 48.786C22.5668 48.93 22.6208 49.11 22.6328 49.326ZM29.3825 51.09C29.4305 51.426 29.4665 51.786 29.4905 52.17C29.5265 52.542 29.5505 52.92 29.5625 53.304C29.5865 53.688 29.5985 54.06 29.5985 54.42C29.5985 54.78 29.5925 55.104 29.5805 55.392C29.9645 55.656 30.1925 55.89 30.2645 56.094C30.3485 56.298 30.3605 56.478 30.3005 56.634C30.2285 56.85 30.0965 56.964 29.9045 56.976C29.7245 56.976 29.5145 56.91 29.2745 56.778C29.1065 56.898 28.9145 57.03 28.6985 57.174C28.4825 57.306 28.2545 57.438 28.0145 57.57C27.7745 57.69 27.5345 57.798 27.2945 57.894C27.0545 57.99 26.8325 58.056 26.6285 58.092C26.2445 58.152 25.8965 58.08 25.5845 57.876C25.2845 57.672 25.0805 57.366 24.9725 56.958C24.9005 56.682 24.8825 56.4 24.9185 56.112C24.9545 55.812 25.0445 55.53 25.1885 55.266C25.3325 54.99 25.5245 54.744 25.7645 54.528C26.0165 54.312 26.3105 54.144 26.6465 54.024C26.7305 53.988 26.8445 53.958 26.9885 53.934C27.1445 53.91 27.3005 53.904 27.4565 53.916C27.6245 53.916 27.7925 53.946 27.9605 54.006C28.1285 54.066 28.2845 54.168 28.4285 54.312C28.4285 54.108 28.4225 53.886 28.4105 53.646C28.4105 53.394 28.4045 53.142 28.3925 52.89C28.3805 52.638 28.3625 52.404 28.3385 52.188C28.3265 51.96 28.3085 51.768 28.2845 51.612C28.2605 51.432 28.1885 51.324 28.0685 51.288C27.9605 51.24 27.8225 51.246 27.6545 51.306C27.3665 51.402 27.0305 51.588 26.6465 51.864C26.2625 52.14 25.8965 52.434 25.5485 52.746C25.4405 52.854 25.3145 52.902 25.1705 52.89C25.0385 52.878 24.9245 52.824 24.8285 52.728C24.7325 52.632 24.6785 52.524 24.6665 52.404C24.6545 52.272 24.7025 52.134 24.8105 51.99C25.0145 51.774 25.2425 51.552 25.4945 51.324C25.7465 51.096 26.0105 50.892 26.2865 50.712C26.5625 50.52 26.8445 50.364 27.1325 50.244C27.4205 50.124 27.7085 50.058 27.9965 50.046C28.4165 50.034 28.7405 50.13 28.9685 50.334C29.1965 50.526 29.3345 50.778 29.3825 51.09ZM27.2945 54.96C27.1385 54.996 26.9705 55.074 26.7905 55.194C26.6225 55.302 26.4665 55.44 26.3225 55.608C26.1905 55.764 26.0885 55.944 26.0165 56.148C25.9565 56.34 25.9565 56.532 26.0165 56.724C26.0405 56.796 26.0885 56.85 26.1605 56.886C26.2445 56.922 26.3345 56.928 26.4305 56.904C26.7185 56.844 27.0425 56.73 27.4025 56.562C27.7745 56.382 28.0685 56.19 28.2845 55.986C28.2845 55.914 28.2485 55.824 28.1765 55.716C28.1045 55.596 28.0205 55.482 27.9245 55.374C27.8285 55.254 27.7205 55.152 27.6005 55.068C27.4925 54.984 27.3905 54.948 27.2945 54.96ZM36.3013 51.864C36.3493 51.852 36.4213 51.846 36.5173 51.846C36.6133 51.834 36.7033 51.84 36.7873 51.864C36.8833 51.876 36.9613 51.906 37.0213 51.954C37.0933 51.99 37.1353 52.038 37.1473 52.098C37.1713 52.242 37.1473 52.374 37.0753 52.494C37.0153 52.602 36.9013 52.698 36.7333 52.782C36.2773 52.998 35.8033 53.244 35.3113 53.52C34.8193 53.784 34.3993 54.024 34.0513 54.24C34.2673 54.384 34.5133 54.546 34.7893 54.726C35.0773 54.906 35.3713 55.098 35.6713 55.302C35.9713 55.494 36.2713 55.704 36.5713 55.932C36.8713 56.148 37.1533 56.364 37.4173 56.58C37.6573 56.784 37.6993 56.97 37.5433 57.138C37.4713 57.222 37.3513 57.282 37.1833 57.318C37.0273 57.354 36.8773 57.336 36.7333 57.264C36.4693 57.132 36.1813 56.976 35.8693 56.796C35.5573 56.604 35.2393 56.412 34.9153 56.22C34.5913 56.016 34.2733 55.818 33.9613 55.626C33.6613 55.422 33.3853 55.236 33.1333 55.068C33.1813 55.488 33.2233 55.908 33.2593 56.328C33.3073 56.748 33.3493 57.168 33.3853 57.588C33.4573 57.816 33.4513 58.002 33.3673 58.146C33.2833 58.29 33.1453 58.356 32.9533 58.344C32.7493 58.308 32.5993 58.23 32.5033 58.11C32.4073 57.978 32.3353 57.81 32.2873 57.606C32.2153 57.114 32.1313 56.532 32.0353 55.86C31.9513 55.188 31.8613 54.492 31.7653 53.772C31.6693 53.052 31.5733 52.35 31.4773 51.666C31.3933 50.982 31.3153 50.376 31.2433 49.848C31.2193 49.68 31.2013 49.5 31.1893 49.308C31.1893 49.104 31.2553 48.972 31.3873 48.912C31.5673 48.84 31.7533 48.882 31.9453 49.038C32.1373 49.182 32.2813 49.404 32.3773 49.704C32.4733 50.256 32.5693 50.856 32.6653 51.504C32.7613 52.152 32.8573 52.836 32.9533 53.556C33.1933 53.412 33.4693 53.256 33.7813 53.088C34.1053 52.908 34.4233 52.74 34.7353 52.584C35.0593 52.416 35.3593 52.266 35.6353 52.134C35.9113 52.002 36.1333 51.912 36.3013 51.864ZM43.6138 51.864C43.6618 51.852 43.7338 51.846 43.8298 51.846C43.9258 51.834 44.0158 51.84 44.0998 51.864C44.1958 51.876 44.2738 51.906 44.3338 51.954C44.4058 51.99 44.4478 52.038 44.4598 52.098C44.4838 52.242 44.4598 52.374 44.3878 52.494C44.3278 52.602 44.2138 52.698 44.0458 52.782C43.5898 52.998 43.1158 53.244 42.6238 53.52C42.1318 53.784 41.7118 54.024 41.3638 54.24C41.5798 54.384 41.8258 54.546 42.1018 54.726C42.3898 54.906 42.6838 55.098 42.9838 55.302C43.2838 55.494 43.5838 55.704 43.8838 55.932C44.1838 56.148 44.4658 56.364 44.7298 56.58C44.9698 56.784 45.0118 56.97 44.8558 57.138C44.7838 57.222 44.6638 57.282 44.4958 57.318C44.3398 57.354 44.1898 57.336 44.0458 57.264C43.7818 57.132 43.4938 56.976 43.1818 56.796C42.8698 56.604 42.5518 56.412 42.2278 56.22C41.9038 56.016 41.5858 55.818 41.2738 55.626C40.9738 55.422 40.6978 55.236 40.4458 55.068C40.4938 55.488 40.5358 55.908 40.5718 56.328C40.6198 56.748 40.6618 57.168 40.6978 57.588C40.7698 57.816 40.7638 58.002 40.6798 58.146C40.5958 58.29 40.4578 58.356 40.2658 58.344C40.0618 58.308 39.9118 58.23 39.8158 58.11C39.7198 57.978 39.6478 57.81 39.5998 57.606C39.5278 57.114 39.4438 56.532 39.3478 55.86C39.2638 55.188 39.1738 54.492 39.0778 53.772C38.9818 53.052 38.8858 52.35 38.7898 51.666C38.7058 50.982 38.6278 50.376 38.5558 49.848C38.5318 49.68 38.5138 49.5 38.5018 49.308C38.5018 49.104 38.5678 48.972 38.6998 48.912C38.8798 48.84 39.0658 48.882 39.2578 49.038C39.4498 49.182 39.5938 49.404 39.6898 49.704C39.7858 50.256 39.8818 50.856 39.9778 51.504C40.0738 52.152 40.1698 52.836 40.2658 53.556C40.5058 53.412 40.7818 53.256 41.0938 53.088C41.4178 52.908 41.7358 52.74 42.0478 52.584C42.3718 52.416 42.6718 52.266 42.9478 52.134C43.2238 52.002 43.4458 51.912 43.6138 51.864ZM50.4763 51.09C50.5243 51.426 50.5603 51.786 50.5843 52.17C50.6203 52.542 50.6443 52.92 50.6563 53.304C50.6803 53.688 50.6923 54.06 50.6923 54.42C50.6923 54.78 50.6863 55.104 50.6743 55.392C51.0583 55.656 51.2863 55.89 51.3583 56.094C51.4423 56.298 51.4543 56.478 51.3943 56.634C51.3223 56.85 51.1903 56.964 50.9983 56.976C50.8183 56.976 50.6083 56.91 50.3683 56.778C50.2003 56.898 50.0083 57.03 49.7923 57.174C49.5763 57.306 49.3483 57.438 49.1083 57.57C48.8683 57.69 48.6283 57.798 48.3883 57.894C48.1483 57.99 47.9263 58.056 47.7223 58.092C47.3383 58.152 46.9903 58.08 46.6783 57.876C46.3783 57.672 46.1743 57.366 46.0663 56.958C45.9943 56.682 45.9763 56.4 46.0123 56.112C46.0483 55.812 46.1383 55.53 46.2823 55.266C46.4263 54.99 46.6183 54.744 46.8583 54.528C47.1103 54.312 47.4043 54.144 47.7403 54.024C47.8243 53.988 47.9383 53.958 48.0823 53.934C48.2383 53.91 48.3943 53.904 48.5503 53.916C48.7183 53.916 48.8863 53.946 49.0543 54.006C49.2223 54.066 49.3783 54.168 49.5223 54.312C49.5223 54.108 49.5163 53.886 49.5043 53.646C49.5043 53.394 49.4983 53.142 49.4863 52.89C49.4743 52.638 49.4563 52.404 49.4323 52.188C49.4203 51.96 49.4023 51.768 49.3783 51.612C49.3543 51.432 49.2823 51.324 49.1623 51.288C49.0543 51.24 48.9163 51.246 48.7483 51.306C48.4603 51.402 48.1243 51.588 47.7403 51.864C47.3563 52.14 46.9903 52.434 46.6423 52.746C46.5343 52.854 46.4083 52.902 46.2643 52.89C46.1323 52.878 46.0183 52.824 45.9223 52.728C45.8263 52.632 45.7723 52.524 45.7603 52.404C45.7483 52.272 45.7963 52.134 45.9043 51.99C46.1083 51.774 46.3363 51.552 46.5883 51.324C46.8403 51.096 47.1043 50.892 47.3803 50.712C47.6563 50.52 47.9383 50.364 48.2263 50.244C48.5143 50.124 48.8023 50.058 49.0903 50.046C49.5103 50.034 49.8343 50.13 50.0623 50.334C50.2903 50.526 50.4283 50.778 50.4763 51.09ZM48.3883 54.96C48.2323 54.996 48.0643 55.074 47.8843 55.194C47.7163 55.302 47.5603 55.44 47.4163 55.608C47.2843 55.764 47.1823 55.944 47.1103 56.148C47.0503 56.34 47.0503 56.532 47.1103 56.724C47.1343 56.796 47.1823 56.85 47.2543 56.886C47.3383 56.922 47.4283 56.928 47.5243 56.904C47.8123 56.844 48.1363 56.73 48.4963 56.562C48.8683 56.382 49.1623 56.19 49.3783 55.986C49.3783 55.914 49.3423 55.824 49.2703 55.716C49.1983 55.596 49.1143 55.482 49.0183 55.374C48.9223 55.254 48.8143 55.152 48.6943 55.068C48.5863 54.984 48.4843 54.948 48.3883 54.96ZM53.597 51.81C53.633 51.99 53.669 52.194 53.705 52.422C53.753 52.638 53.801 52.866 53.849 53.106C53.897 53.334 53.939 53.568 53.975 53.808C54.011 54.048 54.041 54.276 54.065 54.492C54.209 54.18 54.365 53.85 54.533 53.502C54.701 53.154 54.881 52.836 55.073 52.548C55.277 52.248 55.487 52.002 55.703 51.81C55.931 51.618 56.177 51.522 56.441 51.522C56.837 51.522 57.167 51.666 57.431 51.954C57.707 52.242 57.935 52.602 58.115 53.034C58.307 53.454 58.457 53.898 58.565 54.366C58.673 54.834 58.763 55.248 58.835 55.608C58.907 55.932 58.763 56.172 58.403 56.328C58.235 56.412 58.109 56.424 58.025 56.364C57.941 56.304 57.893 56.244 57.881 56.184C57.821 56.04 57.743 55.788 57.647 55.428C57.563 55.068 57.461 54.702 57.341 54.33C57.233 53.958 57.107 53.634 56.963 53.358C56.819 53.082 56.657 52.956 56.477 52.98C56.261 52.992 56.069 53.154 55.901 53.466C55.757 53.718 55.607 54 55.451 54.312C55.307 54.612 55.163 54.924 55.019 55.248C54.875 55.56 54.731 55.878 54.587 56.202C54.455 56.514 54.329 56.802 54.209 57.066C54.125 57.15 54.017 57.21 53.885 57.246C53.765 57.27 53.639 57.258 53.507 57.21C53.387 57.174 53.291 57.114 53.219 57.03C53.147 56.946 53.111 56.862 53.111 56.778C53.003 55.842 52.889 54.99 52.769 54.222C52.661 53.454 52.517 52.668 52.337 51.864C52.253 51.588 52.235 51.372 52.283 51.216C52.343 51.048 52.523 50.982 52.823 51.018C53.243 51.09 53.501 51.354 53.597 51.81ZM62.9179 48.318C62.8099 48.846 62.6959 49.368 62.5759 49.884C62.4679 50.4 62.3659 50.916 62.2699 51.432C62.1739 51.948 62.1019 52.464 62.0539 52.98C62.0059 53.496 61.9999 54.012 62.0359 54.528C62.0599 54.66 62.0359 54.786 61.9639 54.906C61.9039 55.026 61.8319 55.104 61.7479 55.14C61.4839 55.236 61.2919 55.17 61.1719 54.942C61.0279 54.33 60.9499 53.724 60.9379 53.124C60.9379 52.524 60.9799 51.93 61.0639 51.342C61.1599 50.754 61.2799 50.172 61.4239 49.596C61.5799 49.008 61.7359 48.426 61.8919 47.85C61.9519 47.61 62.0479 47.478 62.1799 47.454C62.3119 47.43 62.4379 47.442 62.5579 47.49C62.7379 47.55 62.8519 47.67 62.8999 47.85C62.9479 48.03 62.9539 48.186 62.9179 48.318ZM62.1979 58.002C62.1979 58.134 62.1799 58.314 62.1439 58.542C62.1199 58.758 62.0719 58.962 61.9999 59.154C61.9399 59.346 61.8499 59.502 61.7299 59.622C61.6219 59.742 61.4839 59.766 61.3159 59.694C61.2199 59.634 61.1239 59.52 61.0279 59.352C60.9319 59.184 60.8899 59.028 60.9019 58.884C60.9259 58.596 60.9859 58.314 61.0819 58.038C61.1779 57.762 61.3039 57.594 61.4599 57.534C61.5319 57.51 61.6099 57.51 61.6939 57.534C61.7899 57.558 61.8739 57.6 61.9459 57.66C62.0179 57.708 62.0779 57.768 62.1259 57.84C62.1739 57.9 62.1979 57.954 62.1979 58.002Z" fill="black"></path></g><line x1="88.2322" y1="155.232" x2="198.232" y2="45.2322" stroke="#BF2828" stroke-width="5"></line><line x1="91.7678" y1="45.2322" x2="201.768" y2="155.232" stroke="#BF2828" stroke-width="5"></line></svg>