<svg xmlns="http://www.w3.org/2000/svg" width="43" height="80" viewBox="0 0 43 80" fill="none"><path d="M42.1816 78.8265C42.1816 78.8576 42.1816 78.9198 42.1505 78.9509C42.1505 78.9509 42.1505 78.9821 42.1194 78.9821L42.0882 79.0132C42.0882 79.0132 42.0882 79.0132 42.0571 79.0443L42.026 79.0754L41.9949 79.1065C41.9638 79.1065 41.9638 79.1376 41.9326 79.1376C41.9015 79.1376 41.8704 79.1688 41.8393 79.1688C41.777 79.1999 41.7459 79.231 41.6837 79.231C41.6526 79.231 41.6215 79.2621 41.6215 79.2621C41.3725 79.3555 41.0302 79.4177 40.6879 79.4799C40.6257 79.4799 40.5634 79.4799 40.5012 79.5111C40.439 79.5111 40.4078 79.5111 40.3456 79.5111C40.2834 79.5111 40.2522 79.5111 40.19 79.5111C40.1589 79.5111 40.1278 79.5111 40.0655 79.5111C39.9411 79.5111 39.8477 79.5111 39.7232 79.5111C38.354 79.5111 37.2649 79.1999 37.2649 78.7953C38.1673 71.078 39.0697 49.8241 37.3582 44.5651C36.4558 41.7955 32.3793 35.2296 24.4441 37.719C24.0084 37.8435 25.6577 31.3709 26.6535 26.7342C27.4626 22.9689 28.3339 20.7284 28.4272 20.9462C30.3566 27.3255 34.2775 27.0143 38.9453 34.1093C44.7955 43.1025 42.2749 75.03 42.1816 78.8265Z" fill="#FFBE40"></path><path d="M42.1817 78.8265C42.1817 78.8576 42.1817 78.9198 42.1505 78.9509C42.1505 78.9509 42.1505 78.9821 42.1194 78.9821L42.0883 79.0132C42.0883 79.0132 42.0883 79.0132 42.0572 79.0443L42.0261 79.0754L41.9949 79.1065C41.9638 79.1065 41.9638 79.1376 41.9327 79.1376C41.9016 79.1376 41.8705 79.1688 41.8393 79.1688C41.7771 79.1999 41.746 79.231 41.6838 79.231C41.6526 79.231 41.6215 79.2621 41.6215 79.2621C41.3726 79.3555 41.0303 79.4177 40.688 79.4799C40.6257 79.4799 40.5635 79.4799 40.5013 79.5111C40.439 79.5111 40.4079 79.5111 40.3457 79.5111C40.2834 79.5111 40.2523 79.5111 40.1901 79.5111C40.159 79.5111 40.1278 79.5111 40.0656 79.5111C40.2834 74.8744 42.6173 44.5028 36.8604 35.7274C34.4954 32.1177 29.9521 28.8192 26.6536 26.7342C27.4626 22.9689 28.334 20.7284 28.4273 20.9462C30.3567 27.3255 34.2776 27.0143 38.9453 34.1093C44.7956 43.1025 42.275 75.03 42.1817 78.8265Z" fill="#FFA717"></path><path d="M29.7346 23.8712C30.1391 24.9604 30.4814 25.8939 30.4814 27.1075C30.5125 28.6324 29.7657 30.126 29.4234 31.6197C29.05 33.3312 29.7346 35.105 29.1122 36.7854C28.6454 38.0612 29.2678 38.1857 30.2636 38.6836C31.8818 39.4927 33.2821 40.7374 34.2467 42.2622C35.3981 44.0671 35.367 45.9964 35.7404 48.0502C36.425 51.94 36.4873 56.2655 33.1576 59.0662C31.6017 60.3731 30.3258 61.8357 28.4276 62.6759C27.8675 62.9249 27.5874 63.3916 27.0895 63.7028C25.6892 64.5741 23.4175 65.1343 21.7994 64.9787C19.7456 64.792 17.7229 64.792 15.7935 63.9206C13.8642 63.0804 12.246 61.6801 10.5656 60.4976C9.04082 59.4085 8.01392 58.1326 6.80031 56.7323C6.1157 55.9543 5.43109 55.1452 4.87096 54.2739C3.62622 52.3135 2.5682 49.6062 1.97695 47.3656C1.47906 45.4363 1.0434 43.787 0.825566 41.7954C0.638856 39.7727 0.452141 37.7812 0.296549 35.7585C-0.170227 29.7215 0.389912 23.4978 3.68846 18.2388C4.21748 17.4297 4.31083 16.3406 4.65313 15.4381C5.2755 13.82 6.08458 12.2952 7.04925 10.8637C8.91636 8.03196 11.3436 5.57361 14.1442 3.67538C19.8078 -0.152184 26.0937 -0.930144 32.6286 1.06143C34.4023 1.59045 35.9271 2.11946 37.2341 3.45755C38.8834 5.16907 40.6571 7.68966 40.9372 10.1169C41.155 12.1085 40.1592 13.9445 39.8169 15.8738C39.568 17.2119 39.7858 18.5189 38.9456 19.6702C38.1366 20.7905 36.8296 21.4129 35.5848 21.9419C34.7135 22.3153 33.8111 22.6576 32.9398 23.0933C31.8195 23.6534 30.9171 23.56 29.7346 23.8712Z" fill="#FF4041"></path><path d="M29.7342 23.8712C30.1388 24.9604 30.4811 25.8939 30.4811 27.1075C30.5122 28.6324 29.7653 30.126 29.423 31.6197C29.0496 33.3312 29.7342 35.105 29.1119 36.7854C28.6451 38.0612 29.2675 38.1857 30.2632 38.6836C31.8814 39.4927 33.2817 40.7374 34.2464 42.2622C35.3978 44.0671 35.3667 45.9964 35.7401 48.0502C36.4247 51.94 36.4869 56.2655 33.1573 59.0662C31.6013 60.3731 30.3255 61.8357 28.4273 62.6759C27.8671 62.9249 27.5871 63.3916 27.0892 63.7028C25.6888 64.5741 23.4172 65.1343 21.799 64.9787C19.7452 64.792 17.7225 64.792 15.7932 63.9206C13.8638 63.0804 12.2457 61.6801 10.5653 60.4976C9.04048 59.4085 8.01358 58.1326 6.79996 56.7323C6.11536 55.9543 5.43075 55.1452 4.87062 54.2739C3.68812 52.4379 2.84792 50.353 2.22555 48.2681C1.54094 46.0275 0.638514 43.8493 0.265093 41.5154C-0.0772096 39.4927 -0.0772133 37.5011 0.202852 35.4784C0.4518 33.5802 0.109499 31.5264 0.233973 29.6281C0.514038 25.6139 1.54095 21.6618 3.68812 18.2388C4.21713 17.4297 4.31048 16.3406 4.65278 15.4381C5.27515 13.82 6.08423 12.2952 7.0489 10.8637C8.91601 8.03196 11.3432 5.57361 14.1439 3.67538C19.8075 -0.152184 26.0934 -0.930144 32.6282 1.06143C34.402 1.59045 35.9268 2.11946 37.2338 3.45755C38.883 5.16907 40.6568 7.68966 40.9369 10.1169C41.1547 12.1085 40.1589 13.9445 39.8166 15.8738C39.5676 17.2119 39.7855 18.5189 38.9453 19.6702C38.1362 20.7905 36.8292 21.4129 35.5845 21.9419C34.7132 22.3153 33.8107 22.6576 32.9394 23.0933C31.8192 23.6534 30.9167 23.56 29.7342 23.8712Z" fill="#E3393A"></path><path d="M39.8169 15.874C39.5679 17.2121 39.7857 18.5191 38.9455 19.6704C38.1365 20.7907 36.8295 21.4131 35.5848 21.9421C34.7134 22.3155 33.811 22.6578 32.9397 23.0935C31.8194 23.6536 30.917 23.5914 29.7345 23.8714C30.139 24.9606 30.4813 25.8941 30.5125 27.0766C30.5436 28.6014 29.7967 30.0951 29.4544 31.5888C29.081 33.3003 29.7656 35.0741 29.1432 36.7545C28.6765 38.0303 29.2988 38.1548 30.2946 38.6527C31.9128 39.4618 33.3131 40.7065 34.2778 42.2313C35.4292 44.0362 35.398 45.9655 35.7715 48.0193C36.4561 51.9091 36.5183 56.2346 33.1886 59.0352C31.6327 60.3422 30.3569 61.8048 28.4586 62.645C27.8985 62.8939 27.6184 63.3607 27.1205 63.6719C25.7202 64.5432 23.4486 65.1033 21.8304 64.9477C21.6748 64.9477 21.4881 64.9166 21.3325 64.9166C21.8927 64.6988 22.4528 64.4498 22.8884 64.1698C27.1517 61.4625 30.7614 57.2615 31.4149 52.0958C32.0373 46.9924 31.1971 40.9866 26.0936 38.3415C24.1332 37.3457 24.6 35.3541 25.0978 33.4248C26.0314 29.6906 26.9338 26.8588 25.5335 23.0624C26.716 22.7512 27.6184 22.8445 28.7387 22.2533C29.9523 21.6309 30.917 21.2886 31.8817 20.3239C32.8463 19.3281 33.7488 18.3324 34.4645 17.1499C35.8648 14.8471 36.8606 11.8908 36.7361 9.15242C36.6117 6.44512 34.7757 3.89341 33.033 1.99519C32.4729 1.40394 31.8817 0.968279 31.2593 0.625977C31.7261 0.75045 32.1928 0.874924 32.6596 0.999398C34.4334 1.52841 35.9582 2.05742 37.2652 3.42663C38.9144 5.13815 40.6882 7.65874 40.9682 10.086C41.155 12.1087 40.1592 13.9447 39.8169 15.874Z" fill="#CC3334"></path><path d="M17.4426 17.99C18.1272 18.9546 18.9985 19.7948 19.901 20.5106C20.8345 21.2263 21.8303 21.8487 22.9194 22.3154C23.1995 22.4399 23.4485 22.5333 23.7285 22.6266C24.0086 22.72 24.2887 22.8133 24.5687 22.8756C25.1288 23.0312 25.689 23.1556 26.2491 23.2801C26.5292 23.3423 26.8092 23.4046 27.1204 23.4357C27.276 23.4668 27.4005 23.4979 27.5561 23.4979C27.7117 23.529 27.8362 23.529 27.9917 23.5602L28.2096 23.5913L28.4274 23.6224L28.8631 23.6846C29.1431 23.7158 29.4543 23.7469 29.7655 23.778V23.8402C29.4854 23.9025 29.1742 23.9336 28.8631 23.9647C28.5519 23.9958 28.2718 24.0269 27.9606 23.9958C27.805 23.9958 27.6494 23.9958 27.4939 23.9958C27.3383 23.9958 27.1827 23.9647 27.0271 23.9647C26.7159 23.9336 26.4358 23.9025 26.1246 23.8714C25.8135 23.8402 25.5334 23.778 25.2222 23.6846L24.7866 23.5602C24.631 23.529 24.5065 23.4668 24.3509 23.4046C23.7908 23.1867 23.2306 22.9689 22.6705 22.6889C21.5814 22.1598 20.5856 21.4752 19.6831 20.6662C19.2475 20.2616 18.8118 19.826 18.4384 19.3903C18.065 18.9235 17.6916 18.4567 17.3804 17.9277L17.4426 17.99Z" fill="#CC3334"></path><path d="M16.6958 45.8098C17.8783 45.4364 18.9986 44.9696 20.1188 44.4717C21.2391 43.9738 22.3282 43.4137 23.3863 42.7913C23.6352 42.6357 23.9153 42.4801 24.1642 42.2934C24.4132 42.1067 24.6621 41.9511 24.9111 41.7644C25.409 41.391 25.8757 41.0487 26.3425 40.6752L26.5292 40.5508L26.7159 40.3952C26.8404 40.3018 26.9338 40.2085 27.0582 40.1151L27.4005 39.8039C27.4939 39.7106 27.6184 39.5861 27.7117 39.4927C28.1474 39.0571 28.5519 38.6214 28.9253 38.1235L28.9876 38.1547C28.7697 38.7459 28.4274 39.2749 28.054 39.8039C27.6806 40.3018 27.2449 40.7686 26.7782 41.2043C25.8446 42.0756 24.7555 42.6979 23.6663 43.2892C22.5772 43.8804 21.4258 44.3783 20.2744 44.814C19.6832 45.0318 19.123 45.2185 18.5318 45.4052C17.9405 45.592 17.3493 45.7475 16.758 45.9031L16.6958 45.8098Z" fill="#CC3334"></path><path d="M18.3449 3.95538C18.3449 3.55084 16.5711 2.74176 12.2768 7.78295C11.1565 9.08992 9.81841 11.6105 10.7208 12.1395C11.7478 12.7619 12.6502 9.49446 14.0505 7.59624C15.2019 6.0092 18.376 5.32459 18.3449 3.95538Z" fill="#FFB8B8"></path><path d="M5.58649 38.0925C5.11972 37.5013 3.34597 43.476 7.76478 52.1892C8.69834 54.0252 9.8186 54.8031 10.8144 54.0563C12.277 52.9671 10.3476 51.6602 8.69834 48.2994C7.67143 46.1833 6.92459 43.6005 6.48894 41.9823C6.14663 40.7376 5.95992 38.5904 5.58649 38.0925Z" fill="#FFB8B8"></path></svg>