<svg width="377" height="305" viewBox="0 0 377 305" fill="none" xmlns="http://www.w3.org/2000/svg">
<rect x="1" width="376" height="305" fill="#F7DEDC"/>
<mask id="mask0" mask-type="alpha" maskUnits="userSpaceOnUse" x="0" y="0" width="377" height="305">
<rect width="377" height="305" fill="#F9F9F9"/>
</mask>
<g mask="url(#mask0)">
<path d="M28.3722 312L13 311.829L13.4392 175.999L58.531 83L72 91.8733L28.8114 180.777L28.3722 312Z" fill="#8C3224"/>
<path d="M143.681 104.145L-10 118.552V-11.4102L143.388 7.26093L143.681 104.145Z" fill="#8A8A8A"/>
<path d="M145.437 103.555L-8.24414 117.815V-12L144.998 6.67108L145.437 103.555Z" fill="#D1D1D1"/>
<path d="M44.4473 94.2943V38.8691L109.432 43.8677V90.6189L44.4473 94.2943ZM48.8382 43.7207V89.7368L105.042 86.5025V48.1312L48.8382 43.7207Z" fill="#8C3224"/>
<path d="M112.653 90.3255C112.946 89.5904 112.068 89.4434 112.068 89.4434L104.164 95.471L96.9922 92.5307V92.6777L90.4059 97.5293L81.0386 93.8539H78.4041L80.0141 94.883L75.4769 99.1464L71.6714 97.3822C70.7932 95.03 69.7687 92.9718 68.7441 91.5016L66.4023 90.1784C72.4032 97.5293 74.1596 112.819 73.7205 122.228C74.0132 121.64 74.1596 120.905 74.4523 120.17L78.2577 117.229L85.2832 121.934L91.5768 116.788L98.8949 120.758L104.896 114.436C104.896 117.671 105.189 120.317 106.213 121.934C104.603 111.055 108.262 99.1464 112.653 90.3255ZM97.2849 93.7068L103.286 96.2061L98.0168 100.323L91.7231 97.8233L97.2849 93.7068ZM73.135 102.528L75.6232 100.176L82.3559 103.263L76.6478 107.379L73.8669 105.909C73.7205 104.733 73.4278 103.704 73.135 102.528ZM75.6232 108.114L74.3059 108.997C74.1596 108.408 74.1596 107.82 74.0132 107.232L75.6232 108.114ZM74.4523 110.32L76.6478 108.703L82.795 112.084L77.965 115.759L74.745 113.554C74.745 112.525 74.5987 111.496 74.4523 110.32ZM77.6723 107.967L83.3804 103.851L89.6741 106.791L83.6732 111.349L77.6723 107.967ZM84.405 103.116L90.5522 98.7054L96.8458 101.205L90.6986 106.056L84.405 103.116ZM90.845 107.232L97.724 110.32L91.284 115.465L84.6977 111.937L90.845 107.232ZM91.8695 106.497L98.1631 101.646L105.189 104.439L98.7486 109.585L91.8695 106.497ZM99.0413 100.911L104.31 96.7942L107.823 98.2643C107.238 100.029 106.652 101.793 106.213 103.704L99.0413 100.911ZM81.185 95.03L89.235 98.2643L83.2341 102.675L76.355 99.5875L81.185 95.03ZM74.4523 99.8815L72.8423 101.499C72.5496 100.617 72.2569 99.7345 72.1105 98.8524L74.4523 99.8815ZM74.5987 118.406C74.745 117.376 74.8914 116.2 74.8914 114.877L77.2332 116.347L74.5987 118.406ZM84.9904 120.464L78.8432 116.347L83.8195 112.525L90.4059 116.053L84.9904 120.464ZM98.6022 119.435L92.455 116.053L98.8949 110.908L104.457 113.407L98.6022 119.435ZM104.896 112.378L99.7731 110.026L105.92 105.174C105.481 107.673 105.042 110.026 104.896 112.378ZM108.262 97.2352L105.335 96.0591L110.458 92.0897C109.726 93.5598 108.994 95.324 108.262 97.2352Z" fill="#8A8A8A"/>
<path d="M64.2061 88.4134C64.2061 95.3232 106.066 96.6463 114.262 89.7365C124.508 80.7685 64.2061 79.4454 64.2061 88.4134ZM95.8205 91.3537C76.2078 92.8239 50.7407 87.3843 76.9396 84.0029C83.0869 83.2678 89.3805 83.2678 90.8441 83.2678C90.8441 83.2678 90.8441 83.2678 90.9905 83.2678C93.625 83.2678 96.9914 83.4148 99.9186 83.7089C122.019 85.9141 114.848 90.4716 95.8205 91.3537Z" fill="#FF4700"/>
<path d="M262.161 265.791C259.819 268.143 253.086 290.49 251.623 297.4C250.598 302.104 265.234 329.89 263.332 334.154C263.039 334.595 270.357 332.684 270.064 332.096C266.259 327.244 266.552 313.865 265.674 307.397C264.942 302.251 262.454 301.075 262.746 299.458C263.039 297.841 276.212 273.142 277.968 269.32C281.334 262.263 263.332 264.468 262.161 265.791Z" fill="#F2B272"/>
<path d="M280.605 265.646C280.458 272.703 269.481 286.817 265.676 299.166C265.529 299.754 251.186 294.903 250.454 294.609C249.576 294.314 258.065 260.06 271.091 255.796C275.043 254.473 280.751 260.06 280.605 265.646Z" fill="#699E01"/>
<path d="M315.736 317.834C311.198 315.482 303.588 305.044 300.807 299.457C298.758 295.341 294.806 294.9 292.903 294.017C289.829 292.547 289.683 284.167 289.683 284.314C288.512 285.785 280.609 289.46 278.852 290.636C278.559 290.783 280.316 294.606 282.804 297.693C285.878 301.662 309.735 320.186 310.759 322.539C310.613 322.392 316.467 318.275 315.736 317.834Z" fill="#F2B272"/>
<path d="M293.779 286.817C291.144 290.345 284.704 296.667 280.606 297.402C279.728 297.549 262.164 261.089 263.043 260.354C264.067 259.472 278.557 250.504 283.826 260.648C284.558 262.118 292.315 283.436 293.779 286.817Z" fill="#8BC21F"/>
<path d="M258.216 218.748C253.24 215.808 240.067 209.192 239.921 209.192C237.725 207.134 229.236 200.371 224.406 196.548C223.967 195.519 223.089 192.138 222.65 191.403C222.211 190.668 220.893 189.492 219.722 188.168C219.283 187.874 217.966 183.758 217.527 185.375C217.088 187.139 219.283 191.109 219.283 192.873C219.137 194.49 215.478 190.521 216.063 192.285C216.649 194.049 220.015 198.019 221.04 198.754C224.992 204.928 233.334 213.896 234.651 214.778C236.261 216.249 250.751 229.333 255.289 230.95C259.533 232.567 263.192 221.835 258.216 218.748Z" fill="#F2B272"/>
<path d="M269.777 221.243C267.436 223.595 258.507 228.594 255.726 228.741C258.654 220.949 255.141 213.598 254.117 213.01C253.238 212.422 251.628 211.54 250.311 210.658C249.14 209.776 251.482 208.305 251.628 207.276C251.775 206.688 251.775 206.247 251.921 206.247C252.36 206.1 252.653 206.688 253.531 206.982C253.97 207.129 252.653 206.1 252.507 205.218C252.507 204.777 252.946 204.777 252.946 204.777C253.97 204.336 253.824 203.748 253.824 203.748C253.824 203.748 252.36 201.984 252.799 201.102C253.092 200.514 256.019 200.808 257.044 199.778C257.629 199.337 259.678 195.074 263.045 193.898C265.386 193.163 269.924 193.898 274.461 198.602C277.827 202.278 277.535 205.512 275.778 209.188C272.851 215.068 266.411 214.921 266.557 215.95C266.557 216.685 268.753 218.009 269.777 221.243Z" fill="#F2B272"/>
<path d="M275.926 209.631C281.927 203.898 276.95 196.4 271.974 193.901C267.876 191.99 261.875 190.519 262.021 189.931C268.022 187.432 253.971 189.049 257.777 194.636C259.24 196.694 262.168 198.017 263.485 199.046C264.363 199.781 262.753 206.103 262.607 206.25C262.314 206.691 263.485 207.279 263.777 207.279C263.924 207.426 268.022 203.457 268.461 207.426C268.754 209.484 266.266 210.955 265.095 211.837C263.338 213.16 264.802 217.276 267.437 217.423C267.583 217.423 274.462 212.131 275.926 209.631Z" fill="#342618"/>
<path d="M280.607 244.771C280.314 239.478 274.898 222.572 271.532 217.132C270.508 215.515 256.457 220.366 256.31 220.66C256.018 221.836 253.237 235.068 253.676 238.449C254.554 245.506 256.164 248.74 257.042 255.797C258.359 267.412 256.31 271.822 256.31 272.41C256.164 279.173 290.852 270.646 289.388 267.117C287.778 262.854 280.899 248.593 280.607 244.771Z" fill="#7D447D"/>
<path d="M267.728 253.3C271.387 248.742 273.436 237.863 271.973 226.984C270.509 216.104 261.142 220.221 259.532 227.131C258.946 229.63 260.703 242.273 259.239 248.007C257.336 249.624 247.384 261.533 245.042 262.268C244.164 262.562 242.846 261.533 241.675 262.121C239.773 263.003 236.406 262.121 236.26 262.562C236.114 264.032 238.455 264.326 238.602 264.326C238.895 264.326 238.748 266.237 237.577 267.119C236.406 268.148 234.211 268.295 234.211 269.177C234.357 270.206 240.797 269.912 241.383 269.471C242.407 268.736 246.359 266.09 246.505 265.943C247.091 265.649 263.044 256.975 267.728 253.3Z" fill="#F2B272"/>
<path d="M80.7232 297.684L66.8187 291.068C65.3551 298.272 64.3306 308.122 62.1351 309.298C54.9633 312.974 54.0851 339.437 50.8652 345.611C49.2552 348.846 56.7197 348.699 56.7197 348.699C56.7197 348.699 63.4524 330.175 70.7705 317.972C72.3805 315.326 77.3569 306.211 80.7232 297.684Z" fill="#D17B30"/>
<path d="M87.3065 278.135C86.282 274.313 75.4511 273.283 70.7675 272.695C67.6939 272.401 60.6685 304.157 61.1076 305.627C61.1076 305.627 78.9638 308.126 80.2811 308.273C81.452 308.42 87.892 280.193 87.3065 278.135Z" fill="#9A3007"/>
<path d="M102.385 300.629C102.239 300.188 87.3101 302.981 87.3101 303.716C86.871 310.773 86.5783 316.948 86.5783 316.948C86.5783 316.948 83.5047 318.712 82.9192 323.858C79.8456 345.175 75.7474 351.644 76.6256 352.82C77.9429 354.437 80.8701 355.172 82.3338 354.437C83.7974 353.702 96.2382 329.15 99.6046 319.006C100.775 315.037 103.703 303.716 102.385 300.629Z" fill="#D17B30"/>
<path d="M102.676 266.373C102.676 266.373 84.527 261.521 82.0388 261.521C81.1607 261.521 74.1352 271.519 76.1843 278.428C77.0625 281.663 80.8679 285.191 82.0388 288.72C85.2588 298.864 82.917 308.126 83.3561 308.861C83.3561 308.861 102.822 308.126 105.311 306.95C107.652 305.626 102.676 266.373 102.676 266.373Z" fill="#AB3A0E"/>
<path d="M98.5768 153.469C98.1377 153.469 96.235 154.498 95.7959 154.939C96.0887 153.91 97.1132 148.47 96.5277 148.176C95.7959 147.735 94.9178 150.087 94.625 151.116C94.7714 150.087 95.6496 147.147 94.9177 147C94.1859 147 93.4541 150.381 93.015 151.705C93.3078 150.675 93.6005 147.588 92.8687 147.882C92.1369 148.029 91.8441 151.41 91.5514 152.881C91.6978 151.852 91.8441 149.793 90.8196 149.94C89.9414 150.087 90.5269 155.527 90.0878 158.467C87.4532 163.172 73.8415 187.283 74.1342 189.341C74.5733 194.045 65.9379 214.922 69.8897 223.155C71.207 225.948 77.0615 227.859 81.1596 223.449C85.2578 219.038 83.2087 201.69 86.5751 188.312C88.1851 182.137 94.625 161.702 95.5032 158.761C96.0887 157.585 96.6741 156.556 97.845 155.38C98.4305 154.645 99.6014 153.469 98.5768 153.469Z" fill="#B56B2A"/>
<path d="M96.822 187.439C92.8702 182.441 85.6984 182.147 79.6976 186.41C69.1594 194.055 86.1375 206.551 80.1367 210.962C76.1848 213.755 93.8948 214.343 93.163 211.697C91.6993 206.404 96.0902 206.698 96.5293 206.257C100.042 201.994 100.627 192.291 96.822 187.439Z" fill="#D17B30"/>
<path d="M95.6496 180.674C92.7224 178.91 87.4533 176.264 81.3061 179.498C79.4034 180.38 82.1842 180.38 82.3306 181.115C82.6233 181.997 81.5988 181.262 78.3788 183.909C65.6452 194.2 81.7452 209.49 82.6233 209.195C83.6479 208.901 87.746 208.46 90.5269 206.549C92.7224 204.932 92.2833 199.933 93.4542 198.169C94.0396 197.287 94.7715 199.786 95.5033 199.639C95.9424 199.492 96.8205 198.757 96.3815 197.14C95.0642 192.877 98.8696 189.642 98.8696 187.143C98.8696 183.909 97.8451 181.997 95.6496 180.674Z" fill="#342618"/>
<path d="M71.3523 213.746C67.2541 220.656 73.9868 244.179 71.4987 250.794C69.0105 257.263 66.815 266.378 63.3023 271.818C61.6923 274.317 64.3269 276.522 81.4513 276.963C98.7222 277.404 106.479 277.257 106.772 274.905C107.065 272.553 102.967 260.497 103.259 251.529C103.699 238.886 107.797 219.333 104.577 214.775C103.259 213.011 94.4776 210.659 93.014 211.1C92.2822 211.247 89.6477 213.158 84.9641 213.011C80.2804 212.864 80.4268 210.806 79.5486 210.953C78.2314 211.1 72.3768 211.982 71.3523 213.746Z" fill="#553DA5"/>
<path d="M131.067 170.079C130.628 169.344 129.457 171.843 128.872 172.285C129.165 170.814 130.336 166.992 129.165 166.551C128.726 166.404 127.701 169.344 127.408 169.344C127.116 169.344 127.701 164.493 126.677 165.081C125.359 165.816 125.652 169.05 125.506 169.491C125.359 167.727 125.506 165.816 124.627 165.963C123.749 166.11 123.603 169.638 123.603 171.255C123.603 173.314 123.457 174.784 123.017 174.196C121.993 172.284 119.066 171.843 120.529 174.049C121.993 176.107 123.164 178.9 123.017 181.253C121.847 183.458 117.456 201.247 114.382 204.775C106.186 208.745 101.356 210.215 98.8676 213.008C95.9403 216.536 96.8185 223.005 99.453 226.534C103.99 232.561 123.017 211.685 125.213 206.98C127.408 202.276 128.726 192.72 128.14 179.635C127.994 178.018 129.165 176.695 129.896 174.637C130.628 173.02 131.36 170.52 131.067 170.079Z" fill="#D17B30"/>
<path d="M163.341 126.078C163.341 127.842 162.901 129.753 162.17 131.518C159.389 138.574 152.217 142.691 144.899 141.662C143.582 141.515 142.411 141.221 141.24 140.633C129.97 136.222 127.628 121.374 136.41 113.435C136.702 113.141 136.995 112.847 137.288 112.7C144.46 107.113 154.266 108.73 159.242 114.758C161.731 117.551 163.048 121.08 163.341 124.755C163.341 125.196 163.341 125.637 163.341 126.078Z" fill="#8A3500"/>
<path d="M156.461 138.869C156.169 139.163 155.876 139.31 155.583 139.457C152.949 135.782 150.168 129.754 151.778 122.403C151.778 122.109 151.924 121.962 151.924 121.668C150.46 121.374 148.85 121.08 147.24 121.08C146.655 121.08 145.923 121.08 145.338 120.933C145.045 122.55 144.752 124.314 144.752 126.373C144.606 132.253 145.191 137.546 146.07 141.662C145.63 141.662 145.338 141.662 144.899 141.515C144.167 137.399 143.435 132.106 143.581 126.226C143.581 124.314 143.874 122.403 144.167 120.786C142.118 120.786 140.361 120.933 138.605 121.227C138.605 122.256 138.605 123.432 138.459 124.608C138.02 128.872 136.702 133.135 135.239 136.517C134.946 136.223 134.653 135.929 134.36 135.635C135.678 132.4 136.849 128.431 137.288 124.608C137.434 123.579 137.434 122.55 137.434 121.521C134.8 122.109 132.604 122.844 130.994 123.726C130.994 123.285 131.141 122.844 131.141 122.403C132.897 121.668 134.946 120.933 137.434 120.492C137.288 117.552 136.849 115.199 136.263 113.582C136.556 113.288 136.849 112.994 137.141 112.847C137.873 114.611 138.459 116.964 138.605 120.345C140.361 120.051 142.264 119.904 144.313 120.051C145.338 115.346 147.24 111.965 148.997 109.76C149.436 109.76 149.729 109.907 150.168 109.907C148.558 111.818 146.509 115.199 145.338 120.051C145.923 120.051 146.509 120.051 147.094 120.198C148.85 120.345 150.607 120.639 152.07 120.933C153.388 117.552 155.876 115.493 158.218 114.317C158.51 114.611 158.803 114.905 158.949 115.199C156.754 116.228 154.412 118.14 153.095 121.227C157.486 122.256 160.706 123.726 163.048 125.049C163.048 125.491 163.048 125.932 163.048 126.373C160.852 124.902 157.486 123.285 152.802 122.256C152.802 122.55 152.656 122.697 152.656 122.991C151.192 129.754 153.973 135.488 156.461 138.869Z" fill="#2B2B2B"/>
<path d="M176.511 267.959L172.998 278.103C193.489 286.483 212.662 286.483 212.955 286.189C213.248 285.895 217.2 279.867 215.004 279.867C206.808 279.72 188.366 262.813 176.511 267.959Z" fill="#CC813B"/>
<path d="M213.982 279.869C213.689 281.633 212.372 282.956 211.201 286.338C210.908 287.22 212.372 286.485 212.518 286.485C213.689 286.779 210.762 297.07 213.689 295.747C216.177 294.57 218.372 287.367 220.275 283.103C221.592 279.869 214.274 278.252 213.982 279.869Z" fill="#794BB8"/>
<path d="M191.882 267.957C191.443 265.752 184.564 259.724 180.905 246.934C180.466 245.169 185.15 237.672 176.221 228.851C175.197 227.968 157.194 234.143 157.487 238.701C158.951 257.813 169.928 275.749 170.221 277.366C174.611 282.071 191.882 267.957 191.882 267.957Z" fill="#776145"/>
<path d="M187.194 303.097C180.169 299.716 169.631 271.636 155.287 273.4L148.115 280.604C156.165 292.218 181.925 308.831 182.803 307.949C183.828 307.214 188.219 303.538 187.194 303.097Z" fill="#EB9642"/>
<path d="M187.193 302.952C186.169 303.246 182.363 306.922 182.071 307.657C181.778 308.392 182.803 308.833 183.242 309.274C184.266 310.156 177.241 317.948 179.583 319.418C181.924 320.888 194.072 307.951 192.902 306.334C192.609 305.599 188.072 302.658 187.193 302.952Z" fill="#794BB8"/>
<path d="M177.387 234.735C177.534 233.559 153.823 233.559 153.237 236.205C149.578 241.057 143.87 279.134 145.919 281.339C147.968 283.545 165.386 279.575 166.703 277.517C168.02 275.606 169.337 258.552 172.557 249.29C172.557 248.408 180.022 246.938 177.387 234.735Z" fill="#81694C"/>
<path d="M193.493 186.952C193.2 182.983 184.857 171.515 179.735 163.724C175.929 157.843 168.318 141.671 167.733 139.025C167.147 136.378 167.147 131.233 166.269 130.057C163.049 125.94 163.049 124.47 162.464 124.911C161.293 125.646 162.171 126.969 163.342 129.763C163.781 130.645 163.342 131.968 162.464 133.879C161.586 135.79 159.829 133.144 158.658 134.32C157.487 135.496 162.317 136.82 163.342 139.613C163.342 139.613 167.147 160.489 171.392 170.192C175.344 179.454 180.174 193.274 185.004 195.038C189.248 196.361 193.932 194.303 193.493 186.952Z" fill="#C6792E"/>
<path d="M203.153 162.696C206.519 166.812 205.787 170.193 203.885 174.163C201.25 179.456 193.639 179.603 192.029 181.367C190.273 182.984 190.858 186.512 191.444 189.306C186.467 189.159 173.587 183.572 173.587 183.572C173.148 182.837 181.784 180.338 182.077 177.544C182.077 177.25 180.174 174.898 179.735 174.163C178.857 172.84 179.588 171.664 180.174 169.164C180.467 168.135 181.198 166.665 182.077 165.489C182.516 164.901 181.784 163.137 182.223 162.108C182.662 161.078 183.979 163.578 187.931 158.432C190.566 154.61 198.762 157.256 203.153 162.696Z" fill="#D6802B"/>
<path d="M191.005 153.286C191.737 152.845 194.664 150.64 195.396 151.081C195.542 151.228 193.786 153.286 195.396 154.903C196.274 151.816 200.519 153.139 202.421 150.934C203.446 154.315 200.665 154.168 201.69 156.52C202.861 159.019 209.447 164.018 207.544 170.046C206.52 173.427 202.421 179.014 199.201 180.484C195.689 182.101 193.201 180.337 191.737 181.513C191.005 181.513 183.541 178.132 185.297 176.808C187.2 175.338 186.907 170.634 187.346 170.046C187.639 169.752 189.102 169.899 190.273 168.576C191.005 167.693 190.712 166.811 189.542 166.517C188.956 166.37 184.419 170.781 184.272 170.34C183.833 168.87 190.273 161.078 189.834 160.49C188.956 160.343 187.785 155.344 191.005 153.286Z" fill="#342618"/>
<path d="M174.173 181.365C179.881 179.16 183.394 181.512 187.931 183.864C194.664 187.246 192.908 184.452 193.2 185.775C195.249 193.126 189.541 206.946 184.272 218.413C179.296 229.145 186.468 233.997 186.907 243.994C185.15 243.112 153.097 241.201 148.706 239.583C149.292 232.527 155 210.621 156.61 206.799C161.293 195.773 168.465 183.423 174.173 181.365Z" fill="#123643"/>
<path d="M181.49 184.451C177.392 183.422 165.39 185.922 161.731 185.775C158.072 185.628 149.729 165.192 149.729 165.192C149.583 164.163 152.364 158.283 151.778 157.694C150.315 156.371 150.022 159.459 149.144 159.753C148.266 160.194 148.266 152.843 147.534 152.99C146.07 153.137 146.656 155.93 146.509 156.224C146.363 159.165 146.363 151.961 145.046 152.255C143.728 152.549 144.899 156.518 144.46 156.959C144.021 157.4 143.143 153.137 142.558 153.725C141.24 154.754 143.143 158.283 142.558 159.165C142.411 159.459 141.826 155.636 140.948 156.812C140.069 157.989 144.46 167.104 145.192 167.692C145.192 167.692 149.437 188.421 153.096 194.302C154.852 197.095 179.295 203.417 182.661 198.271C186.466 193.419 186.027 185.628 181.49 184.451Z" fill="#C6792E"/>
<path d="M332.291 56.4415C332.291 55.5656 331.793 52.8125 331.918 52.4371C331.42 50.0594 331.047 49.9343 330.549 48.808C330.176 47.932 327.688 46.6806 326.693 46.1801C325.697 45.6795 325.324 45.9298 325.075 48.6829C325.075 48.6829 323.458 49.8091 323.831 50.6851C324.453 52.1868 324.453 52.6873 324.827 53.313C325.075 53.8136 328.559 56.5667 329.43 57.6929C330.798 61.6974 333.659 69.331 334.281 74.5868C334.53 76.8394 331.42 80.7187 328.061 84.8483L334.903 90.2293C338.511 84.3478 341.248 77.8405 341.621 75.9634C342.368 72.084 335.526 61.1969 332.291 56.4415Z" fill="#8E6032"/>
<path d="M328.061 84.4727C321.592 89.3531 317.86 96.8615 320.224 99.6146C324.329 104.37 331.172 97.8626 335.775 90.3542L328.061 84.4727Z" fill="#743E9F"/>
<path d="M332.294 53.5656C332.045 53.5656 331.921 53.6908 331.797 53.6908L323.461 43.8047L321.098 42.303H320.973C319.729 40.8013 313.509 33.0427 312.14 31.4158C315.873 28.5376 312.762 19.6527 305.92 13.8963C299.451 8.51523 293.355 8.89065 292.733 13.8963C292.235 18.4013 295.719 24.1577 300.197 28.0371C303.183 30.5399 307.911 33.4181 311.394 31.6661C313.011 33.6684 318.858 40.8013 320.351 42.6784L321.346 45.0561L329.682 55.0673C329.557 55.1924 329.433 55.3176 329.433 55.5679C329.806 56.0684 330.179 56.4438 330.553 56.9444C331.921 56.8192 333.041 55.9433 333.414 54.6919C333.041 54.4416 332.667 53.941 332.294 53.5656ZM307.537 31.1656L306.915 30.4147L307.662 30.1644L308.284 30.9153L307.537 31.1656ZM306.169 30.7901L306.791 30.4147L307.289 31.1656C306.915 31.0404 306.542 30.9153 306.169 30.7901ZM300.073 26.9108L300.695 26.6605L301.317 27.5365L300.819 27.6616C300.819 27.5365 300.322 27.0359 300.073 26.9108ZM299.078 25.9097H299.202L299.7 26.6605C299.575 26.4102 299.327 26.16 299.078 25.9097ZM309.279 18.7767C309.403 18.9018 309.403 19.027 309.528 19.027L308.781 19.2773L308.159 18.4013L308.906 18.151C309.03 18.4013 309.155 18.5264 309.279 18.7767ZM312.016 29.789L312.14 29.5387C312.016 29.6639 312.016 29.6639 312.016 29.789ZM294.35 18.5264L294.723 18.4013L295.345 19.2773L294.599 19.5275C294.599 19.1521 294.475 18.7767 294.35 18.5264ZM302.437 12.5197L301.815 12.77L301.193 12.0192H301.317C301.69 12.1443 302.063 12.3946 302.437 12.5197ZM312.638 27.6616L312.265 27.1611L312.638 27.0359C312.638 27.1611 312.638 27.4114 312.638 27.6616ZM293.728 14.8974L294.226 14.6471L294.848 15.3979L294.101 15.6482L293.728 15.2728C293.728 15.1477 293.728 15.0225 293.728 14.8974ZM312.638 26.7857L312.14 26.9108L311.518 26.16L312.265 25.9097L312.514 26.2851C312.638 26.5354 312.638 26.6605 312.638 26.7857ZM311.518 26.0348L310.896 25.284L311.643 25.0337L312.265 25.7845L311.518 26.0348ZM293.977 13.7711L294.475 13.5208L294.972 14.2717L294.226 14.522L293.853 14.0214C293.853 13.8963 293.853 13.7711 293.977 13.7711ZM293.977 13.5208C293.977 13.3957 294.101 13.2706 294.101 13.0203L294.35 13.2706L293.977 13.5208ZM306.044 23.1566L305.422 22.2806L306.169 22.0303L306.791 22.9063L306.044 23.1566ZM306.915 22.9063L307.537 23.7823L306.791 24.0326L306.169 23.2817L306.915 22.9063ZM305.92 23.1566L305.174 23.4069L304.552 22.5309L305.298 22.2806L305.92 23.1566ZM304.427 22.4058L303.805 21.5298L304.552 21.2795L305.174 22.1555L304.427 22.4058ZM303.681 21.4046L303.059 20.5287L303.681 20.1532L304.303 21.0292L303.681 21.4046ZM303.556 21.4046L302.81 21.6549L302.188 20.7789L302.934 20.5287L303.556 21.4046ZM302.934 20.2784L302.312 19.4024L303.059 19.1521L303.681 20.0281L302.934 20.2784ZM302.81 20.4035L302.063 20.6538L301.441 19.7778L302.188 19.5275L302.81 20.4035ZM301.317 19.6527L300.571 18.7767L301.317 18.5264L301.939 19.4024L301.317 19.6527ZM299.7 17.7756L300.322 18.6516L299.575 18.9018L298.953 18.0259L299.7 17.7756ZM298.953 17.9007L298.331 17.0248L299.078 16.7745L299.7 17.6504L298.953 17.9007ZM300.446 18.7767L301.193 19.6527L300.446 19.903L299.824 19.027L300.446 18.7767ZM300.571 18.6516L299.949 17.7756L300.695 17.5253L301.317 18.4013L300.571 18.6516ZM299.824 17.5253L299.202 16.6493L299.949 16.3991L300.571 17.275L299.824 17.5253ZM299.078 16.5242L298.456 15.6482L299.202 15.3979L299.7 16.2739L299.078 16.5242ZM298.207 15.5231L297.585 14.6471L298.331 14.3968L298.953 15.2728L298.207 15.5231ZM298.082 15.5231L297.46 15.7734L296.838 14.8974L297.46 14.6471L298.082 15.5231ZM298.207 15.6482L298.829 16.5242L298.082 16.7745L297.46 15.8985L298.207 15.6482ZM298.829 17.9007L298.082 18.151L297.46 17.275L298.207 17.0248L298.829 17.9007ZM298.829 18.0259L299.451 18.9018L298.704 19.1521L298.082 18.2761L298.829 18.0259ZM299.7 19.1521L300.322 20.0281L299.575 20.2784L298.953 19.4024L299.7 19.1521ZM300.446 20.1532L301.068 21.0292L300.322 21.2795L299.7 20.4035L300.446 20.1532ZM300.571 20.1532L301.317 19.903L301.939 20.7789L301.193 21.0292L300.571 20.1532ZM302.063 20.9041L302.685 21.7801L301.939 22.0303L301.317 21.1544L302.063 20.9041ZM302.81 21.9052L303.432 22.7812L302.685 23.0315L302.063 22.1555L302.81 21.9052ZM302.934 21.7801L303.681 21.5298L304.303 22.4058L303.556 22.656L302.934 21.7801ZM304.427 22.5309L305.049 23.4069L304.303 23.7823L303.681 22.9063L304.427 22.5309ZM305.174 23.6572L305.796 24.5331L305.049 24.7834L304.427 23.9074L305.174 23.6572ZM305.298 23.532L306.044 23.2817L306.666 24.1577L305.92 24.408L305.298 23.532ZM306.791 24.2829L307.413 25.1588L306.666 25.4091L306.044 24.5331L306.791 24.2829ZM306.915 24.2829L307.662 24.0326L308.284 24.9086L307.537 25.1588L306.915 24.2829ZM307.786 23.9074L308.533 23.6572L309.155 24.5331L308.408 24.7834L307.786 23.9074ZM307.662 23.7823L307.04 22.9063L307.786 22.656L308.408 23.532L307.662 23.7823ZM306.915 22.7812L306.169 21.9052L306.915 21.6549L307.537 22.5309L306.915 22.7812ZM306.169 21.7801L305.547 20.9041L306.169 20.5287L306.791 21.4046L306.169 21.7801ZM306.044 21.7801L305.298 22.0303L304.676 21.1544L305.422 20.9041L306.044 21.7801ZM304.552 21.0292L303.93 20.1532L304.676 19.903L305.298 20.7789L304.552 21.0292ZM303.805 20.0281L303.183 19.1521L303.805 18.7767L304.427 19.6527L303.805 20.0281ZM303.059 18.9018L302.437 18.0259L303.183 17.7756L303.681 18.6516L303.059 18.9018ZM302.934 19.027L302.188 19.2773L301.566 18.4013L302.312 18.151L302.934 19.027ZM301.441 18.2761L300.819 17.4002L301.566 17.1499L302.188 18.0259L301.441 18.2761ZM300.571 17.275L299.949 16.2739L300.695 16.0236L301.317 16.8996L300.571 17.275ZM299.824 16.1488L299.202 15.2728L299.949 15.0225L300.571 15.8985L299.824 16.1488ZM299.078 15.1477L298.456 14.2717L299.202 14.0214L299.824 14.8974L299.078 15.1477ZM298.331 14.1465L297.709 13.3957L298.456 13.1454L299.078 13.8963L298.331 14.1465ZM298.207 14.1465L297.46 14.3968L296.838 13.646L297.585 13.3957L298.207 14.1465ZM297.336 14.522L296.59 14.7722L295.968 14.0214L296.838 13.7711L297.336 14.522ZM296.465 14.8974L295.719 15.1477L295.097 14.3968L295.843 14.1465L296.465 14.8974ZM296.59 15.0225L297.212 15.8985L296.465 16.1488L295.843 15.2728L296.59 15.0225ZM297.336 16.0236L297.958 16.8996L297.212 17.1499L296.59 16.2739L297.336 16.0236ZM297.958 18.2761L297.212 18.5264L296.59 17.6504L297.336 17.4002L297.958 18.2761ZM298.082 18.4013L298.704 19.2773L297.958 19.5275L297.336 18.6516L298.082 18.4013ZM298.829 19.4024L299.451 20.2784L298.704 20.6538L298.082 19.7778L298.829 19.4024ZM299.575 20.5287L300.197 21.4046L299.451 21.6549L298.829 20.7789L299.575 20.5287ZM300.322 21.5298L300.944 22.4058L300.197 22.656L299.575 21.7801L300.322 21.5298ZM300.446 21.4046L301.193 21.1544L301.815 22.0303L301.068 22.2806L300.446 21.4046ZM301.939 22.1555L302.561 23.0315L301.815 23.2817L301.193 22.5309L301.939 22.1555ZM302.685 23.2817L303.308 24.1577L302.561 24.408L301.939 23.532L302.685 23.2817ZM302.81 23.1566L303.556 22.9063L304.178 23.7823L303.432 24.0326L302.81 23.1566ZM304.303 23.9074L304.925 24.7834L304.178 25.0337L303.556 24.1577L304.303 23.9074ZM305.049 25.0337L305.671 25.9097L304.925 26.16L304.303 25.284L305.049 25.0337ZM305.174 24.9086L305.92 24.6583L306.542 25.5343L305.796 25.7845L305.174 24.9086ZM306.666 25.6594L307.289 26.5354L306.542 26.7857L305.92 25.9097L306.666 25.6594ZM306.791 25.6594L307.537 25.4091L308.159 26.2851L307.413 26.4102L306.791 25.6594ZM307.662 25.284L308.408 25.0337L309.03 25.9097L308.284 26.16L307.662 25.284ZM308.533 24.9086L309.279 24.6583L309.901 25.5343L309.155 25.7845L308.533 24.9086ZM309.403 24.6583L310.15 24.408L310.772 25.284L310.025 25.5343L309.403 24.6583ZM309.279 24.5331L308.657 23.6572L309.403 23.4069L310.025 24.2829L309.279 24.5331ZM308.533 23.4069L307.786 22.5309L308.533 22.2806L309.155 23.1566L308.533 23.4069ZM307.786 22.4058L307.164 21.5298L307.786 21.2795L308.408 22.1555L307.786 22.4058ZM307.04 21.4046L306.418 20.5287L307.164 20.2784L307.786 21.1544L307.04 21.4046ZM306.169 20.4035L305.547 19.5275L306.293 19.2773L306.915 20.0281L306.169 20.4035ZM306.044 20.4035L305.298 20.6538L304.676 19.7778L305.422 19.5275L306.044 20.4035ZM304.676 19.6527L303.93 18.7767L304.676 18.5264L305.298 19.4024L304.676 19.6527ZM303.805 18.6516L303.183 17.7756L303.93 17.5253L304.552 18.4013L303.805 18.6516ZM303.059 17.6504L302.437 16.6493L303.183 16.3991L303.805 17.275L303.059 17.6504ZM302.934 17.6504L302.188 17.9007L301.566 17.0248L302.312 16.7745L302.934 17.6504ZM301.441 16.8996L300.819 16.0236L301.566 15.7734L302.188 16.6493L301.441 16.8996ZM300.695 15.8985L300.073 15.0225L300.819 14.7722L301.441 15.6482L300.695 15.8985ZM299.949 14.7722L299.327 13.8963L300.073 13.646L300.695 14.522L299.949 14.7722ZM299.202 13.7711L298.704 13.0203L299.451 12.77L299.949 13.5208L299.202 13.7711ZM298.58 12.8951L298.082 12.1443L298.704 11.894L299.202 12.6449L298.58 12.8951ZM298.456 12.8951L297.709 13.1454L297.212 12.5197L297.958 12.2694L298.456 12.8951ZM297.585 13.2706L296.838 13.5208L296.341 12.77L297.087 12.5197L297.585 13.2706ZM296.714 13.646L295.968 13.8963L295.47 13.1454L296.216 12.8951L296.714 13.646ZM295.843 13.8963L295.097 14.1465L294.599 13.3957L295.345 13.1454L295.843 13.8963ZM295.097 14.3968L295.719 15.1477L294.972 15.3979L294.35 14.6471L295.097 14.3968ZM295.719 15.2728L296.341 16.1488L295.594 16.3991L294.972 15.5231L295.719 15.2728ZM296.465 16.3991L297.087 17.275L296.465 17.5253L295.843 16.6493L296.465 16.3991ZM297.087 18.6516L296.341 18.9018L295.719 18.0259L296.465 17.7756L297.087 18.6516ZM297.212 18.7767L297.834 19.6527L297.087 19.903L296.465 19.027L297.212 18.7767ZM297.958 19.7778L298.58 20.6538L297.834 20.9041L297.212 20.0281L297.958 19.7778ZM298.704 20.7789L299.327 21.6549L298.58 21.9052L297.958 21.0292L298.704 20.7789ZM299.451 21.7801L300.073 22.656L299.327 22.9063L298.704 22.1555L299.451 21.7801ZM300.197 22.9063L300.819 23.7823L300.073 24.0326L299.451 23.1566L300.197 22.9063ZM300.322 22.7812L301.068 22.5309L301.69 23.4069L300.944 23.6572L300.322 22.7812ZM301.815 23.532L302.437 24.408L301.69 24.6583L301.068 23.7823L301.815 23.532ZM302.561 24.6583L303.183 25.5343L302.437 25.7845L301.815 24.9086L302.561 24.6583ZM302.685 24.5331L303.432 24.2829L304.054 25.1588L303.308 25.4091L302.685 24.5331ZM304.178 25.284L304.8 26.16L304.054 26.4102L303.432 25.5343L304.178 25.284ZM304.925 26.2851L305.547 27.1611L304.8 27.4114L304.178 26.5354L304.925 26.2851ZM305.049 26.2851L305.796 26.0348L306.418 26.9108L305.671 27.1611L305.049 26.2851ZM306.542 27.0359L307.164 27.9119L306.418 28.1622L305.796 27.2862L306.542 27.0359ZM306.666 26.9108L307.413 26.6605L308.035 27.5365L307.289 27.7868L306.666 26.9108ZM307.537 26.6605L308.284 26.4102L308.906 27.2862L308.159 27.5365L307.537 26.6605ZM308.408 26.2851L309.155 26.0348L309.777 26.9108L309.03 27.1611L308.408 26.2851ZM309.155 25.9097L309.901 25.6594L310.523 26.5354L309.777 26.7857L309.155 25.9097ZM310.025 25.6594L310.772 25.4091L311.394 26.16L310.648 26.4102L310.025 25.6594ZM310.772 25.1588L310.15 24.2829L310.896 24.0326L311.518 24.9086L310.772 25.1588ZM310.15 24.1577L309.528 23.2817L310.274 23.0315L310.896 23.9074L310.15 24.1577ZM309.403 23.1566L308.657 22.2806L309.403 22.0303L310.025 22.9063L309.403 23.1566ZM308.657 22.1555L308.035 21.2795L308.657 20.9041L309.279 21.7801L308.657 22.1555ZM307.786 21.0292L307.164 20.1532L307.911 19.903L308.533 20.7789L307.786 21.0292ZM307.04 20.0281L306.418 19.1521L307.164 18.9018L307.786 19.7778L307.04 20.0281ZM306.293 19.027L305.671 18.151L306.418 17.9007L307.04 18.7767L306.293 19.027ZM306.169 19.027L305.422 19.2773L304.8 18.4013L305.547 18.151L306.169 19.027ZM304.676 18.2761L304.054 17.4002L304.8 17.1499L305.422 18.0259L304.676 18.2761ZM303.93 17.275L303.308 16.3991L304.054 16.1488L304.676 17.0248L303.93 17.275ZM303.183 16.2739L302.561 15.3979L303.308 15.0225L303.93 15.8985L303.183 16.2739ZM303.059 16.2739L302.312 16.5242L301.69 15.6482L302.437 15.3979L303.059 16.2739ZM301.566 15.5231L300.944 14.6471L301.69 14.3968L302.312 15.2728L301.566 15.5231ZM300.819 14.522L300.197 13.646L300.944 13.3957L301.566 14.2717L300.819 14.522ZM300.322 12.3946L301.068 12.1443L301.69 12.8951L300.944 13.1454L300.322 12.3946ZM300.819 13.1454L300.073 13.3957L299.451 12.6449L300.197 12.3946L300.819 13.1454ZM299.451 12.5197L298.953 11.7689L299.7 11.5186L300.197 12.2694L299.451 12.5197ZM299.575 11.3935C299.7 11.3935 299.7 11.3935 299.575 11.3935V11.3935ZM299.575 11.3935L298.829 11.6437L298.331 11.018C298.704 11.1432 299.078 11.2683 299.575 11.3935ZM298.207 11.1432L298.704 11.7689L297.958 12.0192L297.46 11.3935L298.207 11.1432ZM297.834 12.0192L297.087 12.2694L296.59 11.6437L297.336 11.3935L297.834 12.0192ZM296.963 12.3946L296.216 12.6449L295.719 12.0192L296.465 11.7689L296.963 12.3946ZM296.092 12.77L295.345 13.0203L294.848 12.3946L295.594 12.1443L296.092 12.77ZM295.221 13.0203L294.475 13.2706L294.226 12.8951C294.35 12.77 294.35 12.5197 294.475 12.3946L294.723 12.2694L295.221 13.0203ZM293.853 14.1465L294.101 14.522L293.728 14.7722C293.853 14.0214 293.728 14.6471 293.853 14.1465ZM294.848 15.6482L295.47 16.5242L294.723 16.7745L294.101 15.8985L294.848 15.6482ZM295.719 16.6493L296.341 17.5253L295.594 17.7756L294.972 16.8996L295.719 16.6493ZM296.216 18.9018L295.47 19.1521L294.848 18.2761L295.594 18.0259L296.216 18.9018ZM296.341 19.027L296.963 19.903L296.216 20.1532L295.594 19.2773L296.341 19.027ZM297.087 20.1532L297.709 21.0292L297.087 21.2795L296.465 20.4035L297.087 20.1532ZM297.834 21.1544L298.456 22.0303L297.709 22.2806L297.087 21.4046L297.834 21.1544ZM298.58 22.1555L299.202 23.0315L298.456 23.2817L297.834 22.4058L298.58 22.1555ZM299.327 23.1566L299.949 24.0326L299.202 24.2829L298.704 23.4069L299.327 23.1566ZM300.073 24.2829L300.695 25.1588L299.949 25.4091L299.327 24.5331L300.073 24.2829ZM300.197 24.1577L300.944 23.9074L301.566 24.7834L300.819 25.0337L300.197 24.1577ZM301.69 24.9086L302.312 25.7845L301.566 26.0348L300.944 25.1588L301.69 24.9086ZM302.437 25.9097L303.059 26.7857L302.437 27.1611L301.69 26.2851L302.437 25.9097ZM302.561 25.9097L303.308 25.6594L303.93 26.5354L303.183 26.7857L302.561 25.9097ZM304.054 26.6605L304.676 27.5365L303.93 27.7868L303.308 26.9108L304.054 26.6605ZM304.8 27.6616L305.422 28.5376L304.676 28.7879L304.054 27.9119L304.8 27.6616ZM304.925 27.5365L305.671 27.2862L306.293 28.1622L305.547 28.4125L304.925 27.5365ZM306.293 28.2873L306.915 29.0382L306.169 29.4136L305.547 28.6628L306.293 28.2873ZM306.418 28.1622L307.164 27.9119L307.786 28.6628L307.04 28.913L306.418 28.1622ZM307.289 27.9119L308.035 27.6616L308.657 28.4125L307.911 28.6628L307.289 27.9119ZM308.159 27.5365L308.906 27.2862L309.528 28.0371L308.781 28.2873L308.159 27.5365ZM309.03 27.1611L309.777 26.9108L310.399 27.6616L309.652 27.9119L309.03 27.1611ZM309.901 26.9108L310.648 26.6605L311.27 27.4114L310.523 27.6616L309.901 26.9108ZM310.772 26.5354L311.518 26.2851L312.14 27.0359L311.394 27.2862L310.772 26.5354ZM312.14 27.1611L312.638 27.7868C312.638 27.9119 312.638 27.9119 312.638 28.0371L312.016 28.2873L311.394 27.5365L312.14 27.1611ZM311.767 24.9086L312.265 24.6583C312.389 25.1588 312.514 25.5343 312.514 25.9097L311.767 24.9086ZM312.265 24.5331L311.643 24.7834L311.021 23.9074L311.767 23.6572L312.14 24.1577C312.14 24.2829 312.265 24.408 312.265 24.5331ZM311.021 23.7823L310.399 22.9063L311.145 22.656L311.767 23.532L311.021 23.7823ZM310.15 22.7812L309.528 21.9052L310.274 21.6549L310.896 22.5309L310.15 22.7812ZM309.403 21.7801L308.781 20.9041L309.528 20.6538L310.15 21.5298L309.403 21.7801ZM308.657 20.7789L308.035 19.903L308.781 19.6527L309.403 20.5287L308.657 20.7789ZM307.911 19.6527L307.289 18.7767L308.035 18.5264L308.657 19.4024L307.911 19.6527ZM307.164 18.6516L306.542 17.7756L307.289 17.5253L307.911 18.4013L307.164 18.6516ZM306.418 17.6504L305.796 16.7745L306.542 16.5242L307.164 17.4002L306.418 17.6504ZM306.293 17.6504L305.547 17.9007L304.925 17.0248L305.671 16.7745L306.293 17.6504ZM304.8 16.8996L304.178 16.0236L304.925 15.7734L305.547 16.6493L304.8 16.8996ZM304.054 15.8985L303.432 15.0225L304.178 14.7722L304.8 15.6482L304.054 15.8985ZM303.308 14.8974L302.685 14.0214L303.432 13.7711L304.054 14.6471L303.308 14.8974ZM303.183 14.8974L302.437 15.1477L301.815 14.2717L302.561 14.0214L303.183 14.8974ZM301.69 14.1465L301.068 13.2706L301.815 13.0203L302.437 13.8963L301.69 14.1465ZM301.068 11.894L300.322 12.1443L299.824 11.3935H299.949C300.322 11.5186 300.571 11.6437 300.944 11.7689L301.068 11.894ZM297.336 11.2683L297.212 11.1432C297.336 11.1432 297.585 11.1432 297.709 11.1432L297.336 11.2683ZM297.087 11.018L297.212 11.2683L296.465 11.5186L296.216 11.2683C296.465 11.1432 296.714 11.1432 297.087 11.018ZM296.341 11.6437L295.594 11.894L295.345 11.6437C295.594 11.5186 295.843 11.3935 296.092 11.2683L296.341 11.6437ZM295.47 11.894L294.723 12.1443C294.848 11.894 295.097 11.7689 295.345 11.6437L295.47 11.894ZM293.728 15.5231L293.977 15.7734L293.728 15.8985C293.728 15.7734 293.728 15.6482 293.728 15.5231ZM293.728 16.0236L293.977 15.8985L294.599 16.7745L293.853 17.0248L293.728 16.8996C293.853 16.6493 293.853 16.3991 293.728 16.0236ZM294.848 17.0248L295.47 17.9007L294.723 18.151L294.101 17.275L294.848 17.0248ZM295.47 19.4024L296.216 20.2784L295.47 20.5287L294.848 19.6527L295.47 19.4024ZM296.216 20.4035L296.963 21.2795L296.216 21.5298L295.594 20.6538L296.216 20.4035ZM297.087 21.4046L297.709 22.2806L296.963 22.5309L296.341 21.6549L297.087 21.4046ZM297.834 22.5309L298.456 23.4069L297.709 23.6572L297.087 22.7812L297.834 22.5309ZM298.58 23.532L299.202 24.408L298.58 24.6583L297.834 23.7823L298.58 23.532ZM299.327 24.5331L299.949 25.4091L299.327 25.6594L298.704 24.7834L299.327 24.5331ZM300.073 25.5343L300.695 26.4102L300.073 26.6605L299.451 25.7845L300.073 25.5343ZM300.197 25.5343L300.944 25.284L301.566 26.16L300.819 26.4102L300.197 25.5343ZM301.566 26.2851L302.188 27.1611L301.441 27.4114L300.819 26.5354L301.566 26.2851ZM302.312 27.2862L302.934 28.1622L302.188 28.4125L301.566 27.5365L302.312 27.2862ZM302.437 27.2862L303.183 27.0359L303.805 27.9119L303.059 28.1622L302.437 27.2862ZM303.93 27.9119L304.552 28.7879L303.805 29.0382L303.183 28.1622L303.93 27.9119ZM304.676 28.913L305.298 29.6639L304.552 30.0393L303.93 29.2885L304.676 28.913ZM304.8 28.913L305.547 28.6628L306.169 29.4136L305.422 29.6639L304.8 28.913ZM306.169 29.5387L306.791 30.2896L306.044 30.5399L305.422 29.789L306.169 29.5387ZM306.293 29.4136L307.04 29.1633L307.662 29.9142L306.915 30.1644L306.293 29.4136ZM307.164 29.1633L307.911 28.913L308.533 29.6639L307.786 29.9142L307.164 29.1633ZM308.035 28.7879L308.781 28.5376L309.403 29.2885L308.657 29.6639L308.035 28.7879ZM308.906 28.4125L309.652 28.1622L310.274 28.913L309.528 29.1633L308.906 28.4125ZM309.652 28.1622L310.399 27.9119L311.021 28.6628L310.274 28.913L309.652 28.1622ZM310.523 27.7868L311.27 27.5365L311.892 28.2873L311.145 28.6628L310.523 27.7868ZM312.016 28.4125L312.389 28.913C312.389 29.0382 312.265 29.1633 312.265 29.2885L311.892 29.4136L311.27 28.6628L312.016 28.4125ZM312.14 28.4125L312.638 28.1622C312.638 28.4125 312.514 28.6628 312.514 28.7879L312.14 28.4125ZM312.016 23.7823L311.892 23.6572C312.016 23.6572 312.016 23.7823 312.016 23.7823ZM311.767 23.532L311.145 22.656L311.518 22.5309C311.643 22.7812 311.767 23.1566 311.767 23.532ZM311.021 22.5309L310.399 21.6549L310.896 21.4046C311.021 21.7801 311.27 22.0303 311.394 22.4058L311.021 22.5309ZM310.274 21.4046L309.652 20.5287L310.274 20.2784C310.523 20.6538 310.648 20.9041 310.772 21.2795L310.274 21.4046ZM309.528 20.4035L308.906 19.5275L309.652 19.2773C309.901 19.5275 310.025 19.903 310.274 20.1532L309.528 20.4035ZM308.035 18.4013L307.413 17.4002L308.035 17.1499C308.284 17.4002 308.533 17.7756 308.781 18.0259L308.035 18.4013ZM307.289 17.275L306.666 16.3991L307.164 16.2739C307.413 16.5242 307.662 16.7745 307.911 17.1499L307.289 17.275ZM306.542 16.2739L305.92 15.3979L306.169 15.2728C306.418 15.5231 306.791 15.7734 307.04 16.1488L306.542 16.2739ZM306.418 16.2739L305.671 16.5242L305.049 15.6482L305.796 15.3979L306.418 16.2739ZM304.925 15.5231L304.303 14.6471L305.049 14.3968L305.671 15.2728L304.925 15.5231ZM304.925 14.2717L304.178 14.522L303.556 13.646L303.93 13.5208C304.178 13.646 304.552 13.8963 304.925 14.2717ZM303.432 13.5208L302.934 12.8951C303.183 13.0203 303.432 13.2706 303.805 13.3957L303.432 13.5208ZM303.308 13.5208L302.561 13.7711L301.939 12.8951L302.685 12.6449L303.308 13.5208ZM293.977 17.275L294.599 18.151L294.226 18.2761C294.226 18.0259 294.101 17.6505 293.977 17.275ZM294.972 20.0281L295.345 20.5287H295.221C295.097 20.4035 295.097 20.2784 294.972 20.0281ZM295.47 20.7789L296.092 21.6549L295.843 21.7801C295.594 21.5298 295.47 21.1544 295.345 20.7789H295.47ZM296.216 21.7801L296.838 22.656L296.465 22.7812C296.216 22.5309 296.092 22.1555 295.843 21.9052L296.216 21.7801ZM296.963 22.7812L297.585 23.6572L297.336 23.7823C297.087 23.532 296.838 23.1566 296.714 22.9063L296.963 22.7812ZM297.709 23.7823L298.331 24.6583L298.082 24.7834C297.834 24.5331 297.585 24.1577 297.336 23.9074L297.709 23.7823ZM298.456 24.9086L299.078 25.7845H298.953C298.704 25.5343 298.456 25.284 298.207 24.9086H298.456ZM301.193 27.7868L301.566 27.6616L302.188 28.5376H302.063C301.69 28.2873 301.441 28.0371 301.193 27.7868ZM302.312 28.6628L302.437 28.7879C302.312 28.6628 302.312 28.6628 302.312 28.6628ZM302.437 28.5376L303.183 28.2873L303.805 29.1633L303.308 29.2885C303.059 29.1633 302.934 29.0382 302.685 28.913L302.437 28.5376ZM303.805 29.2885L304.303 29.9142C304.054 29.789 303.681 29.5387 303.432 29.4136L303.805 29.2885ZM305.298 29.9142L305.92 30.665H305.796C305.422 30.5399 304.925 30.2896 304.552 30.1644L305.298 29.9142ZM308.408 31.0404L308.657 31.2907C308.408 31.2907 308.159 31.2907 307.911 31.1656L308.408 31.0404ZM307.786 30.0393L308.533 29.789L309.155 30.5399L308.408 30.7901L307.786 30.0393ZM308.657 29.6639L309.403 29.4136L310.025 30.1644L309.279 30.4147L308.657 29.6639ZM309.528 29.4136L310.274 29.1633L310.896 29.9142L310.15 30.1644L309.528 29.4136ZM310.399 29.0382L311.145 28.7879L311.767 29.5387L311.021 29.789L310.399 29.0382ZM311.767 29.6639L311.892 29.9142C311.767 30.1644 311.518 30.2896 311.394 30.4147L311.021 29.9142L311.767 29.6639ZM306.044 15.1477L305.796 15.2728L305.298 14.522C305.547 14.6471 305.796 14.8974 306.044 15.1477ZM308.781 31.2907L308.533 30.9153L309.279 30.665L309.652 31.1656C309.279 31.2907 309.03 31.2907 308.781 31.2907ZM309.777 31.1656L309.403 30.665L310.15 30.4147L310.523 31.0404H310.648L310.274 30.4147L311.021 30.1644L311.394 30.665C311.145 30.9153 310.896 31.0404 310.523 31.1656C310.274 31.0404 310.025 31.1656 309.777 31.1656Z" fill="#021F29"/>
<path d="M328.933 49.0593C328.684 50.1855 327.067 49.8101 327.814 47.6827C327.565 48.5587 327.191 48.9341 326.818 48.809C326.072 48.5587 326.196 48.0582 326.321 47.1822C326.321 48.1833 325.574 47.933 325.325 47.8079C324.952 47.5576 324.952 46.8068 324.952 46.0559L325.077 45.5554C325.45 44.5542 326.569 45.4302 326.445 46.4313C326.943 45.4302 327.938 46.4313 327.938 47.3073C328.684 46.4313 329.306 47.6827 329.182 48.4336C329.306 47.933 329.804 47.8079 329.928 47.933C330.177 48.1833 330.302 48.6839 330.053 49.4347C329.68 50.8112 328.56 50.561 328.933 49.0593Z" fill="#8E6032"/>
<path d="M326.696 53.4404C325.825 54.5667 324.581 53.065 324.581 53.065C324.207 51.0627 322.715 49.4359 322.963 48.4348C323.71 46.5577 323.337 46.0571 323.959 46.4326C324.581 46.808 325.327 47.684 324.332 48.6851C324.456 48.9354 327.815 52.0639 326.696 53.4404Z" fill="#8E6032"/>
<path d="M322.589 83.8534C322.713 82.2266 327.441 79.9741 327.689 79.4735C328.436 78.3473 327.316 77.9718 326.694 76.7204C326.445 76.5953 326.321 74.9685 326.321 74.7182C326.072 74.3428 325.574 74.5931 324.952 74.9685C325.699 74.0925 325.823 72.8411 325.077 72.716C325.077 72.716 324.579 72.5908 324.33 71.7149C324.206 71.4646 324.579 70.964 324.579 70.4635C324.704 69.8378 324.455 68.8366 323.833 68.7115C323.584 68.7115 322.589 69.2121 320.971 68.7115C318.234 67.9607 317.115 63.3305 312.263 63.4556C305.047 63.7059 297.832 69.7126 299.947 77.7216C300.818 81.1003 303.554 85.23 307.535 86.2311C318.234 88.859 315 90.611 314.253 91.8624C313.258 93.7395 326.819 95.6166 328.063 94.24C326.694 93.4892 322.464 85.4802 322.589 83.8534Z" fill="#8E6032"/>
<path d="M316.369 66.709C319.728 56.4475 309.651 62.4542 309.277 62.4542C301.813 62.7045 297.21 70.7135 297.459 77.5961C289.746 77.0956 276.434 72.5905 270.214 89.6096C266.481 99.7459 253.17 93.1135 254.041 101.498C254.912 109.757 266.73 114.638 272.702 116.64C278.176 118.517 288.501 111.008 287.879 106.629C287.506 104.001 285.142 102.749 286.138 99.9962C288.128 94.7403 294.722 96.8677 298.205 94.7403C300.942 93.1135 297.086 85.48 298.33 82.3515C300.818 87.9828 310.646 91.4867 314.627 89.7347C317.488 86.1057 316.617 81.4755 312.388 79.4732C308.158 77.5961 314.502 76.4699 314.129 72.7157C314.005 70.9637 316.369 69.8375 316.369 66.709Z" fill="#301703"/>
<path d="M317.114 203.489C317.114 203.864 312.76 203.238 312.76 203.238C314.377 193.603 311.889 189.223 312.636 183.216C313.755 174.206 316.99 170.702 317.363 169.576C318.234 166.322 294.348 143.296 305.42 132.91C309.277 129.281 315.622 130.532 318.607 135.413C320.225 137.915 329.306 163.944 327.191 169.701C326.569 171.578 317.363 200.36 317.114 203.489Z" fill="#8E6032"/>
<path d="M317.611 201.858C319.353 205.988 321.717 207.99 321.841 208.616C321.841 208.866 321.717 210.118 319.85 209.993C319.228 209.993 310.396 203.235 310.396 202.86C310.396 202.484 311.515 199.856 313.257 199.23C313.506 199.606 316.118 202.86 317.611 201.858Z" fill="#1C1D16"/>
<path d="M261.508 177.451C260.886 177.827 259.145 173.822 259.145 173.822C267.853 169.442 272.456 164.437 277.806 161.559C282.284 159.181 289.997 157.304 291.117 157.304C296.84 156.803 293.978 144.414 299.825 132.276C300.945 129.898 307.788 122.765 309.778 125.393C315.874 134.028 321.97 129.773 320.975 131.775C316.247 141.286 304.18 165.188 298.333 166.814C296.467 167.44 264.121 175.699 261.508 177.451C261.633 177.451 261.508 177.451 261.508 177.451Z" fill="#8E6032"/>
<path d="M262.379 176.699C262.254 181.204 264.245 184.207 263.996 184.708C263.872 184.958 262.006 185.209 261.632 185.209C261.01 185.083 255.785 175.197 256.034 174.697C256.158 174.321 258.647 172.82 260.388 172.945C260.513 173.445 260.637 177.075 262.379 176.699Z" fill="#1C1D16"/>
<path d="M331.297 159.31C332.168 163.69 289.124 155.431 288.004 150.8C288.75 146.17 296.339 127.65 309.277 123.145C309.277 123.145 321.594 130.403 321.718 130.403C320.474 132.78 330.924 157.808 331.297 159.31Z" fill="#674694"/>
<path opacity="0.3" d="M323.584 138.785C315.498 137.534 305.421 134.28 301.315 128.398L321.594 130.401C321.22 131.152 322.216 134.655 323.584 138.785Z" fill="#2B2B2B"/>
<path d="M332.044 103.249C330.8 107.629 325.326 116.013 324.207 118.391C322.465 121.519 324.58 127.151 322.962 135.16C311.517 136.161 297.957 128.527 298.206 127.276C299.076 123.772 307.536 120.268 308.78 116.389C311.019 108.13 308.158 96.2412 314.752 90.1094C318.608 92.2368 325.824 90.7351 326.943 92.487C332.044 100.496 332.791 100.496 332.044 103.249Z" fill="#6A3396"/>
<path opacity="0.3" d="M331.175 105.374C329.682 108.877 326.945 113.508 325.203 116.386C318.361 108.627 313.509 101.369 315.997 98.1155C316.495 97.4898 323.835 101.244 331.175 105.374Z" fill="#2B2B2B"/>
<path d="M318.61 97.2396C323.213 94.7368 338.39 96.4888 343.491 93.986C346.228 92.7346 355.31 85.8519 358.669 81.5971C359.54 80.3457 359.291 78.7189 359.291 78.4686C358.918 77.3424 359.042 76.2161 358.544 75.0899C358.295 74.5893 359.291 73.9636 360.162 75.0899C360.286 74.9647 360.908 73.9636 361.281 73.7133C361.779 73.463 363.894 71.7111 364.765 72.5871C364.889 72.7122 364.391 72.8373 364.267 72.9625C364.267 72.9625 365.635 72.3368 366.009 72.9625C366.133 73.2128 365.884 73.463 366.009 73.463C366.506 73.463 366.755 73.9636 366.258 74.339C366.258 74.4642 366.88 74.7144 366.506 75.215C366.133 75.7156 364.143 76.3413 363.894 77.4675C363.272 79.9703 363.769 81.472 362.401 82.8485C361.281 84.3502 351.08 100.118 346.726 102.12C342.247 103.997 322.218 106.75 320.227 106.375C315.251 105.499 314.753 99.367 318.61 97.2396Z" fill="#8E6032"/>
<path d="M328.313 107.751C322.84 108.877 316.246 107.5 315.126 103.621C313.633 98.115 315.375 94.4859 326.821 94.2356C326.821 94.1105 328.313 103.371 328.313 107.751Z" fill="#743E9F"/>
</g>
</svg>
