<svg width="134" height="322" viewBox="0 0 134 322" fill="none" xmlns="http://www.w3.org/2000/svg">
<path opacity="0.2" d="M134 313.998C134 318.417 103.508 321.998 69.8807 321.998C36.2584 321.998 9 318.417 9 313.998C9 309.579 36.2584 305.998 69.8807 305.998C103.508 305.998 134 309.584 134 313.998Z" fill="#98C3C9"/>
<path d="M55.3388 74.0537C55.3388 74.0537 45.5114 86.2153 43.3018 115.038C43.3018 115.038 46.8222 122.775 57.4399 118.717C57.4399 118.717 64.8891 78.2536 55.3388 74.0537Z" fill="#EFC075"/>
<path d="M95.2094 311.556H116.557C116.557 311.556 117.654 305.881 113.201 298.395L98.8161 298.574C98.8161 298.574 94.8349 304.444 95.2094 311.556Z" fill="#5E4738"/>
<path d="M116.427 311.556H95.0791V314.925H116.427V311.556Z" fill="#443227"/>
<path d="M105.727 308.258C110.174 308.258 113.779 307.075 113.779 305.615C113.779 304.156 110.174 302.973 105.727 302.973C101.28 302.973 97.6747 304.156 97.6747 305.615C97.6747 307.075 101.28 308.258 105.727 308.258Z" fill="#917561"/>
<path d="M73.0487 297.087C73.0487 297.087 74.7041 305.566 73.4532 311.555H33.4133C33.4133 311.555 31.8852 302.837 49.3603 302.856L60.5734 295.279L73.0487 297.087Z" fill="#5E4738"/>
<path d="M73.3568 314.923H60.2674L60.1026 312.595C60.1026 312.595 54.4286 314.852 46.8034 314.852C43.0956 314.852 33.2832 314.995 33.2832 314.995V311.551H73.3568V314.923Z" fill="#443227"/>
<path d="M48.2339 302.904C48.2339 302.904 47.777 309.107 33.9048 308.811C33.9048 308.811 35.68 303.166 48.2339 302.904Z" fill="#917561"/>
<path d="M53.8565 158.833L53.1074 298.394C53.1074 298.394 64.0322 303.878 74.3315 299.599L78.2677 183.441L81.3088 183.298L96.181 299.618C96.181 299.618 104.046 303.148 115.656 298.869L103.87 158.841H53.8565V158.833Z" fill="#7C5F49"/>
<path d="M53.3958 244.795L53.1074 298.432C53.1074 298.432 64.0322 303.897 74.3315 299.618L76.7621 227.861C70.9945 250.781 58.4706 247.311 53.3958 244.795Z" fill="#6B513F"/>
<path d="M110.382 236.302C102.667 257.211 92.4611 243.796 88.083 236.317L96.1764 299.618C96.1764 299.618 104.041 303.181 115.651 298.903L110.382 236.302Z" fill="#6B513F"/>
<path d="M103.865 158.833H53.8818V178.331C58.0016 180.132 66.226 183.021 78.1919 185.125L78.2706 183.448L81.3079 183.298L81.6413 185.69C88.6111 186.753 96.7456 187.491 106.056 187.663L103.865 158.833Z" fill="#6B513F"/>
<path d="M75.8035 65.2272L75.5488 74.4878L90.9004 74.9108L91.23 62.8652C84.7807 65.7849 78.4176 65.5416 75.8035 65.2272Z" fill="#FAA284"/>
<path d="M91.2302 62.8615L91.4848 53.5822L76.1332 53.1592L75.7999 65.2272C78.4178 65.5416 84.7809 65.7849 91.2302 62.8615Z" fill="#EF8D72"/>
<path d="M82.1323 76.5832C91.2181 76.5832 93.3978 71.5448 93.7124 69.969C87.2594 68.6701 80.8701 68.146 72.9266 69.2203C72.743 71.0507 73.2074 76.5832 82.1323 76.5832Z" fill="#FAA284"/>
<path d="M114.154 76.7565C114.154 76.7565 105.409 71.984 94.761 69.6632C94.3004 69.5621 93.8434 69.4685 93.394 69.375C93.0794 70.9508 91.3791 75.7683 82.2932 75.7683C73.3684 75.7683 73.0838 70.6439 73.2673 68.8135C72.6082 68.9033 71.934 69.0006 71.2412 69.1092C66.3949 69.8728 60.3988 71.8267 55.5675 74.0839C55.5675 74.0839 49.0621 102.169 51.9272 168.674C51.9272 168.674 73.5557 176.445 108.266 169.831C108.266 169.831 105 123.254 109.51 105.04C109.502 105.04 112.727 88.2032 114.154 76.7565Z" fill="#FFD07D"/>
<path d="M114.154 76.7559C84.4843 101.562 80.844 116.284 51.3618 125.642C51.1221 133.723 51.6352 160.577 51.9198 168.673C51.9198 168.673 73.5484 176.444 108.259 169.83C108.259 169.83 104.993 123.254 109.502 105.039C109.502 105.039 113.88 78.2756 114.154 76.7559Z" fill="#EFC075"/>
<path d="M94.9183 18.752C94.9183 18.752 80.1323 25.7854 76.5706 25.3998C73.0089 25.0143 61.601 19.553 61.601 19.553C60.1329 26.3993 63.732 32.336 63.732 32.336L95.8696 39.7549L101.289 41.1811C102.757 35.3867 104.004 29.4425 103.993 26.0324C97.3714 24.5239 94.9183 18.752 94.9183 18.752Z" fill="#3B221D"/>
<path d="M99.9258 14.8515C97.0345 3.21772 77.1699 2.42417 77.1699 2.42417C66.7283 -3.92053 70.6496 4.19469 70.6496 4.19469C53.1819 -2.05268 61.5 13.6687 61.5 13.6687C55.0321 13.4404 61.6011 19.553 61.6011 19.553C61.6011 19.553 73.009 25.0143 76.5707 25.3998C80.1324 25.7854 94.9184 18.7519 94.9184 18.7519C94.9184 18.7519 97.3715 24.5239 103.993 26.0287C103.959 15.6713 99.9258 14.8515 99.9258 14.8515Z" fill="#502F26"/>
<path d="M99.9143 36.9702L97.5024 39.0027C96.9968 37.7974 96.5848 36.5435 96.2478 35.2745C94.2965 27.9416 94.9182 18.7559 94.9182 18.7559C78.0648 25.2915 63.6533 20.5638 63.6533 20.5638C64.4585 28.9186 61.6908 47.3313 68.0989 56.7828C70.0089 59.5977 72.4208 61.9597 76.4694 62.596C94.1018 65.3547 98.6335 48.1136 98.6335 48.1136C98.6335 48.1136 104.161 49.5847 105.285 41.4433C106.221 34.6943 99.9143 36.9702 99.9143 36.9702Z" fill="#FAA284"/>
<path d="M92.4239 21.7465C92.4239 21.7465 93.8396 29.5248 95.9856 34.2225C94.3565 27.2228 94.9182 18.752 94.9182 18.752C78.0648 25.2875 63.6533 20.5599 63.6533 20.5599C63.7395 21.4695 63.7769 22.5139 63.7807 23.648C70.3348 24.5576 82.076 25.3624 92.4239 21.7465Z" fill="#EF8D72"/>
<path d="M62.9606 2.78711C62.9606 2.78711 70.3124 10.0077 87.4842 9.99273C87.4842 9.99273 76.2673 17.8085 60.9944 12.598C60.9906 12.598 57.0956 3.32987 62.9606 2.78711Z" fill="#674434"/>
<path d="M97.2929 46.0773C95.7948 50.4456 90.2069 61.2072 78.1586 60.5522C71.6382 60.1966 68.3275 55.8994 66.1553 52.8974C66.6721 54.3086 67.3088 55.6187 68.099 56.7828C70.0091 59.5977 72.421 61.9596 76.4695 62.596C94.1019 65.3547 98.6336 48.1136 98.6336 48.1136C98.6336 48.1136 102.866 49.2927 104.738 43.9062C101.446 49.3676 97.2929 46.0773 97.2929 46.0773Z" fill="#EF8D72"/>
<path d="M74.9718 157.987C74.0917 150.081 71.4139 137.605 71.4139 137.605L61.8262 139.279L67.1369 150.37L66.1706 151.882C67.8372 153.716 72.8296 158.923 74.9718 157.987Z" fill="#FAA284"/>
<path d="M64.9685 153.735C64.9685 153.735 66.2381 161.772 74.4364 164.317C74.5038 164.34 74.6124 164.34 74.6124 164.329C73.1143 160.567 64.9685 153.735 64.9685 153.735Z" fill="#CC5350"/>
<path d="M74.9532 157.987C72.8109 158.923 67.8261 153.716 66.1632 151.886L64.9647 153.739C64.9647 153.739 73.1143 160.57 74.6123 164.332C75.3614 164.205 75.3501 161.566 74.9532 157.987Z" fill="#ED695F"/>
<path d="M88.6037 161.951C88.8171 161.835 88.9969 161.689 89.1317 161.494C89.7759 160.573 89.3452 159.244 88.4688 157.859C86.5962 158.672 84.7461 156.474 81.9297 154.61C79.7088 153.143 77.5665 153.379 76.4879 153.648L76.1846 158.076C76.1846 158.08 83.3566 156.385 88.6037 161.951Z" fill="#ED695F"/>
<path d="M81.9295 154.611C84.7459 156.475 86.4463 158.668 88.3151 157.86C86.4687 154.948 82.4876 151.807 82.4876 151.807L82.394 134.532L72.2295 138.156L76.499 152.365L76.4503 153.649C77.5289 153.379 79.7086 153.143 81.9295 154.611Z" fill="#FAA284"/>
<path d="M76.1846 158.081C76.1846 158.081 85.6936 163.524 88.6074 161.951C83.3566 156.385 76.1846 158.081 76.1846 158.081Z" fill="#CC5350"/>
<path d="M55.1067 62.5589C55.1067 62.5589 72.7092 57.4121 71.6156 79.8786C71.6156 79.8786 70.5594 84.086 75.8064 81.5294C75.8064 81.5294 70.9264 88.3308 67.7692 81.7727C67.6644 81.5593 67.552 81.3497 67.4322 81.1438C67.6981 83.2737 67.0764 84.6737 66.8329 85.9463C66.2637 88.9184 68.1887 88.6751 68.1887 88.6751C67.2974 89.5024 64.7619 91.3515 64.2113 84.2993C64.0952 82.8283 63.8555 81.5256 63.5596 80.3989C63.1065 82.0609 62.1365 83.7416 60.1702 84.6924C60.1702 84.6924 61.0466 75.0687 57.2715 71.0597C54.8521 68.8662 53.3652 66.392 55.1067 62.5589Z" fill="#3B221D"/>
<path d="M58.3841 66.6273C58.3092 64.2055 56.886 62.2853 55.2044 62.3339C53.5228 62.3863 52.2195 64.3889 52.2906 66.8108C52.3655 69.2326 53.7887 71.1529 55.4703 71.1042C57.1519 71.0518 58.459 69.0492 58.3841 66.6273Z" fill="#E23D3D"/>
<path d="M41.437 93.118C41.437 93.118 18.8947 97.1681 18.4715 75.9068C18.0483 54.6455 32.7669 50.1912 39.3809 52.9387C39.3809 52.9387 56.8935 46.1598 57.7174 74.2598C57.7174 74.2561 58.5264 91.894 41.437 93.118Z" fill="#502F26"/>
<path d="M55.3016 60.7774C53.8297 57.2251 51.8448 55.084 49.7774 53.8301C47.6202 55.915 44.3581 57.869 39.553 58.292C33.4483 58.831 29.7294 56.6075 27.6133 54.4964C24.9392 56.1583 22.4674 58.7973 20.7671 62.649C27.7369 63.2891 41.8264 63.9442 55.3016 60.7774Z" fill="#674434"/>
<path d="M22.6472 70.1988C22.5723 67.7769 21.1492 65.8529 19.4676 65.9053C17.786 65.9577 16.4826 67.9603 16.5538 70.3822C16.6287 72.804 18.0519 74.7243 19.7335 74.6756C21.4188 74.6232 22.7221 72.6206 22.6472 70.1988Z" fill="#E23D3D"/>
<path d="M19.5087 67.1885C19.5087 67.1885 1.62916 63.1234 4.08227 85.4814C4.08227 85.4814 5.39309 89.6176 0 87.3867C0 87.3867 5.28448 93.8811 8.0372 87.1434C8.12708 86.9225 8.2282 86.7054 8.33307 86.4958C8.19824 88.6369 8.90608 89.9994 9.22442 91.2497C9.97346 94.1843 8.0372 94.057 8.0372 94.057C8.97724 94.8281 11.6214 96.52 11.7412 89.4492C11.7674 87.9744 11.9285 86.6605 12.1532 85.5151C12.7075 87.1471 13.7748 88.7679 15.7972 89.5952C15.7972 89.5952 14.3366 80.0426 17.8609 75.809C20.1454 73.4695 21.4787 70.9092 19.5087 67.1885Z" fill="#502F26"/>
<path d="M25.9205 74.0536C25.9205 74.0536 34.7854 73.1964 39.6242 60.5445C39.6242 60.5445 48.197 69.7901 54.2005 69.5992C54.2005 69.5992 46.2008 67.9448 39.3209 57.2168C39.3171 57.2168 36.8603 68.9854 25.9205 74.0536Z" fill="#D88D6C"/>
<path d="M45.6802 98.0328L45.7738 100.631C45.7738 100.631 44.8188 102.835 41.5156 102.936C38.613 103.026 37.1786 100.949 37.1786 100.949L37.04 97.082C40.6841 99.2531 44.2196 98.2686 45.6802 98.0328Z" fill="#FAA284"/>
<path d="M37.0478 97.0786L36.7969 89.3789L45.3921 89.0645L45.6842 98.0331C44.2199 98.2689 40.6844 99.2534 37.0478 97.0786Z" fill="#EF8D72"/>
<path d="M25.5691 77.4936C25.5691 77.4936 25.7076 74.6263 25.9211 74.0536C36.5575 69.3559 39.3214 57.2168 39.3214 57.2168C39.3214 57.2168 45.4261 67.3721 54.2011 69.5992C59.8526 85.3805 53.9539 92.8781 44.1041 94.9893C30.8086 97.8416 27.3031 86.8141 27.3031 86.8141C27.3031 86.8141 22.689 89.7525 20.528 83.9019C17.985 77.0332 24.3781 77.0519 25.5691 77.4936Z" fill="#FAA284"/>
<path d="M37.1669 99.5898C37.1669 99.5898 28.3057 108.255 36.8972 131.107C41.4177 143.13 66.6004 135.652 68.9711 135.85C68.9711 135.85 75.6451 128.322 74.4953 124.662C74.4953 124.662 65.2821 118.852 57.4359 118.717C57.4359 118.717 54.1776 104.299 45.5749 98.8037C45.5786 98.8037 43.1105 101.454 37.1669 99.5898Z" fill="#80D1A6"/>
<path d="M55.0394 132.256C55.0394 132.256 42.2421 135.92 41.1035 135.864C41.1035 135.864 41.1035 147.352 58.4812 141.872L61.0018 136.25L55.0394 132.256Z" fill="#FAA284"/>
<path d="M114.154 76.7558C114.154 76.7558 105.72 73.488 91.8513 103.684L85.447 115.973C85.447 115.973 64.927 128.232 55.1558 131.227C55.1558 131.227 53.9274 139.188 59.4403 142.557C59.4403 142.557 87.6042 138.253 97.8735 126.308C106.585 116.175 126.296 87.6559 114.154 76.7558Z" fill="#FFD07D"/>
<path d="M45.275 103.112C45.275 103.112 56.0425 106.099 60.2371 104.55C64.428 103 70.8285 94.9258 70.8285 94.9258C70.8285 94.9258 73.9183 94.9258 75.746 97.8567C75.746 97.8567 69.2368 111.078 61.1509 111.961C53.065 112.844 47.2787 111.628 45.0428 111.407C42.8069 111.186 39.6123 109.195 40.2714 105.987C40.9306 102.779 45.275 103.112 45.275 103.112Z" fill="#FAA284"/>
<path d="M72.2113 98.8558C72.2113 98.8558 67.7657 96.9318 70.305 90.2951C70.305 90.2951 70.8555 88.0417 72.5521 88.3674C72.5521 88.3674 74.6045 84.9648 76.6793 86.4209C76.6793 86.4209 81.9076 89.816 80.6455 93.0688C79.3871 96.3179 77.0501 100.911 72.2113 98.8558Z" fill="#FAA284"/>
<path d="M34.096 117.16L30.2947 118.961C29.3808 119.395 28.9913 120.484 29.4258 121.397L29.6243 121.813C29.8827 122.359 30.3771 122.711 30.9276 122.82C30.6654 123.314 30.6205 123.883 30.8602 124.381L31.0587 124.796C31.3433 125.395 31.9613 125.74 32.6504 125.766C32.2946 126.286 32.2085 126.971 32.5006 127.581L32.6991 127.997C32.9126 128.446 33.2871 128.768 33.7178 128.925C33.6466 129.15 33.6204 129.397 33.6691 129.644L33.7365 130.01C33.8863 130.815 34.6616 131.343 35.463 131.193L38.8112 130.568C39.6165 130.418 40.1445 129.644 39.9947 128.839L39.9273 128.472C39.7962 127.772 39.1933 127.282 38.5079 127.263L38.9386 127.057C39.8524 126.623 40.2419 125.534 39.8075 124.62L39.609 124.205C39.3805 123.726 38.9685 123.396 38.5004 123.25C39.3094 122.685 39.6539 121.701 39.2719 120.9L39.0734 120.484C38.7064 119.713 37.7851 119.361 36.8712 119.571C36.9424 119.2 36.9087 118.807 36.7327 118.44L36.5342 118.025C36.0997 117.115 35.0061 116.726 34.096 117.16Z" fill="#FAA284"/>
</svg>
