<svg width="186" height="187" viewBox="0 0 186 187" fill="none" xmlns="http://www.w3.org/2000/svg">
<mask id="mask0" mask-type="alpha" maskUnits="userSpaceOnUse" x="0" y="0" width="186" height="187">
<rect width="186" height="187" fill="white"/>
</mask>
<g mask="url(#mask0)">
<path fill-rule="evenodd" clip-rule="evenodd" d="M0.109276 98.9752C-2.3921 70.64 0.151022 38.382 22.9345 22.0275C45.1693 6.06692 74.9066 19.6811 102.231 25.6698C131.128 32.0031 167.153 30.4334 181.017 56.6742C195.065 83.2626 179.284 114.975 161.849 138.509C148.096 157.074 123.926 160.181 101.002 164.682C78.5707 169.086 54.926 176.044 35.4086 163.333C13.7707 149.241 2.34777 124.333 0.109276 98.9752Z" fill="#D2F8FD"/>
</g>
<path d="M40.4234 136.245C40.4234 137.602 42.5694 138.959 41.1959 141.311C40.8526 141.853 27.0322 142.667 26.9464 141.13C26.8605 139.592 31.9251 139.32 34.5862 136.516C37.5048 133.35 32.4402 110.283 34.5004 107.389C35.3588 106.213 42.5694 111.188 42.3119 111.278C43.9429 115.53 40.2517 127.651 40.4234 136.245Z" fill="#EB9642"/>
<path d="M123.774 139.411C123.173 140.406 118.023 140.406 117.422 140.045C116.306 139.321 117.68 136.064 115.276 132.898C114.418 131.813 94.4167 119.692 93.3008 118.968C95.7902 114.445 94.8459 116.073 97.1636 111.912C99.0521 113.54 107.465 117.34 113.731 125.119C113.731 125.119 116.478 128.647 117.336 129.28C118.195 130.004 118.795 130.094 119.311 131.27C120.169 133.351 124.289 138.416 123.774 139.411Z" fill="#EB9642"/>
<path d="M100.168 112.818C96.8203 115.893 94.0734 119.059 92.8716 119.964C90.8973 120.507 75.7035 108.928 68.4928 106.305C65.1451 105.129 46.9468 114.717 43.7707 116.346C42.3973 117.069 34.0707 108.204 33.384 106.847C32.2681 104.857 59.4796 94.6356 59.7371 94.0024C59.9088 93.5501 60.0804 92.1028 60.1663 91.56C60.1663 91.56 78.3645 90.1127 79.0512 91.2886C79.0512 91.3791 100.683 112.456 100.168 112.818Z" fill="#8A581A"/>
<path d="M71.9267 56.823C72.7851 56.7325 68.4931 61.2554 65.4887 61.8887C63.2568 62.3409 58.1064 58.9035 58.3639 58.8131C62.9993 57.9085 61.1108 53.8379 60.7674 53.5665C58.9648 53.7474 58.2781 53.8379 57.6772 53.5665C56.3037 53.0238 57.6772 52.1192 56.8188 50.1291C56.3037 49.315 57.8489 49.8577 58.6214 49.315C58.6214 49.2245 56.3037 49.5863 56.6471 48.8627C56.6471 48.7722 57.3338 47.8676 56.9904 47.5058C56.9904 47.5058 55.4453 46.9631 55.3595 46.2394C55.2736 45.6966 56.9046 45.2444 57.0763 44.1589C57.248 43.3447 56.9904 40.9024 57.5913 39.455C58.7931 36.5604 62.5701 34.9321 67.0338 36.1081C70.4674 36.9222 72.0984 39.6359 71.8409 42.802C71.5834 45.8776 68.1497 49.1341 68.2356 50.9432C68.3214 51.305 68.6648 57.0039 71.9267 56.823Z" fill="#EB9642"/>
<path d="M67.8063 34.2987C64.1151 33.3941 61.2824 34.3891 58.7071 34.9319C57.6771 35.1128 56.4753 33.9368 56.1319 34.3891C55.8744 34.8414 55.3594 37.6456 56.8186 39.4548C57.162 40.4498 61.3682 39.0929 61.8832 39.5452C62.3983 39.9975 62.4841 42.7113 63.3425 43.5254C63.9434 44.0681 61.3682 49.4052 60.939 49.4052C60.5098 49.4052 59.2222 48.2292 58.8788 48.0483C58.5355 47.8674 57.3337 47.9578 56.9045 47.9578C56.647 47.9578 56.5611 48.772 56.5611 48.772C56.8187 48.8624 58.7071 49.4052 58.7071 49.5861C58.5355 50.1288 56.5611 50.1288 56.647 50.4002C57.5912 53.2044 55.4452 53.114 56.4753 54.3804C56.9045 54.9231 60.939 56.6418 62.6558 55.285C64.3726 54.0185 64.2868 51.4857 64.9735 50.1288C65.3169 49.4956 64.2868 48.4101 64.3726 45.8773C64.6302 43.5254 66.6903 42.0781 67.3771 45.3346C67.7204 47.0533 66.0894 47.0533 66.5186 48.5006C66.7762 49.3147 67.7204 50.4002 68.1496 50.6716C68.5788 48.9529 71.2399 46.9628 72.27 42.8922C73.1284 39.4548 71.3257 35.2032 67.8063 34.2987Z" fill="black"/>
<path d="M38.1911 58.7236C33.4698 58.1808 22.9114 58.9045 21.9672 58.814C21.0229 58.7236 19.3061 58.6331 17.4176 58.9949C15.6149 59.3568 11.4946 60.4423 9.52025 60.4423C8.49017 60.4423 6.51583 60.3518 6.68751 61.1659C6.77335 61.8896 8.57601 62.2514 10.4645 62.161C11.4946 62.161 12.4388 61.9801 13.2972 62.161C13.984 62.3419 10.5503 62.5228 11.3229 63.4274C12.7822 65.0556 18.6194 62.161 19.4778 62.0705C20.0787 61.9801 30.2937 65.5079 37.7619 64.5129C38.4486 64.4224 42.7406 65.7793 45.8309 66.322L47.5477 57.7285C45.4017 58.0903 39.9079 58.9949 38.1911 58.7236Z" fill="#EB9642"/>
<path d="M127.637 61.3447C127.551 60.8924 125.92 60.4401 123.774 60.3496C120.942 60.2592 116.993 59.445 116.22 59.2641C115.362 59.0832 114.074 59.7164 111.928 59.8069C109.782 59.8973 103.087 59.0832 100.511 59.1737C97.9362 59.2641 94.6743 60.4401 92.4424 59.8069C89.6096 58.9023 84.8884 57.6359 81.6265 57.1836V66.4103C82.5707 65.958 92.4424 66.1389 94.8459 66.2294C101.627 66.5008 113.13 62.8825 114.418 62.6111C114.418 62.6111 114.503 62.6111 114.589 62.6111C115.276 62.7015 117.25 63.6061 119.396 63.787C120.598 63.8775 122.83 64.2393 123.259 63.4252C123.517 62.9729 122.916 62.792 122.401 62.6111C122.143 62.5206 121.972 62.5206 121.972 62.4302C122.229 62.3397 122.487 62.2492 122.744 62.2492C123.86 62.1588 125.834 62.0683 126.521 61.8874C127.38 61.797 127.723 61.5256 127.637 61.3447Z" fill="#EB9642"/>
<path d="M87.893 57.9097C87.0346 61.2567 86.9487 64.2418 86.9487 66.6842C86.9487 66.8651 80.1673 67.6792 80.0815 68.4933C79.7381 74.4636 78.8797 78.3533 78.8797 82.0621C78.8797 86.2231 79.9956 90.2033 85.1461 96.7163C81.8841 97.0781 69.1797 99.5205 62.9992 99.611C55.1877 99.7919 53.1275 96.4449 54.6726 95.9926C58.3638 94.9071 56.647 84.3235 56.0461 80.1624C55.1877 74.4636 55.1018 73.9208 54.0717 69.8502C52.7841 67.8601 47.2045 67.046 45.0585 66.4128C44.7151 66.3223 45.316 58.5429 46.1744 57.8193C47.0328 57.0956 53.5567 57.0051 58.2779 58.2716C59.4797 58.362 59.9089 59.2666 62.7416 59.8093C69.7806 61.0758 70.639 56.5529 71.8408 56.6433C72.8708 56.7338 81.1116 55.6483 87.893 57.9097Z" fill="#2552A9"/>
<path d="M175.02 150.898C174.591 150.898 172.96 151.441 172.703 150.265C172.445 148.727 172.874 147.19 172.188 146.647C171.329 146.014 155.535 139.41 149.096 132.174C142.658 124.846 152.873 126.294 152.873 126.294C166.265 133.169 168.325 138.867 173.561 143.119C173.819 143.39 175.192 145.471 175.192 145.471C175.45 145.923 178.196 149.451 178.454 150.265C178.54 150.989 175.793 150.898 175.02 150.898Z" fill="#B35820"/>
<path d="M93.4729 149.09C93.5587 149.723 94.9321 152.166 91.4985 152.618C89.61 152.889 85.833 152.889 83.6012 152.98C82.3136 152.98 80.6826 152.347 81.1976 151.352C81.3693 150.899 86.5198 150.99 87.8932 148.457C90.726 143.663 86.6056 130.637 87.0348 122.676C87.0348 122.043 93.4729 122.043 93.7304 122.586C94.2454 123.671 95.1897 124.938 95.533 127.561C96.2198 133.622 92.872 144.205 93.4729 149.09Z" fill="#B35820"/>
<path d="M120.856 76.271C117.336 76.3615 113.387 75.3664 112.529 72.4718C118.195 72.8336 117.079 67.3157 116.649 66.6825C115.877 65.5065 112.529 67.6775 112.958 65.1447C113.216 64.3306 112.529 63.9687 112.615 63.6069C112.701 63.2451 114.16 63.2451 114.761 62.7928C113.902 63.3355 111.671 62.7023 112.357 62.1596C113.645 61.255 110.984 61.0741 111.327 59.9886C111.413 59.7172 113.13 58.6317 112.958 57.3653C112.872 56.0084 112.443 53.4756 113.559 52.2092C118.795 46.5103 126.006 49.3145 126.864 53.2947C127.637 57.3653 126.264 61.5263 123.259 64.0592C122.83 64.421 124.375 71.2958 128.753 71.2958C128.839 71.3863 124.032 76.1806 120.856 76.271Z" fill="#B35820"/>
<path d="M150.042 74.0098C147.982 67.6778 143.604 64.5117 137.595 62.793C131.5 61.0743 135.878 54.9232 129.097 49.948C124.805 46.7819 122.487 46.6915 117.422 48.1388C112.358 49.4957 111.671 55.4659 113.044 55.1041C115.276 54.5613 115.105 56.0087 117.594 57.456C119.998 58.8129 121.199 56.6419 122.229 58.8129C123.174 60.803 118.624 64.1499 122.916 67.6778C125.491 69.8488 128.41 71.2961 127.809 75.1858C127.38 78.0805 125.577 85.498 128.496 87.3976C132.015 89.7496 132.444 92.5538 135.964 94.6343C146.522 100.876 151.244 77.5377 150.042 74.0098Z" fill="#472A05"/>
<path d="M176.995 73.8287C176.909 73.4668 176.308 73.2859 174.506 73.1955C173.562 73.1955 170.042 72.9241 166.866 72.2004C166.093 72.0195 164.892 72.6527 162.831 72.7432C160.857 72.8336 154.591 72.11 152.187 72.11C149.784 72.11 146.522 73.2859 144.376 72.5623C141.715 71.7481 133.131 71.0245 131.414 70.934C128.839 70.6626 128.495 71.0245 127.723 71.2958C127.723 71.2958 127.894 74.6428 129.182 77.1756C130.47 79.7989 131.585 79.9798 131.585 79.9798C135.191 77.1756 143.775 78.1707 146.093 77.9897C149.355 77.6279 165.321 75.1855 165.407 75.1855C166.008 75.276 168.068 75.7283 170.128 75.9092C171.244 75.9997 173.047 76.6329 173.476 75.9997C173.733 75.6378 173.132 75.3665 172.703 75.276C172.446 75.1855 172.274 75.1855 172.36 75.1855C173.218 74.6428 177.167 74.6428 176.995 73.8287Z" fill="#B35820"/>
<path d="M110.126 71.9308C106.177 71.2976 96.6486 73.0163 93.2149 72.2926C85.0601 70.7548 79.3946 72.4735 77.6778 72.3831C72.7849 71.9308 69.1795 73.9209 65.7459 73.9209C64.7158 73.9209 63.9433 73.7399 64.2008 74.3732C64.2866 74.5541 64.8017 75.5491 66.6043 75.5491C67.6344 75.5491 68.4928 75.3682 69.3512 75.5491C70.038 75.73 67.2052 75.4587 67.9778 76.3632C69.3512 77.901 74.33 75.6396 75.1026 75.4587C77.7636 75.0064 79.5663 76.0014 84.3734 76.6346C88.4079 77.1774 93.3866 77.6296 94.1592 77.5392C98.3654 77.5392 105.919 77.8106 109.01 80.7052C109.525 81.1575 110.04 81.7003 110.383 82.3335C110.383 82.3335 112.872 81.0671 113.388 77.8106C113.988 74.5541 112.872 72.2022 112.872 72.2022C112.357 72.2022 110.984 71.9308 110.126 71.9308Z" fill="#B35820"/>
<path d="M156.995 128.013C154.677 130.455 152.617 135.249 151.415 135.068C147.209 133.259 126.607 116.524 123.86 116.615C123.431 116.615 113.989 119.691 111.585 120.414C107.293 121.862 95.7045 123.128 95.9621 123.761C96.0479 124.033 95.2753 125.118 95.1037 125.208C94.5886 125.389 88.7514 126.294 86.6054 124.847C85.9187 124.394 85.9187 121.409 85.9187 121.047C85.747 115.168 108.409 108.202 113.302 106.484C113.302 106.303 113.817 102.684 113.989 102.503C122.916 105.217 132.273 101.599 132.874 101.418C136.651 106.393 156.136 125.208 156.995 128.013Z" fill="#1F0E44"/>
<path d="M134.247 103.657C132.101 106.28 126.178 108.542 121.886 108.904C114.933 109.537 114.761 107.185 112.014 107.185C113.216 101.486 114.16 99.8577 113.302 95.6967C112.272 90.5405 109.611 85.4749 109.01 82.0375C109.01 82.0375 109.782 81.947 110.898 80.0474C112.701 76.9718 111.843 72.9012 112.014 72.6298C112.186 72.268 114.418 72.1775 114.504 72.5394C114.589 72.9012 118.023 79.1428 125.577 71.092C125.835 70.8207 128.753 71.4539 128.925 71.6348C129.097 71.8157 127.809 77.4241 131.414 80.6806C130.642 87.0127 131.414 99.315 134.247 103.657Z" fill="#F29B7F"/>
<path d="M21.3734 107.117C23.8628 103.679 23.0902 91.1057 19.8283 97.2568C20.3433 94.1813 20.6008 91.1057 18.9699 86.1305C16.9097 79.708 10.7292 83.5072 11.5876 89.387C7.55306 88.6633 7.98226 98.2519 9.01235 100.875C4.80615 99.4278 7.89642 109.469 8.84067 111.64C4.63447 112.816 10.6433 126.475 14.5062 127.47C18.6265 127.651 21.5451 118.786 22.146 115.891C22.4893 114.173 24.0345 105.127 21.3734 107.117Z" fill="#76A80F"/>
<path d="M20.2579 111.641C20.1721 111.551 20.0004 111.551 19.9145 111.641L15.1933 117.612V106.304L20.0004 101.329C20.0862 101.239 20.0862 101.058 20.0004 100.967C19.9145 100.877 19.7429 100.877 19.657 100.967L15.1933 105.581V98.8868L18.2836 93.6402C18.3694 93.5498 18.2836 93.3689 18.1977 93.2784C18.1119 93.1879 17.9402 93.2784 17.8544 93.3689L15.1075 97.9822V86.494C15.1075 86.4036 15.0216 86.2227 14.8499 86.2227C14.7641 86.2227 14.5924 86.3131 14.5924 86.494V100.063L10.3004 96.2635C10.2145 96.1731 10.0429 96.1731 9.95701 96.2635C9.87117 96.354 9.87117 96.5349 9.95701 96.6253L14.5066 100.696V111.551L9.44197 104.857C9.61365 104.767 9.44197 104.767 9.35613 104.857C9.27029 104.947 9.27029 105.128 9.35613 105.219L14.6783 112.365C14.6783 112.365 14.6783 112.365 14.7641 112.456V123.672L10.3004 117.973C10.2145 117.883 10.0429 117.883 9.95701 117.973C9.87117 118.064 9.87117 118.245 9.95701 118.335L14.7641 124.486V142.578C14.7641 142.669 14.8499 142.849 15.0216 142.849C15.1075 142.849 15.2791 142.759 15.2791 142.578V118.335C15.2791 118.335 15.365 118.335 15.365 118.245L20.3437 111.913C20.3437 111.822 20.3437 111.732 20.2579 111.641Z" fill="#2B2B2B"/>
<path d="M172.421 104.185C174.61 101.162 173.931 90.1034 171.062 95.5134C171.515 92.8084 171.741 90.1034 170.307 85.7276C168.495 80.079 163.059 83.4204 163.814 88.5918C160.266 87.9553 160.643 96.3885 161.549 98.6958C157.85 97.4228 160.568 106.254 161.398 108.163C157.699 109.198 162.984 121.211 166.381 122.086C170.005 122.245 172.572 114.448 173.1 111.903C173.402 110.391 174.761 102.435 172.421 104.185Z" fill="#76A80F"/>
<path d="M171.44 108.165C171.364 108.085 171.213 108.085 171.138 108.165L166.985 113.416V103.471L171.213 99.0949C171.289 99.0154 171.289 98.8563 171.213 98.7767C171.138 98.6971 170.987 98.6971 170.911 98.7767L166.985 102.834V96.9468L169.703 92.3324C169.779 92.2529 169.703 92.0938 169.628 92.0142C169.552 91.9346 169.401 92.0142 169.326 92.0938L166.91 96.1513V86.0473C166.91 85.9677 166.834 85.8086 166.683 85.8086C166.608 85.8086 166.457 85.8882 166.457 86.0473V97.9811L162.682 94.6396C162.607 94.5601 162.456 94.5601 162.38 94.6396C162.305 94.7192 162.305 94.8783 162.38 94.9579L166.381 98.538V108.085L161.927 102.198C162.078 102.118 161.927 102.118 161.852 102.198C161.776 102.277 161.776 102.436 161.852 102.516L166.532 108.801C166.532 108.801 166.532 108.801 166.608 108.881V118.746L162.682 113.734C162.607 113.654 162.456 113.654 162.38 113.734C162.305 113.813 162.305 113.972 162.38 114.052L166.608 119.462V135.374C166.608 135.453 166.683 135.612 166.834 135.612C166.91 135.612 167.061 135.533 167.061 135.374V114.052C167.061 114.052 167.136 114.052 167.136 113.972L171.515 108.403C171.515 108.324 171.515 108.244 171.44 108.165Z" fill="#2B2B2B"/>
</svg>
