<svg width="107" height="303" viewBox="0 0 107 303" fill="none" xmlns="http://www.w3.org/2000/svg">
<path d="M64.8586 96.7137L67.0726 99.5064L53.0133 123.024L59.1217 128.092C59.1217 128.092 77.2729 107.418 79.8536 101.996C82.4342 96.573 75.8135 87.4597 75.8135 87.4597L68.3188 89.5079L64.8586 96.7137Z" fill="#FAA284"/>
<path d="M42.6061 182.311H65.2535C62.3899 196.37 59.5003 210.043 58.24 214.36C55.3466 224.281 52.5428 280.706 52.5428 280.706H43.1318C42.9715 271.295 41.797 260.532 40.973 254.429C36.2526 219.469 43.6501 205.019 43.6501 205.019C42.4831 197.658 42.3153 189.683 42.6061 182.311Z" fill="#FAA284"/>
<path d="M59.6027 291.677C59.0434 291.741 46.6906 289.802 44.4535 288.001C42.8054 286.676 42.66 284.86 41.5303 283.654C42.2648 281.868 43.1522 280.606 43.1522 280.606L47.5743 277.588L52.4214 280.606C55.5236 283.9 62.0225 288.603 62.0225 288.603C62.0225 288.603 60.1619 291.618 59.6027 291.677Z" fill="#FAA284"/>
<path d="M45.3102 287.338C48.047 288.555 58.8561 290.937 59.4154 290.873C59.9747 290.81 61.4661 288.119 61.4661 288.119C72.0926 288.395 71.3767 292.395 71.4699 293.977C71.5631 295.559 61.4699 295.399 56.7122 295.402C53.3863 295.406 47.484 293.478 47.484 293.478L47.2342 295.402H42.4504C39.5869 290.695 40.4184 286.363 41.5295 283.661C43.4124 284.35 45.3102 287.338 45.3102 287.338Z" fill="#B73737"/>
<path d="M18.3562 182.311H42.2713C42.1184 192.593 41.5889 204.353 40.0789 211.732C36.8499 227.5 39.4003 280.702 39.4003 280.702L30.3137 281.197C16.779 231.564 24.2324 206.284 24.2324 206.284C21.436 197.703 19.5456 189.668 18.3562 182.311Z" fill="#FAA284"/>
<path d="M39.9148 282.399C39.9148 282.399 45.8097 291.599 41.8947 295.32L27.4166 295.551C27.4166 295.551 25.4293 292.879 29.9819 282.853L36.4211 282.396H39.9148V282.399Z" fill="#E04646"/>
<path d="M39.0946 278.235L41.1528 289.53C37.2751 288.391 32.0439 288.685 29.24 289.88C29.24 289.88 29.24 285.723 30.8917 278.466L35.0752 274.302L39.0946 278.235Z" fill="#FAA284"/>
<path d="M42.9796 182.293H65.627C63.5352 192.341 61.4286 202.635 59.9558 208.998C55.7947 209.869 49.6649 210.744 42.137 210.613C43.1138 206.799 44.0236 205.009 44.0236 205.009C42.8566 197.644 42.6888 189.364 42.9796 182.293Z" fill="#EF8D72"/>
<path d="M24.6091 206.274C21.809 197.692 19.9223 189.364 18.7329 182.293H42.648C42.5025 191.969 42.0178 203.156 40.6755 210.569C35.6718 210.398 30.0976 209.783 24.1058 208.444C24.3929 207 24.6091 206.274 24.6091 206.274Z" fill="#EF8D72"/>
<path d="M60.7349 68.8101C60.7349 68.8101 65.0787 28.9644 55.2837 9.58299C47.6812 -5.4629 38.6692 2.16238 38.6692 2.16238C38.6692 2.16238 30.0078 -3.80685 24.139 4.0901C18.274 11.9908 8.69898 31.6997 22.271 54.4453C35.8392 77.1946 60.7349 68.8101 60.7349 68.8101Z" fill="url(#paint0_linear)"/>
<path d="M18.9973 13.1548C20.2799 10.1442 21.7415 7.58378 23.0987 5.56675C36.2382 12.0235 47.1368 8.3504 52.7185 5.37695C53.5798 6.53061 54.4411 7.91871 55.2838 9.58593C55.8058 10.6205 56.2867 11.7146 56.7304 12.8534C48.7066 14.0033 33.9452 15.4137 18.9973 13.1548Z" fill="#674434"/>
<path d="M58.9111 61.7314C58.9111 61.7314 63.9037 64.3923 79.3773 93.9258L66.6181 100.464C66.6181 100.464 42.5054 71.6417 58.9111 61.7314Z" fill="#EA6060"/>
<path d="M44.2542 54.4827L44.2915 63.6933L33.0014 63.738L32.9529 51.7549C37.6434 54.8177 42.3265 54.7321 44.2542 54.4827Z" fill="#FAA284"/>
<path d="M32.9494 51.7544L32.9121 42.5251L44.2022 42.4805L44.2507 54.4822C42.3267 54.7315 37.6437 54.8171 32.9494 51.7544Z" fill="#EF8D72"/>
<path d="M20.4362 26.4558L20.7345 26.5563C20.7345 26.5563 22.3714 38.2342 26.3535 24.1001C35.7458 16.9214 38.669 6.11426 38.669 6.11426C42.2297 14.0261 50.9434 25.0193 55.4214 26.8019C55.5743 29.4665 55.2909 33.5117 54.9628 37.1252C54.314 44.196 50.6339 49.3689 43.6839 51.0026C26.9277 54.9436 22.2036 39.0567 22.2036 39.0567C22.2036 39.0567 15.906 39.1906 15.1752 31.0555C14.5787 24.4127 20.4362 26.4558 20.4362 26.4558Z" fill="#FAA284"/>
<path d="M38.2698 11.916C38.2698 11.916 33.7508 20.6577 26.3533 24.1001C35.7903 16.8916 38.6687 6.11426 38.6687 6.11426C41.8343 13.1441 49.0677 22.6078 53.7844 25.879C50.589 24.5876 44.9738 21.1415 38.2698 11.916Z" fill="#EF8D72"/>
<path d="M23.6805 37.3375C23.6805 37.3375 28.2219 49.0862 37.6142 50.3515C43.3301 51.1218 48.2481 48.688 51.2197 46.6635C49.3815 48.7512 46.8797 50.2547 43.6843 51.0064C26.9281 54.9475 22.204 39.0605 22.204 39.0605C22.204 39.0605 17.2152 39.1238 15.6082 33.4746C19.7953 39.2727 23.6805 37.3375 23.6805 37.3375Z" fill="#EF8D72"/>
<path d="M38.7922 64.9955C30.3172 64.9955 27.86 61.1699 27.2896 59.6776C35.6565 57.3889 43.5461 58.055 49.0719 59.3687C48.8892 60.8796 47.4238 64.9955 38.7922 64.9955Z" fill="#FAA284"/>
<path d="M14.922 131.1H14.9183C23.919 109.389 21.9951 100.387 21.9951 100.387H21.928C19.5492 91.5184 17.1517 84.3657 17.1517 84.3657V63.3246C20.1345 61.5829 23.8184 60.3288 26.8497 59.4542C27.0399 59.3984 27.2598 59.3538 27.45 59.3017C28.0205 60.7977 30.3247 64.6196 38.7998 64.6196C47.4314 64.6196 48.714 60.4367 48.8967 58.9258C49.2696 59.0151 49.6424 59.1081 49.9967 59.2012C55.7126 60.7233 59.2323 61.8285 59.2323 61.8285L60.7163 71.7202C66.5627 79.1854 68.043 81.8872 68.0989 84.0606C68.2219 88.9431 64.3293 95.0017 64.3293 95.0017C64.3293 95.0017 92.1072 115.857 77.3159 159.011C73.8707 169.066 72.1257 188.66 70.2316 202.18C70.2316 202.18 38.4716 209.623 15.1345 201.808C10.0599 187.96 3.97864 155.066 14.922 131.1Z" fill="#FC6B6B"/>
<path d="M14.9218 131.099H14.918C23.9188 109.388 21.9949 100.386 21.9949 100.386H21.9277C19.5489 91.5178 17.1514 84.3652 17.1514 84.3652V83.9707C25.3543 91.2127 40.7794 98.864 64.2619 94.9937C64.2619 94.9937 -1.39446 109.593 14.9218 201.29C9.88446 187.167 4.11264 154.779 14.9218 131.099Z" fill="#EA6060"/>
<path d="M53.3524 136.923C53.6283 136.339 53.4382 135.874 52.6291 135.535L54.1615 136.172C54.9706 136.507 55.8356 136.272 56.1861 135.427C56.5366 134.586 56.0929 133.805 55.2875 133.47L57.4054 134.222C58.3561 134.397 59.0869 134.233 59.43 133.407C59.7767 132.581 59.4412 131.967 58.5351 131.438L56.8461 130.552C57.6552 130.887 58.5799 130.459 58.9415 129.641C59.2361 128.967 58.8036 128.148 57.9945 127.813L47.2077 122.987L50.1607 121.398C51.1041 120.884 51.9355 119.622 51.6186 118.755C51.298 117.888 50.5411 117.896 49.5977 118.409L42.1369 120.583C39.8923 121.137 37.3941 122.086 36.1189 125.141C34.799 128.312 36.7789 131.111 39.2957 132.703L41.7304 134.181L43.8706 135.037L51.0034 137.478C51.8125 137.813 53.0578 137.541 53.3524 136.923Z" fill="#EF8D72"/>
<path d="M17.6816 98.9317C17.2341 100.952 16.865 102.53 16.7009 103.736C25.0529 111.369 33.871 116.903 41.4997 121.822L36.5071 129.072C27.4504 125.525 18.6622 120.978 10.7501 115.704C8.43842 114.164 6.02604 112.355 4.41902 110.092C2.3534 107.178 2.56593 106.624 4.88882 96.1592C9.94849 98.8684 14.8292 99.114 17.6816 98.9317Z" fill="#EF8D72"/>
<path d="M4.41821 96.5194C5.07444 93.5682 6.46893 89.7724 7.66207 85.7346C10.5032 76.1109 13.7769 67.3319 13.9186 66.9635C15.1789 63.5956 18.9373 61.8837 22.3116 63.1415C25.686 64.3994 27.4011 68.1506 26.1409 71.5223C26.111 71.5967 23.2736 79.2034 20.6934 87.6958C19.243 92.4704 18.4265 96.6645 17.8075 99.4668C14.9589 99.6454 9.47788 99.2249 4.41821 96.5194Z" fill="#FC6B6B"/>
<path opacity="0.2" d="M107 295.13C107 299.477 80.8992 303 52.1139 303C23.3332 303 0 299.477 0 295.13C0 290.784 23.3332 287.261 52.1139 287.261C80.8992 287.261 107 290.788 107 295.13Z" fill="#98C3C9"/>
<path d="M52.8623 123.46L68.9589 99.5L79.7026 102.431C77.122 107.854 58.9707 128.528 58.9707 128.528L52.8623 123.46Z" fill="#FAA284"/>
<path d="M50.6705 140.068C50.1243 139.72 50.0413 139.221 50.5458 138.508L49.5887 139.861C49.0822 140.577 48.2246 140.837 47.4785 140.306C46.7335 139.78 46.6964 138.883 47.203 138.166L45.8099 139.93C45.0994 140.584 44.3955 140.833 43.6629 140.315C42.9304 139.797 42.89 139.103 43.3781 138.17L44.3376 136.52C43.831 137.236 42.8194 137.364 42.0788 136.859C41.4731 136.446 41.4058 135.52 41.9124 134.804L48.4826 124.972L45.1398 125.197C44.0698 125.265 42.6952 124.635 42.5063 123.733C42.3194 122.827 42.96 122.43 44.0331 122.364L51.5005 120.238C53.6949 119.514 56.3134 118.991 59.0088 120.905C61.8081 122.892 61.6133 126.318 60.3308 129.009L59.0532 131.556L57.6971 133.419L52.9552 139.287C52.4466 140.006 51.2458 140.438 50.6705 140.068Z" fill="#FAA284"/>
<defs>
<linearGradient id="paint0_linear" x1="38.2145" y1="16.63" x2="38.71" y2="52.8523" gradientUnits="userSpaceOnUse">
<stop stop-color="#502F26"/>
<stop offset="1" stop-color="#3B221D"/>
</linearGradient>
</defs>
</svg>
