<svg width="186" height="187" viewBox="0 0 186 187" fill="none" xmlns="http://www.w3.org/2000/svg">
<mask id="mask0" mask-type="alpha" maskUnits="userSpaceOnUse" x="0" y="0" width="186" height="187">
<rect width="186" height="187" fill="white"/>
</mask>
<g mask="url(#mask0)">
<path fill-rule="evenodd" clip-rule="evenodd" d="M0.109032 98.9752C-2.39234 70.64 0.150777 38.382 22.9342 22.0275C45.169 6.06692 74.9063 19.6811 102.231 25.6698C131.128 32.0031 167.152 30.4334 181.016 56.6742C195.064 83.2626 179.284 114.975 161.849 138.509C148.095 157.074 123.926 160.181 101.001 164.682C78.5705 169.086 54.9258 176.044 35.4084 163.333C13.7704 149.241 2.34752 124.333 0.109032 98.9752Z" fill="#D2F8FD"/>
</g>
<g clip-path="url(#clip0)">
<path d="M46.0981 176.474C46.0981 178.801 47.9479 180.723 50.247 180.723H153.571C155.87 180.723 157.72 178.828 157.72 176.474V27.7269C157.72 25.3727 155.87 23.4785 153.571 23.4785H50.247C47.9744 23.4785 46.0981 25.3727 46.0981 27.7269V176.474Z" fill="#784319"/>
<path d="M44.0635 176.474C44.0635 178.801 45.9133 180.723 48.2123 180.723H151.536C153.809 180.723 155.685 178.828 155.685 176.474V27.7269C155.685 25.3727 153.835 23.4785 151.536 23.4785H48.2123C45.9133 23.4785 44.0635 25.3727 44.0635 27.7269V176.474Z" fill="#8B4E21"/>
<path opacity="0.1" d="M150.189 33.0039H53.7617V173.39H150.189V33.0039Z" fill="#231F20"/>
<path d="M148.92 31.6777H52.4932V172.063H148.92V31.6777Z" fill="white"/>
<path d="M123.367 24.75H110.867V17.8768C110.867 12.4107 106.56 8 101.248 8C95.9369 8 91.6031 12.4107 91.6031 17.8768V24.75H79.1038C75.457 24.75 72.4709 27.7807 72.4709 31.542V37.928H129.973V31.5149C129.999 27.7807 127.04 24.75 123.367 24.75ZM100.059 22.8558C97.3639 22.8558 95.197 20.6369 95.197 17.8768C95.197 15.1167 97.3903 12.8707 100.059 12.8707C102.755 12.8707 104.922 15.0896 104.922 17.8497C104.922 20.6098 102.755 22.8558 100.059 22.8558Z" fill="#A0A2A4"/>
<path d="M122.204 24.75H109.705V17.8768C109.705 12.4378 105.397 8 100.059 8C94.7477 8 90.4139 12.4107 90.4139 17.8768V24.75H77.9146C74.2678 24.75 71.2817 27.7807 71.2817 31.542V37.928H128.837V31.5149C128.837 27.7807 125.851 24.75 122.204 24.75ZM100.059 22.8558C97.3638 22.8558 95.1969 20.6369 95.1969 17.8768C95.1969 15.1167 97.3902 12.8707 100.059 12.8707C102.755 12.8707 104.922 15.0896 104.922 17.8497C104.922 20.6098 102.755 22.8558 100.059 22.8558Z" fill="#CFD1D2"/>
<path d="M128.81 31.5156H71.3076V37.9017H128.81V31.5156Z" fill="#C3C6C7"/>
<path d="M100.059 12.8711C100.297 12.8711 100.561 12.8982 100.799 12.9252C98.4471 13.277 96.6502 15.3606 96.6502 17.8501C96.6502 20.3396 98.4471 22.4232 100.799 22.7749C100.561 22.802 100.323 22.8291 100.059 22.8291C97.3637 22.8291 95.1968 20.6102 95.1968 17.8501C95.1968 15.09 97.3901 12.8711 100.059 12.8711Z" fill="#A0A2A4"/>
<path opacity="0.5" d="M138.032 82.6309H64.49V86.9334H138.032V82.6309Z" fill="#9FA1A3"/>
<path opacity="0.5" d="M138.032 89.7461H64.49V94.0486H138.032V89.7461Z" fill="#9FA1A3"/>
<path d="M76.4077 130.744H64.9655C64.2784 130.744 63.697 130.175 63.697 129.445L63.9349 118.377C63.9349 117.674 64.4898 117.105 65.2033 117.105H76.3813C77.0684 117.105 77.6497 117.674 77.6497 118.404V129.472C77.6761 130.148 77.1212 130.744 76.4077 130.744ZM65.2297 117.998C65.0183 117.998 64.8333 118.188 64.8333 118.404L64.5955 129.472C64.5955 129.688 64.7805 129.851 64.9919 129.851H76.4342C76.6456 129.851 76.8305 129.661 76.8305 129.445V118.377C76.8305 118.161 76.6456 117.971 76.4342 117.971H65.2297V117.998Z" fill="#C9CACC"/>
<path d="M69.6696 128.199C69.3261 128.199 69.0354 128.01 68.8504 127.739C68.2691 126.819 66.9478 125.006 65.9172 124.113C65.4944 123.761 65.4415 123.139 65.7851 122.706C66.1286 122.273 66.7364 122.219 67.1592 122.571C68.0048 123.274 68.9561 124.465 69.6961 125.466C72.6557 121.542 76.831 118.43 78.8129 117.808C79.315 117.646 79.8699 117.943 80.0285 118.458C80.187 118.972 79.8963 119.54 79.3942 119.702C78.7072 119.919 77.2538 120.731 75.3511 122.354C73.4485 123.978 71.7044 125.899 70.4888 127.739C70.3038 128.037 69.9867 128.199 69.6696 128.199Z" fill="#D01F37"/>
<path d="M75.2453 151.876H64.0673C63.3802 151.876 62.7988 151.308 62.7988 150.577L63.2745 139.483C63.2745 138.779 63.8294 138.211 64.5429 138.211H75.7209C76.408 138.211 76.9894 138.806 76.9894 139.51L76.5137 150.604C76.5137 151.281 75.9323 151.876 75.2453 151.876ZM64.5429 139.131C64.3315 139.131 64.1465 139.32 64.1465 139.537L63.6709 150.631C63.6709 150.821 63.8558 151.01 64.0673 151.01H75.2453C75.4567 151.01 75.6417 150.821 75.6417 150.604L76.1173 139.51C76.1173 139.32 75.9323 139.131 75.7209 139.131H64.5429Z" fill="#C9CACC"/>
<path d="M68.9826 149.332C68.6391 149.332 68.3484 149.142 68.1634 148.872C67.5821 147.952 66.2872 146.139 65.2302 145.246C64.8074 144.894 64.7545 144.272 65.0981 143.839C65.4416 143.406 66.0494 143.352 66.4722 143.703C67.3178 144.434 68.2691 145.598 69.009 146.599C71.9687 142.675 76.1439 139.563 78.1259 138.941C78.6279 138.779 79.1829 139.076 79.3414 139.59C79.5 140.104 79.2093 140.673 78.7072 140.835C78.0202 141.052 76.5668 141.863 74.6641 143.487C72.7615 145.111 71.0174 147.032 69.8018 148.872C69.6168 149.169 69.2997 149.332 68.9826 149.332Z" fill="#D01F37"/>
<path opacity="0.5" d="M138.032 96.8906H64.49V101.193H138.032V96.8906Z" fill="#9FA1A3"/>
<path opacity="0.5" d="M108.436 104.008H64.49V108.31H108.436V104.008Z" fill="#9FA1A3"/>
<path opacity="0.5" d="M137.292 118.539H81.4287V122.842H137.292V118.539Z" fill="#9FA1A3"/>
<path opacity="0.5" d="M114.514 124.979H81.4287V129.281H114.514V124.979Z" fill="#9FA1A3"/>
<path opacity="0.5" d="M135.628 143.974H80.5039L80.7417 139.672H135.866L135.628 143.974Z" fill="#9FA1A3"/>
<path opacity="0.5" d="M113.589 150.414H80.2395L80.5038 146.111H113.826L113.589 150.414Z" fill="#9FA1A3"/>
<path d="M115.121 60.5767C115.121 68.0452 109.202 74.1066 101.909 74.1066C94.6151 74.1066 88.6958 68.0452 88.6958 60.5767C88.6958 53.1082 94.6151 47.0469 101.909 47.0469C109.202 47.0739 115.121 53.1082 115.121 60.5767Z" fill="#D01F37"/>
<path d="M104.313 51.2148H99.5037V58.1151H92.7651V63.067L99.5037 68.9931V69.9672H99.5565H99.5037L104.022 73.945C110.259 72.9167 115.042 67.3966 115.121 60.7128L104.313 51.2148Z" fill="#EDEDEE"/>
<path d="M111.052 58.1151H104.313V51.2148H99.5037V58.1151H92.7651V63.067H99.5037V69.9672H104.313V63.067H111.052V58.1151Z" fill="white"/>
<path d="M152.579 31.0284C151.099 26.4012 147.875 22.4505 143.541 19.9069C139.392 17.4986 134.424 16.4432 129.509 16.9574C126.761 17.228 123.643 18.3915 121.582 19.9069C120.155 20.9351 118.913 22.1528 117.829 23.5058H124.409C125.862 22.5317 128.109 21.7199 129.958 21.5305C138.309 20.6645 146.025 25.2647 148.324 32.4355C149.408 35.8721 149.857 39.8499 149.645 44.2606C149.487 47.2913 149.117 50.5114 148.43 54.7057C147.849 58.2234 147.241 62.093 146.58 66.1519C145.867 70.5897 145.127 75.2981 144.334 80.0877C144.942 79.79 145.734 79.6547 146.554 79.8171C147.505 79.9794 148.271 80.4665 148.721 81.0889C149.54 76.2181 150.28 71.4286 151.02 66.9096C151.654 62.8506 152.288 59.0082 152.869 55.4904C153.583 51.1067 153.979 47.7243 154.138 44.5312C154.376 39.5252 153.847 34.9791 152.579 31.0284Z" fill="#32556D"/>
<path d="M156.199 100.22C154.93 107.526 148.086 112.397 140.951 111.071C133.816 109.772 129.06 102.763 130.355 95.4572C131.623 88.1511 138.467 83.2804 145.602 84.6063C152.737 85.9322 157.494 92.9136 156.199 100.22Z" fill="#A1A3A5"/>
<path d="M154.904 99.9764C153.741 106.552 147.611 110.909 141.216 109.745C134.794 108.554 130.54 102.276 131.676 95.728C132.839 89.1525 138.969 84.7959 145.364 85.9595C151.786 87.1231 156.04 93.4009 154.904 99.9764Z" fill="#E6E7E8"/>
<path d="M138.388 94.1852L135.138 89.125C133.499 90.7215 132.31 92.8051 131.781 95.1864L137.41 96.2688C137.622 95.484 137.939 94.7805 138.388 94.1852Z" fill="#F6F6F6"/>
<path d="M148.535 100.977C148.165 101.626 147.69 102.167 147.135 102.654L149.17 108.337C151.125 107.2 152.737 105.468 153.794 103.385L148.535 100.977Z" fill="#F6F6F6"/>
<path d="M144.36 91.6955C145.47 91.8849 146.421 92.3991 147.214 93.1026L149.064 82.4682C149.275 81.3046 148.139 80.114 146.527 79.8163C144.915 79.5187 143.462 80.2222 143.25 81.3858L141.4 91.912C142.352 91.6414 143.329 91.5061 144.36 91.6955Z" fill="#ADAFB1"/>
<path d="M144.36 91.6958C144.677 91.7499 144.994 91.8582 145.285 91.9664L147.373 80.0872C147.109 79.979 146.844 79.8978 146.554 79.8437C144.942 79.546 143.488 80.2495 143.277 81.4131L141.427 91.9394C142.352 91.6417 143.33 91.5064 144.36 91.6958Z" fill="#CCCECE"/>
<path d="M149.275 98.9465C148.694 102.329 145.523 104.602 142.22 103.98C138.917 103.384 136.697 100.137 137.305 96.7276C137.886 93.3451 141.057 91.0721 144.387 91.6945C147.663 92.3168 149.883 95.564 149.275 98.9465Z" fill="#ADAFB1"/>
<path d="M147.742 98.6502C147.293 101.167 144.941 102.844 142.484 102.411C140.026 101.951 138.388 99.5432 138.811 97.0266C139.26 94.5101 141.612 92.8324 144.069 93.2653C146.553 93.7253 148.192 96.1336 147.742 98.6502Z" fill="#F8F8F9"/>
<path d="M23.3312 36.2515C23.3576 36.4409 23.4105 36.6032 23.4898 36.7656C20.6358 37.0633 17.5704 38.1727 15.06 39.9316C12.1003 41.9881 10.3563 44.5859 10.1713 47.2648C9.11425 62.0123 14.1351 81.8741 16.8305 92.5357C17.0155 93.2933 17.2005 93.9698 17.359 94.6193L14.4258 95.3228C14.2672 94.6734 14.1087 94.0239 13.9237 93.2933C11.1754 82.4424 6.04888 62.2558 7.15876 46.9942C7.42301 43.3682 9.61634 39.9586 13.3688 37.3609C16.672 35.0608 20.7151 33.7349 24.4411 33.5996C23.6483 34.1408 23.067 34.9797 23.3312 36.2515Z" fill="#BDBFC1"/>
<path d="M23.3309 36.2511C23.4366 36.8193 23.7008 37.2252 24.0444 37.577C21.2433 37.9017 18.31 38.957 15.8789 40.6347C13.0513 42.6101 11.3865 45.1267 11.2015 47.6973C10.1445 62.4449 15.1654 82.3067 17.8608 92.9953C17.9929 93.4824 18.0986 93.9424 18.2308 94.4024L15.2975 95.106C15.1918 94.673 15.0861 94.213 14.954 93.753C12.2057 82.902 7.07915 62.7155 8.18903 47.4538C8.45329 43.909 10.5673 40.5806 14.1876 38.0641C16.9888 36.1158 20.3448 34.8981 23.5951 34.4922C23.3045 34.9522 23.1723 35.5205 23.3309 36.2511Z" fill="#D5D7D8"/>
<path d="M31.2324 35.1145C30.9946 33.3285 29.3826 32.0838 27.6386 32.3273C27.6386 32.3273 22.4327 32.7603 23.0934 36.278C23.6747 39.3087 28.5106 38.7946 28.5106 38.7946C30.2811 38.524 31.4703 36.9004 31.2324 35.1145Z" fill="#3E4042"/>
<path d="M27.6385 32.3273C27.6385 32.3273 23.9125 32.652 23.1726 34.8439C24.3618 36.0345 26.0001 36.7651 27.7971 36.711C29.0919 36.6839 30.2811 36.2239 31.2853 35.5204C31.2853 35.3851 31.2853 35.2498 31.2588 35.0874C30.9946 33.3285 29.3826 32.0838 27.6385 32.3273Z" fill="#4E5052"/>
<path d="M63.8678 88.5023C63.8414 89.0705 63.815 89.6117 63.7885 90.1258L60.776 90.0447C60.8024 89.5035 60.8289 88.9623 60.8553 88.367C61.3574 77.2725 62.2558 56.653 58.2392 42.2572C57.4992 39.6324 55.2266 37.3864 51.8177 35.9523C49.0695 34.7887 45.9777 34.3558 43.203 34.5993C43.2294 34.464 43.2294 34.3287 43.2294 34.1934C43.203 32.8134 42.3574 32.1098 41.3796 31.731C42.4367 31.5415 43.5201 31.4062 44.63 31.4062C47.4047 31.4062 50.3115 31.9474 52.954 33.0569C57.2086 34.8699 60.1154 37.8194 61.1196 41.3642C65.2948 56.2741 64.3699 77.2454 63.8678 88.5023Z" fill="#B0B2B4"/>
<path d="M62.996 88.6394C62.9695 89.1265 62.9431 89.6135 62.9167 90.0736L59.9042 89.9924C59.9306 89.5053 59.957 89.0182 59.9834 88.477C60.512 77.4637 61.4897 56.9525 57.4994 42.7461C56.8124 40.2566 54.6719 38.146 51.5008 36.793C48.8054 35.6565 45.6872 35.2235 42.8596 35.4941C43.0711 35.1153 43.2296 34.6823 43.2296 34.1952C43.2296 33.4105 42.9389 32.8423 42.5161 32.4364C43.1503 32.3822 43.7845 32.3281 44.4452 32.3281C47.2199 32.3281 50.0738 32.8423 52.6635 33.9517C56.6802 35.6565 59.4285 38.4707 60.3798 41.9073C64.5286 56.6007 63.5245 77.4367 62.996 88.6394Z" fill="#D5D7D8"/>
<path d="M35.2755 34.7642C35.1698 32.9783 36.491 31.4359 38.2351 31.3006C38.2351 31.3006 43.4145 30.6512 43.4674 34.196C43.4938 37.2808 38.6579 37.7679 38.6579 37.7679C36.8874 37.9032 35.3812 36.5502 35.2755 34.7642Z" fill="#3E4042"/>
<path d="M43.2032 33.085C42.199 30.7849 38.2088 31.2991 38.2088 31.2991C36.4647 31.4073 35.1434 32.9768 35.2491 34.7627C35.2491 34.8439 35.2755 34.9521 35.2755 35.0333C36.174 35.4933 37.2046 35.7639 38.3145 35.7369C40.3492 35.6557 42.0933 34.6274 43.2032 33.085Z" fill="#4E5052"/>
<path d="M98.5119 180.723C96.0014 181.833 93.2268 182.374 90.2142 182.401C90.1614 182.401 90.1085 182.401 90.0557 182.401C85.4576 182.401 81.9959 181.075 81.9695 181.075L81.8902 181.048C74.4117 178.396 67.7789 173.553 62.1767 166.652C57.6315 161.078 53.7733 154.124 50.6551 146.033C46.7441 135.885 45.0529 126.415 44.4187 121.977C44.4451 121.977 44.4451 121.977 44.4715 121.977C56.5216 117.458 63.6037 106.012 64.0529 90.1275L59.5341 89.9922C59.1113 104.604 52.7692 114.535 41.644 118.053C30.0432 116.917 21.8512 108.528 18.548 94.2947L14.1614 95.3771C17.7817 110.936 27.1363 120.705 39.9792 122.518C40.6398 127.091 42.3575 136.887 46.4799 147.629C49.7566 156.207 53.879 163.568 58.7414 169.548C64.8721 177.097 72.1656 182.428 80.4368 185.378C80.9124 185.567 84.8498 187.001 90.0821 187.001C96.5035 187.001 102.238 184.836 106.836 180.723H98.5119Z" fill="#32556D"/>
</g>
<defs>
<clipPath id="clip0">
<rect x="7" y="8" width="152" height="179" fill="white"/>
</clipPath>
</defs>
</svg>
