<svg width="377" height="210" viewBox="0 0 377 210" fill="none" xmlns="http://www.w3.org/2000/svg">
<rect width="377" height="210" rx="4" fill="#E2EAFF"/>
<path d="M129.765 68.013C127.324 65.2266 125.678 61.6867 125.295 57.6777C124.387 48.2664 131.043 39.4807 140.339 37.8174C150.628 35.9835 160.293 43.0775 161.741 53.3559C162.252 57.0522 161.628 60.6347 160.137 63.7623C159.499 65.0986 159.726 66.7335 160.705 67.8424C162.99 70.444 164.58 73.7138 165.105 77.41C165.616 81.1063 164.991 84.6888 163.501 87.8164C162.862 89.167 163.104 90.8018 164.097 91.9249C166.538 94.7114 168.184 98.2512 168.568 102.26C169.476 111.671 162.82 120.457 153.524 122.121C143.234 123.954 133.569 116.86 132.121 106.582C131.61 102.886 132.235 99.3032 133.725 96.1756C134.364 94.8393 134.137 93.2044 133.157 92.0955C130.872 89.4939 129.283 86.2242 128.758 82.5279C128.247 78.8317 128.871 75.2491 130.362 72.1215C131 70.771 130.759 69.1361 129.765 68.013Z" fill="#56A953"/>
<path d="M100.358 81.0346C96.1146 79.812 92.1833 77.3099 89.2171 73.5283C82.2628 64.6715 83.2988 51.5356 91.573 43.8872C100.741 35.4142 115.005 36.3098 123.052 45.7069C125.947 49.0904 127.622 53.0852 128.133 57.1937C128.36 58.9565 129.637 60.4492 131.34 60.9326C135.314 62.0699 139.018 64.3303 141.899 67.7138C144.795 71.0973 146.469 75.0921 146.98 79.2007C147.207 80.9635 148.499 82.4562 150.216 82.9396C154.46 84.1622 158.391 86.6643 161.357 90.4458C168.312 99.3026 167.276 112.439 159.001 120.087C149.833 128.56 135.57 127.664 127.522 118.267C124.627 114.884 122.953 110.889 122.442 106.78C122.215 105.018 120.937 103.525 119.234 103.042C115.26 101.904 111.57 99.6438 108.675 96.2603C105.78 92.8768 104.105 88.882 103.594 84.7735C103.367 83.0106 102.061 81.5321 100.358 81.0346Z" fill="#8FD86E"/>
<path d="M119.049 77.6939L103.367 76.983C102.302 76.9404 101.479 76.0305 101.522 74.9643C101.564 73.8981 102.473 73.0735 103.537 73.1162L115.586 73.6706L111.485 68.8939L95.8022 68.1831C94.7378 68.1404 93.9146 67.2306 93.9572 66.1644C93.9998 65.0981 94.9081 64.2736 95.9725 64.3162L108.022 64.8707L98.7542 54.052C98.0588 53.2417 98.1581 52.0191 98.9671 51.3225C99.7761 50.6259 100.997 50.7254 101.692 51.5357L126.515 80.4518L127.806 68.439C127.92 67.3728 128.871 66.6051 129.935 66.7188C130.999 66.8325 131.766 67.785 131.652 68.8513L129.978 84.4893L148.768 106.411L150.443 89.7351C150.557 88.6689 151.493 87.9012 152.558 88.0007C153.622 88.1145 154.389 89.0527 154.289 90.119L152.246 110.463L169.929 131.105C170.625 131.915 170.525 133.138 169.716 133.834C168.907 134.531 167.687 134.431 166.991 133.621L119.049 77.6939Z" fill="#56A953"/>
<path d="M71.2361 112.822C66.1126 113.021 60.8898 111.671 56.2489 108.586C45.3775 101.335 41.7868 86.4792 48.1308 75.0634C55.1702 62.3966 71.2219 58.217 83.4983 65.6522C87.9122 68.3249 91.1906 72.1348 93.2485 76.4708C94.1284 78.3332 96.0728 79.5131 98.1307 79.4278C102.928 79.243 107.81 80.3946 112.224 83.0672C116.638 85.7399 119.93 89.5499 121.974 93.9001C122.854 95.7625 124.827 96.9282 126.885 96.8571C132.008 96.6581 137.245 98.0087 141.872 101.094C152.743 108.344 156.334 123.2 149.99 134.616C142.95 147.283 126.899 151.462 114.622 144.027C110.208 141.354 106.93 137.544 104.872 133.208C103.992 131.346 102.048 130.166 99.9899 130.251C95.1929 130.436 90.3107 129.285 85.8968 126.612C81.483 123.939 78.1904 120.129 76.1466 115.779C75.2667 113.903 73.294 112.751 71.2361 112.822Z" fill="#56A953"/>
<path d="M86.1375 122.006C85.811 120.811 86.5065 119.575 87.6986 119.233L108.774 113.362L90.6365 102.358L73.0946 107.249C71.9024 107.576 70.6677 106.879 70.3413 105.685C70.0007 104.491 70.7103 103.254 71.9025 102.913L85.3853 99.1598L59.7537 83.6071C58.6893 82.9673 58.3629 81.5884 59.0015 80.5221C59.6402 79.4559 61.0169 79.1289 62.0813 79.7687L99.8615 102.7L96.9379 88.9951C96.6824 87.7867 97.4488 86.5925 98.6694 86.3366C99.8757 86.0807 101.068 86.8484 101.323 88.0568L105.127 105.898L133.753 123.257L129.58 104.278C129.311 103.069 130.077 101.875 131.284 101.605C132.49 101.335 133.682 102.103 133.952 103.311L139.047 126.469L165.984 142.818C167.049 143.458 167.375 144.837 166.736 145.903C166.098 146.97 164.721 147.296 163.657 146.657L114.026 116.546L88.8766 123.555C87.6986 123.896 86.4639 123.2 86.1375 122.006Z" fill="#459B45"/>
<path d="M272.214 57.2792L273.023 57.663L271.916 54.5639C271.647 53.7962 272.044 52.9432 272.811 52.6731C273.577 52.403 274.429 52.801 274.698 53.5687L275.805 56.6679L276.188 55.8576C276.543 55.1183 277.423 54.8055 278.161 55.1467C278.899 55.4879 279.211 56.3694 278.871 57.1086L277.608 59.8097L277.239 60.5916L278.402 63.833L281.468 57.3218L280.985 55.9855L279.325 51.3652C278.871 50.0999 279.524 48.7067 280.787 48.2518C282.05 47.7969 283.441 48.4508 283.895 49.7161L284.392 51.0951L286.691 46.1904C287.258 44.9678 288.706 44.456 289.927 45.0247C291.147 45.5933 291.658 47.0434 291.09 48.266L288.791 53.1707L290.168 52.6731C291.431 52.2182 292.822 52.8721 293.276 54.1374C293.73 55.4026 293.077 56.7958 291.814 57.2508L287.202 58.9141L285.868 59.3974L282.802 65.9085L286.038 64.7428L286.407 63.9609L287.67 61.2598C288.025 60.5205 288.905 60.2078 289.629 60.549C290.367 60.8902 290.679 61.7858 290.338 62.5108L289.955 63.3212L293.049 62.2123C293.815 61.9422 294.667 62.3402 294.937 63.1079C295.206 63.8756 294.809 64.7286 294.042 64.9987L290.949 66.1076L291.757 66.4914C292.495 66.8326 292.808 67.7282 292.467 68.4533C292.112 69.1925 291.232 69.5053 290.509 69.1641L287.812 67.8988L287.031 67.5292L281.014 69.6901L280.73 70.3014L282.759 75.9737L279.978 76.9689L278.942 74.083L274.4 83.7217L270 81.6461L274.542 72.0074L271.661 73.0452L270.668 70.2588L276.33 68.2258L276.614 67.6145L274.457 61.5868L273.676 61.2171L270.98 59.9519C270.242 59.6107 269.93 58.7151 270.27 57.99C270.597 57.2508 271.476 56.938 272.214 57.2792Z" fill="#8FD853"/>
<path d="M257.073 75.6327C255.994 77.9073 253.312 86.6219 249.976 98.0093C249.678 99.0471 249.366 100.113 249.04 101.194C246.485 110.008 243.618 120.116 240.865 129.968C240.567 131.034 240.269 132.114 239.971 133.181C238.324 139.095 236.721 144.838 235.273 150.084C233.953 154.875 240.325 157.889 243.178 153.809C243.533 153.311 243.888 152.799 244.243 152.287C242.71 151.335 241.73 149.529 242.327 147.369C243.334 143.729 244.413 139.834 245.534 135.825C245.832 134.773 246.116 133.692 246.414 132.612C246.598 131.986 246.769 131.361 246.939 130.735C247.436 128.958 247.947 127.167 248.443 125.347C249.323 122.262 250.203 119.135 251.069 116.05C251.495 114.557 251.906 113.079 252.332 111.614C253.084 108.956 253.837 106.354 254.56 103.824C254.858 102.729 255.171 101.663 255.469 100.625C256.689 96.4028 257.853 92.4365 258.903 88.8966C259.031 88.4416 259.173 87.9867 259.301 87.5602C259.968 85.3567 260.578 83.3237 261.132 81.5183C261.231 81.1913 261.33 80.8785 261.43 80.58C261.6 80.0398 261.756 79.528 261.912 79.0304C261.969 78.8172 262.04 78.6181 262.111 78.4333C262.494 77.2391 262.835 76.2156 263.147 75.3484C263.53 74.2537 263.842 73.4291 264.084 72.9316C264.183 72.7183 264.282 72.5051 264.396 72.306C264.552 72.0075 264.722 71.6947 264.907 71.4104C265.077 71.1119 265.262 70.8275 265.46 70.5574C265.602 70.33 265.772 70.1025 265.943 69.8893C266.014 69.7898 266.099 69.6902 266.184 69.5907C266.34 69.3775 266.51 69.1784 266.695 68.9936C266.894 68.752 267.121 68.5103 267.348 68.297C268.057 67.6004 268.824 66.9607 269.633 66.4062C266.34 66.8612 263.218 68.297 260.734 70.5717C259.897 71.3251 259.145 72.1923 258.478 73.1448C257.981 73.8983 257.484 74.737 257.073 75.6327Z" fill="#FC5E15"/>
<path d="M264.126 72.9032C263.884 73.4149 263.572 74.2253 263.189 75.3199C261.571 79.9118 258.733 89.3515 255.483 100.597C255.184 101.634 254.872 102.701 254.574 103.795C251.934 112.922 249.096 123.03 246.428 132.584C246.13 133.664 245.846 134.744 245.548 135.796C244.427 139.82 243.348 143.701 242.34 147.34C241.73 149.515 242.724 151.321 244.256 152.259C249.919 144.141 256.462 134.759 262.678 125.731C263.317 124.807 263.941 123.912 264.551 123.002C269.377 116.021 273.904 109.354 277.637 103.795C278.276 102.843 278.886 101.919 279.468 101.037C280.901 98.8623 282.178 96.9146 283.243 95.2513C283.91 94.1993 284.492 93.261 284.989 92.4507C285.783 91.157 286.351 90.1761 286.635 89.5648C290.013 82.3997 287.728 73.9978 281.611 69.4486C280.745 68.8088 279.823 68.2544 278.815 67.7853C277.992 67.4014 277.154 67.0887 276.303 66.847C274.103 66.2072 271.846 66.0651 269.661 66.3778C267.532 67.8421 265.701 69.8324 264.424 72.2634C264.324 72.4909 264.225 72.6899 264.126 72.9032Z" fill="#FE8431"/>
<path d="M270.058 87.2336C269.674 88.0439 270.029 89.039 270.838 89.4229L283.242 95.28C283.909 94.228 284.491 93.2897 284.988 92.4794L272.229 86.4517C271.42 86.0678 270.441 86.409 270.058 87.2336Z" fill="#FC5E15"/>
<path d="M270.54 98.6487C270.157 99.459 270.498 100.44 271.321 100.824L277.636 103.809C278.275 102.857 278.885 101.933 279.467 101.051L272.712 97.8668C271.903 97.4829 270.923 97.8383 270.54 98.6487Z" fill="#FC5E15"/>
<path d="M249.976 98.0093C249.677 99.0471 249.365 100.113 249.039 101.194L259.91 106.326C260.719 106.71 261.713 106.354 262.096 105.544C262.479 104.734 262.124 103.738 261.315 103.355L249.976 98.0093Z" fill="#FC5E15"/>
<path d="M257.057 121.282C256.674 122.092 257.029 123.087 257.838 123.471L262.663 125.746C263.302 124.822 263.926 123.926 264.537 123.016L259.229 120.5C258.42 120.13 257.44 120.471 257.057 121.282Z" fill="#FC5E15"/>
<path d="M240.863 129.968C240.565 131.034 240.267 132.114 239.969 133.181L249.336 137.602C250.145 137.986 251.138 137.63 251.522 136.82C251.905 136.01 251.55 135.015 250.741 134.631L240.863 129.968Z" fill="#FC5E15"/>
<path d="M258.533 73.1307L271.32 79.1727C272.129 79.5565 273.123 79.2011 273.506 78.3908C273.889 77.5805 273.534 76.5853 272.725 76.2015L260.789 70.5718C259.952 71.311 259.2 72.1782 258.533 73.1307Z" fill="#FC5E15"/>
<path d="M220.171 30.6377H221.066L218.738 28.3062C218.156 27.7233 218.156 26.785 218.738 26.2164C219.32 25.6335 220.257 25.6335 220.824 26.2164L223.152 28.5479V27.6522C223.152 26.8419 223.819 26.1737 224.628 26.1737C225.437 26.1737 226.104 26.8419 226.104 27.6522V30.6377V31.5049L228.545 33.9501V26.7424L227.537 25.733L224.074 22.2642C223.123 21.3117 223.123 19.7764 224.074 18.8239C225.025 17.8714 226.558 17.8714 227.509 18.8239L228.545 19.8617V14.431C228.545 13.0804 229.638 12 230.972 12C232.32 12 233.399 13.0947 233.399 14.431V19.8474L234.435 18.8096C235.386 17.8572 236.918 17.8572 237.869 18.8096C238.82 19.7621 238.82 21.2975 237.869 22.25L234.406 25.7188L233.399 26.7282V33.9359L235.84 31.4907V30.6235V27.638C235.84 26.8277 236.507 26.1595 237.316 26.1595C238.125 26.1595 238.792 26.8277 238.792 27.638V28.5337L241.105 26.2164C241.687 25.6335 242.624 25.6335 243.192 26.2164C243.773 26.7993 243.773 27.7375 243.192 28.3062L240.864 30.6377H241.758C242.567 30.6377 243.234 31.3058 243.234 32.1162C243.234 32.9265 242.567 33.5947 241.758 33.5947H238.778H237.912L233.385 38.1297V38.8121L237.642 43.077L235.556 45.1668L233.385 42.9917V53.654H228.531V42.9917L226.359 45.1668L224.273 43.077L228.531 38.8121V38.1297L224.003 33.5947H223.138H220.157C219.348 33.5947 218.681 32.9265 218.681 32.1162C218.695 31.2916 219.362 30.6377 220.171 30.6377Z" fill="#8FD853"/>
<path d="M214.282 53.6542C214.297 58.7153 215.418 63.9327 216.17 68.9226C217.22 75.9597 218.342 82.9826 219.491 89.9913C220.669 97.2132 221.875 104.421 223.096 111.643C223.692 115.225 224.302 118.822 224.913 122.405C225.196 124.04 225.48 125.689 225.75 127.324C225.991 128.703 226.048 130.323 226.658 131.588C227.538 133.437 229.667 134.332 231.626 133.906C234.393 133.309 234.876 130.92 235.316 128.503C232.321 128.148 231.626 125.689 231.186 123.13C230.646 119.931 230.093 116.732 229.554 113.519C228.404 106.752 227.836 99.8433 226.715 93.0763C224.671 80.6938 221.975 68.4393 220.314 55.9857C219.945 53.1567 219.363 50.2139 219.534 47.3422C219.69 44.7264 220.442 42.2243 221.748 39.9639C217.178 42.9351 214.282 48.1525 214.282 53.6542Z" fill="#FC5E15"/>
<path d="M219.505 48.2093C219.505 53.0713 220.598 58.0897 221.293 62.8806C222.116 68.5103 227.708 102.573 229.624 113.974C230.149 117.088 230.688 120.215 231.214 123.329C231.639 125.831 232.42 128.148 235.301 128.489C238.239 111.273 245.136 68.7377 245.704 64.6861C246.201 61.1035 246.91 57.4215 246.967 53.7821C247.052 47.2994 243.036 41.229 237.118 38.6559C233.073 36.893 228.375 36.8788 224.316 38.5848C223.379 38.9828 221.761 39.9496 221.761 39.9496C221.222 40.7172 220.669 42.082 220.385 42.9634C219.817 44.6552 219.505 46.4322 219.505 48.2093Z" fill="#FE8431"/>
<path d="M237.487 60.8053C237.487 61.7151 238.225 62.4544 239.133 62.4544H246.016C246.13 61.6867 246.229 60.9617 246.314 60.2793C246.357 59.8954 246.414 59.5258 246.456 59.1704H239.133C238.239 59.1704 237.487 59.9239 237.487 60.8053Z" fill="#FC5E15"/>
<path d="M230.376 70.9269C230.376 71.8367 231.1 72.576 231.994 72.576H244.526C244.654 71.8367 244.767 71.0975 244.867 70.4009C244.924 70.0312 244.98 69.6616 245.023 69.292H231.994C231.114 69.292 230.376 70.0312 230.376 70.9269Z" fill="#FC5E15"/>
<path d="M222.755 109.766C222.954 110.86 223.124 111.969 223.308 113.05H233.669C234.563 113.05 235.315 112.31 235.315 111.401C235.315 110.505 234.577 109.751 233.669 109.751H222.755V109.766Z" fill="#FC5E15"/>
<path d="M214.552 50.7967H225.764C226.672 50.7967 227.41 50.0716 227.41 49.1618C227.41 48.2519 226.672 47.5127 225.764 47.5127H215.503C215.063 48.5505 214.736 49.6594 214.552 50.7967Z" fill="#FC5E15"/>
<path d="M214.281 53.6538V53.6965C214.281 54.3504 214.367 55.4593 214.523 56.9378H222.84C223.748 56.9378 224.486 56.1985 224.486 55.2887C224.486 54.3931 223.748 53.6538 222.84 53.6538H214.281Z" fill="#FC5E15"/>
<path d="M254.261 163.248L283.739 184.544C290.636 189.52 299.294 190.387 306.745 187.615C306.702 187.671 306.674 187.714 306.645 187.771C299.492 197.708 285.527 199.969 275.606 192.804L248.996 173.583C239.075 166.418 236.818 152.429 243.971 142.492C244.014 142.435 244.057 142.392 244.085 142.35C243.815 150.311 247.363 158.272 254.261 163.248Z" fill="#993420"/>
<path d="M275.011 137.46L301.636 156.694C311.499 163.817 313.784 177.692 306.759 187.615C299.308 190.387 290.651 189.52 283.753 184.544L254.276 163.248C247.378 158.272 243.83 150.311 244.1 142.35C251.267 132.555 265.133 130.337 275.011 137.46Z" fill="#B84223"/>
<path d="M290.594 163.675C289.487 165.21 289.827 167.371 291.374 168.48C292.907 169.589 295.064 169.248 296.171 167.698C297.278 166.148 296.938 164.002 295.391 162.893C293.858 161.784 291.701 162.125 290.594 163.675Z" fill="#993420"/>
<path d="M274.627 148.605C273.889 149.628 274.116 151.064 275.138 151.803C276.16 152.543 277.593 152.315 278.331 151.292C279.069 150.268 278.842 148.832 277.82 148.093C276.799 147.34 275.365 147.581 274.627 148.605Z" fill="#993420"/>
<path d="M271.292 163.859C269.447 166.432 270.029 170.015 272.584 171.863C275.153 173.711 278.729 173.128 280.574 170.569C282.419 167.996 281.837 164.414 279.283 162.566C276.714 160.717 273.137 161.3 271.292 163.859Z" fill="#993420"/>
<path d="M234.009 197.566H260.534V157.746H234.009C223.08 157.746 214.125 166.702 214.125 177.649C214.125 188.595 223.08 197.566 234.009 197.566Z" fill="#CB4E36"/>
<path d="M214.139 177.649C214.139 188.596 223.081 197.566 234.009 197.566H260.534C266.637 197.566 271.931 193.273 274.613 187.003C273.464 187.202 272.286 187.316 271.065 187.316H232.419C224.826 187.316 218.085 183.421 214.139 177.493C214.153 177.55 214.139 177.606 214.139 177.649Z" fill="#993420"/>
<path d="M244.596 177.649C244.596 181.161 245.306 184.43 246.597 187.302C249.322 193.415 254.545 197.552 260.534 197.552C266.637 197.552 271.931 193.259 274.613 186.989C275.805 184.203 276.472 181.018 276.472 177.635C276.472 166.646 269.333 157.732 260.52 157.732C251.735 157.746 244.596 166.66 244.596 177.649Z" fill="#FFBD76"/>
<path d="M260.534 192.875C264.408 192.875 268.056 189.946 270.071 185.241C271.051 182.938 271.576 180.308 271.576 177.649C271.576 169.389 266.523 162.423 260.534 162.423C254.545 162.423 249.492 169.389 249.492 177.649C249.492 180.464 250.032 183.094 251.096 185.468C253.154 190.046 256.759 192.875 260.534 192.875Z" fill="#FFCF9B"/>
<path d="M223.691 177.151C223.691 178.843 225.068 180.222 226.756 180.222C228.445 180.222 229.822 178.843 229.822 177.151C229.822 175.46 228.445 174.081 226.756 174.081C225.068 174.081 223.691 175.46 223.691 177.151Z" fill="#993420"/>
<path d="M234.69 165.849C234.69 166.987 235.612 167.897 236.733 167.897C237.869 167.897 238.777 166.972 238.777 165.849C238.777 164.726 237.855 163.802 236.733 163.802C235.612 163.802 234.69 164.726 234.69 165.849Z" fill="#993420"/>
<path d="M175.072 118.326C159.491 111.959 152.012 94.1452 158.368 78.5371C164.724 62.9291 182.508 55.4377 198.09 61.8046C213.672 68.1716 221.151 85.9858 214.795 101.594C208.438 117.202 190.654 124.693 175.072 118.326Z" fill="#56A929"/>
<path d="M130.914 108.458C124.57 142.236 144.496 176.142 177.082 186.918C189.217 190.941 201.55 191.425 213.06 189.008C219.801 187.586 221.504 178.786 215.686 175.104C212.904 173.342 211.57 170.001 212.379 166.816L214.905 156.794C215.714 153.609 214.38 150.268 211.612 148.506L202.941 143.004C200.159 141.241 198.839 137.9 199.648 134.701L202.203 124.665C203.012 121.48 201.678 118.125 198.91 116.362L190.239 110.861C187.457 109.098 186.137 105.757 186.946 102.558L189.486 92.5214C190.295 89.337 188.961 85.9819 186.194 84.2191L177.522 78.7173C174.74 76.9545 173.42 73.6137 174.229 70.415L174.244 70.3581C175.918 63.7901 168.765 58.4163 162.989 61.942C146.866 71.794 134.732 88.1428 130.914 108.458Z" fill="#368916"/>
<path d="M242.225 108.458C248.57 142.236 228.643 176.142 196.057 186.918C183.923 190.941 171.59 191.425 160.08 189.008C153.338 187.586 151.635 178.786 157.454 175.104C160.236 173.342 161.57 170.001 160.761 166.816L158.235 156.794C157.426 153.609 158.76 150.268 161.527 148.506L170.199 143.004C172.981 141.241 174.3 137.9 173.491 134.701L170.937 124.665C170.128 121.48 171.462 118.125 174.229 116.362L182.901 110.861C185.683 109.098 187.003 105.757 186.194 102.558L183.653 92.5214C182.844 89.337 184.178 85.9819 186.946 84.2191L195.617 78.7173C198.399 76.9545 199.719 73.6137 198.91 70.415L198.896 70.3581C197.221 63.7901 204.374 58.4163 210.151 61.942C226.287 71.794 238.408 88.1428 242.225 108.458Z" fill="#459B1E"/>
<path d="M117.404 136.237C121.037 169.745 148.911 196.016 182.32 197.794C182.973 197.85 183.654 197.865 184.292 197.893C184.463 197.893 184.661 197.921 184.846 197.893C186.024 197.921 187.202 197.921 188.38 197.893C189.586 197.836 190.778 197.765 191.956 197.666C201.849 196.869 211.145 193.955 219.334 189.434C224.897 186.392 224.571 178.573 219.305 175.957C218.851 175.687 218.354 175.502 217.829 175.36C217.673 175.332 217.56 175.289 217.432 175.204C216.807 175.033 216.254 174.749 215.729 174.422C213.699 173.114 212.394 170.882 212.28 168.38L212.252 167.754V167.655L211.769 158.073C211.613 154.789 209.385 151.974 206.206 151.093L196.313 148.335C193.163 147.453 190.906 144.653 190.75 141.354L190.296 131.019C190.168 128.432 188.749 126.129 186.62 124.849C186.038 124.48 185.414 124.195 184.747 124.025L174.855 121.295C173.549 120.94 172.428 120.272 171.576 119.362C170.398 118.239 169.618 116.774 169.39 115.154C169.334 114.884 169.319 114.599 169.291 114.329L168.809 103.994C168.652 100.71 166.424 97.8666 163.245 96.9994L156.589 95.1654L153.353 94.2556C150.202 93.3742 147.946 90.5735 147.79 87.2753V87.2043C147.633 83.8918 145.533 81.4608 142.907 80.4373C140.197 79.3852 136.89 79.8544 134.591 82.4418C122.03 96.5018 115.175 115.694 117.404 136.237Z" fill="#68BB35"/>
<path d="M122.073 144.951C125.196 143.714 128.644 143.757 131.753 145.079C132.008 145.193 132.249 145.306 132.491 145.434C132.334 144.809 132.193 144.183 132.065 143.543C132.065 143.529 132.051 143.515 132.051 143.487C132.036 143.444 132.036 143.387 132.036 143.344C130.716 136.99 130.277 130.038 131.1 122.489V122.446C131.738 117.57 128.176 113.078 123.251 112.424C122.158 112.282 121.378 111.272 121.534 110.178C121.676 109.083 122.698 108.301 123.776 108.457C127.466 108.941 130.575 110.931 132.618 113.703C133.754 108.77 135.428 103.624 137.742 98.2643C138.182 97.2407 139.36 96.7858 140.382 97.2123C141.403 97.653 141.858 98.8329 141.432 99.8565C136.734 110.746 134.761 120.627 134.619 129.526C137.259 125.389 141.276 122.603 145.973 121.693C147.066 121.494 148.116 122.19 148.315 123.285C148.528 124.38 147.818 125.432 146.726 125.631C143.078 126.342 139.956 128.531 137.912 131.786C135.939 134.957 135.116 138.98 135.812 142.705C136.621 146.685 137.77 150.41 139.189 153.865C140.353 150.353 142.397 147.183 145.221 144.624C149.536 140.729 155.099 138.738 160.904 139.037C162.011 139.094 162.862 140.032 162.806 141.141C162.749 142.25 161.77 143.131 160.705 143.046C155.965 142.818 151.423 144.425 147.918 147.595C144.398 150.78 142.34 155.13 142.099 159.878C142.099 159.892 142.085 159.907 142.085 159.935C151.665 177.748 167.205 187.117 168.369 187.799C169.32 188.353 169.646 189.59 169.093 190.543C168.724 191.183 168.057 191.538 167.361 191.538C167.021 191.538 166.666 191.453 166.354 191.268C166.013 191.069 144.469 178.118 135.045 153.523C135.045 153.509 135.031 153.495 135.031 153.481C134.179 151.334 132.434 149.628 130.291 148.704C128.133 147.78 125.749 147.751 123.578 148.619C122.57 149.017 121.435 148.519 121.037 147.51C120.583 146.486 121.066 145.349 122.073 144.951Z" fill="#68BB35"/>
<path d="M153.325 189.548C161.869 194.24 172.059 197.14 182.377 197.822C183.172 197.893 183.98 197.95 184.804 197.979C185.982 198.007 187.16 198.007 188.338 197.979C188.508 198.007 188.707 197.979 188.891 197.979C189.842 197.95 190.793 197.907 191.744 197.851C224.77 195.647 252.204 169.532 255.808 136.308C258.037 115.765 251.153 96.5731 238.607 82.5273C236.308 79.94 233.001 79.4708 230.262 80.5513C227.636 81.5606 225.55 83.9916 225.38 87.304V87.3751C225.224 90.6591 222.995 93.474 219.816 94.3554L216.581 95.2652L209.924 97.0991C206.774 97.9805 204.517 100.81 204.361 104.094L203.907 114.429C203.878 114.699 203.85 114.983 203.807 115.253C203.552 116.888 202.785 118.367 201.622 119.49C200.742 120.371 199.621 121.04 198.343 121.395L188.451 124.124C187.77 124.295 187.145 124.579 186.578 124.949C184.42 126.228 183.015 128.532 182.902 131.119L182.419 141.454C182.263 144.738 180.035 147.553 176.856 148.434L166.964 151.192C163.813 152.074 161.556 154.875 161.4 158.173L160.946 168.025L160.918 168.48C160.762 171.621 158.718 174.351 155.752 175.303C155.624 175.375 155.482 175.431 155.354 175.46C154.829 175.616 154.332 175.787 153.878 176.043C152.672 176.64 151.693 177.521 151.054 178.573C148.797 182.014 149.039 187.203 153.325 189.548Z" fill="#8FD853"/>
<path d="M182.377 197.822C182.476 197.75 182.576 197.694 182.703 197.651C183.456 197.381 189.36 195.149 196.825 190.429C199.309 188.894 201.934 187.074 204.645 184.956L204.673 184.927C204.688 184.785 204.688 184.643 204.73 184.501C205.667 181.771 205.497 178.843 204.233 176.255C202.97 173.668 200.785 171.72 198.06 170.782C197.009 170.412 196.456 169.275 196.811 168.223C197.166 167.171 198.301 166.617 199.365 166.972C205.497 169.09 209.328 174.862 209.314 181.018L209.328 181.004V180.975C209.428 180.876 209.556 180.776 209.683 180.648C210.975 179.468 213.771 176.383 215.474 174.464C216.666 173.128 217.361 171.45 217.432 169.673C217.603 165.408 216.198 159.437 213.572 155.471C210.194 150.353 204.957 146.842 198.854 145.576C197.776 145.349 197.08 144.297 197.293 143.202C197.52 142.122 198.585 141.411 199.663 141.638C212.337 144.268 220.924 154.831 221.335 167.071C221.506 166.816 221.69 166.56 221.86 166.29C222.442 165.365 223.01 164.427 223.592 163.461C223.847 163.006 224.089 162.536 224.372 162.053C226.232 158.613 227.85 154.902 229.127 150.893C229.127 150.865 229.127 150.865 229.127 150.836C229.198 150.623 229.255 150.41 229.311 150.211C229.78 146.429 228.644 142.719 226.374 139.691C224.103 136.648 220.796 134.715 217.078 134.246C215.985 134.104 215.204 133.109 215.346 132C215.488 130.905 216.481 130.123 217.588 130.265C222.386 130.877 226.657 133.364 229.581 137.288C230.319 138.269 230.944 139.321 231.469 140.416C232.59 132.597 232.448 123.825 230.475 114.073C230.277 112.992 230.972 111.94 232.051 111.713C233.129 111.485 234.179 112.196 234.407 113.262C237.33 127.806 236.379 140.274 233.158 150.865C233.058 151.234 232.931 151.59 232.831 151.945C232.207 153.85 231.525 155.713 230.759 157.518C230.745 157.532 230.745 157.561 230.731 157.575C231.284 157.362 231.866 157.163 232.448 157.006C236.124 156.068 239.842 156.608 242.667 158.485C243.589 159.096 243.845 160.347 243.234 161.271C242.624 162.195 241.375 162.451 240.453 161.84C238.565 160.589 236.01 160.248 233.427 160.902C230.844 161.556 228.162 163.318 226.814 165.337C226.359 166.133 225.891 166.944 225.38 167.697C224.16 169.659 222.854 171.479 221.491 173.241C221.193 173.611 220.91 173.995 220.611 174.35C220.157 174.933 219.703 175.473 219.235 176.028C218.837 176.511 218.44 176.98 218.014 177.435C213.43 182.61 208.477 186.861 203.808 190.258C199.394 193.471 195.25 195.959 191.886 197.736C191.829 197.765 191.758 197.793 191.716 197.836C190.765 197.893 189.814 197.935 188.863 197.964C188.693 197.964 188.494 197.992 188.309 197.964C187.132 197.992 185.954 197.992 184.776 197.964C184.605 197.992 184.407 197.964 184.222 197.964C183.569 197.935 182.888 197.907 182.249 197.864C182.306 197.836 182.349 197.822 182.377 197.822Z" fill="#68BB35"/>
<path d="M147.691 107.179L145.023 104.336C144.711 103.994 144.271 103.81 143.816 103.81C143.362 103.81 142.922 103.994 142.61 104.336C141.162 105.871 133.995 114.102 135.23 125.376C135.329 126.215 136.039 126.854 136.89 126.854H136.919L138.537 126.826C138.977 126.826 139.403 126.641 139.701 126.328C140.013 126.016 140.183 125.589 140.169 125.148C140.126 122.22 140.765 119.249 142.014 116.59C143.277 113.889 145.179 111.486 147.521 109.638C147.89 109.354 148.117 108.913 148.145 108.458C148.173 107.975 148.003 107.52 147.691 107.179Z" fill="#007136"/>
<path d="M143.249 139.862H132.874C127.808 139.862 123.678 135.711 123.678 130.65C123.678 125.589 127.822 121.438 132.874 121.438H143.249C148.316 121.438 152.446 125.589 152.446 130.65C152.446 135.711 148.316 139.862 143.249 139.862Z" fill="#007136"/>
<path d="M128.049 176.811C134.861 175.929 140.084 170.328 140.467 163.461L141.589 143.743C142.227 132.527 132.534 123.485 121.407 124.921C110.28 126.357 103.184 137.545 106.618 148.236L112.664 167.03C114.779 173.569 121.237 177.678 128.049 176.811Z" fill="#D40000"/>
<path d="M148.089 176.811C141.277 175.929 136.054 170.328 135.671 163.461L134.549 143.743C133.911 132.527 143.604 123.485 154.731 124.921C165.858 126.357 172.954 137.545 169.52 148.236L163.474 167.03C161.359 173.569 154.887 177.678 148.089 176.811Z" fill="#D40000"/>
<path d="M138.069 179.64C130.803 179.64 124.558 174.451 123.224 167.286L119.392 146.729C117.22 135.029 126.176 124.224 138.055 124.224C149.934 124.224 158.889 135.029 156.718 146.729L152.886 167.286C151.566 174.451 145.336 179.64 138.069 179.64Z" fill="#EE1E1D"/>
<path d="M125.452 141.127C125.225 141.127 124.998 141.085 124.771 141.014C123.664 140.644 123.054 139.421 123.437 138.312C124.047 136.507 124.97 134.844 126.19 133.365C127.638 131.617 129.412 130.238 131.455 129.271C132.52 128.759 133.783 129.214 134.294 130.28C134.791 131.346 134.351 132.612 133.286 133.124C131.81 133.82 130.519 134.829 129.468 136.095C128.574 137.161 127.907 138.369 127.467 139.677C127.169 140.559 126.332 141.127 125.452 141.127Z" fill="#F46B62"/>
<path d="M153.17 193.102C129.313 201.149 100.403 198.575 79.8238 183.264C74.09 179.014 68.0157 173.853 64.2121 167.683C63.9566 167.285 63.7722 166.844 63.616 166.404C62.949 164.485 63.2754 162.381 64.3398 160.859C65.7165 162.58 67.2493 164.229 68.8814 165.778C68.8956 165.807 68.8956 165.778 68.8956 165.778C71.5922 168.38 74.5442 170.74 77.4111 172.872C97.9617 188.183 126.872 190.756 150.758 182.71C171.081 175.858 190 160.22 197.337 139.734C199.097 139.108 200.885 138.483 202.674 137.9C199.651 164.357 177.383 184.942 153.17 193.102Z" fill="#F6B501"/>
<path d="M197.365 139.748C190.028 160.233 171.095 175.871 150.786 182.724C126.9 190.756 97.9899 188.183 77.4393 172.886C74.5724 170.739 71.6062 168.394 68.9238 165.792C68.9238 165.792 68.9238 165.806 68.9096 165.792C67.2775 164.228 65.7447 162.593 64.368 160.873C65.4751 159.224 67.3768 158.186 69.8038 158.527C71.152 158.641 72.5287 158.755 73.877 158.869C95.0237 160.503 115.958 160.958 137.033 157.575C148.543 155.727 159.684 152.741 170.868 149.457C179.895 146.799 188.524 142.96 197.365 139.748Z" fill="#FFE600"/>
<path d="M199.338 146.998L197.351 139.748L203.383 133.422C205.256 131.46 208.407 131.531 210.195 133.564C212.026 135.639 211.629 138.852 209.344 140.43L199.338 146.998Z" fill="#FFC51E"/>
<path d="M73.5077 161.215C72.7839 163.361 71.0808 164.954 68.9094 165.778C68.9094 165.778 68.9094 165.792 68.8952 165.778C67.3199 166.404 65.5032 166.631 63.6298 166.404C62.9628 164.484 63.2892 162.38 64.3536 160.859C65.4606 159.21 67.3624 158.172 69.7893 158.514C71.1376 158.627 72.5143 158.741 73.8626 158.855C73.8768 159.637 73.7632 160.433 73.5077 161.215Z" fill="#BA482A"/>
<path d="M127.299 152.33C129.087 145.748 127.81 139.08 124.347 133.792C118.684 136.578 114.185 141.668 112.383 148.25C110.594 154.832 111.872 161.5 115.335 166.788C120.998 164.002 125.511 158.912 127.299 152.33Z" fill="#8FD86E"/>
<path d="M121.494 152.359C117.435 155.046 114.98 159.24 114.355 163.718C118.712 164.898 123.523 164.286 127.582 161.6C131.641 158.913 134.097 154.719 134.721 150.241C130.364 149.061 125.553 149.672 121.494 152.359Z" fill="#56A953"/>
<path d="M116.356 152.06C118.343 154.192 119.961 156.723 121.068 159.623C125.68 171.692 119.649 185.226 107.599 189.847C102.149 191.937 96.4156 191.823 91.3206 189.989C97.622 196.77 107.613 199.429 116.782 195.917C128.831 191.297 134.863 177.763 130.25 165.693C127.724 159.068 122.516 154.292 116.356 152.06Z" fill="#FC5E15"/>
<path d="M121.068 159.623C119.961 156.737 118.343 154.207 116.356 152.06C111.275 150.226 105.527 150.112 100.091 152.202C88.0421 156.822 82.0103 170.356 86.6228 182.426C87.7298 185.312 89.3478 187.843 91.3347 189.989C96.4156 191.823 102.164 191.937 107.613 189.847C119.649 185.213 125.68 171.693 121.068 159.623Z" fill="#FE8431"/>
<path d="M94.5846 165.167C94.1162 165.167 93.6621 165.011 93.2647 164.713C92.3422 163.987 92.186 162.637 92.9099 161.713C95.0955 158.941 98.0191 156.794 101.354 155.529C102.447 155.102 103.682 155.657 104.108 156.751C104.533 157.846 103.98 159.083 102.887 159.509C100.276 160.519 97.9766 162.196 96.2593 164.371C95.8335 164.897 95.209 165.167 94.5846 165.167Z" fill="#FFB787"/>
<path d="M108.337 181.843C108.054 183.834 106.208 185.227 104.207 184.928C102.206 184.63 100.83 182.796 101.128 180.791C101.411 178.801 103.256 177.408 105.258 177.706C107.23 178.005 108.621 179.853 108.337 181.843Z" fill="#FC5E15"/>
<path d="M118.542 169.93C118.344 171.295 117.08 172.247 115.718 172.048C114.355 171.849 113.405 170.584 113.603 169.219C113.802 167.854 115.065 166.902 116.428 167.101C117.79 167.286 118.741 168.551 118.542 169.93Z" fill="#FC5E15"/>
<path d="M108.039 165.977C107.911 166.887 107.059 167.527 106.151 167.385C105.243 167.257 104.604 166.404 104.746 165.494C104.874 164.584 105.725 163.945 106.634 164.087C107.542 164.215 108.166 165.068 108.039 165.977Z" fill="#FC5E15"/>
<path d="M312.223 140.175C316.282 135.91 321.789 133.891 327.224 134.105C327.693 139.535 325.947 145.137 321.888 149.401C317.829 153.666 312.322 155.685 306.887 155.472C306.418 150.041 308.164 144.44 312.223 140.175Z" fill="#459B45"/>
<path d="M308.221 156.652C308.973 156.638 309.569 156.012 309.541 155.259C309.314 145.449 301.153 137.659 291.36 137.886C290.608 137.9 290.012 138.526 290.041 139.279C290.069 140.033 290.679 140.63 291.431 140.602C299.734 140.402 306.631 146.999 306.83 155.315C306.844 156.069 307.469 156.666 308.221 156.652Z" fill="#993420"/>
<path d="M326.26 152.984C322.3 150.937 316.453 150.894 308.249 154.107C275.919 143.218 280.986 179.157 294.923 192.392C313.004 202.756 338.706 166.945 326.26 152.984Z" fill="#8FD853"/>
<path d="M289.743 168.835H289.728C288.55 168.821 287.614 167.868 287.614 166.688C287.628 164.528 287.969 162.594 288.621 160.973C288.99 160.049 290.112 157.249 293.83 156.126C294.951 155.799 296.143 156.424 296.484 157.561C296.825 158.685 296.186 159.879 295.051 160.22C293.603 160.661 293.007 161.471 292.581 162.551C292.127 163.689 291.9 165.096 291.886 166.731C291.857 167.883 290.906 168.835 289.743 168.835Z" fill="#D3EFBC"/>
<path d="M326.245 152.956C338.195 167.385 312.053 201.092 294.908 192.363C298.002 195.292 301.522 197.097 305.169 197.041L313.529 196.827C329.296 196.031 340.963 160.576 326.245 152.956Z" fill="#68BB35"/>
<rect width="377" height="210" rx="4" fill="black" fill-opacity="0.3"/>
</svg>
