<svg xmlns="http://www.w3.org/2000/svg" width="250" height="230" viewBox="0 0 250 230" fill="none"><mask id="mask0" maskUnits="userSpaceOnUse" x="0" y="0" width="250" height="230"><rect width="250" height="230" fill="#F9F9F9"></rect></mask><g mask="url(#mask0)"><path fill-rule="evenodd" clip-rule="evenodd" d="M16.2328 138.944C3.65058 103.302 -3.80335 60.7376 19.8104 31.2269C42.8555 2.42689 85.2675 9.0225 122.077 6.66826C161.003 4.17859 206.394 -11.1391 232.763 17.6069C259.481 46.7339 249.884 93.4785 235.467 130.28C224.094 159.313 194.322 172.24 166.598 186.506C139.472 200.466 111.645 218.169 82.5571 208.968C50.3088 198.768 27.4927 170.84 16.2328 138.944Z" fill="#D2F8FD"></path></g><g clip-path="url(#clip0)"><path d="M121.084 110.457C119.119 108.962 117.434 108.869 115.095 110.55C112.662 112.324 109.667 112.138 106.86 110.83C94.6005 105.133 82.2477 99.5291 69.895 93.8319C58.2909 88.4148 46.6868 82.9978 34.9892 77.6742C29.0936 74.9657 27.4091 69.8288 30.5909 64.225C40.4169 47.1333 50.2429 29.9483 60.2561 12.95C63.3443 7.71979 68.8656 6.59902 73.8254 10.0547C94.8812 24.8114 115.843 39.6616 136.899 54.3249C140.83 57.0334 143.263 60.1155 142.608 65.159C142.327 67.2137 144.666 67.4005 145.789 68.5213C146.912 69.5486 146.164 70.576 145.696 71.51C144.292 74.2185 142.701 76.7402 141.204 79.3553C138.49 84.212 135.589 88.9752 132.875 93.8319C129.881 98.9687 126.792 104.106 123.704 109.242C123.143 110.176 122.394 110.83 121.084 110.457Z" fill="#E8E8E6"></path><path d="M121.084 110.457C122.675 109.99 122.956 108.402 123.611 107.281C128.29 99.4359 132.969 91.6839 137.367 83.7452C140.175 78.7018 143.543 73.9385 145.789 68.5215C146.819 68.7083 147.661 69.1753 148.503 69.829C149.439 70.5762 150.562 70.8564 151.779 70.6696C163.383 69.0819 171.431 78.048 167.968 89.0688C164.225 100.93 158.329 111.484 149.346 120.357C141.391 128.296 129.787 123.346 126.886 115.874C125.857 113.072 123.424 111.764 121.084 110.457Z" fill="#BEBEBE"></path><path d="M137.835 217.583C138.864 217.77 139.332 218.33 139.239 219.264C139.145 220.011 138.677 220.572 137.835 220.478C136.993 220.478 136.525 219.918 136.525 219.171C136.525 218.237 137.086 217.77 137.835 217.583Z" fill="#FDFDFD"></path><path d="M157.113 193.86C156.084 193.673 155.616 193.113 155.709 192.272C155.709 191.525 156.084 190.965 157.019 190.965C157.955 190.965 158.423 191.525 158.517 192.366C158.423 193.3 157.862 193.767 157.113 193.86Z" fill="#BEBEBE"></path><path d="M163.196 124.092C163.29 123.158 163.757 122.691 164.6 122.691C165.442 122.691 165.816 123.252 165.816 124.092C165.816 124.933 165.348 125.4 164.506 125.4C163.664 125.307 163.29 124.746 163.196 124.092Z" fill="#BEBEBE"></path><path d="M172.179 147.909C173.022 148.002 173.49 148.562 173.396 149.31C173.396 150.057 172.928 150.711 172.086 150.711C171.244 150.804 170.776 150.244 170.776 149.403C170.776 148.469 171.337 148.095 172.179 147.909Z" fill="#BEBEBE"></path><path d="M159.733 149.403C159.546 150.15 159.172 150.71 158.423 150.71C157.487 150.71 157.019 150.057 157.113 149.216C157.113 148.562 157.581 148.002 158.236 148.002C159.078 148.002 159.546 148.562 159.733 149.403Z" fill="#BEBEBE"></path><path d="M158.142 220.292C158.985 220.292 159.453 220.665 159.64 221.506C159.733 222.346 159.265 222.813 158.423 222.907C157.581 223 157.019 222.626 157.019 221.786C156.926 221.039 157.3 220.478 158.142 220.292Z" fill="#BEBEBE"></path><path d="M158.516 169.67C157.58 169.577 157.019 169.203 157.112 168.363C157.112 167.616 157.58 167.055 158.423 167.055C159.171 167.055 159.733 167.616 159.733 168.363C159.733 169.297 159.078 169.577 158.516 169.67Z" fill="#BEBEBE"></path><path d="M148.129 160.797C147.287 160.797 146.819 160.33 146.819 159.489C146.819 158.742 147.287 158.182 148.129 158.275C148.878 158.369 149.439 158.742 149.439 159.583C149.439 160.423 148.878 160.704 148.129 160.797Z" fill="#BEBEBE"></path><path d="M164.412 158.182C165.348 158.182 165.816 158.649 165.816 159.49C165.816 160.33 165.442 160.797 164.599 160.797C163.757 160.797 163.289 160.424 163.289 159.583C163.289 158.743 163.757 158.369 164.412 158.182Z" fill="#BEBEBE"></path><path d="M176.11 168.363C176.017 169.203 175.549 169.67 174.8 169.67C173.958 169.67 173.49 169.203 173.49 168.456C173.49 167.615 173.864 167.148 174.8 167.148C175.549 167.148 176.017 167.615 176.11 168.363Z" fill="#BEBEBE"></path><path d="M163.289 184.893C162.54 184.8 161.979 184.426 161.979 183.586C161.979 182.839 162.353 182.278 163.195 182.278C164.037 182.278 164.505 182.745 164.505 183.492C164.505 184.333 164.131 184.8 163.289 184.893Z" fill="#BEBEBE"></path><path d="M176.204 184.894C175.455 184.894 174.987 184.52 174.894 183.773C174.8 182.933 175.268 182.372 176.017 182.279C176.859 182.185 177.42 182.652 177.42 183.493C177.42 184.334 176.952 184.801 176.204 184.894Z" fill="#BEBEBE"></path><path d="M158.236 201.332C159.078 201.332 159.639 201.706 159.639 202.546C159.639 203.387 159.171 203.854 158.423 203.947C157.581 204.041 157.113 203.574 157.019 202.733C157.019 201.892 157.487 201.519 158.236 201.332Z" fill="#BEBEBE"></path><path d="M185 210.111C185 211.045 184.532 211.418 183.69 211.418C182.848 211.418 182.38 210.951 182.38 210.111C182.38 209.27 182.848 208.896 183.69 208.896C184.532 208.896 184.907 209.363 185 210.111Z" fill="#BEBEBE"></path><path d="M174.8 134.179C173.958 134.086 173.49 133.619 173.49 132.778C173.49 131.938 173.958 131.471 174.8 131.564C175.549 131.657 176.11 132.031 176.11 132.872C176.11 133.806 175.549 134.179 174.8 134.179Z" fill="#BEBEBE"></path><path d="M176.11 221.786C176.017 222.626 175.455 223 174.706 223C173.864 222.907 173.49 222.44 173.49 221.599C173.584 220.758 174.051 220.291 174.894 220.385C175.642 220.478 176.11 220.945 176.11 221.786Z" fill="#BEBEBE"></path><path d="M183.596 174.433C183.596 175.367 183.128 175.834 182.286 175.834C181.537 175.834 181.069 175.554 180.976 174.807C180.882 173.966 181.257 173.499 182.099 173.406C183.035 173.406 183.596 173.686 183.596 174.433Z" fill="#BEBEBE"></path><path d="M149.439 210.204C149.439 211.045 148.878 211.512 148.035 211.418C147.193 211.418 146.819 210.858 146.819 210.017C146.819 209.27 147.38 208.896 148.035 208.896C148.878 208.896 149.439 209.363 149.439 210.204Z" fill="#BEBEBE"></path><path d="M145.415 178.636C144.667 178.543 144.105 178.169 144.105 177.329C144.199 176.581 144.667 176.021 145.415 176.021C146.07 176.021 146.538 176.581 146.538 177.235C146.725 178.076 146.257 178.449 145.415 178.636Z" fill="#BEBEBE"></path><path d="M146.725 194.887C146.538 195.821 146.164 196.288 145.322 196.288C144.573 196.288 144.199 195.821 144.105 195.168C144.105 194.327 144.573 193.86 145.322 193.767C146.164 193.767 146.538 194.327 146.725 194.887Z" fill="#BEBEBE"></path><path d="M156.926 131.564C156.926 132.405 156.458 132.872 155.615 132.872C154.867 132.872 154.305 132.498 154.305 131.658C154.305 130.91 154.773 130.35 155.615 130.35C156.458 130.257 156.832 130.817 156.926 131.564Z" fill="#BEBEBE"></path><path d="M148.223 139.316C148.971 139.409 149.533 139.876 149.439 140.623C149.439 141.371 148.878 141.651 148.223 141.744C147.474 141.744 146.912 141.371 146.819 140.53C146.819 139.689 147.38 139.316 148.223 139.316Z" fill="#BEBEBE"></path><path d="M174.8 200.024C175.548 200.117 176.11 200.491 176.11 201.331C176.11 202.079 175.548 202.359 174.893 202.452C174.145 202.546 173.677 202.172 173.583 201.425C173.49 200.584 173.957 200.117 174.8 200.024Z" fill="#BEBEBE"></path><path d="M164.506 141.744C163.757 141.651 163.289 141.277 163.289 140.53C163.289 139.69 163.757 139.223 164.599 139.223C165.348 139.223 165.722 139.69 165.816 140.343C165.816 141.277 165.348 141.651 164.506 141.744Z" fill="#BEBEBE"></path><path d="M139.239 187.416C138.49 187.416 137.929 187.042 137.929 186.201C137.929 185.454 138.396 185.081 139.145 184.987C139.987 184.987 140.455 185.361 140.549 186.201C140.455 186.949 140.081 187.416 139.239 187.416Z" fill="#BEBEBE"></path><path d="M182.286 192.552C183.035 192.646 183.596 193.019 183.596 193.86C183.596 194.607 183.035 194.981 182.38 194.981C181.538 194.981 181.07 194.514 181.07 193.673C181.07 192.926 181.631 192.646 182.286 192.552Z" fill="#BEBEBE"></path><path d="M165.816 212.82C165.722 213.567 165.348 214.034 164.599 214.034C163.757 214.034 163.196 213.66 163.289 212.82C163.289 211.979 163.851 211.606 164.693 211.699C165.442 211.699 165.722 212.166 165.816 212.82Z" fill="#BEBEBE"></path><path d="M87.8626 60.3956C103.304 60.3956 118.744 60.3956 134.185 60.3956C138.396 60.3956 139.332 61.7966 137.648 65.7193C137.086 67.0268 136.712 68.241 138.396 69.0816C139.894 69.8287 139.707 70.9495 138.958 72.2571C136.244 76.7401 133.624 81.2232 131.004 85.7062C128.009 90.9365 125.014 96.2601 122.02 101.49C120.99 103.265 120.148 105.039 117.621 103.358C116.779 102.798 116.031 103.545 115.469 104.292C112.287 107.935 111.632 108.122 107.515 106.16C97.2207 101.49 87.0204 96.6337 76.82 91.9638C66.3389 87.1072 55.7642 82.344 45.1895 77.4873C42.2885 76.1797 39.3875 74.7788 36.58 73.3778C33.5854 71.8835 32.8368 69.4552 34.4277 66.4665C34.9892 65.3457 35.6442 64.3183 36.2993 63.1976C37.4223 61.2362 38.9196 60.3022 41.3527 60.3022C56.7936 60.489 72.3281 60.3956 87.8626 60.3956Z" fill="#FDFDFD"></path><path d="M151.217 107.281C151.872 107.281 152.153 107.655 152.34 108.215C152.621 109.429 151.124 111.951 149.907 112.325C149.346 112.511 148.878 112.605 148.597 111.951C147.942 110.83 150.001 107.375 151.217 107.281Z" fill="#7C7C7C"></path><path d="M160.669 91.2168C161.324 91.2168 161.511 91.5904 161.605 92.0574C161.792 93.1781 160.201 95.8866 159.078 96.2602C158.61 96.3536 158.049 96.3536 157.955 95.8866C157.581 94.8593 157.861 93.9253 158.516 93.0847C158.984 92.2442 159.546 91.4036 160.669 91.2168Z" fill="#7C7C7C"></path><path d="M160.107 102.331C159.92 104.105 159.172 105.413 157.487 106.067C156.645 106.347 156.271 105.6 156.271 104.853C156.271 103.638 158.142 101.21 159.078 101.21C159.827 101.117 160.107 101.584 160.107 102.331Z" fill="#7B7A7A"></path></g><path d="M146.576 20.208C147.432 20.208 148.128 20.328 148.664 20.568C149.2 20.8 149.592 21.116 149.84 21.516C150.096 21.908 150.224 22.34 150.224 22.812C150.224 23.436 150.076 23.92 149.78 24.264C149.484 24.608 149.072 24.864 148.544 25.032C148.016 25.192 147.404 25.308 146.708 25.38L145.748 25.476C145.308 25.516 145.032 25.564 144.92 25.62C144.808 25.676 144.752 25.756 144.752 25.86C144.752 26.044 144.896 26.136 145.184 26.136H155.6V27H145.292C144.732 27 144.332 26.892 144.092 26.676C143.86 26.46 143.744 26.192 143.744 25.872C143.744 25.512 143.888 25.232 144.176 25.032C144.472 24.832 144.984 24.696 145.712 24.624L146.636 24.54C147.364 24.468 147.908 24.348 148.268 24.18C148.636 24.004 148.88 23.796 149 23.556C149.128 23.316 149.192 23.068 149.192 22.812C149.192 22.34 149.016 21.944 148.664 21.624C148.32 21.304 147.824 21.116 147.176 21.06C147.304 21.228 147.404 21.416 147.476 21.624C147.556 21.832 147.596 22.056 147.596 22.296C147.596 22.816 147.428 23.244 147.092 23.58C146.764 23.908 146.28 24.072 145.64 24.072C145.064 24.072 144.592 23.904 144.224 23.568C143.864 23.232 143.684 22.784 143.684 22.224C143.684 21.768 143.808 21.392 144.056 21.096C144.304 20.792 144.644 20.568 145.076 20.424C145.516 20.28 146.016 20.208 146.576 20.208ZM144.632 22.212C144.632 22.508 144.716 22.756 144.884 22.956C145.052 23.156 145.312 23.256 145.664 23.256C145.968 23.256 146.208 23.164 146.384 22.98C146.568 22.788 146.66 22.52 146.66 22.176C146.66 21.976 146.628 21.78 146.564 21.588C146.5 21.396 146.392 21.212 146.24 21.036H146.156C145.724 21.036 145.36 21.132 145.064 21.324C144.776 21.516 144.632 21.812 144.632 22.212ZM156.865 27V20.352H157.897V26.136H163.057V20.352H164.089V27H156.865ZM160.477 18.864C160.245 18.864 160.053 18.792 159.901 18.648C159.749 18.496 159.673 18.3 159.673 18.06C159.673 17.828 159.749 17.636 159.901 17.484C160.053 17.332 160.245 17.256 160.477 17.256C160.709 17.256 160.901 17.332 161.053 17.484C161.205 17.636 161.281 17.828 161.281 18.06C161.281 18.3 161.205 18.496 161.053 18.648C160.901 18.792 160.709 18.864 160.477 18.864ZM168.136 27.144C167.712 27.144 167.324 27.04 166.972 26.832C166.62 26.616 166.34 26.284 166.132 25.836C165.932 25.388 165.832 24.804 165.832 24.084C165.832 23.292 166.004 22.608 166.348 22.032C166.7 21.448 167.188 21 167.812 20.688C168.444 20.368 169.188 20.208 170.044 20.208C170.588 20.208 171.096 20.268 171.568 20.388C172.04 20.508 172.492 20.696 172.924 20.952C173.228 20.712 173.56 20.528 173.92 20.4C174.288 20.272 174.676 20.208 175.084 20.208C175.836 20.208 176.448 20.368 176.92 20.688C177.392 21 177.74 21.416 177.964 21.936C178.188 22.456 178.3 23.024 178.3 23.64C178.3 24.192 178.244 24.684 178.132 25.116C178.028 25.54 177.892 25.92 177.724 26.256C177.564 26.584 177.392 26.88 177.208 27.144L176.344 26.616C176.6 26.256 176.812 25.848 176.98 25.392C177.156 24.928 177.244 24.36 177.244 23.688C177.244 22.904 177.048 22.276 176.656 21.804C176.264 21.332 175.712 21.096 175 21.096C174.448 21.096 173.972 21.224 173.572 21.48C174.052 21.888 174.416 22.376 174.664 22.944C174.92 23.504 175.048 24.1 175.048 24.732C175.048 25.532 174.872 26.136 174.52 26.544C174.176 26.944 173.704 27.144 173.104 27.144C172.64 27.144 172.26 27.04 171.964 26.832C171.676 26.624 171.46 26.344 171.316 25.992C171.18 25.632 171.112 25.224 171.112 24.768C171.112 24.08 171.216 23.48 171.424 22.968C171.632 22.456 171.908 21.996 172.252 21.588C171.908 21.404 171.54 21.276 171.148 21.204C170.764 21.132 170.356 21.096 169.924 21.096C169.044 21.096 168.34 21.324 167.812 21.78C167.284 22.228 166.956 22.808 166.828 23.52C167.044 23.376 167.276 23.264 167.524 23.184C167.772 23.104 168.024 23.064 168.28 23.064C168.856 23.064 169.32 23.24 169.672 23.592C170.032 23.944 170.212 24.42 170.212 25.02C170.212 25.684 170.024 26.204 169.648 26.58C169.28 26.956 168.776 27.144 168.136 27.144ZM172.12 24.732C172.12 25.284 172.204 25.688 172.372 25.944C172.54 26.2 172.772 26.328 173.068 26.328C173.316 26.328 173.508 26.252 173.644 26.1C173.788 25.948 173.888 25.756 173.944 25.524C174 25.292 174.028 25.056 174.028 24.816C174.028 24.256 173.932 23.748 173.74 23.292C173.556 22.836 173.284 22.432 172.924 22.08C172.644 22.448 172.44 22.856 172.312 23.304C172.184 23.744 172.12 24.22 172.12 24.732ZM168.112 23.904C167.864 23.904 167.628 23.956 167.404 24.06C167.188 24.156 166.98 24.288 166.78 24.456C166.82 25.144 166.972 25.628 167.236 25.908C167.5 26.188 167.82 26.328 168.196 26.328C168.516 26.328 168.768 26.228 168.952 26.028C169.136 25.82 169.228 25.524 169.228 25.14C169.228 24.74 169.124 24.436 168.916 24.228C168.708 24.012 168.44 23.904 168.112 23.904ZM180.126 27V20.352H181.158V26.136H186.318V20.352H187.35V27H180.126ZM191.542 27.144C191.062 27.144 190.63 27.068 190.246 26.916C189.862 26.764 189.558 26.54 189.334 26.244C189.11 25.948 188.998 25.592 188.998 25.176C188.998 24.76 189.102 24.396 189.31 24.084C189.526 23.772 189.866 23.532 190.33 23.364V20.352H196.606V21.216H194.362V23.064H194.554C195.178 23.064 195.682 23.112 196.066 23.208C196.45 23.296 196.778 23.444 197.05 23.652C197.258 23.812 197.422 24.024 197.542 24.288C197.662 24.544 197.722 24.84 197.722 25.176C197.722 25.784 197.538 26.256 197.17 26.592C196.81 26.928 196.298 27.096 195.634 27.096C195.45 27.096 195.25 27.084 195.034 27.06C194.818 27.036 194.618 26.996 194.434 26.94L194.662 26.136C194.926 26.216 195.218 26.256 195.538 26.256C196.306 26.256 196.69 25.88 196.69 25.128C196.69 24.76 196.586 24.492 196.378 24.324C196.178 24.148 195.922 24.036 195.61 23.988C195.298 23.932 194.974 23.904 194.638 23.904H194.362V24.288C194.362 24.824 194.314 25.244 194.218 25.548C194.13 25.852 194.002 26.108 193.834 26.316C193.586 26.62 193.266 26.836 192.874 26.964C192.49 27.084 192.046 27.144 191.542 27.144ZM191.278 21.216V23.136C191.614 23.088 191.986 23.064 192.394 23.064H193.342V21.216H191.278ZM190.03 25.164C190.03 25.532 190.182 25.812 190.486 26.004C190.79 26.188 191.174 26.28 191.638 26.28C191.99 26.28 192.29 26.228 192.538 26.124C192.794 26.012 192.99 25.824 193.126 25.56C193.27 25.296 193.342 24.924 193.342 24.444V23.904H192.31C191.902 23.904 191.554 23.928 191.266 23.976C190.986 24.024 190.746 24.104 190.546 24.216C190.202 24.416 190.03 24.732 190.03 25.164ZM193.594 18.864C193.362 18.864 193.17 18.792 193.018 18.648C192.866 18.496 192.79 18.3 192.79 18.06C192.79 17.828 192.866 17.636 193.018 17.484C193.17 17.332 193.362 17.256 193.594 17.256C193.826 17.256 194.018 17.332 194.17 17.484C194.322 17.636 194.398 17.828 194.398 18.06C194.398 18.3 194.322 18.496 194.17 18.648C194.018 18.792 193.826 18.864 193.594 18.864ZM148.988 45.144C148.5 45.144 148.064 45.068 147.68 44.916C147.296 44.764 146.992 44.54 146.768 44.244C146.544 43.948 146.432 43.592 146.432 43.176C146.432 42.76 146.536 42.4 146.744 42.096C146.96 41.784 147.3 41.54 147.764 41.364V38.352H154.04V39.216H151.796V41.076C152.604 41.14 153.256 41.34 153.752 41.676C154.248 42.012 154.608 42.432 154.832 42.936C155.056 43.44 155.168 43.968 155.168 44.52C155.168 45.32 155.016 45.996 154.712 46.548C154.416 47.1 154.012 47.544 153.5 47.88C152.988 48.224 152.412 48.472 151.772 48.624C151.132 48.776 150.472 48.852 149.792 48.852H149.444C148.596 48.852 147.856 48.744 147.224 48.528C146.592 48.32 146.056 48.032 145.616 47.664C145.184 47.304 144.836 46.892 144.572 46.428C144.308 45.964 144.116 45.476 143.996 44.964C143.876 44.452 143.816 43.944 143.816 43.44V43.188C143.816 42.532 143.896 41.916 144.056 41.34C144.216 40.764 144.424 40.228 144.68 39.732C144.936 39.228 145.204 38.768 145.484 38.352L146.36 38.88C145.88 39.56 145.508 40.264 145.244 40.992C144.98 41.72 144.848 42.456 144.848 43.2V43.428C144.848 44.028 144.936 44.596 145.112 45.132C145.296 45.676 145.576 46.156 145.952 46.572C146.328 46.996 146.816 47.328 147.416 47.568C148.016 47.808 148.736 47.928 149.576 47.928H149.72C151.08 47.928 152.152 47.64 152.936 47.064C153.72 46.496 154.112 45.644 154.112 44.508C154.112 43.716 153.896 43.112 153.464 42.696C153.032 42.28 152.476 42.028 151.796 41.94V42.288C151.796 42.824 151.748 43.244 151.652 43.548C151.564 43.852 151.436 44.108 151.268 44.316C151.02 44.62 150.7 44.836 150.308 44.964C149.924 45.084 149.484 45.144 148.988 45.144ZM148.712 39.216V41.136C149.048 41.088 149.42 41.064 149.828 41.064H150.776V39.216H148.712ZM147.464 43.164C147.464 43.532 147.616 43.812 147.92 44.004C148.224 44.188 148.608 44.28 149.072 44.28C149.424 44.28 149.724 44.228 149.972 44.124C150.228 44.012 150.424 43.824 150.56 43.56C150.704 43.288 150.776 42.916 150.776 42.444V41.904H149.744C149.336 41.904 148.988 41.928 148.7 41.976C148.42 42.024 148.18 42.104 147.98 42.216C147.636 42.416 147.464 42.732 147.464 43.164ZM158.726 45.144C158.302 45.144 157.914 45.04 157.562 44.832C157.21 44.616 156.93 44.284 156.722 43.836C156.522 43.388 156.422 42.804 156.422 42.084C156.422 41.292 156.594 40.608 156.938 40.032C157.29 39.448 157.778 39 158.402 38.688C159.034 38.368 159.778 38.208 160.634 38.208C161.178 38.208 161.686 38.268 162.158 38.388C162.63 38.508 163.082 38.696 163.514 38.952C163.818 38.712 164.15 38.528 164.51 38.4C164.878 38.272 165.266 38.208 165.674 38.208C166.426 38.208 167.038 38.368 167.51 38.688C167.982 39 168.33 39.416 168.554 39.936C168.778 40.456 168.89 41.024 168.89 41.64C168.89 42.192 168.834 42.684 168.722 43.116C168.618 43.54 168.482 43.92 168.314 44.256C168.154 44.584 167.982 44.88 167.798 45.144L166.934 44.616C167.19 44.256 167.402 43.848 167.57 43.392C167.746 42.928 167.834 42.36 167.834 41.688C167.834 40.904 167.638 40.276 167.246 39.804C166.854 39.332 166.302 39.096 165.59 39.096C165.038 39.096 164.562 39.224 164.162 39.48C164.642 39.888 165.006 40.376 165.254 40.944C165.51 41.504 165.638 42.1 165.638 42.732C165.638 43.532 165.462 44.136 165.11 44.544C164.766 44.944 164.294 45.144 163.694 45.144C163.23 45.144 162.85 45.04 162.554 44.832C162.266 44.624 162.05 44.344 161.906 43.992C161.77 43.632 161.702 43.224 161.702 42.768C161.702 42.08 161.806 41.48 162.014 40.968C162.222 40.456 162.498 39.996 162.842 39.588C162.498 39.404 162.13 39.276 161.738 39.204C161.354 39.132 160.946 39.096 160.514 39.096C159.634 39.096 158.93 39.324 158.402 39.78C157.874 40.228 157.546 40.808 157.418 41.52C157.634 41.376 157.866 41.264 158.114 41.184C158.362 41.104 158.614 41.064 158.87 41.064C159.446 41.064 159.91 41.24 160.262 41.592C160.622 41.944 160.802 42.42 160.802 43.02C160.802 43.684 160.614 44.204 160.238 44.58C159.87 44.956 159.366 45.144 158.726 45.144ZM162.71 42.732C162.71 43.284 162.794 43.688 162.962 43.944C163.13 44.2 163.362 44.328 163.658 44.328C163.906 44.328 164.098 44.252 164.234 44.1C164.378 43.948 164.478 43.756 164.534 43.524C164.59 43.292 164.618 43.056 164.618 42.816C164.618 42.256 164.522 41.748 164.33 41.292C164.146 40.836 163.874 40.432 163.514 40.08C163.234 40.448 163.03 40.856 162.902 41.304C162.774 41.744 162.71 42.22 162.71 42.732ZM158.702 41.904C158.454 41.904 158.218 41.956 157.994 42.06C157.778 42.156 157.57 42.288 157.37 42.456C157.41 43.144 157.562 43.628 157.826 43.908C158.09 44.188 158.41 44.328 158.786 44.328C159.106 44.328 159.358 44.228 159.542 44.028C159.726 43.82 159.818 43.524 159.818 43.14C159.818 42.74 159.714 42.436 159.506 42.228C159.298 42.012 159.03 41.904 158.702 41.904ZM176.5 38.208C177.412 38.208 178.108 38.544 178.588 39.216C179.076 39.888 179.32 40.84 179.32 42.072C179.32 43.048 179.196 43.848 178.948 44.472C178.7 45.088 178.364 45.572 177.94 45.924C177.476 46.3 176.932 46.552 176.308 46.68C175.684 46.808 175.02 46.872 174.316 46.872H172.9C172.564 46.872 172.304 46.896 172.12 46.944C171.936 46.992 171.776 47.06 171.64 47.148C171.512 47.236 171.412 47.36 171.34 47.52C171.268 47.68 171.232 47.892 171.232 48.156C171.232 48.396 171.244 48.612 171.268 48.804L170.284 48.852C170.26 48.708 170.24 48.548 170.224 48.372C170.208 48.204 170.2 48.052 170.2 47.916C170.2 47.564 170.264 47.264 170.392 47.016C170.52 46.776 170.684 46.58 170.884 46.428C171.092 46.276 171.324 46.168 171.58 46.104C171.844 46.04 172.176 46.008 172.576 46.008H174.052C174.796 46.008 175.432 45.952 175.96 45.84C176.488 45.736 176.92 45.544 177.256 45.264C177.6 44.984 177.852 44.584 178.012 44.064C178.172 43.536 178.252 42.86 178.252 42.036C178.252 41.308 178.172 40.728 178.012 40.296C177.86 39.864 177.644 39.552 177.364 39.36C177.092 39.168 176.776 39.072 176.416 39.072C176.208 39.072 176.012 39.108 175.828 39.18C175.644 39.244 175.484 39.352 175.348 39.504C175.188 39.688 175.076 39.904 175.012 40.152C174.948 40.4 174.916 40.74 174.916 41.172V45H173.884V41.148C173.884 40.756 173.864 40.424 173.824 40.152C173.784 39.872 173.704 39.644 173.584 39.468C173.504 39.348 173.4 39.252 173.272 39.18C173.144 39.108 172.988 39.072 172.804 39.072C172.62 39.072 172.464 39.108 172.336 39.18C172.216 39.244 172.112 39.332 172.024 39.444C171.896 39.62 171.812 39.848 171.772 40.128C171.74 40.408 171.724 40.724 171.724 41.076V45H170.692V40.908C170.692 40.324 170.736 39.876 170.824 39.564C170.912 39.244 171.08 38.96 171.328 38.712C171.664 38.376 172.128 38.208 172.72 38.208C173.52 38.208 174.096 38.584 174.448 39.336C174.616 39.008 174.868 38.74 175.204 38.532C175.548 38.316 175.98 38.208 176.5 38.208ZM183.222 45.144C182.742 45.144 182.31 45.068 181.926 44.916C181.542 44.764 181.238 44.54 181.014 44.244C180.79 43.948 180.678 43.592 180.678 43.176C180.678 42.76 180.782 42.396 180.99 42.084C181.206 41.772 181.546 41.532 182.01 41.364V38.352H188.286V39.216H186.042V41.064H186.234C186.858 41.064 187.362 41.112 187.746 41.208C188.13 41.296 188.458 41.444 188.73 41.652C188.938 41.812 189.102 42.024 189.222 42.288C189.342 42.544 189.402 42.84 189.402 43.176C189.402 43.784 189.218 44.256 188.85 44.592C188.49 44.928 187.978 45.096 187.314 45.096C187.13 45.096 186.93 45.084 186.714 45.06C186.498 45.036 186.298 44.996 186.114 44.94L186.342 44.136C186.606 44.216 186.898 44.256 187.218 44.256C187.986 44.256 188.37 43.88 188.37 43.128C188.37 42.76 188.266 42.492 188.058 42.324C187.858 42.148 187.602 42.036 187.29 41.988C186.978 41.932 186.654 41.904 186.318 41.904H186.042V42.288C186.042 42.824 185.994 43.244 185.898 43.548C185.81 43.852 185.682 44.108 185.514 44.316C185.266 44.62 184.946 44.836 184.554 44.964C184.17 45.084 183.726 45.144 183.222 45.144ZM182.958 39.216V41.136C183.294 41.088 183.666 41.064 184.074 41.064H185.022V39.216H182.958ZM181.71 43.164C181.71 43.532 181.862 43.812 182.166 44.004C182.47 44.188 182.854 44.28 183.318 44.28C183.67 44.28 183.97 44.228 184.218 44.124C184.474 44.012 184.67 43.824 184.806 43.56C184.95 43.296 185.022 42.924 185.022 42.444V41.904H183.99C183.582 41.904 183.234 41.928 182.946 41.976C182.666 42.024 182.426 42.104 182.226 42.216C181.882 42.416 181.71 42.732 181.71 43.164ZM185.274 36.864C185.042 36.864 184.85 36.792 184.698 36.648C184.546 36.496 184.47 36.3 184.47 36.06C184.47 35.828 184.546 35.636 184.698 35.484C184.85 35.332 185.042 35.256 185.274 35.256C185.506 35.256 185.698 35.332 185.85 35.484C186.002 35.636 186.078 35.828 186.078 36.06C186.078 36.3 186.002 36.496 185.85 36.648C185.698 36.792 185.506 36.864 185.274 36.864ZM193.124 45.144C192.644 45.144 192.212 45.068 191.828 44.916C191.444 44.764 191.14 44.54 190.916 44.244C190.692 43.948 190.58 43.592 190.58 43.176C190.58 42.76 190.684 42.396 190.892 42.084C191.108 41.772 191.448 41.532 191.912 41.364V38.352H198.188V39.216H195.944V41.064H196.136C196.76 41.064 197.264 41.112 197.648 41.208C198.032 41.296 198.36 41.444 198.632 41.652C198.84 41.812 199.004 42.024 199.124 42.288C199.244 42.544 199.304 42.84 199.304 43.176C199.304 43.784 199.12 44.256 198.752 44.592C198.392 44.928 197.88 45.096 197.216 45.096C197.032 45.096 196.832 45.084 196.616 45.06C196.4 45.036 196.2 44.996 196.016 44.94L196.244 44.136C196.508 44.216 196.8 44.256 197.12 44.256C197.888 44.256 198.272 43.88 198.272 43.128C198.272 42.76 198.168 42.492 197.96 42.324C197.76 42.148 197.504 42.036 197.192 41.988C196.88 41.932 196.556 41.904 196.22 41.904H195.944V42.288C195.944 42.824 195.896 43.244 195.8 43.548C195.712 43.852 195.584 44.108 195.416 44.316C195.168 44.62 194.848 44.836 194.456 44.964C194.072 45.084 193.628 45.144 193.124 45.144ZM192.86 39.216V41.136C193.196 41.088 193.568 41.064 193.976 41.064H194.924V39.216H192.86ZM191.612 43.164C191.612 43.532 191.764 43.812 192.068 44.004C192.372 44.188 192.756 44.28 193.22 44.28C193.572 44.28 193.872 44.228 194.12 44.124C194.376 44.012 194.572 43.824 194.708 43.56C194.852 43.296 194.924 42.924 194.924 42.444V41.904H193.892C193.484 41.904 193.136 41.928 192.848 41.976C192.568 42.024 192.328 42.104 192.128 42.216C191.784 42.416 191.612 42.732 191.612 43.164ZM202.883 45.144C202.459 45.144 202.071 45.04 201.719 44.832C201.367 44.616 201.087 44.284 200.879 43.836C200.679 43.388 200.579 42.804 200.579 42.084C200.579 41.228 200.747 40.512 201.083 39.936C201.427 39.36 201.879 38.928 202.439 38.64C202.999 38.352 203.607 38.208 204.263 38.208C205.079 38.208 205.739 38.364 206.243 38.676C206.747 38.988 207.115 39.404 207.347 39.924C207.587 40.436 207.707 41.008 207.707 41.64C207.707 42.152 207.651 42.608 207.539 43.008C207.427 43.408 207.291 43.784 207.131 44.136H210.335V38.352H211.367V48.396H210.335V45H206.075L206.027 44.244C206.211 43.964 206.359 43.62 206.471 43.212C206.591 42.796 206.651 42.316 206.651 41.772C206.651 40.916 206.431 40.256 205.991 39.792C205.551 39.328 204.959 39.096 204.215 39.096C203.479 39.096 202.879 39.324 202.415 39.78C201.959 40.228 201.679 40.808 201.575 41.52C201.783 41.384 202.011 41.276 202.259 41.196C202.507 41.108 202.763 41.064 203.027 41.064C203.603 41.064 204.067 41.24 204.419 41.592C204.779 41.944 204.959 42.42 204.959 43.02C204.959 43.684 204.771 44.204 204.395 44.58C204.027 44.956 203.523 45.144 202.883 45.144ZM202.859 41.904C202.619 41.904 202.387 41.956 202.163 42.06C201.939 42.156 201.731 42.288 201.539 42.456C201.571 43.144 201.719 43.628 201.983 43.908C202.247 44.188 202.563 44.328 202.931 44.328C203.243 44.328 203.495 44.228 203.687 44.028C203.879 43.82 203.975 43.524 203.975 43.14C203.975 42.74 203.871 42.436 203.663 42.228C203.455 42.012 203.187 41.904 202.859 41.904ZM219.382 38.208C219.982 38.208 220.474 38.364 220.858 38.676C221.242 38.98 221.526 39.408 221.71 39.96C221.894 40.504 221.986 41.136 221.986 41.856C221.986 42.416 221.926 42.896 221.806 43.296C221.686 43.696 221.494 44.024 221.23 44.28C220.95 44.552 220.606 44.74 220.198 44.844C219.798 44.948 219.254 45 218.566 45H213.478V38.352H214.51V44.136H217.222V40.74C217.222 40.244 217.266 39.852 217.354 39.564C217.45 39.268 217.586 39.02 217.762 38.82C217.946 38.62 218.166 38.468 218.422 38.364C218.678 38.26 218.998 38.208 219.382 38.208ZM219.358 39.072C219.222 39.072 219.09 39.096 218.962 39.144C218.834 39.184 218.726 39.252 218.638 39.348C218.51 39.492 218.414 39.672 218.35 39.888C218.286 40.096 218.254 40.448 218.254 40.944V44.136H218.818C219.362 44.136 219.786 44.06 220.09 43.908C220.394 43.756 220.61 43.508 220.738 43.164C220.866 42.82 220.93 42.364 220.93 41.796C220.93 41.284 220.874 40.824 220.762 40.416C220.658 40.008 220.49 39.684 220.258 39.444C220.034 39.196 219.734 39.072 219.358 39.072ZM217.582 36.864C217.35 36.864 217.158 36.792 217.006 36.648C216.854 36.496 216.778 36.3 216.778 36.06C216.778 35.828 216.854 35.636 217.006 35.484C217.158 35.332 217.35 35.256 217.582 35.256C217.814 35.256 218.006 35.332 218.158 35.484C218.31 35.636 218.386 35.828 218.386 36.06C218.386 36.3 218.31 36.496 218.158 36.648C218.006 36.792 217.814 36.864 217.582 36.864Z" fill="black"></path><defs><clipPath id="clip0"><rect width="156" height="215" fill="white" transform="translate(29 8)"></rect></clipPath></defs></svg>