<svg width="250" height="218" viewBox="0 0 250 218" fill="none" xmlns="http://www.w3.org/2000/svg">
<path opacity="0.2" d="M217.277 195.584C217.277 198.326 164.201 200.548 111.107 200.548C58.019 200.548 14.978 198.326 14.978 195.584C14.978 192.842 58.0162 190.621 111.107 190.621C164.201 190.621 217.277 192.842 217.277 195.584Z" fill="#98C3C9"/>
<path d="M74.8126 117.227C74.8126 117.227 49.2215 118.921 46.374 122.818C46.374 122.818 39.5987 125.833 40.4951 133.355C40.4951 133.355 39.0332 146.634 43.3257 172.312C43.3257 172.312 44.536 181.154 44.2984 187.491L53.121 187.9L54.467 170.806C54.467 170.806 59.6841 147.707 53.9184 138.141C53.9184 138.141 76.6619 137.17 82.3174 136.378L74.8126 117.227Z" fill="#FFA786"/>
<path d="M140.886 130.207C140.886 130.207 150.401 140.854 161.234 150.626C161.234 150.626 174.635 152.129 186.91 168.319C186.91 168.319 194.783 176.365 199.926 181.207C199.926 181.207 202.87 181.328 203.424 183.682C203.979 186.035 204.278 187.167 204.278 187.167L195.04 187.84C195.04 187.84 195.193 185.754 194.706 185.405C191.48 183.102 181.475 177.179 179.516 176.315C177.556 175.45 163.259 167.838 159.445 163.747C159.445 163.747 152.856 162.106 151.046 160.304C149.236 158.503 123.821 145.547 123.821 145.547L140.886 130.207Z" fill="#FFA786"/>
<path d="M121.566 108.163L124.193 113.385L142.599 129.64C142.599 129.64 140.956 142.9 125.66 147.857L106.126 136.476C106.126 136.476 79.9896 138.235 76.6105 139.296C76.6105 139.296 69.691 125.696 71.8259 113.655L89.1911 111.502L89.9518 108.16H121.566V108.163Z" fill="#4C4847"/>
<path d="M54.0053 184.765C54.0053 184.765 56.0102 187.833 55.0799 193.745H27.4981C27.4981 193.745 25.2642 189.539 33.4279 188.759C38.7129 188.253 43.4183 183.301 43.4183 183.301C43.4183 183.301 44.9735 183.478 45.6409 185.426C46.3818 187.583 50.7647 188.126 52.3426 185.812C53.3436 184.34 54.0053 184.765 54.0053 184.765Z" fill="#4C4847"/>
<path d="M27.3536 193.746H55.0654V195.435H27.3536V193.746Z" fill="#E2EAF2"/>
<path d="M37.9817 190.362C37.7809 190.362 37.5914 190.238 37.5066 190.036C36.9693 188.727 35.81 188.417 35.7987 188.414C35.5215 188.344 35.3519 188.051 35.4197 187.764C35.4876 187.474 35.7647 187.297 36.0419 187.367C36.1097 187.384 37.7187 187.812 38.4567 189.611C38.5698 189.884 38.4482 190.202 38.1853 190.32C38.1202 190.348 38.0495 190.362 37.9817 190.362Z" fill="#E2EAF2"/>
<path d="M40.0451 189.554C39.8444 189.554 39.6549 189.43 39.5701 189.227C39.0356 187.918 37.8734 187.608 37.8621 187.606C37.585 187.535 37.4153 187.242 37.4832 186.955C37.5511 186.665 37.8282 186.488 38.1053 186.558C38.1732 186.575 39.7822 187.003 40.5202 188.802C40.6333 189.075 40.5117 189.393 40.2488 189.512C40.1809 189.54 40.113 189.554 40.0451 189.554Z" fill="#E2EAF2"/>
<path d="M41.5891 188.472C41.3883 188.472 41.1989 188.348 41.1169 188.145C40.5796 186.836 39.4174 186.526 39.4061 186.524C39.129 186.453 38.9593 186.16 39.0272 185.873C39.095 185.583 39.3722 185.406 39.6493 185.476C39.7172 185.493 41.3261 185.921 42.0642 187.723C42.1773 187.996 42.0557 188.314 41.7927 188.432C41.7276 188.458 41.657 188.472 41.5891 188.472Z" fill="#E2EAF2"/>
<path d="M43.1398 187.394C42.939 187.394 42.7496 187.273 42.6647 187.067C42.1275 185.758 40.9681 185.448 40.954 185.445C40.6768 185.375 40.5072 185.082 40.575 184.795C40.6429 184.505 40.92 184.328 41.1971 184.398C41.265 184.415 42.874 184.843 43.612 186.642C43.7251 186.915 43.6035 187.233 43.3406 187.351C43.2755 187.38 43.2048 187.394 43.1398 187.394Z" fill="#E2EAF2"/>
<path d="M193.06 193.746H206.067V195.717H193.06V193.746Z" fill="#E2EAF2"/>
<path d="M206.003 193.746C206.003 193.746 206.842 191.409 205.646 189.357L203.986 185.725C203.986 185.725 203.178 186.519 202.445 186.181C201.487 185.739 198.857 182.631 196.351 186.179C196.351 186.179 195.421 185.61 194.887 185.773L193.883 189.27C193.883 189.27 192.155 192.335 193.275 193.743H206.003V193.746Z" fill="#4C4847"/>
<path d="M201.76 190.054C201.724 190.054 201.684 190.045 201.645 190.031C199.515 189.22 197.355 189.843 197.335 189.851C197.148 189.905 196.959 189.786 196.911 189.584C196.86 189.381 196.97 189.173 197.154 189.116C197.25 189.088 199.546 188.424 201.874 189.313C202.055 189.381 202.151 189.601 202.088 189.798C202.038 189.955 201.905 190.054 201.76 190.054Z" fill="#E2EAF2"/>
<path d="M201.76 189.042C201.724 189.042 201.684 189.036 201.645 189.02C199.515 188.209 197.355 188.831 197.335 188.839C197.148 188.893 196.959 188.775 196.911 188.572C196.86 188.369 196.97 188.161 197.154 188.105C197.25 188.076 199.546 187.412 201.874 188.302C202.055 188.372 202.151 188.589 202.088 188.786C202.038 188.941 201.905 189.042 201.76 189.042Z" fill="#E2EAF2"/>
<path d="M201.76 188.026C201.724 188.026 201.684 188.021 201.645 188.004C199.515 187.193 197.355 187.815 197.335 187.824C197.148 187.877 196.959 187.759 196.911 187.556C196.86 187.354 196.97 187.145 197.154 187.089C197.25 187.061 199.546 186.396 201.874 187.286C202.055 187.354 202.151 187.57 202.088 187.77C202.038 187.928 201.905 188.026 201.76 188.026Z" fill="#E2EAF2"/>
<path d="M201.76 187.011C201.724 187.011 201.684 187.005 201.645 186.988C199.515 186.177 197.355 186.8 197.335 186.808C197.148 186.864 196.959 186.743 196.911 186.541C196.86 186.338 196.97 186.13 197.154 186.073C197.25 186.045 199.546 185.381 201.874 186.27C202.055 186.341 202.151 186.558 202.088 186.755C202.038 186.912 201.905 187.011 201.76 187.011Z" fill="#E2EAF2"/>
<path d="M106.126 136.462C106.126 136.462 97.5551 131.893 94.6199 127.887C94.6199 127.887 93.6359 133.647 95.2957 137.264L106.126 136.462Z" fill="#3D3A39"/>
<path d="M123.983 49.5357C123.983 49.5357 129.194 47.0076 136.346 51.3796C136.346 51.3796 143.78 51.1291 157.794 53.0096C157.794 53.0096 170.386 49.5103 189.199 50.8841L189.765 56.2584C189.765 56.2584 169.478 63.6849 159.115 62.3955C159.115 62.3955 137.313 68.3356 126.265 67.5417C119.832 67.08 122.173 53.4769 123.983 49.5357Z" fill="#FFA786"/>
<path d="M188.489 51.0743C188.489 51.0743 199.104 48.1127 201.658 48.8982C204.211 49.6808 214.626 50.4663 214.759 52.1188C214.759 52.1188 215.129 53.7741 212.474 53.425C209.819 53.076 204.008 53.7291 204.008 53.7291C204.008 53.7291 204.042 54.4695 203.035 54.644C202.028 54.8186 198.332 56.1248 198.03 56.1248C197.727 56.1248 190.686 56.9525 189.487 56.1248C189.487 56.1248 185.364 54.6891 188.489 51.0743Z" fill="#FFA786"/>
<path d="M90.7929 49.5357C90.7929 49.5357 85.5813 47.0076 78.43 51.3796C78.43 51.3796 70.9959 51.1291 56.9816 53.0096C56.9816 53.0096 44.3896 49.5103 25.5767 50.8841L25.0111 56.2584C25.0111 56.2584 45.2974 63.6849 55.661 62.3955C55.661 62.3955 77.4629 68.3356 88.5109 67.5417C94.9468 67.08 92.6055 53.4769 90.7929 49.5357Z" fill="#FFA786"/>
<path d="M26.2865 51.0743C26.2865 51.0743 15.6711 48.1127 13.1177 48.8982C10.5642 49.6808 0.149662 50.4663 0.016758 52.1188C0.016758 52.1188 -0.35367 53.7741 2.30158 53.425C4.954 53.076 10.7678 53.7291 10.7678 53.7291C10.7678 53.7291 10.7339 54.4695 11.7434 54.644C12.7501 54.8186 16.4459 56.1248 16.7485 56.1248C17.0511 56.1248 24.0921 56.9525 25.2911 56.1248C25.2911 56.1248 29.4111 54.6891 26.2865 51.0743Z" fill="#FFA786"/>
<path d="M87.8791 50.6718L90.4637 49.557C96.0852 47.699 109.774 44.7261 129.351 50.6718C129.351 50.6718 131.042 55.4999 125.038 72.3208C125.038 72.3208 121.959 91.7626 121.939 106.01C121.939 106.01 109.551 109.994 89.4796 106.01L86.6179 75.1669C86.6179 75.1698 82.3339 57.7521 87.8791 50.6718Z" fill="#FFA786"/>
<path d="M102.03 45.1807L101.849 51.7514L112.784 52.0498L113.021 43.5C108.426 45.5776 103.894 45.4031 102.03 45.1807Z" fill="#FFA786"/>
<path d="M113.021 43.5043L113.202 36.9195L102.267 36.6211L102.03 45.1849C103.893 45.4045 108.426 45.5791 113.021 43.5043Z" fill="#D38462"/>
<path d="M93.6418 50.6719C93.6418 50.6719 102.648 54.2162 119.001 51.3391C119.001 51.3391 104.449 57.7971 93.6418 50.6719Z" fill="#D38462"/>
<path d="M95.0594 47.9294C95.0594 47.9294 90.4417 60.4739 102.983 60.8737C115.521 61.2706 119.058 47.7773 119.058 47.7773L124.425 48.788C124.425 48.788 112.453 74.1558 125.661 72.8271C125.661 72.8271 122.992 98.5749 123.127 108.408C123.127 108.408 106.141 114.332 88.7874 109.484L86.6581 75.5944C86.6581 75.5944 85.0407 70.3497 84.8625 68.3565C84.8625 68.3565 89.008 62.5572 90.7329 49.078C90.7329 49.0752 92.9272 48.422 95.0594 47.9294Z" fill="#B395CE"/>
<path d="M93.5301 78.6067C93.5301 78.6067 102.138 67.3627 113.57 78.6067C113.57 78.6067 104.049 72.5878 93.5301 78.6067Z" fill="#9E83BA"/>
<path d="M93.6199 22.77L92.7094 14.3357C92.7094 14.3357 106.449 2.8468 122.191 15.6644L120.792 26.9534L115.722 28.347L93.6199 22.77Z" fill="#934C42"/>
<path d="M119.406 24.295L117.686 25.7364C117.324 24.8806 117.033 23.991 116.793 23.0901C115.404 17.8876 115.122 13.9998 115.122 13.9998C104.716 4.0987 94.6799 13.7999 94.6799 13.7999C94.8495 15.5397 93.6195 22.7635 93.6195 22.7635C93.611 27.4311 93.6166 33.588 96.7385 38.3485C98.0647 40.3698 99.8179 42.0224 102.699 42.4728C115.26 44.4322 118.489 32.1973 118.489 32.1973C118.489 32.1973 122.426 33.2417 123.229 27.4649C123.899 22.6819 119.406 24.295 119.406 24.295Z" fill="#FFA786"/>
<path d="M99.3354 17.7462C99.9575 14.337 99.0837 10.1761 104.414 12.4114C104.414 12.4114 109.657 10.4182 110.055 13.9062C110.437 17.2366 112.21 19.6183 116.005 19.7619C115.292 16.3189 115.125 14.0076 115.125 14.0076C104.719 4.10651 94.6837 13.8077 94.6837 13.8077C94.7855 14.8437 94.3896 17.825 94.0531 20.0659C95.7639 20.2377 98.8886 20.2011 99.3354 17.7462Z" fill="#DD7E68"/>
<path d="M117.538 30.7576C116.472 33.8571 112.49 41.492 103.908 41.0275C99.2622 40.7769 96.9067 37.7252 95.357 35.5941C95.7247 36.5963 96.1771 37.5253 96.7398 38.3502C98.1 40.349 99.8192 42.024 102.701 42.4745C115.262 44.4339 118.491 32.199 118.491 32.199C118.491 32.199 121.505 33.0379 122.84 29.2148C120.496 33.0942 117.538 30.7576 117.538 30.7576Z" fill="#D38462"/>
<path d="M104.414 12.4088C104.414 12.4088 103.062 9.84417 99.7595 10.7704C96.2531 11.7529 98.8178 17.5297 96.6235 19.0246C94.4292 20.5194 88.5758 19.6383 88.5758 19.6383C88.5758 19.6383 90.9765 17.7211 91.0444 15.728C91.0896 14.3992 89.1753 4.57129 94.7572 1.45204C101.052 -2.06697 104.985 1.91655 104.985 1.91655C104.985 1.91655 109.297 -0.850803 115.524 1.45204C121.751 3.75488 126.374 10.9506 122.195 18.6839C122.195 18.6839 117.979 20.7841 114.591 19.247C110.714 17.4875 112.702 13.4561 110.612 11.4545C108.853 9.77661 106.289 10.7704 104.414 12.4088Z" fill="#7F3A2D"/>
<path d="M104.832 3.70703C104.832 3.70703 104.118 8.65617 104.485 11.7782C104.485 11.7782 105.131 5.97046 104.832 3.70703Z" fill="#934C42"/>
<path d="M95.4784 16.2384C95.2522 19.1691 88.5759 19.6392 88.5759 19.6392C88.5759 19.6392 94.4293 20.5204 96.6236 19.0255C98.818 17.5306 96.2532 11.7538 99.7596 10.7713C100.591 10.5376 101.301 10.5264 101.895 10.639C97.2938 8.9386 95.7018 13.3078 95.4784 16.2384Z" fill="#682B23"/>
<path d="M113.299 14.9503C112.716 11.0343 109.447 10.75 109.445 10.75C109.858 10.8879 110.251 11.116 110.607 11.4594C112.699 13.4582 110.709 17.4924 114.585 19.2519C117.973 20.789 122.189 18.6889 122.189 18.6889C122.594 17.94 122.913 17.1968 123.159 16.4621C120.798 18.3623 113.884 18.8634 113.299 14.9503Z" fill="#682B23"/>
<path opacity="0.1" d="M99.0498 11.086C95.8007 8.65652 94.418 4.3014 93.8948 2.03516C91.4319 4.00299 90.8183 7.52481 90.7645 10.5258C92.2943 11.6829 94.6244 13.0933 97.7377 14.0195C97.8395 12.7949 98.1138 11.6829 99.0498 11.086Z" fill="white"/>
<path opacity="0.1" d="M122.464 7.43815C121.282 5.22258 119.41 3.40677 117.216 2.21875C116.342 4.87068 114.266 9.02029 110.387 11.264C110.46 11.3231 110.536 11.3879 110.607 11.4554C111.286 12.1058 111.535 12.97 111.693 13.9019C116.466 12.4126 120.219 9.67905 122.464 7.43815Z" fill="white"/>
<path opacity="0.2" d="M250 212.518C250 215.282 215.315 217.521 180.619 217.521C145.927 217.521 117.801 215.282 117.801 212.518C117.801 209.755 145.926 207.516 180.619 207.516C215.315 207.516 250 209.755 250 212.518Z" fill="#98C3C9"/>
<path d="M233.766 211.94C233.714 212.232 228.347 212.83 221.505 210.875C218.374 210.291 215.719 210.634 215.616 210.109C215.47 209.365 215.587 207.811 215.653 206.826C215.741 205.586 216.313 202.158 218.432 202.289C221.739 202.493 222.898 205.681 225.765 206.25C232.277 207.534 234.294 208.949 233.766 211.94Z" fill="#295B6D"/>
<path d="M222.487 170.601C221.857 181.397 220.031 199.788 220.031 199.788C220.038 199.81 220.06 201.385 220.163 203.041C220.185 203.435 221.827 205.003 221.864 205.39C222.003 206.937 217.208 204.442 217.208 204.442L217.098 199.489C217.142 196.593 213.761 187.627 213.402 178.283C213.314 175.941 214.216 173.658 214.37 171.294C214.912 163.131 222.795 165.32 222.487 170.601Z" fill="#D38462"/>
<path d="M152.88 212.059C152.851 212.358 147.542 213.336 140.576 211.87C137.415 211.512 134.79 212.045 134.65 211.534C134.452 210.804 134.452 209.251 134.452 208.259C134.452 207.011 134.768 203.553 136.894 203.532C140.202 203.495 141.595 206.595 144.499 206.953C151.076 207.77 153.188 209.039 152.88 212.059Z" fill="#295B6D"/>
<path d="M152.88 212.059C152.85 212.358 147.541 213.336 140.575 211.869C137.414 211.512 134.789 212.045 134.65 211.534C134.452 210.804 134.452 209.251 134.452 208.259C134.452 207.011 134.767 203.553 136.894 203.532C139.739 203.502 141.161 205.786 143.354 206.654C143.713 206.8 144.982 208.302 141.902 208.528C139.504 208.704 142.745 211.337 145.547 211.818C148.751 212.373 152.924 211.592 152.88 212.059Z" fill="#38728C"/>
<path d="M169.813 185.564C174.917 184.17 178.319 189.583 172.38 193.406C163.03 199.424 141.471 204.647 141.581 205.384C141.691 206.121 142.131 207.207 141.302 207.485C139.652 208.032 137.218 206.558 136.814 204.844C136.404 203.13 143.685 199.84 145.673 198.446C149.185 195.981 165.553 186.724 169.813 185.564Z" fill="#FFA786"/>
<path d="M169.813 185.564C174.917 184.17 178.319 189.583 172.38 193.406C163.03 199.424 141.471 204.647 141.581 205.384C141.691 206.121 142.131 207.207 141.302 207.485C139.652 208.032 137.218 206.558 136.814 204.844C136.638 204.107 137.892 203.071 139.535 202.028C140.591 201.357 140.459 203.334 145.372 202.415C150.564 201.445 160.852 197.556 163.829 195.973C164.071 195.842 163.184 194.339 162.605 193.056C161.798 191.261 161.197 189.532 161.534 189.357C165.091 187.49 168.258 185.987 169.813 185.564Z" fill="#D38462"/>
<path d="M168.348 184.104C170.012 183.054 171.347 182.645 171.281 182.28C168.348 165.262 169.345 148.848 169.624 146.529C170.46 139.606 176.744 134.266 177.235 133.318C177.536 132.734 204.279 133.719 204.279 133.719C204.463 134.149 207.176 139.934 207.22 145.566C207.345 145.66 207.462 145.755 207.579 145.872C212.764 150.971 222.121 165.947 222.612 166.786C224.02 169.186 223.433 179.005 222.979 179.676C221.329 182.12 212.316 181.857 212.221 179.676C212.133 178.48 211.546 173.351 211.612 170.798C211.62 170.558 201.713 160.651 197.159 157.485C194.49 158.47 191.513 159.163 188.763 159.251C187.824 162.052 185.954 180.53 180.454 188.919C180.234 189.247 170.555 196.695 168.538 195.973C164.549 194.536 163.669 188.532 163.589 187.948C163.567 187.854 166.338 185.381 168.348 184.104Z" fill="#FFC477"/>
<path d="M179.105 188.424C184.561 183.47 184.253 157.136 182.486 155.393C181.21 154.138 181.745 152.788 182.867 153.919C183.102 154.153 189.723 154.488 193.28 153.649C197.328 152.694 198.354 150.469 198.413 149.148C198.288 149.513 188.396 150.323 181.18 150.002C173.965 149.681 169.594 146.923 169.624 146.654C170.46 139.731 176.744 134.391 177.235 133.443C177.536 132.859 204.279 133.844 204.279 133.844C204.463 134.274 207.176 140.059 207.22 145.691C207.345 145.785 207.462 145.88 207.579 145.997C212.764 151.096 222.121 166.072 222.612 166.911C224.02 169.311 223.433 179.13 222.979 179.801C221.329 182.245 212.316 181.982 212.221 179.801C212.133 178.605 211.546 173.476 211.612 170.923C211.62 170.683 201.713 160.776 197.159 157.61C194.49 158.595 191.513 159.288 188.763 159.376C187.824 162.177 185.954 180.655 180.454 189.044C180.234 189.372 170.555 196.82 168.538 196.098C168.113 195.944 167.724 195.74 167.372 195.499C173.972 192.676 178.643 188.839 179.105 188.424Z" fill="#EFA852"/>
<path d="M220.903 114.38C236.06 109.515 241.112 90.147 241.706 89.3665C243.474 87.0468 244.258 84.2747 244.427 81.6851C244.706 77.3228 243.224 73.4857 241.677 73.1939C239.206 72.7271 238.986 76.6808 237.556 80.4887C236.999 81.9696 237.739 77.2936 236.273 77.2936C235.451 77.2936 235.253 81.1598 235.627 84.0413C235.921 86.2881 236.669 87.6012 237.116 88.1264C238.003 90.0668 229.24 104.255 216.987 106.838C213.819 107.501 204.352 98.1057 203.787 97.595C198.046 92.3647 191.981 95.9537 196.212 102.213C200.935 109.208 211.428 117.422 220.903 114.38Z" fill="#FFA786"/>
<path d="M220.903 114.38C236.06 109.514 241.112 90.1467 241.706 89.3661C243.474 87.0464 244.258 84.2744 244.427 81.6847C244.706 77.3224 243.224 73.4854 241.677 73.1936C239.609 72.807 243.723 77.6726 242.777 80.7948C242.755 80.8677 242.256 81.1303 242.044 80.5176C241.831 79.9121 241.912 78.4458 241.677 78.424C241.464 78.4021 241.494 80.8677 241.23 80.8239C240.9 80.7729 240.54 80.7072 240.181 80.6416C239.91 80.5905 240.372 76.0094 240.115 75.9656C239.858 75.9218 238.876 80.4154 238.656 80.3863C238.055 80.3133 237.615 80.3133 237.549 80.4884C236.991 81.9692 239.023 82.8154 239.382 85.5364C239.485 86.295 242.682 80.7948 243.694 83.1656C244.706 85.5364 240.372 89.5631 240.672 89.9133C241.039 93.6482 231.506 109.609 224.672 111.338C222.685 111.841 221.196 110.375 220.815 105.736C219.546 106.195 218.27 106.575 216.987 106.844C213.819 107.508 204.352 98.1126 203.787 97.602C198.046 92.3716 191.981 95.9606 196.212 102.22C200.935 109.208 211.428 117.422 220.903 114.38Z" fill="#D38462"/>
<path d="M192.003 93.4744C192.01 93.4744 192.018 93.4744 192.018 93.4744L192.355 85.8076L188.769 85.7055V85.6836L188.329 85.6982L187.889 85.6836V85.7055L184.303 85.8076L184.655 93.4744C184.655 93.4744 184.663 93.4744 184.67 93.4744C184.67 93.4744 178.004 94.999 175.621 95.7869C175.797 100.047 176.332 105.066 176.501 109.114C176.948 110.201 187.281 113.462 197.554 113.411C207.828 113.455 201.323 100.047 201.499 95.7869C199.109 94.999 192.003 93.4744 192.003 93.4744Z" fill="#D38462"/>
<path d="M205.877 130.174C205.423 121.589 205.254 105.27 205.254 103.556C205.247 101.09 203.465 97.1947 202.372 96.2099C201.272 95.2251 197.547 94.0944 197.554 94.1892C197.569 94.4081 201.654 107.809 195.355 107.809C189.055 107.809 179.713 95.8452 180.564 94.3133C180.564 94.2184 176.927 93.6275 174.741 95.7795C172.534 97.9461 170.796 103.286 170.796 108.246C170.796 109.953 172.087 119.604 171.632 128.19C171.456 131.502 166.14 139.556 169.198 143.553C170.393 145.114 174.023 146.172 177.264 146.712C177.264 146.712 196.938 147.93 202.805 145.982C208.481 144.115 209.83 143.502 205.877 130.174Z" fill="#D2D2D2"/>
<path d="M205.877 130.174C205.423 121.588 205.254 105.27 205.254 103.556C205.247 101.09 203.465 97.1947 202.372 96.2099C201.272 95.2251 197.547 94.0944 197.555 94.1892C197.569 94.4081 201.654 107.809 195.355 107.809C189.056 107.809 179.713 95.8452 180.564 94.3133C180.564 94.2184 176.927 93.6275 174.742 95.7795C172.534 97.9461 170.796 103.286 170.796 108.246C170.796 109.129 179.904 119.086 189.43 126.104C198.346 132.684 207.791 136.623 205.877 130.174Z" fill="#C2C2C2"/>
<path d="M202.937 121.072C218.094 116.207 223.147 96.839 223.741 96.0584C225.508 93.7387 226.292 90.9667 226.461 88.377C226.74 84.022 225.259 80.1849 223.711 79.8931C221.24 79.4263 221.02 83.3801 219.59 87.1879C219.033 88.6688 219.773 83.9928 218.307 83.9928C217.486 83.9928 217.288 87.8591 217.662 90.7405C217.955 92.9873 218.703 94.3004 219.15 94.8256C220.037 96.766 211.274 110.954 199.021 113.537C195.853 114.201 181.495 99.6985 180.931 99.1879C175.189 93.9575 170.422 99.4286 174.653 105.695C179.376 112.676 193.463 124.107 202.937 121.072Z" fill="#FFA786"/>
<path d="M225.12 81.9231C225.486 82.0472 225.267 82.9955 225.245 84.6003C225.215 86.4459 225.113 88.4301 224.82 88.4301C224.519 88.4301 224.673 86.4021 224.871 84.542C225.032 82.959 224.754 81.7991 225.12 81.9231Z" fill="#D38462"/>
<path d="M221.878 81.0683C222.186 81.1923 221.907 82.717 221.871 84.4093C221.834 86.182 221.731 87.9984 221.446 87.9984C221.152 87.9984 221.292 86.058 221.482 84.2343C221.658 82.6075 221.57 80.9516 221.878 81.0683Z" fill="#D38462"/>
<path d="M223.587 80.0395C223.954 80.1635 223.609 82.4978 223.529 84.7154C223.47 86.5318 223.345 88.1804 223.096 88.1804C222.847 88.1804 222.92 86.5245 223.081 84.7081C223.272 82.4978 223.221 79.9154 223.587 80.0395Z" fill="#D38462"/>
<path d="M205.428 74.8161C205.428 74.7038 208.902 66.0937 205.723 62.4476C204.315 60.7685 201.636 58.6404 198.579 57.181C197.642 54.1206 192.612 52.0559 190.105 52.0022C188.991 51.9778 187.956 52.1536 186.985 52.4708C183.084 53.5935 179.757 58.1426 176.916 60.339C172.662 63.6239 168.678 64.2243 169.924 69.3689C170.145 70.2865 170.744 75.5775 171.097 75.9631C171.593 76.6025 168.457 81.4299 169.336 85.1687C170.989 92.1827 181.901 87.8289 190.105 87.8289C194.914 87.8289 201.92 89.2541 205.428 87.1846C208.922 85.1248 205.428 75.0797 205.428 74.8161Z" fill="#C2C2C2"/>
<path d="M205.428 74.8184C205.428 74.7061 207.082 68.0728 203.902 64.4267C202.494 62.7476 200.826 62.4108 197.769 60.9514C197.126 58.8331 194.482 59.819 192.598 60.7318C191.763 61.1369 182.397 66.8086 179.551 69.0051C178.427 69.869 176.887 70.4255 175.626 70.1668C173.683 69.7665 174.561 75.4578 173.786 77.2442C173.153 78.7037 168.452 81.4419 169.331 85.1808C170.984 92.1948 181.896 87.8409 190.1 87.8409C194.909 87.8409 201.915 89.2662 205.423 87.1966C208.922 85.1271 205.428 75.082 205.428 74.8184Z" fill="#8C8C8C"/>
<path d="M202.671 68.3397C201.69 66.1921 199.791 63.9127 196.793 62.1653C196.067 61.7406 179.836 69.4673 177.324 72.4593C177.118 72.7034 177.108 74.8022 177.103 74.9779C173.349 74.9047 174.527 79.3269 176.799 80.4056C176.828 82.1091 177.858 86.0285 178.761 87.2976C182.127 92.0371 189.742 92.1981 193.206 92.0029C198.196 91.7149 203.333 89.1182 203.647 79.9321C203.647 79.8394 203.284 69.6723 202.671 68.3397Z" fill="#FFA786"/>
<path d="M178.585 73.5429C179.743 71.9322 188.217 67.0023 193.84 64.6448C197.775 62.9999 199.59 64.1714 198.884 63.6003C198.256 63.0927 197.559 62.6094 196.789 62.1653C196.062 61.7406 179.831 69.4673 177.319 72.4593C177.113 72.7034 177.103 74.8022 177.098 74.9779C173.345 74.9047 174.522 79.3269 176.794 80.4056C176.824 82.1091 177.854 86.0285 178.757 87.2976C180.337 89.5233 182.849 90.7387 185.43 91.383C180.258 89.3379 178.482 85.0963 178.144 81.2305C178.031 79.9419 178.045 78.5752 178.119 77.3599C178.144 76.9645 177.133 75.8321 175.2 76.0761C175.842 74.2458 178.261 75.6125 178.291 75.3391C178.408 74.3043 178.541 73.6112 178.585 73.5429Z" fill="#D38462"/>
</svg>
