<svg width="149" height="153" viewBox="0 0 149 153" fill="none" xmlns="http://www.w3.org/2000/svg">
<path d="M149 74.5C149 115.6 115.6 149 74.5 149C33.4 149 0 115.6 0 74.5C0 33.4 33.4 0 74.5 0C115.6 0 149 33.4 149 74.5Z" fill="#F8F6F6"/>
<mask id="mask0" mask-type="alpha" maskUnits="userSpaceOnUse" x="2" y="3" width="147" height="150">
<path d="M148.9 77.9C148.9 119.3 116 152.8 75.4 152.8C34.9 152.8 2 119.3 2 77.9C2 36.5 34.9 3 75.5 3C116 3 148.9 36.5 148.9 77.9Z" fill="#F8F6F6"/>
</mask>
<g mask="url(#mask0)">
<path d="M88.8693 74.9001C88.8693 74.9001 80.7693 88.0001 75.1693 87.9001C69.7693 87.8001 62.5693 74.9001 62.5693 74.9001L62.7693 55.1001H88.7693L88.8693 74.9001Z" fill="#F7995A"/>
<path d="M101.769 140.1L103.669 136.2L103.469 131L111.669 78.3L97.8693 72L76.5693 81.3L75.1693 88.4L73.8693 81.3L52.5693 72L38.7693 78.3L46.9693 131L46.7693 136.2L48.6693 140.1L48.1693 145L43.6693 162C43.6693 162 51.8693 165.1 75.2693 165.1C98.5693 165.1 105.569 162 105.569 162L102.369 145L101.769 140.1Z" fill="#FCE587"/>
<path d="M71.6693 78L73.8693 81.3L70.3693 80.1L66.7693 85.5L52.5693 72L59.9693 66.5L71.6693 78Z" fill="#FDD36A"/>
<path d="M44.5695 124.3L45.3695 120.5L38.7695 78.2998L34.3695 84.2998L23.4695 119.4L44.5695 124.3Z" fill="#FDD36A"/>
<path d="M78.7693 78L76.5693 81.3L80.0693 80.1L83.6693 85.5L97.9693 72L90.4693 66.5L78.7693 78Z" fill="#FDD36A"/>
<path d="M48.9693 139.1C54.4693 144.2 65.3693 140.5 70.6693 144.8C64.4693 147.9 49.2693 145.2 59.5693 155.1C55.5693 155.2 52.0693 153.7 48.0693 154C48.3693 150.5 49.7693 146.7 49.1693 143.6L48.9693 139.1Z" fill="#FDD36A"/>
<path d="M101.669 144C99.3694 148.7 92.5694 148.2 87.6694 149.1C89.9694 151.7 95.1694 151.2 99.0694 151.3C98.4694 151.9 97.7694 152.8 96.8694 153.5C98.2694 153.9 102.469 154.1 102.769 154.1L101.669 144Z" fill="#FDD36A"/>
<path d="M40.9694 137.2L22.1694 135.9L25.7694 119.9L44.5694 124.3L40.9694 137.2Z" fill="#F7995A"/>
<path d="M50.7694 167.3L55.7694 168.9L46.7694 174.3L43.6694 178.1C43.6694 178.1 19.7694 148.6 22.1694 135.9C28.4694 128.1 40.9694 137.2 40.9694 137.2L50.7694 167.3Z" fill="#F7AC6F"/>
<path d="M90.3693 45.2001C95.5693 40.5001 93.8693 50.1001 92.6693 52.6001C92.2693 53.5001 91.2693 55.3001 90.0693 55.5001L90.3693 45.2001Z" fill="#F7995A"/>
<path d="M60.0695 45.2001C54.8695 40.5001 56.5695 50.1001 57.7695 52.6001C58.1695 53.5001 59.1695 55.3001 60.3695 55.5001L60.0695 45.2001Z" fill="#F7995A"/>
<path d="M90.4694 48.6998C89.9694 42.6998 91.3694 33.1998 88.7694 29.2998C85.7694 24.6998 80.0694 24.2998 75.1694 24.2998C70.2694 24.2998 64.5694 24.6998 61.5694 29.2998C58.9694 33.2998 60.3694 42.7998 59.8694 48.6998C59.2694 56.2998 61.3694 61.4998 67.1694 66.2998C68.8694 67.6998 72.8694 68.4998 75.0694 68.5998C77.2694 68.5998 81.2694 67.6998 82.9694 66.2998C88.9694 61.4998 91.0694 56.2998 90.4694 48.6998Z" fill="#F7AC6F"/>
<path d="M86.0694 53.6999C85.6694 48.1999 89.4694 41.2999 87.0694 37.6999C84.2694 33.4999 79.1694 31.3999 74.6694 31.3999C70.1694 31.3999 65.9694 33.8999 63.2694 38.1999C60.8694 41.7999 65.2694 48.1999 64.4694 53.5999C63.3694 60.5999 62.6694 61.0999 68.0694 65.4999C69.6694 66.7999 73.2694 67.5999 75.3694 67.5999C77.4694 67.5999 81.0694 66.7999 82.6694 65.4999C87.8694 61.0999 86.5694 60.6999 86.0694 53.6999Z" fill="#F7AC6F"/>
<path d="M93.7694 27.8999C93.4694 26.8999 90.4694 22.9999 90.4694 22.9999L85.3694 18.2999C85.3694 18.2999 76.0694 15.2999 74.5694 14.8999C71.0694 13.7999 66.0694 17.7999 66.0694 17.7999L63.1694 20.7999L63.0694 19.8999C63.0694 19.8999 58.0694 24.3999 56.7694 30.0999C56.0694 33.4999 56.5694 41.4999 57.5694 43.9999C57.5694 43.9999 59.3694 45.3999 59.9694 45.2999C59.8694 42.6999 60.9694 39.0999 60.9694 37.1999C61.4694 35.5999 65.3694 29.1999 67.1694 28.5999C69.0694 26.6999 74.5694 28.9999 74.5694 28.9999L78.3694 27.5999C78.3694 27.5999 79.2694 29.0999 79.7694 29.2999C80.6694 29.6999 83.6694 28.9999 83.6694 28.9999C87.9694 31.3999 89.1694 38.0999 89.1694 38.0999C89.1694 38.0999 90.3694 42.6999 90.2694 45.2999C90.8694 45.3999 93.0694 43.9999 93.0694 43.9999C93.4694 40.8999 95.1694 32.7999 93.7694 27.8999Z" fill="#00314E"/>
<path d="M81.1694 25.9998C83.1694 21.7998 75.0694 19.5998 72.1694 18.7998C72.6694 19.3998 72.9694 20.0998 73.3694 20.6998C71.8694 19.6998 69.5694 19.0998 67.7694 18.7998C67.7694 18.7998 67.7694 18.7998 67.8694 18.7998C70.8694 21.0998 63.7694 22.5998 64.8694 25.9998C66.4694 25.1998 68.6694 25.2998 70.5694 25.2998C71.4694 25.2998 74.9694 26.8998 75.6694 26.8998C76.7694 26.7998 75.2694 24.9998 76.5694 25.0998C77.5694 25.0998 81.1694 25.9998 81.1694 25.9998Z" fill="#053E60"/>
<path d="M105.769 110.1L108.669 78.2002L114.569 87.7002C114.569 87.7002 132.269 109.1 127.369 112C117.569 117.9 105.769 110.1 105.769 110.1Z" fill="#FDD36A"/>
<path d="M106.369 62.7002L98.6693 62.9002L94.0693 63.8002C94.0693 63.8002 115.669 108.4 127.369 112.2C136.769 110.5 139.069 96.7002 133.269 90.8002C126.369 83.8002 106.369 62.7002 106.369 62.7002Z" fill="#FABC84"/>
<path d="M107.869 40.2002C107.869 40.2002 104.369 38.9002 102.869 43.6002C102.669 44.3002 102.669 47.3002 102.669 47.3002C102.669 47.3002 95.5693 38.5002 93.1693 36.1002C89.2693 32.1002 88.3693 35.3002 88.3693 35.3002L95.7693 47.7002L87.2693 55.2002L90.9693 62.3002L96.7693 67.3002L106.269 62.8002L109.469 54.7002L106.569 43.5002L107.869 40.2002Z" fill="#FABC84"/>
<path d="M89.7692 45.3001C89.2692 46.4001 89.5692 47.6001 90.4692 48.0001L97.8692 51.4001C98.7692 51.8001 99.8692 51.3001 100.369 50.2001C100.869 49.1001 100.569 47.9001 99.6692 47.5001L92.2692 44.1001C91.4692 43.6001 90.2692 44.2001 89.7692 45.3001Z" fill="#FABC84"/>
<path d="M87.4694 49C86.8694 50.2 87.1694 51.5 88.0694 51.9L95.4694 55.3C96.3694 55.7 97.5694 55.1 98.0694 53.9C98.6694 52.7 98.3694 51.4 97.4694 51L90.0694 47.6C89.1694 47.2 87.9694 47.8 87.4694 49Z" fill="#FABC84"/>
<path d="M87.2693 53.3C86.7693 54.2 87.0693 55.3 87.7693 55.6L93.9693 58.5C94.7693 58.8 95.6693 58.4 96.0693 57.5C96.4693 56.6 96.2693 55.6 95.4693 55.2L89.3693 52.3C88.5693 51.9 87.6693 52.4 87.2693 53.3Z" fill="#FABC84"/>
<path d="M102.769 25.3C102.769 28.2 100.369 30.6 97.4692 30.6C94.5692 30.6 92.1692 28.2 92.1692 25.3C92.1692 22.4 94.5692 20 97.4692 20C100.369 20 102.769 22.3 102.769 25.3Z" fill="#FF6B43"/>
<path d="M86.7693 25.3001C86.7693 19.4001 91.5693 14.6001 97.4693 14.6001C103.369 14.6001 108.169 19.4001 108.169 25.3001C108.169 31.2001 103.369 36.0001 97.4693 36.0001C91.5693 36.0001 86.7693 31.2001 86.7693 25.3001ZM88.5693 25.3001C88.5693 30.2001 92.5693 34.2001 97.4693 34.2001C102.369 34.2001 106.369 30.2001 106.369 25.3001C106.369 20.4001 102.369 16.4001 97.4693 16.4001C92.5693 16.4001 88.6693 20.4001 88.5693 25.3001Z" fill="#FF6B43"/>
<path d="M80.2693 25.3C80.2693 15.8 87.9693 8 97.5693 8C107.069 8 114.869 15.7 114.869 25.3C114.869 34.8 107.169 42.6 97.5693 42.6C87.9693 42.5 80.2693 34.8 80.2693 25.3ZM82.0693 25.3C82.0693 33.8 88.9693 40.7 97.4693 40.7C105.969 40.7 112.869 33.8 112.869 25.3C112.869 16.8 105.969 9.9 97.4693 9.9C88.9693 9.8 82.0693 16.7 82.0693 25.3Z" fill="#FF6B43"/>
</g>
</svg>
