<svg width="377" height="305" viewBox="0 0 377 305" fill="none" xmlns="http://www.w3.org/2000/svg">
<rect width="377" height="305" fill="#EEF7DC"/>
<g clip-path="url(#clip0)">
<path d="M90.6423 281.132C90.6423 283.004 72.7843 283.192 72.5983 280.384C72.4123 277.576 88.038 275.891 88.4101 275.142C88.7821 274.768 90.6423 279.448 90.6423 281.132Z" fill="#905014"/>
<path d="M88.9689 227.783C94.7355 242.009 89.3409 271.586 89.899 277.389C90.085 279.261 78.3658 279.261 78.3658 278.325C78.3658 266.532 69.4368 231.152 69.9948 223.852C70.7389 215.99 77.0636 179.674 81.1561 177.054C85.2485 174.246 110.361 168.256 109.245 176.118C108.315 183.98 86.5506 221.418 88.9689 227.783Z" fill="#515358"/>
<path d="M128.776 270.652C129.335 271.588 122.824 277.391 121.894 278.515C121.522 279.076 113.151 280.761 112.407 279.076C111.849 278.14 116.313 275.332 116.313 275.332C120.034 270.652 122.638 266.347 123.754 265.973C124.126 265.973 127.846 269.155 128.776 270.652Z" fill="#905014"/>
<path d="M116.499 275.517C115.383 275.517 85.0614 230.778 81.5271 221.606C77.9927 212.433 77.9927 186.226 81.341 171.812C83.7593 171.812 112.22 169.379 112.22 169.379C115.569 177.615 97.8968 214.492 100.501 217.674C103.291 220.857 124.498 263.162 126.172 265.97C127.474 267.842 116.871 275.517 116.499 275.517Z" fill="#646875"/>
<path d="M79.2951 155.712C73.7145 163.012 53.9963 171.997 47.6717 174.992C45.6254 175.928 46.9276 178.549 41.905 178.736C39.3007 178.736 35.0223 178.549 34.4642 176.864C33.9061 174.992 37.6266 171.436 37.8126 171.436C39.3007 170.687 44.5093 169.377 45.0674 168.815C49.9039 164.697 64.7855 148.598 67.5758 144.854C70.1801 141.111 69.25 123.515 75.3887 118.086C81.5273 112.657 91.5724 118.273 91.2004 123.515C90.4563 132.313 84.8757 148.224 79.2951 155.712Z" fill="#F2B272"/>
<path d="M30.186 273.084H31.1161C29.2559 178.739 29.628 175.931 35.2086 172.936C40.6032 170.315 49.1601 175.931 47.4859 185.29C47.4859 185.29 47.2999 185.852 46.3698 185.665C45.2537 185.478 45.4397 184.916 45.4397 184.916C46.9278 174.808 34.2785 168.818 32.9763 181.172C31.8602 191.655 32.9763 253.803 33.3484 272.896H34.2785L34.4645 278.699L30 278.887L30.186 273.084Z" fill="#905014"/>
<path d="M44.5099 172.931C42.0917 168.999 35.3949 173.305 34.4648 176.3C34.4648 176.3 38.7433 179.108 43.2078 178.172C48.0443 177.049 46.3701 176.113 44.5099 172.931Z" fill="#F2B272"/>
<path d="M52.1355 91.3203C52.8796 93.7538 56.786 93.1922 56.786 93.1922C57.158 93.5666 56.786 94.6897 56.6 95.2513C56.4139 95.8129 58.6462 97.1232 60.3204 96.0001C60.8784 95.6257 56.6 97.6848 57.344 98.6208C57.5301 98.808 59.5763 104.237 62.1806 105.734C63.2967 106.483 64.9709 106.296 67.0171 104.798C69.0633 103.301 69.6214 117.714 69.2493 119.399C69.0633 119.961 89.8976 108.168 89.3395 106.67C88.0374 103.488 83.3869 98.0592 81.7127 93.005C80.9686 89.8227 87.8514 83.6454 85.0611 76.5321C82.8288 71.1035 80.0385 67.3597 72.7837 66.9853C63.2967 66.6109 58.2741 69.9804 55.4838 75.5961C52.3215 81.7735 54.5537 83.6454 54.5537 85.7045C54.7398 86.6405 51.5774 89.2612 52.1355 91.3203Z" fill="#F2B272"/>
<path d="M85.8051 71.6624C82.0847 66.0467 78.5503 64.9235 70.7374 64.7363C68.5052 64.7363 59.2042 65.1107 53.6236 72.7856C48.9731 79.3373 52.5075 83.0812 52.8795 83.6427C54.3677 85.3275 54.1816 81.7708 56.7859 79.8989C59.5762 81.2092 64.9708 74.2831 65.5289 75.9679C66.645 79.3373 67.017 82.1452 67.017 84.2043C66.831 86.2634 67.017 88.8841 64.9708 91.3176C64.5988 91.8792 59.2042 92.4408 57.158 93.1895C56.5999 93.3767 56.4139 94.4999 56.5999 94.6871C57.344 95.623 61.2504 95.2486 61.4364 95.8102C61.6225 96.559 58.6461 97.8693 57.716 98.6181C57.158 98.2437 59.0182 108.914 58.0881 116.027C57.716 118.835 76.6901 106.106 76.6901 101.239C76.6901 98.9925 73.3417 90.1944 72.4116 85.889C72.9697 83.8299 74.4579 82.1452 76.8761 84.0171C79.2944 85.889 76.5041 88.6969 76.3181 90.756C76.132 92.6279 83.2008 100.303 85.9911 98.2437C88.2234 95.9974 89.7115 77.6526 85.8051 71.6624Z" fill="#816C69"/>
<path d="M74.8298 82.3344C69.9932 82.3344 58.832 84.2063 58.274 84.3935V84.5807C56.9718 80.4625 52.5073 81.7728 52.8794 85.8911C53.0654 87.763 54.3675 89.4477 56.0417 89.2605C57.5299 89.0733 58.646 87.3886 58.46 85.1423C58.832 85.1423 70.1792 83.0832 74.8298 83.0832C79.1082 83.0832 79.2942 86.0783 79.2942 86.0783H80.2243C80.0383 86.2654 80.0383 82.5216 74.8298 82.3344ZM55.8557 88.5117C54.7396 88.5117 54.3675 87.3886 54.3675 85.8911C53.9955 82.3344 56.9718 81.96 57.1578 85.7039C57.3439 87.0142 56.9718 88.3246 55.8557 88.5117Z" fill="#1F1B18"/>
<path d="M40.4163 85.703C43.5786 87.3877 55.856 81.772 74.272 80.4616C94.7342 78.9641 102.919 85.8902 104.965 81.772C107.198 77.4665 88.5955 75.2202 87.8515 73.5355C87.1074 71.8508 85.4332 54.6291 77.9924 58.5601C67.2032 64.3631 58.6463 55.1907 55.1119 65.299C53.8097 69.0429 51.0194 76.7178 51.0194 76.7178C51.0194 76.7178 37.2539 84.0183 40.4163 85.703Z" fill="#5C2D00"/>
<path d="M110.361 134.374C116.313 151.783 118.36 171.438 116.685 182.669C115.569 186.787 78.9233 193.901 75.2029 188.472C76.8771 182.295 77.8072 178.177 76.319 172.374C74.0868 162.64 69.0642 153.467 67.39 145.418C64.5997 132.502 67.39 114.531 68.1341 114.157C73.9007 110.039 83.5738 101.989 88.5963 99.9303C90.0845 99.1815 104.036 116.029 110.361 134.374Z" fill="#C9B58D"/>
<path opacity="0.3" d="M81.7139 174.806C81.7139 174.806 96.9675 158.145 98.2697 150.471C99.5718 142.796 98.0837 124.264 98.0837 124.264L91.945 151.219L81.7139 174.806Z" fill="#2B2B2B"/>
<path d="M78.1801 148.975C76.1339 153.654 70.5533 186.6 69.8092 187.162C69.8092 187.162 64.2286 193.526 63.4845 195.96C63.1125 197.27 64.2286 201.95 64.7867 202.699C65.3447 203.448 66.8329 203.073 67.391 202.137C68.135 201.014 66.2748 199.516 67.577 197.27C67.763 196.896 69.0651 194.837 69.4372 194.837C69.8092 194.837 72.5995 193.901 73.7157 191.093C74.6458 188.847 85.993 167.319 91.7596 157.024C92.3177 155.901 93.2478 154.029 93.9919 151.408L78.1801 148.975Z" fill="#F2B272"/>
<path d="M93.0615 111.722C88.411 101.988 72.2272 109.85 73.5294 118.461C73.9014 120.707 75.0175 150.284 75.0175 150.471L95.6658 152.156C98.2701 143.17 99.9443 125.949 93.0615 111.722Z" fill="#FFEDAB"/>
<path d="M184.211 269.902C184.025 271.774 184.397 275.518 184.211 277.016C184.211 277.39 181.235 281.134 181.049 282.819C180.862 285.439 175.84 284.691 176.77 283.567C177.514 282.444 177.886 282.819 179.002 281.321C180.118 279.636 179.932 272.523 179.188 271.4C175.096 265.035 184.955 264.287 184.211 269.902Z" fill="#A66716"/>
<path d="M159.283 275.33C159.283 278.887 160.213 282.256 159.841 283.192C159.655 283.941 157.051 284.315 158.167 285.251C159.469 286.562 161.701 286.187 162.073 284.877C163.003 282.256 162.817 277.202 163.375 271.773C163.375 271.773 159.283 273.645 159.283 275.33Z" fill="#A67535"/>
<path d="M159.283 275.33C159.283 278.887 160.213 282.256 159.841 283.192C159.655 283.941 157.051 284.315 158.167 285.251C159.469 286.562 161.701 286.187 162.073 284.877C163.003 282.256 162.817 277.202 163.375 271.773C163.375 271.773 159.283 273.645 159.283 275.33Z" fill="#A66716"/>
<path d="M147.936 243.694C147.192 243.507 146.262 246.315 145.704 248.561C145.704 248.561 148.68 249.497 149.052 249.123C149.424 248.749 148.68 243.882 147.936 243.694Z" fill="#A66716"/>
<path d="M195.001 252.866C194.815 253.053 194.443 253.614 194.257 253.801C195.187 251.93 195.187 249.683 193.885 248.373C194.257 248.747 193.699 249.309 193.699 249.683C193.327 247.811 192.583 247.063 192.769 249.496C192.955 254.176 189.234 256.984 189.234 256.984C181.607 253.053 178.259 256.422 170.818 256.797C167.656 256.984 162.447 256.422 158.727 253.614C157.425 252.491 156.309 250.432 155.564 249.122C154.448 246.688 148.31 245.191 145.705 248.373C144.961 248.186 143.845 248.934 143.659 249.683C144.031 249.496 144.217 249.496 144.589 249.309C144.031 249.683 142.915 250.619 143.473 251.181C143.845 250.806 144.217 250.619 144.403 250.432C143.287 252.866 144.403 251.93 139.381 253.989C138.637 254.363 138.637 256.609 139.195 257.358C139.567 258.294 140.311 259.23 141.241 259.417C141.055 259.043 141.055 258.856 140.869 258.481C141.799 259.792 143.473 260.54 144.961 260.728C144.589 260.166 144.217 259.792 144.031 259.23C144.031 259.23 145.333 260.54 146.077 260.915C145.891 262.6 146.263 264.471 147.008 265.969C147.008 265.782 147.194 265.407 147.38 265.033C147.566 266.905 148.124 268.964 149.426 270.087C149.426 269.713 149.24 269.338 149.24 268.964C149.426 269.151 149.612 269.526 149.612 269.713C149.984 271.585 152.402 274.393 152.402 274.767C151.472 278.698 149.798 281.88 149.24 282.442C148.682 283.003 146.077 283.003 146.449 284.314C146.821 286.186 149.612 285.437 150.728 284.501C152.216 283.191 154.82 279.821 157.611 276.265C158.355 277.575 161.145 277.575 162.075 277.762C161.889 277.575 161.703 277.2 161.703 277.013C171.004 277.575 177.701 271.398 181.979 272.895C184.212 274.58 186.072 275.516 186.816 276.077C187.188 276.452 187.932 279.072 188.304 281.88C188.49 282.629 186.63 283.565 186.63 284.127C186.63 285.999 189.048 285.811 189.978 285.063C190.722 284.314 190.908 282.816 190.908 280.008C191.094 276.826 191.28 275.89 191.094 274.393C190.908 273.457 190.35 270.274 191.28 268.215C192.955 264.097 190.722 259.979 190.722 259.979C191.838 259.604 194.071 258.294 192.955 257.92C194.071 256.235 194.629 255.299 195.001 252.866Z" fill="#C47F25"/>
<path d="M139.008 253.613C140.124 253.426 141.24 253.051 141.24 253.613C141.054 255.111 139.752 255.859 139.194 255.672C138.45 255.298 138.078 253.8 139.008 253.613Z" fill="#694E2D"/>
<path d="M151.843 243.32C151.099 242.946 150.169 246.315 149.611 246.877C149.053 247.438 151.285 248.749 152.959 249.123C153.331 249.31 152.773 243.694 151.843 243.32Z" fill="#A66716"/>
<path d="M153.518 256.05C153.704 255.675 153.331 254.927 152.401 254.178C153.331 253.616 153.704 253.055 153.89 251.932C153.518 253.055 152.401 253.804 151.099 253.804C151.657 254.552 152.401 254.927 152.959 255.675C151.843 256.05 150.169 255.301 150.169 255.675C150.169 256.237 150.913 257.173 151.471 257.922C150.727 257.922 149.425 257.922 148.681 257.173C148.867 257.547 149.053 258.296 149.053 258.671C148.495 258.858 146.635 258.109 146.635 258.109C147.565 258.858 150.541 259.607 149.053 257.735C150.169 257.922 151.099 258.296 152.215 257.922C151.843 257.173 150.727 256.237 150.913 256.05C151.471 256.05 153.331 256.424 153.518 256.05Z" fill="#A66716"/>
<path d="M146.075 262.227C152.958 260.73 158.353 253.242 158.353 253.242C158.353 253.242 158.911 253.429 159.469 254.178C160.027 254.927 151.842 262.976 146.634 263.725C145.331 264.099 145.145 262.415 146.075 262.227Z" fill="#1B8A91"/>
</g>
<path d="M171.737 68.3018C180.916 54.5335 173.267 41.7852 182.956 31.2465C195.024 17.9882 205.223 30.7366 205.223 30.7366C215.081 45.5247 203.863 65.4122 207.092 69.1517C221.881 87.3394 160.858 84.7897 171.737 68.3018Z" fill="#051036"/>
<path d="M201.142 75.4428C206.411 73.0631 207.601 66.9439 206.411 66.604C202.502 65.2441 201.312 64.5642 200.972 63.0344C200.292 61.5046 201.652 57.2551 201.652 55.5554C201.312 55.3854 191.453 53.5156 191.113 53.5156C191.113 53.6856 191.113 60.6547 190.093 62.1845C188.394 64.5642 183.634 66.264 180.575 66.434C179.215 66.434 195.873 77.8225 201.142 75.4428Z" fill="#E7AD74"/>
<path d="M208.11 44.332C208.45 47.9016 207.43 50.2812 205.73 53.1709C205.05 54.3607 204.54 55.7206 204.03 56.2305C201.821 58.6102 199.781 58.6102 198.081 57.9303C195.021 56.7404 191.282 54.8707 189.582 53.1709C187.032 50.6212 186.013 49.0914 186.013 49.0914C185.163 49.9413 182.783 48.4115 182.443 45.1819C182.103 42.4622 185.333 44.162 184.993 41.7823C183.973 35.3232 186.353 27.8441 194.852 26.9942C204.2 26.1443 207.6 37.5329 208.11 44.332Z" fill="#F2B272"/>
<path d="M176.665 102.296C191.623 99.5763 176.495 50.1126 184.654 46.0331C187.034 44.8433 203.352 34.9845 202.842 33.6247C205.391 36.5143 208.281 45.1832 208.281 44.5033C209.131 50.2826 204.032 63.2009 204.712 67.2804C205.561 73.7396 208.281 77.1392 210.321 77.1392C208.791 76.6292 215.42 40.4238 208.451 31.245C204.882 26.4856 201.992 27.6755 201.822 26.4856C201.652 25.8057 200.972 22.9161 195.533 22.7461C181.424 23.596 177.005 32.6048 176.835 32.7748C171.226 41.7837 174.285 60.9912 165.617 75.4394C158.137 88.1878 172.926 102.976 176.665 102.296Z" fill="#051036"/>
<path d="M215.931 79.8587C216.611 89.2075 216.611 101.956 216.611 102.466C216.781 104.336 227.999 136.631 227.999 136.631C229.699 137.991 232.419 140.201 232.419 141.221C232.249 144.28 231.909 146.49 231.399 146.32C230.209 145.98 230.379 142.921 230.209 142.751C229.529 142.071 228.339 140.541 227.829 140.881C227.149 141.221 228.679 144.281 227.659 144.79C226.64 145.3 225.28 139.861 224.94 137.311C220.69 130.852 208.962 113.004 208.452 107.395C208.282 105.355 204.372 97.1965 204.712 85.128C204.882 72.8896 215.931 79.8587 215.931 79.8587Z" fill="#F2B272"/>
<path d="M211.342 67.9567C215.081 70.5064 218.481 79.8552 219.331 88.5241L204.713 91.2437C202.503 83.2548 201.993 79.8552 203.523 74.2459C204.883 68.6366 209.302 66.4269 211.342 67.9567Z" fill="#9B3610"/>
<path d="M194.853 126.097C185.164 131.707 192.643 175.221 191.283 176.921C189.413 179.3 185.334 184.06 184.144 189.159C181.764 198.848 174.285 229.444 173.435 234.203C173.096 235.903 179.725 238.453 180.915 234.373C182.104 229.784 196.892 197.148 201.482 182.19C204.542 172.161 209.811 155.843 210.831 134.256C211.341 121.168 197.912 124.397 194.853 126.097Z" fill="#E7AD74"/>
<path d="M180.576 240.663C183.806 242.192 186.865 241.513 186.695 240.663C186.355 239.643 181.936 236.413 181.086 235.223C180.576 234.543 177.007 237.603 173.777 233.014C173.607 232.674 172.417 235.393 172.757 236.073C173.097 237.603 179.046 239.983 180.576 240.663Z" fill="#6280F6"/>
<path d="M202.336 196.128C204.205 184.569 196.556 156.863 196.896 143.605C196.896 141.735 207.605 139.015 207.605 136.296C207.605 134.256 170.89 132.216 172.42 139.015C176.329 156.693 190.947 191.879 190.777 198.848C190.437 215.846 202.336 248.991 202.676 249.161C202.846 249.331 210.155 247.801 209.985 246.442C209.645 241.682 201.316 202.247 202.336 196.128Z" fill="#F2B272"/>
<path d="M215.083 247.464C202.674 250.184 205.224 253.244 203.184 252.394C202.844 252.224 201.825 248.484 202.335 248.314C205.904 246.954 209.304 245.255 210.664 245.765C211.683 246.104 217.293 246.954 215.083 247.464Z" fill="#6280F6"/>
<path d="M212.876 246.951C214.235 246.612 217.295 246.782 216.275 248.141C214.405 250.861 210.496 251.881 207.606 252.561C207.266 252.561 204.887 253.241 204.037 253.071C203.187 252.901 203.187 252.221 203.527 252.051C208.286 248.821 210.836 247.461 212.876 246.951Z" fill="#5069C9"/>
<path d="M214.742 183.549C195.875 177.94 178.197 190.858 163.749 180.15C159.839 177.26 165.109 150.404 169.868 136.295C174.627 122.187 179.897 114.538 180.407 107.229C180.917 99.92 172.248 73.5734 177.517 67.2842C178.367 66.2643 185.166 65.2444 187.206 64.3945C187.886 64.3945 197.065 74.5932 199.954 74.5932C200.974 74.5932 205.564 69.1539 204.204 65.9243C203.864 65.2444 209.643 67.2842 211.003 67.6241C213.383 75.2731 216.782 83.2621 214.572 90.2312C209.473 105.359 210.153 103.66 209.813 104.339C208.283 107.569 209.473 114.028 216.102 139.525C216.782 143.094 221.371 185.589 214.742 183.549Z" fill="#A53105"/>
<path opacity="0.3" d="M213.55 92.2645L209.64 103.823C209.64 103.993 209.47 104.163 209.47 104.163C207.77 100.253 196.722 97.0239 193.322 95.494C211.68 99.0636 213.72 91.2446 213.55 92.2645Z" fill="#2B2B2B"/>
<path d="M164.09 99.9174C164.09 99.2375 171.739 72.8909 174.799 70.5112C178.028 67.9615 186.017 73.2308 184.997 77.6502C183.977 81.8997 172.419 101.107 172.079 103.997C170.379 114.536 162.9 129.494 162.39 131.703C162.39 131.703 164.6 136.463 164.09 137.823C163.58 139.012 164.09 141.392 163.58 141.222C161.71 140.882 162.05 138.333 161.71 138.333C161.2 138.502 160.69 141.562 161.37 142.242C162.05 142.922 158.651 142.922 157.461 142.412C156.781 142.072 155.421 138.333 156.271 136.463C156.951 135.103 159.841 110.456 164.09 99.9174Z" fill="#F2B272"/>
<path d="M177.689 67.4487C184.658 65.5789 186.868 75.0977 186.698 77.4774C186.358 82.2368 181.769 90.2258 179.899 92.9455L166.641 87.3362C167.83 79.5172 172.76 68.8085 177.689 67.4487Z" fill="#9B3610"/>
<path d="M252.645 245.247C255.535 247.117 258.764 246.947 258.594 245.927C258.424 244.737 254.515 241.167 253.665 239.807C253.155 238.958 249.246 241.677 246.696 236.748C246.526 236.408 245.166 238.788 245.336 239.637C245.506 241.167 251.115 244.397 252.645 245.247Z" fill="#EB4700"/>
<path d="M263.521 126.263C253.833 131.873 264.031 175.387 262.672 177.257C260.802 179.637 259.272 186.946 256.892 192.385C253.153 201.394 247.544 228.93 245.674 236.239C245.164 237.939 252.813 244.398 255.023 240.659C257.232 236.749 271.68 199.014 276.1 183.886C279.16 173.857 284.599 154.14 285.449 132.723C286.129 119.804 266.581 124.564 263.521 126.263Z" fill="#5069C9"/>
<path d="M292.591 243.384C280.353 246.953 283.072 249.843 281.032 248.993C280.692 248.823 279.333 245.254 279.843 245.084C283.242 243.554 286.642 241.514 288.002 241.854C289.021 242.194 294.631 242.704 292.591 243.384Z" fill="#EB4700"/>
<path d="M290.21 243.043C291.57 242.533 294.63 242.533 293.78 244.063C292.08 246.953 288.341 248.143 285.451 249.162C285.111 249.332 282.731 250.012 281.881 249.842C281.032 249.672 281.032 248.992 281.372 248.823C285.961 245.253 288.341 243.893 290.21 243.043Z" fill="#B43916"/>
<path d="M289.703 242.192C282.564 242.872 280.014 247.971 279.164 247.462C277.125 246.102 266.076 213.466 265.226 196.468C264.886 189.669 247.718 155.163 242.789 138.165C240.749 131.536 277.465 131.026 277.635 133.066C277.805 135.786 270.496 137.146 270.496 139.015C271.005 152.104 279.334 179.47 278.314 191.199C277.635 197.488 293.443 241.852 289.703 242.192Z" fill="#6280F6"/>
<path opacity="0.3" d="M271.344 147.515C267.945 149.215 254.177 150.064 246.867 150.064C245.338 146.155 243.978 142.415 242.958 139.186C243.468 137.826 271.854 147.175 271.344 147.515Z" fill="#2B2B2B"/>
<path d="M295.479 81.0528C298.029 86.1521 299.899 102.98 299.899 103.32C299.899 105.19 306.698 137.826 306.698 137.826C308.228 139.355 310.608 145.305 310.438 146.324C309.928 149.384 309.418 151.594 308.908 151.424C307.718 150.914 308.228 148.024 308.058 147.684C307.378 146.834 306.528 145.305 305.848 145.475C305.168 145.645 306.358 148.874 305.168 149.384C304.148 149.724 303.129 142.585 303.299 139.865C299.729 133.066 287.661 110.459 286.471 104.85C286.131 102.81 281.201 92.2714 282.731 80.2029C284.261 68.1344 292.93 75.9534 295.479 81.0528Z" fill="#D6802B"/>
<path d="M286.813 63.8843C292.252 65.9241 298.372 83.9418 300.071 92.4407L281.884 97.3701C278.484 89.721 275.085 77.8226 276.614 72.2133C278.144 66.434 283.923 62.8645 286.813 63.8843Z" fill="#504D63"/>
<path d="M266.586 71.5325C275.935 71.5325 282.734 61.3338 282.734 61.3338C282.734 61.3338 277.295 59.464 274.745 57.9342C272.706 56.7444 273.045 50.7951 272.705 45.5258L261.317 44.3359C260.977 57.2543 259.277 57.2543 252.478 60.1439C252.138 60.3139 262.337 71.5325 266.586 71.5325Z" fill="#C6792E"/>
<path d="M281.203 41.782C281.203 42.8019 279.333 46.5414 277.634 49.941C276.104 52.8306 275.084 55.7202 271.854 55.8902C264.885 56.4001 257.236 47.3913 256.896 42.6319C256.896 42.4619 256.726 42.2919 256.556 42.122C255.876 41.782 254.177 41.612 253.667 38.0425C252.817 31.5833 258.426 36.0027 258.596 35.1528C258.936 32.7731 257.576 28.1837 259.616 25.6341C264.205 19.5148 276.444 23.4243 278.314 25.974C279.163 27.1639 280.013 30.7334 280.183 31.9233C280.353 32.9431 280.013 35.1528 280.523 36.8526C281.033 38.8924 281.203 40.4222 281.203 41.782Z" fill="#D6802B"/>
<path d="M279.847 20.0287C278.997 13.9095 268.968 10.6799 264.039 10C266.418 11.6998 266.078 13.5695 264.549 14.9294C262.849 15.2693 261.319 16.1192 260.129 17.3091C255.71 18.4989 252.99 20.1987 252.65 21.0486C250.61 26.1479 253.84 39.5762 253.84 38.3864C254.18 34.9868 255.37 34.1369 255.88 34.9868C257.07 36.8566 258.259 38.3864 258.259 38.8963C258.259 39.4063 259.789 41.9559 260.469 41.786C260.809 41.786 260.809 36.6866 260.469 33.9669C260.129 31.2473 258.769 28.5276 260.299 25.638C260.639 25.468 275.257 31.7572 277.637 29.8875C280.017 28.0177 277.637 33.287 280.187 35.6667C280.357 34.8168 281.716 31.0773 281.716 30.0574C282.226 26.3179 279.677 20.0287 279.847 20.0287Z" fill="#342618"/>
<path d="M273.896 35.4991C272.536 35.3292 269.987 35.6691 268.457 35.8391C266.417 33.9693 262.678 34.3093 261.318 36.689C259.618 35.6691 255.029 32.9495 254.519 34.1393C253.839 35.4991 254.349 35.8391 254.349 35.8391C254.349 35.8391 255.198 33.1194 260.978 37.3689C260.298 39.5786 261.488 42.6382 264.717 42.6382C267.777 42.6382 271.346 39.5786 269.137 36.519C270.157 36.519 272.026 36.519 273.216 36.349C271.516 39.4086 275.596 41.7883 278.146 41.7883C280.525 41.7883 281.375 39.9186 281.375 37.8788C281.375 34.4793 276.616 32.9495 273.896 35.4991Z" fill="#2B2B2B"/>
<path d="M239.557 144.958C237.518 148.358 289.531 150.738 289.531 145.638C289.531 143.429 286.811 121.671 287.321 110.793C287.661 104.504 292.761 82.0665 288.001 65.5786C287.491 63.7088 281.032 60.4792 277.973 59.7993C277.973 59.7993 273.043 70.508 270.154 69.4881C267.264 68.4682 257.235 58.2695 257.235 58.2695C251.966 58.7795 244.827 60.9892 242.617 64.0488C240.067 67.7883 248.736 130.51 239.557 144.958Z" fill="#504D63"/>
<path d="M227.83 138.169C227.49 134.43 225.28 106.723 227.32 101.794C228.34 100.094 239.219 66.6084 244.148 64.7387C249.077 62.8689 256.726 67.4583 256.046 73.5776C255.366 79.6968 240.578 103.324 239.728 106.043L231.909 138.509H232.079C232.589 139.699 234.969 142.079 234.629 143.269C234.289 144.289 234.799 146.158 234.289 146.158C232.759 146.158 233.609 143.439 233.269 143.609C232.759 143.779 233.099 145.818 233.099 146.838C233.099 147.688 229.53 147.178 228.51 146.838C228 146.668 226.81 145.138 227.15 143.269C227.83 141.229 227.66 139.019 227.83 138.169Z" fill="#D6802B"/>
<path d="M247.547 60.9961C247.547 60.9961 258.936 64.0557 258.596 72.3846C258.426 76.8041 251.797 94.6518 247.887 96.5216L231.06 87.0028C233.609 78.6738 237.349 63.3758 247.547 60.9961Z" fill="#504D63"/>
<defs>
<clipPath id="clip0">
<rect x="30" y="58" width="165" height="228" fill="white"/>
</clipPath>
</defs>
</svg>
