<svg xmlns="http://www.w3.org/2000/svg" width="195" height="187" viewBox="0 0 195 187" fill="none"><mask id="mask0" maskUnits="userSpaceOnUse" x="0" y="0" width="195" height="187"><rect width="195" height="187" fill="white"></rect></mask><g mask="url(#mask0)"><path fill-rule="evenodd" clip-rule="evenodd" d="M0.114343 98.9753C-2.50807 70.64 0.158109 38.382 24.044 22.0275C47.3546 6.06692 78.5309 19.6811 107.178 25.6698C137.473 32.0031 175.24 30.4334 189.775 56.6742C204.503 83.2626 187.959 114.975 169.681 138.509C155.261 157.074 129.922 160.181 105.889 164.682C82.3723 169.086 57.5835 176.044 37.1217 163.333C14.4368 149.241 2.46115 124.333 0.114343 98.9753Z" fill="#D2F8FD"></path><mask id="mask1" maskUnits="userSpaceOnUse" x="-1" y="10" width="197" height="161"><path fill-rule="evenodd" clip-rule="evenodd" d="M0.113366 98.9752C-2.50904 70.64 0.157133 38.382 24.043 22.0275C47.3537 6.06692 89.8531 9.51127 118.5 15.5C148.795 21.8333 188.001 19.5 189.774 56.6742C204.502 83.2626 187.958 114.975 169.68 138.509C155.26 157.074 129.921 160.181 105.888 164.682C82.3714 169.086 57.5825 176.044 37.1208 163.333C14.4358 149.241 2.46017 124.333 0.113366 98.9752Z" fill="#D2F8FD"></path></mask><g mask="url(#mask1)"><path d="M177.395 33.8569C174.569 33.9196 172.338 36.1876 169.793 44.1655C168.672 47.5939 167.53 52.1513 164.73 54.6858C159.196 59.9685 153.951 49.1621 151.686 45.4985C147.155 38.1714 141.076 26.6358 133.963 21.4962C132.918 20.6906 130.23 20.8984 129.907 23.1487C129.504 25.891 134.065 31.5245 135.509 33.7532C138.049 37.848 141.148 42.2408 143.057 46.1062C143.671 47.3235 143.214 49.1464 140.844 47.3862C133.949 41.8997 126.517 30.962 119.191 25.8871C118.215 25.154 116.189 23.8975 114.677 25.4794C113.525 26.7183 113.926 28.0002 114.614 29.0077C118.464 34.9039 127.703 43.562 132.272 48.7721C132.896 49.4248 136.838 54.1234 134.946 53.2942C132.142 52.0868 127.093 46.0867 124.653 44.2539C121.798 41.986 118.911 37.5286 115.476 36.0918C112.952 35.0333 111.638 37.3973 112.521 39.3281C116.13 46.8414 124.912 53.4393 130.742 59.2493C132.339 60.7762 130.185 62.6933 128.716 61.8759C125.848 60.3137 123.057 58.4005 120.117 56.9069C118.654 55.8072 114.037 53.2786 113.092 54.7351C112.007 56.1876 113.188 57.2794 113.951 58.0772C118.319 62.6463 123.837 66.1177 128.421 70.4811C133.354 75.0659 138.007 79.5018 143.733 83.1908C149.387 86.9484 155.403 90.2219 160.403 95.0204C163.597 98.0743 183.955 118.504 186.788 122.043C194.618 122.613 196.98 108.2 199.597 100.154C193.086 95.2091 189.231 91.1093 186.655 89.0978C181.778 85.2911 174.797 80.17 172.647 74.0386C171.64 71.116 172.885 68.6795 173.783 65.8803C175.127 61.8227 175.092 55.8912 176.085 51.7533C177.078 47.6154 178.402 44.6869 178.763 40.3196C178.89 37.1461 178.738 33.8236 177.395 33.8569Z" fill="#FABB87"></path><path d="M157.047 60.5009C156.881 61.9074 156.997 63.3218 157.326 64.6716C157.654 66.0214 158.055 67.3026 158.738 68.5916C159.28 69.8767 159.965 71.0247 160.72 72.2451C161.475 73.4656 162.232 74.545 163.059 75.6969C162.088 74.6822 161.19 73.5988 160.363 72.4469C159.537 71.295 158.923 70.0785 158.312 68.7209C157.77 67.4358 157.3 66.0821 157.043 64.6638C156.786 63.2455 156.67 61.831 157.047 60.5009Z" fill="#FA9D62"></path><path d="M136.51 66.4745C137.938 65.9462 139.157 65.1989 140.309 64.2368C141.391 63.2018 142.404 62.0937 143.206 60.9088C144.95 58.543 146.277 55.7395 147.601 53.0779C147.15 54.4856 146.558 55.8893 145.896 57.2201C145.234 58.5509 144.43 59.8777 143.556 61.1316C142.683 62.3855 141.67 63.4935 140.518 64.4557C139.366 65.4178 137.933 66.2301 136.51 66.4745Z" fill="#FA9D62"></path><path d="M117.742 60.9089C118.036 60.3492 118.258 59.8584 118.621 59.3715C118.984 58.8847 119.347 58.3978 119.78 57.9839C119.698 58.6205 119.335 59.1074 119.041 59.6672C118.75 60.085 118.245 60.5679 117.742 60.9089Z" fill="#FA9D62"></path><path d="M123.386 64.7822C123.463 64.4292 123.61 64.1492 123.757 63.8692C123.904 63.5892 124.123 63.2402 124.339 63.0332C124.556 62.8262 124.775 62.4772 124.991 62.2701C125.208 62.0631 125.497 61.7871 125.783 61.653C125.417 62.282 125.053 62.769 124.618 63.325C124.327 63.743 123.891 64.2991 123.386 64.7822Z" fill="#FA9D62"></path><path d="M116.654 42.7031C117.226 42.4351 117.729 42.0941 118.231 41.7532C118.733 41.4122 119.166 40.9983 119.599 40.5844C119.375 41.2171 119.012 41.7039 118.437 42.1138C117.935 42.4548 117.291 42.7918 116.654 42.7031Z" fill="#FA9D62"></path><path d="M127.016 54.11C127.174 53.2622 127.612 52.5643 128.119 51.9393C128.627 51.3142 129.204 50.7622 129.921 50.356C129.483 51.054 128.905 51.606 128.398 52.2311C127.962 52.7871 127.524 53.485 127.016 54.11Z" fill="#FA9D62"></path><path d="M131.857 46.1526C132.226 45.3813 132.806 44.6869 133.453 44.2075C134.172 43.6591 134.889 43.2527 135.675 42.9193C135.026 43.5407 134.379 44.0201 133.731 44.4994C133.084 44.9788 132.435 45.6002 131.857 46.1526Z" fill="#FA9D62"></path><path d="M133.856 29.1426C134.641 28.8097 135.355 28.5458 136.068 28.2819C136.426 28.0791 136.712 27.9451 137.07 27.7423C137.428 27.5394 137.717 27.2637 137.935 26.9151C137.709 27.6891 137.06 28.3095 136.275 28.6423C135.489 28.9752 134.706 29.1662 133.856 29.1426Z" fill="#FA9D62"></path><path d="M119.681 33.7148C120.328 33.2357 121.044 32.8295 121.619 32.4194C121.908 32.1434 122.196 31.8674 122.413 31.6603C122.701 31.3843 122.92 31.0353 123.067 30.7553C122.982 31.5341 122.472 32.3011 121.825 32.7802C121.251 33.1904 120.464 33.5236 119.681 33.7148Z" fill="#FA9D62"></path><path d="M141.865 41.2694C142.156 40.8523 142.516 40.5079 142.874 40.3052C143.304 40.0337 143.731 39.9038 144.23 39.705C145.085 39.4453 146.079 39.3311 147.067 39.5004C146.213 39.7601 145.219 39.8743 144.364 40.134C143.44 40.321 142.655 40.6535 141.865 41.2694Z" fill="#FA9D62"></path><path d="M178.429 42.0144C178.429 42.0144 175.005 39.7271 177.631 35.2742C177.631 35.2742 179.016 32.9791 178.86 37.7127C178.912 38.7748 178.429 42.0144 178.429 42.0144Z" fill="#F2D2C2"></path></g><path d="M86.3604 81.5422C86.3604 79.7312 86.6999 78.0334 87.4922 76.3356L92.812 64.2246H61.7988L86.3604 88.7861V81.5422Z" fill="#FF3D3D"></path><path d="M92.8122 142.778H16.6375L21.9572 130.667C22.6364 129.083 23.0891 127.272 23.0891 125.461V81.4309C23.0891 79.6199 22.7495 77.9221 21.9572 76.2243L16.6375 64.1133H61.799L73.7968 76.1111L86.3605 88.6748V125.347C86.3605 127.158 86.7001 128.856 87.4924 130.554L92.8122 142.778Z" fill="#61B6F2"></path><path d="M36.7842 81.5422V125.572C36.7842 127.383 36.4446 129.081 35.6523 130.778L30.3326 142.889H16.637L21.9567 130.778C22.6359 129.194 23.0886 127.383 23.0886 125.572V81.5422C23.0886 79.7312 22.7491 78.0334 21.9567 76.3356L16.637 64.2246H30.3326L35.6523 76.3356C36.4446 77.9202 36.7842 79.7312 36.7842 81.5422Z" fill="#B0E2FC"></path><path d="M92.8113 142.776H79.1157L73.7959 130.665C73.1168 129.081 72.6641 127.27 72.6641 125.459V81.4292C72.6641 79.6182 73.0036 77.9204 73.7959 76.2226V76.1094L86.3597 88.6731V125.346C86.3597 127.157 86.6992 128.854 87.4915 130.552L92.8113 142.776Z" fill="#299AEA"></path><path d="M92.8117 58H16.637V64.2253H92.8117V58Z" fill="#1379DA"></path><path d="M92.8117 142.777H16.637V149.003H92.8117V142.777Z" fill="#1379DA"></path><path d="M60.605 108.674C68.5173 105.396 72.2746 96.3252 68.9971 88.4129C65.7197 80.5006 56.6485 76.7433 48.7362 80.0207C40.8239 83.2982 37.0666 92.3693 40.344 100.282C43.6215 108.194 52.6926 111.951 60.605 108.674Z" fill="#FFE600"></path><path d="M54.6673 105.649C60.9184 105.649 65.986 100.582 65.986 94.3304C65.986 88.0793 60.9184 83.0117 54.6673 83.0117C48.4162 83.0117 43.3486 88.0793 43.3486 94.3304C43.3486 100.582 48.4162 105.649 54.6673 105.649Z" fill="white"></path><path d="M75.8327 102.822H44.5931C43.3481 102.822 42.4426 103.615 42.4426 104.746V109.274C41.7634 109.274 41.1975 109.84 41.1975 110.406C41.1975 111.085 41.7634 111.538 42.5557 111.538H75.8327V102.822Z" fill="#E92B40"></path><path d="M47.1971 100.219V108.142C47.1971 107.463 46.6311 107.01 45.8388 107.01H36.6707H22.9751V98.2949H44.9333C46.1784 98.2949 47.1971 99.2004 47.1971 100.219Z" fill="#FF3D3D"></path><path d="M45.8382 107.008H41.1975V110.403C41.1975 109.724 41.7634 109.272 42.5557 109.272H45.8382C46.5173 109.272 47.1964 108.706 47.1964 108.14C47.1964 107.461 46.6305 107.008 45.8382 107.008Z" fill="#D40000"></path><path d="M78.2102 103.276C78.097 103.276 78.097 103.276 77.9839 103.163C74.9278 101.352 71.9849 105.426 68.4761 110.859C65.1937 111.765 61.119 114.821 56.4784 117.651C49.1212 122.178 43.3487 124.555 45.386 129.082C45.4992 129.309 45.6124 129.648 45.8388 129.875C49.008 134.968 60.1003 140.741 67.797 135.987C69.7212 134.742 71.3058 133.044 72.4377 131.007C75.2674 129.875 77.9838 128.064 79.7948 125.234C84.8882 117.651 82.1718 105.879 78.2102 103.276Z" fill="#1379DA"></path><path d="M76.9658 100.558C76.8526 100.558 76.8526 100.558 76.7394 100.445C79.7954 104.633 81.2669 114.254 76.9658 120.932C72.0987 128.289 61.9119 129.082 57.6108 126.705C57.8372 127.271 58.29 127.723 58.8559 128.063C62.8174 130.666 73.6834 130.1 78.6636 122.517C83.6438 114.933 81.0405 103.275 76.9658 100.558Z" fill="#FFE21F"></path><path d="M76.9656 120.933C81.2667 114.368 79.7953 104.634 76.7393 100.446C72.7777 98.1821 69.0426 105.539 64.1755 113.01C59.9876 119.461 56.2525 123.875 57.6107 126.705C61.9118 129.082 72.2118 128.29 76.9656 120.933Z" fill="#FFC51E"></path><path d="M72.664 109.954C72.3245 109.388 71.9849 109.049 71.5322 108.709C73.7959 114.482 72.0981 126.479 64.9673 130.894C58.0629 135.195 48.4421 131.007 44.2542 126.366C44.3673 126.592 44.4805 126.932 44.7069 127.158C47.8761 132.252 58.9684 138.024 66.6651 133.271C74.3618 128.517 75.8333 115.047 72.664 109.954Z" fill="#FFEF81"></path><path d="M64.9674 130.892C72.2114 126.478 73.9092 114.367 71.5322 108.707C68.1366 105.991 62.2509 110.745 55.3465 115.046C47.9894 119.573 42.2168 121.95 44.2542 126.478C48.4421 131.005 58.063 135.193 64.9674 130.892Z" fill="#FFE21F"></path><path d="M66.0997 121.047C66.8498 121.047 67.4579 120.438 67.4579 119.688C67.4579 118.938 66.8498 118.33 66.0997 118.33C65.3496 118.33 64.7415 118.938 64.7415 119.688C64.7415 120.438 65.3496 121.047 66.0997 121.047Z" fill="#FFC51E"></path><path d="M52.9702 123.309C53.9703 123.309 54.7812 122.499 54.7812 121.498C54.7812 120.498 53.9703 119.688 52.9702 119.688C51.97 119.688 51.1592 120.498 51.1592 121.498C51.1592 122.499 51.97 123.309 52.9702 123.309Z" fill="#FFC51E"></path><path d="M65.1932 113.69C65.1932 114.369 64.6273 114.935 63.9482 114.935C63.269 114.935 62.7031 114.369 62.7031 113.69C62.7031 113.011 63.269 112.445 63.9482 112.445C64.6273 112.445 65.1932 113.011 65.1932 113.69Z" fill="#FFC51E"></path><path d="M56.1385 128.288C56.1385 128.967 55.5726 129.533 54.8935 129.533C54.2144 129.533 53.6484 128.967 53.6484 128.288C53.6484 127.609 54.2144 127.043 54.8935 127.043C55.5726 127.043 56.1385 127.609 56.1385 128.288Z" fill="#FFC51E"></path><path d="M63.9489 125.799C63.9489 127.044 62.9302 128.063 61.6851 128.063C60.4401 128.063 59.4214 127.044 59.4214 125.799C59.4214 124.554 60.4401 123.535 61.6851 123.535C63.0434 123.535 63.9489 124.554 63.9489 125.799Z" fill="#FFC51E"></path><g clip-path="url(#clip0)"><path d="M125.744 90.8242C109.727 90.8242 96.6606 103.949 96.6606 120.038C96.6606 136.127 109.727 149.252 125.744 149.252C141.76 149.252 154.827 136.127 154.827 120.038C154.827 103.949 141.76 90.8242 125.744 90.8242ZM125.744 133.304C118.438 133.304 112.396 127.377 112.396 119.897C112.396 112.558 118.297 106.49 125.744 106.49C133.05 106.49 139.091 112.417 139.091 119.897C138.95 127.377 133.05 133.304 125.744 133.304Z" fill="#F3AA43"></path><path d="M150.612 120.18C150.612 117.075 149.91 113.97 148.786 111.148C148.083 109.595 147.381 108.043 146.397 106.632C144.711 104.091 142.604 101.833 140.075 100.14C138.248 98.8695 136.422 97.8816 134.315 97.0348C131.645 96.0469 128.695 95.4824 125.744 95.4824C115.488 95.4824 106.637 101.692 102.843 110.583C102 112.559 101.438 114.676 101.017 116.934C100.876 118.063 100.736 119.192 100.736 120.462C100.736 122.438 101.017 124.273 101.298 126.107C101.719 127.801 102.281 129.494 102.984 130.906C104.248 133.728 106.075 136.269 108.182 138.386C109.587 139.797 111.132 140.926 112.818 141.914C115.347 143.466 118.157 144.454 121.108 145.019C122.513 145.301 124.058 145.442 125.463 145.442C134.174 145.442 141.761 140.926 146.257 134.152C147.943 131.753 149.067 128.93 149.769 125.966C150.191 124.132 150.331 122.297 150.331 120.462C150.612 120.321 150.612 120.321 150.612 120.18ZM126.306 137.115C125.744 137.115 125.042 137.115 124.48 136.974C121.951 136.692 119.562 135.704 117.595 134.434C115.066 132.74 112.959 130.2 111.835 127.236C111.273 125.684 110.851 123.849 110.711 122.156C110.711 121.874 110.711 121.732 110.711 121.45C110.711 117.499 112.116 113.97 114.504 111.289C117.314 107.902 121.67 105.785 126.447 105.785C126.728 105.785 127.009 105.785 127.29 105.785C131.364 106.067 135.017 107.761 137.687 110.583C138.951 111.853 139.934 113.265 140.637 114.958C141.62 116.934 142.042 119.192 142.042 121.591C142.042 122.438 141.901 123.285 141.761 124.132C141.339 126.672 140.356 128.93 138.81 130.906C136.001 134.575 131.364 137.115 126.306 137.115Z" fill="#F2F2F2"></path><path d="M140.074 100.139L127.149 105.785C126.868 105.785 126.587 105.785 126.306 105.785C121.529 105.785 117.314 107.902 114.363 111.289L101.016 117.075C101.297 114.817 101.859 112.7 102.843 110.724L134.314 97.1758C136.422 97.7403 138.389 98.8693 140.074 100.139Z" fill="#D16241"></path><path d="M110.71 122.014C110.71 123.848 111.132 125.542 111.834 127.094L103.123 130.905C102.421 129.352 101.859 127.8 101.438 126.106L110.71 122.014Z" fill="#D16241"></path><path d="M148.785 111.147L140.496 114.816C139.793 113.264 138.81 111.711 137.545 110.441L146.397 106.631C147.38 108.042 148.223 109.595 148.785 111.147Z" fill="#D16241"></path><path d="M117.594 134.432C119.561 135.843 121.95 136.69 124.479 136.972L112.958 141.911C111.272 140.924 109.727 139.653 108.322 138.383L117.594 134.432Z" fill="#D16241"></path><path d="M150.612 120.462C150.612 122.297 150.472 124.272 150.05 125.966L138.81 130.764C140.356 128.789 141.339 126.53 141.761 123.99L150.612 120.18C150.612 120.321 150.612 120.321 150.612 120.462Z" fill="#D16241"></path><path d="M146.537 134.15C142.041 140.925 134.454 145.441 125.743 145.441C124.198 145.441 122.793 145.3 121.388 145.017L146.537 134.15Z" fill="#D16241"></path><path d="M117.713 139.461C117.713 142.594 114.789 144.943 111.28 144.943H79.8962C76.1924 144.943 73.2684 142.398 73.2684 139.461L68.2002 113.418C68.2002 110.285 71.1242 107.936 74.8279 107.936H116.349C120.052 107.936 122.976 110.481 122.976 113.418L117.713 139.461Z" fill="#EA6742"></path><path d="M98.8049 137.307C98.8049 139.265 97.2454 141.027 95.1012 141.027C93.1519 141.027 91.3975 139.461 91.3975 137.307V111.656C91.3975 109.698 92.9569 107.936 95.1012 107.936C97.0505 107.936 98.8049 109.502 98.8049 111.656V137.307Z" fill="#E3483F"></path><path d="M111.475 137.697C111.085 139.655 109.331 141.026 107.382 140.83C105.432 140.438 104.068 138.676 104.263 136.718L107.966 111.263C108.356 109.305 110.111 107.934 112.06 108.13C114.009 108.522 115.374 110.284 115.179 112.242L111.475 137.697Z" fill="#E3483F"></path><path d="M78.7264 137.697C79.1163 139.655 80.8707 141.026 82.82 140.83C84.7693 140.438 86.1339 138.676 85.9389 136.718L82.2352 111.263C81.8453 109.305 80.0909 107.934 78.1416 108.13C76.1923 108.522 74.8277 110.284 75.0227 112.242L78.7264 137.697Z" fill="#E3483F"></path><path d="M128.239 101.279C128.239 107.153 123.366 112.049 117.518 112.049C116.543 112.049 115.764 111.853 114.789 111.657C110.5 116.356 103.483 119.685 95.4905 119.685C87.4983 119.685 80.4807 116.552 76.1922 111.657C75.2175 111.853 74.2428 112.049 73.2682 112.049C67.4202 112.049 62.5469 107.153 62.5469 101.279C62.5469 100.3 62.7418 99.5168 62.9367 98.7336C64.1063 94.0342 68.1999 90.5096 73.2682 90.5096C74.0479 90.5096 74.8276 90.7054 75.6074 90.7054C79.8959 85.6144 87.1084 82.0898 95.4905 82.0898C103.678 82.0898 111.085 85.4186 115.179 90.7054C115.958 90.5096 116.543 90.5096 117.323 90.5096C122.391 90.5096 126.485 94.0342 127.654 98.7336C128.239 99.5168 128.239 100.496 128.239 101.279Z" fill="#FFC562"></path><path d="M88.8629 108.133C88.8629 110.679 86.7186 112.832 84.1845 112.832C81.6504 112.832 79.5061 110.679 79.5061 108.133C79.5061 105.587 81.6504 103.434 84.1845 103.434C86.9136 103.434 88.8629 105.392 88.8629 108.133Z" fill="#9D6C4E"></path><path d="M98.2196 95.2092C98.2196 97.7547 96.0753 99.9086 93.5412 99.9086C91.0071 99.9086 88.8628 97.7547 88.8628 95.2092C88.8628 92.6637 91.0071 90.5098 93.5412 90.5098C96.0753 90.5098 98.2196 92.6637 98.2196 95.2092Z" fill="#9D6C4E"></path><path d="M119.077 105.586C119.077 108.132 116.933 110.286 114.399 110.286C111.865 110.286 109.721 108.132 109.721 105.586C109.721 103.041 111.865 100.887 114.399 100.887C116.933 100.887 119.077 103.041 119.077 105.586Z" fill="#9D6C4E"></path><path d="M114.399 90.5099C114.399 93.0555 112.255 95.2094 109.72 95.2094C107.186 95.2094 105.042 93.0555 105.042 90.5099C105.042 87.9644 107.186 85.8105 109.72 85.8105C112.255 85.8105 114.399 87.9644 114.399 90.5099Z" fill="#9D6C4E"></path><path d="M81.2603 90.5099C81.2603 93.0555 79.1161 95.2094 76.582 95.2094C74.0478 95.2094 71.9036 93.0555 71.9036 90.5099C71.9036 87.9644 74.0478 85.8105 76.582 85.8105C79.1161 85.8105 81.2603 87.9644 81.2603 90.5099Z" fill="#9D6C4E"></path><path d="M83.5999 143.769C78.7266 142.398 71.904 141.615 64.3016 141.615C56.6992 141.615 49.8766 142.398 45.0032 143.769H37.011V148.86C37.011 152.972 49.0968 156.301 64.1067 156.301C79.1165 156.301 91.2023 152.972 91.2023 149.056V143.965H83.5999V143.769Z" fill="#E3972B"></path><path d="M91.2023 143.77C91.2023 147.882 79.1165 151.015 64.1067 151.015C49.0968 151.015 37.011 147.882 37.011 143.77C37.011 139.658 49.0968 136.525 64.1067 136.525C79.1165 136.525 91.2023 139.854 91.2023 143.77Z" fill="#FFC562"></path><path d="M53.5806 144.555C53.5806 145.338 52.8008 146.121 52.0211 146.121H48.1224C47.3427 146.121 46.563 145.338 46.563 144.555C46.563 143.772 47.3427 142.988 48.1224 142.988H52.0211C52.8008 142.988 53.5806 143.576 53.5806 144.555Z" fill="#9D6C4E"></path><path d="M67.81 140.442C67.81 141.421 67.0303 142.204 66.0556 142.204H60.4026C59.4279 142.204 58.6482 141.421 58.6482 140.442C58.6482 139.463 59.4279 138.68 60.4026 138.68H66.0556C66.8354 138.68 67.81 139.463 67.81 140.442Z" fill="#9D6C4E"></path><path d="M77.5574 146.121C77.5574 146.904 76.9726 147.492 76.1928 147.492H73.2688C72.4891 147.492 71.9043 146.904 71.9043 146.121C71.9043 145.338 72.4891 144.75 73.2688 144.75H76.1928C76.9726 144.555 77.5574 145.142 77.5574 146.121Z" fill="#9D6C4E"></path><path d="M64.8863 147.492C64.8863 148.275 64.3015 148.862 63.5217 148.862H61.5724C60.7927 148.862 60.0129 148.275 60.0129 147.492C60.0129 146.709 60.5977 146.121 61.5724 146.121H63.5217C64.3015 146.121 64.8863 146.709 64.8863 147.492Z" fill="#9D6C4E"></path><path d="M82.2353 141.421C82.2353 142.205 81.6505 142.792 80.8708 142.792H77.9468C77.1671 142.792 76.5823 142.205 76.5823 141.421C76.5823 140.638 77.1671 140.051 77.9468 140.051H80.6759C81.4556 140.051 82.2353 140.638 82.2353 141.421Z" fill="#9D6C4E"></path><path d="M112.06 154.54C109.331 155.91 88.4735 161.002 86.5241 161.002C84.9647 161.002 80.8711 159.827 84.1849 152.973C84.7697 151.799 85.5495 150.428 86.5241 148.861C93.7366 138.092 107.772 134.959 107.772 134.959C107.772 134.959 110.306 141.812 111.67 147.491C112.645 151.015 113.035 153.952 112.06 154.54Z" fill="#E3972B"></path><path d="M111.866 147.295C108.357 148.862 88.2786 153.561 86.5243 153.561C85.9395 153.561 84.9648 153.365 84.1851 152.778C84.7699 151.603 85.5496 150.233 86.5243 148.666C93.7368 137.897 107.772 134.764 107.772 134.764C107.772 134.764 110.501 141.813 111.866 147.295Z" fill="#FFC562"></path><path d="M134.283 154.54C137.012 155.911 157.87 161.002 159.819 161.002C161.378 161.002 165.472 159.827 162.158 152.974C161.573 151.799 160.794 150.428 159.819 148.862C152.412 138.092 138.376 134.764 138.376 134.764C138.376 134.764 135.842 141.617 134.478 147.295C133.503 151.016 133.113 153.953 134.283 154.54Z" fill="#E3972B"></path><path d="M134.478 147.295C137.986 148.862 158.064 153.561 159.819 153.561C160.404 153.561 161.378 153.365 162.158 152.778C161.573 151.603 160.793 150.233 159.819 148.666C152.411 138.092 138.376 134.764 138.376 134.764C138.376 134.764 135.842 141.813 134.478 147.295Z" fill="#FFC562"></path><path d="M141.69 141.029V147.687C141.69 152.778 137.597 156.694 132.723 156.694H114.01C108.942 156.694 105.043 152.582 105.043 147.687V141.029C105.043 140.833 105.043 140.833 105.043 140.638C105.238 135.742 109.137 131.826 114.01 131.826H132.723C137.597 131.826 141.69 135.742 141.69 140.638C141.69 140.638 141.69 140.833 141.69 141.029Z" fill="#FFC562"></path><path d="M141.69 140.638C141.69 141.617 141.495 142.596 141.105 143.379C139.936 146.903 136.427 149.449 132.528 149.449H113.815C109.916 149.449 106.602 146.903 105.238 143.379C104.848 142.596 104.848 141.617 104.653 140.638C104.848 135.742 108.746 131.826 113.62 131.826H132.333C137.596 131.826 141.69 135.742 141.69 140.638Z" fill="#FFD894"></path></g></g><path d="M80.8967 46.2793L79.5395 46.2538C79.6151 45.6953 79.6639 45.1753 79.6859 44.6938L79.6892 44.5181C79.6852 44.0361 79.6559 43.5147 79.6013 42.9536C80.212 43.0302 80.7775 43.0799 81.298 43.1026L91.0815 43.2859C91.5569 43.2818 92.0979 43.2529 92.7045 43.1991C92.6221 43.7706 92.5704 44.271 92.5494 44.7004L92.5461 44.8762C92.5501 45.3581 92.5829 45.8666 92.6445 46.4017L91.2775 46.3761C91.3591 45.8437 91.411 45.3367 91.433 44.8553L91.4434 44.2988L80.8203 44.0997L80.8088 44.7149C80.813 45.1838 80.8423 45.7052 80.8967 46.2793ZM79.7842 37.3604L79.8075 36.1204C80.4507 36.1975 81.0032 36.247 81.4651 36.2686L85.9273 36.3522C85.2893 35.6501 84.5431 34.9882 83.6887 34.3666L84.683 33.428C85.5357 34.1407 86.3556 34.8626 87.1429 35.5936L86.3862 36.3608L90.7506 36.4426C91.2977 36.4398 91.8224 36.4106 92.3248 36.3549L92.3016 37.5949C91.743 37.5193 91.2198 37.4672 90.732 37.4385L81.4465 37.2646C80.9579 37.2749 80.4038 37.3069 79.7842 37.3604ZM81.7524 38.1396C82.3631 38.2161 82.9091 38.2654 83.3906 38.2875L88.6338 38.3857C89.1352 38.3821 89.6893 38.3534 90.2958 38.2996C90.2133 38.8841 90.1615 39.3878 90.1406 39.8107L90.1237 40.709C90.1272 41.2169 90.16 41.7254 90.2221 42.2345C89.631 42.1583 89.0915 42.1091 88.6035 42.087L83.3212 41.988C82.8263 41.9918 82.2788 42.0206 81.6787 42.0744C81.7548 41.4898 81.8033 40.9828 81.8244 40.5535L81.8409 39.6747C81.8355 39.2644 81.806 38.7527 81.7524 38.1396ZM82.9723 39.2368L82.939 41.0139L89.0024 41.1275L89.0357 39.3504L82.9723 39.2368ZM81.6301 46.7521L81.6526 45.5511C82.2371 45.6337 82.7701 45.686 83.2515 45.7081L88.9146 45.8142C89.364 45.8095 89.8692 45.7767 90.4304 45.7156L90.4079 46.9165C89.8623 46.8412 89.3586 46.7927 88.8967 46.771L87.0903 46.7372L87.0238 50.2912C87.0467 51.1512 86.8647 51.6557 86.4777 51.8047C86.1805 52.027 85.1913 52.1746 83.5099 52.2472C83.4275 51.7834 83.2392 51.2329 82.9451 50.5957C84.0681 50.7796 84.8249 50.8752 85.2155 50.8825C85.3066 50.8842 85.3881 50.8792 85.46 50.8675C85.7922 50.8607 85.9424 50.6617 85.9107 50.2704L85.9773 46.7163L83.2336 46.6649C82.8103 46.67 82.2758 46.6991 81.6301 46.7521ZM78.8584 33.6021L80.4071 34.3539C80.5491 34.4217 80.6131 34.4815 80.5991 34.5334C80.5978 34.5985 80.5186 34.6556 80.3614 34.7047C80.093 34.7843 79.8405 35.0531 79.604 35.511C79.4621 35.7883 79.2253 36.2592 78.8938 36.9237C78.6165 37.4785 78.4237 37.8623 78.3155 38.0752L78.081 50.5925C78.0856 51.0419 78.1139 51.6155 78.166 52.3132L76.8088 52.2877C76.886 51.6445 76.9357 51.0725 76.9581 50.5715L77.1557 40.0265C76.5238 41.0825 75.9204 42.0121 75.3453 42.8153C74.9087 42.4881 74.3929 42.2114 73.7981 41.9854C75.9163 40.1432 77.6031 37.3488 78.8584 33.6021ZM95.5683 50.3927L97.7066 50.4328L97.8932 40.4736C97.9169 39.901 97.8886 39.3275 97.8082 38.753L99.3763 38.9874C99.5256 39.0163 99.5996 39.0633 99.5984 39.1283C99.5969 39.2065 99.5268 39.2996 99.388 39.4077C99.1759 39.6055 99.0519 39.9679 99.016 40.4946L98.8294 50.4538L103.223 50.5361L103.493 36.1441C103.516 35.6106 103.487 35.0436 103.407 34.443L105.103 34.6701C105.278 34.6864 105.372 34.737 105.383 34.8219C105.382 34.887 105.292 34.9765 105.114 35.0903C104.804 35.3124 104.638 35.6707 104.616 36.1652L104.529 40.803L108.825 40.8835C109.202 40.9036 109.636 40.8727 110.126 40.7907L110.102 42.0698C109.583 41.9624 109.157 41.9121 108.825 41.9189L104.509 41.838L104.346 50.5572L110.761 50.6774C111.041 50.6956 111.442 50.6641 111.964 50.5827L111.94 51.8618C111.447 51.7614 111.041 51.7147 110.722 51.7217L95.5878 51.4382C95.1454 51.4169 94.7248 51.4481 94.326 51.5318L94.35 50.2527C94.7714 50.3517 95.1775 50.3984 95.5683 50.3927Z" fill="#BF2828"></path><defs><clipPath id="clip0"><rect width="140.352" height="92.8132" fill="white" transform="translate(37.011 68.1875)"></rect></clipPath></defs></svg>