<svg width="270" height="256" viewBox="0 0 270 256" fill="none" xmlns="http://www.w3.org/2000/svg">
<path fill-rule="evenodd" clip-rule="evenodd" d="M148.533 6.71666C177.143 0.485407 212.633 -7.03497 233.999 12.977C255.609 33.2171 240.107 69.8116 246.706 98.6672C252.417 123.64 271.551 144.399 269.899 169.962C267.95 200.115 263.532 237.86 236.798 251.97C209.581 266.334 179.224 236.328 148.533 234.016C121.519 231.982 94.7936 248.88 69.4306 239.365C40.0658 228.35 6.37962 209.387 0.696783 178.558C-5.03403 147.468 25.9679 122.897 43.0585 96.296C55.4481 77.012 68.957 59.9571 86.4302 45.1171C105.445 28.9678 124.152 12.0267 148.533 6.71666Z" fill="#F9F9F9"/>
<path d="M187.679 194.634C183.714 191.686 182.112 188.096 184.634 183.377C199.032 160.65 196.34 133.664 177.25 109.697C175.623 107.663 173.629 105.87 172.273 103.675C170.416 100.671 169.827 97.3493 172.929 94.6719C176.032 91.9946 179.331 92.689 181.845 95.3665C204.1 119.056 216.372 154.833 197.667 187.223C196.664 189.021 190.532 194.182 187.679 194.634Z" fill="#FEB4B4"/>
<path d="M159.97 238.731C159.307 238.735 158.651 238.601 158.043 238.336C156.873 237.827 155.954 236.874 155.486 235.687C155.019 234.499 155.043 233.175 155.552 232.004C177.467 181.478 155.539 167.395 155.269 167.262C154.177 166.599 153.394 165.53 153.091 164.289C152.787 163.049 152.989 161.738 153.652 160.646C154.315 159.554 155.384 158.769 156.624 158.465C157.865 158.161 159.175 158.363 160.266 159.025C161.482 159.76 189.605 177.693 164.336 235.831C163.966 236.685 163.357 237.413 162.582 237.927C161.807 238.442 160.899 238.721 159.97 238.731Z" fill="#C1686A"/>
<path d="M156.547 232.179C184.997 214.49 206.659 235.085 196.394 238.43C196.394 238.43 147.867 245.535 156.547 232.179Z" fill="#C1686A"/>
<path d="M180.057 62.1222C210.476 118.417 179.495 204.031 112.676 192.618C64.4873 184.376 96.1246 117.993 100.259 123.025C98.2124 120.499 91.3447 118.574 91.3468 110.777C91.348 106.323 95.1689 103.941 95.8072 100.752C85.4073 85.617 73.5339 68.6613 78.7253 51.1875C89.829 13.7534 150.561 7.52619 180.057 62.1222Z" fill="#923D38"/>
<path d="M104.563 58.9999C106.986 60.315 111.23 57.044 111.665 61.7537C112.1 66.4633 107.437 64.2457 105.44 65.7748C104.057 66.8297 102.706 66.1536 101.583 65.0725C101.048 64.5806 100.691 63.9249 100.569 63.2084C100.447 62.4919 100.568 61.7552 100.911 61.1141C101.174 60.3899 101.684 59.7811 102.352 59.3945C103.02 59.0079 103.802 58.8682 104.563 58.9999Z" fill="#C86E56"/>
<path d="M135.611 28.4466C139.279 30.4367 145.7 25.4868 146.358 32.6138C147.016 39.7408 139.961 36.3849 136.939 38.6988C134.846 40.2952 132.801 39.2721 131.103 37.6361C130.292 36.8918 129.752 35.8995 129.568 34.8152C129.384 33.731 129.566 32.6161 130.085 31.6459C130.484 30.55 131.256 29.6287 132.266 29.0437C133.276 28.4587 134.46 28.2473 135.611 28.4466Z" fill="#C86E56"/>
<path d="M101.866 138.731C104.173 136.779 100.105 130.676 105.427 130.779C109.973 130.872 111.548 135.952 112.041 140.09C112.445 143.609 109.862 145.074 106.554 144.946C102.943 144.763 101.725 142.57 101.866 138.731Z" fill="#C86E56"/>
<path d="M152.434 153.349C154.437 151.655 150.905 146.357 155.526 146.446C159.472 146.527 160.84 150.937 161.268 154.529C161.619 157.584 159.376 158.855 156.504 158.745C153.368 158.585 152.311 156.682 152.434 153.349Z" fill="#C86E56"/>
<path d="M100.449 43.7236C100.169 45.7167 99.1734 47.0782 97.1226 47.2422C96.6461 47.3266 96.1569 47.3051 95.6898 47.1791C95.2226 47.0532 94.7891 46.826 94.4199 46.5137C94.0507 46.2014 93.755 45.8116 93.5538 45.372C93.3526 44.9325 93.2508 44.4541 93.2557 43.9707C93.2146 43.5265 93.2673 43.0787 93.4105 42.6561C93.5537 42.2335 93.7841 41.8457 94.0868 41.5176C94.3896 41.1896 94.7579 40.9287 95.1679 40.7519C95.5779 40.5751 96.0205 40.4862 96.467 40.4911C98.768 40.2778 99.9201 41.6384 100.449 43.7236Z" fill="#C86E56"/>
<path d="M182.244 91.206C182.417 92.5117 182.156 93.8382 181.5 94.9812C179.165 96.1857 176.932 96.6392 175.369 93.876C174.253 91.9573 175.354 90.3932 176.891 89.4717C179.129 88.1907 180.802 89.6353 182.244 91.206Z" fill="#C86E56"/>
<path d="M161.116 132.324C160.695 133.288 160.074 134.152 159.293 134.858C158.512 135.563 157.59 136.095 156.588 136.417C155.568 136.692 154.437 135.552 154.799 134.78C155.677 132.919 155.945 130.339 158.572 129.893C160.064 129.635 160.906 130.584 161.116 132.324Z" fill="#C86E56"/>
<path d="M114.241 155.58C113.82 156.544 113.199 157.407 112.418 158.113C111.637 158.819 110.715 159.351 109.713 159.673C108.694 159.947 107.562 158.808 107.924 158.036C108.802 156.174 109.07 153.593 111.697 153.147C113.189 152.89 114.031 153.839 114.241 155.58Z" fill="#C86E56"/>
<path d="M118.697 35.2689C118.276 36.233 117.654 37.0967 116.874 37.8024C116.093 38.5082 115.171 39.0399 114.169 39.3622C113.149 39.6366 112.018 38.4969 112.38 37.7252C113.258 35.8635 113.526 33.2829 116.153 32.8369C117.645 32.5794 118.487 33.528 118.697 35.2689Z" fill="#C86E56"/>
<path d="M163.256 44.181C162.835 45.1452 162.214 46.0088 161.433 46.7145C160.652 47.4203 159.73 47.952 158.728 48.2743C157.709 48.5487 156.577 47.4091 156.939 46.6373C157.817 44.7756 158.085 42.195 160.713 41.749C162.204 41.4915 163.046 42.4401 163.256 44.181Z" fill="#C86E56"/>
<path d="M116.469 97.6515C116.048 98.6155 115.427 99.4791 114.646 100.185C113.865 100.89 112.943 101.422 111.941 101.744C110.922 102.019 109.79 100.879 110.152 100.108C111.03 98.246 111.298 95.6657 113.926 95.2197C115.417 94.9622 116.259 95.9107 116.469 97.6515Z" fill="#C86E56"/>
<path d="M185.182 123.601C184.515 125.128 183.531 126.496 182.295 127.613C181.058 128.731 179.598 129.573 178.011 130.083C176.397 130.518 174.604 128.713 175.178 127.491C176.569 124.543 176.993 120.456 181.154 119.749C183.516 119.341 184.849 120.844 185.182 123.601Z" fill="#C86E56"/>
<path d="M160.313 174.854C159.646 176.381 158.662 177.749 157.425 178.866C156.189 179.984 154.729 180.826 153.142 181.336C151.528 181.771 149.735 179.966 150.309 178.744C151.7 175.795 152.124 171.709 156.285 171.002C158.647 170.594 159.98 172.097 160.313 174.854Z" fill="#C86E56"/>
<path d="M107.972 247.608C107.309 247.612 106.653 247.478 106.045 247.213C104.876 246.704 103.956 245.751 103.489 244.564C103.022 243.376 103.045 242.052 103.554 240.881C125.469 190.355 103.541 176.272 103.271 176.139C102.18 175.476 101.396 174.407 101.093 173.166C100.79 171.926 100.992 170.615 101.654 169.523C102.317 168.431 103.386 167.646 104.627 167.342C105.867 167.038 107.177 167.24 108.269 167.902C109.485 168.637 137.608 186.57 112.338 244.708C111.968 245.562 111.359 246.29 110.584 246.804C109.809 247.319 108.902 247.598 107.972 247.608Z" fill="#C1686A"/>
<path d="M105.214 241.233C133.665 223.544 155.326 244.139 145.061 247.484C145.061 247.484 96.5342 254.589 105.214 241.233Z" fill="#C1686A"/>
<path d="M121.58 210.184C118.004 206.774 116.852 203.015 119.932 198.639C137.001 177.837 137.624 150.723 121.601 124.606C120.234 122.389 118.474 120.366 117.395 118.023C115.918 114.814 115.74 111.446 119.147 109.167C122.553 106.887 125.744 107.979 127.912 110.943C147.111 137.17 154.924 174.177 132.4 204.046C131.185 205.708 124.467 210.083 121.58 210.184Z" fill="#FEB4B4"/>
<path fill-rule="evenodd" clip-rule="evenodd" d="M159.645 103.26C154.668 104.182 149.589 106.796 142.912 111.952L141.55 110.189C148.351 104.938 153.761 102.085 159.239 101.069C164.719 100.053 170.126 100.903 176.847 102.772L176.249 104.919C169.633 103.078 164.621 102.337 159.645 103.26Z" fill="#76271F"/>
<path fill-rule="evenodd" clip-rule="evenodd" d="M141.599 83.382C143.717 82.6056 145.796 81.1381 148.353 78.5059C148.781 78.0646 149.485 78.0361 149.936 78.4543C150.388 78.8724 150.415 79.5789 149.987 80.0208C147.291 82.8033 144.927 84.5347 142.366 85.4738C139.859 86.3933 137.267 86.5135 134.181 86.2678C133.568 86.219 133.121 85.6705 133.184 85.0584C133.246 84.4463 133.793 84.0026 134.406 84.0506C137.321 84.2787 139.53 84.1406 141.599 83.382Z" fill="#76271F"/>
<path fill-rule="evenodd" clip-rule="evenodd" d="M165.304 73.4086C167.321 72.3992 169.222 70.7073 171.467 67.8045C171.843 67.3178 172.539 67.2104 173.035 67.5752C173.53 67.94 173.637 68.6389 173.261 69.126C170.895 72.1939 168.741 74.18 166.301 75.401C163.913 76.5964 161.351 77.0071 158.257 77.1098C157.642 77.1303 157.137 76.6354 157.13 76.0202C157.123 75.405 157.617 74.9026 158.232 74.8813C161.154 74.7804 163.334 74.3949 165.304 73.4086Z" fill="#76271F"/>
</svg>
