<svg width="149" height="149" viewBox="0 0 149 149" fill="none" xmlns="http://www.w3.org/2000/svg">
<path d="M149 74.5C149 115.6 115.6 149 74.5 149C33.4 149 0 115.6 0 74.5C0 33.4 33.4 0 74.5 0C115.6 0 149 33.4 149 74.5Z" fill="#F8F6F6"/>
<mask id="mask0" mask-type="alpha" maskUnits="userSpaceOnUse" x="0" y="0" width="149" height="149">
<path d="M149 74.5C149 115.6 115.6 149 74.5 149C33.4 149 0 115.6 0 74.5C0 33.4 33.4 0 74.5 0C115.6 0 149 33.4 149 74.5Z" fill="#F8F6F6"/>
</mask>
<g mask="url(#mask0)">
<path d="M58.8566 32.7259C59.0532 32.9366 59.3293 33.0745 59.6396 33.0852L66.4443 33.0617C67.191 33.0596 67.5759 32.17 67.067 31.6248L64.7188 29.1093L66.6942 27.2653C71.6155 22.6713 79.2875 22.9352 83.8815 27.8566L85.7255 29.832C85.8458 29.9646 85.9913 30.0719 86.1535 30.1478C86.3157 30.2237 86.4913 30.2666 86.6702 30.2741C86.8492 30.2815 87.0278 30.2533 87.1957 30.1911C87.3636 30.1289 87.5175 30.0339 87.6484 29.9117C87.7792 29.7895 87.8846 29.6426 87.9581 29.4793C88.0317 29.3161 88.0722 29.1398 88.0771 28.9608C88.0819 28.7818 88.0512 28.6037 87.9866 28.4366C87.9221 28.2696 87.8249 28.1171 87.7009 27.988L85.8569 26.0125C80.2664 20.0237 70.839 19.6994 64.8501 25.2899L62.8747 27.1339L60.5211 24.6125C60.0112 24.0663 59.0973 24.3892 59.0449 25.135L58.5537 31.922C58.5431 32.2323 58.6599 32.5153 58.8566 32.7259Z" fill="#DD0E1D"/>
<path d="M123.785 131.407H29.2151C25.264 131.407 22 128.132 22 124.167V43.2395C22 39.275 25.264 36 29.2151 36H123.785C127.736 36 131 39.275 131 43.2395V124.167C131 128.218 127.822 131.407 123.785 131.407Z" fill="#2777A1"/>
<path d="M92.8625 74.4386C87.1076 71.3359 81.0091 69.8708 74.3952 70.2155C73.5363 70.3017 72.7633 70.2155 71.9043 70.2155C70.2723 68.9227 69.5852 66.9405 68.7262 65.1306C66.6648 61.0799 64.3456 57.1154 62.37 52.9785C61.8547 51.8581 61.4252 50.6515 60.0509 49.8758C59.6214 51.7719 60.4804 53.0647 61.2534 54.4436C63.5726 58.7529 65.8058 63.0621 68.0391 67.4576C68.6403 68.578 69.4993 69.526 69.4134 70.905C66.5789 71.5945 64.2597 73.5767 61.4252 74.2662C59.965 74.6109 59.106 74.3524 58.0753 73.232C54.6395 69.2675 52.664 64.3549 50.2589 59.7871C50.0012 59.1838 49.6577 58.6667 49.4 58.0634C47.5103 54.7022 47.8539 52.8923 50.7743 50.4791C51.2038 50.1344 51.5473 49.8758 51.9768 49.5311C52.9217 49.3587 53.2652 50.2206 53.6947 50.7377C54.8113 52.0305 55.6703 53.5818 56.7869 54.8746C56.8728 53.4094 55.8421 52.4614 55.2408 51.4272C54.6395 50.4791 53.7806 49.7035 53.7806 48.4107C57.6458 45.9113 61.8547 44.1876 66.3212 43.1534C67.4378 44.2738 67.6955 45.6528 67.9532 47.1179C68.125 47.9798 68.125 48.9278 68.8121 50.0482C69.3275 48.6692 68.8121 47.7212 68.7262 46.687C68.6403 45.3942 67.8673 44.1876 68.2967 42.8087C70.2723 42.033 72.4197 42.2054 74.4811 41.6883C76.5426 41.3435 78.69 41.2573 80.7514 41.6883C81.4386 41.7744 82.1257 41.9468 82.8129 42.033C83.5001 42.8948 82.9847 43.7567 82.8988 44.6185C82.727 46.1699 82.0398 47.635 82.2975 49.2725C83.1565 47.5488 83.4142 45.5666 83.9295 43.7567C84.1013 43.0672 84.0154 42.1192 85.2179 42.3777C89.3409 42.8948 93.292 43.8429 97.0714 45.3942C97.5867 46.0837 97.0714 46.687 96.8137 47.2903C96.0406 48.8416 95.2676 50.3929 94.6663 52.1166C96.3842 50.4791 97.0714 47.9798 99.0469 46.5146C101.023 47.2041 102.483 48.5831 103.685 50.3068C105.06 52.289 104.974 54.3575 103.943 56.4259C102.74 58.8391 101.71 61.4246 100.937 64.0102C100.249 67.4576 98.7034 70.5602 96.3842 73.232C95.4394 74.4386 94.3227 74.9557 92.8625 74.4386Z" fill="#DFE4E5"/>
<path d="M69.5852 70.9049C66.5789 65.3029 63.5726 59.7009 60.5663 54.0989C59.965 52.9785 59.7073 51.6857 59.3638 50.4791C59.2779 50.0482 58.9343 49.4449 59.6214 49.1001C60.2227 48.8416 60.7381 49.1863 61.0817 49.7034C61.4252 50.1344 61.6829 50.5653 61.8547 50.9962C65.2046 57.3739 68.5545 63.8378 71.9902 70.2155C71.2172 70.6464 70.4441 70.9049 69.5852 70.9049Z" fill="#DD0E1D"/>
<path d="M68.5544 42.7227C69.4134 44.8773 69.4993 47.1181 70.0146 49.3589C70.1864 50.2208 69.6711 50.4793 68.9839 50.6517C68.3826 50.824 68.2109 50.4793 68.2109 49.9622C68.0391 47.6352 67.3519 45.3944 66.5789 43.2398C67.1801 43.0674 67.8673 42.895 68.5544 42.7227Z" fill="#7BA1B3"/>
<path d="M85.3038 42.2915C84.6166 42.3776 84.6166 42.8086 84.5307 43.4119C84.1013 45.3079 83.6718 47.2902 83.2423 49.1863C83.1564 49.7034 83.0705 50.3067 82.2116 50.0481C81.2668 49.7896 81.6103 49.2724 81.6962 48.7553C82.1257 46.5145 82.6411 44.2737 83.0705 42.0329C83.7577 42.0329 84.5307 41.7743 85.3038 42.2915Z" fill="#75A1B2"/>
<path d="M99.047 46.6011C97.8444 48.5834 96.6419 50.5656 95.4394 52.5479C95.0958 53.065 94.6663 53.2374 94.151 52.9788C93.4638 52.6341 93.8933 52.117 94.151 51.686C95.0958 49.6176 96.556 47.7215 97.1573 45.3945C97.7585 45.8255 98.3598 46.1702 99.047 46.6011Z" fill="#7AA2B3"/>
<path d="M53.9524 48.4106C55.1549 50.2205 56.2716 52.0304 57.4741 53.8403C57.9036 54.4436 58.1612 55.1331 57.3882 55.6502C56.4434 56.2535 56.4434 55.1331 56.0998 54.7883C54.8114 53.0646 53.8665 50.9962 52.0627 49.5311C52.7499 49.1863 53.3512 48.8416 53.9524 48.4106Z" fill="#77A3B7"/>
<path d="M127.221 90.5551C127.135 90.1242 126.276 89.3485 125.245 89.0038C124.73 88.8314 124.214 88.9176 123.699 89.1761C123.012 89.6071 122.582 90.1242 122.067 90.1242C122.411 89.3485 123.27 87.8834 123.355 87.2801C123.184 84.8669 122.496 84.2636 120.435 84.6945C120.091 84.7807 119.92 84.5221 119.834 84.2636C119.834 83.9188 120.864 83.2294 120.95 82.9708C121.809 80.1267 120.263 79.0063 118.03 79.6096C118.03 79.5234 117.944 79.351 117.944 79.2649C117.772 78.1444 118.545 77.1964 118.288 76.076C118.03 75.128 117.686 74.2661 116.656 73.9214C115.625 73.5766 114.938 73.9214 114.337 74.697C114.165 74.9556 113.048 76.1622 112.619 76.1622C112.533 74.8694 113.735 72.9733 113.048 72.0253C112.876 70.8187 110.987 69.9569 110.987 69.9569C110.987 69.9569 107.207 69.4398 106.091 71.5082C105.747 72.1977 105.489 72.8872 105.146 73.5766C104.115 75.5589 103.342 77.5412 102.311 79.5234C102.225 79.6958 102.14 79.8681 102.14 80.0405C101.023 83.057 99.8204 86.0735 98.5319 89.0038C97.5871 91.0722 96.9858 93.2268 95.5256 95.0367C92.9488 99.1736 90.8014 103.569 87.881 107.534C85.2183 111.067 83.071 114.859 82.3838 119.341C81.9543 120.547 82.1261 121.668 82.2979 122.874C82.8133 123.736 83.071 124.598 83.5004 125.46C83.6722 125.719 85.9055 128.046 86.5926 129.08C87.7951 129.855 93.9795 137.957 94.0654 138.302C94.6667 141.146 95.4397 143.99 95.9551 146.834C97.3294 153.815 98.4461 160.796 100.937 167.432C101.452 168.811 102.225 169.587 103.6 169.673C107.894 169.845 111.588 168.639 114.508 165.364C115.281 164.502 115.969 163.381 115.711 162.089C115.024 158.986 113.735 156.056 112.361 153.212C110.815 150.023 106.692 133.648 106.52 132.958C106.434 132.872 106.52 122.616 106.95 121.84C107.121 121.582 113.22 112.446 116.14 108.223C116.913 106.93 117.772 105.724 118.889 104.776C119.318 104.345 120.435 103.138 120.607 102.88C122.239 100.466 123.441 97.7084 124.902 95.2091C125.675 93.4854 127.65 91.8479 127.221 90.5551Z" fill="#FEC99D"/>
<path d="M69.9286 121.151C70.2721 120.547 65.5479 111.239 65.0326 109.86C64.4313 108.826 63.9159 107.878 63.057 107.016C62.4557 105.896 61.9404 104.862 61.1673 103.914C59.9648 102.018 55.2406 92.9682 55.1547 92.6235C54.4676 90.8136 49.4857 79.1786 47.596 76.3345C47.2524 75.645 46.9088 75.0417 46.5653 74.3522C45.5345 72.1114 42.6141 71.5081 40.8103 73.1456C39.7796 74.1799 39.5219 75.4726 39.436 76.7654C39.436 76.9378 39.436 77.024 39.436 77.1101C39.3501 77.1101 39.436 77.5411 39.3501 77.1101C39.0925 76.2483 38.3194 76.0759 37.7181 75.5588C37.3746 75.3003 36.9451 75.2141 36.4297 75.3003C34.7118 75.7312 33.767 77.3687 34.0247 79.4371C34.1106 80.2128 34.6259 81.1608 33.4234 81.5056C31.6196 82.0227 31.6196 83.3155 31.9632 84.8668C32.0491 85.4701 32.6504 85.9872 32.3927 86.6767C31.5338 86.8491 30.503 86.7629 29.9018 87.6247C29.8159 87.7971 29.73 87.8833 29.6441 88.0556C29.4723 89.0899 29.9018 90.0379 30.3312 90.9859C30.4171 91.1583 30.503 91.1583 30.2453 91.1583C30.1594 91.1583 30.1594 91.0721 30.0735 91.0721C28.4416 90.4688 27.9262 90.6412 27.4108 92.1925C27.1531 93.2267 26.9813 94.3472 27.1531 95.3814C27.8403 99.6044 29.73 103.224 32.7363 106.241C36.0003 109.947 46.4794 125.029 46.3076 127.356C45.4486 129.855 45.5345 137.526 45.2769 138.732C45.2769 138.732 45.2769 138.819 45.191 138.819C45.191 139.163 45.191 139.422 45.191 139.767C44.9333 140.025 45.1051 140.456 44.8474 140.715C43.6449 145.196 43.1295 149.937 40.8962 154.16C39.2642 157.09 38.1476 160.279 37.1169 163.468C36.6874 164.847 36.8592 165.967 37.5464 167.087C39.7796 170.621 46.2217 172.948 50.1728 171.741C50.7741 171.569 51.1177 171.31 51.3754 170.707C51.7189 169.501 52.1484 168.294 52.5779 167.087C55.2406 158.9 62.7993 135.199 62.7993 135.199C63.057 135.199 66.4928 130.631 68.5542 127.959C69.6709 126.494 70.2721 124.598 70.1862 122.788C70.0144 121.84 70.0144 121.323 69.9286 121.151Z" fill="#FEC99D"/>
</g>
</svg>
