<svg width="160" height="155" viewBox="0 0 160 155" fill="none" xmlns="http://www.w3.org/2000/svg">
<mask id="mask0" mask-type="alpha" maskUnits="userSpaceOnUse" x="0" y="0" width="160" height="155">
<rect width="160" height="155" fill="#C4C4C4"/>
</mask>
<g mask="url(#mask0)">
<path fill-rule="evenodd" clip-rule="evenodd" d="M8.72871 95.3288C0.656323 72.2292 -4.12589 44.6426 11.024 25.5165C25.809 6.85089 53.0192 11.1256 76.6348 9.59978C101.609 7.9862 130.73 -1.94134 147.648 16.6892C164.789 35.5667 158.632 65.8623 149.383 89.7139C142.086 108.53 122.985 116.908 105.199 126.155C87.7949 135.202 69.9421 146.675 51.2803 140.712C30.5908 134.101 15.9527 116.001 8.72871 95.3288Z" fill="#D2F8FD"/>
</g>
<path d="M140 27H52V33H140V27Z" fill="#F5E6DC"/>
<path d="M140 41H52V45H140V41Z" fill="#F5E6DC"/>
<path d="M140 33H52V41H140V33Z" fill="#FF5538"/>
<path d="M140 45H52V53H140V45Z" fill="#FA9528"/>
<path d="M140 53H52V57H140V53Z" fill="#F5E6DC"/>
<path d="M140 65H52V69H140V65Z" fill="#F5E6DC"/>
<path d="M140 57H52V65H140V57Z" fill="#FFCB1E"/>
<path d="M140 69H52V77H140V69Z" fill="#64AB1F"/>
<path d="M140 77H52V81H140V77Z" fill="#F5E6DC"/>
<path d="M140 81H52V89H140V81Z" fill="#5FC7B1"/>
<path d="M140 89H52V93H140V89Z" fill="#F5E6DC"/>
<path d="M140 93H52V101H140V93Z" fill="#C363AA"/>
<path d="M151.8 93H149.9L150 23C150 20.8 148.2 19 146 19H52C49.8 19 48 20.8 48 23C48 25.2 49.8 27 52 27H140V101H149.8H152C154.4 101 156.4 98.8 155.9 96.3C155.6 94.4 153.8 93 151.8 93Z" fill="#EE4A4A"/>
<g clip-path="url(#clip0)">
<path d="M112 109.702L72.8889 124V77.5322L112 63.2344V109.702Z" fill="#FBAA53"/>
<path d="M72.8889 124L16 113.277V66.8086L72.8889 77.532V124Z" fill="#FCBB75"/>
<path d="M112 81.106L72.8889 95.4038V88.2549L112 73.957V81.106Z" fill="#F5E6DC"/>
<path d="M72.8889 95.4036L16 84.6802V77.5312L72.8889 88.2547V95.4036Z" fill="white"/>
<path d="M112 98.979L72.8889 113.277V106.128L112 91.8301V98.979Z" fill="#F5E6DC"/>
<path d="M72.8889 113.277L16 102.553V95.4043L72.8889 106.128V113.277Z" fill="white"/>
<path d="M112 63.2332L55.1111 52.5098L16 66.8076L72.8889 77.531L112 63.2332Z" fill="white"/>
<path d="M56.8889 82.8928C57.8707 82.8928 58.6666 82.0927 58.6666 81.1056C58.6666 80.1185 57.8707 79.3184 56.8889 79.3184C55.907 79.3184 55.1111 80.1185 55.1111 81.1056C55.1111 82.0927 55.907 82.8928 56.8889 82.8928Z" fill="#FA9528"/>
<path d="M63.9999 102.553C64.9818 102.553 65.7777 101.753 65.7777 100.766C65.7777 99.7787 64.9818 98.9785 63.9999 98.9785C63.0181 98.9785 62.2222 99.7787 62.2222 100.766C62.2222 101.753 63.0181 102.553 63.9999 102.553Z" fill="#FA9528"/>
<path d="M49.7778 116.852C50.7596 116.852 51.5556 116.052 51.5556 115.065C51.5556 114.078 50.7596 113.277 49.7778 113.277C48.7959 113.277 48 114.078 48 115.065C48 116.052 48.7959 116.852 49.7778 116.852Z" fill="#FA9528"/>
<path d="M24.8889 95.4045C25.8707 95.4045 26.6666 94.6044 26.6666 93.6173C26.6666 92.6303 25.8707 91.8301 24.8889 91.8301C23.907 91.8301 23.1111 92.6303 23.1111 93.6173C23.1111 94.6044 23.907 95.4045 24.8889 95.4045Z" fill="#FA9528"/>
<path d="M28.4445 113.276C29.4264 113.276 30.2223 112.475 30.2223 111.488C30.2223 110.501 29.4264 109.701 28.4445 109.701C27.4627 109.701 26.6667 110.501 26.6667 111.488C26.6667 112.475 27.4627 113.276 28.4445 113.276Z" fill="#FA9528"/>
<path d="M88.8889 79.3186C89.8707 79.3186 90.6666 78.5184 90.6666 77.5314C90.6666 76.5443 89.8707 75.7441 88.8889 75.7441C87.907 75.7441 87.1111 76.5443 87.1111 77.5314C87.1111 78.5184 87.907 79.3186 88.8889 79.3186Z" fill="#FA9528"/>
<path d="M103.111 91.8303C104.093 91.8303 104.889 91.0302 104.889 90.0431C104.889 89.056 104.093 88.2559 103.111 88.2559C102.129 88.2559 101.333 89.056 101.333 90.0431C101.333 91.0302 102.129 91.8303 103.111 91.8303Z" fill="#FA9528"/>
<path d="M28.4445 77.5315C29.4264 77.5315 30.2223 76.7313 30.2223 75.7443C30.2223 74.7572 29.4264 73.957 28.4445 73.957C27.4627 73.957 26.6667 74.7572 26.6667 75.7443C26.6667 76.7313 27.4627 77.5315 28.4445 77.5315Z" fill="#FA9528"/>
<path d="M85.3334 100.766C86.3153 100.766 87.1112 99.9657 87.1112 98.9786C87.1112 97.9916 86.3153 97.1914 85.3334 97.1914C84.3516 97.1914 83.5557 97.9916 83.5557 98.9786C83.5557 99.9657 84.3516 100.766 85.3334 100.766Z" fill="#FA9528"/>
<path d="M95.9999 113.276C96.9818 113.276 97.7777 112.475 97.7777 111.488C97.7777 110.501 96.9818 109.701 95.9999 109.701C95.0181 109.701 94.2222 110.501 94.2222 111.488C94.2222 112.475 95.0181 113.276 95.9999 113.276Z" fill="#FA9528"/>
<path d="M44.4445 97.1917C45.4264 97.1917 46.2223 96.3915 46.2223 95.4044C46.2223 94.4174 45.4264 93.6172 44.4445 93.6172C43.4627 93.6172 42.6667 94.4174 42.6667 95.4044C42.6667 96.3915 43.4627 97.1917 44.4445 97.1917Z" fill="#FA9528"/>
<path d="M80.5332 52.0639C79.9999 52.0639 79.3777 51.7958 79.111 51.2597C78.5777 50.4554 78.7555 49.2937 79.5555 48.7575L86.8443 43.6639C87.6443 43.1277 88.7999 43.3065 89.3332 44.1107C89.8666 44.915 89.6888 46.0767 88.8888 46.6128L81.5999 51.7065C81.2443 51.9745 80.8888 52.0639 80.5332 52.0639Z" fill="#5FC7B1"/>
<path d="M81.5998 53.4941C80.7109 53.4941 79.9998 52.8686 79.822 51.975C79.6442 50.992 80.3553 50.0984 81.3331 49.9196L89.1553 48.7579C90.1331 48.5792 91.022 49.2941 91.1998 50.2771C91.3776 51.2601 90.6664 52.1537 89.6887 52.3324L81.8664 53.4941C81.7776 53.4941 81.6887 53.4941 81.5998 53.4941Z" fill="#5FC7B1"/>
<path d="M79.5553 50.6344C79.2886 50.6344 79.0219 50.545 78.6664 50.4556C77.7775 50.0088 77.5108 48.9365 77.9553 48.0429L81.7775 40.8939C82.2219 40.0003 83.2886 39.7322 84.1775 40.179C85.0664 40.7152 85.333 41.7876 84.8886 42.6812L81.0664 49.7408C80.7997 50.2769 80.1775 50.6344 79.5553 50.6344Z" fill="#5FC7B1"/>
<path d="M80.5332 50.2772C83.3776 54.2984 85.0665 57.9623 78.6665 62.5197C72.2665 67.0772 59.2887 69.5793 57.2443 66.7197C55.1999 63.7708 62.0443 52.4218 68.4443 47.9537C74.9332 43.3069 77.7776 46.2559 80.5332 50.2772Z" fill="#FA9528"/>
</g>
<defs>
<clipPath id="clip0">
<rect x="16" y="40" width="96" height="84" fill="white"/>
</clipPath>
</defs>
</svg>
