<svg width="149" height="149" viewBox="0 0 149 149" fill="none" xmlns="http://www.w3.org/2000/svg">
<path d="M149 74.5C149 115.6 115.6 149 74.5 149C33.4 149 0 115.6 0 74.5C0 33.4 33.4 0 74.5 0C115.6 0 149 33.4 149 74.5Z" fill="#F8F6F6"/>
<mask id="mask0" mask-type="alpha" maskUnits="userSpaceOnUse" x="0" y="0" width="149" height="149">
<path d="M149 74.5C149 115.6 115.6 149 74.5 149C33.4 149 0 115.6 0 74.5C0 33.4 33.4 0 74.5 0C115.6 0 149 33.4 149 74.5Z" fill="#F8F6F6"/>
</mask>
<g mask="url(#mask0)">
<path d="M64.1708 60.1245C67.2118 58.555 63.5823 48.4512 63.7785 43.3503C71.4299 40.6037 84.1822 42.5656 86.5364 45.0179C86.5364 55.8083 91.7355 77.6835 85.5555 77.3892C55.7347 75.8197 64.1708 60.1245 64.1708 60.1245Z" fill="#ECAF8D"/>
<path d="M107.136 62.9688C115.082 64.1459 121.458 90.5334 119.104 113.88C112.434 126.534 100.172 137.913 98.2098 136.736C88.3022 130.458 89.7736 103.678 103.016 78.5658C104.586 75.623 107.136 62.9688 107.136 62.9688Z" fill="#FCAC6B"/>
<path d="M43.3746 66.1077C37.587 72.3858 16.9871 100.245 14.2404 109.171C13.3576 111.918 10.8071 117.019 12.769 119.667C13.5538 120.746 20.2242 123.591 22.1861 124.572C29.6413 128.202 32.486 128.79 41.2165 131.145C46.8079 132.616 51.8107 133.499 51.7126 139.679C51.6145 145.663 49.6526 149.096 53.7726 154.589C52.4974 146.349 63.2878 141.641 58.6773 128.398C53.0859 126.534 48.5736 122.022 43.4727 118.883C38.9603 116.136 36.0175 113.586 31.9956 110.447C39.7451 101.52 44.6498 98.2828 49.2602 94.4571C58.3831 86.6095 55.0478 61.1049 43.3746 66.1077Z" fill="#FCAC6B"/>
<path d="M101.937 111.036C102.624 104.66 111.158 102.698 110.177 95.7332C109.196 88.1799 105.665 86.5123 106.351 78.8609C106.646 75.7219 109.588 65.8143 107.136 63.1658C104.88 60.7134 92.8142 61.302 89.6752 60.5172C89.5771 61.4001 88.3019 63.7543 88.3019 64.7353L83.4952 69.8362L64.1706 60.321C64.1706 60.321 62.601 57.8686 62.601 57.9667L43.2764 66.2067C52.9877 66.9915 53.8706 79.1552 53.0858 86.3161C52.7916 89.7494 48.6716 92.2018 47.7887 95.4389C46.8078 99.1665 51.9087 104.954 53.0858 108.387C55.4401 114.96 56.0287 120.061 57.2058 126.927C57.6963 130.066 53.5763 132.323 54.263 134.677C54.6554 135.854 56.9115 136.05 57.2058 137.129C57.5001 138.306 55.9306 138.699 55.1458 139.385C52.4973 141.838 54.8515 143.996 54.0668 146.939C53.4782 149.195 50.4373 158.023 49.8487 158.318C54.263 162.732 78.0019 163.222 82.1219 163.419C93.599 164.105 106.94 156.061 111.943 155.963C109 140.857 100.368 126.731 101.937 111.036Z" fill="#FCE587"/>
<path d="M99.3871 108.093C87.2233 113.194 69.272 117.903 56.3235 96.4199C58.5797 100.148 58.6778 116.627 58.2854 121.434C57.893 126.045 57.5987 127.908 58.2854 132.715C60.5416 133.304 61.032 135.069 60.4435 137.914C59.7568 141.445 58.7759 138.601 56.814 141.053C51.9092 147.233 58.9721 145.86 52.9883 155.669C56.9121 153.805 63.9749 149.98 61.3263 145.86C67.1139 143.309 67.8987 139.287 66.8196 133.402C66.4273 131.244 64.6616 129.478 64.2692 126.633C63.8768 123.985 65.152 120.944 64.9558 118.099C74.0786 116.922 90.6567 117.118 98.1119 111.821L99.3871 108.093Z" fill="#FDD36A"/>
<path d="M39.1564 23.2407C37.8812 19.5131 36.9002 15.295 40.3336 12.4502C43.3745 9.89978 48.2792 9.5074 51.8106 11.175C53.2821 11.8617 54.3611 12.9407 55.3421 14.2159L39.1564 23.2407Z" fill="#053653"/>
<path d="M49.8485 35.503C47.298 33.8354 44.8456 32.1678 42.5895 30.1078C40.9219 28.5383 38.3714 26.184 38.8619 23.6336C39.4504 21.1812 42.3933 19.4155 44.2571 18.0422C46.7094 16.3746 49.358 14.9031 52.3008 14.2165C54.557 13.6279 56.8132 13.8241 59.1675 14.3146L49.8485 35.503Z" fill="#063754"/>
<path d="M55.4395 14.5098C52.6929 15.0983 49.8481 16.1774 47.3957 17.5507C45.7281 18.5317 44.2567 19.8069 43.0796 21.3764C42.6872 21.8669 40.5291 24.2211 41.8043 24.3192C42.3929 24.3192 43.6681 23.1421 44.1586 22.8478C45.1396 22.1612 46.0224 21.4745 47.0034 20.8859C47.1015 20.8859 47.1015 20.8859 47.1015 20.984C46.2186 23.1421 44.9434 24.7116 45.1396 27.2621C45.3358 28.6354 45.63 30.2049 46.9053 31.0878C47.4938 30.1068 47.2976 28.4392 47.4938 27.2621C47.7881 25.6926 48.1805 24.025 48.9653 22.6516C49.9462 20.5916 51.5157 18.4336 53.3795 17.0602L55.4395 14.5098Z" fill="#053653"/>
<path d="M66.9174 44.0364C64.7593 38.2488 61.0317 29.126 61.9146 24.4175C62.8955 18.9242 67.8983 16.668 72.3126 15.0004C76.7269 13.3328 81.9259 11.8613 86.2421 15.3928C89.9697 18.3356 92.422 26.6736 94.2858 32.5593C96.542 40.1126 98.0134 45.1155 93.6973 53.4535C92.7163 55.4154 92.1277 59.8297 81.4354 56.4945C74.3726 54.3364 69.664 51.4916 66.9174 44.0364Z" fill="#FFC09D"/>
<path d="M66.523 41.5845C65.2477 41.3883 61.9119 40.5055 65.3452 49.8245C64.3643 52.2768 65.3452 53.2578 65.3452 55.2197C56.9091 51.2959 55.6344 48.6473 53.9668 45.9007C47.6888 35.6007 48.4735 24.9084 50.2392 21.9655C52.5935 18.0417 52.103 14.7065 62.5011 10.7827C67.3077 9.01702 77.4115 8.03607 82.6105 10.3903C86.9267 12.3522 90.7524 17.0608 89.1829 19.5132C87.6133 18.2379 85.9457 17.6494 84.2781 18.1398C82.8067 17.7475 81.041 16.8646 79.9619 19.4151C75.1553 17.7475 71.8201 21.6712 71.2315 25.1046C66.4249 25.7912 62.8935 36.5816 66.523 41.5845Z" fill="#00314E"/>
<path d="M67.7978 25.4971C66.3264 20.7885 56.9093 24.0256 56.8112 18.7285C55.9284 21.9656 56.7131 25.7913 60.6369 26.478C61.5198 26.6742 62.4026 26.5761 63.3836 26.478C61.0293 26.5761 58.0865 29.5189 56.2227 27.0666C57.8903 32.3637 63.776 26.9685 66.8169 26.2818L67.7978 25.4971Z" fill="#063754"/>
<path d="M80.0597 18.0417C77.4112 10.1941 70.0541 10.2922 63.0894 11.5674C66.817 12.7446 73.2912 11.9598 74.7626 16.6684C73.9779 13.8236 67.5036 15.6874 65.4436 13.8236C67.896 16.9626 72.5065 15.5893 74.9588 18.336C76.6264 17.6493 78.294 17.4531 79.7655 18.5322L80.0597 18.0417Z" fill="#063754"/>
<path d="M66.9161 41.388C60.2457 38.8376 65.1504 47.1756 67.2104 49.0394C67.9951 49.7261 69.957 50.9032 71.1342 50.707L66.9161 41.388Z" fill="#FFC09D"/>
<path d="M71.8826 145.84C71.8826 150.937 67.7021 155.156 62.6507 155.156C57.4251 155.332 53.2446 151.113 53.2446 145.84C53.2446 140.742 57.4251 136.523 62.4765 136.523C67.7021 136.523 71.8826 140.742 71.8826 145.84Z" fill="url(#paint0_radial)"/>
<path d="M114.063 138.973C114.063 144.07 109.883 148.289 104.831 148.289C99.6058 148.465 95.4253 144.246 95.4253 138.973C95.4253 133.875 99.6058 129.656 104.657 129.656C109.883 129.656 114.063 133.875 114.063 138.973Z" fill="url(#paint1_radial)"/>
<path d="M57.303 127.712C60.442 130.459 60.442 134.971 60.9325 139.287C61.4229 143.799 66.0334 146.742 65.7391 151.157C60.2458 151.255 56.9106 142.917 54.6544 139.581C53.5753 141.838 51.6135 131.538 56.9106 128.791L57.303 127.712Z" fill="#FCAC6B"/>
</g>
<defs>
<radialGradient id="paint0_radial" cx="0" cy="0" r="1" gradientUnits="userSpaceOnUse" gradientTransform="translate(62.5217 145.885) scale(9.2772 9.36205)">
<stop offset="0.0832259" stop-color="#EA2154" stop-opacity="0.57"/>
<stop offset="0.9745" stop-color="#FCE587" stop-opacity="0"/>
</radialGradient>
<radialGradient id="paint1_radial" cx="0" cy="0" r="1" gradientUnits="userSpaceOnUse" gradientTransform="translate(104.702 139.018) scale(9.2772 9.36205)">
<stop offset="0.0832259" stop-color="#EA2154" stop-opacity="0.57"/>
<stop offset="0.9745" stop-color="#FCE587" stop-opacity="0"/>
</radialGradient>
</defs>
</svg>
