<svg xmlns="http://www.w3.org/2000/svg" width="763" height="297" viewBox="0 0 763 297" fill="none"><g clip-path="url(#clip0)"><path d="M332.426 121.564C319.639 116.922 317.909 113.492 317.909 113.492C317.909 113.492 317.925 106.393 325.435 107.572C335.651 109.186 348.018 111.339 366.836 114.568C378.506 116.569 380.278 97.8846 370.6 96.2699C360.922 94.6561 335.114 90.8874 329.2 89.8105C323.286 88.7351 318.456 81.8891 332.964 81.1995C342.7 80.7452 356.945 80.1241 375.978 80.1241C388.883 80.1241 387.269 59.6729 375.44 59.6729C367.173 59.6729 333.511 60.329 327.05 60.2114C320.598 60.0929 318.557 57.2337 327.587 53.215C337.266 48.9079 348.725 44.3336 358.234 40.2978C372.214 34.3776 362.628 18.3324 352.858 21.9989C344.322 25.211 325.436 32.9656 310.919 39.2216C303.493 42.4338 288.749 46.4859 296.402 36.53C301.779 29.5345 307.156 26.8428 312.531 18.7695C317.909 10.6971 306.34 2.55675 302.493 5.68556C293.89 12.6819 280.356 24.9928 267.368 32.9476C257.996 38.6807 248.009 47.759 247.388 48.3278L247.357 48.322H0L0.184494 108.708H247.352V108.648C247.352 108.648 308.341 131.303 327.047 138.249C345.865 145.245 350.168 128.023 332.426 121.564Z" fill="#FFA786"></path><path d="M31.5752 119.413C25.9939 119.413 21.4697 114.885 21.4697 109.298V47.9786C21.4697 42.3918 25.9939 37.8633 31.5752 37.8633H140.183C145.765 37.8633 150.289 42.3918 150.289 47.9786V109.298C150.289 114.885 145.765 119.413 140.183 119.413H31.5752Z" fill="#3A5677"></path><path d="M37.6764 87.6271C32.4224 87.6271 28.1636 83.3641 28.1636 78.105V54.4947C28.1636 49.2356 32.4224 44.9727 37.6764 44.9727H134.408C139.662 44.9727 143.921 49.2356 143.921 54.4947V78.105C143.921 83.3641 139.662 87.6271 134.408 87.6271H37.6764Z" fill="#4B6C8C"></path><path d="M72.4097 193.073V113.775H80.4098V193.073C80.4098 200.188 83.6295 203.333 90.8027 203.333H240.161C243.01 203.333 245.582 203.836 247.806 204.799C250.111 205.796 252.067 207.309 253.601 209.28C256.327 212.784 257.72 217.752 257.72 224.031V240.677H249.72V224.031C249.72 219.581 248.888 216.297 247.284 214.235C245.802 212.329 243.46 211.423 240.161 211.423H90.8027C85.2679 211.423 80.836 209.902 77.6359 206.939C74.1705 203.731 72.4097 199.052 72.4097 193.073Z" fill="#3A5677"></path><path d="M333.97 271.387C333.97 285.533 322.513 297 308.381 297H258.284C244.152 297 232.696 285.533 232.696 271.387V177.73C232.696 163.585 244.152 152.117 258.284 152.117H308.381C322.513 152.117 333.97 163.585 333.97 177.73V271.387Z" fill="#3A495D"></path><path d="M324.171 217.843C324.171 226.548 317.121 233.604 308.425 233.604H258.398C249.701 233.604 242.652 226.548 242.652 217.843V178.806C242.652 164.786 249.701 163.045 258.398 163.045H308.425C317.121 163.045 324.171 164.786 324.171 178.806V217.843Z" fill="#50C0E7"></path><path d="M308.425 235.329H258.398C248.765 235.329 240.928 227.484 240.928 217.842V178.805C240.928 171.774 242.657 167.029 246.215 164.298C249.634 161.672 254.292 161.318 258.398 161.318H308.425C312.53 161.318 317.188 161.672 320.608 164.298C324.166 167.029 325.895 171.774 325.895 178.805V217.842C325.896 227.484 318.058 235.329 308.425 235.329ZM258.398 164.771C254.871 164.771 250.914 165.04 248.313 167.037C245.664 169.071 244.377 172.921 244.377 178.806V217.843C244.377 225.582 250.667 231.878 258.399 231.878H308.426C316.157 231.878 322.447 225.582 322.447 217.843V178.805C322.447 172.92 321.159 169.071 318.51 167.037C315.909 165.04 311.952 164.77 308.426 164.77H258.398V164.771Z" fill="#BCCCDD"></path><path d="M247.924 268.661C247.922 268.708 247.919 268.753 247.919 268.8C247.919 268.811 247.92 268.823 247.92 268.834C247.92 268.846 247.919 268.857 247.919 268.869C247.919 268.915 247.922 268.961 247.924 269.008C248.118 278.723 261.964 281.353 279.884 281.723V255.947C261.964 256.316 248.119 258.945 247.924 268.661Z" fill="#A5C4C4"></path><path d="M281.098 282.962L279.859 282.936C264.549 282.62 246.946 280.754 246.711 269.031L246.71 269.01C246.707 268.962 246.706 268.915 246.706 268.868C246.706 268.856 246.706 268.845 246.706 268.833C246.706 268.822 246.706 268.81 246.706 268.799C246.706 268.752 246.707 268.704 246.71 268.657L246.712 268.624C246.946 256.913 264.549 255.047 279.859 254.73L281.098 254.705V282.962ZM249.133 268.873L249.137 268.971C249.217 272.97 251.999 275.826 257.642 277.717C262.423 279.319 269.31 280.223 278.671 280.478V257.19C269.31 257.444 262.423 258.349 257.642 259.951C251.999 261.841 249.218 264.699 249.138 268.685L249.134 268.795C249.134 268.806 249.134 268.816 249.134 268.827V268.833V268.84C249.134 268.851 249.134 268.862 249.133 268.873Z" fill="#E62D43"></path><path d="M315.364 268.661C315.366 268.708 315.369 268.753 315.369 268.8C315.369 268.811 315.369 268.823 315.369 268.834C315.369 268.846 315.369 268.857 315.369 268.869C315.369 268.915 315.366 268.961 315.364 269.008C315.17 278.723 301.325 281.353 283.405 281.723V255.947C301.325 256.316 315.17 258.945 315.364 268.661Z" fill="#A5C4C4"></path><path d="M282.192 282.962V254.705L283.43 254.73C298.74 255.047 316.343 256.912 316.578 268.636L316.579 268.657C316.582 268.704 316.583 268.752 316.583 268.799C316.583 268.81 316.583 268.822 316.582 268.833C316.583 268.845 316.583 268.856 316.583 268.868C316.583 268.915 316.582 268.962 316.579 269.01L316.578 269.043C316.343 280.754 298.74 282.62 283.43 282.936L282.192 282.962ZM284.619 257.189V280.478C293.979 280.223 300.866 279.318 305.647 277.716C311.29 275.826 314.071 272.969 314.151 268.981L314.156 268.868L314.155 268.833L314.156 268.796L314.151 268.696C314.071 264.697 311.289 261.84 305.647 259.949C300.866 258.349 293.978 257.444 284.619 257.189Z" fill="#E62D43"></path><path d="M247.924 268.661C247.922 268.708 247.919 268.753 247.919 268.8C247.919 268.811 247.92 268.823 247.92 268.834C247.92 268.846 247.919 268.857 247.919 268.869C247.919 268.915 247.922 268.961 247.924 269.008C248.118 278.723 261.964 281.353 279.884 281.723V255.947C261.964 256.316 248.119 258.945 247.924 268.661Z" fill="#50C0E7"></path><path d="M315.364 268.661C315.366 268.708 315.369 268.753 315.369 268.8C315.369 268.811 315.369 268.823 315.369 268.834C315.369 268.846 315.369 268.857 315.369 268.869C315.369 268.915 315.366 268.961 315.364 269.008C315.17 278.723 301.325 281.353 283.405 281.723V255.947C301.325 256.316 315.17 258.945 315.364 268.661Z" fill="#50C0E7"></path><path d="M271.894 268.554V276.6L264.932 272.577L257.97 268.554L264.932 264.531L271.894 260.508V268.554Z" fill="#F9F9F9"></path><path d="M291.395 268.554V276.6L298.357 272.577L305.318 268.554L298.357 264.531L291.395 260.508V268.554Z" fill="#F9F9F9"></path><path d="M261.538 181.985L257.895 180.397V173.634L261.538 170.904V181.985ZM261.538 193.795L257.895 191.057V184.053L261.538 182.684V193.795Z" fill="#F9F9F9"></path><path d="M287.014 172.312L285.151 173.648H272.017L276.283 170.912H285.151L287.014 172.312ZM275.66 190.574L273.824 191.942L272.016 190.574V182.684L275.66 184.052V190.574ZM288.556 182.338L285.137 183.543L276.262 183.608L272.867 182.333L276.256 180.808H285.05L288.556 182.338ZM289.387 193.788H276.281L274.416 192.388L276.281 191.052H285.912L289.387 193.788ZM289.387 181.984L285.743 180.393V174.094L287.551 172.726L289.387 174.094V181.984Z" fill="#F9F9F9"></path><path d="M296.646 180.393L293.002 181.984V174.094L294.81 172.726L296.646 174.094V180.393ZM296.646 190.574L294.81 191.942L293.002 190.574V182.684L296.646 184.052V190.574ZM307.999 172.312L306.136 173.648H297.267L295.403 172.312L297.267 170.912H306.136L307.999 172.312ZM307.999 192.388L306.136 193.788H297.267L295.403 192.388L297.267 191.052H306.136L307.999 192.388ZM310.372 181.984L306.729 180.393V174.094L308.536 172.726L310.372 174.094V181.984ZM310.372 190.574L308.536 191.942L306.729 190.574V184.052L310.372 182.684V190.574Z" fill="#F9F9F9"></path><path d="M275.66 209.912L272.016 211.503V203.613L273.824 202.245L275.66 203.613V209.912ZM275.66 220.094L273.824 221.461L272.016 220.094V212.203L275.66 213.571V220.094ZM288.541 211.85L285.167 213.118L276.263 213.127L272.863 211.851L276.354 210.327H285.05L288.541 211.85ZM287.014 201.831L285.151 203.167H276.282L274.417 201.831L276.282 200.432H285.151L287.014 201.831ZM287.014 221.907L285.151 223.307H276.282L274.417 221.907L276.282 220.571H285.151L287.014 221.907ZM289.387 211.503L285.743 209.912V203.613L287.551 202.245L289.387 203.613V211.503ZM289.387 220.094L287.551 221.461L285.743 220.094V213.571L289.387 212.203V220.094Z" fill="#F9F9F9"></path><path d="M296.646 209.912L293.002 211.503V203.613L294.81 202.245L296.646 203.613V209.912ZM296.646 220.094L294.81 221.461L293.002 220.094V212.203L296.646 213.571V220.094ZM307.999 201.831L306.136 203.167H297.267L295.403 201.831L297.267 200.432H306.136L307.999 201.831ZM307.999 221.907L306.136 223.307H297.267L295.403 221.907L297.267 220.571H306.136L307.999 221.907ZM310.372 211.503L306.729 209.912V203.613L308.536 202.245L310.372 203.613V211.503ZM310.372 220.094L308.536 221.461L306.729 220.094V213.571L310.372 212.203V220.094Z" fill="#F9F9F9"></path><path d="M291.434 245.95C291.434 248.295 289.534 250.196 287.192 250.196H278.124C275.781 250.196 273.882 248.295 273.882 245.95V245.944C273.882 243.599 275.781 241.697 278.124 241.697H287.192C289.534 241.697 291.434 243.599 291.434 245.944V245.95Z" fill="#E62D43"></path><path fill-rule="evenodd" clip-rule="evenodd" d="M261.848 209.157C260.721 208.39 258.644 208.267 257.469 209.91C256.296 208.266 254.222 208.389 253.096 209.157C251.694 210.111 250.905 212.068 251.665 213.716C252.789 216.151 256.652 218.141 257.472 219.984C258.097 218.056 262.185 216.165 263.277 213.716C264.014 212.068 263.251 210.111 261.848 209.157Z" fill="#E62D43"></path></g><rect x="467" y="171" width="296" height="79" fill="#EAFEFF"></rect><path d="M502.234 193.414L503.133 194.344C503.216 194.427 503.247 194.49 503.227 194.531C503.206 194.568 503.128 194.581 502.992 194.57C502.956 194.565 502.909 194.562 502.852 194.562C502.716 194.562 502.555 194.581 502.367 194.617C501.852 194.69 501.125 194.781 500.188 194.891C500.167 195.281 500.156 195.695 500.156 196.133C500.156 196.956 500.195 197.815 500.273 198.711H502.539C502.862 198.711 503.31 198.68 503.883 198.617V199.578C503.331 199.51 502.883 199.477 502.539 199.477H500.352C500.607 201.987 501.273 203.966 502.352 205.414C502.586 205.69 502.755 205.818 502.859 205.797C502.958 205.797 503.06 205.638 503.164 205.32C503.273 205.003 503.328 204.591 503.328 204.086C503.698 204.388 504.034 204.565 504.336 204.617C504.206 205.18 504.034 205.724 503.82 206.25C503.607 206.792 503.352 207.068 503.055 207.078C502.768 207.099 502.383 206.849 501.898 206.328C500.622 204.854 499.786 202.57 499.391 199.477H496.219V205.414C497.135 204.659 497.932 203.914 498.609 203.18C498.714 203.56 498.852 203.862 499.023 204.086C498.19 204.867 497.503 205.492 496.961 205.961C496.544 206.31 496.159 206.698 495.805 207.125L495.023 206.391C495.268 206.115 495.38 205.839 495.359 205.562V195.656C495.359 195.312 495.326 194.828 495.258 194.203C495.737 194.25 496.26 194.273 496.828 194.273C497.573 194.273 498.331 194.232 499.102 194.148C500.487 193.992 501.531 193.747 502.234 193.414ZM496.219 195.141V198.711H499.312C499.245 197.701 499.201 196.464 499.18 195C497.69 195.094 496.703 195.141 496.219 195.141ZM498.477 205.398L499.227 204.844C499.763 205.469 500.224 206.065 500.609 206.633L499.805 207.211C499.44 206.57 498.997 205.966 498.477 205.398ZM493.133 192.648L494.172 193.18C494.302 193.242 494.367 193.299 494.367 193.352C494.367 193.404 494.302 193.471 494.172 193.555C494.036 193.643 493.924 193.784 493.836 193.977C493.654 194.352 493.328 194.992 492.859 195.898V205.883C492.859 206.263 492.893 206.758 492.961 207.367H491.898C491.966 206.779 492 206.284 492 205.883V197.43C491.531 198.18 490.992 198.938 490.383 199.703C490.117 199.458 489.727 199.245 489.211 199.062C490.992 197.583 492.299 195.445 493.133 192.648ZM511.953 198.297C513.297 197.016 514.208 195.107 514.688 192.57L515.836 192.969C515.987 193.021 516.052 193.068 516.031 193.109C516.031 193.167 515.945 193.258 515.773 193.383C515.622 193.482 515.5 193.669 515.406 193.945C515.141 194.701 514.88 195.383 514.625 195.992H517.82C518.206 195.992 518.654 195.961 519.164 195.898C519.102 196.57 519.07 197.12 519.07 197.547L518.992 204.953C519.003 205.818 518.784 206.404 518.336 206.711C517.909 207.055 517.018 207.294 515.664 207.43C515.617 207.039 515.456 206.63 515.18 206.203C515.56 206.24 515.901 206.258 516.203 206.258C516.755 206.258 517.167 206.195 517.438 206.07C517.854 205.888 518.062 205.5 518.062 204.906L518.188 196.789H514.305C513.919 197.518 513.518 198.203 513.102 198.844C512.706 198.615 512.323 198.432 511.953 198.297ZM513.727 200.008L514.492 199.367C515.326 200.232 516.164 201.208 517.008 202.297L516.125 202.969C515.422 201.88 514.622 200.893 513.727 200.008ZM507.531 207H506.508C506.576 206.349 506.609 205.87 506.609 205.562V197.562C506.609 197.167 506.576 196.638 506.508 195.977C506.924 196.039 507.346 196.07 507.773 196.07C508.221 194.898 508.536 193.763 508.719 192.664L509.852 192.969C510.013 193.01 510.094 193.057 510.094 193.109C510.104 193.177 510.039 193.253 509.898 193.336C509.695 193.466 509.547 193.68 509.453 193.977C509.198 194.69 508.938 195.388 508.672 196.07H510.414C510.872 196.07 511.357 196.039 511.867 195.977C511.805 196.617 511.773 197.146 511.773 197.562V205.195C511.773 205.544 511.805 205.987 511.867 206.523H510.797C510.849 206.19 510.88 205.885 510.891 205.609H507.438C507.438 205.969 507.469 206.432 507.531 207ZM507.469 201.227V204.805H510.906V201.227H507.469ZM507.469 196.875V200.453H510.906V196.875H507.469ZM535.039 207.336H533.953C534.026 207.049 534.057 206.779 534.047 206.523V206.422H528.922V206.555C528.911 206.831 528.945 207.117 529.023 207.414H527.938C528.01 207.076 528.042 206.771 528.031 206.5V201.227C528.042 200.924 528.01 200.578 527.938 200.188C528.349 200.26 528.716 200.292 529.039 200.281H533.953C534.271 200.292 534.633 200.26 535.039 200.188C534.961 200.536 534.93 200.888 534.945 201.242V206.5C534.93 206.74 534.961 207.018 535.039 207.336ZM528.922 205.656H534.047V203.672H528.922V205.656ZM528.922 202.906H534.047V201.047H528.922V202.906ZM529.516 194.188V195.258C531.62 194.753 533.206 194.107 534.273 193.32L535.117 194.344C535.211 194.464 535.247 194.555 535.227 194.617C535.206 194.648 535.167 194.664 535.109 194.664C535.068 194.664 535.023 194.659 534.977 194.648C534.831 194.607 534.695 194.586 534.57 194.586C534.445 194.586 534.333 194.607 534.234 194.648C532.755 195.227 531.182 195.711 529.516 196.102V197.031C529.484 197.49 529.63 197.755 529.953 197.828C530.208 197.948 531.003 198.003 532.336 197.992C533.529 198.003 534.258 197.891 534.523 197.656C534.846 197.474 535.023 196.935 535.055 196.039C535.341 196.326 535.708 196.518 536.156 196.617C535.943 197.586 535.591 198.198 535.102 198.453C534.643 198.755 533.721 198.901 532.336 198.891C530.669 198.901 529.638 198.805 529.242 198.602C528.794 198.44 528.589 197.997 528.625 197.273V194.203C528.635 193.635 528.602 193.112 528.523 192.633L529.82 192.789C529.93 192.81 529.99 192.849 530 192.906C529.99 192.958 529.93 193.026 529.82 193.109C529.617 193.26 529.516 193.62 529.516 194.188ZM524.273 200.117V196.844H522.812C522.516 196.828 522.174 196.859 521.789 196.938V195.977C522.086 196.049 522.417 196.081 522.781 196.07H524.273V194.344C524.273 193.948 524.266 193.656 524.25 193.469C524.24 193.276 524.214 193.044 524.172 192.773L525.406 192.938C525.568 192.958 525.648 193 525.648 193.062C525.659 193.115 525.589 193.19 525.438 193.289C525.255 193.404 525.164 193.745 525.164 194.312V196.07H526.336C526.643 196.081 526.974 196.049 527.328 195.977V196.938C526.932 196.859 526.607 196.828 526.352 196.844H525.164V199.656C525.701 199.38 526.198 199.06 526.656 198.695L526.625 199.945C526.057 200.211 525.57 200.466 525.164 200.711V205.625C525.185 206.255 525.062 206.648 524.797 206.805C524.583 207.008 523.971 207.169 522.961 207.289C522.893 206.883 522.706 206.477 522.398 206.07C522.82 206.112 523.146 206.133 523.375 206.133C523.62 206.133 523.807 206.112 523.938 206.07C524.182 206.008 524.294 205.815 524.273 205.492V201.211C523.331 201.68 522.615 202.138 522.125 202.586L521.344 201.414C522.016 201.258 522.992 200.826 524.273 200.117ZM537.633 199.766C538.956 199.031 540.016 198.062 540.812 196.859H539.391C539.026 196.87 538.573 196.901 538.031 196.953V195.961C538.615 196.023 539.068 196.055 539.391 196.055H541.422V194.086C541.411 193.737 541.38 193.208 541.328 192.5L542.492 192.695C542.674 192.716 542.771 192.742 542.781 192.773C542.802 192.805 542.76 192.87 542.656 192.969C542.411 193.172 542.289 193.555 542.289 194.117V196.055H544.109C544.344 196.055 544.786 196.023 545.438 195.961V196.953C544.859 196.901 544.417 196.87 544.109 196.859H542.352C542.82 197.177 543.721 197.854 545.055 198.891C544.831 199.156 544.612 199.432 544.398 199.719C543.789 199.078 543.086 198.461 542.289 197.867V198.438C542.299 198.74 542.331 199.216 542.383 199.867H541.328C541.38 199.237 541.411 198.76 541.422 198.438V197.531C540.547 198.734 539.609 199.758 538.609 200.602C538.37 200.31 538.044 200.031 537.633 199.766ZM539.055 201.461H540.477C540.721 200.878 540.924 200.378 541.086 199.961L542.188 200.391C542.297 200.432 542.352 200.479 542.352 200.531C542.352 200.578 542.292 200.622 542.172 200.664C542.016 200.695 541.872 200.839 541.742 201.094L541.531 201.461H543.516C543.536 201.461 543.682 201.451 543.953 201.43C544.568 201.388 544.891 201.372 544.922 201.383C544.615 202.398 544.049 203.503 543.227 204.695C543.378 204.758 543.607 204.849 543.914 204.969C544.216 205.094 544.44 205.19 544.586 205.258C544.451 205.461 544.307 205.753 544.156 206.133C543.839 205.945 543.31 205.706 542.57 205.414C541.471 206.268 540.294 206.914 539.039 207.352C538.836 207.023 538.547 206.682 538.172 206.328C539.432 206.276 540.596 205.844 541.664 205.031C540.914 204.714 540.029 204.414 539.008 204.133C539.398 203.602 539.766 202.979 540.109 202.266H539.055C538.721 202.276 538.284 202.307 537.742 202.359V201.367C538.331 201.43 538.768 201.461 539.055 201.461ZM541.117 202.266L540.367 203.656C541.018 203.891 541.68 204.13 542.352 204.375C542.852 203.766 543.266 203.062 543.594 202.266H541.117ZM539.391 193.352C539.542 193.576 539.745 193.88 540 194.266C540.234 194.615 540.424 194.896 540.57 195.109L539.82 195.625C539.471 194.974 539.083 194.354 538.656 193.766L539.391 193.352ZM544.523 193.062L545.375 193.719C545.448 193.771 545.479 193.82 545.469 193.867C545.458 193.898 545.406 193.919 545.312 193.93C545.141 193.93 544.943 194.068 544.719 194.344C544.526 194.568 544.164 195.016 543.633 195.688C543.482 195.557 543.245 195.388 542.922 195.18C543.552 194.539 544.086 193.833 544.523 193.062ZM549.469 197.125H546.906C546.62 197.641 546.297 198.18 545.938 198.742C545.677 198.596 545.318 198.464 544.859 198.344C546.25 196.927 547.057 194.964 547.281 192.453L548.461 192.82C548.591 192.867 548.661 192.911 548.672 192.953C548.672 192.984 548.612 193.031 548.492 193.094C548.299 193.172 548.161 193.385 548.078 193.734C547.703 195.016 547.424 195.88 547.242 196.328H550.672C550.979 196.318 551.401 196.286 551.938 196.234V197.227C551.328 197.159 550.906 197.125 550.672 197.125H550.398C550.122 199.828 549.604 201.872 548.844 203.258C549.953 204.706 551.143 205.708 552.414 206.266C551.966 206.469 551.62 206.76 551.375 207.141C550.51 206.536 549.497 205.534 548.336 204.133C547.32 205.523 546.151 206.622 544.828 207.43C544.604 207.081 544.284 206.81 543.867 206.617C545.586 205.794 546.867 204.674 547.711 203.258C546.997 202.169 546.464 200.734 546.109 198.953C546.536 198.922 546.846 198.878 547.039 198.82C547.221 200.039 547.62 201.208 548.234 202.328C548.833 201.198 549.245 199.464 549.469 197.125ZM553.594 200.773V199.781C554.161 199.849 554.604 199.883 554.922 199.883H566.477C566.763 199.872 567.18 199.839 567.727 199.781V200.773C567.19 200.721 566.773 200.69 566.477 200.68H561.227V202.617H564.57C564.862 202.607 565.273 202.576 565.805 202.523V203.516C565.284 203.448 564.872 203.414 564.57 203.414H561.227V205.781C561.951 205.839 562.737 205.867 563.586 205.867C563.872 205.867 564.234 205.862 564.672 205.852C566.047 205.805 567.172 205.724 568.047 205.609C567.812 205.917 567.674 206.299 567.633 206.758C566.523 206.805 565.445 206.828 564.398 206.828C563.732 206.828 563.156 206.82 562.672 206.805C560.188 206.893 558.229 206.047 556.797 204.266C556.125 205.62 555.401 206.68 554.625 207.445C554.302 207.117 553.948 206.831 553.562 206.586C554.844 206.148 555.87 204.521 556.641 201.703L557.758 202.102C557.888 202.143 557.958 202.188 557.969 202.234C557.979 202.276 557.924 202.328 557.805 202.391C557.508 202.521 557.299 202.841 557.18 203.352C558.013 204.544 559.065 205.307 560.336 205.641V200.68H554.922C554.573 200.69 554.13 200.721 553.594 200.773ZM565.227 193.273C565.174 193.883 565.143 194.362 565.133 194.711V197.477C565.143 197.758 565.174 198.214 565.227 198.844C564.555 198.776 564.039 198.742 563.68 198.742H558C557.583 198.742 557.018 198.776 556.305 198.844C556.357 198.214 556.388 197.732 556.398 197.398V194.727C556.388 194.31 556.357 193.826 556.305 193.273C556.919 193.326 557.435 193.357 557.852 193.367H563.648C563.997 193.367 564.523 193.336 565.227 193.273ZM557.297 196.375V197.977H564.234V196.375H557.297ZM557.297 194.133V195.609H564.234V194.133H557.297ZM568.945 203.578C569.659 202.286 570.169 200.292 570.477 197.594L571.727 197.828C571.898 197.865 571.99 197.898 572 197.93C572.021 197.961 571.977 198.018 571.867 198.102C571.612 198.315 571.438 198.727 571.344 199.336C571.182 200.435 570.812 201.927 570.234 203.812C569.766 203.708 569.336 203.63 568.945 203.578ZM579.984 202.773C580.365 203.128 580.773 203.331 581.211 203.383C581.076 204.055 580.958 204.562 580.859 204.906C580.635 206.24 579.633 206.891 577.852 206.859C577.492 206.875 577.138 206.883 576.789 206.883C576.435 206.883 576.086 206.875 575.742 206.859C574.898 206.812 574.354 206.667 574.109 206.422C573.844 206.208 573.716 205.755 573.727 205.062V198.695C573.716 198.289 573.685 197.74 573.633 197.047L575.055 197.242C575.159 197.263 575.216 197.294 575.227 197.336C575.237 197.388 575.195 197.453 575.102 197.531C574.826 197.776 574.688 198.25 574.688 198.953V204.891C574.677 205.281 574.763 205.526 574.945 205.625C575.091 205.729 575.49 205.792 576.141 205.812C576.359 205.823 576.591 205.828 576.836 205.828C577.18 205.828 577.523 205.818 577.867 205.797C578.607 205.766 579.083 205.664 579.297 205.492C579.531 205.336 579.706 204.943 579.82 204.312C579.909 203.927 579.964 203.414 579.984 202.773ZM574.766 193.242L575.695 192.586C576.56 193.638 577.359 194.703 578.094 195.781L577.055 196.5C576.424 195.286 575.661 194.201 574.766 193.242ZM581.211 197.492C582.398 199.039 583.43 200.458 584.305 201.75L583.242 202.484C582.294 200.917 581.281 199.484 580.203 198.188L581.211 197.492ZM592.031 194.727C592.573 194.789 593.057 194.82 593.484 194.82H596.555C596.055 194.227 595.362 193.63 594.477 193.031L595.133 192.344C595.977 192.984 596.703 193.581 597.312 194.133L596.703 194.82H598.641C599.089 194.82 599.557 194.789 600.047 194.727V195.719C599.536 195.656 599.068 195.625 598.641 195.625H593.023V198.312C593.034 200.896 592.932 202.698 592.719 203.719C592.547 204.797 592.104 205.951 591.391 207.18C591.104 206.94 590.753 206.753 590.336 206.617C591.102 205.732 591.581 204.745 591.773 203.656C592.018 202.578 592.135 200.659 592.125 197.898V196.086C592.125 195.716 592.094 195.263 592.031 194.727ZM595.422 199.578H596.094V197.688C596.094 197.24 596.062 196.721 596 196.133L597.258 196.328C597.398 196.349 597.469 196.38 597.469 196.422C597.49 196.453 597.448 196.518 597.344 196.617C597.078 196.862 596.951 197.219 596.961 197.688V199.578H598.188C598.635 199.578 599.083 199.544 599.531 199.477V200.469C599.104 200.406 598.656 200.375 598.188 200.375H596.961V205.492H598.719C599.156 205.492 599.589 205.461 600.016 205.398V206.359C599.599 206.297 599.167 206.266 598.719 206.266H594.352C594.018 206.266 593.596 206.297 593.086 206.359V205.398C593.628 205.461 594.049 205.492 594.352 205.492H596.094V200.375H595.422C595.047 200.375 594.604 200.406 594.094 200.469V199.477C594.583 199.544 595.026 199.578 595.422 199.578ZM585.312 206.328C585.906 205.615 586.299 204.693 586.492 203.562C586.706 202.443 586.812 200.643 586.812 198.164V194.68C586.812 194.284 586.781 193.841 586.719 193.352C587.188 193.414 587.641 193.445 588.078 193.445H589.438C589.833 193.445 590.302 193.414 590.844 193.352C590.781 193.81 590.75 194.247 590.75 194.664V204.922C590.76 205.484 590.628 205.862 590.352 206.055C590.086 206.279 589.497 206.451 588.586 206.57C588.513 206.174 588.375 205.799 588.172 205.445C588.526 205.492 588.818 205.516 589.047 205.516C589.297 205.516 589.469 205.487 589.562 205.43C589.766 205.357 589.862 205.102 589.852 204.664V201.211H587.594C587.5 203.565 587.102 205.393 586.398 206.695C586.091 206.534 585.729 206.411 585.312 206.328ZM587.664 197.703C587.664 198.698 587.648 199.599 587.617 200.406H589.852V197.703H587.664ZM587.711 194.25V196.906H589.852V194.25H587.711ZM601.344 201.516C602.312 201.323 603.346 200.677 604.445 199.578C604.445 199.234 604.414 198.859 604.352 198.453L605.281 198.617C605.333 198.622 605.359 198.641 605.359 198.672C605.359 198.688 605.349 198.711 605.328 198.742C606.062 197.815 606.69 196.828 607.211 195.781H603.594C603.224 195.781 602.784 195.815 602.273 195.883V194.922C602.753 194.984 603.193 195.016 603.594 195.016H607.578C607.901 194.172 608.143 193.378 608.305 192.633L609.648 192.984C609.784 193.016 609.846 193.06 609.836 193.117C609.826 193.169 609.745 193.227 609.594 193.289C609.307 193.424 609.096 193.695 608.961 194.102C608.862 194.404 608.745 194.708 608.609 195.016H614.25C614.667 195.016 615.089 194.984 615.516 194.922V195.883C615.078 195.815 614.656 195.781 614.25 195.781H608.234C607.448 197.349 606.484 198.805 605.344 200.148V206.133C605.344 206.549 605.375 207.016 605.438 207.531H604.352C604.414 207.083 604.445 206.617 604.445 206.133V200.859C603.753 201.443 603.039 201.974 602.305 202.453C601.961 202.052 601.641 201.74 601.344 201.516ZM607.984 200.219H610.062V198.555C610.062 198.039 610.031 197.484 609.969 196.891L611.195 197.078C611.315 197.089 611.385 197.128 611.406 197.195C611.417 197.247 611.375 197.31 611.281 197.383C611.078 197.471 610.982 197.862 610.992 198.555V200.219H613.422C613.87 200.219 614.297 200.185 614.703 200.117V201.109C614.276 201.047 613.849 201.016 613.422 201.016H610.992V205.32H614.305C614.784 205.32 615.214 205.289 615.594 205.227V206.188C615.146 206.12 614.716 206.086 614.305 206.086H607.148C606.742 206.086 606.305 206.12 605.836 206.188V205.227C606.242 205.289 606.68 205.32 607.148 205.32H610.062V201.016H607.984C607.557 201.016 607.099 201.047 606.609 201.109V200.117C607.099 200.185 607.557 200.219 607.984 200.219ZM621.406 206.266C624.146 205.391 625.565 203.615 625.664 200.938C624.68 201.62 623.901 202.211 623.328 202.711L622.461 201.703C623.367 201.307 624.445 200.695 625.695 199.867V194.5C625.695 194.13 625.661 193.62 625.594 192.969L626.812 193.125C626.974 193.146 627.055 193.185 627.055 193.242C627.065 193.294 627 193.378 626.859 193.492C626.677 193.643 626.586 193.953 626.586 194.422V199.75C626.596 199.964 626.602 200.154 626.602 200.32C626.602 203.529 625.206 205.826 622.414 207.211C622.19 206.857 621.854 206.542 621.406 206.266ZM623.07 196.008L623.867 195.531C624.424 196.349 624.911 197.169 625.328 197.992L624.477 198.5C624.128 197.651 623.659 196.82 623.07 196.008ZM627.82 192.758L629.07 192.922C629.195 192.932 629.258 192.964 629.258 193.016C629.273 193.057 629.227 193.133 629.117 193.242C628.904 193.435 628.802 193.797 628.812 194.328V199.719C629.719 200.38 630.63 201.133 631.547 201.977L630.812 202.859C630.26 202.109 629.594 201.43 628.812 200.82V205.078C628.766 205.573 628.995 205.82 629.5 205.82C629.552 205.82 629.607 205.818 629.664 205.812C630.227 205.812 630.589 205.75 630.75 205.625C631.057 205.432 631.195 204.776 631.164 203.656C631.56 203.964 631.935 204.151 632.289 204.219C632.086 205.891 631.568 206.711 630.734 206.68C630.266 206.763 629.797 206.794 629.328 206.773C628.38 206.784 627.906 206.38 627.906 205.562C627.906 205.479 627.909 205.409 627.914 205.352V194.359C627.914 193.995 627.883 193.461 627.82 192.758ZM629.883 198.602C629.617 198.44 629.331 198.279 629.023 198.117C629.909 196.935 630.484 195.917 630.75 195.062L631.789 195.812C631.898 195.891 631.948 195.951 631.938 195.992C631.938 196.044 631.872 196.081 631.742 196.102C631.497 196.143 631.305 196.289 631.164 196.539C630.794 197.174 630.367 197.862 629.883 198.602ZM618.203 199.43L619.422 199.594C619.552 199.604 619.622 199.635 619.633 199.688C619.643 199.74 619.594 199.815 619.484 199.914C619.271 200.107 619.164 200.438 619.164 200.906V204.844C619.581 204.714 620.003 204.568 620.43 204.406V197.914H619.594C619.224 197.914 618.789 197.945 618.289 198.008C618.352 197.56 618.383 197.159 618.383 196.805V194.586C618.372 194.159 618.341 193.742 618.289 193.336C618.758 193.398 619.193 193.43 619.594 193.43H621.711C622.029 193.43 622.427 193.398 622.906 193.336C622.844 193.815 622.812 194.232 622.812 194.586V196.875C622.802 197.151 622.839 197.529 622.922 198.008C622.552 197.945 622.174 197.914 621.789 197.914H621.297V199.914H621.898C622.242 199.924 622.674 199.891 623.195 199.812V200.805C622.685 200.742 622.253 200.711 621.898 200.711H621.297V204.086C621.818 203.904 622.409 203.664 623.07 203.367L622.992 204.5C620.857 205.188 619.224 205.839 618.094 206.453L617.375 205.305C617.641 205.253 617.951 205.172 618.305 205.062V200.906C618.305 200.5 618.271 200.008 618.203 199.43ZM619.242 194.203V197.141H621.953V194.203H619.242ZM639.008 199.109H636.859L637.695 199.516C637.831 199.578 637.888 199.63 637.867 199.672C637.857 199.714 637.766 199.766 637.594 199.828C637.417 199.854 637.237 200.091 637.055 200.539C636.701 201.294 636.13 202.43 635.344 203.945C636.578 203.867 637.826 203.755 639.086 203.609C638.596 202.542 638.143 201.651 637.727 200.938L638.625 200.5C639.318 201.812 640.036 203.286 640.781 204.922L639.852 205.445C639.737 205.065 639.599 204.719 639.438 204.406C636.464 204.708 634.779 204.966 634.383 205.18L633.742 204.117C634.232 203.914 634.604 203.552 634.859 203.031C635.734 201.401 636.31 200.094 636.586 199.109H635.344C634.797 199.109 634.232 199.143 633.648 199.211V198.219C634.221 198.292 634.771 198.323 635.297 198.312H638.992C639.44 198.312 640.005 198.281 640.688 198.219V199.211C640.016 199.143 639.456 199.109 639.008 199.109ZM634.352 195.273V194.281C634.841 194.354 635.25 194.385 635.578 194.375H638.945C639.357 194.385 639.815 194.354 640.32 194.281V195.273C639.815 195.195 639.372 195.164 638.992 195.18H635.633C635.268 195.164 634.841 195.195 634.352 195.273ZM641.562 196.422L642.828 196.375C642.828 195.365 642.823 194.612 642.812 194.117C642.802 193.607 642.776 193.102 642.734 192.602L643.969 192.727C644.135 192.737 644.219 192.768 644.219 192.82C644.24 192.857 644.182 192.943 644.047 193.078C643.875 193.219 643.794 193.581 643.805 194.164C643.805 194.638 643.799 195.008 643.789 195.273C643.789 195.581 643.779 195.948 643.758 196.375L645.852 196.297C646.299 196.286 646.786 196.242 647.312 196.164C647.193 197.576 647.062 200.409 646.922 204.664C646.922 205.56 646.758 206.12 646.43 206.344C646.154 206.62 645.396 206.828 644.156 206.969C643.984 206.391 643.815 205.984 643.648 205.75C644.076 205.807 644.43 205.836 644.711 205.836C645.086 205.836 645.354 205.786 645.516 205.688C645.818 205.557 645.984 205.156 646.016 204.484C646.151 202.161 646.237 199.703 646.273 197.109L643.742 197.195C643.846 202.044 642.706 205.445 640.32 207.398C640.039 207.195 639.643 206.997 639.133 206.805C641.576 205.43 642.802 202.232 642.812 197.211L641.82 197.273C641.372 197.294 640.961 197.346 640.586 197.43L640.523 196.359C640.805 196.406 641.07 196.43 641.32 196.43C641.404 196.43 641.484 196.427 641.562 196.422ZM649.148 199.609C651.029 197.901 652.341 195.544 653.086 192.539L654.367 193.078C654.461 193.12 654.508 193.164 654.508 193.211C654.497 193.253 654.44 193.294 654.336 193.336C654.154 193.378 653.971 193.612 653.789 194.039C653.617 194.414 653.404 194.888 653.148 195.461C652.966 195.857 652.828 196.161 652.734 196.375V205.828C652.745 206.245 652.776 206.747 652.828 207.336H651.742C651.805 206.581 651.836 206.078 651.836 205.828V198.102C651.357 198.805 650.857 199.51 650.336 200.219C650.07 199.995 649.674 199.792 649.148 199.609ZM653.789 197.289V196.297C654.378 196.359 654.852 196.391 655.211 196.391H658.141V193.961C658.13 193.664 658.099 193.167 658.047 192.469L659.258 192.633C659.388 192.643 659.453 192.669 659.453 192.711C659.464 192.742 659.417 192.802 659.312 192.891C659.12 192.974 659.029 193.378 659.039 194.102V196.391H662.141C662.453 196.391 662.951 196.359 663.633 196.297V197.289C662.951 197.227 662.453 197.195 662.141 197.195H659.328C660.672 200.534 662.357 202.831 664.383 204.086C663.893 204.388 663.508 204.693 663.227 205C661.779 203.625 660.383 201.565 659.039 198.82V205.883C659.049 206.253 659.081 206.742 659.133 207.352H658.047C658.099 206.753 658.13 206.263 658.141 205.883V199.078C657.083 201.375 655.75 203.37 654.141 205.062C654.047 205 653.888 204.904 653.664 204.773C653.352 204.581 653.112 204.432 652.945 204.328C655.279 202.589 656.914 200.211 657.852 197.195H655.211C654.81 197.206 654.336 197.237 653.789 197.289ZM665.453 205.828C666.401 205.359 667.18 204.37 667.789 202.859L668.812 203.383C668.88 203.414 668.914 203.448 668.914 203.484C668.914 203.5 668.906 203.521 668.891 203.547C668.88 203.568 668.823 203.594 668.719 203.625C668.589 203.646 668.422 203.826 668.219 204.164C667.729 204.935 667.138 205.737 666.445 206.57C666.18 206.289 665.849 206.042 665.453 205.828ZM671.789 192.602L673.039 192.984C673.164 193.026 673.227 193.062 673.227 193.094C673.227 193.135 673.169 193.18 673.055 193.227C672.841 193.32 672.669 193.5 672.539 193.766C672.404 194.068 672.26 194.362 672.109 194.648H676.109C676.536 194.648 676.99 194.617 677.469 194.555C677.406 194.971 677.375 195.396 677.375 195.828V200.438C677.375 200.885 677.406 201.323 677.469 201.75C677.01 201.688 676.531 201.656 676.031 201.656H669.836C669.357 201.656 668.878 201.688 668.398 201.75C668.461 201.323 668.492 200.891 668.492 200.453V195.883C668.492 195.445 668.461 195.003 668.398 194.555C668.909 194.617 669.357 194.648 669.742 194.648H671.164C671.44 194.091 671.648 193.409 671.789 192.602ZM669.391 199.609V200.859H676.477V199.609H669.391ZM669.391 197.531V198.805H676.477V197.531H669.391ZM676.477 196.727V195.445H669.391V196.727H676.477ZM675.648 204.297C676.018 204.552 676.406 204.74 676.812 204.859C676.557 205.776 676.297 206.346 676.031 206.57C675.776 206.836 675.253 206.995 674.461 207.047C673.961 207.078 673.385 207.094 672.734 207.094C672.094 207.094 671.596 207.073 671.242 207.031C670.69 206.979 670.328 206.841 670.156 206.617C669.964 206.414 669.872 206.029 669.883 205.461V204.359C669.883 203.901 669.852 203.362 669.789 202.742L670.961 202.938C671.086 202.958 671.148 202.995 671.148 203.047C671.159 203.099 671.112 203.185 671.008 203.305C670.857 203.456 670.781 203.807 670.781 204.359V205.352C670.776 205.398 670.773 205.448 670.773 205.5C670.773 205.943 671.036 206.154 671.562 206.133C672.099 206.18 672.633 206.203 673.164 206.203C673.701 206.203 674.086 206.185 674.32 206.148C674.883 206.076 675.234 205.927 675.375 205.703C675.536 205.521 675.628 205.052 675.648 204.297ZM671.914 202.742L672.656 202.102C673.339 202.742 673.982 203.388 674.586 204.039L673.805 204.758C673.315 204.034 672.685 203.362 671.914 202.742ZM676.57 203.477L677.312 202.758C678.141 203.633 678.971 204.573 679.805 205.578L678.961 206.281C678.263 205.245 677.466 204.31 676.57 203.477ZM687.953 198.297C689.297 197.016 690.208 195.107 690.688 192.57L691.836 192.969C691.987 193.021 692.052 193.068 692.031 193.109C692.031 193.167 691.945 193.258 691.773 193.383C691.622 193.482 691.5 193.669 691.406 193.945C691.141 194.701 690.88 195.383 690.625 195.992H693.82C694.206 195.992 694.654 195.961 695.164 195.898C695.102 196.57 695.07 197.12 695.07 197.547L694.992 204.953C695.003 205.818 694.784 206.404 694.336 206.711C693.909 207.055 693.018 207.294 691.664 207.43C691.617 207.039 691.456 206.63 691.18 206.203C691.56 206.24 691.901 206.258 692.203 206.258C692.755 206.258 693.167 206.195 693.438 206.07C693.854 205.888 694.062 205.5 694.062 204.906L694.188 196.789H690.305C689.919 197.518 689.518 198.203 689.102 198.844C688.706 198.615 688.323 198.432 687.953 198.297ZM689.727 200.008L690.492 199.367C691.326 200.232 692.164 201.208 693.008 202.297L692.125 202.969C691.422 201.88 690.622 200.893 689.727 200.008ZM683.531 207H682.508C682.576 206.349 682.609 205.87 682.609 205.562V197.562C682.609 197.167 682.576 196.638 682.508 195.977C682.924 196.039 683.346 196.07 683.773 196.07C684.221 194.898 684.536 193.763 684.719 192.664L685.852 192.969C686.013 193.01 686.094 193.057 686.094 193.109C686.104 193.177 686.039 193.253 685.898 193.336C685.695 193.466 685.547 193.68 685.453 193.977C685.198 194.69 684.938 195.388 684.672 196.07H686.414C686.872 196.07 687.357 196.039 687.867 195.977C687.805 196.617 687.773 197.146 687.773 197.562V205.195C687.773 205.544 687.805 205.987 687.867 206.523H686.797C686.849 206.19 686.88 205.885 686.891 205.609H683.438C683.438 205.969 683.469 206.432 683.531 207ZM683.469 201.227V204.805H686.906V201.227H683.469ZM683.469 196.875V200.453H686.906V196.875H683.469ZM701.711 195.688L700.906 196.453C700.323 195.677 699.562 194.862 698.625 194.008L699.391 193.305C700.234 194.06 701.008 194.854 701.711 195.688ZM704.25 198.602C704.958 199.435 705.568 200.271 706.078 201.109L705.18 201.75C704.82 200.906 704.219 200.055 703.375 199.195L704.25 198.602ZM700.812 198.203C700.75 198.583 700.719 199.042 700.719 199.578V204.297C700.75 204.318 700.857 204.375 701.039 204.469C701.164 204.547 701.271 204.607 701.359 204.648C702.5 205.19 703.341 205.536 703.883 205.688C704.409 205.797 705.206 205.852 706.273 205.852C707.654 205.852 709.435 205.76 711.617 205.578C711.794 205.568 711.922 205.557 712 205.547C711.755 205.995 711.615 206.393 711.578 206.742C711.271 206.753 710.802 206.768 710.172 206.789C709.036 206.852 708.036 206.883 707.172 206.883C705.438 206.883 704.156 206.763 703.328 206.523C702.75 206.341 701.997 205.966 701.07 205.398C700.758 205.195 700.471 205.094 700.211 205.094C699.982 205.094 699.771 205.174 699.578 205.336C698.964 205.826 698.5 206.258 698.188 206.633C697.974 206.216 697.755 205.875 697.531 205.609C698.417 204.927 699.18 204.516 699.82 204.375V199.094H698.75C698.26 199.094 697.849 199.128 697.516 199.195V198.203C697.771 198.266 698.182 198.297 698.75 198.297H699.516C700.052 198.297 700.484 198.266 700.812 198.203ZM703.516 196.055H708.125V193.734C708.125 193.203 708.094 192.771 708.031 192.438L709.328 192.648C709.432 192.659 709.484 192.685 709.484 192.727C709.484 192.758 709.438 192.807 709.344 192.875C709.13 193.021 709.023 193.378 709.023 193.945V196.055H710.219C710.786 196.055 711.229 196.023 711.547 195.961V196.953C711.188 196.891 710.745 196.859 710.219 196.859H709.023V203.367C709.034 203.456 709.039 203.521 709.039 203.562C709.039 204.469 708.185 204.932 706.477 204.953C706.404 204.474 706.229 204.062 705.953 203.719C706.464 203.781 706.865 203.812 707.156 203.812C707.396 203.812 707.581 203.792 707.711 203.75C707.997 203.677 708.135 203.458 708.125 203.094V196.859H703.516C702.964 196.859 702.536 196.891 702.234 196.953V195.961C702.469 196.023 702.896 196.055 703.516 196.055ZM720.141 205.414H722.992V202.758H721.281C720.854 202.758 720.367 202.792 719.82 202.859V201.898C720.409 201.961 720.896 201.992 721.281 201.992H722.992V199.766H720.961C720.565 199.766 720.078 199.799 719.5 199.867V198.906C720.078 198.969 720.565 199 720.961 199H726.062C726.479 199 726.953 198.969 727.484 198.906V199.867C726.974 199.799 726.5 199.766 726.062 199.766H723.883V201.992H725.648C726.049 201.992 726.508 201.961 727.023 201.898V202.859C726.523 202.792 726.065 202.758 725.648 202.758H723.883V205.414H726.781C727.229 205.414 727.688 205.383 728.156 205.32V206.25C727.667 206.182 727.208 206.148 726.781 206.148H720.141C719.724 206.148 719.234 206.182 718.672 206.25V205.32C719.255 205.383 719.745 205.414 720.141 205.414ZM720.25 193.32C720.828 193.383 721.305 193.414 721.68 193.414H725.258C725.721 193.414 726.229 193.383 726.781 193.32C726.719 193.862 726.688 194.32 726.688 194.695V196.164C726.688 196.581 726.719 197.031 726.781 197.516C726.24 197.448 725.732 197.414 725.258 197.414H721.664C721.237 197.414 720.766 197.448 720.25 197.516C720.318 197.042 720.352 196.586 720.352 196.148V194.711C720.352 194.315 720.318 193.852 720.25 193.32ZM721.211 194.188V196.648H725.82V194.188H721.211ZM716.305 197.961H715.297C714.823 197.961 714.336 197.992 713.836 198.055V197.094C714.424 197.161 714.911 197.195 715.297 197.195H716.398V194.539C715.831 194.654 715.122 194.76 714.273 194.859C714.164 194.505 714.013 194.151 713.82 193.797C714.128 193.818 714.409 193.828 714.664 193.828C716.247 193.828 717.656 193.51 718.891 192.875L719.5 193.672C719.625 193.833 719.688 193.94 719.688 193.992C719.688 194.008 719.685 194.018 719.68 194.023C719.674 194.044 719.643 194.055 719.586 194.055C719.523 194.055 719.438 194.044 719.328 194.023C719.255 194.013 719.18 194.008 719.102 194.008C718.935 194.008 718.747 194.029 718.539 194.07C718.18 194.159 717.753 194.25 717.258 194.344V197.195H718.273C718.742 197.195 719.206 197.161 719.664 197.094V198.055C719.096 197.992 718.633 197.961 718.273 197.961H717.258V198.586C718.049 199.237 718.862 199.945 719.695 200.711L719.023 201.656C718.586 200.974 717.997 200.328 717.258 199.719V205.609C717.258 206.078 717.292 206.583 717.359 207.125H716.305C716.367 206.615 716.398 206.109 716.398 205.609V200.188C715.919 201.25 715.279 202.464 714.477 203.828C714.117 203.604 713.745 203.424 713.359 203.289C714.552 202.19 715.534 200.414 716.305 197.961ZM497.242 217.945V219.719H501.5C501.844 219.729 502.224 219.698 502.641 219.625C502.562 220 502.529 220.362 502.539 220.711V225.516C502.529 225.854 502.562 226.182 502.641 226.5H501.547C501.625 226.182 501.659 225.901 501.648 225.656H497.242V230.039C497.232 230.487 497.266 230.914 497.344 231.32H496.219C496.297 230.935 496.331 230.518 496.32 230.07V225.656H491.969C491.958 226.021 491.99 226.388 492.062 226.758H490.977C491.049 226.378 491.081 225.99 491.07 225.594V220.68C491.081 220.372 491.049 220.021 490.977 219.625C491.424 219.698 491.807 219.729 492.125 219.719H496.32V217.898C496.331 217.471 496.297 217.023 496.219 216.555L497.438 216.711C497.557 216.721 497.622 216.747 497.633 216.789C497.643 216.81 497.594 216.87 497.484 216.969C497.302 217.073 497.221 217.398 497.242 217.945ZM496.32 220.555H491.969V224.82H496.32V220.555ZM497.242 220.555V224.82H501.648V220.555H497.242ZM505.195 229.18C507.534 227.909 508.852 225.56 509.148 222.133H507.328C507.047 222.133 506.646 222.161 506.125 222.219C506.073 222.229 506.042 222.234 506.031 222.234V221.289C506.438 221.341 506.87 221.367 507.328 221.367H508.844C509.292 221.367 509.75 221.341 510.219 221.289C509.922 225.169 508.622 228.005 506.32 229.797C505.997 229.562 505.622 229.357 505.195 229.18ZM513.297 220.891V221.367H513.984C514.411 221.367 514.849 221.336 515.297 221.273V222.234C514.823 222.167 514.385 222.133 513.984 222.133H513.297V223.719H513.711C514.169 223.719 514.602 223.688 515.008 223.625V224.586C514.581 224.518 514.148 224.484 513.711 224.484H513.297V226.203H514.305C514.763 226.203 515.193 226.169 515.594 226.102V227.062C515.135 227 514.706 226.969 514.305 226.969H513.297V229.562C513.307 230.224 513.125 230.672 512.75 230.906C512.385 231.161 511.719 231.273 510.75 231.242C510.677 230.815 510.539 230.414 510.336 230.039C510.826 230.107 511.221 230.141 511.523 230.141C511.747 230.141 511.911 230.122 512.016 230.086C512.281 230.023 512.409 229.81 512.398 229.445V226.969H511.438C511.01 226.969 510.578 227 510.141 227.062V226.102C510.62 226.169 511.052 226.203 511.438 226.203H512.398V224.484H512.078C511.703 224.484 511.245 224.518 510.703 224.586V223.625C511.245 223.688 511.703 223.719 512.078 223.719H512.398V222.133H511.953C511.526 222.133 511.089 222.167 510.641 222.234V221.273C511.161 221.336 511.599 221.367 511.953 221.367H512.398C512.398 221.029 512.367 220.651 512.305 220.234C513.378 219.922 514.604 219.245 515.984 218.203H508.641C508.214 218.203 507.776 218.234 507.328 218.297V217.336C507.818 217.398 508.255 217.43 508.641 217.43H516.875C517.354 217.43 517.898 217.398 518.508 217.336C516.758 218.862 515.021 220.047 513.297 220.891ZM516.031 223.305C517.266 222.44 518.167 221.635 518.734 220.891L519.5 221.734C519.651 221.906 519.727 222.013 519.727 222.055C519.737 222.096 519.667 222.117 519.516 222.117C519.229 222.096 518.914 222.224 518.57 222.5C517.836 223.057 517.086 223.607 516.32 224.148C517.034 226.305 518.312 228.003 520.156 229.242C519.677 229.435 519.294 229.638 519.008 229.852C516.961 228.023 515.583 225.617 514.875 222.633L515.883 222.219C515.872 222.312 515.867 222.398 515.867 222.477C515.867 222.763 515.922 223.039 516.031 223.305ZM528.094 228.234C527.312 227.531 526.513 226.453 525.695 225H525.633C525.32 225.01 524.945 225.042 524.508 225.094V224.133C524.977 224.19 525.372 224.224 525.695 224.234H531.68C532.039 224.234 532.461 224.206 532.945 224.148C531.836 225.857 530.732 227.219 529.633 228.234C531.628 229.417 533.659 229.997 535.727 229.977C535.341 230.404 535.062 230.846 534.891 231.305C532.281 230.664 530.276 229.849 528.875 228.859C526.849 230.182 524.747 230.992 522.57 231.289C522.393 230.732 522.169 230.336 521.898 230.102C524.096 230.112 526.161 229.49 528.094 228.234ZM531.18 225H526.766C527.286 226.057 527.99 226.943 528.875 227.656C529.771 226.922 530.539 226.036 531.18 225ZM522.367 221.898C522.997 221.961 523.492 221.992 523.852 221.992H530.688C531.797 220.701 532.628 219.505 533.18 218.406L534.156 219.141C534.276 219.229 534.336 219.299 534.336 219.352C534.336 219.404 534.271 219.44 534.141 219.461C533.865 219.508 533.672 219.615 533.562 219.781C533.359 220.036 533.052 220.422 532.641 220.938C532.286 221.385 532.003 221.737 531.789 221.992H533.836C534.211 221.982 534.729 221.951 535.391 221.898C535.328 222.492 535.297 222.945 535.297 223.258V223.398C535.307 223.685 535.339 224.107 535.391 224.664H534.305C534.367 224.065 534.398 223.643 534.398 223.398V222.758H523.359V223.383C523.359 223.68 523.391 224.128 523.453 224.727H522.367C522.43 224.128 522.461 223.68 522.461 223.383V223.242C522.451 222.867 522.419 222.419 522.367 221.898ZM523.148 217.367C524.029 217.523 525.159 217.602 526.539 217.602C527.331 217.602 528.169 217.578 529.055 217.531C531.357 217.37 532.914 217.091 533.727 216.695L534.461 217.703C534.513 217.781 534.539 217.844 534.539 217.891C534.539 217.911 534.534 217.93 534.523 217.945C534.497 217.977 534.464 217.992 534.422 217.992C534.391 217.992 534.346 217.982 534.289 217.961C534.227 217.94 534.138 217.93 534.023 217.93C533.893 217.93 533.688 217.945 533.406 217.977C533.344 217.987 533.289 217.992 533.242 217.992C531.346 218.195 529.69 218.333 528.273 218.406C527.555 218.448 526.833 218.474 526.109 218.484C525.75 218.49 525.37 218.492 524.969 218.492C524.562 218.492 524.133 218.49 523.68 218.484C523.57 218.073 523.393 217.701 523.148 217.367ZM524.844 219C525.411 219.682 526 220.43 526.609 221.242L525.773 221.828C525.195 220.958 524.625 220.203 524.062 219.562L524.844 219ZM530.188 221.227L529.297 221.688C528.891 220.823 528.453 220.018 527.984 219.273L528.844 218.789C529.271 219.518 529.719 220.331 530.188 221.227ZM543.953 222.297C545.297 221.016 546.208 219.107 546.688 216.57L547.836 216.969C547.987 217.021 548.052 217.068 548.031 217.109C548.031 217.167 547.945 217.258 547.773 217.383C547.622 217.482 547.5 217.669 547.406 217.945C547.141 218.701 546.88 219.383 546.625 219.992H549.82C550.206 219.992 550.654 219.961 551.164 219.898C551.102 220.57 551.07 221.12 551.07 221.547L550.992 228.953C551.003 229.818 550.784 230.404 550.336 230.711C549.909 231.055 549.018 231.294 547.664 231.43C547.617 231.039 547.456 230.63 547.18 230.203C547.56 230.24 547.901 230.258 548.203 230.258C548.755 230.258 549.167 230.195 549.438 230.07C549.854 229.888 550.062 229.5 550.062 228.906L550.188 220.789H546.305C545.919 221.518 545.518 222.203 545.102 222.844C544.706 222.615 544.323 222.432 543.953 222.297ZM545.727 224.008L546.492 223.367C547.326 224.232 548.164 225.208 549.008 226.297L548.125 226.969C547.422 225.88 546.622 224.893 545.727 224.008ZM539.531 231H538.508C538.576 230.349 538.609 229.87 538.609 229.562V221.562C538.609 221.167 538.576 220.638 538.508 219.977C538.924 220.039 539.346 220.07 539.773 220.07C540.221 218.898 540.536 217.763 540.719 216.664L541.852 216.969C542.013 217.01 542.094 217.057 542.094 217.109C542.104 217.177 542.039 217.253 541.898 217.336C541.695 217.466 541.547 217.68 541.453 217.977C541.198 218.69 540.938 219.388 540.672 220.07H542.414C542.872 220.07 543.357 220.039 543.867 219.977C543.805 220.617 543.773 221.146 543.773 221.562V229.195C543.773 229.544 543.805 229.987 543.867 230.523H542.797C542.849 230.19 542.88 229.885 542.891 229.609H539.438C539.438 229.969 539.469 230.432 539.531 231ZM539.469 225.227V228.805H542.906V225.227H539.469ZM539.469 220.875V224.453H542.906V220.875H539.469ZM566.672 222.953H560.523V227.852C560.633 227.815 560.794 227.776 561.008 227.734C561.273 227.682 561.453 227.641 561.547 227.609C561.495 227.833 561.443 228.13 561.391 228.5C561.38 228.547 561.375 228.581 561.375 228.602C561.224 228.612 561.031 228.643 560.797 228.695C560.682 228.716 560.591 228.732 560.523 228.742V229.898C560.523 230.44 560.557 230.888 560.625 231.242H559.531C559.599 230.706 559.633 230.253 559.633 229.883V228.922C557.414 229.281 555.68 229.628 554.43 229.961C554.409 229.841 554.266 229.469 554 228.844C554.542 228.828 555.091 228.779 555.648 228.695V222.953H554.75C554.432 222.953 554.021 222.984 553.516 223.047V222.086C553.87 222.154 554.281 222.188 554.75 222.188H566.672C567.089 222.188 567.503 222.164 567.914 222.117V223.047C567.466 222.984 567.052 222.953 566.672 222.953ZM559.633 228.039V226.938H556.539V228.57C557.331 228.482 558.362 228.305 559.633 228.039ZM556.539 225.062V226.234H559.633V225.062H556.539ZM556.539 222.953V224.328H559.633V222.953H556.539ZM561.406 225.047C561.385 225.047 561.359 225.047 561.328 225.047C561.198 225.057 561.026 225.078 560.812 225.109V224.148C560.844 224.148 560.893 224.154 560.961 224.164C561.419 224.221 561.786 224.25 562.062 224.25H565.469C565.938 224.25 566.365 224.216 566.75 224.148C566.271 225.549 565.539 226.896 564.555 228.188C565.529 229.016 566.607 229.581 567.789 229.883C567.414 230.128 567.104 230.458 566.859 230.875C565.677 230.214 564.714 229.552 563.969 228.891C563.26 229.594 562.37 230.281 561.297 230.953C561.188 230.62 560.969 230.294 560.641 229.977C561.682 229.622 562.583 229.047 563.344 228.25C562.573 227.375 561.927 226.307 561.406 225.047ZM556.219 217.062C556.542 217.125 556.927 217.156 557.375 217.156H564.367C564.753 217.156 565.18 217.125 565.648 217.062C565.581 217.589 565.547 218.062 565.547 218.484V220.008C565.547 220.477 565.581 220.945 565.648 221.414C565.232 221.352 564.799 221.32 564.352 221.32H557.391C556.995 221.32 556.599 221.352 556.203 221.414C556.281 221.096 556.315 220.664 556.305 220.117V218.422C556.305 217.974 556.276 217.521 556.219 217.062ZM557.195 217.93V218.844H564.656V217.93H557.195ZM557.195 219.609V220.555H564.656V219.609H557.195ZM563.938 227.516C564.594 226.641 565.078 225.807 565.391 225.016H562.398C562.737 225.87 563.25 226.703 563.938 227.516ZM569.469 227.992C570.75 226.893 571.69 224.471 572.289 220.727L573.68 221.18C573.773 221.211 573.815 221.242 573.805 221.273C573.805 221.315 573.753 221.367 573.648 221.43C573.336 221.612 573.112 222.018 572.977 222.648C572.43 224.919 571.682 226.844 570.734 228.422C570.318 228.24 569.896 228.096 569.469 227.992ZM574.922 231.398C574.807 230.836 574.633 230.393 574.398 230.07C574.909 230.154 575.312 230.195 575.609 230.195C575.812 230.195 575.969 230.174 576.078 230.133C576.354 230.06 576.487 229.81 576.477 229.383V218.266C576.466 217.891 576.435 217.393 576.383 216.773L577.633 216.953C577.737 216.974 577.794 217 577.805 217.031C577.815 217.062 577.779 217.117 577.695 217.195C577.503 217.341 577.406 217.677 577.406 218.203V229.945C577.427 230.435 577.284 230.76 576.977 230.922C576.695 231.104 576.01 231.263 574.922 231.398ZM579.852 221.445L580.844 220.953C582.021 223.224 583.013 225.469 583.82 227.688L582.828 228.188C582.083 225.755 581.091 223.508 579.852 221.445ZM591.953 222.297C593.297 221.016 594.208 219.107 594.688 216.57L595.836 216.969C595.987 217.021 596.052 217.068 596.031 217.109C596.031 217.167 595.945 217.258 595.773 217.383C595.622 217.482 595.5 217.669 595.406 217.945C595.141 218.701 594.88 219.383 594.625 219.992H597.82C598.206 219.992 598.654 219.961 599.164 219.898C599.102 220.57 599.07 221.12 599.07 221.547L598.992 228.953C599.003 229.818 598.784 230.404 598.336 230.711C597.909 231.055 597.018 231.294 595.664 231.43C595.617 231.039 595.456 230.63 595.18 230.203C595.56 230.24 595.901 230.258 596.203 230.258C596.755 230.258 597.167 230.195 597.438 230.07C597.854 229.888 598.062 229.5 598.062 228.906L598.188 220.789H594.305C593.919 221.518 593.518 222.203 593.102 222.844C592.706 222.615 592.323 222.432 591.953 222.297ZM593.727 224.008L594.492 223.367C595.326 224.232 596.164 225.208 597.008 226.297L596.125 226.969C595.422 225.88 594.622 224.893 593.727 224.008ZM587.531 231H586.508C586.576 230.349 586.609 229.87 586.609 229.562V221.562C586.609 221.167 586.576 220.638 586.508 219.977C586.924 220.039 587.346 220.07 587.773 220.07C588.221 218.898 588.536 217.763 588.719 216.664L589.852 216.969C590.013 217.01 590.094 217.057 590.094 217.109C590.104 217.177 590.039 217.253 589.898 217.336C589.695 217.466 589.547 217.68 589.453 217.977C589.198 218.69 588.938 219.388 588.672 220.07H590.414C590.872 220.07 591.357 220.039 591.867 219.977C591.805 220.617 591.773 221.146 591.773 221.562V229.195C591.773 229.544 591.805 229.987 591.867 230.523H590.797C590.849 230.19 590.88 229.885 590.891 229.609H587.438C587.438 229.969 587.469 230.432 587.531 231ZM587.469 225.227V228.805H590.906V225.227H587.469ZM587.469 220.875V224.453H590.906V220.875H587.469ZM601.211 230.859C602.013 230.188 602.568 229.237 602.875 228.008C603.188 226.836 603.339 224.995 603.328 222.484V219.562C603.328 218.953 603.294 218.471 603.227 218.117C603.549 218.185 604.016 218.219 604.625 218.219H614.141C614.75 218.219 615.177 218.185 615.422 218.117V219.125C614.953 219.052 614.526 219.016 614.141 219.016H604.25V222.5C604.266 224.818 604.138 226.573 603.867 227.766C603.622 229.005 603.138 230.216 602.414 231.398C601.945 231.122 601.544 230.943 601.211 230.859ZM604 230.711V229.719C604.349 229.781 604.776 229.812 605.281 229.812H609.328V224.328H606.688C606.12 224.328 605.714 224.359 605.469 224.422V223.43C605.745 223.497 606.161 223.531 606.719 223.531H609.328V221.305C609.328 220.758 609.294 220.336 609.227 220.039L610.336 220.203C610.471 220.214 610.539 220.234 610.539 220.266C610.549 220.297 610.503 220.365 610.398 220.469C610.289 220.536 610.24 220.729 610.25 221.047V223.531H612.766C613.396 223.531 613.828 223.497 614.062 223.43V224.422C613.786 224.359 613.354 224.328 612.766 224.328H610.25V229.812H614.703C615.286 229.812 615.703 229.781 615.953 229.719V230.711C615.641 230.648 615.224 230.617 614.703 230.617H605.258C604.737 230.617 604.318 230.648 604 230.711ZM611.422 225.914L612.219 225.352C613.021 226.31 613.727 227.271 614.336 228.234L613.5 228.844C612.938 227.797 612.245 226.82 611.422 225.914ZM617.914 230.555C621.477 229.081 623.339 225.997 623.5 221.305L620.492 221.383C619.992 221.383 619.503 221.438 619.023 221.547L618.961 220.484C619.159 220.531 619.339 220.555 619.5 220.555C619.573 220.56 619.674 220.562 619.805 220.562C619.935 220.562 620.096 220.56 620.289 220.555L623.531 220.484C623.521 218.458 623.479 217.159 623.406 216.586L624.688 216.773C624.844 216.794 624.922 216.839 624.922 216.906C624.938 216.958 624.865 217.049 624.703 217.18C624.594 217.305 624.534 217.581 624.523 218.008C624.523 218.773 624.503 219.594 624.461 220.469L628.859 220.344C629.375 220.344 629.862 220.302 630.32 220.219C630.232 220.688 630.081 223.289 629.867 228.023C629.846 229.367 629.638 230.172 629.242 230.438C628.945 230.781 627.987 230.995 626.367 231.078C626.357 230.672 626.229 230.229 625.984 229.75C626.526 229.854 626.982 229.906 627.352 229.906C628.341 229.906 628.839 229.568 628.844 228.891C629.078 225.635 629.211 223.047 629.242 221.125L624.445 221.258C624.284 225.779 622.471 229.18 619.008 231.461C618.716 231.091 618.352 230.789 617.914 230.555Z" fill="#26929D"></path><rect x="467" y="17" width="296" height="89" fill="#EAFEFF"></rect><path d="M490.492 50.1875C491.003 50.25 491.466 50.2812 491.883 50.2812H501.438C501.771 50.2917 502.219 50.2604 502.781 50.1875C502.719 50.7188 502.688 51.1484 502.688 51.4766V55.5625C502.708 56.2656 502.547 56.7135 502.203 56.9062C501.917 57.1406 501.188 57.2995 500.016 57.3828C499.964 56.9766 499.802 56.5833 499.531 56.2031C500.016 56.2656 500.404 56.2969 500.695 56.2969C500.966 56.2969 501.219 56.2578 501.453 56.1797C501.688 56.1068 501.799 55.8854 501.789 55.5156V51.0781H491.484V55.9297C491.484 56.2682 491.516 56.7422 491.578 57.3516H490.492C490.555 56.7839 490.586 56.3099 490.586 55.9297V51.6406C490.586 51.3073 490.555 50.8229 490.492 50.1875ZM499.773 52.1172C499.711 52.5651 499.68 52.9766 499.68 53.3516V54.0859C499.68 54.3984 499.711 54.7943 499.773 55.2734C499.253 55.2109 498.836 55.1797 498.523 55.1797H494.586C494.237 55.1797 493.789 55.2109 493.242 55.2734C493.32 54.7578 493.354 54.3672 493.344 54.1016V53.3516C493.344 53.0651 493.31 52.6536 493.242 52.1172C493.81 52.1849 494.258 52.2188 494.586 52.2188H498.523C498.836 52.2188 499.253 52.1849 499.773 52.1172ZM494.203 52.9844V54.4062H498.812V52.9844H494.203ZM491.148 44.4531H496.977C496.581 44.0365 496.026 43.5938 495.312 43.125L495.938 42.4062C496.62 42.8646 497.286 43.3724 497.938 43.9297L497.484 44.4531H502.398C502.784 44.4531 503.221 44.4219 503.711 44.3594V45.3516C503.221 45.2891 502.784 45.2578 502.398 45.2578H491.148C490.773 45.2578 490.341 45.2891 489.852 45.3516V44.3594C490.357 44.4219 490.789 44.4531 491.148 44.4531ZM500.734 46.2031C500.672 46.7135 500.641 47.1328 500.641 47.4609V48.2031C500.641 48.4792 500.672 48.8828 500.734 49.4141C500.234 49.3516 499.792 49.3203 499.406 49.3203H493.938C493.594 49.3203 493.156 49.3516 492.625 49.4141C492.688 48.9974 492.719 48.6198 492.719 48.2812V47.4609C492.719 47.1432 492.688 46.724 492.625 46.2031C493.135 46.2656 493.573 46.2969 493.938 46.2969H499.359C499.755 46.2969 500.214 46.2656 500.734 46.2031ZM493.617 47.0938V48.5234H499.742V47.0938H493.617ZM511.953 48.2969C513.297 47.0156 514.208 45.1068 514.688 42.5703L515.836 42.9688C515.987 43.0208 516.052 43.0677 516.031 43.1094C516.031 43.1667 515.945 43.2578 515.773 43.3828C515.622 43.4818 515.5 43.6693 515.406 43.9453C515.141 44.7005 514.88 45.3828 514.625 45.9922H517.82C518.206 45.9922 518.654 45.9609 519.164 45.8984C519.102 46.5703 519.07 47.1198 519.07 47.5469L518.992 54.9531C519.003 55.8177 518.784 56.4036 518.336 56.7109C517.909 57.0547 517.018 57.2943 515.664 57.4297C515.617 57.0391 515.456 56.6302 515.18 56.2031C515.56 56.2396 515.901 56.2578 516.203 56.2578C516.755 56.2578 517.167 56.1953 517.438 56.0703C517.854 55.888 518.062 55.5 518.062 54.9062L518.188 46.7891H514.305C513.919 47.5182 513.518 48.2031 513.102 48.8438C512.706 48.6146 512.323 48.4323 511.953 48.2969ZM513.727 50.0078L514.492 49.3672C515.326 50.2318 516.164 51.2083 517.008 52.2969L516.125 52.9688C515.422 51.8802 514.622 50.8932 513.727 50.0078ZM507.531 57H506.508C506.576 56.349 506.609 55.8698 506.609 55.5625V47.5625C506.609 47.1667 506.576 46.638 506.508 45.9766C506.924 46.0391 507.346 46.0703 507.773 46.0703C508.221 44.8984 508.536 43.763 508.719 42.6641L509.852 42.9688C510.013 43.0104 510.094 43.0573 510.094 43.1094C510.104 43.1771 510.039 43.2526 509.898 43.3359C509.695 43.4661 509.547 43.6797 509.453 43.9766C509.198 44.6901 508.938 45.388 508.672 46.0703H510.414C510.872 46.0703 511.357 46.0391 511.867 45.9766C511.805 46.6172 511.773 47.1458 511.773 47.5625V55.1953C511.773 55.5443 511.805 55.987 511.867 56.5234H510.797C510.849 56.1901 510.88 55.8854 510.891 55.6094H507.438C507.438 55.9688 507.469 56.4323 507.531 57ZM507.469 51.2266V54.8047H510.906V51.2266H507.469ZM507.469 46.875V50.4531H510.906V46.875H507.469ZM535.039 57.3359H533.953C534.026 57.0495 534.057 56.7786 534.047 56.5234V56.4219H528.922V56.5547C528.911 56.8307 528.945 57.1172 529.023 57.4141H527.938C528.01 57.0755 528.042 56.7708 528.031 56.5V51.2266C528.042 50.9245 528.01 50.5781 527.938 50.1875C528.349 50.2604 528.716 50.2917 529.039 50.2812H533.953C534.271 50.2917 534.633 50.2604 535.039 50.1875C534.961 50.5365 534.93 50.888 534.945 51.2422V56.5C534.93 56.7396 534.961 57.0182 535.039 57.3359ZM528.922 55.6562H534.047V53.6719H528.922V55.6562ZM528.922 52.9062H534.047V51.0469H528.922V52.9062ZM529.516 44.1875V45.2578C531.62 44.7526 533.206 44.1068 534.273 43.3203L535.117 44.3438C535.211 44.4635 535.247 44.5547 535.227 44.6172C535.206 44.6484 535.167 44.6641 535.109 44.6641C535.068 44.6641 535.023 44.6589 534.977 44.6484C534.831 44.6068 534.695 44.5859 534.57 44.5859C534.445 44.5859 534.333 44.6068 534.234 44.6484C532.755 45.2266 531.182 45.7109 529.516 46.1016V47.0312C529.484 47.4896 529.63 47.7552 529.953 47.8281C530.208 47.9479 531.003 48.0026 532.336 47.9922C533.529 48.0026 534.258 47.8906 534.523 47.6562C534.846 47.474 535.023 46.9349 535.055 46.0391C535.341 46.3255 535.708 46.5182 536.156 46.6172C535.943 47.5859 535.591 48.1979 535.102 48.4531C534.643 48.7552 533.721 48.901 532.336 48.8906C530.669 48.901 529.638 48.8047 529.242 48.6016C528.794 48.4401 528.589 47.9974 528.625 47.2734V44.2031C528.635 43.6354 528.602 43.112 528.523 42.6328L529.82 42.7891C529.93 42.8099 529.99 42.849 530 42.9062C529.99 42.9583 529.93 43.026 529.82 43.1094C529.617 43.2604 529.516 43.6198 529.516 44.1875ZM524.273 50.1172V46.8438H522.812C522.516 46.8281 522.174 46.8594 521.789 46.9375V45.9766C522.086 46.0495 522.417 46.0807 522.781 46.0703H524.273V44.3438C524.273 43.9479 524.266 43.6562 524.25 43.4688C524.24 43.276 524.214 43.0443 524.172 42.7734L525.406 42.9375C525.568 42.9583 525.648 43 525.648 43.0625C525.659 43.1146 525.589 43.1901 525.438 43.2891C525.255 43.4036 525.164 43.7448 525.164 44.3125V46.0703H526.336C526.643 46.0807 526.974 46.0495 527.328 45.9766V46.9375C526.932 46.8594 526.607 46.8281 526.352 46.8438H525.164V49.6562C525.701 49.3802 526.198 49.0599 526.656 48.6953L526.625 49.9453C526.057 50.2109 525.57 50.4661 525.164 50.7109V55.625C525.185 56.2552 525.062 56.6484 524.797 56.8047C524.583 57.0078 523.971 57.1693 522.961 57.2891C522.893 56.8828 522.706 56.4766 522.398 56.0703C522.82 56.112 523.146 56.1328 523.375 56.1328C523.62 56.1328 523.807 56.112 523.938 56.0703C524.182 56.0078 524.294 55.8151 524.273 55.4922V51.2109C523.331 51.6797 522.615 52.138 522.125 52.5859L521.344 51.4141C522.016 51.2578 522.992 50.8255 524.273 50.1172ZM537.633 49.7656C538.956 49.0312 540.016 48.0625 540.812 46.8594H539.391C539.026 46.8698 538.573 46.901 538.031 46.9531V45.9609C538.615 46.0234 539.068 46.0547 539.391 46.0547H541.422V44.0859C541.411 43.737 541.38 43.2083 541.328 42.5L542.492 42.6953C542.674 42.7161 542.771 42.7422 542.781 42.7734C542.802 42.8047 542.76 42.8698 542.656 42.9688C542.411 43.1719 542.289 43.5547 542.289 44.1172V46.0547H544.109C544.344 46.0547 544.786 46.0234 545.438 45.9609V46.9531C544.859 46.901 544.417 46.8698 544.109 46.8594H542.352C542.82 47.1771 543.721 47.8542 545.055 48.8906C544.831 49.1562 544.612 49.4323 544.398 49.7188C543.789 49.0781 543.086 48.4609 542.289 47.8672V48.4375C542.299 48.7396 542.331 49.2161 542.383 49.8672H541.328C541.38 49.237 541.411 48.7604 541.422 48.4375V47.5312C540.547 48.7344 539.609 49.7578 538.609 50.6016C538.37 50.3099 538.044 50.0312 537.633 49.7656ZM539.055 51.4609H540.477C540.721 50.8776 540.924 50.3776 541.086 49.9609L542.188 50.3906C542.297 50.4323 542.352 50.4792 542.352 50.5312C542.352 50.5781 542.292 50.6224 542.172 50.6641C542.016 50.6953 541.872 50.8385 541.742 51.0938L541.531 51.4609H543.516C543.536 51.4609 543.682 51.4505 543.953 51.4297C544.568 51.388 544.891 51.3724 544.922 51.3828C544.615 52.3984 544.049 53.5026 543.227 54.6953C543.378 54.7578 543.607 54.849 543.914 54.9688C544.216 55.0938 544.44 55.1901 544.586 55.2578C544.451 55.4609 544.307 55.7526 544.156 56.1328C543.839 55.9453 543.31 55.7057 542.57 55.4141C541.471 56.2682 540.294 56.9141 539.039 57.3516C538.836 57.0234 538.547 56.6823 538.172 56.3281C539.432 56.276 540.596 55.8438 541.664 55.0312C540.914 54.7135 540.029 54.4141 539.008 54.1328C539.398 53.6016 539.766 52.9792 540.109 52.2656H539.055C538.721 52.276 538.284 52.3073 537.742 52.3594V51.3672C538.331 51.4297 538.768 51.4609 539.055 51.4609ZM541.117 52.2656L540.367 53.6562C541.018 53.8906 541.68 54.1302 542.352 54.375C542.852 53.7656 543.266 53.0625 543.594 52.2656H541.117ZM539.391 43.3516C539.542 43.5755 539.745 43.8802 540 44.2656C540.234 44.6146 540.424 44.8958 540.57 45.1094L539.82 45.625C539.471 44.974 539.083 44.3542 538.656 43.7656L539.391 43.3516ZM544.523 43.0625L545.375 43.7188C545.448 43.7708 545.479 43.8203 545.469 43.8672C545.458 43.8984 545.406 43.9193 545.312 43.9297C545.141 43.9297 544.943 44.0677 544.719 44.3438C544.526 44.5677 544.164 45.0156 543.633 45.6875C543.482 45.5573 543.245 45.388 542.922 45.1797C543.552 44.5391 544.086 43.8333 544.523 43.0625ZM549.469 47.125H546.906C546.62 47.6406 546.297 48.1797 545.938 48.7422C545.677 48.5964 545.318 48.4635 544.859 48.3438C546.25 46.9271 547.057 44.9635 547.281 42.4531L548.461 42.8203C548.591 42.8672 548.661 42.9115 548.672 42.9531C548.672 42.9844 548.612 43.0312 548.492 43.0938C548.299 43.1719 548.161 43.3854 548.078 43.7344C547.703 45.0156 547.424 45.8802 547.242 46.3281H550.672C550.979 46.3177 551.401 46.2865 551.938 46.2344V47.2266C551.328 47.1589 550.906 47.125 550.672 47.125H550.398C550.122 49.8281 549.604 51.8724 548.844 53.2578C549.953 54.7057 551.143 55.7083 552.414 56.2656C551.966 56.4688 551.62 56.7604 551.375 57.1406C550.51 56.5365 549.497 55.5339 548.336 54.1328C547.32 55.5234 546.151 56.6224 544.828 57.4297C544.604 57.0807 544.284 56.8099 543.867 56.6172C545.586 55.7943 546.867 54.6745 547.711 53.2578C546.997 52.1693 546.464 50.7344 546.109 48.9531C546.536 48.9219 546.846 48.8776 547.039 48.8203C547.221 50.0391 547.62 51.2083 548.234 52.3281C548.833 51.1979 549.245 49.4635 549.469 47.125ZM553.594 50.7734V49.7812C554.161 49.849 554.604 49.8828 554.922 49.8828H566.477C566.763 49.8724 567.18 49.8385 567.727 49.7812V50.7734C567.19 50.7214 566.773 50.6901 566.477 50.6797H561.227V52.6172H564.57C564.862 52.6068 565.273 52.5755 565.805 52.5234V53.5156C565.284 53.4479 564.872 53.4141 564.57 53.4141H561.227V55.7812C561.951 55.8385 562.737 55.8672 563.586 55.8672C563.872 55.8672 564.234 55.862 564.672 55.8516C566.047 55.8047 567.172 55.724 568.047 55.6094C567.812 55.9167 567.674 56.2995 567.633 56.7578C566.523 56.8047 565.445 56.8281 564.398 56.8281C563.732 56.8281 563.156 56.8203 562.672 56.8047C560.188 56.8932 558.229 56.0469 556.797 54.2656C556.125 55.6198 555.401 56.6797 554.625 57.4453C554.302 57.1172 553.948 56.8307 553.562 56.5859C554.844 56.1484 555.87 54.5208 556.641 51.7031L557.758 52.1016C557.888 52.1432 557.958 52.1875 557.969 52.2344C557.979 52.276 557.924 52.3281 557.805 52.3906C557.508 52.5208 557.299 52.8411 557.18 53.3516C558.013 54.5443 559.065 55.3073 560.336 55.6406V50.6797H554.922C554.573 50.6901 554.13 50.7214 553.594 50.7734ZM565.227 43.2734C565.174 43.8828 565.143 44.362 565.133 44.7109V47.4766C565.143 47.7578 565.174 48.2135 565.227 48.8438C564.555 48.776 564.039 48.7422 563.68 48.7422H558C557.583 48.7422 557.018 48.776 556.305 48.8438C556.357 48.2135 556.388 47.7318 556.398 47.3984V44.7266C556.388 44.3099 556.357 43.8255 556.305 43.2734C556.919 43.3255 557.435 43.3568 557.852 43.3672H563.648C563.997 43.3672 564.523 43.3359 565.227 43.2734ZM557.297 46.375V47.9766H564.234V46.375H557.297ZM557.297 44.1328V45.6094H564.234V44.1328H557.297ZM568.945 53.5781C569.659 52.2865 570.169 50.2917 570.477 47.5938L571.727 47.8281C571.898 47.8646 571.99 47.8984 572 47.9297C572.021 47.9609 571.977 48.0182 571.867 48.1016C571.612 48.3151 571.438 48.7266 571.344 49.3359C571.182 50.4349 570.812 51.9271 570.234 53.8125C569.766 53.7083 569.336 53.6302 568.945 53.5781ZM579.984 52.7734C580.365 53.1276 580.773 53.3307 581.211 53.3828C581.076 54.0547 580.958 54.5625 580.859 54.9062C580.635 56.2396 579.633 56.8906 577.852 56.8594C577.492 56.875 577.138 56.8828 576.789 56.8828C576.435 56.8828 576.086 56.875 575.742 56.8594C574.898 56.8125 574.354 56.6667 574.109 56.4219C573.844 56.2083 573.716 55.7552 573.727 55.0625V48.6953C573.716 48.2891 573.685 47.7396 573.633 47.0469L575.055 47.2422C575.159 47.263 575.216 47.2943 575.227 47.3359C575.237 47.388 575.195 47.4531 575.102 47.5312C574.826 47.776 574.688 48.25 574.688 48.9531V54.8906C574.677 55.2812 574.763 55.526 574.945 55.625C575.091 55.7292 575.49 55.7917 576.141 55.8125C576.359 55.8229 576.591 55.8281 576.836 55.8281C577.18 55.8281 577.523 55.8177 577.867 55.7969C578.607 55.7656 579.083 55.6641 579.297 55.4922C579.531 55.3359 579.706 54.9427 579.82 54.3125C579.909 53.9271 579.964 53.4141 579.984 52.7734ZM574.766 43.2422L575.695 42.5859C576.56 43.638 577.359 44.7031 578.094 45.7812L577.055 46.5C576.424 45.2865 575.661 44.2005 574.766 43.2422ZM581.211 47.4922C582.398 49.0391 583.43 50.4583 584.305 51.75L583.242 52.4844C582.294 50.9167 581.281 49.4844 580.203 48.1875L581.211 47.4922ZM592.031 44.7266C592.573 44.7891 593.057 44.8203 593.484 44.8203H596.555C596.055 44.2266 595.362 43.6302 594.477 43.0312L595.133 42.3438C595.977 42.9844 596.703 43.5807 597.312 44.1328L596.703 44.8203H598.641C599.089 44.8203 599.557 44.7891 600.047 44.7266V45.7188C599.536 45.6562 599.068 45.625 598.641 45.625H593.023V48.3125C593.034 50.8958 592.932 52.6979 592.719 53.7188C592.547 54.7969 592.104 55.9505 591.391 57.1797C591.104 56.9401 590.753 56.7526 590.336 56.6172C591.102 55.7318 591.581 54.7448 591.773 53.6562C592.018 52.5781 592.135 50.6589 592.125 47.8984V46.0859C592.125 45.7161 592.094 45.263 592.031 44.7266ZM595.422 49.5781H596.094V47.6875C596.094 47.2396 596.062 46.7214 596 46.1328L597.258 46.3281C597.398 46.349 597.469 46.3802 597.469 46.4219C597.49 46.4531 597.448 46.5182 597.344 46.6172C597.078 46.862 596.951 47.2188 596.961 47.6875V49.5781H598.188C598.635 49.5781 599.083 49.5443 599.531 49.4766V50.4688C599.104 50.4062 598.656 50.375 598.188 50.375H596.961V55.4922H598.719C599.156 55.4922 599.589 55.4609 600.016 55.3984V56.3594C599.599 56.2969 599.167 56.2656 598.719 56.2656H594.352C594.018 56.2656 593.596 56.2969 593.086 56.3594V55.3984C593.628 55.4609 594.049 55.4922 594.352 55.4922H596.094V50.375H595.422C595.047 50.375 594.604 50.4062 594.094 50.4688V49.4766C594.583 49.5443 595.026 49.5781 595.422 49.5781ZM585.312 56.3281C585.906 55.6146 586.299 54.6927 586.492 53.5625C586.706 52.4427 586.812 50.6432 586.812 48.1641V44.6797C586.812 44.2839 586.781 43.8411 586.719 43.3516C587.188 43.4141 587.641 43.4453 588.078 43.4453H589.438C589.833 43.4453 590.302 43.4141 590.844 43.3516C590.781 43.8099 590.75 44.2474 590.75 44.6641V54.9219C590.76 55.4844 590.628 55.862 590.352 56.0547C590.086 56.2786 589.497 56.4505 588.586 56.5703C588.513 56.1745 588.375 55.7995 588.172 55.4453C588.526 55.4922 588.818 55.5156 589.047 55.5156C589.297 55.5156 589.469 55.487 589.562 55.4297C589.766 55.3568 589.862 55.1016 589.852 54.6641V51.2109H587.594C587.5 53.5651 587.102 55.3932 586.398 56.6953C586.091 56.5339 585.729 56.4115 585.312 56.3281ZM587.664 47.7031C587.664 48.6979 587.648 49.599 587.617 50.4062H589.852V47.7031H587.664ZM587.711 44.25V46.9062H589.852V44.25H587.711ZM601.344 51.5156C602.312 51.3229 603.346 50.6771 604.445 49.5781C604.445 49.2344 604.414 48.8594 604.352 48.4531L605.281 48.6172C605.333 48.6224 605.359 48.6406 605.359 48.6719C605.359 48.6875 605.349 48.7109 605.328 48.7422C606.062 47.8151 606.69 46.8281 607.211 45.7812H603.594C603.224 45.7812 602.784 45.8151 602.273 45.8828V44.9219C602.753 44.9844 603.193 45.0156 603.594 45.0156H607.578C607.901 44.1719 608.143 43.3776 608.305 42.6328L609.648 42.9844C609.784 43.0156 609.846 43.0599 609.836 43.1172C609.826 43.1693 609.745 43.2266 609.594 43.2891C609.307 43.4245 609.096 43.6953 608.961 44.1016C608.862 44.4036 608.745 44.7083 608.609 45.0156H614.25C614.667 45.0156 615.089 44.9844 615.516 44.9219V45.8828C615.078 45.8151 614.656 45.7812 614.25 45.7812H608.234C607.448 47.349 606.484 48.8047 605.344 50.1484V56.1328C605.344 56.5495 605.375 57.0156 605.438 57.5312H604.352C604.414 57.0833 604.445 56.6172 604.445 56.1328V50.8594C603.753 51.4427 603.039 51.974 602.305 52.4531C601.961 52.0521 601.641 51.7396 601.344 51.5156ZM607.984 50.2188H610.062V48.5547C610.062 48.0391 610.031 47.4844 609.969 46.8906L611.195 47.0781C611.315 47.0885 611.385 47.1276 611.406 47.1953C611.417 47.2474 611.375 47.3099 611.281 47.3828C611.078 47.4714 610.982 47.862 610.992 48.5547V50.2188H613.422C613.87 50.2188 614.297 50.1849 614.703 50.1172V51.1094C614.276 51.0469 613.849 51.0156 613.422 51.0156H610.992V55.3203H614.305C614.784 55.3203 615.214 55.2891 615.594 55.2266V56.1875C615.146 56.1198 614.716 56.0859 614.305 56.0859H607.148C606.742 56.0859 606.305 56.1198 605.836 56.1875V55.2266C606.242 55.2891 606.68 55.3203 607.148 55.3203H610.062V51.0156H607.984C607.557 51.0156 607.099 51.0469 606.609 51.1094V50.1172C607.099 50.1849 607.557 50.2188 607.984 50.2188ZM616.945 53.5781C617.659 52.2865 618.169 50.2917 618.477 47.5938L619.727 47.8281C619.898 47.8646 619.99 47.8984 620 47.9297C620.021 47.9609 619.977 48.0182 619.867 48.1016C619.612 48.3151 619.438 48.7266 619.344 49.3359C619.182 50.4349 618.812 51.9271 618.234 53.8125C617.766 53.7083 617.336 53.6302 616.945 53.5781ZM627.984 52.7734C628.365 53.1276 628.773 53.3307 629.211 53.3828C629.076 54.0547 628.958 54.5625 628.859 54.9062C628.635 56.2396 627.633 56.8906 625.852 56.8594C625.492 56.875 625.138 56.8828 624.789 56.8828C624.435 56.8828 624.086 56.875 623.742 56.8594C622.898 56.8125 622.354 56.6667 622.109 56.4219C621.844 56.2083 621.716 55.7552 621.727 55.0625V48.6953C621.716 48.2891 621.685 47.7396 621.633 47.0469L623.055 47.2422C623.159 47.263 623.216 47.2943 623.227 47.3359C623.237 47.388 623.195 47.4531 623.102 47.5312C622.826 47.776 622.688 48.25 622.688 48.9531V54.8906C622.677 55.2812 622.763 55.526 622.945 55.625C623.091 55.7292 623.49 55.7917 624.141 55.8125C624.359 55.8229 624.591 55.8281 624.836 55.8281C625.18 55.8281 625.523 55.8177 625.867 55.7969C626.607 55.7656 627.083 55.6641 627.297 55.4922C627.531 55.3359 627.706 54.9427 627.82 54.3125C627.909 53.9271 627.964 53.4141 627.984 52.7734ZM622.766 43.2422L623.695 42.5859C624.56 43.638 625.359 44.7031 626.094 45.7812L625.055 46.5C624.424 45.2865 623.661 44.2005 622.766 43.2422ZM629.211 47.4922C630.398 49.0391 631.43 50.4583 632.305 51.75L631.242 52.4844C630.294 50.9167 629.281 49.4844 628.203 48.1875L629.211 47.4922ZM637.406 56.2656C640.146 55.3906 641.565 53.6146 641.664 50.9375C640.68 51.6198 639.901 52.2109 639.328 52.7109L638.461 51.7031C639.367 51.3073 640.445 50.6953 641.695 49.8672V44.5C641.695 44.1302 641.661 43.6198 641.594 42.9688L642.812 43.125C642.974 43.1458 643.055 43.1849 643.055 43.2422C643.065 43.2943 643 43.3776 642.859 43.4922C642.677 43.6432 642.586 43.9531 642.586 44.4219V49.75C642.596 49.9635 642.602 50.1536 642.602 50.3203C642.602 53.5286 641.206 55.8255 638.414 57.2109C638.19 56.8568 637.854 56.5417 637.406 56.2656ZM639.07 46.0078L639.867 45.5312C640.424 46.349 640.911 47.1693 641.328 47.9922L640.477 48.5C640.128 47.651 639.659 46.8203 639.07 46.0078ZM643.82 42.7578L645.07 42.9219C645.195 42.9323 645.258 42.9635 645.258 43.0156C645.273 43.0573 645.227 43.1328 645.117 43.2422C644.904 43.4349 644.802 43.7969 644.812 44.3281V49.7188C645.719 50.3802 646.63 51.1328 647.547 51.9766L646.812 52.8594C646.26 52.1094 645.594 51.4297 644.812 50.8203V55.0781C644.766 55.5729 644.995 55.8203 645.5 55.8203C645.552 55.8203 645.607 55.8177 645.664 55.8125C646.227 55.8125 646.589 55.75 646.75 55.625C647.057 55.4323 647.195 54.776 647.164 53.6562C647.56 53.9635 647.935 54.151 648.289 54.2188C648.086 55.8906 647.568 56.7109 646.734 56.6797C646.266 56.763 645.797 56.7943 645.328 56.7734C644.38 56.7839 643.906 56.3802 643.906 55.5625C643.906 55.4792 643.909 55.4089 643.914 55.3516V44.3594C643.914 43.9948 643.883 43.4609 643.82 42.7578ZM645.883 48.6016C645.617 48.4401 645.331 48.2786 645.023 48.1172C645.909 46.9349 646.484 45.9167 646.75 45.0625L647.789 45.8125C647.898 45.8906 647.948 45.9505 647.938 45.9922C647.938 46.0443 647.872 46.0807 647.742 46.1016C647.497 46.1432 647.305 46.2891 647.164 46.5391C646.794 47.1745 646.367 47.862 645.883 48.6016ZM634.203 49.4297L635.422 49.5938C635.552 49.6042 635.622 49.6354 635.633 49.6875C635.643 49.7396 635.594 49.8151 635.484 49.9141C635.271 50.1068 635.164 50.4375 635.164 50.9062V54.8438C635.581 54.7135 636.003 54.5677 636.43 54.4062V47.9141H635.594C635.224 47.9141 634.789 47.9453 634.289 48.0078C634.352 47.5599 634.383 47.1589 634.383 46.8047V44.5859C634.372 44.1589 634.341 43.7422 634.289 43.3359C634.758 43.3984 635.193 43.4297 635.594 43.4297H637.711C638.029 43.4297 638.427 43.3984 638.906 43.3359C638.844 43.8151 638.812 44.2318 638.812 44.5859V46.875C638.802 47.151 638.839 47.5286 638.922 48.0078C638.552 47.9453 638.174 47.9141 637.789 47.9141H637.297V49.9141H637.898C638.242 49.9245 638.674 49.8906 639.195 49.8125V50.8047C638.685 50.7422 638.253 50.7109 637.898 50.7109H637.297V54.0859C637.818 53.9036 638.409 53.6641 639.07 53.3672L638.992 54.5C636.857 55.1875 635.224 55.8385 634.094 56.4531L633.375 55.3047C633.641 55.2526 633.951 55.1719 634.305 55.0625V50.9062C634.305 50.5 634.271 50.0078 634.203 49.4297ZM635.242 44.2031V47.1406H637.953V44.2031H635.242ZM655.953 48.2969C657.297 47.0156 658.208 45.1068 658.688 42.5703L659.836 42.9688C659.987 43.0208 660.052 43.0677 660.031 43.1094C660.031 43.1667 659.945 43.2578 659.773 43.3828C659.622 43.4818 659.5 43.6693 659.406 43.9453C659.141 44.7005 658.88 45.3828 658.625 45.9922H661.82C662.206 45.9922 662.654 45.9609 663.164 45.8984C663.102 46.5703 663.07 47.1198 663.07 47.5469L662.992 54.9531C663.003 55.8177 662.784 56.4036 662.336 56.7109C661.909 57.0547 661.018 57.2943 659.664 57.4297C659.617 57.0391 659.456 56.6302 659.18 56.2031C659.56 56.2396 659.901 56.2578 660.203 56.2578C660.755 56.2578 661.167 56.1953 661.438 56.0703C661.854 55.888 662.062 55.5 662.062 54.9062L662.188 46.7891H658.305C657.919 47.5182 657.518 48.2031 657.102 48.8438C656.706 48.6146 656.323 48.4323 655.953 48.2969ZM657.727 50.0078L658.492 49.3672C659.326 50.2318 660.164 51.2083 661.008 52.2969L660.125 52.9688C659.422 51.8802 658.622 50.8932 657.727 50.0078ZM651.531 57H650.508C650.576 56.349 650.609 55.8698 650.609 55.5625V47.5625C650.609 47.1667 650.576 46.638 650.508 45.9766C650.924 46.0391 651.346 46.0703 651.773 46.0703C652.221 44.8984 652.536 43.763 652.719 42.6641L653.852 42.9688C654.013 43.0104 654.094 43.0573 654.094 43.1094C654.104 43.1771 654.039 43.2526 653.898 43.3359C653.695 43.4661 653.547 43.6797 653.453 43.9766C653.198 44.6901 652.938 45.388 652.672 46.0703H654.414C654.872 46.0703 655.357 46.0391 655.867 45.9766C655.805 46.6172 655.773 47.1458 655.773 47.5625V55.1953C655.773 55.5443 655.805 55.987 655.867 56.5234H654.797C654.849 56.1901 654.88 55.8854 654.891 55.6094H651.438C651.438 55.9688 651.469 56.4323 651.531 57ZM651.469 51.2266V54.8047H654.906V51.2266H651.469ZM651.469 46.875V50.4531H654.906V46.875H651.469ZM669.711 45.6875L668.906 46.4531C668.323 45.6771 667.562 44.862 666.625 44.0078L667.391 43.3047C668.234 44.0599 669.008 44.8542 669.711 45.6875ZM672.25 48.6016C672.958 49.4349 673.568 50.2708 674.078 51.1094L673.18 51.75C672.82 50.9062 672.219 50.0547 671.375 49.1953L672.25 48.6016ZM668.812 48.2031C668.75 48.5833 668.719 49.0417 668.719 49.5781V54.2969C668.75 54.3177 668.857 54.375 669.039 54.4688C669.164 54.5469 669.271 54.6068 669.359 54.6484C670.5 55.1901 671.341 55.5365 671.883 55.6875C672.409 55.7969 673.206 55.8516 674.273 55.8516C675.654 55.8516 677.435 55.7604 679.617 55.5781C679.794 55.5677 679.922 55.5573 680 55.5469C679.755 55.9948 679.615 56.3932 679.578 56.7422C679.271 56.7526 678.802 56.7682 678.172 56.7891C677.036 56.8516 676.036 56.8828 675.172 56.8828C673.438 56.8828 672.156 56.763 671.328 56.5234C670.75 56.3411 669.997 55.9661 669.07 55.3984C668.758 55.1953 668.471 55.0938 668.211 55.0938C667.982 55.0938 667.771 55.1745 667.578 55.3359C666.964 55.8255 666.5 56.2578 666.188 56.6328C665.974 56.2161 665.755 55.875 665.531 55.6094C666.417 54.9271 667.18 54.5156 667.82 54.375V49.0938H666.75C666.26 49.0938 665.849 49.1276 665.516 49.1953V48.2031C665.771 48.2656 666.182 48.2969 666.75 48.2969H667.516C668.052 48.2969 668.484 48.2656 668.812 48.2031ZM671.516 46.0547H676.125V43.7344C676.125 43.2031 676.094 42.7708 676.031 42.4375L677.328 42.6484C677.432 42.6589 677.484 42.6849 677.484 42.7266C677.484 42.7578 677.438 42.8073 677.344 42.875C677.13 43.0208 677.023 43.3776 677.023 43.9453V46.0547H678.219C678.786 46.0547 679.229 46.0234 679.547 45.9609V46.9531C679.188 46.8906 678.745 46.8594 678.219 46.8594H677.023V53.3672C677.034 53.4557 677.039 53.5208 677.039 53.5625C677.039 54.4688 676.185 54.9323 674.477 54.9531C674.404 54.474 674.229 54.0625 673.953 53.7188C674.464 53.7812 674.865 53.8125 675.156 53.8125C675.396 53.8125 675.581 53.7917 675.711 53.75C675.997 53.6771 676.135 53.4583 676.125 53.0938V46.8594H671.516C670.964 46.8594 670.536 46.8906 670.234 46.9531V45.9609C670.469 46.0234 670.896 46.0547 671.516 46.0547ZM688.141 55.4141H690.992V52.7578H689.281C688.854 52.7578 688.367 52.7917 687.82 52.8594V51.8984C688.409 51.9609 688.896 51.9922 689.281 51.9922H690.992V49.7656H688.961C688.565 49.7656 688.078 49.7995 687.5 49.8672V48.9062C688.078 48.9688 688.565 49 688.961 49H694.062C694.479 49 694.953 48.9688 695.484 48.9062V49.8672C694.974 49.7995 694.5 49.7656 694.062 49.7656H691.883V51.9922H693.648C694.049 51.9922 694.508 51.9609 695.023 51.8984V52.8594C694.523 52.7917 694.065 52.7578 693.648 52.7578H691.883V55.4141H694.781C695.229 55.4141 695.688 55.3828 696.156 55.3203V56.25C695.667 56.1823 695.208 56.1484 694.781 56.1484H688.141C687.724 56.1484 687.234 56.1823 686.672 56.25V55.3203C687.255 55.3828 687.745 55.4141 688.141 55.4141ZM688.25 43.3203C688.828 43.3828 689.305 43.4141 689.68 43.4141H693.258C693.721 43.4141 694.229 43.3828 694.781 43.3203C694.719 43.862 694.688 44.3203 694.688 44.6953V46.1641C694.688 46.5807 694.719 47.0312 694.781 47.5156C694.24 47.4479 693.732 47.4141 693.258 47.4141H689.664C689.237 47.4141 688.766 47.4479 688.25 47.5156C688.318 47.0417 688.352 46.5859 688.352 46.1484V44.7109C688.352 44.3151 688.318 43.8516 688.25 43.3203ZM689.211 44.1875V46.6484H693.82V44.1875H689.211ZM684.305 47.9609H683.297C682.823 47.9609 682.336 47.9922 681.836 48.0547V47.0938C682.424 47.1615 682.911 47.1953 683.297 47.1953H684.398V44.5391C683.831 44.6536 683.122 44.7604 682.273 44.8594C682.164 44.5052 682.013 44.151 681.82 43.7969C682.128 43.8177 682.409 43.8281 682.664 43.8281C684.247 43.8281 685.656 43.5104 686.891 42.875L687.5 43.6719C687.625 43.8333 687.688 43.9401 687.688 43.9922C687.688 44.0078 687.685 44.0182 687.68 44.0234C687.674 44.0443 687.643 44.0547 687.586 44.0547C687.523 44.0547 687.438 44.0443 687.328 44.0234C687.255 44.013 687.18 44.0078 687.102 44.0078C686.935 44.0078 686.747 44.0286 686.539 44.0703C686.18 44.1589 685.753 44.25 685.258 44.3438V47.1953H686.273C686.742 47.1953 687.206 47.1615 687.664 47.0938V48.0547C687.096 47.9922 686.633 47.9609 686.273 47.9609H685.258V48.5859C686.049 49.237 686.862 49.9453 687.695 50.7109L687.023 51.6562C686.586 50.974 685.997 50.3281 685.258 49.7188V55.6094C685.258 56.0781 685.292 56.5833 685.359 57.125H684.305C684.367 56.6146 684.398 56.1094 684.398 55.6094V50.1875C683.919 51.25 683.279 52.4635 682.477 53.8281C682.117 53.6042 681.745 53.4245 681.359 53.2891C682.552 52.1901 683.534 50.4141 684.305 47.9609ZM705.242 43.9453V45.7188H709.5C709.844 45.7292 710.224 45.6979 710.641 45.625C710.562 46 710.529 46.362 710.539 46.7109V51.5156C710.529 51.8542 710.562 52.1823 710.641 52.5H709.547C709.625 52.1823 709.659 51.901 709.648 51.6562H705.242V56.0391C705.232 56.487 705.266 56.9141 705.344 57.3203H704.219C704.297 56.9349 704.331 56.5182 704.32 56.0703V51.6562H699.969C699.958 52.0208 699.99 52.388 700.062 52.7578H698.977C699.049 52.3776 699.081 51.9896 699.07 51.5938V46.6797C699.081 46.3724 699.049 46.0208 698.977 45.625C699.424 45.6979 699.807 45.7292 700.125 45.7188H704.32V43.8984C704.331 43.4714 704.297 43.0234 704.219 42.5547L705.438 42.7109C705.557 42.7214 705.622 42.7474 705.633 42.7891C705.643 42.8099 705.594 42.8698 705.484 42.9688C705.302 43.0729 705.221 43.3984 705.242 43.9453ZM704.32 46.5547H699.969V50.8203H704.32V46.5547ZM705.242 46.5547V50.8203H709.648V46.5547H705.242ZM713.195 55.1797C715.534 53.9089 716.852 51.5599 717.148 48.1328H715.328C715.047 48.1328 714.646 48.1615 714.125 48.2188C714.073 48.2292 714.042 48.2344 714.031 48.2344V47.2891C714.438 47.3411 714.87 47.3672 715.328 47.3672H716.844C717.292 47.3672 717.75 47.3411 718.219 47.2891C717.922 51.1693 716.622 54.0052 714.32 55.7969C713.997 55.5625 713.622 55.3568 713.195 55.1797ZM721.297 46.8906V47.3672H721.984C722.411 47.3672 722.849 47.3359 723.297 47.2734V48.2344C722.823 48.1667 722.385 48.1328 721.984 48.1328H721.297V49.7188H721.711C722.169 49.7188 722.602 49.6875 723.008 49.625V50.5859C722.581 50.5182 722.148 50.4844 721.711 50.4844H721.297V52.2031H722.305C722.763 52.2031 723.193 52.1693 723.594 52.1016V53.0625C723.135 53 722.706 52.9688 722.305 52.9688H721.297V55.5625C721.307 56.224 721.125 56.6719 720.75 56.9062C720.385 57.1615 719.719 57.2734 718.75 57.2422C718.677 56.8151 718.539 56.4141 718.336 56.0391C718.826 56.1068 719.221 56.1406 719.523 56.1406C719.747 56.1406 719.911 56.1224 720.016 56.0859C720.281 56.0234 720.409 55.8099 720.398 55.4453V52.9688H719.438C719.01 52.9688 718.578 53 718.141 53.0625V52.1016C718.62 52.1693 719.052 52.2031 719.438 52.2031H720.398V50.4844H720.078C719.703 50.4844 719.245 50.5182 718.703 50.5859V49.625C719.245 49.6875 719.703 49.7188 720.078 49.7188H720.398V48.1328H719.953C719.526 48.1328 719.089 48.1667 718.641 48.2344V47.2734C719.161 47.3359 719.599 47.3672 719.953 47.3672H720.398C720.398 47.0286 720.367 46.651 720.305 46.2344C721.378 45.9219 722.604 45.2448 723.984 44.2031H716.641C716.214 44.2031 715.776 44.2344 715.328 44.2969V43.3359C715.818 43.3984 716.255 43.4297 716.641 43.4297H724.875C725.354 43.4297 725.898 43.3984 726.508 43.3359C724.758 44.862 723.021 46.0469 721.297 46.8906ZM724.031 49.3047C725.266 48.4401 726.167 47.6354 726.734 46.8906L727.5 47.7344C727.651 47.9062 727.727 48.013 727.727 48.0547C727.737 48.0964 727.667 48.1172 727.516 48.1172C727.229 48.0964 726.914 48.224 726.57 48.5C725.836 49.0573 725.086 49.6068 724.32 50.1484C725.034 52.3047 726.312 54.0026 728.156 55.2422C727.677 55.4349 727.294 55.638 727.008 55.8516C724.961 54.0234 723.583 51.6172 722.875 48.6328L723.883 48.2188C723.872 48.3125 723.867 48.3984 723.867 48.4766C723.867 48.763 723.922 49.0391 724.031 49.3047ZM496.094 78.2344C495.312 77.5312 494.513 76.4531 493.695 75H493.633C493.32 75.0104 492.945 75.0417 492.508 75.0938V74.1328C492.977 74.1901 493.372 74.224 493.695 74.2344H499.68C500.039 74.2344 500.461 74.2057 500.945 74.1484C499.836 75.8568 498.732 77.2188 497.633 78.2344C499.628 79.4167 501.659 79.9974 503.727 79.9766C503.341 80.4036 503.062 80.8464 502.891 81.3047C500.281 80.6641 498.276 79.849 496.875 78.8594C494.849 80.1823 492.747 80.9922 490.57 81.2891C490.393 80.7318 490.169 80.3359 489.898 80.1016C492.096 80.112 494.161 79.4896 496.094 78.2344ZM499.18 75H494.766C495.286 76.0573 495.99 76.9427 496.875 77.6562C497.771 76.9219 498.539 76.0365 499.18 75ZM490.367 71.8984C490.997 71.9609 491.492 71.9922 491.852 71.9922H498.688C499.797 70.7005 500.628 69.5052 501.18 68.4062L502.156 69.1406C502.276 69.2292 502.336 69.2995 502.336 69.3516C502.336 69.4036 502.271 69.4401 502.141 69.4609C501.865 69.5078 501.672 69.6146 501.562 69.7812C501.359 70.0365 501.052 70.4219 500.641 70.9375C500.286 71.3854 500.003 71.737 499.789 71.9922H501.836C502.211 71.9818 502.729 71.9505 503.391 71.8984C503.328 72.4922 503.297 72.9453 503.297 73.2578V73.3984C503.307 73.6849 503.339 74.1068 503.391 74.6641H502.305C502.367 74.0651 502.398 73.6432 502.398 73.3984V72.7578H491.359V73.3828C491.359 73.6797 491.391 74.1276 491.453 74.7266H490.367C490.43 74.1276 490.461 73.6797 490.461 73.3828V73.2422C490.451 72.8672 490.419 72.4193 490.367 71.8984ZM491.148 67.3672C492.029 67.5234 493.159 67.6016 494.539 67.6016C495.331 67.6016 496.169 67.5781 497.055 67.5312C499.357 67.3698 500.914 67.0911 501.727 66.6953L502.461 67.7031C502.513 67.7812 502.539 67.8438 502.539 67.8906C502.539 67.9115 502.534 67.9297 502.523 67.9453C502.497 67.9766 502.464 67.9922 502.422 67.9922C502.391 67.9922 502.346 67.9818 502.289 67.9609C502.227 67.9401 502.138 67.9297 502.023 67.9297C501.893 67.9297 501.688 67.9453 501.406 67.9766C501.344 67.987 501.289 67.9922 501.242 67.9922C499.346 68.1953 497.69 68.3333 496.273 68.4062C495.555 68.4479 494.833 68.474 494.109 68.4844C493.75 68.4896 493.37 68.4922 492.969 68.4922C492.562 68.4922 492.133 68.4896 491.68 68.4844C491.57 68.0729 491.393 67.7005 491.148 67.3672ZM492.844 69C493.411 69.6823 494 70.4297 494.609 71.2422L493.773 71.8281C493.195 70.9583 492.625 70.2031 492.062 69.5625L492.844 69ZM498.188 71.2266L497.297 71.6875C496.891 70.8229 496.453 70.0182 495.984 69.2734L496.844 68.7891C497.271 69.5182 497.719 70.3307 498.188 71.2266ZM511.953 72.2969C513.297 71.0156 514.208 69.1068 514.688 66.5703L515.836 66.9688C515.987 67.0208 516.052 67.0677 516.031 67.1094C516.031 67.1667 515.945 67.2578 515.773 67.3828C515.622 67.4818 515.5 67.6693 515.406 67.9453C515.141 68.7005 514.88 69.3828 514.625 69.9922H517.82C518.206 69.9922 518.654 69.9609 519.164 69.8984C519.102 70.5703 519.07 71.1198 519.07 71.5469L518.992 78.9531C519.003 79.8177 518.784 80.4036 518.336 80.7109C517.909 81.0547 517.018 81.2943 515.664 81.4297C515.617 81.0391 515.456 80.6302 515.18 80.2031C515.56 80.2396 515.901 80.2578 516.203 80.2578C516.755 80.2578 517.167 80.1953 517.438 80.0703C517.854 79.888 518.062 79.5 518.062 78.9062L518.188 70.7891H514.305C513.919 71.5182 513.518 72.2031 513.102 72.8438C512.706 72.6146 512.323 72.4323 511.953 72.2969ZM513.727 74.0078L514.492 73.3672C515.326 74.2318 516.164 75.2083 517.008 76.2969L516.125 76.9688C515.422 75.8802 514.622 74.8932 513.727 74.0078ZM507.531 81H506.508C506.576 80.349 506.609 79.8698 506.609 79.5625V71.5625C506.609 71.1667 506.576 70.638 506.508 69.9766C506.924 70.0391 507.346 70.0703 507.773 70.0703C508.221 68.8984 508.536 67.763 508.719 66.6641L509.852 66.9688C510.013 67.0104 510.094 67.0573 510.094 67.1094C510.104 67.1771 510.039 67.2526 509.898 67.3359C509.695 67.4661 509.547 67.6797 509.453 67.9766C509.198 68.6901 508.938 69.388 508.672 70.0703H510.414C510.872 70.0703 511.357 70.0391 511.867 69.9766C511.805 70.6172 511.773 71.1458 511.773 71.5625V79.1953C511.773 79.5443 511.805 79.987 511.867 80.5234H510.797C510.849 80.1901 510.88 79.8854 510.891 79.6094H507.438C507.438 79.9688 507.469 80.4323 507.531 81ZM507.469 75.2266V78.8047H510.906V75.2266H507.469ZM507.469 70.875V74.4531H510.906V70.875H507.469ZM534.672 72.9531H528.523V77.8516C528.633 77.8151 528.794 77.776 529.008 77.7344C529.273 77.6823 529.453 77.6406 529.547 77.6094C529.495 77.8333 529.443 78.1302 529.391 78.5C529.38 78.5469 529.375 78.5807 529.375 78.6016C529.224 78.612 529.031 78.6432 528.797 78.6953C528.682 78.7161 528.591 78.7318 528.523 78.7422V79.8984C528.523 80.4401 528.557 80.888 528.625 81.2422H527.531C527.599 80.7057 527.633 80.2526 527.633 79.8828V78.9219C525.414 79.2812 523.68 79.6276 522.43 79.9609C522.409 79.8411 522.266 79.4688 522 78.8438C522.542 78.8281 523.091 78.7786 523.648 78.6953V72.9531H522.75C522.432 72.9531 522.021 72.9844 521.516 73.0469V72.0859C521.87 72.1536 522.281 72.1875 522.75 72.1875H534.672C535.089 72.1875 535.503 72.1641 535.914 72.1172V73.0469C535.466 72.9844 535.052 72.9531 534.672 72.9531ZM527.633 78.0391V76.9375H524.539V78.5703C525.331 78.4818 526.362 78.3047 527.633 78.0391ZM524.539 75.0625V76.2344H527.633V75.0625H524.539ZM524.539 72.9531V74.3281H527.633V72.9531H524.539ZM529.406 75.0469C529.385 75.0469 529.359 75.0469 529.328 75.0469C529.198 75.0573 529.026 75.0781 528.812 75.1094V74.1484C528.844 74.1484 528.893 74.1536 528.961 74.1641C529.419 74.2214 529.786 74.25 530.062 74.25H533.469C533.938 74.25 534.365 74.2161 534.75 74.1484C534.271 75.5495 533.539 76.8958 532.555 78.1875C533.529 79.0156 534.607 79.5807 535.789 79.8828C535.414 80.1276 535.104 80.4583 534.859 80.875C533.677 80.2135 532.714 79.5521 531.969 78.8906C531.26 79.5938 530.37 80.2812 529.297 80.9531C529.188 80.6198 528.969 80.2943 528.641 79.9766C529.682 79.6224 530.583 79.0469 531.344 78.25C530.573 77.375 529.927 76.3073 529.406 75.0469ZM524.219 67.0625C524.542 67.125 524.927 67.1562 525.375 67.1562H532.367C532.753 67.1562 533.18 67.125 533.648 67.0625C533.581 67.5885 533.547 68.0625 533.547 68.4844V70.0078C533.547 70.4766 533.581 70.9453 533.648 71.4141C533.232 71.3516 532.799 71.3203 532.352 71.3203H525.391C524.995 71.3203 524.599 71.3516 524.203 71.4141C524.281 71.0964 524.315 70.6641 524.305 70.1172V68.4219C524.305 67.974 524.276 67.5208 524.219 67.0625ZM525.195 67.9297V68.8438H532.656V67.9297H525.195ZM525.195 69.6094V70.5547H532.656V69.6094H525.195ZM531.938 77.5156C532.594 76.6406 533.078 75.8073 533.391 75.0156H530.398C530.737 75.8698 531.25 76.7031 531.938 77.5156ZM537.594 80.5859C541.328 78.7161 543.409 75.9167 543.836 72.1875H539.438C539.083 72.1979 538.651 72.2292 538.141 72.2812V71.2891C538.698 71.3411 539.13 71.3724 539.438 71.3828H543.898V68.3125C543.898 67.9688 543.867 67.4661 543.805 66.8047L545.008 66.9688C545.133 66.9896 545.195 67.0156 545.195 67.0469C545.206 67.0781 545.164 67.1432 545.07 67.2422C544.909 67.4661 544.818 67.8646 544.797 68.4375V71.3828H549.547C549.87 71.3828 550.357 71.3516 551.008 71.2891V72.2812C550.398 72.2292 549.911 72.1979 549.547 72.1875H544.992C546.195 76.0781 548.516 78.7552 551.953 80.2188C551.568 80.3958 551.182 80.7266 550.797 81.2109C547.703 79.0859 545.612 76.6432 544.523 73.8828C543.904 76.5807 541.99 79.0703 538.781 81.3516C538.443 81.0964 538.047 80.8411 537.594 80.5859ZM559.953 72.2969C561.297 71.0156 562.208 69.1068 562.688 66.5703L563.836 66.9688C563.987 67.0208 564.052 67.0677 564.031 67.1094C564.031 67.1667 563.945 67.2578 563.773 67.3828C563.622 67.4818 563.5 67.6693 563.406 67.9453C563.141 68.7005 562.88 69.3828 562.625 69.9922H565.82C566.206 69.9922 566.654 69.9609 567.164 69.8984C567.102 70.5703 567.07 71.1198 567.07 71.5469L566.992 78.9531C567.003 79.8177 566.784 80.4036 566.336 80.7109C565.909 81.0547 565.018 81.2943 563.664 81.4297C563.617 81.0391 563.456 80.6302 563.18 80.2031C563.56 80.2396 563.901 80.2578 564.203 80.2578C564.755 80.2578 565.167 80.1953 565.438 80.0703C565.854 79.888 566.062 79.5 566.062 78.9062L566.188 70.7891H562.305C561.919 71.5182 561.518 72.2031 561.102 72.8438C560.706 72.6146 560.323 72.4323 559.953 72.2969ZM561.727 74.0078L562.492 73.3672C563.326 74.2318 564.164 75.2083 565.008 76.2969L564.125 76.9688C563.422 75.8802 562.622 74.8932 561.727 74.0078ZM555.531 81H554.508C554.576 80.349 554.609 79.8698 554.609 79.5625V71.5625C554.609 71.1667 554.576 70.638 554.508 69.9766C554.924 70.0391 555.346 70.0703 555.773 70.0703C556.221 68.8984 556.536 67.763 556.719 66.6641L557.852 66.9688C558.013 67.0104 558.094 67.0573 558.094 67.1094C558.104 67.1771 558.039 67.2526 557.898 67.3359C557.695 67.4661 557.547 67.6797 557.453 67.9766C557.198 68.6901 556.938 69.388 556.672 70.0703H558.414C558.872 70.0703 559.357 70.0391 559.867 69.9766C559.805 70.6172 559.773 71.1458 559.773 71.5625V79.1953C559.773 79.5443 559.805 79.987 559.867 80.5234H558.797C558.849 80.1901 558.88 79.8854 558.891 79.6094H555.438C555.438 79.9688 555.469 80.4323 555.531 81ZM555.469 75.2266V78.8047H558.906V75.2266H555.469ZM555.469 70.875V74.4531H558.906V70.875H555.469ZM569.211 80.8594C570.013 80.1875 570.568 79.237 570.875 78.0078C571.188 76.8359 571.339 74.9948 571.328 72.4844V69.5625C571.328 68.9531 571.294 68.4714 571.227 68.1172C571.549 68.1849 572.016 68.2188 572.625 68.2188H582.141C582.75 68.2188 583.177 68.1849 583.422 68.1172V69.125C582.953 69.0521 582.526 69.0156 582.141 69.0156H572.25V72.5C572.266 74.8177 572.138 76.5729 571.867 77.7656C571.622 79.0052 571.138 80.2161 570.414 81.3984C569.945 81.1224 569.544 80.9427 569.211 80.8594ZM572 80.7109V79.7188C572.349 79.7812 572.776 79.8125 573.281 79.8125H577.328V74.3281H574.688C574.12 74.3281 573.714 74.3594 573.469 74.4219V73.4297C573.745 73.4974 574.161 73.5312 574.719 73.5312H577.328V71.3047C577.328 70.7578 577.294 70.3359 577.227 70.0391L578.336 70.2031C578.471 70.2135 578.539 70.2344 578.539 70.2656C578.549 70.2969 578.503 70.3646 578.398 70.4688C578.289 70.5365 578.24 70.7292 578.25 71.0469V73.5312H580.766C581.396 73.5312 581.828 73.4974 582.062 73.4297V74.4219C581.786 74.3594 581.354 74.3281 580.766 74.3281H578.25V79.8125H582.703C583.286 79.8125 583.703 79.7812 583.953 79.7188V80.7109C583.641 80.6484 583.224 80.6172 582.703 80.6172H573.258C572.737 80.6172 572.318 80.6484 572 80.7109ZM579.422 75.9141L580.219 75.3516C581.021 76.3099 581.727 77.2708 582.336 78.2344L581.5 78.8438C580.938 77.7969 580.245 76.8203 579.422 75.9141ZM585.914 80.5547C589.477 79.0807 591.339 75.9974 591.5 71.3047L588.492 71.3828C587.992 71.3828 587.503 71.4375 587.023 71.5469L586.961 70.4844C587.159 70.5312 587.339 70.5547 587.5 70.5547C587.573 70.5599 587.674 70.5625 587.805 70.5625C587.935 70.5625 588.096 70.5599 588.289 70.5547L591.531 70.4844C591.521 68.4583 591.479 67.1589 591.406 66.5859L592.688 66.7734C592.844 66.7943 592.922 66.8385 592.922 66.9062C592.938 66.9583 592.865 67.0495 592.703 67.1797C592.594 67.3047 592.534 67.5807 592.523 68.0078C592.523 68.7734 592.503 69.5938 592.461 70.4688L596.859 70.3438C597.375 70.3438 597.862 70.3021 598.32 70.2188C598.232 70.6875 598.081 73.2891 597.867 78.0234C597.846 79.3672 597.638 80.1719 597.242 80.4375C596.945 80.7812 595.987 80.9948 594.367 81.0781C594.357 80.6719 594.229 80.2292 593.984 79.75C594.526 79.8542 594.982 79.9062 595.352 79.9062C596.341 79.9062 596.839 79.5677 596.844 78.8906C597.078 75.6354 597.211 73.0469 597.242 71.125L592.445 71.2578C592.284 75.7786 590.471 79.1797 587.008 81.4609C586.716 81.0911 586.352 80.7891 585.914 80.5547Z" fill="#26929D"></path><line x1="334" y1="184" x2="428" y2="184" stroke="#2DB3BE" stroke-width="2"></line><line x1="334" y1="213" x2="467" y2="213" stroke="#2DB3BE" stroke-width="2"></line><line x1="427" y1="62" x2="467" y2="62" stroke="#2DB3BE" stroke-width="2"></line><line x1="427" y1="185" x2="427" y2="61" stroke="#2DB3BE" stroke-width="2"></line><defs><clipPath id="clip0"><rect width="385" height="292" fill="white" transform="translate(0 5)"></rect></clipPath></defs></svg>