<svg width="195" height="187" viewBox="0 0 195 187" fill="none" xmlns="http://www.w3.org/2000/svg">
<mask id="mask0" mask-type="alpha" maskUnits="userSpaceOnUse" x="0" y="0" width="195" height="187">
<rect width="195" height="187" fill="#C4C4C4"/>
</mask>
<g mask="url(#mask0)">
<path fill-rule="evenodd" clip-rule="evenodd" d="M10.6392 115.009C0.801014 87.1401 -5.0273 53.8583 13.4366 30.7835C31.4558 8.26437 64.6183 13.4216 93.3998 11.5808C123.837 9.63406 159.328 -2.34305 179.947 20.1338C200.838 42.9085 193.334 79.4588 182.061 108.235C173.169 130.935 149.889 141.043 128.212 152.198C107.001 163.113 85.2431 176.956 62.499 169.761C37.2837 161.786 19.4435 139.948 10.6392 115.009Z" fill="#F9F9F9"/>
<path opacity="0.9" d="M129.642 125.437C149.948 105.11 149.948 72.1551 129.642 51.8289C109.336 31.5027 76.4146 31.5027 56.109 51.8289C35.8035 72.1551 35.8035 105.11 56.109 125.437C76.4146 145.763 109.336 145.763 129.642 125.437Z" fill="white"/>
<path opacity="0.6" d="M120.503 116.287C135.76 101.014 135.76 76.2516 120.503 60.9786C105.245 45.7056 80.5078 45.7055 65.2502 60.9786C49.9927 76.2516 49.9927 101.014 65.2502 116.287C80.5077 131.56 105.245 131.56 120.503 116.287Z" fill="white"/>
<path d="M119.989 125.298C124.9 124.513 134.388 113.767 135.194 108.809C136.161 102.839 134.388 100.699 132.217 105.861C130.283 110.476 130.423 113.057 127.35 117.091C126.286 118.489 119.957 125.309 119.989 125.298Z" fill="white"/>
<path d="M55.5184 111.544C53.6917 105.725 50.9194 98.7979 50.4251 92.7315C49.9738 87.2135 51.7253 77.7911 49.6837 75.2204C48.3083 73.65 46.8469 80.3834 46.3312 83.4381C43.2151 101.993 61.1596 130.206 77.1807 132.583C77.3204 131.852 74.4192 130.905 71.0237 128.689C65.4255 125.043 57.8286 118.88 55.5184 111.544Z" fill="white"/>
<path fill-rule="evenodd" clip-rule="evenodd" d="M134.808 49.5875C134.959 49.6843 135.109 49.8349 135.216 49.9532C135.496 50.2436 135.657 50.5233 135.571 51.0396L135.55 51.2009C135.603 51.287 135.582 51.9108 135.593 52.0829C135.625 53.2016 135.625 53.2123 135.442 54.374C135.023 55.8798 134.582 56.6328 133.884 57.945C133.164 59.2788 132.133 60.5373 131.176 61.7097C130.005 63.1403 125.632 66.6683 124.342 66.8942C120.646 70.0135 107.268 70.519 104.775 70.1318C99.3704 69.3036 95.8567 68.2925 91.0751 65.7863C86.734 63.506 81.9094 58.9669 79.6744 54.8257C78.89 53.3737 78.1915 51.5451 77.9229 49.9102C77.5898 47.9095 77.7402 46.0057 78.5139 44.1234C79.8033 40.9825 81.1572 40.7567 81.2861 37.4868C81.3076 37.0243 81.1787 36.1853 81.1035 35.7228C80.8241 33.948 79.4165 33.3134 79.0189 31.5924C78.761 30.4845 78.8685 28.6129 79.7173 27.8708C80.5232 27.0318 82.3714 27.1393 82.0061 27.9998L82.1243 28.301C82.9194 28.9571 83.6071 29.183 83.8543 30.3447C83.9402 30.4953 83.8865 30.4738 84.0477 30.5383C85.0147 30.9685 85.8529 31.5171 85.681 32.7433C85.6595 33.2811 85.6057 33.6791 85.6272 34.2384C85.6487 34.8946 86.1108 37.9601 86.2397 38.4441C86.8522 40.5953 87.8837 42.4131 89.3021 44.2417C92.1066 47.8235 91.6338 47.845 95.0078 50.7492C96.0286 51.6204 99.3381 53.3629 100.681 53.8792C112.77 58.5044 131.015 47.1673 134.808 49.5875Z" fill="#F2D451"/>
<path fill-rule="evenodd" clip-rule="evenodd" d="M135.506 50.3522C135.592 50.5351 135.625 50.7502 135.582 51.0514L135.56 51.2127C135.614 51.2988 135.592 51.9226 135.603 52.0947C135.614 52.3851 135.678 52.7186 135.603 52.9982C135.657 53.095 135.625 52.9875 135.635 53.1596C135.635 53.1703 135.625 53.2886 135.625 53.3102L135.453 54.3858C135.034 55.8916 134.593 56.6446 133.895 57.9568C133.701 58.3225 133.486 58.656 133.271 59.0109C133.078 59.3444 132.809 59.6025 132.584 59.9467C132.38 60.2694 132.089 60.5598 131.885 60.861C131.681 61.1514 131.423 61.4311 131.187 61.7322C121.978 73.0692 102.938 72.0367 91.0748 65.8088C85.3154 62.7863 78.965 56.2466 77.9334 49.9327C77.6111 47.9966 77.697 46.8565 78.2343 44.9741C78.331 44.6299 78.4062 44.4255 78.5244 44.1459C78.9865 43.0272 79.6312 41.6612 80.4693 40.6179C80.6412 40.4243 80.9313 40.0263 81.1677 39.3701C81.5438 38.3268 81.5008 36.6058 81.9414 37.0898C82.7688 37.9934 80.6735 42.3066 82.715 47.5233C83.3598 49.1798 84.3806 50.6319 85.4014 52.0302C97.1029 67.9493 124.353 69.4659 135.506 50.3522Z" fill="#EAC91F"/>
<path fill-rule="evenodd" clip-rule="evenodd" d="M81.7161 35.0131C81.5979 33.4857 80.964 34.6151 79.782 31.7862C78.6753 29.1402 80.5342 26.8276 80.921 30.2266C81.1144 31.9583 84.2949 31.6464 82.6509 33.7546C82.522 33.9375 81.974 38.2292 81.7161 35.0131Z" fill="#C5C12E"/>
<path fill-rule="evenodd" clip-rule="evenodd" d="M82.876 32.3363C82.7255 32.1965 80.6195 31.379 80.7914 29.7548C80.8344 29.3461 79.7169 28.0123 80.9741 28.3027C81.8982 28.5178 81.2212 29.3246 81.5865 30.2281C81.8552 30.8842 81.78 30.7013 82.7793 31.3897C84.015 32.2287 83.1231 32.5622 82.876 32.3363Z" fill="#E9B95B"/>
<path fill-rule="evenodd" clip-rule="evenodd" d="M130.982 52.2661C129.929 55.9662 111.727 60.8818 107.095 60.2579C102.786 59.6771 96.7154 57.9453 93.5671 54.9981C90.999 52.5995 89.14 51.1044 94.4589 52.6533C96.9088 53.3632 100.014 55.5897 103.668 56.3857C108.46 57.4398 110.244 56.6546 114.961 56.0953C120 55.5037 125.072 53.417 129.789 51.8789C129.897 51.8574 131.046 52.0187 130.982 52.2661Z" fill="#F3DC73"/>
<path fill-rule="evenodd" clip-rule="evenodd" d="M135.677 74.5194C136 76.4985 135.881 79.4242 134.506 82.5973C132.927 86.2329 129.005 88.8251 124.545 91.0301C123.019 91.7831 121.795 92.181 120.527 92.6758C118.023 93.6439 115.82 94.6872 113.209 92.8049C111.404 91.5034 109.491 89.5673 108.299 88.5885C104.548 85.523 104.269 80.7472 105.129 76.5954C105.935 72.6909 107.772 68.8939 110.297 65.9037C113.252 62.408 117.239 61.9132 121.891 63.3545C123.653 63.9031 125.577 65.2261 127.5 66.1296C128.08 66.3985 128.661 66.6351 129.23 66.7965C132.099 67.6247 135.226 71.7873 135.677 74.5194Z" fill="#CB4544"/>
<path fill-rule="evenodd" clip-rule="evenodd" d="M121.902 67.4641C123.901 68.4106 125.47 67.7975 127.307 68.3999C127.705 68.5289 128.317 68.8731 128.682 69.056C130.219 69.8519 131.541 71.8849 130.359 72.9605C128.414 74.7245 121.999 71.2933 119.882 69.497C118.507 68.3353 116.497 66.9478 115.315 65.5818C113.876 63.9253 115.391 63.0003 117.486 63.9253C118.754 64.4846 120.172 66.6466 121.902 67.4641Z" fill="#E15E65"/>
<path fill-rule="evenodd" clip-rule="evenodd" d="M120.408 73.0165C120.602 73.1026 128.059 76.9748 128.392 77.2652C131.583 79.965 125.62 82.5573 118.764 75.8992C118.012 75.1678 119.527 72.64 120.408 73.0165Z" fill="#E15E65"/>
<path fill-rule="evenodd" clip-rule="evenodd" d="M128.972 67.7552C127.328 66.6904 123.621 64.8295 121.569 64.2702C119.936 63.8185 117.206 63.3882 120.279 65.7869C122.471 67.4971 120.602 64.2595 123.729 66.1095C125.631 67.2389 126.232 66.3354 128.908 68.4006C129.316 68.7125 129.531 68.8094 129.574 68.7125C129.66 68.5297 129.477 68.0779 128.972 67.7552Z" fill="#E15E65"/>
<path fill-rule="evenodd" clip-rule="evenodd" d="M130.647 73.5626C130.841 72.3041 131.7 70.4325 133.764 73.7239C135.01 75.7138 134.462 80.8122 133.151 82.3718C131.507 84.3187 130.132 83.0925 130.68 81.1672C131.228 79.2526 131.066 78.22 131.099 76.9185C131.131 75.9074 130.583 74.0251 130.647 73.5626Z" fill="#96271F"/>
<path fill-rule="evenodd" clip-rule="evenodd" d="M129.348 66.1966C131.508 66.6483 131.916 69.0039 134.936 70.4022C137.976 71.8006 138.578 74.9414 139.083 77.5874C139.706 80.868 139.663 83.4602 138.17 86.6441C138.03 86.9452 137.224 88.4941 136.827 88.1499C134.742 86.3859 133.388 79.3729 133.421 76.8129C133.442 74.8446 131.905 70.5206 131.293 69.9935C129.036 68.0467 128.66 68.7028 128.123 67.9176C127.049 66.3579 127.392 65.7771 129.348 66.1966Z" fill="#76A558"/>
<path fill-rule="evenodd" clip-rule="evenodd" d="M134.817 84.4366C133.452 81.242 133.194 79.2091 132.378 76.1221C131.658 73.4115 129.358 68.9585 127.295 68.539C127.252 68.5282 124.351 68.184 124.491 68.0334C124.856 67.6247 124.996 67.2482 125.984 66.6136C128.509 64.9894 131.658 66.7427 132.55 69.2166C133.388 71.5507 134.194 73.2179 134.301 75.4229C134.387 77.1869 134.817 84.4366 134.817 84.4366Z" fill="#6E7732"/>
<path fill-rule="evenodd" clip-rule="evenodd" d="M123.847 68.0033C123.288 67.8957 122.89 67.928 122.396 67.6699C123.105 66.8954 124.083 65.4003 124.609 64.2924C124.76 63.9805 124.857 63.7008 125.233 63.6578C126.092 63.5717 126.791 63.8299 126.081 64.97C125.609 65.7337 124.663 66.3791 124.137 67.1213C124.008 67.2934 123.975 67.842 123.847 68.0033Z" fill="#783619"/>
<path fill-rule="evenodd" clip-rule="evenodd" d="M80.2539 90.0312C79.0182 91.6124 76.7832 93.4947 73.5166 94.6349C69.7773 95.9364 65.2106 94.7854 60.5686 92.9892C58.9783 92.3761 57.8608 91.7414 56.6359 91.1391C54.2289 89.9559 51.9724 89.0309 51.5856 85.8363C51.317 83.6205 51.4567 80.8992 51.3707 79.3611C51.0913 74.5208 54.4116 71.0896 58.0435 68.9061C61.4605 66.8624 65.5007 65.6469 69.4119 65.4856C73.9787 65.3027 77.0518 67.9057 79.1256 72.3158C79.91 73.983 80.2431 76.2956 80.8771 78.3285C81.0705 78.9416 81.2854 79.5224 81.554 80.0602C82.9187 82.7278 81.9624 87.8585 80.2539 90.0312Z" fill="#CB4544"/>
<path fill-rule="evenodd" clip-rule="evenodd" d="M76.1272 75.114C76.7827 77.2329 78.287 77.9751 79.1036 79.7284C79.2756 80.1156 79.4367 80.7932 79.5442 81.1912C79.9955 82.8584 79.3938 85.214 77.8035 85.0742C75.1924 84.8375 73.3764 77.7815 73.2582 75.0064C73.183 73.2101 72.8499 70.7792 73.0541 68.9829C73.3012 66.7994 74.9989 67.2835 75.7404 69.4562C76.1917 70.7792 75.5577 73.2746 76.1272 75.114Z" fill="#E15E65"/>
<path fill-rule="evenodd" clip-rule="evenodd" d="M71.0345 77.7586C71.1097 77.963 73.2909 86.0839 73.3124 86.5141C73.4844 90.6983 67.553 88.0523 67.8109 78.49C67.8324 77.4467 70.7229 76.8551 71.0345 77.7586Z" fill="#E15E65"/>
<path fill-rule="evenodd" clip-rule="evenodd" d="M80.705 80.5113C80.3826 78.586 79.2329 74.5847 78.2551 72.6916C77.4814 71.1857 75.9448 68.8839 76.2672 72.7776C76.4929 75.5527 77.6104 71.9817 78.3625 75.542C78.8246 77.704 79.8883 77.5426 80.1785 80.9093C80.2215 81.4256 80.2967 81.6515 80.4041 81.6085C80.5975 81.5439 80.8017 81.1029 80.705 80.5113Z" fill="#E15E65"/>
<path fill-rule="evenodd" clip-rule="evenodd" d="M77.5672 85.6826C78.6203 84.9727 80.5867 84.3488 79.5551 88.0812C78.9319 90.3507 74.8164 93.3947 72.7748 93.47C70.2282 93.5776 70.2067 91.7275 71.9904 90.8348C73.7742 89.942 74.4189 89.1245 75.3967 88.2748C76.1596 87.6187 77.1804 85.9407 77.5672 85.6826Z" fill="#96271F"/>
<path fill-rule="evenodd" clip-rule="evenodd" d="M82.1012 79.7356C83.2294 81.6287 81.7681 83.5325 82.7889 86.6948C83.8097 89.8787 81.9078 92.4494 80.3067 94.6114C78.3189 97.3004 76.374 99.0106 73.0322 100.065C72.7099 100.162 71.0336 100.624 71.0121 100.086C70.9047 97.3542 75.149 91.6212 77.0509 89.9109C78.5123 88.5987 80.6506 84.5328 80.6291 83.7369C80.5324 80.7574 79.8017 80.9188 80.0059 79.9937C80.4249 78.1544 81.0804 78.0146 82.1012 79.7356Z" fill="#76A558"/>
<path fill-rule="evenodd" clip-rule="evenodd" d="M72.3774 96.1193C73.8066 92.9462 75.1282 91.3865 76.8474 88.6975C78.3518 86.3311 80.071 81.6307 78.9857 79.8237C78.9642 79.7914 77.2558 77.4143 77.4599 77.4143C78.0079 77.4143 78.3733 77.2529 79.5123 77.5541C82.4242 78.3178 83.2623 81.8243 82.0374 84.1584C80.8876 86.3526 80.2107 88.0844 78.6634 89.644C77.4169 90.8918 72.3774 96.1193 72.3774 96.1193Z" fill="#6E7732"/>
<path fill-rule="evenodd" clip-rule="evenodd" d="M77.0516 76.9081C76.7507 76.424 76.4606 76.1551 76.3209 75.6066C77.374 75.6066 79.1254 75.3162 80.3074 74.9504C80.6298 74.8429 80.9091 74.7353 81.1885 74.9827C81.8332 75.5636 82.1126 76.2519 80.8017 76.4993C79.9206 76.6714 78.8138 76.4025 77.9005 76.5101C77.6856 76.5424 77.2665 76.8865 77.0516 76.9081Z" fill="#783619"/>
<path d="M109.707 17.9841C110.481 16.8224 118.131 8.07762 124.997 -1.25874C129.478 -7.34673 134.937 -1.00059 135.549 3.8612C135.71 5.11967 136.108 11.2937 132.637 16.3384C128.135 22.8673 120.527 24.4055 114.607 28.9123C111.834 31.0205 108.772 32.2145 107.268 35.2692C106.075 37.7001 105.849 43.0352 104.162 45.1003C101.25 48.6714 98.7897 48.2842 99.1658 44.2291C99.198 43.8419 99.2625 43.4547 99.3485 43.0782C100.659 37.2376 102.873 29.719 103.432 28.4713C103.937 27.3527 107.16 21.7917 109.707 17.9841Z" fill="#E5A951"/>
<path d="M111.652 45.4784C114.22 42.7463 112.576 37.6801 113.479 34.6361C114.349 31.6997 123.966 20.9651 118.228 20.4703C111.47 19.8787 108.815 30.8392 107.827 35.8516C107.419 37.8738 106.838 50.5983 111.652 45.4784Z" fill="#E5A951"/>
<path d="M115.896 43.7889C118.464 41.0569 116.82 35.9907 117.723 32.9467C118.593 30.0103 128.21 19.2756 122.472 18.7808C115.713 18.1892 113.059 29.1498 112.071 34.1622C111.662 36.1843 111.082 48.9089 115.896 43.7889Z" fill="#E5A951"/>
<path d="M122.226 41.2284C124.74 38.4533 123.01 33.4195 123.859 30.3539C124.675 27.4068 134.11 16.5 128.35 16.102C121.581 15.6395 119.12 26.6431 118.218 31.6662C117.852 33.6991 117.508 46.4344 122.226 41.2284Z" fill="#E5A951"/>
<path d="M171.417 -45.0033L135.818 3.46401C136.001 4.35677 134.711 8.12143 134.4 8.98193C131.52 17.0598 126.814 18.9959 120.614 25.0516C117.712 27.8805 112.2 38.9379 106.527 38.1527C101.133 37.3997 109.836 25.5034 111.459 22.8144C112.469 21.1364 119.142 13.2091 110.814 16.6296C114.038 11.8753 119.217 5.99171 122.064 1.64622C124.063 -1.40854 125.664 -4.61388 127.77 -7.65788L133.476 -17.7687C139.697 -28.2775 150.604 -56.0714 154.042 -68L171.417 -45.0033Z" fill="#F8D490"/>
<path fill-rule="evenodd" clip-rule="evenodd" d="M58.2049 96.8271C53.8424 102.442 56.1526 109.756 58.7637 113.058C61.3855 116.371 66.8441 118.533 71.3893 117.264C73.8392 116.575 78.4059 113.951 80.2863 110.165C81.8659 106.97 82.7685 102.237 80.0929 98.1178C74.269 89.1687 64.3404 88.9213 58.2049 96.8271Z" fill="#FDAC16"/>
<path fill-rule="evenodd" clip-rule="evenodd" d="M68.8638 116.652C69.0357 116.77 74.8918 115.49 72.904 113.21C71.4641 111.564 70.7657 111.263 69.1754 111.231C68.1761 111.209 65.5972 112.435 64.2111 111.059C63.8243 110.671 55.8513 106.036 57.635 110.316C59.7303 115.34 63.4804 115.942 68.3265 116.62C68.6918 116.663 68.4769 116.727 68.8638 116.652Z" fill="#EE9721"/>
<path fill-rule="evenodd" clip-rule="evenodd" d="M70.4005 114.102C70.97 113.951 71.3246 113.188 70.9485 113.134C70.4543 113.059 70.3038 112.811 70.0782 112.844C69.3475 112.951 69.7666 113.048 69.4227 112.876L69.2938 112.811C68.6276 112.671 68.2408 113.016 67.9077 113.36C67.7465 113.521 68.0259 113.769 68.2408 114.005C68.5309 114.242 68.5846 114.285 68.5739 114.403C68.5524 114.586 68.6813 114.898 68.7673 115.038C69.2186 115.489 69.7451 115.005 69.7773 114.586C69.7988 114.349 69.9278 114.22 70.4005 114.102Z" fill="#6E7732"/>
<path fill-rule="evenodd" clip-rule="evenodd" d="M69.6053 114.391L69.5731 114.402C69.6483 114.402 69.8202 114.273 69.8417 114.176C69.8954 113.961 69.8632 113.961 69.7772 113.757C69.7343 113.649 69.4979 113.477 69.3689 113.466C69.0788 113.445 69.0358 113.671 68.7672 113.821C68.5737 113.929 68.6275 114.026 68.6275 114.208C68.6275 114.305 69.0036 114.563 69.1862 114.488C69.3259 114.424 69.5623 114.402 69.5838 114.391H69.6053Z" fill="#76A558"/>
<path fill-rule="evenodd" clip-rule="evenodd" d="M77.6968 108.249C79.3838 107.012 77.0091 93.0933 68.7675 95.4597C64.5016 96.6859 63.9536 102.968 66.468 102.623C71.1852 101.989 70.0247 111.841 75.9238 109.604C76.3321 109.454 77.4711 108.421 77.6968 108.249Z" fill="#EE9721"/>
<path d="M76.3419 96.8172C81.1772 99.3234 79.7696 103.056 82.7783 106.842C83.466 107.702 92.4812 113.005 92.1588 111.822C90.8372 107.1 88.3013 103.099 87.2375 98.1187C86.1415 92.988 85.1852 87.8466 81.4351 83.8883C78.19 80.4678 76.3634 78.1122 74.8483 73.4763C73.2687 68.6468 72.205 65.4199 66.3488 65.3231C60.6646 65.2263 61.3523 66.5924 61.6746 70.4216C61.8895 72.9385 61.5135 77.0581 62.6847 79.3277C64.5114 82.8772 68.3044 83.0493 69.4542 87.0829C71.0445 92.6653 70.389 93.7302 76.3419 96.8172Z" fill="#00704A"/>
<path d="M85.2604 100.604C85.2926 100.604 85.3248 100.593 85.3571 100.571C85.4645 100.507 85.5075 100.367 85.443 100.259C84.5942 98.7857 83.6163 97.452 82.6708 96.1505C82.2839 95.6234 81.8864 95.0749 81.4995 94.5155C80.1994 92.6655 79.5117 90.482 78.8455 88.3738C78.1685 86.2225 77.4701 84.0068 76.1162 82.1137C75.0954 80.6831 73.677 79.3816 72.1834 78.0048C69.6046 75.6385 66.929 73.186 66.4347 70.013C66.4132 69.8839 66.2951 69.8086 66.1769 69.8194C66.0479 69.8409 65.9727 69.9592 65.9834 70.0775C66.51 73.4012 69.2392 75.9074 71.8718 78.3275C73.3547 79.6828 74.7515 80.9735 75.7401 82.3611C77.051 84.2004 77.7387 86.3839 78.4049 88.5028C79.0819 90.6433 79.7803 92.8591 81.1235 94.7737C81.5103 95.333 81.9186 95.8816 82.3054 96.4086C83.2403 97.6994 84.2181 99.0224 85.0455 100.474C85.0992 100.571 85.1744 100.604 85.2604 100.604Z" fill="#00593B"/>
<path d="M72.9456 79.2821C73.0208 79.2821 73.0853 79.2391 73.1283 79.1746C73.1927 79.067 73.1605 78.9272 73.0531 78.8626C72 78.228 70.7321 77.9268 69.5071 77.6257C67.5085 77.1524 65.6281 76.7006 64.4998 74.9474C64.4354 74.8398 64.2957 74.8075 64.1882 74.8828C64.0808 74.9474 64.0485 75.0872 64.1238 75.1948C65.3487 77.0986 67.4118 77.5934 69.4104 78.0667C70.6569 78.3678 71.8388 78.6475 72.8274 79.2498C72.8596 79.2714 72.9026 79.2821 72.9456 79.2821Z" fill="#00593B"/>
<path d="M78.4255 87.9098C78.447 87.9098 78.4578 87.9098 78.4793 87.899C78.5975 87.8668 78.6619 87.7377 78.6297 87.6086C77.5981 84.3172 74.7614 83.801 72.2578 83.3492C71.3552 83.1879 70.4956 83.0373 69.7649 82.7576C69.6467 82.7146 69.5178 82.7791 69.4748 82.8867C69.4318 83.005 69.4963 83.1341 69.6145 83.1771C70.3881 83.4675 71.2585 83.6181 72.1826 83.7902C74.6755 84.242 77.2543 84.7045 78.1999 87.7377C78.2214 87.856 78.3181 87.9206 78.4255 87.9098Z" fill="#00593B"/>
<path d="M71.0765 77.3372C71.098 77.3372 71.1195 77.3372 71.141 77.3265C71.2592 77.2834 71.3237 77.1544 71.2807 77.036C71.1947 76.8102 71.1087 76.552 71.0013 76.2831C70.2276 74.2072 69.0672 71.0771 70.088 69.6035C70.1632 69.496 70.1309 69.3561 70.0342 69.2916C69.9268 69.2163 69.7871 69.2486 69.7226 69.3454C68.5622 71.0233 69.7764 74.2825 70.5822 76.4445C70.679 76.7134 70.7757 76.9608 70.8509 77.1866C70.8831 77.2834 70.9798 77.3372 71.0765 77.3372Z" fill="#00593B"/>
<path d="M80.4579 92.7077C80.4794 92.7077 80.5009 92.697 80.5224 92.697C80.6406 92.654 80.6943 92.5141 80.6513 92.4066C80.1141 91.0298 78.5131 90.9007 76.9657 90.7716C75.2465 90.6318 73.624 90.492 73.119 88.9108C73.076 88.7925 72.9578 88.728 72.8289 88.7602C72.7107 88.8033 72.6462 88.9323 72.6784 89.0506C73.2802 90.9222 75.2143 91.0836 76.9228 91.2341C78.3949 91.3525 79.781 91.4708 80.2215 92.5894C80.2753 92.6647 80.3612 92.7185 80.4579 92.7077Z" fill="#00593B"/>
<path d="M87.4414 104.391C87.4736 104.391 87.5166 104.381 87.5489 104.359C87.6563 104.295 87.6886 104.155 87.6241 104.047C86.5281 102.305 85.2924 101.692 83.8633 100.971C83.283 100.681 82.6813 100.379 82.0258 99.9706C81.9184 99.9061 81.7787 99.9384 81.7142 100.046C81.6498 100.153 81.682 100.293 81.7894 100.358C82.4664 100.777 83.0681 101.079 83.6591 101.369C85.0882 102.079 86.2057 102.649 87.2373 104.273C87.2802 104.359 87.3555 104.402 87.4414 104.391Z" fill="#00593B"/>
<path d="M94.1907 87.4587C89.3554 84.9633 90.763 81.2201 87.7436 77.4339C87.0559 76.5734 78.0299 71.2814 78.363 72.4646C79.6847 77.1865 82.2205 81.1771 83.2951 86.1679C84.3911 91.2986 85.3581 96.4401 89.1082 100.398C92.3533 103.819 94.18 106.164 95.7058 110.8C97.2961 115.618 98.3599 118.856 104.216 118.942C109.9 119.039 109.213 117.673 108.89 113.833C108.675 111.316 109.041 107.196 107.869 104.927C106.032 101.377 102.239 101.216 101.089 97.1715C99.4881 91.5998 100.154 90.5349 94.1907 87.4587Z" fill="#8BA540"/>
<path d="M85.273 83.6813C85.2408 83.6813 85.2085 83.6921 85.1763 83.7136C85.0689 83.7781 85.0259 83.918 85.0904 84.0255C85.9392 85.4991 86.917 86.8329 87.8626 88.1344C88.2494 88.6614 88.647 89.21 89.0339 89.7585C90.334 91.6086 91.0217 93.7921 91.6879 95.9003C92.3649 98.0516 93.0633 100.267 94.4172 102.16C95.438 103.591 96.8564 104.892 98.35 106.269C100.929 108.636 103.604 111.088 104.109 114.25C104.131 114.379 104.249 114.455 104.367 114.444C104.496 114.422 104.571 114.304 104.561 114.186C104.034 110.862 101.305 108.356 98.6616 105.936C97.1787 104.581 95.7819 103.29 94.7826 101.902C93.4716 100.063 92.7839 97.8795 92.1177 95.7713C91.4408 93.6308 90.7423 91.415 89.3992 89.5004C89.0124 88.9411 88.604 88.3925 88.2172 87.8655C87.2824 86.5855 86.3046 85.2517 85.4772 83.7996C85.4449 83.7136 85.359 83.6706 85.273 83.6813Z" fill="#618E44"/>
<path d="M97.6078 104.991C97.5326 104.991 97.4681 105.034 97.4252 105.098C97.3607 105.206 97.3929 105.345 97.5004 105.41C98.5534 106.045 99.8214 106.346 101.046 106.636C103.045 107.11 104.925 107.551 106.054 109.304C106.118 109.411 106.258 109.444 106.365 109.368C106.473 109.304 106.505 109.164 106.43 109.056C105.205 107.153 103.142 106.658 101.143 106.184C99.8966 105.894 98.7146 105.614 97.726 105.012C97.6938 104.991 97.6508 104.98 97.6078 104.991Z" fill="#618E44"/>
<path d="M92.1172 96.3664C92.0957 96.3664 92.085 96.3664 92.0635 96.3771C91.9453 96.4094 91.8808 96.5385 91.9131 96.6676C92.9446 99.9589 95.7813 100.475 98.285 100.927C99.1876 101.088 100.047 101.239 100.778 101.519C100.896 101.562 101.025 101.497 101.068 101.379C101.111 101.26 101.047 101.131 100.928 101.088C100.155 100.809 99.2843 100.647 98.3602 100.475C95.8673 100.023 93.2884 99.5609 92.3321 96.5385C92.3214 96.4202 92.2247 96.3556 92.1172 96.3664Z" fill="#618E44"/>
<path d="M99.477 106.939C99.4555 106.939 99.434 106.939 99.4126 106.949C99.2944 106.992 99.2299 107.122 99.2729 107.24C99.3588 107.466 99.4448 107.724 99.5522 107.993C100.326 110.069 101.486 113.199 100.466 114.672C100.39 114.78 100.423 114.92 100.519 114.984C100.627 115.06 100.766 115.027 100.831 114.93C101.991 113.253 100.777 109.993 99.9713 107.831C99.8746 107.563 99.7779 107.315 99.7027 107.089C99.6704 106.992 99.5737 106.928 99.477 106.939Z" fill="#618E44"/>
<path d="M90.0861 91.5697C90.0646 91.5697 90.0431 91.5805 90.0216 91.5805C89.9034 91.6235 89.8497 91.7633 89.8926 91.8709C90.4406 93.2477 92.0309 93.3768 93.5783 93.5058C95.2975 93.6457 96.92 93.7855 97.4358 95.3667C97.4788 95.485 97.597 95.5495 97.7259 95.5172C97.8441 95.4742 97.9086 95.3451 97.8764 95.2268C97.2746 93.3552 95.3405 93.1939 93.632 93.0541C92.1599 92.9358 90.7737 92.8174 90.3332 91.7096C90.2687 91.6127 90.172 91.559 90.0861 91.5697Z" fill="#005915"/>
<path d="M83.0896 79.8867C83.0574 79.8867 83.0144 79.8975 82.9822 79.919C82.8747 79.9835 82.8425 80.1233 82.907 80.2309C84.003 81.9626 85.2387 82.5865 86.6678 83.2964C87.2481 83.5868 87.8498 83.888 88.5053 84.2967C88.6127 84.3613 88.7524 84.329 88.8169 84.2214C88.8813 84.1139 88.8491 83.974 88.7417 83.9095C88.0647 83.5008 87.4522 83.1888 86.8612 82.8984C85.4321 82.1885 84.3146 81.6185 83.2831 79.9943C83.2508 79.919 83.1756 79.8867 83.0896 79.8867Z" fill="#005915"/>
<path fill-rule="evenodd" clip-rule="evenodd" d="M83.7671 67.1411C81.7148 73.7131 86.2922 79.5537 89.7737 81.6619C93.2766 83.7701 98.9501 83.8777 102.646 81.1779C104.634 79.7258 107.879 75.7998 108.298 71.7232C108.653 68.292 107.858 63.6884 104.033 60.8703C95.7373 54.75 86.6576 57.9016 83.7671 67.1411Z" fill="#76A558"/>
<path fill-rule="evenodd" clip-rule="evenodd" d="M100.153 81.4904C100.347 81.5442 105.225 78.3926 102.646 77.005C100.787 76.0047 100.046 75.9617 98.5954 76.478C97.682 76.8007 95.7694 78.7798 94.0394 78.0054C93.5559 77.7903 84.7555 76.2951 87.8287 79.565C91.4283 83.405 95.0387 82.6736 99.6592 81.641C99.9923 81.5549 99.8203 81.684 100.153 81.4904Z" fill="#ADD692"/>
<path fill-rule="evenodd" clip-rule="evenodd" d="M100.681 78.6499C101.143 78.3164 101.208 77.5097 100.842 77.585C100.369 77.6926 100.155 77.5097 99.9611 77.6173C99.3379 77.9615 99.7462 77.9077 99.3809 77.8647L99.2412 77.8432C98.5857 77.94 98.36 78.3917 98.1774 78.8112C98.0914 79.0156 98.4245 79.1446 98.6932 79.2845C99.037 79.4028 99.1015 79.4243 99.123 79.5319C99.166 79.704 99.3809 79.9406 99.5206 80.0374C100.079 80.2955 100.402 79.6825 100.284 79.2845C100.219 79.0909 100.294 78.9295 100.681 78.6499Z" fill="#6E7732"/>
<path fill-rule="evenodd" clip-rule="evenodd" d="M100.046 79.1883L100.025 79.199C100.089 79.1775 100.207 79.0054 100.186 78.9086C100.154 78.6935 100.132 78.7042 99.9817 78.5429C99.9065 78.4569 99.6378 78.3816 99.5089 78.4246C99.2402 78.5106 99.2832 78.7257 99.0898 78.9516C98.9501 79.113 99.0361 79.1775 99.1005 79.3496C99.1328 79.4356 99.5626 79.5432 99.7023 79.4141C99.8098 79.3066 100.014 79.2098 100.025 79.199L100.046 79.1883Z" fill="#76A558"/>
<path fill-rule="evenodd" clip-rule="evenodd" d="M105.313 70.8837C106.42 69.1842 99.5534 57.3847 92.8913 62.3218C89.4314 64.8817 91.0754 70.7654 93.2352 69.6037C97.2969 67.4202 99.5856 76.7458 104.174 72.7122C104.475 72.4326 105.162 71.1096 105.313 70.8837Z" fill="#618E44"/>
<path fill-rule="evenodd" clip-rule="evenodd" d="M113.553 112.134C120.892 110.338 123.793 102.712 123.793 98.2374C123.793 93.7413 120.677 88.3417 116.046 86.3841C113.553 85.3299 108.019 84.5017 103.947 86.4271C100.519 88.0405 96.64 91.3964 96.1565 96.6024C95.1142 107.886 103.227 114.662 113.553 112.134Z" fill="#FDAC16"/>
<path fill-rule="evenodd" clip-rule="evenodd" d="M117.753 88.5547C117.689 88.3395 111.961 85.5322 112.122 88.7483C112.241 91.0716 112.617 91.7923 113.917 92.8679C114.734 93.5455 117.689 94.2339 117.936 96.2884C118 96.8584 121.589 106.001 122.932 101.258C124.501 95.686 121.772 92.7066 118.172 88.9419C117.903 88.6622 118.118 88.759 117.753 88.5547Z" fill="#EE9721"/>
<path fill-rule="evenodd" clip-rule="evenodd" d="M114.788 89.6762C114.219 89.4288 113.423 89.8267 113.692 90.1279C114.057 90.5151 114.014 90.8163 114.229 90.9454C114.906 91.3326 114.627 90.9777 114.799 91.3541L114.863 91.494C115.325 92.0533 115.873 92.021 116.378 91.9457C116.615 91.9135 116.55 91.5262 116.529 91.1928C116.443 90.8056 116.432 90.7303 116.518 90.6442C116.658 90.5151 116.754 90.1602 116.776 89.9773C116.701 89.3104 115.938 89.3535 115.637 89.6762C115.454 89.859 115.261 89.8805 114.788 89.6762Z" fill="#6E7732"/>
<path fill-rule="evenodd" clip-rule="evenodd" d="M115.648 89.9541L115.681 89.9649C115.616 89.9111 115.39 89.9111 115.315 89.9756C115.133 90.1262 115.154 90.137 115.09 90.3629C115.057 90.4812 115.133 90.7823 115.24 90.8684C115.466 91.0728 115.648 90.9114 115.981 90.9652C116.207 90.9975 116.229 90.8899 116.347 90.7286C116.411 90.6425 116.261 90.18 116.067 90.1262C115.906 90.0832 115.702 89.9434 115.681 89.9434L115.648 89.9541Z" fill="#76A558"/>
<path fill-rule="evenodd" clip-rule="evenodd" d="M104.849 89.7169C102.624 89.6309 95.425 102.807 103.849 106.281C108.212 108.088 112.822 103.205 110.501 101.828C106.149 99.2469 113.617 91.7929 107.223 89.76C106.783 89.6201 105.149 89.7277 104.849 89.7169Z" fill="#EE9721"/>
<path fill-rule="evenodd" clip-rule="evenodd" d="M80.674 68.2155C79.4383 69.7967 78.6646 71.2057 78.3315 73.0128C78.2026 73.7227 78.1059 73.7442 78.2778 74.3788C79.1374 77.6057 77.1926 82.9515 77.214 86.3719C77.2463 92.3739 83.8009 99.8817 90.0008 99.3224C94.2452 98.9351 99.4459 96.3537 101.047 94.9769C108.429 88.6953 106.667 77.9821 98.9946 72.8729C93.8584 69.4525 89.4958 63.2784 82.7908 66.2579C82.4685 66.3977 82.3502 66.5698 82.1783 66.5376C82.1676 66.7097 81.265 67.0646 80.674 68.2155Z" fill="#FADD7C"/>
<path fill-rule="evenodd" clip-rule="evenodd" d="M99.6383 95.6234C100.09 95.3222 100.584 94.9888 100.981 94.6553C101.508 94.2036 102.658 93.0419 103.098 92.5256C103.259 92.332 103.388 92.1707 103.56 91.9663C107.729 86.9432 106.515 77.8865 99.0043 72.8956C94.6525 70.0022 90.2362 63.8389 85.3901 65.1727C84.7024 65.3771 83.0154 66.0224 82.3814 66.5172C80.4043 68.0661 83.4452 65.6245 85.0785 66.7539C87.7648 68.1199 89.398 74.7564 87.8078 77.4025C86.9052 78.9191 86.9051 79.4031 87.711 81.4898C89.0864 85.0071 87.8937 88.8255 92.6324 90.2023C96.1676 91.2349 98.8753 95.1824 93.7821 96.7313C92.9547 96.9141 89.7419 98.5168 90.2684 98.818C91.2247 98.8072 92.4927 97.9682 93.3308 97.5918C93.8251 97.3659 95.136 96.9034 95.684 96.8066C97.3066 96.5054 98.0265 96.6882 99.6383 95.6234Z" fill="#E7BF5C"/>
<path fill-rule="evenodd" clip-rule="evenodd" d="M80.7169 68.1309C81.4261 67.8298 82.0171 67.2597 82.5866 66.7649C82.4039 66.6036 82.2212 66.5605 81.9741 66.2701C81.9526 66.0765 80.5235 64.7858 80.3193 64.6352C79.8143 64.2587 79.4275 63.9683 79.0192 63.4735C78.7183 63.1078 78.4819 62.7636 77.9661 62.8282C76.7949 62.968 75.2905 64.1619 76.6229 65.4634C76.7626 65.5925 77.128 65.8184 77.3751 65.8399C78.3959 65.9474 78.5249 65.9689 79.1696 66.9047C79.277 67.0661 79.8143 67.4748 79.9862 67.6254C80.2119 67.8082 80.4805 67.9481 80.7169 68.1309Z" fill="#783619"/>
<path fill-rule="evenodd" clip-rule="evenodd" d="M96.4258 96.6876C96.5548 96.6661 96.6622 96.6769 96.7912 96.6661C97.0491 96.6446 97.7475 96.5048 97.9946 96.4295C100.445 95.655 103.518 92.5358 104.646 90.2124C104.721 90.0618 104.732 90.0511 104.796 89.8897C104.872 89.6746 105.001 89.4918 105.044 89.2659C105.065 89.1583 105.14 89.04 105.14 88.9539C106.043 83.8017 104.431 78.0472 98.8757 74.0997C93.9867 70.6254 90.7523 65.5915 88.0983 65.7314C86.6047 65.8067 86.422 66.2907 86.9485 67.2157C87.518 68.2053 90.3333 70.0123 91.8161 71.8409C93.0088 73.3037 93.3097 73.0778 93.3527 75.896C93.4924 84.3503 94.0834 87.2545 97.2855 87.8783C98.1128 88.0397 99.1551 87.5772 100.455 87.6524C105.409 87.9644 103.786 91.3311 101.122 93.762C99.2841 95.4399 97.0706 96.3434 95.6737 96.7737C95.7919 96.7737 96.1572 96.7307 96.4258 96.6876Z" fill="#FADD7C"/>
<path fill-rule="evenodd" clip-rule="evenodd" d="M91.9448 122.041C97.9514 118.383 98.3919 110.8 97.1348 106.831C95.8776 102.841 91.5902 98.9255 86.9375 98.4953C84.4231 98.2586 79.2869 99.0869 76.2138 101.926C73.6242 104.325 71.1313 108.38 72.1628 113.134C74.3871 123.46 83.4883 127.182 91.9448 122.041Z" fill="#CB4544"/>
<path fill-rule="evenodd" clip-rule="evenodd" d="M89.0544 99.9463C88.9362 99.7742 83.0693 98.8922 84.1116 101.7C84.8637 103.732 85.401 104.26 86.8624 104.851C87.7757 105.217 90.5909 105.002 91.3861 106.755C91.6117 107.239 97.3497 114.349 97.21 109.756C97.0381 104.367 93.7823 102.496 89.5379 100.161C89.2155 100 89.4412 100.022 89.0544 99.9463Z" fill="#E15E65"/>
<path fill-rule="evenodd" clip-rule="evenodd" d="M86.7333 101.765C86.1531 101.7 85.5621 102.281 85.8845 102.475C86.3143 102.711 86.368 103.002 86.5829 103.045C87.2921 103.195 86.9375 102.969 87.1954 103.249L87.2921 103.357C87.8616 103.722 88.3344 103.54 88.7642 103.335C88.9684 103.238 88.7964 102.916 88.689 102.625C88.5063 102.303 88.4741 102.238 88.5278 102.141C88.6138 101.98 88.603 101.646 88.5708 101.485C88.3129 100.915 87.6574 101.162 87.4748 101.539C87.3888 101.754 87.2169 101.819 86.7333 101.765Z" fill="#6E7732"/>
<path fill-rule="evenodd" clip-rule="evenodd" d="M87.5726 101.784H87.6048C87.5404 101.752 87.3362 101.816 87.2825 101.892C87.1643 102.075 87.1858 102.085 87.1965 102.301C87.1965 102.419 87.3577 102.656 87.4759 102.709C87.7338 102.828 87.852 102.634 88.1528 102.591C88.3677 102.559 88.3462 102.451 88.4107 102.279C88.4429 102.182 88.185 101.816 87.9916 101.827C87.8412 101.838 87.6156 101.773 87.5941 101.773L87.5726 101.784Z" fill="#76A558"/>
<path fill-rule="evenodd" clip-rule="evenodd" d="M77.9336 104.605C75.935 105.165 73.2379 118.857 81.6837 119.578C86.0677 119.954 88.7755 114.329 86.3363 113.759C81.7481 112.683 86.2826 103.981 80.0396 103.971C79.6206 103.981 78.2022 104.53 77.9336 104.605Z" fill="#96271F"/>
<path d="M-24.5232 17.2863C-19.1506 11.0908 -17.1842 4.59406 -12.4671 4.55104C-5.6116 4.49726 1.95303 12.9731 10.7426 16.684C16.4483 19.0934 18.1676 18.2114 24.1097 18.803C30.127 19.3945 39.9481 24.2133 44.4289 29.1826C51.3273 36.8518 53.2937 44.5317 53.8632 49.5979C54.9377 59.1816 48.8882 53.9218 45.6109 47.2207C45.1488 46.2742 44.805 45.2093 44.4934 44.1982C46.449 50.3078 50.9297 60.4508 45.4497 59.7839C41.7104 57.8263 40.9904 51.9534 40.2597 48.178C40.2705 50.297 40.4317 56.1699 39.6258 57.6757C38.3686 60.0206 35.8972 58.6223 35.3169 55.9547C31.3197 58.2781 30.3634 52.2331 30.0518 46.4893C29.8476 42.7354 27.9027 39.799 27.9027 39.799C27.9027 39.799 21.3267 38.9385 17.8452 38.2824C9.71108 36.755 8.85146 36.314 3.67226 31.151C-2.01196 25.4933 -16.7007 19.287 -24.5232 17.2863Z" fill="#895D2D"/>
<path fill-rule="evenodd" clip-rule="evenodd" d="M49.7049 36.7008C56.786 35.6897 62.0189 41.3582 63.5877 45.2949C65.1673 49.2425 64.3292 55.083 60.9552 58.4282C59.1392 60.2353 54.5725 62.9135 50.3174 62.6662C46.7392 62.4618 42.1618 60.8806 39.9053 56.4814C35.0055 46.9299 39.7441 38.1313 49.7049 36.7008Z" fill="#CB4544"/>
<path fill-rule="evenodd" clip-rule="evenodd" d="M61.6854 55.922C61.7069 56.1264 57.6667 60.6117 56.6674 57.7398C55.9474 55.6639 56.0334 54.9002 56.7963 53.4911C57.2798 52.6091 59.633 50.9634 59.1173 49.0704C58.9776 48.5433 58.9024 39.25 61.7499 42.9501C65.0916 47.2956 63.7377 50.8666 61.911 55.4487C61.7821 55.7714 61.9433 55.6101 61.6854 55.922Z" fill="#E15E65"/>
<path fill-rule="evenodd" clip-rule="evenodd" d="M58.6867 55.9873C58.2677 56.4068 57.4295 56.3315 57.5692 55.9765C57.7519 55.5032 57.6015 55.2558 57.7519 55.073C58.214 54.4922 58.085 54.9009 58.1065 54.5137L58.1172 54.3631C58.3322 53.707 58.8264 53.5456 59.2885 53.4273C59.5141 53.3735 59.5893 53.7285 59.6861 54.0404C59.7505 54.4061 59.7613 54.4814 59.8687 54.5244C60.0299 54.589 60.2448 54.8579 60.3308 55.0192C60.5027 55.6323 59.815 55.8582 59.4389 55.6861C59.2133 55.5785 59.0306 55.6323 58.6867 55.9873Z" fill="#6E7732"/>
<path fill-rule="evenodd" clip-rule="evenodd" d="M59.3421 55.4271L59.3636 55.4056C59.3314 55.4702 59.1272 55.5562 59.0413 55.5239C58.8264 55.4594 58.8479 55.4379 58.7082 55.255C58.6329 55.1582 58.6007 54.8678 58.6652 54.7495C58.7941 54.4806 59.009 54.5666 59.2777 54.4053C59.4603 54.2977 59.5248 54.3838 59.686 54.4806C59.7719 54.5343 59.8042 54.9861 59.6537 55.1044C59.5248 55.2012 59.3959 55.3949 59.3744 55.4056L59.3421 55.4271Z" fill="#76A558"/>
<path fill-rule="evenodd" clip-rule="evenodd" d="M49.9506 59.449C48.0272 60.3095 37.0671 51.285 43.2349 45.2615C46.4369 42.1422 52.1963 44.799 50.6383 46.8212C47.7263 50.6289 56.9027 54.5334 52.0137 58.5777C51.6806 58.8466 50.2085 59.3306 49.9506 59.449Z" fill="#96271F"/>
<path d="M-83.675 -41.2168C-76.8196 -41.2705 1.95364 12.9836 10.7432 16.6945C16.4489 19.1039 18.1682 18.2218 24.1103 18.8134C28.6878 19.2652 35.468 22.1586 40.4215 25.7081C40.4 25.7189 40.3786 25.7297 40.3571 25.7404C40.6687 25.9448 40.9481 26.1491 41.2059 26.3212C43.7526 28.053 46.8042 31.4412 48.416 34.3991C47.5026 33.6354 40.3571 28.7199 37.6385 28.8705C26.7751 29.4728 43.6451 38.3466 47.0836 40.7022C49.2004 42.1543 55.4434 45.7254 53.5522 49.1674C51.7578 52.4372 46.4711 49.7374 44.4402 48.3606C40.9803 46.005 38.6163 42.477 34.4579 41.2078C29.6118 39.7234 24.2285 40.9712 19.2642 40.0676C17.8995 39.8202 16.5994 39.3685 15.3959 38.7661C10.4853 37.314 7.71307 35.2273 3.66212 31.183C-2.01135 25.5253 -82.3319 -6.78625 -90.1544 -8.7869C-84.7926 -15.0147 -88.3922 -41.1845 -83.675 -41.2168Z" fill="#573107"/>
<path d="M92.2242 137.882C89.828 137.172 86.454 135.451 85.7878 133.623C85.2076 132.009 85.2291 131.708 85.7341 130.364C86.454 128.449 88.0873 124.728 90.9993 123.975C95.9528 122.695 105.817 129.632 103.206 135.29C101.755 138.474 96.4041 139.119 92.2242 137.882Z" fill="#00704A"/>
<path d="M95.5017 128.608C96.5655 128.167 96.8556 128.942 98.0161 128.038C93.4601 119.25 87.2493 132.029 95.5017 128.608Z" fill="#008155"/>
<path d="M89.3984 127.75C89.2802 127.277 88.9364 126.976 88.3024 127.03C87.7329 127.083 88.3454 128.579 87.6469 128.869C86.2715 129.461 86.422 130.999 87.7651 130.923C88.7644 130.87 89.6885 128.869 89.3984 127.75Z" fill="#00593B"/>
<path d="M88.0338 125.135C88.1413 125.587 88.195 126.039 88.1843 126.448C88.1628 127.158 88.238 127.857 88.2165 128.567C88.2165 128.717 88.2057 128.857 88.1843 129.008C88.1628 129.126 88.1843 129.244 88.1628 129.363C88.152 129.438 87.7867 129.449 87.733 129.449C87.5395 129.438 87.3569 129.352 87.185 129.266C86.3468 128.835 85.6914 128.147 84.9822 127.534C84.3375 126.975 83.8539 126.007 83.5961 125.2C83.3919 124.544 83.2092 123.791 83.4241 123.113C83.4886 122.887 84.2945 121.048 84.0581 120.93C85.1541 121.5 86.422 122.005 87.142 123.059C87.5395 123.619 87.8512 124.372 88.0338 125.135Z" fill="#76A558"/>
<path d="M141.556 265.881C142.684 265.623 167.419 252.984 167.151 252.403C164.593 246.627 126.383 181.768 125.105 175.54C124.299 171.614 122.719 168.29 122.87 164.256C123.235 154.286 127.619 148.854 124.073 141.561C123.224 139.818 121.699 135.419 120.366 132.698C118.98 129.858 118.067 128.955 115.047 129.277C113.178 127.32 110.781 127.804 110.781 127.804C110.781 127.804 109.148 127.201 108.546 127.072C108.138 126.986 106.763 126.954 106.763 126.954C106.763 126.954 97.9516 122.404 96.9953 124.685C95.1579 129.041 100.81 129.267 103.485 133.064C107.622 138.926 110.953 143.357 107.311 147.735C101.25 155.006 97.7689 133.838 89.0008 135.355C84.7995 136.075 89.0331 138.635 91.8591 143.217C94.8785 148.122 95.2761 152.715 96.7052 155.781C99.4989 161.804 104.334 165.655 108.224 175.109C110.857 181.477 141.223 264.741 141.556 265.881Z" fill="#E2C0A1"/>
<path d="M18.8991 132.636C15.7614 131.302 17.9535 125.473 21.1985 120.224C28.1507 108.973 36.9833 107.886 49.1361 109.22C50.404 109.36 52.306 109.618 53.5416 110.102C53.8748 117.814 40.1639 110.36 33.6845 114.942C38.2619 112.78 48.6203 116.201 53.0366 118.395C53.5954 119.869 52.5853 121.891 50.3288 121.514C47.2127 120.998 37.5743 117.567 33.2547 119.481C38.8637 119.094 45.4398 123.536 50.5975 124.881C51.0058 126.161 50.1569 127.989 48.298 127.86C36.7146 127.054 37.1337 126.871 26.6356 131.292C22.7458 132.927 20.2959 133.228 18.8991 132.636Z" fill="#BF8328"/>
<path d="M33.8775 121.18C37.0903 119.631 47.6207 110.574 49.4474 116.533C50.6078 120.319 43.3763 123.718 39.1642 126.138C32.1905 130.688 34.1999 131.269 26.1947 136.518C22.4876 138.949 18.4151 137.486 15.1271 140.229C10.2595 144.284 -60.4763 222.654 -64.6239 224.493C-70.9851 227.322 -91.9813 209.929 -96 204.669C-85.1151 187.373 0.42765 140.003 14.5469 120.405C19.984 112.855 26.4956 107.24 34.8446 104.099C39.003 102.539 43.7309 100.42 48.8456 100.506C50.769 100.883 50.8765 101.916 48.9853 103.636C44.5905 107.627 35.1884 108.66 29.7621 115.178C28.2578 116.985 28.4727 116.619 27.6023 117.985C23.9382 123.729 28.9455 124.493 33.8775 121.18C33.8668 121.18 33.8668 121.18 33.8775 121.18Z" fill="#CAA259"/>
<path d="M210.066 141.671C211.452 133.787 215.149 128.29 212.28 124.698C208.111 119.47 197.032 118.943 188.823 114.565C183.483 111.715 183.096 109.876 179.002 105.734C174.854 101.54 165.162 97.0542 158.65 96.7208C148.593 96.2045 141.576 99.4421 137.396 102.131C129.488 107.219 137.181 108.563 144.273 106.928C145.273 106.702 146.293 106.294 147.25 105.917C141.426 108.198 130.992 111.037 134.86 114.78C138.643 116.415 143.532 113.339 146.841 111.575C145.23 112.877 140.695 116.362 140.05 117.9C139.051 120.298 141.619 121.309 144.005 120.115C144.703 124.579 149.871 121.578 154.406 118.287C157.372 116.136 160.789 115.791 160.789 115.791C160.789 115.791 165.484 120.245 168.128 122.482C174.285 127.709 175.155 128.097 182.247 128.839C190.005 129.645 203.737 136.97 210.066 141.671Z" fill="#ECAE53"/>
<path fill-rule="evenodd" clip-rule="evenodd" d="M127.532 93.9228C130.283 87.7917 137.407 86.4902 141.308 87.2001C145.23 87.9208 149.442 91.5241 150.398 95.8804C150.914 98.236 150.742 103.205 148.421 106.454C146.465 109.186 142.909 112.036 138.299 111.627C128.263 110.724 123.664 102.549 127.532 93.9228Z" fill="#91C12F"/>
<path fill-rule="evenodd" clip-rule="evenodd" d="M148.775 94.0509C148.947 94.1369 150.473 99.6011 147.701 98.9449C145.691 98.4717 145.133 98.0199 144.402 96.7077C143.94 95.8902 143.822 93.1904 142.059 92.6418C141.576 92.4912 134.173 87.8876 138.535 87.4789C143.65 87.0056 145.81 89.8775 148.517 93.6206C148.7 93.9003 148.657 93.6959 148.775 94.0509Z" fill="#ADD692"/>
<path fill-rule="evenodd" clip-rule="evenodd" d="M147.326 96.4609C147.455 96.9987 146.971 97.6333 146.756 97.3429C146.477 96.9664 146.208 96.9557 146.133 96.7405C145.907 96.0844 146.165 96.3856 145.864 96.1812L145.746 96.1059C145.338 95.6111 145.456 95.1379 145.596 94.7076C145.66 94.5032 145.983 94.6216 146.283 94.6968C146.606 94.8367 146.67 94.8582 146.756 94.7937C146.896 94.6969 147.208 94.6646 147.379 94.6753C147.949 94.8582 147.788 95.5036 147.455 95.7187C147.261 95.8478 147.218 96.0091 147.326 96.4609Z" fill="#6E7732"/>
<path fill-rule="evenodd" clip-rule="evenodd" d="M147.208 95.6649L147.197 95.6434C147.229 95.708 147.197 95.9016 147.132 95.9661C146.971 96.106 146.96 96.0737 146.756 96.1059C146.649 96.1167 146.402 95.9984 146.337 95.8908C146.197 95.6542 146.359 95.5251 146.369 95.2347C146.38 95.0303 146.477 95.0303 146.627 94.955C146.713 94.912 147.089 95.1164 147.111 95.2992C147.122 95.4498 147.208 95.6542 147.208 95.6757V95.6649Z" fill="#76A558"/>
<path fill-rule="evenodd" clip-rule="evenodd" d="M145.682 105.142C145.392 107.1 132.745 111.273 131.068 103.357C130.198 99.2479 135.194 96.0103 136.022 98.2584C137.58 102.475 145.273 97.1505 146.026 103.066C146.079 103.464 145.725 104.873 145.682 105.142Z" fill="#7DA628"/>
<path d="M137.912 102.065C139.352 98.5153 145.896 101.043 148.292 101.764C152.193 102.925 169.288 110.261 163.056 101.645C161.498 99.4941 153.385 97.0955 152.246 96.8696C155.47 96.2673 159.919 96.5039 162.798 97.3752C166.731 98.5583 176.208 100.978 181.43 115.79C185.266 126.686 172.824 128.396 165.904 122.459C162.164 119.253 159.8 114.402 155.696 111.638C152.171 109.272 148.045 109.648 144.134 108.476C141.834 107.787 136.548 105.442 137.912 102.065Z" fill="#FACC77"/>
<path d="M164.551 107.646C164.766 104.182 164.475 100.805 163.745 97.5996C169.472 99.17 175.844 102.537 179.003 105.731C183.097 109.872 183.494 111.712 188.824 114.562C197.033 118.94 286.573 145.292 290.743 150.52C293.612 154.123 271.595 167.493 270.208 175.377C263.88 170.677 190.006 129.653 182.237 128.836C175.145 128.093 171.739 126.964 165.582 121.736C163.981 120.37 164.153 118.94 162.541 117.434C163.648 114.368 164.346 111.077 164.551 107.646Z" fill="#FACC77"/>
</g>
</svg>
