<svg width="180" height="180" viewBox="0 0 180 180" fill="none" xmlns="http://www.w3.org/2000/svg">
<mask id="mask0" mask-type="alpha" maskUnits="userSpaceOnUse" x="0" y="0" width="180" height="180">
<rect width="180" height="180" fill="#D2F8FD"/>
</mask>
<g mask="url(#mask0)">
<path opacity="0.2" d="M7.90234 163.958C7.90234 165.996 47.3898 167.656 86.8982 167.656C126.386 167.656 158.405 165.996 158.405 163.958C158.405 161.92 126.386 160.26 86.8982 160.26C47.3898 160.26 7.90234 161.92 7.90234 163.958Z" fill="black"/>
<path d="M113.888 105.482C113.888 105.482 132.927 106.743 135.052 109.664C135.052 109.664 140.101 111.912 139.428 117.522C139.428 117.522 140.521 127.44 137.324 146.603C137.324 146.603 136.419 153.2 136.608 157.928L130.045 158.243L129.035 145.489C129.035 145.489 125.143 128.259 129.435 121.115C129.435 121.115 112.52 120.401 108.313 119.791L113.888 105.482Z" fill="#E2985E"/>
<path d="M64.7256 115.17C64.7256 115.17 57.657 123.112 49.5786 130.404C49.5786 130.404 39.6068 131.517 30.4765 143.599C30.4765 143.599 24.6281 149.608 20.7992 153.222C20.7992 153.222 18.6113 153.306 18.1906 155.071C17.7698 156.836 17.5594 157.677 17.5594 157.677L24.4387 158.181C24.4387 158.181 24.3335 156.626 24.6912 156.374C27.0894 154.651 34.5367 150.239 35.9883 149.587C37.4399 148.936 48.0849 143.263 50.925 140.216C50.925 140.216 55.8267 138.997 57.1731 137.653C58.5195 136.308 77.4323 126.642 77.4323 126.642L64.7256 115.17Z" fill="#E2985E"/>
<path d="M79.1107 98.7168L77.1542 102.625L63.4587 114.749C63.4587 114.749 64.6789 124.645 76.0602 128.343L90.5972 119.855C90.5972 119.855 110.036 121.157 112.56 121.956C112.56 121.956 117.715 111.807 116.116 102.814L103.199 101.217L102.631 98.7168H79.1107Z" fill="#4C4847"/>
<path d="M129.374 155.889C129.374 155.889 127.88 158.18 128.575 162.592H149.086C149.086 162.592 150.748 159.462 144.668 158.873C140.734 158.495 137.242 154.797 137.242 154.797C137.242 154.797 136.085 154.923 135.58 156.394C135.033 158.012 131.772 158.411 130.594 156.688C129.858 155.574 129.374 155.889 129.374 155.889Z" fill="#4C4847"/>
<path d="M149.193 162.592H128.576V163.853H149.193V162.592Z" fill="#E2EAF2"/>
<path d="M141.281 160.072C141.428 160.072 141.575 159.988 141.638 159.819C142.038 158.832 142.9 158.601 142.9 158.601C143.111 158.559 143.237 158.328 143.174 158.117C143.132 157.907 142.921 157.76 142.711 157.823C142.669 157.844 141.47 158.16 140.923 159.504C140.839 159.714 140.923 159.946 141.133 160.03C141.196 160.051 141.238 160.072 141.281 160.072Z" fill="#E2EAF2"/>
<path d="M139.767 159.462C139.914 159.462 140.062 159.378 140.125 159.21C140.524 158.223 141.387 158.012 141.387 157.991C141.597 157.949 141.724 157.718 141.66 157.508C141.618 157.298 141.408 157.151 141.198 157.214C141.156 157.235 139.956 157.55 139.409 158.895C139.325 159.105 139.409 159.336 139.62 159.42C139.662 159.462 139.704 159.462 139.767 159.462Z" fill="#E2EAF2"/>
<path d="M138.607 158.663C138.755 158.663 138.902 158.579 138.965 158.411C139.365 157.424 140.227 157.214 140.248 157.193C140.459 157.151 140.585 156.919 140.522 156.709C140.48 156.499 140.269 156.352 140.059 156.415C140.017 156.436 138.818 156.751 138.271 158.096C138.187 158.306 138.271 158.537 138.481 158.621C138.502 158.642 138.544 158.663 138.607 158.663Z" fill="#E2EAF2"/>
<path d="M137.45 157.843C137.597 157.843 137.745 157.759 137.808 157.591C138.207 156.603 139.07 156.393 139.07 156.372C139.28 156.33 139.407 156.099 139.343 155.889C139.301 155.679 139.091 155.532 138.881 155.595C138.839 155.616 137.639 155.931 137.092 157.276C137.008 157.486 137.092 157.717 137.303 157.801C137.345 157.843 137.408 157.843 137.45 157.843Z" fill="#E2EAF2"/>
<path d="M25.9099 162.594H16.2327V164.065H25.9099V162.594Z" fill="#E2EAF2"/>
<path d="M16.2944 162.593C16.2944 162.593 15.6632 160.849 16.5679 159.315L17.8091 156.604C17.8091 156.604 18.4192 157.193 18.9661 156.941C19.6814 156.604 21.6379 154.293 23.4892 156.941C23.4892 156.941 24.1835 156.52 24.5832 156.646L25.3195 159.252C25.3195 159.252 26.6028 161.542 25.7823 162.593H16.2944Z" fill="#4C4847"/>
<path d="M19.4502 159.841C19.4712 159.841 19.5133 159.841 19.5344 159.82C21.1122 159.211 22.732 159.673 22.732 159.694C22.8793 159.736 23.0055 159.652 23.0476 159.484C23.0897 159.337 23.0055 159.169 22.8583 159.127C22.7952 159.106 21.0701 158.602 19.345 159.274C19.2188 159.316 19.1346 159.484 19.1767 159.631C19.2398 159.757 19.324 159.841 19.4502 159.841Z" fill="#E2EAF2"/>
<path d="M19.4502 159.084C19.4712 159.084 19.5133 159.084 19.5344 159.063C21.1122 158.453 22.732 158.916 22.732 158.937C22.8793 158.979 23.0055 158.895 23.0476 158.726C23.0897 158.579 23.0055 158.411 22.8583 158.369C22.7952 158.348 21.0701 157.844 19.345 158.516C19.2188 158.558 19.1346 158.726 19.1767 158.874C19.2398 159 19.324 159.084 19.4502 159.084Z" fill="#E2EAF2"/>
<path d="M19.4502 158.328C19.4712 158.328 19.5133 158.328 19.5344 158.307C21.1122 157.697 22.732 158.16 22.732 158.181C22.8793 158.223 23.0055 158.139 23.0476 157.971C23.0897 157.823 23.0055 157.655 22.8583 157.613C22.7952 157.592 21.0701 157.088 19.345 157.76C19.2188 157.802 19.1346 157.971 19.1767 158.118C19.2398 158.244 19.324 158.328 19.4502 158.328Z" fill="#E2EAF2"/>
<path d="M19.4502 157.572C19.4712 157.572 19.5133 157.572 19.5344 157.551C21.1122 156.942 22.732 157.404 22.732 157.425C22.8793 157.467 23.0055 157.383 23.0476 157.215C23.0897 157.068 23.0055 156.9 22.8583 156.857C22.7952 156.836 21.0701 156.332 19.345 157.005C19.2188 157.047 19.1346 157.215 19.1767 157.362C19.2398 157.488 19.324 157.572 19.4502 157.572Z" fill="#E2EAF2"/>
<path d="M90.5979 119.834C90.5979 119.834 96.9723 116.43 99.1602 113.426C99.1602 113.426 99.8965 117.733 98.6553 120.423L90.5979 119.834Z" fill="#3D3A39"/>
<path d="M77.3048 54.9705C77.3048 54.9705 73.4339 53.0794 68.1114 56.3572C68.1114 56.3572 62.5785 56.1681 52.1649 57.5759C52.1649 57.5759 42.8032 54.9705 28.7922 55.979L28.3715 59.9923C28.3715 59.9923 43.4554 65.5394 51.1762 64.5729C51.1762 64.5729 67.3961 69.0064 75.6218 68.418C80.3973 68.0608 78.6512 57.9121 77.3048 54.9705Z" fill="#E2985E"/>
<path d="M29.3188 56.1044C29.3188 56.1044 21.4297 53.8981 19.5153 54.4865C17.6219 55.0748 9.85907 55.6631 9.77492 56.8818C9.77492 56.8818 9.50143 58.1215 11.479 57.8484C13.4565 57.5962 17.7692 58.0795 17.7692 58.0795C17.7692 58.0795 17.7481 58.6258 18.4845 58.7519C19.2418 58.8779 21.9767 59.8655 22.2081 59.8655C22.4395 59.8655 27.6779 60.4748 28.5614 59.8655C28.5825 59.8865 31.6329 58.8149 29.3188 56.1044Z" fill="#E2985E"/>
<path d="M102.004 54.9705C102.004 54.9705 105.875 53.0794 111.197 56.3572C111.197 56.3572 116.73 56.1681 127.144 57.5759C127.144 57.5759 136.505 54.9705 150.516 55.979L150.937 59.9923C150.937 59.9923 135.853 65.5394 128.132 64.5729C128.132 64.5729 111.913 69.0064 103.687 68.418C98.9113 68.0608 100.657 57.9121 102.004 54.9705Z" fill="#E2985E"/>
<path d="M149.991 56.1044C149.991 56.1044 157.88 53.8981 159.794 54.4865C161.687 55.0748 169.45 55.6631 169.534 56.8818C169.534 56.8818 169.808 58.1215 167.83 57.8484C165.853 57.5962 161.54 58.0795 161.54 58.0795C161.54 58.0795 161.561 58.6258 160.825 58.7519C160.067 58.8779 157.333 59.8655 157.101 59.8655C156.87 59.8655 151.631 60.4748 150.748 59.8655C150.727 59.8865 147.676 58.8149 149.991 56.1044Z" fill="#E2985E"/>
<path d="M104.168 55.8101L102.253 54.9696C98.0669 53.5828 87.8847 51.3556 73.3268 55.8101C73.3268 55.8101 72.0645 59.4031 76.5455 71.9682C76.5455 71.9682 78.8386 86.4874 78.8596 97.1194C78.8596 97.1194 88.0741 100.103 103.011 97.1194L105.114 74.0904C105.114 74.0904 108.291 61.1051 104.168 55.8101Z" fill="#E2985E"/>
<path d="M93.6312 51.7138L93.7574 56.6096L85.6159 56.8407L85.4476 50.4531C88.8767 52.008 92.2638 51.8819 93.6312 51.7138Z" fill="#E2985E"/>
<path d="M85.4687 50.4526L85.3425 45.5358L93.484 45.3047L93.6524 51.6923C92.2639 51.8814 88.8768 52.0075 85.4687 50.4526Z" fill="#E2985E"/>
<path d="M99.8761 55.8105C99.8761 55.8105 93.1651 58.458 81.0054 56.3148C81.0054 56.3148 91.8397 61.1265 99.8761 55.8105Z" fill="#D18E5A"/>
<path d="M98.8244 53.773C98.8244 53.773 102.254 63.1443 92.934 63.4385C83.6143 63.7326 80.9847 53.668 80.9847 53.668L76.9875 54.4244C76.9875 54.4244 85.8864 73.3561 76.0619 72.3685C76.0619 72.3685 78.0394 91.5944 77.9553 98.9275C77.9553 98.9275 90.5988 103.34 103.495 99.7259L105.073 74.4277C105.073 74.4277 106.272 70.5195 106.419 69.0276C106.419 69.0276 103.326 64.6992 102.043 54.6345C102.043 54.6135 100.402 54.1302 98.8244 53.773Z" fill="#B395CE"/>
<path d="M99.9643 76.6538C99.9643 76.6538 93.5689 68.2701 85.0487 76.6538C85.0487 76.6538 92.1384 72.1573 99.9643 76.6538Z" fill="#9E83BA"/>
<path d="M99.8981 34.9875L100.571 28.684C100.571 28.684 90.3471 20.1111 78.6292 29.6715L79.681 38.0973L83.4468 39.1479L99.8981 34.9875Z" fill="#153F57"/>
<path d="M80.7092 36.1216L81.9925 37.1932C82.266 36.5628 82.4764 35.8904 82.6657 35.218C83.6966 31.3309 83.9069 28.4312 83.9069 28.4312C91.6487 21.0351 99.1171 28.2841 99.1171 28.2841C98.9908 29.5869 99.9165 34.9659 99.9165 34.9659C99.9165 38.4539 99.9165 43.0345 97.6024 46.6065C96.6136 48.1193 95.3093 49.359 93.1634 49.6742C83.8228 51.145 81.4245 42.0049 81.4245 42.0049C81.4245 42.0049 78.5003 42.7823 77.8902 38.4749C77.3643 34.9239 80.7092 36.1216 80.7092 36.1216Z" fill="#E2985E"/>
<path d="M95.6455 31.2263C95.1827 28.6838 95.8348 25.5741 91.8587 27.255C91.8587 27.255 87.9668 25.7632 87.6723 28.3687C87.3988 30.8481 86.0734 32.6341 83.2544 32.7391C83.7803 30.1757 83.9066 28.4527 83.9066 28.4527C91.6484 21.0565 99.1167 28.3056 99.1167 28.3056C99.0325 29.0831 99.327 31.3103 99.5795 32.9703C98.2962 33.0963 95.9821 33.0753 95.6455 31.2263Z" fill="#E2985E"/>
<path d="M82.1013 40.9545C82.9007 43.2658 85.846 48.96 92.2414 48.6238C95.6915 48.4347 97.4587 46.1654 98.5947 44.5685C98.3212 45.3249 97.9846 46.0183 97.5639 46.6277C96.5541 48.1195 95.2708 49.3802 93.125 49.6954C83.7843 51.1662 81.386 42.0261 81.386 42.0261C81.386 42.0261 79.135 42.6564 78.1462 39.7988C79.8924 42.6985 82.1013 40.9545 82.1013 40.9545Z" fill="#D18E5A"/>
<path d="M91.8593 27.255C91.8593 27.255 92.8691 25.3429 95.3305 26.0363C97.9391 26.7717 96.0247 31.0792 97.6656 32.1928C99.3065 33.3064 103.661 32.6551 103.661 32.6551C103.661 32.6551 101.873 31.2263 101.831 29.7344C101.789 28.7469 103.22 21.4137 99.0751 19.0814C94.3838 16.4549 91.4596 19.4386 91.4596 19.4386C91.4596 19.4386 88.2198 17.3584 83.5915 19.0814C78.9633 20.8044 75.5131 26.1624 78.6267 31.9407C78.6267 31.9407 81.7613 33.5165 84.2858 32.3609C87.1679 31.0582 85.6953 28.0325 87.2521 26.5406C88.5564 25.2799 90.4708 26.0363 91.8593 27.255Z" fill="#153F57"/>
<path d="M91.5449 20.7617C91.5449 20.7617 92.0709 24.4598 91.7974 26.7921C91.8184 26.7711 91.3346 22.4427 91.5449 20.7617Z" fill="#0F2836"/>
<path d="M98.5087 30.1124C98.677 32.2976 103.642 32.6548 103.642 32.6548C103.642 32.6548 99.2871 33.3062 97.6462 32.1925C96.0053 31.0789 97.9197 26.7715 95.311 26.0361C94.7009 25.868 94.1539 25.847 93.7122 25.931C97.1623 24.6493 98.3404 27.9271 98.5087 30.1124Z" fill="#153F57"/>
<path d="M85.253 29.1464C85.6948 26.2257 88.1141 26.0156 88.1141 26.0156C87.7985 26.1207 87.525 26.2888 87.2516 26.5409C85.6948 28.0328 87.1674 31.0375 84.2853 32.3612C81.7608 33.5168 78.6262 31.941 78.6262 31.941C78.3316 31.3736 78.0792 30.8273 77.9109 30.281C79.678 31.6888 84.8112 32.067 85.253 29.1464Z" fill="#153F57"/>
<path opacity="0.1" d="M95.856 26.2682C98.2753 24.4612 99.3061 21.2044 99.6848 19.5234C101.515 20.9943 101.978 23.6207 102.02 25.869C100.884 26.7305 99.1588 27.7811 96.8237 28.4745C96.7606 27.55 96.5502 26.7095 95.856 26.2682Z" fill="white"/>
<path opacity="0.1" d="M78.4362 23.5356C79.3197 21.8757 80.7082 20.5309 82.3491 19.6484C83.0013 21.6236 84.537 24.7333 87.4192 26.3932C87.3561 26.4353 87.314 26.4773 87.2509 26.5403C86.746 27.0236 86.5566 27.675 86.4515 28.3684C82.8961 27.2547 80.0981 25.2166 78.4362 23.5356Z" fill="white"/>
<path d="M10.3009 85.5616C10.3009 85.5616 14.298 84.6791 18.0848 85.7297C18.0848 85.7297 23.218 85.5616 32.8742 86.8644C32.8742 86.8644 41.752 85.9188 54.5639 85.7928L55.0898 89.5749C55.0898 89.5749 39.6062 93.0628 33.8209 92.7267C33.8209 92.7267 22.7762 94.9119 15.1606 94.3446C10.7006 94.0504 6.89282 87.2426 10.3009 85.5616Z" fill="#FAA284"/>
<path d="M54.018 85.9607C54.018 85.9607 61.3391 83.9226 63.1062 84.4479C64.8734 84.9942 72.0472 85.5405 72.1313 86.6751C72.1313 86.6751 72.3838 87.8098 70.5535 87.5786C68.7232 87.3475 64.7261 87.7887 64.7261 87.7887C64.7261 87.7887 64.7471 88.293 64.0529 88.4191C63.3587 88.5452 60.8131 89.4487 60.6027 89.4487C60.3924 89.4487 55.5327 90.016 54.7122 89.4487C54.7122 89.4487 51.8721 88.4611 54.018 85.9607Z" fill="#FAA284"/>
<path d="M34.2606 155.048C34.3237 157.843 34.9759 161.162 35.4808 164.882C35.9015 167.928 36.3433 178.77 35.9857 183.603H42.0234C42.5915 171.836 43.8958 162.192 44.7373 154.817C41.1188 154.039 37.6687 153.766 34.2606 155.048Z" fill="#FAA284"/>
<path d="M35.8833 180.577C35.8833 180.577 34.6421 182.552 35.2101 186.124H52.2925C52.2925 186.124 53.681 183.561 48.611 183.057C45.3291 182.742 42.426 179.674 42.426 179.674C42.426 179.674 41.4582 179.8 41.0585 180.998C40.5957 182.342 37.8819 182.658 36.9141 181.229C36.304 180.346 35.8833 180.577 35.8833 180.577Z" fill="#ED5656"/>
<path d="M44.76 154.818C45.4332 149.019 45.8329 144.627 45.3911 141.664C44.0026 132.587 25.721 130.444 15.7913 128.07L12.6777 118.719L-5.87735 117.795C-8.44393 122.123 -11.6416 127.839 -11.6416 127.839C-18.4788 133.722 -23.2123 138.323 -33.2051 151.456C-33.2051 151.456 -39.1797 155.217 -43.3662 159.251C-42.2723 161.121 -40.421 163.706 -36.8446 165.765C-34.3832 163.916 -30.7016 160.491 -28.2823 158.957C-26.1365 157.57 -2.95313 144.753 -0.155144 141.938C-0.155144 141.938 5.20943 143.555 15.7282 144.879C22.0394 145.678 34.7882 145.131 34.7882 145.131C34.7882 145.131 34.136 148.808 34.2833 155.049C37.1444 155.469 40.9311 155.637 44.76 154.818Z" fill="#4C4847"/>
<path d="M-0.175903 141.959C-0.175903 141.959 4.99933 140.215 7.92355 136.748C7.92355 136.748 7.33449 140.95 5.48319 143.241C5.48319 143.262 2.03304 142.526 -0.175903 141.959Z" fill="#3D3A39"/>
<path d="M-7.09802 108.277C-6.42482 111.198 -6.15133 114.791 -5.89888 117.817C-5.89888 117.817 1.44321 122.292 12.6562 118.741L13.2242 108.55C5.79798 108.445 -2.78533 108.593 -7.09802 108.277Z" fill="#FAA284"/>
<path d="M5.20936 75.0579L4.80965 81.8237L4.51512 87.0136L-1.85925 86.6354L-1.45954 79.8906L-1.14398 74.6797L5.20936 75.0579Z" fill="#FAA284"/>
<path d="M-1.45972 79.8906L-1.14415 74.6797L5.20919 75.0579L4.80948 81.8237C3.71552 81.8867 1.08583 81.7817 -1.45972 79.8906Z" fill="#EF8D72"/>
<path d="M12.9693 87.0988L13.7898 94.4739C13.7898 94.4739 10.2554 89.263 10.2765 85.5859C12.0857 86.3844 12.9693 87.0988 12.9693 87.0988Z" fill="#FAA284"/>
<path d="M4.97452 93.2748C-3.27219 93.7581 -3.73502 87.4756 -5.14453 84.1137C-5.14453 84.1137 2.97595 82.7689 7.81458 84.681C7.81458 84.681 12.9057 92.8126 4.97452 93.2748Z" fill="#FAA284"/>
<path d="M13.5806 108.677L13.9382 104.853C13.9382 104.853 16.631 103.024 16.3365 99.1583C16.2103 97.6454 16.2103 96.6579 13.0967 92.9598C13.0967 92.9598 11.0771 88.7364 10.5512 85.2485C10.2356 84.8072 8.30019 84.513 7.64803 84.6181C7.64803 84.6181 11.9818 92.4975 4.9973 92.7077C-1.96612 92.8968 -3.56497 87.4967 -4.99552 84.1348C-5.47938 83.8407 -7.28861 84.387 -7.49898 84.7232C-7.47795 84.7862 -1.75574 96.931 -9.75 100.44C-9.09784 102.268 -8.19322 105.273 -7.3938 108.677C-3.56497 109.307 7.56388 110.883 13.5806 108.677Z" fill="#FF5353"/>
<path opacity="0.1" d="M15.7263 101.365C15.7263 101.365 0.663459 105.609 -6.40515 98.4023C-6.40515 98.4023 -5.64779 105.084 1.04214 105.189C7.73207 105.336 15.1583 106.618 15.7263 101.365Z" fill="black"/>
<path d="M12.847 69.7825C12.847 69.7825 17.5594 67.0299 16.5496 62.7435C15.645 58.8984 11.9214 54.4859 10.4066 53.8765C10.4066 53.8765 11.4375 51.6283 8.61846 50.3465C5.79943 49.0438 -7.37007 50.4726 -10.2522 59.991C-11.6617 64.6556 -8.73751 68.1436 -8.73751 68.1436L12.847 69.7825Z" fill="#7F3A2D"/>
<path opacity="0.1" d="M-8.82202 56.9648C-7.24421 54.5485 -4.888 52.8675 -2.40557 51.7539C3.50597 59.003 10.5536 58.8349 14.3824 58.0154C14.9504 58.8769 15.4763 59.7804 15.8761 60.726C5.90426 62.3018 -3.07877 59.5283 -8.82202 56.9648Z" fill="white"/>
<path d="M-6.86419 65.7906C-6.86419 65.7906 -6.00165 69.3626 -4.88666 65.2653C-4.38176 63.4163 0.877625 63.7735 4.22259 61.9034C8.87189 59.2979 10.2604 55.2637 10.2604 55.2637C12.7007 57.4069 12.5535 62.1766 12.8901 65.4754C13.0163 66.9673 12.9111 69.2576 12.7849 71.3167C12.5114 75.309 10.5128 78.2926 6.62088 79.3012C-2.7829 81.7596 -5.66505 72.8716 -5.66505 72.8716C-5.66505 72.8716 -9.22039 73.0397 -9.74633 68.4591C-10.2092 64.719 -6.86419 65.7906 -6.86419 65.7906Z" fill="#FAA284"/>
<path d="M3.90707 63.5409C-1.5206 65.621 -3.62435 63.6459 -4.8866 65.2848C-4.3817 63.4358 0.877673 63.793 4.22263 61.9229C8.87192 59.3175 10.2604 55.2832 10.2604 55.2832C10.2604 55.2832 9.33474 61.4397 3.90707 63.5409Z" fill="#EF8D72"/>
<path d="M-4.88944 71.8834C-4.88944 71.8834 -2.15455 78.4601 3.14691 79.0274C6.3867 79.3846 9.12158 77.9348 10.7625 76.7581C9.7527 77.9558 8.36423 78.8383 6.57603 79.3216C-2.82776 81.78 -5.7099 72.8919 -5.7099 72.8919C-5.7099 72.8919 -8.52893 72.997 -9.5177 69.8242C-7.05631 73.039 -4.88944 71.8834 -4.88944 71.8834Z" fill="#EF8D72"/>
</g>
</svg>
