<svg width="195" height="187" viewBox="0 0 195 187" fill="none" xmlns="http://www.w3.org/2000/svg">
<mask id="mask0" mask-type="alpha" maskUnits="userSpaceOnUse" x="0" y="0" width="195" height="187">
<rect width="195" height="187" fill="#C4C4C4"/>
</mask>
<g mask="url(#mask0)">
<path fill-rule="evenodd" clip-rule="evenodd" d="M10.6392 115.009C0.801029 87.1401 -5.02729 53.8583 13.4366 30.7835C31.4559 8.26437 64.6183 13.4216 93.3998 11.5808C123.837 9.63406 159.328 -2.34305 179.947 20.1338C200.838 42.9085 193.334 79.4588 182.061 108.235C173.169 130.935 149.889 141.043 128.212 152.198C107.001 163.113 85.2431 176.956 62.499 169.761C37.2837 161.786 19.4435 139.948 10.6392 115.009Z" fill="#F9F9F9"/>
<path fill-rule="evenodd" clip-rule="evenodd" d="M157.98 168.271H19.0007V176.654H157.98V168.271Z" fill="#FCF0E8"/>
<path fill-rule="evenodd" clip-rule="evenodd" d="M159.737 112.859H17.7346V169.342H159.737V112.859Z" fill="#EFDED5"/>
<path fill-rule="evenodd" clip-rule="evenodd" d="M156.405 52.1582H114.462V55.8246H156.405V52.1582Z" fill="#EDB498"/>
<path fill-rule="evenodd" clip-rule="evenodd" d="M151.92 46.7486C153.293 47.7443 152.916 54.1756 153.017 59.645C153.031 60.2841 151.724 60.3648 151.59 59.4566C150.856 54.6466 151.26 46.2643 151.92 46.7486Z" fill="white"/>
<path fill-rule="evenodd" clip-rule="evenodd" d="M151.354 59.1606C152.088 59.1673 152.498 59.127 153.367 59.127C153.401 61.7304 153.461 65.7467 153.293 66.0023C152.66 66.9509 151.367 65.7736 151.36 65.0605C151.347 63.4325 151.34 61.6228 151.354 59.1606Z" fill="#51495B"/>
<path fill-rule="evenodd" clip-rule="evenodd" d="M145.786 59.6106C145.759 63.7479 146.998 67.4614 145.173 67.8516C142.661 68.3831 143.644 62.2814 144.19 59.6241C144.19 59.6241 145.792 58.8706 145.786 59.6106Z" fill="#51495B"/>
<path fill-rule="evenodd" clip-rule="evenodd" d="M140.372 44.7408C142.439 44.6601 143.577 44.6063 145.981 45.2454C145.853 47.9162 145.812 53.9641 145.786 59.6151C143.974 59.9178 142.304 60.1802 140.197 60.8193C139.429 58.4983 139.032 48.2727 140.372 44.7408Z" fill="white"/>
<path fill-rule="evenodd" clip-rule="evenodd" d="M144.412 46.2383C144.574 46.2383 144.702 46.3661 144.702 46.5276C144.702 46.689 144.574 46.8168 144.412 46.8168C144.251 46.8168 144.123 46.689 144.123 46.5276C144.123 46.3661 144.251 46.2383 144.412 46.2383Z" fill="#FEFFFD"/>
<path fill-rule="evenodd" clip-rule="evenodd" d="M134.164 60.7843C134.265 62.9976 135.046 68.8101 133.962 69.2541C130.535 70.6534 132.4 63.4484 132.73 60.5623C132.838 59.6474 134.063 58.5643 134.164 60.7843Z" fill="#51495B"/>
<path fill-rule="evenodd" clip-rule="evenodd" d="M134.103 44.4154C134.103 52.1721 134.224 55.4617 134.163 60.7764C133.241 61.2204 131.995 61.6173 129.921 61.9133C128.049 50.3489 134.103 43.0699 134.103 44.4154Z" fill="white"/>
<path fill-rule="evenodd" clip-rule="evenodd" d="M121.068 62.4773C118.105 51.6665 123.021 43.3582 123.027 44.4547C123.054 50.0855 123.169 57.3107 123.169 62.4572L122.186 62.4841L121.068 62.4773Z" fill="white"/>
<path fill-rule="evenodd" clip-rule="evenodd" d="M123.168 62.4512C123.168 65.9158 123.121 68.4453 122.952 68.9162C122.259 70.9142 120.42 69.5889 120.393 68.1156C120.319 64.6779 121.653 64.5501 121.127 62.6934L121.074 62.4781L122.191 62.4848L123.168 62.4512Z" fill="#51495B"/>
<path fill-rule="evenodd" clip-rule="evenodd" d="M29.0264 34.067C31.2216 34.0199 32.4942 34.0401 32.9925 34.0199C34.2786 33.9795 32.4471 37.323 32.7635 37.942C33.9015 38.9981 35.4839 40.8751 35.5916 44.1109C35.6926 47.2257 33.7938 48.7394 32.8376 49.3179C32.8376 49.3179 31.0398 49.4861 28.9928 49.4323C28.9322 48.7999 28.38 34.0804 29.0264 34.067Z" fill="#89BFCE"/>
<path fill-rule="evenodd" clip-rule="evenodd" d="M29.0264 34.0676C26.8313 34.0206 25.9559 34.0138 25.4577 34.0004C24.1716 33.96 25.8684 37.2497 25.6866 37.9224C25.1883 39.6985 23.0605 40.9497 23.0673 44.1923C23.074 46.6075 24.9527 49.0764 26.2792 49.406C26.2792 49.406 27.4171 49.4666 29.4641 49.4128C29.5247 48.7737 29.6796 34.0811 29.0264 34.0676Z" fill="#89BFCE"/>
<path fill-rule="evenodd" clip-rule="evenodd" d="M35.8612 34.9961C37.3762 35.0297 38.4064 36.6376 38.8104 38.0234C39.1471 39.1738 39.1538 40.4385 38.696 41.5418C38.0361 43.1429 36.723 44.7104 35.0329 45.1141C35.0329 45.1141 34.7771 45.2553 34.5616 45.2351C34.1845 45.2015 33.8748 44.8315 33.9084 44.448C33.9758 43.7013 35.1137 43.4457 35.9218 42.7931C36.8644 42.0329 37.6186 40.9229 37.6119 39.6716C37.6051 38.6558 37.2954 37.5861 36.6422 36.8528C36.2113 36.3685 35.4235 36.4223 34.7905 36.7587C33.895 37.243 33.0398 38.0907 32.7974 39.3756C32.3261 39.786 30.9794 38.6894 31.1612 37.9629C31.2622 37.5592 31.8143 37.2161 32.1914 36.8865C33.262 35.9581 34.4539 35.023 35.7871 34.9961C35.8208 34.9961 35.8208 34.9961 35.8612 34.9961Z" fill="#89BFCE"/>
<path fill-rule="evenodd" clip-rule="evenodd" d="M41.5984 42.2567C41.5378 42.0414 41.585 41.806 41.7196 41.6243C41.8543 41.4427 42.0698 41.3351 42.292 41.3351C43.8474 41.3216 46.9246 41.2947 48.4801 41.2812C48.709 41.2812 48.9177 41.3822 49.0591 41.5571C49.2005 41.732 49.2477 41.9674 49.1938 42.1894C48.6753 44.2077 47.4768 48.8495 47.4768 48.8495L43.4367 48.8832C43.4299 48.8899 42.1506 44.2615 41.5984 42.2567Z" fill="#89BFCE"/>
<path fill-rule="evenodd" clip-rule="evenodd" d="M48.9916 42.0859C49.463 42.0927 49.9141 42.3281 50.2037 42.7183C50.8501 43.5996 50.5875 44.9922 49.6111 45.6245C48.5876 46.2838 47.1399 46.2098 46.1972 45.8667C45.8269 45.7322 45.4633 45.4227 45.4767 44.9854C45.5037 44.2925 46.1299 43.8351 46.5945 43.4381C47.3352 42.8125 48.0422 42.1061 48.9445 42.0859C48.958 42.0859 48.9714 42.0859 48.9916 42.0859ZM48.9647 42.8259C48.4058 42.8327 47.9883 43.2767 47.517 43.64C47.0254 44.0301 46.3925 44.38 46.2242 44.9653C46.0962 45.4025 47.8267 45.4093 48.4597 45.2882C48.9378 45.194 49.4226 44.9518 49.665 44.5212C50.0219 43.8754 49.7794 42.8461 48.9849 42.8259C48.9782 42.8259 48.9714 42.8259 48.9647 42.8259Z" fill="#89BFCE"/>
<path fill-rule="evenodd" clip-rule="evenodd" d="M52.115 42.1074C52.0611 41.8921 52.1083 41.6567 52.2429 41.4818C52.3843 41.3069 52.5931 41.1992 52.822 41.1992C54.364 41.2059 57.4008 41.2261 58.9428 41.2329C59.165 41.2329 59.3805 41.3405 59.5151 41.5221C59.6498 41.7038 59.6969 41.9325 59.6363 42.1545C59.0909 44.1593 57.8385 48.7742 57.8385 48.7742L53.832 48.7473C53.8388 48.7541 52.6402 44.1189 52.115 42.1074Z" fill="#F15F46"/>
<path fill-rule="evenodd" clip-rule="evenodd" d="M60.1157 42.7129C60.5601 42.7196 61.0045 42.908 61.2402 43.3116C61.5297 43.8162 61.4826 44.4418 61.3681 44.98C61.1863 45.8613 60.5534 46.6551 59.705 46.9175C58.9845 47.1395 58.062 47.1799 57.5839 46.5879C56.8769 45.7133 57.0452 44.24 58.0283 43.5202C58.6276 43.0762 59.3346 42.7331 60.0686 42.7196C60.0753 42.7129 60.0955 42.7129 60.1157 42.7129ZM60.082 43.4529C59.2404 43.4664 58.3313 43.9844 58.0216 44.5966C57.7523 45.1146 57.7859 45.9084 58.2371 46.2044C58.4121 46.3188 58.6343 46.2986 58.8498 46.2986C59.4693 46.2986 60.1224 46.016 60.4254 45.4509C60.8362 44.6907 61.018 43.4529 60.082 43.4529Z" fill="#F15F46"/>
<path fill-rule="evenodd" clip-rule="evenodd" d="M64.9024 48.3105H20.6162C19.6129 48.3105 18.7982 49.1246 18.7982 50.1269V50.3758C18.7982 51.3782 19.6129 52.1922 20.6162 52.1922H63.0776C64.0809 52.1922 64.8957 51.3782 64.8957 50.3758V48.3105H64.9024Z" fill="#EDB498"/>
<path fill-rule="evenodd" clip-rule="evenodd" d="M32.3797 57.2734V63.7384H22.3603V57.3945C24.9123 57.4214 30.7098 57.3542 32.3797 57.2734Z" fill="#F15F46"/>
<path fill-rule="evenodd" clip-rule="evenodd" d="M22.3603 57.398V55.3663C22.3603 55.1779 22.4344 54.9896 22.569 54.855C22.7037 54.7205 22.8855 54.6465 23.0808 54.6465C24.9258 54.6465 29.8008 54.6465 31.6525 54.6465C31.8478 54.6465 32.0296 54.7205 32.1643 54.8618C32.2989 54.9963 32.3797 55.1847 32.3797 55.373V57.2769C30.7031 57.3576 24.9123 57.4249 22.3603 57.398Z" fill="#CC524C"/>
<path fill-rule="evenodd" clip-rule="evenodd" d="M53.2467 57.7031V63.6569H35.2615V57.9319C38.6081 57.8915 50.6274 57.7704 53.2467 57.7031Z" fill="#EFDED5"/>
<path fill-rule="evenodd" clip-rule="evenodd" d="M52.526 55.543C52.728 55.5497 52.903 55.6237 53.031 55.7515C53.1656 55.8861 53.2397 56.0677 53.2397 56.2561L53.1858 57.8976C50.5665 57.9716 38.5809 57.8908 35.2478 57.9245V56.2695C35.2478 55.8726 35.5643 55.5497 35.975 55.543H52.526Z" fill="#FCF0E8"/>
<path fill-rule="evenodd" clip-rule="evenodd" d="M53.5227 63.2656H20.8652C19.8619 63.2656 19.0472 64.0796 19.0472 65.082V65.5462C19.0472 66.5486 19.8619 67.3626 20.8652 67.3626H51.7046C52.7079 67.3626 53.5227 66.5486 53.5227 65.5462V63.2656Z" fill="#EDB498"/>
<path fill-rule="evenodd" clip-rule="evenodd" d="M28.805 74.4317C29.4447 73.2208 30.7241 69.3593 32.3738 70.3953C33.8552 71.3304 31.1281 75.0574 30.3268 76.0934C29.5188 77.1294 28.0711 75.8243 28.805 74.4317Z" fill="#73935F"/>
<path fill-rule="evenodd" clip-rule="evenodd" d="M28.0031 77.1231C26.3063 76.3024 22.8587 71.0685 24.6969 70.2074C26.4746 69.3732 27.7405 74.8022 28.0031 77.1231Z" fill="#73935F"/>
<path fill-rule="evenodd" clip-rule="evenodd" d="M27.9085 76.5893C26.8177 74.9411 26.3867 69.8014 28.2183 69.7677C30.1642 69.7341 29.6323 75.8425 29.4303 76.6633C29.2215 77.484 28.9926 78.2375 27.9085 76.5893Z" fill="#607F4B"/>
<path fill-rule="evenodd" clip-rule="evenodd" d="M24.8247 76.4866C24.7843 76.2781 24.8449 76.0561 24.9863 75.8946C25.1277 75.7332 25.3297 75.6323 25.5452 75.639C27.1141 75.6457 30.4068 75.6524 31.9757 75.6524C32.1912 75.6524 32.3932 75.7466 32.5278 75.9148C32.6625 76.0763 32.7231 76.2915 32.6827 76.5068C32.3662 78.2559 31.6592 82.1107 31.6592 82.1107L25.828 82.0973C25.8145 82.0905 25.1345 78.2425 24.8247 76.4866Z" fill="#CC524C"/>
<path fill-rule="evenodd" clip-rule="evenodd" d="M36.2856 82.7339C36.2654 81.523 36.2654 80.191 36.2722 79.3433C36.2789 78.6773 40.2651 77.3251 44.312 77.3184C48.6281 77.3117 52.8635 78.6504 52.8635 79.3971C52.8635 80.9242 52.877 81.9468 52.8904 82.3908C52.9106 82.8348 36.2991 83.8977 36.2856 82.7339Z" fill="#443D4F"/>
<path fill-rule="evenodd" clip-rule="evenodd" d="M44.3587 75.584C44.9311 75.584 45.3957 76.0145 45.3957 76.546C45.3957 77.0775 44.9311 77.508 44.3587 77.508C43.7864 77.508 43.3218 77.0775 43.3218 76.546C43.3218 76.0145 43.7864 75.584 44.3587 75.584Z" fill="#51495B"/>
<path fill-rule="evenodd" clip-rule="evenodd" d="M58.243 81.8281H21.0741C20.0709 81.8281 19.2561 82.6421 19.2561 83.6445C19.2561 84.6469 20.0709 85.4609 21.0741 85.4609H56.4183C57.4216 85.4609 58.2363 84.6469 58.2363 83.6445V81.8281H58.243Z" fill="#EDB498"/>
<path fill-rule="evenodd" clip-rule="evenodd" d="M62.1753 70.799C54.1692 75.5418 50.0079 64.482 54.4924 60.5061C62.3302 53.55 59.8388 53.3078 61.7376 48.713C63.3065 44.9188 66.4309 44.0577 67.9122 43.8828C69.2657 42.8064 72.9893 42.9006 75.9184 47.0917C78.834 51.2627 81.4937 49.0023 85.4665 51.6529C91.7555 55.8508 88.0992 62.1745 83.2175 63.2778C78.201 64.408 72.8344 68.6597 72.8344 68.6597C72.8344 68.6597 64.9966 69.1239 62.1753 70.799Z" fill="#51495B"/>
<path fill-rule="evenodd" clip-rule="evenodd" d="M68.7275 61.0447C69.172 62.5584 69.3403 63.3455 69.4952 64.3748C70.2561 64.7112 73.9056 65.061 75.158 62.2893C74.7002 61.3811 74.4174 60.6209 74.2019 59.6185C74.0807 59.0669 68.2831 59.5311 68.7275 61.0447Z" fill="#FFB184"/>
<path fill-rule="evenodd" clip-rule="evenodd" d="M66.9291 47.0253C69.737 46.1037 73.1441 48.7812 74.5312 53.006C75.9251 57.2307 74.7736 61.4017 71.9658 62.3301C69.1579 63.2517 65.7508 60.5742 64.3636 56.3495C62.9698 52.1247 64.1212 47.947 66.9291 47.0253Z" fill="#FCC8A0"/>
<path fill-rule="evenodd" clip-rule="evenodd" d="M64.4246 55.7175C62.519 58.2605 62.6402 54.6546 62.2766 53.0467C61.913 51.4389 62.6133 49.9723 63.6368 47.7456C64.667 45.5188 66.0743 46.1646 67.8115 45.0344C69.5488 43.9042 70.2558 44.8864 71.9526 45.4246C73.6495 45.9628 74.343 48.6739 74.9288 51.3111C71.9796 51.7282 69.9528 48.4721 68.734 47.981C68.5522 52.5153 66.0878 53.4975 64.4246 55.7175Z" fill="#51495B"/>
<path fill-rule="evenodd" clip-rule="evenodd" d="M86.2077 84.8359C86.1067 87.0021 86.1606 90.7157 86.2077 92.559C86.9821 95.9495 88.2884 97.7323 88.8742 98.95C89.2513 99.7371 80.0802 99.7438 73.5084 99.6563C73.5824 99.5756 73.6363 99.4881 73.6632 99.3805C74.7271 95.0615 81.7569 86.3429 86.2077 84.8359Z" fill="#F15F46"/>
<path fill-rule="evenodd" clip-rule="evenodd" d="M63.9478 68.7224C64.749 68.312 65.6783 67.9756 66.7758 67.6729C68.5939 67.1751 69.6376 66.2938 69.4894 64.3765C71.7249 64.8205 74.0951 64.3698 75.1523 62.291C75.6304 63.2598 76.3845 63.7576 77.9265 63.2127C78.6604 62.9503 79.8051 62.5265 81.1182 62.4861C80.7074 64.982 78.8422 68.386 75.1658 69.7517C70.9708 71.3057 66.0486 71.3393 63.9478 68.7224Z" fill="#FCC8A0"/>
<path fill-rule="evenodd" clip-rule="evenodd" d="M57.9743 80.9395C56.5872 85.1239 55.3213 89.4833 54.8971 94.4346C54.6345 97.4956 63.5362 87.6601 64.2701 85.5679C65.0175 83.4421 65.3744 82.2917 65.3744 82.2917C65.3744 82.2917 59.3681 80.2735 57.9743 80.9395Z" fill="#FFB184"/>
<path fill-rule="evenodd" clip-rule="evenodd" d="M64.9701 83.2971C61.7044 86.3647 57.9202 88.4637 55.8732 91.7399C53.3548 95.7629 55.7924 100.432 60.4452 96.3078C63.9534 93.1997 65.3539 86.3782 66.3438 85.5507C67.2528 84.7973 66.566 81.7969 64.9701 83.2971Z" fill="#FCC8A0"/>
<path fill-rule="evenodd" clip-rule="evenodd" d="M87.425 78.5364C88.8996 77.2784 90.9196 75.8387 91.8691 75.0718C92.8185 74.3049 93.741 88.1296 93.0272 87.7462C90.9466 86.6227 90.1116 85.1225 87.095 80.6555C86.0917 79.1755 85.9503 79.7944 87.425 78.5364Z" fill="#FFB184"/>
<path fill-rule="evenodd" clip-rule="evenodd" d="M67.7577 86.5275C66.9631 84.2402 66.0945 82.3767 65.374 82.2826C63.5358 82.0404 61.2194 81.1389 57.9672 80.9371C59.5091 73.4966 60.5798 70.4424 63.9398 68.7269C66.0339 71.3438 70.9561 71.3102 75.1578 69.7495C78.8343 68.3838 80.6994 64.9797 81.1102 62.4839C83.0966 62.4032 85.46 63.2037 87.3252 66.7558C88.1534 68.33 89.0422 69.9782 91.8568 75.0708L90.2677 76.3221C89.2914 74.0482 87.1232 70.5164 86.4431 69.8167C85.7226 69.0834 84.7463 68.4914 84.8607 69.3929C84.9752 70.3011 85.0493 70.7653 85.662 71.6869C86.2748 72.6086 88.4497 74.9363 87.8773 75.7839C84.4837 80.8227 78.3158 81.5493 76.1678 81.5694C73.9861 81.5896 69.8652 84.5631 67.7577 86.5275Z" fill="#F15F46"/>
<path fill-rule="evenodd" clip-rule="evenodd" d="M65.3732 82.2804C66.0196 80.4371 66.0937 76.4545 67.0835 76.3603C67.8377 76.2931 68.1878 79.8047 68.4841 80.8811C68.713 81.7086 67.1576 84.0632 65.9927 82.7311C65.7638 82.4553 65.656 82.341 65.3732 82.2804Z" fill="#CC524C"/>
<path fill-rule="evenodd" clip-rule="evenodd" d="M67.7583 86.5272C69.8659 84.5628 73.9868 81.5893 76.1752 81.5691C78.3232 81.5489 84.4911 80.8224 87.8847 75.7836C88.4571 74.9359 86.2822 72.6083 85.6694 71.6866C85.0567 70.765 84.9826 70.3008 84.8681 69.3926C84.7537 68.4844 85.73 69.0831 86.4505 69.8164C87.1306 70.5093 89.2988 74.0479 90.2751 76.3218C89.7028 76.7658 89.1506 77.1829 88.3628 77.7682C88.7264 80.9906 86.6592 82.2957 86.363 83.3182C86.2889 83.5739 86.235 84.1188 86.2014 84.8386C81.7505 86.3455 74.7207 95.0642 73.6636 99.3832C73.6366 99.4908 73.5828 99.5783 73.5087 99.659C69.8794 99.6119 67.0446 99.5312 67.0446 99.5312C67.0446 99.5312 70.5864 96.1473 70.2699 95.1651C70.0814 94.5664 68.9973 90.0456 67.7583 86.5272Z" fill="#CC524C"/>
<path fill-rule="evenodd" clip-rule="evenodd" d="M159.738 112.859H17.7419L35.0538 98.3008H146.904L159.738 112.859Z" fill="#FCF0E8"/>
<path fill-rule="evenodd" clip-rule="evenodd" d="M71.6482 77.4121C72.3619 79.2756 75.8566 81.2198 77.7756 80.8767L77.7285 80.9843C76.3481 83.238 74.8802 85.3437 72.1464 89.3868C70.9007 89.111 67.1367 87.1264 66.6721 86.2317C68.167 83.1169 69.8975 80.0021 71.6212 77.4457L71.6482 77.4121Z" fill="#89BFCE"/>
<path fill-rule="evenodd" clip-rule="evenodd" d="M64.9703 83.296C66.2631 82.2936 68.7545 80.0332 69.7578 80.0332C70.485 80.0332 68.9026 81.4863 69.7914 81.2105C72.0876 80.4974 76.397 82.3541 76.1277 83.8813C75.7775 85.8591 75.4341 86.1618 74.7002 86.2089C72.4242 86.3502 68.1754 84.3185 66.3439 85.5496C63.0041 87.8033 63.6774 84.2984 64.9703 83.296Z" fill="#FCC8A0"/>
<path fill-rule="evenodd" clip-rule="evenodd" d="M71.6503 77.4131C72.8017 75.8591 78.505 79.2026 77.7778 80.8777C75.8587 81.2208 72.364 79.2766 71.6503 77.4131Z" fill="#FFAC29"/>
<path fill-rule="evenodd" clip-rule="evenodd" d="M95.3719 65.9419C95.6143 69.8168 98.7723 78.6364 98.4289 83.211C97.8296 91.1224 91.8637 88.6871 91.5203 85.0879C90.719 76.6182 92.0859 69.7428 92.6785 65.9217C92.8872 64.63 95.2641 64.2197 95.3719 65.9419Z" fill="#FCC8A0"/>
<path fill-rule="evenodd" clip-rule="evenodd" d="M95.371 65.9408C96.004 64.2858 98.8253 62.0725 98.7108 61.1172C98.5762 59.9399 97.7075 57.8881 96.9534 57.4374C95.977 56.8521 96.3676 58.581 96.3676 58.581C96.3676 58.581 95.9703 57.9486 95.5124 58.2581C95.3374 58.3792 95.398 60.6261 95.398 60.6261C95.398 60.6261 95.1892 58.803 94.6505 59.0654C93.9705 60.5454 92.846 61.7967 92.7517 62.4022C92.6507 63.0076 92.7988 64.454 92.6911 65.9273C92.6305 66.6337 94.7381 67.589 95.371 65.9408Z" fill="#FCC8A0"/>
<path fill-rule="evenodd" clip-rule="evenodd" d="M100.313 56.7048C100.65 56.7654 100.791 57.2094 100.535 57.4583C96.7916 60.6336 92.9535 63.7484 89.0817 66.8161L88.8932 66.9641L88.6777 67.1323C88.2939 67.3475 87.735 66.8228 88.1795 66.4326C92.1051 63.338 95.9634 60.1829 99.7947 56.9537L100.01 56.7721C100.179 56.6779 100.185 56.6914 100.313 56.7048Z" fill="#443D4F"/>
<path fill-rule="evenodd" clip-rule="evenodd" d="M88.74 65.9164C89.1642 65.7953 89.5211 66.0442 89.2854 66.6833C88.7939 68.0288 86.316 71.3992 84.9154 70.1613C83.663 69.058 84.6461 67.1071 88.74 65.9164Z" fill="#443D4F"/>
<path fill-rule="evenodd" clip-rule="evenodd" d="M95.4659 62.0828C95.4053 61.0132 95.4187 60.3673 95.385 59.7821C95.3514 59.1968 97.4253 57.7908 97.7418 58.376C98.065 58.9681 98.6037 60.2126 98.5835 60.4548C98.57 60.697 95.513 62.9507 95.4659 62.0828Z" fill="#FCC8A0"/>
<path fill-rule="evenodd" clip-rule="evenodd" d="M98.1934 94.1777C106.226 94.1777 112.751 95.8528 112.751 97.9182C112.751 99.9835 106.226 101.659 98.1934 101.659C90.1604 101.659 83.6356 99.9835 83.6356 97.9182C83.6356 95.8596 90.1604 94.1777 98.1934 94.1777Z" fill="#EDB498"/>
<path fill-rule="evenodd" clip-rule="evenodd" d="M98.3541 95.7969C104.966 95.7969 110.34 96.7253 110.34 97.8689C110.34 99.0126 104.966 99.9409 98.3541 99.9409C91.7418 99.9409 86.3685 99.0126 86.3685 97.8689C86.3685 96.7253 91.7418 95.7969 98.3541 95.7969Z" fill="#EFCCBD"/>
<path fill-rule="evenodd" clip-rule="evenodd" d="M112.752 97.918C112.476 100.643 110.839 103.629 110.476 103.804C103.116 107.215 86.289 104.975 85.3396 103.535C84.6595 102.499 83.5754 99.5662 83.636 97.918C83.6696 99.916 91.4872 101.874 98.6584 101.571C110.987 101.053 112.832 99.0145 112.752 97.918Z" fill="#D89577"/>
<path fill-rule="evenodd" clip-rule="evenodd" d="M98.5297 97.1777C99.4051 97.1777 100.112 97.4132 100.112 97.6957C100.112 97.985 99.4051 98.2138 98.5297 98.2138C97.6543 98.2138 96.9473 97.9783 96.9473 97.6957C96.9473 97.4132 97.6611 97.1777 98.5297 97.1777Z" fill="#FFAC29"/>
<path fill-rule="evenodd" clip-rule="evenodd" d="M80.0257 108.971C83.3588 108.6 93.9573 107.363 96.1592 108.526C98.361 109.69 82.5508 110.39 82.0256 110.262C81.5004 110.128 76.6926 109.341 80.0257 108.971Z" fill="white"/>
<path fill-rule="evenodd" clip-rule="evenodd" d="M70.9155 108.863C72.6999 108.311 76.7737 108.459 81.7565 108.23C82.2548 108.399 84.4027 110.625 83.5207 110.679C80.403 110.874 76.5111 110.841 73.5147 110.78C71.4206 110.74 69.9459 109.159 70.9155 108.863Z" fill="#51495B"/>
<path fill-rule="evenodd" clip-rule="evenodd" d="M56.7952 100.133C57.0713 100.153 56.9097 100.631 56.701 100.967C56.3172 101.579 55.691 101.916 54.9974 102.245C54.9974 102.245 54.856 102.286 54.7752 102.212C54.6742 102.117 54.7079 101.942 54.8762 101.868C55.6169 101.539 56.3104 101.088 56.6 100.267C56.6 100.261 56.6471 100.133 56.7952 100.133Z" fill="#ED8629"/>
<path fill-rule="evenodd" clip-rule="evenodd" d="M57.8122 103.244C57.9064 103.258 57.9603 103.332 58.0142 103.412C58.472 104.072 59.1117 104.65 59.8389 104.953C60.5325 105.242 60.0948 105.397 59.9265 105.39C59.6639 105.384 59.4013 105.188 59.1319 105.014C58.5461 104.623 58.0142 104.139 57.6304 103.554C57.6304 103.554 57.5832 103.238 57.8122 103.244Z" fill="#ED8629"/>
<path fill-rule="evenodd" clip-rule="evenodd" d="M59.3804 104.571C59.7709 102.411 62.0536 103.912 63.8447 103.266C68.3157 101.658 70.8408 104.382 70.3425 106.609C69.7432 109.267 66.8344 110.814 63.4676 107.84C62.2489 106.771 58.8081 107.713 59.3804 104.571Z" fill="#FFAC29"/>
<path fill-rule="evenodd" clip-rule="evenodd" d="M55.8516 101.463C57.306 103.071 54.3702 104.437 53.2525 105.91C52.4175 107.007 48.4851 111.716 45.5426 108.561C40.5868 103.266 48.5188 103.179 51.2728 102.567C52.2963 102.338 54.6328 100.118 55.8516 101.463Z" fill="#FFAC29"/>
<path fill-rule="evenodd" clip-rule="evenodd" d="M127.403 79.5104C129.14 79.4499 134.312 79.5911 134.298 80.3984C134.251 83.1903 133.167 85.0201 133.403 86.1907C133.732 87.8658 135.934 91.0815 135.921 94.9632C135.914 97.1159 136.345 100.056 133.773 103.446C133.288 104.092 132.527 104.469 131.719 104.462C130.433 104.455 129.618 104.476 128.716 104.482C128.561 100.372 127.881 88.2425 127.403 79.5104Z" fill="#F15F46"/>
<path fill-rule="evenodd" clip-rule="evenodd" d="M127.113 79.4489C125.376 79.3884 120.016 80.1015 120.01 80.8818C120.003 83.3912 124.003 83.1624 123.363 86.3714C122.831 89.0421 120.353 91.7667 120.366 95.6484C120.373 97.9155 120.198 100.277 123.713 104.017C124.009 104.333 124.427 104.508 124.858 104.502C126.521 104.481 127.679 104.481 128.703 104.488C131.8 102.14 129.746 87.9658 127.113 79.4489Z" fill="#F15F46"/>
<path fill-rule="evenodd" clip-rule="evenodd" d="M127.114 79.4504C131.053 79.3159 134.271 79.7464 134.298 80.4057C134.318 81.065 131.14 81.7041 127.194 81.8386C123.255 81.9732 120.037 81.5426 120.01 80.8833C119.989 80.2241 123.174 79.585 127.114 79.4504Z" fill="#CC524C"/>
<path fill-rule="evenodd" clip-rule="evenodd" d="M136.492 81.7266C137.926 81.7535 139.125 83.025 139.832 84.1956C140.693 85.6218 141.259 87.2027 141.084 88.9518C140.788 91.8177 139.03 94.2799 137.266 96.4327C136.815 96.9843 136.35 97.5225 135.879 98.0674C135.879 98.0674 135.509 98.4172 135.132 98.4441C134.351 98.5047 133.657 97.509 134.128 96.769C134.169 96.7085 134.175 96.695 134.223 96.6412C135.994 94.5894 137.859 92.4635 138.64 89.9811C139.172 88.2925 138.849 86.4896 137.623 84.8212C137.569 84.7472 137.515 84.6799 137.455 84.6059C137.408 84.5454 137.354 84.4849 137.3 84.4243C137.259 84.3772 137.212 84.3368 137.165 84.2898C137.131 84.2561 137.091 84.2225 137.051 84.1888C137.024 84.1619 136.99 84.1418 136.956 84.1148C136.202 83.5565 135.071 84.7741 134.31 86.0792C133.96 86.6847 133.65 87.3171 133.361 87.9562C133.361 87.9562 133.125 88.4204 132.674 88.5482C131.893 88.7769 131.017 87.9024 131.374 87.0413C132.068 85.5276 132.802 84.0072 134.021 82.8434C134.694 82.2043 135.495 81.7199 136.492 81.7266Z" fill="#F15F46"/>
<path fill-rule="evenodd" clip-rule="evenodd" d="M118.627 184.589L117.442 172.607H124.479L123.294 184.589H118.627Z" fill="#FFAC29"/>
<path d="M118.561 172.605C118.561 172.605 110.973 162.783 112.245 160.328C113.518 157.872 119.349 172.027 119.349 172.027C119.349 172.027 113.74 159.938 116.063 159.103C118.386 158.269 120.009 169.921 120.009 169.921C120.009 169.921 117.255 154.906 121.409 155.202C125.571 155.504 121.322 171.63 121.409 171.495C121.497 171.361 124.217 162.514 125.881 162.824C127.544 163.133 122.857 171.758 122.857 171.758C122.857 171.758 127.436 160.489 130.264 162.03C133.092 163.57 124.083 172.599 124.083 172.599H118.561V172.605Z" fill="#73935F"/>
<path fill-rule="evenodd" clip-rule="evenodd" d="M147.874 145.215C147.874 145.215 151.914 127.791 159.812 120.781C155.57 128.282 150.244 152.44 150.244 152.44L149.106 167.604L145.988 168.041L147.874 145.215Z" fill="#607F4B"/>
<path fill-rule="evenodd" clip-rule="evenodd" d="M142.977 152.585C142.977 152.585 142.829 139.93 137.833 126.126C132.843 112.321 124.675 103.67 124.675 103.67C124.675 103.67 137.388 111.353 142.317 125.07C147.253 138.78 145.98 160.072 145.98 160.072V166.995H143.179L142.977 152.585Z" fill="#607F4B"/>
<path d="M147.872 166.994C147.872 166.994 146.344 142.331 161.993 128.506C177.634 114.682 186.072 118.994 186.072 118.994C186.072 118.994 179.17 119.983 169.925 127.665C160.68 135.341 153.044 151.971 150.243 166.994C149.563 166.994 147.872 166.994 147.872 166.994Z" fill="#73935F"/>
<path fill-rule="evenodd" clip-rule="evenodd" d="M144.242 166.996V178.998H136.438L132.243 166.996H144.242Z" fill="#D0EEF8"/>
<path fill-rule="evenodd" clip-rule="evenodd" d="M144.243 166.996V178.998H152.047L156.242 166.996H144.243Z" fill="#D0EEF8"/>
<path d="M139.348 166.995C139.348 166.995 130.844 144.122 116.037 145.212C127.78 141.202 138.204 148.932 140.985 166.995C140.715 166.995 139.348 166.995 139.348 166.995Z" fill="#73935F"/>
<path d="M142.324 166.996C142.324 166.996 141.469 153.111 135.846 138.916C130.224 124.721 111.619 113.137 111.619 113.137C111.619 113.137 127.631 115.68 136.977 131.247C146.33 146.814 143.489 166.996 143.489 166.996H142.324Z" fill="#73935F"/>
<path d="M146.594 166.995C146.594 166.995 146.493 152.162 153.132 130.331C159.771 108.501 180.746 97.9727 180.746 97.9727C180.746 97.9727 162.619 103.099 153.044 118.922C143.469 134.744 145.173 166.995 145.173 166.995H146.594Z" fill="#73935F"/>
<path fill-rule="evenodd" clip-rule="evenodd" d="M140.991 166.996C140.991 166.996 136.513 149.814 130.392 141.6C124.265 133.386 114.912 129.363 114.912 129.363C114.912 129.363 126.48 130.15 133.288 140.013C140.095 149.875 141.617 158.97 142.331 167.003C141.449 166.996 140.991 166.996 140.991 166.996Z" fill="#607F4B"/>
<path d="M98.5218 154.24V179.582H95.9227L93.6333 154.368L98.5218 154.24Z" fill="#D0EEF8"/>
<path d="M98.5228 154.24V179.582H101.129L103.411 154.368L98.5228 154.24Z" fill="#D0EEF8"/>
<path fill-rule="evenodd" clip-rule="evenodd" d="M94.6638 154.342C94.6638 154.342 87.6811 135.371 90.8257 132.989C93.9702 130.608 96.7916 153.333 96.7916 153.333C96.7916 153.333 93.9702 130.056 98.2729 130.426C102.576 130.796 98.7847 153.333 98.7847 153.333C98.7847 153.333 101.929 132.653 105.814 133.339C109.747 134.032 101.835 154.335 101.835 154.335L94.6638 154.342Z" fill="#73935F"/>
<path d="M94.489 163.75H102.562L101.559 174.769H95.4856L94.489 163.75Z" fill="#BFE5EF"/>
</g>
</svg>
