<svg xmlns="http://www.w3.org/2000/svg" width="250" height="230" viewBox="0 0 250 230" fill="none"><mask id="mask0" maskUnits="userSpaceOnUse" x="0" y="0" width="250" height="230"><rect width="250" height="230" fill="#F9F9F9"></rect></mask><g mask="url(#mask0)"><path fill-rule="evenodd" clip-rule="evenodd" d="M16.2328 138.944C3.65058 103.302 -3.80335 60.7376 19.8104 31.2269C42.8555 2.42689 85.2675 9.0225 122.077 6.66826C161.003 4.17859 206.394 -11.1391 232.763 17.6069C259.481 46.7339 249.884 93.4785 235.467 130.28C224.094 159.313 194.322 172.24 166.598 186.506C139.472 200.466 111.645 218.169 82.5571 208.968C50.3088 198.768 27.4927 170.84 16.2328 138.944Z" fill="#D2F8FD"></path><path d="M238.938 178.865C238.938 181.749 166.586 184.462 103.627 184.462C40.6686 184.462 11.3999 179.007 11.3999 176.124C11.3999 169.362 62.4364 170.911 125.395 170.911C188.354 170.911 238.938 175.982 238.938 178.865Z" fill="#939393"></path><path opacity="0.6" d="M73 67.2902V119.733C97.9603 120.67 101.026 133.042 123.57 135.23V67.2902C123.57 66.3101 122.779 65.5288 121.819 65.5288C115.773 65.5288 106.648 58.4692 97.5789 58.4692C88.9904 58.4692 80.4726 65.5288 74.7516 65.5288C73.7769 65.5288 73 66.3101 73 67.2902Z" fill="#D6D6D6"></path><path d="M120.943 144.873C121.917 144.873 122.694 145.668 122.694 146.634V151.251C122.694 152.231 121.903 153.012 120.943 153.012H75.9802C75.0056 153.012 74.2286 152.217 74.2286 151.251V146.634C74.2286 145.654 75.0197 144.873 75.9802 144.873H120.943Z" fill="#DDAB6F"></path><path d="M120.943 136.209C121.917 136.209 122.694 137.004 122.694 137.97V142.587C122.694 143.567 121.903 144.348 120.943 144.348H75.9802C75.0056 144.348 74.2286 143.553 74.2286 142.587V137.97C74.2286 136.99 75.0197 136.209 75.9802 136.209H120.943Z" fill="#DDAB6F"></path><path d="M120.943 127.56C121.917 127.56 122.694 128.355 122.694 129.321V133.937C122.694 134.917 121.903 135.699 120.943 135.699H75.9802C75.0056 135.699 74.2286 134.903 74.2286 133.937V129.321C74.2286 128.341 75.0197 127.56 75.9802 127.56H120.943Z" fill="#DDAB6F"></path><path d="M120.943 118.895C121.917 118.895 122.694 119.69 122.694 120.656V125.272C122.694 126.252 121.903 127.034 120.943 127.034H75.9802C75.0056 127.034 74.2286 126.238 74.2286 125.272V120.656C74.2286 119.676 75.0197 118.895 75.9802 118.895H120.943Z" fill="#DDAB6F"></path><path d="M120.943 110.244C121.917 110.244 122.694 111.04 122.694 112.005V116.622C122.694 117.602 121.903 118.383 120.943 118.383H75.9802C75.0056 118.383 74.2286 117.588 74.2286 116.622V112.005C74.2286 111.025 75.0197 110.244 75.9802 110.244H120.943Z" fill="#DDAB6F"></path><path d="M120.943 101.592C121.917 101.592 122.694 102.388 122.694 103.354V107.97C122.694 108.95 121.903 109.731 120.943 109.731H75.9802C75.0056 109.731 74.2286 108.936 74.2286 107.97V103.354C74.2286 102.374 75.0197 101.592 75.9802 101.592H120.943Z" fill="#DDAB6F"></path><path d="M120.943 92.9277C121.917 92.9277 122.694 93.7232 122.694 94.6891V99.3055C122.694 100.286 121.903 101.067 120.943 101.067H75.9802C75.0056 101.067 74.2286 100.271 74.2286 99.3055V94.6891C74.2286 93.709 75.0197 92.9277 75.9802 92.9277H120.943Z" fill="#DDAB6F"></path><path d="M120.943 84.2773C121.917 84.2773 122.694 85.0728 122.694 86.0387V90.6552C122.694 91.6353 121.903 92.4165 120.943 92.4165H75.9802C75.0056 92.4165 74.2286 91.6211 74.2286 90.6552V86.0387C74.2286 85.0586 75.0197 84.2773 75.9802 84.2773H120.943Z" fill="#DDAB6F"></path><path d="M120.943 75.6128C121.917 75.6128 122.694 76.4082 122.694 77.3741V81.9906C122.694 82.9707 121.903 83.7519 120.943 83.7519H75.9802C75.0056 83.7519 74.2286 82.9565 74.2286 81.9906V77.3741C74.2286 76.394 75.0197 75.6128 75.9802 75.6128H120.943Z" fill="#DDAB6F"></path><path d="M120.943 66.9629C121.917 66.9629 122.694 67.7583 122.694 68.7242V73.3407C122.694 74.3208 121.903 75.102 120.943 75.102H75.9802C75.0056 75.102 74.2286 74.3066 74.2286 73.3407V68.7242C74.2286 67.7441 75.0197 66.9629 75.9802 66.9629H120.943Z" fill="#DDAB6F"></path><path d="M73.0004 127.076C97.9607 128.013 101.026 140.385 123.571 142.587V135.243C101.026 133.041 97.9466 120.669 73.0004 119.746V127.076Z" fill="#FFEC88"></path><path d="M73 152.545C73 153.525 73.791 154.306 74.7516 154.306H121.819C122.793 154.306 123.57 153.511 123.57 152.545V142.587C101.026 140.386 97.9462 128.014 73 127.076V152.545Z" fill="#EF5C00"></path><path opacity="0.7" d="M93.3119 55.6272L84.2008 40.6842C84.2008 40.6842 96.575 37.3745 99.0611 39.6757L98.0017 57.5164L93.3119 55.6272Z" fill="#E6E6E6"></path><path opacity="0.6" d="M101.405 57.5021L108.878 40.1585C108.878 40.1585 95.9387 35.187 91.0511 39.221L96.9134 57.076L101.405 57.5021Z" fill="#E6E6E6"></path><path d="M104.145 55.6279H91.8558V59.3779H104.145V55.6279Z" fill="#373737"></path><path opacity="0.6" d="M94.021 62.459L80.0364 76.3509L79.2595 96.0098L84.5284 77.8566L94.021 62.459Z" fill="#FFFFFC"></path><path opacity="0.6" d="M99.6979 61.0259L108.753 70.1451L111.352 85.3722L104.67 71.5229L99.6979 61.0259Z" fill="#FFFFFC"></path><path d="M152 86.8002H118L128.1 74.2002H162.1L152 86.8002Z" fill="#DBF1FD"></path><path d="M172.2 86.7998H152V174.1H172.2V86.7998Z" fill="#299AEA"></path><path d="M162.1 74.2002L158.2 79.1002L172.2 86.8002L162.1 74.2002Z" fill="#1379DA"></path><path d="M172.2 86.8006L158.2 79.1006L152 86.8006H172.2Z" fill="#61B6F2"></path><path d="M158 66H132.1C129.8 66 128 67.8 128 70.1V74.2H162.1V70.1C162.1 67.8 160.3 66 158 66Z" fill="#299AEA"></path><path d="M152 86.7998V174.1H118V86.7998H152Z" fill="#B0E2FC"></path><path d="M135 146.8C141.627 146.8 147 141.427 147 134.8C147 128.172 141.627 122.8 135 122.8C128.373 122.8 123 128.172 123 134.8C123 141.427 128.373 146.8 135 146.8Z" fill="white"></path><path d="M140.1 74.5003C138.9 74.6003 137.6 75.2003 136.5 76.3003C135.4 77.4003 134.8 78.7003 134.7 79.9003L133.5 80.4003L135.5 82.4003C135.5 82.4003 135.5 82.4003 135.6 82.5003C137 83.9003 139.8 83.5003 141.8 81.6003C143.8 79.6003 144.2 76.9003 142.7 75.4003L140.6 73.3003L140.1 74.5003Z" fill="#D32144"></path><path d="M140.6 73.3003C142 74.7003 141.6 77.5003 139.7 79.5003C137.7 81.5003 135 81.9003 133.5 80.4003C132.1 79.0003 132.5 76.2003 134.4 74.2003C136.4 72.3003 139.2 71.8003 140.6 73.3003Z" fill="#FF3D3D"></path><path d="M139.6 117.001H130.4C129.5 117.001 128.7 116.201 128.7 115.301C128.7 114.401 129.5 113.601 130.4 113.601H139.6C140.5 113.601 141.3 114.401 141.3 115.301C141.3 116.201 140.5 117.001 139.6 117.001Z" fill="#61B6F2"></path><path d="M144.5 110.1H125.5C124.6 110.1 123.8 109.3 123.8 108.4C123.8 107.5 124.6 106.7 125.5 106.7H144.5C145.4 106.7 146.2 107.5 146.2 108.4C146.2 109.3 145.5 110.1 144.5 110.1Z" fill="#61B6F2"></path><path d="M129 169.6H123C122.4 169.6 121.9 169.1 121.9 168.5C121.9 167.9 122.4 167.4 123 167.4H129C129.6 167.4 130.1 167.9 130.1 168.5C130.1 169.1 129.6 169.6 129 169.6Z" fill="#B0E2FC"></path><path d="M147 169.6H134.6C134 169.6 133.5 169.1 133.5 168.5C133.5 167.9 134 167.4 134.6 167.4H147C147.6 167.4 148.1 167.9 148.1 168.5C148.1 169.1 147.6 169.6 147 169.6Z" fill="#B0E2FC"></path><path d="M166 112.3H158.3C157 112.3 155.9 111.2 155.9 109.9V98.2999C155.9 96.9999 157 95.8999 158.3 95.8999H166C167.3 95.8999 168.4 96.9999 168.4 98.2999V109.9C168.4 111.2 167.3 112.3 166 112.3Z" fill="#61B6F2"></path><path d="M166 169.6H158.3C157 169.6 155.9 168.5 155.9 167.2V165C155.9 163.7 157 162.6 158.3 162.6H166C167.3 162.6 168.4 163.7 168.4 165V167.2C168.4 168.6 167.3 169.6 166 169.6Z" fill="#61B6F2"></path><path d="M166 152.9H158.3C157 152.9 155.9 151.8 155.9 150.5V119.3C155.9 118 157 116.9 158.3 116.9H166C167.3 116.9 168.4 118 168.4 119.3V150.5C168.4 151.8 167.3 152.9 166 152.9Z" fill="#61B6F2"></path><path d="M134.2 86.7998V86.8998C134.2 95.7998 126.9 103.1 118 103.1V86.7998H134.2Z" fill="#FF3D3D"></path><path d="M135 159.1C137.375 159.1 139.3 157.175 139.3 154.8C139.3 152.425 137.375 150.5 135 150.5C132.625 150.5 130.7 152.425 130.7 154.8C130.7 157.175 132.625 159.1 135 159.1Z" fill="white"></path><path d="M210.52 143.56C212.44 143.56 214 145.12 214 147.04V158.68V171.52L202 172L208.36 166.72V147.04C208.36 145.12 206.8 143.56 204.88 143.56C206.8 143.56 208.36 142 208.36 140.08V138.4H214V140.08C214 142 212.44 143.56 210.52 143.56Z" fill="#661204"></path><path d="M208.24 140.08V138.4H181.12H175.48V140.08C175.48 142 177.04 143.56 178.96 143.56C177.04 143.56 175.48 145.12 175.48 147.04V171.52L187.84 172L187.24 171.52H203.2C205.96 171.52 208.24 169.24 208.24 166.48V147.04C208.24 145.12 206.68 143.56 204.76 143.56C206.68 143.56 208.24 142 208.24 140.08Z" fill="#801600"></path><path d="M214 140.08C214 142 212.44 143.56 210.52 143.56C212.44 143.56 214 145.12 214 147.04V158.68V165.16C214 168.64 211.12 171.52 207.52 171.52C204.28 171.52 185.2 171.52 181.96 171.52C178.48 171.52 175.48 168.64 175.48 165.16V158.68V147.04C175.48 145.12 177.04 143.56 178.96 143.56C177.04 143.56 175.48 142 175.48 140.08V138.4H172.12V140.08C172.12 141.28 172.48 142.48 173.08 143.56C172.36 144.52 172 145.72 172 147.04V158.68V165.16C172.12 170.56 176.44 175 181.84 175C184.24 175 205 175 207.4 175C212.8 175 217.24 170.56 217.24 165.28V158.8V147.16C217.24 145.96 216.88 144.76 216.28 143.68C216.88 142.72 217.24 141.52 217.24 140.2V138.52H213.88V140.08H214Z" fill="#CEE8FB"></path><path d="M217.36 89.0802C217.36 82.7202 214.24 76.8402 208.96 73.2402L205.6 70.9602C203.32 69.4002 202 66.8802 202 64.2402V59.0802V55.7202H198.64H191.68H188.32V59.0802V64.0002C188.32 66.7602 186.88 69.2802 184.6 70.7202L180.88 73.0002C175.36 76.4802 172 82.6002 172 89.0802V99.4002C172 100.6 172.36 101.8 172.96 102.88C172.36 103.84 172 105.04 172 106.24V108.28H175.36V106.24C175.36 104.32 176.92 102.76 178.84 102.76C176.92 102.76 175.36 101.2 175.36 99.2802V89.0802C175.36 83.6802 178.12 78.7602 182.68 75.8802L186.16 73.7202C189.4 71.6802 191.44 67.9602 191.56 64.1202V59.2002H198.52V64.3602C198.52 68.2002 200.44 71.8002 203.56 73.9602L206.92 76.2402C211.36 79.0002 214 83.8002 214 89.0802V99.4002C214 101.32 212.44 102.88 210.52 102.88C212.44 102.88 214 104.44 214 106.36V108.4H217.36V106.36C217.36 105.16 217 103.96 216.4 102.88C217 101.92 217.36 100.72 217.36 99.4002V89.0802Z" fill="#CEE8FB"></path><path d="M175.36 108.28H172V138.28H175.36V108.28Z" fill="#FF4D54"></path><path d="M217.36 108.28H214V138.28H217.36V108.28Z" fill="#D40000"></path><path d="M207.041 75.9996L203.681 73.7196C200.441 71.5596 198.641 67.9596 198.641 64.1196V59.0796H191.681V63.9996C191.681 67.9596 189.641 71.5596 186.281 73.5996L182.801 75.7596C182.321 76.1196 181.841 76.4796 181.361 76.8396H208.361C207.881 76.5996 207.401 76.3596 207.041 75.9996Z" fill="#E1F1FD"></path><path d="M208.241 99.3996V89.1996C208.241 84.3996 206.081 79.9596 202.481 77.0796H186.881H181.241C177.641 80.0796 175.481 84.5196 175.481 89.1996V99.3996C175.481 101.32 177.041 102.88 178.961 102.88C177.041 102.88 175.481 104.44 175.481 106.36V108.4H181.241H208.361V106.36C208.361 104.44 206.801 102.88 204.881 102.88C206.681 102.76 208.241 101.2 208.241 99.3996Z" fill="#801600"></path><path d="M179.801 90.7591C178.841 90.7591 178.121 90.0391 178.121 89.0791C178.121 85.7191 179.441 82.5991 181.721 80.1991C182.321 79.5991 183.401 79.4791 184.001 80.1991C184.601 80.7991 184.721 81.8791 184.001 82.4791C182.321 84.2791 181.361 86.6791 181.361 89.0791C181.481 90.0391 180.761 90.7591 179.801 90.7591Z" fill="#A43422"></path><path d="M179.801 100.839C178.841 100.839 178.121 100.119 178.121 99.1589V94.5989C178.121 93.6389 178.841 92.9189 179.801 92.9189C180.761 92.9189 181.481 93.6389 181.481 94.5989V99.1589C181.481 100.119 180.761 100.839 179.801 100.839Z" fill="#A43422"></path><path d="M179.801 165.399C178.841 165.399 178.121 164.679 178.121 163.719V149.079C178.121 148.119 178.841 147.399 179.801 147.399C180.761 147.399 181.481 148.119 181.481 149.079V163.839C181.481 164.679 180.761 165.399 179.801 165.399Z" fill="#A43422"></path><path d="M208.121 76.9595H202.361C205.961 79.9595 208.121 84.3995 208.121 89.0795V99.3995C208.121 101.319 206.561 102.879 204.641 102.879C206.561 102.879 208.121 104.439 208.121 106.359V108.399H213.881V106.359C213.881 105.879 213.761 105.399 213.641 105.039C213.401 104.439 212.921 103.839 212.441 103.479C211.841 103.119 211.241 102.879 210.521 102.879C211.241 102.879 211.841 102.639 212.441 102.279C213.041 101.919 213.401 101.439 213.641 100.719C213.761 100.359 213.881 99.8795 213.881 99.3995V89.1995C214.001 84.3995 211.841 79.8395 208.121 76.9595Z" fill="#661204"></path><path d="M202.6 49H199C199.72 49 200.44 49.72 200.44 50.68V57.52C200.44 58.48 199.84 59.2 199 59.2H202.6C203.32 59.2 204.04 58.48 204.04 57.52V50.68C204.04 49.72 203.44 49 202.6 49Z" fill="#D40000"></path><path d="M200.44 57.52V50.68C200.44 49.72 199.84 49 199 49H187.6C186.88 49 186.16 49.72 186.16 50.68V57.52C186.16 58.48 186.76 59.2 187.6 59.2H199C199.72 59.08 200.44 58.36 200.44 57.52Z" fill="#EE1E1D"></path><path d="M202 59.0801H188.2V62.2001H202V59.0801Z" fill="#D40000"></path><path d="M214 108.28H205.96C202.84 105.88 198.88 104.44 194.56 104.44C190.24 104.44 186.4 105.88 183.16 108.28H175.48V138.28H183.16C186.28 140.68 190.24 142.12 194.56 142.12C198.88 142.12 202.72 140.68 205.96 138.28H214V108.28Z" fill="#EE1E1D"></path><path d="M192.76 99.1596C194.019 99.1596 195.04 98.1388 195.04 96.8796C195.04 95.6204 194.019 94.5996 192.76 94.5996C191.501 94.5996 190.48 95.6204 190.48 96.8796C190.48 98.1388 191.501 99.1596 192.76 99.1596Z" fill="#A43422"></path><path d="M199.12 87.6397C199.12 88.4797 198.52 89.0797 197.68 89.0797C196.84 89.0797 196.24 88.4797 196.24 87.6397C196.24 86.7997 196.84 86.1997 197.68 86.1997C198.52 86.1997 199.12 86.7997 199.12 87.6397Z" fill="#A43422"></path><path d="M195.639 161.44C196.899 161.44 197.919 160.419 197.919 159.16C197.919 157.901 196.899 156.88 195.639 156.88C194.38 156.88 193.359 157.901 193.359 159.16C193.359 160.419 194.38 161.44 195.639 161.44Z" fill="#A43422"></path><path d="M200.559 151.359C201.355 151.359 201.999 150.715 201.999 149.919C201.999 149.124 201.355 148.479 200.559 148.479C199.764 148.479 199.119 149.124 199.119 149.919C199.119 150.715 199.764 151.359 200.559 151.359Z" fill="#A43422"></path><path d="M189.04 149.92C189.835 149.92 190.48 149.275 190.48 148.48C190.48 147.685 189.835 147.04 189.04 147.04C188.244 147.04 187.6 147.685 187.6 148.48C187.6 149.275 188.244 149.92 189.04 149.92Z" fill="#A43422"></path><path d="M203.116 134.179C209.065 129.522 210.112 120.923 205.454 114.974C200.796 109.025 192.198 107.978 186.249 112.636C180.3 117.294 179.253 125.892 183.911 131.841C188.568 137.79 197.167 138.837 203.116 134.179Z" fill="#D40000"></path><path d="M198.7 115.4V154.9L197.7 165.6C197.7 167.6 196.1 169.2 194.1 169.2H188.7V117.4C188.7 116.3 187.8 115.4 186.7 115.4H198.7Z" fill="#299AEA"></path><path d="M188.7 117.4V170.3H170.7C170.6 170.3 170.4 170.3 170.3 170.3C170 170.3 169.6 170.2 169.3 170.1C169.2 170 169 170 168.9 169.9C167.8 169.3 168.1 168.1 168.1 166.8L167 162.7V115.4H186.6C187.8 115.4 188.7 116.3 188.7 117.4Z" fill="#61B6F2"></path><path d="M193 128.7C192.7 127.9 192.3 127.2 191.8 126.6C189.8 123.9 186.7 122.2 183.1 122.2C178.7 122.2 174.9 124.9 173.2 128.7H167.2V130.7V135.2V137.2H173.2C174.9 141 178.7 143.7 183.1 143.7C186.7 143.7 189.8 142 191.8 139.3C192.3 138.6 192.7 137.9 193 137.2H198.7V135.2V130.7V128.7H193Z" fill="#1379DA"></path><path d="M196.2 112V100.2C196.2 94.8004 191.8 90.4004 186.4 90.4004H179.5C174.1 90.4004 169.7 94.8004 169.7 100.2V111.9H168.2C167.6 111.9 167.1 112.4 167.1 113V115.3H198.7V113C198.7 112.4 198.2 111.9 197.6 111.9H196.2V112Z" fill="#CEECFC"></path><path d="M193 112V100.2C193 94.8004 188.6 90.4004 183.2 90.4004H180C185.4 90.4004 189.8 94.8004 189.8 100.2V111.9H193V112Z" fill="#9ADAFB"></path><path d="M172.9 112V100.2C172.9 94.8004 177.3 90.4004 182.7 90.4004H185.9C180.5 90.4004 176.1 94.8004 176.1 100.2V111.9H172.9V112Z" fill="#9ADAFB"></path><path d="M198.8 115.4H167.2V119H198.8V115.4Z" fill="#9ADAFB"></path><path d="M184.7 90.4004H181.5V111.9H184.7V90.4004Z" fill="#9ADAFB"></path><path d="M171.1 154.2C172 153.5 173.1 153.1 174.3 153.1C173.1 151.9 172.5 150.6 172.3 149.4C172.2 148.9 172.7 148.5 173.2 148.6C174.3 148.8 175.7 149.6 176.8 150.7C176.9 149.6 177.3 148.6 177.9 147.8C178.2 147.4 178.8 147.4 179.1 147.8C179.8 148.7 180.2 149.9 180.2 151.1C180.2 151.5 180.1 152 180 152.5C179.6 154.6 177.9 156.3 175.8 156.6C175.3 156.7 174.7 156.7 174.4 156.7C173.1 156.7 172 156.2 171.1 155.4C170.7 155 170.7 154.5 171.1 154.2Z" fill="#109343"></path><path d="M184.1 152.5C181.9 150.2 178.2 150.2 175.9 152.4C173.6 154.6 173.6 158.3 175.8 160.6C178 162.9 184.3 165.6 186.6 163.3C189 161.1 186.4 154.8 184.1 152.5Z" fill="#FF3D3D"></path><path d="M182.1 153.8C182.4 153.5 182.4 153.1 182.1 152.8L181.4 152C181.1 151.7 180.7 151.7 180.4 152C180.1 152.3 180.1 152.7 180.4 153L181.1 153.8C181.3 154 181.8 154 182.1 153.8Z" fill="#FFE21F"></path><path d="M178.9 155.3C179.2 155 179.2 154.6 178.9 154.3L178.2 153.5C177.9 153.2 177.5 153.2 177.2 153.5C176.9 153.8 176.9 154.2 177.2 154.5L177.9 155.3C178.2 155.6 178.6 155.6 178.9 155.3Z" fill="#FFE21F"></path><path d="M181.9 158.4C182.2 158.1 182.2 157.7 181.9 157.4L181.2 156.6C180.9 156.3 180.5 156.3 180.2 156.6C179.9 156.9 179.9 157.3 180.2 157.6L180.9 158.4C181.1 158.6 181.6 158.6 181.9 158.4Z" fill="#FFE21F"></path><path d="M177.2 158.3C177.5 158 177.5 157.6 177.2 157.3L176.5 156.5C176.2 156.2 175.8 156.2 175.5 156.5C175.2 156.8 175.2 157.2 175.5 157.5L176.2 158.3C176.5 158.6 176.9 158.6 177.2 158.3Z" fill="#FFE21F"></path><path d="M184.8 161.4C185.1 161.1 185.1 160.7 184.8 160.4L184.1 159.6C183.8 159.3 183.4 159.3 183.1 159.6C182.8 159.9 182.8 160.3 183.1 160.6L183.8 161.4C184.1 161.7 184.5 161.7 184.8 161.4Z" fill="#FFE21F"></path><path d="M197.1 155.8C197.2 155 197.1 154.3 196.8 153.6C194.2 152.1 191.1 151.2 187.7 151C190 151.2 191.7 153.3 191.4 155.8C191.1 157.9 189.2 159.4 187.1 159.4H192.8C194.9 159.4 196.9 157.9 197.1 155.8Z" fill="#FFE6E9"></path><path d="M198.7 154.901V170.901C198.7 172.901 197.1 174.501 195.1 174.501H175V170.001C175 164.201 179.7 159.401 185.6 159.401H192.8C194.8 159.401 196.7 158.001 197.1 156.001C197.3 155.101 197.2 154.301 196.9 153.601C197.5 154.101 198.1 154.501 198.7 154.901Z" fill="#FFB2B9"></path><path d="M185.8 159.4C179.9 159.4 175.2 164.1 175.2 170V174.5H170.3C170 174.5 169.6 174.4 169.3 174.3C169.2 174.2 169 174.2 168.9 174.1V170.1C168.9 164.3 173.6 159.5 179.5 159.5H185.8V159.4Z" fill="#FFCDD2"></path><path d="M180.9 159.4C175 159.4 170.3 164.1 170.3 170V174.5C170 174.5 169.6 174.4 169.3 174.3C169.2 174.2 169 174.2 168.9 174.1C167.8 173.5 167 172.3 167 171V162.6C168.9 160.7 171.6 159.5 174.5 159.5H180.9V159.4Z" fill="#FFE6E9"></path><path d="M183.1 140.5C187.242 140.5 190.6 137.143 190.6 133C190.6 128.858 187.242 125.5 183.1 125.5C178.958 125.5 175.6 128.858 175.6 133C175.6 137.143 178.958 140.5 183.1 140.5Z" fill="white"></path><path d="M115 132H104.3C110.2 132 115 136.8 115 142.7V160.6C115 166.5 110.2 171.3 104.3 171.3H115C120.9 171.3 125.7 166.5 125.7 160.6V142.7C125.8 136.8 121 132 115 132Z" fill="#FFA800"></path><path d="M92.1 161.5C93.8121 161.5 95.2 160.112 95.2 158.4C95.2 156.688 93.8121 155.3 92.1 155.3C90.3879 155.3 89 156.688 89 158.4C89 160.112 90.3879 161.5 92.1 161.5Z" fill="#FFE600"></path><path d="M89.0999 144.7C89.0999 146.2 87.8999 147.4 86.3999 147.4C84.8999 147.4 83.7 146.2 83.7 144.7C83.7 143.2 84.8999 142 86.3999 142C87.8999 142 89.0999 143.2 89.0999 144.7Z" fill="#FFBE03"></path><path d="M109.8 135.2H74.6V168.1H109.8C113.9 168.1 117.3 164.7 117.3 160.6V142.7C117.3 138.5 114 135.2 109.8 135.2Z" fill="#FFE600"></path><path d="M119.5 132H74.6V135.2H109.8C113.9 135.2 117.3 138.6 117.3 142.7V160.6C117.3 164.7 113.9 168.1 109.8 168.1H74.6V171.3H119.5C125.4 171.3 130.2 166.5 130.2 160.6V142.7C130.2 136.8 125.4 132 119.5 132Z" fill="#FFCA03"></path><path d="M101 135.2C101 136.7 99.8 137.9 98.3 137.9C96.8 137.9 95.6 136.7 95.6 135.2L98.3 133.8L101 135.2Z" fill="#FFCA03"></path><path d="M88.7 168.1C88.7 165.4 90.9 163.3 93.5 163.3C96.2 163.3 98.2999 165.5 98.2999 168.1L93.8999 169.6L88.7 168.1Z" fill="#FFCA03"></path><path d="M90.7001 152.1C90.7001 153.9 89.3001 155.3 87.5001 155.3C85.7001 155.3 84.3 153.9 84.3 152.1C84.3 150.3 85.7001 148.9 87.5001 148.9C89.2001 148.8 90.7001 150.3 90.7001 152.1Z" fill="#FFA800"></path><path d="M104.1 158.9C104.1 160.1 103.1 161 102 161C100.8 161 99.9 160 99.9 158.9C99.9 157.8 100.9 156.8 102 156.8C103.2 156.8 104.1 157.7 104.1 158.9Z" fill="#FFA800"></path><path d="M84.8999 140C84.8999 141.2 83.8999 142.1 82.7999 142.1C81.6999 142.1 80.7 141.1 80.7 140C80.7 138.9 81.6999 137.9 82.7999 137.9C83.8999 137.9 84.8999 138.8 84.8999 140Z" fill="#FFCA03"></path><path d="M112.7 148.4C112.7 151 114.8 153.1 117.4 153.2L118.9 148.4L117.4 143.6C114.8 143.6 112.7 145.8 112.7 148.4Z" fill="#FFCA03"></path><path d="M119.5 132H110.6C116.5 132 121.3 136.8 121.3 142.7V160.6C121.3 166.5 116.5 171.3 110.6 171.3H119.5C125.4 171.3 130.2 166.5 130.2 160.6V142.7C130.2 136.8 125.4 132 119.5 132Z" fill="#D40000"></path><path d="M34.1 132H44.8C38.9 132 34.1 136.8 34.1 142.7V160.6C34.1 166.5 38.9 171.3 44.8 171.3H34.1C28.2 171.3 23.4 166.5 23.4 160.6V142.7C23.4 136.8 28.2 132 34.1 132Z" fill="#FFA800"></path><path d="M54 158.4C54 160.1 55.4 161.5 57.1 161.5C58.8 161.5 60.2 160.1 60.2 158.4C60.2 156.7 58.8 155.3 57.1 155.3C55.4 155.2 54 156.7 54 158.4Z" fill="#FFE600"></path><path d="M60.1 144.7C60.1 146.2 61.3 147.4 62.8 147.4C64.3 147.4 65.5 146.2 65.5 144.7C65.5 143.2 64.3 142 62.8 142C61.3 142 60.1 143.2 60.1 144.7Z" fill="#FFBE03"></path><path d="M31.8 142.7V160.6C31.8 164.7 35.2 168.1 39.3 168.1H74.5001V135.2H39.3C35.2 135.2 31.8 138.5 31.8 142.7Z" fill="#FFCA03"></path><path d="M29.7 132H74.6V135.2H39.4C35.3 135.2 31.9 138.6 31.9 142.7V160.6C31.9 164.7 35.3 168.1 39.4 168.1H74.6V171.3H29.7C23.8 171.3 19 166.5 19 160.6V142.7C19 136.8 23.8 132 29.7 132Z" fill="#FFA800"></path><path d="M69.8 168.2C69.8 166.7 68.6 165.5 67.1 165.5C65.6 165.5 64.4 166.7 64.4 168.2L67.1 169.6L69.8 168.2Z" fill="#FFA800"></path><path d="M44.9 134.8C44.9 137.5 47.1 139.6 49.7 139.6C52.4 139.6 54.5 137.4 54.5 134.8L50.1 133.3L44.9 134.8Z" fill="#FFA800"></path><path d="M44.6 157.5C44.6 159.3 46 160.7 47.8 160.7C49.6 160.7 51 159.3 51 157.5C51 155.7 49.6 154.3 47.8 154.3C46.1 154.3 44.6 155.7 44.6 157.5Z" fill="#FFA800"></path><path d="M62.3 148.4C62.3 149.6 63.3001 150.5 64.4001 150.5C65.6001 150.5 66.5001 149.5 66.5001 148.4C66.5001 147.3 65.5001 146.3 64.4001 146.3C63.2001 146.2 62.3 147.2 62.3 148.4Z" fill="#FFA800"></path><path d="M36.5001 155.2C36.5001 157.8 34.4 159.9 31.8 160L30.3 155.2L31.8 150.4C34.4 150.5 36.5001 152.6 36.5001 155.2Z" fill="#FFA800"></path><path d="M29.7 132H38.6C32.7 132 27.9 136.8 27.9 142.7V160.6C27.9 166.5 32.7 171.3 38.6 171.3H29.7C23.8 171.3 19 166.5 19 160.6V142.7C19 136.8 23.8 132 29.7 132Z" fill="#EE1E1D"></path><path d="M123.132 33.144C122.652 33.144 122.22 33.068 121.836 32.916C121.452 32.764 121.148 32.54 120.924 32.244C120.7 31.948 120.588 31.592 120.588 31.176C120.588 30.76 120.692 30.396 120.9 30.084C121.116 29.772 121.456 29.532 121.92 29.364V26.352H128.196V27.216H125.952V29.064C126.608 29.08 127.188 29.18 127.692 29.364C128.204 29.54 128.604 29.828 128.892 30.228C129.18 30.628 129.324 31.16 129.324 31.824C129.324 32.36 129.224 32.808 129.024 33.168C128.824 33.536 128.54 33.856 128.172 34.128C127.78 34.408 127.304 34.6 126.744 34.704C126.192 34.816 125.484 34.872 124.62 34.872H123.264C122.928 34.872 122.668 34.896 122.484 34.944C122.3 34.992 122.14 35.06 122.004 35.148C121.876 35.236 121.776 35.36 121.704 35.52C121.632 35.68 121.596 35.892 121.596 36.156C121.596 36.396 121.608 36.612 121.632 36.804L120.648 36.852C120.624 36.708 120.604 36.548 120.588 36.372C120.572 36.204 120.564 36.052 120.564 35.916C120.564 35.564 120.628 35.264 120.756 35.016C120.884 34.776 121.048 34.58 121.248 34.428C121.456 34.276 121.688 34.168 121.944 34.104C122.208 34.04 122.54 34.008 122.94 34.008H124.248C124.96 34.008 125.544 33.976 126 33.912C126.456 33.856 126.824 33.764 127.104 33.636C127.384 33.516 127.616 33.356 127.8 33.156C128.128 32.804 128.292 32.332 128.292 31.74C128.292 31.268 128.18 30.904 127.956 30.648C127.732 30.384 127.44 30.2 127.08 30.096C126.72 29.992 126.344 29.932 125.952 29.916V30.288C125.952 30.824 125.904 31.244 125.808 31.548C125.72 31.852 125.592 32.108 125.424 32.316C125.176 32.62 124.856 32.836 124.464 32.964C124.08 33.084 123.636 33.144 123.132 33.144ZM122.868 27.216V29.136C123.204 29.088 123.576 29.064 123.984 29.064H124.932V27.216H122.868ZM121.62 31.164C121.62 31.532 121.772 31.812 122.076 32.004C122.38 32.188 122.764 32.28 123.228 32.28C123.58 32.28 123.88 32.228 124.128 32.124C124.384 32.012 124.58 31.824 124.716 31.56C124.86 31.288 124.932 30.916 124.932 30.444V29.904H123.9C123.492 29.904 123.144 29.928 122.856 29.976C122.576 30.024 122.336 30.104 122.136 30.216C121.792 30.416 121.62 30.732 121.62 31.164ZM132.89 33.144C132.466 33.144 132.078 33.04 131.726 32.832C131.374 32.616 131.094 32.284 130.886 31.836C130.686 31.388 130.586 30.804 130.586 30.084C130.586 29.228 130.754 28.512 131.09 27.936C131.434 27.36 131.886 26.928 132.446 26.64C133.006 26.352 133.614 26.208 134.27 26.208C135.086 26.208 135.746 26.364 136.25 26.676C136.754 26.988 137.122 27.404 137.354 27.924C137.594 28.436 137.714 29.008 137.714 29.64C137.714 30.152 137.658 30.608 137.546 31.008C137.434 31.408 137.298 31.784 137.138 32.136H140.342V26.352H141.374V33H136.082L136.034 32.244C136.218 31.964 136.366 31.62 136.478 31.212C136.598 30.796 136.658 30.316 136.658 29.772C136.658 28.916 136.438 28.256 135.998 27.792C135.558 27.328 134.966 27.096 134.222 27.096C133.486 27.096 132.886 27.324 132.422 27.78C131.966 28.228 131.686 28.808 131.582 29.52C131.79 29.384 132.018 29.276 132.266 29.196C132.514 29.108 132.77 29.064 133.034 29.064C133.61 29.064 134.074 29.24 134.426 29.592C134.786 29.944 134.966 30.42 134.966 31.02C134.966 31.684 134.778 32.204 134.402 32.58C134.034 32.956 133.53 33.144 132.89 33.144ZM132.866 29.904C132.626 29.904 132.394 29.956 132.17 30.06C131.946 30.156 131.738 30.288 131.546 30.456C131.578 31.144 131.726 31.628 131.99 31.908C132.254 32.188 132.57 32.328 132.938 32.328C133.25 32.328 133.502 32.228 133.694 32.028C133.886 31.82 133.982 31.524 133.982 31.14C133.982 30.74 133.878 30.436 133.67 30.228C133.462 30.012 133.194 29.904 132.866 29.904ZM140.87 22.884C141.878 22.884 142.71 23.16 143.366 23.712C143.59 23.896 143.786 24.128 143.954 24.408C144.13 24.68 144.266 25.036 144.362 25.476C144.466 25.908 144.518 26.46 144.518 27.132V33H143.486V27.468C143.486 26.836 143.45 26.324 143.378 25.932C143.314 25.532 143.214 25.216 143.078 24.984C142.95 24.744 142.794 24.544 142.61 24.384C142.386 24.176 142.122 24.024 141.818 23.928C141.514 23.832 141.206 23.784 140.894 23.784C140.246 23.784 139.742 23.944 139.382 24.264C139.022 24.584 138.842 25.016 138.842 25.56C138.842 26.136 138.99 26.58 139.286 26.892C139.582 27.196 139.982 27.388 140.486 27.468V28.32C139.99 28.264 139.538 28.124 139.13 27.9C138.722 27.676 138.402 27.368 138.17 26.976C137.93 26.584 137.81 26.108 137.81 25.548C137.81 24.956 137.95 24.464 138.23 24.072C138.502 23.68 138.87 23.384 139.334 23.184C139.798 22.984 140.31 22.884 140.87 22.884ZM148.342 35.544L147.658 34.908L149.974 32.712V27.216H147.658V33H146.626V26.352H153.046V27.216H151.006V33L148.342 35.544ZM149.41 24.864C149.178 24.864 148.986 24.792 148.834 24.648C148.682 24.496 148.606 24.3 148.606 24.06C148.606 23.828 148.682 23.636 148.834 23.484C148.986 23.332 149.178 23.256 149.41 23.256C149.642 23.256 149.834 23.332 149.986 23.484C150.138 23.636 150.214 23.828 150.214 24.06C150.214 24.3 150.138 24.496 149.986 24.648C149.834 24.792 149.642 24.864 149.41 24.864ZM155.839 33.144C155.359 33.144 154.927 33.068 154.543 32.916C154.159 32.764 153.855 32.54 153.631 32.244C153.407 31.948 153.295 31.592 153.295 31.176C153.295 30.76 153.399 30.396 153.607 30.084C153.823 29.772 154.163 29.532 154.627 29.364V26.352H160.903V27.216H158.659V29.064H158.851C159.475 29.064 159.979 29.112 160.363 29.208C160.747 29.296 161.075 29.444 161.347 29.652C161.555 29.812 161.719 30.024 161.839 30.288C161.959 30.544 162.019 30.84 162.019 31.176C162.019 31.784 161.835 32.256 161.467 32.592C161.107 32.928 160.595 33.096 159.931 33.096C159.747 33.096 159.547 33.084 159.331 33.06C159.115 33.036 158.915 32.996 158.731 32.94L158.959 32.136C159.223 32.216 159.515 32.256 159.835 32.256C160.603 32.256 160.987 31.88 160.987 31.128C160.987 30.76 160.883 30.492 160.675 30.324C160.475 30.148 160.219 30.036 159.907 29.988C159.595 29.932 159.271 29.904 158.935 29.904H158.659V30.288C158.659 30.824 158.611 31.244 158.515 31.548C158.427 31.852 158.299 32.108 158.131 32.316C157.883 32.62 157.563 32.836 157.171 32.964C156.787 33.084 156.343 33.144 155.839 33.144ZM155.575 27.216V29.136C155.911 29.088 156.283 29.064 156.691 29.064H157.639V27.216H155.575ZM154.327 31.164C154.327 31.532 154.479 31.812 154.783 32.004C155.087 32.188 155.471 32.28 155.935 32.28C156.287 32.28 156.587 32.228 156.835 32.124C157.091 32.012 157.287 31.824 157.423 31.56C157.567 31.296 157.639 30.924 157.639 30.444V29.904H156.607C156.199 29.904 155.851 29.928 155.563 29.976C155.283 30.024 155.043 30.104 154.843 30.216C154.499 30.416 154.327 30.732 154.327 31.164ZM157.891 24.864C157.659 24.864 157.467 24.792 157.315 24.648C157.163 24.496 157.087 24.3 157.087 24.06C157.087 23.828 157.163 23.636 157.315 23.484C157.467 23.332 157.659 23.256 157.891 23.256C158.123 23.256 158.315 23.332 158.467 23.484C158.619 23.636 158.695 23.828 158.695 24.06C158.695 24.3 158.619 24.496 158.467 24.648C158.315 24.792 158.123 24.864 157.891 24.864ZM165.741 33.144C165.261 33.144 164.829 33.068 164.445 32.916C164.061 32.764 163.757 32.54 163.533 32.244C163.309 31.948 163.197 31.592 163.197 31.176C163.197 30.76 163.301 30.396 163.509 30.084C163.725 29.772 164.065 29.532 164.529 29.364V26.352H170.805V27.216H168.561V29.064H168.753C169.377 29.064 169.881 29.112 170.265 29.208C170.649 29.296 170.977 29.444 171.249 29.652C171.457 29.812 171.621 30.024 171.741 30.288C171.861 30.544 171.921 30.84 171.921 31.176C171.921 31.784 171.737 32.256 171.369 32.592C171.009 32.928 170.497 33.096 169.833 33.096C169.649 33.096 169.449 33.084 169.233 33.06C169.017 33.036 168.817 32.996 168.633 32.94L168.861 32.136C169.125 32.216 169.417 32.256 169.737 32.256C170.505 32.256 170.889 31.88 170.889 31.128C170.889 30.76 170.785 30.492 170.577 30.324C170.377 30.148 170.121 30.036 169.809 29.988C169.497 29.932 169.173 29.904 168.837 29.904H168.561V30.288C168.561 30.824 168.513 31.244 168.417 31.548C168.329 31.852 168.201 32.108 168.033 32.316C167.785 32.62 167.465 32.836 167.073 32.964C166.689 33.084 166.245 33.144 165.741 33.144ZM165.477 27.216V29.136C165.813 29.088 166.185 29.064 166.593 29.064H167.541V27.216H165.477ZM164.229 31.164C164.229 31.532 164.381 31.812 164.685 32.004C164.989 32.188 165.373 32.28 165.837 32.28C166.189 32.28 166.489 32.228 166.737 32.124C166.993 32.012 167.189 31.824 167.325 31.56C167.469 31.296 167.541 30.924 167.541 30.444V29.904H166.509C166.101 29.904 165.753 29.928 165.465 29.976C165.185 30.024 164.945 30.104 164.745 30.216C164.401 30.416 164.229 30.732 164.229 31.164ZM175.5 33.144C175.076 33.144 174.688 33.04 174.336 32.832C173.984 32.616 173.704 32.284 173.496 31.836C173.296 31.388 173.196 30.804 173.196 30.084C173.196 29.228 173.364 28.512 173.7 27.936C174.044 27.36 174.496 26.928 175.056 26.64C175.616 26.352 176.224 26.208 176.88 26.208C177.696 26.208 178.356 26.364 178.86 26.676C179.364 26.988 179.732 27.404 179.964 27.924C180.204 28.436 180.324 29.008 180.324 29.64C180.324 30.152 180.268 30.608 180.156 31.008C180.044 31.408 179.908 31.784 179.748 32.136H182.952V26.352H183.984V36.396H182.952V33H178.692L178.644 32.244C178.828 31.964 178.976 31.62 179.088 31.212C179.208 30.796 179.268 30.316 179.268 29.772C179.268 28.916 179.048 28.256 178.608 27.792C178.168 27.328 177.576 27.096 176.832 27.096C176.096 27.096 175.496 27.324 175.032 27.78C174.576 28.228 174.296 28.808 174.192 29.52C174.4 29.384 174.628 29.276 174.876 29.196C175.124 29.108 175.38 29.064 175.644 29.064C176.22 29.064 176.684 29.24 177.036 29.592C177.396 29.944 177.576 30.42 177.576 31.02C177.576 31.684 177.388 32.204 177.012 32.58C176.644 32.956 176.14 33.144 175.5 33.144ZM175.476 29.904C175.236 29.904 175.004 29.956 174.78 30.06C174.556 30.156 174.348 30.288 174.156 30.456C174.188 31.144 174.336 31.628 174.6 31.908C174.864 32.188 175.18 32.328 175.548 32.328C175.86 32.328 176.112 32.228 176.304 32.028C176.496 31.82 176.592 31.524 176.592 31.14C176.592 30.74 176.488 30.436 176.28 30.228C176.072 30.012 175.804 29.904 175.476 29.904ZM191.999 26.208C192.599 26.208 193.091 26.364 193.475 26.676C193.859 26.98 194.143 27.408 194.327 27.96C194.511 28.504 194.603 29.136 194.603 29.856C194.603 30.416 194.543 30.896 194.423 31.296C194.303 31.696 194.111 32.024 193.847 32.28C193.567 32.552 193.223 32.74 192.815 32.844C192.415 32.948 191.871 33 191.183 33H186.095V26.352H187.127V32.136H189.839V28.74C189.839 28.244 189.883 27.852 189.971 27.564C190.067 27.268 190.203 27.02 190.379 26.82C190.563 26.62 190.783 26.468 191.039 26.364C191.295 26.26 191.615 26.208 191.999 26.208ZM191.975 27.072C191.839 27.072 191.707 27.096 191.579 27.144C191.451 27.184 191.343 27.252 191.255 27.348C191.127 27.492 191.031 27.672 190.967 27.888C190.903 28.096 190.871 28.448 190.871 28.944V32.136H191.435C191.979 32.136 192.403 32.06 192.707 31.908C193.011 31.756 193.227 31.508 193.355 31.164C193.483 30.82 193.547 30.364 193.547 29.796C193.547 29.284 193.491 28.824 193.379 28.416C193.275 28.008 193.107 27.684 192.875 27.444C192.651 27.196 192.351 27.072 191.975 27.072ZM190.199 24.864C189.967 24.864 189.775 24.792 189.623 24.648C189.471 24.496 189.395 24.3 189.395 24.06C189.395 23.828 189.471 23.636 189.623 23.484C189.775 23.332 189.967 23.256 190.199 23.256C190.431 23.256 190.623 23.332 190.775 23.484C190.927 23.636 191.003 23.828 191.003 24.06C191.003 24.3 190.927 24.496 190.775 24.648C190.623 24.792 190.431 24.864 190.199 24.864Z" fill="black"></path><line x1="68.2322" y1="160.232" x2="178.232" y2="50.2322" stroke="#BF2828" stroke-width="5"></line><line x1="71.7678" y1="50.2322" x2="181.768" y2="160.232" stroke="#BF2828" stroke-width="5"></line></g></svg>