<svg xmlns="http://www.w3.org/2000/svg" width="250" height="230" viewBox="0 0 250 230" fill="none"><mask id="mask0" maskUnits="userSpaceOnUse" x="0" y="0" width="250" height="230"><rect width="250" height="230" fill="#F9F9F9"></rect></mask><g mask="url(#mask0)"><path fill-rule="evenodd" clip-rule="evenodd" d="M16.2331 138.942C3.65089 103.301 -3.80304 60.7362 19.8107 31.2255C42.8558 2.42542 85.2678 9.02103 122.077 6.66679C161.004 4.17712 206.394 -11.1406 232.763 17.6055C259.481 46.7324 249.884 93.4771 235.467 130.279C224.094 159.311 194.322 172.238 166.599 186.505C139.472 200.464 111.645 218.167 82.5574 208.967C50.3091 198.766 27.493 170.838 16.2331 138.942Z" fill="#D2F8FD"></path></g><g clip-path="url(#clip0)"><path d="M121.084 110.455C119.119 108.961 117.434 108.867 115.095 110.548C112.662 112.323 109.667 112.136 106.86 110.829C94.6004 105.131 82.2477 99.5276 69.8949 93.8304C58.2909 88.4134 46.6868 82.9963 34.9891 77.6727C29.0935 74.9642 27.409 69.8274 30.5908 64.2235C40.4168 47.1319 50.2429 29.9468 60.2561 12.9486C63.3443 7.71832 68.8655 6.59756 73.8254 10.0532C94.8811 24.81 115.843 39.6601 136.899 54.3234C140.83 57.032 143.263 60.1141 142.608 65.1575C142.327 67.2122 144.666 67.399 145.789 68.5198C146.912 69.5472 146.164 70.5745 145.696 71.5085C144.292 74.217 142.701 76.7387 141.204 79.3539C138.49 84.2105 135.589 88.9738 132.875 93.8304C129.881 98.9672 126.792 104.104 123.704 109.241C123.143 110.175 122.394 110.829 121.084 110.455Z" fill="#E8E8E6"></path><path d="M121.084 110.455C122.675 109.988 122.956 108.4 123.611 107.279C128.29 99.434 132.969 91.682 137.367 83.7432C140.175 78.6998 143.543 73.9366 145.789 68.5195C146.819 68.7063 147.661 69.1733 148.503 69.8271C149.439 70.5743 150.562 70.8545 151.779 70.6677C163.383 69.0799 171.431 78.046 167.968 89.0669C164.225 100.928 158.329 111.482 149.346 120.355C141.391 128.294 129.787 123.344 126.886 115.872C125.857 113.07 123.424 111.762 121.084 110.455Z" fill="#BEBEBE"></path><path d="M137.835 217.582C138.864 217.769 139.332 218.329 139.238 219.263C139.145 220.01 138.677 220.571 137.835 220.477C136.992 220.477 136.524 219.917 136.524 219.17C136.524 218.236 137.086 217.769 137.835 217.582Z" fill="#FDFDFD"></path><path d="M157.113 193.86C156.083 193.673 155.615 193.113 155.709 192.272C155.709 191.525 156.083 190.965 157.019 190.965C157.955 190.965 158.423 191.525 158.516 192.366C158.423 193.3 157.861 193.767 157.113 193.86Z" fill="#BEBEBE"></path><path d="M163.196 124.092C163.29 123.158 163.758 122.691 164.6 122.691C165.442 122.691 165.817 123.252 165.817 124.092C165.817 124.933 165.349 125.4 164.506 125.4C163.664 125.307 163.29 124.746 163.196 124.092Z" fill="#BEBEBE"></path><path d="M172.179 147.91C173.021 148.004 173.489 148.564 173.396 149.311C173.396 150.058 172.928 150.712 172.086 150.712C171.243 150.805 170.775 150.245 170.775 149.404C170.775 148.471 171.337 148.097 172.179 147.91Z" fill="#BEBEBE"></path><path d="M159.734 149.405C159.546 150.152 159.172 150.712 158.423 150.712C157.488 150.712 157.02 150.059 157.113 149.218C157.113 148.564 157.581 148.004 158.236 148.004C159.079 148.004 159.546 148.564 159.734 149.405Z" fill="#BEBEBE"></path><path d="M158.143 220.293C158.985 220.293 159.453 220.667 159.64 221.507C159.734 222.348 159.266 222.815 158.424 222.908C157.581 223.001 157.02 222.628 157.02 221.787C156.926 221.04 157.301 220.48 158.143 220.293Z" fill="#BEBEBE"></path><path d="M158.516 169.67C157.581 169.576 157.019 169.203 157.113 168.362C157.113 167.615 157.581 167.055 158.423 167.055C159.171 167.055 159.733 167.615 159.733 168.362C159.733 169.296 159.078 169.576 158.516 169.67Z" fill="#BEBEBE"></path><path d="M148.129 160.798C147.287 160.798 146.819 160.331 146.819 159.49C146.819 158.743 147.287 158.182 148.129 158.276C148.878 158.369 149.44 158.743 149.44 159.583C149.44 160.424 148.878 160.704 148.129 160.798Z" fill="#BEBEBE"></path><path d="M164.412 158.184C165.348 158.184 165.816 158.651 165.816 159.491C165.816 160.332 165.441 160.799 164.599 160.799C163.757 160.799 163.289 160.425 163.289 159.585C163.289 158.744 163.757 158.37 164.412 158.184Z" fill="#BEBEBE"></path><path d="M176.111 168.363C176.017 169.203 175.549 169.67 174.8 169.67C173.958 169.67 173.49 169.203 173.49 168.456C173.49 167.615 173.865 167.148 174.8 167.148C175.549 167.148 176.017 167.615 176.111 168.363Z" fill="#BEBEBE"></path><path d="M163.289 184.892C162.54 184.799 161.979 184.425 161.979 183.585C161.979 182.838 162.353 182.277 163.195 182.277C164.037 182.277 164.505 182.744 164.505 183.491C164.505 184.332 164.131 184.799 163.289 184.892Z" fill="#BEBEBE"></path><path d="M176.204 184.893C175.455 184.893 174.987 184.519 174.894 183.772C174.8 182.931 175.268 182.371 176.017 182.277C176.859 182.184 177.42 182.651 177.42 183.492C177.42 184.332 176.953 184.799 176.204 184.893Z" fill="#BEBEBE"></path><path d="M158.236 201.332C159.078 201.332 159.64 201.706 159.64 202.546C159.64 203.387 159.172 203.854 158.423 203.947C157.581 204.041 157.113 203.574 157.02 202.733C157.02 201.892 157.487 201.519 158.236 201.332Z" fill="#BEBEBE"></path><path d="M185 210.113C185 211.047 184.532 211.42 183.69 211.42C182.848 211.42 182.38 210.953 182.38 210.113C182.38 209.272 182.848 208.898 183.69 208.898C184.532 208.898 184.907 209.365 185 210.113Z" fill="#BEBEBE"></path><path d="M174.8 134.178C173.958 134.084 173.49 133.617 173.49 132.777C173.49 131.936 173.958 131.469 174.8 131.563C175.549 131.656 176.111 132.03 176.111 132.87C176.111 133.804 175.549 134.178 174.8 134.178Z" fill="#BEBEBE"></path><path d="M176.111 221.784C176.017 222.624 175.455 222.998 174.707 222.998C173.865 222.905 173.49 222.438 173.49 221.597C173.584 220.756 174.052 220.289 174.894 220.383C175.643 220.476 176.111 220.943 176.111 221.784Z" fill="#BEBEBE"></path><path d="M183.596 174.434C183.596 175.368 183.128 175.835 182.286 175.835C181.537 175.835 181.07 175.554 180.976 174.807C180.882 173.967 181.257 173.5 182.099 173.406C183.035 173.406 183.596 173.686 183.596 174.434Z" fill="#BEBEBE"></path><path d="M149.44 210.206C149.44 211.047 148.878 211.514 148.036 211.42C147.194 211.42 146.819 210.86 146.819 210.019C146.819 209.272 147.381 208.898 148.036 208.898C148.878 208.898 149.44 209.365 149.44 210.206Z" fill="#BEBEBE"></path><path d="M145.416 178.635C144.667 178.541 144.105 178.168 144.105 177.327C144.199 176.58 144.667 176.02 145.416 176.02C146.071 176.02 146.539 176.58 146.539 177.234C146.726 178.074 146.258 178.448 145.416 178.635Z" fill="#BEBEBE"></path><path d="M146.726 194.886C146.539 195.82 146.164 196.287 145.322 196.287C144.573 196.287 144.199 195.82 144.105 195.167C144.105 194.326 144.573 193.859 145.322 193.766C146.164 193.766 146.539 194.326 146.726 194.886Z" fill="#BEBEBE"></path><path d="M156.926 131.564C156.926 132.405 156.458 132.872 155.616 132.872C154.867 132.872 154.306 132.498 154.306 131.658C154.306 130.91 154.774 130.35 155.616 130.35C156.458 130.257 156.832 130.817 156.926 131.564Z" fill="#BEBEBE"></path><path d="M148.223 139.316C148.972 139.41 149.533 139.877 149.44 140.624C149.44 141.371 148.878 141.651 148.223 141.745C147.474 141.745 146.913 141.371 146.819 140.531C146.819 139.69 147.381 139.316 148.223 139.316Z" fill="#BEBEBE"></path><path d="M174.8 200.023C175.548 200.117 176.11 200.49 176.11 201.331C176.11 202.078 175.548 202.358 174.893 202.452C174.145 202.545 173.677 202.172 173.583 201.424C173.49 200.584 173.957 200.117 174.8 200.023Z" fill="#BEBEBE"></path><path d="M164.506 141.744C163.757 141.651 163.289 141.277 163.289 140.53C163.289 139.69 163.757 139.223 164.599 139.223C165.348 139.223 165.722 139.69 165.816 140.343C165.816 141.277 165.348 141.651 164.506 141.744Z" fill="#BEBEBE"></path><path d="M139.239 187.417C138.49 187.417 137.929 187.043 137.929 186.202C137.929 185.455 138.397 185.082 139.145 184.988C139.987 184.988 140.455 185.362 140.549 186.202C140.455 186.95 140.081 187.417 139.239 187.417Z" fill="#BEBEBE"></path><path d="M182.286 192.551C183.035 192.644 183.596 193.018 183.596 193.858C183.596 194.606 183.035 194.979 182.379 194.979C181.537 194.979 181.069 194.512 181.069 193.672C181.069 192.924 181.631 192.644 182.286 192.551Z" fill="#BEBEBE"></path><path d="M165.816 212.818C165.723 213.566 165.348 214.033 164.6 214.033C163.757 214.033 163.196 213.659 163.289 212.818C163.289 211.978 163.851 211.604 164.693 211.698C165.442 211.698 165.723 212.165 165.816 212.818Z" fill="#BEBEBE"></path><path d="M87.8623 60.3942C103.303 60.3942 118.744 60.3942 134.185 60.3942C138.396 60.3942 139.332 61.7951 137.648 65.7178C137.086 67.0254 136.712 68.2395 138.396 69.0801C139.893 69.8273 139.706 70.948 138.958 72.2556C136.244 76.7387 133.624 81.2217 131.003 85.7048C128.009 90.935 125.014 96.2586 122.019 101.489C120.99 103.263 120.148 105.038 117.621 103.357C116.779 102.796 116.03 103.544 115.469 104.291C112.287 107.933 111.632 108.12 107.514 106.159C97.2204 101.489 87.0201 96.6322 76.8197 91.9624C66.3386 87.1057 55.7639 82.3425 45.1892 77.4858C42.2882 76.1783 39.3872 74.7773 36.5797 73.3764C33.5851 71.882 32.8365 69.4537 34.4274 66.465C34.9889 65.3442 35.6439 64.3169 36.299 63.1961C37.422 61.2348 38.9193 60.3008 41.3524 60.3008C56.7933 60.4876 72.3278 60.3942 87.8623 60.3942Z" fill="#FDFDFD"></path><path d="M151.217 107.281C151.872 107.281 152.153 107.655 152.34 108.215C152.62 109.429 151.123 111.951 149.907 112.325C149.345 112.511 148.877 112.605 148.596 111.951C147.941 110.83 150 107.375 151.217 107.281Z" fill="#7C7C7C"></path><path d="M160.669 91.2148C161.324 91.2148 161.511 91.5884 161.604 92.0554C161.792 93.1762 160.201 95.8847 159.078 96.2583C158.61 96.3517 158.048 96.3517 157.955 95.8847C157.58 94.8573 157.861 93.9234 158.516 93.0828C158.984 92.2422 159.546 91.4016 160.669 91.2148Z" fill="#7C7C7C"></path><path d="M160.107 102.328C159.92 104.102 159.172 105.41 157.487 106.064C156.645 106.344 156.271 105.597 156.271 104.85C156.271 103.635 158.142 101.207 159.078 101.207C159.827 101.114 160.107 101.581 160.107 102.328Z" fill="#7B7A7A"></path></g><path d="M147.172 23.076C148.171 23.076 148.983 23.216 149.608 23.496C150.233 23.7667 150.691 24.1353 150.98 24.602C151.279 25.0593 151.428 25.5633 151.428 26.114C151.428 26.842 151.255 27.4067 150.91 27.808C150.565 28.2093 150.084 28.508 149.468 28.704C148.852 28.8907 148.138 29.026 147.326 29.11L146.206 29.222C145.693 29.2687 145.371 29.3247 145.24 29.39C145.109 29.4553 145.044 29.5487 145.044 29.67C145.044 29.8847 145.212 29.992 145.548 29.992H157.7V31H145.674C145.021 31 144.554 30.874 144.274 30.622C144.003 30.37 143.868 30.0573 143.868 29.684C143.868 29.264 144.036 28.9373 144.372 28.704C144.717 28.4707 145.315 28.312 146.164 28.228L147.242 28.13C148.091 28.046 148.726 27.906 149.146 27.71C149.575 27.5047 149.86 27.262 150 26.982C150.149 26.702 150.224 26.4127 150.224 26.114C150.224 25.5633 150.019 25.1013 149.608 24.728C149.207 24.3547 148.628 24.1353 147.872 24.07C148.021 24.266 148.138 24.4853 148.222 24.728C148.315 24.9707 148.362 25.232 148.362 25.512C148.362 26.1187 148.166 26.618 147.774 27.01C147.391 27.3927 146.827 27.584 146.08 27.584C145.408 27.584 144.857 27.388 144.428 26.996C144.008 26.604 143.798 26.0813 143.798 25.428C143.798 24.896 143.943 24.4573 144.232 24.112C144.521 23.7573 144.918 23.496 145.422 23.328C145.935 23.16 146.519 23.076 147.172 23.076ZM144.904 25.414C144.904 25.7593 145.002 26.0487 145.198 26.282C145.394 26.5153 145.697 26.632 146.108 26.632C146.463 26.632 146.743 26.5247 146.948 26.31C147.163 26.086 147.27 25.7733 147.27 25.372C147.27 25.1387 147.233 24.91 147.158 24.686C147.083 24.462 146.957 24.2473 146.78 24.042H146.682C146.178 24.042 145.753 24.154 145.408 24.378C145.072 24.602 144.904 24.9473 144.904 25.414ZM159.175 31V23.244H160.379V29.992H166.399V23.244H167.603V31H159.175ZM163.389 21.508C163.119 21.508 162.895 21.424 162.717 21.256C162.54 21.0787 162.451 20.85 162.451 20.57C162.451 20.2993 162.54 20.0753 162.717 19.898C162.895 19.7207 163.119 19.632 163.389 19.632C163.66 19.632 163.884 19.7207 164.061 19.898C164.239 20.0753 164.327 20.2993 164.327 20.57C164.327 20.85 164.239 21.0787 164.061 21.256C163.884 21.424 163.66 21.508 163.389 21.508ZM172.326 31.168C171.831 31.168 171.379 31.0467 170.968 30.804C170.557 30.552 170.231 30.1647 169.988 29.642C169.755 29.1193 169.638 28.438 169.638 27.598C169.638 26.674 169.839 25.876 170.24 25.204C170.651 24.5227 171.22 24 171.948 23.636C172.685 23.2627 173.553 23.076 174.552 23.076C175.187 23.076 175.779 23.146 176.33 23.286C176.881 23.426 177.408 23.6453 177.912 23.944C178.267 23.664 178.654 23.4493 179.074 23.3C179.503 23.1507 179.956 23.076 180.432 23.076C181.309 23.076 182.023 23.2627 182.574 23.636C183.125 24 183.531 24.4853 183.792 25.092C184.053 25.6987 184.184 26.3613 184.184 27.08C184.184 27.724 184.119 28.298 183.988 28.802C183.867 29.2967 183.708 29.74 183.512 30.132C183.325 30.5147 183.125 30.86 182.91 31.168L181.902 30.552C182.201 30.132 182.448 29.656 182.644 29.124C182.849 28.5827 182.952 27.92 182.952 27.136C182.952 26.2213 182.723 25.4887 182.266 24.938C181.809 24.3873 181.165 24.112 180.334 24.112C179.69 24.112 179.135 24.2613 178.668 24.56C179.228 25.036 179.653 25.6053 179.942 26.268C180.241 26.9213 180.39 27.6167 180.39 28.354C180.39 29.2873 180.185 29.992 179.774 30.468C179.373 30.9347 178.822 31.168 178.122 31.168C177.581 31.168 177.137 31.0467 176.792 30.804C176.456 30.5613 176.204 30.2347 176.036 29.824C175.877 29.404 175.798 28.928 175.798 28.396C175.798 27.5933 175.919 26.8933 176.162 26.296C176.405 25.6987 176.727 25.162 177.128 24.686C176.727 24.4713 176.297 24.322 175.84 24.238C175.392 24.154 174.916 24.112 174.412 24.112C173.385 24.112 172.564 24.378 171.948 24.91C171.332 25.4327 170.949 26.1093 170.8 26.94C171.052 26.772 171.323 26.6413 171.612 26.548C171.901 26.4547 172.195 26.408 172.494 26.408C173.166 26.408 173.707 26.6133 174.118 27.024C174.538 27.4347 174.748 27.99 174.748 28.69C174.748 29.4647 174.529 30.0713 174.09 30.51C173.661 30.9487 173.073 31.168 172.326 31.168ZM176.974 28.354C176.974 28.998 177.072 29.4693 177.268 29.768C177.464 30.0667 177.735 30.216 178.08 30.216C178.369 30.216 178.593 30.1273 178.752 29.95C178.92 29.7727 179.037 29.5487 179.102 29.278C179.167 29.0073 179.2 28.732 179.2 28.452C179.2 27.7987 179.088 27.206 178.864 26.674C178.649 26.142 178.332 25.6707 177.912 25.26C177.585 25.6893 177.347 26.1653 177.198 26.688C177.049 27.2013 176.974 27.7567 176.974 28.354ZM172.298 27.388C172.009 27.388 171.733 27.4487 171.472 27.57C171.22 27.682 170.977 27.836 170.744 28.032C170.791 28.8347 170.968 29.3993 171.276 29.726C171.584 30.0527 171.957 30.216 172.396 30.216C172.769 30.216 173.063 30.0993 173.278 29.866C173.493 29.6233 173.6 29.278 173.6 28.83C173.6 28.3633 173.479 28.0087 173.236 27.766C172.993 27.514 172.681 27.388 172.298 27.388ZM186.314 31V23.244H187.518V29.992H193.538V23.244H194.742V31H186.314ZM199.633 31.168C199.073 31.168 198.569 31.0793 198.121 30.902C197.673 30.7247 197.318 30.4633 197.057 30.118C196.795 29.7727 196.665 29.3573 196.665 28.872C196.665 28.3867 196.786 27.962 197.029 27.598C197.281 27.234 197.677 26.954 198.219 26.758V23.244H205.541V24.252H202.923V26.408H203.147C203.875 26.408 204.463 26.464 204.911 26.576C205.359 26.6787 205.741 26.8513 206.059 27.094C206.301 27.2807 206.493 27.528 206.633 27.836C206.773 28.1347 206.843 28.48 206.843 28.872C206.843 29.5813 206.628 30.132 206.199 30.524C205.779 30.916 205.181 31.112 204.407 31.112C204.192 31.112 203.959 31.098 203.707 31.07C203.455 31.042 203.221 30.9953 203.007 30.93L203.273 29.992C203.581 30.0853 203.921 30.132 204.295 30.132C205.191 30.132 205.639 29.6933 205.639 28.816C205.639 28.3867 205.517 28.074 205.275 27.878C205.041 27.6727 204.743 27.542 204.379 27.486C204.015 27.4207 203.637 27.388 203.245 27.388H202.923V27.836C202.923 28.4613 202.867 28.9513 202.755 29.306C202.652 29.6607 202.503 29.9593 202.307 30.202C202.017 30.5567 201.644 30.8087 201.187 30.958C200.739 31.098 200.221 31.168 199.633 31.168ZM199.325 24.252V26.492C199.717 26.436 200.151 26.408 200.627 26.408H201.733V24.252H199.325ZM197.869 28.858C197.869 29.2873 198.046 29.614 198.401 29.838C198.755 30.0527 199.203 30.16 199.745 30.16C200.155 30.16 200.505 30.0993 200.795 29.978C201.093 29.8473 201.322 29.628 201.481 29.32C201.649 29.012 201.733 28.578 201.733 28.018V27.388H200.529C200.053 27.388 199.647 27.416 199.311 27.472C198.984 27.528 198.704 27.6213 198.471 27.752C198.069 27.9853 197.869 28.354 197.869 28.858ZM202.027 21.508C201.756 21.508 201.532 21.424 201.355 21.256C201.177 21.0787 201.089 20.85 201.089 20.57C201.089 20.2993 201.177 20.0753 201.355 19.898C201.532 19.7207 201.756 19.632 202.027 19.632C202.297 19.632 202.521 19.7207 202.699 19.898C202.876 20.0753 202.965 20.2993 202.965 20.57C202.965 20.85 202.876 21.0787 202.699 21.256C202.521 21.424 202.297 21.508 202.027 21.508ZM149.986 52.168C149.417 52.168 148.908 52.0793 148.46 51.902C148.012 51.7247 147.657 51.4633 147.396 51.118C147.135 50.7727 147.004 50.3573 147.004 49.872C147.004 49.3867 147.125 48.9667 147.368 48.612C147.62 48.248 148.017 47.9633 148.558 47.758V44.244H155.88V45.252H153.262V47.422C154.205 47.4967 154.965 47.73 155.544 48.122C156.123 48.514 156.543 49.004 156.804 49.592C157.065 50.18 157.196 50.796 157.196 51.44C157.196 52.3733 157.019 53.162 156.664 53.806C156.319 54.45 155.847 54.968 155.25 55.36C154.653 55.7613 153.981 56.0507 153.234 56.228C152.487 56.4053 151.717 56.494 150.924 56.494H150.518C149.529 56.494 148.665 56.368 147.928 56.116C147.191 55.8733 146.565 55.5373 146.052 55.108C145.548 54.688 145.142 54.2073 144.834 53.666C144.526 53.1247 144.302 52.5553 144.162 51.958C144.022 51.3607 143.952 50.768 143.952 50.18V49.886C143.952 49.1207 144.045 48.402 144.232 47.73C144.419 47.058 144.661 46.4327 144.96 45.854C145.259 45.266 145.571 44.7293 145.898 44.244L146.92 44.86C146.36 45.6533 145.926 46.4747 145.618 47.324C145.31 48.1733 145.156 49.032 145.156 49.9V50.166C145.156 50.866 145.259 51.5287 145.464 52.154C145.679 52.7887 146.005 53.3487 146.444 53.834C146.883 54.3287 147.452 54.716 148.152 54.996C148.852 55.276 149.692 55.416 150.672 55.416H150.84C152.427 55.416 153.677 55.08 154.592 54.408C155.507 53.7453 155.964 52.7513 155.964 51.426C155.964 50.502 155.712 49.7973 155.208 49.312C154.704 48.8267 154.055 48.5327 153.262 48.43V48.836C153.262 49.4613 153.206 49.9513 153.094 50.306C152.991 50.6607 152.842 50.9593 152.646 51.202C152.357 51.5567 151.983 51.8087 151.526 51.958C151.078 52.098 150.565 52.168 149.986 52.168ZM149.664 45.252V47.492C150.056 47.436 150.49 47.408 150.966 47.408H152.072V45.252H149.664ZM148.208 49.858C148.208 50.2873 148.385 50.614 148.74 50.838C149.095 51.0527 149.543 51.16 150.084 51.16C150.495 51.16 150.845 51.0993 151.134 50.978C151.433 50.8473 151.661 50.628 151.82 50.32C151.988 50.0027 152.072 49.5687 152.072 49.018V48.388H150.868C150.392 48.388 149.986 48.416 149.65 48.472C149.323 48.528 149.043 48.6213 148.81 48.752C148.409 48.9853 148.208 49.354 148.208 49.858ZM161.347 52.168C160.853 52.168 160.4 52.0467 159.989 51.804C159.579 51.552 159.252 51.1647 159.009 50.642C158.776 50.1193 158.659 49.438 158.659 48.598C158.659 47.674 158.86 46.876 159.261 46.204C159.672 45.5227 160.241 45 160.969 44.636C161.707 44.2627 162.575 44.076 163.573 44.076C164.208 44.076 164.801 44.146 165.351 44.286C165.902 44.426 166.429 44.6453 166.933 44.944C167.288 44.664 167.675 44.4493 168.095 44.3C168.525 44.1507 168.977 44.076 169.453 44.076C170.331 44.076 171.045 44.2627 171.595 44.636C172.146 45 172.552 45.4853 172.813 46.092C173.075 46.6987 173.205 47.3613 173.205 48.08C173.205 48.724 173.14 49.298 173.009 49.802C172.888 50.2967 172.729 50.74 172.533 51.132C172.347 51.5147 172.146 51.86 171.931 52.168L170.923 51.552C171.222 51.132 171.469 50.656 171.665 50.124C171.871 49.5827 171.973 48.92 171.973 48.136C171.973 47.2213 171.745 46.4887 171.287 45.938C170.83 45.3873 170.186 45.112 169.355 45.112C168.711 45.112 168.156 45.2613 167.689 45.56C168.249 46.036 168.674 46.6053 168.963 47.268C169.262 47.9213 169.411 48.6167 169.411 49.354C169.411 50.2873 169.206 50.992 168.795 51.468C168.394 51.9347 167.843 52.168 167.143 52.168C166.602 52.168 166.159 52.0467 165.813 51.804C165.477 51.5613 165.225 51.2347 165.057 50.824C164.899 50.404 164.819 49.928 164.819 49.396C164.819 48.5933 164.941 47.8933 165.183 47.296C165.426 46.6987 165.748 46.162 166.149 45.686C165.748 45.4713 165.319 45.322 164.861 45.238C164.413 45.154 163.937 45.112 163.433 45.112C162.407 45.112 161.585 45.378 160.969 45.91C160.353 46.4327 159.971 47.1093 159.821 47.94C160.073 47.772 160.344 47.6413 160.633 47.548C160.923 47.4547 161.217 47.408 161.515 47.408C162.187 47.408 162.729 47.6133 163.139 48.024C163.559 48.4347 163.769 48.99 163.769 49.69C163.769 50.4647 163.55 51.0713 163.111 51.51C162.682 51.9487 162.094 52.168 161.347 52.168ZM165.995 49.354C165.995 49.998 166.093 50.4693 166.289 50.768C166.485 51.0667 166.756 51.216 167.101 51.216C167.391 51.216 167.615 51.1273 167.773 50.95C167.941 50.7727 168.058 50.5487 168.123 50.278C168.189 50.0073 168.221 49.732 168.221 49.452C168.221 48.7987 168.109 48.206 167.885 47.674C167.671 47.142 167.353 46.6707 166.933 46.26C166.607 46.6893 166.369 47.1653 166.219 47.688C166.07 48.2013 165.995 48.7567 165.995 49.354ZM161.319 48.388C161.03 48.388 160.755 48.4487 160.493 48.57C160.241 48.682 159.999 48.836 159.765 49.032C159.812 49.8347 159.989 50.3993 160.297 50.726C160.605 51.0527 160.979 51.216 161.417 51.216C161.791 51.216 162.085 51.0993 162.299 50.866C162.514 50.6233 162.621 50.278 162.621 49.83C162.621 49.3633 162.5 49.0087 162.257 48.766C162.015 48.514 161.702 48.388 161.319 48.388ZM182.084 44.076C183.148 44.076 183.96 44.468 184.52 45.252C185.089 46.036 185.374 47.1467 185.374 48.584C185.374 49.7227 185.229 50.656 184.94 51.384C184.65 52.1027 184.258 52.6673 183.764 53.078C183.222 53.5167 182.588 53.8107 181.86 53.96C181.132 54.1093 180.357 54.184 179.536 54.184H177.884C177.492 54.184 177.188 54.212 176.974 54.268C176.759 54.324 176.572 54.4033 176.414 54.506C176.264 54.6087 176.148 54.7533 176.064 54.94C175.98 55.1267 175.938 55.374 175.938 55.682C175.938 55.962 175.952 56.214 175.98 56.438L174.832 56.494C174.804 56.326 174.78 56.1393 174.762 55.934C174.743 55.738 174.734 55.5607 174.734 55.402C174.734 54.9913 174.808 54.6413 174.958 54.352C175.107 54.072 175.298 53.8433 175.532 53.666C175.774 53.4887 176.045 53.3627 176.344 53.288C176.652 53.2133 177.039 53.176 177.506 53.176H179.228C180.096 53.176 180.838 53.1107 181.454 52.98C182.07 52.8587 182.574 52.6347 182.966 52.308C183.367 51.9813 183.661 51.5147 183.848 50.908C184.034 50.292 184.128 49.5033 184.128 48.542C184.128 47.6927 184.034 47.016 183.848 46.512C183.67 46.008 183.418 45.644 183.092 45.42C182.774 45.196 182.406 45.084 181.986 45.084C181.743 45.084 181.514 45.126 181.3 45.21C181.085 45.2847 180.898 45.4107 180.74 45.588C180.553 45.8027 180.422 46.0547 180.348 46.344C180.273 46.6333 180.236 47.03 180.236 47.534V52H179.032V47.506C179.032 47.0487 179.008 46.6613 178.962 46.344C178.915 46.0173 178.822 45.7513 178.682 45.546C178.588 45.406 178.467 45.294 178.318 45.21C178.168 45.126 177.986 45.084 177.772 45.084C177.557 45.084 177.375 45.126 177.226 45.21C177.086 45.2847 176.964 45.3873 176.862 45.518C176.712 45.7233 176.614 45.9893 176.568 46.316C176.53 46.6427 176.512 47.0113 176.512 47.422V52H175.308V47.226C175.308 46.5447 175.359 46.022 175.462 45.658C175.564 45.2847 175.76 44.9533 176.05 44.664C176.442 44.272 176.983 44.076 177.674 44.076C178.607 44.076 179.279 44.5147 179.69 45.392C179.886 45.0093 180.18 44.6967 180.572 44.454C180.973 44.202 181.477 44.076 182.084 44.076ZM189.925 52.168C189.365 52.168 188.861 52.0793 188.413 51.902C187.965 51.7247 187.611 51.4633 187.349 51.118C187.088 50.7727 186.957 50.3573 186.957 49.872C186.957 49.3867 187.079 48.962 187.321 48.598C187.573 48.234 187.97 47.954 188.511 47.758V44.244H195.833V45.252H193.215V47.408H193.439C194.167 47.408 194.755 47.464 195.203 47.576C195.651 47.6787 196.034 47.8513 196.351 48.094C196.594 48.2807 196.785 48.528 196.925 48.836C197.065 49.1347 197.135 49.48 197.135 49.872C197.135 50.5813 196.921 51.132 196.491 51.524C196.071 51.916 195.474 52.112 194.699 52.112C194.485 52.112 194.251 52.098 193.999 52.07C193.747 52.042 193.514 51.9953 193.299 51.93L193.565 50.992C193.873 51.0853 194.214 51.132 194.587 51.132C195.483 51.132 195.931 50.6933 195.931 49.816C195.931 49.3867 195.81 49.074 195.567 48.878C195.334 48.6727 195.035 48.542 194.671 48.486C194.307 48.4207 193.929 48.388 193.537 48.388H193.215V48.836C193.215 49.4613 193.159 49.9513 193.047 50.306C192.945 50.6607 192.795 50.9593 192.599 51.202C192.31 51.5567 191.937 51.8087 191.479 51.958C191.031 52.098 190.513 52.168 189.925 52.168ZM189.617 45.252V47.492C190.009 47.436 190.443 47.408 190.919 47.408H192.025V45.252H189.617ZM188.161 49.858C188.161 50.2873 188.339 50.614 188.693 50.838C189.048 51.0527 189.496 51.16 190.037 51.16C190.448 51.16 190.798 51.0993 191.087 50.978C191.386 50.8473 191.615 50.628 191.773 50.32C191.941 50.012 192.025 49.578 192.025 49.018V48.388H190.821C190.345 48.388 189.939 48.416 189.603 48.472C189.277 48.528 188.997 48.6213 188.763 48.752C188.362 48.9853 188.161 49.354 188.161 49.858ZM192.319 42.508C192.049 42.508 191.825 42.424 191.647 42.256C191.47 42.0787 191.381 41.85 191.381 41.57C191.381 41.2993 191.47 41.0753 191.647 40.898C191.825 40.7207 192.049 40.632 192.319 40.632C192.59 40.632 192.814 40.7207 192.991 40.898C193.169 41.0753 193.257 41.2993 193.257 41.57C193.257 41.85 193.169 42.0787 192.991 42.256C192.814 42.424 192.59 42.508 192.319 42.508ZM201.478 52.168C200.918 52.168 200.414 52.0793 199.966 51.902C199.518 51.7247 199.164 51.4633 198.902 51.118C198.641 50.7727 198.51 50.3573 198.51 49.872C198.51 49.3867 198.632 48.962 198.874 48.598C199.126 48.234 199.523 47.954 200.064 47.758V44.244H207.386V45.252H204.768V47.408H204.992C205.72 47.408 206.308 47.464 206.756 47.576C207.204 47.6787 207.587 47.8513 207.904 48.094C208.147 48.2807 208.338 48.528 208.478 48.836C208.618 49.1347 208.688 49.48 208.688 49.872C208.688 50.5813 208.474 51.132 208.044 51.524C207.624 51.916 207.027 52.112 206.252 52.112C206.038 52.112 205.804 52.098 205.552 52.07C205.3 52.042 205.067 51.9953 204.852 51.93L205.118 50.992C205.426 51.0853 205.767 51.132 206.14 51.132C207.036 51.132 207.484 50.6933 207.484 49.816C207.484 49.3867 207.363 49.074 207.12 48.878C206.887 48.6727 206.588 48.542 206.224 48.486C205.86 48.4207 205.482 48.388 205.09 48.388H204.768V48.836C204.768 49.4613 204.712 49.9513 204.6 50.306C204.498 50.6607 204.348 50.9593 204.152 51.202C203.863 51.5567 203.49 51.8087 203.032 51.958C202.584 52.098 202.066 52.168 201.478 52.168ZM201.17 45.252V47.492C201.562 47.436 201.996 47.408 202.472 47.408H203.578V45.252H201.17ZM199.714 49.858C199.714 50.2873 199.892 50.614 200.246 50.838C200.601 51.0527 201.049 51.16 201.59 51.16C202.001 51.16 202.351 51.0993 202.64 50.978C202.939 50.8473 203.168 50.628 203.326 50.32C203.494 50.012 203.578 49.578 203.578 49.018V48.388H202.374C201.898 48.388 201.492 48.416 201.156 48.472C200.83 48.528 200.55 48.6213 200.316 48.752C199.915 48.9853 199.714 49.354 199.714 49.858ZM212.863 52.168C212.368 52.168 211.916 52.0467 211.505 51.804C211.094 51.552 210.768 51.1647 210.525 50.642C210.292 50.1193 210.175 49.438 210.175 48.598C210.175 47.5993 210.371 46.764 210.763 46.092C211.164 45.42 211.692 44.916 212.345 44.58C212.998 44.244 213.708 44.076 214.473 44.076C215.425 44.076 216.195 44.258 216.783 44.622C217.371 44.986 217.8 45.4713 218.071 46.078C218.351 46.6753 218.491 47.3427 218.491 48.08C218.491 48.6773 218.426 49.2093 218.295 49.676C218.164 50.1427 218.006 50.5813 217.819 50.992H221.557V44.244H222.761V55.962H221.557V52H216.587L216.531 51.118C216.746 50.7913 216.918 50.39 217.049 49.914C217.189 49.4287 217.259 48.8687 217.259 48.234C217.259 47.2353 217.002 46.4653 216.489 45.924C215.976 45.3827 215.285 45.112 214.417 45.112C213.558 45.112 212.858 45.378 212.317 45.91C211.785 46.4327 211.458 47.1093 211.337 47.94C211.58 47.7813 211.846 47.6553 212.135 47.562C212.424 47.4593 212.723 47.408 213.031 47.408C213.703 47.408 214.244 47.6133 214.655 48.024C215.075 48.4347 215.285 48.99 215.285 49.69C215.285 50.4647 215.066 51.0713 214.627 51.51C214.198 51.9487 213.61 52.168 212.863 52.168ZM212.835 48.388C212.555 48.388 212.284 48.4487 212.023 48.57C211.762 48.682 211.519 48.836 211.295 49.032C211.332 49.8347 211.505 50.3993 211.813 50.726C212.121 51.0527 212.49 51.216 212.919 51.216C213.283 51.216 213.577 51.0993 213.801 50.866C214.025 50.6233 214.137 50.278 214.137 49.83C214.137 49.3633 214.016 49.0087 213.773 48.766C213.53 48.514 213.218 48.388 212.835 48.388ZM232.112 44.076C232.812 44.076 233.386 44.258 233.834 44.622C234.282 44.9767 234.614 45.476 234.828 46.12C235.043 46.7547 235.15 47.492 235.15 48.332C235.15 48.9853 235.08 49.5453 234.94 50.012C234.8 50.4787 234.576 50.8613 234.268 51.16C233.942 51.4773 233.54 51.6967 233.064 51.818C232.598 51.9393 231.963 52 231.16 52H225.224V44.244H226.428V50.992H229.592V47.03C229.592 46.4513 229.644 45.994 229.746 45.658C229.858 45.3127 230.017 45.0233 230.222 44.79C230.437 44.5567 230.694 44.3793 230.992 44.258C231.291 44.1367 231.664 44.076 232.112 44.076ZM232.084 45.084C231.926 45.084 231.772 45.112 231.622 45.168C231.473 45.2147 231.347 45.294 231.244 45.406C231.095 45.574 230.983 45.784 230.908 46.036C230.834 46.2787 230.796 46.6893 230.796 47.268V50.992H231.454C232.089 50.992 232.584 50.9033 232.938 50.726C233.293 50.5487 233.545 50.2593 233.694 49.858C233.844 49.4567 233.918 48.9247 233.918 48.262C233.918 47.6647 233.853 47.128 233.722 46.652C233.601 46.176 233.405 45.798 233.134 45.518C232.873 45.2287 232.523 45.084 232.084 45.084ZM230.012 42.508C229.742 42.508 229.518 42.424 229.34 42.256C229.163 42.0787 229.074 41.85 229.074 41.57C229.074 41.2993 229.163 41.0753 229.34 40.898C229.518 40.7207 229.742 40.632 230.012 40.632C230.283 40.632 230.507 40.7207 230.684 40.898C230.862 41.0753 230.95 41.2993 230.95 41.57C230.95 41.85 230.862 42.0787 230.684 42.256C230.507 42.424 230.283 42.508 230.012 42.508ZM238.495 41.969V45.973C238.495 46.183 238.49 46.3883 238.481 46.589C238.471 46.7897 238.46 46.9927 238.446 47.198C238.432 47.3987 238.413 47.6063 238.39 47.821C238.371 48.031 238.348 48.2573 238.32 48.5H237.48C237.452 48.2573 237.426 48.031 237.403 47.821C237.384 47.6063 237.368 47.3987 237.354 47.198C237.34 46.9927 237.328 46.7897 237.319 46.589C237.309 46.3883 237.305 46.183 237.305 45.973V41.969H238.495ZM237.004 51.23C237.004 51.1087 237.025 50.9943 237.067 50.887C237.113 50.7797 237.176 50.6863 237.256 50.607C237.335 50.5277 237.426 50.4647 237.529 50.418C237.636 50.3713 237.753 50.348 237.879 50.348C238 50.348 238.112 50.3713 238.215 50.418C238.322 50.4647 238.415 50.5277 238.495 50.607C238.574 50.6863 238.637 50.7797 238.684 50.887C238.73 50.9943 238.754 51.1087 238.754 51.23C238.754 51.356 238.73 51.4727 238.684 51.58C238.637 51.6827 238.574 51.7737 238.495 51.853C238.415 51.9323 238.322 51.993 238.215 52.035C238.112 52.0817 238 52.105 237.879 52.105C237.753 52.105 237.636 52.0817 237.529 52.035C237.426 51.993 237.335 51.9323 237.256 51.853C237.176 51.7737 237.113 51.6827 237.067 51.58C237.025 51.4727 237.004 51.356 237.004 51.23Z" fill="black"></path><defs><clipPath id="clip0"><rect width="156" height="215" fill="white" transform="translate(29 8)"></rect></clipPath></defs></svg>