<svg xmlns="http://www.w3.org/2000/svg" width="195" height="187" viewBox="0 0 195 187" fill="none"><mask id="mask0" maskUnits="userSpaceOnUse" x="0" y="0" width="195" height="187"><rect width="195" height="187" fill="white"></rect></mask><g mask="url(#mask0)"><path fill-rule="evenodd" clip-rule="evenodd" d="M0.114343 98.9772C-2.50807 70.6419 0.158109 38.3839 24.044 22.0295C47.3546 6.06887 78.5309 19.683 107.178 25.6718C137.473 32.005 175.24 30.4354 189.775 56.6761C204.503 83.2646 187.959 114.977 169.681 138.511C155.261 157.076 129.922 160.183 105.889 164.684C82.3723 169.088 57.5835 176.046 37.1217 163.335C14.4368 149.243 2.46115 124.335 0.114343 98.9772Z" fill="#D2F8FD"></path><mask id="mask1" maskUnits="userSpaceOnUse" x="-1" y="10" width="197" height="161"><path fill-rule="evenodd" clip-rule="evenodd" d="M0.617272 98.9342C-2.00514 70.599 0.66104 38.341 24.5469 21.9865C47.8576 6.02591 90.357 9.47026 119.004 15.459C149.299 21.7922 175.743 30.3924 190.278 56.6332C205.006 83.2216 188.462 114.934 170.184 138.468C155.764 157.033 130.425 160.14 106.392 164.641C82.8753 169.045 58.0864 176.003 37.6247 163.292C14.9397 149.2 2.96408 124.292 0.617272 98.9342Z" fill="#D2F8FD"></path></mask><g mask="url(#mask1)"><path d="M155.528 49.6185C155.528 49.6185 157.605 62.1616 157.511 71.2809C157.477 79.0874 155.093 83.6388 156.275 84.1599C158.922 85.0099 169.407 77.1245 169.112 76.1491C168.818 75.1737 163.917 58.1796 163.696 57.448C163.476 56.7165 160.702 46.0156 160.702 46.0156L155.528 49.6185Z" fill="#FAAF71"></path><path d="M144.259 30.9639C147.638 34.2436 152.223 39.1346 155.423 42.9887L167.029 41.799C166.851 39.2943 165.786 36.9832 163.464 35.2134C159.196 32.1273 155.672 29.1469 151.477 25.9111C149.156 24.1414 146.689 22.6709 143.995 20.8483C141.673 19.0785 138.138 18.3761 135.68 17.7068C132.252 16.5796 130.76 15.9676 129.876 16.5618C128.547 17.2528 128.947 19.7091 130.752 21.7253C133.459 24.7497 140.542 27.3562 144.259 30.9639Z" fill="#FAAF71"></path><path d="M156.804 43.7997C156.728 46.9763 156.313 49.0419 155.974 51.3544L165.675 83.0805L174.179 81.2269C170.455 66.7643 168.823 53.8208 167.841 47.1876C166.94 41.1955 165.874 33.5272 159.667 32.2465C154.92 31.1743 150.865 30.0831 146.08 28.8875C143.45 28.2755 140.897 27.9104 137.978 27.4932C135.386 27.0046 127.322 29.1573 124.919 29.286C123.573 29.4477 122.986 32.4725 126.685 34.2998C128.735 35.3013 137.55 35.2235 142.05 37.0079C146.441 38.8161 152.627 41.5498 156.804 43.7997Z" fill="#FAB67D"></path><path d="M124.06 89.6595C124.131 89.5126 124.654 84.012 132.701 82.6513C139.444 81.5751 146.266 84.5544 153.227 80.0148C153.803 79.6262 157.558 77.4938 158.992 72.32C157.947 69.6574 156.523 65.3699 155.846 63.1527C154.078 57.3633 154.263 54.17 152.315 48.5512C147.558 48.5375 140.811 49.2205 136.242 49.8227C132.798 50.3111 129.006 52.3204 125.344 52.8562C124.328 52.9463 122.731 53.0317 122.911 52.8612C122.439 52.8328 121.82 52.7049 121.31 52.5534C114.463 50.6306 115.881 47.2998 117.001 46.7927C119.568 45.7075 126.114 43.2289 128.719 42.2668C131.649 41.2336 134.216 40.1484 136.858 39.3095C141.636 37.8734 145.875 36.9491 150.724 35.3661C156.949 33.3518 160.727 40.4107 163.799 45.9157C167.798 53.3204 170.272 60.6637 173.364 68.1349C175.901 74.5448 179.524 80.7178 182.567 86.8861C184.272 90.1928 189.479 101.933 192.93 109.063C192.897 109.333 192.755 109.626 192.721 109.896C191.738 119.964 187.684 149.58 176.575 123.259C174.899 119.289 168.317 109.7 166.842 107.526C163.666 102.438 160.264 96.6105 150.395 93.9016C147.924 93.7834 145.491 93.7885 142.983 93.5471C138.586 93.1923 134.163 93.894 129.619 93.4396C126.785 93.2694 123.374 93.4877 124.06 89.6595Z" fill="#FABB87"></path><path d="M121.77 51.6918C123.512 51.0285 124.419 48.8321 123.52 47.8842C123.128 47.3979 117.008 50.4386 117.008 50.4386C117.008 50.4386 118.701 52.7856 121.77 51.6918Z" fill="#F2D2C2"></path><path d="M128.204 33.482C129.732 33.2925 130.694 31.6449 130.293 30.7262C130.211 30.4565 124.721 31.654 124.721 31.654C124.721 31.654 125.492 33.7861 128.204 33.482Z" fill="#E8BEAA"></path><path d="M132.988 20.658C134.572 21.1503 136.569 20.3141 136.019 19.3272C135.47 18.3404 130.589 17.5805 130.589 17.5805C130.589 17.5805 130.309 19.7082 132.988 20.658Z" fill="#E8BEAA"></path><path d="M129.108 89.6457C128.128 89.6084 122.878 90.3 123.321 93.9138C123.321 93.9138 125.425 94.4859 129.499 94.3336L132.48 94.1705C132.037 90.5566 129.108 89.6457 129.108 89.6457Z" fill="#F2D2C2"></path></g><path d="M83.1514 91.2703C83.1514 85.6892 78.9806 79.9486 74.9702 74.3676C71.9224 70.0622 71.4411 63.8432 71.4411 60.8135H71.762C73.5265 60.8135 74.9702 59.5378 74.9702 58.1027V55.7108C74.9702 54.1162 73.5265 53 71.762 53H61.6559H61.4955H51.3894C49.6248 53 48.1811 54.2757 48.1811 55.7108V58.1027C48.1811 59.5378 49.6248 60.8135 51.3894 60.8135H51.7102C51.7102 63.6838 51.229 70.0622 48.1811 74.3676C44.0103 80.1081 40 85.8486 40 91.2703V91.4297C40 91.4297 40 91.4297 40 91.5892V148.038C40 152.981 48.0207 158.243 61.4955 158.243C74.9702 158.243 82.9909 152.981 82.9909 148.038V91.5892C83.1514 91.4297 83.1514 91.4297 83.1514 91.2703C83.1514 91.4297 83.1514 91.4297 83.1514 91.2703Z" fill="#CAECF4"></path><path d="M44.8125 92.2266V147.878C44.8125 151.227 52.352 153.778 61.8164 153.778C71.2808 153.778 78.8203 151.067 78.8203 147.878V92.2266H44.8125Z" fill="#F2F2F2"></path><path d="M78.8203 92.2277C78.8203 93.8223 71.2808 95.098 61.8164 95.098C52.352 95.098 44.8125 93.8223 44.8125 92.2277C44.8125 90.6331 52.352 89.3574 61.8164 89.3574C71.1204 89.3574 78.8203 90.6331 78.8203 92.2277Z" fill="white"></path><path d="M74.9703 59.0595C74.9703 60.6541 73.687 61.9297 72.0828 61.9297H51.0686C49.4645 61.9297 48.1812 60.6541 48.1812 59.0595V55.8703C48.1812 54.2757 49.4645 53 51.0686 53H72.0828C73.687 53 74.9703 54.2757 74.9703 55.8703V59.0595Z" fill="#4DBFD9"></path><path d="M68.3934 82.8183C68.3934 84.4129 67.1101 85.6886 65.5059 85.6886H64.8643C63.2601 85.6886 61.9768 84.4129 61.9768 82.8183V67.3507C61.9768 65.7561 63.2601 64.4805 64.8643 64.4805H65.5059C67.1101 64.4805 68.3934 65.7561 68.3934 67.3507V82.8183Z" fill="white"></path><path d="M75.4515 139.267C75.4515 140.862 74.1682 142.137 72.5641 142.137H71.4412C69.837 142.137 68.5537 140.862 68.5537 139.267V102.273C68.5537 100.678 69.837 99.4023 71.4412 99.4023H72.5641C74.1682 99.4023 75.4515 100.678 75.4515 102.273V139.267Z" fill="white"></path><path d="M56.8433 123.482V148.039C56.8433 154.577 75.6117 159.839 98.5509 159.839C121.49 159.839 140.259 154.577 140.259 148.039V123.482H56.8433Z" fill="#ECA402"></path><path d="M140.259 123.482C140.259 130.019 121.49 135.282 98.5509 135.282C75.6117 135.282 56.8433 130.019 56.8433 123.482C56.8433 116.944 75.6117 111.682 98.5509 111.682C121.49 111.682 140.259 116.944 140.259 123.482Z" fill="#E49306"></path><path d="M92.1343 147.561V163.506C92.1343 167.652 104.165 171.161 119.084 171.161C134.002 171.161 146.033 167.812 146.033 163.506V147.561H92.1343Z" fill="#F2F2F2"></path><path d="M146.194 147.56C146.194 151.706 134.163 155.214 119.244 155.214C104.326 155.214 92.2947 151.866 92.2947 147.56C92.2947 143.414 104.326 139.906 119.244 139.906C134.163 139.906 146.194 143.255 146.194 147.56Z" fill="#E6E6E6"></path><path d="M18.4824 50.9892C18.0458 51.044 17.6442 51.0241 17.2776 50.9296C16.911 50.8352 16.609 50.6661 16.3715 50.4224C16.134 50.1787 15.9915 49.8677 15.9441 49.4893C15.8967 49.111 15.9497 48.768 16.1033 48.4605C16.2642 48.1521 16.5461 47.8951 16.949 47.6893L16.6055 44.9498L22.3138 44.2341L22.4123 45.0199L20.3713 45.2758L20.5821 46.9567L20.7567 46.9348C21.3242 46.8636 21.7881 46.8498 22.1483 46.8933C22.5076 46.9296 22.8228 47.0268 23.094 47.1849C23.3014 47.3068 23.4747 47.4809 23.614 47.7073C23.7523 47.9265 23.8407 48.1888 23.879 48.4945C23.9483 49.0475 23.8348 49.4977 23.5384 49.8453C23.2493 50.192 22.8027 50.4032 22.1988 50.4789C22.0314 50.4999 21.8482 50.5118 21.649 50.5146C21.4498 50.5174 21.2633 50.5038 21.0896 50.4739L21.2052 49.7166C21.4545 49.7592 21.7246 49.7623 22.0157 49.7258C22.7142 49.6382 23.0206 49.2525 22.9349 48.5685C22.8929 48.2338 22.7677 48.0019 22.5594 47.8728C22.3574 47.7355 22.1118 47.6628 21.8225 47.6548C21.5324 47.6394 21.2345 47.6509 20.9289 47.6892L20.6778 47.7207L20.7216 48.07C20.7828 48.5575 20.787 48.945 20.7344 49.2324C20.689 49.5189 20.6018 49.7664 20.4727 49.9747C20.2818 50.2795 20.0154 50.5125 19.6734 50.6736C19.3378 50.8265 18.9408 50.9317 18.4824 50.9892ZM17.5663 45.6275L17.7852 47.3739C18.0854 47.2919 18.421 47.2276 18.7921 47.1811L19.6543 47.073L19.4436 45.3922L17.5663 45.6275ZM16.8814 49.3607C16.9234 49.6955 17.0935 49.9328 17.3919 50.0728C17.6894 50.2054 18.0492 50.2453 18.4712 50.1924C18.7914 50.1523 19.0583 50.0708 19.272 49.9479C19.4921 49.8168 19.6489 49.6235 19.7425 49.3679C19.8434 49.1113 19.8664 48.7647 19.8117 48.3282L19.7501 47.837L18.8115 47.9547C18.4404 48.0012 18.1266 48.0627 17.8701 48.1392C17.6209 48.2148 17.4117 48.315 17.2426 48.4396C16.9525 48.6608 16.8321 48.9678 16.8814 49.3607ZM25.5844 49.9657L24.8263 43.9191L25.7649 43.8014L26.4245 49.0622L31.9036 48.3752L32.0022 49.161L25.5844 49.9657ZM27.4834 42.2112C27.2724 42.2377 27.0896 42.1941 26.9349 42.0804C26.7793 41.9595 26.6879 41.7899 26.6605 41.5716C26.634 41.3606 26.6813 41.1773 26.8022 41.0217C26.9231 40.8661 27.0891 40.7751 27.3001 40.7487C27.5111 40.7222 27.6944 40.7694 27.85 40.8904C28.0056 41.0113 28.0966 41.1772 28.123 41.3883C28.1504 41.6065 28.1036 41.7935 27.9827 41.9491C27.8609 42.0974 27.6945 42.1848 27.4834 42.2112ZM36.0663 48.6515L35.3082 42.6048L36.2577 42.4858L36.6258 45.4218C36.7459 45.318 36.9027 45.2134 37.0964 45.1078C37.2974 45.0013 37.5289 44.9316 37.7908 44.8988C38.3802 44.8249 38.8887 44.9902 39.3164 45.3948C39.7431 45.7922 40.0176 46.4784 40.1399 47.4534C40.232 48.1883 40.2223 48.8177 40.1106 49.3417C40.0062 49.8648 39.8162 50.2951 39.5408 50.6326C39.2735 50.9765 38.9407 51.24 38.5423 51.423C38.1522 51.6123 37.7134 51.7375 37.2258 51.7987C36.4327 51.8981 35.7177 51.766 35.0809 51.4024C34.4513 51.0379 33.9281 50.4605 33.5112 49.6703C33.1016 48.8791 32.8224 47.8905 32.6737 46.7044L32.6354 46.3988C32.4976 45.3001 32.5118 44.3227 32.6779 43.4667C32.8514 42.6098 33.1444 41.8821 33.5572 41.2834C33.969 40.6775 34.4782 40.1997 35.0847 39.8502C35.6977 39.4925 36.3752 39.2671 37.1174 39.1741C37.7141 39.0993 38.2403 39.1109 38.696 39.209C39.159 39.3061 39.5679 39.4729 39.9228 39.7092C40.485 40.0674 40.9068 40.5725 41.1881 41.2246C41.4685 41.8694 41.6739 42.712 41.8044 43.7526L42.3203 47.8673L41.3817 47.985L40.9246 44.3396C40.848 43.7284 40.7472 43.1608 40.6224 42.6369C40.4967 42.1058 40.3201 41.6401 40.0925 41.24C39.865 40.8399 39.5602 40.5307 39.178 40.3126C38.9306 40.1662 38.6408 40.0658 38.3088 40.0114C37.9832 39.9487 37.6093 39.9439 37.1873 39.9968C36.6416 40.0652 36.1241 40.241 35.6348 40.524C35.1447 40.7998 34.7214 41.1965 34.365 41.7142C34.0159 42.231 33.7647 42.8796 33.6113 43.6601C33.4651 44.4397 33.4586 45.3607 33.5918 46.423C33.8062 48.133 34.2174 49.3489 34.8252 50.0709C35.4404 50.792 36.1955 51.0964 37.0905 50.9842C37.9491 50.8765 38.5424 50.5398 38.8706 49.9739C39.206 49.4071 39.3131 48.6398 39.1917 47.672C39.0914 46.8716 38.9165 46.3319 38.6672 46.0527C38.4179 45.7736 38.104 45.6577 37.7256 45.7052C37.5219 45.7307 37.3377 45.7944 37.1731 45.8964C37.0085 45.9983 36.8599 46.1093 36.7271 46.2295L37.0159 48.5324L36.0663 48.6515ZM44.2265 47.6283L43.4684 41.5817L44.407 41.464L45.0667 46.7248L49.7599 46.1363L49.1003 40.8755L50.0389 40.7578L50.7971 46.8045L44.2265 47.6283ZM46.584 39.8164C46.373 39.8428 46.1901 39.7992 46.0354 39.6856C45.8799 39.5647 45.7884 39.3951 45.761 39.1768C45.7346 38.9658 45.7818 38.7825 45.9027 38.6269C46.0236 38.4713 46.1896 38.3803 46.4006 38.3538C46.6116 38.3274 46.7949 38.3746 46.9505 38.4955C47.1061 38.6164 47.1971 38.7824 47.2236 38.9934C47.2509 39.2117 47.2042 39.3986 47.0832 39.5542C46.9614 39.7025 46.795 39.7899 46.584 39.8164ZM52.7215 46.5632L51.9634 40.5166L52.9021 40.3989L53.5617 45.6597L58.2549 45.0712L57.5953 39.8104L58.534 39.6927L59.2921 45.7394L52.7215 46.5632ZM64.1307 45.1327L63.3726 39.0861L64.3222 38.967L64.6903 41.903C64.8103 41.7993 64.9672 41.6946 65.1609 41.589C65.3619 41.4825 65.5933 41.4129 65.8553 41.38C66.4447 41.3061 66.9532 41.4715 67.3808 41.8761C67.8076 42.2734 68.0821 42.9596 68.2043 43.9346C68.2965 44.6695 68.2867 45.299 68.175 45.8229C68.0706 46.346 67.8807 46.7763 67.6052 47.1138C67.3379 47.4578 67.0051 47.7212 66.6068 47.9042C66.2166 48.0935 65.7778 48.2188 65.2903 48.2799C64.4972 48.3793 63.7822 48.2473 63.1453 47.8837C62.5158 47.5192 61.9925 46.9418 61.5756 46.1515C61.166 45.3603 60.8869 44.3717 60.7382 43.1856L60.6998 42.88C60.5621 41.7813 60.5763 40.8039 60.7424 39.948C60.9158 39.0911 61.2089 38.3633 61.6216 37.7646C62.0334 37.1587 62.5426 36.681 63.1492 36.3314C63.7621 35.9737 64.4397 35.7484 65.1818 35.6553C65.7785 35.5805 66.3047 35.5921 66.7604 35.6902C67.2235 35.7873 67.6324 35.9541 67.9872 36.1905C68.5495 36.5486 68.9713 37.0537 69.2526 37.7058C69.533 38.3506 69.7384 39.1933 69.8689 40.2338L70.3848 44.3486L69.4461 44.4663L68.989 40.8208C68.9124 40.2096 68.8117 39.642 68.6869 39.1182C68.5612 38.587 68.3845 38.1214 68.157 37.7212C67.9294 37.3211 67.6246 37.012 67.2425 36.7938C66.995 36.6474 66.7053 36.547 66.3733 36.4926C66.0476 36.43 65.6738 36.4251 65.2517 36.478C64.706 36.5464 64.1885 36.7222 63.6993 37.0052C63.2091 37.281 62.7858 37.6778 62.4295 38.1955C62.0804 38.7122 61.8291 39.3609 61.6757 40.1414C61.5296 40.9209 61.5231 41.8419 61.6563 42.9042C61.8707 44.6142 62.2818 45.8301 62.8897 46.5521C63.5048 47.2732 64.2599 47.5776 65.1549 47.4654C66.0135 47.3578 66.6069 47.021 66.935 46.4551C67.2705 45.8883 67.3775 45.121 67.2562 44.1533C67.1558 43.3529 66.981 42.8131 66.7316 42.5339C66.4823 42.2548 66.1685 42.1389 65.7901 42.1864C65.5863 42.2119 65.4022 42.2757 65.2376 42.3776C65.073 42.4795 64.9243 42.5906 64.7916 42.7107L65.0803 45.0136L64.1307 45.1327ZM74.1956 44.0038C73.759 44.0585 73.3574 44.0387 72.9908 43.9442C72.6242 43.8497 72.3222 43.6807 72.0847 43.437C71.8472 43.1933 71.7047 42.8823 71.6573 42.5039C71.6099 42.1256 71.6629 41.7826 71.8165 41.4751C71.9774 41.1667 72.2593 40.9096 72.6622 40.7039L72.3187 37.9644L78.027 37.2487L78.1255 38.0345L76.0845 38.2904L76.2953 39.9712C76.8937 39.911 77.4327 39.9358 77.9121 40.0457C78.3978 40.1474 78.7945 40.3637 79.1021 40.6947C79.4096 41.0257 79.6013 41.4931 79.677 42.0971C79.7381 42.5846 79.6983 43.0034 79.5574 43.3537C79.4175 43.7112 79.1956 44.0347 78.8919 44.324C78.5673 44.6234 78.1563 44.8523 77.6588 45.0108C77.1695 45.1756 76.5319 45.3073 75.7461 45.4058L74.5127 45.5604C74.2071 45.5987 73.9734 45.6502 73.8115 45.7149C73.6496 45.7795 73.5119 45.8596 73.3982 45.9552C73.2918 46.0498 73.215 46.174 73.1677 46.3277C73.1205 46.4815 73.1119 46.6784 73.142 46.9185C73.1694 47.1368 73.205 47.3319 73.2487 47.5038L72.3592 47.6597C72.3209 47.5314 72.2845 47.3882 72.2499 47.2299C72.2161 47.0789 72.1915 46.9416 72.176 46.8179C72.1359 46.4977 72.1599 46.2176 72.248 45.9774C72.3371 45.7445 72.4639 45.5476 72.6285 45.3865C72.8003 45.2245 72.999 45.0998 73.2246 45.0124C73.4574 44.9241 73.7557 44.8571 74.1195 44.8115L75.3092 44.6624C75.9568 44.5812 76.4843 44.4855 76.8918 44.3753C77.3001 44.2723 77.6244 44.1467 77.8644 43.9983C78.1054 43.8572 78.2982 43.6853 78.4427 43.4824C78.7009 43.1248 78.7963 42.6768 78.7288 42.1383C78.6749 41.709 78.5316 41.3907 78.2986 41.1834C78.0648 40.9689 77.7782 40.8348 77.4389 40.7813C77.0996 40.7277 76.7508 40.716 76.3924 40.7462L76.4348 41.0845C76.496 41.572 76.5002 41.9595 76.4476 42.247C76.4022 42.5335 76.315 42.781 76.1859 42.9893C75.995 43.2941 75.7286 43.527 75.3866 43.6882C75.051 43.8411 74.654 43.9463 74.1956 44.0038ZM73.2795 38.6421L73.4984 40.3884C73.7986 40.3065 74.1342 40.2422 74.5053 40.1957L75.3675 40.0876L75.1568 38.4067L73.2795 38.6421ZM72.5946 42.3753C72.6366 42.71 72.8067 42.9474 73.1051 43.0873C73.4026 43.22 73.7624 43.2599 74.1844 43.207C74.5046 43.1669 74.7715 43.0853 74.9852 42.9625C75.2053 42.8314 75.3621 42.6381 75.4557 42.3824C75.5557 42.1186 75.5787 41.772 75.5249 41.3427L75.4633 40.8516L74.5247 40.9693C74.1536 41.0158 73.8398 41.0773 73.5833 41.1538C73.3341 41.2294 73.1249 41.3295 72.9558 41.4542C72.6657 41.6754 72.5453 41.9824 72.5946 42.3753ZM75.1505 36.2346C74.9395 36.2611 74.7566 36.2175 74.602 36.1039C74.4464 35.9829 74.3549 35.8133 74.3275 35.5951C74.3011 35.384 74.3483 35.2007 74.4692 35.0452C74.5901 34.8896 74.7561 34.7985 74.9671 34.7721C75.1781 34.7456 75.3614 34.7929 75.517 34.9138C75.6726 35.0347 75.7636 35.2007 75.7901 35.4117C75.8174 35.63 75.7707 35.8169 75.6498 35.9725C75.5279 36.1208 75.3615 36.2082 75.1505 36.2346ZM83.2022 42.8745C82.7657 42.9293 82.3641 42.9094 81.9975 42.8149C81.6309 42.7205 81.3288 42.5514 81.0913 42.3077C80.8538 42.0641 80.7114 41.753 80.6639 41.3747C80.6165 40.9963 80.6696 40.6533 80.8232 40.3459C80.9841 40.0374 81.2659 39.7804 81.6688 39.5747L81.3253 36.8351L87.0336 36.1194L87.1322 36.9052L85.0911 37.1611L85.3019 38.842C85.9004 38.7817 86.4393 38.8065 86.9187 38.9164C87.4045 39.0181 87.8011 39.2344 88.1087 39.5654C88.4163 39.8964 88.6079 40.3638 88.6836 40.9678C88.7447 41.4553 88.7049 41.8742 88.564 42.2244C88.4241 42.5819 88.2023 42.9054 87.8986 43.1947C87.574 43.4941 87.1629 43.723 86.6654 43.8815C86.1761 44.0463 85.5386 44.178 84.7527 44.2765L83.5194 44.4312C83.2138 44.4695 82.98 44.521 82.8181 44.5856C82.6563 44.6502 82.5185 44.7303 82.4048 44.8259C82.2984 44.9205 82.2216 45.0447 82.1744 45.1985C82.1271 45.3522 82.1186 45.5491 82.1487 45.7892C82.176 46.0075 82.2116 46.2026 82.2553 46.3745L81.3658 46.5304C81.3275 46.4022 81.2911 46.2589 81.2565 46.1007C81.2228 45.9497 81.1982 45.8123 81.1827 45.6886C81.1425 45.3685 81.1665 45.0883 81.2547 44.8481C81.3437 44.6153 81.4705 44.4183 81.6351 44.2572C81.8069 44.0953 82.0056 43.9706 82.2312 43.8832C82.464 43.7948 82.7623 43.7279 83.1261 43.6823L84.3158 43.5331C84.9634 43.4519 85.491 43.3562 85.8984 43.246C86.3068 43.143 86.631 43.0174 86.8711 42.869C87.1121 42.728 87.3048 42.556 87.4494 42.3531C87.7076 41.9955 87.8029 41.5475 87.7354 41.0091C87.6816 40.5798 87.5382 40.2615 87.3053 40.0542C87.0714 39.8396 86.7848 39.7055 86.4455 39.652C86.1062 39.5985 85.7574 39.5868 85.399 39.6169L85.4415 39.9553C85.5026 40.4428 85.5068 40.8303 85.4542 41.1177C85.4088 41.4043 85.3216 41.6517 85.1925 41.86C85.0016 42.1648 84.7352 42.3978 84.3932 42.5589C84.0577 42.7118 83.6607 42.817 83.2022 42.8745ZM82.2861 37.5128L82.5051 39.2592C82.8052 39.1772 83.1408 39.1129 83.5119 39.0664L84.3741 38.9583L84.1634 37.2775L82.2861 37.5128ZM81.6012 41.2461C81.6432 41.5808 81.8134 41.8181 82.1118 41.9581C82.4092 42.0908 82.769 42.1306 83.191 42.0777C83.5112 42.0376 83.7781 41.9561 83.9918 41.8332C84.2119 41.7021 84.3687 41.5088 84.4623 41.2532C84.5623 40.9893 84.5853 40.6428 84.5315 40.2135L84.4699 39.7223L83.5313 39.84C83.1602 39.8865 82.8464 39.9481 82.5899 40.0246C82.3407 40.1001 82.1316 40.2003 81.9624 40.325C81.6724 40.5461 81.552 40.8531 81.6012 41.2461ZM92.0779 41.7617C91.6923 41.81 91.3275 41.7597 90.9836 41.6106C90.6388 41.4543 90.3463 41.1843 90.106 40.8005C89.873 40.4159 89.7155 39.8961 89.6333 39.2412C89.5357 38.4626 89.6069 37.7923 89.8468 37.23C90.094 36.6669 90.4558 36.2224 90.9323 35.8966C91.4088 35.5708 91.9454 35.3705 92.5421 35.2957C93.2843 35.2026 93.9024 35.2693 94.3964 35.4956C94.8904 35.7219 95.2725 36.0583 95.5428 36.5048C95.8195 36.9431 95.9939 37.4497 96.066 38.0245C96.1243 38.4902 96.1254 38.9113 96.0692 39.2879C96.0129 39.6645 95.9321 40.022 95.8267 40.3604L98.7409 39.995L98.0813 34.7342L99.0199 34.6165L100.165 43.752L99.2267 43.8697L98.8394 40.7809L94.9648 41.2667L94.8349 40.5845C94.9703 40.3089 95.0657 39.9791 95.121 39.5953C95.1827 39.2032 95.1826 38.7598 95.1205 38.265C95.0229 37.4864 94.7475 36.9112 94.2944 36.5394C93.8413 36.1675 93.2764 36.024 92.5997 36.1088C91.9303 36.1928 91.4105 36.4686 91.0405 36.9362C90.6769 37.3957 90.4883 37.9552 90.4749 38.6146C90.6486 38.4672 90.8437 38.343 91.0601 38.242C91.2756 38.1336 91.5035 38.0644 91.7436 38.0343C92.2675 37.9686 92.7096 38.0758 93.0699 38.3558C93.4375 38.6349 93.6555 39.0473 93.7239 39.5931C93.7996 40.197 93.6879 40.6914 93.3888 41.0763C93.097 41.4602 92.66 41.6887 92.0779 41.7617ZM91.6866 38.8175C91.4683 38.8449 91.2632 38.9186 91.0713 39.0387C90.8785 39.1516 90.7044 39.2954 90.5489 39.4701C90.6565 40.0922 90.8463 40.5155 91.1184 40.7401C91.3904 40.9647 91.6938 41.056 92.0285 41.014C92.3123 40.9784 92.5301 40.8587 92.6819 40.6549C92.8328 40.4439 92.8864 40.1637 92.8426 39.8144C92.797 39.4506 92.6677 39.186 92.4548 39.0205C92.241 38.8477 91.9849 38.7801 91.6866 38.8175ZM106.294 33.5715C106.84 33.5031 107.305 33.5888 107.69 33.8288C108.074 34.0615 108.381 34.4184 108.611 34.8995C108.84 35.3733 108.996 35.9377 109.078 36.5925C109.142 37.1019 109.142 37.5453 109.079 37.9228C109.015 38.3003 108.878 38.6205 108.667 38.8835C108.443 39.1628 108.152 39.373 107.793 39.5142C107.441 39.6544 106.952 39.7637 106.326 39.8422L101.698 40.4224L100.94 34.3757L101.879 34.2581L102.539 39.5189L105.005 39.2096L104.618 36.1208C104.561 35.6696 104.557 35.3081 104.604 35.0361C104.657 34.7559 104.753 34.5148 104.89 34.3129C105.035 34.11 105.217 33.9466 105.438 33.8228C105.659 33.6991 105.945 33.6153 106.294 33.5715ZM106.371 34.3601C106.247 34.3756 106.129 34.4125 106.019 34.4707C105.907 34.5217 105.816 34.5959 105.747 34.6932C105.647 34.8388 105.58 35.0134 105.547 35.2172C105.512 35.4137 105.523 35.7375 105.58 36.1886L105.944 39.0919L106.457 39.0276C106.952 38.9655 107.329 38.8481 107.588 38.6751C107.847 38.5022 108.015 38.252 108.092 37.9245C108.17 37.5971 108.176 37.175 108.111 36.6584C108.053 36.1927 107.949 35.7807 107.801 35.4224C107.66 35.0631 107.47 34.7876 107.232 34.5958C107 34.3958 106.713 34.3172 106.371 34.3601ZM104.503 32.5543C104.292 32.5808 104.11 32.5372 103.955 32.4235C103.799 32.3026 103.708 32.133 103.68 31.9147C103.654 31.7037 103.701 31.5204 103.822 31.3648C103.943 31.2092 104.109 31.1182 104.32 31.0918C104.531 31.0653 104.714 31.1125 104.87 31.2335C105.025 31.3544 105.116 31.5203 105.143 31.7314C105.17 31.9496 105.124 32.1366 105.003 32.2922C104.881 32.4405 104.714 32.5279 104.503 32.5543ZM111.064 31.3049L111.455 34.4265C111.476 34.5902 111.492 34.7508 111.504 34.9081C111.517 35.0655 111.528 35.2249 111.537 35.3863C111.545 35.5441 111.551 35.7079 111.554 35.8775C111.56 36.043 111.564 36.2218 111.566 36.4137L110.911 36.4958C110.865 36.3093 110.823 36.1354 110.784 35.974C110.749 35.8084 110.716 35.6481 110.685 35.4931C110.654 35.3343 110.625 35.1772 110.599 35.0217C110.572 34.8662 110.548 34.7065 110.527 34.5428L110.136 31.4213L111.064 31.3049ZM110.807 38.6707C110.795 38.5761 110.8 38.4849 110.822 38.3971C110.848 38.3089 110.888 38.2299 110.942 38.1603C110.996 38.0907 111.061 38.0327 111.137 37.9863C111.216 37.9394 111.304 37.9098 111.403 37.8975C111.497 37.8857 111.587 37.8929 111.671 37.9192C111.76 37.9451 111.839 37.9851 111.908 38.0392C111.978 38.0933 112.036 38.1599 112.083 38.239C112.13 38.3182 112.159 38.405 112.171 38.4996C112.183 38.5978 112.176 38.6911 112.151 38.7793C112.124 38.8639 112.084 38.941 112.03 39.0106C111.976 39.0802 111.909 39.1366 111.829 39.1799C111.754 39.2263 111.669 39.2554 111.574 39.2673C111.476 39.2796 111.383 39.2728 111.295 39.2469C111.21 39.2242 111.134 39.1858 111.064 39.1317C110.994 39.0776 110.936 39.0128 110.89 38.9374C110.847 38.8578 110.819 38.7689 110.807 38.6707Z" fill="#F7B149"></path></g><g clip-path="url(#clip0)"><path d="M34.6762 120.134L41.8484 146.993C42.287 148.636 41.2956 150.349 39.6531 150.788C38.0107 151.226 36.3935 150.209 35.9549 148.567L28.7827 121.708C28.3441 120.065 29.3355 118.352 30.8814 117.939C31.6543 117.733 32.5046 117.816 33.2391 118.241C33.8769 118.692 34.4698 119.361 34.6762 120.134Z" fill="#EA7D23"></path><path d="M14.0618 115.807L16.2031 123.826C17.0545 127.014 20.3855 129.023 23.6704 128.145L42.4136 123.14C45.6019 122.289 47.6105 118.958 46.7333 115.673L44.592 107.654L14.0618 115.807Z" fill="#FFCC99"></path><path d="M35.9147 124.772L30.0212 126.346L30.5888 128.471L36.4823 126.897L35.9147 124.772Z" fill="#CE571D"></path><path d="M37.4263 81.2075C35.7752 75.0241 29.4097 71.3417 23.2263 72.9929L15.2073 75.1342C9.02396 76.7854 5.34157 83.1509 6.99273 89.3343L15.2227 120.154C15.5581 121.41 16.9047 122.189 18.1607 121.854L18.7403 121.699C19.4166 121.519 20.1511 121.943 20.3317 122.62L20.8477 124.552C21.0799 125.422 21.8918 126.136 22.8387 126.194C24.1721 126.148 25.0735 124.873 24.7639 123.713L23.8867 120.428L27.7513 119.396L28.0867 120.652C28.3705 121.715 29.4722 122.352 30.535 122.069L30.6316 122.043C31.6944 121.759 32.3317 120.657 32.0479 119.595C31.8673 118.918 32.2922 118.184 32.9685 118.003L44.1758 115.01C45.4318 114.675 46.2108 113.329 45.8754 112.073L37.6196 81.1559L37.4263 81.2075Z" fill="#801600"></path><path d="M12.5125 87.1368C12.2226 87.2142 12.0294 87.2658 11.7138 87.2465C10.6186 87.0215 9.72934 86.0169 9.92862 84.8251C10.359 81.3981 12.7865 78.4728 16.168 77.5698C17.3274 77.2602 18.4291 77.8975 18.7387 79.0569C19.0483 80.2163 18.411 81.318 17.2516 81.6276C15.6091 82.0662 14.3471 83.5417 14.0836 85.2682C13.9293 86.2409 13.2854 86.9304 12.5125 87.1368Z" fill="#AF3F27"></path><path d="M16.6666 104.244C15.5072 104.553 14.4055 103.916 14.0959 102.757L11.4644 92.902C11.1548 91.7426 11.7921 90.6409 12.9515 90.3313C14.1109 90.0217 15.2126 90.659 15.5222 91.8184L18.1537 101.673C18.4375 102.736 17.7294 103.96 16.6666 104.244Z" fill="#AF3F27"></path><path d="M24.6903 116.074C25.7531 115.79 26.8548 116.427 27.1386 117.49L29.0994 124.833L25.2348 125.865L23.274 118.522C23.0869 117.434 23.6276 116.358 24.6903 116.074Z" fill="#FFCC99"></path><path d="M21.6293 92.9825C22.2414 93.3366 22.5894 93.8647 22.377 94.2319C22.1645 94.5992 21.5332 94.5607 20.9212 94.2066C20.3091 93.8526 19.9611 93.3245 20.1735 92.9572C20.386 92.59 21.0173 92.6284 21.6293 92.9825Z" fill="#FF9545"></path><path d="M21.1489 82.655C21.761 83.0091 22.109 83.5372 21.8965 83.9044C21.6841 84.2716 21.0528 84.2332 20.4407 83.8791C19.8287 83.525 19.4806 82.997 19.6931 82.6297C19.9055 82.2625 20.511 82.2043 21.1489 82.655Z" fill="#FF9545"></path><path d="M25.318 105.244C25.9301 105.598 26.2781 106.126 26.0657 106.494C25.8533 106.861 25.222 106.822 24.6099 106.468C23.9978 106.114 23.6498 105.586 23.8622 105.219C24.0747 104.852 24.706 104.89 25.318 105.244Z" fill="#FF9545"></path><path d="M35.4445 87.7403C36.0566 88.0944 36.4046 88.6225 36.1922 88.9897C35.9797 89.357 35.3484 89.3185 34.7364 88.9645C34.1243 88.6104 33.7763 88.0823 33.9887 87.7151C34.1045 87.3736 34.7358 87.412 35.4445 87.7403Z" fill="#FF9545"></path><path d="M18.8403 112.772C19.4523 113.126 19.8004 113.654 19.5879 114.021C19.3755 114.388 18.7442 114.35 18.1321 113.996C17.52 113.642 17.172 113.114 17.3845 112.746C17.5969 112.379 18.2282 112.417 18.8403 112.772Z" fill="#FF9545"></path><path d="M10.13 89.8412C9.77592 90.4533 9.24783 90.8013 8.88059 90.5889C8.51335 90.3764 8.55178 89.7451 8.90586 89.1331C9.25993 88.521 9.78802 88.173 10.1553 88.3854C10.4259 88.6237 10.4841 89.2292 10.13 89.8412Z" fill="#FF9545"></path><path d="M29.2642 78.9365C28.9101 79.5486 28.2854 79.9224 27.9182 79.71C27.5509 79.4975 27.5894 78.8662 27.9435 78.2542C28.2975 77.6421 28.8256 77.2941 29.1929 77.5065C29.6309 77.5966 29.6183 78.3245 29.2642 78.9365Z" fill="#FF9545"></path><path d="M32.4012 97.6615C32.0472 98.2736 31.5191 98.6216 31.1518 98.4092C30.7846 98.1967 30.823 97.5655 31.1771 96.9534C31.5312 96.3413 32.0593 95.9933 32.4265 96.2057C32.7679 96.3216 32.7553 97.0495 32.4012 97.6615Z" fill="#FF9545"></path><path d="M40.217 104.061C40.829 104.415 41.1771 104.943 40.9646 105.31C40.7522 105.677 40.1209 105.639 39.5088 105.285C38.8968 104.931 38.5487 104.403 38.7612 104.035C38.9736 103.668 39.6049 103.707 40.217 104.061Z" fill="#FF9545"></path><path d="M33.9 111.027C33.5459 111.639 33.0179 111.987 32.6506 111.774C32.2834 111.562 32.3218 110.931 32.6759 110.319C33.03 109.707 33.558 109.359 33.9253 109.571C34.1701 109.713 34.2541 110.415 33.9 111.027Z" fill="#FF9545"></path></g><path d="M62.0388 140.408V161.935H16V153.164C16.4812 153.324 16.9625 153.324 17.4437 153.324C19.8499 153.324 21.6145 152.048 21.6145 150.294C21.6145 148.699 19.6895 147.264 17.4437 147.264C16.9625 147.264 16.4812 147.264 16 147.424V140.248H62.0388V140.408Z" fill="#FFE167"></path><path d="M16 140.408L42.6287 131C42.6287 131 58.5097 131.797 61.8784 140.408H16Z" fill="#F5B400"></path><path d="M33.8058 147.265C33.8058 149.338 32.2017 150.933 30.1163 150.933C28.0309 150.933 26.4268 149.338 26.4268 147.265C26.4268 145.192 28.0309 143.598 30.1163 143.598C32.2017 143.598 33.8058 145.192 33.8058 147.265Z" fill="#E49306"></path><path d="M43.9124 151.89C43.9124 152.687 43.2707 153.484 42.3082 153.484C41.5062 153.484 40.7041 152.846 40.7041 151.89C40.7041 151.092 41.3458 150.295 42.3082 150.295C43.1103 150.295 43.9124 151.092 43.9124 151.89Z" fill="#E49306"></path><path d="M35.2496 157.47C35.2496 158.586 34.4475 159.384 33.3246 159.384C32.2017 159.384 31.3997 158.586 31.3997 157.47C31.3997 156.354 32.2017 155.557 33.3246 155.557C34.4475 155.557 35.2496 156.354 35.2496 157.47Z" fill="#E49306"></path><path d="M57.2267 147.425C57.2267 149.498 55.4622 151.252 53.3768 151.252C51.2914 151.252 49.5269 149.498 49.5269 147.425C49.5269 145.352 51.2914 143.598 53.3768 143.598C55.4622 143.598 57.2267 145.352 57.2267 147.425Z" fill="#E49306"></path><path d="M55.6226 157.789C55.6226 159.384 54.3393 160.819 52.5747 160.819C50.9706 160.819 49.5269 159.544 49.5269 157.789C49.5269 156.195 50.8102 154.76 52.5747 154.76C54.1789 154.76 55.6226 156.035 55.6226 157.789Z" fill="#E49306"></path><path d="M23.3789 158.267C23.3789 159.224 22.5769 159.862 21.7748 159.862C20.8123 159.862 20.1707 159.065 20.1707 158.267C20.1707 157.311 20.9727 156.673 21.7748 156.673C22.5769 156.513 23.3789 157.311 23.3789 158.267Z" fill="#E49306"></path><defs><clipPath id="clip0"><rect width="31.5" height="79.4" fill="white" transform="translate(4 78.127) rotate(-14.951)"></rect></clipPath></defs></svg>