<svg width="144" height="144" viewBox="0 0 144 144" fill="none" xmlns="http://www.w3.org/2000/svg">
<mask id="mask0" mask-type="alpha" maskUnits="userSpaceOnUse" x="0" y="0" width="144" height="144">
<path d="M72 144C111.765 144 144 111.765 144 72C144 32.2355 111.765 0 72 0C32.2355 0 0 32.2355 0 72C0 111.765 32.2355 144 72 144Z" fill="#D1C9BD"/>
</mask>
<g mask="url(#mask0)">
<path d="M151.076 211.041C122.696 168.097 164.523 152.484 141.851 47.882C119.185 -56.7197 16.852 -55.3909 16.852 -55.3909C-91.2306 -65.6752 -136.479 57.1767 -124.586 93.4765C-112.694 129.776 -101.375 174.174 -130.501 205.04C-141.316 216.501 -146.568 228.225 -147.984 240.067C-147.984 240.067 -148.523 249.867 -143.306 263.099C-110.406 298.908 -65.7872 323.747 -15.5431 331.512C-4.47293 332.474 7.52319 333 20.5213 333C31.5085 333 41.7356 332.516 51.2441 331.609C89.1535 325.872 123.87 310.417 152.81 287.862C154.614 285.779 156.279 283.675 157.827 281.557C167.578 268.179 169.713 250.109 163.473 234.509C160.363 226.751 156.252 218.875 151.076 211.041Z" fill="#98441D"/>
<path d="M15.55 204.908C37.3576 206.653 94.2119 183.663 102.787 130.712C107.722 100.27 106.073 68.5218 103.783 47.034C101.284 23.6206 90.3001 1.90335 72.7523 -13.8145C56.8473 -28.0656 34.0374 -40.6204 4.4617 -37.5269C-58.8242 -30.9088 -87.0704 45.3725 -79.9149 102.502C-72.7594 159.624 -35.5827 200.82 15.55 204.908Z" fill="#FDBC98"/>
<path d="M86.777 64C86.777 64 69.4721 51.6673 53.917 50.1542C39.268 48.7281 32.815 50.5626 30.7954 49.3307C28.7758 48.0987 30.6501 38.5981 35.8721 38.0625C47.2288 36.8975 90.4703 52.2565 86.777 64Z" fill="#98441D"/>
<path d="M64.7698 104.628C76.4737 103.032 84.7492 92.847 83.2536 81.8786C81.758 70.9103 71.0577 63.3124 59.3539 64.9083C47.65 66.5041 39.3745 76.6895 40.8701 87.6578C42.3657 98.6262 53.066 106.224 64.7698 104.628Z" fill="white"/>
<path d="M93 80.5987C93 80.5987 85.0618 77.2186 80.7082 71.8692C77.0702 67.4015 74.1611 64.2639 64.3169 64.0067C54.4728 63.7496 47.1565 70.9066 44 77.4978C44 77.4978 56.1982 65.785 67.1859 68.4523C78.1736 71.1123 80.3604 83.3542 93 80.5987Z" fill="#241714"/>
<path d="M62.5 98C68.8513 98 74 92.8513 74 86.5C74 80.1487 68.8513 75 62.5 75C56.1487 75 51 80.1487 51 86.5C51 92.8513 56.1487 98 62.5 98Z" fill="black"/>
<path d="M71 98C74.3137 98 77 95.0898 77 91.5C77 87.9101 74.3137 85 71 85C67.6863 85 65 87.9101 65 91.5C65 95.0898 67.6863 98 71 98Z" fill="white"/>
<path d="M-79.999 101C-79.999 101 -83.6252 59.7201 -61.6393 40.0576C-39.6603 20.395 16.7849 -4.8456 15.4537 -28.0838C15.4537 -28.0838 21.673 -5.61521 0.623062 9.12322C0.623062 9.12322 30.9014 4.19906 22.1167 -25.1075C22.1167 -25.1075 23.7877 -13.5429 52.1177 -3.8989C80.4478 5.73829 106.67 62.5807 107.1 91.0291C107.1 91.0291 111.454 79.5462 109.492 56.3284C107.53 33.1242 88.3588 -14.8642 62.6219 -28.077C36.8849 -41.2898 -0.798309 -45.1447 -27.8803 -31.2644C-54.9693 -17.391 -90.8984 25.4554 -79.999 101Z" fill="#98441D"/>
</g>
</svg>
