<svg xmlns="http://www.w3.org/2000/svg" width="195" height="187" viewBox="0 0 195 187" fill="none"><mask id="mask0" maskUnits="userSpaceOnUse" x="0" y="0" width="195" height="187"><rect width="195" height="187" fill="white"></rect></mask><g mask="url(#mask0)"><path fill-rule="evenodd" clip-rule="evenodd" d="M0.114343 98.9772C-2.50807 70.6419 0.158109 38.3839 24.044 22.0295C47.3546 6.06887 78.5309 19.683 107.178 25.6718C137.473 32.005 175.24 30.4354 189.775 56.6761C204.503 83.2646 187.959 114.977 169.681 138.511C155.261 157.076 129.922 160.183 105.889 164.684C82.3723 169.088 57.5835 176.046 37.1217 163.335C14.4368 149.243 2.46115 124.335 0.114343 98.9772Z" fill="#D2F8FD"></path><mask id="mask1" maskUnits="userSpaceOnUse" x="-1" y="10" width="197" height="161"><path fill-rule="evenodd" clip-rule="evenodd" d="M0.617272 98.9342C-2.00514 70.599 0.66104 38.341 24.5469 21.9865C47.8576 6.02591 90.357 9.47026 119.004 15.459C149.299 21.7922 175.743 30.3924 190.278 56.6332C205.006 83.2216 188.462 114.934 170.184 138.468C155.764 157.033 130.425 160.14 106.392 164.641C82.8753 169.045 58.0864 176.003 37.6247 163.292C14.9397 149.2 2.96408 124.292 0.617272 98.9342Z" fill="#D2F8FD"></path></mask><g mask="url(#mask1)"><path d="M155.528 49.6185C155.528 49.6185 157.605 62.1616 157.511 71.2809C157.477 79.0874 155.093 83.6388 156.275 84.1599C158.922 85.0099 169.407 77.1245 169.112 76.1491C168.818 75.1737 163.917 58.1796 163.696 57.448C163.476 56.7165 160.702 46.0156 160.702 46.0156L155.528 49.6185Z" fill="#FAAF71"></path><path d="M144.259 30.9639C147.638 34.2436 152.223 39.1346 155.423 42.9887L167.029 41.799C166.851 39.2943 165.786 36.9832 163.464 35.2134C159.196 32.1273 155.672 29.1469 151.477 25.9111C149.156 24.1414 146.689 22.6709 143.995 20.8483C141.673 19.0785 138.138 18.3761 135.68 17.7068C132.252 16.5796 130.76 15.9676 129.876 16.5618C128.547 17.2528 128.947 19.7091 130.752 21.7253C133.459 24.7497 140.542 27.3562 144.259 30.9639Z" fill="#FAAF71"></path><path d="M156.804 43.7997C156.728 46.9763 156.313 49.0419 155.974 51.3544L165.675 83.0805L174.179 81.2269C170.455 66.7643 168.823 53.8208 167.841 47.1876C166.94 41.1955 165.874 33.5272 159.667 32.2465C154.92 31.1743 150.865 30.0831 146.08 28.8875C143.45 28.2755 140.897 27.9104 137.978 27.4932C135.386 27.0046 127.322 29.1573 124.919 29.286C123.573 29.4477 122.986 32.4725 126.685 34.2998C128.735 35.3013 137.55 35.2235 142.05 37.0079C146.441 38.8161 152.627 41.5498 156.804 43.7997Z" fill="#FAB67D"></path><path d="M124.06 89.6595C124.131 89.5126 124.654 84.012 132.701 82.6513C139.444 81.5751 146.266 84.5544 153.227 80.0148C153.803 79.6262 157.558 77.4938 158.992 72.32C157.947 69.6574 156.523 65.3699 155.846 63.1527C154.078 57.3633 154.263 54.17 152.315 48.5512C147.558 48.5375 140.811 49.2205 136.242 49.8227C132.798 50.3111 129.006 52.3204 125.344 52.8562C124.328 52.9463 122.731 53.0317 122.911 52.8612C122.439 52.8328 121.82 52.7049 121.31 52.5534C114.463 50.6306 115.881 47.2998 117.001 46.7927C119.568 45.7075 126.114 43.2289 128.719 42.2668C131.649 41.2336 134.216 40.1484 136.858 39.3095C141.636 37.8734 145.875 36.9491 150.724 35.3661C156.949 33.3518 160.727 40.4107 163.799 45.9157C167.798 53.3204 170.272 60.6637 173.364 68.1349C175.901 74.5448 179.524 80.7178 182.567 86.8861C184.272 90.1928 189.479 101.933 192.93 109.063C192.897 109.333 192.755 109.626 192.721 109.896C191.738 119.964 187.684 149.58 176.575 123.259C174.899 119.289 168.317 109.7 166.842 107.526C163.666 102.438 160.264 96.6105 150.395 93.9016C147.924 93.7834 145.491 93.7885 142.983 93.5471C138.586 93.1923 134.163 93.894 129.619 93.4396C126.785 93.2694 123.374 93.4877 124.06 89.6595Z" fill="#FABB87"></path><path d="M121.77 51.6918C123.512 51.0285 124.419 48.8321 123.52 47.8842C123.128 47.3979 117.008 50.4386 117.008 50.4386C117.008 50.4386 118.701 52.7856 121.77 51.6918Z" fill="#F2D2C2"></path><path d="M128.204 33.482C129.732 33.2925 130.694 31.6449 130.293 30.7262C130.211 30.4565 124.721 31.654 124.721 31.654C124.721 31.654 125.492 33.7861 128.204 33.482Z" fill="#E8BEAA"></path><path d="M132.988 20.658C134.572 21.1503 136.569 20.3141 136.019 19.3272C135.47 18.3404 130.589 17.5805 130.589 17.5805C130.589 17.5805 130.309 19.7082 132.988 20.658Z" fill="#E8BEAA"></path><path d="M129.108 89.6457C128.128 89.6084 122.878 90.3 123.321 93.9138C123.321 93.9138 125.425 94.4859 129.499 94.3336L132.48 94.1705C132.037 90.5566 129.108 89.6457 129.108 89.6457Z" fill="#F2D2C2"></path></g><path d="M83.1514 91.2703C83.1514 85.6892 78.9806 79.9486 74.9702 74.3676C71.9224 70.0622 71.4411 63.8432 71.4411 60.8135H71.762C73.5265 60.8135 74.9702 59.5378 74.9702 58.1027V55.7108C74.9702 54.1162 73.5265 53 71.762 53H61.6559H61.4955H51.3894C49.6248 53 48.1811 54.2757 48.1811 55.7108V58.1027C48.1811 59.5378 49.6248 60.8135 51.3894 60.8135H51.7102C51.7102 63.6838 51.229 70.0622 48.1811 74.3676C44.0103 80.1081 40 85.8486 40 91.2703V91.4297C40 91.4297 40 91.4297 40 91.5892V148.038C40 152.981 48.0207 158.243 61.4955 158.243C74.9702 158.243 82.9909 152.981 82.9909 148.038V91.5892C83.1514 91.4297 83.1514 91.4297 83.1514 91.2703C83.1514 91.4297 83.1514 91.4297 83.1514 91.2703Z" fill="#CAECF4"></path><path d="M44.8125 92.2266V147.878C44.8125 151.227 52.352 153.778 61.8164 153.778C71.2808 153.778 78.8203 151.067 78.8203 147.878V92.2266H44.8125Z" fill="#F2F2F2"></path><path d="M78.8203 92.2277C78.8203 93.8223 71.2808 95.098 61.8164 95.098C52.352 95.098 44.8125 93.8223 44.8125 92.2277C44.8125 90.6331 52.352 89.3574 61.8164 89.3574C71.1204 89.3574 78.8203 90.6331 78.8203 92.2277Z" fill="white"></path><path d="M74.9703 59.0595C74.9703 60.6541 73.687 61.9297 72.0828 61.9297H51.0686C49.4645 61.9297 48.1812 60.6541 48.1812 59.0595V55.8703C48.1812 54.2757 49.4645 53 51.0686 53H72.0828C73.687 53 74.9703 54.2757 74.9703 55.8703V59.0595Z" fill="#4DBFD9"></path><path d="M68.3934 82.8183C68.3934 84.4129 67.1101 85.6886 65.5059 85.6886H64.8643C63.2601 85.6886 61.9768 84.4129 61.9768 82.8183V67.3507C61.9768 65.7561 63.2601 64.4805 64.8643 64.4805H65.5059C67.1101 64.4805 68.3934 65.7561 68.3934 67.3507V82.8183Z" fill="white"></path><path d="M75.4515 139.267C75.4515 140.862 74.1682 142.137 72.5641 142.137H71.4412C69.837 142.137 68.5537 140.862 68.5537 139.267V102.273C68.5537 100.678 69.837 99.4023 71.4412 99.4023H72.5641C74.1682 99.4023 75.4515 100.678 75.4515 102.273V139.267Z" fill="white"></path><path d="M56.8433 123.482V148.039C56.8433 154.577 75.6117 159.839 98.5509 159.839C121.49 159.839 140.259 154.577 140.259 148.039V123.482H56.8433Z" fill="#ECA402"></path><path d="M140.259 123.482C140.259 130.019 121.49 135.282 98.5509 135.282C75.6117 135.282 56.8433 130.019 56.8433 123.482C56.8433 116.944 75.6117 111.682 98.5509 111.682C121.49 111.682 140.259 116.944 140.259 123.482Z" fill="#E49306"></path><path d="M92.1343 147.561V163.506C92.1343 167.652 104.165 171.161 119.084 171.161C134.002 171.161 146.033 167.812 146.033 163.506V147.561H92.1343Z" fill="#F2F2F2"></path><path d="M146.194 147.56C146.194 151.706 134.163 155.214 119.244 155.214C104.326 155.214 92.2947 151.866 92.2947 147.56C92.2947 143.414 104.326 139.906 119.244 139.906C134.163 139.906 146.194 143.255 146.194 147.56Z" fill="#E6E6E6"></path><path d="M91.2537 70.1469C91.3763 70.5884 91.5079 71.049 91.6487 71.5285C91.7878 71.9948 91.9318 72.5008 92.0809 73.0465C92.6414 72.5866 93.2283 72.1233 93.8417 71.6567C94.4666 71.1752 95.0552 70.7789 95.6075 70.4678C95.6587 70.4479 95.7249 70.4396 95.8059 70.4429C95.8985 70.4313 95.9936 70.4395 96.0912 70.4676C96.1871 70.4824 96.2715 70.5122 96.3443 70.5568C96.417 70.6014 96.4716 70.6618 96.5081 70.7378C96.5461 70.8271 96.542 70.9553 96.4958 71.1223C96.4479 71.2762 96.3859 71.3713 96.3099 71.4077C96.1627 71.5202 95.9668 71.6724 95.7221 71.8644C95.489 72.0414 95.2377 72.2342 94.9682 72.4426C94.7119 72.6495 94.4557 72.8563 94.1994 73.0631C93.9564 73.2683 93.7497 73.442 93.5794 73.5843C94.3849 73.8999 95.1632 74.1584 95.9141 74.3599C96.6782 74.5597 97.4754 74.7016 98.3056 74.7856C98.3866 74.7889 98.4727 74.8319 98.5636 74.9145C98.6662 74.9823 98.7514 75.0724 98.8193 75.1848C98.8871 75.2973 98.9285 75.413 98.9434 75.5321C98.9716 75.6495 98.9584 75.7587 98.9039 75.8596C98.8377 75.9754 98.7336 76.0556 98.5914 76.1003C98.4607 76.1301 98.321 76.1409 98.1722 76.1327C97.1368 76.0206 96.1809 75.8449 95.3043 75.6054C94.426 75.3527 93.4989 75.0322 92.5231 74.6439C92.6605 75.2045 92.7939 75.7858 92.9231 76.3877C93.0656 76.988 93.2055 77.6222 93.3431 78.2903C93.3613 78.4358 93.3125 78.5292 93.1968 78.5706C93.0794 78.5988 92.9463 78.6088 92.7974 78.6005C92.6486 78.5923 92.5105 78.5626 92.3831 78.5114C92.2557 78.4602 92.1747 78.4032 92.1399 78.3403C91.9843 77.7417 91.8178 77.1108 91.6406 76.4477C91.4766 75.783 91.2986 75.1133 91.1065 74.4386C90.9127 73.7507 90.714 73.0768 90.5104 72.417C90.305 71.744 90.1039 71.1041 89.9068 70.4972C89.8621 70.355 89.8745 70.1855 89.9439 69.9886C90.0116 69.7786 90.1695 69.6446 90.4175 69.5866C90.5101 69.575 90.5994 69.5907 90.6855 69.6336C90.783 69.6617 90.8699 69.7113 90.946 69.7824C91.0337 69.8386 91.1023 69.9039 91.152 69.9783C91.1999 70.0394 91.2339 70.0957 91.2537 70.1469ZM104.098 69.6451C104.197 70.0089 104.287 70.4008 104.366 70.8209C104.457 71.226 104.536 71.6394 104.602 72.0611C104.682 72.4812 104.746 72.8896 104.796 73.2865C104.846 73.6834 104.884 74.0414 104.911 74.3606C105.371 74.5986 105.654 74.825 105.762 75.04C105.883 75.2533 105.921 75.4501 105.876 75.6304C105.827 75.8785 105.697 76.0224 105.487 76.0622C105.288 76.087 105.048 76.0433 104.765 75.9309C104.596 76.0865 104.403 76.2585 104.185 76.4472C103.965 76.6225 103.732 76.7996 103.485 76.9783C103.237 77.1438 102.988 77.296 102.736 77.435C102.485 77.574 102.249 77.6775 102.029 77.7454C101.614 77.8646 101.221 77.8333 100.849 77.6515C100.49 77.4681 100.222 77.1589 100.047 76.7241C99.9295 76.4297 99.8706 76.1213 99.8705 75.7988C99.8687 75.4631 99.929 75.1398 100.051 74.8288C100.172 74.5046 100.35 74.2069 100.584 73.9356C100.832 73.6626 101.133 73.4367 101.487 73.258C101.575 73.2067 101.696 73.1579 101.852 73.1115C102.02 73.0635 102.191 73.0353 102.365 73.027C102.55 73.0037 102.74 73.0136 102.933 73.0565C103.127 73.0994 103.313 73.1903 103.491 73.3292C103.463 73.1043 103.426 72.8604 103.38 72.5974C103.345 72.3196 103.303 72.0426 103.255 71.7664C103.207 71.4903 103.155 71.2348 103.099 71C103.054 70.7502 103.007 70.5411 102.959 70.3724C102.908 70.1773 102.814 70.0681 102.677 70.045C102.551 70.0071 102.399 70.0327 102.223 70.1221C101.918 70.2678 101.574 70.5193 101.188 70.8766C100.803 71.234 100.44 71.6087 100.1 72.0008C99.9957 72.1348 99.8634 72.2051 99.703 72.2118C99.5558 72.2168 99.4226 72.173 99.3035 72.0805C99.1844 71.9879 99.11 71.8763 99.0801 71.7457C99.0487 71.6018 99.0825 71.443 99.1817 71.2693C99.3767 71.003 99.5974 70.7267 99.8437 70.4405C100.09 70.1543 100.353 69.8929 100.632 69.6563C100.91 69.4065 101.199 69.1955 101.5 69.0234C101.801 68.8513 102.11 68.7388 102.425 68.6857C102.887 68.6144 103.257 68.6755 103.537 68.8689C103.815 69.049 104.002 69.3078 104.098 69.6451ZM102.331 74.2003C102.164 74.2616 101.989 74.3708 101.807 74.528C101.637 74.6703 101.484 74.844 101.349 75.0491C101.225 75.2393 101.137 75.4519 101.086 75.6867C101.046 75.9067 101.073 76.1184 101.166 76.3218C101.202 76.3978 101.262 76.4507 101.347 76.4805C101.444 76.5085 101.544 76.5027 101.647 76.463C101.956 76.357 102.298 76.1866 102.671 75.9516C103.057 75.7017 103.354 75.4494 103.564 75.1946C103.554 75.1153 103.502 75.021 103.408 74.9119C103.312 74.7895 103.203 74.6755 103.083 74.5697C102.96 74.4507 102.827 74.3531 102.683 74.2771C102.552 74.1994 102.435 74.1738 102.331 74.2003ZM114.196 75.3733C114.109 75.5321 114.002 75.6462 113.876 75.7157C113.749 75.772 113.633 75.8068 113.527 75.8201C113.34 75.83 113.16 75.7921 112.988 75.7061C112.815 75.607 112.701 75.5004 112.646 75.3863C112.538 75.1713 112.421 74.9307 112.293 74.6645C112.166 74.3983 112.039 74.1321 111.911 73.8659C111.795 73.5848 111.674 73.3177 111.549 73.0647C111.421 72.7985 111.304 72.5579 111.196 72.343C110.99 72.8392 110.797 73.3404 110.619 73.8465C110.439 74.3394 110.235 74.8555 110.006 75.3947C109.899 75.6097 109.764 75.7677 109.602 75.8687C109.439 75.9564 109.296 76.0011 109.176 76.0028C109.002 76.0111 108.835 75.9649 108.675 75.864C108.527 75.7616 108.407 75.6624 108.315 75.5665C108.139 75.3466 107.956 75.0606 107.764 74.7084C107.57 74.343 107.381 73.9635 107.198 73.57C107.026 73.1615 106.861 72.7589 106.704 72.362C106.545 71.952 106.411 71.5857 106.304 71.2633C106.236 71.0433 106.209 70.8316 106.224 70.6282C106.252 70.4231 106.357 70.2958 106.539 70.2461C106.762 70.2046 106.977 70.2583 107.184 70.4071C107.389 70.5426 107.515 70.6881 107.561 70.8435C107.647 71.1015 107.743 71.3851 107.849 71.6943C107.967 71.9886 108.085 72.2896 108.204 72.5972C108.337 72.9031 108.462 73.2032 108.579 73.4975C108.71 73.7902 108.837 74.0498 108.959 74.2763C109.118 73.9339 109.291 73.5427 109.477 73.1027C109.676 72.6479 109.863 72.2145 110.04 71.8026C110.215 71.3775 110.377 71.0079 110.526 70.6936C110.674 70.3793 110.798 70.1825 110.895 70.103C110.968 70.0402 111.081 70.0327 111.235 70.0806C111.387 70.1153 111.503 70.1814 111.582 70.2789C111.946 70.8245 112.265 71.4363 112.538 72.1143C112.823 72.7773 113.095 73.3949 113.355 73.967C113.51 73.7057 113.67 73.3699 113.833 72.9597C113.995 72.5363 114.148 72.0938 114.292 71.6324C114.435 71.1709 114.566 70.7111 114.683 70.2529C114.8 69.7948 114.89 69.3871 114.953 69.0299C115.014 68.6594 115.138 68.4691 115.325 68.4592C115.566 68.4558 115.781 68.5094 115.97 68.6202C116.159 68.7309 116.242 68.8615 116.221 69.012C116.076 70.2127 115.833 71.3316 115.493 72.3687C115.151 73.3925 114.719 74.394 114.196 75.3733ZM122.508 67.3368C122.608 67.7006 122.697 68.0925 122.777 68.5125C122.868 68.9177 122.947 69.3311 123.013 69.7528C123.092 70.1728 123.157 70.5813 123.207 70.9782C123.257 71.3751 123.295 71.7331 123.321 72.0523C123.781 72.2902 124.065 72.5167 124.172 72.7317C124.293 72.945 124.331 73.1417 124.287 73.322C124.237 73.5701 124.107 73.714 123.897 73.7538C123.699 73.7787 123.458 73.735 123.176 73.6226C123.007 73.7781 122.813 73.9502 122.595 74.1388C122.375 74.3142 122.142 74.4912 121.896 74.6699C121.648 74.8354 121.398 74.9877 121.147 75.1267C120.896 75.2657 120.66 75.3691 120.44 75.437C120.025 75.5562 119.631 75.525 119.259 75.3432C118.9 75.1598 118.633 74.8506 118.458 74.4157C118.34 74.1214 118.281 73.813 118.281 73.4905C118.279 73.1548 118.34 72.8314 118.462 72.5205C118.582 72.1963 118.76 71.8985 118.995 71.6272C119.243 71.3542 119.544 71.1284 119.898 70.9496C119.985 70.8983 120.107 70.8495 120.262 70.8031C120.431 70.7551 120.602 70.7269 120.776 70.7186C120.961 70.6954 121.15 70.7052 121.344 70.7482C121.537 70.7911 121.723 70.882 121.902 71.0208C121.874 70.7959 121.836 70.552 121.79 70.2891C121.755 70.0112 121.714 69.7342 121.666 69.4581C121.618 69.1819 121.565 68.9264 121.509 68.6916C121.464 68.4419 121.418 68.2327 121.37 68.064C121.319 67.8689 121.224 67.7598 121.087 67.7367C120.961 67.6987 120.81 67.7244 120.633 67.8138C120.329 67.9594 119.984 68.2109 119.599 68.5683C119.214 68.9257 118.851 69.3004 118.51 69.6925C118.406 69.8264 118.274 69.8968 118.114 69.9035C117.966 69.9085 117.833 69.8647 117.714 69.7721C117.595 69.6796 117.52 69.568 117.491 69.4373C117.459 69.2935 117.493 69.1347 117.592 68.961C117.787 68.6947 118.008 68.4184 118.254 68.1322C118.501 67.846 118.763 67.5846 119.043 67.348C119.321 67.0982 119.61 66.8872 119.911 66.7151C120.212 66.543 120.52 66.4304 120.836 66.3774C121.297 66.3061 121.668 66.3671 121.947 66.5605C122.225 66.7407 122.412 66.9994 122.508 67.3368ZM120.741 71.892C120.574 71.9532 120.4 72.0625 120.218 72.2196C120.048 72.3619 119.895 72.5356 119.759 72.7408C119.635 72.931 119.548 73.1435 119.497 73.3784C119.457 73.5984 119.483 73.81 119.576 74.0134C119.613 74.0895 119.673 74.1424 119.757 74.1721C119.855 74.2002 119.955 74.1944 120.057 74.1546C120.367 74.0487 120.708 73.8782 121.082 73.6432C121.467 73.3934 121.765 73.141 121.975 72.8863C121.965 72.8069 121.913 72.7127 121.818 72.6035C121.722 72.4812 121.614 72.3671 121.493 72.2613C121.371 72.1423 121.238 72.0448 121.094 71.9688C120.963 71.8911 120.845 71.8655 120.741 71.892ZM126.102 64.9108C126.349 66.3446 126.649 67.8255 127.002 69.3534C127.353 70.8682 127.709 72.3151 128.07 73.6943C128.183 74.2714 128.061 74.589 127.706 74.647C127.626 74.6569 127.544 74.6404 127.458 74.5975C127.37 74.5413 127.287 74.471 127.209 74.3867C127.132 74.3024 127.053 74.2114 126.974 74.1139C126.907 74.0147 126.863 73.9262 126.84 73.8485C126.649 73.1871 126.46 72.4851 126.273 71.7426C126.086 71.0001 125.906 70.2568 125.732 69.5127C125.569 68.7536 125.416 68.0136 125.272 67.2926C125.128 66.5716 125.011 65.9077 124.921 65.3008C124.908 64.9799 124.921 64.7095 124.961 64.4896C124.999 64.2564 125.124 64.1331 125.338 64.1198C125.564 64.1048 125.735 64.1775 125.849 64.3379C125.974 64.4834 126.059 64.6744 126.102 64.9108Z" fill="#F7B149"></path></g><g clip-path="url(#clip0)"><path d="M34.6762 120.134L41.8484 146.993C42.287 148.636 41.2956 150.349 39.6531 150.788C38.0107 151.226 36.3935 150.209 35.9549 148.567L28.7827 121.708C28.3441 120.065 29.3355 118.352 30.8814 117.939C31.6543 117.733 32.5046 117.816 33.2391 118.241C33.8769 118.692 34.4698 119.361 34.6762 120.134Z" fill="#EA7D23"></path><path d="M14.0618 115.807L16.2031 123.826C17.0545 127.014 20.3855 129.023 23.6704 128.145L42.4136 123.14C45.6019 122.289 47.6105 118.958 46.7333 115.673L44.592 107.654L14.0618 115.807Z" fill="#FFCC99"></path><path d="M35.9147 124.772L30.0212 126.346L30.5888 128.471L36.4823 126.897L35.9147 124.772Z" fill="#CE571D"></path><path d="M37.4263 81.2075C35.7752 75.0241 29.4097 71.3417 23.2263 72.9929L15.2073 75.1342C9.02396 76.7854 5.34157 83.1509 6.99273 89.3343L15.2227 120.154C15.5581 121.41 16.9047 122.189 18.1607 121.854L18.7403 121.699C19.4166 121.519 20.1511 121.943 20.3317 122.62L20.8477 124.552C21.0799 125.422 21.8918 126.136 22.8387 126.194C24.1721 126.148 25.0735 124.873 24.7639 123.713L23.8867 120.428L27.7513 119.396L28.0867 120.652C28.3705 121.715 29.4722 122.352 30.535 122.069L30.6316 122.043C31.6944 121.759 32.3317 120.657 32.0479 119.595C31.8673 118.918 32.2922 118.184 32.9685 118.003L44.1758 115.01C45.4318 114.675 46.2108 113.329 45.8754 112.073L37.6196 81.1559L37.4263 81.2075Z" fill="#801600"></path><path d="M12.5125 87.1368C12.2226 87.2142 12.0294 87.2658 11.7138 87.2465C10.6186 87.0215 9.72934 86.0169 9.92862 84.8251C10.359 81.3981 12.7865 78.4728 16.168 77.5698C17.3274 77.2602 18.4291 77.8975 18.7387 79.0569C19.0483 80.2163 18.411 81.318 17.2516 81.6276C15.6091 82.0662 14.3471 83.5417 14.0836 85.2682C13.9293 86.2409 13.2854 86.9304 12.5125 87.1368Z" fill="#AF3F27"></path><path d="M16.6666 104.244C15.5072 104.553 14.4055 103.916 14.0959 102.757L11.4644 92.902C11.1548 91.7426 11.7921 90.6409 12.9515 90.3313C14.1109 90.0217 15.2126 90.659 15.5222 91.8184L18.1537 101.673C18.4375 102.736 17.7294 103.96 16.6666 104.244Z" fill="#AF3F27"></path><path d="M24.6903 116.074C25.7531 115.79 26.8548 116.427 27.1386 117.49L29.0994 124.833L25.2348 125.865L23.274 118.522C23.0869 117.434 23.6276 116.358 24.6903 116.074Z" fill="#FFCC99"></path><path d="M21.6293 92.9825C22.2414 93.3366 22.5894 93.8647 22.377 94.2319C22.1645 94.5992 21.5332 94.5607 20.9212 94.2066C20.3091 93.8526 19.9611 93.3245 20.1735 92.9572C20.386 92.59 21.0173 92.6284 21.6293 92.9825Z" fill="#FF9545"></path><path d="M21.1489 82.655C21.761 83.0091 22.109 83.5372 21.8965 83.9044C21.6841 84.2716 21.0528 84.2332 20.4407 83.8791C19.8287 83.525 19.4806 82.997 19.6931 82.6297C19.9055 82.2625 20.511 82.2043 21.1489 82.655Z" fill="#FF9545"></path><path d="M25.318 105.244C25.9301 105.598 26.2781 106.126 26.0657 106.494C25.8533 106.861 25.222 106.822 24.6099 106.468C23.9978 106.114 23.6498 105.586 23.8622 105.219C24.0747 104.852 24.706 104.89 25.318 105.244Z" fill="#FF9545"></path><path d="M35.4445 87.7403C36.0566 88.0944 36.4046 88.6225 36.1922 88.9897C35.9797 89.357 35.3484 89.3185 34.7364 88.9645C34.1243 88.6104 33.7763 88.0823 33.9887 87.7151C34.1045 87.3736 34.7358 87.412 35.4445 87.7403Z" fill="#FF9545"></path><path d="M18.8403 112.772C19.4523 113.126 19.8004 113.654 19.5879 114.021C19.3755 114.388 18.7442 114.35 18.1321 113.996C17.52 113.642 17.172 113.114 17.3845 112.746C17.5969 112.379 18.2282 112.417 18.8403 112.772Z" fill="#FF9545"></path><path d="M10.13 89.8412C9.77592 90.4533 9.24783 90.8013 8.88059 90.5889C8.51335 90.3764 8.55178 89.7451 8.90586 89.1331C9.25993 88.521 9.78802 88.173 10.1553 88.3854C10.4259 88.6237 10.4841 89.2292 10.13 89.8412Z" fill="#FF9545"></path><path d="M29.2642 78.9365C28.9101 79.5486 28.2854 79.9224 27.9182 79.71C27.5509 79.4975 27.5894 78.8662 27.9435 78.2542C28.2975 77.6421 28.8256 77.2941 29.1929 77.5065C29.6309 77.5966 29.6183 78.3245 29.2642 78.9365Z" fill="#FF9545"></path><path d="M32.4012 97.6615C32.0472 98.2736 31.5191 98.6216 31.1518 98.4092C30.7846 98.1967 30.823 97.5655 31.1771 96.9534C31.5312 96.3413 32.0593 95.9933 32.4265 96.2057C32.7679 96.3216 32.7553 97.0495 32.4012 97.6615Z" fill="#FF9545"></path><path d="M40.217 104.061C40.829 104.415 41.1771 104.943 40.9646 105.31C40.7522 105.677 40.1209 105.639 39.5088 105.285C38.8968 104.931 38.5487 104.403 38.7612 104.035C38.9736 103.668 39.6049 103.707 40.217 104.061Z" fill="#FF9545"></path><path d="M33.9 111.027C33.5459 111.639 33.0179 111.987 32.6506 111.774C32.2834 111.562 32.3218 110.931 32.6759 110.319C33.03 109.707 33.558 109.359 33.9253 109.571C34.1701 109.713 34.2541 110.415 33.9 111.027Z" fill="#FF9545"></path></g><path d="M62.0388 140.408V161.935H16V153.164C16.4812 153.324 16.9625 153.324 17.4437 153.324C19.8499 153.324 21.6145 152.048 21.6145 150.294C21.6145 148.699 19.6895 147.264 17.4437 147.264C16.9625 147.264 16.4812 147.264 16 147.424V140.248H62.0388V140.408Z" fill="#FFE167"></path><path d="M16 140.408L42.6287 131C42.6287 131 58.5097 131.797 61.8784 140.408H16Z" fill="#F5B400"></path><path d="M33.8058 147.265C33.8058 149.338 32.2017 150.933 30.1163 150.933C28.0309 150.933 26.4268 149.338 26.4268 147.265C26.4268 145.192 28.0309 143.598 30.1163 143.598C32.2017 143.598 33.8058 145.192 33.8058 147.265Z" fill="#E49306"></path><path d="M43.9124 151.89C43.9124 152.687 43.2707 153.484 42.3082 153.484C41.5062 153.484 40.7041 152.846 40.7041 151.89C40.7041 151.092 41.3458 150.295 42.3082 150.295C43.1103 150.295 43.9124 151.092 43.9124 151.89Z" fill="#E49306"></path><path d="M35.2496 157.47C35.2496 158.586 34.4475 159.384 33.3246 159.384C32.2017 159.384 31.3997 158.586 31.3997 157.47C31.3997 156.354 32.2017 155.557 33.3246 155.557C34.4475 155.557 35.2496 156.354 35.2496 157.47Z" fill="#E49306"></path><path d="M57.2267 147.425C57.2267 149.498 55.4622 151.252 53.3768 151.252C51.2914 151.252 49.5269 149.498 49.5269 147.425C49.5269 145.352 51.2914 143.598 53.3768 143.598C55.4622 143.598 57.2267 145.352 57.2267 147.425Z" fill="#E49306"></path><path d="M55.6226 157.789C55.6226 159.384 54.3393 160.819 52.5747 160.819C50.9706 160.819 49.5269 159.544 49.5269 157.789C49.5269 156.195 50.8102 154.76 52.5747 154.76C54.1789 154.76 55.6226 156.035 55.6226 157.789Z" fill="#E49306"></path><path d="M23.3789 158.267C23.3789 159.224 22.5769 159.862 21.7748 159.862C20.8123 159.862 20.1707 159.065 20.1707 158.267C20.1707 157.311 20.9727 156.673 21.7748 156.673C22.5769 156.513 23.3789 157.311 23.3789 158.267Z" fill="#E49306"></path><defs><clipPath id="clip0"><rect width="31.5" height="79.4" fill="white" transform="translate(4 78.127) rotate(-14.951)"></rect></clipPath></defs></svg>