<svg xmlns="http://www.w3.org/2000/svg" width="250" height="230" viewBox="0 0 250 230" fill="none"><mask id="mask0" maskUnits="userSpaceOnUse" x="0" y="0" width="250" height="230"><rect width="250" height="230" fill="#F9F9F9"></rect></mask><g mask="url(#mask0)"><path fill-rule="evenodd" clip-rule="evenodd" d="M16.2327 138.944C3.6504 103.303 -3.80353 60.7381 19.8102 31.2274C42.8554 2.42738 85.2673 9.02299 122.076 6.66875C161.003 4.17908 206.394 -11.1386 232.763 17.6074C259.481 46.7343 249.884 93.479 235.467 130.281C224.094 159.313 194.322 172.24 166.598 186.507C139.472 200.466 111.645 218.169 82.5569 208.969C50.3087 198.768 27.4926 170.84 16.2327 138.944Z" fill="#D2F8FD"></path><path d="M238.938 178.865C238.938 181.749 166.586 184.462 103.627 184.462C40.6686 184.462 11.3999 179.007 11.3999 176.124C11.3999 169.362 62.4364 170.911 125.395 170.911C188.354 170.911 238.938 175.982 238.938 178.865Z" fill="#939393"></path><path opacity="0.6" d="M73 67.2897V119.732C97.9603 120.67 101.026 133.042 123.57 135.229V67.2897C123.57 66.3096 122.779 65.5283 121.819 65.5283C115.773 65.5283 106.648 58.4688 97.5789 58.4688C88.9904 58.4688 80.4726 65.5283 74.7516 65.5283C73.7769 65.5283 73 66.3096 73 67.2897Z" fill="#D6D6D6"></path><path d="M120.943 144.873C121.917 144.873 122.694 145.668 122.694 146.634V151.251C122.694 152.231 121.903 153.012 120.943 153.012H75.9801C75.0054 153.012 74.2285 152.217 74.2285 151.251V146.634C74.2285 145.654 75.0196 144.873 75.9801 144.873H120.943Z" fill="#DDAB6F"></path><path d="M120.943 136.209C121.917 136.209 122.694 137.004 122.694 137.97V142.587C122.694 143.567 121.903 144.348 120.943 144.348H75.9801C75.0054 144.348 74.2285 143.553 74.2285 142.587V137.97C74.2285 136.99 75.0196 136.209 75.9801 136.209H120.943Z" fill="#DDAB6F"></path><path d="M120.943 127.559C121.917 127.559 122.694 128.354 122.694 129.32V133.936C122.694 134.916 121.903 135.698 120.943 135.698H75.9801C75.0054 135.698 74.2285 134.902 74.2285 133.936V129.32C74.2285 128.34 75.0196 127.559 75.9801 127.559H120.943Z" fill="#DDAB6F"></path><path d="M120.943 118.895C121.917 118.895 122.694 119.69 122.694 120.656V125.272C122.694 126.252 121.903 127.034 120.943 127.034H75.9801C75.0054 127.034 74.2285 126.238 74.2285 125.272V120.656C74.2285 119.676 75.0196 118.895 75.9801 118.895H120.943Z" fill="#DDAB6F"></path><path d="M120.943 110.244C121.917 110.244 122.694 111.04 122.694 112.005V116.622C122.694 117.602 121.903 118.383 120.943 118.383H75.9801C75.0054 118.383 74.2285 117.588 74.2285 116.622V112.005C74.2285 111.025 75.0196 110.244 75.9801 110.244H120.943Z" fill="#DDAB6F"></path><path d="M120.943 101.592C121.917 101.592 122.694 102.387 122.694 103.353V107.97C122.694 108.95 121.903 109.731 120.943 109.731H75.9801C75.0054 109.731 74.2285 108.935 74.2285 107.97V103.353C74.2285 102.373 75.0196 101.592 75.9801 101.592H120.943Z" fill="#DDAB6F"></path><path d="M120.943 92.9277C121.917 92.9277 122.694 93.7232 122.694 94.6891V99.3055C122.694 100.286 121.903 101.067 120.943 101.067H75.9801C75.0054 101.067 74.2285 100.271 74.2285 99.3055V94.6891C74.2285 93.709 75.0196 92.9277 75.9801 92.9277H120.943Z" fill="#DDAB6F"></path><path d="M120.943 84.2773C121.917 84.2773 122.694 85.0728 122.694 86.0387V90.6552C122.694 91.6353 121.903 92.4165 120.943 92.4165H75.9801C75.0054 92.4165 74.2285 91.6211 74.2285 90.6552V86.0387C74.2285 85.0586 75.0196 84.2773 75.9801 84.2773H120.943Z" fill="#DDAB6F"></path><path d="M120.943 75.6133C121.917 75.6133 122.694 76.4087 122.694 77.3746V81.9911C122.694 82.9712 121.903 83.7524 120.943 83.7524H75.9801C75.0054 83.7524 74.2285 82.957 74.2285 81.9911V77.3746C74.2285 76.3945 75.0196 75.6133 75.9801 75.6133H120.943Z" fill="#DDAB6F"></path><path d="M120.943 66.9629C121.917 66.9629 122.694 67.7583 122.694 68.7242V73.3407C122.694 74.3208 121.903 75.102 120.943 75.102H75.9801C75.0054 75.102 74.2285 74.3066 74.2285 73.3407V68.7242C74.2285 67.7441 75.0196 66.9629 75.9801 66.9629H120.943Z" fill="#DDAB6F"></path><path d="M73.0005 127.076C97.9608 128.013 101.026 140.385 123.571 142.587V135.243C101.026 133.041 97.9467 120.669 73.0005 119.746V127.076Z" fill="#FFEC88"></path><path d="M73 152.545C73 153.525 73.791 154.306 74.7516 154.306H121.819C122.793 154.306 123.57 153.511 123.57 152.545V142.587C101.026 140.386 97.9462 128.014 73 127.076V152.545Z" fill="#EF5C00"></path><path opacity="0.7" d="M93.3118 55.6267L84.2007 40.6837C84.2007 40.6837 96.5749 37.374 99.061 39.6752L98.0016 57.5159L93.3118 55.6267Z" fill="#E6E6E6"></path><path opacity="0.6" d="M101.405 57.5021L108.878 40.1585C108.878 40.1585 95.9383 35.187 91.0508 39.221L96.913 57.076L101.405 57.5021Z" fill="#E6E6E6"></path><path d="M104.145 55.627H91.8555V59.3769H104.145V55.627Z" fill="#373737"></path><path opacity="0.6" d="M94.0212 62.459L80.0367 76.3509L79.2598 96.0098L84.5287 77.8566L94.0212 62.459Z" fill="#FFFFFC"></path><path opacity="0.6" d="M99.6978 61.0254L108.752 70.1446L111.352 85.3718L104.67 71.5224L99.6978 61.0254Z" fill="#FFFFFC"></path><path d="M152 86.7992H118L128.1 74.1992H162.1L152 86.7992Z" fill="#DBF1FD"></path><path d="M172.2 86.8008H152V174.101H172.2V86.8008Z" fill="#299AEA"></path><path d="M162.1 74.1992L158.2 79.0992L172.2 86.7992L162.1 74.1992Z" fill="#1379DA"></path><path d="M172.2 86.7996L158.2 79.0996L152 86.7996H172.2Z" fill="#61B6F2"></path><path d="M158 66H132.1C129.8 66 128 67.8 128 70.1V74.2H162.1V70.1C162.1 67.8 160.3 66 158 66Z" fill="#299AEA"></path><path d="M152 86.8008V174.101H118V86.8008H152Z" fill="#B0E2FC"></path><path d="M135 146.801C141.627 146.801 147 141.428 147 134.801C147 128.173 141.627 122.801 135 122.801C128.373 122.801 123 128.173 123 134.801C123 141.428 128.373 146.801 135 146.801Z" fill="white"></path><path d="M140.1 74.5008C138.9 74.6008 137.6 75.2008 136.5 76.3008C135.4 77.4008 134.8 78.7008 134.7 79.9008L133.5 80.4008L135.5 82.4008C135.5 82.4008 135.5 82.4008 135.6 82.5008C137 83.9008 139.8 83.5008 141.8 81.6008C143.8 79.6008 144.2 76.9008 142.7 75.4008L140.6 73.3008L140.1 74.5008Z" fill="#D32144"></path><path d="M140.6 73.3003C142 74.7003 141.6 77.5003 139.7 79.5003C137.7 81.5003 135 81.9003 133.5 80.4003C132.1 79.0003 132.5 76.2003 134.4 74.2003C136.4 72.3003 139.2 71.8003 140.6 73.3003Z" fill="#FF3D3D"></path><path d="M139.6 117H130.4C129.5 117 128.7 116.2 128.7 115.3C128.7 114.4 129.5 113.6 130.4 113.6H139.6C140.5 113.6 141.3 114.4 141.3 115.3C141.3 116.2 140.5 117 139.6 117Z" fill="#61B6F2"></path><path d="M144.5 110.099H125.5C124.6 110.099 123.8 109.299 123.8 108.399C123.8 107.499 124.6 106.699 125.5 106.699H144.5C145.4 106.699 146.2 107.499 146.2 108.399C146.2 109.299 145.5 110.099 144.5 110.099Z" fill="#61B6F2"></path><path d="M129 169.6H123C122.4 169.6 121.9 169.1 121.9 168.5C121.9 167.9 122.4 167.4 123 167.4H129C129.6 167.4 130.1 167.9 130.1 168.5C130.1 169.1 129.6 169.6 129 169.6Z" fill="#B0E2FC"></path><path d="M147 169.6H134.6C134 169.6 133.5 169.1 133.5 168.5C133.5 167.9 134 167.4 134.6 167.4H147C147.6 167.4 148.1 167.9 148.1 168.5C148.1 169.1 147.6 169.6 147 169.6Z" fill="#B0E2FC"></path><path d="M166 112.3H158.3C157 112.3 155.9 111.2 155.9 109.9V98.3004C155.9 97.0004 157 95.9004 158.3 95.9004H166C167.3 95.9004 168.4 97.0004 168.4 98.3004V109.9C168.4 111.2 167.3 112.3 166 112.3Z" fill="#61B6F2"></path><path d="M166 169.6H158.3C157 169.6 155.9 168.5 155.9 167.2V165C155.9 163.7 157 162.6 158.3 162.6H166C167.3 162.6 168.4 163.7 168.4 165V167.2C168.4 168.6 167.3 169.6 166 169.6Z" fill="#61B6F2"></path><path d="M166 152.9H158.3C157 152.9 155.9 151.8 155.9 150.5V119.3C155.9 118 157 116.9 158.3 116.9H166C167.3 116.9 168.4 118 168.4 119.3V150.5C168.4 151.8 167.3 152.9 166 152.9Z" fill="#61B6F2"></path><path d="M134.2 86.8008V86.9008C134.2 95.8008 126.9 103.101 118 103.101V86.8008H134.2Z" fill="#FF3D3D"></path><path d="M135 159.1C137.375 159.1 139.3 157.175 139.3 154.8C139.3 152.425 137.375 150.5 135 150.5C132.625 150.5 130.7 152.425 130.7 154.8C130.7 157.175 132.625 159.1 135 159.1Z" fill="white"></path><path d="M210.52 143.56C212.44 143.56 214 145.12 214 147.04V158.68V171.52L202 172L208.36 166.72V147.04C208.36 145.12 206.8 143.56 204.88 143.56C206.8 143.56 208.36 142 208.36 140.08V138.4H214V140.08C214 142 212.44 143.56 210.52 143.56Z" fill="#661204"></path><path d="M208.24 140.08V138.4H181.12H175.48V140.08C175.48 142 177.04 143.56 178.96 143.56C177.04 143.56 175.48 145.12 175.48 147.04V171.52L187.84 172L187.24 171.52H203.2C205.96 171.52 208.24 169.24 208.24 166.48V147.04C208.24 145.12 206.68 143.56 204.76 143.56C206.68 143.56 208.24 142 208.24 140.08Z" fill="#801600"></path><path d="M214 140.08C214 142 212.44 143.56 210.52 143.56C212.44 143.56 214 145.12 214 147.04V158.68V165.16C214 168.64 211.12 171.52 207.52 171.52C204.28 171.52 185.2 171.52 181.96 171.52C178.48 171.52 175.48 168.64 175.48 165.16V158.68V147.04C175.48 145.12 177.04 143.56 178.96 143.56C177.04 143.56 175.48 142 175.48 140.08V138.4H172.12V140.08C172.12 141.28 172.48 142.48 173.08 143.56C172.36 144.52 172 145.72 172 147.04V158.68V165.16C172.12 170.56 176.44 175 181.84 175C184.24 175 205 175 207.4 175C212.8 175 217.24 170.56 217.24 165.28V158.8V147.16C217.24 145.96 216.88 144.76 216.28 143.68C216.88 142.72 217.24 141.52 217.24 140.2V138.52H213.88V140.08H214Z" fill="#CEE8FB"></path><path d="M217.36 89.0807C217.36 82.7207 214.24 76.8407 208.96 73.2407L205.6 70.9607C203.32 69.4007 202 66.8807 202 64.2407V59.0807V55.7207H198.64H191.68H188.32V59.0807V64.0007C188.32 66.7607 186.88 69.2807 184.6 70.7207L180.88 73.0007C175.36 76.4807 172 82.6007 172 89.0807V99.4007C172 100.601 172.36 101.801 172.96 102.881C172.36 103.841 172 105.041 172 106.241V108.281H175.36V106.241C175.36 104.321 176.92 102.761 178.84 102.761C176.92 102.761 175.36 101.201 175.36 99.2807V89.0807C175.36 83.6807 178.12 78.7607 182.68 75.8807L186.16 73.7207C189.4 71.6807 191.44 67.9607 191.56 64.1207V59.2007H198.52V64.3607C198.52 68.2007 200.44 71.8007 203.56 73.9607L206.92 76.2407C211.36 79.0007 214 83.8007 214 89.0807V99.4007C214 101.321 212.44 102.881 210.52 102.881C212.44 102.881 214 104.441 214 106.361V108.401H217.36V106.361C217.36 105.161 217 103.961 216.4 102.881C217 101.921 217.36 100.721 217.36 99.4007V89.0807Z" fill="#CEE8FB"></path><path d="M175.36 108.279H172V138.279H175.36V108.279Z" fill="#FF4D54"></path><path d="M217.36 108.279H214V138.279H217.36V108.279Z" fill="#D40000"></path><path d="M207.041 76.0001L203.681 73.7201C200.441 71.5601 198.641 67.9601 198.641 64.1201V59.0801H191.681V64.0001C191.681 67.9601 189.641 71.5601 186.281 73.6001L182.801 75.7601C182.321 76.1201 181.841 76.4801 181.361 76.8401H208.361C207.881 76.6001 207.401 76.3601 207.041 76.0001Z" fill="#E1F1FD"></path><path d="M208.241 99.402V89.202C208.241 84.402 206.081 79.962 202.481 77.082H186.881H181.241C177.641 80.082 175.481 84.522 175.481 89.202V99.402C175.481 101.322 177.041 102.882 178.961 102.882C177.041 102.882 175.481 104.442 175.481 106.362V108.402H181.241H208.361V106.362C208.361 104.442 206.801 102.882 204.881 102.882C206.681 102.762 208.241 101.202 208.241 99.402Z" fill="#801600"></path><path d="M179.801 90.7611C178.841 90.7611 178.121 90.0411 178.121 89.0811C178.121 85.7211 179.441 82.6011 181.721 80.2011C182.321 79.6011 183.401 79.4811 184.001 80.2011C184.601 80.8011 184.721 81.8811 184.001 82.4811C182.321 84.2811 181.361 86.6811 181.361 89.0811C181.481 90.0411 180.761 90.7611 179.801 90.7611Z" fill="#A43422"></path><path d="M179.801 100.84C178.841 100.84 178.121 100.12 178.121 99.1599V94.5999C178.121 93.6399 178.841 92.9199 179.801 92.9199C180.761 92.9199 181.481 93.6399 181.481 94.5999V99.1599C181.481 100.12 180.761 100.84 179.801 100.84Z" fill="#A43422"></path><path d="M179.801 165.4C178.841 165.4 178.121 164.68 178.121 163.72V149.08C178.121 148.12 178.841 147.4 179.801 147.4C180.761 147.4 181.481 148.12 181.481 149.08V163.84C181.481 164.68 180.761 165.4 179.801 165.4Z" fill="#A43422"></path><path d="M208.121 76.9609H202.361C205.961 79.9609 208.121 84.4009 208.121 89.0809V99.4009C208.121 101.321 206.561 102.881 204.641 102.881C206.561 102.881 208.121 104.441 208.121 106.361V108.401H213.881V106.361C213.881 105.881 213.761 105.401 213.641 105.041C213.401 104.441 212.921 103.841 212.441 103.481C211.841 103.121 211.241 102.881 210.521 102.881C211.241 102.881 211.841 102.641 212.441 102.281C213.041 101.921 213.401 101.441 213.641 100.721C213.761 100.361 213.881 99.8809 213.881 99.4009V89.2009C214.001 84.4009 211.841 79.8409 208.121 76.9609Z" fill="#661204"></path><path d="M202.6 49H199C199.72 49 200.44 49.72 200.44 50.68V57.52C200.44 58.48 199.84 59.2 199 59.2H202.6C203.32 59.2 204.04 58.48 204.04 57.52V50.68C204.04 49.72 203.44 49 202.6 49Z" fill="#D40000"></path><path d="M200.44 57.52V50.68C200.44 49.72 199.84 49 199 49H187.6C186.88 49 186.16 49.72 186.16 50.68V57.52C186.16 58.48 186.76 59.2 187.6 59.2H199C199.72 59.08 200.44 58.36 200.44 57.52Z" fill="#EE1E1D"></path><path d="M202 59.0801H188.2V62.2001H202V59.0801Z" fill="#D40000"></path><path d="M214 108.279H205.96C202.84 105.879 198.88 104.439 194.56 104.439C190.24 104.439 186.4 105.879 183.16 108.279H175.48V138.279H183.16C186.28 140.679 190.24 142.119 194.56 142.119C198.88 142.119 202.72 140.679 205.96 138.279H214V108.279Z" fill="#EE1E1D"></path><path d="M192.76 99.1596C194.019 99.1596 195.04 98.1388 195.04 96.8796C195.04 95.6204 194.019 94.5996 192.76 94.5996C191.501 94.5996 190.48 95.6204 190.48 96.8796C190.48 98.1388 191.501 99.1596 192.76 99.1596Z" fill="#A43422"></path><path d="M199.12 87.6392C199.12 88.4792 198.52 89.0792 197.68 89.0792C196.84 89.0792 196.24 88.4792 196.24 87.6392C196.24 86.7992 196.84 86.1992 197.68 86.1992C198.52 86.1992 199.12 86.7992 199.12 87.6392Z" fill="#A43422"></path><path d="M195.639 161.439C196.899 161.439 197.919 160.418 197.919 159.159C197.919 157.9 196.899 156.879 195.639 156.879C194.38 156.879 193.359 157.9 193.359 159.159C193.359 160.418 194.38 161.439 195.639 161.439Z" fill="#A43422"></path><path d="M200.559 151.359C201.354 151.359 201.999 150.714 201.999 149.919C201.999 149.123 201.354 148.479 200.559 148.479C199.764 148.479 199.119 149.123 199.119 149.919C199.119 150.714 199.764 151.359 200.559 151.359Z" fill="#A43422"></path><path d="M189.04 149.919C189.835 149.919 190.48 149.274 190.48 148.479C190.48 147.684 189.835 147.039 189.04 147.039C188.244 147.039 187.6 147.684 187.6 148.479C187.6 149.274 188.244 149.919 189.04 149.919Z" fill="#A43422"></path><path d="M203.116 134.18C209.065 129.522 210.112 120.924 205.454 114.975C200.796 109.026 192.198 107.979 186.249 112.637C180.3 117.294 179.253 125.893 183.911 131.842C188.569 137.791 197.167 138.838 203.116 134.18Z" fill="#D40000"></path><path d="M198.7 115.4V154.9L197.7 165.6C197.7 167.6 196.1 169.2 194.1 169.2H188.7V117.4C188.7 116.3 187.8 115.4 186.7 115.4H198.7Z" fill="#299AEA"></path><path d="M188.7 117.4V170.3H170.7C170.6 170.3 170.4 170.3 170.3 170.3C170 170.3 169.6 170.2 169.3 170.1C169.2 170 169 170 168.9 169.9C167.8 169.3 168.1 168.1 168.1 166.8L167 162.7V115.4H186.6C187.8 115.4 188.7 116.3 188.7 117.4Z" fill="#61B6F2"></path><path d="M193 128.701C192.7 127.901 192.3 127.201 191.8 126.601C189.8 123.901 186.7 122.201 183.1 122.201C178.7 122.201 174.9 124.901 173.2 128.701H167.2V130.701V135.201V137.201H173.2C174.9 141.001 178.7 143.701 183.1 143.701C186.7 143.701 189.8 142.001 191.8 139.301C192.3 138.601 192.7 137.901 193 137.201H198.7V135.201V130.701V128.701H193Z" fill="#1379DA"></path><path d="M196.2 112V100.2C196.2 94.8004 191.8 90.4004 186.4 90.4004H179.5C174.1 90.4004 169.7 94.8004 169.7 100.2V111.9H168.2C167.6 111.9 167.1 112.4 167.1 113V115.3H198.7V113C198.7 112.4 198.2 111.9 197.6 111.9H196.2V112Z" fill="#CEECFC"></path><path d="M193 112V100.2C193 94.8004 188.6 90.4004 183.2 90.4004H180C185.4 90.4004 189.8 94.8004 189.8 100.2V111.9H193V112Z" fill="#9ADAFB"></path><path d="M172.9 112V100.2C172.9 94.8004 177.3 90.4004 182.7 90.4004H185.9C180.5 90.4004 176.1 94.8004 176.1 100.2V111.9H172.9V112Z" fill="#9ADAFB"></path><path d="M198.8 115.4H167.2V119H198.8V115.4Z" fill="#9ADAFB"></path><path d="M184.7 90.4004H181.5V111.9H184.7V90.4004Z" fill="#9ADAFB"></path><path d="M171.1 154.2C172 153.5 173.1 153.1 174.3 153.1C173.1 151.9 172.5 150.6 172.3 149.4C172.2 148.9 172.7 148.5 173.2 148.6C174.3 148.8 175.7 149.6 176.8 150.7C176.9 149.6 177.3 148.6 177.9 147.8C178.2 147.4 178.8 147.4 179.1 147.8C179.8 148.7 180.2 149.9 180.2 151.1C180.2 151.5 180.1 152 180 152.5C179.6 154.6 177.9 156.3 175.8 156.6C175.3 156.7 174.7 156.7 174.4 156.7C173.1 156.7 172 156.2 171.1 155.4C170.7 155 170.7 154.5 171.1 154.2Z" fill="#109343"></path><path d="M184.1 152.499C181.9 150.199 178.2 150.199 175.9 152.399C173.6 154.599 173.6 158.299 175.8 160.599C178 162.899 184.3 165.599 186.6 163.299C189 161.099 186.4 154.799 184.1 152.499Z" fill="#FF3D3D"></path><path d="M182.1 153.8C182.4 153.5 182.4 153.1 182.1 152.8L181.4 152C181.1 151.7 180.7 151.7 180.4 152C180.1 152.3 180.1 152.7 180.4 153L181.1 153.8C181.3 154 181.8 154 182.1 153.8Z" fill="#FFE21F"></path><path d="M178.9 155.3C179.2 155 179.2 154.6 178.9 154.3L178.2 153.5C177.9 153.2 177.5 153.2 177.2 153.5C176.9 153.8 176.9 154.2 177.2 154.5L177.9 155.3C178.2 155.6 178.6 155.6 178.9 155.3Z" fill="#FFE21F"></path><path d="M181.9 158.4C182.2 158.1 182.2 157.7 181.9 157.4L181.2 156.6C180.9 156.3 180.5 156.3 180.2 156.6C179.9 156.9 179.9 157.3 180.2 157.6L180.9 158.4C181.1 158.6 181.6 158.6 181.9 158.4Z" fill="#FFE21F"></path><path d="M177.2 158.3C177.5 158 177.5 157.6 177.2 157.3L176.5 156.5C176.2 156.2 175.8 156.2 175.5 156.5C175.2 156.8 175.2 157.2 175.5 157.5L176.2 158.3C176.5 158.6 176.9 158.6 177.2 158.3Z" fill="#FFE21F"></path><path d="M184.8 161.4C185.1 161.1 185.1 160.7 184.8 160.4L184.1 159.6C183.8 159.3 183.4 159.3 183.1 159.6C182.8 159.9 182.8 160.3 183.1 160.6L183.8 161.4C184.1 161.7 184.5 161.7 184.8 161.4Z" fill="#FFE21F"></path><path d="M197.1 155.8C197.2 155 197.1 154.3 196.8 153.6C194.2 152.1 191.1 151.2 187.7 151C190 151.2 191.7 153.3 191.4 155.8C191.1 157.9 189.2 159.4 187.1 159.4H192.8C194.9 159.4 196.9 157.9 197.1 155.8Z" fill="#FFE6E9"></path><path d="M198.7 154.9V170.9C198.7 172.9 197.1 174.5 195.1 174.5H175V170C175 164.2 179.7 159.4 185.6 159.4H192.8C194.8 159.4 196.7 158 197.1 156C197.3 155.1 197.2 154.3 196.9 153.6C197.5 154.1 198.1 154.5 198.7 154.9Z" fill="#FFB2B9"></path><path d="M185.8 159.4C179.9 159.4 175.2 164.1 175.2 170V174.5H170.3C170 174.5 169.6 174.4 169.3 174.3C169.2 174.2 169 174.2 168.9 174.1V170.1C168.9 164.3 173.6 159.5 179.5 159.5H185.8V159.4Z" fill="#FFCDD2"></path><path d="M180.9 159.4C175 159.4 170.3 164.1 170.3 170V174.5C170 174.5 169.6 174.4 169.3 174.3C169.2 174.2 169 174.2 168.9 174.1C167.8 173.5 167 172.3 167 171V162.6C168.9 160.7 171.6 159.5 174.5 159.5H180.9V159.4Z" fill="#FFE6E9"></path><path d="M183.1 140.5C187.242 140.5 190.6 137.142 190.6 133C190.6 128.858 187.242 125.5 183.1 125.5C178.958 125.5 175.6 128.858 175.6 133C175.6 137.142 178.958 140.5 183.1 140.5Z" fill="white"></path><path d="M115 132H104.3C110.2 132 115 136.8 115 142.7V160.6C115 166.5 110.2 171.3 104.3 171.3H115C120.9 171.3 125.7 166.5 125.7 160.6V142.7C125.8 136.8 121 132 115 132Z" fill="#FFA800"></path><path d="M92.1 161.501C93.8121 161.501 95.2 160.113 95.2 158.401C95.2 156.689 93.8121 155.301 92.1 155.301C90.3879 155.301 89 156.689 89 158.401C89 160.113 90.3879 161.501 92.1 161.501Z" fill="#FFE600"></path><path d="M89.1002 144.7C89.1002 146.2 87.9002 147.4 86.4002 147.4C84.9002 147.4 83.7002 146.2 83.7002 144.7C83.7002 143.2 84.9002 142 86.4002 142C87.9002 142 89.1002 143.2 89.1002 144.7Z" fill="#FFBE03"></path><path d="M109.8 135.199H74.6001V168.099H109.8C113.9 168.099 117.3 164.699 117.3 160.599V142.699C117.3 138.499 114 135.199 109.8 135.199Z" fill="#FFE600"></path><path d="M119.5 132H74.6001V135.2H109.8C113.9 135.2 117.3 138.6 117.3 142.7V160.6C117.3 164.7 113.9 168.1 109.8 168.1H74.6001V171.3H119.5C125.4 171.3 130.2 166.5 130.2 160.6V142.7C130.2 136.8 125.4 132 119.5 132Z" fill="#FFCA03"></path><path d="M101 135.201C101 136.701 99.8001 137.901 98.3001 137.901C96.8001 137.901 95.6001 136.701 95.6001 135.201L98.3001 133.801L101 135.201Z" fill="#FFCA03"></path><path d="M88.7002 168.101C88.7002 165.401 90.9002 163.301 93.5002 163.301C96.2002 163.301 98.3002 165.501 98.3002 168.101L93.9002 169.601L88.7002 168.101Z" fill="#FFCA03"></path><path d="M90.7003 152.099C90.7003 153.899 89.3003 155.299 87.5003 155.299C85.7003 155.299 84.3003 153.899 84.3003 152.099C84.3003 150.299 85.7003 148.899 87.5003 148.899C89.2003 148.799 90.7003 150.299 90.7003 152.099Z" fill="#FFA800"></path><path d="M104.1 158.901C104.1 160.101 103.1 161.001 102 161.001C100.8 161.001 99.9004 160.001 99.9004 158.901C99.9004 157.801 100.9 156.801 102 156.801C103.2 156.801 104.1 157.701 104.1 158.901Z" fill="#FFA800"></path><path d="M84.9002 140C84.9002 141.2 83.9002 142.1 82.8002 142.1C81.7002 142.1 80.7002 141.1 80.7002 140C80.7002 138.9 81.7002 137.9 82.8002 137.9C83.9002 137.9 84.9002 138.8 84.9002 140Z" fill="#FFCA03"></path><path d="M112.7 148.4C112.7 151 114.8 153.1 117.4 153.2L118.9 148.4L117.4 143.6C114.8 143.6 112.7 145.8 112.7 148.4Z" fill="#FFCA03"></path><path d="M119.5 132H110.6C116.5 132 121.3 136.8 121.3 142.7V160.6C121.3 166.5 116.5 171.3 110.6 171.3H119.5C125.4 171.3 130.2 166.5 130.2 160.6V142.7C130.2 136.8 125.4 132 119.5 132Z" fill="#D40000"></path><path d="M34.0999 132H44.7999C38.8999 132 34.0999 136.8 34.0999 142.7V160.6C34.0999 166.5 38.8999 171.3 44.7999 171.3H34.0999C28.1999 171.3 23.3999 166.5 23.3999 160.6V142.7C23.3999 136.8 28.1999 132 34.0999 132Z" fill="#FFA800"></path><path d="M54 158.4C54 160.1 55.4 161.5 57.1 161.5C58.8 161.5 60.2 160.1 60.2 158.4C60.2 156.7 58.8 155.3 57.1 155.3C55.4 155.2 54 156.7 54 158.4Z" fill="#FFE600"></path><path d="M60.1001 144.7C60.1001 146.2 61.3001 147.4 62.8001 147.4C64.3001 147.4 65.5001 146.2 65.5001 144.7C65.5001 143.2 64.3001 142 62.8001 142C61.3001 142 60.1001 143.2 60.1001 144.7Z" fill="#FFBE03"></path><path d="M31.7998 142.699V160.599C31.7998 164.699 35.1998 168.099 39.2998 168.099H74.4998V135.199H39.2998C35.1998 135.199 31.7998 138.499 31.7998 142.699Z" fill="#FFCA03"></path><path d="M29.7 132H74.6V135.2H39.4C35.3 135.2 31.9 138.6 31.9 142.7V160.6C31.9 164.7 35.3 168.1 39.4 168.1H74.6V171.3H29.7C23.8 171.3 19 166.5 19 160.6V142.7C19 136.8 23.8 132 29.7 132Z" fill="#FFA800"></path><path d="M69.7999 168.2C69.7999 166.7 68.5999 165.5 67.0999 165.5C65.5999 165.5 64.3999 166.7 64.3999 168.2L67.0999 169.6L69.7999 168.2Z" fill="#FFA800"></path><path d="M44.8999 134.801C44.8999 137.501 47.0999 139.601 49.6999 139.601C52.3999 139.601 54.4999 137.401 54.4999 134.801L50.0999 133.301L44.8999 134.801Z" fill="#FFA800"></path><path d="M44.6001 157.501C44.6001 159.301 46.0001 160.701 47.8001 160.701C49.6001 160.701 51.0001 159.301 51.0001 157.501C51.0001 155.701 49.6001 154.301 47.8001 154.301C46.1001 154.301 44.6001 155.701 44.6001 157.501Z" fill="#FFA800"></path><path d="M62.2998 148.4C62.2998 149.6 63.2998 150.5 64.3998 150.5C65.5998 150.5 66.4998 149.5 66.4998 148.4C66.4998 147.3 65.4998 146.3 64.3998 146.3C63.1998 146.2 62.2998 147.2 62.2998 148.4Z" fill="#FFA800"></path><path d="M36.4998 155.2C36.4998 157.8 34.3998 159.9 31.7998 160L30.2998 155.2L31.7998 150.4C34.3998 150.5 36.4998 152.6 36.4998 155.2Z" fill="#FFA800"></path><path d="M29.7 132H38.6C32.7 132 27.9 136.8 27.9 142.7V160.6C27.9 166.5 32.7 171.3 38.6 171.3H29.7C23.8 171.3 19 166.5 19 160.6V142.7C19 136.8 23.8 132 29.7 132Z" fill="#EE1E1D"></path><path d="M122.528 28.2383C122.839 28.3086 123.281 28.3438 123.855 28.3438H125.93C126.492 28.3438 126.929 28.3086 127.239 28.2383C127.169 28.584 127.134 29.0293 127.134 29.5742V32.123C127.134 32.6621 127.169 33.0781 127.239 33.3711C126.735 33.2949 126.299 33.2568 125.93 33.2568H123.548C123.548 33.292 123.542 33.3594 123.53 33.459C123.437 34.3086 123.366 34.8711 123.319 35.1465H125.895C126.457 35.1465 126.894 35.1113 127.204 35.041C127.134 35.375 127.099 35.8027 127.099 36.3242V39.1455C127.099 39.7314 127.134 40.1826 127.204 40.499C126.812 40.4229 126.375 40.3848 125.895 40.3848H124.348C123.855 40.3848 123.428 40.4229 123.064 40.499C123.135 40.1592 123.17 39.708 123.17 39.1455V35.8145C122.766 37.0742 122.402 38.0059 122.08 38.6094C121.811 38.4863 121.418 38.3457 120.902 38.1875C122.045 36.834 122.622 34.7246 122.634 31.8594V29.5742C122.634 29.1055 122.599 28.6602 122.528 28.2383ZM123.609 29.249V32.3604H126.158V29.249H123.609ZM124.146 36.0518V39.4883H126.123V36.0518H124.146ZM118.547 28.5107L119.32 27.79C120.363 28.6982 121.198 29.5801 121.825 30.4355L121.052 31.1562C120.343 30.207 119.508 29.3252 118.547 28.5107ZM131.361 30.6816L132.574 31.0859C132.703 31.1328 132.768 31.1738 132.768 31.209C132.768 31.2441 132.703 31.291 132.574 31.3496C132.357 31.4727 132.182 31.6602 132.047 31.9121C131.865 32.3281 131.59 32.958 131.221 33.8018H132.425C133.028 33.8018 133.503 33.7637 133.849 33.6875V34.8037C133.427 34.7334 132.952 34.6982 132.425 34.6982H130.79V37.0977H131.959C132.568 37.0977 133.043 37.0596 133.383 36.9834V38.0996C132.973 38.0293 132.498 37.9941 131.959 37.9941H130.79V40.3145C130.79 40.9297 130.825 41.4043 130.896 41.7383H129.674C129.744 41.3398 129.779 40.8652 129.779 40.3145V37.9941H128.918C128.355 37.9941 127.887 38.0293 127.512 38.0996V36.9834C127.822 37.0596 128.291 37.0977 128.918 37.0977H129.779V34.6982H128.303C127.693 34.6982 127.225 34.7334 126.896 34.8037V33.6875C127.178 33.7637 127.646 33.8018 128.303 33.8018H130.298C130.79 32.7705 131.145 31.7305 131.361 30.6816ZM129.542 26.7617C130.216 27.4707 130.793 28.1738 131.273 28.8711L130.57 29.4072H132.214C132.788 29.4072 133.219 29.3721 133.506 29.3018V30.418C133.195 30.3418 132.765 30.3037 132.214 30.3037H128.883C128.256 30.3037 127.781 30.3418 127.459 30.418V29.3018C127.816 29.3721 128.291 29.4072 128.883 29.4072H130.359C129.867 28.6631 129.313 27.9922 128.698 27.3945L129.542 26.7617ZM128.575 30.8662C129.091 31.5283 129.521 32.2373 129.867 32.9932L129.076 33.4766C128.789 32.791 128.358 32.082 127.784 31.3496L128.575 30.8662ZM120.946 33.8721C120.87 34.2705 120.832 34.7803 120.832 35.4014V40.6572C121.207 40.7158 121.646 40.8594 122.15 41.0879C123.445 41.7266 124.55 42.1221 125.464 42.2744C125.856 42.3447 126.442 42.3799 127.222 42.3799C128.61 42.3799 130.646 42.2686 133.33 42.0459C133.758 41.999 134.074 41.9697 134.279 41.958C133.846 42.3154 133.629 42.7578 133.629 43.2852C132.047 43.332 130.749 43.3555 129.735 43.3555C128.845 43.3555 128.045 43.3379 127.336 43.3027C124.934 43.1855 123.108 42.7227 121.86 41.9141C121.497 41.709 121.148 41.6064 120.814 41.6064C120.398 41.6064 120.015 41.7646 119.663 42.0811C119.364 42.3447 119.033 42.7461 118.67 43.2852C118.471 42.8047 118.184 42.4326 117.809 42.1689C118.459 41.6299 119.133 41.1934 119.83 40.8594V34.8828H119.074C118.494 34.8828 118.025 34.918 117.668 34.9883V33.8721C118.014 33.9424 118.482 33.9775 119.074 33.9775H119.47C120.091 33.9775 120.583 33.9424 120.946 33.8721ZM135.756 32.6328C137.93 31.7422 139.869 29.8818 141.574 27.0518L142.831 27.7549C143.013 27.8486 143.109 27.9395 143.121 28.0273C143.133 28.1094 143.054 28.1562 142.884 28.168C142.585 28.1914 142.351 28.2998 142.181 28.4932C141.952 28.792 141.735 29.0674 141.53 29.3193H146.452C147.179 29.3193 147.788 29.2842 148.28 29.2139C148.233 29.2842 148.169 29.3838 148.087 29.5127C147.952 29.7061 147.814 29.8994 147.674 30.0928C147.527 30.2861 147.006 31.0068 146.109 32.2549H148.825C149.364 32.2549 149.807 32.2168 150.152 32.1406C150.082 32.4922 150.047 32.9434 150.047 33.4941V36.1572C150.047 36.708 150.082 37.1328 150.152 37.4316C149.783 37.3613 149.341 37.3262 148.825 37.3262H145.529V41.501C145.564 42.04 145.857 42.3652 146.408 42.4766C146.988 42.5586 147.612 42.5879 148.28 42.5645C148.907 42.5293 149.432 42.4385 149.854 42.292C150.568 41.8877 150.935 41.0557 150.952 39.7959C151.31 40.165 151.758 40.4053 152.297 40.5166C151.875 41.8584 151.359 42.752 150.75 43.1973C150.533 43.3789 149.944 43.5049 148.983 43.5752C148.562 43.5986 148.166 43.6104 147.797 43.6104C147.188 43.6104 146.599 43.5811 146.03 43.5225C144.952 43.4346 144.448 42.8867 144.519 41.8789V37.3262H144.088C143.432 40.0273 141.062 42.2012 136.978 43.8477C136.69 43.4141 136.26 43.0713 135.686 42.8193C139.119 42.04 141.519 40.209 142.884 37.3262H139.983C139.351 37.3262 138.847 37.3613 138.472 37.4316C138.548 37.1211 138.586 36.667 138.586 36.0693V33.582C138.586 33.5586 138.548 33.1455 138.472 32.3428C137.716 32.9756 137.235 33.3652 137.03 33.5117C136.808 33.2715 136.418 32.9961 135.861 32.6855C135.814 32.6621 135.779 32.6445 135.756 32.6328ZM138.744 32.1406C139.178 32.2168 139.603 32.2549 140.019 32.2549H144.668C145.242 31.5459 145.752 30.8662 146.197 30.2158H140.792C140.769 30.2393 140.733 30.2773 140.687 30.3301C140.505 30.4824 139.857 31.0859 138.744 32.1406ZM139.588 33.1514V36.4297H143.191C143.455 35.3984 143.616 34.3057 143.675 33.1514H139.588ZM144.272 36.4297H149.036V33.1514H144.756C144.621 34.5459 144.46 35.6387 144.272 36.4297Z" fill="black"></path><line x1="68.2322" y1="160.232" x2="178.232" y2="50.2322" stroke="#BF2828" stroke-width="5"></line><line x1="71.7678" y1="50.2322" x2="181.768" y2="160.232" stroke="#BF2828" stroke-width="5"></line></g></svg>