<svg xmlns="http://www.w3.org/2000/svg" width="250" height="230" viewBox="0 0 250 230" fill="none"><mask id="mask0" maskUnits="userSpaceOnUse" x="0" y="0" width="250" height="230"><rect width="250" height="230" fill="#F9F9F9"></rect></mask><g mask="url(#mask0)"><path fill-rule="evenodd" clip-rule="evenodd" d="M16.2327 138.944C3.6504 103.303 -3.80353 60.7381 19.8102 31.2274C42.8554 2.42738 85.2673 9.02299 122.076 6.66875C161.003 4.17908 206.394 -11.1386 232.763 17.6074C259.481 46.7343 249.884 93.479 235.467 130.281C224.094 159.313 194.322 172.24 166.598 186.507C139.472 200.466 111.645 218.169 82.5569 208.969C50.3087 198.768 27.4926 170.84 16.2327 138.944Z" fill="#D2F8FD"></path><path d="M216.318 108.768H201.059V153.98H216.318V108.768Z" fill="#FE8618"></path><path d="M201.058 108.768H140.021V153.98H201.058V108.768Z" fill="#FEA829"></path><path d="M216.882 153.982H201.482C203.177 153.982 204.449 155.254 204.449 156.95V161.188C204.449 169.666 197.526 176.448 189.189 176.448H204.449C212.926 176.448 219.708 169.524 219.708 161.188V156.95C219.849 155.254 218.437 153.982 216.882 153.982Z" fill="#FE8618"></path><path d="M204.591 161.188V156.95C204.591 155.254 203.319 153.982 201.623 153.982H139.597C137.901 153.982 136.63 155.254 136.63 156.95V161.188C136.63 169.666 143.553 176.448 151.889 176.448H189.19C197.667 176.448 204.591 169.666 204.591 161.188Z" fill="#FEA829"></path><path d="M188.342 47.3071L182.266 42.6445H158.954L152.878 47.3071C150.617 49.0026 149.205 51.4045 148.639 54.089H192.439C191.874 51.4045 190.461 49.0026 188.342 47.3071Z" fill="#CEECFC"></path><path d="M197.526 78.9557L192.864 71.7498C190.886 68.7827 190.462 64.9679 191.733 61.5769L192.157 60.3053C192.864 58.186 193.005 56.0666 192.581 53.9473H162.627C160.791 55.6427 160.226 58.4686 161.215 60.7292C161.638 61.8595 161.921 62.566 161.921 63.2724C162.062 64.6853 160.932 66.0982 159.519 66.2395C159.378 66.2395 159.378 66.2395 159.237 66.2395C157.965 66.2395 156.693 65.2505 156.552 63.8376C156.552 63.8376 156.411 63.555 156.269 62.9898C154.998 60.164 154.998 56.9144 156.269 54.0886H148.781C148.357 56.2079 148.498 58.3273 149.205 60.4466L149.629 61.7182C150.9 65.1092 150.477 68.924 148.498 71.8911L143.836 79.0969C139.032 86.3027 136.489 94.7802 136.489 103.54V105.801C136.489 107.496 137.76 108.768 139.456 108.768H201.624C203.319 108.768 204.591 107.496 204.591 105.801V103.54C204.732 94.7802 202.189 86.3027 197.526 78.9557ZM158.53 77.2602L153.867 84.466C150.618 89.5524 148.781 95.3453 148.357 101.138C148.216 102.551 147.086 103.681 145.673 103.681H145.531C144.118 103.54 142.988 102.269 142.988 100.856C143.412 94.0737 145.673 87.4331 149.346 81.6402L154.009 74.4344C154.857 73.1627 156.411 72.8802 157.682 73.5866C158.954 74.4344 159.378 76.1298 158.53 77.2602Z" fill="#FEA829"></path><path d="M163.193 53.3828L164.606 52.3937C165.736 51.546 166.019 49.8505 165.171 48.7202C164.323 47.5899 162.628 47.3073 161.498 48.155L160.085 49.1441C158.248 50.4157 156.976 52.1112 156.27 54.0892H162.628C162.769 53.8066 163.052 53.6653 163.193 53.3828Z" fill="#F7FBFE"></path><path d="M156.27 62.9898C156.552 63.555 156.552 63.8376 156.552 63.8376C156.694 65.2505 157.824 66.2395 159.237 66.2395C159.378 66.2395 159.378 66.2395 159.52 66.2395C160.932 66.0982 162.063 64.8266 161.921 63.2724C161.921 62.566 161.639 61.8595 161.215 60.7292C160.226 58.4686 160.791 55.784 162.628 53.9473H156.27C154.998 56.7731 154.998 60.0227 156.27 62.9898Z" fill="#FFE3BA"></path><path d="M157.682 73.5875C156.41 72.7398 154.856 73.1637 154.008 74.4353L149.346 81.6411C145.672 87.434 143.553 94.0746 143.129 100.857C142.988 102.269 144.118 103.541 145.672 103.682H145.814C147.227 103.682 148.357 102.552 148.498 101.139C148.922 95.2049 150.759 89.5533 154.008 84.4669L158.671 77.2611C159.377 76.1308 158.954 74.4353 157.682 73.5875Z" fill="#FFE3BA"></path><path d="M216.318 108.768H140.021V112.3H216.318V108.768Z" fill="#FE8618"></path><path d="M216.318 150.449H140.021V153.981H216.318V150.449Z" fill="#FECF3F"></path><path d="M216.318 117.529H201.059V145.081H216.318V117.529Z" fill="#EE1E1D"></path><path d="M201.058 117.529H140.021V145.081H201.058V117.529Z" fill="#FF3D3D"></path><path d="M155.422 117.529C155.422 126.007 148.64 132.789 140.163 132.789V117.529H155.422Z" fill="#EE1E1D"></path><path d="M194.701 128.69H161.639C160.65 128.69 159.661 127.843 159.661 126.712C159.661 125.723 160.509 124.734 161.639 124.734H194.701C195.69 124.734 196.679 125.582 196.679 126.712C196.679 127.843 195.831 128.69 194.701 128.69Z" fill="white"></path><path d="M167.856 137.45H161.639C160.65 137.45 159.661 136.603 159.661 135.472C159.661 134.483 160.509 133.494 161.639 133.494H167.856C168.845 133.494 169.834 134.342 169.834 135.472C169.834 136.603 168.987 137.45 167.856 137.45Z" fill="white"></path><path d="M194.701 137.45H177.605C176.615 137.45 175.626 136.603 175.626 135.472C175.626 134.483 176.474 133.494 177.605 133.494H194.701C195.69 133.494 196.679 134.342 196.679 135.472C196.679 136.603 195.831 137.45 194.701 137.45Z" fill="white"></path><path d="M203.602 47.3071L197.526 42.6445H182.125L188.201 47.3071C190.462 49.0026 191.875 51.4045 192.44 54.089H207.699C207.275 51.4045 205.862 49.0026 203.602 47.3071Z" fill="#B0E2FC"></path><path d="M208.122 71.7518C206.144 68.7847 205.72 64.9699 206.992 61.5789L207.416 60.3073C208.122 58.1879 208.263 56.0686 207.839 53.9492H192.439C192.863 56.0686 192.721 58.1879 192.015 60.3073L191.591 61.5789C190.319 64.9699 190.885 68.7847 192.721 71.7518L197.384 78.9576C202.047 86.3047 204.59 94.7821 204.59 103.401V105.661C204.59 107.357 203.318 108.629 201.623 108.629H217.023C218.719 108.629 219.99 107.357 219.99 105.661V103.401C219.99 94.7821 217.447 86.1634 212.785 78.9576L208.122 71.7518Z" fill="#FE8618"></path><path d="M197.387 35.0156H158.956V42.504H197.387V35.0156Z" fill="#8FCCF6"></path><path d="M195.267 21.875H161.216C158.39 21.875 156.129 24.1356 156.129 26.9615V36.1453C156.129 37.8408 157.401 39.1124 159.096 39.1124H197.527C199.223 39.1124 200.494 37.8408 200.494 36.1453V26.9615C200.494 24.1356 198.234 21.875 195.267 21.875Z" fill="#FF3D3D"></path><path d="M169.411 35.5798C168.564 35.5798 167.857 34.8733 167.857 34.0256V27.2436C167.857 26.3959 168.564 25.6895 169.411 25.6895C170.259 25.6895 170.966 26.3959 170.966 27.2436V34.0256C170.966 34.8733 170.259 35.5798 169.411 35.5798Z" fill="#EE1E1D"></path><path d="M160.651 35.5798C159.803 35.5798 159.097 34.8733 159.097 34.0256V27.2436C159.097 26.3959 159.803 25.6895 160.651 25.6895C161.499 25.6895 162.205 26.3959 162.205 27.2436V34.0256C162.205 34.8733 161.499 35.5798 160.651 35.5798Z" fill="#EE1E1D"></path><path d="M178.172 35.5798C177.324 35.5798 176.617 34.8733 176.617 34.0256V27.2436C176.617 26.3959 177.324 25.6895 178.172 25.6895C179.019 25.6895 179.726 26.3959 179.726 27.2436V34.0256C179.867 34.8733 179.161 35.5798 178.172 35.5798Z" fill="#EE1E1D"></path><path d="M187.073 35.5798C186.225 35.5798 185.519 34.8733 185.519 34.0256V27.2436C185.519 26.3959 186.225 25.6895 187.073 25.6895C187.92 25.6895 188.627 26.3959 188.627 27.2436V34.0256C188.627 34.8733 187.92 35.5798 187.073 35.5798Z" fill="#EE1E1D"></path><path d="M195.833 35.5798C194.985 35.5798 194.279 34.8733 194.279 34.0256V27.2436C194.279 26.3959 194.985 25.6895 195.833 25.6895C196.681 25.6895 197.387 26.3959 197.387 27.2436V34.0256C197.528 34.8733 196.822 35.5798 195.833 35.5798Z" fill="#EE1E1D"></path><path d="M75.4203 167.98H97.2734V165.404H75.4203V167.98Z" fill="#FF3D3D"></path><path d="M25.4052 167.98H47.2583V165.404H25.4052V167.98Z" fill="#E92B40"></path><path d="M22.0848 170.122H95.2286C96.2569 170.122 97.0282 169.221 97.0282 168.319C97.0282 167.289 96.2569 166.516 95.2286 166.516H22.0848C21.0564 166.516 20.2852 167.289 20.2852 168.319C20.2852 169.35 21.0564 170.122 22.0848 170.122Z" fill="#FFE600"></path><path d="M21.4424 175.018H98.4426C99.7281 175.018 100.885 173.859 100.885 172.571C100.885 171.282 99.7281 170.123 98.4426 170.123H21.4424C20.1569 170.123 19 171.282 19 172.571C19 173.987 20.0284 175.018 21.4424 175.018Z" fill="#C53E33"></path><path d="M99.8567 175.018L99.9853 180.685C99.9853 181.716 99.0855 182.618 98.0571 182.618H30.0553C26.0703 182.618 22.728 179.397 22.728 175.275C22.728 175.018 22.728 175.275 22.728 175.018H99.8567Z" fill="#EE8B42"></path><path d="M22.5991 166.516H97.9282C98.9566 166.516 99.8564 165.614 99.8564 164.584V146.936C99.8564 145.906 98.9566 145.004 97.9282 145.004H44.9664C44.0666 145.004 43.2953 145.004 42.3955 145.133C31.5975 146.421 23.1133 155.438 22.5991 166.516Z" fill="#EE8B3A"></path><path d="M78.1317 155.824C78.3888 156.855 79.8029 157.241 80.5741 156.468L92.0149 145.004H79.2887C77.3604 148.353 76.9748 152.346 78.1317 155.824Z" fill="#E58935"></path><path d="M59.7489 155.824C60.006 156.855 61.42 157.241 62.1913 156.468L73.6321 145.004H60.9059C59.1062 148.353 58.7205 152.217 59.7489 155.824Z" fill="#E16B2E"></path><path d="M41.4955 155.824C41.7526 156.855 43.1667 157.241 43.9379 156.468L55.3787 145.004H45.0949C44.195 145.004 43.4238 145.004 42.5239 145.133C40.7242 148.482 40.4672 152.346 41.4955 155.824Z" fill="#E16B2E"></path><path d="M96.771 148.225C97.2852 148.741 97.928 148.87 98.1851 148.612C98.4422 148.354 98.3136 147.71 97.7994 147.195C97.2852 146.68 96.6425 146.551 96.3854 146.809C96.1283 147.066 96.2568 147.71 96.771 148.225Z" fill="#FBC890"></path><path d="M94.7144 152.475C95.2286 152.991 95.8713 153.12 96.1284 152.862C96.3855 152.604 96.257 151.96 95.7428 151.445C95.2286 150.93 94.5858 150.801 94.3287 151.059C94.0716 151.316 94.2002 151.96 94.7144 152.475Z" fill="#FBC890"></path><path d="M75.1753 157.886C75.6895 158.401 76.3323 158.53 76.5894 158.272C76.8465 158.014 76.7179 157.37 76.2037 156.855C75.6895 156.34 75.0468 156.211 74.7897 156.469C74.404 156.726 74.6611 157.37 75.1753 157.886Z" fill="#FBC890"></path><path d="M52.4219 151.702C52.9361 152.217 53.5788 152.346 53.8359 152.088C54.093 151.831 53.9645 151.187 53.4503 150.672C52.9361 150.156 52.2934 150.027 52.0363 150.285C51.7792 150.543 51.9077 151.187 52.4219 151.702Z" fill="#FBC890"></path><path d="M34.169 151.446C34.6832 151.961 35.3259 152.09 35.583 151.833C35.8401 151.575 35.7116 150.931 35.1974 150.416C34.6832 149.9 34.0404 149.772 33.7833 150.029C33.3977 150.287 33.6548 150.931 34.169 151.446Z" fill="#FBC890"></path><path d="M32.7544 157.37C33.2686 157.885 33.9114 158.014 34.1685 157.756C34.4255 157.499 34.297 156.855 33.7828 156.339C33.2686 155.824 32.6259 155.695 32.3688 155.953C32.1117 156.339 32.2402 156.855 32.7544 157.37Z" fill="#FBC890"></path><path d="M39.6962 159.175C40.2104 159.69 40.8531 159.819 41.1102 159.561C41.3673 159.303 41.2387 158.659 40.7245 158.144C40.2104 157.629 39.5676 157.5 39.3105 157.758C39.0534 158.015 39.3105 158.659 39.6962 159.175Z" fill="#FBC890"></path><path d="M51.3941 157.112C51.9083 157.627 52.551 157.756 52.8081 157.499C53.0652 157.241 52.9366 156.597 52.4225 156.082C51.9083 155.566 51.2655 155.438 51.0084 155.695C50.7513 156.082 50.8799 156.726 51.3941 157.112Z" fill="#FBC890"></path><path d="M68.8758 156.727C69.39 157.243 70.0328 157.371 70.2899 157.114C70.547 156.856 70.4184 156.212 69.9042 155.697C69.39 155.182 68.7473 155.053 68.4902 155.31C68.2331 155.568 68.4902 156.212 68.8758 156.727Z" fill="#FBC890"></path><path d="M75.0469 147.581C75.5611 148.096 76.2038 148.225 76.4609 147.967C76.718 147.71 76.5895 147.066 76.0753 146.55C75.5611 146.035 74.9184 145.906 74.6613 146.164C74.2756 146.422 74.5327 147.066 75.0469 147.581Z" fill="#FBC890"></path><path d="M85.3304 154.923C85.8446 155.438 86.4874 155.567 86.7445 155.309C87.0016 155.052 86.873 154.407 86.3588 153.892C85.8446 153.377 85.2019 153.248 84.9448 153.506C84.6877 153.763 84.9448 154.407 85.3304 154.923Z" fill="#FBC890"></path><path d="M88.6729 158.659C89.1871 159.174 89.8298 159.303 90.0869 159.045C90.344 158.788 90.2155 158.144 89.7013 157.629C89.1871 157.113 88.5443 156.984 88.2872 157.242C88.0301 157.5 88.1587 158.144 88.6729 158.659Z" fill="#FBC890"></path><path d="M93.3004 147.581C92.7862 148.096 92.1435 148.225 91.8864 147.967C91.6293 147.71 91.7578 147.066 92.272 146.55C92.7862 146.035 93.4289 145.906 93.686 146.164C93.9431 146.422 93.686 147.066 93.3004 147.581Z" fill="#FBC890"></path><path d="M91.1153 152.862C90.6011 153.377 89.9584 153.506 89.7013 153.249C89.4442 152.991 89.5728 152.347 90.0869 151.832C90.6011 151.316 91.2439 151.188 91.501 151.445C91.8866 151.703 91.6295 152.347 91.1153 152.862Z" fill="#FBC890"></path><path d="M95.7428 157.886C95.2286 158.401 94.5858 158.53 94.3287 158.272C94.0716 158.014 94.2002 157.37 94.7144 156.855C95.2286 156.34 95.8713 156.211 96.1284 156.469C96.3855 156.726 96.257 157.37 95.7428 157.886Z" fill="#FBC890"></path><path d="M74.9186 152.475C74.4044 152.991 73.7616 153.12 73.5045 152.862C73.2474 152.604 73.376 151.96 73.8902 151.445C74.4044 150.93 75.0471 150.801 75.3042 151.059C75.6898 151.316 75.4327 151.96 74.9186 152.475Z" fill="#FBC890"></path><path d="M57.4356 148.225C56.9214 148.741 56.2787 148.87 56.0216 148.612C55.7645 148.354 55.8931 147.71 56.4073 147.195C56.9215 146.68 57.5642 146.551 57.8213 146.809C58.0784 147.066 57.9498 147.71 57.4356 148.225Z" fill="#FBC890"></path><path d="M48.566 155.696C48.0518 156.211 47.4091 156.34 47.152 156.083C46.8949 155.825 47.0234 155.181 47.5376 154.666C48.0518 154.15 48.6946 154.022 48.9517 154.279C49.2087 154.537 49.0802 155.181 48.566 155.696Z" fill="#FBC890"></path><path d="M56.7931 154.151C56.2789 154.667 55.6361 154.795 55.379 154.538C55.1219 154.28 55.2505 153.636 55.7647 153.121C56.2789 152.605 56.9216 152.477 57.1787 152.734C57.5644 153.121 57.3073 153.765 56.7931 154.151Z" fill="#FBC890"></path><path d="M38.6676 148.612C38.1534 149.127 37.5106 149.256 37.2535 148.999C36.9965 148.741 37.125 148.097 37.6392 147.582C38.1534 147.066 38.7961 146.938 39.0532 147.195C39.3103 147.453 39.1818 148.097 38.6676 148.612Z" fill="#FBC890"></path><path d="M31.3404 153.893C30.8262 154.409 30.1835 154.538 29.9264 154.28C29.6693 154.022 29.7979 153.378 30.312 152.863C30.8262 152.348 31.469 152.219 31.7261 152.476C31.9832 152.734 31.8546 153.378 31.3404 153.893Z" fill="#FBC890"></path><path d="M38.6676 154.28C38.1534 154.795 37.5106 154.924 37.2535 154.667C36.9965 154.409 37.125 153.765 37.6392 153.25C38.1534 152.734 38.7961 152.606 39.0532 152.863C39.3103 153.121 39.1818 153.765 38.6676 154.28Z" fill="#FBC890"></path><path d="M70.5475 152.218C70.0333 152.733 69.3905 152.862 69.1334 152.604C68.8763 152.346 69.0049 151.702 69.5191 151.187C70.0333 150.672 70.676 150.543 70.9331 150.801C71.1902 151.058 71.0616 151.702 70.5475 152.218Z" fill="#FBC890"></path><path d="M65.1485 157.886C64.6343 158.401 63.9916 158.53 63.7345 158.272C63.4774 158.014 63.606 157.37 64.1201 156.855C64.6343 156.34 65.2771 156.211 65.5342 156.469C65.9198 156.726 65.6627 157.37 65.1485 157.886Z" fill="#FBC890"></path><path d="M114.512 19.5391C124.667 32.8069 131.48 56.6375 131.48 83.6884C131.48 125.424 115.411 159.173 95.7436 159.173C90.9873 159.173 86.4882 157.241 82.2461 153.634C87.7737 160.848 94.201 164.97 101.143 164.97C120.939 164.97 136.879 131.221 136.879 89.485C136.75 57.7968 127.495 30.7459 114.512 19.5391Z" fill="#E16B2E"></path><path d="M131.351 83.6883C131.351 56.6374 124.538 32.8068 114.383 19.539C110.269 15.9322 105.77 14 101.014 14C81.2173 14 65.2773 47.7492 65.2773 89.485C65.2773 116.536 72.0904 140.366 82.2457 153.634C86.3592 157.241 90.9869 159.173 95.7432 159.173C115.411 159.302 131.351 125.424 131.351 83.6883Z" fill="#EE8B3A"></path><path d="M94.7153 52.7738C105.128 46.0754 115.154 43.1127 117.211 46.2042C119.268 49.2958 112.455 57.2822 101.914 63.9806C91.373 70.6789 81.4748 73.6416 79.4181 70.5501C77.4898 67.4585 84.3029 59.4721 94.7153 52.7738Z" fill="#E16B2E"></path><path d="M95.3577 31.5175C103.842 25.9785 112.069 23.6598 113.74 26.1073C115.411 28.6836 109.755 35.1243 101.271 40.6632C92.7868 46.2022 84.5597 48.5209 82.8886 46.0734C81.2175 43.4972 86.8736 37.0565 95.3577 31.5175Z" fill="#E16B2E"></path><path d="M146.648 75.1855L140.092 80.7245L133.665 75.1855L126.852 182.745H133.151L146.648 75.1855Z" fill="#FEAE4E"></path><path d="M127.109 80.7245L120.553 75.1855L113.997 80.7245L107.569 75.1855L101.013 80.7245L94.4575 75.1855L87.9015 80.7245L81.4741 75.1855L74.9182 80.7245L68.3622 75.1855L61.8063 80.7245L55.3789 75.1855L69.2621 182.745H126.852L133.665 75.1855L127.109 80.7245Z" fill="#FEBD6F"></path><path d="M107.056 120.143C107.056 124.136 107.827 127.486 111.941 127.486H113.226V176.564C113.226 179.913 115.926 182.747 119.397 182.747H163.103C166.445 182.747 169.273 180.042 169.273 176.564V127.486H170.559C174.544 127.486 177.886 124.265 177.886 120.143C177.886 116.15 174.672 112.801 170.559 112.801H111.941C107.956 112.801 107.056 116.15 107.056 120.143Z" fill="#BA482A"></path><path d="M76.5898 120.143C76.5898 124.136 79.8035 127.486 83.9171 127.486H85.2026V176.564C85.2026 179.913 87.9021 182.747 91.3728 182.747H131.223C134.565 182.747 137.393 180.042 137.393 176.564V127.486H138.678C142.663 127.486 146.006 124.265 146.006 120.143C146.006 116.15 142.792 112.801 138.678 112.801H83.9171C79.8035 112.801 76.5898 116.15 76.5898 120.143Z" fill="#E16B2E"></path><path d="M91.2444 178.495C90.216 178.495 89.3162 177.593 89.3162 176.563V123.234H83.9172C82.2461 123.234 80.832 121.817 80.832 120.142C80.832 118.468 82.2461 117.051 83.9172 117.051H138.55C140.221 117.051 141.635 118.468 141.635 120.142C141.635 121.817 140.221 123.234 138.55 123.234H133.151V176.563C133.151 177.593 132.251 178.495 131.223 178.495H91.2444Z" fill="#EE8B42"></path><path d="M98.8287 133.54C99.9647 133.54 100.886 132.617 100.886 131.479C100.886 130.341 99.9647 129.418 98.8287 129.418C97.6928 129.418 96.772 130.341 96.772 131.479C96.772 132.617 97.6928 133.54 98.8287 133.54Z" fill="#E16B2E"></path><path d="M126.081 167.418C126.081 168.578 125.181 169.479 124.024 169.479C122.867 169.479 121.967 168.578 121.967 167.418C121.967 166.259 122.867 165.357 124.024 165.357C125.181 165.357 126.081 166.259 126.081 167.418Z" fill="#E16B2E"></path><path d="M120.425 157.242C121.206 157.242 121.839 156.608 121.839 155.825C121.839 155.043 121.206 154.408 120.425 154.408C119.644 154.408 119.011 155.043 119.011 155.825C119.011 156.608 119.644 157.242 120.425 157.242Z" fill="#E16B2E"></path><path d="M96.6435 155.181C96.6435 155.954 96.0007 156.598 95.2295 156.598C94.4582 156.598 93.8154 155.954 93.8154 155.181C93.8154 154.408 94.4582 153.764 95.2295 153.764C96.1293 153.892 96.6435 154.537 96.6435 155.181Z" fill="#E16B2E"></path><path d="M123.124 138.049C124.686 138.049 125.952 136.78 125.952 135.215C125.952 133.65 124.686 132.381 123.124 132.381C121.563 132.381 120.296 133.65 120.296 135.215C120.296 136.78 121.563 138.049 123.124 138.049Z" fill="#E16B2E"></path><path d="M102.814 152.348C104.376 152.348 105.642 151.079 105.642 149.514C105.642 147.948 104.376 146.68 102.814 146.68C101.252 146.68 99.9858 147.948 99.9858 149.514C99.9858 151.079 101.252 152.348 102.814 152.348Z" fill="#E16B2E"></path><path d="M115.925 173.859C117.487 173.859 118.753 172.59 118.753 171.025C118.753 169.46 117.487 168.191 115.925 168.191C114.363 168.191 113.097 169.46 113.097 171.025C113.097 172.59 114.363 173.859 115.925 173.859Z" fill="#E16B2E"></path><path d="M111.298 123.491C111.298 124.264 110.655 124.908 109.884 124.908C109.112 124.908 108.47 124.264 108.47 123.491C108.47 122.718 109.112 122.074 109.884 122.074C110.655 122.074 111.298 122.718 111.298 123.491Z" fill="#E16B2E"></path><path d="M102.042 167.804C102.042 168.964 101.142 169.865 99.9855 169.865C98.8285 169.865 97.9287 168.964 97.9287 167.804C97.9287 166.645 98.8285 165.743 99.9855 165.743C101.142 165.615 102.042 166.645 102.042 167.804Z" fill="#E16B2E"></path><path fill-rule="evenodd" clip-rule="evenodd" d="M154.758 149.411C158.902 135.529 174.451 128.424 189.445 133.562C204.44 138.701 213.17 154.127 209.027 168.01C204.883 181.893 189.418 189.027 174.424 183.888C159.43 178.749 150.614 163.294 154.758 149.411Z" fill="#AA7733"></path><path fill-rule="evenodd" clip-rule="evenodd" d="M161.834 152.138C162.282 150.639 163.936 149.815 165.64 150.399C167.259 150.954 168.269 152.604 167.798 154.181C167.35 155.68 165.696 156.504 163.992 155.92C162.288 155.336 161.387 153.636 161.834 152.138Z" fill="#95591E"></path><path fill-rule="evenodd" clip-rule="evenodd" d="M155.787 156.738C156.234 155.239 157.866 154.493 159.485 155.048C161.104 155.603 162.115 157.254 161.644 158.832C161.196 160.331 159.541 161.155 157.837 160.571C156.241 159.937 155.339 158.237 155.787 156.738Z" fill="#95591E"></path><path fill-rule="evenodd" clip-rule="evenodd" d="M159.676 144.782C159.228 146.281 160.129 147.981 161.833 148.565C163.452 149.12 165.168 148.404 165.639 146.826C166.086 145.327 165.185 143.627 163.481 143.043C161.754 142.538 160.123 143.284 159.676 144.782Z" fill="#95591E"></path><path d="M170.417 142.974C170.005 143.094 169.721 142.474 170.132 142.354C175.311 140.738 180.351 141.16 185.351 143.918C185.754 144.142 185.395 144.715 184.993 144.49C180.248 141.821 175.402 141.377 170.417 142.974ZM157.485 163.326C157.409 162.952 158.014 162.812 158.175 163.215C159.545 168.381 162.347 172.211 166.775 174.685C167.177 174.909 166.818 175.482 166.416 175.257C161.818 172.725 158.784 168.729 157.485 163.326ZM162.237 168.173C161.967 167.819 162.449 167.463 162.743 167.737C166.876 172.458 171.74 176.299 177.618 176.748C178.067 176.815 178.073 177.426 177.6 177.438C171.528 177.009 166.408 173.081 162.237 168.173ZM162.089 159.86C161.819 159.507 162.386 159.179 162.656 159.533C165.666 163.608 170.311 165.983 175.471 167.577C175.897 167.723 175.709 168.354 175.283 168.208C170.038 166.585 165.222 164.152 162.089 159.86ZM166.078 156.879C165.676 156.654 165.926 156.131 166.352 156.277C169.922 157.849 173.359 159.548 176.664 161.377C177.067 161.602 176.793 162.204 176.391 161.979C173 160.121 169.563 158.421 166.078 156.879ZM169.38 153.054C168.931 152.987 168.949 152.297 169.398 152.365C175.801 153.254 182.66 154.822 187.487 158.476C187.865 158.78 187.445 159.245 187.066 158.941C182.448 155.532 175.698 153.915 169.38 153.054ZM166.511 148.505C166.1 148.625 165.839 147.927 166.335 147.836C170.574 146.854 174.714 147.142 178.498 149.57C178.901 149.794 178.542 150.367 178.139 150.142C174.417 147.823 170.532 147.622 166.511 148.505ZM165.484 140.935C165.281 141.3 164.599 141.067 164.825 140.623C166.905 135.857 171.564 134.41 177.186 134.771C177.636 134.838 177.641 135.449 177.168 135.461C171.825 135.108 167.469 136.485 165.484 140.935ZM184.091 149.399C183.618 149.411 183.527 148.771 184 148.759C190.098 148.153 196.107 150.995 201.506 154.933C201.885 155.236 201.465 155.701 201.086 155.397C195.748 151.568 189.995 148.814 184.091 149.399ZM179.018 138.703C178.545 138.715 178.454 138.075 178.842 138.034C186.515 137.186 193.341 139.177 198.805 144.789C199.098 145.063 198.678 145.528 198.299 145.224C192.983 139.75 186.498 137.875 179.018 138.703ZM194.866 146.656C194.44 146.51 194.713 145.908 195.139 146.054C199.453 147.967 203.577 150.512 205.759 154.216C206.006 154.648 205.377 154.868 205.192 154.543C202.963 150.997 199.009 148.511 194.866 146.656ZM205.02 150.397C204.75 150.044 205.403 149.746 205.588 150.07C208.04 154.128 209.522 158.288 209.367 162.583C209.334 163.007 208.691 162.96 208.638 162.507C208.855 158.32 207.434 154.268 205.02 150.397ZM168.356 179.14C167.954 178.915 168.228 178.313 168.63 178.538C174.203 181.579 180.926 184.23 186.228 182.83C186.64 182.71 186.925 183.329 186.513 183.449C180.97 185.028 174.162 182.347 168.356 179.14ZM174.082 172.232C173.679 172.007 174.038 171.434 174.441 171.659C179.3 174.89 184.489 177.016 189.849 176.679C190.322 176.667 190.413 177.307 189.94 177.319C184.385 177.676 179.026 175.492 174.082 172.232ZM174.771 163.945C174.368 163.721 174.727 163.148 175.129 163.373C181.305 167.228 187.616 170 194.422 171.115C194.871 171.182 194.768 171.842 194.319 171.775C187.513 170.66 181.031 167.83 174.771 163.945ZM186.982 162.999C186.579 162.775 186.938 162.202 187.341 162.427C192.602 165.882 198.041 167.485 203.755 165.965C204.166 165.845 204.428 166.543 204.04 166.584C198.132 168.125 192.414 166.513 186.982 162.999ZM191.98 157.581C191.554 157.435 191.743 156.804 192.169 156.95C197.523 158.524 203.114 160.875 206.101 165.029C206.371 165.383 205.803 165.71 205.533 165.357C202.561 161.468 197.164 159.097 191.98 157.581ZM190.953 173.926C190.527 173.78 190.63 173.12 191.056 173.266C196.968 174.857 202.096 174.354 205.601 170.163C205.89 169.827 206.415 170.268 206.127 170.604C202.551 175.031 197.12 175.605 190.953 173.926ZM189.988 181.248C189.538 181.181 189.556 180.492 190.006 180.559C194.611 181.18 198.494 179.815 201.792 176.945C202.142 176.717 202.583 177.129 202.295 177.465C198.864 180.464 194.763 181.928 189.988 181.248Z" fill="#95591E"></path><path fill-rule="evenodd" clip-rule="evenodd" d="M74.0129 193.607C72.5906 193.207 68.5901 190.273 66.901 188.584C63.5673 185.25 62.4116 181.427 63.5673 177.205C64.8564 173.56 68.3679 170.893 74.2796 171.026C80.1469 170.893 83.6585 173.56 84.9919 177.205C86.1032 181.427 84.9919 185.25 81.6582 188.584C79.9692 190.228 76.0132 193.162 74.5463 193.607C74.3241 193.651 74.2352 193.651 74.0129 193.607Z" fill="#AF5736"></path><path fill-rule="evenodd" clip-rule="evenodd" d="M74.2352 192.807C75.7909 192.718 79.3913 186.362 78.8135 178.494C78.369 173.961 76.9466 171.471 70.1459 172.449C67.39 172.849 65.5676 174.583 64.6341 177.65C63.6118 181.384 64.4563 184.984 67.0789 187.695C70.1459 190.896 72.5017 192.585 74.2352 192.807Z" fill="#D46D44"></path><path fill-rule="evenodd" clip-rule="evenodd" d="M67.1678 175.159C66.0122 176.226 65.6121 177.382 65.3899 179.16C65.301 179.916 65.3899 181.116 65.8344 182.005C66.4567 183.205 67.1678 183.338 67.3012 182.094C67.5234 180.493 67.879 178.627 68.6791 177.604C70.5015 175.426 68.3235 174.226 67.1678 175.159Z" fill="#DD8359"></path><path d="M66.5901 174.404C66.6345 174.315 66.7679 174.315 66.8568 174.359C66.9457 174.404 67.2568 174.759 67.2124 174.848C64.0565 178.982 64.6343 184.049 68.1014 187.872C69.2571 189.116 70.4572 190.583 72.3241 191.961C71.4795 191.028 70.7683 189.872 70.1016 188.85C67.2124 185.561 67.8791 179.871 69.8349 175.293C69.8794 175.204 69.9683 175.115 70.0572 175.159C70.1461 175.204 70.1905 175.293 70.1905 175.382C68.6348 179.293 67.7902 185.383 70.3683 188.894C71.4795 190.583 72.813 192.095 74.4576 193.517L74.591 193.606C74.3687 193.65 74.2798 193.65 74.0576 193.606C74.0131 193.606 73.9243 193.561 73.8798 193.561C71.1239 191.65 69.0348 189.872 67.5235 188.227C63.9231 184.316 63.3008 178.671 66.5901 174.404Z" fill="#99452B"></path><path d="M77.258 175.382C77.2135 175.293 77.3024 175.16 77.3913 175.16C77.4802 175.115 77.8803 175.115 77.9247 175.249C78.4137 177.249 78.6804 179.116 78.7248 180.805C78.8582 184.228 77.4358 187.961 76.1023 191.073C75.7467 191.873 75.4355 192.495 75.1244 192.94C76.0578 192.362 76.9913 191.517 77.8358 190.495C78.9915 189.117 79.7027 187.25 80.6806 185.117C81.4362 182.983 81.614 181.249 81.3918 179.605C81.1251 177.827 80.725 176.227 79.5693 174.982C79.5249 174.893 79.5249 174.804 79.5693 174.715C79.6582 174.626 79.7471 174.671 79.836 174.715C81.0362 176.049 81.8363 177.605 82.103 179.471C82.3697 181.205 82.1474 183.161 81.3918 185.383C80.3694 187.561 79.3026 189.339 78.147 190.717C77.3469 191.695 76.4579 192.495 75.5689 193.117C75.1689 193.34 74.8577 193.473 74.591 193.562C74.3688 193.651 74.2354 193.651 74.0576 193.562L74.2354 193.429C74.7244 193.073 75.2578 192.228 75.8356 190.895C77.1691 187.872 78.2803 184.183 78.147 180.849C78.0581 179.205 77.7469 177.382 77.258 175.382Z" fill="#99452B"></path><path d="M71.6569 175.47C71.6569 175.381 71.7458 175.292 71.8791 175.292C71.968 175.292 72.0569 175.426 72.0125 175.515C71.3902 179.293 71.2568 182.404 71.6124 184.982C72.0569 187.116 72.5014 188.894 72.9904 190.316C73.4349 191.65 73.8793 192.672 74.3238 193.428C76.5463 192.228 78.3243 190.761 79.7022 189.027C81.0801 187.294 82.0136 185.249 82.5025 182.938C82.7248 181.115 82.6803 179.56 82.3247 178.271C81.9691 176.981 81.3913 175.915 80.5023 175.115C80.4134 175.026 80.4134 174.937 80.5023 174.848C80.5912 174.759 80.6801 174.759 80.769 174.848C81.7024 175.692 82.3247 176.804 82.6803 178.182C83.0359 179.515 83.0804 181.115 82.8581 182.982C82.3692 185.338 81.3913 187.427 79.9689 189.205C78.7688 190.716 77.2575 192.05 75.3906 193.206C75.0795 193.383 74.7683 193.517 74.5461 193.561C74.3238 193.606 74.2349 193.65 74.0127 193.606C73.5237 192.85 73.0348 191.783 72.5903 190.405C72.1014 188.938 71.6569 187.16 71.2124 185.027C70.8568 182.449 70.9901 179.248 71.6569 175.47Z" fill="#99452B"></path><path d="M73.0355 174.893C73.0355 174.804 73.1244 174.715 73.2578 174.715C73.3467 174.715 73.7023 174.848 73.7023 174.937C73.2133 178.582 73.1244 181.96 73.3022 185.072C73.48 188.005 73.5689 190.717 74.369 193.161C75.1691 191.517 75.7025 189.25 75.9247 186.405C76.1914 183.294 76.147 179.515 75.7469 175.026C75.7469 174.937 75.8358 174.848 75.9247 174.804C76.0136 174.804 76.1025 174.893 76.1025 174.982C76.5026 179.515 76.547 183.338 76.2803 186.449C76.0136 189.516 75.4358 191.872 74.5468 193.606C73.7023 191.028 73.2133 188.183 73.0355 185.072C72.3688 181.96 72.5466 178.582 73.0355 174.893Z" fill="#99452B"></path><path d="M66.5899 174.404C66.6344 174.315 66.7677 174.315 66.8566 174.359C66.9455 174.404 67.2567 174.759 67.2122 174.848C64.0563 178.982 64.6341 184.049 68.1012 187.872C69.2569 189.116 70.457 190.583 72.3239 191.961C71.4794 191.028 70.7682 189.872 70.1014 188.85C67.2122 185.561 67.8789 179.871 69.8347 175.293C69.8792 175.204 69.9681 175.115 70.057 175.159C70.1459 175.204 70.1903 175.293 70.1903 175.382C68.6346 179.293 67.7901 185.383 70.3681 188.894C71.2571 190.228 72.2794 191.472 73.4796 192.628C71.8794 192.095 69.7458 190.45 67.1233 187.739C63.8785 183.827 63.434 178.493 66.5899 174.404Z" fill="#BE5434"></path><path d="M77.2581 175.382C77.2136 175.293 77.3025 175.159 77.3914 175.159C77.4803 175.115 77.8804 175.115 77.9248 175.248C78.4138 177.249 78.6804 179.115 78.7249 180.804C78.8138 184.005 77.5692 187.561 76.3246 190.583C75.9246 191.25 75.5245 191.828 75.1689 192.184C75.3467 191.828 75.569 191.428 75.7468 190.939C77.0803 187.916 78.1915 184.227 78.0582 180.893C78.0582 179.204 77.747 177.382 77.2581 175.382Z" fill="#BE5434"></path><path d="M71.6573 175.471C71.6573 175.382 71.7462 175.293 71.8795 175.293C71.9684 175.293 72.0573 175.426 72.0129 175.515C71.3906 179.293 71.2572 182.405 71.6128 184.983C72.0573 187.117 72.5018 188.894 72.9908 190.317C73.3019 191.295 73.6575 192.095 73.9687 192.762C73.8353 192.717 73.6575 192.673 73.4797 192.628C73.1686 192.006 72.9019 191.295 72.6352 190.406C72.1462 188.939 71.7017 187.161 71.2573 185.027C70.8572 182.449 70.9906 179.249 71.6573 175.471Z" fill="#BE5434"></path><path d="M73.0357 174.893C73.0357 174.804 73.1246 174.715 73.2579 174.715C73.3468 174.715 73.7024 174.848 73.7024 174.937C73.2135 178.582 73.1246 181.96 73.3024 185.072C73.4802 187.872 73.5691 190.45 74.2358 192.806C74.1025 192.806 73.9691 192.761 73.8358 192.717C73.169 190.405 72.7245 187.872 72.5912 185.116C72.3689 181.96 72.5467 178.582 73.0357 174.893ZM74.547 192.672C75.2137 191.072 75.6582 188.983 75.8804 186.405C76.1471 183.294 76.1027 179.515 75.7026 175.026C75.7026 174.937 75.7915 174.848 75.8804 174.804C75.9693 174.804 76.0582 174.893 76.0582 174.982C76.4583 179.515 76.5027 183.338 76.236 186.449C76.0138 188.761 75.6582 190.717 75.0804 192.272C74.9026 192.45 74.7248 192.628 74.547 192.672Z" fill="#BE5434"></path><path fill-rule="evenodd" clip-rule="evenodd" d="M74.2358 177.293C74.4136 177.516 74.6358 177.516 74.9025 177.293C75.0803 177.471 75.3026 177.471 75.4804 177.249C75.7026 177.471 75.9249 177.471 76.1916 177.205C76.5027 177.427 76.8139 177.382 77.0806 177.116C77.3473 177.338 77.5695 177.293 77.8362 176.982C78.2362 177.16 78.6363 177.071 78.9919 176.76C79.1697 176.982 79.3919 176.938 79.6142 176.627C79.9253 176.76 80.2365 176.671 80.5921 176.404C80.9032 176.582 81.1699 176.493 81.3477 176.182C81.7033 176.271 82.0144 176.138 82.2367 175.871C82.6367 175.96 82.9479 175.827 83.0812 175.471C83.5257 175.471 83.748 175.338 83.7924 175.071C83.748 175.027 83.748 174.982 83.7035 174.938V174.893C83.6591 174.849 83.6591 174.804 83.6146 174.804V174.76L83.5702 174.715L83.5257 174.627V174.582L83.4813 174.538L83.3924 174.449L83.3479 174.404V174.36L83.3035 174.271V174.226L83.259 174.315C83.2146 174.271 83.2146 174.271 83.1701 174.226L83.1257 174.182V174.138L83.0368 174.049L82.9923 174.004V173.96C82.9479 173.915 82.9034 173.915 82.9034 173.871H82.859L82.8145 173.826L82.7256 173.738L82.6812 173.693H82.6367L82.5923 173.649L82.5034 173.56L82.4589 173.515L82.37 173.471C80.4143 172.093 77.7473 171.293 74.2358 171.382C70.7243 171.293 68.0573 172.093 66.1016 173.471L66.0127 173.515L65.9238 173.56L65.8793 173.604C65.8349 173.649 65.8349 173.649 65.7904 173.693L65.7015 173.738L65.746 173.826L65.7015 173.871L65.6571 173.915L65.6126 173.96L65.5237 174.049H65.4793L65.4348 174.093C65.3904 174.138 65.3904 174.138 65.3459 174.182L65.3015 174.226C65.3015 174.226 65.3015 174.271 65.257 174.315V174.36C65.2126 174.404 65.2126 174.449 65.1681 174.449V174.493C65.1237 174.538 65.1237 174.582 65.0792 174.582L65.0348 174.627C64.9903 174.671 64.9903 174.715 64.9459 174.76H64.9014C64.857 174.804 64.857 174.849 64.8125 174.849V174.893C64.7681 174.938 64.7681 174.982 64.7236 175.027C64.7681 175.293 64.9903 175.427 65.4348 175.427C65.6126 175.827 65.8793 175.96 66.2794 175.827C66.5016 176.093 66.7683 176.227 67.1683 176.138C67.3461 176.449 67.6128 176.538 67.924 176.36C68.2796 176.671 68.6352 176.716 68.9019 176.582C69.1241 176.893 69.3464 176.938 69.5242 176.716C69.8798 177.027 70.2798 177.116 70.6799 176.938C70.9465 177.205 71.2132 177.249 71.4355 177.071C71.7022 177.382 71.9689 177.382 72.3245 177.16C72.5467 177.427 72.8134 177.471 73.0357 177.205C73.2579 177.427 73.4802 177.427 73.658 177.249C73.8358 177.516 74.058 177.516 74.2358 177.293Z" fill="#9A432B"></path><path fill-rule="evenodd" clip-rule="evenodd" d="M74.2351 177.294C74.4129 177.517 74.6351 177.517 74.9018 177.294C75.0796 177.472 75.3019 177.472 75.4796 177.25C75.7019 177.472 75.9241 177.472 76.1908 177.205C76.502 177.428 76.8131 177.383 77.0798 177.117C77.3465 177.339 77.5688 177.294 77.8355 176.983C78.1022 177.117 78.3244 177.117 78.5911 177.028C77.9244 173.472 76.1464 171.605 70.1013 172.449C68.0566 172.761 66.5009 173.783 65.4341 175.605C65.6119 175.872 65.8786 175.961 66.1897 175.872C66.412 176.139 66.6787 176.272 67.0787 176.183C67.2565 176.494 67.5232 176.583 67.8344 176.405C68.1899 176.717 68.5455 176.761 68.8122 176.628C69.0345 176.939 69.2567 176.983 69.4345 176.761C69.7901 177.072 70.1902 177.161 70.5902 176.983C70.8569 177.25 71.1236 177.294 71.3459 177.117C71.6125 177.428 71.8792 177.428 72.2348 177.205C72.4571 177.472 72.7238 177.517 72.946 177.25C73.1683 177.472 73.3905 177.472 73.5683 177.294C73.835 177.517 74.0573 177.517 74.2351 177.294Z" fill="#AC4A2E"></path><path fill-rule="evenodd" clip-rule="evenodd" d="M74.2352 176.937C74.413 177.16 74.6352 177.16 74.8575 176.937C75.0353 177.115 75.2131 177.115 75.4353 176.893C75.6575 177.115 75.8798 177.115 76.102 176.849C76.4132 177.071 76.6799 177.026 76.9466 176.76C77.1688 176.982 77.3911 176.937 77.6578 176.626C78.0578 176.804 78.4134 176.715 78.769 176.404C78.9468 176.626 79.1246 176.582 79.3468 176.271C79.6135 176.404 79.9247 176.315 80.2803 176.048C80.5914 176.226 80.8137 176.137 80.9915 175.826C81.3471 175.915 81.6138 175.782 81.836 175.515C82.2361 175.604 82.5028 175.471 82.6361 175.115C83.1695 175.115 83.3917 174.893 83.3028 174.404C81.4804 172.27 78.4579 170.937 74.2352 171.026C70.0125 170.937 66.9899 172.27 65.1675 174.404C65.0786 174.893 65.3008 175.115 65.8342 175.115C66.012 175.515 66.2787 175.648 66.6343 175.515C66.8566 175.782 67.1233 175.915 67.4789 175.826C67.6567 176.137 67.8789 176.226 68.19 176.048C68.5456 176.36 68.8568 176.448 69.1235 176.271C69.3457 176.582 69.5235 176.626 69.7013 176.404C70.0569 176.715 70.4125 176.804 70.8126 176.626C71.0793 176.893 71.3015 176.937 71.5238 176.76C71.7904 177.071 72.0571 177.071 72.3683 176.849C72.5905 177.115 72.8128 177.16 73.035 176.893C73.2573 177.115 73.4351 177.115 73.6129 176.937C73.8796 177.16 74.0574 177.204 74.2352 176.937Z" fill="#DC9B66"></path><path fill-rule="evenodd" clip-rule="evenodd" d="M74.2354 176.938C74.4132 177.16 74.6355 177.16 74.8577 176.938C75.0355 177.115 75.2133 177.115 75.4356 176.893C75.6578 177.115 75.8801 177.115 76.1023 176.849C76.4135 177.071 76.6802 177.027 76.9469 176.76C77.1691 176.982 77.3913 176.938 77.658 176.626C77.9692 176.76 78.2359 176.76 78.5026 176.582C77.7914 173.293 75.9245 171.604 70.1016 172.404C68.2348 172.67 66.7679 173.559 65.7456 175.071H65.7901C65.9679 175.471 66.2345 175.604 66.5901 175.471C66.8124 175.737 67.0791 175.871 67.4347 175.782C67.6125 176.093 67.8347 176.182 68.1459 176.004C68.5015 176.315 68.8126 176.404 69.0793 176.226C69.3016 176.538 69.4794 176.582 69.6572 176.36C70.0127 176.671 70.3683 176.76 70.7684 176.582C71.0351 176.849 71.2573 176.893 71.4796 176.715C71.7463 177.027 72.013 177.027 72.3241 176.804C72.5464 177.071 72.7686 177.115 72.9909 176.849C73.2131 177.071 73.3909 177.071 73.5687 176.893C73.8798 177.16 74.0576 177.204 74.2354 176.938Z" fill="#E9A76D"></path><path fill-rule="evenodd" clip-rule="evenodd" d="M66.4126 176.005C66.5904 176.182 66.8571 176.227 67.1238 176.182C67.3016 176.494 67.5683 176.582 67.8794 176.405C68.235 176.716 68.5906 176.76 68.8573 176.627C68.9462 176.76 69.0351 176.849 69.124 176.894C70.013 175.205 68.1461 174.36 67.1238 175.16C66.8571 175.427 66.5904 175.693 66.4126 176.005Z" fill="#BC6243"></path><path fill-rule="evenodd" clip-rule="evenodd" d="M66.7236 175.605C66.9014 175.827 67.1681 175.916 67.4793 175.827C67.6571 176.138 67.8793 176.227 68.1905 176.049C68.5461 176.36 68.8572 176.449 69.1239 176.271C69.1683 176.36 69.2128 176.405 69.2572 176.449C69.7017 175.027 68.0571 174.36 67.1237 175.116C66.9903 175.293 66.857 175.427 66.7236 175.605Z" fill="#EDB87F"></path><path fill-rule="evenodd" clip-rule="evenodd" d="M59.4777 187.695C58.0997 187.339 54.1437 184.45 52.4991 182.805C49.2543 179.516 48.0986 175.827 49.2543 171.693C50.5433 168.092 52.8992 164.759 58.1886 166.225C60.1 165.781 62.278 165.87 63.8782 166.626C67.5675 165.114 69.301 169.204 70.19 171.693C71.2568 175.827 70.19 179.56 66.9452 182.805C65.345 184.45 61.4779 187.25 60.0555 187.695C59.8333 187.783 59.6999 187.783 59.4777 187.695Z" fill="#E6C6A7"></path><path fill-rule="evenodd" clip-rule="evenodd" d="M63.8335 166.625C65.9671 168.892 66.9894 171.47 66.9449 174.404C66.5004 177.471 64.1002 181.916 59.7441 187.739C59.833 187.739 59.9219 187.739 60.0108 187.694C61.4777 187.25 65.3003 184.449 66.9005 182.805C70.1453 179.515 71.2121 175.826 70.1453 171.692C69.3008 169.203 67.5672 165.114 63.8335 166.625Z" fill="#E6C6A7"></path><path fill-rule="evenodd" clip-rule="evenodd" d="M59.8331 185.96C61.7444 181.338 62.9001 177.248 63.3446 173.737C63.478 169.114 62.2334 166.714 59.4775 166.625C57.4328 166.625 55.0326 168.403 54.4547 170.359C52.7656 175.959 54.2769 181.16 58.9886 186.005C59.3886 186.405 59.6998 186.405 59.8331 185.96Z" fill="#F5D7BA"></path><path fill-rule="evenodd" clip-rule="evenodd" d="M58.1881 166.225C54.4544 167.381 52.7209 170.582 53.032 175.738C53.2098 179.205 55.4767 183.205 59.7883 187.739C59.6994 187.739 59.6105 187.739 59.5216 187.695C58.1437 187.339 54.1877 184.45 52.5431 182.805C49.2982 179.516 48.1426 175.827 49.2982 171.693C50.5428 168.092 52.8986 164.759 58.1881 166.225Z" fill="#F5D7BA"></path><path fill-rule="evenodd" clip-rule="evenodd" d="M54.1435 179.561C55.0325 181.517 56.8993 184.273 59.7886 187.74C58.544 186.762 54.588 182.317 53.4767 179.428C52.2322 176.05 52.6322 171.916 53.5656 169.738C54.3657 167.916 55.9215 166.671 58.1884 166.182C58.544 166.093 58.7662 166.049 58.7662 166.049C56.1882 167.16 54.6324 168.538 54.099 170.183C53.1212 173.472 53.1212 176.628 54.1435 179.561Z" fill="#D9B69A"></path><path fill-rule="evenodd" clip-rule="evenodd" d="M65.3448 179.871C62.8111 184.005 60.9443 186.628 59.7441 187.783C64.3224 179.56 70.2786 175.115 63.8335 166.67C67.4783 170.048 68.3673 174.271 65.3448 179.871Z" fill="#CEA98C"></path><path fill-rule="evenodd" clip-rule="evenodd" d="M56.0107 175.871C56.5441 174.271 57.0775 173.205 57.7442 171.96C59.0332 169.515 58.811 168.137 57.8331 167.959C56.4107 167.737 55.4328 169.382 54.9439 172.049C54.3216 175.827 55.4773 178.138 56.0107 175.871Z" fill="#FAEADB"></path><path fill-rule="evenodd" clip-rule="evenodd" d="M51.7879 195.518C55.6994 196.362 59.3887 196.051 62.4113 194.94C63.4781 194.54 67.4785 192.629 67.6563 191.695C68.0119 190.806 65.7006 187.028 65.0338 186.095C63.1225 183.516 60.1888 181.205 56.4995 179.738C51.1656 177.782 45.1205 177.871 43.0758 184.183C41.0311 190.673 46.2762 194.273 51.7879 195.518Z" fill="#BF6831"></path><path fill-rule="evenodd" clip-rule="evenodd" d="M45.075 184.094C46.6752 179.826 51.9646 178.849 58.3209 181.782C63.1214 184.405 66.9885 189.561 66.4996 190.983C66.1884 192.094 61.2546 192.317 53.5648 191.383C46.8085 190.183 44.1415 187.249 45.075 184.094Z" fill="#DF8B3F"></path><path fill-rule="evenodd" clip-rule="evenodd" d="M62.4104 186.762C63.8772 187.918 64.2328 187.918 63.4327 186.717C61.1658 183.828 58.6322 182.628 57.921 183.428C57.521 184.006 57.6988 184.45 58.41 184.673C60.0546 185.295 61.3881 186.006 62.4104 186.762Z" fill="#E8AA70"></path><path d="M42.7192 187.873C42.8526 187.828 42.9859 187.828 43.0304 187.917C43.4749 188.317 43.8305 188.94 44.3194 189.073C45.164 189.295 46.0529 188.495 46.7641 188.806C47.742 189.295 46.9864 189.962 48.1421 190.051C48.7199 190.14 49.3422 190.184 49.8756 190.896H49.92C50.5423 191.962 52.3203 191.74 53.9649 191.607C55.5207 191.473 56.4097 191.473 57.9654 191.784C58.6766 191.918 59.4767 192.051 60.3212 192.273C60.7657 192.362 60.6323 192.629 60.1879 192.54C59.3433 192.318 58.5432 192.54 57.8765 192.407C57.0319 192.273 54.7206 191.918 54.0094 191.962C52.187 192.185 50.1867 192.673 49.3866 191.251C49.0311 190.807 48.631 190.495 48.1865 190.451C46.3641 190.318 47.1197 189.784 46.4085 189.429C46.0085 189.251 45.0751 189.651 44.1861 189.429C43.7416 189.295 43.2526 189.029 42.8081 188.673C42.8081 188.406 42.7192 188.14 42.7192 187.873Z" fill="#8D4725"></path><path d="M42.8082 188.094C42.7637 188.094 42.7637 188.094 42.7193 188.05C42.6748 187.872 42.6748 187.65 42.6748 187.428C42.6748 187.383 42.7193 187.383 42.7193 187.383C43.3415 187.339 43.9194 187.294 44.5417 187.339C45.164 187.383 45.6529 187.828 46.2752 187.961C46.6753 188.094 46.6308 188.406 46.1863 188.317C45.6085 188.139 45.0751 188.05 44.4972 188.005C43.9194 187.961 43.3415 188.005 42.8082 188.094Z" fill="#8D4725"></path><path d="M42.8976 187.517C42.8087 187.562 42.7198 187.606 42.6309 187.562C42.6309 187.339 42.6309 187.162 42.6309 186.895C43.5643 186.273 44.4977 185.873 45.4312 185.695C47.4314 185.206 47.5647 185.917 49.076 186.184C49.3872 186.228 49.8317 186.406 50.1428 186.406C50.5873 186.406 50.6318 186.717 50.1873 186.717C49.8317 186.717 49.4761 186.717 49.1205 186.628C47.6981 186.362 47.0314 185.606 45.3867 186.006C44.5422 186.228 43.831 186.939 42.8976 187.517Z" fill="#8D4725"></path><path d="M45.8755 187.161C45.4755 187.161 45.431 186.895 45.8755 186.895C46.6756 186.939 47.2979 186.806 47.8757 187.072C48.498 187.339 49.0314 187.65 49.387 188.184C49.6093 188.406 49.6537 188.895 49.9204 189.028C50.8094 189.339 51.6984 188.539 52.6763 188.628C53.2097 188.673 53.7875 188.806 54.4098 189.073C55.1654 189.339 55.7433 189.873 56.41 190.006C57.0768 190.139 57.8769 189.828 58.4991 189.828C59.966 189.606 60.6772 190.673 62.0551 191.073C62.6774 191.251 63.2997 191.473 63.9664 191.473C64.1442 191.473 64.3665 191.295 64.3665 191.473C64.3665 191.695 64.2331 191.828 64.0553 191.828C63.3441 191.828 62.6329 191.74 61.9662 191.562C60.8105 191.251 59.8326 190.317 58.588 190.495C58.588 190.495 58.5436 190.539 58.4991 190.495C57.8324 190.495 57.1212 190.45 56.41 190.317C55.6988 190.184 54.9432 189.962 54.1876 189.695C53.6097 189.473 53.0763 189.339 52.6318 189.295C51.4761 189.206 51.1205 189.784 49.876 189.339C49.4759 189.206 49.1203 188.984 48.8981 188.628H48.8536C48.5425 188.184 48.1424 187.828 47.6535 187.606C47.1201 187.295 46.5423 187.161 45.8755 187.161Z" fill="#8D4725"></path><path d="M49.654 187.517C49.4762 187.473 49.3873 187.251 49.4317 187.117C49.4762 186.94 49.6984 187.117 49.8762 187.162C50.2318 187.251 50.4985 187.029 50.8097 187.029C51.1208 187.029 51.432 186.984 51.7431 186.851C52.0987 186.762 52.4543 186.717 52.8988 186.806C54.3212 186.984 56.188 188.362 57.4326 188.362C57.6104 188.362 57.966 188.273 57.9216 188.495C57.9216 188.673 57.7882 188.851 57.566 188.806C56.9437 188.806 56.3214 188.718 55.6991 188.54C54.6768 188.273 53.9211 187.384 52.8988 187.206C52.5432 187.162 52.1876 187.429 51.9654 187.517H51.9209C51.5653 187.606 51.2097 187.695 50.8097 187.695C50.4096 187.695 50.054 187.651 49.654 187.517Z" fill="#8D4725"></path><path d="M43.5191 186.317C43.3413 186.45 43.1635 186.361 43.0746 186.228C42.9413 186.095 42.9857 185.872 43.1635 185.783C44.6748 184.628 46.3194 184.183 48.0085 183.872C50.7199 183.383 52.0978 183.739 54.4537 184.05C54.8537 184.139 55.2537 184.139 55.6538 184.183C56.0983 184.139 56.4094 183.961 56.9428 184.139C57.4762 184.272 58.2319 184.761 58.8541 185.117C59.9209 185.517 61.0766 186.095 62.2767 186.895C62.8546 187.295 66.6772 189.917 66.1883 190.495C66.0994 190.539 65.7882 190.184 65.6549 190.051C64.3214 188.806 63.1213 188.228 61.9212 187.472C60.6766 186.628 59.6542 186.361 58.4985 185.694C57.9207 185.339 57.3429 185.117 56.8984 184.983C56.5428 184.894 55.8316 185.028 55.476 185.028C55.0315 184.983 54.7203 184.761 54.3203 184.717C52.0534 184.405 50.7644 183.694 48.0974 184.228C46.4972 184.583 44.9859 185.25 43.5191 186.317Z" fill="#8D4725"></path><path d="M47.7868 185.071C47.609 185.071 47.2979 185.249 47.209 185.071C47.209 184.894 47.2979 184.716 47.5201 184.716C48.3647 184.582 49.2092 184.582 50.0093 184.671C52.8541 185.027 52.2318 185.783 54.5431 186.583C55.2543 186.849 56.0544 186.983 56.5434 187.027C56.7212 187.027 56.9434 187.027 56.9434 187.205C56.899 187.383 56.6767 187.249 56.4989 187.249C55.9211 187.205 55.3432 187.338 54.5431 187.027C52.943 186.494 51.6095 185.56 49.9204 185.338C49.2092 185.249 48.6314 184.938 47.7868 185.071Z" fill="#8D4725"></path><path d="M44.5425 183.65C44.3647 183.739 44.1869 183.694 44.098 183.517C44.0091 183.383 44.0536 183.161 44.1869 183.072C46.1427 181.961 48.2318 181.427 50.4987 181.383C52.7212 181.339 54.8992 182.005 57.4328 183.072C57.6106 183.116 57.8773 183.161 57.7884 183.339C57.744 183.517 57.5217 183.561 57.3439 183.517C54.8992 182.494 52.5878 182.005 50.4987 182.05C48.3207 182.05 46.3649 182.628 44.5425 183.65Z" fill="#8D4725"></path><path d="M58.7658 183.072C58.588 183.027 58.4991 182.85 58.5436 182.672C58.588 182.494 58.8991 182.627 59.0769 182.672C59.8326 182.85 60.4104 182.894 60.9883 183.205C61.5661 183.561 61.8328 184.005 62.1884 184.494C62.3218 184.628 62.544 184.805 62.4107 184.894C62.2773 185.028 62.0995 184.805 61.9662 184.672C61.6106 184.272 61.1661 184.094 60.6327 183.783C60.0993 183.472 59.477 183.25 58.7658 183.072Z" fill="#8D4725"></path><path d="M58.8986 187.873C58.7208 187.828 58.6319 187.65 58.6764 187.473C58.7208 187.295 58.8542 187.428 59.032 187.473C59.8765 187.739 60.8544 187.828 61.6989 188.095C61.8767 188.139 61.9656 188.362 61.8767 188.495C61.8323 188.673 61.5656 188.584 61.3433 188.495C60.8988 188.317 60.4543 188.584 60.0098 188.451C59.6098 188.317 59.2987 188.006 58.8986 187.873Z" fill="#8D4725"></path><path d="M54.1879 194.362C54.0101 194.362 53.8768 194.184 53.9212 193.962C53.9212 193.784 54.2768 193.962 54.4991 194.007C55.4325 194.184 56.0548 193.873 57.0327 194.007C58.1884 194.14 59.5663 194.229 60.722 193.918C60.8998 193.873 61.2109 193.562 61.2554 193.74C61.3443 193.918 61.2109 194.096 61.0776 194.184C58.8106 194.851 56.4548 194.762 54.1879 194.362Z" fill="#8D4725"></path><path d="M50.0983 193.028C50.2761 193.073 50.365 193.251 50.3205 193.428C50.2761 193.606 50.0094 193.384 49.7871 193.295C48.987 193.028 48.4092 193.073 47.8758 192.806C47.298 192.451 46.8979 192.139 46.6312 191.784C46.5423 191.65 46.5868 191.428 46.7201 191.339C46.8535 191.25 47.1202 191.828 47.2535 191.962C47.7869 192.717 49.2093 192.717 50.0983 193.028Z" fill="#8D4725"></path><path d="M55.0312 191.517C55.9647 191.473 56.7648 191.562 57.9205 191.739L58.1872 191.784C57.2093 191.739 56.1425 191.651 55.0312 191.517Z" fill="#9A5429"></path><path d="M45.8306 187.828C45.9639 187.917 46.0973 187.961 46.2751 188.006C46.6751 188.095 46.6307 188.406 46.2751 188.317C46.0973 188.139 45.9639 188.006 45.8306 187.828Z" fill="#9A5429"></path><path d="M44.9419 185.827C45.1197 185.782 45.253 185.738 45.4308 185.738C47.4311 185.249 47.5644 185.96 49.0757 186.227C49.3868 186.271 49.8313 186.449 50.1425 186.449C50.587 186.449 50.6314 186.76 50.1869 186.76C49.8313 186.76 49.4757 186.76 49.1201 186.671C47.6978 186.404 47.031 185.649 45.3864 186.049C45.253 186.093 45.1197 186.093 44.9863 186.182C44.9863 186.049 44.9419 185.916 44.9419 185.827Z" fill="#9A5429"></path><path d="M45.8755 187.161C45.4755 187.161 45.431 186.895 45.8755 186.895C46.6756 186.939 47.2979 186.806 47.8757 187.072C48.498 187.339 49.0314 187.65 49.387 188.184C49.6093 188.406 49.6537 188.895 49.9204 189.028C50.8094 189.339 51.6984 188.539 52.6763 188.628C53.2097 188.673 53.7875 188.806 54.4098 189.073C55.1654 189.339 55.7433 189.873 56.41 190.006C57.0768 190.139 57.8769 189.828 58.4991 189.828C59.966 189.606 60.6772 190.673 62.0551 191.073C62.6774 191.251 63.2997 191.473 63.9664 191.473C64.1442 191.473 64.3665 191.295 64.3665 191.473C64.3665 191.695 64.2331 191.828 64.0553 191.828C63.3441 191.828 62.6329 191.74 61.9662 191.562C60.8105 191.251 59.8326 190.317 58.588 190.495C58.588 190.495 58.5436 190.539 58.4991 190.495C57.8324 190.495 57.1212 190.45 56.41 190.317C55.6988 190.184 54.9432 189.962 54.1876 189.695C53.6097 189.473 53.0763 189.339 52.6318 189.295C51.4761 189.206 51.1205 189.784 49.876 189.339C49.4759 189.206 49.1203 188.984 48.8981 188.628H48.8536C48.5425 188.184 48.1424 187.828 47.6535 187.606C47.1201 187.295 46.5423 187.161 45.8755 187.161Z" fill="#9A5429"></path><path d="M49.654 187.517C49.4762 187.473 49.3873 187.251 49.4317 187.117C49.4762 186.94 49.6984 187.117 49.8762 187.162C50.2318 187.251 50.4985 187.029 50.8097 187.029C51.1208 187.029 51.432 186.984 51.7431 186.851C52.0987 186.762 52.4543 186.717 52.8988 186.806C54.3212 186.984 56.188 188.362 57.4326 188.362C57.6104 188.362 57.966 188.273 57.9216 188.495C57.9216 188.673 57.7882 188.851 57.566 188.806C56.9437 188.806 56.3214 188.718 55.6991 188.54C54.6768 188.273 53.9211 187.384 52.8988 187.206C52.5432 187.162 52.1876 187.429 51.9654 187.517H51.9209C51.5653 187.606 51.2097 187.695 50.8097 187.695C50.4096 187.695 50.054 187.651 49.654 187.517Z" fill="#9A5429"></path><path d="M44.9424 184.761C45.9203 184.317 46.8982 184.094 47.9205 183.872C50.6319 183.383 52.0099 183.739 54.3657 184.05C54.7657 184.139 55.1658 184.139 55.5658 184.183C56.0103 184.139 56.3215 183.961 56.8549 184.139C57.3882 184.272 58.1439 184.761 58.7662 185.117C59.833 185.517 60.9886 186.095 62.1888 186.895C62.7666 187.295 66.5893 189.917 66.1003 190.495C66.0114 190.539 65.7003 190.184 65.5669 190.051C64.2335 188.806 63.0333 188.228 61.8332 187.472C60.5886 186.628 59.5663 186.361 58.4106 185.694C57.8327 185.339 57.2549 185.117 56.8104 184.983C56.4548 184.894 55.7436 185.028 55.388 185.028C54.9435 184.983 54.6324 184.761 54.2323 184.717C51.9654 184.405 50.6764 183.694 48.0094 184.228C46.8982 184.45 45.8759 184.805 44.8535 185.428C44.898 185.206 44.9424 184.983 44.9424 184.761Z" fill="#9A5429"></path><path d="M47.7868 185.071C47.609 185.071 47.2979 185.249 47.209 185.071C47.209 184.894 47.2979 184.716 47.5201 184.716C48.3647 184.582 49.2092 184.582 50.0093 184.671C52.8541 185.027 52.2318 185.783 54.5431 186.583C55.2543 186.849 56.0544 186.983 56.5434 187.027C56.7212 187.027 56.9434 187.027 56.9434 187.205C56.899 187.383 56.6767 187.249 56.4989 187.249C55.9211 187.205 55.3432 187.338 54.5431 187.027C52.943 186.494 51.6095 185.56 49.9204 185.338C49.2092 185.249 48.6314 184.938 47.7868 185.071Z" fill="#9A5429"></path><path d="M46.2756 182.094C47.6091 181.649 49.0315 181.382 50.4983 181.338C52.7208 181.294 54.8988 181.96 57.4324 183.027C57.6102 183.072 57.8769 183.116 57.788 183.294C57.7436 183.472 57.5213 183.516 57.3435 183.472C54.8988 182.449 52.5875 181.96 50.4983 182.005C48.7648 182.049 47.0757 182.405 45.5645 183.116C45.7867 182.76 46.0089 182.405 46.2756 182.094Z" fill="#9A5429"></path><path d="M58.7658 183.072C58.588 183.027 58.4991 182.85 58.5436 182.672C58.588 182.494 58.8991 182.627 59.0769 182.672C59.5214 182.761 59.8326 182.85 60.1437 182.894C60.9438 183.472 61.7439 184.094 62.4107 184.761C62.4551 184.85 62.4551 184.894 62.4107 184.939C62.2773 185.072 62.0995 184.85 61.9662 184.717C61.6106 184.317 61.1661 184.139 60.6327 183.828C60.0993 183.472 59.477 183.25 58.7658 183.072Z" fill="#9A5429"></path><path d="M58.8986 187.873C58.7208 187.828 58.6319 187.65 58.6764 187.473C58.7208 187.295 58.8542 187.428 59.032 187.473C59.8765 187.739 60.8544 187.828 61.6989 188.095C61.8767 188.139 61.9656 188.362 61.8767 188.495C61.8323 188.673 61.5656 188.584 61.3433 188.495C60.8988 188.317 60.4543 188.584 60.0098 188.451C59.6098 188.317 59.2987 188.006 58.8986 187.873Z" fill="#9A5429"></path><path d="M19.5283 55.2383C19.8389 55.3086 20.2812 55.3438 20.8555 55.3438H22.9297C23.4922 55.3438 23.9287 55.3086 24.2393 55.2383C24.1689 55.584 24.1338 56.0293 24.1338 56.5742V59.123C24.1338 59.6621 24.1689 60.0781 24.2393 60.3711C23.7354 60.2949 23.2988 60.2568 22.9297 60.2568H20.5479C20.5479 60.292 20.542 60.3594 20.5303 60.459C20.4365 61.3086 20.3662 61.8711 20.3193 62.1465H22.8945C23.457 62.1465 23.8936 62.1113 24.2041 62.041C24.1338 62.375 24.0986 62.8027 24.0986 63.3242V66.1455C24.0986 66.7314 24.1338 67.1826 24.2041 67.499C23.8115 67.4229 23.375 67.3848 22.8945 67.3848H21.3477C20.8555 67.3848 20.4277 67.4229 20.0645 67.499C20.1348 67.1592 20.1699 66.708 20.1699 66.1455V62.8145C19.7656 64.0742 19.4023 65.0059 19.0801 65.6094C18.8105 65.4863 18.418 65.3457 17.9023 65.1875C19.0449 63.834 19.6221 61.7246 19.6338 58.8594V56.5742C19.6338 56.1055 19.5986 55.6602 19.5283 55.2383ZM20.6094 56.249V59.3604H23.1582V56.249H20.6094ZM21.1455 63.0518V66.4883H23.123V63.0518H21.1455ZM15.5469 55.5107L16.3203 54.79C17.3633 55.6982 18.1982 56.5801 18.8252 57.4355L18.0518 58.1562C17.3428 57.207 16.5078 56.3252 15.5469 55.5107ZM28.3613 57.6816L29.5742 58.0859C29.7031 58.1328 29.7676 58.1738 29.7676 58.209C29.7676 58.2441 29.7031 58.291 29.5742 58.3496C29.3574 58.4727 29.1816 58.6602 29.0469 58.9121C28.8652 59.3281 28.5898 59.958 28.2207 60.8018H29.4248C30.0283 60.8018 30.5029 60.7637 30.8486 60.6875V61.8037C30.4268 61.7334 29.9521 61.6982 29.4248 61.6982H27.79V64.0977H28.959C29.5684 64.0977 30.043 64.0596 30.3828 63.9834V65.0996C29.9727 65.0293 29.498 64.9941 28.959 64.9941H27.79V67.3145C27.79 67.9297 27.8252 68.4043 27.8955 68.7383H26.6738C26.7441 68.3398 26.7793 67.8652 26.7793 67.3145V64.9941H25.918C25.3555 64.9941 24.8867 65.0293 24.5117 65.0996V63.9834C24.8223 64.0596 25.291 64.0977 25.918 64.0977H26.7793V61.6982H25.3027C24.6934 61.6982 24.2246 61.7334 23.8965 61.8037V60.6875C24.1777 60.7637 24.6465 60.8018 25.3027 60.8018H27.2979C27.79 59.7705 28.1445 58.7305 28.3613 57.6816ZM26.542 53.7617C27.2158 54.4707 27.793 55.1738 28.2734 55.8711L27.5703 56.4072H29.2139C29.7881 56.4072 30.2188 56.3721 30.5059 56.3018V57.418C30.1953 57.3418 29.7646 57.3037 29.2139 57.3037H25.8828C25.2559 57.3037 24.7812 57.3418 24.459 57.418V56.3018C24.8164 56.3721 25.291 56.4072 25.8828 56.4072H27.3594C26.8672 55.6631 26.3135 54.9922 25.6982 54.3945L26.542 53.7617ZM25.5752 57.8662C26.0908 58.5283 26.5215 59.2373 26.8672 59.9932L26.0762 60.4766C25.7891 59.791 25.3584 59.082 24.7842 58.3496L25.5752 57.8662ZM17.9463 60.8721C17.8701 61.2705 17.832 61.7803 17.832 62.4014V67.6572C18.207 67.7158 18.6465 67.8594 19.1504 68.0879C20.4453 68.7266 21.5498 69.1221 22.4639 69.2744C22.8564 69.3447 23.4424 69.3799 24.2217 69.3799C25.6104 69.3799 27.6465 69.2686 30.3301 69.0459C30.7578 68.999 31.0742 68.9697 31.2793 68.958C30.8457 69.3154 30.6289 69.7578 30.6289 70.2852C29.0469 70.332 27.749 70.3555 26.7354 70.3555C25.8447 70.3555 25.0449 70.3379 24.3359 70.3027C21.9336 70.1855 20.1084 69.7227 18.8604 68.9141C18.4971 68.709 18.1484 68.6064 17.8145 68.6064C17.3984 68.6064 17.0146 68.7646 16.6631 69.0811C16.3643 69.3447 16.0332 69.7461 15.6699 70.2852C15.4707 69.8047 15.1836 69.4326 14.8086 69.1689C15.459 68.6299 16.1328 68.1934 16.8301 67.8594V61.8828H16.0742C15.4941 61.8828 15.0254 61.918 14.668 61.9883V60.8721C15.0137 60.9424 15.4824 60.9775 16.0742 60.9775H16.4697C17.0908 60.9775 17.583 60.9424 17.9463 60.8721ZM32.7559 59.6328C34.9297 58.7422 36.8691 56.8818 38.5742 54.0518L39.8311 54.7549C40.0127 54.8486 40.1094 54.9395 40.1211 55.0273C40.1328 55.1094 40.0537 55.1562 39.8838 55.168C39.585 55.1914 39.3506 55.2998 39.1807 55.4932C38.9521 55.792 38.7354 56.0674 38.5303 56.3193H43.4521C44.1787 56.3193 44.7881 56.2842 45.2803 56.2139C45.2334 56.2842 45.1689 56.3838 45.0869 56.5127C44.9521 56.7061 44.8145 56.8994 44.6738 57.0928C44.5273 57.2861 44.0059 58.0068 43.1094 59.2549H45.8252C46.3643 59.2549 46.8066 59.2168 47.1523 59.1406C47.082 59.4922 47.0469 59.9434 47.0469 60.4941V63.1572C47.0469 63.708 47.082 64.1328 47.1523 64.4316C46.7832 64.3613 46.3408 64.3262 45.8252 64.3262H42.5293V68.501C42.5645 69.04 42.8574 69.3652 43.4082 69.4766C43.9883 69.5586 44.6123 69.5879 45.2803 69.5645C45.9072 69.5293 46.4316 69.4385 46.8535 69.292C47.5684 68.8877 47.9346 68.0557 47.9521 66.7959C48.3096 67.165 48.7578 67.4053 49.2969 67.5166C48.875 68.8584 48.3594 69.752 47.75 70.1973C47.5332 70.3789 46.9443 70.5049 45.9834 70.5752C45.5615 70.5986 45.166 70.6104 44.7969 70.6104C44.1875 70.6104 43.5986 70.5811 43.0303 70.5225C41.9521 70.4346 41.4482 69.8867 41.5186 68.8789V64.3262H41.0879C40.4316 67.0273 38.0615 69.2012 33.9775 70.8477C33.6904 70.4141 33.2598 70.0713 32.6855 69.8193C36.1191 69.04 38.5186 67.209 39.8838 64.3262H36.9834C36.3506 64.3262 35.8467 64.3613 35.4717 64.4316C35.5479 64.1211 35.5859 63.667 35.5859 63.0693V60.582C35.5859 60.5586 35.5479 60.1455 35.4717 59.3428C34.7158 59.9756 34.2354 60.3652 34.0303 60.5117C33.8076 60.2715 33.418 59.9961 32.8613 59.6855C32.8145 59.6621 32.7793 59.6445 32.7559 59.6328ZM35.7441 59.1406C36.1777 59.2168 36.6025 59.2549 37.0186 59.2549H41.668C42.2422 58.5459 42.752 57.8662 43.1973 57.2158H37.792C37.7686 57.2393 37.7334 57.2773 37.6865 57.3301C37.5049 57.4824 36.8574 58.0859 35.7441 59.1406ZM36.5879 60.1514V63.4297H40.1914C40.4551 62.3984 40.6162 61.3057 40.6748 60.1514H36.5879ZM41.2725 63.4297H46.0361V60.1514H41.7559C41.6211 61.5459 41.46 62.6387 41.2725 63.4297Z" fill="black"></path><line x1="69.2322" y1="167.232" x2="179.232" y2="57.2322" stroke="#BF2828" stroke-width="5"></line><line x1="72.7678" y1="57.2322" x2="182.768" y2="167.232" stroke="#BF2828" stroke-width="5"></line></g></svg>