<svg xmlns="http://www.w3.org/2000/svg" width="250" height="230" viewBox="0 0 250 230" fill="none"><mask id="mask0" maskUnits="userSpaceOnUse" x="0" y="0" width="250" height="230"><rect width="250" height="230" fill="#F9F9F9"></rect></mask><g mask="url(#mask0)"><path fill-rule="evenodd" clip-rule="evenodd" d="M16.2327 138.944C3.6504 103.303 -3.80353 60.7381 19.8102 31.2274C42.8554 2.42738 85.2673 9.02299 122.076 6.66875C161.003 4.17908 206.394 -11.1386 232.763 17.6074C259.481 46.7343 249.884 93.479 235.467 130.281C224.094 159.313 194.322 172.24 166.598 186.507C139.472 200.466 111.645 218.169 82.5569 208.969C50.3087 198.768 27.4926 170.84 16.2327 138.944Z" fill="#D2F8FD"></path></g><g clip-path="url(#clip0)"><path d="M121.084 110.457C119.119 108.963 117.434 108.869 115.095 110.55C112.662 112.325 109.667 112.138 106.86 110.831C94.6004 105.133 82.2477 99.5296 69.8949 93.8324C58.2909 88.4153 46.6868 82.9983 34.9891 77.6747C29.0935 74.9661 27.409 69.8293 30.5908 64.2255C40.4168 47.1338 50.2429 29.9488 60.2561 12.9505C63.3443 7.72028 68.8655 6.59951 73.8254 10.0552C94.8811 24.8119 115.843 39.6621 136.899 54.3254C140.83 57.0339 143.263 60.116 142.608 65.1595C142.327 67.2142 144.666 67.401 145.789 68.5218C146.912 69.5491 146.164 70.5765 145.696 71.5105C144.292 74.219 142.701 76.7407 141.204 79.3558C138.49 84.2125 135.589 88.9757 132.875 93.8324C129.881 98.9692 126.792 104.106 123.704 109.243C123.143 110.177 122.394 110.831 121.084 110.457Z" fill="#E8E8E6"></path><path d="M121.084 110.457C122.675 109.99 122.956 108.402 123.611 107.281C128.29 99.4359 132.969 91.6839 137.367 83.7452C140.175 78.7018 143.543 73.9385 145.789 68.5215C146.819 68.7083 147.661 69.1753 148.503 69.829C149.439 70.5762 150.562 70.8564 151.779 70.6696C163.383 69.0819 171.431 78.048 167.968 89.0688C164.225 100.93 158.329 111.484 149.346 120.357C141.391 128.296 129.787 123.346 126.886 115.874C125.857 113.072 123.424 111.764 121.084 110.457Z" fill="#BEBEBE"></path><path d="M137.835 217.584C138.864 217.771 139.332 218.331 139.239 219.265C139.145 220.012 138.677 220.573 137.835 220.479C136.993 220.479 136.525 219.919 136.525 219.172C136.525 218.238 137.086 217.771 137.835 217.584Z" fill="#FDFDFD"></path><path d="M157.113 193.86C156.084 193.673 155.616 193.113 155.709 192.272C155.709 191.525 156.084 190.965 157.019 190.965C157.955 190.965 158.423 191.525 158.517 192.366C158.423 193.3 157.862 193.767 157.113 193.86Z" fill="#BEBEBE"></path><path d="M163.196 124.092C163.289 123.158 163.757 122.691 164.6 122.691C165.442 122.691 165.816 123.252 165.816 124.092C165.816 124.933 165.348 125.4 164.506 125.4C163.664 125.307 163.289 124.746 163.196 124.092Z" fill="#BEBEBE"></path><path d="M172.179 147.908C173.022 148.002 173.489 148.562 173.396 149.309C173.396 150.056 172.928 150.71 172.086 150.71C171.244 150.804 170.776 150.243 170.776 149.403C170.776 148.469 171.337 148.095 172.179 147.908Z" fill="#BEBEBE"></path><path d="M159.733 149.403C159.546 150.15 159.172 150.71 158.423 150.71C157.487 150.71 157.019 150.057 157.113 149.216C157.113 148.562 157.581 148.002 158.236 148.002C159.078 148.002 159.546 148.562 159.733 149.403Z" fill="#BEBEBE"></path><path d="M158.142 220.291C158.985 220.291 159.453 220.665 159.64 221.505C159.733 222.346 159.265 222.813 158.423 222.906C157.581 223 157.019 222.626 157.019 221.785C156.926 221.038 157.3 220.478 158.142 220.291Z" fill="#BEBEBE"></path><path d="M158.516 169.67C157.58 169.576 157.019 169.203 157.112 168.362C157.112 167.615 157.58 167.055 158.422 167.055C159.171 167.055 159.732 167.615 159.732 168.362C159.732 169.296 159.077 169.576 158.516 169.67Z" fill="#BEBEBE"></path><path d="M148.129 160.798C147.287 160.798 146.819 160.331 146.819 159.49C146.819 158.743 147.287 158.182 148.129 158.276C148.877 158.369 149.439 158.743 149.439 159.583C149.439 160.424 148.877 160.704 148.129 160.798Z" fill="#BEBEBE"></path><path d="M164.412 158.182C165.348 158.182 165.816 158.649 165.816 159.489C165.816 160.33 165.441 160.797 164.599 160.797C163.757 160.797 163.289 160.423 163.289 159.583C163.289 158.742 163.757 158.368 164.412 158.182Z" fill="#BEBEBE"></path><path d="M176.11 168.363C176.016 169.203 175.549 169.67 174.8 169.67C173.958 169.67 173.49 169.203 173.49 168.456C173.49 167.615 173.864 167.148 174.8 167.148C175.549 167.148 176.016 167.615 176.11 168.363Z" fill="#BEBEBE"></path><path d="M163.289 184.894C162.54 184.801 161.979 184.427 161.979 183.587C161.979 182.84 162.353 182.279 163.195 182.279C164.037 182.279 164.505 182.746 164.505 183.493C164.505 184.334 164.131 184.801 163.289 184.894Z" fill="#BEBEBE"></path><path d="M176.204 184.894C175.455 184.894 174.987 184.521 174.893 183.774C174.8 182.933 175.268 182.373 176.016 182.279C176.859 182.186 177.42 182.653 177.42 183.494C177.42 184.334 176.952 184.801 176.204 184.894Z" fill="#BEBEBE"></path><path d="M158.236 201.332C159.078 201.332 159.639 201.706 159.639 202.546C159.639 203.387 159.171 203.854 158.423 203.947C157.581 204.041 157.113 203.574 157.019 202.733C157.019 201.892 157.487 201.519 158.236 201.332Z" fill="#BEBEBE"></path><path d="M185 210.111C185 211.045 184.532 211.418 183.69 211.418C182.848 211.418 182.38 210.951 182.38 210.111C182.38 209.27 182.848 208.896 183.69 208.896C184.532 208.896 184.907 209.363 185 210.111Z" fill="#BEBEBE"></path><path d="M174.8 134.18C173.958 134.086 173.49 133.619 173.49 132.779C173.49 131.938 173.958 131.471 174.8 131.565C175.549 131.658 176.11 132.031 176.11 132.872C176.11 133.806 175.549 134.18 174.8 134.18Z" fill="#BEBEBE"></path><path d="M176.11 221.786C176.016 222.626 175.455 223 174.706 223C173.864 222.907 173.49 222.44 173.49 221.599C173.583 220.758 174.051 220.291 174.893 220.385C175.642 220.478 176.11 220.945 176.11 221.786Z" fill="#BEBEBE"></path><path d="M183.596 174.434C183.596 175.368 183.128 175.835 182.286 175.835C181.537 175.835 181.069 175.554 180.976 174.807C180.882 173.967 181.256 173.5 182.099 173.406C183.035 173.406 183.596 173.686 183.596 174.434Z" fill="#BEBEBE"></path><path d="M149.439 210.204C149.439 211.045 148.877 211.512 148.035 211.418C147.193 211.418 146.819 210.858 146.819 210.017C146.819 209.27 147.38 208.896 148.035 208.896C148.877 208.896 149.439 209.363 149.439 210.204Z" fill="#BEBEBE"></path><path d="M145.415 178.637C144.666 178.543 144.105 178.17 144.105 177.329C144.199 176.582 144.666 176.021 145.415 176.021C146.07 176.021 146.538 176.582 146.538 177.236C146.725 178.076 146.257 178.45 145.415 178.637Z" fill="#BEBEBE"></path><path d="M146.725 194.888C146.538 195.822 146.164 196.289 145.322 196.289C144.573 196.289 144.199 195.822 144.105 195.169C144.105 194.328 144.573 193.861 145.322 193.768C146.164 193.768 146.538 194.328 146.725 194.888Z" fill="#BEBEBE"></path><path d="M156.925 131.564C156.925 132.405 156.458 132.872 155.615 132.872C154.867 132.872 154.305 132.498 154.305 131.658C154.305 130.91 154.773 130.35 155.615 130.35C156.458 130.257 156.832 130.817 156.925 131.564Z" fill="#BEBEBE"></path><path d="M148.222 139.316C148.971 139.41 149.532 139.877 149.439 140.624C149.439 141.371 148.877 141.651 148.222 141.745C147.474 141.745 146.912 141.371 146.819 140.531C146.819 139.69 147.38 139.316 148.222 139.316Z" fill="#BEBEBE"></path><path d="M174.799 200.023C175.548 200.117 176.11 200.49 176.11 201.331C176.11 202.078 175.548 202.358 174.893 202.452C174.144 202.545 173.676 202.172 173.583 201.424C173.489 200.584 173.957 200.117 174.799 200.023Z" fill="#BEBEBE"></path><path d="M164.506 141.744C163.757 141.651 163.289 141.277 163.289 140.53C163.289 139.69 163.757 139.223 164.599 139.223C165.348 139.223 165.722 139.69 165.816 140.343C165.816 141.277 165.348 141.651 164.506 141.744Z" fill="#BEBEBE"></path><path d="M139.239 187.417C138.49 187.417 137.928 187.043 137.928 186.202C137.928 185.455 138.396 185.082 139.145 184.988C139.987 184.988 140.455 185.362 140.549 186.202C140.455 186.95 140.081 187.417 139.239 187.417Z" fill="#BEBEBE"></path><path d="M182.286 192.553C183.035 192.646 183.596 193.02 183.596 193.86C183.596 194.607 183.035 194.981 182.38 194.981C181.537 194.981 181.07 194.514 181.07 193.673C181.07 192.926 181.631 192.646 182.286 192.553Z" fill="#BEBEBE"></path><path d="M165.816 212.82C165.722 213.567 165.348 214.034 164.599 214.034C163.757 214.034 163.196 213.661 163.289 212.82C163.289 211.98 163.851 211.606 164.693 211.7C165.442 211.7 165.722 212.167 165.816 212.82Z" fill="#BEBEBE"></path><path d="M87.8628 60.3961C103.304 60.3961 118.745 60.3961 134.186 60.3961C138.397 60.3961 139.332 61.7971 137.648 65.7198C137.087 67.0273 136.712 68.2415 138.397 69.0821C139.894 69.8292 139.707 70.95 138.958 72.2576C136.244 76.7406 133.624 81.2237 131.004 85.7067C128.009 90.937 125.015 96.2606 122.02 101.491C120.991 103.265 120.148 105.04 117.622 103.359C116.779 102.798 116.031 103.546 115.469 104.293C112.287 107.935 111.632 108.122 107.515 106.161C97.2209 101.491 87.0205 96.6342 76.8202 91.9643C66.3391 87.1077 55.7644 82.3444 45.1897 77.4878C42.2887 76.1802 39.3877 74.7793 36.5802 73.3783C33.5856 71.884 32.837 69.4556 34.4279 66.4669C34.9893 65.3462 35.6444 64.3188 36.2995 63.198C37.4225 61.2367 38.9198 60.3027 41.3529 60.3027C56.7938 60.4895 72.3283 60.3961 87.8628 60.3961Z" fill="#FDFDFD"></path><path d="M151.217 107.281C151.872 107.281 152.153 107.655 152.34 108.215C152.621 109.429 151.124 111.951 149.907 112.325C149.346 112.511 148.878 112.605 148.597 111.951C147.942 110.83 150.001 107.375 151.217 107.281Z" fill="#7C7C7C"></path><path d="M160.669 91.2168C161.324 91.2168 161.511 91.5904 161.605 92.0574C161.792 93.1781 160.201 95.8866 159.078 96.2602C158.61 96.3536 158.049 96.3536 157.955 95.8866C157.581 94.8593 157.861 93.9253 158.516 93.0847C158.984 92.2442 159.546 91.4036 160.669 91.2168Z" fill="#7C7C7C"></path><path d="M160.107 102.332C159.92 104.106 159.172 105.414 157.487 106.068C156.645 106.348 156.271 105.601 156.271 104.854C156.271 103.639 158.142 101.211 159.078 101.211C159.827 101.118 160.107 101.585 160.107 102.332Z" fill="#7B7A7A"></path></g><path d="M155.165 40.796C154.391 42.794 153.239 44.99 152.051 46.412C152.375 46.574 152.951 46.88 153.221 47.06C154.319 45.566 155.561 43.28 156.425 41.138L155.165 40.796ZM163.643 41.3C164.849 43.064 166.271 45.44 166.973 46.934L168.089 46.25C167.405 44.81 165.965 42.524 164.741 40.778L163.643 41.3ZM164.705 47.204C162.455 50.714 157.793 52.424 151.691 53.09C151.943 53.432 152.213 53.972 152.339 54.368C158.657 53.558 163.481 51.614 165.911 47.78L164.705 47.204ZM159.107 37.97V48.968H160.421V37.97H159.107ZM181.175 41.84C182.633 42.722 184.379 43.946 185.279 44.738L186.107 43.64C185.117 42.848 183.137 41.552 181.697 40.706L181.175 41.318V37.952H179.807V47.06H181.175V41.84ZM170.213 46.772C172.427 46.466 175.631 46.016 178.655 45.584L178.619 44.378C177.485 44.54 176.315 44.72 175.199 44.864V41.822H178.277V40.616H175.199V37.952H173.885V40.616H170.465V41.822H173.885V45.044C172.409 45.242 171.077 45.422 170.033 45.53L170.213 46.772ZM172.751 48.968H175.469V52.676H172.751V48.968ZM179.375 48.968V52.676H176.657V48.968H179.375ZM183.317 48.968V52.676H180.581V48.968H183.317ZM184.631 47.744H171.491V52.676H170.033V53.864H185.963V52.676H184.631V47.744Z" fill="black"></path><defs><clipPath id="clip0"><rect width="156" height="215" fill="white" transform="translate(29 8)"></rect></clipPath></defs></svg>