<svg width="250" height="386" viewBox="0 0 250 386" fill="none" xmlns="http://www.w3.org/2000/svg">
<mask id="mask0" mask-type="alpha" maskUnits="userSpaceOnUse" x="0" y="0" width="250" height="386">
<rect width="250" height="386" fill="#C4C4C4"/>
</mask>
<g mask="url(#mask0)">
<path d="M44.3904 72.2159C55.2602 64.1844 77.4213 51.8948 103.671 39.3414C131.303 26.1264 160.425 14.0557 183.567 6.22288C196.584 1.81732 207.364 -0.266962 215.607 0.0273206C223.485 0.308582 229.277 2.76701 232.824 7.33403C237.108 12.8507 238.174 21.523 235.992 33.1102C234.043 43.4648 229.458 56.3924 222.367 71.5345C210.331 97.2334 182.712 140.409 162.545 171.934C152.135 188.207 143.913 201.06 141.803 205.386C135.766 217.767 129.831 227.909 124.162 235.531C115.008 247.841 106.235 254.178 97.3415 254.905C93.4848 255.22 89.6367 254.497 85.5765 252.697C82.2003 251.2 78.6365 248.921 74.6815 245.729C62.4539 235.862 47.0311 217.521 36.2448 203.872C23.2445 187.421 13.0275 172.802 10.2156 168.102C3.89275 157.534 0.796531 146.868 1.01036 136.402C1.12945 130.609 2.26467 124.756 4.3856 119.007C6.62736 112.93 10.033 106.798 14.5087 100.779C14.5096 100.778 14.5096 100.778 14.5104 100.777C21.6121 91.2271 31.6657 81.6173 44.3904 72.2159ZM140.676 204.737C142.822 200.336 151.063 187.453 161.497 171.143C181.643 139.65 209.234 96.5198 221.23 70.9051C236.031 39.3014 239.603 18.2138 231.849 8.2273C224.956 -0.648921 208.839 -0.878097 183.946 7.54585C133.084 24.7601 66.4046 57.6268 45.1075 73.3618C32.4862 82.6877 22.5257 92.2037 15.5031 101.648C15.5022 101.649 15.5014 101.649 15.5014 101.649C-0.501236 123.169 -1.91983 145.273 11.2847 167.346C17.5988 177.9 53.3957 226.825 75.4412 244.615C83.7589 251.327 90.4842 254.074 97.2459 253.522C105.769 252.825 114.248 246.656 123.169 234.659C128.787 227.106 134.677 217.038 140.676 204.737Z" fill="#FFE1A5"/>
<path d="M194.877 18.5176C150.649 31.4408 94.2247 54.1883 70.8388 66.5898C14.4011 96.5163 11.2206 120.031 21.3524 148.636C25.1831 159.453 49.8285 213.563 67.693 235.563C81.9259 253.091 99.773 261.074 137.412 212.152C145.492 201.65 204.558 122.107 229.133 89.0698C260.708 46.6211 258.349 -0.0291624 194.877 18.5176Z" fill="#FFE1A5"/>
<path fill-rule="evenodd" clip-rule="evenodd" d="M92.7167 115.07C86.0271 105.575 77.2426 101.81 65.3636 103.734C61.9041 104.295 59.126 107.688 56.8669 109.654C54.2366 111.087 50.0851 112.509 48.3562 115.554C42.4219 126.009 42.9052 135.543 49.4958 145.108C57.4719 156.682 73.0303 156.78 78.7151 154.304C82.9161 152.474 83.9644 150.701 84.6876 149.581C85.9906 149.292 88.0194 148.927 91.1973 145.629C95.4991 141.164 100.813 126.561 92.7167 115.07Z" fill="#FF6F51"/>
<path d="M53.9337 107.789C53.9337 107.789 51.612 96.2235 35.1113 106.203C35.1113 106.203 47.3554 118.006 54.1936 108.872C54.1936 108.872 50.4498 106.502 42.8406 106.111C42.8414 106.111 48.9747 105.481 53.9337 107.789Z" fill="#D2AE53"/>
<path d="M56.8086 99.7772C56.4079 99.5047 55.8612 99.608 55.5882 100.008C53.3821 103.242 53.7698 106.001 54.4834 107.746C55.2492 109.619 56.5426 110.724 56.5965 110.77C56.8903 111.017 57.2997 111.041 57.6135 110.855C57.6961 110.806 57.7709 110.744 57.836 110.667C58.149 110.297 58.1038 109.744 57.7335 109.431C57.723 109.423 56.6782 108.515 56.0854 107.021C55.3153 105.08 55.6369 103.053 57.0398 100.996C57.3128 100.596 57.2093 100.05 56.8086 99.7772Z" fill="#B76749"/>
<path d="M214.019 205.105C214.392 189.22 213.819 173.322 212.008 157.528C211.046 149.149 209.72 140.811 207.804 132.593C207.349 130.644 206.84 128.702 206.453 126.736C206.263 125.77 206.02 124.7 206.232 123.716C206.733 121.38 206.672 118.834 206.707 116.456C206.683 115.705 206.658 114.953 206.633 114.2C204.787 106.709 202.796 98.6006 203.584 90.819C203.918 87.5203 204.985 83.8283 208.151 82.1893C207.744 81.9714 207.305 81.7614 206.843 81.5947C205.182 80.9957 203.323 80.7171 201.581 80.2978C199.075 79.6944 196.587 78.9965 194.134 78.2309C191.475 77.4018 188.127 76.6379 186.085 74.7446C184.342 73.1282 183.431 70.9571 183.347 68.5213C183.292 66.8788 183.256 65.0038 183.691 63.4039C179.042 63.2876 174.378 63.3422 169.731 63.3422C169.584 63.3422 169.435 63.3422 169.286 63.3422C169.136 63.3422 168.987 63.3422 168.841 63.3422C164.186 63.3414 159.518 63.2858 154.862 63.4013C155.284 65.002 155.226 66.8788 155.152 68.5178C155.041 70.9623 154.1 73.13 152.338 74.7403C150.266 76.6353 146.899 77.3957 144.216 78.2239C141.751 78.9852 139.242 79.6667 136.726 80.27C134.978 80.6893 133.116 80.9679 131.45 81.5652C130.985 81.7319 130.545 81.9419 130.134 82.1598C133.172 83.745 134.235 87.2538 134.571 90.4362C135.405 98.328 133.273 106.596 131.36 114.175C131.331 114.927 131.302 115.679 131.274 116.431C131.297 118.808 131.226 121.357 131.722 123.694C131.93 124.677 131.684 125.747 131.493 126.714C131.103 128.679 130.592 130.621 130.137 132.572C128.223 140.787 126.937 149.127 126.046 157.511C124.365 173.322 124.021 189.226 124.604 205.106C125.022 216.459 126.87 227.767 128.618 238.98C130.049 248.167 131.57 257.379 132.786 266.566C133.95 275.364 135.818 284.312 134.603 293.23C133.403 302.041 132.8 310.98 133.485 319.882C133.9 325.261 141.925 359.304 142.325 360.901C142.551 361.805 142.999 362.999 142.785 363.897C142.401 365.513 142.683 366.754 143.521 368.152C144.272 369.406 142.951 371.248 142.271 372.297C141.272 373.839 140.118 375.281 139.233 376.895C138.474 378.277 136.635 380.889 138.266 382.311C141.253 384.915 144.714 385.928 148.574 385.996C148.627 385.996 148.681 385.998 148.733 385.996C150.116 385.966 151.183 385.555 152.283 384.688C153.007 384.116 153.712 383.51 154.231 382.73C154.436 382.363 154.623 381.967 154.776 381.556C154.929 380.82 154.985 380.147 154.962 379.41C154.889 377.147 154.571 374.797 154.235 372.532C154.191 372.234 154.144 371.955 154.115 371.716C154.041 371.097 154.001 370.469 154.017 369.839C154.089 367.035 154.67 364.702 153.663 361.963C153.288 360.944 153.357 359.725 153.384 358.659C153.433 356.736 153.659 354.813 153.942 352.918C154.635 348.268 155.626 343.64 156.235 338.96C157.2 331.536 157.408 324.042 157.143 316.58C157.039 313.63 157.042 310.573 157.29 307.642C157.707 302.703 158.728 297.93 159.756 293.073C162.897 278.243 164.899 263.092 166.117 248.008C166.852 238.908 167.085 229.749 167.313 220.606C167.385 217.704 167.421 214.79 167.666 211.896C167.728 211.167 167.658 208.988 168.526 208.651C168.854 208.649 169.019 208.649 169.347 208.647C169.676 208.649 169.84 208.649 170.169 208.651C171.041 208.988 170.993 211.161 171.062 211.896C171.338 214.788 171.402 217.704 171.502 220.606C171.817 229.749 172.121 238.909 172.894 248.008C174.174 263.091 176.158 278.238 179.306 293.068C180.337 297.924 181.363 302.699 181.78 307.637C182.028 310.569 182.033 313.626 181.927 316.576C181.666 323.863 181.857 331.182 182.769 338.436C183.38 343.293 184.412 348.093 185.132 352.916C185.383 354.598 185.582 356.298 185.664 358.002C185.725 359.262 185.855 360.755 185.41 361.961C184.401 364.699 184.983 367.032 185.055 369.837C185.072 370.467 185.031 371.096 184.957 371.714C184.928 371.953 184.881 372.232 184.837 372.53C184.501 374.796 184.182 377.145 184.11 379.409C184.086 380.146 184.142 380.819 184.295 381.555C184.449 381.966 184.635 382.362 184.841 382.729C185.36 383.509 186.064 384.115 186.789 384.687C187.889 385.555 188.956 385.965 190.339 385.996C190.391 385.996 190.445 385.996 190.498 385.995C194.365 385.922 198.079 384.912 201.066 382.307C202.696 380.884 200.857 378.27 200.098 376.886C199.119 375.1 197.808 373.53 196.747 371.795C196.155 370.826 195.152 369.271 195.812 368.137C196.786 366.465 196.902 364.704 196.617 362.846C196.497 362.063 196.837 361.123 197.04 360.337C197.418 358.883 205.752 324.875 205.872 319.848C206.085 310.926 205.708 302.011 204.511 293.199C203.3 284.282 205.168 275.339 206.332 266.541C207.522 257.562 208.971 248.56 210.302 239.574C211.989 228.168 213.748 216.649 214.019 205.105Z" fill="#FFA786"/>
<path d="M106.205 191.975C103.292 191.135 100.379 190.295 97.4659 189.453C96.9679 192.087 96.5011 194.758 95.7153 197.32C94.9921 199.677 93.996 202.028 93.9412 204.468C93.8995 206.295 93.9012 208.202 93.9438 210.054C93.9734 211.327 93.7204 212.667 93.8308 213.94C93.9264 215.053 94.6401 216.002 95.2711 216.91C96.1299 218.147 96.7288 219.57 97.5329 220.859C98.1666 221.876 99.1862 223.748 100.67 223.829C101.606 223.881 102.308 223.356 102.286 222.474C102.219 219.915 99.8885 217.648 99.7103 215.226C99.6112 213.879 99.413 212.41 99.4826 211.003C99.5686 209.275 101.42 206.491 101.42 206.491C101.723 206.532 101.657 211.692 102.331 214.014C102.932 216.086 105.328 216.569 106.057 214.212C106.969 211.259 107.056 208.103 107.552 205.07C107.985 202.416 107.994 199.749 107.227 197.14C106.73 195.451 106.283 193.736 106.205 191.975Z" fill="#FFA786"/>
<path d="M142.571 82.303C140.743 81.0859 136.585 80.9487 133.634 81.3151C126.846 82.158 122.515 87.1165 120.421 92.7895C118.649 97.5926 117.766 102.767 116.692 107.728C115.687 112.368 114.799 117.027 113.843 121.673C112.584 127.797 112.086 134.016 110.453 140.071C109.297 144.358 108.297 152.316 114.533 153.792C116.795 154.328 118.816 154.448 120.566 152.774C122.077 151.328 122.973 149.345 123.732 147.503C125.21 143.91 126.186 140.137 127.099 136.407C129.16 127.995 132.822 119.925 134.642 111.447C135.026 109.657 135.782 107.97 136.599 106.313C140.12 99.1734 149.426 86.8674 142.571 82.303Z" fill="#FFA786"/>
<path d="M123.087 132.744C120.703 131.875 117.898 133.432 116.12 134.763C112.459 137.503 110.096 141.484 108.379 145.432C106.746 149.184 105.146 152.966 103.952 156.871C102.197 162.607 101.2 168.509 100.451 174.415C100.011 177.884 99.6567 181.41 98.8222 184.826C98.3945 186.576 97.7617 188.287 97.3202 190.026C96.6622 192.617 98.9065 195.717 100.859 197.412C101.715 198.155 102.943 199.041 104.208 198.93C105.856 198.788 106.418 197.054 106.635 195.796C107.163 192.728 108.591 189.746 109.875 186.884C111.274 183.765 112.828 180.691 114.096 177.531C116.097 172.546 118.543 167.692 120.397 162.646C122.835 156.013 123.973 149.032 124.951 142.166C125.193 140.472 126.196 138.919 126.346 137.184C126.532 135.048 125.217 133.521 123.087 132.744Z" fill="#FFA786"/>
<path d="M231.532 191.975C234.434 191.135 237.334 190.295 240.235 189.453C240.771 192.088 241.285 194.746 242.1 197.319C242.843 199.661 243.935 201.992 243.979 204.468C244.012 206.328 244.073 208.201 244.056 210.053C244.045 211.326 244.317 212.664 244.224 213.939C244.143 215.049 243.443 215.999 242.824 216.909C241.98 218.147 241.401 219.569 240.612 220.858C239.992 221.874 238.99 223.748 237.511 223.83C236.574 223.881 235.867 223.356 235.878 222.474C235.912 219.921 238.214 217.641 238.361 215.226C238.451 213.734 238.684 212.085 238.49 210.531C238.297 208.989 236.529 206.49 236.529 206.49C236.228 206.534 236.365 211.687 235.723 214.013C235.142 216.115 232.751 216.539 231.999 214.211C231.047 211.262 230.915 208.102 230.375 205.07C229.905 202.423 229.855 199.756 230.585 197.14C231.058 195.449 231.479 193.734 231.532 191.975Z" fill="#FFA786"/>
<path d="M195.023 82.3021C196.832 81.1094 200.899 80.9635 203.805 81.2943C210.662 82.0755 215.005 87.0584 217.053 92.7886C218.77 97.5953 219.597 102.768 220.628 107.728C221.593 112.368 222.451 117.03 223.383 121.672C224.614 127.8 225.105 134.019 226.756 140.071C227.918 144.334 228.979 152.315 222.75 153.792C220.485 154.329 218.469 154.443 216.711 152.774C215.191 151.329 214.281 149.347 213.511 147.503C212.014 143.913 211.024 140.139 210.103 136.407C208.029 127.999 204.397 119.929 202.643 111.447C202.274 109.661 201.53 107.97 200.727 106.313C197.246 99.1283 188.102 86.8665 195.023 82.3021Z" fill="#FFA786"/>
<path d="M214.115 132.745C216.354 131.928 218.992 133.284 220.72 134.501C224.592 137.229 227.066 141.372 228.852 145.433C230.441 149.043 232.01 152.679 233.216 156.429C235.103 162.301 236.201 168.355 237.046 174.416C237.529 177.887 237.932 181.415 238.814 184.827C239.266 186.578 239.923 188.287 240.39 190.027C241.107 192.704 238.747 195.983 236.657 197.668C235.801 198.358 234.568 199.147 233.354 198.895C231.889 198.589 231.378 196.97 231.159 195.797C230.587 192.722 229.116 189.744 227.793 186.885C226.35 183.767 224.755 180.693 223.444 177.532C221.321 172.412 218.739 167.427 216.813 162.227C214.408 155.733 213.252 148.895 212.267 142.168C212.039 140.606 211.15 139.162 210.91 137.583C210.561 135.294 211.785 133.595 214.115 132.745Z" fill="#FFA786"/>
<path d="M144.858 358.947C143.768 354.309 137.589 334.832 136.221 331.594C137.402 337.513 141.861 358.807 142.896 363.735C143.741 362.556 145.114 360.038 144.858 358.947Z" fill="#D38462"/>
<path d="M185.175 330.542C185.076 325.936 184.959 321.33 184.86 316.724C184.81 314.36 184.609 311.911 184.789 309.588C184.992 306.975 185.514 304.235 185.33 301.567C185.207 299.803 183.379 298.907 182.549 297.52C181.463 295.706 180.399 293.872 179.115 292.172C179.178 292.477 179.242 292.777 179.303 293.07C180.339 297.929 181.36 302.701 181.777 307.64C182.025 310.571 182.03 313.628 181.924 316.578C181.663 323.865 181.855 331.184 182.766 338.438C183.377 343.295 184.394 348.083 185.129 352.918C185.151 353.061 185.172 353.204 185.192 353.347C185.506 350.526 185.401 347.629 185.389 344.797C185.371 340.045 185.277 335.293 185.175 330.542Z" fill="#D38462"/>
<path d="M153.94 352.924C154.428 349.672 154.991 346.4 155.566 343.148C154.77 345.119 154.456 347.395 153.985 349.459C153.335 352.306 152.641 355.173 152.222 358.064C152.008 359.538 151.687 361.085 151.825 362.565C151.938 363.776 151.88 365.026 151.962 366.248C152.056 367.669 151.547 369.11 151.555 370.489C151.566 372.409 152.193 374.368 152.636 376.265C153.066 378.103 152.831 380.835 151.854 382.488C150.993 383.944 150.046 384.611 148.333 384.839C146.814 385.041 146.775 384.833 145.257 384.758C144.236 384.707 143.215 384.461 142.185 384.446C144.734 385.327 145.874 385.951 148.572 386C148.626 386.001 148.679 386.003 148.731 386.001C150.114 385.97 151.181 385.56 152.281 384.693C153.005 384.121 153.711 383.515 154.23 382.734C154.435 382.367 154.621 381.971 154.775 381.561C154.928 380.824 154.983 380.152 154.96 379.415C154.888 377.152 154.569 374.802 154.233 372.536C154.189 372.238 154.142 371.96 154.113 371.72C154.039 371.102 153.999 370.473 154.015 369.843C154.087 367.039 154.669 364.707 153.661 361.967C153.286 360.949 153.355 359.73 153.382 358.663C153.432 356.741 153.656 354.816 153.94 352.924Z" fill="#D38462"/>
<path d="M178.128 204.238C175.764 205.965 173.46 207.796 171.187 209.654C172.192 214.048 171.88 218.938 172.025 223.411C172.291 231.62 172.614 239.84 173.301 248.011C174.032 256.687 175.029 265.357 176.317 273.983C176.578 267.081 176.152 260.174 175.954 253.275C175.769 246.79 175.281 240.335 175.408 233.839C175.492 229.489 175.749 225.113 176.518 220.824C177.144 217.327 178.081 213.617 180.207 210.704C185.691 203.192 192.897 197.451 200.908 192.824C197.526 193.797 194.207 194.99 191.034 196.462C186.482 198.571 182.188 201.271 178.128 204.238Z" fill="#D38462"/>
<path d="M147.873 196.459C144.674 194.987 141.33 193.794 137.924 192.82C139.733 193.855 141.502 194.946 143.22 196.1C142.776 195.942 142.334 195.777 141.899 195.604C135.959 193.243 130.409 189.772 124.346 187.562C124.297 193.413 124.391 199.264 124.605 205.108C125.019 216.46 126.871 227.77 128.618 238.983C130.05 248.17 131.57 257.381 132.786 266.568C133.95 275.366 135.82 284.318 134.603 293.232C134.014 297.547 134.404 301.859 133.87 306.185C133.966 305.953 137.342 295.3 138.017 293.202C138.696 291.093 139.278 288.936 139.302 286.752C139.324 284.712 139.003 282.614 138.692 280.555C138.379 278.481 138.126 276.391 137.969 274.305C137.63 269.778 137.441 265.197 137.237 260.656C136.803 250.952 134.556 241.38 133.555 231.741C133.011 226.502 132.696 221.185 133.136 215.944C133.512 211.465 134.395 206.919 136.757 203.102C137.82 201.384 139.19 199.877 140.822 198.659C141.637 198.051 142.554 197.539 143.498 197.131C143.748 197.022 144 196.917 144.256 196.821C144.261 196.819 144.264 196.818 144.268 196.816C149.81 200.667 154.796 205.204 158.866 210.702C160.925 213.484 161.897 217.006 162.559 220.355C163.403 224.622 163.715 228.989 163.845 233.33C164.045 239.997 163.58 246.621 163.406 253.277C163.225 260.176 162.796 267.082 163.062 273.985C164.338 265.358 165.34 256.688 166.038 248.01C166.677 240.048 166.951 232.039 167.147 224.041C167.218 221.104 167.272 218.165 167.39 215.229C167.465 213.384 167.479 211.464 167.877 209.65C165.585 207.792 163.263 205.962 160.881 204.234C156.789 201.269 152.458 198.568 147.873 196.459Z" fill="#D38462"/>
<path d="M149.097 186.112C148.136 185.6 147.257 184.915 146.226 184.559C137.595 181.564 131.128 174.877 128.362 166.161C127.415 163.177 126.876 160.071 126.679 156.95C126.596 155.622 126.697 154.267 126.573 152.945C125.489 162.501 124.506 172.1 124.087 181.711C124.152 181.736 124.217 181.762 124.282 181.786C127.504 182.989 130.612 183.938 133.986 184.582C138.965 185.532 144.015 186.038 149.097 186.112Z" fill="#D38462"/>
<path d="M159.935 75.7915C162.96 75.2151 166.034 74.5849 168.944 73.6447C173.494 72.175 176.814 69.5551 179.836 65.8762C177.512 67.4917 174.87 69.0621 172.465 70.096C171.427 70.5422 169.904 70.3651 168.701 70.3659C167.504 70.3659 165.981 70.5439 164.947 70.0968C161.572 68.6376 158.169 65.9821 154.964 63.6582C155.368 65.2529 155.169 67.108 155.091 68.7365C154.974 71.1819 154.043 73.3452 152.276 74.9599C151.325 75.8297 150.102 76.4157 148.912 76.9643C149.608 76.9495 150.305 76.9313 151 76.9252C153.99 76.8992 157.004 76.3497 159.935 75.7915Z" fill="#D38462"/>
<path d="M168.638 168.161C167.583 168.161 166.547 167.477 166.329 166.41C166.309 166.523 166.299 166.639 166.3 166.758C166.316 167.988 167.469 168.857 168.641 168.857C169.812 168.857 170.959 167.988 170.96 166.758C170.96 166.64 170.949 166.524 170.928 166.41C170.721 167.478 169.69 168.162 168.638 168.161Z" fill="#D38462"/>
<path d="M136.338 81.1891C128.269 80.9903 122.904 86.2162 120.421 92.792C118.624 97.55 117.766 102.77 116.692 107.731C115.687 112.37 114.799 117.029 113.844 121.675C112.584 127.799 112.045 134.005 110.453 140.073C110.268 140.776 110.108 141.482 109.963 142.194C109.386 143.257 108.856 144.337 108.378 145.434C106.743 149.181 105.145 152.968 103.951 156.874C102.197 162.609 101.197 168.509 100.45 174.418C100.15 176.8 99.8498 179.183 99.4639 181.556C100.449 178.309 101.041 174.967 101.593 171.641C103.113 162.497 105.394 151.391 113.134 144.786C114.136 143.932 114.241 142.627 114.849 141.559C115.021 140.842 115.207 140.132 115.42 139.428C116.324 136.433 116.63 133.214 117.028 130.123C117.632 125.446 118.137 120.758 118.71 116.078C119.267 111.525 119.859 106.972 120.645 102.446C121.215 99.1707 121.735 95.7018 123.083 92.6227C125.477 87.152 129.782 82.4817 136.338 81.1891Z" fill="#D38462"/>
<path d="M112.275 177.608C110.712 180.572 109.09 183.532 107.658 186.559C106.966 188.023 106.255 189.547 106.012 191.119C105.809 192.438 106.158 194.027 106.743 195.255C108.113 189.078 111.724 183.406 114.096 177.533C116.739 170.993 119.983 164.679 121.949 157.922C120.597 160.19 119.606 162.689 118.473 165.052C116.458 169.257 114.453 173.48 112.275 177.608Z" fill="#D38462"/>
<path d="M134.626 111.52C133.276 112.332 131.728 112.848 130.265 113.456C129.316 113.851 127.55 114.37 127.199 115.267C126.704 116.534 127.151 118.422 127.197 119.871C127.279 122.435 127.231 125.003 126.77 127.516C126.014 131.624 125.252 135.799 124.738 139.973C124.497 141.937 124.199 143.951 124.259 145.933C125.124 142.74 126.31 139.602 127.1 136.409C128.281 131.635 129.96 126.965 131.53 122.26C131.588 122.883 131.66 123.392 131.723 123.697C131.908 124.604 131.657 125.662 131.503 126.58C131.205 128.365 130.813 130.135 130.429 131.903C129.316 137.048 128.237 142.198 127.348 147.387C128.11 146.134 128.689 144.76 129.418 143.484C130.881 140.921 132.577 138.5 134.537 136.311C137.392 133.125 141.516 130.894 145.367 129.104C150.753 126.603 156.536 124.754 162.39 123.741C167.294 122.892 172.459 123.451 177.351 124.102C182.829 124.832 188.253 125.923 193.655 127.084C192.255 126.827 190.843 125.765 189.63 125.078C187.269 123.742 184.922 122.381 182.558 121.049C180.168 119.7 177.77 118.362 175.336 117.093C174.098 116.447 172.604 115.404 171.267 115.261C168.761 114.993 165.779 115.788 163.166 116.205C158.838 116.895 154.525 117.681 150.222 118.508C146.144 119.291 142.081 120.134 138.018 120.989C135.959 121.422 133.722 122.084 131.596 122.062C132.751 118.587 133.844 115.091 134.626 111.52Z" fill="#D38462"/>
<path d="M231.777 191.122C231.511 189.547 230.779 188.024 230.066 186.562C228.592 183.535 226.93 180.576 225.328 177.612C223.053 173.403 220.957 169.094 218.856 164.8C217.738 162.517 216.741 160.127 215.436 157.926C217.466 164.693 220.781 171.002 223.507 177.537C225.957 183.41 229.645 189.072 231.106 195.258C231.676 194.026 231.998 192.436 231.777 191.122Z" fill="#D38462"/>
<path d="M210.435 127.516C209.978 125.003 209.94 122.434 210.034 119.871C210.087 118.422 210.547 116.536 210.058 115.267C209.714 114.372 207.95 113.85 207.005 113.456C205.545 112.848 204.001 112.331 202.657 111.52C204.455 120.003 208.02 128.047 210.102 136.409C210.897 139.604 212.094 142.741 212.974 145.933C213.029 143.782 212.682 141.593 212.405 139.462C211.885 135.461 211.151 131.458 210.435 127.516Z" fill="#D38462"/>
<path fill-rule="evenodd" clip-rule="evenodd" d="M214.671 188.945C215.346 186.293 214.245 181.258 213.801 177.421C199.39 182.124 183.79 183.147 168.836 183.145C153.903 183.143 138.532 181.963 124.171 177.238C123.699 181.281 123.303 185.964 123.663 189.369C123.737 190.072 126.547 190.611 127.197 190.85C132.348 192.742 137.218 195.366 141.966 198.09C146.793 200.859 151.596 203.673 156.396 206.49C159.38 208.242 162.492 210.582 165.722 211.703C167.656 212.374 170.165 212.501 172.114 211.838C172.907 211.569 173.621 210.933 174.289 210.42C175.711 209.328 177.093 208.184 178.502 207.075C182.637 203.821 186.936 200.777 191.447 198.089C196.782 194.91 202.458 192.235 208.48 190.59C210.002 190.174 211.543 189.849 213.085 189.517C213.543 189.419 214.582 189.293 214.671 188.945Z" fill="#FF7251"/>
<path fill-rule="evenodd" clip-rule="evenodd" d="M169.509 195.166C157.996 192.952 147.684 187.253 138.01 180.71C133.255 179.925 128.731 178.746 124.169 177.238C123.697 181.281 123.301 185.964 123.661 189.369C123.735 190.072 126.545 190.611 127.195 190.85C132.347 192.741 137.216 195.366 141.964 198.09C146.791 200.859 151.594 203.673 156.394 206.49C159.378 208.242 162.49 210.582 165.72 211.703C167.654 212.374 170.163 212.501 172.112 211.838C172.905 211.569 173.62 210.933 174.287 210.42C175.709 209.328 177.091 208.184 178.5 207.074C182.635 203.821 186.935 200.772 191.445 198.089C193.502 196.865 195.617 195.709 197.779 194.663C188.685 197.227 178.645 196.924 169.509 195.166Z" fill="#F4674E"/>
<path d="M203.228 80.8763C202.079 80.5899 200.931 80.3043 199.782 80.0195C199.506 85.1499 199.534 90.3663 198.004 95.1885C197.552 96.6131 195.021 97.028 193.767 97.3301C191.666 97.8353 189.478 98.1027 187.437 98.8215C184.873 99.7243 182.127 100.857 180.211 102.851C176.958 106.238 173.515 110.142 168.574 110.812C163.571 110.134 160.678 105.771 157.006 102.852C154.837 101.127 152.428 99.6844 149.825 98.8224C147.717 98.1244 145.419 97.8788 143.24 97.331C142.025 97.0254 139.581 96.5827 139.156 95.199C137.674 90.3793 138.226 80.6124 137.54 80.0664C137.314 79.8867 135.242 80.5907 134.101 80.8677C134.036 85.7533 134.113 90.7561 133.556 95.5983C133.161 99.0246 131.301 102.322 129.877 105.422C128.479 108.467 126.626 111.888 126.558 115.268C126.518 117.235 126.868 119.104 127.814 120.875C128.832 122.782 130.193 124.887 131.4 126.295C132.177 127.201 135.008 126.906 136.283 126.929C138.224 126.966 140.173 126.889 142.104 126.926C146.918 127.019 152.272 125.59 156.66 123.644C160.505 121.939 164.348 120.256 168.548 119.643C172.744 120.256 176.584 121.939 180.423 123.643C184.775 125.574 190.048 127.015 194.826 126.921C196.721 126.883 198.636 126.944 200.54 126.919C201.787 126.902 203.041 126.883 204.284 126.767C204.913 126.709 205.855 126.711 206.256 126.306C208.925 123.612 211.363 119.82 211.295 115.288C211.244 111.878 209.144 108.421 207.618 105.426C206.065 102.376 203.965 99.0481 203.603 95.5861C203.097 90.7474 203.233 85.7533 203.228 80.8763Z" fill="#FF7251"/>
<path d="M210.357 111.327C209.606 113.534 209.084 115.297 207.436 116.99C204.309 120.202 198.172 120.391 193.945 120.54C191.135 120.64 188.311 120.565 185.513 120.293C183.818 120.128 181.927 119.999 180.359 119.315C176.556 117.655 172.73 115.939 168.558 115.324C164.381 115.94 160.549 117.65 156.74 119.315C155.068 120.046 153.069 120.228 151.263 120.438C148.513 120.758 145.733 120.899 142.965 120.835C139.058 120.746 132.887 120.563 130.408 116.971C129.121 115.107 128.203 113.265 127.484 111.109C127.032 112.46 126.588 113.855 126.556 115.269C126.513 117.233 126.867 119.105 127.812 120.876C128.83 122.783 130.191 124.888 131.399 126.296C132.176 127.202 135.006 126.907 136.281 126.93C138.222 126.967 140.172 126.889 142.103 126.927C146.916 127.02 152.271 125.591 156.659 123.645C160.503 121.94 164.346 120.257 168.546 119.644C172.742 120.256 176.582 121.94 180.422 123.644C184.773 125.575 190.047 127.016 194.824 126.922C196.719 126.884 198.634 126.945 200.539 126.92C201.786 126.903 203.039 126.883 204.282 126.768C204.912 126.71 205.854 126.712 206.255 126.307C208.923 123.613 211.37 119.812 211.294 115.289C211.272 113.937 210.819 112.609 210.357 111.327Z" fill="#F4674E"/>
<path d="M169.315 24.498C169.1 24.498 168.992 24.498 168.777 24.498C163.633 24.6882 157.909 25.499 154.202 29.4392C151.299 32.5244 150.176 36.851 149.298 40.8485C148.483 44.5553 149.294 48.9356 149.761 52.6841C149.769 53.8534 150.21 55.0609 150.566 56.1599C150.968 57.4021 151.365 58.7963 152.075 59.8727C153.308 61.7417 154.668 63.6706 156.422 65.1637C158.993 67.3522 162.317 69.1196 165.193 70.295C166.197 70.7047 167.643 70.5407 168.793 70.5407C169.944 70.5407 171.39 70.7039 172.396 70.295C175.199 69.1552 178.399 67.4468 180.955 65.3938C182.864 63.8616 184.324 61.8441 185.655 59.8718C186.336 58.8631 186.73 57.5636 187.131 56.3986C187.533 55.2319 188.041 53.9332 188.061 52.6832C188.571 48.94 189.435 44.5665 188.659 40.8485C187.807 36.765 186.65 32.3742 183.623 29.2873C179.922 25.5146 174.362 24.6856 169.315 24.498Z" fill="#FFA786"/>
<path d="M156.589 59.5307C154.528 56.2858 151.852 52.1537 151.79 48.1873C152.372 45.7246 153.38 42.8877 155.323 41.1793C158.518 38.3701 159.394 34.6035 160.753 30.7709C161.302 29.2205 162.038 27.7143 163.32 26.6353C165.176 25.0736 167.737 24.643 170.087 24.5276C169.834 24.5163 169.578 24.5059 169.317 24.498C169.102 24.498 168.994 24.498 168.779 24.498C163.635 24.6882 157.911 25.499 154.204 29.4392C151.301 32.5244 150.178 36.851 149.3 40.8485C148.485 44.5553 149.296 48.9356 149.763 52.6841C149.771 53.8534 150.212 55.0609 150.568 56.1599C150.969 57.4021 151.367 58.7963 152.077 59.8727C153.31 61.7417 154.67 63.6706 156.424 65.1637C158.995 67.3522 162.319 69.1196 165.195 70.295C166.198 70.7047 167.645 70.5407 168.795 70.5407C169.077 70.5407 169.503 70.5407 169.965 70.5311C169.236 70.4964 168.469 70.4851 167.782 70.2933C162.696 68.8713 159.347 63.8746 156.589 59.5307Z" fill="#D38462"/>
<path fill-rule="evenodd" clip-rule="evenodd" d="M206.806 57.4115C210.103 51.2472 206.737 45.1784 202.883 40.1878C201.028 37.7857 199.024 35.3751 197.695 32.6215C196.519 30.1856 195.688 27.5597 194.648 25.0786C192.96 21.0516 189.99 14.955 184.194 14.7953C182.488 14.7484 178.253 10.6085 175.179 9.34713C168.652 6.66733 156.43 7.60661 149.982 12.2908C143.785 16.7927 139.625 22.4032 137.188 28.6361C136.521 30.341 135.991 32.1284 135.164 33.7665C134.227 35.6207 132.836 37.2102 131.481 38.7615C128.03 42.7113 124.826 47.2375 123.75 52.4756C123.045 55.908 123.446 59.3491 124.506 62.6617C126.151 67.8043 129.435 73.1448 125.885 78.257C122.837 82.646 120.014 87.7955 119.632 93.2489C119.338 97.4522 120.112 101.955 122.848 105.295C126.208 109.396 131.598 110.488 136.615 110.285C140.77 110.117 145.94 106.495 147.819 102.873C150.378 97.9357 150.623 92.7801 149.515 87.3485C149.098 85.3058 149.317 83.4837 150.762 81.9264C152.207 80.3708 153.804 79.1059 154.748 77.1771C157.019 72.5336 156.76 67.4762 154.602 62.8136C153.29 59.9759 151.795 57.1676 150.77 54.1762C149.912 51.6717 148.839 48.195 150.269 45.694C150.27 45.6932 150.27 45.6923 150.271 45.6906C152.345 41.9995 157.856 41.4864 161.549 40.528C165.371 39.5367 168.926 37.7102 172.295 35.7362C173.823 34.8412 175.321 33.7899 176.8 32.7734C177.754 32.118 178.707 31.4556 179.62 30.7438C180.011 30.4382 180.765 29.999 180.862 29.4938C184.157 31.7265 187.192 35.2509 187.943 39.2224C188.467 41.9925 188.893 44.8286 188.435 47.6464C188.009 50.2645 187 52.8271 186.064 55.2465C185.377 57.0261 184.282 58.6833 183.684 60.5358C182.74 62.548 182.254 64.6019 182.282 66.7956C182.325 70.024 183.476 73.0857 186.117 75.131C188.999 77.3628 192.76 78.3047 196.125 79.4376C199.81 80.6789 204.274 81.027 207.386 78.2318C210.445 75.4851 211.209 70.919 211.016 67.0673C210.832 63.4239 209.227 60.1712 206.806 57.4115Z" fill="#A8654D"/>
<path fill-rule="evenodd" clip-rule="evenodd" d="M146.941 103.752C144.927 106.363 139.284 108.233 135.979 108.054C127.67 107.604 122.679 102.182 121.839 92.535C121.674 90.6391 121.655 87.1633 121.795 85.2734C120.64 87.8169 119.822 90.4967 119.629 93.2547C119.335 97.4579 120.109 101.961 122.845 105.301C126.205 109.402 131.595 110.494 136.612 110.291C140.767 110.123 145.938 106.501 147.816 102.878C148.115 102.301 148.381 101.721 148.619 101.138C148.098 102.034 147.575 102.93 146.941 103.752Z" fill="#9E5D49"/>
<path fill-rule="evenodd" clip-rule="evenodd" d="M171.818 10.6022C173.103 10.9859 180.755 15.1197 181.478 18.1519C181.985 20.277 182.785 17.0807 183.578 14.7968C180.158 12.1951 175.365 8.92327 171.035 8.19234C166.833 7.48311 162.231 7.76524 158.111 8.81303C155.254 9.53962 152.385 10.5457 149.981 12.2923C148.658 13.2533 147.429 14.2655 146.288 15.3237C147.632 14.6735 156.839 6.12802 171.818 10.6022Z" fill="#9E5D49"/>
<path fill-rule="evenodd" clip-rule="evenodd" d="M186.115 75.1367C186.785 75.6558 187.504 76.1046 188.255 76.5039C188.89 76.8286 191.54 73.9717 191.986 73.5489C197.742 68.1051 197.832 60.4616 196.317 53.2478C195.312 48.4629 192.724 45.1667 189.824 41.1483C189.184 40.2629 188.496 39.413 187.796 38.5762C187.851 38.7923 187.9 39.0093 187.942 39.2281C188.466 41.9982 188.892 44.8342 188.434 47.6521C188.008 50.2702 186.999 52.8328 186.063 55.2522C185.376 57.0318 184.282 58.689 183.684 60.5415C182.74 62.5537 182.253 64.6076 182.281 66.8013C182.321 70.0297 183.473 73.0914 186.115 75.1367Z" fill="#9E5D49"/>
<path fill-rule="evenodd" clip-rule="evenodd" d="M150.269 45.6954C150.888 44.5921 151.816 43.7726 152.91 43.1406C151.706 43.836 149.711 43.9054 148.356 44.3351C147.127 44.7249 145.917 45.1641 144.74 45.6928C142.445 46.7241 140.29 48.1782 139.36 50.6192C135.959 59.5406 147.821 64.829 153.323 69.0679C154.397 69.8952 155.392 70.8457 156.258 71.897C156.563 68.8491 155.958 65.7561 154.6 62.8194C153.287 59.9816 151.792 57.1733 150.768 54.1819C149.91 51.6774 148.836 48.2007 150.267 45.6998C150.267 45.698 150.268 45.6971 150.269 45.6954Z" fill="#9E5D49"/>
</g>
</svg>
