<svg width="160" height="155" viewBox="0 0 160 155" fill="none" xmlns="http://www.w3.org/2000/svg">
<mask id="mask0" mask-type="alpha" maskUnits="userSpaceOnUse" x="0" y="0" width="160" height="155">
<rect width="160" height="155" fill="#C4C4C4"/>
</mask>
<g mask="url(#mask0)">
<path fill-rule="evenodd" clip-rule="evenodd" d="M8.94794 96.7242C0.673749 73.286 -4.22802 45.2951 11.3006 25.8886C26.4552 6.94947 54.3457 11.2868 78.5517 9.73865C104.15 8.10142 133.999 -1.97164 151.34 16.932C168.91 36.0861 162.599 66.8258 153.118 91.027C145.639 110.119 126.061 118.62 107.83 128.002C89.9908 137.181 71.6917 148.823 52.5633 142.773C31.3566 136.065 16.3525 117.699 8.94794 96.7242Z" fill="#D2F8FD"/>
<path fill-rule="evenodd" clip-rule="evenodd" d="M93.8701 64.3725H139.998L134.49 124.403H99.3779L93.8701 64.3725ZM116.865 40.4414C129.533 40.4414 139.86 48.0128 141.237 57.7475H92.4932C93.8701 48.0128 104.335 40.4414 116.865 40.4414Z" fill="#C9EBFF"/>
<path fill-rule="evenodd" clip-rule="evenodd" d="M114.387 118.995H119.481V23H114.387V118.995Z" fill="#FDD491"/>
<path fill-rule="evenodd" clip-rule="evenodd" d="M119.481 40.5766V57.8827H114.387V40.5766C115.213 40.4414 116.039 40.4414 116.865 40.4414C117.829 40.4414 118.655 40.4414 119.481 40.5766ZM119.481 64.3725V103.041H114.387V64.3725H119.481Z" fill="#D8CF99"/>
<path fill-rule="evenodd" clip-rule="evenodd" d="M138.759 77.3516H95.1094L99.3779 124.403H134.49L138.759 77.3516Z" fill="#DEA372"/>
<path fill-rule="evenodd" clip-rule="evenodd" d="M138.346 82.8945H95.5229L99.3784 124.402H134.491L138.346 82.8945Z" fill="#B87A54"/>
<path fill-rule="evenodd" clip-rule="evenodd" d="M94.6965 73.4316H139.172L138.759 78.299H116.865H95.1096L94.6965 73.4316Z" fill="#FEFEFE"/>
<path fill-rule="evenodd" clip-rule="evenodd" d="M93.1819 55.043H140.824C141.1 55.8542 141.238 56.5302 141.375 57.3414H117.003H92.6311C92.7688 56.6654 92.9065 55.8542 93.1819 55.043Z" fill="#FEFEFE"/>
<path fill-rule="evenodd" clip-rule="evenodd" d="M92.4934 56.9355H141.513C143.441 56.9355 144.955 58.4228 144.955 60.3157V63.0197C144.955 64.9126 143.441 66.3998 141.513 66.3998H92.4934C90.5657 66.3998 89.051 64.9126 89.051 63.0197V60.3157C88.9133 58.4228 90.5657 56.9355 92.4934 56.9355Z" fill="#643D37"/>
<path fill-rule="evenodd" clip-rule="evenodd" d="M135.73 109.938H98.1389L99.3782 124.404H134.49L135.73 109.938Z" fill="#CEE8F0"/>
<path fill-rule="evenodd" clip-rule="evenodd" d="M82.8547 39.9219L75.1438 54.2535V64.9346H76.2454C107.502 65.3402 109.017 124.424 68.9475 124.019H47.6047C7.53541 124.56 9.87623 65.3402 41.1331 65.0698H42.2346V54.3887L38.1038 46.0061L82.8547 39.9219Z" fill="#C9EBFF"/>
<path fill-rule="evenodd" clip-rule="evenodd" d="M92.0805 87.5137C95.5229 103.197 86.7104 117.799 68.9477 117.529H47.6049C30.9438 117.799 21.5805 102.116 25.436 87.5137H92.0805Z" fill="#885642"/>
<path fill-rule="evenodd" clip-rule="evenodd" d="M76.2455 72.2353C73.9047 72.7761 79.8256 76.021 82.3041 86.0261C84.7826 96.0312 81.0649 101.98 83.4057 101.439C85.7465 100.899 90.5658 93.1919 88.5004 85.0797C86.435 76.9674 78.4487 71.6945 76.2455 72.2353Z" fill="#FEFEFE"/>
<path fill-rule="evenodd" clip-rule="evenodd" d="M40.7202 64.5281H75.9702V54.2526H40.7202V55.7398C30.6684 49.7908 19.7905 51.5485 14.9711 62.0944L5.19477 83.3214C0.788518 92.6505 9.87641 88.4592 11.3911 85.4847L21.3051 64.2577C25.7114 55.0638 34.6616 58.7143 40.7202 63.0408V64.5281Z" fill="black"/>
<path fill-rule="evenodd" clip-rule="evenodd" d="M109.981 115.77C109.981 119.556 107.227 119.826 107.227 120.908C107.089 122.936 105.575 124.153 103.509 124.153C95.6606 124.153 87.9497 124.153 80.1011 124.153C78.0356 124.153 76.3833 122.936 76.3833 120.908C76.3833 119.826 73.6294 119.556 73.6294 115.77C73.6294 106.712 73.6294 99.2755 73.6294 90.2168H109.981V115.77Z" fill="#DBD9DC"/>
<path fill-rule="evenodd" clip-rule="evenodd" d="M115.076 94.9478C126.504 92.6494 128.019 113.336 110.119 113.065L109.981 112.93V106.846C112.184 111.172 115.902 110.226 118.793 107.251C122.098 103.871 121.272 96.8407 115.626 97.9223C111.496 98.8688 114.25 102.249 109.981 103.871V97.5167C111.22 96.2999 112.873 95.3535 115.076 94.9478Z" fill="#DBD9DC"/>
<path fill-rule="evenodd" clip-rule="evenodd" d="M109.981 107.929C112.322 111.58 116.04 110.768 119.069 108.064C120.308 106.983 120.997 105.36 121.134 103.873C121.272 105.495 120.583 107.388 119.069 108.74C116.04 111.444 112.322 112.256 109.981 108.605V107.929Z" fill="#FEFEFE"/>
<path fill-rule="evenodd" clip-rule="evenodd" d="M115.213 95.4883C120.308 94.5418 123.2 98.3275 123.062 102.654C122.924 98.7332 120.033 95.2179 115.213 96.1643C113.01 96.5699 111.496 97.5163 109.981 98.8684V98.0571C111.496 96.7051 113.286 95.8939 115.213 95.4883Z" fill="#FEFEFE"/>
<path fill-rule="evenodd" clip-rule="evenodd" d="M109.155 101.979V116.175C109.155 118.473 107.227 120.231 105.024 120.231H78.5864C76.2456 120.231 74.4556 118.338 74.4556 116.175V101.979H109.155Z" fill="#A96D4C"/>
<path fill-rule="evenodd" clip-rule="evenodd" d="M105.437 101.979V115.229C105.437 117.392 103.785 119.149 101.857 119.149H79.4126C77.4849 119.149 75.8325 117.392 75.8325 115.229V101.979H105.437Z" fill="#B87A54"/>
<path fill-rule="evenodd" clip-rule="evenodd" d="M89.7397 90.2168V112.12C89.7397 114.418 87.812 116.446 85.1958 116.446C82.5796 116.446 80.6519 114.418 80.6519 112.12V90.2168H89.7397Z" fill="#E4E3E5"/>
<path fill-rule="evenodd" clip-rule="evenodd" d="M103.234 101.979V114.552C103.234 116.716 101.857 118.338 100.205 118.338H80.7896C79.1372 118.338 77.7603 116.581 77.7603 114.552V101.979H103.234Z" fill="#C98C61"/>
<path fill-rule="evenodd" clip-rule="evenodd" d="M87.2612 90.2168V112.12C87.2612 113.202 86.2974 114.148 85.1958 114.148C84.0942 114.148 83.1304 113.202 83.1304 112.12V90.2168H87.2612Z" fill="#FEFEFE"/>
<path fill-rule="evenodd" clip-rule="evenodd" d="M89.7397 101.979V112.119C89.7397 114.417 87.812 116.445 85.1958 116.445C82.5796 116.445 80.6519 114.417 80.6519 112.119V101.979H89.7397Z" fill="#DEA372"/>
<path fill-rule="evenodd" clip-rule="evenodd" d="M83.1304 101.979H87.2612V112.254C87.2612 113.336 86.2974 114.282 85.1958 114.282C84.0942 114.282 83.1304 113.336 83.1304 112.254V101.979Z" fill="#F9C18B"/>
<path fill-rule="evenodd" clip-rule="evenodd" d="M109.981 115.77C109.981 119.556 107.227 119.826 107.227 120.908C107.089 122.936 105.575 124.153 103.509 124.153C95.6606 124.153 87.9497 124.153 80.1011 124.153C78.0356 124.153 76.3833 122.936 76.3833 120.908C76.3833 119.826 73.6294 119.556 73.6294 115.77C73.6294 106.712 73.6294 99.2755 73.6294 90.2168H109.981V115.77Z" fill="#DBD9DC"/>
<path fill-rule="evenodd" clip-rule="evenodd" d="M115.076 94.9478C126.504 92.6494 128.019 113.336 110.119 113.065L109.981 112.93V106.846C112.184 111.172 115.902 110.226 118.793 107.251C122.098 103.871 121.272 96.8407 115.626 97.9223C111.496 98.8688 114.25 102.249 109.981 103.871V97.5167C111.22 96.2999 112.873 95.3535 115.076 94.9478Z" fill="#DBD9DC"/>
<path fill-rule="evenodd" clip-rule="evenodd" d="M109.981 107.929C112.322 111.58 116.04 110.768 119.069 108.064C120.308 106.983 120.997 105.36 121.134 103.873C121.272 105.495 120.583 107.388 119.069 108.74C116.04 111.444 112.322 112.256 109.981 108.605V107.929Z" fill="#FEFEFE"/>
<path fill-rule="evenodd" clip-rule="evenodd" d="M115.213 95.4883C120.308 94.5418 123.2 98.3275 123.062 102.654C122.924 98.7332 120.033 95.2179 115.213 96.1643C113.01 96.5699 111.496 97.5163 109.981 98.8684V98.0571C111.496 96.7051 113.286 95.8939 115.213 95.4883Z" fill="#FEFEFE"/>
<path fill-rule="evenodd" clip-rule="evenodd" d="M109.155 101.979V116.175C109.155 118.473 107.227 120.231 105.024 120.231H78.5864C76.2456 120.231 74.4556 118.338 74.4556 116.175V101.979H109.155Z" fill="#A96D4C"/>
<path fill-rule="evenodd" clip-rule="evenodd" d="M105.437 101.979V115.229C105.437 117.392 103.785 119.149 101.857 119.149H79.4126C77.4849 119.149 75.8325 117.392 75.8325 115.229V101.979H105.437Z" fill="#C98C61"/>
<path fill-rule="evenodd" clip-rule="evenodd" d="M89.7397 90.2168V112.12C89.7397 114.418 87.812 116.446 85.1958 116.446C82.5796 116.446 80.6519 114.418 80.6519 112.12V90.2168H89.7397Z" fill="#E4E3E5"/>
<path fill-rule="evenodd" clip-rule="evenodd" d="M103.234 101.979V114.552C103.234 116.716 101.857 118.338 100.205 118.338H80.7896C79.1372 118.338 77.7603 116.581 77.7603 114.552V101.979H103.234Z" fill="#C98C61"/>
<path fill-rule="evenodd" clip-rule="evenodd" d="M87.2612 90.2168V112.12C87.2612 113.202 86.2974 114.148 85.1958 114.148C84.0942 114.148 83.1304 113.202 83.1304 112.12V90.2168H87.2612Z" fill="#FEFEFE"/>
<path fill-rule="evenodd" clip-rule="evenodd" d="M89.7397 101.979V112.119C89.7397 114.417 87.812 116.445 85.1958 116.445C82.5796 116.445 80.6519 114.417 80.6519 112.119V101.979H89.7397Z" fill="#DEA372"/>
<path fill-rule="evenodd" clip-rule="evenodd" d="M83.1304 101.979H87.2612V112.254C87.2612 113.336 86.2974 114.282 85.1958 114.282C84.0942 114.282 83.1304 113.336 83.1304 112.254V101.979Z" fill="#F9C18B"/>
</g>
</svg>
