<svg xmlns="http://www.w3.org/2000/svg" width="250" height="230" viewBox="0 0 250 230" fill="none"><mask id="mask0" maskUnits="userSpaceOnUse" x="0" y="0" width="250" height="230"><rect width="250" height="230" fill="#F9F9F9"></rect></mask><g mask="url(#mask0)"><path fill-rule="evenodd" clip-rule="evenodd" d="M16.2331 138.942C3.65089 103.301 -3.80304 60.7362 19.8107 31.2255C42.8558 2.42542 85.2678 9.02103 122.077 6.66679C161.004 4.17712 206.394 -11.1406 232.763 17.6055C259.481 46.7324 249.884 93.4771 235.467 130.279C224.094 159.311 194.322 172.238 166.599 186.505C139.472 200.464 111.645 218.167 82.5574 208.967C50.3091 198.766 27.493 170.838 16.2331 138.942Z" fill="#D2F8FD"></path><path d="M106.654 31.168C106.094 31.168 105.59 31.0793 105.142 30.902C104.694 30.7247 104.339 30.4633 104.078 30.118C103.817 29.7727 103.686 29.3573 103.686 28.872C103.686 28.3867 103.807 27.962 104.05 27.598C104.302 27.234 104.699 26.954 105.24 26.758V23.244H112.562V24.252H109.944V26.408C110.709 26.4267 111.386 26.5433 111.974 26.758C112.571 26.9633 113.038 27.2993 113.374 27.766C113.71 28.2327 113.878 28.8533 113.878 29.628C113.878 30.2533 113.761 30.776 113.528 31.196C113.295 31.6253 112.963 31.9987 112.534 32.316C112.077 32.6427 111.521 32.8667 110.868 32.988C110.224 33.1187 109.398 33.184 108.39 33.184H106.808C106.416 33.184 106.113 33.212 105.898 33.268C105.683 33.324 105.497 33.4033 105.338 33.506C105.189 33.6087 105.072 33.7533 104.988 33.94C104.904 34.1267 104.862 34.374 104.862 34.682C104.862 34.962 104.876 35.214 104.904 35.438L103.756 35.494C103.728 35.326 103.705 35.1393 103.686 34.934C103.667 34.738 103.658 34.5607 103.658 34.402C103.658 33.9913 103.733 33.6413 103.882 33.352C104.031 33.072 104.223 32.8433 104.456 32.666C104.699 32.4887 104.969 32.3627 105.268 32.288C105.576 32.2133 105.963 32.176 106.43 32.176H107.956C108.787 32.176 109.468 32.1387 110 32.064C110.532 31.9987 110.961 31.8913 111.288 31.742C111.615 31.602 111.885 31.4153 112.1 31.182C112.483 30.7713 112.674 30.2207 112.674 29.53C112.674 28.9793 112.543 28.5547 112.282 28.256C112.021 27.948 111.68 27.7333 111.26 27.612C110.84 27.4907 110.401 27.4207 109.944 27.402V27.836C109.944 28.4613 109.888 28.9513 109.776 29.306C109.673 29.6607 109.524 29.9593 109.328 30.202C109.039 30.5567 108.665 30.8087 108.208 30.958C107.76 31.098 107.242 31.168 106.654 31.168ZM106.346 24.252V26.492C106.738 26.436 107.172 26.408 107.648 26.408H108.754V24.252H106.346ZM104.89 28.858C104.89 29.2873 105.067 29.614 105.422 29.838C105.777 30.0527 106.225 30.16 106.766 30.16C107.177 30.16 107.527 30.0993 107.816 29.978C108.115 29.8473 108.343 29.628 108.502 29.32C108.67 29.0027 108.754 28.5687 108.754 28.018V27.388H107.55C107.074 27.388 106.668 27.416 106.332 27.472C106.005 27.528 105.725 27.6213 105.492 27.752C105.091 27.9853 104.89 28.354 104.89 28.858ZM118.039 31.168C117.544 31.168 117.091 31.0467 116.681 30.804C116.27 30.552 115.943 30.1647 115.701 29.642C115.467 29.1193 115.351 28.438 115.351 27.598C115.351 26.5993 115.547 25.764 115.939 25.092C116.34 24.42 116.867 23.916 117.521 23.58C118.174 23.244 118.883 23.076 119.649 23.076C120.601 23.076 121.371 23.258 121.959 23.622C122.547 23.986 122.976 24.4713 123.247 25.078C123.527 25.6753 123.667 26.3427 123.667 27.08C123.667 27.6773 123.601 28.2093 123.471 28.676C123.34 29.1427 123.181 29.5813 122.995 29.992H126.733V23.244H127.937V31H121.763L121.707 30.118C121.921 29.7913 122.094 29.39 122.225 28.914C122.365 28.4287 122.435 27.8687 122.435 27.234C122.435 26.2353 122.178 25.4653 121.665 24.924C121.151 24.3827 120.461 24.112 119.593 24.112C118.734 24.112 118.034 24.378 117.493 24.91C116.961 25.4327 116.634 26.1093 116.513 26.94C116.755 26.7813 117.021 26.6553 117.311 26.562C117.6 26.4593 117.899 26.408 118.207 26.408C118.879 26.408 119.42 26.6133 119.831 27.024C120.251 27.4347 120.461 27.99 120.461 28.69C120.461 29.4647 120.241 30.0713 119.803 30.51C119.373 30.9487 118.785 31.168 118.039 31.168ZM118.011 27.388C117.731 27.388 117.46 27.4487 117.199 27.57C116.937 27.682 116.695 27.836 116.471 28.032C116.508 28.8347 116.681 29.3993 116.989 29.726C117.297 30.0527 117.665 30.216 118.095 30.216C118.459 30.216 118.753 30.0993 118.977 29.866C119.201 29.6233 119.313 29.278 119.313 28.83C119.313 28.3633 119.191 28.0087 118.949 27.766C118.706 27.514 118.393 27.388 118.011 27.388ZM127.348 19.198C128.524 19.198 129.495 19.52 130.26 20.164C130.521 20.3787 130.75 20.6493 130.946 20.976C131.151 21.2933 131.31 21.7087 131.422 22.222C131.543 22.726 131.604 23.37 131.604 24.154V31H130.4V24.546C130.4 23.8087 130.358 23.2113 130.274 22.754C130.199 22.2873 130.083 21.9187 129.924 21.648C129.775 21.368 129.593 21.1347 129.378 20.948C129.117 20.7053 128.809 20.528 128.454 20.416C128.099 20.304 127.74 20.248 127.376 20.248C126.62 20.248 126.032 20.4347 125.612 20.808C125.192 21.1813 124.982 21.6853 124.982 22.32C124.982 22.992 125.155 23.51 125.5 23.874C125.845 24.2287 126.312 24.4527 126.9 24.546V25.54C126.321 25.4747 125.794 25.3113 125.318 25.05C124.842 24.7887 124.469 24.4293 124.198 23.972C123.918 23.5147 123.778 22.9593 123.778 22.306C123.778 21.6153 123.941 21.0413 124.268 20.584C124.585 20.1267 125.015 19.7813 125.556 19.548C126.097 19.3147 126.695 19.198 127.348 19.198ZM136.066 33.968L135.268 33.226L137.97 30.664V24.252H135.268V31H134.064V23.244H141.554V24.252H139.174V31L136.066 33.968ZM137.312 21.508C137.041 21.508 136.817 21.424 136.64 21.256C136.463 21.0787 136.374 20.85 136.374 20.57C136.374 20.2993 136.463 20.0753 136.64 19.898C136.817 19.7207 137.041 19.632 137.312 19.632C137.583 19.632 137.807 19.7207 137.984 19.898C138.161 20.0753 138.25 20.2993 138.25 20.57C138.25 20.85 138.161 21.0787 137.984 21.256C137.807 21.424 137.583 21.508 137.312 21.508ZM144.812 31.168C144.252 31.168 143.748 31.0793 143.3 30.902C142.852 30.7247 142.498 30.4633 142.236 30.118C141.975 29.7727 141.844 29.3573 141.844 28.872C141.844 28.3867 141.966 27.962 142.208 27.598C142.46 27.234 142.857 26.954 143.398 26.758V23.244H150.72V24.252H148.102V26.408H148.326C149.054 26.408 149.642 26.464 150.09 26.576C150.538 26.6787 150.921 26.8513 151.238 27.094C151.481 27.2807 151.672 27.528 151.812 27.836C151.952 28.1347 152.022 28.48 152.022 28.872C152.022 29.5813 151.808 30.132 151.378 30.524C150.958 30.916 150.361 31.112 149.586 31.112C149.372 31.112 149.138 31.098 148.886 31.07C148.634 31.042 148.401 30.9953 148.186 30.93L148.452 29.992C148.76 30.0853 149.101 30.132 149.474 30.132C150.37 30.132 150.818 29.6933 150.818 28.816C150.818 28.3867 150.697 28.074 150.454 27.878C150.221 27.6727 149.922 27.542 149.558 27.486C149.194 27.4207 148.816 27.388 148.424 27.388H148.102V27.836C148.102 28.4613 148.046 28.9513 147.934 29.306C147.832 29.6607 147.682 29.9593 147.486 30.202C147.197 30.5567 146.824 30.8087 146.366 30.958C145.918 31.098 145.4 31.168 144.812 31.168ZM144.504 24.252V26.492C144.896 26.436 145.33 26.408 145.806 26.408H146.912V24.252H144.504ZM143.048 28.858C143.048 29.2873 143.226 29.614 143.58 29.838C143.935 30.0527 144.383 30.16 144.924 30.16C145.335 30.16 145.685 30.0993 145.974 29.978C146.273 29.8473 146.502 29.628 146.66 29.32C146.828 29.012 146.912 28.578 146.912 28.018V27.388H145.708C145.232 27.388 144.826 27.416 144.49 27.472C144.164 27.528 143.884 27.6213 143.65 27.752C143.249 27.9853 143.048 28.354 143.048 28.858ZM147.206 21.508C146.936 21.508 146.712 21.424 146.534 21.256C146.357 21.0787 146.268 20.85 146.268 20.57C146.268 20.2993 146.357 20.0753 146.534 19.898C146.712 19.7207 146.936 19.632 147.206 19.632C147.477 19.632 147.701 19.7207 147.878 19.898C148.056 20.0753 148.144 20.2993 148.144 20.57C148.144 20.85 148.056 21.0787 147.878 21.256C147.701 21.424 147.477 21.508 147.206 21.508ZM156.365 31.168C155.805 31.168 155.301 31.0793 154.853 30.902C154.405 30.7247 154.05 30.4633 153.789 30.118C153.528 29.7727 153.397 29.3573 153.397 28.872C153.397 28.3867 153.518 27.962 153.761 27.598C154.013 27.234 154.41 26.954 154.951 26.758V23.244H162.273V24.252H159.655V26.408H159.879C160.607 26.408 161.195 26.464 161.643 26.576C162.091 26.6787 162.474 26.8513 162.791 27.094C163.034 27.2807 163.225 27.528 163.365 27.836C163.505 28.1347 163.575 28.48 163.575 28.872C163.575 29.5813 163.36 30.132 162.931 30.524C162.511 30.916 161.914 31.112 161.139 31.112C160.924 31.112 160.691 31.098 160.439 31.07C160.187 31.042 159.954 30.9953 159.739 30.93L160.005 29.992C160.313 30.0853 160.654 30.132 161.027 30.132C161.923 30.132 162.371 29.6933 162.371 28.816C162.371 28.3867 162.25 28.074 162.007 27.878C161.774 27.6727 161.475 27.542 161.111 27.486C160.747 27.4207 160.369 27.388 159.977 27.388H159.655V27.836C159.655 28.4613 159.599 28.9513 159.487 29.306C159.384 29.6607 159.235 29.9593 159.039 30.202C158.75 30.5567 158.376 30.8087 157.919 30.958C157.471 31.098 156.953 31.168 156.365 31.168ZM156.057 24.252V26.492C156.449 26.436 156.883 26.408 157.359 26.408H158.465V24.252H156.057ZM154.601 28.858C154.601 29.2873 154.778 29.614 155.133 29.838C155.488 30.0527 155.936 30.16 156.477 30.16C156.888 30.16 157.238 30.0993 157.527 29.978C157.826 29.8473 158.054 29.628 158.213 29.32C158.381 29.012 158.465 28.578 158.465 28.018V27.388H157.261C156.785 27.388 156.379 27.416 156.043 27.472C155.716 27.528 155.436 27.6213 155.203 27.752C154.802 27.9853 154.601 28.354 154.601 28.858ZM167.75 31.168C167.255 31.168 166.802 31.0467 166.392 30.804C165.981 30.552 165.654 30.1647 165.412 29.642C165.178 29.1193 165.062 28.438 165.062 27.598C165.062 26.5993 165.258 25.764 165.65 25.092C166.051 24.42 166.578 23.916 167.232 23.58C167.885 23.244 168.594 23.076 169.36 23.076C170.312 23.076 171.082 23.258 171.67 23.622C172.258 23.986 172.687 24.4713 172.958 25.078C173.238 25.6753 173.378 26.3427 173.378 27.08C173.378 27.6773 173.312 28.2093 173.182 28.676C173.051 29.1427 172.892 29.5813 172.706 29.992H176.444V23.244H177.648V34.962H176.444V31H171.474L171.418 30.118C171.632 29.7913 171.805 29.39 171.936 28.914C172.076 28.4287 172.146 27.8687 172.146 27.234C172.146 26.2353 171.889 25.4653 171.376 24.924C170.862 24.3827 170.172 24.112 169.304 24.112C168.445 24.112 167.745 24.378 167.204 24.91C166.672 25.4327 166.345 26.1093 166.224 26.94C166.466 26.7813 166.732 26.6553 167.022 26.562C167.311 26.4593 167.61 26.408 167.918 26.408C168.59 26.408 169.131 26.6133 169.542 27.024C169.962 27.4347 170.172 27.99 170.172 28.69C170.172 29.4647 169.952 30.0713 169.514 30.51C169.084 30.9487 168.496 31.168 167.75 31.168ZM167.722 27.388C167.442 27.388 167.171 27.4487 166.91 27.57C166.648 27.682 166.406 27.836 166.182 28.032C166.219 28.8347 166.392 29.3993 166.7 29.726C167.008 30.0527 167.376 30.216 167.806 30.216C168.17 30.216 168.464 30.0993 168.688 29.866C168.912 29.6233 169.024 29.278 169.024 28.83C169.024 28.3633 168.902 28.0087 168.66 27.766C168.417 27.514 168.104 27.388 167.722 27.388ZM186.999 23.076C187.699 23.076 188.273 23.258 188.721 23.622C189.169 23.9767 189.5 24.476 189.715 25.12C189.93 25.7547 190.037 26.492 190.037 27.332C190.037 27.9853 189.967 28.5453 189.827 29.012C189.687 29.4787 189.463 29.8613 189.155 30.16C188.828 30.4773 188.427 30.6967 187.951 30.818C187.484 30.9393 186.85 31 186.047 31H180.111V23.244H181.315V29.992H184.479V26.03C184.479 25.4513 184.53 24.994 184.633 24.658C184.745 24.3127 184.904 24.0233 185.109 23.79C185.324 23.5567 185.58 23.3793 185.879 23.258C186.178 23.1367 186.551 23.076 186.999 23.076ZM186.971 24.084C186.812 24.084 186.658 24.112 186.509 24.168C186.36 24.2147 186.234 24.294 186.131 24.406C185.982 24.574 185.87 24.784 185.795 25.036C185.72 25.2787 185.683 25.6893 185.683 26.268V29.992H186.341C186.976 29.992 187.47 29.9033 187.825 29.726C188.18 29.5487 188.432 29.2593 188.581 28.858C188.73 28.4567 188.805 27.9247 188.805 27.262C188.805 26.6647 188.74 26.128 188.609 25.652C188.488 25.176 188.292 24.798 188.021 24.518C187.76 24.2287 187.41 24.084 186.971 24.084ZM184.899 21.508C184.628 21.508 184.404 21.424 184.227 21.256C184.05 21.0787 183.961 20.85 183.961 20.57C183.961 20.2993 184.05 20.0753 184.227 19.898C184.404 19.7207 184.628 19.632 184.899 19.632C185.17 19.632 185.394 19.7207 185.571 19.898C185.748 20.0753 185.837 20.2993 185.837 20.57C185.837 20.85 185.748 21.0787 185.571 21.256C185.394 21.424 185.17 21.508 184.899 21.508Z" fill="black"></path><path d="M238.939 178.865C238.939 181.749 166.586 184.462 103.628 184.462C40.6691 184.462 11.4004 179.007 11.4004 176.124C11.4004 169.362 62.4369 170.911 125.396 170.911C188.354 170.911 238.939 175.982 238.939 178.865Z" fill="#939393"></path><path opacity="0.6" d="M73 67.2897V119.732C97.9603 120.67 101.026 133.042 123.57 135.229V67.2897C123.57 66.3096 122.779 65.5283 121.819 65.5283C115.773 65.5283 106.648 58.4688 97.5789 58.4688C88.9904 58.4688 80.4726 65.5283 74.7516 65.5283C73.7769 65.5283 73 66.3096 73 67.2897Z" fill="#D6D6D6"></path><path d="M120.943 144.871C121.917 144.871 122.694 145.667 122.694 146.632V151.249C122.694 152.229 121.903 153.01 120.943 153.01H75.9801C75.0054 153.01 74.2285 152.215 74.2285 151.249V146.632C74.2285 145.652 75.0196 144.871 75.9801 144.871H120.943Z" fill="#DDAB6F"></path><path d="M120.943 136.207C121.917 136.207 122.694 137.002 122.694 137.968V142.585C122.694 143.565 121.903 144.346 120.943 144.346H75.9801C75.0054 144.346 74.2285 143.551 74.2285 142.585V137.968C74.2285 136.988 75.0196 136.207 75.9801 136.207H120.943Z" fill="#DDAB6F"></path><path d="M120.943 127.559C121.917 127.559 122.694 128.354 122.694 129.32V133.936C122.694 134.916 121.903 135.698 120.943 135.698H75.9801C75.0054 135.698 74.2285 134.902 74.2285 133.936V129.32C74.2285 128.34 75.0196 127.559 75.9801 127.559H120.943Z" fill="#DDAB6F"></path><path d="M120.943 118.891C121.917 118.891 122.694 119.686 122.694 120.652V125.268C122.694 126.249 121.903 127.03 120.943 127.03H75.9801C75.0054 127.03 74.2285 126.234 74.2285 125.268V120.652C74.2285 119.672 75.0196 118.891 75.9801 118.891H120.943Z" fill="#DDAB6F"></path><path d="M120.943 110.242C121.917 110.242 122.694 111.038 122.694 112.004V116.62C122.694 117.6 121.903 118.381 120.943 118.381H75.9801C75.0054 118.381 74.2285 117.586 74.2285 116.62V112.004C74.2285 111.023 75.0196 110.242 75.9801 110.242H120.943Z" fill="#DDAB6F"></path><path d="M120.943 101.59C121.917 101.59 122.694 102.385 122.694 103.351V107.968C122.694 108.948 121.903 109.729 120.943 109.729H75.9801C75.0054 109.729 74.2285 108.933 74.2285 107.968V103.351C74.2285 102.371 75.0196 101.59 75.9801 101.59H120.943Z" fill="#DDAB6F"></path><path d="M120.943 92.9258C121.917 92.9258 122.694 93.7212 122.694 94.6871V99.3035C122.694 100.284 121.903 101.065 120.943 101.065H75.9801C75.0054 101.065 74.2285 100.269 74.2285 99.3035V94.6871C74.2285 93.707 75.0196 92.9258 75.9801 92.9258H120.943Z" fill="#DDAB6F"></path><path d="M120.943 84.2734C121.917 84.2734 122.694 85.0689 122.694 86.0348V90.6513C122.694 91.6314 121.903 92.4126 120.943 92.4126H75.9801C75.0054 92.4126 74.2285 91.6172 74.2285 90.6513V86.0348C74.2285 85.0547 75.0196 84.2734 75.9801 84.2734H120.943Z" fill="#DDAB6F"></path><path d="M120.943 75.6094C121.917 75.6094 122.694 76.4048 122.694 77.3707V81.9871C122.694 82.9673 121.903 83.7485 120.943 83.7485H75.9801C75.0054 83.7485 74.2285 82.953 74.2285 81.9871V77.3707C74.2285 76.3906 75.0196 75.6094 75.9801 75.6094H120.943Z" fill="#DDAB6F"></path><path d="M120.943 66.9609C121.917 66.9609 122.694 67.7564 122.694 68.7223V73.3387C122.694 74.3188 121.903 75.1 120.943 75.1H75.9801C75.0054 75.1 74.2285 74.3046 74.2285 73.3387V68.7223C74.2285 67.7422 75.0196 66.9609 75.9801 66.9609H120.943Z" fill="#DDAB6F"></path><path d="M73 127.076C97.9603 128.013 101.026 140.385 123.57 142.587V135.243C101.026 133.041 97.9462 120.669 73 119.746V127.076V127.076Z" fill="#FFEC88"></path><path d="M73 152.543C73 153.523 73.791 154.304 74.7516 154.304H121.819C122.793 154.304 123.57 153.509 123.57 152.543V142.585C101.026 140.384 97.9462 128.012 73 127.074V152.543V152.543Z" fill="#EF5C00"></path><path opacity="0.7" d="M93.3123 55.6248L84.2012 40.6817C84.2012 40.6817 96.5754 37.3721 99.0615 39.6732L98.0021 57.514L93.3123 55.6248Z" fill="#E6E6E6"></path><path opacity="0.6" d="M101.406 57.5001L108.879 40.1565C108.879 40.1565 95.9393 35.185 91.0518 39.2191L96.914 57.074L101.406 57.5001Z" fill="#E6E6E6"></path><path d="M104.146 55.625H91.8564V59.375H104.146V55.625Z" fill="#373737"></path><path opacity="0.6" d="M94.0212 62.457L80.0367 76.3489L79.2598 96.0079L84.5287 77.8546L94.0212 62.457Z" fill="#FFFFFC"></path><path opacity="0.6" d="M99.6982 61.0234L108.753 70.1427L111.352 85.3698L104.671 71.5205L99.6982 61.0234Z" fill="#FFFFFC"></path><path d="M152 86.7992H118L128.1 74.1992H162.1L152 86.7992Z" fill="#DBF1FD"></path><path d="M172.2 86.8008H152V174.101H172.2V86.8008Z" fill="#299AEA"></path><path d="M162.1 74.1992L158.2 79.0992L172.2 86.7992L162.1 74.1992Z" fill="#1379DA"></path><path d="M172.2 86.7977L158.2 79.0977L152 86.7977H172.2Z" fill="#61B6F2"></path><path d="M158 66H132.1C129.8 66 128 67.8 128 70.1V74.2H162.1V70.1C162.1 67.8 160.3 66 158 66Z" fill="#299AEA"></path><path d="M152 86.8008V174.101H118V86.8008H152Z" fill="#B0E2FC"></path><path d="M135 146.801C141.627 146.801 147 141.428 147 134.801C147 128.173 141.627 122.801 135 122.801C128.373 122.801 123 128.173 123 134.801C123 141.428 128.373 146.801 135 146.801Z" fill="white"></path><path d="M140.1 74.5008C138.9 74.6008 137.6 75.2008 136.5 76.3008C135.4 77.4008 134.8 78.7008 134.7 79.9008L133.5 80.4008L135.5 82.4008C135.5 82.4008 135.5 82.4008 135.6 82.5008C137 83.9008 139.8 83.5008 141.8 81.6008C143.8 79.6008 144.2 76.9008 142.7 75.4008L140.6 73.3008L140.1 74.5008Z" fill="#D32144"></path><path d="M140.6 73.3003C142 74.7003 141.6 77.5003 139.7 79.5003C137.7 81.5003 135 81.9003 133.5 80.4003C132.1 79.0003 132.5 76.2003 134.4 74.2003C136.4 72.3003 139.2 71.8003 140.6 73.3003Z" fill="#FF3D3D"></path><path d="M139.599 116.998H130.399C129.499 116.998 128.699 116.198 128.699 115.298C128.699 114.398 129.499 113.598 130.399 113.598H139.599C140.499 113.598 141.299 114.398 141.299 115.298C141.299 116.198 140.499 116.998 139.599 116.998Z" fill="#61B6F2"></path><path d="M144.5 110.099H125.5C124.6 110.099 123.8 109.299 123.8 108.399C123.8 107.499 124.6 106.699 125.5 106.699H144.5C145.4 106.699 146.2 107.499 146.2 108.399C146.2 109.299 145.5 110.099 144.5 110.099Z" fill="#61B6F2"></path><path d="M129 169.598H123C122.4 169.598 121.9 169.098 121.9 168.498C121.9 167.898 122.4 167.398 123 167.398H129C129.6 167.398 130.1 167.898 130.1 168.498C130.1 169.098 129.6 169.598 129 169.598Z" fill="#B0E2FC"></path><path d="M147 169.598H134.6C134 169.598 133.5 169.098 133.5 168.498C133.5 167.898 134 167.398 134.6 167.398H147C147.6 167.398 148.1 167.898 148.1 168.498C148.1 169.098 147.6 169.598 147 169.598Z" fill="#B0E2FC"></path><path d="M166 112.298H158.3C157 112.298 155.9 111.198 155.9 109.898V98.2984C155.9 96.9984 157 95.8984 158.3 95.8984H166C167.3 95.8984 168.4 96.9984 168.4 98.2984V109.898C168.4 111.198 167.3 112.298 166 112.298Z" fill="#61B6F2"></path><path d="M166 169.602H158.3C157 169.602 155.9 168.502 155.9 167.202V165.002C155.9 163.702 157 162.602 158.3 162.602H166C167.3 162.602 168.4 163.702 168.4 165.002V167.202C168.4 168.602 167.3 169.602 166 169.602Z" fill="#61B6F2"></path><path d="M166 152.898H158.3C157 152.898 155.9 151.798 155.9 150.498V119.298C155.9 117.998 157 116.898 158.3 116.898H166C167.3 116.898 168.4 117.998 168.4 119.298V150.498C168.4 151.798 167.3 152.898 166 152.898Z" fill="#61B6F2"></path><path d="M134.2 86.8008V86.9008C134.2 95.8008 126.9 103.101 118 103.101V86.8008H134.2Z" fill="#FF3D3D"></path><path d="M135 159.1C137.375 159.1 139.3 157.175 139.3 154.8C139.3 152.425 137.375 150.5 135 150.5C132.625 150.5 130.7 152.425 130.7 154.8C130.7 157.175 132.625 159.1 135 159.1Z" fill="white"></path><path d="M210.52 143.558C212.44 143.558 214 145.118 214 147.038V158.678V171.518L202 171.998L208.36 166.718V147.038C208.36 145.118 206.8 143.558 204.88 143.558C206.8 143.558 208.36 141.998 208.36 140.078V138.398H214V140.078C214 141.998 212.44 143.558 210.52 143.558Z" fill="#661204"></path><path d="M208.24 140.078V138.398H181.12H175.48V140.078C175.48 141.998 177.04 143.558 178.96 143.558C177.04 143.558 175.48 145.118 175.48 147.038V171.518L187.84 171.998L187.24 171.518H203.2C205.96 171.518 208.24 169.238 208.24 166.478V147.038C208.24 145.118 206.68 143.558 204.76 143.558C206.68 143.558 208.24 141.998 208.24 140.078Z" fill="#801600"></path><path d="M214 140.078C214 141.998 212.44 143.558 210.52 143.558C212.44 143.558 214 145.118 214 147.038V158.678V165.158C214 168.638 211.12 171.518 207.52 171.518C204.28 171.518 185.2 171.518 181.96 171.518C178.48 171.518 175.48 168.638 175.48 165.158V158.678V147.038C175.48 145.118 177.04 143.558 178.96 143.558C177.04 143.558 175.48 141.998 175.48 140.078V138.398H172.12V140.078C172.12 141.278 172.48 142.478 173.08 143.558C172.36 144.518 172 145.718 172 147.038V158.678V165.158C172.12 170.558 176.44 174.998 181.84 174.998C184.24 174.998 205 174.998 207.4 174.998C212.8 174.998 217.24 170.558 217.24 165.278V158.798V147.158C217.24 145.958 216.88 144.758 216.28 143.678C216.88 142.718 217.24 141.518 217.24 140.198V138.518H213.88V140.078H214Z" fill="#CEE8FB"></path><path d="M217.36 89.0787C217.36 82.7187 214.24 76.8387 208.96 73.2387L205.6 70.9587C203.32 69.3987 202 66.8787 202 64.2387V59.0787V55.7188H198.64H191.68H188.32V59.0787V63.9987C188.32 66.7587 186.88 69.2787 184.6 70.7187L180.88 72.9987C175.36 76.4787 172 82.5987 172 89.0787V99.3987C172 100.599 172.36 101.799 172.96 102.879C172.36 103.839 172 105.039 172 106.239V108.279H175.36V106.239C175.36 104.319 176.92 102.759 178.84 102.759C176.92 102.759 175.36 101.199 175.36 99.2788V89.0787C175.36 83.6787 178.12 78.7587 182.68 75.8787L186.16 73.7187C189.4 71.6787 191.44 67.9587 191.56 64.1188V59.1987H198.52V64.3587C198.52 68.1987 200.44 71.7987 203.56 73.9587L206.92 76.2387C211.36 78.9987 214 83.7987 214 89.0787V99.3987C214 101.319 212.44 102.879 210.52 102.879C212.44 102.879 214 104.439 214 106.359V108.399H217.36V106.359C217.36 105.159 217 103.959 216.4 102.879C217 101.919 217.36 100.719 217.36 99.3987V89.0787Z" fill="#CEE8FB"></path><path d="M175.36 108.281H172V138.281H175.36V108.281Z" fill="#FF4D54"></path><path d="M217.36 108.281H214V138.281H217.36V108.281Z" fill="#D40000"></path><path d="M207.04 75.9981L203.68 73.7181C200.44 71.5581 198.64 67.9581 198.64 64.1181V59.0781H191.68V63.9981C191.68 67.9581 189.64 71.5581 186.28 73.5981L182.8 75.7581C182.32 76.1181 181.84 76.4781 181.36 76.8381H208.36C207.88 76.5981 207.4 76.3581 207.04 75.9981Z" fill="#E1F1FD"></path><path d="M208.24 99.3981V89.1981C208.24 84.3981 206.08 79.9581 202.48 77.0781H186.88H181.24C177.64 80.0781 175.48 84.5181 175.48 89.1981V99.3981C175.48 101.318 177.04 102.878 178.96 102.878C177.04 102.878 175.48 104.438 175.48 106.358V108.398H181.24H208.36V106.358C208.36 104.438 206.8 102.878 204.88 102.878C206.68 102.758 208.24 101.198 208.24 99.3981Z" fill="#801600"></path><path d="M179.801 90.7552C178.841 90.7552 178.121 90.0352 178.121 89.0752C178.121 85.7152 179.441 82.5952 181.721 80.1952C182.321 79.5952 183.401 79.4752 184.001 80.1952C184.601 80.7952 184.721 81.8752 184.001 82.4752C182.321 84.2752 181.361 86.6752 181.361 89.0752C181.481 90.0352 180.761 90.7552 179.801 90.7552Z" fill="#A43422"></path><path d="M179.801 100.838C178.841 100.838 178.121 100.118 178.121 99.158V94.598C178.121 93.638 178.841 92.918 179.801 92.918C180.761 92.918 181.481 93.638 181.481 94.598V99.158C181.481 100.118 180.761 100.838 179.801 100.838Z" fill="#A43422"></path><path d="M179.801 165.398C178.841 165.398 178.121 164.678 178.121 163.718V149.078C178.121 148.118 178.841 147.398 179.801 147.398C180.761 147.398 181.481 148.118 181.481 149.078V163.838C181.481 164.678 180.761 165.398 179.801 165.398Z" fill="#A43422"></path><path d="M208.121 76.957H202.361C205.961 79.957 208.121 84.397 208.121 89.077V99.397C208.121 101.317 206.561 102.877 204.641 102.877C206.561 102.877 208.121 104.437 208.121 106.357V108.397H213.881V106.357C213.881 105.877 213.761 105.397 213.641 105.037C213.401 104.437 212.921 103.837 212.441 103.477C211.841 103.117 211.241 102.877 210.521 102.877C211.241 102.877 211.841 102.637 212.441 102.277C213.041 101.917 213.401 101.437 213.641 100.717C213.761 100.357 213.881 99.877 213.881 99.397V89.197C214.001 84.397 211.841 79.837 208.121 76.957Z" fill="#661204"></path><path d="M202.6 49H199C199.72 49 200.44 49.72 200.44 50.68V57.52C200.44 58.48 199.84 59.2 199 59.2H202.6C203.32 59.2 204.04 58.48 204.04 57.52V50.68C204.04 49.72 203.44 49 202.6 49Z" fill="#D40000"></path><path d="M200.44 57.52V50.68C200.44 49.72 199.84 49 199 49H187.6C186.88 49 186.16 49.72 186.16 50.68V57.52C186.16 58.48 186.76 59.2 187.6 59.2H199C199.72 59.08 200.44 58.36 200.44 57.52Z" fill="#EE1E1D"></path><path d="M202 59.0781H188.2V62.1981H202V59.0781Z" fill="#D40000"></path><path d="M214 108.281H205.96C202.84 105.881 198.88 104.441 194.56 104.441C190.24 104.441 186.4 105.881 183.16 108.281H175.48V138.281H183.16C186.28 140.681 190.24 142.121 194.56 142.121C198.88 142.121 202.72 140.681 205.96 138.281H214V108.281Z" fill="#EE1E1D"></path><path d="M192.76 99.1577C194.02 99.1577 195.04 98.1369 195.04 96.8777C195.04 95.6184 194.02 94.5977 192.76 94.5977C191.501 94.5977 190.48 95.6184 190.48 96.8777C190.48 98.1369 191.501 99.1577 192.76 99.1577Z" fill="#A43422"></path><path d="M199.12 87.6392C199.12 88.4792 198.52 89.0792 197.68 89.0792C196.84 89.0792 196.24 88.4792 196.24 87.6392C196.24 86.7992 196.84 86.1992 197.68 86.1992C198.52 86.1992 199.12 86.7992 199.12 87.6392Z" fill="#A43422"></path><path d="M195.639 161.439C196.899 161.439 197.919 160.418 197.919 159.159C197.919 157.9 196.899 156.879 195.639 156.879C194.38 156.879 193.359 157.9 193.359 159.159C193.359 160.418 194.38 161.439 195.639 161.439Z" fill="#A43422"></path><path d="M200.559 151.36C201.354 151.36 201.999 150.716 201.999 149.92C201.999 149.125 201.354 148.48 200.559 148.48C199.764 148.48 199.119 149.125 199.119 149.92C199.119 150.716 199.764 151.36 200.559 151.36Z" fill="#A43422"></path><path d="M189.04 149.919C189.835 149.919 190.48 149.274 190.48 148.479C190.48 147.684 189.835 147.039 189.04 147.039C188.244 147.039 187.6 147.684 187.6 148.479C187.6 149.274 188.244 149.919 189.04 149.919Z" fill="#A43422"></path><path d="M203.116 134.18C209.065 129.522 210.111 120.924 205.454 114.975C200.796 109.026 192.197 107.979 186.248 112.637C180.299 117.294 179.252 125.893 183.91 131.842C188.568 137.791 197.167 138.838 203.116 134.18Z" fill="#D40000"></path><path d="M198.7 115.398V154.898L197.7 165.598C197.7 167.598 196.1 169.198 194.1 169.198H188.7V117.398C188.7 116.298 187.8 115.398 186.7 115.398H198.7Z" fill="#299AEA"></path><path d="M188.7 117.398V170.298H170.7C170.6 170.298 170.4 170.298 170.3 170.298C170 170.298 169.6 170.198 169.3 170.098C169.2 169.998 169 169.998 168.9 169.898C167.8 169.298 168.1 168.098 168.1 166.798L167 162.698V115.398H186.6C187.8 115.398 188.7 116.298 188.7 117.398Z" fill="#61B6F2"></path><path d="M193 128.699C192.7 127.899 192.3 127.199 191.8 126.599C189.8 123.899 186.7 122.199 183.1 122.199C178.7 122.199 174.9 124.899 173.2 128.699H167.2V130.699V135.199V137.199H173.2C174.9 140.999 178.7 143.699 183.1 143.699C186.7 143.699 189.8 141.999 191.8 139.299C192.3 138.599 192.7 137.899 193 137.199H198.7V135.199V130.699V128.699H193Z" fill="#1379DA"></path><path d="M196.2 111.998V100.198C196.2 94.7984 191.8 90.3984 186.4 90.3984H179.5C174.1 90.3984 169.7 94.7984 169.7 100.198V111.898H168.2C167.6 111.898 167.1 112.398 167.1 112.998V115.298H198.7V112.998C198.7 112.398 198.2 111.898 197.6 111.898H196.2V111.998Z" fill="#CEECFC"></path><path d="M193 111.998V100.198C193 94.7984 188.6 90.3984 183.2 90.3984H180C185.4 90.3984 189.8 94.7984 189.8 100.198V111.898H193V111.998Z" fill="#9ADAFB"></path><path d="M172.9 111.998V100.198C172.9 94.7984 177.3 90.3984 182.7 90.3984H185.9C180.5 90.3984 176.1 94.7984 176.1 100.198V111.898H172.9V111.998Z" fill="#9ADAFB"></path><path d="M198.8 115.398H167.2V118.998H198.8V115.398Z" fill="#9ADAFB"></path><path d="M184.7 90.3984H181.5V111.898H184.7V90.3984Z" fill="#9ADAFB"></path><path d="M171.1 154.2C172 153.5 173.1 153.1 174.3 153.1C173.1 151.9 172.5 150.6 172.3 149.4C172.2 148.9 172.7 148.5 173.2 148.6C174.3 148.8 175.7 149.6 176.8 150.7C176.9 149.6 177.3 148.6 177.9 147.8C178.2 147.4 178.8 147.4 179.1 147.8C179.8 148.7 180.2 149.9 180.2 151.1C180.2 151.5 180.1 152 180 152.5C179.6 154.6 177.9 156.3 175.8 156.6C175.3 156.7 174.7 156.7 174.4 156.7C173.1 156.7 172 156.2 171.1 155.4C170.7 155 170.7 154.5 171.1 154.2Z" fill="#109343"></path><path d="M184.1 152.499C181.9 150.199 178.2 150.199 175.9 152.399C173.6 154.599 173.6 158.299 175.8 160.599C178 162.899 184.3 165.599 186.6 163.299C189 161.099 186.4 154.799 184.1 152.499Z" fill="#FF3D3D"></path><path d="M182.1 153.798C182.4 153.498 182.4 153.098 182.1 152.798L181.4 151.998C181.1 151.698 180.7 151.698 180.4 151.998C180.1 152.298 180.1 152.698 180.4 152.998L181.1 153.798C181.3 153.998 181.8 153.998 182.1 153.798Z" fill="#FFE21F"></path><path d="M178.9 155.298C179.2 154.998 179.2 154.598 178.9 154.298L178.2 153.498C177.9 153.198 177.5 153.198 177.2 153.498C176.9 153.798 176.9 154.198 177.2 154.498L177.9 155.298C178.2 155.598 178.6 155.598 178.9 155.298Z" fill="#FFE21F"></path><path d="M181.9 158.4C182.2 158.1 182.2 157.7 181.9 157.4L181.2 156.6C180.9 156.3 180.5 156.3 180.2 156.6C179.9 156.9 179.9 157.3 180.2 157.6L180.9 158.4C181.1 158.6 181.6 158.6 181.9 158.4Z" fill="#FFE21F"></path><path d="M177.199 158.298C177.499 157.998 177.499 157.598 177.199 157.298L176.499 156.498C176.199 156.198 175.799 156.198 175.499 156.498C175.199 156.798 175.199 157.198 175.499 157.498L176.199 158.298C176.499 158.598 176.899 158.598 177.199 158.298Z" fill="#FFE21F"></path><path d="M184.799 161.4C185.099 161.1 185.099 160.7 184.799 160.4L184.099 159.6C183.799 159.3 183.399 159.3 183.099 159.6C182.799 159.9 182.799 160.3 183.099 160.6L183.799 161.4C184.099 161.7 184.499 161.7 184.799 161.4Z" fill="#FFE21F"></path><path d="M197.1 155.8C197.2 155 197.1 154.3 196.8 153.6C194.2 152.1 191.1 151.2 187.7 151C190 151.2 191.7 153.3 191.4 155.8C191.1 157.9 189.2 159.4 187.1 159.4H192.8C194.9 159.4 196.9 157.9 197.1 155.8Z" fill="#FFE6E9"></path><path d="M198.7 154.902V170.902C198.7 172.902 197.1 174.502 195.1 174.502H175V170.002C175 164.202 179.7 159.402 185.6 159.402H192.8C194.8 159.402 196.7 158.002 197.1 156.002C197.3 155.102 197.2 154.302 196.9 153.602C197.5 154.102 198.1 154.502 198.7 154.902Z" fill="#FFB2B9"></path><path d="M185.8 159.398C179.9 159.398 175.2 164.098 175.2 169.998V174.498H170.3C170 174.498 169.6 174.398 169.3 174.298C169.2 174.198 169 174.198 168.9 174.098V170.098C168.9 164.298 173.6 159.498 179.5 159.498H185.8V159.398Z" fill="#FFCDD2"></path><path d="M180.9 159.398C175 159.398 170.3 164.098 170.3 169.998V174.498C170 174.498 169.6 174.398 169.3 174.298C169.2 174.198 169 174.198 168.9 174.098C167.8 173.498 167 172.298 167 170.998V162.598C168.9 160.698 171.6 159.498 174.5 159.498H180.9V159.398Z" fill="#FFE6E9"></path><path d="M183.1 140.5C187.242 140.5 190.6 137.142 190.6 133C190.6 128.858 187.242 125.5 183.1 125.5C178.957 125.5 175.6 128.858 175.6 133C175.6 137.142 178.957 140.5 183.1 140.5Z" fill="white"></path><path d="M115 132H104.3C110.2 132 115 136.8 115 142.7V160.6C115 166.5 110.2 171.3 104.3 171.3H115C120.9 171.3 125.7 166.5 125.7 160.6V142.7C125.8 136.8 121 132 115 132Z" fill="#FFA800"></path><path d="M92.1 161.501C93.8121 161.501 95.2 160.113 95.2 158.401C95.2 156.689 93.8121 155.301 92.1 155.301C90.3879 155.301 89 156.689 89 158.401C89 160.113 90.3879 161.501 92.1 161.501Z" fill="#FFE600"></path><path d="M89.0992 144.7C89.0992 146.2 87.8992 147.4 86.3992 147.4C84.8992 147.4 83.6992 146.2 83.6992 144.7C83.6992 143.2 84.8992 142 86.3992 142C87.8992 142 89.0992 143.2 89.0992 144.7Z" fill="#FFBE03"></path><path d="M109.8 135.199H74.5996V168.099H109.8C113.9 168.099 117.3 164.699 117.3 160.599V142.699C117.3 138.499 114 135.199 109.8 135.199Z" fill="#FFE600"></path><path d="M119.5 132H74.5996V135.2H109.8C113.9 135.2 117.3 138.6 117.3 142.7V160.6C117.3 164.7 113.9 168.1 109.8 168.1H74.5996V171.3H119.5C125.4 171.3 130.2 166.5 130.2 160.6V142.7C130.2 136.8 125.4 132 119.5 132Z" fill="#FFCA03"></path><path d="M101 135.201C101 136.701 99.7996 137.901 98.2996 137.901C96.7996 137.901 95.5996 136.701 95.5996 135.201L98.2996 133.801L101 135.201Z" fill="#FFCA03"></path><path d="M88.6992 168.101C88.6992 165.401 90.8992 163.301 93.4992 163.301C96.1992 163.301 98.2992 165.501 98.2992 168.101L93.8992 169.601L88.6992 168.101Z" fill="#FFCA03"></path><path d="M90.6998 152.099C90.6998 153.899 89.2998 155.299 87.4998 155.299C85.6998 155.299 84.2998 153.899 84.2998 152.099C84.2998 150.299 85.6998 148.899 87.4998 148.899C89.1998 148.799 90.6998 150.299 90.6998 152.099Z" fill="#FFA800"></path><path d="M104.099 158.901C104.099 160.101 103.099 161.001 101.999 161.001C100.799 161.001 99.8994 160.001 99.8994 158.901C99.8994 157.801 100.899 156.801 101.999 156.801C103.199 156.801 104.099 157.701 104.099 158.901Z" fill="#FFA800"></path><path d="M84.8992 139.998C84.8992 141.198 83.8992 142.098 82.7992 142.098C81.6992 142.098 80.6992 141.098 80.6992 139.998C80.6992 138.898 81.6992 137.898 82.7992 137.898C83.8992 137.898 84.8992 138.798 84.8992 139.998Z" fill="#FFCA03"></path><path d="M112.699 148.402C112.699 151.002 114.799 153.102 117.399 153.202L118.899 148.402L117.399 143.602C114.799 143.602 112.699 145.802 112.699 148.402Z" fill="#FFCA03"></path><path d="M119.5 132H110.6C116.5 132 121.3 136.8 121.3 142.7V160.6C121.3 166.5 116.5 171.3 110.6 171.3H119.5C125.4 171.3 130.2 166.5 130.2 160.6V142.7C130.2 136.8 125.4 132 119.5 132Z" fill="#D40000"></path><path d="M34.1004 132H44.8004C38.9004 132 34.1004 136.8 34.1004 142.7V160.6C34.1004 166.5 38.9004 171.3 44.8004 171.3H34.1004C28.2004 171.3 23.4004 166.5 23.4004 160.6V142.7C23.4004 136.8 28.2004 132 34.1004 132Z" fill="#FFA800"></path><path d="M54 158.402C54 160.102 55.4 161.502 57.1 161.502C58.8 161.502 60.2 160.102 60.2 158.402C60.2 156.702 58.8 155.302 57.1 155.302C55.4 155.202 54 156.702 54 158.402Z" fill="#FFE600"></path><path d="M60.0996 144.7C60.0996 146.2 61.2996 147.4 62.7996 147.4C64.2996 147.4 65.4996 146.2 65.4996 144.7C65.4996 143.2 64.2996 142 62.7996 142C61.2996 142 60.0996 143.2 60.0996 144.7Z" fill="#FFBE03"></path><path d="M31.7998 142.699V160.599C31.7998 164.699 35.1998 168.099 39.2998 168.099H74.4998V135.199H39.2998C35.1998 135.199 31.7998 138.499 31.7998 142.699Z" fill="#FFCA03"></path><path d="M29.7 132H74.6V135.2H39.4C35.3 135.2 31.9 138.6 31.9 142.7V160.6C31.9 164.7 35.3 168.1 39.4 168.1H74.6V171.3H29.7C23.8 171.3 19 166.5 19 160.6V142.7C19 136.8 23.8 132 29.7 132Z" fill="#FFA800"></path><path d="M69.8004 168.2C69.8004 166.7 68.6004 165.5 67.1004 165.5C65.6004 165.5 64.4004 166.7 64.4004 168.2L67.1004 169.6L69.8004 168.2Z" fill="#FFA800"></path><path d="M44.9004 134.801C44.9004 137.501 47.1004 139.601 49.7004 139.601C52.4004 139.601 54.5004 137.401 54.5004 134.801L50.1004 133.301L44.9004 134.801Z" fill="#FFA800"></path><path d="M44.5996 157.501C44.5996 159.301 45.9996 160.701 47.7996 160.701C49.5996 160.701 50.9996 159.301 50.9996 157.501C50.9996 155.701 49.5996 154.301 47.7996 154.301C46.0996 154.301 44.5996 155.701 44.5996 157.501Z" fill="#FFA800"></path><path d="M62.2998 148.4C62.2998 149.6 63.2998 150.5 64.3998 150.5C65.5998 150.5 66.4998 149.5 66.4998 148.4C66.4998 147.3 65.4998 146.3 64.3998 146.3C63.1998 146.2 62.2998 147.2 62.2998 148.4Z" fill="#FFA800"></path><path d="M36.4998 155.198C36.4998 157.798 34.3998 159.898 31.7998 159.998L30.2998 155.198L31.7998 150.398C34.3998 150.498 36.4998 152.598 36.4998 155.198Z" fill="#FFA800"></path><path d="M29.7 132H38.6C32.7 132 27.9 136.8 27.9 142.7V160.6C27.9 166.5 32.7 171.3 38.6 171.3H29.7C23.8 171.3 19 166.5 19 160.6V142.7C19 136.8 23.8 132 29.7 132Z" fill="#EE1E1D"></path><line x1="68.2322" y1="160.232" x2="178.232" y2="50.2322" stroke="#BF2828" stroke-width="5"></line><line x1="71.7678" y1="50.2322" x2="181.768" y2="160.232" stroke="#BF2828" stroke-width="5"></line></g></svg>