<svg width="195" height="187" viewBox="0 0 195 187" fill="none" xmlns="http://www.w3.org/2000/svg">
<mask id="mask0" mask-type="alpha" maskUnits="userSpaceOnUse" x="0" y="0" width="195" height="187">
<rect width="195" height="187" fill="white"/>
</mask>
<g mask="url(#mask0)">
<path fill-rule="evenodd" clip-rule="evenodd" d="M0.114343 98.9772C-2.50807 70.6419 0.158109 38.3839 24.044 22.0295C47.3546 6.06887 78.5309 19.683 107.178 25.6718C137.473 32.005 175.24 30.4354 189.775 56.6761C204.503 83.2646 187.959 114.977 169.681 138.511C155.261 157.076 129.922 160.183 105.889 164.684C82.3723 169.088 57.5835 176.046 37.1217 163.335C14.4368 149.243 2.46115 124.335 0.114343 98.9772Z" fill="#D2F8FD"/>
<mask id="mask1" mask-type="alpha" maskUnits="userSpaceOnUse" x="-1" y="10" width="197" height="161">
<path fill-rule="evenodd" clip-rule="evenodd" d="M0.617272 98.9342C-2.00514 70.599 0.66104 38.341 24.5469 21.9865C47.8576 6.0259 90.357 9.47025 119.004 15.459C149.299 21.7922 175.743 30.3924 190.278 56.6332C205.006 83.2216 188.462 114.934 170.184 138.468C155.764 157.033 130.425 160.14 106.392 164.641C82.8753 169.045 58.0864 176.003 37.6247 163.292C14.9397 149.2 2.96408 124.292 0.617272 98.9342Z" fill="#D2F8FD"/>
</mask>
<g mask="url(#mask1)">
<path d="M155.528 49.6185C155.528 49.6185 157.605 62.1616 157.511 71.2809C157.477 79.0874 155.093 83.6388 156.275 84.1599C158.922 85.0099 169.407 77.1244 169.112 76.1491C168.818 75.1737 163.917 58.1796 163.696 57.448C163.476 56.7165 160.702 46.0156 160.702 46.0156L155.528 49.6185Z" fill="#FAAF71"/>
<path d="M144.259 30.9639C147.638 34.2436 152.223 39.1346 155.423 42.9887L167.029 41.799C166.851 39.2943 165.786 36.9832 163.464 35.2134C159.196 32.1273 155.672 29.1469 151.477 25.9111C149.156 24.1414 146.689 22.6709 143.995 20.8483C141.673 19.0785 138.138 18.3761 135.68 17.7068C132.252 16.5796 130.76 15.9676 129.876 16.5618C128.547 17.2528 128.947 19.7091 130.752 21.7253C133.459 24.7497 140.542 27.3562 144.259 30.9639Z" fill="#FAAF71"/>
<path d="M156.804 43.7997C156.728 46.9763 156.313 49.0419 155.974 51.3544L165.675 83.0805L174.179 81.2269C170.455 66.7643 168.823 53.8208 167.841 47.1876C166.94 41.1955 165.874 33.5272 159.667 32.2465C154.92 31.1743 150.865 30.0831 146.08 28.8875C143.45 28.2755 140.897 27.9104 137.978 27.4932C135.386 27.0046 127.322 29.1573 124.919 29.286C123.573 29.4477 122.986 32.4725 126.685 34.2998C128.735 35.3013 137.55 35.2235 142.05 37.0079C146.441 38.8161 152.627 41.5498 156.804 43.7997Z" fill="#FAB67D"/>
<path d="M124.06 89.6595C124.131 89.5126 124.654 84.012 132.701 82.6513C139.444 81.5751 146.266 84.5544 153.227 80.0148C153.803 79.6262 157.558 77.4938 158.992 72.32C157.947 69.6574 156.523 65.3699 155.846 63.1527C154.078 57.3633 154.263 54.17 152.315 48.5512C147.558 48.5375 140.811 49.2205 136.242 49.8227C132.798 50.3111 129.006 52.3204 125.344 52.8562C124.328 52.9463 122.731 53.0317 122.911 52.8612C122.439 52.8328 121.82 52.7049 121.31 52.5534C114.463 50.6306 115.881 47.2998 117.001 46.7927C119.568 45.7075 126.114 43.2289 128.719 42.2668C131.649 41.2336 134.216 40.1484 136.858 39.3095C141.636 37.8734 145.875 36.9491 150.724 35.3661C156.949 33.3518 160.727 40.4107 163.799 45.9157C167.798 53.3204 170.272 60.6637 173.364 68.1349C175.901 74.5448 179.524 80.7178 182.567 86.886C184.272 90.1928 189.479 101.933 192.93 109.063C192.897 109.333 192.755 109.626 192.721 109.896C191.738 119.964 187.684 149.58 176.575 123.259C174.899 119.289 168.317 109.7 166.842 107.526C163.666 102.438 160.264 96.6105 150.395 93.9016C147.924 93.7834 145.491 93.7885 142.983 93.5471C138.586 93.1923 134.163 93.894 129.619 93.4396C126.785 93.2694 123.374 93.4877 124.06 89.6595Z" fill="#FABB87"/>
<path d="M121.77 51.6918C123.512 51.0285 124.419 48.8321 123.52 47.8842C123.128 47.3979 117.008 50.4386 117.008 50.4386C117.008 50.4386 118.701 52.7856 121.77 51.6918Z" fill="#F2D2C2"/>
<path d="M128.204 33.482C129.732 33.2925 130.694 31.6449 130.293 30.7262C130.211 30.4565 124.721 31.654 124.721 31.654C124.721 31.654 125.492 33.7861 128.204 33.482Z" fill="#E8BEAA"/>
<path d="M132.988 20.658C134.572 21.1503 136.569 20.3141 136.019 19.3272C135.47 18.3404 130.589 17.5805 130.589 17.5805C130.589 17.5805 130.309 19.7082 132.988 20.658Z" fill="#E8BEAA"/>
<path d="M129.108 89.6457C128.128 89.6084 122.878 90.3 123.321 93.9138C123.321 93.9138 125.425 94.4859 129.499 94.3336L132.48 94.1705C132.037 90.5566 129.108 89.6457 129.108 89.6457Z" fill="#F2D2C2"/>
</g>
<path d="M83.1514 91.2703C83.1514 85.6892 78.9806 79.9486 74.9702 74.3676C71.9224 70.0622 71.4411 63.8432 71.4411 60.8135H71.762C73.5265 60.8135 74.9702 59.5378 74.9702 58.1027V55.7108C74.9702 54.1162 73.5265 53 71.762 53H61.6559H61.4955H51.3894C49.6248 53 48.1811 54.2757 48.1811 55.7108V58.1027C48.1811 59.5378 49.6248 60.8135 51.3894 60.8135H51.7102C51.7102 63.6838 51.229 70.0622 48.1811 74.3676C44.0103 80.1081 40 85.8486 40 91.2703V91.4297C40 91.4297 40 91.4297 40 91.5892V148.038C40 152.981 48.0207 158.243 61.4955 158.243C74.9702 158.243 82.9909 152.981 82.9909 148.038V91.5892C83.1514 91.4297 83.1514 91.4297 83.1514 91.2703C83.1514 91.4297 83.1514 91.4297 83.1514 91.2703Z" fill="#CAECF4"/>
<path d="M44.8125 92.2266V147.878C44.8125 151.227 52.352 153.778 61.8164 153.778C71.2808 153.778 78.8203 151.067 78.8203 147.878V92.2266H44.8125Z" fill="#F2F2F2"/>
<path d="M78.8203 92.2277C78.8203 93.8223 71.2808 95.098 61.8164 95.098C52.352 95.098 44.8125 93.8223 44.8125 92.2277C44.8125 90.6331 52.352 89.3574 61.8164 89.3574C71.1204 89.3574 78.8203 90.6331 78.8203 92.2277Z" fill="white"/>
<path d="M74.9703 59.0595C74.9703 60.6541 73.687 61.9297 72.0828 61.9297H51.0686C49.4645 61.9297 48.1812 60.6541 48.1812 59.0595V55.8703C48.1812 54.2757 49.4645 53 51.0686 53H72.0828C73.687 53 74.9703 54.2757 74.9703 55.8703V59.0595Z" fill="#4DBFD9"/>
<path d="M68.3934 82.8183C68.3934 84.4129 67.1101 85.6886 65.5059 85.6886H64.8643C63.2601 85.6886 61.9768 84.4129 61.9768 82.8183V67.3507C61.9768 65.7561 63.2601 64.4805 64.8643 64.4805H65.5059C67.1101 64.4805 68.3934 65.7561 68.3934 67.3507V82.8183Z" fill="white"/>
<path d="M75.4515 139.267C75.4515 140.862 74.1682 142.137 72.5641 142.137H71.4412C69.837 142.137 68.5537 140.862 68.5537 139.267V102.273C68.5537 100.678 69.837 99.4023 71.4412 99.4023H72.5641C74.1682 99.4023 75.4515 100.678 75.4515 102.273V139.267Z" fill="white"/>
<path d="M56.8433 123.482V148.039C56.8433 154.577 75.6117 159.839 98.5509 159.839C121.49 159.839 140.259 154.577 140.259 148.039V123.482H56.8433Z" fill="#ECA402"/>
<path d="M140.259 123.482C140.259 130.019 121.49 135.282 98.5509 135.282C75.6117 135.282 56.8433 130.019 56.8433 123.482C56.8433 116.944 75.6117 111.682 98.5509 111.682C121.49 111.682 140.259 116.944 140.259 123.482Z" fill="#E49306"/>
<path d="M92.1343 147.561V163.506C92.1343 167.652 104.165 171.161 119.084 171.161C134.002 171.161 146.033 167.812 146.033 163.506V147.561H92.1343Z" fill="#F2F2F2"/>
<path d="M146.194 147.56C146.194 151.706 134.163 155.214 119.244 155.214C104.326 155.214 92.2947 151.866 92.2947 147.56C92.2947 143.414 104.326 139.906 119.244 139.906C134.163 139.906 146.194 143.255 146.194 147.56Z" fill="#E6E6E6"/>
<path d="M94.4368 70.9371C94.498 70.9966 94.5352 71.0793 94.5485 71.1851C94.5733 71.276 94.57 71.3571 94.5386 71.4282C94.4907 71.582 94.3849 71.649 94.2212 71.6293C93.9351 71.5979 93.6407 71.608 93.3381 71.6594C93.0355 71.7107 92.7461 71.868 92.47 72.131C92.1939 72.3941 91.9973 72.7547 91.88 73.2128C91.7611 73.6577 91.7307 74.1117 91.7887 74.5748C91.8451 75.0246 91.9999 75.4016 92.2531 75.7058C92.5178 75.9951 92.8312 76.191 93.1935 76.2934C93.4167 76.3594 93.6615 76.3825 93.9278 76.3625C94.194 76.3426 94.4578 76.3028 94.7191 76.2432C94.9919 76.1686 95.2565 76.0817 95.5128 75.9824C95.7674 75.8698 96.008 75.7523 96.2345 75.6299C96.3106 75.5934 96.3842 75.5909 96.4553 75.6223C96.5397 75.6521 96.5992 75.6984 96.634 75.7612C96.7217 75.9249 96.7102 76.101 96.5995 76.2896C96.4623 76.4815 96.2697 76.6602 96.0217 76.8256C95.7736 76.9911 95.4959 77.1334 95.1883 77.2526C94.8807 77.3718 94.5624 77.4588 94.2333 77.5135C93.9026 77.5549 93.5867 77.5542 93.2857 77.5113C92.8623 77.4569 92.4926 77.3487 92.1767 77.1868C91.8723 77.0099 91.611 76.8008 91.3926 76.5595C91.1725 76.3049 90.9971 76.0312 90.8664 75.7386C90.7339 75.4326 90.6404 75.1152 90.5857 74.7861C90.4597 73.9956 90.5223 73.2621 90.7734 72.5856C91.0377 71.9075 91.4551 71.3781 92.0255 70.9975C92.4472 70.7162 92.8862 70.5738 93.3426 70.5703C93.8106 70.552 94.1754 70.6742 94.4368 70.9371ZM101.757 70.3619C102.172 70.4577 102.53 70.6345 102.831 70.8924C103.146 71.1486 103.399 71.4528 103.591 71.805C103.781 72.1439 103.907 72.5044 103.968 72.8864C104.043 73.2668 104.048 73.6289 103.984 73.9729C103.885 74.3616 103.745 74.7487 103.565 75.1341C103.385 75.5195 103.167 75.8693 102.91 76.1836C102.654 76.498 102.352 76.7643 102.003 76.9828C101.654 77.2012 101.254 77.3386 100.805 77.395C100.262 77.463 99.79 77.3946 99.3881 77.1897C98.9861 76.9847 98.6544 76.6971 98.393 76.3267C98.1316 75.9564 97.9363 75.524 97.8071 75.0296C97.6911 74.5335 97.6413 74.0291 97.6577 73.5164C97.6641 73.1393 97.7053 72.7713 97.7813 72.4124C97.8688 72.0386 97.9952 71.707 98.1605 71.4175C98.3241 71.1148 98.5208 70.8617 98.7506 70.6582C98.9936 70.4531 99.2805 70.3297 99.6112 70.2883C99.7965 70.2651 100.033 70.2757 100.321 70.3203C100.607 70.3516 100.877 70.4185 101.132 70.5209C101.284 70.3406 101.492 70.2876 101.757 70.3619ZM101.185 71.9051C101.027 71.8307 100.841 71.7332 100.624 71.6126C100.419 71.4771 100.243 71.4184 100.098 71.4367C99.9391 71.4566 99.7895 71.5492 99.649 71.7147C99.5217 71.8784 99.411 72.067 99.3168 72.2804C99.2342 72.4789 99.1656 72.6823 99.1111 72.8907C99.0566 73.0991 99.0236 73.2645 99.0121 73.3869C98.9973 73.5903 99.0007 73.8318 99.0223 74.1112C99.0439 74.3907 99.0986 74.6661 99.1863 74.9373C99.2724 75.1952 99.4023 75.4275 99.576 75.6342C99.7613 75.826 100.012 75.9491 100.328 76.0035C100.52 76.0332 100.738 76.0059 100.983 75.9214C101.226 75.8238 101.456 75.6806 101.675 75.492C101.906 75.3017 102.111 75.061 102.29 74.7699C102.481 74.4771 102.615 74.1512 102.691 73.7923C102.775 73.3921 102.726 72.9952 102.542 72.6017C102.37 72.1932 102.08 71.9205 101.673 71.7834C101.589 71.8611 101.5 71.9058 101.408 71.9174C101.315 71.929 101.241 71.9249 101.185 71.9051ZM106.533 70.146C106.598 70.3395 106.666 70.5594 106.737 70.8058C106.82 71.0373 106.904 71.282 106.99 71.54C107.075 71.7847 107.153 72.0369 107.226 72.2965C107.299 72.5561 107.364 72.8034 107.42 73.0382C107.536 72.6743 107.662 72.2889 107.799 71.882C107.936 71.4751 108.091 71.0997 108.263 70.7556C108.446 70.3967 108.643 70.0964 108.855 69.8549C109.08 69.6117 109.338 69.4719 109.629 69.4354C110.065 69.3806 110.449 69.4938 110.78 69.7748C111.124 70.0542 111.425 70.4195 111.683 70.8709C111.953 71.3074 112.18 71.7762 112.364 72.2772C112.547 72.7783 112.704 73.2222 112.833 73.6092C112.957 73.9564 112.832 74.2409 112.456 74.4627C112.283 74.5785 112.145 74.6092 112.045 74.5546C111.944 74.5001 111.882 74.4406 111.861 74.3761C111.775 74.2256 111.654 73.9586 111.498 73.575C111.356 73.1897 111.193 72.8003 111.009 72.4067C110.839 72.0115 110.655 71.6718 110.458 71.3874C110.261 71.103 110.065 70.9865 109.87 71.0378C109.634 71.0809 109.444 71.286 109.302 71.6532C109.178 71.951 109.052 72.2826 108.923 72.6481C108.806 72.9988 108.69 73.3627 108.576 73.7398C108.461 74.1037 108.346 74.4742 108.232 74.8513C108.129 75.2135 108.03 75.5484 107.935 75.8561C107.854 75.9603 107.743 76.0413 107.602 76.0993C107.473 76.1423 107.333 76.1465 107.18 76.1118C107.043 76.0887 106.929 76.0359 106.838 75.9532C106.747 75.8706 106.696 75.7829 106.684 75.6903C106.436 74.6733 106.192 73.7498 105.954 72.9197C105.729 72.0879 105.461 71.2412 105.152 70.3797C105.021 70.0871 104.971 69.8514 105.002 69.6728C105.045 69.4793 105.235 69.3816 105.57 69.3798C106.043 69.4012 106.364 69.6566 106.533 70.146ZM118.333 69.9163C118.583 69.8715 118.841 69.8995 119.109 70.0003C119.377 70.1011 119.529 70.2904 119.564 70.5682C119.565 70.7964 119.458 70.9577 119.241 71.0521C119.036 71.1315 118.868 71.1796 118.735 71.1962C118.471 71.2293 118.187 71.2716 117.884 71.323C117.582 71.3744 117.273 71.4332 116.959 71.4995C116.987 71.9394 117.012 72.3528 117.034 72.7398C117.069 73.1251 117.099 73.4707 117.124 73.7767C117.147 74.0694 117.17 74.3084 117.194 74.4936C117.217 74.6788 117.236 74.7772 117.251 74.7888C117.535 74.6993 117.835 74.5744 118.151 74.4138C118.478 74.2384 118.798 74.0572 119.111 73.8702C119.435 73.6683 119.746 73.4681 120.043 73.2695C120.353 73.0561 120.644 72.8583 120.916 72.6763C121.04 72.5936 121.157 72.5588 121.266 72.572C121.388 72.5835 121.469 72.6339 121.507 72.7232C121.551 72.8654 121.554 73.0465 121.514 73.2665C121.475 73.4865 121.38 73.6932 121.229 73.8868C121.051 74.0704 120.809 74.2888 120.505 74.5419C120.213 74.7802 119.893 75.0152 119.545 75.2468C119.198 75.4785 118.842 75.6911 118.477 75.8848C118.123 76.0635 117.802 76.1844 117.514 76.2473C117.083 76.3417 116.737 76.2641 116.477 76.0145C116.217 75.7649 116.048 75.4301 115.968 75.01C115.889 74.59 115.821 74.1013 115.764 73.544C115.721 72.985 115.674 72.393 115.622 71.7679C115.374 71.8259 115.133 71.883 114.898 71.9393C114.675 71.9808 114.459 72.028 114.25 72.081C114.079 72.1025 113.882 72.0869 113.66 72.0341C113.452 71.9796 113.333 71.8399 113.305 71.615C113.295 71.5356 113.315 71.4256 113.365 71.285C113.414 71.1444 113.547 71.0269 113.764 70.9326C114.295 70.772 114.887 70.6171 115.54 70.468C115.502 69.8413 115.472 69.2335 115.452 68.6448C115.432 68.056 115.412 67.521 115.392 67.0398C115.386 66.8793 115.414 66.7346 115.479 66.6056C115.543 66.4766 115.622 66.4063 115.714 66.3947C115.938 66.3532 116.157 66.3862 116.372 66.4936C116.598 66.5862 116.722 66.7118 116.742 66.8706C116.745 67.327 116.756 67.843 116.774 68.4185C116.806 68.9924 116.839 69.5795 116.874 70.1798C117.136 70.1201 117.385 70.0754 117.623 70.0455C117.873 70.0008 118.11 69.9577 118.333 69.9163ZM127.671 67.1934C127.449 67.3556 127.215 67.526 126.969 67.7047C126.736 67.8817 126.499 68.0861 126.26 68.3177C126.032 68.5344 125.815 68.79 125.61 69.0845C125.417 69.364 125.25 69.694 125.109 70.0745C124.908 70.6104 124.794 71.1487 124.768 71.6895C124.74 72.2171 124.744 72.7339 124.781 73.24C124.81 73.4781 124.782 73.7303 124.694 73.9966C124.618 74.248 124.481 74.3861 124.282 74.411C124.031 74.4425 123.81 74.3426 123.62 74.1111C123.441 73.8648 123.31 73.6258 123.228 73.3943C122.885 72.4832 122.584 71.5804 122.324 70.6858C122.062 69.7779 121.821 68.8742 121.601 67.9746C121.578 67.7894 121.616 67.6637 121.715 67.5975C121.827 67.5297 121.957 67.4932 122.104 67.4882C122.265 67.4815 122.422 67.5022 122.576 67.5501C122.729 67.598 122.829 67.693 122.873 67.8352C122.988 68.3181 123.118 68.8258 123.266 69.3582C123.412 69.8775 123.548 70.3239 123.676 70.6977C123.672 70.2412 123.763 69.7864 123.948 69.3332C124.133 68.88 124.376 68.4598 124.677 68.0727C124.991 67.6839 125.351 67.3431 125.758 67.0502C126.178 66.7557 126.615 66.5397 127.068 66.4023C127.263 66.351 127.428 66.3302 127.564 66.3401C127.699 66.35 127.798 66.3847 127.859 66.4442C127.92 66.5037 127.94 66.6087 127.919 66.7592C127.91 66.908 127.828 67.0528 127.671 67.1934ZM133.423 66.3915C133.838 66.4873 134.196 66.6641 134.498 66.922C134.812 67.1782 135.065 67.4824 135.257 67.8346C135.447 68.1736 135.573 68.534 135.634 68.916C135.709 69.2964 135.714 69.6586 135.65 70.0026C135.551 70.3913 135.411 70.7783 135.231 71.1637C135.051 71.5491 134.833 71.899 134.576 72.2133C134.32 72.5276 134.018 72.794 133.669 73.0124C133.32 73.2308 132.921 73.3683 132.471 73.4247C131.928 73.4927 131.456 73.4242 131.054 73.2193C130.652 73.0144 130.321 72.7267 130.059 72.3564C129.798 71.986 129.602 71.5536 129.473 71.0592C129.357 70.5631 129.307 70.0587 129.324 69.546C129.33 69.169 129.371 68.801 129.447 68.4421C129.535 68.0683 129.661 67.7367 129.827 67.4472C129.99 67.1445 130.187 66.8914 130.417 66.6879C130.66 66.4827 130.947 66.3594 131.277 66.3179C131.463 66.2947 131.699 66.3054 131.987 66.3499C132.273 66.3812 132.543 66.4481 132.798 66.5505C132.95 66.3702 133.159 66.3172 133.423 66.3915ZM132.851 67.9347C132.694 67.8604 132.507 67.7629 132.29 67.6422C132.085 67.5067 131.91 67.4481 131.764 67.4663C131.605 67.4862 131.456 67.5789 131.315 67.7443C131.188 67.9081 131.077 68.0967 130.983 68.31C130.9 68.5085 130.832 68.712 130.777 68.9204C130.723 69.1288 130.69 69.2941 130.678 69.4165C130.663 69.62 130.667 69.8614 130.688 70.1409C130.71 70.4204 130.765 70.6957 130.852 70.9669C130.939 71.2249 131.068 71.4572 131.242 71.6638C131.427 71.8556 131.678 71.9787 131.994 72.0332C132.186 72.0629 132.404 72.0355 132.649 71.9511C132.892 71.8534 133.123 71.7103 133.341 71.5216C133.572 71.3314 133.777 71.0907 133.956 70.7995C134.147 70.5067 134.281 70.1809 134.357 69.822C134.441 69.4217 134.392 69.0248 134.208 68.6313C134.036 68.2229 133.746 67.9501 133.339 67.813C133.255 67.8908 133.167 67.9354 133.074 67.9471C132.981 67.9587 132.907 67.9546 132.851 67.9347ZM138.253 63.3873C138.5 64.8211 138.8 66.302 139.153 67.8299C139.504 69.3447 139.86 70.7916 140.221 72.1707C140.334 72.7479 140.212 73.0654 139.857 73.1235C139.777 73.1334 139.695 73.1169 139.609 73.0739C139.521 73.0177 139.438 72.9475 139.36 72.8632C139.283 72.7789 139.204 72.6879 139.125 72.5904C139.058 72.4912 139.014 72.4027 138.991 72.325C138.8 71.6636 138.611 70.9616 138.424 70.2191C138.237 69.4766 138.056 68.7333 137.883 67.9892C137.72 67.2301 137.567 66.4901 137.423 65.7691C137.279 65.0481 137.162 64.3842 137.072 63.7773C137.059 63.4564 137.072 63.186 137.112 62.9661C137.15 62.7329 137.275 62.6096 137.489 62.5963C137.715 62.5813 137.885 62.654 138 62.8144C138.125 62.9599 138.21 63.1509 138.253 63.3873Z" fill="#F7B149"/>
</g>
<g clip-path="url(#clip0)">
<path d="M34.6762 120.134L41.8484 146.993C42.287 148.636 41.2956 150.349 39.6531 150.788C38.0107 151.226 36.3935 150.209 35.9549 148.567L28.7827 121.708C28.3441 120.065 29.3355 118.352 30.8814 117.939C31.6543 117.733 32.5046 117.816 33.2391 118.241C33.8769 118.692 34.4698 119.361 34.6762 120.134Z" fill="#EA7D23"/>
<path d="M14.0618 115.807L16.2031 123.826C17.0545 127.014 20.3855 129.023 23.6704 128.145L42.4136 123.14C45.6019 122.289 47.6105 118.958 46.7333 115.673L44.592 107.654L14.0618 115.807Z" fill="#FFCC99"/>
<path d="M35.9147 124.772L30.0212 126.346L30.5888 128.471L36.4823 126.897L35.9147 124.772Z" fill="#CE571D"/>
<path d="M37.4263 81.2075C35.7752 75.0241 29.4097 71.3417 23.2263 72.9929L15.2073 75.1342C9.02396 76.7854 5.34157 83.1509 6.99273 89.3343L15.2227 120.154C15.5581 121.41 16.9047 122.189 18.1607 121.854L18.7403 121.699C19.4166 121.519 20.1511 121.943 20.3317 122.62L20.8477 124.552C21.0799 125.422 21.8918 126.136 22.8387 126.194C24.1721 126.148 25.0735 124.873 24.7639 123.713L23.8867 120.428L27.7513 119.396L28.0867 120.652C28.3705 121.715 29.4722 122.352 30.535 122.069L30.6316 122.043C31.6944 121.759 32.3317 120.657 32.0479 119.595C31.8673 118.918 32.2922 118.184 32.9685 118.003L44.1758 115.01C45.4318 114.675 46.2108 113.329 45.8754 112.073L37.6196 81.1559L37.4263 81.2075Z" fill="#801600"/>
<path d="M12.5125 87.1368C12.2226 87.2142 12.0294 87.2658 11.7138 87.2465C10.6186 87.0215 9.72934 86.0169 9.92862 84.8251C10.359 81.3981 12.7865 78.4728 16.168 77.5698C17.3274 77.2602 18.4291 77.8975 18.7387 79.0569C19.0483 80.2163 18.411 81.318 17.2516 81.6276C15.6091 82.0662 14.3471 83.5417 14.0836 85.2682C13.9293 86.2409 13.2854 86.9304 12.5125 87.1368Z" fill="#AF3F27"/>
<path d="M16.6666 104.244C15.5072 104.553 14.4055 103.916 14.0959 102.757L11.4644 92.902C11.1548 91.7426 11.7921 90.6409 12.9515 90.3313C14.1109 90.0217 15.2126 90.659 15.5222 91.8184L18.1537 101.673C18.4375 102.736 17.7294 103.96 16.6666 104.244Z" fill="#AF3F27"/>
<path d="M24.6903 116.074C25.7531 115.79 26.8548 116.427 27.1386 117.49L29.0994 124.833L25.2348 125.865L23.274 118.522C23.0869 117.434 23.6276 116.358 24.6903 116.074Z" fill="#FFCC99"/>
<path d="M21.6293 92.9825C22.2414 93.3366 22.5894 93.8647 22.377 94.2319C22.1645 94.5992 21.5332 94.5607 20.9212 94.2066C20.3091 93.8526 19.9611 93.3245 20.1735 92.9572C20.386 92.59 21.0173 92.6284 21.6293 92.9825Z" fill="#FF9545"/>
<path d="M21.1489 82.655C21.761 83.0091 22.109 83.5372 21.8965 83.9044C21.6841 84.2716 21.0528 84.2332 20.4407 83.8791C19.8287 83.525 19.4806 82.997 19.6931 82.6297C19.9055 82.2625 20.511 82.2043 21.1489 82.655Z" fill="#FF9545"/>
<path d="M25.318 105.244C25.9301 105.598 26.2781 106.126 26.0657 106.494C25.8533 106.861 25.222 106.822 24.6099 106.468C23.9978 106.114 23.6498 105.586 23.8622 105.219C24.0747 104.852 24.706 104.89 25.318 105.244Z" fill="#FF9545"/>
<path d="M35.4445 87.7403C36.0566 88.0944 36.4046 88.6225 36.1922 88.9897C35.9797 89.357 35.3484 89.3185 34.7364 88.9645C34.1243 88.6104 33.7763 88.0823 33.9887 87.7151C34.1045 87.3736 34.7358 87.412 35.4445 87.7403Z" fill="#FF9545"/>
<path d="M18.8403 112.772C19.4523 113.126 19.8004 113.654 19.5879 114.021C19.3755 114.388 18.7442 114.35 18.1321 113.996C17.52 113.642 17.172 113.114 17.3845 112.746C17.5969 112.379 18.2282 112.417 18.8403 112.772Z" fill="#FF9545"/>
<path d="M10.13 89.8412C9.77592 90.4533 9.24783 90.8013 8.88059 90.5889C8.51335 90.3764 8.55178 89.7451 8.90586 89.1331C9.25993 88.521 9.78802 88.173 10.1553 88.3854C10.4259 88.6237 10.4841 89.2292 10.13 89.8412Z" fill="#FF9545"/>
<path d="M29.2642 78.9365C28.9101 79.5486 28.2854 79.9224 27.9182 79.71C27.5509 79.4975 27.5894 78.8662 27.9435 78.2542C28.2975 77.6421 28.8256 77.2941 29.1929 77.5065C29.6309 77.5966 29.6183 78.3245 29.2642 78.9365Z" fill="#FF9545"/>
<path d="M32.4012 97.6615C32.0472 98.2736 31.5191 98.6216 31.1518 98.4092C30.7846 98.1967 30.823 97.5655 31.1771 96.9534C31.5312 96.3413 32.0593 95.9933 32.4265 96.2057C32.7679 96.3216 32.7553 97.0495 32.4012 97.6615Z" fill="#FF9545"/>
<path d="M40.217 104.061C40.829 104.415 41.1771 104.943 40.9646 105.31C40.7522 105.677 40.1209 105.639 39.5088 105.285C38.8968 104.931 38.5487 104.403 38.7612 104.035C38.9736 103.668 39.6049 103.707 40.217 104.061Z" fill="#FF9545"/>
<path d="M33.9 111.027C33.5459 111.639 33.0179 111.987 32.6506 111.774C32.2834 111.562 32.3218 110.931 32.6759 110.319C33.03 109.707 33.558 109.359 33.9253 109.571C34.1701 109.713 34.2541 110.415 33.9 111.027Z" fill="#FF9545"/>
</g>
<path d="M62.0388 140.408V161.935H16V153.164C16.4812 153.324 16.9625 153.324 17.4437 153.324C19.8499 153.324 21.6145 152.048 21.6145 150.294C21.6145 148.699 19.6895 147.264 17.4437 147.264C16.9625 147.264 16.4812 147.264 16 147.424V140.248H62.0388V140.408Z" fill="#FFE167"/>
<path d="M16 140.408L42.6287 131C42.6287 131 58.5097 131.797 61.8784 140.408H16Z" fill="#F5B400"/>
<path d="M33.8058 147.265C33.8058 149.338 32.2017 150.933 30.1163 150.933C28.0309 150.933 26.4268 149.338 26.4268 147.265C26.4268 145.192 28.0309 143.598 30.1163 143.598C32.2017 143.598 33.8058 145.192 33.8058 147.265Z" fill="#E49306"/>
<path d="M43.9124 151.89C43.9124 152.687 43.2707 153.484 42.3082 153.484C41.5062 153.484 40.7041 152.846 40.7041 151.89C40.7041 151.092 41.3458 150.295 42.3082 150.295C43.1103 150.295 43.9124 151.092 43.9124 151.89Z" fill="#E49306"/>
<path d="M35.2496 157.47C35.2496 158.586 34.4475 159.384 33.3246 159.384C32.2017 159.384 31.3997 158.586 31.3997 157.47C31.3997 156.354 32.2017 155.557 33.3246 155.557C34.4475 155.557 35.2496 156.354 35.2496 157.47Z" fill="#E49306"/>
<path d="M57.2267 147.425C57.2267 149.498 55.4622 151.252 53.3768 151.252C51.2914 151.252 49.5269 149.498 49.5269 147.425C49.5269 145.352 51.2914 143.598 53.3768 143.598C55.4622 143.598 57.2267 145.352 57.2267 147.425Z" fill="#E49306"/>
<path d="M55.6226 157.789C55.6226 159.384 54.3393 160.819 52.5747 160.819C50.9706 160.819 49.5269 159.544 49.5269 157.789C49.5269 156.195 50.8102 154.76 52.5747 154.76C54.1789 154.76 55.6226 156.035 55.6226 157.789Z" fill="#E49306"/>
<path d="M23.3789 158.267C23.3789 159.224 22.5769 159.862 21.7748 159.862C20.8123 159.862 20.1707 159.065 20.1707 158.267C20.1707 157.311 20.9727 156.673 21.7748 156.673C22.5769 156.513 23.3789 157.311 23.3789 158.267Z" fill="#E49306"/>
<defs>
<clipPath id="clip0">
<rect x="4" y="78.127" width="31.5" height="79.4" transform="rotate(-14.951 4 78.127)" fill="white"/>
</clipPath>
</defs>
</svg>
