<svg xmlns="http://www.w3.org/2000/svg" width="250" height="230" viewBox="0 0 250 230" fill="none"><mask id="mask0" maskUnits="userSpaceOnUse" x="0" y="0" width="250" height="230"><rect width="250" height="230" fill="#F9F9F9"></rect></mask><g mask="url(#mask0)"><path fill-rule="evenodd" clip-rule="evenodd" d="M16.2328 138.944C3.65058 103.303 -3.80335 60.7379 19.8104 31.2272C42.8555 2.42713 85.2675 9.02274 122.077 6.6685C161.003 4.17883 206.394 -11.1389 232.763 17.6072C259.481 46.7341 249.884 93.4788 235.467 130.281C224.094 159.313 194.322 172.24 166.598 186.507C139.472 200.466 111.645 218.169 82.5571 208.968C50.3088 198.768 27.4927 170.84 16.2328 138.944Z" fill="#D2F8FD"></path><path d="M238.938 178.865C238.938 181.749 166.586 184.462 103.627 184.462C40.6686 184.462 11.3999 179.007 11.3999 176.124C11.3999 169.362 62.4364 170.911 125.395 170.911C188.354 170.911 238.938 175.982 238.938 178.865Z" fill="#939393"></path><path opacity="0.6" d="M73 67.2902V119.733C97.9603 120.67 101.026 133.042 123.57 135.23V67.2902C123.57 66.3101 122.779 65.5288 121.819 65.5288C115.773 65.5288 106.648 58.4692 97.5789 58.4692C88.9904 58.4692 80.4726 65.5288 74.7516 65.5288C73.7769 65.5288 73 66.3101 73 67.2902Z" fill="#D6D6D6"></path><path d="M120.943 144.873C121.917 144.873 122.694 145.669 122.694 146.635V151.251C122.694 152.231 121.903 153.012 120.943 153.012H75.9802C75.0056 153.012 74.2286 152.217 74.2286 151.251V146.635C74.2286 145.655 75.0197 144.873 75.9802 144.873H120.943Z" fill="#DDAB6F"></path><path d="M120.943 136.209C121.917 136.209 122.694 137.004 122.694 137.97V142.587C122.694 143.567 121.903 144.348 120.943 144.348H75.9802C75.0056 144.348 74.2286 143.552 74.2286 142.587V137.97C74.2286 136.99 75.0197 136.209 75.9802 136.209H120.943Z" fill="#DDAB6F"></path><path d="M120.943 127.559C121.917 127.559 122.694 128.355 122.694 129.321V133.937C122.694 134.917 121.903 135.698 120.943 135.698H75.9802C75.0056 135.698 74.2286 134.903 74.2286 133.937V129.321C74.2286 128.341 75.0197 127.559 75.9802 127.559H120.943Z" fill="#DDAB6F"></path><path d="M120.943 118.895C121.917 118.895 122.694 119.69 122.694 120.656V125.272C122.694 126.252 121.903 127.034 120.943 127.034H75.9802C75.0056 127.034 74.2286 126.238 74.2286 125.272V120.656C74.2286 119.676 75.0197 118.895 75.9802 118.895H120.943Z" fill="#DDAB6F"></path><path d="M120.943 110.244C121.917 110.244 122.694 111.04 122.694 112.005V116.622C122.694 117.602 121.903 118.383 120.943 118.383H75.9802C75.0056 118.383 74.2286 117.588 74.2286 116.622V112.005C74.2286 111.025 75.0197 110.244 75.9802 110.244H120.943Z" fill="#DDAB6F"></path><path d="M120.943 101.592C121.917 101.592 122.694 102.388 122.694 103.354V107.97C122.694 108.95 121.903 109.731 120.943 109.731H75.9802C75.0056 109.731 74.2286 108.936 74.2286 107.97V103.354C74.2286 102.374 75.0197 101.592 75.9802 101.592H120.943Z" fill="#DDAB6F"></path><path d="M120.943 92.928C121.917 92.928 122.694 93.7234 122.694 94.6893V99.3057C122.694 100.286 121.903 101.067 120.943 101.067H75.9802C75.0056 101.067 74.2286 100.272 74.2286 99.3057V94.6893C74.2286 93.7092 75.0197 92.928 75.9802 92.928H120.943Z" fill="#DDAB6F"></path><path d="M120.943 84.2773C121.917 84.2773 122.694 85.0728 122.694 86.0387V90.6552C122.694 91.6353 121.903 92.4165 120.943 92.4165H75.9802C75.0056 92.4165 74.2286 91.6211 74.2286 90.6552V86.0387C74.2286 85.0586 75.0197 84.2773 75.9802 84.2773H120.943Z" fill="#DDAB6F"></path><path d="M120.943 75.6128C121.917 75.6128 122.694 76.4082 122.694 77.3741V81.9906C122.694 82.9707 121.903 83.7519 120.943 83.7519H75.9802C75.0056 83.7519 74.2286 82.9565 74.2286 81.9906V77.3741C74.2286 76.394 75.0197 75.6128 75.9802 75.6128H120.943Z" fill="#DDAB6F"></path><path d="M120.943 66.9626C121.917 66.9626 122.694 67.7581 122.694 68.724V73.3404C122.694 74.3205 121.903 75.1018 120.943 75.1018H75.9802C75.0056 75.1018 74.2286 74.3063 74.2286 73.3404V68.724C74.2286 67.7439 75.0197 66.9626 75.9802 66.9626H120.943Z" fill="#DDAB6F"></path><path d="M73.0004 127.076C97.9607 128.013 101.026 140.385 123.571 142.587V135.243C101.026 133.042 97.9466 120.67 73.0004 119.746V127.076V127.076Z" fill="#FFEC88"></path><path d="M73 152.545C73 153.525 73.791 154.306 74.7516 154.306H121.819C122.793 154.306 123.57 153.511 123.57 152.545V142.587C101.026 140.386 97.9462 128.014 73 127.076V152.545V152.545Z" fill="#EF5C00"></path><path opacity="0.7" d="M93.3119 55.6272L84.2008 40.6842C84.2008 40.6842 96.575 37.3745 99.0611 39.6757L98.0017 57.5164L93.3119 55.6272Z" fill="#E6E6E6"></path><path opacity="0.6" d="M101.405 57.5021L108.878 40.1585C108.878 40.1585 95.9387 35.187 91.0511 39.221L96.9134 57.076L101.405 57.5021Z" fill="#E6E6E6"></path><path d="M104.145 55.6277H91.8558V59.3777H104.145V55.6277Z" fill="#373737"></path><path opacity="0.6" d="M94.021 62.459L80.0364 76.3509L79.2595 96.0098L84.5284 77.8566L94.021 62.459Z" fill="#FFFFFC"></path><path opacity="0.6" d="M99.6979 61.0259L108.753 70.1451L111.352 85.3722L104.67 71.5229L99.6979 61.0259Z" fill="#FFFFFC"></path><path d="M152 86.7999H118L128.1 74.2H162.1L152 86.7999Z" fill="#DBF1FD"></path><path d="M172.2 86.8H152V174.1H172.2V86.8Z" fill="#299AEA"></path><path d="M162.1 74.2L158.2 79.1L172.2 86.7999L162.1 74.2Z" fill="#1379DA"></path><path d="M172.2 86.8001L158.2 79.1001L152 86.8001H172.2Z" fill="#61B6F2"></path><path d="M158 66H132.1C129.8 66 128 67.8 128 70.1V74.2H162.1V70.1C162.1 67.8 160.3 66 158 66Z" fill="#299AEA"></path><path d="M152 86.8V174.1H118V86.8H152Z" fill="#B0E2FC"></path><path d="M135 146.8C141.627 146.8 147 141.427 147 134.8C147 128.173 141.627 122.8 135 122.8C128.373 122.8 123 128.173 123 134.8C123 141.427 128.373 146.8 135 146.8Z" fill="white"></path><path d="M140.1 74.5C138.9 74.6 137.6 75.2 136.5 76.3C135.4 77.4 134.8 78.7001 134.7 79.9001L133.5 80.4001L135.5 82.4001C135.5 82.4001 135.5 82.4 135.6 82.5C137 83.9 139.8 83.5001 141.8 81.6001C143.8 79.6001 144.2 76.9001 142.7 75.4001L140.6 73.3L140.1 74.5Z" fill="#D32144"></path><path d="M140.6 73.3C142 74.7 141.6 77.5 139.7 79.5C137.7 81.5 135 81.9 133.5 80.4C132.1 79 132.5 76.2 134.4 74.2C136.4 72.3 139.2 71.8 140.6 73.3Z" fill="#FF3D3D"></path><path d="M139.6 117H130.4C129.5 117 128.7 116.2 128.7 115.3C128.7 114.4 129.5 113.6 130.4 113.6H139.6C140.5 113.6 141.3 114.4 141.3 115.3C141.3 116.2 140.5 117 139.6 117Z" fill="#61B6F2"></path><path d="M144.5 110.1H125.5C124.6 110.1 123.8 109.3 123.8 108.4C123.8 107.5 124.6 106.7 125.5 106.7H144.5C145.4 106.7 146.2 107.5 146.2 108.4C146.2 109.3 145.5 110.1 144.5 110.1Z" fill="#61B6F2"></path><path d="M129 169.6H123C122.4 169.6 121.9 169.1 121.9 168.5C121.9 167.9 122.4 167.4 123 167.4H129C129.6 167.4 130.1 167.9 130.1 168.5C130.1 169.1 129.6 169.6 129 169.6Z" fill="#B0E2FC"></path><path d="M147 169.6H134.6C134 169.6 133.5 169.1 133.5 168.5C133.5 167.9 134 167.4 134.6 167.4H147C147.6 167.4 148.1 167.9 148.1 168.5C148.1 169.1 147.6 169.6 147 169.6Z" fill="#B0E2FC"></path><path d="M166 112.3H158.3C157 112.3 155.9 111.2 155.9 109.9V98.2999C155.9 96.9999 157 95.8999 158.3 95.8999H166C167.3 95.8999 168.4 96.9999 168.4 98.2999V109.9C168.4 111.2 167.3 112.3 166 112.3Z" fill="#61B6F2"></path><path d="M166 169.6H158.3C157 169.6 155.9 168.5 155.9 167.2V165C155.9 163.7 157 162.6 158.3 162.6H166C167.3 162.6 168.4 163.7 168.4 165V167.2C168.4 168.6 167.3 169.6 166 169.6Z" fill="#61B6F2"></path><path d="M166 152.9H158.3C157 152.9 155.9 151.8 155.9 150.5V119.3C155.9 118 157 116.9 158.3 116.9H166C167.3 116.9 168.4 118 168.4 119.3V150.5C168.4 151.8 167.3 152.9 166 152.9Z" fill="#61B6F2"></path><path d="M134.2 86.8V86.9001C134.2 95.8001 126.9 103.1 118 103.1V86.8H134.2Z" fill="#FF3D3D"></path><path d="M135 159.1C137.375 159.1 139.3 157.175 139.3 154.8C139.3 152.425 137.375 150.5 135 150.5C132.625 150.5 130.7 152.425 130.7 154.8C130.7 157.175 132.625 159.1 135 159.1Z" fill="white"></path><path d="M210.52 143.56C212.44 143.56 214 145.12 214 147.04V158.68V171.52L202 172L208.36 166.72V147.04C208.36 145.12 206.8 143.56 204.88 143.56C206.8 143.56 208.36 142 208.36 140.08V138.4H214V140.08C214 142 212.44 143.56 210.52 143.56Z" fill="#661204"></path><path d="M208.24 140.08V138.4H181.12H175.48V140.08C175.48 142 177.04 143.56 178.96 143.56C177.04 143.56 175.48 145.12 175.48 147.04V171.52L187.84 172L187.24 171.52H203.2C205.96 171.52 208.24 169.24 208.24 166.48V147.04C208.24 145.12 206.68 143.56 204.76 143.56C206.68 143.56 208.24 142 208.24 140.08Z" fill="#801600"></path><path d="M214 140.08C214 142 212.44 143.56 210.52 143.56C212.44 143.56 214 145.12 214 147.04V158.68V165.16C214 168.64 211.12 171.52 207.52 171.52C204.28 171.52 185.2 171.52 181.96 171.52C178.48 171.52 175.48 168.64 175.48 165.16V158.68V147.04C175.48 145.12 177.04 143.56 178.96 143.56C177.04 143.56 175.48 142 175.48 140.08V138.4H172.12V140.08C172.12 141.28 172.48 142.48 173.08 143.56C172.36 144.52 172 145.72 172 147.04V158.68V165.16C172.12 170.56 176.44 175 181.84 175C184.24 175 205 175 207.4 175C212.8 175 217.24 170.56 217.24 165.28V158.8V147.16C217.24 145.96 216.88 144.76 216.28 143.68C216.88 142.72 217.24 141.52 217.24 140.2V138.52H213.88V140.08H214Z" fill="#CEE8FB"></path><path d="M217.36 89.0802C217.36 82.7202 214.24 76.8402 208.96 73.2402L205.6 70.9602C203.32 69.4002 202 66.8802 202 64.2402V59.0802V55.7202H198.64H191.68H188.32V59.0802V64.0002C188.32 66.7602 186.88 69.2802 184.6 70.7202L180.88 73.0002C175.36 76.4802 172 82.6002 172 89.0802V99.4002C172 100.6 172.36 101.8 172.96 102.88C172.36 103.84 172 105.04 172 106.24V108.28H175.36V106.24C175.36 104.32 176.92 102.76 178.84 102.76C176.92 102.76 175.36 101.2 175.36 99.2802V89.0802C175.36 83.6802 178.12 78.7602 182.68 75.8802L186.16 73.7202C189.4 71.6802 191.44 67.9602 191.56 64.1202V59.2002H198.52V64.3602C198.52 68.2002 200.44 71.8002 203.56 73.9602L206.92 76.2402C211.36 79.0002 214 83.8002 214 89.0802V99.4002C214 101.32 212.44 102.88 210.52 102.88C212.44 102.88 214 104.44 214 106.36V108.4H217.36V106.36C217.36 105.16 217 103.96 216.4 102.88C217 101.92 217.36 100.72 217.36 99.4002V89.0802Z" fill="#CEE8FB"></path><path d="M175.36 108.28H172V138.28H175.36V108.28Z" fill="#FF4D54"></path><path d="M217.36 108.28H214V138.28H217.36V108.28Z" fill="#D40000"></path><path d="M207.041 75.9996L203.681 73.7196C200.441 71.5596 198.641 67.9596 198.641 64.1196V59.0796H191.681V63.9996C191.681 67.9596 189.641 71.5596 186.281 73.5996L182.801 75.7596C182.321 76.1196 181.841 76.4796 181.361 76.8396H208.361C207.881 76.5996 207.401 76.3596 207.041 75.9996Z" fill="#E1F1FD"></path><path d="M208.241 99.3996V89.1996C208.241 84.3996 206.081 79.9596 202.481 77.0796H186.881H181.241C177.641 80.0796 175.481 84.5196 175.481 89.1996V99.3996C175.481 101.32 177.041 102.88 178.961 102.88C177.041 102.88 175.481 104.44 175.481 106.36V108.4H181.241H208.361V106.36C208.361 104.44 206.801 102.88 204.881 102.88C206.681 102.76 208.241 101.2 208.241 99.3996Z" fill="#801600"></path><path d="M179.801 90.7594C178.841 90.7594 178.121 90.0394 178.121 89.0794C178.121 85.7194 179.441 82.5994 181.721 80.1994C182.321 79.5994 183.401 79.4794 184.001 80.1994C184.601 80.7994 184.721 81.8794 184.001 82.4794C182.321 84.2794 181.361 86.6794 181.361 89.0794C181.481 90.0394 180.761 90.7594 179.801 90.7594Z" fill="#A43422"></path><path d="M179.801 100.839C178.841 100.839 178.121 100.119 178.121 99.1592V94.5992C178.121 93.6392 178.841 92.9192 179.801 92.9192C180.761 92.9192 181.481 93.6392 181.481 94.5992V99.1592C181.481 100.119 180.761 100.839 179.801 100.839Z" fill="#A43422"></path><path d="M179.801 165.4C178.841 165.4 178.121 164.68 178.121 163.72V149.08C178.121 148.12 178.841 147.4 179.801 147.4C180.761 147.4 181.481 148.12 181.481 149.08V163.84C181.481 164.68 180.761 165.4 179.801 165.4Z" fill="#A43422"></path><path d="M208.121 76.9595H202.361C205.961 79.9595 208.121 84.3995 208.121 89.0795V99.3995C208.121 101.319 206.561 102.879 204.641 102.879C206.561 102.879 208.121 104.439 208.121 106.359V108.399H213.881V106.359C213.881 105.879 213.761 105.399 213.641 105.039C213.401 104.439 212.921 103.839 212.441 103.479C211.841 103.119 211.241 102.879 210.521 102.879C211.241 102.879 211.841 102.639 212.441 102.279C213.041 101.919 213.401 101.439 213.641 100.719C213.761 100.359 213.881 99.8795 213.881 99.3995V89.1995C214.001 84.3995 211.841 79.8395 208.121 76.9595Z" fill="#661204"></path><path d="M202.6 49H199C199.72 49 200.44 49.72 200.44 50.68V57.52C200.44 58.48 199.84 59.2 199 59.2H202.6C203.32 59.2 204.04 58.48 204.04 57.52V50.68C204.04 49.72 203.44 49 202.6 49Z" fill="#D40000"></path><path d="M200.44 57.52V50.68C200.44 49.72 199.84 49 199 49H187.6C186.88 49 186.16 49.72 186.16 50.68V57.52C186.16 58.48 186.76 59.2 187.6 59.2H199C199.72 59.08 200.44 58.36 200.44 57.52Z" fill="#EE1E1D"></path><path d="M202 59.0798H188.2V62.1998H202V59.0798Z" fill="#D40000"></path><path d="M214 108.28H205.96C202.84 105.88 198.88 104.44 194.56 104.44C190.24 104.44 186.4 105.88 183.16 108.28H175.48V138.28H183.16C186.28 140.68 190.24 142.12 194.56 142.12C198.88 142.12 202.72 140.68 205.96 138.28H214V108.28Z" fill="#EE1E1D"></path><path d="M192.76 99.1599C194.019 99.1599 195.04 98.1391 195.04 96.8799C195.04 95.6206 194.019 94.5999 192.76 94.5999C191.501 94.5999 190.48 95.6206 190.48 96.8799C190.48 98.1391 191.501 99.1599 192.76 99.1599Z" fill="#A43422"></path><path d="M199.12 87.6397C199.12 88.4797 198.52 89.0797 197.68 89.0797C196.84 89.0797 196.24 88.4797 196.24 87.6397C196.24 86.7997 196.84 86.1997 197.68 86.1997C198.52 86.1997 199.12 86.7997 199.12 87.6397Z" fill="#A43422"></path><path d="M195.639 161.44C196.899 161.44 197.919 160.419 197.919 159.16C197.919 157.9 196.899 156.88 195.639 156.88C194.38 156.88 193.359 157.9 193.359 159.16C193.359 160.419 194.38 161.44 195.639 161.44Z" fill="#A43422"></path><path d="M200.559 151.36C201.355 151.36 201.999 150.715 201.999 149.92C201.999 149.124 201.355 148.48 200.559 148.48C199.764 148.48 199.119 149.124 199.119 149.92C199.119 150.715 199.764 151.36 200.559 151.36Z" fill="#A43422"></path><path d="M189.04 149.92C189.835 149.92 190.48 149.275 190.48 148.48C190.48 147.685 189.835 147.04 189.04 147.04C188.244 147.04 187.6 147.685 187.6 148.48C187.6 149.275 188.244 149.92 189.04 149.92Z" fill="#A43422"></path><path d="M203.116 134.179C209.065 129.522 210.112 120.923 205.454 114.974C200.796 109.025 192.198 107.978 186.249 112.636C180.3 117.294 179.253 125.892 183.911 131.841C188.568 137.79 197.167 138.837 203.116 134.179Z" fill="#D40000"></path><path d="M198.7 115.4V154.9L197.7 165.6C197.7 167.6 196.1 169.2 194.1 169.2H188.7V117.4C188.7 116.3 187.8 115.4 186.7 115.4H198.7Z" fill="#299AEA"></path><path d="M188.7 117.4V170.3H170.7C170.6 170.3 170.4 170.3 170.3 170.3C170 170.3 169.6 170.2 169.3 170.1C169.2 170 169 170 168.9 169.9C167.8 169.3 168.1 168.1 168.1 166.8L167 162.7V115.4H186.6C187.8 115.4 188.7 116.3 188.7 117.4Z" fill="#61B6F2"></path><path d="M193 128.7C192.7 127.9 192.3 127.2 191.8 126.6C189.8 123.9 186.7 122.2 183.1 122.2C178.7 122.2 174.9 124.9 173.2 128.7H167.2V130.7V135.2V137.2H173.2C174.9 141 178.7 143.7 183.1 143.7C186.7 143.7 189.8 142 191.8 139.3C192.3 138.6 192.7 137.9 193 137.2H198.7V135.2V130.7V128.7H193Z" fill="#1379DA"></path><path d="M196.2 112V100.2C196.2 94.8004 191.8 90.4004 186.4 90.4004H179.5C174.1 90.4004 169.7 94.8004 169.7 100.2V111.9H168.2C167.6 111.9 167.1 112.4 167.1 113V115.3H198.7V113C198.7 112.4 198.2 111.9 197.6 111.9H196.2V112Z" fill="#CEECFC"></path><path d="M193 112V100.2C193 94.8004 188.6 90.4004 183.2 90.4004H180C185.4 90.4004 189.8 94.8004 189.8 100.2V111.9H193V112Z" fill="#9ADAFB"></path><path d="M172.9 112V100.2C172.9 94.8004 177.3 90.4004 182.7 90.4004H185.9C180.5 90.4004 176.1 94.8004 176.1 100.2V111.9H172.9V112Z" fill="#9ADAFB"></path><path d="M198.8 115.4H167.2V119H198.8V115.4Z" fill="#9ADAFB"></path><path d="M184.7 90.4004H181.5V111.9H184.7V90.4004Z" fill="#9ADAFB"></path><path d="M171.1 154.2C172 153.5 173.1 153.1 174.3 153.1C173.1 151.9 172.5 150.6 172.3 149.4C172.2 148.9 172.7 148.5 173.2 148.6C174.3 148.8 175.7 149.6 176.8 150.7C176.9 149.6 177.3 148.6 177.9 147.8C178.2 147.4 178.8 147.4 179.1 147.8C179.8 148.7 180.2 149.9 180.2 151.1C180.2 151.5 180.1 152 180 152.5C179.6 154.6 177.9 156.3 175.8 156.6C175.3 156.7 174.7 156.7 174.4 156.7C173.1 156.7 172 156.2 171.1 155.4C170.7 155 170.7 154.5 171.1 154.2Z" fill="#109343"></path><path d="M184.1 152.5C181.9 150.2 178.2 150.2 175.9 152.4C173.6 154.6 173.6 158.3 175.8 160.6C178 162.9 184.3 165.6 186.6 163.3C189 161.1 186.4 154.8 184.1 152.5Z" fill="#FF3D3D"></path><path d="M182.1 153.8C182.4 153.5 182.4 153.1 182.1 152.8L181.4 152C181.1 151.7 180.7 151.7 180.4 152C180.1 152.3 180.1 152.7 180.4 153L181.1 153.8C181.3 154 181.8 154 182.1 153.8Z" fill="#FFE21F"></path><path d="M178.9 155.3C179.2 155 179.2 154.6 178.9 154.3L178.2 153.5C177.9 153.2 177.5 153.2 177.2 153.5C176.9 153.8 176.9 154.2 177.2 154.5L177.9 155.3C178.2 155.6 178.6 155.6 178.9 155.3Z" fill="#FFE21F"></path><path d="M181.9 158.4C182.2 158.1 182.2 157.7 181.9 157.4L181.2 156.6C180.9 156.3 180.5 156.3 180.2 156.6C179.9 156.9 179.9 157.3 180.2 157.6L180.9 158.4C181.1 158.6 181.6 158.6 181.9 158.4Z" fill="#FFE21F"></path><path d="M177.2 158.3C177.5 158 177.5 157.6 177.2 157.3L176.5 156.5C176.2 156.2 175.8 156.2 175.5 156.5C175.2 156.8 175.2 157.2 175.5 157.5L176.2 158.3C176.5 158.6 176.9 158.6 177.2 158.3Z" fill="#FFE21F"></path><path d="M184.8 161.4C185.1 161.1 185.1 160.7 184.8 160.4L184.1 159.6C183.8 159.3 183.4 159.3 183.1 159.6C182.8 159.9 182.8 160.3 183.1 160.6L183.8 161.4C184.1 161.7 184.5 161.7 184.8 161.4Z" fill="#FFE21F"></path><path d="M197.1 155.8C197.2 155 197.1 154.3 196.8 153.6C194.2 152.1 191.1 151.2 187.7 151C190 151.2 191.7 153.3 191.4 155.8C191.1 157.9 189.2 159.4 187.1 159.4H192.8C194.9 159.4 196.9 157.9 197.1 155.8Z" fill="#FFE6E9"></path><path d="M198.7 154.9V170.9C198.7 172.9 197.1 174.5 195.1 174.5H175V170C175 164.2 179.7 159.4 185.6 159.4H192.8C194.8 159.4 196.7 158 197.1 156C197.3 155.1 197.2 154.3 196.9 153.6C197.5 154.1 198.1 154.5 198.7 154.9Z" fill="#FFB2B9"></path><path d="M185.8 159.4C179.9 159.4 175.2 164.1 175.2 170V174.5H170.3C170 174.5 169.6 174.4 169.3 174.3C169.2 174.2 169 174.2 168.9 174.1V170.1C168.9 164.3 173.6 159.5 179.5 159.5H185.8V159.4Z" fill="#FFCDD2"></path><path d="M180.9 159.4C175 159.4 170.3 164.1 170.3 170V174.5C170 174.5 169.6 174.4 169.3 174.3C169.2 174.2 169 174.2 168.9 174.1C167.8 173.5 167 172.3 167 171V162.6C168.9 160.7 171.6 159.5 174.5 159.5H180.9V159.4Z" fill="#FFE6E9"></path><path d="M183.1 140.5C187.242 140.5 190.6 137.143 190.6 133C190.6 128.858 187.242 125.5 183.1 125.5C178.958 125.5 175.6 128.858 175.6 133C175.6 137.143 178.958 140.5 183.1 140.5Z" fill="white"></path><path d="M115 132H104.3C110.2 132 115 136.8 115 142.7V160.6C115 166.5 110.2 171.3 104.3 171.3H115C120.9 171.3 125.7 166.5 125.7 160.6V142.7C125.8 136.8 121 132 115 132Z" fill="#FFA800"></path><path d="M92.1 161.5C93.8121 161.5 95.2 160.112 95.2 158.4C95.2 156.688 93.8121 155.3 92.1 155.3C90.3879 155.3 89 156.688 89 158.4C89 160.112 90.3879 161.5 92.1 161.5Z" fill="#FFE600"></path><path d="M89.0999 144.7C89.0999 146.2 87.8999 147.4 86.3999 147.4C84.8999 147.4 83.7 146.2 83.7 144.7C83.7 143.2 84.8999 142 86.3999 142C87.8999 142 89.0999 143.2 89.0999 144.7Z" fill="#FFBE03"></path><path d="M109.8 135.2H74.6V168.1H109.8C113.9 168.1 117.3 164.7 117.3 160.6V142.7C117.3 138.5 114 135.2 109.8 135.2Z" fill="#FFE600"></path><path d="M119.5 132H74.6V135.2H109.8C113.9 135.2 117.3 138.6 117.3 142.7V160.6C117.3 164.7 113.9 168.1 109.8 168.1H74.6V171.3H119.5C125.4 171.3 130.2 166.5 130.2 160.6V142.7C130.2 136.8 125.4 132 119.5 132Z" fill="#FFCA03"></path><path d="M101 135.2C101 136.7 99.8 137.9 98.3 137.9C96.8 137.9 95.6 136.7 95.6 135.2L98.3 133.8L101 135.2Z" fill="#FFCA03"></path><path d="M88.7 168.1C88.7 165.4 90.9 163.3 93.5 163.3C96.2 163.3 98.2999 165.5 98.2999 168.1L93.8999 169.6L88.7 168.1Z" fill="#FFCA03"></path><path d="M90.7001 152.1C90.7001 153.9 89.3001 155.3 87.5001 155.3C85.7001 155.3 84.3 153.9 84.3 152.1C84.3 150.3 85.7001 148.9 87.5001 148.9C89.2001 148.8 90.7001 150.3 90.7001 152.1Z" fill="#FFA800"></path><path d="M104.1 158.9C104.1 160.1 103.1 161 102 161C100.8 161 99.9 160 99.9 158.9C99.9 157.8 100.9 156.8 102 156.8C103.2 156.8 104.1 157.7 104.1 158.9Z" fill="#FFA800"></path><path d="M84.8999 140C84.8999 141.2 83.8999 142.1 82.7999 142.1C81.6999 142.1 80.7 141.1 80.7 140C80.7 138.9 81.6999 137.9 82.7999 137.9C83.8999 137.9 84.8999 138.8 84.8999 140Z" fill="#FFCA03"></path><path d="M112.7 148.4C112.7 151 114.8 153.1 117.4 153.2L118.9 148.4L117.4 143.6C114.8 143.6 112.7 145.8 112.7 148.4Z" fill="#FFCA03"></path><path d="M119.5 132H110.6C116.5 132 121.3 136.8 121.3 142.7V160.6C121.3 166.5 116.5 171.3 110.6 171.3H119.5C125.4 171.3 130.2 166.5 130.2 160.6V142.7C130.2 136.8 125.4 132 119.5 132Z" fill="#D40000"></path><path d="M34.1 132H44.8C38.9 132 34.1 136.8 34.1 142.7V160.6C34.1 166.5 38.9 171.3 44.8 171.3H34.1C28.2 171.3 23.4 166.5 23.4 160.6V142.7C23.4 136.8 28.2 132 34.1 132Z" fill="#FFA800"></path><path d="M54 158.4C54 160.1 55.4 161.5 57.1 161.5C58.8 161.5 60.2 160.1 60.2 158.4C60.2 156.7 58.8 155.3 57.1 155.3C55.4 155.2 54 156.7 54 158.4Z" fill="#FFE600"></path><path d="M60.1 144.7C60.1 146.2 61.3 147.4 62.8 147.4C64.3 147.4 65.5 146.2 65.5 144.7C65.5 143.2 64.3 142 62.8 142C61.3 142 60.1 143.2 60.1 144.7Z" fill="#FFBE03"></path><path d="M31.8 142.7V160.6C31.8 164.7 35.2 168.1 39.3 168.1H74.5001V135.2H39.3C35.2 135.2 31.8 138.5 31.8 142.7Z" fill="#FFCA03"></path><path d="M29.7 132H74.6V135.2H39.4C35.3 135.2 31.9 138.6 31.9 142.7V160.6C31.9 164.7 35.3 168.1 39.4 168.1H74.6V171.3H29.7C23.8 171.3 19 166.5 19 160.6V142.7C19 136.8 23.8 132 29.7 132Z" fill="#FFA800"></path><path d="M69.8 168.2C69.8 166.7 68.6 165.5 67.1 165.5C65.6 165.5 64.4 166.7 64.4 168.2L67.1 169.6L69.8 168.2Z" fill="#FFA800"></path><path d="M44.9 134.8C44.9 137.5 47.1 139.6 49.7 139.6C52.4 139.6 54.5 137.4 54.5 134.8L50.1 133.3L44.9 134.8Z" fill="#FFA800"></path><path d="M44.6 157.5C44.6 159.3 46 160.7 47.8 160.7C49.6 160.7 51 159.3 51 157.5C51 155.7 49.6 154.3 47.8 154.3C46.1 154.3 44.6 155.7 44.6 157.5Z" fill="#FFA800"></path><path d="M62.3 148.4C62.3 149.6 63.3001 150.5 64.4001 150.5C65.6001 150.5 66.5001 149.5 66.5001 148.4C66.5001 147.3 65.5001 146.3 64.4001 146.3C63.2001 146.2 62.3 147.2 62.3 148.4Z" fill="#FFA800"></path><path d="M36.5001 155.2C36.5001 157.8 34.4 159.9 31.8 160L30.3 155.2L31.8 150.4C34.4 150.5 36.5001 152.6 36.5001 155.2Z" fill="#FFA800"></path><path d="M29.7 132H38.6C32.7 132 27.9 136.8 27.9 142.7V160.6C27.9 166.5 32.7 171.3 38.6 171.3H29.7C23.8 171.3 19 166.5 19 160.6V142.7C19 136.8 23.8 132 29.7 132Z" fill="#EE1E1D"></path><path d="M113.994 35.286C114.042 35.406 113.994 35.526 113.85 35.646C113.706 35.754 113.478 35.826 113.166 35.862C112.626 35.934 112.074 36.012 111.51 36.096C110.946 36.168 110.37 36.246 109.782 36.33C109.758 36.942 109.758 37.554 109.782 38.166C110.058 38.166 110.388 38.142 110.772 38.094C111.168 38.034 111.57 37.962 111.978 37.878C112.386 37.794 112.776 37.71 113.148 37.626C113.532 37.53 113.856 37.452 114.12 37.392C114.252 37.356 114.39 37.332 114.534 37.32C114.678 37.296 114.804 37.296 114.912 37.32C115.032 37.332 115.128 37.374 115.2 37.446C115.272 37.518 115.308 37.62 115.308 37.752C115.308 37.788 115.266 37.842 115.182 37.914C115.098 37.986 114.99 38.064 114.858 38.148C114.738 38.22 114.606 38.292 114.462 38.364C114.33 38.424 114.21 38.472 114.102 38.508C113.358 38.748 112.626 38.958 111.906 39.138C111.186 39.306 110.484 39.396 109.8 39.408C109.404 39.42 109.104 39.318 108.9 39.102C108.696 38.874 108.588 38.55 108.576 38.13C108.552 37.542 108.552 36.948 108.576 36.348C108.372 36.228 108.27 36.06 108.27 35.844C108.294 35.616 108.402 35.46 108.594 35.376C108.618 35.028 108.636 34.68 108.648 34.332C108.66 33.972 108.678 33.618 108.702 33.27C108.57 33.246 108.45 33.18 108.342 33.072C108.246 32.964 108.198 32.844 108.198 32.712C108.198 32.604 108.222 32.508 108.27 32.424C108.318 32.328 108.408 32.256 108.54 32.208C108.756 32.16 109.02 32.106 109.332 32.046C109.644 31.986 109.962 31.932 110.286 31.884C110.622 31.836 110.94 31.794 111.24 31.758C111.552 31.722 111.816 31.698 112.032 31.686C112.284 31.662 112.524 31.686 112.752 31.758C112.992 31.83 113.214 31.968 113.418 32.172C113.466 32.34 113.43 32.466 113.31 32.55C113.202 32.634 113.058 32.688 112.878 32.712C112.698 32.736 112.482 32.766 112.23 32.802C111.978 32.826 111.714 32.856 111.438 32.892C111.174 32.928 110.904 32.964 110.628 33C110.364 33.024 110.112 33.054 109.872 33.09C109.872 33.114 109.872 33.144 109.872 33.18C109.884 33.204 109.89 33.228 109.89 33.252C109.866 33.564 109.848 33.876 109.836 34.188C109.824 34.5 109.812 34.812 109.8 35.124C110.304 35.04 110.82 34.968 111.348 34.908C111.876 34.836 112.296 34.788 112.608 34.764C112.86 34.74 113.106 34.77 113.346 34.854C113.586 34.938 113.802 35.082 113.994 35.286ZM117.633 31.326C117.693 32.634 117.795 33.99 117.939 35.394C118.083 36.786 118.239 38.118 118.407 39.39C118.443 39.918 118.299 40.188 117.975 40.2C117.903 40.2 117.831 40.176 117.759 40.128C117.687 40.068 117.621 39.996 117.561 39.912C117.501 39.828 117.441 39.738 117.381 39.642C117.333 39.546 117.303 39.462 117.291 39.39C117.195 38.778 117.105 38.13 117.021 37.446C116.937 36.762 116.859 36.078 116.787 35.394C116.727 34.698 116.673 34.02 116.625 33.36C116.577 32.7 116.547 32.094 116.535 31.542C116.559 31.254 116.601 31.014 116.661 30.822C116.721 30.618 116.847 30.522 117.039 30.534C117.243 30.546 117.387 30.63 117.471 30.786C117.567 30.93 117.621 31.11 117.633 31.326ZM124.383 33.09C124.431 33.426 124.467 33.786 124.491 34.17C124.527 34.542 124.551 34.92 124.563 35.304C124.587 35.688 124.599 36.06 124.599 36.42C124.599 36.78 124.593 37.104 124.581 37.392C124.965 37.656 125.193 37.89 125.265 38.094C125.349 38.298 125.361 38.478 125.301 38.634C125.229 38.85 125.097 38.964 124.905 38.976C124.725 38.976 124.515 38.91 124.275 38.778C124.107 38.898 123.915 39.03 123.699 39.174C123.483 39.306 123.255 39.438 123.015 39.57C122.775 39.69 122.535 39.798 122.295 39.894C122.055 39.99 121.833 40.056 121.629 40.092C121.245 40.152 120.897 40.08 120.585 39.876C120.285 39.672 120.081 39.366 119.973 38.958C119.901 38.682 119.883 38.4 119.919 38.112C119.955 37.812 120.045 37.53 120.189 37.266C120.333 36.99 120.525 36.744 120.765 36.528C121.017 36.312 121.311 36.144 121.647 36.024C121.731 35.988 121.845 35.958 121.989 35.934C122.145 35.91 122.301 35.904 122.457 35.916C122.625 35.916 122.793 35.946 122.961 36.006C123.129 36.066 123.285 36.168 123.429 36.312C123.429 36.108 123.423 35.886 123.411 35.646C123.411 35.394 123.405 35.142 123.393 34.89C123.381 34.638 123.363 34.404 123.339 34.188C123.327 33.96 123.309 33.768 123.285 33.612C123.261 33.432 123.189 33.324 123.069 33.288C122.961 33.24 122.823 33.246 122.655 33.306C122.367 33.402 122.031 33.588 121.647 33.864C121.263 34.14 120.897 34.434 120.549 34.746C120.441 34.854 120.315 34.902 120.171 34.89C120.039 34.878 119.925 34.824 119.829 34.728C119.733 34.632 119.679 34.524 119.667 34.404C119.655 34.272 119.703 34.134 119.811 33.99C120.015 33.774 120.243 33.552 120.495 33.324C120.747 33.096 121.011 32.892 121.287 32.712C121.563 32.52 121.845 32.364 122.133 32.244C122.421 32.124 122.709 32.058 122.997 32.046C123.417 32.034 123.741 32.13 123.969 32.334C124.197 32.526 124.335 32.778 124.383 33.09ZM122.295 36.96C122.139 36.996 121.971 37.074 121.791 37.194C121.623 37.302 121.467 37.44 121.323 37.608C121.191 37.764 121.089 37.944 121.017 38.148C120.957 38.34 120.957 38.532 121.017 38.724C121.041 38.796 121.089 38.85 121.161 38.886C121.245 38.922 121.335 38.928 121.431 38.904C121.719 38.844 122.043 38.73 122.403 38.562C122.775 38.382 123.069 38.19 123.285 37.986C123.285 37.914 123.249 37.824 123.177 37.716C123.105 37.596 123.021 37.482 122.925 37.374C122.829 37.254 122.721 37.152 122.601 37.068C122.493 36.984 122.391 36.948 122.295 36.96ZM131.301 33.864C131.349 33.852 131.421 33.846 131.517 33.846C131.613 33.834 131.703 33.84 131.787 33.864C131.883 33.876 131.961 33.906 132.021 33.954C132.093 33.99 132.135 34.038 132.147 34.098C132.171 34.242 132.147 34.374 132.075 34.494C132.015 34.602 131.901 34.698 131.733 34.782C131.277 34.998 130.803 35.244 130.311 35.52C129.819 35.784 129.399 36.024 129.051 36.24C129.267 36.384 129.513 36.546 129.789 36.726C130.077 36.906 130.371 37.098 130.671 37.302C130.971 37.494 131.271 37.704 131.571 37.932C131.871 38.148 132.153 38.364 132.417 38.58C132.657 38.784 132.699 38.97 132.543 39.138C132.471 39.222 132.351 39.282 132.183 39.318C132.027 39.354 131.877 39.336 131.733 39.264C131.469 39.132 131.181 38.976 130.869 38.796C130.557 38.604 130.239 38.412 129.915 38.22C129.591 38.016 129.273 37.818 128.961 37.626C128.661 37.422 128.385 37.236 128.133 37.068C128.181 37.488 128.223 37.908 128.259 38.328C128.307 38.748 128.349 39.168 128.385 39.588C128.457 39.816 128.451 40.002 128.367 40.146C128.283 40.29 128.145 40.356 127.953 40.344C127.749 40.308 127.599 40.23 127.503 40.11C127.407 39.978 127.335 39.81 127.287 39.606C127.215 39.114 127.131 38.532 127.035 37.86C126.951 37.188 126.861 36.492 126.765 35.772C126.669 35.052 126.573 34.35 126.477 33.666C126.393 32.982 126.315 32.376 126.243 31.848C126.219 31.68 126.201 31.5 126.189 31.308C126.189 31.104 126.255 30.972 126.387 30.912C126.567 30.84 126.753 30.882 126.945 31.038C127.137 31.182 127.281 31.404 127.377 31.704C127.473 32.256 127.569 32.856 127.665 33.504C127.761 34.152 127.857 34.836 127.953 35.556C128.193 35.412 128.469 35.256 128.781 35.088C129.105 34.908 129.423 34.74 129.735 34.584C130.059 34.416 130.359 34.266 130.635 34.134C130.911 34.002 131.133 33.912 131.301 33.864ZM138.614 33.864C138.662 33.852 138.734 33.846 138.83 33.846C138.926 33.834 139.016 33.84 139.1 33.864C139.196 33.876 139.274 33.906 139.334 33.954C139.406 33.99 139.448 34.038 139.46 34.098C139.484 34.242 139.46 34.374 139.388 34.494C139.328 34.602 139.214 34.698 139.046 34.782C138.59 34.998 138.116 35.244 137.624 35.52C137.132 35.784 136.712 36.024 136.364 36.24C136.58 36.384 136.826 36.546 137.102 36.726C137.39 36.906 137.684 37.098 137.984 37.302C138.284 37.494 138.584 37.704 138.884 37.932C139.184 38.148 139.466 38.364 139.73 38.58C139.97 38.784 140.012 38.97 139.856 39.138C139.784 39.222 139.664 39.282 139.496 39.318C139.34 39.354 139.19 39.336 139.046 39.264C138.782 39.132 138.494 38.976 138.182 38.796C137.87 38.604 137.552 38.412 137.228 38.22C136.904 38.016 136.586 37.818 136.274 37.626C135.974 37.422 135.698 37.236 135.446 37.068C135.494 37.488 135.536 37.908 135.572 38.328C135.62 38.748 135.662 39.168 135.698 39.588C135.77 39.816 135.764 40.002 135.68 40.146C135.596 40.29 135.458 40.356 135.266 40.344C135.062 40.308 134.912 40.23 134.816 40.11C134.72 39.978 134.648 39.81 134.6 39.606C134.528 39.114 134.444 38.532 134.348 37.86C134.264 37.188 134.174 36.492 134.078 35.772C133.982 35.052 133.886 34.35 133.79 33.666C133.706 32.982 133.628 32.376 133.556 31.848C133.532 31.68 133.514 31.5 133.502 31.308C133.502 31.104 133.568 30.972 133.7 30.912C133.88 30.84 134.066 30.882 134.258 31.038C134.45 31.182 134.594 31.404 134.69 31.704C134.786 32.256 134.882 32.856 134.978 33.504C135.074 34.152 135.17 34.836 135.266 35.556C135.506 35.412 135.782 35.256 136.094 35.088C136.418 34.908 136.736 34.74 137.048 34.584C137.372 34.416 137.672 34.266 137.948 34.134C138.224 34.002 138.446 33.912 138.614 33.864ZM145.476 33.09C145.524 33.426 145.56 33.786 145.584 34.17C145.62 34.542 145.644 34.92 145.656 35.304C145.68 35.688 145.692 36.06 145.692 36.42C145.692 36.78 145.686 37.104 145.674 37.392C146.058 37.656 146.286 37.89 146.358 38.094C146.442 38.298 146.454 38.478 146.394 38.634C146.322 38.85 146.19 38.964 145.998 38.976C145.818 38.976 145.608 38.91 145.368 38.778C145.2 38.898 145.008 39.03 144.792 39.174C144.576 39.306 144.348 39.438 144.108 39.57C143.868 39.69 143.628 39.798 143.388 39.894C143.148 39.99 142.926 40.056 142.722 40.092C142.338 40.152 141.99 40.08 141.678 39.876C141.378 39.672 141.174 39.366 141.066 38.958C140.994 38.682 140.976 38.4 141.012 38.112C141.048 37.812 141.138 37.53 141.282 37.266C141.426 36.99 141.618 36.744 141.858 36.528C142.11 36.312 142.404 36.144 142.74 36.024C142.824 35.988 142.938 35.958 143.082 35.934C143.238 35.91 143.394 35.904 143.55 35.916C143.718 35.916 143.886 35.946 144.054 36.006C144.222 36.066 144.378 36.168 144.522 36.312C144.522 36.108 144.516 35.886 144.504 35.646C144.504 35.394 144.498 35.142 144.486 34.89C144.474 34.638 144.456 34.404 144.432 34.188C144.42 33.96 144.402 33.768 144.378 33.612C144.354 33.432 144.282 33.324 144.162 33.288C144.054 33.24 143.916 33.246 143.748 33.306C143.46 33.402 143.124 33.588 142.74 33.864C142.356 34.14 141.99 34.434 141.642 34.746C141.534 34.854 141.408 34.902 141.264 34.89C141.132 34.878 141.018 34.824 140.922 34.728C140.826 34.632 140.772 34.524 140.76 34.404C140.748 34.272 140.796 34.134 140.904 33.99C141.108 33.774 141.336 33.552 141.588 33.324C141.84 33.096 142.104 32.892 142.38 32.712C142.656 32.52 142.938 32.364 143.226 32.244C143.514 32.124 143.802 32.058 144.09 32.046C144.51 32.034 144.834 32.13 145.062 32.334C145.29 32.526 145.428 32.778 145.476 33.09ZM143.388 36.96C143.232 36.996 143.064 37.074 142.884 37.194C142.716 37.302 142.56 37.44 142.416 37.608C142.284 37.764 142.182 37.944 142.11 38.148C142.05 38.34 142.05 38.532 142.11 38.724C142.134 38.796 142.182 38.85 142.254 38.886C142.338 38.922 142.428 38.928 142.524 38.904C142.812 38.844 143.136 38.73 143.496 38.562C143.868 38.382 144.162 38.19 144.378 37.986C144.378 37.914 144.342 37.824 144.27 37.716C144.198 37.596 144.114 37.482 144.018 37.374C143.922 37.254 143.814 37.152 143.694 37.068C143.586 36.984 143.484 36.948 143.388 36.96ZM148.597 33.81C148.633 33.99 148.669 34.194 148.705 34.422C148.753 34.638 148.801 34.866 148.849 35.106C148.897 35.334 148.939 35.568 148.975 35.808C149.011 36.048 149.041 36.276 149.065 36.492C149.209 36.18 149.365 35.85 149.533 35.502C149.701 35.154 149.881 34.836 150.073 34.548C150.277 34.248 150.487 34.002 150.703 33.81C150.931 33.618 151.177 33.522 151.441 33.522C151.837 33.522 152.167 33.666 152.431 33.954C152.707 34.242 152.935 34.602 153.115 35.034C153.307 35.454 153.457 35.898 153.565 36.366C153.673 36.834 153.763 37.248 153.835 37.608C153.907 37.932 153.763 38.172 153.403 38.328C153.235 38.412 153.109 38.424 153.025 38.364C152.941 38.304 152.893 38.244 152.881 38.184C152.821 38.04 152.743 37.788 152.647 37.428C152.563 37.068 152.461 36.702 152.341 36.33C152.233 35.958 152.107 35.634 151.963 35.358C151.819 35.082 151.657 34.956 151.477 34.98C151.261 34.992 151.069 35.154 150.901 35.466C150.757 35.718 150.607 36 150.451 36.312C150.307 36.612 150.163 36.924 150.019 37.248C149.875 37.56 149.731 37.878 149.587 38.202C149.455 38.514 149.329 38.802 149.209 39.066C149.125 39.15 149.017 39.21 148.885 39.246C148.765 39.27 148.639 39.258 148.507 39.21C148.387 39.174 148.291 39.114 148.219 39.03C148.147 38.946 148.111 38.862 148.111 38.778C148.003 37.842 147.889 36.99 147.769 36.222C147.661 35.454 147.517 34.668 147.337 33.864C147.253 33.588 147.235 33.372 147.283 33.216C147.343 33.048 147.523 32.982 147.823 33.018C148.243 33.09 148.501 33.354 148.597 33.81ZM157.918 30.318C157.81 30.846 157.696 31.368 157.576 31.884C157.468 32.4 157.366 32.916 157.27 33.432C157.174 33.948 157.102 34.464 157.054 34.98C157.006 35.496 157 36.012 157.036 36.528C157.06 36.66 157.036 36.786 156.964 36.906C156.904 37.026 156.832 37.104 156.748 37.14C156.484 37.236 156.292 37.17 156.172 36.942C156.028 36.33 155.95 35.724 155.938 35.124C155.938 34.524 155.98 33.93 156.064 33.342C156.16 32.754 156.28 32.172 156.424 31.596C156.58 31.008 156.736 30.426 156.892 29.85C156.952 29.61 157.048 29.478 157.18 29.454C157.312 29.43 157.438 29.442 157.558 29.49C157.738 29.55 157.852 29.67 157.9 29.85C157.948 30.03 157.954 30.186 157.918 30.318ZM157.198 40.002C157.198 40.134 157.18 40.314 157.144 40.542C157.12 40.758 157.072 40.962 157 41.154C156.94 41.346 156.85 41.502 156.73 41.622C156.622 41.742 156.484 41.766 156.316 41.694C156.22 41.634 156.124 41.52 156.028 41.352C155.932 41.184 155.89 41.028 155.902 40.884C155.926 40.596 155.986 40.314 156.082 40.038C156.178 39.762 156.304 39.594 156.46 39.534C156.532 39.51 156.61 39.51 156.694 39.534C156.79 39.558 156.874 39.6 156.946 39.66C157.018 39.708 157.078 39.768 157.126 39.84C157.174 39.9 157.198 39.954 157.198 40.002ZM162.857 30.318C162.749 30.846 162.635 31.368 162.515 31.884C162.407 32.4 162.305 32.916 162.209 33.432C162.113 33.948 162.041 34.464 161.993 34.98C161.945 35.496 161.939 36.012 161.975 36.528C161.999 36.66 161.975 36.786 161.903 36.906C161.843 37.026 161.771 37.104 161.687 37.14C161.423 37.236 161.231 37.17 161.111 36.942C160.967 36.33 160.889 35.724 160.877 35.124C160.877 34.524 160.919 33.93 161.003 33.342C161.099 32.754 161.219 32.172 161.363 31.596C161.519 31.008 161.675 30.426 161.831 29.85C161.891 29.61 161.987 29.478 162.119 29.454C162.251 29.43 162.377 29.442 162.497 29.49C162.677 29.55 162.791 29.67 162.839 29.85C162.887 30.03 162.893 30.186 162.857 30.318ZM162.137 40.002C162.137 40.134 162.119 40.314 162.083 40.542C162.059 40.758 162.011 40.962 161.939 41.154C161.879 41.346 161.789 41.502 161.669 41.622C161.561 41.742 161.423 41.766 161.255 41.694C161.159 41.634 161.063 41.52 160.967 41.352C160.871 41.184 160.829 41.028 160.841 40.884C160.865 40.596 160.925 40.314 161.021 40.038C161.117 39.762 161.243 39.594 161.399 39.534C161.471 39.51 161.549 39.51 161.633 39.534C161.729 39.558 161.813 39.6 161.885 39.66C161.957 39.708 162.017 39.768 162.065 39.84C162.113 39.9 162.137 39.954 162.137 40.002Z" fill="black"></path><line x1="68.2322" y1="160.232" x2="178.232" y2="50.2322" stroke="#BF2828" stroke-width="5"></line><line x1="71.7678" y1="50.2322" x2="181.768" y2="160.232" stroke="#BF2828" stroke-width="5"></line></g></svg>