<svg width="160" height="155" viewBox="0 0 160 155" fill="none" xmlns="http://www.w3.org/2000/svg">
<mask id="mask0" mask-type="alpha" maskUnits="userSpaceOnUse" x="0" y="0" width="160" height="155">
<rect width="160" height="155" fill="#C4C4C4"/>
</mask>
<g mask="url(#mask0)">
<path fill-rule="evenodd" clip-rule="evenodd" d="M8.72871 95.3288C0.656323 72.2292 -4.12589 44.6426 11.024 25.5165C25.809 6.85089 53.0192 11.1256 76.6348 9.59978C101.609 7.9862 130.73 -1.94134 147.648 16.6892C164.789 35.5667 158.632 65.8623 149.383 89.7139C142.086 108.53 122.985 116.908 105.199 126.155C87.7949 135.202 69.9421 146.675 51.2803 140.712C30.5908 134.101 15.9527 116.001 8.72871 95.3288Z" fill="#D2F8FD"/>
<g clip-path="url(#clip0)">
<path d="M98.59 49.7305H36.5061V54.8512H98.59V49.7305Z" fill="#D40000"/>
<path d="M98.59 119.465H36.5061V124.586H98.59V119.465Z" fill="#D40000"/>
<path d="M41.7643 105.315C41.7643 106.804 41.4876 108.201 40.8418 109.598L36.5061 119.467H61.8747L41.7643 99.1699V105.315Z" fill="#FFE21F"/>
<path d="M50.1591 112.948C49.8824 112.948 49.6979 112.855 49.5134 112.669L44.6242 107.734C44.2552 107.362 44.2552 106.71 44.6242 106.338C44.9932 105.965 45.6389 105.965 46.0079 106.338L50.8971 111.272C51.2661 111.645 51.2661 112.297 50.8971 112.669C50.6204 112.855 50.3436 112.948 50.1591 112.948Z" fill="#ECF7EE"/>
<path d="M54.679 117.603C54.4023 117.603 54.2178 117.51 54.0333 117.324L52.0038 115.275C51.6348 114.903 51.6348 114.251 52.0038 113.879C52.3728 113.507 53.0185 113.507 53.3875 113.879L55.417 115.927C55.786 116.3 55.786 116.951 55.417 117.324C55.1403 117.417 54.9558 117.603 54.679 117.603Z" fill="#ECF7EE"/>
<path d="M52.9265 69.0033V75.893L82.6308 66.024C82.723 65.6516 82.9075 65.1861 83.092 64.8137L87.4277 54.8516H47.7605L52.0962 64.8137C52.6497 66.1171 52.9265 67.6068 52.9265 69.0033Z" fill="#FF3D3D"/>
<path d="M93.4243 106.711C93.5166 107.549 93.7011 108.387 94.0701 109.132C93.7011 108.294 93.5166 107.456 93.4243 106.711Z" fill="#FF3D3D"/>
<path d="M95.6379 61.6481L98.5899 54.8516L95.6379 61.6481Z" fill="#FF3D3D"/>
<path d="M82.9997 109.596C82.4462 108.293 82.0772 106.803 82.0772 105.314V99.1688V83.8066L52.9264 93.6756V105.314C52.9264 106.803 52.6497 108.2 52.0039 109.596L61.7823 119.465H98.4976H87.3354L82.9997 109.596Z" fill="#FF3D3D"/>
<path d="M94.2543 109.596C94.1621 109.41 94.1621 109.317 94.0698 109.131C94.0698 109.224 94.1621 109.41 94.2543 109.596L98.59 119.558L94.2543 109.596Z" fill="#E92B40"/>
<path d="M94.0699 109.039C93.7931 108.294 93.6086 107.457 93.4241 106.619C93.4241 106.525 93.4241 106.432 93.4241 106.339C93.4241 106.153 93.4241 105.967 93.4241 105.781C93.4241 105.594 93.4241 105.408 93.4241 105.222V99.0772V80.084L82.262 83.8081V99.1703V105.315C82.262 106.805 82.5387 108.201 83.1845 109.598L87.5202 119.56H98.6824L94.3466 109.598C94.1621 109.412 94.0699 109.225 94.0699 109.039Z" fill="#EE1E1D"/>
<path d="M82.6306 66.024L95.6378 61.6481L98.5898 54.8516H87.4276L83.0919 64.8137C82.8151 65.1861 82.7229 65.5585 82.6306 66.024Z" fill="#EE1E1D"/>
<path d="M52.9265 69.0033C52.9265 67.5137 52.6498 66.1171 52.004 64.7206L47.6683 54.8516H36.5061L40.8418 64.8137C41.3953 66.1171 41.7643 67.6068 41.7643 69.0964V79.8034L52.9265 76.0792V69.0033Z" fill="#FF7675"/>
<path d="M52.9263 105.314V93.6758L41.7642 97.3999V99.1689L52.0961 109.597C52.6496 108.2 52.9263 106.803 52.9263 105.314Z" fill="#FF7675"/>
<path d="M94.2543 64.814C93.7008 66.1174 93.3318 67.6071 93.3318 69.0967C93.3318 67.6071 93.6085 66.1174 94.2543 64.814L95.638 61.6484L94.2543 64.814Z" fill="#FFC51E"/>
<path d="M82.6308 66.0234L52.9265 75.9855V93.6753L82.1696 83.8994V69.0028C82.1696 67.9786 82.2618 66.9545 82.6308 66.0234Z" fill="#FFD81F"/>
<path d="M94.2543 64.814L95.6381 61.6484L82.6309 66.0243C82.3542 67.0485 82.1697 68.0726 82.1697 69.0967V83.9002L93.3318 80.1761V69.0036C93.3318 67.6071 93.6086 66.1174 94.2543 64.814Z" fill="#FFC51E"/>
<path d="M52.9263 75.9863L41.7642 79.7105V97.4002L52.9263 93.676V75.9863Z" fill="#FFE21F"/>
<path d="M67.5939 99.9121C66.3947 101.681 64.9187 103.636 63.166 105.685C61.1365 108.012 59.107 109.874 57.3542 111.364C59.2915 112.481 62.1512 113.785 65.8412 114.436C68.3319 114.902 70.5459 114.809 72.2987 114.716C72.2987 112.854 72.2064 109.967 71.0994 106.709C70.0847 103.543 68.6087 101.309 67.5939 99.9121Z" fill="#EE1E1D"/>
<path d="M81.0625 101.403C82.9997 98.9826 84.937 97.0274 86.6897 95.4447C84.6602 94.4205 81.7082 93.2102 78.0182 92.7446C75.5275 92.4653 73.3135 92.5584 71.5608 92.7446C71.5608 94.6067 71.8375 97.4929 73.129 100.752C74.3283 103.824 75.8043 105.965 76.9113 107.362C78.0182 105.593 79.402 103.545 81.0625 101.403Z" fill="#EE1E1D"/>
<path d="M90.2874 103.545C88.5346 104.755 86.4129 105.966 84.0144 107.083C81.2469 108.386 78.6639 109.317 76.45 109.969C77.8337 111.738 79.9554 114.159 83.0919 116.207C85.2137 117.604 87.2431 118.442 88.9036 119C89.6416 117.324 90.6564 114.624 90.9331 111.179C91.2099 107.921 90.7486 105.221 90.2874 103.545Z" fill="#EE1E1D"/>
<path d="M65.749 97.3047C64.5497 99.0737 63.0737 101.029 61.321 103.077C59.2915 105.405 57.262 107.267 55.5093 108.756C57.4465 109.874 60.3062 111.177 63.9962 111.829C66.487 112.294 68.7009 112.201 70.4537 112.108C70.4537 110.246 70.3614 107.36 69.2544 104.101C68.2397 100.936 66.856 98.7012 65.749 97.3047Z" fill="#FFC51E"/>
<path d="M62.9821 106.429C62.9821 106.988 62.5209 107.453 61.9674 107.453C61.4139 107.453 60.9526 106.988 60.9526 106.429C60.9526 105.87 61.4139 105.405 61.9674 105.405C62.5209 105.312 62.9821 105.87 62.9821 106.429Z" fill="#FFA705"/>
<path d="M68.0553 109.408C68.0553 110.06 67.594 110.526 66.9483 110.526C66.3026 110.526 65.8413 110.06 65.8413 109.408C65.8413 108.757 66.3026 108.291 66.9483 108.291C67.5018 108.291 68.0553 108.757 68.0553 109.408Z" fill="#FFA705"/>
<path d="M65.6568 103.822C66.2682 103.822 66.7638 103.322 66.7638 102.705C66.7638 102.088 66.2682 101.588 65.6568 101.588C65.0454 101.588 64.5498 102.088 64.5498 102.705C64.5498 103.322 65.0454 103.822 65.6568 103.822Z" fill="#FFA705"/>
<path d="M74.2357 104.755C75.3427 102.892 76.7265 100.844 78.3869 98.7959C80.3242 96.3752 82.2614 94.42 84.0142 92.8372C82.0769 91.8131 79.1249 90.6027 75.3427 90.1372C72.852 89.8579 70.638 89.951 68.8853 90.1372C68.8853 91.9993 69.162 94.8855 70.4535 98.1441C71.5605 101.217 73.1287 103.451 74.2357 104.755Z" fill="#FFC51E"/>
<path d="M78.0179 94.7924C78.5783 94.7924 79.0327 94.3339 79.0327 93.7683C79.0327 93.2027 78.5783 92.7441 78.0179 92.7441C77.4575 92.7441 77.0032 93.2027 77.0032 93.7683C77.0032 94.3339 77.4575 94.7924 78.0179 94.7924Z" fill="#FFA705"/>
<path d="M75.9886 98.1446C75.9886 98.7963 75.5274 99.2618 74.8816 99.2618C74.2359 99.2618 73.7747 98.7963 73.7747 98.1446C73.7747 97.4929 74.2359 97.0273 74.8816 97.0273C75.4351 97.0273 75.9886 97.4929 75.9886 98.1446Z" fill="#FFA705"/>
<path d="M72.6675 93.9532C73.2789 93.9532 73.7745 93.453 73.7745 92.836C73.7745 92.219 73.2789 91.7188 72.6675 91.7188C72.0562 91.7188 71.5605 92.219 71.5605 92.836C71.5605 93.453 72.0562 93.9532 72.6675 93.9532Z" fill="#FFA705"/>
<path d="M87.6121 100.938C85.8593 102.148 83.7376 103.358 81.3391 104.475C78.5716 105.779 75.9886 106.71 73.7747 107.362C75.1584 109.131 77.2801 111.551 80.4166 113.6C82.5383 114.996 84.5678 115.834 86.2283 116.393C86.9663 114.717 87.981 112.017 88.2578 108.572C88.5345 105.313 88.0733 102.613 87.6121 100.938Z" fill="#FFC51E"/>
<path d="M85.1217 111.924C85.1217 112.576 84.6605 113.041 84.0147 113.041C83.369 113.041 82.9077 112.576 82.9077 111.924C82.9077 111.272 83.369 110.807 84.0147 110.807C84.6605 110.807 85.1217 111.365 85.1217 111.924Z" fill="#FFA705"/>
<path d="M86.5973 106.432C86.5973 107.083 86.136 107.549 85.4903 107.549C84.8445 107.549 84.3833 107.083 84.3833 106.432C84.3833 105.78 84.8445 105.314 85.4903 105.314C86.0438 105.314 86.5973 105.78 86.5973 106.432Z" fill="#FFA705"/>
<path d="M81.0624 108.758C81.0624 109.41 80.6011 109.875 79.9554 109.875C79.3096 109.875 78.8484 109.41 78.8484 108.758C78.8484 108.106 79.3096 107.641 79.9554 107.641C80.5089 107.734 81.0624 108.199 81.0624 108.758Z" fill="#FFA705"/>
<path d="M85.8598 78.9644L50.5283 90.9748C48.3143 91.7196 45.9158 90.5093 45.1778 88.2748C44.1631 85.1093 45.8235 81.7575 48.96 80.6403L84.2916 68.6299C86.5056 67.8851 88.904 69.0954 89.642 71.3299C90.6568 74.4954 88.9963 77.9403 85.8598 78.9644Z" fill="#ECF7EE"/>
<path d="M60.3988 83.8048L50.9893 86.9704C50.4358 87.1566 49.7901 86.8773 49.6056 86.2255C49.3289 85.3876 49.7901 84.4566 50.6203 84.1772L60.0298 81.0117C60.5833 80.8255 61.229 81.1048 61.4135 81.7565C61.598 82.5945 61.229 83.5255 60.3988 83.8048Z" fill="#FFC51E"/>
<path d="M70.2697 80.3615L64.7347 82.2235C64.1812 82.4097 63.5355 82.1304 63.351 81.4787C63.0742 80.6408 63.5355 79.7097 64.3657 79.4304L69.9007 77.5683C70.4542 77.3821 71.0999 77.6615 71.2844 78.3132C71.5612 79.2442 71.0999 80.0822 70.2697 80.3615Z" fill="#FFC51E"/>
<path d="M84.9374 75.4259L74.421 78.9639C73.8675 79.1501 73.2217 78.8708 73.0372 78.219C72.7605 77.3811 73.2217 76.4501 74.052 76.1707L84.5684 72.6328C85.1219 72.4466 85.7677 72.7259 85.9522 73.3776C86.2289 74.2156 85.7677 75.1466 84.9374 75.4259Z" fill="#FFC51E"/>
</g>
<path d="M118.217 93.2246H111.007V114.805H118.217V93.2246Z" fill="#FE8618"/>
<path d="M111.075 93.2246H82.2358V114.805H111.075V93.2246Z" fill="#FEA829"/>
<path d="M118.485 114.809H111.276C112.077 114.809 112.678 115.416 112.678 116.225V118.248C112.678 122.294 109.406 125.531 105.468 125.531H112.678C116.683 125.531 119.887 122.227 119.887 118.248V116.225C119.887 115.416 119.286 114.809 118.485 114.809Z" fill="#FE8618"/>
<path d="M112.678 118.248V116.225C112.678 115.416 112.077 114.809 111.276 114.809H82.0364C81.2353 114.809 80.6345 115.416 80.6345 116.225V118.248C80.6345 122.294 83.9056 125.531 87.8443 125.531H105.468C109.407 125.531 112.678 122.294 112.678 118.248Z" fill="#FEA829"/>
<path d="M105 63.8934L102.129 61.668H91.1809L88.3103 63.8934C87.2422 64.7026 86.5746 65.8491 86.3076 67.1304H107.002C106.735 65.8491 106.068 64.7026 105 63.8934Z" fill="#CEECFC"/>
<path d="M109.339 79.0009L107.136 75.5616C106.202 74.1454 106.001 72.3246 106.602 70.7061L106.803 70.0991C107.136 69.0876 107.203 68.076 107.003 67.0645H92.8504C91.9826 67.8737 91.7155 69.2224 92.1828 70.3014C92.3831 70.8409 92.5166 71.1781 92.5166 71.5153C92.5834 72.1897 92.0493 72.8641 91.3818 72.9315C91.315 72.9315 91.315 72.9315 91.2482 72.9315C90.6474 72.9315 90.0466 72.4594 89.9799 71.7851C89.9799 71.7851 89.9131 71.6502 89.8463 71.3804C89.2455 70.0317 89.2455 68.4806 89.8463 67.1319H86.3082C86.108 68.1434 86.1747 69.155 86.5085 70.1666L86.7088 70.7735C87.3096 72.392 87.1093 74.2128 86.1747 75.629L83.9717 79.0683C81.7688 82.575 80.5671 86.6213 80.5671 90.735V91.814C80.5671 92.6232 81.168 93.2301 81.969 93.2301H111.342C112.143 93.2301 112.744 92.6232 112.744 91.814V90.735C112.744 86.5538 111.542 82.5076 109.339 79.0009ZM90.9144 78.1916L88.7115 81.6309C87.1761 83.9912 86.3082 86.7562 86.108 89.5885C86.0412 90.2629 85.5071 90.8024 84.8396 90.8024H84.7728C84.1053 90.735 83.5712 90.128 83.5712 89.4537C83.7715 86.2167 84.8396 83.0471 86.5753 80.2822L88.7782 76.8429C89.1788 76.2359 89.9131 76.1011 90.5139 76.4382C91.1815 76.8429 91.315 77.6521 90.9144 78.1916Z" fill="#FEA829"/>
<path d="M93.1834 66.7929L93.851 66.3209C94.3851 65.9163 94.5186 65.107 94.118 64.5675C93.7175 64.028 92.9164 63.8931 92.3824 64.2978L91.7148 64.7698C90.847 65.3768 90.2461 66.186 89.9124 67.1301H92.9164C92.9164 66.9953 93.0499 66.9278 93.1834 66.7929Z" fill="#F7FBFE"/>
<path d="M89.8468 71.3804C89.9804 71.6502 89.9804 71.7851 89.9804 71.7851C90.0471 72.4594 90.5812 72.9315 91.2487 72.9315C91.3155 72.9315 91.3155 72.9315 91.3823 72.9315C92.0498 72.8641 92.5839 72.2571 92.5171 71.5153C92.5171 71.1781 92.3836 70.8409 92.1833 70.3014C91.716 69.2224 91.9831 67.9411 92.8509 67.0645H89.8468C89.3128 68.4132 89.246 69.9643 89.8468 71.3804Z" fill="#FFE3BA"/>
<path d="M90.5807 76.4371C89.9799 76.0324 89.2455 76.2348 88.845 76.8417L86.642 80.281C84.9063 83.0459 83.8382 86.2155 83.638 89.4525C83.5712 90.1269 84.1052 90.7338 84.8396 90.8012H84.9063C85.5739 90.8012 86.108 90.2617 86.1747 89.5874C86.375 86.755 87.2428 84.0575 88.7782 81.6297L90.9812 78.1904C91.315 77.6509 91.1815 76.8417 90.5807 76.4371Z" fill="#FFE3BA"/>
<path d="M118.285 93.2285H82.2358V94.9144H118.285V93.2285Z" fill="#FE8618"/>
<path d="M118.285 113.123H82.2358V114.809H118.285V113.123Z" fill="#FECF3F"/>
<path d="M118.284 97.4062H111.074V110.557H118.284V97.4062Z" fill="#EE1E1D"/>
<path d="M111.075 97.4062H82.2358V110.557H111.075V97.4062Z" fill="#FF3D3D"/>
<path d="M89.4456 97.4102C89.4456 101.456 86.2413 104.693 82.2358 104.693V97.4102H89.4456Z" fill="#EE1E1D"/>
<path d="M108.071 102.738H92.4502C91.9829 102.738 91.5156 102.333 91.5156 101.794C91.5156 101.322 91.9162 100.85 92.4502 100.85H108.071C108.539 100.85 109.006 101.254 109.006 101.794C108.939 102.333 108.539 102.738 108.071 102.738Z" fill="white"/>
<path d="M95.387 106.919H92.4497C91.9825 106.919 91.5151 106.515 91.5151 105.975C91.5151 105.503 91.9157 105.031 92.4497 105.031H95.387C95.8543 105.031 96.3216 105.436 96.3216 105.975C96.2549 106.515 95.8543 106.919 95.387 106.919Z" fill="white"/>
<path d="M108.071 106.919H99.9937C99.5264 106.919 99.0591 106.515 99.0591 105.975C99.0591 105.503 99.4596 105.031 99.9937 105.031H108.071C108.539 105.031 109.006 105.436 109.006 105.975C108.939 106.515 108.539 106.919 108.071 106.919Z" fill="white"/>
<path d="M112.21 63.8895L109.339 61.6641H102.13L105 63.8895C106.068 64.6987 106.736 65.8452 107.003 67.1265H114.213C113.946 65.8452 113.278 64.6987 112.21 63.8895Z" fill="#B0E2FC"/>
<path d="M114.413 75.5577C113.478 74.1415 113.278 72.3207 113.879 70.7022L114.079 70.0952C114.413 69.0837 114.48 68.0721 114.28 67.0605H107.07C107.27 68.0721 107.203 69.0837 106.87 70.0952L106.669 70.7022C106.068 72.3207 106.335 74.1415 107.203 75.5577L109.406 78.997C111.609 82.5037 112.811 86.5499 112.811 90.6636V91.7426C112.811 92.5519 112.21 93.1588 111.409 93.1588H118.619C119.42 93.1588 120.021 92.5519 120.021 91.7426V90.6636C120.021 86.5499 118.819 82.4363 116.616 78.997L114.413 75.5577Z" fill="#FE8618"/>
<path d="M109.336 58.0254H91.1785V61.5996H109.336V58.0254Z" fill="#8FCCF6"/>
<path d="M108.337 51.7539H92.1816C90.8464 51.7539 89.7783 52.8329 89.7783 54.1817V58.5651C89.7783 59.3743 90.3791 59.9813 91.1802 59.9813H109.338C110.139 59.9813 110.74 59.3743 110.74 58.5651V54.1817C110.74 52.8329 109.672 51.7539 108.337 51.7539Z" fill="#FF3D3D"/>
<path d="M96.0522 58.2948C95.6517 58.2948 95.3179 57.9576 95.3179 57.553V54.316C95.3179 53.9114 95.6517 53.5742 96.0522 53.5742C96.4527 53.5742 96.7865 53.9114 96.7865 54.316V57.553C96.8533 57.9576 96.5195 58.2948 96.0522 58.2948Z" fill="#EE1E1D"/>
<path d="M91.9128 58.2948C91.5123 58.2948 91.1785 57.9576 91.1785 57.553V54.316C91.1785 53.9114 91.5123 53.5742 91.9128 53.5742C92.3133 53.5742 92.6471 53.9114 92.6471 54.316V57.553C92.6471 57.9576 92.3133 58.2948 91.9128 58.2948Z" fill="#EE1E1D"/>
<path d="M100.258 58.2948C99.8572 58.2948 99.5234 57.9576 99.5234 57.553V54.316C99.5234 53.9114 99.8572 53.5742 100.258 53.5742C100.658 53.5742 100.992 53.9114 100.992 54.316V57.553C100.992 57.9576 100.658 58.2948 100.258 58.2948Z" fill="#EE1E1D"/>
<path d="M104.398 58.2948C103.997 58.2948 103.664 57.9576 103.664 57.553V54.316C103.664 53.9114 103.997 53.5742 104.398 53.5742C104.798 53.5742 105.132 53.9114 105.132 54.316V57.553C105.199 57.9576 104.798 58.2948 104.398 58.2948Z" fill="#EE1E1D"/>
<path d="M108.603 58.2948C108.202 58.2948 107.869 57.9576 107.869 57.553V54.316C107.869 53.9114 108.202 53.5742 108.603 53.5742C109.004 53.5742 109.337 53.9114 109.337 54.316V57.553C109.337 57.9576 109.004 58.2948 108.603 58.2948Z" fill="#EE1E1D"/>
<path d="M116.7 76.707C115.698 77.5837 115.031 78.7976 114.897 80.2138C113.829 79.3371 112.494 78.9325 111.159 78.9999C111.025 80.3486 111.426 81.6974 112.361 82.7764C110.959 82.9113 109.757 83.5856 108.889 84.5972C109.824 85.6762 111.226 86.418 112.761 86.418C114.296 86.418 115.698 85.6762 116.633 84.5972C117.701 83.6531 118.435 82.2369 118.435 80.6858C118.569 79.0673 117.835 77.6512 116.7 76.707Z" fill="#3AB449"/>
<path d="M114.496 89.3173C112.626 87.4291 112.626 84.3269 114.496 82.3713C116.365 80.483 119.436 80.483 121.372 82.3713C123.241 84.2595 125.511 89.6545 123.575 91.5427C121.705 93.431 116.432 91.2056 114.496 89.3173Z" fill="#FF3D3D"/>
<path d="M115.499 87.2942C115.232 87.5639 114.832 87.5639 114.565 87.2942L114.231 86.957C113.964 86.6872 113.964 86.2826 114.231 86.0129C114.498 85.7431 114.898 85.7431 115.165 86.0129L115.499 86.35C115.766 86.6198 115.766 87.0244 115.499 87.2942Z" fill="#FFD900"/>
<path d="M116.769 84.6633C116.502 84.9331 116.101 84.9331 115.834 84.6633L115.501 84.3261C115.234 84.0564 115.234 83.6517 115.501 83.382C115.768 83.1123 116.168 83.1123 116.435 83.382L116.769 83.7192C117.036 83.9889 117.036 84.3936 116.769 84.6633Z" fill="#FFD900"/>
<path d="M118.704 88.5754C118.436 88.8452 118.036 88.8452 117.769 88.5754L117.435 88.2382C117.168 87.9685 117.168 87.5639 117.435 87.2941C117.702 87.0244 118.103 87.0244 118.37 87.2941L118.704 87.6313C118.904 87.901 118.904 88.3057 118.704 88.5754Z" fill="#FFD900"/>
<path d="M120.64 86.55C120.373 86.8198 119.972 86.8198 119.705 86.55L119.371 86.2128C119.104 85.9431 119.104 85.5385 119.371 85.2687C119.638 84.999 120.039 84.999 120.306 85.2687L120.64 85.6059C120.907 85.9431 120.907 86.3477 120.64 86.55Z" fill="#FFD900"/>
<path d="M119.371 83.3821C119.104 83.6518 118.703 83.6518 118.436 83.3821L118.103 83.0449C117.836 82.7751 117.836 82.3705 118.103 82.1007C118.37 81.831 118.77 81.831 119.037 82.1007L119.371 82.4379C119.638 82.7077 119.638 83.1123 119.371 83.3821Z" fill="#FFD900"/>
<path d="M134.925 84.0598C135.059 83.2505 134.925 82.4413 134.658 81.7669C131.921 80.1484 128.583 79.1368 124.979 79.002C127.382 79.2717 129.251 81.4971 128.917 84.1272C128.583 86.3526 126.581 87.9711 124.311 87.9711H130.319C132.589 87.9037 134.592 86.2852 134.925 84.0598Z" fill="#FFE6E9"/>
<path d="M123.176 87.9023H117.168C110.692 87.9023 105.418 93.2299 105.418 99.7713V111.775H111.427V99.7713C111.427 93.2299 116.7 87.9023 123.176 87.9023Z" fill="#FFCDD2"/>
<path d="M117.168 87.9023H111.16C104.685 87.9023 99.4111 93.2299 99.4111 99.7713V111.775H105.419V99.7713C105.419 93.2299 110.693 87.9023 117.168 87.9023Z" fill="#FFE6E9"/>
<path d="M142.336 93.9748C142.336 88.917 139.265 84.4661 134.592 81.7012C134.859 82.3755 134.992 83.1848 134.859 83.994C134.525 86.2195 132.522 87.838 130.253 87.838H124.244H123.11C116.634 87.838 111.36 93.1655 111.36 99.7069V111.711H124.712C134.525 111.778 142.402 103.821 142.336 93.9748Z" fill="#FFB2B9"/>
<path d="M135.992 105.633C135.458 109.477 133.455 112.984 130.451 115.412L121.573 122.56H130.118L138.996 115.412C142 112.984 144.003 109.477 144.537 105.633L144.671 104.824H136.126C136.059 105.161 135.992 105.431 135.992 105.633Z" fill="#459B1E"/>
<path d="M144.937 102.531L145.137 100.71C145.271 99.7663 144.536 98.957 143.602 98.957H136.859C136.859 98.957 136.659 100.71 136.392 102.531H144.937Z" fill="#459B1E"/>
<path d="M136.794 105.633L136.927 104.824H97.207L97.3405 105.633C97.8746 109.477 99.8773 112.984 102.881 115.412L111.76 122.56H122.374L131.253 115.412C134.257 113.052 136.193 109.545 136.794 105.633Z" fill="#68BB35"/>
<path d="M137.594 98.957H98.141C97.2064 98.957 96.4721 99.7663 96.6056 100.71L96.8058 102.531H137.127L137.594 98.957Z" fill="#68BB35"/>
<path d="M136.393 102.533C136.259 103.342 136.193 104.219 136.126 104.894H144.671L144.938 102.533H136.393Z" fill="#B0E2FC"/>
<path d="M128.38 125.399H113.36C112.425 125.399 111.691 124.657 111.691 123.713V122.566H129.982V123.713C130.049 124.657 129.315 125.399 128.38 125.399Z" fill="#459B1E"/>
<path d="M104.75 102.531H103.348C103.415 103.071 103.615 104.15 103.749 104.892H105.084H136.86L137.127 102.531H104.75Z" fill="#CEECFC"/>
<path d="M96.8726 102.531L97.1396 104.892H101.011C100.811 103.88 100.678 102.801 100.611 102.531H96.8726Z" fill="#CEECFC"/>
<path d="M103.347 102.532C103.28 102.329 103.28 102.195 103.28 102.195C103.147 101.453 102.479 100.913 101.678 101.048C101.011 101.183 100.61 101.79 100.61 102.464C100.61 102.464 100.61 102.464 100.61 102.532H103.013H103.347Z" fill="#8FD853"/>
<path d="M101.078 104.824C101.212 105.566 101.345 106.308 101.479 106.578C101.679 107.117 102.213 107.522 102.747 107.522C103.014 107.522 103.214 107.454 103.481 107.319C104.015 106.982 104.216 106.308 104.015 105.701C104.015 105.633 103.949 105.296 103.815 104.892H103.481H101.078V104.824Z" fill="#8FD853"/>
<path d="M103.08 102.531H100.677C100.744 102.801 100.878 103.88 101.078 104.892H103.481H103.815C103.681 104.15 103.481 103.071 103.414 102.531H103.08Z" fill="white"/>
<path d="M112.026 117.642C111.759 117.642 111.559 117.574 111.292 117.439C110.491 116.967 109.756 116.36 108.955 115.821C107.687 114.809 106.485 113.663 105.35 112.449C104.883 111.91 104.883 111.033 105.417 110.561C105.951 110.089 106.819 110.089 107.286 110.628C108.288 111.707 109.356 112.786 110.557 113.663C111.225 114.202 111.959 114.675 112.627 115.147C113.228 115.551 113.428 116.36 113.027 117.035C112.894 117.439 112.493 117.642 112.026 117.642Z" fill="#8FD853"/>
<g clip-path="url(#clip1)">
<path d="M19.389 73.1324H44.2166V73.1957H46.6617V70.7266H17.0066V73.1957H19.389V73.1324Z" fill="#A9DAFA"/>
<path d="M61.2072 102.255C61.2072 110.739 57.6962 118.337 52.0536 123.781C49.7966 125.934 46.8499 127.074 43.7778 127.074H19.9533C16.8812 127.074 13.8718 125.934 11.6775 123.781C7.16337 119.476 4.02858 113.778 2.90005 107.384C2.58657 105.674 2.46118 103.965 2.46118 102.255C2.46118 92.4422 7.22607 83.7052 14.4988 78.3238C15.3138 77.754 16.1289 77.1842 17.0066 76.6777V75.1582H19.3891V78.0705L19.3264 78.1338L18.1978 78.767C9.98468 83.6419 4.84362 92.6322 4.84362 102.255C4.84362 105.231 5.34519 108.143 6.22293 110.929C7.60224 115.108 9.98469 118.843 13.2449 122.009C15.0004 123.655 17.3828 124.604 19.8906 124.604H43.7151C46.2229 124.604 48.6053 123.655 50.3608 122.009C55.7527 116.817 58.7621 109.79 58.7621 102.255C58.7621 92.6322 53.621 83.6419 45.4078 78.767L44.2166 78.0705V75.1582H46.5991V76.6777C55.3138 81.8059 61.2072 91.3026 61.2072 102.255Z" fill="#A9DAFA"/>
<path d="M44.2167 73.1328H19.3892V73.1961H44.2167V73.1328Z" fill="#CEE8FB"/>
<path d="M19.3892 78.0705L18.198 78.767C9.98481 83.6419 4.84375 92.6322 4.84375 102.255C4.84375 109.79 7.85315 116.817 13.245 122.009C15.0005 123.655 17.3829 124.604 19.8908 124.604H43.7152C46.223 124.604 48.6055 123.655 50.3609 122.009C55.7528 116.817 58.7622 109.79 58.7622 102.255C58.7622 92.6322 53.6211 83.6419 45.408 78.767L44.2168 78.0705V75.1582H19.3892V78.0705Z" fill="#CEE8FB"/>
<path d="M46.6617 73.1953H17.0066V75.0947H46.6617V73.1953Z" fill="#82C9F8"/>
<path d="M47.226 73.1334H16.3796C15.8153 73.1334 15.3765 72.6902 15.3765 72.1204V68.0052C15.3765 67.4354 15.8153 66.9922 16.3796 66.9922H47.226C47.7902 66.9922 48.2291 67.4354 48.2291 68.0052V72.0571C48.2918 72.6269 47.7902 73.1334 47.226 73.1334Z" fill="#E0E1F0"/>
<path d="M48.2918 70.9814H15.3138C15.0003 70.9814 14.8123 70.7281 14.8123 70.4749V69.5885C14.8123 69.272 15.063 69.082 15.3138 69.082H48.2918C48.6053 69.082 48.7934 69.3353 48.7934 69.5885V70.4749C48.8561 70.7914 48.6053 70.9814 48.2918 70.9814Z" fill="#C4C7E2"/>
<path d="M19.013 95.5456C17.5083 94.0895 15.502 93.2031 13.245 93.2031C8.6055 93.2031 4.84375 97.0018 4.84375 101.687C4.84375 104.283 6.03497 106.625 7.85315 108.208C9.29516 109.411 11.176 110.171 13.1823 110.171C17.8218 110.171 21.5835 106.372 21.5835 101.687C21.6462 99.281 20.6431 97.0651 19.013 95.5456Z" fill="#CE571D"/>
<path d="M36.2542 96.0515C34.7495 94.5953 32.7433 93.709 30.4862 93.709C25.8467 93.709 22.085 97.5077 22.085 102.193C22.085 104.788 23.2762 107.131 25.0944 108.714C26.5364 109.917 28.4172 110.676 30.4235 110.676C35.063 110.676 38.8248 106.878 38.8248 102.193C38.8875 99.7869 37.8843 97.571 36.2542 96.0515Z" fill="#CE571D"/>
<path d="M56.1287 97.6355C54.624 96.1793 52.6178 95.293 50.3607 95.293C45.7212 95.293 41.9595 99.0917 41.9595 103.777C41.9595 106.372 43.1507 108.715 44.9689 110.298C46.4109 111.501 48.2918 112.26 50.298 112.26C54.9375 112.26 58.6993 108.462 58.6993 103.777C58.762 101.371 57.7588 99.2183 56.1287 97.6355Z" fill="#E86A11"/>
<path d="M52.8685 89.2781C51.3638 87.8219 49.3575 86.9355 47.1005 86.9355C42.461 86.9355 38.6992 90.7342 38.6992 95.4193C38.6992 98.015 39.8904 100.358 41.7086 101.94C43.1506 103.143 45.0315 103.903 47.0378 103.903C51.6773 103.903 55.439 100.104 55.439 95.4193C55.439 93.0134 54.4359 90.7975 52.8685 89.2781Z" fill="#CE571D"/>
<path d="M38.574 83.1999C37.0693 81.7438 35.1257 80.8574 32.9314 80.8574C28.3546 80.8574 24.6555 84.7194 24.6555 89.4045C24.6555 92.0635 25.784 94.4061 27.6649 95.9889C29.1069 97.2551 30.9251 97.9515 32.9314 97.9515C37.5082 97.9515 41.2072 94.0895 41.2072 89.4045C41.1445 86.9353 40.1414 84.7827 38.574 83.1999Z" fill="#E86A11"/>
<path d="M30.2981 85.0984C28.7934 83.6422 26.8498 82.7559 24.6555 82.7559C20.0787 82.7559 16.3796 86.6179 16.3796 91.3029C16.3796 93.962 17.5082 96.3045 19.389 97.8873C20.831 99.1535 22.6492 99.85 24.6555 99.85C29.2323 99.85 32.9313 95.988 32.9313 91.3029C32.9313 88.8338 31.9282 86.6179 30.2981 85.0984Z" fill="#E86A11"/>
<path d="M50.0474 109.981C48.5427 108.525 46.5365 107.639 44.2794 107.639C39.6399 107.639 35.8782 111.437 35.8782 116.122C35.8782 118.718 37.0694 121.061 38.8876 122.643C40.3296 123.846 42.2105 124.606 44.2167 124.606C48.8562 124.606 52.618 120.807 52.618 116.122C52.6807 113.717 51.6775 111.564 50.0474 109.981Z" fill="#CE571D"/>
<path d="M41.4581 109.981C39.9534 108.525 37.9471 107.639 35.6901 107.639C31.0506 107.639 27.2888 111.437 27.2888 116.122C27.2888 118.718 28.48 121.061 30.2982 122.643C31.7402 123.846 33.6211 124.606 35.6274 124.606C40.2669 124.606 44.0286 120.807 44.0286 116.122C44.0913 113.717 43.0255 111.564 41.4581 109.981Z" fill="#E86A11"/>
<path d="M25.3453 109.981C23.8406 108.525 21.8343 107.639 19.5773 107.639C14.9378 107.639 11.176 111.437 11.176 116.122C11.176 118.718 12.3672 121.061 14.1854 122.643C15.6274 123.846 17.5083 124.606 19.5146 124.606C24.1541 124.606 27.9158 120.807 27.9158 116.122C27.9785 113.717 26.9754 111.564 25.3453 109.981Z" fill="#E86A11"/>
<path d="M25.4707 97.6348C25.9096 98.7744 26.1604 99.9773 26.1604 101.244C26.223 106.435 22.0224 110.677 16.8814 110.677C16.0036 110.677 15.1886 110.55 14.3735 110.297C15.8155 111.5 17.6964 112.26 19.7027 112.26C24.3422 112.26 28.1039 108.461 28.1039 103.776C28.1039 101.37 27.1008 99.2176 25.4707 97.6348Z" fill="#EA7D23"/>
<path d="M26.2229 101.244C26.2229 99.978 25.9721 98.7751 25.5333 97.6355C24.0286 96.1793 22.0223 95.293 19.7653 95.293C15.1258 95.293 11.364 99.0917 11.364 103.777C11.364 106.372 12.5552 108.715 14.3734 110.298C15.1885 110.551 16.0035 110.678 16.8812 110.678C22.0223 110.678 26.2229 106.436 26.2229 101.244Z" fill="#EF9037"/>
<path d="M22.5866 103.524C23.3138 103.524 23.9032 102.929 23.9032 102.195C23.9032 101.46 23.3138 100.865 22.5866 100.865C21.8595 100.865 21.27 101.46 21.27 102.195C21.27 102.929 21.8595 103.524 22.5866 103.524Z" fill="#801600"/>
<path d="M18.1351 99.7247C18.1351 100.295 17.6335 100.801 17.0692 100.801C16.505 100.801 16.0034 100.295 16.0034 99.7247C16.0034 99.1549 16.505 98.6484 17.0692 98.6484C17.6962 98.6484 18.1351 99.0916 18.1351 99.7247Z" fill="#801600"/>
<path d="M17.0694 108.145C18.0736 108.145 18.8876 107.323 18.8876 106.309C18.8876 105.295 18.0736 104.473 17.0694 104.473C16.0652 104.473 15.2512 105.295 15.2512 106.309C15.2512 107.323 16.0652 108.145 17.0694 108.145Z" fill="#D40000"/>
<path d="M41.2701 92.252C42.0224 93.2016 42.6494 94.2779 43.0256 95.4808C44.5303 100.419 41.7717 105.674 36.8814 107.257C36.0663 107.51 35.1886 107.637 34.3735 107.637C36.129 108.396 38.1353 108.523 40.0789 107.89C44.5303 106.497 46.9754 101.749 45.5961 97.3169C44.9064 95.0377 43.2764 93.2016 41.2701 92.252Z" fill="#EA7D23"/>
<path d="M43.0255 95.4813C42.6494 94.2784 42.0224 93.2021 41.2701 92.2524C39.3892 91.3027 37.2575 91.1128 35.1259 91.7459C30.6745 93.1387 28.2293 97.8871 29.6086 102.319C30.361 104.788 32.1792 106.687 34.3735 107.637C35.1886 107.637 36.0663 107.51 36.8813 107.257C41.8343 105.674 44.5302 100.42 43.0255 95.4813Z" fill="#EF9037"/>
<path d="M41.0192 96.6831C41.2073 97.3796 40.8311 98.1393 40.1415 98.3292C39.4518 98.5192 38.6995 98.1393 38.5114 97.4429C38.3233 96.7464 38.6995 95.9867 39.3891 95.7968C40.0788 95.6068 40.8311 95.9867 41.0192 96.6831Z" fill="#D40000"/>
<path d="M35.0004 96.1774C35.1885 96.7472 34.875 97.3803 34.3108 97.507C33.7465 97.6969 33.1195 97.3803 32.9941 96.8105C32.806 96.2407 33.1195 95.6076 33.6838 95.481C34.2481 95.2911 34.8123 95.6076 35.0004 96.1774Z" fill="#801600"/>
<path d="M36.2543 101.814C36.4424 102.51 36.0662 103.206 35.4392 103.396C34.7496 103.586 34.0599 103.206 33.8718 102.573C33.6837 101.877 34.0599 101.18 34.6869 100.99C35.3138 100.801 36.0662 101.18 36.2543 101.814Z" fill="#801600"/>
<path d="M48.2917 103.396C48.7306 104.536 48.9814 105.739 48.9814 107.005C48.9814 112.197 44.8435 116.375 39.7024 116.375C38.8247 116.375 38.0096 116.249 37.1946 115.995C38.6366 117.198 40.5175 117.958 42.5237 117.958C47.1632 117.958 50.925 114.159 50.925 109.474C50.925 107.132 49.9218 104.916 48.2917 103.396Z" fill="#F4A555"/>
<path d="M49.0442 107.006C49.0442 105.74 48.7934 104.537 48.3546 103.397C46.8499 101.941 44.8436 101.055 42.5865 101.055C37.9471 101.055 34.1853 104.853 34.1853 109.538C34.1853 112.134 35.3765 114.477 37.1947 116.059C38.0098 116.313 38.8248 116.439 39.7025 116.439C44.8436 116.376 49.0442 112.198 49.0442 107.006Z" fill="#FEBD75"/>
<path d="M37.947 109.095C38.4664 109.095 38.8875 108.669 38.8875 108.145C38.8875 107.62 38.4664 107.195 37.947 107.195C37.4276 107.195 37.0066 107.62 37.0066 108.145C37.0066 108.669 37.4276 109.095 37.947 109.095Z" fill="#AF3F27"/>
<path d="M42.5865 112.83C42.5865 113.4 42.0849 113.906 41.5207 113.906C40.9564 113.906 40.4548 113.4 40.4548 112.83C40.4548 112.26 40.9564 111.754 41.5207 111.754C42.0849 111.754 42.5865 112.26 42.5865 112.83Z" fill="#931A06"/>
<path d="M43.4644 106.499C44.1569 106.499 44.7183 105.932 44.7183 105.233C44.7183 104.534 44.1569 103.967 43.4644 103.967C42.7718 103.967 42.2104 104.534 42.2104 105.233C42.2104 105.932 42.7718 106.499 43.4644 106.499Z" fill="#931A06"/>
<path d="M20.9565 104.535C21.3954 105.675 21.6462 106.878 21.6462 108.144C21.6462 113.335 17.5083 117.514 12.3672 117.514C11.4895 117.514 10.6744 117.387 9.85938 117.134C11.3014 118.337 13.1823 119.097 15.1885 119.097C19.828 119.097 23.5898 115.298 23.5898 110.613C23.5898 108.271 22.5866 106.055 20.9565 104.535Z" fill="#F4A555"/>
<path d="M21.646 108.145C21.646 106.878 21.3952 105.675 20.9564 104.536C19.4517 103.08 17.4454 102.193 15.1884 102.193C10.5489 102.193 6.78711 105.992 6.78711 110.677C6.78711 113.273 7.97833 115.615 9.79651 117.198C10.6116 117.451 11.4266 117.578 12.3043 117.578C17.5081 117.515 21.646 113.336 21.646 108.145Z" fill="#FEBD75"/>
<path d="M11.1758 111.942C11.6952 111.942 12.1162 111.517 12.1162 110.993C12.1162 110.468 11.6952 110.043 11.1758 110.043C10.6564 110.043 10.2354 110.468 10.2354 110.993C10.2354 111.517 10.6564 111.942 11.1758 111.942Z" fill="#AF3F27"/>
<path d="M13.7464 106.309C13.7464 106.879 13.2448 107.385 12.6806 107.385C12.1163 107.385 11.6147 106.879 11.6147 106.309C11.6147 105.739 12.1163 105.232 12.6806 105.232C13.3075 105.232 13.7464 105.676 13.7464 106.309Z" fill="#931A06"/>
<path d="M17.6963 109.98C18.3888 109.98 18.9502 109.413 18.9502 108.713C18.9502 108.014 18.3888 107.447 17.6963 107.447C17.0038 107.447 16.4424 108.014 16.4424 108.713C16.4424 109.413 17.0038 109.98 17.6963 109.98Z" fill="#AF3F27"/>
<path d="M51.113 91.2415C51.1757 90.735 51.2384 90.2918 51.3011 89.7854C50.3607 90.9883 48.4171 91.2415 47.1632 89.9753L36.3168 79.149C35.9406 78.7692 35.6899 78.326 35.5645 77.8828C34.5613 78.8958 34.4359 80.6685 35.5645 81.8081L46.3482 92.6977C47.9783 94.2805 50.7369 93.4574 51.113 91.2415Z" fill="#EA7D23"/>
<path d="M47.1632 90.0385L36.3168 79.1489C35.9406 78.7691 35.6898 78.3259 35.5645 77.8827C35.9406 77.5028 36.4422 77.2496 37.0065 77.123C40.392 76.5532 43.9657 77.3762 46.787 79.7187C47.1005 79.972 47.414 80.2252 47.6648 80.5418C47.9782 80.8584 48.229 81.1116 48.4798 81.4282C50.4861 83.834 51.3638 86.8729 51.1757 89.8486C50.298 91.0515 48.3544 91.2414 47.1632 90.0385Z" fill="#EF9037"/>
<path d="M41.9595 81.3642C42.4789 81.3642 42.8999 80.939 42.8999 80.4145C42.8999 79.89 42.4789 79.4648 41.9595 79.4648C41.4401 79.4648 41.019 79.89 41.019 80.4145C41.019 80.939 41.4401 81.3642 41.9595 81.3642Z" fill="#801600"/>
<path d="M48.2292 86.5561C47.7276 87.0626 46.9753 87.0626 46.5364 86.5561C46.0975 86.0496 46.0348 85.2898 46.5364 84.8467C47.038 84.3402 47.7903 84.3402 48.2292 84.8467C48.7308 85.2898 48.7308 86.0496 48.2292 86.5561Z" fill="#801600"/>
<path d="M48.5425 81.3645C48.0409 81.8077 47.3513 81.8077 46.8497 81.3012C46.4109 80.858 46.3482 80.0983 46.787 79.5918C47.1005 79.845 47.414 80.0983 47.6648 80.4148C48.0409 80.7947 48.2917 81.048 48.5425 81.3645Z" fill="#801600"/>
<path d="M24.2166 80.0334C23.7777 79.9067 23.2761 79.8434 22.8373 79.7168C23.9658 80.7931 24.0285 82.7557 22.7119 83.8954L10.9878 93.8353C10.6116 94.1518 10.11 94.4051 9.67114 94.4684C10.6116 95.5447 12.3044 95.8612 13.5583 94.7849L25.2824 84.845C26.9125 83.3889 26.3482 80.6032 24.2166 80.0334Z" fill="#EA7D23"/>
<path d="M22.6493 83.8959L10.9879 93.8358C10.549 94.1524 10.1101 94.4056 9.67127 94.4689C9.35779 94.089 9.10701 93.5825 9.04431 92.9494C8.73083 89.4673 9.92206 85.9219 12.4299 83.3261C12.6807 83.0095 12.9942 82.7563 13.3076 82.503C13.6211 82.2498 13.9346 81.9966 14.2481 81.7433C16.8186 79.9706 19.8907 79.3375 22.7747 79.7173C23.9032 80.7936 23.9659 82.7563 22.6493 83.8959Z" fill="#EF9037"/>
<path d="M21.0191 82.4406C21.458 82.9471 21.3953 83.7068 20.8937 84.15C20.3922 84.5932 19.6398 84.5298 19.201 84.0234C18.7621 83.5169 18.8248 82.7571 19.3263 82.3139C19.8279 81.8708 20.5803 81.9341 21.0191 82.4406Z" fill="#801600"/>
<path d="M14.2479 81.7441C14.624 82.2506 14.5613 83.0104 14.0598 83.3902C13.5582 83.8334 12.8059 83.7701 12.4297 83.2636C12.6805 82.9471 12.994 82.6938 13.3074 82.4406C13.6209 82.2506 13.9344 81.9974 14.2479 81.7441Z" fill="#801600"/>
<path d="M28.7937 87.0605C29.2326 88.2002 29.4834 89.4031 29.4834 90.6693C29.4834 95.8608 25.3454 100.039 20.2044 100.039C19.3266 100.039 18.5116 99.9128 17.6965 99.6595C19.1385 100.862 21.0194 101.622 23.0257 101.622C27.6652 101.622 31.4269 97.8235 31.4269 93.1384C31.4269 90.7959 30.4238 88.58 28.7937 87.0605Z" fill="#F4A555"/>
<path d="M29.5459 90.67C29.5459 89.4038 29.2951 88.2009 28.8563 87.0613C27.3516 85.6051 25.3453 84.7188 23.0883 84.7188C18.4488 84.7188 14.687 88.5174 14.687 93.2025C14.687 95.7983 15.8782 98.1408 17.6964 99.7236C18.5115 99.9768 19.3265 100.103 20.2042 100.103C25.3453 100.103 29.5459 95.8616 29.5459 90.67Z" fill="#FEBD75"/>
<path d="M19.7028 92.6967C19.7028 93.4565 19.1385 94.0263 18.3862 94.0263C17.6338 94.0263 17.0696 93.4565 17.0696 92.6967C17.0696 91.937 17.6338 91.3672 18.3862 91.3672C19.1385 91.3672 19.7028 91.937 19.7028 92.6967Z" fill="#AF3F27"/>
<path d="M24.2796 87.9474C24.2796 88.5172 23.778 89.0237 23.2138 89.0237C22.6495 89.0237 22.1479 88.5172 22.1479 87.9474C22.1479 87.3776 22.6495 86.8711 23.2138 86.8711C23.778 86.8711 24.2796 87.3776 24.2796 87.9474Z" fill="#931A06"/>
<path d="M23.6524 96.6204C24.3449 96.6204 24.9063 96.0534 24.9063 95.3541C24.9063 94.6548 24.3449 94.0879 23.6524 94.0879C22.9598 94.0879 22.3984 94.6548 22.3984 95.3541C22.3984 96.0534 22.9598 96.6204 23.6524 96.6204Z" fill="#931A06"/>
<path d="M46.6616 85.0977C47.1005 86.2373 47.3513 87.4402 47.3513 88.7064C47.3513 93.8979 43.2134 98.0765 38.0723 98.0765C37.1945 98.0765 36.3795 97.9499 35.5645 97.6966C37.0065 98.8996 38.8873 99.6593 40.8936 99.6593C45.5331 99.6593 49.2949 95.8606 49.2949 91.1756C49.2949 88.833 48.2917 86.6171 46.6616 85.0977Z" fill="#F4A555"/>
<path d="M47.4141 88.7071C47.4141 87.4409 47.1633 86.238 46.7244 85.0984C45.2197 83.6422 43.2135 82.7559 40.9564 82.7559C36.3169 82.7559 32.5552 86.5545 32.5552 91.2396C32.5552 93.8354 33.7464 96.1779 35.5646 97.7607C36.3796 98.0139 37.1947 98.1405 38.0724 98.1405C43.2135 98.0772 47.4141 93.8987 47.4141 88.7071Z" fill="#FEBD75"/>
<path d="M43.4644 91.8095C43.9838 91.8095 44.4048 91.3843 44.4048 90.8598C44.4048 90.3353 43.9838 89.9102 43.4644 89.9102C42.945 89.9102 42.5239 90.3353 42.5239 90.8598C42.5239 91.3843 42.945 91.8095 43.4644 91.8095Z" fill="#931A06"/>
<path d="M39.5145 93.5197C39.5145 94.0895 39.0129 94.5959 38.4486 94.5959C37.8844 94.5959 37.3828 94.0895 37.3828 93.5197C37.3828 92.9499 37.8844 92.4434 38.4486 92.4434C39.0756 92.4434 39.5145 92.8865 39.5145 93.5197Z" fill="#AF3F27"/>
<path d="M38.8872 88.3274C39.5797 88.3274 40.1411 87.7605 40.1411 87.0611C40.1411 86.3618 39.5797 85.7949 38.8872 85.7949C38.1947 85.7949 37.6333 86.3618 37.6333 87.0611C37.6333 87.7605 38.1947 88.3274 38.8872 88.3274Z" fill="#AF3F27"/>
<path d="M35.0005 109.98C35.4394 111.12 35.6901 112.323 35.6901 113.589C35.6901 118.781 31.5522 122.959 26.4112 122.959C25.5334 122.959 24.7184 122.833 23.9033 122.579C25.3453 123.782 27.2262 124.542 29.2325 124.542C33.872 124.605 37.571 120.807 37.571 116.122C37.571 113.716 36.5679 111.563 35.0005 109.98Z" fill="#F4A555"/>
<path d="M35.69 113.59C35.69 112.324 35.4392 111.121 35.0003 109.981C33.4956 108.525 31.4894 107.639 29.2323 107.639C24.5928 107.639 20.8311 111.437 20.8311 116.122C20.8311 118.718 22.0223 121.061 23.8405 122.643C24.6555 122.897 25.4705 123.023 26.3483 123.023C31.4894 123.023 35.69 118.781 35.69 113.59Z" fill="#FEBD75"/>
<path d="M31.803 116.438C32.3224 116.438 32.7434 116.013 32.7434 115.489C32.7434 114.964 32.3224 114.539 31.803 114.539C31.2836 114.539 30.8625 114.964 30.8625 115.489C30.8625 116.013 31.2836 116.438 31.803 116.438Z" fill="#931A06"/>
<path d="M27.2886 118.022C27.2886 118.591 26.7871 119.098 26.2228 119.098C25.6586 119.098 25.157 118.591 25.157 118.022C25.157 117.452 25.6586 116.945 26.2228 116.945C26.7871 116.945 27.2886 117.388 27.2886 118.022Z" fill="#931A06"/>
<path d="M26.7246 113.527C27.4171 113.527 27.9785 112.96 27.9785 112.26C27.9785 111.561 27.4171 110.994 26.7246 110.994C26.0321 110.994 25.4707 111.561 25.4707 112.26C25.4707 112.96 26.0321 113.527 26.7246 113.527Z" fill="#AF3F27"/>
<path d="M14.4987 87.3779C14.1852 87.3779 13.8718 87.2513 13.621 87.0613C13.1194 86.5549 13.1194 85.7951 13.5583 85.2886C15.1884 83.5159 17.0692 81.9964 19.1382 80.7935L21.8968 79.1474C22.5238 78.7676 23.2761 79.0208 23.5896 79.5906C23.9658 80.2237 23.715 80.9835 23.1507 81.3L20.3921 82.9461C18.5113 84.0224 16.8185 85.4153 15.3765 86.998C15.1884 87.2513 14.8122 87.3779 14.4987 87.3779Z" fill="white"/>
<path d="M9.35791 95.9893C9.23252 95.9893 9.10713 95.9893 8.91904 95.926C8.29208 95.6727 7.9159 94.9763 8.16669 94.3432C8.73095 92.7604 9.4206 91.1776 10.2983 89.7215C10.6745 89.1517 11.4269 88.8984 11.9911 89.2783C12.5554 89.6582 12.8062 90.4179 12.43 90.9877C11.6777 92.3172 10.988 93.7101 10.4864 95.1662C10.361 95.6727 9.85948 95.9893 9.35791 95.9893Z" fill="white"/>
<path opacity="0.33" d="M36.0035 96.4948C36.0035 106.688 27.7903 114.982 17.6963 114.982C13.3703 114.982 9.35773 113.462 6.22293 110.93C4.96902 109.917 3.84049 108.714 2.83736 107.384C2.58657 105.675 2.46118 103.966 2.46118 102.256C2.46118 92.4428 7.22607 83.7058 14.4988 78.3244C15.5646 78.1344 16.6304 78.0078 17.6963 78.0078C18.2605 78.0078 18.7621 78.0078 19.3264 78.0711C28.668 78.9575 36.0035 86.8714 36.0035 96.4948Z" fill="white"/>
<path opacity="0.33" d="M56.6302 103.712C56.6302 100.484 55.8152 97.4446 54.3732 94.8488C53.4954 93.2027 51.113 93.3294 50.486 95.1021L41.5832 118.337C40.9563 120.047 42.5237 121.756 44.2164 121.186C51.4265 118.717 56.6302 111.816 56.6302 103.712Z" fill="white"/>
</g>
<path d="M121.889 78.5781L119.954 80.5332L134.634 95.3633L136.569 93.4082L121.889 78.5781Z" fill="#FF813A"/>
<path d="M122.896 79.6035L124.565 81.2894V85.2008L122.896 83.5149V79.6035Z" fill="#FFB651"/>
<path d="M127.435 84.1914L129.104 85.8773V89.7887L127.435 88.1028V84.1914Z" fill="#FFB651"/>
<path d="M131.976 88.7773L133.645 90.4633V94.3746L131.976 92.6887V88.7773Z" fill="#FFAD6C"/>
<path d="M128.192 70.6342L125.641 71.6367L133.169 91.1835L135.72 90.1809L128.192 70.6342Z" fill="#FF813A"/>
<path d="M128.636 71.9844L129.504 74.2098L127.969 77.7166L127.101 75.4911L128.636 71.9844Z" fill="#FFB651"/>
<path d="M130.972 77.9863L131.84 80.2118L130.304 83.7859L129.437 81.5605L130.972 77.9863Z" fill="#FFB651"/>
<path d="M133.309 84.0527L134.176 86.2782L132.641 89.7849L131.773 87.5595L133.309 84.0527Z" fill="#FFAD6C"/>
<path d="M139.384 104.894C143.697 104.894 147.194 101.361 147.194 97.0035C147.194 92.6458 143.697 89.1133 139.384 89.1133C135.07 89.1133 131.573 92.6458 131.573 97.0035C131.573 101.361 135.07 104.894 139.384 104.894Z" fill="#FFC51E"/>
<path d="M152.802 99.4971L141.787 126.337V126.405C140.919 128.563 137.915 128.563 137.047 126.405V126.337L125.965 99.4297L152.802 99.4971Z" fill="#FFAD6C"/>
<path d="M142.523 124.518L141.788 126.339L133.577 118.044L131.908 113.863L142.523 124.518Z" fill="#FF9545"/>
<path d="M145.126 118.312L144.325 120.133L127.502 103.071L126.434 99.4297L144.992 118.245L145.126 118.312Z" fill="#FF9545"/>
<path d="M147.664 112.108L146.996 113.659L146.929 113.861L132.577 99.4297H135.113L147.664 112.108Z" fill="#FF9545"/>
<path d="M150.201 105.904L149.466 107.657L141.255 99.4297H143.792L150.201 105.904Z" fill="#FF9545"/>
<path d="M146.995 113.66L145.193 118.044L136.982 126.338L136.248 124.518L146.995 113.66Z" fill="#FF9545"/>
<path d="M151.334 103.071L134.445 120.133L133.71 118.312L133.777 118.245L152.402 99.4297L151.334 103.071Z" fill="#FF9545"/>
<path d="M146.261 99.4297L131.975 113.861H131.908L131.841 113.659L131.174 112.108L143.724 99.4297H146.261Z" fill="#FF9545"/>
<path d="M137.515 99.4297L136.314 100.644L135.045 101.925L131.974 105.027L130.706 106.308L129.371 107.657L128.636 105.904L135.045 99.4297H137.515Z" fill="#FF9545"/>
<path d="M139.384 94.71C143.697 94.71 147.194 91.1775 147.194 86.8199C147.194 82.4622 143.697 78.9297 139.384 78.9297C135.07 78.9297 131.573 82.4622 131.573 86.8199C131.573 91.1775 135.07 94.71 139.384 94.71Z" fill="#299AEA"/>
<path d="M134.844 85.1329C134.711 85.1329 134.511 85.1329 134.377 85.0655C133.776 84.7957 133.442 84.1214 133.71 83.447C134.043 82.5703 134.711 81.8285 135.579 81.4239C136.18 81.1541 136.914 81.3564 137.181 81.9634C137.448 82.5703 137.248 83.3121 136.647 83.5819C136.313 83.7167 136.046 84.0539 135.912 84.3911C135.779 84.8632 135.312 85.1329 134.844 85.1329Z" fill="#61B6F2"/>
<path d="M142.522 84.5922C143.333 84.5922 143.991 83.928 143.991 83.1086C143.991 82.2892 143.333 81.625 142.522 81.625C141.711 81.625 141.054 82.2892 141.054 83.1086C141.054 83.928 141.711 84.5922 142.522 84.5922Z" fill="#1379DA"/>
<path d="M157.541 95.5177C157.541 90.0553 153.135 85.6719 147.795 85.6719C142.388 85.6719 138.048 90.1227 138.048 95.5177C138.048 100.98 142.454 105.364 147.795 105.364C148.329 105.364 148.93 105.296 149.464 105.229V108.263C149.464 109.342 150.332 110.287 151.466 110.287C152.535 110.287 153.469 109.41 153.469 108.263V103.61C155.939 101.789 157.541 98.8222 157.541 95.5177Z" fill="#FFE21F"/>
<path d="M140.786 95.5177C140.786 90.0553 136.381 85.6719 131.04 85.6719C125.633 85.6719 121.293 90.1227 121.293 95.5177C121.293 98.8896 122.962 101.924 125.566 103.678V108.87C125.566 109.949 126.434 110.893 127.569 110.893C128.703 110.893 129.571 110.017 129.571 108.87V107.522C129.571 106.443 130.439 105.498 131.574 105.498C132.642 105.498 133.577 106.375 133.577 107.522V111.366V113.119C133.577 114.198 134.445 115.142 135.579 115.142C136.648 115.142 137.582 114.265 137.582 113.119V102.936C139.518 101.115 140.786 98.485 140.786 95.5177Z" fill="#EE1E1D"/>
<path d="M157.541 95.5177C157.541 90.0553 153.135 85.6719 147.795 85.6719C142.388 85.6719 138.048 90.1227 138.048 95.5177C138.048 100.98 142.454 105.364 147.795 105.364C148.329 105.364 148.93 105.296 149.464 105.229V108.263C149.464 109.342 150.332 110.287 151.466 110.287C152.535 110.287 153.469 109.41 153.469 108.263V103.61C155.939 101.789 157.541 98.8222 157.541 95.5177Z" fill="#FFE600"/>
<path d="M154.338 95.7214C154.338 96.126 154.004 96.5306 153.537 96.5306C153.136 96.5306 152.736 96.1934 152.736 95.7214C152.736 95.3167 153.069 94.9121 153.537 94.9121C154.004 94.9795 154.338 95.3167 154.338 95.7214Z" fill="#F6B501"/>
<path d="M146.259 100.983C147.07 100.983 147.728 100.319 147.728 99.4992C147.728 98.6799 147.07 98.0156 146.259 98.0156C145.448 98.0156 144.791 98.6799 144.791 99.4992C144.791 100.319 145.448 100.983 146.259 100.983Z" fill="#F6B501"/>
<path d="M149.93 92.417C149.93 93.0914 149.396 93.6309 148.728 93.6309C148.061 93.6309 147.527 93.0914 147.527 92.417C147.527 91.7426 148.061 91.2031 148.728 91.2031C149.396 91.2031 149.93 91.7426 149.93 92.417Z" fill="#F6B501"/>
<path d="M127.502 96.1921C127.502 96.5967 127.168 97.0013 126.701 97.0013C126.367 97.0013 125.967 96.6641 125.967 96.1921C125.967 95.7874 126.301 95.3828 126.768 95.3828C127.168 95.4502 127.502 95.7874 127.502 96.1921Z" fill="#D40000"/>
<path d="M135.58 99.4307C135.58 100.105 135.045 100.645 134.378 100.645C133.71 100.645 133.176 100.105 133.176 99.4307C133.176 98.7563 133.71 98.2168 134.378 98.2168C134.979 98.2168 135.58 98.7563 135.58 99.4307Z" fill="#D40000"/>
<path d="M124.832 93.83C124.698 93.83 124.498 93.83 124.365 93.7625C123.764 93.4928 123.43 92.8184 123.697 92.144C124.431 90.3232 125.767 88.8396 127.502 87.9629C128.103 87.6932 128.837 87.8955 129.104 88.5024C129.371 89.1094 129.171 89.8512 128.57 90.1209C127.369 90.7279 126.434 91.7394 125.9 93.0207C125.767 93.5602 125.299 93.83 124.832 93.83Z" fill="#FF5750"/>
<path d="M141.454 93.8307C141.321 93.8307 141.121 93.8307 140.987 93.7632C140.386 93.4935 140.053 92.8191 140.32 92.1448C140.987 90.4588 142.256 89.1101 143.858 88.3008C144.459 88.0311 145.193 88.2334 145.46 88.8403C145.727 89.4473 145.527 90.1891 144.926 90.4588C143.858 90.9983 142.99 91.9424 142.523 93.0214C142.389 93.5609 141.922 93.8307 141.454 93.8307Z" fill="#FFF2A8"/>
</g>
<defs>
<clipPath id="clip0">
<rect x="36.5061" y="49.7305" width="62.0839" height="74.8555" fill="white"/>
</clipPath>
<clipPath id="clip1">
<rect x="2.46118" y="66.9922" width="58.746" height="60.0192" fill="white"/>
</clipPath>
</defs>
</svg>
