<svg xmlns="http://www.w3.org/2000/svg" width="250" height="230" viewBox="0 0 250 230" fill="none"><mask id="mask0" maskUnits="userSpaceOnUse" x="0" y="0" width="250" height="230"><rect width="250" height="230" fill="#F9F9F9"></rect></mask><g mask="url(#mask0)"><path fill-rule="evenodd" clip-rule="evenodd" d="M16.2331 138.942C3.65089 103.301 -3.80304 60.7362 19.8107 31.2255C42.8558 2.42542 85.2678 9.02103 122.077 6.66679C161.004 4.17712 206.394 -11.1406 232.763 17.6055C259.481 46.7324 249.884 93.4771 235.467 130.279C224.094 159.311 194.322 172.238 166.599 186.505C139.472 200.464 111.645 218.167 82.5574 208.967C50.3091 198.766 27.493 170.838 16.2331 138.942Z" fill="#D2F8FD"></path><path d="M216.318 108.77H201.059V153.982H216.318V108.77Z" fill="#FE8618"></path><path d="M201.058 108.77H140.021V153.982H201.058V108.77Z" fill="#FEA829"></path><path d="M216.882 153.98H201.482C203.177 153.98 204.449 155.252 204.449 156.948V161.186C204.449 169.664 197.526 176.446 189.189 176.446H204.449C212.926 176.446 219.708 169.522 219.708 161.186V156.948C219.849 155.252 218.437 153.98 216.882 153.98Z" fill="#FE8618"></path><path d="M204.59 161.186V156.948C204.59 155.252 203.318 153.98 201.622 153.98H139.596C137.901 153.98 136.629 155.252 136.629 156.948V161.186C136.629 169.664 143.552 176.446 151.888 176.446H189.189C197.666 176.446 204.59 169.664 204.59 161.186Z" fill="#FEA829"></path><path d="M188.341 47.3071L182.266 42.6445H158.953L152.877 47.3071C150.617 49.0026 149.204 51.4045 148.639 54.089H192.439C191.874 51.4045 190.461 49.0026 188.341 47.3071Z" fill="#CEECFC"></path><path d="M197.526 78.9576L192.863 71.7518C190.885 68.7847 190.461 64.9699 191.733 61.5789L192.157 60.3073C192.863 58.1879 193.004 56.0686 192.581 53.9492H162.627C160.79 55.6447 160.225 58.4705 161.214 60.7312C161.638 61.8615 161.921 62.5679 161.921 63.2744C162.062 64.6873 160.932 66.1002 159.519 66.2415C159.377 66.2415 159.377 66.2415 159.236 66.2415C157.964 66.2415 156.693 65.2524 156.552 63.8395C156.552 63.8395 156.41 63.557 156.269 62.9918C154.997 60.166 154.997 56.9163 156.269 54.0905H148.781C148.357 56.2099 148.498 58.3292 149.204 60.4486L149.628 61.7202C150.9 65.1112 150.476 68.926 148.498 71.8931L143.835 79.0989C139.032 86.3047 136.488 94.7821 136.488 103.542V105.803C136.488 107.498 137.76 108.77 139.455 108.77H201.623C203.319 108.77 204.59 107.498 204.59 105.803V103.542C204.731 94.7821 202.188 86.3047 197.526 78.9576ZM158.53 77.2621L153.867 84.4679C150.617 89.5544 148.781 95.3473 148.357 101.14C148.215 102.553 147.085 103.683 145.672 103.683H145.531C144.118 103.542 142.988 102.271 142.988 100.858C143.412 94.0757 145.672 87.435 149.346 81.6421L154.008 74.4363C154.856 73.1647 156.41 72.8821 157.682 73.5886C158.953 74.4363 159.377 76.1318 158.53 77.2621Z" fill="#FEA829"></path><path d="M163.193 53.3847L164.606 52.3957C165.736 51.5479 166.019 49.8525 165.171 48.7221C164.323 47.5918 162.628 47.3092 161.497 48.157L160.084 49.146C158.248 50.4176 156.976 52.1131 156.27 54.0912H162.628C162.769 53.8086 163.051 53.6673 163.193 53.3847Z" fill="#F7FBFE"></path><path d="M156.269 62.9918C156.552 63.557 156.552 63.8395 156.552 63.8395C156.693 65.2524 157.823 66.2415 159.236 66.2415C159.378 66.2415 159.378 66.2415 159.519 66.2415C160.932 66.1002 162.062 64.8286 161.921 63.2744C161.921 62.5679 161.638 61.8615 161.214 60.7312C160.225 58.4705 160.79 55.786 162.627 53.9492H156.269C154.998 56.775 154.998 60.0247 156.269 62.9918Z" fill="#FFE3BA"></path><path d="M157.682 73.5895C156.41 72.7417 154.856 73.1656 154.008 74.4372L149.346 81.643C145.672 87.4359 143.553 94.0766 143.129 100.859C142.988 102.271 144.118 103.543 145.672 103.684H145.814C147.227 103.684 148.357 102.554 148.498 101.141C148.922 95.2069 150.759 89.5553 154.008 84.4688L158.671 77.263C159.377 76.1327 158.954 74.4372 157.682 73.5895Z" fill="#FFE3BA"></path><path d="M216.317 108.77H140.021V112.302H216.317V108.77Z" fill="#FE8618"></path><path d="M216.317 150.449H140.021V153.981H216.317V150.449Z" fill="#FECF3F"></path><path d="M216.318 117.527H201.059V145.079H216.318V117.527Z" fill="#EE1E1D"></path><path d="M201.058 117.527H140.021V145.079H201.058V117.527Z" fill="#FF3D3D"></path><path d="M155.421 117.527C155.421 126.005 148.64 132.787 140.162 132.787V117.527H155.421Z" fill="#EE1E1D"></path><path d="M194.7 128.69H161.638C160.649 128.69 159.66 127.843 159.66 126.712C159.66 125.723 160.508 124.734 161.638 124.734H194.7C195.689 124.734 196.678 125.582 196.678 126.712C196.678 127.843 195.83 128.69 194.7 128.69Z" fill="white"></path><path d="M167.855 137.452H161.638C160.649 137.452 159.66 136.604 159.66 135.474C159.66 134.485 160.508 133.496 161.638 133.496H167.855C168.844 133.496 169.833 134.344 169.833 135.474C169.833 136.604 168.985 137.452 167.855 137.452Z" fill="white"></path><path d="M194.699 137.452H177.603C176.614 137.452 175.625 136.604 175.625 135.474C175.625 134.485 176.473 133.496 177.603 133.496H194.699C195.688 133.496 196.677 134.344 196.677 135.474C196.677 136.604 195.83 137.452 194.699 137.452Z" fill="white"></path><path d="M203.601 47.3071L197.526 42.6445H182.125L188.2 47.3071C190.461 49.0026 191.874 51.4045 192.439 54.089H207.699C207.275 51.4045 205.862 49.0026 203.601 47.3071Z" fill="#B0E2FC"></path><path d="M208.121 71.7518C206.143 68.7847 205.719 64.9699 206.991 61.5789L207.415 60.3073C208.121 58.1879 208.262 56.0686 207.838 53.9492H192.438C192.862 56.0686 192.72 58.1879 192.014 60.3073L191.59 61.5789C190.318 64.9699 190.884 68.7847 192.72 71.7518L197.383 78.9576C202.046 86.3047 204.589 94.7821 204.589 103.401V105.661C204.589 107.357 203.317 108.629 201.622 108.629H217.022C218.718 108.629 219.989 107.357 219.989 105.661V103.401C219.989 94.7821 217.446 86.1634 212.784 78.9576L208.121 71.7518Z" fill="#FE8618"></path><path d="M197.387 35.0156H158.956V42.504H197.387V35.0156Z" fill="#8FCCF6"></path><path d="M195.266 21.875H161.215C158.39 21.875 156.129 24.1356 156.129 26.9615V36.1453C156.129 37.8408 157.401 39.1124 159.096 39.1124H197.527C199.222 39.1124 200.494 37.8408 200.494 36.1453V26.9615C200.494 24.1356 198.233 21.875 195.266 21.875Z" fill="#FF3D3D"></path><path d="M169.412 35.5817C168.564 35.5817 167.857 34.8753 167.857 34.0275V27.2456C167.857 26.3979 168.564 25.6914 169.412 25.6914C170.259 25.6914 170.966 26.3979 170.966 27.2456V34.0275C170.966 34.8753 170.259 35.5817 169.412 35.5817Z" fill="#EE1E1D"></path><path d="M160.651 35.5817C159.803 35.5817 159.097 34.8753 159.097 34.0275V27.2456C159.097 26.3979 159.803 25.6914 160.651 25.6914C161.499 25.6914 162.205 26.3979 162.205 27.2456V34.0275C162.205 34.8753 161.499 35.5817 160.651 35.5817Z" fill="#EE1E1D"></path><path d="M178.171 35.5817C177.324 35.5817 176.617 34.8753 176.617 34.0275V27.2456C176.617 26.3979 177.324 25.6914 178.171 25.6914C179.019 25.6914 179.726 26.3979 179.726 27.2456V34.0275C179.867 34.8753 179.16 35.5817 178.171 35.5817Z" fill="#EE1E1D"></path><path d="M187.073 35.5817C186.225 35.5817 185.519 34.8753 185.519 34.0275V27.2456C185.519 26.3979 186.225 25.6914 187.073 25.6914C187.92 25.6914 188.627 26.3979 188.627 27.2456V34.0275C188.627 34.8753 187.92 35.5817 187.073 35.5817Z" fill="#EE1E1D"></path><path d="M195.833 35.5817C194.985 35.5817 194.278 34.8753 194.278 34.0275V27.2456C194.278 26.3979 194.985 25.6914 195.833 25.6914C196.68 25.6914 197.387 26.3979 197.387 27.2456V34.0275C197.528 34.8753 196.822 35.5817 195.833 35.5817Z" fill="#EE1E1D"></path><path d="M75.4203 167.98H97.2734V165.404H75.4203V167.98Z" fill="#FF3D3D"></path><path d="M25.4057 167.98H47.2588V165.404H25.4057V167.98Z" fill="#E92B40"></path><path d="M22.0848 170.122H95.2286C96.2569 170.122 97.0282 169.221 97.0282 168.319C97.0282 167.289 96.2569 166.516 95.2286 166.516H22.0848C21.0564 166.516 20.2852 167.289 20.2852 168.319C20.2852 169.35 21.0564 170.122 22.0848 170.122Z" fill="#FFE600"></path><path d="M21.4424 175.016H98.4426C99.728 175.016 100.885 173.857 100.885 172.569C100.885 171.28 99.728 170.121 98.4426 170.121H21.4424C20.1569 170.121 19 171.28 19 172.569C19 173.986 20.0284 175.016 21.4424 175.016Z" fill="#C53E33"></path><path d="M99.8572 175.016L99.9858 180.683C99.9858 181.714 99.0859 182.616 98.0576 182.616H30.0557C26.0708 182.616 22.7285 179.395 22.7285 175.273C22.7285 175.016 22.7285 175.273 22.7285 175.016H99.8572Z" fill="#EE8B42"></path><path d="M22.5986 166.516H97.9277C98.9561 166.516 99.8559 165.614 99.8559 164.584V146.936C99.8559 145.906 98.9561 145.004 97.9277 145.004H44.966C44.0661 145.004 43.2948 145.004 42.395 145.133C31.597 146.421 23.1128 155.438 22.5986 166.516Z" fill="#EE8B3A"></path><path d="M78.1312 155.824C78.3883 156.855 79.8024 157.241 80.5737 156.468L92.0144 145.004H79.2882C77.36 148.353 76.9743 152.346 78.1312 155.824Z" fill="#E58935"></path><path d="M59.7484 155.824C60.0055 156.855 61.4196 157.241 62.1908 156.468L73.6316 145.004H60.9054C59.1057 148.353 58.7201 152.217 59.7484 155.824Z" fill="#E16B2E"></path><path d="M41.495 155.824C41.7521 156.855 43.1662 157.241 43.9375 156.468L55.3782 145.004H45.0944C44.1945 145.004 43.4233 145.004 42.5234 145.133C40.7238 148.482 40.4667 152.346 41.495 155.824Z" fill="#E16B2E"></path><path d="M96.7701 148.225C97.2842 148.741 97.927 148.87 98.1841 148.612C98.4412 148.354 98.3126 147.71 97.7984 147.195C97.2842 146.68 96.6415 146.551 96.3844 146.809C96.1273 147.066 96.2559 147.71 96.7701 148.225Z" fill="#FBC890"></path><path d="M94.7134 152.475C95.2276 152.991 95.8703 153.12 96.1274 152.862C96.3845 152.604 96.256 151.96 95.7418 151.445C95.2276 150.93 94.5849 150.801 94.3278 151.059C94.0707 151.316 94.1992 151.96 94.7134 152.475Z" fill="#FBC890"></path><path d="M75.1748 157.886C75.689 158.401 76.3318 158.53 76.5889 158.272C76.846 158.014 76.7174 157.37 76.2032 156.855C75.689 156.34 75.0463 156.211 74.7892 156.469C74.4036 156.726 74.6606 157.37 75.1748 157.886Z" fill="#FBC890"></path><path d="M52.4214 151.702C52.9356 152.217 53.5783 152.346 53.8354 152.088C54.0925 151.831 53.964 151.187 53.4498 150.672C52.9356 150.156 52.2929 150.027 52.0358 150.285C51.7787 150.543 51.9072 151.187 52.4214 151.702Z" fill="#FBC890"></path><path d="M34.168 151.444C34.6822 151.959 35.3249 152.088 35.582 151.831C35.8391 151.573 35.7106 150.929 35.1964 150.414C34.6822 149.898 34.0395 149.77 33.7824 150.027C33.3967 150.285 33.6538 150.929 34.168 151.444Z" fill="#FBC890"></path><path d="M32.7534 157.37C33.2676 157.885 33.9104 158.014 34.1675 157.756C34.4246 157.499 34.296 156.855 33.7818 156.339C33.2676 155.824 32.6249 155.695 32.3678 155.953C32.1107 156.339 32.2393 156.855 32.7534 157.37Z" fill="#FBC890"></path><path d="M39.6952 159.175C40.2094 159.69 40.8521 159.819 41.1092 159.561C41.3663 159.303 41.2378 158.659 40.7236 158.144C40.2094 157.629 39.5666 157.5 39.3095 157.758C39.0524 158.015 39.3095 158.659 39.6952 159.175Z" fill="#FBC890"></path><path d="M51.3931 157.112C51.9073 157.627 52.55 157.756 52.8071 157.499C53.0642 157.241 52.9357 156.597 52.4215 156.082C51.9073 155.566 51.2645 155.438 51.0075 155.695C50.7504 156.082 50.8789 156.726 51.3931 157.112Z" fill="#FBC890"></path><path d="M68.8749 156.725C69.3891 157.241 70.0318 157.37 70.2889 157.112C70.546 156.854 70.4174 156.21 69.9033 155.695C69.3891 155.18 68.7463 155.051 68.4892 155.309C68.2321 155.566 68.4892 156.21 68.8749 156.725Z" fill="#FBC890"></path><path d="M75.0459 147.581C75.5601 148.096 76.2029 148.225 76.46 147.967C76.7171 147.71 76.5885 147.066 76.0743 146.55C75.5601 146.035 74.9174 145.906 74.6603 146.164C74.2746 146.422 74.5317 147.066 75.0459 147.581Z" fill="#FBC890"></path><path d="M85.33 154.925C85.8441 155.44 86.4869 155.569 86.744 155.311C87.0011 155.053 86.8725 154.409 86.3583 153.894C85.8441 153.379 85.2014 153.25 84.9443 153.508C84.6872 153.765 84.9443 154.409 85.33 154.925Z" fill="#FBC890"></path><path d="M88.6724 158.659C89.1866 159.174 89.8293 159.303 90.0864 159.045C90.3435 158.788 90.215 158.144 89.7008 157.629C89.1866 157.113 88.5438 156.984 88.2868 157.242C88.0297 157.5 88.1582 158.144 88.6724 158.659Z" fill="#FBC890"></path><path d="M93.2994 147.581C92.7852 148.096 92.1425 148.225 91.8854 147.967C91.6283 147.71 91.7568 147.066 92.271 146.55C92.7852 146.035 93.428 145.906 93.6851 146.164C93.9421 146.422 93.6851 147.066 93.2994 147.581Z" fill="#FBC890"></path><path d="M91.1139 152.862C90.5997 153.377 89.9569 153.506 89.6998 153.249C89.4427 152.991 89.5713 152.347 90.0855 151.832C90.5997 151.316 91.2424 151.188 91.4995 151.445C91.8852 151.703 91.6281 152.347 91.1139 152.862Z" fill="#FBC890"></path><path d="M95.7418 157.886C95.2276 158.401 94.5849 158.53 94.3278 158.272C94.0707 158.014 94.1992 157.37 94.7134 156.855C95.2276 156.34 95.8703 156.211 96.1274 156.469C96.3845 156.726 96.256 157.37 95.7418 157.886Z" fill="#FBC890"></path><path d="M74.9176 152.475C74.4034 152.991 73.7606 153.12 73.5035 152.862C73.2465 152.604 73.375 151.96 73.8892 151.445C74.4034 150.93 75.0461 150.801 75.3032 151.059C75.6889 151.316 75.4318 151.96 74.9176 152.475Z" fill="#FBC890"></path><path d="M57.4352 148.225C56.921 148.741 56.2782 148.87 56.0211 148.612C55.764 148.354 55.8926 147.71 56.4068 147.195C56.921 146.68 57.5637 146.551 57.8208 146.809C58.0779 147.066 57.9493 147.71 57.4352 148.225Z" fill="#FBC890"></path><path d="M48.565 155.698C48.0508 156.213 47.4081 156.342 47.151 156.085C46.8939 155.827 47.0225 155.183 47.5367 154.668C48.0508 154.152 48.6936 154.024 48.9507 154.281C49.2078 154.539 49.0792 155.183 48.565 155.698Z" fill="#FBC890"></path><path d="M56.7916 154.151C56.2774 154.667 55.6347 154.795 55.3776 154.538C55.1205 154.28 55.249 153.636 55.7632 153.121C56.2774 152.605 56.9202 152.477 57.1772 152.734C57.5629 153.121 57.3058 153.765 56.7916 154.151Z" fill="#FBC890"></path><path d="M38.6666 148.612C38.1524 149.127 37.5097 149.256 37.2526 148.999C36.9955 148.741 37.124 148.097 37.6382 147.582C38.1524 147.066 38.7951 146.938 39.0522 147.195C39.3093 147.453 39.1808 148.097 38.6666 148.612Z" fill="#FBC890"></path><path d="M31.3394 153.893C30.8253 154.409 30.1825 154.538 29.9254 154.28C29.6683 154.022 29.7969 153.378 30.3111 152.863C30.8253 152.348 31.468 152.219 31.7251 152.476C31.9822 152.734 31.8536 153.378 31.3394 153.893Z" fill="#FBC890"></path><path d="M38.6666 154.28C38.1524 154.795 37.5097 154.924 37.2526 154.667C36.9955 154.409 37.124 153.765 37.6382 153.25C38.1524 152.734 38.7951 152.606 39.0522 152.863C39.3093 153.121 39.1808 153.765 38.6666 154.28Z" fill="#FBC890"></path><path d="M70.5465 152.218C70.0323 152.733 69.3896 152.862 69.1325 152.604C68.8754 152.346 69.0039 151.702 69.5181 151.187C70.0323 150.672 70.675 150.543 70.9321 150.801C71.1892 151.058 71.0607 151.702 70.5465 152.218Z" fill="#FBC890"></path><path d="M65.1471 157.886C64.6329 158.401 63.9901 158.53 63.733 158.272C63.4759 158.014 63.6045 157.37 64.1187 156.855C64.6329 156.34 65.2756 156.211 65.5327 156.469C65.9184 156.726 65.6613 157.37 65.1471 157.886Z" fill="#FBC890"></path><path d="M114.512 19.5391C124.667 32.8069 131.48 56.6375 131.48 83.6884C131.48 125.424 115.411 159.173 95.7436 159.173C90.9873 159.173 86.4882 157.241 82.2461 153.634C87.7737 160.848 94.201 164.97 101.143 164.97C120.939 164.97 136.879 131.221 136.879 89.485C136.75 57.7968 127.495 30.7459 114.512 19.5391Z" fill="#E16B2E"></path><path d="M131.351 83.6883C131.351 56.6374 124.538 32.8068 114.383 19.539C110.269 15.9322 105.77 14 101.014 14C81.2173 14 65.2773 47.7492 65.2773 89.485C65.2773 116.536 72.0904 140.366 82.2457 153.634C86.3592 157.241 90.9869 159.173 95.7432 159.173C115.411 159.302 131.351 125.424 131.351 83.6883Z" fill="#EE8B3A"></path><path d="M94.7153 52.7718C105.128 46.0735 115.154 43.1108 117.211 46.2023C119.268 49.2938 112.455 57.2803 101.914 63.9786C91.373 70.6769 81.4748 73.6397 79.4181 70.5481C77.4898 67.4566 84.3029 59.4701 94.7153 52.7718Z" fill="#E16B2E"></path><path d="M95.3577 31.5175C103.842 25.9785 112.069 23.6598 113.74 26.1073C115.411 28.6836 109.755 35.1243 101.271 40.6633C92.7868 46.2023 84.5597 48.5209 82.8886 46.0734C81.2175 43.4972 86.8736 37.0565 95.3577 31.5175Z" fill="#E16B2E"></path><path d="M146.648 75.1875L140.092 80.7265L133.665 75.1875L126.852 182.747H133.15L146.648 75.1875Z" fill="#FEAE4E"></path><path d="M127.109 80.7265L120.553 75.1875L113.997 80.7265L107.569 75.1875L101.013 80.7265L94.4575 75.1875L87.9015 80.7265L81.4741 75.1875L74.9182 80.7265L68.3622 75.1875L61.8063 80.7265L55.3789 75.1875L69.2621 182.747H126.852L133.665 75.1875L127.109 80.7265Z" fill="#FEBD6F"></path><path d="M107.056 120.143C107.056 124.136 107.827 127.486 111.94 127.486H113.226V176.564C113.226 179.913 115.925 182.747 119.396 182.747H163.103C166.445 182.747 169.273 180.042 169.273 176.564V127.486H170.558C174.543 127.486 177.886 124.265 177.886 120.143C177.886 116.15 174.672 112.801 170.558 112.801H111.94C107.956 112.801 107.056 116.15 107.056 120.143Z" fill="#BA482A"></path><path d="M76.5898 120.143C76.5898 124.136 79.8035 127.486 83.9171 127.486H85.2026V176.564C85.2026 179.913 87.9021 182.747 91.3728 182.747H131.223C134.565 182.747 137.393 180.042 137.393 176.564V127.486H138.678C142.663 127.486 146.006 124.265 146.006 120.143C146.006 116.15 142.792 112.801 138.678 112.801H83.9171C79.8035 112.801 76.5898 116.15 76.5898 120.143Z" fill="#E16B2E"></path><path d="M91.2444 178.495C90.216 178.495 89.3162 177.593 89.3162 176.563V123.234H83.9172C82.2461 123.234 80.832 121.817 80.832 120.142C80.832 118.468 82.2461 117.051 83.9172 117.051H138.55C140.221 117.051 141.635 118.468 141.635 120.142C141.635 121.817 140.221 123.234 138.55 123.234H133.151V176.563C133.151 177.593 132.251 178.495 131.223 178.495H91.2444V178.495Z" fill="#EE8B42"></path><path d="M98.8282 133.54C99.9642 133.54 100.885 132.617 100.885 131.479C100.885 130.341 99.9642 129.418 98.8282 129.418C97.6923 129.418 96.7715 130.341 96.7715 131.479C96.7715 132.617 97.6923 133.54 98.8282 133.54Z" fill="#E16B2E"></path><path d="M126.081 167.416C126.081 168.576 125.181 169.478 124.025 169.478C122.868 169.478 121.968 168.576 121.968 167.416C121.968 166.257 122.868 165.355 124.025 165.355C125.181 165.355 126.081 166.257 126.081 167.416Z" fill="#E16B2E"></path><path d="M120.425 157.24C121.206 157.24 121.839 156.606 121.839 155.823C121.839 155.041 121.206 154.406 120.425 154.406C119.644 154.406 119.011 155.041 119.011 155.823C119.011 156.606 119.644 157.24 120.425 157.24Z" fill="#E16B2E"></path><path d="M96.6435 155.179C96.6435 155.952 96.0007 156.596 95.2295 156.596C94.4582 156.596 93.8154 155.952 93.8154 155.179C93.8154 154.406 94.4582 153.762 95.2295 153.762C96.1293 153.891 96.6435 154.535 96.6435 155.179Z" fill="#E16B2E"></path><path d="M123.125 138.051C124.687 138.051 125.953 136.782 125.953 135.217C125.953 133.652 124.687 132.383 123.125 132.383C121.563 132.383 120.297 133.652 120.297 135.217C120.297 136.782 121.563 138.051 123.125 138.051Z" fill="#E16B2E"></path><path d="M102.814 152.348C104.376 152.348 105.642 151.079 105.642 149.514C105.642 147.948 104.376 146.68 102.814 146.68C101.252 146.68 99.9863 147.948 99.9863 149.514C99.9863 151.079 101.252 152.348 102.814 152.348Z" fill="#E16B2E"></path><path d="M115.926 173.859C117.488 173.859 118.754 172.59 118.754 171.025C118.754 169.46 117.488 168.191 115.926 168.191C114.364 168.191 113.098 169.46 113.098 171.025C113.098 172.59 114.364 173.859 115.926 173.859Z" fill="#E16B2E"></path><path d="M111.298 123.491C111.298 124.264 110.655 124.908 109.884 124.908C109.112 124.908 108.47 124.264 108.47 123.491C108.47 122.718 109.112 122.074 109.884 122.074C110.655 122.074 111.298 122.718 111.298 123.491Z" fill="#E16B2E"></path><path d="M102.042 167.806C102.042 168.966 101.142 169.867 99.9855 169.867C98.8285 169.867 97.9287 168.966 97.9287 167.806C97.9287 166.647 98.8285 165.745 99.9855 165.745C101.142 165.616 102.042 166.647 102.042 167.806Z" fill="#E16B2E"></path><path fill-rule="evenodd" clip-rule="evenodd" d="M154.586 149.168C158.636 135.417 174.185 128.529 189.274 133.8C204.363 139.072 213.247 154.497 209.198 168.247C205.149 181.997 189.685 188.916 174.596 183.645C159.507 178.373 150.537 162.918 154.586 149.168Z" fill="#AA7733"></path><path fill-rule="evenodd" clip-rule="evenodd" d="M161.816 152.106C162.253 150.621 163.907 149.821 165.622 150.42C167.251 150.989 168.277 152.64 167.817 154.202C167.38 155.686 165.726 156.487 164.011 155.888C162.297 155.289 161.379 153.59 161.816 152.106Z" fill="#95591E"></path><path fill-rule="evenodd" clip-rule="evenodd" d="M155.767 156.71C156.204 155.225 157.836 154.502 159.466 155.071C161.095 155.641 162.122 157.292 161.662 158.856C161.225 160.34 159.57 161.141 157.855 160.542C156.248 159.895 155.33 158.195 155.767 156.71Z" fill="#95591E"></path><path fill-rule="evenodd" clip-rule="evenodd" d="M159.657 144.754C159.22 146.238 160.137 147.938 161.852 148.537C163.481 149.106 165.198 148.413 165.658 146.851C166.095 145.366 165.177 143.667 163.462 143.068C161.725 142.547 160.094 143.27 159.657 144.754Z" fill="#95591E"></path><path d="M170.223 142.935C169.811 143.049 169.52 142.431 169.933 142.316C175.118 140.766 180.179 141.242 185.22 144.037C185.625 144.265 185.27 144.83 184.864 144.602C180.081 141.897 175.214 141.403 170.223 142.935ZM157.405 163.018C157.325 162.646 157.932 162.513 158.097 162.916C159.513 168.064 162.355 171.901 166.818 174.408C167.224 174.636 166.868 175.201 166.462 174.973C161.828 172.406 158.751 168.401 157.405 163.018ZM162.213 167.887C161.939 167.533 162.42 167.184 162.717 167.46C166.902 172.197 171.815 176.068 177.717 176.579C178.169 176.65 178.179 177.257 177.705 177.264C171.608 176.771 166.438 172.81 162.213 167.887ZM161.998 159.625C161.724 159.27 162.291 158.951 162.565 159.306C165.618 163.389 170.299 165.8 175.49 167.441C175.919 167.591 175.735 168.216 175.306 168.066C170.029 166.395 165.177 163.924 161.998 159.625ZM165.978 156.706C165.573 156.478 165.82 155.961 166.248 156.111C169.844 157.712 173.307 159.439 176.639 161.292C177.045 161.52 176.775 162.115 176.369 161.887C172.952 160.004 169.488 158.277 165.978 156.706ZM169.262 152.941C168.811 152.869 168.823 152.184 169.275 152.256C175.709 153.211 182.605 154.844 187.478 158.529C187.86 158.835 187.442 159.292 187.059 158.986C182.397 155.548 175.61 153.866 169.262 152.941ZM166.347 148.389C165.935 148.504 165.667 147.807 166.165 147.722C170.411 146.792 174.569 147.125 178.386 149.579C178.792 149.807 178.436 150.372 178.031 150.144C174.276 147.798 170.376 147.556 166.347 148.389ZM165.256 140.855C165.055 141.215 164.369 140.976 164.593 140.537C166.643 135.824 171.307 134.437 176.952 134.858C177.404 134.929 177.415 135.536 176.94 135.543C171.575 135.133 167.214 136.454 165.256 140.855ZM183.998 149.471C183.523 149.477 183.427 148.84 183.902 148.834C190.018 148.299 196.07 151.189 201.521 155.162C201.903 155.468 201.485 155.925 201.102 155.619C195.715 151.754 189.919 148.954 183.998 149.471ZM178.822 138.786C178.347 138.792 178.251 138.155 178.64 138.119C186.335 137.36 193.201 139.414 198.729 145.051C199.026 145.327 198.608 145.784 198.225 145.478C192.846 139.979 186.322 138.045 178.822 138.786ZM194.791 146.864C194.362 146.714 194.632 146.119 195.06 146.269C199.404 148.217 203.564 150.791 205.783 154.496C206.034 154.929 205.405 155.14 205.217 154.815C202.952 151.266 198.963 148.752 194.791 146.864ZM205.012 150.693C204.738 150.339 205.39 150.05 205.579 150.374C208.072 154.434 209.592 158.585 209.47 162.851C209.441 163.272 208.795 163.219 208.738 162.768C208.923 158.609 207.465 154.567 205.012 150.693ZM168.441 178.853C168.035 178.625 168.305 178.03 168.711 178.258C174.328 181.341 181.097 184.05 186.407 182.717C186.819 182.602 187.11 183.221 186.698 183.336C181.147 184.844 174.293 182.104 168.441 178.853ZM174.132 172.051C173.727 171.823 174.082 171.258 174.488 171.486C179.39 174.75 184.615 176.92 189.993 176.644C190.467 176.638 190.564 177.275 190.089 177.281C184.517 177.575 179.121 175.345 174.132 172.051ZM174.758 163.824C174.353 163.596 174.708 163.031 175.114 163.259C181.342 167.158 187.699 169.982 194.538 171.165C194.99 171.237 194.891 171.892 194.44 171.82C187.6 170.637 181.073 167.754 174.758 163.824ZM187.007 163.018C186.601 162.79 186.957 162.225 187.362 162.453C192.671 165.945 198.142 167.598 203.865 166.15C204.277 166.035 204.544 166.732 204.155 166.769C198.238 168.235 192.486 166.57 187.007 163.018ZM191.981 157.689C191.552 157.539 191.736 156.914 192.165 157.064C197.551 158.687 203.181 161.085 206.211 165.246C206.485 165.601 205.919 165.92 205.645 165.565C202.631 161.668 197.195 159.252 191.981 157.689ZM191.078 173.921C190.65 173.771 190.748 173.116 191.177 173.266C197.123 174.912 202.266 174.468 205.751 170.343C206.037 170.012 206.569 170.456 206.282 170.787C202.728 175.147 197.282 175.657 191.078 173.921ZM190.168 181.187C189.716 181.115 189.729 180.43 190.181 180.502C194.807 181.17 198.693 179.856 201.981 177.041C202.331 176.818 202.776 177.232 202.49 177.563C199.07 180.505 194.966 181.915 190.168 181.187Z" fill="#95591E"></path><path fill-rule="evenodd" clip-rule="evenodd" d="M74.0129 193.609C72.5906 193.208 68.5901 190.275 66.901 188.586C63.5673 185.252 62.4116 181.429 63.5673 177.207C64.8564 173.562 68.3679 170.895 74.2796 171.028C80.1469 170.895 83.6585 173.562 84.9919 177.207C86.1032 181.429 84.9919 185.252 81.6582 188.586C79.9692 190.23 76.0132 193.164 74.5463 193.609C74.3241 193.653 74.2352 193.653 74.0129 193.609Z" fill="#AF5736"></path><path fill-rule="evenodd" clip-rule="evenodd" d="M74.2357 192.807C75.7914 192.718 79.3918 186.362 78.814 178.494C78.3695 173.961 76.9471 171.471 70.1463 172.449C67.3905 172.849 65.5681 174.583 64.6346 177.65C63.6123 181.384 64.4568 184.984 67.0793 187.695C70.1463 190.896 72.5022 192.585 74.2357 192.807Z" fill="#D46D44"></path><path fill-rule="evenodd" clip-rule="evenodd" d="M67.1683 175.163C66.0126 176.23 65.6126 177.386 65.3904 179.164C65.3015 179.919 65.3904 181.12 65.8348 182.009C66.4571 183.209 67.1683 183.342 67.3017 182.097C67.5239 180.497 67.8795 178.63 68.6796 177.608C70.502 175.43 68.324 174.23 67.1683 175.163Z" fill="#DD8359"></path><path d="M66.5901 174.406C66.6345 174.317 66.7679 174.317 66.8568 174.361C66.9457 174.406 67.2568 174.761 67.2124 174.85C64.0565 178.984 64.6343 184.051 68.1014 187.874C69.2571 189.118 70.4572 190.585 72.3241 191.963C71.4795 191.03 70.7683 189.874 70.1016 188.852C67.2124 185.562 67.8791 179.873 69.8349 175.295C69.8794 175.206 69.9683 175.117 70.0572 175.161C70.1461 175.206 70.1905 175.295 70.1905 175.384C68.6348 179.295 67.7902 185.385 70.3683 188.896C71.4795 190.585 72.813 192.097 74.4576 193.519L74.591 193.608C74.3687 193.652 74.2798 193.652 74.0576 193.608C74.0131 193.608 73.9243 193.563 73.8798 193.563C71.1239 191.652 69.0348 189.874 67.5235 188.229C63.9231 184.318 63.3008 178.673 66.5901 174.406Z" fill="#99452B"></path><path d="M77.258 175.382C77.2135 175.293 77.3024 175.16 77.3913 175.16C77.4802 175.115 77.8803 175.115 77.9247 175.249C78.4137 177.249 78.6804 179.116 78.7248 180.805C78.8582 184.228 77.4358 187.961 76.1023 191.073C75.7467 191.873 75.4355 192.495 75.1244 192.94C76.0578 192.362 76.9913 191.517 77.8358 190.495C78.9915 189.117 79.7027 187.25 80.6806 185.117C81.4362 182.983 81.614 181.249 81.3918 179.605C81.1251 177.827 80.725 176.227 79.5693 174.982C79.5249 174.893 79.5249 174.804 79.5693 174.715C79.6582 174.626 79.7471 174.671 79.836 174.715C81.0362 176.049 81.8363 177.605 82.103 179.471C82.3697 181.205 82.1474 183.161 81.3918 185.383C80.3694 187.561 79.3026 189.339 78.147 190.717C77.3469 191.695 76.4579 192.495 75.5689 193.117C75.1689 193.34 74.8577 193.473 74.591 193.562C74.3688 193.651 74.2354 193.651 74.0576 193.562L74.2354 193.429C74.7244 193.073 75.2578 192.228 75.8356 190.895C77.1691 187.872 78.2803 184.183 78.147 180.849C78.0581 179.205 77.7469 177.382 77.258 175.382Z" fill="#99452B"></path><path d="M71.6569 175.474C71.6569 175.385 71.7458 175.296 71.8791 175.296C71.968 175.296 72.0569 175.43 72.0125 175.519C71.3902 179.297 71.2568 182.408 71.6124 184.986C72.0569 187.12 72.5014 188.898 72.9904 190.32C73.4349 191.654 73.8793 192.676 74.3238 193.432C76.5463 192.232 78.3243 190.765 79.7022 189.031C81.0802 187.298 82.0136 185.253 82.5025 182.942C82.7248 181.119 82.6803 179.563 82.3247 178.274C81.9691 176.985 81.3913 175.919 80.5023 175.119C80.4134 175.03 80.4134 174.941 80.5023 174.852C80.5912 174.763 80.6801 174.763 80.769 174.852C81.7024 175.696 82.3247 176.808 82.6803 178.186C83.0359 179.519 83.0804 181.119 82.8581 182.986C82.3692 185.342 81.3913 187.431 79.9689 189.209C78.7688 190.72 77.2575 192.054 75.3906 193.209C75.0795 193.387 74.7683 193.521 74.5461 193.565C74.3238 193.609 74.2349 193.654 74.0127 193.609C73.5237 192.854 73.0348 191.787 72.5903 190.409C72.1014 188.942 71.6569 187.164 71.2124 185.031C70.8568 182.453 70.9901 179.252 71.6569 175.474Z" fill="#99452B"></path><path d="M73.0355 174.897C73.0355 174.808 73.1244 174.719 73.2578 174.719C73.3467 174.719 73.7023 174.852 73.7023 174.941C73.2133 178.586 73.1244 181.964 73.3022 185.075C73.48 188.009 73.5689 190.721 74.369 193.165C75.1691 191.521 75.7025 189.254 75.9247 186.409C76.1914 183.297 76.147 179.519 75.7469 175.03C75.7469 174.941 75.8358 174.852 75.9247 174.808C76.0136 174.808 76.1025 174.897 76.1025 174.985C76.5026 179.519 76.547 183.342 76.2803 186.453C76.0136 189.52 75.4358 191.876 74.5468 193.61C73.7023 191.032 73.2133 188.187 73.0355 185.075C72.3688 181.964 72.5466 178.586 73.0355 174.897Z" fill="#99452B"></path><path d="M66.5899 174.406C66.6344 174.317 66.7677 174.317 66.8566 174.361C66.9455 174.406 67.2567 174.761 67.2122 174.85C64.0563 178.984 64.6341 184.051 68.1012 187.874C69.2569 189.118 70.457 190.585 72.3239 191.963C71.4794 191.03 70.7682 189.874 70.1014 188.852C67.2122 185.562 67.8789 179.873 69.8347 175.295C69.8792 175.206 69.9681 175.117 70.057 175.161C70.1459 175.206 70.1903 175.295 70.1903 175.384C68.6346 179.295 67.7901 185.385 70.3681 188.896C71.2571 190.23 72.2794 191.474 73.4796 192.63C71.8794 192.097 69.7458 190.452 67.1233 187.74C63.8785 183.829 63.434 178.495 66.5899 174.406Z" fill="#BE5434"></path><path d="M77.2581 175.382C77.2136 175.293 77.3025 175.159 77.3914 175.159C77.4803 175.115 77.8804 175.115 77.9248 175.248C78.4138 177.249 78.6804 179.115 78.7249 180.804C78.8138 184.005 77.5692 187.561 76.3246 190.583C75.9246 191.25 75.5245 191.828 75.1689 192.184C75.3467 191.828 75.569 191.428 75.7468 190.939C77.0803 187.916 78.1915 184.227 78.0582 180.893C78.0582 179.204 77.747 177.382 77.2581 175.382Z" fill="#BE5434"></path><path d="M71.6573 175.475C71.6573 175.386 71.7462 175.297 71.8795 175.297C71.9684 175.297 72.0573 175.43 72.0129 175.519C71.3906 179.297 71.2572 182.409 71.6128 184.987C72.0573 187.12 72.5018 188.898 72.9908 190.321C73.3019 191.299 73.6575 192.099 73.9687 192.765C73.8353 192.721 73.6575 192.677 73.4797 192.632C73.1686 192.01 72.9019 191.299 72.6352 190.41C72.1462 188.943 71.7017 187.165 71.2573 185.031C70.8572 182.453 70.9906 179.253 71.6573 175.475Z" fill="#BE5434"></path><path d="M73.0352 174.897C73.0352 174.808 73.1241 174.719 73.2574 174.719C73.3463 174.719 73.7019 174.852 73.7019 174.941C73.213 178.586 73.1241 181.964 73.3019 185.075C73.4797 187.876 73.5686 190.454 74.2353 192.81C74.102 192.81 73.9686 192.765 73.8353 192.721C73.1685 190.409 72.724 187.876 72.5907 185.12C72.3684 181.964 72.5462 178.586 73.0352 174.897ZM74.5465 192.676C75.2132 191.076 75.6577 188.987 75.88 186.409C76.1466 183.297 76.1022 179.519 75.7022 175.03C75.7022 174.941 75.7911 174.852 75.88 174.808C75.9689 174.808 76.0577 174.897 76.0577 174.985C76.4578 179.519 76.5022 183.342 76.2355 186.453C76.0133 188.765 75.6577 190.721 75.0799 192.276C74.9021 192.454 74.7243 192.632 74.5465 192.676Z" fill="#BE5434"></path><path fill-rule="evenodd" clip-rule="evenodd" d="M74.2358 177.293C74.4136 177.516 74.6358 177.516 74.9025 177.293C75.0803 177.471 75.3026 177.471 75.4804 177.249C75.7026 177.471 75.9249 177.471 76.1916 177.205C76.5027 177.427 76.8139 177.382 77.0806 177.116C77.3473 177.338 77.5695 177.293 77.8362 176.982C78.2362 177.16 78.6363 177.071 78.9919 176.76C79.1697 176.982 79.3919 176.938 79.6142 176.627C79.9253 176.76 80.2365 176.671 80.5921 176.404C80.9032 176.582 81.1699 176.493 81.3477 176.182C81.7033 176.271 82.0144 176.138 82.2367 175.871C82.6367 175.96 82.9479 175.827 83.0812 175.471C83.5257 175.471 83.748 175.338 83.7924 175.071C83.748 175.027 83.748 174.982 83.7035 174.938V174.893C83.6591 174.849 83.6591 174.804 83.6146 174.804V174.76L83.5702 174.715L83.5257 174.627V174.582L83.4813 174.538L83.3924 174.449L83.3479 174.404V174.36L83.3035 174.271V174.226L83.259 174.315C83.2146 174.271 83.2146 174.271 83.1701 174.226L83.1257 174.182V174.138L83.0368 174.049L82.9923 174.004V173.96C82.9479 173.915 82.9034 173.915 82.9034 173.871H82.859L82.8145 173.826L82.7256 173.738L82.6812 173.693H82.6367L82.5923 173.649L82.5034 173.56L82.4589 173.515L82.37 173.471C80.4143 172.093 77.7473 171.293 74.2358 171.382C70.7243 171.293 68.0573 172.093 66.1016 173.471L66.0127 173.515L65.9238 173.56L65.8793 173.604C65.8349 173.649 65.8349 173.649 65.7904 173.693L65.7015 173.738L65.746 173.826L65.7015 173.871L65.6571 173.915L65.6126 173.96L65.5237 174.049H65.4793L65.4348 174.093C65.3904 174.138 65.3904 174.138 65.3459 174.182L65.3015 174.226C65.3015 174.226 65.3015 174.271 65.257 174.315V174.36C65.2126 174.404 65.2126 174.449 65.1681 174.449V174.493C65.1237 174.538 65.1237 174.582 65.0792 174.582L65.0348 174.627C64.9903 174.671 64.9903 174.715 64.9459 174.76H64.9014C64.857 174.804 64.857 174.849 64.8125 174.849V174.893C64.7681 174.938 64.7681 174.982 64.7236 175.027C64.7681 175.293 64.9903 175.427 65.4348 175.427C65.6126 175.827 65.8793 175.96 66.2794 175.827C66.5016 176.093 66.7683 176.227 67.1683 176.138C67.3461 176.449 67.6128 176.538 67.924 176.36C68.2796 176.671 68.6352 176.716 68.9019 176.582C69.1241 176.893 69.3464 176.938 69.5242 176.716C69.8798 177.027 70.2798 177.116 70.6799 176.938C70.9465 177.205 71.2132 177.249 71.4355 177.071C71.7022 177.382 71.9689 177.382 72.3245 177.16C72.5467 177.427 72.8134 177.471 73.0357 177.205C73.2579 177.427 73.4802 177.427 73.658 177.249C73.8358 177.516 74.058 177.516 74.2358 177.293Z" fill="#9A432B"></path><path fill-rule="evenodd" clip-rule="evenodd" d="M74.2356 177.296C74.4133 177.519 74.6356 177.519 74.9023 177.296C75.0801 177.474 75.3023 177.474 75.4801 177.252C75.7024 177.474 75.9246 177.474 76.1913 177.207C76.5025 177.43 76.8136 177.385 77.0803 177.119C77.347 177.341 77.5693 177.296 77.836 176.985C78.1026 177.119 78.3249 177.119 78.5916 177.03C77.9249 173.474 76.1469 171.607 70.1018 172.451C68.0571 172.762 66.5014 173.785 65.4346 175.607C65.6124 175.874 65.8791 175.963 66.1902 175.874C66.4125 176.141 66.6792 176.274 67.0792 176.185C67.257 176.496 67.5237 176.585 67.8348 176.407C68.1904 176.718 68.546 176.763 68.8127 176.63C69.035 176.941 69.2572 176.985 69.435 176.763C69.7906 177.074 70.1907 177.163 70.5907 176.985C70.8574 177.252 71.1241 177.296 71.3463 177.119C71.613 177.43 71.8797 177.43 72.2353 177.207C72.4576 177.474 72.7243 177.519 72.9465 177.252C73.1688 177.474 73.391 177.474 73.5688 177.296C73.8355 177.519 74.0578 177.519 74.2356 177.296Z" fill="#AC4A2E"></path><path fill-rule="evenodd" clip-rule="evenodd" d="M74.2352 176.939C74.413 177.162 74.6352 177.162 74.8575 176.939C75.0353 177.117 75.2131 177.117 75.4353 176.895C75.6575 177.117 75.8798 177.117 76.102 176.85C76.4132 177.073 76.6799 177.028 76.9466 176.762C77.1688 176.984 77.3911 176.939 77.6578 176.628C78.0578 176.806 78.4134 176.717 78.769 176.406C78.9468 176.628 79.1246 176.584 79.3468 176.273C79.6135 176.406 79.9247 176.317 80.2803 176.05C80.5914 176.228 80.8137 176.139 80.9915 175.828C81.3471 175.917 81.6138 175.784 81.836 175.517C82.2361 175.606 82.5028 175.473 82.6361 175.117C83.1695 175.117 83.3917 174.895 83.3028 174.406C81.4804 172.272 78.4579 170.939 74.2352 171.028C70.0125 170.939 66.9899 172.272 65.1675 174.406C65.0786 174.895 65.3008 175.117 65.8342 175.117C66.012 175.517 66.2787 175.65 66.6343 175.517C66.8566 175.784 67.1233 175.917 67.4789 175.828C67.6567 176.139 67.8789 176.228 68.19 176.05C68.5456 176.362 68.8568 176.45 69.1235 176.273C69.3457 176.584 69.5235 176.628 69.7013 176.406C70.0569 176.717 70.4125 176.806 70.8126 176.628C71.0793 176.895 71.3015 176.939 71.5238 176.762C71.7904 177.073 72.0571 177.073 72.3683 176.85C72.5905 177.117 72.8128 177.162 73.035 176.895C73.2573 177.117 73.4351 177.117 73.6129 176.939C73.8796 177.162 74.0574 177.206 74.2352 176.939Z" fill="#DC9B66"></path><path fill-rule="evenodd" clip-rule="evenodd" d="M74.2359 176.942C74.4137 177.164 74.636 177.164 74.8582 176.942C75.036 177.119 75.2138 177.119 75.4361 176.897C75.6583 177.119 75.8806 177.119 76.1028 176.853C76.414 177.075 76.6806 177.03 76.9473 176.764C77.1696 176.986 77.3918 176.942 77.6585 176.63C77.9697 176.764 78.2364 176.764 78.5031 176.586C77.7919 173.297 75.925 171.608 70.1021 172.408C68.2353 172.674 66.7684 173.563 65.7461 175.075H65.7905C65.9683 175.475 66.235 175.608 66.5906 175.475C66.8129 175.741 67.0796 175.875 67.4352 175.786C67.613 176.097 67.8352 176.186 68.1464 176.008C68.502 176.319 68.8131 176.408 69.0798 176.23C69.302 176.541 69.4798 176.586 69.6576 176.364C70.0132 176.675 70.3688 176.764 70.7689 176.586C71.0356 176.853 71.2578 176.897 71.4801 176.719C71.7468 177.03 72.0135 177.03 72.3246 176.808C72.5469 177.075 72.7691 177.119 72.9913 176.853C73.2136 177.075 73.3914 177.075 73.5692 176.897C73.8803 177.164 74.0581 177.208 74.2359 176.942Z" fill="#E9A76D"></path><path fill-rule="evenodd" clip-rule="evenodd" d="M66.4121 176.005C66.5899 176.182 66.8566 176.227 67.1233 176.182C67.3011 176.494 67.5678 176.582 67.8789 176.405C68.2345 176.716 68.5901 176.76 68.8568 176.627C68.9457 176.76 69.0346 176.849 69.1235 176.894C70.0125 175.205 68.1456 174.36 67.1233 175.16C66.8566 175.427 66.5899 175.693 66.4121 176.005Z" fill="#BC6243"></path><path fill-rule="evenodd" clip-rule="evenodd" d="M66.7236 175.605C66.9014 175.827 67.1681 175.916 67.4793 175.827C67.6571 176.138 67.8793 176.227 68.1905 176.049C68.5461 176.36 68.8572 176.449 69.1239 176.271C69.1683 176.36 69.2128 176.405 69.2572 176.449C69.7017 175.027 68.0571 174.36 67.1237 175.116C66.9903 175.293 66.857 175.427 66.7236 175.605Z" fill="#EDB87F"></path><path fill-rule="evenodd" clip-rule="evenodd" d="M59.4777 187.695C58.0997 187.339 54.1437 184.45 52.4991 182.805C49.2543 179.516 48.0986 175.827 49.2543 171.693C50.5433 168.092 52.8992 164.759 58.1886 166.225C60.1 165.781 62.278 165.87 63.8782 166.626C67.5675 165.114 69.301 169.204 70.19 171.693C71.2568 175.827 70.19 179.56 66.9452 182.805C65.345 184.45 61.4779 187.25 60.0555 187.695C59.8333 187.783 59.6999 187.783 59.4777 187.695Z" fill="#E6C6A7"></path><path fill-rule="evenodd" clip-rule="evenodd" d="M63.8335 166.627C65.9671 168.894 66.9894 171.472 66.9449 174.406C66.5004 177.473 64.1002 181.918 59.7441 187.741C59.833 187.741 59.9219 187.741 60.0108 187.696C61.4777 187.252 65.3003 184.451 66.9005 182.807C70.1453 179.517 71.2121 175.828 70.1453 171.694C69.3008 169.205 67.5672 165.116 63.8335 166.627Z" fill="#E6C6A7"></path><path fill-rule="evenodd" clip-rule="evenodd" d="M59.8331 185.96C61.7444 181.338 62.9001 177.248 63.3446 173.737C63.478 169.114 62.2334 166.714 59.4775 166.625C57.4328 166.625 55.0326 168.403 54.4547 170.359C52.7656 175.959 54.2769 181.16 58.9886 186.005C59.3886 186.405 59.6998 186.405 59.8331 185.96Z" fill="#F5D7BA"></path><path fill-rule="evenodd" clip-rule="evenodd" d="M58.1881 166.225C54.4544 167.381 52.7209 170.582 53.032 175.738C53.2098 179.205 55.4767 183.205 59.7883 187.739C59.6994 187.739 59.6105 187.739 59.5216 187.695C58.1437 187.339 54.1877 184.45 52.5431 182.805C49.2982 179.516 48.1426 175.827 49.2982 171.693C50.5428 168.092 52.8986 164.759 58.1881 166.225Z" fill="#F5D7BA"></path><path fill-rule="evenodd" clip-rule="evenodd" d="M54.1435 179.559C55.0325 181.515 56.8993 184.271 59.7886 187.738C58.544 186.76 54.588 182.315 53.4767 179.426C52.2322 176.048 52.6322 171.914 53.5656 169.736C54.3657 167.914 55.9215 166.669 58.1884 166.18C58.544 166.091 58.7662 166.047 58.7662 166.047C56.1882 167.158 54.6324 168.536 54.099 170.181C53.1212 173.47 53.1212 176.626 54.1435 179.559Z" fill="#D9B69A"></path><path fill-rule="evenodd" clip-rule="evenodd" d="M65.3448 179.873C62.8111 184.007 60.9443 186.63 59.7441 187.785C64.3224 179.562 70.2786 175.117 63.8335 166.672C67.4783 170.05 68.3673 174.273 65.3448 179.873Z" fill="#CEA98C"></path><path fill-rule="evenodd" clip-rule="evenodd" d="M56.0107 175.87C56.5441 174.269 57.0775 173.203 57.7442 171.958C59.0332 169.513 58.811 168.135 57.8331 167.958C56.4107 167.735 55.4328 169.38 54.9439 172.047C54.3216 175.825 55.4773 178.136 56.0107 175.87Z" fill="#FAEADB"></path><path fill-rule="evenodd" clip-rule="evenodd" d="M51.7879 195.516C55.6994 196.36 59.3887 196.049 62.4113 194.938C63.4781 194.538 67.4785 192.627 67.6563 191.693C68.0119 190.804 65.7005 187.026 65.0338 186.093C63.1225 183.515 60.1888 181.203 56.4995 179.736C51.1656 177.781 45.1205 177.869 43.0758 184.181C41.0311 190.671 46.2762 194.271 51.7879 195.516Z" fill="#BF6831"></path><path fill-rule="evenodd" clip-rule="evenodd" d="M45.075 184.094C46.6752 179.826 51.9646 178.849 58.3209 181.782C63.1214 184.405 66.9885 189.561 66.4996 190.983C66.1884 192.094 61.2546 192.317 53.5648 191.383C46.8085 190.183 44.1415 187.249 45.075 184.094Z" fill="#DF8B3F"></path><path fill-rule="evenodd" clip-rule="evenodd" d="M62.4109 186.76C63.8777 187.916 64.2333 187.916 63.4332 186.715C61.1663 183.826 58.6327 182.626 57.9215 183.426C57.5215 184.004 57.6993 184.449 58.4105 184.671C60.0551 185.293 61.3886 186.004 62.4109 186.76Z" fill="#E8AA70"></path><path d="M42.7197 187.869C42.8531 187.825 42.9864 187.825 43.0309 187.913C43.4754 188.314 43.831 188.936 44.3199 189.069C45.1644 189.291 46.0534 188.491 46.7646 188.802C47.7425 189.291 46.9869 189.958 48.1426 190.047C48.7204 190.136 49.3427 190.18 49.8761 190.892H49.9205C50.5428 191.958 52.3208 191.736 53.9654 191.603C55.5212 191.469 56.4101 191.469 57.9659 191.781C58.6771 191.914 59.4772 192.047 60.3217 192.27C60.7662 192.358 60.6328 192.625 60.1883 192.536C59.3438 192.314 58.5437 192.536 57.877 192.403C57.0324 192.27 54.7211 191.914 54.0099 191.958C52.1874 192.181 50.1872 192.67 49.3871 191.247C49.0315 190.803 48.6315 190.492 48.187 190.447C46.3646 190.314 47.1202 189.78 46.409 189.425C46.009 189.247 45.0755 189.647 44.1866 189.425C43.7421 189.291 43.2531 189.025 42.8086 188.669C42.8086 188.402 42.7197 188.136 42.7197 187.869Z" fill="#8D4725"></path><path d="M42.8082 188.094C42.7637 188.094 42.7637 188.094 42.7193 188.05C42.6748 187.872 42.6748 187.65 42.6748 187.428C42.6748 187.383 42.7193 187.383 42.7193 187.383C43.3415 187.339 43.9194 187.294 44.5417 187.339C45.164 187.383 45.6529 187.828 46.2752 187.961C46.6753 188.094 46.6308 188.406 46.1863 188.317C45.6085 188.139 45.0751 188.05 44.4972 188.005C43.9194 187.961 43.3415 188.005 42.8082 188.094Z" fill="#8D4725"></path><path d="M42.8976 187.513C42.8087 187.558 42.7198 187.602 42.6309 187.558C42.6309 187.336 42.6309 187.158 42.6309 186.891C43.5643 186.269 44.4977 185.869 45.4312 185.691C47.4314 185.202 47.5647 185.913 49.076 186.18C49.3872 186.224 49.8317 186.402 50.1428 186.402C50.5873 186.402 50.6318 186.713 50.1873 186.713C49.8317 186.713 49.4761 186.713 49.1205 186.624C47.6981 186.358 47.0314 185.602 45.3867 186.002C44.5422 186.224 43.831 186.935 42.8976 187.513Z" fill="#8D4725"></path><path d="M45.8755 187.161C45.4755 187.161 45.431 186.895 45.8755 186.895C46.6756 186.939 47.2979 186.806 47.8757 187.072C48.498 187.339 49.0314 187.65 49.387 188.184C49.6093 188.406 49.6537 188.895 49.9204 189.028C50.8094 189.339 51.6984 188.539 52.6763 188.628C53.2097 188.673 53.7875 188.806 54.4098 189.073C55.1654 189.339 55.7433 189.873 56.41 190.006C57.0768 190.139 57.8769 189.828 58.4991 189.828C59.966 189.606 60.6772 190.673 62.0551 191.073C62.6774 191.251 63.2997 191.473 63.9664 191.473C64.1442 191.473 64.3665 191.295 64.3665 191.473C64.3665 191.695 64.2331 191.828 64.0553 191.828C63.3441 191.828 62.6329 191.74 61.9662 191.562C60.8105 191.251 59.8326 190.317 58.588 190.495C58.588 190.495 58.5436 190.539 58.4991 190.495C57.8324 190.495 57.1212 190.45 56.41 190.317C55.6988 190.184 54.9432 189.962 54.1876 189.695C53.6097 189.473 53.0763 189.339 52.6318 189.295C51.4761 189.206 51.1205 189.784 49.876 189.339C49.4759 189.206 49.1203 188.984 48.8981 188.628H48.8536C48.5425 188.184 48.1424 187.828 47.6535 187.606C47.1201 187.295 46.5423 187.161 45.8755 187.161Z" fill="#8D4725"></path><path d="M49.6535 187.514C49.4757 187.469 49.3868 187.247 49.4312 187.114C49.4757 186.936 49.6979 187.114 49.8757 187.158C50.2313 187.247 50.498 187.025 50.8092 187.025C51.1203 187.025 51.4315 186.98 51.7426 186.847C52.0982 186.758 52.4538 186.713 52.8983 186.802C54.3207 186.98 56.1876 188.358 57.4321 188.358C57.6099 188.358 57.9655 188.269 57.9211 188.491C57.9211 188.669 57.7877 188.847 57.5655 188.803C56.9432 188.803 56.3209 188.714 55.6986 188.536C54.6763 188.269 53.9206 187.38 52.8983 187.202C52.5427 187.158 52.1871 187.425 51.9649 187.514H51.9204C51.5648 187.602 51.2092 187.691 50.8092 187.691C50.4091 187.691 50.0535 187.647 49.6535 187.514Z" fill="#8D4725"></path><path d="M43.5191 186.315C43.3413 186.448 43.1635 186.359 43.0746 186.226C42.9413 186.093 42.9857 185.87 43.1635 185.781C44.6748 184.626 46.3194 184.181 48.0085 183.87C50.7199 183.381 52.0978 183.737 54.4537 184.048C54.8537 184.137 55.2537 184.137 55.6538 184.181C56.0983 184.137 56.4094 183.959 56.9428 184.137C57.4762 184.27 58.2319 184.759 58.8541 185.115C59.9209 185.515 61.0766 186.093 62.2767 186.893C62.8546 187.293 66.6772 189.915 66.1883 190.493C66.0994 190.538 65.7882 190.182 65.6549 190.049C64.3214 188.804 63.1213 188.226 61.9212 187.471C60.6766 186.626 59.6542 186.359 58.4985 185.693C57.9207 185.337 57.3429 185.115 56.8984 184.981C56.5428 184.892 55.8316 185.026 55.476 185.026C55.0315 184.981 54.7203 184.759 54.3203 184.715C52.0534 184.404 50.7644 183.692 48.0974 184.226C46.4972 184.581 44.9859 185.248 43.5191 186.315Z" fill="#8D4725"></path><path d="M47.7868 185.071C47.609 185.071 47.2979 185.249 47.209 185.071C47.209 184.894 47.2979 184.716 47.5201 184.716C48.3647 184.582 49.2092 184.582 50.0093 184.671C52.8541 185.027 52.2318 185.783 54.5431 186.583C55.2543 186.849 56.0544 186.983 56.5434 187.027C56.7212 187.027 56.9434 187.027 56.9434 187.205C56.899 187.383 56.6767 187.249 56.4989 187.249C55.9211 187.205 55.3432 187.338 54.5431 187.027C52.943 186.494 51.6095 185.56 49.9204 185.338C49.2092 185.249 48.6314 184.938 47.7868 185.071Z" fill="#8D4725"></path><path d="M44.5425 183.648C44.3647 183.737 44.1869 183.692 44.098 183.515C44.0091 183.381 44.0536 183.159 44.1869 183.07C46.1427 181.959 48.2318 181.425 50.4987 181.381C52.7212 181.337 54.8992 182.003 57.4328 183.07C57.6106 183.115 57.8773 183.159 57.7884 183.337C57.744 183.515 57.5217 183.559 57.3439 183.515C54.8992 182.492 52.5878 182.003 50.4987 182.048C48.3207 182.048 46.3649 182.626 44.5425 183.648Z" fill="#8D4725"></path><path d="M58.7658 183.068C58.588 183.024 58.4991 182.846 58.5436 182.668C58.588 182.49 58.8991 182.624 59.0769 182.668C59.8326 182.846 60.4104 182.89 60.9883 183.201C61.5661 183.557 61.8328 184.001 62.1884 184.49C62.3218 184.624 62.544 184.802 62.4107 184.89C62.2773 185.024 62.0995 184.802 61.9662 184.668C61.6106 184.268 61.1661 184.09 60.6327 183.779C60.0993 183.468 59.477 183.246 58.7658 183.068Z" fill="#8D4725"></path><path d="M58.8986 187.869C58.7208 187.824 58.6319 187.647 58.6764 187.469C58.7208 187.291 58.8542 187.424 59.032 187.469C59.8765 187.735 60.8544 187.824 61.6989 188.091C61.8767 188.136 61.9656 188.358 61.8767 188.491C61.8323 188.669 61.5656 188.58 61.3433 188.491C60.8988 188.313 60.4543 188.58 60.0098 188.447C59.6098 188.313 59.2987 188.002 58.8986 187.869Z" fill="#8D4725"></path><path d="M54.1874 194.36C54.0096 194.36 53.8763 194.182 53.9207 193.96C53.9207 193.782 54.2763 193.96 54.4986 194.005C55.432 194.182 56.0543 193.871 57.0322 194.005C58.1879 194.138 59.5658 194.227 60.7215 193.916C60.8993 193.871 61.2104 193.56 61.2549 193.738C61.3438 193.916 61.2104 194.094 61.0771 194.182C58.8102 194.849 56.4543 194.76 54.1874 194.36Z" fill="#8D4725"></path><path d="M50.0983 193.026C50.2761 193.071 50.365 193.249 50.3205 193.426C50.2761 193.604 50.0094 193.382 49.7871 193.293C48.987 193.026 48.4092 193.071 47.8758 192.804C47.298 192.449 46.8979 192.137 46.6312 191.782C46.5423 191.649 46.5868 191.426 46.7201 191.337C46.8535 191.248 47.1202 191.826 47.2535 191.96C47.7869 192.715 49.2093 192.715 50.0983 193.026Z" fill="#8D4725"></path><path d="M55.0312 191.515C55.9647 191.471 56.7648 191.56 57.9205 191.737L58.1872 191.782C57.2093 191.737 56.1425 191.649 55.0312 191.515Z" fill="#9A5429"></path><path d="M45.8311 187.824C45.9644 187.913 46.0978 187.958 46.2755 188.002C46.6756 188.091 46.6311 188.402 46.2755 188.313C46.0978 188.135 45.9644 188.002 45.8311 187.824Z" fill="#9A5429"></path><path d="M44.9414 185.827C45.1192 185.782 45.2526 185.738 45.4303 185.738C47.4306 185.249 47.5639 185.96 49.0752 186.227C49.3863 186.271 49.8308 186.449 50.142 186.449C50.5865 186.449 50.6309 186.76 50.1864 186.76C49.8308 186.76 49.4752 186.76 49.1196 186.671C47.6973 186.404 47.0305 185.649 45.3859 186.049C45.2526 186.093 45.1192 186.093 44.9859 186.182C44.9859 186.049 44.9414 185.916 44.9414 185.827Z" fill="#9A5429"></path><path d="M45.8755 187.161C45.4755 187.161 45.431 186.895 45.8755 186.895C46.6756 186.939 47.2979 186.806 47.8757 187.072C48.498 187.339 49.0314 187.65 49.387 188.184C49.6093 188.406 49.6537 188.895 49.9204 189.028C50.8094 189.339 51.6984 188.539 52.6763 188.628C53.2097 188.673 53.7875 188.806 54.4098 189.073C55.1654 189.339 55.7433 189.873 56.41 190.006C57.0768 190.139 57.8769 189.828 58.4991 189.828C59.966 189.606 60.6772 190.673 62.0551 191.073C62.6774 191.251 63.2997 191.473 63.9664 191.473C64.1442 191.473 64.3665 191.295 64.3665 191.473C64.3665 191.695 64.2331 191.828 64.0553 191.828C63.3441 191.828 62.6329 191.74 61.9662 191.562C60.8105 191.251 59.8326 190.317 58.588 190.495C58.588 190.495 58.5436 190.539 58.4991 190.495C57.8324 190.495 57.1212 190.45 56.41 190.317C55.6988 190.184 54.9432 189.962 54.1876 189.695C53.6097 189.473 53.0763 189.339 52.6318 189.295C51.4761 189.206 51.1205 189.784 49.876 189.339C49.4759 189.206 49.1203 188.984 48.8981 188.628H48.8536C48.5425 188.184 48.1424 187.828 47.6535 187.606C47.1201 187.295 46.5423 187.161 45.8755 187.161Z" fill="#9A5429"></path><path d="M49.6535 187.514C49.4757 187.469 49.3868 187.247 49.4312 187.114C49.4757 186.936 49.6979 187.114 49.8757 187.158C50.2313 187.247 50.498 187.025 50.8092 187.025C51.1203 187.025 51.4315 186.98 51.7426 186.847C52.0982 186.758 52.4538 186.713 52.8983 186.802C54.3207 186.98 56.1876 188.358 57.4321 188.358C57.6099 188.358 57.9655 188.269 57.9211 188.491C57.9211 188.669 57.7877 188.847 57.5655 188.803C56.9432 188.803 56.3209 188.714 55.6986 188.536C54.6763 188.269 53.9206 187.38 52.8983 187.202C52.5427 187.158 52.1871 187.425 51.9649 187.514H51.9204C51.5648 187.602 51.2092 187.691 50.8092 187.691C50.4091 187.691 50.0535 187.647 49.6535 187.514Z" fill="#9A5429"></path><path d="M44.9424 184.759C45.9203 184.315 46.8982 184.092 47.9205 183.87C50.6319 183.381 52.0099 183.737 54.3657 184.048C54.7657 184.137 55.1658 184.137 55.5658 184.181C56.0103 184.137 56.3215 183.959 56.8549 184.137C57.3882 184.27 58.1439 184.759 58.7662 185.115C59.833 185.515 60.9886 186.093 62.1888 186.893C62.7666 187.293 66.5893 189.915 66.1003 190.493C66.0114 190.538 65.7003 190.182 65.5669 190.049C64.2335 188.804 63.0333 188.226 61.8332 187.471C60.5886 186.626 59.5663 186.359 58.4106 185.693C57.8327 185.337 57.2549 185.115 56.8104 184.981C56.4548 184.892 55.7436 185.026 55.388 185.026C54.9435 184.981 54.6324 184.759 54.2323 184.715C51.9654 184.404 50.6764 183.692 48.0094 184.226C46.8982 184.448 45.8759 184.804 44.8535 185.426C44.898 185.204 44.9424 184.981 44.9424 184.759Z" fill="#9A5429"></path><path d="M47.7868 185.071C47.609 185.071 47.2979 185.249 47.209 185.071C47.209 184.894 47.2979 184.716 47.5201 184.716C48.3647 184.582 49.2092 184.582 50.0093 184.671C52.8541 185.027 52.2318 185.783 54.5431 186.583C55.2543 186.849 56.0544 186.983 56.5434 187.027C56.7212 187.027 56.9434 187.027 56.9434 187.205C56.899 187.383 56.6767 187.249 56.4989 187.249C55.9211 187.205 55.3432 187.338 54.5431 187.027C52.943 186.494 51.6095 185.56 49.9204 185.338C49.2092 185.249 48.6314 184.938 47.7868 185.071Z" fill="#9A5429"></path><path d="M46.2756 182.094C47.6091 181.649 49.0315 181.382 50.4983 181.338C52.7208 181.294 54.8988 181.96 57.4324 183.027C57.6102 183.072 57.8769 183.116 57.788 183.294C57.7436 183.472 57.5213 183.516 57.3435 183.472C54.8988 182.449 52.5875 181.96 50.4983 182.005C48.7648 182.049 47.0757 182.405 45.5645 183.116C45.7867 182.76 46.0089 182.405 46.2756 182.094Z" fill="#9A5429"></path><path d="M58.7658 183.068C58.588 183.024 58.4991 182.846 58.5436 182.668C58.588 182.49 58.8991 182.624 59.0769 182.668C59.5214 182.757 59.8326 182.846 60.1437 182.89C60.9438 183.468 61.7439 184.09 62.4107 184.757C62.4551 184.846 62.4551 184.89 62.4107 184.935C62.2773 185.068 62.0995 184.846 61.9662 184.713C61.6106 184.313 61.1661 184.135 60.6327 183.824C60.0993 183.468 59.477 183.246 58.7658 183.068Z" fill="#9A5429"></path><path d="M58.8986 187.869C58.7208 187.824 58.6319 187.647 58.6764 187.469C58.7208 187.291 58.8542 187.424 59.032 187.469C59.8765 187.735 60.8544 187.824 61.6989 188.091C61.8767 188.136 61.9656 188.358 61.8767 188.491C61.8323 188.669 61.5656 188.58 61.3433 188.491C60.8988 188.313 60.4543 188.58 60.0098 188.447C59.6098 188.313 59.2987 188.002 58.8986 187.869Z" fill="#9A5429"></path><path d="M18.654 50.168C18.094 50.168 17.59 50.0793 17.142 49.902C16.694 49.7247 16.3393 49.4633 16.078 49.118C15.8167 48.7727 15.686 48.3573 15.686 47.872C15.686 47.3867 15.8073 46.962 16.05 46.598C16.302 46.234 16.6987 45.954 17.24 45.758V42.244H24.562V43.252H21.944V45.408C22.7093 45.4267 23.386 45.5433 23.974 45.758C24.5713 45.9633 25.038 46.2993 25.374 46.766C25.71 47.2327 25.878 47.8533 25.878 48.628C25.878 49.2533 25.7613 49.776 25.528 50.196C25.2947 50.6253 24.9633 50.9987 24.534 51.316C24.0767 51.6427 23.5213 51.8667 22.868 51.988C22.224 52.1187 21.398 52.184 20.39 52.184H18.808C18.416 52.184 18.1127 52.212 17.898 52.268C17.6833 52.324 17.4967 52.4033 17.338 52.506C17.1887 52.6087 17.072 52.7533 16.988 52.94C16.904 53.1267 16.862 53.374 16.862 53.682C16.862 53.962 16.876 54.214 16.904 54.438L15.756 54.494C15.728 54.326 15.7047 54.1393 15.686 53.934C15.6673 53.738 15.658 53.5607 15.658 53.402C15.658 52.9913 15.7327 52.6413 15.882 52.352C16.0313 52.072 16.2227 51.8433 16.456 51.666C16.6987 51.4887 16.9693 51.3627 17.268 51.288C17.576 51.2133 17.9633 51.176 18.43 51.176H19.956C20.7867 51.176 21.468 51.1387 22 51.064C22.532 50.9987 22.9613 50.8913 23.288 50.742C23.6147 50.602 23.8853 50.4153 24.1 50.182C24.4827 49.7713 24.674 49.2207 24.674 48.53C24.674 47.9793 24.5433 47.5547 24.282 47.256C24.0207 46.948 23.68 46.7333 23.26 46.612C22.84 46.4907 22.4013 46.4207 21.944 46.402V46.836C21.944 47.4613 21.888 47.9513 21.776 48.306C21.6733 48.6607 21.524 48.9593 21.328 49.202C21.0387 49.5567 20.6653 49.8087 20.208 49.958C19.76 50.098 19.242 50.168 18.654 50.168ZM18.346 43.252V45.492C18.738 45.436 19.172 45.408 19.648 45.408H20.754V43.252H18.346ZM16.89 47.858C16.89 48.2873 17.0673 48.614 17.422 48.838C17.7767 49.0527 18.2247 49.16 18.766 49.16C19.1767 49.16 19.5267 49.0993 19.816 48.978C20.1147 48.8473 20.3433 48.628 20.502 48.32C20.67 48.0027 20.754 47.5687 20.754 47.018V46.388H19.55C19.074 46.388 18.668 46.416 18.332 46.472C18.0053 46.528 17.7253 46.6213 17.492 46.752C17.0907 46.9853 16.89 47.354 16.89 47.858ZM30.0387 50.168C29.5441 50.168 29.0914 50.0467 28.6807 49.804C28.2701 49.552 27.9434 49.1647 27.7007 48.642C27.4674 48.1193 27.3507 47.438 27.3507 46.598C27.3507 45.5993 27.5467 44.764 27.9387 44.092C28.3401 43.42 28.8674 42.916 29.5207 42.58C30.1741 42.244 30.8834 42.076 31.6487 42.076C32.6007 42.076 33.3707 42.258 33.9587 42.622C34.5467 42.986 34.9761 43.4713 35.2467 44.078C35.5267 44.6753 35.6667 45.3427 35.6667 46.08C35.6667 46.6773 35.6014 47.2093 35.4707 47.676C35.3401 48.1427 35.1814 48.5813 34.9947 48.992H38.7327V42.244H39.9367V50H33.7627L33.7067 49.118C33.9214 48.7913 34.0941 48.39 34.2247 47.914C34.3647 47.4287 34.4347 46.8687 34.4347 46.234C34.4347 45.2353 34.1781 44.4653 33.6647 43.924C33.1514 43.3827 32.4607 43.112 31.5927 43.112C30.7341 43.112 30.0341 43.378 29.4927 43.91C28.9607 44.4327 28.6341 45.1093 28.5127 45.94C28.7554 45.7813 29.0214 45.6553 29.3107 45.562C29.6001 45.4593 29.8987 45.408 30.2067 45.408C30.8787 45.408 31.4201 45.6133 31.8307 46.024C32.2507 46.4347 32.4607 46.99 32.4607 47.69C32.4607 48.4647 32.2414 49.0713 31.8027 49.51C31.3734 49.9487 30.7854 50.168 30.0387 50.168ZM30.0107 46.388C29.7307 46.388 29.4601 46.4487 29.1987 46.57C28.9374 46.682 28.6947 46.836 28.4707 47.032C28.5081 47.8347 28.6807 48.3993 28.9887 48.726C29.2967 49.0527 29.6654 49.216 30.0947 49.216C30.4587 49.216 30.7527 49.0993 30.9767 48.866C31.2007 48.6233 31.3127 48.278 31.3127 47.83C31.3127 47.3633 31.1914 47.0087 30.9487 46.766C30.7061 46.514 30.3934 46.388 30.0107 46.388ZM39.348 38.198C40.524 38.198 41.4946 38.52 42.26 39.164C42.5213 39.3787 42.75 39.6493 42.946 39.976C43.1513 40.2933 43.31 40.7087 43.422 41.222C43.5433 41.726 43.604 42.37 43.604 43.154V50H42.4V43.546C42.4 42.8087 42.358 42.2113 42.274 41.754C42.1993 41.2873 42.0826 40.9187 41.924 40.648C41.7746 40.368 41.5926 40.1347 41.378 39.948C41.1166 39.7053 40.8086 39.528 40.454 39.416C40.0993 39.304 39.74 39.248 39.376 39.248C38.62 39.248 38.032 39.4347 37.612 39.808C37.192 40.1813 36.982 40.6853 36.982 41.32C36.982 41.992 37.1546 42.51 37.5 42.874C37.8453 43.2287 38.312 43.4527 38.9 43.546V44.54C38.3213 44.4747 37.794 44.3113 37.318 44.05C36.842 43.7887 36.4686 43.4293 36.198 42.972C35.918 42.5147 35.778 41.9593 35.778 41.306C35.778 40.6153 35.9413 40.0413 36.268 39.584C36.5853 39.1267 37.0146 38.7813 37.556 38.548C38.0973 38.3147 38.6946 38.198 39.348 38.198ZM48.066 52.968L47.268 52.226L49.97 49.664V43.252H47.268V50H46.064V42.244H53.554V43.252H51.174V50L48.066 52.968ZM49.312 40.508C49.0414 40.508 48.8174 40.424 48.64 40.256C48.4627 40.0787 48.374 39.85 48.374 39.57C48.374 39.2993 48.4627 39.0753 48.64 38.898C48.8174 38.7207 49.0414 38.632 49.312 38.632C49.5827 38.632 49.8067 38.7207 49.984 38.898C50.1614 39.0753 50.25 39.2993 50.25 39.57C50.25 39.85 50.1614 40.0787 49.984 40.256C49.8067 40.424 49.5827 40.508 49.312 40.508ZM56.8122 50.168C56.2522 50.168 55.7482 50.0793 55.3002 49.902C54.8522 49.7247 54.4975 49.4633 54.2362 49.118C53.9749 48.7727 53.8442 48.3573 53.8442 47.872C53.8442 47.3867 53.9655 46.962 54.2082 46.598C54.4602 46.234 54.8569 45.954 55.3982 45.758V42.244H62.7202V43.252H60.1022V45.408H60.3262C61.0542 45.408 61.6422 45.464 62.0902 45.576C62.5382 45.6787 62.9209 45.8513 63.2382 46.094C63.4809 46.2807 63.6722 46.528 63.8122 46.836C63.9522 47.1347 64.0222 47.48 64.0222 47.872C64.0222 48.5813 63.8075 49.132 63.3782 49.524C62.9582 49.916 62.3609 50.112 61.5862 50.112C61.3715 50.112 61.1382 50.098 60.8862 50.07C60.6342 50.042 60.4009 49.9953 60.1862 49.93L60.4522 48.992C60.7602 49.0853 61.1009 49.132 61.4742 49.132C62.3702 49.132 62.8182 48.6933 62.8182 47.816C62.8182 47.3867 62.6969 47.074 62.4542 46.878C62.2209 46.6727 61.9222 46.542 61.5582 46.486C61.1942 46.4207 60.8162 46.388 60.4242 46.388H60.1022V46.836C60.1022 47.4613 60.0462 47.9513 59.9342 48.306C59.8315 48.6607 59.6822 48.9593 59.4862 49.202C59.1969 49.5567 58.8235 49.8087 58.3662 49.958C57.9182 50.098 57.4002 50.168 56.8122 50.168ZM56.5042 43.252V45.492C56.8962 45.436 57.3302 45.408 57.8062 45.408H58.9122V43.252H56.5042ZM55.0482 47.858C55.0482 48.2873 55.2255 48.614 55.5802 48.838C55.9349 49.0527 56.3829 49.16 56.9242 49.16C57.3349 49.16 57.6849 49.0993 57.9742 48.978C58.2729 48.8473 58.5015 48.628 58.6602 48.32C58.8282 48.012 58.9122 47.578 58.9122 47.018V46.388H57.7082C57.2322 46.388 56.8262 46.416 56.4902 46.472C56.1635 46.528 55.8835 46.6213 55.6502 46.752C55.2489 46.9853 55.0482 47.354 55.0482 47.858ZM59.2062 40.508C58.9355 40.508 58.7115 40.424 58.5342 40.256C58.3569 40.0787 58.2682 39.85 58.2682 39.57C58.2682 39.2993 58.3569 39.0753 58.5342 38.898C58.7115 38.7207 58.9355 38.632 59.2062 38.632C59.4769 38.632 59.7009 38.7207 59.8782 38.898C60.0555 39.0753 60.1442 39.2993 60.1442 39.57C60.1442 39.85 60.0555 40.0787 59.8782 40.256C59.7009 40.424 59.4769 40.508 59.2062 40.508ZM68.3649 50.168C67.8049 50.168 67.3009 50.0793 66.8529 49.902C66.4049 49.7247 66.0503 49.4633 65.7889 49.118C65.5276 48.7727 65.3969 48.3573 65.3969 47.872C65.3969 47.3867 65.5183 46.962 65.7609 46.598C66.0129 46.234 66.4096 45.954 66.9509 45.758V42.244H74.2729V43.252H71.6549V45.408H71.8789C72.6069 45.408 73.1949 45.464 73.6429 45.576C74.0909 45.6787 74.4736 45.8513 74.7909 46.094C75.0336 46.2807 75.2249 46.528 75.3649 46.836C75.5049 47.1347 75.5749 47.48 75.5749 47.872C75.5749 48.5813 75.3603 49.132 74.9309 49.524C74.5109 49.916 73.9136 50.112 73.1389 50.112C72.9243 50.112 72.6909 50.098 72.4389 50.07C72.1869 50.042 71.9536 49.9953 71.7389 49.93L72.0049 48.992C72.3129 49.0853 72.6536 49.132 73.0269 49.132C73.9229 49.132 74.3709 48.6933 74.3709 47.816C74.3709 47.3867 74.2496 47.074 74.0069 46.878C73.7736 46.6727 73.4749 46.542 73.1109 46.486C72.7469 46.4207 72.3689 46.388 71.9769 46.388H71.6549V46.836C71.6549 47.4613 71.5989 47.9513 71.4869 48.306C71.3843 48.6607 71.2349 48.9593 71.0389 49.202C70.7496 49.5567 70.3763 49.8087 69.9189 49.958C69.4709 50.098 68.9529 50.168 68.3649 50.168ZM68.0569 43.252V45.492C68.4489 45.436 68.8829 45.408 69.3589 45.408H70.4649V43.252H68.0569ZM66.6009 47.858C66.6009 48.2873 66.7783 48.614 67.1329 48.838C67.4876 49.0527 67.9356 49.16 68.4769 49.16C68.8876 49.16 69.2376 49.0993 69.5269 48.978C69.8256 48.8473 70.0543 48.628 70.2129 48.32C70.3809 48.012 70.4649 47.578 70.4649 47.018V46.388H69.2609C68.7849 46.388 68.3789 46.416 68.0429 46.472C67.7163 46.528 67.4363 46.6213 67.2029 46.752C66.8016 46.9853 66.6009 47.354 66.6009 47.858ZM79.7497 50.168C79.255 50.168 78.8023 50.0467 78.3917 49.804C77.981 49.552 77.6543 49.1647 77.4117 48.642C77.1783 48.1193 77.0617 47.438 77.0617 46.598C77.0617 45.5993 77.2577 44.764 77.6497 44.092C78.051 43.42 78.5783 42.916 79.2317 42.58C79.885 42.244 80.5943 42.076 81.3597 42.076C82.3117 42.076 83.0817 42.258 83.6697 42.622C84.2577 42.986 84.687 43.4713 84.9577 44.078C85.2377 44.6753 85.3777 45.3427 85.3777 46.08C85.3777 46.6773 85.3123 47.2093 85.1817 47.676C85.051 48.1427 84.8923 48.5813 84.7057 48.992H88.4437V42.244H89.6477V53.962H88.4437V50H83.4737L83.4177 49.118C83.6323 48.7913 83.805 48.39 83.9357 47.914C84.0757 47.4287 84.1457 46.8687 84.1457 46.234C84.1457 45.2353 83.889 44.4653 83.3757 43.924C82.8623 43.3827 82.1717 43.112 81.3037 43.112C80.445 43.112 79.745 43.378 79.2037 43.91C78.6717 44.4327 78.345 45.1093 78.2237 45.94C78.4663 45.7813 78.7323 45.6553 79.0217 45.562C79.311 45.4593 79.6097 45.408 79.9177 45.408C80.5897 45.408 81.131 45.6133 81.5417 46.024C81.9617 46.4347 82.1717 46.99 82.1717 47.69C82.1717 48.4647 81.9523 49.0713 81.5137 49.51C81.0843 49.9487 80.4963 50.168 79.7497 50.168ZM79.7217 46.388C79.4417 46.388 79.171 46.4487 78.9097 46.57C78.6483 46.682 78.4057 46.836 78.1817 47.032C78.219 47.8347 78.3917 48.3993 78.6997 48.726C79.0077 49.0527 79.3763 49.216 79.8057 49.216C80.1697 49.216 80.4637 49.0993 80.6877 48.866C80.9117 48.6233 81.0237 48.278 81.0237 47.83C81.0237 47.3633 80.9023 47.0087 80.6597 46.766C80.417 46.514 80.1043 46.388 79.7217 46.388ZM98.9989 42.076C99.6989 42.076 100.273 42.258 100.721 42.622C101.169 42.9767 101.5 43.476 101.715 44.12C101.93 44.7547 102.037 45.492 102.037 46.332C102.037 46.9853 101.967 47.5453 101.827 48.012C101.687 48.4787 101.463 48.8613 101.155 49.16C100.828 49.4773 100.427 49.6967 99.9509 49.818C99.4842 49.9393 98.8496 50 98.0469 50H92.1109V42.244H93.3149V48.992H96.4789V45.03C96.4789 44.4513 96.5302 43.994 96.6329 43.658C96.7449 43.3127 96.9036 43.0233 97.1089 42.79C97.3236 42.5567 97.5802 42.3793 97.8789 42.258C98.1776 42.1367 98.5509 42.076 98.9989 42.076ZM98.9709 43.084C98.8122 43.084 98.6582 43.112 98.5089 43.168C98.3596 43.2147 98.2336 43.294 98.1309 43.406C97.9816 43.574 97.8696 43.784 97.7949 44.036C97.7202 44.2787 97.6829 44.6893 97.6829 45.268V48.992H98.3409C98.9756 48.992 99.4702 48.9033 99.8249 48.726C100.18 48.5487 100.432 48.2593 100.581 47.858C100.73 47.4567 100.805 46.9247 100.805 46.262C100.805 45.6647 100.74 45.128 100.609 44.652C100.488 44.176 100.292 43.798 100.021 43.518C99.7596 43.2287 99.4096 43.084 98.9709 43.084ZM96.8989 40.508C96.6282 40.508 96.4042 40.424 96.2269 40.256C96.0496 40.0787 95.9609 39.85 95.9609 39.57C95.9609 39.2993 96.0496 39.0753 96.2269 38.898C96.4042 38.7207 96.6282 38.632 96.8989 38.632C97.1696 38.632 97.3936 38.7207 97.5709 38.898C97.7482 39.0753 97.8369 39.2993 97.8369 39.57C97.8369 39.85 97.7482 40.0787 97.5709 40.256C97.3936 40.424 97.1696 40.508 96.8989 40.508Z" fill="black"></path><line x1="69.2322" y1="167.232" x2="179.232" y2="57.2322" stroke="#BF2828" stroke-width="5"></line><line x1="72.7678" y1="57.2322" x2="182.768" y2="167.232" stroke="#BF2828" stroke-width="5"></line></g></svg>