<svg width="180" height="180" viewBox="0 0 180 180" fill="none" xmlns="http://www.w3.org/2000/svg">
<mask id="mask0" mask-type="alpha" maskUnits="userSpaceOnUse" x="0" y="0" width="180" height="180">
<rect width="180" height="180" fill="#D2F8FD"/>
</mask>
<g mask="url(#mask0)">
<path d="M77.4023 181.318C77.4023 181.318 85.5139 195.857 110.586 218.126L110.77 220.518L126.072 205.979C126.072 205.979 118.882 173.036 97.8656 155.92C76.6649 138.804 74.2683 174.692 77.4023 181.318Z" fill="#AD6744"/>
<path d="M53.0677 175.611C53.0677 175.611 51.0398 210.395 47.1683 215.732C43.2969 221.07 59.52 229.167 59.52 229.167C59.52 229.167 61.7323 228.247 63.2071 224.566C64.4976 220.702 82.1956 203.034 88.0949 167.882C91.4133 147.821 54.7268 155.367 53.0677 175.611Z" fill="#C37550"/>
<path d="M105.055 63.3476L108.004 68.6848C108.004 68.6848 115.563 85.9846 117.038 94.6346L105.608 159.417C105.608 159.417 89.0158 167.699 48.2736 153.528L58.9661 131.995L79.0607 55.0658L87.541 52.1211C87.541 52.1211 89.9375 59.8508 105.055 63.3476Z" fill="#47B6A5"/>
<path d="M76.1109 104.573C76.1109 104.573 88.647 93.8986 88.0939 79.3594C88.0939 79.3594 82.3789 97.5794 70.5803 101.628C58.7816 105.677 76.1109 104.573 76.1109 104.573Z" fill="#2B9984"/>
<path d="M61.5476 113.59C61.5476 113.59 49.3803 106.229 48.0898 95.5544C48.0898 95.5544 66.7095 71.629 79.983 65.3717C93.2565 59.1143 61.5476 113.59 61.5476 113.59Z" fill="#2B9984"/>
<path d="M115.195 41.6303L107.636 58.378L105.055 63.3471C104.687 66.6599 98.4186 63.8992 91.2288 58.562L87.5417 52.3046L97.1282 38.6856L107.268 25.8027L115.195 41.6303Z" fill="#C37550"/>
<path d="M91.0436 47.5199C90.1218 46.9678 93.6246 43.471 89.2001 39.7902C84.7756 36.2934 82.379 29.852 88.4626 22.4903C94.362 15.6808 104.686 26.5392 104.686 26.5392L107.082 38.6859H101.367C95.8368 44.5753 95.8368 47.3359 91.0436 47.5199Z" fill="#153F57"/>
<path d="M114.824 20.6494C114.824 20.6494 116.483 19.177 114.271 14.76C112.058 10.3431 108.371 9.6069 99.5224 10.159C99.5224 10.159 102.288 12.9196 89.5673 17.5207C82.0088 20.2813 88.2768 33.9003 90.8578 36.1088C93.2544 38.3173 98.4163 39.6056 98.4163 39.6056C98.4163 39.6056 101.919 29.1153 114.824 20.6494Z" fill="#153F57"/>
<path d="M114.827 20.6484C114.827 20.6484 118.882 27.458 118.882 28.5622C118.882 31.8749 122.57 35.3717 122.57 35.3717C122.57 35.3717 122.938 36.476 121.279 37.0281C119.62 37.5802 121.095 39.6047 121.095 39.6047C121.095 39.6047 121.095 40.5249 117.592 41.077C116.855 41.261 118.329 41.6291 120.726 41.261C120.726 41.261 121.279 42.1812 120.542 43.1014C119.804 43.8376 120.91 46.5982 120.357 47.5184C119.62 49.3588 112.983 49.3588 110.402 49.3588C107.821 49.3588 104.134 47.7025 104.134 47.7025C104.134 47.7025 101.738 45.494 101.738 43.8376C101.738 43.8376 98.7879 42.3653 97.4974 39.0525C94.3634 31.6909 101.184 28.9303 104.134 35.5558C105.056 37.7643 105.609 36.2919 105.609 36.2919C105.609 36.2919 105.978 35.3717 105.24 32.243C105.056 31.5069 101.922 25.6175 109.112 23.7771C112.43 22.6729 114.827 20.6484 114.827 20.6484Z" fill="#C37550"/>
<path d="M79.0605 55.0645C79.0605 55.0645 67.8149 60.2176 56.5693 86.7195C48.6421 105.676 50.67 114.326 50.67 114.326L72.0551 102.179C72.0551 102.179 85.8816 91.8727 88.4626 75.8611C89.9374 67.0271 79.0605 55.0645 79.0605 55.0645Z" fill="#47B6A5"/>
<path d="M105.241 115.247L107.822 115.063C107.822 115.063 116.487 111.75 117.04 111.75C117.593 111.75 125.151 115.799 125.151 115.799C125.151 115.799 125.889 125.001 124.23 126.289C122.386 127.762 113.537 126.289 113.537 126.289C113.537 126.289 108.375 123.897 103.582 124.633C98.7887 125.369 97.6826 115.431 105.241 115.247Z" fill="#C37550"/>
<path d="M79.4299 188.127L93.4408 203.403C93.4408 203.403 113.167 202.299 126.809 196.961L104.871 159.785L79.4299 188.127Z" fill="#223C49"/>
<path d="M46.801 202.113C46.801 202.113 61.9181 210.027 70.5827 213.156L86.9902 193.279L99.3419 180.581L104.873 159.968L50.6725 154.631C50.6725 154.631 46.248 167.882 53.0691 176.532L46.801 202.113Z" fill="#2E495A"/>
<path d="M50.672 114.51C50.672 114.51 79.0625 128.866 104.319 124.449L104.688 115.431C104.688 115.431 89.202 113.222 63.9455 97.5787C63.9455 97.5787 51.9625 93.7138 50.672 114.51Z" fill="#C37550"/>
<path d="M50.4854 113.959C50.4854 113.959 54.5412 95.5546 69.4739 100.708L61.5467 93.1621C61.5467 93.1621 50.1167 96.4748 50.4854 113.959Z" fill="#47B6A5"/>
</g>
</svg>
