<svg width="250" height="386" viewBox="0 0 250 386" fill="none" xmlns="http://www.w3.org/2000/svg">
<mask id="mask0" mask-type="alpha" maskUnits="userSpaceOnUse" x="0" y="0" width="250" height="386">
<rect width="250" height="386" fill="#C4C4C4"/>
</mask>
<g mask="url(#mask0)">
<path d="M203.63 20.5241C202.106 11.0886 198.493 4.82903 192.893 1.91946C188.256 -0.489489 182.205 -0.632041 174.905 1.49774C167.267 3.72511 158.029 8.5116 147.448 15.7223C128.636 28.5426 105.637 46.3547 84.3497 64.5911C64.1268 81.9162 47.5685 97.8251 40.056 107.147C31.2608 118.06 24.9758 128.337 21.3751 137.689C21.3742 137.691 21.3742 137.69 21.3742 137.691C19.1055 143.587 17.85 149.25 17.6452 154.524C17.4505 159.514 18.1901 164.29 19.8416 168.719C22.8278 176.72 28.9054 183.887 37.908 190.022C41.9124 192.75 55.7125 200.798 72.6194 209.408C86.6456 216.552 106.346 225.874 120.543 229.721C125.135 230.965 129.091 231.634 132.638 231.766C136.905 231.923 140.648 231.327 144.084 229.941C152.007 226.747 158.114 219.332 162.756 207.276C165.629 199.809 167.981 190.354 169.746 179.17C170.363 175.262 173.985 163.07 178.571 147.636C187.455 117.733 199.624 76.7801 202.834 53.7131C204.724 40.1224 204.993 28.9558 203.63 20.5241ZM201.601 53.5748C198.403 76.5654 186.248 117.476 177.372 147.347C172.775 162.818 169.144 175.038 168.516 179.013C166.763 190.125 164.429 199.511 161.581 206.91C157.058 218.659 151.168 225.859 143.575 228.921C137.551 231.351 130.557 231.267 120.899 228.651C95.3022 221.715 47.6475 195.256 38.656 189.13C19.8535 176.317 14.433 159.134 22.5456 138.057C22.5456 138.056 22.5464 138.055 22.5464 138.055C26.1071 128.805 32.3352 118.627 41.0581 107.803C55.7805 89.5384 106.851 44.7892 148.197 16.6133C168.432 2.82313 183.261 -1.79451 192.272 2.88677C202.409 8.15438 205.548 25.2088 201.601 53.5748Z" fill="#FFE1A5"/>
<path d="M161.539 21.6872C124.966 44.6371 80.2093 78.6636 62.5629 95.0205C19.9769 134.494 24.2125 153.272 42.1862 171.952C48.983 179.016 88.0015 212.722 111.049 224.094C129.411 233.154 148.182 233.901 167.778 185.611C171.984 175.245 201.895 97.3633 214.356 65.0033C230.369 23.4258 214.027 -11.2489 161.539 21.6872Z" fill="#FFE1A5"/>
<path fill-rule="evenodd" clip-rule="evenodd" d="M108.072 139.229C106.8 132.207 111.005 125.613 109.518 118.639C108.417 113.478 105.032 106.798 99.8063 106.421L99.2572 106.249C94.6986 103.08 88.1534 107.15 84.302 110.765C79.099 115.65 78.7896 123.461 73.737 128.507C66.3631 135.872 58.9127 143.051 60.6238 154.371C61.909 162.875 69.7742 169.696 78.5176 172.437L79.0667 172.609C87.9987 175.44 98.1726 174.198 104.084 167.941C111.951 159.614 109.927 149.476 108.072 139.229Z" fill="#FFBB46"/>
<path d="M99.3493 102.321C99.3493 102.321 106.688 92.4851 87.4796 86.6914C87.4796 86.6914 86.8617 104.351 98.6923 103.275C98.6923 103.275 97.9213 98.7378 92.9291 92.5928C92.9291 92.5928 97.685 96.8889 99.3493 102.321Z" fill="#D2AE53"/>
<path d="M107.548 98.9696C107.48 98.4707 107.02 98.1202 106.52 98.1881C102.481 98.7345 100.616 100.953 99.7614 102.717C98.8442 104.611 98.8892 106.377 98.8909 106.452C98.9037 106.851 99.1706 107.183 99.5327 107.296C99.6271 107.326 99.7282 107.34 99.8336 107.337C100.338 107.321 100.735 106.902 100.718 106.398C100.718 106.384 100.693 104.947 101.438 103.451C102.405 101.506 104.198 100.344 106.766 99.9971C107.266 99.9284 107.616 99.4685 107.548 98.9696Z" fill="#B76749"/>
<path d="M218.797 364.888C219.511 362.366 218.454 360.429 217.78 358.073C217.043 355.494 217.675 352.167 217.87 349.501C218.264 344.13 218.807 338.772 219.28 333.409C219.789 327.632 220.26 321.845 220.448 316.048C220.598 311.387 220.738 306.516 219.745 301.938C218.077 294.251 215.914 286.658 214.067 279.003C212.946 274.352 211.799 269.727 211.059 264.992C209.837 257.163 209.602 249.259 210.228 241.379C210.812 234.026 211.395 226.64 211.824 219.261C212.152 213.621 212.673 207.823 212.253 202.182C211.882 197.198 210.321 192.191 208.513 187.556C205.707 180.359 201.87 173.363 197.443 167.162C194.126 162.515 190.407 158.036 188.607 152.442C185.863 143.916 188.156 135.378 192.206 127.674C193.278 125.988 194.293 124.263 195.26 122.514C196.803 119.722 198.588 116.651 199.131 113.464C199.074 116.457 199.055 119.457 198.962 122.441C198.807 127.351 198.402 132.316 198.714 137.211C198.894 140.032 199.301 142.876 199.834 145.667C200.193 147.552 200.426 150.602 201.742 152C203.029 153.368 205.271 154.565 207.162 154.924C209.59 155.386 211.495 152.37 213.591 151.618C213.586 151.767 213.496 151.892 213.396 152.023C213.327 152.113 213.279 152.189 213.183 152.245C213.103 151.504 213.392 150.626 213.486 149.874C213.745 147.781 213.746 145.675 213.543 143.594C212.695 134.912 213.01 125.929 213.119 117.161C213.203 110.394 213.125 103.541 213.624 96.8116C213.851 93.7408 214.3 90.6946 213.732 87.6162C212.988 83.5764 210.507 80.3953 206.635 78.8994C202.053 77.1294 197.109 76.8154 192.443 75.3585C187.858 73.9262 184.468 70.9827 182.924 66.4024C180.535 59.3138 180.419 50.7319 182.492 43.4609C181.037 46.3646 178.244 48.9033 175.931 51.0993C171.146 55.6406 165.708 59.4513 159.822 62.4321C161.629 64.5882 161.644 68.2411 161.619 70.841C161.603 72.5193 161.001 73.7607 159.6 74.7297C156.782 76.6779 153.097 77.6122 149.897 78.6847C144.085 80.6329 136.8 84.5378 137.393 91.7069C137.515 94.9584 137.826 98.2626 138.567 101.434C136.812 104.201 134.955 106.926 133.389 109.799C132.468 111.488 131.847 113.222 131.708 115.121C131.559 117.157 131.827 119.285 132.842 121.127C134.36 123.882 137.18 125.594 139.928 126.881C140.057 126.942 140.258 127.024 140.495 127.066C140.883 131.8 140.638 136.69 140.132 141.403C139.57 146.623 138.704 152.151 136.507 156.959C133.337 163.897 129.634 170.679 127.009 177.866C124.651 184.321 123.803 191.007 123.419 197.821C123.193 201.828 123.794 205.953 124.297 209.927C125.101 216.293 126.163 222.626 127.318 228.937C128.59 235.896 129.982 242.835 131.539 249.736C132.892 255.735 134.285 261.776 136.376 267.565C137.695 271.215 139.268 275.076 138.903 279.037C138.585 282.481 139.948 285.893 141.463 288.909C143.072 297.083 144.358 305.334 145.403 313.598C146.244 320.252 146.914 326.94 147.165 333.645C147.367 339.05 147.522 344.77 146.195 350.047C145.465 352.953 143.078 355.478 141.043 357.568C139.213 359.45 137.236 361.282 135.083 362.774C132.418 364.621 128.452 366.275 127.234 369.533C126.271 372.104 130.586 372.539 132.133 372.609C134.93 372.735 138.425 372.496 140.847 371C143.059 369.633 145.056 367.84 147.706 367.337C149.505 366.995 151.393 367.104 153.219 366.927C154.924 366.761 157.396 366.513 158.344 364.854C160.065 361.844 157.736 358.025 157.585 354.982C157.009 343.325 161.228 331.415 164.184 320.001C165.419 315.232 167.191 310.561 167.793 305.648C168.658 298.581 167.104 291.466 165.272 284.675C164.907 281.611 164.337 278.272 164.734 275.215C165.324 270.668 165.516 265.989 165.769 261.387C166.166 254.185 166.534 246.981 166.894 239.777C167.363 230.387 167.836 220.998 168.249 211.604C168.716 211.448 168.951 211.37 169.421 211.213C171.536 220.516 173.628 229.824 175.754 239.124C177.392 246.295 179.058 253.464 180.932 260.579C182.157 265.23 183.256 270.016 184.979 274.516C186.195 278.643 188.415 282.546 190.759 286.106C192.815 289.23 193.093 293.365 193.461 296.984C193.954 301.824 194.352 306.701 195.884 311.318C197.924 317.47 199.972 323.701 201.92 329.921C203.675 335.529 205.612 341.19 206.787 346.957C207.963 352.733 209.34 358.842 207.711 364.585C206.881 367.51 205.997 370.502 204.954 373.389C204.364 375.023 203.528 376.563 202.851 378.165C202.34 379.375 201.55 380.998 201.941 382.334C202.494 384.225 203.352 385.422 205.473 385.624C209.477 386.006 217.085 387.005 219.218 382.601C219.732 381.541 219.626 380.134 219.591 378.968C219.534 377.128 219.341 375.292 219.157 373.462C218.977 371.663 218.772 369.864 218.671 368.059C218.61 367.031 218.514 365.886 218.797 364.888Z" fill="#FFA786"/>
<path fill-rule="evenodd" clip-rule="evenodd" d="M217.801 221.827C220.497 221.297 219.921 218.062 219.247 216.192C219.371 215.075 219.493 213.957 219.615 212.84C220.285 213.184 220.999 213.665 221.359 214.282C222.669 216.533 223.604 219.379 224.701 221.922C224.96 222.901 225.22 223.878 225.48 224.857C225.51 225.866 225.47 227.05 225.83 227.953C225.989 228.352 226.433 228.913 226.919 228.974C227.891 229.095 228.227 227.695 228.365 226.998C228.802 226.504 229.239 226.01 229.674 225.515C230.205 223.995 230.723 222.452 231.378 220.985C231.511 220.686 231.349 219.659 231.349 219.659C231.349 219.659 231.863 218.784 231.91 218.453C231.962 218.089 231.694 216.989 231.694 216.989C231.694 216.989 232.359 215.976 232.381 215.591C232.463 214.177 231.222 212.603 231.598 211.185C231.598 211.185 231.677 210.071 231.48 209.614C230.828 208.103 229.631 206.625 228.674 205.186C227.834 202.818 226.998 200.448 226.161 198.078C225.883 197.053 225.605 195.968 225.499 194.934C225.392 193.883 225.076 192.85 224.49 191.929C223.79 188.982 222.96 186.045 222.385 183.078C221.264 177.299 220.508 171.416 219.116 165.683C218.067 161.364 216.921 157.062 215.71 152.781C215.074 150.529 214.525 148.157 213.648 146.03C212.643 143.59 210.889 141.134 208.694 139.547C206.115 137.681 201.141 138.944 199.983 141.972C199.271 143.836 199.625 146.085 199.983 147.995C200.402 150.229 201.063 152.424 201.835 154.559C203.783 159.948 205.758 165.381 208.1 170.608C210.547 176.07 213.339 181.467 214.862 187.252C215.495 189.655 215.911 192.15 216.337 194.611C216.69 196.652 217.386 198.993 217.222 200.954C217.105 202.336 216.276 203.749 215.929 205.147C215.405 207.258 215.286 209.554 215.081 211.745C215.482 213.618 215.884 215.49 216.289 217.362C216.79 218.851 217.294 220.339 217.801 221.827ZM227.831 222.914C227.838 222.317 227.844 221.72 227.85 221.122C227.379 219.603 226.908 218.084 226.439 216.563C226.715 216.627 226.852 216.658 227.126 216.722C227.407 217.973 227.725 219.575 228.279 220.635C228.599 221.25 228.109 222.271 227.831 222.914Z" fill="#FFA786"/>
<path d="M204.687 383.223C203.644 382.641 203.021 381.626 202.592 380.542C203.32 378.941 204.196 377.404 204.838 375.765C205.255 374.698 205.958 373.778 206.564 372.814C207.703 370.999 208.548 369.048 209.205 367.033C209.873 364.985 209.678 362.558 209.578 360.422C209.437 357.418 209.117 354.421 208.747 351.437C208.168 346.761 207.495 342.048 206.597 337.46C206.023 334.53 204.94 331.655 204.256 328.757C203.657 326.225 203.26 323.587 202.612 321.049C201.28 315.83 200.35 310.563 199.712 305.198C199.412 302.673 199.202 300.133 199.079 297.594C198.928 294.455 199.967 288.856 199.547 287.97C199.418 287.698 197.608 287.732 196.745 287.632C195.12 287.442 193.484 287.127 191.987 286.448C190.197 283.28 188.605 279.743 187.576 276.38C187.026 274.584 186.493 272.613 186.039 270.716C180.82 248.883 177.546 226.608 173.591 204.525C173.529 204.666 173.498 204.737 173.436 204.878C173.79 203.54 174.174 202.202 174.63 200.907C174.947 200.006 175.788 198.559 175.71 198.243C175.645 197.984 174.248 197.634 173.574 197.408C171.76 196.802 169.932 196.236 168.104 195.671C162.541 193.949 156.976 192.231 151.392 190.576C146.179 189.032 140.964 187.476 135.741 185.953C137.908 185.897 140.079 185.833 142.192 185.625C149.642 184.894 157.238 182.987 164.869 183.303C158.664 182.86 152.429 182.258 146.367 180.807C141.352 179.607 131.894 175.574 132.269 171.737C132.734 166.997 139.417 158.913 141.305 151.838C142.321 148.03 142.996 144.121 143.422 140.209C143.614 138.456 143.45 136.663 143.518 134.896C143.577 133.354 143.638 131.259 144.816 130.139C147.139 127.928 150.231 126.76 153.234 125.629C154.503 125.151 155.825 124.781 157.092 124.274C158.277 123.799 160.265 123.118 160.69 121.798C161.403 119.584 151.293 120.527 150.025 120.622C146.224 120.908 142.391 120.7 138.64 119.847C137.826 116.202 138.771 112.815 140.607 109.694C141.829 107.617 143.279 105.609 144.635 103.593C146.442 100.905 145.146 97.0081 145.213 94.0102C145.304 89.9637 144.436 83.7118 148.466 81.2892C150.576 80.0207 153.182 79.627 155.408 78.6224C156.625 78.0734 157.788 77.2113 158.836 76.3475C159.683 75.6483 160.924 74.647 161.327 73.488C161.274 73.6678 161.21 73.8435 161.133 74.0149C169.696 71.0111 176.397 63.9777 181.176 56.487C181.169 56.3105 181.163 56.1357 181.158 55.9609C175.381 60.4258 167.685 62.4487 160.67 63.9905C161.507 66.161 161.64 68.5504 161.619 70.8397C161.612 71.5754 161.591 72.3543 161.43 73.0917C161.45 72.9712 161.462 72.8499 161.46 72.7268C158.748 76.8091 152.615 77.6228 148.367 79.2282C144.086 80.8463 139.325 83.4326 137.806 88.0579C136.415 92.2962 137.576 97.2253 138.567 101.434C136.143 105.252 132.926 108.92 131.936 113.441C131.289 116.398 131.684 119.722 133.533 122.193C134.971 124.114 137.04 125.469 139.166 126.516C141.584 127.708 140.651 131.336 140.605 133.439C140.479 139.176 139.946 144.91 138.611 150.453C137.522 154.974 135.482 159.222 133.463 163.439C129.942 170.789 123.74 184.99 124.668 186.238C124.669 186.24 124.672 186.242 124.674 186.244C123.953 190.063 123.637 193.957 123.419 197.82C123.192 201.826 123.795 205.952 124.297 209.926C125.101 216.291 126.164 222.625 127.318 228.936C128.59 235.895 129.983 242.834 131.539 249.735C132.892 255.734 134.286 261.774 136.377 267.564C137.695 271.214 139.268 275.075 138.903 279.036C138.585 282.48 140.518 286.147 141.463 288.908C143.798 295.726 144.358 305.333 145.403 313.597C146.244 320.251 146.914 326.939 147.165 333.644C147.367 339.049 147.522 344.769 146.195 350.046C145.465 352.951 143.078 355.476 141.043 357.567C139.213 359.448 137.236 361.28 135.083 362.773C132.418 364.619 128.427 366.256 127.234 369.531C127.11 369.872 127.079 370.185 127.128 370.466C127.144 370.284 127.189 370.091 127.269 369.889C128.547 366.646 132.586 365.113 135.299 363.341C137.493 361.907 139.519 360.125 141.399 358.292C143.491 356.253 145.942 353.791 146.753 350.906C148.176 345.847 148.379 340.386 148.521 335.148C148.704 328.402 148.497 321.645 148.14 314.908C147.71 306.789 148.031 297.108 146.164 290.588C145.701 288.974 143.755 287.612 142.478 286.119C140.922 284.299 140.432 282.093 140.358 279.773C140.24 276.058 140.583 271.862 139.399 268.249C137.488 262.408 136.181 256.358 134.947 250.336C133.53 243.422 132.278 236.472 131.161 229.504C130.15 223.198 129.238 216.868 128.621 210.509C128.239 206.572 127.728 202.407 128.217 198.464C128.407 196.937 130.296 196.442 131.571 196.307C134.224 196.026 136.984 196.796 139.395 197.843C147.684 201.445 153.148 209.355 155.877 217.703C157.086 221.399 158.269 225.127 159.027 228.951C159.78 232.75 160.15 236.629 160.524 240.468C161.11 246.484 160.851 252.544 161.054 258.587C161.224 263.675 161.416 268.801 161.295 273.862C161.133 280.543 163.962 286.794 165.679 293.148C166.801 297.299 166.655 302.015 165.996 306.227C164.767 314.09 161.052 321.449 158.341 328.844C156.331 334.327 155.963 340.296 155.928 346.085C155.907 349.532 156.533 353.002 156.906 356.445C157.102 358.254 157.495 360.377 156.426 362.003C154.761 364.539 150.75 364.359 148.155 364.209C145.179 364.035 143.445 365.48 141.458 367.471C138.714 370.221 135.509 371.715 131.715 372.528C134.947 372.807 137.976 372.46 140.841 370.877C143.12 369.618 145.163 368.046 147.709 367.335C150.22 366.634 152.901 367.059 155.444 366.521C158.355 365.905 159.297 363.748 158.78 360.932C157.578 354.395 157.292 347.786 158.758 341.273C160.561 333.259 162.397 325.157 164.883 317.28C166.636 311.72 168.053 305.987 167.99 300.118C167.933 294.852 166.202 289.433 165.275 284.673C164.728 281.869 164.34 278.271 164.737 275.213C165.327 270.667 165.519 265.987 165.772 261.386C166.169 254.184 166.537 246.98 166.897 239.776C167.366 230.386 167.839 220.996 168.252 211.603C168.719 211.447 168.954 211.369 169.424 211.212C171.193 218.969 172.878 226.744 174.588 234.514C174.594 234.427 174.585 234.209 174.565 233.881C176.405 242.007 178.249 250.134 180.318 258.206C181.711 263.64 183.245 269.4 184.981 274.515C186.224 278.179 188.154 282.039 190.301 285.401C190.372 285.513 190.446 285.625 190.519 285.737C190.524 285.743 190.527 285.749 190.531 285.756C190.607 285.872 190.684 285.988 190.761 286.105C192.843 289.244 192.822 293.539 193.076 297.157C193.415 302.001 193.828 306.897 195.886 311.317C200.4 321.012 203.378 331.709 205.598 342.224C206.573 346.842 207.414 351.499 207.959 356.188C208.239 358.585 208.838 361.576 208.163 363.929C207.25 367.105 206.087 370.258 204.956 373.39C204.377 374.992 203.56 376.505 202.892 378.074C202.421 379.181 201.762 380.554 201.856 381.82C201.859 381.858 201.863 381.896 201.867 381.933C201.869 381.945 201.87 381.956 201.871 381.968C201.874 381.999 201.879 382.031 201.884 382.061C201.889 382.088 201.893 382.114 201.898 382.14C201.9 382.154 201.903 382.168 201.906 382.182C201.908 382.196 201.911 382.211 201.914 382.224C201.915 382.223 201.915 382.222 201.916 382.22C201.924 382.258 201.933 382.296 201.944 382.335C202.484 384.218 203.354 385.423 205.476 385.624C208.939 385.953 212.74 386.356 216.095 385.127C214.462 385.104 212.841 385.002 211.232 384.779C209.047 384.48 206.649 384.318 204.687 383.223Z" fill="#D38462"/>
<path d="M189.838 118.412C188.364 118.258 187.171 118.523 186.938 119.699C186.694 120.934 187.571 121.501 187.899 122.545C188.243 123.642 187.1 124.108 186.214 124.445C180.841 126.486 174.974 126.197 169.376 127.239C171.461 126.98 173.803 127.961 175.728 128.63C177.786 129.344 179.797 130.228 181.867 130.881C182.866 131.197 184.335 131.614 184.622 132.783C184.89 133.869 184.207 135.249 183.924 136.27C182.147 142.692 183.334 149.312 185.444 155.481C187.183 160.566 189.699 165.519 192.154 170.313C193.521 172.983 192.915 174.85 190.221 176.162C185.641 178.394 180.399 179.498 175.591 181.133C172.052 182.336 168.259 183.181 164.66 183.852C162.877 184.183 164.739 184.65 165.461 184.827C167.155 185.245 169.277 185.51 170.642 186.648C172.66 188.331 175.851 188.569 178.378 188.698C181.141 188.838 183.905 188.68 186.662 188.598C187.01 188.588 187.356 188.574 187.703 188.56C187.125 189.084 186.588 189.65 186.191 190.275C185.887 190.755 185.668 191.521 186.561 191.405C191.544 190.759 197.557 191.841 201.63 195.599C204.965 198.674 207.086 202.889 208.532 207.099C209.834 210.891 210.473 214.895 210.786 218.907C210.986 221.465 210.814 224.12 211.158 226.629C211.198 226.918 211.244 227.214 211.287 227.507C211.634 222.573 211.95 217.635 212.157 212.694C212.304 209.207 212.509 205.659 212.252 202.181C211.787 195.893 209.61 189.648 206.957 183.848C203.421 175.495 197.799 168.476 193.025 160.864C188.024 152.89 186.143 143.734 189.305 134.738C190.699 130.771 192.657 126.995 194.71 123.279C194.739 123.3 194.768 123.321 194.796 123.341C196.514 120.306 198.53 116.947 199.129 113.464C199.072 116.456 199.053 119.456 198.96 122.441C198.924 123.586 198.875 124.738 198.826 125.886C199.239 122.865 199.358 119.782 199.621 116.745C200.109 111.111 200.622 105.48 201.265 99.8618C201.264 99.8669 201.262 99.8719 201.26 99.8779C200.655 101.863 200.511 103.419 198.409 104.422C198.084 104.577 197.778 104.66 197.495 104.688C195.416 104.89 193.96 103.617 193.134 102.199C191.55 99.4816 190.495 95.0591 188.342 92.7266C189.25 95.049 187.503 99.6505 187.685 102.05C187.868 104.444 187.603 106.915 187.223 109.289C186.995 110.71 186.322 112.856 186.099 113.838C186.018 114.198 186.715 114.902 187.046 115.305C187.931 116.379 188.885 117.399 189.838 118.412Z" fill="#D38462"/>
<path d="M214.86 187.261C216.019 191.677 216.704 196.347 217.333 200.895C217.323 198.287 217.331 195.734 216.952 193.141C216.109 187.37 214.067 181.82 211.769 176.504C209.836 172.037 207.618 167.664 205.529 163.265C204.587 161.279 203.968 159.119 202.808 157.234C204.471 161.726 206.141 166.25 208.098 170.616C210.544 176.079 213.343 181.479 214.86 187.261Z" fill="#D38462"/>
<path fill-rule="evenodd" clip-rule="evenodd" d="M208.908 188.624C207.797 184.433 205.663 180.534 203.528 176.789C188.319 182.954 170.753 183.699 154.583 182.063C145.45 181.139 136.136 179.66 127.384 176.805C125.976 180.599 124.492 184.267 124.473 188.376C128.049 188.252 131.849 189.973 135.068 191.329C138.295 192.689 141.705 194.154 144.54 196.186C149.072 199.433 152.283 204.303 156.75 207.595C159.512 209.629 163.112 211.782 166.732 211.612C167.625 211.602 168.519 211.592 169.411 211.582C168.432 202.223 179.549 197.106 186.729 194.403C193.83 191.731 201.403 189.78 208.908 188.624Z" fill="#FF7251"/>
<path fill-rule="evenodd" clip-rule="evenodd" d="M182.236 196.416C175.577 199.124 168 202.179 160.654 200.987C153.916 199.893 147.713 195.959 141.8 192.839C138.064 190.867 131.842 187.53 131.801 182.513C131.792 181.49 132.105 180.534 132.568 179.634C132.732 179.315 133.157 178.837 132.999 178.526C131.115 177.945 129.273 177.257 127.4 176.645C125.955 180.504 124.281 184.217 124.252 188.413C127.859 188.29 131.696 190.002 134.955 191.348C138.216 192.694 141.685 194.138 144.543 196.185C149.073 199.431 152.286 204.302 156.752 207.593C159.514 209.628 163.114 211.781 166.734 211.611C167.628 211.601 168.521 211.591 169.414 211.581C168.586 203.691 176.176 199.392 182.236 196.416Z" fill="#F4674E"/>
<path d="M185.838 128.084C187.804 127.889 189.781 128.178 191.672 128.706C192.078 127.878 192.495 127.057 192.925 126.242C194.385 123.959 195.728 121.599 196.988 119.202C194.408 117.885 190.145 117.479 189.539 114.014C189.049 111.212 189.308 108.24 188.859 105.397C188.265 101.637 187.75 98.0702 188.707 94.3511C190.432 87.6461 194.616 81.9365 199.351 76.8996C198.419 76.6688 197.494 76.4406 196.547 76.2734C192.746 79.5547 189.909 84.1367 187.052 88.1943C184.552 91.7453 182.503 97.1614 177.881 98.4334C172.598 99.886 167.504 102.143 163.189 105.585C161.974 106.554 160.848 107.615 159.759 108.722C159.354 109.133 158.672 109.977 158.383 109.938C158.13 109.905 157.714 109.129 157.43 108.72C156.713 107.689 155.993 106.662 155.227 105.667C153.125 102.939 150.718 100.392 147.92 98.3816C147.095 97.7885 146.341 96.9544 146.01 95.9896C145.175 93.5612 146.116 90.9808 146.71 88.5719C147.508 85.3382 148.358 82.1129 149.265 78.9064C148.45 79.1923 147.652 79.5114 146.857 79.8466C145.518 83.7862 144.145 87.7157 142.703 91.6198C141.509 94.8518 140.313 98.3061 138.446 101.211C136.684 103.95 134.717 106.993 133.143 109.865C132.218 111.553 131.849 113.226 131.71 115.125C131.561 117.16 131.829 119.288 132.844 121.13C134.362 123.886 137.182 125.598 139.93 126.885C140.059 126.945 140.26 127.028 140.497 127.069C141.204 127.135 141.929 127.094 142.64 127.086C144.764 126.446 146.893 125.822 149.025 125.208C151.569 124.477 154.534 123.157 156.93 123.165C158.422 123.17 160.326 124.31 161.852 124.898C165.041 126.126 168.243 127.352 171.469 128.442C175.857 129.926 181.394 128.897 185.838 128.084Z" fill="#FF7251"/>
<path d="M192.535 117.943C189.975 116.917 187.666 115.18 186.548 112.595C186.669 114.815 186.633 117.177 185.672 119.232C184.772 121.157 183.116 122.624 181.415 123.773C178.823 125.523 175.787 125.907 172.706 125.481C170.629 125.193 168.461 125.034 166.41 124.476C164.202 123.874 162.208 122.717 160.43 121.379C159.683 120.518 159.042 119.578 158.525 118.51C157.163 115.694 157.776 111.029 159.884 108.594C157.543 110.616 156.399 114.062 155.763 116.949C155.727 117.113 155.683 117.269 155.633 117.42C155.493 117.434 155.362 117.48 155.243 117.568C149.235 121.959 138.965 126.302 133.049 119.427C131.915 118.109 131.586 115.46 131.871 113.775C131.793 114.199 131.785 114.654 131.709 115.126C131.387 117.126 131.828 119.289 132.843 121.131C134.361 123.887 137.18 125.599 139.929 126.886C140.058 126.946 140.259 127.029 140.495 127.07C141.203 127.136 142.036 127.179 142.638 127.087C144.522 126.8 146.892 125.823 149.024 125.209C151.568 124.478 154.533 123.158 156.929 123.166C158.27 123.172 159.969 124.174 161.341 124.702C161.485 124.757 161.629 124.812 161.773 124.868C161.799 124.878 161.825 124.888 161.851 124.898C164.793 126.031 167.747 127.161 170.721 128.186C170.766 128.201 170.81 128.217 170.855 128.234C170.854 128.233 170.853 128.233 170.852 128.232C171.057 128.302 171.262 128.374 171.468 128.443C175.858 129.927 181.549 128.69 185.838 128.085C187.714 127.82 189.781 128.179 191.673 128.707C192.078 127.879 192.481 127.007 192.926 126.243C194.233 123.999 195.729 121.6 196.989 119.203C195.527 118.702 193.986 118.525 192.535 117.943Z" fill="#F4674E"/>
<path d="M157.706 15.9409C155.105 18.0274 152.742 21.5046 150.781 24.6212C147.481 29.8668 144.813 36.4742 146.733 42.6777C147.275 44.4265 146.391 45.7477 146.053 47.4142C145.354 50.86 147.338 54.5519 148.864 57.4751C150.323 60.2701 151.624 63.1847 153.16 65.9475C153.694 66.908 154.184 67.5164 155.309 67.6301C156.668 67.7684 158.083 68.0502 159.461 67.8346C164.511 67.0464 169.332 66.1927 173.539 63.1618C175.536 61.7236 177.699 60.3889 179.5 58.6664C181.676 56.5841 182.678 52.4136 183.819 51.1239C185.276 49.4752 189.596 46.082 190.173 42.4537C190.922 37.7453 192.21 33.1802 191.578 28.3556C190.628 21.0871 184.877 15.4088 178.993 13.6702C173.327 11.9961 162.678 11.9528 157.706 15.9409Z" fill="#FFA786"/>
<path d="M191.58 28.3515C189.478 12.2822 163.901 7.81049 155.355 18.2346C155.369 18.2371 155.385 18.2396 155.4 18.2413C153.655 20.1446 152.194 22.3736 150.783 24.6171C148.757 27.8364 147.055 31.3773 146.38 35.1489C145.776 38.521 147.545 41.8938 146.724 45.0732C145.184 51.0366 147.705 55.0433 150.286 60.2965C150.303 60.3313 156.09 70.5602 156.651 67.447C154.205 65.5641 153.911 61.5837 151.12 52.2848C149.887 48.1746 153.826 43.7309 151.698 40.5455C149.77 37.6589 151.156 29.855 155.169 28.8063C159.831 27.5869 162.133 25.2866 162.766 21.3817C162.699 22.2565 162.856 23.3011 163.691 24.4364C165.057 26.2938 167.668 29.6166 168.452 31.7201C170.31 36.6983 171.815 38.8587 173.635 43.5323C175.688 48.8042 173.317 54.1422 173.635 59.6398C177.805 56.513 182.728 52.2941 186.319 48.6107C191.137 43.6647 192.455 35.0463 191.58 28.3515Z" fill="#D38462"/>
<path d="M209.921 69.4434C203.555 64.9063 202.098 57.7881 202.446 50.333C202.475 49.717 202.487 49.0992 202.484 48.4824C202.446 38.889 199.043 28.9384 192.983 21.4638C187.468 14.6621 179.165 10.1692 170.291 12.4593C170.138 12.4992 169.754 12.3982 169.334 12.0775C168.355 11.3308 167.299 10.932 166.091 10.5951C166.09 10.5951 165.4 10.4933 165.399 10.4933C156.553 9.92141 149.499 14.9981 143.346 20.7612C143.346 20.7646 143.347 20.768 143.346 20.7714C141.423 22.6467 139.856 24.8172 138.7 27.199C134.94 34.9493 133.769 44.2245 136.403 52.5637C137.2 55.0889 138.523 57.5106 139.889 59.7906C141.341 62.2148 142.972 64.7493 145.115 66.622C147.371 68.594 149.882 70.3487 152.448 71.9066C154.308 73.036 157.647 75.3499 159.918 74.5616C160.9 74.2205 161.454 73.0699 161.73 72.1179C162.06 71.0835 161.969 69.9593 161.982 68.8969C161.999 67.5647 162.025 68.42 161.906 67.4502C161.26 67.6012 160.596 67.6784 159.946 67.7539C158.559 67.9143 155.805 68.1612 155.011 66.7077C153.512 63.9636 151.819 60.9938 150.639 57.9646C149.499 55.0363 148.546 51.8544 148.087 48.7743C147.894 47.4786 147.805 46.1447 148.096 44.838C148.272 44.048 148.669 43.3064 148.794 42.5156C148.871 42.0209 148.804 42.5283 148.601 41.5966C148.312 40.2763 147.583 38.8296 147.813 37.4881C147.983 36.5021 148.299 35.5009 148.613 34.52C148.914 33.5747 149.144 32.582 149.621 31.7122C150.007 31.0105 150.562 30.386 151.153 29.8548C152.831 28.3479 154.796 27.4085 156.966 26.8511C158.016 26.5812 159.148 26.51 160.194 26.1816C161.249 25.8507 162.267 25.3636 163.204 24.7629C163.326 24.6839 163.451 24.6025 163.57 24.5185C163.609 24.4913 163.649 24.4633 163.688 24.4353C167.72 26.7577 169.154 31.8913 171.343 35.6748C173.166 38.8262 175.434 42.0234 176.261 45.6288C177.222 49.8179 175.678 54.002 174.037 57.7974C172.115 62.2454 171.56 67.2151 174.733 71.2524C177.095 74.2578 180.633 76.0592 184.022 77.6553C187.209 79.1563 187.785 83.1469 188.173 86.2542C188.686 90.3543 188.814 94.6299 190.519 98.4627C194.17 106.673 203.014 110.666 211.497 107.347C218.124 104.754 221.292 97.5115 221.345 90.7751C221.412 82.2339 216.756 74.3147 209.921 69.4434Z" fill="#A8654D"/>
<path d="M214.853 100.206C213.418 100.91 211.964 101.426 210.758 101.726C205.709 102.984 200.113 102.248 195.734 99.3884C193.334 97.8204 190.732 95.4963 189.111 93.1153C189.063 93.0449 189.016 92.9736 188.968 92.9023C189.276 94.8098 189.727 96.6833 190.519 98.4618C194.17 106.672 203.014 110.665 211.497 107.346C217.078 105.163 220.26 99.5369 221.107 93.8408C220.574 96.5892 217.753 98.7826 214.853 100.206Z" fill="#9E5D49"/>
<path d="M169.958 12.582C168.573 13.2421 167.949 15.713 167.432 17.4491C167.17 18.3324 168.908 16.0626 174.896 15.7164C180.508 15.3914 186.714 18.4351 190.863 22.127C192.908 23.9453 194.534 25.5338 196.077 27.7874C197.54 29.9232 199.735 33.2528 200.49 35.6855C198.884 30.5061 196.342 25.6042 192.985 21.4634C187.47 14.6617 179.167 10.1688 170.293 12.4589C170.179 12.4886 170.068 12.5302 169.958 12.582Z" fill="#9E5D49"/>
<path d="M148.615 34.5196C148.916 33.5744 149.146 32.5816 149.623 31.7119C150.009 31.0101 150.564 30.3856 151.155 29.8544C152.833 28.3475 154.798 27.4082 156.968 26.8507C158.018 26.5809 159.15 26.5096 160.196 26.1812C161.251 25.8503 162.269 25.3632 163.206 24.7625C163.208 24.7616 163.688 24.4367 163.69 24.435C163.773 23.4787 157.93 22.9568 157.239 23.0256C145.037 24.2313 138.192 36.1326 139.334 47.1295C139.767 51.3067 141.237 56.4572 142.737 60.3765C144.103 63.942 149.953 70.3891 152.45 71.9045C154.31 73.0339 157.649 75.3478 159.92 74.5596C160.902 74.2184 161.456 73.0679 161.732 72.1158C162.062 71.0815 161.971 69.9572 161.984 68.8948C162.001 67.5627 162.027 68.418 161.908 67.4481C161.262 67.5991 160.598 67.6764 159.948 67.7519C158.561 67.9122 155.807 68.1592 155.013 66.7057C153.514 63.9615 151.821 60.9917 150.641 57.9625C149.501 55.0343 148.548 51.8523 148.089 48.7722C147.896 47.4765 147.807 46.1426 148.098 44.8359C148.274 44.0459 148.671 43.3043 148.796 42.5135C148.873 42.0188 148.806 42.5262 148.603 41.5946C148.314 40.2743 147.585 38.8275 147.815 37.486C147.985 36.5018 148.301 35.5005 148.615 34.5196Z" fill="#9E5D49"/>
</g>
</svg>
