<svg width="195" height="187" viewBox="0 0 195 187" fill="none" xmlns="http://www.w3.org/2000/svg">
<mask id="mask0" mask-type="alpha" maskUnits="userSpaceOnUse" x="0" y="0" width="195" height="187">
<rect width="195" height="187" fill="#C4C4C4"/>
</mask>
<g mask="url(#mask0)">
<path fill-rule="evenodd" clip-rule="evenodd" d="M10.6392 115.009C0.801029 87.1401 -5.02729 53.8583 13.4366 30.7835C31.4559 8.26437 64.6183 13.4216 93.3998 11.5808C123.837 9.63406 159.328 -2.34305 179.947 20.1338C200.838 42.9085 193.334 79.4588 182.061 108.235C173.169 130.935 149.889 141.043 128.212 152.198C107.001 163.113 85.2431 176.956 62.499 169.761C37.2837 161.786 19.4435 139.948 10.6392 115.009Z" fill="#F9F9F9"/>
</g>
<g clip-path="url(#clip0)">
<path d="M169.3 82.999L162.5 81.099V77.999L169.3 76.099C170.3 75.799 171.2 76.599 171.2 77.599V81.499C171.2 82.499 170.3 83.299 169.3 82.999Z" fill="#8E1F3F"/>
<path d="M38 84.7984L36.7 89.7984H158.9C162.9 89.7984 166.3 87.3984 167.8 83.8984C166.6 84.3984 165.3 84.6984 163.9 84.6984H38V84.7984Z" fill="#801B3A"/>
<path d="M158.9 70.1992H41.7L38 84.7992H163.9C165.3 84.7992 166.6 84.4992 167.8 83.9992C168.3 82.7992 168.6 81.4992 168.6 80.0992C168.7 74.6992 164.3 70.1992 158.9 70.1992Z" fill="#8E1F3F"/>
<path d="M54 77.2984H42.3C41.7 77.2984 41.1 76.7984 41.1 76.0984C41.1 75.4984 41.6 74.8984 42.3 74.8984H54C54.6 74.8984 55.2 75.3984 55.2 76.0984C55.2 76.7984 54.7 77.2984 54 77.2984Z" fill="#B22F5B"/>
<path d="M75.1 77.2984H58.9C58.3 77.2984 57.7 76.7984 57.7 76.0984C57.7 75.4984 58.2 74.8984 58.9 74.8984H75C75.6 74.8984 76.2 75.3984 76.2 76.0984C76.2 76.7984 75.7 77.2984 75.1 77.2984Z" fill="#B22F5B"/>
<path d="M45.4598 82.6006C47.6225 77.3988 46.6057 72.0303 43.1888 70.6098C39.772 69.1892 35.2489 72.2545 33.0863 77.4563C30.9237 82.6581 31.9404 88.0266 35.3573 89.4471C38.7741 90.8677 43.2972 87.8024 45.4598 82.6006Z" fill="#F45671"/>
<path d="M149.5 73.4998L140.3 70.9998V66.7998L149.5 64.2998C150.8 63.8998 152.1 64.8998 152.1 66.2998V71.5998C152.1 72.8998 150.8 73.8998 149.5 73.4998Z" fill="#F44E38"/>
<path d="M127 48H86L77.7 79.6L134.9 79.5C139.2 79.5 143.2 78.2 146.5 75.9C147.3 73.7 147.8 71.3 147.8 68.8C147.8 57.4 138.4 48 127 48Z" fill="#F44E38"/>
<path d="M134.9 79.5L77.7 79.6L75 89.8L127 89.7C136 89.7 143.6 83.9 146.6 76C143.2 78.2 139.2 79.5 134.9 79.5Z" fill="#C53E33"/>
<path d="M115 57.8004H91.2C90.3 57.8004 89.5 57.0004 89.5 56.1004C89.5 55.2004 90.3 54.4004 91.2 54.4004H115C115.9 54.4004 116.7 55.2004 116.7 56.1004C116.7 57.0004 115.9 57.8004 115 57.8004Z" fill="#F78171"/>
<path d="M92.8391 74.0426C97.4824 62.8741 95.7066 51.517 88.8729 48.6759C82.0392 45.8348 72.7352 52.5855 68.0919 63.7541C63.4487 74.9227 65.2244 86.2797 72.0581 89.1208C78.8918 91.9619 88.1958 85.2112 92.8391 74.0426Z" fill="#FFA1A1"/>
<path d="M87.4 74.7996C87.2 76.5996 85.7 77.8996 83.9 77.6996C82.1 77.4996 80.8 75.9996 81 74.1996C81.2 72.3996 82.7 71.0996 84.5 71.2996C86.3 71.4996 87.6 73.0996 87.4 74.7996Z" fill="#FFC9BF"/>
<path d="M91.9 63.4995C91.8 64.7995 90.6 65.7995 89.3 65.6995C88 65.5995 87 64.3995 87.1 63.0995C87.2 61.7995 88.4 60.7995 89.7 60.8995C91 60.9995 92 62.1995 91.9 63.4995Z" fill="#FFC9BF"/>
<path d="M71 75.0988C72.3255 75.0988 73.4 74.0243 73.4 72.6988C73.4 71.3733 72.3255 70.2988 71 70.2988C69.6745 70.2988 68.6 71.3733 68.6 72.6988C68.6 74.0243 69.6745 75.0988 71 75.0988Z" fill="#FFC9BF"/>
<path d="M82.1 55.3C82 56.2 81.2 56.8 80.3 56.8C79.4 56.7 78.8 55.9 78.8 55C78.9 54.1 79.7 53.5 80.6 53.5C81.5 53.6 82.2 54.4 82.1 55.3Z" fill="#FFC9BF"/>
<path d="M73.9 81.3996C73.8 82.2996 73 82.8996 72.1 82.8996C71.2 82.7996 70.6 81.9996 70.6 81.0996C70.7 80.1996 71.5 79.5996 72.4 79.5996C73.3 79.6996 74 80.4996 73.9 81.3996Z" fill="#FFC9BF"/>
<path d="M42.5 73.4C42.4 74.2 41.7 74.8 40.9 74.7C40.1 74.6 39.5 73.9 39.6 73.1C39.7 72.3 40.4 71.7 41.2 71.8C42 71.9 42.6 72.6 42.5 73.4Z" fill="#FFD7D2"/>
<path d="M39.4 86.8004C39.3 87.6004 38.6 88.2004 37.8 88.1004C37 88.0004 36.5 87.3004 36.5 86.5004C36.6 85.7004 37.3 85.1004 38.1 85.2004C38.9 85.3004 39.5 86.0004 39.4 86.8004Z" fill="#FFD7D2"/>
<path d="M44.6 78.2989C44.5 78.8989 44 79.2989 43.5 79.1989C42.9 79.0989 42.5 78.5989 42.6 78.0989C42.7 77.4989 43.2 77.0989 43.7 77.1989C44.2 77.2989 44.6 77.7989 44.6 78.2989Z" fill="#FFD7D2"/>
<path d="M41.8 82.2C41.8 82.6 41.4 82.8 41.1 82.8C40.7 82.8 40.5 82.4 40.5 82.1C40.5 81.7 40.9 81.5 41.2 81.5C41.5 81.5 41.8 81.9 41.8 82.2Z" fill="#FFD7D2"/>
<path d="M37.2 76.6004C37.2 77.0004 36.8 77.2004 36.5 77.2004C36.1 77.2004 35.9 76.8004 35.9 76.5004C35.9 76.2004 36.3 75.9004 36.6 75.9004C37 75.9004 37.2 76.2004 37.2 76.6004Z" fill="#FFD7D2"/>
<path d="M36.1 81.7989C36 82.3989 35.5 82.7989 35 82.6989C34.4 82.5989 34 82.0989 34.1 81.5989C34.2 80.9989 34.7 80.5989 35.2 80.6989C35.7 80.6989 36.2 81.1989 36.1 81.7989Z" fill="#FFD7D2"/>
</g>
<g clip-path="url(#clip1)">
<path d="M121.669 95.7207C121.669 95.7207 121.669 96.6012 121.669 97.9221V107.755C121.669 112.891 117.525 117.001 112.345 117.001H54.3246C49.1443 117.001 45 112.891 45 107.755V99.8299C45 97.4818 45 95.7207 45 95.7207H121.669Z" fill="#B2B2B2"/>
<path d="M121.669 95.7203C121.669 96.4541 121.521 97.1879 121.373 97.9217C120.485 101.884 116.785 104.819 112.345 104.819H54.3246C49.1443 104.819 45 100.71 45 95.7203C45 93.2255 46.0361 90.8773 47.6642 89.263C49.4403 87.5019 51.6604 86.4746 54.3246 86.4746H112.345C116.933 86.4746 120.781 89.7033 121.521 94.106C121.669 94.5463 121.669 95.1333 121.669 95.7203Z" fill="#F15723"/>
<path d="M67.0534 95.5733C67.0534 97.0409 64.2412 98.2149 60.689 98.2149C57.1367 98.2149 54.3245 97.0409 54.3245 95.5733C54.3245 94.1057 57.1367 92.9316 60.689 92.9316C64.2412 92.9316 67.0534 94.1057 67.0534 95.5733Z" fill="white"/>
<path d="M121.669 95.7198C121.669 95.7198 121.669 96.6003 121.669 97.9212H91.4749C90.4389 97.9212 89.5508 97.0406 89.5508 96.0133C89.5508 95.8666 89.5508 95.8666 89.5508 95.7198C89.6988 94.8393 90.4389 94.1055 91.3269 94.1055H121.373C121.669 94.5457 121.669 95.1328 121.669 95.7198Z" fill="#CC4139"/>
<path d="M82.7425 95.8669C82.7425 96.4539 82.4465 96.7474 82.2985 96.7474H63.2052C62.9092 96.7474 62.7612 96.3071 62.7612 95.8669C62.7612 95.4266 63.0572 94.9863 63.2052 94.9863H82.2985C82.5945 94.9863 82.7425 95.4266 82.7425 95.8669Z" fill="white"/>
<path d="M142.686 92.4904L140.022 89.8488L133.806 83.3914C132.03 81.6304 129.07 81.4836 127.293 83.2447L126.553 83.8317L121.965 88.2344C116.045 93.371 108.2 99.5348 102.724 99.5348C92.9551 99.5348 84.2225 94.545 79.3382 87.0604C79.9303 85.7396 80.3743 83.9785 80.8183 81.7771C81.7064 77.6679 81.7064 74.1457 80.8183 73.999C79.9303 73.8522 78.5982 77.0809 77.7101 81.1901C77.7101 82.0706 77.5621 82.8044 77.4141 83.5382C77.2661 82.8044 77.1181 82.0706 76.9701 81.1901C76.082 77.0809 74.7499 73.8522 73.8618 73.999C72.9738 74.1457 72.9738 77.6679 73.8618 81.7771C74.6019 85.1525 75.49 87.7942 76.378 88.6747C76.526 103.791 90.587 115.825 108.052 115.825C121.225 115.825 138.69 107.313 143.427 97.4802C144.315 95.8658 144.019 93.8112 142.686 92.4904Z" fill="#F9B39A"/>
<path d="M87.0349 106.285C86.7389 106.872 85.8508 107.166 85.2588 106.872C84.6667 106.579 84.3707 105.698 84.6667 105.111L88.811 97.333C89.107 96.746 89.9951 96.4525 90.5871 96.746C91.1792 97.0395 91.4752 97.9201 91.1792 98.5071L87.0349 106.285Z" fill="#F5815A"/>
<path d="M100.208 111.275C100.208 112.008 99.6157 112.595 98.8756 112.595C98.1356 112.595 97.5435 112.008 97.5435 111.275V100.415C97.5435 99.6808 98.1356 99.0938 98.8756 99.0938C99.6157 99.0938 100.208 99.6808 100.208 100.415V111.275Z" fill="#F5815A"/>
<path d="M112.788 112.009C112.936 112.743 112.492 113.33 111.9 113.624C111.16 113.77 110.568 113.33 110.272 112.743L106.868 99.8283C106.72 99.0945 107.164 98.5075 107.756 98.214C108.496 98.0672 109.088 98.5075 109.384 99.0945L112.788 112.009Z" fill="#F5815A"/>
<path d="M126.257 105.992C126.701 106.579 126.553 107.46 125.813 107.9C125.221 108.341 124.333 108.194 123.889 107.46L115.601 94.9856C115.157 94.3986 115.305 93.518 116.045 93.0777C116.637 92.6375 117.525 92.7842 117.969 93.518L126.257 105.992Z" fill="#F5815A"/>
<path d="M135.286 98.3615C135.73 98.9486 135.582 99.8291 134.842 100.269C134.25 100.71 133.362 100.563 132.918 99.8291L124.629 87.3547C124.185 86.7677 124.333 85.8871 125.073 85.4469C125.665 85.0066 126.553 85.1534 126.997 85.8871L135.286 98.3615Z" fill="#F5815A"/>
<path d="M162.668 93.5175L160.004 90.8759L153.787 84.5653C152.011 82.8042 149.051 82.6574 147.275 84.4185L146.535 85.0055L141.947 89.4083C136.026 94.5448 128.182 100.709 122.705 100.709C112.937 100.709 104.204 95.7189 99.3197 88.2342C99.9118 86.9134 100.356 85.1523 100.8 82.9509C101.688 78.8417 101.688 75.3195 100.8 75.1728C99.9118 75.026 98.5797 78.2547 97.6916 82.3639C97.5436 83.0977 97.3956 83.9782 97.2476 84.712C97.0996 83.9782 96.9516 83.2445 96.8036 82.3639C95.9155 78.2547 94.5834 75.026 93.6954 75.1728C92.8073 75.3195 92.8073 78.8417 93.6954 82.9509C94.4354 86.3264 95.3235 88.968 96.2115 89.8485C96.3595 104.965 110.42 117.145 127.886 117.145C141.059 117.145 158.524 108.634 163.26 98.8008C164.444 96.8929 164.148 94.8383 162.668 93.5175Z" fill="#F5815A"/>
<path d="M107.016 107.313C106.72 107.9 105.832 108.193 105.24 107.9C104.648 107.606 104.352 106.726 104.648 106.139L108.792 98.3604C109.088 97.7734 109.976 97.4798 110.568 97.7734C111.161 98.0669 111.457 98.9474 111.161 99.5344L107.016 107.313Z" fill="#F15723"/>
<path d="M120.189 112.302C120.189 113.036 119.597 113.623 118.857 113.623C118.117 113.623 117.525 113.036 117.525 112.302V101.442C117.525 100.708 118.117 100.121 118.857 100.121C119.597 100.121 120.189 100.708 120.189 101.442V112.302Z" fill="#F15723"/>
<path d="M132.918 113.037C133.066 113.77 132.622 114.357 132.03 114.651C131.29 114.798 130.698 114.357 130.402 113.77L126.998 100.856C126.85 100.122 127.294 99.5348 127.886 99.2413C128.626 99.0946 129.218 99.5348 129.514 100.122L132.918 113.037Z" fill="#F15723"/>
<path d="M146.239 107.02C146.683 107.607 146.535 108.487 145.795 108.928C145.203 109.368 144.315 109.221 143.871 108.487L135.582 96.0129C135.138 95.4259 135.286 94.5453 136.026 94.1051C136.618 93.6648 137.506 93.8116 137.95 94.5453L146.239 107.02Z" fill="#F15723"/>
<path d="M155.416 99.3889C155.86 99.9759 155.712 100.856 154.971 101.297C154.379 101.737 153.491 101.59 153.047 100.856L144.759 88.3821C144.315 87.795 144.463 86.9145 145.203 86.4742C145.795 86.0339 146.683 86.1807 147.127 86.9145L155.416 99.3889Z" fill="#F15723"/>
</g>
<defs>
<clipPath id="clip0">
<rect x="32" y="48" width="139.2" height="41.8" fill="white"/>
</clipPath>
<clipPath id="clip1">
<rect x="45" y="74" width="119" height="43" fill="white"/>
</clipPath>
</defs>
</svg>
