<svg width="715" height="328" viewBox="0 0 715 328" fill="none" xmlns="http://www.w3.org/2000/svg">
<mask id="mask0" mask-type="alpha" maskUnits="userSpaceOnUse" x="0" y="0" width="715" height="328">
<rect width="715" height="328" fill="#C4C4C4"/>
</mask>
<g mask="url(#mask0)">
<path d="M-2 0H715V328H-2V0Z" fill="#D2F8FD"/>
<mask id="mask1" mask-type="alpha" maskUnits="userSpaceOnUse" x="-2" y="0" width="717" height="328">
<path d="M-2 0H715V328H-2V0Z" fill="#D2F8FD"/>
</mask>
<g mask="url(#mask1)">
<path d="M524.222 248.484C523.842 249.652 520.296 248.527 519.612 248.387C518.927 248.248 518.018 247.842 519.975 247.447C521.933 247.051 524.688 247.03 524.222 248.484Z" fill="#E8A28B"/>
<path d="M523.806 247.477C525.102 248.514 525.822 250.272 524.85 251.557C524.235 252.303 523.544 252.758 522.666 253.069C522.435 253.161 522.194 253.266 521.96 253.337C521.716 253.421 521.482 253.492 521.247 253.563C521.025 253.643 520.791 253.714 520.55 253.742C518.452 253.926 515.894 252.378 515.736 250.357C515.569 248.969 517.811 249.788 518.924 249.562C519.171 249.501 519.415 249.417 519.634 249.315C519.853 249.212 520.046 249.091 520.237 248.947C521.212 248.226 522.055 247.133 523.409 247.267C523.55 247.317 523.681 247.38 523.806 247.477Z" fill="#E8A28B"/>
<path d="M565.675 203.958C561.528 203.347 558.491 206.021 556.375 209.278C551.364 216.954 548.639 225.556 542.28 232.379C536.897 238.158 529.389 242.106 522.768 246.28C522.041 246.738 521.568 246.947 521.568 246.947C521.758 247.208 524.251 251.008 524.251 251.008C525.435 252.791 541.743 245.185 543.107 244.487C553.706 239.135 562.82 230.754 568.462 220.323C569.709 218.016 570.81 215.567 571.116 212.96C571.582 209.1 569.998 204.587 565.675 203.958Z" fill="#6FABE2"/>
<path d="M559.832 309.326C560.324 294.998 561.274 287.089 561.52 272.924C561.591 268.551 561.661 264.166 561.72 259.758C561.86 255.851 562.212 247.849 562.212 247.849L543.841 247.186C543.841 247.186 542.035 262.061 541.414 277.948C541.262 281.914 541.473 286.554 541.953 291.462C542.422 296.37 543.161 301.534 544.04 306.581C544.357 308.221 544.826 310.605 545.388 313.42C545.787 325.55 546.455 342.507 547.159 347.298C547.475 349.485 547.745 352.509 547.956 355.707C548.343 361.522 548.413 367.802 548.413 371.408L555.916 371.919C559 356.37 562.224 340.832 561.602 324.992C561.532 322.782 561.38 320.572 561.133 318.374C560.887 316.176 560.559 313.966 560.125 311.78C559.914 311.222 559.855 310.605 559.879 309.989H559.82C559.82 309.745 559.82 309.535 559.832 309.326Z" fill="#81B8EB"/>
<path d="M579.162 324.969C578.998 322.759 578.752 320.549 578.424 318.351C578.096 316.153 577.662 313.943 577.146 311.757C576.923 311.198 576.829 310.582 576.818 309.966H576.759C576.747 309.745 576.747 309.535 576.747 309.326C576.654 294.998 577.275 287.089 576.958 272.924C576.853 268.551 576.736 264.166 576.618 259.758C576.607 255.851 576.173 247.64 576.173 247.64L558.2 247.849C558.2 247.849 557.028 262.061 557.063 277.948C557.075 281.914 557.474 286.554 558.154 291.462C558.834 296.37 559.771 301.534 560.862 306.581C561.249 308.221 561.811 310.605 562.491 313.42C563.394 325.55 564.754 342.507 565.645 347.299C566.055 349.485 566.442 352.509 566.782 355.707C567.404 361.522 567.732 367.803 567.873 371.408L575.387 371.92C577.849 356.347 580.429 340.809 579.162 324.969Z" fill="#81B8EB"/>
<path d="M578.766 266.853C579.762 236.94 584.276 226.054 580.876 214.866C580.348 213.424 579.68 212.04 578.895 210.749C576.515 206.888 572.939 203.887 567.992 202.62C566.878 202.305 565.729 202.096 564.58 202.003C561.122 201.701 557.569 202.399 554.24 204.399C549.058 207.434 546.232 211.982 544.802 217.041C544.45 218.309 544.181 219.611 543.981 220.925C543.008 229.171 541.754 254.676 541.555 263.003C551.438 264.643 578.766 266.853 578.766 266.853Z" fill="#81B8EB"/>
<path fill-rule="evenodd" clip-rule="evenodd" d="M576.854 268.207L542.205 264.65L541.945 262.908L576.852 266.451L576.854 268.207Z" fill="#6084A6"/>
<path d="M567.615 195.664C567.615 195.664 569.444 194.861 569.48 196.257C569.515 197.652 567.146 198.071 567.146 198.071L567.615 195.664Z" fill="#E8A28B"/>
<path d="M571.306 192.073C571.306 192.073 570.465 195.851 569.793 199.427C569.12 203.003 569.709 206.194 569.709 206.194L556.039 213.766L558.881 204.716C558.881 204.716 561.604 200.502 562.344 197.882C563.084 195.263 564.48 191.535 564.48 191.535L571.306 192.073Z" fill="#E8A28B"/>
<path d="M570.001 181.863C569.289 181.484 568.595 181.237 567.9 181.121C567.206 180.989 566.511 180.973 565.852 181.055C561.407 182.44 558.629 186.99 557.709 191.705C557.518 192.644 557.413 193.601 557.379 194.524C556.563 198.019 558.802 202.437 563.126 202.041C563.768 202.041 564.463 201.959 565.174 201.744C567.327 201.101 569.706 199.288 571.772 195.068C573.89 190.699 575.158 184.896 570.314 182.044C570.21 181.978 570.105 181.929 570.001 181.863Z" fill="#E8A28B"/>
<path d="M562.067 183.037C562.256 183.439 562.617 183.792 563.064 184.06C564.217 184.765 565.747 184.949 567.071 185.05C568.361 185.151 570.166 185.402 570.923 186.577C572.024 188.288 570.201 190.62 569.943 192.348C569.805 193.254 569.891 193.976 570.459 194.244C571.147 194.546 571.439 194.865 571.731 194.999C572.643 195.368 574.534 193.439 575.016 192.885C578.214 189.06 578.059 182.399 573.227 179.866C569.84 178.104 564.285 177.97 562.102 181.594C561.844 182.114 561.861 182.6 562.067 183.037Z" fill="#000105"/>
<path d="M573.065 194.461C573.065 194.461 572.502 190.388 567.189 187.025C561.894 183.68 560.734 184.561 560.734 184.561C560.734 184.561 561.491 181.234 562.6 179.346C563.71 177.44 568.844 176.666 572.223 178.681C575.602 180.695 578.426 183.86 577.384 188.931C576.358 194.003 573.065 194.461 573.065 194.461Z" fill="#81B8EB"/>
<path d="M569.898 194.68C569.898 194.68 565.199 191.425 561.566 190.153C557.933 188.88 558.1 189.243 558.1 189.243C558.1 189.243 557 193.753 557.25 196.99C557.5 200.227 558.716 201.318 559.266 202.099C559.816 202.881 562.632 204.209 566.182 202.099C569.731 199.99 570.131 198.117 570.131 198.117C570.131 198.117 567.032 201.627 566.048 198.135C565.065 194.644 569.898 194.68 569.898 194.68Z" fill="white"/>
<path d="M519.713 239.403C519.165 240.253 518.88 241.383 519.244 242.447C519.645 243.579 520.926 244.293 522.044 244.659C523.184 245.016 524.635 245.264 525.783 245.11C528.062 244.795 530.108 242.579 529.398 240.457C528.988 238.985 526.971 240.378 525.726 240.406C525.429 240.414 525.165 240.381 524.871 240.32C524.612 240.271 524.346 240.185 524.084 240.083C522.755 239.581 521.402 238.662 520.043 239.106C519.921 239.183 519.793 239.274 519.713 239.403Z" fill="#E8A28B"/>
<path d="M520.218 240.153C521.187 241.275 524.242 239.619 524.883 239.392C525.523 239.164 526.242 238.63 524.049 238.516C521.85 238.418 519.02 238.764 520.218 240.153Z" fill="#E8A28B"/>
<path d="M514.414 241.335C514.414 241.335 518.097 241.377 519.78 243.203C521.44 245.039 523.25 238.789 520.712 239.018C518.174 239.247 516.286 237.393 516.286 237.393L514.414 241.335Z" fill="#E8A28B"/>
<path d="M496.322 229.79C502.515 233.644 510.141 235.38 517.026 237.518C517.785 237.758 518.255 237.837 518.293 237.702L516.865 242.074C516.252 243.944 499.931 241.048 498.539 240.766C495.033 240.028 491.588 238.964 488.271 237.6L493.841 228.098C494.652 228.693 495.464 229.252 496.322 229.79Z" fill="#6FABE2"/>
<path d="M502.788 192.903C506.164 188.438 505.263 182.078 500.774 178.697C496.284 175.316 489.908 176.195 486.532 180.66C483.155 185.125 484.057 191.486 488.546 194.867C493.035 198.248 499.411 197.369 502.788 192.903Z" fill="#000105"/>
<path d="M462.454 318.63C462.886 316.49 463.389 314.35 463.984 312.222C464.58 310.093 465.257 307.977 466.04 305.872C466.612 304.836 466.682 303.569 466.647 302.417C466.239 288.461 465.351 280.832 465.164 267.015C465.117 262.747 465.071 258.467 465.036 254.175C464.907 250.372 464.825 242.685 464.825 242.685L482.393 242.441C482.685 244.999 482.988 256.339 483.456 270.097C483.584 273.958 483.35 278.506 482.872 283.344C482.381 288.182 481.645 293.299 480.769 298.3C479.11 306.779 473.492 334.993 471.518 341.285C470.852 343.39 470.105 346.31 469.381 349.403C468.061 355.032 466.974 361.126 466.379 364.627H460.317C459.861 349.299 459.277 333.982 462.454 318.63Z" fill="#81B8EB"/>
<path d="M498.499 270.714C498.09 256.909 496.806 244.418 496.525 241.848L479.997 242.766C479.997 242.766 480.079 249.826 480.184 253.641C480.208 257.944 480.231 262.235 480.266 266.515C480.383 280.355 481.236 288.066 481.586 302.069C481.598 302.394 481.598 302.72 481.574 303.057L481.493 303.034C481.434 303.581 481.306 304.116 481.072 304.604C480.418 306.756 479.857 308.919 479.39 311.094C478.923 313.269 478.537 315.443 478.234 317.641C475.944 333.331 477.416 348.985 478.748 364.651H484.81C485.195 361.068 485.931 354.846 486.924 349.089C487.473 345.926 488.045 342.949 488.594 340.797C489.762 336.157 492.168 319.805 493.85 307.826C494.633 304.069 495.275 300.871 495.696 298.824C496.595 293.869 497.354 288.787 497.868 283.972C498.359 279.134 498.616 274.587 498.499 270.714Z" fill="#81B8EB"/>
<path d="M499.074 263.98C499.074 263.98 499.553 260.806 500.237 256.122C500.46 254.568 500.72 252.843 500.973 251.011C501.234 249.357 501.557 247.688 501.904 246.012C504.241 235.461 507.07 224.467 503.896 213.72C501.62 206.26 494.634 201.36 487.061 201.287C485.77 201.234 484.473 201.297 483.21 201.447C481.184 201.718 479.181 202.309 477.29 203.259C475.41 204.21 473.633 205.494 472.07 207.164C465.402 214.085 467.287 223.356 466.665 231.624C466.66 232.129 466.543 233.135 466.367 234.461C465.458 241.111 462.804 255.953 462.663 258.379C463.288 258.696 464.43 258.645 465.111 258.748C470.066 259.496 475.029 260.268 479.98 261.039C482.554 261.44 485.128 261.84 487.7 262.251C488.612 262.389 499.074 263.98 499.074 263.98Z" fill="#81B8EB"/>
<path d="M492.586 188.412C492.586 188.412 491.361 192.282 490.097 195.879C488.833 199.476 486.846 201.495 486.846 201.495L492.092 211.205L495.99 206.818C495.99 206.818 496.257 200.735 496.966 197.996C497.675 195.257 498.431 191.161 498.431 191.161L492.586 188.412Z" fill="#E8A28B"/>
<path d="M497.356 179.697C498.181 179.695 498.95 179.821 499.652 180.053C500.354 180.285 500.98 180.599 501.547 181.003C504.909 184.464 505.157 189.977 503.639 194.752C502.863 197.2 501.949 199.779 499.784 201.364C497.828 202.793 495.625 202.727 493.504 201.563C492.918 201.247 492.335 200.837 491.792 200.29C490.161 198.649 488.876 195.814 489.129 190.944C489.379 185.899 491.129 179.957 496.982 179.724C497.095 179.697 497.234 179.701 497.356 179.697Z" fill="#E8A28B"/>
<path fill-rule="evenodd" clip-rule="evenodd" d="M463.539 257.824L498.949 265.116L499.174 263.968L463.688 257.059L463.539 257.824Z" fill="#6084A6"/>
<path d="M487.141 192.016C487.141 192.016 490.159 193.914 490.337 191.064C490.515 188.215 491.252 178.164 495.453 177.601C499.653 177.038 501.016 179.954 501.016 179.954C501.016 179.954 498.611 173.998 491.817 176.218C485.041 178.44 483.042 187.398 487.141 192.016Z" fill="#000105"/>
<path d="M491.076 190.046C491.076 190.046 488.517 187.697 487.927 190.601C487.338 193.505 490.884 195.238 490.884 195.238L491.076 190.046Z" fill="#E8A28B"/>
<path d="M500.969 184.335C499.241 184.018 497.42 184.199 495.969 184.968C494.433 186.026 493.213 187.416 492.306 189.001C491.855 189.786 491.553 190.617 491.138 191.417C490.705 192.305 490.237 193.178 489.698 194.02C489.571 194.215 489.45 194.393 489.323 194.587C487.733 194.909 486.135 194.63 484.726 193.875C484.522 193.766 484.343 193.648 484.146 193.523C482.719 192.857 481.748 191.581 481.109 190.125C481.015 189.91 480.938 189.703 480.844 189.488C480.553 188.05 479.688 186.725 480.278 185.289C480.3 185.144 480.315 185.015 480.354 184.879C480.82 182.675 481.891 180.718 483.398 179.107C483.762 178.709 484.179 178.333 484.596 177.958C485.045 177.558 485.514 177.206 486.002 176.862C486.507 176.525 487.015 176.228 487.558 175.947C492.661 173.318 500.489 173.506 504.68 178.145C505.108 178.603 505.504 179.086 505.869 179.593C508.023 182.661 507.566 186.79 504.412 189.14C504.539 189.042 504.093 187.198 504.048 187.063C503.748 186.292 504.284 186.527 503.984 185.756C503.521 185.186 503.636 185.239 502.957 184.921C502.335 184.666 501.649 184.461 500.969 184.335Z" fill="#C4EAFF"/>
<path d="M513.594 222.072C515.024 221.457 516.172 220.339 516.849 218.941L518.43 215.68C519.163 214.264 520.556 213.295 522.136 213.09L525.617 212.606C526.107 212.531 526.558 212.922 526.558 213.407C526.558 213.835 526.238 214.19 525.806 214.227L522.419 214.525C523.962 215.233 525.448 215.662 526.803 215.513C527.236 215.457 527.668 215.736 527.781 216.165C527.819 216.295 527.819 216.444 527.781 216.593C527.612 217.357 527.179 218.103 526.351 218.829L523.529 218.457C524.789 219.09 525.636 219.817 525.975 220.693C526.012 221.345 525.58 221.55 524.658 221.252C523.867 220.693 522.626 219.444 522.023 219.016L521.403 222.892C520.8 224.513 518.938 225.314 517.357 224.624C517.357 224.624 517.338 224.624 517.338 224.606C509.849 231.444 501.871 237.91 488.173 239.886C481.437 242.42 475.228 239.55 470.486 222.37C476.244 223.208 478.973 223.711 483.357 220.693L486.867 230.741C494.826 230.946 504.863 225.873 513.594 222.072Z" fill="#F7B690"/>
<path d="M518.361 242.132C515.973 239.873 516.695 238.216 518.112 236.433C519.529 234.65 523.948 232.724 528.959 236.707C533.97 240.69 533.672 247.185 532.265 248.955C530.858 250.726 528.79 250.442 526.864 248.911C525.614 247.917 525.321 246.495 525.256 245.615C525.223 245.122 525.259 244.81 525.259 244.81C524.178 244.674 523.511 244.016 523.194 242.893C523.194 242.893 522.94 243.052 522.493 243.186C521.614 243.464 519.968 243.664 518.361 242.132Z" fill="#ED6673"/>
<path d="M509.112 239.534L510.405 237.907C515.197 242.459 519.261 244.882 521.939 243.57C521.973 243.554 522.017 243.525 522.051 243.509C522.061 243.496 522.084 243.494 522.105 243.468C522.149 243.439 522.216 243.408 522.271 243.366C522.304 243.35 522.349 243.322 522.369 243.295C522.38 243.282 522.39 243.269 522.403 243.28C522.447 243.251 522.491 243.222 522.522 243.183C522.955 243.039 523.222 242.89 523.222 242.89C523.53 244.027 524.22 244.681 525.288 244.808C525.288 244.808 525.242 245.132 525.285 245.613C525 245.811 524.699 245.976 524.396 246.117C520.978 247.584 515.733 245.072 509.112 239.534Z" fill="#F5A17D"/>
<path d="M535.356 252.378L540.689 235.998C530.558 239.109 520.13 241.151 509.574 242.091L507.928 242.238L520.118 254.718L535.356 252.378Z" fill="#B6D2E3" fill-opacity="0.8"/>
<path d="M532.339 247.76C531.942 249.003 528.591 248.402 527.941 248.364C527.292 248.327 526.435 248.055 528.315 247.355C530.194 246.656 532.824 246.214 532.339 247.76Z" fill="#E8A28B"/>
<path d="M532.272 247.029C533.644 247.994 534.47 249.738 533.552 251.125C532.967 251.934 532.29 252.452 531.414 252.835C531.184 252.947 530.945 253.073 530.711 253.163C530.468 253.266 530.233 253.357 529.999 253.447C529.778 253.546 529.544 253.636 529.3 253.682C527.179 254.027 524.496 252.635 524.227 250.58C523.983 249.172 526.306 249.843 527.424 249.528C527.672 249.446 527.915 249.343 528.132 249.222C528.348 249.101 528.539 248.962 528.725 248.8C529.677 247.991 530.475 246.809 531.857 246.845C532.003 246.886 532.14 246.94 532.272 247.029Z" fill="#E8A28B"/>
<path d="M577.465 207.085C573.369 206.196 570.159 208.659 567.827 211.765C562.31 219.086 559.011 227.485 552.206 233.863C546.446 239.266 538.689 242.698 531.8 246.416C531.045 246.824 530.559 247 530.559 247C530.731 247.274 532.961 251.233 532.961 251.233C534.022 253.092 550.807 246.604 552.215 245.999C563.15 241.374 572.809 233.627 579.142 223.6C580.541 221.383 581.805 219.013 582.286 216.434C583.011 212.614 581.736 208.004 577.465 207.085Z" fill="#6FABE2"/>
<rect x="548.375" y="217.254" width="7.02031" height="2.3401" transform="rotate(21.2665 548.375 217.254)" fill="#275880"/>
<rect x="476.338" y="248.868" width="10.5305" height="2.3401" fill="#275880"/>
<rect x="564.092" y="251.208" width="10.5305" height="2.3401" fill="#275880"/>
<path d="M423.685 198.323H456.564V200.22H423.685V198.323Z" fill="#595855"/>
<path d="M452.56 196.216H456.564V349.652H452.56V196.216Z" fill="#595855"/>
<path d="M428.11 206.964C428.11 202.117 431.904 198.323 436.751 198.323C441.599 198.323 445.393 202.327 445.393 206.964V209.072H428.11V206.964Z" fill="#FAFCFB"/>
<path d="M445.393 209.073V226.566C445.393 231.414 441.599 235.208 436.751 235.208C431.904 235.208 428.11 231.414 428.11 226.566V209.073H445.393Z" fill="#FAFCFB"/>
<path d="M443.285 212.023V225.512C443.285 229.095 440.334 232.256 436.541 232.256C432.958 232.256 429.796 229.306 429.796 225.512V212.023H443.285Z" fill="#C1272D"/>
<path d="M427.231 254.383C428.683 249.705 429.973 243.737 427.554 238.737C426.747 237.125 425.618 235.673 424.328 234.221C424.005 233.899 423.844 233.576 423.683 233.415C422.231 231.641 420.78 229.544 419.651 227.608C418.683 226.157 418.038 224.705 417.876 223.415C417.554 221.802 418.038 220.35 419.005 219.383C420.618 217.77 423.522 218.415 424.973 219.866C425.457 220.35 425.941 220.996 426.425 221.479C427.07 222.447 427.876 223.415 428.844 224.06C430.457 225.028 432.554 225.189 434.167 224.221C435.78 223.254 436.747 221.318 436.586 219.544H435.457C435.618 220.996 434.812 222.447 433.522 223.254C432.231 224.06 430.618 223.899 429.328 223.092C428.522 222.608 427.876 221.641 427.231 220.834C426.747 220.189 426.263 219.544 425.78 219.06C423.844 217.125 420.296 216.479 418.199 218.576C417.07 219.705 416.425 221.641 416.747 223.576C417.07 225.189 417.876 226.802 418.683 228.254C419.973 230.35 421.425 232.286 422.876 234.221C423.038 234.544 423.36 234.866 423.683 235.189C424.812 236.479 425.941 237.931 426.747 239.383C429.005 244.06 427.715 249.705 426.425 254.221L427.231 254.383Z" fill="#C1272D"/>
<path d="M681.559 192.625H671.035V189.136H681.559C681.653 189.136 682.307 188.763 682.972 187.112C683.697 185.332 684.105 182.832 684.105 180.25V103.782H687.61V180.25C687.61 183.309 687.119 186.205 686.22 188.414C684.748 192.078 682.669 192.625 681.559 192.625Z" fill="white"/>
<path d="M524.45 129.92H469.365V165.16H524.45V129.92Z" fill="#272D52"/>
<path d="M526.202 166.915H467.613V128.187H526.202V166.915ZM471.117 163.426H522.698V131.676H471.117V163.426Z" fill="white"/>
<path d="M608.688 129.92H553.604V165.16H608.688V129.92Z" fill="#272D52"/>
<path d="M610.44 166.915H551.852V128.187H610.44V166.915ZM555.356 163.426H606.936V131.676H555.356V163.426Z" fill="white"/>
<path d="M496.768 129.919H493.264V124.221C493.264 118.917 497.597 114.603 502.923 114.603H538.081V118.092H502.923C499.536 118.092 496.768 120.836 496.768 124.221V129.919Z" fill="white"/>
<path d="M582.898 129.92H579.394V110.648C579.394 107.276 576.637 104.519 573.238 104.519H538.08V101.03H573.238C578.564 101.03 582.898 105.345 582.898 110.648V129.92Z" fill="white"/>
<path d="M538.08 125.244C536.141 125.244 534.576 123.686 534.576 121.755V67.489C534.576 65.5584 536.141 64 538.08 64C540.019 64 541.584 65.5584 541.584 67.489V121.755C541.584 123.674 540.019 125.244 538.08 125.244Z" fill="white"/>
<path d="M696.319 207.043C702.912 199.32 697.771 184.187 684.839 173.243C671.906 162.299 656.077 159.688 649.485 167.411C642.893 175.135 648.033 190.268 660.966 201.212C673.899 212.156 689.727 214.767 696.319 207.043Z" fill="white"/>
<path d="M693.874 208.003C700.229 200.558 695.143 185.86 682.514 175.174C669.886 164.488 654.498 161.86 648.144 169.305C641.79 176.749 646.876 191.447 659.504 202.133C672.132 212.819 687.52 215.447 693.874 208.003Z" fill="#B4C4D4"/>
<path d="M690.518 205.708C696.003 199.282 691.611 186.593 680.709 177.367C669.806 168.141 656.521 165.871 651.035 172.298C645.55 178.724 649.942 191.413 660.845 200.639C671.748 209.865 685.033 212.134 690.518 205.708Z" fill="white"/>
<path d="M413.59 188.489H403.066C401.956 188.489 399.877 187.943 398.406 184.279C397.518 182.069 397.016 179.174 397.016 176.115V99.6465H400.52V176.115C400.52 178.697 400.929 181.197 401.653 182.977C402.319 184.628 402.973 185 403.066 185H413.59V188.489Z" fill="white"/>
<path d="M423.657 197.094C436.59 186.15 441.73 171.017 435.138 163.293C428.545 155.57 412.717 158.181 399.784 169.125C386.851 180.069 381.711 195.202 388.304 202.925C394.896 210.649 410.724 208.038 423.657 197.094Z" fill="white"/>
<path d="M425.118 198.021C437.746 187.335 442.832 172.637 436.478 165.193C430.124 157.748 414.736 160.376 402.107 171.062C389.479 181.748 384.393 196.446 390.747 203.89C397.102 211.335 412.49 208.707 425.118 198.021Z" fill="#B4C4D4"/>
<path d="M423.781 196.527C434.683 187.301 439.075 174.612 433.59 168.185C428.105 161.759 414.82 164.028 403.917 173.255C393.014 182.481 388.622 195.169 394.108 201.596C399.593 208.022 412.878 205.753 423.781 196.527Z" fill="white"/>
<path d="M375.609 251.63C375.445 252.328 375.492 253.142 375.913 253.747C376.368 254.387 377.268 254.526 378.003 254.48C378.751 254.422 379.662 254.212 380.316 253.817C381.613 253.026 382.407 251.049 381.578 249.839C381.052 248.979 380.118 250.409 379.382 250.747C379.207 250.828 379.043 250.874 378.856 250.909C378.693 250.944 378.517 250.956 378.342 250.956C377.454 250.968 376.473 250.712 375.749 251.351C375.691 251.433 375.632 251.526 375.609 251.63Z" fill="#E8A28B"/>
<path d="M375.912 252.05C376.706 252.538 378.213 250.666 378.552 250.352C378.89 250.038 379.217 249.503 377.886 249.991C376.554 250.491 374.931 251.445 375.912 252.05Z" fill="#E8A28B"/>
<path d="M372.631 254.189C372.631 254.189 374.838 253.27 376.193 254.037C377.537 254.817 377.42 250.246 375.948 251.049C374.476 251.851 372.993 251.118 372.993 251.118L372.631 254.189Z" fill="#E8A28B"/>
<path d="M351.887 249.979C359.047 251.374 366.791 250.281 373.986 249.828C374.78 249.781 375.248 249.688 375.236 249.549L375.458 254.142C375.551 256.108 359.269 259.213 357.867 259.446C354.328 260.004 350.73 260.237 347.145 260.144L348.967 249.281C349.936 249.549 350.894 249.781 351.887 249.979Z" fill="white"/>
<path d="M351.759 206.748C353.051 201.301 349.663 195.843 344.193 194.557C338.722 193.271 333.24 196.644 331.948 202.091C330.657 207.538 334.044 212.996 339.515 214.282C344.985 215.569 350.467 212.196 351.759 206.748Z" fill="#000105"/>
<path d="M327.499 337.007C327.931 334.867 328.434 332.727 329.029 330.599C329.625 328.471 330.302 326.354 331.085 324.249C331.657 323.214 331.727 321.946 331.692 320.795C331.284 306.839 330.396 299.209 330.209 285.393C330.162 281.124 330.116 276.844 330.08 272.553C329.952 268.75 329.87 261.062 329.87 261.062L347.438 260.818C347.73 263.377 348.033 274.716 348.5 288.475C348.629 292.336 348.395 296.883 347.916 301.721C347.426 306.56 346.69 311.677 345.814 316.678C344.155 325.156 338.537 353.371 336.563 359.663C335.897 361.768 335.15 364.687 334.426 367.781C333.106 373.41 332.019 379.504 331.424 383.005H325.362C324.906 367.676 324.322 352.359 327.499 337.007Z" fill="#81B8EB"/>
<path d="M363.544 289.091C363.135 275.286 361.85 262.795 361.57 260.225L345.042 261.144C345.042 261.144 345.124 268.203 345.229 272.018C345.253 276.321 345.276 280.613 345.311 284.893C345.428 298.733 346.28 306.443 346.631 320.446C346.643 320.772 346.643 321.097 346.619 321.435L346.537 321.411C346.479 321.958 346.351 322.493 346.117 322.981C345.463 325.133 344.902 327.296 344.435 329.471C343.968 331.646 343.582 333.821 343.279 336.019C340.989 351.708 342.461 367.362 343.793 383.028H349.855C350.24 379.446 350.976 373.224 351.969 367.467C352.518 364.303 353.09 361.326 353.639 359.175C354.807 354.534 357.213 338.182 358.895 326.203C359.678 322.446 360.32 319.248 360.741 317.201C361.64 312.247 362.399 307.164 362.913 302.35C363.404 297.511 363.661 292.964 363.544 289.091Z" fill="#81B8EB"/>
<path d="M364.678 279.973C364.678 279.973 364.678 276.763 364.655 272.029C364.643 270.459 364.643 268.715 364.62 266.866C364.632 265.191 364.702 263.493 364.795 261.783C365.531 251.002 366.687 239.709 361.945 229.556C358.581 222.52 350.942 218.717 343.443 219.775C342.158 219.915 340.885 220.17 339.659 220.508C337.697 221.078 335.804 221.962 334.076 223.183C332.359 224.404 330.793 225.939 329.497 227.823C323.937 235.662 327.184 244.547 327.803 252.816C327.873 253.316 327.908 254.328 327.932 255.666C328.025 262.376 327.616 277.449 327.838 279.868C328.504 280.089 329.625 279.868 330.315 279.868C335.325 279.868 340.348 279.891 345.359 279.915C347.964 279.926 350.568 279.938 353.173 279.961C354.096 279.961 364.678 279.973 364.678 279.973Z" fill="#81B8EB"/>
<path d="M340.613 206.747C340.613 206.747 341.051 210.782 341.343 214.584C341.635 218.385 340.63 221.033 340.63 221.033L349.343 227.808L351.144 222.222C351.144 222.222 348.937 216.547 348.483 213.755C348.028 210.962 347.071 206.909 347.071 206.909L340.613 206.747Z" fill="#E8A28B"/>
<path d="M341.467 196.85C342.222 196.516 342.976 196.322 343.713 196.252C344.449 196.181 345.148 196.216 345.829 196.357C350.301 198.17 352.748 203.117 353.282 208.099C353.558 210.652 353.761 213.38 352.417 215.704C351.203 217.799 349.16 218.627 346.749 218.415C346.087 218.362 345.387 218.222 344.67 217.94C342.516 217.095 340.198 215.018 338.468 210.458C336.664 205.74 335.873 199.596 341.136 197.026C341.228 196.956 341.357 196.903 341.467 196.85Z" fill="#E8A28B"/>
<path fill-rule="evenodd" clip-rule="evenodd" d="M330.082 280.07L364.013 280.46L364.014 279.29H330.082V280.07Z" fill="#6084A6"/>
<path d="M336.502 211.024C336.502 211.024 339.729 212.54 339.558 209.69C339.387 206.84 338.894 196.775 342.994 195.703C347.094 194.632 348.802 197.361 348.802 197.361C348.802 197.361 345.689 191.742 339.216 194.774C332.762 197.806 331.87 206.941 336.502 211.024Z" fill="#000105"/>
<path d="M340.171 208.591C340.171 208.591 337.345 206.571 337.114 209.525C336.883 212.479 340.614 213.767 340.614 213.767L340.171 208.591Z" fill="#E8A28B"/>
<path d="M346.642 199.64C344.932 200.046 343.338 200.946 342.32 202.233C341.341 203.821 340.784 205.584 340.591 207.401C340.495 208.301 340.553 209.183 340.495 210.082C340.457 211.07 340.38 212.058 340.227 213.045C340.188 213.275 340.15 213.486 340.111 213.716C338.786 214.65 337.211 215.038 335.617 214.915C335.386 214.897 335.175 214.862 334.945 214.827C333.37 214.791 331.967 214.015 330.796 212.939C330.623 212.781 330.469 212.622 330.296 212.463C329.451 211.264 328.126 210.4 328.088 208.847C328.049 208.706 328.011 208.583 327.992 208.442C327.531 206.237 327.723 204.015 328.453 201.933C328.625 201.422 328.856 200.91 329.086 200.399C329.336 199.852 329.624 199.341 329.931 198.829C330.258 198.318 330.604 197.841 330.988 197.365C334.599 192.903 341.84 189.922 347.544 192.48C348.121 192.726 348.678 193.009 349.215 193.326C352.423 195.266 353.668 199.23 351.728 202.652C351.805 202.511 350.654 201.002 350.558 200.897C349.973 200.312 350.558 200.312 349.973 199.726C349.32 199.391 349.446 199.394 348.697 199.376C348.025 199.394 347.314 199.482 346.642 199.64Z" fill="#81B8EB"/>
<path d="M365.719 254.119C365.859 254.119 365.999 254.072 366.116 253.967C366.349 253.746 366.361 253.386 366.139 253.153L359.049 245.605C358.827 245.373 358.465 245.361 358.232 245.582C357.998 245.803 357.986 246.164 358.208 246.396L365.298 253.944C365.403 254.06 365.555 254.119 365.719 254.119Z" fill="#000105"/>
<path d="M361.302 253.2C362.271 252.839 363.556 252.805 364.14 251.804C364.724 250.804 364.572 249.548 363.895 248.699C362.972 247.757 361.909 248.699 361.068 249.164C360.846 249.327 360.624 249.49 360.402 249.664C359.748 250.176 359.117 250.723 358.358 251.118C358.078 251.304 357.809 251.479 357.587 251.618C357.132 251.909 356.828 252.084 356.828 252.084L358.767 254.747C358.767 254.747 359.059 254.491 359.515 254.165C359.748 254.002 360.017 253.828 360.321 253.665C360.624 253.479 360.963 253.328 361.302 253.2Z" fill="#E8A28B"/>
<path d="M326.552 237.244C326.715 234.824 327.066 232.382 328.117 230.196C329.659 226.974 333.104 224.229 336.772 225.834C340.3 227.381 341.339 230.963 341.386 234.545C341.479 241.291 340.148 247.78 340.416 254.421C346.514 253.77 352.611 251.7 358.428 250.153C358.743 250.072 359.012 249.99 359.21 249.909C359.432 249.827 359.689 249.955 359.747 250.188C360.051 251.386 360.74 254.096 360.74 254.096C361.219 256.003 345.871 262.248 344.54 262.737C343.5 263.121 342.46 263.47 341.398 263.795C337.263 265.063 332.789 263.446 330.418 259.853C329.951 259.155 329.589 258.399 329.32 257.608C327.089 251.072 326.073 244.129 326.552 237.244Z" fill="#6FABE2"/>
<path d="M378.799 241.93L375.236 240.465L376.311 238.476L379.873 239.953L378.799 241.93Z" fill="#C2F0F9"/>
<path d="M374.724 260.551L360.93 254.864L370.554 237.151L384.349 242.85L374.724 260.551Z" fill="#272D52"/>
<path d="M397.709 262.049C397.709 262.049 397.008 277.331 410.709 287.589C424.41 297.859 436.126 300.068 436.126 300.068C436.126 300.068 441.627 298.673 445.377 295.753C449.126 292.834 451.474 287.938 451.474 287.938C451.474 287.938 447.257 276.506 440.343 269.969C433.428 263.433 423.71 260.177 423.71 260.177C423.71 260.177 418.325 258.781 409.413 259.479C400.501 260.177 397.709 262.049 397.709 262.049Z" fill="#5484CC"/>
<path d="M474.509 270.051C471.134 267.573 467.454 265.468 463.6 263.724C461.673 262.852 459.687 262.084 457.69 261.409C447.621 258.781 432.273 253.768 425.884 264.968C425.148 266.527 424.646 268.225 424.412 269.992C424.19 271.76 424.237 273.621 424.622 275.528C425.755 281.46 429.119 285.693 433.465 288.787C434.551 289.554 435.707 290.252 436.899 290.892C444.444 294.648 452.749 296.346 460.633 299.405C464.756 292.101 468.19 284.565 471.683 276.959C472.384 275.435 473.084 273.912 473.797 272.4C474.369 271.121 474.685 270.225 474.509 270.051C474.521 270.051 474.509 270.051 474.509 270.051Z" fill="#E8A28B"/>
<path d="M415.492 265.796C415.492 265.796 418.574 266.91 421.432 268.067C424.29 269.224 426.307 271.095 426.307 271.095C426.307 271.095 430.215 271.38 431.518 267.181C432.821 262.982 430.117 262.539 430.117 262.539C430.117 262.539 425.873 262.582 423.673 261.925C421.474 261.268 418.182 260.568 418.182 260.568L415.492 265.796Z" fill="#E8A28B"/>
<path d="M408.487 259.965C408.515 259.288 408.656 258.669 408.854 258.122C409.066 257.56 409.349 257.07 409.716 256.638C412.683 254.132 417.233 254.305 421.104 255.861C421.881 256.177 422.63 256.537 423.322 256.955C426.247 258.021 428.508 261.694 426.318 264.574C426.035 265.035 425.668 265.482 425.201 265.885C423.788 267.109 421.415 267.959 417.402 267.426C413.262 266.879 408.445 265.05 408.473 260.268C408.487 260.167 408.487 260.066 408.487 259.965Z" fill="#E8A28B"/>
<path d="M413.417 255.373C413.63 255.679 413.716 256.082 413.716 256.527C413.716 257.639 413.175 258.779 412.649 259.738C412.151 260.669 411.54 262.031 412.052 263.087C412.805 264.616 415.309 264.38 416.689 264.978C417.414 265.283 417.898 265.673 417.826 266.173C417.741 266.785 417.855 267.132 417.798 267.382C417.656 268.174 415.408 268.633 414.797 268.703C410.601 269.217 405.822 266.117 406.149 261.656C406.376 258.528 408.752 254.609 412.364 254.72C412.848 254.803 413.204 255.04 413.417 255.373Z" fill="#000105"/>
<path d="M417.988 265.249C417.988 265.249 415.56 266.241 417.28 266.926C421.125 268.46 419.945 266.977 421.344 266.036L417.988 265.249Z" fill="#E8A28B"/>
<path d="M434.328 305.907C435.727 305.907 436.862 304.71 436.862 303.233C436.862 301.755 435.727 300.558 434.328 300.558C432.928 300.558 431.793 301.755 431.793 303.233C431.793 304.71 432.928 305.907 434.328 305.907Z" fill="#B4C4D4"/>
<path d="M539.077 299.849L492.25 370.921L496.397 373.968L543.223 302.896L539.077 299.849Z" fill="#B4C4D4"/>
<path d="M539.077 373.968L492.25 302.896L496.397 299.849L543.223 370.921L539.077 373.968Z" fill="#B4C4D4"/>
<path d="M607.466 303.813H435.986C435.309 303.813 434.748 303.267 434.748 302.58C434.748 298.463 438.1 295.125 442.235 295.125H601.217C605.352 295.125 608.704 298.463 608.704 302.58C608.704 303.267 608.143 303.813 607.466 303.813Z" fill="#272D52"/>
<path d="M604.51 303.907H438.941C438.52 303.907 438.182 304.244 438.182 304.663C438.182 307.186 440.237 309.233 442.772 309.233H600.679C603.214 309.233 605.27 307.186 605.27 304.663C605.27 304.244 604.931 303.907 604.51 303.907Z" fill="#B4C4D4"/>
<path d="M433.93 303.302L387.583 271.971C387.279 271.761 387.185 271.331 387.384 271.005C389.638 267.295 394.322 266.214 397.838 268.598L432.564 292.068C436.08 294.44 437.107 299.383 434.853 303.093C434.655 303.407 434.246 303.512 433.93 303.302Z" fill="#272D52"/>
<path d="M431.034 301.441L388.844 272.924C388.657 272.796 388.412 272.854 388.295 273.052L388.248 273.133C386.894 275.378 387.501 278.355 389.627 279.786L424.796 303.558C426.922 304.988 429.749 304.337 431.104 302.104L431.15 302.023C431.267 301.813 431.209 301.557 431.034 301.441Z" fill="#B4C4D4"/>
<path d="M602.844 292.171C602.728 291.833 602.622 291.508 602.529 291.17C601.98 289.286 601.992 286.798 600.637 285.251C600.286 284.855 599.831 284.576 599.329 284.413C598.955 284.32 598.604 284.204 598.254 284.204C593.885 285.262 590.288 287.449 585.616 287.681C582.579 287.833 579.542 287.46 576.528 287.1C573.106 286.681 569.695 286.263 566.273 285.821C555.597 284.425 544.945 282.75 534.362 280.785C524.142 278.889 514.25 276.733 503.831 275.78C497.863 275.233 496.43 275.01 490.613 273.417C484.656 271.777 492.263 274.598 486.586 272.191C486.084 271.993 467.477 265.424 466.975 265.249C466.472 265.075 465.722 264.839 465.22 264.665C463.783 264.292 464.635 263.495 456.628 264.91C456.628 268.306 435.616 276.249 434.799 288.833C433.981 301.428 454.982 318.734 457.213 329.469C459.444 340.203 456.512 355.008 456.512 355.008C456.512 355.008 518.839 358.393 546.019 356.055C573.199 353.717 609.28 357.683 609.28 357.683C609.28 357.683 609.28 298.846 609.28 298.66C609.28 298.998 606.162 297.311 605.928 297.113C604.421 295.788 603.487 294.031 602.844 292.171Z" fill="#5484CC"/>
<path d="M426.961 255.627L435.84 253.551C437.777 253.098 438.978 251.275 438.702 249.643C438.4 247.863 436.56 246.905 434.784 247.32L425.905 249.396C423.968 249.849 422.766 251.672 423.043 253.304C423.319 254.935 425.185 256.042 426.961 255.627Z" fill="#F7665F"/>
<path d="M420.175 255.4C420.175 255.4 421.788 261.045 426.949 260.561C426.949 260.561 430.013 252.336 420.175 255.4Z" fill="#7D9E96"/>
<path d="M658.643 223.262C657.924 225.298 657.937 228.609 656.545 232.842C652.262 230.867 647.21 231.643 644.685 231.529C644.417 235.008 644.945 234.175 643.93 237.435C651.674 239.761 660.178 241.622 662.07 238.992C664.657 235.692 665.773 230.59 667.213 226.517C667.496 225.976 667.573 225.499 667.791 224.752C663.218 224.601 662.15 225.785 658.643 223.262Z" fill="#FFB288"/>
<path d="M634.881 228.18C626.711 226.218 623.435 228.325 630.922 232.206C633.145 233.265 638.831 235.994 644.682 238.466C646.188 235.26 646.269 234.71 646.582 231.104C642.718 230.627 638.416 229.171 634.881 228.18Z" fill="#6084A6"/>
<path d="M632.011 227.133C631.429 226.429 630.547 225.76 629.842 225.225C628.66 224.59 627.778 223.921 626.473 223.454C626.173 223.488 625.573 223.556 625.273 223.59C625.273 223.59 625.149 223.758 624.973 223.624L624.673 223.658C624.549 223.826 624.126 224.028 623.826 224.063C623.579 224.399 623.155 224.601 623.526 224.097C623.402 224.265 623.279 224.433 623.155 224.601C623.155 224.601 623.155 224.601 623.332 224.734L623.208 224.902C622.414 225.608 622.625 226.816 623.084 227.687C623.542 228.558 624.424 229.227 625.306 229.897C627.193 231.067 629.328 231.902 631.145 230.925C631.569 230.723 631.992 230.521 632.363 230.017C632.804 229.043 632.77 227.97 632.011 227.133Z" fill="#6084A6"/>
<path d="M630.632 223.235C630.422 222.8 630.08 222.536 629.777 222.575C629.475 222.614 629.211 222.956 629.118 223.43C629.025 223.904 629.064 224.207 629.104 224.51C629.143 224.813 629.182 225.116 629.221 225.419C629.338 226.327 630.834 230.753 632.206 228.266C632.695 227.279 632.05 227.055 631.63 226.185C631.038 225.184 631.053 224.104 630.632 223.235Z" fill="#6084A6"/>
<path d="M661.406 205.847C656.773 203.937 654.573 198.649 656.492 194.036C658.411 189.424 663.722 187.233 668.354 189.144C672.987 191.055 675.187 196.343 673.268 200.955C671.349 205.568 666.038 207.758 661.406 205.847Z" fill="#000105"/>
<path d="M676.842 327.659C676.41 325.519 675.908 323.379 675.312 321.262C674.717 319.134 674.039 317.017 673.257 314.924C672.684 313.889 672.614 312.621 672.649 311.47C673.058 297.525 673.946 289.884 674.121 276.091C674.168 271.822 674.214 267.554 674.249 263.251C674.378 259.448 674.46 251.772 674.46 251.772L656.892 251.528C656.6 254.086 656.297 265.426 655.829 279.173C655.701 283.034 655.935 287.581 656.413 292.408C656.904 297.234 657.64 302.352 658.516 307.353C660.175 315.819 665.781 344.034 667.767 350.314C668.433 352.42 669.18 355.339 669.904 358.432C671.224 364.061 672.31 370.156 672.894 373.656H678.957C679.435 358.316 680.02 342.999 676.842 327.659Z" fill="#81B8EB"/>
<path d="M641.345 280.062C641.753 266.269 643.038 253.79 643.319 251.208L659.835 252.127C659.835 252.127 659.753 259.174 659.648 262.989C659.624 267.292 659.601 271.584 659.566 275.852C659.449 289.692 658.596 297.391 658.246 311.382C658.234 311.708 658.234 312.033 658.258 312.371L658.339 312.347C658.398 312.894 658.526 313.429 658.76 313.918C659.414 316.069 659.975 318.232 660.442 320.396C660.909 322.57 661.295 324.745 661.598 326.943C663.888 342.621 662.416 358.275 661.084 373.929H655.022C654.637 370.359 653.901 364.125 652.908 358.368C652.359 355.205 651.787 352.227 651.238 350.076C650.07 345.435 647.664 329.083 645.982 317.116C645.199 313.359 644.557 310.161 644.136 308.126C643.237 303.171 642.478 298.089 641.975 293.286C641.485 288.471 641.228 283.935 641.345 280.062Z" fill="#81B8EB"/>
<path d="M639.774 270.596C639.774 270.596 639.774 267.386 639.797 262.664C639.809 261.094 639.809 259.35 639.832 257.501C639.82 255.826 639.75 254.128 639.657 252.418C638.921 241.649 637.765 230.344 642.507 220.203C645.859 213.166 653.51 209.363 660.997 210.433C662.282 210.573 663.555 210.829 664.77 211.166C666.732 211.736 668.765 211.933 670.482 213.154C672.199 214.375 677.364 216.535 678.673 218.42C684.232 226.258 677.233 235.194 676.613 243.463C676.543 243.963 676.508 244.975 676.485 246.312C676.392 253.011 676.8 268.084 676.578 270.503C675.913 270.724 674.791 270.503 674.102 270.503C669.091 270.503 664.08 270.526 659.07 270.55C656.465 270.561 653.86 270.573 651.267 270.596C650.344 270.596 639.774 270.596 639.774 270.596Z" fill="#81B8EB"/>
<path d="M667.039 199.726C667.039 199.726 666.601 203.297 666.309 206.692C666.017 210.071 667.023 212.425 667.023 212.425L658.31 218.446L656.509 213.482C656.509 213.482 658.715 208.437 659.17 205.955C659.624 203.457 660.581 199.87 660.581 199.87L667.039 199.726Z" fill="#E8A28B"/>
<path d="M665.339 189.796C664.638 189.479 663.936 189.295 663.252 189.228C662.568 189.162 661.918 189.195 661.285 189.329C657.145 191.048 654.852 195.739 654.356 200.464C654.099 202.884 653.911 205.455 655.16 207.659C656.289 209.645 658.188 210.413 660.412 210.23C661.028 210.18 661.678 210.046 662.345 209.779C664.347 208.978 666.486 207.008 668.111 202.684C669.787 198.227 670.523 192.384 665.63 189.963C665.545 189.879 665.442 189.829 665.339 189.796Z" fill="#E8A28B"/>
<path d="M669.247 202.913C669.247 202.913 666.519 204.126 666.663 201.846C666.808 199.566 667.225 191.514 663.759 190.657C660.292 189.8 658.848 191.983 658.848 191.983C658.848 191.983 661.48 187.488 666.952 189.913C672.424 192.339 673.179 199.647 669.247 202.913Z" fill="#000105"/>
<path d="M666.164 202.47C666.164 202.47 668.048 201.258 668.202 203.03C668.356 204.803 665.869 205.576 665.869 205.576L666.164 202.47Z" fill="#E8A28B"/>
<path d="M661.267 193.401C662.744 193.786 664.122 194.641 664.986 195.864C665.832 197.355 666.314 199.047 666.48 200.757C666.563 201.611 666.513 202.449 666.563 203.303C666.596 204.242 666.662 205.18 666.795 206.118C666.828 206.336 666.861 206.537 666.895 206.755C668.04 207.643 669.401 208.012 670.762 207.895C670.962 207.878 671.144 207.844 671.343 207.811C672.705 207.777 673.917 207.04 674.929 206.018C675.079 205.867 675.211 205.716 675.361 205.565C676.091 204.426 677.237 203.605 677.27 202.131C677.303 201.996 677.336 201.879 677.353 201.745C677.751 199.651 677.585 197.539 676.954 195.562C676.805 195.076 676.606 194.59 676.407 194.104C676.191 193.585 675.942 193.099 675.676 192.613C675.394 192.127 675.095 191.675 674.763 191.222C671.642 186.983 665.401 184.151 660.47 186.581C659.972 186.816 659.491 187.084 659.026 187.385C656.254 189.228 654.278 192.312 655.955 195.562C655.889 195.428 656.503 194.607 656.586 194.507C656.868 194.121 657.2 193.786 657.615 193.551C658.179 193.233 658.827 193.149 659.474 193.133C660.072 193.166 660.686 193.25 661.267 193.401Z" fill="#81B8EB"/>
<path d="M666.612 202.472C666.612 202.472 662.081 200.932 658.436 200.076C654.791 199.22 654.529 200.201 654.529 200.201C654.529 200.201 653.888 202.457 654.315 205.211C654.742 207.965 656.006 208.82 656.597 209.458C657.188 210.096 660.029 211.061 663.394 209.038C666.76 207.016 667.039 205.397 667.039 205.397C667.039 205.397 664.084 208.416 663.017 205.475C661.687 201.928 666.612 202.472 666.612 202.472Z" fill="white"/>
<path d="M645.668 233.997H625.234L615.574 205.575H636.009L645.668 233.997Z" fill="#4A677C"/>
<path d="M635.265 207.618H630.436V207.433H635.08L635.265 207.618Z" fill="#79AAC9"/>
<path d="M635.451 208.175H630.621V207.989H635.265L635.451 208.175Z" fill="#79AAC9"/>
<path d="M635.633 208.734H630.803V208.548H635.447L635.633 208.734Z" fill="#79AAC9"/>
<path d="M673.585 230.898C672.337 232.694 671.499 235.727 669.011 239.47C665.212 237.252 659.933 237.479 657.424 237.133C656.26 240.293 657.005 239.58 655.146 242.469C662.335 245.34 670.408 247.858 672.986 245.631C676.435 242.857 678.87 238.291 681.365 234.7C681.788 234.231 681.988 233.802 682.4 233.139C677.84 232.562 676.462 233.544 673.585 230.898Z" fill="#FFB288"/>
<path d="M669.421 223.5C669.115 227.665 668.153 232.541 667.988 237.709C672.516 238.435 676.819 238.235 681.728 236.131C681.963 231.464 681.263 226.725 681.499 222.058C682.238 213.062 669.843 217.729 669.421 223.5Z" fill="#75A6D5"/>
<path d="M648.855 231.701C641.357 229.247 637.64 230.882 643.999 235.016C645.911 236.159 650.794 239.102 655.901 241.825C658.159 239.048 658.374 238.557 659.565 235.318C655.908 234.566 652.064 232.891 648.855 231.701Z" fill="#6084A6"/>
<path d="M645.976 229.256C645.593 228.488 644.902 227.722 644.349 227.11C643.349 226.346 642.657 225.58 641.487 224.972C641.178 224.975 640.56 224.979 640.251 224.982C640.251 224.982 640.081 225.137 639.943 224.984L639.634 224.986C639.463 225.142 638.984 225.3 638.675 225.302C638.334 225.613 637.854 225.771 638.366 225.304C638.196 225.46 638.025 225.615 637.854 225.771C637.854 225.771 637.854 225.771 637.993 225.924L637.822 226.08C636.831 226.704 636.702 227.939 636.914 228.863C637.126 229.786 637.817 230.552 638.509 231.318C640.062 232.694 641.956 233.759 644.044 232.972C644.524 232.815 645.003 232.657 645.515 232.19C646.229 231.259 646.497 230.178 645.976 229.256Z" fill="#6084A6"/>
<path d="M645.347 225.458C645.241 224.999 644.966 224.694 644.659 224.696C644.352 224.698 644.013 225.007 643.812 225.469C643.61 225.93 643.578 226.237 643.546 226.544C643.514 226.851 643.481 227.158 643.449 227.465C643.353 228.386 643.792 232.983 645.721 230.669C646.432 229.744 645.85 229.442 645.639 228.523C645.291 227.452 645.557 226.377 645.347 225.458Z" fill="#6084A6"/>
<path fill-rule="evenodd" clip-rule="evenodd" d="M675.386 271.684L643.071 272.269L643.07 270.514H675.386V271.684Z" fill="#6084A6"/>
<path d="M468.263 220.024C467.704 217.665 467.316 215.228 467.673 212.829C468.193 209.295 470.672 205.654 474.65 206.102C478.477 206.536 480.53 209.65 481.635 213.058C483.72 219.474 484.646 224.468 486.868 230.732C492.499 228.306 496.228 228.392 500.323 227.222C500.6 227.051 504.418 225.467 505.589 225.467C506.174 226.637 506.309 226.256 507.344 227.807C509.684 231.317 509.684 230.732 509.684 230.732C510.705 232.413 494.43 239.232 493.303 240.093C492.424 240.767 491.297 241.222 490.378 241.848C486.803 244.282 481.974 243.208 478.646 240.477C477.993 239.949 477.423 239.334 476.933 238.658C472.868 233.074 469.843 226.743 468.263 220.024Z" fill="#6FABE2"/>
<rect x="354.652" y="235.968" width="7.02031" height="2.3401" transform="rotate(-19.2154 354.652 235.968)" fill="#275880"/>
<rect x="341.781" y="265.256" width="7.02031" height="2.3401" transform="rotate(-0.0593605 341.781 265.256)" fill="#275880"/>
<rect x="646.842" y="221.957" width="7.02031" height="2.3401" transform="rotate(21.2665 646.842 221.957)" fill="#275880"/>
<rect x="658.865" y="257.058" width="10.5305" height="2.3401" fill="#275880"/>
<path d="M499.16 210.31L498.461 211.406L496.687 221.051C496.586 221.342 496.778 221.7 497.268 221.656C497.562 221.723 497.956 221.5 497.961 221.03L499.112 214.54C499.112 214.54 500.903 212.124 499.16 210.31Z" fill="#2D3A4B"/>
<rect x="495.059" y="217.277" width="7.02031" height="2.3401" fill="#275880"/>
<rect x="495.059" y="219.617" width="7.02031" height="5.85026" fill="#6FABE2"/>
</g>
<path d="M-2 0V328L234 201.619L225.5 235.5L462.5 113L447 145L715 0H-2Z" fill="#CBEFF3"/>
<mask id="mask2" mask-type="alpha" maskUnits="userSpaceOnUse" x="-2" y="0" width="717" height="328">
<path d="M-2 0V328L234 201.619L225.5 235.5L462.5 113L447 145L715 0H-2Z" fill="#C4C4C4"/>
</mask>
<g mask="url(#mask2)">
<path d="M122.447 267.952H217.24C220.232 267.952 222.594 265.578 222.594 262.571V21.3809C222.594 18.3739 220.232 16 217.24 16H122.447C119.455 16 117.093 18.3739 117.093 21.3809V262.571C117.25 265.578 119.612 267.952 122.447 267.952Z" fill="#6FB5BB" stroke="#73C9BD" stroke-miterlimit="10"/>
<path d="M241.805 84.5266C243.065 84.5266 244.01 83.5771 244.01 82.311V25.6535C244.01 24.3874 243.065 23.4379 241.805 23.4379C240.546 23.4379 239.601 24.3874 239.601 25.6535V82.1527C239.443 83.4188 240.546 84.5266 241.805 84.5266Z" fill="#73C9BD"/>
<path d="M223.611 76.1253V71.5357H244.082V76.1253H223.611Z" fill="#73C9BD"/>
<path d="M223.553 38.358V33.7684L244.023 33.7684V38.358H223.553Z" fill="#73C9BD"/>
<path d="M260.686 42.9951V47.5847H223.524V42.9951H260.686Z" fill="#EF7A24"/>
<path d="M258.497 80.2541H262.906V45.2784C262.906 44.0123 261.961 43.0627 260.702 43.0627H258.497V80.2541Z" fill="#EF7A24"/>
<path d="M118.242 129.204H221.77V166.938H118.242V129.204Z" fill="#D7EBDC"/>
<path d="M186.064 133.587H212.203V162.074H186.064V133.587Z" fill="#73C9BD"/>
<path d="M188.74 136.594H209.525V159.226H188.74V136.594Z" fill="#C3E1CB"/>
<path d="M199.133 154.161C195.654 154.161 192.835 151.326 192.835 147.83C192.835 144.334 195.654 141.5 199.133 141.5C202.612 141.5 205.432 144.334 205.432 147.83C205.432 151.326 202.612 154.161 199.133 154.161Z" fill="#D7EBDC" stroke="#73C9BD" stroke-miterlimit="10"/>
<path d="M199.133 141.5C202.597 141.5 205.432 144.348 205.432 147.83C205.432 148.78 205.274 149.571 204.959 150.362L196.771 142.133C197.401 141.816 198.188 141.5 199.133 141.5Z" fill="#D7EBDC" stroke="#73C9BD" stroke-miterlimit="10"/>
<path d="M202.125 153.37C201.18 153.845 200.235 154.161 199.133 154.161C195.669 154.161 192.835 151.313 192.835 147.831C192.835 146.723 193.15 145.774 193.622 144.824L202.125 153.37Z" fill="#D7EBDC" stroke="#73C9BD" stroke-miterlimit="10"/>
<path d="M196.617 142.134L204.805 150.363C204.175 151.629 203.23 152.737 201.97 153.37L193.467 144.824C194.255 143.716 195.357 142.609 196.617 142.134Z" fill="#D9EEE7" stroke="#73C9BD" stroke-miterlimit="10"/>
<path d="M159.925 142.135C162.444 142.135 164.334 144.192 164.334 146.566C164.334 147.199 164.177 147.832 164.019 148.307L158.193 142.451C158.665 142.293 159.295 142.135 159.925 142.135Z" fill="#D7EBDC" stroke="#73C9BD" stroke-miterlimit="10"/>
<path d="M161.971 150.523C161.341 150.839 160.554 151.156 159.924 151.156C157.404 151.156 155.515 149.098 155.515 146.724C155.515 145.933 155.672 145.3 156.145 144.667L161.971 150.523Z" fill="#D7EBDC" stroke="#73C9BD" stroke-miterlimit="10"/>
<path d="M158.193 142.453L164.02 148.467C163.547 149.416 162.917 150.049 162.13 150.524L156.146 144.51C156.461 143.56 157.249 142.927 158.193 142.453Z" fill="#D9EEE7" stroke="#73C9BD" stroke-miterlimit="10"/>
<path d="M199.133 141.5C202.597 141.5 205.432 144.348 205.432 147.83C205.432 148.78 205.274 149.571 204.959 150.362L196.771 142.133C197.401 141.816 198.188 141.5 199.133 141.5Z" fill="#D7EBDC" stroke="#73C9BD" stroke-miterlimit="10"/>
<path d="M202.125 153.37C201.18 153.845 200.235 154.161 199.133 154.161C195.669 154.161 192.835 151.313 192.835 147.831C192.835 146.723 193.15 145.774 193.622 144.824L202.125 153.37Z" fill="#D7EBDC" stroke="#73C9BD" stroke-miterlimit="10"/>
<path d="M196.617 142.134L204.805 150.363C204.175 151.629 203.23 152.737 201.97 153.37L193.467 144.824C194.255 143.716 195.357 142.609 196.617 142.134Z" fill="#D9EEE7" stroke="#73C9BD" stroke-miterlimit="10"/>
<path d="M145.122 142.135C147.642 142.135 149.531 144.192 149.531 146.566C149.531 147.199 149.374 147.832 149.216 148.307L143.39 142.451C143.863 142.293 144.492 142.135 145.122 142.135Z" fill="#D7EBDC" stroke="#73C9BD" stroke-miterlimit="10"/>
<path d="M147.326 150.523C146.696 150.839 145.909 151.156 145.279 151.156C142.76 151.156 140.87 149.098 140.87 146.724C140.87 145.933 141.028 145.3 141.5 144.667L147.326 150.523Z" fill="#D7EBDC" stroke="#73C9BD" stroke-miterlimit="10"/>
<path d="M143.393 142.451L149.219 148.307C148.746 149.257 148.117 149.89 147.329 150.364L141.346 144.351C141.66 143.559 142.448 142.926 143.393 142.451Z" fill="#D9EEE7" stroke="#73C9BD" stroke-miterlimit="10"/>
<path d="M128.385 20.0815H211.73C213.387 20.0815 214.73 21.4247 214.73 23.0815V68.3617C214.73 70.0186 213.387 71.3617 211.73 71.3617H128.385C126.729 71.3617 125.385 70.0186 125.385 68.3617V23.0815C125.385 21.4247 126.729 20.0815 128.385 20.0815Z" fill="white"/>
<path d="M132.295 61.5776V61.5942L132.294 61.6107C132.173 63.4241 133.75 65.0561 135.753 65.0561H204.743C206.715 65.0561 208.201 63.4469 208.201 61.5776V28.8974C208.201 26.9094 206.596 25.4189 204.743 25.4189H135.753C133.781 25.4189 132.295 27.0281 132.295 28.8974V61.5776Z" fill="#ECF5F0" stroke="#73C9BD"/>
<path d="M162.818 67.2805H177.19C179.392 67.2805 181.131 65.5389 181.131 63.3329V59.6175C181.131 57.4115 179.392 55.6699 177.19 55.6699H162.818C160.616 55.6699 158.877 57.4115 158.877 59.6175V63.3329C158.993 65.5389 160.732 67.2805 162.818 67.2805Z" fill="#73C9BD"/>
<path d="M60.14 81.981L80.3398 117.306L74.4905 120.651L54.2907 85.3258L60.14 81.981Z" fill="#B2B2B2"/>
<path d="M81.6107 75.1116L101.811 110.437L95.9612 113.782L75.7614 78.4564L81.6107 75.1116Z" fill="#B2B2B2"/>
<path d="M155.081 121.935C155.213 121.869 155.279 121.605 155.345 121.473C155.874 118.632 157.459 116.056 159.771 114.338C160.101 114.074 160.432 113.81 160.432 113.413C160.432 112.819 159.639 112.489 159.507 111.96C157.261 114.669 154.883 117.575 154.42 121.01C154.42 121.208 154.354 121.473 154.486 121.671C154.618 121.935 154.883 122.067 155.081 121.935Z" fill="#F59B21"/>
<path d="M134.534 146.575H251.855V143.536C251.855 138.45 247.76 134.354 242.673 134.354H146.623C139.951 134.354 134.534 139.771 134.534 146.443V146.575Z" fill="#43C0C9"/>
<path d="M141.141 153.314H245.185C248.818 153.314 251.791 150.341 251.791 146.708V146.642H134.469V146.708C134.536 150.341 137.442 153.314 141.141 153.314Z" fill="#CECECE"/>
<path d="M84.4608 315.621L110.885 315.819L170.933 293.689C171.725 293.425 172.584 293.293 173.443 293.491L294.001 317.008L343.348 317.338V330.88C343.216 332.532 342.225 334.117 340.309 334.778L264.407 362.787C258.726 364.901 252.516 365.363 246.571 364.24L88.1601 333.259C85.848 332.796 84.5929 331.013 84.4608 329.097V315.621Z" fill="#B2B2B2"/>
<path d="M339.584 313.176L173.312 280.675C172.454 280.543 171.595 280.609 170.802 280.873L87.4352 311.657C83.0092 313.308 83.5377 319.65 88.1618 320.575L246.572 351.556C252.518 352.746 258.727 352.217 264.408 350.103L340.311 322.094C344.737 320.442 344.208 314.035 339.584 313.176Z" fill="#E0E0E0"/>
<path d="M273.13 227.564H228.143V329.164L281.057 312.715L273.13 227.564Z" fill="#CECECE"/>
<path d="M141.34 313.375L228.143 329.163V231.99H141.34V313.375Z" fill="#B2B2B2"/>
<path d="M190.752 183.039H287.397C299.155 183.039 308.932 191.759 310.583 203.121C310.716 204.178 310.848 205.301 310.848 206.424V217.985L235.011 245.069L232.501 227.365L114.981 210.52L190.752 183.039Z" fill="#43C0C9"/>
<path d="M114.915 210.125H211.56C224.508 210.125 234.945 220.629 234.945 233.51V245.071H149.464C130.373 245.071 114.915 229.613 114.915 210.521V210.125Z" fill="#365FAC"/>
<path d="M116.304 90.9535L55.9254 107.336L115.115 210.389L193.131 189.184L143.058 102.051C137.707 92.671 126.675 88.179 116.304 90.9535Z" fill="#43C0C9"/>
<path d="M176.55 139.507C176.748 142.15 174.568 144.594 171.794 144.528C170.671 144.462 167.302 143.603 166.245 143.14C159.771 140.366 154.156 138.714 148.607 134.421C143.586 130.523 138.962 124.313 136.914 118.038C136.584 116.981 136.32 115.924 136.452 114.867C136.848 111.828 140.482 110.111 143.52 110.639C146.559 111.168 149.069 113.215 151.381 115.197C158.714 121.341 167.698 126.626 174.965 132.769C176.88 134.288 176.418 137.393 176.55 139.507Z" fill="url(#paint0_linear)"/>
<path d="M151.711 136.072C150.522 130.061 153.098 123.455 157.986 119.756C157.061 118.831 156.203 117.972 154.948 117.576C150.984 121.341 148.54 126.428 148.738 131.844C148.738 132.835 148.87 133.892 149.399 134.751C149.927 135.61 150.72 136.072 151.711 136.072Z" fill="#F5BF21"/>
<path d="M55.8576 107.468L55.7255 107.534C47.6663 109.78 43.9009 119.028 48.0626 126.295L94.04 206.359C96.9466 211.446 102.958 213.89 108.639 212.304L115.047 210.521L55.8576 107.468Z" fill="#365FAC"/>
<path d="M232.964 224.064L302.128 319.85L325.712 310.601L358.213 297.918C367.593 294.351 370.962 282.856 365.083 274.731L310.056 198.168L308.008 195.262L232.964 224.064Z" fill="#43C0C9"/>
<path opacity="0.26" d="M341.566 255.309C345.331 268.389 345.463 282.988 339.188 295.011C335.951 301.221 331.261 306.373 325.712 310.601L358.213 297.918C367.593 294.351 370.962 282.856 365.083 274.731L310.056 198.168C314.614 205.038 319.172 211.974 323.532 218.911C330.732 230.405 337.801 242.23 341.566 255.309Z" fill="#365FAC"/>
<path d="M232.965 224.062L232.304 224.921C224.575 227.96 222.395 237.274 227.284 244.012L280.99 317.999C284.425 322.689 290.569 324.473 295.985 322.359L302.129 319.915L232.965 224.062Z" fill="#365FAC"/>
<path d="M309.725 278.627V278.561C309.791 274.531 307.875 271.625 305.497 268.586C305.101 268.058 301.071 262.707 300.477 263.764C303.449 257.884 310.782 256.761 315.934 260.593C321.087 264.424 323.531 270.898 329.741 273.54C332.648 274.796 335.554 276.051 338.593 276.645C341.301 277.174 343.349 276.447 346.058 276.117C347.313 275.985 348.634 275.853 349.691 276.579C350.616 277.24 350.946 278.429 350.814 279.552C350.682 280.675 350.087 281.666 349.493 282.591C346.718 286.422 342.689 288.338 337.998 288.734C335.818 288.932 333.11 289.064 330.93 288.602C327.957 287.941 326.042 286.818 322.739 287.413C318.445 288.206 311.971 290.32 309.923 284.705C309.13 282.789 309.659 280.675 309.725 278.627Z" fill="url(#paint1_linear)"/>
<path d="M294.07 285.101V285.035C294.137 280.808 292.089 277.769 289.645 274.598C289.248 274.07 284.954 268.454 284.426 269.578C287.597 263.434 295.194 262.245 300.61 266.275C306.027 270.304 308.604 277.042 315.077 279.817C318.116 281.138 321.155 282.393 324.392 283.054C327.232 283.582 329.412 282.855 332.187 282.525C333.508 282.393 334.895 282.261 335.952 282.988C336.877 283.648 337.273 284.969 337.141 286.092C337.009 287.281 336.415 288.338 335.754 289.263C332.847 293.293 328.62 295.275 323.797 295.671C321.485 295.869 318.645 296.067 316.399 295.539C313.294 294.878 311.246 293.689 307.811 294.284C303.319 295.076 296.515 297.322 294.401 291.443C293.542 289.527 294.07 287.281 294.07 285.101Z" fill="url(#paint2_linear)"/>
<path d="M58.1709 99.1436L99.392 88.2438C108.905 85.7336 113.397 74.8998 108.508 66.3782L105.668 61.4237C102.299 55.5444 95.4284 52.6378 88.8885 54.4214L40.0045 67.369L58.1709 99.1436Z" fill="#43C0C9"/>
<path d="M52.0278 100.928L58.4355 99.2109L40.2692 67.4363L40.1371 67.5024C32.3421 69.6163 28.6427 78.4683 32.6063 85.4706L38.1553 95.1813C40.9298 99.9376 46.6109 102.316 52.0278 100.928Z" fill="#365FAC"/>
<path d="M141.341 194.93H244.261L309.792 275.258L325.25 268.719L269.562 180.926C266.127 176.169 260.776 173.131 254.897 172.536L166.906 164.345L144.908 166.326L141.341 194.93Z" fill="url(#paint3_linear)"/>
<path d="M127.533 205.764H226.292C228.934 205.764 231.378 206.953 233.03 209.001L293.078 283.913L310.121 273.343L258.463 190.306C255.16 184.691 249.28 180.992 242.807 180.397L155.938 172.272L131.166 177.095L127.533 205.764Z" fill="url(#paint4_linear)"/>
<path d="M138.83 121.076C131.431 110.176 122.844 100.135 113.265 91.1507C120.928 91.481 129.383 94.1894 135.263 99.1439C141.142 104.098 145.106 107.137 149.598 113.347C145.964 113.743 141.935 119.094 138.83 121.076Z" fill="#E0E0E0"/>
<path d="M97.0807 109.12C100.978 111.366 111.812 109.847 114.719 106.412C117.625 103.043 117.559 97.0974 115.379 93.1999C113.992 90.6897 106.659 89.963 104.744 87.9152C102.894 85.9995 101.242 83.8856 99.2607 82.102C97.2789 80.3184 94.8347 78.9311 92.1263 78.799C89.4839 78.6669 86.6433 80.1862 85.7845 82.6965C84.7276 85.8013 86.8415 88.9721 88.2288 92.0109C89.616 94.9835 90.2766 98.2865 91.3996 101.325C92.5226 104.43 94.2402 107.469 97.0807 109.12Z" fill="url(#paint5_linear)"/>
<path d="M72.5046 57.99C72.3725 66.908 75.4773 75.8921 81.0923 82.8283C88.0285 91.416 101.108 92.2748 105.865 80.8465C107.714 76.3545 107.582 71.2019 106.261 66.4456C104.081 58.4524 99.7211 47.3544 91.6618 43.7872C86.3771 41.4751 79.5069 42.3999 75.8736 46.892C73.2973 49.9307 72.5706 54.0925 72.5046 57.99Z" fill="#F7BD98"/>
<path d="M104.081 61.1604C105.799 54.7526 105.799 47.6842 104.015 41.2765C102.496 35.9917 99.9196 30.5088 93.9742 29.3858C89.0198 28.4609 84.1314 31.2354 81.8853 35.5954C79.1769 40.9462 76.6666 46.1649 73.0334 51.0533C69.7304 55.4132 66.9559 60.3016 67.4183 66.1148C67.9468 73.3814 74.7509 78.3358 80.9605 82.2333C78.7806 78.0055 77.3933 73.4474 76.2703 68.8893C75.8739 67.3039 75.8079 65.2561 77.2612 64.5294C78.4502 63.9349 79.9036 64.7936 80.6963 65.8506C81.489 66.9075 81.9514 68.2287 82.9423 69.1536C84.9241 64.9258 80.9605 59.9713 82.1496 55.4793C83.4047 50.789 89.9446 49.1376 94.4366 50.789C98.9947 52.3745 102.298 56.6023 104.081 61.1604Z" fill="#8F8F8F"/>
<path d="M78.4528 113.215C80.0383 116.32 81.5576 119.425 83.077 122.529C85.257 127.021 87.3708 131.579 89.4847 136.072C89.5508 136.204 89.6169 136.336 89.6829 136.468C90.8059 138.78 91.8629 141.026 92.9859 143.338C92.9859 143.404 93.0519 143.47 93.0519 143.47C96.1567 150.01 99.2615 156.55 102.3 163.156C104.943 168.837 107.189 174.981 110.293 180.463C115.314 189.249 120.929 197.903 127.535 205.764C134.868 194.798 142.398 183.899 151.911 174.716C155.874 170.885 160.3 167.582 165.189 165.006C167.369 163.816 169.681 162.892 172.125 162.363C172.257 162.363 172.389 162.297 172.521 162.297C174.371 161.967 176.221 162.231 177.938 161.438C178.004 161.438 178.07 161.372 178.07 161.372C178.203 161.306 178.269 161.24 178.401 161.24C178.401 161.24 178.467 161.24 178.467 161.174C178.335 161.108 178.203 161.042 178.07 160.91C174.767 158.928 171.663 156.55 168.888 153.908C168.162 153.181 167.369 152.454 166.708 151.662C165.255 150.142 163.934 148.491 162.679 146.773C158.781 141.621 155.676 135.873 152.638 130.126C148.146 121.803 143.521 112.224 136.717 105.618C133.282 102.249 129.451 99.3425 125.289 96.8322C123.307 95.6431 121.193 94.5201 119.079 93.5292C116.899 92.5383 114.653 91.6135 112.407 90.8869C113.464 92.6705 114.587 94.4541 114.918 96.5019C115.116 97.8231 114.984 99.2764 114.389 100.465C114.059 101.06 113.596 101.655 113.002 102.051C111.879 102.844 110.492 102.976 109.104 103.042C105.405 103.24 101.64 102.712 98.1385 101.39C96.4871 100.796 94.9677 99.937 93.5144 98.9461C92.0611 97.9552 90.9381 96.1716 89.4847 95.2468C88.2957 94.5201 86.5121 96.1716 85.3891 96.7662C83.5394 97.8231 81.7558 98.9461 80.0383 100.201C78.5189 101.258 76.2068 102.513 75.348 104.099C73.4984 107.666 76.9995 110.374 78.4528 113.215Z" fill="white"/>
<path d="M93.7103 143.141C95.692 150.143 99.2592 156.551 102.298 163.157C104.94 168.838 107.186 174.981 110.291 180.464C115.312 189.25 120.927 197.904 127.533 205.765C134.865 194.799 142.396 183.899 151.909 174.717C155.872 170.886 160.298 167.583 165.187 165.006C167.367 163.817 169.679 162.892 172.123 162.364C172.255 162.364 172.387 162.298 172.519 162.298C174.369 162.034 176.218 162.166 177.936 161.439C178.002 161.439 178.068 161.373 178.068 161.373C178.2 161.307 178.266 161.307 178.398 161.241C178.266 161.175 178.2 161.043 178.068 160.977C174.765 158.995 171.66 156.617 168.886 153.974C168.159 153.248 167.367 152.521 166.706 151.728C165.253 150.209 163.931 148.558 162.676 146.84C154.023 148.161 145.171 149.152 136.649 147.435C118.284 143.735 102.034 129.334 88.8879 116.651C89.9449 124.974 91.4642 133.232 93.3139 141.357C93.38 141.952 93.5121 142.546 93.7103 143.141Z" fill="url(#paint6_linear)"/>
<path d="M93.7103 143.141C95.692 150.143 99.2592 156.551 102.298 163.157C104.94 168.838 107.186 174.981 110.291 180.464C115.312 189.25 120.927 197.904 127.533 205.765C134.865 194.799 142.396 183.899 151.909 174.717C155.872 170.886 160.298 167.583 165.187 165.006C167.367 163.817 169.679 162.892 172.123 162.364C172.255 162.364 172.387 162.298 172.519 162.298C174.369 162.034 176.218 162.166 177.936 161.439C178.002 161.439 178.068 161.373 178.068 161.373C178.2 161.307 178.266 161.307 178.398 161.241C178.266 161.175 178.2 161.043 178.068 160.977C174.765 158.995 171.66 156.617 168.886 153.974C168.159 153.248 167.367 152.521 166.706 151.728C165.253 150.209 163.931 148.557 162.676 146.84C154.023 148.161 145.171 149.152 136.649 147.434C118.284 143.735 102.034 129.334 88.8879 116.651C89.9449 124.974 91.4642 133.232 93.3139 141.357C93.38 141.952 93.5121 142.546 93.7103 143.141Z" fill="#F2F2F2"/>
<path d="M63.4558 170.488H180.777V167.449C180.777 162.363 176.682 158.267 171.595 158.267H75.5447C68.8727 158.267 63.4558 163.684 63.4558 170.356V170.488Z" fill="#43C0C9"/>
<path d="M70.3352 177.247H174.445C178.078 177.247 181.051 174.274 181.051 170.641V170.575H63.7292V170.641C63.7292 174.274 66.7019 177.247 70.3352 177.247Z" fill="#CECECE"/>
<path d="M97.146 161.855C99.1938 164.035 101.506 165.686 104.413 166.281C107.253 166.875 110.622 165.554 111.415 162.78C111.943 160.864 111.151 158.816 110.358 157.033C105.602 146.463 104.224 136.224 98.147 126.315C94.7779 120.832 86.7086 115.679 82.0184 111.319C80.8293 110.196 79.376 109.139 77.7906 109.139C75.4785 109.139 73.7609 111.319 73.1004 113.433C71.1846 119.577 74.1573 125.06 77.2621 130.08C80.9614 136.026 82.4147 141.31 86.1141 147.322C88.6243 151.484 93.4467 157.891 97.146 161.855Z" fill="#F7BD98"/>
<path d="M83.9332 106.08C82.612 104.957 81.2908 103.768 79.5733 103.372C76.4024 102.645 73.2977 105.222 72.1747 108.26C71.1177 111.299 70.8535 115.197 71.5141 118.367C73.3637 127.418 77.1952 135.609 81.2908 143.866C90.8034 139.44 93.5779 138.383 103.949 135.213C99.6554 128.474 98.0699 125.568 93.8421 119.49C91.1337 115.461 87.6325 109.317 83.9332 106.08Z" fill="white"/>
<path d="M162.149 163.883C159.705 160.448 154.948 159.391 150.655 158.664C141.747 154.391 132.896 152.983 122.26 151.133C118.495 150.473 112.803 151.134 107.386 151.134C102.365 150.341 94.2398 151.067 94.7683 157.673C95.0325 161.241 98.1373 164.081 101.638 165.402C105.14 166.724 109.037 166.79 112.803 166.79C121.588 166.856 130.374 166.988 139.226 167.054C143.652 167.12 148.012 167.12 152.438 167.186C154.618 167.186 160.63 168.309 162.347 166.658C163.14 165.997 162.743 164.742 162.149 163.883Z" fill="#F7BD98"/>
<path d="M228.605 140.034C226.095 136.665 220.81 136.996 216.45 136.335C205.748 134.816 195.575 132.173 184.874 130.654C181.108 130.126 177.277 129.597 173.511 129.135C168.491 128.54 160.366 129.465 161.158 136.137C161.555 139.638 164.725 142.479 168.293 143.668C171.86 144.857 175.691 144.791 179.457 144.725C188.243 144.526 197.028 144.328 205.88 144.064C210.306 143.932 210.042 143.205 215.459 143.866C217.639 144.13 227.284 144.659 228.935 142.941C229.662 142.148 229.265 140.893 228.605 140.034Z" fill="#F7BD98"/>
<path d="M213.874 143.338C215.856 144.263 218.631 144.263 220.744 144.527C221.207 144.593 221.669 144.659 222.066 144.725C224.113 144.989 226.161 145.253 228.209 145.452C230.059 145.65 231.05 146.046 232.833 145.187C234.419 144.395 235.74 143.272 237.061 142.149C238.514 140.894 239.968 139.638 240.76 137.921C241.289 136.798 241.553 135.543 241.289 134.354C241.091 133.429 239.902 133.032 239.109 133.627C238.052 134.486 236.995 135.279 236.004 136.137C234.881 136.996 233.758 137.921 232.371 138.053C232.305 138.053 232.305 138.053 232.239 138.053C231.05 138.185 228.804 137.128 229.464 135.675C229.596 135.411 229.729 135.279 229.993 135.08C230.984 134.42 232.701 134.42 233.626 134.222C234.353 134.023 235.211 133.825 235.608 133.099C236.401 131.909 235.278 131.645 234.551 131.711C232.371 131.976 230.125 132.438 227.945 132.438C225.699 132.438 223.387 132.636 221.405 133.825C220.414 134.42 219.555 135.212 218.564 135.741C217.375 136.335 216.054 136.468 214.799 136.864C213.94 137.062 213.082 137.458 212.421 137.987C211.76 138.515 211.628 139.044 211.562 139.837C211.43 141.422 212.421 142.677 213.874 143.338Z" fill="#F7BD98"/>
<path d="M239.768 136.863C239.768 136.863 239.107 137.392 238.116 138.118C237.654 138.515 237.059 138.977 236.465 139.439C236.2 139.704 235.87 139.968 235.54 140.232C235.209 140.496 234.945 140.761 234.549 140.959C234.219 141.223 233.888 141.421 233.492 141.553C233.162 141.685 232.765 141.884 232.369 141.95C232.039 142.016 231.642 142.148 231.312 142.148C230.982 142.214 230.651 142.214 230.321 142.28C229.727 142.346 229.198 142.346 228.802 142.346C228.471 142.346 228.207 142.346 228.207 142.346C228.207 142.346 228.405 142.346 228.802 142.412C229.132 142.412 229.66 142.478 230.321 142.478C230.651 142.478 230.982 142.478 231.312 142.412C231.642 142.412 232.039 142.346 232.435 142.214C232.831 142.148 233.162 142.016 233.558 141.818C233.954 141.619 234.285 141.421 234.615 141.157C234.945 140.959 235.276 140.629 235.606 140.364C235.936 140.1 236.2 139.836 236.531 139.572C237.125 139.043 237.654 138.581 238.116 138.184C239.173 137.458 239.768 136.863 239.768 136.863Z" fill="#C06969"/>
<path d="M221.008 139.441C221.008 139.441 221.14 139.441 221.272 139.441C221.47 139.441 221.734 139.441 222.065 139.375C222.197 139.375 222.395 139.309 222.593 139.242C222.791 139.242 222.99 139.176 223.122 139.11C223.32 139.044 223.518 138.978 223.716 138.912C223.914 138.846 224.113 138.714 224.311 138.648C224.509 138.516 224.707 138.45 224.839 138.318C225.037 138.252 225.17 138.119 225.368 137.987C225.5 137.855 225.698 137.789 225.83 137.657C225.962 137.525 226.094 137.393 226.226 137.327C226.491 137.129 226.623 136.864 226.755 136.732C226.887 136.6 226.953 136.534 226.953 136.534C226.953 136.534 226.887 136.6 226.689 136.732C226.557 136.864 226.359 136.996 226.094 137.195C225.962 137.261 225.83 137.393 225.698 137.525C225.566 137.657 225.368 137.723 225.236 137.855C224.905 138.053 224.509 138.252 224.179 138.45C223.782 138.648 223.452 138.78 223.056 138.912C222.857 138.978 222.725 139.044 222.527 139.11C222.329 139.176 222.197 139.242 222.065 139.242C221.734 139.375 221.47 139.375 221.338 139.441C221.074 139.441 221.008 139.441 221.008 139.441Z" fill="#C06969"/>
<path d="M170.604 133.76C171.265 133.231 171.463 132.373 171.463 131.844C170.472 131.514 169.415 131.184 168.424 130.853C167.83 130.655 167.301 130.391 166.641 130.523C165.98 130.589 165.385 131.118 165.385 131.712C167.103 132.505 168.622 133.165 170.604 133.76Z" fill="#F5BF21"/>
<path d="M160.827 134.817C160.827 131.712 162.874 129.07 165.847 127.616C167.433 128.145 168.754 128.872 170.207 129.598C167.631 130.853 165.715 133.232 165.12 135.874C163.667 135.478 162.28 135.213 160.827 134.817Z" fill="white"/>
<path d="M244.894 128.816C251.327 123.89 256.363 117.549 259.681 110.194C266.586 94.8119 264.574 79.2672 261.537 72.4294C261.186 71.7661 260.439 71.406 259.597 71.7406C258.928 72.0974 258.559 72.8458 258.886 73.6828C261.596 79.6837 263.605 94.6094 257.092 109.07C251.465 121.61 240.557 130.739 225.753 135.395C212.983 139.426 202.759 141.041 188.064 137.228C184.741 137.228 182.896 136.212 178.591 135.597C170.616 132.626 170.617 133.575 170.596 134.367C170.674 135.084 177.797 138.044 178.591 138.057C180.436 139.287 181.763 138.635 187.308 140.136C202.6 144.114 213.271 142.467 226.587 138.329C233.554 135.945 239.747 132.757 244.894 128.816Z" fill="#5A3D96"/>
<path d="M237.986 129.305C242.469 126.353 246.374 122.522 249.3 117.449C256.59 105.095 265.886 93.1698 263.343 80.5232C263.134 79.717 268.048 73.3271 259.218 75.7392C263.468 74.9912 259.074 77.7565 259.074 77.7565C261.48 89.7066 253.608 104.226 246.661 115.881C235.422 134.927 208.117 138.401 188.43 134.367C182.643 133.142 172.918 131.57 171.212 131.907C170.395 132.13 169.844 132.099 169.982 132.795C170.191 133.601 177.436 134.709 178.141 134.559C178.846 134.41 181.065 134.365 187.959 135.806C203.775 139.084 223.976 138.529 237.986 129.305Z" fill="#EF3D4D"/>
<path d="M156.532 120.217C156.665 120.019 156.599 119.821 156.532 119.623C155.608 116.452 155.938 113.017 157.325 110.044C157.523 109.648 157.722 109.185 157.523 108.789C157.259 108.194 156.268 108.26 155.872 107.732C155.013 111.629 154.088 115.791 155.409 119.623C155.476 119.887 155.608 120.151 155.806 120.283C156.004 120.481 156.334 120.481 156.532 120.217Z" fill="#F5BF21"/>
<path d="M108.509 107.271C109.104 107.271 109.764 107.271 110.359 107.205C113.926 106.941 116.436 105.884 117.823 103.968C119.012 102.316 119.343 99.9382 118.748 97.494C118.22 95.3141 117.031 93.4644 115.908 91.6147C115.842 91.4826 115.577 91.4166 115.445 91.4826C115.313 91.5487 115.247 91.8129 115.313 91.945C116.436 93.7286 117.559 95.5783 118.088 97.6922C118.682 99.9382 118.352 102.118 117.295 103.638C116.04 105.355 113.728 106.346 110.359 106.61C101.639 107.205 92.1923 103.439 86.313 96.9656C86.1809 96.8334 85.9827 96.8334 85.8506 96.9656C85.7185 97.0977 85.7185 97.2959 85.8506 97.428C91.3336 103.505 100.119 107.271 108.509 107.271Z" fill="#E0E0E0"/>
<path d="M162.412 157.231C162.49 157.231 162.646 157.231 162.725 157.231C164.838 157.076 166.951 156.224 169.065 157.076C169.769 157.309 170.317 157.696 170.944 158.084C174.153 160.099 177.519 162.115 180.415 164.595C181.824 165.836 183.233 167.154 184.407 168.704C185.346 170.022 185.424 173.587 182.998 172.27C181.511 171.417 179.945 170.719 178.301 170.177C177.519 169.867 177.206 169.789 176.423 169.944C175.562 170.099 174.701 170.099 173.918 170.099C172.274 170.022 170.552 169.712 168.908 169.402C166.247 168.859 163.507 168.161 160.768 167.929C158.263 167.696 155.68 167.231 153.566 165.913C152.236 165.138 151.766 164.13 152.079 162.658C152.392 161.262 152.471 159.712 153.801 158.859C154.427 158.472 155.132 158.317 155.836 158.239C157.95 157.851 160.22 157.386 162.412 157.231Z" fill="#F7BD98"/>
<path d="M171.213 138.515C171.792 138.515 172.371 138.671 173.046 138.671C173.528 138.671 173.528 138.515 173.528 138.127C173.625 137.35 173.818 136.573 174.011 135.874C174.3 135.097 174.589 134.398 175.072 133.699C175.361 133.233 176.133 131.68 176.133 131.68C176.133 131.68 175.843 131.524 175.458 131.447C175.072 131.369 174.204 131.447 174.011 131.291C173.432 131.68 173.142 132.379 172.853 132.922C172.467 133.466 172.178 134.088 171.985 134.709C171.599 135.952 171.31 137.273 171.213 138.515Z" fill="white"/>
<path d="M176.132 138.515C176.567 138.515 177.001 138.671 177.507 138.671C177.869 138.671 177.869 138.515 177.869 138.127C177.941 137.35 178.086 136.573 178.231 135.874C178.448 135.097 178.665 134.398 179.026 133.699C179.243 133.233 179.822 131.68 179.822 131.68C179.822 131.68 179.605 131.524 179.316 131.447C179.026 131.369 178.375 131.447 178.231 131.291C177.797 131.68 177.579 132.379 177.362 132.922C177.073 133.466 176.856 134.088 176.711 134.709C176.422 135.952 176.205 137.273 176.132 138.515Z" fill="white"/>
</g>
</g>
<defs>
<linearGradient id="paint0_linear" x1="144.017" y1="126.764" x2="200.993" y2="129.902" gradientUnits="userSpaceOnUse">
<stop stop-color="#DF6C6F"/>
<stop offset="0.9946" stop-color="#F5D4A1"/>
</linearGradient>
<linearGradient id="paint1_linear" x1="347.74" y1="287.571" x2="298.826" y2="267.809" gradientUnits="userSpaceOnUse">
<stop stop-color="#434343"/>
<stop offset="1" stop-color="#000101"/>
</linearGradient>
<linearGradient id="paint2_linear" x1="333.883" y1="294.482" x2="282.718" y2="273.811" gradientUnits="userSpaceOnUse">
<stop stop-color="#434343"/>
<stop offset="1" stop-color="#000101"/>
</linearGradient>
<linearGradient id="paint3_linear" x1="327.899" y1="178.716" x2="243.016" y2="214.249" gradientUnits="userSpaceOnUse">
<stop stop-color="#434343"/>
<stop offset="1" stop-color="#000101"/>
</linearGradient>
<linearGradient id="paint4_linear" x1="310.095" y1="228.104" x2="127.529" y2="228.104" gradientUnits="userSpaceOnUse">
<stop stop-color="#434343"/>
<stop offset="1" stop-color="#000101"/>
</linearGradient>
<linearGradient id="paint5_linear" x1="100.901" y1="81.5798" x2="101.822" y2="110.736" gradientUnits="userSpaceOnUse">
<stop stop-color="#DF6C6F"/>
<stop offset="0.9946" stop-color="#F5D4A1"/>
</linearGradient>
<linearGradient id="paint6_linear" x1="123.746" y1="211.861" x2="136.697" y2="115.806" gradientUnits="userSpaceOnUse">
<stop stop-color="white"/>
<stop offset="1"/>
</linearGradient>
</defs>
</svg>
