<svg width="506" height="264" viewBox="0 0 506 264" fill="none" xmlns="http://www.w3.org/2000/svg">
<g clip-path="url(#clip0)">
<path d="M277.101 117.6C273.401 121.4 271.301 126.3 271.301 131.6C271.301 136.9 273.401 141.8 277.101 145.4C280.801 149.1 285.801 151 291.001 150.9C296.301 150.8 301.201 148.7 304.901 144.9C308.601 141.1 310.701 136.1 310.701 130.9C310.701 125.6 308.701 120.7 305.001 117.1C301.301 113.4 296.301 111.4 291.101 111.5C285.801 111.7 280.801 113.8 277.101 117.6Z" fill="#D7DEEB"/>
<path d="M246.201 145.9C249.901 142.1 251.901 137.1 252.001 131.9C252.001 126.6 250.001 121.7 246.301 118C242.601 114.3 237.601 112.4 232.401 112.4C227.101 112.5 222.201 114.6 218.401 118.4C214.701 122.2 212.601 127.2 212.601 132.5C212.601 143.4 221.401 152.1 232.301 151.9C237.501 151.8 242.501 149.7 246.201 145.9Z" fill="#D7DEEB"/>
<path d="M277.401 69.7002C273.701 73.5002 271.601 78.4002 271.501 83.7002C271.501 88.9002 273.501 93.8002 277.201 97.5002C280.901 101.2 285.801 103.1 291.101 103.1C296.301 103 301.301 100.9 305.001 97.1002C308.801 93.3002 310.801 88.4002 310.901 83.2002C310.901 77.9002 308.901 73.0002 305.301 69.4002C301.601 65.7002 296.701 63.7002 291.401 63.8002C286.201 63.9002 281.201 66.0002 277.401 69.7002Z" fill="#D7DEEB"/>
<path d="M246.301 98.0001C250.001 94.2001 252.101 89.3001 252.201 84.0001C252.301 73.1001 243.601 64.4001 232.701 64.5001C227.501 64.6001 222.501 66.7001 218.701 70.5001C214.901 74.3001 212.801 79.2001 212.701 84.5001C212.601 95.4001 221.401 104.1 232.201 104C237.601 103.8 242.601 101.7 246.301 98.0001Z" fill="#D7DEEB"/>
<path d="M277.201 165.5C273.501 169.3 271.501 174.3 271.501 179.5C271.601 190.4 280.501 199.1 291.301 198.8C296.501 198.7 301.401 196.6 305.201 192.8C308.901 189 310.901 184.1 310.901 178.8C310.801 168 302.001 159.3 291.101 159.5C285.801 159.6 280.801 161.7 277.201 165.5Z" fill="#D7DEEB"/>
<path d="M247.201 241.8C250.801 238 252.801 233 252.701 227.8C252.601 222.5 250.501 217.6 246.701 213.9C243.001 210.2 238.001 208.3 232.701 208.4C227.501 208.5 222.601 210.7 218.901 214.5C215.301 218.3 213.301 223.3 213.401 228.5C213.501 233.8 215.601 238.7 219.401 242.4C223.201 246.1 228.201 248 233.401 247.9C238.701 247.8 243.601 245.6 247.201 241.8Z" fill="#D7DEEB"/>
<path d="M246.5 193.9C250.2 190.1 252.2 185.1 252.2 179.8C252.1 168.9 243.2 160.2 232.4 160.4C227.1 160.5 222.2 162.6 218.4 166.4C214.7 170.2 212.7 175.2 212.8 180.5C212.9 191.3 221.9 200 232.7 199.9C237.9 199.8 242.8 197.7 246.5 193.9Z" fill="#D7DEEB"/>
<path d="M277.501 213.4C273.801 217.2 271.901 222.2 272.001 227.4C272.201 238.2 281.101 246.9 291.901 246.7C297.101 246.6 302.001 244.4 305.601 240.6C309.301 236.8 311.201 231.8 311.201 226.6C311.001 215.8 302.201 207.1 291.301 207.4C286.101 207.4 281.201 209.6 277.501 213.4Z" fill="#D7DEEB"/>
<path d="M233.401 244.6C229.101 244.7 224.901 243.1 221.801 240.1C218.701 237.1 216.901 233 216.801 228.6C216.701 219.9 224.101 212.1 232.801 211.9C237.201 211.8 241.301 213.4 244.401 216.5C247.501 219.6 249.301 223.6 249.401 228C249.501 232.4 247.801 236.5 244.801 239.7C241.801 242.7 237.801 244.5 233.401 244.6Z" fill="white"/>
<path d="M232.601 196.6C223.601 196.8 216.201 189.5 216.101 180.5C216.001 171.7 223.601 163.9 232.301 163.8C241.301 163.6 248.701 170.9 248.801 179.9C248.901 184.3 247.201 188.4 244.101 191.6C241.101 194.7 237.001 196.5 232.601 196.6Z" fill="white"/>
<path d="M232.3 148.6C223.2 148.7 215.9 141.5 215.9 132.5C215.9 123.7 223.5 116 232.3 115.9C236.6 115.8 240.8 117.5 243.9 120.5C247 123.5 248.6 127.6 248.7 132C248.7 136.4 247 140.5 243.9 143.7C240.8 146.7 236.6 148.5 232.3 148.6Z" fill="white"/>
<path d="M232.4 100.6C223.4 100.7 216.1 93.4002 216.2 84.4002C216.2 80.0002 218 75.9002 221.1 72.7002C224.2 69.6002 228.4 67.8002 232.7 67.7002C241.7 67.6002 248.9 74.9002 248.8 83.9002C248.8 88.3002 247 92.4002 243.9 95.6002C240.9 98.8002 236.8 100.5 232.4 100.6Z" fill="white"/>
<path d="M291.1 99.8001C286.7 99.8001 282.7 98.2001 279.6 95.1001C276.5 92.0001 274.9 88.0001 274.9 83.6001C275 74.9001 282.7 67.2001 291.4 67.1001C295.8 67.0001 299.8 68.7001 302.9 71.7001C305.9 74.8001 307.6 78.8001 307.6 83.2001C307.6 87.5001 305.8 91.6001 302.7 94.8001C299.6 98.0001 295.5 99.7001 291.1 99.8001Z" fill="white"/>
<path d="M291.001 147.7C286.701 147.8 282.501 146.1 279.401 143.1C276.301 140.1 274.601 136 274.601 131.6C274.601 122.9 282.201 115.2 291.001 115C295.401 114.9 299.501 116.6 302.601 119.6C305.701 122.6 307.401 126.7 307.401 131.1C307.401 135.4 305.701 139.6 302.601 142.7C299.501 145.8 295.401 147.6 291.001 147.7Z" fill="white"/>
<path d="M291.2 195.5C282.2 195.7 274.8 188.5 274.7 179.4C274.7 170.7 282.2 162.9 291 162.8C300 162.7 307.4 169.9 307.4 178.9C307.4 183.3 305.8 187.4 302.7 190.5C299.7 193.6 295.6 195.4 291.2 195.5Z" fill="white"/>
<path d="M291.801 243.4C282.801 243.6 275.401 236.4 275.301 227.4C275.201 218.7 282.701 210.9 291.401 210.7C295.801 210.6 299.901 212.2 303.001 215.2C306.101 218.2 307.801 222.3 307.901 226.7C308.001 231 306.301 235.1 303.301 238.3C300.201 241.5 296.201 243.2 291.801 243.4Z" fill="white"/>
<path d="M313.6 263.4C321 263.2 327.4 256.6 327.3 249.1L327.4 60.0001C327.4 56.3001 326 52.8001 323.4 50.2001C320.8 47.6001 317.3 46.2001 313.6 46.2001L210 46.1001C206.3 46.1001 202.7 47.7001 200 50.3001C197.3 53.0001 195.8 56.5001 195.7 60.3001L196.4 249.6C196.6 257.4 203 263.5 210.7 263.4H313.6ZM305.3 69.4001C309 73.1001 311 78.0001 310.9 83.2001C310.9 88.4001 308.8 93.4001 305 97.1001C301.3 100.8 296.3 103 291.1 103.1C285.9 103.1 280.9 101.2 277.2 97.5001C273.5 93.8001 271.5 88.9001 271.5 83.7001C271.5 78.4001 273.6 73.4001 277.4 69.7001C281.2 65.9001 286.1 63.8001 291.4 63.8001C296.6 63.7001 301.6 65.7001 305.3 69.4001ZM212.9 84.4001C213 79.1001 215.1 74.1001 218.9 70.4001C222.7 66.6001 227.6 64.5001 232.9 64.4001C243.8 64.3001 252.5 73.0001 252.4 83.9001C252.3 89.2001 250.2 94.1001 246.5 97.9001C242.8 101.7 237.8 103.8 232.6 103.9C221.6 104 212.8 95.3001 212.9 84.4001ZM305 117.2C308.7 120.8 310.7 125.7 310.7 131C310.7 136.2 308.7 141.2 304.9 145C301.2 148.8 296.3 150.9 291 151C285.7 151.1 280.8 149.1 277.1 145.5C273.4 141.9 271.3 137 271.3 131.7C271.3 126.4 273.4 121.5 277.1 117.7C280.8 113.9 285.8 111.8 291.1 111.8C296.3 111.5 301.3 113.6 305 117.2ZM212.6 132.5C212.6 127.2 214.7 122.2 218.4 118.4C222.1 114.6 227.1 112.5 232.4 112.4C237.6 112.3 242.6 114.3 246.3 118C250 121.7 252 126.6 252 131.9C252 137.2 249.9 142.2 246.2 145.9C242.5 149.7 237.5 151.8 232.3 151.9C221.4 152.1 212.6 143.4 212.6 132.5ZM310.8 178.8C310.8 184.1 308.8 189 305.1 192.8C301.4 196.6 296.5 198.7 291.2 198.8C280.4 199 271.5 190.4 271.4 179.5C271.4 174.3 273.4 169.3 277.1 165.5C280.8 161.7 285.7 159.6 291 159.5C301.9 159.3 310.7 168 310.8 178.8ZM212.8 180.5C212.8 175.2 214.8 170.2 218.4 166.4C222.1 162.6 227.1 160.5 232.4 160.4C243.2 160.2 252.1 168.9 252.2 179.8C252.2 185.1 250.2 190.1 246.5 193.9C242.8 197.7 237.9 199.8 232.7 199.9C221.8 200.1 212.9 191.4 212.8 180.5ZM311.2 226.6C311.2 231.8 309.3 236.8 305.6 240.6C302 244.4 297.1 246.5 291.9 246.7C281.1 246.9 272.2 238.2 272 227.4C271.9 222.1 273.9 217.1 277.5 213.4C281.2 209.6 286.1 207.4 291.3 207.4C302.2 207.1 311.1 215.8 311.2 226.6ZM219.5 242.4C215.7 238.8 213.6 233.9 213.5 228.5C213.4 223.2 215.4 218.2 219 214.5C222.7 210.7 227.6 208.5 232.8 208.4C238.1 208.3 243 210.2 246.8 213.9C250.6 217.6 252.7 222.5 252.8 227.8C252.9 233 250.9 238 247.3 241.8C243.7 245.6 238.8 247.7 233.6 247.9C228.2 248 223.3 246.1 219.5 242.4Z" fill="#E1E7F5"/>
<path d="M301.7 83.7002C301.7 84.6002 301 85.2002 300.2 85.2002H282.7C281.8 85.2002 281.2 84.5002 281.2 83.7002C281.2 82.8002 281.9 82.2002 282.7 82.2002H300.2C301 82.2002 301.7 82.9002 301.7 83.7002Z" fill="#E3EAF7"/>
<path d="M242.3 83.7002C242.3 84.6002 241.6 85.2002 240.8 85.2002H223.3C222.4 85.2002 221.8 84.5002 221.8 83.7002C221.8 82.8002 222.5 82.2002 223.3 82.2002H240.8C241.6 82.2002 242.3 82.9002 242.3 83.7002Z" fill="#E3EAF7"/>
<path d="M301.7 131.7C301.7 132.6 301 133.2 300.2 133.2H282.7C281.8 133.2 281.2 132.5 281.2 131.7C281.2 130.8 281.9 130.2 282.7 130.2H300.2C301 130.2 301.7 130.9 301.7 131.7Z" fill="#E3EAF7"/>
<path d="M242.3 131.7C242.3 132.6 241.6 133.2 240.8 133.2H223.3C222.4 133.2 221.8 132.5 221.8 131.7C221.8 130.8 222.5 130.2 223.3 130.2H240.8C241.6 130.2 242.3 130.9 242.3 131.7Z" fill="#E3EAF7"/>
<path d="M301.7 179.5C301.7 180.4 301 181 300.2 181H282.7C281.8 181 281.2 180.3 281.2 179.5C281.2 178.6 281.9 178 282.7 178H300.2C301 177.9 301.7 178.6 301.7 179.5Z" fill="#E3EAF7"/>
<path d="M242.3 179.5C242.3 180.4 241.6 181 240.8 181H223.3C222.4 181 221.8 180.3 221.8 179.5C221.8 178.6 222.5 178 223.3 178H240.8C241.6 177.9 242.3 178.6 242.3 179.5Z" fill="#E3EAF7"/>
<path d="M302.5 227.6C302.5 228.5 301.8 229.1 301 229.1H283.5C282.6 229.1 282 228.4 282 227.6C282 226.7 282.7 226.1 283.5 226.1H301C301.9 226 302.5 226.7 302.5 227.6Z" fill="#E3EAF7"/>
<path d="M243.101 227.6C243.101 228.5 242.401 229.1 241.601 229.1H224.101C223.201 229.1 222.601 228.4 222.601 227.6C222.601 226.7 223.301 226.1 224.101 226.1H241.601C242.401 226 243.101 226.7 243.101 227.6Z" fill="#E3EAF7"/>
<path d="M262.501 77.1001C262.501 78.0001 261.701 78.8001 260.801 78.8001C259.901 78.8001 259.101 78.1001 259.101 77.1001V52.1001C259.101 51.2001 259.801 50.4001 260.801 50.4001C261.701 50.4001 262.501 51.1001 262.501 52.1001V77.1001Z" fill="#D7DEEB"/>
<path d="M262.501 112.7C262.501 113.6 261.701 114.4 260.801 114.4C259.901 114.4 259.101 113.7 259.101 112.7V87.7C259.101 86.8 259.801 86 260.801 86C261.701 86 262.501 86.7 262.501 87.7V112.7Z" fill="#D7DEEB"/>
<path d="M262.501 148.3C262.501 149.2 261.701 150 260.801 150C259.901 150 259.101 149.3 259.101 148.3V123.3C259.101 122.4 259.801 121.6 260.801 121.6C261.701 121.6 262.501 122.3 262.501 123.3V148.3Z" fill="#D7DEEB"/>
<path d="M262.501 183.8C262.501 184.7 261.701 185.5 260.801 185.5C259.901 185.5 259.101 184.8 259.101 183.8V158.8C259.101 157.9 259.801 157.1 260.801 157.1C261.701 157.1 262.501 157.8 262.501 158.8V183.8Z" fill="#D7DEEB"/>
<path d="M262.501 219.4C262.501 220.3 261.701 221.1 260.801 221.1C259.901 221.1 259.101 220.4 259.101 219.4V194.4C259.101 193.5 259.801 192.7 260.801 192.7C261.701 192.7 262.501 193.4 262.501 194.4V219.4Z" fill="#D7DEEB"/>
<path d="M262.501 255C262.501 255.9 261.701 256.7 260.801 256.7C259.901 256.7 259.101 256 259.101 255V230C259.101 229.1 259.801 228.3 260.801 228.3C261.701 228.3 262.501 229 262.501 230V255Z" fill="#D7DEEB"/>
<path d="M386.3 98.3999V99.7999V98.3999H382.8V230C382.8 248.4 397.8 263.4 416.2 263.4H466.6C485 263.4 500 248.4 500 230V98.3999H386.3Z" fill="#F9A62E"/>
<path d="M499.801 98H382.601V110.2H499.801V98Z" fill="#E29125"/>
<path d="M503.6 46.8C503.6 34.5 493.6 24.5 481.3 24.5H401.5C389.2 24.5 379.2 34.5 379.2 46.8V74.7H503.6V46.8Z" fill="#E9EDF7"/>
<path d="M393.4 87.5C393.4 89 392.2 90.2 390.7 90.2C389.2 90.2 388 89 388 87.5V41.5C388 40 389.2 38.8 390.7 38.8C392.2 38.8 393.4 40 393.4 41.5V87.5Z" fill="#DDE1EA"/>
<path d="M403.6 87.5C403.6 89 402.4 90.2 400.9 90.2C399.4 90.2 398.2 89 398.2 87.5V41.5C398.2 40 399.4 38.8 400.9 38.8C402.4 38.8 403.6 40 403.6 41.5V87.5Z" fill="#DDE1EA"/>
<path d="M413.8 87.5C413.8 89 412.6 90.2 411.1 90.2C409.6 90.2 408.4 89 408.4 87.5V41.5C408.4 40 409.6 38.8 411.1 38.8C412.6 38.8 413.8 40 413.8 41.5V87.5Z" fill="#DDE1EA"/>
<path d="M424.1 87.5C424.1 89 422.9 90.2 421.4 90.2C419.9 90.2 418.7 89 418.7 87.5V41.5C418.7 40 419.9 38.8 421.4 38.8C422.9 38.8 424.1 40 424.1 41.5V87.5Z" fill="#DDE1EA"/>
<path d="M434.3 87.5C434.3 89 433.1 90.2 431.6 90.2C430.1 90.2 428.9 89 428.9 87.5V41.5C428.9 40 430.1 38.8 431.6 38.8C433.1 38.8 434.3 40 434.3 41.5V87.5Z" fill="#DDE1EA"/>
<path d="M444.501 87.5C444.501 89 443.301 90.2 441.801 90.2C440.301 90.2 439.101 89 439.101 87.5V41.5C439.101 40 440.301 38.8 441.801 38.8C443.301 38.8 444.501 40 444.501 41.5V87.5Z" fill="#DDE1EA"/>
<path d="M454.8 87.5C454.8 89 453.6 90.2 452.1 90.2C450.6 90.2 449.4 89 449.4 87.5V41.5C449.4 40 450.6 38.8 452.1 38.8C453.6 38.8 454.8 40 454.8 41.5V87.5Z" fill="#DDE1EA"/>
<path d="M465.001 87.5C465.001 89 463.801 90.2 462.301 90.2C460.801 90.2 459.601 89 459.601 87.5V41.5C459.601 40 460.801 38.8 462.301 38.8C463.801 38.8 465.001 40 465.001 41.5V87.5Z" fill="#DDE1EA"/>
<path d="M475.201 87.5C475.201 89 474.001 90.2 472.501 90.2C471.001 90.2 469.801 89 469.801 87.5V41.5C469.801 40 471.001 38.8 472.501 38.8C474.001 38.8 475.201 40 475.201 41.5V87.5Z" fill="#DDE1EA"/>
<path d="M485.501 87.5C485.501 89 484.301 90.2 482.801 90.2C481.301 90.2 480.101 89 480.101 87.5V41.5C480.101 40 481.301 38.8 482.801 38.8C484.301 38.8 485.501 40 485.501 41.5V87.5Z" fill="#DDE1EA"/>
<path d="M495.701 87.5C495.701 89 494.501 90.2 493.001 90.2C491.501 90.2 490.301 89 490.301 87.5V41.5C490.301 40 491.501 38.8 493.001 38.8C494.501 38.8 495.701 40 495.701 41.5V87.5Z" fill="#DDE1EA"/>
<path d="M503.2 65.4001H387.9V82.0001H503.2V65.4001Z" fill="#DDE1EA"/>
<path d="M501.8 72.8H379.7C377.5 72.8 375.7 74.6 375.7 76.8V97.3C375.7 99.5 377.5 101.3 379.7 101.3H501.8C504 101.3 505.8 99.5 505.8 97.3V76.8C505.7 74.6 504 72.8 501.8 72.8Z" fill="#E4EBF7"/>
<path d="M500 123.6H382.8V201.9H500V123.6Z" fill="#807BBA"/>
<path d="M491.8 145.5H442C441 145.5 440.2 144.7 440.2 143.8C440.2 142.8 441 142 442 142H491.8C492.8 142 493.6 142.8 493.6 143.8C493.5 144.8 492.7 145.5 491.8 145.5Z" fill="#F3F2E6"/>
<path d="M491.8 161.6H413.6C412.6 161.6 411.8 160.8 411.8 159.9C411.8 158.9 412.6 158.1 413.6 158.1H491.8C492.8 158.1 493.6 158.9 493.6 159.9C493.5 160.8 492.7 161.6 491.8 161.6Z" fill="#F3F2E6"/>
<path d="M491.8 177.3H413.6C412.6 177.3 411.8 176.5 411.8 175.5C411.8 174.5 412.6 173.8 413.6 173.8H491.8C492.8 173.8 493.6 174.6 493.6 175.5C493.5 176.5 492.7 177.3 491.8 177.3Z" fill="#F3F2E6"/>
<path opacity="0.36" d="M487.4 226.4C487.4 234.1 481.1 240.4 473.4 240.4C465.6 240.4 459.4 234.1 459.4 226.4V122.4C459.4 114.7 465.7 108.4 473.4 108.4C481.1 108.4 487.4 114.7 487.4 122.4V226.4Z" fill="white"/>
<path d="M477.9 257.6C477.9 259.8 476.1 261.6 473.9 261.6H405.9C403.7 261.6 401.9 259.8 401.9 257.6C401.9 255.4 403.7 253.6 405.9 253.6H473.9C476.1 253.6 477.9 255.4 477.9 257.6Z" fill="#E29125"/>
<path d="M202.8 131.6C211.4 131.6 218.4 138.6 218.4 147.2V247.9C218.4 256.5 211.4 263.5 202.8 263.5H44.6C36 263.5 29 256.5 29 247.9V147.2C29 138.6 36 131.6 44.6 131.6H202.8Z" fill="#DDDCE6"/>
<path d="M191.6 153.9C191.6 150 187.8 146.8 183.1 146.8C178.4 146.8 174.6 149.9 174.5 153.8L174.4 166.3L174.3 179.3C174.3 183.2 178.1 186.4 182.8 186.4C187.5 186.4 191.3 183.3 191.4 179.4L191.5 167.9V166.4L191.6 153.9Z" fill="#D3D2DC"/>
<path d="M161.6 153.6C161.6 149.7 157.8 146.5 153.1 146.5C148.4 146.5 144.6 149.6 144.5 153.5L144.4 166L144.3 179C144.3 182.9 148.1 186.1 152.8 186.1C157.5 186.1 161.3 183 161.4 179.1L161.5 167.6V166L161.6 153.6Z" fill="#D3D2DC"/>
<path d="M132 153.6C132 149.7 128.2 146.5 123.5 146.5C118.8 146.5 115 149.6 114.9 153.5L114.8 166L114.7 179C114.7 182.9 118.5 186.1 123.2 186.1C127.9 186.1 131.7 183 131.8 179.1L131.9 167.6V166L132 153.6Z" fill="#D3D2DC"/>
<path d="M102.1 153.6C102.1 149.7 98.3004 146.5 93.6004 146.5C88.9004 146.5 85.1004 149.6 85.0004 153.5V166L84.9004 179C84.9004 182.9 88.7004 186.1 93.4004 186.1C98.1004 186.1 101.9 183 102 179.1L102.1 167.6V166V153.6Z" fill="#D3D2DC"/>
<path d="M72.3 153.6C72.3 149.7 68.5 146.5 63.8 146.5C59.1 146.5 55.3 149.6 55.2 153.5L55.1 166L55 179C55 182.9 58.8 186.1 63.5 186.1C68.2 186.1 72 183 72.1 179.1L72.2 167.6V166L72.3 153.6Z" fill="#D3D2DC"/>
<path d="M191.6 214.3C191.6 210.4 187.8 207.2 183.1 207.2C178.4 207.2 174.6 210.3 174.5 214.2L174.4 226.7L174.3 239.7C174.3 243.6 178.1 246.8 182.8 246.8C187.5 246.8 191.3 243.7 191.4 239.8L191.5 228.3V226.8L191.6 214.3Z" fill="#D3D2DC"/>
<path d="M161.6 214C161.6 210.1 157.8 206.9 153.1 206.9C148.4 206.9 144.6 210 144.5 213.9L144.4 226.4L144.3 239.4C144.3 243.3 148.1 246.5 152.8 246.5C157.5 246.5 161.3 243.4 161.4 239.5L161.5 227.9V226.4L161.6 214Z" fill="#D3D2DC"/>
<path d="M132 214C132 210.1 128.2 206.9 123.5 206.9C118.8 206.9 115 210 114.9 213.9L114.8 226.4L114.7 239.4C114.7 243.3 118.5 246.5 123.2 246.5C127.9 246.5 131.7 243.4 131.8 239.5L131.9 227.9V226.4L132 214Z" fill="#D3D2DC"/>
<path d="M102.1 214C102.1 210.1 98.3004 206.9 93.6004 206.9C88.9004 206.9 85.1004 210 85.0004 213.9V226.5L84.9004 239.5C84.9004 243.4 88.7004 246.6 93.4004 246.6C98.1004 246.6 101.9 243.5 102 239.6V228V226.5L102.1 214Z" fill="#D3D2DC"/>
<path d="M72.3 214C72.3 210.1 68.5 206.9 63.8 206.9C59.1 206.9 55.3 210 55.2 213.9L55.1 226.4L55 239.4C55 243.3 58.8 246.5 63.5 246.5C68.2 246.5 72 243.4 72.1 239.5L72.2 227.9V226.4L72.3 214Z" fill="#D3D2DC"/>
<path d="M69.6 166.4H57.5V167.7H69.6V166.4Z" fill="white"/>
<path d="M69.6004 166.4L57.5004 166.3L57.4004 177.4C57.4004 180.7 60.1004 183.5 63.4004 183.5C66.7004 183.5 69.5004 180.8 69.5004 177.5L69.6004 166.4Z" fill="#F0EFF6"/>
<path d="M57.6 155.6L57.5 166.7L69.6 166.8L69.7 155.7C69.7 152.4 67 149.6 63.7 149.6C60.3 149.6 57.6 152.3 57.6 155.6Z" fill="#EE382D"/>
<path opacity="0.79" d="M64.1006 176.5C64.1006 177.4 64.8006 178.1 65.7006 178.1C66.6006 178.1 67.3006 177.4 67.3006 176.5V157.8C67.3006 156.9 66.6006 156.2 65.7006 156.2C64.8006 156.2 64.1006 156.9 64.1006 157.8V176.5Z" fill="#F7F7F7"/>
<path d="M69.6 226.8H57.5V228H69.6V226.8Z" fill="white"/>
<path d="M69.6004 226.8L57.5004 226.7L57.4004 237.8C57.4004 241.1 60.1004 243.9 63.4004 243.9C66.7004 243.9 69.5004 241.2 69.5004 237.9L69.6004 226.8Z" fill="#F0EFF6"/>
<path d="M57.6 216.1L57.5 227.2L69.6 227.3L69.7 216.2C69.7 212.9 67 210.1 63.7 210.1C60.3 210 57.6 212.7 57.6 216.1Z" fill="#EE382D"/>
<path opacity="0.79" d="M64.1006 237C64.1006 237.9 64.8006 238.6 65.7006 238.6C66.6006 238.6 67.3006 237.9 67.3006 237V218.3C67.3006 217.4 66.6006 216.7 65.7006 216.7C64.8006 216.7 64.1006 217.4 64.1006 218.3V237Z" fill="#F7F7F7"/>
<path d="M99.4994 166.4H87.3994V167.7H99.4994V166.4Z" fill="white"/>
<path d="M99.4998 166.4L87.3998 166.3L87.2998 177.4C87.2998 180.7 89.9998 183.5 93.2998 183.5C96.5998 183.5 99.3998 180.8 99.3998 177.5L99.4998 166.4Z" fill="#F0EFF6"/>
<path d="M87.3998 155.6L87.2998 166.7L99.3998 166.8L99.4998 155.7C99.4998 152.4 96.7998 149.6 93.4998 149.6C90.1998 149.6 87.3998 152.3 87.3998 155.6Z" fill="#EE382D"/>
<path opacity="0.79" d="M93.8994 176.5C93.8994 177.4 94.5994 178.1 95.4994 178.1C96.3994 178.1 97.0994 177.4 97.0994 176.5V157.8C97.0994 156.9 96.3994 156.2 95.4994 156.2C94.5994 156.2 93.8994 156.9 93.8994 157.8V176.5Z" fill="#F7F7F7"/>
<path d="M99.4994 226.8H87.3994V228H99.4994V226.8Z" fill="white"/>
<path d="M99.4998 226.8L87.3998 226.7L87.2998 237.8C87.2998 241.1 89.9998 243.9 93.2998 243.9C96.5998 243.9 99.3998 241.2 99.3998 237.9L99.4998 226.8Z" fill="#F0EFF6"/>
<path d="M87.3998 216.1L87.2998 227.2L99.3998 227.3L99.4998 216.2C99.4998 212.9 96.7998 210.1 93.4998 210.1C90.1998 210 87.3998 212.7 87.3998 216.1Z" fill="#EE382D"/>
<path opacity="0.79" d="M93.8994 237C93.8994 237.9 94.5994 238.6 95.4994 238.6C96.3994 238.6 97.0994 237.9 97.0994 237V218.3C97.0994 217.4 96.3994 216.7 95.4994 216.7C94.5994 216.7 93.8994 217.4 93.8994 218.3V237Z" fill="#F7F7F7"/>
<path d="M129.299 166.4H117.199V167.7H129.299V166.4Z" fill="white"/>
<path d="M129.3 166.4L117.2 166.3L117.1 177.4C117.1 180.7 119.8 183.5 123.1 183.5C126.4 183.5 129.2 180.8 129.2 177.5L129.3 166.4Z" fill="#F0EFF6"/>
<path d="M117.299 155.6L117.199 166.7L129.299 166.8L129.399 155.7C129.399 152.4 126.699 149.6 123.399 149.6C119.999 149.6 117.299 152.3 117.299 155.6Z" fill="#EE382D"/>
<path opacity="0.79" d="M123.8 176.5C123.8 177.4 124.5 178.1 125.4 178.1C126.3 178.1 127 177.4 127 176.5V157.8C127 156.9 126.3 156.2 125.4 156.2C124.5 156.2 123.8 156.9 123.8 157.8V176.5Z" fill="#F7F7F7"/>
<path d="M129.299 226.8H117.199V228H129.299V226.8Z" fill="white"/>
<path d="M129.3 226.8L117.2 226.7L117.1 237.8C117.1 241.1 119.8 243.9 123.1 243.9C126.4 243.9 129.2 241.2 129.2 237.9L129.3 226.8Z" fill="#F0EFF6"/>
<path d="M117.299 216.1L117.199 227.2L129.299 227.3L129.399 216.2C129.399 212.9 126.699 210.1 123.399 210.1C119.999 210 117.299 212.7 117.299 216.1Z" fill="#EE382D"/>
<path opacity="0.79" d="M123.8 237C123.8 237.9 124.5 238.6 125.4 238.6C126.3 238.6 127 237.9 127 237V218.3C127 217.4 126.3 216.7 125.4 216.7C124.5 216.7 123.8 217.4 123.8 218.3V237Z" fill="#F7F7F7"/>
<path d="M159.2 166.4H147.1V167.7H159.2V166.4Z" fill="white"/>
<path d="M159.2 166.4L147.1 166.3L147 177.4C147 180.7 149.7 183.5 153 183.5C156.3 183.5 159.1 180.8 159.1 177.5L159.2 166.4Z" fill="#F0EFF6"/>
<path d="M147.1 155.6L147 166.7L159.1 166.8L159.2 155.7C159.2 152.4 156.5 149.6 153.2 149.6C149.9 149.6 147.2 152.3 147.1 155.6Z" fill="#EE382D"/>
<path opacity="0.79" d="M153.6 176.5C153.6 177.4 154.3 178.1 155.2 178.1C156.1 178.1 156.8 177.4 156.8 176.5V157.8C156.8 156.9 156.1 156.2 155.2 156.2C154.3 156.2 153.6 156.9 153.6 157.8V176.5Z" fill="#F7F7F7"/>
<path d="M159.2 226.8H147.1V228H159.2V226.8Z" fill="white"/>
<path d="M159.2 226.8L147.1 226.7L147 237.8C147 241.1 149.7 243.9 153 243.9C156.3 243.9 159.1 241.2 159.1 237.9L159.2 226.8Z" fill="#F0EFF6"/>
<path d="M147.1 216.1L147 227.2L159.1 227.3L159.2 216.2C159.2 212.9 156.5 210.1 153.2 210.1C149.9 210 147.2 212.7 147.1 216.1Z" fill="#EE382D"/>
<path opacity="0.79" d="M153.6 237C153.6 237.9 154.3 238.6 155.2 238.6C156.1 238.6 156.8 237.9 156.8 237V218.3C156.8 217.4 156.1 216.7 155.2 216.7C154.3 216.7 153.6 217.4 153.6 218.3V237Z" fill="#F7F7F7"/>
<path d="M189.1 166.4H177V167.7H189.1V166.4Z" fill="white"/>
<path d="M189 166.4L176.9 166.3L176.8 177.4C176.8 180.7 179.5 183.5 182.8 183.5C186.1 183.5 188.9 180.8 188.9 177.5L189 166.4Z" fill="#F0EFF6"/>
<path d="M176.999 155.6L176.899 166.7L188.999 166.8L189.099 155.7C189.099 152.4 186.399 149.6 183.099 149.6C179.699 149.6 176.999 152.3 176.999 155.6Z" fill="#EE382D"/>
<path opacity="0.79" d="M183.5 176.5C183.5 177.4 184.2 178.1 185.1 178.1C186 178.1 186.7 177.4 186.7 176.5V157.8C186.7 156.9 186 156.2 185.1 156.2C184.2 156.2 183.5 156.9 183.5 157.8V176.5Z" fill="#F7F7F7"/>
<path d="M189.1 226.8H177V228H189.1V226.8Z" fill="white"/>
<path d="M189 226.8L176.9 226.7L176.8 237.8C176.8 241.1 179.5 243.9 182.8 243.9C186.1 243.9 188.9 241.2 188.9 237.9L189 226.8Z" fill="#F0EFF6"/>
<path d="M176.999 216.1L176.899 227.2L188.999 227.3L189.099 216.2C189.099 212.9 186.399 210.1 183.099 210.1C179.699 210 176.999 212.7 176.999 216.1Z" fill="#EE382D"/>
<path opacity="0.79" d="M183.5 237C183.5 237.9 184.2 238.6 185.1 238.6C186 238.6 186.7 237.9 186.7 237V218.3C186.7 217.4 186 216.7 185.1 216.7C184.2 216.7 183.5 217.4 183.5 218.3V237Z" fill="#F7F7F7"/>
<path d="M75.0996 196C75.0996 196.9 74.3996 197.7 73.3996 197.7H52.7996C51.8996 197.7 51.0996 197 51.0996 196C51.0996 195.1 51.7996 194.3 52.7996 194.3H73.4996C74.3996 194.4 75.0996 195.1 75.0996 196Z" fill="#E8E7EE"/>
<path d="M106.1 196C106.1 196.9 105.4 197.7 104.4 197.7H83.7C82.8 197.7 82 197 82 196C82 195.1 82.7 194.3 83.7 194.3H104.4C105.4 194.4 106.1 195.1 106.1 196Z" fill="#E8E7EE"/>
<path d="M137.1 196C137.1 196.9 136.4 197.7 135.4 197.7H114.7C113.8 197.7 113 197 113 196C113 195.1 113.7 194.3 114.7 194.3H135.4C136.3 194.4 137.1 195.1 137.1 196Z" fill="#E8E7EE"/>
<path d="M168 196C168 196.9 167.3 197.7 166.3 197.7H145.6C144.7 197.7 143.9 197 143.9 196C143.9 195.1 144.6 194.3 145.6 194.3H166.3C167.3 194.4 168 195.1 168 196Z" fill="#E8E7EE"/>
<path d="M199 196C199 196.9 198.3 197.7 197.3 197.7H176.6C175.7 197.7 174.9 197 174.9 196C174.9 195.1 175.6 194.3 176.6 194.3H197.3C198.3 194.4 199 195.1 199 196Z" fill="#E8E7EE"/>
<path d="M333.3 72C327.4 72 322.7 76.7 322.7 82.6V110.8H362.1V82.6C362.1 76.7 357.4 72 351.5 72H333.3Z" fill="#F6CE5B"/>
<path d="M356 112.6H328.7V125.8H356V112.6Z" fill="#F6CE5B"/>
<path d="M356 112.6H328.7V119.9H356V112.6Z" fill="#E5B52C"/>
<path d="M328.2 82.1001C327.4 82.1001 326.7 82.9001 326.7 84.0001V113.6C326.7 114.6 327.4 115.5 328.2 115.5C329 115.5 329.7 114.7 329.7 113.6V84.0001C329.7 83.0001 329 82.1001 328.2 82.1001Z" fill="#E5B52C"/>
<path d="M335.3 82.1001C334.5 82.1001 333.8 82.9001 333.8 84.0001V113.6C333.8 114.6 334.5 115.5 335.3 115.5C336.1 115.5 336.8 114.7 336.8 113.6V84.0001C336.8 83.0001 336.1 82.1001 335.3 82.1001Z" fill="#E5B52C"/>
<path d="M342.4 82.1001C341.6 82.1001 340.9 82.9001 340.9 84.0001V113.6C340.9 114.6 341.6 115.5 342.4 115.5C343.2 115.5 343.9 114.7 343.9 113.6V84.0001C343.9 83.0001 343.2 82.1001 342.4 82.1001Z" fill="#E5B52C"/>
<path d="M349.5 82.1001C348.7 82.1001 348 82.9001 348 84.0001V113.6C348 114.6 348.7 115.5 349.5 115.5C350.3 115.5 351 114.7 351 113.6V84.0001C351 83.0001 350.3 82.1001 349.5 82.1001Z" fill="#E5B52C"/>
<path d="M356.601 82.1001C355.801 82.1001 355.101 82.9001 355.101 84.0001V113.6C355.101 114.6 355.801 115.5 356.601 115.5C357.401 115.5 358.101 114.7 358.101 113.6V84.0001C358.101 83.0001 357.501 82.1001 356.601 82.1001Z" fill="#E5B52C"/>
<path d="M362.1 101.6H327.9V109.8H362.1V101.6Z" fill="#E5B52C"/>
<path d="M326.3 127.5V136.6C326.3 148.2 301.9 153.4 301.9 163.4V195.7V215.5V250.6C301.9 257.7 307.7 263.5 314.8 263.5H370.2C377.3 263.5 383.1 257.7 383.1 250.6V215.5V195.7V163.4C383.1 153.4 358.7 148.2 358.7 136.6V127.5H326.3Z" fill="#176F49"/>
<path d="M383.1 171.4H301.9V219.9H383.1V171.4Z" fill="#FABBA0"/>
<path d="M366.3 104.7H318.4V116.6H366.3V104.7Z" fill="#F6C53B"/>
<path d="M316.5 123.2C314 123.2 312 125.1 312 127.5C312 129.9 314 131.8 316.5 131.8H368.4C370.9 131.8 372.9 129.9 372.9 127.5C372.9 125.1 370.9 123.2 368.4 123.2H316.5Z" fill="#F6C53B"/>
<path d="M366.401 194.6C366.401 195.5 365.601 196.3 364.701 196.3H320.301C319.401 196.3 318.601 195.5 318.601 194.6C318.601 193.7 319.401 192.9 320.301 192.9H364.701C365.701 192.9 366.401 193.6 366.401 194.6Z" fill="#E9EDF7"/>
<path d="M366.401 184.6C366.401 185.5 365.601 186.3 364.701 186.3H320.301C319.401 186.3 318.601 185.5 318.601 184.6C318.601 183.7 319.401 182.9 320.301 182.9H364.701C365.701 182.9 366.401 183.7 366.401 184.6Z" fill="#E9EDF7"/>
<path d="M366.401 204.3C366.401 205.2 365.601 206 364.701 206H320.301C319.401 206 318.601 205.2 318.601 204.3C318.601 203.4 319.401 202.6 320.301 202.6H364.701C365.701 202.6 366.401 203.3 366.401 204.3Z" fill="#E9EDF7"/>
<path opacity="0.36" d="M376.3 241.4C376.3 247.1 371.7 251.6 366 251.6C360.3 251.6 355.7 247 355.7 241.4V165.4C355.7 159.7 360.3 155.1 366 155.1C371.7 155.1 376.3 159.7 376.3 165.4V241.4Z" fill="white"/>
<path d="M372 258.4C372 260.5 370.3 262.1 368.3 262.1H315.9C313.8 262.1 312.2 260.4 312.2 258.4C312.2 256.3 313.9 254.7 315.9 254.7H368.3C370.3 254.7 372 256.4 372 258.4Z" fill="#135A3B"/>
<path d="M358.501 131.7H326.601V138H358.501V131.7Z" fill="#135A3B"/>
<path d="M391.3 105.3C386.9 105.3 383.3 108.9 383.3 113.3V152.2C383.3 156.6 386.9 160.2 391.3 160.2C395.7 160.2 399.3 156.6 399.3 152.2V113.3C399.3 108.8 395.7 105.3 391.3 105.3Z" fill="#E2362A"/>
<path d="M403 156.4H379.7C369.7 156.4 361.6 164.5 361.6 174.5V252.8C361.6 258.6 366.3 263.4 372.2 263.4H410.4C416.2 263.4 421 258.7 421 252.8V174.5C421 164.5 412.9 156.4 403 156.4Z" fill="#863821"/>
<path d="M413.999 160.2C410.999 157.8 407.099 156.4 402.999 156.4H379.699C375.499 156.4 371.699 157.8 368.699 160.2H413.999Z" fill="#5E2818"/>
<path d="M410.4 130.5H372.3C369.4 130.5 367 132.9 367 135.8V153.2H415.7V135.8C415.7 132.8 413.3 130.5 410.4 130.5Z" fill="#E3EAF7"/>
<path d="M370.7 133.5C370.1 133.5 369.7 133.9 369.7 134.5V151.3C369.7 151.8 370.2 152.3 370.7 152.3C371.3 152.3 371.7 151.9 371.7 151.3V134.5C371.8 133.9 371.3 133.5 370.7 133.5Z" fill="#DDE1EA"/>
<path d="M375.9 133.5C375.3 133.5 374.9 133.9 374.9 134.5V151.3C374.9 151.8 375.4 152.3 375.9 152.3C376.5 152.3 376.9 151.9 376.9 151.3V134.5C376.9 133.9 376.4 133.5 375.9 133.5Z" fill="#DDE1EA"/>
<path d="M381 133.5C380.4 133.5 380 133.9 380 134.5V151.3C380 151.8 380.5 152.3 381 152.3C381.6 152.3 382 151.9 382 151.3V134.5C382 133.9 381.6 133.5 381 133.5Z" fill="#DDE1EA"/>
<path d="M386.2 133.5C385.6 133.5 385.2 133.9 385.2 134.5V151.3C385.2 151.8 385.7 152.3 386.2 152.3C386.8 152.3 387.2 151.9 387.2 151.3V134.5C387.2 133.9 386.7 133.5 386.2 133.5Z" fill="#DDE1EA"/>
<path d="M391.3 133.5C390.7 133.5 390.3 133.9 390.3 134.5V151.3C390.3 151.8 390.8 152.3 391.3 152.3C391.9 152.3 392.3 151.9 392.3 151.3V134.5C392.3 133.9 391.9 133.5 391.3 133.5Z" fill="#DDE1EA"/>
<path d="M396.5 133.5C395.9 133.5 395.5 133.9 395.5 134.5V151.3C395.5 151.8 396 152.3 396.5 152.3C397.1 152.3 397.5 151.9 397.5 151.3V134.5C397.5 133.9 397 133.5 396.5 133.5Z" fill="#DDE1EA"/>
<path d="M401.6 133.5C401 133.5 400.6 133.9 400.6 134.5V151.3C400.6 151.8 401.1 152.3 401.6 152.3C402.2 152.3 402.6 151.9 402.6 151.3V134.5C402.6 133.9 402.2 133.5 401.6 133.5Z" fill="#DDE1EA"/>
<path d="M406.7 133.5C406.1 133.5 405.7 133.9 405.7 134.5V151.3C405.7 151.8 406.2 152.3 406.7 152.3C407.3 152.3 407.7 151.9 407.7 151.3V134.5C407.8 133.9 407.3 133.5 406.7 133.5Z" fill="#DDE1EA"/>
<path d="M411.9 133.5C411.3 133.5 410.9 133.9 410.9 134.5V151.3C410.9 151.8 411.4 152.3 411.9 152.3C412.5 152.3 412.9 151.9 412.9 151.3V134.5C412.9 133.9 412.5 133.5 411.9 133.5Z" fill="#DDE1EA"/>
<path d="M415.7 148.2H367V156.4H415.7V148.2Z" fill="#DDE1EA"/>
<path d="M415.7 153H367V156.4H415.7V153Z" fill="#E9EDF7"/>
<path d="M421 184.6H361.6V238.5H421V184.6Z" fill="#8BB33F"/>
<path d="M401 191.7C401 192.4 400.5 192.9 399.8 192.9H384C383.3 192.9 382.8 192.4 382.8 191.7C382.8 191 383.3 190.5 384 190.5H399.8C400.4 190.4 401 191 401 191.7Z" fill="#E9EDF7"/>
<path d="M414.3 204.3C414.3 204.8 413.9 205.3 413.3 205.3H369.1C368.6 205.3 368.1 204.9 368.1 204.3C368.1 203.8 368.5 203.3 369.1 203.3H413.3C413.9 203.3 414.3 203.8 414.3 204.3Z" fill="#E9EDF7"/>
<path d="M414.3 211.3C414.3 211.8 413.9 212.3 413.3 212.3H369.1C368.6 212.3 368.1 211.9 368.1 211.3C368.1 210.8 368.5 210.3 369.1 210.3H413.3C413.9 210.4 414.3 210.8 414.3 211.3Z" fill="#E9EDF7"/>
<path opacity="0.36" d="M412.6 247.2C412.6 252.4 408.4 256.6 403.2 256.6C398 256.6 393.8 252.4 393.8 247.2V177.4C393.8 172.2 398 168 403.2 168C408.4 168 412.6 172.2 412.6 177.4V247.2Z" fill="white"/>
<path d="M412.899 260.1C412.899 261.2 411.999 262.2 410.799 262.2H371.999C370.899 262.2 369.899 261.3 369.899 260.1C369.899 259 370.799 258 371.999 258H410.899C411.999 258.1 412.899 259 412.899 260.1Z" fill="#5E2818"/>
<path d="M200.7 63.8H172.5C172.2 91.9 149.2 102.6 149.2 120.8V255C149.2 259.7 153 263.4 157.6 263.4H200.7H243.8C248.5 263.4 252.2 259.6 252.2 255V120.8C252.2 102.7 229.2 92 228.9 63.8H200.7Z" fill="#F6C53B"/>
<path d="M233 82.5999C230.6 77.1999 229 71.1 228.9 63.7H172.5C172.4 71 170.8 77.1999 168.4 82.5999H233Z" fill="#DCA527"/>
<path d="M252.2 140H149.2V217.4H252.2V140Z" fill="#E3EAF7"/>
<path d="M170.3 31.2C166.3 31.2 163 34.4 163 38.5V69.5C163 73.5 166.2 76.8 170.3 76.8H229.7C233.7 76.8 237 73.5999 237 69.5V38.5C237 34.5 233.8 31.2 229.7 31.2H170.3Z" fill="#E3EAF7"/>
<path d="M236.9 31.2H163V76.6999H236.9V31.2Z" fill="#ECF1FA"/>
<path d="M169.5 36.3999C168.7 36.3999 168.1 36.9999 168.1 37.7999V71.9999C168.1 72.7999 168.7 73.3999 169.5 73.3999C170.3 73.3999 170.9 72.7999 170.9 71.9999V37.7999C170.8 36.9999 170.2 36.3999 169.5 36.3999Z" fill="#DDE1EA"/>
<path d="M177.2 36.3999C176.4 36.3999 175.8 36.9999 175.8 37.7999V71.9999C175.8 72.7999 176.4 73.3999 177.2 73.3999C178 73.3999 178.6 72.7999 178.6 71.9999V37.7999C178.5 36.9999 177.9 36.3999 177.2 36.3999Z" fill="#DDE1EA"/>
<path d="M184.9 36.3999C184.1 36.3999 183.5 36.9999 183.5 37.7999V71.9999C183.5 72.7999 184.1 73.3999 184.9 73.3999C185.7 73.3999 186.3 72.7999 186.3 71.9999V37.7999C186.2 36.9999 185.6 36.3999 184.9 36.3999Z" fill="#DDE1EA"/>
<path d="M192.599 36.3999C191.899 36.3999 191.199 36.9999 191.199 37.7999V71.9999C191.199 72.7999 191.799 73.3999 192.599 73.3999C193.399 73.3999 193.999 72.7999 193.999 71.9999V37.7999C193.899 36.9999 193.299 36.3999 192.599 36.3999Z" fill="#DDE1EA"/>
<path d="M200.299 36.3999C199.499 36.3999 198.899 36.9999 198.899 37.7999V71.9999C198.899 72.7999 199.499 73.3999 200.299 73.3999C201.099 73.3999 201.699 72.7999 201.699 71.9999V37.7999C201.599 36.9999 200.999 36.3999 200.299 36.3999Z" fill="#DDE1EA"/>
<path d="M208 36.3999C207.2 36.3999 206.6 36.9999 206.6 37.7999V71.9999C206.6 72.7999 207.2 73.3999 208 73.3999C208.8 73.3999 209.4 72.7999 209.4 71.9999V37.7999C209.4 36.9999 208.7 36.3999 208 36.3999Z" fill="#DDE1EA"/>
<path d="M215.7 36.3999C214.9 36.3999 214.3 36.9999 214.3 37.7999V71.9999C214.3 72.7999 214.9 73.3999 215.7 73.3999C216.5 73.3999 217.1 72.7999 217.1 71.9999V37.7999C217.1 36.9999 216.4 36.3999 215.7 36.3999Z" fill="#DDE1EA"/>
<path d="M223.4 36.3999C222.6 36.3999 222 36.9999 222 37.7999V71.9999C222 72.7999 222.6 73.3999 223.4 73.3999C224.2 73.3999 224.8 72.7999 224.8 71.9999V37.7999C224.8 36.9999 224.2 36.3999 223.4 36.3999Z" fill="#DDE1EA"/>
<path d="M231.099 36.3999C230.299 36.3999 229.699 36.9999 229.699 37.7999V71.9999C229.699 72.7999 230.299 73.3999 231.099 73.3999C231.899 73.3999 232.499 72.7999 232.499 71.9999V37.7999C232.499 36.9999 231.899 36.3999 231.099 36.3999Z" fill="#DDE1EA"/>
<path d="M236.9 62.4001H163V76.5001H236.9V62.4001Z" fill="#ECF1FA"/>
<path d="M236.8 62.3H163V64.8001H236.8V62.3Z" fill="#DDE1EA"/>
<path opacity="0.36" d="M245.301 226.1C245.301 233.6 239.201 239.7 231.701 239.7C224.201 239.7 218.101 233.6 218.101 226.1V125.1C218.101 117.6 224.201 111.5 231.701 111.5C239.201 111.5 245.301 117.6 245.301 125.1V226.1Z" fill="white"/>
<path d="M212.3 153.3C212.3 154.5 211.3 155.5 210.1 155.5H166.5C165.3 155.5 164.3 154.5 164.3 153.3C164.3 152.1 165.3 151.1 166.5 151.1H210C211.3 151 212.3 152 212.3 153.3Z" fill="white"/>
<path d="M231.6 193.2C231.6 194.4 230.6 195.3 229.5 195.3H163.8C162.6 195.3 161.7 194.3 161.7 193.2C161.7 192 162.7 191.1 163.8 191.1H229.5C230.6 191.1 231.6 192.1 231.6 193.2Z" fill="white"/>
<path d="M231.6 204C231.6 205.2 230.6 206.1 229.5 206.1H163.8C162.6 206.1 161.7 205.1 161.7 204C161.7 202.8 162.7 201.9 163.8 201.9H229.5C230.6 201.8 231.6 202.8 231.6 204Z" fill="white"/>
<path d="M247.8 259.3C247.8 261.4 246.1 263.1 244 263.1H159.6C157.5 263.1 155.8 261.4 155.8 259.3C155.8 257.2 157.5 255.5 159.6 255.5H244C246 255.4 247.8 257.1 247.8 259.3Z" fill="#DCA527"/>
<path d="M285 169.7H244.8C242.6 169.7 240.7 171.5 240.7 173.8V259.3C240.7 261.5 242.5 263.4 244.8 263.4H285C287.2 263.4 289.1 261.6 289.1 259.3V173.8C289.1 171.6 287.2 169.7 285 169.7Z" fill="#F493B2"/>
<path d="M289.1 185.6V173.8C289.1 171.6 287.3 169.7 285 169.7H244.8C242.6 169.7 240.7 171.5 240.7 173.8V185.6H289.1Z" fill="#D97393"/>
<path d="M289.1 198.3H240.7V249.9H289.1V198.3Z" fill="#9999AE"/>
<path d="M290.7 154.3H239.1C236.9 154.3 235 156.1 235 158.4V177.4H294.7V158.4C294.7 156.1 292.9 154.3 290.7 154.3Z" fill="#E3EAF7"/>
<path d="M238.8 157.9C238.3 157.9 237.9 158.3 237.9 158.8V178.9C237.9 179.4 238.3 179.8 238.8 179.8C239.3 179.8 239.7 179.4 239.7 178.9V158.8C239.7 158.3 239.3 157.9 238.8 157.9Z" fill="#DDE1EA"/>
<path d="M244.001 157.9C243.501 157.9 243.101 158.3 243.101 158.8V178.9C243.101 179.4 243.501 179.8 244.001 179.8C244.501 179.8 244.901 179.4 244.901 178.9V158.8C244.901 158.3 244.501 157.9 244.001 157.9Z" fill="#DDE1EA"/>
<path d="M249.201 157.9C248.701 157.9 248.301 158.3 248.301 158.8V178.9C248.301 179.4 248.701 179.8 249.201 179.8C249.701 179.8 250.101 179.4 250.101 178.9V158.8C250.101 158.3 249.701 157.9 249.201 157.9Z" fill="#DDE1EA"/>
<path d="M254.4 157.9C253.9 157.9 253.5 158.3 253.5 158.8V178.9C253.5 179.4 253.9 179.8 254.4 179.8C254.9 179.8 255.3 179.4 255.3 178.9V158.8C255.3 158.3 254.9 157.9 254.4 157.9Z" fill="#DDE1EA"/>
<path d="M259.6 157.9C259.1 157.9 258.7 158.3 258.7 158.8V178.9C258.7 179.4 259.1 179.8 259.6 179.8C260.1 179.8 260.5 179.4 260.5 178.9V158.8C260.5 158.3 260.1 157.9 259.6 157.9Z" fill="#DDE1EA"/>
<path d="M264.9 157.9C264.4 157.9 264 158.3 264 158.8V178.9C264 179.4 264.4 179.8 264.9 179.8C265.4 179.8 265.8 179.4 265.8 178.9V158.8C265.8 158.3 265.4 157.9 264.9 157.9Z" fill="#DDE1EA"/>
<path d="M270.1 157.9C269.6 157.9 269.2 158.3 269.2 158.8V178.9C269.2 179.4 269.6 179.8 270.1 179.8C270.6 179.8 271 179.4 271 178.9V158.8C271 158.3 270.6 157.9 270.1 157.9Z" fill="#DDE1EA"/>
<path d="M275.3 157.9C274.8 157.9 274.4 158.3 274.4 158.8V178.9C274.4 179.4 274.8 179.8 275.3 179.8C275.8 179.8 276.2 179.4 276.2 178.9V158.8C276.2 158.3 275.8 157.9 275.3 157.9Z" fill="#DDE1EA"/>
<path d="M280.501 157.9C280.001 157.9 279.601 158.3 279.601 158.8V178.9C279.601 179.4 280.001 179.8 280.501 179.8C281.001 179.8 281.401 179.4 281.401 178.9V158.8C281.401 158.3 281.001 157.9 280.501 157.9Z" fill="#DDE1EA"/>
<path d="M285.8 157.9C285.3 157.9 284.9 158.3 284.9 158.8V178.9C284.9 179.4 285.3 179.8 285.8 179.8C286.3 179.8 286.7 179.4 286.7 178.9V158.8C286.6 158.3 286.3 157.9 285.8 157.9Z" fill="#DDE1EA"/>
<path d="M291.001 157.9C290.501 157.9 290.101 158.3 290.101 158.8V178.9C290.101 179.4 290.501 179.8 291.001 179.8C291.501 179.8 291.901 179.4 291.901 178.9V158.8C291.901 158.3 291.501 157.9 291.001 157.9Z" fill="#DDE1EA"/>
<path d="M296.8 176.8H233V182.2H296.8V176.8Z" fill="#E9EDF7"/>
<path d="M272.2 209.6C272.2 210.3 271.6 210.9 270.9 210.9H246.3C245.6 210.9 245 210.3 245 209.6C245 208.9 245.6 208.3 246.3 208.3H270.9C271.6 208.3 272.2 208.9 272.2 209.6Z" fill="white"/>
<path d="M283.1 232.2C283.1 232.9 282.6 233.4 281.9 233.4H244.8C244.1 233.4 243.6 232.9 243.6 232.2C243.6 231.5 244.1 231 244.8 231H281.9C282.6 231 283.1 231.5 283.1 232.2Z" fill="white"/>
<path d="M283.1 238.2C283.1 238.9 282.6 239.4 281.9 239.4H244.8C244.1 239.4 243.6 238.9 243.6 238.2C243.6 237.5 244.1 237 244.8 237H281.9C282.6 237 283.1 237.6 283.1 238.2Z" fill="white"/>
<path opacity="0.36" d="M279.7 246.1C279.7 249.6 276.8 252.5 273.3 252.5C269.8 252.5 266.9 249.7 266.9 246.1V198.9C266.9 195.4 269.7 192.5 273.3 192.5C276.8 192.5 279.7 195.4 279.7 198.9V246.1Z" fill="white"/>
<path d="M283.9 260.3C283.9 261.8 282.8 262.9 281.5 262.9H247.7C246.4 262.9 245.3 261.7 245.3 260.3C245.3 258.8 246.4 257.7 247.7 257.7H281.5C282.8 257.6 283.9 258.8 283.9 260.3Z" fill="#D97393"/>
<path d="M39.8 55.5V55.4H53.1V55.5H69.5C69.4 55.2 69.1 54.6 68 54.1C66.4 53.4 59.4 50.4 59.2 41.3V12.7C59.2 5.7 53.5 0 46.5 0C39.5 0 33.8 5.7 33.8 12.7V41C33.9 50.4 26.7 53.5 25 54.2C23.9 54.7 23.6 55.3 23.5 55.6H39.8V55.5Z" fill="#E2362A"/>
<path d="M83.6996 263.4C90.6996 261.2 92.7996 255.9 92.7996 255.9V125.7C91.9996 107.1 80.1996 106.9 75.8996 102C73.1996 99.0001 69.9996 94.2001 69.9996 94.2001L48.9996 93.3001L48.8996 93.1001L46.4996 93.2001L43.9996 93.1001L43.8996 93.3001L22.8996 94.2001C22.8996 94.2001 19.6996 99.0001 16.9996 102C12.6996 106.9 0.899609 107.1 0.0996094 125.7V255.9C0.0996094 255.9 2.09961 261.2 9.19961 263.4H83.6996Z" fill="#3AB44A"/>
<path d="M72.2994 97.6001H20.5994C19.4994 99.0001 18.2994 100.7 17.0994 102C15.8994 103.3 14.1994 104.3 12.3994 105.4H80.5994C78.6994 104.3 76.9994 103.3 75.8994 102C74.5994 100.7 73.3994 99.0001 72.2994 97.6001Z" fill="#2F9445"/>
<path d="M79.9004 92.6C79.9004 96.6 76.6004 99.9 72.6004 99.9H20.2004C16.2004 99.9 12.9004 96.6 12.9004 92.6V58.8C12.9004 54.8 16.2004 51.5 20.2004 51.5H72.6004C76.6004 51.5 79.9004 54.8 79.9004 58.8V92.6Z" fill="#E3EAF7"/>
<path d="M93 146.4H0V223.8H93V146.4Z" fill="#E3EAF7"/>
<path d="M64.6004 165.7C64.6004 166.8 63.7004 167.6 62.6004 167.6H24.9004C23.8004 167.6 22.9004 166.7 22.9004 165.7C22.9004 164.6 23.8004 163.7 24.9004 163.7H62.7004C63.8004 163.7 64.6004 164.6 64.6004 165.7Z" fill="white"/>
<path d="M81.4002 200.3C81.4002 201.3 80.6002 202.2 79.5002 202.2H22.6002C21.6002 202.2 20.7002 201.4 20.7002 200.3C20.7002 199.3 21.5002 198.4 22.6002 198.4H79.5002C80.6002 198.5 81.4002 199.3 81.4002 200.3Z" fill="white"/>
<path d="M81.4002 209.6C81.4002 210.6 80.6002 211.5 79.5002 211.5H22.6002C21.6002 211.5 20.7002 210.7 20.7002 209.6C20.7002 208.6 21.5002 207.7 22.6002 207.7H79.5002C80.6002 207.8 81.4002 208.6 81.4002 209.6Z" fill="white"/>
<path d="M84.2002 259C84.2002 260.6 82.9002 261.9 81.3002 261.9H10.6002C9.0002 261.9 7.7002 260.6 7.7002 259C7.7002 257.4 9.0002 256.1 10.6002 256.1H81.2002C82.9002 256.1 84.2002 257.4 84.2002 259Z" fill="#2F9445"/>
<path opacity="0.36" d="M83.6004 230.7C83.6004 238.2 77.5004 244.3 70.0004 244.3C62.5004 244.3 56.4004 238.2 56.4004 230.7V129.7C56.4004 122.2 62.5004 116.1 70.0004 116.1C77.5004 116.1 83.6004 122.2 83.6004 129.7V230.7Z" fill="white"/>
</g>
<defs>
<clipPath id="clip0">
<rect width="505.7" height="263.4" fill="white"/>
</clipPath>
</defs>
</svg>
