<svg width="288" height="195" viewBox="0 0 288 195" fill="none" xmlns="http://www.w3.org/2000/svg">
<mask id="mask0" mask-type="alpha" maskUnits="userSpaceOnUse" x="0" y="0" width="288" height="195">
<rect width="288" height="195" fill="#C4C4C4"/>
</mask>
<g mask="url(#mask0)">
<path d="M155.152 78.5515C147.419 86.3587 151.701 95.9568 162.43 98.3602C179.637 102.209 202.507 109.686 213.252 109.152C227.134 108.461 229.393 92.8307 214.162 88.1024C201.911 84.3009 182.492 79.2898 168.72 76.525C164.344 75.6454 158.43 75.5197 155.152 78.5515C154.932 78.7557 155.371 78.3316 155.152 78.5515Z" fill="#FEA67F"/>
<path d="M160.031 74.75C160.031 74.75 170.87 76.5879 184.83 79.5412C183.027 89.4377 182.038 92.5952 182.038 92.5952C182.038 92.5952 167.027 94.0404 166.949 93.7419C166.87 93.4277 160.031 74.75 160.031 74.75Z" fill="#F4E2DC"/>
<path d="M175.716 197.75L172.548 232.843H103.828L109.208 194.278L175.716 197.75Z" fill="#6BC159"/>
<path d="M145.93 73.5721C145.93 73.5721 162.149 73.5407 170.745 77.8606C179.356 82.1491 178.321 98.6433 138.62 99.5073C98.9196 100.371 89.6336 97.7793 89.9944 91.6529C90.6689 80.2012 106.841 74.5618 122.37 73.5564C140.487 74.9074 145.93 73.5721 145.93 73.5721Z" fill="#F4E2DC"/>
<path d="M135.639 63.2825V81.1905C135.639 81.1905 125.271 81.0491 122.354 73.5561C122.354 73.5561 125.255 72.5821 126.385 69.3932C127.514 66.2044 127.31 59.6067 127.31 59.6067L135.639 63.2825Z" fill="#FEA67F"/>
<path d="M135.639 63.2825V81.1905C135.639 81.1905 146.007 81.0491 148.925 73.5561C148.925 73.5561 146.023 72.5821 144.893 69.3932C143.764 66.2044 143.968 59.6067 143.968 59.6067L135.639 63.2825Z" fill="#FEA67F"/>
<path opacity="0.68" d="M126.777 67.9013C126.777 67.9013 129.836 69.6607 135.263 68.7338C140.675 67.807 144.063 64.4296 144.063 64.4296L143.953 61.6021H127.311C127.311 61.6021 127.279 65.1208 126.777 67.9013Z" fill="#F0875F"/>
<path d="M170.43 90.679C170.43 90.679 173.724 119.52 175.449 149.948C177.19 180.392 176.861 203.201 176.861 203.201C176.861 203.201 140.564 207.835 104.832 203.201C104.832 158.384 105.287 122.803 104.346 97.2452C131.043 93.8835 170.43 90.679 170.43 90.679Z" fill="#F4E2DC"/>
<path d="M115.185 88.6683C111.452 78.3162 100.236 77.2794 93.4757 85.9664C82.6368 99.8843 56.3631 135.245 52.2535 145.204C46.936 158.054 59.5944 166.05 70.3705 154.284C79.0448 144.811 102.793 112.153 111.185 100.874C113.852 97.2924 116.8 93.7893 115.467 89.5165C115.373 89.2338 115.279 88.951 115.185 88.6683Z" fill="#FFB894"/>
<path d="M110.683 170.322C110.683 170.322 69.4607 163.395 60.2531 161.384C46.4339 158.368 59.2335 134.679 71.0763 141.277C95.6088 154.975 111.232 160.63 111.232 160.63L110.683 170.322Z" fill="#FFB894"/>
<path d="M122.354 73.5718C122.354 73.5718 123.31 81.6776 137.38 81.2063C149.882 80.7979 148.91 73.5718 148.91 73.5718L148.11 73.1948C148.11 73.1948 145.819 78.9442 137.051 78.9442C128.283 78.9442 123.169 73.1948 123.169 73.1948L122.354 73.5718Z" fill="#F4E2DC"/>
<path d="M104.096 77.2163C104.096 77.2163 97.6802 78.473 92.7078 84.0496C87.7197 89.6419 77.8848 102.256 77.8848 102.256C77.8848 102.256 82.8101 113.566 99.4057 120.07C103.327 115.703 119.97 94.4017 119.97 94.4017C119.97 94.4017 124.911 76.7921 104.096 77.2163Z" fill="#F4E2DC"/>
<path d="M104.77 113.598L109.946 107.126L104.77 123.903V113.598Z" fill="#EAD0CA"/>
<path d="M118.635 40.2695C118.635 40.2695 117.553 38.8086 115.875 39.7825C114.196 40.7565 113.381 43.2856 114.463 46.8986C115.545 50.5116 118.667 52.3024 119.435 48.9722C119.576 45.5791 118.635 40.2695 118.635 40.2695Z" fill="#FEA67F"/>
<path d="M135.638 12.6062V64.1153C135.638 64.1153 126.885 64.6022 123.136 58.303C119.388 52.0038 118.933 47.5268 118.603 42.013C118.274 36.5149 117.49 29.5088 119.388 23.0682C121.286 16.6434 126.791 12.6062 135.638 12.6062Z" fill="#FFB894"/>
<path d="M114.793 44.7934C114.793 44.7934 114.731 41.2903 116.252 41.3217C117.774 41.3532 117.946 47.6367 117.193 48.1551C116.425 48.6735 115.64 47.4325 115.938 45.5788C116.252 43.7409 116.66 43.1911 116.66 43.1911C116.66 43.1911 116.582 41.9344 115.86 42.1072C115.154 42.3114 114.793 44.7934 114.793 44.7934Z" fill="#F0875F"/>
<path d="M152.643 40.2695C152.643 40.2695 153.725 38.8086 155.403 39.7825C157.082 40.7565 157.897 43.2856 156.815 46.8986C155.733 50.5116 152.611 52.3024 151.843 48.9722C151.701 45.5791 152.643 40.2695 152.643 40.2695Z" fill="#FEA67F"/>
<path d="M135.639 12.6062V64.1153C135.639 64.1153 144.391 64.6022 148.14 58.303C151.889 52.0038 152.344 47.5268 152.673 42.013C153.003 36.5149 153.787 29.5088 151.889 23.0682C149.991 16.6434 144.485 12.6062 135.639 12.6062Z" fill="#FFB894"/>
<path d="M156.502 44.7934C156.502 44.7934 156.565 41.2903 155.043 41.3217C153.522 41.3532 153.349 47.6367 154.102 48.1551C154.871 48.6735 155.655 47.4325 155.357 45.5788C155.043 43.7409 154.636 43.1911 154.636 43.1911C154.636 43.1911 154.714 41.9344 155.436 42.1072C156.141 42.3114 156.502 44.7934 156.502 44.7934Z" fill="#F0875F"/>
<path opacity="0.22" d="M148.469 40.395C148.469 40.395 147.465 40.8192 144.532 40.8506C141.599 40.8977 140.846 40.505 140.846 40.505C140.846 40.505 140.971 41.1805 144.375 41.2276C147.779 41.2747 148.469 40.395 148.469 40.395Z" fill="#FEA67F"/>
<path d="M154.556 22.283C153.223 15.3711 149.646 7.76807 135.639 7.76807C121.632 7.76807 118.071 15.3711 116.722 22.283C115.389 29.1948 115.593 34.8814 116.063 39.6883C117.177 39.2484 118.244 39.8925 118.651 40.0653C119.059 40.2381 118.165 33.2634 119.687 27.9538C121.208 22.6443 123.812 20.2094 125.396 19.4554C126.981 18.6857 128.251 19.4554 130.808 20.3979C133.38 21.3404 135.623 21.3404 135.623 21.3404C135.623 21.3404 137.882 21.3247 140.439 20.3979C143.011 19.4554 144.282 18.7014 145.851 19.4554C147.435 20.2251 150.039 22.6443 151.56 27.9538C153.082 33.2634 152.188 40.2381 152.595 40.0653C153.003 39.8925 154.07 39.2484 155.184 39.6883C155.67 34.8814 155.889 29.1948 154.556 22.283Z" fill="#82584D"/>
<path d="M138.008 21.0575C138.008 21.0575 140.423 19.1567 142.086 15.4023C143.749 11.6479 142.494 8.5376 142.494 8.5376L142.949 8.64756C142.949 8.64756 143.906 11.6794 142.714 15.4652C141.506 19.2667 139.561 20.4606 138.008 21.0575Z" fill="#A05C4A"/>
<path d="M142.195 19.7223C142.195 19.7223 145.332 17.8373 146.603 15.0411C147.874 12.245 147.387 10.5327 147.387 10.5327L147.717 10.7369C147.717 10.7369 148.548 13.2975 146.619 16.2193C144.689 19.1254 142.195 19.7223 142.195 19.7223Z" fill="#A05C4A"/>
<path d="M129.867 20.0208C129.867 20.0208 127.467 18.0414 126.306 15.1196C125.146 12.2135 125.114 9.85718 125.114 9.85718L124.848 9.99856C124.848 9.99856 124.895 12.669 126.008 15.7008C127.122 18.7169 129.867 20.0208 129.867 20.0208Z" fill="#A05C4A"/>
<path d="M151.215 26.7444C151.215 26.7444 153.364 27.3413 155.121 25.7861C155.168 26.1789 155.183 26.3202 155.183 26.3202C155.183 26.3202 153.693 27.6398 151.309 27.0586C151.278 26.9486 151.215 26.7444 151.215 26.7444Z" fill="#6B443C"/>
<path d="M116.801 21.8901C116.801 21.8901 117.727 23.6809 121.554 23.4296C121.382 23.7281 121.287 23.9166 121.287 23.9166C121.287 23.9166 120.205 24.0265 118.778 23.6966C117.35 23.3668 116.676 22.5656 116.676 22.5656L116.801 21.8901Z" fill="#6B443C"/>
<path d="M119.561 28.425C119.561 28.425 118.228 29.6817 115.828 29.1634C115.797 29.5561 115.797 29.6975 115.797 29.6975C115.797 29.6975 116.66 29.9802 117.962 29.5718C119.263 29.1476 119.499 28.6921 119.499 28.6921L119.561 28.425Z" fill="#6B443C"/>
<path d="M122.604 21.8902C122.604 21.8902 125.96 19.8638 132.188 21.8902C138.415 23.9166 145.191 26.2101 151.215 23.4297C157.238 20.6492 157.301 13.8944 157.301 13.8944C157.301 13.8944 155.811 16.5963 153.677 17.6645C156.297 14.9626 157.709 11.1768 155.199 7.15538C156.046 9.21323 152.893 10.2343 152.893 10.2343L153.128 8.50633C153.128 8.50633 152.454 10.6899 150.148 9.82587C147.858 8.96189 142.305 2.56842 129.019 6.00864C116.957 9.13468 117.004 21.0419 117.004 21.0419L122.604 21.8902Z" fill="#82584D"/>
<path d="M142.023 19.7223C142.023 19.7223 146.29 20.8847 150.745 19.4081C155.2 17.9315 156.501 15.1196 156.501 15.1196C156.501 15.1196 152.549 21.1675 142.023 19.7223Z" fill="#6B443C"/>
<path d="M146.525 9.8418C146.525 9.8418 150.682 11.4127 153.584 9.95176C150.87 11.5383 147.357 10.2659 146.525 9.8418Z" fill="#6B443C"/>
<path d="M122.604 21.8903C122.604 21.8903 120.235 20.2252 119.577 15.9524C118.918 11.6796 122.322 8.94632 125.835 7.15552C122.918 8.94632 116.094 12.8107 122.604 21.8903Z" fill="#6B443C"/>
<path d="M161.568 99.79C161.568 99.79 202.696 108.43 212.092 109.341C226.178 110.692 229.535 92.2184 216.39 88.9038C203.245 85.5893 162.149 91.1973 162.149 91.1973L161.568 99.79Z" fill="#FFB894"/>
<path d="M157.035 87.9456C156.8 87.9614 159.42 87.6943 159.639 87.6786C160.643 87.6158 159.027 87.5215 160.016 87.5372C159.404 87.0502 158.886 86.9403 158.886 86.9403C158.886 86.9403 155.451 85.7935 153.71 85.9978C151.969 86.2177 151.137 86.6575 150.369 87.5529C149.6 88.4483 150.62 89.7679 150.62 89.7679C150.62 89.7679 149.992 90.6004 150.102 91.5272C150.212 92.4541 151.184 93.428 151.184 93.428C151.184 93.428 150.526 93.8207 150.777 94.8261C151.028 95.8157 151.781 96.6326 151.781 96.6326C151.781 96.6326 151.232 97.1353 151.671 98.0464C152.11 98.9575 154.165 100.575 154.165 100.575C154.165 100.575 160.753 88.2127 160.596 88.0399C160.58 88.0242 160.533 87.9928 160.486 87.9456C159.357 87.8671 158.212 87.8671 157.035 87.9456Z" fill="#FEA67F"/>
<path opacity="0.68" d="M157.035 87.9455C156.799 87.9612 158.948 87.6941 159.168 87.6784C160.219 87.6156 159.105 87.5056 160.125 87.537C160.266 87.3485 160.344 87.1915 160.266 87.1286C159.999 86.9244 157.505 86.8773 157.505 86.8773L154.227 86.406L152.611 87.0972C152.611 87.0972 154.039 87.2543 154.603 87.4271C155.168 87.5999 155.749 88.4167 155.749 88.4167L159.043 88.6052C159.043 88.6052 159.45 88.2596 159.78 87.8983C158.901 87.8669 157.976 87.8826 157.035 87.9455Z" fill="#F0875F"/>
<path d="M170.463 93.9151C170.793 92.7684 172.769 91.6845 171.749 91.386L170.887 91.1032C170.071 90.8676 167.891 90.145 167.263 89.2653C167.185 89.1553 167.091 89.0297 166.981 88.8726C166.008 88.8097 164.973 88.4799 164.158 88.3385C162.385 88.0243 160.66 87.8829 158.887 87.8986C158.777 87.9301 158.636 87.9615 158.417 87.9772C157.554 88.0714 156.111 87.9929 155.358 87.9615C154.589 87.9301 152.283 88.04 152.315 89.391C152.346 90.7262 153.115 90.8676 153.115 91.0247C153.115 91.1975 152.346 92.0143 152.519 93.0511C152.691 94.0879 153.695 94.135 153.711 94.3864C153.726 94.6377 152.989 95.1404 153.068 96.1929C153.146 97.2611 154.15 97.4653 154.181 97.6852C154.213 97.8894 153.915 98.2036 153.664 98.8477C153.413 99.4917 153.632 100.686 154.872 100.811C156.111 100.937 166.244 100.513 166.244 100.513L166.495 100.591C167.514 100.89 172.706 101.267 173.051 100.12L170.463 93.9151Z" fill="#FFB894"/>
<path d="M171.292 90.2548C171.292 90.2548 167.12 88.574 166.414 87.3016C165.708 86.0449 163.747 81.4108 163.794 79.0387C163.841 76.6667 163.01 75.9284 161.865 77.1851C160.704 78.4418 160.955 81.8506 161.269 83.8613C161.567 85.8721 159.591 87.9456 155.873 87.9456C161.928 90.836 168.688 92.3755 171.292 90.2548Z" fill="#FFB894"/>
<path d="M152.329 89.1239C152.329 89.1239 151.858 87.93 154.007 87.5059C156.156 87.0817 158.666 87.5373 160.376 86.4062C162.462 88.4798 160.015 89.5009 160.015 89.5009L152.329 89.1239Z" fill="#FFB894"/>
<path d="M77.8833 145.015L68.6758 139.8L79.3735 143.35L77.8833 145.015Z" fill="#FEA67F"/>
<path d="M104.77 153.247C104.77 153.247 126.369 155.164 145.176 156.42C163.983 157.693 175.905 158.494 175.905 158.494L176.108 162.939C176.108 162.939 133.051 162.123 104.77 157.488C104.942 155.383 104.77 153.247 104.77 153.247Z" fill="#FFCF64"/>
<path d="M175.403 148.943L136.549 156.436L143.874 158.101L175.716 153.247L175.403 148.943Z" fill="#FFCF64"/>
<path d="M133.757 159.688C133.757 159.688 123.922 172.805 115.797 198.63C118.369 199.682 120.644 201.504 120.644 201.504C120.644 201.504 125.271 186.204 130.792 174.925C136.33 163.646 140.251 160.143 140.251 160.143L133.757 159.688Z" fill="#FFCF64"/>
<path d="M151.859 156.876L138.746 156.012L141.538 155.478L153.852 156.577L151.859 156.876Z" fill="#F2BA49"/>
<path d="M133.02 160.74L139.231 161.227L138.4 162.232L131.938 162.389L133.02 160.74Z" fill="#F2BA49"/>
<path d="M105.538 154.912L105.381 154.896L105.538 153.247L105.71 153.263L105.538 154.912Z" fill="#84704C"/>
<path d="M172.955 160.017H172.641L172.672 158.368H172.986L172.955 160.017ZM170.617 159.955L170.288 159.939L170.335 158.289L170.665 158.305L170.617 159.955ZM168.28 159.876L167.951 159.86L168.014 158.211L168.312 158.227V159.059L168.28 159.876ZM165.943 159.782L165.629 159.766L165.692 158.117L166.022 158.132L165.943 159.782ZM163.606 159.656L163.292 159.64L163.371 157.991L163.7 158.007L163.606 159.656ZM161.284 159.53L160.955 159.515L161.049 157.865L161.379 157.881L161.284 159.53ZM158.947 159.405L158.634 159.389L158.712 157.74L159.041 157.755L158.947 159.405ZM156.626 159.263L156.296 159.248L156.406 157.598L156.736 157.614L156.626 159.263ZM154.304 159.106L153.975 159.091L154.085 157.441L154.414 157.457L154.304 159.106ZM151.967 158.949L151.638 158.933L151.747 157.284L152.077 157.3L151.967 158.949ZM149.646 158.776L149.316 158.745L149.442 157.096L149.771 157.127L149.646 158.776ZM147.324 158.604L146.995 158.572L147.12 156.923L147.45 156.954L147.324 158.604ZM144.987 158.431L144.658 158.399L144.783 156.75L145.112 156.781L144.987 158.431ZM142.665 158.258L142.336 158.227L142.462 156.577L142.791 156.609L142.665 158.258ZM140.344 158.069L140.015 158.038L140.14 156.389L140.469 156.42L140.344 158.069ZM138.022 157.881L137.693 157.85L137.834 156.2L138.164 156.232L138.022 157.881ZM135.701 157.692L135.372 157.661L135.513 156.012L135.842 156.043L135.701 157.692ZM133.379 157.488L133.05 157.457L133.191 155.807L133.521 155.839L133.379 157.488ZM131.058 157.3L130.729 157.268L130.87 155.619L131.199 155.65L131.058 157.3ZM128.736 157.096L128.407 157.064L128.548 155.415L128.878 155.446L128.736 157.096ZM126.415 156.891L126.086 156.86L126.227 155.21L126.556 155.242L126.415 156.891ZM124.109 156.687L123.78 156.656L123.937 155.006L124.266 155.038L124.109 156.687ZM121.788 156.467L121.458 156.436L121.615 154.786L121.945 154.818L121.788 156.467ZM119.466 156.263L119.137 156.232L119.294 154.582L119.623 154.614L119.466 156.263ZM117.145 156.043L116.815 156.012L116.972 154.362L117.302 154.394L117.145 156.043ZM114.807 155.823L114.509 155.792L114.557 154.959L114.635 154.127L114.557 154.959L114.666 154.142L114.964 154.174L114.807 155.823ZM112.502 155.603L112.172 155.572L112.329 153.922L112.659 153.954L112.502 155.603ZM110.18 155.368L109.851 155.336L110.008 153.687L110.337 153.718L110.18 155.368ZM107.859 155.148L107.529 155.116L107.702 153.467L108.031 153.498L107.859 155.148Z" fill="#84704C"/>
<path d="M174.881 158.367L174.871 160.032L175.044 160.033L175.053 158.368L174.881 158.367Z" fill="#84704C"/>
<path d="M118.276 198.583L116.66 198.237C116.66 198.237 116.692 198.127 116.739 197.891L118.354 198.284C118.307 198.473 118.291 198.583 118.276 198.583ZM118.856 196.383L117.256 195.944L117.35 195.614L118.95 196.069L118.856 196.383ZM119.499 194.168L117.915 193.682L118.009 193.367L119.593 193.87L119.499 194.168ZM120.205 191.969L119.421 191.718L118.637 191.435L118.746 191.137L120.315 191.671L120.205 191.969ZM120.958 189.801L119.405 189.236L119.515 188.922L121.068 189.487L120.958 189.801ZM121.774 187.649L120.221 187.052L120.346 186.738L121.884 187.335L121.774 187.649ZM122.605 185.497L121.068 184.885L121.193 184.57L122.731 185.199L122.605 185.497ZM123.499 183.377L121.978 182.733L122.103 182.418L123.625 183.078L123.499 183.377ZM124.409 181.256L122.903 180.58L123.044 180.282L124.55 180.957L124.409 181.256ZM125.366 179.167L123.86 178.46L124.001 178.161L125.491 178.868L125.366 179.167ZM126.37 177.077L124.88 176.355L125.021 176.056L126.511 176.795L126.37 177.077ZM127.389 175.019L125.915 174.265L126.072 173.967L127.546 174.721L127.389 175.019ZM128.456 172.962L126.997 172.176L127.154 171.878L128.613 172.663L128.456 172.962ZM129.554 170.935L128.111 170.134L128.268 169.836L129.711 170.637L129.554 170.935ZM130.683 168.925L129.256 168.092L129.428 167.809L130.856 168.642L130.683 168.925ZM131.844 166.929L130.417 166.081L130.589 165.798L132.001 166.647L131.844 166.929ZM133.036 164.966L131.624 164.102L131.797 163.819L133.209 164.699L133.036 164.966ZM134.275 163.018L132.879 162.123L133.052 161.84L134.448 162.735L134.275 163.018Z" fill="#84704C"/>
<path d="M144.407 156.986L144.094 155.352L144.423 155.289L144.737 156.923L144.407 156.986ZM146.682 156.562L146.368 154.928L146.698 154.865L147.011 156.499L146.682 156.562ZM148.956 156.122L148.643 154.488L148.972 154.425L149.286 156.059L148.956 156.122ZM151.231 155.682L150.917 154.048L151.246 153.985L151.56 155.619L151.231 155.682ZM153.505 155.258L153.192 153.624L153.521 153.561L153.835 155.195L153.505 155.258ZM155.78 154.818L155.466 153.184L155.795 153.121L156.109 154.755L155.78 154.818ZM158.054 154.378L157.74 152.744L158.07 152.681L158.384 154.315L158.054 154.378ZM160.329 153.954L160.015 152.32L160.344 152.257L160.658 153.891L160.329 153.954ZM162.603 153.514L162.289 151.88L162.619 151.817L162.932 153.451L162.603 153.514ZM164.877 153.074L164.564 151.44L164.893 151.378L165.207 153.011L164.877 153.074ZM167.168 152.65L166.854 151.016L167.183 150.953L167.497 152.587L167.168 152.65ZM169.442 152.21L169.128 150.576L169.458 150.514L169.771 152.147L169.442 152.21ZM171.716 151.77L171.403 150.137L171.732 150.074L172.046 151.708L171.716 151.77ZM173.991 151.346L173.677 149.712L174.007 149.65L174.32 151.283L173.991 151.346Z" fill="#84704C"/>
<path d="M111.232 160.646C111.232 160.646 121.852 152.87 122.652 153.278C123.452 153.687 128.095 162.342 126.275 163.945C124.456 165.563 114.04 170.888 110.699 170.322C107.342 169.757 111.232 160.646 111.232 160.646Z" fill="#FFB894"/>
<path d="M124.016 159.688C124.016 159.688 130.055 161.086 129.945 163.505C129.851 165.924 124.722 166.835 124.016 166.521C123.31 166.223 124.016 163.992 124.016 163.992C124.016 163.992 122.714 161.007 124.016 159.688Z" fill="#FFB894"/>
<path d="M122.088 153.404C122.088 153.404 128.346 149.068 129.962 150.074C131.578 151.079 136.613 153.891 135.201 155.101C133.789 156.31 130.558 153.357 129.539 153.263C128.535 153.168 126.684 154.378 126.684 154.378C126.684 154.378 129.648 154.598 129.648 156.075C129.648 157.551 128.754 158.195 128.754 158.195C128.754 158.195 130.37 158.714 130.166 160.347C129.962 161.981 128.754 162.955 128.754 162.955C128.754 162.955 123.547 161.023 123.343 160.52C123.155 160.018 122.088 153.404 122.088 153.404Z" fill="#FFB894"/>
<path d="M123.704 165.61L127.578 163.348L124.409 166.584C124.409 166.584 123.5 166.851 123.704 165.61Z" fill="#FEA67F"/>
</g>
</svg>
