<svg width="405" height="331" viewBox="0 0 405 331" fill="none" xmlns="http://www.w3.org/2000/svg">
<mask id="mask0" mask-type="alpha" maskUnits="userSpaceOnUse" x="0" y="0" width="405" height="331">
<rect width="405" height="331" fill="#C4C4C4"/>
</mask>
<g mask="url(#mask0)">
<path d="M335.576 132.067C362.181 132.067 383.749 113.456 383.749 90.4995C383.749 67.5426 362.181 48.9324 335.576 48.9324C308.971 48.9324 287.404 67.5426 287.404 90.4995C287.404 113.456 308.971 132.067 335.576 132.067Z" fill="white"/>
<path d="M339.328 265.718C365.933 265.718 387.5 247.107 387.5 224.15C387.5 201.194 365.933 182.583 339.328 182.583C312.723 182.583 291.156 201.194 291.156 224.15C291.156 247.107 312.723 265.718 339.328 265.718Z" fill="white"/>
<path d="M197.678 103.022C224.283 103.022 245.85 84.4118 245.85 61.4549C245.85 38.4979 224.283 19.8877 197.678 19.8877C171.073 19.8877 149.506 38.4979 149.506 61.4549C149.506 84.4118 171.073 103.022 197.678 103.022Z" fill="white"/>
<path d="M52.5243 269.893C79.1291 269.893 100.697 251.282 100.697 228.325C100.697 205.369 79.1291 186.758 52.5243 186.758C25.9195 186.758 4.35205 205.369 4.35205 228.325C4.35205 251.282 25.9195 269.893 52.5243 269.893Z" fill="white"/>
<path d="M65.5849 124.248C92.1897 124.248 113.757 105.638 113.757 82.6807C113.757 59.7238 92.1897 41.1135 65.5849 41.1135C38.9801 41.1135 17.4126 59.7238 17.4126 82.6807C17.4126 105.638 38.9801 124.248 65.5849 124.248Z" fill="white"/>
<path d="M282.024 154.742C292.013 154.742 300.111 148.137 300.111 139.99C300.111 131.843 292.013 125.238 282.024 125.238C272.035 125.238 263.937 131.843 263.937 139.99C263.937 148.137 272.035 154.742 282.024 154.742Z" fill="white"/>
<path d="M282.024 200.411C292.013 200.411 300.111 193.807 300.111 185.659C300.111 177.512 292.013 170.907 282.024 170.907C272.035 170.907 263.937 177.512 263.937 185.659C263.937 193.807 272.035 200.411 282.024 200.411Z" fill="white"/>
<path d="M112.731 148.835C122.72 148.835 130.818 142.23 130.818 134.083C130.818 125.936 122.72 119.331 112.731 119.331C102.742 119.331 94.6441 125.936 94.6441 134.083C94.6441 142.23 102.742 148.835 112.731 148.835Z" fill="white"/>
<path d="M110.466 201.51C120.455 201.51 128.552 194.906 128.552 186.758C128.552 178.611 120.455 172.006 110.466 172.006C100.477 172.006 92.3788 178.611 92.3788 186.758C92.3788 194.906 100.477 201.51 110.466 201.51Z" fill="white"/>
<path d="M248.611 171.545C254.3 171.545 258.911 167.791 258.911 163.161C258.911 158.53 254.3 154.776 248.611 154.776C242.923 154.776 238.311 158.53 238.311 163.161C238.311 167.791 242.923 171.545 248.611 171.545Z" fill="white"/>
<path d="M141.719 168.468C147.408 168.468 152.019 164.714 152.019 160.083C152.019 155.453 147.408 151.699 141.719 151.699C136.031 151.699 131.419 155.453 131.419 160.083C131.419 164.714 136.031 168.468 141.719 168.468Z" fill="white"/>
<path d="M239.161 280.115C238.701 288.994 228.047 337.247 227.162 346.127C226.277 355.006 222.03 378.142 222.03 380.371C222.03 382.6 225.145 386.385 223.587 386.138C222.03 385.925 216.013 385.678 211.588 387.906C207.129 390.135 206.456 393.036 205.571 391.692C204.686 390.347 207.129 386.138 207.129 386.138C208.474 378.815 206.81 316.552 197.678 316.552C188.546 316.552 186.883 378.779 188.228 386.138C188.228 386.138 189.679 389.357 188.794 390.701C187.909 392.045 188.228 390.135 183.804 387.906C179.344 385.678 173.362 385.89 171.805 386.138C170.247 386.35 173.362 382.565 173.362 380.371C173.362 378.142 169.15 355.042 168.23 346.127C167.345 337.247 156.656 288.994 156.231 280.115H239.161Z" fill="#32475B"/>
<path d="M207.66 385.818C208.58 381.042 210.703 314.181 197.678 314.181C184.653 314.181 187.095 382.457 187.697 385.818C187.697 385.818 189.042 388.295 188.157 391.125C188.369 391.231 188.511 391.125 188.794 390.736C189.679 389.391 188.228 386.172 188.228 386.172C186.883 378.849 188.546 316.587 197.678 316.587C206.81 316.587 208.474 378.814 207.129 386.172C207.129 386.172 204.686 390.382 205.571 391.726C205.819 392.115 206.067 392.151 206.35 391.938C205.5 389.427 207.66 385.818 207.66 385.818Z" fill="#2B3C4D"/>
<path d="M156.196 280.115C156.408 284.466 159.098 298.298 161.859 312.307C162.177 312.272 162.46 312.201 162.708 312.095C162.708 312.095 163.947 314.253 166.141 314.182C168.301 314.111 169.044 313.156 169.044 313.156C169.044 313.156 170.141 314.182 172.477 313.156C174.813 312.13 174.813 310.538 174.813 310.043C174.813 310.043 176.477 309.972 177.078 308.451C177.645 306.965 177.078 305.373 175.167 300.881C173.256 296.388 173.327 292.461 174.318 291.294C175.309 290.126 188.405 293.381 197.572 293.381C206.739 293.381 220.012 290.126 221.003 291.294C221.994 292.461 222.101 296.388 220.154 300.881C218.243 305.373 217.641 306.965 218.243 308.451C218.809 309.937 220.508 310.043 220.508 310.043C220.508 310.538 220.508 312.13 222.844 313.156C225.18 314.182 226.277 313.156 226.277 313.156C226.277 313.156 227.02 314.111 229.18 314.182C231.339 314.253 232.613 312.095 232.613 312.095C232.861 312.166 233.179 312.236 233.462 312.307C236.223 298.298 238.913 284.466 239.125 280.115H156.196Z" fill="#2B3C4D"/>
<path d="M253.212 232.18C253.212 232.18 254.876 242.651 254.557 246.507C254.239 250.54 253.212 252.521 253.212 252.521C253.212 252.521 254.557 265.54 241.532 287.685C241.532 287.685 240.86 293.027 240.046 294.937C239.196 296.848 238.701 297.697 238.453 298.616C238.205 299.536 238.134 304.524 236.789 307.213C235.444 309.866 234.028 310.22 233.108 309.477C233.108 309.477 231.763 311.635 230.454 312.307C229.144 312.979 226.773 311.564 226.631 310.892C226.631 310.892 225.781 312.484 224.366 312.13C222.95 311.812 221.605 311.14 221.605 309.3C221.605 309.3 218.95 308.416 219.269 305.833C219.552 303.604 223.339 297.626 223.693 291.612L219.198 288.286H176.158L171.663 291.612C171.981 297.626 176.087 303.286 176.37 305.515C176.724 308.133 173.716 309.017 173.716 309.017C173.964 311.069 172.406 311.776 170.99 312.095C169.575 312.413 168.725 310.857 168.725 310.857C168.548 311.529 166.212 312.944 164.902 312.272C163.557 311.599 162.248 309.441 162.248 309.441C161.328 310.184 159.912 309.866 158.567 307.177C157.222 304.524 157.151 299.501 156.903 298.581C156.655 297.661 156.16 296.848 155.31 294.902C154.461 292.992 153.824 287.65 153.824 287.65C140.799 265.469 142.144 252.486 142.144 252.486C142.144 252.486 141.011 250.398 140.657 246.825C140.268 242.969 142.144 232.144 142.144 232.144H253.212V232.18Z" fill="#FFB288"/>
<path d="M142.108 232.18C142.108 232.18 141.4 236.283 140.94 240.316C144.869 243.818 150.037 246.047 154.992 246.507C153.647 254.325 153.435 262.568 155.735 270.174C157.045 274.49 159.168 278.629 162.106 282.096C163.38 283.581 165.221 284.749 166.354 286.27C168.017 288.499 169.327 291.47 170.495 293.982C171.38 295.857 172.477 297.626 173.68 299.289C172.689 296.989 171.769 294.336 171.627 291.647L176.123 288.322H219.163L223.658 291.647C223.516 294.371 222.631 297.131 221.711 299.501C223.021 297.767 224.153 295.963 225.073 293.982C226.242 291.47 227.551 288.499 229.215 286.27C230.347 284.749 232.223 283.581 233.462 282.096C236.4 278.629 238.524 274.525 239.833 270.174C242.134 262.568 241.886 254.361 240.576 246.507C245.39 246.047 250.381 243.925 254.274 240.599C253.885 236.496 253.177 232.18 253.177 232.18H142.108Z" fill="#FF9F75"/>
<path d="M224.26 181.132C233.993 187.712 238.594 190.401 242.948 194.929C248.717 200.943 257.637 223.619 258.946 233.171C258.946 233.171 256.504 241.838 237.603 243.607C237.603 243.607 244.505 272.05 228.33 284.714C223.835 288.252 211.588 290.268 197.678 290.268C183.768 290.268 171.557 288.252 167.026 284.714C150.851 272.05 157.753 243.607 157.753 243.607C138.852 241.838 136.41 233.171 136.41 233.171C137.755 223.619 146.639 200.943 152.408 194.929C156.762 190.401 161.363 187.712 171.097 181.132C181.538 174.093 213.783 174.093 224.26 181.132Z" fill="#EA4840"/>
<path d="M230.631 279.973C225.782 283.758 212.615 285.952 197.678 285.952C182.741 285.952 169.575 283.758 164.726 279.973C162.46 278.204 160.655 276.152 159.169 273.924C160.797 277.992 163.31 281.777 167.062 284.713C171.557 288.251 183.803 290.267 197.713 290.267C211.624 290.267 223.835 288.251 228.365 284.713C232.117 281.777 234.63 277.992 236.258 273.924C234.701 276.152 232.896 278.204 230.631 279.973Z" fill="#C6352F"/>
<path d="M175.486 150.956C174.671 149.86 173.539 148.657 172.194 148.869C171.203 149.011 170.459 149.931 170.247 150.886C170.035 151.841 170.212 152.867 170.459 153.822C171.38 157.218 173.079 160.402 175.309 163.126C175.238 159.518 175.556 154.565 175.486 150.956Z" fill="#FFA080"/>
<path d="M219.835 150.957C220.649 149.86 221.782 148.658 223.127 148.87C224.118 149.011 224.861 149.931 225.074 150.886C225.286 151.841 225.109 152.867 224.861 153.822C223.941 157.219 222.242 160.402 220.012 163.126C220.083 159.518 219.765 154.565 219.835 150.957Z" fill="#FFA080"/>
<path d="M197.678 185.66C205.394 185.872 211.234 182.724 215.163 177.629C205.076 175.295 190.882 175.259 180.653 177.523C184.618 182.405 190.351 185.483 197.678 185.66Z" fill="#C6352F"/>
<path d="M220.756 153.256C222.065 169.458 214.278 183.856 197.678 183.467C181.609 183.078 173.256 169.281 174.565 153.22C175.698 139.424 181.22 121.24 197.643 120.816C214.526 120.356 219.658 139.53 220.756 153.256Z" fill="#FFC09E"/>
<path d="M220.756 153.255C219.658 139.529 214.526 120.355 197.643 120.779C181.22 121.204 175.698 139.352 174.565 153.184C174.53 153.608 174.495 154.068 174.495 154.493C174.53 154.776 174.53 154.988 174.53 154.988C174.53 154.988 175.521 139.033 181.326 134.824C186.564 131.038 190.316 135.673 197.678 135.673C205.005 135.673 208.686 131.215 214.031 134.824C219.835 138.786 220.791 154.634 220.791 154.634C220.791 154.634 220.791 154.422 220.826 154.033C220.791 153.785 220.791 153.538 220.756 153.255Z" fill="#FF9F75"/>
<path d="M174.495 153.962C174.495 153.962 175.486 138.008 181.29 133.798C186.529 130.013 190.281 134.647 197.643 134.647C204.969 134.647 208.651 130.19 213.995 133.798C219.8 137.76 220.756 153.609 220.756 153.609C220.756 153.609 220.72 151.203 222.136 148.904C222.278 147.701 222.278 147.524 222.384 146.357C223.799 129.128 220.862 114.942 197.607 114.942C174.353 114.942 171.451 128.916 172.866 146.321C172.973 147.489 172.973 147.665 173.114 148.939C174.353 149.93 174.495 153.962 174.495 153.962Z" fill="#574035"/>
<path d="M215.269 128.633C210.633 124.318 204.863 128.598 197.678 128.598C190.493 128.598 185.573 124.424 180.087 129.518C177.397 131.994 176.193 139.565 176.016 144.234C176.724 140.485 178.53 135.744 181.326 133.798C186.635 130.119 190.316 134.647 197.678 134.647C205.005 134.647 208.686 130.155 214.03 133.798C216.862 135.744 218.278 140.237 219.375 144.234C219.41 139.352 218.278 131.464 215.269 128.633Z" fill="#4A362D"/>
<path d="M171.875 305.515C170.495 302.826 168.761 298.192 168.3 298.404C167.84 298.651 170.318 305.656 172.371 308.734C171.982 309.618 171.026 310.29 170.141 309.937C169.256 309.583 168.619 308.769 168.123 307.92C167.132 306.257 165.398 299.041 164.903 299.253C164.407 299.465 166.177 306.47 167.416 309.406C167.239 310.361 166.035 310.786 165.15 310.432C164.265 310.113 163.664 309.264 163.239 308.415C162.496 307 162.071 305.479 161.717 303.923C161.54 303.074 161.505 302.189 161.363 301.34C161.257 300.845 160.655 302.401 161.292 304.913C161.505 305.798 161.929 306.717 161.894 307.637C161.823 309.123 159.841 307.92 159.169 306.116C158.284 303.746 158.248 301.729 158.567 299.394C158.85 297.343 157.93 295.255 156.833 293.274C155.665 291.152 154.921 288.392 156.408 286.27C156.691 285.845 158.001 284.607 156.762 284.501C156.054 284.43 155.594 285.173 154.921 285.173C154.603 285.173 152.975 284.183 150.886 282.308C151.771 284.006 152.762 285.81 153.824 287.649C153.824 287.649 154.496 292.991 155.311 294.902C156.16 296.812 156.656 297.661 156.903 298.581C157.151 299.501 157.222 304.489 158.567 307.177C159.912 309.83 161.328 310.184 162.248 309.441C162.248 309.441 163.593 311.599 164.903 312.271C166.248 312.944 168.584 311.528 168.725 310.856C168.725 310.856 169.575 312.448 170.99 312.094C172.406 311.776 173.964 311.069 173.716 309.017C173.716 309.017 176.406 308.238 176.406 305.904C175.238 308.062 173.043 307.849 171.875 305.515Z" fill="#FF9F75"/>
<path d="M240.294 285.562C239.621 285.456 239.161 284.819 238.453 284.89C237.214 284.996 238.488 286.235 238.807 286.659C240.152 288.605 239.727 291.046 238.665 292.991C237.639 294.866 236.188 296.918 236.294 299.112C236.436 301.765 236.896 304.312 235.94 306.894C235.267 308.663 233.392 309.548 233.321 308.062C233.285 307.142 233.71 306.222 233.922 305.338C234.56 302.826 233.958 301.269 233.852 301.765C233.71 302.614 233.675 303.498 233.498 304.347C233.179 305.904 232.719 307.425 231.976 308.84C231.551 309.689 230.949 310.538 230.064 310.856C229.18 311.175 227.941 310.75 227.799 309.831C229.038 306.894 230.808 299.89 230.312 299.678C229.817 299.465 228.047 306.682 227.091 308.345C226.596 309.194 225.959 310.007 225.074 310.361C224.189 310.715 223.198 310.043 222.844 309.158C224.861 306.081 227.374 299.041 226.914 298.828C226.454 298.581 224.72 303.215 223.339 305.939C222.101 308.345 220.933 308.415 219.375 307.107C219.835 308.769 221.641 309.371 221.641 309.371C221.641 311.21 222.986 311.882 224.401 312.201C225.817 312.519 226.667 310.963 226.667 310.963C226.844 311.635 229.18 313.05 230.489 312.378C231.834 311.705 233.144 309.548 233.144 309.548C234.064 310.29 235.48 309.972 236.825 307.283C238.17 304.63 238.241 299.607 238.488 298.687C238.736 297.767 239.232 296.954 240.081 295.008C240.931 293.098 241.568 287.756 241.568 287.756C242.099 286.871 242.594 285.987 243.054 285.138C241.922 285.492 240.931 285.669 240.294 285.562Z" fill="#FF9F75"/>
<path d="M169.646 243.359C169.646 243.359 169.822 243.217 170.176 242.97C179.45 236.567 191.626 231.331 203.058 233.63C210.668 235.151 218.066 238.512 224.401 242.97C224.755 243.217 224.932 243.359 224.932 243.359C224.932 243.359 224.72 243.253 224.33 243.076C218.667 240.387 212.827 237.946 206.704 236.567C203.058 235.753 199.306 235.434 195.59 235.611C186.635 236.107 178.317 239.467 170.212 243.076C169.858 243.253 169.646 243.359 169.646 243.359Z" fill="#C6352F"/>
<path d="M166.142 208.654C166.142 208.654 158.602 222.344 153.329 243.004C154.674 243.252 156.16 243.429 157.718 243.57C157.718 243.57 158.107 239.29 158.956 234.479C160.301 226.731 163.77 214.031 166.142 208.654Z" fill="#C6352F"/>
<path d="M236.542 234.514C237.356 239.325 237.603 243.605 237.603 243.605C239.232 243.464 240.754 243.252 242.169 243.004C236.896 222.344 229.392 208.689 229.392 208.689C231.728 214.031 235.197 226.731 236.542 234.514Z" fill="#C6352F"/>
<path d="M206.35 176.746C206.35 176.746 204.014 182.476 197.678 182.476C191.343 182.476 189.007 176.746 189.007 176.746C189.007 176.746 183.096 177.701 177.716 171.085C181.432 178.337 188.228 183.255 197.678 183.467C207.695 183.715 214.526 178.55 218.066 170.873C212.65 178.054 206.35 176.746 206.35 176.746Z" fill="#FF9F75"/>
<path d="M174.176 248.984C174.388 249.444 174.707 249.904 175.167 250.399C176.512 251.85 178.707 252.274 180.689 252.062C182.671 251.85 184.547 251.107 186.458 250.541C194.174 248.206 202.456 248.878 210.491 249.515C212.933 249.727 217.145 251.001 219.092 248.913C221.145 246.685 219.057 244.491 217.181 243.112C212.261 239.539 205.571 237.452 199.483 237.452C193.325 237.204 186.918 238.194 181.255 240.6C178.317 241.874 172.336 245.057 174.176 248.984Z" fill="#F55344"/>
<path d="M193.714 76.2423L191.732 75.9593L199.094 28.5197L211.199 26.6094L211.518 28.5904L200.864 30.2885L193.714 76.2423Z" fill="#EA4840"/>
<path d="M193.219 76.1712L193.714 76.242L200.864 30.2882L211.518 28.5901L211.411 27.8826L200.439 29.616L193.219 76.1712Z" fill="#C6352F"/>
<path d="M207.022 92.0917H187.945L184.441 51.8335H210.527L207.022 92.0917Z" fill="#2982BA"/>
<path d="M211.128 48.2944H183.803V51.8321H211.128V48.2944Z" fill="#E8E1DC"/>
<path d="M206.668 46.0664H188.263L187.52 48.2951H207.447L206.668 46.0664Z" fill="#D6CABD"/>
<path d="M210.527 51.8335H184.441L184.547 53.2132H210.385L210.527 51.8335Z" fill="#065781"/>
<path d="M202.714 72.8407C205.616 69.9395 205.616 65.2358 202.714 62.3346C199.811 59.4334 195.105 59.4334 192.202 62.3346C189.299 65.2358 189.299 69.9395 192.202 72.8407C195.105 75.7419 199.811 75.7419 202.714 72.8407Z" fill="#D6CABD"/>
<path d="M339.328 230.411C348.262 230.411 355.504 223.173 355.504 214.244C355.504 205.316 348.262 198.077 339.328 198.077C330.395 198.077 323.153 205.316 323.153 214.244C323.153 223.173 330.395 230.411 339.328 230.411Z" fill="#E8E1DC"/>
<path d="M346.159 226.803L342.195 227.086L340.992 209.858L344.85 208.089L346.159 226.803Z" fill="#FE8B28"/>
<path d="M330.904 228.503L326.798 228.397L327.4 203.315L332.355 203.845L330.904 228.503Z" fill="#FE8B28"/>
<path d="M349.593 229.491L345.522 229.137L347.646 204.126L351.433 202.959L349.593 229.491Z" fill="#FE8B28"/>
<path d="M328.037 229.421L323.967 229.668L322.551 206.391L327.294 204.728L328.037 229.421Z" fill="#FFA83A"/>
<path d="M322.693 208.833L323.577 223.195L325.064 229.598L328.037 229.422L327.896 224.893L323.577 208.939L322.693 208.833Z" fill="#FE8B28"/>
<path d="M328.887 230.837L324.887 231.792L319.684 209.257L322.834 208.55L328.887 230.837Z" fill="#FFC84B"/>
<path d="M336.249 230.234H331.364V206.532L335.081 204.975L336.249 230.234Z" fill="#FFA83A"/>
<path d="M334.656 210.531H333.134L334.054 230.412H335.612L334.656 210.531Z" fill="#FE8B28"/>
<path d="M339.576 228.006H335.612L336.001 204.445L339.894 205.294L339.576 228.006Z" fill="#FE8B28"/>
<path d="M343.399 231.225H339.222L338.656 212.263L342.691 213.324L343.399 231.225Z" fill="#FFA83A"/>
<path d="M343.399 231.226L342.691 213.325L340.885 231.226H343.399Z" fill="#FE8B28"/>
<path d="M345.593 233.206L341.523 232.853L344.106 207.063L347.894 208.16L345.593 233.206Z" fill="#FFC84B"/>
<path d="M339.965 233.418L335.895 233.807L333.807 209.68H337.771L339.965 233.418Z" fill="#FFC84B"/>
<path d="M331.683 232.074L327.223 232.145L326.09 206.816L330.09 206.285L331.683 232.074Z" fill="#FFC84B"/>
<path d="M353.521 224.751H348.46L350.194 207.063L354.229 207.877L353.521 224.751Z" fill="#FFA83A"/>
<path d="M355.503 224.857L351.964 224.432L354.158 209.539L357.84 211.626L355.503 224.857Z" fill="#FFC84B"/>
<path d="M350.265 214.245C350.265 220.294 345.381 225.176 339.328 225.176C333.276 225.176 328.391 220.294 328.391 214.245H318.799L324.321 250.293H354.3L359.822 214.245H350.265Z" fill="#E1B777"/>
<path d="M346.336 232.252H332.355V239.681H346.336V232.252Z" fill="white"/>
<path d="M92.8745 94.1071C92.1312 98.8829 39.0745 98.8121 38.2958 94.1071V87.5624C39.0391 82.7866 92.0958 82.8574 92.8745 87.5624V94.1071Z" fill="#FAB876"/>
<path d="M38.3658 87.4212C40.1356 91.9494 91.0686 92.0202 92.8384 87.4212C91.0686 82.8931 40.1002 82.8223 38.3658 87.4212Z" fill="#FFD499"/>
<path d="M39.1452 85.1565C37.8355 85.1565 36.5259 85.5103 36.2074 86.9253C35.9596 88.022 36.3844 88.871 37.3754 89.3309C37.9063 89.5785 38.4019 89.6493 38.9328 89.5785C39.4991 89.5078 40.1362 89.0125 40.5609 89.72C41.1273 90.6398 42.3307 90.9936 43.3571 90.8521C44.065 90.746 44.8083 90.3568 45.5162 90.5337C46.1179 90.6752 46.5781 91.1705 47.1444 91.4889C48.0646 92.0195 49.2681 91.9841 50.1529 91.3827C50.967 90.8167 52.0642 91.029 53.0199 91.3827C53.9756 91.7365 54.8958 92.2318 55.9223 92.1964C57.4442 92.1256 58.7538 90.7813 60.2758 90.9228C61.6562 91.029 62.8596 92.3025 64.1692 91.9487C64.7356 91.0997 66.5407 91.2058 67.4964 91.595C68.452 91.9841 69.3015 92.6209 70.2925 92.8685C72.9472 93.4699 75.5664 90.9228 78.1856 91.5596C79.5306 91.878 80.4508 92.3733 81.8666 91.9841C83.1055 91.6304 84.0257 91.029 85.4061 91.2766C86.5033 91.4535 87.6006 91.9134 88.6978 91.9134C90.149 91.9134 91.1047 91.1705 92.0249 90.1446C92.9098 89.1186 96.4493 88.0927 94.361 86.2885C93.193 85.298 91.1401 85.5456 89.7243 85.5103C88.3439 85.5103 86.9635 85.5103 85.5477 85.4749C79.5306 85.4395 73.5135 85.4041 67.4964 85.3688C61.0545 85.3334 54.6127 85.298 48.1708 85.2626C45.1623 85.1919 42.1537 85.1565 39.1452 85.1565Z" fill="#4DC04D"/>
<path d="M70.2572 86.4661C69.7617 89.2608 38.6497 88.6594 38.2603 85.9L38.3311 82.044C38.8266 79.2493 69.9386 79.8507 70.328 82.6101L70.2572 86.4661Z" fill="#C6352F"/>
<path d="M92.131 86.0409C91.8125 88.871 60.7359 90.2861 60.1696 87.5621L59.9926 83.7415C60.3112 80.9113 91.3878 79.4963 91.9541 82.2203L92.131 86.0409Z" fill="#EA4840"/>
<path d="M93.1232 83.1054C92.9816 83.636 92.6277 84.1313 91.9198 84.5204C90.504 85.2987 88.6281 85.4048 87.0353 85.4048C85.4072 85.4048 83.779 85.6171 82.1508 85.7232C78.3636 86.0062 74.541 85.9001 70.7891 86.5369C68.0283 86.9967 64.8782 86.643 62.082 86.6076C58.9319 86.5722 55.7464 86.3246 52.5962 86.2185C50.0478 86.1123 47.7471 85.1218 45.0925 85.2987C43.1104 85.4402 41.0929 84.768 39.2524 84.0251C37.4119 83.2469 38.3675 82.3271 38.3675 80.4875C39.1108 75.7117 92.1676 75.7824 92.9462 80.4875C93.017 81.3365 93.4418 81.9379 93.1232 83.1054Z" fill="#593323"/>
<path d="M50.5072 84.131C48.6313 83.848 46.7553 84.0603 44.8794 83.8834C42.508 83.6711 40.2073 82.8575 38.2252 81.5132C38.0482 82.716 37.7651 83.4235 39.2163 84.0249C41.0568 84.8032 43.0743 85.44 45.0564 85.2984C47.711 85.1216 50.0117 86.1475 52.5601 86.2182C53.1264 86.2536 53.6927 86.2536 54.259 86.289C53.268 85.1923 52.0646 84.3787 50.5072 84.131Z" fill="#703F28"/>
<path d="M84.8046 82.4328C80.2387 82.6097 75.7082 82.928 71.1776 83.4587C70.045 83.6002 68.877 83.7417 67.7443 83.9186C67.0718 84.0247 66.1162 83.8478 65.4791 84.0601C64.488 84.3785 64.0279 85.5459 63.6385 86.6779C65.9746 86.7841 68.4522 86.9256 70.7175 86.5364C74.4693 85.8997 78.292 86.0058 82.0792 85.7228C83.7428 85.5813 85.3355 85.4044 86.9637 85.4044C88.5565 85.4044 90.4324 85.2983 91.8482 84.52C92.5561 84.1308 92.91 83.671 93.0516 83.1049C93.3348 82.1144 93.0516 81.5484 92.91 80.8762C90.6094 82.2205 87.6008 82.3267 84.8046 82.4328Z" fill="#703F28"/>
<path d="M65.585 78.9305C73.4427 76.9141 81.5835 76.7372 89.6889 76.5957C90.6445 76.5957 92.7682 78.1523 92.9098 79.1428C93.2991 82.1851 84.6628 81.4069 82.8223 81.4776C76.4158 81.8314 70.0448 82.7158 63.7091 83.6002C63.8507 81.9021 64.771 80.4871 65.585 78.9305Z" fill="#FFC84B"/>
<path d="M92.7683 78.8239C92.3081 77.8688 90.5384 76.5952 89.6535 76.6306C81.5481 76.7367 73.3719 76.949 65.5497 78.9654C64.771 80.522 63.8153 81.937 63.6738 83.6705C64.2047 83.5997 64.771 83.529 65.3373 83.4229C69.6909 81.654 78.1148 81.2649 83.1763 80.805C84.7336 80.6281 91.1047 80.6281 92.7683 78.8239Z" fill="#FFA83A"/>
<path d="M44.4189 74.933C43.1093 75.5344 41.9059 76.2773 40.7024 77.091C39.7822 77.6924 38.154 78.1169 37.6939 79.2136C36.8444 81.23 39.7114 81.3361 40.844 81.6899C41.5519 81.9375 42.0828 82.362 42.7199 82.6451C44.4897 83.4233 46.8965 82.9634 48.8432 83.3172C52.0995 83.8832 55.4974 85.3337 57.1964 88.1991C57.5503 88.8005 57.8335 89.4373 58.2936 89.968C58.7538 90.4986 59.4617 90.8524 60.1342 90.6755C60.6651 90.534 61.019 90.0741 61.3376 89.6142C62.1163 88.4821 62.7888 87.244 63.2843 85.9704C63.6028 85.1214 63.6736 84.2016 64.063 83.388C64.5585 82.4328 65.3372 82.2559 66.2928 81.9729C67.921 81.513 70.1509 80.9116 71.4251 79.7442C74.469 77.0556 65.408 75.9589 64.1338 75.7821C59.7448 75.1453 55.3205 74.6146 50.9315 74.0132C49.6573 73.8364 48.5247 73.6241 47.2505 73.9425C46.2948 74.1547 45.3391 74.5085 44.4189 74.933Z" fill="#FFC84B"/>
<path d="M66.2576 81.9033C67.8857 81.4434 70.1156 80.842 71.3898 79.6746C74.4338 76.986 65.3727 75.8894 64.0985 75.7125C59.7095 75.0757 55.2852 74.5451 50.8962 73.9437C49.622 73.7668 48.4894 73.5545 47.2152 73.8729C46.2595 74.1205 45.3039 74.4743 44.3836 74.8988C43.074 75.5002 41.8706 76.2431 40.6672 77.0568C39.9947 77.4813 38.9682 77.8351 38.2603 78.4011C38.2603 78.4718 38.2603 78.5426 38.2603 78.6133C38.4727 79.9576 41.2335 80.2406 42.2245 80.4529C44.2066 80.842 46.3303 81.5849 48.3478 81.6911C49.9052 81.7618 51.498 81.7265 53.0553 81.8326C55.2498 81.9741 57.3735 82.3278 59.5326 82.6462C59.9927 82.717 60.4528 82.7877 60.913 82.7524C61.727 82.717 62.3995 82.2571 63.1428 82.151C63.7799 82.0802 64.6294 82.4694 65.2665 82.2217C65.6205 82.0802 65.9036 82.0095 66.2576 81.9033Z" fill="#FFA83A"/>
<path d="M92.8744 77.8693C92.1311 82.6451 39.0744 82.5743 38.2957 77.8693C37.3754 72.0676 51.8165 65.5229 65.5851 65.5229C79.3536 65.5229 93.7593 72.1029 92.8744 77.8693Z" fill="#FFCD87"/>
<path d="M52.5243 69.8739C52.3474 69.5909 52.1704 69.3079 51.8872 69.1664C51.6041 69.0249 51.1793 69.131 51.0731 69.414C50.967 69.7324 51.2855 70.0154 51.6041 70.0862C51.9226 70.1216 52.2058 70.0154 52.5243 69.8739Z" fill="#FFE4BF"/>
<path d="M62.718 72.1379C63.0011 72.2794 63.3197 72.3855 63.6382 72.3501C63.9568 72.3147 64.2399 71.961 64.1337 71.678C64.0276 71.3596 63.6028 71.2888 63.3197 71.4303C63.0719 71.5718 62.8949 71.8549 62.718 72.1379Z" fill="#FFE4BF"/>
<path d="M59.4971 74.4014C59.3201 74.1538 59.1078 73.8708 58.8246 73.7293C58.5414 73.6231 58.1167 73.7293 58.0459 74.0476C57.9751 74.366 58.2937 74.649 58.6122 74.6844C58.9308 74.7198 59.214 74.5429 59.4971 74.4014Z" fill="#FFE4BF"/>
<path d="M72.8054 73.2343C73.0886 73.3758 73.4071 73.4819 73.7257 73.4466C74.0442 73.3758 74.3274 73.0574 74.2212 72.7744C74.115 72.456 73.6903 72.3853 73.4071 72.5268C73.124 72.6683 72.947 72.9867 72.8054 73.2343Z" fill="#FFE4BF"/>
<path d="M59.5325 68.8132C59.3201 68.5655 59.1078 68.3179 58.7892 68.2118C58.4706 68.1056 58.0813 68.2825 58.0459 68.6009C58.0105 68.9193 58.3291 69.1669 58.683 69.1669C58.9662 69.1669 59.2493 68.99 59.5325 68.8132Z" fill="#FFE4BF"/>
<path d="M55.4976 72.1736C55.3561 71.8906 55.1791 71.6075 54.8959 71.4307C54.6128 71.2892 54.188 71.3245 54.0818 71.6429C53.9757 71.9259 54.2588 72.2797 54.542 72.3505C54.8605 72.3858 55.1791 72.2797 55.4976 72.1736Z" fill="#FFE4BF"/>
<path d="M47.9585 71.9975C47.7461 71.7498 47.5337 71.5022 47.2152 71.3961C46.8966 71.29 46.5073 71.4668 46.4719 71.7852C46.4365 72.1036 46.755 72.3512 47.109 72.3512C47.4275 72.3512 47.7107 72.1744 47.9585 71.9975Z" fill="#FFE4BF"/>
<path d="M68.8768 69.4492C69.16 69.5907 69.4785 69.7322 69.7971 69.6968C70.1156 69.6614 70.3988 69.343 70.328 69.0246C70.2218 68.7063 69.8325 68.6355 69.5139 68.777C69.2308 68.8831 69.0184 69.1662 68.8768 69.4492Z" fill="#FFE4BF"/>
<path d="M76.3804 68.6354C76.5928 68.8476 76.8406 69.0953 77.1591 69.166C77.4777 69.2368 77.867 69.0245 77.867 68.7061C77.867 68.3878 77.5131 68.1755 77.1945 68.2109C76.876 68.2109 76.6282 68.4231 76.3804 68.6354Z" fill="#FFE4BF"/>
<path d="M81.0525 71.3605C81.2649 71.5728 81.5126 71.8204 81.8312 71.8911C82.1497 71.9619 82.5391 71.7496 82.5391 71.4312C82.5391 71.1129 82.1851 70.9006 81.8666 70.936C81.548 70.936 81.3003 71.1482 81.0525 71.3605Z" fill="#FFE4BF"/>
<path d="M64.1691 67.7163C64.4877 67.8224 64.8062 67.9285 65.0894 67.8578C65.4079 67.787 65.6557 67.4333 65.5495 67.1503C65.4433 66.8673 64.9832 66.7965 64.7354 66.9734C64.4523 67.1149 64.3107 67.3979 64.1691 67.7163Z" fill="#FFE4BF"/>
<path d="M346.053 117.209C338.762 118.483 332.638 118.483 325.347 117.209C323.825 108.613 322.268 99.9807 320.604 91.4197C330.656 91.4197 340.708 91.4197 350.761 91.4197C349.132 99.9807 347.575 108.613 346.053 117.209Z" fill="#4D3229"/>
<path d="M318.976 92.7642C320.64 96.7264 333.24 96.0188 335.718 96.0542C341.346 96.125 351.504 94.3915 352.424 90.5709C353.698 85.2998 349.77 83.1772 347.292 80.9839C346.867 82.3989 345.558 83.3895 344.142 83.8494C342.726 84.2739 341.239 84.2385 339.753 84.2031C336.815 84.1324 333.877 84.0616 330.904 83.9909C328.78 83.9201 326.621 83.8847 324.533 84.3446C322.409 84.8399 320.215 86.1488 319.118 88.1299C318.268 89.7572 318.268 91.1015 318.976 92.7642Z" fill="#ED98C2"/>
<path d="M323.648 87.917C321.701 86.9618 321.029 84.2732 321.878 82.2921C322.728 80.311 324.745 79.0021 326.869 78.4361C328.957 77.8701 331.187 77.9408 333.346 78.0116C335.505 78.047 337.735 78.0823 339.788 77.4102C341.841 76.738 343.469 75.2522 344.106 73.165C345.876 74.2263 346.549 76.4197 347.115 78.2592C347.681 80.0988 347.681 82.2214 346.69 83.8841C345.381 86.042 342.761 86.9618 340.319 87.5632C336.886 88.3769 333.346 88.8367 329.807 88.9075C327.542 88.9429 325.701 88.9075 323.648 87.917Z" fill="#EDB2CF"/>
<path d="M347.292 81.0193C347.044 81.9037 346.407 82.6112 345.664 83.1419C346.655 85.5121 346.938 87.8823 345.664 89.6157C342.974 93.2595 334.019 94.1085 329.488 94.0378C325.701 94.0024 322.02 92.835 318.551 91.243C318.622 91.7383 318.764 92.1982 318.976 92.7288C320.64 96.691 333.24 95.9835 335.718 96.0188C341.346 96.0896 351.504 94.3562 352.424 90.5355C353.698 85.2998 349.77 83.2126 347.292 81.0193Z" fill="#E086B4"/>
<path d="M347.15 78.2241C346.584 76.3845 345.911 74.1912 344.142 73.1299C343.611 74.8633 342.407 76.1722 340.85 76.9505C341.062 77.6581 341.204 78.401 341.239 79.1439C341.275 80.7712 340.673 82.4692 339.434 83.5659C338.195 84.6626 336.461 85.0163 334.798 85.264C332.391 85.6177 329.913 85.7592 327.471 85.7592C326.161 85.7592 324.816 85.6885 323.613 85.2286C322.834 84.9456 322.126 84.4857 321.56 83.9197C321.489 85.547 322.232 87.245 323.684 87.9526C325.736 88.9431 327.577 88.9785 329.842 88.9431C333.382 88.8723 336.921 88.4125 340.355 87.5988C342.797 87.0328 345.416 86.0776 346.726 83.9197C347.717 82.1862 347.717 80.099 347.15 78.2241Z" fill="#EDA4C8"/>
<path d="M326.409 77.0214C326.444 77.9765 326.834 78.9671 327.683 79.8161C329.347 81.4434 331.223 80.9481 333.24 81.0189C335.895 81.0896 338.479 80.0991 340.885 79.0024C342.195 78.401 343.575 77.6935 344.177 76.42C344.92 74.8634 344.283 72.9885 343.257 71.6088C342.23 70.2291 340.85 69.1325 339.894 67.7174C338.903 66.3023 338.372 64.392 339.222 62.8708C337.417 63.2246 336.461 64.8165 335.435 66.1608C333.983 68.1065 333.948 70.5829 331.577 71.6795C329.17 72.7408 326.338 73.8375 326.409 77.0214Z" fill="#EDC2D7"/>
<path d="M343.257 71.5731C342.23 70.1935 340.85 69.0968 339.859 67.6817C338.939 66.3728 338.408 64.604 339.045 63.1536C337.417 64.7809 336.603 67.2572 337.169 69.4859C337.594 71.1132 338.62 72.7052 338.266 74.3325C338.019 75.4645 337.063 76.3843 336.072 76.9857C334.373 77.9762 332.32 78.33 330.409 77.9409C328.957 77.6579 327.612 76.9857 326.515 75.9952C326.444 76.3136 326.409 76.6319 326.444 77.0211C326.48 77.9762 326.869 78.9668 327.719 79.8158C329.382 81.4431 331.258 80.9479 333.276 81.0186C335.93 81.0894 338.514 80.0988 340.921 79.0022C342.23 78.4008 343.611 77.6932 344.213 76.4197C344.92 74.8631 344.283 72.9528 343.257 71.5731Z" fill="#EDB6D1"/>
<path d="M332.922 72.8118C333.099 72.9887 333.382 73.0595 333.63 72.9887C333.877 72.918 334.09 72.7411 334.125 72.4935C334.196 72.1751 334.054 71.7859 333.736 71.6444C333.417 71.5029 333.028 71.6091 332.851 71.8921C332.639 72.1751 332.674 72.5642 332.922 72.8118Z" fill="#F5F0EE"/>
<path d="M339.222 82.8231C339.222 82.6462 339.186 82.4694 339.116 82.3278C338.939 82.0448 338.549 81.9033 338.231 81.9741C337.912 82.0448 337.664 82.3632 337.629 82.717C337.594 83.1415 337.948 83.5306 338.372 83.566C338.762 83.566 339.186 83.2123 339.222 82.8231Z" fill="#F5F0EE"/>
<path d="M326.657 83.5652C326.621 83.1406 326.161 82.8223 325.772 82.9638C325.383 83.1053 325.17 83.6359 325.418 83.9897C325.63 84.3081 326.161 84.3788 326.444 84.1312C326.586 83.9897 326.692 83.7774 326.657 83.5652Z" fill="#F5F0EE"/>
<path d="M346.549 89.368C346.23 89.1557 345.77 89.2619 345.558 89.5803C345.345 89.8986 345.451 90.3585 345.77 90.5708C346.053 90.6062 346.372 90.4647 346.513 90.217C346.69 89.9694 346.69 89.6156 346.549 89.368Z" fill="#F5F0EE"/>
<path d="M328.356 92.1619C328.71 92.268 329.134 92.0558 329.276 91.702C329.418 91.3482 329.276 90.9237 328.957 90.7468C328.639 90.5699 328.179 90.6407 327.966 90.9237C327.789 91.136 327.754 91.419 327.825 91.6666C327.896 91.9142 328.108 92.0911 328.356 92.1619Z" fill="#F5F0EE"/>
<path d="M338.231 93.0815C338.372 92.8692 338.372 92.5509 338.231 92.374C337.983 92.0202 337.346 92.091 337.169 92.4801C337.027 92.7631 337.134 93.1169 337.417 93.2938C337.7 93.3999 338.054 93.3291 338.231 93.0815Z" fill="#F5F0EE"/>
<path d="M339.116 74.2622C339.01 74.0145 338.726 73.873 338.479 73.873C338.231 73.873 337.948 74.0145 337.841 74.2622C337.7 74.5452 337.771 74.9343 338.018 75.1466C338.266 75.3588 338.691 75.3588 338.939 75.1466C339.187 74.9343 339.257 74.5452 339.116 74.2622Z" fill="#F5F0EE"/>
<path d="M330.833 76.6322C331.081 76.3492 330.904 75.8185 330.55 75.7124C330.161 75.6416 329.807 76.0662 329.913 76.4199C330.019 76.7737 330.55 76.9152 330.833 76.6322Z" fill="#F5F0EE"/>
<path d="M336.497 86.1132C336.497 86.0071 336.461 85.8656 336.39 85.7595C336.178 85.5118 335.718 85.5118 335.541 85.7595C335.364 86.0425 335.505 86.467 335.789 86.5731C336.107 86.7146 336.497 86.467 336.497 86.1132Z" fill="#F5F0EE"/>
<path d="M321.595 96.5498C322.905 103.413 324.144 110.311 325.347 117.21C331.329 118.235 336.497 118.448 342.195 117.776C343.717 110.983 344.814 103.979 345.345 97.1512C337.629 99.2738 329.241 99.0615 321.595 96.5498Z" fill="#5C3C31"/>
<path d="M329.772 114.874C328.32 109.108 326.869 103.342 325.418 97.5754C326.197 97.5754 326.94 96.7617 327.719 96.7617C328.745 102.387 328.745 109.25 329.772 114.874Z" fill="#4D3229"/>
<path d="M335.328 113.636C334.514 108.223 333.736 102.811 332.922 97.4334C333.559 97.4334 333.983 97.1858 334.62 97.1858C334.904 102.174 335.01 108.612 335.328 113.636Z" fill="#4D3229"/>
<path d="M340.142 114.061C340.921 108.577 341.558 103.094 342.337 97.5754C341.487 97.6108 340.638 97.6816 339.824 97.7169C339.824 102.847 340.142 108.931 340.142 114.061Z" fill="#4D3229"/>
<path d="M49.9052 219.8L47.7461 216.05L33.0927 224.47L51.2502 256.132L64.3816 248.596L65.9036 247.712L79.035 240.212L63.0012 212.265L49.9052 219.8Z" fill="#BDB6AA"/>
<path d="M53.4801 205.508C52.6306 206.074 51.321 206.038 50.3654 205.685C49.8698 205.932 49.3035 206.003 48.7726 205.862C48.2417 205.72 47.64 205.366 47.3568 204.906C46.6135 204.977 45.7287 204.588 45.2331 204.022C44.6314 203.88 44.0651 203.633 43.5696 203.279L29.3763 211.416L51.675 250.188L76.1328 236.179L58.0106 204.623C57.5505 204.836 57.055 204.942 56.5949 204.871C55.8162 205.649 54.4712 205.932 53.4801 205.508Z" fill="#422B23"/>
<path d="M53.4446 206.323C52.489 206.96 51.0732 206.924 50.0113 206.5C49.4804 206.783 48.8433 206.854 48.2416 206.712C47.6399 206.571 47.0028 206.146 46.6842 205.651C45.8702 205.722 44.9145 205.297 44.3836 204.66C43.7111 204.519 43.1094 204.236 42.5431 203.847L26.9694 212.797L51.4271 255.425L78.2918 240.001L58.3999 205.332C57.9044 205.545 57.3381 205.651 56.8425 205.615C56.0285 206.465 54.5419 206.783 53.4446 206.323Z" fill="#422B23"/>
<path d="M33.9238 209.701L28.0298 213.082L32.469 220.814L38.363 217.433L33.9238 209.701Z" fill="#4D3229"/>
<path d="M33.6237 210.246L28.633 213.112L29.2347 214.173L33.6237 210.246Z" fill="#6B483C"/>
<path d="M29.2347 214.173L32.7388 220.258L37.7295 217.393L33.6237 210.247L29.2347 214.173Z" fill="#5C3C31"/>
<path d="M40.4587 205.923L34.5647 209.303L39.0039 217.035L44.8979 213.655L40.4587 205.923Z" fill="#4D3229"/>
<path d="M40.1715 206.461L35.1808 209.362L35.7826 210.423L40.1715 206.461Z" fill="#6B483C"/>
<path d="M35.7828 210.423L39.2869 216.508L44.2776 213.643L40.1718 206.461L35.7828 210.423Z" fill="#5C3C31"/>
<path d="M38.7341 218.09L32.8401 221.47L37.2793 229.202L43.1733 225.822L38.7341 218.09Z" fill="#4D3229"/>
<path d="M38.4373 218.631L33.4466 221.496L34.0483 222.558L38.4373 218.631Z" fill="#6B483C"/>
<path d="M34.0484 222.558L37.5525 228.643L42.5431 225.777L38.4374 218.631L34.0484 222.558Z" fill="#5C3C31"/>
<path d="M45.2866 214.34L39.3926 217.721L43.8319 225.453L49.7259 222.072L45.2866 214.34Z" fill="#4D3229"/>
<path d="M44.9851 214.88L39.9944 217.746L40.5962 218.807L44.9851 214.88Z" fill="#6B483C"/>
<path d="M40.596 218.807L44.1001 224.892L49.1261 222.026L44.985 214.88L40.596 218.807Z" fill="#5C3C31"/>
<path d="M51.8218 210.56L45.9279 213.941L50.3671 221.673L56.2611 218.292L51.8218 210.56Z" fill="#4D3229"/>
<path d="M51.5336 211.096L46.5429 213.961L47.1446 215.058L51.5336 211.096Z" fill="#6B483C"/>
<path d="M47.1445 215.058L50.6486 221.143L55.6747 218.277L51.5335 211.096L47.1445 215.058Z" fill="#5C3C31"/>
<path d="M58.3752 206.812L52.4812 210.193L56.9204 217.924L62.8144 214.544L58.3752 206.812Z" fill="#4D3229"/>
<path d="M58.1168 207.346L53.0907 210.211L53.7278 211.272L58.1168 207.346Z" fill="#6B483C"/>
<path d="M53.7279 211.274L57.1966 217.394L62.2226 214.528L58.1169 207.347L53.7279 211.274Z" fill="#5C3C31"/>
<path d="M43.5447 226.478L37.6507 229.859L42.0899 237.591L47.9839 234.21L43.5447 226.478Z" fill="#4D3229"/>
<path d="M43.2513 227.016L38.2606 229.882L38.8623 230.943L43.2513 227.016Z" fill="#6B483C"/>
<path d="M38.8622 230.944L42.3663 237.064L47.3924 234.199L43.2512 227.018L38.8622 230.944Z" fill="#5C3C31"/>
<path d="M50.0973 222.727L44.2032 226.108L48.6425 233.84L54.5365 230.459L50.0973 222.727Z" fill="#4D3229"/>
<path d="M49.7991 223.264L44.8085 226.13L45.4102 227.191L49.7991 223.264Z" fill="#6B483C"/>
<path d="M45.4103 227.193L48.9144 233.277L53.9404 230.412L49.7992 223.266L45.4103 227.193Z" fill="#5C3C31"/>
<path d="M56.6323 218.948L50.7383 222.328L55.1776 230.06L61.0715 226.68L56.6323 218.948Z" fill="#4D3229"/>
<path d="M56.3826 219.516L51.3565 222.381L51.9936 223.443L56.3826 219.516Z" fill="#6B483C"/>
<path d="M51.9937 223.442L55.4623 229.527L60.4884 226.662L56.3826 219.516L51.9937 223.442Z" fill="#5C3C31"/>
<path d="M63.1854 215.2L57.2914 218.58L61.7306 226.312L67.6246 222.931L63.1854 215.2Z" fill="#4D3229"/>
<path d="M62.9306 215.73L57.9045 218.595L58.5416 219.692L62.9306 215.73Z" fill="#6B483C"/>
<path d="M58.5417 219.692L62.0458 225.777L67.0364 222.912L62.9306 215.73L58.5417 219.692Z" fill="#5C3C31"/>
<path d="M48.3762 234.861L42.4822 238.242L46.9223 245.974L52.8163 242.592L48.3762 234.861Z" fill="#4D3229"/>
<path d="M48.0648 235.4L43.0741 238.266L43.6758 239.327L48.0648 235.4Z" fill="#6B483C"/>
<path d="M43.6759 239.327L47.18 245.447L52.206 242.581L48.0649 235.4L43.6759 239.327Z" fill="#5C3C31"/>
<path d="M54.9077 231.116L49.0137 234.497L53.4529 242.228L59.3469 238.848L54.9077 231.116Z" fill="#4D3229"/>
<path d="M54.648 231.65L49.6219 234.515L50.259 235.577L54.648 231.65Z" fill="#6B483C"/>
<path d="M50.259 235.577L53.7631 241.697L58.7538 238.832L54.648 231.65L50.259 235.577Z" fill="#5C3C31"/>
<path d="M61.4604 227.368L55.5664 230.749L60.0056 238.48L65.8996 235.1L61.4604 227.368Z" fill="#4D3229"/>
<path d="M61.1961 227.9L56.17 230.766L56.8072 231.827L61.1961 227.9Z" fill="#6B483C"/>
<path d="M56.8069 231.827L60.311 237.912L65.3017 235.046L61.1959 227.9L56.8069 231.827Z" fill="#5C3C31"/>
<path d="M67.9953 223.587L62.1013 226.967L66.5405 234.699L72.4345 231.319L67.9953 223.587Z" fill="#4D3229"/>
<path d="M67.7441 224.151L62.7181 227.016L63.3552 228.078L67.7441 224.151Z" fill="#6B483C"/>
<path d="M63.3553 228.078L66.8594 234.162L71.85 231.297L67.7442 224.151L63.3553 228.078Z" fill="#5C3C31"/>
<path d="M53.1654 243.25L47.2714 246.631L51.7106 254.363L57.6046 250.982L53.1654 243.25Z" fill="#4D3229"/>
<path d="M52.9138 243.782L47.8878 246.648L48.5249 247.744L52.9138 243.782Z" fill="#6B483C"/>
<path d="M48.525 247.744L52.0291 253.829L57.0198 250.964L52.914 243.782L48.525 247.744Z" fill="#5C3C31"/>
<path d="M59.718 239.503L53.824 242.884L58.2633 250.615L64.1572 247.235L59.718 239.503Z" fill="#4D3229"/>
<path d="M59.4617 240.035L54.4357 242.9L55.0728 243.961L59.4617 240.035Z" fill="#6B483C"/>
<path d="M55.0727 243.961L58.5768 250.081L63.5674 247.216L59.4616 240.034L55.0727 243.961Z" fill="#5C3C31"/>
<path d="M66.2921 235.747L60.3981 239.129L64.8382 246.86L70.7322 243.479L66.2921 235.747Z" fill="#4D3229"/>
<path d="M66.0098 236.286L61.0191 239.151L61.6208 240.212L66.0098 236.286Z" fill="#6B483C"/>
<path d="M61.6208 240.211L65.1249 246.331L70.1156 243.43L66.0098 236.284L61.6208 240.211Z" fill="#5C3C31"/>
<path d="M72.8236 232.006L66.9296 235.386L71.3688 243.118L77.2628 239.737L72.8236 232.006Z" fill="#4D3229"/>
<path d="M72.5579 232.534L67.5673 235.4L68.169 236.461L72.5579 232.534Z" fill="#6B483C"/>
<path d="M68.1691 236.462L71.6732 242.546L76.6639 239.681L72.5581 232.535L68.1691 236.462Z" fill="#5C3C31"/>
<path d="M46.7197 205.649C45.9056 205.72 44.95 205.295 44.419 204.659C44.0297 204.588 43.6757 204.446 43.3572 204.305L41.1627 205.578L45.5871 213.291L51.4626 209.93L49.6221 206.711C49.1973 206.852 48.7372 206.852 48.2771 206.746C47.6754 206.569 47.0382 206.18 46.7197 205.649Z" fill="#4D3229"/>
<path d="M43.7112 204.446L41.7291 205.578L42.3308 206.64L44.4545 204.729C44.4191 204.694 44.4191 204.694 44.3837 204.659C44.1713 204.623 43.9235 204.552 43.7112 204.446Z" fill="#6B483C"/>
<path d="M46.7197 205.649C45.941 205.719 45.0208 205.33 44.4898 204.729L42.3661 206.639L45.8702 212.724L50.8609 209.858L49.0912 206.781C48.808 206.816 48.5602 206.781 48.2771 206.71C47.6754 206.568 47.0383 206.179 46.7197 205.649Z" fill="#5C3C31"/>
<path d="M53.4446 206.321C52.6305 206.887 51.4625 206.922 50.4714 206.639L52.135 209.505L58.0105 206.144L57.6566 205.542C57.3734 205.578 57.0903 205.613 56.8425 205.578C56.0284 206.462 54.5418 206.781 53.4446 206.321Z" fill="#4D3229"/>
<path d="M53.4446 206.321C52.8075 206.745 51.9227 206.851 51.1086 206.781L52.3828 209.009L57.3735 206.144L57.0903 205.613C57.0195 205.613 56.9133 205.613 56.8425 205.613C56.0285 206.462 54.5419 206.781 53.4446 206.321Z" fill="#5C3C31"/>
<path d="M56.17 230.767L33.0927 224.47L51.2502 256.132L79.035 240.212L63.0012 212.3L56.17 230.767Z" fill="#4C4B66"/>
<path d="M33.0927 224.469L32.314 233.986L56.1701 230.766L33.0927 224.469Z" fill="#D6CABD"/>
<path d="M56.17 230.767L63.0012 212.3L70.6818 218.208L56.17 230.767Z" fill="#E8E1DC"/>
<path d="M56.17 230.767L39.3221 235.33L51.2502 256.132L79.0351 240.212L68.7352 222.277L56.17 230.767Z" fill="#5D5C7D"/>
</g>
</svg>
