<svg width="288" height="195" viewBox="0 0 288 195" fill="none" xmlns="http://www.w3.org/2000/svg">
<mask id="mask0" mask-type="alpha" maskUnits="userSpaceOnUse" x="0" y="0" width="288" height="195">
<rect width="288" height="195" fill="#C4C4C4"/>
</mask>
<g mask="url(#mask0)">
<path d="M225.493 30.6804C202.827 -6.90081 161.596 -32 114.506 -32C42.994 -32 -15 25.994 -15 97.5064C-15 120.037 -9.23214 141.216 0.861609 159.646C22.8516 199.841 65.5247 227.058 114.506 227.058C186.019 227.058 244.013 169.064 244.013 97.5515C244.058 73.0832 237.254 50.192 225.493 30.6804Z" fill="#165589"/>
<path d="M114.506 -25.0605C46.8242 -25.0605 -8.06055 29.8242 -8.06055 97.5064C-8.06055 118.82 -2.60812 138.873 6.9449 156.312L219.499 34.2402C198.05 -1.26814 159.072 -25.0605 114.506 -25.0605Z" fill="#1D70B7"/>
<path d="M6.99023 156.357C27.8086 194.343 68.1385 220.074 114.507 220.074C182.189 220.074 237.074 165.189 237.074 97.5065C237.074 74.345 230.675 52.7155 219.5 34.2854L6.99023 156.357Z" fill="#165589"/>
<path d="M79.6304 54.2476C88.7779 66.9098 91.4816 80.4282 87.7866 94.8028C87.6063 95.5238 87.0205 96.0645 86.2995 96.1997C86.1643 96.2448 86.0742 96.2448 85.939 96.2448C84.7674 96.2448 83.8211 95.1633 84.0915 93.9917C89.3186 67.4505 74.0879 56.5908 74.0879 56.5908V50.0569L79.6755 45.4155V54.2476H79.6304Z" fill="#F49169"/>
<path d="M138.616 25.2729L138.662 26.3094L134.426 27.2106C135.688 26.6248 137.129 25.9939 138.616 25.2729Z" fill="#F8B133"/>
<path d="M139.472 40.6841L140.193 53.4815L130.91 55.4642L125.773 55.5543C125.728 55.5543 125.728 55.5543 125.683 55.5543C123.7 54.8334 122.123 53.121 121.672 50.913C121.582 50.4624 121.537 50.0118 121.537 49.6062C121.537 46.6772 123.565 44.0186 126.539 43.3878L139.472 40.6841Z" fill="#F8B133"/>
<path d="M130.911 55.4641L129.198 55.8246C127.982 56.095 126.765 55.9598 125.684 55.5542C125.729 55.5542 125.729 55.5542 125.774 55.5542L130.911 55.4641Z" fill="#F8B133"/>
<path d="M140.193 53.5266L140.283 55.284L130.91 55.4643L140.193 53.5266Z" fill="#F8B133"/>
<path d="M141.004 67.9463L125.999 68.2617C122.529 68.3518 119.6 65.558 119.51 62.0432C119.51 61.9982 119.51 61.9531 119.51 61.9081C119.51 58.5285 122.259 55.6896 125.638 55.5995C126.72 56.005 127.936 56.0951 129.153 55.8698L130.865 55.5093L140.238 55.3291L141.004 67.9463Z" fill="#F8B133"/>
<path d="M124.421 29.3288L134.424 27.2109C131.36 28.6078 129.242 29.5992 129.242 29.5992L119.464 36.4035C119.419 36.088 119.419 35.8177 119.419 35.5022C119.374 32.6183 121.446 29.9597 124.421 29.3288Z" fill="#F8B133"/>
<path d="M138.66 25.1255C137.173 25.8015 135.731 26.4774 134.469 27.0632L124.466 29.1811C121.492 29.8119 119.464 32.4706 119.464 35.3995C119.464 35.6699 119.464 35.9853 119.509 36.3008C119.509 36.436 119.554 36.5711 119.599 36.7514C120.32 40.176 123.7 42.3841 127.124 41.618L139.471 39.0045L139.561 40.5365L126.674 43.2853C123.7 43.9161 121.672 46.5748 121.672 49.5038C121.672 49.9544 121.717 50.3599 121.807 50.8105C122.258 53.0185 123.835 54.7309 125.818 55.4519C122.393 55.542 119.689 58.3808 119.689 61.7604C119.689 61.8055 119.689 61.8506 119.689 61.8956C119.779 65.3654 122.663 68.1592 126.178 68.1141L141.184 67.7987L141.454 72.4851C139.336 92.5374 115.454 105.064 102.521 108.759C93.3735 111.328 85.0822 116.375 78.7285 123.449L-6.4375 219.926V124.306C18.3012 105.425 45.1578 86.7695 47.7263 65.6808L54.846 28.5502C55.612 23.4583 58.541 18.9071 62.8669 16.0682L81.0717 5.25348C83.505 3.45102 87.0198 4.84793 87.5155 7.82198C89.5883 20.0336 85.2174 21.9713 74.0421 32.1551L74.0872 49.8643V56.3982C74.0872 56.3982 89.3179 67.2579 84.0908 93.7991C83.8655 95.0158 84.7667 96.0522 85.9383 96.0522C86.0735 96.0522 86.1636 96.0522 86.2988 96.0071C87.0198 95.8719 87.6056 95.3312 87.7859 94.6102C91.4809 80.2356 88.7772 66.7172 79.6297 54.055V45.1779L106.937 22.3317C109.866 19.8984 113.2 17.9608 116.805 16.6991L148.979 4.35225C165.246 -1.46067 166.869 15.4824 158.082 18.7719C154.972 20.0336 141.995 23.5935 138.66 25.1255Z" fill="#FFB894"/>
<path d="M138.661 26.3096L139.382 39.107L127.035 41.7206C123.611 42.4416 120.231 40.2335 119.51 36.8539C119.465 36.7188 119.465 36.5836 119.42 36.4033L129.198 29.5991C129.198 29.5991 131.316 28.6077 134.38 27.2108L138.661 26.3096Z" fill="#F8B133"/>
<path d="M130.234 24.0113L142.807 21.3526C146.727 20.5415 150.737 22.0736 153.081 25.318L162.994 39.0618C166.419 43.7932 164.121 50.5975 158.443 52.0845C155.424 52.8505 151.909 52.5802 148.169 49.8314C137.715 41.9908 130.234 24.0113 130.234 24.0113Z" fill="#FFB894"/>
<path d="M142.221 41.8557C142.221 41.8557 162.814 46.6773 156.505 66.4592C150.197 86.2862 140.283 68.8475 140.283 68.8475L142.221 41.8557Z" fill="#FFB894"/>
<path d="M143.256 63.8456C143.391 63.8006 148.258 72.903 151.908 79.7523C154.431 84.4837 150.421 90.2516 145.149 89.2603C142.761 88.8096 140.553 87.4578 139.246 84.4837C135.19 75.3363 143.256 63.8456 143.256 63.8456Z" fill="#FFB894"/>
<path d="M126.224 153.022L125.548 114.585C125.458 109.989 121.673 106.249 117.077 106.249C117.032 106.249 116.987 106.249 116.941 106.249C112.3 106.339 108.515 110.214 108.605 114.855L109.236 152.977C109.281 161.449 126.224 161.449 126.224 153.022Z" fill="#FFB894"/>
<path d="M97.9249 196.191C97.97 196.461 97.97 196.777 97.9249 197.047L91.8867 168.433C92.112 168.974 92.2923 169.515 92.4275 170.1L97.9249 196.191Z" fill="#F59F33"/>
<path d="M76.5204 177.716L81.4321 200.922C81.2518 203.085 79.5395 204.752 77.2864 205.834C73.0957 207.772 68.184 205.113 67.2377 200.607L61.7402 174.066C62.9118 172.669 64.5791 171.587 66.4717 171.182C67.0575 171.047 67.6433 171.001 68.2291 171.001C72.1494 171.001 75.6642 173.75 76.5204 177.716Z" fill="#FFB894"/>
<path d="M81.9292 203.356C82.8755 207.907 79.9465 212.458 75.3953 213.404C70.8441 214.351 66.2929 211.422 65.3466 206.87L59.9392 181.276C59.3985 178.662 60.1195 176.048 61.7417 174.111L67.2392 200.652C68.1855 205.203 73.0972 207.817 77.2879 205.879C79.5409 204.843 81.2533 203.13 81.4335 200.967L81.9292 203.356Z" fill="#F49169"/>
<path d="M91.8874 168.163L98.0608 197.453C97.8806 199.661 96.1232 201.373 93.8251 202.454C89.4992 204.437 84.4973 201.733 83.5511 197.092L77.1523 166.27C78.369 164.738 80.0813 163.612 82.1542 163.161C82.74 163.026 83.3708 162.981 83.9566 162.981C87.3813 162.981 90.5356 165.008 91.8874 168.163Z" fill="#FFB894"/>
<path d="M81.1624 200.382L75.4846 173.435C74.9439 170.821 75.6198 168.208 77.197 166.225L83.5957 197.047C84.542 201.688 89.5889 204.392 93.8697 202.409C96.1678 201.328 97.9252 199.616 98.1055 197.408L98.511 199.255C98.6011 199.661 98.7363 200.066 98.8715 200.472C99.1419 204.708 96.2579 208.628 92.0222 209.529C87.3358 210.52 82.7395 207.501 81.7482 202.815L81.1624 200.382Z" fill="#F49169"/>
<path d="M109.506 169.875L109.866 171.587C109.731 171.047 109.596 170.461 109.506 169.875Z" fill="#F59F33"/>
<path d="M114.192 192.271C114.777 195.064 112.84 197.272 110.136 198.534C105.945 200.472 101.034 197.813 100.087 193.307L93.3281 160.502C94.4997 159.015 96.2121 157.889 98.2398 157.438C98.8256 157.303 99.4114 157.258 99.9972 157.258C103.918 157.258 107.432 160.007 108.289 163.972L109.55 169.875C109.64 170.461 109.776 171.047 109.911 171.587L114.192 192.271Z" fill="#FFB894"/>
<path d="M114.868 195.335C115.814 199.751 113.066 204.167 108.695 205.293C108.559 205.338 108.469 205.338 108.334 205.383C104.188 206.239 100.043 203.896 98.6459 200.021C98.6008 199.615 98.5558 199.21 98.4657 198.804L97.9249 196.191L92.4274 170.1C92.2922 169.514 92.112 168.974 91.8867 168.433L91.7064 167.487C91.1657 164.963 91.8416 162.395 93.3287 160.502L100.088 193.307C101.034 197.858 105.946 200.472 110.137 198.534C112.84 197.272 114.778 195.064 114.192 192.27L114.868 195.335Z" fill="#F49169"/>
<path d="M120.726 183.799C121.988 184.475 125.278 194.659 124.782 205.564C113.021 214.17 107.118 223.859 106.622 243.956C106.577 245.443 105.406 246.615 103.919 246.615C102.432 246.615 101.215 245.398 101.215 243.911V243.866C101.395 229.807 103.423 216.018 119.104 202.95L108.74 205.248C113.066 204.122 115.86 199.706 114.914 195.29L114.283 192.226L109.912 171.587C111.264 176.815 115.049 180.735 120.726 183.799Z" fill="#F49169"/>
<path d="M140.149 243.415C145.286 233.637 147.449 222.281 146.052 211.331H146.142C145.195 200.427 143.033 189.567 139.698 179.113C137.355 173.615 132.128 169.56 126.45 166.27C122.98 164.287 119.375 162.575 116.176 160.998C113.427 159.646 110.183 161.223 109.507 164.107C109.462 164.332 109.417 164.558 109.372 164.783C109.191 166.586 109.236 168.298 109.507 169.92L109.867 171.632C111.264 176.86 115.049 180.78 120.727 183.844C121.989 184.52 125.278 194.704 124.783 205.609C113.022 214.215 107.119 223.904 106.623 244.001C106.578 245.488 105.406 246.66 103.919 246.66C102.432 246.66 101.216 245.443 101.216 243.956V243.911C101.396 229.852 103.424 216.063 119.105 202.995L108.741 205.293C108.606 205.338 108.515 205.338 108.38 205.383C104.235 206.24 100.089 203.896 98.6921 200.021C98.9625 204.167 96.1236 207.997 91.978 208.853C87.4268 209.799 82.9206 206.87 81.9293 202.319L81.4336 199.886C81.4787 200.246 81.4787 200.607 81.4787 200.922L81.9743 203.356C82.9206 207.907 79.9916 212.458 75.4404 213.404C70.8892 214.351 66.338 211.422 65.3917 206.87L59.9844 181.276V222.912C59.9844 247.876 75.0799 257.88 75.0799 275.003V286.584C84.7681 289.468 94.9971 291 105.587 291C115.77 291 125.594 289.558 134.921 286.899V264.098C134.876 256.889 136.769 249.814 140.149 243.415Z" fill="#FFB894"/>
<path d="M109.281 153.022L109.462 164.062C110.137 161.178 113.382 159.601 116.131 160.953C119.375 162.53 122.98 164.242 126.405 166.225L126.179 152.977C126.224 161.449 109.281 161.449 109.281 153.022Z" fill="#F49169"/>
<path d="M150.692 25.904V58.934L129.603 62.629C127.981 62.8994 126.81 64.2963 126.81 65.9636C126.81 71.6863 127.485 84.7091 132.713 93.0004C127.08 97.5065 121.087 99.6695 121.087 99.6695H122.303H113.516C113.516 99.6695 106.577 97.5065 100.944 93.0004C103.918 88.3591 105.405 82.1857 106.126 76.6431C106.171 76.3277 106.217 75.9672 106.262 75.6517C106.757 71.7765 106.847 68.2617 106.847 65.9636C106.847 64.3413 105.676 62.8994 104.054 62.629L82.9648 58.934V25.904C82.9648 21.6682 86.3895 18.1985 90.6703 18.1985H116.806H142.942C147.267 18.1985 150.692 21.6682 150.692 25.904ZM145.375 49.7415V26.9404C145.375 25.0929 143.888 23.5608 141.995 23.5608H92.1123C90.2648 23.5608 88.7327 25.0478 88.7327 26.9404V49.7415C88.7327 51.589 90.2197 53.1211 92.1123 53.1211H141.995C143.888 53.1211 145.375 51.589 145.375 49.7415Z" fill="#35A8E0"/>
<path d="M129.602 62.6291L150.691 58.9341C150.691 75.2914 140.823 86.5116 132.712 92.9554C127.439 84.6641 126.809 71.6414 126.809 65.9186C126.809 64.2964 127.98 62.8995 129.602 62.6291Z" fill="#D9D9D9"/>
<path d="M121.133 99.6243H113.562V112.151H121.133V99.6243Z" fill="white"/>
<path d="M104.098 62.6291C105.721 62.8995 106.892 64.2964 106.892 65.9637C106.892 68.2618 106.757 71.7766 106.307 75.6519L86.1641 74.3C84.2264 69.7939 83.0098 64.7019 83.0098 58.9341L104.098 62.6291ZM97.2041 72.1821C97.7448 72.1821 98.1053 71.5513 97.835 71.1007L96.3029 68.6223C96.0325 68.1717 95.3566 68.1717 95.0862 68.6223L93.5541 71.1007C93.2387 71.5963 93.5992 72.1821 94.185 72.1821H97.2041Z" fill="#D9D9D9"/>
<path d="M105.947 76.5979H106.172C105.406 82.0954 103.919 88.2688 100.99 92.9552C95.9429 88.9447 90.2201 83.0417 86.6152 75.2461L105.947 76.5979ZM97.7905 79.7522C98.0608 79.2566 97.7454 78.6708 97.1596 78.6708H94.0954C93.5547 78.6708 93.1942 79.3016 93.4646 79.7522L94.9967 82.2306C95.267 82.6812 95.9429 82.6812 96.2133 82.2306L97.7905 79.7522Z" fill="#D9D9D9"/>
<path d="M86.1641 74.2549L106.307 75.6067C106.261 75.9222 106.216 76.2826 106.171 76.5981H105.946L86.5696 75.2462C86.4344 74.9308 86.2992 74.6154 86.1641 74.2549Z" fill="#B1B1B1"/>
<path d="M97.7889 71.1005C98.0593 71.5962 97.7439 72.182 97.1581 72.182H94.0939C93.5532 72.182 93.1927 71.5511 93.463 71.1005L94.9951 68.6221C95.2655 68.1715 95.9414 68.1715 96.2118 68.6221L97.7889 71.1005Z" fill="#29235C"/>
<path d="M97.2044 78.6257C97.7451 78.6257 98.1056 79.2566 97.8353 79.7072L96.3032 82.1856C96.0328 82.6362 95.3569 82.6362 95.0865 82.1856L93.5544 79.7072C93.239 79.2115 93.5995 78.6257 94.1853 78.6257H97.2044Z" fill="#29235C"/>
<path d="M143.752 24.0566C143.842 24.2369 143.887 24.4622 143.887 24.6875V50.1021C143.887 51.0033 143.166 51.7243 142.265 51.7243H91.8866C90.9853 51.7243 90.2644 51.0033 90.2644 50.1021V24.6875C90.2644 24.4622 90.3094 24.2369 90.3995 24.0566C89.4533 24.6424 88.7773 25.7239 88.7773 26.9406V49.7416C88.7773 51.5891 90.2644 53.1212 92.1569 53.1212H142.04C143.887 53.1212 145.42 51.6342 145.42 49.7416V26.9406C145.374 25.7239 144.744 24.6424 143.752 24.0566Z" fill="#D9D9D9"/>
<path d="M90.2188 50.1019C90.2188 51.0032 90.9397 51.7242 91.841 51.7242H142.265C143.166 51.7242 143.887 51.0032 143.887 50.1019V24.6873C143.887 24.462 143.842 24.2367 143.752 24.0565C143.256 23.741 142.625 23.5608 141.994 23.5608H92.1113C91.4805 23.5608 90.8496 23.741 90.3539 24.0565C90.2638 24.2367 90.2188 24.462 90.2188 24.6873V50.1019Z" fill="#F5F5F5"/>
<path d="M115.408 112.152V113.729C115.408 114.9 116.354 115.847 117.526 115.847C118.698 115.847 119.644 114.9 119.644 113.729V112.152H115.408Z" fill="#E5332A"/>
<path d="M98.1037 32.5279C97.9235 32.0773 97.2926 32.0773 97.1124 32.5279C96.2562 34.5106 94.8593 38.5661 97.6081 38.5661C100.357 38.5661 98.9599 34.5106 98.1037 32.5279Z" fill="#165589"/>
<path d="M104.504 35.863V32.213L105.901 33.6099V35.5025L105.045 36.4037L104.504 35.863ZM105.901 37.8006V39.6932L104.504 41.0901V37.4401L105.045 36.8994L105.901 37.8006ZM110.182 31.9426L108.785 33.3395H106.171L104.774 31.9426H110.182ZM110.182 41.3605H104.774L106.171 39.9636H108.785L110.182 41.3605ZM109.055 35.5025V33.6099L110.452 32.213V35.863L109.911 36.4037L109.055 35.5025ZM110.452 37.4401V41.0901L109.055 39.6932V37.8006L109.911 36.9444L110.452 37.4401Z" fill="#165589"/>
<path d="M111.984 35.8627V32.2128L113.381 33.6097V35.5022L112.525 36.4035L111.984 35.8627ZM113.381 37.8004V39.6929L111.984 41.0898V37.4399L112.525 36.8991L113.381 37.8004ZM117.707 31.9424L116.31 33.3393H113.697L112.3 31.9424H117.707ZM117.707 41.3602H112.3L113.697 39.9633H116.31L117.707 41.3602ZM116.536 35.5022V33.6097L117.932 32.2128V35.8627L117.392 36.4035L116.536 35.5022ZM117.932 37.4399V41.0898L116.536 39.6929V37.8004L117.392 36.9442L117.932 37.4399Z" fill="#165589"/>
<path d="M123.023 35.8627V32.2128L124.42 33.6097V35.5022L123.564 36.4035L123.023 35.8627ZM124.42 37.8004V39.6929L123.023 41.0898V37.4399L123.564 36.8991L124.42 37.8004ZM128.701 31.9424L127.304 33.3393H124.691L123.294 31.9424H128.701ZM128.701 41.3602H123.294L124.691 39.9633H127.304L128.701 41.3602ZM127.53 35.5022V33.6097L128.926 32.2128V35.8627L128.386 36.4035L127.53 35.5022ZM128.926 37.4399V41.0898L127.53 39.6929V37.8004L128.386 36.9442L128.926 37.4399Z" fill="#165589"/>
<path d="M130.504 35.8627V32.2128L131.901 33.6097V35.5022L131.045 36.4035L130.504 35.8627ZM131.901 37.8004V39.6929L130.504 41.0898V37.4399L131.045 36.8991L131.901 37.8004ZM136.227 31.9424L134.83 33.3393H132.216L130.819 31.9424H136.227ZM136.227 41.3602H130.819L132.216 39.9633H134.83L136.227 41.3602ZM135.055 35.5022V33.6097L136.452 32.2128V35.8627L135.911 36.4035L135.055 35.5022ZM136.452 37.4399V41.0898L135.055 39.6929V37.8004L135.911 36.9442L136.452 37.4399Z" fill="#165589"/>
</g>
</svg>
