<svg width="717" height="328" viewBox="0 0 717 328" fill="none" xmlns="http://www.w3.org/2000/svg">
<mask id="mask0" mask-type="alpha" maskUnits="userSpaceOnUse" x="0" y="0" width="717" height="328">
<path d="M0 0H717V328H0V0Z" fill="#D2F8FD"/>
</mask>
<g mask="url(#mask0)">
<path d="M389.2 89.5543C375.9 83.6543 371.9 70.5543 367 58.0543C363 47.5543 356.1 39.5543 345.3 35.8543C335.3 32.4543 324.3 33.7543 315.5 39.5543C305.7 45.9543 299.1 56.9543 298.1 68.5543C297.1 81.0543 302.4 95.6543 312.9 103.154C313.1 103.354 313.4 103.254 313.6 103.154C320.4 112.954 328 122.054 336.5 130.354C344.2 137.954 352.6 145.654 361.8 151.654C361.6 152.254 361.8 152.954 362.5 153.354C383.9 163.554 391.6 216.854 413.8 204.354C427.7 196.554 446.5 144.654 445 134.054C439.1 93.4543 399.5 94.1543 389.2 89.5543Z" fill="#38193A"/>
<path opacity="0.71" d="M425.4 111.654C415.6 102.154 401.7 100.654 388.7 101.754C388.4 101.754 388.4 102.354 388.7 102.254C400.2 102.054 412.7 103.654 421.8 111.254C430.7 118.554 433.9 130.354 428.7 140.854C428.4 141.554 429.4 142.354 429.9 141.654C436.8 132.254 433.3 119.254 425.4 111.654Z" fill="#843957"/>
<path opacity="0.71" d="M376.2 86.7542C370.9 82.1542 367.6 77.2542 364.9 70.8542C362.6 65.4542 360.7 59.8542 357.7 54.7542C353.1 46.9542 344.3 39.6542 334.8 43.0542C334.4 43.1542 334.5 43.7542 334.9 43.7542C348 41.8542 355.5 53.6542 359.8 64.1542C363.3 72.6542 366.6 83.4542 375.2 88.2542C376.1 88.6542 377 87.3542 376.2 86.7542Z" fill="#843957"/>
<path d="M295.2 236.154C295.2 236.154 281.8 398.154 303.6 518.554L319.2 520.954C319.2 520.954 319 321.654 337.2 313.254C355 305.054 379.5 533.154 379.5 533.154H395.3C395.3 533.154 392.3 280.954 376.5 244.054C360.7 207.254 295.2 236.154 295.2 236.154Z" fill="#38193A"/>
<path d="M540.4 286.154C538.4 287.454 476.7 277.554 452 288.454C449.3 289.654 442.5 290.154 440.8 288.454C439.4 287.054 438.3 285.354 437.4 283.454C437.4 283.754 437.5 283.954 437.6 284.254C446.9 351.654 458.4 419.154 452.9 487.454C451.3 506.754 448.4 525.954 443.9 544.754C443.6 546.054 461.4 544.354 461.4 544.354C461.4 544.354 478.7 480.954 482.5 462.754C488.6 434.354 491.7 405.254 492 376.254C503.1 431.354 504.5 488.154 495.9 543.754C495.7 545.054 515 544.654 515.2 543.554C522.2 506.054 530.8 467.454 535.2 429.654C537.4 410.454 540.8 374.754 541.8 355.454C542.7 338.654 543.2 303.954 540.4 286.154Z" fill="#38193A"/>
<path d="M541.9 158.154C532.1 146.354 514.6 134.254 498.7 140.754C498.6 140.654 498.5 140.554 498.3 140.454C495.3 138.954 492 139.354 488.7 139.054C484.5 138.754 480.3 138.154 476.1 137.854C471.7 137.454 467.2 137.154 462.7 136.854C459.4 136.554 456.2 135.754 453.1 137.154C442.8 137.754 432.4 144.254 425.1 150.354C414.1 159.554 398.6 185.954 398.1 186.854C398.5 189.254 398.8 191.554 399.1 193.954C399.4 195.954 399.6 197.954 399.9 199.954C401.5 213.054 403.3 227.154 401.4 240.254C400.9 243.554 400 246.754 398.6 249.654C397.9 251.054 397.2 252.354 396.3 253.554C397.1 254.354 418.9 230.454 430.2 249.754C432.5 253.654 435.4 279.354 437.3 283.454C438.2 285.354 439.3 287.054 440.7 288.454C442.4 290.154 444.5 291.354 447.5 291.954C467 295.454 510.2 277.454 515.8 305.954C516.1 307.654 518.8 307.954 519.6 306.454C523 300.054 529.8 297.554 536.1 294.754C537.1 294.354 538.1 293.854 539 293.454C541.2 292.454 550.3 286.154 552.3 283.554C562 271.254 562 259.154 564.3 243.854C569 213.754 561.5 181.754 541.9 158.154Z" fill="#FFAF56"/>
<path d="M399.9 199.854C399.6 197.854 399.4 195.854 399.1 193.854C398.8 191.554 398.5 189.154 398.1 186.754C396.7 177.654 394.3 168.654 391.4 160.154C385.9 144.054 364.7 122.854 340.4 119.954C340.4 119.754 299 115.854 284.1 146.354C278.5 157.854 271.4 168.454 263.9 178.754C260.1 184.054 255.6 188.754 250.5 192.854C246.9 195.754 242.1 199.854 237.3 200.554C238.8 201.454 240.3 202.254 241.8 203.254C242 203.354 242.1 203.454 242.3 203.554C248.7 207.454 253 214.854 254.3 222.154C256.3 234.054 281.3 206.454 286.5 205.754C294.2 204.654 286.4 254.354 294.2 254.454C308.7 254.654 338.6 257.254 352.4 261.454C363.1 264.754 386.9 266.454 382.4 259.154C379.8 254.854 393.7 257.254 396.3 253.554C397.2 252.354 398 250.954 398.6 249.654C400 246.754 400.9 243.654 401.4 240.254C403.3 226.954 401.5 212.854 399.9 199.854Z" fill="#843957"/>
<path d="M284.1 476.154C279 461.354 277.2 445.854 275.6 430.354C274 415.154 272 400.154 268.7 385.154C265.4 370.454 261.5 355.754 257.5 341.254C254.1 329.154 250.2 317.154 244.5 305.854C244.3 305.554 244.2 305.254 244 304.954C242.8 305.854 241.9 306.954 240.9 308.254C240 309.454 239 310.754 237.9 311.654C233.2 315.854 226.9 317.454 220.8 318.154C203.7 320.254 186.2 320.254 169 321.154C164.4 321.354 159.9 321.554 155.4 320.754C154.1 320.554 152.8 320.154 151.6 319.754C150 325.054 148.7 330.454 147.4 335.954C143.4 353.554 140.7 371.454 139.2 389.354C136 426.954 137.9 464.754 142.7 502.154C142.8 503.254 143.5 504.254 144.8 504.254C155.3 504.454 165.8 504.254 176.2 503.754C177.3 503.754 178.4 503.654 179.5 503.554C186.6 503.154 193.7 502.554 200.7 501.754C202.1 501.554 203.6 501.454 205 501.254C209.4 500.754 213.7 500.154 218.1 499.454C218.7 499.354 219.3 499.254 219.9 499.154C220.4 499.054 220.9 498.954 221.4 498.854C228.6 497.654 235.8 496.354 243 494.654C244.5 494.254 245.9 493.954 247.4 493.554C259.9 490.254 271.9 485.554 282.9 478.554C283.9 478.054 284.4 477.054 284.1 476.154Z" fill="#843957"/>
<path d="M258.4 303.254C254.2 304.554 248.8 302.354 245 304.254C244.6 304.454 244.2 304.654 243.9 304.954C242.7 305.854 241.8 306.954 240.8 308.254C239.9 309.454 238.9 310.754 237.8 311.654C233.1 315.854 226.8 317.454 220.7 318.154C203.6 320.254 186.1 320.254 168.9 321.154C164.3 321.354 159.8 321.554 155.3 320.754C154 320.554 152.7 320.154 151.5 319.754C150.1 319.254 148.6 318.654 147.3 317.954C141.8 314.854 137.5 309.854 134.6 304.354C127.5 290.554 129.7 274.254 132.6 259.554C135.7 243.854 140.6 228.054 149.8 214.754C157.1 204.254 167.3 195.454 179.3 190.854C180.1 190.554 180.8 190.254 181.6 190.054C189 187.554 204.4 185.354 220.3 189.754C233.7 193.554 247.5 202.054 257.2 219.354C262.9 229.554 268.4 240.654 271.4 252.254C271.8 253.654 272.1 255.054 272.4 256.354C273.3 260.554 273.9 264.854 274.2 269.154C275.3 281.954 272.6 298.954 258.4 303.254Z" fill="#F27E65"/>
<path d="M467.5 74.554C462.3 75.854 456.2 77.654 454.2 83.154C452 89.354 456.6 95.254 455.8 101.354C455.7 101.854 462.6 93.854 468.7 76.154C469.1 75.254 468.4 74.354 467.5 74.554Z" fill="#A7A7A7"/>
<path d="M506.301 97.554C504.901 92.754 505.101 86.254 502.501 81.954C499.901 77.654 494.401 74.954 490.101 72.354C489.901 72.254 482.401 69.054 478.501 69.454C471.001 70.254 465.501 76.554 462.301 82.854C458.101 91.054 457.001 100.254 453.301 108.654C450.201 115.654 445.501 122.754 445.801 130.754C446.401 146.254 463.501 153.954 477.101 151.954C492.501 149.654 503.701 137.754 507.101 122.854C509.201 114.554 508.701 105.754 506.301 97.554Z" fill="#FFC7B8"/>
<path d="M461.4 132.854C461.4 132.854 465 129.354 466.9 130.354C468.8 131.354 473.5 132.254 477.2 131.254C487 128.654 488.1 135.254 488.1 135.254L461.4 132.854Z" fill="white"/>
<path d="M470.1 124.654C445.5 120.154 454.5 107.654 451.9 110.954C453.3 107.754 444.6 128.854 436.5 136.954C431.8 141.754 427.7 147.154 432 153.954C438.9 164.954 453.5 169.554 465.9 167.954C479.8 166.154 491.5 156.854 498.8 145.254C502.3 139.754 508.8 127.854 507.1 121.054C505.6 115.054 485.6 127.554 470.1 124.654Z" fill="#A7A7A7"/>
<path d="M481.9 70.5541C481.8 70.4541 476.3 61.0541 472 58.6541C469.3 57.1541 465.7 58.1541 465.2 61.4541C464.7 65.0541 467.6 68.3541 470.3 70.1541C473.8 72.5541 478.2 73.0541 482.3 71.8541C483.1 71.7541 483.9 71.3541 481.9 70.5541Z" fill="#A7A7A7"/>
<path d="M511.8 80.7541C510.8 77.9541 508.7 75.454 505.8 74.854C502.2 74.054 496.6 76.6541 493.4 74.7541C492.5 74.2541 502.8 78.9541 503 90.354C503.2 99.5541 508.4 110.054 508.6 109.454C510.1 104.354 510.3 97.7541 511.4 92.4541C512.2 88.6541 513.1 84.4541 511.8 80.7541Z" fill="#A7A7A7"/>
<path d="M514.2 108.854C511.3 107.254 506.7 108.254 505.4 111.454C505.2 112.054 505.8 112.554 506.3 112.354C506.4 112.354 506.5 112.254 506.6 112.254C506.2 112.654 505.9 113.154 505.7 113.754C505.6 113.954 505.5 114.254 505.4 114.454C505.1 114.054 504.4 113.954 504 114.354C501.6 116.854 504.1 120.354 507 121.054C510.4 121.954 514.8 119.754 516.5 116.754C518.3 113.954 517.1 110.354 514.2 108.854Z" fill="#FFC7B8"/>
<path d="M454.6 100.754C451.8 99.4542 448.6 101.454 447.6 104.054C446.5 106.854 447.4 110.454 450 112.154C452.1 113.554 457 113.354 456.9 109.954C456.9 109.454 456.6 109.054 456.2 108.754C457 107.754 457.2 106.554 456.8 105.454C457.2 103.654 456.4 101.554 454.6 100.754Z" fill="#FFC7B8"/>
<path d="M468.4 127.254C468.4 127.254 478.5 136.354 488.9 133.054C499.3 129.754 499.2 119.154 499.2 119.154C499.2 119.154 487.1 128.354 471.3 113.254C471.3 113.254 457.8 115.954 452.3 112.554C452.2 112.554 449.9 149.154 468.4 127.254Z" fill="#A7A7A7"/>
<path opacity="0.7" d="M444.4 137.054C446.5 133.854 447.6 130.554 448.3 126.854C448.4 126.354 447.7 126.154 447.5 126.654C445.7 132.154 442.7 136.354 439.1 140.854C436.8 143.654 435.4 146.654 436.1 150.254C437.5 158.254 446.8 163.054 454.3 163.454C455.2 163.454 455.6 162.154 454.8 161.754C451.3 160.254 447.5 159.854 444.2 157.754C440.5 155.454 437.3 151.054 438.3 146.454C439 142.654 442.4 140.054 444.4 137.054Z" fill="white"/>
<path opacity="0.7" d="M485.3 153.254C482.1 155.354 478.9 157.454 475.3 158.654C471.6 159.854 467.9 160.254 464 160.554C463.7 160.554 463.5 161.054 463.9 161.154C471.5 163.254 480.9 160.054 486 154.054C486.3 153.654 485.8 152.854 485.3 153.254Z" fill="white"/>
<path opacity="0.7" d="M504 76.9541C503.4 76.9541 503.3 77.8541 503.9 78.0541C513.2 80.0541 505.7 92.8541 507.6 98.8541C507.8 99.3541 508.6 99.3541 508.6 98.7541C508.4 93.5541 511.1 88.3541 510.3 83.1541C509.7 79.6541 507.5 77.1541 504 76.9541Z" fill="white"/>
<path opacity="0.7" d="M461.6 78.454C458.8 79.154 456.2 82.054 456.8 85.154C456.9 85.654 457.8 85.754 457.9 85.154C458.1 83.854 458.3 82.754 459 81.654C459.7 80.454 460.6 79.654 461.9 79.054C462.2 78.854 462 78.354 461.6 78.454Z" fill="white"/>
<path opacity="0.7" d="M478.1 69.0543C475.9 67.6543 474.3 66.3543 473.2 63.7543C472.7 62.4543 472.2 60.9543 470.9 60.1543C469.5 59.2543 466.3 59.9543 467.2 62.0543C467.3 62.2543 467.5 62.3543 467.7 62.1543C467.9 61.5543 468.5 61.3543 469.3 61.6543C470.1 61.2543 470.7 61.3543 471 62.0543C471.7 62.5543 471.8 63.6543 472.1 64.4543C472.5 65.3543 472.9 66.2543 473.5 67.0543C474.6 68.4543 476 69.5543 477.8 69.8543C478.3 70.0543 478.6 69.3543 478.1 69.0543Z" fill="white"/>
<path opacity="0.7" d="M491.401 126.654C483.401 127.854 473.301 123.254 468.801 117.454C468.601 117.154 468.101 117.454 468.201 117.754C468.401 118.054 468.601 118.454 468.801 118.854C468.701 118.854 468.501 118.854 468.301 119.054C465.801 121.054 463.501 122.954 460.201 122.954C456.501 122.954 453.301 120.554 453.001 116.754C452.901 116.154 452.101 116.154 452.101 116.754C452.101 126.454 464.601 125.954 469.301 120.054C469.301 120.054 469.301 119.954 469.401 119.954C472.801 125.954 484.801 132.454 492.101 128.454C493.001 127.654 492.301 126.454 491.401 126.654Z" fill="white"/>
<path d="M216.7 223.954C210.6 232.454 192.4 224.854 192.4 224.854C192.7 217.654 179.5 190.954 179.5 190.954C180.3 190.654 181 190.354 181.8 190.154C189.2 187.654 204.6 185.454 220.5 189.854C219.3 197.254 221.9 216.654 216.7 223.954Z" fill="#BCAAB8"/>
<path d="M228.2 125.554C228.4 118.254 224.3 110.954 217.4 107.954C210.4 104.954 202.2 106.954 197 112.254C193.1 107.554 186.5 105.254 180.6 107.354C174.7 109.354 170.9 115.154 170.7 121.254C162.6 119.754 153.7 123.954 150.4 131.754C147.3 139.254 149.9 147.754 156 152.754C147.7 157.754 146.5 169.554 152.8 176.954C159.6 184.854 170.9 185.754 180 181.754C180.2 181.854 180.4 181.954 180.7 181.854C194.1 173.554 209.8 170.154 225.3 173.754C225.5 174.254 225.9 174.654 226.4 174.454C232.7 173.254 240 169.354 242.6 163.154C244.5 158.454 243.7 152.954 239.8 149.754C243 140.054 237.6 129.154 228.2 125.554Z" fill="#E4DEFF"/>
<path d="M226.199 147.954C219.599 135.954 207.099 126.154 192.899 131.154C177.399 136.554 171.399 153.754 173.699 168.954C173.799 169.354 173.899 169.654 174.099 169.854C175.199 177.954 180.099 185.554 187.099 189.854C198.199 196.654 212.799 195.354 222.099 186.154C232.699 175.754 233.099 160.454 226.199 147.954Z" fill="#FEC290"/>
<path d="M227.1 116.354C220.9 115.954 214 118.054 209 121.654C207.7 122.654 206.5 123.854 205.7 125.254C205.5 123.254 204.9 121.454 203.3 120.154C202.2 119.254 200.8 120.254 200.8 121.454C200.8 122.754 201.1 123.954 201.3 125.254C198.2 122.354 193 123.954 190 127.054C189.5 127.154 189.1 127.254 188.6 127.454C187.3 128.054 186.4 129.054 185.9 130.354C185.7 130.154 185.2 130.054 185 130.354C184.4 131.254 184.3 132.154 184.4 133.054C183.7 132.954 183 133.354 183 134.054C177.4 129.254 169.4 142.354 167.9 146.654C166.6 150.354 166.1 154.954 169.5 157.554C172.9 160.154 177.6 159.054 181 157.054C187.7 153.054 190.8 144.654 188 137.654C190.8 139.254 194.4 139.254 197.4 138.154C199.3 137.454 201.1 136.354 202.4 134.854C209.2 142.854 221.5 143.854 230.1 138.054C234.5 135.054 238.6 129.854 237.7 124.254C236.8 119.154 231.9 116.654 227.1 116.354ZM172.6 147.054C172.3 147.954 172.1 149.054 172 150.054C171.6 150.454 171.4 150.954 171.3 151.454C171.2 150.654 171.3 149.654 171.6 148.554C171.9 147.654 172.3 146.654 172.7 145.754C172.6 146.254 172.6 146.654 172.6 147.054ZM216.6 128.854C217.9 127.954 219.2 127.054 220.5 126.154C220.7 126.154 220.9 126.154 221 126.254C222.5 126.454 224.2 127.354 223.9 128.554C223.2 129.254 222.4 129.854 221.5 130.354C220.9 130.554 220.4 130.654 219.8 130.654C218.9 129.954 217.8 129.354 216.6 128.854ZM228.3 133.054C226.1 135.054 223.3 136.554 220.4 137.254C220.5 137.054 220.6 136.854 220.7 136.654C220.8 136.554 221 136.554 221.1 136.454C223.4 135.454 225.9 134.254 228 132.654C228.3 132.554 228.6 132.554 228.9 132.454C228.7 132.654 228.5 132.854 228.3 133.054ZM227.5 124.154C227 123.654 226.4 123.254 225.7 122.954C226.2 122.754 226.7 122.754 227.1 123.054C227.5 123.254 227.6 123.654 227.5 124.154Z" fill="#E4DEFF"/>
<path d="M176.2 170.054C175.8 169.554 175.3 169.154 174.7 168.954C174.7 168.654 174.5 168.454 174.2 168.254C171.8 166.954 168.7 168.554 168.4 171.254C168 174.154 170.4 176.754 173.4 176.454C176.4 176.254 178.2 172.554 176.2 170.054Z" fill="#FEC290"/>
<path d="M233.9 156.954C232.5 155.754 230.5 155.654 229.1 156.954C228.7 157.254 228.4 157.754 228.1 158.254C228 158.454 227.9 158.554 227.9 158.754C227.6 159.654 227.7 160.554 228.6 161.154C228.7 161.254 228.8 161.354 228.8 161.454C228.4 162.254 228.6 163.154 229.5 163.454C229.6 163.454 229.8 163.554 229.9 163.554C230 163.554 230 163.554 230.1 163.554C231.8 163.854 233.5 163.354 234.5 161.854C235.7 160.354 235.4 158.254 233.9 156.954Z" fill="#FEC290"/>
<path d="M186.9 155.854C181.9 157.754 178.8 162.454 178.8 167.454C177.2 166.054 175 165.554 172.8 166.054C171.6 166.354 172.3 168.154 173.5 167.854C175.3 167.454 177.3 167.754 178.9 168.754C179 169.854 179.2 170.954 179.6 172.054C182 178.554 189.2 181.854 195.7 179.454C202.2 177.054 205.5 169.854 203.1 163.354C200.7 156.754 193.4 153.454 186.9 155.854ZM194.8 176.954C189.7 178.854 183.9 176.254 182 171.154C180.1 166.054 182.7 160.254 187.8 158.354C192.9 156.454 198.7 159.054 200.6 164.154C202.5 169.254 199.9 175.054 194.8 176.954Z" fill="#BEAAB3"/>
<path d="M222.9 172.354C216.4 174.754 209.2 171.454 206.8 164.954C204.4 158.454 207.7 151.254 214.2 148.854C220.7 146.454 227.9 149.754 230.3 156.254C232.7 162.754 229.4 169.954 222.9 172.354ZM215.1 151.354C210 153.254 207.3 158.954 209.3 164.154C211.2 169.254 216.9 171.954 222.1 169.954C227.2 168.054 229.9 162.354 227.9 157.154C225.9 152.054 220.2 149.454 215.1 151.354Z" fill="#BEAAB3"/>
<path d="M207.9 164.554C206.1 162.754 203.1 164.554 202.4 166.554C202.2 167.054 203 167.454 203.2 166.954C203.6 166.054 204.3 165.454 205.2 165.254C206.1 165.054 206.7 165.354 207.5 165.454C208 165.554 208.2 164.854 207.9 164.554Z" fill="#BEAAB3"/>
<path opacity="0.29" d="M225.199 158.954C224.199 158.254 222.599 158.854 221.899 159.854C221.799 159.954 221.799 159.954 221.799 160.054C221.699 160.254 221.899 160.554 222.199 160.454H222.299C223.099 160.354 223.699 160.954 224.199 161.554C224.599 162.054 225.299 161.654 225.099 161.054C224.899 160.354 224.299 159.854 223.699 159.654C224.099 159.554 224.599 159.654 224.999 159.654C225.299 159.754 225.499 159.154 225.199 158.954Z" fill="#FE9190"/>
<path opacity="0.29" d="M188.7 166.854C188.7 166.754 188.7 166.754 188.6 166.654C187.6 165.054 184.4 164.854 183.8 166.954C183.7 167.354 184.3 167.754 184.6 167.454C185.3 166.754 186.4 166.254 187.3 166.654C186.2 166.854 185.1 167.454 184.9 168.554C184.8 168.954 185.4 169.254 185.7 168.954C186.4 167.954 187.1 167.154 188.4 167.354C188.8 167.454 188.9 167.054 188.7 166.854Z" fill="#FE9190"/>
<path opacity="0.81" d="M226.6 132.154C224.6 128.354 218.3 127.654 216.6 132.154C215.1 136.254 219.8 139.454 222.9 136.354C223.9 135.354 222.2 133.954 221.2 134.954C219.2 132.354 219.2 131.054 221.1 131.254C222.4 130.954 223.4 131.354 224.4 132.554C225.8 134.254 225.4 136.954 224.2 138.554C222.5 140.954 219.4 141.754 216.6 141.554C212 141.354 207.8 138.854 204.1 136.254C207.8 133.454 210.1 128.554 208.6 123.954C207.2 119.854 202.4 117.154 198.4 119.554C195 121.654 194.5 127.154 198.4 128.954C199.4 129.454 200.2 128.054 199.4 127.354C194.6 122.754 202.5 118.054 205.9 123.254C208 126.354 206.7 130.454 204.5 133.154C200.2 138.454 193.2 138.854 186.9 137.854C186.8 137.854 186.7 137.854 186.7 137.854C186.1 137.454 185.5 137.054 184.8 136.754C179.4 134.854 171.5 140.954 174.3 146.854C176.8 152.154 185 149.554 182.9 143.754C182.7 143.154 182 142.854 181.3 143.054C180.9 143.154 180.6 143.254 180.2 143.454C179.3 143.754 179.3 144.854 179.8 145.354C179.1 145.954 178.5 146.654 177.8 147.254L176.1 144.654C175.8 143.554 176.7 141.954 177.4 141.154C178.6 139.754 181.6 138.154 183.6 138.754C187.7 139.954 187.9 145.454 187 148.854C185 156.154 178.4 158.054 171.7 158.454C171.4 158.454 171.4 158.854 171.6 158.954C177.6 161.354 184.9 157.554 187.8 152.054C189.7 148.454 190.4 142.054 187.5 138.654C192.8 140.154 198.6 140.054 203.4 136.854C207.8 140.954 213.9 144.554 220.2 143.254C225 142.154 229.2 137.054 226.6 132.154Z" fill="white"/>
<path opacity="0.81" d="M224.9 121.454C224.6 121.854 225.1 122.454 225.5 122.154C227.9 120.154 230.9 121.554 231.8 124.354C232 125.054 233 124.754 233 124.054C233.1 119.754 227.5 118.254 224.9 121.454Z" fill="white"/>
<path opacity="0.81" d="M173.7 129.754C167.8 129.254 163 136.454 165.4 141.754C165.6 142.154 166.1 142.054 166.1 141.554C166 139.154 166.1 136.754 167.7 134.754C169.3 132.654 171.5 132.054 173.8 131.254C174.6 131.054 174.5 129.854 173.7 129.754Z" fill="white"/>
<path opacity="0.81" d="M158.6 158.154C151.6 162.854 154.4 173.754 161.4 176.654C162.4 177.054 162.9 175.754 162 175.254C159.3 173.554 157.1 170.754 156.7 167.554C156.3 164.254 157.8 161.854 159.5 159.254C160 158.454 159.3 157.654 158.6 158.154Z" fill="white"/>
<path d="M338.3 106.954C338.3 106.954 336.3 117.154 338.3 123.154C338.3 123.154 329.5 131.254 321 125.254C321 125.254 325.8 116.954 323.5 112.054C321.2 107.254 338.3 106.954 338.3 106.954Z" fill="#FEA790"/>
<path d="M314 60.8543C322 51.9543 338.5 49.5543 345.9 60.5543C346.2 60.9543 346.1 61.4543 345.8 61.8543C350.3 67.2543 352.3 74.8543 351.6 81.9543C351 88.5543 348.5 94.8543 345.2 100.654C342.1 106.154 338.3 112.454 332.6 115.554C319.2 122.754 311.9 107.554 308.7 97.1543C304.9 84.9543 305.1 70.7543 314 60.8543Z" fill="#FEC290"/>
<path d="M301 88.8544C301 87.1544 302.1 85.7544 303.6 85.6544C305.1 85.5544 306.4 86.5544 307.3 87.8544C308.1 88.5544 308.7 89.6544 308.6 90.7544C309.5 91.1544 310 92.6544 309 93.3544C308 94.0544 306.6 94.2544 305.4 93.7544C304.7 93.6544 304 93.4544 303.4 93.0544C302 92.2544 301 90.5544 301 88.8544Z" fill="#FEC290"/>
<path d="M334.2 44.9542C333.7 45.2542 333.4 45.6542 333.3 46.0542C330.9 45.7542 328.5 45.7542 326 45.9542C318 46.7542 304.1 50.0542 302.1 59.4542C301.3 63.2542 303.1 66.8542 306.6 68.4542C311.1 70.4542 316.1 68.5542 320.3 66.8542C327.5 63.9542 335.7 60.0542 343.1 61.0542C350.5 63.1542 348.3 64.9542 351.4 66.3542C352 66.6542 352.5 66.6542 353 66.4542C353.2 66.6542 353.4 66.9542 353.6 67.2542C354.1 67.8542 355 67.4542 354.8 66.6542C354.6 66.0542 354.4 65.5542 354.1 65.0542C354.2 64.5542 354.2 64.0542 353.9 63.5542C353.6 62.9542 353.3 62.4542 353 61.9542C354.4 62.4542 356.3 61.1542 355.6 59.5542C352.2 50.8542 345 39.5542 334.2 44.9542ZM335.5 50.0542C336.4 50.5542 337.2 51.0542 338.1 51.5542C337.7 51.5542 337.2 51.5542 336.8 51.5542C336.2 50.8542 335.1 50.5542 334.3 51.1542C333.9 50.5542 333.3 50.1542 332.7 50.2542C332.2 50.3542 331.6 50.4542 331.1 50.5542C330.9 50.2542 330.6 49.9542 330.2 49.7542C330.1 49.6542 329.9 49.5542 329.8 49.4542C331.6 49.4542 333.6 49.6542 335.5 50.0542ZM305.4 61.3542C305.3 58.2542 308 55.8542 310.4 54.4542C314.7 51.9542 319.9 50.3542 324.8 49.7542C324.8 49.7542 324.9 49.7542 325 49.7542C323 50.7542 321.2 52.7542 320.2 54.8542C320.2 54.8542 320.1 54.8542 320.1 54.9542C316.6 54.0542 311.5 57.8542 311.1 61.1542C311.1 61.3542 311.1 61.5542 311.1 61.7542C309.7 62.7542 308.5 63.9542 308.1 65.1542C306.6 64.4542 305.5 63.2542 305.4 61.3542Z" fill="#38193A"/>
<path d="M349.3 88.4542C349.3 88.6542 349.4 88.8542 349.6 88.8542C349.8 88.8542 350.1 88.7542 350.3 88.6542C350.2 88.9542 350.2 89.3542 350.2 89.6542C350.2 89.7542 350.2 89.8542 350.2 89.9542C349.4 89.5542 348.6 89.3542 347.8 89.7542C347.6 89.8542 347.5 90.2542 347.5 90.4542C348 93.4542 352 94.6542 354 94.6542C356.2 94.6542 358.4 92.9542 358.6 90.1542C359.3 83.6542 350.3 83.0542 349.3 88.4542Z" fill="#FEC290"/>
<path d="M182.1 187.754C181 188.054 180.2 189.554 180.6 190.854C181 192.154 182.1 192.954 183.2 192.654C184.3 192.354 185.1 190.854 184.7 189.554C184.4 188.154 183.3 187.354 182.1 187.754Z" fill="#E4DEFF"/>
<path d="M184 193.254C181.3 193.554 181.7 198.454 184.4 198.154C187 197.854 186.7 192.954 184 193.254Z" fill="#E4DEFF"/>
<path d="M186.499 198.054C185.499 198.354 184.799 199.654 185.099 200.854C185.399 202.054 186.399 202.754 187.499 202.454C188.499 202.154 189.199 200.854 188.899 199.654C188.599 198.454 187.499 197.754 186.499 198.054Z" fill="#E4DEFF"/>
<path d="M189.799 201.054C187.899 201.654 188.699 205.054 190.599 204.454C192.499 203.854 191.699 200.454 189.799 201.054Z" fill="#E4DEFF"/>
<path d="M193.2 203.054C191 203.754 191.9 207.754 194.1 207.054C196.4 206.354 195.4 202.354 193.2 203.054Z" fill="#E4DEFF"/>
<path d="M196.4 205.454C194.2 206.154 195.1 210.054 197.3 209.354C199.5 208.654 198.6 204.754 196.4 205.454Z" fill="#E4DEFF"/>
<path d="M199.8 206.654C197.7 207.354 198.6 211.154 200.7 210.454C202.8 209.854 201.9 205.954 199.8 206.654Z" fill="#E4DEFF"/>
<path d="M203.4 207.554C202.7 207.754 202.1 208.754 202.4 209.654C202.6 210.554 203.399 211.054 204.199 210.854C204.899 210.654 205.499 209.654 205.199 208.754C204.899 207.854 204.1 207.254 203.4 207.554Z" fill="#E4DEFF"/>
<path d="M206.7 206.454C204.3 207.254 205.3 211.554 207.7 210.754C210.1 210.054 209.1 205.654 206.7 206.454Z" fill="#E4DEFF"/>
<path d="M210.4 205.754C208.5 206.354 209.3 209.754 211.2 209.154C213.1 208.554 212.3 205.154 210.4 205.754Z" fill="#E4DEFF"/>
<path d="M213.2 203.454C212.3 203.754 211.7 204.854 212 205.954C212.3 207.054 213.2 207.654 214.1 207.354C215 207.054 215.6 205.954 215.3 204.854C215 203.854 214.1 203.154 213.2 203.454Z" fill="#E4DEFF"/>
<path d="M216.299 201.354C214.399 201.954 215.199 205.354 217.099 204.754C218.999 204.154 218.199 200.754 216.299 201.354Z" fill="#E4DEFF"/>
<path d="M218.7 199.154C217 199.654 217.7 202.754 219.4 202.254C221.1 201.654 220.4 198.554 218.7 199.154Z" fill="#E4DEFF"/>
<path d="M221.9 196.154C221.3 195.954 220.499 196.254 220.199 196.954V197.054C219.899 197.954 219.999 198.754 220.699 199.354C220.699 199.354 220.7 199.354 220.8 199.454C221.3 199.854 221.999 199.754 222.499 199.254C222.999 198.854 223.199 198.054 222.999 197.354C222.799 196.854 222.4 196.354 221.9 196.154Z" fill="#E4DEFF"/>
<path d="M223.7 193.054C223.7 193.054 223.6 193.054 223.7 193.054C223.1 192.654 222.4 192.854 222.1 193.454V193.554C221.5 194.554 222.5 196.054 223.5 195.654C223.9 195.454 224.2 195.154 224.4 194.654C224.4 194.154 224.2 193.354 223.7 193.054Z" fill="#E4DEFF"/>
<path d="M223.4 189.654C222.8 189.854 222.4 190.654 222.6 191.354C222.8 192.054 223.4 192.554 224 192.354C224.6 192.154 225 191.354 224.8 190.654C224.6 189.954 224 189.454 223.4 189.654Z" fill="#E4DEFF"/>
<path d="M195.8 317.054C189.6 308.354 176.2 312.054 174 322.154C172.3 330.254 173.4 339.454 173.3 347.754C173.2 357.054 173.2 366.254 173.3 375.554C173.8 413.554 174.5 451.554 176.5 489.554C177.6 510.954 178.8 532.354 181 553.654C181.3 556.554 185.8 556.654 185.6 553.654C183.5 520.454 181.6 487.354 180.5 454.154C179.5 421.254 179.5 388.354 178.5 355.454C178.2 346.354 177.6 337.154 177.7 328.054C177.7 323.854 178.3 319.154 182.7 317.354C186 316.054 190.2 316.954 192.8 319.254C194.4 320.554 197.1 318.854 195.8 317.054Z" fill="#38193A"/>
<path d="M197.1 314.054C196.1 311.754 195.2 309.354 193.8 307.254C192.6 304.854 190.4 302.754 187.9 302.054C183.1 300.554 178.5 303.654 176.6 307.954C174.9 311.654 174.2 317.354 177.7 320.254C179.7 321.954 182.8 321.754 184.2 320.054C186.1 320.554 188 320.454 189.3 319.054C192 319.654 193.7 316.954 194 313.854C194.3 314.354 194.5 314.854 194.8 315.354C195.6 316.954 197.8 315.554 197.1 314.054Z" fill="#FAB17C"/>
<path d="M219.2 298.254C218.7 296.854 217.2 295.554 215.3 294.654C215.1 294.554 215 294.554 214.8 294.454C214.7 294.454 214.6 294.354 214.6 294.354C214.5 294.354 214.4 294.254 214.2 294.254C213.2 293.854 212.1 293.654 211 293.554C209.1 293.354 207.2 293.354 205.8 293.554C199.5 294.254 193.7 296.854 187.5 297.754C186.5 297.854 186.6 299.454 187.5 299.654C188 299.754 188.5 299.754 189.1 299.854C187.7 300.354 186.3 300.654 184.9 300.854C183.4 301.054 183.9 303.354 185.2 303.454C188.8 303.654 192.5 302.254 196.3 300.854C196.5 300.854 196.8 300.954 197 300.954C196.4 301.154 195.8 301.354 195.2 301.554C192.9 302.354 190.2 303.054 188.3 304.654C188 304.854 188.3 305.254 188.6 305.354C192.3 305.754 196.2 304.454 200.1 303.454C198.5 304.354 196.9 305.154 195.4 306.054C195.3 306.154 195.2 306.354 195.3 306.454C197.3 308.454 200.1 306.354 202.1 305.354C206.7 303.154 211.1 307.254 215.7 305.754C217.9 305.054 219.9 303.254 219.8 300.754C219.9 299.854 219.7 298.954 219.2 298.254Z" fill="#FEC290"/>
<path d="M352 238.754C351.5 237.354 350 236.154 348.2 235.254C348 235.154 347.9 235.154 347.7 235.054C347.6 235.054 347.6 234.954 347.5 234.954C347.4 234.954 347.3 234.854 347.1 234.854C346.1 234.454 345 234.254 344 234.154C342.2 233.954 340.3 233.954 338.9 234.154C332.8 234.854 327.1 237.354 321 238.254C320.1 238.354 320.1 239.954 321 240.154C321.5 240.254 322 240.254 322.5 240.354C321.1 240.854 319.8 241.154 318.4 241.354C316.9 241.554 317.4 243.754 318.7 243.854C322.2 244.054 325.9 242.754 329.5 241.354C329.7 241.354 330 241.354 330.2 241.454C329.6 241.654 329 241.854 328.4 242.054C326.1 242.854 323.5 243.554 321.6 245.054C321.3 245.254 321.6 245.654 321.9 245.754C325.6 246.154 329.3 244.854 333.1 243.954C331.6 244.854 330 245.554 328.5 246.554C328.4 246.654 328.3 246.854 328.5 246.954C330.5 248.854 333.2 246.854 335.2 245.854C339.7 243.754 344 247.654 348.5 246.254C350.7 245.554 352.6 243.754 352.5 241.354C352.7 240.254 352.4 239.454 352 238.754Z" fill="#FEC290"/>
<path opacity="0.58" d="M179.6 293.954C176.1 289.654 170.7 286.354 165.5 284.454C164.5 284.054 160.8 282.754 158.4 282.954C162.1 279.054 163.3 274.254 164.1 268.954C165.2 261.854 166.2 254.754 167 247.554C167.1 246.554 165.4 246.354 165.2 247.354C164.1 253.854 163.3 260.454 162.4 266.954C161.6 272.654 160.7 278.654 157.1 283.354C156.7 283.554 156.4 283.954 156.3 284.454C156.2 285.254 157.2 285.454 157.5 284.754C158.1 283.154 168.5 288.054 169.3 288.554C172.6 290.554 175.4 293.154 178.7 295.254C179.4 295.754 180.1 294.654 179.6 293.954Z" fill="#F25E4A"/>
<path opacity="0.58" d="M236.3 199.254C236 198.554 234.8 199.054 235 199.754C236.7 205.454 237.6 211.054 238.5 216.854C238.7 217.854 240.3 217.554 240.3 216.654C240.4 210.654 238.7 204.654 236.3 199.254Z" fill="#F25E4A"/>
<path opacity="0.58" d="M248.3 269.054C242 270.054 235.4 273.254 229.8 276.154C223.8 279.154 219.9 283.754 215.9 288.954C215.1 290.054 217 291.154 217.8 290.054C222.2 284.254 226.6 280.154 233.4 277.054C238.5 274.654 243.6 272.254 248.7 269.854C249.2 269.554 248.8 268.954 248.3 269.054Z" fill="#F25E4A"/>
<path opacity="0.58" d="M233.4 304.654C231.9 304.754 230.3 304.754 228.8 304.554C227.1 304.354 225.6 303.654 223.9 303.354C223.5 303.254 223.1 303.754 223.5 304.054C226 306.554 230.5 306.754 233.7 306.254C234.6 306.154 234.4 304.554 233.4 304.654Z" fill="#F25E4A"/>
<path opacity="0.58" d="M434.7 180.654C434.7 180.054 433.8 180.054 433.8 180.654C433.3 198.354 426.9 212.854 415.2 225.954C414.5 226.754 415.6 227.854 416.4 227.154C429 215.854 435.8 197.354 434.7 180.654Z" fill="#F25E4A"/>
<path opacity="0.58" d="M517.4 215.354C514.4 204.354 511.3 193.254 510.3 181.754C509.5 171.754 509.1 157.054 517.8 150.154C518.2 149.854 517.7 149.054 517.2 149.354C511 153.754 509.4 161.154 508.7 168.354C507.7 178.954 509.3 189.554 511.7 199.754C514.2 210.454 517.6 220.954 519.9 231.654C522.6 244.054 522.2 255.154 513.6 264.954C513.1 265.554 513.8 266.554 514.4 266.054C529.8 254.754 521.4 230.154 517.4 215.354Z" fill="#F25E4A"/>
<path opacity="0.39" d="M359.5 189.654C356.8 202.454 344.4 194.454 336.7 193.054C329.2 191.654 322.6 192.954 315.3 194.354C305.6 196.154 293.8 193.154 297.5 180.754C298.6 177.154 300.5 173.754 301.5 170.054C302.6 166.154 303 162.154 303.1 158.154C303.1 157.454 302.1 157.454 302 158.154C301.3 164.854 299.1 170.654 296.5 176.754C295 180.354 293.6 184.254 294.4 188.154C296.2 196.554 305.9 198.454 313.1 197.554C318.9 196.854 324.4 195.154 330.3 195.354C336.6 195.554 341.6 197.854 347.5 199.454C354.4 201.354 361.3 197.254 361.4 189.854C361.5 188.854 359.8 188.554 359.5 189.654Z" fill="#38193A"/>
<path d="M388.7 226.754C386.7 225.354 384.3 225.954 382.1 226.554C379.8 227.154 377.9 227.554 375.7 227.654C376.2 227.554 376.7 227.454 377.2 227.354C381.1 226.454 384.5 225.054 387.9 223.054C389.4 222.154 388.4 219.554 386.7 220.254C382.4 221.854 378 223.254 373.4 223.654V223.554C374.1 223.454 374.9 223.354 375.6 223.254C378 222.754 380.2 221.654 382.1 220.154C383.3 219.254 382.3 217.454 380.9 218.154C378.2 219.454 375.4 219.954 372.4 220.154C372.2 220.154 371.9 220.154 371.7 220.254C372.9 219.054 374.3 217.954 373.9 216.054C373.7 215.254 372.8 215.154 372.2 215.654C370.2 217.354 367.9 218.254 366.4 220.654C365.9 221.554 365.4 222.554 365.2 223.654C363.9 226.554 363.4 230.554 363.6 232.354C363.9 235.054 374.3 241.154 384.2 233.354C385 232.754 384.5 231.254 383.5 231.654C381.7 232.254 380 232.854 378.2 233.454C376.7 233.954 374.2 233.254 374.1 233.154C374.1 232.854 374.1 232.554 374.1 232.154C376.3 232.554 378.6 231.854 380.7 231.154C383.2 230.254 386 229.754 388.4 228.654C389.4 228.154 389.2 227.154 388.7 226.754Z" fill="#FEA790"/>
<path d="M508.4 309.154C511.4 310.254 514.7 311.554 517.9 309.154C518 308.854 518.1 308.554 518.1 308.254C518.8 302.454 516.9 292.954 509.9 291.754C504 290.754 500 296.754 498.2 302.054C501.9 303.154 504.9 307.854 508.4 309.154Z" fill="#FEA790"/>
<path d="M525.9 311.354C523.4 310.454 520.7 310.654 518.1 310.054C514.8 309.354 511.6 307.854 508.5 306.454C505.7 305.154 503.1 303.754 500.9 301.554C499.3 299.854 498.1 298.054 496.2 296.854C495.8 296.554 495.3 297.054 495.4 297.454C496.6 303.454 502.4 307.454 507.5 309.954C513 312.654 519.7 315.854 525.9 314.054C527.3 313.554 527.1 311.854 525.9 311.354Z" fill="#843957"/>
<path d="M452.9 297.154C452.7 296.754 452 296.854 451.9 297.254C451.3 299.954 451.5 302.654 450.7 305.354C449.8 308.354 448.2 310.754 446.9 313.554C446.3 314.754 447.7 315.854 448.7 314.954C452.9 311.254 455.4 302.254 452.9 297.154Z" fill="#843957"/>
<path opacity="0.39" d="M361.3 229.954C359.4 229.754 357.3 230.554 355.6 231.254C353.7 231.954 352.1 232.754 350.5 233.954C349.7 234.554 350.1 236.254 351.3 235.754C353.1 235.054 354.9 234.354 356.7 233.854C358.4 233.354 360.3 233.254 362 232.454C363.4 231.854 362.5 230.054 361.3 229.954Z" fill="#38193A"/>
<path opacity="0.39" d="M373.101 141.154C366.501 149.154 365.701 161.354 365.501 171.254C365.301 182.654 366.401 196.054 371.401 206.454C371.901 207.554 373.601 206.754 373.301 205.654C370.901 194.654 368.001 184.454 368.001 173.054C368.001 163.354 368.501 150.354 374.501 142.254C375.301 141.454 373.801 140.254 373.101 141.154Z" fill="#38193A"/>
<path opacity="0.39" d="M378.2 255.754C373.1 255.454 368 255.054 362.9 254.054C358.9 253.254 352 252.654 348.9 249.854C348.5 249.554 347.9 249.954 348.2 250.354C350.8 253.754 356 254.254 359.9 255.254C365.8 256.754 372 258.054 378.2 257.454C379.3 257.254 379.3 255.754 378.2 255.754Z" fill="#38193A"/>
</g>
</svg>
