<svg width="374" height="251" viewBox="0 0 374 251" fill="none" xmlns="http://www.w3.org/2000/svg">
<mask id="mask0" mask-type="alpha" maskUnits="userSpaceOnUse" x="0" y="0" width="374" height="251">
<rect width="374" height="251" fill="#C3DBFD"/>
</mask>
<g mask="url(#mask0)">
<path d="M71.6073 224.748C71.5332 225.378 71.459 225.933 71.3849 226.488C68.7531 259.477 47.4023 417.09 47.4023 417.09C49.6264 419.756 65.6765 422.459 73.09 416.794C74.6839 415.572 90.0298 364.108 100.594 317.124C104.078 301.574 106.784 286.024 108.563 273.472C107.229 287.542 105.746 306.35 105.042 326.38C103.782 362.701 101.298 403.243 103.189 417.275C108.86 421.459 130.248 418.645 132.657 416.794C134.399 409.315 152.785 249.925 150.894 224.748H71.6073Z" fill="#D2D3FF"/>
<path d="M135.771 68.9867C139.478 55.9171 129.951 44.9208 118.757 42.3291C117.089 41.9589 113.382 42.5513 111.306 43.4399C109.601 43.4399 107.896 43.1807 106.228 43.5509C96.7761 45.7724 88.0652 53.6586 90.8824 68.5794C90.7341 87.5359 79.4286 108.084 82.9499 118.822C86.4713 129.559 135.474 130.891 139.292 119.377C143.926 105.567 135.326 90.9051 135.771 68.9867Z" fill="#9A2A2B"/>
<path d="M87.8795 115.156C87.7312 115.008 87.6942 114.786 87.8424 114.638C89.7699 112.379 89.8811 109.158 89.9553 106.048C90.4001 91.7939 96.0714 88.0544 94.8481 79.3907C94.8111 79.2056 94.9593 78.9835 95.1818 78.9835C95.3671 78.9464 95.5895 79.0945 95.5895 79.3167C96.8127 88.3136 91.1044 91.8309 90.6966 106.085C90.5854 109.306 90.5113 112.676 88.3984 115.119C88.2872 115.267 88.0278 115.304 87.8795 115.156Z" fill="#731717"/>
<path d="M133.473 117.859C136.809 105.937 127.95 92.7934 131.398 80.6494C131.546 80.1681 132.25 80.3902 132.102 80.8345C128.729 92.7564 137.588 105.9 134.178 118.044C134.066 118.525 133.362 118.34 133.473 117.859Z" fill="#731717"/>
<path d="M129.248 112.528C131.398 107.159 129.47 100.865 128.358 96.0887C128.247 95.6074 128.988 95.4593 129.099 95.9406C130.211 100.754 132.176 107.196 129.952 112.824C129.767 113.268 129.062 113.009 129.248 112.528Z" fill="#731717"/>
<path d="M173.357 146.257C172.69 145.812 168.983 145.405 165.647 155.254C162.311 165.139 160.495 173.544 161.199 173.47C165.536 172.877 174.025 146.664 173.357 146.257Z" fill="#600C47"/>
<path d="M154.417 118.933C158.939 120.858 168.539 148.441 182.254 154.365C190.631 157.993 213.502 153.995 213.502 153.995L217.394 159.363C217.394 159.363 193.671 173.062 182.365 169.545C156.344 161.437 142.963 146.22 142.963 146.22C142.963 146.22 147.782 127.855 154.417 118.933Z" fill="#FC9296"/>
<path d="M167.316 162.955C168.428 158.993 170.059 155.143 171.801 151.44C172.394 150.181 173.062 148.997 173.803 147.849C164.536 137.593 157.938 120.488 154.417 118.97C147.819 127.893 142.963 146.257 142.963 146.257C142.963 146.257 151.155 155.587 167.168 163.51C167.205 163.325 167.242 163.14 167.316 162.955Z" fill="#E6666C"/>
<path d="M161.237 173.47C160.533 170.434 170.43 147.738 173.395 146.257C164.536 135.927 157.864 120.414 154.417 118.97C147.819 127.893 142.963 146.257 142.963 146.257C142.963 146.257 149.005 160.326 161.237 173.47Z" fill="#BFC1FF"/>
<path d="M130.842 72.3937C130.842 72.3565 130.842 72.3565 130.879 72.3193C130.879 72.2821 130.879 72.2821 130.879 72.2449C130.879 72.3193 130.842 72.3565 130.842 72.3937Z" fill="#600C47"/>
<path d="M148.856 146.109C150.339 159.808 144 172.47 147.336 195.277C150.005 213.715 152.711 236.93 150.487 255.257C132.695 260.995 89.8819 260.995 67.5303 254.331C68.0863 230.302 74.2765 209.754 76.0558 191.982C78.4281 168.508 74.9067 156.364 73.3498 146.442C71.4594 137.704 68.1234 127.041 70.125 118.192C78.6505 111.75 96.4428 104.938 112.864 104.308C129.321 103.716 154.527 118.896 154.527 118.896C154.527 118.896 149.634 127.337 148.04 135.075C147.336 138.519 148.559 144.332 148.856 146.109Z" fill="#BFC1FF"/>
<path d="M76.0552 191.982C75.8328 194.351 75.4992 196.795 75.1285 199.238C75.8328 200.275 82.6161 213.493 103.3 220.268C118.534 225.23 124.984 232.486 135.659 238.003C131.137 232.56 126.986 226.785 122.723 221.157C109.749 204.903 97.6654 194.203 90.289 168.878C88.065 161.326 86.3228 151.773 84.9513 145.257C80.6515 145.516 76.9448 145.331 73.0527 145.072C77.056 162.918 77.612 176.839 76.0552 191.982Z" fill="#ABADFF"/>
<path d="M76.0552 191.982C75.8328 194.351 75.4992 196.795 75.1285 199.238C75.8328 200.275 82.6161 213.493 103.3 220.268C118.534 225.23 124.984 232.486 135.659 238.003C131.137 232.56 126.986 226.785 122.723 221.157C109.749 204.903 97.6654 194.203 90.289 168.878C88.065 161.326 86.3228 151.773 84.9513 145.257C80.6515 145.516 76.9448 145.331 73.0527 145.072C77.056 162.918 77.612 176.839 76.0552 191.982Z" fill="#ABADFF"/>
<path d="M129.47 190.501C129.322 190.501 129.174 190.427 129.063 190.316C128.84 190.094 128.877 189.723 129.1 189.538C133.511 185.392 139.367 178.838 142.296 171.211C142.407 170.915 142.74 170.767 143 170.878C143.296 170.989 143.445 171.322 143.333 171.581C140.294 179.394 134.326 186.058 129.841 190.279C129.73 190.427 129.619 190.501 129.47 190.501Z" fill="#7E81CC"/>
<path d="M121.203 149.441C123.464 149.515 137.92 121.487 128.135 106.9C127.653 106.751 126.949 106.566 126.244 106.381C125.355 106.159 124.687 105.382 124.613 104.456C124.28 100.716 123.835 92.0898 123.316 91.9787C119.461 91.0161 105.857 90.4237 102.373 91.0531C102.113 91.0901 101.669 100.124 101.483 103.938C101.446 104.937 100.705 105.789 99.7411 105.974C98.9998 106.122 98.1843 106.307 97.6283 106.418C97.5541 106.492 97.5171 106.566 97.48 106.677C92.4018 122.191 118.905 149.367 121.203 149.441Z" fill="#FC9296"/>
<path d="M102.151 127.004C108.712 138.445 119.202 148.848 121.093 149.441C121.13 149.441 121.204 149.478 121.241 149.478C121.278 149.478 121.315 149.478 121.389 149.441C121.426 149.441 121.426 149.441 121.463 149.404C121.501 149.404 121.501 149.367 121.538 149.367C123.428 148.256 129.47 137.001 131.138 125.338C125.949 127.152 107.341 128.004 102.151 127.004Z" fill="white"/>
<path d="M124.095 97.6066C123.947 95.8664 123.798 94.2373 123.65 93.2007L112.9 90.9792C108.527 90.7941 104.153 90.7941 102.41 91.0903C102.373 91.0903 102.336 91.2013 102.336 91.4235L102.151 93.719C102.04 95.9405 101.891 99.1246 101.78 101.642C115.125 105.53 124.095 97.6066 124.095 97.6066Z" fill="#E6666C"/>
<path d="M148.633 139.592H148.596C148.411 139.555 148.225 139.407 148.263 139.185C148.485 136.889 148.114 128.263 148.114 128.189C148.114 127.966 148.263 127.818 148.485 127.818C148.67 127.818 148.856 127.966 148.856 128.189C148.856 128.559 149.263 136.926 149.004 139.296C148.967 139.444 148.819 139.592 148.633 139.592Z" fill="#7E81CC"/>
<path d="M148.374 158.66C148.299 158.66 148.188 158.623 148.114 158.586C147.855 158.438 147.743 158.104 147.892 157.845C148.448 156.735 149.004 153.736 148.374 145.59C148.003 140.666 147.373 136.186 147.373 136.149C146.631 130.706 143.444 120.154 143.407 120.043C143.332 119.747 143.481 119.451 143.777 119.34C144.074 119.266 144.37 119.414 144.482 119.71C144.63 120.154 147.706 130.447 148.448 136.001C148.559 136.741 151.005 154.18 148.855 158.364C148.781 158.549 148.596 158.66 148.374 158.66Z" fill="#7E81CC"/>
<path d="M94.1071 71.0601C94.1442 75.9103 95.9605 84.2037 98.7035 88.2394C104.152 96.2367 109.231 99.3097 113.567 99.4578C117.608 99.6059 123.057 96.1256 128.246 88.1653C131.249 83.5743 133.398 74.7625 133.398 69.5421C133.398 55.8801 123.687 48.6233 113.753 48.6233C103.856 48.6233 93.9588 57.3981 94.1071 71.0601Z" fill="#FC9296"/>
<path d="M89.4006 75.3549C90.0678 78.6501 92.1806 82.5747 95.8874 81.2788C98.3338 80.4273 97.1847 77.7986 97.1847 74.4293C97.1847 71.0601 95.0719 68.3203 92.4401 68.3203C89.8454 68.3203 88.7334 71.8747 89.4006 75.3549Z" fill="#FC9296"/>
<path d="M94.7007 75.7992C94.4783 75.7992 94.2559 75.6511 94.1817 75.3919C93.4404 72.9854 91.7353 72.2449 91.6982 72.2078C91.4017 72.0968 91.2905 71.7635 91.4017 71.4674C91.5129 71.1712 91.8465 71.0601 92.143 71.1712C92.2172 71.2082 94.33 72.1338 95.2196 75.0217C95.2938 75.3179 95.1455 75.6141 94.8489 75.7252C94.7748 75.7992 94.7377 75.7992 94.7007 75.7992Z" fill="#E6666C"/>
<path d="M137.291 75.3549C136.624 78.6501 134.511 82.5747 130.804 81.2788C128.358 80.4273 129.507 77.7986 129.507 74.4293C129.507 71.0601 131.62 68.3203 134.252 68.3203C136.846 68.3203 137.995 71.8747 137.291 75.3549Z" fill="#FC9296"/>
<path d="M132.028 75.7993C131.991 75.7993 131.917 75.7993 131.88 75.7623C131.583 75.6882 131.435 75.355 131.509 75.0588C132.399 72.1709 134.512 71.2453 134.586 71.2083C134.882 71.0972 135.179 71.2083 135.327 71.5045C135.438 71.8007 135.327 72.0968 135.031 72.2449C134.956 72.282 133.288 73.0225 132.547 75.429C132.473 75.6512 132.25 75.7993 132.028 75.7993Z" fill="#E6666C"/>
<path d="M113.308 50.4746C113.308 50.4746 110.454 52.7331 105.079 55.4359C95.8863 60.0639 96.1458 70.5789 96.1458 70.5789C94.9596 69.283 93.7735 68.3944 92.4761 68.2834C92.4761 68.2834 91.6606 52.8072 98.8517 49.475C107.674 45.3653 112.455 47.5127 112.455 47.5127L113.308 50.4746Z" fill="#9A2A2B"/>
<path d="M112.456 47.5127L113.309 50.4747C113.309 50.4747 118.609 54.2882 123.057 56.6577C127.505 59.0273 128.729 61.9522 129.729 64.0626C130.73 66.173 130.953 71.2083 130.953 71.2083C132.028 69.7274 133.103 68.3204 134.4 67.9502C134.4 67.9502 136.179 52.9553 127.098 48.5124C116.533 43.3289 112.456 47.5127 112.456 47.5127Z" fill="#9A2A2B"/>
<path d="M91.4391 149.922C91.2538 149.922 91.0685 149.774 91.0685 149.552C90.809 129.411 84.1739 120.34 84.0998 120.266C83.9886 120.117 84.0257 119.858 84.1739 119.747C84.3222 119.636 84.5817 119.673 84.6929 119.821C84.767 119.895 91.5874 129.188 91.8098 149.552C91.8469 149.774 91.6615 149.922 91.4391 149.922C91.4762 149.922 91.4762 149.922 91.4391 149.922Z" fill="#7E81CC"/>
<path d="M112.752 50.4004C113.16 47.0682 110.899 43.773 110.862 43.736C110.454 43.1436 111.344 42.5142 111.789 43.1066C111.9 43.2547 114.346 46.772 113.865 50.5485C113.753 51.289 112.678 51.1409 112.752 50.4004Z" fill="#731717"/>
<path d="M96.1464 70.949C95.9611 70.949 95.7757 70.8009 95.7757 70.6158C95.0714 59.5084 102.188 50.0672 110.529 47.5496C110.825 47.4755 111.085 47.4015 111.344 47.3274C111.529 47.2904 111.752 47.4015 111.789 47.5866C111.826 47.7717 111.715 47.9938 111.529 48.0309C111.27 48.1049 111.01 48.1419 110.751 48.253C102.744 50.6596 95.8499 59.7676 96.5541 70.5417C96.5171 70.7639 96.3688 70.949 96.1464 70.949Z" fill="#731717"/>
<path d="M132.213 68.0611C131.991 68.0611 131.843 67.8759 131.843 67.6908C131.88 60.7673 127.839 54.9174 124.948 52.9551C120.834 50.1413 118.054 48.6233 115.941 47.9938C115.459 47.8457 115.681 47.1423 116.163 47.2904C118.387 47.9198 121.13 49.4378 125.393 52.3627C128.395 54.4361 132.621 60.5451 132.621 67.7279C132.584 68.0611 132.176 68.0611 132.213 68.0611Z" fill="#731717"/>
<path d="M122.204 154.587C122.167 154.587 122.167 154.587 122.204 154.587C119.35 154.513 110.083 146.183 102.855 135.927C98.2586 129.411 90.9934 117.044 94.1441 107.455C94.2553 107.159 94.5518 107.011 94.8484 107.085C95.1449 107.196 95.2932 107.492 95.219 107.788C92.2166 116.896 99.2964 128.892 103.782 135.26C111.047 145.553 119.98 153.402 122.241 153.476C123.205 153.217 127.764 147.034 131.211 138.148C133.954 131.077 137.624 117.896 131.397 108.677C131.211 108.418 131.286 108.084 131.545 107.899C131.804 107.714 132.138 107.788 132.323 108.047C139.366 118.525 134.918 134.927 128.394 146.775C127.912 147.589 124.02 154.587 122.204 154.587Z" fill="#7E81CC"/>
<path d="M116.31 110.121C116.978 109.676 117.904 109.158 118.535 109.121C119.572 109.084 124.465 109.528 124.651 109.528C125.133 109.565 125.058 110.306 124.576 110.269C124.539 110.269 119.535 109.825 118.572 109.862C118.201 109.862 117.497 110.195 116.718 110.713C116.31 111.009 115.903 110.38 116.31 110.121Z" fill="#E6666C"/>
<path d="M101.669 111.306C101.187 111.232 101.335 110.491 101.817 110.565C103.707 110.935 109.935 109.121 110.861 109.232C111.788 109.343 113.16 110.38 113.308 110.528C113.679 110.824 113.234 111.417 112.863 111.12C112.492 110.824 111.38 110.047 110.787 110.01C109.972 109.862 103.745 111.676 101.669 111.306Z" fill="#E6666C"/>
<path d="M202.456 97.9028C191.373 105.567 180.067 135.372 177.361 151.773C177.065 153.476 176.361 158.401 177.065 161.77C177.25 162.696 177.584 163.584 177.51 164.547C177.361 166.472 175.73 164.288 174.544 167.027C173.655 169.138 176.546 172.951 175.434 173.618C172.098 175.617 172.765 177.839 172.431 178.135C170.393 192.352 165.685 207.273 166.019 216.048C166.056 217.084 167.316 218.973 167.242 219.787C166.983 222.194 167.687 223.897 167.761 224.082C169.54 225.933 176.361 228.636 176.361 228.636C176.361 228.636 180.327 228.044 184.034 223.008C184.701 222.12 185.183 221.083 185.924 219.935C189.297 214.567 193.893 205.718 197.86 192.685C201.233 181.615 207.72 156.587 207.831 140.074C207.868 138.074 209.128 109.899 202.456 97.9028Z" fill="#FF6357"/>
<path d="M168.724 221.972C168.724 221.972 168.316 224.378 165.017 227.155C162.015 229.71 158.086 232.227 157.493 232.598C156.232 233.375 154.194 233.375 153.156 235.634C152.155 237.929 152.044 246.63 152.933 246.778C153.823 246.889 164.35 248.111 169.539 245.889C170.17 245.63 172.95 244.853 173.098 239.484C173.135 238.818 174.21 235.782 175.137 233.338C175.841 231.45 178.399 225.156 178.399 225.156C176.1 221.712 172.69 221.083 168.724 221.972Z" fill="#FC9296"/>
<path d="M215.28 191.315C215.429 189.538 204.902 224.563 203.085 241.483C200.972 261.069 203.196 317.346 204.976 337.599C208.015 372.254 221.878 427.605 221.878 427.605C221.878 427.605 224.807 430.012 235.593 427.605C237.298 425.495 246.899 326.899 246.899 326.899L250.568 270.14C250.568 270.14 254.016 319.013 255.128 330.083C256.388 342.412 267.842 426.531 267.842 426.531C271.067 429.012 279.11 429.308 282.52 427.309C282.52 427.309 292.38 385.36 297.347 336.969C298.311 327.528 301.314 274.509 295.679 238.559C293.011 221.527 281.186 187.909 281.186 187.909L215.28 191.315Z" fill="#600C47"/>
<path d="M252.422 79.2056C240.19 78.6502 207.015 90.9794 198.638 101.272C200.343 108.899 207.052 142.702 207.311 153.217C208.09 186.354 208.201 196.499 213.279 203.608C222.917 217.084 281.557 212.605 287.006 202.09C298.163 180.504 292.789 143.887 294.827 139.148C296.866 134.409 308.097 105.641 305.985 103.679C290.305 89.0911 267.694 79.872 252.422 79.2056Z" fill="#FFC75A"/>
<path d="M232.74 77.7985C232.74 77.7985 236.484 105.011 251.793 104.234C268.065 103.419 270.475 76.5767 270.475 76.5767L232.74 77.7985Z" fill="#E6666C"/>
<path d="M250.717 109.825C236.965 109.825 232.887 97.1995 231.701 89.5354C231.664 89.2022 231.887 88.906 232.22 88.832C232.554 88.7949 232.85 89.0171 232.925 89.3503C234.111 96.8292 238.114 109.269 251.866 108.603C259.279 108.233 268.657 104.53 271.178 89.0541C271.215 88.7209 271.549 88.4987 271.882 88.5358C272.216 88.5728 272.438 88.906 272.401 89.2392C271.215 96.6071 266.989 109.047 251.977 109.788C251.458 109.788 251.088 109.825 250.717 109.825Z" fill="#F2A105"/>
<path d="M226.735 149.811C220.656 149.811 219.766 149.071 219.507 148.33C218.395 145.405 219.025 138.704 219.618 132.78C219.692 131.891 219.766 131.04 219.84 130.225C219.877 129.929 220.137 129.67 220.433 129.67L235.594 129.411C235.779 129.411 235.927 129.485 236.039 129.596C236.15 129.707 236.224 129.892 236.187 130.04C235.816 136.112 235.668 140.851 235.52 144.998C235.446 147.553 233.37 149.626 230.812 149.737C229.218 149.811 227.884 149.811 226.735 149.811ZM220.989 130.892C220.915 131.558 220.878 132.224 220.804 132.928C220.248 138.704 219.618 145.294 220.656 147.96C220.767 148.108 221.842 148.885 230.812 148.552C232.74 148.478 234.296 146.923 234.334 144.998C234.482 140.962 234.63 136.408 234.964 130.632L220.989 130.892Z" fill="#F2A105"/>
<path d="M159.346 242.594C159.198 242.594 159.087 242.52 159.013 242.409C158.902 242.224 158.939 241.965 159.124 241.854C160.607 240.891 165.5 237.855 166.797 239.04C167.205 239.41 167.353 239.854 167.353 240.299C168.28 239.484 169.503 238.744 170.652 239.188C171.504 238.595 172.505 238.003 173.284 238.299C173.729 238.484 174.025 238.892 174.136 239.558C174.173 239.78 174.025 240.002 173.803 240.039C173.58 240.076 173.358 239.928 173.321 239.706C173.284 239.447 173.172 239.114 172.987 239.04C172.765 238.929 172.209 239.04 170.948 239.965C170.837 240.076 170.652 240.076 170.504 240.002C169.28 239.336 167.39 241.261 166.649 242.187C166.612 242.224 166.574 242.261 166.574 242.298C166.426 242.483 166.204 242.483 166.018 242.372C165.833 242.224 165.796 242.002 165.944 241.817C165.944 241.817 165.944 241.78 165.981 241.78C166.13 241.557 166.982 240.336 166.278 239.669C165.722 239.151 162.386 240.78 159.606 242.594C159.495 242.594 159.42 242.594 159.346 242.594Z" fill="#E6666C"/>
<path d="M306.726 104.789C299.164 93.3117 282.076 86.3881 270.029 82.3154C273.847 93.9781 272.809 122.265 273.439 131.447C275.367 158.03 276.442 254.405 276.442 254.405C290.824 252.368 300.499 243.557 302.611 239.41C313.769 217.825 300.573 146.886 302.611 142.147C304.687 137.408 312.583 113.712 306.726 104.789Z" fill="#FF6357"/>
<path d="M304.427 200.534C305.354 199.35 306.132 198.054 306.837 196.721C306.244 184.244 304.909 171.544 303.871 161.511C299.423 171.952 293.418 181.578 285.597 189.982C282.595 193.204 279.259 196.314 275.589 198.942C275.737 206.125 275.848 213.16 275.96 219.676C279.184 218.454 283.707 217.121 286.672 216.048C299.201 210.272 297.94 208.976 306.874 197.424L304.427 200.534Z" fill="#ED5044"/>
<path d="M276.442 254.997C276.109 254.997 275.849 254.738 275.849 254.405C275.849 253.664 275.219 198.905 274.107 160.807C274.033 160.807 273.922 160.807 273.848 160.77C273.551 160.622 273.403 160.289 273.514 159.993C273.625 159.697 273.811 159.215 274.033 158.586C273.699 147.219 273.292 137.519 272.847 131.484C272.661 128.929 272.624 124.857 272.55 120.117C272.402 107.751 272.18 90.8312 269.437 82.5007C269.362 82.2786 269.437 82.0194 269.622 81.8713C269.807 81.7232 270.067 81.6862 270.289 81.7972C278.296 85.907 284.523 94.7558 286.932 105.567C288.489 112.565 278.333 149.552 275.219 158.771C276.368 196.943 277.035 253.702 277.035 254.442C277.072 254.738 276.813 254.997 276.442 254.997C276.479 254.997 276.479 254.997 276.442 254.997ZM271.03 83.5744C273.403 92.4603 273.625 108.344 273.773 120.117C273.848 124.82 273.885 128.855 274.07 131.41C274.478 136.853 274.811 145.22 275.145 155.106C278.963 142.628 287.118 111.787 285.783 105.789C282.744 92.1641 274.848 85.8699 271.03 83.5744Z" fill="#DE4338"/>
<path d="M234.148 82.6858C219.21 87.2768 204.235 94.4225 198.638 101.272C200.343 108.899 204.643 132.891 204.124 143.443C202.641 174.432 193.559 227.155 197.785 238.966C199.898 244.89 215.021 253.59 227.142 254.22C227.142 254.22 223.473 159.993 224.918 133.298C225.919 114.453 228.736 101.235 234.148 82.6858Z" fill="#FF6357"/>
<path d="M227.105 254.775C226.771 254.775 226.512 254.516 226.512 254.183C226.475 253.479 224.436 200.757 224.028 163.251C223.769 163.288 223.472 163.14 223.398 162.844C216.986 144.739 212.612 116.822 213.131 104.9C213.427 99.4949 219.803 87.2768 233.925 82.0934C234.148 82.0194 234.37 82.0564 234.555 82.2045C234.704 82.3526 234.778 82.6118 234.741 82.7969C229.588 100.532 226.586 113.823 225.511 133.224C224.102 159.548 227.698 253.146 227.735 254.072C227.735 254.479 227.476 254.738 227.105 254.775C227.142 254.775 227.105 254.775 227.105 254.775ZM233.221 83.6855C226.289 86.4993 221.878 90.9052 219.321 94.1634C215.836 98.6433 214.465 102.79 214.354 104.975C213.835 116.489 217.949 142.999 224.028 160.955C223.917 149.367 223.991 139.444 224.325 133.224C225.326 114.12 228.217 100.902 233.221 83.6855Z" fill="#DE4338"/>
<path d="M227.772 66.7282C227.772 66.7282 225.919 57.1019 225.511 54.3991C225.104 51.7333 223.028 42.3291 227.142 36.1461C230.701 30.7405 237.929 26.1124 248.938 26.927C257.426 27.0751 268.991 28.5561 274.144 35.1834C279.704 42.3662 277.554 48.0309 277.257 51.289C276.961 54.5472 274.181 62.2112 273.551 63.2479C267.286 74.1331 227.772 66.7282 227.772 66.7282Z" fill="#DDDEE0"/>
<path d="M274.922 55.1027C274.922 55.1027 277.183 48.7715 279.815 50.6598C285.19 54.5844 280.482 67.8761 274.477 67.5799C272.883 67.5059 274.922 55.1027 274.922 55.1027Z" fill="#FC9296"/>
<path d="M226.512 58.3976C226.216 56.6205 225.141 49.6229 222.138 52.6589C217.727 57.0277 222.138 71.134 227.661 70.3565C229.774 70.0973 227.031 61.3596 226.512 58.3976Z" fill="#FC9296"/>
<path d="M229.218 42.1811C229.737 56.5096 225.845 72.9114 229.589 79.3166C233.37 85.7218 239.486 95.4963 250.754 95.9035C264.099 96.3848 273.44 83.7225 274.403 73.2446C274.959 67.2096 271.364 57.3611 272.105 41.8109C272.698 29.926 256.908 24.8907 250.754 25.0018C239.449 25.2239 228.885 33.4063 229.218 42.1811Z" fill="#FC9296"/>
<path d="M256.388 41.0703C256.351 41.0703 256.277 41.0703 256.24 41.0332C253.682 39.9595 246.12 40.8851 246.046 40.8851C245.824 40.9222 245.638 40.7741 245.601 40.5519C245.564 40.3298 245.713 40.1447 245.935 40.1076C246.269 40.0706 253.793 39.145 256.573 40.2928C256.796 40.3668 256.87 40.626 256.796 40.8111C256.684 40.9592 256.536 41.0703 256.388 41.0703Z" fill="#E6666C"/>
<path d="M258.613 38.2196C258.539 38.2196 258.502 38.2196 258.428 38.1826C254.869 36.3684 246.01 37.257 245.936 37.257C245.713 37.294 245.528 37.1089 245.491 36.8867C245.454 36.6646 245.639 36.4795 245.862 36.4424C246.232 36.4054 255.054 35.5168 258.798 37.4421C258.984 37.5532 259.058 37.7753 258.984 37.9975C258.909 38.1456 258.761 38.2196 258.613 38.2196Z" fill="#E6666C"/>
<path d="M274.144 58.3608C274.144 58.3608 273.069 54.7324 272.809 56.5096C271.734 64.0996 268.324 69.4311 264.247 70.1716C260.725 70.838 259.799 66.0248 250.384 66.5061C240.894 66.9504 238.67 73.3557 234.741 71.9487C232.517 71.1712 229.292 64.6549 228.477 58.3608C228.329 57.0649 227.328 60.5082 227.328 60.5082C226.883 68.4684 227.291 77.9467 228.885 80.6124C232.665 87.0177 239.523 95.4592 250.791 95.8665C264.136 96.3478 273.773 83.8336 274.7 73.3557C274.811 71.7266 274.922 64.0625 274.144 58.3608ZM250.828 84.1298C244.23 83.8706 241.932 74.1332 244.638 73.874C245.973 73.7259 248.79 74.7996 250.828 74.7626C257.426 74.6145 258.538 73.2816 259.502 73.6889C261.504 74.5404 259.02 84.463 250.828 84.1298Z" fill="#DDDEE0"/>
<path d="M247.677 54.4734C247.677 54.4734 248.53 59.4347 247.529 61.1008C246.528 62.8039 244.564 66.3212 245.12 68.0243C245.676 69.7274 246.788 71.0973 249.605 70.542C252.422 69.9866 255.573 67.1728 255.424 66.025L247.677 54.4734Z" fill="#FC9296"/>
<path d="M176.768 242.89H154.787C152.674 242.89 150.969 241.187 150.969 239.077C150.969 236.967 152.674 235.263 154.787 235.263H176.768C178.88 235.263 180.586 236.967 180.586 239.077C180.623 241.187 178.918 242.89 176.768 242.89Z" fill="#600C47"/>
<path d="M95.8128 439.972C87.0279 415.98 87.3244 417.164 87.3244 416.498V391.655C87.3244 385.286 88.5106 379.066 90.8088 373.142L138.033 251.554C140.664 244.779 146.447 239.632 153.49 237.781C154.565 237.485 155.677 238.151 155.936 239.225C156.233 240.299 155.565 241.41 154.49 241.669C148.708 243.187 143.926 247.408 141.776 252.998L94.5526 374.586C92.4397 380.066 91.3648 385.805 91.3648 391.655V416.165L99.5937 438.602C99.9644 439.638 99.4454 440.786 98.4076 441.193C97.3697 441.527 96.2206 441.008 95.8128 439.972Z" fill="#9E9FBF"/>
<path d="M236.891 242.89H215.725C213.612 242.89 211.907 241.187 211.907 239.077C211.907 236.967 213.612 235.263 215.725 235.263H236.891C239.003 235.263 240.709 236.967 240.709 239.077C240.709 241.187 239.003 242.89 236.891 242.89Z" fill="#600C47"/>
<path d="M153.713 439.934C145.15 415.054 145.447 416.313 145.447 415.683V391.655C145.447 385.286 146.633 379.066 148.931 373.142L196.155 251.591C199.046 244.149 205.718 238.707 213.613 237.411C214.725 237.226 215.763 237.966 215.949 239.077C216.134 240.188 215.393 241.224 214.281 241.41C207.794 242.483 202.308 246.963 199.936 253.072L152.675 374.586C150.562 380.066 149.487 385.805 149.487 391.655V415.35L157.531 438.602C157.901 439.638 157.345 440.786 156.27 441.156C155.232 441.526 154.083 440.971 153.713 439.934Z" fill="#9E9FBF"/>
<path d="M173.691 239.632C173.395 237.929 170.837 239.114 169.318 239.669C168.539 239.965 167.724 240.669 167.093 241.298C167.39 240.743 167.093 240.039 166.5 239.299C165.537 238.077 157.715 243.187 157.715 243.187C157.715 243.187 154.861 245.149 154.491 246.223C154.12 247.259 166.5 246.741 169.54 245.889C172.579 245.075 173.988 241.335 173.691 239.632Z" fill="#FC9296"/>
<path d="M160.421 247.074C160.199 247.074 160.051 246.926 160.014 246.704C159.976 246.482 160.162 246.297 160.384 246.26C163.127 246.037 166.204 241.261 166.241 241.224C166.352 241.039 166.612 240.965 166.797 241.113C166.982 241.224 167.056 241.483 166.908 241.669C166.76 241.891 163.572 246.815 160.421 247.074Z" fill="#E6666C"/>
<path d="M167.168 233.264C167.168 234.153 163.98 238.04 163.35 239.151C162.72 240.299 162.979 245.482 160.681 245.26C158.383 245.001 158.902 240.558 159.013 239.41C159.124 238.262 160.014 232.561 160.014 232.561L167.168 233.264Z" fill="#FC9296"/>
<path d="M167.167 232.857C166.945 232.857 166.759 233.042 166.759 233.264C166.759 233.708 165.24 235.819 164.387 236.93C162.719 239.188 162.793 238.966 162.46 241.039C162.2 242.705 161.866 245.001 160.68 244.853C158.975 244.668 159.198 241.187 159.383 239.447C159.494 238.337 160.05 234.042 160.05 234.005C160.087 233.783 159.939 233.597 159.717 233.56C159.494 233.523 159.309 233.671 159.272 233.894C159.272 233.931 158.716 238.188 158.605 239.373C158.345 241.743 158.234 245.371 160.606 245.63C162.571 245.852 162.978 243.113 163.275 241.15C163.386 240.41 163.497 239.632 163.646 239.336C164.313 238.151 167.538 234.338 167.538 233.227C167.575 233.042 167.389 232.857 167.167 232.857Z" fill="#E6666C"/>
<path d="M167.352 245.963C168.168 245.667 170.021 243.446 170.466 241.743C170.874 240.188 170.503 239.632 170.503 239.632C170.207 239.225 170.8 238.744 171.133 239.114C171.244 239.225 171.763 239.966 171.245 241.928C170.763 243.816 168.724 246.26 167.612 246.667C167.13 246.889 166.871 246.149 167.352 245.963Z" fill="#E6666C"/>
<path d="M240.709 226.6C240.709 226.6 238.188 230.969 238.188 232.079C238.188 233.19 237.929 238.818 237.447 240.373C237.225 241.113 234.852 248.037 232.628 248.407C230.997 248.666 222.472 249.147 222.286 245.815C220.433 245.445 218.988 245.963 218.691 244.334C218.061 240.632 219.469 235.041 219.469 235.041H215.726C215.726 235.041 219.432 228.377 225.511 226.155C226.994 225.6 234.593 219.491 234.593 219.491L240.709 226.6Z" fill="#FC9296"/>
<path d="M222.286 246.223C222.212 246.223 222.175 246.223 222.101 246.186C221.915 246.074 221.804 245.852 221.915 245.667C222.546 244.334 224.028 239.114 224.028 239.04C224.102 238.818 224.325 238.707 224.51 238.781C224.733 238.855 224.844 239.077 224.77 239.262C224.696 239.484 223.25 244.593 222.583 246C222.583 246.149 222.434 246.223 222.286 246.223Z" fill="#E6666C"/>
<path d="M218.914 240.447C218.914 240.447 218.877 240.447 218.914 240.447C218.691 240.447 218.506 240.262 218.506 240.04C218.58 238.485 219.136 234.486 219.173 234.301C219.21 234.079 219.395 233.931 219.618 233.968C219.84 234.005 219.989 234.19 219.951 234.412C219.951 234.449 219.358 238.559 219.284 240.077C219.284 240.262 219.099 240.447 218.914 240.447Z" fill="#E6666C"/>
<path d="M226.549 248.889C226.438 248.889 226.327 248.852 226.253 248.778C226.105 248.629 226.105 248.37 226.253 248.222C228.069 246.408 228.699 241.002 228.736 240.928C228.773 240.706 228.959 240.558 229.181 240.558C229.404 240.595 229.552 240.78 229.552 241.002C229.515 241.225 228.885 246.741 226.846 248.778C226.735 248.852 226.661 248.889 226.549 248.889Z" fill="#E6666C"/>
<path d="M230.516 249C230.405 249 230.293 248.963 230.219 248.851C230.071 248.703 230.071 248.444 230.256 248.296C231.776 246.926 232.258 242.854 232.258 242.817C232.295 242.594 232.48 242.446 232.703 242.446C232.925 242.483 233.073 242.668 233.073 242.891C233.036 243.076 232.592 247.296 230.812 248.889C230.701 248.963 230.627 249 230.516 249Z" fill="#E6666C"/>
<path d="M305.948 103.679C293.011 106.456 278.888 136.667 272.809 148.774C272.253 149.885 271.03 153.625 270.697 157.216C270.363 160.918 270.919 165.065 266.508 168.953C264.988 170.323 263.209 171.804 262.505 173.84C261.356 177.135 265.211 181.208 259.613 184.799C258.946 185.206 258.279 185.577 257.612 185.91C256.018 186.724 254.684 187.983 253.757 189.501C248.493 198.387 242.488 207.532 237.447 213.752C236.891 214.456 236.15 217.01 235.631 217.566C233.666 219.787 232.221 220.861 232.221 221.046C235.446 222.527 239.634 230.339 239.634 230.339C239.634 230.339 240.598 229.673 243.563 228.932C244.601 228.673 248.382 229.673 249.716 229.34C261.912 226.415 278.814 214.9 297.533 190.538C310.766 173.359 322.368 129.596 305.948 103.679Z" fill="#FF6357"/>
<path d="M201.64 173.173C201.603 173.173 201.603 173.173 201.566 173.173C201.233 173.136 201.01 172.84 201.047 172.507C201.084 172.285 203.383 152.07 203.123 139.851C198.193 131.595 195.376 112.527 195.265 111.713C195.228 111.38 195.45 111.084 195.784 111.047C196.117 111.009 196.414 111.232 196.451 111.565C196.488 111.75 199.379 131.41 204.235 139.37C204.272 139.444 204.309 139.555 204.309 139.666C204.569 151.921 202.233 172.433 202.233 172.618C202.233 172.951 201.974 173.173 201.64 173.173Z" fill="#DE4338"/>
<path d="M261.69 185.169C261.467 185.169 261.282 185.058 261.171 184.873C260.985 184.577 261.097 184.207 261.393 184.059C261.467 184.022 261.615 183.91 261.764 183.799C263.395 182.689 268.436 179.356 276.739 179.616C277.073 179.616 277.332 179.912 277.332 180.245C277.332 180.578 277.035 180.837 276.702 180.837C268.769 180.578 264.025 183.762 262.431 184.799C262.246 184.91 262.097 185.021 262.023 185.058C261.875 185.169 261.801 185.169 261.69 185.169Z" fill="#DE4338"/>
<path d="M264.395 179.246C264.284 179.246 264.135 179.208 264.024 179.134C263.765 178.949 263.691 178.542 263.913 178.283C264.024 178.135 266.767 174.469 272.624 171.878C272.92 171.73 273.291 171.878 273.439 172.174C273.587 172.47 273.439 172.84 273.143 172.988C267.583 175.432 264.951 178.949 264.914 178.986C264.765 179.171 264.58 179.246 264.395 179.246Z" fill="#DE4338"/>
<path d="M274.292 147.145C274.218 147.145 274.143 147.145 274.069 147.108C273.773 146.997 273.587 146.664 273.699 146.331C280.927 126.301 295.68 111.824 295.828 111.676C296.05 111.454 296.458 111.454 296.68 111.676C296.903 111.898 296.903 112.305 296.68 112.527C296.532 112.676 281.965 126.967 274.848 146.738C274.737 146.997 274.514 147.145 274.292 147.145Z" fill="#DE4338"/>
<path d="M203.753 140.296C203.679 140.296 203.605 140.296 203.531 140.259C198.489 138.408 191.817 127.597 191.521 127.115C191.335 126.819 191.447 126.449 191.706 126.301C192.003 126.116 192.373 126.227 192.522 126.486C192.596 126.597 199.268 137.408 203.901 139.111C204.198 139.222 204.383 139.592 204.272 139.889C204.198 140.148 203.975 140.296 203.753 140.296Z" fill="#DE4338"/>
<path d="M185.701 175.469C185.553 175.469 185.405 175.432 185.294 175.321C181.92 172.285 180.141 168.027 179.289 165.991L179.252 165.879C179.14 165.583 179.252 165.213 179.585 165.102C179.882 164.991 180.252 165.102 180.364 165.435L180.401 165.546C181.216 167.509 182.921 171.544 186.109 174.432C186.369 174.654 186.369 175.025 186.146 175.284C186.035 175.395 185.85 175.469 185.701 175.469Z" fill="#DE4338"/>
<path d="M186.257 181.356C186.183 181.356 186.146 181.356 186.072 181.319C182.773 180.208 178.362 175.58 177.509 174.21C177.324 173.914 177.398 173.544 177.695 173.358C177.991 173.173 178.362 173.247 178.547 173.544C179.363 174.839 183.625 179.171 186.48 180.134C186.813 180.245 186.961 180.578 186.85 180.911C186.739 181.208 186.517 181.356 186.257 181.356Z" fill="#DE4338"/>
<path d="M182.847 222.416C182.55 222.416 182.328 222.231 182.254 221.935C181.883 220.046 180.438 218.787 178.065 218.158C174.247 217.158 169.466 218.232 168.947 218.861C168.724 219.121 168.354 219.158 168.094 218.936C167.835 218.713 167.798 218.343 168.02 218.084C168.947 216.936 174.173 215.974 178.177 216.936C181.142 217.64 182.958 219.306 183.477 221.712C183.551 222.046 183.329 222.342 182.995 222.416C182.921 222.416 182.884 222.416 182.847 222.416Z" fill="#DE4338"/>
<path d="M281.52 209.346C281.335 209.346 281.113 209.235 281.001 209.087C280.816 208.791 280.89 208.421 281.187 208.236C291.195 201.756 302.982 179.69 303.094 179.468C303.242 179.171 303.613 179.023 303.909 179.171C304.206 179.319 304.354 179.69 304.206 179.986C304.169 180.06 301.388 185.836 297.348 192.352C291.936 201.127 286.228 206.421 281.891 209.235C281.743 209.309 281.632 209.346 281.52 209.346Z" fill="#DE4338"/>
<path d="M250.643 270.77C250.495 270.77 250.384 270.733 250.272 270.622C247.307 268.178 243.341 252.702 242.896 250.962C242.822 250.629 243.007 250.295 243.341 250.221C243.675 250.147 244.008 250.332 244.082 250.666C245.268 255.331 248.827 267.845 251.088 269.696C251.347 269.918 251.385 270.289 251.162 270.548C250.977 270.696 250.791 270.77 250.643 270.77Z" fill="#801D63"/>
<path d="M251.57 75.8734C249.05 75.8734 244.713 74.9478 244.194 74.2813C244.046 74.1332 244.009 73.9111 244.046 73.726C244.12 73.3927 244.453 73.2076 244.787 73.2817C244.935 73.3187 245.046 73.3927 245.121 73.5038C245.751 73.8 249.087 74.7256 251.681 74.6886C254.869 74.6516 259.243 73.1336 259.28 73.0965C259.614 72.9855 259.948 73.1706 260.059 73.4668C260.17 73.8 259.985 74.1332 259.688 74.2443C259.503 74.3184 255.092 75.8364 251.719 75.8734C251.681 75.8734 251.607 75.8734 251.57 75.8734Z" fill="#E6666C"/>
<path d="M275.737 60.7302C275.7 60.7302 275.663 60.7302 275.626 60.7302C275.292 60.6561 275.07 60.36 275.144 60.0267C275.848 55.9911 278.184 54.436 278.295 54.399C278.591 54.2139 278.962 54.2879 279.147 54.5841C279.333 54.8803 279.259 55.2506 278.962 55.4357C278.888 55.4727 276.96 56.7686 276.367 60.2489C276.293 60.508 276.034 60.7302 275.737 60.7302Z" fill="#E6666C"/>
<path d="M226.067 61.9892C225.771 61.9892 225.474 61.767 225.474 61.4338C225.252 58.8051 222.62 56.8058 222.583 56.7687C222.323 56.5836 222.249 56.1763 222.472 55.9172C222.657 55.658 223.065 55.584 223.324 55.8061C223.435 55.9172 226.401 58.1757 226.697 61.3227C226.734 61.656 226.475 61.9522 226.141 61.9892C226.104 61.9892 226.067 61.9892 226.067 61.9892Z" fill="#E6666C"/>
<path d="M274.292 147.145C274.218 147.145 274.181 147.145 274.106 147.108C273.773 146.997 273.625 146.664 273.736 146.331C275.997 139.518 281.372 133.891 285.486 130.336C289.712 126.708 294.197 123.968 295.049 123.968C295.383 123.968 295.643 124.227 295.643 124.56C295.643 124.894 295.383 125.153 295.086 125.153C293.493 125.523 278.888 134.668 274.848 146.701C274.774 146.997 274.514 147.145 274.292 147.145Z" fill="#DE4338"/>
<path d="M98.8518 168.915C98.8518 168.915 84.6179 167.212 81.1336 167.842C77.6864 168.471 68.4566 169.027 69.3462 170.952C70.2358 172.877 79.2803 173.025 84.2102 172.396C89.1772 171.803 98.8518 168.915 98.8518 168.915Z" fill="#600C47"/>
<path d="M152.007 238.521C151.636 238.188 148.67 236.892 147.744 236.041C147.299 235.633 145.334 233.671 144.593 232.783C144.334 232.449 143.444 231.783 142.517 231.154C141.035 229.598 138.699 228.34 138.477 228.006C138.217 227.599 134.77 225.044 134.77 225.044L109.898 195.314L102.855 187.724L91.3644 143.48L69.124 150.514C69.124 150.514 85.2483 188.279 89.4369 193.092C90.8455 194.722 95.2194 201.053 101.187 206.236C113.234 216.788 127.357 229.71 127.357 229.71L129.136 232.19C129.136 232.19 131.545 239.743 131.545 240.113C131.545 240.484 133.399 245.704 134.177 246.852C134.956 247.963 136.549 249.703 137.661 249.703C138.811 249.703 136.216 246.741 136.216 246.741L134.993 242.113C134.993 242.113 136.92 245.852 137.365 247.037C137.81 248.185 140.627 251.443 141.665 251.295C141.961 251.258 141.961 250.999 141.85 250.628C142.703 251.998 143.481 252.961 144.074 252.887C145.297 252.702 141.813 243.927 141.442 241.002C141.294 239.706 142.035 240.78 142.035 240.78C142.035 240.78 146.743 250.332 147.67 250.48C148.596 250.665 147.818 247.518 147.373 246.704C147.04 246.037 146.113 242.52 145.557 241.224C145.297 240.669 145.038 239.41 144.778 238.04C145.557 238.521 146.224 238.929 146.446 239.04C147.04 239.336 148.967 239.78 150.339 239.706C151.413 239.632 152.377 238.855 152.007 238.521ZM140.071 247.296C139.997 247.148 139.923 246.889 139.811 246.593C140.071 247.148 140.33 247.703 140.59 248.259C140.33 247.852 140.145 247.518 140.071 247.296Z" fill="#FC9296"/>
<path d="M91.4756 173.507C93.9591 173.173 96.4426 172.877 98.9261 172.618L91.3644 143.48L69.124 150.514C69.124 150.514 74.8324 163.88 80.3554 175.728C83.988 174.728 87.7318 174.025 91.4756 173.507Z" fill="#E6666C"/>
<path d="M69.3836 170.952C76.4264 167.805 90.4007 168.767 98.8521 168.916C97.4435 157.29 91.2533 140.962 88.7327 135.149C80.7632 116.711 75.7221 113.712 70.5697 117.859C65.4915 121.932 66.1216 132.484 66.863 146.627C67.1225 151.255 67.9009 160.215 69.3836 170.952Z" fill="#BFC1FF"/>
<path d="M70.0508 171.359C69.9025 171.359 69.7172 171.285 69.606 171.137C69.4206 170.915 69.4577 170.544 69.6801 170.359C73.9428 166.916 94.0704 168.027 98.1849 168.323C96.628 159.363 88.2879 135.556 88.2138 135.334C86.138 129.521 83.2097 125.782 81.0968 123.672C78.8357 121.376 77.0194 120.45 76.9824 120.45C76.7229 120.302 76.6117 119.969 76.7229 119.71C76.8712 119.451 77.2048 119.34 77.4642 119.451C77.7608 119.599 85.1372 123.375 89.2146 134.927C89.2887 135.186 98.1107 160.363 99.334 168.804C99.371 168.989 99.2969 169.138 99.1857 169.249C99.0745 169.36 98.9262 169.434 98.7409 169.434C98.6667 169.434 92.6248 168.989 86.0639 168.989C75.2773 169.026 71.5335 170.211 70.3103 171.174C70.2732 171.322 70.162 171.359 70.0508 171.359Z" fill="#7E81CC"/>
<path d="M138.588 241.187L139.366 243.557C139.626 244.371 139.885 245.149 140.108 245.963C140.145 246.074 140.145 246.185 140.182 246.296L140.219 246.445L140.256 246.556C140.33 246.741 140.404 246.926 140.478 247.111C140.627 247.481 140.812 247.851 140.997 248.222C141.368 248.962 141.776 249.703 142.183 250.406C142.258 250.517 142.22 250.665 142.109 250.739C141.998 250.813 141.85 250.776 141.776 250.665C141.331 249.962 140.923 249.221 140.515 248.481C140.33 248.111 140.108 247.74 139.959 247.333C139.885 247.148 139.774 246.926 139.7 246.741L139.663 246.556L139.626 246.408C139.589 246.333 139.589 246.222 139.552 246.111C139.329 245.334 139.033 244.519 138.773 243.742L137.921 241.372C137.847 241.187 137.958 240.965 138.143 240.891C138.328 240.891 138.514 240.965 138.588 241.187Z" fill="#E6666C"/>
<path d="M135.253 242.224C135.475 243.039 135.697 243.89 135.92 244.705C136.142 245.519 136.365 246.371 136.661 247.148C136.698 247.296 136.624 247.444 136.513 247.481C136.365 247.518 136.216 247.481 136.179 247.333C135.846 246.519 135.586 245.704 135.327 244.89C135.067 244.075 134.808 243.261 134.548 242.446C134.474 242.261 134.585 242.039 134.808 242.002C134.993 241.891 135.215 242.002 135.253 242.224Z" fill="#E6666C"/>
<path d="M93.9594 195.573C93.8482 195.573 93.7741 195.536 93.6999 195.499C91.4759 194.203 90.5492 192.056 90.1785 191.13C90.1415 191.019 90.0673 190.908 90.0673 190.834C89.9191 190.575 90.0303 190.242 90.3268 190.094C90.5863 189.946 90.9199 190.057 91.0682 190.353C91.1052 190.427 91.1794 190.575 91.2164 190.723C91.5871 191.612 92.3655 193.463 94.256 194.574C94.5154 194.722 94.6266 195.055 94.4413 195.314C94.3301 195.462 94.1448 195.573 93.9594 195.573Z" fill="#E6666C"/>
</g>
</svg>
