<svg width="649" height="368" viewBox="0 0 649 368" fill="none" xmlns="http://www.w3.org/2000/svg">
<g clip-path="url(#clip0)">
<path d="M557.083 207.741C560.845 198.646 562.914 188.673 562.914 178.198C562.914 136.8 530.436 102.992 489.618 100.86C462.156 41.3349 402.028 0 332.181 0C244.966 0 172.862 64.4172 160.698 148.279C77.4962 155.304 12.1636 225.053 12.1636 310.043C12.1636 330.491 15.9255 349.998 22.8224 368H643.169C646.931 355.957 649 343.161 649 329.864C649 271.907 610.126 222.983 557.083 207.741Z" fill="#56B1DA"/>
<path d="M330.613 318.323C414.309 318.323 482.157 250.448 482.157 166.72C482.157 82.9915 414.309 15.1165 330.613 15.1165C246.918 15.1165 179.069 82.9915 179.069 166.72C179.069 250.448 246.918 318.323 330.613 318.323Z" fill="#489FC7"/>
<path d="M321.208 95.1519V196.325" stroke="#3B3E54" stroke-width="2" stroke-miterlimit="10" stroke-linecap="round" stroke-linejoin="round"/>
<path d="M325.033 99.9812C321.522 103.494 321.208 109.013 321.208 109.013L333.999 96.2178C334.062 96.155 328.544 96.4059 325.033 99.9812Z" fill="#6DEEF2"/>
<path d="M334.062 96.1553L321.271 108.951C321.271 108.951 326.726 108.7 330.3 105.125C333.748 101.612 334.062 96.1553 334.062 96.1553Z" fill="#49E1E6"/>
<path d="M317.509 90.6985C317.509 95.7163 321.208 99.7307 321.208 99.7307V81.6035C321.208 81.6035 317.509 85.6806 317.509 90.6985Z" fill="#6DEEF2"/>
<path d="M321.208 81.6035V99.7307C321.208 99.7307 324.908 95.6536 324.908 90.6985C324.908 85.6806 321.208 81.6035 321.208 81.6035Z" fill="#49E1E6"/>
<path d="M325.033 112.777C321.522 116.289 321.208 121.809 321.208 121.809L333.999 109.014C334.062 108.951 328.544 109.264 325.033 112.777Z" fill="#6DEEF2"/>
<path d="M334.062 108.951L321.271 121.747C321.271 121.747 326.726 121.496 330.3 117.92C333.748 114.471 334.062 108.951 334.062 108.951Z" fill="#49E1E6"/>
<path d="M325.033 125.573C321.522 129.085 321.208 134.605 321.208 134.605L333.999 121.809C334.062 121.809 328.544 122.06 325.033 125.573Z" fill="#6DEEF2"/>
<path d="M334.062 121.809L321.271 134.605C321.271 134.605 326.726 134.354 330.3 130.779C333.873 127.204 334.062 121.809 334.062 121.809Z" fill="#49E1E6"/>
<path d="M325.033 138.431C321.522 141.943 321.208 147.463 321.208 147.463L333.999 134.667C334.062 134.605 328.544 134.856 325.033 138.431Z" fill="#6DEEF2"/>
<path d="M334.062 134.605L321.208 147.401C321.208 147.401 326.663 147.15 330.237 143.574C333.811 139.999 334.062 134.605 334.062 134.605Z" fill="#49E1E6"/>
<path d="M325.033 151.227C321.522 154.739 321.208 160.259 321.208 160.259L333.999 147.463C334.062 147.401 328.544 147.714 325.033 151.227Z" fill="#6DEEF2"/>
<path d="M334.062 147.401L321.271 160.196C321.271 160.196 326.726 159.945 330.3 156.37C333.873 152.795 334.062 147.401 334.062 147.401Z" fill="#49E1E6"/>
<path d="M325.033 164.022C321.522 167.535 321.208 173.055 321.208 173.055L333.999 160.259C334.062 160.259 328.544 160.51 325.033 164.022Z" fill="#6DEEF2"/>
<path d="M334.062 160.259L321.271 173.055C321.271 173.055 326.726 172.804 330.3 169.229C333.748 165.716 334.062 160.259 334.062 160.259Z" fill="#49E1E6"/>
<path d="M317.446 99.9812C320.957 103.494 321.271 109.013 321.271 109.013L308.48 96.2178C308.418 96.155 313.872 96.4059 317.446 99.9812Z" fill="#6DEEF2"/>
<path d="M308.418 96.1553L321.208 108.951C321.208 108.951 315.754 108.7 312.18 105.125C308.669 101.612 308.418 96.1553 308.418 96.1553Z" fill="#49E1E6"/>
<path d="M317.446 112.777C320.957 116.289 321.271 121.809 321.271 121.809L308.48 109.014C308.418 108.951 313.872 109.264 317.446 112.777Z" fill="#6DEEF2"/>
<path d="M308.418 108.951L321.208 121.747C321.208 121.747 315.754 121.496 312.18 117.92C308.669 114.471 308.418 108.951 308.418 108.951Z" fill="#49E1E6"/>
<path d="M317.446 125.573C320.957 129.085 321.271 134.605 321.271 134.605L308.48 121.809C308.418 121.809 313.872 122.06 317.446 125.573Z" fill="#6DEEF2"/>
<path d="M308.418 121.809L321.208 134.605C321.208 134.605 315.754 134.354 312.18 130.779C308.606 127.204 308.418 121.809 308.418 121.809Z" fill="#49E1E6"/>
<path d="M317.446 138.431C320.957 141.943 321.271 147.463 321.271 147.463L308.48 134.667C308.418 134.605 313.872 134.856 317.446 138.431Z" fill="#6DEEF2"/>
<path d="M308.418 134.605L321.208 147.401C321.208 147.401 315.754 147.15 312.18 143.574C308.606 139.999 308.418 134.605 308.418 134.605Z" fill="#49E1E6"/>
<path d="M317.446 151.227C320.958 154.739 321.271 160.259 321.271 160.259L308.418 147.401C308.418 147.401 313.873 147.714 317.446 151.227Z" fill="#6DEEF2"/>
<path d="M308.418 147.401L321.208 160.196C321.208 160.196 315.754 159.945 312.18 156.37C308.606 152.795 308.418 147.401 308.418 147.401Z" fill="#49E1E6"/>
<path d="M317.446 164.022C320.957 167.535 321.271 173.055 321.271 173.055L308.48 160.259C308.418 160.259 313.872 160.51 317.446 164.022Z" fill="#6DEEF2"/>
<path d="M308.418 160.259L321.208 173.055C321.208 173.055 315.754 172.804 312.18 169.229C308.669 165.716 308.418 160.259 308.418 160.259Z" fill="#49E1E6"/>
<path d="M286.222 166.092C286.285 166.092 286.41 166.092 286.473 166.092C287.225 165.967 287.664 165.214 287.539 164.524L285.595 155.053C285.47 154.3 284.717 153.861 284.028 153.987C283.275 154.112 282.836 154.865 282.962 155.555L284.905 165.026C285.031 165.653 285.595 166.092 286.222 166.092Z" fill="white"/>
<path d="M287.915 164.273C287.915 164.273 288.73 167.723 287.915 167.849C287.1 167.974 275.124 168.288 275.062 167.723C274.811 165.841 284.592 164.085 285.595 164.273C286.473 164.461 287.79 163.772 287.915 164.273Z" fill="#FE5E5A"/>
<path d="M228.163 42.0875C228.163 42.0875 221.454 40.3939 220.701 38.8258C219.949 37.2578 226.532 38.1359 229.542 41.0839L228.163 42.0875Z" fill="white"/>
<path d="M226.156 42.025C226.846 41.0841 227.41 40.1432 228.162 39.2024C244.652 50.4299 243.461 50.6181 264.277 49.6773C267.475 49.5518 266.848 51.1826 266.785 53.1898C267.161 53.3152 267.224 53.3152 266.785 53.1898C266.722 55.1969 265.594 55.3851 263.023 55.4478C246.282 55.8869 238.132 54.0679 226.156 42.025Z" fill="white"/>
<path d="M262.772 166.092C262.835 166.092 262.96 166.092 263.023 166.092C263.776 165.967 264.214 165.214 264.089 164.524L262.145 155.053C262.02 154.3 261.268 153.861 260.578 153.987C259.825 154.112 259.387 154.865 259.512 155.555L261.456 165.026C261.581 165.653 262.145 166.092 262.772 166.092Z" fill="white"/>
<path d="M259.826 160.573C261.268 160.51 262.71 160.385 264.089 160.196C259.826 137.428 256.628 106.819 267.977 85.5552C264.528 83.8617 261.017 82.2309 257.569 80.5374C249.292 99.1036 256.377 141.003 259.826 160.573Z" fill="#292B3B"/>
<path d="M283.4 159.945C284.843 159.506 286.222 159.067 287.601 158.503C276.942 137.678 269.168 104.874 270.986 81.1644C267.099 80.9762 263.211 80.8508 259.324 80.7253C260.829 104.435 274.184 138.557 283.4 159.945Z" fill="#3B3E54"/>
<path d="M264.465 164.273C264.465 164.273 265.28 167.723 264.465 167.849C263.65 167.974 251.675 168.288 251.612 167.723C251.361 165.841 261.142 164.085 262.145 164.273C263.086 164.461 264.34 163.772 264.465 164.273Z" fill="#FE5E5A"/>
<path d="M252.866 131.971C255.123 131.218 260.515 132.41 262.772 131.971C266.095 131.281 276.88 131.782 280.203 131.971C280.642 121.684 272.052 66.9261 272.804 56.8276C272.992 54.695 273.055 53.4405 272.679 51.8724C272.115 49.7398 271.049 48.2344 269.607 47.4818C267.851 46.4782 265.531 46.6036 263.274 47.7327C262.96 47.8581 262.584 48.109 262.271 48.3599C260.891 49.4262 259.637 51.4334 259.449 55.2595C258.885 64.7935 250.671 90.6984 252.866 131.971Z" fill="white"/>
<path d="M262.208 48.2974L262.396 54.7579L262.647 62.8493L266.033 55.3224L269.544 47.4193C267.788 46.4157 265.468 46.5411 263.211 47.6702C262.835 47.8583 262.522 48.0465 262.208 48.2974Z" fill="#49E1E6"/>
<path d="M269.042 41.2096C266.848 44.5966 262.647 45.8511 260.578 44.4712C258.509 43.0913 259.261 39.7042 261.518 36.3171C263.713 32.93 266.534 32.2401 268.666 33.62C270.673 34.9372 271.237 37.7598 269.042 41.2096Z" fill="white"/>
<path d="M269.795 43.342C269.293 44.1574 267.851 44.6592 267.287 44.2828C266.722 43.9065 266.973 43.1538 267.475 42.4011C267.976 41.5857 268.917 41.1466 269.544 41.523C270.108 41.8993 270.296 42.5893 269.795 43.342Z" fill="white"/>
<path d="M268.541 40.6449L264.277 40.2058C264.215 40.7703 263.776 46.3527 263.964 48.4226C264.089 49.0499 265.155 49.3635 266.346 49.1126C267.412 48.8617 268.102 48.2344 268.165 47.6699C268.039 46.3527 268.353 42.652 268.541 40.6449Z" fill="white"/>
<path d="M270.924 39.3278C270.924 39.3278 271.613 36.6934 270.422 34.7489C269.231 32.8672 265.845 30.8601 263.149 33.4317C263.149 33.4317 261.393 35.4389 263.964 37.3206C266.535 39.2023 266.848 37.446 267.475 39.5787C268.102 41.7113 269.858 41.3349 269.92 41.8367L270.924 39.3278Z" fill="#1A1C2E"/>
<path d="M262.396 54.7579L262.647 62.8492L265.97 55.3224L265.845 50.4299H264.34L262.396 54.7579Z" fill="#3B3E54"/>
<path d="M314.499 138.808H281.645V151.478H314.499V138.808Z" fill="#FF8B87"/>
<path d="M314.499 157.499H281.645V170.169H314.499V157.499Z" fill="#3D7E9C"/>
<path d="M323.528 310.169H313.183V202.033C313.183 189.363 302.9 179.076 290.235 179.076H281.582V168.727H290.297C308.606 168.727 323.528 183.655 323.528 201.97V310.169Z" fill="#3D7E9C"/>
<path d="M258.446 252.275C270.484 252.275 282.585 247.696 291.74 238.476C310.11 220.098 310.11 190.241 291.74 171.8C290.486 170.546 289.545 169.103 288.855 167.535C288.166 165.904 287.789 164.148 287.789 162.329C287.789 160.51 288.166 158.754 288.855 157.123C289.545 155.555 290.486 154.112 291.74 152.858C310.11 134.48 310.11 104.623 291.74 86.1824C273.369 67.7416 243.524 67.7416 225.09 86.1824C215.246 96.03 207.472 107.571 202.017 120.43C196.374 133.727 193.552 147.84 193.552 162.392C193.552 176.944 196.437 191.056 202.017 204.354C207.472 217.212 215.184 228.691 225.09 238.601C234.307 247.696 246.345 252.275 258.446 252.275Z" fill="#FF8B87"/>
<path d="M346.688 151.426H379.542V138.756H346.688V151.426Z" fill="#FF8B87"/>
<path d="M346.688 170.08H379.542V157.41H346.688V170.08Z" fill="#3D7E9C"/>
<path d="M337.635 310.169H347.981V202.033C347.981 189.363 358.264 179.076 370.929 179.076H379.581V168.727H370.929C352.621 168.727 337.698 183.655 337.698 201.97V310.169H337.635Z" fill="#3D7E9C"/>
<path d="M402.717 252.275C390.679 252.275 378.578 247.696 369.424 238.475C351.053 220.097 351.053 190.241 369.424 171.8C370.678 170.546 371.618 169.103 372.308 167.535C372.998 165.904 373.374 164.148 373.374 162.329C373.374 160.51 372.998 158.754 372.308 157.123C371.618 155.555 370.678 154.112 369.424 152.858C351.053 134.479 351.053 104.623 369.424 86.1822C387.795 67.8042 417.64 67.8042 436.073 86.1822C445.917 96.0298 453.692 107.571 459.147 120.429C464.79 133.727 467.611 147.84 467.611 162.392C467.611 176.943 464.727 191.056 459.147 204.354C453.692 217.212 445.98 228.69 436.073 238.601C426.856 247.696 414.818 252.275 402.717 252.275Z" fill="#FF8B87"/>
<path d="M246.596 249.327V307.283" stroke="#3B3E54" stroke-width="2" stroke-miterlimit="10" stroke-linecap="round" stroke-linejoin="round"/>
<path d="M250.421 254.156C246.91 257.669 246.596 263.188 246.596 263.188L259.387 250.393C259.45 250.33 253.932 250.581 250.421 254.156Z" fill="#6DEEF2"/>
<path d="M259.45 250.33L246.659 263.126C246.659 263.126 252.114 262.875 255.688 259.3C259.199 255.85 259.45 250.33 259.45 250.33Z" fill="#49E1E6"/>
<path d="M242.96 244.873C242.96 249.891 246.659 253.906 246.659 253.906V235.841C246.596 235.841 242.96 239.855 242.96 244.873Z" fill="#6DEEF2"/>
<path d="M246.596 235.841V253.968C246.596 253.968 250.296 249.891 250.296 244.936C250.296 239.855 246.596 235.841 246.596 235.841Z" fill="#49E1E6"/>
<path d="M250.421 266.952C246.91 270.464 246.596 275.984 246.596 275.984L259.387 263.188C259.45 263.188 253.932 263.439 250.421 266.952Z" fill="#6DEEF2"/>
<path d="M259.45 263.188L246.596 275.984C246.596 275.984 252.051 275.733 255.625 272.158C259.199 268.645 259.45 263.188 259.45 263.188Z" fill="#49E1E6"/>
<path d="M242.834 254.156C246.345 257.669 246.659 263.188 246.659 263.188L233.868 250.393C233.806 250.33 239.26 250.581 242.834 254.156Z" fill="#6DEEF2"/>
<path d="M233.806 250.33L246.596 263.126C246.596 263.126 241.141 262.875 237.568 259.3C234.056 255.85 233.806 250.33 233.806 250.33Z" fill="#49E1E6"/>
<path d="M242.834 266.952C246.345 270.464 246.659 275.984 246.659 275.984L233.868 263.188C233.806 263.188 239.26 263.439 242.834 266.952Z" fill="#6DEEF2"/>
<path d="M233.806 263.188L246.596 275.984C246.596 275.984 241.141 275.733 237.568 272.158C234.056 268.645 233.806 263.188 233.806 263.188Z" fill="#49E1E6"/>
<path d="M41.5069 52.0608C21.7566 52.0608 5.14134 65.2955 0 83.3599H83.0138C77.8725 65.2955 61.2572 52.0608 41.5069 52.0608Z" fill="#9FDDDF"/>
<path d="M154.742 52.0608C134.992 52.0608 118.376 65.2955 113.235 83.3599H196.249C191.107 65.2955 174.492 52.0608 154.742 52.0608Z" fill="#9FDDDF"/>
<path d="M100.82 38.7004C72.6684 38.7004 48.9053 57.5803 41.5068 83.4225H160.071C152.735 57.5803 128.972 38.7004 100.82 38.7004Z" fill="#9FDDDF"/>
<path d="M47.6513 70.5012C33.6694 70.5012 21.9446 79.847 18.2454 92.6427H76.9946C73.358 79.847 61.5705 70.5012 47.6513 70.5012Z" fill="white"/>
<path d="M127.781 70.5012C113.799 70.5012 102.074 79.847 98.375 92.6427H157.124C153.488 79.847 141.763 70.5012 127.781 70.5012Z" fill="white"/>
<path d="M89.5972 60.9673C69.6588 60.9673 52.8554 74.3274 47.6514 92.6428H131.543C126.339 74.3902 109.536 60.9673 89.5972 60.9673Z" fill="white"/>
<path d="M465.103 88.6287C442.719 88.6287 423.91 103.62 418.016 124.13H512.127C506.296 103.62 487.487 88.6287 465.103 88.6287Z" fill="#9FDDDF"/>
<path d="M593.511 88.6287C571.128 88.6287 552.318 103.62 546.424 124.13H640.536C634.705 103.62 615.832 88.6287 593.511 88.6287Z" fill="#9FDDDF"/>
<path d="M532.317 73.3867C500.403 73.3867 473.442 94.8382 465.103 124.067H599.53C591.191 94.8382 564.293 73.3867 532.317 73.3867Z" fill="#9FDDDF"/>
<path d="M385.663 19.9463C371.932 19.9463 360.395 29.1667 356.821 41.7114H414.505C410.931 29.1667 399.331 19.9463 385.663 19.9463Z" fill="#9FDDDF"/>
<path d="M464.35 19.9463C450.619 19.9463 439.083 29.1667 435.509 41.7114H493.192C489.618 29.1667 478.082 19.9463 464.35 19.9463Z" fill="#9FDDDF"/>
<path d="M426.856 10.6631C407.294 10.6631 390.741 23.7723 385.663 41.774H468.112C462.971 23.7723 446.418 10.6631 426.856 10.6631Z" fill="#9FDDDF"/>
<path d="M329.485 40.5195C319.327 40.5195 310.8 47.2937 308.167 56.6395H350.865C348.169 47.3564 339.579 40.5195 329.485 40.5195Z" fill="white"/>
<path d="M387.67 40.5195C377.513 40.5195 368.985 47.2937 366.352 56.6395H409.05C406.354 47.3564 397.827 40.5195 387.67 40.5195Z" fill="white"/>
<path d="M359.956 33.6826C345.473 33.6826 333.247 43.4048 329.485 56.7022H390.428C386.666 43.3421 374.44 33.6826 359.956 33.6826Z" fill="white"/>
<path d="M285.595 92.7683C285.595 92.7683 284.028 99.8561 285.219 101.299C286.347 102.741 288.605 96.0926 287.225 91.9529L285.595 92.7683Z" fill="white"/>
<path d="M284.717 93.6465C285.846 93.5211 286.912 93.3956 288.04 93.2075C285.219 74.6413 284.529 69.1216 273.996 53.5034C272.366 51.1198 271.739 51.308 269.858 52.9388C269.419 52.7507 269.481 52.6879 269.858 52.9388C267.977 54.5697 268.29 55.0714 270.046 57.4549C281.582 73.0104 279.639 75.4567 284.717 93.6465Z" fill="white"/>
<path d="M199.948 48.7363C199.948 54.6951 204.776 59.5248 210.732 59.5248C216.689 59.5248 221.517 54.6951 221.517 48.7363V32.9299H199.885V48.7363H199.948Z" fill="#FE5E5A"/>
<path d="M199.948 17.1235V32.9299H221.579V17.1235C221.579 11.1648 216.751 6.33507 210.795 6.33507C204.776 6.27235 199.948 11.1648 199.948 17.1235Z" fill="white"/>
<path d="M538.336 255.348C539.903 260.742 537.27 266.262 532.442 268.646C531.878 268.959 531.251 269.147 530.624 269.336C529.997 269.524 529.37 269.649 528.68 269.712C523.288 270.339 518.147 267.015 516.579 261.621C515.012 256.226 517.645 250.644 522.473 248.323C523.037 248.009 523.664 247.821 524.291 247.633C524.918 247.445 525.545 247.32 526.235 247.257C531.564 246.692 536.768 250.017 538.336 255.348Z" fill="#49E1E6"/>
<path d="M526.235 247.257L532.442 268.646C531.878 268.959 531.251 269.147 530.624 269.336C529.997 269.524 529.37 269.649 528.68 269.712L522.473 248.323C523.037 248.01 523.664 247.821 524.291 247.633C524.918 247.445 525.608 247.32 526.235 247.257Z" fill="#3AC5C9"/>
<path d="M570.626 321.083C572.193 326.477 569.56 331.997 564.732 334.38C564.168 334.694 563.541 334.882 562.914 335.07C562.287 335.258 561.66 335.384 560.97 335.446C555.578 336.074 550.437 332.749 548.869 327.355C547.302 321.961 549.935 316.378 554.763 314.058C555.327 313.744 555.954 313.556 556.581 313.368C557.208 313.18 557.835 313.054 558.525 312.991C563.854 312.427 569.058 315.751 570.626 321.083Z" fill="#49E1E6"/>
<path d="M558.525 312.991L564.732 334.38C564.168 334.694 563.541 334.882 562.914 335.07C562.287 335.258 561.66 335.384 560.97 335.447L554.763 314.058C555.327 313.744 555.954 313.556 556.581 313.368C557.208 313.18 557.898 313.054 558.525 312.991Z" fill="#3AC5C9"/>
<path d="M597.148 302.266C591.881 304.085 586.175 301.764 583.605 296.997C583.291 296.432 583.04 295.805 582.79 295.178C582.601 294.551 582.413 293.923 582.351 293.296C581.473 287.965 584.608 282.633 589.875 280.814C595.141 278.995 600.847 281.316 603.418 286.083C603.731 286.647 603.982 287.212 604.233 287.839C604.421 288.466 604.609 289.094 604.672 289.721C605.487 295.115 602.414 300.447 597.148 302.266Z" fill="#49E1E6"/>
<path d="M604.672 289.784L583.605 296.997C583.291 296.432 583.04 295.805 582.789 295.178C582.601 294.551 582.413 293.924 582.351 293.296L603.418 286.083C603.731 286.648 603.982 287.212 604.233 287.839C604.421 288.529 604.546 289.156 604.672 289.784Z" fill="#3AC5C9"/>
<path d="M588.871 316.378C594.828 316.378 599.656 311.549 599.656 305.59C599.656 299.631 594.828 294.802 588.871 294.802H573.071V316.441H588.871V316.378Z" fill="#FE5E5A"/>
<path d="M557.208 316.378H573.071V294.739H557.271C551.314 294.739 546.486 299.569 546.486 305.527C546.424 311.549 551.252 316.378 557.208 316.378Z" fill="white"/>
<path d="M366.728 211.379V291.414" stroke="#3B3E54" stroke-width="2" stroke-miterlimit="10" stroke-linecap="round" stroke-linejoin="round"/>
<path d="M370.49 216.146C366.979 219.658 366.665 225.178 366.665 225.178L379.456 212.382C379.519 212.382 374.064 212.633 370.49 216.146Z" fill="#6DEEF2"/>
<path d="M379.518 212.382L366.728 225.178C366.728 225.178 372.183 224.927 375.756 221.352C379.268 217.839 379.518 212.382 379.518 212.382Z" fill="#49E1E6"/>
<path d="M363.029 206.925C363.029 211.943 366.728 215.958 366.728 215.958V197.831C366.728 197.831 363.029 201.908 363.029 206.925Z" fill="#6DEEF2"/>
<path d="M366.728 197.831V215.958C366.728 215.958 370.427 211.881 370.427 206.925C370.365 201.908 366.728 197.831 366.728 197.831Z" fill="#49E1E6"/>
<path d="M370.49 229.004C366.979 232.516 366.665 238.036 366.665 238.036L379.456 225.24C379.519 225.178 374.064 225.429 370.49 229.004Z" fill="#6DEEF2"/>
<path d="M379.518 225.178L366.728 237.974C366.728 237.974 372.183 237.723 375.756 234.147C379.268 230.635 379.518 225.178 379.518 225.178Z" fill="#49E1E6"/>
<path d="M370.49 241.8C366.979 245.312 366.665 250.832 366.665 250.832L379.456 238.036C379.519 237.974 374.064 238.287 370.49 241.8Z" fill="#6DEEF2"/>
<path d="M379.518 237.974L366.728 250.769C366.728 250.769 372.183 250.518 375.756 246.943C379.268 243.493 379.518 237.974 379.518 237.974Z" fill="#49E1E6"/>
<path d="M370.49 254.595C366.979 258.108 366.665 263.628 366.665 263.628L379.456 250.832C379.519 250.832 374.064 251.083 370.49 254.595Z" fill="#6DEEF2"/>
<path d="M379.518 250.832L366.728 263.628C366.728 263.628 372.183 263.377 375.756 259.802C379.268 256.289 379.518 250.832 379.518 250.832Z" fill="#49E1E6"/>
<path d="M362.903 216.146C366.414 219.658 366.728 225.178 366.728 225.178L353.937 212.382C353.874 212.382 359.392 212.633 362.903 216.146Z" fill="#6DEEF2"/>
<path d="M353.875 212.382L366.665 225.178C366.665 225.178 361.211 224.927 357.637 221.352C354.126 217.839 353.875 212.382 353.875 212.382Z" fill="#49E1E6"/>
<path d="M362.903 229.004C366.415 232.517 366.728 238.036 366.728 238.036L353.875 225.178C353.875 225.178 359.392 225.429 362.903 229.004Z" fill="#6DEEF2"/>
<path d="M353.875 225.178L366.665 237.974C366.665 237.974 361.211 237.723 357.637 234.147C354.126 230.635 353.875 225.178 353.875 225.178Z" fill="#49E1E6"/>
<path d="M362.903 241.8C366.414 245.312 366.728 250.832 366.728 250.832L353.937 238.036C353.874 237.974 359.392 238.287 362.903 241.8Z" fill="#6DEEF2"/>
<path d="M353.875 237.974L366.665 250.769C366.665 250.769 361.211 250.518 357.637 246.943C354.126 243.493 353.875 237.974 353.875 237.974Z" fill="#49E1E6"/>
<path d="M362.903 254.595C366.414 258.108 366.728 263.628 366.728 263.628L353.937 250.832C353.874 250.832 359.392 251.083 362.903 254.595Z" fill="#6DEEF2"/>
<path d="M353.875 250.832L366.665 263.628C366.665 263.628 361.211 263.377 357.637 259.802C354.126 256.289 353.875 250.832 353.875 250.832Z" fill="#49E1E6"/>
<path d="M63.9534 237.66V317.758" stroke="#3B3E54" stroke-width="2" stroke-miterlimit="10" stroke-linecap="round" stroke-linejoin="round"/>
<path d="M67.778 242.489C64.2669 246.002 63.9534 251.522 63.9534 251.522L76.744 238.726C76.744 238.663 71.2892 238.914 67.778 242.489Z" fill="#6DEEF2"/>
<path d="M76.744 238.664L63.9534 251.522C63.9534 251.522 69.4082 251.271 72.9821 247.696C76.4932 244.183 76.744 238.664 76.744 238.664Z" fill="#49E1E6"/>
<path d="M60.2539 233.207C60.2539 238.225 63.9532 242.239 63.9532 242.239V224.112C63.9532 224.175 60.2539 228.189 60.2539 233.207Z" fill="#6DEEF2"/>
<path d="M63.9531 224.175V242.302C63.9531 242.302 67.6524 238.225 67.6524 233.27C67.6524 228.189 63.9531 224.175 63.9531 224.175Z" fill="#49E1E6"/>
<path d="M67.778 255.285C64.2669 258.798 63.9534 264.318 63.9534 264.318L76.744 251.522C76.744 251.522 71.2892 251.773 67.778 255.285Z" fill="#6DEEF2"/>
<path d="M76.744 251.522L63.9534 264.318C63.9534 264.318 69.4082 264.067 72.9821 260.491C76.4932 256.979 76.744 251.522 76.744 251.522Z" fill="#49E1E6"/>
<path d="M67.778 268.081C64.2669 271.594 63.9534 277.113 63.9534 277.113L76.744 264.318C76.744 264.318 71.2892 264.569 67.778 268.081Z" fill="#6DEEF2"/>
<path d="M76.744 264.318L63.9534 277.113C63.9534 277.113 69.4082 276.862 72.9821 273.287C76.4932 269.775 76.744 264.318 76.744 264.318Z" fill="#49E1E6"/>
<path d="M67.778 280.939C64.2669 284.452 63.9534 289.971 63.9534 289.971L76.744 277.176C76.744 277.113 71.2892 277.364 67.778 280.939Z" fill="#6DEEF2"/>
<path d="M76.744 277.113L63.9534 289.909C63.9534 289.909 69.4082 289.658 72.9821 286.083C76.4932 282.633 76.744 277.113 76.744 277.113Z" fill="#49E1E6"/>
<path d="M60.1286 242.489C63.6398 246.002 63.9533 251.522 63.9533 251.522L51.1626 238.726C51.1626 238.663 56.6174 238.914 60.1286 242.489Z" fill="#6DEEF2"/>
<path d="M51.1626 238.664L63.9533 251.522C63.9533 251.522 58.4984 251.271 54.9246 247.696C51.4134 244.183 51.1626 238.664 51.1626 238.664Z" fill="#49E1E6"/>
<path d="M60.1286 255.285C63.6398 258.798 63.9533 264.318 63.9533 264.318L51.1626 251.522C51.1626 251.522 56.6174 251.773 60.1286 255.285Z" fill="#6DEEF2"/>
<path d="M51.1626 251.522L63.9533 264.318C63.9533 264.318 58.4984 264.067 54.9246 260.491C51.4134 256.979 51.1626 251.522 51.1626 251.522Z" fill="#49E1E6"/>
<path d="M60.1286 268.081C63.6398 271.594 63.9533 277.113 63.9533 277.113L51.1626 264.318C51.1626 264.318 56.6174 264.569 60.1286 268.081Z" fill="#6DEEF2"/>
<path d="M51.1626 264.318L63.9533 277.113C63.9533 277.113 58.4984 276.862 54.9246 273.287C51.3507 269.712 51.1626 264.318 51.1626 264.318Z" fill="#49E1E6"/>
<path d="M60.1286 280.939C63.6398 284.452 63.9533 289.971 63.9533 289.971L51.1626 277.176C51.1626 277.113 56.6174 277.364 60.1286 280.939Z" fill="#6DEEF2"/>
<path d="M51.1626 277.113L63.9533 289.909C63.9533 289.909 58.4984 289.658 54.9246 286.083C51.4134 282.633 51.1626 277.113 51.1626 277.113Z" fill="#49E1E6"/>
<path d="M268.416 276.235C246.784 276.235 228.476 290.787 222.833 310.608H313.998C308.355 290.787 290.047 276.235 268.416 276.235Z" fill="#3D7E9C"/>
<path d="M392.748 276.235C371.117 276.235 352.809 290.787 347.166 310.608H438.331C432.688 290.787 414.442 276.235 392.748 276.235Z" fill="#3D7E9C"/>
<path d="M333.497 261.495C302.587 261.495 276.504 282.257 268.353 310.608H398.579C390.554 282.257 364.471 261.495 333.497 261.495Z" fill="#3D7E9C"/>
<path d="M505.732 324.219H155.431C148.973 324.219 143.707 318.95 143.707 312.49C143.707 306.029 148.973 300.76 155.431 300.76H505.732C512.19 300.76 517.457 306.029 517.457 312.49C517.457 319.013 512.19 324.219 505.732 324.219Z" fill="#458FB0"/>
<path d="M537.27 296.119C537.333 296.056 537.395 295.993 537.458 295.93C537.834 295.303 537.646 294.488 537.019 294.174L528.994 289.344C528.367 288.968 527.551 289.156 527.238 289.784C526.862 290.411 527.05 291.226 527.677 291.54L535.702 296.37C536.204 296.683 536.831 296.558 537.27 296.119Z" fill="white"/>
<path d="M537.081 293.735C537.081 293.735 540.091 295.429 539.589 296.056C539.088 296.683 531.501 305.465 531.062 305.151C529.558 304.085 534.699 295.931 535.514 295.366C536.329 294.864 536.643 293.484 537.081 293.735Z" fill="#1A1C2E"/>
<path d="M467.673 195.949C467.673 195.949 464.1 190.304 462.407 190.116C460.714 189.927 463.535 195.698 467.172 197.517L467.673 195.949Z" fill="white"/>
<path d="M467.862 195.008C467.172 195.886 466.545 196.702 465.855 197.517C478.709 208.305 488.741 209.435 502.848 200.967C504.98 199.65 504.792 198.834 503.538 197.141C503.726 196.764 503.726 196.827 503.538 197.141C502.284 195.447 501.594 195.384 499.4 196.702C485.167 205.295 482.22 203.35 467.862 195.008Z" fill="#E6E6E6"/>
<path d="M496.014 309.667C496.076 309.667 496.202 309.667 496.265 309.667C496.954 309.542 497.393 308.852 497.268 308.162L495.387 299.004C495.261 298.314 494.572 297.875 493.882 298C493.192 298.126 492.753 298.816 492.879 299.506L494.76 308.663C494.885 309.228 495.387 309.667 496.014 309.667Z" fill="white"/>
<path d="M493.129 304.336C494.509 304.273 495.888 304.147 497.268 303.959C493.129 281.943 489.994 252.338 501.029 231.702C497.706 230.071 494.321 228.44 490.935 226.872C482.909 244.811 489.806 285.33 493.129 304.336Z" fill="#292B3B"/>
<path d="M531.94 295.115C532.755 293.923 533.57 292.732 534.26 291.414C507.55 275.294 499.086 259.927 504.039 228.189C500.34 227.499 496.578 226.872 492.816 226.433C492.189 262.122 504.164 276.11 531.94 295.115Z" fill="#3B3E54"/>
<path d="M497.644 307.911C497.644 307.911 498.459 311.235 497.644 311.36C496.829 311.423 485.229 311.8 485.167 311.298C484.916 309.479 494.383 307.785 495.324 307.973C496.264 308.099 497.518 307.409 497.644 307.911Z" fill="#1A1C2E"/>
<path d="M503.099 250.456C501.281 249.766 499.211 251.836 494.697 251.648C491.625 251.522 486.86 248.449 484.979 248.7C486.107 238.225 497.519 207.051 496.766 202.284C496.39 199.901 497.33 197.517 499.274 196.075L500.027 195.51C503.475 192.876 508.554 194.757 509.369 199.023C509.62 200.465 509.87 202.096 509.933 203.915C510.372 212.696 505.795 237.786 503.099 250.456Z" fill="white"/>
<path d="M444.851 178.324L408.235 166.093L376.948 259.488L413.564 271.782L450.18 284.013L481.467 190.618L444.851 178.324Z" fill="white"/>
<path d="M462.658 213.198L409.677 195.447C408.924 195.196 408.486 194.381 408.736 193.628C408.987 192.876 409.802 192.436 410.555 192.687L463.535 210.438C464.288 210.689 464.727 211.504 464.476 212.257C464.225 213.01 463.41 213.449 462.658 213.198Z" fill="#3D7E9C"/>
<path d="M460.588 219.282L407.608 201.531C406.855 201.281 406.416 200.465 406.667 199.712C406.918 198.96 407.733 198.521 408.485 198.772L461.466 216.522C462.219 216.773 462.658 217.589 462.407 218.341C462.156 219.157 461.341 219.533 460.588 219.282Z" fill="#3D7E9C"/>
<path d="M458.582 225.366L405.601 207.616C404.849 207.365 404.41 206.549 404.661 205.797C404.912 205.044 405.727 204.605 406.479 204.856L459.46 222.607C460.212 222.857 460.651 223.673 460.401 224.426C460.15 225.241 459.335 225.617 458.582 225.366Z" fill="#3D7E9C"/>
<path d="M456.513 231.513L403.532 213.763C402.78 213.512 402.341 212.696 402.592 211.944C402.842 211.191 403.658 210.752 404.41 211.003L457.391 228.754C458.143 229.004 458.582 229.82 458.331 230.573C458.08 231.325 457.265 231.764 456.513 231.513Z" fill="#3D7E9C"/>
<path d="M462.783 199.21L417.953 184.157C416.762 183.78 416.135 182.526 416.574 181.334C416.95 180.142 418.204 179.515 419.395 179.954L464.225 195.008C465.417 195.384 466.044 196.639 465.605 197.831C465.228 198.96 463.975 199.587 462.783 199.21Z" fill="#FE8482"/>
<path d="M439.888 258.859C446.139 257.308 449.95 250.98 448.399 244.726C446.848 238.472 440.523 234.66 434.272 236.212C428.02 237.763 424.21 244.091 425.761 250.345C427.312 256.599 433.637 260.411 439.888 258.859Z" stroke="#FE8482" stroke-width="1.9845" stroke-miterlimit="10"/>
<path d="M434.192 241.737C430.995 243.305 429.741 247.194 431.308 250.393L442.845 244.685C441.215 241.486 437.39 240.169 434.192 241.737Z" fill="#FE8482"/>
<path d="M442.845 244.623L431.308 250.33C432.876 253.529 436.763 254.784 439.961 253.216C443.096 251.71 444.412 247.821 442.845 244.623Z" fill="#FE5E5A"/>
<path d="M409.99 249.64C411.495 247.884 412.561 245.752 413.062 243.493C413.125 243.054 413.251 242.615 413.062 242.239C412.937 241.863 412.498 241.486 412.059 241.612C411.558 241.737 411.432 242.302 411.37 242.804C411.119 244.058 410.931 245.375 410.68 246.63C410.555 247.445 410.429 248.26 410.68 249.076C410.931 249.829 411.746 250.519 412.561 250.33C413.439 250.142 413.815 249.139 414.379 248.449C414.943 247.759 415.884 247.32 416.762 247.508C417.64 247.696 418.329 248.637 418.141 249.515C417.953 250.393 417.013 251.271 417.577 252.024C418.831 252.087 419.395 250.017 420.712 250.079C421.715 250.142 422.091 251.459 421.778 252.338C421.715 252.588 421.59 252.839 421.652 253.09C421.84 253.592 422.593 253.529 423.094 253.216C423.533 252.902 424.16 252.526 424.599 252.839C425.038 253.153 425.163 253.968 425.728 253.968C425.916 253.968 426.041 253.843 426.229 253.78C427.985 252.777 430.242 253.529 432.123 254.157C436.512 255.599 441.026 256.603 445.603 257.167C448.488 257.481 451.372 257.669 454.13 258.547" stroke="#3D7E9C" stroke-width="0.9923" stroke-miterlimit="10" stroke-linecap="round" stroke-linejoin="round"/>
<path d="M505.983 188.171C504.478 191.809 500.779 193.754 498.522 192.813C496.264 191.935 496.452 188.485 497.895 184.847C499.399 181.209 501.907 180.08 504.164 180.958C506.422 181.962 507.425 184.533 505.983 188.171Z" fill="white"/>
<path d="M507.112 190.116C506.735 190.994 505.481 191.684 504.854 191.433C504.227 191.182 504.353 190.429 504.729 189.614C505.105 188.736 505.92 188.171 506.485 188.422C507.112 188.673 507.425 189.238 507.112 190.116Z" fill="white"/>
<path d="M507.425 186.039C507.425 186.039 507.613 183.404 506.108 181.773C504.603 180.205 501.029 178.888 498.96 181.836C498.96 181.836 497.706 184.032 500.465 185.349C503.287 186.666 503.224 184.972 504.227 186.854C505.168 188.736 506.798 188.109 506.986 188.548L507.425 186.039Z" fill="#1A1C2E"/>
<path d="M505.356 188.297L501.218 187.92C501.155 188.485 500.716 193.879 500.967 195.886C501.092 196.514 502.158 196.764 503.287 196.514C504.29 196.263 505.042 195.635 505.042 195.071C504.854 193.879 505.105 190.304 505.356 188.297Z" fill="white"/>
<path d="M504.227 189.677C503.538 189.175 503.036 189.865 501.782 190.931C500.528 191.997 497.895 192.311 497.08 188.987C496.578 186.854 496.014 190.617 496.014 190.617C496.139 192.436 496.766 193.377 498.083 193.942C499.901 194.694 502.472 194.067 504.478 192.248C504.729 191.245 504.666 190.053 504.227 189.677Z" fill="#1A1C2E"/>
<path d="M496.891 188.861C496.891 188.861 496.954 188.861 497.017 188.924C497.769 189.175 501.343 190.367 501.907 191.621C502.534 193.064 500.089 191.37 499.274 190.555C498.459 189.739 497.706 189.99 497.017 189.928C496.327 189.802 495.825 188.987 496.891 188.861Z" fill="#1A1C2E"/>
<path d="M479.336 215.017C479.336 215.017 474.194 210.187 472.439 210.438C470.683 210.689 475.009 215.832 479.21 216.773L479.336 215.017Z" fill="white"/>
<path d="M478.458 213.637C477.956 214.641 477.455 215.581 476.953 216.46C493.004 224.927 507.111 225.241 508.303 204.103C508.491 200.904 507.676 201.343 505.795 201.155C505.419 200.779 505.607 200.904 505.795 201.155C503.914 200.967 502.785 201.092 502.848 204.04C503.224 223.485 491.876 217.902 478.458 213.637Z" fill="#E6E6E6"/>
<path d="M215.56 164.211C214.808 164.211 214.181 164.838 214.181 165.591V179.076H193.991V165.591C193.991 164.838 193.364 164.211 192.612 164.211C191.86 164.211 191.233 164.838 191.233 165.591V308.914C191.233 309.667 191.86 310.294 192.612 310.294C193.364 310.294 193.991 309.667 193.991 308.914V296.997H214.181V308.914C214.181 309.667 214.808 310.294 215.56 310.294C216.312 310.294 216.939 309.667 216.939 308.914V165.591C216.939 164.838 216.312 164.211 215.56 164.211ZM194.054 236.594V225.178H214.243V236.531H194.054V236.594ZM214.181 239.542V250.895H193.991V239.542H214.181ZM194.054 222.167V210.814H214.243V222.167H194.054ZM194.054 253.968H214.243V265.321H194.054V253.968ZM214.181 207.804H193.991V196.451H214.181V207.804ZM194.054 268.332H214.243V279.685H194.054V268.332ZM214.181 182.087V193.44H193.991V182.087H214.181ZM194.054 294.049V282.696H214.243V294.049H194.054Z" fill="#3D4061"/>
<path d="M465.542 338.332C460.275 340.151 454.57 337.83 451.999 333.063C451.686 332.498 451.435 331.871 451.184 331.244C450.996 330.617 450.808 329.989 450.745 329.362C449.867 324.031 453.002 318.699 458.269 316.88C463.536 315.061 469.241 317.382 471.812 322.149C472.126 322.713 472.376 323.278 472.627 323.905C472.815 324.532 473.003 325.16 473.066 325.787C473.881 331.244 470.809 336.575 465.542 338.332Z" fill="#49E1E6"/>
<path d="M473.066 325.912L451.999 333.126C451.686 332.561 451.435 331.934 451.184 331.307C450.996 330.679 450.808 330.052 450.745 329.425L471.812 322.212C472.126 322.776 472.376 323.341 472.627 323.968C472.815 324.595 472.941 325.285 473.066 325.912Z" fill="#3AC5C9"/>
<path d="M147.343 224.802V325.975" stroke="#3B3E54" stroke-width="4" stroke-miterlimit="10" stroke-linecap="round" stroke-linejoin="round"/>
<path d="M187.471 241.612L148.346 280.814" stroke="#3B3E54" stroke-width="4" stroke-miterlimit="10" stroke-linecap="round" stroke-linejoin="round"/>
<path d="M125.022 210.94C125.022 241.173 147.28 265.698 147.28 265.698V156.182C147.343 156.182 125.022 180.707 125.022 210.94Z" fill="#3B9CA1"/>
<path d="M147.343 156.182V265.698C147.343 265.698 169.601 241.173 169.601 210.94C169.601 180.707 147.343 156.182 147.343 156.182Z" fill="#369094"/>
<path d="M179.069 231.012C166.216 243.87 165.275 263.816 165.275 263.816L211.861 217.212C211.861 217.212 191.985 218.153 179.069 231.012Z" fill="#3B9CA1"/>
<path d="M211.861 217.212L165.275 263.816C165.275 263.816 185.213 262.875 198.067 250.017C210.92 237.159 211.861 217.212 211.861 217.212Z" fill="#369094"/>
<path d="M107.153 241.612L146.34 280.814" stroke="#3B3E54" stroke-width="4" stroke-miterlimit="10" stroke-linecap="round" stroke-linejoin="round"/>
<path d="M115.555 231.012C128.408 243.87 129.348 263.816 129.348 263.816L82.7629 217.212C82.7629 217.212 102.701 218.153 115.555 231.012Z" fill="#3B9CA1"/>
<path d="M82.7629 217.212L129.348 263.816C129.348 263.816 109.41 262.875 96.5568 250.017C83.7034 237.159 82.7629 217.212 82.7629 217.212Z" fill="#369094"/>
<path d="M82.3869 299.255C64.5176 299.255 49.4071 311.235 44.7673 327.606H120.006C115.367 311.298 100.256 299.255 82.3869 299.255Z" fill="#FFBAB8"/>
<path d="M185.026 299.255C167.156 299.255 152.046 311.235 147.406 327.606H222.645C218.005 311.298 202.895 299.255 185.026 299.255Z" fill="#FFBAB8"/>
<path d="M136.12 287.149C110.602 287.149 89.0331 304.273 82.387 327.669H189.853C183.207 304.273 161.639 287.149 136.12 287.149Z" fill="#FFBAB8"/>
<path d="M151.732 173.494C151.732 173.431 151.732 173.306 151.732 173.243C151.795 172.553 152.422 172.114 153.049 172.177L161.701 173.055C162.391 173.118 162.83 173.745 162.767 174.372C162.705 175.062 162.078 175.501 161.451 175.438L152.798 174.56C152.234 174.498 151.795 174.059 151.732 173.494Z" fill="white"/>
<path d="M154.115 172.051C154.115 172.051 151.419 170.295 151.105 170.985C150.792 171.675 146.904 181.773 147.343 182.024C148.911 182.777 153.3 174.936 153.425 174.058C153.551 173.18 154.554 172.239 154.115 172.051Z" fill="#FE5E5A"/>
<path d="M227.473 117.795C227.473 117.795 233.68 118.36 234.558 119.614C235.436 120.931 229.417 121.057 226.407 118.861L227.473 117.795Z" fill="white"/>
<path d="M227.786 117.168C227.724 118.172 227.661 119.175 227.536 120.179C211.61 118.234 204.838 115.788 199.384 100.233C198.568 97.8491 199.446 97.41 201.39 97.1591C201.39 96.7201 201.39 96.7201 201.39 97.1591C203.334 96.9082 203.71 97.5982 204.4 99.7308C209.039 113.342 214.369 114.095 227.786 117.168Z" fill="#E6E6E6"/>
<path d="M207.347 206.048C207.284 206.11 207.221 206.11 207.096 206.11C206.469 206.298 205.779 205.922 205.591 205.295L203.146 196.953C202.958 196.325 203.334 195.635 203.961 195.447C204.588 195.259 205.278 195.635 205.466 196.263L207.911 204.605C208.099 205.232 207.848 205.797 207.347 206.048Z" fill="white"/>
<path d="M207.66 201.281C206.469 201.845 204.337 202.598 203.083 203.037C198.506 180.707 198.82 152.419 192.926 132.285C196.249 131.469 200.512 130.403 203.898 129.587C208.726 153.172 200.136 173.808 207.66 201.281Z" fill="#292B3B"/>
<path d="M156.247 175.877C156.372 174.497 156.498 173.117 156.748 171.738C187.283 174.748 197.754 160.949 191.233 130.528C194.681 129.525 198.13 128.521 201.578 127.58C205.09 162.517 191.672 179.829 156.247 175.877Z" fill="#292B3B"/>
<path d="M202.832 80.7256C201.641 80.6628 200.199 81.4782 199.823 82.67C199.446 83.8617 200.324 85.0535 201.453 85.4298C202.581 85.8062 204.838 84.6144 205.215 83.4227C205.591 82.2309 204.337 80.851 202.832 80.7256Z" fill="#1A1C2E"/>
<path d="M197.377 80.0983C195.183 78.4048 191.358 78.1539 189.101 79.9101C186.844 81.6664 187.032 85.1789 188.662 87.3742C190.355 89.5696 195.308 90.7613 198.882 88.3778C201.327 86.747 200.136 82.2309 197.377 80.0983Z" fill="#1A1C2E"/>
<path d="M200.387 86.8723C198.757 85.6178 195.998 85.3669 194.368 86.6214C192.738 87.8759 192.926 90.4475 194.18 92.0783C195.434 93.7091 199.697 94.2737 201.327 93.0192C203.02 91.702 202.456 88.4404 200.387 86.8723Z" fill="#1A1C2E"/>
<path d="M197.942 89.1304C199.572 92.392 203.208 93.8974 205.215 92.8938C207.221 91.8903 206.845 88.7541 205.215 85.4924C203.585 82.2308 201.077 81.3527 199.133 82.3563C197.064 83.3598 196.249 85.8061 197.942 89.1304Z" fill="white"/>
<path d="M197.001 90.9495C197.377 91.7022 198.631 92.3294 199.196 92.0158C199.76 91.7649 199.572 91.0749 199.196 90.2595C198.819 89.5068 198.004 89.005 197.44 89.2559C196.876 89.6323 196.625 90.1968 197.001 90.9495Z" fill="white"/>
<path d="M196.374 87.2489C196.374 87.2489 195.998 84.8027 197.252 83.2346C198.506 81.6665 201.766 80.1611 203.898 82.7328C203.898 82.7328 205.277 84.6773 202.77 86.1199C200.262 87.5625 200.136 85.9945 199.384 87.8134C198.631 89.6324 197.064 89.1934 196.938 89.5697L196.374 87.2489Z" fill="#1A1C2E"/>
<path d="M208.852 163.082C205.967 163.27 197.879 163.396 195.371 162.016C193.427 160.949 189.227 163.145 187.22 162.392C186.656 151.478 190.606 106.693 193.929 100.86C196.374 96.5321 196.813 96.4066 197.566 96.2184C197.691 96.1557 197.879 96.1557 198.005 96.0303C199.572 95.3403 201.328 95.4658 202.644 96.5948L202.707 96.6575C203.209 97.1593 203.585 97.7865 203.836 98.6019C204.274 100.107 204.4 102.052 204.651 104.059C204.964 107.132 206.155 106.568 203.522 112.025C202.331 114.408 208.789 158.44 208.852 163.082Z" fill="white"/>
<path d="M205.09 204.668C205.09 204.668 204.337 207.804 205.09 207.866C205.842 207.929 216.626 208.306 216.689 207.804C216.877 206.11 208.099 204.479 207.221 204.668C206.406 204.856 205.215 204.228 205.09 204.668Z" fill="#FE5E5A"/>
<path d="M203.773 98.6019L202.456 104.686L197.503 96.1557C197.628 96.093 197.816 96.093 197.942 95.9675C199.509 95.2776 201.265 95.403 202.581 96.532L202.644 96.5948C203.208 97.1593 203.522 97.7865 203.773 98.6019Z" fill="#49E1E6"/>
<path d="M199.07 89.5696L202.895 89.8205C202.895 90.3223 202.456 95.3402 202.017 97.1591C201.766 97.7237 200.826 97.8491 199.823 97.41C198.945 97.0337 198.381 96.3437 198.443 95.842C198.694 94.7129 198.945 91.3886 199.07 89.5696Z" fill="white"/>
<path d="M221.955 123.691C221.955 123.691 228.351 122.123 229.667 123.189C230.984 124.193 225.09 126.388 221.266 125.197L221.955 123.691Z" fill="white"/>
<path d="M223.46 123.127C223.586 124.193 223.711 125.071 223.836 126.263C203.146 126.765 199.572 121.81 193.929 102.93C193.051 100.044 198.004 98.4136 199.008 103.369C202.331 120.743 205.403 121.37 223.46 123.127Z" fill="#E6E6E6"/>
<path d="M382.152 113.53C385.788 113.53 388.735 110.581 388.735 106.944C388.735 103.307 385.788 100.358 382.152 100.358C378.516 100.358 375.569 103.307 375.569 106.944C375.569 110.581 378.516 113.53 382.152 113.53Z" fill="white"/>
<path d="M391.369 133.79C393.931 133.79 396.008 131.712 396.008 129.148C396.008 126.585 393.931 124.507 391.369 124.507C388.806 124.507 386.729 126.585 386.729 129.148C386.729 131.712 388.806 133.79 391.369 133.79Z" fill="white"/>
<path d="M548.431 246.881C550.993 246.881 553.07 244.802 553.07 242.239C553.07 239.676 550.993 237.597 548.431 237.597C545.868 237.597 543.791 239.676 543.791 242.239C543.791 244.802 545.868 246.881 548.431 246.881Z" fill="white"/>
<path d="M250.107 225.743C253.743 225.743 256.691 222.794 256.691 219.157C256.691 215.519 253.743 212.571 250.107 212.571C246.471 212.571 243.524 215.519 243.524 219.157C243.524 222.794 246.471 225.743 250.107 225.743Z" fill="white"/>
<path d="M566.174 273.287C569.81 273.287 572.758 270.339 572.758 266.701C572.758 263.064 569.81 260.115 566.174 260.115C562.538 260.115 559.591 263.064 559.591 266.701C559.591 270.339 562.538 273.287 566.174 273.287Z" fill="white"/>
<path d="M240.201 132.849C243.837 132.849 246.784 129.9 246.784 126.263C246.784 122.626 243.837 119.677 240.201 119.677C236.565 119.677 233.617 122.626 233.617 126.263C233.617 129.9 236.565 132.849 240.201 132.849Z" fill="white"/>
<path d="M259.261 201.594C261.824 201.594 263.901 199.516 263.901 196.952C263.901 194.389 261.824 192.311 259.261 192.311C256.699 192.311 254.622 194.389 254.622 196.952C254.622 199.516 256.699 201.594 259.261 201.594Z" fill="white"/>
<path d="M98.4378 207.866C101 207.866 103.078 205.788 103.078 203.225C103.078 200.661 101 198.583 98.4378 198.583C95.8754 198.583 93.7981 200.661 93.7981 203.225C93.7981 205.788 95.8754 207.866 98.4378 207.866Z" fill="white"/>
</g>
<defs>
<clipPath id="clip0">
<rect width="649" height="368" fill="white"/>
</clipPath>
</defs>
</svg>
