<svg width="535" height="285" viewBox="0 0 535 285" fill="none" xmlns="http://www.w3.org/2000/svg">
<g clip-path="url(#clip0)">
<path d="M0 173.067C6.05377 173.067 12.1203 173.41 18.1358 173.003C29.0326 172.24 39.1902 174.81 48.9017 179.302C51.9732 180.715 54.9809 180.46 58.0652 180.575C58.1755 181.199 58.1335 181.841 57.9427 182.446C57.752 183.051 57.418 183.6 56.9691 184.049C51.2507 192.215 47.2848 201.474 45.3204 211.243C43.0263 221.564 42.4019 232.062 41.6627 242.561C39.9676 245.042 40.197 247.867 40.3117 250.654C39.9362 252.518 39.7695 254.417 39.8147 256.317C39.8626 256.739 39.8188 257.167 39.6861 257.57C39.5534 257.974 39.335 258.344 39.0458 258.656C38.7567 258.968 38.4035 259.214 38.0105 259.376C37.6175 259.539 37.1939 259.616 36.7687 259.6C34.6727 259.967 32.5209 259.859 30.4727 259.282C27.0041 257.995 23.6703 256.371 20.5191 254.434C19.5635 253.927 18.8307 253.084 18.4632 252.068C18.0958 251.052 18.1199 249.935 18.5309 248.936C19.8946 244.928 20.4426 240.728 21.7043 236.211C18.4499 238.45 15.3852 240.953 12.5409 243.693C9.65363 246.167 6.55308 248.382 3.27541 250.311C2.82524 250.684 2.27599 250.919 1.69448 250.987C1.11298 251.055 0.524278 250.952 0 250.692L0 173.067Z" fill="#E5B287"/>
<path d="M0.000148375 250.692C7.81269 246.518 14.0959 240.359 20.7869 234.722C21.4623 234.162 22.0613 232.813 23.0427 233.449C24.024 234.085 23.6927 235.434 23.2976 236.363C21.4369 240.779 21.5261 245.716 19.4742 250.069C19.3444 250.306 19.2661 250.569 19.2444 250.839C19.2227 251.109 19.258 251.381 19.3482 251.636C19.4383 251.892 19.5811 252.125 19.7675 252.322C19.9539 252.519 20.1796 252.675 20.43 252.779C25.2985 255.146 29.6827 258.709 35.6345 258.391C38.1835 258.264 39.1011 257.538 38.8844 255.057C38.8166 253.577 38.8379 252.094 38.9482 250.616C40.2226 250.781 40.6432 251.774 40.7324 252.868C41.2932 258.824 41.6628 264.792 42.0069 270.773C42.1253 271.346 42.0508 271.943 41.795 272.47C41.5392 272.997 41.1164 273.425 40.5922 273.687C34.9081 273.687 29.1984 273.814 23.5143 273.483C15.5488 273.025 7.79995 274.756 -0.0380859 275.494L0.000148375 250.692Z" fill="#D49068"/>
<path d="M458.812 270.238C451.526 270.249 444.261 269.464 437.146 267.897C424.312 265.237 411.478 262.807 398.287 262.972C395.968 262.972 393.661 263.303 391.341 263.468C386.213 264.176 381.046 264.567 375.869 264.639C367.062 264.716 358.281 265.288 349.487 265.594C336.564 266.039 323.628 266.166 310.718 266.866C297.973 267.566 285.343 268.393 272.624 268.75C259.382 269.119 246.204 270.697 232.936 270.646C230.617 270.646 228.323 271.218 225.965 271.193C224.685 271.23 223.424 270.871 222.356 270.165C221.288 269.459 220.465 268.44 220 267.248C219.644 266.484 219.401 265.67 219.006 264.906C217.005 261.089 216.814 261.089 213.004 262.896C208.772 264.97 205.038 263.519 203.241 258.976C202.026 255.464 201.621 251.723 202.056 248.032C202.604 240.13 203.445 232.253 204.312 224.376C205.229 215.964 204.426 207.464 205.777 199.077C205.839 197.595 205.779 196.109 205.599 194.636C205.803 193.364 205.867 192.091 207.192 191.379C207.896 191.12 208.646 191.007 209.395 191.047C210.144 191.086 210.878 191.277 211.551 191.608C217.235 193.86 222.677 192.193 227.991 190.539C239.105 187.09 250.206 184.978 262.033 186.25C276.141 187.777 290.288 188.923 304.345 190.844C321.666 193.224 338.833 196.494 356.064 199.383C364.59 200.821 373.167 202.144 381.553 203.926C394.425 206.662 407.374 206.993 420.374 207.553C420.896 207.553 421.419 207.718 421.941 207.794C423.216 207.922 424.07 206.662 425.242 206.84C433.246 208.113 437.987 202.272 443.531 198.339C447.66 195.425 451.497 192.066 456.276 190.31C458.57 189.724 459.832 187.701 461.552 186.377C463.395 184.949 465.603 184.067 467.925 183.832C477.271 182.78 486.638 181.788 496.027 180.855C500.436 180.422 504.604 182.038 508.772 182.992C512.771 184.053 517.007 183.803 520.854 182.28C523.097 181.364 525.658 180.206 528.08 182.178C531.585 185.041 531.457 188.986 527.723 192.18C526.81 193.062 525.781 193.815 524.664 194.42C523.033 195.171 523.505 196.112 524.065 197.194C521.835 198.187 519.388 197.512 517.056 198.085C515.624 198.349 514.234 198.807 512.926 199.447C512.738 199.548 512.529 199.605 512.315 199.612C502.705 198.836 493.733 202.424 484.429 203.748C481.205 204.206 478.949 205.593 478.057 209.22C474.756 222.454 465.949 232.036 456.263 240.944C453.459 243.489 450.477 245.907 447.571 248.389C446.22 249.547 446.297 250.259 447.66 251.328C452.949 255.4 456.021 261.089 458.787 266.955C459.475 268.088 459.908 269.208 458.812 270.238Z" fill="#E5B287"/>
<path d="M91.7624 172.443C105.23 170.635 118.841 170.128 132.405 170.929C144.182 171.527 155.881 172.837 167.556 174.39C171.226 174.873 174.884 175.497 178.503 176.286C180.491 176.719 180.989 176.031 180.95 174.25C180.95 171.705 180.95 169.16 180.95 166.615C180.95 160.494 181.728 159.73 187.998 159.705L234.81 159.539C298.61 159.344 362.415 159.145 426.223 158.941C428.492 158.941 430.964 159.31 432.711 157.21C433.832 152.706 433.437 148.163 433.055 143.645C432.609 138.3 431.971 137.804 426.682 137.639C424.885 137.639 423.075 137.639 421.266 137.639H136.535C130.277 137.639 128.888 136.366 128.187 130.411L127.996 127.942C126.9 125.053 125.714 122.152 127.703 119.161C127.77 119.188 127.844 119.194 127.914 119.178C127.985 119.162 128.049 119.125 128.098 119.072C130.889 117.342 133.858 118.105 136.802 118.461C139.351 120.637 138.077 123.552 138.357 126.224C138.472 127.586 138.064 129.024 139.53 129.914C141.712 130.304 143.938 130.39 146.144 130.169C156.633 130.169 167.122 130.423 177.611 130.016C195.454 130.016 213.297 130.016 231.139 129.927C293.461 129.622 355.787 129.299 418.118 128.96C423.534 128.96 428.951 128.794 434.367 128.718C435.748 128.591 437.139 128.783 438.433 129.278C441.199 131.021 441.199 133.974 441.262 136.646C441.441 145.109 441.352 153.596 441.262 162.097C441.305 162.762 441.215 163.429 440.997 164.058C440.779 164.688 440.438 165.268 439.993 165.764C439.548 166.261 439.008 166.664 438.406 166.949C437.803 167.235 437.149 167.398 436.483 167.429C434.581 167.605 432.67 167.661 430.761 167.594C403.92 167.594 377.067 167.734 350.214 167.594C336.003 167.493 321.806 168.333 307.595 168.307C270.024 168.231 232.465 168.307 194.906 168.307C193.02 168.307 191.082 167.976 189.298 168.994C186.673 172.608 187.284 176.859 187.896 180.651C188.476 185.256 188.476 189.916 187.896 194.522C187.297 201.164 187.896 207.832 186.877 214.462C185.934 220.825 185.984 227.302 185.105 233.691C184.942 235.272 184.899 236.863 184.978 238.45C184.937 239.352 185.2 240.241 185.724 240.977C186.249 241.713 187.004 242.252 187.871 242.509C191.771 244.062 192.306 245.436 192.14 249.547C191.936 254.637 191.044 259.638 191.312 264.728C191.528 268.877 190.56 272.936 190.547 277.072C190.62 277.647 190.473 278.229 190.135 278.701C189.797 279.173 189.294 279.5 188.725 279.617C186.902 278.981 186.902 277.428 186.991 275.939C187.527 267.273 186.991 258.582 187.284 249.903C187.348 247.625 186.545 246.251 184.251 245.856C183.286 245.803 182.363 245.446 181.613 244.838C179.727 242.878 177.382 242.675 174.884 242.828C174.145 242.948 173.387 242.865 172.692 242.586C168.32 240.219 163.439 240.702 158.774 240.041C155.626 239.621 152.733 238.361 149.573 237.865C143.09 236.812 136.555 236.107 129.997 235.752C123.013 235.409 116.207 233.792 109.223 233.652C104.991 233.576 100.747 233.652 96.478 233.538C88.4615 233.271 80.4323 233.105 72.4158 233.322C69.784 233.317 67.1625 233.651 64.616 234.314C63.9895 234.595 63.3031 234.717 62.618 234.668C61.933 234.619 61.2708 234.401 60.6906 234.034C59.6838 231.68 61.5063 231.362 63.0102 231.031C67.1268 230.14 66.9483 230.166 67.4709 226.132C69.0385 213.89 70.3894 201.597 74.2128 189.762C75.2834 186.479 75.2197 182.941 77.2588 179.836C79.0431 177.126 81.847 175.802 84.0008 173.665C86.6645 173.066 89.2134 173.194 91.7624 172.443Z" fill="#123065"/>
<path d="M188.623 279.363C189.897 275.838 189.49 272.046 189.706 268.444C190.14 261.382 190.191 254.319 190.981 247.282C191.236 245.131 189.566 244.177 187.871 243.897C184.29 243.286 183.143 241.25 183.449 237.839C184.302 228.397 185.054 218.942 185.832 209.487C185.908 208.533 186.023 207.591 186.01 206.637C185.845 199.345 187.081 192.066 186.877 184.825C186.749 179.913 186.877 174.976 186.673 170.064C186.673 168.944 186.38 167.709 187.348 166.755C187.851 167.143 188.222 167.676 188.413 168.28C188.605 168.885 188.607 169.534 188.419 170.14C188.302 170.554 188.251 170.983 188.266 171.412C188.33 173.818 187.527 176.503 188.546 178.564C189.885 181.237 192.969 179.137 195.136 179.837C197.302 180.537 199.724 180.078 201.941 180.753C204.567 181.147 206.682 184.202 207.039 188.248C207.141 189.292 207.103 190.348 207.116 191.404C207.128 192.46 206.975 193.567 206.912 194.662C206.007 203.163 205.331 211.676 204.669 220.189C203.802 231.324 202.438 242.433 201.189 253.543C200.425 260.376 199.545 267.184 198.844 274.018C198.704 275.392 198.844 276.843 197.251 277.543C196.461 280.088 194.702 280.953 192.153 280.521C191.245 280.316 190.296 280.397 189.436 280.753C188.575 281.108 187.846 281.72 187.348 282.506C186.214 280.826 186.864 279.859 188.623 279.363Z" fill="#1A407B"/>
<path d="M499.671 274.87L497.849 274.311C496.638 272.796 494.701 271.944 493.936 270.022C489.552 266.204 489.246 262.26 493.63 258.111C494.459 257.144 495.138 256.059 495.644 254.891C496.073 254.097 496.715 253.438 497.499 252.988C498.282 252.539 499.176 252.316 500.079 252.346C503.903 252.194 505.292 250.845 505.916 247.014C506.439 243.833 508.032 240.792 506.974 237.394C506.89 236.97 506.919 236.53 507.06 236.121C507.201 235.712 507.449 235.348 507.777 235.065C511.346 231.909 510.492 227.773 510.326 223.829C510.196 223.045 510.259 222.241 510.51 221.487C510.761 220.733 511.192 220.052 511.766 219.502C513.589 217.975 513.703 216.206 513.194 214.068C512.136 209.665 512.633 208.673 516.354 206.115C518.893 204.375 521.677 203.02 524.613 202.093C525.443 201.938 526.198 201.513 526.76 200.885C527.323 200.257 527.661 199.46 527.723 198.619C530.272 198.314 531.725 199.765 532.476 201.941C533.126 203.824 533.675 205.758 534.477 207.578C535.535 209.996 535.089 211.994 532.999 214.017C528.959 217.962 529.061 218.153 531.928 223.129C533.079 225.147 533.751 227.402 533.891 229.72C534.261 234.811 534.197 235.32 529.545 237.101C526.461 238.285 526.486 239.188 528.475 241.53C532.859 246.684 531.584 252.334 525.594 255.388C523.147 256.66 521.389 258.951 518.674 259.778C517.96 259.969 517.272 260.325 516.597 260.465C514.647 260.898 514.048 261.636 514.863 263.672C515.201 264.522 515.222 265.465 514.923 266.329C514.623 267.193 514.023 267.921 513.232 268.38C511.934 269.279 510.822 270.42 509.956 271.74C507 274.387 503.189 274.196 499.671 274.87Z" fill="#E5B287"/>
<path d="M527.697 198.632C528.194 199.383 529.902 199.027 529.583 200.363C529.38 200.919 529.04 201.416 528.595 201.807C528.15 202.199 527.613 202.472 527.034 202.602C523.015 203.913 519.195 205.767 515.679 208.113C513.907 209.385 513.347 210.543 514.111 212.605C515.258 215.735 515.794 218.827 512.072 220.851C511.422 221.207 510.861 222.123 511.295 222.76C512.913 225.305 511.295 227.85 511.639 230.471C511.787 231.37 511.654 232.293 511.257 233.113C510.86 233.933 510.219 234.61 509.421 235.052C509.078 235.21 508.773 235.44 508.527 235.726C508.281 236.013 508.101 236.349 507.998 236.712C507.895 237.075 507.872 237.456 507.931 237.828C507.989 238.201 508.128 238.556 508.338 238.87C508.705 239.574 508.891 240.358 508.878 241.151C508.864 241.945 508.652 242.722 508.261 243.413C507.718 244.555 507.356 245.774 507.191 247.027C506.757 252.117 504.642 253.873 499.544 253.593C498.974 253.523 498.398 253.647 497.907 253.945C497.417 254.243 497.042 254.698 496.842 255.235C495.688 257.968 493.998 260.443 491.872 262.514C489.692 264.436 491.808 265.695 492.725 267.019C493.414 268.011 495.007 268.291 495.058 269.831C493.363 270.684 492.088 269.691 491.132 268.622C487.5 264.601 483.243 261.241 479.662 257.169C476.399 253.466 476.145 249.929 479.191 246.009C480.35 244.533 479.866 243.337 479.547 241.899C478.069 235.294 482.313 230.828 488.724 232.176C484.454 227.837 484.989 222.645 490.355 219.451C491.291 218.993 492.064 218.26 492.57 217.35C493.076 216.439 493.291 215.396 493.184 214.361C493.108 212.105 493.862 209.9 495.304 208.163C496.746 206.425 498.776 205.275 501.01 204.931C506.091 204.087 510.96 202.268 515.347 199.574C514.392 199.281 513.372 199.357 512.9 198.441C516.558 197.054 520.152 195.133 524.18 197.169L527.697 198.632Z" fill="#DFA97D"/>
<path d="M84.1156 173.665C83.4656 175.713 81.3627 176.426 80.1392 178.042C76.0609 183.45 75.7296 190.03 74.0982 196.138C71.2705 207.03 69.5035 218.17 68.8219 229.402C68.6817 231.527 67.5474 232.291 65.4955 232.304C63.7877 232.304 61.825 231.642 60.5378 233.513C60.261 233.86 59.8626 234.09 59.4227 234.156C58.9829 234.223 58.5343 234.12 58.1673 233.869C56.982 232.151 58.5241 230.662 58.6133 229.046C59.1013 216.346 61.743 203.82 66.4259 192.002C67.3562 189.75 68.3758 187.535 69.4209 185.347C70.0709 183.972 69.6503 183.463 68.1464 183.349C65.3935 183.12 63.2652 183.692 61.8378 186.415C56.7418 196.181 53.2968 206.719 51.6419 217.606C51.0429 221.423 50.4312 225.317 49.9979 229.199C49.7685 231.4 48.9783 233.983 52.1262 235.04C53.2223 236.999 51.6929 237.992 50.4057 238.335C47.2789 239.269 44.3195 240.691 41.6373 242.548C41.4885 242.607 41.3266 242.627 41.1679 242.604C41.0091 242.582 40.859 242.519 40.7324 242.42C40.7036 230.898 41.9864 219.409 44.5558 208.176C47.1048 197.996 51.1449 188.604 58.078 180.587C61.8123 176.171 66.7572 175.688 72.0973 176.006C76.2266 176.248 80.5726 176.884 84.1156 173.665Z" fill="#1B407A"/>
<path d="M91.7626 172.443C89.3666 173.906 86.6647 173.83 84.1157 173.715C86.5144 172.648 89.1467 172.209 91.7626 172.443Z" fill="#1B407A"/>
<path d="M197.328 277.53C197.748 267.782 199.341 258.162 200.374 248.478C202.222 231.324 204.35 214.195 206.351 197.054C206.298 196.205 206.522 195.361 206.988 194.649C207.294 200.057 205.777 205.364 205.867 210.747C206.083 223.676 203.929 236.439 203.394 249.305C203.216 253.326 203.267 257.347 205.943 260.758C207.638 262.896 209.55 263.036 211.844 261.903C218.153 258.785 218.216 258.836 220.905 265.275C222.919 270.073 223.059 270.366 228.17 269.691C232.937 269.017 237.716 269.526 242.457 269.106C256.999 267.833 271.617 267.833 286.184 266.688C290.607 266.344 295.106 266.344 299.502 266.128C313.356 265.428 327.222 264.983 341.101 264.537C357.835 263.99 374.556 263.265 391.303 263.456C386.359 264.553 381.354 265.36 376.315 265.873C360.703 268.126 345.091 270.467 329.453 272.465C312.54 274.616 295.819 277.963 278.716 278.828C261.243 279.757 243.782 280.177 226.296 279.808C218.038 279.642 209.805 278.981 201.546 278.535C200.081 278.535 198.636 278.19 197.328 277.53Z" fill="#D49168"/>
<path d="M512.977 198.518C514.876 198.861 516.648 197.334 519.35 198.416C516.597 200.236 514.405 202.31 511.792 203.239C508.364 204.511 505.025 206.051 501.214 206.369C496.613 206.738 493.898 211.167 494.65 216.55C494.918 218.433 494.523 219.286 492.739 219.769C491.276 220.114 489.957 220.904 488.964 222.031C487.971 223.157 487.353 224.563 487.195 226.056C486.851 229.25 488.903 231.604 492.203 232.507C492.331 232.507 492.382 232.838 492.56 233.182C491.252 233.519 489.879 233.519 488.571 233.182C486.022 232.8 483.384 232.915 481.969 235.167C480.555 237.419 479.701 240.257 481.498 242.917C482.556 244.444 482.084 245.22 480.861 246.314C477.636 249.19 477.496 252.766 480.516 255.871C485.207 260.707 489.642 265.81 495.135 269.869C496.091 270.913 497.034 271.969 497.99 273C498.448 273.509 498.767 274.005 497.849 274.374C485.704 272.593 473.418 272.236 461.208 271.066C460.357 271.066 459.529 270.789 458.85 270.277C455.753 263.214 452.656 256.164 445.749 251.786C443.926 250.628 443.926 249.521 445.749 248.16C455.052 241.11 463.591 233.296 470.295 223.612C473.257 219.506 475.415 214.877 476.655 209.971C478.031 204.091 478.707 203.264 484.136 202.552C488.132 202.073 492.075 201.221 495.912 200.006C501.558 198.199 507.242 198.747 512.977 198.518Z" fill="#CB7B54"/>
<path d="M40.6814 242.421C42.8735 239.875 45.2822 237.814 48.9145 237.674C49.6025 237.603 50.2631 237.366 50.84 236.985C51.417 236.604 51.8932 236.089 52.2281 235.485C53.732 232.736 54.9173 232.304 57.8231 233.436L60.5122 233.513C67.866 232.915 75.2324 231.884 82.5989 231.846C88.385 231.846 94.2094 232.304 100.034 232.266C111.262 232.266 122.35 233.971 133.527 234.62C140.065 235.014 146.437 236.465 152.963 236.961C156.34 237.216 159.781 238.705 163.337 239.048C168.358 239.519 173.01 241.657 178.134 242.026C181.447 242.255 184.659 244.151 187.871 245.437C188.313 245.632 188.672 245.975 188.886 246.408C189.101 246.84 189.156 247.334 189.043 247.803C188.113 256.139 188.763 264.512 188.686 272.86C188.686 275.023 187.284 277.199 188.686 279.363C188.075 280.343 187.234 281.221 187.412 282.506C187.099 283.125 186.608 283.636 186.001 283.974C185.395 284.312 184.701 284.461 184.009 284.402C172.156 284.198 160.317 283.664 148.477 283.206L146.017 283.129C141.786 282.544 137.529 282.633 133.272 282.391C131.832 281.882 131.042 280.381 129.283 280.19C128.597 280.078 127.976 279.715 127.543 279.171C127.11 278.628 126.894 277.943 126.938 277.25C127.129 275.901 128.136 275.29 129.181 274.705C129.658 274.492 130.175 274.381 130.698 274.381C131.22 274.381 131.737 274.492 132.214 274.705C133.104 275.21 134.09 275.524 135.109 275.624C136.128 275.725 137.156 275.611 138.128 275.291C138.792 275.11 139.499 275.167 140.126 275.453C140.752 275.739 141.258 276.236 141.556 276.856C142.41 278.268 142.41 278.268 143.71 275.99C144.324 275.388 145.144 275.042 146.004 275.023C148.91 275.411 151.854 275.411 154.76 275.023C158.774 276.181 162.789 276.627 166.816 275.023C167.119 274.941 167.435 274.915 167.747 274.947C172.845 274.947 177.943 275.418 183.359 275.38C183.971 273.343 183.232 270.951 183.423 268.61C184.111 264.669 184.111 260.639 183.423 256.699C183.563 253.848 183.78 251.074 180.67 249.331C179.395 248.631 179.752 246.518 178.248 245.78C175.636 244.278 172.526 244.609 169.786 243.553C169.459 243.528 169.131 243.528 168.805 243.553C166.651 242.975 164.388 242.935 162.216 243.439C159.239 243.202 156.245 243.313 153.294 243.769C152.303 243.983 151.275 243.965 150.292 243.718C149.308 243.471 148.395 243.001 147.623 242.344C147.343 242.03 147.123 241.668 146.973 241.275C145.507 237.789 144.131 237.534 141.225 240.245C136 242.79 130.405 242.79 124.797 242.382C123.522 242.293 122.248 241.988 120.973 242.013C119.799 242.135 118.617 241.864 117.613 241.242C116.609 240.62 115.841 239.683 115.429 238.577C114.652 236.618 113.186 236.287 111.364 236.287C106.164 236.287 100.964 236.503 95.777 236.287C87.7606 235.867 79.7441 236.287 71.7404 235.943C70.1473 235.943 68.0954 235.791 67.0885 237.432C64.2847 242.077 60.1936 243.566 55.032 242.841C54.3642 242.691 53.6646 242.798 53.072 243.14C52.4794 243.482 52.0372 244.034 51.833 244.686C50.8262 246.836 48.6086 247.982 46.9263 249.572C45.8652 250.574 45.0008 251.766 44.3774 253.085C43.2176 255.477 43.0009 257.5 44.543 259.829C45.4862 261.254 45.2058 263.074 44.8362 264.779C44.1989 267.744 45.0528 268.711 47.9586 268.457C51.1321 268.177 51.7821 268.661 51.4635 271.867C51.2723 274.132 52.3173 274.794 54.3438 275.036C57.53 275.418 60.7162 274.909 63.8386 275.036C65.6229 275.1 67.267 275.545 68.1336 277.237C68.6816 278.294 69.0003 279.503 67.3562 280.075C62.2583 279.49 57.0839 280.228 51.9732 279.579C46.8116 280.406 43.944 276.614 40.5029 273.891C40.5112 266.132 39.996 258.382 38.9608 250.692C39.5089 247.905 37.5844 244.635 40.6814 242.421Z" fill="#0F2B5B"/>
<path d="M129.359 275.532L127.448 277.416C127.014 278.561 127.856 279.363 128.212 280.292C128.684 281.564 128.327 282.315 126.823 282.188C118.667 282.302 110.548 281.424 102.404 281.297L99.4092 281.233C97.3828 280.47 95.2672 281.055 93.2025 280.902C91.9281 280.801 90.6536 281.119 89.5703 280.202C87.7095 275.927 88.7036 274.4 93.2535 274.094C97.077 273.852 100.798 274.807 104.724 274.463C110.165 274.054 115.625 273.978 121.075 274.234C123.905 274.336 126.823 273.763 129.359 275.532Z" fill="#0F2B5B"/>
<path d="M89.8507 279.961C91.8517 280.966 94.0055 280.47 96.0957 280.597C97.23 280.597 98.4407 280.381 99.4093 281.259C83.6186 281.119 67.8278 280.546 52.0625 279.388L68.1846 279.312C68.4852 278.869 68.907 278.522 69.3996 278.312C69.8923 278.103 70.435 278.039 70.963 278.128C76.0609 278.93 81.1588 278.345 86.1803 278.586C87.5439 278.688 88.9714 278.599 89.8507 279.961Z" fill="#123065"/>
<path d="M102.404 281.322C110.982 280.673 119.495 282.2 128.06 281.844C128.317 281.489 128.655 281.2 129.046 281.001C129.437 280.802 129.87 280.698 130.309 280.698C130.748 280.698 131.181 280.802 131.572 281.001C131.963 281.2 132.301 281.489 132.558 281.844C137.05 281.732 141.538 282.159 145.928 283.116C131.823 282.633 117.719 282.141 103.615 281.64C103.199 281.586 102.793 281.48 102.404 281.322Z" fill="#123065"/>
<path d="M148.388 283.244C159.794 282.671 171.163 284.313 182.569 283.842C184.255 283.997 185.941 283.546 187.323 282.569C187.342 282.917 187.283 283.264 187.151 283.586C187.019 283.908 186.817 284.197 186.56 284.432C186.303 284.667 185.997 284.842 185.664 284.945C185.331 285.047 184.979 285.075 184.634 285.025C172.565 284.185 160.432 284.529 148.388 283.244Z" fill="#1A407B"/>
<path d="M223.862 203.608C225.927 209.131 226.411 215.061 227.915 220.711C228.091 221.801 228.637 222.797 229.46 223.533C230.284 224.27 231.335 224.702 232.439 224.758C239.959 225.827 247.453 227.188 254.947 228.423C255.775 228.563 256.846 228.499 257.024 229.53C257.241 230.802 255.966 230.917 255.125 231.222C249.466 233.258 243.91 235.702 238.111 237.203C231.738 238.832 228.17 243.337 224.448 247.956C223.174 249.611 221.899 251.341 220.625 253.046C220.077 253.772 219.631 255.159 218.611 254.65C217.337 254.001 217.834 252.525 218.344 251.545C219.548 248.958 220.513 246.266 221.224 243.502C222.589 238.814 223.2 233.939 223.034 229.059C222.945 221.742 223.034 214.425 223.034 207.107V203.684L223.862 203.608Z" fill="#D49168"/>
<path d="M488.775 227.265C488.775 224.401 491.183 221.182 493.299 221.105C496.332 220.978 499.671 223.829 499.582 226.476C499.608 227.14 499.489 227.802 499.232 228.415C498.975 229.028 498.588 229.578 498.096 230.027C497.605 230.475 497.021 230.811 496.386 231.011C495.752 231.21 495.081 231.27 494.421 231.184C490.291 231.006 488.724 229.924 488.775 227.265Z" fill="#E5B287"/>
<path d="M501.367 218.268H500.092C496.932 218.268 494.995 216.652 495.224 214.195C495.453 211.739 497.403 210.378 500.322 210.594C501.265 210.671 502.221 210.594 503.177 210.747C505.98 211.027 507.612 212.134 507.268 215.404C506.924 218.675 504.719 218.153 502.603 218.268C502.208 218.293 501.787 218.268 501.367 218.268Z" fill="#E5B287"/>
<path d="M57.8234 233.436C55.8695 233.819 53.9894 234.511 52.2539 235.485C51.8474 235.543 51.4494 235.65 51.0686 235.803C49.1059 236.936 48.252 236.694 48.3922 234.149C49.2844 217.16 52.5088 200.808 60.7164 185.652C62.284 182.751 64.0046 181.529 67.3564 181.72C72.7602 182.025 72.7602 181.809 70.4152 186.568C63.9818 199.972 60.4594 214.582 60.0792 229.441C59.9772 231.286 59.7988 232.787 57.8234 233.436Z" fill="#E7EEFC"/>
<path d="M89.851 279.961C82.6247 279.834 75.3857 280.355 68.1849 279.312C67.0888 275.151 63.686 275.825 60.9204 276.347C57.8998 276.907 55.0578 275.761 52.0882 276.156C50.5206 276.347 49.0932 272.822 50.0873 271.486C50.7373 270.62 51.2726 269.78 50.253 269.055C49.2334 268.33 48.8001 269.322 48.3795 270.086C47.8315 271.117 46.9521 271.142 46.3531 270.328C46.0434 269.784 45.5743 269.349 45.0091 269.081C44.4439 268.812 43.8098 268.723 43.1924 268.826C42.2493 268.928 41.7012 268.342 42.4022 267.159C44.3522 263.889 44.7727 260.631 41.8414 257.577C41.5101 257.233 41.1787 256.304 41.3571 256.151C43.1541 254.128 42.6316 250.641 44.6453 249.331C46.659 248.02 47.6148 246.022 49.7432 245.22C50.0427 245.105 50.3071 244.915 50.5104 244.667C50.7138 244.42 50.849 244.123 50.903 243.808C51.349 241.606 51.7059 239.227 54.7264 241.593C56.9567 239.646 59.7351 242.433 61.4556 241.237C63.3324 239.724 64.9285 237.893 66.1712 235.829C67.5221 233.831 70.326 234.124 72.4544 234.391C75.174 234.798 77.9421 234.76 80.6493 234.276C84.0266 233.602 87.3785 234.76 90.7559 234.773C97.9822 234.773 105.196 234.849 112.422 234.773C114.627 234.773 116.118 235.193 116.577 237.598C117.036 240.003 118.476 240.423 120.706 240.614C127.499 241.186 134.216 241.415 140.792 239.265C144.156 236.503 147.024 237.28 147.801 241.174C149.868 242.247 152.252 242.54 154.518 242.001C157.157 241.745 159.81 241.682 162.458 241.81C164.739 242.675 167.186 241.581 169.468 242.446C169.842 242.82 170.119 243.28 170.272 243.786C170.426 244.293 170.451 244.829 170.347 245.347C170.282 245.825 170.381 246.311 170.629 246.725C170.877 247.139 171.258 247.456 171.711 247.625C172.985 248.083 173.75 247.384 174.362 246.455C175.483 244.749 176.77 243.515 179.026 244.355C179.548 244.597 179.997 244.971 180.33 245.44C180.663 245.908 180.868 246.455 180.925 247.027C180.925 247.765 181.027 248.809 181.741 248.936C186.316 249.725 184.29 253.275 184.761 255.808C184.226 260.246 184.226 264.732 184.761 269.17C184.914 271.46 184.353 273.814 185.322 276.041C185.577 276.639 185.743 277.314 185.08 277.734C184.826 277.934 184.515 278.049 184.192 278.06C183.869 278.072 183.55 277.98 183.283 277.797C181.091 275.812 178.886 276.016 176.312 277.123C175.419 277.517 173.954 276.334 172.743 276.283C169.926 276.169 167.148 275.94 164.331 276.996C161.158 278.192 157.959 277.428 154.811 276.169C151.848 275.812 148.853 275.812 145.89 276.169C145.544 276.127 145.193 276.163 144.862 276.273C144.532 276.383 144.23 276.564 143.978 276.805C143.239 278.612 142.321 279.592 140.792 277.441C140.632 277.108 140.394 276.818 140.099 276.596C139.803 276.374 139.458 276.226 139.093 276.165C138.728 276.104 138.354 276.131 138.002 276.245C137.65 276.358 137.33 276.555 137.07 276.818C135.516 278.154 134.356 277.899 133.107 276.499C132.087 275.341 130.66 275.545 129.283 275.532C125.123 275.971 120.928 275.971 116.768 275.532C112.409 275.201 108.14 275.927 103.832 276.041C100.302 276.143 96.9116 275.176 93.4068 275.469C90.9725 275.672 88.3089 275.252 90.0804 279.095C90.2461 279.312 89.9657 279.694 89.851 279.961Z" fill="#0F2B5B"/>
<path d="M179.064 244.33C178.429 244.261 177.789 244.403 177.243 244.735C176.697 245.066 176.276 245.567 176.044 246.162C175.152 248.274 173.877 250.069 171.328 249.152C168.779 248.236 168.486 246.06 169.353 243.668C169.452 243.251 169.503 242.824 169.506 242.395C172.758 242.656 175.967 243.305 179.064 244.33Z" fill="#0F2B5B"/>
<path d="M132.546 281.87H128.047C127.282 280.482 125.498 279.235 127.435 277.467C127.762 278.07 128.246 278.573 128.836 278.925C129.426 279.276 130.1 279.463 130.787 279.464C132.099 279.579 133.438 279.961 132.546 281.87Z" fill="#0F2B5B"/>
<path d="M147.84 241.173C146.081 237.686 145.367 237.483 140.83 239.264C141.735 236.287 144.195 237.368 146.043 237.508C148.26 237.674 147.738 239.697 147.84 241.173Z" fill="#0F2B5B"/>
<path d="M184.799 269.169C183.78 264.774 183.78 260.203 184.799 255.808V269.169Z" fill="#0F2B5B"/>
<path d="M140.83 277.416C141.075 277.601 141.356 277.733 141.655 277.802C141.955 277.871 142.266 277.875 142.567 277.815C142.868 277.755 143.153 277.632 143.403 277.453C143.653 277.274 143.862 277.045 144.016 276.779C143.988 277.289 143.899 277.793 143.749 278.281C143.29 279.273 142.474 280.113 141.365 279.795C140.014 279.452 141.085 278.23 140.83 277.416Z" fill="#0F2B5B"/>
<path d="M145.928 276.143C148.835 275.252 151.942 275.252 154.849 276.143C151.884 276.461 148.893 276.461 145.928 276.143Z" fill="#0F2B5B"/>
<path d="M169.506 242.446C167.173 242.179 164.739 243.057 162.496 241.81C164.828 242.077 167.263 241.212 169.506 242.446Z" fill="#0F2B5B"/>
<path d="M116.232 278.052C117.061 278.204 118.157 277.912 118.029 278.955C117.902 279.999 116.666 280.101 115.786 280.228C114.907 280.355 114.053 280.075 114.142 279.235C114.282 277.975 115.582 278.357 116.232 278.052Z" fill="#0F2B5B"/>
<path d="M170.474 5H95.2037C91.2338 5 88.0156 8.21333 88.0156 12.1772V116.399C88.0156 120.363 91.2338 123.576 95.2037 123.576H170.474C174.444 123.576 177.662 120.363 177.662 116.399V12.1772C177.662 8.21333 174.444 5 170.474 5Z" fill="#FBFCFC"/>
<path d="M170.373 64.3266C170.373 78.9609 170.373 93.591 170.373 108.217C170.373 113.6 168.461 115.496 163.083 115.508H102.57C97.2558 115.508 95.2676 113.523 95.2676 108.204C95.2676 79.3596 95.2676 50.5152 95.2676 21.6708C95.3313 15.7788 97.2685 13.9082 103.233 13.9082C122.979 13.9082 142.729 13.9082 162.483 13.9082C168.856 13.9082 170.423 15.4607 170.436 21.7471C170.436 35.9487 170.436 50.1546 170.436 64.3648L170.373 64.3266Z" fill="#4B84A9"/>
<path d="M166.957 57.3523C166.957 68.1859 166.957 79.0195 166.957 89.8531C166.957 93.8362 165.223 95.2488 160.329 95.2488C142.011 95.2488 123.688 95.2488 105.361 95.2488C100.531 95.2488 98.7212 93.7726 98.7212 89.8277C98.7212 68.4743 98.7212 47.1167 98.7212 25.7549C98.7212 21.39 100.48 19.9902 105.871 19.9902H159.705C165.529 19.9902 166.931 21.1483 166.931 25.7931C166.931 36.3213 166.931 46.8453 166.931 57.365L166.957 57.3523Z" fill="#DBF7FD"/>
<path d="M113.619 97.8838H101.321C99.8708 97.8838 98.6953 99.0575 98.6953 100.505V109.515C98.6953 110.963 99.8708 112.136 101.321 112.136H113.619C115.069 112.136 116.245 110.963 116.245 109.515V100.505C116.245 99.0575 115.069 97.8838 113.619 97.8838Z" fill="#70A2CD"/>
<path d="M109.363 109.794V100.238C109.365 100.193 109.353 100.148 109.329 100.11C109.306 100.072 109.272 100.041 109.231 100.022C109.19 100.003 109.145 99.9969 109.1 100.003C109.056 100.01 109.014 100.029 108.981 100.059L103.233 104.844C103.207 104.864 103.185 104.89 103.17 104.92C103.156 104.95 103.148 104.983 103.148 105.016C103.148 105.049 103.156 105.082 103.17 105.112C103.185 105.142 103.207 105.168 103.233 105.188L108.93 109.973C108.953 110.03 108.999 110.076 109.056 110.099C109.114 110.123 109.178 110.123 109.236 110.1C109.293 110.076 109.339 110.031 109.363 109.973C109.387 109.916 109.387 109.852 109.363 109.794Z" fill="#F6F9F7"/>
<path d="M141.977 97.8838H123.701C122.251 97.8838 121.075 99.0575 121.075 100.505V109.515C121.075 110.963 122.251 112.136 123.701 112.136H141.977C143.427 112.136 144.602 110.963 144.602 109.515V100.505C144.602 99.0575 143.427 97.8838 141.977 97.8838Z" fill="#70A2CD"/>
<path d="M137.504 99.7412H128.174C127.407 99.7412 126.785 100.362 126.785 101.128V108.916C126.785 109.682 127.407 110.303 128.174 110.303H137.504C138.271 110.303 138.893 109.682 138.893 108.916V101.128C138.893 100.362 138.271 99.7412 137.504 99.7412Z" fill="#F6F9F7"/>
<path d="M163.771 97.8838H151.472C150.022 97.8838 148.847 99.0575 148.847 100.505V109.515C148.847 110.963 150.022 112.136 151.472 112.136H163.771C165.221 112.136 166.396 110.963 166.396 109.515V100.505C166.396 99.0575 165.221 97.8838 163.771 97.8838Z" fill="#70A2CD"/>
<path d="M155.486 100.238V109.794C155.485 109.839 155.497 109.884 155.52 109.922C155.544 109.96 155.578 109.991 155.619 110.01C155.659 110.028 155.705 110.035 155.749 110.029C155.794 110.022 155.835 110.003 155.869 109.973L161.566 105.188C161.59 105.166 161.61 105.14 161.623 105.11C161.636 105.081 161.643 105.048 161.643 105.016C161.643 104.983 161.636 104.951 161.623 104.922C161.61 104.892 161.59 104.866 161.566 104.844L155.869 100.059C155.835 100.029 155.794 100.01 155.749 100.003C155.705 99.9969 155.659 100.003 155.619 100.022C155.578 100.041 155.544 100.072 155.52 100.11C155.497 100.148 155.485 100.193 155.486 100.238Z" fill="#F6F9F7"/>
<path d="M130.594 38H125.092V36.3652H126.937V29.8438C126.855 30.1309 126.712 30.3857 126.507 30.6084C126.308 30.8311 126.064 31.0186 125.777 31.1709C125.496 31.3174 125.18 31.4316 124.828 31.5137C124.482 31.5898 124.125 31.6279 123.756 31.6279V29.8086C124.154 29.8086 124.541 29.7441 124.916 29.6152C125.297 29.4805 125.637 29.2783 125.935 29.0088C126.234 28.7393 126.475 28.4023 126.656 27.998C126.844 27.5879 126.937 27.0986 126.937 26.5303H128.757V36.3652H130.594V38ZM141.773 38H136.263V36.3652H138.1V34.9414H133.582V33.2979L137.774 26.5303H139.901V33.2979H141.773V34.9414H139.901V36.3652H141.773V38ZM138.1 33.2979V28.6748L135.217 33.2979H138.1ZM143.118 32.2607C143.118 31.4932 143.2 30.752 143.364 30.0371C143.528 29.3223 143.783 28.6924 144.129 28.1475C144.475 27.6025 144.926 27.166 145.482 26.8379C146.045 26.5039 146.722 26.3369 147.513 26.3369C148.304 26.3369 148.977 26.5039 149.534 26.8379C150.097 27.166 150.554 27.6025 150.905 28.1475C151.257 28.6924 151.512 29.3223 151.67 30.0371C151.828 30.752 151.907 31.4932 151.907 32.2607C151.907 33.0283 151.828 33.7695 151.67 34.4844C151.512 35.1934 151.26 35.8262 150.914 36.3828C150.568 36.9336 150.114 37.376 149.552 37.71C148.995 38.0381 148.315 38.2021 147.513 38.2021C146.71 38.2021 146.027 38.0381 145.465 37.71C144.908 37.376 144.454 36.9336 144.102 36.3828C143.757 35.8262 143.508 35.1934 143.355 34.4844C143.197 33.7695 143.118 33.0283 143.118 32.2607ZM144.937 32.2607C144.937 32.7998 144.973 33.3213 145.043 33.8252L149.543 29.3076C149.344 28.9092 149.08 28.5869 148.752 28.3408C148.43 28.0947 148.017 27.9717 147.513 27.9717C146.675 27.9717 146.036 28.3496 145.597 29.1055C145.157 29.8613 144.937 30.9131 144.937 32.2607ZM147.513 36.5586C148.028 36.5586 148.45 36.4326 148.778 36.1807C149.112 35.9287 149.373 35.6006 149.56 35.1963C149.754 34.7861 149.889 34.3232 149.965 33.8076C150.047 33.292 150.088 32.7764 150.088 32.2607C150.088 31.7686 150.053 31.2881 149.982 30.8193L145.518 35.3018C145.717 35.6826 145.972 35.9873 146.282 36.2158C146.599 36.4443 147.009 36.5586 147.513 36.5586Z" fill="#263F6B"/>
<path d="M133.697 49.4541C133.697 48.8154 133.799 48.2441 134.004 47.7402C134.215 47.2363 134.502 46.8086 134.866 46.457C135.235 46.0996 135.668 45.8271 136.166 45.6396C136.664 45.4463 137.195 45.3496 137.757 45.3496C138.624 45.3496 139.336 45.5166 139.893 45.8506C140.449 46.1787 140.889 46.6182 141.211 47.1689C141.539 47.7197 141.768 48.3496 141.897 49.0586C142.032 49.7676 142.099 50.5059 142.099 51.2734C142.099 52.0527 142.002 52.7998 141.809 53.5146C141.616 54.2295 141.32 54.8623 140.921 55.4131C140.529 55.9639 140.033 56.4033 139.436 56.7314C138.838 57.0537 138.135 57.2148 137.326 57.2148C136.752 57.2148 136.21 57.127 135.7 56.9512C135.191 56.7754 134.742 56.5205 134.356 56.1865L135.349 54.8506C135.648 55.1143 135.955 55.3018 136.272 55.4131C136.594 55.5186 136.946 55.5713 137.326 55.5713C137.819 55.5713 138.255 55.4746 138.636 55.2812C139.023 55.082 139.345 54.8037 139.603 54.4463C139.861 54.083 140.054 53.6553 140.183 53.1631C140.318 52.6709 140.385 52.1289 140.385 51.5371C140.209 52.1523 139.869 52.6533 139.366 53.04C138.862 53.4209 138.194 53.6113 137.362 53.6113C136.869 53.6113 136.401 53.5059 135.955 53.2949C135.516 53.084 135.126 52.7969 134.786 52.4336C134.452 52.0645 134.186 51.625 133.987 51.1152C133.793 50.6055 133.697 50.0518 133.697 49.4541ZM135.507 49.4541C135.507 50.1748 135.706 50.7783 136.105 51.2646C136.503 51.751 137.074 51.9941 137.819 51.9941C138.533 51.9941 139.108 51.7686 139.541 51.3174C139.975 50.8662 140.192 50.2744 140.192 49.542C140.192 49.1846 140.142 48.8535 140.042 48.5488C139.949 48.2383 139.802 47.9658 139.603 47.7314C139.409 47.4971 139.158 47.3154 138.847 47.1865C138.542 47.0518 138.173 46.9844 137.74 46.9844C137.095 46.9844 136.562 47.2012 136.14 47.6348C135.718 48.0684 135.507 48.6748 135.507 49.4541ZM143.373 51.2734C143.373 50.5059 143.455 49.7646 143.619 49.0498C143.783 48.335 144.038 47.7051 144.384 47.1602C144.73 46.6152 145.181 46.1787 145.738 45.8506C146.3 45.5166 146.977 45.3496 147.768 45.3496C148.559 45.3496 149.233 45.5166 149.789 45.8506C150.352 46.1787 150.809 46.6152 151.16 47.1602C151.512 47.7051 151.767 48.335 151.925 49.0498C152.083 49.7646 152.162 50.5059 152.162 51.2734C152.162 52.041 152.083 52.7822 151.925 53.4971C151.767 54.2061 151.515 54.8389 151.169 55.3955C150.824 55.9463 150.369 56.3887 149.807 56.7227C149.25 57.0508 148.571 57.2148 147.768 57.2148C146.965 57.2148 146.283 57.0508 145.72 56.7227C145.163 56.3887 144.709 55.9463 144.358 55.3955C144.012 54.8389 143.763 54.2061 143.611 53.4971C143.452 52.7822 143.373 52.041 143.373 51.2734ZM145.193 51.2734C145.193 51.8125 145.228 52.334 145.298 52.8379L149.798 48.3203C149.599 47.9219 149.335 47.5996 149.007 47.3535C148.685 47.1074 148.272 46.9844 147.768 46.9844C146.93 46.9844 146.291 47.3623 145.852 48.1182C145.412 48.874 145.193 49.9258 145.193 51.2734ZM147.768 55.5713C148.283 55.5713 148.705 55.4453 149.033 55.1934C149.367 54.9414 149.628 54.6133 149.816 54.209C150.009 53.7988 150.144 53.3359 150.22 52.8203C150.302 52.3047 150.343 51.7891 150.343 51.2734C150.343 50.7812 150.308 50.3008 150.238 49.832L145.773 54.3145C145.972 54.6953 146.227 55 146.537 55.2285C146.854 55.457 147.264 55.5713 147.768 55.5713Z" fill="#263F6B"/>
<path d="M163.872 87.9824H105.387V90.5148H163.872V87.9824Z" fill="#E3DE81"/>
<path d="M117.418 87.9189H105.387V90.5786H117.418V87.9189Z" fill="#8DBE43"/>
<path d="M151.969 87.9189H140.053V90.5149H151.969V87.9189Z" fill="#D89D5D"/>
<path d="M163.885 87.9189H151.969V90.5149H163.885V87.9189Z" fill="#C16262"/>
<path d="M111.415 86.5198C111.326 86.4435 111.198 86.3671 111.058 86.2653C110.51 85.8963 109.784 85.4 109.784 84.5347C109.791 84.3493 109.853 84.1701 109.96 84.019C110.068 83.8679 110.218 83.7514 110.391 83.6839C110.564 83.6164 110.753 83.6007 110.935 83.6388C111.117 83.6769 111.284 83.7671 111.415 83.8984C111.502 83.7858 111.614 83.695 111.742 83.6331C111.871 83.5713 112.012 83.5401 112.154 83.5421C112.411 83.5421 112.657 83.644 112.839 83.8253C113.021 84.0067 113.123 84.2527 113.123 84.5092C113.123 85.3745 112.358 85.8708 111.848 86.2399L111.491 86.4944L111.415 86.5198Z" fill="#223C64"/>
</g>
<defs>
<clipPath id="clip0">
<rect width="535" height="285" fill="white"/>
</clipPath>
</defs>
</svg>
