<svg xmlns="http://www.w3.org/2000/svg" width="557" height="46" viewBox="0 0 557 46" fill="none"><path d="M33.5964 27.8082C33.6604 27.6482 34.2044 27.5842 35.2284 27.6162C36.2844 27.6482 37.0524 27.7602 37.5324 27.9522C38.1084 28.1122 38.7484 28.3682 39.4524 28.7202C40.1884 29.0402 40.5884 29.2002 40.6524 29.2002C40.8124 29.2002 41.0044 29.3282 41.2284 29.5842C41.4524 29.8402 41.5644 30.0482 41.5644 30.2082C41.5644 30.3682 41.6604 30.5602 41.8524 30.7842C42.0764 31.0402 42.2364 31.4882 42.3324 32.1282C42.4604 32.7682 42.4604 33.2642 42.3324 33.6162C42.2044 34.1282 41.9324 34.5602 41.5164 34.9122C41.1004 35.2642 40.6524 35.4722 40.1724 35.5362C39.8524 35.5682 39.5964 35.5682 39.4044 35.5362C39.2444 35.4722 39.0364 35.2802 38.7804 34.9602L37.3404 33.4722L35.6124 31.6002C34.9724 30.8962 34.3964 30.3202 33.8844 29.8722C33.5324 29.5522 33.3244 29.3282 33.2604 29.2002C33.2284 29.0402 33.2444 28.8322 33.3084 28.5762C33.4364 28.1602 33.5324 27.9042 33.5964 27.8082ZM15.4044 31.1202C15.7244 30.1602 15.9484 29.5842 16.0764 29.3922C16.2364 29.1682 16.5404 28.5762 16.9884 27.6162C17.4684 26.6562 17.9164 25.8242 18.3324 25.1202C18.7484 24.4162 19.0364 24.0642 19.1964 24.0642C19.5804 24.0642 19.8524 24.6562 20.0124 25.8402C20.2044 27.0242 20.1564 27.9202 19.8684 28.5282C19.6764 28.8802 19.5324 29.6482 19.4364 30.8322C19.3724 31.9842 19.2924 32.7842 19.1964 33.2322C19.1004 33.6162 18.7644 34.1442 18.1884 34.8162C17.6124 35.4882 17.1964 35.8242 16.9404 35.8242C16.6204 35.8242 16.2844 35.6162 15.9324 35.2002C15.5804 34.7522 15.3244 34.2242 15.1644 33.6162C15.0684 33.1042 15.0204 32.7202 15.0204 32.4642C15.0524 32.2082 15.1804 31.7602 15.4044 31.1202ZM26.0124 20.8002C26.1404 20.2882 26.3644 20.0802 26.6844 20.1762C27.0364 20.2402 27.5164 20.6082 28.1244 21.2802L29.2764 22.3842L29.0844 24.1602C29.0204 25.4082 29.0044 26.5282 29.0364 27.5202C29.1324 30.8482 29.1164 33.7282 28.9884 36.1602C28.8604 38.5602 28.6684 39.9042 28.4124 40.1922C28.2844 40.3522 28.2204 40.5442 28.2204 40.7682C28.2204 41.2162 27.4524 41.9362 25.9164 42.9282L25.0044 43.5042L24.2364 42.5922C23.6924 41.9842 23.4204 41.6322 23.4204 41.5362C23.4204 41.4402 23.2604 41.3442 22.9404 41.2482C22.6524 41.1842 22.3004 40.8162 21.8844 40.1442C21.5004 39.4722 21.1484 39.0562 20.8284 38.8962C20.5084 38.7042 20.3484 38.5122 20.3484 38.3202C20.3484 38.1282 20.2684 38.0322 20.1084 38.0322C19.9804 38.0322 19.9324 37.9522 19.9644 37.7922C20.0284 37.6322 20.5404 37.5522 21.5004 37.5522C23.4204 37.5202 24.5404 37.1682 24.8604 36.4962C25.2764 35.5682 25.5324 34.6242 25.6284 33.6642C25.7564 32.6722 25.8204 30.6242 25.8204 27.5202C25.8524 23.4562 25.9164 21.2162 26.0124 20.8002ZM11.2284 19.2162C11.5484 18.8962 11.8204 18.8162 12.0444 18.9762C12.3004 19.1042 12.4924 19.4402 12.6204 19.9842C12.7484 20.6882 12.8604 21.1202 12.9564 21.2802C13.1804 21.6642 13.1804 22.5602 12.9564 23.9682C12.6364 25.6322 12.4444 27.9522 12.3804 30.9282C12.3484 33.8722 12.4444 35.7282 12.6684 36.4962C12.8604 37.0082 12.9564 37.6162 12.9564 38.3202C12.9564 38.8002 12.9084 39.1362 12.8124 39.3282C12.7484 39.5202 12.5724 39.7442 12.2844 40.0002C11.2604 40.8962 10.3164 40.4802 9.45241 38.7522C9.13241 38.1762 8.98841 37.6162 9.02041 37.0722C9.05241 36.5282 9.24442 35.1042 9.59641 32.8002C9.75641 32.0002 9.83641 30.7362 9.83641 29.0082C9.83641 27.2802 9.91641 26.0962 10.0764 25.4562C10.2364 24.7842 10.2364 24.0642 10.0764 23.2962C9.94841 22.4962 9.98042 21.8242 10.1724 21.2802C10.4924 20.3202 10.8444 19.6322 11.2284 19.2162ZM28.7964 12.3042C29.6284 12.2082 30.9884 12.1602 32.8764 12.1602C34.7644 12.1282 35.7724 12.1762 35.9004 12.3042C36.0284 12.4002 36.3964 12.5282 37.0044 12.6882C37.6444 12.8482 38.0284 13.0242 38.1564 13.2162C38.6364 13.6962 38.8764 14.3682 38.8764 15.2322C38.8764 15.8722 38.5084 16.4642 37.7724 17.0082C37.0684 17.5522 35.3884 18.5282 32.7324 19.9362C31.9324 20.3522 31.2444 20.5922 30.6684 20.6562L29.8044 20.8002V20.0322C29.8044 19.7122 29.9004 19.3122 30.0924 18.8322C30.2844 18.3202 30.4764 18.0002 30.6684 17.8722C30.8284 17.7442 31.1324 17.2962 31.5804 16.5282C32.0604 15.7602 32.3324 15.2802 32.3964 15.0882C32.4604 14.8642 32.4444 14.7202 32.3484 14.6562C32.2844 14.5922 32.0924 14.5282 31.7724 14.4642C31.1004 14.4002 30.1084 14.4642 28.7964 14.6562C27.4844 14.8162 26.4124 15.0242 25.5804 15.2802C23.9164 15.8242 23.0524 15.8562 22.9884 15.3762C22.9884 15.1842 23.0364 14.9282 23.1324 14.6082C23.2284 14.2242 23.3884 13.9682 23.6124 13.8402C23.8364 13.7122 24.4444 13.4882 25.4364 13.1682C26.7804 12.7202 27.9004 12.4322 28.7964 12.3042ZM13.7244 5.39216C13.8844 5.23216 13.9964 5.16816 14.0604 5.20016C14.1564 5.23216 14.3644 5.42416 14.6844 5.77616C15.0684 6.28816 15.6924 6.76816 16.5564 7.21616C17.4524 7.63216 18.0444 8.08016 18.3324 8.56016C18.5564 8.94416 18.6684 9.20016 18.6684 9.32816C18.6684 9.45616 18.6044 9.66416 18.4764 9.95216C18.2524 10.3362 17.8204 10.7522 17.1804 11.2002C16.3164 11.8722 15.3564 12.7842 14.3004 13.9362C13.2444 15.0882 12.4764 16.0642 11.9964 16.8642C11.8364 17.0882 11.2124 18.0162 10.1244 19.6482C9.03642 21.2482 8.46041 22.1282 8.39641 22.2882C8.26841 22.6082 7.40441 23.6322 5.80441 25.3602C3.98041 27.3442 2.81241 28.5762 2.30041 29.0562C1.78841 29.5362 1.38841 29.7762 1.10041 29.7762C0.716414 29.7762 0.524414 29.7442 0.524414 29.6802C0.524414 29.4882 0.780414 28.9122 1.29241 27.9522C1.83641 26.9602 2.26841 26.2402 2.58842 25.7922C3.13242 25.0562 3.40441 24.6082 3.40441 24.4482C3.40441 24.2882 3.46841 24.2082 3.59641 24.2082C3.69241 24.2082 4.06041 23.7442 4.70041 22.8162C5.37241 21.8882 5.75641 21.2962 5.85242 21.0402C5.94841 20.9122 6.18841 20.5922 6.57241 20.0802C6.95641 19.5682 7.14841 19.2162 7.14841 19.0242C7.14841 18.8322 7.24441 18.6722 7.43641 18.5442C7.59641 18.4482 8.20441 17.3282 9.26041 15.1842C10.3164 13.0402 10.8444 11.8562 10.8444 11.6322C10.8444 11.4082 10.8924 11.2642 10.9884 11.2002C11.0524 11.1042 11.2444 10.6562 11.5644 9.85616C11.9164 9.05616 12.0924 8.57615 12.0924 8.41615C12.0924 8.25616 12.1884 8.09616 12.3804 7.93616C12.5724 7.77616 12.7804 7.37616 13.0044 6.73616C13.2604 6.09616 13.5004 5.64816 13.7244 5.39216ZM22.0764 7.98416C22.1724 7.63216 22.4924 6.88016 23.0364 5.72816C23.5804 4.57615 23.8524 3.92016 23.8524 3.76016C23.8524 3.56816 24.0284 3.32816 24.3804 3.04016C24.7324 2.72016 25.0204 2.56016 25.2444 2.56016C25.4684 2.56016 26.0764 3.02416 27.0684 3.95216C28.0924 4.88016 28.6684 5.52015 28.7964 5.87216C29.0204 6.44816 28.8444 7.07216 28.2684 7.74416C27.5644 8.51216 26.9244 9.31216 26.3484 10.1442C26.0604 10.5922 25.4524 11.2802 24.5244 12.2082L21.6924 15.2322C19.6124 17.5682 18.1244 19.1202 17.2284 19.8882C16.3644 20.6562 15.7084 20.9922 15.2604 20.8962C15.1324 20.8962 15.0684 20.8642 15.0684 20.8002C15.0684 20.7042 15.1324 20.5442 15.2604 20.3202C15.4524 20.0002 15.5964 19.7282 15.6924 19.5042C15.7884 19.2802 16.0284 18.9122 16.4124 18.4002C18.3004 15.6162 19.6124 13.4722 20.3484 11.9682C21.3724 9.79216 21.9484 8.46416 22.0764 7.98416Z" fill="#26929D"></path><path d="M76.0764 20.4642C77.1644 20.3362 78.2844 20.2882 79.4364 20.3202C80.5884 20.3202 81.2764 20.4162 81.5004 20.6082C81.7244 20.8002 81.8364 21.1202 81.8364 21.5682C81.8684 21.9842 81.7724 22.4162 81.5484 22.8642C81.2604 23.4082 80.8604 23.7442 80.3484 23.8722C79.8684 23.9682 79.3564 23.9202 78.8124 23.7282C78.3964 23.6322 77.2284 23.6002 75.3084 23.6322C73.4204 23.6322 72.0604 23.7122 71.2284 23.8722C70.7484 23.9362 70.4444 24.0322 70.3164 24.1602C70.2204 24.2562 70.1404 24.4962 70.0764 24.8802C69.9484 25.4562 69.9004 25.9842 69.9324 26.4642C69.9964 26.7842 70.0444 26.9922 70.0764 27.0882C70.1404 27.1842 70.2524 27.2162 70.4124 27.1842C70.7324 27.1202 71.5164 27.0402 72.7644 26.9442L74.6364 26.8482L75.3084 27.6642C75.8204 28.2402 76.0444 28.7362 75.9804 29.1522C75.9164 29.5362 75.5804 29.9522 74.9724 30.4002C74.5884 30.7202 74.2684 30.9282 74.0124 31.0242C73.7564 31.1202 73.2764 31.1682 72.5724 31.1682C71.5484 31.2002 70.9084 31.2162 70.6524 31.2162C70.4604 31.2162 70.3324 31.2962 70.2684 31.4562C70.2044 31.6162 70.1404 31.9362 70.0764 32.4162C69.9804 33.1842 69.9004 33.7442 69.8364 34.0962C69.7724 34.3522 69.7724 34.5282 69.8364 34.6242C69.9004 34.7202 70.1084 34.8482 70.4604 35.0082C72.2204 35.8082 76.0444 36.5282 81.9324 37.1682C84.0124 37.3922 85.2604 37.5682 85.6764 37.6962C86.1244 37.8242 86.4764 37.8882 86.7324 37.8882C87.2124 37.8882 87.8044 38.1602 88.5084 38.7042C89.2124 39.2162 89.5644 39.6322 89.5644 39.9522C89.5964 40.1442 89.4044 40.2722 88.9884 40.3362C88.6044 40.4322 88.2684 40.5282 87.9804 40.6242C87.6924 40.7522 87.1804 40.9442 86.4444 41.2002C85.7084 41.4562 85.2924 41.6322 85.1964 41.7282C85.1324 41.8562 84.9724 41.9202 84.7164 41.9202C84.4604 41.9202 84.0924 42.2082 83.6124 42.7842L82.7964 43.6002L81.0204 43.5042C79.9004 43.4402 78.3484 43.1042 76.3644 42.4962L70.8924 40.7682C67.3724 39.6482 64.2044 37.8882 61.3884 35.4882C60.7804 35.0082 60.3964 34.7362 60.2364 34.6722C60.0764 34.6082 59.9004 34.6562 59.7084 34.8162C59.4524 35.0722 59.3244 35.2802 59.3244 35.4402C59.3244 35.5682 59.0044 36.0322 58.3644 36.8322C57.7244 37.6002 57.2604 38.0802 56.9724 38.2722C56.7804 38.4002 56.5084 38.6242 56.1564 38.9442L54.8124 40.0962L53.2284 41.3922C52.6844 41.8722 51.9964 42.3362 51.1644 42.7842C50.3644 43.2322 49.8524 43.4402 49.6284 43.4082C49.3724 43.3442 49.3884 43.1042 49.6764 42.6882C49.8044 42.5922 49.9324 42.4482 50.0604 42.2562C50.6684 41.5522 51.4044 40.7522 52.2684 39.8562C55.5644 36.2722 57.8044 32.3522 58.9884 28.0962C59.2124 27.2642 59.4044 26.6722 59.5644 26.3202C59.6284 26.0322 59.6284 25.9202 59.5644 25.9842C59.4044 26.0482 58.8924 26.1922 58.0284 26.4162C57.2604 26.6402 56.4764 26.9922 55.6764 27.4722C54.8764 27.9522 54.4444 28.3202 54.3804 28.5762C54.2524 28.8962 53.9004 29.1202 53.3244 29.2482C52.7484 29.3762 52.3484 29.3442 52.1244 29.1522C51.9004 28.9282 51.5964 28.7842 51.2124 28.7202C50.9564 28.6242 50.6524 28.4002 50.3004 28.0482C49.9484 27.6642 49.8044 27.3442 49.8684 27.0882C49.8684 26.9922 50.3164 26.7042 51.2124 26.2242C52.1084 25.7122 52.9724 25.2962 53.8044 24.9762C54.8284 24.6242 56.7484 24.0802 59.5644 23.3442C62.4124 22.5762 64.3324 22.1442 65.3244 22.0482C66.3164 21.8882 67.3724 21.7602 68.4924 21.6642C69.6444 21.5362 70.8124 21.3602 71.9964 21.1362C73.2124 20.8802 74.5724 20.6562 76.0764 20.4642ZM65.6604 25.4082C65.6604 25.0242 65.6284 24.8002 65.5644 24.7362C65.5324 24.6402 65.3404 24.5922 64.9884 24.5922C64.5724 24.5922 63.8044 24.7362 62.6844 25.0242C61.5964 25.3122 61.0524 25.5042 61.0524 25.6002C61.0524 25.6962 61.3884 25.9202 62.0604 26.2722C62.8604 26.6562 63.2924 27.0722 63.3564 27.5202C63.4524 27.9362 63.2284 28.6882 62.6844 29.7762C62.4924 30.1922 62.3804 30.4802 62.3484 30.6402C62.3484 30.8002 62.4284 30.9922 62.5884 31.2162C62.7484 31.4722 63.2924 31.8562 64.2204 32.3682C65.1804 32.8482 65.7244 33.0402 65.8524 32.9442C65.9164 32.8482 65.9484 32.0162 65.9484 30.4482C65.9804 28.8802 65.9484 27.7602 65.8524 27.0882C65.7564 26.4482 65.6924 25.8882 65.6604 25.4082ZM62.7804 2.89615C64.1244 2.48016 66.8604 2.40016 70.9884 2.65616C73.4844 2.81616 74.7324 3.31215 74.7324 4.14416C74.7324 4.46416 74.8444 4.78415 75.0684 5.10415C75.3244 5.42416 75.3724 5.66416 75.2124 5.82416C75.0524 5.95216 74.9724 6.24016 74.9724 6.68816C74.9724 7.13616 74.8284 7.77616 74.5404 8.60816C74.2524 9.40816 74.1564 10.0162 74.2524 10.4322C74.3484 10.9762 74.3804 11.4722 74.3484 11.9202C74.3484 12.3682 74.2684 12.6402 74.1084 12.7362C73.9164 12.8642 73.7884 13.5202 73.7244 14.7042C73.6604 15.5362 73.5804 16.0962 73.4844 16.3842C73.4204 16.6402 73.1964 16.9762 72.8124 17.3922C72.2684 18.0002 71.9964 18.3842 71.9964 18.5442C71.9964 18.7042 71.7724 18.9762 71.3244 19.3602C70.8764 19.7442 70.5564 19.9362 70.3644 19.9362C70.1724 19.9362 69.9484 19.7602 69.6924 19.4082C69.5004 19.1842 69.2924 19.0402 69.0684 18.9762C68.8444 18.9122 68.3644 18.8802 67.6284 18.8802C66.5404 18.8802 65.7084 18.9442 65.1324 19.0722C64.5884 19.2002 63.9804 19.3442 63.3084 19.5042C62.6684 19.6642 62.2204 19.9522 61.9644 20.3682C61.7084 20.7842 61.5324 20.9922 61.4364 20.9922C61.3404 20.9922 61.1324 20.6882 60.8124 20.0802C60.0764 18.5442 59.7084 16.1122 59.7084 12.7842C59.7084 10.7362 59.6444 9.39216 59.5164 8.75216C59.3884 8.08016 59.2764 7.50416 59.1804 7.02416C59.0844 6.51216 58.9244 6.17616 58.7004 6.01616C58.5084 5.82416 58.5404 5.56816 58.7964 5.24816C59.1484 4.76816 59.6924 4.32016 60.4284 3.90416C61.1964 3.45616 61.9804 3.12016 62.7804 2.89615ZM67.9164 4.38416C67.5324 4.25616 66.7804 4.22416 65.6604 4.28816C64.5724 4.35216 63.7404 4.46416 63.1644 4.62416C61.9164 4.94415 61.2924 5.34416 61.2924 5.82416C61.3244 5.88816 61.3564 5.93616 61.3884 5.96816C61.5804 6.16016 61.6764 6.99216 61.6764 8.46416C61.6764 9.90416 61.7404 10.6242 61.8684 10.6242C61.9964 10.6242 62.3324 10.4482 62.8764 10.0962C63.4524 9.74416 63.9164 9.52016 64.2684 9.42416C64.6204 9.32816 64.7964 9.23216 64.7964 9.13616C64.7964 9.00816 65.0044 8.94416 65.4204 8.94416C65.8684 8.91216 66.3164 8.92816 66.7644 8.99216C67.2444 9.02416 67.5484 9.10416 67.6764 9.23216C67.9324 9.42416 68.0284 9.85616 67.9644 10.5282C67.8684 11.2642 67.6924 11.7442 67.4364 11.9682C67.2124 12.1922 66.7804 12.3042 66.1404 12.3042C65.4044 12.3042 64.7644 12.4482 64.2204 12.7362C63.7084 13.0242 63.2284 13.1682 62.7804 13.1682H62.0604L62.1084 14.7042C62.1724 15.7922 62.2524 16.3362 62.3484 16.3362C62.4444 16.3362 62.8284 16.2082 63.5004 15.9522C64.1724 15.6642 64.9244 15.4402 65.7564 15.2802C66.6204 15.0882 67.1964 14.9442 67.4844 14.8482C67.7724 14.7202 68.0284 14.6242 68.2524 14.5602C68.5084 14.4642 68.6364 14.2562 68.6364 13.9362C68.6364 13.6162 68.7004 12.2402 68.8284 9.80816C68.9564 7.34416 68.9084 5.84016 68.6844 5.29616C68.4604 4.75216 68.2044 4.44816 67.9164 4.38416Z" fill="#26929D"></path><path d="M122.396 17.1042C122.428 16.9122 122.524 16.8002 122.684 16.7682C122.844 16.7042 123.196 16.6722 123.74 16.6722C124.604 16.6722 125.468 16.8322 126.332 17.1522C127.196 17.4402 127.884 17.6322 128.396 17.7282C128.908 17.7922 129.452 18.0482 130.028 18.4962C130.636 18.9442 131.212 19.3282 131.756 19.6482C132.332 19.9362 132.828 20.2882 133.244 20.7042C133.66 21.1202 133.868 21.6802 133.868 22.3842C133.868 23.2802 133.596 24.0962 133.052 24.8322C132.508 25.5682 131.932 25.9362 131.324 25.9362C131.1 25.9362 130.508 25.5362 129.548 24.7362C128.588 23.9042 127.644 23.0242 126.716 22.0962C126.172 21.5202 125.532 20.9282 124.796 20.3202C124.028 19.6802 123.404 19.0722 122.924 18.4962C122.476 17.8882 122.3 17.4242 122.396 17.1042ZM128.444 3.37616C128.572 3.15216 128.876 3.04016 129.356 3.04016C129.836 3.00816 130.22 3.08816 130.508 3.28016C130.828 3.44016 131.356 3.72816 132.092 4.14416C134.172 5.29616 134.748 6.41616 133.82 7.50416C133.532 7.88816 133.148 8.12816 132.668 8.22416C132.188 8.32016 131.836 8.24016 131.612 7.98416C131.356 7.76016 131.036 7.64816 130.652 7.64816C130.268 7.64816 129.884 7.55216 129.5 7.36016C129.116 7.13616 128.412 6.97616 127.388 6.88016C126.556 6.75216 125.196 6.70416 123.308 6.73616C121.42 6.73616 120.14 6.80016 119.468 6.92816L118.556 7.12016L119.948 7.69616C120.652 8.01616 121.084 8.27216 121.244 8.46416C121.436 8.65616 121.532 8.94416 121.532 9.32816C121.532 9.55216 121.18 10.1442 120.476 11.1042C119.772 12.0642 119.212 12.7202 118.796 13.0722C118.604 13.2322 118.492 13.7122 118.46 14.5122C118.46 15.2802 118.38 16.0002 118.22 16.6722C118.092 17.3122 117.996 18.2242 117.932 19.4082C117.772 22.3842 117.564 24.6722 117.308 26.2722C117.276 26.5602 117.388 26.7202 117.644 26.7522C117.9 26.7842 118.764 26.8482 120.236 26.9442C122.22 26.9762 123.308 26.9282 123.5 26.8002C123.692 26.6082 124.044 26.5282 124.556 26.5602C125.1 26.5602 125.468 26.6562 125.66 26.8482C125.884 27.1042 126.236 27.3442 126.716 27.5682C127.1 27.8242 127.516 28.1602 127.964 28.5762C128.412 28.9602 128.636 29.2162 128.636 29.3442C128.636 29.5042 128.732 29.6802 128.924 29.8722C129.148 30.0642 129.26 30.2722 129.26 30.4962C129.26 30.7202 128.588 31.4882 127.244 32.8002C125.9 34.0802 124.988 34.8482 124.508 35.1042C123.868 35.3602 123.388 35.6962 123.068 36.1122L122.684 36.6882L123.98 37.2162C124.812 37.5042 125.324 37.8082 125.516 38.1282C125.708 38.4482 125.676 38.8962 125.42 39.4722C125.164 39.9842 124.94 40.2722 124.748 40.3362C124.556 40.4322 124.46 40.5922 124.46 40.8162C124.46 41.0402 124.316 41.1202 124.028 41.0562C123.804 40.9282 122.604 40.8322 120.428 40.7682C118.284 40.7362 116.764 40.7842 115.868 40.9122C115.292 40.9442 114.908 41.0082 114.716 41.1042C114.556 41.2002 114.332 41.5202 114.044 42.0642C113.692 42.6722 113.388 43.0082 113.132 43.0722C112.908 43.1362 112.412 42.7842 111.644 42.0162C110.908 41.2802 110.54 40.7682 110.54 40.4802C110.54 40.1282 109.996 38.8002 108.908 36.4962C107.564 33.5202 106.86 31.6802 106.796 30.9762C106.732 30.4322 106.812 30.0162 107.036 29.7282C107.292 29.4402 107.788 29.1202 108.524 28.7682C109.516 28.2882 110.54 27.9522 111.596 27.7602C112.684 27.5682 113.276 27.4402 113.372 27.3762C113.5 27.2802 113.468 26.9602 113.276 26.4162C113.084 25.8722 112.988 24.5602 112.988 22.4802C112.988 20.3682 112.924 19.3122 112.796 19.3122C112.508 19.3122 111.66 19.9682 110.252 21.2802C109.708 21.7922 109.26 22.1602 108.908 22.3842C108.588 22.6082 108.396 22.7522 108.332 22.8162C108.236 22.9442 107.5 23.4722 106.124 24.4002C104.78 25.2962 103.9 25.8562 103.484 26.0802C103.228 26.2082 102.94 26.3362 102.62 26.4642C102.3 26.5602 102.044 26.6402 101.852 26.7042C101.66 26.7362 101.532 26.7362 101.468 26.7042C101.468 26.6402 103.26 24.8322 106.844 21.2802C110.428 17.6962 112.38 15.5842 112.7 14.9442C113.052 14.2722 113.196 13.4882 113.132 12.5922C113.132 11.3122 113.164 10.6082 113.228 10.4802C113.324 10.3202 113.708 10.2882 114.38 10.3842C114.956 10.4162 115.324 10.4162 115.484 10.3842C115.644 10.3522 115.852 10.1602 116.108 9.80816C116.492 9.32816 116.7 8.89616 116.732 8.51216C116.796 8.12816 116.892 7.82416 117.02 7.60016C117.148 7.34416 117.084 7.21616 116.828 7.21616C116.732 7.21616 116.46 7.23216 116.012 7.26416C114.732 7.39216 113.196 7.66416 111.404 8.08016L109.052 8.60816C108.092 8.80016 107.404 9.05616 106.988 9.37616C106.572 9.69616 106.236 9.85616 105.98 9.85616C105.756 9.85616 105.484 9.93616 105.164 10.0962C104.588 10.4162 103.74 10.3682 102.62 9.95216C101.532 9.53616 100.94 9.04016 100.844 8.46416C100.748 8.14416 100.78 7.82416 100.94 7.50416C101.1 7.15216 101.276 6.97616 101.468 6.97616C101.724 6.97616 102.284 6.81616 103.148 6.49616C105.324 5.79216 109.804 5.02416 116.588 4.19216C118.348 4.00016 120.732 3.87216 123.74 3.80816C126.748 3.71216 128.316 3.56816 128.444 3.37616ZM122.012 29.8242C122.012 29.7602 121.468 29.7282 120.38 29.7282C119.292 29.6962 118.14 29.7282 116.924 29.8242C115.708 29.8882 114.94 29.9522 114.62 30.0162C114.14 30.1762 113.516 30.3202 112.748 30.4482C112.172 30.5122 111.612 30.6562 111.068 30.8802C110.556 31.1042 110.316 31.2962 110.348 31.4562C110.348 31.5202 110.476 31.7762 110.732 32.2242C111.02 32.6722 111.292 33.1522 111.548 33.6642C111.996 34.6882 112.332 35.3282 112.556 35.5842C112.78 35.8402 113.132 36.0162 113.612 36.1122C116.172 36.5602 118.204 35.7282 119.708 33.6162C120.412 32.5602 120.844 31.9522 121.004 31.7922C121.164 31.6002 121.372 31.2642 121.628 30.7842C121.884 30.2722 122.012 29.9522 122.012 29.8242Z" fill="#26929D"></path><path d="M151.484 32.5122C151.804 32.0002 152.092 31.7442 152.348 31.7442C152.636 31.7442 152.78 31.6962 152.78 31.6002C152.78 31.4722 152.924 31.5042 153.212 31.6962C153.5 31.8882 153.644 32.0642 153.644 32.2242C153.676 32.3842 153.628 32.6882 153.5 33.1362C153.34 33.5522 153.308 33.7922 153.404 33.8562C153.532 33.8882 153.788 33.7442 154.172 33.4242C154.652 33.0722 154.924 32.9282 154.988 32.9922C155.052 33.0882 154.892 33.4722 154.508 34.1442C154.124 34.7842 153.788 35.2642 153.5 35.5842C153.116 36.0322 152.924 36.3202 152.924 36.4482C152.924 36.5442 152.7 36.8802 152.252 37.4562C151.932 37.8722 151.74 38.1922 151.676 38.4162C151.612 38.6402 151.596 39.0082 151.628 39.5202C151.628 40.0962 151.596 40.4482 151.532 40.5762C151.5 40.7362 151.324 40.9602 151.004 41.2482C150.588 41.6002 150.252 41.7762 149.996 41.7762C149.74 41.7762 149.388 41.5042 148.94 40.9602C148.524 40.4162 148.188 39.8402 147.932 39.2322C147.612 38.4962 147.404 38.0962 147.308 38.0322C147.212 37.9682 147.228 37.8082 147.356 37.5522C147.516 37.2962 147.596 37.0562 147.596 36.8322C147.596 36.5762 147.692 36.3522 147.884 36.1602C148.076 35.9682 148.172 35.8082 148.172 35.6802C148.172 35.5202 148.3 35.4082 148.556 35.3442C148.78 35.2482 149.212 34.8962 149.852 34.2882C150.524 33.6482 151.068 33.0562 151.484 32.5122ZM177.644 28.1922C178.412 27.7442 179.628 28.0642 181.292 29.1522C183.468 30.6242 184.22 31.7922 183.548 32.6562C183.388 32.8802 183.34 33.1682 183.404 33.5202C183.468 33.8722 183.308 34.2562 182.924 34.6722C182.668 34.9922 182.476 35.1842 182.348 35.2482C182.22 35.2802 181.98 35.2322 181.628 35.1042C181.116 34.9122 180.444 34.4322 179.612 33.6642C179.324 33.4402 178.908 32.9762 178.364 32.2722C177.852 31.5362 177.564 31.0562 177.5 30.8322C177.436 30.6402 177.132 30.4482 176.588 30.2562C175.98 30.0642 175.564 29.8722 175.34 29.6802C175.116 29.4882 175.004 29.2162 175.004 28.8642V28.2402L176.156 28.2882C176.892 28.3202 177.388 28.2882 177.644 28.1922ZM161.804 4.38416C161.804 3.26416 161.788 2.59216 161.756 2.36816C161.724 2.14416 161.836 1.87216 162.092 1.55216C162.348 1.23216 162.492 1.07216 162.524 1.07216C162.556 1.07216 162.924 1.26416 163.628 1.64816C164.364 2.00016 164.924 2.40016 165.308 2.84816C165.724 3.26416 165.884 3.63216 165.788 3.95216C165.66 4.20816 165.58 4.56016 165.548 5.00816C165.516 5.36016 165.532 5.58416 165.596 5.68016C165.692 5.74416 165.884 5.82416 166.172 5.92016C166.62 6.01616 167.324 6.08016 168.284 6.11216C169.276 6.14416 169.884 6.04816 170.108 5.82416C170.332 5.60016 170.524 5.48816 170.684 5.48816C170.876 5.48816 170.972 5.42416 170.972 5.29616C170.972 5.04016 171.116 4.99216 171.404 5.15216C171.564 5.24816 171.676 5.36016 171.74 5.48816C171.868 5.71216 172.284 6.01616 172.988 6.40016C174.332 7.20016 175.004 7.82416 175.004 8.27216C175.004 8.52816 174.876 8.80016 174.62 9.08816C174.396 9.37616 174.188 9.52015 173.996 9.52015C173.804 9.52015 173.66 9.58416 173.564 9.71216C173.5 9.84016 173.26 10.0002 172.844 10.1922C172.428 10.3842 171.916 10.7522 171.308 11.2962C169.164 13.3442 167.756 14.2402 167.084 13.9842C166.796 13.9202 166.62 13.8242 166.556 13.6962C166.492 13.5682 166.284 13.5362 165.932 13.6002C165.772 13.6962 165.628 13.8242 165.5 13.9842C165.404 14.1122 165.292 14.4162 165.164 14.8962C164.94 15.6962 164.86 16.1282 164.924 16.1922C164.988 16.2562 165.548 16.2242 166.604 16.0962C167.66 15.9362 168.876 15.9042 170.252 16.0002C171.212 16.0642 171.804 16.0962 172.028 16.0962C172.252 16.0642 172.508 15.9522 172.796 15.7602C173.34 15.2802 173.772 15.2322 174.092 15.6162C174.252 15.8082 174.604 16.0802 175.148 16.4322C176.3 17.1362 176.988 17.7282 177.212 18.2082C177.468 18.6562 177.324 19.0402 176.78 19.3602C176.428 19.5842 176.044 19.9042 175.628 20.3202C175.212 20.7362 175.004 21.0242 175.004 21.1842C175.004 21.3122 174.86 21.3762 174.572 21.3762C174.284 21.3762 174.06 21.4562 173.9 21.6162C173.772 21.7762 173.756 21.9842 173.852 22.2402C174.172 22.7522 173.98 23.4402 173.276 24.3042L172.7 24.9762L171.692 24.5922C170.956 24.4002 169.82 24.2402 168.284 24.1122C166.332 23.9522 165.276 23.8722 165.116 23.8722C164.956 23.9042 164.876 24.6242 164.876 26.0322C164.876 27.1842 164.956 27.8722 165.116 28.0962C165.276 28.3202 165.82 28.4962 166.748 28.6242C167.164 28.6882 167.5 28.6882 167.756 28.6242C168.012 28.5282 168.492 28.3042 169.196 27.9522L170.684 27.1362L169.676 28.0962C168.812 28.9282 168.588 29.4242 169.004 29.5842C169.036 29.6162 169.084 29.6482 169.148 29.6802C169.436 29.7442 170.236 30.3522 171.548 31.5042C172.124 32.0482 172.636 32.4802 173.084 32.8002C173.564 33.0882 174.076 33.6002 174.62 34.3362C175.164 35.0722 175.484 35.4402 175.58 35.4402C175.708 35.4402 176.028 35.8242 176.54 36.5922C177.084 37.3282 177.484 37.7442 177.74 37.8402C178.028 37.9042 178.412 38.1282 178.892 38.5122L179.612 39.1362V40.9122C179.58 41.6802 179.532 42.1922 179.468 42.4482C179.404 42.7042 179.26 42.9282 179.036 43.1202C178.684 43.4722 178.22 43.7282 177.644 43.8882C177.1 44.0482 176.78 44.1762 176.684 44.2722C176.332 44.5282 175.132 44.7202 173.084 44.8482C171.068 45.0082 169.532 45.0082 168.476 44.8482C165.884 44.4642 164.22 44.0162 163.484 43.5042C163.132 43.2482 162.78 43.0722 162.428 42.9762C162.108 42.9122 161.948 42.8322 161.948 42.7362C161.948 42.6402 161.772 42.4962 161.42 42.3042C160.428 41.6962 159.404 40.6722 158.348 39.2322C157.324 37.7602 156.78 36.5442 156.716 35.5842L156.62 34.6722L157.244 34.9602C157.628 35.1842 157.852 35.3442 157.916 35.4402C157.98 35.5042 158.332 35.7602 158.972 36.2082C159.612 36.6242 160.188 37.0242 160.7 37.4082C161.628 38.1442 162.94 38.7362 164.636 39.1842C165.404 39.3762 166.62 39.5202 168.284 39.6162C169.948 39.6802 171.18 39.6322 171.98 39.4722C172.908 39.3122 173.516 39.1682 173.804 39.0402C174.092 38.8802 174.204 38.6562 174.14 38.3682C173.98 37.7282 173.612 36.9442 173.036 36.0162C172.492 35.0882 171.884 34.2562 171.212 33.5202C171.052 33.3282 170.716 32.8802 170.204 32.1762C169.724 31.4402 169.164 30.9122 168.524 30.5922L167.516 30.0642L166.508 31.1682C165.996 31.6802 165.676 32.0482 165.548 32.2722C165.452 32.4642 165.404 32.7522 165.404 33.1362C165.404 33.7442 165.276 34.3042 165.02 34.8162C164.764 35.3282 164.444 35.6642 164.06 35.8242C163.676 35.9842 163.196 35.9522 162.62 35.7282C161.916 35.4722 161.388 35.2322 161.036 35.0082C160.716 34.7522 160.236 34.3042 159.596 33.6642C158.22 32.2242 157.676 31.2162 157.964 30.6402C158.06 30.4482 158.284 30.3682 158.636 30.4002C159.02 30.4322 159.548 30.1122 160.22 29.4402L161.276 28.4322L161.228 26.3202C161.196 24.9122 161.148 24.1922 161.084 24.1602C161.02 24.0962 160.572 24.1442 159.74 24.3042C158.94 24.4642 158.364 24.6242 158.012 24.7842C157.628 24.9442 157.292 25.3122 157.004 25.8882C156.748 26.4322 156.476 26.7362 156.188 26.8002C155.932 26.8642 155.612 26.7202 155.228 26.3682C154.876 26.0482 154.332 25.0722 153.596 23.4402L152.78 21.6162C152.428 20.8482 152.172 20.2882 152.012 19.9362C151.884 19.5522 151.82 19.2482 151.82 19.0242C151.82 18.8002 151.884 18.6722 152.012 18.6402C152.172 18.5762 152.428 18.5442 152.78 18.5442C153.324 18.5442 154.092 18.3842 155.084 18.0642C157.228 17.4242 159.148 16.9762 160.844 16.7202L161.564 16.5762L161.516 15.3762L161.468 14.1762L160.796 14.2242C160.348 14.2242 159.868 14.3362 159.356 14.5602C158.876 14.7522 158.524 15.1202 158.3 15.6642C158.14 16.1442 157.948 16.3842 157.724 16.3842C157.532 16.3842 157.244 16.1282 156.86 15.6162C155.836 14.1762 155.036 12.1122 154.46 9.42416C154.364 8.91216 154.252 8.48016 154.124 8.12816C153.932 7.71216 153.852 7.45616 153.884 7.36016C153.916 7.26416 154.092 7.24816 154.412 7.31215C154.764 7.37616 155.42 7.28016 156.38 7.02416C158.876 6.38416 160.428 6.06416 161.036 6.06416H161.804V4.38416ZM167.708 10.4802C167.868 9.93616 168.108 9.37616 168.428 8.80016C168.748 8.22416 168.908 7.88816 168.908 7.79216C168.908 7.66416 168.7 7.56816 168.284 7.50416C167.868 7.44016 167.324 7.37616 166.652 7.31215L165.692 7.21616L165.548 8.32016C165.452 9.05616 165.372 9.71216 165.308 10.2882L165.164 11.2482H166.364H167.468L167.708 10.4802ZM161.564 7.69616C161.564 7.37616 161.18 7.34416 160.412 7.60016C160.092 7.69616 159.548 7.82416 158.78 7.98416C158.108 8.11216 157.532 8.28816 157.052 8.51216C156.604 8.70416 156.38 8.86416 156.38 8.99216C156.38 9.15216 156.54 9.74416 156.86 10.7682C157.18 11.7602 157.34 12.3522 157.34 12.5442C157.34 12.7042 157.484 12.7522 157.772 12.6882C158.06 12.6242 158.684 12.4962 159.644 12.3042C160.636 12.0802 161.164 11.9362 161.228 11.8722C161.324 11.7762 161.42 11.2162 161.516 10.1922C161.612 9.16816 161.628 8.33616 161.564 7.69616ZM171.26 17.9682C171.164 17.8722 170.476 17.7922 169.196 17.7282C167.948 17.6642 167.004 17.6642 166.364 17.7282C165.756 17.7602 165.34 17.9522 165.116 18.3042C164.924 18.6242 164.844 19.2642 164.876 20.2242L164.924 21.5202L167.132 21.4722C168.604 21.4082 169.372 21.3282 169.436 21.2322C169.532 21.1362 169.692 21.0562 169.916 20.9922C170.14 20.8962 170.284 20.7362 170.348 20.5122C170.412 20.2882 170.604 19.8402 170.924 19.1682C171.244 18.4642 171.356 18.0642 171.26 17.9682ZM161.564 19.6002C161.564 19.0562 161.548 18.7202 161.516 18.5922C161.484 18.4322 161.388 18.3682 161.228 18.4002C160.652 18.4322 159.772 18.5762 158.588 18.8322C157.436 19.0882 156.556 19.3282 155.948 19.5522C155.436 19.7122 155.148 19.9362 155.084 20.2242C155.02 20.4802 155.164 20.8962 155.516 21.4722C155.868 22.0162 156.076 22.4002 156.14 22.6242C156.204 22.8482 156.38 22.9442 156.668 22.9122C156.988 22.8802 157.9 22.7042 159.404 22.3842C160.492 22.1282 161.116 21.8882 161.276 21.6642C161.468 21.4402 161.564 20.7522 161.564 19.6002ZM165.548 29.0082C165.228 28.9122 165.02 28.8962 164.924 28.9602C164.86 28.9922 164.828 29.1362 164.828 29.3922C164.828 29.6162 164.86 29.7602 164.924 29.8242C164.988 29.8562 165.1 29.8402 165.26 29.7762C165.58 29.7122 165.788 29.6802 165.884 29.6802C166.076 29.6482 166.092 29.5202 165.932 29.2962C165.836 29.1362 165.708 29.0402 165.548 29.0082ZM162.524 30.9282C162.588 30.8322 162.54 30.7522 162.38 30.6882C162.22 30.6242 162.044 30.3842 161.852 29.9682C161.66 29.5202 161.484 29.2962 161.324 29.2962C161.228 29.2962 161.068 29.3922 160.844 29.5842C160.62 29.7762 160.412 29.9682 160.22 30.1602C160.06 30.3522 160.012 30.4802 160.076 30.5442C160.172 30.6402 160.572 30.7522 161.276 30.8802C161.98 30.9762 162.396 30.9922 162.524 30.9282Z" fill="#26929D"></path><path d="M208.892 19.8882C209.052 19.7922 209.292 19.7442 209.612 19.7442C209.868 19.7442 210.012 19.7762 210.044 19.8402C210.108 19.9042 210.14 20.0642 210.14 20.3202C210.14 20.6722 210.22 20.9282 210.38 21.0882C210.572 21.2162 210.668 21.5682 210.668 22.1442C210.668 22.5922 210.732 22.8482 210.86 22.9122C210.988 22.9762 211.244 22.9122 211.628 22.7202C211.884 22.5602 212.7 22.3042 214.076 21.9522C215.484 21.6002 216.348 21.4242 216.668 21.4242C216.828 21.4242 217.036 21.5682 217.292 21.8562C217.548 22.1122 217.676 22.3202 217.676 22.4802C217.708 22.7042 217.58 23.0082 217.292 23.3922C217.036 23.7442 216.748 24.0322 216.428 24.2562C216.044 24.5442 215.468 24.7362 214.7 24.8322C213.964 24.9282 213.292 25.0882 212.684 25.3122C212.108 25.5042 211.58 25.6002 211.1 25.6002H210.38L210.284 26.5602C210.188 27.3602 210.156 27.8722 210.188 28.0962C210.22 28.2882 210.316 28.3842 210.476 28.3842C210.732 28.3842 210.924 28.3202 211.052 28.1922C211.244 28.0002 212.572 27.6322 215.036 27.0882C215.676 26.9602 216.284 26.9282 216.86 26.9922C217.212 27.0562 217.436 27.1202 217.532 27.1842C217.628 27.2482 217.676 27.3762 217.676 27.5682C217.676 27.8882 217.74 28.0482 217.868 28.0482C217.964 28.0482 218.012 28.0962 218.012 28.1922C218.044 28.2562 218.044 28.3842 218.012 28.5762C217.98 28.7362 217.932 28.8962 217.868 29.0562C217.708 29.4402 217.34 29.7442 216.764 29.9682C216.22 30.1922 215.644 30.3042 215.036 30.3042C214.332 30.2722 213.516 30.3682 212.588 30.5922C211.66 30.7842 211.02 30.8802 210.668 30.8802C210.316 30.8802 210.076 31.0082 209.948 31.2642C209.82 31.4882 209.756 32.0002 209.756 32.8002C209.756 33.7282 209.692 34.3842 209.564 34.7682C209.468 35.1522 209.388 36.2402 209.324 38.0322C209.292 39.8242 209.164 40.7842 208.94 40.9122C208.748 41.0722 208.652 41.2322 208.652 41.3922C208.652 41.5522 208.476 41.6482 208.124 41.6802C207.772 41.7442 207.516 41.7122 207.356 41.5842C207.228 41.4562 207.084 41.0082 206.924 40.2402C206.796 39.4722 206.732 38.8322 206.732 38.3202C206.732 37.8082 206.86 37.0722 207.116 36.1122C207.372 35.1522 207.5 33.8082 207.5 32.0802C207.5 30.3522 207.564 28.9922 207.692 28.0002C207.82 26.9762 207.948 25.6162 208.076 23.9202C208.268 21.5202 208.54 20.1762 208.892 19.8882ZM212.78 0.496158C213.228 0.432157 213.5 0.384156 213.596 0.352157C213.628 0.352157 213.66 0.368156 213.692 0.400156C213.724 0.432156 213.74 0.464156 213.74 0.496158C213.74 0.656157 213.804 0.736157 213.932 0.736157C214.06 0.736157 214.444 1.04016 215.084 1.64816C215.852 2.41616 216.268 3.16816 216.332 3.90416C216.396 4.64016 216.124 5.61616 215.516 6.83216C215.1 7.69616 214.924 8.16016 214.988 8.22416C215.052 8.32016 215.612 8.33616 216.668 8.27216C217.756 8.17616 218.668 8.06416 219.404 7.93616C220.46 7.74416 221.868 7.69616 223.628 7.79216C225.388 7.85616 226.604 7.82416 227.276 7.69616C227.948 7.56816 228.524 7.56816 229.004 7.69616C229.452 7.82416 229.9 8.08016 230.348 8.46416C230.796 8.81616 231.02 9.12016 231.02 9.37616C231.02 9.56816 231.116 9.85616 231.308 10.2402C231.564 11.0722 231.26 11.7762 230.396 12.3522C229.404 13.0242 228.076 12.9282 226.412 12.0642C225.74 11.7122 224.78 11.4722 223.532 11.3442C222.284 11.1842 220.252 11.0562 217.436 10.9602L213.788 10.8642L213.404 11.3442C213.116 11.7282 212.972 12.0162 212.972 12.2082C212.972 12.3682 212.908 12.4482 212.78 12.4482C212.652 12.4482 212.588 12.5602 212.588 12.7842C212.588 13.0082 212.524 13.1682 212.396 13.2642C212.268 13.3602 212.044 13.7442 211.724 14.4162C211.436 15.0882 211.244 15.4242 211.148 15.4242C211.084 15.4242 210.956 15.5842 210.764 15.9042C210.572 16.2242 210.508 16.4162 210.572 16.4802C210.604 16.5122 211.18 16.3362 212.3 15.9522C213.228 15.6322 214.028 15.4562 214.7 15.4242C215.404 15.3602 216.668 15.3762 218.492 15.4722C219.324 15.5042 220.14 15.6162 220.94 15.8082C221.772 16.0002 222.188 16.1762 222.188 16.3362C222.188 16.4002 222.364 16.5122 222.716 16.6722C223.068 16.8322 223.324 17.0402 223.484 17.2962C223.612 17.5202 223.66 17.7442 223.628 17.9682C223.596 18.1602 223.452 18.6402 223.196 19.4082C223.132 19.5682 223.084 19.8722 223.052 20.3202C223.052 20.7682 223.02 21.0562 222.956 21.1842C222.892 21.2482 222.86 23.2962 222.86 27.3282C222.892 31.3282 222.94 33.8882 223.004 35.0082C223.004 35.4562 222.972 36.7682 222.908 38.9442C222.812 40.8642 222.668 42.0802 222.476 42.5922C222.284 43.1362 221.74 43.8562 220.844 44.7522C220.364 45.2002 220.028 45.4722 219.836 45.5682C219.676 45.6962 219.532 45.7122 219.404 45.6162C219.116 45.4562 218.796 45.3762 218.444 45.3762C217.964 45.3762 217.644 45.2962 217.484 45.1362C217.324 44.9762 217.228 44.6082 217.196 44.0322C217.132 43.3602 217.02 42.8802 216.86 42.5922C216.732 42.3042 216.156 41.8082 215.132 41.1042C213.82 40.2402 212.988 39.4722 212.636 38.8002C212.508 38.5762 212.492 38.4482 212.588 38.4162C212.748 38.3842 213.052 38.4642 213.5 38.6562C214.236 39.0402 215.068 39.3122 215.996 39.4722C216.956 39.6002 217.66 39.5522 218.108 39.3282C218.332 39.2322 218.476 39.0882 218.54 38.8962C218.604 38.7042 218.668 38.3042 218.732 37.6962C218.796 36.8002 218.812 34.5762 218.78 31.0242C218.78 27.4722 218.764 24.5122 218.732 22.1442C218.732 19.7442 218.652 18.4002 218.492 18.1122C218.332 17.8882 217.948 17.6962 217.34 17.5362C216.764 17.3442 216.108 17.2482 215.372 17.2482C214.732 17.2482 213.948 17.3922 213.02 17.6802C212.124 17.9362 211.324 18.2882 210.62 18.7362C209.884 19.1842 209.372 19.4082 209.084 19.4082C208.796 19.4082 208.652 19.4722 208.652 19.6002C208.652 19.7282 208.412 20.0642 207.932 20.6082C207.452 21.1202 207.004 21.6802 206.588 22.2882C206.236 22.7362 205.516 23.5202 204.428 24.6402C203.372 25.7602 202.62 26.4802 202.172 26.8002C200.7 28.0482 199.724 28.8642 199.244 29.2482C198.764 29.6962 198.204 30.0802 197.564 30.4002C196.956 30.7202 196.492 30.8642 196.172 30.8322L195.644 30.7842L196.124 30.1122C196.508 29.6962 197.1 29.0562 197.9 28.1922C199.02 27.0402 200.22 25.7282 201.5 24.2562C202.044 23.6482 202.668 22.8482 203.372 21.8562C204.076 20.8642 204.508 20.1922 204.668 19.8402C204.988 19.1362 205.628 18.0322 206.588 16.5282C206.716 16.3682 206.828 16.1442 206.924 15.8562C207.052 15.5682 207.26 15.1522 207.548 14.6082C207.772 14.0962 207.98 13.5842 208.172 13.0722C208.396 12.5282 208.54 12.0962 208.604 11.7762C208.7 11.4242 208.716 11.2482 208.652 11.2482C208.524 11.2482 207.98 11.3122 207.02 11.4402C203.916 11.8882 201.612 12.6242 200.108 13.6482C199.212 14.2882 198.412 14.2562 197.708 13.5522C197.42 13.2322 197.132 12.8642 196.844 12.4482C196.556 12.0002 196.412 11.6962 196.412 11.5362C196.412 11.2482 197.02 10.8962 198.236 10.4802C199.452 10.0322 200.732 9.72816 202.076 9.56816C203.164 9.44016 203.804 9.34416 203.996 9.28016C204.092 9.24816 204.988 9.13616 206.684 8.94416C208.412 8.75216 209.372 8.65616 209.564 8.65616C209.66 8.65616 209.82 8.38416 210.044 7.84016L210.572 6.59216C210.764 6.14416 211.02 5.12016 211.34 3.52015C211.532 2.72016 211.676 2.24016 211.772 2.08016C211.868 1.88815 211.948 1.60016 212.012 1.21616C212.076 0.960156 212.14 0.800157 212.204 0.736157C212.3 0.640157 212.492 0.560157 212.78 0.496158Z" fill="#26929D"></path><path d="M245.9 7.31215C245.964 5.42416 246.108 4.36816 246.332 4.14416C246.556 3.92016 247.036 3.84016 247.772 3.90416C248.54 3.93616 249.036 4.09616 249.26 4.38416C249.42 4.57616 249.564 4.99216 249.692 5.63216C249.852 6.27216 249.932 6.86416 249.932 7.40816C249.836 11.6642 249.692 13.9682 249.5 14.3202C249.372 14.5762 249.26 15.2802 249.164 16.4322C249.036 17.6162 248.78 18.4482 248.396 18.9282C248.044 19.4082 247.58 19.5522 247.004 19.3602C246.62 19.2002 246.348 18.9442 246.188 18.5922C246.06 18.2082 246.012 17.5682 246.044 16.6722C246.076 15.5842 246.028 14.8802 245.9 14.5602C245.708 14.1122 245.708 11.6962 245.9 7.31215ZM253.484 0.736157C253.612 0.480157 253.724 0.320156 253.82 0.256155C253.948 0.192156 254.156 0.160156 254.444 0.160156C255.052 0.160156 255.58 0.320156 256.028 0.640156C256.476 0.960155 256.78 1.39216 256.94 1.93616C257.004 2.22416 256.956 3.28016 256.796 5.10415C256.7 5.96815 256.604 7.24816 256.508 8.94416C256.444 10.6402 256.396 12.0802 256.364 13.2642C256.364 14.4482 256.396 15.1202 256.46 15.2802C256.812 15.2802 257.468 14.8802 258.428 14.0802C259.42 13.2482 260.188 12.4322 260.732 11.6322L261.164 11.0082L260.204 10.0002C259.532 9.29616 259.02 8.59216 258.668 7.88816C258.348 7.15216 258.252 6.65616 258.38 6.40016C258.572 6.08016 258.732 5.88816 258.86 5.82416C259.116 5.66416 259.532 5.76016 260.108 6.11216C260.684 6.43216 261.164 6.86416 261.548 7.40816C261.836 7.82416 262.092 8.11216 262.316 8.27216C262.572 8.40016 262.764 8.38416 262.892 8.22416C263.052 8.06416 263.308 7.60015 263.66 6.83216C264.204 5.45616 264.3 4.67216 263.948 4.48016C263.852 4.41616 263.388 4.52816 262.556 4.81616C261.788 5.13616 261.228 5.28016 260.876 5.24816C260.524 5.18416 260.236 4.96016 260.012 4.57616C259.788 4.22416 259.676 4.03216 259.676 4.00015C259.676 3.93616 259.996 3.68016 260.636 3.23216C261.436 2.68816 262.492 2.35216 263.804 2.22416C265.148 2.06416 266.06 2.17616 266.54 2.56016C266.828 2.78415 267.036 2.89615 267.164 2.89615C267.324 2.89615 267.596 3.10415 267.98 3.52015C268.428 3.96815 268.636 4.38416 268.604 4.76816C268.572 5.12016 268.348 5.56816 267.932 6.11216C267.484 6.72016 267.164 7.32816 266.972 7.93616C266.812 8.54416 266.572 9.04016 266.252 9.42416C265.932 9.80816 265.772 10.1122 265.772 10.3362C265.772 11.0082 267.164 11.9522 269.948 13.1682C271.292 13.7762 271.996 14.1282 272.06 14.2242C272.156 14.3202 273.468 14.8162 275.996 15.7122C277.084 16.1282 277.452 16.5762 277.1 17.0562C277.004 17.2162 276.348 17.4562 275.132 17.7762C273.916 18.0962 273.18 18.3362 272.924 18.4962C272.7 18.6562 272.364 18.8002 271.916 18.9282C271.468 19.0242 271.116 19.0562 270.86 19.0242C270.668 18.9922 270.38 18.8642 269.996 18.6402C269.612 18.3842 269.372 18.1762 269.276 18.0162C269.212 17.9522 268.844 17.6962 268.172 17.2482C267.372 16.8002 266.172 15.8882 264.572 14.5122C264.06 14.0642 263.676 13.8082 263.42 13.7442C263.164 13.6482 262.828 13.7442 262.412 14.0322C261.9 14.2882 261.324 14.6562 260.684 15.1362C260.076 15.5842 259.276 15.9362 258.284 16.1922C257.324 16.4482 256.812 16.5762 256.748 16.5762C256.428 16.5122 256.22 16.5442 256.124 16.6722C256.028 16.8002 255.98 17.1362 255.98 17.6802C255.98 18.2242 255.996 18.5602 256.028 18.6882C256.06 18.7842 256.22 18.8322 256.508 18.8322C256.828 18.8642 257.5 18.8802 258.524 18.8802C260.38 18.9442 262.396 19.2322 264.572 19.7442C264.924 19.8402 265.164 19.9522 265.292 20.0802C265.42 20.2082 265.58 20.4802 265.772 20.8962C266.028 21.3762 266.172 21.8722 266.204 22.3842C266.268 22.8642 266.268 23.6962 266.204 24.8802C266.172 25.5522 266.204 26.3042 266.3 27.1362C266.428 27.9362 266.492 29.6002 266.492 32.1282C266.492 34.6242 266.508 36.3042 266.54 37.1682C266.54 38.0642 266.3 39.5522 265.82 41.6322C265.628 42.5282 265.404 43.1682 265.148 43.5522C264.924 43.9682 264.54 44.4642 263.996 45.0402C263.548 45.4242 263.212 45.6642 262.988 45.7602C262.796 45.8882 262.54 45.9522 262.22 45.9522C261.74 45.9522 261.276 45.7122 260.828 45.2322C260.412 44.7842 260.156 44.4482 260.06 44.2242C259.452 42.9762 258.444 41.8402 257.036 40.8162C256.172 40.1442 255.884 39.6962 256.172 39.4722C256.3 39.3122 257.292 39.3762 259.148 39.6642C259.98 39.8562 260.588 39.9042 260.972 39.8082C261.356 39.7122 261.612 39.5202 261.74 39.2322C261.932 38.6242 261.916 34.9282 261.692 28.1442C261.596 25.2962 261.516 23.6162 261.452 23.1042C261.42 22.5602 261.276 22.1922 261.02 22.0002C260.444 21.4242 259.036 21.1362 256.796 21.1362C255.772 21.1362 255.084 21.1682 254.732 21.2322C254.412 21.2962 253.948 21.4562 253.34 21.7122C252.732 22.0322 252.348 22.3042 252.188 22.5282C252.028 22.7202 251.964 23.1362 251.996 23.7762C252.028 24.2562 252.076 24.5442 252.14 24.6402C252.236 24.7042 252.428 24.6722 252.716 24.5442C253.868 24.0002 255.644 23.7442 258.044 23.7762C258.588 23.8082 258.908 23.8562 259.004 23.9202C259.132 23.9522 259.276 24.1442 259.436 24.4962C259.756 25.2322 259.612 25.8722 259.004 26.4162C258.716 26.6722 258.156 26.9602 257.324 27.2802C256.492 27.5682 255.852 27.7122 255.404 27.7122C255.084 27.7122 254.332 27.8882 253.148 28.2402C252.284 28.4962 251.756 28.6882 251.564 28.8162C251.404 28.9442 251.292 29.1682 251.228 29.4882C251.068 29.9362 251.02 30.2082 251.084 30.3042C251.244 30.5282 252.108 30.4962 253.676 30.2082C256.268 29.6962 257.788 29.4242 258.236 29.3922C258.716 29.3602 259.1 29.4882 259.388 29.7762C259.836 30.2242 259.98 30.7682 259.82 31.4082C259.66 32.0162 259.292 32.4802 258.716 32.8002C258.332 32.9922 257.724 33.0562 256.892 32.9922C256.092 32.8962 255.308 32.8962 254.54 32.9922C253.772 33.0882 253.116 33.3762 252.572 33.8562C252.06 34.3362 251.692 34.6562 251.468 34.8162C251.308 34.9122 251.196 35.1202 251.132 35.4402C251.068 35.7282 251.036 36.4802 251.036 37.6962C251.004 41.0562 250.556 42.7682 249.692 42.8322C249.404 42.8322 249.068 42.7202 248.684 42.4962C248.044 42.1122 247.708 41.2162 247.676 39.8082C247.676 39.2322 247.724 38.5442 247.82 37.7442C247.948 36.9442 248.076 36.4002 248.204 36.1122C248.332 35.9202 248.396 35.5362 248.396 34.9602C248.396 34.3522 248.492 33.5682 248.684 32.6082C248.876 31.6162 248.972 30.1922 248.972 28.3362C249.004 26.4802 249.068 25.1842 249.164 24.4482C249.26 23.7122 249.34 22.9282 249.404 22.0962C249.468 21.2642 249.516 20.8002 249.548 20.7042C249.612 20.5762 249.82 20.5442 250.172 20.6082C250.556 20.6722 250.892 20.5762 251.18 20.3202C251.5 20.0322 251.756 19.8242 251.948 19.6962C252.14 19.5362 252.172 19.1042 252.044 18.4002C251.948 17.8562 251.916 16.9122 251.948 15.5682C252.012 14.2242 252.124 13.5202 252.284 13.4562C252.444 13.3602 252.668 10.4002 252.956 4.57616C253.052 2.56016 253.228 1.28016 253.484 0.736157Z" fill="#26929D"></path><path d="M315.212 24.4482C316.236 23.8722 317.164 24.4162 317.996 26.0802C318.348 26.8482 318.444 27.3762 318.284 27.6642C318.156 27.9202 317.708 28.2402 316.94 28.6242C316.172 28.9762 315.596 29.1522 315.212 29.1522C314.796 29.1522 314.204 29.2162 313.436 29.3442C312.7 29.4402 312.3 29.5362 312.236 29.6322C312.172 29.6962 312.396 30.0002 312.908 30.5442C313.42 31.0562 314.044 31.6322 314.78 32.2722C315.356 32.7522 316.364 33.4562 317.804 34.3842C319.276 35.2802 320.524 36.0002 321.548 36.5442C323.02 37.3122 323.948 37.8402 324.332 38.1282C324.716 38.4162 325.42 38.8162 326.444 39.3282C327.564 39.8082 328.204 40.1122 328.364 40.2402C328.556 40.4002 328.668 40.6402 328.7 40.9602C328.732 41.2802 328.652 41.5202 328.46 41.6802C328.268 41.8722 327.996 41.9522 327.644 41.9202C327.388 41.8882 326.892 41.9842 326.156 42.2082C325.42 42.4322 324.492 42.6722 323.372 42.9282L321.644 43.3122L320.54 42.6882C319.804 42.2082 319.388 41.9682 319.292 41.9682C319.228 41.9682 318.86 41.7442 318.188 41.2962C317.516 40.8482 317.036 40.5282 316.748 40.3362C316.492 40.1442 315.852 39.6482 314.828 38.8482C313.772 38.0482 312.956 37.3762 312.38 36.8322C311.804 36.2562 311.164 35.5042 310.46 34.5762C309.308 33.0402 308.572 31.9042 308.252 31.1682C308.156 30.9762 308.044 30.8642 307.916 30.8322C307.82 30.8002 307.548 30.8162 307.1 30.8802L306.14 30.9762L306.812 30.3522L307.436 29.7282L306.956 28.8162C306.636 28.1762 306.444 27.6322 306.38 27.1842C306.284 26.8642 306.268 26.6562 306.332 26.5602C306.396 26.4642 306.572 26.3682 306.86 26.2722C307.628 25.9842 308.476 26.3202 309.404 27.2802C309.852 27.7282 310.204 27.9522 310.46 27.9522C310.62 27.9522 311.308 27.5042 312.524 26.6082C313.74 25.7122 314.476 25.1202 314.732 24.8322C314.796 24.7042 314.956 24.5762 315.212 24.4482ZM305.228 11.9682C306.22 11.8722 307.452 11.8562 308.924 11.9202C310.396 11.9842 311.548 12.0322 312.38 12.0642C313.18 12.1282 313.98 12.2882 314.78 12.5442C315.612 12.7682 316.204 13.0402 316.556 13.3602C316.908 13.7122 317.164 14.1282 317.324 14.6082C317.484 15.0882 317.468 15.4242 317.276 15.6162C317.116 15.8082 317.068 15.9522 317.132 16.0482C317.228 16.1442 318.188 16.2722 320.012 16.4322C322.22 16.6242 323.66 16.8802 324.332 17.2002C325.036 17.5202 325.388 18.0482 325.388 18.7842C325.388 19.1362 325.356 19.3922 325.292 19.5522C325.228 19.6802 325.052 19.8402 324.764 20.0322C324.316 20.3202 323.852 20.4642 323.372 20.4642C322.892 20.4642 322.156 20.2882 321.164 19.9362C320.108 19.5202 319.116 19.2482 318.188 19.1202C317.548 18.9922 317.148 18.9442 316.988 18.9762C316.828 18.9762 316.668 19.0722 316.508 19.2642C316.252 19.5522 316.092 19.9522 316.028 20.4642C315.868 21.1042 315.484 21.9202 314.876 22.9122C314.108 24.0962 313.1 24.5762 311.852 24.3522L310.22 24.0162C309.676 23.9202 308.764 23.8722 307.484 23.8722C306.236 23.8402 305.356 23.8722 304.844 23.9682C304.364 24.0322 304.108 24.1442 304.076 24.3042C304.076 24.4322 304.236 24.7202 304.556 25.1682C304.908 25.5842 305.084 25.9362 305.084 26.2242C305.084 26.8642 304.716 27.5842 303.98 28.3842C303.532 28.8642 303.26 30.7362 303.164 34.0002C303.068 36.6882 303.196 38.0322 303.548 38.0322C303.708 38.0322 304.332 37.6162 305.42 36.7842C306.508 35.9202 307.212 35.4882 307.532 35.4882C307.852 35.4882 308.012 35.5202 308.012 35.5842C308.012 35.7122 307.532 36.5602 306.572 38.1282C306.444 38.3842 306.204 38.7362 305.852 39.1842C305.404 39.7602 304.988 40.4002 304.604 41.1042C304.252 41.8402 304.076 42.3202 304.076 42.5442C304.076 43.2802 303.708 43.8882 302.972 44.3682C302.236 44.8482 301.516 44.9442 300.812 44.6562C300.652 44.5602 300.364 44.1282 299.948 43.3602C299.532 42.6242 299.324 42.1122 299.324 41.8242C299.324 41.6002 299.164 41.3122 298.844 40.9602C298.268 40.3202 298.188 40.0002 298.604 40.0002C298.7 40.0002 298.796 39.8882 298.892 39.6642C298.988 39.4402 299.164 39.1842 299.42 38.8962C299.9 38.3522 300.3 36.8962 300.62 34.5282C300.812 33.1842 300.892 32.3842 300.86 32.1282C300.86 31.8722 300.748 31.7442 300.524 31.7442C300.236 31.7442 299.596 32.1762 298.604 33.0402L297.356 34.0482C297.068 34.3042 296.78 34.5442 296.492 34.7682C296.204 35.0242 295.708 35.4082 295.004 35.9202C294.3 36.4002 293.9 36.6402 293.804 36.6402C293.644 36.6402 293.148 36.9442 292.316 37.5522C290.94 38.4482 290.252 38.7042 290.252 38.3202C290.252 37.8402 291.612 36.3522 294.332 33.8562C295.708 32.5762 296.396 31.8082 296.396 31.5522C296.396 31.4562 296.508 31.3122 296.732 31.1202C297.244 30.6082 298.124 29.5362 299.372 27.9042C300.652 26.2722 301.292 25.3442 301.292 25.1202C301.292 25.0242 301.404 24.8482 301.628 24.5922C301.788 24.4322 301.868 24.3042 301.868 24.2082C301.868 24.0802 301.788 23.8722 301.628 23.5842C301.404 23.1362 301.292 22.5122 301.292 21.7122C301.292 20.8802 301.244 20.3362 301.148 20.0802C301.052 19.8242 300.828 19.6962 300.476 19.6962C300.028 19.6962 299.26 19.8562 298.172 20.1762C296.38 20.7202 294.956 20.7682 293.9 20.3202C293.228 20.0962 292.876 19.7922 292.844 19.4082C292.812 19.0242 293.1 18.7042 293.708 18.4482C294.156 18.2242 295.068 17.9522 296.444 17.6322C297.852 17.3122 298.78 17.1522 299.228 17.1522C299.868 17.1522 300.236 17.0722 300.332 16.9122C300.46 16.7202 300.46 16.2722 300.332 15.5682C300.172 14.4162 300.124 13.7282 300.188 13.5042C300.284 13.2802 300.716 13.0562 301.484 12.8322C302.892 12.3842 304.14 12.0962 305.228 11.9682ZM311.372 13.8882C311.02 13.8242 309.98 13.7762 308.252 13.7442C306.524 13.6802 305.468 13.6802 305.084 13.7442C304.604 13.8082 304.076 13.9362 303.5 14.1282C302.956 14.3202 302.668 14.4962 302.636 14.6562C302.604 14.7522 302.604 15.0722 302.636 15.6162C302.668 16.1282 302.716 16.4322 302.78 16.5282C302.812 16.5602 303.42 16.4962 304.604 16.3362C305.788 16.1762 307.292 16.0642 309.116 16.0002C310.94 15.9362 311.9 15.8562 311.996 15.7602C312.124 15.6642 312.172 15.3602 312.14 14.8482C312.076 14.4962 312.012 14.2722 311.948 14.1762C311.884 14.0802 311.692 13.9842 311.372 13.8882ZM311.18 18.7362C311.18 18.4802 311.1 18.3522 310.94 18.3522C310.78 18.3202 310.236 18.3522 309.308 18.4482C305.724 18.8002 303.82 19.0882 303.596 19.3122C303.404 19.5042 303.388 19.9522 303.548 20.6562L303.74 21.7122L306.236 21.5682C308.028 21.4722 309.164 21.3602 309.644 21.2322C310.124 21.0722 310.492 20.7042 310.748 20.1282C311.036 19.4882 311.18 19.0242 311.18 18.7362ZM305.708 1.26416C306.892 1.20016 307.772 1.28016 308.348 1.50416C308.924 1.69616 309.452 2.12816 309.932 2.80016C310.316 3.34416 310.588 4.11216 310.748 5.10415C310.908 6.06416 311.036 6.60816 311.132 6.73616C311.26 6.86416 312.044 6.94416 313.484 6.97616C315.34 7.04016 316.636 7.15215 317.372 7.31215C318.14 7.44016 318.828 7.72816 319.436 8.17616C320.268 8.78416 320.252 9.55216 319.388 10.4802C318.972 10.8642 318.588 11.0882 318.236 11.1522C317.916 11.2162 317.532 11.1362 317.084 10.9122C315.74 10.2082 313.212 9.88816 309.5 9.95216C306.012 10.0162 303.852 10.0802 303.02 10.1442C302.188 10.2082 301.532 10.3522 301.052 10.5762C299.74 11.1522 298.636 11.2482 297.74 10.8642C297.228 10.6402 296.796 10.3842 296.444 10.0962C296.124 9.77616 295.964 9.53616 295.964 9.37616C295.964 9.18416 296.316 8.92816 297.02 8.60816C297.756 8.25616 298.364 8.04816 298.844 7.98416C299.388 7.92016 300.076 7.82416 300.908 7.69616C301.772 7.53616 302.572 7.45616 303.308 7.45616C304.204 7.45616 304.812 7.40816 305.132 7.31215C305.484 7.18415 305.66 6.97616 305.66 6.68816C305.66 6.40016 305.42 5.76016 304.94 4.76816C304.46 3.77616 304.156 3.28016 304.028 3.28016C303.932 3.28016 303.868 3.18416 303.836 2.99216C303.804 2.76816 303.82 2.52816 303.884 2.27216C303.98 1.98416 304.092 1.79216 304.22 1.69616C304.444 1.47216 304.94 1.32816 305.708 1.26416Z" fill="#26929D"></path><path d="M339.932 20.1282C340.028 19.4882 340.716 19.5202 341.996 20.2242C342.828 20.7362 343.34 21.1522 343.532 21.4722C343.756 21.7602 343.868 22.3042 343.868 23.1042C343.868 24.0322 343.836 24.7842 343.772 25.3602C343.74 25.7442 343.676 25.9682 343.58 26.0322C343.516 26.0962 343.34 26.1122 343.052 26.0802C342.732 26.0802 342.364 25.8402 341.948 25.3602C341.532 24.8802 341.164 24.3042 340.844 23.6322C340.62 23.2162 340.46 23.0082 340.364 23.0082C340.3 23.0082 340.188 22.6082 340.028 21.8082C339.9 20.9762 339.868 20.4162 339.932 20.1282ZM351.116 10.1442C353.1 9.79216 354.412 9.74416 355.052 10.0002C355.308 10.0962 355.612 10.1922 355.964 10.2882C356.22 10.3202 356.38 10.4162 356.444 10.5762C356.508 10.7042 356.572 10.9922 356.636 11.4402C356.732 12.1442 356.7 12.6242 356.54 12.8802C356.284 13.3282 355.132 13.5522 353.084 13.5522C352.156 13.5202 351.324 13.5842 350.588 13.7442C349.884 13.8722 349.036 13.9842 348.044 14.0802C347.084 14.1442 346.476 14.2402 346.22 14.3682C345.996 14.4642 345.756 14.5122 345.5 14.5122C345.244 14.5122 344.524 14.7202 343.34 15.1362C342.028 15.5522 341.212 15.7762 340.892 15.8082C340.604 15.8402 340.284 15.7282 339.932 15.4722C339.612 15.2482 339.324 14.9442 339.068 14.5602C338.844 14.1442 338.732 13.7922 338.732 13.5042C338.732 13.3122 339.276 13.0402 340.364 12.6882C341.484 12.3042 342.14 12.1122 342.332 12.1122C342.78 12.1122 344.636 11.6962 347.9 10.8642C348.732 10.6402 349.804 10.4002 351.116 10.1442ZM345.308 3.80816C346.3 3.68016 346.94 3.68016 347.228 3.80816C347.548 3.90416 348.044 4.27216 348.716 4.91216L350.012 6.16016V7.40816C350.012 8.01616 349.964 8.41616 349.868 8.60816C349.804 8.76816 349.612 9.00816 349.292 9.32816C348.908 9.68016 348.524 9.88816 348.14 9.95216C347.756 10.0162 347.436 9.92016 347.18 9.66416L346.748 9.13616C346.556 8.91216 346.252 8.36816 345.836 7.50416C345.452 6.60816 345.26 6.06416 345.26 5.87216C345.26 5.61616 345.164 5.40816 344.972 5.24816C344.78 5.08816 344.684 4.83216 344.684 4.48016C344.684 4.22416 344.716 4.06416 344.78 4.00015C344.844 3.90416 345.02 3.84016 345.308 3.80816ZM360.764 1.55216C361.436 1.39216 361.964 1.36016 362.348 1.45616C362.732 1.52016 363.852 1.58416 365.708 1.64816C367.596 1.68016 368.86 1.82416 369.5 2.08016C370.076 2.27216 370.684 2.60816 371.324 3.08816C371.964 3.53616 372.348 3.90416 372.476 4.19216C372.636 4.48016 372.684 4.94416 372.62 5.58416C372.556 6.19216 372.444 6.62416 372.284 6.88016C372.06 7.20016 371.916 7.53616 371.852 7.88816C371.788 8.24016 371.676 8.41615 371.516 8.41615C371.388 8.41615 371.324 8.57616 371.324 8.89616C371.324 9.18416 371.26 9.39215 371.132 9.52015C371.004 9.61616 370.796 10.3042 370.508 11.5842C370.252 12.8322 370.124 13.7282 370.124 14.2722C370.124 14.7202 369.932 15.5842 369.548 16.8642C369.164 18.1122 368.828 18.9122 368.54 19.2642C368.316 19.5522 368.06 19.6642 367.772 19.6002C367.516 19.5042 367.116 19.2002 366.572 18.6882L365.756 17.9202L364.412 18.1122C363.804 18.1762 363.116 18.3522 362.348 18.6402C361.612 18.9282 361.244 19.1362 361.244 19.2642C361.244 19.3922 361.372 19.5842 361.628 19.8402C361.916 20.0962 362.06 20.3682 362.06 20.6562C362.06 21.0722 361.884 21.5522 361.532 22.0962C361.18 22.6082 360.78 23.0242 360.332 23.3442C358.604 24.5282 357.74 25.2162 357.74 25.4082C357.74 25.5042 357.788 25.5522 357.884 25.5522C357.98 25.5522 357.996 26.0802 357.932 27.1362C357.9 28.1602 357.932 29.0242 358.028 29.7282L358.22 30.7842L359.708 29.0562C360.572 28.0642 361.372 27.0402 362.108 25.9842C362.844 24.9282 363.212 24.2722 363.212 24.0162C363.212 23.7602 363.052 23.4882 362.732 23.2002C362.444 22.9122 362.316 22.6562 362.348 22.4322C362.54 21.8242 363.724 21.4082 365.9 21.1842C368.076 20.9282 370.14 21.0082 372.092 21.4242C373.34 21.6482 374.268 21.8082 374.876 21.9042C375.484 22.0002 376.012 22.2722 376.46 22.7202C376.78 23.0402 376.972 23.3122 377.036 23.5362C377.1 23.7282 377.132 24.1602 377.132 24.8322C377.132 25.7922 377.052 26.5122 376.892 26.9922C376.732 27.4722 376.652 28.2082 376.652 29.2002C376.652 30.1602 376.572 30.7682 376.412 31.0242C376.252 31.2482 376.124 31.6642 376.028 32.2722C375.932 32.8802 375.82 33.3762 375.692 33.7602C375.148 35.3602 374.876 36.3522 374.876 36.7362C374.876 37.1842 374.636 37.8562 374.156 38.7522C373.58 39.7762 373.292 40.4002 373.292 40.6242C373.292 40.7842 372.924 41.3922 372.188 42.4482C371.484 43.5362 370.924 44.1282 370.508 44.2242C370.124 44.3202 369.9 44.4162 369.836 44.5122C369.644 44.8322 369.388 44.6722 369.068 44.0322C368.844 43.6162 368.396 43.1522 367.724 42.6402C367.084 42.1602 366.764 41.8722 366.764 41.7762C366.764 41.6802 366.572 41.5202 366.188 41.2962C365.388 40.7842 365.66 40.4642 367.004 40.3362C367.068 40.3362 367.148 40.3362 367.244 40.3362C368.076 40.2402 368.668 40.1122 369.02 39.9522C369.308 39.7922 369.596 39.4722 369.884 38.9922C370.204 38.4802 370.364 38.0482 370.364 37.6962C370.364 37.3442 370.428 37.0402 370.556 36.7842C370.716 36.5282 370.844 36.0962 370.94 35.4882C371.036 34.8802 371.196 34.1122 371.42 33.1842C371.836 31.2642 372.028 28.9442 371.996 26.2242C371.964 24.9762 371.756 24.1762 371.372 23.8242C370.988 23.4402 370.028 23.1842 368.492 23.0562C366.828 22.9602 366.028 23.1042 366.092 23.4882C366.092 23.5202 366.124 23.5682 366.188 23.6322C366.572 24.0802 366.428 24.7042 365.756 25.5042C365.404 25.8882 365.084 26.3042 364.796 26.7522C364.508 27.1682 364.38 27.3922 364.412 27.4242C364.476 27.4562 365.02 27.5842 366.044 27.8082C366.972 28.0002 367.804 28.2562 368.54 28.5762C369.308 28.8962 369.804 29.2162 370.028 29.5362C370.22 29.7922 370.316 30.2722 370.316 30.9762C370.348 31.6802 370.268 32.0962 370.076 32.2242C369.916 32.3522 369.628 32.4642 369.212 32.5602C368.956 32.6242 368.716 32.6082 368.492 32.5122C368.3 32.4162 367.98 32.1762 367.532 31.7922C366.828 31.2162 366.268 30.8322 365.852 30.6402C365.436 30.4162 364.94 30.0322 364.364 29.4882L363.548 28.7202L362.732 29.5362C361.676 30.6882 360.46 31.7122 359.084 32.6082L358.268 33.1362L358.412 34.3362C358.476 35.1362 358.54 35.5682 358.604 35.6322C358.668 35.6642 359.612 35.5362 361.436 35.2482C363.292 34.9602 364.476 34.8162 364.988 34.8162C366.396 34.8162 367.228 35.5042 367.484 36.8802C367.548 37.3602 367.436 37.7602 367.148 38.0802C366.924 38.3042 366.668 38.4482 366.38 38.5122C366.124 38.5442 365.532 38.5922 364.604 38.6562C363.228 38.7202 362.252 38.8322 361.676 38.9922L360.044 39.4242C359.5 39.5522 358.924 39.9522 358.316 40.6242C358.092 40.8802 357.868 40.9762 357.644 40.9122C357.42 40.8802 357.212 40.7042 357.02 40.3842C356.828 40.0642 356.732 39.7122 356.732 39.3282C356.732 38.9442 356.54 38.5122 356.156 38.0322C355.932 37.7122 355.788 37.4722 355.724 37.3122C355.692 37.1522 355.724 36.8962 355.82 36.5442C355.98 35.7122 356.076 33.9362 356.108 31.2162C356.14 28.4642 356.076 27.0082 355.916 26.8482C355.82 26.7522 355.66 26.7522 355.436 26.8482C355.244 26.9122 354.764 27.2322 353.996 27.8082C353.612 28.0642 353.372 28.2562 353.276 28.3842C353.212 28.5122 353.18 28.7842 353.18 29.2002C353.18 29.7442 353.004 30.2242 352.652 30.6402C352.46 30.9282 352.252 31.1042 352.028 31.1682C351.804 31.2002 351.292 31.2162 350.492 31.2162C349.308 31.2162 348.06 31.3602 346.748 31.6482C345.82 31.8402 344.78 32.1602 343.628 32.6082C342.476 33.0562 341.756 33.4242 341.468 33.7122C341.084 34.0962 340.652 34.2242 340.172 34.0962C339.724 33.9362 339.148 33.4722 338.444 32.7042C337.836 32.0962 337.676 31.5682 337.964 31.1202C338.252 30.6722 339.132 30.1122 340.604 29.4402C341.82 28.8642 342.748 28.2562 343.388 27.6162C343.996 27.0082 344.7 26.1762 345.5 25.1202C346.332 24.0642 346.908 23.2322 347.228 22.6242C347.772 21.6002 348.252 20.2242 348.668 18.4962C349.084 16.7362 349.196 15.7602 349.004 15.5682C348.876 15.4402 348.956 15.3282 349.244 15.2322C349.308 15.2002 349.388 15.1682 349.484 15.1362C350.156 14.9122 350.78 14.9762 351.356 15.3282C351.964 15.6482 352.444 16.1122 352.796 16.7202C353.18 17.3282 353.356 18.0002 353.324 18.7362C353.324 19.4722 353.084 20.0962 352.604 20.6082C352.316 20.8962 351.964 21.4402 351.548 22.2402C351.164 23.0082 350.876 23.6482 350.684 24.1602C350.588 24.4802 350.364 24.9122 350.012 25.4562C349.564 26.0322 349.372 26.4002 349.436 26.5602C349.5 26.6882 349.868 26.7522 350.54 26.7522C351.244 26.7522 351.724 26.8322 351.98 26.9922C352.268 27.1202 352.444 27.0722 352.508 26.8482C352.604 26.5922 352.924 26.1922 353.468 25.6482L355.676 23.5842C356.636 22.6562 357.116 22.1442 357.116 22.0482C357.116 21.9202 357.244 21.7922 357.5 21.6642C357.756 21.5042 357.884 21.3602 357.884 21.2322C357.884 21.1042 358.156 20.7042 358.7 20.0322C359.116 19.4562 359.34 19.0882 359.372 18.9282C359.436 18.7362 359.388 18.5442 359.228 18.3522C359.036 18.1922 358.924 17.7442 358.892 17.0082C358.892 16.2402 358.796 15.7122 358.604 15.4242C358.444 15.1362 358.316 14.4162 358.22 13.2642C358.092 11.8242 357.932 10.0802 357.74 8.03216C357.612 6.97616 357.58 6.32016 357.644 6.06416C357.708 5.77616 357.9 5.63216 358.22 5.63216C358.572 5.63216 358.86 5.76016 359.084 6.01616C359.34 6.27216 359.468 6.59216 359.468 6.97616C359.468 7.45616 359.548 7.93616 359.708 8.41615L359.852 9.13616L361.196 8.80016C362.092 8.54416 362.86 8.41615 363.5 8.41615C363.916 8.41615 364.188 8.44816 364.316 8.51216C364.476 8.57616 364.668 8.78416 364.892 9.13616C365.212 9.64816 365.372 10.1122 365.372 10.5282C365.372 10.7842 365.324 10.9762 365.228 11.1042C365.164 11.2002 364.972 11.2802 364.652 11.3442C364.14 11.4722 363.628 11.5362 363.116 11.5362C362.604 11.5362 361.98 11.6322 361.244 11.8242C360.7 11.9202 360.364 12.0162 360.236 12.1122C360.108 12.1762 360.044 12.3202 360.044 12.5442C360.044 12.8962 360.22 13.4562 360.572 14.2242C360.924 14.9602 361.1 15.4242 361.1 15.6162C361.1 15.8402 361.196 15.9522 361.388 15.9522C361.58 15.9522 361.996 15.8722 362.636 15.7122C363.436 15.4562 364.188 15.3282 364.892 15.3282H365.996V14.6082C365.996 14.1282 366.06 13.7762 366.188 13.5522C366.38 13.2002 366.588 12.1122 366.812 10.2882C367.036 8.46416 367.148 7.05616 367.148 6.06416C367.148 4.97616 367.068 4.33615 366.908 4.14416C366.78 3.95216 366.108 3.80816 364.892 3.71216C363.996 3.64816 362.844 3.77616 361.436 4.09616C360.06 4.38416 359.244 4.60816 358.988 4.76816C358.54 5.08816 358.124 5.05616 357.74 4.67216C357.484 4.41616 357.244 4.24016 357.02 4.14416C356.54 3.85616 356.86 3.36016 357.98 2.65616C358.876 2.04816 359.804 1.68016 360.764 1.55216Z" fill="#26929D"></path><path d="M407.948 22.5762C408.524 22.0962 408.972 21.8242 409.292 21.7602C409.644 21.6962 410.124 21.8082 410.732 22.0962C411.308 22.3522 411.692 22.4802 411.884 22.4802C412.076 22.4802 412.412 22.6242 412.892 22.9122C413.404 23.1682 413.836 23.4562 414.188 23.7762C414.54 24.1282 414.716 24.5922 414.716 25.1682C414.716 25.5522 414.668 25.8402 414.572 26.0322C414.476 26.2242 414.252 26.4802 413.9 26.8002C413.516 27.1842 413.244 27.4242 413.084 27.5202C412.924 27.5842 412.54 27.5682 411.932 27.4722C411.388 27.4402 410.988 27.3762 410.732 27.2802C410.476 27.1522 410.012 26.7682 409.34 26.1282C407.708 24.5602 406.892 23.7282 406.892 23.6322C406.892 23.5362 407.244 23.1842 407.948 22.5762ZM395.612 21.4722C396.028 21.4722 396.492 21.3922 397.004 21.2322C397.548 21.0402 397.868 20.9442 397.964 20.9442C398.092 20.9442 398.3 21.0242 398.588 21.1842C398.908 21.4402 399.132 21.7922 399.26 22.2402C399.388 22.6562 399.356 23.0722 399.164 23.4882C398.972 23.9682 398.732 24.2882 398.444 24.4482C398.156 24.6082 397.628 24.7362 396.86 24.8322L394.316 25.1202C393.772 25.1842 393.404 25.2002 393.212 25.1682C393.052 25.1042 392.828 24.8962 392.54 24.5442C392.028 24.0962 391.804 23.7762 391.868 23.5842C391.9 23.3602 392.46 22.9602 393.548 22.3842C394.636 21.8082 395.324 21.5042 395.612 21.4722ZM413.276 2.27216C413.404 1.82416 413.516 1.56816 413.612 1.50416C413.74 1.40816 413.948 1.36016 414.236 1.36016C414.652 1.36016 415.1 1.50416 415.58 1.79216C416.06 1.98416 416.588 2.40016 417.164 3.04016C417.74 3.64816 418.028 4.04816 418.028 4.24016C418.028 4.46416 417.836 4.81616 417.452 5.29616C417.068 5.74416 416.876 6.06416 416.876 6.25616C416.876 6.44816 416.668 6.73616 416.252 7.12016C415.868 7.50416 415.676 7.76016 415.676 7.88816C415.676 8.01616 415.5 8.36816 415.148 8.94416C414.796 9.48816 414.508 9.92016 414.284 10.2402C413.932 10.6882 413.596 11.1522 413.276 11.6322C412.956 12.0802 412.7 12.4642 412.508 12.7842C412.348 13.0722 412.3 13.2162 412.364 13.2162C412.46 13.3122 412.844 13.2322 413.516 12.9762C414.156 12.7522 414.988 12.6082 416.012 12.5442C417.036 12.4482 417.868 12.4482 418.508 12.5442C419.18 12.6402 419.676 12.7042 419.996 12.7362C421.244 12.8962 421.916 13.0882 422.012 13.3122C422.108 13.4402 422.268 13.5042 422.492 13.5042C422.748 13.5042 423.052 13.6962 423.404 14.0802L424.364 15.0882C424.556 15.3442 424.636 15.8402 424.604 16.5762C424.604 17.2802 424.492 17.8082 424.268 18.1602C423.82 18.7682 423.532 20.8642 423.404 24.4482C423.308 26.3362 423.1 28.3202 422.78 30.4002C422.716 30.9122 422.684 31.3122 422.684 31.6002C422.716 31.8562 422.652 32.2242 422.492 32.7042C422.236 33.6642 422.044 34.6242 421.916 35.5842C421.788 36.9602 421.26 38.2402 420.332 39.4242C419.852 40.0962 419.612 40.4962 419.612 40.6242C419.612 40.7522 419.18 41.2322 418.316 42.0642C417.452 42.9282 416.956 43.3602 416.828 43.3602C416.636 43.3602 416.348 43.4882 415.964 43.7442C415.58 44.0322 415.116 44.2082 414.572 44.2722C414.028 44.3362 413.756 44.4322 413.756 44.5602C413.756 44.6882 413.564 44.7522 413.18 44.7522C412.796 44.7522 412.332 44.4962 411.788 43.9842C411.276 43.5042 411.02 43.2162 411.02 43.1202C411.02 43.0242 410.54 42.4642 409.58 41.4402C408.588 40.3202 407.916 39.4242 407.564 38.7522C407.436 38.4642 407.5 38.3522 407.756 38.4162C408.012 38.4802 408.412 38.6402 408.956 38.8962C409.66 39.2162 410.22 39.4082 410.636 39.4722C411.052 39.5042 411.596 39.4402 412.268 39.2802C412.652 39.1522 412.956 38.9922 413.18 38.8002C413.404 38.6082 413.772 38.1762 414.284 37.5042C415.02 36.5442 415.484 35.9042 415.676 35.5842C416.092 34.9442 416.524 33.5522 416.972 31.4082C417.42 29.2642 417.772 27.0082 418.028 24.6402C418.156 23.2642 418.316 21.8402 418.508 20.3682C418.7 18.8962 418.796 17.6482 418.796 16.6242V15.0882L418.22 14.9922C417.58 14.8322 416.684 14.8802 415.532 15.1362C414.412 15.3602 413.66 15.6162 413.276 15.9042C412.924 16.1922 412.604 16.3202 412.316 16.2882C412.028 16.2562 411.708 16.0322 411.356 15.6162C410.812 15.0082 410.444 14.8962 410.252 15.2802C410.22 15.5042 409.532 16.1922 408.188 17.3442C406.844 18.4642 406.06 19.1682 405.836 19.4562C405.644 19.7122 405.516 20.5442 405.452 21.9522C405.388 23.3922 405.244 25.1682 405.02 27.2802C404.828 29.3922 404.668 30.6562 404.54 31.0722C404.444 31.5202 404.252 32.0642 403.964 32.7042C403.676 33.3442 403.532 33.7122 403.532 33.8082C403.532 34.0322 403.276 34.5282 402.764 35.2962C402.284 36.0642 401.836 36.6402 401.42 37.0242C400.94 37.6002 400.572 37.9202 400.316 37.9842C400.092 38.0162 399.804 37.8882 399.452 37.6002C399.164 37.3122 398.796 36.7842 398.348 36.0162C397.932 35.2482 397.676 34.6562 397.58 34.2402C397.452 33.6002 397.084 33.2162 396.476 33.0882C395.9 32.9602 395.052 33.0562 393.932 33.3762C393.484 33.5042 393.18 33.6162 393.02 33.7122C392.86 33.7762 392.764 33.9362 392.732 34.1922C392.668 34.6082 392.476 34.9922 392.156 35.3442C391.836 35.6642 391.548 35.7922 391.292 35.7282C391.132 35.6642 390.956 35.4722 390.764 35.1522C390.572 34.8002 390.476 34.4802 390.476 34.1922C390.476 33.9682 390.396 33.7922 390.236 33.6642C390.14 33.5682 390.076 33.1042 390.044 32.2722C390.012 31.4082 390.044 30.8162 390.14 30.4962C390.236 30.2402 390.172 28.9442 389.948 26.6082C389.756 24.2722 389.58 22.7362 389.42 22.0002C389.132 20.7522 389.228 19.9842 389.708 19.6962C389.932 19.5042 390.236 19.6162 390.62 20.0322C390.908 20.2882 391.084 20.5922 391.148 20.9442C391.244 21.2642 391.372 22.0802 391.532 23.3922C391.724 25.1842 391.9 26.7682 392.06 28.1442C392.156 29.3602 392.268 30.0802 392.396 30.3042C392.556 30.5282 392.876 30.5602 393.356 30.4002C393.868 30.2082 394.636 30.0002 395.66 29.7762C396.684 29.5522 397.308 29.3922 397.532 29.2962C397.756 29.2002 398.06 29.2482 398.444 29.4402C398.828 29.6322 399.052 29.8562 399.116 30.1122C399.308 30.7522 399.58 30.6242 399.932 29.7282C400.124 29.1202 400.3 28.3522 400.46 27.4242C400.556 26.6562 400.652 26.0322 400.748 25.5522C400.812 25.1682 400.828 24.9442 400.796 24.8802C400.764 24.8162 400.604 24.8002 400.316 24.8322L399.788 24.9762L400.268 24.4482C400.588 24.1282 400.796 23.6802 400.892 23.1042C400.988 22.5282 401.068 21.3762 401.132 19.6482C401.196 18.4002 401.212 17.6162 401.18 17.2962C401.148 16.9762 401.052 16.7842 400.892 16.7202C400.7 16.6562 399.836 16.6242 398.3 16.6242C396.764 16.5922 395.452 16.7522 394.364 17.1042C393.276 17.4562 392.588 17.7602 392.3 18.0162C392.044 18.2402 391.708 18.3202 391.292 18.2562C390.876 18.1922 390.316 18.4002 389.612 18.8802C388.94 19.3282 388.364 19.7762 387.884 20.2242C387.18 20.8642 386.684 21.1522 386.396 21.0882C386.332 21.0882 386.348 21.0242 386.444 20.8962L390.188 15.9042C393.324 11.7762 395.084 9.26416 395.468 8.36816C395.532 8.20816 395.836 7.68016 396.38 6.78416C396.892 5.92016 397.308 5.48816 397.628 5.48816C397.948 5.48816 398.476 5.87216 399.212 6.64016C399.884 7.40816 400.22 7.90416 400.22 8.12816C400.22 8.25616 399.884 8.68816 399.212 9.42416C398.54 10.1282 397.82 10.8002 397.052 11.4402C396.732 11.7282 396.124 12.3682 395.228 13.3602C394.332 14.3522 393.82 14.9602 393.692 15.1842C393.628 15.3762 393.66 15.4562 393.788 15.4242C393.852 15.4242 393.996 15.3922 394.22 15.3282C397.356 14.6882 400.14 14.6242 402.572 15.1362C404.012 15.4562 405.068 15.9362 405.74 16.5762C406.092 16.8962 406.316 16.9602 406.412 16.7682C406.764 16.2562 407.036 15.7762 407.228 15.3282C407.388 15.0722 407.596 14.7522 407.852 14.3682C408.62 13.1522 410.028 10.1442 412.076 5.34416C412.364 4.64016 412.764 3.61616 413.276 2.27216Z" fill="#26929D"></path><path d="M448.988 3.18416C451.388 3.02416 453.516 3.23216 455.372 3.80816C456.556 4.19216 457.276 4.36816 457.532 4.33616C457.916 4.30416 458.636 4.60816 459.692 5.24816C460.78 5.85616 461.452 6.36816 461.708 6.78416C461.9 7.13616 461.996 7.48816 461.996 7.84016C461.996 8.22416 461.852 8.67216 461.564 9.18416C461.308 9.66416 461.004 10.0002 460.652 10.1922C459.948 10.6402 459.5 11.5522 459.308 12.9282L459.068 15.5202C458.908 16.5442 458.828 18.1762 458.828 20.4162V23.8722L459.644 26.1762C460.156 27.6482 460.572 28.7042 460.892 29.3442C461.212 29.9842 461.644 30.6242 462.188 31.2642C463.116 32.3842 464.396 33.5362 466.028 34.7202C467.692 35.8722 468.844 36.4482 469.484 36.4482C469.772 36.4482 470.14 36.1922 470.588 35.6802C471.068 35.1362 471.468 34.5442 471.788 33.9042C472.204 33.0402 472.412 32.5442 472.412 32.4162C472.412 32.2562 472.492 32.0162 472.652 31.6962C472.844 31.3442 473.02 30.8642 473.18 30.2562C473.5 29.0082 473.74 28.3682 473.9 28.3362C474.284 28.1762 474.412 29.2162 474.284 31.4562C474.22 32.4802 474.236 33.5682 474.332 34.7202C474.46 35.8722 474.636 36.5762 474.86 36.8322C475.02 36.9922 475.068 37.6002 475.004 38.6562C475.004 40.2882 474.556 41.5042 473.66 42.3042C472.732 43.2002 470.588 43.1842 467.228 42.2562C466.652 42.0962 465.948 41.8242 465.116 41.4402C464.284 41.0562 463.756 40.7522 463.532 40.5282C463.34 40.3362 463.004 40.1122 462.524 39.8562C462.076 39.5682 461.852 39.3602 461.852 39.2322C461.852 39.1042 461.308 38.4962 460.22 37.4082C459.164 36.2882 458.572 35.6002 458.444 35.3442C458.316 35.0882 458.124 34.7522 457.868 34.3362C456.94 32.9602 456.3 31.2802 455.948 29.2962C455.724 28.0482 455.532 27.4402 455.372 27.4722C455.276 27.5042 455.228 27.6482 455.228 27.9042C455.228 28.1922 455.132 28.7202 454.94 29.4882C454.78 29.9682 454.636 30.3042 454.508 30.4962C454.38 30.6882 454.188 30.8482 453.932 30.9762C453.228 31.2962 452.588 31.1362 452.012 30.4962L450.716 29.0082C450.14 28.4002 449.852 28.0162 449.852 27.8562C449.852 27.6962 449.772 27.5362 449.612 27.3762C449.452 27.1842 449.308 27.0882 449.18 27.0882C449.02 27.0882 448.652 27.4882 448.076 28.2882C447.5 29.0562 446.876 29.7282 446.204 30.3042L443.756 32.4642C442.572 33.5202 441.82 34.1602 441.5 34.3842C441.212 34.5762 440.972 34.6402 440.78 34.5762C440.524 34.4802 440.028 34.8482 439.292 35.6802C438.588 36.5122 438.092 37.1362 437.804 37.5522C437.292 38.3202 436.7 38.9122 436.028 39.3282C435.708 39.5842 435.148 39.8562 434.348 40.1442C433.548 40.4642 432.94 40.6722 432.524 40.7682C432.268 40.8322 432.108 40.8322 432.044 40.7682C431.98 40.7042 431.996 40.5602 432.092 40.3362C432.188 39.9202 432.316 39.6642 432.476 39.5682C432.668 39.4722 432.764 39.3602 432.764 39.2322C432.764 39.1042 432.972 38.8322 433.388 38.4162C433.836 37.9682 434.332 37.4082 434.876 36.7362L436.172 35.1522C436.492 34.7682 436.796 34.3682 437.084 33.9522C437.34 33.5682 437.676 32.8802 438.092 31.8882C438.508 30.8642 438.716 30.2722 438.716 30.1122C438.716 29.9202 438.892 29.3442 439.244 28.3842C439.692 27.0082 439.98 25.5042 440.108 23.8722C440.268 22.2402 440.332 19.7122 440.3 16.2882L440.252 10.0002L440.684 9.52015C440.908 9.29616 441.052 9.18416 441.116 9.18416C441.212 9.15216 441.404 9.20016 441.692 9.32816C442.044 9.55216 442.284 9.80816 442.412 10.0962C442.572 10.3842 442.732 10.6242 442.892 10.8162C443.052 11.0082 443.084 11.1842 442.988 11.3442C442.924 11.4722 443.004 11.9522 443.228 12.7842C443.452 13.6162 443.516 14.2402 443.42 14.6562C443.356 15.0402 443.308 16.4642 443.276 18.9282C443.276 21.3602 443.18 22.9762 442.988 23.7762C442.796 24.5762 442.7 25.2322 442.7 25.7442C442.7 26.2242 442.572 27.0242 442.316 28.1442C442.06 29.2642 441.804 30.1922 441.548 30.9282C441.26 31.6002 441.148 31.9682 441.212 32.0322C441.276 32.0642 441.324 32.0642 441.356 32.0322C441.388 32.0002 441.836 31.4402 442.7 30.3522C443.884 28.9442 444.972 27.5522 445.964 26.1762C446.988 24.7682 447.5 23.9682 447.5 23.7762C447.5 23.5202 446.892 22.7042 445.676 21.3282C444.492 19.9522 443.9 19.1682 443.9 18.9762C443.9 18.5922 444.444 18.3682 445.532 18.3042C446.204 18.2722 446.668 18.3042 446.924 18.4002C447.18 18.4642 447.628 18.7042 448.268 19.1202C449.068 19.6322 449.532 19.8882 449.66 19.8882C449.788 19.8882 449.884 19.7442 449.948 19.4562C450.012 19.1682 450.204 18.4002 450.524 17.1522C450.844 15.8722 451.02 14.9442 451.052 14.3682C451.084 13.4082 451.34 12.9282 451.82 12.9282C452.044 12.9282 452.476 13.1522 453.116 13.6002C453.788 14.0482 454.14 14.3842 454.172 14.6082L454.46 16.1442C454.556 16.8482 454.54 17.2802 454.412 17.4402C454.284 17.6002 454.108 17.9202 453.884 18.4002L453.212 19.6002C452.572 20.8162 452.22 21.6962 452.156 22.2402C452.124 22.7522 452.364 23.2962 452.876 23.8722C453.26 24.2882 453.452 24.5762 453.452 24.7362C453.452 25.1522 453.884 25.6322 454.748 26.1762L455.276 26.5602L455.18 25.4562C455.116 24.7522 455.004 23.8082 454.844 22.6242C454.716 21.4082 454.684 20.2562 454.748 19.1682C455.068 15.0722 455.436 11.6322 455.852 8.84816C455.98 8.08016 455.916 7.45616 455.66 6.97616C455.564 6.68816 455.404 6.48016 455.18 6.35216C454.956 6.19216 454.54 6.01616 453.932 5.82416C453.004 5.47216 451.644 5.29616 449.852 5.29616C448.06 5.29616 446.78 5.40816 446.012 5.63216L444.188 6.16016C443.772 6.32016 443.452 6.52816 443.228 6.78416C443.004 7.04016 442.764 7.16816 442.508 7.16816C442.252 7.16816 442.124 6.91216 442.124 6.40016C442.124 6.08016 442.172 5.84016 442.268 5.68016C442.364 5.48816 442.588 5.21616 442.94 4.86416C444.06 3.93616 446.076 3.37616 448.988 3.18416Z" fill="#26929D"></path><path d="M493.052 26.8002C493.276 26.5122 493.452 26.3682 493.58 26.3682C493.772 26.3682 494.172 26.5602 494.78 26.9442C495.388 27.2962 495.724 27.5522 495.788 27.7122C495.884 27.8722 496.092 28.0162 496.412 28.1442C496.732 28.2722 496.892 28.4482 496.892 28.6722C496.892 28.8642 497.052 29.1842 497.372 29.6322C497.628 29.9842 497.788 30.3202 497.852 30.6402C497.916 30.9602 497.932 31.4882 497.9 32.2242C497.9 32.6082 497.852 32.8642 497.756 32.9922C497.692 33.1202 497.5 33.2482 497.18 33.3762C496.732 33.5682 496.38 33.6162 496.124 33.5202C495.9 33.3922 495.516 33.0242 494.972 32.4162C494.076 31.4562 493.42 30.2882 493.004 28.9122C492.716 27.9522 492.732 27.2482 493.052 26.8002ZM499.292 24.3522C499.836 24.0322 500.716 24.3042 501.932 25.1682C503.148 26.0002 503.756 26.7682 503.756 27.4722C503.756 28.4642 503.42 29.1522 502.748 29.5362C502.108 29.9202 501.468 29.7922 500.828 29.1522C500.476 28.7362 500.172 28.3362 499.916 27.9522C499.692 27.5362 499.532 27.3282 499.436 27.3282C499.34 27.3282 499.196 27.0562 499.004 26.5122C498.908 26.0962 498.876 25.6642 498.908 25.2162C498.972 24.7362 499.1 24.4482 499.292 24.3522ZM506.732 23.5842L507.596 23.6802C508.3 23.8082 508.764 23.9042 508.988 23.9682C509.244 24.0322 509.5 24.1922 509.756 24.4482C510.588 25.2482 510.94 26.0162 510.812 26.7522C510.748 27.0082 510.524 27.3762 510.14 27.8562C509.756 28.3042 509.404 28.6402 509.084 28.8642C508.924 28.9602 508.572 29.3282 508.028 29.9682C507.228 30.9922 506.604 31.7122 506.156 32.1282C505.74 32.5122 504.796 33.2482 503.324 34.3362C502.748 34.8482 502.38 35.2322 502.22 35.4882C502.124 35.6482 502.22 35.7442 502.508 35.7762C502.828 35.8082 504.14 35.7922 506.444 35.7282L510.86 35.6322L511.58 36.4002C512.06 36.8482 512.3 37.3762 512.3 37.9842C512.3 38.3682 512.252 38.6562 512.156 38.8482C512.06 39.0082 511.852 39.2322 511.532 39.5202C511.212 39.8402 510.956 40.0162 510.764 40.0482C510.604 40.1122 510.3 40.1282 509.852 40.0962C505.788 39.7442 503.212 39.6162 502.124 39.7122C498.412 40.1922 496.204 40.6082 495.5 40.9602C494.028 41.6962 492.86 41.2162 491.996 39.5202L491.612 38.7522L492.14 38.2242C492.46 37.8722 493.068 37.5522 493.964 37.2642C494.86 36.9762 495.836 36.7842 496.892 36.6882C497.756 36.6242 498.364 36.5122 498.716 36.3522C499.068 36.1602 499.404 35.7922 499.724 35.2482C500.076 34.7362 500.636 34.0482 501.404 33.1842C501.884 32.6402 502.428 31.8882 503.036 30.9282C503.676 29.9682 504.108 29.2162 504.332 28.6722C504.428 28.5442 504.844 27.9202 505.58 26.8002C506.348 25.6482 506.732 24.8322 506.732 24.3522V23.5842ZM500.54 18.5922C502.3 18.3362 503.644 18.2722 504.572 18.4002C505.5 18.4962 506.172 18.7842 506.588 19.2642C507.26 20.0642 507.42 20.7042 507.068 21.1842C506.94 21.3442 506.684 21.4402 506.3 21.4722C505.916 21.5042 505.036 21.5362 503.66 21.5682C500.716 21.5682 498.652 21.8562 497.468 22.4322C496.348 22.9762 495.404 22.8162 494.636 21.9522C494.092 21.2162 494.204 20.6242 494.972 20.1762C495.676 19.7282 496.396 19.3922 497.132 19.1682C497.9 18.9442 499.036 18.7522 500.54 18.5922ZM499.82 3.13616C499.98 2.81616 500.108 2.64016 500.204 2.60816C500.3 2.57616 500.524 2.57616 500.876 2.60816C501.324 2.67216 501.66 2.78416 501.884 2.94416C502.108 3.10416 502.364 3.39216 502.652 3.80816C503.228 4.67216 502.924 5.98416 501.74 7.74416C501.42 8.22416 501.276 8.54416 501.308 8.70416C501.34 8.86416 501.58 8.99216 502.028 9.08816C502.412 9.15216 502.844 9.39216 503.324 9.80816C503.836 10.2242 504.476 10.7042 505.244 11.2482C506.044 11.7602 506.892 12.4002 507.788 13.1682C508.716 13.9362 509.244 14.3202 509.372 14.3202C509.532 14.3202 509.772 14.4482 510.092 14.7042C510.604 15.0882 511.836 15.6802 513.788 16.4802C515.74 17.2802 517.26 17.8242 518.348 18.1122C521.26 18.8482 522.844 19.5682 523.1 20.2722C523.292 20.7842 523.292 21.1362 523.1 21.3282C522.94 21.4882 522.492 21.6322 521.756 21.7602C520.924 21.9522 520.012 22.2242 519.02 22.5762C518.028 22.8962 517.324 23.0082 516.908 22.9122C516.524 22.8162 516.14 22.7522 515.756 22.7202L515.084 22.6242C514.956 22.6242 514.764 22.5282 514.508 22.3362C514.284 22.1122 513.772 21.7602 512.972 21.2802C511.564 20.4482 510.3 19.6162 509.18 18.7842L503.804 14.6082C501.5 12.7202 500.172 11.7762 499.82 11.7762C499.66 11.7762 499.212 12.2882 498.476 13.3122C497.836 14.2722 497.18 15.1522 496.508 15.9522C495.836 16.7202 494.732 17.8562 493.196 19.3602C491.564 20.9602 490.748 21.9362 490.748 22.2882C490.748 22.6082 490.684 22.8162 490.556 22.9122C490.46 22.9762 490.364 23.2482 490.268 23.7282C490.204 24.1122 489.996 24.5122 489.644 24.9282C489.292 25.3442 489.004 25.5522 488.78 25.5522C488.652 25.5522 488.38 25.7282 487.964 26.0802C487.644 26.3362 487.356 26.4642 487.1 26.4642C486.844 26.4322 486.316 26.2242 485.516 25.8402C484.876 25.5202 484.492 25.3602 484.364 25.3602C484.268 25.3602 484.236 27.9522 484.268 33.1362C484.3 38.2882 484.236 41.0242 484.076 41.3442C483.948 41.6962 483.676 42.0642 483.26 42.4482C482.876 42.8322 482.684 43.1042 482.684 43.2642C482.684 43.3922 482.604 43.4722 482.444 43.5042C482.316 43.5362 482.124 43.5202 481.868 43.4562C481.644 43.3922 481.42 43.2642 481.196 43.0722C480.524 42.6242 480.092 41.8722 479.9 40.8162C479.708 39.7602 479.756 38.2242 480.044 36.2082C480.268 34.5762 480.508 31.9042 480.764 28.1922C481.02 24.4482 481.164 21.5682 481.196 19.5522C481.228 14.8162 481.628 12.3042 482.396 12.0162C482.556 11.9522 482.972 12.1282 483.644 12.5442C484.092 12.8002 484.38 13.0242 484.508 13.2162C484.636 13.3762 484.732 13.6162 484.796 13.9362C484.796 14.1282 484.812 14.2722 484.844 14.3682C484.876 14.4322 484.892 14.4962 484.892 14.5602C484.924 14.5922 484.956 14.6082 484.988 14.6082C485.052 14.6082 485.116 14.5602 485.18 14.4642C485.34 14.3362 485.42 14.1762 485.42 13.9842C485.42 13.7922 485.612 13.4082 485.996 12.8322C486.412 12.2242 486.62 11.8402 486.62 11.6802C486.62 11.5202 486.668 11.3762 486.764 11.2482C486.892 11.1202 487.068 10.7042 487.292 10.0002C487.516 9.29616 487.612 8.92816 487.58 8.89616C487.516 8.83216 487.036 8.97616 486.14 9.32816C485.276 9.64816 484.524 9.98416 483.884 10.3362C482.988 10.7842 482.316 11.2162 481.868 11.6322C480.94 12.4642 480.332 12.4002 480.044 11.4402C479.98 11.1842 479.98 10.9922 480.044 10.8642C480.14 10.7042 480.348 10.4802 480.668 10.1922C481.724 9.26416 483.612 8.25616 486.332 7.16816C487.932 6.56016 488.94 6.14416 489.356 5.92016C489.772 5.69616 490.14 5.66416 490.46 5.82416C490.812 5.95216 491.196 6.01616 491.612 6.01616C492.06 6.01616 492.492 6.16016 492.908 6.44816C493.196 6.60816 493.372 6.76816 493.436 6.92816C493.5 7.05616 493.532 7.28016 493.532 7.60016C493.532 8.14416 493.42 8.60816 493.196 8.99216C493.004 9.37616 492.78 9.56816 492.524 9.56816C491.916 9.56816 491.228 9.98416 490.46 10.8162C489.98 11.2642 489.452 11.9522 488.876 12.8802C488.3 13.7762 488.012 14.3362 488.012 14.5602C488.012 14.7842 488.092 15.0562 488.252 15.3762C488.412 15.6642 488.572 15.8722 488.732 16.0002C488.924 16.0962 489.02 16.2242 489.02 16.3842C489.02 16.5122 489.212 16.8322 489.596 17.3442C489.98 17.8242 490.172 18.1122 490.172 18.2082C490.172 18.3042 490.236 18.4482 490.364 18.6402C490.428 18.7362 490.492 18.7842 490.556 18.7842C490.62 18.7842 490.716 18.7362 490.844 18.6402C490.972 18.5442 491.116 18.3842 491.276 18.1602C491.436 17.9362 491.66 17.6482 491.948 17.2962C492.396 16.6882 492.892 16.0642 493.436 15.4242C494.492 14.1762 495.756 11.9202 497.228 8.65616C498.316 6.19216 499.18 4.35216 499.82 3.13616ZM485.18 16.0962C485.148 15.4562 485.1 15.0882 485.036 14.9922C485.036 14.9922 485.004 15.0242 484.94 15.0882C484.876 15.1522 484.812 15.2322 484.748 15.3282C484.716 15.4242 484.668 15.5362 484.604 15.6642C484.348 16.1442 484.252 17.2482 484.316 18.9762L484.364 21.5202L485.516 21.7602C486.252 21.9522 486.716 21.9682 486.908 21.8082C487.132 21.6482 487.244 21.1522 487.244 20.3202C487.244 19.7442 487.164 19.3122 487.004 19.0242C486.844 18.7042 486.524 18.4162 486.044 18.1602C485.724 17.9682 485.5 17.7442 485.372 17.4882C485.276 17.2322 485.212 16.7682 485.18 16.0962Z" fill="#26929D"></path><path d="M547.148 27.4722C545.772 27.4722 545.084 26.2882 545.084 23.9202C545.084 22.3842 545.532 20.9122 546.428 19.5042C547.036 18.5762 548.156 17.1522 549.788 15.2322C551.356 13.4082 552.332 12.1442 552.716 11.4402C553.004 10.6722 553.148 10.2242 553.148 10.0962C553.148 9.39216 552.764 8.81616 551.996 8.36816C551.228 7.92016 550.38 7.69616 549.452 7.69616C548.556 7.69616 547.884 7.92016 547.436 8.36816C547.084 8.72016 546.652 9.31216 546.14 10.1442C545.724 10.8802 545.308 11.4402 544.892 11.8242C544.508 12.2082 543.996 12.4002 543.356 12.4002C543.196 12.4002 543.036 12.0802 542.876 11.4402C542.716 10.7682 542.636 10.2242 542.636 9.80816C542.636 8.62416 543.052 7.55216 543.884 6.59216C544.748 5.60016 545.788 4.83216 547.004 4.28816C548.22 3.71216 549.34 3.42416 550.364 3.42416C551.356 3.42416 552.364 3.93616 553.388 4.96016C555.404 6.97616 556.412 9.39215 556.412 12.2082C556.412 13.6482 556.044 15.0562 555.308 16.4322C554.604 17.7762 553.74 18.8642 552.716 19.6962C551.404 20.8162 550.428 21.6802 549.788 22.2882C549.148 22.8642 548.796 23.3282 548.732 23.6802C549.18 23.3602 549.74 23.1042 550.412 22.9122C551.084 22.7202 551.708 22.6242 552.284 22.6242C553.084 22.6242 553.484 22.8482 553.484 23.2962C553.484 23.6802 553.1 24.2082 552.332 24.8802C551.596 25.5522 550.732 26.1602 549.74 26.7042C548.748 27.2162 547.884 27.4722 547.148 27.4722ZM547.916 38.3682C547.148 38.3682 546.492 38.0002 545.948 37.2642C545.436 36.4962 545.18 35.6002 545.18 34.5762C545.18 33.4882 545.436 32.5922 545.948 31.8882C546.492 31.1522 547.148 30.7842 547.916 30.7842C548.652 30.7842 549.276 31.1522 549.788 31.8882C550.332 32.5922 550.604 33.4882 550.604 34.5762C550.604 35.6002 550.332 36.4962 549.788 37.2642C549.276 38.0002 548.652 38.3682 547.916 38.3682Z" fill="#26929D"></path></svg>