<svg xmlns="http://www.w3.org/2000/svg" width="381" height="348" viewBox="0 0 381 348" fill="none"><path d="M378.03 163.897C369.47 214.859 334.196 247.925 325.327 256.024C283.016 294.628 231.167 301.715 195.825 301.121C176.991 300.803 162.851 298.31 157.338 297.231C143.993 294.628 131.71 290.738 120.415 285.818C107.756 280.304 96.3268 273.519 86.0356 265.838C73.0921 256.183 61.9391 245.114 52.3759 233.408C16.6746 189.759 3.01994 137.29 0.727428 116.206C-1.07981 99.5392 -0.00885296 81.3748 9.59626 68.105C18.44 55.8811 34.0274 47.6481 50.4515 49.5474C56.6095 50.2586 64.8424 51.6893 97.6404 81.6425C123.251 105.028 128.598 113.328 145.381 118.523C160.049 123.067 171.988 121.686 175.711 121.167C179.669 120.607 193.106 118.365 210.099 107.061C234.346 90.9381 232.489 78.5719 250.728 64.4069C272.884 47.1879 305.33 42.3854 330.113 52.1411C351.097 60.3991 361.17 76.9487 366.023 84.9139C385.434 116.792 379.971 152.351 378.03 163.897Z" fill="url(#paint0_linear)"></path><path d="M350.216 236.76C349.923 237.053 349.776 237.493 349.483 237.639C347.871 238.811 343.476 241.594 344.941 241.74C346.992 241.887 349.19 238.811 349.19 238.811C349.19 238.811 347.871 246.721 349.63 245.842C351.241 245.109 350.802 238.664 350.802 238.664C350.802 238.664 352.413 242.766 353.293 242.766C354.172 242.766 351.681 239.104 351.095 237.493C352.413 238.372 353.439 239.25 354.318 239.836C356.076 240.569 354.465 250.968 356.369 250.09C357.981 249.357 356.955 241.74 356.955 241.74C356.955 241.74 363.256 251.408 366.626 251.261C370.582 251.115 358.714 241.301 358.714 241.301C358.714 241.301 365.6 244.377 368.823 242.326C371.314 240.715 361.204 240.129 357.248 239.69C356.369 239.543 355.637 239.25 354.904 238.664C350.509 234.856 331.315 217.572 330.582 216.84C329.703 216.107 326.919 217.865 327.652 219.33C328.238 220.502 341.864 230.608 350.216 236.76Z" fill="#AFD080"></path><path d="M368.384 225.774C372.047 226.946 361.937 230.168 361.937 230.168C361.937 230.168 369.41 227.825 372.633 231.633C375.856 235.441 361.937 231.34 361.937 231.34C361.937 231.34 367.065 235.881 366.186 237.199C365.161 238.517 359.446 230.901 359.446 230.901C358.86 230.754 357.981 230.754 356.956 230.608C356.956 230.901 357.102 231.047 357.249 231.34C358.274 232.805 360.912 236.174 359.593 235.734C357.981 235.295 357.102 232.219 357.102 232.219C357.102 232.219 355.93 238.664 354.758 237.492C353.732 236.467 355.93 231.779 355.93 231.779C355.93 231.779 353.439 234.416 352.707 234.123C351.974 233.83 355.197 231.633 356.076 230.608C351.241 229.875 343.476 229.582 343.036 231.047C344.209 232.805 347.139 239.689 349.19 245.109C350.069 245.109 351.974 242.765 352.267 243.644C352.414 244.376 349.776 245.402 349.776 245.402C349.776 245.402 354.611 245.402 355.49 246.574C356.516 247.892 349.776 246.281 349.776 246.281C349.776 246.281 352.853 248.038 353 249.649C353.146 250.821 350.216 247.745 348.897 246.574C348.751 246.427 348.458 245.988 348.311 245.988L349.776 249.796C349.923 249.796 357.981 250.235 358.567 252.872C359.153 255.362 350.216 251.554 350.216 251.554C350.216 251.554 353.146 263.272 349.923 262.979C346.26 262.539 348.751 251.554 348.751 251.554C348.751 251.554 342.304 259.317 340.839 255.948C339.813 253.604 348.897 251.114 348.604 250.089C348.458 248.331 348.018 246.866 347.578 245.548C347.139 246.574 344.941 252.14 344.209 250.089C343.769 248.771 346.553 246.281 346.553 246.281C346.553 246.281 341.278 248.331 341.132 246.866C340.985 245.841 346.26 244.962 346.26 244.962C346.26 244.962 344.062 244.816 342.45 241.886C341.132 239.396 345.82 243.058 347.139 244.083C344.648 237.639 340.399 234.123 340.692 231.487C341.132 227.971 344.062 225.774 344.062 225.774C345.234 225.042 356.956 228.557 359.593 229.289C359.446 229.289 364.721 224.602 368.384 225.774Z" fill="#91C646"></path><path d="M330.875 235.003C319.154 226.8 313.147 216.401 300.839 204.975C299.081 203.364 288.678 187.252 293.074 189.156C295.711 190.328 304.502 193.257 307.286 194.429C311.828 196.187 321.645 206.147 325.894 208.491C333.952 212.739 338.348 213.764 344.208 221.088C346.992 224.603 348.604 228.704 345.234 232.22C341.278 236.175 335.857 238.079 330.875 235.003Z" fill="#FCB11D"></path><path d="M333.22 228.119C334.099 227.533 335.124 226.947 336.004 226.215C336.443 225.775 336.736 225.336 337.176 224.896C337.469 224.603 337.615 224.164 338.055 224.164C338.348 224.164 338.348 224.896 338.348 225.043C338.055 227.094 335.564 229.291 333.513 229.584C332.927 229.73 332.927 228.265 333.22 228.119Z" fill="#C79637"></path><path d="M327.359 225.776C327.799 224.751 328.824 224.018 329.557 223.286C329.996 222.993 330.289 222.553 330.582 222.114C330.875 221.675 331.022 221.235 331.315 220.942C331.755 220.356 331.901 221.675 331.901 221.821C331.755 220.942 331.608 220.796 331.755 221.235C331.755 221.382 331.755 221.528 331.901 221.675C331.901 221.968 331.901 222.26 331.901 222.553C331.755 223.139 331.315 223.725 331.022 224.165C330.582 224.604 330.143 225.044 329.557 225.483C329.117 225.922 328.385 226.655 327.799 226.655C327.213 226.655 327.213 225.922 327.359 225.776Z" fill="#C79637"></path><path d="M327.506 219.623C327.945 218.598 328.678 217.719 329.41 216.84C329.703 216.401 329.996 216.108 330.143 215.669C330.289 215.376 330.436 214.936 330.729 214.643C331.022 214.35 331.169 215.229 331.169 215.376C331.315 216.401 330.875 217.426 330.143 218.159C329.557 219.038 328.678 220.063 327.799 220.502C327.506 220.502 327.506 219.77 327.506 219.623Z" fill="#C79637"></path><path d="M317.835 216.547C318.568 215.815 319.301 215.229 320.033 214.497C320.619 213.911 321.205 212.886 322.084 212.593C322.377 212.446 322.378 213.325 322.378 213.471C321.938 214.497 321.352 215.083 320.619 215.815C319.887 216.547 319.008 217.28 318.128 217.719C317.689 217.866 317.689 216.694 317.835 216.547Z" fill="#C79637"></path><path d="M316.663 210.103C316.517 210.543 316.517 210.543 316.517 210.25C316.517 210.25 316.517 210.103 316.663 210.103C316.663 209.957 316.956 209.81 316.956 209.664C317.249 209.224 317.542 208.932 317.835 208.492C317.982 208.053 318.275 207.76 318.422 207.32C318.568 207.027 318.568 206.588 318.861 206.588C319.008 206.588 319.154 206.881 319.154 207.027C319.447 208.639 318.275 210.543 316.956 211.275C316.517 211.275 316.517 210.25 316.663 210.103Z" fill="#C79637"></path><path d="M310.07 207.906C310.949 206.881 311.828 205.562 312.268 204.391C312.268 204.244 312.414 204.098 312.414 204.098C312.561 204.098 312.707 204.391 312.707 204.537C312.854 205.416 312.561 206.441 312.121 207.174C311.682 208.052 311.096 208.492 310.217 208.931C309.923 209.078 309.923 208.052 310.07 207.906Z" fill="#C79637"></path><path d="M308.019 202.486C308.312 202.193 308.605 201.9 308.898 201.461C309.191 201.168 309.337 200.729 309.484 200.436C309.63 200.289 309.777 200.436 309.924 200.582C310.07 200.875 310.07 201.168 310.07 201.461C310.07 200.875 310.07 200.729 310.07 201.168C310.07 201.315 310.07 201.461 310.07 201.461C310.07 201.607 310.07 201.754 309.924 201.9C309.777 202.193 309.63 202.34 309.484 202.633C309.191 203.072 308.898 203.512 308.312 203.805C307.872 203.805 307.872 202.779 308.019 202.486Z" fill="#C79637"></path><path d="M60.0393 117.335C60.0393 117.335 62.8231 111.916 67.3652 103.127C71.7607 94.3389 77.7679 82.1814 82.0169 68.1198C86.5589 54.0581 88.7567 40.7289 89.7823 31.0615C90.0753 28.5714 90.2219 26.3743 90.3684 24.4701C90.5149 22.566 90.5149 20.8082 90.6614 19.49C90.8079 16.7069 90.8079 15.2422 90.8079 15.2422C90.8079 15.2422 91.101 16.7069 91.5405 19.49C91.687 20.8082 91.9801 22.566 92.1266 24.4701C92.2731 26.3743 92.4196 28.7179 92.5661 31.208C92.7127 36.1882 92.5661 42.1936 91.8336 48.785C91.101 55.3764 89.6358 62.5537 87.2915 69.8775C86.1194 73.5394 84.8007 77.0548 83.4821 80.4237C82.7495 82.0349 82.0169 83.6462 81.2843 85.2574C80.5517 86.8686 79.8191 88.3334 78.94 89.7981C75.8632 95.6571 72.6398 100.637 69.7094 104.739C66.9256 108.84 64.4348 112.062 62.6766 114.113C61.0649 116.164 60.0393 117.335 60.0393 117.335Z" fill="#5C664E"></path><path d="M65.4604 106.936C65.4604 106.936 69.2699 102.102 75.1306 94.1922C80.9913 86.2825 89.0497 75.4433 95.7895 62.407C102.676 49.3707 107.218 36.7738 110.002 27.253C110.734 24.9093 111.32 22.7122 111.76 20.808C112.199 18.9039 112.639 17.2926 112.932 15.9744C113.518 13.3378 113.811 11.873 113.811 11.873C113.811 11.873 113.811 13.3378 113.811 16.1208C113.665 17.4391 113.665 19.1968 113.518 21.101C113.372 23.0052 113.079 25.3488 112.785 27.8389C112.053 32.819 110.881 38.678 108.976 44.9765C107.071 51.2749 104.434 58.1592 100.771 64.8971C99.0129 68.266 97.1082 71.4885 95.0569 74.5645C94.0313 76.0292 93.0057 77.494 91.9801 78.9587C90.9544 80.4235 89.9288 81.7418 88.9032 83.0601C84.8007 88.1867 80.6982 92.5809 77.1818 96.0964C73.6654 99.6118 70.7351 102.248 68.6838 104.152C66.6326 105.91 65.4604 106.936 65.4604 106.936Z" fill="#5C664E"></path><path d="M61.3579 119.094C61.3579 119.094 61.5044 118.654 61.944 118.068C62.3835 117.336 62.9696 116.311 63.7022 114.992C65.3139 112.356 67.8047 108.547 71.3211 104.153C74.691 99.7589 79.0865 94.7788 84.2146 89.3592C89.1962 84.0861 95.0569 78.3735 100.918 72.368C106.778 66.3626 112.199 60.65 116.741 54.9375C119.086 52.1545 120.99 49.3714 122.895 46.7349C123.774 45.4166 124.653 44.0983 125.386 42.9265C125.825 42.3406 126.119 41.6082 126.558 41.0223C126.705 40.7294 126.998 40.4364 127.144 40.1435C127.291 39.8505 127.437 39.5576 127.584 39.2646C128.17 38.0928 128.902 36.921 129.488 35.8957C130.074 34.7239 130.661 33.6986 130.954 32.8197C131.393 31.7944 131.833 30.9155 132.126 30.0367C132.419 29.1578 132.712 28.4255 133.005 27.6931C133.151 27.4001 133.298 26.9607 133.444 26.6678C133.591 26.3748 133.591 26.0819 133.737 25.7889C133.884 25.203 134.03 24.7636 134.177 24.3241C134.47 23.5918 134.617 23.1523 134.617 23.1523C134.617 23.1523 134.617 23.5918 134.47 24.3241C134.47 24.7636 134.323 25.203 134.177 25.7889C134.177 26.0819 134.03 26.3748 134.03 26.8142C134.03 27.1072 133.884 27.5466 133.737 27.8396C133.591 28.5719 133.444 29.4508 133.151 30.3296C132.858 31.2085 132.565 32.2338 132.272 33.2591C131.979 34.2845 131.54 35.4563 131.1 36.6281C130.661 37.7999 130.221 39.1182 129.635 40.4364C129.488 40.7294 129.342 41.0223 129.195 41.4618C129.049 41.7547 128.902 42.0477 128.756 42.4871C128.463 43.2195 128.17 43.8054 127.877 44.5377C127.144 45.856 126.412 47.3208 125.679 48.7855C124.067 51.715 122.163 54.6445 120.111 57.7205C115.862 63.8725 110.588 70.0244 104.58 76.1764C98.5733 82.1819 92.5661 87.6015 87.2915 92.5816C81.8703 97.5618 74.3979 106.35 70.5885 110.305C66.6325 114.26 66.3395 113.088 64.2883 115.432C63.2626 116.604 62.5301 117.482 61.944 118.215C61.6509 118.654 61.3579 119.094 61.3579 119.094Z" fill="#5C664E"></path><path d="M130.954 15.6816C130.954 15.6816 130.368 17.2929 129.342 20.0759C129.049 20.8083 128.756 21.5407 128.463 22.4195C128.316 22.8589 128.17 23.2984 128.023 23.7378C127.877 24.1772 127.584 24.6166 127.437 25.2025C126.558 27.1067 125.679 29.3038 124.507 31.7939C123.921 32.9657 123.335 34.284 122.602 35.6023C122.016 36.9206 121.284 38.2388 120.551 39.7036C119.086 42.4866 117.474 45.4161 115.569 48.4921C113.811 51.5681 111.76 54.6441 109.709 57.8665C107.511 61.089 105.313 64.3114 102.969 67.6804C98.2803 74.2718 93.7383 80.4237 89.6358 85.9898C87.5846 88.7728 75.5702 102.249 76.7423 99.9049C77.3284 98.7331 79.9657 93.46 80.6983 92.1418C82.1634 89.3587 83.9216 86.4292 85.6798 83.4997C89.3428 77.4942 93.7383 71.0493 98.4268 64.4579C100.771 61.2355 103.115 58.013 105.313 54.937C107.511 51.861 109.709 48.9315 111.613 46.002C113.665 43.219 115.423 40.436 117.181 37.7994C118.06 36.4811 118.793 35.3093 119.672 33.9911C120.404 32.8193 121.284 31.6475 121.87 30.4756C123.188 28.2785 124.507 26.2279 125.679 24.4702C125.972 24.0307 126.265 23.5913 126.558 23.1519C126.851 22.7125 126.998 22.273 127.291 21.9801C127.73 21.2477 128.17 20.5153 128.463 19.7829C130.075 17.1464 130.954 15.6816 130.954 15.6816Z" fill="#5C664E"></path><path d="M63.9952 113.82C63.9952 113.82 62.9696 113.234 64.4348 110.744C65.9 108.4 69.8559 104.152 72.3467 99.7582C77.1818 91.1162 83.6285 78.8122 88.9032 64.8971C91.5405 57.8663 93.7382 51.1284 95.3499 44.6835C96.9616 38.3851 97.9872 32.526 98.5733 27.6924C99.1594 22.7122 99.4524 18.7574 99.5989 15.9743C99.7454 13.1913 99.7454 11.5801 99.7454 11.5801C99.7454 11.5801 100.038 13.0448 100.478 15.9743C100.771 18.7574 101.357 22.8587 101.357 27.9853C101.357 33.1119 101.064 39.1174 99.892 45.8553C98.7198 52.4467 96.8151 59.7705 94.0313 66.9477C92.7126 70.6096 91.1009 74.125 89.4892 77.3475C87.8775 80.57 86.1193 83.6459 84.5076 86.5754C81.1377 92.4345 77.6213 97.2681 74.5445 101.369C71.4676 105.324 68.8303 108.547 66.9256 110.597C66.0465 111.623 65.3139 112.502 64.7278 112.941C64.2883 113.527 63.9952 113.82 63.9952 113.82Z" fill="#5C664E"></path><path d="M69.7095 129.785C70.4421 124.805 66.1931 119.532 68.6839 115.137C69.1234 114.405 70.2955 112.354 70.5886 112.061C70.8816 111.768 71.4677 110.743 72.4933 110.011C72.9329 109.571 69.2699 110.304 68.0978 110.89C69.563 108.546 70.2955 104.591 70.2955 104.445C70.2955 104.445 67.9513 108.4 66.1931 108.985C66.1931 108.107 66.6326 105.031 65.7535 104.005C65.607 103.859 64.7279 106.788 64.2883 108.4C63.4092 110.157 62.2371 111.768 60.7719 113.233C59.3068 114.552 57.6951 115.577 56.2299 116.749C53.0065 119.385 46.9993 123.047 45.6806 127.148C44.362 131.103 47.1458 136.23 49.4901 139.745C50.6622 141.503 53.153 142.382 54.9112 143.7C56.2299 144.725 57.8416 145.458 59.3068 145.018C66.9256 142.675 69.1234 133.593 69.7095 129.785Z" fill="#A9BFAA"></path><path d="M51.5414 143.115C51.8344 142.382 52.1274 141.357 52.86 140.918C53.4461 140.478 53.0065 139.453 52.2739 139.892C51.2483 140.625 50.8088 141.65 50.3692 142.822C50.2227 143.554 51.2483 143.847 51.5414 143.115Z" fill="#5C664E"></path><path d="M52.7135 145.02C53.4461 143.994 53.8857 142.823 54.3252 141.504C54.4717 140.772 53.4461 140.479 53.1531 141.211C52.86 142.383 52.4205 143.408 51.6879 144.434C51.2484 145.02 52.274 145.606 52.7135 145.02Z" fill="#5C664E"></path><path d="M54.7647 145.752C55.0578 144.434 55.6438 143.262 56.3764 142.237C56.816 141.651 55.7904 140.919 55.3508 141.651C54.4717 142.823 53.8856 144.141 53.5926 145.459C53.4461 146.192 54.6182 146.631 54.7647 145.752Z" fill="#5C664E"></path><path d="M56.5229 146.337C56.9625 145.311 57.2555 144.14 57.2555 142.968C57.2555 142.089 56.0834 142.089 55.9369 142.968C55.9369 143.993 55.6438 145.018 55.2043 146.044C55.0577 146.776 56.2299 147.216 56.5229 146.337Z" fill="#5C664E"></path><path d="M62.8232 130.372C62.3836 132.13 61.9441 134.034 61.358 135.792C60.772 137.403 60.0394 138.868 59.7463 140.479C59.7463 140.625 60.1859 140.918 60.3324 140.772C62.3837 138.282 63.2628 133.887 63.5558 130.665C63.4093 130.518 62.9697 130.225 62.8232 130.372Z" fill="#F0E9E5"></path><path d="M65.1674 115.284C59.7463 121.875 56.5229 130.371 55.0577 138.72C55.0577 138.866 55.3508 139.013 55.3508 138.866C56.6694 135.79 57.2555 132.275 58.4276 129.053C60.1858 124.219 62.9697 119.825 65.4605 115.284C65.4605 115.284 65.1674 115.137 65.1674 115.284Z" fill="#F0E9E5"></path><path d="M58.2811 119.533C55.6438 123.927 50.3692 127.003 51.8343 132.716C51.8343 132.862 52.5669 133.302 52.5669 133.009C52.1274 127.296 56.6694 124.513 59.0137 119.973C59.0137 119.68 58.4276 119.387 58.2811 119.533Z" fill="#F0E9E5"></path><path d="M317.616 108.692C314.833 106.935 313.807 104.152 315.126 101.368C313.953 101.808 309.851 101.368 307.8 97.4137C306.042 94.1912 307.8 90.3828 308.825 89.3575C306.921 89.3575 302.525 86.428 303.551 83.2055C306.628 74.2706 326.407 68.7045 330.949 70.7551C334.905 72.5129 334.612 77.493 334.173 78.6648C336.371 77.9324 339.741 83.9379 338.129 85.5492C341.352 85.1097 344.136 89.211 343.55 92.58C342.231 99.0249 323.477 112.208 317.616 108.692Z" fill="#5AA75D"></path><path d="M315.565 97.9994C316.444 97.853 317.47 97.1206 317.323 96.5347C316.737 94.9235 315.272 91.701 313.221 91.2616C313.367 91.1151 313.367 91.1151 313.514 90.9686C313.807 90.6757 313.514 90.3827 313.221 90.5292C312.635 90.8221 311.756 91.2616 311.316 90.9686C310.73 90.6757 309.118 91.408 309.411 92.1404C309.558 92.5798 309.558 93.0193 309.265 93.4587C309.118 93.6052 308.972 93.7516 309.118 93.8981C309.265 94.0446 309.265 94.3376 309.411 94.484C304.576 94.9235 300.034 98.4389 299.155 103.126C299.009 104.151 302.379 102.98 302.525 101.808C303.111 98.5853 305.163 96.9741 308.532 96.5347C308.972 96.5347 309.851 96.5347 309.851 96.5347C310.73 96.6812 311.17 97.4135 311.609 98.1459C311.756 98.4389 312.195 98.4389 312.635 98.2924C312.928 98.4389 313.221 98.7318 313.514 99.0248C313.514 99.7571 315.419 98.7318 315.565 97.9994Z" fill="#5C664E"></path><path d="M311.609 95.6549C305.163 85.4016 322.452 78.9567 332.415 76.1737C341.059 73.6836 344.869 82.3257 338.568 88.3312C330.95 95.2155 318.349 106.494 311.609 95.6549Z" fill="#5AA75D"></path><path d="M307.214 84.8172C309.851 82.9131 311.756 80.2765 314.686 78.6653C318.056 76.7611 322.012 76.4681 325.675 75.4428C327.287 75.0034 325.235 74.271 324.356 74.4175C320.693 75.1499 316.591 75.7358 313.221 77.4935C310.584 78.9582 307.214 81.7413 306.042 84.5243C305.895 84.9637 307.067 84.9637 307.214 84.8172Z" fill="#F0E9E5"></path><path d="M67.9511 71.0482C72.3466 72.3665 75.863 70.9017 77.9143 66.5075C80.112 62.1132 75.7165 58.5978 74.2513 56.6936C76.8887 55.2289 78.3538 48.491 74.1048 45.1221C71.028 42.7785 65.1673 42.339 63.2626 45.1221C61.6509 43.0714 57.4019 41.1672 54.325 42.1926C47.2922 44.6826 47.8782 53.3247 49.3434 53.9106C46.5596 55.6683 43.6292 59.6231 44.3618 63.578C45.0944 68.4116 53.1529 70.0229 53.4459 69.437C53.2994 72.8059 56.0832 76.3213 59.7461 77.0537C63.5556 77.9325 66.779 75.296 67.9511 71.0482Z" fill="#FFB118"></path><path d="M58.1345 65.0422C59.1601 66.0675 62.0905 61.6733 65.7534 65.0422C65.3138 61.0874 70.1489 58.4508 69.2698 57.7184C63.9952 57.7184 62.823 51.5665 62.0905 52.2988C61.6509 54.0565 59.1601 57.8649 55.9367 57.4255C55.0576 57.279 58.8671 60.6479 58.1345 65.0422Z" fill="#5C664E"></path><path d="M57.9879 73.0993C59.7461 72.6598 61.0648 71.488 61.9439 69.8768C62.9695 67.9726 62.5299 66.0685 62.823 64.0178C62.9695 64.0178 63.2625 64.0178 63.409 64.0178C63.9951 63.8713 64.2882 63.4319 64.5812 62.9925C65.1673 61.8207 65.3138 60.2094 64.8742 59.0376C64.4347 57.8658 63.2625 57.5729 62.0904 58.0123C60.7717 58.4517 60.3322 59.9165 60.1857 61.0883C60.1857 62.1136 60.3322 63.5784 61.2113 64.0178C61.2113 64.8967 61.2113 65.922 60.9183 66.8008C60.4787 68.2656 59.0135 69.2909 57.6949 69.7303C56.8158 70.1698 57.2553 73.3922 57.9879 73.0993Z" fill="#5C664E"></path><path d="M58.281 45.8535C57.2553 45.8535 56.0832 46.1465 55.0576 46.4394C54.325 46.7324 53.0063 47.1718 53.0063 48.1971C53.0063 48.783 54.032 48.9295 54.4715 48.9295C55.3506 48.783 56.2297 48.1971 56.9623 47.7577C57.6949 47.3183 58.574 47.1718 59.4531 46.8788C59.8927 46.7324 59.5996 46.4394 59.4531 46.2929C59.1601 46 58.574 45.8535 58.281 45.8535Z" fill="#F0E9E5"></path><path d="M145.019 32.5255C141.356 35.3085 140.624 39.1169 143.114 43.3646C145.605 47.6124 151.026 46.0012 153.371 45.8547C153.078 48.7842 157.766 53.9109 163.041 52.4461C166.704 51.2743 170.513 46.5871 169.341 43.5111C171.978 43.3646 176.081 40.8746 176.96 37.7986C179.011 30.6213 171.392 26.0806 170.074 26.8129C170.367 23.444 168.608 18.7568 164.946 17.1456C160.55 14.9484 154.543 20.8074 154.836 21.2469C152.052 19.3427 147.51 19.6356 144.726 22.1257C141.796 24.9088 142.089 29.0101 145.019 32.5255Z" fill="#F2681E"></path><path d="M155.715 27.8379C154.25 27.9844 156.155 32.9645 151.319 34.1363C154.836 36.0405 154.25 41.6066 155.275 41.1671C158.352 36.7729 164.066 39.4094 163.92 38.3841C162.601 36.9194 160.99 32.8181 163.187 30.328C163.92 29.7421 158.792 31.0603 155.715 27.8379Z" fill="#5C664E"></path><path d="M148.975 23.0043C148.389 24.762 148.536 26.5197 149.415 28.1309C150.44 30.0351 152.199 30.7674 153.664 32.2322C153.664 32.2322 153.664 32.2322 153.664 32.3787C153.517 32.5251 153.371 32.6716 153.371 32.9646C153.224 33.5505 153.371 34.1364 153.517 34.5758C154.103 35.7476 155.422 36.7729 156.594 37.0659C157.913 37.3588 158.792 36.6265 159.085 35.3082C159.378 33.9899 158.645 32.8181 157.62 31.9392C156.887 31.3533 155.422 30.621 154.543 31.0604C153.81 30.4745 152.931 29.8886 152.492 29.1562C151.612 27.9844 151.466 26.2267 151.906 24.762C152.052 23.7366 149.268 22.2719 148.975 23.0043Z" fill="#5C664E"></path><path d="M171.539 38.9699C172.125 38.091 172.564 37.0657 172.858 36.0404C173.004 35.308 173.444 33.8432 172.711 33.2573C172.271 32.9644 171.392 33.6968 171.246 33.9897C170.806 34.7221 170.953 35.8939 170.806 36.7727C170.66 37.6516 170.367 38.5304 170.074 39.4093C169.927 39.7022 170.367 39.8487 170.513 39.7022C170.806 39.5558 171.246 39.2628 171.539 38.9699Z" fill="#F0E9E5"></path><path d="M265.932 99.6435C265.346 98.7647 266.372 96.714 270.181 95.5422C273.551 94.5169 276.188 95.5422 276.335 96.5675C277.653 95.1028 280.144 94.0775 282.195 94.3704C287.324 95.1028 287.763 103.012 288.642 109.75C289.521 116.195 289.228 119.564 287.47 121.175C286.005 122.494 284.247 122.787 283.368 122.347C283.514 124.105 277.946 125.277 277.067 123.958C276.774 124.691 274.43 126.302 273.404 126.741C266.079 129.378 257.141 109.457 259.339 102.573C259.925 100.083 263.441 98.6182 265.932 99.6435Z" fill="#FFB118"></path><path d="M273.258 96.5667C273.258 96.4203 270.914 89.6824 271.5 89.3894C273.404 88.6571 271.353 85.7276 270.474 86.0205C269.448 86.3135 269.155 87.3388 269.009 88.0712C268.423 90.1218 270.328 96.7132 270.474 97.2991C270.767 98.6174 267.837 98.7639 267.837 99.4962C267.837 100.522 268.569 101.107 270.328 101.107C272.525 101.107 274.723 100.815 275.749 99.6427C276.188 99.2033 277.067 97.7385 276.481 97.4456C276.042 97.0062 273.991 97.7385 273.258 96.5667Z" fill="#5C664E"></path><path d="M275.309 97.1538C282.635 94.0778 283.807 103.159 285.126 110.776C286.298 117.514 287.323 123.519 281.902 124.691C277.36 125.716 276.188 118.393 273.844 111.508C271.207 104.331 270.327 99.3509 275.309 97.1538Z" fill="#FFB118"></path><path d="M266.372 100.082C274.43 96.4204 275.456 105.355 277.507 112.826C279.265 119.417 282.195 124.69 276.921 126.301C272.379 127.62 269.302 121.028 266.225 114.437C263.002 107.552 261.537 102.279 266.372 100.082Z" fill="#FFB118"></path><path d="M281.609 107.844C281.023 104.915 278.533 101.106 277.36 99.6417C276.628 98.6164 278.532 98.4699 278.972 98.9093C281.463 101.692 282.195 104.622 282.782 107.405C283.221 109.749 282.049 110.334 281.609 107.844Z" fill="#F0E9E5"></path><path d="M233.955 43.9498C233.809 41.4597 233.516 39.1161 232.93 36.626C232.783 35.7472 232.49 35.0148 232.49 34.1359C232.49 33.2571 232.49 32.5247 232.637 31.6458C233.076 28.2769 233.223 24.908 233.076 21.6855C233.076 19.9278 232.93 18.1701 232.197 16.4124C231.757 15.2406 231.025 14.3618 230.292 13.3364C228.827 11.5787 227.069 10.114 224.871 9.67455C222.82 9.3816 219.89 11.4323 218.571 13.4829C217.399 15.2406 216.52 17.1448 215.787 19.1954C215.201 21.0996 214.615 23.1503 214.175 25.0545C213.882 26.3727 213.589 27.984 214.468 29.0093C214.908 29.5952 215.494 29.8881 215.934 30.474C216.373 30.9135 216.52 31.4994 216.813 32.0853C218.571 37.0654 219.157 42.3385 218.571 47.4652C218.424 48.7835 218.278 50.2482 219.303 50.9806C219.89 51.42 220.622 51.42 221.208 51.8594C222.234 52.5918 222.38 54.0566 222.38 55.3748C222.527 58.3044 222.966 61.2339 223.992 64.1634C224.285 65.3352 225.311 66.6535 226.336 66.0675C226.629 65.9211 226.776 65.6281 226.922 65.3352C228.974 62.1127 228.681 57.7185 230.439 54.203C231.171 52.8848 232.197 51.5665 232.93 50.2482C233.809 48.344 233.955 46.1469 233.955 43.9498Z" fill="#AFD080"></path><path d="M265.163 50.8351C265.749 49.0774 267.508 47.7591 268.094 46.0014C268.387 45.1226 268.387 44.2437 268.387 43.3649C268.387 40.7283 271.171 35.3087 269.412 28.2779C268.826 25.7878 265.456 24.909 263.405 26.2273C259.156 27.3991 254.907 37.3594 251.391 40.5818C250.219 41.6072 249.046 42.9254 248.9 44.5367C248.753 46.7338 250.512 48.638 249.779 50.6886C249.486 51.5675 248.9 52.1534 248.314 52.7393C247.142 53.9111 246.116 55.0829 245.237 56.4012C244.797 57.1336 244.211 57.8659 244.504 58.7448C244.651 59.1842 245.09 59.4772 245.237 59.7701C245.53 60.5025 245.237 61.3813 244.797 62.1137C243.186 65.4826 240.841 68.4122 239.669 71.9276C238.644 74.8571 238.204 78.0795 237.911 81.302C237.765 82.1808 237.765 83.2062 237.911 84.085C238.204 84.9639 238.79 85.6962 239.523 85.8427C240.695 85.9892 241.721 84.8174 242.453 83.792C244.944 80.1302 246.849 75.8824 249.926 72.6599C251.098 71.4881 252.416 70.3163 253.588 69.1445C255.054 67.3868 256.226 65.3362 257.691 63.7249C260.182 60.9419 263.991 58.7448 264.577 55.0829C265.017 53.6181 264.87 52.1534 265.163 50.8351Z" fill="#AFD080"></path><path d="M251.391 30.1815C253.295 27.252 257.251 25.4943 258.863 22.2719C260.035 19.6353 261.207 16.9987 261.207 14.0692C261.354 9.08908 260.035 1.32588 251.684 0.15408C249.486 -0.431821 247.288 0.739982 245.676 2.20473C239.376 7.33137 237.178 16.8523 240.402 24.176C240.695 24.7619 240.841 25.2014 240.988 25.7873C241.134 26.6661 240.841 27.3985 240.548 28.1309C239.523 31.3533 238.497 34.4293 237.471 37.6518C236.885 39.5559 236.153 41.7531 236.739 43.6572C237.032 44.8291 237.765 45.8544 238.204 47.0262C239.083 49.8092 237.765 52.7387 236.739 55.5217C235.713 58.3048 235.274 61.8202 237.325 63.8708C240.255 61.2343 239.23 56.4006 241.281 53.0317C242.307 51.274 243.918 50.1022 245.09 48.3445C247.874 44.2431 246.849 38.6771 248.753 34.1364C249.486 32.9646 250.365 31.6463 251.391 30.1815Z" fill="#AFD080"></path><path d="M259.01 46.4401C252.856 54.6428 248.607 64.3101 244.358 73.6846C242.014 78.6647 239.816 83.6449 237.325 88.4786C235.42 92.1404 233.369 96.0953 230.292 99.0248C229.999 99.3177 229.853 100.929 230.292 100.49C232.93 97.853 234.834 94.6305 236.593 91.4081C239.083 86.8673 241.281 82.0336 243.479 77.3464C248.167 67.3861 252.416 56.6934 259.156 47.7584C259.449 47.319 259.596 45.7078 259.01 46.4401Z" fill="#5C664E"></path><path d="M249.486 16.4136C243.186 28.4245 240.695 42.0467 238.204 55.2295C236.886 61.8209 235.86 68.2658 234.102 74.7107C233.076 78.812 231.904 83.9387 228.827 87.1611C228.534 87.4541 228.388 89.2118 228.974 88.4794C231.025 86.4287 232.05 83.6457 233.076 81.0092C234.541 76.9079 235.42 72.6601 236.299 68.4123C238.644 57.2802 240.402 46.0016 243.332 34.8694C244.944 28.864 246.849 22.8585 249.779 17.2924C250.072 16.9995 250.072 15.3882 249.486 16.4136Z" fill="#5C664E"></path><path d="M223.992 31.7924C223.699 42.6315 224.431 53.4707 225.164 64.3099C225.75 72.659 225.75 80.8616 223.699 88.9177C223.406 89.9431 224.138 90.0895 224.431 89.0642C226.483 81.301 226.776 73.3913 226.19 65.4817C225.457 54.0566 224.578 42.6315 224.871 31.2065C224.725 30.0347 223.992 31.2065 223.992 31.7924Z" fill="#5C664E"></path><path d="M246.702 108.839C249.926 101.369 242.6 94.7774 238.937 91.555C235.127 88.186 225.311 84.0847 220.329 85.5495C215.641 86.8678 205.238 91.1155 202.894 98.5858C200.989 104.445 216.373 110.011 219.01 114.991C220.183 117.188 219.303 120.118 218.717 122.315C217.692 125.977 216.373 129.492 214.908 133.007C212.564 138.72 212.857 144.433 214.175 141.21C215.494 137.988 217.106 134.912 218.571 131.689C220.036 128.467 221.501 125.244 222.527 121.875C222.966 120.704 223.259 119.239 223.845 118.067C224.432 117.042 225.164 116.895 226.336 116.602C232.05 114.698 242.893 117.628 246.702 108.839Z" fill="url(#paint1_linear)"></path><path d="M223.113 92.1406C225.457 94.7772 230.585 94.6307 233.369 92.873C233.516 92.873 233.662 92.2871 233.369 92.2871C231.611 92.7265 229.853 93.1659 227.948 93.0195C226.19 92.873 224.725 92.1406 223.113 91.7012V92.1406Z" fill="#8752B0"></path><path d="M219.01 94.6308C223.259 98.2927 231.611 100.05 236.006 95.9491C236.153 95.8026 236.299 95.0703 236.153 95.0703C232.343 96.828 229.267 97.5603 225.164 96.3885C223.113 95.8026 221.208 94.6308 219.157 94.1914C219.01 94.1914 218.864 94.4844 219.01 94.6308Z" fill="#8752B0"></path><path d="M223.259 102.101C226.19 102.98 230.292 102.98 232.929 101.369C233.076 101.369 233.222 100.783 232.929 100.783C231.464 100.93 229.999 101.516 228.534 101.662C226.776 101.809 225.164 101.809 223.406 101.662C223.259 101.662 223.113 102.101 223.259 102.101Z" fill="#8752B0"></path><path d="M195.714 44.6816C196.007 40.5802 195.861 36.3325 196.007 32.2312C196.154 28.4228 196.886 24.3215 196.447 20.3667C196.447 20.0737 196.154 19.7807 196.007 20.2202C194.981 24.0285 195.128 28.2763 195.128 32.0847C194.981 36.186 194.835 40.5802 195.421 44.6816C195.421 45.121 195.714 44.9745 195.714 44.6816Z" fill="#5C664E"></path><path d="M199.084 49.8085C199.377 49.8085 199.524 49.2226 199.524 48.9296C199.524 48.6367 199.524 48.0508 199.231 48.0508C198.938 48.0508 198.791 48.6367 198.791 48.9296C198.791 49.2226 198.791 49.8085 199.084 49.8085Z" fill="#F2681E"></path><path d="M197.326 46.0002C197.179 41.313 196.74 36.6258 197.326 31.9386C197.912 27.3978 199.524 23.443 202.014 19.7811C202.161 19.6347 202.161 18.4629 201.868 18.7558C195.421 25.9331 196.007 37.3582 197.033 46.1467C197.033 46.5861 197.326 46.2932 197.326 46.0002Z" fill="#5C664E"></path><path d="M194.102 45.4144C194.689 41.1667 194.249 36.6259 193.663 32.3781C193.077 28.1304 192.344 23.7361 191.026 19.6348C190.879 19.0489 190.586 20.0742 190.586 20.3672C191.612 24.615 192.637 28.8627 193.223 33.1105C193.663 37.3583 193.516 41.4596 194.102 45.4144C194.102 45.5609 193.956 45.5609 194.102 45.4144Z" fill="#5C664E"></path><path d="M193.516 45.4136C193.37 38.0898 192.051 30.6196 189.853 23.7352C189.56 23.0029 189.267 24.1747 189.414 24.6141C191.319 31.4984 192.784 38.5292 193.37 45.7065C193.223 46.146 193.516 45.7065 193.516 45.4136Z" fill="#5C664E"></path><path d="M198.205 46.0013C199.231 42.6324 199.084 39.117 199.231 35.6016C199.377 31.3538 200.256 27.6919 202.894 24.1765C203.04 24.03 203.04 23.1512 202.747 23.2977C200.256 25.4948 199.377 28.8637 198.938 31.9397C198.352 36.4804 198.645 41.1676 198.058 45.7084C198.058 46.0013 198.058 46.2943 198.205 46.0013Z" fill="#5C664E"></path><path d="M179.597 52.8835C180.769 43.6556 194.102 42.9232 196.447 42.6303C201.721 42.0444 204.066 43.8021 207.142 47.4639C210.659 51.5653 211.098 53.9089 211.391 58.0102C211.685 63.4298 206.41 64.748 203.04 68.117C200.256 70.9 196.007 92.2854 195.421 91.2601C192.637 86.5729 198.205 76.0266 197.765 72.9506C197.326 69.2888 192.637 67.3846 191.905 66.7987C187.802 63.5762 179.011 58.4496 179.597 52.8835Z" fill="#DBBFEE"></path><path d="M179.597 52.8835C180.769 43.6556 194.102 42.9232 196.447 42.6303C201.721 42.0444 204.066 43.8021 207.142 47.4639C210.659 51.5653 211.098 53.9089 211.391 58.0102C211.685 63.4298 206.41 64.748 203.04 68.117C200.256 70.9 196.007 92.2854 195.421 91.2601C192.637 86.5729 198.205 76.0266 197.765 72.9506C197.326 69.2888 192.637 67.3846 191.905 66.7987C187.802 63.5762 179.011 58.4496 179.597 52.8835Z" fill="url(#paint2_linear)"></path><path d="M192.637 49.3693C195.421 48.6369 198.058 48.9299 200.696 50.2482C200.989 50.3946 200.989 49.5158 200.842 49.3693C198.351 47.9045 195.275 47.6116 192.637 48.4904C192.344 48.6369 192.344 49.3693 192.637 49.3693Z" fill="#8652B0"></path><path d="M194.102 51.8595C196.007 53.9102 200.989 53.7637 203.186 52.299C203.333 52.1525 203.333 51.4201 203.186 51.5666C200.549 52.8849 196.886 52.4454 194.249 51.4201C194.102 51.2736 194.102 51.7131 194.102 51.8595Z" fill="#8652B0"></path><path d="M189.414 54.4962C190.733 56.4004 194.688 57.2793 196.74 56.2539C196.886 56.1075 196.886 55.668 196.74 55.5216C195.568 55.0821 194.249 55.2286 193.077 55.0821C191.758 54.9357 190.439 54.2033 189.414 54.4962C189.414 54.4962 189.267 54.3498 189.414 54.4962Z" fill="#8652B0"></path><path d="M371.242 202.877C371.242 202.877 364.209 199.801 362.451 199.361C364.649 199.654 367.872 200.24 370.949 199.508C371.388 199.361 371.974 197.603 370.949 197.457C368.458 197.164 365.235 197.603 360.839 197.164C360.839 197.164 359.374 197.75 361.279 200.094C362.744 201.998 365.088 201.998 370.509 204.488C371.681 203.902 371.828 203.463 371.242 202.877Z" fill="#AFD080"></path><path d="M348.385 189.108C339.594 188.376 331.975 189.694 323.038 190.28C320.84 190.427 308.239 187.937 313.221 192.624C315.126 194.382 318.789 195.26 321.279 195.846C326.554 197.165 331.536 199.655 336.957 200.827C340.327 201.559 343.697 202.438 347.066 203.17C349.85 203.903 352.781 204.781 355.711 204.928C359.96 205.221 363.769 203.61 364.355 198.922C365.381 190.866 353.953 189.548 348.385 189.108Z" fill="#FCB11D"></path><path d="M360.253 196.14C359.814 197.165 359.814 198.337 359.521 199.362C359.374 200.241 358.934 201.266 358.934 202.145C358.934 202.584 360.107 202.145 360.253 201.852C360.693 200.973 360.839 199.801 360.986 198.776C361.132 197.751 361.279 196.725 361.132 195.847C361.132 195.7 360.4 195.993 360.253 196.14Z" fill="#C79637"></path><path d="M354.832 193.65C354.539 194.675 354.539 195.701 354.246 196.726C353.953 197.605 353.513 198.337 353.074 199.069C352.927 199.362 353.806 199.216 353.806 199.216C354.832 198.776 355.272 198.044 355.565 197.019C355.858 195.993 356.297 194.529 355.858 193.503C355.711 193.064 354.832 193.357 354.832 193.65Z" fill="#C79637"></path><path d="M344.429 195.7C344.136 196.579 343.843 197.457 343.55 198.336C343.404 198.922 343.111 199.215 342.818 199.508C342.671 199.655 342.818 199.655 342.964 199.801C343.697 200.094 344.722 199.362 345.015 198.776C345.455 197.75 345.748 196.579 345.894 195.407C345.894 194.967 344.576 195.26 344.429 195.7Z" fill="#C79637"></path><path d="M339.008 190.72C338.275 191.306 338.129 192.185 337.982 193.064C337.836 193.796 337.396 194.821 337.836 195.407C337.982 195.7 338.715 195.407 338.861 195.261C339.448 194.528 339.594 193.796 339.741 192.917C339.887 192.185 340.18 191.306 339.594 190.72C339.594 190.427 339.155 190.573 339.008 190.72Z" fill="#C79637"></path><path d="M333.587 193.209C333.147 193.795 333.001 194.528 332.708 195.114C332.561 195.406 332.415 195.699 332.415 195.992C332.415 196.285 332.268 196.578 332.268 196.871C332.415 197.018 332.708 196.871 332.854 196.871C334.026 196.139 334.759 194.381 334.612 193.063C334.612 192.77 333.733 193.063 333.587 193.209Z" fill="#C79637"></path><path d="M321.866 192.33C321.719 192.77 321.573 193.063 321.573 193.502C321.573 193.649 321.426 193.942 321.426 194.088C321.426 194.235 321.573 194.381 321.719 194.528C321.866 194.674 322.305 194.528 322.452 194.381C322.598 194.235 322.891 194.088 322.891 193.795C323.038 193.649 323.038 193.356 323.038 193.209C323.038 192.77 323.184 192.477 323.038 192.037C322.891 191.598 322.012 192.037 321.866 192.33Z" fill="#C79637"></path><path d="M62.3835 181.49C65.6069 178.707 67.0721 175.631 70.149 172.555C73.0793 169.479 78.3539 164.645 78.2074 160.397C78.0609 157.321 76.5957 154.392 75.7166 151.462C74.691 148.094 74.2514 144.578 74.984 141.209C75.7166 137.84 77.9144 134.618 81.1378 133.153C82.0169 132.714 83.0425 132.421 84.0681 132.714C85.5333 133.153 86.4124 134.911 86.7054 136.376C87.2915 139.159 93.4452 159.372 81.2843 176.656C76.1562 183.98 58.4276 191.45 55.7903 190.425C54.0321 189.693 59.0137 184.273 62.3835 181.49Z" fill="#EA5E25"></path><path d="M80.1122 133.153C81.2843 132.275 83.0425 131.982 84.2147 132.568C84.5077 131.982 84.8007 131.396 84.8007 130.663C84.9473 129.199 84.3612 128.027 83.7751 126.855C83.7751 126.709 83.7751 125.683 84.0682 125.976C85.8264 127.441 86.2659 130.81 85.2403 133.153C85.5333 133.3 87.145 135.351 86.5589 135.79C84.3612 137.255 81.4308 136.376 80.4052 134.911C79.9657 134.472 79.5261 133.593 80.1122 133.153Z" fill="#5C664E"></path><path d="M79.9656 153.074C81.2843 155.564 82.1634 158.787 81.8703 161.716C81.7238 162.888 81.2843 163.913 80.5517 164.938C79.6726 166.403 78.7935 168.161 77.3283 169.333C77.0353 169.626 77.0353 168.6 77.0353 168.454C77.7679 166.403 79.0865 164.938 80.1121 163.034C81.5773 160.251 80.4052 156.589 79.6726 153.66C79.6726 153.367 79.8191 152.781 79.9656 153.074Z" fill="#D24F1B"></path><path d="M39.8199 119.384C37.036 122.46 36.3035 127.294 33.8127 130.663C31.3219 134.032 28.6846 137.254 29.4172 141.356C30.0032 144.285 31.6149 146.922 32.9336 149.558C34.3987 152.634 35.2778 156.003 34.8383 159.226C34.5453 162.595 32.787 165.817 30.0032 167.721C29.1241 168.307 28.245 168.6 27.2194 168.454C25.7542 168.161 24.7286 166.696 24.1425 165.231C23.1169 162.595 11.1025 145.311 20.3331 127.294C24.289 119.531 44.0689 109.131 46.8527 109.717C48.7574 110.156 42.6037 116.308 39.8199 119.384Z" fill="#EA5E25"></path><path d="M31.0289 167.429C30.0032 168.308 28.3916 168.894 27.2194 168.601C26.9264 169.187 26.9264 169.772 26.9264 170.505C26.9264 171.823 27.659 172.995 28.3916 174.02C28.3916 174.167 28.5381 175.192 28.245 174.899C26.3403 173.727 25.6077 170.651 26.1938 168.161C25.9008 168.015 24.1426 166.257 24.5821 165.818C26.4868 164.206 29.4172 164.646 30.5893 165.818C30.8824 166.257 31.4684 166.989 31.0289 167.429Z" fill="#5C664E"></path><path d="M28.6846 148.385C27.0729 146.042 25.9008 143.259 25.7543 140.476C25.7543 139.304 26.0473 138.279 26.4869 137.253C27.2194 135.642 27.8055 133.884 28.9777 132.713C29.2707 132.42 29.4172 133.445 29.4172 133.591C28.9777 135.642 27.8055 137.253 27.2194 139.157C26.1938 142.087 27.659 145.456 28.8311 148.092C28.8311 148.092 28.8311 148.678 28.6846 148.385Z" fill="#D24F1B"></path><path d="M335.931 173.142C333.001 171.385 331.096 168.162 329.924 164.94C328.752 161.717 328.312 158.202 327.14 154.979C326.847 154.1 326.554 153.368 325.968 152.636C325.236 151.757 324.21 151.317 323.038 151.171C318.349 150.146 313.661 152.636 309.705 155.419C305.749 158.202 301.939 161.424 297.104 162.01C291.097 162.889 283.332 158.934 283.039 152.929C282.599 143.408 298.862 132.715 306.188 128.028C311.463 124.659 316.884 121.29 322.891 119.679C334.466 116.603 347.946 120.851 355.272 130.518C360.986 137.988 363.916 156.591 362.011 162.45C359.081 170.799 347.506 179.88 335.931 173.142Z" fill="#8230A9"></path><path d="M300.767 146.191C300.621 146.337 300.327 146.337 300.034 146.484C299.448 146.777 298.423 147.216 297.544 147.509C295.492 148.388 292.855 149.706 290.364 151.464C289.485 152.05 288.753 152.636 288.02 153.368C288.606 152.343 289.339 151.171 289.925 149.56C290.511 147.948 291.097 146.044 290.95 144.14C290.95 143.847 290.95 143.701 290.95 143.408L290.804 142.675C290.804 142.236 290.657 141.797 290.511 141.357C290.218 140.625 289.925 139.892 289.632 139.306C289.339 138.721 288.899 138.281 288.606 137.842C288.313 137.402 287.874 137.109 287.727 136.816C287.141 136.377 286.848 136.084 286.848 136.084C286.848 136.084 286.701 136.523 286.701 137.256C286.701 137.549 286.555 137.988 286.555 138.428C286.408 138.867 286.262 139.306 286.115 139.892C285.969 140.332 285.676 140.918 285.529 141.504C285.383 141.797 285.236 142.089 285.236 142.236L285.09 142.675L284.943 143.115C284.504 144.14 283.771 145.312 283.185 146.923C282.599 148.534 282.013 150.292 282.013 152.196C282.013 152.636 282.013 153.075 282.013 153.515C282.013 153.954 282.159 154.393 282.306 154.833C282.452 155.272 282.745 155.565 282.892 155.858C283.038 156.151 283.332 156.444 283.625 156.737C280.694 158.934 279.522 161.278 275.42 161.571C272.636 161.717 272.782 163.182 273.222 165.526C273.661 168.016 282.306 163.475 286.115 161.131C286.262 161.278 286.262 161.424 286.408 161.571C287.434 162.596 288.753 163.328 290.218 163.914C291.683 164.354 293.441 164.647 295.053 164.647C298.423 164.5 301.06 163.182 302.818 162.157C303.697 161.717 304.43 161.278 305.016 160.985C305.602 160.692 305.895 160.692 305.895 160.692C305.895 160.692 305.895 160.545 305.749 160.399C305.602 160.252 305.456 160.106 305.163 159.813C304.576 159.374 303.697 158.934 302.525 158.495C300.474 157.762 297.69 157.176 295.053 157.323C297.69 155.272 299.302 152.489 300.181 150.292C300.621 149.12 300.914 148.095 300.914 147.363C300.914 147.07 300.914 146.777 301.06 146.484C301.06 146.337 301.06 146.191 301.06 146.191C301.06 146.191 300.914 146.044 300.767 146.191Z" fill="#91C646"></path><path d="M320.84 125.246C324.796 125.099 328.459 123.781 332.415 124.074C337.103 124.367 341.206 126.711 345.601 128.175C347.653 128.908 345.894 126.71 345.015 126.271C340.913 124.513 336.224 122.463 331.829 122.023C328.312 121.73 323.038 122.17 319.961 124.22C319.375 124.367 320.547 125.246 320.84 125.246Z" fill="#F0E9E5"></path><path d="M34.2524 77.3476C31.9081 77.6406 29.5638 78.08 27.2196 78.8124C26.487 78.9589 25.9009 79.3983 25.3148 79.9842C24.5823 80.8631 23.8497 82.0349 23.7032 83.4996C23.5566 84.0855 23.5566 85.2573 23.5566 86.1362C23.5566 87.7474 24.5823 89.2121 25.7544 89.0657C27.0731 88.7727 28.6847 87.6009 30.0034 87.4544C32.4942 87.308 34.985 88.9192 37.4758 90.2375C39.9666 91.4093 42.7504 92.1417 44.9482 90.3839C45.6807 89.798 46.4133 88.7727 47.1459 88.1868C49.1972 86.4291 52.1275 86.5756 53.8857 84.232C54.0322 83.939 54.3253 83.6461 54.1787 83.0602C54.0322 82.6208 53.7392 82.3278 53.4462 82.1813C52.8601 81.8884 52.274 82.3278 51.6879 82.3278C50.6623 82.3278 49.6367 81.3025 48.7576 80.7166C46.9994 79.6913 45.0947 80.2772 43.1899 79.8377C41.4317 79.3983 39.9666 78.08 38.2084 77.4941C36.8897 77.0547 35.5711 77.2012 34.2524 77.3476Z" fill="#5AA75D"></path><path d="M31.0291 84.2322C37.4758 85.5505 44.0691 84.5251 50.5159 83.6463C55.2044 82.9139 59.7464 81.5956 64.435 81.3027C65.3141 81.3027 64.2885 80.5703 64.2885 80.5703C57.1091 81.5956 50.2228 83.2069 43.0435 83.7928C39.234 84.0857 35.4246 84.2322 31.6151 83.4998C31.1756 83.6463 30.2965 84.0857 31.0291 84.2322Z" fill="#5C664E"></path><path d="M114.397 78.3728C113.371 80.5699 112.346 82.767 111.613 85.1106C111.467 85.843 111.32 86.5754 111.613 87.3078C111.906 88.4796 112.492 89.6514 113.518 90.6767C113.958 91.1161 114.837 91.8485 115.716 92.2879C117.034 93.3132 118.793 93.1668 119.379 92.1414C119.965 90.8232 119.818 88.7725 120.551 87.7472C121.869 85.55 124.653 84.5247 126.998 83.2064C129.342 81.8882 131.54 79.984 131.393 77.201C131.247 76.1756 130.954 75.1503 130.807 74.125C130.514 71.3419 132.272 69.1448 131.247 66.3618C131.1 66.0688 130.954 65.6294 130.514 65.4829C130.074 65.3365 129.635 65.3365 129.342 65.6294C128.756 66.0688 128.756 66.6547 128.463 67.2406C127.877 68.1195 126.412 68.266 125.386 68.7054C123.628 69.5842 123.042 71.4884 121.576 72.8067C120.258 73.9785 118.207 74.4179 116.888 75.5897C115.569 76.0292 114.983 77.201 114.397 78.3728Z" fill="#5C664E"></path><path d="M118.207 84.9642C122.895 80.4235 125.826 74.418 128.756 68.559C130.807 64.3112 132.272 59.7705 134.763 55.8156C135.203 55.0832 134.03 55.6691 134.03 55.6691C130.807 62.1141 128.17 68.7054 124.653 75.0039C122.749 78.2263 120.697 81.5953 118.06 84.2318C117.767 84.3783 117.621 85.4036 118.207 84.9642Z" fill="#A9BFAA"></path><path d="M54.4716 90.5293C53.739 90.8223 53.2994 91.4082 52.7134 91.9941C51.5412 93.1659 50.2226 94.3377 49.6365 95.8025C49.49 96.2419 49.3435 96.5348 49.0504 96.9743C48.7574 97.2672 48.4644 97.4137 48.0248 97.5602C46.2666 98.2925 44.3619 98.2925 42.4572 98.5855C39.8198 99.0249 37.329 99.9038 34.9848 101.369C34.1057 101.954 33.08 102.833 33.3731 103.859C33.5196 104.298 33.9592 104.737 34.3987 105.03C36.1569 106.056 38.3547 105.763 40.2594 104.884C41.1385 104.444 42.0176 104.005 42.8967 103.859C43.7758 103.712 44.8014 103.712 45.534 104.444C46.1201 104.884 46.2666 105.616 46.8527 106.056C47.2922 106.349 47.7318 106.349 48.1713 106.349C49.6365 106.349 51.1017 105.909 52.5668 105.323C56.2298 103.859 59.7462 101.076 61.2114 97.4137C61.7974 95.9489 62.0905 94.1912 62.6765 92.7265C63.4091 91.2617 64.8743 89.3575 63.4091 89.2111C62.53 89.0646 61.6509 89.2111 60.7718 89.3575C59.7462 89.504 58.7206 89.6505 57.6949 89.797C56.6693 89.797 55.4972 89.9434 54.4716 90.5293Z" fill="#5AA75D"></path><path d="M49.9294 101.808C55.6436 95.2163 62.5299 89.9432 70.1488 85.8419C70.1488 85.8419 70.4418 84.8165 69.8558 85.256C62.3834 89.3573 54.618 95.5092 48.9038 101.808C48.7573 102.101 49.7829 102.101 49.9294 101.808Z" fill="#5C664E"></path><path d="M136.814 76.175C137.107 76.468 137.4 76.7609 137.84 77.0539C139.891 78.0792 142.235 76.6144 143.407 75.0032C144.58 73.2455 145.166 71.1949 144.873 69.2907C144.58 67.3865 143.407 65.7753 143.554 63.8711C143.554 63.1387 144.873 57.8656 143.114 56.4009C141.503 54.9361 143.407 52.5925 139.745 52.739C139.451 52.739 135.496 54.7896 136.961 57.2797C137.84 58.8909 138.279 60.2092 137.84 61.8204C137.547 63.2852 136.228 64.8964 136.814 66.2147C136.961 66.5076 137.254 66.8006 137.4 67.0935C137.84 67.8259 137.84 68.7048 137.547 69.5836C137.254 70.4625 136.814 71.1949 136.521 72.0737C135.935 73.2455 135.789 74.8567 136.814 76.175Z" fill="#5C664E"></path><path d="M140.917 67.3873C141.063 62.4071 140.624 57.4269 140.037 52.4468C139.744 50.1032 139.305 47.6131 138.865 45.2695C138.865 45.2695 138.426 44.9765 138.426 45.416C138.865 47.6131 139.158 49.9567 139.451 52.3003C140.037 57.134 140.477 62.1142 140.331 67.0943C140.331 67.2408 140.917 67.8267 140.917 67.3873Z" fill="#A9BFAA"></path><path d="M192.637 125.244C192.784 125.098 192.93 125.098 193.077 124.951C197.765 122.168 202.161 116.602 201.868 110.89C201.428 104.445 195.128 99.025 188.828 99.4644C183.553 99.9039 186.337 103.419 180.183 104.005C167.876 105.177 166.997 117.774 172.711 124.365C177.106 129.345 186.337 128.174 192.198 125.537C192.344 125.391 192.491 125.391 192.637 125.244Z" fill="#D14F1C"></path><path d="M160.257 110.157C160.403 110.011 160.55 109.864 160.696 109.718C164.652 106.202 167.29 99.318 163.773 94.0449C162.015 91.2619 157.18 89.7971 157.18 89.7971C154.103 85.8423 155.568 82.0339 147.363 81.0086C141.942 80.2762 137.4 83.6452 135.349 88.0394C132.565 94.0449 134.47 101.662 140.038 106.788C145.898 112.208 154.103 114.112 159.817 110.45C159.964 110.45 160.11 110.304 160.257 110.157Z" fill="#D14F1C"></path><path d="M185.018 102.394C186.63 98.5857 193.956 96.9745 193.956 96.9745C193.956 96.9745 193.663 96.828 193.37 96.6815C192.93 96.5351 192.344 96.3886 191.612 96.2421C191.172 96.2421 190.732 96.0956 190.293 96.0956C189.853 96.0956 189.414 96.0956 188.828 96.2421C188.242 96.3886 187.802 96.3886 187.216 96.6815C186.63 96.9745 186.044 97.121 185.604 97.4139C184.579 97.9998 183.7 99.0251 183.114 99.904C182.967 100.197 182.821 100.49 182.674 100.783C180.183 96.828 176.667 93.4591 174.03 89.6507C176.52 82.4734 179.451 75.5891 177.692 71.3413C174.616 64.457 174.176 60.9416 171.832 53.7643C171.099 51.4207 169.634 55.6685 170.074 56.8403C172.418 64.0175 171.246 66.5076 174.909 73.099C174.909 76.175 174.03 76.6144 172.711 79.6904C170.806 82.1805 159.378 85.5494 157.473 86.8677C157.473 86.7212 157.766 85.6959 157.913 85.5494C158.206 84.3776 158.352 82.9129 158.059 81.3016C157.766 79.8369 156.887 78.3721 155.715 77.4933C154.689 76.6144 150.733 75.7356 150.294 75.882C149.708 76.0285 149.415 76.0285 149.415 76.0285C154.982 78.6651 155.422 88.9184 153.957 88.3325C153.517 88.3325 153.224 88.186 152.785 88.0395C152.345 87.893 152.052 87.7465 151.612 87.4536C150.88 87.0142 150.001 86.4283 148.829 85.6959C147.656 84.9635 146.191 84.2311 144.58 84.0847C142.968 83.7917 141.356 84.2311 140.477 84.817C139.451 85.4029 138.865 86.1353 138.572 86.5747C138.279 87.0142 138.133 87.3071 138.133 87.3071C138.133 87.3071 138.426 87.3071 139.012 87.3071C139.598 87.3071 140.331 87.3071 141.063 87.4536C142.675 87.7465 143.554 88.7719 146.045 90.3831C147.217 91.1155 148.829 91.8479 150.44 91.9943C151.319 92.1408 152.052 91.9943 152.785 91.8479C153.078 91.8479 153.224 91.7014 153.517 91.5549C153.224 92.7267 153.078 94.1915 153.224 95.6562C153.517 98.2928 154.982 100.636 156.447 101.955C157.18 102.541 157.913 102.98 158.499 103.126C158.792 103.273 158.938 103.273 159.085 103.273C159.231 103.273 159.231 103.273 159.231 103.273C155.422 98.1463 159.085 93.1661 157.62 89.6507C159.817 88.0395 161.869 87.6001 165.092 86.4283C168.169 85.4029 170.806 84.6706 173.736 83.2058C172.857 85.11 172.564 86.8677 171.978 88.7719C171.685 89.5042 171.392 91.262 171.978 91.8479C171.978 91.9943 171.978 91.9943 172.125 91.9943C174.909 96.5351 178.279 98.8787 180.916 103.419C175.348 101.808 169.927 104.298 168.022 106.642C174.762 105.324 179.011 108.985 182.674 105.031C187.363 105.909 190 110.597 194.835 110.011C192.344 108.693 192.491 100.197 185.018 102.394Z" fill="#91C646"></path><path d="M176.813 111.769C176.374 112.355 175.788 112.941 175.348 113.527C174.909 114.113 174.616 114.699 174.323 115.431C174.03 116.017 173.883 116.749 173.737 117.482C173.59 118.068 173.737 118.8 173.443 119.386C173.004 120.265 172.418 118.8 172.271 118.507C171.685 116.896 172.125 114.699 172.857 113.088C173.443 111.769 174.616 109.719 176.081 109.279C176.813 108.986 177.106 111.33 176.813 111.769Z" fill="#F0E9E5"></path><path d="M151.759 85.2563C150.587 84.9634 149.415 84.0845 148.975 82.9127C148.975 82.7662 148.829 82.3268 148.975 82.3268C149.122 82.1803 149.268 82.3268 149.415 82.3268C149.708 82.4733 149.854 82.3268 150.001 82.4733C150.44 82.7662 151.026 83.0592 151.466 83.2057C152.052 83.6451 152.491 85.4028 151.759 85.2563Z" fill="#F0E9E5"></path><path d="M144.58 92.4343C143.7 92.5807 142.821 92.2878 141.942 92.2878C140.917 92.1413 139.891 92.4343 139.012 91.9948C138.719 91.8484 138.572 91.116 138.719 90.823C139.305 89.9442 140.77 90.2371 141.649 90.3836C142.821 90.5301 143.7 91.116 144.58 91.8484C144.58 91.9948 144.726 92.4343 144.58 92.4343Z" fill="#F0E9E5"></path><path d="M127.73 108.399C130.074 115.869 124.946 128.027 114.983 131.249C104.873 134.472 93.7382 127.148 91.2474 119.678C87.1449 106.788 104.141 107.374 107.071 106.495C111.027 105.177 123.774 95.9488 127.73 108.399Z" fill="#D14F1C"></path><path d="M118.939 99.1718C118.793 99.1718 118.646 99.1718 118.5 99.1718C118.353 99.1718 118.207 99.1718 118.06 99.1718C117.767 99.1718 117.327 99.1718 116.888 99.3183C116.595 99.3183 116.448 99.4648 116.155 99.4648C115.862 99.6113 115.716 99.6113 115.423 99.7577C115.13 99.9042 114.983 99.9042 114.69 100.051C114.397 100.197 114.104 100.344 113.958 100.49C112.932 101.076 111.906 101.808 111.027 102.541C110.588 102.98 110.148 103.273 109.709 103.713C109.269 104.006 108.976 104.445 108.536 104.738C108.243 105.031 107.804 105.324 107.511 105.617C107.364 105.763 107.218 105.91 106.925 105.91C106.925 105.91 106.925 105.91 106.925 105.763C106.925 104.738 106.485 103.273 105.753 102.248C105.167 101.222 104.434 100.49 103.994 99.7577C103.701 99.4648 103.555 99.0254 103.555 98.8789C103.408 98.5859 103.408 98.4395 103.408 98.4395C103.408 98.4395 103.262 98.5859 103.115 98.7324C102.969 99.0254 102.676 99.3183 102.676 99.9042C102.529 100.49 102.529 101.076 102.676 101.808C102.822 102.541 103.115 103.127 103.408 103.713C103.848 104.445 104.434 105.031 104.874 105.47C102.676 104.445 100.918 102.834 99.3059 100.93L99.1593 100.783C99.1593 100.783 99.0128 100.637 98.8663 100.637C95.3499 100.051 91.98 100.344 88.4636 101.076C87.8775 101.222 88.4636 103.273 89.1962 103.127C92.4195 102.394 95.6429 102.101 98.8663 102.541C98.8663 102.687 99.0128 102.687 99.0128 102.834C100.331 104.591 101.943 106.056 103.701 107.081C103.115 107.228 102.383 107.374 101.504 107.521C100.625 107.667 99.5989 107.814 98.4268 107.96C96.229 108.253 94.1778 108.693 92.7126 108.986C91.98 109.132 91.3939 109.132 90.9544 109.279C90.6613 109.279 90.5148 109.279 90.3683 109.279C90.2218 109.279 90.2218 109.279 90.2218 109.279C90.2218 109.279 90.2218 109.279 90.3683 109.425C90.5148 109.572 90.5148 109.718 90.8079 109.865C91.2474 110.157 91.8335 110.597 92.5661 110.89C94.1778 111.622 96.522 112.062 99.1593 111.622C100.478 111.476 101.65 111.036 102.676 110.45C103.701 109.865 104.58 109.132 105.167 108.546C105.313 108.4 105.46 108.253 105.606 108.107V108.253C105.753 108.546 106.046 108.986 106.339 109.279C106.632 109.572 106.925 110.011 107.218 110.304C107.804 110.89 108.536 111.476 109.123 111.915C109.562 112.355 109.855 112.648 110.148 113.087C110.441 113.526 110.588 114.259 110.588 114.845C110.734 115.431 110.734 116.016 110.734 116.456C110.734 116.895 110.881 117.042 110.881 117.042C110.881 117.042 111.027 116.895 111.32 116.602C111.613 116.309 111.906 115.87 112.346 115.284C112.639 114.698 113.078 113.819 113.078 112.648C113.078 112.062 112.932 111.476 112.639 110.743C112.346 110.157 111.906 109.572 111.467 109.132C110.588 108.253 109.562 107.96 108.829 107.667C109.123 107.521 109.562 107.521 109.855 107.374C110.441 107.228 111.027 106.789 111.613 106.496C112.199 106.203 112.639 105.763 113.225 105.324C114.251 104.445 114.983 103.566 115.716 102.834C115.862 102.687 116.009 102.541 116.155 102.248C116.302 102.101 116.448 101.955 116.595 101.808C116.741 101.662 116.888 101.515 117.034 101.369C117.181 101.222 117.327 101.076 117.474 100.93C117.767 100.637 118.06 100.49 118.353 100.197C118.5 100.051 118.646 100.051 118.646 99.9042C118.793 99.7577 118.939 99.7577 118.939 99.7577C119.379 99.4648 119.525 99.3183 119.525 99.3183C119.525 99.3183 119.525 99.1718 118.939 99.1718Z" fill="#91C646"></path><path d="M116.448 107.228C116.888 107.228 117.474 106.935 117.767 106.642C118.353 106.349 118.939 106.203 119.525 106.056C120.258 105.91 120.99 105.91 121.723 105.91C122.456 106.056 122.749 106.203 123.335 105.91C123.628 105.763 123.774 105.177 123.628 104.884C123.042 103.712 120.844 104.152 119.672 104.445C118.353 104.884 117.034 105.617 116.302 106.788C116.448 106.788 116.302 107.228 116.448 107.228Z" fill="#F0E9E5"></path><path d="M291.39 81.447C291.537 81.3006 291.683 81.3006 291.83 81.1541C295.2 78.9569 296.518 75.2951 295.639 71.0473C294.613 66.3601 291.097 61.2334 286.408 59.9152C282.599 58.8898 278.643 60.9405 276.445 64.0165C273.515 67.9713 273.808 73.5374 277.031 77.4922C280.548 81.74 286.262 83.7906 291.097 81.5935C291.097 81.5935 291.244 81.447 291.39 81.447Z" fill="#EA5E25"></path><path d="M288.899 80.1279C288.899 79.835 288.899 79.542 288.899 79.1026C288.899 78.2238 289.046 77.1984 289.046 76.0266C289.046 75.1478 288.753 74.2689 288.606 73.5365C289.192 73.976 289.925 74.4154 290.804 74.7083C291.39 74.8548 291.976 74.8548 292.562 74.7083C293.148 74.5619 293.588 74.4154 293.881 74.1224C294.174 73.8295 294.467 73.683 294.613 73.3901C294.76 73.2436 294.76 73.0971 294.76 73.0971C294.76 73.0971 294.613 73.0971 294.467 72.9506C294.174 72.9506 293.881 72.8042 293.588 72.6577C292.855 72.3647 292.123 72.0718 291.244 71.9253C290.657 71.7788 290.218 71.7788 289.632 71.7788C290.804 70.7535 291.83 69.4352 292.562 68.2634C292.709 67.9705 292.269 67.9705 292.123 67.9705C291.83 67.9705 291.39 68.2634 291.244 68.7029C290.657 69.5817 289.925 70.607 289.046 71.3394C289.339 70.607 289.632 69.7282 289.778 68.8493C289.925 68.4099 289.925 67.824 289.925 67.3846C289.925 66.7987 289.925 66.3593 289.925 65.9198C289.925 65.4804 289.778 65.041 289.632 64.8945C289.485 64.6016 289.485 64.4551 289.485 64.4551C289.485 64.4551 289.046 64.8945 288.606 65.4804C288.313 65.7734 288.02 66.2128 287.727 66.6522C287.434 67.0916 287.141 67.6775 286.995 68.4099C286.995 68.7029 286.848 68.9958 286.995 69.2888C286.848 68.9958 286.702 68.7029 286.555 68.4099C285.969 67.3846 285.236 66.6522 284.65 66.0663C284.357 65.7734 284.064 65.4804 283.918 65.3339C283.771 65.1875 283.625 65.041 283.625 65.041C283.625 65.041 283.625 65.1875 283.478 65.4804C283.478 65.7734 283.332 66.0663 283.332 66.5057C283.332 67.3846 283.478 68.7029 284.064 69.8747C284.65 70.7535 285.383 71.4859 286.115 71.9253C285.969 71.9253 285.676 72.0718 285.529 72.0718C285.09 72.2183 284.65 72.2183 284.211 72.3647C283.771 72.5112 283.332 72.6577 282.892 72.8042C282.746 72.8042 282.453 72.9506 282.306 72.9506C282.159 72.9506 281.866 73.0971 281.72 73.0971C281.573 73.0971 281.427 73.2436 281.134 73.2436C280.987 73.2436 280.841 73.2436 280.694 73.3901C280.401 73.3901 280.255 73.5365 280.255 73.5365C280.255 73.5365 280.255 73.683 280.548 73.8295C280.694 73.976 280.694 74.1224 280.841 74.1224C280.987 74.2689 281.134 74.4154 281.28 74.5619C281.427 74.7083 281.72 74.8548 282.013 75.0013C282.306 75.1478 282.599 75.1478 282.892 75.2942C283.478 75.4407 284.211 75.4407 284.943 75.1478C285.529 75.0013 285.969 74.7083 286.408 74.4154C286.262 75.0013 286.115 75.5872 286.262 76.3196C286.408 77.6379 286.995 78.9561 287.581 79.6885C287.874 80.1279 288.167 80.2744 288.46 80.4209C288.753 80.5674 288.899 80.5674 288.899 80.5674C288.899 80.5674 288.899 80.4209 288.899 80.1279Z" fill="#91C646"></path><path d="M281.134 62.8449C279.522 64.0167 278.35 65.7744 277.471 67.5321C276.885 68.8504 276.006 71.3405 277.324 72.5123C277.617 72.6588 278.203 72.2193 278.203 71.9264C278.203 71.194 277.91 70.6081 277.91 69.8757C277.91 68.9969 278.057 68.118 278.35 67.3857C279.083 65.7744 280.108 64.1632 281.28 62.8449C281.72 62.552 281.28 62.6984 281.134 62.8449Z" fill="#F0E9E5"></path><path d="M300.181 48.4923C300.035 48.6388 300.035 48.7853 299.888 48.7853C297.69 52.1542 297.983 56.1091 300.621 59.6245C303.404 63.4328 308.679 66.8018 313.514 66.0694C317.47 65.4835 320.107 61.9681 320.986 58.3062C322.012 53.4725 319.668 48.4923 314.979 46.1487C310.144 43.6587 303.99 44.2446 300.474 48.0529C300.328 48.3459 300.181 48.3459 300.181 48.4923Z" fill="#EA5E25"></path><path d="M300.474 46.5879C300.621 46.8808 300.767 47.1738 300.767 47.6132C301.06 48.3456 301.353 49.3709 301.939 50.5427C302.379 51.2751 302.818 52.0075 303.258 52.5934C302.525 52.4469 301.793 52.3004 300.767 52.4469C300.181 52.5934 299.595 52.8863 299.155 53.1793C298.716 53.4722 298.423 53.9116 298.13 54.2046C297.837 54.4975 297.837 54.937 297.69 55.0834C297.69 55.3764 297.544 55.5229 297.544 55.5229C297.544 55.5229 297.69 55.5229 297.983 55.5229C298.276 55.5229 298.569 55.5229 298.862 55.3764C299.595 55.3764 300.474 55.3764 301.353 55.0834C301.793 54.937 302.379 54.7905 302.818 54.4975C302.086 55.8158 301.646 57.427 301.5 58.8918C301.5 59.3312 301.939 59.0383 302.086 58.8918C302.379 58.7453 302.525 58.3059 302.672 57.8665C302.818 56.8411 303.111 55.5229 303.551 54.4975C303.551 55.2299 303.697 56.1088 303.99 57.1341C304.137 57.5735 304.283 58.1594 304.43 58.5988C304.577 59.0383 304.87 59.6242 305.016 59.9171C305.309 60.3565 305.456 60.6495 305.749 60.796C305.895 60.9424 306.042 61.0889 306.042 61.0889C306.042 61.0889 306.188 60.503 306.481 59.7706C306.628 59.3312 306.774 58.8918 306.774 58.3059C306.774 57.72 306.774 57.1341 306.628 56.4017C306.481 56.1088 306.481 55.8158 306.335 55.5229C306.628 55.8158 306.921 55.9623 307.067 56.1088C307.946 56.6947 308.972 57.2806 309.705 57.5735C310.144 57.72 310.437 57.8665 310.73 58.0129C311.023 58.1594 311.17 58.1594 311.17 58.1594C311.17 58.1594 311.17 58.0129 311.17 57.72C311.17 57.427 311.023 57.1341 310.877 56.6947C310.584 55.8158 309.851 54.644 308.826 53.9116C307.946 53.3257 306.921 53.0328 306.042 52.8863C306.188 52.7398 306.335 52.5934 306.628 52.5934C307.067 52.3004 307.36 52.0075 307.8 51.7145C308.093 51.4216 308.532 51.1286 308.826 50.8356C308.972 50.6892 309.119 50.5427 309.265 50.3962C309.412 50.2497 309.558 50.1033 309.705 49.9568C309.851 49.8103 309.998 49.8103 310.144 49.6638C310.291 49.5174 310.437 49.5174 310.437 49.3709C310.584 49.2244 310.73 49.0779 310.73 49.0779C310.73 49.0779 310.584 48.9315 310.437 48.9315C310.291 48.9315 310.144 48.785 309.998 48.785C309.851 48.785 309.558 48.6385 309.412 48.6385C309.119 48.6385 308.972 48.6385 308.679 48.6385C308.386 48.6385 308.093 48.6385 307.8 48.785C307.214 48.9315 306.481 49.2244 306.042 49.6638C305.602 49.9568 305.309 50.3962 305.016 50.8356C304.87 50.2497 304.723 49.6638 304.43 48.9315C303.844 47.7597 302.818 46.8808 301.793 46.4414C301.353 46.2949 300.914 46.1484 300.621 46.1484C300.328 46.1484 300.181 46.1484 300.181 46.1484C300.181 46.1484 300.328 46.2949 300.474 46.5879Z" fill="#91C646"></path><path d="M317.91 53.033C317.323 51.1289 316.005 49.5176 314.54 48.0529C313.514 47.0276 311.316 45.4163 309.851 46.4417C309.558 46.5881 309.851 47.467 310.144 47.467C310.73 47.7599 311.463 47.6135 312.195 47.7599C313.074 47.9064 313.807 48.4923 314.393 48.9317C315.712 50.1035 317.03 51.5683 317.763 53.033C317.91 53.6189 317.91 53.1795 317.91 53.033Z" fill="#F0E9E5"></path><path d="M280.987 45.8533C281.134 45.9997 281.134 45.9997 281.28 46.1462C284.064 48.4898 288.313 50.1011 291.83 48.6363C295.639 47.0251 297.837 42.0449 296.079 38.2366C294.76 35.0141 293.148 37.5042 291.537 33.8423C288.313 26.5185 280.255 28.5692 277.471 33.5493C275.273 37.3577 278.057 42.7773 280.841 45.7068C280.694 45.7068 280.841 45.7068 280.987 45.8533Z" fill="#EA5E25"></path><path d="M297.837 36.0405C297.837 36.1869 296.372 34.5757 294.467 34.1363C294.027 33.9898 293.588 33.9898 293.148 33.9898C293.295 33.8433 293.441 33.6969 293.734 33.5504C294.467 32.9645 294.906 32.2321 295.199 31.6462C295.492 31.0603 295.639 30.4744 295.639 30.4744C295.639 30.4744 295.199 30.4744 294.467 30.6209C293.734 30.7674 292.855 31.0603 292.123 31.6462C292.123 31.3533 292.123 31.0603 291.976 30.7674C291.683 29.5955 291.243 28.7167 290.804 28.1308C290.657 27.8378 290.364 27.5449 290.364 27.3984C290.218 27.2519 290.218 27.1055 290.218 27.1055C290.218 27.1055 290.071 27.2519 290.071 27.3984C289.925 27.5449 289.778 27.9843 289.778 28.2773C289.485 29.1561 289.485 30.1814 289.632 31.3533C289.925 33.111 291.097 34.2828 291.536 34.8687C291.976 35.4546 293.148 36.3334 294.174 36.4799C295.199 36.7728 296.225 36.6264 296.958 36.4799C297.397 36.3334 297.69 36.3334 297.837 36.1869C297.837 36.0405 297.837 36.0405 297.837 36.0405Z" fill="#91C646"></path><path d="M280.255 32.6718C281.427 32.5253 282.452 32.2324 283.625 32.2324C284.65 32.3788 285.822 32.6718 286.848 32.9647C286.994 32.9647 287.434 32.5253 287.288 32.3788C286.262 31.5 285.236 31.207 283.918 31.207C282.745 31.207 281.427 31.3535 280.548 31.9394C280.401 32.0859 279.962 32.6718 280.255 32.6718Z" fill="#F0E9E5"></path><path d="M164.707 149.558C164.707 149.412 164.853 149.266 164.853 149.266C167.051 142.967 166.025 136.522 161.337 131.688C156.502 126.708 148.59 123.925 141.704 125.39C135.11 126.855 130.568 132.421 129.25 138.719C127.491 146.922 135.257 153.513 145.074 155.417C150.788 156.443 161.19 158.2 164.707 149.851C164.56 149.705 164.56 149.558 164.707 149.558Z" fill="#FFB118"></path><path d="M154.011 148.387C154.011 149.119 153.278 149.558 152.252 149.558C151.227 149.558 150.494 148.973 150.494 148.387C150.494 147.801 151.227 147.215 152.252 147.215C153.278 147.215 154.011 147.801 154.011 148.387Z" fill="#EA5E25"></path><path d="M140.091 140.33C140.982 140.33 141.703 139.871 141.703 139.305C141.703 138.738 140.982 138.279 140.091 138.279C139.201 138.279 138.48 138.738 138.48 139.305C138.48 139.871 139.201 140.33 140.091 140.33Z" fill="#EA5E25"></path><path d="M161.776 138.572C161.776 139.158 161.043 139.744 160.164 139.744C159.285 139.744 158.553 139.305 158.553 138.572C158.553 137.84 159.285 137.4 160.164 137.4C161.043 137.547 161.776 137.986 161.776 138.572Z" fill="#EA5E25"></path><path d="M86.7054 205.953C90.0753 212.251 85.6798 220.014 79.0865 222.797C71.6141 225.873 67.5116 226.606 62.237 223.676C55.6438 219.868 59.0136 208.296 64.2883 204.928C76.0096 197.604 82.4564 197.897 86.7054 205.953Z" fill="#FFB118"></path><path d="M72.9328 204.488C73.9848 204.488 74.8375 204.16 74.8375 203.756C74.8375 203.351 73.9848 203.023 72.9328 203.023C71.8808 203.023 71.0281 203.351 71.0281 203.756C71.0281 204.16 71.8808 204.488 72.9328 204.488Z" fill="#EA5E25"></path><path d="M71.0281 214.156C71.0281 214.889 70.2955 215.328 69.2699 215.328C68.2443 215.328 67.5117 214.742 67.5117 214.156C67.5117 213.424 68.2443 212.984 69.2699 212.984C70.2955 212.984 71.0281 213.57 71.0281 214.156Z" fill="#EA5E25"></path><path d="M83.0425 208.883C83.0425 209.322 82.3099 209.615 81.4308 209.615C80.5517 209.615 79.8191 209.322 79.8191 208.883C79.8191 208.443 80.5517 208.15 81.4308 208.15C82.3099 208.15 83.0425 208.443 83.0425 208.883Z" fill="#EA5E25"></path><path d="M20.0336 200.126C19.301 190.313 30.7294 188.408 35.5645 189.141C48.751 191.338 51.0953 195.293 51.0953 199.541C51.0953 204.96 45.9672 212.137 35.5645 212.137C30.1433 211.991 20.4732 206.132 20.0336 200.126Z" fill="#FFB118"></path><path d="M28.3852 196.172C28.3852 196.758 27.6526 197.344 26.627 197.344C25.7479 197.344 24.8688 196.758 24.8688 196.172C24.8688 195.586 25.6014 195 26.627 195C27.6526 195 28.3852 195.586 28.3852 196.172Z" fill="#EA5E25"></path><path d="M42.1577 204.375C42.1577 204.814 41.132 205.254 39.8134 205.254C38.4947 205.254 37.4691 204.814 37.4691 204.375C37.4691 203.936 38.4947 203.496 39.8134 203.496C41.132 203.643 42.1577 203.936 42.1577 204.375Z" fill="#EA5E25"></path><path d="M62.823 164.06C66.486 171.384 58.1345 176.511 54.3251 177.389C43.4828 179.88 40.4059 177.536 39.0873 174.167C37.4756 169.919 39.0873 162.888 47.1457 159.666C51.3947 158.055 60.6253 159.666 62.823 164.06Z" fill="#FFB118"></path><path d="M49.1969 173.582C49.1969 173.289 49.9295 172.996 50.6621 172.996C51.3947 173.143 51.9807 173.436 51.9807 173.728C51.9807 174.021 51.2481 174.314 50.5156 174.314C49.783 174.314 49.1969 173.875 49.1969 173.582Z" fill="#EA5E25"></path><path d="M57.5484 163.768C57.5484 163.475 58.281 163.182 59.0136 163.182C59.7462 163.182 60.3323 163.621 60.3323 163.914C60.3323 164.207 59.5997 164.5 58.8671 164.5C57.988 164.5 57.4019 164.207 57.5484 163.768Z" fill="#EA5E25"></path><path d="M44.2153 166.696C44.2153 166.256 45.0944 166.11 46.1201 166.256C47.1457 166.403 48.0248 166.842 47.8783 167.135C47.8783 167.574 46.9992 167.721 45.9735 167.574C44.9479 167.574 44.2153 167.135 44.2153 166.696Z" fill="#EA5E25"></path><path d="M267.654 236.859L275.713 238.323C275.859 236.273 275.859 229.681 275.859 229.095C275.566 224.115 275.419 221.625 273.954 216.938C273.954 216.938 273.808 216.498 273.661 216.498C273.661 216.498 272.929 212.104 272.196 211.811C271.757 211.518 271.024 211.811 270.584 212.251C269.998 212.69 269.412 213.422 269.266 213.862C268.826 214.887 269.119 216.206 269.266 217.231C269.559 220.6 269.559 225.141 270.145 228.509C270.145 229.095 268.387 234.808 267.654 236.859Z" fill="#FCB28F"></path><path d="M269.412 221.186C269.559 220.893 270.291 224.262 270.731 225.434C271.464 227.631 270.731 231.293 271.317 234.662L270.145 228.51C269.559 227.191 269.412 221.186 269.412 221.186Z" fill="#DF7C63"></path><path d="M258.277 201.705C258.277 200.533 258.424 199.361 259.156 198.482C259.889 197.603 261.354 196.578 262.233 197.31C262.966 197.896 263.552 202.876 263.552 202.876C264.431 203.169 265.163 206.831 266.189 210.054C266.775 211.812 270.145 220.746 270.438 221.772C271.61 226.459 272.05 231.439 272.489 236.273L264.577 236.126C263.112 229.242 262.233 222.065 260.768 215.327C260.475 213.716 260.035 211.958 259.596 210.347C258.717 207.417 258.277 204.781 258.277 201.705Z" fill="#FCB28F"></path><path d="M260.328 213.277C261.061 213.13 261.94 218.257 263.259 220.454C265.31 223.969 264.431 225.434 264.284 227.924L261.793 221.04C261.647 219.721 260.328 213.277 260.328 213.277Z" fill="#DF7C63"></path><path d="M246.409 199.508C246.995 198.337 247.874 197.165 249.193 197.311C249.339 197.311 251.684 202.438 251.83 203.61C252.123 203.61 252.27 204.049 252.416 204.342C253.588 207.418 258.277 215.328 259.889 217.525C262.672 221.626 269.119 233.344 270.145 236.127L259.596 234.223C255.347 227.632 254.614 226.46 251.684 219.283C251.098 217.964 247.288 209.762 246.995 208.443C246.409 206.393 245.823 205.221 245.823 203.17C245.823 201.998 245.823 200.68 246.409 199.508Z" fill="#FCB28F"></path><path d="M251.537 228.217C252.123 228.217 254.614 229.389 255.64 229.682C258.131 230.414 260.475 232.025 261.793 234.369L256.958 232.318C256.812 232.318 253.588 229.974 251.537 228.217Z" fill="#DF7C63"></path><path d="M236.153 232.904C236.446 233.197 236.885 233.343 237.325 233.49C238.644 234.076 239.962 234.515 241.281 235.101C241.867 235.394 242.453 235.54 243.039 235.833C243.186 235.98 243.479 235.98 243.625 236.126L243.772 236.273C243.772 236.273 243.772 236.273 243.772 236.126C243.772 236.126 243.772 236.126 243.772 236.273C243.772 236.273 243.772 236.273 243.918 236.273C244.944 236.126 248.46 232.611 248.9 231.732C249.193 232.171 254.468 236.273 255.933 236.126C255.347 238.616 255.786 243.889 255.2 245.061C253.588 247.991 250.072 248.43 250.072 248.43L256.958 291.054H282.452C281.866 289.883 272.489 272.745 271.903 270.401C271.317 268.497 271.17 266.3 271.464 264.249C271.757 261.613 272.196 258.976 272.636 256.34C273.368 251.799 274.394 247.405 275.566 243.011C276.006 241.399 276.445 239.935 276.152 238.323C275.859 237.005 275.273 235.687 274.101 234.808C273.222 234.222 272.05 234.076 271.024 234.076C270.291 234.076 269.559 234.222 268.826 234.222C267.215 233.343 265.749 232.318 264.138 231.293C262.233 229.974 251.83 222.211 250.658 222.358C249.779 222.504 248.9 223.09 248.021 223.529C247.288 224.115 237.618 230.853 236.006 232.171C236.153 232.464 235.86 232.611 236.153 232.904Z" fill="#FCB28F"></path><path d="M256.226 236.126C255.786 236.126 254.907 235.687 254.907 235.687C254.907 235.687 255.933 235.687 256.372 235.833C257.544 235.98 259.303 233.929 259.596 234.222C256.226 236.859 256.079 240.52 255.933 244.182C255.933 244.768 255.054 245.794 255.64 244.768C256.079 243.743 255.64 237.298 256.226 236.126Z" fill="#DF7C63"></path><path d="M246.116 231.731C249.779 231.878 249.193 226.751 250.072 226.898C250.072 228.069 248.9 231.292 249.486 232.024C249.339 231.878 249.339 231.878 249.193 231.731C249.193 231.731 247.435 234.807 244.211 236.272C245.53 235.247 244.651 231.585 246.116 231.731Z" fill="#DF7C63"></path><path d="M273.661 216.498C273.661 216.498 273.515 211.518 271.903 211.518C271.171 211.518 270.438 217.23 273.661 216.498Z" fill="#DF7C63"></path><path d="M263.552 202.877C263.845 202.73 263.845 198.189 261.94 197.018C260.475 196.578 259.596 203.023 263.552 202.877Z" fill="#DF7C63"></path><path d="M251.977 203.755C252.27 203.609 251.098 198.482 249.046 197.31C247.581 196.871 247.874 204.048 251.977 203.755Z" fill="#DF7C63"></path><path d="M268.68 219.43C268.24 219.869 267.508 220.016 266.922 220.016V219.869C267.654 219.869 268.094 219.723 268.68 219.43Z" fill="#DF7C63"></path><path d="M268.533 218.844C268.094 218.99 267.654 219.137 267.215 219.43C266.775 219.723 266.482 220.016 266.189 220.162C266.189 220.162 266.042 220.016 266.189 220.016C266.775 219.283 267.801 218.697 268.68 218.551C268.533 218.697 268.533 218.844 268.533 218.844Z" fill="#DF7C63"></path><path d="M275.126 223.385C274.833 223.531 274.394 223.678 274.101 223.678C274.101 223.678 273.954 223.531 274.101 223.531C274.394 223.385 274.833 223.385 275.126 223.238V223.385Z" fill="#DF7C63"></path><path d="M275.42 224.264C274.98 224.703 274.247 224.85 273.661 224.557V224.41C273.954 224.41 274.247 224.41 274.54 224.41C274.834 224.41 275.127 224.264 275.42 224.264Z" fill="#DF7C63"></path><path d="M275.419 223.824C275.126 224.117 274.687 224.264 274.247 224.117V223.971C274.54 223.971 274.98 223.971 275.419 223.824Z" fill="#DF7C63"></path><path d="M265.896 210.641C265.749 210.787 264.87 210.934 264.577 211.227V211.08C264.724 210.934 265.017 210.787 265.163 210.787C265.31 210.641 265.603 210.641 265.896 210.641Z" fill="#DF7C63"></path><path d="M266.335 211.373C265.896 211.812 265.163 211.959 264.724 211.812C264.724 211.812 264.577 211.52 264.724 211.52C265.017 211.52 265.31 211.52 265.603 211.52C265.896 211.52 266.189 211.373 266.335 211.227C266.335 211.227 266.335 211.373 266.335 211.373Z" fill="#DF7C63"></path><path d="M260.914 220.161C260.621 221.04 259.303 222.065 258.423 221.479C258.423 221.479 258.423 221.333 258.423 221.186C258.863 221.04 259.303 221.186 259.742 220.893C260.182 220.747 260.621 220.307 260.768 219.868C260.914 219.722 260.914 220.015 260.914 220.161Z" fill="#DF7C63"></path><path d="M260.621 219.135C260.475 219.282 260.328 219.428 260.035 219.575C259.889 219.721 259.742 219.868 259.596 220.014V219.868C259.742 219.721 259.889 219.575 260.035 219.428C260.182 219.135 260.328 218.989 260.621 219.135C260.621 218.989 260.621 218.989 260.621 219.135Z" fill="#DF7C63"></path><path d="M259.742 219.135C259.596 219.282 259.303 219.575 259.156 219.721C259.01 219.868 259.01 219.868 258.863 220.014C258.863 220.161 258.717 220.161 258.717 220.307C258.57 220.454 258.57 220.161 258.57 220.161C258.863 219.721 259.303 218.989 259.742 219.135C259.742 218.989 259.742 219.135 259.742 219.135Z" fill="#DF7C63"></path><path d="M281.28 283.438C278.35 278.604 253.149 283.877 253.442 286.807C253.442 292.519 259.01 336.755 261.207 344.957C263.112 351.109 308.532 344.078 305.309 336.462C297.69 314.783 289.925 294.863 281.28 283.438Z" fill="#F07B9B"></path><path d="M130.367 244.33C130.807 243.597 126.118 229.682 122.456 228.95C118.207 228.217 106.632 234.076 105.606 235.541L106.632 236.127C105.313 236.859 104.434 237.445 104.141 237.885L114.983 244.476C115.716 244.476 117.474 243.451 119.086 242.426C119.965 244.476 121.869 247.552 124.653 250.189C125.386 250.921 126.118 251.8 127.144 252.093C128.17 252.386 129.781 252.239 130.074 251.214C130.074 251.068 130.074 250.775 129.928 250.482C130.954 250.628 132.419 250.482 132.712 249.456C133.005 248.431 130.367 244.33 130.367 244.33Z" fill="#DF7C63"></path><path d="M132.858 240.521C133.444 239.789 128.17 224.409 124.214 223.676C119.672 222.797 105.46 233.051 103.262 235.248C102.529 235.98 101.797 237.738 101.797 239.642C101.504 240.082 100.038 241.693 100.185 243.011C100.771 252.093 101.211 266.447 101.504 268.644C101.797 270.841 98.7198 273.624 98.1337 276.407C96.9616 282.266 89.6357 297.353 89.6357 297.353H115.862L124.36 251.946C124.36 251.946 119.525 248.284 117.914 245.062C117.327 243.743 117.914 239.789 118.06 238.47C118.939 238.47 120.99 237.299 122.749 235.98C123.774 238.324 125.972 241.839 129.049 244.915C129.928 245.794 130.954 246.526 132.126 246.819C133.298 247.112 134.47 246.966 134.763 246.234L132.858 240.521Z" fill="#FCB28F"></path><path d="M121.283 236.127C123.481 233.637 124.8 230.122 125.679 230.268C125.679 231.586 122.749 235.688 123.042 236.713C122.895 236.567 122.749 236.42 122.602 236.274C122.163 236.567 119.525 238.324 118.06 238.471C119.672 237.445 119.818 237.738 121.283 236.127Z" fill="#DF7C63"></path><path d="M128.17 240.081C128.463 240.52 129.049 240.52 129.488 240.813C130.075 241.106 130.661 241.545 131.247 241.253C131.247 241.253 131.247 241.106 131.247 240.96C130.954 240.813 130.661 240.813 130.368 240.813C130.075 240.813 129.928 240.667 129.635 240.52C129.049 240.227 128.463 240.227 128.17 240.081C128.17 239.934 128.17 240.081 128.17 240.081Z" fill="#E05545"></path><path d="M126.998 240.667C127.584 241.253 128.316 241.692 129.195 241.985C129.781 242.131 130.661 242.571 131.247 242.278V241.985C130.514 241.838 129.928 241.838 129.195 241.546C128.316 241.106 127.73 240.813 126.998 240.667C126.998 240.52 126.998 240.667 126.998 240.667Z" fill="#E05545"></path><path d="M123.774 223.676C123.774 224.115 124.067 224.701 124.36 224.994H124.507C124.214 224.555 124.067 224.115 124.067 223.676H123.774Z" fill="#DF7C63"></path><path d="M109.416 234.809C109.123 235.248 109.123 235.687 108.829 236.127C108.536 236.859 108.097 237.299 107.657 237.885C106.925 238.617 106.632 239.349 106.632 240.375C106.632 240.375 106.632 240.521 106.778 240.521C107.071 239.935 107.071 239.349 107.511 238.763C107.804 238.324 108.39 237.885 108.683 237.445C109.123 236.713 109.416 235.687 109.416 234.809Z" fill="#DF7C63"></path><path d="M92.7126 281.973C96.0825 278.018 119.379 284.756 120.258 286.66C121.576 292.373 114.251 328.113 110.441 342.907C109.122 347.594 67.0721 342.614 68.3907 336.315C74.3979 318.299 90.5148 284.463 92.7126 281.973Z" fill="#F07B9B"></path><path d="M177.985 255.754C177.985 255.754 187.509 278.458 196.593 256.047C205.824 233.49 177.985 255.754 177.985 255.754Z" fill="#A9BFAA"></path><path d="M189.707 177.684C188.388 177.83 186.777 177.684 185.604 177.537C171.392 175.486 127.73 166.844 122.162 172.411C120.551 174.022 121.869 244.33 122.162 263.958C122.162 265.862 153.517 259.563 187.363 262.346C219.889 259.856 250.658 267.766 251.977 264.836C255.054 257.659 254.467 181.346 253.881 173.582C253.588 168.456 201.721 176.365 189.707 177.684Z" fill="#A9BFAA"></path><path d="M124.653 258.098L187.509 175.34V259.856C187.363 260.296 151.173 256.048 127.144 261.321C124.36 261.907 124.653 258.098 124.653 258.098Z" fill="#F1E9E6"></path><path d="M126.266 168.455C146.485 162.01 181.503 166.258 187.363 176.218V258.83C177.547 251.653 132.42 252.093 124.947 258.098L125.094 169.92C125.094 169.188 125.533 168.602 126.266 168.455Z" fill="white"></path><path d="M250.365 258.098L187.509 176.219V260.003C188.828 260.735 218.864 255.022 246.556 261.321C248.021 261.614 250.365 259.856 250.365 258.098Z" fill="#F1E9E6"></path><path d="M247.728 168.896C227.508 162.89 192.198 165.673 187.363 176.073V258.685C198.498 252.387 236.006 250.775 249.779 257.953V171.532C249.926 170.361 249.046 169.335 247.728 168.896Z" fill="white"></path><path d="M132.126 175.778C148.682 170.065 166.557 174.02 182.381 180.172C182.821 180.319 182.821 179.586 182.527 179.293C175.788 175.192 166.997 173.581 159.231 172.555C150.147 171.384 140.77 171.677 131.979 174.899C131.686 175.046 131.833 175.924 132.126 175.778Z" fill="#F1E9E6"></path><path d="M132.126 184.859C148.975 180.904 166.118 182.662 181.649 190.279C182.235 190.572 182.381 189.107 181.795 188.961C166.704 181.197 148.096 180.026 131.979 184.566C131.833 184.566 131.979 185.006 132.126 184.859Z" fill="#F1E9E6"></path><path d="M132.126 194.966C140.331 192.915 148.682 192.329 157.034 193.208C165.678 194.087 173.297 196.87 181.502 199.36C181.795 199.506 181.795 198.92 181.648 198.774C167.436 191.304 147.217 189.692 131.979 194.087C131.686 194.38 131.833 195.112 132.126 194.966Z" fill="#F1E9E6"></path><path d="M132.126 205.952C140.624 204.34 149.268 203.169 157.913 203.901C165.971 204.633 173.444 207.124 181.209 209.467C181.942 209.76 182.088 208.149 181.502 207.856C165.825 201.704 148.389 200.972 132.126 205.219C131.686 205.219 131.833 206.098 132.126 205.952Z" fill="#F1E9E6"></path><path d="M132.126 216.058C140.038 214.887 147.657 213.715 155.715 214.301C164.799 215.033 173.151 217.523 181.795 220.16C182.381 220.306 182.528 219.134 181.942 218.988C166.85 213.129 147.657 210.346 132.126 215.473C131.833 215.473 131.833 216.058 132.126 216.058Z" fill="#F1E9E6"></path><path d="M132.273 226.312C140.918 224.554 149.416 223.675 158.207 224.701C165.972 225.579 173.151 228.07 180.77 229.827C181.21 229.974 181.21 229.095 180.917 229.095C165.532 223.968 148.097 221.185 132.273 226.019C132.127 226.019 132.127 226.312 132.273 226.312Z" fill="#F1E9E6"></path><path d="M132.126 235.979C148.829 232.317 165.825 233.489 181.649 240.666C182.235 240.959 182.528 239.494 181.942 239.201C166.704 232.757 147.95 230.12 132.126 235.54C131.833 235.54 131.833 235.979 132.126 235.979Z" fill="#F1E9E6"></path><path d="M132.126 247.112C140.624 245.94 148.683 244.475 157.327 245.061C165.825 245.647 174.03 247.991 182.382 249.455C182.821 249.602 182.821 248.43 182.528 248.284C166.997 243.45 147.804 241.546 132.126 246.819C131.98 246.819 131.98 247.258 132.126 247.112Z" fill="#F1E9E6"></path><path d="M193.663 181.344C201.428 178.561 209.34 176.364 217.692 175.778C226.922 175.192 235.567 177.096 244.504 179.001C244.944 179.147 244.944 178.268 244.651 178.122C228.094 171.823 209.633 174.313 193.516 180.465C193.223 180.612 193.223 181.491 193.663 181.344Z" fill="#F1E9E6"></path><path d="M193.809 189.401C209.926 185.446 227.508 181.198 243.186 188.669C243.772 188.962 243.918 187.497 243.332 187.35C228.094 179.734 209.047 184.567 193.663 188.962C193.516 189.108 193.663 189.547 193.809 189.401Z" fill="#F1E9E6"></path><path d="M194.102 198.043C202.307 195.992 210.366 194.234 218.864 193.941C227.362 193.648 234.981 195.259 243.186 197.75C243.479 197.896 243.479 197.31 243.332 197.164C228.827 189.693 209.047 192.916 194.102 197.31C193.663 197.31 193.809 198.043 194.102 198.043Z" fill="#F1E9E6"></path><path d="M193.809 208.736C202.161 206.393 210.659 204.196 219.303 203.903C227.215 203.756 234.541 205.514 242.307 207.272C243.039 207.418 243.186 205.807 242.6 205.66C226.336 200.68 209.487 202.438 193.663 208.004C193.223 208.004 193.37 208.883 193.809 208.736Z" fill="#F1E9E6"></path><path d="M193.077 219.134C201.282 217.669 209.194 215.472 217.399 214.886C225.897 214.3 233.955 215.472 242.16 217.962C242.6 218.109 242.6 217.23 242.307 217.083C226.63 211.224 208.461 213.861 192.931 218.694C192.931 218.694 192.931 219.134 193.077 219.134Z" fill="#F1E9E6"></path><path d="M193.809 229.096C202.601 227.192 211.245 225.141 220.183 224.848C227.801 224.555 234.834 225.873 242.307 227.338C242.746 227.485 242.746 226.606 242.453 226.606C227.069 221.626 208.754 223.823 193.809 228.803C193.663 228.803 193.663 229.096 193.809 229.096Z" fill="#F1E9E6"></path><path d="M192.93 240.227C208.461 236.711 227.655 232.61 243.039 239.201C243.625 239.494 243.918 238.03 243.332 237.737C236.739 235.1 229.267 234.661 222.234 234.954C212.417 235.247 202.161 236.565 192.93 239.787C192.784 239.934 192.784 240.373 192.93 240.227Z" fill="#F1E9E6"></path><path d="M194.102 249.163C202.454 247.991 210.659 245.648 219.157 245.062C227.801 244.476 235.713 245.941 244.065 247.405C244.504 247.552 244.504 246.38 244.211 246.233C228.534 241.546 209.487 243.597 194.102 248.87C193.956 248.87 193.956 249.309 194.102 249.163Z" fill="#F1E9E6"></path><path d="M193.223 259.564C193.223 259.564 187.949 254.437 181.355 259.564C186.63 263.372 188.388 263.811 193.223 259.564Z" fill="#F1E9E6"></path><path d="M186.923 176.218C186.337 200.386 186.483 224.408 186.483 248.577C186.483 251.799 186.776 256.193 186.776 258.83C186.776 259.855 187.949 259.855 187.949 258.83C187.949 235.394 188.388 210.493 187.949 186.471C187.949 183.102 187.802 179.587 187.802 176.218C187.802 175.339 186.923 175.339 186.923 176.218Z" fill="#F1E9E6"></path><path d="M137.254 228.069C136.521 227.337 135.349 227.19 134.324 227.483C133.298 227.776 131.979 228.509 131.247 229.241C127.877 232.463 126.119 236.711 124.946 241.252C123.921 245.207 122.895 249.015 120.111 251.945L117.914 285.78C119.525 278.75 120.551 275.234 124.8 270.254C128.17 266.006 133.591 258.829 133.591 250.187C133.591 249.015 134.03 242.717 134.47 241.252C135.349 238.176 136.228 235.393 136.521 234.368C136.668 233.489 137.254 231.145 137.4 230.266C137.4 229.387 137.986 228.655 137.254 228.069Z" fill="#FCB28F"></path><path d="M131.54 239.348C131.833 239.787 132.272 239.934 132.712 240.08C133.151 240.373 133.737 240.812 134.324 240.666C134.324 240.666 134.324 240.519 134.324 240.373C134.03 240.227 133.737 240.227 133.591 240.08C133.298 239.934 133.151 239.787 132.858 239.641C132.419 239.641 131.833 239.641 131.54 239.348Z" fill="#DF7C63"></path><path d="M130.514 239.789C130.954 240.375 131.686 240.814 132.419 241.254C132.858 241.547 133.737 241.986 134.177 241.84V241.547C133.591 241.4 132.858 241.254 132.272 240.814C131.686 240.521 131.1 240.082 130.514 239.789C130.368 239.789 130.368 239.789 130.514 239.789Z" fill="#DF7C63"></path><path d="M134.177 227.923C133.298 228.656 132.565 230.267 132.272 231.146C131.833 232.61 131.686 234.222 133.005 234.954C134.177 235.686 135.203 235.686 135.935 234.954C136.961 234.075 137.84 230.12 137.986 229.242C138.133 228.07 136.521 226.019 134.177 227.923Z" fill="#DF7C63"></path><path d="M117.914 245.061C117.914 249.162 118.207 247.844 120.111 252.091C120.99 251.066 121.723 250.187 122.163 249.308C121.283 249.015 118.939 245.061 117.914 245.061Z" fill="#DF7C63"></path><path d="M255.933 244.182C255.786 248.869 255.786 248.136 254.175 251.945C253.295 250.041 251.684 250.041 251.098 248.136C253.735 248.136 254.321 246.379 255.933 244.182Z" fill="#DF7C63"></path><path d="M237.179 228.216C237.912 227.483 238.938 227.19 239.963 227.483C240.989 227.776 242.308 228.509 243.04 229.241C246.41 232.464 248.168 236.711 249.34 241.252C250.366 245.207 252.271 247.404 254.908 250.48L256.227 284.462C254.615 277.431 253.736 275.381 249.487 270.401C246.117 266.153 240.696 258.976 240.696 250.334C240.696 249.162 240.256 242.863 239.817 241.399C238.938 238.323 238.058 235.54 237.765 234.514C237.619 233.635 237.033 231.292 236.886 230.413C236.886 229.388 237.179 228.216 237.179 228.216Z" fill="#FCB28F"></path><path d="M240.255 228.363C240.988 229.241 241.721 230.413 241.867 231.292C242.307 232.757 242.453 234.368 241.134 235.1C239.962 235.833 238.937 235.833 238.204 235.1C237.178 234.222 236.739 231.292 236.592 230.413C236.153 228.07 238.351 226.165 240.255 228.363Z" fill="#DF7C63"></path><path d="M242.746 239.348C242.453 239.787 242.014 239.934 241.574 240.08C241.135 240.373 240.548 240.812 239.962 240.666C239.962 240.666 239.962 240.519 239.962 240.373C240.255 240.227 240.548 240.227 240.695 240.08C240.988 239.934 241.135 239.787 241.428 239.641C241.867 239.641 242.453 239.641 242.746 239.348Z" fill="#DF7C63"></path><path d="M243.772 239.787C243.332 240.373 242.6 240.812 241.867 241.252C241.428 241.545 240.548 241.984 240.109 241.838V241.545C240.695 241.398 241.428 241.252 242.014 240.812C242.6 240.519 243.186 240.08 243.772 239.787Z" fill="#DF7C63"></path><defs><linearGradient id="paint0_linear" x1="-103.111" y1="212.34" x2="295.647" y2="148.838" gradientUnits="userSpaceOnUse"><stop stop-color="white"></stop><stop offset="1" stop-color="#A0C7CF" stop-opacity="0.45"></stop></linearGradient><linearGradient id="paint1_linear" x1="225.116" y1="85.2441" x2="218.5" y2="127.5" gradientUnits="userSpaceOnUse"><stop stop-color="#BF8FFF"></stop><stop offset="0.697207" stop-color="#FBF3D9"></stop></linearGradient><linearGradient id="paint2_linear" x1="195.486" y1="42.5195" x2="188.722" y2="78.3543" gradientUnits="userSpaceOnUse"><stop stop-color="#BF8FFF"></stop><stop offset="0.697207" stop-color="#FBF3D9"></stop></linearGradient></defs></svg>