<svg xmlns="http://www.w3.org/2000/svg" width="142" height="133" viewBox="0 0 142 133" fill="none"><rect width="140" height="133" transform="matrix(-1 0 0 1 142 0)" fill="white"></rect><path fill-rule="evenodd" clip-rule="evenodd" d="M65.8526 3.80498C78.5356 0.454326 92.3811 8.07992 101.848 17.1364C110.735 25.6384 110.661 39.1058 114.83 50.66C119.185 62.731 128.528 73.5498 126.786 86.2596C124.908 99.964 117.494 114.072 105.248 120.576C93.3536 126.894 79.3277 118.896 65.8526 118.626C52.7796 118.365 39.3999 124.614 27.5878 119.025C14.7783 112.963 3.15183 101.578 0.489907 87.6942C-2.10293 74.1708 6.0471 60.8567 14.3218 49.8328C20.8594 41.1232 33.3538 40.3436 41.4809 33.0844C51.1936 24.4089 53.2464 7.13532 65.8526 3.80498Z" fill="#E8E9FB"></path><path d="M77.2464 132.764C93.7359 129.244 90.9938 105.417 75.69 104.12C52.4194 102.193 51.2337 136.136 77.2464 132.764Z" fill="#9CEA49"></path><path d="M74.6523 123.573C80.507 122.313 79.5436 113.828 74.0965 113.383C65.7961 112.679 65.3885 124.796 74.6523 123.573Z" fill="#8ACE3C"></path><path d="M72.5774 123.647V123.61C70.7246 123.425 69.4277 122.61 68.6495 121.498C66.0557 124.833 62.7948 126.204 60.3121 126.723C61.9426 129.131 64.4253 131.095 67.7602 132.133C72.5033 130.651 72.5774 123.647 72.5774 123.647Z" fill="#EAFFD4"></path><path d="M67.7974 118.498C67.8344 117.09 68.4273 115.681 69.576 114.681C67.1304 113.532 65.8335 109.679 65.1294 106.232C61.4239 108.419 59.1265 111.939 58.3113 115.756C62.128 118.016 67.7974 118.498 67.7974 118.498Z" fill="#EAFFD4"></path><path d="M78.6173 118.498C78.6544 120.277 77.8762 122.055 76.1346 123.019C76.1346 123.019 78.8026 127.688 77.9503 132.542C82.1005 131.467 84.9538 129.059 86.6212 126.057C85.769 122.241 82.397 119.461 78.6173 118.498Z" fill="#EAFFD4"></path><path d="M73.2075 113.346C73.504 113.346 73.7633 113.346 74.0968 113.384C75.5049 113.495 76.6166 114.162 77.3577 115.088C77.3577 115.088 82.3231 113.198 87.8814 114.792C86.6215 110.012 83.2124 105.861 77.9506 104.527C76.0237 106.269 74.2821 109.048 73.2075 113.346Z" fill="#EAFFD4"></path><path d="M61.6462 124.5C61.6462 124.5 64.9441 129.613 68.6496 129.539C71.2805 129.391 64.3883 125.278 63.4248 123.722C62.4244 122.165 60.3122 122.906 61.6462 124.5Z" fill="white"></path><path d="M79.5067 106.899C79.5067 106.899 74.0225 104.268 70.9099 106.269C68.7236 107.788 76.7646 107.64 78.4321 108.455C80.0996 109.27 81.5077 107.528 79.5067 106.899Z" fill="white"></path><path d="M99.0951 61.6011C101.541 61.0083 108.47 57.8956 106.395 51.1886C106.247 50.744 106.099 50.2993 105.95 49.8176C103.505 42.8883 82.3462 49.4841 84.3102 56.6358C84.903 58.822 85.6441 60.5265 86.4223 61.3047C89.7573 64.5285 94.6856 62.6387 99.0951 61.6011Z" fill="#FFE810"></path><path d="M83.1981 45.701C82.9758 49.5176 83.4946 53.5196 84.3098 56.5952C89.7939 56.2617 98.8724 54.8906 105.95 49.777C104.912 46.8867 103.208 43.2553 100.985 40.2168C95.4634 43.9964 88.2376 45.2934 83.1981 45.701Z" fill="#FFA300"></path><path d="M88.942 34.6251C85.0883 35.9962 83.4949 40.6281 83.1985 45.7046C88.238 45.297 95.4267 44.0371 100.985 40.2205C97.9094 35.9591 93.7221 32.8836 88.942 34.6251Z" fill="#FCF8D6"></path><path d="M85.9032 41.2204C85.9032 41.2204 84.2358 44.7777 85.5327 46.7416C86.4961 48.1497 86.422 42.962 86.9408 41.8874C87.4596 40.8498 86.3479 39.9605 85.9032 41.2204Z" fill="white"></path><path d="M90.5721 61.6371C90.5721 61.6371 94.4259 62.4524 96.0563 60.7478C97.205 59.4879 92.2026 60.7478 91.0168 60.4884C89.8681 60.2291 89.2382 61.526 90.5721 61.6371Z" fill="white"></path><path d="M52.7238 82.3565C46.128 78.7622 35.5302 75.6125 30.2313 83.1717C26.0071 89.1747 31.1948 97.6974 36.5307 102.737C39.0875 105.145 57.8374 88.1371 52.7238 82.3565Z" fill="#48A6E0"></path><path d="M55.8732 84.2082C55.0209 83.5783 53.9093 83.0225 52.7235 82.3555C49.0921 94.2502 40.9029 100.253 36.5304 102.699C38.8278 105.107 41.644 106.812 43.2744 106.923C48.2028 107.257 51.723 102.143 55.1691 98.1039C57.096 95.9176 61.6538 88.2843 55.8732 84.2082Z" fill="#EAF3F9"></path><path d="M30.1571 88.4315C30.1571 88.4315 30.4535 92.3223 32.6027 93.434C34.159 94.1751 31.491 89.7284 31.4169 88.5427C31.3058 87.3569 29.8606 87.0975 30.1571 88.4315Z" fill="white"></path><path d="M48.0179 103.514C48.0179 103.514 51.5752 101.883 51.8716 99.5117C52.0198 97.8071 48.759 101.809 47.6844 102.328C46.6098 102.81 46.8692 104.218 48.0179 103.514Z" fill="white"></path><path d="M25.0831 55.15C25.0831 55.15 -1.92026 118.522 0.108888 119.771C0.629184 120.551 1.51369 120.863 2.65834 120.655C3.75096 120.447 27.5805 61.4976 28.6731 56.5548C26.9041 54.6297 25.0831 55.15 25.0831 55.15Z" fill="#F7F4BA"></path><path d="M8.48563 37.5111C11.9196 39.9565 29.8698 49.686 50.3174 50.0503C50.9417 50.2063 51.358 50.4665 51.6181 50.7787C55.0521 32.1001 35.8532 23.9834 31.8989 23.6713C19.8801 22.7347 11.3473 28.9783 7.49707 37.0949C7.80925 37.1469 8.17345 37.303 8.48563 37.5111Z" fill="#F4EFAE"></path><path d="M6.76852 41.3614C6.50837 41.2053 6.30026 40.9972 6.14417 40.7891C4.16704 47.761 5.51981 55.4614 10.8268 60.9245C21.0766 72.7352 45.0623 73.9839 50.9936 53.5883C50.5254 53.9525 49.901 54.2647 49.1206 54.4208C45.7387 55.0452 26.2796 54.0566 6.76852 41.3614Z" fill="#FF605B"></path><path d="M7.44532 37.0946C11.0354 39.644 29.9221 49.8938 51.4103 50.258C54.2719 50.8824 53.5955 54.1602 50.1096 54.8366C46.6236 55.513 26.1239 54.4724 5.57226 41.1529C2.34643 38.8115 4.99994 35.3776 7.44532 37.0946Z" fill="#F45151"></path><path d="M8.58939 50.6222C8.58939 50.6222 10.5145 59.103 15.4573 60.82C17.5385 61.3923 11.9713 55.7731 10.5665 50.258C10.0462 47.6565 7.60083 47.8126 8.58939 50.6222Z" fill="#FFFDE6"></path><path d="M47.0392 40.4233C46.779 39.903 46.5189 39.4868 45.3222 36.6772C44.1255 33.8676 40.2753 33.5554 41.2119 32.2026C42.1484 30.9019 46.5709 33.3993 47.8196 36.9893C49.0683 40.6314 48.8082 44.1174 47.0392 40.4233Z" fill="#FFFDE6"></path><path d="M7.70507 38.1376C7.96522 37.5133 14.9372 42.3 20.5043 44.7974C20.9726 45.4738 7.2368 39.1782 7.70507 38.1376Z" fill="#FFFDE6"></path><path d="M120.432 95.7296C120.432 95.7296 138.595 94.0046 139.762 95.5266C140.929 97.0487 135.399 101.97 135.399 101.97C135.399 101.97 141.284 108.008 140.066 108.971C138.798 109.935 130.985 107.602 130.985 107.602C130.985 107.602 130.173 117.495 128.702 118.51C127.23 119.524 116.474 103.796 116.474 103.796C116.474 103.796 102.725 109.58 93.6942 103.441C84.6633 97.3024 85.881 85.1766 85.881 85.1766C85.881 85.1766 70.5081 82.9443 69.0875 80.4582C67.667 77.9722 74.3133 76.3487 74.3133 76.3487C74.3133 76.3487 69.1383 71.7317 70.7111 70.5648C72.2839 69.3979 78.3214 70.5141 78.3214 70.5141C78.3214 70.5141 77.4081 64.1722 78.778 63.3604C80.1479 62.4979 90.4471 76.5516 90.4471 76.5516C90.4471 76.5516 103.03 70.8185 111.198 76.2472C122.461 84.4156 120.432 95.7296 120.432 95.7296Z" fill="#D31313"></path><path d="M97.8539 74.4725C97.8032 74.4218 97.8032 74.371 97.7524 74.3203C96.8392 74.4725 95.9767 74.6755 95.1649 74.8784C95.2157 75.0306 95.2664 75.0813 95.2664 75.0813C95.2664 75.0813 103.587 86.5475 99.934 105.776C99.934 105.776 99.934 105.827 99.934 105.928C100.999 106.131 102.065 106.233 103.13 106.233C106.073 102.935 104.805 79.9012 97.8539 74.4725Z" fill="#FCC8C8"></path><path d="M104.907 74.4741C104.754 74.3219 104.653 74.1697 104.551 74.0175C103.638 73.916 102.116 73.916 101.203 73.916C103.385 75.9454 110.64 86.5491 106.987 105.778C106.987 105.778 106.987 105.93 107.037 106.133C108.306 105.981 109.523 105.778 110.64 105.575C112.872 100.654 112.415 82.7947 104.907 74.4741Z" fill="#FCC8C8"></path><path d="M115.358 80.1053C114.191 78.7862 112.821 77.4671 111.096 76.2494C110.741 76.0465 110.437 75.8436 110.081 75.6406C111.603 78.0252 117.286 88.4259 114.648 104.458C115.764 104.103 116.423 103.799 116.423 103.799C116.423 103.799 120.99 92.7384 115.358 80.1053Z" fill="#FCC8C8"></path><path d="M91.7661 75.9922C90.8528 76.3473 90.3455 76.5503 90.3455 76.5503C90.4977 81.4716 91.6138 90.8069 95.0131 104.1C95.0131 104.1 95.0131 104.15 94.9624 104.252C95.5712 104.607 96.2308 104.861 96.8396 105.114C97.7528 99.229 95.3175 79.5437 91.7661 75.9922Z" fill="#FCC8C8"></path><path d="M92.5781 102.731C87.2509 92.2289 88.4685 79.748 88.4685 79.748L87.0987 82.5385C86.5913 87.0539 86.5913 90.8084 86.7943 93.8017C87.7075 96.8459 89.4325 100.144 92.5781 102.731Z" fill="#FCC8C8"></path><path d="M114.8 82.7918C114.8 82.7918 111.401 78.7837 106.327 77.1602C104.602 77.2109 112.314 80.7116 112.923 81.7771C113.582 82.8425 115.662 83.8572 114.8 82.7918Z" fill="#FFE5D4"></path><path d="M89.6352 91.7738C89.6352 91.7738 92.1212 96.3907 96.6874 99.0797C98.4124 99.3841 91.6139 94.3106 91.208 93.1944C90.8528 91.9768 89.0264 90.5562 89.6352 91.7738Z" fill="#FFE5D4"></path><path d="M119.62 98.6738C119.62 98.6738 126.012 99.7393 131.289 101.515C136.565 103.189 122.816 100.297 119.62 98.6738Z" fill="#C60909"></path><path d="M119.316 99.332C119.316 99.332 127.129 104.456 127.89 106.131C128.702 107.754 119.316 99.332 119.316 99.332Z" fill="#C60909"></path><path d="M87.3013 80.5594C87.3013 80.5594 78.4734 76.602 77.3065 77.1094C76.1903 77.6167 87.3013 80.5594 87.3013 80.5594Z" fill="#C60909"></path><path d="M88.2149 79.1403C88.2149 79.1403 81.4164 74.3204 80.6553 72.6461C79.945 70.9719 88.2149 79.1403 88.2149 79.1403Z" fill="#C60909"></path><path d="M87.6562 79.0371C87.6562 79.0371 90.5482 79.2401 92.121 80.0011C93.643 80.7621 88.9246 80.0518 87.6562 79.0371Z" fill="#C60909"></path><path d="M87.2 80.3574C87.2 80.3574 89.0264 82.5898 89.5338 84.264C90.0411 85.9383 87.3014 81.981 87.2 80.3574Z" fill="#C60909"></path><path d="M119.215 99.4859C119.215 99.4859 116.323 99.3844 114.75 98.6741C113.177 97.9638 117.946 98.5219 119.215 99.4859Z" fill="#C60909"></path><path d="M119.874 98.9791C119.874 98.9791 117.134 98.0659 115.815 96.9497C114.496 95.8335 118.91 97.66 119.874 98.9791Z" fill="#C60909"></path><path d="M91.0554 76.5028C92.0701 75.894 90.8524 74.5242 89.4826 75.3867C88.1127 76.2492 84.3583 82.5911 84.2568 84.9249C84.3583 86.244 85.4745 86.5992 85.7789 85.5845C86.337 83.8087 88.9752 78.38 91.0554 76.5028Z" fill="#C60909"></path><path d="M115.053 103.697C114.039 104.306 115.256 105.676 116.626 104.813C117.996 103.951 121.75 97.6089 121.852 95.2751C121.75 93.956 120.634 93.6008 120.33 94.6156C119.772 96.3913 117.133 101.82 115.053 103.697Z" fill="#C60909"></path><path d="M75.7968 37.1633C97.1241 32.6048 93.5967 1.78062 73.7889 0.0983145C43.6702 -2.34374 42.1508 41.559 75.7968 37.1633Z" fill="#FF605B"></path><path d="M72.4322 25.3338C80.0297 23.7058 78.7816 12.7437 71.7268 12.1468C61.036 11.2242 60.4933 26.8533 72.4322 25.3338Z" fill="#F45151"></path><path d="M55.6632 26.5259C55.6632 26.5259 59.9503 33.1466 64.7259 33.0381C68.1448 32.8753 59.2449 27.557 57.9424 25.4948C56.64 23.4869 53.9266 24.4638 55.6632 26.5259Z" fill="white"></path><path d="M78.7274 3.73213C78.7274 3.73213 71.6183 0.367519 67.6025 2.91811C64.7806 4.87175 75.1457 4.70895 77.3165 5.74004C79.4872 6.82539 81.278 4.60041 78.7274 3.73213Z" fill="white"></path></svg>