<svg width="250" height="230" viewBox="0 0 250 230" fill="none" xmlns="http://www.w3.org/2000/svg">
<mask id="mask0" mask-type="alpha" maskUnits="userSpaceOnUse" x="0" y="0" width="250" height="230">
<rect width="250" height="230" fill="#F9F9F9"/>
</mask>
<g mask="url(#mask0)">
<path fill-rule="evenodd" clip-rule="evenodd" d="M16.2328 138.944C3.65058 103.302 -3.80335 60.7376 19.8104 31.2269C42.8555 2.42689 85.2675 9.0225 122.077 6.66826C161.003 4.17859 206.394 -11.1391 232.763 17.6069C259.481 46.7339 249.884 93.4785 235.467 130.28C224.094 159.313 194.322 172.24 166.598 186.506C139.472 200.466 111.645 218.169 82.5571 208.968C50.3088 198.768 27.4927 170.84 16.2328 138.944Z" fill="#D2F8FD"/>
</g>
<g clip-path="url(#clip0)">
<path d="M121.084 110.457C119.119 108.962 117.434 108.869 115.095 110.55C112.662 112.324 109.667 112.138 106.86 110.83C94.6005 105.133 82.2477 99.5291 69.895 93.8319C58.2909 88.4148 46.6869 82.9978 34.9892 77.6742C29.0936 74.9657 27.4091 69.8288 30.5909 64.225C40.4169 47.1333 50.243 29.9483 60.2561 12.95C63.3443 7.71979 68.8656 6.59902 73.8254 10.0547C94.8812 24.8114 115.843 39.6616 136.899 54.3249C140.83 57.0334 143.263 60.1155 142.608 65.159C142.327 67.2137 144.666 67.4005 145.789 68.5213C146.912 69.5486 146.164 70.576 145.696 71.51C144.292 74.2185 142.701 76.7402 141.204 79.3553C138.49 84.212 135.589 88.9752 132.875 93.8319C129.881 98.9687 126.792 104.106 123.704 109.242C123.143 110.176 122.394 110.83 121.084 110.457Z" fill="#E8E8E6"/>
<path d="M121.084 110.457C122.675 109.99 122.956 108.402 123.611 107.281C128.29 99.4359 132.969 91.6839 137.367 83.7452C140.175 78.7018 143.543 73.9385 145.789 68.5215C146.819 68.7083 147.661 69.1753 148.503 69.829C149.439 70.5762 150.562 70.8564 151.779 70.6696C163.383 69.0819 171.431 78.048 167.968 89.0688C164.225 100.93 158.329 111.484 149.346 120.357C141.391 128.296 129.787 123.346 126.886 115.874C125.857 113.072 123.424 111.764 121.084 110.457Z" fill="#BEBEBE"/>
<path d="M137.835 217.583C138.864 217.77 139.332 218.33 139.239 219.264C139.145 220.011 138.677 220.572 137.835 220.478C136.993 220.478 136.525 219.918 136.525 219.171C136.525 218.237 137.086 217.77 137.835 217.583Z" fill="#FDFDFD"/>
<path d="M157.113 193.86C156.084 193.673 155.616 193.113 155.709 192.272C155.709 191.525 156.084 190.965 157.019 190.965C157.955 190.965 158.423 191.525 158.517 192.366C158.423 193.3 157.862 193.767 157.113 193.86Z" fill="#BEBEBE"/>
<path d="M163.196 124.092C163.29 123.158 163.757 122.691 164.6 122.691C165.442 122.691 165.816 123.252 165.816 124.092C165.816 124.933 165.348 125.4 164.506 125.4C163.664 125.307 163.29 124.746 163.196 124.092Z" fill="#BEBEBE"/>
<path d="M172.179 147.909C173.022 148.002 173.49 148.562 173.396 149.31C173.396 150.057 172.928 150.711 172.086 150.711C171.244 150.804 170.776 150.244 170.776 149.403C170.776 148.469 171.337 148.095 172.179 147.909Z" fill="#BEBEBE"/>
<path d="M159.733 149.403C159.546 150.15 159.172 150.71 158.423 150.71C157.487 150.71 157.019 150.057 157.113 149.216C157.113 148.562 157.581 148.002 158.236 148.002C159.078 148.002 159.546 148.562 159.733 149.403Z" fill="#BEBEBE"/>
<path d="M158.142 220.292C158.985 220.292 159.453 220.665 159.64 221.506C159.733 222.346 159.265 222.813 158.423 222.907C157.581 223 157.019 222.626 157.019 221.786C156.926 221.039 157.3 220.478 158.142 220.292Z" fill="#BEBEBE"/>
<path d="M158.516 169.67C157.58 169.577 157.019 169.203 157.112 168.363C157.112 167.616 157.58 167.055 158.423 167.055C159.171 167.055 159.733 167.616 159.733 168.363C159.733 169.297 159.078 169.577 158.516 169.67Z" fill="#BEBEBE"/>
<path d="M148.129 160.797C147.287 160.797 146.819 160.33 146.819 159.489C146.819 158.742 147.287 158.182 148.129 158.275C148.878 158.369 149.439 158.742 149.439 159.583C149.439 160.423 148.878 160.704 148.129 160.797Z" fill="#BEBEBE"/>
<path d="M164.412 158.182C165.348 158.182 165.816 158.649 165.816 159.49C165.816 160.33 165.442 160.797 164.599 160.797C163.757 160.797 163.289 160.424 163.289 159.583C163.289 158.743 163.757 158.369 164.412 158.182Z" fill="#BEBEBE"/>
<path d="M176.11 168.363C176.017 169.203 175.549 169.67 174.8 169.67C173.958 169.67 173.49 169.203 173.49 168.456C173.49 167.615 173.864 167.148 174.8 167.148C175.549 167.148 176.017 167.615 176.11 168.363Z" fill="#BEBEBE"/>
<path d="M163.289 184.893C162.54 184.8 161.979 184.426 161.979 183.586C161.979 182.839 162.353 182.278 163.195 182.278C164.037 182.278 164.505 182.745 164.505 183.492C164.505 184.333 164.131 184.8 163.289 184.893Z" fill="#BEBEBE"/>
<path d="M176.204 184.894C175.455 184.894 174.987 184.52 174.894 183.773C174.8 182.933 175.268 182.372 176.017 182.279C176.859 182.185 177.42 182.652 177.42 183.493C177.42 184.334 176.952 184.801 176.204 184.894Z" fill="#BEBEBE"/>
<path d="M158.236 201.332C159.078 201.332 159.639 201.706 159.639 202.546C159.639 203.387 159.171 203.854 158.423 203.947C157.581 204.041 157.113 203.574 157.019 202.733C157.019 201.892 157.487 201.519 158.236 201.332Z" fill="#BEBEBE"/>
<path d="M185 210.111C185 211.045 184.533 211.418 183.69 211.418C182.848 211.418 182.38 210.951 182.38 210.111C182.38 209.27 182.848 208.896 183.69 208.896C184.533 208.896 184.907 209.363 185 210.111Z" fill="#BEBEBE"/>
<path d="M174.8 134.179C173.958 134.086 173.49 133.619 173.49 132.778C173.49 131.938 173.958 131.471 174.8 131.564C175.549 131.657 176.11 132.031 176.11 132.872C176.11 133.806 175.549 134.179 174.8 134.179Z" fill="#BEBEBE"/>
<path d="M176.11 221.786C176.017 222.626 175.455 223 174.706 223C173.864 222.907 173.49 222.44 173.49 221.599C173.584 220.758 174.051 220.291 174.894 220.385C175.642 220.478 176.11 220.945 176.11 221.786Z" fill="#BEBEBE"/>
<path d="M183.596 174.433C183.596 175.367 183.128 175.834 182.286 175.834C181.537 175.834 181.069 175.554 180.976 174.807C180.882 173.966 181.257 173.499 182.099 173.406C183.035 173.406 183.596 173.686 183.596 174.433Z" fill="#BEBEBE"/>
<path d="M149.439 210.204C149.439 211.045 148.878 211.512 148.035 211.418C147.193 211.418 146.819 210.858 146.819 210.017C146.819 209.27 147.38 208.896 148.035 208.896C148.878 208.896 149.439 209.363 149.439 210.204Z" fill="#BEBEBE"/>
<path d="M145.415 178.636C144.667 178.543 144.105 178.169 144.105 177.329C144.199 176.581 144.667 176.021 145.415 176.021C146.07 176.021 146.538 176.581 146.538 177.235C146.725 178.076 146.257 178.449 145.415 178.636Z" fill="#BEBEBE"/>
<path d="M146.725 194.887C146.538 195.821 146.164 196.288 145.322 196.288C144.573 196.288 144.199 195.821 144.105 195.168C144.105 194.327 144.573 193.86 145.322 193.767C146.164 193.767 146.538 194.327 146.725 194.887Z" fill="#BEBEBE"/>
<path d="M156.926 131.564C156.926 132.405 156.458 132.872 155.615 132.872C154.867 132.872 154.305 132.498 154.305 131.658C154.305 130.91 154.773 130.35 155.615 130.35C156.458 130.257 156.832 130.817 156.926 131.564Z" fill="#BEBEBE"/>
<path d="M148.223 139.316C148.971 139.409 149.533 139.876 149.439 140.623C149.439 141.371 148.878 141.651 148.223 141.744C147.474 141.744 146.912 141.371 146.819 140.53C146.819 139.689 147.38 139.316 148.223 139.316Z" fill="#BEBEBE"/>
<path d="M174.8 200.024C175.548 200.117 176.11 200.491 176.11 201.331C176.11 202.079 175.548 202.359 174.893 202.452C174.145 202.546 173.677 202.172 173.583 201.425C173.489 200.584 173.957 200.117 174.8 200.024Z" fill="#BEBEBE"/>
<path d="M164.506 141.744C163.757 141.651 163.289 141.277 163.289 140.53C163.289 139.69 163.757 139.223 164.599 139.223C165.348 139.223 165.722 139.69 165.816 140.343C165.816 141.277 165.348 141.651 164.506 141.744Z" fill="#BEBEBE"/>
<path d="M139.239 187.416C138.49 187.416 137.929 187.042 137.929 186.201C137.929 185.454 138.396 185.081 139.145 184.987C139.987 184.987 140.455 185.361 140.549 186.201C140.455 186.949 140.081 187.416 139.239 187.416Z" fill="#BEBEBE"/>
<path d="M182.286 192.552C183.035 192.646 183.596 193.019 183.596 193.86C183.596 194.607 183.035 194.981 182.38 194.981C181.538 194.981 181.07 194.514 181.07 193.673C181.07 192.926 181.631 192.646 182.286 192.552Z" fill="#BEBEBE"/>
<path d="M165.816 212.82C165.722 213.567 165.348 214.034 164.599 214.034C163.757 214.034 163.196 213.66 163.289 212.82C163.289 211.979 163.851 211.606 164.693 211.699C165.442 211.699 165.722 212.166 165.816 212.82Z" fill="#BEBEBE"/>
<path d="M87.8626 60.3956C103.304 60.3956 118.744 60.3956 134.185 60.3956C138.396 60.3956 139.332 61.7966 137.648 65.7193C137.086 67.0268 136.712 68.241 138.396 69.0816C139.894 69.8287 139.707 70.9495 138.958 72.2571C136.244 76.7401 133.624 81.2232 131.004 85.7062C128.009 90.9365 125.014 96.2601 122.02 101.49C120.99 103.265 120.148 105.039 117.621 103.358C116.779 102.798 116.031 103.545 115.469 104.292C112.287 107.935 111.632 108.122 107.515 106.16C97.2207 101.49 87.0204 96.6337 76.82 91.9638C66.3389 87.1072 55.7642 82.344 45.1895 77.4873C42.2885 76.1797 39.3875 74.7788 36.5801 73.3778C33.5855 71.8835 32.8368 69.4552 34.4277 66.4665C34.9892 65.3457 35.6442 64.3183 36.2993 63.1976C37.4223 61.2362 38.9196 60.3022 41.3527 60.3022C56.7936 60.489 72.3281 60.3956 87.8626 60.3956Z" fill="#FDFDFD"/>
<path d="M151.217 107.281C151.872 107.281 152.153 107.655 152.34 108.215C152.621 109.429 151.124 111.951 149.907 112.325C149.346 112.511 148.878 112.605 148.597 111.951C147.942 110.83 150.001 107.375 151.217 107.281Z" fill="#7C7C7C"/>
<path d="M160.669 91.2168C161.324 91.2168 161.511 91.5904 161.605 92.0574C161.792 93.1781 160.201 95.8866 159.078 96.2602C158.61 96.3536 158.049 96.3536 157.955 95.8866C157.581 94.8593 157.861 93.9253 158.517 93.0847C158.984 92.2442 159.546 91.4036 160.669 91.2168Z" fill="#7C7C7C"/>
<path d="M160.107 102.331C159.92 104.105 159.172 105.413 157.487 106.067C156.645 106.347 156.271 105.6 156.271 104.853C156.271 103.638 158.142 101.21 159.078 101.21C159.827 101.117 160.107 101.584 160.107 102.331Z" fill="#7B7A7A"/>
</g>
<path d="M149.448 42.514C149.388 42.934 149.334 43.402 149.286 43.918C149.238 44.422 149.19 44.938 149.142 45.466C149.094 45.982 149.046 46.486 148.998 46.978C148.962 47.47 148.932 47.902 148.908 48.274C149.316 48.202 149.766 48.118 150.258 48.022C150.762 47.926 151.272 47.83 151.788 47.734C152.304 47.626 152.808 47.536 153.3 47.464C153.804 47.38 154.26 47.32 154.668 47.284C154.704 47.284 154.746 47.296 154.794 47.32C154.89 47.368 154.938 47.446 154.938 47.554C154.938 47.71 154.908 47.83 154.848 47.914C154.788 47.986 154.716 48.046 154.632 48.094C154.548 48.13 154.458 48.166 154.362 48.202C154.278 48.238 154.2 48.292 154.128 48.364C153.756 48.46 153.348 48.562 152.904 48.67C152.46 48.778 152.004 48.886 151.536 48.994C151.068 49.102 150.6 49.21 150.132 49.318C149.664 49.426 149.226 49.534 148.818 49.642C148.446 49.738 148.164 49.672 147.972 49.444C147.78 49.216 147.702 48.844 147.738 48.328C147.798 47.356 147.87 46.384 147.954 45.412C148.038 44.428 148.14 43.45 148.26 42.478C148.284 42.274 148.35 42.106 148.458 41.974C148.578 41.842 148.722 41.764 148.89 41.74C149.166 41.704 149.328 41.776 149.376 41.956C149.436 42.124 149.46 42.31 149.448 42.514ZM159.987 45.52C159.519 45.796 159.015 46.012 158.475 46.168C157.935 46.312 157.353 46.384 156.729 46.384C156.753 46.804 156.873 47.14 157.089 47.392C157.305 47.632 157.575 47.776 157.899 47.824C158.091 47.848 158.283 47.842 158.475 47.806C158.679 47.77 158.865 47.716 159.033 47.644C159.213 47.56 159.375 47.47 159.519 47.374C159.663 47.278 159.789 47.182 159.897 47.086C160.005 46.99 160.119 46.93 160.239 46.906C160.359 46.87 160.449 46.864 160.509 46.888C160.677 46.948 160.737 47.128 160.689 47.428C160.497 47.812 160.221 48.142 159.861 48.418C159.501 48.682 159.099 48.85 158.655 48.922C158.271 48.994 157.875 48.976 157.467 48.868C157.059 48.76 156.693 48.55 156.369 48.238C156.093 47.962 155.883 47.638 155.739 47.266C155.595 46.894 155.505 46.51 155.469 46.114C155.433 45.742 155.463 45.388 155.559 45.052C155.667 44.716 155.829 44.422 156.045 44.17C156.261 43.906 156.531 43.69 156.855 43.522C157.179 43.354 157.557 43.258 157.989 43.234C158.505 43.198 158.973 43.294 159.393 43.522C159.813 43.75 160.107 44.068 160.275 44.476C160.371 44.704 160.395 44.902 160.347 45.07C160.311 45.238 160.191 45.388 159.987 45.52ZM157.917 44.296C157.797 44.32 157.665 44.362 157.521 44.422C157.389 44.482 157.263 44.56 157.143 44.656C157.035 44.74 156.933 44.842 156.837 44.962C156.753 45.07 156.705 45.196 156.693 45.34C156.897 45.34 157.119 45.322 157.359 45.286C157.611 45.25 157.851 45.208 158.079 45.16C158.319 45.1 158.535 45.034 158.727 44.962C158.931 44.89 159.099 44.812 159.231 44.728C159.135 44.5 158.955 44.362 158.691 44.314C158.439 44.254 158.181 44.248 157.917 44.296ZM165.307 44.368C165.283 44.236 165.259 44.11 165.235 43.99C165.211 43.87 165.151 43.792 165.055 43.756C164.851 43.696 164.635 43.69 164.407 43.738C164.179 43.786 163.969 43.864 163.777 43.972C163.585 44.068 163.423 44.182 163.291 44.314C163.159 44.434 163.087 44.542 163.075 44.638C163.039 44.818 163.087 44.992 163.219 45.16C163.351 45.328 163.543 45.496 163.795 45.664C164.215 45.916 164.653 46.174 165.109 46.438C165.565 46.702 165.949 46.972 166.261 47.248C166.573 47.524 166.783 47.83 166.891 48.166C167.011 48.49 166.987 48.862 166.819 49.282C166.687 49.606 166.441 49.87 166.081 50.074C165.721 50.278 165.325 50.44 164.893 50.56C164.461 50.668 164.029 50.746 163.597 50.794C163.165 50.83 162.799 50.848 162.499 50.848C162.427 50.848 162.337 50.824 162.229 50.776C162.133 50.716 162.037 50.65 161.941 50.578C161.857 50.506 161.779 50.434 161.707 50.362C161.647 50.278 161.617 50.206 161.617 50.146C161.617 49.93 161.713 49.78 161.905 49.696C162.097 49.612 162.295 49.57 162.499 49.57C162.787 49.57 163.093 49.558 163.417 49.534C163.753 49.498 164.071 49.45 164.371 49.39C164.671 49.318 164.941 49.228 165.181 49.12C165.421 49.012 165.589 48.874 165.685 48.706C165.769 48.562 165.715 48.394 165.523 48.202C165.343 47.998 165.097 47.788 164.785 47.572C164.485 47.356 164.155 47.146 163.795 46.942C163.447 46.738 163.147 46.552 162.895 46.384C162.643 46.216 162.427 46.018 162.247 45.79C162.067 45.55 161.953 45.256 161.905 44.908C161.893 44.596 161.959 44.296 162.103 44.008C162.247 43.72 162.433 43.468 162.661 43.252C162.901 43.024 163.171 42.844 163.471 42.712C163.771 42.58 164.071 42.514 164.371 42.514C164.887 42.538 165.313 42.682 165.649 42.946C165.985 43.198 166.183 43.576 166.243 44.08C166.243 44.248 166.213 44.386 166.153 44.494C166.105 44.602 166.015 44.668 165.883 44.692C165.715 44.716 165.577 44.698 165.469 44.638C165.373 44.566 165.319 44.476 165.307 44.368ZM171.407 44.368C171.383 44.236 171.359 44.11 171.335 43.99C171.311 43.87 171.251 43.792 171.155 43.756C170.951 43.696 170.735 43.69 170.507 43.738C170.279 43.786 170.069 43.864 169.877 43.972C169.685 44.068 169.523 44.182 169.391 44.314C169.259 44.434 169.187 44.542 169.175 44.638C169.139 44.818 169.187 44.992 169.319 45.16C169.451 45.328 169.643 45.496 169.895 45.664C170.315 45.916 170.753 46.174 171.209 46.438C171.665 46.702 172.049 46.972 172.361 47.248C172.673 47.524 172.883 47.83 172.991 48.166C173.111 48.49 173.087 48.862 172.919 49.282C172.787 49.606 172.541 49.87 172.181 50.074C171.821 50.278 171.425 50.44 170.993 50.56C170.561 50.668 170.129 50.746 169.697 50.794C169.265 50.83 168.899 50.848 168.599 50.848C168.527 50.848 168.437 50.824 168.329 50.776C168.233 50.716 168.137 50.65 168.041 50.578C167.957 50.506 167.879 50.434 167.807 50.362C167.747 50.278 167.717 50.206 167.717 50.146C167.717 49.93 167.813 49.78 168.005 49.696C168.197 49.612 168.395 49.57 168.599 49.57C168.887 49.57 169.193 49.558 169.517 49.534C169.853 49.498 170.171 49.45 170.471 49.39C170.771 49.318 171.041 49.228 171.281 49.12C171.521 49.012 171.689 48.874 171.785 48.706C171.869 48.562 171.815 48.394 171.623 48.202C171.443 47.998 171.197 47.788 170.885 47.572C170.585 47.356 170.255 47.146 169.895 46.942C169.547 46.738 169.247 46.552 168.995 46.384C168.743 46.216 168.527 46.018 168.347 45.79C168.167 45.55 168.053 45.256 168.005 44.908C167.993 44.596 168.059 44.296 168.203 44.008C168.347 43.72 168.533 43.468 168.761 43.252C169.001 43.024 169.271 42.844 169.571 42.712C169.871 42.58 170.171 42.514 170.471 42.514C170.987 42.538 171.413 42.682 171.749 42.946C172.085 43.198 172.283 43.576 172.343 44.08C172.343 44.248 172.313 44.386 172.253 44.494C172.205 44.602 172.115 44.668 171.983 44.692C171.815 44.716 171.677 44.698 171.569 44.638C171.473 44.566 171.419 44.476 171.407 44.368ZM183.901 42.082C183.853 42.142 183.763 42.19 183.631 42.226C183.511 42.25 183.385 42.214 183.253 42.118C183.157 42.046 183.043 41.974 182.911 41.902C182.779 41.818 182.635 41.74 182.479 41.668C182.323 41.596 182.167 41.536 182.011 41.488C181.855 41.44 181.705 41.416 181.561 41.416C181.381 41.416 181.189 41.458 180.985 41.542C180.793 41.626 180.625 41.746 180.481 41.902C180.205 42.202 180.103 42.496 180.175 42.784C180.259 43.06 180.469 43.318 180.805 43.558C181.021 43.714 181.255 43.876 181.507 44.044C181.759 44.2 182.005 44.356 182.245 44.512C182.497 44.668 182.731 44.818 182.947 44.962C183.175 45.106 183.373 45.232 183.541 45.34C183.757 45.484 183.961 45.64 184.153 45.808C184.345 45.976 184.513 46.168 184.657 46.384C184.801 46.588 184.915 46.822 184.999 47.086C185.083 47.35 185.125 47.65 185.125 47.986C185.041 48.646 184.777 49.174 184.333 49.57C183.901 49.954 183.397 50.2 182.821 50.308C182.317 50.404 181.819 50.386 181.327 50.254C180.847 50.122 180.439 49.87 180.103 49.498C180.019 49.402 179.947 49.27 179.887 49.102C179.827 48.934 179.821 48.814 179.869 48.742C179.941 48.634 180.067 48.562 180.247 48.526C180.427 48.478 180.565 48.484 180.661 48.544C180.937 48.796 181.261 48.982 181.633 49.102C182.005 49.21 182.395 49.216 182.803 49.12C183.115 49.048 183.367 48.916 183.559 48.724C183.751 48.52 183.871 48.292 183.919 48.04C183.979 47.776 183.943 47.506 183.811 47.23C183.691 46.942 183.469 46.684 183.145 46.456C182.653 46.084 182.125 45.736 181.561 45.412C181.009 45.088 180.445 44.716 179.869 44.296C179.593 44.056 179.389 43.792 179.257 43.504C179.137 43.216 179.077 42.934 179.077 42.658C179.077 42.37 179.137 42.1 179.257 41.848C179.377 41.584 179.545 41.35 179.761 41.146C179.977 40.93 180.229 40.756 180.517 40.624C180.805 40.492 181.123 40.414 181.471 40.39C181.951 40.366 182.413 40.468 182.857 40.696C183.301 40.912 183.661 41.182 183.937 41.506C183.997 41.578 184.021 41.668 184.009 41.776C184.009 41.884 183.973 41.986 183.901 42.082ZM190.875 43.09C190.923 43.426 190.959 43.786 190.983 44.17C191.019 44.542 191.043 44.92 191.055 45.304C191.079 45.688 191.091 46.06 191.091 46.42C191.091 46.78 191.085 47.104 191.073 47.392C191.457 47.656 191.685 47.89 191.757 48.094C191.841 48.298 191.853 48.478 191.793 48.634C191.721 48.85 191.589 48.964 191.397 48.976C191.217 48.976 191.007 48.91 190.767 48.778C190.599 48.898 190.407 49.03 190.191 49.174C189.975 49.306 189.747 49.438 189.507 49.57C189.267 49.69 189.027 49.798 188.787 49.894C188.547 49.99 188.325 50.056 188.121 50.092C187.737 50.152 187.389 50.08 187.077 49.876C186.777 49.672 186.573 49.366 186.465 48.958C186.393 48.682 186.375 48.4 186.411 48.112C186.447 47.812 186.537 47.53 186.681 47.266C186.825 46.99 187.017 46.744 187.257 46.528C187.509 46.312 187.803 46.144 188.139 46.024C188.223 45.988 188.337 45.958 188.481 45.934C188.637 45.91 188.793 45.904 188.949 45.916C189.117 45.916 189.285 45.946 189.453 46.006C189.621 46.066 189.777 46.168 189.921 46.312C189.921 46.108 189.915 45.886 189.903 45.646C189.903 45.394 189.897 45.142 189.885 44.89C189.873 44.638 189.855 44.404 189.831 44.188C189.819 43.96 189.801 43.768 189.777 43.612C189.753 43.432 189.681 43.324 189.561 43.288C189.453 43.24 189.315 43.246 189.147 43.306C188.859 43.402 188.523 43.588 188.139 43.864C187.755 44.14 187.389 44.434 187.041 44.746C186.933 44.854 186.807 44.902 186.663 44.89C186.531 44.878 186.417 44.824 186.321 44.728C186.225 44.632 186.171 44.524 186.159 44.404C186.147 44.272 186.195 44.134 186.303 43.99C186.507 43.774 186.735 43.552 186.987 43.324C187.239 43.096 187.503 42.892 187.779 42.712C188.055 42.52 188.337 42.364 188.625 42.244C188.913 42.124 189.201 42.058 189.489 42.046C189.909 42.034 190.233 42.13 190.461 42.334C190.689 42.526 190.827 42.778 190.875 43.09ZM188.787 46.96C188.631 46.996 188.463 47.074 188.283 47.194C188.115 47.302 187.959 47.44 187.815 47.608C187.683 47.764 187.581 47.944 187.509 48.148C187.449 48.34 187.449 48.532 187.509 48.724C187.533 48.796 187.581 48.85 187.653 48.886C187.737 48.922 187.827 48.928 187.923 48.904C188.211 48.844 188.535 48.73 188.895 48.562C189.267 48.382 189.561 48.19 189.777 47.986C189.777 47.914 189.741 47.824 189.669 47.716C189.597 47.596 189.513 47.482 189.417 47.374C189.321 47.254 189.213 47.152 189.093 47.068C188.985 46.984 188.883 46.948 188.787 46.96ZM194.355 41.326C194.415 42.634 194.517 43.99 194.661 45.394C194.805 46.786 194.961 48.118 195.129 49.39C195.165 49.918 195.021 50.188 194.697 50.2C194.625 50.2 194.553 50.176 194.481 50.128C194.409 50.068 194.343 49.996 194.283 49.912C194.223 49.828 194.163 49.738 194.103 49.642C194.055 49.546 194.025 49.462 194.013 49.39C193.917 48.778 193.827 48.13 193.743 47.446C193.659 46.762 193.581 46.078 193.509 45.394C193.449 44.698 193.395 44.02 193.347 43.36C193.299 42.7 193.269 42.094 193.257 41.542C193.281 41.254 193.323 41.014 193.383 40.822C193.443 40.618 193.569 40.522 193.761 40.534C193.965 40.546 194.109 40.63 194.193 40.786C194.289 40.93 194.343 41.11 194.355 41.326ZM200.691 44.926C200.919 44.914 201.147 44.968 201.375 45.088C201.603 45.208 201.717 45.394 201.717 45.646C201.693 45.85 201.579 45.982 201.375 46.042C201.183 46.09 201.027 46.114 200.907 46.114C200.667 46.114 200.409 46.12 200.133 46.132C199.857 46.144 199.575 46.162 199.287 46.186C199.263 46.582 199.239 46.954 199.215 47.302C199.203 47.65 199.191 47.962 199.179 48.238C199.167 48.502 199.161 48.718 199.161 48.886C199.161 49.054 199.167 49.144 199.179 49.156C199.443 49.108 199.725 49.03 200.025 48.922C200.337 48.802 200.643 48.676 200.943 48.544C201.255 48.4 201.555 48.256 201.843 48.112C202.143 47.956 202.425 47.812 202.689 47.68C202.809 47.62 202.917 47.602 203.013 47.626C203.121 47.65 203.187 47.704 203.211 47.788C203.235 47.92 203.217 48.082 203.157 48.274C203.097 48.466 202.989 48.64 202.833 48.796C202.653 48.94 202.413 49.108 202.113 49.3C201.825 49.48 201.513 49.654 201.177 49.822C200.841 49.99 200.499 50.14 200.151 50.272C199.815 50.392 199.515 50.464 199.251 50.488C198.855 50.524 198.555 50.416 198.351 50.164C198.147 49.912 198.033 49.594 198.009 49.21C197.985 48.826 197.979 48.382 197.991 47.878C198.015 47.374 198.039 46.84 198.063 46.276C197.835 46.3 197.613 46.324 197.397 46.348C197.193 46.36 196.995 46.378 196.803 46.402C196.647 46.402 196.473 46.366 196.281 46.294C196.101 46.222 196.011 46.084 196.011 45.88C196.011 45.808 196.041 45.712 196.101 45.592C196.161 45.472 196.293 45.382 196.497 45.322C196.989 45.238 197.535 45.166 198.135 45.106C198.171 44.542 198.213 43.996 198.261 43.468C198.309 42.94 198.351 42.46 198.387 42.028C198.399 41.884 198.441 41.758 198.513 41.65C198.585 41.542 198.663 41.488 198.747 41.488C198.951 41.476 199.143 41.53 199.323 41.65C199.515 41.758 199.611 41.884 199.611 42.028C199.563 42.436 199.515 42.898 199.467 43.414C199.431 43.93 199.395 44.458 199.359 44.998C199.599 44.974 199.827 44.962 200.043 44.962C200.271 44.95 200.487 44.938 200.691 44.926ZM206.797 40.318C206.689 40.846 206.575 41.368 206.455 41.884C206.347 42.4 206.245 42.916 206.149 43.432C206.053 43.948 205.981 44.464 205.933 44.98C205.885 45.496 205.879 46.012 205.915 46.528C205.939 46.66 205.915 46.786 205.843 46.906C205.783 47.026 205.711 47.104 205.627 47.14C205.363 47.236 205.171 47.17 205.051 46.942C204.907 46.33 204.829 45.724 204.817 45.124C204.817 44.524 204.859 43.93 204.943 43.342C205.039 42.754 205.159 42.172 205.303 41.596C205.459 41.008 205.615 40.426 205.771 39.85C205.831 39.61 205.927 39.478 206.059 39.454C206.191 39.43 206.317 39.442 206.437 39.49C206.617 39.55 206.731 39.67 206.779 39.85C206.827 40.03 206.833 40.186 206.797 40.318ZM206.077 50.002C206.077 50.134 206.059 50.314 206.023 50.542C205.999 50.758 205.951 50.962 205.879 51.154C205.819 51.346 205.729 51.502 205.609 51.622C205.501 51.742 205.363 51.766 205.195 51.694C205.099 51.634 205.003 51.52 204.907 51.352C204.811 51.184 204.769 51.028 204.781 50.884C204.805 50.596 204.865 50.314 204.961 50.038C205.057 49.762 205.183 49.594 205.339 49.534C205.411 49.51 205.489 49.51 205.573 49.534C205.669 49.558 205.753 49.6 205.825 49.66C205.897 49.708 205.957 49.768 206.005 49.84C206.053 49.9 206.077 49.954 206.077 50.002Z" fill="black"/>
<defs>
<clipPath id="clip0">
<rect x="29" y="8" width="156" height="215" fill="white"/>
</clipPath>
</defs>
</svg>
