<svg width="149" height="150" viewBox="0 0 149 150" fill="none" xmlns="http://www.w3.org/2000/svg">
<path d="M149 74.5C149 115.6 115.6 149 74.5 149C33.4 149 0 115.6 0 74.5C0 33.4 33.4 0 74.5 0C115.6 0 149 33.4 149 74.5Z" fill="#F8F6F6"/>
<mask id="mask0" mask-type="alpha" maskUnits="userSpaceOnUse" x="2" y="0" width="147" height="150">
<path d="M148.9 74.9C148.9 116.3 116 149.8 75.4 149.8C34.9 149.8 2 116.3 2 74.9C2 33.5 34.9 0 75.5 0C116 0 148.9 33.5 148.9 74.9Z" fill="#F8F6F6"/>
</mask>
<g mask="url(#mask0)">
<path d="M89.4 67.8001C89.4 67.8001 81.3 81.3001 75.8 81.1001C70.5 81.0001 63.3 67.8001 63.3 67.8001L63.4 48.1001H89.3L89.4 67.8001Z" fill="#F7995A"/>
<path d="M91.4 38.4002C96.6 33.7002 95 43.3002 93.7 45.8002C93.3 46.7002 92.3 48.5002 91.1 48.7002L91.4 38.4002Z" fill="#F7995A"/>
<path d="M61.1 38.4002C55.9 33.7002 57.5 43.3002 58.8 45.8002C59.2 46.7002 60.2 48.5002 61.4 48.7002L61.1 38.4002Z" fill="#F7995A"/>
<path d="M91.5 41.8999C91 35.8999 92.4 26.3999 89.8 22.3999C86.8 17.7999 81.1 17.3999 76.2 17.3999C71.3 17.3999 65.6 17.7999 62.6 22.3999C60 26.3999 61.4 35.8999 60.9 41.8999C60.3 49.4999 62.4 54.7999 68.2 59.4999C69.9 60.8999 73.9 61.6999 76.1 61.7999C78.3 61.7999 82.3 60.8999 84 59.4999C90 54.6999 92.1 49.4999 91.5 41.8999Z" fill="#F7AC6F"/>
<path d="M87.1 46.9C86.7 41.4 90.5 34.5 88.1 30.8C85.3 26.6 80.2 24.5 75.7 24.5C71.2 24.5 67 27 64.2 31.3C61.8 34.9 66.2 41.3 65.4 46.7C64.3 53.7 63.6 54.3 69 58.6C70.6 59.9 74.2 60.7 76.3 60.7C78.4 60.7 82 59.9 83.6 58.6C88.9 54.3 87.7 53.9 87.1 46.9Z" fill="#F7AC6F"/>
<path d="M94.9 21C94.6 20 91.6 16 91.6 16L86.4 11.4C86.4 11.4 77.1 8.40001 75.6 8.00001C72.1 6.90001 67.1 10.9 67.1 10.9L64.2 13.9L64.1 13C64.1 13 59 17.5 57.8 23.2C57 26.6 57.6 34.7 58.6 37.1C58.6 37.1 60.4 38.5 61 38.4C60.9 35.8 62 32.2 62 30.3C62.5 28.7 66.4 22.3 68.2 21.7C70.1 19.8 75.6 22.1 75.6 22.1L79.4 20.7C79.4 20.7 80.3 22.2 80.8 22.4C81.7 22.8 84.7 22.1 84.7 22.1C89 24.5 90.2 31.2 90.2 31.2C90.2 31.2 91.4 35.8 91.3 38.4C91.9 38.5 94.1 37.1 94.1 37.1C94.5 34.1 96.3 26 94.9 21Z" fill="#00314E"/>
<path d="M82.2 19.2C84.2 15 76 12.7 73.2 12C73.7 12.6 74 13.3 74.4 13.9C72.9 12.9 70.6 12.3 68.8 12C68.8 12 68.8 12 68.9 12C71.9 14.3 64.8 15.8 65.9 19.2C67.5 18.4 69.7 18.5 71.6 18.5C72.5 18.5 76 20.1 76.8 20.1C77.9 20 76.4 18.2 77.7 18.3C78.6 18.3 82.2 19.2 82.2 19.2Z" fill="#053E60"/>
<path d="M102.1 132.8L104 128.9L103.8 123.7L112 71.0002L98.2 64.7002L76.8 74.0002L75.4 81.1002L74.1 74.0002L52.8 64.7002L39 71.0002L47.2 123.7L47 128.9L48.9 132.8L48.4 137.7L43.9 154.7C43.9 154.7 52.1 157.8 75.5 157.8C98.8 157.8 105.7 154.7 105.7 154.7L102.5 137.7L102.1 132.8Z" fill="#FCE587"/>
<path d="M71.9 70.7002L74.1 74.0002L70.6 72.8002L67 78.2002L52.8 64.7002L60.2 59.2002L71.9 70.7002Z" fill="#FDD36A"/>
<path d="M46.4 111.7L39 71L34.6 77L22.9 112.9L46.4 111.7Z" fill="#FDD36A"/>
<path d="M79 70.7002L76.8 74.0002L80.3 72.8002L83.9 78.2002L98.2 64.7002L90.7 59.2002L79 70.7002Z" fill="#FDD36A"/>
<path d="M49.2 131.8C54.7 136.9 65.6 133.2 70.9 137.5C64.7 140.6 49.5 137.9 59.8 147.8C55.8 147.9 52.3 146.4 48.3 146.7C48.6 143.2 50 139.4 49.4 136.3L49.2 131.8Z" fill="#FDD36A"/>
<path d="M101.9 136.7C99.6 141.4 92.8 140.9 87.9 141.8C90.2 144.4 95.4 143.9 99.3 144C98.7 144.6 98 145.5 97.1 146.2C98.5 146.6 102.7 146.8 103 146.8L101.9 136.7Z" fill="#FDD36A"/>
<path d="M106.1 117L105.3 113.2L111.9 71L116.3 77L127.3 112.1L106.1 117Z" fill="#FDD36A"/>
<path d="M48.3 126.3L30.1 131.1L26.2 112.7L46.4 111.7L48.3 126.3Z" fill="#F7995A"/>
<path d="M67.1 151.8L72.3 151.7L65.5 159.7L63.8 164.3C63.8 164.3 31.8 143.9 30 131.1C33.5 121.7 48.2 126.3 48.2 126.3L67.1 151.8Z" fill="#F7AC6F"/>
<path d="M80.9 149.4L83.8 148.3C83.8 148.3 85 151.6 80.7 153C80 153.2 77.3 153.2 77.3 153.2C77.3 153.2 85.4 159.9 87.6 162.2C91.2 165.9 88.4 166.7 88.4 166.7L85 164.6L88.6 167.6C89.8 168.6 90.1 170.1 89.2 171C88.5 171.6 85.7 170.7 84.7 170.2C85.8 171.2 86.5 173.1 85.6 173.9C84.6 174.8 78.1 170.5 78.1 170.5C78.9 171.2 79 172.4 78.3 173.1C77.6 173.8 68.8 167.1 68.8 167.1C68.7 167 68.5 166.8 68.4 166.7L63.9 164.3L59.2 158.8L63.3 149.7L70.6 146.7L80.9 149.4Z" fill="#F7AC6F"/>
<path d="M47.9 142.3C46 141.8 44.1 142.9 43.6 144.7C43.1 146.6 44.2 148.5 46 149C47.9 149.5 49.8 148.4 50.4 146.6C50.9 144.7 49.8 142.8 47.9 142.3Z" fill="url(#paint0_radial)"/>
<path d="M44.8 135.6C44 135.4 43.2 135.8 43 136.6C42.8 137.4 43.2 138.2 44 138.4C44.8 138.6 45.6 138.2 45.8 137.4C46.1 136.6 45.6 135.8 44.8 135.6Z" fill="url(#paint1_radial)"/>
<path d="M50.8 135.8C49.5 135.4 48.2 136.2 47.9 137.4C47.5 138.7 48.3 139.9 49.5 140.3C50.7 140.7 52 139.9 52.4 138.7C52.8 137.4 52.1 136.1 50.8 135.8Z" fill="url(#paint2_radial)"/>
<path d="M39.3 131.7C38.1 131.3 36.8 132.1 36.4 133.3C36 134.5 36.8 135.9 38 136.2C39.2 136.6 40.6 135.8 40.9 134.6C41.3 133.3 40.5 132 39.3 131.7Z" fill="url(#paint3_radial)"/>
<path d="M56.5 144.5C55.3 144.1 53.9 144.9 53.6 146.1C53.2 147.4 54 148.6 55.2 149C56.5 149.4 57.8 148.6 58.1 147.4C58.5 146.1 57.8 144.8 56.5 144.5Z" fill="url(#paint4_radial)"/>
<path d="M52.2 149.9C51 149.5 49.7 150.3 49.3 151.5C48.9 152.7 49.7 154 50.9 154.4C52.1 154.8 53.5 154 53.8 152.8C54.2 151.6 53.4 150.3 52.2 149.9Z" fill="url(#paint5_radial)"/>
<path d="M109.7 129.9C109.7 129.9 123.3 135.5 126.5 132.6C130.2 129.2 125 112.6 125 112.6L106.2 116.9L109.7 129.9Z" fill="#F7995A"/>
<path d="M80.4 139.6L75.7 137.3L78.5 147.4L78.1 152.3C78.1 152.3 119.5 146.1 126.5 132.6C127.3 122.6 108.2 124.4 108.2 124.4L80.4 139.6Z" fill="#FABC84"/>
<path d="M63.1 135.9L60.5 134.2C60.5 134.2 58.7 137.2 62.6 139.4C63.2 139.7 65.9 140.2 65.9 140.2C65.9 140.2 56.7 145.3 54.1 147.1C49.8 150 52.5 151.4 52.5 151.4L56.2 150L52.1 152.3C50.7 153.1 50.2 154.5 50.9 155.5C51.5 156.2 54.4 155.8 55.5 155.6C54.2 156.4 53.2 158.1 53.9 159.1C54.7 160.2 61.9 157.2 61.9 157.2C61 157.8 60.7 158.9 61.2 159.7C61.8 160.5 71.7 155.5 71.7 155.5C71.9 155.4 72 155.3 72.1 155.1L77 153.6L82.6 149.1L80.3 139.4L73.7 135L63.1 135.9Z" fill="#FABC84"/>
<path d="M67.7 44.9C66.5 45.6 66.2 47.1 66.9 48.3C67.6 49.5 69.1 49.8 70.3 49.1C71.5 48.4 71.8 46.9 71.1 45.7C70.4 44.6 68.8 44.2 67.7 44.9Z" fill="url(#paint6_radial)"/>
<path d="M82 42C80.3 43 79.8 45.2 80.8 46.8C81.8 48.5 84 49 85.6 48C87.3 47 87.8 44.8 86.8 43.2C85.8 41.5 83.6 41 82 42Z" fill="url(#paint7_radial)"/>
<path d="M62.8 43.4002C62.3 43.7002 62.2 44.3002 62.5 44.8002C62.8 45.3002 63.4 45.4002 63.9 45.1002C64.4 44.8002 64.5 44.2002 64.2 43.7002C63.9 43.2002 63.3 43.1002 62.8 43.4002Z" fill="url(#paint8_radial)"/>
<path d="M87.4 39.0001C86.3 39.7001 85.9 41.1001 86.6 42.2001C87.3 43.3001 88.7 43.7001 89.8 43.0001C90.9 42.3001 91.3 40.9001 90.6 39.8001C90 38.7001 88.5 38.3001 87.4 39.0001Z" fill="url(#paint9_radial)"/>
<path d="M65.8 40.4001C65 40.9001 64.8 41.9001 65.3 42.7001C65.8 43.5001 66.8 43.7001 67.6 43.2001C68.4 42.7001 68.6 41.7001 68.1 40.9001C67.5 40.2001 66.5 39.9001 65.8 40.4001Z" fill="url(#paint10_radial)"/>
<path d="M92.5 141C91.5 141.9 91.5 143.5 92.5 144.5C93.4 145.5 95 145.5 96 144.5C97 143.6 97 142 96 141C95 140.1 93.4 140.1 92.5 141Z" fill="url(#paint11_radial)"/>
<path d="M105.8 135C104.4 136.4 104.4 138.6 105.7 140C107.1 141.4 109.3 141.4 110.7 140.1C112.1 138.7 112.1 136.5 110.8 135.1C109.4 133.7 107.2 133.7 105.8 135Z" fill="url(#paint12_radial)"/>
<path d="M87.3 140.5C86.9 140.9 86.9 141.6 87.3 142C87.7 142.4 88.4 142.4 88.8 142C89.2 141.6 89.2 140.9 88.8 140.5C88.4 140.1 87.8 140.1 87.3 140.5Z" fill="url(#paint13_radial)"/>
<path d="M110.4 130.9C109.5 131.8 109.4 133.3 110.4 134.2C111.3 135.1 112.8 135.2 113.7 134.2C114.6 133.3 114.7 131.8 113.7 130.9C112.8 130 111.3 130 110.4 130.9Z" fill="url(#paint14_radial)"/>
<path d="M89.6 137C89 137.6 88.9 138.7 89.6 139.3C90.2 139.9 91.3 140 91.9 139.3C92.6 138.7 92.6 137.6 91.9 137C91.3 136.4 90.2 136.4 89.6 137Z" fill="url(#paint15_radial)"/>
</g>
<defs>
<radialGradient id="paint0_radial" cx="0" cy="0" r="1" gradientUnits="userSpaceOnUse" gradientTransform="translate(46.9612 145.663) rotate(-74.2639) scale(3.52622)">
<stop stop-color="#FF5748"/>
<stop offset="1" stop-color="#FABC84"/>
</radialGradient>
<radialGradient id="paint1_radial" cx="0" cy="0" r="1" gradientUnits="userSpaceOnUse" gradientTransform="translate(44.4299 137.012) rotate(-74.2639) scale(1.49986)">
<stop stop-color="#FF5748"/>
<stop offset="1" stop-color="#FABC84"/>
</radialGradient>
<radialGradient id="paint2_radial" cx="0" cy="0" r="1" gradientUnits="userSpaceOnUse" gradientTransform="translate(50.2078 138.048) rotate(-74.264) scale(2.35235)">
<stop stop-color="#FF5748"/>
<stop offset="1" stop-color="#FABC84"/>
</radialGradient>
<radialGradient id="paint3_radial" cx="0" cy="0" r="1" gradientUnits="userSpaceOnUse" gradientTransform="translate(38.6479 133.94) rotate(-74.264) scale(2.35175)">
<stop stop-color="#FF5748"/>
<stop offset="1" stop-color="#FABC84"/>
</radialGradient>
<radialGradient id="paint4_radial" cx="0" cy="0" r="1" gradientUnits="userSpaceOnUse" gradientTransform="translate(55.8799 146.75) rotate(-74.264) scale(2.35175)">
<stop stop-color="#FF5748"/>
<stop offset="1" stop-color="#FABC84"/>
</radialGradient>
<radialGradient id="paint5_radial" cx="0" cy="0" r="1" gradientUnits="userSpaceOnUse" gradientTransform="translate(51.5459 152.204) rotate(-74.264) scale(2.35275)">
<stop stop-color="#FF5748"/>
<stop offset="1" stop-color="#FABC84"/>
</radialGradient>
<radialGradient id="paint6_radial" cx="0" cy="0" r="1" gradientUnits="userSpaceOnUse" gradientTransform="translate(68.9695 47.0387) rotate(-121.527) scale(2.45601)">
<stop stop-color="#FF5748"/>
<stop offset="1" stop-color="#FABC84"/>
</radialGradient>
<radialGradient id="paint7_radial" cx="0" cy="0" r="1" gradientUnits="userSpaceOnUse" gradientTransform="translate(83.8317 45.0157) rotate(-121.527) scale(3.52602)">
<stop stop-color="#FF5748"/>
<stop offset="1" stop-color="#FABC84"/>
</radialGradient>
<radialGradient id="paint8_radial" cx="0" cy="0" r="1" gradientUnits="userSpaceOnUse" gradientTransform="translate(63.3497 44.2444) rotate(-121.527) scale(1.044)">
<stop stop-color="#FF5748"/>
<stop offset="1" stop-color="#FABC84"/>
</radialGradient>
<radialGradient id="paint9_radial" cx="0" cy="0" r="1" gradientUnits="userSpaceOnUse" gradientTransform="translate(88.6555 40.9928) rotate(-121.527) scale(2.35211)">
<stop stop-color="#FF5748"/>
<stop offset="1" stop-color="#FABC84"/>
</radialGradient>
<radialGradient id="paint10_radial" cx="0" cy="0" r="1" gradientUnits="userSpaceOnUse" gradientTransform="translate(66.6111 41.778) rotate(-121.527) scale(1.63841)">
<stop stop-color="#FF5748"/>
<stop offset="1" stop-color="#FABC84"/>
</radialGradient>
<radialGradient id="paint11_radial" cx="0" cy="0" r="1" gradientUnits="userSpaceOnUse" gradientTransform="translate(94.165 142.781) rotate(-134.186) scale(2.45575)">
<stop stop-color="#FF5748"/>
<stop offset="1" stop-color="#FABC84"/>
</radialGradient>
<radialGradient id="paint12_radial" cx="0" cy="0" r="1" gradientUnits="userSpaceOnUse" gradientTransform="translate(108.221 137.55) rotate(-134.186) scale(3.52657)">
<stop stop-color="#FF5748"/>
<stop offset="1" stop-color="#FABC84"/>
</radialGradient>
<radialGradient id="paint13_radial" cx="0" cy="0" r="1" gradientUnits="userSpaceOnUse" gradientTransform="translate(88.0693 141.286) rotate(-134.186) scale(1.04422)">
<stop stop-color="#FF5748"/>
<stop offset="1" stop-color="#FABC84"/>
</radialGradient>
<radialGradient id="paint14_radial" cx="0" cy="0" r="1" gradientUnits="userSpaceOnUse" gradientTransform="translate(112.047 132.568) rotate(-134.186) scale(2.35235)">
<stop stop-color="#FF5748"/>
<stop offset="1" stop-color="#FABC84"/>
</radialGradient>
<radialGradient id="paint15_radial" cx="0" cy="0" r="1" gradientUnits="userSpaceOnUse" gradientTransform="translate(90.71 138.166) rotate(-134.186) scale(1.63814)">
<stop stop-color="#FF5748"/>
<stop offset="1" stop-color="#FABC84"/>
</radialGradient>
</defs>
</svg>
