<svg width="149" height="149" viewBox="0 0 149 149" fill="none" xmlns="http://www.w3.org/2000/svg">
<path d="M149 74.5C149 115.6 115.6 149 74.5 149C33.4 149 0 115.6 0 74.5C0 33.4 33.4 0 74.5 0C115.6 0 149 33.4 149 74.5Z" fill="#F8F6F6"/>
<mask id="mask0" mask-type="alpha" maskUnits="userSpaceOnUse" x="0" y="0" width="149" height="149">
<path d="M149 74.5C149 115.6 115.6 149 74.5 149C33.4 149 0 115.6 0 74.5C0 33.4 33.4 0 74.5 0C115.6 0 149 33.4 149 74.5Z" fill="#F8F6F6"/>
</mask>
<g mask="url(#mask0)">
<path d="M96.6274 73.2109C96.6274 73.2109 95.0274 80.1109 94.5274 83.1109C93.3274 89.8109 95.3274 98.1109 98.3274 104.411C99.5274 106.911 106.827 115.011 108.127 118.111C107.027 120.411 98.9274 141.011 97.1274 147.211C95.4274 153.111 98.9274 155.711 100.027 157.511C105.327 151.411 118.927 135.711 123.227 124.711C127.227 118.211 100.827 77.5109 96.6274 73.2109Z" fill="#FFC09D"/>
<path d="M55.5274 70.5108C57.0274 69.0108 59.4274 55.3108 59.6274 50.3108C67.0274 47.6108 74.9274 53.6108 77.2274 55.9108C77.2274 66.3108 82.2274 87.5108 76.2274 87.2108C47.3274 85.6108 55.5274 70.5108 55.5274 70.5108Z" fill="#ECAF8D"/>
<path d="M92.0274 119.711C92.6274 113.511 100.927 111.611 100.027 104.911C99.1274 97.6108 95.6274 96.0108 96.3274 88.5108C96.6274 85.4108 99.4274 75.9108 97.0274 73.3108C94.9274 71.0108 83.1274 71.5108 80.1274 70.8108C80.0274 71.7108 78.7274 74.0108 78.7274 74.9108L74.0274 79.8108L55.3274 70.6108C55.3274 70.6108 53.8274 68.2108 53.8274 68.4108L35.1274 76.4108C44.5274 78.7108 45.3274 88.9108 44.6274 95.8108C44.3274 99.1108 40.3274 101.511 39.5274 104.611C38.5274 108.211 43.4274 113.911 44.6274 117.111C46.8274 123.511 47.5274 128.411 48.6274 135.011C49.1274 138.111 45.0274 140.211 45.8274 142.511C46.2274 143.611 48.4274 143.811 48.6274 144.911C48.9274 146.111 47.3274 146.411 46.6274 147.111C44.0274 149.511 46.3274 151.611 45.6274 154.411C45.0274 156.611 42.0274 165.211 41.6274 165.411C45.8274 169.711 68.8274 170.111 72.8274 170.311C83.9274 170.911 96.8274 163.111 101.727 163.111C98.8274 148.611 90.5274 134.911 92.0274 119.711Z" fill="#FCE587"/>
<path d="M89.5274 116.811C77.7274 121.811 60.3274 126.311 47.8274 105.511C49.9274 109.111 50.1274 125.111 49.7274 129.711C49.3274 134.211 49.0274 136.011 49.7274 140.611C51.9274 141.211 52.3274 142.911 51.8274 145.611C51.1274 149.011 50.2274 146.311 48.3274 148.611C43.5274 154.611 50.4274 153.211 44.6274 162.711C48.4274 160.911 55.2274 157.211 52.7274 153.211C58.3274 150.711 59.1274 146.811 58.0274 141.111C57.6274 139.011 55.9274 137.311 55.6274 134.611C55.3274 132.111 56.5274 129.111 56.3274 126.411C65.2274 125.211 81.1274 125.511 88.4274 120.411L89.5274 116.811Z" fill="#FCE587"/>
<path d="M97.1273 140.111C104.927 145.111 110.527 156.511 98.2273 159.311C98.1273 159.311 98.3273 159.311 98.2273 159.311C96.6273 157.111 101.127 155.811 101.427 153.011C97.2273 155.011 92.7273 160.311 89.9273 159.811C89.1273 159.211 89.3273 158.511 89.9273 157.311C87.4273 160.911 82.8273 158.411 86.8273 154.611C80.6273 152.111 92.8273 141.111 97.1273 140.111Z" fill="#FFAC7D"/>
<path d="M54.8274 20.6108C56.0274 17.0108 57.7274 13.2108 62.0274 13.0108C65.8274 12.8108 69.9274 15.4108 71.6274 18.8108C72.3274 20.2108 72.5274 21.7108 72.5274 23.2108L54.8274 20.6108Z" fill="#00314E"/>
<path d="M55.8275 36.4106C54.8275 33.6106 53.9275 30.9106 53.4275 28.0106C53.0275 25.8106 52.4275 22.5105 54.4275 20.8105C56.3275 19.2105 59.6275 19.6106 61.8275 19.7106C64.6275 19.9106 67.6275 20.3106 70.2275 21.5106C72.3275 22.4106 73.9275 23.9106 75.4275 25.6105L55.8275 36.4106Z" fill="#063754"/>
<path d="M72.5274 23.5107C70.0274 22.3107 67.2274 21.6107 64.5274 21.1107C62.6274 20.8107 60.7274 21.0107 58.9274 21.5107C58.3274 21.7107 55.3274 22.2107 56.2274 23.0107C56.7274 23.4107 58.3274 23.2107 58.9274 23.2107C60.0274 23.2107 61.1274 23.3107 62.3274 23.3107V23.4107C60.3274 24.5107 58.4274 25.0107 57.1274 27.1107C56.4274 28.3107 55.8274 29.7107 56.2274 31.1107C57.3274 30.7107 58.0274 29.2107 58.9274 28.5107C60.0274 27.4107 61.3274 26.5107 62.7274 25.8107C64.7274 24.8107 67.2274 24.1107 69.4274 24.1107L72.5274 23.5107Z" fill="#00314E"/>
<path d="M63.9274 53.0109C65.7274 47.3109 68.2274 38.1109 71.6274 35.0109C75.6274 31.4109 80.8274 32.5109 85.1274 33.9109C89.4274 35.2109 94.3274 37.2109 95.6274 42.4109C96.7274 46.9109 93.8274 54.7109 91.7274 60.3109C89.0274 67.4109 87.2274 72.1109 78.9274 76.0109C77.0274 76.9109 74.0274 80.0109 67.7274 71.1109C63.6274 65.3109 61.7274 60.3109 63.9274 53.0109Z" fill="#FFC09D"/>
<path d="M65.1274 50.8107C64.2274 49.9107 58.8274 49.9107 59.9274 59.0107C58.8274 57.6107 58.8274 60.5107 58.2274 62.5107C54.0274 54.6107 52.6274 49.8107 52.9274 46.8107C54.1274 35.2107 61.0274 27.4107 64.1274 26.2107C68.2274 24.5107 69.8274 21.7107 80.1274 24.8107C84.8274 26.2107 93.2274 31.4107 95.8274 36.3107C98.0274 40.4107 98.2274 46.2107 95.5274 47.2107C95.1274 45.3107 94.1274 43.8107 92.5274 43.2107C91.6274 42.0107 90.8274 40.4107 88.4274 41.6107C85.7274 37.5107 80.8274 38.5107 78.3274 40.8107C74.3274 38.6107 65.2274 44.9107 65.1274 50.8107Z" fill="#00314E"/>
<path d="M75.5273 39.1107C77.1273 34.6107 68.0273 31.6107 71.0273 27.5107C68.4273 29.5107 66.8273 32.9107 69.4273 35.7107C70.0273 36.4107 70.7273 36.8107 71.5273 37.3107C69.7273 36.0107 65.7273 36.6107 65.6273 33.6107C63.8273 38.7107 71.4273 38.0107 74.2273 39.2107L75.5273 39.1107Z" fill="#063754"/>
<path d="M89.3274 40.6108C91.9274 32.9108 86.1274 28.8108 80.1274 25.6108C82.3274 28.7108 87.7274 31.9108 86.1274 36.3108C87.2274 33.7108 81.1274 31.3108 80.6274 28.6108C80.6274 32.4108 85.0274 34.1108 85.3274 37.7108C87.0274 38.1108 88.4274 39.0108 88.9274 40.7108L89.3274 40.6108Z" fill="#063754"/>
<path d="M65.5274 50.9109C61.8274 45.0109 60.8274 54.3109 61.2274 56.9109C61.4274 57.9109 62.2274 59.9109 63.2274 60.5109L65.5274 50.9109Z" fill="#FFC09D"/>
<path d="M35.1274 76.3109C33.0274 78.2109 29.8274 82.8109 28.6274 93.9109C25.9274 118.511 26.6274 131.211 30.4274 132.511C32.7274 133.311 41.8274 115.311 44.2274 115.011C46.3274 115.211 47.8274 88.0109 43.8274 80.7109C40.9274 75.4109 35.0274 76.2109 35.1274 76.3109Z" fill="#FFC09D"/>
<path d="M95 92.4953C95 101.521 87.5981 108.991 78.6542 108.991C69.4019 109.302 62 101.832 62 92.4953C62 83.4696 69.4019 76 78.3458 76C87.5981 76 95 83.4696 95 92.4953Z" fill="url(#paint0_radial)"/>
<path d="M102 61.4919C102 77.0818 89.215 89.9838 73.7664 89.9838C57.785 90.5214 45 77.6194 45 61.4919C45 45.902 57.785 33 73.2336 33C89.215 33 102 45.902 102 61.4919Z" fill="url(#paint1_radial)"/>
<path d="M79 106.496C79 113.881 72.9439 119.992 65.6262 119.992C58.0561 120.247 52 114.135 52 106.496C52 99.1115 58.0561 93 65.3738 93C72.9439 93 79 99.1115 79 106.496Z" fill="url(#paint2_radial)"/>
<path d="M87.5401 91.4746C87.5401 91.4746 92.6401 86.3746 92.0401 85.2746C91.4401 84.2746 89.6401 84.5746 88.4401 85.3746C89.0401 84.4746 90.4401 82.0746 90.0401 81.3746C89.4401 80.3746 88.0401 80.3746 86.8401 81.2746L83.4401 83.9746L85.9401 81.2746C85.9401 81.2746 85.7401 78.4746 81.6401 81.1746C79.1401 82.6746 71.5401 88.7746 71.5401 88.7746C71.5401 88.7746 72.1401 86.2746 72.0401 85.6746C71.5401 81.5746 68.3401 81.9746 68.3401 81.9746L68.8401 84.8746L64.4401 93.7746L65.5401 99.6746L30.6401 115.275C30.6401 115.275 21.9401 132.375 31.4401 134.375C44.8401 134.375 68.8401 110.175 68.8401 110.175L73.2401 106.375L79.1401 103.075L82.1401 99.4746C82.3401 99.3746 82.4401 99.3746 82.6401 99.1746C82.6401 99.1746 90.4401 92.3746 89.9401 91.6746C89.4401 90.9746 88.3401 90.8746 87.5401 91.4746Z" fill="#FFAC7D"/>
</g>
<defs>
<radialGradient id="paint0_radial" cx="0" cy="0" r="1" gradientUnits="userSpaceOnUse" gradientTransform="translate(78.4257 92.5762) scale(16.426 16.5762)">
<stop offset="0.0832259" stop-color="#EA2154" stop-opacity="0.83"/>
<stop offset="0.9745" stop-color="#E09980" stop-opacity="0"/>
</radialGradient>
<radialGradient id="paint1_radial" cx="0" cy="0" r="1" gradientUnits="userSpaceOnUse" gradientTransform="translate(79.8333 60.4444) rotate(3.10155) scale(21.9426 22.1433)">
<stop offset="0.0832259" stop-color="#7DB800" stop-opacity="0.35"/>
<stop offset="0.9745" stop-color="#E09980" stop-opacity="0"/>
</radialGradient>
<radialGradient id="paint2_radial" cx="0" cy="0" r="1" gradientUnits="userSpaceOnUse" gradientTransform="translate(65.4392 106.562) scale(13.4394 13.5624)">
<stop offset="0.0832259" stop-color="#EA2154" stop-opacity="0.83"/>
<stop offset="0.9745" stop-color="#E09980" stop-opacity="0"/>
</radialGradient>
</defs>
</svg>
