<svg xmlns="http://www.w3.org/2000/svg" width="35" height="35" viewBox="0 0 35 35" fill="none"><path d="M25.0021 26.6328L17.4687 28.6836L9.93535 26.6055C8.73437 26.3047 7.91553 25.2109 7.91553 23.9805V7.71094C7.91553 6.26172 9.0892 5.08594 10.5358 5.08594H24.4016C25.8482 5.08594 27.0219 6.26172 27.0219 7.71094V23.9805C27.0219 25.2109 26.2031 26.3047 25.0021 26.6328Z" fill="white"></path><path d="M9.82617 21.3281H8.02471C7.99741 21.3281 7.94282 21.3281 7.91553 21.3281V22.9688C7.94282 22.9688 7.99741 22.9688 8.02471 22.9688H9.82617C10.2902 22.9688 10.645 22.6133 10.645 22.1484C10.645 21.6836 10.2902 21.3281 9.82617 21.3281Z" fill="#DADBDD"></path><path d="M9.82617 17.3906H8.02471C7.99741 17.3906 7.94282 17.3906 7.91553 17.3906V19.0312C7.94282 19.0312 7.99741 19.0312 8.02471 19.0312H9.82617C10.2902 19.0312 10.645 18.6758 10.645 18.2109C10.645 17.7461 10.2902 17.3906 9.82617 17.3906Z" fill="#DADBDD"></path><path d="M9.82617 13.4531H8.02471C7.99741 13.4531 7.94282 13.4531 7.91553 13.4531V15.0938C7.94282 15.0938 7.99741 15.0938 8.02471 15.0938H9.82617C10.2902 15.0938 10.645 14.7383 10.645 14.2734C10.645 13.8086 10.2902 13.4531 9.82617 13.4531Z" fill="#DADBDD"></path><path d="M9.82617 9.51562H8.02471C7.99741 9.51562 7.94282 9.51562 7.91553 9.51562V11.1562C7.94282 11.1562 7.99741 11.1562 8.02471 11.1562H9.82617C10.2902 11.1562 10.645 10.8008 10.645 10.3359C10.645 9.87109 10.2902 9.51562 9.82617 9.51562Z" fill="#DADBDD"></path><path d="M17.4687 32.6484C17.0047 32.6484 16.6499 32.293 16.6499 31.8281V28.6836C16.6499 28.2188 17.0047 27.8633 17.4687 27.8633C17.9328 27.8633 18.2876 28.2188 18.2876 28.6836V31.8281C18.2876 32.2656 17.9328 32.6484 17.4687 32.6484Z" fill="#454B54"></path><path d="M17.4687 29.5039C17.3868 29.5039 17.3322 29.5039 17.2504 29.4766L9.71698 27.3984C8.18847 26.9883 7.09668 25.5664 7.09668 23.9805V7.71094C7.09668 5.82422 8.65248 4.26562 10.5358 4.26562H24.4016C26.3122 4.26562 27.8407 5.79688 27.8407 7.71094V23.9805C27.8407 25.5664 26.7763 26.9883 25.2204 27.3984L17.6871 29.4766C17.6052 29.5039 17.5506 29.5039 17.4687 29.5039ZM10.5358 5.90625C9.55321 5.90625 8.73437 6.72656 8.73437 7.71094V23.9805C8.73437 24.8281 9.30756 25.5938 10.1537 25.8398L17.4687 27.8633L24.7837 25.8398C25.6026 25.6211 26.2031 24.8555 26.2031 23.9805V7.71094C26.2031 6.72656 25.3842 5.90625 24.4016 5.90625H10.5358Z" fill="#454B54"></path><path d="M19.2428 19.8242C18.2329 20.8359 16.6225 20.8359 15.6126 19.8242C14.6027 18.8125 14.8483 17.3633 15.6126 16.1875C16.7316 14.4102 17.414 13.3438 17.414 13.3438C17.414 13.3438 18.1783 14.5742 19.2155 16.1875C20.1708 17.6094 20.2527 18.8125 19.2428 19.8242Z" fill="#F27788"></path><path d="M17.4687 5.66016C17.0047 5.66016 16.6499 5.30469 16.6499 4.83984V3.44531C16.6499 2.98047 17.0047 2.625 17.4687 2.625C17.9328 2.625 18.2876 2.98047 18.2876 3.44531V4.83984C18.2876 5.30469 17.9328 5.66016 17.4687 5.66016Z" fill="#454B54"></path></svg>