<svg xmlns="http://www.w3.org/2000/svg" width="150" height="88" viewBox="0 0 150 88" fill="none"><mask id="mask0" maskUnits="userSpaceOnUse" x="0" y="0" width="150" height="88"><rect width="150" height="88" fill="white"></rect></mask><g mask="url(#mask0)"><path d="M103.652 38.2116C101.731 37.866 99.6357 37.5204 97.5402 37.6932C95.7941 37.6932 94.7464 37.6932 93.3494 36.6564C92.8256 36.3108 92.4763 35.9651 92.1271 35.4467V35.2739C93.8732 34.7555 95.4448 34.4098 97.191 34.5826C99.1118 34.7555 101.207 34.5827 103.128 34.0642C104.001 33.7186 103.652 32.3362 102.779 32.6818C102.08 32.8546 101.382 33.0274 100.683 33.2002C99.9849 33.373 99.2864 33.373 98.588 33.373C97.8895 33.373 97.0164 33.0274 96.3179 33.0274C95.0956 33.0274 93.6987 33.5458 92.4763 33.8914C92.8256 33.373 93.3494 32.6818 93.6986 32.1633C95.2702 29.5712 96.8418 27.6703 99.6357 26.2878C100.509 25.7694 99.8103 24.5597 98.9372 25.0782C96.6671 26.2878 94.7464 27.6703 93.524 29.9168C92.651 31.2993 91.7778 32.8546 90.7301 34.0642H83.7454V14.5369V4.85956C83.7454 1.92181 74.6652 1.92181 74.6652 4.85956V36.138H59.9973C58.9496 34.9283 58.0765 33.373 57.2034 31.9905C55.8065 29.9168 53.8857 28.3615 51.7902 27.1519C50.9171 26.6335 50.2187 28.016 51.0918 28.3616C53.8857 29.744 55.4572 31.6449 57.0288 34.2371C57.378 34.7555 57.7273 35.4467 58.2511 35.9651C57.0288 35.6195 55.6318 35.1011 54.4095 35.1011C53.711 35.1011 53.0126 35.4467 52.1395 35.4467C51.441 35.4467 50.7425 35.4467 50.044 35.2739C49.3456 35.1011 48.6471 34.9283 47.9487 34.7555C47.0756 34.4098 46.5517 35.9652 47.5994 36.138C49.5202 36.6564 51.6156 37.002 53.5364 36.6564C55.2826 36.4836 56.8542 37.002 58.6004 37.3476V37.5204C58.2512 37.866 57.7273 38.3845 57.378 38.7301C55.9811 39.767 54.9334 39.7669 53.1872 39.7669C51.0918 39.7669 48.9964 39.9398 47.0756 40.2854C46.2025 40.4582 46.5517 41.8406 47.4248 41.6678C48.6471 41.495 49.8694 41.3222 51.0918 41.1494C52.4887 41.1494 53.7111 41.3222 55.108 41.3222C57.0288 41.1494 58.775 39.5941 59.9973 38.0388L60.1719 37.8661H75.0145V73.6375V83.3148C75.0145 86.2525 84.0946 86.2525 84.0946 83.3148V35.7923H91.254C91.254 35.7923 91.254 35.9651 91.4286 35.9651C92.6509 37.3476 94.3971 38.9029 96.3179 39.2485C97.5402 39.4213 98.9372 39.0757 100.334 39.0757C101.556 39.0757 102.779 39.2485 104.001 39.5941C104.176 39.767 104.525 38.3844 103.652 38.2116Z" fill="#456B8E"></path><g opacity="0.2"><g opacity="0.2"><g opacity="0.2"><path opacity="0.2" d="M80.5295 6.20244V71.697V81.0286C80.5295 82.0655 82.1011 82.0655 82.1011 81.0286V15.5341V6.20244C81.9265 5.16559 80.5295 5.16559 80.5295 6.20244Z" fill="white"></path></g></g></g><path d="M104.102 31.9509C102.879 32.1237 101.657 32.2965 100.435 32.4693C99.0378 32.4693 97.8155 32.2965 96.4186 32.2965C94.4978 32.4693 92.7516 34.0246 91.5292 35.5799L91.3546 35.7527H74.9405V13.9788V4.30146C74.9405 1.36371 65.8604 1.36371 65.8604 4.30146V40.4185H61.8441C61.8441 40.4185 61.8441 40.2457 61.6695 40.2457C60.4472 38.8633 58.701 37.3079 56.7802 36.9623C55.5579 36.7895 54.161 37.1351 52.764 37.1351C51.5417 37.1351 50.3193 36.9623 49.097 36.6167C48.2239 36.4439 47.7001 37.8264 48.7478 37.9992C50.6686 38.3448 52.764 38.6904 54.8594 38.5176C56.6056 38.5176 57.6533 38.5176 59.0502 39.5544C59.5741 39.9001 59.9233 40.2457 60.2726 40.7641C60.2726 40.7641 60.2726 40.7641 60.2726 40.9369C58.5264 41.4554 56.9549 41.801 55.3833 41.6282C53.4625 41.4554 51.367 41.6282 49.4462 42.1466C48.5731 42.4922 48.9224 43.8747 49.7955 43.5291C50.494 43.3563 51.1924 43.1834 51.8909 43.0106C52.5894 42.8378 53.2878 42.8379 53.9863 42.8379C54.6848 42.8379 55.5579 43.1834 56.2564 43.1834C57.4787 43.1834 58.8756 42.665 60.0979 42.3194C59.7487 42.8378 59.2249 43.5291 58.8757 44.0475C57.3041 46.6396 55.7325 48.5405 52.9386 49.923C52.0655 50.4414 52.764 51.6511 53.6371 51.1327C55.9071 49.923 57.8279 48.5405 59.0502 46.294C59.9233 44.9116 60.7964 43.3562 61.8441 42.1466H65.6858V73.0794V82.7567C65.6858 85.6944 74.7659 85.6944 74.7659 82.7567V37.4808H91.0054C92.0531 38.6904 92.9262 40.2457 93.7993 41.6282C95.1963 43.7019 97.117 45.2571 99.2124 46.4668C100.086 46.9852 100.784 45.6028 99.9109 45.2572C97.1171 43.8747 95.5454 41.9738 93.9739 39.3817C93.6246 38.8633 93.2754 38.172 92.7516 37.6536C93.9739 37.9992 95.3708 38.5176 96.5932 38.5176C97.2916 38.5176 97.9901 38.172 98.8632 38.172C99.5617 38.172 100.26 38.172 100.959 38.3448C101.657 38.5176 102.356 38.6904 103.054 38.8632C103.927 39.2088 104.451 37.6536 103.403 37.4808C101.483 36.9623 99.387 36.6167 97.4662 36.9623C95.7201 37.1351 94.1485 36.6167 92.4023 36.2711V36.0983C92.7516 35.7526 93.2754 35.2343 93.6247 34.8886C95.0216 33.8518 96.0693 33.8518 97.8155 33.8518C99.9109 33.8518 102.006 33.679 103.927 33.3334C105.499 33.1606 105.149 31.6052 104.102 31.9509Z" fill="#F58887"></path><g opacity="0.2"><g opacity="0.2"><g opacity="0.2"><path opacity="0.2" d="M71.354 6.41485V71.9094V81.241C71.354 82.2779 72.9256 82.2779 72.9256 81.241V15.7465V6.41485C72.9256 5.37799 71.354 5.37799 71.354 6.41485Z" fill="white"></path></g></g></g><path d="M63.58 85.3999V60.3427C63.58 54.4672 63.9292 48.7645 61.4845 43.0618C58.8653 36.6678 53.8014 32.002 47.1659 29.7555C45.9435 29.4099 45.4197 31.138 46.642 31.6564C55.8968 34.767 61.4846 43.4074 61.6592 52.9119C61.8338 60.5155 61.6592 67.9463 61.6592 75.5499V85.5728C61.6592 86.7824 63.58 86.7824 63.58 85.3999Z" fill="#E3A400"></path><path d="M88.547 85.3993V62.0701C88.547 56.713 88.0231 51.1832 89.5947 45.9989C91.6901 39.0866 96.5794 33.9023 103.564 31.483C104.786 31.1374 104.263 29.2365 103.04 29.5821C93.0871 32.8655 86.9754 41.8515 86.6262 52.0472C86.4516 59.478 86.6262 66.9088 86.6262 74.1667V85.2265C86.6262 86.7818 88.547 86.7818 88.547 85.3993Z" fill="#E3A400"></path><path d="M34.6842 1.9217C41.1451 -0.670429 53.3684 1.92171 56.6861 13.3271C59.6546 23.1772 52.3207 26.2878 49.876 28.8799C47.0821 31.6448 46.5582 41.4949 50.7491 43.223C54.9399 44.9511 60.3531 50.8266 59.6546 58.4302C58.9561 66.0338 54.2414 74.5014 39.7481 72.0821C25.2548 69.6628 16 50.8266 16 38.3844C16 25.9421 22.9848 6.76035 34.6842 1.9217Z" fill="#DA6B52"></path><g opacity="0.5"><g opacity="0.5"><g opacity="0.5"><path opacity="0.5" d="M44.9832 40.2854C44.9832 40.2854 44.8087 40.2854 44.4594 40.2854C44.1102 40.2854 43.5863 40.2854 43.0624 40.4583C42.5386 40.4583 41.8401 40.631 41.3163 40.8038C40.967 40.8038 40.6178 40.9767 40.2686 40.9767C39.9193 40.9767 39.5701 41.1495 39.2209 41.1495C38.8716 41.1495 38.5224 41.3223 38.1731 41.3223C37.8239 41.4951 37.4747 41.4951 37.1254 41.6679C36.7762 41.8407 36.4269 41.8407 36.2523 42.0135C35.9031 42.0135 35.7285 42.1863 35.3792 42.3591C35.03 42.3591 34.8554 42.5319 34.6808 42.5319C34.5062 42.5319 34.3316 42.7047 34.1569 42.7047C33.8077 42.8776 33.6331 42.8776 33.6331 42.8776C33.6331 42.8776 33.8077 42.7047 33.9823 42.5319C34.1569 42.3591 34.5062 41.8407 35.03 41.4951C35.2047 41.3223 35.5539 41.1495 35.7285 40.9767C36.0777 40.8038 36.2524 40.6311 36.6016 40.4583C36.9508 40.2854 37.3001 40.1126 37.6493 39.9398C37.9985 39.767 38.3477 39.767 38.697 39.5942C39.0462 39.5942 39.3955 39.4214 39.9193 39.4214C40.2686 39.4214 40.6178 39.4214 41.1417 39.4214C41.8401 39.4214 42.5386 39.5942 43.0624 39.767C43.4117 39.767 43.5863 39.9398 43.761 40.1126C43.9356 40.1126 44.1102 40.2854 44.2848 40.4583C44.8086 40.1126 44.9832 40.2854 44.9832 40.2854Z" fill="black"></path></g></g></g><g opacity="0.5"><g opacity="0.5"><g opacity="0.5"><path opacity="0.5" d="M44.8065 29.5715C44.8065 29.5715 44.6319 29.5715 44.2827 29.3987C43.9334 29.3987 43.5842 29.2259 42.8857 29.0531C42.3619 28.8803 41.6634 28.8803 41.1396 28.7075C40.7903 28.7075 40.4411 28.7075 40.0918 28.5346C39.7426 28.5346 39.3934 28.5347 39.0441 28.3619C38.6949 28.3619 38.3456 28.3619 37.9964 28.3619C37.6472 28.3619 37.2979 28.3619 36.9487 28.3619C36.5994 28.3619 36.2502 28.3619 35.901 28.3619C35.5518 28.3619 35.3772 28.3619 35.0279 28.3619C34.6787 28.3619 34.504 28.3619 34.3294 28.3619C34.1548 28.3619 33.9802 28.3619 33.8056 28.3619C33.4563 28.3619 33.2817 28.3619 33.2817 28.3619C33.2817 28.3619 33.4563 28.189 33.8056 28.0162C34.1548 27.8434 34.5041 27.4978 35.0279 27.325C35.3772 27.1522 35.5518 27.1522 35.901 26.9794C36.2502 26.9794 36.5994 26.8066 36.9487 26.8066C37.2979 26.8066 37.6472 26.8066 37.9964 26.6338C38.3456 26.6338 38.6949 26.6338 39.2188 26.6338C39.568 26.6338 40.0918 26.6337 40.441 26.8066C40.7903 26.8066 41.1395 26.9794 41.4888 27.1522C42.1872 27.325 42.8857 27.6706 43.235 28.0162C43.4096 28.189 43.7588 28.3618 43.9334 28.5346C44.108 28.7075 44.2827 28.8803 44.4573 28.8803C44.8065 29.3987 44.8065 29.5715 44.8065 29.5715Z" fill="black"></path></g></g></g><g opacity="0.5"><g opacity="0.5"><g opacity="0.5"><path d="M30.8363 7.62546C30.8363 7.62546 30.6617 7.79824 30.3125 8.14386C29.9633 8.48948 29.614 9.00789 29.0902 9.69913C28.5663 10.3904 28.0425 11.2544 27.5186 12.2913C26.9947 13.3281 26.2963 14.5378 25.5978 15.7474C25.2485 16.4387 24.8994 17.1299 24.5501 17.8212C24.2009 18.5124 23.8516 19.2036 23.5024 20.0677C22.8039 21.6229 22.2801 23.1782 21.7562 24.9063C21.5816 25.252 21.407 25.7704 21.407 26.2888C21.2323 26.8072 21.2324 27.1528 21.0578 27.6712C20.8831 28.5353 20.7085 29.5721 20.5339 30.4362C20.3592 30.9546 20.3592 31.3003 20.3592 31.8187C20.3592 32.3371 20.1847 32.6827 20.1847 33.2011C20.1847 33.7196 20.1847 34.0652 20.1847 34.5836V35.2749C20.1847 35.4477 20.1847 35.6204 20.1847 35.6204V35.9661C20.1847 37.0029 20.1846 37.867 20.3592 38.9038C20.3592 39.4222 20.3592 39.7679 20.5339 40.2863C20.5339 40.8047 20.7085 41.1503 20.7085 41.6688C20.7085 42.1872 20.8831 42.5328 20.8831 43.0513C20.8831 43.5697 21.0578 43.9153 21.0578 44.4337C21.2324 45.2978 21.407 46.1618 21.7562 47.0258C21.9308 47.5443 21.9308 47.8899 22.1054 48.2355C22.28 48.5811 22.4547 49.0995 22.4547 49.4452C22.6293 50.3092 22.9785 51.0004 23.3278 51.8645C24.0262 53.4197 24.7247 54.8022 25.4232 56.1847C25.5978 56.5303 25.7724 56.8759 25.947 57.0487C26.1217 57.3943 26.2963 57.5672 26.4709 57.9128C26.8201 58.4312 27.1694 58.9497 27.5186 59.4681C27.8678 59.9865 28.2171 60.3321 28.3917 60.8505C28.7409 61.1962 28.9155 61.7146 29.2648 62.0602C29.614 62.4058 29.7886 62.7515 29.9632 62.9243C30.1379 63.0971 30.3125 63.4427 30.4871 63.6155C30.8364 63.9611 31.011 64.1339 31.011 64.1339C31.011 64.1339 30.8364 63.9611 30.4871 63.6155C30.1379 63.2699 29.614 62.9242 29.0902 62.233C28.7409 61.8874 28.3917 61.5418 28.0425 61.1962C27.6932 60.8506 27.344 60.3321 26.9948 59.9865C26.6455 59.4681 26.1217 58.9497 25.7724 58.4312C25.5978 58.0856 25.4232 57.9128 25.074 57.5672C24.8993 57.2216 24.7247 56.8759 24.5501 56.7031C23.677 55.4935 22.9785 54.111 22.1054 52.5557C21.4069 51.0005 20.7085 49.2723 20.1847 47.5442C19.8354 46.6802 19.6608 45.6434 19.4861 44.7793C19.3115 43.9153 19.1369 42.8784 18.9623 41.8416C18.9623 41.3232 18.7877 40.8047 18.7877 40.2863C18.7877 39.7679 18.6131 39.2495 18.6131 38.731C18.4384 37.6942 18.4385 36.8301 18.4385 35.7933V35.4476C18.4385 35.2748 18.4385 35.102 18.4385 35.102V34.4108C18.4385 33.8924 18.4385 33.3739 18.4385 32.8555C18.4385 32.3371 18.6131 31.8187 18.6131 31.3002C18.6131 30.7818 18.7877 30.2634 18.7877 29.745C18.9623 29.2265 18.9623 28.7081 19.1369 28.3625C19.3116 27.8441 19.3115 27.4984 19.4861 26.98C19.6608 26.4616 19.6608 26.116 19.8354 25.5976C20.01 25.0791 20.1846 24.7335 20.3592 24.2151C20.8831 22.487 21.7562 20.7589 22.4547 19.2036C22.8039 18.5124 23.1532 17.6484 23.677 16.9571C24.0263 16.2659 24.5501 15.5746 24.8993 14.8834C26.4709 12.2913 28.0424 10.3904 29.0902 9.00791C29.614 8.31667 30.1379 7.79825 30.4871 7.45264C30.6617 7.79825 30.8363 7.62546 30.8363 7.62546Z" fill="black"></path></g></g></g><path d="M115.35 1.92219C108.889 -0.669941 96.6657 1.9222 93.348 13.3276C90.3794 23.1777 97.7134 26.2882 100.158 28.8804C102.952 31.6453 103.476 41.4954 99.285 43.2235C95.0941 44.9516 89.681 50.8271 90.3794 58.4307C91.0779 66.0343 95.7926 74.5019 110.286 72.0826C124.779 69.6632 134.034 50.8271 134.034 38.3849C134.034 25.9426 127.049 6.76084 115.35 1.92219Z" fill="#DA6B52"></path><g opacity="0.5"><g opacity="0.5"><g opacity="0.5"><path opacity="0.5" d="M105.051 40.2854C105.051 40.2854 105.225 40.2854 105.575 40.2854C105.924 40.2854 106.448 40.2854 106.972 40.4583C107.495 40.4583 108.194 40.631 108.718 40.8038C109.067 40.8038 109.416 40.9767 109.765 40.9767C110.115 40.9767 110.464 41.1495 110.813 41.1495C111.162 41.1495 111.512 41.3223 111.861 41.3223C112.21 41.4951 112.559 41.4951 112.909 41.6679C113.258 41.8407 113.607 41.8407 113.782 42.0135C114.131 42.0135 114.306 42.1863 114.655 42.3591C115.004 42.3591 115.179 42.5319 115.353 42.5319C115.528 42.5319 115.703 42.7047 115.877 42.7047C116.226 42.8776 116.401 42.8776 116.401 42.8776C116.401 42.8776 116.226 42.7047 116.052 42.5319C115.877 42.3591 115.528 41.8407 115.004 41.4951C114.829 41.3223 114.48 41.1495 114.306 40.9767C113.956 40.8038 113.782 40.6311 113.432 40.4583C113.083 40.2854 112.734 40.1126 112.385 39.9398C112.036 39.767 111.686 39.767 111.337 39.5942C110.988 39.5942 110.639 39.4214 110.115 39.4214C109.766 39.4214 109.416 39.4214 108.892 39.4214C108.194 39.4214 107.495 39.5942 106.972 39.767C106.622 39.767 106.448 39.9398 106.273 40.1126C106.099 40.1126 105.924 40.2854 105.749 40.4583C105.225 40.1126 105.051 40.2854 105.051 40.2854Z" fill="black"></path></g></g></g><g opacity="0.5"><g opacity="0.5"><g opacity="0.5"><path opacity="0.5" d="M105.225 29.5715C105.225 29.5715 105.399 29.5715 105.748 29.3987C106.098 29.3987 106.447 29.2259 107.145 29.0531C107.669 28.8803 108.368 28.8803 108.892 28.7075C109.241 28.7075 109.59 28.7075 109.939 28.5346C110.289 28.5346 110.638 28.5347 110.987 28.3619C111.336 28.3619 111.685 28.3619 112.035 28.3619C112.384 28.3619 112.733 28.3619 113.082 28.3619C113.432 28.3619 113.781 28.3619 114.13 28.3619C114.479 28.3619 114.654 28.3619 115.003 28.3619C115.352 28.3619 115.527 28.3619 115.702 28.3619C115.876 28.3619 116.051 28.3619 116.226 28.3619C116.575 28.3619 116.749 28.3619 116.749 28.3619C116.749 28.3619 116.575 28.189 116.226 28.0162C115.876 27.8434 115.527 27.4978 115.003 27.325C114.654 27.1522 114.479 27.1522 114.13 26.9794C113.781 26.9794 113.432 26.8066 113.082 26.8066C112.733 26.8066 112.384 26.8066 112.035 26.6338C111.685 26.6338 111.336 26.6338 110.812 26.6338C110.463 26.6338 109.939 26.6337 109.59 26.8066C109.241 26.8066 108.892 26.9794 108.542 27.1522C107.844 27.325 107.145 27.6706 106.796 28.0162C106.622 28.189 106.272 28.3618 106.098 28.5346C105.923 28.7075 105.748 28.8803 105.574 28.8803C105.225 29.3987 105.225 29.5715 105.225 29.5715Z" fill="black"></path></g></g></g><g opacity="0.5"><g opacity="0.5"><g opacity="0.5"><path d="M119.198 7.62448C119.198 7.62448 119.373 7.79727 119.722 8.14288C120.071 8.4885 120.421 9.00692 120.944 9.69815C121.468 10.3894 121.992 11.2534 122.516 12.2903C123.04 13.3271 123.738 14.5368 124.437 15.7465C124.786 16.4377 125.135 17.129 125.485 17.8202C125.834 18.5114 126.183 19.2026 126.532 20.0667C127.231 21.622 127.755 23.1773 128.278 24.9054C128.453 25.251 128.628 25.7694 128.628 26.2878C128.802 26.8062 128.802 27.1518 128.977 27.6703C129.152 28.5343 129.326 29.5712 129.501 30.4352C129.675 30.9536 129.675 31.2993 129.675 31.8177C129.675 32.3361 129.85 32.6817 129.85 33.2002C129.85 33.7186 129.85 34.0642 129.85 34.5826V35.2739C129.85 35.4467 129.85 35.6195 129.85 35.6195V35.9651C129.85 37.002 129.85 37.866 129.675 38.9028C129.675 39.4213 129.675 39.7669 129.501 40.2853C129.501 40.8038 129.326 41.1494 129.326 41.6678C129.326 42.1862 129.152 42.5319 129.152 43.0503C129.152 43.5687 128.977 43.9143 128.977 44.4327C128.802 45.2968 128.628 46.1608 128.278 47.0249C128.104 47.5433 128.104 47.8889 127.929 48.2345C127.755 48.5802 127.58 49.0986 127.58 49.4442C127.405 50.3082 127.056 50.9994 126.707 51.8635C126.008 53.4188 125.31 54.8012 124.611 56.1837C124.437 56.5293 124.262 56.8749 124.088 57.0478C123.913 57.3934 123.738 57.5662 123.564 57.9118C123.215 58.4302 122.865 58.9487 122.516 59.4671C122.167 59.9855 121.818 60.3311 121.643 60.8496C121.294 61.1952 121.119 61.7136 120.77 62.0592C120.421 62.4049 120.246 62.7505 120.071 62.9233C119.897 63.0961 119.722 63.4417 119.548 63.6145C119.198 63.9601 119.024 64.1329 119.024 64.1329C119.024 64.1329 119.198 63.9601 119.548 63.6145C119.897 63.2689 120.421 62.9232 120.944 62.232C121.294 61.8864 121.643 61.5408 121.992 61.1952C122.341 60.8496 122.691 60.3311 123.04 59.9855C123.389 59.4671 123.913 58.9487 124.262 58.4303C124.437 58.0846 124.612 57.9118 124.961 57.5662C125.135 57.2206 125.31 56.875 125.485 56.7022C126.358 55.4925 127.056 54.11 127.929 52.5548C128.628 50.9995 129.326 49.2714 129.85 47.5433C130.199 46.6792 130.374 45.6424 130.548 44.7784C130.723 43.9143 130.898 42.8775 131.072 41.8406C131.072 41.3222 131.247 40.8038 131.247 40.2853C131.247 39.7669 131.422 39.2485 131.422 38.7301C131.596 37.6932 131.596 36.8291 131.596 35.7923V35.4467C131.596 35.2738 131.596 35.1011 131.596 35.1011V34.4098C131.596 33.8914 131.596 33.3729 131.596 32.8545C131.596 32.3361 131.422 31.8177 131.422 31.2993C131.422 30.7808 131.247 30.2624 131.247 29.744C131.072 29.2256 131.072 28.7072 130.898 28.3615C130.723 27.8431 130.723 27.4975 130.548 26.979C130.374 26.4606 130.374 26.115 130.199 25.5966C130.025 25.0782 129.85 24.7325 129.675 24.2141C129.152 22.486 128.278 20.7579 127.58 19.2026C127.231 18.5114 126.882 17.6474 126.358 16.9561C126.008 16.2649 125.485 15.5737 125.135 14.8824C123.564 12.2903 121.992 10.3894 120.944 9.00693C120.421 8.31569 119.897 7.79728 119.548 7.45166C119.373 7.79728 119.198 7.62448 119.198 7.62448Z" fill="black"></path></g></g></g></g></svg>