<svg width="136" height="136" viewBox="0 0 136 136" fill="none" xmlns="http://www.w3.org/2000/svg">
<circle cx="68" cy="68" r="68" fill="#055098"/>
<path fill-rule="evenodd" clip-rule="evenodd" d="M67 14.6482C37.5734 14.6482 13.7185 38.3108 13.7185 67.5C13.7185 96.6893 37.5734 120.352 67 120.352C96.4266 120.352 120.282 96.6893 120.282 67.5C120.282 38.3108 96.4266 14.6482 67 14.6482ZM5 67.5C5 33.5345 32.7583 6 67 6C101.242 6 129 33.5345 129 67.5C129 101.466 101.242 129 67 129C32.7584 129 5 101.466 5 67.5Z" fill="white"/>
<path d="M77.0118 47.027C77.0118 50.6237 74.2689 53.8116 70.2353 55.283C70.2353 55.283 69.0252 56.5092 68.7832 58.3892C68.5412 60.2693 69.9126 61.5772 69.9126 61.5772C69.9126 61.5772 66.6857 60.6781 65.7983 58.8797C64.8303 57.0814 65.1529 56.1822 65.1529 56.1822C58.5378 56.1822 53.2134 52.0951 53.2134 47.027C53.2134 41.9589 58.5378 37.8718 65.1529 37.8718C71.6067 37.8718 77.0118 41.9589 77.0118 47.027ZM84.2723 57.5718C86.2084 54.3838 87.1765 50.8689 87.1765 46.9452C87.1765 44.4929 86.6924 42.1224 85.7244 39.7519C84.7563 37.3813 83.4655 35.256 81.7714 33.2942C80.0773 31.4141 78.1412 29.861 75.8017 28.7166C73.4622 27.5722 70.9613 27 68.2185 27H42V86.9992H53.5361V66.8905H64.9916C64.9916 66.8905 73.8655 81.9312 74.4303 82.6669C77.8992 87.1627 83.3042 86.9992 83.3042 86.9992H90L76.5277 64.4382C79.7546 63.0486 82.3361 60.7598 84.2723 57.5718Z" fill="white"/>
<path d="M83.2031 99.3495H82.713V101.097H81.9779V101.534H82.713V104.068V104.155C82.713 104.417 82.713 104.68 82.713 104.767C82.713 104.854 82.7947 105.117 82.7947 105.379C82.8764 105.641 82.9581 105.903 83.1214 105.99C83.2031 106.078 83.2848 106.165 83.3664 106.165C83.4481 106.252 83.5298 106.252 83.6115 106.34C83.6932 106.34 83.7748 106.427 83.8565 106.427C83.9382 106.427 84.0199 106.427 84.1015 106.427C84.1832 106.427 84.2649 106.427 84.3466 106.427C84.4283 106.427 84.5099 106.427 84.5099 106.427C84.5916 106.427 84.5916 106.427 84.6733 106.427C84.755 106.427 84.755 106.427 84.8366 106.427H84.9183H85V105.99C84.3466 106.252 83.7748 106.165 83.5298 105.816C83.4481 105.728 83.4481 105.641 83.3664 105.553C83.3664 105.466 83.2848 105.379 83.2848 105.291C83.2848 105.204 83.2848 105.116 83.2848 105.029C83.2848 104.942 83.2848 104.854 83.2848 104.767C83.2848 104.68 83.2848 104.592 83.2848 104.505C83.2848 104.33 83.2848 104.243 83.2848 104.243V104.155V101.621H85V101.184H83.2848V99.3495H83.2031ZM80.9161 106.165C80.7528 106.252 80.5894 106.34 80.5077 106.427C80.181 106.602 79.8543 106.689 79.4459 106.689C79.0375 106.689 78.7108 106.602 78.3841 106.427C78.0574 106.252 77.8124 106.078 77.5673 105.816C77.3223 105.553 77.1589 105.291 76.9956 104.942C76.8322 104.592 76.8322 104.243 76.8322 103.893C76.8322 103.544 76.9139 103.107 76.9956 102.845C77.1589 102.495 77.3223 102.233 77.5673 101.971C77.8124 101.709 78.0574 101.534 78.3841 101.359C78.7108 101.184 79.0375 101.097 79.4459 101.097C79.8543 101.097 80.181 101.184 80.5077 101.359C80.5077 101.359 80.5894 101.447 80.7528 101.534C80.8344 101.621 80.9161 101.621 80.9161 101.709L80.7528 102.146C80.5894 102.058 80.426 101.883 80.2627 101.796C80.0177 101.709 79.7726 101.621 79.4459 101.621C79.1192 101.621 78.8742 101.709 78.6291 101.796C78.3841 101.883 78.1391 102.058 77.9757 102.32C77.8124 102.495 77.649 102.757 77.5673 103.019C77.4856 103.282 77.404 103.631 77.404 103.893C77.404 104.243 77.4856 104.505 77.5673 104.854C77.649 105.116 77.8124 105.379 77.9757 105.641C78.1391 105.815 78.3841 105.99 78.6291 106.165C78.8742 106.252 79.1192 106.34 79.4459 106.34C79.7726 106.34 80.0177 106.252 80.2627 106.165C80.426 106.078 80.5894 105.99 80.6711 105.903L80.9161 106.165ZM73.4018 101.447C73.4834 101.447 73.5651 101.447 73.6468 101.447C73.7285 101.447 73.8102 101.534 73.9735 101.534C74.1369 101.534 74.2185 101.709 74.3002 101.796C74.3819 101.883 74.4636 102.058 74.6269 102.146C74.7086 102.32 74.7903 102.495 74.872 102.757C74.9536 103.107 75.0353 103.369 75.0353 103.456H71.3598C71.3598 103.194 71.4415 103.019 71.5232 102.757C71.6049 102.495 71.7682 102.233 71.9316 102.058C72.0949 101.883 72.34 101.709 72.585 101.534C72.83 101.534 73.0751 101.447 73.4018 101.447ZM75.5254 103.981C75.5254 103.544 75.4437 103.107 75.362 102.757C75.2804 102.408 75.117 102.058 74.9536 101.884C74.7903 101.709 74.6269 101.447 74.3819 101.359C74.2185 101.184 73.9735 101.097 73.8102 101.01C73.6468 100.922 73.4834 100.922 73.3201 100.922C72.9117 100.922 72.585 101.01 72.2583 101.184C71.9316 101.359 71.6865 101.534 71.4415 101.796C71.1965 102.058 71.0331 102.32 70.8698 102.67C70.7064 103.019 70.7064 103.369 70.7064 103.718C70.7064 104.068 70.7881 104.505 70.8698 104.767C71.0331 105.116 71.1965 105.379 71.4415 105.641C71.6865 105.903 71.9316 106.078 72.2583 106.252C72.585 106.427 72.9117 106.515 73.3201 106.515C73.7285 106.515 74.0552 106.427 74.3819 106.252C74.4636 106.252 74.5453 106.165 74.6269 106.078V105.466C74.4636 105.553 74.3819 105.641 74.2185 105.728C73.9735 105.815 73.6468 105.903 73.4018 105.903C73.0751 105.903 72.83 105.815 72.585 105.728C72.34 105.641 72.0949 105.466 71.9316 105.204C71.7682 105.029 71.6049 104.767 71.5232 104.417C71.4415 104.155 71.3598 103.981 71.3598 103.718H75.5254V103.981ZM64.7439 101.097H65.234V102.233C65.3974 101.971 65.7241 101.621 66.1324 101.359C66.5408 101.097 66.9492 100.922 67.2759 100.922C67.521 100.922 67.8477 101.01 68.0927 101.097C68.3378 101.184 68.6645 101.359 68.8278 101.534C69.0728 101.709 69.2362 101.971 69.4812 102.32C69.6446 102.67 69.7263 103.019 69.8079 103.369C69.8896 104.243 69.6446 104.942 69.2362 105.553C68.7461 106.165 68.1744 106.515 67.4393 106.515C67.1943 106.515 66.8676 106.427 66.6225 106.34C66.3775 106.252 66.1324 106.078 65.9691 105.99C65.8057 105.816 65.6424 105.728 65.5607 105.553C65.479 105.466 65.3973 105.291 65.3157 105.204V108H64.8256V101.097H64.7439ZM65.234 104.854C65.234 104.854 65.234 104.942 65.3157 105.029C65.3973 105.116 65.3973 105.204 65.479 105.291C65.5607 105.379 65.6424 105.466 65.7241 105.553C65.8057 105.641 65.9691 105.728 66.1324 105.816C66.2958 105.903 66.4592 105.99 66.7042 105.99C66.9492 106.078 67.1943 106.078 67.4393 106.078C67.8477 106.078 68.2561 105.903 68.5011 105.641C68.8278 105.379 68.9912 105.029 69.1545 104.592C69.2362 104.155 69.3179 103.718 69.2362 103.282C69.1545 102.845 69.0728 102.408 68.8278 102.146C68.5011 101.709 68.0927 101.534 67.6843 101.359C67.1943 101.272 66.7859 101.272 66.2958 101.534C65.8874 101.709 65.5607 102.058 65.3157 102.495V103.544V104.854H65.234ZM63.2737 101.621L63.0287 101.534C62.8653 101.447 62.702 101.359 62.457 101.272C62.2119 101.184 61.9669 101.097 61.7219 101.097C61.3135 101.01 60.9051 101.097 60.5784 101.272C60.17 101.447 60.0066 101.796 59.8433 102.146C59.7616 102.582 59.7616 102.932 60.0066 103.282C60.2517 103.631 60.5784 103.806 61.0684 103.981C61.3951 104.068 61.7219 104.155 61.9669 104.243C62.2119 104.33 62.3753 104.417 62.6203 104.592C62.7837 104.767 62.8653 104.942 62.8653 105.116C62.8653 105.466 62.7837 105.728 62.5386 105.903C62.2936 106.078 62.0486 106.252 61.5585 106.252C61.3135 106.252 60.9868 106.165 60.66 106.078C60.3333 105.99 60.17 105.815 60.0066 105.728C59.9249 105.641 59.7616 105.553 59.7616 105.553L59.5166 105.99C59.5982 106.078 59.7616 106.252 60.0883 106.34C60.3333 106.427 60.66 106.602 60.9867 106.602C61.3135 106.689 61.6402 106.689 61.9669 106.602C62.2936 106.602 62.6203 106.427 62.8653 106.165C63.1104 105.903 63.2737 105.553 63.2737 105.116C63.2737 104.767 63.2737 104.505 63.1104 104.243C62.947 103.981 62.702 103.806 62.457 103.718C62.2119 103.631 61.8852 103.456 61.5585 103.369C61.2318 103.282 60.9868 103.194 60.7417 103.019C60.4967 102.932 60.3333 102.757 60.2517 102.582C60.17 102.408 60.17 102.146 60.3333 101.884C60.4967 101.621 60.66 101.534 60.9051 101.447C61.1501 101.359 61.3951 101.359 61.5585 101.359C61.8035 101.359 61.9669 101.447 62.2119 101.534C62.4569 101.621 62.6203 101.709 62.702 101.709C62.7837 101.796 62.8653 101.796 62.8653 101.796L63.2737 101.621ZM56.7395 101.447C56.8212 101.447 56.9029 101.447 56.9845 101.447C57.0662 101.447 57.1479 101.534 57.3113 101.534C57.4746 101.621 57.5563 101.709 57.638 101.796C57.7196 101.883 57.8013 102.058 57.9647 102.146C58.0464 102.32 58.128 102.495 58.2097 102.757C58.2914 103.107 58.3731 103.369 58.3731 103.456H54.6976C54.6976 103.194 54.7792 103.019 54.8609 102.757C54.9426 102.495 55.106 102.233 55.2693 102.058C55.4327 101.883 55.6777 101.709 55.9227 101.534C56.0861 101.534 56.3311 101.447 56.7395 101.447C56.6578 101.447 56.6578 101.447 56.7395 101.447ZM58.7815 103.981C58.7815 103.544 58.6998 103.107 58.6181 102.757C58.5364 102.408 58.3731 102.058 58.2097 101.884C58.0464 101.709 57.883 101.447 57.638 101.359C57.4746 101.184 57.2296 101.097 57.0662 101.01C56.9029 100.922 56.7395 100.922 56.5762 100.922C56.1678 100.922 55.8411 101.01 55.5143 101.184C55.1876 101.359 54.9426 101.534 54.6976 101.796C54.4525 102.058 54.2892 102.32 54.1258 102.67C53.9625 103.019 53.9625 103.369 53.9625 103.718C53.9625 104.068 54.0441 104.505 54.1258 104.767C54.2892 105.116 54.4525 105.379 54.6976 105.641C54.9426 105.903 55.1876 106.078 55.5143 106.252C55.8411 106.427 56.1678 106.515 56.5762 106.515C56.9845 106.515 57.3113 106.427 57.638 106.252C57.7196 106.252 57.8013 106.165 57.883 106.078V105.466C57.7197 105.553 57.638 105.641 57.4746 105.728C57.2296 105.815 56.9029 105.903 56.6578 105.903C56.3311 105.903 56.0861 105.815 55.8411 105.728C55.596 105.641 55.351 105.466 55.1876 105.204C55.0243 105.029 54.8609 104.767 54.7793 104.417C54.6976 104.155 54.6159 103.981 54.6159 103.718H58.7815V103.981ZM52.1656 103.282C52.3289 103.369 52.4923 103.456 52.6556 103.631C52.819 103.806 52.9007 103.893 53.064 104.155C53.1457 104.33 53.2274 104.592 53.2274 104.854C53.2274 105.291 53.3091 105.903 53.3907 106.427H52.819V106.165C52.819 105.99 52.7373 105.816 52.7373 105.553C52.7373 105.291 52.7373 105.029 52.7373 104.854C52.7373 104.68 52.7373 104.592 52.6556 104.417C52.6556 104.33 52.574 104.155 52.4923 104.068C52.4106 103.981 52.4106 103.893 52.2472 103.806C52.1656 103.718 52.0839 103.631 52.0022 103.631C51.9205 103.544 51.8389 103.544 51.6755 103.544C51.5121 103.544 51.4305 103.456 51.3488 103.456C51.2671 103.456 51.1854 103.456 51.0221 103.369C50.8587 103.369 50.777 103.369 50.6954 103.369C50.6137 103.369 50.532 103.369 50.3686 103.369C50.2053 103.369 50.1236 103.369 50.1236 103.369H49.9603H48.4901V106.427H48V99H48.4084H48.4901H50.8587C51.0221 99 51.2671 99 51.4305 99.0874C51.5938 99.0874 51.8389 99.1748 52.0839 99.2622C52.3289 99.3496 52.574 99.4368 52.7373 99.6116C52.9007 99.7864 53.064 99.9612 53.2274 100.223C53.309 100.485 53.3907 100.748 53.3907 101.097C53.3907 101.709 53.2274 102.233 52.819 102.67C52.7373 102.757 52.574 102.845 52.3289 102.932C52.0839 103.019 51.8388 103.107 51.5938 103.194C51.7572 103.194 51.9205 103.282 52.1656 103.282ZM48.4901 102.932H50.6137C51.4305 102.932 52.0022 102.757 52.3289 102.495C52.6556 102.146 52.9007 101.709 52.9007 101.097C52.9007 100.66 52.7373 100.223 52.3289 99.9611C52.0022 99.699 51.5121 99.5242 51.0221 99.5242H48.5717V101.097V102.932H48.4901Z" fill="white"/>
<path fill-rule="evenodd" clip-rule="evenodd" d="M49.2045 102.662H50.9535C51.7307 102.662 52.2239 102.51 52.4808 102.329C52.7606 102.048 52.9501 101.719 52.9501 101.262C52.9501 100.938 52.8226 100.646 52.5248 100.469L52.5109 100.461L52.498 100.452C52.227 100.251 51.7994 100.107 51.366 100.107H49.2045V102.662ZM52.9789 103.195C53.0633 103.25 53.1507 103.318 53.2377 103.403C53.4101 103.573 53.5084 103.671 53.6894 103.939L53.7002 103.955L53.709 103.972C53.8061 104.164 53.9071 104.456 53.9071 104.761C53.9071 105.139 53.985 105.685 54.0678 106.175L53.7586 106.535H53.1811L52.8676 106.226V105.982C52.8676 105.944 52.8587 105.905 52.8367 105.808L52.8338 105.795C52.812 105.698 52.7851 105.569 52.7851 105.412V104.761C52.7851 104.674 52.7843 104.64 52.779 104.609C52.7751 104.585 52.7667 104.554 52.7357 104.493L52.7026 104.427V104.373C52.6992 104.363 52.6932 104.348 52.6841 104.33C52.6746 104.311 52.6637 104.293 52.6526 104.277C52.6412 104.26 52.6327 104.251 52.6294 104.248C52.5897 104.208 52.5619 104.171 52.5424 104.143C52.5307 104.126 52.5247 104.117 52.5205 104.111C52.5158 104.104 52.5132 104.1 52.5074 104.092C52.5029 104.086 52.5008 104.084 52.4983 104.082C52.4952 104.08 52.4856 104.072 52.4634 104.061L52.4179 104.039L52.3819 104.003C52.3606 103.982 52.3436 103.966 52.3273 103.951C52.3188 103.943 52.3116 103.936 52.3055 103.931H52.2262L52.1461 103.852C52.1404 103.852 52.1329 103.851 52.123 103.851C52.0984 103.85 52.069 103.85 52.0261 103.85C51.8867 103.85 51.7823 103.814 51.7137 103.787C51.6934 103.779 51.6824 103.775 51.6748 103.771C51.6721 103.77 51.6698 103.769 51.6677 103.768C51.626 103.768 51.5684 103.766 51.5005 103.752C51.436 103.74 51.3693 103.719 51.2964 103.687H49.122V106.226L48.8085 106.535H48.3135L48 106.226V99.3092L48.3135 99L51.2056 99C51.2862 99 51.4022 99 51.521 99.0117C51.6188 99.0213 51.7374 99.0404 51.851 99.0844C51.9556 99.0927 52.0635 99.1171 52.1601 99.1431C52.2818 99.1759 52.4121 99.2187 52.5324 99.2583L52.5377 99.26C52.547 99.2631 52.5565 99.2662 52.5662 99.2694C52.7924 99.3435 53.102 99.4449 53.3203 99.6601L53.3243 99.6641C53.4886 99.8262 53.672 100.007 53.8544 100.277L53.8777 100.311L53.8942 100.36C53.976 100.602 54.0721 100.886 54.0721 101.262C54.0721 101.898 53.8844 102.47 53.4027 102.946C53.3007 103.046 53.1505 103.127 52.9789 103.195ZM51.6532 103.763C51.6532 103.763 51.6536 103.763 51.6544 103.763ZM48.8085 103.069V102.971H48.627V103.248L48.8085 103.069ZM48.627 99.7486L48.759 99.6184H48.627V99.7486ZM83.063 99.6347L83.3765 99.3255H83.954L84.2675 99.6347V101.034H85.6865L86 101.344V101.75L85.6865 102.06H84.2675V105.136C84.2696 105.14 84.2722 105.145 84.2756 105.152L84.2773 105.155C84.2866 105.173 84.3034 105.207 84.3171 105.243C84.3209 105.253 84.3248 105.264 84.3286 105.276C84.3622 105.322 84.3833 105.364 84.3969 105.391L84.3994 105.396C84.42 105.437 84.4215 105.436 84.4232 105.438L84.4389 105.453L84.4523 105.471C84.5108 105.548 84.6276 105.621 84.8266 105.644C85.0246 105.668 85.283 105.638 85.5764 105.53L86 105.819V106.226L85.6865 106.535H84.5315C84.4595 106.535 84.3996 106.518 84.3595 106.503C84.3231 106.489 84.2894 106.473 84.2709 106.464L84.2675 106.462C84.2607 106.459 84.2555 106.456 84.2511 106.454H84.1541L84.0623 106.363C84.0622 106.363 84.0624 106.363 84.0623 106.363C84.0608 106.362 84.0579 106.359 84.0199 106.34L84.0149 106.337C83.9874 106.324 83.9447 106.303 83.897 106.269C83.8217 106.245 83.7628 106.207 83.7247 106.178C83.6768 106.143 83.6319 106.101 83.5968 106.067C83.4543 105.978 83.3678 105.843 83.3126 105.734C83.251 105.612 83.2037 105.472 83.1649 105.357L83.1455 105.3V105.25C83.1455 105.159 83.1298 105.061 83.1103 104.964C83.1055 104.941 83.1007 104.918 83.0958 104.895C83.0911 104.874 83.0862 104.851 83.0819 104.83C83.0752 104.796 83.063 104.736 83.063 104.68V101.978H82.634L82.3205 101.669V101.262L82.634 100.953H83.063V99.6347ZM83.6405 101.311L83.4837 101.466L83.69 101.669V101.702L83.8467 101.547L83.6405 101.344V101.311ZM56.9925 100.79C57.1496 100.79 57.3792 100.79 57.6113 100.904C57.6441 100.92 57.6819 100.937 57.7308 100.959L57.7358 100.961C57.7845 100.982 57.8417 101.008 57.9 101.036C57.9983 101.085 58.1131 101.149 58.2177 101.239C58.3753 101.306 58.4974 101.41 58.59 101.501C58.6437 101.554 58.6932 101.609 58.7351 101.655C58.7793 101.704 58.8142 101.743 58.8478 101.776C59.0673 101.992 59.2524 102.377 59.3428 102.733C59.4113 103.004 59.4831 103.34 59.508 103.694L59.5171 103.703V103.947H59.2036V104.013H55.3723C55.3799 104.034 55.3881 104.057 55.3969 104.081C55.4149 104.131 55.4354 104.188 55.4585 104.257L55.4623 104.268L55.4652 104.279C55.5326 104.545 55.6664 104.741 55.7953 104.868L55.8172 104.89L55.8345 104.915C55.9552 105.094 56.1412 105.219 56.3328 105.282C56.5802 105.363 56.7846 105.429 57.0586 105.429C57.2484 105.429 57.5279 105.364 57.7624 105.289C57.8165 105.261 57.8605 105.232 57.916 105.196L57.9192 105.194C57.9805 105.153 58.0559 105.104 58.1559 105.054L58.6096 105.331V106.029L58.5121 106.125C58.475 106.161 58.42 106.216 58.3605 106.26C58.3148 106.294 58.2392 106.342 58.141 106.363C57.7826 106.532 57.4173 106.617 56.9761 106.617C56.5153 106.617 56.1372 106.524 55.7634 106.34C55.4108 106.166 55.1336 105.985 54.8569 105.712C54.5802 105.439 54.3969 105.166 54.2207 104.818L54.2107 104.799L54.2037 104.778C54.1124 104.508 54.0226 104.068 54.0226 103.703C54.0226 103.697 54.0226 103.69 54.0226 103.683C54.0225 103.369 54.0224 102.98 54.2207 102.589C54.3969 102.241 54.5802 101.967 54.8569 101.694C55.1336 101.422 55.4109 101.241 55.7634 101.067C56.1372 100.883 56.5152 100.79 56.9761 100.79C56.9815 100.79 56.9869 100.79 56.9925 100.79ZM58.3934 103.15C58.372 103.073 58.3485 102.987 58.325 102.895C58.2637 102.716 58.203 102.586 58.1383 102.456C58.0524 102.397 57.9886 102.329 57.9418 102.274C57.917 102.244 57.8932 102.214 57.8753 102.191C57.8711 102.185 57.8672 102.18 57.8637 102.176C57.8416 102.148 57.8319 102.137 57.827 102.132C57.7632 102.069 57.7151 102.022 57.6309 101.974C57.5346 101.963 57.4596 101.937 57.4063 101.916C57.386 101.908 57.375 101.903 57.3674 101.9C57.3648 101.899 57.3625 101.898 57.3605 101.897H57.1411C56.9567 101.897 56.8089 101.915 56.6835 101.934C56.6624 101.937 56.64 101.941 56.6167 101.945C56.5544 101.955 56.4857 101.966 56.4201 101.972C56.1941 102.122 56.0033 102.252 55.8778 102.376C55.7431 102.509 55.6064 102.713 55.541 102.906C55.5179 102.974 55.4974 103.031 55.4794 103.081C55.4706 103.106 55.4624 103.129 55.4548 103.15H58.3934ZM54.8476 103.541L54.7651 103.459C54.7651 103.207 54.8396 103.004 54.9044 102.827C54.9192 102.787 54.9334 102.748 54.9462 102.711C54.9952 102.566 55.0668 102.423 55.1502 102.293C55.0089 102.459 54.8972 102.637 54.7815 102.865C54.6542 103.116 54.6496 103.37 54.6496 103.703C54.6496 103.981 54.7202 104.341 54.7918 104.562C54.9418 104.854 55.0868 105.064 55.3003 105.275C55.3274 105.302 55.3545 105.327 55.3817 105.352C55.3641 105.33 55.3469 105.307 55.3304 105.284C55.139 105.088 54.9552 104.807 54.8601 104.442C54.8483 104.407 54.8353 104.372 54.8219 104.335C54.7571 104.159 54.6826 103.956 54.6826 103.703L54.8476 103.541ZM57.3458 101.891C57.3457 101.891 57.3461 101.892 57.347 101.892ZM73.9052 100.79C74.0623 100.79 74.2919 100.79 74.5241 100.904C74.5568 100.92 74.5947 100.937 74.6435 100.959L74.6485 100.961C74.6972 100.982 74.7544 101.008 74.8128 101.036C74.911 101.085 75.0258 101.149 75.1304 101.239C75.288 101.306 75.4101 101.41 75.5028 101.501C75.5564 101.554 75.6059 101.609 75.6478 101.655C75.692 101.704 75.7269 101.743 75.7605 101.776C75.9801 101.992 76.1652 102.377 76.2555 102.733C76.3241 103.004 76.3958 103.34 76.4207 103.694L76.4299 103.703V103.947H76.1164V104.013H72.285C72.2926 104.034 72.3008 104.057 72.3097 104.081C72.3276 104.131 72.3482 104.188 72.3712 104.257L72.375 104.268L72.378 104.279C72.4454 104.545 72.5791 104.741 72.708 104.868L72.73 104.89L72.7472 104.915C72.8679 105.094 73.0539 105.219 73.2455 105.282C73.4929 105.363 73.6973 105.429 73.9713 105.429C74.1612 105.429 74.4406 105.364 74.6751 105.289C74.7293 105.261 74.7732 105.232 74.8288 105.196L74.832 105.194C74.8932 105.153 74.9687 105.104 75.0687 105.054L75.5224 105.331V106.029L75.4249 106.125C75.3877 106.161 75.3327 106.216 75.2733 106.26C75.2275 106.294 75.152 106.342 75.0537 106.363C74.6953 106.532 74.33 106.617 73.8888 106.617C73.428 106.617 73.05 106.524 72.6761 106.34C72.3236 106.166 72.0463 105.985 71.7696 105.712C71.4929 105.439 71.3097 105.166 71.1334 104.818L71.1234 104.799L71.1164 104.778C71.0252 104.508 70.9353 104.068 70.9353 103.703L70.9353 103.683C70.9352 103.369 70.9351 102.98 71.1334 102.589C71.3097 102.241 71.4929 101.967 71.7696 101.694C72.0463 101.422 72.3236 101.241 72.6761 101.067C73.0499 100.883 73.428 100.79 73.8888 100.79C73.8942 100.79 73.8996 100.79 73.9052 100.79ZM75.2236 103.15C75.2022 103.073 75.1786 102.987 75.1552 102.895C75.0939 102.716 75.0332 102.586 74.9685 102.456C74.8826 102.397 74.8188 102.329 74.7721 102.274C74.7472 102.244 74.7234 102.214 74.7055 102.191C74.7013 102.185 74.6974 102.18 74.6939 102.176C74.6718 102.148 74.6621 102.137 74.6572 102.132C74.6253 102.1 74.5956 102.064 74.577 102.041L74.572 102.035C74.5495 102.008 74.5358 101.992 74.5231 101.979C74.5226 101.979 74.5221 101.978 74.5217 101.978C74.3958 101.974 74.3006 101.941 74.2365 101.916C74.2162 101.908 74.2052 101.903 74.1976 101.9C74.195 101.899 74.1928 101.898 74.1907 101.897H73.9713C73.832 101.897 73.7079 101.914 73.5756 101.934C73.5651 101.936 73.5544 101.937 73.5435 101.939C73.4533 101.953 73.3516 101.968 73.2464 101.975C73.0221 102.123 72.8328 102.253 72.708 102.376C72.5733 102.509 72.4366 102.713 72.3712 102.906C72.3482 102.974 72.3276 103.031 72.3097 103.081C72.3008 103.106 72.2926 103.129 72.285 103.15H75.2236ZM71.7191 103.581L71.5953 103.703C71.5953 103.956 71.6699 104.159 71.7346 104.335C71.748 104.372 71.761 104.407 71.7728 104.442C71.8679 104.807 72.0518 105.088 72.2431 105.284C72.2597 105.307 72.2768 105.33 72.2944 105.352C72.2672 105.327 72.2401 105.302 72.213 105.275C71.9995 105.064 71.8545 104.854 71.7045 104.562C71.6329 104.341 71.5623 103.981 71.5623 103.703C71.5623 103.37 71.5669 103.116 71.6942 102.865C71.7217 102.811 71.7489 102.76 71.7764 102.711C71.7636 102.748 71.7494 102.787 71.7346 102.827C71.6699 103.004 71.5953 103.207 71.5953 103.459L71.7191 103.581ZM66.0936 104.785C66.1285 104.832 66.1502 104.875 66.1641 104.903L66.1666 104.908C66.1856 104.945 66.1883 104.948 66.19 104.949C66.1901 104.949 66.1899 104.949 66.19 104.949L66.4379 105.194C66.4484 105.204 66.4801 105.228 66.5471 105.266C66.6103 105.302 66.6846 105.338 66.7689 105.38C66.9314 105.46 67.0386 105.51 67.2062 105.51H67.2571L67.3054 105.526C67.4972 105.589 67.6942 105.591 67.9488 105.591C68.2882 105.591 68.6177 105.454 68.7996 105.275L68.8154 105.259L68.8332 105.246C69.0841 105.061 69.2224 104.812 69.3795 104.428C69.4615 104.023 69.523 103.686 69.4564 103.357C69.4143 103.15 69.3766 102.966 69.322 102.804C69.2677 102.644 69.2049 102.532 69.1296 102.457L69.1173 102.445L69.1065 102.432C68.8413 102.105 68.5145 101.965 68.1117 101.806C67.671 101.736 67.3387 101.746 66.9339 101.946L66.9223 101.951L66.9102 101.956C66.6011 102.078 66.3336 102.321 66.1172 102.652V104.761L66.0936 104.785ZM66.0347 101.543C66.1665 101.436 66.312 101.333 66.4674 101.241C66.8933 100.989 67.3664 100.79 67.7838 100.79C68.083 100.79 68.4518 100.885 68.7079 100.969C68.965 101.053 69.3314 101.226 69.55 101.429C69.8017 101.602 69.9849 101.846 70.1736 102.098C70.2029 102.137 70.2323 102.177 70.2621 102.216L70.2791 102.238L70.2917 102.263C70.4722 102.619 70.5617 102.973 70.6425 103.291L70.651 103.325L70.6532 103.347C70.7447 104.25 70.4664 104.974 70.0189 105.592L70.0108 105.603L70.0018 105.614C69.4618 106.235 68.803 106.617 67.9488 106.617C67.6496 106.617 67.2808 106.522 67.0246 106.438C66.8741 106.389 66.7308 106.317 66.6127 106.253C66.5561 106.223 66.5094 106.197 66.4683 106.174C66.4131 106.143 66.3682 106.118 66.3235 106.096L66.278 106.073L66.2421 106.038C66.1986 105.995 66.1608 105.964 66.1172 105.928V107.691L65.8037 108H65.3087L64.9952 107.691V101.262H65.2262V100.953H65.7212L66.0347 101.262V101.543ZM62.2053 100.953C62.4931 100.96 62.7702 101.051 62.9956 101.125L63.0153 101.132C63.2745 101.217 63.4524 101.303 63.614 101.383L63.8403 101.457L63.8576 102.038L63.3891 102.222L63.3288 102.222L63.3287 101.933C63.3288 102.222 63.3289 102.222 63.3288 102.222L63.3275 102.222L63.3262 102.222L63.3236 102.222L63.3177 102.222C63.3136 102.222 63.3091 102.222 63.3042 102.222C63.2944 102.221 63.283 102.22 63.2702 102.218C63.2447 102.214 63.2133 102.208 63.178 102.196C63.1325 102.181 63.0817 102.158 63.0303 102.123C63.0187 102.12 63.008 102.117 62.9986 102.115C62.9556 102.102 62.9102 102.086 62.868 102.071C62.8457 102.062 62.8232 102.054 62.8002 102.045C62.7308 102.019 62.657 101.991 62.5695 101.962C62.5002 101.94 62.4423 101.919 62.3917 101.902C62.2317 101.845 62.1462 101.815 62.0087 101.815C61.8413 101.815 61.6413 101.817 61.4478 101.881C61.3315 101.919 61.2603 101.95 61.2029 101.987C61.1496 102.022 61.0952 102.073 61.032 102.166C60.9216 102.33 60.9429 102.456 60.9691 102.507C61.0153 102.598 61.1161 102.704 61.2828 102.759L61.3226 102.772L61.3576 102.795C61.5603 102.928 61.7664 102.999 62.0847 103.078C62.2713 103.124 62.4526 103.192 62.6098 103.254C62.6548 103.271 62.6969 103.288 62.7367 103.304C62.8437 103.347 62.9336 103.383 63.0153 103.41C63.3188 103.51 63.6278 103.711 63.8371 104.02C64.0552 104.343 64.055 104.672 64.0547 104.975C64.0547 104.985 64.0547 104.995 64.0547 105.005C64.0547 105.503 63.8502 105.905 63.5504 106.2C63.2679 106.479 62.878 106.685 62.461 106.697C62.1051 106.78 61.7473 106.78 61.3913 106.697C61.1918 106.691 61.0043 106.642 60.8474 106.591C60.7629 106.563 60.6823 106.533 60.6117 106.506L60.6026 106.503C60.538 106.478 60.484 106.458 60.4349 106.441C60.0315 106.339 59.8209 106.133 59.7245 106.038L59.5514 105.867L60.0742 105.008L60.3338 105.136L60.3352 105.136L60.3375 105.138L60.3449 105.141C60.3509 105.144 60.3593 105.149 60.3693 105.154C60.3893 105.165 60.4169 105.18 60.4477 105.198C60.4932 105.225 60.5617 105.268 60.6235 105.32C60.6654 105.343 60.7042 105.368 60.7378 105.389C60.7487 105.396 60.7591 105.403 60.7693 105.409C60.804 105.432 60.8353 105.452 60.8706 105.473C60.9557 105.523 61.0505 105.569 61.1772 105.601C61.5223 105.686 61.8088 105.754 62.0087 105.754C62.4087 105.754 62.5922 105.633 62.8236 105.481L62.8248 105.48C62.9505 105.398 63.0152 105.277 63.0152 105.005C63.0152 104.956 62.993 104.875 62.8801 104.757C62.6683 104.619 62.5309 104.554 62.3221 104.485C62.0885 104.408 61.7718 104.33 61.4376 104.247L61.426 104.245L61.4145 104.241C60.9033 104.073 60.4969 103.885 60.1904 103.482C59.8637 103.053 59.8794 102.619 59.9687 102.178L59.977 102.137L59.9958 102.1C59.9995 102.093 60.0032 102.086 60.0069 102.078C60.1648 101.766 60.375 101.351 60.8899 101.143C61.2631 100.961 61.7298 100.867 62.2053 100.953ZM60.7387 103.169C60.9211 103.379 61.1682 103.507 61.6015 103.65C61.9238 103.73 62.262 103.813 62.5203 103.898C62.7761 103.982 62.9575 104.069 63.1939 104.22C63.0851 104.117 62.9525 104.041 62.8171 103.997C62.7143 103.963 62.5967 103.916 62.4833 103.87C62.4472 103.856 62.4115 103.841 62.3769 103.828C62.2248 103.768 62.0761 103.713 61.9327 103.678C61.6042 103.597 61.3246 103.509 61.0437 103.332C60.9291 103.29 60.8273 103.234 60.7387 103.169ZM78.8637 101.23C79.2375 101.045 79.6156 100.953 80.0764 100.953C80.5372 100.953 80.9153 101.045 81.2891 101.23L81.3347 101.252L81.368 101.285L81.3709 101.288C81.3757 101.292 81.385 101.3 81.399 101.31C81.4269 101.331 81.4728 101.361 81.5366 101.393L81.5822 101.415L81.6181 101.45C81.6239 101.456 81.6241 101.456 81.6301 101.46C81.6366 101.463 81.6497 101.471 81.6837 101.493C81.7084 101.509 81.7609 101.545 81.8041 101.606C81.8534 101.676 81.8749 101.754 81.8749 101.832V101.891L81.6875 102.354L81.2562 102.515C81.148 102.462 81.0459 102.386 80.97 102.33L80.9608 102.323C80.8821 102.265 80.8266 102.225 80.7784 102.199C80.5416 102.121 80.3417 102.06 80.0764 102.06C79.8023 102.06 79.5979 102.125 79.3505 102.207C79.1591 102.269 78.973 102.394 78.8522 102.573L78.835 102.598L78.8131 102.62C78.6784 102.753 78.5417 102.957 78.4763 103.15C78.3967 103.386 78.3274 103.673 78.3274 103.866C78.3274 104.093 78.3725 104.264 78.4376 104.512C78.451 104.562 78.4651 104.616 78.4799 104.674C78.5453 104.861 78.6741 105.058 78.834 105.295C78.9661 105.419 79.1615 105.551 79.3903 105.702C79.6203 105.777 79.8172 105.835 80.0764 105.835C80.3426 105.835 80.5431 105.774 80.7812 105.695C80.8574 105.658 80.9249 105.624 80.9831 105.591C81.0501 105.554 81.0818 105.529 81.0923 105.519L81.5356 105.519L81.7831 105.763L81.7016 106.258C81.6173 106.3 81.543 106.337 81.4798 106.372C81.4129 106.41 81.3811 106.434 81.3706 106.445L81.3346 106.48L81.2891 106.503C80.9153 106.687 80.5373 106.779 80.0764 106.779C79.6155 106.779 79.2375 106.687 78.8637 106.503C78.5112 106.329 78.2339 106.148 77.9572 105.875C77.6805 105.602 77.4972 105.329 77.321 104.981C77.1227 104.59 77.1228 104.201 77.1229 103.887L77.1229 103.866C77.1229 103.502 77.2127 103.062 77.304 102.792L77.311 102.771L77.321 102.751C77.4972 102.404 77.6805 102.13 77.9572 101.857C78.2339 101.584 78.5111 101.404 78.8637 101.23Z" fill="white"/>
</svg>
