<svg width="491" height="51" viewBox="0 0 491 51" fill="none" xmlns="http://www.w3.org/2000/svg">
<path d="M0.681152 49.9999H8.42515L9.70515 39.0559H16.1052L17.4492 49.9999H25.1292L18.3452 1.3599H7.52915L0.681152 49.9999ZM2.15315 48.7199L8.61715 2.6399H17.1932L23.6572 48.7199H18.5371L17.1292 37.7759H8.68115L7.27316 48.7199H2.15315ZM9.25715 33.1679H16.5532L13.2252 7.2479H12.5852L9.25715 33.1679ZM10.6012 31.8879L12.9052 12.9439L15.2732 31.8879H10.6012Z" fill="#26929D"/>
<path d="M37.9586 49.9999H45.6386V32.0799H46.8547L52.3587 49.9999H60.3587L54.4067 30.5439C57.3507 28.8159 59.0787 25.6159 59.0787 21.5199V11.9199C59.0787 5.5839 54.8547 1.3599 48.5187 1.3599H37.9586V49.9999ZM39.2387 48.7199V2.6399H48.5187C54.0867 2.6399 57.7987 6.3519 57.7987 11.9199V21.5199C57.7987 25.4879 55.9427 28.4959 52.8707 29.9039L58.6307 48.7199H53.2547L47.8147 30.7999H44.3587V48.7199H39.2387ZM44.3587 26.1919H48.5187C51.0147 26.1919 52.6786 24.5279 52.6786 22.0319V11.4079C52.6786 8.9119 51.0147 7.2479 48.5187 7.2479H44.3587V26.1919ZM45.6386 24.9119V8.5279H48.5187C50.2467 8.5279 51.3987 9.6799 51.3987 11.4079V22.0319C51.3987 23.7599 50.2467 24.9119 48.5187 24.9119H45.6386Z" fill="#26929D"/>
<path d="M75.3962 49.9999H95.2362V42.8319H83.0761V29.2639H92.6762V22.0959H83.0761V8.5279H95.2362V1.3599H75.3962V49.9999ZM76.6762 48.7199V2.6399H93.9562V7.2479H81.7962V23.3759H91.3962V27.9839H81.7962V44.1119H93.9562V48.7199H76.6762Z" fill="#26929D"/>
<path d="M133.698 49.9999H141.378V27.9199L151.042 1.3599H142.85L137.538 16.0159L132.226 1.3599H124.034L133.698 27.9199V49.9999ZM134.978 48.7199V27.6639L125.89 2.6399H131.33L137.538 19.7279L143.746 2.6399H149.186L140.098 27.6639V48.7199H134.978Z" fill="#26929D"/>
<path d="M172.191 50.9599C178.591 50.9599 182.751 46.7999 182.751 40.3999V10.9599C182.751 4.6239 178.527 0.399902 172.191 0.399902C165.791 0.399902 161.631 4.5599 161.631 10.9599V40.3999C161.631 46.7359 165.855 50.9599 172.191 50.9599ZM172.191 49.6799C166.623 49.6799 162.911 45.9679 162.911 40.3999V10.9599C162.911 5.3919 166.623 1.6799 172.191 1.6799C177.759 1.6799 181.471 5.3919 181.471 10.9599V40.3999C181.471 45.9679 177.759 49.6799 172.191 49.6799ZM172.191 45.0719C174.687 45.0719 176.351 43.4079 176.351 40.9119V10.4479C176.351 7.9519 174.687 6.2879 172.191 6.2879C169.695 6.2879 168.031 7.9519 168.031 10.4479V40.9119C168.031 43.4079 169.695 45.0719 172.191 45.0719ZM172.191 43.7919C170.463 43.7919 169.311 42.6399 169.311 40.9119V10.4479C169.311 8.7199 170.463 7.5679 172.191 7.5679C173.919 7.5679 175.071 8.7199 175.071 10.4479V40.9119C175.071 42.6399 173.919 43.7919 172.191 43.7919Z" fill="#26929D"/>
<path d="M208.386 50.9599C214.786 50.9599 218.946 46.7999 218.946 40.3999V1.3599H211.266V40.9119C211.266 42.6399 210.114 43.7919 208.386 43.7919C206.658 43.7919 205.506 42.6399 205.506 40.9119V1.3599H197.826V40.3999C197.826 46.7359 202.05 50.9599 208.386 50.9599ZM208.386 49.6799C202.818 49.6799 199.106 45.9679 199.106 40.3999V2.6399H204.226V40.9119C204.226 43.4079 205.89 45.0719 208.386 45.0719C210.882 45.0719 212.546 43.4079 212.546 40.9119V2.6399H217.666V40.3999C217.666 45.9679 213.954 49.6799 208.386 49.6799Z" fill="#26929D"/>
<path d="M250.619 49.9999H258.363L259.643 39.0559H266.043L267.387 49.9999H275.067L268.283 1.3599H257.467L250.619 49.9999ZM252.091 48.7199L258.555 2.6399H267.131L273.595 48.7199H268.475L267.067 37.7759H258.619L257.211 48.7199H252.091ZM259.195 33.1679H266.491L263.163 7.2479H262.523L259.195 33.1679ZM260.539 31.8879L262.843 12.9439L265.211 31.8879H260.539Z" fill="#26929D"/>
<path d="M292.079 49.9999H299.759V8.5279H308.399V1.3599H283.439V8.5279H292.079V49.9999ZM293.359 48.7199V7.2479H284.719V2.6399H307.119V7.2479H298.479V48.7199H293.359Z" fill="#26929D"/>
<path d="M340.709 49.9999H348.389V32.0799H349.605L355.109 49.9999H363.109L357.157 30.5439C360.101 28.8159 361.829 25.6159 361.829 21.5199V11.9199C361.829 5.5839 357.605 1.3599 351.269 1.3599H340.709V49.9999ZM341.989 48.7199V2.6399H351.269C356.837 2.6399 360.549 6.3519 360.549 11.9199V21.5199C360.549 25.4879 358.693 28.4959 355.621 29.9039L361.381 48.7199H356.005L350.565 30.7999H347.109V48.7199H341.989ZM347.109 26.1919H351.269C353.765 26.1919 355.429 24.5279 355.429 22.0319V11.4079C355.429 8.9119 353.765 7.2479 351.269 7.2479H347.109V26.1919ZM348.389 24.9119V8.5279H351.269C352.997 8.5279 354.149 9.6799 354.149 11.4079V22.0319C354.149 23.7599 352.997 24.9119 351.269 24.9119H348.389Z" fill="#26929D"/>
<path d="M378.146 49.9999H385.826V1.3599H378.146V49.9999ZM379.426 48.7199V2.6399H384.546V48.7199H379.426Z" fill="#26929D"/>
<path d="M412.059 50.9599C418.459 50.9599 422.619 46.7999 422.619 40.3999V36.5599C422.619 24.7199 409.179 22.0959 409.179 14.1599V10.4479C409.179 8.7199 410.331 7.5679 412.059 7.5679C413.787 7.5679 414.939 8.7199 414.939 10.4479V16.7199H422.619V10.9599C422.619 4.6239 418.395 0.399902 412.059 0.399902C405.659 0.399902 401.499 4.5599 401.499 10.9599V14.7999C401.499 26.6399 414.939 29.1999 414.939 37.1999V40.9119C414.939 42.6399 413.787 43.7919 412.059 43.7919C410.331 43.7919 409.179 42.6399 409.179 40.9119V34.6399H401.499V40.3999C401.499 46.7359 405.723 50.9599 412.059 50.9599ZM412.059 49.6799C406.491 49.6799 402.779 45.9679 402.779 40.3999V35.9199H407.899V40.9119C407.899 43.4079 409.563 45.0719 412.059 45.0719C414.555 45.0719 416.219 43.4079 416.219 40.9119V37.1999C416.219 28.3039 402.779 26.0639 402.779 14.7359V10.9599C402.779 5.3919 406.491 1.6799 412.059 1.6799C417.627 1.6799 421.339 5.3919 421.339 10.9599V15.4399H416.219V10.4479C416.219 7.9519 414.555 6.2879 412.059 6.2879C409.563 6.2879 407.899 7.9519 407.899 10.4479V14.1599C407.899 23.0559 421.339 25.2959 421.339 36.6239V40.3999C421.339 45.9679 417.627 49.6799 412.059 49.6799Z" fill="#26929D"/>
<path d="M438.271 49.9999H445.951V34.5759L447.679 30.7999L453.375 49.9999H461.439L452.479 20.1119L460.991 1.3599H452.543L445.951 15.9519V1.3599H438.271V49.9999ZM439.551 48.7199V2.6399H444.671V21.9039L453.375 2.6399H459.007L451.135 20.0479L459.711 48.7199H454.335L447.935 27.1519L444.671 34.3199V48.7199H439.551Z" fill="#26929D"/>
<path d="M475.821 34.6399H483.501V28.9439C487.661 27.5999 490.221 24.0159 490.221 18.9599V10.9599C490.221 4.6239 485.997 0.399902 479.661 0.399902C473.261 0.399902 469.101 4.5599 469.101 10.9599V16.7199H476.781V10.4479C476.781 8.7199 477.933 7.5679 479.661 7.5679C481.389 7.5679 482.541 8.7199 482.541 10.4479V19.4719C482.541 21.1999 481.389 22.3519 479.661 22.3519H475.821V34.6399ZM477.101 33.3599V23.6319H479.661C482.157 23.6319 483.821 21.9679 483.821 19.4719V10.4479C483.821 7.9519 482.157 6.2879 479.661 6.2879C477.165 6.2879 475.501 7.9519 475.501 10.4479V15.4399H470.381V10.9599C470.381 5.3919 474.093 1.6799 479.661 1.6799C485.229 1.6799 488.941 5.3919 488.941 10.9599V18.9599C488.941 23.6319 486.317 26.9599 482.221 27.9839V33.3599H477.101ZM475.821 49.9999H483.501V42.3199H475.821V49.9999ZM477.101 48.7199V43.5999H482.221V48.7199H477.101Z" fill="#26929D"/>
</svg>
