<svg width="373" height="250" viewBox="0 0 373 250" fill="none" xmlns="http://www.w3.org/2000/svg">
<mask id="mask0" mask-type="alpha" maskUnits="userSpaceOnUse" x="0" y="0" width="373" height="250">
<mask id="mask1" maskUnits="userSpaceOnUse" x="0" y="0" width="373" height="250">
<rect width="373" height="250" fill="#E7E7E7"/>
</mask>
<g mask="url(#mask1)">
<rect x="-4.02148" width="377.022" height="250" fill="#E7E7E7"/>
</g>
</mask>
<g mask="url(#mask0)">
<path d="M728.062 0H-151V253.951H728.062V0Z" fill="#C3DBFD"/>
<path d="M255.517 99.9202C259.815 99.9202 263.282 103.388 263.282 107.685V115.743C263.282 120.041 259.815 123.508 255.517 123.508C251.219 123.508 247.752 120.041 247.752 115.743V107.685C247.752 103.436 251.219 99.9202 255.517 99.9202Z" fill="#B74F46"/>
<path d="M274.075 160.917C274.075 160.917 281.645 181.233 281.645 205.896C281.645 208.338 281.596 210.828 281.498 213.368C281.01 227.97 279.252 243.989 278.031 253.902H270.314V160.917H274.075Z" fill="#FAA2A1"/>
<path d="M285.649 217.91C285.649 220.986 285.6 224.161 285.454 227.384H270.314V160.917H274.075C274.075 160.917 285.649 186.654 285.649 217.91Z" fill="#02CBC2"/>
<path d="M203.213 205.945C203.213 181.282 210.783 160.966 210.783 160.966H214.543V253.951H206.827C205.606 243.989 203.848 228.019 203.359 213.417C203.262 210.877 203.213 208.387 203.213 205.945Z" fill="#FAA2A1"/>
<path d="M214.543 160.966V227.433H199.403C199.306 224.21 199.208 221.035 199.208 217.959C199.208 186.703 210.782 160.966 210.782 160.966H214.543Z" fill="#02CBC2"/>
<path d="M262.012 123.508V130.15C262.012 131.908 260.596 133.373 258.789 133.373V120.334C260.596 120.334 262.012 121.75 262.012 123.508Z" fill="#DB7170"/>
<path d="M231.88 152.615H253.026L274.075 160.917L268.214 253.951H216.691L210.831 160.917L231.88 152.615Z" fill="#02CBC2"/>
<path d="M243.552 177.912L230.806 153.152H254.101L243.552 177.912Z" fill="#FAA2A1"/>
<path d="M254.1 153.152C254.1 153.152 251.023 155.887 242.477 155.887C233.881 155.887 230.854 153.152 230.854 153.152V135.522H254.149V153.152H254.1Z" fill="#FAA2A1"/>
<path d="M254.101 150.417C238.278 149.343 234.859 139.722 234.859 139.722H254.101V150.417Z" fill="#DB7170"/>
<path d="M260.108 134.936C260.108 140.65 255.81 145.436 250.096 146.022C238.717 147.145 230.806 140.503 230.806 140.503V108.906H260.059V134.936H260.108Z" fill="#FAA2A1"/>
<path d="M235.689 110.322H230.806V126.829H235.689V110.322Z" fill="#B74F46"/>
<path d="M229.731 120.334C231.538 120.334 232.954 121.799 232.954 123.557V133.373H229.731C227.973 133.373 226.508 131.957 226.508 130.15V123.508C226.508 121.75 227.973 120.334 229.731 120.334Z" fill="#FAA2A1"/>
<path d="M253.416 123.02H254.784L254.93 131.908H251.951V130.59H253.563L253.416 123.02Z" fill="#DB7170"/>
<path d="M271.692 184.625L269.581 221.19L270.946 221.269L273.057 184.704L271.692 184.625Z" fill="#02ADA7"/>
<path d="M213.248 184.582L211.883 184.658L213.846 219.862L215.211 219.786L213.248 184.582Z" fill="#02ADA7"/>
<path d="M247.752 136.255H256.103C256.103 136.255 253.075 140.65 247.752 136.255Z" fill="white"/>
<path d="M239.059 95.1829H258.838V97.8201C258.838 107.392 251.073 115.157 241.501 115.157H227.192V107.05C227.143 100.506 232.466 95.1829 239.059 95.1829Z" fill="#B74F46"/>
<path d="M266.017 188.217H254.101V196.031H266.017V188.217Z" fill="white"/>
<path d="M260.742 186.166H259.375V189.829H260.742V186.166Z" fill="#02ADA7"/>
<path d="M253.172 175.275L254.1 152.176V148.464C254.1 148.464 256.102 150.173 256.102 154.129L255.223 175.373C254.979 180.696 251.316 185.092 246.433 186.41C246.482 185.678 246.286 184.994 245.944 184.408C249.949 183.285 252.977 179.671 253.172 175.275Z" fill="#1F558F"/>
<path d="M245.944 184.408C246.286 184.994 246.481 185.678 246.432 186.41C245.26 186.752 244.039 186.899 242.77 186.85L242.867 184.799C243.942 184.799 244.967 184.652 245.944 184.408Z" fill="#1F558F"/>
<path d="M242.966 182.65C244.235 182.698 245.31 183.382 245.945 184.408C246.287 184.994 246.482 185.677 246.433 186.41C246.335 188.412 244.675 189.926 242.673 189.877C240.67 189.78 239.156 188.119 239.205 186.117C239.303 184.115 241.012 182.552 242.966 182.65Z" fill="#F1F2F2"/>
<path d="M223.381 165.215L226.555 165.264C231.488 165.313 235.444 169.317 235.395 174.25L235.248 189.536C235.2 194.859 232.123 198.424 227.63 198.375V197.008C232.172 197.057 233.832 193.003 233.881 189.536L234.028 174.25C234.076 170.099 230.707 166.68 226.555 166.631L223.381 166.582C219.23 166.534 215.811 169.903 215.763 174.055L215.616 189.34C215.567 192.808 217.179 196.91 221.721 196.959V198.326C217.228 198.278 214.2 194.664 214.249 189.34L214.395 174.055C214.444 169.122 218.449 165.166 223.381 165.215Z" fill="#F1F2F2"/>
<path d="M223.383 164.873H223.48L223.529 156.424C223.578 152.42 226.752 148.61 230.806 146.51V148.757C227.876 150.613 225.629 153.494 225.58 156.473L225.531 164.922H226.557C231.685 164.971 235.787 169.171 235.738 174.25L235.641 183.382H233.589L233.687 174.25C233.736 170.294 230.513 167.022 226.557 166.973L223.383 166.924C219.427 166.875 216.155 170.099 216.106 174.054L216.008 183.187H213.957L214.055 174.054C214.055 168.927 218.255 164.824 223.383 164.873Z" fill="#1F558F"/>
<path d="M228.218 196.568C228.853 196.568 229.341 197.056 229.341 197.691C229.341 198.326 228.853 198.815 228.218 198.815C227.583 198.815 227.095 198.326 227.095 197.691C227.095 197.056 227.632 196.568 228.218 196.568Z" fill="#1F558F"/>
<path d="M221.234 196.617C221.868 196.617 222.357 197.106 222.357 197.74C222.357 198.375 221.868 198.864 221.234 198.864C220.599 198.864 220.11 198.375 220.11 197.74C220.11 197.106 220.599 196.617 221.234 196.617Z" fill="#1F558F"/>
<path d="M162.678 246.772C162.678 246.772 161.506 249.409 159.943 253.951H137.283C138.358 248.921 139.188 246.772 139.188 246.772H162.678Z" fill="#02CBC2"/>
<path d="M172.496 246.772C173.277 248.335 173.961 250.435 174.449 252.974C174.498 253.316 174.596 253.658 174.645 254H152.766L152.473 246.821H172.496V246.772Z" fill="#02CBC2"/>
<path d="M144.658 115.987C152.814 115.987 159.455 122.629 159.455 130.785V199.84H129.86V130.785C129.86 122.629 136.502 115.987 144.658 115.987Z" fill="#463036"/>
<path d="M176.255 150.515C176.255 162.48 166.536 172.198 154.571 172.198V140.65H176.255V150.515Z" fill="#463036"/>
<path d="M139.775 188.754L120.533 222.305L109.252 217.812L130.349 180.354L139.775 188.754Z" fill="white"/>
<path d="M89.4724 183.724L96.6514 196.519L92.9887 198.961C77.2632 193.491 89.4724 183.724 89.4724 183.724Z" fill="#B0727C"/>
<path d="M146.292 142.287L146 142.465L147.371 144.717L147.663 144.54L146.292 142.287Z" fill="#5C656B"/>
<path d="M120.532 222.305C115.844 225.186 108.958 225.284 105.881 220.547C98.9952 209.901 92.9395 198.961 92.9395 198.961L96.6022 196.519L120.532 222.305Z" fill="white"/>
<path d="M130.349 180.354L149.395 171.759L165.56 172.54L179.43 176.692L176.255 208.387L176.695 253.951H129.86V226.993L130.349 180.354Z" fill="white"/>
<path d="M139.091 183.138L157.991 166.338L170.493 184.505L163.607 186.068L169.272 190.512L146.319 207.996L137.87 187.924L142.754 184.896L139.091 183.138ZM139.579 188.461L146.905 205.896L167.074 190.512L160.579 185.384L168.295 183.626L157.747 168.34L141.484 182.796L145.586 184.75L139.579 188.461Z" fill="#D5E1F2"/>
<path d="M165.463 172.54C165.463 172.54 161.556 187.484 146.661 206.922C141.924 189.34 149.396 171.759 149.396 171.759L165.463 172.54Z" fill="#02CBC2"/>
<path d="M149.395 155.252H165.462V172.54C165.462 172.54 160.774 175.226 154.816 175.226C148.907 175.226 149.346 172.54 149.346 172.54V155.252H149.395Z" fill="#B0727C"/>
<path d="M149.396 170.196V159.403H163.949C163.949 159.403 161.361 169.122 149.396 170.196Z" fill="#8F4B59"/>
<path d="M153.644 124.387H154.181C162.093 124.387 168.539 131.029 168.539 139.185V148.366H165.463V161.064C165.463 161.064 155.402 169.903 145.977 165.508C141.826 163.603 139.286 159.305 139.286 154.715V139.136C139.286 136.45 139.97 133.959 141.191 131.81C143.681 127.366 148.321 124.387 153.644 124.387Z" fill="#B0727C"/>
<path d="M158.772 121.311C169.955 121.311 176.255 130.052 176.255 138.208V146.559C173.276 147.243 169.711 147.048 169.711 147.048C169.711 147.048 164.681 148.708 160.969 143.727L161.018 139.575C161.018 133.324 151.934 140.65 152.325 130.834L141.239 130.883C143.632 125.315 147.588 121.311 158.772 121.311Z" fill="#463036"/>
<path d="M166.195 142.847H166.293C167.855 142.847 169.125 144.117 169.125 145.68V151.296C169.125 152.859 167.855 154.129 166.293 154.129H163.362V145.729C163.362 144.117 164.632 142.847 166.195 142.847Z" fill="#B0727C"/>
<path d="M143.194 148.854C143.194 150.222 144.317 151.296 145.635 151.296V152.615C143.535 152.615 141.826 150.905 141.826 148.805V148.464H143.145V148.854H143.194Z" fill="#8F4B59"/>
<path d="M149.396 190.61V172.834L165.463 172.541L149.396 190.61Z" fill="#B0727C"/>
<path d="M146.124 206.531L147.198 207.361L143.194 212.635V253.951H141.826V212.196L146.124 206.531Z" fill="#D5E1F2"/>
<path d="M188.562 231.633L178.99 232.561L171.176 183.773L179.429 176.74C179.429 176.74 186.852 201.012 188.562 231.633Z" fill="white"/>
<path d="M210.832 219.228H167.611V247.993H210.832V219.228Z" fill="#835353"/>
<path d="M189.148 238.372H194.813V246.772C194.813 249.507 192.615 251.705 189.881 251.705H185.632C182.897 251.705 180.699 249.507 180.699 246.772C180.748 242.133 184.508 238.372 189.148 238.372Z" fill="#B0727C"/>
<path d="M145.781 161.259V156.864H150.958C150.958 156.864 151.69 161.259 145.781 161.259Z" fill="#463036"/>
<path d="M171.812 201.452H162.729V207.898H171.812V201.452Z" fill="#D5E1F2"/>
<path d="M167.954 199.889H166.587V201.891H167.954V199.889Z" fill="#1F558F"/>
<path d="M178.844 176.447L180.065 176.984C180.016 177.082 175.962 186.849 175.376 192.563C174.79 198.277 175.816 208.338 175.816 208.435L174.497 208.582C174.448 208.142 173.472 198.277 174.058 192.417C174.644 186.508 178.648 176.887 178.844 176.447Z" fill="#D5E1F2"/>
<path d="M66.9579 166.045C66.9579 166.045 74.2346 185.531 74.2346 217.274C74.2346 218.984 74.1857 220.742 74.1369 222.5H63.2951L62.1719 205.456L63.2951 165.996H66.9579V166.045Z" fill="white"/>
<path d="M79.7538 219.521C79.7538 223.233 76.7259 226.26 73.0143 226.26H69.4492V212.781H73.0143C76.7259 212.781 79.7538 215.809 79.7538 219.521Z" fill="white"/>
<path d="M32.8706 107.978H40.538V130.589H24.7148V116.134C24.7148 111.641 28.3776 107.978 32.8706 107.978Z" fill="#6E2E2F"/>
<path d="M56.4097 131.371V137.866C56.4097 139.575 54.9935 140.992 53.2842 140.992V128.245C55.0423 128.245 56.4097 129.613 56.4097 131.371Z" fill="#FAA2A1"/>
<path d="M24.7144 128.245V140.992C23.0051 140.992 21.5889 139.575 21.5889 137.866V131.371C21.5889 129.613 22.9563 128.245 24.7144 128.245Z" fill="#FAA2A1"/>
<path d="M29.0608 157.987H49.7187L66.9581 166.094L71.3534 253.951H22.0771L11.1865 166.094L29.0608 157.987Z" fill="#6F605B"/>
<path d="M50.7446 158.475L52.3562 159.208L39.4145 178.156L25.8867 159.452L28.0844 158.329L50.7446 158.475Z" fill="#EADCBD"/>
<path d="M40.6844 184.798L51.5749 166.387L52.6982 167.07L40.8797 187.142L25.3496 167.901L26.3752 167.07L40.6844 184.798Z" fill="#453C39"/>
<path d="M68.861 184.585L67.5439 184.648L69.3809 222.89L70.6979 222.827L68.861 184.585Z" fill="#D5E1F2"/>
<path d="M50.7443 158.475C50.7443 158.475 47.7652 161.161 39.3653 161.161C30.9654 161.161 27.9863 158.475 27.9863 158.475V141.236H50.7443V158.475Z" fill="#FAA2A1"/>
<path d="M50.7445 155.838C35.2633 154.812 31.9424 145.387 31.9424 145.387H50.7445V155.838Z" fill="#DB7170"/>
<path d="M31.9424 116.476H46.1051C49.2306 116.476 51.7213 119.113 51.7213 122.336V146.461C39.3656 160.575 26.3262 146.657 26.3262 146.657V122.385C26.3262 119.064 28.8168 116.476 31.9424 116.476Z" fill="#FAA2A1"/>
<path d="M66.9577 166.094L71.3041 253.951H61.2926L52.3555 159.208L66.9577 166.094Z" fill="white"/>
<path d="M31.9909 170.049L28.0352 158.475L39.4141 161.161L31.9909 170.049Z" fill="#D5E1F2"/>
<path d="M46.7894 170.049L39.415 161.161L50.7452 158.475L46.7894 170.049Z" fill="#D5E1F2"/>
<path d="M44.2987 144.215L44.7871 145.436C44.6406 145.485 42.2476 146.461 39.2685 146.461C37.5592 146.461 35.6546 146.12 33.8965 145.143L34.5314 143.971C38.829 146.413 44.2499 144.215 44.2987 144.215Z" fill="#DB7170"/>
<path d="M39.61 138.257C46.7401 138.257 48.0587 143.58 48.0587 143.58C48.0587 143.58 40.8797 144.117 39.4146 142.066C38.2914 144.361 30.7705 143.58 30.7705 143.58C30.7705 143.58 32.4798 138.257 39.61 138.257Z" fill="#6E2E2F"/>
<path d="M26.3265 135.131C26.3265 141.431 31.7474 143.433 31.7474 143.433C31.7474 148.61 37.4612 149.001 39.024 149.001C40.5868 149.001 46.3007 148.61 46.3007 143.433C46.3007 143.433 51.7216 141.431 51.7216 135.131C51.7216 128.831 51.7216 122.385 51.7216 122.385H53.3332C53.3332 122.385 53.3332 143.043 53.3332 148.073C53.3332 155.643 39.2682 158.036 39.024 157.987C38.7798 158.036 24.7148 155.594 24.7148 148.073C24.7148 143.043 24.7148 122.385 24.7148 122.385H26.3265C26.3265 122.385 26.3265 128.831 26.3265 135.131Z" fill="#6E2E2F"/>
<path d="M39.5129 132.933L40.8315 132.836L41.2222 138.305H38.292V136.987H39.8059L39.5129 132.933Z" fill="#DB7170"/>
<path d="M36.436 105.341H42.443C50.1592 105.341 56.4103 111.592 56.4103 119.308V133.031C43.8592 133.031 33.7012 122.873 33.7012 110.322V108.076C33.7012 106.562 34.9221 105.341 36.436 105.341Z" fill="#6E2E2F"/>
<path d="M39.4144 147.292C40.5377 147.292 41.4656 148.219 41.4656 149.343V151.296C41.4656 152.419 40.5377 153.347 39.4144 153.347C38.2912 153.347 37.3633 152.419 37.3633 151.296V149.343C37.3633 148.219 38.2912 147.292 39.4144 147.292Z" fill="#6E2E2F"/>
<path d="M29.6472 120.041C29.6472 122.385 27.7426 124.241 25.4473 124.241V114.278H29.6472V120.041Z" fill="#6E2E2F"/>
<path d="M28.084 158.329L29.1584 253.951H12.2121L11.1865 166.094L28.084 158.329Z" fill="white"/>
<path d="M14.9472 166.045L16.0705 205.505L14.9472 222.549L4.10549 223.867C4.05666 222.109 4.00781 219.033 4.00781 217.274C4.00781 185.531 11.138 166.142 11.138 166.142L14.9472 166.045Z" fill="white"/>
<path d="M37.0214 211.561V222.5C37.0214 222.5 25.5448 223.233 4.10547 223.868V211.317L37.0214 211.561Z" fill="white"/>
<path d="M42.5885 190.268H63.5395C65.493 190.268 67.1046 191.879 67.1046 193.833V227.188C67.1046 229.142 65.493 230.753 63.5395 230.753H42.5885C40.635 230.753 39.0234 229.142 39.0234 227.188V193.882C39.0234 191.879 40.5862 190.268 42.5885 190.268Z" fill="#D5E1F2"/>
<path d="M41.4168 206.824H50.6958V211.219C50.6958 215.175 47.4725 218.398 43.5168 218.398H37.0215V211.219C37.0215 208.826 38.975 206.824 41.4168 206.824Z" fill="#FAA2A1"/>
<path d="M76.9209 220.986V228.653H72.4279C68.8628 228.653 65.9814 225.772 65.9814 222.207V217.03H72.9651C75.1628 217.03 76.9209 218.788 76.9209 220.986Z" fill="#FAA2A1"/>
<path d="M15.2401 194.653L13.9326 194.824L16.0846 211.289L17.3921 211.118L15.2401 194.653Z" fill="#D5E1F2"/>
<path d="M300.032 201.5C300.032 201.5 302.815 204.724 316.392 220.986C320.201 225.577 327.038 226.163 331.629 222.354L304.085 198.131L300.032 201.5Z" fill="#B88278"/>
<path d="M342.373 142.896V174.591H366.547V122.043H363.226C351.701 122.043 342.373 131.371 342.373 142.896Z" fill="#463036"/>
<path d="M322.741 214.589L334.12 224.893L352.531 198.131L342.569 181.477L322.741 214.589Z" fill="#E880A9"/>
<path d="M387.01 180.061L386.131 179.768L378.903 177.424L373.384 175.617L357.61 174.835L342.617 181.477V253.951H384.519L385.056 205.261L387.01 180.061Z" fill="#E880A9"/>
<path d="M357.61 174.835L353.459 176.642L356.194 190.707L375.045 176.154L373.384 175.617L357.61 174.835Z" fill="#B88278"/>
<path d="M357.61 175.617C357.61 175.617 357.121 178.449 362.933 178.449C368.744 178.449 373.335 175.617 373.335 175.617V157.303H357.61V175.617Z" fill="#B88278"/>
<path d="M357.61 174.445C369.331 173.322 371.821 162.968 371.821 162.968H357.61V174.445Z" fill="#A15E53"/>
<path d="M364.202 130.687H363.665C358.147 130.687 353.361 133.52 350.772 137.72C349.551 139.771 348.819 142.115 348.819 144.654V159.354C348.819 163.652 350.43 167.705 354.728 169.512C364.495 173.663 375.874 167.315 375.874 167.315V153.347H379.049V144.654C379 136.938 372.358 130.687 364.202 130.687Z" fill="#B88278"/>
<path d="M352.238 153.738L352.385 152.761L350.968 152.566L350.822 153.543C350.675 154.422 350.968 155.252 351.505 155.936C351.994 156.522 352.726 156.864 353.508 156.864V155.447C353.166 155.447 352.824 155.301 352.629 155.008C352.287 154.617 352.14 154.178 352.238 153.738Z" fill="#A15E53"/>
<path d="M375.581 122.043H366.547V174.689H368.793C377.877 174.689 385.251 167.315 385.251 158.231V131.713C385.251 126.341 380.953 122.043 375.581 122.043Z" fill="#463036"/>
<path d="M371.822 141.334H375.924V129.759H360.247C360.247 136.157 365.424 141.334 371.822 141.334Z" fill="#463036"/>
<path d="M356.194 161.942L356.341 163.359L361.615 162.773L361.469 161.356L356.194 161.942Z" fill="#A15E53"/>
<path d="M361.758 160.141L362.256 163.869L360.852 164.056L360.355 160.329L361.758 160.141Z" fill="#A15E53"/>
<path d="M366.742 227.726C366.742 227.726 370.942 228.312 391.942 231.437C397.851 232.316 403.37 228.263 404.249 222.354L367.524 222.5L366.742 227.726Z" fill="#B88278"/>
<path d="M366.206 209.558L362.69 212.391C359.857 214.686 359.417 218.788 361.713 221.621L366.645 227.677L371.724 223.526C373.678 221.963 373.971 219.082 372.408 217.128L366.206 209.558Z" fill="#B88278"/>
<path d="M302.18 187.728L298.859 190.805C296.173 193.247 296.027 197.398 298.468 200.084L303.743 205.847L308.578 201.403C310.434 199.693 310.531 196.861 308.871 195.005L302.18 187.728Z" fill="#B88278"/>
<path d="M337.343 200.23H349.259V208.044H337.343V200.23Z" fill="white"/>
<path d="M342.617 198.228H343.984V201.891H342.617V198.228Z" fill="#02ADA7"/>
<path d="M166.146 82.632H116.43C109.153 82.632 103.293 76.7227 103.293 69.4949V46.6393C103.293 39.3626 109.202 33.5022 116.43 33.5022H166.195C173.471 33.5022 179.332 39.4114 179.332 46.6393V69.4949C179.332 76.7716 173.423 82.632 166.146 82.632Z" fill="#1F558F"/>
<path d="M159.894 66.125V98.6014L151.641 72.6203L159.894 66.125Z" fill="#1F558F"/>
<path d="M262.012 89.3713H309.286C316.172 89.3713 321.788 83.7551 321.788 76.8691V55.1856C321.788 48.2996 316.172 42.6833 309.286 42.6833H262.012C255.126 42.6833 249.51 48.2996 249.51 55.1856V76.9179C249.51 83.8039 255.126 89.3713 262.012 89.3713Z" fill="#E880A9"/>
<path d="M271.926 75.5015V104.559L280.082 81.8502L271.926 75.5015Z" fill="#E880A9"/>
<path d="M-55.1822 89.8596H-3.51286C4.008 89.8596 10.1614 83.755 10.1614 76.1853V52.4507C10.1614 44.9298 4.05684 38.7764 -3.51286 38.7764H-55.1822C-62.703 38.7764 -68.8564 44.881 -68.8564 52.4507V76.1853C-68.8076 83.755 -62.703 89.8596 -55.1822 89.8596Z" fill="#E880A9"/>
<path d="M61.2932 102.069H108.567C115.453 102.069 121.069 96.4526 121.069 89.5666V67.8342C121.069 60.9483 115.453 55.332 108.567 55.332H61.2932C54.4072 55.332 48.791 60.9483 48.791 67.8342V89.5666C48.791 96.5014 54.4072 102.069 61.2932 102.069Z" fill="#57ACFA"/>
<path d="M73.6494 87.5154V116.622L81.8052 93.913L73.6494 87.5154Z" fill="#57ACFA"/>
<path d="M346.109 107.197H390.209C396.656 107.197 401.881 101.971 401.881 95.5247V75.2574C401.881 68.811 396.656 63.5854 390.209 63.5854H346.109C339.663 63.5854 334.438 68.811 334.438 75.2574V95.5247C334.438 101.971 339.663 107.197 346.109 107.197Z" fill="white"/>
<path d="M351.628 92.5457V121.311L358.953 98.2596L351.628 92.5457Z" fill="white"/>
</g>
</svg>
