<svg width="288" height="195" viewBox="0 0 288 195" fill="none" xmlns="http://www.w3.org/2000/svg">
<mask id="mask0" mask-type="alpha" maskUnits="userSpaceOnUse" x="0" y="0" width="288" height="195">
<rect width="288" height="195" fill="#C4C4C4"/>
</mask>
<g mask="url(#mask0)">
<path d="M150.662 187.164L196.775 171.466L197.616 170.625L151.643 186.323L150.662 187.164Z" fill="#375DA3"/>
<path d="M196.774 162.776L127.816 151.844L81.7031 167.541L150.802 178.474L196.774 162.776Z" fill="#6990DA"/>
<path d="M151.643 179.596L150.802 178.475L81.7038 167.542L80.8628 168.383L80.7227 174.971L81.7038 176.232L150.662 187.165L151.643 186.324V179.596Z" fill="#5883D1"/>
<path d="M151.644 179.594L197.756 164.036L196.775 162.775L150.803 178.473L151.644 179.594Z" fill="#7798D9"/>
<path d="M151.643 179.595V186.323L197.615 170.625L197.755 164.037L151.643 179.595Z" fill="#4471C2"/>
<path d="M109.031 169.223V169.504L131.457 173.148V172.867L109.031 169.223Z" fill="#A6DCE2"/>
<path d="M131.459 172.867V173.148L139.728 170.344V169.924L131.459 172.867Z" fill="#85BCD3"/>
<path d="M139.726 169.924L117.441 166.42L109.031 169.223L131.457 172.868L139.726 169.924Z" fill="#BAEFEB"/>
<path opacity="0.3" d="M178.554 163.618C178.554 167.402 162.435 170.345 142.533 170.345C122.63 170.345 106.512 167.262 106.512 163.618C106.512 159.833 122.63 156.89 142.533 156.89C162.435 156.89 178.554 159.833 178.554 163.618Z" fill="#6594A3"/>
<path d="M148.701 163.757C150.102 161.935 149.682 158.711 149.261 156.469C148.841 154.226 148.56 152.684 148.42 149.741C148.42 148.339 148.701 144.275 146.038 143.013C144.916 142.453 143.935 142.032 142.253 142.313C140.571 142.593 139.17 143.995 137.908 147.218C137.348 148.48 136.787 149.461 136.086 150.162C133.283 153.105 130.62 154.787 127.396 156.188C126.275 156.749 125.154 157.17 124.032 157.59C121.51 158.571 119.547 159.132 116.884 159.552C115.202 159.833 111.138 160.533 111.418 162.496C111.558 164.318 112.539 165.159 114.922 165.439C120.248 166 124.453 166 129.218 165.579C132.162 165.299 135.946 165.299 139.03 165.579C141.833 165.719 143.795 165.859 146.458 165.159C147.579 164.878 148.28 164.458 148.701 163.757Z" fill="#FFB299"/>
<path opacity="0.8" d="M111.414 162.495C111.554 163.196 111.975 163.897 112.535 164.317C113.096 164.738 113.797 164.878 114.638 164.878C116.179 165.018 117.721 165.018 119.123 165.018C122.206 165.018 125.15 165.018 128.233 164.738C131.317 164.457 134.4 164.457 137.484 164.738C140.567 165.018 143.511 165.579 146.594 165.018C145.052 165.438 143.651 165.579 142.109 165.579C140.567 165.579 139.026 165.438 137.484 165.298C134.4 165.158 131.317 165.298 128.373 165.579C125.29 165.859 122.206 165.859 119.263 165.719C117.721 165.579 116.179 165.579 114.638 165.298C113.937 165.158 113.096 165.018 112.535 164.457C111.835 164.037 111.554 163.196 111.414 162.495Z" fill="#FFB299"/>
<path d="M127.535 156.188C126.273 157.029 125.012 157.87 123.61 158.43C122.209 159.131 120.807 159.552 119.266 159.972C117.724 160.252 116.322 160.393 114.921 160.533C114.22 160.673 113.519 160.813 112.818 161.093C112.117 161.374 111.557 161.794 111.417 162.495C111.276 161.654 111.977 161.093 112.538 160.673C113.239 160.252 113.939 160.112 114.64 159.832C116.042 159.411 117.584 159.411 118.985 158.991C122.069 158.57 124.732 157.309 127.535 156.188Z" fill="#FFD9CC"/>
<path d="M173.651 163.055C174.912 161.093 174.211 158.01 173.51 155.767C172.95 153.665 172.529 151.983 172.109 149.179C171.969 147.778 171.829 143.713 169.166 142.732C167.904 142.312 167.063 141.891 165.381 142.312C163.699 142.732 162.438 144.274 161.597 147.498C161.176 148.759 160.616 149.88 160.055 150.581C157.532 153.665 155.009 155.627 151.926 157.449C150.945 158.01 149.824 158.57 148.702 159.131C146.32 160.392 144.497 161.093 141.834 161.654C140.152 162.074 136.228 163.055 136.648 165.158C136.929 166.98 138.05 167.681 140.433 167.681C145.759 167.681 149.964 167.4 154.729 166.559C157.672 165.999 161.457 165.718 164.4 165.578C167.203 165.578 169.166 165.438 171.688 164.597C172.529 164.177 173.23 163.616 173.651 163.055Z" fill="#FFB299"/>
<path opacity="0.8" d="M136.367 165.017C136.648 165.718 136.928 166.419 137.629 166.839C138.189 167.26 139.03 167.26 139.731 167.26C141.273 167.26 142.815 167.12 144.216 166.98C147.3 166.699 150.243 166.419 153.186 165.858C156.27 165.438 159.353 165.017 162.437 165.017C165.52 165.017 168.464 165.298 171.547 164.597C170.146 165.157 168.604 165.438 167.062 165.438C165.52 165.578 163.979 165.578 162.437 165.578C159.353 165.718 156.41 166.139 153.327 166.559C150.243 166.98 147.3 167.4 144.216 167.4C142.674 167.4 141.133 167.54 139.591 167.4C138.89 167.4 138.049 167.26 137.348 166.839C136.928 166.419 136.507 165.718 136.367 165.017Z" fill="#FFB299"/>
<path d="M151.785 157.308C150.664 158.289 149.402 159.13 148.141 159.971C146.879 160.812 145.478 161.373 143.936 161.793C142.394 162.214 140.993 162.494 139.591 162.775C138.89 162.915 138.19 163.195 137.629 163.475C137.068 163.756 136.508 164.176 136.367 165.017C136.227 164.176 136.788 163.616 137.349 163.195C137.909 162.775 138.61 162.494 139.311 162.214C140.712 161.653 142.254 161.513 143.656 161.093C146.599 160.112 149.262 158.71 151.785 157.308Z" fill="#FFD9CC"/>
<path d="M120.247 -81.2425C124.171 -79.7007 126.133 -75.6361 125.433 -71.7116C125.292 -71.0108 125.012 -70.31 124.732 -69.6092L107.492 -29.6637L90.1124 10.0015C89.9722 10.2818 89.5518 10.5621 89.2714 10.4219L79.0398 6.21712C78.7595 6.07697 78.4792 5.6565 78.6193 5.37618L93.8967 -34.9898L109.034 -75.7763C109.314 -76.4771 109.595 -77.1779 110.015 -77.8787C111.977 -81.2425 116.322 -82.7842 120.247 -81.2425Z" fill="#91BF2C"/>
<path d="M89.9718 10.0008C89.8316 10.2811 89.4111 10.5614 89.1308 10.4212L78.8992 6.21645C78.6188 6.07629 78.3385 5.65583 78.4787 5.37551L94.597 -37.233L102.306 -17.891L89.9718 10.0008Z" fill="#A1C94C"/>
<path d="M77.2147 10.7019L78.8966 6.2168L89.1282 10.4216L87.166 14.7665C87.0258 15.0469 86.6054 15.187 86.325 15.0469L77.6351 11.5429C77.2147 11.4027 77.0745 10.9822 77.2147 10.7019Z" fill="#91BF2C"/>
<path opacity="0.4" d="M77.2147 10.7019L78.8966 6.2168L89.1282 10.4216L87.166 14.7665C87.0258 15.0469 86.6054 15.187 86.325 15.0469L77.6351 11.5429C77.2147 11.4027 77.0745 10.9822 77.2147 10.7019Z" fill="#91BF2C"/>
<path d="M78.6921 12.0796L76.3086 17.9188L82.5371 20.4612L84.9206 14.622L78.6921 12.0796Z" fill="#FFB299"/>
<path d="M154.725 148.899L132.44 151.702C132.02 151.702 131.599 151.422 131.599 151.001L130.197 139.929L115.2 21.2135L114.78 17.5694C114.78 17.2891 114.78 17.1489 114.64 16.8686C114.079 10.2811 118.704 4.2542 125.292 3.5534C132.44 2.71244 136.925 7.33771 138.467 13.9252C138.747 15.3268 139.028 16.7284 139.028 18.2702L154.025 136.985L155.426 148.058C155.426 148.479 155.146 148.899 154.725 148.899Z" fill="#BFBB9D"/>
<path d="M153.466 149.039L151.084 149.319L149.542 137.546L137.909 45.6012C137.628 43.639 138.049 41.6768 138.89 39.8547L139.591 38.5933L152.065 137.126L153.466 149.039Z" fill="#EFFF70"/>
<path d="M150.383 148.898L148.981 137.685L136.227 36.3497" stroke="#BFBB9D" stroke-width="0.8509" stroke-miterlimit="10" stroke-linecap="round" stroke-linejoin="round"/>
<path d="M149.261 149.038L147.719 137.825L134.965 36.49" stroke="#BFBB9D" stroke-width="0.8509" stroke-miterlimit="10" stroke-linecap="round" stroke-linejoin="round"/>
<path d="M147.996 149.18L146.594 137.967L133.84 36.6318" stroke="#BFBB9D" stroke-width="0.8509" stroke-miterlimit="10" stroke-linecap="round" stroke-linejoin="round"/>
<path d="M146.878 149.32L145.477 138.108L132.582 36.7721" stroke="#BFBB9D" stroke-width="0.8509" stroke-miterlimit="10" stroke-linecap="round" stroke-linejoin="round"/>
<path d="M145.615 149.461L144.214 138.248L131.459 36.9124" stroke="#BFBB9D" stroke-width="0.8509" stroke-miterlimit="10" stroke-linecap="round" stroke-linejoin="round"/>
<path d="M144.495 149.6L143.094 138.387L130.199 37.0519" stroke="#BFBB9D" stroke-width="0.8509" stroke-miterlimit="10" stroke-linecap="round" stroke-linejoin="round"/>
<path d="M143.236 149.739L141.835 138.527L129.08 37.1913" stroke="#BFBB9D" stroke-width="0.8509" stroke-miterlimit="10" stroke-linecap="round" stroke-linejoin="round"/>
<path d="M142.111 149.881L140.709 138.668L127.814 37.3324" stroke="#BFBB9D" stroke-width="0.8509" stroke-miterlimit="10" stroke-linecap="round" stroke-linejoin="round"/>
<path d="M178.131 150.161L155.706 151.283C155.285 151.283 154.865 151.002 154.865 150.582L154.304 139.509L148.418 20.3736L148.277 16.7294C148.277 16.4491 148.277 16.3089 148.277 16.0286C148.277 9.4411 153.323 3.69456 159.911 3.5544C167.199 3.27408 171.264 8.17968 172.245 14.9073C172.385 16.3089 172.525 17.7105 172.525 19.2523L178.412 138.248L178.972 149.32C178.972 149.741 178.552 150.161 178.131 150.161Z" fill="#BFBB9D"/>
<path d="M176.869 150.161L174.346 150.301L173.785 138.387L169.16 46.3025C169.02 44.3403 169.58 42.378 170.562 40.6961L171.262 39.4347L176.168 138.247L176.869 150.161Z" fill="#EFFF70"/>
<path d="M173.788 149.741L173.227 138.528L168.182 36.9122" stroke="#BFBB9D" stroke-width="0.8509" stroke-miterlimit="10" stroke-linecap="round" stroke-linejoin="round"/>
<path d="M172.667 149.881L172.106 138.528L167.061 37.0525" stroke="#BFBB9D" stroke-width="0.8509" stroke-miterlimit="10" stroke-linecap="round" stroke-linejoin="round"/>
<path d="M171.403 149.881L170.843 138.528L165.797 37.0525" stroke="#BFBB9D" stroke-width="0.8509" stroke-miterlimit="10" stroke-linecap="round" stroke-linejoin="round"/>
<path d="M170.286 150.021L169.725 138.668L164.68 37.0525" stroke="#BFBB9D" stroke-width="0.8509" stroke-miterlimit="10" stroke-linecap="round" stroke-linejoin="round"/>
<path d="M169.02 150.021L168.46 138.668L163.414 37.192" stroke="#BFBB9D" stroke-width="0.8509" stroke-miterlimit="10" stroke-linecap="round" stroke-linejoin="round"/>
<path d="M167.901 150.021L167.341 138.808L162.295 37.192" stroke="#BFBB9D" stroke-width="0.8509" stroke-miterlimit="10" stroke-linecap="round" stroke-linejoin="round"/>
<path d="M166.638 150.162L166.077 138.809L161.031 37.333" stroke="#BFBB9D" stroke-width="0.8509" stroke-miterlimit="10" stroke-linecap="round" stroke-linejoin="round"/>
<path d="M165.518 150.162L164.958 138.949L159.912 37.333" stroke="#BFBB9D" stroke-width="0.8509" stroke-miterlimit="10" stroke-linecap="round" stroke-linejoin="round"/>
<path d="M131.18 26.9596H154.727C161.735 26.9596 166.36 26.9596 170.285 22.6147C172.247 20.5123 173.088 15.1862 171.827 6.91678C171.126 2.57183 170.425 3.13248 166.08 3.13248H119.127C116.043 3.13248 115.903 3.13249 115.062 5.09473C114.501 6.216 113.941 16.4476 116.183 21.0729C117.585 24.0163 121.229 26.9596 131.18 26.9596Z" fill="#BFBB9D"/>
<path d="M113.098 11.8228H174.347V17.4291C174.347 18.6906 173.226 19.8119 171.965 19.8119C152.342 21.2135 133.421 21.3536 115.48 19.8119C114.219 19.8119 113.098 18.6906 113.098 17.4291V11.8228Z" fill="#91BF2C"/>
<path opacity="0.8" d="M113.098 11.8228H174.347V17.4291C174.347 18.6906 173.226 19.8119 171.965 19.8119C152.342 21.2135 133.421 21.3536 115.48 19.8119C114.219 19.8119 113.098 18.6906 113.098 17.4291V11.8228Z" fill="#91BF2C"/>
<path d="M172.525 -22.2351L171.965 -46.0622L174.908 -74.9351C174.768 -78.1588 171.684 -80.5415 168.601 -81.6628L141.971 -89.6519L119.405 -81.6628C116.321 -80.5415 113.238 -78.1588 113.098 -74.9351L112.958 -46.0622L113.518 -22.3752L113.098 -14.5263L112.677 -14.8066C109.454 -5.97654 108.893 11.8237 112.817 13.6458C113.238 13.9261 113.658 14.0663 114.079 14.0663C133.561 15.608 151.922 15.0474 173.647 14.0663C175.188 14.0663 175.749 12.8049 176.029 11.2631C176.73 4.95591 175.749 -6.39703 172.525 -22.2351Z" fill="#91BF2C"/>
<path d="M137.627 -69.1898C136.926 -65.4055 136.786 -61.6212 136.646 -57.8368C136.506 -54.0525 136.366 -50.2682 136.366 -46.4839L135.945 -23.778C135.805 -16.2094 135.805 -8.6408 135.945 -1.07217C135.945 2.71214 136.085 6.49645 136.226 10.2808C136.226 11.2619 136.226 12.243 136.366 13.084V13.7848V14.2052V14.3454C136.366 14.3454 136.366 14.4855 136.366 14.3454C136.226 14.2052 136.366 14.3454 136.366 14.3454C136.506 14.3454 136.506 14.3454 136.646 14.4856H136.786C136.926 14.4856 136.926 14.4855 137.067 14.7659C137.067 15.1863 137.067 15.3265 137.067 15.6068C137.207 17.5691 137.067 19.3911 137.207 21.3534C137.207 21.3534 137.207 21.4935 137.067 21.4935C137.067 21.4935 136.926 21.4935 136.926 21.3534C136.646 19.3911 136.786 17.5691 136.506 15.6068C136.506 15.4667 136.506 15.0462 136.506 14.906C136.646 15.0462 136.506 14.906 136.506 14.906H136.366C136.226 14.906 136.085 14.906 135.945 14.7659C135.805 14.7659 135.805 14.7659 135.665 14.6257C135.665 14.4855 135.665 14.4856 135.665 14.4856V14.3454V13.9249V13.2241L135.385 10.4209C135.104 6.6366 134.964 2.8523 134.824 -0.932007C134.544 -8.50063 134.544 -16.0693 134.684 -23.778C134.824 -31.3467 135.104 -38.9153 135.385 -46.6241C135.665 -54.1927 135.945 -61.9015 137.347 -69.3299L137.487 -69.4701C137.627 -69.3299 137.627 -69.1898 137.627 -69.1898Z" fill="#D3E5AB"/>
<path d="M137.766 21.3546C137.766 21.4947 137.626 21.4947 137.626 21.4947H136.645C136.505 21.4947 136.505 21.3546 136.365 21.3546L136.225 20.3734C136.225 20.2333 136.365 20.2333 136.365 20.2333H137.346C137.486 20.2333 137.486 20.3734 137.626 20.3734L137.766 21.3546Z" fill="#BCBCBC"/>
<path d="M167.34 -82.2235C171.124 -84.1858 175.469 -83.0645 177.992 -79.8408C178.412 -79.14 178.833 -78.5794 179.253 -77.7384L189.205 -56.9948C192.568 -49.9868 195.932 -43.2592 199.016 -36.111C202.38 -28.9629 205.323 -21.9549 208.406 -14.9469L217.377 5.93688C217.517 6.2172 217.377 6.63769 217.096 6.77785L207.005 11.4031C206.725 11.5433 206.304 11.4031 206.164 11.1228L196.072 -9.20036C192.709 -16.0682 189.345 -23.0762 185.841 -29.6637C182.477 -36.3913 178.693 -43.119 175.048 -49.8467L164.116 -70.0296C163.696 -70.7304 163.415 -71.4312 163.135 -72.2722C161.873 -76.1967 163.696 -80.4015 167.34 -82.2235Z" fill="#91BF2C"/>
<path d="M217.38 5.79502C217.52 6.07534 217.38 6.49581 217.1 6.63597L207.008 11.2612C206.728 11.4014 206.307 11.2612 206.167 10.9809L195.515 -10.4635L190.189 -21.396L184.723 -32.0481C191.31 -29.5252 198.038 -26.722 204.625 -23.9188L217.38 5.79502Z" fill="#A1C94C"/>
<path d="M209.25 15.7485L207.008 11.4036L217.099 6.77832L218.921 11.2634C219.062 11.5437 218.921 11.9642 218.641 12.1044L210.231 16.0288C209.811 16.169 209.391 16.0288 209.25 15.7485Z" fill="#91BF2C"/>
<path opacity="0.4" d="M209.25 15.7485L207.008 11.4036L217.099 6.77832L218.921 11.2634C219.062 11.5437 218.921 11.9642 218.641 12.1044L210.231 16.0288C209.811 16.169 209.391 16.0288 209.25 15.7485Z" fill="#91BF2C"/>
<path d="M217.299 12.6734L211.195 15.5017L213.847 21.2242L219.951 18.3959L217.299 12.6734Z" fill="#FFB299"/>
<path d="M93.1953 109.654L98.6615 123.389L100.764 108.813L93.1953 109.654Z" fill="#F8BE00"/>
<path d="M78.1992 114.559L86.8891 126.472L85.2072 111.755L78.1992 114.559Z" fill="#F8BE00"/>
<path d="M64.8848 123.249L76.3779 132.5L70.9116 118.764L64.8848 123.249Z" fill="#F8BE00"/>
<path d="M54.3711 135.022L67.8264 140.909L58.9964 129.135L54.3711 135.022Z" fill="#F8BE00"/>
<path d="M47.2246 149.317L61.8012 151.42L50.168 142.309L47.2246 149.317Z" fill="#F8BE00"/>
<path d="M44 164.738L58.7168 163.056L45.1213 157.309L44 164.738Z" fill="#F8BE00"/>
<path d="M210.931 24.0172C209.529 19.6723 211.912 15.1871 216.257 13.7855C220.602 12.3839 225.087 14.7667 226.489 19.1116C227.89 23.4566 225.508 27.9417 221.163 29.3433C216.818 30.6047 212.333 28.222 210.931 24.0172Z" fill="#FFB299"/>
<path d="M210.651 20.933L209.67 31.0245C209.529 32.2859 210.511 33.4072 211.772 33.5474C213.033 33.6875 214.155 32.7064 214.295 31.445L215.276 21.3535L210.651 20.933Z" fill="#FFB299"/>
<path d="M215.697 28.6423L227.611 36.211C228.732 36.9118 230.134 36.6315 230.835 35.5102C231.535 34.3889 231.255 32.9873 230.134 32.2865L218.22 24.7179L215.697 28.6423Z" fill="#FFB299"/>
<path d="M219.48 26.1199L231.394 33.6885C232.515 34.3893 233.917 34.109 234.618 32.9877C235.319 31.8664 235.038 30.4648 233.917 29.764L222.003 22.1954L219.48 26.1199Z" fill="#FFB299"/>
<path d="M219.48 22.0545L231.394 29.6231C232.515 30.3239 233.917 30.0436 234.618 28.9223C235.319 27.801 235.038 26.3994 233.917 25.6986L222.003 18.13L219.48 22.0545Z" fill="#FFB299"/>
<path d="M220.885 18.1309L230.556 24.1577C231.397 24.7184 232.518 24.4381 233.079 23.5971C233.639 22.7562 233.359 21.6349 232.518 21.0742L222.847 15.0474L220.885 18.1309Z" fill="#FFB299"/>
<path d="M233.077 23.5977C233.638 22.7567 233.357 21.6354 232.516 21.0748L225.648 16.87" stroke="#CF5730" stroke-width="0.5884" stroke-miterlimit="10" stroke-linecap="round" stroke-linejoin="round"/>
<path d="M234.615 28.9239C235.316 27.8026 235.036 26.401 233.915 25.7002L225.225 20.234" stroke="#CF5730" stroke-width="0.5884" stroke-miterlimit="10" stroke-linecap="round" stroke-linejoin="round"/>
<path d="M234.618 32.9879C235.319 31.8666 235.038 30.465 233.917 29.7642L225.367 24.4381" stroke="#CF5730" stroke-width="0.5884" stroke-miterlimit="10" stroke-linecap="round" stroke-linejoin="round"/>
<path d="M230.835 35.5104C231.536 34.3891 231.256 32.9875 230.135 32.2867L221.865 27.1008" stroke="#CF5730" stroke-width="0.5884" stroke-miterlimit="10" stroke-linecap="round" stroke-linejoin="round"/>
<path d="M85.7661 23.1764C87.1677 18.8314 84.785 14.3463 80.44 12.9447C76.0951 11.5431 71.61 13.9258 70.2084 18.2708C68.8068 22.6157 71.1895 27.1009 75.5345 28.5025C79.8794 29.9041 84.3645 27.5213 85.7661 23.1764Z" fill="#FFB299"/>
<path d="M86.0471 20.0922L87.0283 30.1837C87.1684 31.4451 86.1873 32.5664 84.9259 32.7065C83.6644 32.8467 82.5432 31.8656 82.403 30.6041L81.4219 20.5126L86.0471 20.0922Z" fill="#FFB299"/>
<path d="M81.0017 27.8015L69.0882 35.3702C67.9669 36.071 66.5653 35.7906 65.8645 34.6694C65.1637 33.5481 65.444 32.1465 66.5653 31.4457L78.4789 23.8771L81.0017 27.8015Z" fill="#FFB299"/>
<path d="M77.2166 25.2791L65.303 32.8477C64.1817 33.5485 62.7801 33.2682 62.0793 32.1469C61.3785 31.0256 61.6589 29.624 62.7801 28.9232L74.6937 21.3546L77.2166 25.2791Z" fill="#FFB299"/>
<path d="M77.2166 21.3548L65.303 28.9234C64.1817 29.6242 62.7801 29.3439 62.0793 28.2226C61.3785 27.1013 61.6589 25.6997 62.7801 24.9989L74.6937 17.4303L77.2166 21.3548Z" fill="#FFB299"/>
<path d="M75.8137 17.2901L66.1427 23.3169C65.3017 23.8776 64.1804 23.5972 63.6198 22.7563C63.0592 21.9153 63.3395 20.794 64.1804 20.2334L73.8515 14.2065L75.8137 17.2901Z" fill="#FFB299"/>
<path d="M63.6198 22.7568C63.0592 21.9159 63.3395 20.7946 64.1804 20.234L71.0483 16.0292" stroke="#CF5730" stroke-width="0.5884" stroke-miterlimit="10" stroke-linecap="round" stroke-linejoin="round"/>
<path d="M62.0793 28.0831C61.3785 26.9618 61.6589 25.5602 62.7801 24.8594L71.47 19.3932" stroke="#CF5730" stroke-width="0.5884" stroke-miterlimit="10" stroke-linecap="round" stroke-linejoin="round"/>
<path d="M62.0793 32.147C61.3785 31.0257 61.6589 29.6242 62.7801 28.9234L71.3299 23.5973" stroke="#CF5730" stroke-width="0.5884" stroke-miterlimit="10" stroke-linecap="round" stroke-linejoin="round"/>
<path d="M65.8645 34.6696C65.1637 33.5483 65.444 32.1467 66.5653 31.4459L74.8347 26.26" stroke="#CF5730" stroke-width="0.5884" stroke-miterlimit="10" stroke-linecap="round" stroke-linejoin="round"/>
</g>
</svg>
