<svg width="717" height="328" viewBox="0 0 717 328" fill="none" xmlns="http://www.w3.org/2000/svg">
<mask id="mask0" mask-type="alpha" maskUnits="userSpaceOnUse" x="0" y="0" width="717" height="328">
<path d="M0 0H717V328H0V0Z" fill="#D2F8FD"/>
</mask>
<g mask="url(#mask0)">
<path fill-rule="evenodd" clip-rule="evenodd" d="M560.011 275.407L559.058 366.254H553.656L554.451 275.247L560.011 275.407Z" stroke="#2DB3BE" stroke-width="0.5669" stroke-miterlimit="22.9256"/>
<path fill-rule="evenodd" clip-rule="evenodd" d="M539.197 272.523H613.078C624.199 272.523 633.256 263.391 633.256 252.175V203.627C633.256 199.621 630.078 196.417 626.106 196.417H539.197V272.523Z" fill="#F29B96"/>
<path fill-rule="evenodd" clip-rule="evenodd" d="M554.768 150.662C551.432 153.546 549.684 159.634 541.899 178.541C534.113 197.447 531.73 205.619 530.459 208.182C533.637 212.028 533.637 211.547 539.833 215.552C547.459 209.144 554.768 190.397 558.74 181.265C561.282 175.336 568.273 153.706 554.768 150.662Z" fill="#FFC9A4"/>
<path fill-rule="evenodd" clip-rule="evenodd" d="M532.207 269.8L531.412 361.287L525.852 361.127L526.805 269.8H532.207Z" stroke="#2DB3BE" stroke-width="0.5669" stroke-miterlimit="22.9256"/>
<path fill-rule="evenodd" clip-rule="evenodd" d="M489.944 256.02C499 277.651 506.785 300.723 519.178 333.248L503.449 339.657L464.046 269.639L489.944 256.02Z" fill="#2DB3BE"/>
<path fill-rule="evenodd" clip-rule="evenodd" d="M589.722 275.728L603.545 356.801H597.984L584.32 276.689L589.722 275.728Z" stroke="#2DB3BE" stroke-width="0.5669" stroke-miterlimit="22.9256"/>
<path fill-rule="evenodd" clip-rule="evenodd" d="M613.872 274.927L639.293 366.255H633.574L608.629 276.529L613.872 274.927Z" stroke="#2DB3BE" stroke-width="0.5669" stroke-miterlimit="22.9256"/>
<path fill-rule="evenodd" clip-rule="evenodd" d="M518.702 279.253H610.854C616.415 279.253 620.864 274.766 620.864 269.159C620.864 263.551 616.415 259.064 610.854 259.064H518.702C513.141 259.064 508.692 263.551 508.692 269.159C508.692 274.766 513.141 279.253 518.702 279.253Z" fill="#F18C86"/>
<path fill-rule="evenodd" clip-rule="evenodd" d="M531.413 265.954C508.057 266.756 486.925 269.8 464.046 269.64C461.345 264.352 460.551 259.385 460.71 254.098C460.869 241.921 466.588 237.915 472.785 237.114C507.421 231.987 533.637 226.7 570.18 225.418C568.909 256.021 565.731 267.396 531.413 265.954Z" fill="#2DB3BE"/>
<path fill-rule="evenodd" clip-rule="evenodd" d="M528.87 265.153C517.113 265.474 505.038 267.717 495.028 268.518C484.86 256.181 469.766 248.49 462.457 244.805C464.681 239.838 468.653 237.755 472.626 237.114C507.262 231.987 533.478 226.7 570.021 225.418C568.909 256.021 563.189 266.435 528.87 265.153Z" fill="#2A8188"/>
<path fill-rule="evenodd" clip-rule="evenodd" d="M570.497 264.993C547.141 265.794 527.281 269.96 504.402 269.64C502.019 263.391 500.271 259.545 498.523 253.777C495.028 242.241 503.29 239.037 512.982 236.954C547.3 230.064 567.319 223.174 603.862 221.893C610.218 246.407 605.451 259.065 570.497 264.993Z" fill="#2DB3BE"/>
<path fill-rule="evenodd" clip-rule="evenodd" d="M519.178 333.248C496.458 293.513 489.626 285.181 478.028 262.269C474.85 257.142 476.121 257.302 466.747 245.926C469.13 244.645 484.065 252.175 488.355 256.822C490.738 259.706 492.804 263.07 494.393 267.076C501.86 285.662 509.01 306.171 519.178 333.248Z" fill="#2A8188"/>
<path fill-rule="evenodd" clip-rule="evenodd" d="M672.507 337.093C674.413 315.783 677.909 292.23 683.629 274.445C692.685 246.566 702.377 236.152 702.377 236.152C702.377 236.152 706.508 257.141 698.722 288.224C693.32 309.855 687.283 326.518 684.105 337.093H672.507Z" fill="white" stroke="#2DB3BE" stroke-width="0.5669" stroke-miterlimit="22.9256"/>
<path d="M702.376 236.152C702.376 236.152 680.768 289.987 681.245 318.827" stroke="#2DB3BE" stroke-width="0.5669" stroke-miterlimit="22.9256"/>
<path fill-rule="evenodd" clip-rule="evenodd" d="M664.881 337.093C663.292 328.441 661.226 320.109 658.843 312.899C649.787 285.02 640.095 274.605 640.095 274.605C640.095 274.605 635.964 295.595 643.749 326.678C644.703 330.363 645.656 333.888 646.609 337.253H664.881V337.093Z" fill="white" stroke="#2DB3BE" stroke-width="0.5669" stroke-miterlimit="22.9256"/>
<path fill-rule="evenodd" clip-rule="evenodd" d="M678.704 337.093C682.994 309.054 686.966 264.351 683.788 233.268C680.293 200.422 679.181 186.001 679.181 186.001C679.181 186.001 667.582 209.074 666.47 245.124C665.358 281.335 664.722 305.529 663.61 314.181C662.975 319.468 663.134 329.883 663.292 337.093H678.704Z" fill="white" stroke="#2DB3BE" stroke-width="0.5669" stroke-miterlimit="22.9256"/>
<path fill-rule="evenodd" clip-rule="evenodd" d="M654.553 337.093C650.422 312.098 646.927 274.926 650.104 248.489C653.6 219.489 654.712 206.671 654.712 206.671C654.712 206.671 666.311 227.019 667.423 259.064C668.535 291.109 669.17 312.579 670.283 320.109C670.918 323.955 670.918 331.165 670.759 337.093H654.553Z" fill="white" stroke="#2DB3BE" stroke-width="0.5669" stroke-miterlimit="22.9256"/>
<path d="M654.712 206.671C659.478 249.771 661.385 267.235 660.114 289.987C659.161 307.932 662.497 324.275 664.88 337.093" stroke="#2DB3BE" stroke-width="0.5669" stroke-miterlimit="22.9256"/>
<path d="M679.18 186.001C679.18 186.001 677.909 251.373 676.638 281.655C675.843 301.523 676.638 321.871 674.096 337.093" stroke="#2DB3BE" stroke-width="0.5669" stroke-miterlimit="22.9256"/>
<path d="M640.254 274.605C640.254 274.605 645.656 306.81 653.918 337.253" stroke="#2DB3BE" stroke-width="0.5669" stroke-miterlimit="22.9256"/>
<path fill-rule="evenodd" clip-rule="evenodd" d="M582.572 222.053C575.105 222.053 567.478 222.053 560.011 222.053C561.917 210.517 562.553 197.218 562.235 185.361C559.693 181.356 557.151 179.273 556.197 175.748C555.085 171.903 556.356 165.333 557.151 162.93C556.515 159.726 555.721 153.797 555.244 150.593C561.123 144.825 571.609 139.858 582.731 139.858C593.853 139.858 604.339 144.825 610.218 150.593C608.629 163.571 604.498 175.588 602.909 188.566C602.591 200.423 602.274 210.517 604.18 222.053C596.395 222.053 590.04 222.053 582.572 222.053Z" fill="white" stroke="#2F2E6B" stroke-width="0.5669" stroke-miterlimit="22.9256"/>
<path fill-rule="evenodd" clip-rule="evenodd" d="M610.536 151.498C619.115 160.15 608.947 207.256 606.405 216.549L592.105 216.229C593.377 206.455 596.713 166.559 596.713 166.559C596.713 157.426 604.181 144.929 610.536 151.498Z" fill="#FFC9A4"/>
<path d="M604.817 218.047H559.059V222.694H604.817V218.047Z" fill="#226B71"/>
<path fill-rule="evenodd" clip-rule="evenodd" d="M522.673 237.325C522.037 237.485 521.402 237.165 521.084 237.005C520.925 236.844 524.579 232.358 524.579 232.358C524.579 232.358 523.626 236.524 522.673 237.325Z" fill="#FFC9A4"/>
<path fill-rule="evenodd" clip-rule="evenodd" d="M538.403 226.911C536.496 226.75 528.075 224.667 527.758 224.667C527.281 224.667 521.72 227.872 521.72 227.872L517.748 234.762C517.748 234.762 519.972 233.96 520.608 233.48C521.243 232.999 522.356 230.756 522.356 230.756L525.374 229.474L523.627 232.038C523.627 232.038 519.496 239.889 519.337 240.209C519.019 240.53 521.243 240.209 522.038 239.408C522.832 238.607 524.898 235.563 524.898 235.563C524.898 235.563 522.991 240.049 522.832 240.69C523.15 240.85 524.103 240.69 524.739 240.209V240.53C524.739 240.53 526.328 240.53 527.599 239.729C529.029 238.767 529.505 237.806 529.505 237.806C529.505 237.806 532.524 236.684 533.001 236.524C533.477 236.204 536.178 235.883 537.291 235.723C538.403 235.563 542.216 234.441 542.852 233.96C543.328 233.32 544.123 231.878 544.123 231.878L538.403 226.911Z" fill="#FFC9A4"/>
<path d="M527.599 230.917C527.599 230.917 526.645 232.198 526.01 233.48C525.374 234.922 524.897 236.204 524.897 236.204" stroke="#FFC9A4" stroke-width="0.5669" stroke-miterlimit="22.9256"/>
<path d="M524.897 240.209C525.851 239.088 527.44 236.844 527.916 236.204C528.393 235.723 531.412 233.96 531.412 233.96" stroke="#FFC9A4" stroke-width="0.5669" stroke-miterlimit="22.9256"/>
<path d="M591.311 188.246C591.311 188.246 581.142 185.202 567.479 184.08" stroke="#2F2E6B" stroke-width="0.5669" stroke-miterlimit="22.9256"/>
<path fill-rule="evenodd" clip-rule="evenodd" d="M571.292 87.3043C575.105 80.7351 590.199 79.9339 596.396 82.0169C608.947 86.1827 610.854 92.7519 621.022 103.487C631.032 114.062 648.986 110.697 655.818 127.36C660.425 138.576 652.004 154.598 639.453 154.278C624.677 153.797 621.34 142.261 616.256 141.14C611.172 140.018 606.246 144.184 598.938 140.819C585.274 134.57 583.367 123.675 583.367 123.675C580.507 122.233 576.376 130.725 567.797 129.764C558.581 128.802 553.021 118.548 553.021 111.498C553.179 96.437 563.189 86.1827 571.292 87.3043Z" fill="#333973"/>
<path fill-rule="evenodd" clip-rule="evenodd" d="M588.928 144.137C588.928 153.751 572.722 153.751 572.722 144.137C572.722 138.209 572.722 134.364 572.722 128.435C578.124 128.435 583.526 119.463 588.928 119.463C588.928 125.231 588.928 138.209 588.928 144.137Z" fill="#F9C4A0"/>
<path fill-rule="evenodd" clip-rule="evenodd" d="M582.096 90.8186C578.124 90.6584 566.367 90.1777 565.255 104.117C564.142 118.057 565.89 122.703 566.843 125.427C567.956 128.471 570.021 132.477 574.311 132.797C583.367 133.598 587.021 129.913 589.563 127.35C591.629 125.427 594.807 120.46 595.601 106.521C596.236 92.7413 585.909 91.139 582.096 90.8186Z" fill="#FFC9A4"/>
<path fill-rule="evenodd" clip-rule="evenodd" d="M593.059 112.62C593.535 111.658 594.012 111.178 595.124 110.857C596.236 110.697 598.302 111.338 598.143 114.703C597.984 117.907 595.124 120.631 593.377 120.15C591.629 119.67 592.9 113.581 593.059 112.62Z" fill="#FFC9A4"/>
<path fill-rule="evenodd" clip-rule="evenodd" d="M567.638 97.3985C564.778 97.719 563.824 105.73 564.937 109.095C563.189 96.4372 568.114 87.4646 581.937 88.1055C595.76 88.9066 604.499 95.4758 598.62 110.697C583.844 116.786 585.75 95.3156 567.638 97.3985Z" fill="#333973"/>
<path d="M594.012 114.382C594.012 113.902 595.759 112.139 597.031 113.581" stroke="#2F2E6B" stroke-width="0.4252" stroke-miterlimit="22.9256"/>
<path d="M574.628 86.3434C581.142 81.6969 596.713 79.2936 611.806 89.3877C626.9 99.4818 624.199 108.134 643.901 111.178" stroke="#439CA4" stroke-width="0.5669" stroke-miterlimit="22.9256"/>
<path fill-rule="evenodd" clip-rule="evenodd" d="M606.405 216.656C586.862 230.756 541.422 232.518 541.422 232.518L536.814 227.071C536.814 227.071 588.769 207.043 597.984 203.518L606.405 216.656Z" fill="#FFC9A4"/>
<path fill-rule="evenodd" clip-rule="evenodd" d="M532.047 260.827C542.534 298.159 545.552 317.546 553.179 350.072L537.291 350.873C524.262 318.988 515.683 299.12 501.542 261.948L532.047 260.827Z" fill="#2DB3BE"/>
<path fill-rule="evenodd" clip-rule="evenodd" d="M530.3 208.022C512.346 216.354 503.766 223.403 493.28 228.851C493.28 229.332 492.962 230.774 494.551 234.619C505.196 233.337 534.272 222.602 539.674 215.392C541.421 213.149 537.608 204.657 530.3 208.022Z" fill="#FFC9A4"/>
<path fill-rule="evenodd" clip-rule="evenodd" d="M498.683 233.818C498.206 234.779 494.552 238.625 494.234 239.266C493.916 239.907 490.738 240.868 490.262 241.028C489.626 241.188 487.243 241.99 486.449 242.791C485.654 243.592 484.065 243.912 483.43 244.072C482.794 243.752 483.907 241.188 485.178 240.547C486.449 239.907 487.561 239.586 488.037 239.105C488.673 238.625 488.991 237.663 488.991 237.663L487.72 236.702C487.72 236.702 483.589 236.542 483.112 236.382C482.635 236.221 480.57 236.542 478.981 236.542C478.187 237.503 476.757 240.387 474.691 240.067C474.532 239.907 474.373 239.266 474.373 239.266C473.897 239.746 471.99 240.708 472.467 239.105C471.673 238.465 472.467 237.984 474.056 235.901C475.009 234.779 475.645 233.498 475.645 233.498L477.551 231.254C477.551 231.254 481.364 229.652 481.841 229.492C482.318 229.492 485.654 228.691 486.449 228.531C488.037 228.531 496.617 228.37 497.57 228.37C498.365 229.973 498.365 233.177 498.683 233.818Z" fill="#FFC9A4"/>
<path d="M471.99 238.785L476.916 232.216" stroke="#FFC9A4" stroke-width="0.5669" stroke-miterlimit="22.9256"/>
<path d="M474.214 238.945L477.55 234.299L485.812 233.498" stroke="#FFC9A4" stroke-width="0.5669" stroke-miterlimit="22.9256"/>
<path fill-rule="evenodd" clip-rule="evenodd" d="M158.355 134.57H198.235C205.703 134.57 212.376 140.659 213.011 148.189L220.32 225.417C220.955 232.948 215.553 239.036 208.086 239.036H168.206C160.739 239.036 154.066 232.948 153.43 225.417L146.121 148.189C145.327 140.819 150.888 134.57 158.355 134.57Z" fill="#2A8188"/>
<path d="M215.713 265.794H208.722V345.906H215.713V265.794Z" stroke="#8FB2EE" stroke-width="0.5669" stroke-miterlimit="22.9256"/>
<path fill-rule="evenodd" clip-rule="evenodd" d="M180.599 243.522H246.218C252.414 243.522 257.498 248.65 257.498 254.898C257.498 261.147 252.414 266.274 246.218 266.274H180.599C174.403 266.274 169.318 261.147 169.318 254.898C169.318 248.65 174.403 243.522 180.599 243.522Z" fill="#2A8188"/>
<path fill-rule="evenodd" clip-rule="evenodd" d="M365.697 213.08L417.175 364.011H409.231L358.706 215.644C358.547 215.163 359.024 214.683 359.818 214.362L364.267 212.76C364.903 212.439 365.538 212.6 365.697 213.08Z" fill="#AEC8CA"/>
<path fill-rule="evenodd" clip-rule="evenodd" d="M353.94 213.08L302.462 364.011H310.406L360.931 215.644C361.09 215.163 360.613 214.683 359.819 214.362L355.37 212.76C354.734 212.439 354.099 212.6 353.94 213.08Z" fill="#AEC8CA"/>
<path fill-rule="evenodd" clip-rule="evenodd" d="M92.5772 213.08L144.055 364.011H136.111L86.6985 219.009L37.2859 364.011H29.3418L80.8198 213.08C80.9787 212.6 81.6142 212.6 82.4087 212.76L86.6985 214.202L90.9883 212.76C91.6239 212.439 92.4183 212.6 92.5772 213.08Z" stroke="#2DB3BE" stroke-width="0.5669" stroke-miterlimit="22.9256"/>
<path fill-rule="evenodd" clip-rule="evenodd" d="M281.489 223.014C298.649 260.346 311.677 322.353 323.434 354.238L339.799 348.309C335.827 322.994 332.332 271.242 318.986 234.069L281.489 223.014Z" fill="#4EBEC7"/>
<path fill-rule="evenodd" clip-rule="evenodd" d="M251.302 258.424C274.657 259.225 298.013 259.385 321.051 259.065C321.051 253.937 321.21 248.81 321.051 243.523C320.892 231.346 315.173 227.34 308.976 226.539C274.34 221.412 248.124 216.125 211.581 214.843C212.852 245.446 216.983 259.866 251.302 258.424Z" fill="#4EBEC7"/>
<path fill-rule="evenodd" clip-rule="evenodd" d="M251.302 258.424C252.732 258.424 254.162 258.584 255.592 258.584C263.536 256.181 270.685 254.739 274.975 254.578C292.611 254.258 295.153 230.705 304.845 225.898C299.443 224.136 247.647 215.644 211.581 214.843C212.852 245.446 216.983 259.866 251.302 258.424Z" fill="#E6E8F6"/>
<path fill-rule="evenodd" clip-rule="evenodd" d="M249.713 250.252C255.115 287.584 255.115 343.983 254.956 360.967L272.751 355.839C274.022 337.093 282.284 288.545 280.854 251.373L249.713 250.252Z" fill="#4EBEC7"/>
<path fill-rule="evenodd" clip-rule="evenodd" d="M210.946 258.424C234.302 259.225 257.658 259.385 280.696 259.065C280.696 253.937 280.855 248.81 280.696 243.523C280.537 231.346 274.817 227.34 268.621 226.539C233.984 221.412 207.769 216.125 171.226 214.843C172.497 245.446 176.786 259.866 210.946 258.424Z" fill="#4EBEC7"/>
<path fill-rule="evenodd" clip-rule="evenodd" d="M210.946 258.424C218.89 258.744 226.675 258.904 234.619 259.065C234.778 258.584 235.096 258.103 235.255 257.622C245.9 231.346 258.769 229.103 266.872 226.379C233.03 221.412 207.291 216.124 171.384 215.003C172.496 245.445 176.786 259.866 210.946 258.424Z" fill="white"/>
<path fill-rule="evenodd" clip-rule="evenodd" d="M272.433 155.56C272.75 154.438 274.975 146.747 275.293 145.946C275.451 145.145 278.47 143.062 279.106 142.581C279.741 142.261 282.125 140.499 282.76 139.377C283.396 138.255 284.984 137.294 285.62 136.974C286.414 137.134 286.097 140.178 284.984 141.46C283.872 142.581 282.76 143.222 282.283 144.023C281.807 144.664 281.648 145.946 281.648 145.946L283.396 146.427C283.396 146.427 287.368 145.305 288.003 145.305C288.48 145.305 291.34 143.863 291.34 143.863C291.34 143.863 292.452 141.139 293.087 141.139C293.405 140.979 293.723 140.819 294.041 141.46C294.2 139.858 295.471 138.416 296.583 138.416C296.901 138.576 297.218 139.217 297.218 139.217C297.377 138.896 298.331 138.095 298.807 138.255C299.125 138.416 299.284 138.736 299.284 138.736C299.919 137.615 300.714 137.134 301.508 137.294C301.349 138.416 301.191 139.217 300.555 140.819C299.919 142.421 298.013 145.786 298.013 145.786L296.742 148.83C296.742 148.83 292.611 152.035 292.134 152.195C291.658 152.515 290.863 154.919 289.91 155.079C288.956 155.399 280.377 158.604 279.582 159.245C278.788 159.886 278.47 161.167 278.152 161.648C277.835 162.289 272.433 155.399 272.433 155.56Z" fill="#FFC9A4"/>
<path d="M299.443 139.057L296.424 147.709" stroke="#2F2E6B" stroke-width="0.5669" stroke-miterlimit="22.9256"/>
<path d="M297.06 139.537L295.153 145.786L292.293 150.753" stroke="#2F2E6B" stroke-width="0.5669" stroke-miterlimit="22.9256"/>
<path d="M281.648 152.515C283.555 151.554 284.032 151.394 284.667 151.394C285.303 151.394 287.686 151.554 287.686 151.554L289.751 149.151C289.751 149.151 290.864 145.145 291.023 144.504C291.181 143.863 291.976 141.78 292.77 141.46" stroke="#2F2E6B" stroke-width="0.5669" stroke-miterlimit="22.9256"/>
<path fill-rule="evenodd" clip-rule="evenodd" d="M228.899 142.902C237.797 143.863 239.386 149.15 248.124 167.897C256.863 186.803 255.592 196.256 256.863 198.82C258.769 202.826 249.872 214.682 238.909 198.82C232.236 189.207 226.357 176.549 224.927 173.505C222.226 167.576 215.235 145.786 228.899 142.902Z" fill="white"/>
<path d="M270.802 153.545L268.186 158.126L279.062 164.444L281.678 159.862L270.802 153.545Z" fill="#2DB3BE"/>
<path fill-rule="evenodd" clip-rule="evenodd" d="M241.292 197.859C243.199 185.201 267.031 158.444 267.826 157.322C271.957 159.565 277.041 162.609 280.377 165.013C276.882 175.107 264.33 206.03 256.227 209.715C253.685 210.997 240.021 205.87 241.292 197.859Z" fill="white"/>
<path fill-rule="evenodd" clip-rule="evenodd" d="M232.871 230.865L172.496 230.384L171.066 190.008L164.869 141.3C172.337 137.134 181.075 134.41 191.085 133.128C194.898 132.648 198.711 132.488 202.683 132.488C207.926 132.488 209.992 131.847 214.599 133.289C222.861 135.852 226.357 136.653 233.824 142.421C236.366 162.77 234.936 175.908 233.665 190.489C232.235 204.108 233.983 217.406 232.871 230.865Z" fill="white"/>
<path fill-rule="evenodd" clip-rule="evenodd" d="M167.73 141.3C158.832 141.941 157.085 147.068 147.552 165.654C138.178 184.24 139.131 193.693 137.86 196.257C135.953 206.992 144.215 212.279 155.814 196.898C162.805 187.605 169.16 175.107 170.59 172.063C173.45 166.135 181.235 144.825 167.73 141.3Z" fill="white"/>
<path fill-rule="evenodd" clip-rule="evenodd" d="M217.301 201.224C217.937 201.064 218.572 200.423 218.731 200.102C218.89 199.782 213.329 196.898 213.329 196.898C213.329 196.898 215.871 200.903 217.301 201.224Z" fill="#EDBA68"/>
<path fill-rule="evenodd" clip-rule="evenodd" d="M212.216 188.245L221.749 204.909C222.067 205.55 222.067 205.87 221.749 206.191H220.001L219.843 206.03L210.31 189.367C209.674 188.085 211.581 186.964 212.216 188.245Z" fill="#2A8188"/>
<path fill-rule="evenodd" clip-rule="evenodd" d="M194.422 197.538C196.328 196.577 206.497 190.809 206.815 190.649C207.291 190.488 214.282 191.29 214.282 191.29L221.114 196.577C221.114 196.577 218.572 196.737 217.619 196.417C216.824 196.096 214.759 194.334 214.759 194.334H211.105L213.964 196.257C213.964 196.257 221.273 202.505 221.75 202.666C222.226 202.826 219.843 203.467 218.572 202.986C217.301 202.505 213.964 200.262 213.964 200.262C213.964 200.262 217.778 204.108 218.095 204.588C217.778 204.909 216.824 205.229 216.03 204.909L216.189 205.229C216.189 205.229 214.6 205.87 212.852 205.55C211.105 205.229 210.151 204.428 210.151 204.428C210.151 204.428 206.656 204.588 206.02 204.588C205.385 204.588 202.525 205.229 201.254 205.55C199.983 205.87 195.693 206.351 194.898 206.03C194.104 205.71 192.833 204.428 192.833 204.428L194.422 197.538Z" fill="#FFC9A4"/>
<path d="M209.675 196.898C209.675 196.898 211.105 197.699 212.376 198.82C213.647 199.942 214.6 201.064 214.6 201.064" stroke="#2A8188" stroke-width="0.5669" stroke-miterlimit="22.9256"/>
<path d="M216.348 205.229C214.918 204.588 212.376 202.826 211.741 202.505C211.105 202.185 207.292 201.704 207.292 201.704" stroke="#2A8188" stroke-width="0.5669" stroke-miterlimit="22.9256"/>
<path d="M191.415 195.911L190.127 206.082L194.382 206.63L195.67 196.459L191.415 195.911Z" fill="#2DB3BE"/>
<path fill-rule="evenodd" clip-rule="evenodd" d="M156.926 190.489L192.833 195.776C191.721 201.224 191.086 203.627 189.973 209.075C175.992 208.914 162.169 208.914 148.187 208.754C144.056 208.754 138.813 207.633 138.654 203.306L156.926 190.489Z" fill="white"/>
<path fill-rule="evenodd" clip-rule="evenodd" d="M186.319 133.769L206.18 167.256L220.479 133.769L213.806 131.526H193.469L186.319 133.769Z" fill="#2DB3BE"/>
<path d="M206.338 167.256L221.75 154.598L219.366 148.991L225.245 144.985L222.226 134.41" stroke="#2F2E6B" stroke-width="0.5669" stroke-miterlimit="22.9256"/>
<path d="M206.337 167.256L188.543 154.598L190.131 148.991L183.617 144.985L184.729 134.41" stroke="#2F2E6B" stroke-width="0.5669" stroke-miterlimit="22.9256"/>
<path fill-rule="evenodd" clip-rule="evenodd" d="M215.076 136.012L203.16 144.344L190.926 136.012V106.852L212.852 109.896L215.076 136.012Z" fill="#F9C4A0"/>
<path fill-rule="evenodd" clip-rule="evenodd" d="M204.59 74.6465C200.459 74.9669 187.749 75.7681 187.908 92.2711C188.067 108.774 190.768 114.222 192.833 116.625C195.534 119.669 199.665 123.034 209.834 124.156C215.712 123.675 216.665 119.99 218.413 116.465C219.843 113.581 222.703 107.813 222.067 91.3098C221.432 74.8067 208.88 74.6465 204.59 74.6465Z" fill="#FFC9A4"/>
<path fill-rule="evenodd" clip-rule="evenodd" d="M193.31 84.5806C191.88 85.5419 195.058 98.3598 188.226 97.7189C183.777 90.9895 182.983 82.3374 188.703 78.9727C189.815 72.8842 195.694 70.3206 203.161 70.6411C207.451 70.8013 212.218 74.6467 217.143 74.8069C224.769 74.8069 227.153 79.4534 224.451 83.7795C223.339 85.7021 219.208 86.0226 217.461 85.3817C215.077 84.4204 208.563 88.9066 203.956 88.7464C198.712 88.2657 196.965 85.5419 193.31 84.5806Z" fill="#333973"/>
<path fill-rule="evenodd" clip-rule="evenodd" d="M189.496 99.3211C188.861 98.3598 188.225 97.5587 186.954 97.2382C185.683 97.078 183.3 97.7189 183.459 101.404C183.618 105.089 186.636 108.133 188.543 107.653C190.45 107.332 189.496 99.3211 189.496 99.3211Z" fill="#F2D291"/>
<path d="M188.067 101.244C188.067 100.763 186.16 98.68 184.73 100.122" stroke="#2F2E6B" stroke-width="0.4252" stroke-miterlimit="22.9256"/>
<path d="M192.674 77.2097C191.086 82.4971 194.74 89.3868 200.777 90.5084" stroke="#0F7E88" stroke-width="0.5669" stroke-miterlimit="22.9256"/>
<path fill-rule="evenodd" clip-rule="evenodd" d="M206.496 148.35L209.197 160.366L206.178 167.256L202.047 160.366L202.683 148.35L198.711 144.825L201.253 140.659L204.113 142.902L206.655 140.659L209.833 144.825L206.496 148.35Z" fill="#2A8188"/>
<path fill-rule="evenodd" clip-rule="evenodd" d="M204.113 142.902L212.216 146.908L218.095 132.968L215.394 132.007L204.113 142.902Z" fill="#2DB3BE"/>
<path fill-rule="evenodd" clip-rule="evenodd" d="M204.113 142.902L196.646 146.908L188.384 132.968L190.926 132.007L204.113 142.902Z" fill="#2DB3BE"/>
<path fill-rule="evenodd" clip-rule="evenodd" d="M213.011 177.991L213.488 178.151L213.964 178.312L213.805 178.792L213.488 179.593L213.329 179.914L213.011 179.754L212.693 179.593H212.534C211.263 179.113 210.628 178.952 209.833 177.671C209.515 177.19 209.357 176.549 209.515 175.588C209.674 171.262 214.441 162.449 217.301 160.847L217.619 160.687L217.777 161.007L218.254 161.809L218.572 162.129L218.095 162.289C218.095 162.289 217.619 162.61 216.347 164.372C214.123 167.577 211.422 171.422 211.104 175.428C211.104 176.068 211.104 176.549 211.263 176.709C211.74 177.51 212.216 177.671 213.011 177.991Z" fill="#929C9D"/>
<path fill-rule="evenodd" clip-rule="evenodd" d="M213.17 180.395C212.217 180.074 211.74 179.273 211.899 178.472C212.217 177.671 213.17 177.35 214.124 177.671C215.077 177.991 215.554 178.792 215.395 179.594C215.077 180.395 213.965 180.715 213.17 180.395Z" fill="#BCBCBC"/>
<path fill-rule="evenodd" clip-rule="evenodd" d="M221.591 181.196L221.114 181.036L220.637 180.875L220.479 181.356L220.161 182.157L220.002 182.478L220.32 182.638L220.637 182.798H220.796C222.067 183.279 222.703 183.599 223.974 183.119C224.451 182.958 225.086 182.478 225.563 181.677C228.105 178.152 229.853 168.218 228.582 165.174L228.423 164.853L228.105 165.013L227.311 165.334L226.834 165.494L226.993 165.975C226.993 165.975 227.152 166.455 226.993 168.699C226.834 172.544 226.516 177.351 224.133 180.715C223.815 181.196 223.338 181.516 223.18 181.677C222.862 181.677 222.385 181.516 221.591 181.196Z" fill="#929C9D"/>
<path fill-rule="evenodd" clip-rule="evenodd" d="M220.001 182.958C220.955 183.279 221.908 182.958 222.067 182.318C222.385 181.516 221.749 180.715 220.796 180.395C219.842 180.074 218.889 180.395 218.73 181.036C218.571 181.677 219.048 182.638 220.001 182.958Z" fill="#BCBCBC"/>
<path fill-rule="evenodd" clip-rule="evenodd" d="M228.105 154.278C228.582 155.56 228.899 156.842 229.058 157.963C229.376 159.085 229.535 160.207 229.535 161.328C229.535 161.809 229.694 162.45 229.694 162.93C229.694 163.411 229.694 163.892 229.853 164.372C229.853 164.853 229.853 165.334 229.853 165.814C229.853 166.295 229.853 166.455 229.853 166.776V167.577H229.058H228.423H227.787H226.993V166.776C226.993 166.455 226.993 166.135 226.993 165.814C226.993 165.494 226.993 165.173 226.993 164.853C226.993 164.693 226.993 164.533 226.834 164.372C226.834 164.212 226.834 164.052 226.675 163.892C226.516 163.411 226.357 162.93 226.039 162.61C225.563 161.809 224.768 161.168 223.974 160.847C223.18 160.527 222.226 160.687 221.273 161.008C220.796 161.168 220.32 161.328 220.002 161.649C219.843 161.809 219.684 161.809 219.525 161.969C219.366 162.129 219.208 162.129 219.049 162.289C218.89 162.61 218.572 162.77 218.413 163.091C218.254 163.411 217.936 163.571 217.778 163.731L217.301 164.372L216.665 163.892L216.189 163.411L215.553 163.091L214.759 162.61L215.235 161.809C215.394 161.649 215.553 161.328 215.712 161.008C216.03 160.687 216.348 160.367 216.665 159.886C216.983 159.566 217.301 159.245 217.619 158.764C217.936 158.444 218.413 157.963 218.731 157.643C219.525 156.842 220.32 156.201 221.273 155.4C222.226 154.599 223.18 153.798 224.292 153.157L224.61 152.996L224.927 153.157L227.311 153.958L227.787 154.118L228.105 154.278ZM223.974 157.322C224.292 157.322 224.61 157.483 224.927 157.643C225.245 157.803 225.563 157.803 225.881 157.963V157.803C225.722 157.322 225.722 156.842 225.563 156.361C225.245 156.521 224.927 156.842 224.451 157.162L223.974 157.322Z" fill="#717171"/>
<path d="M226.199 154.118C230.33 145.145 230.33 128.322 217.46 126.719" stroke="#BCBCBC" stroke-width="1.4173" stroke-miterlimit="22.9256"/>
<path d="M182.981 166.455C177.262 159.405 170.589 127.841 192.514 126.239" stroke="#BCBCBC" stroke-width="1.4173" stroke-miterlimit="22.9256"/>
<path fill-rule="evenodd" clip-rule="evenodd" d="M182.505 175.908C179.327 173.825 178.533 169.66 180.598 166.615C182.664 163.571 186.954 162.77 189.972 164.853C193.15 166.936 193.945 171.102 191.879 174.146C189.972 177.19 185.683 177.991 182.505 175.908Z" fill="#929C9D"/>
<path fill-rule="evenodd" clip-rule="evenodd" d="M183.776 173.986C181.71 172.544 181.075 169.82 182.505 167.897C183.935 165.814 186.794 165.334 188.86 166.615C190.925 168.057 191.561 170.781 190.131 172.704C188.701 174.947 185.841 175.428 183.776 173.986ZM184.729 172.864C186.159 173.825 187.907 173.345 188.86 172.063C189.813 170.781 189.495 168.859 188.065 168.057C186.636 167.096 184.888 167.577 183.935 168.859C182.981 170.14 183.299 171.903 184.729 172.864Z" fill="white"/>
<path fill-rule="evenodd" clip-rule="evenodd" d="M39.6698 207.312H71.4463C72.8763 207.312 74.1473 207.953 74.1473 208.754V213.401C74.1473 214.202 73.0352 214.843 71.4463 214.843H39.6698C38.2398 214.843 36.9688 214.202 36.9688 213.401V208.754C37.1276 207.953 38.2398 207.312 39.6698 207.312Z" fill="#2A8188"/>
<path fill-rule="evenodd" clip-rule="evenodd" d="M23.7821 148.029C19.4923 150.112 21.0811 154.278 22.511 155.88C23.941 157.483 25.5298 157.643 26.3242 159.565C27.2775 161.488 23.6232 165.974 25.6887 170.621C27.7542 175.267 33.9506 175.908 35.2216 177.35C36.4927 178.953 34.2683 180.074 35.0628 181.516C35.6983 182.958 38.3993 186.002 42.3714 184.24C46.1845 182.477 46.5023 171.903 43.9602 166.455C41.5769 161.008 37.6049 160.847 35.3805 156.041C33.1562 151.554 30.4552 145.626 23.7821 148.029Z" fill="#2A8188"/>
<path fill-rule="evenodd" clip-rule="evenodd" d="M39.9878 188.085C36.0157 186.163 34.7446 184.08 34.7446 180.875C34.7446 177.671 37.9223 174.787 37.9223 171.422C37.9223 168.057 30.6137 162.77 30.6137 157.482C30.6137 152.035 32.838 150.433 32.838 146.747C32.838 143.062 26.6416 135.852 30.7726 131.526C34.9035 127.36 39.9878 132.488 41.2588 134.891C42.6888 137.294 42.6888 141.62 44.7542 143.703C46.8197 145.786 49.9974 144.825 52.2217 148.83C54.4461 152.676 54.605 157.803 57.4649 160.687C60.3248 163.571 65.0912 163.891 68.4278 169.82C71.7643 175.748 67.6334 186.483 65.409 187.925C63.5024 188.886 39.9878 188.085 39.9878 188.085Z" fill="#F29B96"/>
<path fill-rule="evenodd" clip-rule="evenodd" d="M39.9873 188.085H52.5391H65.0908L60.3243 207.312H52.5391H44.9127L39.9873 188.085Z" fill="#FEFEFE"/>
<path fill-rule="evenodd" clip-rule="evenodd" d="M64.1383 191.931L63.0261 196.577H42.2125L40.9414 191.931H64.1383Z" fill="#D9D9D9"/>
<path fill-rule="evenodd" clip-rule="evenodd" d="M54.4455 188.245C54.4455 188.085 48.249 159.886 37.2861 142.101L38.0805 141.62C49.2023 159.565 55.2399 188.085 55.2399 188.085L54.4455 188.245Z" fill="white"/>
<path fill-rule="evenodd" clip-rule="evenodd" d="M36.1745 157.162C36.1745 157.162 42.0532 158.123 47.9318 162.93L47.2963 163.571C41.5765 158.924 36.0156 157.963 36.0156 157.963L36.1745 157.162Z" fill="white"/>
<path fill-rule="evenodd" clip-rule="evenodd" d="M51.9043 178.312C51.9043 178.312 53.1754 171.422 54.4464 169.66L55.2408 170.14C54.1287 171.743 52.8576 178.472 52.8576 178.472L51.9043 178.312Z" fill="white"/>
<path fill-rule="evenodd" clip-rule="evenodd" d="M55.7168 134.25H128.644C129.915 134.25 131.027 135.211 131.345 136.493L141.196 189.688C141.355 190.969 140.56 191.931 139.448 191.931H66.3619C65.0909 191.931 63.9787 190.969 63.6609 189.688L53.8102 136.493C53.6513 135.211 54.4457 134.25 55.7168 134.25Z" fill="#AEC8CA"/>
<path d="M58.0996 138.896H125.148C126.419 138.896 127.531 139.858 127.849 141.14L136.588 188.406" stroke="white" stroke-width="0.5669" stroke-miterlimit="22.9256"/>
<path fill-rule="evenodd" clip-rule="evenodd" d="M293.246 192.251H344.406C345.836 192.251 347.107 193.533 347.107 194.975V197.058C347.107 198.5 345.836 199.781 344.406 199.781C328.359 199.781 309.293 199.781 293.246 199.781C294.835 197.699 294.994 195.295 293.246 192.251Z" fill="#F29B96"/>
<path fill-rule="evenodd" clip-rule="evenodd" d="M286.097 192.251H338.052C338.528 192.251 339.005 191.77 339.005 191.29V190.489C339.005 190.008 338.528 189.527 338.052 189.527H286.097C285.62 189.527 285.144 190.008 285.144 190.489V191.29C285.144 191.77 285.62 192.251 286.097 192.251Z" fill="#2DB3BE"/>
<path fill-rule="evenodd" clip-rule="evenodd" d="M290.069 207.312H341.865C343.295 207.312 344.566 206.03 344.566 204.588V202.505C344.566 201.063 343.295 199.781 341.865 199.781C324.547 199.781 307.228 199.781 289.91 199.781C291.181 202.185 291.34 204.748 290.069 207.312Z" stroke="#2F2E6B" stroke-width="0.5669" stroke-miterlimit="22.9256"/>
<path fill-rule="evenodd" clip-rule="evenodd" d="M126.262 213.08L177.74 364.011H169.795L119.271 215.644C119.112 215.163 119.588 214.683 120.383 214.362L124.832 212.76C125.308 212.439 126.103 212.6 126.262 213.08Z" fill="#AEC8CA"/>
<path fill-rule="evenodd" clip-rule="evenodd" d="M114.345 213.08L62.8672 364.011H70.8113L121.336 215.644C121.495 215.163 121.018 214.683 120.224 214.362L115.775 212.76C115.298 212.439 114.504 212.6 114.345 213.08Z" fill="#AEC8CA"/>
<path fill-rule="evenodd" clip-rule="evenodd" d="M398.109 207.312H77.1662C75.4185 207.312 74.1475 207.953 74.1475 208.754V213.401C74.1475 214.202 75.5774 214.843 77.1662 214.843H398.268C400.016 214.843 401.287 214.202 401.287 213.401V208.754C401.128 207.953 399.857 207.312 398.109 207.312Z" fill="white"/>
<path d="M39.6699 207.312H401.128" stroke="#2F2E6B" stroke-width="0.5669" stroke-miterlimit="22.9256"/>
<path fill-rule="evenodd" clip-rule="evenodd" d="M77.166 207.312H126.579C126.579 205.87 125.466 204.748 124.036 204.748H79.7081C78.2782 204.588 77.166 205.87 77.166 207.312Z" fill="#4EBEC7"/>
<path d="M109.26 191.931H93.2129V204.588H109.26V191.931Z" fill="#4EBEC7"/>
<path fill-rule="evenodd" clip-rule="evenodd" d="M109.419 191.931L93.2129 200.262V191.931H109.419Z" fill="#2A8188"/>
<path d="M596.713 222.534C595.283 246.407 576.058 255.861 525.851 254.419C513.458 260.347 548.571 350.072 548.571 350.072" stroke="white" stroke-width="0.5669" stroke-miterlimit="22.9256"/>
<path d="M537.377 261.225C533.882 257.54 531.339 249.048 526.732 250.33C522.124 251.612 531.339 259.943 529.909 263.308C528.321 266.672 525.461 259.623 523.236 257.86" stroke="#2A8188" stroke-width="0.5669" stroke-miterlimit="22.9256"/>
</g>
</svg>
