<svg width="288" height="195" viewBox="0 0 288 195" fill="none" xmlns="http://www.w3.org/2000/svg">
<mask id="mask0" mask-type="alpha" maskUnits="userSpaceOnUse" x="0" y="0" width="288" height="195">
<rect width="288" height="195" fill="#C4C4C4"/>
</mask>
<g mask="url(#mask0)">
<path d="M163.352 17.0221L155.107 141.779L154.639 149.057C154.358 153.256 150.486 156.553 145.832 156.553H141.117C145.021 156.553 148.268 153.287 148.487 149.057L148.706 145.013C148.674 145.013 148.612 145.013 148.581 145.013H85.2488C85.2176 145.013 85.1551 145.013 85.1239 145.013L85.3425 149.057C85.5611 153.256 88.8089 156.553 92.7125 156.553H87.997C83.3127 156.553 79.4403 153.287 79.1905 149.057L78.722 141.779L70.5089 17.0221C70.4777 16.2445 71.1335 15.6224 71.9766 15.6224H161.884C162.727 15.5913 163.414 16.2445 163.352 17.0221Z" fill="#CED9DF"/>
<path d="M163.352 17.0221L155.107 141.779C153.421 143.614 151.173 144.951 148.706 144.982C148.674 144.982 148.612 144.982 148.581 144.982H85.2488C85.2176 144.982 85.1551 144.982 85.1239 144.982C82.6568 144.951 80.4084 143.614 78.722 141.779L70.5089 17.0221C70.4777 16.2445 71.1335 15.6224 71.9766 15.6224H161.884C162.727 15.5913 163.414 16.2445 163.352 17.0221Z" fill="#DAE0E3"/>
<path d="M109.014 141.842H93.4937C91.9323 141.842 90.4645 141.499 89.1842 140.909L78.5664 15.592H105.954L109.014 141.842Z" fill="#F5F7FC"/>
<path d="M129.781 15.592L126.221 141.842H109.014L105.953 15.592H129.781Z" fill="#E9EBF0"/>
<path d="M158.355 15.592L147.05 139.353C145.333 140.909 142.99 141.842 140.399 141.842H126.221L129.781 15.592H158.355Z" fill="#CED9DF"/>
<path d="M89.1523 140.909C86.373 139.602 84.3744 137.114 84.0621 134.128L71.9766 15.592H78.5658L89.1523 140.909Z" fill="#E9EBF0"/>
<path d="M161.884 15.592L149.799 134.128C149.58 136.181 148.581 138.016 147.051 139.353L158.356 15.592H161.884Z" fill="#DAE0E3"/>
<path d="M148.738 144.983L148.519 149.027C148.301 153.225 145.053 156.522 141.149 156.522H92.7448C88.8412 156.522 85.5935 153.257 85.3748 149.027L85.1562 144.983C85.1875 144.983 85.2499 144.983 85.2812 144.983H148.613C148.644 145.014 148.675 145.014 148.738 144.983Z" fill="#E9EBF0"/>
<path d="M88.9964 138.826C87.2476 137.706 86.0297 135.964 85.8423 133.973L78.0664 57.8629H82.1574L88.9964 138.826Z" fill="#70CFFF"/>
<path d="M108.95 140.099H93.461C91.8059 140.099 90.2444 139.633 88.9641 138.793L82.0938 57.8302H106.921L108.95 140.099Z" fill="#85D6FF"/>
<path d="M128.595 57.8629L126.252 140.101H108.952L106.953 57.8629H128.595Z" fill="#70CFFF"/>
<path d="M154.483 57.8613L147.331 136.242C146.082 138.544 143.397 140.099 140.399 140.099H126.252L128.594 57.8302H154.483V57.8613Z" fill="#61B4DE"/>
<path d="M155.826 57.8629L148.05 133.973C147.957 134.782 147.707 135.56 147.332 136.275L154.483 57.894H155.826V57.8629Z" fill="#70CFFF"/>
<g opacity="0.33">
<path opacity="0.33" d="M93.9609 138.981C97.8333 138.545 101.674 138.265 105.547 138.016C109.419 137.799 113.291 137.612 117.164 137.581C121.067 137.612 124.909 137.799 128.781 138.016C132.653 138.234 136.526 138.545 140.367 138.949C136.494 139.043 132.622 139.012 128.75 138.949C126.814 138.949 124.877 138.887 122.941 138.856C121.005 138.825 119.069 138.763 117.164 138.763C115.259 138.732 113.323 138.794 111.387 138.825L105.578 138.918C101.706 139.043 97.8333 139.043 93.9609 138.981Z" fill="#3C84A8"/>
</g>
<path d="M81.9701 57.8002C81.9701 56.7738 81.1269 55.934 80.0964 55.934C79.0658 55.934 78.2227 56.7738 78.2227 57.8002C78.2227 58.8266 79.0658 59.6664 80.0964 59.6664C81.1269 59.6664 81.9701 58.8266 81.9701 57.8002ZM79.0658 57.8002C79.0658 57.2403 79.5343 56.7738 80.0964 56.7738C80.6585 56.7738 81.1269 57.2403 81.1269 57.8002C81.1269 58.36 80.6585 58.8266 80.0964 58.8266C79.5343 58.8266 79.0658 58.36 79.0658 57.8002Z" fill="#F1FAFF"/>
<path d="M122.005 63.4916C120.974 63.4916 120.131 64.3314 120.131 65.3578C120.131 66.3842 120.974 67.224 122.005 67.224C123.035 67.224 123.878 66.3842 123.878 65.3578C123.878 64.3314 123.035 63.4916 122.005 63.4916ZM122.005 66.3842C121.442 66.3842 120.974 65.9177 120.974 65.3578C120.974 64.7979 121.442 64.3314 122.005 64.3314C122.567 64.3314 123.035 64.7979 123.035 65.3578C123.066 65.9177 122.598 66.3842 122.005 66.3842Z" fill="#F1FAFF"/>
<path d="M82.2207 59.6664C80.6593 59.6664 79.3477 60.9416 79.3477 62.5279C79.3477 64.0831 80.628 65.3894 82.2207 65.3894C83.7821 65.3894 85.0937 64.1142 85.0937 62.5279C85.0937 60.9416 83.8134 59.6664 82.2207 59.6664ZM82.2207 64.5185C81.0965 64.5185 80.1908 63.6165 80.1908 62.4968C80.1908 61.3771 81.0965 60.4751 82.2207 60.4751C83.3449 60.4751 84.2506 61.3771 84.2506 62.4968C84.2818 63.6165 83.3449 64.5185 82.2207 64.5185Z" fill="#F1FAFF"/>
<path d="M111.23 73.5398C111.23 75.4682 112.792 77.0234 114.728 77.0234C116.664 77.0234 118.226 75.4682 118.226 73.5398C118.226 71.6113 116.664 70.0562 114.728 70.0562C112.823 70.0562 111.23 71.6113 111.23 73.5398ZM114.759 70.8648C116.258 70.8648 117.445 72.0779 117.445 73.5398C117.445 75.0327 116.227 76.2147 114.759 76.2147C113.26 76.2147 112.074 75.0016 112.074 73.5398C112.042 72.0779 113.26 70.8648 114.759 70.8648Z" fill="#F1FAFF"/>
<path d="M93.7756 69.6823C95.1497 69.6823 96.2739 68.5625 96.2739 67.194C96.2739 65.8254 95.1497 64.7057 93.7756 64.7057C92.4016 64.7057 91.2773 65.8254 91.2773 67.194C91.2773 68.5625 92.4016 69.6823 93.7756 69.6823ZM93.7756 65.5455C94.7125 65.5455 95.462 66.292 95.462 67.2251C95.462 68.1582 94.7125 68.9047 93.7756 68.9047C92.8388 68.9047 92.0893 68.1582 92.0893 67.2251C92.0893 66.292 92.8388 65.5455 93.7756 65.5455Z" fill="#F1FAFF"/>
<path d="M100.77 77.4883C99.3957 77.4883 98.2715 78.608 98.2715 79.9766C98.2715 81.3451 99.3957 82.4649 100.77 82.4649C102.144 82.4649 103.268 81.3451 103.268 79.9766C103.268 78.608 102.175 77.4883 100.77 77.4883ZM100.77 81.6562C99.8329 81.6562 99.0834 80.9097 99.0834 79.9766C99.0834 79.0435 99.8329 78.297 100.77 78.297C101.707 78.297 102.456 79.0435 102.456 79.9766C102.456 80.9097 101.707 81.6562 100.77 81.6562Z" fill="#F1FAFF"/>
<path d="M113.573 82.9014C114.603 82.9014 115.447 82.0616 115.447 81.0352C115.447 80.0087 114.603 79.1689 113.573 79.1689C112.542 79.1689 111.699 80.0087 111.699 81.0352C111.699 82.0616 112.542 82.9014 113.573 82.9014ZM113.573 79.9776C114.166 79.9776 114.635 80.4442 114.635 81.0352C114.635 81.6261 114.166 82.0927 113.573 82.0927C112.98 82.0927 112.511 81.6261 112.511 81.0352C112.511 80.4442 112.98 79.9776 113.573 79.9776Z" fill="#F1FAFF"/>
<path d="M126.222 57.0226C125.285 57.0226 124.566 57.7691 124.566 58.6711C124.566 59.6042 125.316 60.3195 126.222 60.3195C127.127 60.3195 127.877 59.5731 127.877 58.6711C127.877 57.7691 127.127 57.0226 126.222 57.0226ZM126.222 59.542C125.753 59.542 125.378 59.1687 125.378 58.7022C125.378 58.2356 125.753 57.8624 126.222 57.8624C126.69 57.8624 127.065 58.2356 127.065 58.7022C127.065 59.1687 126.69 59.542 126.222 59.542Z" fill="#F1FAFF"/>
<path d="M123.88 75.2193C124.817 75.2193 125.535 74.4729 125.535 73.5709C125.535 72.6689 124.785 71.9224 123.88 71.9224C122.943 71.9224 122.225 72.6689 122.225 73.5709C122.225 74.4729 122.943 75.2193 123.88 75.2193ZM123.88 72.7C124.348 72.7 124.723 73.0732 124.723 73.5397C124.723 74.0063 124.348 74.3795 123.88 74.3795C123.411 74.3795 123.037 74.0063 123.037 73.5397C123.037 73.0732 123.411 72.7 123.88 72.7Z" fill="#F1FAFF"/>
<path d="M94.9305 76.5879C93.9937 76.5879 93.2754 77.3344 93.2754 78.2364C93.2754 79.1695 94.0249 79.8849 94.9305 79.8849C95.8361 79.8849 96.5856 79.1384 96.5856 78.2364C96.5856 77.3344 95.8361 76.5879 94.9305 76.5879ZM94.9305 79.1073C94.4621 79.1073 94.0873 78.734 94.0873 78.2675C94.0873 77.8009 94.4621 77.4277 94.9305 77.4277C95.3989 77.4277 95.7737 77.8009 95.7737 78.2675C95.7737 78.7029 95.3989 79.1073 94.9305 79.1073Z" fill="#F1FAFF"/>
<path d="M100.769 72.7933C100.769 71.8602 100.02 71.1448 99.1141 71.1448C98.1772 71.1448 97.459 71.8913 97.459 72.7933C97.459 73.6953 98.2085 74.4418 99.1141 74.4418C100.02 74.4729 100.769 73.7264 100.769 72.7933ZM99.1141 73.6642C98.6457 73.6642 98.2709 73.2909 98.2709 72.8244C98.2709 72.3578 98.6457 71.9846 99.1141 71.9846C99.5825 71.9846 99.9573 72.3578 99.9573 72.8244C99.9573 73.2598 99.5825 73.6642 99.1141 73.6642Z" fill="#F1FAFF"/>
<path d="M93.9609 141.842C97.8333 141.593 101.706 141.468 105.578 141.375C107.514 141.313 109.45 141.313 111.387 141.282L117.195 141.251L123.004 141.282C124.94 141.313 126.876 141.313 128.812 141.375C132.685 141.468 136.557 141.593 140.429 141.842C136.557 142.09 132.685 142.215 128.812 142.308C126.876 142.37 124.94 142.37 123.004 142.401L117.195 142.433L111.387 142.401C109.45 142.37 107.514 142.37 105.578 142.308C101.706 142.246 97.8333 142.09 93.9609 141.842Z" fill="#D5E5F2"/>
<path d="M140.461 22.5914C140.024 22.5603 139.618 22.9025 139.587 23.3379L131.842 133.009C131.811 133.445 132.154 133.849 132.591 133.88C132.623 133.88 132.623 133.88 132.654 133.88C133.091 133.88 133.434 133.538 133.466 133.134L141.21 23.4623C141.242 23.0269 140.898 22.6225 140.461 22.5914Z" fill="#F1FAFF"/>
<path d="M154.513 18.6722C154.076 18.61 153.67 18.9522 153.608 19.3876L142.49 127.535C142.459 127.97 142.771 128.375 143.209 128.437C143.24 128.437 143.271 128.437 143.302 128.437C143.708 128.437 144.083 128.126 144.114 127.69L155.232 19.5431C155.294 19.1077 154.982 18.7033 154.513 18.6722Z" fill="#F1FAFF"/>
<g opacity="0.55">
<g opacity="0.55">
<path opacity="0.55" d="M117.445 48.406C113.667 44.1137 107.733 45.2645 102.331 49.1525C96.928 53.0093 93.9301 58.2658 96.8031 63.2113C96.9593 63.4912 98.3021 65.2953 98.4895 65.5441C98.6768 65.7929 98.8642 66.0417 99.0828 66.2906C102.861 70.5829 109.919 71.0494 115.322 67.1615C120.724 63.3046 122.536 56.4929 119.663 51.5475C119.506 51.2675 119.35 51.0187 119.163 50.7388C118.944 50.4899 117.633 48.6548 117.445 48.406Z" fill="#C3CED4"/>
</g>
<g opacity="0.55">
<g opacity="0.55">
<path opacity="0.55" d="M113.606 64.798C108.203 68.6859 101.145 68.2194 97.3668 63.9271C97.1482 63.6782 96.9608 63.4605 96.7734 63.1806H98.3973L116.885 49.9304L117.416 48.4064C117.603 48.6552 117.759 48.9351 117.915 49.2151C120.851 54.1294 119.008 60.9411 113.606 64.798Z" fill="#CED9DF"/>
</g>
<g opacity="0.55">
<path opacity="0.55" d="M97.3035 61.6562L96.7726 63.1802C96.5852 62.9314 96.3978 62.6515 96.2729 62.3716C93.3999 57.4572 95.2111 50.6455 100.614 46.7886C106.016 42.9318 113.074 43.3672 116.821 47.6595C117.04 47.8773 117.227 48.1261 117.415 48.406H115.791L97.3035 61.6562Z" fill="#F5F7FC"/>
</g>
<g opacity="0.55">
<path opacity="0.55" d="M116.916 49.9616L98.4286 63.2117H96.8047L97.3043 61.6565L115.792 48.4375L117.447 48.4064L116.916 49.9616Z" fill="#DDD8E2"/>
</g>
<g opacity="0.55">
<path opacity="0.55" d="M112.98 63.9274C108.108 67.411 101.769 67.0067 98.3649 63.1498C98.1775 62.9321 97.9901 62.7144 97.834 62.4966C97.6778 62.2478 97.5217 62.0301 97.3655 61.7812C94.7736 57.3334 96.3975 51.2371 101.269 47.7535C106.141 44.2699 112.48 44.6743 115.853 48.5311C116.04 48.7488 116.228 48.9666 116.384 49.1843C116.54 49.402 116.696 49.6508 116.852 49.8997C119.475 54.3164 117.82 60.4438 112.98 63.9274Z" fill="#E9EBF0"/>
</g>
<g opacity="0.55">
<g opacity="0.55">
<path opacity="0.55" d="M116.916 49.9616L98.4286 63.2117H96.8047L117.447 48.4064L116.916 49.9616Z" fill="#F5F7FC"/>
</g>
<g opacity="0.55">
<path opacity="0.55" d="M117.447 48.4064L96.8047 63.2117L97.3043 61.6565L115.792 48.4375L117.447 48.4064Z" fill="#CED9DF"/>
</g>
</g>
</g>
</g>
<path d="M156.263 15.4355L150.642 15.311L139.399 15.1244L128.157 15.0311L122.536 15H116.915H111.325L105.704 15.0311L94.4612 15.1244L83.2189 15.311L77.5977 15.4355L71.9766 15.591V16.3064L77.5977 16.4619L83.2189 16.5863L94.4612 16.7418L105.704 16.8662L111.325 16.8973L116.915 16.8662L122.536 16.8973L128.157 16.8662L139.399 16.7418L150.642 16.5863L156.263 16.4619L161.884 16.3064V15.591L156.263 15.4355Z" fill="#C5D3E0"/>
<g opacity="0.72">
<g opacity="0.72">
<path opacity="0.72" d="M118.757 57.8608H120.943C121.162 55.6524 120.756 53.4752 119.631 51.5779C119.475 51.2979 119.319 51.0491 119.132 50.7692C118.944 50.5203 117.633 48.6541 117.445 48.4364C117.633 48.6852 117.789 48.9652 117.945 49.2451C119.475 51.7956 119.694 54.906 118.757 57.8608Z" fill="#C3CED4"/>
</g>
<g opacity="0.72">
<path opacity="0.72" d="M116.914 49.9589C118.288 52.3538 118.444 55.1843 117.539 57.8592H118.757C119.693 54.9355 119.475 51.8251 117.945 49.2124C117.788 48.9324 117.632 48.6836 117.445 48.4037L116.914 49.9589Z" fill="#CED9DF"/>
</g>
<g opacity="0.72">
<path opacity="0.72" d="M96.1792 57.8605C95.8981 54.1902 97.7406 50.2712 101.269 47.7207C106.11 44.2682 112.387 44.6414 115.791 48.4361H117.415C117.227 48.1872 117.04 47.9384 116.821 47.6896C113.043 43.3973 105.985 42.9618 100.614 46.8187C96.7413 49.5869 94.7114 53.8481 94.93 57.8605H96.1792Z" fill="#F5F7FC"/>
</g>
<g opacity="0.72">
<path opacity="0.72" d="M116.914 49.9589L105.891 57.8592H117.539C118.413 55.1843 118.257 52.3227 116.914 49.9589Z" fill="#E9EBF0"/>
</g>
<g opacity="0.72">
<path opacity="0.72" d="M101.269 47.7215C97.7399 50.272 95.8974 54.191 96.1784 57.8613H102.643L115.79 48.4369C112.386 44.6422 106.109 44.269 101.269 47.7215Z" fill="#E9EBF0"/>
</g>
<g opacity="0.72">
<path opacity="0.72" d="M104.268 57.8592H105.891L116.915 49.9589L117.446 48.4037L104.268 57.8592Z" fill="#F5F7FC"/>
</g>
<g opacity="0.72">
<path opacity="0.72" d="M115.792 48.4348L102.645 57.8592H104.268L117.447 48.4037L115.792 48.4348Z" fill="#CED9DF"/>
</g>
</g>
<path d="M63.4693 147.464L38.041 150.471L38.3834 153.343L63.8117 150.336L63.4693 147.464Z" fill="#CED9DF"/>
<path d="M39.0267 149.243L38.0273 150.456L39.1516 150.331L39.0267 149.243Z" fill="#E9EBF0"/>
<path d="M62.2305 146.474L62.3554 147.593L63.4796 147.469L62.2305 146.474Z" fill="#E9EBF0"/>
<path d="M62.2053 146.472L39.0098 149.215L39.1423 150.326L62.3379 147.584L62.2053 146.472Z" fill="#E9EBF0"/>
<path d="M102.359 123.551C100.267 118.233 94.2707 117.362 87.8688 119.166C81.4669 121.001 76.8763 124.92 77.9381 130.55C78.0005 130.861 78.6564 133.007 78.75 133.318C78.8437 133.629 78.9374 133.909 79.0623 134.22C81.1546 139.539 87.6502 142.307 94.0521 140.472C100.454 138.637 104.451 132.851 103.389 127.221C103.327 126.91 103.265 126.599 103.171 126.288C103.077 126.008 102.484 123.831 102.359 123.551Z" fill="#C3CED4"/>
<path d="M93.2415 137.703C86.8396 139.538 80.3441 136.77 78.2517 131.451C78.1268 131.171 78.0331 130.86 77.9395 130.549L79.4697 131.078L101.361 124.795L102.36 123.52C102.454 123.831 102.516 124.142 102.579 124.453C103.641 130.051 99.6122 135.868 93.2415 137.703Z" fill="#CED9DF"/>
<path d="M78.938 129.275L77.9387 130.55C77.845 130.239 77.7826 129.928 77.7201 129.617C76.6583 124.018 80.6868 118.202 87.0887 116.398C93.4906 114.563 99.9549 117.362 102.078 122.649C102.203 122.929 102.297 123.24 102.391 123.551L100.861 123.023L78.938 129.275Z" fill="#F5F7FC"/>
<path d="M101.361 124.794L79.4697 131.077L77.9395 130.549L78.9388 129.273L100.83 122.99L102.36 123.55L101.361 124.794Z" fill="#DDD8E2"/>
<path d="M92.9276 136.646C87.1503 138.295 81.3105 135.806 79.4368 131.016C79.3119 130.768 79.2495 130.488 79.1558 130.208C79.0621 129.928 78.9996 129.648 78.9684 129.368C78.0315 124.329 81.6228 119.104 87.4001 117.455C93.1462 115.807 98.986 118.326 100.891 123.085C100.985 123.334 101.078 123.614 101.172 123.894C101.266 124.174 101.328 124.454 101.359 124.734C102.296 129.772 98.6737 134.967 92.9276 136.646Z" fill="#E9EBF0"/>
<path d="M101.361 124.794L79.4697 131.077L77.9395 130.548L102.36 123.55L101.361 124.794Z" fill="#F5F7FC"/>
<path d="M102.36 123.55L77.9395 130.549L78.9388 129.273L100.83 122.99L102.36 123.55Z" fill="#CED9DF"/>
<path d="M78.5313 146.382C79.1559 140.721 74.253 137.144 67.7574 135.807C61.2306 134.469 55.3284 135.838 53.642 141.281C53.5483 141.561 53.1111 143.801 53.0487 144.112C52.9862 144.423 52.9238 144.734 52.8925 145.045C52.268 150.737 56.7024 156.18 63.2292 157.517C69.756 158.855 76.0018 155.589 77.6881 150.115C77.7818 149.804 77.8755 149.524 77.9379 149.213C78.0004 148.902 78.5001 146.693 78.5313 146.382Z" fill="#C3CED4"/>
<path d="M63.8542 154.684C57.3274 153.347 52.893 147.873 53.5175 142.212C53.5488 141.901 53.58 141.59 53.6737 141.279L54.7667 142.461L77.064 147.033L78.5629 146.38C78.5005 146.691 78.4068 147.002 78.3131 147.282C76.6268 152.756 70.3498 156.022 63.8542 154.684Z" fill="#CED9DF"/>
<path d="M55.1103 140.596L53.6113 141.249C53.6738 140.938 53.7675 140.627 53.8612 140.347C55.5475 134.904 61.7932 131.638 68.32 132.975C74.8468 134.313 79.2813 139.787 78.6567 145.448C78.6255 145.759 78.5943 146.07 78.5006 146.381L77.4076 145.199L55.1103 140.596Z" fill="#F5F7FC"/>
<path d="M77.0329 147.035L54.7356 142.463L53.6426 141.281L55.1103 140.597L77.4388 145.2L78.5319 146.382L77.0329 147.035Z" fill="#DDD8E2"/>
<path d="M64.0736 153.596C58.2026 152.383 54.2054 147.469 54.7675 142.368C54.7987 142.088 54.8299 141.808 54.8924 141.528C54.9548 141.248 55.0173 140.968 55.111 140.72C56.6412 135.805 62.2624 132.881 68.1333 134.063C74.0043 135.276 78.0016 140.191 77.4395 145.292C77.4083 145.572 77.377 145.852 77.3146 146.132C77.2521 146.412 77.1897 146.691 77.096 146.94C75.5658 151.855 69.9446 154.809 64.0736 153.596Z" fill="#E9EBF0"/>
<path d="M77.0329 147.036L54.7356 142.463L53.6426 141.281L78.5319 146.382L77.0329 147.036Z" fill="#F5F7FC"/>
<path d="M78.5319 146.382L53.6426 141.281L55.1103 140.597L77.4388 145.2L78.5319 146.382Z" fill="#CED9DF"/>
<path d="M98.9237 167.501C102.484 163.053 100.298 157.424 95.4886 152.82C90.7106 148.217 84.9957 146.195 80.6237 149.897C80.3739 150.083 78.8437 151.732 78.5939 151.981C78.3753 152.198 78.1567 152.447 77.9693 152.696C74.378 157.144 75.1899 164.142 79.9992 168.745C84.7771 173.349 91.8348 173.94 96.1756 170.207C96.4254 170.021 96.644 169.803 96.8626 169.554C97.1437 169.336 98.7364 167.75 98.9237 167.501Z" fill="#CED9DF"/>
<path d="M82.0604 166.692C77.2824 162.089 76.4704 155.091 80.0305 150.643C80.2179 150.394 80.4365 150.145 80.6551 149.928L80.9361 151.514L97.3 167.283L98.9239 167.532C98.7053 167.75 98.4867 167.968 98.2368 168.185C93.8648 171.856 86.8384 171.296 82.0604 166.692Z" fill="#F5F7FC"/>
<path d="M82.2469 150.146L80.623 149.897C80.8416 149.68 81.0602 149.462 81.3101 149.244C85.6509 145.543 92.7086 146.103 97.4865 150.706C102.265 155.309 103.076 162.308 99.5164 166.755C99.329 167.004 99.1104 167.222 98.8918 167.471L98.6108 165.885L82.2469 150.146Z" fill="#CED9DF"/>
<path d="M97.3324 167.253L80.9373 151.515L80.6562 149.898L82.2489 150.146L98.644 165.916L98.925 167.502L97.3324 167.253Z" fill="#DDD8E2"/>
<path d="M82.8402 165.884C78.5307 161.747 77.7812 155.433 81.029 151.421C81.2164 151.203 81.4037 150.985 81.5911 150.767C81.7785 150.55 81.9971 150.363 82.2157 150.176C86.1505 146.848 92.4587 147.346 96.7682 151.514C101.078 155.651 101.796 161.934 98.5795 165.946C98.4234 166.164 98.236 166.381 98.0174 166.599C97.83 166.817 97.6114 167.003 97.3928 167.19C93.458 170.549 87.1186 170.021 82.8402 165.884Z" fill="#E9EBF0"/>
<path d="M97.3324 167.253L80.9373 151.515L80.6562 149.898L98.925 167.502L97.3324 167.253Z" fill="#CED9DF"/>
<path d="M98.925 167.502L80.6562 149.898L82.2489 150.146L98.644 165.916L98.925 167.502Z" fill="#F5F7FC"/>
<path d="M124.5 180.999C175.034 180.999 216 179.133 216 176.831C216 174.529 175.034 172.663 124.5 172.663C73.966 172.663 33 174.529 33 176.831C33 179.133 73.966 180.999 124.5 180.999Z" fill="#BBC6CB"/>
<path d="M194.045 180.999C231.575 180.999 261.999 179.133 261.999 176.831C261.999 174.529 231.575 172.663 194.045 172.663C156.516 172.663 126.092 174.529 126.092 176.831C126.092 179.133 156.516 180.999 194.045 180.999Z" fill="#BBC6CB"/>
<path d="M137.679 160.814C165.223 160.814 187.551 158.948 187.551 156.647C187.551 154.345 165.223 152.479 137.679 152.479C110.135 152.479 87.8066 154.345 87.8066 156.647C87.8066 158.948 110.135 160.814 137.679 160.814Z" fill="#DAE0E3"/>
<path d="M219.717 175.058C220.248 168.775 221.216 162.617 222.278 156.458C223.371 150.3 224.588 144.204 225.963 138.107C227.337 132.011 228.867 125.977 230.522 119.943C232.208 113.94 234.02 107.937 236.237 102.058C235.706 108.341 234.769 114.5 233.676 120.658C232.583 126.817 231.365 132.913 229.96 139.009C228.586 145.106 227.056 151.14 225.4 157.174C223.745 163.177 221.934 169.18 219.717 175.058Z" fill="#FF790D"/>
<path d="M137.367 76.6759L233.926 98.3862C235.612 98.7595 236.643 100.408 236.268 102.088L219.717 175.088C219.342 176.767 217.687 177.794 216.001 177.42L119.441 155.71L137.367 76.6759Z" fill="#FF8F34"/>
<path d="M137.366 76.6769L119.472 155.711L114.444 154.591C111.664 153.969 109.947 151.232 110.571 148.464L126.217 79.414C126.842 76.6458 129.59 74.9351 132.369 75.5572L137.366 76.6769Z" fill="#FF8F34"/>
<path d="M117.848 116.303C117.223 119.071 123.563 124.732 126.342 125.354L121.158 148.184C118.379 147.562 112.04 141.901 112.664 139.133L117.848 116.303Z" fill="#FFB966"/>
<path d="M126.331 125.346L121.162 148.162L220.748 170.542L225.916 147.725L126.331 125.346Z" fill="#FFB966"/>
<path d="M119.285 109.989C119.91 107.22 128.092 104.825 130.871 105.448L136.274 81.6533C133.494 81.0312 125.344 83.4262 124.688 86.1944L119.285 109.989Z" fill="#FF790D"/>
<path d="M136.241 81.6609L130.846 105.479L230.431 127.858L235.827 104.04L136.241 81.6609Z" fill="#FF790D"/>
<path d="M114.85 140.407C115.537 136.177 116.317 131.978 117.161 127.779C118.004 123.58 118.909 119.412 119.846 115.244C120.814 111.077 121.782 106.909 122.844 102.772C123.875 98.6351 124.999 94.4984 126.217 90.3616C125.53 94.5917 124.749 98.7906 123.906 102.99C123.063 107.189 122.157 111.357 121.22 115.524C120.252 119.692 119.284 123.86 118.222 127.997C117.192 132.165 116.068 136.302 114.85 140.407Z" fill="white"/>
<path d="M139.375 152.263L138.303 156.996L201.454 171.188L202.526 166.454L139.375 152.263Z" fill="#E9EBF0"/>
<path d="M144.546 129.443L139.377 152.26L202.528 166.451L207.697 143.635L144.546 129.443Z" fill="#F5F7FC"/>
<path d="M149.033 109.546L144.531 129.419L207.682 143.611L212.184 123.737L149.033 109.546Z" fill="#E9EBF0"/>
<path d="M154.425 85.75L149.029 109.568L212.18 123.76L217.576 99.9416L154.425 85.75Z" fill="#CED9DF"/>
<path d="M154.931 83.5296L154.43 85.7445L217.581 99.9361L218.082 97.7211L154.931 83.5296Z" fill="#DAE0E3"/>
<path d="M120.53 83.3945L107.154 142.439L111.693 143.459L125.069 84.4146L120.53 83.3945Z" fill="#FF8F34"/>
<path d="M100.766 72.8529L120.128 77.2074C121.002 77.394 121.595 78.2338 121.471 79.1047C121.471 79.1669 121.439 79.2292 121.439 79.2914L106.2 146.568C105.981 147.502 105.044 148.093 104.107 147.875L84.7456 143.52C83.8088 143.303 83.2154 142.369 83.434 141.436L98.6736 74.1593C98.8922 73.2262 99.8291 72.6352 100.766 72.8529Z" fill="#FF8F34"/>
<path d="M89.1481 116.228L84.3848 137.255L107.172 142.376L111.935 121.349L89.1481 116.228Z" fill="#FFB966"/>
<path d="M98.282 75.9766L93.3125 97.9136L116.099 103.034L121.069 81.0973L98.282 75.9766Z" fill="#FF790D"/>
<path d="M93.5839 146.568C93.5215 146.568 93.4278 146.568 93.3653 146.537C92.5222 146.412 91.9288 145.635 92.0537 144.764L102.422 73.2877C102.547 72.4479 103.327 71.857 104.202 71.9814C105.045 72.1058 105.638 72.8834 105.513 73.7543L95.1454 145.23C95.0204 146.008 94.3334 146.568 93.5839 146.568Z" fill="#F7750C"/>
<path d="M101.078 148.249C101.016 148.249 100.922 148.249 100.859 148.217C100.016 148.093 99.423 147.315 99.5479 146.445L109.916 74.9684C110.041 74.1286 110.821 73.5376 111.696 73.6621C112.539 73.7865 113.132 74.5641 113.007 75.435L102.64 146.911C102.515 147.689 101.828 148.249 101.078 148.249Z" fill="#F7750C"/>
<path d="M35.9043 176.831C41.9939 175.991 48.0835 175.524 54.1731 175.213C60.2627 174.902 66.3523 174.778 72.4419 174.778C78.5315 174.778 84.6211 174.902 90.7107 175.213C96.8003 175.524 102.89 175.96 108.979 176.831C102.89 177.702 96.8003 178.137 90.7107 178.448C84.6211 178.759 78.5315 178.884 72.4419 178.884C66.3523 178.884 60.2627 178.728 54.1731 178.448C48.0835 178.137 41.9939 177.702 35.9043 176.831Z" fill="#CED9DF"/>
<path d="M111.915 153.504V174.966C111.915 175.93 111.165 176.738 110.197 176.832C110.135 176.832 110.072 176.832 110.01 176.832H34.905C33.8432 176.832 33 175.992 33 174.934V153.473C33 152.415 33.8432 151.576 34.905 151.576H110.041C111.072 151.607 111.915 152.446 111.915 153.504Z" fill="#E9EBF0"/>
<path d="M63.0426 151.606H39.5586V176.831H63.0426V151.606Z" fill="#F5F7FC"/>
<path d="M108.011 151.606H83.4961V176.831H108.011V151.606Z" fill="#CED9DF"/>
</g>
</svg>
