<svg width="288" height="195" viewBox="0 0 288 195" fill="none" xmlns="http://www.w3.org/2000/svg">
<mask id="mask0" mask-type="alpha" maskUnits="userSpaceOnUse" x="0" y="0" width="288" height="195">
<rect width="288" height="195" fill="#C4C4C4"/>
</mask>
<g mask="url(#mask0)">
<path d="M232.229 54.7729C225.627 46.7301 214.703 42.4687 204.439 43.9092C201.138 44.3893 197.897 45.5898 194.536 45.5898C190.755 45.5898 187.754 43.8491 185.353 41.0282C181.031 35.8064 179.891 28.7839 175.989 23.322C169.147 13.5986 156.963 9.81732 145.559 11.3178C133.615 12.8784 120.83 19.7808 115.849 31.3048C112.187 39.8278 113.988 51.0517 121.671 56.5135C121.431 56.9337 121.311 57.4139 121.611 57.954C132.474 79.8016 146.759 103.81 172.028 110.652C185.053 114.194 198.617 111.313 210.922 106.511C221.245 102.43 231.809 96.4274 236.43 85.7437C240.752 75.6602 239.251 63.2959 232.229 54.7729Z" fill="#38193A"/>
<path d="M251.555 126.08C249.274 112.035 246.213 95.9492 234.149 86.886C220.344 76.5625 201.918 80.0437 186.072 82.0244C175.448 83.3448 164.285 84.1251 154.201 79.7436C153.361 79.3834 152.52 79.9236 152.34 80.5839C142.857 80.2237 133.494 83.825 125.031 88.0865C113.267 93.9685 102.283 100.331 89.1984 102.792C77.1943 105.072 64.7699 105.613 53.486 110.654C44.4229 114.676 36.5601 121.218 30.6781 129.141C23.7757 138.264 20.2945 144.326 24.2559 152.069C24.736 153.029 20.5946 162.512 21.3148 161.612C33.139 146.427 45.7433 130.281 63.6295 121.938C68.6113 119.597 74.1332 117.737 79.6551 117.977C85.4771 118.217 90.1588 121.218 94.1201 125.359C101.983 133.462 108.825 142.765 116.088 151.468C128.572 166.474 141.777 185.92 162.724 188.741C171.607 189.942 180.01 187.181 186.672 181.299C194.055 174.757 198.376 165.693 202.218 156.81C206.779 146.247 211.161 134.843 220.404 127.4C228.627 120.798 241.711 118.937 249.334 127.4C250.294 128.42 251.735 127.22 251.555 126.08Z" fill="#843957"/>
<path d="M143.159 74.3404L142.379 85.9245C142.379 85.9245 147.301 94.7475 158.464 88.1452C158.464 88.1452 155.884 75.901 158.164 70.4991C160.445 65.0972 143.159 74.3404 143.159 74.3404Z" fill="#FEA790"/>
<path d="M209.181 66.5943C204.559 66.4742 199.097 66.5943 196.156 70.7957C192.915 75.4173 195.436 81.4194 193.335 86.3411C193.155 86.7613 200.718 81.5995 209.841 68.2148C210.321 67.4946 209.961 66.5943 209.181 66.5943Z" fill="#E1E9F4"/>
<path d="M277.424 164.31C269.441 137.721 246.693 113.473 217.163 114.133C199.937 114.553 184.572 124.337 173.048 136.521C166.926 143.003 162.004 150.386 156.602 157.468C150.9 164.971 144.058 171.453 134.334 172.773C133.794 172.833 133.914 173.734 134.455 173.734C134.935 173.734 135.415 173.734 135.895 173.734C135.655 173.974 135.475 174.334 135.475 174.754C135.415 188.499 140.877 202.004 150.48 211.847C160.384 221.991 174.428 227.452 188.593 227.212C195.976 227.092 202.818 225.232 209.601 222.411C213.322 220.85 217.643 219.05 221.605 220.61C224.726 221.87 226.767 224.811 228.447 227.572C231.688 232.674 234.509 237.836 240.151 240.657C245.613 243.358 252.215 243.718 258.037 241.917C271.842 237.536 279.105 223.191 281.025 209.806C283.246 194.801 281.746 178.715 277.424 164.31Z" fill="#FFAF56"/>
<path d="M155.162 234.173C147.84 237.354 139.137 237.234 131.334 236.454C113.748 234.713 86.0181 231.472 89.7394 230.932C83.7373 225.11 75.6345 221.749 67.2315 221.749C57.8683 221.749 50.0056 226.911 41.3025 229.372C33.98 231.412 26.5974 230.632 20.2352 226.37C14.4732 222.469 10.2117 216.587 7.99095 210.045C2.70912 194.92 8.83125 178.234 15.9137 164.729C22.8161 151.585 32.0593 139.46 43.9434 130.397C51.206 124.875 59.4288 120.734 68.1919 118.333C72.3933 117.193 76.7749 116.412 81.1564 116.112C81.3364 116.112 81.5165 116.112 81.6966 116.052C82.7169 115.992 83.7373 115.932 84.8176 115.932C85.2378 115.932 85.5979 115.932 86.0181 115.932C90.9398 115.992 95.6214 116.712 100.123 118.033C100.843 118.273 101.623 118.453 102.344 118.753C102.644 118.873 102.944 118.933 103.244 119.053C105.645 119.894 108.046 120.914 110.326 122.114C115.788 124.995 120.89 128.777 125.392 133.338C136.436 144.502 145.199 158.547 151.861 172.652C158.643 186.997 163.505 202.782 164.045 218.748C164.285 225.83 161.824 231.292 155.162 234.173Z" fill="#F27E65"/>
<path d="M236.371 94.5644C236.311 90.2429 237.931 84.781 236.731 80.6996C235.53 76.5581 231.569 73.0169 228.508 69.8958C228.328 69.7157 222.806 65.3942 219.505 64.8541C213.083 63.8337 207.08 67.7951 202.939 72.3567C197.597 78.2387 194.536 85.7413 189.554 91.8634C185.353 97.0252 179.891 101.887 178.33 108.609C175.269 121.754 187.874 132.017 199.698 133.458C213.023 135.018 225.207 127.636 231.389 115.992C234.87 109.45 236.551 101.947 236.371 94.5644Z" fill="#FEA790"/>
<path d="M185.232 101.769V108.852L193.335 123.077L219.684 116.294L206.36 110.532L200.478 104.77L185.232 101.769Z" fill="#843957"/>
<path d="M197.836 100.688C197.836 100.688 194.535 105.19 196.036 106.81C197.536 108.431 203.118 111.252 206.359 110.531C209.54 109.811 201.137 99.6677 197.836 100.688Z" fill="white"/>
<path d="M198.438 116.055C178.871 106.691 190.815 91.2659 187.874 93.4267C189.795 91.0859 177.73 106.691 169.087 111.673C164.046 114.614 159.424 118.215 161.405 124.878C164.706 135.681 175.81 142.824 186.553 144.324C198.558 146.005 210.502 140.843 219.265 132.8C223.466 128.959 231.509 120.556 231.629 114.494C231.809 109.032 210.682 121.937 198.438 116.055Z" fill="#E1E9F4"/>
<path d="M222.086 66.4776C221.966 66.4176 219.505 57.2344 216.504 54.2934C214.583 52.3727 211.342 52.3727 210.202 55.1337C209.001 58.0147 210.622 61.4359 212.482 63.5966C214.883 66.4176 218.424 67.7981 222.086 67.7381C222.866 67.7381 223.586 67.618 222.086 66.4776Z" fill="#E1E9F4"/>
<path d="M244.774 81.7253C244.594 79.2044 243.394 76.6235 241.053 75.4231C238.232 73.9826 232.95 74.8229 230.669 72.4821C230.069 71.8818 237.571 78.124 235.171 87.6673C233.25 95.41 235.231 105.313 235.471 104.893C237.872 100.932 239.552 95.47 241.713 91.3286C243.273 88.4476 245.014 85.2065 244.774 81.7253Z" fill="#E1E9F4"/>
<path d="M154.981 30.5232C145.558 24.9413 130.493 27.4021 127.072 39.1062C126.952 39.5864 127.132 40.0065 127.492 40.2466C125.031 46.1887 125.391 53.3912 127.972 59.3933C130.373 64.9752 134.274 69.8369 138.716 73.9783C142.917 77.9397 147.959 82.3812 153.781 83.4616C167.466 86.1025 169.626 70.7972 169.566 60.7737C169.566 49.0697 165.545 36.7654 154.981 30.5232Z" fill="#FEC290"/>
<path d="M110.327 121.515C108.046 120.495 105.705 119.535 103.244 118.814C103.184 118.874 103.184 118.994 103.124 119.054C102.644 120.915 102.104 122.716 101.624 124.576C101.924 122.956 102.284 121.335 102.584 119.715C102.704 119.234 102.524 118.814 102.284 118.514C101.804 117.914 100.783 117.614 100.063 117.914C99.6431 118.094 99.343 118.394 99.1629 118.934C99.0429 119.414 98.9228 119.895 98.8028 120.315C98.2626 119.234 96.522 118.634 95.6817 120.015C94.9014 121.275 94.2412 122.596 93.581 123.916C93.641 123.496 93.701 123.076 93.821 122.656C94.0611 121.215 91.6603 119.955 90.82 121.575C90.82 121.635 90.76 121.695 90.7 121.755C89.0194 121.335 87.3988 120.795 85.8383 120.195C85.5982 118.934 85.2981 117.674 84.8179 116.413C84.7579 116.293 84.6979 116.173 84.6379 116.053C83.9176 115.033 82.057 115.093 81.5168 116.113C81.3967 116.293 81.3967 116.533 81.3967 116.774V117.194C81.2767 116.834 81.0966 116.473 80.9766 116.113C76.5951 116.353 72.2135 117.014 68.0121 118.034C67.9521 118.094 67.9521 118.154 68.0721 118.274C73.7741 124.456 76.7751 131.599 77.0752 139.521C77.4354 148.164 74.9145 156.687 72.5737 165.03C72.2736 166.111 73.474 166.231 74.6144 166.051C96.2819 163.29 109.066 153.386 108.886 152.906C104.865 143.843 112.908 130.818 110.327 121.515ZM77.6154 119.114C77.7355 119.234 77.9155 119.354 78.0356 119.474C78.0956 119.715 78.1556 120.015 78.1556 120.255C77.9755 119.895 77.7955 119.535 77.6154 119.114Z" fill="#BCAAB8"/>
<path d="M133.195 75.657C135.716 69.3548 134.515 61.8522 129.534 56.9905C124.492 52.1288 116.749 51.2285 110.567 54.1095C108.706 48.7676 103.725 44.7462 97.9627 44.6262C92.2607 44.5062 87.0989 48.2875 84.9982 53.3892C78.5159 49.4879 69.4528 50.2682 64.1709 55.9101C59.0692 61.312 58.649 69.5949 62.1902 75.837C53.4272 77.3976 48.6255 87.241 51.6866 95.6439C54.9877 104.587 64.471 109.029 73.5942 108.488C73.7142 108.668 73.8943 108.788 74.1344 108.728C88.3593 105.847 103.004 107.948 115.189 116.051C115.189 116.531 115.429 116.951 115.909 117.071C121.731 118.092 129.294 117.071 133.495 112.51C136.676 109.089 137.756 104.047 135.356 100.085C141.238 92.883 140.157 81.7791 133.195 75.657Z" fill="#E4DEFF"/>
<path d="M124.251 94.3293C122.39 81.8449 114.828 69.4206 100.903 69.1205C85.7777 68.8204 75.094 81.7249 72.213 95.5297C72.153 95.8898 72.153 96.1899 72.2731 96.43C70.6525 103.753 72.3331 111.855 77.0147 117.797C84.3973 127.221 97.3618 130.762 108.406 125.84C120.95 120.318 126.172 107.354 124.251 94.3293Z" fill="#FEC290"/>
<path d="M139.676 195.401C137.936 195.522 136.375 196.122 134.935 196.962C136.735 195.642 138.656 194.441 140.577 193.181C141.537 192.58 140.937 191.02 139.796 191.38C137.936 191.98 135.895 192.821 133.914 193.961C133.794 193.781 133.734 193.601 133.614 193.481C135.475 192.34 137.456 191.5 139.256 190.36C139.976 189.88 139.676 188.859 138.836 188.799C136.375 188.619 133.554 189.639 130.973 191.2C130.853 191.14 130.733 191.08 130.673 191.02C132.774 189.94 134.875 188.919 136.795 187.839C137.516 187.419 137.275 186.038 136.315 186.158C129.113 186.999 121.37 191.02 116.988 196.902C115.008 199.543 109.606 211.967 116.388 212.327C118.129 212.447 120.169 211.607 121.79 211.187C124.011 210.647 127.372 210.407 129.353 209.326C131.754 208.006 133.674 204.225 134.514 201.524C136.135 199.903 137.876 198.403 140.156 197.382C141.177 196.962 140.697 195.341 139.676 195.401Z" fill="#FEC290"/>
<path d="M245.014 139.042C243.753 140.123 242.613 141.383 241.653 142.763C241.653 142.283 241.653 141.803 241.593 141.323C241.833 140.723 242.073 140.183 242.313 139.642C243.333 137.602 244.834 135.501 244.233 133.16C244.053 132.38 243.033 132.5 242.793 133.16C242.133 135.021 240.992 136.581 239.912 138.202C239.852 138.142 239.732 138.082 239.672 138.022C239.972 137.602 240.212 137.242 240.452 136.821C241.713 134.781 243.573 131.66 242.073 129.319C241.893 129.019 241.472 129.019 241.292 129.319C240.392 130.579 240.032 132.14 239.252 133.46C238.471 134.721 237.571 135.801 236.671 136.941C236.611 136.941 236.551 136.941 236.491 136.941C237.631 135.021 238.952 133.22 240.092 131.239C240.512 130.519 239.672 129.559 238.892 130.039C237.391 130.999 236.011 132.38 234.75 134C235.17 133.28 235.65 132.56 236.131 131.84C236.791 130.879 235.41 130.039 234.69 130.699C232.469 132.56 231.089 135.201 229.588 137.662C227.308 141.503 223.826 158.729 233.49 160.41C237.451 161.07 239.552 159.269 240.512 156.388C240.752 156.148 240.932 155.848 240.932 155.488C241.533 149.786 242.673 145.104 246.574 140.663C247.655 139.582 246.154 138.082 245.014 139.042Z" fill="#FEA790"/>
<path d="M132.474 141.801C131.694 142.642 131.033 143.602 130.493 144.622C131.634 142.041 132.234 139.22 132.234 136.279C132.234 135.679 131.393 135.559 131.213 136.159C125.451 152.125 129.773 138.62 129.233 135.259C129.113 134.719 128.212 134.599 127.972 135.079C127.012 137.06 126.352 139.16 125.571 141.201C125.751 139.64 125.751 138.08 125.451 136.639C125.271 135.799 124.131 135.919 123.891 136.639C122.63 140.181 121.91 143.722 120.049 147.023C119.749 147.503 119.449 147.983 119.149 148.404C120.049 146.363 120.23 143.962 118.849 142.161C118.309 141.441 117.229 142.101 117.168 142.822C116.928 146.183 115.188 147.983 113.207 150.564C111.947 152.245 110.986 153.985 111.226 156.266C111.587 159.267 115.788 159.747 116.508 159.687C121.01 159.507 124.731 157.407 127.612 153.985C130.133 150.984 133.194 146.063 133.014 141.981C133.134 141.741 132.714 141.561 132.474 141.801Z" fill="#FEC290"/>
<path d="M135.235 67.3146C130.013 64.9738 123.351 64.5536 117.889 66.1142C116.449 66.5343 115.068 67.1946 113.868 68.0949C114.348 66.3543 114.348 64.4936 113.448 62.9931C112.787 61.8527 111.287 62.2128 110.807 63.3532C110.387 64.4336 110.267 65.634 110.026 66.7144C108.286 63.2332 103.244 62.9331 99.7029 64.6737C99.2828 64.5536 98.8626 64.4936 98.3825 64.5536C97.062 64.6137 95.9816 65.2739 95.1413 66.1742C95.0213 65.8741 94.6612 65.694 94.3611 65.9341C93.5808 66.4743 93.1606 67.2546 93.0406 68.0348C92.5004 67.7948 91.7802 67.9148 91.4801 68.455C88.1789 62.5129 77.1351 71.276 74.4341 74.4571C72.0933 77.158 70.2327 80.9993 72.3334 84.4205C74.4341 87.7817 78.8757 88.3819 82.4169 87.7217C89.4994 86.4612 94.9012 80.1591 94.6612 73.2567C96.5818 75.5374 99.6429 76.6778 102.584 76.7379C104.505 76.7979 106.305 76.3777 107.926 75.5375C111.167 84.6006 121.49 89.4023 130.794 87.1815C135.535 86.0411 140.697 82.8 141.838 77.6982C142.678 72.9566 139.197 69.1152 135.235 67.3146ZM78.3355 76.3177C77.7953 77.038 77.2551 77.8783 76.7749 78.7186C76.2948 78.8986 75.9347 79.2587 75.6946 79.6789C75.8746 78.8986 76.2948 78.1183 76.895 77.3381C77.4352 76.6178 78.0954 75.9576 78.7556 75.2974C78.5756 75.6575 78.4555 76.0176 78.3355 76.3177ZM122.091 74.7572C122.151 74.7572 122.151 74.7572 122.151 74.7572C123.531 74.3971 124.912 74.0369 126.292 73.6768C126.472 73.7368 126.592 73.7968 126.772 73.9169C128.033 74.5771 129.113 75.8976 128.513 76.8579C127.673 77.158 126.772 77.4581 125.872 77.6382C125.332 77.5782 124.792 77.5181 124.251 77.3981C123.771 76.4378 122.991 75.5374 122.091 74.7572ZM130.914 82.1397C128.393 83.1601 125.512 83.5802 122.751 83.2201C122.931 83.1001 123.051 82.98 123.231 82.8C123.351 82.8 123.531 82.8 123.651 82.8C125.932 82.6799 128.513 82.4398 130.794 81.7196C131.094 81.7796 131.334 81.7796 131.634 81.8396C131.334 81.9597 131.154 82.0197 130.914 82.1397ZM133.014 74.157C132.714 73.5568 132.354 73.0166 131.874 72.5364C132.354 72.5364 132.774 72.6565 133.075 73.0766C133.315 73.4367 133.255 73.8569 133.014 74.157Z" fill="#E4DEFF"/>
<path d="M74.0733 97.3284C73.8932 96.7282 73.5331 96.3081 73.113 95.948C73.173 95.7079 73.113 95.4078 72.9329 95.2277C71.2523 93.3671 68.1312 93.7272 66.9308 95.8879C65.6704 98.2287 66.9308 101.29 69.5117 101.95C72.2727 102.67 74.9736 100.149 74.0733 97.3284Z" fill="#FEC290"/>
<path d="M128.033 104.531C127.193 103.09 125.512 102.37 123.951 102.97C123.531 103.15 123.051 103.45 122.691 103.81C122.571 103.93 122.451 104.05 122.331 104.171C121.791 104.891 121.611 105.731 122.211 106.451C122.211 106.571 122.271 106.691 122.331 106.811C121.791 107.352 121.611 108.252 122.331 108.792C122.451 108.852 122.511 108.912 122.631 109.032C122.691 109.092 122.751 109.092 122.751 109.092C124.072 109.933 125.752 109.993 127.073 109.032C128.453 108.072 128.873 106.091 128.033 104.531Z" fill="#FEC290"/>
<path d="M87.8794 88.5632C83.0177 88.5632 78.8162 91.6243 77.1357 95.9458C76.1753 94.2052 74.4347 93.0648 72.454 92.8247C71.3136 92.7047 71.3737 94.4453 72.454 94.5653C74.1946 94.8054 75.7552 95.7057 76.7755 97.0262C76.4754 97.9865 76.3554 99.0069 76.3554 100.087C76.3554 106.449 81.5172 111.611 87.8794 111.611C94.2416 111.611 99.4034 106.449 99.4034 100.087C99.4034 93.725 94.2416 88.5632 87.8794 88.5632ZM87.8794 109.21C82.8376 109.21 78.7562 105.129 78.7562 100.087C78.7562 95.0455 82.8376 90.9641 87.8794 90.9641C92.9211 90.9641 97.0026 95.0455 97.0026 100.087C97.0026 105.129 92.9211 109.21 87.8794 109.21Z" fill="#BEAAB3"/>
<path d="M113.567 114.313C107.205 114.313 102.043 109.151 102.043 102.789C102.043 96.4266 107.205 91.2648 113.567 91.2648C119.929 91.2648 125.091 96.4266 125.091 102.789C125.151 109.151 119.929 114.313 113.567 114.313ZM113.567 93.6656C108.525 93.6656 104.444 97.747 104.444 102.789C104.444 107.831 108.525 111.912 113.567 111.912C118.609 111.912 122.69 107.831 122.69 102.789C122.75 97.747 118.609 93.6656 113.567 93.6656Z" fill="#BEAAB3"/>
<path d="M103.124 102.731C102.104 100.63 98.9827 101.171 97.7223 102.671C97.3622 103.031 97.9023 103.631 98.2625 103.211C98.9227 102.611 99.643 102.251 100.543 102.431C101.324 102.551 101.804 102.971 102.464 103.391C102.944 103.631 103.364 103.151 103.124 102.731Z" fill="#BEAAB3"/>
<path d="M198.797 80.7004C197.176 80.6404 195.676 84.1816 197.416 85.0219C199.697 86.1623 202.158 86.7625 204.739 86.5825C206.66 86.4624 209.3 86.0423 209.42 83.7015C209.661 78.8998 204.079 80.4603 198.797 80.7004Z" fill="#E1E9F4"/>
<path d="M227.547 86.0467C225.146 84.8462 222.505 84.006 219.984 83.2257C219.264 82.9856 218.183 83.3457 217.883 84.066C217.763 84.3661 217.643 84.6662 217.463 84.9063C217.343 85.2064 217.283 85.5065 217.283 85.8066C217.163 86.3468 217.223 86.947 217.403 87.4872C218.063 89.2878 220.284 90.2481 221.845 90.9684C223.945 91.9287 226.106 92.4089 228.387 92.2288C229.107 92.1688 230.068 91.6886 230.188 90.8483C230.548 88.6276 229.527 87.007 227.547 86.0467Z" fill="#E1E9F4"/>
<path d="M240.391 105.789C238.29 103.808 234.269 103.628 232.468 106.029C232.168 106.449 232.588 106.99 233.008 106.99C233.128 106.99 233.188 106.99 233.308 106.99C232.888 107.29 232.528 107.65 232.228 108.07C232.048 108.25 231.928 108.43 231.808 108.61C231.628 108.19 231.088 108.01 230.667 108.25C228.087 109.81 229.407 113.292 231.628 114.552C234.269 116.113 238.41 115.212 240.571 113.112C242.672 111.011 242.432 107.71 240.391 105.789Z" fill="#FEA790"/>
<path d="M192.375 85.4437C190.275 83.7031 187.214 84.6034 185.713 86.6442C184.153 88.7449 184.093 91.926 185.833 93.9667C187.274 95.6473 191.415 96.6076 192.075 93.6666C192.195 93.2464 192.075 92.8263 191.775 92.5262C192.616 91.866 193.096 90.9056 193.036 89.8853C193.936 88.5048 193.756 86.5841 192.375 85.4437Z" fill="#FEA790"/>
<path d="M166.626 30.5244C164.525 25.3626 158.223 22.5417 152.881 22.7817C152.221 22.7817 151.801 23.382 151.861 23.9822C150 23.502 148.379 23.2619 147.359 23.1419C138.176 22.3616 129.413 26.8632 124.071 34.1857C123.471 34.966 124.791 36.0464 125.451 35.2661C125.571 35.086 125.752 34.906 125.872 34.7259C125.812 34.8459 125.812 34.966 125.812 35.086C125.752 35.146 125.692 35.2061 125.631 35.2661C124.911 35.7462 124.251 36.2864 123.531 36.8866C123.171 37.1867 123.171 37.6069 123.351 37.967C122.871 39.1074 124.371 40.4879 125.451 39.7076C125.571 39.6476 125.692 39.5276 125.752 39.4675C124.911 40.4279 124.191 41.6283 123.651 43.1288C123.411 43.9091 124.611 44.4493 124.971 43.669C128.452 35.8063 138.236 38.7473 144.298 41.0281C149.88 43.1288 156.242 45.2295 161.824 42.1085C166.026 39.8277 168.486 35.086 166.626 30.5244ZM163.805 33.7055C163.565 33.6455 163.265 33.6455 163.024 33.7656C162.904 33.8256 162.784 33.8256 162.724 33.8856C163.205 32.9253 163.385 32.025 163.205 31.1847C163.565 31.9049 163.805 32.7452 163.805 33.7055ZM129.473 31.3047C129.293 31.6648 129.413 32.085 129.653 32.3851C128.873 32.8052 128.092 33.2854 127.312 33.8256C127.252 33.8256 127.192 33.8256 127.132 33.8256C126.892 33.8256 126.712 33.8856 126.592 33.9456C127.492 32.9853 128.452 32.085 129.473 31.3047Z" fill="#38193A"/>
<path d="M175.028 51.4706C174.488 49.9701 172.988 49.0698 171.367 49.4299C169.807 49.73 168.846 50.9304 168.366 52.3109C167.766 53.1512 167.526 54.2316 168.006 55.1919C167.226 55.7921 167.226 57.1726 168.426 57.5327C169.687 57.8929 171.127 57.6528 172.147 56.8725C172.808 56.6324 173.408 56.2723 173.948 55.7321C175.028 54.6517 175.509 52.9111 175.028 51.4706Z" fill="#FEC290"/>
<path d="M227.067 97.9305C225.567 96.55 221.785 97.1502 220.885 99.0109C220.765 99.311 221.005 99.6111 221.305 99.551C221.605 99.491 221.845 99.371 222.146 99.2509C223.526 99.6111 224.306 100.811 224.546 102.192C224.666 102.792 225.447 102.552 225.507 102.072C225.627 100.631 224.726 99.371 223.406 98.7708C223.586 98.7107 223.766 98.7107 223.946 98.6507C224.846 98.5907 225.747 98.8908 226.647 98.8908C227.127 98.8908 227.427 98.2306 227.067 97.9305Z" fill="#FE9190"/>
<path d="M195.857 91.8679C195.857 91.8079 195.797 91.7479 195.797 91.6878C195.797 91.5678 195.737 91.4478 195.677 91.3277C195.257 90.3074 194.417 89.227 193.336 89.107C193.036 89.0469 192.856 89.5271 193.096 89.7672C193.517 90.1273 194.057 90.3074 194.477 90.6675C193.036 90.1873 191.476 90.5474 190.455 91.8679C190.155 92.228 190.515 92.8883 190.996 92.5281C192.136 91.7479 193.877 91.4478 195.197 92.108C195.377 92.168 195.497 92.168 195.617 92.108C195.617 92.168 195.917 92.048 195.857 91.8679Z" fill="#FE9190"/>
<path d="M248.074 118.998C244.472 118.278 239.611 121.879 236.85 123.68C233.729 125.72 230.127 128.601 229.287 132.443C229.167 132.923 229.767 133.283 230.127 132.923C231.808 131.182 233.128 129.382 235.049 127.821C235.769 127.221 236.55 126.681 237.33 126.2C234.569 129.142 232.768 132.923 230.247 136.104C229.827 136.644 230.367 137.484 231.028 137.124C231.988 136.524 232.828 135.804 233.609 135.024C233.308 135.564 233.128 136.104 233.068 136.644C233.068 136.944 233.369 137.124 233.609 137.064C234.449 136.824 234.809 136.344 235.409 135.744C236.189 135.024 236.97 134.363 237.81 133.643C238.53 132.983 239.251 132.323 239.971 131.722C240.271 131.482 240.571 131.302 240.871 131.062C239.851 132.323 238.89 133.703 238.35 135.264C238.29 135.564 238.59 135.684 238.77 135.504C240.451 134.123 241.771 132.383 243.392 130.942C244.232 130.222 245.193 129.502 246.033 128.781C248.074 127.881 249.994 126.681 250.775 124.7C251.675 122.359 250.655 119.538 248.074 118.998Z" fill="#FEC290"/>
<path d="M30.5594 138.924C34.1007 139.765 37.0417 145.106 38.7823 147.927C40.763 151.109 42.8037 155.25 41.9634 159.091C41.8433 159.571 41.1831 159.692 41.0031 159.151C40.2228 156.871 39.8026 154.65 38.7223 152.429C38.3021 151.589 37.8219 150.748 37.3418 149.968C38.6022 153.809 38.6022 158.011 39.5626 161.912C39.7426 162.573 38.9023 163.113 38.4222 162.512C37.7619 161.552 37.3418 160.592 36.9216 159.511C36.9817 160.112 36.9216 160.712 36.7416 161.192C36.6215 161.432 36.2614 161.492 36.0813 161.312C35.4211 160.772 35.3011 160.112 35.001 159.331C34.6408 158.371 34.1607 157.411 33.7405 156.45C33.3804 155.55 33.0203 154.65 32.6001 153.809C32.4201 153.509 32.24 153.149 32.0599 152.849C32.4201 154.47 32.7202 156.09 32.5401 157.711C32.4801 158.011 32.12 157.951 32.0599 157.771C31.0996 155.85 30.6795 153.689 29.7792 151.709C29.359 150.688 28.7588 149.668 28.2786 148.588C26.7781 146.907 25.5777 144.986 25.6977 142.886C25.8778 140.425 27.9785 138.324 30.5594 138.924Z" fill="#FEC290"/>
<path d="M200.598 103.869C200.598 103.869 206.66 116.834 216.083 116.414C225.507 116.053 225.447 110.952 225.447 110.952C225.447 110.952 213.262 115.873 203.479 99.7278C203.479 99.7278 191.175 100.268 187.333 96.1865C187.393 96.2465 183.912 111.432 200.598 103.869Z" fill="#E1E9F4"/>
<path opacity="0.58" d="M49.1062 130.16C48.8661 130.1 48.6861 130.4 48.8661 130.58C52.8275 134.601 54.8682 138.503 53.9679 144.325C53.8478 145.105 54.8682 145.405 55.1683 144.685C57.029 139.523 54.4481 132.021 49.1062 130.16Z" fill="#F25E4A"/>
<path opacity="0.58" d="M118.069 162.812C97.6619 176.197 93.8806 204.346 71.7329 215.991C71.1326 216.291 71.6128 217.311 72.213 217.071C82.8367 212.929 89.7991 203.206 95.6212 193.783C102.283 182.979 107.925 171.035 118.369 163.172C118.609 163.052 118.369 162.632 118.069 162.812Z" fill="#F25E4A"/>
<path opacity="0.58" d="M47.3045 179.677C39.6219 183.518 32.1193 188.92 27.0775 196.003C22.876 201.945 19.4549 211.008 22.5759 218.151C22.696 218.451 23.1762 218.271 23.1762 217.97C22.9361 214.069 22.696 210.588 23.7163 206.747C24.7967 202.725 26.7774 199.004 29.3583 195.763C34.4001 189.401 41.3625 185.379 48.0248 180.878C48.745 180.397 48.1448 179.257 47.3045 179.677Z" fill="#F25E4A"/>
<path opacity="0.6" d="M228.867 162.69C228.687 162.27 228.027 162.45 228.147 162.87C230.608 171.994 228.627 181.477 226.826 190.48C225.206 198.583 223.405 207.106 225.986 215.209C226.166 215.689 227.067 215.629 226.947 215.089C225.746 205.725 227.367 196.722 229.107 187.539C230.668 179.196 231.748 170.853 228.867 162.69Z" fill="#F27E65"/>
<path opacity="0.6" d="M257.379 137.121C252.997 138.741 249.576 144.143 250.896 148.885C251.136 149.665 252.277 149.485 252.277 148.705C252.337 144.023 253.597 140.422 257.619 137.721C257.919 137.541 257.739 137.001 257.379 137.121Z" fill="#F27E65"/>
<path opacity="0.6" d="M241.592 160.349C241.532 159.989 240.992 159.929 240.992 160.349C240.992 173.253 253.417 182.436 252.456 195.581C252.396 196.301 253.597 196.481 253.717 195.761C255.877 182.436 242.913 173.073 241.592 160.349Z" fill="#F27E65"/>
<path opacity="0.6" d="M186.554 219.889C175.09 211.906 177.611 198.401 179.951 186.517C182.412 173.973 182.892 161.188 180.252 148.644C180.192 148.344 179.651 148.404 179.711 148.704C180.372 156.026 180.612 163.409 180.071 170.792C179.531 178.594 177.731 186.097 176.47 193.84C174.85 203.263 175.27 217.308 186.014 221.329C186.794 221.569 187.214 220.369 186.554 219.889Z" fill="#F27E65"/>
<path opacity="0.81" d="M129.713 80.7633C129.233 76.8619 123.951 74.221 121.07 77.5822C118.429 80.6432 121.49 84.9047 125.152 83.1641C126.292 82.6239 125.332 80.8833 124.131 81.4235C123.231 78.4825 123.591 77.4621 125.272 78.1824C126.472 78.3024 127.252 79.0227 127.673 80.3431C128.333 82.2638 127.132 84.4245 125.572 85.4449C123.291 86.9454 120.41 86.6453 118.009 85.625C114.108 83.9444 111.287 80.4632 108.946 77.042C113.027 75.7815 116.629 72.3003 116.809 67.8588C116.929 63.8374 113.628 59.9961 109.426 60.7763C105.825 61.4366 103.604 66.0582 106.425 68.8791C107.145 69.5994 108.226 68.6991 107.806 67.7988C105.165 62.2769 113.448 60.7763 114.768 66.2982C115.548 69.6594 113.147 72.7805 110.387 74.341C104.985 77.4621 98.8025 75.6015 93.7007 72.7805C93.6407 72.7205 93.5807 72.7205 93.5207 72.7205C93.1605 72.1803 92.7404 71.6401 92.2002 71.1599C88.1188 67.7988 79.4158 70.4997 79.8959 76.4418C80.3161 81.8437 88.2988 82.2038 88.2988 76.5618C88.2988 75.9616 87.7587 75.4814 87.1584 75.4214C86.7983 75.4214 86.4382 75.4214 86.1381 75.3614C85.2378 75.3014 84.8776 76.2017 85.1177 76.9219C84.3375 77.222 83.5572 77.5822 82.7769 77.8823L82.1767 75.0613C82.2968 74.0409 83.6172 72.9005 84.4575 72.4804C85.958 71.7001 89.0791 71.28 90.5196 72.4204C93.7007 74.8212 92.0802 79.5629 90.2195 82.2038C86.1381 87.9058 79.8959 87.3656 73.9539 85.5649C73.7138 85.5049 73.5337 85.805 73.7138 85.9851C78.1553 90.0065 85.6579 89.0462 89.9194 85.2648C92.7404 82.744 95.3813 77.5222 93.9408 73.6208C98.0822 76.6218 103.124 78.3624 108.226 77.162C110.747 82.1438 114.828 87.1855 120.65 88.0858C125.092 88.9261 130.313 85.9251 129.713 80.7633Z" fill="white"/>
<path opacity="0.81" d="M131.634 71.0997C131.214 71.3398 131.514 72.0601 131.994 71.88C134.695 70.9197 136.855 73.0804 136.675 75.7814C136.615 76.4416 137.576 76.4416 137.756 75.9014C139.316 72.1801 134.875 69.1191 131.634 71.0997Z" fill="white"/>
<path opacity="0.81" d="M84.8772 61.7975C79.9555 59.5167 73.5333 64.1383 73.8934 69.4801C73.8934 69.8403 74.4336 69.9603 74.5536 69.6002C75.2739 67.4994 76.1142 65.4587 78.0949 64.2583C80.1356 62.9979 82.2363 63.1179 84.5171 63.1779C85.1773 63.1779 85.4774 62.0976 84.8772 61.7975Z" fill="white"/>
<path opacity="0.81" d="M62.67 81.3627C55.1073 83.1633 54.087 93.4269 59.1287 98.1685C59.849 98.8288 60.6893 97.8684 60.1491 97.1482C58.3485 94.8074 57.3881 91.6863 58.1084 88.8053C58.8286 85.8042 60.8693 84.2437 63.2101 82.5631C63.8104 82.0829 63.4502 81.1826 62.67 81.3627Z" fill="white"/>
<path opacity="0.7" d="M175.629 113.474C178.09 111.253 179.83 108.792 181.211 105.851C181.391 105.431 180.851 105.131 180.611 105.491C177.85 109.693 174.429 112.574 170.347 115.395C167.826 117.195 165.966 119.356 165.726 122.537C165.125 129.56 171.728 135.682 177.91 137.662C178.63 137.903 179.29 136.822 178.69 136.342C176.049 134.301 172.988 133.041 170.707 130.58C168.126 127.819 166.446 123.377 168.306 119.776C169.867 117.015 173.288 115.575 175.629 113.474Z" fill="white"/>
<path opacity="0.7" d="M206.12 136.338C202.999 137.359 199.818 138.379 196.516 138.559C193.155 138.739 189.914 138.199 186.613 137.599C186.313 137.539 186.133 137.959 186.373 138.079C192.315 141.56 200.898 141.02 206.42 137.119C206.9 136.939 206.66 136.158 206.12 136.338Z" fill="white"/>
<path opacity="0.7" d="M239.132 76.8605C238.652 76.6804 238.292 77.4607 238.772 77.7008C246.094 81.5421 236.911 90.5452 237.151 95.9471C237.151 96.4273 237.871 96.5473 237.991 96.0671C239.012 91.6256 242.433 87.9043 242.913 83.4027C243.273 80.4617 242.013 77.8208 239.132 76.8605Z" fill="white"/>
<path opacity="0.7" d="M203.359 68.4578C200.838 68.3977 198.017 70.1984 197.777 72.8993C197.717 73.3795 198.497 73.6196 198.677 73.1394C199.157 72.119 199.577 71.2787 200.418 70.4384C201.258 69.5982 202.218 69.118 203.419 68.9379C203.779 68.9979 203.659 68.4578 203.359 68.4578Z" fill="white"/>
<path opacity="0.7" d="M219.265 64.3757C217.704 62.6952 216.684 61.1946 216.384 58.8538C216.264 57.6534 216.204 56.2729 215.303 55.3126C214.343 54.2922 211.462 54.1122 211.762 56.0929C211.762 56.2729 212.002 56.393 212.122 56.2729C212.482 55.7928 212.962 55.7928 213.563 56.2729C214.343 56.0929 214.763 56.333 214.883 56.9332C215.303 57.5334 215.183 58.4937 215.303 59.214C215.423 60.0542 215.543 60.8945 215.903 61.7348C216.504 63.1753 217.464 64.3757 218.845 65.036C219.205 65.216 219.565 64.7359 219.265 64.3757Z" fill="white"/>
<path opacity="0.7" d="M217.285 115.512C210.262 114.731 202.88 108.549 200.539 102.667C200.419 102.367 199.939 102.487 199.999 102.787C200.059 103.087 200.119 103.447 200.239 103.808C200.119 103.747 199.999 103.747 199.819 103.868C197.298 104.948 194.897 106.028 192.136 105.248C189.075 104.408 186.914 101.647 187.514 98.4056C187.574 97.9255 186.854 97.6854 186.734 98.1655C184.573 106.328 195.077 108.669 200.419 104.828C200.479 104.828 200.479 104.768 200.479 104.768C201.979 110.53 210.502 118.693 217.525 117.012C218.365 116.712 218.065 115.572 217.285 115.512Z" fill="white"/>
<path opacity="0.71" d="M174.069 29.866C166.386 12.7 139.857 9.99911 128.993 25.4245C128.813 25.6646 129.233 25.9647 129.413 25.7846C135.775 19.6625 143.638 15.7611 152.641 16.7214C161.524 17.6818 168.367 23.2037 173.229 30.4062C173.589 30.8864 174.309 30.4062 174.069 29.866Z" fill="#843957"/>
<path opacity="0.71" d="M203.238 49.6119C198.196 51.1124 193.815 52.2528 188.593 50.3922C184.091 48.7716 180.55 45.2904 178.449 41.0289C178.329 40.7288 177.909 40.9689 178.029 41.269C179.95 45.7706 183.371 49.4318 187.813 51.4125C192.494 53.5132 199.277 53.7533 203.598 50.7523C204.258 50.3321 203.958 49.4318 203.238 49.6119Z" fill="#843957"/>
<path opacity="0.71" d="M199.517 57.7741C193.335 59.6347 187.213 58.6744 181.751 55.3132C181.511 55.1331 181.211 55.5533 181.391 55.7334C186.373 60.2349 193.635 61.3753 199.757 58.7944C200.417 58.5543 200.177 57.534 199.517 57.7741Z" fill="#843957"/>
<path d="M74.0743 115.336C73.1139 115.336 72.1536 116.177 72.2136 117.197C72.2736 118.217 73.0539 119.058 74.0743 119.058C75.0346 119.058 75.9949 118.217 75.9349 117.197C75.8749 116.177 75.0946 115.336 74.0743 115.336Z" fill="#E4DEFF"/>
<path d="M74.5533 119.718C72.2725 119.298 71.6123 122.899 73.9531 123.319C76.2339 123.679 76.8341 120.138 74.5533 119.718Z" fill="#E4DEFF"/>
<path d="M75.7559 123.74C74.8556 123.74 74.0153 124.52 74.0753 125.42C74.1353 126.321 74.7956 127.101 75.7559 127.101C76.6562 127.101 77.4965 126.321 77.4365 125.42C77.3764 124.52 76.6562 123.74 75.7559 123.74Z" fill="#E4DEFF"/>
<path d="M77.9147 126.623C76.2342 126.623 76.2342 129.264 77.9147 129.264C79.5953 129.264 79.5953 126.623 77.9147 126.623Z" fill="#E4DEFF"/>
<path d="M80.4367 128.784C78.456 128.784 78.456 131.845 80.4367 131.845C82.4174 131.845 82.4174 128.784 80.4367 128.784Z" fill="#E4DEFF"/>
<path d="M82.6573 131.179C80.7366 131.179 80.7366 134.18 82.6573 134.18C84.578 134.18 84.578 131.179 82.6573 131.179Z" fill="#E4DEFF"/>
<path d="M85.2393 132.865C83.3187 132.865 83.3187 135.806 85.2393 135.806C87.1 135.806 87.1 132.865 85.2393 132.865Z" fill="#E4DEFF"/>
<path d="M88.0593 134.246C87.399 134.246 86.7988 134.847 86.7988 135.507C86.8588 136.167 87.339 136.767 88.0593 136.767C88.7195 136.767 89.3197 136.167 89.3197 135.507C89.2597 134.847 88.7195 134.246 88.0593 134.246Z" fill="#E4DEFF"/>
<path d="M91.06 134.246C88.8993 134.246 88.8993 137.547 91.06 137.547C93.1607 137.547 93.1607 134.246 91.06 134.246Z" fill="#E4DEFF"/>
<path d="M94.2409 134.607C92.5603 134.607 92.5603 137.248 94.2409 137.248C95.9215 137.248 95.9215 134.607 94.2409 134.607Z" fill="#E4DEFF"/>
<path d="M97.0624 133.581C96.2821 133.581 95.5018 134.301 95.5618 135.081C95.6219 135.922 96.2221 136.582 97.0624 136.582C97.8426 136.582 98.6229 135.862 98.5629 135.081C98.5029 134.301 97.9027 133.581 97.0624 133.581Z" fill="#E4DEFF"/>
<path d="M100.063 132.802C98.3826 132.802 98.3826 135.442 100.063 135.442C101.744 135.442 101.744 132.802 100.063 132.802Z" fill="#E4DEFF"/>
<path d="M102.464 131.724C100.964 131.724 100.904 134.125 102.464 134.125C103.965 134.125 103.965 131.724 102.464 131.724Z" fill="#E4DEFF"/>
<path d="M105.705 130.404C105.225 130.104 104.504 130.164 104.084 130.584L104.024 130.644C103.544 131.184 103.544 131.844 104.024 132.384L104.084 132.444C104.444 132.864 105.045 132.925 105.525 132.744C106.005 132.564 106.365 132.084 106.305 131.544C106.305 131.064 106.125 130.644 105.705 130.404Z" fill="#E4DEFF"/>
<path d="M107.806 128.543C107.746 128.543 107.746 128.543 107.806 128.543C107.325 128.123 106.785 128.123 106.365 128.483L106.305 128.543C105.645 129.143 106.125 130.404 107.085 130.344C107.446 130.344 107.806 130.164 107.986 129.803C108.166 129.443 108.106 128.903 107.806 128.543Z" fill="#E4DEFF"/>
<path d="M108.167 126.021C107.627 126.021 107.146 126.501 107.146 127.041C107.146 127.582 107.567 128.062 108.167 128.062C108.707 128.062 109.187 127.582 109.187 127.041C109.127 126.501 108.707 126.021 108.167 126.021Z" fill="#E4DEFF"/>
</g>
</svg>
