<svg width="149" height="149" viewBox="0 0 149 149" fill="none" xmlns="http://www.w3.org/2000/svg">
<path d="M149 74.5C149 115.6 115.6 149 74.5 149C33.4 149 0 115.6 0 74.5C0 33.4 33.4 0 74.5 0C115.6 0 149 33.4 149 74.5Z" fill="#F8F6F6"/>
<g clip-path="url(#clip0)">
<path d="M40.6987 47.6699V54.0198C40.6987 54.8731 41.3961 55.5633 42.2555 55.5633H42.5419L43.4012 104.154C43.4386 105.961 44.4224 107.529 45.892 108.395V113.365C45.892 114.218 46.5894 114.908 47.4487 114.908H107.539C108.398 114.908 109.095 114.218 109.095 113.365V108.395C110.565 107.529 111.549 105.961 111.586 104.154L112.445 55.5633H112.732C113.591 55.5633 114.289 54.8731 114.289 54.0198V47.6699H40.6987Z" fill="#EEEEEE"/>
<path d="M44.958 108.031H110.042C110.627 107.178 110.988 106.149 111.001 105.02L111.325 85.6562H43.6753L43.9991 105.02C44.0115 106.149 44.3727 107.191 44.958 108.031Z" fill="#FFDE55"/>
<path d="M48.819 113.327H48.4204C48.3333 113.327 48.271 113.252 48.271 113.177V110.303C48.271 110.215 48.3457 110.152 48.4204 110.152H48.819C48.9061 110.152 48.9684 110.228 48.9684 110.303V113.164C48.9684 113.252 48.9061 113.327 48.819 113.327Z" fill="#BFBFBF"/>
<path d="M50.4254 113.327H50.0269C49.9397 113.327 49.8774 113.252 49.8774 113.177V110.303C49.8774 110.215 49.9522 110.152 50.0269 110.152H50.4254C50.5126 110.152 50.5749 110.228 50.5749 110.303V113.164C50.5749 113.252 50.5126 113.327 50.4254 113.327Z" fill="#BFBFBF"/>
<path d="M52.0319 113.327H51.6333C51.5462 113.327 51.4839 113.252 51.4839 113.177V110.303C51.4839 110.215 51.5586 110.152 51.6333 110.152H52.0319C52.119 110.152 52.1813 110.228 52.1813 110.303V113.164C52.1813 113.252 52.1066 113.327 52.0319 113.327Z" fill="#BFBFBF"/>
<path d="M53.6261 113.327H53.2276C53.1404 113.327 53.0781 113.252 53.0781 113.177V110.303C53.0781 110.215 53.1528 110.152 53.2276 110.152H53.6261C53.7133 110.152 53.7755 110.228 53.7755 110.303V113.164C53.788 113.252 53.7133 113.327 53.6261 113.327Z" fill="#BFBFBF"/>
<path d="M55.2325 113.327H54.834C54.7468 113.327 54.6846 113.252 54.6846 113.177V110.303C54.6846 110.215 54.7593 110.152 54.834 110.152H55.2325C55.3197 110.152 55.382 110.228 55.382 110.303V113.164C55.3944 113.252 55.3197 113.327 55.2325 113.327Z" fill="#BFBFBF"/>
<path d="M56.8395 113.327H56.441C56.3538 113.327 56.2915 113.252 56.2915 113.177V110.303C56.2915 110.215 56.3662 110.152 56.441 110.152H56.8395C56.9267 110.152 56.9889 110.228 56.9889 110.303V113.164C57.0014 113.252 56.9267 113.327 56.8395 113.327Z" fill="#BFBFBF"/>
<path d="M58.4459 113.327H58.0474C57.9602 113.327 57.8979 113.252 57.8979 113.177V110.303C57.8979 110.215 57.9727 110.152 58.0474 110.152H58.4459C58.5331 110.152 58.5954 110.228 58.5954 110.303V113.164C58.5954 113.252 58.5331 113.327 58.4459 113.327Z" fill="#BFBFBF"/>
<path d="M60.0524 113.327H59.6538C59.5667 113.327 59.5044 113.252 59.5044 113.177V110.303C59.5044 110.215 59.5791 110.152 59.6538 110.152H60.0524C60.1395 110.152 60.2018 110.228 60.2018 110.303V113.164C60.2018 113.252 60.1395 113.327 60.0524 113.327Z" fill="#BFBFBF"/>
<path d="M61.6588 113.327H61.2603C61.1731 113.327 61.1108 113.252 61.1108 113.177V110.303C61.1108 110.215 61.1856 110.152 61.2603 110.152H61.6588C61.746 110.152 61.8082 110.228 61.8082 110.303V113.164C61.8082 113.252 61.746 113.327 61.6588 113.327Z" fill="#BFBFBF"/>
<path d="M63.2653 113.327H62.8667C62.7796 113.327 62.7173 113.252 62.7173 113.177V110.303C62.7173 110.215 62.792 110.152 62.8667 110.152H63.2653C63.3524 110.152 63.4147 110.228 63.4147 110.303V113.164C63.4147 113.252 63.34 113.327 63.2653 113.327Z" fill="#BFBFBF"/>
<path d="M64.8595 113.327H64.461C64.3738 113.327 64.3115 113.252 64.3115 113.177V110.303C64.3115 110.215 64.3862 110.152 64.461 110.152H64.8595C64.9467 110.152 65.0089 110.228 65.0089 110.303V113.164C65.0214 113.252 64.9467 113.327 64.8595 113.327Z" fill="#BFBFBF"/>
<path d="M66.4659 113.327H66.0674C65.9802 113.327 65.918 113.252 65.918 113.177V110.303C65.918 110.215 65.9927 110.152 66.0674 110.152H66.4659C66.5531 110.152 66.6154 110.228 66.6154 110.303V113.164C66.6278 113.252 66.5531 113.327 66.4659 113.327Z" fill="#BFBFBF"/>
<path d="M68.0729 113.327H67.6743C67.5872 113.327 67.5249 113.252 67.5249 113.177V110.303C67.5249 110.215 67.5996 110.152 67.6743 110.152H68.0729C68.16 110.152 68.2223 110.228 68.2223 110.303V113.164C68.2223 113.252 68.16 113.327 68.0729 113.327Z" fill="#BFBFBF"/>
<path d="M69.6793 113.327H69.2808C69.1936 113.327 69.1313 113.252 69.1313 113.177V110.303C69.1313 110.215 69.2061 110.152 69.2808 110.152H69.6793C69.7665 110.152 69.8288 110.228 69.8288 110.303V113.164C69.8288 113.252 69.7665 113.327 69.6793 113.327Z" fill="#BFBFBF"/>
<path d="M71.2858 113.327H70.8872C70.8001 113.327 70.7378 113.252 70.7378 113.177V110.303C70.7378 110.215 70.8125 110.152 70.8872 110.152H71.2858C71.3729 110.152 71.4352 110.228 71.4352 110.303V113.164C71.4352 113.252 71.3729 113.327 71.2858 113.327Z" fill="#BFBFBF"/>
<path d="M72.8922 113.327H72.4937C72.4065 113.327 72.3442 113.252 72.3442 113.177V110.303C72.3442 110.215 72.419 110.152 72.4937 110.152H72.8922C72.9794 110.152 73.0417 110.228 73.0417 110.303V113.164C73.0417 113.252 72.9669 113.327 72.8922 113.327Z" fill="#BFBFBF"/>
<path d="M74.4864 113.327H74.0879C74.0007 113.327 73.9385 113.252 73.9385 113.177V110.303C73.9385 110.215 74.0132 110.152 74.0879 110.152H74.4864C74.5736 110.152 74.6359 110.228 74.6359 110.303V113.164C74.6483 113.252 74.5736 113.327 74.4864 113.327Z" fill="#BFBFBF"/>
<path d="M76.0929 113.327H75.6944C75.6072 113.327 75.5449 113.252 75.5449 113.177V110.303C75.5449 110.215 75.6196 110.152 75.6944 110.152H76.0929C76.1801 110.152 76.2423 110.228 76.2423 110.303V113.164C76.2548 113.252 76.1801 113.327 76.0929 113.327Z" fill="#BFBFBF"/>
<path d="M77.6993 113.327H77.3008C77.2136 113.327 77.1514 113.252 77.1514 113.177V110.303C77.1514 110.215 77.2261 110.152 77.3008 110.152H77.6993C77.7865 110.152 77.8488 110.228 77.8488 110.303V113.164C77.8612 113.252 77.7865 113.327 77.6993 113.327Z" fill="#BFBFBF"/>
<path d="M79.3063 113.327H78.9077C78.8206 113.327 78.7583 113.252 78.7583 113.177V110.303C78.7583 110.215 78.833 110.152 78.9077 110.152H79.3063C79.3935 110.152 79.4557 110.228 79.4557 110.303V113.164C79.4557 113.252 79.3935 113.327 79.3063 113.327Z" fill="#BFBFBF"/>
<path d="M80.9127 113.327H80.5142C80.427 113.327 80.3647 113.252 80.3647 113.177V110.303C80.3647 110.215 80.4395 110.152 80.5142 110.152H80.9127C80.9999 110.152 81.0622 110.228 81.0622 110.303V113.164C81.0622 113.252 80.9999 113.327 80.9127 113.327Z" fill="#BFBFBF"/>
<path d="M82.5192 113.327H82.1206C82.0335 113.327 81.9712 113.252 81.9712 113.177V110.303C81.9712 110.215 82.0459 110.152 82.1206 110.152H82.5192C82.6063 110.152 82.6686 110.228 82.6686 110.303V113.164C82.6686 113.252 82.5939 113.327 82.5192 113.327Z" fill="#BFBFBF"/>
<path d="M84.1134 113.327H83.7149C83.6277 113.327 83.5654 113.252 83.5654 113.177V110.303C83.5654 110.215 83.6402 110.152 83.7149 110.152H84.1134C84.2006 110.152 84.2628 110.228 84.2628 110.303V113.164C84.2753 113.252 84.2006 113.327 84.1134 113.327Z" fill="#BFBFBF"/>
<path d="M85.7198 113.327H85.3213C85.2341 113.327 85.1719 113.252 85.1719 113.177V110.303C85.1719 110.215 85.2466 110.152 85.3213 110.152H85.7198C85.807 110.152 85.8693 110.228 85.8693 110.303V113.164C85.8817 113.252 85.807 113.327 85.7198 113.327Z" fill="#BFBFBF"/>
<path d="M87.3263 113.327H86.9278C86.8406 113.327 86.7783 113.252 86.7783 113.177V110.303C86.7783 110.215 86.853 110.152 86.9278 110.152H87.3263C87.4135 110.152 87.4757 110.228 87.4757 110.303V113.164C87.4882 113.252 87.4135 113.327 87.3263 113.327Z" fill="#BFBFBF"/>
<path d="M88.9327 113.327H88.5342C88.447 113.327 88.3848 113.252 88.3848 113.177V110.303C88.3848 110.215 88.4595 110.152 88.5342 110.152H88.9327C89.0199 110.152 89.0822 110.228 89.0822 110.303V113.164C89.0822 113.252 89.0199 113.327 88.9327 113.327Z" fill="#BFBFBF"/>
<path d="M90.5397 113.327H90.1411C90.054 113.327 89.9917 113.252 89.9917 113.177V110.303C89.9917 110.215 90.0664 110.152 90.1411 110.152H90.5397C90.6268 110.152 90.6891 110.228 90.6891 110.303V113.164C90.6891 113.252 90.6268 113.327 90.5397 113.327Z" fill="#BFBFBF"/>
<path d="M92.1461 113.327H91.7476C91.6604 113.327 91.5981 113.252 91.5981 113.177V110.303C91.5981 110.215 91.6729 110.152 91.7476 110.152H92.1461C92.2333 110.152 92.2956 110.228 92.2956 110.303V113.164C92.2956 113.252 92.2333 113.327 92.1461 113.327Z" fill="#BFBFBF"/>
<path d="M93.7526 113.327H93.354C93.2669 113.327 93.2046 113.252 93.2046 113.177V110.303C93.2046 110.215 93.2793 110.152 93.354 110.152H93.7526C93.8398 110.152 93.902 110.228 93.902 110.303V113.164C93.902 113.252 93.8273 113.327 93.7526 113.327Z" fill="#BFBFBF"/>
<path d="M95.3468 113.327H94.9483C94.8611 113.327 94.7988 113.252 94.7988 113.177V110.303C94.7988 110.215 94.8735 110.152 94.9483 110.152H95.3468C95.434 110.152 95.4962 110.228 95.4962 110.303V113.164C95.5087 113.252 95.434 113.327 95.3468 113.327Z" fill="#BFBFBF"/>
<path d="M96.9532 113.327H96.5547C96.4675 113.327 96.4053 113.252 96.4053 113.177V110.303C96.4053 110.215 96.48 110.152 96.5547 110.152H96.9532C97.0404 110.152 97.1027 110.228 97.1027 110.303V113.164C97.1151 113.252 97.0404 113.327 96.9532 113.327Z" fill="#BFBFBF"/>
<path d="M98.5597 113.327H98.1612C98.074 113.327 98.0117 113.252 98.0117 113.177V110.303C98.0117 110.215 98.0864 110.152 98.1612 110.152H98.5597C98.6469 110.152 98.7091 110.228 98.7091 110.303V113.164C98.7216 113.252 98.6469 113.327 98.5597 113.327Z" fill="#BFBFBF"/>
<path d="M100.166 113.327H99.7676C99.6804 113.327 99.6182 113.252 99.6182 113.177V110.303C99.6182 110.215 99.6929 110.152 99.7676 110.152H100.166C100.253 110.152 100.316 110.228 100.316 110.303V113.164C100.316 113.252 100.253 113.327 100.166 113.327Z" fill="#BFBFBF"/>
<path d="M101.773 113.327H101.375C101.287 113.327 101.225 113.252 101.225 113.177V110.303C101.225 110.215 101.3 110.152 101.375 110.152H101.773C101.86 110.152 101.923 110.228 101.923 110.303V113.164C101.923 113.252 101.86 113.327 101.773 113.327Z" fill="#BFBFBF"/>
<path d="M103.38 113.327H102.981C102.894 113.327 102.832 113.252 102.832 113.177V110.303C102.832 110.215 102.906 110.152 102.981 110.152H103.38C103.467 110.152 103.529 110.228 103.529 110.303V113.164C103.529 113.252 103.454 113.327 103.38 113.327Z" fill="#BFBFBF"/>
<path d="M104.974 113.327H104.575C104.488 113.327 104.426 113.252 104.426 113.177V110.303C104.426 110.215 104.5 110.152 104.575 110.152H104.974C105.061 110.152 105.123 110.228 105.123 110.303V113.164C105.136 113.252 105.061 113.327 104.974 113.327Z" fill="#BFBFBF"/>
<path d="M106.58 113.327H106.182C106.094 113.327 106.032 113.252 106.032 113.177V110.303C106.032 110.215 106.107 110.152 106.182 110.152H106.58C106.667 110.152 106.73 110.228 106.73 110.303V113.164C106.742 113.252 106.667 113.327 106.58 113.327Z" fill="#BFBFBF"/>
<path d="M84.2749 85.6562V108.031H110.042C110.627 107.178 110.988 106.149 111.001 105.02L111.325 85.6562H84.2749Z" fill="#FCD63A"/>
<path d="M109.731 108.859C111.213 107.655 112.01 105.923 112.06 103.865C112.072 103.288 112.085 102.71 112.085 102.133C112.085 101.845 112.097 101.556 112.097 101.28L112.869 56.4919L113.081 56.4041C113.965 56.0527 114.526 55.3374 114.663 54.4213C114.725 53.9696 114.725 53.4927 114.712 53.0284C114.712 52.8527 114.7 52.6896 114.7 52.5264V47.6824C114.7 47.1052 114.214 46.6283 113.654 46.6283H50.2635C49.2797 46.6283 48.2834 46.6158 47.3244 46.6032C45.3941 46.5781 43.4014 46.553 41.4586 46.6283C41.4213 46.6283 41.3964 46.6283 41.359 46.6283H41.3216C41.0227 46.6283 40.7737 46.7287 40.5993 46.917L40.5744 46.942C40.3751 47.1177 40.2755 47.3687 40.2755 47.6824V52.5264C40.2755 52.6896 40.2755 52.8527 40.2755 53.0284C40.2631 53.4425 40.2631 53.8566 40.3004 54.2582C40.3876 55.2496 40.9854 56.0276 41.907 56.4041L42.1187 56.4919L42.43 74.136L42.9406 103.689C42.978 105.86 43.7875 107.642 45.2695 108.872L45.3941 108.972V112.474C45.3941 112.549 45.3941 112.624 45.3941 112.712C45.3941 113.277 45.3816 113.804 45.5684 114.306C45.9296 115.297 46.8636 115.95 47.9969 116C48.5449 116.025 49.1053 116.013 49.6533 116.013C49.9273 116.013 50.2137 116 50.4877 116H103.28C103.678 116 104.064 116 104.463 116C105.235 116 106.032 116.013 106.817 116C107.85 115.975 109.096 115.485 109.494 114.155C109.756 113.264 109.706 112.172 109.656 111.118C109.631 110.692 109.619 110.29 109.619 109.914V108.972L109.731 108.859ZM108.062 107.479C107.477 107.931 107.489 108.533 107.502 109.286C107.502 109.412 107.502 109.525 107.502 109.65V112.612C107.502 112.712 107.502 112.8 107.514 112.888C107.526 113.176 107.539 113.452 107.34 113.653C107.165 113.842 106.904 113.867 106.717 113.879C105.609 113.904 104.488 113.892 103.417 113.892C102.869 113.892 102.321 113.879 101.773 113.879H49.9895C49.8027 113.879 49.6035 113.879 49.4167 113.892C49.2299 113.892 49.0306 113.904 48.8313 113.904C48.6321 113.904 48.4328 113.904 48.2335 113.892C47.972 113.879 47.7727 113.804 47.6358 113.653C47.4365 113.427 47.4489 113.126 47.4739 112.812C47.4863 112.712 47.4863 112.599 47.4863 112.486V109.374C47.4863 108.42 47.4863 107.943 46.7142 107.354C45.6307 106.538 45.0703 105.358 45.0329 103.84C45.008 102.547 44.9831 101.23 44.9582 99.9496C44.9457 99.3096 44.9333 98.6821 44.9208 98.0421L44.186 55.601C44.1736 55.0111 43.7003 54.5343 43.1399 54.5343C42.9282 54.5343 42.6916 54.5217 42.5297 54.3586C42.3678 54.1955 42.3678 53.9696 42.3678 53.7437V53.6433V48.7491H110.69C111.001 48.7491 111.325 48.7617 111.636 48.7742C111.848 48.7868 112.047 48.7868 112.259 48.7993L112.595 48.8119V53.7437C112.595 53.9696 112.595 54.1829 112.433 54.3586C112.271 54.5217 112.035 54.5343 111.823 54.5343C111.25 54.5343 110.789 55.0111 110.777 55.601L109.98 102.459C109.967 102.924 109.967 103.388 109.955 103.852C109.93 105.371 109.345 106.475 108.062 107.479Z" fill="#BFBFBF"/>
<path d="M113.766 51.6229H41.2343C38.893 51.6229 37 49.1256 37 46.0511V38.5718C37 36.7647 37.6476 35.171 38.6564 34.142C39.3787 33.4267 40.2754 33 41.2343 33H113.753C116.095 33 117.988 35.4973 117.988 38.5718V46.0511C118 49.1256 116.107 51.6229 113.766 51.6229Z" fill="#FFDA0C"/>
<path d="M41.2839 49.1636C40.6363 49.1636 40.1133 48.4734 40.1133 47.6201V37.0035C40.1133 36.4764 40.3125 35.9996 40.6239 35.7235C40.8107 35.5604 41.0349 35.46 41.2839 35.46C41.9315 35.46 42.4546 36.1502 42.4546 37.0035V47.6326C42.4671 48.4734 41.9315 49.1636 41.2839 49.1636Z" fill="#FFE771"/>
<path d="M45.8171 49.1636C45.1695 49.1636 44.6465 48.4734 44.6465 47.6201V37.0035C44.6465 36.4764 44.8457 35.9996 45.1571 35.7235C45.3439 35.5604 45.5681 35.46 45.8171 35.46C46.4647 35.46 46.9878 36.1502 46.9878 37.0035V47.6326C46.9878 48.4734 46.4647 49.1636 45.8171 49.1636Z" fill="#FFE771"/>
<path d="M50.3381 49.1636C49.6905 49.1636 49.1675 48.4734 49.1675 47.6201V37.0035C49.1675 36.4764 49.3667 35.9996 49.6781 35.7235C49.8649 35.5604 50.0891 35.46 50.3381 35.46C50.9857 35.46 51.5088 36.1502 51.5088 37.0035V47.6326C51.5088 48.4734 50.9857 49.1636 50.3381 49.1636Z" fill="#FFE771"/>
<path d="M54.8713 49.1636C54.2237 49.1636 53.7007 48.4734 53.7007 47.6201V37.0035C53.7007 36.4764 53.8999 35.9996 54.2113 35.7235C54.3981 35.5604 54.6223 35.46 54.8713 35.46C55.5189 35.46 56.042 36.1502 56.042 37.0035V47.6326C56.042 48.4734 55.5189 49.1636 54.8713 49.1636Z" fill="#FFE771"/>
<path d="M59.3919 49.1636C58.7443 49.1636 58.2212 48.4734 58.2212 47.6201V37.0035C58.2212 36.4764 58.4205 35.9996 58.7318 35.7235C58.9186 35.5604 59.1428 35.46 59.3919 35.46C60.0395 35.46 60.5625 36.1502 60.5625 37.0035V47.6326C60.5625 48.4734 60.0395 49.1636 59.3919 49.1636Z" fill="#FFE771"/>
<path d="M63.9251 49.1636C63.2775 49.1636 62.7544 48.4734 62.7544 47.6201V37.0035C62.7544 36.4764 62.9537 35.9996 63.265 35.7235C63.4518 35.5604 63.676 35.46 63.9251 35.46C64.5727 35.46 65.0957 36.1502 65.0957 37.0035V47.6326C65.0957 48.4734 64.5727 49.1636 63.9251 49.1636Z" fill="#FFE771"/>
<path d="M68.4461 49.1636C67.7985 49.1636 67.2754 48.4734 67.2754 47.6201V37.0035C67.2754 36.4764 67.4747 35.9996 67.786 35.7235C67.9728 35.5604 68.197 35.46 68.4461 35.46C69.0937 35.46 69.6167 36.1502 69.6167 37.0035V47.6326C69.6167 48.4734 69.0937 49.1636 68.4461 49.1636Z" fill="#FFE771"/>
<path d="M72.9793 49.1636C72.3317 49.1636 71.8086 48.4734 71.8086 47.6201V37.0035C71.8086 36.4764 72.0079 35.9996 72.3192 35.7235C72.506 35.5604 72.7302 35.46 72.9793 35.46C73.6269 35.46 74.1499 36.1502 74.1499 37.0035V47.6326C74.1499 48.4734 73.6269 49.1636 72.9793 49.1636Z" fill="#FFE771"/>
<path d="M77.4998 49.1636C76.8522 49.1636 76.3291 48.4734 76.3291 47.6201V37.0035C76.3291 36.4764 76.5284 35.9996 76.8397 35.7235C77.0265 35.5604 77.2507 35.46 77.4998 35.46C78.1474 35.46 78.6704 36.1502 78.6704 37.0035V47.6326C78.6704 48.4734 78.1474 49.1636 77.4998 49.1636Z" fill="#FFE771"/>
<path d="M82.033 49.1636C81.3854 49.1636 80.8623 48.4734 80.8623 47.6201V37.0035C80.8623 36.4764 81.0616 35.9996 81.3729 35.7235C81.5597 35.5604 81.7839 35.46 82.033 35.46C82.6806 35.46 83.2037 36.1502 83.2037 37.0035V47.6326C83.2037 48.4734 82.6681 49.1636 82.033 49.1636Z" fill="#FFE771"/>
<path d="M86.554 49.1636C85.9064 49.1636 85.3833 48.4734 85.3833 47.6201V37.0035C85.3833 36.4764 85.5826 35.9996 85.8939 35.7235C86.0807 35.5604 86.3049 35.46 86.554 35.46C87.2016 35.46 87.7247 36.1502 87.7247 37.0035V47.6326C87.7247 48.4734 87.2016 49.1636 86.554 49.1636Z" fill="#FFE771"/>
<path d="M91.0745 49.1636C90.4269 49.1636 89.9038 48.4734 89.9038 47.6201V37.0035C89.9038 36.4764 90.1031 35.9996 90.4144 35.7235C90.6012 35.5604 90.8254 35.46 91.0745 35.46C91.7221 35.46 92.2452 36.1502 92.2452 37.0035V47.6326C92.2576 48.4734 91.7221 49.1636 91.0745 49.1636Z" fill="#FFE771"/>
<path d="M95.6077 49.1636C94.9601 49.1636 94.437 48.4734 94.437 47.6201V37.0035C94.437 36.4764 94.6363 35.9996 94.9476 35.7235C95.1344 35.5604 95.3586 35.46 95.6077 35.46C96.2553 35.46 96.7783 36.1502 96.7783 37.0035V47.6326C96.7783 48.4734 96.2553 49.1636 95.6077 49.1636Z" fill="#FFE771"/>
<path d="M100.129 49.1636C99.4811 49.1636 98.958 48.4734 98.958 47.6201V37.0035C98.958 36.4764 99.1573 35.9996 99.4686 35.7235C99.6554 35.5604 99.8796 35.46 100.129 35.46C100.776 35.46 101.299 36.1502 101.299 37.0035V47.6326C101.299 48.4734 100.776 49.1636 100.129 49.1636Z" fill="#FFE771"/>
<path d="M104.662 49.1636C104.014 49.1636 103.491 48.4734 103.491 47.6201V37.0035C103.491 36.4764 103.69 35.9996 104.002 35.7235C104.189 35.5604 104.413 35.46 104.662 35.46C105.309 35.46 105.833 36.1502 105.833 37.0035V47.6326C105.833 48.4734 105.309 49.1636 104.662 49.1636Z" fill="#FFE771"/>
<path d="M109.182 49.1636C108.535 49.1636 108.012 48.4734 108.012 47.6201V37.0035C108.012 36.4764 108.211 35.9996 108.522 35.7235C108.709 35.5604 108.933 35.46 109.182 35.46C109.83 35.46 110.353 36.1502 110.353 37.0035V47.6326C110.353 48.4734 109.83 49.1636 109.182 49.1636Z" fill="#FFE771"/>
<path d="M113.716 49.1636C113.068 49.1636 112.545 48.4734 112.545 47.6201V37.0035C112.545 36.4764 112.744 35.9996 113.056 35.7235C113.242 35.5604 113.467 35.46 113.716 35.46C114.363 35.46 114.886 36.1502 114.886 37.0035V47.6326C114.886 48.4734 114.363 49.1636 113.716 49.1636Z" fill="#FFE771"/>
<path d="M48.8313 54.5221C47.013 54.497 45.12 54.4594 43.2893 54.5472C43.2644 54.5472 43.227 54.5472 43.2021 54.5472H43.1647C42.9406 54.5472 42.7039 54.6476 42.542 54.8233C42.3801 54.9864 42.293 55.1998 42.293 55.4257L43.1025 102.234C43.1025 102.422 43.1025 102.598 43.1149 102.786C43.1149 103.175 43.1274 103.589 43.1398 103.991C43.3017 107.166 45.8423 109.613 49.0305 109.676C50.3506 109.701 51.7081 109.688 53.0033 109.688C53.6634 109.688 54.3359 109.676 54.9959 109.676H84.1131C86.5042 109.676 88.9452 109.688 91.299 109.701C96.0065 109.726 100.876 109.751 105.671 109.676C105.745 109.676 105.82 109.676 105.907 109.676H106.019C109.245 109.6 111.761 107.09 111.885 103.84C111.898 103.439 111.91 103.025 111.91 102.623C111.91 102.422 111.91 102.209 111.923 102.008L112.732 55.4257C112.732 55.1998 112.645 54.9864 112.483 54.8233C112.309 54.6476 112.084 54.5472 111.86 54.5472H51.596C50.6744 54.5598 49.7404 54.5347 48.8313 54.5221ZM109.918 56.3417C110.204 56.3543 110.503 56.3668 110.789 56.3668H110.964L110.179 101.318C110.167 102.046 110.154 102.774 110.142 103.501C110.092 106.049 108.398 107.856 106.019 107.919H88.1855H49.8276C48.6694 107.919 47.6357 107.868 46.6643 107.191C45.4687 106.363 44.8958 105.095 44.8585 103.2L44.049 56.3041H109.033C109.307 56.3041 109.619 56.3166 109.918 56.3417Z" fill="#BFBFBF"/>
<path d="M107.252 52.9784V106.563C107.252 107.316 106.655 107.918 105.907 107.918H88.472C87.7247 107.918 87.127 107.316 87.127 106.563V52.9784C87.127 52.2254 87.7247 51.623 88.472 51.623H105.907C106.642 51.623 107.252 52.238 107.252 52.9784Z" fill="white"/>
<path d="M105.285 94.8779L105.285 93.4473L93.2298 93.4476L93.2298 94.8782L105.285 94.8779Z" fill="#231F20"/>
<path d="M105.278 97.2794L105.278 96.1123L93.223 96.1127L93.223 97.2798L105.278 97.2794Z" fill="#231F20"/>
<path d="M105.287 55.9543L105.287 55.3018L93.2313 55.3022L93.2313 55.9548L105.287 55.9543Z" fill="#231F20"/>
<path d="M105.283 56.654L105.283 56.29L93.2279 56.2905L93.2279 56.6544L105.283 56.654Z" fill="#231F20"/>
<path d="M105.283 57.6569L105.283 57.293L93.2274 57.2934L93.2274 57.6573L105.283 57.6569Z" fill="#231F20"/>
<path d="M105.283 59.3258L105.283 58.9619L93.2274 58.9623L93.2274 59.3262L105.283 59.3258Z" fill="#231F20"/>
<path d="M105.278 60.3502L105.278 59.9863L93.2229 59.9867L93.2229 60.3506L105.278 60.3502Z" fill="#231F20"/>
<path d="M105.285 64.4479L105.285 64.084L93.2298 64.0844L93.2298 64.4483L105.285 64.4479Z" fill="#231F20"/>
<path d="M105.277 65.068L105.277 64.7041L93.222 64.7045L93.222 65.0684L105.277 65.068Z" fill="#231F20"/>
<path d="M105.278 66.7995L105.278 66.4355L93.2225 66.436L93.2225 66.7999L105.278 66.7995Z" fill="#231F20"/>
<path d="M105.283 69.8415L105.283 69.4775L93.2273 69.478L93.2273 69.8419L105.283 69.8415Z" fill="#231F20"/>
<path d="M105.277 70.5387L105.277 70.1748L93.2215 70.1752L93.2215 70.5391L105.277 70.5387Z" fill="#231F20"/>
<path d="M105.277 73.5377L105.277 73.1738L93.222 73.1742L93.222 73.5382L105.277 73.5377Z" fill="#231F20"/>
<path d="M105.284 74.1715L105.284 73.8076L93.2283 73.808L93.2284 74.1719L105.284 74.1715Z" fill="#231F20"/>
<path d="M105.284 75.9039L105.284 75.54L93.2288 75.5405L93.2288 75.9044L105.284 75.9039Z" fill="#231F20"/>
<path d="M105.285 81.6774L105.285 81.3135L93.2298 81.3139L93.2298 81.6778L105.285 81.6774Z" fill="#231F20"/>
<path d="M105.285 84.3249L105.285 83.9609L93.2298 83.9613L93.2299 84.3253L105.285 84.3249Z" fill="#231F20"/>
<path d="M105.286 85.3668L105.286 85.0029L93.2303 85.0033L93.2303 85.3672L105.286 85.3668Z" fill="#231F20"/>
<path d="M105.28 87.3942L105.28 87.0303L93.2249 87.0307L93.225 87.3946L105.28 87.3942Z" fill="#231F20"/>
<path d="M105.289 89.0846L105.289 88.7207L93.2333 88.7211L93.2333 89.085L105.289 89.0846Z" fill="#231F20"/>
<path d="M105.284 91.8024L105.284 91.4385L93.2284 91.4389L93.2284 91.8028L105.284 91.8024Z" fill="#231F20"/>
<path d="M105.284 92.8444L105.284 92.4805L93.2288 92.4809L93.2288 92.8448L105.284 92.8444Z" fill="#231F20"/>
<path d="M105.285 95.5055L105.285 95.1416L93.2298 95.142L93.2298 95.5059L105.285 95.5055Z" fill="#231F20"/>
<path d="M105.289 99.2233L105.289 98.8594L93.2332 98.8598L93.2332 99.2237L105.289 99.2233Z" fill="#231F20"/>
<path d="M105.278 103.279L105.278 102.915L93.2229 102.915L93.223 103.279L105.278 103.279Z" fill="#231F20"/>
<path d="M105.28 62.3479L105.28 61.6953L93.2249 61.6955L93.2249 62.3481L105.28 62.3479Z" fill="#231F20"/>
<path d="M105.282 63.4035L105.282 62.751L93.2269 62.7514L93.2269 63.404L105.282 63.4035Z" fill="#231F20"/>
<path d="M105.285 69.1796L105.285 67.749L93.2298 67.7495L93.2299 69.1801L105.285 69.1796Z" fill="#231F20"/>
<path d="M105.284 72.8544L105.284 71.4238L93.2283 71.4241L93.2284 72.8547L105.284 72.8544Z" fill="#231F20"/>
<path d="M105.279 83.6406L105.279 82.21L93.2235 82.2103L93.2235 83.6409L105.279 83.6406Z" fill="#231F20"/>
<path d="M105.28 90.7939L105.28 89.3633L93.2245 89.3637L93.2245 90.7943L105.28 90.7939Z" fill="#231F20"/>
<path d="M105.288 102.674L105.288 101.507L93.2327 101.507L93.2328 102.674L105.288 102.674Z" fill="#231F20"/>
<path d="M105.283 80.5832L105.283 79.9307L93.2279 79.9309L93.2279 80.5835L105.283 80.5832Z" fill="#231F20"/>
<path d="M105.281 86.3283L105.281 85.6758L93.2259 85.6762L93.2259 86.3288L105.281 86.3283Z" fill="#231F20"/>
<path d="M105.289 98.4953L105.289 97.8428L93.2332 97.8432L93.2333 98.4958L105.289 98.4953Z" fill="#231F20"/>
<path d="M105.288 100.566L105.288 99.9131L93.2327 99.9136L93.2327 100.566L105.288 100.566Z" fill="#231F20"/>
<path d="M105.287 104.24L105.287 103.588L93.2313 103.588L93.2313 104.241L105.287 104.24Z" fill="#231F20"/>
<path d="M105.277 79.259L105.277 78.6064L93.2215 78.6069L93.2215 79.2595L105.277 79.259Z" fill="#231F20"/>
<path d="M105.283 78.2736L105.283 77.6211L93.2274 77.6213L93.2274 78.2739L105.283 78.2736Z" fill="#231F20"/>
<path d="M105.288 77.2883L105.288 76.6357L93.2327 76.6362L93.2328 77.2888L105.288 77.2883Z" fill="#231F20"/>
<path d="M92.5567 72.9444H91.0124C90.4271 72.9444 90.178 73.1954 90.178 73.5217C90.178 73.8856 90.4396 74.1241 91.0124 74.1241H92.5567V74.4503H91.0373C90.2403 74.4503 89.9165 74.0488 89.9165 73.5091C89.9165 72.9946 90.2154 72.6182 91.0373 72.6182H92.5692V72.9444H92.5567Z" fill="#231F20"/>
<path d="M91.2366 75.0028C91.4608 75.0028 91.6476 75.0028 91.8219 74.9902V75.2789L91.4483 75.2914V75.304C91.6974 75.3793 91.8593 75.58 91.8593 75.8059C91.8593 75.8436 91.8593 75.8687 91.8468 75.8938H91.523C91.5355 75.8561 91.5355 75.831 91.5355 75.7808C91.5355 75.5549 91.3611 75.3918 91.0996 75.3416C91.0498 75.3291 91 75.3291 90.9377 75.3291H89.9414V75.0028H91.2366Z" fill="#231F20"/>
<path d="M92.345 76.5958C92.2329 76.5958 92.1333 76.5205 92.1333 76.3824C92.1333 76.2695 92.2205 76.1816 92.345 76.1816C92.4695 76.1816 92.5567 76.2569 92.5567 76.3824C92.5567 76.5205 92.4695 76.5958 92.345 76.5958ZM89.9414 76.2318H91.8095V76.5581H89.9414V76.2318Z" fill="#231F20"/>
<path d="M91.3113 77.0985C91.5106 77.0985 91.66 77.0985 91.8219 77.0859V77.3746L91.5106 77.3871V77.3997C91.6849 77.4875 91.8593 77.7008 91.8593 77.9895C91.8593 78.2405 91.7099 78.6295 91.0623 78.6295H89.9414V78.3032H91.0249C91.3238 78.3032 91.5729 78.1903 91.5729 77.8891C91.5729 77.6758 91.411 77.5126 91.2242 77.4499C91.1868 77.4373 91.1245 77.4248 91.0623 77.4248H89.9414V77.0985H91.3113Z" fill="#231F20"/>
<path d="M90.39 80.424C90.2281 80.424 90.0662 80.4366 89.9417 80.4491V80.1605L90.1783 80.1354V80.1229C90.0288 80.0225 89.9043 79.8342 89.9043 79.5707C89.9043 79.2068 90.1658 79.0186 90.4398 79.0186C90.8882 79.0186 91.1372 79.4076 91.1372 80.0978H91.1746C91.3241 80.0978 91.6105 80.0601 91.6105 79.6962C91.6105 79.5205 91.5607 79.3574 91.4735 79.2193L91.6977 79.144C91.7973 79.2946 91.8596 79.508 91.8596 79.7338C91.8596 80.286 91.4735 80.4115 91.0999 80.4115H90.39V80.424ZM90.9006 80.1103C90.9131 79.7589 90.8383 79.3448 90.4772 79.3448C90.253 79.3448 90.1534 79.4829 90.1534 79.646C90.1534 79.8844 90.3028 80.035 90.4647 80.0852C90.5021 80.0978 90.5395 80.0978 90.5768 80.0978H90.9006V80.1103Z" fill="#231F20"/>
<path d="M92.6937 80.9502V81.2765H89.9414V80.9502H92.6937Z" fill="#231F20"/>
<path d="M91.8221 81.942L90.7137 82.3311C90.5892 82.3813 90.4398 82.4189 90.3277 82.444V82.4566C90.4398 82.4942 90.5892 82.5319 90.7137 82.5695L91.8097 82.9209V83.2597L90.4771 82.7703C89.8295 82.5319 89.5057 82.3813 89.3064 82.1554C89.1695 81.9922 89.1072 81.8417 89.0947 81.7538L89.3812 81.6785C89.4061 81.7538 89.4683 81.8668 89.5431 81.9671C89.6178 82.055 89.7423 82.1679 89.9167 82.2432C89.9541 82.2558 89.979 82.2683 90.0039 82.2683C90.0288 82.2683 90.0537 82.2558 90.091 82.2432L91.8221 81.5781V81.942Z" fill="#231F20"/>
<path d="M90.2901 83.4983C90.2279 83.5987 90.1531 83.7744 90.1531 83.9375C90.1531 84.176 90.2777 84.2764 90.4271 84.2764C90.589 84.2764 90.6762 84.1885 90.7634 83.9501C90.8879 83.6238 91.0747 83.4732 91.2989 83.4732C91.5978 83.4732 91.8469 83.7116 91.8469 84.0881C91.8469 84.2638 91.797 84.4269 91.7348 84.5273L91.4857 84.452C91.5355 84.3767 91.5978 84.2513 91.5978 84.0881C91.5978 83.8999 91.4857 83.7869 91.3362 83.7869C91.1868 83.7869 91.1121 83.8873 91.0124 84.1258C90.8879 84.4395 90.726 84.6026 90.452 84.6026C90.1158 84.6026 89.8916 84.3516 89.8916 83.9375C89.8916 83.7367 89.9414 83.561 90.0286 83.4355L90.2901 83.4983Z" fill="#231F20"/>
<path d="M92.345 85.3809C92.2329 85.3809 92.1333 85.3056 92.1333 85.1676C92.1333 85.0546 92.2205 84.9668 92.345 84.9668C92.4695 84.9668 92.5567 85.0421 92.5567 85.1676C92.5567 85.2931 92.4695 85.3809 92.345 85.3809ZM89.9414 85.017H91.8095V85.3433H89.9414V85.017Z" fill="#231F20"/>
<path d="M90.2901 85.8323C90.2279 85.9327 90.1531 86.1084 90.1531 86.2715C90.1531 86.5099 90.2777 86.6103 90.4271 86.6103C90.589 86.6103 90.6762 86.5225 90.7634 86.2841C90.8879 85.9578 91.0747 85.8072 91.2989 85.8072C91.5978 85.8072 91.8469 86.0456 91.8469 86.4221C91.8469 86.5978 91.797 86.7609 91.7348 86.8613L91.4857 86.786C91.5355 86.7107 91.5978 86.5852 91.5978 86.4221C91.5978 86.2339 91.4857 86.1209 91.3362 86.1209C91.1868 86.1209 91.1121 86.2213 91.0124 86.4597C90.8879 86.7735 90.726 86.9366 90.452 86.9366C90.1158 86.9366 89.8916 86.6856 89.8916 86.2715C89.8916 86.0707 89.9414 85.895 90.0286 85.7695L90.2901 85.8323Z" fill="#231F20"/>
</g>
<defs>
<clipPath id="clip0">
<rect x="37" y="33" width="81" height="83" fill="white"/>
</clipPath>
</defs>
</svg>
