<svg width="149" height="149" viewBox="0 0 149 149" fill="none" xmlns="http://www.w3.org/2000/svg">
<path d="M149 74.5C149 115.6 115.6 149 74.5 149C33.4 149 0 115.6 0 74.5C0 33.4 33.4 0 74.5 0C115.6 0 149 33.4 149 74.5Z" fill="#F8F6F6"/>
<path d="M149 74.5C149 115.6 115.6 149 74.5 149C33.4 149 0 115.6 0 74.5C0 33.4 33.4 0 74.5 0C115.6 0 149 33.4 149 74.5Z" fill="#F8F6F6"/>
<mask id="mask0" mask-type="alpha" maskUnits="userSpaceOnUse" x="0" y="0" width="149" height="149">
<path d="M149 74.5C149 115.6 115.6 149 74.5 149C33.4 149 0 115.6 0 74.5C0 33.4 33.4 0 74.5 0C115.6 0 149 33.4 149 74.5Z" fill="#F8F6F6"/>
</mask>
<g mask="url(#mask0)">
<path d="M144.241 78.8742L130.213 16.1812C129.353 12.3271 125.874 9.57422 121.834 9.57422H28.8403C24.8003 9.57422 21.3215 12.3271 20.4611 16.1812L6.43352 78.8742C3.47837 92.0882 2.50579 105.669 3.51577 119.177C6.39611 158.011 37.7057 188 75.3371 188C112.968 188 144.278 158.011 147.158 119.177C148.168 105.669 147.196 92.0882 144.241 78.8742Z" fill="#E1E4EA"/>
<path d="M130.212 15.3717C129.352 11.5176 125.873 8.76465 121.833 8.76465H28.839C24.799 8.76465 21.3202 11.5176 20.4598 15.3717L20.0483 17.2437H130.661L130.212 15.3717Z" fill="#A9AFB5"/>
<path d="M144.24 78.633C140.499 66.2999 125.686 30.5121 125.686 30.5121C123.442 24.6759 117.718 20.7852 111.359 20.7852H39.2759C32.9167 20.7852 27.1934 24.6392 24.949 30.5121C24.949 30.5121 10.1359 66.2999 6.39517 78.633C2.46744 91.59 2.46744 105.428 3.47743 118.936C6.35776 157.77 37.6674 187.758 75.2988 187.758C112.93 187.758 144.24 157.77 147.12 118.936C148.168 105.428 148.168 91.59 144.24 78.633Z" fill="#F9F9F9"/>
<path d="M116.782 84.5624C116.071 81.8828 114.724 78.5059 113.116 74.7253C106.756 59.7494 91.8685 50.0225 75.3346 50.0225C58.8007 50.0225 43.9128 59.7861 37.5536 74.7253C35.9451 78.5059 34.6358 81.8828 33.8877 84.5624C31.0822 94.95 31.4563 107.173 32.0922 116.68C32.9525 129.894 38.0025 142.043 46.2694 150.926C54.2745 159.515 64.5988 164.25 75.3346 164.25C86.0704 164.25 96.3947 159.515 104.4 150.926C112.667 142.043 117.717 129.894 118.577 116.68C119.213 107.173 119.587 94.95 116.782 84.5624Z" fill="#D2D5D8"/>
<path d="M116.781 84.5622C116.07 81.8827 114.723 78.5058 113.115 74.7252C106.756 59.7494 91.8678 50.0225 75.3339 50.0225C58.8001 50.0225 43.9121 59.7861 37.5529 74.7252C35.9444 78.5058 34.6352 81.8827 33.8871 84.5622C31.7549 92.4171 31.4556 101.337 31.7175 109.338C31.9045 103.906 32.503 98.3634 33.8871 93.2614C34.5978 90.5819 35.9444 87.205 37.5529 83.4243C43.9121 68.4485 58.8001 58.7216 75.3339 58.7216C91.8678 58.7216 106.756 68.4853 113.115 83.4243C114.723 87.205 116.033 90.5819 116.781 93.2614C118.165 98.3634 118.763 103.906 118.95 109.338C119.212 101.373 118.876 92.4538 116.781 84.5622Z" fill="#A9AFB5"/>
<path d="M75.3372 -75.7656C28.6159 -75.7656 -9.27734 -52.7145 -9.27734 -24.3411C-9.27734 -11.0904 -1.04781 0.985786 12.4935 10.0888C18.2168 13.9429 25.0249 15.9984 31.9451 15.9984H118.692C125.65 15.9984 132.42 13.9429 138.144 10.0888C151.685 0.985786 159.914 -11.0904 159.914 -24.3411C159.952 -52.7145 122.059 -75.7656 75.3372 -75.7656Z" fill="#E1E1E1"/>
<path d="M75.3355 -80.7598C27.8287 -80.7598 -10.6631 -56.6809 -10.6631 -27.0229C-10.6631 -13.1849 -2.28393 -0.558159 11.4818 8.98528C17.3173 13.0229 24.2002 15.1518 31.2701 15.1518H31.9809C25.0232 15.1518 18.2525 13.0963 12.5292 9.24221C-1.01209 0.139244 -9.24162 -11.9369 -9.24162 -25.1876C-9.27903 -53.561 28.6142 -76.612 75.3355 -76.612C122.057 -76.612 159.95 -53.561 159.95 -25.1876C159.95 -11.9369 151.721 0.139244 138.179 9.24221C132.456 13.0963 125.648 15.1518 118.728 15.1518H119.438C126.508 15.1518 133.391 13.0229 139.227 8.98528C152.992 -0.558159 161.372 -13.1482 161.372 -27.0229C161.334 -56.6809 122.842 -80.7598 75.3355 -80.7598Z" fill="#F2F5F7"/>
<path d="M83.3412 67.9512H67.3685C61.3834 67.9512 56.5205 72.7229 56.5205 78.5958V97.9764C56.5205 108.181 64.937 116.439 75.3362 116.439C85.7353 116.439 94.1518 108.181 94.1518 97.9764V78.5591C94.1518 72.7229 89.2889 67.9512 83.3412 67.9512Z" fill="#A9AFB5"/>
<path d="M56.5984 13.6104H34.1169C33.4061 13.6104 32.8076 14.1976 32.8076 14.895C32.8076 17.6478 35.0894 19.8867 37.895 19.8867H56.5984C57.3092 19.8867 57.9077 19.2994 57.9077 18.6021V14.895C57.9077 14.1609 57.3092 13.6104 56.5984 13.6104Z" fill="#F2F5F7"/>
<path d="M116.556 13.6104H94.0744C93.3636 13.6104 92.7651 14.1976 92.7651 14.895V18.6023C92.7651 19.2997 93.3636 19.887 94.0744 19.887H112.778C115.583 19.887 117.865 17.6479 117.865 14.895C117.865 14.1609 117.304 13.6104 116.556 13.6104Z" fill="#F2F5F7"/>
<path d="M117.716 16.1426C117.154 18.3083 115.172 19.8868 112.778 19.8868H94.0744C93.3636 19.8868 92.7651 19.2994 92.7651 18.602V20.4741C92.7651 21.1715 93.3636 21.7589 94.0744 21.7589H112.778C115.583 21.7589 117.865 19.5197 117.865 16.7666C117.865 16.5464 117.828 16.3261 117.716 16.1426Z" fill="#A9AFB5"/>
<path d="M56.593 19.8868H37.8894C35.5328 19.8868 33.5128 18.3083 32.9517 16.1426C32.8395 16.3261 32.7646 16.5464 32.7646 16.7666C32.7646 19.5197 35.0465 21.7589 37.852 21.7589H56.5556C57.2663 21.7589 57.8648 21.1715 57.8648 20.4741V18.602C57.9022 19.2994 57.3037 19.8868 56.593 19.8868Z" fill="#A9AFB5"/>
<path d="M83.4583 79.4053H67.2498C61.1764 79.4053 56.2417 84.2352 56.2417 90.1798V97.4619C56.2417 107.791 64.7825 116.15 75.3351 116.15C85.8877 116.15 94.4284 107.791 94.4284 97.4619V90.1798C94.4284 84.2352 89.4938 79.4053 83.4583 79.4053Z" fill="url(#paint0_radial)"/>
</g>
<defs>
<radialGradient id="paint0_radial" cx="0" cy="0" r="1" gradientUnits="userSpaceOnUse" gradientTransform="translate(75.3347 95.3929) rotate(89.9989) scale(20.7572 21.5717)">
<stop stop-color="#EA532C"/>
<stop offset="1" stop-color="#FBE8A3"/>
</radialGradient>
</defs>
</svg>
