<svg width="149" height="149" viewBox="0 0 149 149" fill="none" xmlns="http://www.w3.org/2000/svg">
<path d="M149 74.5C149 115.6 115.6 149 74.5 149C33.4 149 0 115.6 0 74.5C0 33.4 33.4 0 74.5 0C115.6 0 149 33.4 149 74.5Z" fill="#F8F6F6"/>
<mask id="mask0" mask-type="alpha" maskUnits="userSpaceOnUse" x="0" y="0" width="149" height="149">
<path d="M149 74.5C149 115.6 115.6 149 74.5 149C33.4 149 0 115.6 0 74.5C0 33.4 33.4 0 74.5 0C115.6 0 149 33.4 149 74.5Z" fill="#F8F6F6"/>
</mask>
<g mask="url(#mask0)">
<path d="M144.402 78.8742L130.375 16.1812C129.514 12.3271 126.035 9.57422 121.996 9.57422H29.0019C24.9619 9.57422 21.4831 12.3271 20.6227 16.1812L6.59514 78.8742C3.63999 92.0882 2.66741 105.669 3.6774 119.177C6.55773 158.011 37.8673 188 75.4987 188C113.13 188 144.44 158.011 147.32 119.177C148.33 105.669 147.357 92.0882 144.402 78.8742Z" fill="#E1E4EA"/>
<path d="M130.374 15.3717C129.513 11.5176 126.034 8.76465 121.994 8.76465H29.0006C24.9606 8.76465 21.4818 11.5176 20.6214 15.3717L20.21 17.2437H130.822L130.374 15.3717Z" fill="#A9AFB5"/>
<path d="M144.401 78.633C140.661 66.2999 125.848 30.5121 125.848 30.5121C123.603 24.6759 117.88 20.7852 111.521 20.7852H39.4375C33.0783 20.7852 27.3551 24.6392 25.1106 30.5121C25.1106 30.5121 10.2975 66.2999 6.55679 78.633C2.62906 91.59 2.62906 105.428 3.63905 118.936C6.51939 157.77 37.829 187.758 75.4604 187.758C113.092 187.758 144.401 157.77 147.282 118.936C148.329 105.428 148.329 91.59 144.401 78.633Z" fill="#F9F9F9"/>
<path d="M116.943 84.5624C116.232 81.8828 114.886 78.5059 113.277 74.7253C106.918 59.7494 92.0301 50.0225 75.4962 50.0225C58.9624 50.0225 44.0744 59.7861 37.7152 74.7253C36.1067 78.5059 34.7975 81.8828 34.0493 84.5624C31.2438 94.95 31.6179 107.173 32.2538 116.68C33.1141 129.894 38.1641 142.043 46.431 150.926C54.4361 159.515 64.7604 164.25 75.4962 164.25C86.232 164.25 96.5563 159.515 104.561 150.926C112.828 142.043 117.878 129.894 118.739 116.68C119.375 107.173 119.749 94.95 116.943 84.5624Z" fill="#D2D5D8"/>
<path d="M116.942 84.5622C116.232 81.8827 114.885 78.5058 113.277 74.7252C106.917 59.7494 92.0294 50.0225 75.4956 50.0225C58.9617 50.0225 44.0737 59.7861 37.7146 74.7252C36.1061 78.5058 34.7968 81.8827 34.0487 84.5622C31.9165 92.4171 31.6172 101.337 31.8791 109.338C32.0661 103.906 32.6646 98.3634 34.0487 93.2614C34.7594 90.5819 36.1061 87.205 37.7146 83.4243C44.0737 68.4485 58.9617 58.7216 75.4956 58.7216C92.0294 58.7216 106.917 68.4853 113.277 83.4243C114.885 87.205 116.194 90.5819 116.942 93.2614C118.326 98.3634 118.925 103.906 119.112 109.338C119.374 101.373 119.037 92.4538 116.942 84.5622Z" fill="#A9AFB5"/>
<path d="M75.4989 -75.7656C28.7775 -75.7656 -9.11572 -52.7145 -9.11572 -24.3411C-9.11572 -11.0904 -0.886188 0.985786 12.6551 10.0888C18.3784 13.9429 25.1865 15.9984 32.1068 15.9984H118.854C125.811 15.9984 132.582 13.9429 138.305 10.0888C151.847 0.985786 160.076 -11.0904 160.076 -24.3411C160.113 -52.7145 122.22 -75.7656 75.4989 -75.7656Z" fill="#E1E1E1"/>
<path d="M75.4971 -80.7598C27.9903 -80.7598 -10.5015 -56.6809 -10.5015 -27.0229C-10.5015 -13.1849 -2.12231 -0.558159 11.6435 8.98528C17.4789 13.0229 24.3618 15.1518 31.4317 15.1518H32.1425C25.1848 15.1518 18.4141 13.0963 12.6909 9.24221C-0.85047 0.139244 -9.08 -11.9369 -9.08 -25.1876C-9.11741 -53.561 28.7758 -76.612 75.4971 -76.612C122.218 -76.612 160.112 -53.561 160.112 -25.1876C160.112 -11.9369 151.882 0.139244 138.341 9.24221C132.618 13.0963 125.809 15.1518 118.889 15.1518H119.6C126.67 15.1518 133.553 13.0229 139.388 8.98528C153.154 -0.558159 161.533 -13.1482 161.533 -27.0229C161.496 -56.6809 123.004 -80.7598 75.4971 -80.7598Z" fill="#F2F5F7"/>
<path d="M83.5028 67.9512H67.5301C61.545 67.9512 56.6821 72.7229 56.6821 78.5958V97.9764C56.6821 108.181 65.0987 116.439 75.4978 116.439C85.8969 116.439 94.3134 108.181 94.3134 97.9764V78.5591C94.3134 72.7229 89.4505 67.9512 83.5028 67.9512Z" fill="#A9AFB5"/>
<path d="M56.76 13.6104H34.2785C33.5677 13.6104 32.9692 14.1976 32.9692 14.895C32.9692 17.6478 35.2511 19.8867 38.0566 19.8867H56.76C57.4708 19.8867 58.0693 19.2994 58.0693 18.6021V14.895C58.0693 14.1609 57.4708 13.6104 56.76 13.6104Z" fill="#F2F5F7"/>
<path d="M116.718 13.6104H94.236C93.5253 13.6104 92.9268 14.1976 92.9268 14.895V18.6023C92.9268 19.2997 93.5253 19.887 94.236 19.887H112.939C115.745 19.887 118.027 17.6479 118.027 14.895C118.027 14.1609 117.466 13.6104 116.718 13.6104Z" fill="#F2F5F7"/>
<path d="M117.877 16.1426C117.316 18.3083 115.334 19.8868 112.939 19.8868H94.236C93.5253 19.8868 92.9268 19.2994 92.9268 18.602V20.4741C92.9268 21.1715 93.5253 21.7589 94.236 21.7589H112.939C115.745 21.7589 118.027 19.5197 118.027 16.7666C118.027 16.5464 117.989 16.3261 117.877 16.1426Z" fill="#A9AFB5"/>
<path d="M56.7546 19.8868H38.051C35.6944 19.8868 33.6744 18.3083 33.1133 16.1426C33.0011 16.3261 32.9263 16.5464 32.9263 16.7666C32.9263 19.5197 35.2081 21.7589 38.0136 21.7589H56.7172C57.4279 21.7589 58.0264 21.1715 58.0264 20.4741V18.602C58.0638 19.2994 57.4653 19.8868 56.7546 19.8868Z" fill="#A9AFB5"/>
<path d="M83.6199 79.4053H67.4114C61.338 79.4053 56.4033 84.2352 56.4033 90.1798V97.4619C56.4033 107.791 64.9441 116.15 75.4967 116.15C86.0493 116.15 94.59 107.791 94.59 97.4619V90.1798C94.59 84.2352 89.6554 79.4053 83.6199 79.4053Z" fill="url(#paint0_radial)"/>
</g>
<defs>
<radialGradient id="paint0_radial" cx="0" cy="0" r="1" gradientUnits="userSpaceOnUse" gradientTransform="translate(75.4963 95.3929) rotate(89.9989) scale(20.7572 21.5717)">
<stop offset="0.0677083" stop-color="#AA2665"/>
<stop offset="0.921875" stop-color="#C48570"/>
</radialGradient>
</defs>
</svg>
