<svg width="250" height="230" viewBox="0 0 250 230" fill="none" xmlns="http://www.w3.org/2000/svg">
<mask id="mask0" mask-type="alpha" maskUnits="userSpaceOnUse" x="0" y="0" width="250" height="230">
<rect width="250" height="230" fill="#F9F9F9"/>
</mask>
<g mask="url(#mask0)">
<path fill-rule="evenodd" clip-rule="evenodd" d="M16.2328 138.944C3.65058 103.302 -3.80335 60.7376 19.8104 31.2269C42.8555 2.42689 85.2675 9.0225 122.077 6.66826C161.003 4.17859 206.394 -11.1391 232.763 17.6069C259.481 46.7339 249.884 93.4785 235.467 130.28C224.094 159.313 194.322 172.24 166.598 186.506C139.472 200.466 111.645 218.169 82.5571 208.968C50.3088 198.768 27.4927 170.84 16.2328 138.944Z" fill="#D2F8FD"/>
<path d="M238.938 178.865C238.938 181.749 166.586 184.462 103.627 184.462C40.6686 184.462 11.3999 179.007 11.3999 176.124C11.3999 169.362 62.4364 170.911 125.395 170.911C188.354 170.911 238.938 175.982 238.938 178.865Z" fill="#939393"/>
<path opacity="0.6" d="M73 67.2902V119.733C97.9603 120.67 101.026 133.042 123.57 135.23V67.2902C123.57 66.3101 122.779 65.5288 121.819 65.5288C115.773 65.5288 106.648 58.4692 97.5789 58.4692C88.9904 58.4692 80.4726 65.5288 74.7516 65.5288C73.7769 65.5288 73 66.3101 73 67.2902Z" fill="#D6D6D6"/>
<path d="M120.943 144.873C121.917 144.873 122.694 145.668 122.694 146.634V151.251C122.694 152.231 121.903 153.012 120.943 153.012H75.9802C75.0056 153.012 74.2286 152.217 74.2286 151.251V146.634C74.2286 145.654 75.0197 144.873 75.9802 144.873H120.943Z" fill="#DDAB6F"/>
<path d="M120.943 136.209C121.917 136.209 122.694 137.004 122.694 137.97V142.587C122.694 143.567 121.903 144.348 120.943 144.348H75.9802C75.0056 144.348 74.2286 143.553 74.2286 142.587V137.97C74.2286 136.99 75.0197 136.209 75.9802 136.209H120.943Z" fill="#DDAB6F"/>
<path d="M120.943 127.56C121.917 127.56 122.694 128.355 122.694 129.321V133.937C122.694 134.917 121.903 135.699 120.943 135.699H75.9802C75.0056 135.699 74.2286 134.903 74.2286 133.937V129.321C74.2286 128.341 75.0197 127.56 75.9802 127.56H120.943Z" fill="#DDAB6F"/>
<path d="M120.943 118.895C121.917 118.895 122.694 119.69 122.694 120.656V125.272C122.694 126.252 121.903 127.034 120.943 127.034H75.9802C75.0056 127.034 74.2286 126.238 74.2286 125.272V120.656C74.2286 119.676 75.0197 118.895 75.9802 118.895H120.943Z" fill="#DDAB6F"/>
<path d="M120.943 110.244C121.917 110.244 122.694 111.04 122.694 112.005V116.622C122.694 117.602 121.903 118.383 120.943 118.383H75.9802C75.0056 118.383 74.2286 117.588 74.2286 116.622V112.005C74.2286 111.025 75.0197 110.244 75.9802 110.244H120.943Z" fill="#DDAB6F"/>
<path d="M120.943 101.592C121.917 101.592 122.694 102.388 122.694 103.354V107.97C122.694 108.95 121.903 109.731 120.943 109.731H75.9802C75.0056 109.731 74.2286 108.936 74.2286 107.97V103.354C74.2286 102.374 75.0197 101.592 75.9802 101.592H120.943Z" fill="#DDAB6F"/>
<path d="M120.943 92.9277C121.917 92.9277 122.694 93.7232 122.694 94.6891V99.3055C122.694 100.286 121.903 101.067 120.943 101.067H75.9802C75.0056 101.067 74.2286 100.271 74.2286 99.3055V94.6891C74.2286 93.709 75.0197 92.9277 75.9802 92.9277H120.943Z" fill="#DDAB6F"/>
<path d="M120.943 84.2773C121.917 84.2773 122.694 85.0728 122.694 86.0387V90.6552C122.694 91.6353 121.903 92.4165 120.943 92.4165H75.9802C75.0056 92.4165 74.2286 91.6211 74.2286 90.6552V86.0387C74.2286 85.0586 75.0197 84.2773 75.9802 84.2773H120.943Z" fill="#DDAB6F"/>
<path d="M120.943 75.6128C121.917 75.6128 122.694 76.4082 122.694 77.3741V81.9906C122.694 82.9707 121.903 83.7519 120.943 83.7519H75.9802C75.0056 83.7519 74.2286 82.9565 74.2286 81.9906V77.3741C74.2286 76.394 75.0197 75.6128 75.9802 75.6128H120.943Z" fill="#DDAB6F"/>
<path d="M120.943 66.9629C121.917 66.9629 122.694 67.7583 122.694 68.7242V73.3407C122.694 74.3208 121.903 75.102 120.943 75.102H75.9802C75.0056 75.102 74.2286 74.3066 74.2286 73.3407V68.7242C74.2286 67.7441 75.0197 66.9629 75.9802 66.9629H120.943Z" fill="#DDAB6F"/>
<path d="M73.0004 127.076C97.9607 128.013 101.026 140.385 123.571 142.587V135.243C101.026 133.041 97.9466 120.669 73.0004 119.746V127.076Z" fill="#FFEC88"/>
<path d="M73 152.545C73 153.525 73.791 154.306 74.7516 154.306H121.819C122.793 154.306 123.57 153.511 123.57 152.545V142.587C101.026 140.386 97.9462 128.014 73 127.076V152.545Z" fill="#EF5C00"/>
<path opacity="0.7" d="M93.3119 55.6272L84.2008 40.6842C84.2008 40.6842 96.575 37.3745 99.0611 39.6757L98.0017 57.5164L93.3119 55.6272Z" fill="#E6E6E6"/>
<path opacity="0.6" d="M101.405 57.5021L108.878 40.1585C108.878 40.1585 95.9387 35.187 91.0511 39.221L96.9134 57.076L101.405 57.5021Z" fill="#E6E6E6"/>
<path d="M104.145 55.6279H91.8558V59.3779H104.145V55.6279Z" fill="#373737"/>
<path opacity="0.6" d="M94.021 62.459L80.0364 76.3509L79.2595 96.0098L84.5284 77.8566L94.021 62.459Z" fill="#FFFFFC"/>
<path opacity="0.6" d="M99.6979 61.0259L108.753 70.1451L111.352 85.3722L104.67 71.5229L99.6979 61.0259Z" fill="#FFFFFC"/>
<path d="M152 86.8002H118L128.1 74.2002H162.1L152 86.8002Z" fill="#DBF1FD"/>
<path d="M172.2 86.7998H152V174.1H172.2V86.7998Z" fill="#299AEA"/>
<path d="M162.1 74.2002L158.2 79.1002L172.2 86.8002L162.1 74.2002Z" fill="#1379DA"/>
<path d="M172.2 86.8006L158.2 79.1006L152 86.8006H172.2Z" fill="#61B6F2"/>
<path d="M158 66H132.1C129.8 66 128 67.8 128 70.1V74.2H162.1V70.1C162.1 67.8 160.3 66 158 66Z" fill="#299AEA"/>
<path d="M152 86.7998V174.1H118V86.7998H152Z" fill="#B0E2FC"/>
<path d="M135 146.8C141.627 146.8 147 141.427 147 134.8C147 128.172 141.627 122.8 135 122.8C128.373 122.8 123 128.172 123 134.8C123 141.427 128.373 146.8 135 146.8Z" fill="white"/>
<path d="M140.1 74.5003C138.9 74.6003 137.6 75.2003 136.5 76.3003C135.4 77.4003 134.8 78.7003 134.7 79.9003L133.5 80.4003L135.5 82.4003C135.5 82.4003 135.5 82.4003 135.6 82.5003C137 83.9003 139.8 83.5003 141.8 81.6003C143.8 79.6003 144.2 76.9003 142.7 75.4003L140.6 73.3003L140.1 74.5003Z" fill="#D32144"/>
<path d="M140.6 73.3003C142 74.7003 141.6 77.5003 139.7 79.5003C137.7 81.5003 135 81.9003 133.5 80.4003C132.1 79.0003 132.5 76.2003 134.4 74.2003C136.4 72.3003 139.2 71.8003 140.6 73.3003Z" fill="#FF3D3D"/>
<path d="M139.6 117.001H130.4C129.5 117.001 128.7 116.201 128.7 115.301C128.7 114.401 129.5 113.601 130.4 113.601H139.6C140.5 113.601 141.3 114.401 141.3 115.301C141.3 116.201 140.5 117.001 139.6 117.001Z" fill="#61B6F2"/>
<path d="M144.5 110.1H125.5C124.6 110.1 123.8 109.3 123.8 108.4C123.8 107.5 124.6 106.7 125.5 106.7H144.5C145.4 106.7 146.2 107.5 146.2 108.4C146.2 109.3 145.5 110.1 144.5 110.1Z" fill="#61B6F2"/>
<path d="M129 169.6H123C122.4 169.6 121.9 169.1 121.9 168.5C121.9 167.9 122.4 167.4 123 167.4H129C129.6 167.4 130.1 167.9 130.1 168.5C130.1 169.1 129.6 169.6 129 169.6Z" fill="#B0E2FC"/>
<path d="M147 169.6H134.6C134 169.6 133.5 169.1 133.5 168.5C133.5 167.9 134 167.4 134.6 167.4H147C147.6 167.4 148.1 167.9 148.1 168.5C148.1 169.1 147.6 169.6 147 169.6Z" fill="#B0E2FC"/>
<path d="M166 112.3H158.3C157 112.3 155.9 111.2 155.9 109.9V98.2999C155.9 96.9999 157 95.8999 158.3 95.8999H166C167.3 95.8999 168.4 96.9999 168.4 98.2999V109.9C168.4 111.2 167.3 112.3 166 112.3Z" fill="#61B6F2"/>
<path d="M166 169.6H158.3C157 169.6 155.9 168.5 155.9 167.2V165C155.9 163.7 157 162.6 158.3 162.6H166C167.3 162.6 168.4 163.7 168.4 165V167.2C168.4 168.6 167.3 169.6 166 169.6Z" fill="#61B6F2"/>
<path d="M166 152.9H158.3C157 152.9 155.9 151.8 155.9 150.5V119.3C155.9 118 157 116.9 158.3 116.9H166C167.3 116.9 168.4 118 168.4 119.3V150.5C168.4 151.8 167.3 152.9 166 152.9Z" fill="#61B6F2"/>
<path d="M134.2 86.7998V86.8998C134.2 95.7998 126.9 103.1 118 103.1V86.7998H134.2Z" fill="#FF3D3D"/>
<path d="M135 159.1C137.375 159.1 139.3 157.175 139.3 154.8C139.3 152.425 137.375 150.5 135 150.5C132.625 150.5 130.7 152.425 130.7 154.8C130.7 157.175 132.625 159.1 135 159.1Z" fill="white"/>
<path d="M210.52 143.56C212.44 143.56 214 145.12 214 147.04V158.68V171.52L202 172L208.36 166.72V147.04C208.36 145.12 206.8 143.56 204.88 143.56C206.8 143.56 208.36 142 208.36 140.08V138.4H214V140.08C214 142 212.44 143.56 210.52 143.56Z" fill="#661204"/>
<path d="M208.24 140.08V138.4H181.12H175.48V140.08C175.48 142 177.04 143.56 178.96 143.56C177.04 143.56 175.48 145.12 175.48 147.04V171.52L187.84 172L187.24 171.52H203.2C205.96 171.52 208.24 169.24 208.24 166.48V147.04C208.24 145.12 206.68 143.56 204.76 143.56C206.68 143.56 208.24 142 208.24 140.08Z" fill="#801600"/>
<path d="M214 140.08C214 142 212.44 143.56 210.52 143.56C212.44 143.56 214 145.12 214 147.04V158.68V165.16C214 168.64 211.12 171.52 207.52 171.52C204.28 171.52 185.2 171.52 181.96 171.52C178.48 171.52 175.48 168.64 175.48 165.16V158.68V147.04C175.48 145.12 177.04 143.56 178.96 143.56C177.04 143.56 175.48 142 175.48 140.08V138.4H172.12V140.08C172.12 141.28 172.48 142.48 173.08 143.56C172.36 144.52 172 145.72 172 147.04V158.68V165.16C172.12 170.56 176.44 175 181.84 175C184.24 175 205 175 207.4 175C212.8 175 217.24 170.56 217.24 165.28V158.8V147.16C217.24 145.96 216.88 144.76 216.28 143.68C216.88 142.72 217.24 141.52 217.24 140.2V138.52H213.88V140.08H214Z" fill="#CEE8FB"/>
<path d="M217.36 89.0802C217.36 82.7202 214.24 76.8402 208.96 73.2402L205.6 70.9602C203.32 69.4002 202 66.8802 202 64.2402V59.0802V55.7202H198.64H191.68H188.32V59.0802V64.0002C188.32 66.7602 186.88 69.2802 184.6 70.7202L180.88 73.0002C175.36 76.4802 172 82.6002 172 89.0802V99.4002C172 100.6 172.36 101.8 172.96 102.88C172.36 103.84 172 105.04 172 106.24V108.28H175.36V106.24C175.36 104.32 176.92 102.76 178.84 102.76C176.92 102.76 175.36 101.2 175.36 99.2802V89.0802C175.36 83.6802 178.12 78.7602 182.68 75.8802L186.16 73.7202C189.4 71.6802 191.44 67.9602 191.56 64.1202V59.2002H198.52V64.3602C198.52 68.2002 200.44 71.8002 203.56 73.9602L206.92 76.2402C211.36 79.0002 214 83.8002 214 89.0802V99.4002C214 101.32 212.44 102.88 210.52 102.88C212.44 102.88 214 104.44 214 106.36V108.4H217.36V106.36C217.36 105.16 217 103.96 216.4 102.88C217 101.92 217.36 100.72 217.36 99.4002V89.0802Z" fill="#CEE8FB"/>
<path d="M175.36 108.28H172V138.28H175.36V108.28Z" fill="#FF4D54"/>
<path d="M217.36 108.28H214V138.28H217.36V108.28Z" fill="#D40000"/>
<path d="M207.041 75.9996L203.681 73.7196C200.441 71.5596 198.641 67.9596 198.641 64.1196V59.0796H191.681V63.9996C191.681 67.9596 189.641 71.5596 186.281 73.5996L182.801 75.7596C182.321 76.1196 181.841 76.4796 181.361 76.8396H208.361C207.881 76.5996 207.401 76.3596 207.041 75.9996Z" fill="#E1F1FD"/>
<path d="M208.241 99.3996V89.1996C208.241 84.3996 206.081 79.9596 202.481 77.0796H186.881H181.241C177.641 80.0796 175.481 84.5196 175.481 89.1996V99.3996C175.481 101.32 177.041 102.88 178.961 102.88C177.041 102.88 175.481 104.44 175.481 106.36V108.4H181.241H208.361V106.36C208.361 104.44 206.801 102.88 204.881 102.88C206.681 102.76 208.241 101.2 208.241 99.3996Z" fill="#801600"/>
<path d="M179.801 90.7591C178.841 90.7591 178.121 90.0391 178.121 89.0791C178.121 85.7191 179.441 82.5991 181.721 80.1991C182.321 79.5991 183.401 79.4791 184.001 80.1991C184.601 80.7991 184.721 81.8791 184.001 82.4791C182.321 84.2791 181.361 86.6791 181.361 89.0791C181.481 90.0391 180.761 90.7591 179.801 90.7591Z" fill="#A43422"/>
<path d="M179.801 100.839C178.841 100.839 178.121 100.119 178.121 99.1589V94.5989C178.121 93.6389 178.841 92.9189 179.801 92.9189C180.761 92.9189 181.481 93.6389 181.481 94.5989V99.1589C181.481 100.119 180.761 100.839 179.801 100.839Z" fill="#A43422"/>
<path d="M179.801 165.399C178.841 165.399 178.121 164.679 178.121 163.719V149.079C178.121 148.119 178.841 147.399 179.801 147.399C180.761 147.399 181.481 148.119 181.481 149.079V163.839C181.481 164.679 180.761 165.399 179.801 165.399Z" fill="#A43422"/>
<path d="M208.121 76.9595H202.361C205.961 79.9595 208.121 84.3995 208.121 89.0795V99.3995C208.121 101.319 206.561 102.879 204.641 102.879C206.561 102.879 208.121 104.439 208.121 106.359V108.399H213.881V106.359C213.881 105.879 213.761 105.399 213.641 105.039C213.401 104.439 212.921 103.839 212.441 103.479C211.841 103.119 211.241 102.879 210.521 102.879C211.241 102.879 211.841 102.639 212.441 102.279C213.041 101.919 213.401 101.439 213.641 100.719C213.761 100.359 213.881 99.8795 213.881 99.3995V89.1995C214.001 84.3995 211.841 79.8395 208.121 76.9595Z" fill="#661204"/>
<path d="M202.6 49H199C199.72 49 200.44 49.72 200.44 50.68V57.52C200.44 58.48 199.84 59.2 199 59.2H202.6C203.32 59.2 204.04 58.48 204.04 57.52V50.68C204.04 49.72 203.44 49 202.6 49Z" fill="#D40000"/>
<path d="M200.44 57.52V50.68C200.44 49.72 199.84 49 199 49H187.6C186.88 49 186.16 49.72 186.16 50.68V57.52C186.16 58.48 186.76 59.2 187.6 59.2H199C199.72 59.08 200.44 58.36 200.44 57.52Z" fill="#EE1E1D"/>
<path d="M202 59.0801H188.2V62.2001H202V59.0801Z" fill="#D40000"/>
<path d="M214 108.28H205.96C202.84 105.88 198.88 104.44 194.56 104.44C190.24 104.44 186.4 105.88 183.16 108.28H175.48V138.28H183.16C186.28 140.68 190.24 142.12 194.56 142.12C198.88 142.12 202.72 140.68 205.96 138.28H214V108.28Z" fill="#EE1E1D"/>
<path d="M192.76 99.1596C194.019 99.1596 195.04 98.1388 195.04 96.8796C195.04 95.6204 194.019 94.5996 192.76 94.5996C191.501 94.5996 190.48 95.6204 190.48 96.8796C190.48 98.1388 191.501 99.1596 192.76 99.1596Z" fill="#A43422"/>
<path d="M199.12 87.6397C199.12 88.4797 198.52 89.0797 197.68 89.0797C196.84 89.0797 196.24 88.4797 196.24 87.6397C196.24 86.7997 196.84 86.1997 197.68 86.1997C198.52 86.1997 199.12 86.7997 199.12 87.6397Z" fill="#A43422"/>
<path d="M195.639 161.44C196.899 161.44 197.919 160.419 197.919 159.16C197.919 157.901 196.899 156.88 195.639 156.88C194.38 156.88 193.359 157.901 193.359 159.16C193.359 160.419 194.38 161.44 195.639 161.44Z" fill="#A43422"/>
<path d="M200.559 151.359C201.355 151.359 201.999 150.715 201.999 149.919C201.999 149.124 201.355 148.479 200.559 148.479C199.764 148.479 199.119 149.124 199.119 149.919C199.119 150.715 199.764 151.359 200.559 151.359Z" fill="#A43422"/>
<path d="M189.04 149.92C189.835 149.92 190.48 149.275 190.48 148.48C190.48 147.685 189.835 147.04 189.04 147.04C188.244 147.04 187.6 147.685 187.6 148.48C187.6 149.275 188.244 149.92 189.04 149.92Z" fill="#A43422"/>
<path d="M203.116 134.179C209.065 129.522 210.112 120.923 205.454 114.974C200.796 109.025 192.198 107.978 186.249 112.636C180.3 117.294 179.253 125.892 183.911 131.841C188.568 137.79 197.167 138.837 203.116 134.179Z" fill="#D40000"/>
<path d="M198.7 115.4V154.9L197.7 165.6C197.7 167.6 196.1 169.2 194.1 169.2H188.7V117.4C188.7 116.3 187.8 115.4 186.7 115.4H198.7Z" fill="#299AEA"/>
<path d="M188.7 117.4V170.3H170.7C170.6 170.3 170.4 170.3 170.3 170.3C170 170.3 169.6 170.2 169.3 170.1C169.2 170 169 170 168.9 169.9C167.8 169.3 168.1 168.1 168.1 166.8L167 162.7V115.4H186.6C187.8 115.4 188.7 116.3 188.7 117.4Z" fill="#61B6F2"/>
<path d="M193 128.7C192.7 127.9 192.3 127.2 191.8 126.6C189.8 123.9 186.7 122.2 183.1 122.2C178.7 122.2 174.9 124.9 173.2 128.7H167.2V130.7V135.2V137.2H173.2C174.9 141 178.7 143.7 183.1 143.7C186.7 143.7 189.8 142 191.8 139.3C192.3 138.6 192.7 137.9 193 137.2H198.7V135.2V130.7V128.7H193Z" fill="#1379DA"/>
<path d="M196.2 112V100.2C196.2 94.8004 191.8 90.4004 186.4 90.4004H179.5C174.1 90.4004 169.7 94.8004 169.7 100.2V111.9H168.2C167.6 111.9 167.1 112.4 167.1 113V115.3H198.7V113C198.7 112.4 198.2 111.9 197.6 111.9H196.2V112Z" fill="#CEECFC"/>
<path d="M193 112V100.2C193 94.8004 188.6 90.4004 183.2 90.4004H180C185.4 90.4004 189.8 94.8004 189.8 100.2V111.9H193V112Z" fill="#9ADAFB"/>
<path d="M172.9 112V100.2C172.9 94.8004 177.3 90.4004 182.7 90.4004H185.9C180.5 90.4004 176.1 94.8004 176.1 100.2V111.9H172.9V112Z" fill="#9ADAFB"/>
<path d="M198.8 115.4H167.2V119H198.8V115.4Z" fill="#9ADAFB"/>
<path d="M184.7 90.4004H181.5V111.9H184.7V90.4004Z" fill="#9ADAFB"/>
<path d="M171.1 154.2C172 153.5 173.1 153.1 174.3 153.1C173.1 151.9 172.5 150.6 172.3 149.4C172.2 148.9 172.7 148.5 173.2 148.6C174.3 148.8 175.7 149.6 176.8 150.7C176.9 149.6 177.3 148.6 177.9 147.8C178.2 147.4 178.8 147.4 179.1 147.8C179.8 148.7 180.2 149.9 180.2 151.1C180.2 151.5 180.1 152 180 152.5C179.6 154.6 177.9 156.3 175.8 156.6C175.3 156.7 174.7 156.7 174.4 156.7C173.1 156.7 172 156.2 171.1 155.4C170.7 155 170.7 154.5 171.1 154.2Z" fill="#109343"/>
<path d="M184.1 152.5C181.9 150.2 178.2 150.2 175.9 152.4C173.6 154.6 173.6 158.3 175.8 160.6C178 162.9 184.3 165.6 186.6 163.3C189 161.1 186.4 154.8 184.1 152.5Z" fill="#FF3D3D"/>
<path d="M182.1 153.8C182.4 153.5 182.4 153.1 182.1 152.8L181.4 152C181.1 151.7 180.7 151.7 180.4 152C180.1 152.3 180.1 152.7 180.4 153L181.1 153.8C181.3 154 181.8 154 182.1 153.8Z" fill="#FFE21F"/>
<path d="M178.9 155.3C179.2 155 179.2 154.6 178.9 154.3L178.2 153.5C177.9 153.2 177.5 153.2 177.2 153.5C176.9 153.8 176.9 154.2 177.2 154.5L177.9 155.3C178.2 155.6 178.6 155.6 178.9 155.3Z" fill="#FFE21F"/>
<path d="M181.9 158.4C182.2 158.1 182.2 157.7 181.9 157.4L181.2 156.6C180.9 156.3 180.5 156.3 180.2 156.6C179.9 156.9 179.9 157.3 180.2 157.6L180.9 158.4C181.1 158.6 181.6 158.6 181.9 158.4Z" fill="#FFE21F"/>
<path d="M177.2 158.3C177.5 158 177.5 157.6 177.2 157.3L176.5 156.5C176.2 156.2 175.8 156.2 175.5 156.5C175.2 156.8 175.2 157.2 175.5 157.5L176.2 158.3C176.5 158.6 176.9 158.6 177.2 158.3Z" fill="#FFE21F"/>
<path d="M184.8 161.4C185.1 161.1 185.1 160.7 184.8 160.4L184.1 159.6C183.8 159.3 183.4 159.3 183.1 159.6C182.8 159.9 182.8 160.3 183.1 160.6L183.8 161.4C184.1 161.7 184.5 161.7 184.8 161.4Z" fill="#FFE21F"/>
<path d="M197.1 155.8C197.2 155 197.1 154.3 196.8 153.6C194.2 152.1 191.1 151.2 187.7 151C190 151.2 191.7 153.3 191.4 155.8C191.1 157.9 189.2 159.4 187.1 159.4H192.8C194.9 159.4 196.9 157.9 197.1 155.8Z" fill="#FFE6E9"/>
<path d="M198.7 154.901V170.901C198.7 172.901 197.1 174.501 195.1 174.501H175V170.001C175 164.201 179.7 159.401 185.6 159.401H192.8C194.8 159.401 196.7 158.001 197.1 156.001C197.3 155.101 197.2 154.301 196.9 153.601C197.5 154.101 198.1 154.501 198.7 154.901Z" fill="#FFB2B9"/>
<path d="M185.8 159.4C179.9 159.4 175.2 164.1 175.2 170V174.5H170.3C170 174.5 169.6 174.4 169.3 174.3C169.2 174.2 169 174.2 168.9 174.1V170.1C168.9 164.3 173.6 159.5 179.5 159.5H185.8V159.4Z" fill="#FFCDD2"/>
<path d="M180.9 159.4C175 159.4 170.3 164.1 170.3 170V174.5C170 174.5 169.6 174.4 169.3 174.3C169.2 174.2 169 174.2 168.9 174.1C167.8 173.5 167 172.3 167 171V162.6C168.9 160.7 171.6 159.5 174.5 159.5H180.9V159.4Z" fill="#FFE6E9"/>
<path d="M183.1 140.5C187.242 140.5 190.6 137.143 190.6 133C190.6 128.858 187.242 125.5 183.1 125.5C178.958 125.5 175.6 128.858 175.6 133C175.6 137.143 178.958 140.5 183.1 140.5Z" fill="white"/>
<path d="M115 132H104.3C110.2 132 115 136.8 115 142.7V160.6C115 166.5 110.2 171.3 104.3 171.3H115C120.9 171.3 125.7 166.5 125.7 160.6V142.7C125.8 136.8 121 132 115 132Z" fill="#FFA800"/>
<path d="M92.1 161.5C93.8121 161.5 95.2 160.112 95.2 158.4C95.2 156.688 93.8121 155.3 92.1 155.3C90.3879 155.3 89 156.688 89 158.4C89 160.112 90.3879 161.5 92.1 161.5Z" fill="#FFE600"/>
<path d="M89.0999 144.7C89.0999 146.2 87.8999 147.4 86.3999 147.4C84.8999 147.4 83.7 146.2 83.7 144.7C83.7 143.2 84.8999 142 86.3999 142C87.8999 142 89.0999 143.2 89.0999 144.7Z" fill="#FFBE03"/>
<path d="M109.8 135.2H74.6V168.1H109.8C113.9 168.1 117.3 164.7 117.3 160.6V142.7C117.3 138.5 114 135.2 109.8 135.2Z" fill="#FFE600"/>
<path d="M119.5 132H74.6V135.2H109.8C113.9 135.2 117.3 138.6 117.3 142.7V160.6C117.3 164.7 113.9 168.1 109.8 168.1H74.6V171.3H119.5C125.4 171.3 130.2 166.5 130.2 160.6V142.7C130.2 136.8 125.4 132 119.5 132Z" fill="#FFCA03"/>
<path d="M101 135.2C101 136.7 99.8 137.9 98.3 137.9C96.8 137.9 95.6 136.7 95.6 135.2L98.3 133.8L101 135.2Z" fill="#FFCA03"/>
<path d="M88.7 168.1C88.7 165.4 90.9 163.3 93.5 163.3C96.2 163.3 98.2999 165.5 98.2999 168.1L93.8999 169.6L88.7 168.1Z" fill="#FFCA03"/>
<path d="M90.7001 152.1C90.7001 153.9 89.3001 155.3 87.5001 155.3C85.7001 155.3 84.3 153.9 84.3 152.1C84.3 150.3 85.7001 148.9 87.5001 148.9C89.2001 148.8 90.7001 150.3 90.7001 152.1Z" fill="#FFA800"/>
<path d="M104.1 158.9C104.1 160.1 103.1 161 102 161C100.8 161 99.9 160 99.9 158.9C99.9 157.8 100.9 156.8 102 156.8C103.2 156.8 104.1 157.7 104.1 158.9Z" fill="#FFA800"/>
<path d="M84.8999 140C84.8999 141.2 83.8999 142.1 82.7999 142.1C81.6999 142.1 80.7 141.1 80.7 140C80.7 138.9 81.6999 137.9 82.7999 137.9C83.8999 137.9 84.8999 138.8 84.8999 140Z" fill="#FFCA03"/>
<path d="M112.7 148.4C112.7 151 114.8 153.1 117.4 153.2L118.9 148.4L117.4 143.6C114.8 143.6 112.7 145.8 112.7 148.4Z" fill="#FFCA03"/>
<path d="M119.5 132H110.6C116.5 132 121.3 136.8 121.3 142.7V160.6C121.3 166.5 116.5 171.3 110.6 171.3H119.5C125.4 171.3 130.2 166.5 130.2 160.6V142.7C130.2 136.8 125.4 132 119.5 132Z" fill="#D40000"/>
<path d="M34.1 132H44.8C38.9 132 34.1 136.8 34.1 142.7V160.6C34.1 166.5 38.9 171.3 44.8 171.3H34.1C28.2 171.3 23.4 166.5 23.4 160.6V142.7C23.4 136.8 28.2 132 34.1 132Z" fill="#FFA800"/>
<path d="M54 158.4C54 160.1 55.4 161.5 57.1 161.5C58.8 161.5 60.2 160.1 60.2 158.4C60.2 156.7 58.8 155.3 57.1 155.3C55.4 155.2 54 156.7 54 158.4Z" fill="#FFE600"/>
<path d="M60.1 144.7C60.1 146.2 61.3 147.4 62.8 147.4C64.3 147.4 65.5 146.2 65.5 144.7C65.5 143.2 64.3 142 62.8 142C61.3 142 60.1 143.2 60.1 144.7Z" fill="#FFBE03"/>
<path d="M31.8 142.7V160.6C31.8 164.7 35.2 168.1 39.3 168.1H74.5001V135.2H39.3C35.2 135.2 31.8 138.5 31.8 142.7Z" fill="#FFCA03"/>
<path d="M29.7 132H74.6V135.2H39.4C35.3 135.2 31.9 138.6 31.9 142.7V160.6C31.9 164.7 35.3 168.1 39.4 168.1H74.6V171.3H29.7C23.8 171.3 19 166.5 19 160.6V142.7C19 136.8 23.8 132 29.7 132Z" fill="#FFA800"/>
<path d="M69.8 168.2C69.8 166.7 68.6 165.5 67.1 165.5C65.6 165.5 64.4 166.7 64.4 168.2L67.1 169.6L69.8 168.2Z" fill="#FFA800"/>
<path d="M44.9 134.8C44.9 137.5 47.1 139.6 49.7 139.6C52.4 139.6 54.5 137.4 54.5 134.8L50.1 133.3L44.9 134.8Z" fill="#FFA800"/>
<path d="M44.6 157.5C44.6 159.3 46 160.7 47.8 160.7C49.6 160.7 51 159.3 51 157.5C51 155.7 49.6 154.3 47.8 154.3C46.1 154.3 44.6 155.7 44.6 157.5Z" fill="#FFA800"/>
<path d="M62.3 148.4C62.3 149.6 63.3001 150.5 64.4001 150.5C65.6001 150.5 66.5001 149.5 66.5001 148.4C66.5001 147.3 65.5001 146.3 64.4001 146.3C63.2001 146.2 62.3 147.2 62.3 148.4Z" fill="#FFA800"/>
<path d="M36.5001 155.2C36.5001 157.8 34.4 159.9 31.8 160L30.3 155.2L31.8 150.4C34.4 150.5 36.5001 152.6 36.5001 155.2Z" fill="#FFA800"/>
<path d="M29.7 132H38.6C32.7 132 27.9 136.8 27.9 142.7V160.6C27.9 166.5 32.7 171.3 38.6 171.3H29.7C23.8 171.3 19 166.5 19 160.6V142.7C19 136.8 23.8 132 29.7 132Z" fill="#EE1E1D"/>
<path d="M109.53 39.768C109.47 39.972 109.392 40.158 109.296 40.326C109.2 40.482 109.098 40.572 108.99 40.596C108.762 40.656 108.588 40.62 108.468 40.488C108.348 40.356 108.3 40.188 108.324 39.984C108.42 39.264 108.576 38.508 108.792 37.716C109.008 36.912 109.26 36.114 109.548 35.322C109.836 34.518 110.148 33.744 110.484 33C110.832 32.244 111.186 31.56 111.546 30.948C111.606 30.852 111.672 30.798 111.744 30.786C111.828 30.762 111.9 30.762 111.96 30.786C112.02 30.738 112.092 30.696 112.176 30.66C112.26 30.624 112.344 30.606 112.428 30.606C112.464 30.606 112.5 30.612 112.536 30.624C112.584 30.636 112.632 30.672 112.68 30.732C112.728 30.792 112.782 30.882 112.842 31.002C112.914 31.11 112.998 31.272 113.094 31.488C113.262 32.1 113.454 32.73 113.67 33.378C113.898 34.026 114.132 34.674 114.372 35.322C114.408 35.31 114.438 35.304 114.462 35.304C114.498 35.292 114.534 35.28 114.57 35.268C114.702 35.256 114.852 35.262 115.02 35.286C115.188 35.31 115.302 35.394 115.362 35.538C115.434 35.718 115.422 35.874 115.326 36.006C115.23 36.138 115.056 36.27 114.804 36.402C114.96 36.786 115.116 37.164 115.272 37.536C115.428 37.896 115.59 38.25 115.758 38.598C115.77 38.658 115.788 38.754 115.812 38.886C115.836 39.006 115.848 39.132 115.848 39.264C115.86 39.384 115.854 39.498 115.83 39.606C115.806 39.714 115.758 39.786 115.686 39.822C115.602 39.858 115.512 39.852 115.416 39.804C115.332 39.756 115.248 39.696 115.164 39.624C115.08 39.54 115.002 39.456 114.93 39.372C114.87 39.276 114.822 39.192 114.786 39.12C114.582 38.724 114.384 38.328 114.192 37.932C114.012 37.524 113.838 37.116 113.67 36.708C113.166 36.804 112.614 36.888 112.014 36.96C111.426 37.032 110.844 37.08 110.268 37.104C110.136 37.56 110.004 38.01 109.872 38.454C109.752 38.886 109.638 39.324 109.53 39.768ZM112.086 32.208C111.534 33.444 111.054 34.68 110.646 35.916C111.45 35.892 112.308 35.79 113.22 35.61C112.788 34.518 112.41 33.384 112.086 32.208ZM123.083 33.216C122.891 33.54 122.699 33.858 122.507 34.17C122.315 34.482 122.105 34.842 121.877 35.25C121.661 35.646 121.409 36.108 121.121 36.636C120.833 37.164 120.497 37.806 120.113 38.562C120.017 38.742 119.921 38.886 119.825 38.994C119.729 39.102 119.615 39.156 119.483 39.156C119.303 39.156 119.159 39.108 119.051 39.012C118.955 38.904 118.871 38.79 118.799 38.67C118.403 38.01 118.013 37.278 117.629 36.474C117.245 35.67 116.933 34.884 116.693 34.116C116.669 34.056 116.669 33.99 116.693 33.918C116.729 33.834 116.777 33.78 116.837 33.756C116.957 33.696 117.113 33.69 117.305 33.738C117.449 33.798 117.593 33.906 117.737 34.062C117.881 34.218 117.995 34.38 118.079 34.548C118.151 34.716 118.235 34.908 118.331 35.124C118.427 35.34 118.529 35.574 118.637 35.826C118.757 36.066 118.877 36.306 118.997 36.546C119.117 36.786 119.237 37.002 119.357 37.194C119.561 36.834 119.777 36.45 120.005 36.042C120.245 35.622 120.485 35.202 120.725 34.782C120.965 34.35 121.205 33.936 121.445 33.54C121.697 33.144 121.943 32.79 122.183 32.478C122.243 32.394 122.327 32.346 122.435 32.334C122.543 32.322 122.663 32.364 122.795 32.46C123.095 32.688 123.191 32.94 123.083 33.216ZM128.435 33.468C128.795 33.6 129.095 33.798 129.335 34.062C129.587 34.326 129.779 34.626 129.911 34.962C130.043 35.286 130.115 35.622 130.127 35.97C130.151 36.318 130.115 36.642 130.019 36.942C129.887 37.278 129.719 37.608 129.515 37.932C129.311 38.256 129.077 38.544 128.813 38.796C128.549 39.048 128.249 39.252 127.913 39.408C127.577 39.564 127.205 39.642 126.797 39.642C126.305 39.642 125.891 39.528 125.555 39.3C125.219 39.072 124.955 38.778 124.763 38.418C124.571 38.058 124.445 37.65 124.385 37.194C124.337 36.738 124.349 36.282 124.421 35.826C124.469 35.49 124.547 35.166 124.655 34.854C124.775 34.53 124.925 34.248 125.105 34.008C125.285 33.756 125.489 33.552 125.717 33.396C125.957 33.24 126.227 33.162 126.527 33.162C126.695 33.162 126.905 33.198 127.157 33.27C127.409 33.33 127.643 33.42 127.859 33.54C128.015 33.396 128.207 33.372 128.435 33.468ZM127.751 34.782C127.619 34.698 127.463 34.59 127.283 34.458C127.115 34.314 126.965 34.242 126.833 34.242C126.689 34.242 126.545 34.308 126.401 34.44C126.269 34.572 126.149 34.728 126.041 34.908C125.945 35.076 125.861 35.25 125.789 35.43C125.717 35.61 125.669 35.754 125.645 35.862C125.609 36.042 125.585 36.258 125.573 36.51C125.561 36.762 125.579 37.014 125.627 37.266C125.675 37.506 125.765 37.728 125.897 37.932C126.041 38.124 126.251 38.262 126.527 38.346C126.695 38.394 126.893 38.394 127.121 38.346C127.349 38.286 127.571 38.184 127.787 38.04C128.015 37.896 128.225 37.704 128.417 37.464C128.621 37.224 128.777 36.948 128.885 36.636C129.005 36.288 129.005 35.928 128.885 35.556C128.777 35.172 128.549 34.896 128.201 34.728C128.117 34.788 128.033 34.818 127.949 34.818C127.865 34.818 127.799 34.806 127.751 34.782ZM134.596 32.406C134.572 32.526 134.488 32.592 134.344 32.604C134.2 32.616 134.08 32.622 133.984 32.622C133.684 32.634 133.372 32.664 133.048 32.712C132.736 32.76 132.406 32.832 132.058 32.928C131.914 32.976 131.758 32.958 131.59 32.874C131.422 32.79 131.32 32.622 131.284 32.37C131.284 32.274 131.32 32.196 131.392 32.136C131.464 32.076 131.548 32.022 131.644 31.974C131.8 31.902 131.986 31.842 132.202 31.794C132.418 31.734 132.634 31.692 132.85 31.668C133.078 31.644 133.294 31.638 133.498 31.65C133.702 31.65 133.87 31.668 134.002 31.704C134.194 31.764 134.344 31.854 134.452 31.974C134.572 32.094 134.62 32.238 134.596 32.406ZM134.182 38.4C134.266 38.592 134.308 38.802 134.308 39.03C134.32 39.246 134.26 39.396 134.128 39.48C133.96 39.588 133.78 39.582 133.588 39.462C133.396 39.342 133.252 39.18 133.156 38.976C133.024 38.724 132.922 38.418 132.85 38.058C132.778 37.686 132.724 37.32 132.688 36.96C132.652 36.6 132.628 36.264 132.616 35.952C132.616 35.64 132.616 35.406 132.616 35.25C132.628 35.082 132.676 34.926 132.76 34.782C132.844 34.638 132.952 34.554 133.084 34.53C133.3 34.542 133.474 34.644 133.606 34.836C133.738 35.016 133.798 35.244 133.786 35.52C133.786 35.736 133.792 35.976 133.804 36.24C133.816 36.504 133.84 36.768 133.876 37.032C133.912 37.296 133.954 37.554 134.002 37.806C134.05 38.046 134.11 38.244 134.182 38.4ZM138.973 30.624C138.937 30.408 138.949 30.21 139.009 30.03C139.081 29.85 139.219 29.748 139.423 29.724C139.603 29.7 139.759 29.748 139.891 29.868C140.035 29.988 140.125 30.144 140.161 30.336C140.401 31.716 140.623 33.09 140.827 34.458C141.043 35.814 141.235 37.146 141.403 38.454C141.451 38.802 141.427 39.042 141.331 39.174C141.235 39.294 141.121 39.384 140.989 39.444C140.845 39.504 140.707 39.504 140.575 39.444C140.455 39.384 140.377 39.276 140.341 39.12L140.323 39.012L140.251 39.03C139.855 39.174 139.441 39.258 139.009 39.282C138.577 39.294 138.163 39.24 137.767 39.12C137.371 39 137.017 38.808 136.705 38.544C136.405 38.268 136.189 37.92 136.057 37.5C135.769 36.576 135.949 35.736 136.597 34.98C136.873 34.668 137.215 34.386 137.623 34.134C138.031 33.882 138.523 33.684 139.099 33.54L139.423 33.468L138.973 30.624ZM137.155 37.05C137.227 37.338 137.359 37.56 137.551 37.716C137.743 37.872 137.971 37.98 138.235 38.04C138.499 38.088 138.781 38.094 139.081 38.058C139.381 38.022 139.675 37.956 139.963 37.86L140.125 37.806L139.621 34.638L139.261 34.728C139.009 34.8 138.739 34.914 138.451 35.07C138.175 35.214 137.929 35.388 137.713 35.592C137.497 35.796 137.329 36.024 137.209 36.276C137.101 36.528 137.083 36.786 137.155 37.05ZM145.209 30.318C145.101 30.846 144.987 31.368 144.867 31.884C144.759 32.4 144.657 32.916 144.561 33.432C144.465 33.948 144.393 34.464 144.345 34.98C144.297 35.496 144.291 36.012 144.327 36.528C144.351 36.66 144.327 36.786 144.255 36.906C144.195 37.026 144.123 37.104 144.039 37.14C143.775 37.236 143.583 37.17 143.463 36.942C143.319 36.33 143.241 35.724 143.229 35.124C143.229 34.524 143.271 33.93 143.355 33.342C143.451 32.754 143.571 32.172 143.715 31.596C143.871 31.008 144.027 30.426 144.183 29.85C144.243 29.61 144.339 29.478 144.471 29.454C144.603 29.43 144.729 29.442 144.849 29.49C145.029 29.55 145.143 29.67 145.191 29.85C145.239 30.03 145.245 30.186 145.209 30.318ZM144.489 40.002C144.489 40.134 144.471 40.314 144.435 40.542C144.411 40.758 144.363 40.962 144.291 41.154C144.231 41.346 144.141 41.502 144.021 41.622C143.913 41.742 143.775 41.766 143.607 41.694C143.511 41.634 143.415 41.52 143.319 41.352C143.223 41.184 143.181 41.028 143.193 40.884C143.217 40.596 143.277 40.314 143.373 40.038C143.469 39.762 143.595 39.594 143.751 39.534C143.823 39.51 143.901 39.51 143.985 39.534C144.081 39.558 144.165 39.6 144.237 39.66C144.309 39.708 144.369 39.768 144.417 39.84C144.465 39.9 144.489 39.954 144.489 40.002Z" fill="black"/>
<line x1="68.2322" y1="160.232" x2="178.232" y2="50.2322" stroke="#BF2828" stroke-width="5"/>
<line x1="71.7678" y1="50.2322" x2="181.768" y2="160.232" stroke="#BF2828" stroke-width="5"/>
</g>
</svg>
