<svg xmlns="http://www.w3.org/2000/svg" width="36" height="35" viewBox="0 0 36 35" fill="none"><path d="M29.9777 22.9688L24.4368 24.8555C24.6006 24.582 24.7098 24.2812 24.6825 23.9258C24.6279 23.1602 23.9455 22.5859 23.154 22.5859H19.1962C17.6677 20.3711 13.4916 20.3711 13.4916 20.3711H10.1616V27.0703L18.0225 29.5312C18.0225 29.5312 20.3972 30.2148 22.0895 29.5312C23.5361 28.957 29.3499 25.8945 31.1786 24.9102C31.5335 24.7187 32.0248 24.1719 31.7518 23.543C31.5062 23.0234 31.0967 22.668 29.9777 22.9688Z" fill="#F0D6BF"></path><path d="M23.2084 26.332H17.4492C16.9852 26.332 16.6304 25.9766 16.6304 25.5117C16.6304 25.0469 16.9852 24.6914 17.4492 24.6914H23.2357C23.5906 24.6914 23.8908 24.418 23.8908 24.0625C23.8908 23.5977 24.2456 23.2422 24.7096 23.2422C25.1737 23.2422 25.5285 23.5977 25.5285 24.0625C25.5012 25.3203 24.4913 26.332 23.2084 26.332Z" fill="#454B54"></path><path d="M20.2607 30.6523C18.9506 30.6523 17.8588 30.3242 17.7769 30.3242L9.91596 27.8633C9.56113 27.7539 9.34277 27.4258 9.34277 27.0703V20.3984C9.34277 19.9336 9.69761 19.5781 10.1616 19.5781H13.4916C13.6827 19.5781 17.695 19.6055 19.5783 21.793H23.154C24.3549 21.793 25.3921 22.6953 25.5013 23.8711C25.5559 24.3906 25.4194 24.8555 25.1465 25.293C24.9554 25.5937 24.5733 25.7578 24.2185 25.6484C23.9728 25.5664 23.7544 25.375 23.6726 25.1289C23.5907 24.8828 23.618 24.6094 23.7544 24.3906C23.809 24.3086 23.8636 24.1719 23.8636 23.9805C23.8363 23.6523 23.5088 23.4062 23.154 23.4062H19.1962C18.9233 23.4062 18.6776 23.2695 18.5138 23.0508C17.4493 21.5195 14.5288 21.1914 13.4916 21.1914H10.9805V26.4414L18.2682 28.7109C18.2682 28.7109 20.3699 29.3125 21.7892 28.7383C23.2085 28.1641 29.0496 25.0742 30.7965 24.1445C30.8238 24.1172 31.0422 23.9531 30.9876 23.8437C30.933 23.707 30.8784 23.5703 30.2233 23.7344L27.0571 24.8008C26.6204 24.9375 26.1564 24.7187 26.0199 24.2812C25.8834 23.8438 26.1018 23.3789 26.5385 23.2422L29.7047 22.1758H29.732C31.5335 21.6836 32.2158 22.6133 32.4615 23.2148C32.8982 24.2266 32.2977 25.2109 31.5062 25.6211C29.2407 26.8242 23.7817 29.6953 22.3624 30.2695C21.7073 30.543 20.9431 30.6523 20.2607 30.6523Z" fill="#454B54"></path><path d="M9.34294 28.1641C9.80696 28.1641 10.1618 27.8086 10.1618 27.3437V20.207C10.1618 19.7422 9.77966 19.3594 9.28835 19.3594H5.38519C5.27601 19.3594 5.38519 28.1641 5.38519 28.1641H9.34294Z" fill="white"></path><path d="M9.34276 28.9844H5.38501C4.92099 28.9844 4.56616 28.6289 4.56616 28.1641C4.56616 27.6992 4.92099 27.3437 5.38501 27.3437H9.34276V20.207C9.34276 20.1797 9.31546 20.1797 9.28817 20.1797H5.38501C4.92099 20.1797 4.56616 19.8242 4.56616 19.3594C4.56616 18.8945 4.92099 18.5391 5.38501 18.5391H9.28817C10.2162 18.5391 10.9804 19.2773 10.9804 20.207V27.3437C10.9804 28.2461 10.2435 28.9844 9.34276 28.9844Z" fill="#454B54"></path><path d="M19.5237 6.39844C20.7793 6.39844 21.8984 6.91797 22.6899 7.73828C23.4542 6.91797 24.6006 6.39844 25.8561 6.39844C28.1762 6.39844 30.0595 8.14844 30.0595 10.3359C30.0595 11.5664 29.459 12.6602 28.5037 13.3984L22.6899 17.6641L16.9853 13.4531C15.9754 12.7422 15.3203 11.5937 15.3203 10.3359C15.3203 8.14844 17.2037 6.39844 19.5237 6.39844Z" fill="#F27788"></path><path d="M18.0498 11.1562C17.5858 11.1562 17.231 10.8008 17.231 10.3359C17.231 9.21484 18.2682 8.3125 19.5237 8.3125C19.9877 8.3125 20.3426 8.66797 20.3426 9.13281C20.3426 9.59766 19.9877 9.95312 19.5237 9.95312C19.1143 9.95312 18.8686 10.1992 18.8686 10.3359C18.8686 10.7734 18.5138 11.1562 18.0498 11.1562Z" fill="white"></path></svg>