<svg width="149" height="149" viewBox="0 0 149 149" fill="none" xmlns="http://www.w3.org/2000/svg">
<path d="M149 74.5C149 115.6 115.6 149 74.5 149C33.4 149 0 115.6 0 74.5C0 33.4 33.4 0 74.5 0C115.6 0 149 33.4 149 74.5Z" fill="#F8F6F6"/>
<g clip-path="url(#clip0)">
<path d="M70.1236 75.0471C58.4294 77.9398 54.8063 83.549 51.255 94.0265C51.0397 94.6262 50.8604 95.2259 50.6451 95.8256C48.5287 102.387 47.9189 116.428 47.7754 122.213C47.7395 123.801 46.3764 125.036 44.7621 124.965C43.1838 124.894 41.9283 123.554 42 122.002L43.2196 94.3792C44.1164 74.3062 50.0353 61.0066 64.4917 52.8574C64.4917 52.8574 68.2941 70.2493 70.1236 75.0471Z" fill="#FEA821"/>
<path d="M51.255 94.0264C51.0397 94.6262 50.8604 95.2259 50.6451 95.8256C48.5287 102.387 47.9189 116.428 47.7754 122.213C47.7395 123.801 46.3764 125.036 44.7621 124.965C43.1838 124.894 41.9283 123.554 42 122.002L43.112 96.6017C43.686 92.6506 44.2241 89.1228 44.7263 86.477C46.8786 75.5057 52.2953 79.4568 51.255 94.0264Z" fill="#FEA821"/>
<path d="M42.7175 121.437C42.8251 119.109 43.686 97.6247 44.5111 92.7916C45.3361 87.9586 47.058 89.7577 46.1612 95.9313C45.2285 102.105 44.2241 119.991 44.1523 121.508C44.1165 122.989 42.6816 122.883 42.7175 121.437Z" fill="#FFF0DF"/>
<path d="M106.355 91.0631C106.319 91.31 106.283 91.557 106.211 91.8039C103.378 107.961 93.5127 122.178 83.5762 122.813C73.6397 123.448 59.3267 116.146 52.8339 101.717C49.3185 93.9206 49.8207 84.6426 57.7484 80.3387C58.8604 79.739 59.0398 78.2573 58.143 77.4459C51.7936 71.5898 50.8251 64.5695 55.9548 56.8437C56.5287 55.9618 56.2417 54.7976 55.3449 54.2685C44.6192 48.4124 46.6281 33.8074 57.3897 27.1046C57.9277 26.7519 58.5017 26.4344 59.0756 26.1522C70.2318 20.5077 90.7864 25.376 98.6783 48.5888C104.777 66.5098 105.996 72.8598 106.462 76.7756C107.216 82.8434 107.216 85.9126 106.355 91.0631Z" fill="#E65348"/>
<path d="M106.355 91.0629C106.319 91.3099 106.283 91.5568 106.211 91.8038C103.378 107.961 93.5127 122.178 83.5762 122.813C73.6397 123.448 59.3267 116.145 52.8339 101.717C49.3185 93.9204 49.8207 84.6424 57.7484 80.3385C58.8604 79.7388 59.0398 78.2571 58.143 77.4457C51.7936 71.5897 50.8251 64.5694 55.9548 56.8436C56.5287 55.9616 56.2417 54.7975 55.3449 54.2683C44.6192 48.4122 46.6281 33.8073 57.3897 27.1045C53.3002 33.1723 53.2285 39.3458 55.5961 43.8967C57.8201 48.0594 62.9857 50.67 70.447 51.1639C71.0569 51.1992 71.2004 52.0105 70.6623 52.2575C63.9901 55.6089 62.627 60.1244 62.7704 65.4513C62.9139 70.4608 68.1154 75.6819 75.3256 78.0102C76.1866 78.2924 76.1148 79.4919 75.2539 79.7035C66.9316 81.7496 61.2997 86.7591 63.0933 97.6246C64.8151 108.102 77.2627 115.51 87.4862 111.595C95.1628 108.667 102.373 100.941 106.355 91.0629Z" fill="#D1483F"/>
<path d="M62.5184 26.8223C68.509 25.4818 80.024 26.5401 87.2701 34.7598C93.6553 41.9917 88.418 41.7801 83.5035 38.1817C79.8087 35.4654 71.3429 32.3256 64.1685 33.137C58.6084 33.7367 55.9897 28.2687 62.5184 26.8223Z" fill="#FA6E64"/>
<path d="M89.8889 42.8389C90.5704 42.1333 91.8618 42.345 92.0412 42.3803C94.5522 42.8036 96.3099 46.3666 95.0186 48.06C94.5881 48.6597 93.7272 49.083 92.8662 49.0477C90.3911 48.8713 88.5257 44.2853 89.8889 42.8389Z" fill="#FA6E64"/>
<path d="M68.976 54.198C68.9043 53.563 69.0478 52.8928 68.8325 52.2578C68.8325 51.5169 68.5455 50.8819 68.1868 50.2822C68.0075 50 67.7922 49.8236 67.4694 49.753C66.5008 49.5767 65.5323 49.365 64.5638 49.1886C64.0974 49.118 63.5952 49.0828 63.1647 49.4355C62.2321 50.2469 61.1559 50.9525 60.5102 52.0461C60.4385 52.293 60.3667 52.54 60.582 52.7517C60.6178 53.2455 60.8331 53.6689 61.0842 54.0569C61.12 54.0922 61.1918 54.1628 61.2277 54.198C61.5505 55.0447 62.0527 55.7855 62.4114 56.5969C62.6267 57.6905 63.5593 57.9022 64.5996 57.2319C64.6714 57.1261 64.779 57.1261 64.9225 57.1614C64.9942 57.0555 65.1377 57.0203 65.2453 57.0203C65.3171 56.9144 65.4247 56.9497 65.5323 56.9144C65.604 56.8439 65.6399 56.7733 65.7475 56.738C66.7161 56.4205 67.577 55.9266 68.4738 55.4328C68.5455 55.2564 68.7249 55.1858 68.7966 55.0094C68.8325 55.0094 68.8325 54.9741 68.8684 54.9741C69.0836 54.7625 68.976 54.4803 68.976 54.198Z" fill="#F7F2EF"/>
<path d="M51.3984 88.3109C51.3625 87.8876 51.4701 87.429 51.2908 87.0056C51.2908 86.5117 51.0756 86.0884 50.8245 85.6651C50.7168 85.4534 50.5733 85.3476 50.3581 85.3123C49.7124 85.1712 49.0667 85.0653 48.421 84.9595C48.0982 84.9242 47.7753 84.889 47.4884 85.1359C46.8785 85.7003 46.1611 86.159 45.7306 86.8998C45.6948 87.0762 45.623 87.2173 45.7665 87.3584C45.7665 87.6759 45.9459 87.9581 46.1252 88.2403C46.1611 88.2756 46.197 88.3109 46.2328 88.3462C46.4481 88.9106 46.8068 89.4045 47.022 89.9689C47.1655 90.7098 47.7753 90.8509 48.4928 90.3923C48.5286 90.3217 48.6363 90.3217 48.708 90.357C48.7797 90.2864 48.8515 90.2512 48.9232 90.2512C48.9591 90.1806 49.0667 90.1806 49.1385 90.1806C49.1743 90.1453 49.2102 90.0748 49.282 90.0748C49.9277 89.8631 50.5375 89.5103 51.1114 89.1928C51.1832 89.087 51.2908 89.0164 51.3267 88.9106L51.3625 88.8753C51.4701 88.6637 51.3984 88.4873 51.3984 88.3109Z" fill="#F7F2EF"/>
<path d="M65.3171 73.4241C65.1736 72.2246 65.4606 70.9899 65.066 69.8257C65.0302 68.4852 64.4921 67.321 63.8105 66.1569C63.4877 65.6277 63.0572 65.3102 62.5191 65.2044C60.7255 64.8516 58.9678 64.4635 57.1383 64.1813C56.2415 64.0402 55.3088 64.0049 54.5914 64.6752C52.8696 66.1921 50.8966 67.4269 49.7128 69.473C49.5693 69.9316 49.4258 70.3549 49.8563 70.7782H49.8922C49.9281 71.6955 50.3585 72.4363 50.8249 73.1771C50.9325 73.283 51.0042 73.3535 51.1118 73.4594C51.7217 75.0116 52.6543 76.3874 53.3 77.9043C53.7305 79.8799 55.3806 80.3032 57.3177 79.1038C57.4612 78.8921 57.6764 78.8921 57.8916 78.9627C58.071 78.7863 58.2504 78.6805 58.5015 78.6805C58.6449 78.4688 58.8602 78.5393 59.0754 78.5041C59.183 78.3982 59.2906 78.2571 59.4341 78.1866C61.1919 77.5868 62.842 76.6696 64.4921 75.7524C64.6356 75.4702 64.9943 75.2585 65.066 74.941C65.1019 74.9057 65.1378 74.9057 65.1736 74.8705C65.4965 74.4119 65.2813 73.918 65.3171 73.4241Z" fill="#F7F2EF"/>
</g>
<defs>
<clipPath id="clip0">
<rect x="42" y="24" width="65" height="101" fill="white"/>
</clipPath>
</defs>
</svg>
