<svg width="149" height="149" viewBox="0 0 149 149" fill="none" xmlns="http://www.w3.org/2000/svg">
<path d="M149 74.5C149 115.6 115.6 149 74.5 149C33.4 149 0 115.6 0 74.5C0 33.4 33.4 0 74.5 0C115.6 0 149 33.4 149 74.5Z" fill="#F8F6F6"/>
<mask id="mask0" mask-type="alpha" maskUnits="userSpaceOnUse" x="0" y="0" width="149" height="149">
<path d="M149 74.5C149 115.6 115.6 149 74.5 149C33.4 149 0 115.6 0 74.5C0 33.4 33.4 0 74.5 0C115.6 0 149 33.4 149 74.5Z" fill="#F8F6F6"/>
</mask>
<g mask="url(#mask0)">
<path d="M61.2312 154.187C63.6805 157.22 65.1502 162.929 65.9518 170.021C54.8182 185.81 63.1461 238.172 62.7453 244.149C61.8101 258.199 57.4457 261.722 57.7129 268.279C61.9437 271.267 95.1218 272.114 97.6158 271.401C100.733 269.617 88.3526 264.443 79.5348 261.455C70.6724 258.466 70.0044 255.879 69.8708 249.59C69.7372 243.302 78.3324 180.993 82.0287 174.838C85.7251 168.683 85.1461 168.861 82.9639 161.1C80.7818 153.34 78.8668 143.394 78.8668 143.394H73.7453L61.2312 154.187Z" fill="#FFD0A2"/>
<path d="M85.3239 139.067C87.7733 142.1 89.243 147.809 90.0446 154.901C78.911 170.69 87.2389 223.052 86.8381 229.029C85.9029 243.079 81.5385 246.602 81.8057 253.159C86.0365 256.147 119.215 256.994 121.709 256.281C124.826 254.497 112.445 249.323 103.628 246.334C94.7652 243.346 94.0972 240.759 93.9636 234.47C93.83 228.182 102.425 165.873 106.122 159.718C109.818 153.563 109.239 153.741 107.057 145.98C104.875 138.22 102.96 128.273 102.96 128.273H97.8826L85.3239 139.067Z" fill="#FFD0A2"/>
<path d="M76.8619 -68.5545C80.4692 -69.4466 86.7485 -72.9255 89.5987 -71.7659C92.449 -70.6062 97.3477 -63.1577 100.198 -57.3149C103.048 -51.472 107.012 -49.465 107.813 -47.7255C108.615 -45.9414 106.032 -39.8756 103.716 -34.0773C101.4 -28.2791 92.5826 -5.88899 96.368 3.25438C100.198 12.3978 107.991 13.9588 111.02 12.8438C112.311 15.9213 102.113 30.7737 93.6514 30.8183C85.2344 30.9075 71.4732 26.8041 71.4732 26.8041L47.3801 22.6562C40.5664 16.0551 39.5421 4.54784 40.1656 1.06889C44.2627 0.712082 54.372 -18.2883 55.0846 -25.6476C55.7526 -33.0069 53.036 -39.9648 54.4166 -46.7889C55.7971 -53.5683 62.8781 -69.179 68.7121 -69.5804C74.5461 -69.9818 76.8619 -68.5545 76.8619 -68.5545Z" fill="#382040"/>
<path d="M82.5634 4.94922C84.7902 5.61825 89.9562 6.55488 94.3651 21.4073C98.8185 36.2597 100.199 70.6923 86.527 72.744C79.5796 68.6852 78.9562 67.0349 78.9562 67.0349C81.8954 64.7157 83.3651 58.0254 79.9804 49.1942C76.5958 40.3631 82.5634 4.94922 82.5634 4.94922Z" fill="#FDD36A"/>
<path d="M85.9924 11.5954C87.3284 14.6284 90.6239 22.2107 92.2272 25.868C92.8507 27.3399 92.8952 28.9455 92.3163 30.4174C90.6239 34.7884 85.9924 42.4153 81.4053 50.2652C75.7049 60.0776 77.4418 76.5803 82.7859 83.8058C88.0855 91.0313 103.049 125.107 103.494 130.415C92.049 143.483 66.4863 157.8 60.4742 157.666C57.7576 145.267 43.1948 125.107 44.13 103.431C45.0652 81.7541 50.0976 70.8712 50.0976 70.8712L52.6806 26.0018L68.6239 5.8418L85.9924 11.5954Z" fill="#FCE587"/>
<path d="M71.0728 -22.6592C72.5424 -17.0394 71.6963 -4.59544 64.3481 0.53377C56.9999 5.70758 76.8622 14.4495 85.9918 11.595C80.3805 4.81554 80.3359 -7.40536 83.9432 -12.3116C79.1335 -18.2436 71.0728 -22.6592 71.0728 -22.6592Z" fill="#ECAF8D"/>
<path d="M84.3442 68.4626C81.5385 67.0799 78.7774 64.9836 77.2187 65.4743C75.6154 65.9203 69.915 74.0824 69.915 74.0824C69.915 74.0824 76.9069 75.9111 76.9515 75.9111C76.996 75.9111 84.166 74.5284 83.9879 74.1716C83.8543 73.8148 84.3442 68.4626 84.3442 68.4626Z" fill="#ECAF8D"/>
<path d="M76.6843 65.7861C74.6357 67.3918 69.915 74.0375 69.915 74.0375C69.915 74.0375 72.7652 74.7957 74.8584 75.3309L78.2875 74.3497C78.2875 74.3943 75.6154 69.6219 76.6843 65.7861Z" fill="#ECAF8D"/>
<path d="M76.9521 74.3948C77.7538 73.3689 82.3854 67.5707 83.7214 67.0801C85.859 67.9275 87.7295 70.6036 88.1303 73.2351C88.5311 75.822 77.7538 78.4982 77.7538 78.4982L76.9521 74.3948Z" fill="#FFD0A2"/>
<path d="M69.7634 -0.692103C68.0265 -3.27901 60.5893 -6.31193 53.5529 6.26578C46.4719 18.8435 33.2452 54.2127 39.7472 69.2436C46.2492 84.2744 60.4557 95.2018 79.1601 77.4057C77.4233 75.1756 77.9132 72.2765 77.9132 72.2765C74.2168 73.0793 63.8403 70.2248 61.1682 64.5158C58.4962 58.8067 59.6541 42.8393 62.1925 35.703C64.7755 28.5667 74.4395 6.26578 69.7634 -0.692103Z" fill="#FDD36A"/>
<path d="M93.4241 91.3378C94.455 91.2971 95.486 91.2564 96.5035 91.2411C97.5345 91.2004 98.552 91.1852 99.5815 91.2088C100.599 91.1935 101.642 91.1917 102.646 91.2018L105.723 91.2338C106.752 91.2574 107.782 91.281 108.786 91.2911L111.888 91.3365C113.934 91.4091 115.979 91.4817 118.025 91.5544L116.974 93.666C115.656 92.1562 114.323 90.6718 113.018 89.1366L111.059 86.8658L109.113 84.5697L107.18 82.3124L110.14 82.3803C112.456 82.4334 114.759 82.5119 117.049 82.6159C119.352 82.6944 121.654 82.8372 123.969 82.9546C125.113 83.0066 126.27 83.0974 127.427 83.1883C128.584 83.2791 129.729 83.3311 130.898 83.4608C132.054 83.5517 133.211 83.6425 134.355 83.7588C135.498 83.8751 136.667 84.0048 137.797 84.1465C136.636 84.2485 135.475 84.3506 134.327 84.4272C133.18 84.5038 132.006 84.567 130.859 84.6436C129.711 84.7202 128.552 84.758 127.392 84.7957C126.232 84.8335 125.085 84.9101 123.913 84.909C121.607 84.959 119.288 85.0345 116.97 85.0457C114.652 85.0569 112.334 85.0681 110.03 85.0539L111.056 82.8645L113.015 85.1352L114.974 87.4059C116.28 88.9412 117.56 90.4629 118.865 91.9982L120.848 94.3467L117.815 94.1099C115.784 93.9475 113.727 93.7717 111.71 93.5839L108.653 93.2694C107.638 93.1561 106.61 93.0682 105.595 92.9549L102.525 92.6015C101.511 92.4881 100.484 92.3359 99.4692 92.2226C98.4545 92.1093 97.4278 91.9571 96.401 91.8049C95.4641 91.6676 94.4374 91.5154 93.4241 91.3378Z" fill="#EB5757"/>
<path d="M89.6406 87.0956C89.9079 86.6515 90.1885 86.1818 90.4812 85.7511C90.7739 85.3204 91.0666 84.8896 91.3593 84.4589C91.9447 83.5974 92.581 82.7629 93.2172 81.9283C93.8535 81.0937 94.5019 80.298 95.1636 79.4769C95.8119 78.6812 96.4991 77.8736 97.1729 77.0913L98.1426 79.2622C97.1371 79.3163 96.1062 79.357 95.0886 79.3723C94.5859 79.3994 94.0711 79.3876 93.5684 79.4146L92.0361 79.4181L89.0358 79.4265L90.99 77.2069C92.5348 75.4539 94.156 73.7413 95.8147 72.081C96.644 71.2509 97.4988 70.4342 98.3911 69.6698C98.8245 69.2809 99.2713 68.8666 99.7302 68.4911C100.189 68.1157 100.648 67.7402 101.107 67.3648C100.825 67.8987 100.531 68.3937 100.223 68.9142C99.9155 69.4346 99.596 69.9162 99.263 70.4232C98.6359 71.4252 97.9579 72.4004 97.2679 73.3366C95.8999 75.248 94.4689 77.0937 92.9871 78.9124L91.953 76.7401L93.5362 76.7635C94.039 76.7364 94.5538 76.7482 95.0565 76.7212C96.074 76.7059 97.0781 76.716 98.1077 76.7396L101.223 76.7596L99.0908 78.8851C98.3541 79.6015 97.6039 80.3434 96.8672 81.0599C96.105 81.7629 95.3429 82.4659 94.5552 83.1555C93.7676 83.8451 92.98 84.5347 92.1549 85.1719C91.7483 85.51 91.3552 85.8226 90.9232 86.1472C90.5167 86.4853 90.0847 86.8099 89.6406 87.0956Z" fill="#EB5757"/>
</g>
</svg>
