<svg xmlns="http://www.w3.org/2000/svg" width="35" height="35" viewBox="0 0 35 35" fill="none"><path d="M15.3692 29C14.9191 29 14.5542 28.6102 14.5542 28.1293V20.9738C14.5542 20.375 14.1948 19.8524 13.6599 19.6735L10.756 18.7018C10.3264 18.5581 10.0873 18.0696 10.2218 17.6107C10.3564 17.1518 10.8138 16.8963 11.2432 17.04L14.1471 18.0117C15.3657 18.4194 16.1843 19.6098 16.1843 20.9738V28.1293C16.1843 28.6102 15.8194 29 15.3692 29Z" fill="#FEECD1"></path><path opacity="0.1" d="M14.0648 19.9062C13.7645 18.9353 13.2274 18.0439 12.484 17.2969L10.6682 16.7432C10.135 16.5805 9.5669 16.8696 9.39982 17.3889C9.23273 17.9083 9.52969 18.4611 10.0631 18.6238L13.669 19.7233C13.8121 19.767 13.9443 19.8295 14.0648 19.9062Z" fill="black"></path><path d="M20.0377 29.5312C19.5664 29.5312 19.1843 29.1143 19.1843 28.6001V20.9476C19.1843 19.4889 20.0415 18.2159 21.3173 17.7798L24.3577 16.7407C24.8073 16.587 25.2863 16.8602 25.4271 17.351C25.568 17.8417 25.3176 18.3642 24.8678 18.5179L21.8274 19.557C21.2674 19.7484 20.8911 20.3073 20.8911 20.9476V28.6001C20.8911 29.1143 20.509 29.5312 20.0377 29.5312Z" fill="#FEECD1"></path><path opacity="0.1" d="M20.844 19.9062C21.1443 18.9353 21.6814 18.0439 22.4248 17.2969L24.2406 16.7432C24.7738 16.5805 25.3419 16.8696 25.509 17.3889C25.6761 17.9083 25.3791 18.4611 24.8456 18.6238L21.2397 19.7233C21.0967 19.767 20.9645 19.8295 20.844 19.9062Z" fill="black"></path><path d="M24.9743 16.6663L21.5172 15.4936C20.7898 15.2469 20.1789 14.7533 19.7973 14.1038L18.981 12.7149C18.7111 12.2556 18.5692 11.7361 18.5692 11.2075V6.33386C18.5692 5.8808 18.2104 5.49097 17.7441 5.46971C17.2462 5.44697 16.8352 5.83194 16.8352 6.3101V11.2076C16.8352 11.7362 16.6933 12.2558 16.4234 12.7149L15.6071 14.1038C15.2254 14.7533 14.6146 15.2469 13.8872 15.4936L10.4536 16.6583C10.0031 16.8111 9.74303 17.2847 9.89287 17.7244C10.0138 18.0792 10.3531 18.3021 10.7161 18.3021C10.811 18.3021 10.9075 18.2869 11.0022 18.2547L14.4594 17.082C15.5818 16.7013 16.5244 15.9396 17.1134 14.9374L17.6265 14.0644C17.6599 14.0075 17.7444 14.0075 17.7779 14.0644L18.2909 14.9373C18.8799 15.9396 19.8226 16.7013 20.945 17.082L24.4021 18.2547C24.4968 18.2869 24.5933 18.3021 24.6882 18.3021C25.0465 18.3021 25.3817 18.0849 25.5066 17.7381C25.6646 17.2995 25.4263 16.8196 24.9743 16.6663Z" fill="#C7D7E2"></path><path opacity="0.1" d="M22.0138 17.3645C22.1465 17.2355 22.1736 17.132 22.1736 17.0162C22.1736 16.9003 22.1465 16.7968 22.0138 16.6677C21.5326 16.1997 21.1412 15.6683 20.844 15.0938C20.9246 15.1279 21.0063 15.16 21.0899 15.1884L24.8882 16.4796C25.3865 16.649 25.6742 17.1742 25.5085 17.6616C25.3747 18.055 24.9994 18.3021 24.5978 18.3021C24.4928 18.3021 24.386 18.2852 24.2813 18.2496L21.9299 17.4502C21.958 17.4218 21.985 17.3925 22.0138 17.3645Z" fill="black"></path><path opacity="0.1" d="M12.895 17.3645C12.7623 17.2355 12.7351 17.132 12.7351 17.0162C12.7351 16.9003 12.7623 16.7968 12.895 16.6677C13.3761 16.1997 13.7676 15.6683 14.0648 15.0938C13.9842 15.1279 13.9025 15.16 13.8189 15.1884L10.0206 16.4796C9.52228 16.649 9.23457 17.1742 9.40031 17.6616C9.53408 18.055 9.90941 18.3021 10.311 18.3021C10.416 18.3021 10.5228 18.2852 10.6275 18.2496L12.979 17.4502C12.9507 17.4218 12.9238 17.3925 12.895 17.3645Z" fill="black"></path><path d="M2.49976 17.5C2.49976 19.8118 3.1614 22.8281 5.4995 25.0309C7.32818 26.7536 10.2931 26.7536 12.1218 25.0309C13.9505 23.3081 13.9505 20.5149 12.1218 18.7921C11.5981 18.2987 11.5425 17.7716 11.5425 17.5C11.5425 17.2284 11.5981 16.7013 12.1218 16.2079C13.9505 14.4852 13.9505 11.692 12.1218 9.9692C10.2931 8.24643 7.32818 8.24643 5.4995 9.9692C3.1614 12.1719 2.49976 15.1883 2.49976 17.5Z" fill="#F27788"></path><path opacity="0.1" d="M3.54594 11.8854C1.97292 13.8266 1.50073 16.2037 1.50073 18.0827C1.50073 20.2418 2.1235 23.0589 4.32428 25.1161C6.04551 26.7251 8.83622 26.7251 10.5575 25.1161C10.6902 24.992 10.8115 24.8614 10.9238 24.7263C5.03677 26.2971 0.721259 17.942 3.54594 11.8854Z" fill="black"></path><path d="M33.4081 17.5C33.4081 19.8118 32.7464 22.8281 30.4083 25.0309C28.5796 26.7536 25.6147 26.7536 23.7861 25.0309C21.9574 23.3081 21.9574 20.5149 23.7861 18.7921C24.3098 18.2987 24.3654 17.7716 24.3654 17.5C24.3654 17.2284 24.3097 16.7013 23.7861 16.2079C21.9574 14.4852 21.9574 11.692 23.7861 9.9692C25.6147 8.24643 28.5796 8.24643 30.4083 9.9692C32.7464 12.1719 33.4081 15.1883 33.4081 17.5Z" fill="#F27788"></path><path opacity="0.1" d="M27.2639 24.0304C24.3485 23.8269 23.4636 20.8136 24.0368 18.3021C23.9695 18.3954 23.8893 18.4893 23.7929 18.5821C21.9551 20.3529 21.9551 23.224 23.7929 24.9948C25.6308 26.7657 28.6106 26.7657 30.4485 24.9948C32.4233 23.0921 33.2079 20.5989 33.4081 18.441C31.4632 22.8234 30.3112 24.2432 27.2639 24.0304Z" fill="black"></path><path d="M32.1997 12.5161C32.0878 12.3052 31.8123 12.2179 31.5839 12.3215C31.3558 12.425 31.2616 12.68 31.3735 12.891C32.2944 14.627 32.4877 16.413 32.4877 17.6055C32.4877 19.2171 32.1262 22.255 29.7053 24.4939C28.9321 25.209 27.9042 25.6028 26.8107 25.6028C25.7174 25.6028 24.6894 25.209 23.9162 24.4939C23.143 23.7789 22.7172 22.8282 22.7172 21.8169C22.7172 21.1722 22.891 20.5524 23.2168 20.0023C23.2264 19.9888 23.2348 19.9747 23.2426 19.9603C23.4237 19.6636 23.6486 19.3874 23.9162 19.1399C24.0762 18.9919 24.2092 18.8304 24.3152 18.6583L24.3203 18.6502C24.3465 18.6073 24.3712 18.5639 24.394 18.5197C24.871 18.7879 25.1566 19.198 25.297 19.4518C25.3785 19.5989 25.5397 19.6835 25.707 19.6835C25.7775 19.6835 25.8492 19.6684 25.9163 19.6366C26.1425 19.5295 26.2319 19.2731 26.1162 19.0639C25.7624 18.4251 25.2366 17.9386 24.6128 17.6632C24.6134 17.644 24.6143 17.6249 24.6143 17.6055C24.6143 17.4991 24.606 17.3945 24.59 17.2919C25.2243 17.0186 25.757 16.5296 26.1161 15.881C26.2319 15.6718 26.1424 15.4154 25.9162 15.3083C25.6899 15.2011 25.4128 15.2839 25.297 15.4931C25.1434 15.7706 24.8222 16.2254 24.2738 16.4875C24.2528 16.4561 24.2309 16.4252 24.2081 16.3947C24.2027 16.3873 24.1973 16.3801 24.1914 16.373C24.1106 16.2674 24.0192 16.1664 23.9162 16.0712C22.3201 14.5951 22.3201 12.1933 23.9162 10.7171C24.6893 10.0021 25.7173 9.60826 26.8107 9.60826C27.9041 9.60826 28.9321 10.0021 29.7053 10.7172C29.9024 10.8994 30.0923 11.0935 30.2698 11.2941C30.4308 11.476 30.7207 11.5028 30.9173 11.3539C31.114 11.205 31.1429 10.9369 30.982 10.7551C30.7852 10.5327 30.5746 10.3175 30.356 10.1154C28.4011 8.30739 25.2203 8.30745 23.2655 10.1154C21.616 11.6409 21.3584 13.9735 22.4924 15.7512L21.8699 15.5499C21.209 15.3363 20.6541 14.9089 20.3073 14.3465L19.448 12.9531C19.2039 12.5573 19.0749 12.1073 19.0749 11.6516V6.76222C19.0749 6.06963 18.5008 5.50209 17.7678 5.4702C17.3879 5.45375 17.0286 5.57783 16.7545 5.8197C16.4843 6.05817 16.3293 6.39297 16.3293 6.73839V11.6517C16.3293 12.1073 16.2003 12.5573 15.9562 12.9531L15.097 14.3464C14.7502 14.9089 14.1952 15.3363 13.5343 15.5499L12.9148 15.7501C13.3669 15.0439 13.6086 14.2362 13.6086 13.394C13.6086 12.1555 13.0871 10.9911 12.1401 10.1153C11.1932 9.23947 9.93413 8.75709 8.59491 8.75709C7.25568 8.75709 5.99658 9.23941 5.04967 10.1153C2.39429 12.5712 1.9978 15.8623 1.9978 17.6055C1.9978 19.1187 2.30509 22.0118 4.36319 24.3868C4.52208 24.5702 4.81171 24.5997 5.00998 24.4527C5.20826 24.3058 5.24016 24.0379 5.08127 23.8545C3.19906 21.6826 2.91802 19.007 2.91802 17.6055C2.91802 15.994 3.27948 12.9561 5.70039 10.7171C6.47356 10.0021 7.5015 9.60826 8.59497 9.60826C9.68837 9.60826 10.7164 10.0021 11.4895 10.7171C12.2627 11.4322 12.6885 12.3829 12.6885 13.3942C12.6885 14.4054 12.2628 15.3561 11.4895 16.0712C11.3867 16.1663 11.2955 16.2671 11.2148 16.3725C11.2089 16.3794 11.2035 16.3866 11.1982 16.3939C11.1752 16.4247 11.1531 16.4559 11.1319 16.4875C10.5836 16.2254 10.2623 15.7706 10.1087 15.4931C9.99284 15.2839 9.71555 15.2012 9.48942 15.3083C9.26323 15.4154 9.17378 15.6718 9.28961 15.881C9.64874 16.5296 10.1814 17.0186 10.8157 17.2919C10.7997 17.3945 10.7915 17.4991 10.7915 17.6055C10.7915 17.6248 10.7924 17.6439 10.7929 17.6632C10.1691 17.9386 9.64328 18.425 9.28961 19.0639C9.17378 19.2731 9.26329 19.5295 9.48942 19.6366C9.55659 19.6684 9.62819 19.6835 9.69874 19.6835C9.86597 19.6835 10.0272 19.5989 10.1087 19.4518C10.2492 19.198 10.5347 18.7879 11.0118 18.5197C11.0357 18.5661 11.0619 18.6118 11.0896 18.6569C11.0931 18.6626 11.0965 18.6683 11.1002 18.6739C11.2046 18.8401 11.3343 18.9964 11.4895 19.1399C11.757 19.3872 11.9817 19.6633 12.1628 19.9598C12.1708 19.9745 12.1793 19.9889 12.1891 20.0027C12.5147 20.5527 12.6884 21.1723 12.6884 21.8169C12.6884 22.8281 12.2626 23.7789 11.4894 24.4939C10.1841 25.7011 8.15596 25.9511 6.55754 25.1018C6.33718 24.9847 6.05596 25.055 5.92934 25.2588C5.80278 25.4626 5.87879 25.7227 6.09909 25.8398C6.87563 26.2523 7.73475 26.4532 8.58865 26.4532C9.88812 26.4532 11.1754 25.988 12.1401 25.0957C13.087 24.2199 13.6086 23.0555 13.6086 21.8169C13.6086 21.3472 13.5332 20.8883 13.3884 20.4516L13.4532 20.4703C13.8592 20.588 14.132 20.9313 14.132 21.3248V28.2616C14.132 28.9617 14.7479 29.5313 15.5048 29.5313C16.2618 29.5313 16.8777 28.9617 16.8777 28.2616V21.3248C16.8777 19.8155 15.8313 18.4983 14.2739 18.0471L14.1982 18.0251L14.4403 17.9469C15.7266 17.531 16.8068 16.6991 17.4819 15.6044L17.702 15.2475L17.9221 15.6043C18.5972 16.6991 19.6774 17.531 20.9638 17.9469L21.2066 18.0254L21.1315 18.0471C19.5742 18.4983 18.5279 19.8155 18.5279 21.3248V28.2616C18.5279 28.9617 19.1437 29.5313 19.9006 29.5313C20.6576 29.5313 21.2734 28.9617 21.2734 28.2616V21.3248C21.2734 20.9313 21.5462 20.5879 21.9522 20.4703L22.0171 20.4516C21.8723 20.8883 21.7969 21.3472 21.7969 21.8169C21.7969 23.0555 22.3184 24.22 23.2653 25.0957C24.2429 25.9998 25.5265 26.4518 26.8106 26.4517C28.0943 26.4516 29.3785 25.9996 30.3559 25.0957C33.0114 22.6399 33.4079 19.3487 33.4079 17.6055C33.4079 16.3229 33.1983 14.3987 32.1997 12.5161ZM15.9576 21.3248V28.2616C15.9576 28.4925 15.7545 28.6802 15.5049 28.6802C15.2554 28.6802 15.0524 28.4925 15.0524 28.2616V21.3248C15.0524 20.5573 14.5203 19.8876 13.7284 19.6582L12.8842 19.4136C12.7063 19.1431 12.4966 18.8884 12.2579 18.6524L12.7432 18.4956L13.9989 18.8593C15.1705 19.1986 15.9576 20.1895 15.9576 21.3248ZM18.7215 15.1827L18.1814 14.3069C18.0834 14.148 17.8997 14.0494 17.7019 14.0494C17.5042 14.0495 17.3205 14.1481 17.2227 14.3069L16.6825 15.1827C16.1175 16.099 15.2133 16.7954 14.1366 17.1435L11.7521 17.9143C11.7262 17.8151 11.7115 17.7124 11.7115 17.6055C11.7115 17.3813 11.769 17.174 11.8824 16.9854L13.8379 16.3533C14.7084 16.0719 15.4394 15.5089 15.8963 14.768L16.7555 13.3747C17.0786 12.8507 17.2494 12.2549 17.2494 11.6517V6.73839C17.2494 6.62281 17.2992 6.51524 17.3897 6.43547C17.48 6.35575 17.5992 6.3149 17.7244 6.32029C17.9616 6.33062 18.1546 6.52886 18.1546 6.76222V11.6516C18.1546 12.2548 18.3254 12.8507 18.6485 13.3747L19.5078 14.768C19.9645 15.5089 20.6955 16.0719 21.5662 16.3533L23.5235 16.986C23.6367 17.1744 23.694 17.3816 23.694 17.6055C23.694 17.7126 23.6793 17.8154 23.6533 17.9147L21.2675 17.1435C20.1908 16.7954 19.2866 16.0991 18.7215 15.1827ZM21.6772 19.6582C20.8853 19.8876 20.3533 20.5573 20.3533 21.3248V28.2616C20.3533 28.4925 20.1502 28.6802 19.9007 28.6802C19.6512 28.6802 19.4481 28.4925 19.4481 28.2616V21.3248C19.4481 20.1895 20.2352 19.1986 21.4067 18.8593L22.6617 18.4958L23.1474 18.6528C22.9089 18.8886 22.6993 19.1432 22.5215 19.4136L21.6772 19.6582Z" fill="#454B54"></path></svg>